<?xml version="1.0" encoding="UTF-8"?>
<svg id="Layer_1" xmlns="http://www.w3.org/2000/svg" xmlns:xlink="http://www.w3.org/1999/xlink" version="1.1" viewBox="0 0 1200 1697.14">
  <!-- Generator: Adobe Illustrator 29.6.0, SVG Export Plug-In . SVG Version: 2.1.1 Build 207)  -->
  <defs>
    <style>
      .st0, .st1, .st2, .st3 {
        fill: none;
      }

      .st1 {
        stroke: #0d0e1c;
      }

      .st1, .st2, .st3 {
        stroke-linecap: round;
        stroke-linejoin: round;
      }

      .st1, .st3 {
        stroke-width: .08px;
      }

      .st2 {
        stroke-width: .14px;
      }

      .st2, .st3 {
        stroke: #000;
      }

      .st4 {
        clip-path: url(#clippath-1);
      }

      .st5 {
        clip-path: url(#clippath-3);
      }

      .st6 {
        clip-path: url(#clippath-4);
      }

      .st7 {
        clip-path: url(#clippath-2);
      }

      .st8 {
        clip-path: url(#clippath-7);
      }

      .st9 {
        clip-path: url(#clippath-6);
      }

      .st10 {
        clip-path: url(#clippath-9);
      }

      .st11 {
        clip-path: url(#clippath-8);
      }

      .st12 {
        clip-path: url(#clippath-5);
      }

      .st13 {
        fill: #fff;
      }

      .st14 {
        fill: #ece9e5;
      }

      .st15 {
        fill: #302c35;
      }

      .st16 {
        clip-path: url(#clippath);
      }
    </style>
    <clipPath id="clippath">
      <rect class="st0" x="192.91" y="434.88" width="814.19" height="827.39"/>
    </clipPath>
    <clipPath id="clippath-1">
      <rect class="st0" x="741.86" y="628.57" width="72.58" height="159.65"/>
    </clipPath>
    <clipPath id="clippath-2">
      <rect class="st0" x="192.91" y="434.88" width="814.19" height="827.39"/>
    </clipPath>
    <clipPath id="clippath-3">
      <rect class="st0" x="626.57" y="1119.32" width="39.21" height="28.6"/>
    </clipPath>
    <clipPath id="clippath-4">
      <rect class="st0" x="192.91" y="434.88" width="814.19" height="827.39"/>
    </clipPath>
    <clipPath id="clippath-5">
      <rect class="st0" x="192.91" y="434.88" width="814.19" height="827.39"/>
    </clipPath>
    <clipPath id="clippath-6">
      <rect class="st0" x="694.43" y="1168.84" width="56.78" height="42.08"/>
    </clipPath>
    <clipPath id="clippath-7">
      <rect class="st0" x="192.91" y="434.88" width="814.19" height="827.39"/>
    </clipPath>
    <clipPath id="clippath-8">
      <rect class="st0" x="192.91" y="434.88" width="814.19" height="827.39"/>
    </clipPath>
    <clipPath id="clippath-9">
      <rect class="st0" x="192.91" y="434.88" width="814.19" height="827.39"/>
    </clipPath>
  </defs>
  <rect class="st14" x="380.23" y="807.23" width="452.96" height="427.65"/>
  <rect class="st14" x="380.23" y="580.74" width="452.96" height="46.92"/>
  <rect class="st14" x="489.09" y="627.66" width="344.11" height="179.56"/>
  <rect class="st14" x="485.88" y="493.32" width="249.77" height="87.42"/>
  <rect class="st13" x="524.7" y="1043.74" width="95.52" height="47.69"/>
  <rect class="st13" x="396.1" y="1171.08" width="128.6" height="47.93"/>
  <rect class="st13" x="514.57" y="585.13" width="199.07" height="11.81"/>
  <rect class="st15" x="380.23" y="807.23" width="15.86" height="283.53"/>
  <rect class="st15" x="380.23" y="1162.31" width="15.86" height="72.57"/>
  <rect class="st15" x="396.1" y="1219.01" width="419.55" height="15.87"/>
  <rect class="st15" x="731.6" y="493.32" width="4.05" height="87.42"/>
  <rect class="st15" x="485.88" y="493.32" width="4.05" height="87.42"/>
  <rect class="st15" x="711.9" y="611.46" width="121.3" height="16.2"/>
  <rect class="st15" x="487.9" y="627.66" width="15.87" height="195.77"/>
  <rect class="st15" x="396.1" y="807.23" width="91.81" height="16.2"/>
  <rect class="st15" x="396.1" y="942.91" width="43.88" height="8.1"/>
  <rect class="st15" x="420.06" y="823.43" width="19.92" height="119.49"/>
  <rect class="st15" x="524.7" y="1091.43" width="95.52" height="8.1"/>
  <rect class="st15" x="524.7" y="1099.53" width="11.14" height="119.49"/>
  <rect class="st15" x="599.63" y="1099.53" width="20.59" height="119.49"/>
  <rect class="st15" x="815.64" y="627.66" width="17.55" height="607.21"/>
  <rect class="st15" x="799.78" y="1015.82" width="9.11" height="6.41"/>
  <rect class="st15" x="620.22" y="1020.88" width="5.06" height="198.13"/>
  <rect class="st15" x="625.28" y="1210.91" width="183.61" height="13.72"/>
  <rect class="st15" x="807.54" y="1015.82" width="9.57" height="205.05"/>
  <rect class="st15" x="625.28" y="1020.88" width="1.35" height="190.03"/>
  <rect class="st15" x="620.22" y="1015.82" width="101.09" height="6.41"/>
  <rect class="st15" x="711.9" y="580.74" width="121.3" height="30.72"/>
  <rect class="st15" x="380.23" y="611.46" width="134.34" height="16.2"/>
  <rect class="st15" x="380.23" y="580.74" width="134.34" height="30.72"/>
  <rect class="st15" x="489.93" y="493.32" width="241.67" height="3.71"/>
  <path class="st3" d="M420.06,823.43v119.48M420.06,942.91h-23.96M396.1,864.27v-40.84M599.63,1099.53v119.49M599.63,1219.01h-63.79M535.83,1219.01v-119.49M535.83,1099.53h63.79M396.1,1219.01v-55.69M380.23,1162.31v72.57M396.1,1089.74v-138.73M396.1,942.91v-119.48M396.1,807.23h-15.87M380.23,807.23v137.04M380.23,944.26v146.49M524.7,1219.01h-128.6M396.1,1234.87h173.15M585.11,1234.87h138.39M739.36,1234.87h76.28M708.31,509.86l-13.16,1.35M695.15,511.21l-12.83,3.38M682.32,514.59l-11.81,5.4M670.51,519.99l-10.8,7.43M659.71,527.41l-9.11,9.45M650.59,536.87l-7.76,10.8M642.83,547.67l-5.4,11.82M637.43,559.48l-3.38,12.83M634.06,572.31l-1.35,12.83M708.31,585.13v-75.27M703.25,585.81v4.05M637.77,585.81h65.48M637.77,589.86v-4.05M703.25,589.86h-65.48M634.39,596.95h72.23M703.25,585.13h-65.48M703.25,591.55h-65.48M634.39,591.55v5.4M706.62,591.55v5.4M706.62,591.55h-72.23M634.39,591.55v5.4M637.77,591.55h-3.38M637.77,585.13v6.41M630.34,585.13h7.43M630.34,596.95v-11.82M634.39,596.95h-4.05M710.67,585.13v11.82M703.25,585.13h7.43M703.25,591.55v-6.41M706.62,591.55h-3.38M706.62,596.95v-5.4M710.67,596.95h-4.05M519.63,589.86h105.64M625.28,589.86v-4.05M625.28,585.81h-105.64M519.63,585.81v4.05M625.28,596.95h-105.64M519.63,585.13h105.64M625.28,596.95h4.05M629.33,596.95v-11.82M629.33,585.13h-4.05M625.28,585.13v11.82M515.58,596.95h4.05M519.63,596.95v-11.82M519.63,585.13h-4.05M515.58,585.13v11.82M489.93,497.04v83.71M731.6,580.74v-83.71M731.6,497.04h-241.67M485.88,580.74h4.05M489.93,580.74v-83.71M489.93,497.04h241.67M731.6,497.04v83.71M731.6,580.74h4.05M735.65,580.74v-87.42M735.65,493.32h-249.77M485.88,493.32v87.42M462.93,1159.94l-1.35-13.16M461.58,1146.78l-3.71-12.49M457.87,1134.29l-6.41-11.48M451.45,1122.82l-8.1-10.13M443.35,1112.69l-10.13-8.44M433.23,1104.25l-11.47-6.07M421.75,1098.18l-12.49-3.71M409.26,1094.46l-13.16-1.35M396.1,1090.75h-15.87M380.23,1162.31h15.87M396.1,1159.94h66.83M396.1,1156.57v3.37M396.1,1163.32v-1.01M396.1,1159.94h0M396.1,1156.57v-63.46M396.1,1090.75v-1.01M599.63,1099.53l-63.79,119.49M599.63,1219.01v-119.49M599.63,1099.53h-63.79M535.83,1099.53v119.49M535.83,1219.01h63.79M380.23,627.66h8.1M396.1,627.66h12.15M416.01,627.66h71.89M503.77,627.66h10.8M514.57,627.66v-16.2M711.69,627.66h103.96M711.69,611.46v16.2M420.06,823.43l-23.96,119.48M420.06,942.91v-119.48M420.06,823.43h-23.96M396.1,823.43v119.48M397.11,942.91h22.95M503.77,823.43v-195.77M487.91,627.66v179.57M487.91,823.43h15.86M487.91,807.23h-91.81M439.98,823.43h47.93M396.1,951.01h43.88M439.98,951.01v-8.1M439.98,942.91v-119.48M620.22,1091.43h-95.52M524.7,1091.43v8.1M524.7,1099.53v119.49"/>
  <path class="st3" d="M572.29,1091.42h-47.59M620.22,1043.5v22.28M620.22,1091.42h-95.52M833.2,1234.87v-607.21M833.2,1130.24v8.1M396.1,1171.08h1.35M399.81,1171.08h2.36M404.53,1171.08h2.37M409.26,1171.08h2.36M414.32,1171.08h2.36M419.05,1171.08h2.36M423.77,1171.08h2.36M428.5,1171.08h2.36M433.23,1171.08h2.36M437.95,1171.08h2.7M443.01,1171.08h1.01M444.03,1171.08v1.35M444.03,1174.79v2.36M444.03,1179.52v2.36M444.03,1184.25v2.36M444.03,1188.97v2.7M444.03,1194.03v2.36M444.03,1198.76v2.36M444.03,1203.48v2.36M444.03,1208.21v2.36M444.03,1212.94v2.36M444.03,1217.66v1.35M444.03,1219.01h-1.01M440.65,1219.01h-2.7M435.59,1219.01h-2.36M430.86,1219.01h-2.36M426.14,1219.01h-2.36M421.41,1219.01h-2.36M416.69,1219.01h-2.36M411.62,1219.01h-2.36M406.9,1219.01h-2.37M402.17,1219.01h-2.36M397.45,1219.01h-1.35M514.57,595.26v32.41M503.77,627.66v195.77M503.77,823.43h-18.57M420.06,823.43v119.49M420.06,942.91h-23.96M396.1,951.01v139.73M396.1,1093.11v63.46M396.1,1159.94h0M396.1,1162.31v1.01M396.1,1219.01h128.6M524.7,1219.01v-127.59M524.7,1091.42h95.52M620.22,1065.77v-49.95M799.78,1015.82h1.01M813.96,1015.82h1.69M815.64,1015.82v-388.16M711.69,627.66v-32.41M711.69,595.26h-1.01M630.34,595.26h-1.01M515.58,595.26h-1.01M396.1,1163.32v-1.01M396.1,1159.94h0M396.1,1156.57v-63.46M396.1,1090.75v-1.01M808.89,1015.82h-8.1"/>
  <path class="st3" d="M721.14,1015.82h-100.92M620.22,1015.82v5.06M799.78,1015.82h1.01M620.22,1020.88v70.54M813.96,1015.82h-5.06"/>
  <path class="st3" d="M797.42,941.9l-12.83,1.01M784.59,942.91l-12.49,3.37M772.1,946.29l-11.48,5.4M760.63,951.69l-10.8,7.43M749.83,959.11l-8.78,9.11M741.05,968.23l-7.42,10.47M733.63,978.69l-5.4,11.81M728.22,990.5l-3.38,12.49M724.85,1002.99l-1.35,12.83M799.78,1022.23v-6.41M721.14,1015.82v6.41M797.42,1015.82v-73.92M794.04,1015.82h3.38M797.76,1015.82h-74.26M807.54,1210.91v-188.68M626.63,1210.91h115.77M742.4,1210.91h65.14M626.63,1210.91v-188.68M626.63,1022.23h94.51M807.54,1022.23h-7.76"/>
  <path class="st3" d="M627.64,1022.23h4.05M833.2,580.74h-121.51M711.69,580.74v30.72M514.57,580.74h-134.34M514.57,611.46v-30.72M514.57,580.74v8.78M514.57,589.52h1.01M629.33,589.52h1.01M710.67,589.52h1.01M711.69,589.52v-8.78M711.69,589.52h-1.01M630.34,589.52h-1.01M515.58,589.52h-1.01M514.57,595.26v-5.74M711.69,589.52v5.74"/>
  <path class="st3" d="M833.2,1234.87h-452.96M833.2,580.74v654.13M380.23,807.23h107.67M487.91,807.23v-179.56M487.91,627.66h-107.67M380.23,627.66v-46.92"/>
  <g class="st16">
    <path class="st2" d="M330.62,328.61v6.07M251.3,352.24l7.09,16.2M275.94,364.05l-17.55,4.38M247.25,391.73l28.69-27.68M247.25,391.73l4.05-39.49M247.25,391.73l11.14-23.29M569.92,328.61v6.07M410.27,328.61v6.07M489.93,328.61v6.07M569.92,328.61h-239.31M1029.64,1454.94V271.23"/>
    <path d="M978.73,350c-.29-.43-.67-.75-1.17-.96-.5-.21-1.12-.32-1.85-.32-.58,0-1.1.11-1.57.32-.47.21-.82.5-1.07.89-.25.38-.37.78-.37,1.21s.11.81.34,1.14c.23.33.58.61,1.05.82.32.15.92.32,1.8.51.87.19,1.42.39,1.62.57.21.19.32.43.32.72,0,.33-.15.62-.45.85-.3.24-.77.36-1.42.36s-1.1-.13-1.42-.39c-.32-.26-.51-.64-.57-1.16l-1.03.07c.02.47.15.9.4,1.27.25.37.6.65,1.06.85.46.19.99.29,1.6.29.55,0,1.04-.09,1.49-.27.45-.18.79-.45,1.02-.81.23-.35.35-.73.35-1.14,0-.37-.09-.71-.28-1-.19-.3-.48-.55-.87-.75-.3-.16-.82-.33-1.57-.5-.75-.18-1.23-.31-1.45-.4-.34-.13-.58-.28-.73-.47-.15-.19-.22-.41-.22-.66s.08-.48.23-.69c.16-.21.39-.37.7-.49.31-.12.68-.18,1.09-.18.46,0,.88.08,1.25.24.37.16.64.37.82.62.17.26.29.59.33.99l1.02-.09c-.01-.54-.16-1.02-.44-1.45M970.01,348.86v2.79l-1.33,1.29-2.9-4.08h-1.42l3.57,4.79-3.42,3.26h1.46l4.04-3.99v3.99h1.08v-8.06h-1.08Z"/>
    <path d="M955.12,354.52h5.37v-.92h-5.37v.92ZM955.12,352.08h5.37v-.92h-5.37v.92Z"/>
    <path d="M950.38,350c-.28-.43-.67-.75-1.17-.96-.5-.21-1.11-.32-1.85-.32-.58,0-1.1.1-1.57.31-.46.21-.82.51-1.07.89-.25.38-.37.78-.37,1.21s.11.81.34,1.14c.23.33.57.61,1.05.82.33.15.92.32,1.8.51.88.2,1.42.39,1.63.57.21.19.31.43.31.72,0,.34-.15.62-.44.86-.3.23-.77.35-1.43.35s-1.1-.13-1.42-.39c-.32-.26-.51-.64-.56-1.16l-1.03.08c.02.47.15.9.4,1.27.25.37.61.66,1.07.85.46.19.99.29,1.6.29.55,0,1.05-.09,1.49-.27.45-.18.79-.45,1.02-.8.23-.36.35-.73.35-1.14,0-.37-.1-.7-.29-1-.19-.3-.48-.55-.87-.75-.3-.15-.83-.32-1.57-.5-.74-.18-1.23-.31-1.45-.39-.34-.13-.59-.29-.73-.48-.15-.19-.22-.41-.22-.66s.08-.48.23-.69c.16-.21.39-.38.7-.5.32-.12.68-.18,1.09-.18.46,0,.88.08,1.25.24.37.16.64.37.82.63.18.26.29.59.33.99l1.02-.09c-.01-.54-.16-1.02-.44-1.45"/>
    <path d="M942.15,348.86v2.31l-.7.67-1.95-2.99h-1.23l2.48,3.67-2.25,2.17h1.3l2.36-2.38v4.6h1v-8.06h-1ZM933.03,348.86h-1.04c.13.22.21.46.25.7.05.24.07.83.07,1.74v1.32c0,.44.02.75.05.91.06.27.16.49.31.67.15.18.38.33.69.44.31.12.72.18,1.23.18s.95-.07,1.34-.21c.38-.14.68-.33.88-.59.21-.25.35-.59.44-1l-.98-.13c-.11.42-.27.7-.5.87-.22.16-.57.24-1.04.24-.5,0-.88-.11-1.14-.33-.19-.17-.28-.45-.28-.85,0-.04,0-.12,0-.26.38-.13.98-.24,1.78-.34.39-.05.69-.09.89-.15.27-.07.51-.18.72-.33.21-.14.38-.33.52-.57.13-.24.2-.5.2-.78,0-.49-.17-.89-.52-1.2s-.85-.47-1.49-.47c-.39,0-.76.07-1.1.19-.34.13-.7.35-1.07.66-.03-.27-.09-.51-.2-.72M933.31,351.43c0-.44.05-.77.16-.99.14-.29.36-.52.66-.68.3-.17.64-.25,1.03-.25s.68.09.89.26c.2.18.31.39.31.66,0,.18-.05.33-.14.47-.09.14-.23.25-.4.33-.17.07-.46.14-.87.2-.73.1-1.27.22-1.63.37v-.36Z"/>
    <path d="M930,348.86v2.31l-.7.67-1.95-2.99h-1.23l2.48,3.67-2.25,2.16h1.29l2.36-2.38v4.6h1v-8.06h-1ZM923.52,349.71c.15,0,.26.03.34.07.08.05.13.11.17.19.03.08.05.26.05.54v3.41h-1v.77h1v2.04l.99-.59v-1.45h.73v-.77h-.73v-3.36c0-.6-.04-.98-.12-1.17-.08-.19-.22-.34-.42-.45-.2-.11-.48-.17-.84-.17-.22,0-.47.03-.75.09l.14.88c.18-.03.33-.04.44-.04"/>
    <path d="M977.67,335.7v3.66h-3.82v.95h3.82v2.49h-4.41v.95h5.49v-8.06h-1.07ZM971.98,336.84c-.28-.43-.67-.75-1.17-.96-.5-.21-1.11-.32-1.85-.32-.58,0-1.11.1-1.57.31-.46.21-.82.51-1.07.89-.25.38-.37.78-.37,1.21s.11.81.34,1.14c.23.33.57.61,1.05.83.33.14.92.32,1.8.51.88.2,1.42.39,1.63.57.21.19.31.43.31.72,0,.33-.15.62-.44.85-.3.23-.77.35-1.43.35s-1.1-.13-1.42-.39c-.32-.26-.51-.64-.56-1.16l-1.03.08c.02.47.15.9.4,1.27.25.37.61.66,1.07.85s.99.29,1.6.29c.55,0,1.05-.09,1.49-.27.45-.19.79-.45,1.02-.81.23-.35.35-.73.35-1.14,0-.37-.1-.7-.29-1-.19-.3-.48-.55-.87-.75-.3-.16-.83-.33-1.57-.5-.74-.18-1.23-.31-1.45-.4-.34-.13-.59-.28-.73-.48-.15-.19-.22-.41-.22-.66s.07-.48.23-.69c.16-.21.39-.38.7-.5.32-.12.68-.18,1.09-.18.46,0,.88.08,1.25.24.37.16.64.37.82.63.18.26.29.59.33.99l1.02-.09c-.01-.54-.16-1.02-.44-1.45"/>
    <path d="M956.13,341.36h5.37v-.92h-5.37v.92ZM956.13,338.91h5.37v-.92h-5.37v.92Z"/>
    <polygon points="950.34 335.7 950.34 339.36 946.52 339.36 946.52 340.31 950.34 340.31 950.34 342.81 945.93 342.81 945.93 343.76 951.42 343.76 951.42 335.7 950.34 335.7"/>
    <path d="M944.11,336.35c-.51-.52-1.17-.79-2-.79-.51,0-.99.12-1.43.36-.44.24-.76.57-.99,1-.23.43-.34,1.02-.34,1.77,0,.93.26,1.65.77,2.18.51.53,1.18.79,1.99.79.73,0,1.35-.22,1.85-.65.61-.52.91-1.32.91-2.4,0-.98-.26-1.74-.77-2.26M943.36,340.29c-.33.37-.74.55-1.24.55s-.9-.19-1.24-.56c-.33-.37-.5-.92-.5-1.64,0-.77.16-1.34.49-1.71.33-.38.74-.56,1.24-.56s.91.19,1.24.56c.33.37.49.93.49,1.68s-.17,1.31-.49,1.68M937.45,335.7v3.05c0,.42-.05.81-.16,1.16-.08.23-.2.41-.37.54-.17.13-.37.2-.59.2-.24,0-.49-.07-.73-.21l-.34.92c.35.21.69.32,1.03.32.23,0,.44-.07.64-.2.19-.13.4-.4.63-.82v.89h.9v-5.84h-1Z"/>
    <path d="M931.3,336.67c.26-.19.57-.28.94-.28.49,0,.9.17,1.23.51.33.34.51.83.55,1.48h-4.4c0,.11,0,.2,0,.26,0,.97.25,1.71.75,2.24.5.53,1.14.8,1.93.8s1.48-.27,1.99-.81c.51-.54.77-1.31.77-2.29s-.25-1.69-.76-2.21c-.51-.53-1.19-.79-2.05-.79-.68,0-1.25.17-1.69.5-.44.33-.74.79-.9,1.39l1.03.13c.15-.42.36-.72.62-.91M933.44,340.4c-.31.31-.7.46-1.16.46-.51,0-.92-.19-1.24-.57-.21-.25-.33-.62-.38-1.11h3.29c-.03.51-.21.91-.52,1.22M927.94,336.04c-.4-.32-.98-.47-1.75-.47-.46,0-.88.08-1.24.24-.37.16-.65.38-.84.68-.19.29-.29.6-.29.93s.08.62.24.85c.16.23.38.4.66.52.28.12.77.27,1.48.46.49.13.78.22.88.25.18.07.3.16.38.27.08.1.12.22.12.35,0,.2-.1.38-.3.53-.2.15-.52.22-.98.22-.39,0-.69-.08-.9-.25-.21-.17-.34-.4-.38-.71l-.98.13c.06.38.18.68.34.9.17.22.43.41.78.54.35.13.75.2,1.22.2.31,0,.59-.04.86-.12.27-.08.48-.18.63-.29.21-.15.37-.33.49-.55.12-.22.18-.46.18-.72,0-.28-.07-.55-.22-.78-.14-.23-.36-.42-.64-.55-.28-.13-.79-.29-1.52-.48-.54-.14-.88-.25-1.02-.33-.2-.13-.29-.31-.29-.53,0-.25.11-.47.33-.65.22-.19.56-.28,1.02-.28s.81.1,1.06.31c.25.21.41.51.47.9l.99-.16c-.11-.62-.37-1.09-.77-1.4M921.56,343.76h1v-8.06h-1v8.06ZM915.87,335.7h-1.04c.13.22.21.46.25.7.04.24.06.83.06,1.74v1.32c0,.44.02.74.05.91.06.27.16.5.31.67.15.18.38.33.69.44.31.12.72.18,1.23.18s.95-.07,1.34-.21c.38-.14.68-.33.88-.59.2-.25.35-.59.44-1l-.98-.13c-.11.42-.27.7-.5.87-.22.17-.57.24-1.04.24-.5,0-.88-.11-1.14-.34-.19-.16-.28-.45-.28-.85,0-.04,0-.12,0-.26.38-.13.98-.24,1.78-.34.4-.05.69-.1.89-.15.26-.07.5-.18.72-.32.21-.15.38-.33.52-.57.13-.24.2-.5.2-.78,0-.49-.17-.89-.52-1.2-.35-.31-.84-.47-1.49-.47-.39,0-.76.06-1.1.19-.34.13-.7.35-1.07.66-.03-.27-.1-.51-.2-.72M916.15,338.27c0-.44.06-.77.16-.99.14-.29.36-.52.66-.69.3-.16.65-.25,1.03-.25s.68.09.89.26.3.39.3.66c0,.17-.05.33-.14.47-.09.14-.23.25-.4.32-.17.07-.46.14-.87.2-.72.1-1.27.22-1.63.37v-.36ZM918.25,342.32c-.2-.2-.43-.29-.71-.29s-.5.1-.7.29c-.2.2-.29.44-.29.72s.1.52.29.71c.2.2.43.29.71.29s.5-.1.7-.29c.2-.2.3-.42.3-.69,0-.29-.1-.54-.29-.74M917.94,343.46c-.12.11-.25.17-.41.17s-.3-.06-.42-.18c-.11-.12-.17-.26-.17-.43s.06-.3.17-.42c.12-.12.26-.17.42-.17s.29.06.41.17c.12.12.18.26.18.44,0,.16-.06.3-.18.42M910.09,336.67c.26-.19.57-.28.94-.28.49,0,.9.17,1.23.51.33.34.51.83.55,1.48h-4.39c0,.11,0,.2,0,.26,0,.97.25,1.71.75,2.24.5.53,1.15.8,1.93.8s1.48-.27,1.99-.81c.51-.54.77-1.31.77-2.29s-.25-1.69-.76-2.21c-.51-.53-1.19-.79-2.05-.79-.69,0-1.25.17-1.69.5-.44.33-.74.79-.9,1.39l1.03.13c.15-.42.36-.72.62-.91M912.23,340.4c-.31.31-.7.46-1.16.46-.51,0-.92-.19-1.24-.57-.21-.25-.33-.62-.38-1.11h3.29c-.04.51-.21.91-.52,1.22"/>
    <path d="M905.3,336.54c.15,0,.26.03.34.07.08.05.14.11.17.19.04.08.05.26.05.54v3.41h-1.01v.77h1.01v2.04l.99-.59v-1.45h.73v-.77h-.73v-3.36c0-.6-.04-.99-.12-1.17-.08-.18-.22-.33-.42-.45-.2-.11-.48-.17-.85-.17-.22,0-.47.03-.75.09l.14.87c.18-.03.33-.04.44-.04M900.61,336.04c-.4-.32-.98-.47-1.75-.47-.46,0-.88.08-1.24.24-.36.16-.64.38-.84.67-.2.29-.29.6-.29.93s.08.62.24.85c.16.23.38.4.66.52s.77.27,1.48.46c.49.14.78.22.88.26.18.07.3.15.39.26.08.1.12.21.12.35,0,.2-.1.38-.29.53s-.53.22-.98.22c-.39,0-.69-.08-.9-.25-.21-.17-.34-.4-.38-.7l-.98.13c.07.38.18.68.35.9s.42.4.77.54c.35.13.76.2,1.22.2.31,0,.6-.04.86-.12.27-.08.48-.18.63-.29.21-.15.37-.33.49-.55.12-.22.18-.46.18-.72,0-.29-.07-.55-.22-.78-.15-.24-.36-.42-.64-.56-.28-.13-.79-.29-1.52-.48-.54-.13-.88-.25-1.02-.34-.2-.13-.29-.31-.29-.53,0-.25.11-.47.33-.65.22-.19.56-.28,1.02-.28s.81.11,1.06.32c.25.21.41.51.46.9l.99-.15c-.11-.62-.36-1.09-.77-1.4"/>
    <path d="M893.89,335.7v2.31l-.7.67-1.95-2.99h-1.23l2.48,3.67-2.26,2.17h1.29l2.36-2.38v4.6h1v-8.06h-1ZM885.11,335.7h-1.04c.13.22.21.46.25.7.05.25.07.83.07,1.75v1.32c0,.44.02.74.05.91.06.27.16.5.31.67.15.18.38.33.69.44.31.12.72.18,1.23.18s.95-.07,1.34-.21c.38-.14.68-.34.88-.59.21-.25.35-.59.44-1l-.98-.13c-.11.41-.27.7-.5.87-.22.16-.57.24-1.04.24-.5,0-.88-.11-1.14-.33-.19-.17-.28-.45-.28-.85,0-.04,0-.12,0-.26.38-.13.98-.25,1.78-.35.39-.05.69-.09.89-.15.27-.07.51-.18.72-.33.21-.14.38-.33.52-.57.13-.23.2-.49.2-.78,0-.49-.17-.89-.52-1.2-.35-.31-.85-.47-1.49-.47-.39,0-.76.07-1.1.19-.34.13-.7.35-1.07.66-.03-.27-.09-.51-.2-.72M885.39,338.27c0-.44.05-.77.16-.99.14-.29.36-.52.66-.69.3-.17.64-.25,1.03-.25s.68.09.89.26c.2.18.31.39.31.66,0,.17-.05.33-.14.47-.09.14-.23.25-.4.32-.17.07-.46.14-.87.2-.73.1-1.27.23-1.63.37v-.36Z"/>
    <path d="M882.15,336.43c-.39-.57-.94-.86-1.64-.86s-1.3.27-1.8.82c-.5.55-.75,1.32-.75,2.32,0,.42.06.82.18,1.19.12.37.28.68.49.95.21.26.47.47.8.61.32.15.67.22,1.03.22.65,0,1.19-.26,1.61-.79v2.88h1v-8.06h-.93v.73ZM881.69,340.29c-.32.37-.7.56-1.13.56s-.8-.18-1.11-.54c-.31-.36-.46-.93-.46-1.69s.16-1.3.48-1.68c.32-.38.7-.56,1.13-.56.53,0,.96.25,1.28.76.19.31.29.82.29,1.52s-.16,1.25-.48,1.63"/>
    <path d="M571.35,336.74c-.45-.56-1.06-.83-1.85-.83-.6,0-1.09.16-1.48.48-.39.32-.68.76-.88,1.34-.19.58-.29,1.34-.29,2.29,0,.8.06,1.43.18,1.9.12.47.29.87.5,1.2.21.33.49.58.81.76.33.17.71.26,1.15.26.59,0,1.08-.15,1.47-.47.39-.31.68-.76.88-1.34.2-.58.3-1.35.3-2.3,0-1.51-.27-2.61-.8-3.28M570.61,342.73c-.27.38-.64.58-1.1.58s-.86-.22-1.17-.65-.47-1.32-.47-2.64.16-2.2.47-2.64.7-.66,1.16-.66.84.22,1.16.65c.31.44.47,1.32.47,2.64s-.17,2.23-.52,2.72M417.65,336.99c-.11.18-.25.36-.42.53-.17.18-.55.52-1.15,1.02-.72.6-1.23,1.07-1.54,1.42-.31.35-.53.67-.66.98-.13.31-.2.63-.2.95,0,.63.23,1.17.68,1.6.46.43,1.07.64,1.86.64s1.39-.2,1.85-.59c.46-.4.73-.98.8-1.74l-1.03-.11c0,.51-.15.9-.44,1.19-.29.29-.68.43-1.16.43-.46,0-.83-.13-1.11-.4-.28-.27-.43-.6-.43-.99s.16-.77.47-1.19c.31-.42.91-.99,1.79-1.71.57-.46,1.01-.87,1.31-1.22.3-.35.52-.71.66-1.07.08-.22.12-.45.11-.69h-5.38v.95h3.99Z"/>
    <path d="M411.57,336.04v3.03c0,.53-.05.94-.16,1.22-.11.28-.28.5-.52.64-.24.15-.5.22-.78.22-.37,0-.64-.11-.8-.33-.16-.22-.24-.55-.24-.99v-3.79h-1v3.39c0,.6-.14,1.04-.41,1.31-.28.27-.62.41-1.04.41-.23,0-.43-.06-.6-.16-.17-.11-.29-.25-.35-.42-.07-.17-.1-.46-.1-.86v-3.68h-1v4.01c0,.66.16,1.16.47,1.48.31.32.76.48,1.35.48.75,0,1.35-.34,1.82-1.02.11.32.31.57.59.75.28.18.64.27,1.07.27.39,0,.74-.08,1.05-.26.31-.17.55-.4.74-.69v.82h.9v-5.84h-1Z"/>
    <path d="M492.45,344.13h.64c.17-.35.47-.71.89-1.08.42-.37.9-.68,1.46-.94v-.95c-.31.11-.66.28-1.05.51s-.7.46-.95.68v-6.31h-1v8.09ZM488.52,336.04v3.03c0,.53-.05.94-.16,1.22-.11.28-.28.5-.52.64-.24.15-.5.22-.78.22-.37,0-.63-.11-.8-.33-.16-.22-.24-.55-.24-.99v-3.79h-1v3.39c0,.6-.14,1.04-.41,1.31-.27.27-.62.41-1.03.41-.23,0-.43-.06-.6-.16-.17-.11-.29-.25-.35-.42-.07-.17-.1-.46-.1-.86v-3.68h-.99v4.01c0,.66.16,1.16.47,1.48.31.32.76.48,1.35.48.75,0,1.35-.34,1.82-1.02.11.32.31.57.59.75.28.18.64.27,1.07.27.39,0,.74-.08,1.05-.26.31-.17.55-.4.74-.69v.82h.89v-5.84h-1Z"/>
    <path d="M667.28,336.04v6.86l-2.35-6.86h-.97l-2.36,6.74v-6.74h-1.04v8.06h1.45l1.94-5.61c.2-.57.34-1,.44-1.29.08.26.21.66.39,1.19l1.92,5.71h1.62v-8.06h-1.04ZM655.25,336.04h-1.04c.12.22.21.46.25.7.04.24.06.83.06,1.74v1.32c0,.44.02.75.05.91.06.27.17.49.31.67.15.18.38.33.69.44s.72.18,1.22.18.96-.07,1.34-.21c.39-.14.68-.33.88-.59.21-.25.35-.59.44-1l-.98-.13c-.11.41-.27.7-.49.87-.22.16-.57.24-1.04.24-.5,0-.88-.11-1.14-.34-.19-.16-.28-.45-.28-.85,0-.04,0-.12,0-.26.38-.13.98-.25,1.78-.34.39-.05.69-.1.89-.15.27-.07.5-.18.72-.33.21-.14.38-.33.51-.57.13-.23.2-.5.2-.78,0-.49-.17-.89-.52-1.2-.35-.32-.85-.47-1.49-.47-.39,0-.76.07-1.1.19-.34.13-.7.35-1.07.66-.03-.27-.1-.51-.2-.72M655.53,338.6c0-.44.06-.76.16-.99.14-.29.36-.52.66-.68.3-.17.64-.25,1.03-.25s.68.09.89.26c.2.18.3.4.3.66,0,.17-.04.33-.14.47-.09.14-.22.25-.39.32-.17.07-.46.14-.87.2-.73.1-1.27.22-1.63.37v-.36ZM657.62,342.66c-.2-.2-.43-.29-.71-.29s-.5.09-.7.29c-.2.19-.29.43-.29.71s.1.52.29.71c.2.2.43.3.7.3s.5-.1.7-.29.3-.43.3-.69c0-.29-.1-.54-.3-.73M657.32,343.8c-.12.11-.25.17-.41.17s-.3-.06-.42-.18c-.11-.12-.17-.26-.17-.42s.06-.31.18-.42c.12-.11.25-.18.41-.18s.3.06.41.18c.12.12.18.26.18.44,0,.16-.06.3-.18.41"/>
    <rect x="651.91" y="336.04" width="1" height="8.06"/>
    <path d="M643.66,344.13h.64c.17-.35.47-.71.89-1.07.42-.37.9-.68,1.46-.95v-.95c-.31.11-.66.28-1.05.51-.39.23-.71.46-.95.69v-6.31h-1v8.09ZM639.32,341.87h1.14v-1.13h-1.14v1.13ZM639.32,337.16h1.14v-1.13h-1.14v1.13Z"/>
    <path d="M637.17,336.52c-.47-.41-1.07-.62-1.81-.62-.9,0-1.61.33-2.14.98-.43.53-.64,1.16-.64,1.89s.25,1.39.73,1.88c.49.49,1.09.73,1.8.73.54,0,1.05-.17,1.54-.51l-.44,2.16h-3.25v.95h4.05l.79-4.14-.94-.12c-.15.23-.35.42-.61.57-.26.14-.55.21-.87.21-.52,0-.94-.16-1.26-.49-.32-.33-.48-.77-.48-1.33s.17-1.07.5-1.43c.33-.36.74-.54,1.22-.54.4,0,.74.13,1.03.38.28.25.46.63.54,1.14l1.05-.09c-.07-.68-.34-1.22-.8-1.63M630.75,336.74c-.45-.56-1.06-.84-1.85-.84-.6,0-1.09.16-1.48.48-.39.32-.68.76-.88,1.35-.2.58-.3,1.34-.3,2.29,0,.8.06,1.43.18,1.9.12.47.29.87.5,1.2.21.33.49.58.82.76.33.17.71.26,1.15.26.59,0,1.08-.16,1.47-.47.39-.31.68-.76.88-1.34.2-.58.3-1.35.3-2.3,0-1.51-.27-2.61-.8-3.27M630.02,342.73c-.27.38-.64.58-1.1.58s-.86-.22-1.17-.65c-.31-.43-.47-1.32-.47-2.64s.15-2.2.47-2.64c.31-.44.7-.66,1.16-.66s.85.22,1.16.66c.31.44.47,1.32.47,2.64s-.17,2.23-.51,2.72"/>
    <polygon class="st13" points="280.33 336.04 269.19 358.65 254.67 351.9 265.81 328.95 280.33 336.04"/>
    <polygon points="274.58 338.79 269.09 350.14 266.97 335.1 265 334.15 258.01 348.59 259.85 349.48 265.34 338.14 267.46 353.17 269.43 354.12 276.42 339.68 274.58 338.79"/>
    <path d="M338.45,336.53c-.47-.42-1.07-.64-1.78-.64-.79,0-1.45.25-1.97.74-.52.49-.77,1.09-.77,1.79,0,.52.13.95.4,1.3.27.35.64.58,1.12.69-.37.17-.65.39-.84.68-.19.29-.28.61-.28.95,0,.37.1.71.3,1.04.2.33.49.59.86.77.37.19.78.28,1.22.28.64,0,1.18-.18,1.62-.55.43-.36.71-.88.83-1.54l-1-.18c-.07.48-.24.85-.5,1.09-.26.24-.58.36-.97.36s-.71-.12-.96-.36-.37-.54-.37-.9c0-.46.17-.8.51-1.02.34-.22.72-.33,1.15-.33.04,0,.09,0,.16,0l.11-.87c-.28.07-.52.11-.7.11-.47,0-.85-.15-1.15-.44-.3-.3-.45-.67-.45-1.13s.16-.88.48-1.2c.33-.32.72-.49,1.19-.49.4,0,.73.13,1.01.37.27.25.47.65.58,1.21l1-.13c-.07-.67-.34-1.22-.8-1.64M331.91,336.04v3.03c0,.53-.05.94-.16,1.22-.1.28-.28.5-.52.64s-.5.22-.78.22c-.37,0-.63-.11-.8-.33-.16-.22-.24-.55-.24-.99v-3.79h-1v3.39c0,.6-.14,1.04-.41,1.31-.27.27-.62.41-1.03.41-.23,0-.43-.06-.6-.16-.17-.11-.29-.25-.35-.42-.07-.17-.1-.46-.1-.86v-3.68h-.99v4.01c0,.66.16,1.16.47,1.48.31.32.76.48,1.35.48.75,0,1.35-.34,1.82-1.02.11.32.31.57.59.75.28.18.64.27,1.07.27.39,0,.74-.08,1.05-.26.31-.17.55-.4.74-.69v.82h.89v-5.84h-1Z"/>
    <rect class="st13" x="905.77" y="1399.59" width="102.27" height="18.9"/>
    <path d="M1001.76,1415.04h.95c.26-.52.7-1.06,1.32-1.61s1.34-1.02,2.17-1.41v-1.43c-.46.17-.98.42-1.56.76-.58.34-1.05.68-1.4,1.02v-9.41h-1.48v12.08ZM995.36,1404.65h1.69v-1.68h-1.69v1.68ZM992.39,1404.67c-.42-.64-1-1.11-1.74-1.43-.74-.31-1.65-.48-2.74-.48-.86,0-1.64.16-2.33.47-.69.31-1.21.75-1.58,1.32-.36.56-.55,1.17-.55,1.81s.17,1.22.5,1.71c.33.5.85.91,1.56,1.23.48.22,1.37.47,2.67.77,1.3.29,2.1.58,2.41.86.31.28.47.63.47,1.07,0,.5-.22.92-.66,1.28-.44.35-1.15.53-2.11.53s-1.63-.19-2.1-.58c-.47-.39-.75-.96-.84-1.72l-1.53.12c.03.7.23,1.34.59,1.89.37.56.89.98,1.58,1.27.68.28,1.47.43,2.37.43.81,0,1.55-.14,2.21-.41.66-.28,1.17-.68,1.51-1.2.35-.53.52-1.09.52-1.7,0-.55-.14-1.05-.42-1.5-.28-.45-.71-.82-1.29-1.12-.44-.23-1.22-.49-2.33-.75s-1.82-.46-2.15-.59c-.5-.19-.87-.43-1.09-.71-.22-.28-.33-.61-.33-.99s.11-.71.34-1.03.58-.56,1.04-.74c.47-.18,1-.27,1.61-.27.68,0,1.3.12,1.85.36.55.24.96.55,1.22.94s.42.88.5,1.48l1.51-.13c-.02-.81-.24-1.53-.66-2.16M975.38,1402.96h-1.55c.18.34.31.68.38,1.04.06.36.09,1.23.09,2.6v1.97c0,.66.03,1.11.07,1.36.09.41.24.74.46,1.01.22.27.56.49,1.03.66.47.17,1.07.26,1.82.26s1.41-.1,1.99-.31c.57-.21,1.01-.5,1.31-.88.3-.38.52-.88.65-1.5l-1.45-.2c-.16.62-.4,1.05-.74,1.29s-.85.36-1.54.36c-.75,0-1.31-.17-1.69-.5-.28-.24-.42-.67-.42-1.27,0-.05,0-.18,0-.38.57-.2,1.45-.37,2.64-.51.59-.07,1.02-.15,1.32-.22.4-.11.75-.27,1.07-.49.31-.21.57-.5.76-.85.2-.35.29-.74.29-1.17,0-.73-.26-1.33-.77-1.79s-1.25-.7-2.21-.7c-.58,0-1.13.09-1.63.28-.51.19-1.04.52-1.58.99-.04-.41-.14-.77-.29-1.08M975.8,1406.8c0-.65.08-1.15.24-1.48.21-.43.53-.77.98-1.02.44-.25.95-.37,1.52-.37s1.02.13,1.31.39c.3.26.45.59.45.98,0,.26-.07.49-.2.7-.14.21-.33.37-.59.48-.25.11-.68.21-1.29.3-1.07.15-1.88.34-2.42.56v-.54ZM970.47,1414.99h1.48v-12.03h-1.48v12.03ZM966,1411.68h1.69v-1.68h-1.69v1.68ZM966,1404.65h1.69v-1.68h-1.69v1.68ZM952.38,1414.25c.61.53,1.38.79,2.33.79,1.27,0,2.29-.46,3.04-1.38.86-1.05,1.29-2.74,1.29-5.07,0-2.08-.39-3.57-1.17-4.47-.78-.91-1.78-1.36-3.02-1.36-.72,0-1.37.17-1.94.52-.57.35-1.02.84-1.35,1.49-.33.65-.49,1.35-.49,2.11,0,1.15.35,2.08,1.04,2.81.69.73,1.53,1.09,2.52,1.09.57,0,1.11-.13,1.62-.4.51-.26.95-.66,1.31-1.21,0,1.2-.15,2.13-.42,2.78-.27.65-.64,1.15-1.1,1.48-.35.26-.77.4-1.24.4-.59,0-1.08-.21-1.48-.63-.24-.26-.43-.68-.56-1.26l-1.47.11c.12.94.48,1.67,1.09,2.2M956.64,1408.74c-.46.48-1.03.72-1.7.72s-1.24-.24-1.68-.72c-.44-.48-.66-1.13-.66-1.96s.22-1.55.67-2.05c.45-.5.99-.76,1.61-.76.43,0,.84.12,1.22.36.39.24.69.6.91,1.06.22.46.33.95.33,1.46,0,.77-.23,1.41-.7,1.88M947,1404.65h1.69v-1.68h-1.69v1.68ZM939.62,1402.96c-.77,0-1.41.07-1.95.2-.53.13-.97.33-1.32.59-.35.26-.65.64-.89,1.12-.24.48-.36,1.01-.36,1.57,0,.7.2,1.31.59,1.82.39.52.95.88,1.68,1.09-.56.28-.99.64-1.27,1.1-.28.45-.42.94-.42,1.45,0,.56.16,1.08.48,1.59.32.5.75.88,1.31,1.13s1.3.36,2.22.36h4.52v-12.03h-4.6ZM942.62,1413.57h-2.41c-.87,0-1.48-.05-1.83-.17-.36-.11-.63-.32-.83-.62-.19-.3-.29-.66-.29-1.05,0-.42.1-.77.31-1.05.21-.28.51-.48.92-.6.31-.09.81-.14,1.52-.14h2.61v3.63ZM942.62,1408.52h-2.79c-.77,0-1.35-.07-1.76-.2-.41-.13-.73-.36-.96-.7-.23-.33-.35-.72-.35-1.17,0-.38.08-.72.24-1.01.16-.29.36-.52.61-.67.25-.15.55-.26.92-.33.21-.04.57-.06,1.09-.06h3.01v4.13ZM930.91,1404.65h1.69v-1.68h-1.69v1.68ZM923.08,1415.04h.96c.26-.52.7-1.06,1.32-1.61.62-.55,1.35-1.02,2.17-1.41v-1.43c-.46.17-.98.42-1.56.76-.58.34-1.04.68-1.4,1.02v-9.41h-1.48v12.08ZM916.69,1404.65h1.69v-1.68h-1.69v1.68ZM912.57,1404.38c-.16.27-.37.54-.62.8s-.82.77-1.71,1.51c-1.06.9-1.82,1.6-2.28,2.12-.46.52-.78,1-.98,1.47-.2.46-.3.94-.3,1.42,0,.95.34,1.74,1.01,2.38.68.64,1.59.96,2.75.96s2.06-.3,2.74-.89c.68-.59,1.07-1.45,1.18-2.59l-1.52-.16c0,.76-.22,1.35-.65,1.77-.43.43-1,.64-1.71.64-.67,0-1.22-.2-1.64-.6-.42-.4-.63-.9-.63-1.48s.23-1.15.69-1.77c.46-.62,1.35-1.48,2.66-2.55.85-.69,1.49-1.3,1.93-1.82.45-.52.77-1.06.98-1.6.12-.33.18-.67.17-1.02h-7.98v1.42h5.92Z"/>
    <rect class="st13" x="905.77" y="1375.29" width="102.27" height="18.9"/>
    <path d="M1005.47,1380.08c-.16.27-.37.53-.62.8-.25.26-.82.77-1.71,1.51-1.06.9-1.82,1.61-2.28,2.12-.46.52-.78,1.01-.98,1.47-.2.47-.29.94-.29,1.42,0,.95.34,1.74,1.01,2.38.68.64,1.59.96,2.75.96s2.06-.3,2.74-.89c.68-.6,1.07-1.46,1.18-2.59l-1.52-.16c0,.76-.22,1.35-.65,1.77-.43.43-1,.64-1.71.64-.67,0-1.22-.2-1.64-.6-.42-.4-.63-.9-.63-1.48s.23-1.15.69-1.77c.46-.62,1.35-1.48,2.66-2.55.84-.69,1.49-1.3,1.93-1.82.45-.53.77-1.06.98-1.6.12-.33.18-.67.17-1.03h-7.98v1.42h5.92ZM995.36,1380.34h1.69v-1.68h-1.69v1.68ZM992.39,1380.37c-.42-.64-1-1.11-1.74-1.43-.74-.32-1.65-.48-2.74-.48-.86,0-1.64.16-2.33.47-.69.31-1.21.76-1.58,1.32-.36.56-.55,1.17-.55,1.81s.17,1.22.5,1.71c.33.5.85.91,1.56,1.23.48.22,1.37.47,2.67.77,1.3.29,2.1.58,2.41.86.31.28.47.64.47,1.07,0,.5-.22.92-.66,1.28-.44.35-1.15.53-2.11.53s-1.63-.19-2.1-.58c-.47-.39-.75-.96-.84-1.72l-1.53.12c.03.7.23,1.34.59,1.89.37.56.89.98,1.58,1.27.68.28,1.47.43,2.37.43.81,0,1.55-.14,2.21-.41.66-.28,1.17-.68,1.51-1.2.35-.53.52-1.09.52-1.7,0-.55-.14-1.05-.42-1.5-.28-.45-.71-.82-1.29-1.12-.44-.23-1.22-.49-2.33-.75-1.11-.27-1.82-.46-2.15-.59-.5-.19-.87-.43-1.09-.71-.22-.28-.33-.61-.33-.99s.11-.71.34-1.03c.23-.32.58-.56,1.04-.74.47-.18,1-.27,1.61-.27.68,0,1.3.12,1.85.36.55.24.96.55,1.22.93s.42.88.5,1.48l1.51-.13c-.02-.81-.24-1.53-.66-2.16M975.38,1378.66h-1.55c.18.34.31.68.38,1.05.06.36.09,1.23.09,2.61v1.97c0,.66.03,1.11.07,1.36.09.41.24.74.46,1.01.22.27.56.49,1.03.66.47.17,1.07.26,1.82.26s1.41-.1,1.99-.31c.57-.21,1.01-.5,1.31-.88s.52-.88.65-1.5l-1.45-.2c-.16.62-.4,1.05-.74,1.29s-.85.36-1.54.36c-.75,0-1.31-.17-1.69-.5-.28-.24-.42-.67-.42-1.27,0-.05,0-.18,0-.38.57-.19,1.45-.37,2.64-.51.59-.07,1.02-.15,1.32-.22.4-.11.75-.27,1.07-.48.31-.22.57-.5.76-.85s.29-.74.29-1.17c0-.73-.26-1.33-.77-1.79-.51-.47-1.25-.7-2.21-.7-.58,0-1.13.1-1.63.29-.51.19-1.04.52-1.58.98-.04-.41-.14-.77-.29-1.08M975.8,1382.49c0-.65.08-1.15.24-1.48.21-.43.53-.77.98-1.02.44-.25.95-.37,1.52-.37s1.02.13,1.31.39c.3.26.45.59.45.98,0,.26-.07.49-.2.7-.14.21-.33.37-.59.48-.25.11-.68.21-1.29.3-1.07.15-1.88.34-2.42.56v-.54ZM970.47,1390.69h1.48v-12.03h-1.48v12.03ZM966,1387.37h1.69v-1.68h-1.69v1.68ZM966,1380.34h1.69v-1.68h-1.69v1.68ZM952.38,1389.94c.61.53,1.38.8,2.33.8,1.27,0,2.29-.46,3.04-1.38.86-1.06,1.29-2.74,1.29-5.07,0-2.08-.39-3.57-1.17-4.48-.78-.91-1.78-1.36-3.02-1.36-.72,0-1.37.17-1.94.52-.57.35-1.02.84-1.35,1.49-.33.65-.49,1.35-.49,2.11,0,1.15.35,2.08,1.04,2.81.69.72,1.53,1.09,2.52,1.09.57,0,1.11-.13,1.62-.39.51-.26.95-.66,1.31-1.21,0,1.2-.15,2.13-.42,2.78-.27.65-.64,1.15-1.1,1.49-.35.26-.77.39-1.24.39-.59,0-1.08-.21-1.48-.63-.24-.26-.43-.68-.56-1.26l-1.47.11c.12.94.48,1.67,1.09,2.2M956.64,1384.44c-.46.48-1.03.72-1.7.72s-1.24-.24-1.68-.72c-.44-.48-.66-1.13-.66-1.96s.22-1.55.67-2.05c.45-.51.99-.76,1.61-.76.43,0,.84.12,1.22.37.39.24.69.6.91,1.06.22.46.33.95.33,1.46,0,.78-.23,1.41-.7,1.88M947,1380.34h1.69v-1.68h-1.69v1.68ZM939.62,1378.66c-.77,0-1.41.07-1.95.2-.53.13-.97.33-1.32.59-.35.26-.65.63-.89,1.12-.24.48-.36,1.01-.36,1.57,0,.7.2,1.31.59,1.82.39.52.95.88,1.68,1.09-.56.28-.99.64-1.27,1.1-.28.45-.42.94-.42,1.45,0,.56.16,1.08.48,1.59.32.5.75.88,1.31,1.12s1.3.36,2.22.36h4.52v-12.03h-4.6ZM942.62,1389.27h-2.41c-.87,0-1.48-.05-1.83-.17-.36-.11-.63-.32-.83-.62-.19-.31-.29-.66-.29-1.06,0-.42.1-.77.31-1.05.21-.28.51-.48.92-.6.31-.09.81-.14,1.52-.14h2.61v3.63ZM942.62,1384.22h-2.79c-.77,0-1.35-.07-1.76-.2-.41-.13-.73-.36-.96-.7-.23-.33-.35-.72-.35-1.17,0-.38.08-.72.24-1.01.16-.29.36-.52.61-.67.25-.15.55-.26.92-.33.21-.04.57-.06,1.09-.06h3.01v4.13ZM930.91,1380.34h1.69v-1.68h-1.69v1.68ZM926.79,1380.08c-.17.27-.37.53-.62.8-.25.26-.82.77-1.71,1.51-1.06.9-1.83,1.61-2.28,2.12-.46.52-.79,1.01-.98,1.47-.2.47-.3.94-.3,1.42,0,.95.34,1.74,1.01,2.38s1.59.96,2.75.96,2.06-.3,2.74-.89c.68-.6,1.07-1.46,1.18-2.59l-1.52-.16c0,.76-.22,1.35-.65,1.77-.43.43-1,.64-1.71.64-.68,0-1.22-.2-1.64-.6-.42-.4-.63-.9-.63-1.48s.23-1.15.69-1.77c.46-.62,1.34-1.48,2.65-2.55.85-.69,1.49-1.3,1.94-1.82.45-.53.77-1.06.98-1.6.12-.33.18-.67.17-1.03h-7.98v1.42h5.92ZM916.69,1380.34h1.69v-1.68h-1.69v1.68ZM912.57,1380.08c-.16.27-.37.53-.62.8-.25.26-.82.77-1.71,1.51-1.06.9-1.82,1.61-2.28,2.12-.46.52-.78,1.01-.98,1.47-.2.47-.3.94-.3,1.42,0,.95.34,1.74,1.01,2.38.68.64,1.59.96,2.75.96s2.06-.3,2.74-.89c.68-.6,1.07-1.46,1.18-2.59l-1.52-.16c0,.76-.22,1.35-.65,1.77-.43.43-1,.64-1.71.64-.67,0-1.22-.2-1.64-.6-.42-.4-.63-.9-.63-1.48s.23-1.15.69-1.77c.46-.62,1.35-1.48,2.66-2.55.85-.69,1.49-1.3,1.93-1.82.45-.53.77-1.06.98-1.6.12-.33.18-.67.17-1.03h-7.98v1.42h5.92Z"/>
    <rect class="st13" x="905.77" y="1347.95" width="102.27" height="18.9"/>
    <path d="M1006.13,1352.05c-.7-.63-1.58-.94-2.64-.94-1.18,0-2.15.36-2.91,1.1-.77.73-1.15,1.62-1.15,2.67,0,.78.2,1.42.59,1.94.4.52.95.86,1.66,1.02-.55.25-.96.59-1.24,1.02-.28.42-.42.9-.42,1.42,0,.55.15,1.07.44,1.55.29.49.72.87,1.27,1.15.55.28,1.16.42,1.82.42.95,0,1.75-.27,2.39-.82.64-.54,1.05-1.31,1.24-2.3l-1.48-.26c-.11.72-.36,1.26-.74,1.62-.38.36-.87.54-1.44.54s-1.06-.18-1.43-.53c-.36-.36-.55-.81-.55-1.35,0-.68.25-1.19.76-1.52.5-.33,1.07-.49,1.7-.49.06,0,.14,0,.24.02l.16-1.29c-.42.11-.77.16-1.05.16-.68,0-1.25-.22-1.69-.66-.44-.44-.66-1-.66-1.68s.24-1.31.72-1.79c.48-.48,1.07-.72,1.77-.72.58,0,1.08.18,1.49.55.41.37.7.97.87,1.81l1.48-.19c-.1-1-.5-1.82-1.2-2.45M995.36,1353h1.69v-1.68h-1.69v1.68ZM992.39,1353.02c-.42-.64-1-1.11-1.74-1.43-.74-.32-1.65-.48-2.74-.48-.86,0-1.64.16-2.33.47-.69.31-1.21.76-1.58,1.32-.36.56-.55,1.17-.55,1.81s.17,1.22.5,1.71c.33.49.85.9,1.56,1.23.48.22,1.37.47,2.67.77,1.3.29,2.1.58,2.41.85.31.28.47.64.47,1.07,0,.5-.22.92-.66,1.28-.44.35-1.15.53-2.11.53s-1.63-.2-2.1-.58c-.47-.39-.75-.96-.84-1.72l-1.53.11c.03.7.23,1.34.59,1.89.37.56.89.98,1.58,1.27.68.28,1.47.43,2.37.43.81,0,1.55-.14,2.21-.41.66-.28,1.17-.68,1.51-1.2.35-.53.52-1.1.52-1.7,0-.55-.14-1.05-.42-1.5-.28-.45-.71-.82-1.29-1.12-.44-.24-1.22-.49-2.33-.75s-1.82-.46-2.15-.59c-.5-.19-.87-.43-1.09-.71-.22-.28-.33-.61-.33-.99s.11-.71.34-1.03c.23-.32.58-.56,1.04-.74.47-.18,1-.27,1.61-.27.68,0,1.3.12,1.85.36.55.24.96.55,1.22.94.26.38.42.88.5,1.48l1.51-.13c-.02-.8-.24-1.53-.66-2.16M975.38,1351.32h-1.55c.18.34.31.68.38,1.05.06.36.09,1.23.09,2.6v1.97c0,.66.03,1.11.07,1.36.09.41.24.74.46,1,.22.27.56.49,1.03.66.47.17,1.07.26,1.82.26s1.41-.1,1.99-.31c.57-.21,1.01-.5,1.31-.88.3-.38.52-.88.65-1.5l-1.45-.2c-.16.62-.4,1.05-.74,1.29s-.85.37-1.54.37c-.75,0-1.31-.17-1.69-.5-.28-.24-.42-.67-.42-1.27,0-.05,0-.18,0-.38.57-.19,1.45-.37,2.64-.51.59-.07,1.02-.14,1.32-.22.4-.11.75-.27,1.07-.49.31-.21.57-.49.76-.85s.29-.74.29-1.17c0-.73-.26-1.32-.77-1.79-.51-.47-1.25-.7-2.21-.7-.58,0-1.13.1-1.63.29-.51.19-1.04.52-1.58.98-.04-.41-.14-.77-.29-1.08M975.8,1355.15c0-.65.08-1.14.24-1.48.21-.43.53-.77.98-1.02.44-.25.95-.38,1.52-.38s1.02.13,1.31.39c.3.26.45.59.45.98,0,.26-.07.49-.2.7-.14.21-.33.37-.59.48-.25.11-.68.21-1.29.3-1.07.15-1.88.34-2.42.56v-.54ZM970.47,1363.35h1.48v-12.03h-1.48v12.03ZM966,1360.03h1.69v-1.68h-1.69v1.68ZM966,1353h1.69v-1.68h-1.69v1.68ZM952.38,1362.6c.61.53,1.38.8,2.33.8,1.27,0,2.29-.46,3.04-1.38.86-1.06,1.29-2.75,1.29-5.07,0-2.08-.39-3.57-1.17-4.48-.78-.91-1.78-1.36-3.02-1.36-.72,0-1.37.17-1.94.52-.57.35-1.02.84-1.35,1.49-.33.65-.49,1.35-.49,2.11,0,1.15.35,2.08,1.04,2.81.69.73,1.53,1.09,2.52,1.09.57,0,1.11-.13,1.62-.4.51-.26.95-.66,1.31-1.2,0,1.2-.15,2.13-.42,2.78-.27.65-.64,1.15-1.1,1.49-.35.26-.77.39-1.24.39-.59,0-1.08-.21-1.48-.63-.24-.26-.43-.68-.56-1.26l-1.47.12c.12.94.48,1.67,1.09,2.2M956.64,1357.1c-.46.48-1.03.72-1.7.72s-1.24-.24-1.68-.72c-.44-.48-.66-1.14-.66-1.96s.22-1.55.67-2.05c.45-.51.99-.76,1.61-.76.43,0,.84.12,1.22.37.39.24.69.6.91,1.06.22.47.33.95.33,1.46,0,.78-.23,1.41-.7,1.88M947,1353h1.69v-1.68h-1.69v1.68ZM939.62,1351.32c-.77,0-1.41.07-1.95.2-.53.13-.97.33-1.32.59-.35.26-.65.63-.89,1.12-.24.48-.36,1.01-.36,1.57,0,.7.2,1.31.59,1.82.39.52.95.88,1.68,1.09-.56.28-.99.65-1.27,1.1-.28.45-.42.94-.42,1.45,0,.56.16,1.08.48,1.59.32.5.75.88,1.31,1.12s1.3.36,2.22.36h4.52v-12.03h-4.6ZM942.62,1361.93h-2.41c-.87,0-1.48-.06-1.83-.17-.36-.11-.63-.32-.83-.62-.19-.3-.29-.66-.29-1.05,0-.42.1-.77.31-1.05.21-.28.51-.48.92-.6.31-.09.81-.14,1.52-.14h2.61v3.64ZM942.62,1356.88h-2.79c-.77,0-1.35-.07-1.76-.2-.41-.13-.73-.36-.96-.7-.23-.33-.35-.72-.35-1.17,0-.38.08-.72.24-1.01.16-.29.36-.52.61-.67.25-.15.55-.26.92-.33.21-.04.57-.06,1.09-.06h3.01v4.13ZM930.91,1353h1.69v-1.68h-1.69v1.68ZM927.46,1352.05c-.7-.63-1.58-.94-2.64-.94-1.17,0-2.14.36-2.91,1.1-.77.73-1.15,1.62-1.15,2.67,0,.78.2,1.42.59,1.94.4.52.95.86,1.66,1.02-.55.25-.96.59-1.24,1.02-.28.42-.42.9-.42,1.42,0,.55.15,1.07.44,1.55s.72.87,1.27,1.15c.55.28,1.16.42,1.82.42.96,0,1.75-.27,2.4-.82.64-.54,1.05-1.31,1.24-2.3l-1.48-.26c-.11.72-.36,1.26-.74,1.62-.38.36-.87.54-1.44.54s-1.05-.18-1.43-.53c-.36-.36-.55-.81-.55-1.35,0-.68.25-1.19.76-1.52.51-.33,1.07-.49,1.7-.49.06,0,.14,0,.24.02l.16-1.29c-.41.11-.76.16-1.04.16-.68,0-1.25-.22-1.69-.66-.44-.44-.67-1-.67-1.68s.24-1.31.72-1.79c.48-.48,1.07-.72,1.76-.72.59,0,1.09.18,1.49.55.41.37.7.97.87,1.81l1.48-.19c-.1-1-.5-1.82-1.2-2.45M916.69,1353h1.69v-1.68h-1.69v1.68ZM912.57,1352.74c-.16.27-.37.53-.62.8s-.82.77-1.71,1.51c-1.06.9-1.82,1.6-2.28,2.12-.46.51-.78,1.01-.98,1.47-.2.47-.3.94-.3,1.42,0,.95.34,1.74,1.01,2.38.68.64,1.59.96,2.75.96s2.06-.3,2.74-.89c.68-.59,1.07-1.46,1.18-2.59l-1.52-.16c0,.76-.22,1.35-.65,1.77-.43.43-1,.64-1.71.64-.67,0-1.22-.2-1.64-.6-.42-.4-.63-.9-.63-1.48s.23-1.15.69-1.77c.46-.62,1.35-1.48,2.66-2.55.85-.69,1.49-1.3,1.93-1.82.45-.52.77-1.06.98-1.6.12-.33.18-.67.17-1.03h-7.98v1.42h5.92Z"/>
    <rect class="st13" x="905.77" y="1322.29" width="102.27" height="18.9"/>
    <path d="M1001.11,1325.67v2.88h-1.63v1.35h1.63v7.8h1.21l5.5-7.8v-1.35h-5.23v-2.88h-1.48ZM1006.36,1329.9l-3.78,5.42v-5.42h3.78ZM995.36,1327.35h1.69v-1.68h-1.69v1.68ZM992.39,1327.37c-.42-.64-1-1.11-1.74-1.43-.74-.31-1.65-.48-2.74-.48-.86,0-1.64.16-2.33.47-.69.31-1.21.76-1.58,1.32-.36.57-.55,1.17-.55,1.81s.17,1.22.5,1.71c.33.49.85.9,1.56,1.23.48.22,1.37.47,2.67.76,1.3.29,2.1.58,2.41.86.31.28.47.64.47,1.07,0,.5-.22.92-.66,1.28-.44.35-1.15.53-2.11.53s-1.63-.19-2.1-.58c-.47-.39-.75-.96-.84-1.72l-1.53.12c.03.7.23,1.34.59,1.89.37.56.89.98,1.58,1.27.68.28,1.47.43,2.37.43.81,0,1.55-.14,2.21-.41.66-.28,1.17-.68,1.51-1.2.35-.53.52-1.1.52-1.7,0-.55-.14-1.05-.42-1.5-.28-.45-.71-.82-1.29-1.12-.44-.24-1.22-.49-2.33-.75s-1.82-.46-2.15-.59c-.5-.19-.87-.43-1.09-.71-.22-.28-.33-.61-.33-.99s.11-.71.34-1.03c.23-.31.58-.56,1.04-.74.47-.18,1-.27,1.61-.27.68,0,1.3.12,1.85.36.55.24.96.55,1.22.94.26.38.42.88.5,1.48l1.51-.13c-.02-.8-.24-1.53-.66-2.16M975.38,1325.67h-1.55c.18.34.31.68.38,1.04.06.37.09,1.23.09,2.6v1.97c0,.66.03,1.11.07,1.36.09.41.24.74.46,1,.22.27.56.49,1.03.66.47.17,1.07.26,1.82.26s1.41-.1,1.99-.31c.57-.21,1.01-.5,1.31-.88.3-.38.52-.88.65-1.5l-1.45-.2c-.16.62-.4,1.05-.74,1.29s-.85.36-1.54.36c-.75,0-1.31-.17-1.69-.5-.28-.24-.42-.67-.42-1.27,0-.05,0-.18,0-.38.57-.2,1.45-.37,2.64-.51.59-.07,1.02-.14,1.32-.22.4-.11.75-.27,1.07-.49.31-.21.57-.49.76-.85.2-.35.29-.74.29-1.17,0-.73-.26-1.32-.77-1.79-.51-.47-1.25-.7-2.21-.7-.58,0-1.13.1-1.63.29-.51.19-1.04.52-1.58.98-.04-.41-.14-.77-.29-1.08M975.8,1329.5c0-.65.08-1.14.24-1.48.21-.43.53-.77.98-1.02.44-.25.95-.37,1.52-.37s1.02.13,1.31.39c.3.26.45.59.45.98,0,.26-.07.49-.2.7-.14.21-.33.37-.59.48-.25.11-.68.21-1.29.3-1.07.15-1.88.34-2.42.56v-.54ZM970.47,1337.7h1.48v-12.03h-1.48v12.03ZM966,1334.38h1.69v-1.68h-1.69v1.68ZM966,1327.35h1.69v-1.68h-1.69v1.68ZM952.38,1336.95c.61.53,1.38.8,2.33.8,1.27,0,2.29-.46,3.04-1.38.86-1.05,1.29-2.74,1.29-5.07,0-2.08-.39-3.57-1.17-4.48-.78-.9-1.78-1.36-3.02-1.36-.72,0-1.37.17-1.94.52-.57.35-1.02.84-1.35,1.49-.33.65-.49,1.35-.49,2.11,0,1.15.35,2.08,1.04,2.81.69.72,1.53,1.09,2.52,1.09.57,0,1.11-.13,1.62-.4.51-.26.95-.66,1.31-1.2,0,1.2-.15,2.13-.42,2.78-.27.65-.64,1.15-1.1,1.49-.35.26-.77.39-1.24.39-.59,0-1.08-.21-1.48-.63-.24-.26-.43-.69-.56-1.26l-1.47.12c.12.94.48,1.67,1.09,2.2M956.64,1331.45c-.46.48-1.03.72-1.7.72s-1.24-.24-1.68-.72c-.44-.48-.66-1.14-.66-1.97s.22-1.55.67-2.05c.45-.51.99-.76,1.61-.76.43,0,.84.12,1.22.37.39.24.69.6.91,1.06.22.47.33.95.33,1.46,0,.78-.23,1.41-.7,1.88M947,1327.35h1.69v-1.68h-1.69v1.68ZM939.62,1325.67c-.77,0-1.41.07-1.95.2-.53.13-.97.33-1.32.59-.35.26-.65.63-.89,1.12-.24.48-.36,1.01-.36,1.57,0,.7.2,1.31.59,1.82.39.52.95.88,1.68,1.09-.56.28-.99.65-1.27,1.1-.28.45-.42.94-.42,1.45,0,.56.16,1.08.48,1.59.32.5.75.88,1.31,1.12.56.24,1.3.37,2.22.37h4.52v-12.03h-4.6ZM942.62,1336.28h-2.41c-.87,0-1.48-.06-1.83-.17-.36-.11-.63-.32-.83-.62-.19-.3-.29-.66-.29-1.05,0-.42.1-.77.31-1.05.21-.28.51-.48.92-.6.31-.09.81-.14,1.52-.14h2.61v3.64ZM942.62,1331.22h-2.79c-.77,0-1.35-.07-1.76-.2-.41-.13-.73-.36-.96-.7-.23-.33-.35-.72-.35-1.17,0-.39.08-.72.24-1.01.16-.29.36-.52.61-.67.25-.15.55-.26.92-.33.21-.04.57-.06,1.09-.06h3.01v4.13ZM930.91,1327.35h1.69v-1.68h-1.69v1.68ZM922.43,1325.67v2.88h-1.63v1.35h1.63v7.8h1.21l5.51-7.8v-1.35h-5.23v-2.88h-1.48ZM927.69,1329.9l-3.78,5.42v-5.42h3.78ZM916.69,1327.35h1.69v-1.68h-1.69v1.68ZM912.57,1327.09c-.16.27-.37.53-.62.8s-.82.77-1.71,1.51c-1.06.9-1.82,1.6-2.28,2.12-.46.51-.78,1-.98,1.47-.2.46-.3.94-.3,1.42,0,.95.34,1.74,1.01,2.38.68.64,1.59.96,2.75.96s2.06-.3,2.74-.89c.68-.59,1.07-1.46,1.18-2.59l-1.52-.16c0,.76-.22,1.35-.65,1.77-.43.43-1,.64-1.71.64-.67,0-1.22-.2-1.64-.61-.42-.4-.63-.89-.63-1.48s.23-1.15.69-1.78c.46-.62,1.35-1.47,2.66-2.54.85-.69,1.49-1.3,1.93-1.82.45-.52.77-1.06.98-1.6.12-.33.18-.67.17-1.03h-7.98v1.42h5.92Z"/>
    <rect class="st13" x="905.77" y="1299.34" width="102.27" height="18.9"/>
    <path d="M1006.15,1303.43c-.69-.61-1.59-.92-2.69-.92-1.34,0-2.4.49-3.17,1.46-.64.79-.96,1.74-.96,2.82,0,1.15.36,2.08,1.09,2.8.72.73,1.61,1.09,2.67,1.09.79,0,1.56-.25,2.28-.76l-.65,3.23h-4.81v1.41h6l1.17-6.18-1.39-.18c-.22.35-.52.62-.91.84-.38.21-.81.32-1.29.32-.77,0-1.39-.24-1.87-.73s-.71-1.15-.71-1.99c0-.89.25-1.6.74-2.13.49-.54,1.09-.8,1.81-.8.59,0,1.1.19,1.52.57.42.38.69.95.8,1.7l1.56-.13c-.1-1.01-.49-1.82-1.19-2.43M995.36,1304.4h1.69v-1.68h-1.69v1.68ZM992.39,1304.42c-.42-.63-1-1.11-1.74-1.43-.74-.32-1.65-.48-2.74-.48-.86,0-1.64.16-2.33.47-.69.31-1.21.76-1.58,1.32-.36.56-.55,1.17-.55,1.81s.17,1.22.5,1.71c.33.49.85.9,1.56,1.23.48.22,1.37.47,2.67.77,1.3.29,2.1.58,2.41.85.31.28.47.64.47,1.07,0,.5-.22.92-.66,1.28-.44.35-1.15.53-2.11.53s-1.63-.2-2.1-.58c-.47-.39-.75-.96-.84-1.72l-1.53.11c.03.7.23,1.34.59,1.89.37.56.89.98,1.58,1.27.68.28,1.47.43,2.37.43.81,0,1.55-.14,2.21-.41.66-.28,1.17-.68,1.51-1.2.35-.53.52-1.1.52-1.7,0-.55-.14-1.05-.42-1.5-.28-.45-.71-.82-1.29-1.12-.44-.24-1.22-.49-2.33-.75s-1.82-.46-2.15-.59c-.5-.19-.87-.43-1.09-.71-.22-.28-.33-.61-.33-.99s.11-.71.34-1.03c.23-.32.58-.56,1.04-.74.47-.18,1-.27,1.61-.27.68,0,1.3.12,1.85.36.55.24.96.55,1.22.94.26.38.42.88.5,1.48l1.51-.13c-.02-.8-.24-1.53-.66-2.16M975.38,1302.72h-1.55c.18.34.31.68.38,1.05.06.36.09,1.23.09,2.6v1.97c0,.66.03,1.11.07,1.36.09.41.24.74.46,1,.22.27.56.49,1.03.66.47.17,1.07.26,1.82.26s1.41-.1,1.99-.31c.57-.21,1.01-.5,1.31-.88.3-.38.52-.88.65-1.5l-1.45-.2c-.16.62-.4,1.05-.74,1.29s-.85.37-1.54.37c-.75,0-1.31-.17-1.69-.5-.28-.24-.42-.67-.42-1.27,0-.05,0-.18,0-.38.57-.19,1.45-.37,2.64-.51.59-.07,1.02-.14,1.32-.22.4-.11.75-.27,1.07-.49.31-.21.57-.49.76-.85s.29-.74.29-1.17c0-.73-.26-1.33-.77-1.79-.51-.47-1.25-.7-2.21-.7-.58,0-1.13.1-1.63.29-.51.19-1.04.52-1.58.98-.04-.41-.14-.77-.29-1.08M975.8,1306.55c0-.65.08-1.14.24-1.48.21-.43.53-.77.98-1.02.44-.25.95-.38,1.52-.38s1.02.13,1.31.39c.3.26.45.59.45.98,0,.26-.07.49-.2.7-.14.21-.33.37-.59.48-.25.11-.68.21-1.29.3-1.07.15-1.88.34-2.42.56v-.54ZM970.47,1314.74h1.48v-12.03h-1.48v12.03ZM966,1311.43h1.69v-1.68h-1.69v1.68ZM966,1304.4h1.69v-1.68h-1.69v1.68ZM952.38,1314c.61.53,1.38.8,2.33.8,1.27,0,2.29-.46,3.04-1.38.86-1.06,1.29-2.75,1.29-5.07,0-2.08-.39-3.57-1.17-4.48-.78-.91-1.78-1.36-3.02-1.36-.72,0-1.37.17-1.94.52-.57.35-1.02.84-1.35,1.49-.33.65-.49,1.35-.49,2.11,0,1.15.35,2.08,1.04,2.81.69.72,1.53,1.08,2.52,1.08.57,0,1.11-.13,1.62-.4.51-.26.95-.66,1.31-1.2,0,1.2-.15,2.13-.42,2.78-.27.65-.64,1.15-1.1,1.49-.35.26-.77.39-1.24.39-.59,0-1.08-.21-1.48-.63-.24-.26-.43-.68-.56-1.26l-1.47.12c.12.94.48,1.67,1.09,2.2M956.64,1308.5c-.46.48-1.03.72-1.7.72s-1.24-.24-1.68-.72c-.44-.48-.66-1.14-.66-1.96s.22-1.55.67-2.05c.45-.51.99-.76,1.61-.76.43,0,.84.12,1.22.37.39.24.69.6.91,1.06.22.47.33.95.33,1.46,0,.78-.23,1.41-.7,1.88M947,1304.4h1.69v-1.68h-1.69v1.68ZM939.62,1302.72c-.77,0-1.41.07-1.95.2-.53.13-.97.33-1.32.59-.35.26-.65.63-.89,1.12-.24.48-.36,1.01-.36,1.57,0,.7.2,1.31.59,1.82.39.52.95.88,1.68,1.09-.56.28-.99.65-1.27,1.1-.28.45-.42.94-.42,1.45,0,.56.16,1.08.48,1.59.32.5.75.88,1.31,1.12s1.3.36,2.22.36h4.52v-12.03h-4.6ZM942.62,1313.32h-2.41c-.87,0-1.48-.06-1.83-.17-.36-.11-.63-.32-.83-.62-.19-.3-.29-.65-.29-1.05,0-.42.1-.77.31-1.05.21-.28.51-.48.92-.6.31-.09.81-.14,1.52-.14h2.61v3.64ZM942.62,1308.27h-2.79c-.77,0-1.35-.07-1.76-.2-.41-.13-.73-.36-.96-.7-.23-.33-.35-.72-.35-1.17,0-.38.08-.72.24-1.01.16-.29.36-.52.61-.67.25-.15.55-.26.92-.33.21-.04.57-.06,1.09-.06h3.01v4.13ZM930.91,1304.4h1.69v-1.68h-1.69v1.68ZM927.47,1303.43c-.7-.61-1.59-.92-2.69-.92-1.34,0-2.4.49-3.17,1.46-.64.79-.96,1.74-.96,2.82,0,1.15.36,2.08,1.09,2.8.72.73,1.61,1.09,2.67,1.09.8,0,1.56-.25,2.28-.76l-.65,3.23h-4.82v1.41h6l1.17-6.18-1.39-.18c-.22.35-.52.62-.9.84-.39.21-.82.32-1.29.32-.77,0-1.39-.24-1.86-.73-.47-.49-.71-1.15-.71-1.99,0-.89.24-1.6.74-2.13.49-.54,1.09-.8,1.81-.8.59,0,1.1.19,1.52.57.42.38.69.95.8,1.7l1.55-.13c-.1-1.01-.49-1.82-1.19-2.43M916.69,1304.4h1.69v-1.68h-1.69v1.68ZM912.57,1304.14c-.16.27-.37.53-.62.8s-.82.77-1.71,1.51c-1.06.9-1.82,1.6-2.28,2.12-.46.51-.78,1.01-.98,1.47-.2.47-.3.94-.3,1.42,0,.95.34,1.74,1.01,2.38.68.64,1.59.96,2.75.96s2.06-.3,2.74-.89c.68-.59,1.07-1.46,1.18-2.59l-1.52-.16c0,.76-.22,1.35-.65,1.77-.43.43-1,.64-1.71.64-.67,0-1.22-.2-1.64-.6-.42-.4-.63-.9-.63-1.48s.23-1.15.69-1.77c.46-.62,1.35-1.48,2.66-2.55.85-.69,1.49-1.3,1.93-1.82.45-.52.77-1.06.98-1.6.12-.33.18-.67.17-1.03h-7.98v1.42h5.92Z"/>
    <line class="st3" x1="599.63" y1="1219.01" x2="535.83" y2="1099.53"/>
    <line class="st3" x1="420.06" y1="942.91" x2="396.1" y2="823.43"/>
  </g>
  <path class="st3" d="M439.98,863.26v63.79M444.03,1219.01v-1.35M444.03,1215.3v-2.36M444.03,1210.57v-2.36M444.03,1205.85v-2.36M444.03,1201.12v-2.36M444.03,1196.4v-2.36M444.03,1191.67v-2.7M444.03,1186.61v-2.36M444.03,1181.88v-2.36M444.03,1177.16v-2.36M444.03,1172.43v-1.35M444.03,1171.08h3.38M449.76,1171.08h2.36M454.49,1171.08h2.36M459.21,1171.08h2.36M463.94,1171.08h2.36M468.67,1171.08h2.36M473.39,1171.08h2.7M478.45,1171.08h2.36M483.18,1171.08h2.36M487.9,1171.08h2.36M492.63,1171.08h2.36M497.36,1171.08h2.36M502.08,1171.08h2.7M507.14,1171.08h2.36M511.87,1171.08h2.36M516.59,1171.08h2.36M521.32,1171.08h3.38M524.7,1219.01h-3.38M518.96,1219.01h-2.36M514.23,1219.01h-2.36M509.51,1219.01h-2.36M504.78,1219.01h-2.7M499.72,1219.01h-2.36M494.99,1219.01h-2.36M490.27,1219.01h-2.36M485.54,1219.01h-2.36M480.82,1219.01h-2.36M476.09,1219.01h-2.7M471.03,1219.01h-2.36M466.3,1219.01h-2.36M461.58,1219.01h-2.36M456.85,1219.01h-2.36M452.13,1219.01h-2.36M447.4,1219.01h-3.38"/>
  <polygon class="st13" points="769.4 851.44 765.02 857.18 764.34 857.52 763.67 857.52 762.65 856.17 762.65 854.82 763.33 853.13 764.34 851.44 764.34 851.1 764.34 850.77 764.34 850.43 764.34 849.75 764 849.75 763.67 849.42 759.95 856.84 758.94 864.92 758.94 864.96 759.95 873.04 763.67 880.47 764 880.47 764.34 880.13 764.34 879.79 764.34 879.12 764.34 878.78 764.34 878.44 763.33 876.76 762.65 875.07 762.65 873.72 763.67 872.71 764.34 872.71 765.02 873.04 769.4 878.44 775.82 882.16 775.82 847.73 769.4 851.44"/>
  <polygon class="st13" points="775.82 817.01 775.82 847.73 775.82 882.16 775.82 912.87 815.65 912.87 815.65 817.01 775.82 817.01"/>
  <line class="st3" x1="764.34" y1="878.44" x2="764.34" y2="878.78"/>
  <line class="st3" x1="764.34" y1="878.78" x2="764.34" y2="879.12"/>
  <line class="st3" x1="764.34" y1="880.13" x2="764.34" y2="879.79"/>
  <line class="st3" x1="764.34" y1="879.79" x2="764.34" y2="879.12"/>
  <line class="st3" x1="763.66" y1="880.47" x2="764" y2="880.47"/>
  <line class="st3" x1="764" y1="880.47" x2="764.34" y2="880.13"/>
  <line class="st3" x1="763.66" y1="872.7" x2="762.65" y2="873.72"/>
  <line class="st3" x1="762.65" y1="873.72" x2="762.65" y2="875.07"/>
  <line class="st3" x1="762.65" y1="875.07" x2="763.33" y2="876.75"/>
  <line class="st3" x1="763.33" y1="876.75" x2="764.34" y2="878.44"/>
  <line class="st3" x1="765.01" y1="873.04" x2="764.34" y2="872.7"/>
  <line class="st3" x1="764.34" y1="872.7" x2="763.66" y2="872.7"/>
  <line class="st3" x1="765.01" y1="873.04" x2="769.4" y2="878.44"/>
  <line class="st3" x1="769.4" y1="878.44" x2="775.82" y2="882.16"/>
  <line class="st3" x1="764.34" y1="851.44" x2="764.34" y2="851.1"/>
  <line class="st3" x1="764.34" y1="851.1" x2="764.34" y2="850.77"/>
  <line class="st3" x1="764.34" y1="849.75" x2="764.34" y2="850.43"/>
  <line class="st3" x1="764.34" y1="850.43" x2="764.34" y2="850.77"/>
  <line class="st3" x1="763.66" y1="849.41" x2="764" y2="849.75"/>
  <line class="st3" x1="764" y1="849.75" x2="764.34" y2="849.75"/>
  <line class="st3" x1="763.66" y1="857.52" x2="762.65" y2="856.17"/>
  <line class="st3" x1="762.65" y1="856.17" x2="762.65" y2="854.82"/>
  <line class="st3" x1="762.65" y1="854.82" x2="763.33" y2="853.13"/>
  <line class="st3" x1="763.33" y1="853.13" x2="764.34" y2="851.44"/>
  <line class="st3" x1="765.01" y1="857.18" x2="764.34" y2="857.52"/>
  <line class="st3" x1="764.34" y1="857.52" x2="763.66" y2="857.52"/>
  <line class="st3" x1="765.01" y1="857.18" x2="769.4" y2="851.44"/>
  <line class="st3" x1="769.4" y1="851.44" x2="775.82" y2="847.73"/>
  <line class="st3" x1="763.66" y1="880.47" x2="759.95" y2="873.04"/>
  <line class="st3" x1="759.95" y1="873.04" x2="758.94" y2="864.94"/>
  <line class="st3" x1="758.94" y1="864.94" x2="759.95" y2="856.84"/>
  <line class="st3" x1="759.95" y1="856.84" x2="763.67" y2="849.42"/>
  <line class="st3" x1="775.82" y1="912.87" x2="815.64" y2="912.87"/>
  <line class="st3" x1="815.64" y1="912.87" x2="815.64" y2="817.01"/>
  <line class="st3" x1="815.64" y1="817.01" x2="775.82" y2="817.01"/>
  <polyline class="st3" points="775.82 817.01 775.82 847.73 775.82 882.16 775.82 912.87"/>
  <polygon class="st13" points="741.86 788.22 814.44 788.22 814.44 787.81 742.78 787.81 742.78 649.85 741.86 649.41 741.86 788.22"/>
  <g class="st4">
    <path class="st13" d="M814.44,685.31v102.5h-71.66v-137.96l24.55,12.14c1.06.52,2.08,1.02,3.06,1.52l2.85,1.41,6.29,3.11c.37.19.75.36,1.11.55l2.1,1.04c.67.33,1.31.64,1.93.95l3.37,1.67,1.46.72c.23.11.46.22.67.34l1.25.62c.58.29,1.12.55,1.63.8l.93.46,1.19.59c.48.24.88.44,1.24.61l.46.23c.38.19.67.33.9.45l.22.1c.31.15.43.21.48.23l.04.02,15.92,7.88Z"/>
    <path class="st13" d="M814.44,628.57v56.74l-15.92-7.89v-28.25c0-1.81-1.47-3.28-3.29-3.28h-33.24c-1.81,0-3.28,1.47-3.28,3.28v8.56c3.11,1.54,5.97,2.96,8.62,4.27l-24.55-12.15v-21.28h71.66Z"/>
    <path class="st13" d="M798.51,649.17v28.26l-.04-.02s-.17-.08-.48-.24c-.07-.04-.14-.07-.22-.1-.22-.12-.52-.26-.9-.45-.14-.07-.29-.15-.46-.23-.36-.17-.76-.37-1.24-.61-.36-.18-.75-.37-1.19-.59-.29-.15-.61-.3-.93-.46-.5-.25-1.05-.51-1.63-.8-.39-.2-.82-.41-1.26-.62-.21-.11-.44-.22-.67-.34-.46-.23-.94-.47-1.46-.72-1.02-.5-2.15-1.06-3.37-1.66-.62-.31-1.25-.63-1.93-.95-.67-.34-1.37-.69-2.09-1.04-.37-.19-.74-.36-1.12-.55-1.9-.95-3.99-1.97-6.29-3.11-.92-.46-1.86-.93-2.85-1.42-.99-.49-2-1-3.06-1.52-2.65-1.31-5.51-2.73-8.62-4.27v-8.56c0-1.81,1.47-3.28,3.29-3.28h33.24c1.82,0,3.29,1.47,3.29,3.28"/>
    <path class="st13" d="M798.51,677.43l-.04-.02.04.02Z"/>
    <path class="st13" d="M798,677.17l-.22-.1c.08.03.16.06.22.1"/>
    <path class="st13" d="M796.87,676.62l-.46-.23c.17.08.32.16.46.23"/>
    <path class="st13" d="M795.18,675.78l-1.19-.59c.44.21.84.41,1.19.59"/>
    <path class="st13" d="M793.99,675.19l-.93-.46c.32.16.64.31.93.46"/>
    <path class="st13" d="M791.43,673.93l-1.26-.62c.44.21.86.42,1.26.62"/>
    <path class="st13" d="M789.51,672.97l-1.46-.72c.52.25,1,.49,1.46.72"/>
    <path class="st13" d="M788.05,672.25l-3.37-1.67c1.22.61,2.35,1.16,3.37,1.67"/>
    <path class="st13" d="M782.75,669.63l-2.1-1.04c.73.36,1.42.7,2.1,1.04"/>
    <path class="st13" d="M779.53,668.04l-6.29-3.11c2.3,1.13,4.39,2.16,6.29,3.11"/>
    <path class="st13" d="M773.24,664.93l-2.85-1.42c.99.49,1.94.96,2.85,1.42"/>
  </g>
  <polyline class="st1" points="742.78 649.85 742.78 628.57 814.44 628.57 814.44 685.31"/>
  <polyline class="st1" points="767.33 662 742.78 649.85 741.86 649.41 741.86 788.23 814.44 788.23 814.44 787.81 814.44 685.31 798.51 677.43 798.48 677.41"/>
  <polyline class="st1" points="779.53 668.04 773.24 664.93 770.39 663.51"/>
  <line class="st1" x1="782.75" y1="669.63" x2="780.65" y2="668.59"/>
  <polyline class="st1" points="789.51 672.97 788.05 672.25 784.67 670.58"/>
  <line class="st1" x1="791.43" y1="673.93" x2="790.18" y2="673.31"/>
  <polyline class="st1" points="795.18 675.78 793.99 675.19 793.06 674.73"/>
  <line class="st1" x1="796.87" y1="676.62" x2="796.42" y2="676.39"/>
  <line class="st1" x1="798" y1="677.17" x2="797.77" y2="677.07"/>
  <line class="st1" x1="761.99" y1="645.9" x2="795.23" y2="645.9"/>
  <g class="st7">
    <path class="st1" d="M795.23,645.9c1.82,0,3.29,1.47,3.29,3.28"/>
    <path class="st1" d="M758.7,649.17c0-1.81,1.47-3.28,3.29-3.28"/>
    <path class="st1" d="M758.7,649.17v8.56c3.11,1.53,5.98,2.96,8.62,4.27,1.06.51,2.08,1.02,3.06,1.52.99.49,1.94.95,2.85,1.42,2.3,1.13,4.39,2.16,6.29,3.11.37.19.75.36,1.11.55.73.35,1.42.7,2.1,1.04.67.32,1.31.64,1.93.95,1.22.61,2.35,1.16,3.37,1.66.51.26,1,.49,1.46.72.23.11.46.22.67.34.44.21.86.42,1.25.62.58.29,1.12.55,1.63.8.32.16.63.31.92.46.44.21.83.41,1.19.59.48.23.88.44,1.23.61.17.08.32.16.46.23.38.19.67.33.9.45.08.03.16.07.22.1.31.15.43.21.48.24l.04.02v-28.26"/>
  </g>
  <g class="st5">
    <path class="st13" d="M626.59,1119.32c7.7,0,15.41,0,23.11,0,8.9,0,16.09,6.4,16.08,14.3,0,7.9-7.2,14.29-16.1,14.28-7.7,0-15.4,0-23.11-.02,0-9.53,0-19.05.02-28.58"/>
  </g>
  <g class="st6">
    <path class="st3" d="M626.59,1119.32c7.7,0,15.41,0,23.11,0,8.9,0,16.09,6.4,16.08,14.3,0,7.9-7.2,14.29-16.1,14.28-7.7,0-15.4,0-23.11-.02,0-9.53,0-19.05.02-28.58Z"/>
  </g>
  <rect class="st13" x="626.63" y="1022.23" width="69.65" height="70.4"/>
  <polyline class="st3" points="626.63 1022.23 696.28 1022.23 696.28 1030.57"/>
  <line class="st3" x1="626.63" y1="1022.23" x2="626.63" y2="1092.08"/>
  <line class="st3" x1="627.78" y1="1092.63" x2="695.67" y2="1092.63"/>
  <polyline class="st3" points="627.78 1092.63 626.63 1092.63 626.63 1092.08"/>
  <polyline class="st3" points="696.28 1091.6 696.28 1092.63 695.67 1092.63"/>
  <line class="st3" x1="696.28" y1="1091.6" x2="696.28" y2="1030.57"/>
  <line class="st3" x1="626.63" y1="1057.16" x2="645.98" y2="1057.16"/>
  <g class="st12">
    <path class="st3" d="M645.88,1052.92c-2.39,0-4.33,1.94-4.33,4.33s1.94,4.33,4.33,4.33,4.33-1.94,4.33-4.33-1.94-4.33-4.33-4.33Z"/>
    <path class="st3" d="M645.88,1052.92c-2.39,0-4.33,1.94-4.33,4.33s1.94,4.33,4.33,4.33,4.33-1.94,4.33-4.33-1.94-4.33-4.33-4.33Z"/>
  </g>
  <g class="st9">
    <path class="st13" d="M751.21,1170.46v40.45h-56.78v-40.45c0-.9.54-1.62,1.21-1.62h54.62c.53,0,.95.72.95,1.62M750.26,1195.79v-23.7c0-.9-.54-1.62-1.21-1.62h-52.2c-.66,0-1.2.72-1.2,1.62v23.7c0,.91.54,1.64,1.2,1.64h52.2c.67,0,1.21-.73,1.21-1.64M726.17,1204.63c0-1.77-1.45-3.21-3.23-3.21s-3.22,1.45-3.22,3.21,1.45,3.23,3.22,3.23,3.23-1.45,3.23-3.23"/>
    <path class="st13" d="M750.26,1172.08v23.7c0,.91-.54,1.64-1.21,1.64h-52.2c-.66,0-1.2-.73-1.2-1.64v-23.7c0-.91.54-1.62,1.2-1.62h52.2c.67,0,1.21.71,1.21,1.62M727.24,1183.51c0-2.37-1.93-4.28-4.3-4.28s-4.28,1.91-4.28,4.28,1.92,4.3,4.28,4.3,4.3-1.93,4.3-4.3"/>
    <path class="st13" d="M722.94,1179.23c2.37,0,4.3,1.91,4.3,4.28s-1.93,4.3-4.3,4.3-4.28-1.93-4.28-4.3,1.91-4.28,4.28-4.28M725.25,1183.51c0-1.27-1.04-2.31-2.31-2.31s-2.31,1.04-2.31,2.31,1.04,2.31,2.31,2.31,2.31-1.04,2.31-2.31"/>
    <path class="st13" d="M722.94,1201.41c1.78,0,3.23,1.45,3.23,3.21s-1.45,3.23-3.23,3.23-3.22-1.45-3.22-3.23,1.45-3.21,3.22-3.21"/>
    <path class="st13" d="M722.94,1181.2c1.27,0,2.31,1.04,2.31,2.31s-1.04,2.31-2.31,2.31-2.31-1.04-2.31-2.31,1.04-2.31,2.31-2.31"/>
  </g>
  <g class="st8">
    <path class="st3" d="M719.73,1204.63c0-1.77,1.45-3.21,3.22-3.21s3.23,1.45,3.23,3.21-1.45,3.23-3.23,3.23-3.22-1.45-3.22-3.23Z"/>
    <path class="st3" d="M718.66,1183.51c0-2.37,1.91-4.28,4.28-4.28s4.3,1.91,4.3,4.28-1.93,4.3-4.3,4.3-4.28-1.93-4.28-4.3Z"/>
    <path class="st3" d="M720.63,1183.51c0-1.27,1.04-2.31,2.31-2.31s2.31,1.04,2.31,2.31-1.04,2.31-2.31,2.31-2.31-1.04-2.31-2.31Z"/>
    <path class="st3" d="M750.26,1195.79v-23.7c0-.91-.54-1.62-1.21-1.62h-52.21c-.66,0-1.2.71-1.2,1.62v23.7c0,.91.54,1.64,1.2,1.64h52.21c.67,0,1.21-.73,1.21-1.64Z"/>
  </g>
  <line class="st3" x1="694.43" y1="1198.4" x2="694.43" y2="1210.91"/>
  <g class="st11">
    <path class="st3" d="M751.21,1210.91v-40.46c0-.9-.42-1.62-.95-1.62h-54.62c-.67,0-1.21.71-1.21,1.62v12.82"/>
  </g>
  <line class="st3" x1="694.43" y1="1198.4" x2="694.43" y2="1183.28"/>
  <line class="st3" x1="694.43" y1="1210.91" x2="751.21" y2="1210.91"/>
  <polygon class="st13" points="463.72 846.38 455.62 847.73 448.19 851.44 448.19 851.78 448.53 851.78 449.21 851.78 449.54 851.78 449.88 851.78 450.22 851.78 451.91 850.77 453.59 850.09 454.94 850.43 455.96 851.44 455.96 852.12 455.62 852.45 450.22 857.18 446.51 863.26 480.93 863.26 477.22 857.18 471.82 852.45 471.14 852.12 471.48 851.44 472.49 850.43 473.84 850.09 475.53 850.77 477.22 851.78 477.56 851.78 477.89 851.78 478.23 851.78 478.91 851.78 479.24 851.44 471.82 847.73 463.72 846.38"/>
  <polygon class="st13" points="511.65 846.38 503.21 847.73 496.12 851.44 496.12 851.78 496.46 851.78 496.8 851.78 497.47 851.78 497.81 851.78 498.15 851.78 499.83 850.77 501.52 850.09 502.87 850.43 503.88 851.44 503.88 852.12 503.55 852.45 497.81 857.18 494.43 863.26 528.86 863.26 525.15 857.18 519.41 852.45 519.07 852.12 519.07 851.44 520.09 850.43 521.77 850.09 523.46 850.77 524.81 851.78 525.15 851.78 525.82 851.78 526.16 851.78 526.5 851.78 526.84 851.78 527.17 851.44 519.75 847.73 511.65 846.38"/>
  <polygon class="st13" points="528.86 863.26 494.44 863.26 480.93 863.26 446.5 863.26 439.75 863.26 439.75 927.05 446.5 927.05 480.93 927.05 494.44 927.05 528.86 927.05 535.28 927.05 535.28 863.26 528.86 863.26"/>
  <polygon class="st13" points="446.51 927.05 450.22 933.12 455.62 937.85 455.96 938.19 455.96 938.86 454.94 939.87 453.59 940.21 451.9 939.54 450.22 938.52 449.88 938.52 449.54 938.52 449.2 938.52 448.53 938.52 448.19 938.52 448.19 938.86 455.62 942.58 463.72 943.93 471.82 942.58 479.24 938.86 478.91 938.52 478.23 938.52 477.89 938.52 477.56 938.52 477.22 938.52 475.53 939.54 473.84 940.21 472.49 939.87 471.48 938.86 471.14 938.19 471.82 937.85 477.22 933.12 480.93 927.05 446.51 927.05"/>
  <polygon class="st13" points="494.43 927.05 497.81 933.12 503.55 937.85 503.88 938.19 503.88 938.86 502.87 939.87 501.52 940.21 499.84 939.54 498.15 938.52 497.81 938.52 497.47 938.52 496.8 938.52 496.46 938.52 496.12 938.52 496.12 938.86 503.21 942.58 511.65 943.93 519.75 942.58 527.17 938.86 526.84 938.52 526.5 938.52 526.16 938.52 525.82 938.52 525.15 938.52 524.81 938.52 523.46 939.54 521.77 940.21 520.09 939.87 519.07 938.86 519.07 938.19 519.41 937.85 525.15 933.12 528.86 927.05 494.43 927.05"/>
  <line class="st3" x1="450.22" y1="938.53" x2="449.88" y2="938.53"/>
  <line class="st3" x1="449.88" y1="938.53" x2="449.54" y2="938.53"/>
  <line class="st3" x1="448.53" y1="938.53" x2="449.2" y2="938.53"/>
  <line class="st3" x1="449.2" y1="938.53" x2="449.54" y2="938.53"/>
  <line class="st3" x1="448.19" y1="938.86" x2="448.19" y2="938.53"/>
  <line class="st3" x1="448.19" y1="938.53" x2="448.53" y2="938.53"/>
  <line class="st3" x1="455.96" y1="938.86" x2="454.94" y2="939.88"/>
  <line class="st3" x1="454.94" y1="939.88" x2="453.59" y2="940.21"/>
  <line class="st3" x1="453.59" y1="940.21" x2="451.91" y2="939.54"/>
  <line class="st3" x1="451.9" y1="939.54" x2="450.22" y2="938.53"/>
  <line class="st3" x1="455.62" y1="937.85" x2="455.95" y2="938.19"/>
  <line class="st3" x1="455.96" y1="938.19" x2="455.96" y2="938.86"/>
  <line class="st3" x1="455.62" y1="937.85" x2="450.22" y2="933.13"/>
  <line class="st3" x1="450.22" y1="933.12" x2="446.5" y2="927.05"/>
  <line class="st3" x1="477.22" y1="938.53" x2="477.56" y2="938.53"/>
  <line class="st3" x1="477.56" y1="938.53" x2="477.89" y2="938.53"/>
  <line class="st3" x1="478.91" y1="938.53" x2="478.23" y2="938.53"/>
  <line class="st3" x1="478.23" y1="938.53" x2="477.89" y2="938.53"/>
  <line class="st3" x1="479.24" y1="938.86" x2="478.91" y2="938.53"/>
  <line class="st3" x1="471.48" y1="938.86" x2="472.49" y2="939.88"/>
  <line class="st3" x1="472.49" y1="939.88" x2="473.84" y2="940.21"/>
  <line class="st3" x1="473.84" y1="940.21" x2="475.53" y2="939.54"/>
  <line class="st3" x1="475.53" y1="939.54" x2="477.22" y2="938.53"/>
  <line class="st3" x1="471.82" y1="937.85" x2="471.14" y2="938.19"/>
  <line class="st3" x1="471.14" y1="938.19" x2="471.48" y2="938.86"/>
  <line class="st3" x1="471.82" y1="937.85" x2="477.22" y2="933.13"/>
  <line class="st3" x1="477.22" y1="933.12" x2="480.93" y2="927.05"/>
  <line class="st3" x1="448.19" y1="938.86" x2="455.62" y2="942.58"/>
  <line class="st3" x1="455.62" y1="942.58" x2="463.72" y2="943.93"/>
  <line class="st3" x1="463.72" y1="943.93" x2="471.82" y2="942.58"/>
  <line class="st3" x1="471.82" y1="942.58" x2="479.24" y2="938.86"/>
  <line class="st3" x1="450.22" y1="851.78" x2="449.88" y2="851.78"/>
  <line class="st3" x1="449.88" y1="851.78" x2="449.54" y2="851.78"/>
  <line class="st3" x1="448.53" y1="851.78" x2="449.2" y2="851.78"/>
  <line class="st3" x1="449.2" y1="851.78" x2="449.54" y2="851.78"/>
  <line class="st3" x1="448.19" y1="851.44" x2="448.19" y2="851.78"/>
  <line class="st3" x1="448.19" y1="851.78" x2="448.53" y2="851.78"/>
  <line class="st3" x1="455.96" y1="851.44" x2="454.94" y2="850.43"/>
  <line class="st3" x1="454.94" y1="850.43" x2="453.59" y2="850.09"/>
  <line class="st3" x1="453.59" y1="850.09" x2="451.91" y2="850.77"/>
  <line class="st3" x1="451.9" y1="850.77" x2="450.22" y2="851.78"/>
  <line class="st3" x1="455.62" y1="852.46" x2="455.95" y2="852.12"/>
  <line class="st3" x1="455.96" y1="852.12" x2="455.96" y2="851.44"/>
  <line class="st3" x1="455.62" y1="852.46" x2="450.22" y2="857.18"/>
  <line class="st3" x1="450.22" y1="857.18" x2="446.5" y2="863.26"/>
  <line class="st3" x1="477.22" y1="851.78" x2="477.56" y2="851.78"/>
  <line class="st3" x1="477.56" y1="851.78" x2="477.89" y2="851.78"/>
  <line class="st3" x1="478.91" y1="851.78" x2="478.23" y2="851.78"/>
  <line class="st3" x1="478.23" y1="851.78" x2="477.89" y2="851.78"/>
  <line class="st3" x1="479.24" y1="851.44" x2="478.91" y2="851.78"/>
  <line class="st3" x1="471.48" y1="851.44" x2="472.49" y2="850.43"/>
  <line class="st3" x1="472.49" y1="850.43" x2="473.84" y2="850.09"/>
  <line class="st3" x1="473.84" y1="850.09" x2="475.53" y2="850.77"/>
  <line class="st3" x1="475.53" y1="850.77" x2="477.22" y2="851.78"/>
  <line class="st3" x1="471.82" y1="852.46" x2="471.14" y2="852.12"/>
  <line class="st3" x1="471.14" y1="852.12" x2="471.48" y2="851.44"/>
  <line class="st3" x1="471.82" y1="852.46" x2="477.22" y2="857.18"/>
  <line class="st3" x1="477.22" y1="857.18" x2="480.93" y2="863.26"/>
  <line class="st3" x1="448.19" y1="851.44" x2="455.62" y2="847.73"/>
  <line class="st3" x1="455.62" y1="847.73" x2="463.72" y2="846.38"/>
  <line class="st3" x1="463.72" y1="846.38" x2="471.82" y2="847.73"/>
  <line class="st3" x1="471.82" y1="847.73" x2="479.24" y2="851.44"/>
  <line class="st3" x1="439.75" y1="863.26" x2="439.75" y2="927.05"/>
  <line class="st3" x1="524.81" y1="938.53" x2="525.15" y2="938.53"/>
  <line class="st3" x1="525.15" y1="938.53" x2="525.82" y2="938.53"/>
  <line class="st3" x1="526.5" y1="938.53" x2="526.16" y2="938.53"/>
  <line class="st3" x1="526.16" y1="938.53" x2="525.82" y2="938.53"/>
  <line class="st3" x1="527.17" y1="938.86" x2="526.84" y2="938.53"/>
  <line class="st3" x1="526.84" y1="938.53" x2="526.5" y2="938.53"/>
  <line class="st3" x1="519.07" y1="938.86" x2="520.09" y2="939.88"/>
  <line class="st3" x1="520.08" y1="939.88" x2="521.77" y2="940.21"/>
  <line class="st3" x1="521.77" y1="940.21" x2="523.46" y2="939.54"/>
  <line class="st3" x1="523.46" y1="939.54" x2="524.81" y2="938.53"/>
  <line class="st3" x1="519.41" y1="937.85" x2="519.07" y2="938.19"/>
  <line class="st3" x1="519.07" y1="938.19" x2="519.07" y2="938.86"/>
  <line class="st3" x1="519.41" y1="937.85" x2="525.15" y2="933.13"/>
  <line class="st3" x1="525.15" y1="933.12" x2="528.86" y2="927.05"/>
  <line class="st3" x1="498.15" y1="938.53" x2="497.81" y2="938.53"/>
  <line class="st3" x1="497.81" y1="938.53" x2="497.47" y2="938.53"/>
  <line class="st3" x1="496.46" y1="938.53" x2="496.8" y2="938.53"/>
  <line class="st3" x1="496.8" y1="938.53" x2="497.47" y2="938.53"/>
  <line class="st3" x1="496.12" y1="938.86" x2="496.12" y2="938.53"/>
  <line class="st3" x1="496.12" y1="938.53" x2="496.46" y2="938.53"/>
  <line class="st3" x1="503.88" y1="938.86" x2="502.87" y2="939.88"/>
  <line class="st3" x1="502.87" y1="939.88" x2="501.52" y2="940.21"/>
  <line class="st3" x1="501.52" y1="940.21" x2="499.83" y2="939.54"/>
  <line class="st3" x1="499.83" y1="939.54" x2="498.15" y2="938.53"/>
  <line class="st3" x1="503.55" y1="937.85" x2="503.88" y2="938.19"/>
  <line class="st3" x1="503.88" y1="938.19" x2="503.88" y2="938.86"/>
  <line class="st3" x1="503.55" y1="937.85" x2="497.81" y2="933.13"/>
  <line class="st3" x1="497.81" y1="933.12" x2="494.43" y2="927.05"/>
  <line class="st3" x1="527.17" y1="938.86" x2="519.75" y2="942.58"/>
  <line class="st3" x1="519.75" y1="942.58" x2="511.65" y2="943.93"/>
  <line class="st3" x1="511.65" y1="943.93" x2="503.21" y2="942.58"/>
  <line class="st3" x1="503.21" y1="942.58" x2="496.12" y2="938.86"/>
  <line class="st3" x1="524.81" y1="851.78" x2="525.15" y2="851.78"/>
  <line class="st3" x1="525.15" y1="851.78" x2="525.82" y2="851.78"/>
  <line class="st3" x1="526.5" y1="851.78" x2="526.16" y2="851.78"/>
  <line class="st3" x1="526.16" y1="851.78" x2="525.82" y2="851.78"/>
  <line class="st3" x1="527.17" y1="851.44" x2="526.84" y2="851.78"/>
  <line class="st3" x1="526.84" y1="851.78" x2="526.5" y2="851.78"/>
  <line class="st3" x1="519.07" y1="851.44" x2="520.09" y2="850.43"/>
  <line class="st3" x1="520.08" y1="850.43" x2="521.77" y2="850.09"/>
  <line class="st3" x1="521.77" y1="850.09" x2="523.46" y2="850.77"/>
  <line class="st3" x1="523.46" y1="850.77" x2="524.81" y2="851.78"/>
  <line class="st3" x1="519.41" y1="852.46" x2="519.07" y2="852.12"/>
  <line class="st3" x1="519.07" y1="852.12" x2="519.07" y2="851.44"/>
  <line class="st3" x1="519.41" y1="852.46" x2="525.15" y2="857.18"/>
  <line class="st3" x1="525.15" y1="857.18" x2="528.86" y2="863.26"/>
  <line class="st3" x1="498.15" y1="851.78" x2="497.81" y2="851.78"/>
  <line class="st3" x1="497.81" y1="851.78" x2="497.47" y2="851.78"/>
  <line class="st3" x1="496.46" y1="851.78" x2="496.8" y2="851.78"/>
  <line class="st3" x1="496.8" y1="851.78" x2="497.47" y2="851.78"/>
  <line class="st3" x1="496.12" y1="851.44" x2="496.12" y2="851.78"/>
  <line class="st3" x1="496.12" y1="851.78" x2="496.46" y2="851.78"/>
  <line class="st3" x1="503.88" y1="851.44" x2="502.87" y2="850.43"/>
  <line class="st3" x1="502.87" y1="850.43" x2="501.52" y2="850.09"/>
  <line class="st3" x1="501.52" y1="850.09" x2="499.83" y2="850.77"/>
  <line class="st3" x1="499.83" y1="850.77" x2="498.15" y2="851.78"/>
  <line class="st3" x1="503.55" y1="852.46" x2="503.88" y2="852.12"/>
  <line class="st3" x1="503.88" y1="852.12" x2="503.88" y2="851.44"/>
  <line class="st3" x1="503.55" y1="852.46" x2="497.81" y2="857.18"/>
  <line class="st3" x1="497.81" y1="857.18" x2="494.43" y2="863.26"/>
  <line class="st3" x1="527.17" y1="851.44" x2="519.75" y2="847.73"/>
  <line class="st3" x1="519.75" y1="847.73" x2="511.65" y2="846.38"/>
  <line class="st3" x1="511.65" y1="846.38" x2="503.21" y2="847.73"/>
  <line class="st3" x1="503.21" y1="847.73" x2="496.12" y2="851.44"/>
  <line class="st3" x1="535.27" y1="863.26" x2="535.27" y2="927.05"/>
  <polyline class="st3" points="535.27 927.05 528.86 927.05 494.43 927.05 480.93 927.05 446.5 927.05 439.75 927.05"/>
  <polyline class="st3" points="439.75 863.26 446.51 863.26 480.93 863.26 494.43 863.26 528.86 863.26 535.28 863.26"/>
  <line class="st3" x1="596.01" y1="1085.39" x2="596.01" y2="1074.72"/>
  <rect class="st3" x="524.7" y="1043.74" width="95.37" height="47.78"/>
  <line class="st3" x1="533.83" y1="1058.74" x2="544.26" y2="1058.74"/>
  <line class="st3" x1="533.83" y1="1078.36" x2="544.26" y2="1078.36"/>
  <line class="st3" x1="538.97" y1="1073.21" x2="538.97" y2="1083.64"/>
  <line class="st3" x1="538.97" y1="1053.46" x2="538.97" y2="1063.89"/>
  <rect class="st3" x="527.85" y="1048.87" width="22.95" height="39.36"/>
  <rect class="st3" x="582.67" y="1054.6" width="26.55" height="26.54"/>
  <rect class="st3" x="576.07" y="1048" width="39.89" height="39.75"/>
  <polygon class="st13" points="505.4 731.34 505.4 783.32 506.75 786.02 509.45 787.37 521.6 787.37 521.6 731.34 505.4 731.34"/>
  <polygon class="st13" points="521.6 731.34 521.6 787.37 561.43 787.37 564.13 786.02 565.14 783.32 565.14 731.34 521.6 731.34"/>
  <polygon class="st13" points="509.45 675.65 506.75 676.66 505.4 679.7 505.4 731.34 521.6 731.34 521.6 675.65 509.45 675.65"/>
  <polygon class="st13" points="521.6 675.65 521.6 731.34 565.14 731.34 565.14 679.7 564.13 676.66 561.43 675.65 521.6 675.65"/>
  <polyline class="st3" points="521.6 675.65 521.6 731.34 521.6 787.37"/>
  <polyline class="st3" points="565.14 731.34 521.6 731.34 505.4 731.34"/>
  <line class="st3" x1="509.45" y1="787.37" x2="506.75" y2="786.02"/>
  <line class="st3" x1="506.75" y1="786.02" x2="505.4" y2="783.32"/>
  <line class="st3" x1="509.45" y1="675.65" x2="506.75" y2="676.66"/>
  <line class="st3" x1="506.75" y1="676.66" x2="505.4" y2="679.7"/>
  <line class="st3" x1="561.43" y1="787.37" x2="564.13" y2="786.02"/>
  <line class="st3" x1="564.13" y1="786.02" x2="565.14" y2="783.32"/>
  <line class="st3" x1="561.43" y1="675.65" x2="564.13" y2="676.66"/>
  <line class="st3" x1="564.13" y1="676.66" x2="565.14" y2="679.7"/>
  <polyline class="st3" points="561.43 675.65 521.6 675.65 509.45 675.65"/>
  <polyline class="st3" points="505.4 679.7 505.4 731.34 505.4 783.32"/>
  <polyline class="st3" points="509.45 787.37 521.6 787.37 561.43 787.37"/>
  <polyline class="st3" points="565.14 783.32 565.14 731.34 565.14 679.7"/>
  <g class="st10">
    <path class="st13" d="M582.82,717.22c4.5-14.35,19.79-22.33,34.13-17.83,14.35,4.5,22.33,19.79,17.83,34.13-4.51,14.35-19.79,22.33-34.13,17.83-14.35-4.51-22.33-19.79-17.83-34.13"/>
    <path class="st3" d="M582.82,717.22c4.5-14.35,19.79-22.33,34.13-17.83,14.35,4.5,22.33,19.79,17.83,34.13-4.51,14.35-19.79,22.33-34.13,17.83-14.35-4.51-22.33-19.79-17.83-34.13Z"/>
  </g>
</svg>