<?xml version="1.0" encoding="UTF-8"?>
<svg id="Layer_1" xmlns="http://www.w3.org/2000/svg" xmlns:xlink="http://www.w3.org/1999/xlink" version="1.1" viewBox="0 0 1200 1697.14">
  <!-- Generator: Adobe Illustrator 29.6.0, SVG Export Plug-In . SVG Version: 2.1.1 Build 207)  -->
  <defs>
    <style>
      .st0, .st1, .st2, .st3 {
        fill: none;
      }

      .st1 {
        stroke: #0d0e1c;
      }

      .st1, .st2, .st3 {
        stroke-linecap: round;
        stroke-linejoin: round;
      }

      .st1, .st3 {
        stroke-width: .08px;
      }

      .st2 {
        stroke-width: .14px;
      }

      .st2, .st3 {
        stroke: #000;
      }

      .st4 {
        clip-path: url(#clippath-1);
      }

      .st5 {
        clip-path: url(#clippath-3);
      }

      .st6 {
        clip-path: url(#clippath-4);
      }

      .st7 {
        clip-path: url(#clippath-2);
      }

      .st8 {
        clip-path: url(#clippath-7);
      }

      .st9 {
        clip-path: url(#clippath-6);
      }

      .st10 {
        clip-path: url(#clippath-8);
      }

      .st11 {
        clip-path: url(#clippath-5);
      }

      .st12 {
        fill: #fff;
      }

      .st13 {
        fill: #ece9e5;
      }

      .st14 {
        fill: #302c35;
      }

      .st15 {
        clip-path: url(#clippath);
      }
    </style>
    <clipPath id="clippath">
      <rect class="st0" x="175.57" y="441.48" width="784.86" height="814.19"/>
    </clipPath>
    <clipPath id="clippath-1">
      <rect class="st0" x="438.06" y="691.91" width="72.58" height="159.65"/>
    </clipPath>
    <clipPath id="clippath-2">
      <rect class="st0" x="175.57" y="441.48" width="784.86" height="814.19"/>
    </clipPath>
    <clipPath id="clippath-3">
      <rect class="st0" x="633.7" y="975.49" width="28.59" height="39.22"/>
    </clipPath>
    <clipPath id="clippath-4">
      <rect class="st0" x="175.57" y="441.48" width="784.86" height="814.19"/>
    </clipPath>
    <clipPath id="clippath-5">
      <rect class="st0" x="175.57" y="441.48" width="784.86" height="814.19"/>
    </clipPath>
    <clipPath id="clippath-6">
      <rect class="st0" x="705.63" y="1058.06" width="27.5" height="37.12"/>
    </clipPath>
    <clipPath id="clippath-7">
      <rect class="st0" x="175.57" y="441.48" width="784.86" height="814.19"/>
    </clipPath>
    <clipPath id="clippath-8">
      <rect class="st0" x="175.57" y="441.48" width="784.86" height="814.19"/>
    </clipPath>
  </defs>
  <rect class="st13" x="419.32" y="643.73" width="372.63" height="481.99"/>
  <rect class="st13" x="481.09" y="535.12" width="247.41" height="195.47"/>
  <rect class="st12" x="432.64" y="890.13" width="52.15" height="225.15"/>
  <rect class="st12" x="775.75" y="714.5" width="23.97" height="173.31"/>
  <rect class="st12" x="495.93" y="648.12" width="210.12" height="11.81"/>
  <rect class="st14" x="740.98" y="674.45" width="50.97" height="44.89"/>
  <rect class="st14" x="604.28" y="1109.86" width="136.7" height="15.86"/>
  <rect class="st14" x="419.34" y="1109.86" width="113.35" height="15.86"/>
  <rect class="st14" x="740.98" y="883.04" width="50.97" height="242.68"/>
  <rect class="st14" x="479.02" y="532.75" width="249.43" height="4.13"/>
  <rect class="st14" x="724.4" y="536.08" width="4.13" height="108.93"/>
  <rect class="st14" x="479.02" y="536.48" width="4.13" height="108.53"/>
  <rect class="st14" x="419.32" y="643.73" width="85.73" height="46.58"/>
  <rect class="st14" x="419.32" y="690.31" width="17.55" height="419.55"/>
  <rect class="st14" x="758.53" y="1054.17" width="22.62" height="71.55"/>
  <rect class="st14" x="781.15" y="1054.17" width="8.78" height="71.55"/>
  <rect class="st14" x="436.87" y="985.65" width="55.69" height="6.07"/>
  <rect class="st14" x="613.4" y="1103.11" width="132.74" height="8.48"/>
  <rect class="st14" x="613.4" y="968.43" width="6.41" height="55.02"/>
  <rect class="st14" x="618.46" y="968.43" width="120.83" height="5.4"/>
  <rect class="st14" x="733.9" y="968.43" width="11.21" height="134.67"/>
  <rect class="st14" x="618.46" y="973.83" width="115.43" height="1.35"/>
  <rect class="st14" x="613.4" y="1093.99" width="6.41" height="9.64"/>
  <rect class="st14" x="618.46" y="1101.75" width="115.43" height="1.35"/>
  <rect class="st14" x="732.88" y="973.83" width="1.01" height="127.92"/>
  <rect class="st14" x="621.16" y="908.69" width="119.82" height="8.1"/>
  <rect class="st14" x="613.4" y="908.69" width="7.76" height="59.74"/>
  <rect class="st14" x="702.17" y="643.73" width="89.78" height="46.58"/>
  <rect class="st12" x="789.92" y="1054.16" width="2.28" height="73.13"/>
  <path class="st3" d="M791.95,1054.16v-171.13M791.95,883.04h-33.41M758.53,1054.16h33.41M791.95,719.33v-44.89M758.53,719.33h33.41M783.17,719.33v1.01M783.17,882.02v1.01M783.17,883.04v-1.01M783.17,720.35v-1.01M777.77,719.33h5.4M783.17,883.04h-5.4M605.3,1125.72h135.69M532.05,1109.85h-95.18M419.99,1125.72h112.73M740.98,690.31v29.03M740.98,719.33h17.55M758.53,1125.72v-71.56M758.53,883.04h-17.55M621.16,916.79h119.82M740.98,916.79v51.64M740.98,968.43h-119.82M698.45,572.85l-13.16,1.01M685.29,573.86l-12.49,3.38M672.8,577.24l-11.81,5.74M660.99,582.97l-10.8,7.42M650.19,590.4l-9.45,9.45M640.74,599.85l-7.42,10.46M633.31,610.31l-5.74,12.15M627.57,622.46l-3.37,12.49M624.2,634.95l-1.01,13.16M698.45,648.12v-75.27M693.73,648.79v3.71M628.25,648.79h65.48M628.25,652.5v-3.71M693.73,652.5h-65.48M624.87,659.93h72.23M693.73,648.12h-65.48M693.73,654.53h-65.48M624.87,654.53v5.4M697.1,654.53v5.4M697.1,654.53h-72.23M701.15,648.12v11.81M693.73,648.12h7.42M693.73,654.53v-6.41M697.1,654.53h-3.37M697.1,659.93v-5.4M701.15,659.93h-4.05M624.87,654.53v5.4M628.25,654.53h-3.37M628.25,648.12v6.41M620.82,648.12h7.42M620.82,659.93v-11.81M624.87,659.93h-4.05M509.78,652.5h105.99M615.76,652.5v-3.71M615.76,648.79h-105.99M509.78,648.79v3.71M615.76,659.93h-105.99M509.78,648.12h105.99M615.76,659.93h4.05M619.81,659.93v-11.81M619.81,648.12h-4.05M615.76,648.12v11.81M506.06,659.93h3.71M509.78,659.93v-11.81M509.78,648.12h-3.71M506.06,648.12v11.81M483.11,544.16v99.57M724.44,643.73v-99.57M724.44,643.73h4.05M728.49,643.73v-110.81M728.49,532.75h-249.44M479.06,532.75v110.98M479.06,643.73h4.05M483.11,643.73v-106.85M483.15,536.88h241.33M724.44,536.88v106.85M702.17,674.44v15.87M702.17,690.31h38.82M436.87,690.31h68.18M505.05,690.31v-15.87M419.32,690.31v419.54M436.87,938.05h1.35M440.58,938.05h2.36M445.31,938.05h2.36M450.03,938.05h2.36M454.76,938.05h2.36M459.48,938.05h2.37M464.55,938.05h2.36M469.27,938.05h2.36M474,938.05h2.36M478.72,938.05h2.36M483.45,938.05h1.35M484.8,938.05v-1.35M484.8,934.34v-2.36M484.8,929.61v-2.36M484.8,924.89v-2.7M484.8,919.83v-2.36M484.8,915.1v-2.36M484.8,910.38v-2.36M484.8,905.65v-2.36M484.8,900.93v-2.36M484.8,896.2v-2.7M484.8,891.14v-1.01M484.8,890.12h-1.35M481.09,890.12h-2.36M476.36,890.12h-2.36M471.64,890.12h-2.36M466.91,890.12h-2.36M461.85,890.12h-2.37M457.12,890.12h-2.36M452.4,890.12h-2.36M447.67,890.12h-2.36M442.95,890.12h-2.36M438.22,890.12h-1.35M436.87,890.12v1.01M436.87,893.5v2.7M436.87,898.56v2.36M436.87,903.29v2.36M436.87,908.01v2.36M436.87,912.74v2.36M436.87,917.47v2.36M436.87,922.19v2.7M436.87,927.25v2.36M436.87,931.98v2.36M436.87,936.7v1.35M436.87,985.64h1.35M440.58,985.64h2.36M445.31,985.64h2.36M450.03,985.64h2.36M454.76,985.64h2.36M459.48,985.64h2.37M464.55,985.64h2.36M469.27,985.64h2.36M474,985.64h2.36M478.72,985.64h2.36M483.45,985.64h1.35M484.8,985.64v-1.01M484.8,982.27v-2.36M484.8,977.21v-2.36M484.8,972.48v-2.36M484.8,967.76v-2.36M484.8,963.03v-2.36M484.8,958.3v-2.36M484.8,953.58v-2.36M484.8,948.52v-2.36M484.8,943.79v-2.36M484.8,939.07v-1.01M484.8,938.05h-1.35M481.09,938.05h-2.36M476.36,938.05h-2.36M471.64,938.05h-2.36M466.91,938.05h-2.36M461.85,938.05h-2.37M457.12,938.05h-2.36M452.4,938.05h-2.36M447.67,938.05h-2.36M442.95,938.05h-2.36M438.22,938.05h-1.35M436.87,938.05v1.01M436.87,941.43v2.36M436.87,946.15v2.36M436.87,951.22v2.36M436.87,955.94v2.36M436.87,960.67v2.36M436.87,965.39v2.36M436.87,970.12v2.36M436.87,974.84v2.36M436.87,979.91v2.36M436.87,984.63v1.01M621.16,916.79h119.82M740.98,916.79v51.64M740.98,968.43h-119.82M781.15,1054.16h-22.62M758.53,1054.16v71.56M781.15,1125.72v-71.56M789.92,1054.16h-8.77M781.15,1054.16v71.56M789.92,1125.72v-71.56M601.92,1043.02l-13.16,1.35M588.76,1044.37l-12.49,3.71M576.27,1048.09l-11.48,6.42M564.79,1054.5l-10.12,8.1M554.67,1062.6l-8.1,10.13M546.57,1072.73l-6.07,11.48M540.49,1084.2l-4.05,12.49M536.44,1096.69l-1.02,13.16"/>
  <path class="st3" d="M532.73,1109.86v15.86M604.28,1125.72v-15.86M601.92,1109.86v-66.83M535.43,1109.86h66.5M605.3,1109.86h-1.01M532.73,1109.86h-.68M436.87,991.72h55.69M492.56,991.72v-6.08M492.56,985.64h-55.69M740.98,719.33v-29.03M740.98,690.31h-38.82M702.17,690.31v-32.4M702.17,657.9h-1.01M620.82,657.9h-1.01M506.06,657.9h-1.01M505.05,657.9v32.4M436.87,690.31v295.34M436.87,991.72v118.13M509.1,1109.86h23.63M604.28,1109.86h9.11M613.4,908.69h127.59M740.98,908.69v-25.65M740.98,883.04h36.79M777.77,883.04v-1.01M777.77,720.35v-1.01M777.77,719.33h-36.79M723.43,1125.72h-119.15M605.3,1109.86h-1.01M532.73,1109.86h-.68M532.73,1125.72h-113.41M436.87,1040.66v47.93M436.87,993.07v95.52M613.4,1104.79v5.07"/>
  <path class="st3" d="M613.4,1093.99v10.8M613.4,968.43v55.02M739.29,968.43h-118.14M684.28,1091.63l-1.35-12.83M682.93,1078.8l-3.71-12.49M679.21,1066.32l-6.08-11.47M673.14,1054.84l-8.1-9.79M665.04,1045.05l-10.13-8.1M654.91,1036.95l-11.14-6.07M643.77,1030.88l-12.49-3.71M631.28,1027.16l-12.83-1.35M619.81,1023.45h-6.41M613.4,1093.99h6.41M618.46,1091.63h65.82M618.46,1025.81v65.82"/>
  <path class="st3" d="M702.84,975.18h1.69M699.8,975.18h1.69M699.8,975.18h4.73M699.8,975.18h1.69M702.84,975.18h1.69"/>
  <path class="st3" d="M619.81,975.18h113.07M619.81,1023.45v-48.27M619.81,1101.75v-7.76M732.88,1101.75h-113.07M732.88,975.18v126.57"/>
  <path class="st3" d="M672.8,975.18h20.93M698.45,975.18h3.04M702.84,975.18h3.04M710.61,975.18h20.92M419.32,916.79v-8.1M740.98,908.69h-8.1M732.88,908.69v8.1M732.88,916.79h8.1M684.95,908.69h-63.79M621.16,916.79h63.79M684.95,916.79v-8.1M684.95,908.69h47.93M732.88,916.79h-47.93M732.88,908.69v8.1M684.95,916.79v-8.1M613.4,908.69v59.74M621.16,908.69h-7.76M783.17,883.04v-1.01M783.17,720.35v-1.01M783.17,643.73h8.77M787.56,879.32l1.35-2.36M790.26,874.94l1.35-2.03M792.62,870.55l1.35-2.03M794.99,866.5l1.35-2.03M797.35,862.45l1.35-2.02M799.71,858.4l1.35-2.36M802.08,854.01l1.35-2.02M804.78,849.96l1.01-2.03M807.14,845.91l1.01-2.02M809.5,841.52l1.01-2.03M811.86,837.47l1.01-2.02M814.23,833.42l1.01-2.03M816.59,829.37l1.01-2.02M818.95,824.98l1.35-2.02M821.31,820.93l1.35-2.02M823.68,816.88l1.69-2.7M787.56,804.05l1.69.34M791.61,804.39l2.36.33M796.34,805.07h2.37M801.06,805.4l2.36.68M805.79,806.75l2.36.68M810.51,807.77l2.36.68M814.9,809.46l2.36,1.01M819.29,811.48l2.03,1.01M823.68,813.51l1.69.68M783.17,724.4h3.71M783.17,800.34v-75.94M786.89,800.34h-3.71M786.89,724.4v75.94M786.89,874.6h-3.71M786.89,809.12v65.48M783.17,809.12h3.71M783.17,874.6v-65.48M775.75,805.74v72.23M775.75,805.74v72.23M775.75,724.4v75.94M787.56,877.97v-72.23M787.56,874.6v-65.48M787.56,800.34v-75.94M781.15,805.74h-5.4M781.15,877.97h-5.4M781.15,874.6v-65.48M781.15,877.97v-72.23M787.56,724.4h-11.81M787.56,720.35v4.05M775.75,720.35h11.81M775.75,724.4v-4.05M787.56,882.02h-11.81M787.56,874.6v7.43M781.15,874.6h6.41M781.15,877.97v-3.38"/>
  <path class="st3" d="M775.75,877.97h5.4M775.75,882.02v-4.05M781.15,805.74h-5.4M781.15,809.12v-3.38M787.56,809.12h-6.41M787.56,800.34v8.78M775.75,800.34h11.81M775.75,805.74v-5.4M787.56,804.05v75.27M787.56,880v-76.28M787.56,879.32v-75.27M787.56,877.97v-72.23M787.56,805.74v72.23M787.56,803.72v76.28M787.56,809.12v65.48M787.56,874.6v-65.48M505.05,674.44v-30.72M505.05,643.73h-85.73M791.95,674.44v-30.72M791.95,643.73h-89.78M702.17,643.73v30.72M702.17,652.5v-8.78M702.17,652.5h-1.01M620.82,652.5h-1.01M506.06,652.5h-1.01M505.05,657.9v-5.4M702.17,652.5v5.4M505.05,643.73v8.78M505.05,652.5h1.01M619.81,652.5h1.01M701.15,652.5h1.01"/>
  <path class="st3" d="M419.32,1125.72v-481.99M789.92,1125.72h-66.49"/>
  <g class="st15">
    <path class="st2" d="M69.3,1117.96h6.07M92.93,1197.28l16.2-7.09M104.74,1172.64l4.38,17.55M132.42,1201.33l-27.68-28.69M132.42,1201.33l-39.49-4.05M132.42,1201.33l-23.29-11.14M69.3,878.65h6.07M69.3,1038.3h6.07M69.3,958.64h6.07M69.3,878.65v239.31M1195.63,418.94H11.92"/>
    <path d="M90.69,469.85c-.43.28-.75.67-.96,1.17-.21.5-.32,1.11-.32,1.85,0,.58.11,1.1.32,1.57.21.47.5.82.89,1.07.38.25.78.37,1.21.37s.81-.11,1.15-.34c.33-.22.61-.58.82-1.05.14-.33.32-.92.51-1.8.19-.88.38-1.42.57-1.62.19-.21.42-.32.72-.32.33,0,.62.15.85.45.23.3.36.77.36,1.42s-.13,1.1-.39,1.42c-.26.32-.64.51-1.16.56l.08,1.03c.47-.02.9-.15,1.27-.4.37-.25.66-.6.85-1.06.19-.46.29-.99.29-1.6,0-.55-.09-1.04-.27-1.49-.18-.45-.45-.79-.81-1.02-.35-.23-.74-.35-1.14-.35-.37,0-.71.09-1,.29-.3.19-.55.48-.75.87-.16.3-.33.82-.5,1.57-.18.75-.31,1.23-.39,1.45-.13.34-.29.59-.48.73-.19.15-.41.22-.66.22s-.48-.08-.69-.23c-.21-.16-.38-.39-.49-.7-.12-.32-.18-.68-.18-1.09,0-.46.08-.88.24-1.25.16-.37.37-.64.62-.82.26-.18.59-.29.99-.34l-.09-1.02c-.54.02-1.02.16-1.45.45M89.55,478.56h2.79l1.28,1.33-4.08,2.9v1.42l4.8-3.56,3.26,3.41v-1.46l-4-4.04h4v-1.08h-8.06v1.08Z"/>
    <path d="M95.22,488.08h-.92v5.37h.92v-5.37ZM92.77,488.08h-.92v5.37h.92v-5.37Z"/>
    <path d="M90.69,498.2c-.43.28-.75.67-.96,1.17-.21.5-.32,1.11-.32,1.85,0,.58.1,1.1.31,1.57.21.47.51.82.89,1.07.38.25.78.37,1.22.37s.81-.11,1.14-.34c.33-.23.61-.58.82-1.05.15-.33.32-.92.51-1.8.2-.88.39-1.42.57-1.62.19-.21.42-.32.71-.32.34,0,.62.15.86.45.23.3.36.77.36,1.43s-.13,1.1-.39,1.42-.64.51-1.15.56l.08,1.03c.47-.02.9-.15,1.27-.4.38-.25.66-.61.85-1.06.19-.46.29-.99.29-1.6,0-.55-.09-1.04-.28-1.49-.18-.45-.45-.79-.8-1.02-.35-.23-.73-.35-1.14-.35-.37,0-.71.1-1,.29-.3.19-.55.48-.75.87-.16.3-.32.82-.5,1.57-.18.75-.31,1.23-.39,1.45-.13.34-.29.59-.48.73-.19.15-.41.22-.66.22s-.48-.07-.69-.23c-.21-.16-.38-.39-.5-.7-.12-.32-.18-.68-.18-1.09,0-.46.08-.88.24-1.25.16-.37.37-.64.63-.82.26-.18.59-.29.99-.34l-.09-1.02c-.54.01-1.02.16-1.45.45"/>
    <path d="M89.55,506.42h2.31l.67.71-2.98,1.95v1.23l3.67-2.48,2.16,2.26v-1.3l-2.38-2.37h4.6v-1h-8.06v1ZM89.55,515.54v1.04c.22-.12.46-.21.7-.25.25-.05.83-.07,1.75-.07h1.32c.44,0,.74-.02.91-.05.27-.06.49-.16.67-.31.18-.15.33-.38.44-.69.12-.31.18-.72.18-1.23s-.07-.95-.21-1.33c-.14-.38-.33-.68-.59-.88-.26-.21-.59-.35-1-.44l-.13.98c.42.11.7.27.87.5.16.22.25.57.25,1.04,0,.5-.11.88-.34,1.14-.16.19-.45.28-.85.28-.03,0-.12,0-.26,0-.13-.38-.25-.98-.34-1.78-.05-.39-.09-.69-.15-.89-.07-.27-.18-.5-.32-.72-.14-.21-.33-.38-.57-.52-.24-.13-.5-.2-.78-.2-.49,0-.89.17-1.2.52-.31.35-.47.85-.47,1.49,0,.39.07.76.19,1.1.13.34.35.7.66,1.07-.27.03-.51.1-.72.2M92.12,515.26c-.44,0-.77-.05-.99-.16-.29-.14-.52-.36-.68-.66-.17-.3-.25-.64-.25-1.03s.09-.68.27-.88c.18-.2.4-.31.66-.31.18,0,.33.05.47.14.14.09.25.22.33.39.07.17.14.46.2.87.1.73.23,1.27.38,1.63h-.36Z"/>
    <path d="M89.55,518.57h2.31l.67.71-2.99,1.95v1.23l3.67-2.48,2.16,2.25v-1.29l-2.37-2.37h4.6v-1h-8.06v1ZM90.4,525.05c0-.15.03-.26.07-.34.05-.08.11-.14.19-.17.08-.04.26-.05.55-.05h3.42v1.01h.77v-1.01h2.04l-.59-.99h-1.45v-.73h-.77v.73h-3.36c-.59,0-.98.04-1.17.12-.18.08-.33.22-.45.42-.11.2-.17.48-.17.84,0,.22.03.47.09.76l.88-.14c-.03-.18-.04-.33-.04-.44"/>
    <path d="M76.39,470.9h3.66v3.82h.95v-3.82h2.5v4.41h.95v-5.49h-8.06v1.08ZM77.53,476.6c-.43.28-.74.67-.96,1.17-.21.5-.32,1.11-.32,1.85,0,.58.1,1.1.31,1.57.21.46.51.82.89,1.07.38.25.79.37,1.22.37s.81-.11,1.14-.34c.33-.23.61-.58.83-1.05.14-.33.32-.92.51-1.8.2-.88.39-1.42.57-1.62.19-.21.43-.32.72-.32.33,0,.62.15.85.45.23.3.35.77.35,1.43s-.13,1.1-.39,1.42c-.26.32-.64.51-1.15.56l.08,1.03c.47-.02.9-.15,1.27-.4.38-.25.66-.61.85-1.06.19-.46.29-.99.29-1.6,0-.55-.09-1.04-.27-1.49-.19-.45-.45-.79-.81-1.02-.35-.23-.73-.35-1.14-.35-.37,0-.7.1-1,.29-.3.19-.55.48-.75.87-.16.3-.32.82-.5,1.57-.18.75-.31,1.23-.39,1.45-.13.34-.29.59-.48.73-.19.15-.41.22-.66.22s-.48-.07-.69-.23c-.21-.16-.38-.39-.5-.7-.12-.32-.18-.68-.18-1.09,0-.46.08-.88.24-1.25.16-.37.37-.64.63-.82.26-.18.59-.29.99-.34l-.09-1.02c-.54.01-1.02.16-1.45.45"/>
    <path d="M82.05,487.07h-.92v5.37h.92v-5.37ZM79.6,487.07h-.92v5.37h.92v-5.37Z"/>
    <polygon points="76.39 498.23 80.05 498.23 80.05 502.05 81 502.05 81 498.23 83.5 498.23 83.5 502.65 84.45 502.65 84.45 497.16 76.39 497.16 76.39 498.23"/>
    <path d="M77.04,504.46c-.53.51-.79,1.18-.79,2,0,.51.12.99.36,1.43.24.44.57.76,1,.99.43.23,1.02.34,1.77.34.92,0,1.65-.26,2.18-.77.53-.52.79-1.18.79-1.99,0-.73-.22-1.34-.65-1.85-.52-.61-1.32-.91-2.4-.91-.98,0-1.74.25-2.26.76M80.98,505.22c.37.33.55.74.55,1.24s-.18.9-.56,1.24c-.37.33-.92.5-1.64.5-.77,0-1.34-.16-1.71-.49-.38-.33-.56-.75-.56-1.24s.19-.91.56-1.24c.37-.33.93-.49,1.68-.49s1.31.17,1.68.49M76.39,511.13h3.05c.42,0,.81.06,1.16.17.23.07.41.2.54.37.13.18.2.37.2.59,0,.24-.07.49-.21.73l.92.34c.21-.35.32-.69.32-1.03,0-.23-.07-.45-.2-.64-.13-.19-.41-.4-.82-.63h.89v-.9h-5.84v1Z"/>
    <path d="M77.36,517.27c-.19-.26-.29-.57-.29-.94,0-.49.17-.9.51-1.23.34-.33.83-.51,1.48-.55v4.39c.11,0,.2,0,.26,0,.96,0,1.71-.25,2.24-.75.53-.5.8-1.14.8-1.93s-.27-1.47-.81-1.99c-.54-.51-1.31-.77-2.29-.77s-1.69.25-2.21.76c-.53.51-.79,1.19-.79,2.05,0,.68.16,1.24.49,1.69.33.44.79.74,1.39.9l.13-1.03c-.42-.15-.72-.35-.91-.62M81.09,515.13c.31.31.46.7.46,1.16,0,.51-.19.92-.57,1.24-.25.21-.61.33-1.1.38v-3.29c.51.03.91.21,1.22.52M76.73,520.64c-.31.4-.47.99-.47,1.75,0,.46.08.88.24,1.24.16.37.38.65.67.84.29.19.6.29.93.29s.62-.08.84-.24c.23-.16.4-.38.52-.66.12-.28.27-.77.46-1.48.13-.49.22-.78.25-.88.07-.18.16-.3.26-.38.1-.08.22-.12.35-.12.2,0,.38.1.53.29.15.2.23.52.23.98,0,.39-.08.69-.25.9-.17.21-.4.34-.7.39l.13.97c.38-.06.68-.18.9-.34.23-.17.4-.42.54-.77.13-.35.2-.76.2-1.22,0-.31-.04-.6-.12-.87-.08-.27-.18-.48-.29-.63-.14-.21-.33-.37-.55-.49-.22-.12-.46-.18-.72-.18-.29,0-.55.07-.79.22-.23.15-.42.36-.55.64-.14.28-.29.79-.48,1.52-.14.54-.25.89-.33,1.02-.13.2-.31.29-.53.29-.25,0-.47-.11-.65-.33-.19-.22-.28-.56-.28-1.02s.1-.81.31-1.06c.21-.25.51-.41.9-.47l-.16-.99c-.62.11-1.09.37-1.4.77M84.45,526.02h-8.06v1h8.06v-1ZM76.39,532.7v1.04c.22-.13.46-.21.7-.26.24-.04.82-.06,1.74-.06h1.32c.44,0,.75-.02.91-.05.27-.06.5-.17.67-.31.18-.15.33-.38.44-.69.12-.31.18-.72.18-1.22s-.07-.95-.2-1.34c-.14-.38-.33-.68-.59-.88-.25-.21-.59-.35-1-.44l-.13.98c.41.11.7.27.86.5.17.22.25.57.25,1.04,0,.5-.11.88-.33,1.14-.17.19-.45.28-.85.28-.04,0-.12,0-.26,0-.13-.38-.24-.98-.34-1.78-.05-.39-.1-.69-.15-.89-.07-.27-.18-.5-.32-.72-.14-.21-.33-.38-.57-.52-.23-.13-.5-.2-.78-.2-.49,0-.89.17-1.2.52s-.47.85-.47,1.49c0,.39.06.76.19,1.1.13.34.35.7.66,1.07-.28.03-.51.1-.72.2M78.96,532.42c-.44,0-.77-.06-.99-.16-.29-.14-.52-.36-.68-.66-.16-.3-.25-.64-.25-1.03s.09-.68.26-.88c.18-.2.4-.3.66-.3.17,0,.33.04.47.14.14.09.25.22.32.39.08.17.14.46.2.87.1.72.22,1.27.37,1.63h-.36ZM83.01,530.33c-.2.2-.29.43-.29.71s.1.5.29.7c.19.2.43.3.71.3s.52-.1.71-.3.29-.43.29-.7-.1-.5-.29-.7-.42-.3-.69-.3c-.29,0-.54.1-.74.29M84.15,530.63c.11.12.18.25.18.41s-.06.3-.18.42c-.12.11-.26.17-.42.17s-.31-.06-.42-.17c-.12-.12-.18-.25-.18-.41s.06-.3.18-.41.26-.18.44-.18c.16,0,.3.06.42.18M77.36,538.49c-.19-.26-.29-.57-.29-.94,0-.49.17-.9.51-1.23.34-.33.83-.51,1.48-.55v4.4c.11,0,.2,0,.26,0,.96,0,1.71-.25,2.24-.75.53-.5.8-1.14.8-1.93s-.27-1.47-.81-1.99c-.54-.51-1.31-.76-2.29-.76s-1.69.25-2.21.76c-.53.5-.79,1.19-.79,2.05,0,.68.16,1.25.49,1.69.33.44.79.74,1.39.9l.13-1.03c-.42-.15-.72-.36-.91-.62M81.09,536.34c.31.31.46.7.46,1.16,0,.5-.19.92-.57,1.24-.25.21-.61.33-1.1.38v-3.29c.51.04.91.21,1.22.52"/>
    <path d="M77.23,543.27c0-.15.02-.26.07-.34.05-.08.11-.14.19-.17.08-.04.26-.05.55-.05h3.41v1.01h.77v-1.01h2.04l-.59-1h-1.45v-.73h-.77v.73h-3.36c-.59,0-.98.04-1.17.12-.19.08-.33.22-.45.42-.12.2-.17.48-.17.84,0,.22.03.47.09.75l.88-.14c-.03-.18-.04-.33-.04-.44M76.73,547.97c-.32.4-.47.99-.47,1.75,0,.46.08.88.24,1.24.16.36.38.64.68.84.29.2.6.29.93.29s.62-.08.85-.24c.23-.16.4-.38.52-.66.12-.28.27-.77.46-1.48.14-.49.22-.78.25-.88.07-.17.16-.3.27-.38.1-.08.21-.12.35-.12.2,0,.38.1.53.3s.23.52.23.98c0,.39-.08.69-.25.9-.17.21-.4.34-.7.38l.13.98c.38-.07.68-.18.9-.35.22-.17.4-.43.54-.77.13-.35.2-.76.2-1.22,0-.31-.04-.6-.12-.86-.08-.27-.18-.48-.29-.63-.15-.21-.33-.37-.55-.49-.22-.12-.46-.18-.72-.18-.28,0-.55.07-.78.22-.23.15-.42.36-.55.65-.13.28-.29.79-.48,1.52-.14.54-.25.88-.34,1.02-.13.2-.31.29-.53.29-.25,0-.47-.11-.65-.33-.19-.22-.28-.56-.28-1.02s.1-.81.32-1.06c.21-.25.51-.41.9-.46l-.15-.99c-.62.11-1.09.36-1.4.77"/>
    <path d="M76.39,554.69h2.31l.67.7-2.98,1.95v1.23l3.67-2.48,2.16,2.25v-1.29l-2.38-2.36h4.6v-1h-8.06v1ZM76.39,563.47v1.04c.22-.12.46-.21.7-.25.25-.05.83-.07,1.75-.07h1.32c.44,0,.74-.02.91-.05.27-.06.5-.16.67-.31.18-.15.33-.38.45-.69.12-.31.18-.72.18-1.23s-.07-.95-.21-1.33-.33-.68-.59-.88c-.25-.21-.59-.35-1-.44l-.13.98c.41.11.7.27.86.5.16.22.25.57.25,1.04,0,.5-.11.88-.33,1.14-.17.19-.45.28-.85.28-.04,0-.13,0-.26,0-.14-.38-.25-.98-.35-1.78-.05-.39-.09-.69-.15-.89-.07-.27-.18-.5-.32-.72-.14-.21-.33-.38-.57-.52-.23-.13-.49-.2-.78-.2-.49,0-.89.17-1.2.52-.31.35-.47.85-.47,1.49,0,.39.07.76.2,1.1.13.34.35.7.66,1.07-.27.03-.51.1-.72.2M78.96,563.18c-.44,0-.77-.05-.99-.16-.29-.14-.52-.36-.68-.66-.17-.3-.25-.64-.25-1.03s.09-.68.27-.88c.18-.2.4-.31.66-.31.17,0,.33.05.47.14.14.09.25.22.32.39.07.17.14.46.2.87.1.73.23,1.27.38,1.63h-.36Z"/>
    <path d="M77.12,566.42c-.58.39-.86.94-.86,1.64s.27,1.3.82,1.8c.55.5,1.32.75,2.32.75.42,0,.82-.06,1.19-.18.37-.12.68-.28.95-.49.26-.21.47-.48.61-.8.14-.32.22-.67.22-1.03,0-.65-.26-1.19-.79-1.61h2.88v-1h-8.06v.93h.73ZM80.98,566.88c.38.32.56.7.56,1.13s-.18.8-.54,1.11c-.36.31-.93.46-1.69.46s-1.3-.16-1.68-.48c-.38-.32-.56-.7-.56-1.13,0-.53.25-.96.76-1.28.31-.19.82-.29,1.52-.29s1.25.16,1.63.48"/>
    <path d="M77.42,877.22c-.56.45-.83,1.06-.83,1.85,0,.6.16,1.09.48,1.48.31.39.76.68,1.35.88.58.2,1.34.29,2.29.29.8,0,1.44-.06,1.91-.18.47-.12.87-.29,1.2-.5.33-.21.58-.49.76-.81.18-.33.26-.71.26-1.15,0-.59-.16-1.08-.47-1.47-.31-.39-.76-.69-1.34-.88-.58-.2-1.35-.29-2.3-.29-1.51,0-2.6.27-3.27.8M83.42,877.96c.39.28.58.64.58,1.1s-.22.85-.65,1.17c-.44.31-1.32.47-2.65.47s-2.2-.16-2.64-.47c-.44-.31-.66-.7-.66-1.16s.22-.84.65-1.16c.44-.31,1.32-.47,2.64-.47s2.23.17,2.72.52M77.68,1030.92c.18.11.36.25.53.42.18.17.52.55,1.02,1.15.6.72,1.07,1.23,1.42,1.54.35.31.67.53.98.66.31.13.63.2.95.2.64,0,1.17-.23,1.6-.68.43-.46.64-1.07.64-1.86s-.2-1.39-.6-1.85-.97-.72-1.73-.79l-.1,1.03c.5,0,.9.15,1.19.44.29.29.43.68.43,1.15,0,.46-.14.83-.4,1.11-.27.28-.6.42-.99.42s-.77-.16-1.19-.47c-.42-.31-.99-.91-1.71-1.8-.46-.57-.87-1-1.22-1.31-.35-.3-.71-.52-1.07-.66-.22-.08-.45-.12-.69-.11v5.38h.95v-3.99Z"/>
    <path d="M76.73,1037.01h3.03c.53,0,.94.05,1.22.16.29.11.5.28.64.52.15.24.22.5.22.78,0,.37-.11.64-.33.8-.22.16-.55.25-.99.25h-3.79v1h3.39c.6,0,1.04.14,1.31.41.27.28.41.62.41,1.04,0,.23-.05.43-.16.6-.11.17-.25.29-.42.35-.18.07-.46.1-.85.1h-3.68v.99h4.01c.66,0,1.16-.16,1.48-.47.32-.32.48-.76.48-1.35,0-.74-.34-1.35-1.02-1.82.32-.11.57-.31.75-.59.18-.28.27-.64.27-1.08,0-.39-.08-.74-.26-1.05-.17-.31-.41-.55-.69-.74h.82v-.89h-5.84v1Z"/>
    <path d="M84.82,956.13v-.64c-.35-.17-.71-.47-1.08-.89-.37-.42-.68-.9-.94-1.46h-.96c.11.31.29.66.51,1.05.23.39.46.71.68.95h-6.3v1h8.09ZM76.73,960.05h3.03c.53,0,.94.05,1.22.16.29.11.5.28.64.52.15.24.22.5.22.78,0,.37-.11.63-.33.8-.22.16-.55.25-.99.25h-3.79v1h3.39c.6,0,1.04.14,1.31.41.27.28.41.62.41,1.03,0,.23-.05.43-.16.6-.11.17-.25.28-.42.35-.18.07-.46.1-.85.1h-3.68v.99h4.01c.66,0,1.16-.16,1.48-.47.32-.32.48-.76.48-1.35,0-.75-.34-1.36-1.02-1.82.32-.12.57-.31.75-.59.18-.28.27-.64.27-1.07,0-.39-.08-.74-.26-1.05-.17-.31-.41-.55-.69-.74h.82v-.89h-5.84v1Z"/>
    <path d="M76.73,781.3h6.86l-6.86,2.35v.97l6.74,2.36h-6.74v1.04h8.06v-1.45l-5.61-1.94c-.57-.2-1-.34-1.29-.44.27-.08.66-.21,1.19-.39l5.71-1.92v-1.62h-8.06v1.04ZM76.73,793.32v1.04c.23-.13.46-.21.7-.25.24-.04.83-.06,1.74-.06h1.32c.44,0,.74-.02.91-.05.27-.06.49-.16.67-.31.18-.15.33-.38.44-.69s.18-.72.18-1.22-.07-.96-.2-1.34c-.14-.39-.34-.68-.59-.88-.25-.21-.59-.35-1-.44l-.13.98c.42.11.7.27.87.49.16.22.25.57.25,1.04,0,.5-.11.88-.34,1.14-.16.19-.45.28-.85.28-.03,0-.12,0-.26,0-.13-.38-.24-.98-.34-1.78-.05-.39-.1-.69-.15-.89-.08-.27-.18-.5-.33-.72-.14-.21-.33-.38-.57-.51-.24-.13-.5-.2-.78-.2-.49,0-.89.17-1.2.52-.32.35-.47.85-.47,1.49,0,.39.07.76.19,1.1.13.34.35.7.66,1.07-.27.03-.51.1-.72.2M79.29,793.04c-.44,0-.77-.06-.99-.16-.29-.14-.52-.36-.69-.66-.16-.3-.25-.64-.25-1.03s.09-.68.26-.89c.18-.2.39-.3.66-.3.17,0,.33.04.47.14.14.09.25.22.32.39.07.17.14.46.2.87.1.73.23,1.27.37,1.63h-.36ZM83.35,790.95c-.2.2-.29.43-.29.71s.09.5.29.7c.19.2.43.29.71.29s.52-.1.71-.29.29-.43.29-.7-.1-.5-.29-.7-.42-.3-.69-.3c-.29,0-.54.1-.73.3M84.49,791.25c.12.12.17.25.17.41s-.06.3-.17.42c-.12.11-.26.17-.42.17s-.31-.06-.43-.18c-.11-.12-.17-.25-.17-.41s.06-.3.17-.41c.12-.12.26-.18.44-.18.16,0,.3.06.42.18"/>
    <rect x="76.73" y="795.67" width="8.06" height="1"/>
    <path d="M84.82,804.92v-.65c-.35-.17-.71-.47-1.08-.89-.37-.42-.69-.9-.95-1.46h-.96c.12.31.29.66.51,1.05.23.39.46.7.68.95h-6.31v1h8.09ZM82.56,808.12h-1.13v1.14h1.13v-1.14ZM77.85,808.12h-1.13v1.14h1.13v-1.14Z"/>
    <path d="M77.2,811.4c-.41.47-.61,1.07-.61,1.81,0,.9.32,1.61.98,2.14.53.43,1.16.64,1.89.64s1.39-.24,1.88-.73c.49-.49.73-1.09.73-1.8,0-.54-.17-1.05-.5-1.54l2.16.44v3.25h.94v-4.05l-4.14-.79-.12.94c.23.15.42.35.57.61.14.26.21.55.21.87,0,.52-.16.94-.49,1.26-.33.32-.77.48-1.33.48-.59,0-1.07-.17-1.43-.5-.36-.33-.54-.74-.54-1.22,0-.4.13-.74.38-1.03.25-.28.63-.46,1.14-.54l-.09-1.05c-.68.07-1.22.34-1.63.8M77.42,817.82c-.56.45-.83,1.06-.83,1.85,0,.6.16,1.09.47,1.48.32.39.77.68,1.35.88.58.2,1.34.3,2.29.3.8,0,1.43-.06,1.9-.18.47-.12.87-.29,1.2-.51.33-.21.58-.49.76-.82.18-.33.26-.71.26-1.15,0-.59-.16-1.08-.47-1.47-.31-.39-.76-.68-1.34-.88-.58-.2-1.35-.3-2.3-.3-1.51,0-2.6.27-3.27.81M83.42,818.56c.38.27.58.64.58,1.1s-.22.86-.66,1.17-1.32.47-2.64.47-2.2-.15-2.64-.47c-.44-.31-.66-.7-.66-1.16s.22-.84.66-1.16c.44-.31,1.32-.47,2.64-.47s2.23.17,2.72.51"/>
    <polygon class="st12" points="76.73 1168.25 99.34 1179.38 92.59 1193.9 69.64 1182.76 76.73 1168.25"/>
    <polygon points="79.48 1173.99 90.83 1179.48 75.79 1181.6 74.84 1183.57 89.28 1190.56 90.17 1188.72 78.83 1183.23 93.86 1181.11 94.81 1179.14 80.37 1172.15 79.48 1173.99"/>
    <path d="M77.22,1110.13c-.42.47-.63,1.06-.63,1.78,0,.79.25,1.44.74,1.96.49.52,1.08.77,1.79.77.52,0,.95-.13,1.3-.4.35-.27.58-.64.68-1.12.17.37.4.65.68.84.29.19.61.28.95.28.36,0,.71-.1,1.04-.3.32-.2.58-.49.77-.86.19-.37.28-.78.28-1.23,0-.64-.18-1.18-.55-1.62-.36-.43-.88-.71-1.54-.83l-.18,1c.48.07.85.24,1.09.5s.36.58.36.97-.12.71-.36.96c-.24.25-.54.37-.9.37-.46,0-.79-.17-1.02-.51-.22-.34-.33-.72-.33-1.15,0-.04,0-.09,0-.16l-.87-.11c.07.28.11.51.11.7,0,.47-.15.84-.44,1.15-.29.3-.67.45-1.13.45s-.87-.16-1.2-.48c-.32-.32-.48-.72-.48-1.19,0-.4.12-.73.37-1.01.25-.28.65-.47,1.21-.59l-.13-1c-.67.07-1.22.34-1.64.81M76.73,1116.66h3.03c.53,0,.94.05,1.22.16.29.1.5.28.64.52.15.24.22.5.22.78,0,.37-.11.63-.33.8-.22.17-.55.24-.99.24h-3.79v1h3.39c.6,0,1.04.14,1.31.41.27.28.41.62.41,1.03,0,.23-.05.43-.16.6-.11.17-.25.28-.42.35-.18.07-.46.1-.85.1h-3.68v.99h4.01c.66,0,1.16-.16,1.48-.47.32-.31.48-.76.48-1.35,0-.75-.34-1.35-1.02-1.82.32-.11.57-.31.75-.59.18-.28.27-.64.27-1.08,0-.39-.08-.74-.26-1.05-.17-.31-.41-.55-.69-.74h.82v-.89h-5.84v1Z"/>
    <rect class="st12" x="1140.28" y="440.54" width="18.9" height="111.72"/>
    <path d="M1144.37,442.43c-.61.69-.92,1.59-.92,2.69,0,1.34.48,2.4,1.46,3.17.79.63,1.73.95,2.82.95s2.08-.36,2.8-1.09c.73-.72,1.09-1.61,1.09-2.66,0-.8-.25-1.56-.76-2.28l3.23.65v4.81h1.41v-6l-6.18-1.17-.18,1.39c.35.22.62.52.84.9.21.38.33.82.33,1.29,0,.77-.25,1.39-.73,1.87-.49.47-1.15.71-1.99.71-.89,0-1.6-.25-2.13-.74-.54-.49-.81-1.1-.81-1.81,0-.6.19-1.1.57-1.52.38-.42.95-.69,1.7-.8l-.13-1.55c-1.01.1-1.82.49-2.43,1.19M1145.33,451.53h-1.68v1.69h1.68v-1.69ZM1145.36,456.18c-.64.42-1.11,1-1.43,1.74-.32.74-.47,1.65-.47,2.74,0,.86.16,1.63.47,2.32.31.69.76,1.21,1.32,1.59.57.37,1.17.55,1.81.55s1.22-.17,1.71-.5c.49-.33.9-.85,1.22-1.56.22-.48.47-1.37.77-2.67.29-1.3.58-2.1.86-2.41.28-.31.63-.47,1.07-.47.5,0,.92.22,1.27.66.36.44.53,1.14.53,2.11s-.19,1.63-.58,2.1c-.39.47-.96.75-1.72.84l.12,1.53c.7-.03,1.34-.22,1.9-.59.56-.37.98-.89,1.27-1.58.29-.68.43-1.47.43-2.37,0-.81-.13-1.55-.41-2.21-.27-.67-.67-1.17-1.2-1.51-.53-.35-1.1-.52-1.71-.52-.55,0-1.05.14-1.5.42-.44.29-.82.71-1.12,1.29-.23.45-.49,1.22-.75,2.33-.27,1.11-.46,1.82-.59,2.15-.19.5-.43.87-.71,1.09-.28.22-.61.33-.99.33s-.72-.12-1.03-.34c-.31-.23-.56-.58-.74-1.04-.18-.47-.27-1.01-.27-1.61,0-.69.12-1.31.36-1.85.24-.55.55-.96.94-1.22.38-.26.88-.43,1.48-.5l-.13-1.51c-.81.02-1.52.24-2.16.66M1143.65,473.2v1.55c.33-.19.68-.31,1.04-.37.36-.06,1.23-.1,2.6-.1h1.97c.66,0,1.11-.02,1.36-.07.4-.09.74-.24,1-.46.26-.22.48-.56.66-1.03.17-.47.26-1.07.26-1.82s-.1-1.41-.31-1.98c-.21-.57-.5-1.01-.88-1.31-.38-.3-.88-.52-1.5-.65l-.2,1.45c.62.16,1.05.4,1.29.74.24.33.36.85.36,1.54,0,.75-.17,1.31-.5,1.69-.24.28-.67.42-1.27.42-.05,0-.18,0-.39,0-.2-.56-.37-1.45-.51-2.64-.07-.59-.14-1.03-.22-1.32-.11-.39-.27-.75-.48-1.06-.21-.32-.5-.57-.85-.76-.35-.2-.74-.29-1.17-.29-.73,0-1.33.26-1.8.77-.46.52-.7,1.26-.7,2.22,0,.58.1,1.12.29,1.63.19.51.52,1.04.98,1.59-.41.05-.77.14-1.07.3M1147.48,472.78c-.65,0-1.14-.08-1.47-.24-.44-.21-.77-.54-1.02-.98-.25-.45-.37-.95-.37-1.52s.13-1.01.39-1.31c.26-.3.59-.45.98-.45.26,0,.49.07.7.21.21.14.37.33.48.59.11.25.21.68.3,1.29.15,1.07.34,1.88.55,2.42h-.54ZM1155.68,476.63h-12.02v1.48h12.02v-1.48ZM1152.36,480.9h-1.68v1.69h1.68v-1.69ZM1145.33,480.9h-1.68v1.69h1.68v-1.69ZM1154.93,496.21c.53-.61.79-1.38.79-2.33,0-1.27-.46-2.29-1.38-3.04-1.05-.86-2.75-1.29-5.07-1.29-2.08,0-3.57.39-4.48,1.17-.91.78-1.36,1.79-1.36,3.02,0,.73.17,1.37.51,1.94.35.57.84,1.02,1.49,1.34.65.33,1.35.49,2.11.49,1.15,0,2.08-.35,2.81-1.04.73-.69,1.09-1.54,1.09-2.52,0-.57-.13-1.11-.39-1.62-.26-.52-.67-.95-1.21-1.31,1.2,0,2.13.15,2.78.42.65.27,1.15.64,1.49,1.11.26.35.39.77.39,1.24,0,.59-.21,1.08-.63,1.48-.26.24-.68.43-1.26.56l.12,1.47c.94-.12,1.67-.49,2.2-1.09M1149.43,491.95c.48.46.72,1.03.72,1.7s-.24,1.23-.72,1.68c-.48.44-1.13.66-1.96.66s-1.55-.22-2.05-.67c-.5-.45-.76-.99-.76-1.61,0-.43.12-.84.36-1.23.24-.39.6-.69,1.06-.91.46-.22.95-.32,1.46-.32.77,0,1.4.23,1.88.7M1145.33,499.9h-1.68v1.69h1.68v-1.69ZM1143.65,508.97c0,.77.07,1.42.2,1.95.13.53.33.97.6,1.32.26.35.64.65,1.12.89.48.24,1.01.36,1.57.36.7,0,1.31-.19,1.82-.59.51-.39.88-.95,1.09-1.68.28.57.65.99,1.1,1.27.46.28.94.42,1.45.42.55,0,1.08-.16,1.59-.48.51-.32.88-.75,1.12-1.31.24-.56.36-1.3.36-2.22v-4.52h-12.02v4.6ZM1154.26,505.97v2.41c0,.87-.06,1.48-.17,1.84-.11.35-.32.63-.62.82-.3.19-.65.29-1.05.29-.42,0-.77-.1-1.05-.31-.28-.21-.48-.51-.6-.92-.09-.31-.14-.81-.14-1.52v-2.61h3.63ZM1149.21,505.97v2.79c0,.77-.07,1.36-.2,1.76s-.37.73-.7.96c-.33.23-.72.35-1.17.35-.38,0-.72-.08-1.01-.24-.29-.16-.52-.36-.67-.61-.16-.25-.26-.55-.33-.92-.04-.21-.05-.57-.05-1.09v-3h4.13ZM1145.33,515.99h-1.68v1.69h1.68v-1.69ZM1144.37,521.12c-.61.69-.92,1.59-.92,2.69,0,1.34.48,2.4,1.46,3.17.79.64,1.73.96,2.82.96s2.08-.36,2.8-1.09c.73-.72,1.09-1.61,1.09-2.66,0-.8-.25-1.56-.76-2.28l3.23.65v4.81h1.41v-6l-6.18-1.17-.18,1.39c.35.22.62.52.84.91.21.38.33.81.33,1.29,0,.77-.25,1.39-.73,1.87-.49.47-1.15.71-1.99.71-.89,0-1.6-.25-2.13-.74-.54-.49-.81-1.1-.81-1.81,0-.59.19-1.1.57-1.52.38-.42.95-.69,1.7-.8l-.13-1.56c-1.01.1-1.82.49-2.43,1.19M1145.33,530.22h-1.68v1.69h1.68v-1.69ZM1155.73,539.74v-.95c-.52-.26-1.05-.7-1.61-1.32-.55-.62-1.03-1.34-1.41-2.17h-1.43c.17.46.43.98.77,1.56.34.58.68,1.05,1.02,1.4h-9.41v1.48h12.07Z"/>
    <path d="M1144.7,544.7c-.83.66-1.25,1.58-1.25,2.74,0,.88.24,1.61.71,2.19.47.58,1.14,1.01,2.01,1.31.86.29,2.01.43,3.41.43,1.19,0,2.14-.09,2.84-.27.7-.18,1.3-.43,1.79-.75.49-.32.86-.72,1.12-1.21.26-.49.39-1.05.39-1.7,0-.88-.23-1.61-.7-2.18-.47-.58-1.14-1.02-2.01-1.31-.87-.29-2.01-.44-3.44-.44-2.26,0-3.89.4-4.89,1.19M1153.65,545.8c.57.41.86.95.86,1.63s-.33,1.27-.98,1.73-1.97.69-3.95.69-3.28-.23-3.93-.69c-.66-.47-.99-1.04-.99-1.72s.33-1.25.98-1.72c.65-.46,1.97-.69,3.94-.69s3.33.25,4.06.76"/>
    <line class="st3" x1="621.16" y1="916.79" x2="621.16" y2="968.43"/>
    <line class="st3" x1="740.98" y1="916.79" x2="621.16" y2="968.43"/>
    <line class="st3" x1="621.16" y1="916.79" x2="740.98" y2="968.43"/>
  </g>
  <polygon class="st12" points="438.06 851.56 510.64 851.56 510.64 851.15 438.98 851.15 438.98 713.19 438.06 712.74 438.06 851.56"/>
  <polygon class="st12" points="438.98 851.15 510.64 851.15 510.64 748.65 494.72 740.78 454.91 721.08 438.98 713.19 438.98 851.15"/>
  <g class="st4">
    <path class="st12" d="M510.64,691.91v56.74l-15.92-7.87h0v-28.27c0-1.81-1.47-3.28-3.29-3.28h-33.25c-1.8,0-3.27,1.47-3.27,3.28v8.57l-15.93-7.88v-21.28h71.66Z"/>
    <polygon class="st12" points="494.72 740.77 494.72 740.78 454.91 721.08 494.72 740.77"/>
    <path class="st12" d="M494.72,712.51v28.26l-39.81-19.69v-8.56c0-1.81,1.47-3.28,3.28-3.28h33.24c1.82,0,3.29,1.47,3.29,3.28"/>
  </g>
  <polyline class="st1" points="438.98 713.19 438.98 691.91 510.64 691.91 510.64 748.65"/>
  <polyline class="st1" points="494.72 740.77 454.91 721.08 438.98 713.19 438.06 712.74 438.06 851.56 510.64 851.56 510.64 851.15 510.64 748.65 494.72 740.78"/>
  <line class="st1" x1="458.18" y1="709.23" x2="491.43" y2="709.23"/>
  <g class="st7">
    <path class="st1" d="M491.43,709.23c1.82,0,3.29,1.47,3.29,3.28"/>
    <path class="st1" d="M454.91,712.51c0-1.81,1.47-3.28,3.28-3.28"/>
  </g>
  <polyline class="st1" points="454.91 712.51 454.91 721.07 494.72 740.78 494.72 740.77 494.72 712.51"/>
  <g class="st5">
    <path class="st12" d="M662.3,975.51c-.01,7.71-.01,15.41-.02,23.11,0,8.9-6.41,16.09-14.31,16.09-7.9,0-14.28-7.21-14.27-16.11,0-7.71,0-15.41,0-23.11,9.53,0,19.06,0,28.59.02"/>
  </g>
  <g class="st6">
    <path class="st3" d="M662.3,975.51c-.01,7.71-.01,15.41-.02,23.11,0,8.9-6.41,16.09-14.31,16.09-7.9,0-14.28-7.21-14.27-16.11,0-7.71,0-15.41,0-23.11,9.53,0,19.06,0,28.59.02Z"/>
  </g>
  <rect class="st12" x="670.25" y="974.63" width="62.49" height="63.21"/>
  <polyline class="st3" points="732.74 974.63 732.74 1037.84 726.56 1037.84"/>
  <line class="st3" x1="732.74" y1="974.63" x2="670.74" y2="974.63"/>
  <line class="st3" x1="670.25" y1="975.67" x2="670.25" y2="1037.28"/>
  <polyline class="st3" points="670.25 975.67 670.25 974.63 670.75 974.63"/>
  <polyline class="st3" points="671.19 1037.84 670.25 1037.84 670.25 1037.28"/>
  <line class="st3" x1="671.19" y1="1037.84" x2="726.56" y2="1037.84"/>
  <line class="st3" x1="702.44" y1="974.63" x2="702.44" y2="992.18"/>
  <g class="st11">
    <path class="st3" d="M706.29,992.1c0-2.17-1.76-3.93-3.93-3.93s-3.93,1.76-3.93,3.93,1.76,3.93,3.93,3.93,3.93-1.76,3.93-3.93Z"/>
    <path class="st3" d="M706.29,992.1c0-2.17-1.76-3.93-3.93-3.93s-3.93,1.76-3.93,3.93,1.76,3.93,3.93,3.93,3.93-1.76,3.93-3.93Z"/>
  </g>
  <g class="st9">
    <path class="st12" d="M707.75,1058.67h15.49c.59,0,1.07.35,1.07.79v34.13c0,.43-.48.78-1.07.78h-15.49c-.59,0-1.06-.35-1.06-.78v-34.13c0-.44.47-.79,1.06-.79M715.22,1073.72c-1.55,0-2.8,1.26-2.8,2.81s1.25,2.8,2.8,2.8,2.81-1.25,2.81-2.8-1.26-2.81-2.81-2.81"/>
    <path class="st12" d="M726.93,1076.53c0-1.17.95-2.1,2.1-2.1s2.11.94,2.11,2.1-.95,2.1-2.11,2.1-2.1-.93-2.1-2.1"/>
    <path class="st12" d="M715.22,1075.02c.83,0,1.51.68,1.51,1.51s-.68,1.51-1.51,1.51-1.51-.68-1.51-1.51.68-1.51,1.51-1.51"/>
    <path class="st12" d="M716.73,1076.53c0-.83-.68-1.51-1.51-1.51s-1.51.68-1.51,1.51.68,1.51,1.51,1.51,1.51-.68,1.51-1.51M715.22,1073.72c1.55,0,2.81,1.26,2.81,2.81s-1.26,2.8-2.81,2.8-2.8-1.25-2.8-2.8,1.25-2.81,2.8-2.81"/>
    <path class="st12" d="M731.14,1076.53c0-1.17-.95-2.1-2.11-2.1s-2.1.94-2.1,2.1.95,2.1,2.1,2.1,2.11-.93,2.11-2.1M723.25,1058.67h-15.5c-.59,0-1.06.35-1.06.79v34.13c0,.43.47.79,1.06.79h15.5c.59,0,1.07-.35,1.07-.79v-34.13c0-.44-.48-.79-1.07-.79M706.69,1058.05h26.45v37.12h-26.45c-.59,0-1.06-.35-1.06-.79v-35.71c0-.35.47-.62,1.06-.62"/>
  </g>
  <g class="st8">
    <path class="st3" d="M729.03,1078.63c-1.16,0-2.1-.94-2.1-2.1s.95-2.1,2.1-2.1,2.11.93,2.11,2.1-.95,2.1-2.11,2.1Z"/>
    <path class="st3" d="M715.22,1079.33c-1.55,0-2.8-1.25-2.8-2.8s1.25-2.81,2.8-2.81,2.81,1.26,2.81,2.81-1.26,2.8-2.81,2.8Z"/>
    <path class="st3" d="M715.22,1078.04c-.83,0-1.51-.68-1.51-1.51s.68-1.51,1.51-1.51,1.51.68,1.51,1.51-.68,1.51-1.51,1.51Z"/>
    <path class="st3" d="M723.25,1058.67h-15.5c-.59,0-1.06.35-1.06.79v34.13c0,.43.47.78,1.06.78h15.5c.59,0,1.07-.35,1.07-.78v-34.13c0-.44-.48-.79-1.07-.79Z"/>
  </g>
  <line class="st3" x1="724.96" y1="1095.17" x2="733.14" y2="1095.17"/>
  <g class="st10">
    <path class="st3" d="M733.14,1058.05h-26.45c-.59,0-1.06.28-1.06.62v35.71c0,.44.47.79,1.06.79h8.38"/>
  </g>
  <line class="st3" x1="724.96" y1="1095.17" x2="715.07" y2="1095.17"/>
  <line class="st3" x1="733.14" y1="1095.17" x2="733.14" y2="1058.05"/>
  <polygon class="st12" points="702.44 833.93 706.16 840 711.56 844.73 712.23 845.06 711.89 845.74 710.88 846.75 709.53 847.09 707.84 846.41 706.16 845.4 705.82 845.4 705.48 845.4 705.14 845.4 704.47 845.4 704.13 845.74 711.56 849.45 719.64 850.8 719.67 850.8 727.76 849.45 735.18 845.74 735.18 845.4 734.85 845.4 734.17 845.4 733.83 845.4 733.5 845.4 733.16 845.4 731.47 846.41 729.78 847.09 728.43 846.75 727.42 845.74 727.42 845.06 727.76 844.73 733.16 840 736.87 833.93 702.44 833.93"/>
  <polygon class="st12" points="654.52 833.93 658.23 840 663.97 844.73 664.31 845.06 664.31 845.74 663.29 846.75 661.61 847.09 659.92 846.41 658.57 845.4 658.23 845.4 657.55 845.4 657.22 845.4 656.88 845.4 656.54 845.4 656.2 845.74 663.63 849.45 671.72 850.8 671.75 850.8 680.17 849.45 687.26 845.74 687.26 845.4 686.92 845.4 686.58 845.4 685.91 845.4 685.57 845.4 685.23 845.4 683.55 846.41 681.86 847.09 680.51 846.75 679.49 845.74 679.49 845.06 679.83 844.73 685.57 840 688.95 833.93 654.52 833.93"/>
  <polygon class="st12" points="736.87 770.13 702.44 770.13 688.94 770.13 654.51 770.13 648.1 770.13 648.1 833.93 654.51 833.93 688.94 833.93 702.44 833.93 736.87 833.93 743.62 833.93 743.62 770.13 736.87 770.13"/>
  <polygon class="st12" points="671.73 753.26 663.63 754.61 656.2 758.32 656.54 758.66 656.88 758.66 657.22 758.66 657.55 758.66 658.23 758.66 658.57 758.66 659.92 757.64 661.6 756.97 663.29 757.31 664.31 758.32 664.31 758.99 663.97 759.33 658.23 764.06 654.52 770.13 688.95 770.13 685.57 764.06 679.83 759.33 679.49 758.99 679.49 758.32 680.51 757.31 681.86 756.97 683.54 757.64 685.23 758.66 685.57 758.66 685.91 758.66 686.58 758.66 686.92 758.66 687.25 758.66 687.25 758.32 680.17 754.61 671.73 753.26"/>
  <polygon class="st12" points="719.66 753.26 711.56 754.61 704.13 758.32 704.47 758.66 705.14 758.66 705.48 758.66 705.82 758.66 706.16 758.66 707.84 757.64 709.53 756.97 710.88 757.31 711.89 758.32 712.23 758.99 711.56 759.33 706.16 764.06 702.44 770.13 736.87 770.13 733.16 764.06 727.76 759.33 727.42 758.99 727.42 758.32 728.43 757.31 729.78 756.97 731.47 757.64 733.16 758.66 733.5 758.66 733.83 758.66 734.17 758.66 734.85 758.66 735.18 758.66 735.18 758.32 727.76 754.61 719.66 753.26"/>
  <line class="st3" x1="733.16" y1="758.66" x2="733.5" y2="758.66"/>
  <line class="st3" x1="733.5" y1="758.66" x2="733.84" y2="758.66"/>
  <line class="st3" x1="734.85" y1="758.66" x2="734.17" y2="758.66"/>
  <line class="st3" x1="734.17" y1="758.66" x2="733.84" y2="758.66"/>
  <line class="st3" x1="735.19" y1="758.32" x2="735.19" y2="758.66"/>
  <line class="st3" x1="735.19" y1="758.66" x2="734.85" y2="758.66"/>
  <line class="st3" x1="727.42" y1="758.32" x2="728.44" y2="757.31"/>
  <line class="st3" x1="728.43" y1="757.31" x2="729.78" y2="756.97"/>
  <line class="st3" x1="729.78" y1="756.97" x2="731.47" y2="757.64"/>
  <line class="st3" x1="731.47" y1="757.64" x2="733.16" y2="758.66"/>
  <line class="st3" x1="727.76" y1="759.33" x2="727.42" y2="758.99"/>
  <line class="st3" x1="727.42" y1="758.99" x2="727.42" y2="758.32"/>
  <line class="st3" x1="727.76" y1="759.33" x2="733.16" y2="764.06"/>
  <line class="st3" x1="733.16" y1="764.06" x2="736.87" y2="770.13"/>
  <line class="st3" x1="706.16" y1="758.66" x2="705.82" y2="758.66"/>
  <line class="st3" x1="705.82" y1="758.66" x2="705.48" y2="758.66"/>
  <line class="st3" x1="704.47" y1="758.66" x2="705.15" y2="758.66"/>
  <line class="st3" x1="705.15" y1="758.66" x2="705.48" y2="758.66"/>
  <line class="st3" x1="704.13" y1="758.32" x2="704.47" y2="758.66"/>
  <line class="st3" x1="711.9" y1="758.32" x2="710.88" y2="757.31"/>
  <line class="st3" x1="710.88" y1="757.31" x2="709.53" y2="756.97"/>
  <line class="st3" x1="709.53" y1="756.97" x2="707.85" y2="757.64"/>
  <line class="st3" x1="707.85" y1="757.64" x2="706.16" y2="758.66"/>
  <line class="st3" x1="711.56" y1="759.33" x2="712.23" y2="758.99"/>
  <line class="st3" x1="712.23" y1="758.99" x2="711.9" y2="758.32"/>
  <line class="st3" x1="711.56" y1="759.33" x2="706.16" y2="764.06"/>
  <line class="st3" x1="706.16" y1="764.06" x2="702.45" y2="770.13"/>
  <line class="st3" x1="735.19" y1="758.32" x2="727.76" y2="754.61"/>
  <line class="st3" x1="727.76" y1="754.61" x2="719.66" y2="753.26"/>
  <line class="st3" x1="719.66" y1="753.26" x2="711.56" y2="754.61"/>
  <line class="st3" x1="711.56" y1="754.61" x2="704.13" y2="758.32"/>
  <line class="st3" x1="733.16" y1="845.4" x2="733.5" y2="845.4"/>
  <line class="st3" x1="733.5" y1="845.4" x2="733.84" y2="845.4"/>
  <line class="st3" x1="734.85" y1="845.4" x2="734.17" y2="845.4"/>
  <line class="st3" x1="734.17" y1="845.4" x2="733.84" y2="845.4"/>
  <line class="st3" x1="735.19" y1="845.74" x2="735.19" y2="845.4"/>
  <line class="st3" x1="735.19" y1="845.4" x2="734.85" y2="845.4"/>
  <line class="st3" x1="727.42" y1="845.74" x2="728.44" y2="846.75"/>
  <line class="st3" x1="728.43" y1="846.75" x2="729.78" y2="847.09"/>
  <line class="st3" x1="729.78" y1="847.09" x2="731.47" y2="846.42"/>
  <line class="st3" x1="731.47" y1="846.41" x2="733.16" y2="845.4"/>
  <line class="st3" x1="727.76" y1="844.73" x2="727.42" y2="845.06"/>
  <line class="st3" x1="727.42" y1="845.06" x2="727.42" y2="845.74"/>
  <line class="st3" x1="727.76" y1="844.73" x2="733.16" y2="840"/>
  <line class="st3" x1="733.16" y1="840" x2="736.87" y2="833.93"/>
  <line class="st3" x1="706.16" y1="845.4" x2="705.82" y2="845.4"/>
  <line class="st3" x1="705.82" y1="845.4" x2="705.48" y2="845.4"/>
  <line class="st3" x1="704.47" y1="845.4" x2="705.15" y2="845.4"/>
  <line class="st3" x1="705.15" y1="845.4" x2="705.48" y2="845.4"/>
  <line class="st3" x1="704.13" y1="845.74" x2="704.47" y2="845.4"/>
  <line class="st3" x1="711.9" y1="845.74" x2="710.88" y2="846.75"/>
  <line class="st3" x1="710.88" y1="846.75" x2="709.53" y2="847.09"/>
  <line class="st3" x1="709.53" y1="847.09" x2="707.85" y2="846.42"/>
  <line class="st3" x1="707.85" y1="846.41" x2="706.16" y2="845.4"/>
  <line class="st3" x1="711.56" y1="844.73" x2="712.23" y2="845.06"/>
  <line class="st3" x1="712.23" y1="845.06" x2="711.9" y2="845.74"/>
  <line class="st3" x1="711.56" y1="844.73" x2="706.16" y2="840"/>
  <line class="st3" x1="706.16" y1="840" x2="702.45" y2="833.93"/>
  <line class="st3" x1="735.19" y1="845.74" x2="727.76" y2="849.45"/>
  <line class="st3" x1="727.76" y1="849.45" x2="719.66" y2="850.8"/>
  <line class="st3" x1="719.66" y1="850.8" x2="711.56" y2="849.45"/>
  <line class="st3" x1="711.56" y1="849.45" x2="704.13" y2="845.74"/>
  <line class="st3" x1="743.62" y1="833.93" x2="743.62" y2="770.13"/>
  <line class="st3" x1="658.57" y1="758.66" x2="658.23" y2="758.66"/>
  <line class="st3" x1="658.23" y1="758.66" x2="657.55" y2="758.66"/>
  <line class="st3" x1="656.88" y1="758.66" x2="657.22" y2="758.66"/>
  <line class="st3" x1="657.22" y1="758.66" x2="657.55" y2="758.66"/>
  <line class="st3" x1="656.2" y1="758.32" x2="656.54" y2="758.66"/>
  <line class="st3" x1="656.54" y1="758.66" x2="656.88" y2="758.66"/>
  <line class="st3" x1="664.3" y1="758.32" x2="663.29" y2="757.31"/>
  <line class="st3" x1="663.29" y1="757.31" x2="661.6" y2="756.97"/>
  <line class="st3" x1="661.6" y1="756.97" x2="659.92" y2="757.64"/>
  <line class="st3" x1="659.92" y1="757.64" x2="658.57" y2="758.66"/>
  <line class="st3" x1="663.97" y1="759.33" x2="664.3" y2="758.99"/>
  <line class="st3" x1="664.3" y1="758.99" x2="664.3" y2="758.32"/>
  <line class="st3" x1="663.97" y1="759.33" x2="658.23" y2="764.06"/>
  <line class="st3" x1="658.23" y1="764.06" x2="654.52" y2="770.13"/>
  <line class="st3" x1="685.23" y1="758.66" x2="685.57" y2="758.66"/>
  <line class="st3" x1="685.57" y1="758.66" x2="685.91" y2="758.66"/>
  <line class="st3" x1="686.92" y1="758.66" x2="686.58" y2="758.66"/>
  <line class="st3" x1="686.58" y1="758.66" x2="685.91" y2="758.66"/>
  <line class="st3" x1="687.26" y1="758.32" x2="687.26" y2="758.66"/>
  <line class="st3" x1="687.26" y1="758.66" x2="686.92" y2="758.66"/>
  <line class="st3" x1="679.49" y1="758.32" x2="680.51" y2="757.31"/>
  <line class="st3" x1="680.51" y1="757.31" x2="681.86" y2="756.97"/>
  <line class="st3" x1="681.86" y1="756.97" x2="683.54" y2="757.64"/>
  <line class="st3" x1="683.54" y1="757.64" x2="685.23" y2="758.66"/>
  <line class="st3" x1="679.83" y1="759.33" x2="679.49" y2="758.99"/>
  <line class="st3" x1="679.49" y1="758.99" x2="679.49" y2="758.32"/>
  <line class="st3" x1="679.83" y1="759.33" x2="685.57" y2="764.06"/>
  <line class="st3" x1="685.57" y1="764.06" x2="688.94" y2="770.13"/>
  <line class="st3" x1="656.2" y1="758.32" x2="663.63" y2="754.61"/>
  <line class="st3" x1="663.63" y1="754.61" x2="671.73" y2="753.26"/>
  <line class="st3" x1="671.73" y1="753.26" x2="680.17" y2="754.61"/>
  <line class="st3" x1="680.17" y1="754.61" x2="687.26" y2="758.32"/>
  <line class="st3" x1="658.57" y1="845.4" x2="658.23" y2="845.4"/>
  <line class="st3" x1="658.23" y1="845.4" x2="657.55" y2="845.4"/>
  <line class="st3" x1="656.88" y1="845.4" x2="657.22" y2="845.4"/>
  <line class="st3" x1="657.22" y1="845.4" x2="657.55" y2="845.4"/>
  <line class="st3" x1="656.2" y1="845.74" x2="656.54" y2="845.4"/>
  <line class="st3" x1="656.54" y1="845.4" x2="656.88" y2="845.4"/>
  <line class="st3" x1="664.3" y1="845.74" x2="663.29" y2="846.75"/>
  <line class="st3" x1="663.29" y1="846.75" x2="661.6" y2="847.09"/>
  <line class="st3" x1="661.6" y1="847.09" x2="659.92" y2="846.42"/>
  <line class="st3" x1="659.92" y1="846.41" x2="658.57" y2="845.4"/>
  <line class="st3" x1="663.97" y1="844.73" x2="664.3" y2="845.06"/>
  <line class="st3" x1="664.3" y1="845.06" x2="664.3" y2="845.74"/>
  <line class="st3" x1="663.97" y1="844.73" x2="658.23" y2="840"/>
  <line class="st3" x1="658.23" y1="840" x2="654.52" y2="833.93"/>
  <line class="st3" x1="685.23" y1="845.4" x2="685.57" y2="845.4"/>
  <line class="st3" x1="685.57" y1="845.4" x2="685.91" y2="845.4"/>
  <line class="st3" x1="686.92" y1="845.4" x2="686.58" y2="845.4"/>
  <line class="st3" x1="686.58" y1="845.4" x2="685.91" y2="845.4"/>
  <line class="st3" x1="687.26" y1="845.74" x2="687.26" y2="845.4"/>
  <line class="st3" x1="687.26" y1="845.4" x2="686.92" y2="845.4"/>
  <line class="st3" x1="679.49" y1="845.74" x2="680.51" y2="846.75"/>
  <line class="st3" x1="680.51" y1="846.75" x2="681.86" y2="847.09"/>
  <line class="st3" x1="681.86" y1="847.09" x2="683.54" y2="846.42"/>
  <line class="st3" x1="683.54" y1="846.41" x2="685.23" y2="845.4"/>
  <line class="st3" x1="679.83" y1="844.73" x2="679.49" y2="845.06"/>
  <line class="st3" x1="679.49" y1="845.06" x2="679.49" y2="845.74"/>
  <line class="st3" x1="679.83" y1="844.73" x2="685.57" y2="840"/>
  <line class="st3" x1="685.57" y1="840" x2="688.94" y2="833.93"/>
  <line class="st3" x1="656.2" y1="845.74" x2="663.63" y2="849.45"/>
  <line class="st3" x1="663.63" y1="849.45" x2="671.73" y2="850.8"/>
  <line class="st3" x1="671.73" y1="850.8" x2="680.17" y2="849.45"/>
  <line class="st3" x1="680.17" y1="849.45" x2="687.26" y2="845.74"/>
  <line class="st3" x1="648.1" y1="833.93" x2="648.1" y2="770.13"/>
  <polyline class="st3" points="648.1 770.13 654.52 770.13 688.94 770.13 702.45 770.13 736.87 770.13 743.62 770.13"/>
  <polyline class="st3" points="743.62 833.93 736.87 833.93 702.45 833.93 688.94 833.93 654.52 833.93 648.1 833.93"/>
  <line class="st3" x1="454.69" y1="1012.64" x2="444.02" y2="1012.64"/>
  <rect class="st3" x="436.95" y="991.84" width="47.78" height="117.89"/>
  <line class="st3" x1="451.95" y1="1081.7" x2="451.95" y2="1071.27"/>
  <line class="st3" x1="471.56" y1="1081.7" x2="471.56" y2="1071.27"/>
  <line class="st3" x1="466.41" y1="1076.55" x2="476.84" y2="1076.55"/>
  <line class="st3" x1="446.66" y1="1076.55" x2="457.09" y2="1076.55"/>
  <rect class="st3" x="442.07" y="1064.73" width="39.36" height="22.95"/>
  <rect class="st3" x="447.81" y="999.43" width="26.54" height="26.54"/>
  <rect class="st3" x="441.2" y="992.69" width="39.75" height="39.89"/>
</svg>