<?xml version="1.0" encoding="UTF-8"?>
<svg id="Vinduer_i_facade" xmlns="http://www.w3.org/2000/svg" version="1.1" viewBox="0 0 1200 1697.14">
  <!-- Generator: Adobe Illustrator 29.6.0, SVG Export Plug-In . SVG Version: 2.1.1 Build 207)  -->
  <defs>
    <style>
      .st0 {
        fill: #e2dedb;
      }

      .st1 {
        stroke-dasharray: .09 .69;
      }

      .st1, .st2, .st3, .st4, .st5, .st6, .st7, .st8 {
        stroke-width: .28px;
      }

      .st1, .st9, .st10, .st3, .st11, .st12, .st13, .st4, .st14, .st15, .st16, .st17, .st18, .st5, .st19, .st6, .st8 {
        fill: none;
      }

      .st1, .st9, .st10, .st3, .st11, .st12, .st13, .st4, .st16, .st17, .st18, .st5, .st19, .st6, .st20, .st7, .st8 {
        stroke-linecap: round;
        stroke-linejoin: round;
      }

      .st1, .st4, .st5, .st19, .st6 {
        stroke: #000;
      }

      .st21, .st2, .st22, .st9, .st10, .st3, .st11, .st12, .st13, .st14, .st15, .st16, .st17, .st20, .st7 {
        stroke: #363a3b;
      }

      .st21, .st2, .st22, .st14, .st15 {
        stroke-miterlimit: 10;
      }

      .st21, .st2, .st22, .st20, .st7 {
        fill: #fff;
      }

      .st21, .st14 {
        stroke-width: .29px;
      }

      .st22, .st12, .st15, .st16, .st18, .st20 {
        stroke-width: .28px;
      }

      .st9 {
        stroke-width: .3px;
      }

      .st10 {
        stroke-width: .28px;
      }

      .st11 {
        stroke-width: .28px;
      }

      .st13 {
        stroke-width: .29px;
      }

      .st23 {
        fill: #ece8e5;
      }

      .st16, .st17, .st19 {
        stroke-dasharray: .06 .43;
      }

      .st17, .st19 {
        stroke-width: .18px;
      }

      .st18 {
        stroke: #0e0e0e;
      }

      .st5 {
        stroke-dasharray: .09 .69;
      }

      .st6 {
        stroke-dasharray: .09 .68;
      }

      .st24 {
        fill: #302c35;
      }

      .st8 {
        stroke: #00001d;
      }
    </style>
  </defs>
  <polygon class="st23" points="693.26 733.88 693.82 740.85 561.69 740.85 561.13 733.88 479.99 733.88 479.99 1018.54 717.2 1018.54 717.2 733.88 693.26 733.88"/>
  <g>
    <rect class="st7" x="630" y="811.07" width="110.26" height="50.38" transform="translate(-151.13 1521.39) rotate(-90)"/>
    <rect class="st7" x="671.14" y="793.12" width="27.99" height="27.57" rx="1.42" ry="1.42"/>
    <polygon class="st7" points="710.97 795.55 710.97 891.68 659.94 891.68 659.94 820.42 710.97 795.55"/>
  </g>
  <g>
    <g>
      <path class="st7" d="M515.86,804.78c-7.12,0-12.9,6.14-12.9,13.72,0,5.58,3.65,11.1,8.79,13.01.7.26,2.18.79,4.11.71,6.06-.24,12.9-6.28,12.9-13.72s-5.78-13.72-12.9-13.72Z"/>
      <path class="st3" d="M512.97,830.41c-4.38,0-7.92-5.33-7.92-11.91"/>
      <path class="st3" d="M512.97,806.59c-4.38,0-7.92,5.33-7.92,11.91"/>
      <path class="st3" d="M512.97,806.59c.86,0,1.56-.68,1.56-1.53"/>
      <path class="st3" d="M512.97,830.41c.86,0,1.56.74,1.56,1.66"/>
    </g>
    <g>
      <path class="st7" d="M560.13,804.78c7.12,0,12.9,6.14,12.9,13.72,0,5.58-3.65,11.1-8.79,13.01-.7.26-2.18.79-4.11.71-6.06-.24-12.9-6.28-12.9-13.72s5.78-13.72,12.9-13.72Z"/>
      <path class="st3" d="M563.03,830.41c4.38,0,7.92-5.33,7.92-11.91"/>
      <path class="st3" d="M563.03,806.59c4.38,0,7.92,5.33,7.92,11.91"/>
      <path class="st3" d="M563.03,806.59c-.86,0-1.56-.68-1.56-1.53"/>
      <path class="st3" d="M563.03,830.41c-.86,0-1.56.74-1.56,1.66"/>
    </g>
    <rect class="st7" x="521.2" y="798.29" width="35.68" height="40.44" transform="translate(1078.08 1637.01) rotate(-180)"/>
  </g>
  <g>
    <path class="st7" d="M606.73,749.81c6.26,7.8,12.52,15.61,18.78,23.41.18.41.03.92-.37,1.24-8.31,8.71-17.89,16.2-28.33,22.15-.17.1-.38.09-.5-.04-.59-.73-1.17-1.45-1.76-2.18l-16.98-21.01,29.17-23.57"/>
    <path class="st7" d="M605.13,748.31c.68.65,1.26,1.37,1.77,2.16.09.16.04.37-.13.51-9.16,7.76-18.44,15.35-27.86,22.78-.26.16-.57.13-.74-.07-.71-.74-1.34-1.54-1.88-2.41"/>
    <path class="st7" d="M607.82,753.56c.57-.46-.06-2.18-1.4-3.84-.11-.13-.22-.26-.33-.39l-.95-1.03c-.14-.12-.36-.11-.52.02l-28.39,22.95,1.95,2.42c.65.78,1.3,1.55,1.96,2.33.36.26.89.22,1.29-.1,9.96-5.95,18.92-13.54,26.4-22.35Z"/>
    <path class="st7" d="M606.77,751.91c.13.43.29.84.48,1.24.13.51.29,1.02.48,1.51.26.67.51,1.34.76,2.02.34.93.76,1.81,1.27,2.66.31.52.63,1.02.98,1.52.36.52.73,1.05,1.11,1.56.89,1.23,1.84,2.41,2.86,3.54,1.03,1.14,2.14,2.18,3.35,3.14.91.72,1.88,1.34,2.93,1.88.66.34,1.33.46,2.13.4.07,0,.12-.03.18-.07l.51-.41c.1-.16.12-.3.08-.47-6.07-7.51-12.14-15.02-18.21-22.53-.11-.13-.32-.14-.48-.01l-.16.13h0c-.15.13-.19.34-.1.48.21.35.42.69.63,1.04.31.44.58.89.81,1.38l.41,1.02Z"/>
    <path class="st7" d="M579.44,774c.39.22.76.46,1.12.73.47.24.93.5,1.37.79.6.39,1.21.78,1.81,1.16.84.53,1.61,1.13,2.33,1.8.44.41.87.83,1.28,1.27.44.47.87.94,1.3,1.41,1.02,1.13,1.97,2.3,2.86,3.54.9,1.24,1.68,2.55,2.36,3.93.51,1.04.92,2.12,1.22,3.26.19.72.18,1.4-.05,2.16-.02.06-.05.11-.11.16l-.51.41c-.18.06-.32.06-.48-.02-6.07-7.51-12.14-15.02-18.21-22.53-.11-.13-.07-.34.09-.47l.16-.13h0c.16-.12.37-.12.49,0,.29.28.59.55.88.83.36.39.75.75,1.18,1.08l.91.61Z"/>
  </g>
  <circle class="st2" cx="630.8" cy="803.71" r="13.02"/>
  <g>
    <path class="st3" d="M629.91,956.55c11.6,0,22.94-4.79,31.27-13.11,8.07-8.07,12.86-19.41,12.86-31.01"/>
    <line class="st3" x1="629.91" y1="914.19" x2="629.91" y2="956.55"/>
    <polyline class="st3" points="674.03 912.42 629.91 912.42 629.91 914.19"/>
  </g>
  <g>
    <g>
      <polyline class="st4" points="711.34 948.5 711.39 948.5 711.39 948.55"/>
      <line class="st5" x1="711.39" y1="949.24" x2="711.39" y2="992.76"/>
      <polyline class="st4" points="711.39 993.11 711.39 993.15 711.34 993.15"/>
      <line class="st6" x1="710.66" y1="993.15" x2="667.64" y2="993.15"/>
      <polyline class="st4" points="667.3 993.15 667.26 993.15 667.26 993.11"/>
      <line class="st5" x1="667.26" y1="992.42" x2="667.26" y2="948.9"/>
      <polyline class="st4" points="667.26 948.55 667.26 948.5 667.3 948.5"/>
      <line class="st6" x1="667.98" y1="948.5" x2="711" y2="948.5"/>
    </g>
    <g>
      <line class="st3" x1="689.35" y1="992.98" x2="689.35" y2="980.68"/>
      <path class="st7" d="M692.05,980.74c0,1.52-1.23,2.75-2.75,2.75s-2.75-1.23-2.75-2.75,1.23-2.75,2.75-2.75,2.75,1.23,2.75,2.75"/>
    </g>
  </g>
  <path class="st2" d="M664.14,993.75v-16.09c0-6.19-4.45-11.2-9.95-11.2-5.5,0-9.95,5.01-9.95,11.2v16.09s19.9,0,19.9,0Z"/>
  <g>
    <path class="st20" d="M712.08,911.88h-18.5c-.41,0-.74.21-.74.47v26.59c0,.32.33.59.74.59h18.5"/>
    <path class="st3" d="M709.38,926.76c-.55,0-1-.45-1-1s.45-1,1-1,1,.45,1,1-.45,1-1,1"/>
    <g>
      <path class="st3" d="M700.57,926.96c-.68,0-1.23-.55-1.23-1.23s.55-1.23,1.23-1.23,1.23.55,1.23,1.23-.55,1.23-1.23,1.23"/>
      <path class="st3" d="M700.57,927.55c-1,0-1.82-.81-1.82-1.82s.81-1.82,1.82-1.82,1.82.81,1.82,1.82-.81,1.82-1.82,1.82"/>
    </g>
    <path class="st12" d="M706.17,913.91h-10.82c-.41,0-.74.23-.74.52v22.61c0,.29.33.52.74.52h10.82c.41,0,.74-.23.74-.52v-22.61c0-.29-.33-.52-.74-.52Z"/>
  </g>
  <g>
    <polygon class="st21" points="485.72 1010.22 485.75 972.89 485.72 942.18 519.98 942.18 519.98 1010.22 485.72 1010.22"/>
    <g>
      <g>
        <polyline class="st10" points="515.15 1003.35 493.95 1003.35 493.95 982.15 515.15 982.15 515.15 1003.35"/>
        <line class="st10" x1="499.08" y1="992.7" x2="490.55" y2="992.7"/>
      </g>
      <polyline class="st10" points="518.25 1008.52 487.45 1008.52 487.45 976.99 518.25 976.99 518.25 1008.52"/>
    </g>
    <g>
      <g>
        <line class="st13" x1="515.18" y1="952.16" x2="506.94" y2="952.16"/>
        <line class="st13" x1="499.57" y1="952.16" x2="491.33" y2="952.16"/>
        <line class="st13" x1="495.51" y1="948.35" x2="495.51" y2="956.07"/>
        <line class="st13" x1="511" y1="948.35" x2="511" y2="956.07"/>
      </g>
      <polyline class="st9" points="518.25 960.54 487.45 960.54 487.45 943.88 518.25 943.88 518.25 960.54"/>
    </g>
  </g>
  <path class="st8" d="M520,941.74"/>
  <line class="st3" x1="485.98" y1="942.13" x2="520" y2="942.13"/>
  <line class="st22" x1="485.97" y1="942.12" x2="519.99" y2="942.12"/>
  <path class="st17" d="M519.99,884.76l16.54,23.26s-7.42,4.85-16.54,4.89"/>
  <path class="st17" d="M519.99,941.32l16.54-22.75s-7.42-4.74-16.54-4.79"/>
  <rect class="st22" x="485.94" y="913.27" width="34.03" height="28.87"/>
  <rect class="st22" x="485.94" y="884.45" width="34.03" height="28.87"/>
  <rect class="st0" x="473.89" y="898.68" width="122.04" height="100.67" transform="translate(-414.11 1483.93) rotate(-90)"/>
  <g>
    <line class="st3" x1="489.18" y1="859.18" x2="489.17" y2="878.44"/>
    <line class="st3" x1="490.55" y1="878.44" x2="490.56" y2="859.18"/>
    <polyline class="st3" points="489.17 878.44 489.17 881.32 490.55 881.32 490.55 878.44 489.17 878.44"/>
    <polyline class="st3" points="489.18 856.36 489.18 859.18 490.56 859.18 490.56 856.36 489.18 856.36"/>
    <line class="st3" x1="486.12" y1="858.16" x2="488.94" y2="858.16"/>
    <line class="st3" x1="486.12" y1="879.33" x2="488.94" y2="879.33"/>
  </g>
  <g>
    <polygon class="st14" points="485.72 1010.22 485.75 972.89 485.72 942.18 519.98 942.18 519.98 1010.22 485.72 1010.22"/>
    <g>
      <g>
        <polyline class="st10" points="515.15 1003.35 493.95 1003.35 493.95 982.15 515.15 982.15 515.15 1003.35"/>
        <line class="st10" x1="499.08" y1="992.7" x2="490.55" y2="992.7"/>
      </g>
      <polyline class="st10" points="518.25 1008.52 487.45 1008.52 487.45 976.99 518.25 976.99 518.25 1008.52"/>
    </g>
    <g>
      <g>
        <line class="st13" x1="515.18" y1="952.16" x2="506.94" y2="952.16"/>
        <line class="st13" x1="499.57" y1="952.16" x2="491.33" y2="952.16"/>
        <line class="st13" x1="495.51" y1="948.35" x2="495.51" y2="956.07"/>
        <line class="st13" x1="511" y1="948.35" x2="511" y2="956.07"/>
      </g>
      <polyline class="st9" points="518.25 960.54 487.45 960.54 487.45 943.88 518.25 943.88 518.25 960.54"/>
    </g>
  </g>
  <path class="st8" d="M520,941.74"/>
  <line class="st3" x1="485.98" y1="942.13" x2="520" y2="942.13"/>
  <line class="st22" x1="485.97" y1="942.12" x2="519.99" y2="942.12"/>
  <path class="st17" d="M519.99,884.76l16.54,23.26s-7.42,4.85-16.54,4.89"/>
  <path class="st17" d="M519.99,941.32l16.54-22.75s-7.42-4.74-16.54-4.79"/>
  <rect class="st15" x="485.94" y="913.27" width="34.03" height="28.87"/>
  <rect class="st15" x="485.94" y="884.45" width="34.03" height="28.87"/>
  <line class="st1" x1="564.51" y1="740.97" x2="691.28" y2="740.97"/>
  <rect class="st24" x="628.23" y="956.55" width="3.54" height="61.57"/>
  <rect class="st24" x="628.23" y="901.74" width="3.54" height="10.69"/>
  <rect class="st24" x="628.14" y="899.69" width="87.71" height="3.54"/>
  <rect class="st24" x="628.19" y="993.63" width="90.9" height="24.91"/>
  <rect class="st24" x="477.35" y="731.73" width="86.86" height="8.5"/>
  <rect class="st24" x="481.61" y="1010.04" width="92.89" height="8.5"/>
  <rect class="st24" x="618.39" y="1010.04" width="92.89" height="8.5"/>
  <polyline class="st24" points="693.19 726.18 700.2 726.18 700.2 679.5 691.7 679.5 691.7 736.38 693.19 736.38 693.19 726.18"/>
  <polyline class="st24" points="557.19 726.18 564.2 726.18 564.2 679.5 555.7 679.5 555.7 736.38 557.19 736.38 557.19 726.18"/>
  <rect class="st24" x="503.77" y="680.53" width="34.02" height="86.86" transform="translate(1244.74 203.19) rotate(90)"/>
  <rect class="st24" x="714.12" y="738.48" width="8.5" height="280.06"/>
  <rect class="st24" x="477.35" y="738.48" width="8.5" height="280.06"/>
  <rect class="st24" x="690.14" y="708.46" width="34.02" height="31.02" transform="translate(1431.11 16.82) rotate(90)"/>
  <g>
    <polyline class="st12" points="663.42 684.9 690.12 684.9 690.12 682.2 663.42 682.2 663.42 684.9"/>
    <polyline class="st11" points="565.95 684.87 660.42 684.87 660.42 682.17 565.95 682.17 565.95 684.87"/>
    <line class="st12" x1="661.92" y1="678.6" x2="691.53" y2="678.6"/>
    <polyline class="st12" points="691.8 678.6 691.38 678.6 691.38 679.5 690.06 679.5 690.06 684.9 691.8 684.9 691.8 678.6"/>
    <polyline class="st12" points="564.21 678.6 564.63 678.6 564.63 679.5 565.95 679.5 565.95 684.9 564.21 684.9 564.21 678.6"/>
    <polyline class="st12" points="662.16 678.6 661.74 678.6 661.74 679.5 660.48 679.5 660.48 684.9 663.42 684.9 663.42 679.5 662.16 679.5 662.16 678.6"/>
    <line class="st12" x1="690.12" y1="679.5" x2="663.42" y2="679.5"/>
    <line class="st12" x1="660.48" y1="679.5" x2="565.95" y2="679.5"/>
    <line class="st12" x1="690.12" y1="682.2" x2="690.12" y2="679.5"/>
    <line class="st12" x1="661.92" y1="678.6" x2="564.42" y2="678.6"/>
    <polyline class="st12" points="565.95 679.5 564.63 679.5 564.63 678.6 564.21 678.6 564.21 684.9 565.95 684.9 565.95 679.5"/>
    <line class="st16" x1="690.12" y1="682.2" x2="676.74" y2="704.88"/>
    <line class="st16" x1="663.65" y1="682.2" x2="677.03" y2="704.88"/>
    <line class="st18" x1="690.12" y1="684.84" x2="690.18" y2="684.9"/>
    <line class="st12" x1="660.48" y1="684.9" x2="565.95" y2="684.9"/>
    <line class="st12" x1="690.12" y1="684.9" x2="663.42" y2="684.9"/>
    <polyline class="st12" points="663.42 684.9 663.42 679.5 662.16 679.5 662.16 678.6 661.74 678.6 661.74 679.5 660.48 679.5 660.48 684.9 663.42 684.9"/>
    <polyline class="st12" points="691.44 679.5 690.12 679.5 690.12 684.9 691.8 684.9 691.8 678.6 691.44 678.6 691.44 679.5"/>
    <polyline class="st12" points="690.12 679.5 663.42 679.5 663.42 682.2 690.12 682.2 690.12 679.5"/>
  </g>
  <rect class="st24" x="712.1" y="900.25" width="2.88" height="109.52"/>
  <g>
    <path class="st3" d="M574.41,1010.18c0-11.6,4.79-22.95,13.11-31.27,8.07-8.07,19.42-12.86,31.01-12.86"/>
    <line class="st3" x1="616.77" y1="1010.18" x2="574.41" y2="1010.18"/>
    <polyline class="st3" points="618.53 966.05 618.53 1010.18 616.77 1010.18"/>
  </g>
  <rect class="st19" x="483.22" y="887.99" width="102.02" height="122.22"/>
</svg>