<?xml version="1.0" encoding="UTF-8"?>
<svg id="Vinduer_i_facade" xmlns="http://www.w3.org/2000/svg" version="1.1" viewBox="0 0 1200 1697.14">
  <!-- Generator: Adobe Illustrator 29.6.0, SVG Export Plug-In . SVG Version: 2.1.1 Build 207)  -->
  <defs>
    <style>
      .st0 {
        fill: #e2dedb;
      }

      .st1 {
        stroke-dasharray: .09 .69;
      }

      .st1, .st2, .st3, .st4, .st5, .st6, .st7 {
        stroke-width: .28px;
      }

      .st1, .st8, .st9, .st3, .st10, .st11, .st12, .st4, .st13, .st14, .st15, .st16, .st5, .st17, .st6 {
        fill: none;
      }

      .st1, .st8, .st9, .st3, .st10, .st11, .st12, .st4, .st14, .st15, .st16, .st5, .st17, .st6, .st18, .st7 {
        stroke-linecap: round;
        stroke-linejoin: round;
      }

      .st1, .st4, .st5, .st17, .st6 {
        stroke: #000;
      }

      .st19 {
        stroke-width: .29px;
      }

      .st19, .st2, .st20, .st8, .st9, .st3, .st10, .st11, .st12, .st13, .st14, .st15, .st18, .st7 {
        stroke: #363a3b;
      }

      .st19, .st2, .st20, .st13 {
        stroke-miterlimit: 10;
      }

      .st19, .st2, .st20, .st18, .st7 {
        fill: #fff;
      }

      .st20, .st11, .st13, .st16, .st18 {
        stroke-width: .28px;
      }

      .st8 {
        stroke-width: .3px;
      }

      .st9 {
        stroke-width: .28px;
      }

      .st10 {
        stroke-width: .28px;
      }

      .st12 {
        stroke-width: .29px;
      }

      .st21 {
        fill: #ece8e5;
      }

      .st14 {
        stroke-width: .18px;
      }

      .st14, .st15, .st17 {
        stroke-dasharray: .06 .43;
      }

      .st15, .st17 {
        stroke-width: .18px;
      }

      .st16 {
        stroke: #0e0e0e;
      }

      .st5 {
        stroke-dasharray: .09 .69;
      }

      .st22 {
        fill: #302c35;
      }

      .st6 {
        stroke-dasharray: .09 .68;
      }
    </style>
  </defs>
  <polygon class="st21" points="519.83 813.04 560.97 712.83 556.24 711.17 580.18 655.75 599.2 693.44 699.05 737.59 717.63 688.88 700.34 732.01 758.86 758.61 696.79 902.27 630.72 902.27 630.72 934.64 609.89 934.64 609.89 1057.52 428.98 1057.46 430.31 884.98 477.31 886.75 511.9 810.05 519.83 813.04"/>
  <line class="st1" x1="599.2" y1="693.44" x2="693.38" y2="735.08"/>
  <line class="st1" x1="521.32" y1="809.4" x2="559.08" y2="717.43"/>
  <g>
    <rect class="st7" x="643.4" y="786.9" width="110.26" height="50.38" transform="translate(-326.75 1122.31) rotate(-66.13)"/>
    <rect class="st7" x="696.42" y="771.46" width="27.99" height="27.57" rx="1.42" ry="1.42" transform="translate(378.46 -220.29) rotate(23.87)"/>
    <polygon class="st7" points="738.63 785.31 699.73 873.22 653.07 852.58 681.91 787.41 738.63 785.31"/>
  </g>
  <g>
    <g>
      <path class="st7" d="M552.62,778c2.82-6.54,10.74-9.42,17.7-6.42,5.12,2.21,8.75,7.75,8.47,13.22-.04.75-.14,2.31-.97,4.06-2.62,5.47-10.87,9.36-17.7,6.42s-10.31-10.73-7.49-17.27Z"/>
      <path class="st3" d="M577.3,785.49c1.73-4.02-1.76-9.38-7.8-11.99"/>
      <path class="st3" d="M555.42,776.06c1.73-4.02,8.03-5.17,14.07-2.56"/>
      <path class="st3" d="M555.42,776.06c-.34.79-1.25,1.17-2.02.83"/>
      <path class="st3" d="M577.3,785.49c-.34.79.06,1.73.9,2.09"/>
    </g>
    <g>
      <path class="st7" d="M535.1,818.66c-2.82,6.54.54,14.28,7.49,17.27,5.12,2.21,11.64,1.04,15.42-2.92.52-.54,1.59-1.69,2.28-3.49,2.18-5.66-.66-14.33-7.49-17.27s-14.88-.12-17.7,6.42Z"/>
      <path class="st3" d="M557.49,831.46c-1.73,4.02-8.03,5.17-14.07,2.56"/>
      <path class="st3" d="M535.62,822.03c-1.73,4.02,1.76,9.38,7.8,11.99"/>
      <path class="st3" d="M535.62,822.03c.34-.79,0-1.71-.79-2.04"/>
      <path class="st3" d="M557.49,831.46c.34-.79,1.3-1.14,2.14-.78"/>
    </g>
    <rect class="st7" x="538.21" y="784.5" width="35.68" height="40.44" transform="translate(-403.02 996.94) rotate(-66.69)"/>
  </g>
  <circle class="st2" cx="664.52" cy="760.14" r="13.02"/>
  <g>
    <path class="st3" d="M568.47,1037.35c0-11.6-4.79-22.94-13.11-31.27-8.07-8.07-19.41-12.86-31.01-12.86"/>
    <line class="st3" x1="526.11" y1="1037.35" x2="568.47" y2="1037.35"/>
    <polyline class="st3" points="524.34 993.23 524.34 1037.35 526.11 1037.35"/>
  </g>
  <g>
    <g>
      <polyline class="st4" points="561.49 1001.1 561.44 1001.1 561.44 1001.06"/>
      <line class="st5" x1="561.44" y1="1000.37" x2="561.44" y2="956.85"/>
      <polyline class="st4" points="561.44 956.5 561.44 956.46 561.49 956.46"/>
      <line class="st6" x1="562.17" y1="956.46" x2="605.19" y2="956.46"/>
      <polyline class="st4" points="605.53 956.46 605.57 956.46 605.57 956.5"/>
      <line class="st5" x1="605.57" y1="957.19" x2="605.57" y2="1000.71"/>
      <polyline class="st4" points="605.57 1001.06 605.57 1001.1 605.53 1001.1"/>
      <line class="st6" x1="604.84" y1="1001.1" x2="561.83" y2="1001.1"/>
    </g>
    <g>
      <line class="st3" x1="583.47" y1="956.63" x2="583.47" y2="968.93"/>
      <path class="st7" d="M580.78,968.87c0-1.52,1.23-2.75,2.75-2.75s2.75,1.23,2.75,2.75c0,1.52-1.23,2.75-2.75,2.75s-2.75-1.23-2.75-2.75"/>
    </g>
  </g>
  <path class="st2" d="M537.63,956.06v16.09c0,6.19,4.45,11.2,9.95,11.2,5.5,0,9.95-5.01,9.95-11.2v-16.09s-19.9,0-19.9,0Z"/>
  <g>
    <path class="st18" d="M606.1,1009.78h-18.5c-.41,0-.74.21-.74.47v26.59c0,.32.33.59.74.59h18.5"/>
    <path class="st3" d="M603.4,1024.66c-.55,0-1-.45-1-1s.45-1,1-1,1,.45,1,1-.45,1-1,1"/>
    <g>
      <path class="st3" d="M594.59,1024.86c-.68,0-1.23-.55-1.23-1.23s.55-1.23,1.23-1.23,1.23.55,1.23,1.23-.55,1.23-1.23,1.23"/>
      <path class="st3" d="M594.59,1025.45c-1,0-1.82-.81-1.82-1.82s.81-1.82,1.82-1.82,1.82.81,1.82,1.82-.81,1.82-1.82,1.82"/>
    </g>
    <path class="st11" d="M600.19,1011.81h-10.82c-.41,0-.74.23-.74.52v22.61c0,.29.33.52.74.52h10.82c.41,0,.74-.23.74-.52v-22.61c0-.29-.33-.52-.74-.52Z"/>
  </g>
  <g>
    <polygon class="st19" points="626.05 930.96 588.72 930.93 558.01 930.96 558.01 896.7 626.05 896.7 626.05 930.96"/>
    <g>
      <g>
        <polyline class="st9" points="619.18 901.53 619.18 922.73 597.99 922.73 597.99 901.53 619.18 901.53"/>
        <line class="st9" x1="608.53" y1="917.6" x2="608.53" y2="926.13"/>
      </g>
      <polyline class="st9" points="624.35 898.43 624.35 929.23 592.82 929.23 592.82 898.43 624.35 898.43"/>
    </g>
    <g>
      <g>
        <line class="st12" x1="567.99" y1="901.5" x2="567.99" y2="909.74"/>
        <line class="st12" x1="567.99" y1="917.11" x2="567.99" y2="925.35"/>
        <line class="st12" x1="564.18" y1="921.17" x2="571.9" y2="921.17"/>
        <line class="st12" x1="564.18" y1="905.68" x2="571.9" y2="905.68"/>
      </g>
      <polyline class="st8" points="576.37 898.43 576.37 929.23 559.71 929.23 559.71 898.43 576.37 898.43"/>
    </g>
  </g>
  <path class="st15" d="M468.6,895.41l16.54,23.26s-7.42,4.85-16.54,4.89"/>
  <path class="st15" d="M468.6,951.97l16.54-22.75s-7.42-4.74-16.54-4.79"/>
  <rect class="st20" x="434.55" y="923.91" width="34.03" height="28.87"/>
  <rect class="st20" x="434.55" y="895.09" width="34.03" height="28.87"/>
  <rect class="st0" x="412.8" y="915.95" width="131.29" height="89.95" transform="translate(-482.47 1439.37) rotate(-90)"/>
  <g>
    <line class="st3" x1="492.53" y1="886.08" x2="499.92" y2="868.28"/>
    <line class="st3" x1="501.19" y1="868.81" x2="493.8" y2="886.6"/>
    <polyline class="st3" points="499.92 868.28 501.03 865.62 502.3 866.15 501.19 868.81 499.92 868.28"/>
    <polyline class="st3" points="491.45 888.68 492.53 886.08 493.8 886.6 492.72 889.21 491.45 888.68"/>
    <line class="st3" x1="489.31" y1="885.84" x2="491.92" y2="886.93"/>
    <line class="st3" x1="497.44" y1="866.29" x2="500.04" y2="867.37"/>
  </g>
  <path class="st15" d="M468.6,895.41l16.54,23.26s-7.42,4.85-16.54,4.89"/>
  <path class="st15" d="M468.6,951.97l16.54-22.75s-7.42-4.74-16.54-4.79"/>
  <rect class="st13" x="434.55" y="923.91" width="34.03" height="28.87"/>
  <rect class="st13" x="434.55" y="895.09" width="34.03" height="28.87"/>
  <rect class="st22" x="728.42" y="727.43" width="8.5" height="183.7" transform="translate(391.81 -225.63) rotate(23.74)"/>
  <rect class="st22" x="539.57" y="645.02" width="34.02" height="68.08" transform="translate(301.98 -161.23) rotate(22.48)"/>
  <rect class="st22" x="545.7" y="651.08" width="60.12" height="31.49" transform="translate(298.77 -169.49) rotate(22.48)"/>
  <rect class="st22" x="702.2" y="720.9" width="68.3" height="31.49" transform="translate(360.24 -234.64) rotate(23.82)"/>
  <rect class="st22" x="470.65" y="798.78" width="34.02" height="93.5" transform="translate(360.41 -122.22) rotate(22.48)"/>
  <g>
    <polyline class="st11" points="688.44 676.14 712.9 686.84 713.98 684.37 689.52 673.67 688.44 676.14"/>
    <polyline class="st10" points="625.45 648.55 685.7 674.91 686.78 672.44 626.54 646.08 625.45 648.55"/>
    <line class="st11" x1="689.59" y1="669.77" x2="716.72" y2="681.63"/>
    <polyline class="st11" points="716.96 681.74 716.58 681.57 716.22 682.4 715.01 681.87 712.84 686.82 714.44 687.51 716.96 681.74"/>
    <polyline class="st11" points="626.37 642.11 626.76 642.28 626.4 643.1 627.61 643.63 625.44 648.58 623.85 647.88 626.37 642.11"/>
    <polyline class="st11" points="689.81 669.86 689.42 669.69 689.06 670.52 687.91 670.01 685.74 674.96 688.44 676.14 690.6 671.19 689.45 670.69 689.81 669.86"/>
    <line class="st11" x1="715.06" y1="681.89" x2="690.6" y2="671.19"/>
    <line class="st11" x1="687.91" y1="670.01" x2="627.61" y2="643.63"/>
    <line class="st11" x1="713.98" y1="684.37" x2="715.06" y2="681.89"/>
    <line class="st11" x1="689.59" y1="669.77" x2="626.57" y2="642.2"/>
    <polyline class="st11" points="627.61 643.63 626.4 643.1 626.76 642.28 626.37 642.11 623.85 647.88 625.44 648.58 627.61 643.63"/>
    <line class="st14" x1="713.98" y1="684.37" x2="692.63" y2="699.78"/>
    <line class="st14" x1="689.73" y1="673.76" x2="692.9" y2="699.9"/>
    <line class="st16" x1="712.92" y1="686.79" x2="712.95" y2="686.86"/>
    <line class="st11" x1="685.74" y1="674.96" x2="625.44" y2="648.58"/>
    <line class="st11" x1="712.9" y1="686.84" x2="688.44" y2="676.14"/>
    <polyline class="st11" points="688.44 676.14 690.6 671.19 689.45 670.69 689.81 669.86 689.42 669.69 689.06 670.52 687.91 670.01 685.74 674.96 688.44 676.14"/>
    <polyline class="st11" points="716.27 682.42 715.06 681.89 712.9 686.84 714.44 687.51 716.96 681.74 716.63 681.6 716.27 682.42"/>
    <polyline class="st11" points="715.06 681.89 690.6 671.19 689.52 673.67 713.98 684.37 715.06 681.89"/>
  </g>
  <g>
    <polyline class="st11" points="500.32 723.86 510.49 699.18 508 698.15 497.83 722.83 500.32 723.86"/>
    <polyline class="st10" points="474.1 787.43 499.15 726.63 496.66 725.6 471.61 786.4 474.1 787.43"/>
    <line class="st11" x1="493.93" y1="722.85" x2="505.21" y2="695.47"/>
    <polyline class="st11" points="505.31 695.22 505.15 695.61 505.98 695.95 505.48 697.17 510.47 699.23 511.13 697.62 505.31 695.22"/>
    <polyline class="st11" points="467.64 786.65 467.8 786.26 468.63 786.6 469.14 785.38 474.13 787.44 473.47 789.05 467.64 786.65"/>
    <polyline class="st11" points="494.02 722.63 493.86 723.02 494.69 723.36 494.21 724.52 499.2 726.58 500.32 723.86 495.33 721.81 494.85 722.97 494.02 722.63"/>
    <line class="st11" x1="505.5" y1="697.12" x2="495.33" y2="721.81"/>
    <line class="st11" x1="494.21" y1="724.52" x2="469.14" y2="785.38"/>
    <line class="st11" x1="508" y1="698.15" x2="505.5" y2="697.12"/>
    <line class="st11" x1="493.93" y1="722.85" x2="467.72" y2="786.45"/>
    <polyline class="st11" points="469.14 785.38 468.63 786.6 467.8 786.26 467.64 786.65 473.47 789.05 474.13 787.44 469.14 785.38"/>
    <line class="st14" x1="508" y1="698.15" x2="523.87" y2="719.16"/>
    <line class="st14" x1="497.91" y1="722.62" x2="523.98" y2="718.89"/>
    <line class="st16" x1="510.44" y1="699.15" x2="510.52" y2="699.12"/>
    <line class="st11" x1="499.2" y1="726.58" x2="474.13" y2="787.44"/>
    <line class="st11" x1="510.49" y1="699.18" x2="500.32" y2="723.86"/>
    <polyline class="st11" points="500.32 723.86 495.33 721.81 494.85 722.97 494.02 722.63 493.86 723.02 494.69 723.36 494.21 724.52 499.2 726.58 500.32 723.86"/>
    <polyline class="st11" points="506 695.9 505.5 697.12 510.49 699.18 511.13 697.62 505.31 695.22 505.17 695.56 506 695.9"/>
    <polyline class="st11" points="505.5 697.12 495.33 721.81 497.83 722.83 508 698.15 505.5 697.12"/>
  </g>
  <rect class="st22" x="704.8" y="681.88" width="8.5" height="57.2" transform="translate(346.99 -225.71) rotate(23.8)"/>
  <rect class="st22" x="606.18" y="638.61" width="8.5" height="57.36" transform="translate(321.18 -189.59) rotate(23.8)"/>
  <rect class="st22" x="426.04" y="861.24" width="59.45" height="34.02"/>
  <rect class="st22" x="464.75" y="797.61" width="57.04" height="8.5" transform="translate(344.18 -127.69) rotate(22.49)"/>
  <rect class="st22" x="505.67" y="698.32" width="57.04" height="8.5" transform="translate(309.32 -150.89) rotate(22.49)"/>
  <rect class="st22" x="626.18" y="896.56" width="73.38" height="8.5"/>
  <rect class="st22" x="488.29" y="1049.31" width="122.93" height="8.5"/>
  <rect class="st22" x="430.87" y="1049.31" width="13.51" height="8.5"/>
  <rect class="st22" x="522.39" y="930.61" width="111.54" height="8.5"/>
  <rect class="st22" x="522.39" y="930.64" width="92.28" height="25.51"/>
  <rect class="st22" x="524.88" y="1046.44" width="83.13" height="3.54"/>
  <rect class="st22" x="626.11" y="896.56" width="8.5" height="42.55"/>
  <rect class="st22" x="522.28" y="930.64" width="3.54" height="62.6"/>
  <rect class="st22" x="522.28" y="1037.32" width="3.54" height="14.2"/>
  <rect class="st22" x="606.16" y="936.4" width="8.5" height="121.41"/>
  <rect class="st22" x="426.15" y="887.03" width="8.5" height="170.78"/>
  <g>
    <path class="st3" d="M488.44,1049.44c0-11.6-4.79-22.95-13.11-31.27-8.07-8.07-19.42-12.86-31.01-12.86"/>
    <line class="st3" x1="446.08" y1="1049.44" x2="488.44" y2="1049.44"/>
    <polyline class="st3" points="444.31 1005.31 444.31 1049.44 446.08 1049.44"/>
  </g>
  <rect class="st17" x="434.55" y="895.25" width="88.87" height="131.32"/>
</svg>