<?xml version="1.0" encoding="UTF-8"?>
<svg id="Vinduer_i_facade" xmlns="http://www.w3.org/2000/svg" version="1.1" viewBox="0 0 1200 1697.14">
  <!-- Generator: Adobe Illustrator 29.6.0, SVG Export Plug-In . SVG Version: 2.1.1 Build 207)  -->
  <defs>
    <style>
      .st0 {
        fill: #e2dedb;
      }

      .st1, .st2, .st3, .st4, .st5, .st6, .st7, .st8, .st9, .st10, .st11, .st12, .st13, .st14 {
        stroke: #363a3b;
      }

      .st1, .st2, .st9 {
        stroke-miterlimit: 10;
      }

      .st1, .st2, .st13, .st14 {
        fill: #fff;
      }

      .st1, .st9 {
        stroke-width: .29px;
      }

      .st2, .st5, .st15, .st16, .st12, .st17, .st14 {
        stroke-width: .28px;
      }

      .st3 {
        stroke-width: .3px;
      }

      .st3, .st4, .st5, .st6, .st7, .st8, .st15, .st9, .st10, .st11, .st18, .st16, .st12, .st19, .st17 {
        fill: none;
      }

      .st3, .st4, .st5, .st6, .st7, .st8, .st15, .st10, .st11, .st18, .st16, .st12, .st19, .st17, .st13, .st14 {
        stroke-linecap: round;
        stroke-linejoin: round;
      }

      .st4 {
        stroke-width: .28px;
      }

      .st6 {
        stroke-width: .28px;
      }

      .st7, .st18, .st13 {
        stroke-width: .28px;
      }

      .st8 {
        stroke-width: .29px;
      }

      .st20 {
        fill: #ece8e5;
      }

      .st15, .st16, .st19, .st17 {
        stroke: #000;
      }

      .st10 {
        stroke-width: .18px;
      }

      .st10, .st11, .st19 {
        stroke-dasharray: .06 .43;
      }

      .st11, .st19 {
        stroke-width: .18px;
      }

      .st18 {
        stroke: #0e0e0e;
      }

      .st16 {
        stroke-dasharray: .09 .69;
      }

      .st12 {
        stroke-dasharray: .09 .69;
      }

      .st17 {
        stroke-dasharray: .09 .68;
      }

      .st21 {
        fill: #302c35;
      }
    </style>
  </defs>
  <polygon class="st20" points="433.49 804.56 475.95 709.18 472.18 701.58 489.47 664.34 618.94 693.6 622.49 704 762.66 731.05 766.59 862.53 822.32 863.46 822.32 1054.29 725.35 1054.28 725.35 950.32 607.85 950.32 607.85 866.52 571.94 866.52 433.49 804.56"/>
  <line class="st12" x1="622.49" y1="704" x2="719.77" y2="722.79"/>
  <g>
    <polyline class="st14" points="783.91 973.95 783.91 951.89 817.93 951.89 817.93 973.95 783.91 973.95"/>
    <path class="st14" d="M783.91,951.5"/>
    <path class="st14" d="M783.91,951.89"/>
  </g>
  <g>
    <polyline class="st14" points="783.91 974.17 783.91 996.02 817.93 996.02 817.93 974.17 783.91 974.17"/>
    <path class="st14" d="M783.91,995.89"/>
    <path class="st14" d="M783.91,995.56"/>
  </g>
  <g>
    <rect class="st14" x="457.31" y="783.3" width="110.26" height="50.38" transform="translate(655.01 1755.03) rotate(-156.2)"/>
    <rect class="st14" x="471.59" y="782.86" width="27.99" height="27.57" rx="1.42" ry="1.42" transform="translate(1410.44 673.87) rotate(113.8)"/>
    <polygon class="st14" points="464.77 815.7 552.72 854.49 573.31 807.81 508.11 779.05 464.77 815.7"/>
  </g>
  <g>
    <g>
      <path class="st14" d="M624.1,850.59c-7.12-.02-12.88-6.17-12.87-13.75.01-5.58,3.67-11.1,8.82-12.99.7-.26,2.18-.78,4.11-.7,6.06.26,12.88,6.31,12.87,13.75s-5.81,13.7-12.93,13.69Z"/>
      <path class="st5" d="M621.26,824.95c-4.38-.01-7.93,5.31-7.95,11.89"/>
      <path class="st5" d="M621.21,848.78c-4.38-.01-7.91-5.35-7.89-11.93"/>
      <path class="st5" d="M621.21,848.78c.86,0,1.56.69,1.56,1.53"/>
      <path class="st5" d="M621.26,824.95c.86,0,1.57-.74,1.57-1.65"/>
    </g>
    <g>
      <path class="st14" d="M668.37,850.7c7.12.02,12.91-6.11,12.93-13.69.01-5.58-3.62-11.11-8.76-13.03-.7-.26-2.17-.79-4.11-.72-6.06.23-12.91,6.25-12.93,13.69-.02,7.58,5.74,13.73,12.87,13.75Z"/>
      <path class="st5" d="M671.32,825.07c4.38.01,7.91,5.35,7.89,11.93"/>
      <path class="st5" d="M671.27,848.89c4.38.01,7.93-5.31,7.95-11.89"/>
      <path class="st5" d="M671.27,848.89c-.86,0-1.57.68-1.57,1.53"/>
      <path class="st5" d="M671.32,825.07c-.86,0-1.56-.74-1.56-1.66"/>
    </g>
    <rect class="st14" x="629.47" y="816.71" width="35.68" height="40.44" transform="translate(1292.67 1675.35) rotate(-179.87)"/>
  </g>
  <circle class="st2" cx="672.94" cy="743.75" r="13.02"/>
  <g>
    <path class="st5" d="M659.18,877.48c0,11.6,4.79,22.94,13.11,31.27,8.07,8.07,19.41,12.86,31.01,12.86"/>
    <line class="st5" x1="701.54" y1="877.48" x2="659.18" y2="877.48"/>
    <polyline class="st5" points="703.31 921.6 703.31 877.48 701.54 877.48"/>
  </g>
  <g>
    <g>
      <polyline class="st15" points="655.82 948.38 655.82 948.43 655.78 948.43"/>
      <line class="st16" x1="655.09" y1="948.43" x2="611.57" y2="948.43"/>
      <polyline class="st15" points="611.22 948.43 611.17 948.43 611.17 948.38"/>
      <line class="st17" x1="611.17" y1="947.7" x2="611.17" y2="904.68"/>
      <polyline class="st15" points="611.17 904.34 611.17 904.3 611.22 904.3"/>
      <line class="st16" x1="611.91" y1="904.3" x2="655.43" y2="904.3"/>
      <polyline class="st15" points="655.78 904.3 655.82 904.3 655.82 904.34"/>
      <line class="st17" x1="655.82" y1="905.02" x2="655.82" y2="948.04"/>
    </g>
    <g>
      <line class="st5" x1="611.35" y1="926.39" x2="623.65" y2="926.39"/>
      <path class="st14" d="M623.59,929.09c-1.52,0-2.75-1.23-2.75-2.75s1.23-2.75,2.75-2.75c1.52,0,2.75,1.23,2.75,2.75s-1.23,2.75-2.75,2.75"/>
    </g>
  </g>
  <path class="st2" d="M610.44,897.95h16.09c6.19,0,11.2-4.45,11.2-9.95s-5.01-9.95-11.2-9.95h-16.09s0,19.9,0,19.9Z"/>
  <g>
    <path class="st13" d="M694.4,948.93v-18.5c0-.41-.21-.74-.47-.74h-26.59c-.32,0-.59.33-.59.74v18.5"/>
    <path class="st5" d="M679.52,946.24c0-.55.45-1,1-1s1,.45,1,1-.45,1-1,1-1-.45-1-1"/>
    <g>
      <path class="st5" d="M679.31,937.43c0-.68.55-1.23,1.23-1.23s1.23.55,1.23,1.23-.55,1.23-1.23,1.23-1.23-.55-1.23-1.23"/>
      <path class="st5" d="M678.73,937.43c0-1,.81-1.82,1.82-1.82s1.82.81,1.82,1.82-.81,1.82-1.82,1.82-1.82-.81-1.82-1.82"/>
    </g>
    <path class="st7" d="M692.37,943.02v-10.82c0-.41-.23-.74-.52-.74h-22.61c-.29,0-.52.33-.52.74v10.82c0,.41.23.74.52.74h22.61c.29,0,.52-.33.52-.74Z"/>
  </g>
  <g>
    <polygon class="st1" points="818.19 883.82 818.16 921.16 818.19 951.86 783.93 951.86 783.93 883.82 818.19 883.82"/>
    <g>
      <g>
        <polyline class="st4" points="788.76 890.69 809.96 890.69 809.96 911.89 788.76 911.89 788.76 890.69"/>
        <line class="st4" x1="804.83" y1="901.35" x2="813.36" y2="901.35"/>
      </g>
      <polyline class="st4" points="785.66 885.53 816.46 885.53 816.46 917.06 785.66 917.06 785.66 885.53"/>
    </g>
    <g>
      <g>
        <line class="st8" x1="788.73" y1="941.88" x2="796.98" y2="941.88"/>
        <line class="st8" x1="804.34" y1="941.88" x2="812.58" y2="941.88"/>
        <line class="st8" x1="808.4" y1="945.69" x2="808.4" y2="937.97"/>
        <line class="st8" x1="792.91" y1="945.69" x2="792.91" y2="937.97"/>
      </g>
      <polyline class="st3" points="785.66 933.5 816.46 933.5 816.46 950.16 785.66 950.16 785.66 933.5"/>
    </g>
  </g>
  <g>
    <path class="st14" d="M720.72,734.89c-6.26,7.8-12.52,15.61-18.78,23.41-.18.41-.03.92.37,1.24,8.31,8.71,17.89,16.2,28.33,22.15.17.1.38.09.5-.04.59-.73,1.17-1.45,1.76-2.18l16.98-21.01-29.17-23.57"/>
    <path class="st14" d="M722.33,733.4c-.68.65-1.26,1.37-1.77,2.16-.09.16-.04.37.13.51,9.16,7.76,18.44,15.35,27.86,22.78.26.16.57.13.74-.07.71-.74,1.34-1.54,1.88-2.41"/>
    <path class="st14" d="M719.64,738.65c-.57-.46.06-2.18,1.4-3.84.11-.13.22-.26.33-.39l.95-1.03c.14-.12.36-.11.52.02l28.39,22.95-1.95,2.42c-.65.78-1.3,1.55-1.96,2.33-.36.26-.89.22-1.29-.1-9.96-5.95-18.92-13.54-26.4-22.35Z"/>
    <path class="st14" d="M720.69,737c-.13.43-.29.84-.48,1.24-.13.51-.29,1.02-.48,1.51-.26.67-.51,1.34-.76,2.02-.34.93-.76,1.81-1.27,2.66-.31.52-.63,1.02-.98,1.52-.36.52-.73,1.05-1.11,1.56-.89,1.23-1.84,2.41-2.86,3.54-1.03,1.14-2.14,2.18-3.35,3.14-.91.72-1.88,1.34-2.93,1.88-.66.34-1.33.46-2.13.4-.07,0-.12-.03-.18-.07l-.51-.41c-.1-.16-.12-.3-.08-.47,6.07-7.51,12.14-15.02,18.21-22.53.11-.13.32-.14.48-.01l.16.13h0c.15.13.19.34.1.48-.21.35-.42.69-.63,1.04-.31.44-.58.89-.81,1.38l-.41,1.02Z"/>
    <path class="st14" d="M740.74,770.75c3.66-4.53,7.33-9.06,10.99-13.6.11-.13.07-.34-.09-.47l-.16-.13h0c-.16-.12-.37-.12-.49,0-.29.28-.59.55-.88.83-.36.39-.75.75-1.18,1.08l-.91.61c-.39.22-.76.46-1.12.73-.47.24-.93.5-1.37.79-.6.39-1.21.78-1.81,1.16-.84.53-1.61,1.13-2.33,1.8-.44.41-.87.83-1.28,1.27-.44.47-.87.94-1.3,1.41-1.02,1.13-1.97,2.3-2.86,3.54-.9,1.24-1.68,2.55-2.36,3.93-.51,1.04-.92,2.12-1.22,3.26-.19.72-.18,1.4.05,2.16.02.06.05.11.11.16l.51.41c.18.06.32.06.48-.02,2.41-2.98,4.82-5.96,7.22-8.94"/>
  </g>
  <polygon class="st0" points="704.33 870.89 704.33 953.11 724.09 953.11 724.09 1000.77 807.74 1000.77 807.74 870.89 704.33 870.89"/>
  <g>
    <line class="st5" x1="757.87" y1="861.69" x2="757.85" y2="842.42"/>
    <line class="st5" x1="756.47" y1="842.42" x2="756.49" y2="861.69"/>
    <polyline class="st5" points="757.85 842.42 757.85 839.54 756.47 839.54 756.47 842.42 757.85 842.42"/>
    <polyline class="st5" points="757.88 864.51 757.87 861.69 756.49 861.69 756.5 864.51 757.88 864.51"/>
    <line class="st5" x1="760.94" y1="862.71" x2="758.12" y2="862.71"/>
    <line class="st5" x1="760.91" y1="841.53" x2="758.09" y2="841.53"/>
  </g>
  <g>
    <polyline class="st5" points="783.91 974.17 783.91 951.85 817.93 951.85 817.93 974.17 783.91 974.17"/>
    <path class="st5" d="M783.91,951.5"/>
    <path class="st5" d="M783.91,951.85"/>
  </g>
  <path class="st11" d="M783.91,951.89l-12.8,17.38s5.74,3.88,12.8,3.91"/>
  <g>
    <polyline class="st5" points="783.91 973.95 783.91 996.02 817.93 996.02 817.93 973.95 783.91 973.95"/>
    <path class="st5" d="M783.91,996.37"/>
    <path class="st5" d="M783.91,996.02"/>
  </g>
  <path class="st11" d="M783.91,996.02l-12.8-17.38s5.74-3.88,12.8-3.91"/>
  <g>
    <polygon class="st9" points="818.19 883.82 818.16 921.16 818.19 951.86 783.93 951.86 783.93 883.82 818.19 883.82"/>
    <g>
      <g>
        <polyline class="st4" points="788.76 890.69 809.96 890.69 809.96 911.89 788.76 911.89 788.76 890.69"/>
        <line class="st4" x1="804.83" y1="901.35" x2="813.36" y2="901.35"/>
      </g>
      <polyline class="st4" points="785.66 885.53 816.46 885.53 816.46 917.06 785.66 917.06 785.66 885.53"/>
    </g>
    <g>
      <g>
        <line class="st8" x1="788.73" y1="941.88" x2="796.98" y2="941.88"/>
        <line class="st8" x1="804.34" y1="941.88" x2="812.58" y2="941.88"/>
        <line class="st8" x1="808.4" y1="945.69" x2="808.4" y2="937.97"/>
        <line class="st8" x1="792.91" y1="945.69" x2="792.91" y2="937.97"/>
      </g>
      <polyline class="st3" points="785.66 933.5 816.46 933.5 816.46 950.16 785.66 950.16 785.66 933.5"/>
    </g>
  </g>
  <rect class="st21" x="723.19" y="686.93" width="8.5" height="37" transform="translate(146.62 -124.9) rotate(10.91)"/>
  <rect class="st21" x="731.26" y="693.03" width="34.02" height="35.87" transform="translate(-91.42 1311.2) rotate(-79.09)"/>
  <rect class="st21" x="375.48" y="790.66" width="57.02" height="20.98" transform="translate(448 1697.31) rotate(-156.05)"/>
  <rect class="st21" x="421.37" y="692.9" width="56.94" height="8.5" transform="translate(577.98 1516.89) rotate(-156.05)"/>
  <polygon class="st21" points="434.3 803.13 573.39 866.58 569.97 874.36 429.7 812.47 434.3 803.13"/>
  <rect class="st21" x="526.34" y="592.5" width="34.02" height="157.93" transform="translate(-218.83 1077.86) rotate(-79.09)"/>
  <polygon class="st21" points="469.03 639.8 500.22 653.37 474.43 712.74 443.36 698.88 469.03 639.8"/>
  <rect class="st21" x="617.59" y="666.31" width="8.5" height="37.23" transform="translate(140.83 -105.29) rotate(10.91)"/>
  <rect class="st21" x="760.64" y="697.66" width="8.5" height="173.4"/>
  <rect class="st21" x="718.78" y="948.92" width="8.5" height="108.42"/>
  <rect class="st21" x="602.18" y="865.77" width="8.5" height="91.63"/>
  <rect class="st21" x="583.19" y="852.62" width="8.5" height="34.97" transform="translate(-282.67 1457.55) rotate(-90)"/>
  <rect class="st21" x="701.49" y="921.62" width="3.54" height="35.08"/>
  <rect class="st21" x="701.49" y="865.11" width="3.54" height="12.36"/>
  <rect class="st21" x="634.62" y="798.05" width="3.54" height="137.28" transform="translate(-230.3 1503.08) rotate(-90)"/>
  <rect class="st21" x="662.56" y="892.78" width="8.5" height="120.75" transform="translate(-286.33 1619.98) rotate(-90)"/>
  <rect class="st21" x="789.6" y="834.36" width="8.5" height="64.9" transform="translate(-72.94 1660.67) rotate(-90)"/>
  <rect class="st21" x="719.11" y="1048.84" width="45.1" height="8.5"/>
  <rect class="st21" x="807.89" y="1048.84" width="16.8" height="8.5"/>
  <rect class="st21" x="732.21" y="963.24" width="179.7" height="8.5" transform="translate(-145.44 1789.55) rotate(-90)"/>
  <rect class="st21" x="783.77" y="862.59" width="42.54" height="21.26" transform="translate(1610.1 1746.43) rotate(180)"/>
  <line class="st12" x1="434.3" y1="803.13" x2="474.14" y2="712.6"/>
  <g>
    <path class="st5" d="M763.89,1048.98c0-11.6,4.79-22.95,13.11-31.27,8.07-8.07,19.42-12.86,31.01-12.86"/>
    <line class="st5" x1="806.25" y1="1048.98" x2="763.89" y2="1048.98"/>
    <polyline class="st5" points="808.02 1004.85 808.02 1048.98 806.25 1048.98"/>
  </g>
  <g>
    <polyline class="st7" points="415.72 717.68 426.45 693.23 423.98 692.15 413.25 716.59 415.72 717.68"/>
    <polyline class="st6" points="388.05 780.63 414.49 720.42 412.02 719.33 385.58 779.54 388.05 780.63"/>
    <line class="st7" x1="409.35" y1="716.52" x2="421.25" y2="689.41"/>
    <polyline class="st7" points="421.36 689.16 421.19 689.55 422.02 689.91 421.49 691.12 426.43 693.29 427.13 691.69 421.36 689.16"/>
    <polyline class="st7" points="381.61 779.7 381.78 779.32 382.6 779.68 383.14 778.47 388.08 780.64 387.38 782.23 381.61 779.7"/>
    <polyline class="st7" points="409.45 716.3 409.28 716.69 410.1 717.05 409.6 718.2 414.54 720.37 415.72 717.68 410.78 715.51 410.27 716.66 409.45 716.3"/>
    <line class="st7" x1="421.51" y1="691.06" x2="410.78" y2="715.51"/>
    <line class="st7" x1="409.6" y1="718.2" x2="383.14" y2="778.47"/>
    <line class="st7" x1="423.98" y1="692.15" x2="421.51" y2="691.06"/>
    <line class="st7" x1="409.35" y1="716.52" x2="381.7" y2="779.51"/>
    <polyline class="st7" points="383.14 778.47 382.6 779.68 381.78 779.32 381.61 779.7 387.38 782.23 388.08 780.64 383.14 778.47"/>
    <line class="st10" x1="423.98" y1="692.15" x2="439.37" y2="713.52"/>
    <line class="st10" x1="413.34" y1="716.38" x2="439.49" y2="713.25"/>
    <line class="st18" x1="426.4" y1="693.21" x2="426.48" y2="693.18"/>
    <line class="st7" x1="414.54" y1="720.37" x2="388.08" y2="780.64"/>
    <line class="st7" x1="426.45" y1="693.23" x2="415.72" y2="717.68"/>
    <polyline class="st7" points="415.72 717.68 410.78 715.51 410.27 716.66 409.45 716.3 409.28 716.69 410.1 717.05 409.6 718.2 414.54 720.37 415.72 717.68"/>
    <polyline class="st7" points="422.04 689.85 421.51 691.06 426.45 693.23 427.13 691.69 421.36 689.16 421.22 689.49 422.04 689.85"/>
    <polyline class="st7" points="421.51 691.06 410.78 715.51 413.25 716.59 423.98 692.15 421.51 691.06"/>
  </g>
  <g>
    <polyline class="st7" points="656.48 678.39 630.27 673.29 630.79 670.64 657 675.73 656.48 678.39"/>
    <polyline class="st6" points="723.99 691.47 659.43 678.93 659.95 676.28 724.5 688.82 723.99 691.47"/>
    <line class="st7" x1="659.16" y1="672.49" x2="630.09" y2="666.84"/>
    <polyline class="st7" points="629.82 666.79 630.24 666.87 630.06 667.75 631.36 668.01 630.33 673.31 628.62 672.97 629.82 666.79"/>
    <polyline class="st7" points="726.89 685.64 726.48 685.56 726.31 686.45 725.01 686.2 723.98 691.5 725.69 691.83 726.89 685.64"/>
    <polyline class="st7" points="658.92 672.44 659.33 672.52 659.16 673.4 660.4 673.65 659.37 678.95 656.48 678.39 657.51 673.08 658.75 673.32 658.92 672.44"/>
    <line class="st7" x1="631.3" y1="667.99" x2="657.51" y2="673.08"/>
    <line class="st7" x1="660.4" y1="673.65" x2="725.01" y2="686.2"/>
    <line class="st7" x1="630.79" y1="670.64" x2="631.3" y2="667.99"/>
    <line class="st7" x1="659.16" y1="672.49" x2="726.68" y2="685.6"/>
    <polyline class="st7" points="725.01 686.2 726.31 686.45 726.48 685.56 726.89 685.64 725.69 691.83 723.98 691.5 725.01 686.2"/>
    <line class="st10" x1="630.79" y1="670.64" x2="639.6" y2="695.46"/>
    <line class="st10" x1="656.77" y1="675.69" x2="639.31" y2="695.4"/>
    <line class="st18" x1="630.28" y1="673.24" x2="630.21" y2="673.28"/>
    <line class="st7" x1="659.37" y1="678.95" x2="723.98" y2="691.5"/>
    <line class="st7" x1="630.27" y1="673.29" x2="656.48" y2="678.39"/>
    <polyline class="st7" points="656.48 678.39 657.51 673.08 658.75 673.32 658.92 672.44 659.33 672.52 659.16 673.4 660.4 673.65 659.37 678.95 656.48 678.39"/>
    <polyline class="st7" points="630.01 667.74 631.3 667.99 630.27 673.29 628.62 672.97 629.82 666.79 630.18 666.86 630.01 667.74"/>
    <polyline class="st7" points="631.3 667.99 657.51 673.08 657 675.74 630.79 670.64 631.3 667.99"/>
  </g>
  <polyline class="st19" points="726.05 1000.77 807.74 1000.77 807.74 870.89 705.03 870.89 705.03 951.89"/>
  <path class="st19" d="M705.03,1000.77"/>
</svg>