<?xml version="1.0" encoding="UTF-8"?>
<svg id="Vinduer_i_facade" xmlns="http://www.w3.org/2000/svg" version="1.1" viewBox="0 0 1200 1697.14">
  <!-- Generator: Adobe Illustrator 29.6.0, SVG Export Plug-In . SVG Version: 2.1.1 Build 207)  -->
  <defs>
    <style>
      .st0 {
        fill: #e2dedb;
      }

      .st1 {
        stroke-dasharray: .09 .69;
      }

      .st1, .st2, .st3, .st4, .st5, .st6, .st7, .st8 {
        stroke-width: .28px;
      }

      .st1, .st9, .st10, .st3, .st11, .st12, .st13, .st4, .st14, .st15, .st16, .st17, .st18, .st5, .st19, .st6, .st8 {
        fill: none;
      }

      .st1, .st9, .st10, .st3, .st11, .st12, .st13, .st4, .st16, .st17, .st18, .st5, .st19, .st6, .st20, .st7, .st8 {
        stroke-linecap: round;
        stroke-linejoin: round;
      }

      .st1, .st4, .st5, .st19, .st6 {
        stroke: #000;
      }

      .st21, .st2, .st22, .st9, .st10, .st3, .st11, .st12, .st13, .st14, .st15, .st16, .st17, .st20, .st7 {
        stroke: #363a3b;
      }

      .st21, .st2, .st22, .st14, .st15 {
        stroke-miterlimit: 10;
      }

      .st21, .st2, .st22, .st20, .st7 {
        fill: #fff;
      }

      .st21, .st14 {
        stroke-width: .29px;
      }

      .st22, .st12, .st15, .st16, .st18, .st20 {
        stroke-width: .28px;
      }

      .st9 {
        stroke-width: .3px;
      }

      .st10 {
        stroke-width: .28px;
      }

      .st11 {
        stroke-width: .28px;
      }

      .st13 {
        stroke-width: .29px;
      }

      .st23 {
        fill: #ece8e5;
      }

      .st16, .st17, .st19 {
        stroke-dasharray: .06 .43;
      }

      .st17, .st19 {
        stroke-width: .18px;
      }

      .st18 {
        stroke: #0e0e0e;
      }

      .st5 {
        stroke-dasharray: .09 .69;
      }

      .st6 {
        stroke-dasharray: .09 .68;
      }

      .st24 {
        fill: #302c35;
      }

      .st8 {
        stroke: #00001d;
      }
    </style>
  </defs>
  <polygon class="st23" points="692.41 733.88 692.41 740.23 560.28 740.23 560.28 733.88 479.14 733.88 479.14 1018.54 716.36 1018.54 716.36 733.88 692.41 733.88"/>
  <line class="st1" x1="559.9" y1="740.23" x2="688.06" y2="740.23"/>
  <g>
    <rect class="st7" x="459.89" y="782.13" width="110.26" height="50.38" transform="translate(-292.29 1322.34) rotate(-90)"/>
    <rect class="st7" x="501.03" y="764.18" width="27.99" height="27.57" rx="1.42" ry="1.42" transform="translate(1030.05 1555.92) rotate(180)"/>
    <polygon class="st7" points="489.19 766.61 489.19 862.74 540.21 862.74 540.21 791.47 489.19 766.61"/>
  </g>
  <g>
    <g>
      <path class="st7" d="M694.37,806.27c7.12,0,12.9,6.14,12.9,13.72,0,5.58-3.65,11.1-8.79,13.01-.7.26-2.18.79-4.11.71-6.06-.24-12.9-6.28-12.9-13.72,0-7.58,5.78-13.72,12.9-13.72Z"/>
      <path class="st3" d="M697.26,831.9c4.38,0,7.92-5.33,7.92-11.91"/>
      <path class="st3" d="M697.26,808.08c4.38,0,7.92,5.33,7.92,11.91"/>
      <path class="st3" d="M697.26,808.08c-.86,0-1.56-.68-1.56-1.53"/>
      <path class="st3" d="M697.26,831.9c-.86,0-1.56.74-1.56,1.66"/>
    </g>
    <g>
      <path class="st7" d="M650.09,806.27c-7.12,0-12.9,6.14-12.9,13.72,0,5.58,3.65,11.1,8.79,13.01.7.26,2.18.79,4.11.71,6.06-.24,12.9-6.28,12.9-13.72s-5.78-13.72-12.9-13.72Z"/>
      <path class="st3" d="M647.2,831.9c-4.38,0-7.92-5.33-7.92-11.91"/>
      <path class="st3" d="M647.2,808.08c-4.38,0-7.92,5.33-7.92,11.91"/>
      <path class="st3" d="M647.2,808.08c.86,0,1.56-.68,1.56-1.53"/>
      <path class="st3" d="M647.2,831.9c.86,0,1.56.74,1.56,1.66"/>
    </g>
    <rect class="st7" x="653.35" y="799.77" width="35.68" height="40.44"/>
  </g>
  <g>
    <path class="st7" d="M591.71,749.5c-6.26,7.8-12.52,15.61-18.78,23.41-.18.41-.03.92.37,1.24,8.31,8.71,17.89,16.2,28.33,22.15.17.1.38.09.5-.04.59-.73,1.17-1.45,1.76-2.18l16.98-21.01-29.17-23.57"/>
    <path class="st7" d="M593.32,748.01c-.68.65-1.26,1.37-1.77,2.16-.09.16-.04.37.13.51,9.16,7.76,18.44,15.35,27.86,22.78.26.16.57.13.74-.07.71-.74,1.34-1.54,1.88-2.41"/>
    <path class="st7" d="M590.63,753.26c-.57-.46.06-2.18,1.4-3.84.11-.13.22-.26.33-.39l.95-1.03c.14-.12.36-.11.52.02l28.39,22.95-1.95,2.42c-.65.78-1.3,1.55-1.96,2.33-.36.26-.89.22-1.29-.1-9.96-5.95-18.92-13.54-26.4-22.35Z"/>
    <path class="st7" d="M591.68,751.61c-.13.43-.29.84-.48,1.24-.13.51-.29,1.02-.48,1.51-.26.67-.51,1.34-.76,2.02-.34.93-.76,1.81-1.27,2.66-.31.52-.63,1.02-.98,1.52-.36.52-.73,1.05-1.11,1.56-.89,1.23-1.84,2.41-2.86,3.54-1.03,1.14-2.14,2.18-3.35,3.14-.91.72-1.88,1.34-2.93,1.88-.66.34-1.33.46-2.13.4-.07,0-.12-.03-.18-.07l-.51-.41c-.1-.16-.12-.3-.08-.47,6.07-7.51,12.14-15.02,18.21-22.53.11-.13.32-.14.48-.01l.16.13h0c.15.13.19.34.1.48-.21.35-.42.69-.63,1.04-.31.44-.58.89-.81,1.38l-.41,1.02Z"/>
    <path class="st7" d="M619.01,773.69c-.39.22-.76.46-1.12.73-.47.24-.93.5-1.37.79-.6.39-1.21.78-1.81,1.16-.84.53-1.61,1.13-2.33,1.8-.44.41-.87.83-1.28,1.27-.44.47-.87.94-1.3,1.41-1.02,1.13-1.97,2.3-2.86,3.54-.9,1.24-1.68,2.55-2.36,3.93-.51,1.04-.92,2.12-1.22,3.26-.19.72-.18,1.4.05,2.16.02.06.05.11.11.16l.51.41c.18.06.32.06.48-.02,6.07-7.51,12.14-15.02,18.21-22.53.11-.13.07-.34-.09-.47l-.16-.13h0c-.16-.12-.37-.12-.49,0-.29.28-.59.55-.88.83-.36.39-.75.75-1.18,1.08l-.91.61Z"/>
  </g>
  <circle class="st2" cx="567.65" cy="803.41" r="13.02"/>
  <g>
    <path class="st3" d="M569.58,956.55c-11.6,0-22.94-4.79-31.27-13.11-8.07-8.07-12.86-19.41-12.86-31.01"/>
    <line class="st3" x1="569.58" y1="914.19" x2="569.58" y2="956.55"/>
    <polyline class="st3" points="525.46 912.42 569.58 912.42 569.58 914.19"/>
  </g>
  <g>
    <g>
      <polyline class="st4" points="488.15 948.5 488.11 948.5 488.11 948.55"/>
      <line class="st5" x1="488.11" y1="949.24" x2="488.11" y2="992.76"/>
      <polyline class="st4" points="488.11 993.11 488.11 993.15 488.15 993.15"/>
      <line class="st6" x1="488.83" y1="993.15" x2="531.85" y2="993.15"/>
      <polyline class="st4" points="532.19 993.15 532.24 993.15 532.24 993.11"/>
      <line class="st5" x1="532.24" y1="992.42" x2="532.24" y2="948.9"/>
      <polyline class="st4" points="532.24 948.55 532.24 948.5 532.19 948.5"/>
      <line class="st6" x1="531.51" y1="948.5" x2="488.49" y2="948.5"/>
    </g>
    <g>
      <line class="st3" x1="510.14" y1="992.98" x2="510.14" y2="980.68"/>
      <path class="st7" d="M507.44,980.74c0,1.52,1.23,2.75,2.75,2.75s2.75-1.23,2.75-2.75c0-1.52-1.23-2.75-2.75-2.75s-2.75,1.23-2.75,2.75"/>
    </g>
  </g>
  <path class="st2" d="M535.35,993.75v-16.09c0-6.19,4.45-11.2,9.95-11.2s9.95,5.01,9.95,11.2v16.09s-19.9,0-19.9,0Z"/>
  <g>
    <path class="st20" d="M487.41,911.88h18.5c.41,0,.74.21.74.47v26.59c0,.32-.33.59-.74.59h-18.5"/>
    <path class="st3" d="M490.11,926.76c.55,0,1-.45,1-1s-.45-1-1-1-1,.45-1,1,.45,1,1,1"/>
    <g>
      <path class="st3" d="M498.92,926.96c.68,0,1.23-.55,1.23-1.23s-.55-1.23-1.23-1.23-1.23.55-1.23,1.23.55,1.23,1.23,1.23"/>
      <path class="st3" d="M498.92,927.55c1,0,1.82-.81,1.82-1.82s-.81-1.82-1.82-1.82-1.82.81-1.82,1.82.81,1.82,1.82,1.82"/>
    </g>
    <path class="st12" d="M493.32,913.91h10.82c.41,0,.74.23.74.52v22.61c0,.29-.33.52-.74.52h-10.82c-.41,0-.74-.23-.74-.52v-22.61c0-.29.33-.52.74-.52Z"/>
  </g>
  <g>
    <polygon class="st21" points="714.13 1010.22 714.1 972.89 714.13 942.18 679.87 942.18 679.87 1010.22 714.13 1010.22"/>
    <g>
      <g>
        <polyline class="st10" points="684.7 1003.35 705.9 1003.35 705.9 982.15 684.7 982.15 684.7 1003.35"/>
        <line class="st10" x1="700.77" y1="992.7" x2="709.3" y2="992.7"/>
      </g>
      <polyline class="st10" points="681.6 1008.52 712.4 1008.52 712.4 976.99 681.6 976.99 681.6 1008.52"/>
    </g>
    <g>
      <g>
        <line class="st13" x1="684.68" y1="952.16" x2="692.92" y2="952.16"/>
        <line class="st13" x1="700.28" y1="952.16" x2="708.52" y2="952.16"/>
        <line class="st13" x1="704.34" y1="948.35" x2="704.34" y2="956.07"/>
        <line class="st13" x1="688.85" y1="948.35" x2="688.85" y2="956.07"/>
      </g>
      <polyline class="st9" points="681.6 960.54 712.4 960.54 712.4 943.88 681.6 943.88 681.6 960.54"/>
    </g>
  </g>
  <path class="st8" d="M679.85,941.74"/>
  <line class="st3" x1="713.87" y1="942.13" x2="679.85" y2="942.13"/>
  <line class="st22" x1="713.88" y1="942.12" x2="679.86" y2="942.12"/>
  <path class="st17" d="M679.86,884.76l-16.54,23.26s7.42,4.85,16.54,4.89"/>
  <path class="st17" d="M679.86,941.32l-16.54-22.75s7.42-4.74,16.54-4.79"/>
  <rect class="st22" x="679.88" y="913.27" width="34.03" height="28.87" transform="translate(1393.79 1855.4) rotate(180)"/>
  <rect class="st22" x="679.88" y="884.45" width="34.03" height="28.87" transform="translate(1393.79 1797.76) rotate(180)"/>
  <rect class="st0" x="603.92" y="898.68" width="122.04" height="100.67" transform="translate(-284.07 1613.96) rotate(-90)"/>
  <g>
    <line class="st3" x1="710.64" y1="857.44" x2="710.64" y2="876.7"/>
    <line class="st3" x1="709.26" y1="876.7" x2="709.26" y2="857.44"/>
    <polyline class="st3" points="710.64 876.7 710.64 879.58 709.26 879.58 709.26 876.7 710.64 876.7"/>
    <polyline class="st3" points="710.64 854.62 710.64 857.44 709.26 857.44 709.26 854.62 710.64 854.62"/>
    <line class="st3" x1="713.7" y1="856.42" x2="710.88" y2="856.42"/>
    <line class="st3" x1="713.7" y1="877.59" x2="710.88" y2="877.59"/>
  </g>
  <g>
    <polygon class="st14" points="714.13 1010.22 714.1 972.89 714.13 942.18 679.87 942.18 679.87 1010.22 714.13 1010.22"/>
    <g>
      <g>
        <polyline class="st10" points="684.7 1003.35 705.9 1003.35 705.9 982.15 684.7 982.15 684.7 1003.35"/>
        <line class="st10" x1="700.77" y1="992.7" x2="709.3" y2="992.7"/>
      </g>
      <polyline class="st10" points="681.6 1008.52 712.4 1008.52 712.4 976.99 681.6 976.99 681.6 1008.52"/>
    </g>
    <g>
      <g>
        <line class="st13" x1="684.68" y1="952.16" x2="692.92" y2="952.16"/>
        <line class="st13" x1="700.28" y1="952.16" x2="708.52" y2="952.16"/>
        <line class="st13" x1="704.34" y1="948.35" x2="704.34" y2="956.07"/>
        <line class="st13" x1="688.85" y1="948.35" x2="688.85" y2="956.07"/>
      </g>
      <polyline class="st9" points="681.6 960.54 712.4 960.54 712.4 943.88 681.6 943.88 681.6 960.54"/>
    </g>
  </g>
  <path class="st8" d="M679.85,941.74"/>
  <line class="st3" x1="713.87" y1="942.13" x2="679.85" y2="942.13"/>
  <line class="st22" x1="713.88" y1="942.12" x2="679.86" y2="942.12"/>
  <path class="st17" d="M679.86,884.76l-16.54,23.26s7.42,4.85,16.54,4.89"/>
  <path class="st17" d="M679.86,941.32l-16.54-22.75s7.42-4.74,16.54-4.79"/>
  <rect class="st15" x="679.88" y="913.27" width="34.03" height="28.87" transform="translate(1393.79 1855.4) rotate(180)"/>
  <rect class="st15" x="679.88" y="884.45" width="34.03" height="28.87" transform="translate(1393.79 1797.76) rotate(180)"/>
  <rect class="st24" x="567.53" y="956.55" width="3.54" height="61.57"/>
  <rect class="st24" x="567.53" y="901.74" width="3.54" height="10.69"/>
  <rect class="st24" x="483.46" y="899.69" width="87.71" height="3.54"/>
  <rect class="st24" x="478.04" y="993.63" width="90.9" height="24.91"/>
  <rect class="st24" x="481.76" y="1010.04" width="99.32" height="8.5"/>
  <rect class="st24" x="624.33" y="1010.04" width="92.82" height="8.5"/>
  <polyline class="st24" points="689.55 726.18 696.57 726.18 696.57 679.5 688.06 679.5 688.06 736.38 689.55 736.38 689.55 726.18"/>
  <polyline class="st24" points="553.55 726.18 560.57 726.18 560.57 679.5 552.06 679.5 552.06 736.38 553.55 736.38 553.55 726.18"/>
  <rect class="st24" x="503" y="682.67" width="32.06" height="83.07" transform="translate(1243.24 205.17) rotate(90)"/>
  <rect class="st24" x="714" y="738.48" width="8.5" height="280.06"/>
  <rect class="st24" x="477.5" y="738.48" width="8.5" height="280.06"/>
  <rect class="st24" x="688.27" y="706.01" width="34.02" height="34.43" transform="translate(1428.5 17.95) rotate(90)"/>
  <g>
    <polyline class="st12" points="659.79 684.9 686.49 684.9 686.49 682.2 659.79 682.2 659.79 684.9"/>
    <polyline class="st11" points="562.32 684.87 656.79 684.87 656.79 682.17 562.32 682.17 562.32 684.87"/>
    <line class="st12" x1="658.29" y1="678.6" x2="687.9" y2="678.6"/>
    <polyline class="st12" points="688.17 678.6 687.75 678.6 687.75 679.5 686.43 679.5 686.43 684.9 688.17 684.9 688.17 678.6"/>
    <polyline class="st12" points="560.58 678.6 561 678.6 561 679.5 562.32 679.5 562.32 684.9 560.58 684.9 560.58 678.6"/>
    <polyline class="st12" points="658.53 678.6 658.11 678.6 658.11 679.5 656.85 679.5 656.85 684.9 659.79 684.9 659.79 679.5 658.53 679.5 658.53 678.6"/>
    <line class="st12" x1="686.49" y1="679.5" x2="659.79" y2="679.5"/>
    <line class="st12" x1="656.85" y1="679.5" x2="562.32" y2="679.5"/>
    <line class="st12" x1="686.49" y1="682.2" x2="686.49" y2="679.5"/>
    <line class="st12" x1="658.29" y1="678.6" x2="560.79" y2="678.6"/>
    <polyline class="st12" points="562.32 679.5 561 679.5 561 678.6 560.58 678.6 560.58 684.9 562.32 684.9 562.32 679.5"/>
    <line class="st16" x1="686.49" y1="682.2" x2="673.11" y2="704.88"/>
    <line class="st16" x1="660.02" y1="682.2" x2="673.4" y2="704.88"/>
    <line class="st18" x1="686.49" y1="684.84" x2="686.55" y2="684.9"/>
    <line class="st12" x1="656.85" y1="684.9" x2="562.32" y2="684.9"/>
    <line class="st12" x1="686.49" y1="684.9" x2="659.79" y2="684.9"/>
    <polyline class="st12" points="659.79 684.9 659.79 679.5 658.53 679.5 658.53 678.6 658.11 678.6 658.11 679.5 656.85 679.5 656.85 684.9 659.79 684.9"/>
    <polyline class="st12" points="687.81 679.5 686.49 679.5 686.49 684.9 688.17 684.9 688.17 678.6 687.81 678.6 687.81 679.5"/>
    <polyline class="st12" points="686.49 679.5 659.79 679.5 659.79 682.2 686.49 682.2 686.49 679.5"/>
  </g>
  <rect class="st24" x="485.54" y="900.25" width="2.88" height="109.52" transform="translate(973.97 1910.01) rotate(180)"/>
  <g>
    <path class="st3" d="M624.85,1010.18c0-11.6-4.79-22.95-13.11-31.27-8.07-8.07-19.42-12.86-31.01-12.86"/>
    <line class="st3" x1="582.49" y1="1010.18" x2="624.85" y2="1010.18"/>
    <polyline class="st3" points="580.72 966.05 580.72 1010.18 582.49 1010.18"/>
  </g>
  <rect class="st19" x="614.61" y="887.99" width="103.64" height="122.18"/>
</svg>