<?xml version="1.0" encoding="UTF-8"?>
<svg id="Vinduer_i_facade" xmlns="http://www.w3.org/2000/svg" version="1.1" viewBox="0 0 1200 1697.14">
  <!-- Generator: Adobe Illustrator 29.6.0, SVG Export Plug-In . SVG Version: 2.1.1 Build 207)  -->
  <defs>
    <style>
      .st0, .st1, .st2, .st3, .st4, .st5, .st6, .st7, .st8, .st9, .st10, .st11, .st12, .st13, .st14, .st15, .st16, .st17 {
        fill: none;
      }

      .st18 {
        fill: #e2dedb;
      }

      .st19, .st20, .st1, .st2, .st3, .st4, .st5, .st6, .st8, .st9, .st10, .st14, .st21, .st22 {
        stroke: #363a3b;
      }

      .st19, .st20, .st8, .st13 {
        stroke-miterlimit: 10;
      }

      .st19, .st20, .st23, .st21, .st22 {
        fill: #fff;
      }

      .st19, .st8 {
        stroke-width: .29px;
      }

      .st20, .st3, .st7, .st11, .st14, .st16, .st22, .st17 {
        stroke-width: .28px;
      }

      .st1 {
        stroke-width: .3px;
      }

      .st1, .st2, .st3, .st4, .st5, .st6, .st7, .st9, .st10, .st11, .st12, .st14, .st15, .st16, .st21, .st22, .st17 {
        stroke-linecap: round;
        stroke-linejoin: round;
      }

      .st2 {
        stroke-width: .28px;
      }

      .st4 {
        stroke-width: .28px;
      }

      .st5, .st12, .st21 {
        stroke-width: .28px;
      }

      .st6 {
        stroke-width: .29px;
      }

      .st24 {
        fill: #ece8e5;
      }

      .st7, .st11, .st15, .st16 {
        stroke: #000;
      }

      .st9 {
        stroke-width: .18px;
      }

      .st9, .st10, .st15 {
        stroke-dasharray: .06 .43;
      }

      .st10, .st15 {
        stroke-width: .18px;
      }

      .st11 {
        stroke-dasharray: .09 .69;
      }

      .st12 {
        stroke: #0e0e0e;
      }

      .st13 {
        stroke: #15bbb3;
      }

      .st14 {
        stroke-dasharray: .09 .69;
      }

      .st16 {
        stroke-dasharray: .09 .68;
      }

      .st25 {
        fill: #302c35;
      }

      .st17 {
        stroke: #00001d;
      }
    </style>
  </defs>
  <polygon class="st24" points="523.65 789.31 621.69 773.03 643.5 750.74 678.17 762.92 776.04 743.49 779.03 739.92 791.16 736.69 789.94 935.23 707.38 935.23 707.38 991.5 453.77 991.5 453.77 900.32 412.93 900.32 412.93 787.22 523.65 789.31"/>
  <line class="st14" x1="679.2" y1="762.6" x2="776.04" y2="743.49"/>
  <line class="st14" x1="523.65" y1="789.31" x2="621.71" y2="773.03"/>
  <rect class="st23" x="719.82" y="897.89" width="67.08" height="34.42"/>
  <g>
    <g>
      <line class="st0" x1="753.69" y1="897.79" x2="753.69" y2="931.5"/>
      <line class="st0" x1="753.65" y1="897.89" x2="753.65" y2="931.74"/>
      <g>
        <line class="st3" x1="719.82" y1="931.57" x2="719.82" y2="897.72"/>
        <path class="st3" d="M720.72,897.72"/>
        <line class="st3" x1="719.82" y1="897.72" x2="753.38" y2="897.72"/>
        <path class="st17" d="M753.83,897.72"/>
        <line class="st3" x1="753.38" y1="931.57" x2="753.38" y2="897.72"/>
      </g>
      <path class="st10" d="M719.82,897.55l27.36-16.54s5.71,7.42,5.76,16.54"/>
    </g>
    <g>
      <line class="st0" x1="753.08" y1="897.79" x2="753.08" y2="931.5"/>
      <line class="st0" x1="753.12" y1="897.89" x2="753.12" y2="931.74"/>
      <g>
        <line class="st3" x1="786.95" y1="931.57" x2="786.95" y2="897.72"/>
        <path class="st3" d="M786.05,897.72"/>
        <line class="st3" x1="786.95" y1="897.72" x2="753.38" y2="897.72"/>
        <path class="st17" d="M752.93,897.72"/>
        <line class="st3" x1="753.38" y1="931.57" x2="753.38" y2="897.72"/>
      </g>
      <path class="st10" d="M786.95,897.55l-27.36-16.54s-5.71,7.42-5.76,16.54"/>
    </g>
  </g>
  <polygon class="st19" points="702.91 983.04 665.57 983.02 634.87 983.05 634.87 948.79 702.91 948.79 702.91 983.04"/>
  <g>
    <g>
      <polyline class="st7" points="499.92 980.13 499.92 980.18 499.87 980.18"/>
      <line class="st11" x1="499.18" y1="980.18" x2="455.66" y2="980.18"/>
      <polyline class="st7" points="455.32 980.18 455.27 980.18 455.27 980.13"/>
      <line class="st16" x1="455.27" y1="979.45" x2="455.27" y2="936.43"/>
      <polyline class="st7" points="455.27 936.09 455.27 936.05 455.32 936.05"/>
      <line class="st11" x1="456.01" y1="936.05" x2="499.53" y2="936.05"/>
      <polyline class="st7" points="499.87 936.05 499.92 936.05 499.92 936.09"/>
      <line class="st16" x1="499.92" y1="936.77" x2="499.92" y2="979.79"/>
    </g>
    <g>
      <line class="st3" x1="455.45" y1="958.14" x2="467.75" y2="958.14"/>
      <path class="st22" d="M467.69,960.84c-1.52,0-2.75-1.23-2.75-2.75s1.23-2.75,2.75-2.75c1.52,0,2.75,1.23,2.75,2.75s-1.23,2.75-2.75,2.75"/>
    </g>
  </g>
  <path class="st20" d="M454.89,933.04h16.09c6.19,0,11.2-4.45,11.2-9.95,0-5.5-5.01-9.95-11.2-9.95h-16.09s0,19.9,0,19.9Z"/>
  <g>
    <path class="st21" d="M538.58,980.47v-18.5c0-.41-.21-.74-.47-.74h-26.59c-.32,0-.59.33-.59.74v18.5"/>
    <path class="st3" d="M523.7,977.77c0-.55.45-1,1-1s1,.45,1,1-.45,1-1,1-1-.45-1-1"/>
    <g>
      <path class="st3" d="M523.5,968.96c0-.68.55-1.23,1.23-1.23s1.23.55,1.23,1.23-.55,1.23-1.23,1.23c-.68,0-1.23-.55-1.23-1.23"/>
      <path class="st3" d="M522.91,968.96c0-1,.81-1.82,1.82-1.82s1.82.81,1.82,1.82-.81,1.82-1.82,1.82-1.82-.81-1.82-1.82"/>
    </g>
    <path class="st5" d="M536.55,974.56v-10.82c0-.41-.23-.74-.52-.74h-22.61c-.29,0-.52.33-.52.74v10.82c0,.41.23.74.52.74h22.61c.29,0,.52-.33.52-.74Z"/>
  </g>
  <g>
    <g>
      <path class="st22" d="M640.9,883.65c-7.12-.02-12.88-6.17-12.86-13.75.01-5.58,3.68-11.1,8.82-12.98.7-.26,2.18-.78,4.11-.7,6.06.26,12.88,6.31,12.86,13.75-.02,7.58-5.81,13.7-12.93,13.69Z"/>
      <path class="st3" d="M638.07,858.02c-4.38-.01-7.93,5.31-7.95,11.89"/>
      <path class="st3" d="M638.01,881.84c-4.38-.01-7.91-5.35-7.89-11.93"/>
      <path class="st3" d="M638.01,881.84c.86,0,1.56.69,1.56,1.53"/>
      <path class="st3" d="M638.07,858.02c.86,0,1.57-.74,1.57-1.65"/>
    </g>
    <g>
      <path class="st22" d="M685.17,883.77c7.12.02,12.91-6.11,12.93-13.69.01-5.58-3.62-11.11-8.75-13.03-.7-.26-2.17-.79-4.11-.72-6.06.23-12.91,6.24-12.93,13.69s5.74,13.73,12.86,13.75Z"/>
      <path class="st3" d="M688.13,858.14c4.38.01,7.91,5.35,7.89,11.93"/>
      <path class="st3" d="M688.07,881.96c4.38.01,7.93-5.31,7.95-11.89"/>
      <path class="st3" d="M688.07,881.96c-.86,0-1.57.68-1.57,1.53"/>
      <path class="st3" d="M688.13,858.14c-.86,0-1.56-.74-1.56-1.66"/>
    </g>
    <rect class="st22" x="646.27" y="849.77" width="35.68" height="40.44" transform="translate(1326.01 1741.67) rotate(-179.85)"/>
  </g>
  <g>
    <rect class="st22" x="425.32" y="841.67" width="110.26" height="50.38" transform="translate(961.42 1733.43) rotate(179.97)"/>
    <rect class="st22" x="437.1" y="853.09" width="27.99" height="27.57" rx="1.42" ry="1.42" transform="translate(1317.7 415.26) rotate(89.97)"/>
    <polygon class="st22" points="439.76 892.71 535.89 892.66 535.86 841.63 464.59 841.68 439.76 892.71"/>
  </g>
  <g>
    <path class="st22" d="M745.59,762.6c-6.26,7.8-12.52,15.61-18.78,23.41-.18.41-.03.92.37,1.24,8.31,8.71,17.89,16.2,28.33,22.15.17.1.38.09.5-.04.59-.73,1.17-1.45,1.76-2.18l16.98-21.01-29.17-23.57"/>
    <path class="st22" d="M747.2,761.11c-.68.65-1.26,1.37-1.77,2.16-.09.16-.04.37.13.51,9.16,7.76,18.44,15.35,27.86,22.78.26.16.57.13.74-.07.71-.74,1.34-1.54,1.88-2.41"/>
    <path class="st22" d="M744.51,766.36c-.57-.46.06-2.18,1.4-3.84.11-.13.22-.26.33-.39l.95-1.03c.14-.12.36-.11.52.02l28.39,22.95-1.95,2.42c-.65.78-1.3,1.55-1.96,2.33-.36.26-.89.22-1.29-.1-9.96-5.95-18.92-13.54-26.4-22.35Z"/>
    <path class="st22" d="M745.56,764.71c-.13.43-.29.84-.48,1.24-.13.51-.29,1.02-.48,1.51-.26.67-.51,1.34-.76,2.02-.34.93-.76,1.81-1.27,2.66-.31.52-.63,1.02-.98,1.52-.36.52-.73,1.05-1.11,1.56-.89,1.23-1.84,2.41-2.86,3.54-1.03,1.14-2.14,2.18-3.35,3.14-.91.72-1.88,1.34-2.93,1.88-.66.34-1.33.46-2.13.4-.07,0-.12-.03-.18-.07l-.51-.41c-.1-.16-.12-.3-.08-.47,6.07-7.51,12.14-15.02,18.21-22.53.11-.13.32-.14.48-.01l.16.13h0c.15.13.19.34.1.48-.21.35-.42.69-.63,1.04-.31.44-.58.89-.81,1.38l-.41,1.02Z"/>
    <path class="st22" d="M772.88,786.79c-.39.22-.76.46-1.12.73-.47.24-.93.5-1.37.79-.6.39-1.21.78-1.81,1.16-.84.53-1.61,1.13-2.33,1.8-.44.41-.87.83-1.28,1.27-.44.47-.87.94-1.3,1.41-1.02,1.13-1.97,2.3-2.86,3.54-.9,1.24-1.68,2.55-2.36,3.93-.51,1.04-.92,2.12-1.22,3.26-.19.72-.18,1.4.05,2.16.02.06.05.11.11.16l.51.41c.18.06.32.06.48-.02,6.07-7.51,12.14-15.02,18.21-22.53.11-.13.07-.34-.09-.47l-.16-.13h0c-.16-.12-.37-.12-.49,0-.29.28-.59.55-.88.83-.36.39-.75.75-1.18,1.08l-.91.61Z"/>
  </g>
  <circle class="st20" cx="702" cy="794.75" r="13.02"/>
  <circle class="st20" cx="458.56" cy="819.46" r="13.02"/>
  <g>
    <g>
      <polyline class="st2" points="696.04 953.62 696.04 974.81 674.84 974.81 674.84 953.62 696.04 953.62"/>
      <line class="st2" x1="685.39" y1="969.69" x2="685.39" y2="978.21"/>
    </g>
    <polyline class="st2" points="701.21 950.52 701.21 981.31 669.68 981.31 669.68 950.52 701.21 950.52"/>
  </g>
  <g>
    <g>
      <line class="st6" x1="644.85" y1="953.59" x2="644.85" y2="961.83"/>
      <line class="st6" x1="644.85" y1="969.19" x2="644.85" y2="977.43"/>
      <line class="st6" x1="641.04" y1="973.26" x2="648.76" y2="973.26"/>
      <line class="st6" x1="641.04" y1="957.77" x2="648.76" y2="957.77"/>
    </g>
    <polyline class="st1" points="653.23 950.52 653.23 981.31 636.57 981.31 636.57 950.52 653.23 950.52"/>
  </g>
  <rect class="st18" x="548.98" y="899.46" width="142.72" height="83.65"/>
  <g>
    <line class="st3" x1="554.36" y1="896.23" x2="573.63" y2="896.21"/>
    <line class="st3" x1="573.63" y1="894.83" x2="554.36" y2="894.85"/>
    <polyline class="st3" points="573.63 896.21 576.51 896.21 576.51 894.83 573.63 894.83 573.63 896.21"/>
    <polyline class="st3" points="551.54 896.24 554.36 896.23 554.36 894.85 551.54 894.86 551.54 896.24"/>
    <line class="st3" x1="553.35" y1="899.3" x2="553.34" y2="896.47"/>
    <line class="st3" x1="574.52" y1="899.27" x2="574.52" y2="896.45"/>
  </g>
  <polygon class="st8" points="702.91 983.04 665.57 983.02 634.87 983.05 634.87 948.79 702.91 948.79 702.91 983.04"/>
  <g>
    <g>
      <polyline class="st2" points="696.04 953.62 696.04 974.81 674.84 974.81 674.84 953.62 696.04 953.62"/>
      <line class="st2" x1="685.39" y1="969.69" x2="685.39" y2="978.21"/>
    </g>
    <polyline class="st2" points="701.21 950.52 701.21 981.31 669.68 981.31 669.68 950.52 701.21 950.52"/>
  </g>
  <g>
    <g>
      <line class="st6" x1="644.85" y1="953.59" x2="644.85" y2="961.83"/>
      <line class="st6" x1="644.85" y1="969.19" x2="644.85" y2="977.43"/>
      <line class="st6" x1="641.04" y1="973.26" x2="648.76" y2="973.26"/>
      <line class="st6" x1="641.04" y1="957.77" x2="648.76" y2="957.77"/>
    </g>
    <polyline class="st1" points="653.23 950.52 653.23 981.31 636.57 981.31 636.57 950.52 653.23 950.52"/>
  </g>
  <rect class="st25" x="786.89" y="739.97" width="8.5" height="199.32" transform="translate(1582.29 1679.27) rotate(-180)"/>
  <rect class="st25" x="409.67" y="797.41" width="8.5" height="107.81" transform="translate(827.85 1702.63) rotate(-180)"/>
  <rect class="st25" x="502.15" y="932.18" width="8.5" height="110.13" transform="translate(1493.65 480.84) rotate(90)"/>
  <rect class="st25" x="495.2" y="936.69" width="8.5" height="96.24" transform="translate(1484.26 485.35) rotate(90)"/>
  <rect class="st25" x="426.92" y="879.57" width="8.5" height="42.81" transform="translate(1332.14 469.8) rotate(90)"/>
  <rect class="st25" x="653.73" y="934.73" width="8.5" height="105.03" transform="translate(1645.23 329.26) rotate(90)"/>
  <rect class="st25" x="744.89" y="889.62" width="8.5" height="92.49" transform="translate(1685.01 186.72) rotate(90)"/>
  <rect class="st25" x="702.9" y="934.1" width="8.5" height="57.39"/>
  <rect class="st25" x="545.32" y="953.25" width="3.54" height="37.31"/>
  <rect class="st25" x="545.32" y="896.72" width="3.54" height="12.53"/>
  <rect class="st25" x="409.77" y="896.72" width="45.05" height="94.78"/>
  <rect class="st25" x="497.62" y="850.44" width="3.54" height="96.12" transform="translate(-399.18 1397.75) rotate(-89.99)"/>
  <polygon class="st25" points="776.67 705.65 768.33 707.31 775.68 743.6 783.84 741.05 776.67 705.65"/>
  <path class="st25" d="M678.91,762.58c-18.17,3.71-37.38,7.23-57.48,10.45l-.6-33.58c16.49-3,31.85-5.93,45.33-8.76l12.75,31.89Z"/>
  <path class="st25" d="M679.2,762.54l-8.75,1.7c-2.46-11.55-4.91-23.68-7.35-36.32l8.34-1.64,7.76,36.26Z"/>
  <path class="st25" d="M629.8,771.64l-8.38,1.44-6.44-36.49,8.38-1.44c2.39,12.37,4.54,24.54,6.44,36.49Z"/>
  <polygon class="st25" points="795.4 739.99 775.7 743.67 768.99 710.59 788.68 706.91 795.4 739.99"/>
  <g>
    <path class="st3" d="M503.08,909.12c0,11.6,4.79,22.94,13.11,31.27,8.07,8.07,19.41,12.86,31.01,12.86"/>
    <line class="st3" x1="545.44" y1="909.12" x2="503.08" y2="909.12"/>
    <polyline class="st3" points="547.21 953.25 547.21 909.12 545.44 909.12"/>
  </g>
  <g>
    <path class="st3" d="M605.61,983.17c0-11.6-4.79-22.95-13.11-31.27-8.07-8.07-19.42-12.86-31.01-12.86"/>
    <line class="st3" x1="563.25" y1="983.17" x2="605.61" y2="983.17"/>
    <polyline class="st3" points="561.49 939.05 561.49 983.17 563.25 983.17"/>
  </g>
  <g>
    <polyline class="st5" points="546.29 754.18 519.98 758.71 519.52 756.04 545.83 751.52 546.29 754.18"/>
    <polyline class="st4" points="614.05 742.49 549.24 753.64 548.78 750.98 613.59 739.83 614.05 742.49"/>
    <line class="st5" x1="546.7" y1="747.72" x2="517.52" y2="752.74"/>
    <polyline class="st5" points="517.25 752.78 517.67 752.71 517.82 753.6 519.12 753.37 520.04 758.69 518.32 758.99 517.25 752.78"/>
    <polyline class="st5" points="614.7 736.02 614.29 736.09 614.44 736.98 613.14 737.2 614.06 742.52 615.77 742.23 614.7 736.02"/>
    <polyline class="st5" points="546.46 747.76 546.88 747.69 547.03 748.57 548.27 748.36 549.19 753.68 546.29 754.18 545.38 748.86 546.62 748.64 546.46 747.76"/>
    <line class="st5" x1="519.06" y1="753.38" x2="545.38" y2="748.86"/>
    <line class="st5" x1="548.27" y1="748.36" x2="613.14" y2="737.2"/>
    <line class="st5" x1="519.52" y1="756.04" x2="519.06" y2="753.38"/>
    <line class="st5" x1="546.7" y1="747.72" x2="614.5" y2="736.06"/>
    <polyline class="st5" points="613.14 737.2 614.44 736.98 614.29 736.09 614.7 736.02 615.77 742.23 614.06 742.52 613.14 737.2"/>
    <line class="st9" x1="519.52" y1="756.04" x2="536.55" y2="776.13"/>
    <line class="st9" x1="545.61" y1="751.56" x2="536.26" y2="776.18"/>
    <line class="st12" x1="519.97" y1="758.65" x2="519.92" y2="758.72"/>
    <line class="st5" x1="549.19" y1="753.68" x2="614.06" y2="742.52"/>
    <line class="st5" x1="519.98" y1="758.71" x2="546.29" y2="754.18"/>
    <polyline class="st5" points="546.29 754.18 545.38 748.86 546.62 748.64 546.46 747.76 546.88 747.69 547.03 748.57 548.27 748.36 549.19 753.68 546.29 754.18"/>
    <polyline class="st5" points="517.76 753.61 519.06 753.38 519.98 758.71 518.32 758.99 517.25 752.78 517.61 752.72 517.76 753.61"/>
    <polyline class="st5" points="519.06 753.38 545.38 748.86 545.83 751.52 519.52 756.04 519.06 753.38"/>
  </g>
  <g>
    <polyline class="st5" points="700.39 726.33 674.21 731.61 673.68 728.96 699.85 723.68 700.39 726.33"/>
    <polyline class="st4" points="767.78 712.72 703.32 725.71 702.79 723.06 767.25 710.07 767.78 712.72"/>
    <line class="st5" x1="700.61" y1="719.86" x2="671.59" y2="725.71"/>
    <polyline class="st5" points="671.32 725.76 671.73 725.68 671.91 726.56 673.2 726.3 674.27 731.59 672.57 731.94 671.32 725.76"/>
    <polyline class="st5" points="768.25 706.23 767.84 706.31 768.02 707.19 766.72 707.45 767.79 712.75 769.5 712.4 768.25 706.23"/>
    <polyline class="st5" points="700.38 719.91 700.79 719.82 700.97 720.71 702.2 720.46 703.27 725.75 700.39 726.33 699.32 721.04 700.55 720.79 700.38 719.91"/>
    <line class="st5" x1="673.15" y1="726.31" x2="699.32" y2="721.04"/>
    <line class="st5" x1="702.2" y1="720.46" x2="766.72" y2="707.45"/>
    <line class="st5" x1="673.68" y1="728.96" x2="673.15" y2="726.31"/>
    <line class="st5" x1="700.61" y1="719.86" x2="768.05" y2="706.27"/>
    <polyline class="st5" points="766.72 707.45 768.02 707.19 767.84 706.31 768.25 706.23 769.5 712.4 767.79 712.75 766.72 707.45"/>
    <line class="st9" x1="673.68" y1="728.96" x2="691.28" y2="748.55"/>
    <line class="st9" x1="699.63" y1="723.73" x2="690.99" y2="748.61"/>
    <line class="st12" x1="674.2" y1="731.55" x2="674.15" y2="731.62"/>
    <line class="st5" x1="703.27" y1="725.75" x2="767.79" y2="712.75"/>
    <line class="st5" x1="674.21" y1="731.61" x2="700.39" y2="726.33"/>
    <polyline class="st5" points="700.39 726.33 699.32 721.04 700.55 720.79 700.38 719.91 700.79 719.82 700.97 720.71 702.2 720.46 703.27 725.75 700.39 726.33"/>
    <polyline class="st5" points="671.85 726.57 673.15 726.31 674.21 731.61 672.57 731.94 671.32 725.76 671.67 725.69 671.85 726.57"/>
    <polyline class="st5" points="673.15 726.31 699.32 721.04 699.85 723.68 673.68 728.96 673.15 726.31"/>
  </g>
  <path class="st25" d="M523.75,789.57l-6.26-36.16-8.39,1.41.44,3.05c-33.37,5.92-104.94,16.71-104.94,16.71l4.99,33.15s60.4-8.96,114.16-18.17Z"/>
  <path class="st13" d="M415.27,772.99"/>
  <rect class="st15" x="548.86" y="899.46" width="142.83" height="83.53"/>
</svg>