<?xml version="1.0" encoding="UTF-8"?>
<svg id="Vinduer_i_facade" xmlns="http://www.w3.org/2000/svg" version="1.1" viewBox="0 0 1200 1697.14">
  <!-- Generator: Adobe Illustrator 29.6.0, SVG Export Plug-In . SVG Version: 2.1.1 Build 207)  -->
  <defs>
    <style>
      .st0 {
        fill: #e2dedb;
      }

      .st1, .st2, .st3, .st4, .st5, .st6, .st7, .st8, .st9, .st10, .st11, .st12, .st13, .st14 {
        stroke: #363a3b;
      }

      .st1, .st2, .st9 {
        stroke-miterlimit: 10;
      }

      .st1, .st2, .st15, .st13, .st14 {
        fill: #fff;
      }

      .st1, .st9 {
        stroke-width: .29px;
      }

      .st2, .st5, .st16, .st17, .st12, .st18, .st14, .st19 {
        stroke-width: .28px;
      }

      .st3 {
        stroke-width: .3px;
      }

      .st3, .st4, .st5, .st6, .st7, .st8, .st16, .st9, .st10, .st11, .st20, .st17, .st12, .st21, .st18, .st19 {
        fill: none;
      }

      .st3, .st4, .st5, .st6, .st7, .st8, .st16, .st10, .st11, .st20, .st17, .st12, .st21, .st18, .st13, .st14, .st19 {
        stroke-linecap: round;
        stroke-linejoin: round;
      }

      .st4 {
        stroke-width: .28px;
      }

      .st6 {
        stroke-width: .28px;
      }

      .st7, .st20, .st13 {
        stroke-width: .28px;
      }

      .st8 {
        stroke-width: .29px;
      }

      .st22 {
        fill: #ece8e5;
      }

      .st16, .st17, .st21, .st18 {
        stroke: #000;
      }

      .st10 {
        stroke-width: .18px;
      }

      .st10, .st11, .st21 {
        stroke-dasharray: .06 .43;
      }

      .st11, .st21 {
        stroke-width: .18px;
      }

      .st20 {
        stroke: #0e0e0e;
      }

      .st17 {
        stroke-dasharray: .09 .69;
      }

      .st12 {
        stroke-dasharray: .09 .69;
      }

      .st18 {
        stroke-dasharray: .09 .68;
      }

      .st23 {
        fill: #302c35;
      }

      .st19 {
        stroke: #00001d;
      }
    </style>
  </defs>
  <polygon class="st22" points="471.84 722.22 574.69 724.05 574.69 701.68 624.79 700.35 628.75 724.06 730.76 722.58 731.65 718.08 744.51 718.52 744.51 821.39 715.24 821.39 715.24 1011.6 613.53 1011.6 613.53 978.35 529.46 978.35 529.46 885.24 455.42 885.24 455.42 703.45 471.84 722.22"/>
  <line class="st12" x1="472.36" y1="722.27" x2="571.09" y2="723.95"/>
  <line class="st12" x1="629.65" y1="723.78" x2="727.89" y2="722.34"/>
  <g>
    <g>
      <polyline class="st16" points="577.65 928.84 577.69 928.84 577.69 928.88"/>
      <line class="st17" x1="577.69" y1="929.57" x2="577.69" y2="973.09"/>
      <polyline class="st16" points="577.69 973.44 577.69 973.48 577.65 973.48"/>
      <line class="st18" x1="576.97" y1="973.48" x2="533.95" y2="973.48"/>
      <polyline class="st16" points="533.61 973.48 533.57 973.48 533.57 973.44"/>
      <line class="st17" x1="533.57" y1="972.75" x2="533.57" y2="929.23"/>
      <polyline class="st16" points="533.57 928.88 533.57 928.84 533.61 928.84"/>
      <line class="st18" x1="534.29" y1="928.84" x2="577.31" y2="928.84"/>
    </g>
    <g>
      <line class="st5" x1="555.66" y1="973.31" x2="555.66" y2="961.01"/>
      <path class="st14" d="M558.36,961.07c0,1.52-1.23,2.75-2.75,2.75s-2.75-1.23-2.75-2.75,1.23-2.75,2.75-2.75,2.75,1.23,2.75,2.75"/>
    </g>
  </g>
  <path class="st2" d="M600.69,974.53v-16.09c0-6.19-4.45-11.2-9.95-11.2-5.5,0-9.95,5.01-9.95,11.2v16.09s19.9,0,19.9,0Z"/>
  <g>
    <path class="st13" d="M532.93,919.86h18.5c.41,0,.74-.21.74-.47v-26.59c0-.32-.33-.59-.74-.59h-18.5"/>
    <path class="st5" d="M535.63,904.98c.55,0,1,.45,1,1s-.45,1-1,1-1-.45-1-1,.45-1,1-1"/>
    <g>
      <path class="st5" d="M544.44,904.77c.68,0,1.23.55,1.23,1.23s-.55,1.23-1.23,1.23-1.23-.55-1.23-1.23.55-1.23,1.23-1.23"/>
      <path class="st5" d="M544.44,904.19c1,0,1.82.81,1.82,1.82s-.81,1.82-1.82,1.82-1.82-.81-1.82-1.82.81-1.82,1.82-1.82"/>
    </g>
    <path class="st7" d="M538.84,917.83h10.82c.41,0,.74-.23.74-.52v-22.61c0-.29-.33-.52-.74-.52h-10.82c-.41,0-.74.23-.74.52v22.61c0,.29.33.52.74.52Z"/>
  </g>
  <g>
    <g>
      <path class="st14" d="M660.26,782.95c-7.12-.02-12.88-6.17-12.86-13.75.01-5.58,3.68-11.1,8.82-12.98.7-.26,2.18-.78,4.11-.7,6.06.26,12.88,6.31,12.86,13.75-.02,7.58-5.81,13.7-12.93,13.69Z"/>
      <path class="st5" d="M657.43,757.32c-4.38-.01-7.93,5.31-7.95,11.89"/>
      <path class="st5" d="M657.37,781.14c-4.38-.01-7.91-5.35-7.89-11.93"/>
      <path class="st5" d="M657.37,781.14c.86,0,1.56.69,1.56,1.53"/>
      <path class="st5" d="M657.43,757.32c.86,0,1.57-.74,1.57-1.65"/>
    </g>
    <g>
      <path class="st14" d="M704.53,783.07c7.12.02,12.91-6.11,12.93-13.69.01-5.58-3.62-11.11-8.75-13.03-.7-.26-2.17-.79-4.11-.72-6.06.23-12.91,6.24-12.93,13.69-.02,7.58,5.74,13.73,12.86,13.75Z"/>
      <path class="st5" d="M707.49,757.44c4.38.01,7.91,5.35,7.89,11.93"/>
      <path class="st5" d="M707.43,781.26c4.38.01,7.93-5.31,7.95-11.89"/>
      <path class="st5" d="M707.43,781.26c-.86,0-1.57.68-1.57,1.53"/>
      <path class="st5" d="M707.49,757.44c-.86,0-1.56-.74-1.56-1.66"/>
    </g>
    <rect class="st14" x="665.63" y="749.07" width="35.68" height="40.44" transform="translate(1364.99 1540.32) rotate(-179.85)"/>
  </g>
  <g>
    <rect class="st14" x="433.54" y="794.69" width="110.26" height="50.38" transform="translate(-330.91 1309.05) rotate(-90.03)"/>
    <rect class="st14" x="474.66" y="776.74" width="27.99" height="27.57" rx="1.42" ry="1.42" transform="translate(977.79 1580.76) rotate(179.97)"/>
    <polygon class="st14" points="462.82 779.19 462.88 875.32 513.9 875.29 513.86 804.02 462.82 779.19"/>
  </g>
  <g>
    <path class="st14" d="M566.57,872.16c-6.26-7.8-12.52-15.61-18.78-23.41-.18-.41-.03-.92.37-1.24,8.31-8.71,17.89-16.2,28.33-22.15.17-.1.38-.09.5.04.59.73,1.17,1.45,1.76,2.18l16.98,21.01-29.17,23.57"/>
    <path class="st14" d="M568.18,873.66c-.68-.65-1.26-1.37-1.77-2.16-.09-.16-.04-.37.13-.51,9.16-7.76,18.44-15.35,27.86-22.78.26-.16.57-.13.74.07.71.74,1.34,1.54,1.88,2.41"/>
    <path class="st14" d="M565.49,868.4c-.57.46.06,2.18,1.4,3.84.11.13.22.26.33.39l.95,1.03c.14.12.36.11.52-.02l28.39-22.95-1.95-2.42c-.65-.78-1.3-1.55-1.96-2.33-.36-.26-.89-.22-1.29.1-9.96,5.95-18.92,13.54-26.4,22.35Z"/>
    <path class="st14" d="M566.54,870.06c-.13-.43-.29-.84-.48-1.24-.13-.51-.29-1.02-.48-1.51-.26-.67-.51-1.34-.76-2.02-.34-.93-.76-1.81-1.27-2.66-.31-.52-.63-1.02-.98-1.52-.36-.52-.73-1.05-1.11-1.56-.89-1.23-1.84-2.41-2.86-3.54-1.03-1.14-2.14-2.18-3.35-3.14-.91-.72-1.88-1.34-2.93-1.88-.66-.34-1.33-.46-2.13-.4-.07,0-.12.03-.18.07l-.51.41c-.1.16-.12.3-.08.47,6.07,7.51,12.14,15.02,18.21,22.53.11.13.32.14.48.01l.16-.13h0c.15-.13.19-.34.1-.48-.21-.35-.42-.69-.63-1.04-.31-.44-.58-.89-.81-1.38l-.41-1.02Z"/>
    <path class="st14" d="M593.86,847.97c-.39-.22-.76-.46-1.12-.73-.47-.24-.93-.5-1.37-.79-.6-.39-1.21-.78-1.81-1.16-.84-.53-1.61-1.13-2.33-1.8-.44-.41-.87-.83-1.28-1.27-.44-.47-.87-.94-1.3-1.41-1.02-1.13-1.97-2.3-2.86-3.54-.9-1.24-1.68-2.55-2.36-3.93-.51-1.04-.92-2.12-1.22-3.26-.19-.72-.18-1.4.05-2.16.02-.06.05-.11.11-.16l.51-.41c.18-.06.32-.06.48.02,6.07,7.51,12.14,15.02,18.21,22.53.11.13.07.34-.09.47l-.16.13h0c-.16.12-.37.12-.49,0-.29-.28-.59-.55-.88-.83-.36-.39-.75-.75-1.18-1.08l-.91-.61Z"/>
  </g>
  <circle class="st2" cx="541.27" cy="810.76" r="13.02" transform="translate(-396.89 1075.64) rotate(-72.04)"/>
  <g>
    <polygon class="st1" points="711.33 825.57 711.31 862.91 711.34 893.61 677.08 893.61 677.08 825.57 711.33 825.57"/>
    <g>
      <g>
        <polyline class="st4" points="681.91 832.44 703.1 832.44 703.1 853.64 681.91 853.64 681.91 832.44"/>
        <line class="st4" x1="697.98" y1="843.1" x2="706.5" y2="843.1"/>
      </g>
      <polyline class="st4" points="678.81 827.28 709.6 827.28 709.6 858.81 678.81 858.81 678.81 827.28"/>
    </g>
    <g>
      <g>
        <line class="st8" x1="681.88" y1="883.63" x2="690.12" y2="883.63"/>
        <line class="st8" x1="697.48" y1="883.63" x2="705.72" y2="883.63"/>
        <line class="st8" x1="701.55" y1="887.44" x2="701.55" y2="879.72"/>
        <line class="st8" x1="686.06" y1="887.44" x2="686.06" y2="879.72"/>
      </g>
      <polyline class="st3" points="678.81 875.25 709.6 875.25 709.6 891.91 678.81 891.91 678.81 875.25"/>
    </g>
  </g>
  <rect class="st0" x="601.87" y="838.23" width="127.7" height="97.49" transform="translate(-221.26 1552.69) rotate(-90)"/>
  <g>
    <line class="st5" x1="619.95" y1="962" x2="619.97" y2="981.27"/>
    <line class="st5" x1="621.35" y1="981.27" x2="621.33" y2="962"/>
    <polyline class="st5" points="619.97 981.27 619.98 984.15 621.36 984.15 621.35 981.27 619.97 981.27"/>
    <polyline class="st5" points="619.95 959.18 619.95 962 621.33 962 621.33 959.18 619.95 959.18"/>
    <line class="st5" x1="616.89" y1="960.99" x2="619.71" y2="960.98"/>
    <line class="st5" x1="616.91" y1="982.16" x2="619.73" y2="982.16"/>
  </g>
  <g>
    <polygon class="st9" points="711.33 825.57 711.31 862.91 711.34 893.61 677.08 893.61 677.08 825.57 711.33 825.57"/>
    <g>
      <g>
        <polyline class="st4" points="681.91 832.44 703.1 832.44 703.1 853.64 681.91 853.64 681.91 832.44"/>
        <line class="st4" x1="697.98" y1="843.1" x2="706.5" y2="843.1"/>
      </g>
      <polyline class="st4" points="678.81 827.28 709.6 827.28 709.6 858.81 678.81 858.81 678.81 827.28"/>
    </g>
    <g>
      <g>
        <line class="st8" x1="681.88" y1="883.63" x2="690.12" y2="883.63"/>
        <line class="st8" x1="697.48" y1="883.63" x2="705.72" y2="883.63"/>
        <line class="st8" x1="701.55" y1="887.44" x2="701.55" y2="879.72"/>
        <line class="st8" x1="686.06" y1="887.44" x2="686.06" y2="879.72"/>
      </g>
      <polyline class="st3" points="678.81 875.25 709.6 875.25 709.6 891.91 678.81 891.91 678.81 875.25"/>
    </g>
  </g>
  <rect class="st23" x="740.39" y="690.81" width="8.5" height="134.79" transform="translate(1489.29 1516.41) rotate(180)"/>
  <rect class="st23" x="608.55" y="977.55" width="8.5" height="33.3" transform="translate(1225.61 1988.4) rotate(180)"/>
  <rect class="st23" x="711.08" y="820.73" width="8.5" height="190.13" transform="translate(1430.67 1831.57) rotate(180)"/>
  <rect class="st23" x="727.81" y="685.39" width="8.5" height="37" transform="translate(-9.66 10.19) rotate(-.79)"/>
  <rect class="st23" x="727.93" y="688.21" width="24.77" height="34.02" transform="translate(-9.68 10.3) rotate(-.79)"/>
  <rect class="st23" x="451.1" y="690.81" width="8.5" height="196.27"/>
  <rect class="st23" x="463.69" y="685.68" width="8.5" height="36.7" transform="translate(926.1 1414.47) rotate(-179.21)"/>
  <rect class="st23" x="447.3" y="688.21" width="24.77" height="34.02" transform="translate(909.58 1416.72) rotate(-179.21)"/>
  <polygon class="st23" points="629.22 723.94 628.71 686.95 620.17 687.07 620.26 693.59 579.84 693.59 579.93 687.07 571.39 686.95 570.88 723.94 579.42 723.99 620.68 724.06 629.22 723.94"/>
  <rect class="st23" x="451.09" y="879.77" width="78.81" height="8.5"/>
  <rect class="st23" x="478.69" y="927.99" width="100.32" height="8.5" transform="translate(-403.39 1461.1) rotate(-90)"/>
  <rect class="st23" x="525.35" y="973.9" width="91.69" height="8.5" transform="translate(1142.38 1956.3) rotate(180)"/>
  <rect class="st23" x="608.51" y="1003.87" width="48.42" height="8.5" transform="translate(1265.43 2016.24) rotate(180)"/>
  <rect class="st23" x="700.18" y="1003.87" width="19.41" height="8.5" transform="translate(1419.76 2016.23) rotate(180)"/>
  <rect class="st23" x="676.9" y="817.15" width="70.49" height="8.5"/>
  <rect class="st23" x="528.62" y="879.77" width="88.46" height="3.54"/>
  <rect class="st23" x="609.64" y="885.2" width="11.32" height="3.54" transform="translate(-271.67 1502.28) rotate(-90)"/>
  <rect class="st23" x="578.29" y="971.82" width="74.02" height="3.54" transform="translate(-358.28 1588.89) rotate(-90)"/>
  <g>
    <path class="st5" d="M571.12,892.53c0,11.6,4.79,22.94,13.11,31.27,8.07,8.07,19.41,12.86,31.01,12.86"/>
    <line class="st5" x1="613.48" y1="892.53" x2="571.12" y2="892.53"/>
    <polyline class="st5" points="615.25 936.66 615.25 892.53 613.48 892.53"/>
  </g>
  <g>
    <path class="st5" d="M656.73,1004.1c0-11.6,4.79-22.95,13.11-31.27,8.07-8.07,19.42-12.86,31.01-12.86"/>
    <line class="st5" x1="699.09" y1="1004.1" x2="656.73" y2="1004.1"/>
    <polyline class="st5" points="700.86 959.98 700.86 1004.1 699.09 1004.1"/>
  </g>
  <polyline class="st7" points="657.22 692.15 630.53 692.55 630.48 689.85 657.18 689.45 657.22 692.15"/>
  <polyline class="st6" points="725.97 691.07 660.22 692.07 660.18 689.37 725.93 688.37 725.97 691.07"/>
  <line class="st7" x1="658.63" y1="685.82" x2="629.02" y2="686.28"/>
  <polyline class="st7" points="628.75 686.28 629.17 686.27 629.18 687.17 630.5 687.15 630.59 692.55 628.85 692.58 628.75 686.28"/>
  <polyline class="st7" points="727.62 684.77 727.2 684.78 727.21 685.68 725.89 685.7 725.98 691.1 727.71 691.07 727.62 684.77"/>
  <polyline class="st7" points="658.39 685.83 658.81 685.82 658.82 686.72 660.08 686.7 660.16 692.1 657.22 692.15 657.14 686.75 658.4 686.73 658.39 685.83"/>
  <line class="st7" x1="630.44" y1="687.15" x2="657.14" y2="686.75"/>
  <line class="st7" x1="660.08" y1="686.7" x2="725.89" y2="685.7"/>
  <line class="st7" x1="630.48" y1="689.85" x2="630.44" y2="687.15"/>
  <line class="st7" x1="658.63" y1="685.82" x2="727.41" y2="684.78"/>
  <polyline class="st7" points="725.89 685.7 727.21 685.68 727.2 684.78 727.62 684.77 727.71 691.07 725.98 691.1 725.89 685.7"/>
  <line class="st10" x1="630.48" y1="689.85" x2="644.21" y2="712.33"/>
  <line class="st10" x1="656.95" y1="689.45" x2="643.92" y2="712.33"/>
  <line class="st20" x1="630.53" y1="692.49" x2="630.47" y2="692.55"/>
  <line class="st7" x1="660.16" y1="692.1" x2="725.98" y2="691.1"/>
  <line class="st7" x1="630.53" y1="692.55" x2="657.22" y2="692.15"/>
  <polyline class="st7" points="657.22 692.15 657.14 686.75 658.4 686.73 658.39 685.83 658.81 685.82 658.82 686.72 660.08 686.7 660.16 692.1 657.22 692.15"/>
  <polyline class="st7" points="629.12 687.17 630.44 687.15 630.53 692.55 628.85 692.58 628.75 686.28 629.11 686.27 629.12 687.17"/>
  <polyline class="st7" points="630.44 687.15 657.14 686.75 657.18 689.45 630.48 689.85 630.44 687.15"/>
  <g>
    <polyline class="st7" points="500.74 691.55 474.04 691.25 474.07 688.55 500.77 688.85 500.74 691.55"/>
    <polyline class="st6" points="569.49 692.3 503.74 691.56 503.77 688.86 569.52 689.6 569.49 692.3"/>
    <line class="st7" x1="502.31" y1="685.27" x2="472.7" y2="684.93"/>
    <polyline class="st7" points="472.43 684.93 472.85 684.94 472.84 685.84 474.16 685.85 474.1 691.25 472.36 691.23 472.43 684.93"/>
    <polyline class="st7" points="571.3 686.05 570.88 686.05 570.87 686.95 569.55 686.93 569.49 692.33 571.23 692.35 571.3 686.05"/>
    <polyline class="st7" points="502.07 685.27 502.49 685.27 502.48 686.17 503.74 686.19 503.68 691.59 500.74 691.55 500.8 686.15 502.06 686.17 502.07 685.27"/>
    <line class="st7" x1="474.1" y1="685.85" x2="500.8" y2="686.15"/>
    <line class="st7" x1="503.74" y1="686.19" x2="569.55" y2="686.93"/>
    <line class="st7" x1="474.07" y1="688.55" x2="474.1" y2="685.85"/>
    <line class="st7" x1="502.31" y1="685.27" x2="571.09" y2="686.05"/>
    <polyline class="st7" points="569.55 686.93 570.87 686.95 570.88 686.05 571.3 686.05 571.23 692.35 569.49 692.33 569.55 686.93"/>
    <line class="st10" x1="474.07" y1="688.55" x2="487.19" y2="711.38"/>
    <line class="st10" x1="500.54" y1="688.85" x2="486.9" y2="711.38"/>
    <line class="st20" x1="474.04" y1="691.19" x2="473.98" y2="691.25"/>
    <line class="st7" x1="503.68" y1="691.59" x2="569.49" y2="692.33"/>
    <line class="st7" x1="474.04" y1="691.25" x2="500.74" y2="691.55"/>
    <polyline class="st7" points="500.74 691.55 500.8 686.15 502.06 686.17 502.07 685.27 502.49 685.27 502.48 686.17 503.74 686.19 503.68 691.59 500.74 691.55"/>
    <polyline class="st7" points="472.78 685.84 474.1 685.85 474.04 691.25 472.36 691.23 472.43 684.93 472.79 684.94 472.78 685.84"/>
    <polyline class="st7" points="474.1 685.85 500.8 686.15 500.77 688.85 474.07 688.55 474.1 685.85"/>
  </g>
  <path class="st15" d="M711.37,895.93"/>
  <path class="st15" d="M677.35,895.93"/>
  <g>
    <line class="st5" x1="711.1" y1="918.21" x2="677.08" y2="918.21"/>
    <line class="st5" x1="677.08" y1="918.21" x2="677.08" y2="893.4"/>
    <path class="st19" d="M677.08,893.01"/>
    <path class="st5" d="M677.57,893.45"/>
    <path class="st5" d="M711.59,893.45"/>
  </g>
  <path class="st11" d="M677.18,918.33l-16.54-19.53s7.42-4.36,16.54-4.4"/>
  <g>
    <line class="st5" x1="711.1" y1="942.18" x2="677.08" y2="942.18"/>
    <line class="st5" x1="677.08" y1="942.18" x2="677.08" y2="917.37"/>
    <path class="st19" d="M677.08,916.98"/>
    <path class="st5" d="M677.57,917.42"/>
    <path class="st5" d="M711.59,917.42"/>
  </g>
  <path class="st11" d="M677.18,942.3l-16.54-19.53s7.42-4.36,16.54-4.4"/>
  <rect class="st21" x="617.08" y="823.13" width="95.95" height="128.03"/>
</svg>