<?xml version="1.0" encoding="UTF-8"?>
<svg id="Vinduer_i_facade" xmlns="http://www.w3.org/2000/svg" version="1.1" viewBox="0 0 1200 1697.14">
  <!-- Generator: Adobe Illustrator 29.6.0, SVG Export Plug-In . SVG Version: 2.1.1 Build 207)  -->
  <defs>
    <style>
      .st0 {
        stroke-dasharray: .08 .57;
        stroke-width: .19px;
      }

      .st0, .st1, .st2, .st3, .st4, .st5, .st6, .st7, .st8, .st9, .st10, .st11, .st12, .st13, .st14, .st15, .st16, .st17, .st18 {
        stroke: #363a3b;
      }

      .st0, .st2, .st3, .st4, .st5, .st6, .st7, .st8, .st9, .st10, .st11, .st19, .st12, .st13, .st20, .st21, .st22, .st14, .st15, .st16, .st23 {
        fill: none;
      }

      .st0, .st2, .st3, .st4, .st5, .st6, .st7, .st8, .st9, .st10, .st11, .st19, .st13, .st20, .st21, .st22, .st14, .st15, .st16, .st17, .st18, .st23 {
        stroke-linejoin: round;
      }

      .st0, .st2, .st3, .st4, .st5, .st6, .st7, .st8, .st9, .st10, .st11, .st19, .st13, .st20, .st21, .st22, .st17, .st18, .st23 {
        stroke-linecap: round;
      }

      .st24 {
        fill: #e2dedb;
      }

      .st1, .st6, .st19, .st20, .st22, .st18, .st23 {
        stroke-width: .28px;
      }

      .st1, .st12 {
        stroke-miterlimit: 10;
      }

      .st1, .st25, .st17, .st18 {
        fill: #fff;
      }

      .st2 {
        stroke-width: .3px;
      }

      .st3 {
        stroke-width: .31px;
      }

      .st4 {
        stroke-width: .3px;
      }

      .st5 {
        stroke-width: .28px;
      }

      .st7, .st14 {
        stroke-width: .28px;
      }

      .st8, .st17 {
        stroke-width: .28px;
      }

      .st9 {
        stroke-width: .28px;
      }

      .st10 {
        stroke-width: .28px;
      }

      .st11 {
        stroke-width: .29px;
      }

      .st26 {
        fill: #ece8e5;
      }

      .st19, .st20, .st21, .st22 {
        stroke: #000;
      }

      .st12 {
        stroke-width: .29px;
      }

      .st13, .st21 {
        stroke-dasharray: .06 .43;
        stroke-width: .18px;
      }

      .st20 {
        stroke-dasharray: .09 .69;
      }

      .st22 {
        stroke-dasharray: .09 .68;
      }

      .st27 {
        fill: #302c35;
      }

      .st15 {
        stroke-width: .29px;
      }

      .st16 {
        stroke-width: .28px;
      }

      .st23 {
        stroke: #00001d;
      }
    </style>
  </defs>
  <polygon class="st26" points="719.06 834.73 719.06 709.25 479.63 709.25 479.63 882.62 517.84 882.62 517.84 1008.09 719.47 1008.09 719.47 834.73 719.06 834.73"/>
  <rect class="st24" x="604.33" y="849.81" width="112.14" height="114.39"/>
  <g>
    <polygon class="st12" points="714.8 926.63 714.77 889.29 714.8 858.59 680.54 858.59 680.54 926.63 714.8 926.63"/>
    <g>
      <g>
        <polyline class="st5" points="685.37 919.76 706.57 919.76 706.57 898.56 685.37 898.56 685.37 919.76"/>
        <line class="st5" x1="701.44" y1="909.1" x2="709.96" y2="909.1"/>
      </g>
      <polyline class="st5" points="682.27 924.93 713.07 924.93 713.07 893.4 682.27 893.4 682.27 924.93"/>
    </g>
    <g>
      <g>
        <line class="st11" x1="685.34" y1="868.57" x2="693.58" y2="868.57"/>
        <line class="st11" x1="700.95" y1="868.57" x2="709.19" y2="868.57"/>
        <line class="st11" x1="705.01" y1="864.76" x2="705.01" y2="872.48"/>
        <line class="st11" x1="689.52" y1="864.76" x2="689.52" y2="872.48"/>
      </g>
      <polyline class="st2" points="682.27 876.95 713.07 876.95 713.07 860.29 682.27 860.29 682.27 876.95"/>
    </g>
  </g>
  <path class="st23" d="M680.52,858.15"/>
  <line class="st6" x1="714.54" y1="858.54" x2="680.52" y2="858.54"/>
  <polyline class="st25" points="680.69 849.69 680.69 800.83 714.71 800.83 714.71 849.69"/>
  <g>
    <line class="st6" x1="714.55" y1="858.53" x2="680.53" y2="858.53"/>
    <g>
      <line class="st6" x1="714.55" y1="829.76" x2="680.53" y2="829.76"/>
      <line class="st6" x1="680.53" y1="828.99" x2="680.53" y2="858.47"/>
      <line class="st6" x1="680.53" y1="828.99" x2="680.53" y2="801.05"/>
      <path class="st23" d="M680.53,800.67"/>
      <line class="st6" x1="714.55" y1="801.05" x2="680.53" y2="801.05"/>
    </g>
  </g>
  <g>
    <g>
      <polyline class="st19" points="521.06 930.25 521.01 930.25 521.01 930.3"/>
      <line class="st20" x1="521.01" y1="930.99" x2="521.01" y2="974.51"/>
      <polyline class="st19" points="521.01 974.85 521.01 974.9 521.06 974.9"/>
      <line class="st22" x1="521.74" y1="974.9" x2="564.76" y2="974.9"/>
      <polyline class="st19" points="565.1 974.9 565.14 974.9 565.14 974.85"/>
      <line class="st20" x1="565.14" y1="974.16" x2="565.14" y2="930.64"/>
      <polyline class="st19" points="565.14 930.3 565.14 930.25 565.1 930.25"/>
      <line class="st22" x1="564.42" y1="930.25" x2="521.4" y2="930.25"/>
    </g>
    <g>
      <line class="st6" x1="543.05" y1="974.72" x2="543.05" y2="962.42"/>
      <path class="st18" d="M540.35,962.48c0,1.52,1.23,2.75,2.75,2.75s2.75-1.23,2.75-2.75-1.23-2.75-2.75-2.75-2.75,1.23-2.75,2.75"/>
    </g>
  </g>
  <path class="st1" d="M568.92,975.5v-16.09c0-6.19,4.45-11.2,9.95-11.2,5.5,0,9.95,5.01,9.95,11.2v16.09s-19.9,0-19.9,0Z"/>
  <g>
    <path class="st17" d="M520.27,893.63h18.5c.41,0,.74.21.74.47v26.59c0,.32-.33.59-.74.59h-18.5"/>
    <path class="st6" d="M522.97,908.51c.55,0,1-.45,1-1s-.45-1-1-1-1,.45-1,1,.45,1,1,1"/>
    <g>
      <path class="st6" d="M531.78,908.71c.68,0,1.23-.55,1.23-1.23s-.55-1.23-1.23-1.23-1.23.55-1.23,1.23.55,1.23,1.23,1.23"/>
      <path class="st6" d="M531.78,909.3c1,0,1.82-.81,1.82-1.82s-.81-1.82-1.82-1.82-1.82.81-1.82,1.82.81,1.82,1.82,1.82"/>
    </g>
    <path class="st8" d="M526.18,895.66h10.82c.41,0,.74.23.74.52v22.61c0,.29-.33.52-.74.52h-10.82c-.41,0-.74-.23-.74-.52v-22.61c0-.29.33-.52.74-.52Z"/>
  </g>
  <g>
    <g>
      <path class="st18" d="M641.78,750.73c-7.12,0-12.9,6.14-12.9,13.72,0,5.58,3.65,11.1,8.79,13.01.7.26,2.18.79,4.11.71,6.06-.24,12.9-6.28,12.9-13.72s-5.78-13.72-12.9-13.72Z"/>
      <path class="st6" d="M638.89,776.36c-4.38,0-7.92-5.33-7.92-11.91"/>
      <path class="st6" d="M638.89,752.54c-4.38,0-7.92,5.33-7.92,11.91"/>
      <path class="st6" d="M638.89,752.54c.86,0,1.56-.68,1.56-1.53"/>
      <path class="st6" d="M638.89,776.36c.86,0,1.56.74,1.56,1.66"/>
    </g>
    <g>
      <path class="st18" d="M686.06,750.73c7.12,0,12.9,6.14,12.9,13.72,0,5.58-3.65,11.1-8.79,13.01-.7.26-2.18.79-4.11.71-6.06-.24-12.9-6.28-12.9-13.72s5.78-13.72,12.9-13.72Z"/>
      <path class="st6" d="M688.95,776.36c4.38,0,7.92-5.33,7.92-11.91"/>
      <path class="st6" d="M688.95,752.54c4.38,0,7.92,5.33,7.92,11.91"/>
      <path class="st6" d="M688.95,752.54c-.86,0-1.56-.68-1.56-1.53"/>
      <path class="st6" d="M688.95,776.36c-.86,0-1.56.74-1.56,1.66"/>
    </g>
    <rect class="st18" x="647.13" y="744.23" width="35.68" height="40.44" transform="translate(1329.93 1528.91) rotate(-180)"/>
  </g>
  <g>
    <rect class="st18" x="456.48" y="798.89" width="110.26" height="50.38" transform="translate(1335.7 312.47) rotate(90)"/>
    <rect class="st18" x="497.62" y="839.66" width="27.99" height="27.57" rx="1.42" ry="1.42"/>
    <polygon class="st18" points="537.45 864.79 537.45 768.67 486.43 768.67 486.43 839.93 537.45 864.79"/>
  </g>
  <circle class="st1" cx="563.19" cy="795.95" r="13.02"/>
  <g>
    <path class="st18" d="M573.69,732.33c-5.98,8.02-11.96,16.04-17.94,24.06-.17.41,0,.92.42,1.23,8.62,8.41,18.45,15.55,29.1,21.14.18.1.38.07.5-.06.56-.75,1.12-1.49,1.68-2.24l16.23-21.6-29.98-22.53"/>
    <path class="st18" d="M575.24,730.77c-.65.68-1.21,1.41-1.69,2.22-.09.16-.02.38.15.5,9.42,7.43,18.97,14.69,28.65,21.78.26.15.58.11.74-.09.69-.77,1.28-1.59,1.8-2.48"/>
    <path class="st18" d="M572.74,736.12c-.58-.44-.02-2.18,1.27-3.89.11-.13.21-.27.32-.4l.91-1.06c.13-.13.35-.13.52,0l29.19,21.93-1.87,2.48c-.62.8-1.25,1.6-1.87,2.4-.35.27-.89.25-1.29-.06-10.16-5.59-19.38-12.86-27.18-21.41Z"/>
    <path class="st18" d="M573.73,734.43c-.12.43-.26.85-.43,1.26-.12.52-.26,1.03-.43,1.52-.23.68-.46,1.36-.69,2.04-.31.94-.7,1.84-1.17,2.7-.29.53-.6,1.04-.92,1.55-.35.54-.7,1.07-1.05,1.6-.84,1.26-1.75,2.47-2.73,3.64-.99,1.17-2.06,2.25-3.24,3.25-.88.75-1.83,1.41-2.86,1.98-.65.36-1.31.51-2.11.48-.07,0-.12-.02-.18-.07l-.53-.4c-.11-.16-.13-.3-.1-.47,5.8-7.72,11.6-15.44,17.4-23.16.1-.14.32-.15.48-.03l.16.12h0c.16.12.21.33.12.48-.2.35-.39.71-.59,1.06-.29.45-.54.91-.76,1.41l-.37,1.03Z"/>
    <path class="st18" d="M601.82,755.54c-.38.23-.74.49-1.09.77-.47.26-.91.53-1.34.84-.59.41-1.18.82-1.77,1.23-.82.56-1.57,1.18-2.27,1.88-.43.43-.84.86-1.23,1.32-.42.48-.83.97-1.25,1.45-.98,1.16-1.89,2.37-2.73,3.64-.85,1.28-1.59,2.61-2.22,4.02-.48,1.06-.84,2.15-1.11,3.3-.17.73-.13,1.4.13,2.16.02.06.06.11.11.15l.53.4c.18.06.32.05.48-.03,5.8-7.72,11.6-15.44,17.4-23.16.1-.14.06-.35-.1-.47l-.16-.12h0c-.16-.12-.37-.11-.49.02-.28.29-.57.57-.85.86-.35.41-.73.78-1.14,1.12l-.89.65Z"/>
  </g>
  <g>
    <line class="st6" x1="607.62" y1="972.28" x2="607.62" y2="991.54"/>
    <line class="st6" x1="609" y1="991.54" x2="609" y2="972.28"/>
    <polyline class="st6" points="607.62 991.54 607.62 994.42 609 994.42 609 991.54 607.62 991.54"/>
    <polyline class="st6" points="607.62 969.46 607.62 972.28 609 972.28 609 969.46 607.62 969.46"/>
    <line class="st6" x1="604.56" y1="971.26" x2="607.38" y2="971.26"/>
    <line class="st6" x1="604.56" y1="992.43" x2="607.38" y2="992.43"/>
  </g>
  <rect class="st27" x="516.98" y="975.41" width="87.15" height="32.65"/>
  <rect class="st27" x="600.08" y="999.54" width="62.53" height="8.5"/>
  <rect class="st27" x="706.51" y="999.54" width="16.63" height="8.5"/>
  <rect class="st27" x="476.54" y="881.06" width="127.79" height="3.54"/>
  <rect class="st27" x="580.97" y="689.05" width="37.57" height="34.02"/>
  <rect class="st27" x="707.06" y="689.05" width="21.64" height="34.1"/>
  <rect class="st27" x="714.64" y="716.99" width="8.5" height="287.98"/>
  <rect class="st27" x="600.79" y="937.74" width="3.54" height="70.3"/>
  <rect class="st27" x="600.79" y="881.29" width="3.54" height="12.41"/>
  <rect class="st27" x="471.3" y="689.05" width="21.26" height="34.02"/>
  <rect class="st27" x="476.54" y="715.61" width="8.5" height="168.99"/>
  <rect class="st27" x="516.99" y="882.53" width="3.54" height="95.97"/>
  <path class="st13" d="M680.53,801.17l-16.54,23.26s7.42,4.85,16.54,4.89"/>
  <path class="st13" d="M680.53,857.73l-16.54-22.75s7.42-4.74,16.54-4.79"/>
  <g>
    <path class="st6" d="M602.64,937.74c-11.6,0-22.94-4.79-31.27-13.11-8.07-8.07-12.86-19.41-12.86-31.01"/>
    <line class="st6" x1="602.64" y1="895.38" x2="602.64" y2="937.74"/>
    <polyline class="st6" points="558.52 893.62 602.64 893.62 602.64 895.38"/>
  </g>
  <g>
    <path class="st6" d="M662.53,999.7c0-11.6,4.79-22.95,13.11-31.27,8.07-8.07,19.42-12.86,31.01-12.86"/>
    <line class="st6" x1="704.89" y1="999.7" x2="662.53" y2="999.7"/>
    <polyline class="st6" points="706.65 955.58 706.65 999.7 704.89 999.7"/>
  </g>
  <g>
    <g>
      <path class="st0" d="M550.26,709.18c.01,15.52-4.79,27.77-15.77,39.21-10.64,11.09-25.64,17.62-41,17.69"/>
      <path class="st0" d="M551.68,708.96"/>
      <path class="st0" d="M493.24,709.2"/>
      <line class="st0" x1="493.49" y1="766.08" x2="493.24" y2="709.2"/>
    </g>
    <line class="st8" x1="523.77" y1="702.94" x2="493.74" y2="702.94"/>
    <polyline class="st8" points="547.06 707.02 496.2 707.02 496.2 704.26 547.06 704.26 547.06 707.02"/>
    <line class="st8" x1="526.39" y1="709.18" x2="577.39" y2="709.18"/>
    <line class="st8" x1="579.85" y1="709.18" x2="524.23" y2="709.18"/>
    <line class="st8" x1="526.39" y1="709.18" x2="577.39" y2="709.18"/>
    <line class="st8" x1="579.85" y1="709.18" x2="496.2" y2="709.18"/>
    <line class="st8" x1="526.39" y1="709.18" x2="577.39" y2="709.18"/>
    <line class="st7" x1="579.85" y1="702.94" x2="523.31" y2="702.94"/>
    <line class="st8" x1="580.36" y1="700.66" x2="493.24" y2="700.66"/>
    <polyline class="st3" points="580.63 709.18 578.68 709.18 578.68 703.74 579.85 703.74 579.85 702.82 580.63 702.82 580.63 709.18"/>
    <polyline class="st8" points="578.68 707.02 551.2 707.02 551.2 704.26 578.68 704.26 578.68 707.02"/>
    <polyline class="st3" points="492.97 709.18 496.2 709.18 496.2 703.74 493.74 703.74 493.74 702.82 492.97 702.82 492.97 709.18"/>
    <rect class="st8" x="493.24" y="699.82" width=".54" height="1.74" transform="translate(987.01 1401.39) rotate(180)"/>
    <rect class="st8" x="497.8" y="699.82" width=".54" height="1.74" transform="translate(996.13 1401.39) rotate(180)"/>
    <rect class="st8" x="502.36" y="699.82" width=".54" height="1.74" transform="translate(1005.25 1401.39) rotate(180)"/>
    <rect class="st8" x="506.92" y="699.82" width=".54" height="1.74" transform="translate(1014.37 1401.39) rotate(180)"/>
    <rect class="st8" x="511.45" y="699.82" width=".54" height="1.74" transform="translate(1023.43 1401.39) rotate(180)"/>
    <rect class="st8" x="516.01" y="699.82" width=".54" height="1.74" transform="translate(1032.55 1401.39) rotate(180)"/>
    <rect class="st8" x="520.57" y="699.82" width=".54" height="1.74" transform="translate(1041.67 1401.39) rotate(180)"/>
    <rect class="st8" x="525.13" y="699.82" width=".54" height="1.74" transform="translate(1050.79 1401.39) rotate(180)"/>
    <rect class="st8" x="529.69" y="699.82" width=".54" height="1.74" transform="translate(1059.91 1401.39) rotate(180)"/>
    <rect class="st8" x="534.25" y="699.82" width=".54" height="1.74" transform="translate(1069.03 1401.39) rotate(180)"/>
    <rect class="st8" x="538.81" y="699.82" width=".54" height="1.74" transform="translate(1078.15 1401.39) rotate(180)"/>
    <rect class="st8" x="543.37" y="699.82" width=".54" height="1.74" transform="translate(1087.27 1401.39) rotate(180)"/>
    <rect class="st8" x="547.9" y="699.79" width=".54" height="1.74" transform="translate(1096.33 1401.33) rotate(180)"/>
    <rect class="st8" x="552.46" y="699.79" width=".54" height="1.74" transform="translate(1105.45 1401.33) rotate(180)"/>
    <rect class="st8" x="557.02" y="699.79" width=".54" height="1.74" transform="translate(1114.57 1401.33) rotate(180)"/>
    <rect class="st8" x="561.58" y="699.79" width=".54" height="1.74" transform="translate(1123.69 1401.33) rotate(180)"/>
    <rect class="st8" x="566.14" y="699.79" width=".54" height="1.74" transform="translate(1132.81 1401.33) rotate(180)"/>
    <rect class="st8" x="570.7" y="699.79" width=".54" height="1.74" transform="translate(1141.93 1401.33) rotate(180)"/>
    <rect class="st8" x="575.26" y="699.79" width=".54" height="1.74" transform="translate(1151.05 1401.33) rotate(180)"/>
    <rect class="st8" x="579.82" y="699.79" width=".54" height="1.74" transform="translate(1160.17 1401.33) rotate(180)"/>
    <line class="st10" x1="547.06" y1="703.73" x2="578.68" y2="703.73"/>
    <line class="st16" x1="493.74" y1="703.73" x2="547.06" y2="703.74"/>
    <g>
      <polyline class="st9" points="550.25 702.82 549.34 702.82 549.34 709.18 551.19 709.18 551.19 703.74 550.25 703.74 550.25 702.82"/>
      <polyline class="st15" points="549.34 703.74 547.05 703.74 547.05 709.18"/>
      <polyline class="st4" points="547.05 709.18 550.25 709.18 550.25 702.82 550.25 702.82 549.34 702.82"/>
    </g>
    <line class="st14" x1="581.15" y1="703.98" x2="580.65" y2="703.98"/>
    <line class="st14" x1="492.96" y1="703.98" x2="492.46" y2="703.98"/>
  </g>
  <g>
    <g>
      <path class="st0" d="M676.33,709.18c.01,15.52-4.79,27.77-15.77,39.21-10.64,11.09-25.64,17.62-41,17.69"/>
      <path class="st0" d="M677.75,708.96"/>
      <path class="st0" d="M619.31,709.2"/>
      <line class="st0" x1="619.56" y1="766.08" x2="619.31" y2="709.2"/>
    </g>
    <line class="st8" x1="649.84" y1="702.94" x2="619.81" y2="702.94"/>
    <polyline class="st8" points="673.13 707.02 622.27 707.02 622.27 704.26 673.13 704.26 673.13 707.02"/>
    <line class="st8" x1="652.46" y1="709.18" x2="703.46" y2="709.18"/>
    <line class="st8" x1="705.92" y1="709.18" x2="650.3" y2="709.18"/>
    <line class="st8" x1="652.46" y1="709.18" x2="703.46" y2="709.18"/>
    <line class="st8" x1="705.92" y1="709.18" x2="622.27" y2="709.18"/>
    <line class="st8" x1="652.46" y1="709.18" x2="703.46" y2="709.18"/>
    <line class="st7" x1="705.92" y1="702.94" x2="649.38" y2="702.94"/>
    <line class="st8" x1="706.43" y1="700.66" x2="619.31" y2="700.66"/>
    <polyline class="st3" points="706.7 709.18 704.75 709.18 704.75 703.74 705.92 703.74 705.92 702.82 706.7 702.82 706.7 709.18"/>
    <polyline class="st8" points="704.75 707.02 677.27 707.02 677.27 704.26 704.75 704.26 704.75 707.02"/>
    <polyline class="st3" points="619.04 709.18 622.27 709.18 622.27 703.74 619.81 703.74 619.81 702.82 619.04 702.82 619.04 709.18"/>
    <rect class="st8" x="619.31" y="699.82" width=".54" height="1.74" transform="translate(1239.15 1401.39) rotate(180)"/>
    <rect class="st8" x="623.87" y="699.82" width=".54" height="1.74" transform="translate(1248.27 1401.39) rotate(180)"/>
    <rect class="st8" x="628.43" y="699.82" width=".54" height="1.74" transform="translate(1257.39 1401.39) rotate(180)"/>
    <rect class="st8" x="632.99" y="699.82" width=".54" height="1.74" transform="translate(1266.51 1401.39) rotate(180)"/>
    <rect class="st8" x="637.52" y="699.82" width=".54" height="1.74" transform="translate(1275.57 1401.39) rotate(180)"/>
    <rect class="st8" x="642.08" y="699.82" width=".54" height="1.74" transform="translate(1284.69 1401.39) rotate(180)"/>
    <rect class="st8" x="646.64" y="699.82" width=".54" height="1.74" transform="translate(1293.81 1401.39) rotate(180)"/>
    <rect class="st8" x="651.2" y="699.82" width=".54" height="1.74" transform="translate(1302.93 1401.39) rotate(180)"/>
    <rect class="st8" x="655.76" y="699.82" width=".54" height="1.74" transform="translate(1312.05 1401.39) rotate(180)"/>
    <rect class="st8" x="660.32" y="699.82" width=".54" height="1.74" transform="translate(1321.17 1401.39) rotate(180)"/>
    <rect class="st8" x="664.88" y="699.82" width=".54" height="1.74" transform="translate(1330.29 1401.39) rotate(180)"/>
    <rect class="st8" x="669.44" y="699.82" width=".54" height="1.74" transform="translate(1339.41 1401.39) rotate(180)"/>
    <rect class="st8" x="673.97" y="699.79" width=".54" height="1.74" transform="translate(1348.47 1401.33) rotate(180)"/>
    <rect class="st8" x="678.53" y="699.79" width=".54" height="1.74" transform="translate(1357.59 1401.33) rotate(180)"/>
    <rect class="st8" x="683.09" y="699.79" width=".54" height="1.74" transform="translate(1366.71 1401.33) rotate(180)"/>
    <rect class="st8" x="687.65" y="699.79" width=".54" height="1.74" transform="translate(1375.83 1401.33) rotate(180)"/>
    <rect class="st8" x="692.21" y="699.79" width=".54" height="1.74" transform="translate(1384.95 1401.33) rotate(180)"/>
    <rect class="st8" x="696.77" y="699.79" width=".54" height="1.74" transform="translate(1394.07 1401.33) rotate(180)"/>
    <rect class="st8" x="701.33" y="699.79" width=".54" height="1.74" transform="translate(1403.19 1401.33) rotate(180)"/>
    <rect class="st8" x="705.89" y="699.79" width=".54" height="1.74" transform="translate(1412.31 1401.33) rotate(180)"/>
    <line class="st10" x1="673.13" y1="703.73" x2="704.75" y2="703.73"/>
    <line class="st16" x1="619.81" y1="703.73" x2="673.13" y2="703.74"/>
    <g>
      <polyline class="st9" points="676.32 702.82 675.41 702.82 675.41 709.18 677.26 709.18 677.26 703.74 676.32 703.74 676.32 702.82"/>
      <polyline class="st15" points="675.41 703.74 673.12 703.74 673.12 709.18"/>
      <polyline class="st4" points="673.12 709.18 676.32 709.18 676.32 702.82 676.32 702.82 675.41 702.82"/>
    </g>
    <line class="st14" x1="707.22" y1="703.98" x2="706.72" y2="703.98"/>
    <line class="st14" x1="619.03" y1="703.98" x2="618.53" y2="703.98"/>
  </g>
  <rect class="st21" x="604.33" y="849.81" width="115.6" height="114.39"/>
</svg>