<?xml version="1.0" encoding="UTF-8"?>
<svg id="Vinduer_i_facade" xmlns="http://www.w3.org/2000/svg" version="1.1" viewBox="0 0 1200 1697.14">
  <!-- Generator: Adobe Illustrator 29.6.0, SVG Export Plug-In . SVG Version: 2.1.1 Build 207)  -->
  <defs>
    <style>
      .st0 {
        fill: #e2dedb;
      }

      .st1 {
        stroke-width: .29px;
      }

      .st1, .st2, .st3 {
        stroke-miterlimit: 10;
      }

      .st1, .st2, .st3, .st4, .st5, .st6, .st7, .st8, .st9, .st10, .st11, .st12, .st13, .st14 {
        stroke: #363a3b;
      }

      .st1, .st2, .st3, .st13, .st14 {
        fill: #fff;
      }

      .st2, .st6, .st15, .st16, .st12, .st17, .st14, .st18 {
        stroke-width: .28px;
      }

      .st3, .st8, .st19, .st13 {
        stroke-width: .28px;
      }

      .st4 {
        stroke-width: .3px;
      }

      .st4, .st5, .st6, .st7, .st8, .st9, .st15, .st10, .st11, .st16, .st19, .st12, .st20, .st17, .st13, .st14, .st18 {
        stroke-linecap: round;
        stroke-linejoin: round;
      }

      .st4, .st5, .st6, .st7, .st8, .st9, .st15, .st10, .st11, .st16, .st19, .st12, .st20, .st17, .st18 {
        fill: none;
      }

      .st5 {
        stroke-width: .28px;
      }

      .st7 {
        stroke-width: .28px;
      }

      .st9 {
        stroke-width: .29px;
      }

      .st21 {
        fill: #ece8e5;
      }

      .st15, .st16, .st20, .st17 {
        stroke: #000;
      }

      .st10 {
        stroke-width: .18px;
      }

      .st10, .st11, .st20 {
        stroke-dasharray: .06 .43;
      }

      .st11, .st20 {
        stroke-width: .18px;
      }

      .st16 {
        stroke-dasharray: .09 .69;
      }

      .st19 {
        stroke: #0e0e0e;
      }

      .st12 {
        stroke-dasharray: .09 .69;
      }

      .st22 {
        fill: #363a3b;
      }

      .st17 {
        stroke-dasharray: .09 .68;
      }

      .st23 {
        fill: #302c35;
      }

      .st18 {
        stroke: #00001d;
      }
    </style>
  </defs>
  <polygon class="st21" points="731.86 741.95 771.15 835.43 780.01 835.23 811.43 909.58 751.04 909.58 751.04 1031.06 617.34 1031.06 617.34 954.27 411.73 954.27 386.38 832.41 719.62 692.11 737.77 734.69 731.86 741.95"/>
  <line class="st12" x1="732.23" y1="742.82" x2="770.58" y2="834.07"/>
  <g>
    <rect class="st14" x="431.64" y="896.38" width="110.26" height="50.38" transform="translate(973.55 1843.13) rotate(-180)"/>
    <rect class="st14" x="443.42" y="907.78" width="27.99" height="27.57" rx="1.42" ry="1.42" transform="translate(1378.98 464.15) rotate(90)"/>
    <polygon class="st14" points="446.06 947.4 542.19 947.4 542.19 896.38 470.93 896.38 446.06 947.4"/>
  </g>
  <g>
    <g>
      <path class="st14" d="M720.13,794.62c2.71,6.59-.78,14.26-7.79,17.14-5.16,2.12-11.66.84-15.37-3.19-.51-.55-1.56-1.71-2.22-3.53-2.08-5.7.91-14.32,7.79-17.14,7.01-2.88,14.88.13,17.59,6.72Z"/>
      <path class="st6" d="M697.52,807.03c1.66,4.05,7.94,5.3,14.03,2.8"/>
      <path class="st6" d="M719.55,797.99c1.66,4.05-1.92,9.35-8.01,11.85"/>
      <path class="st6" d="M719.55,797.99c-.33-.8.04-1.71.82-2.03"/>
      <path class="st6" d="M697.52,807.03c-.33-.8-1.28-1.16-2.13-.82"/>
    </g>
    <g>
      <path class="st14" d="M703.31,753.66c-2.71-6.59-10.58-9.6-17.59-6.72-5.16,2.12-8.89,7.59-8.69,13.07.03.75.1,2.31.9,4.07,2.53,5.51,10.71,9.55,17.59,6.72s10.5-10.55,7.79-17.14Z"/>
      <path class="st6" d="M678.5,760.73c-1.66-4.05,1.92-9.35,8.01-11.85"/>
      <path class="st6" d="M700.54,751.68c-1.66-4.05-7.94-5.3-14.03-2.8"/>
      <path class="st6" d="M700.54,751.68c.33.8,1.23,1.19,2.01.87"/>
      <path class="st6" d="M678.5,760.73c.33.8-.09,1.73-.94,2.08"/>
    </g>
    <rect class="st14" x="680.79" y="758.17" width="35.68" height="40.44" transform="translate(1153.31 -163.55) rotate(67.68)"/>
  </g>
  <g>
    <path class="st14" d="M477.96,817.37c6.26,7.8,12.52,15.61,18.78,23.41.18.41.03.92-.37,1.24-8.31,8.71-17.89,16.2-28.33,22.15-.17.1-.38.09-.5-.04-.59-.73-1.17-1.45-1.76-2.18l-16.98-21.01,29.17-23.57"/>
    <path class="st14" d="M476.35,815.87c.68.65,1.26,1.37,1.77,2.16.09.16.04.37-.13.51-9.16,7.76-18.44,15.35-27.86,22.78-.26.16-.57.13-.74-.07-.71-.74-1.34-1.54-1.88-2.41"/>
    <path class="st14" d="M479.04,821.13c.57-.46-.06-2.18-1.4-3.84-.11-.13-.22-.26-.33-.39l-.95-1.03c-.14-.12-.36-.11-.52.02l-28.39,22.95,1.95,2.42c.65.78,1.3,1.55,1.96,2.33.36.26.89.22,1.29-.1,9.96-5.95,18.92-13.54,26.4-22.35Z"/>
    <path class="st14" d="M477.99,819.47c.13.43.29.84.48,1.24.13.51.29,1.02.48,1.51.26.67.51,1.34.76,2.02.34.93.76,1.81,1.27,2.66.31.52.63,1.02.98,1.52.36.52.73,1.05,1.11,1.56.89,1.23,1.84,2.41,2.86,3.54,1.03,1.14,2.14,2.18,3.35,3.14.91.72,1.88,1.34,2.93,1.88.66.34,1.33.46,2.13.4.07,0,.12-.03.18-.07l.51-.41c.1-.16.12-.3.08-.47-6.07-7.51-12.14-15.02-18.21-22.53-.11-.13-.32-.14-.48-.01l-.16.13h0c-.15.13-.19.34-.1.48.21.35.42.69.63,1.04.31.44.58.89.81,1.38l.41,1.02Z"/>
    <path class="st14" d="M450.66,841.56c.39.22.76.46,1.12.73.47.24.93.5,1.37.79.6.39,1.21.78,1.81,1.16.84.53,1.61,1.13,2.33,1.8.44.41.87.83,1.28,1.27.44.47.87.94,1.3,1.41,1.02,1.13,1.97,2.3,2.86,3.54.9,1.24,1.68,2.55,2.36,3.93.51,1.04.92,2.12,1.22,3.26.19.72.18,1.4-.05,2.16-.02.06-.05.11-.11.16l-.51.41c-.18.06-.32.06-.48-.02-6.07-7.51-12.14-15.02-18.21-22.53-.11-.13-.07-.34.09-.47l.16-.13h0c.16-.12.37-.12.49,0,.29.28.59.55.88.83.36.39.75.75,1.18,1.08l.91.61Z"/>
  </g>
  <circle class="st2" cx="502.02" cy="871.27" r="13.02"/>
  <g>
    <path class="st6" d="M667.72,920.67c-11.6,0-22.94-4.79-31.27-13.11-8.07-8.07-12.86-19.41-12.86-31.01"/>
    <line class="st6" x1="667.72" y1="878.31" x2="667.72" y2="920.67"/>
    <polyline class="st6" points="623.59 876.54 667.72 876.54 667.72 878.31"/>
  </g>
  <g>
    <g>
      <polyline class="st15" points="621.11 903.2 621.11 903.16 621.06 903.16"/>
      <line class="st16" x1="620.37" y1="903.16" x2="576.85" y2="903.16"/>
      <polyline class="st15" points="576.51 903.16 576.46 903.16 576.46 903.2"/>
      <line class="st17" x1="576.46" y1="903.89" x2="576.46" y2="946.9"/>
      <polyline class="st15" points="576.46 947.24 576.46 947.29 576.51 947.29"/>
      <line class="st16" x1="577.2" y1="947.29" x2="620.72" y2="947.29"/>
      <polyline class="st15" points="621.06 947.29 621.11 947.29 621.11 947.24"/>
      <line class="st17" x1="621.11" y1="946.56" x2="621.11" y2="903.55"/>
    </g>
    <g>
      <line class="st6" x1="576.64" y1="925.19" x2="588.94" y2="925.19"/>
      <path class="st14" d="M588.88,922.49c-1.52,0-2.75,1.23-2.75,2.75s1.23,2.75,2.75,2.75c1.52,0,2.75-1.23,2.75-2.75s-1.23-2.75-2.75-2.75"/>
    </g>
  </g>
  <path class="st2" d="M575.7,876.74h16.09c6.19,0,11.2,4.45,11.2,9.95,0,5.5-5.01,9.95-11.2,9.95h-16.09s0-19.9,0-19.9Z"/>
  <polygon class="st1" points="621.85 1022.78 621.88 982.07 621.85 951.36 656.11 951.36 656.11 1022.78 621.85 1022.78"/>
  <g>
    <g>
      <polyline class="st5" points="651.27 1015.75 630.08 1015.75 630.08 994.55 651.27 994.55 651.27 1015.75"/>
      <line class="st5" x1="635.2" y1="1005.09" x2="626.68" y2="1005.09"/>
    </g>
    <polyline class="st5" points="654.38 1020.91 623.58 1020.91 623.58 989.38 654.38 989.38 654.38 1020.91"/>
  </g>
  <g>
    <g>
      <line class="st9" x1="651.3" y1="961.56" x2="643.06" y2="961.56"/>
      <line class="st9" x1="635.7" y1="961.56" x2="627.46" y2="961.56"/>
      <line class="st9" x1="631.63" y1="957.75" x2="631.63" y2="965.48"/>
      <line class="st9" x1="647.13" y1="957.75" x2="647.13" y2="965.48"/>
    </g>
    <polyline class="st4" points="654.38 969.95 623.58 969.95 623.58 953.29 654.38 953.29 654.38 969.95"/>
  </g>
  <path class="st18" d="M656.13,954.13"/>
  <path class="st11" d="M647.44,830.56l-23.26-16.54s-4.85,7.42-4.89,16.54"/>
  <path class="st11" d="M590.88,830.56l22.75-16.54s4.74,7.42,4.79,16.54"/>
  <rect class="st3" x="587.48" y="833.16" width="34.03" height="28.87" transform="translate(-243.1 1452.09) rotate(-90)"/>
  <rect class="st3" x="616.3" y="833.16" width="34.03" height="28.87" transform="translate(-214.28 1480.91) rotate(-90)"/>
  <g>
    <path class="st13" d="M630.37,947.87v-18.5c0-.41.21-.74.47-.74h26.59c.32,0,.59.33.59.74v18.5"/>
    <path class="st6" d="M645.25,945.17c0-.55-.45-1-1-1s-1,.45-1,1,.45,1,1,1,1-.45,1-1"/>
    <g>
      <path class="st6" d="M645.46,936.36c0-.68-.55-1.23-1.23-1.23s-1.23.55-1.23,1.23.55,1.23,1.23,1.23,1.23-.55,1.23-1.23"/>
      <path class="st6" d="M646.04,936.36c0-1-.81-1.82-1.82-1.82s-1.82.81-1.82,1.82.81,1.82,1.82,1.82,1.82-.81,1.82-1.82"/>
    </g>
    <path class="st8" d="M632.4,941.95v-10.82c0-.41.23-.74.52-.74h22.61c.29,0,.52.33.52.74v10.82c0,.41-.23.74-.52.74h-22.61c-.29,0-.52-.33-.52-.74Z"/>
  </g>
  <rect class="st0" x="631" y="905.94" width="155.31" height="77.84" transform="translate(-236.21 1653.52) rotate(-90)"/>
  <g>
    <line class="st6" x1="775.33" y1="902.18" x2="756.07" y2="902.18"/>
    <line class="st6" x1="756.07" y1="900.8" x2="775.33" y2="900.8"/>
    <polyline class="st6" points="756.07 902.18 753.19 902.18 753.19 900.8 756.07 900.8 756.07 902.18"/>
    <polyline class="st6" points="778.15 902.18 775.33 902.18 775.33 900.8 778.15 900.8 778.15 902.18"/>
    <line class="st6" x1="776.35" y1="905.24" x2="776.35" y2="902.42"/>
    <line class="st6" x1="755.18" y1="905.24" x2="755.18" y2="902.42"/>
  </g>
  <rect class="st23" x="747.57" y="905.38" width="88.35" height="8.5"/>
  <rect class="st23" x="735.1" y="1022.6" width="20.98" height="8.5"/>
  <rect class="st23" x="614.66" y="1022.6" width="76.92" height="8.5"/>
  <polygon class="st23" points="552.57 959.15 621.72 959.15 621.77 947.82 552.61 947.82 552.57 959.15"/>
  <rect class="st23" x="400.36" y="950.64" width="154.41" height="8.5"/>
  <rect class="st23" x="696.97" y="663.99" width="32.06" height="56.96" transform="translate(1077.55 -232.18) rotate(67.35)"/>
  <rect class="st23" x="717.28" y="669.53" width="32.06" height="69.58" transform="translate(-216.84 342.35) rotate(-22.99)"/>
  <polygon class="st23" points="835.91 905.4 820.14 912.08 803.19 910.36 773.69 840.83 803.2 828.31 835.91 905.4"/>
  <rect class="st23" x="538.64" y="738.6" width="32.06" height="40.44" transform="translate(1041.41 -45.26) rotate(67.35)"/>
  <rect class="st23" x="380.33" y="796.91" width="32.06" height="56.58" transform="translate(1005.32 141.66) rotate(67.35)"/>
  <rect class="st23" x="747.58" y="906.56" width="8.5" height="121.69"/>
  <rect class="st23" x="613.18" y="954.73" width="8.5" height="76.38"/>
  <rect class="st22" x="753.08" y="699.43" width="8.5" height="56.02" transform="translate(379.9 1707.37) rotate(-112.78)"/>
  <rect class="st22" x="794.52" y="798.14" width="8.5" height="57.17" transform="translate(345.83 1883.3) rotate(-112.78)"/>
  <rect class="st23" x="385.92" y="827.16" width="21.26" height="131.2" transform="translate(-184.1 107.19) rotate(-12.52)"/>
  <rect class="st23" x="552.46" y="863.91" width="23.42" height="91.14"/>
  <rect class="st23" x="612.71" y="810.42" width="3.54" height="110.57" transform="translate(-251.22 1480.19) rotate(-90)"/>
  <rect class="st23" x="612.95" y="894.56" width="3.54" height="110.06" transform="translate(-334.86 1564.31) rotate(-90)"/>
  <rect class="st23" x="666.21" y="864.95" width="3.54" height="11.76"/>
  <rect class="st23" x="666.21" y="921.14" width="3.54" height="30.15"/>
  <g>
    <path class="st6" d="M734.95,1022.63c0-11.6-4.79-22.95-13.11-31.27-8.07-8.07-19.42-12.86-31.01-12.86"/>
    <line class="st6" x1="692.59" y1="1022.63" x2="734.95" y2="1022.63"/>
    <polyline class="st6" points="690.83 978.5 690.83 1022.63 692.59 1022.63"/>
  </g>
  <g>
    <line class="st8" x1="602.02" y1="741.53" x2="576.58" y2="752.21"/>
    <line class="st8" x1="574.48" y1="747.29" x2="599.92" y2="736.61"/>
    <line class="st8" x1="572.92" y1="746.93" x2="600.76" y2="735.23"/>
    <polyline class="st8" points="601.12 735.11 600.76 735.23 601.12 736.07 599.92 736.61 602.02 741.53 603.58 740.87 601.12 735.11"/>
    <polyline class="st8" points="572.92 746.93 572.56 747.11 574.96 752.87 576.58 752.21 574.48 747.29 573.28 747.77 572.92 746.93"/>
    <polyline class="st8" points="575.68 750.23 601.18 739.49 600.1 736.97 574.66 747.71 575.68 750.23"/>
    <line class="st8" x1="685.3" y1="706.55" x2="604.78" y2="740.39"/>
    <line class="st8" x1="602.68" y1="735.41" x2="683.2" y2="701.63"/>
    <line class="st8" x1="601.12" y1="735.11" x2="684.04" y2="700.25"/>
    <polyline class="st8" points="601.12 735.11 600.76 735.23 603.22 741.05 604.78 740.39 602.68 735.41 601.48 735.95 601.12 735.11"/>
    <polyline class="st8" points="684.4 700.13 684.04 700.25 684.4 701.09 683.2 701.63 685.3 706.55 686.86 705.89 684.4 700.13"/>
    <polyline class="st8" points="603.94 738.35 684.4 704.51 683.38 702.05 602.86 735.83 603.94 738.35"/>
  </g>
  <g>
    <line class="st8" x1="451.27" y1="804.93" x2="425.83" y2="815.61"/>
    <line class="st8" x1="423.73" y1="810.69" x2="449.17" y2="800.01"/>
    <line class="st8" x1="422.17" y1="810.33" x2="450.01" y2="798.63"/>
    <polyline class="st8" points="450.37 798.51 450.01 798.63 450.37 799.47 449.17 800.01 451.27 804.93 452.83 804.27 450.37 798.51"/>
    <polyline class="st8" points="422.17 810.33 421.81 810.51 424.21 816.27 425.83 815.61 423.73 810.69 422.53 811.17 422.17 810.33"/>
    <polyline class="st8" points="424.93 813.63 450.43 802.89 449.35 800.37 423.91 811.11 424.93 813.63"/>
    <line class="st8" x1="534.55" y1="769.95" x2="454.03" y2="803.79"/>
    <line class="st8" x1="451.93" y1="798.81" x2="532.45" y2="765.03"/>
    <line class="st8" x1="450.37" y1="798.51" x2="533.29" y2="763.65"/>
    <polyline class="st8" points="450.37 798.51 450.01 798.63 452.47 804.45 454.03 803.79 451.93 798.81 450.73 799.35 450.37 798.51"/>
    <polyline class="st8" points="533.65 763.53 533.29 763.65 533.65 764.49 532.45 765.03 534.55 769.95 536.11 769.29 533.65 763.53"/>
    <polyline class="st8" points="453.19 801.75 533.65 767.91 532.63 765.45 452.11 799.23 453.19 801.75"/>
  </g>
  <g>
    <polyline class="st8" points="807.31 787.65 817.76 812.22 820.25 811.17 809.8 786.6 807.31 787.65"/>
    <polyline class="st7" points="780.42 724.37 806.16 784.88 808.65 783.82 782.91 723.31 780.42 724.37"/>
    <line class="st8" x1="812.52" y1="783.81" x2="824.11" y2="811.05"/>
    <polyline class="st8" points="824.22 811.3 824.05 810.92 823.23 811.27 822.71 810.05 817.74 812.17 818.42 813.77 824.22 811.3"/>
    <polyline class="st8" points="785.51 720.31 785.67 720.7 784.85 721.05 785.36 722.27 780.39 724.38 779.71 722.78 785.51 720.31"/>
    <polyline class="st8" points="812.61 784.03 812.45 783.64 811.62 783.99 811.13 782.83 806.16 784.95 807.31 787.65 812.28 785.54 811.79 784.38 812.61 784.03"/>
    <line class="st8" x1="822.73" y1="810.11" x2="812.28" y2="785.54"/>
    <line class="st8" x1="811.13" y1="782.83" x2="785.36" y2="722.27"/>
    <line class="st8" x1="820.25" y1="811.17" x2="822.73" y2="810.11"/>
    <line class="st8" x1="812.52" y1="783.81" x2="785.59" y2="720.51"/>
    <polyline class="st8" points="785.36 722.27 784.85 721.05 785.67 720.7 785.51 720.31 779.71 722.78 780.39 724.38 785.36 722.27"/>
    <line class="st10" x1="820.25" y1="811.17" x2="794.14" y2="807.73"/>
    <line class="st10" x1="809.89" y1="786.81" x2="794.25" y2="808"/>
    <line class="st19" x1="817.82" y1="812.2" x2="817.79" y2="812.28"/>
    <line class="st8" x1="806.16" y1="784.95" x2="780.39" y2="724.38"/>
    <line class="st8" x1="817.76" y1="812.22" x2="807.31" y2="787.65"/>
    <polyline class="st8" points="807.31 787.65 812.28 785.54 811.79 784.38 812.61 784.03 812.45 783.64 811.62 783.99 811.13 782.83 806.16 784.95 807.31 787.65"/>
    <polyline class="st8" points="823.25 811.32 822.73 810.11 817.76 812.22 818.42 813.77 824.22 811.3 824.08 810.97 823.25 811.32"/>
    <polyline class="st8" points="822.73 810.11 812.28 785.54 809.8 786.6 820.25 811.17 822.73 810.11"/>
  </g>
  <rect class="st20" x="669.75" y="867.21" width="77.83" height="155.31"/>
</svg>