<?xml version="1.0" encoding="UTF-8"?>
<svg xmlns="http://www.w3.org/2000/svg" version="1.1" viewBox="0 0 1200 1697.14">
  <!-- Generator: Adobe Illustrator 29.6.0, SVG Export Plug-In . SVG Version: 2.1.1 Build 207)  -->
  <defs>
    <style>
      .st0 {
        fill: #e2dedb;
      }

      .st1, .st2, .st3, .st4, .st5, .st6, .st7, .st8, .st9, .st10, .st11, .st12, .st13, .st14, .st15, .st16, .st17, .st18, .st19, .st20 {
        stroke: #363a3b;
      }

      .st1, .st6, .st21, .st22, .st23, .st20, .st24 {
        stroke-width: .28px;
      }

      .st1, .st14 {
        stroke-miterlimit: 10;
      }

      .st1, .st25, .st19, .st20 {
        fill: #fff;
      }

      .st2 {
        stroke-width: .3px;
      }

      .st2, .st3, .st4, .st5, .st6, .st7, .st8, .st9, .st10, .st11, .st12, .st13, .st21, .st14, .st15, .st16, .st22, .st26, .st23, .st17, .st18, .st24 {
        fill: none;
      }

      .st2, .st3, .st4, .st5, .st6, .st7, .st8, .st9, .st10, .st11, .st12, .st13, .st21, .st15, .st16, .st22, .st26, .st23, .st17, .st18, .st19, .st20, .st24 {
        stroke-linejoin: round;
      }

      .st2, .st3, .st4, .st5, .st6, .st7, .st8, .st9, .st10, .st11, .st12, .st13, .st21, .st15, .st16, .st22, .st26, .st23, .st19, .st20, .st24 {
        stroke-linecap: round;
      }

      .st3 {
        stroke-width: .31px;
      }

      .st4 {
        stroke-width: .3px;
      }

      .st5 {
        stroke-width: .28px;
      }

      .st7, .st17 {
        stroke-width: .28px;
      }

      .st8, .st19 {
        stroke-width: .28px;
      }

      .st9 {
        stroke-width: .28px;
      }

      .st10, .st18 {
        stroke-width: .28px;
      }

      .st11 {
        stroke-width: .28px;
      }

      .st12 {
        stroke-width: .29px;
      }

      .st13 {
        stroke-width: .29px;
      }

      .st27 {
        fill: #ece8e5;
      }

      .st21, .st22, .st26, .st23 {
        stroke: #000;
      }

      .st14 {
        stroke-width: .29px;
      }

      .st15, .st26 {
        stroke-dasharray: .06 .43;
        stroke-width: .18px;
      }

      .st16 {
        stroke-dasharray: .07 .54;
        stroke-width: .19px;
      }

      .st22 {
        stroke-dasharray: .09 .69;
      }

      .st23 {
        stroke-dasharray: .09 .68;
      }

      .st28 {
        fill: #302c35;
      }

      .st24 {
        stroke: #00001d;
      }
    </style>
  </defs>
  <g id="Nye_møbler">
    <path class="st6" d="M1053.22,1068.12"/>
  </g>
  <g id="Vinduer_i_facade">
    <g>
      <polygon class="st27" points="720.18 890.89 720.62 709.31 478.09 709.31 478.09 883.11 562.3 883.11 562.3 1007.61 754.32 1007.61 754.32 890.89 720.18 890.89"/>
      <rect class="st0" x="559.23" y="849.4" width="106.69" height="114.46"/>
      <g>
        <line class="st6" x1="663.27" y1="990" x2="663.27" y2="970.74"/>
        <line class="st6" x1="661.89" y1="970.74" x2="661.89" y2="990"/>
        <polyline class="st6" points="663.27 970.74 663.27 967.86 661.89 967.86 661.89 970.74 663.27 970.74"/>
        <polyline class="st6" points="663.27 992.82 663.27 990 661.89 990 661.89 992.82 663.27 992.82"/>
        <line class="st6" x1="666.33" y1="991.02" x2="663.51" y2="991.02"/>
        <line class="st6" x1="666.33" y1="969.86" x2="663.51" y2="969.86"/>
      </g>
      <g>
        <rect class="st20" x="631.52" y="762.61" width="113.09" height="50.38" transform="translate(-99.74 1475.87) rotate(-90)"/>
        <rect class="st20" x="674.07" y="743.56" width="27.99" height="28.27" rx="1.42" ry="1.42"/>
        <polygon class="st20" points="713.9 746.05 713.9 844.64 662.87 844.64 662.87 771.55 713.9 746.05"/>
      </g>
      <g>
        <g>
          <path class="st20" d="M570.27,774.93c7.12,0,12.9,6.14,12.9,13.72,0,5.58-3.65,11.1-8.79,13.01-.7.26-2.18.79-4.11.71-6.06-.24-12.9-6.28-12.9-13.72,0-7.58,5.78-13.72,12.9-13.72Z"/>
          <path class="st6" d="M573.16,800.56c4.38,0,7.92-5.33,7.92-11.91"/>
          <path class="st6" d="M573.16,776.74c4.38,0,7.92,5.33,7.92,11.91"/>
          <path class="st6" d="M573.16,776.74c-.86,0-1.56-.68-1.56-1.53"/>
          <path class="st6" d="M573.16,800.56c-.86,0-1.56.74-1.56,1.66"/>
        </g>
        <g>
          <path class="st20" d="M526,774.93c-7.12,0-12.9,6.14-12.9,13.72,0,5.58,3.65,11.1,8.79,13.01.7.26,2.18.79,4.11.71,6.06-.24,12.9-6.28,12.9-13.72,0-7.58-5.78-13.72-12.9-13.72Z"/>
          <path class="st6" d="M523.11,800.56c-4.38,0-7.92-5.33-7.92-11.91"/>
          <path class="st6" d="M523.11,776.74c-4.38,0-7.92,5.33-7.92,11.91"/>
          <path class="st6" d="M523.11,776.74c.86,0,1.56-.68,1.56-1.53"/>
          <path class="st6" d="M523.11,800.56c.86,0,1.56.74,1.56,1.66"/>
        </g>
        <rect class="st20" x="529.25" y="768.43" width="35.68" height="40.44"/>
      </g>
      <circle class="st1" cx="635.77" cy="748.55" r="13.02"/>
      <path class="st1" d="M681.28,983.18v-16.09c0-6.19,4.45-11.2,9.95-11.2,5.5,0,9.95,5.01,9.95,11.2v16.09s-19.9,0-19.9,0Z"/>
      <g>
        <path class="st19" d="M749.77,901.31h-18.5c-.41,0-.74.21-.74.47v26.59c0,.32.33.59.74.59h18.5"/>
        <path class="st6" d="M747.07,916.19c-.55,0-1-.45-1-1s.45-1,1-1,1,.45,1,1-.45,1-1,1"/>
        <g>
          <path class="st6" d="M738.26,916.39c-.68,0-1.23-.55-1.23-1.23s.55-1.23,1.23-1.23,1.23.55,1.23,1.23-.55,1.23-1.23,1.23"/>
          <path class="st6" d="M738.26,916.98c-1,0-1.82-.81-1.82-1.82s.81-1.82,1.82-1.82,1.82.81,1.82,1.82-.81,1.82-1.82,1.82"/>
        </g>
        <path class="st8" d="M743.86,903.34h-10.82c-.41,0-.74.23-.74.52v22.61c0,.29.33.52.74.52h10.82c.41,0,.74-.23.74-.52v-22.61c0-.29-.33-.52-.74-.52Z"/>
      </g>
      <g>
        <g>
          <polyline class="st21" points="749.39 938.07 749.44 938.07 749.44 938.12"/>
          <line class="st22" x1="749.44" y1="938.81" x2="749.44" y2="982.33"/>
          <polyline class="st21" points="749.44 982.67 749.44 982.72 749.39 982.72"/>
          <line class="st23" x1="748.71" y1="982.72" x2="705.69" y2="982.72"/>
          <polyline class="st21" points="705.35 982.72 705.31 982.72 705.31 982.67"/>
          <line class="st22" x1="705.31" y1="981.98" x2="705.31" y2="938.46"/>
          <polyline class="st21" points="705.31 938.12 705.31 938.07 705.35 938.07"/>
          <line class="st23" x1="706.04" y1="938.07" x2="749.05" y2="938.07"/>
        </g>
        <g>
          <line class="st6" x1="727.41" y1="982.54" x2="727.41" y2="970.24"/>
          <path class="st20" d="M730.1,970.3c0,1.52-1.23,2.75-2.75,2.75s-2.75-1.23-2.75-2.75,1.23-2.75,2.75-2.75,2.75,1.23,2.75,2.75"/>
        </g>
      </g>
      <g>
        <polygon class="st25" points="567.11 849.31 567.14 848.01 567.11 846.94 600.99 846.94 600.99 849.31 567.11 849.31"/>
        <polygon class="st14" points="566.89 914.86 566.92 877.53 566.89 846.82 601.15 846.82 601.15 914.86 566.89 914.86"/>
      </g>
      <g>
        <g>
          <polyline class="st5" points="596.32 907.99 575.12 907.99 575.12 886.79 596.32 886.79 596.32 907.99"/>
          <line class="st5" x1="580.25" y1="897.34" x2="571.73" y2="897.34"/>
        </g>
        <polyline class="st5" points="599.42 913.16 568.62 913.16 568.62 881.63 599.42 881.63 599.42 913.16"/>
      </g>
      <g>
        <g>
          <line class="st12" x1="596.35" y1="856.8" x2="588.11" y2="856.8"/>
          <line class="st12" x1="580.75" y1="856.8" x2="572.5" y2="856.8"/>
          <line class="st12" x1="576.68" y1="852.99" x2="576.68" y2="860.71"/>
          <line class="st12" x1="592.17" y1="852.99" x2="592.17" y2="860.71"/>
        </g>
        <polyline class="st2" points="599.42 865.18 568.62 865.18 568.62 848.52 599.42 848.52 599.42 865.18"/>
      </g>
      <g>
        <polyline class="st20" points="476.26 880.13 476.26 846.11 501.19 846.11 501.19 880.72"/>
        <path class="st24" d="M501.46,846.11"/>
        <line class="st6" x1="501.07" y1="880.13" x2="501.07" y2="846.11"/>
        <path class="st15" d="M477.02,846.11l19.65-16.54s4.36,7.42,4.4,16.54"/>
        <g>
          <polyline class="st25" points="501.07 846.29 558.78 846.29 558.78 880.31 501.08 880.31"/>
          <g>
            <line class="st6" x1="501.07" y1="880.14" x2="501.07" y2="846.12"/>
            <g>
              <line class="st6" x1="529.84" y1="880.14" x2="529.84" y2="846.12"/>
              <line class="st6" x1="530.61" y1="846.12" x2="501.14" y2="846.12"/>
              <line class="st6" x1="530.61" y1="846.12" x2="558.55" y2="846.12"/>
              <path class="st24" d="M558.93,846.12"/>
              <line class="st6" x1="558.55" y1="880.14" x2="558.55" y2="846.12"/>
            </g>
          </g>
          <path class="st15" d="M558.44,846.12l-23.26-16.54s-4.85,7.42-4.89,16.54"/>
          <path class="st15" d="M501.88,846.12l22.75-16.54s4.74,7.42,4.79,16.54"/>
        </g>
      </g>
      <rect class="st28" x="696.12" y="689.52" width="39.49" height="34.02"/>
      <rect class="st28" x="569.92" y="689.52" width="37.66" height="34.02"/>
      <rect class="st28" x="441.7" y="689.52" width="39.68" height="34.02"/>
      <rect class="st28" x="717.39" y="710.84" width="8.5" height="178.2"/>
      <rect class="st28" x="749.79" y="888.94" width="8.5" height="118.68"/>
      <rect class="st28" x="666.07" y="888.94" width="91.37" height="3.54"/>
      <rect class="st28" x="665.93" y="888.94" width="3.54" height="12.77"/>
      <rect class="st28" x="665.93" y="945.81" width="3.54" height="54.13"/>
      <rect class="st28" x="471.44" y="710.84" width="8.5" height="178.2"/>
      <rect class="st28" x="475.05" y="880.6" width="89.89" height="8.5"/>
      <rect class="st28" x="558.62" y="999.12" width="53.71" height="8.5"/>
      <rect class="st28" x="656.09" y="999.12" width="15.62" height="8.5"/>
      <rect class="st28" x="666.28" y="982.98" width="91.5" height="24.63"/>
      <rect class="st28" x="558.61" y="846.68" width="8.5" height="156.27"/>
      <g>
        <path class="st8" d="M667.78,945.83c11.6,0,22.94-4.79,31.27-13.11,8.07-8.07,12.86-19.41,12.86-31.01"/>
        <line class="st8" x1="667.78" y1="903.47" x2="667.78" y2="945.83"/>
        <polyline class="st8" points="711.9 901.71 667.78 901.71 667.78 903.47"/>
      </g>
      <g>
        <path class="st8" d="M612.36,999.32c0-11.6,4.79-22.94,13.11-31.27,8.07-8.07,19.41-12.86,31.01-12.86"/>
        <line class="st8" x1="654.72" y1="999.32" x2="612.36" y2="999.32"/>
        <polyline class="st8" points="656.49 955.2 656.49 999.32 654.72 999.32"/>
      </g>
      <g>
        <path class="st16" d="M664.6,709.33c.06,14.69-5.94,29.08-16.43,39.67-10.17,10.26-24.51,16.39-39.19,16.45"/>
        <path class="st16" d="M664.6,709.33"/>
        <path class="st16" d="M608.74,709.56"/>
        <line class="st16" x1="608.98" y1="765.45" x2="608.74" y2="709.56"/>
      </g>
      <g>
        <path class="st16" d="M538.4,709.33c.06,14.69-5.94,29.08-16.43,39.67-10.17,10.26-24.51,16.39-39.19,16.45"/>
        <path class="st16" d="M538.4,709.33"/>
        <path class="st16" d="M482.54,709.56"/>
        <line class="st16" x1="482.78" y1="765.45" x2="482.54" y2="709.56"/>
      </g>
      <g>
        <line class="st8" x1="693.82" y1="709.21" x2="666.4" y2="709.21"/>
        <line class="st8" x1="665.08" y1="702.97" x2="694.91" y2="702.97"/>
        <polyline class="st13" points="665.11 702.85 664.44 702.85 664.44 709.21 666.49 709.21 666.49 703.77 665.11 703.77 665.11 702.85"/>
        <polyline class="st9" points="666.55 707.05 692.45 707.05 692.45 704.29 666.55 704.29 666.55 707.05"/>
        <line class="st8" x1="662.26" y1="709.21" x2="611.26" y2="709.21"/>
        <line class="st8" x1="608.8" y1="709.21" x2="664.42" y2="709.21"/>
        <line class="st8" x1="662.26" y1="709.21" x2="611.26" y2="709.21"/>
        <line class="st8" x1="608.8" y1="709.21" x2="664.42" y2="709.21"/>
        <line class="st8" x1="662.26" y1="709.21" x2="611.26" y2="709.21"/>
        <line class="st7" x1="608.8" y1="702.97" x2="664.44" y2="702.97"/>
        <line class="st8" x1="608.29" y1="700.69" x2="695.41" y2="700.69"/>
        <g>
          <line class="st17" x1="607.57" y1="704.17" x2="608.07" y2="704.17"/>
          <polyline class="st3" points="608.02 709.21 611.26 709.21 611.26 703.77 608.8 703.77 608.8 702.85 608.02 702.85 608.02 709.21"/>
        </g>
        <polyline class="st11" points="611.26 707.05 661.92 707.05 661.92 704.29 611.26 704.29 611.26 707.05"/>
        <polyline class="st4" points="661.92 709.21 665.12 709.21 665.12 702.85 664.39 702.85 664.39 703.77 661.92 703.77 661.92 709.21"/>
        <g>
          <line class="st17" x1="696.13" y1="704.17" x2="695.72" y2="704.17"/>
          <polyline class="st3" points="695.68 709.21 692.45 709.21 692.45 703.77 694.91 703.77 694.91 702.85 695.68 702.85 695.68 709.21"/>
        </g>
        <rect class="st8" x="694.87" y="699.85" width=".54" height="1.74"/>
        <rect class="st8" x="690.31" y="699.85" width=".54" height="1.74"/>
        <rect class="st8" x="685.75" y="699.85" width=".54" height="1.74"/>
        <rect class="st8" x="681.19" y="699.85" width=".54" height="1.74"/>
        <rect class="st8" x="676.66" y="699.85" width=".54" height="1.74"/>
        <rect class="st8" x="672.1" y="699.85" width=".54" height="1.74"/>
        <rect class="st8" x="667.54" y="699.85" width=".54" height="1.74"/>
        <rect class="st8" x="662.98" y="699.85" width=".54" height="1.74"/>
        <rect class="st8" x="658.42" y="699.85" width=".54" height="1.74"/>
        <rect class="st8" x="653.86" y="699.85" width=".54" height="1.74"/>
        <rect class="st8" x="649.3" y="699.85" width=".54" height="1.74"/>
        <rect class="st8" x="644.74" y="699.85" width=".54" height="1.74"/>
        <rect class="st8" x="640.21" y="699.82" width=".54" height="1.74"/>
        <rect class="st8" x="635.65" y="699.82" width=".54" height="1.74"/>
        <rect class="st8" x="631.09" y="699.82" width=".54" height="1.74"/>
        <rect class="st8" x="626.53" y="699.82" width=".54" height="1.74"/>
        <rect class="st8" x="621.97" y="699.82" width=".54" height="1.74"/>
        <rect class="st8" x="617.41" y="699.82" width=".54" height="1.74"/>
        <rect class="st8" x="612.85" y="699.82" width=".54" height="1.74"/>
        <rect class="st8" x="608.29" y="699.82" width=".54" height="1.74"/>
        <line class="st10" x1="661.92" y1="703.76" x2="611.26" y2="703.76"/>
        <line class="st18" x1="694.91" y1="703.76" x2="665.11" y2="703.77"/>
      </g>
      <g>
        <line class="st8" x1="567.62" y1="709.21" x2="540.2" y2="709.21"/>
        <line class="st8" x1="538.88" y1="702.97" x2="568.71" y2="702.97"/>
        <polyline class="st13" points="538.91 702.85 538.24 702.85 538.24 709.21 540.29 709.21 540.29 703.77 538.91 703.77 538.91 702.85"/>
        <polyline class="st9" points="540.35 707.05 566.25 707.05 566.25 704.29 540.35 704.29 540.35 707.05"/>
        <line class="st8" x1="536.06" y1="709.21" x2="485.06" y2="709.21"/>
        <line class="st8" x1="482.6" y1="709.21" x2="538.22" y2="709.21"/>
        <line class="st8" x1="536.06" y1="709.21" x2="485.06" y2="709.21"/>
        <line class="st8" x1="482.6" y1="709.21" x2="538.22" y2="709.21"/>
        <line class="st8" x1="536.06" y1="709.21" x2="485.06" y2="709.21"/>
        <line class="st7" x1="482.6" y1="702.97" x2="538.24" y2="702.97"/>
        <line class="st8" x1="482.09" y1="700.69" x2="569.21" y2="700.69"/>
        <g>
          <line class="st17" x1="481.37" y1="704.17" x2="481.87" y2="704.17"/>
          <polyline class="st3" points="481.82 709.21 485.06 709.21 485.06 703.77 482.6 703.77 482.6 702.85 481.82 702.85 481.82 709.21"/>
        </g>
        <polyline class="st11" points="485.06 707.05 535.72 707.05 535.72 704.29 485.06 704.29 485.06 707.05"/>
        <polyline class="st4" points="535.72 709.21 538.92 709.21 538.92 702.85 538.19 702.85 538.19 703.77 535.72 703.77 535.72 709.21"/>
        <g>
          <line class="st17" x1="569.93" y1="704.17" x2="569.52" y2="704.17"/>
          <polyline class="st3" points="569.48 709.21 566.25 709.21 566.25 703.77 568.71 703.77 568.71 702.85 569.48 702.85 569.48 709.21"/>
        </g>
        <rect class="st8" x="568.67" y="699.85" width=".54" height="1.74"/>
        <rect class="st8" x="564.11" y="699.85" width=".54" height="1.74"/>
        <rect class="st8" x="559.55" y="699.85" width=".54" height="1.74"/>
        <rect class="st8" x="554.99" y="699.85" width=".54" height="1.74"/>
        <rect class="st8" x="550.46" y="699.85" width=".54" height="1.74"/>
        <rect class="st8" x="545.9" y="699.85" width=".54" height="1.74"/>
        <rect class="st8" x="541.34" y="699.85" width=".54" height="1.74"/>
        <rect class="st8" x="536.78" y="699.85" width=".54" height="1.74"/>
        <rect class="st8" x="532.22" y="699.85" width=".54" height="1.74"/>
        <rect class="st8" x="527.66" y="699.85" width=".54" height="1.74"/>
        <rect class="st8" x="523.1" y="699.85" width=".54" height="1.74"/>
        <rect class="st8" x="518.54" y="699.85" width=".54" height="1.74"/>
        <rect class="st8" x="514.01" y="699.82" width=".54" height="1.74"/>
        <rect class="st8" x="509.45" y="699.82" width=".54" height="1.74"/>
        <rect class="st8" x="504.89" y="699.82" width=".54" height="1.74"/>
        <rect class="st8" x="500.33" y="699.82" width=".54" height="1.74"/>
        <rect class="st8" x="495.77" y="699.82" width=".54" height="1.74"/>
        <rect class="st8" x="491.21" y="699.82" width=".54" height="1.74"/>
        <rect class="st8" x="486.65" y="699.82" width=".54" height="1.74"/>
        <rect class="st8" x="482.09" y="699.82" width=".54" height="1.74"/>
        <line class="st10" x1="535.72" y1="703.76" x2="485.06" y2="703.76"/>
        <line class="st18" x1="568.71" y1="703.76" x2="538.91" y2="703.77"/>
      </g>
      <rect class="st26" x="562.86" y="849.4" width="103.06" height="114.46"/>
    </g>
  </g>
</svg>