<?xml version="1.0" encoding="UTF-8"?>
<svg id="Vinduer_i_facade" xmlns="http://www.w3.org/2000/svg" version="1.1" viewBox="0 0 1200 1697.14">
  <!-- Generator: Adobe Illustrator 29.6.0, SVG Export Plug-In . SVG Version: 2.1.1 Build 207)  -->
  <defs>
    <style>
      .st0 {
        fill: #e2dedb;
      }

      .st1 {
        stroke-dasharray: .09 .69;
      }

      .st1, .st2, .st3, .st4, .st5, .st6, .st7, .st8 {
        stroke-width: .28px;
      }

      .st1, .st9, .st10, .st3, .st11, .st12, .st13, .st4, .st14, .st15, .st16, .st17, .st18, .st5, .st19, .st6, .st8 {
        fill: none;
      }

      .st1, .st9, .st10, .st3, .st11, .st12, .st13, .st4, .st16, .st17, .st18, .st5, .st19, .st6, .st20, .st7, .st8 {
        stroke-linecap: round;
        stroke-linejoin: round;
      }

      .st1, .st4, .st5, .st19, .st6 {
        stroke: #000;
      }

      .st21, .st2, .st22, .st9, .st10, .st3, .st11, .st12, .st13, .st14, .st15, .st16, .st17, .st20, .st7 {
        stroke: #363a3b;
      }

      .st21, .st2, .st22, .st14, .st15 {
        stroke-miterlimit: 10;
      }

      .st21, .st2, .st22, .st20, .st7 {
        fill: #fff;
      }

      .st21, .st14 {
        stroke-width: .29px;
      }

      .st22, .st12, .st15, .st16, .st18, .st20 {
        stroke-width: .28px;
      }

      .st9 {
        stroke-width: .3px;
      }

      .st10 {
        stroke-width: .28px;
      }

      .st11 {
        stroke-width: .28px;
      }

      .st13 {
        stroke-width: .29px;
      }

      .st23 {
        fill: #ece8e5;
      }

      .st16, .st17, .st19 {
        stroke-dasharray: .06 .43;
      }

      .st17, .st19 {
        stroke-width: .18px;
      }

      .st18 {
        stroke: #0e0e0e;
      }

      .st5 {
        stroke-dasharray: .09 .69;
      }

      .st6 {
        stroke-dasharray: .09 .68;
      }

      .st24 {
        fill: #302c35;
      }

      .st8 {
        stroke: #00001d;
      }
    </style>
  </defs>
  <polygon class="st23" points="681.26 734.03 681.26 740.21 547.65 740.21 547.82 734.03 480.22 734.03 480.22 1018.68 717.43 1018.68 717.43 734.03 681.26 734.03"/>
  <g>
    <rect class="st7" x="459.97" y="782.27" width="110.26" height="50.38" transform="translate(-292.36 1322.56) rotate(-90)"/>
    <rect class="st7" x="501.11" y="764.32" width="27.99" height="27.57" rx="1.42" ry="1.42" transform="translate(1030.2 1556.2) rotate(180)"/>
    <polygon class="st7" points="489.27 766.75 489.27 862.88 540.29 862.88 540.29 791.61 489.27 766.75"/>
  </g>
  <g>
    <g>
      <path class="st7" d="M693.11,796.25c7.12,0,12.9,6.14,12.9,13.72,0,5.58-3.65,11.1-8.79,13.01-.7.26-2.18.79-4.11.71-6.06-.24-12.9-6.28-12.9-13.72,0-7.58,5.78-13.72,12.9-13.72Z"/>
      <path class="st3" d="M696,821.89c4.38,0,7.92-5.33,7.92-11.91"/>
      <path class="st3" d="M696,798.07c4.38,0,7.92,5.33,7.92,11.91"/>
      <path class="st3" d="M696,798.07c-.86,0-1.56-.68-1.56-1.53"/>
      <path class="st3" d="M696,821.89c-.86,0-1.56.74-1.56,1.66"/>
    </g>
    <g>
      <path class="st7" d="M648.84,796.25c-7.12,0-12.9,6.14-12.9,13.72,0,5.58,3.65,11.1,8.79,13.01.7.26,2.18.79,4.11.71,6.06-.24,12.9-6.28,12.9-13.72,0-7.58-5.78-13.72-12.9-13.72Z"/>
      <path class="st3" d="M645.95,821.89c-4.38,0-7.92-5.33-7.92-11.91"/>
      <path class="st3" d="M645.95,798.07c-4.38,0-7.92,5.33-7.92,11.91"/>
      <path class="st3" d="M645.95,798.07c.86,0,1.56-.68,1.56-1.53"/>
      <path class="st3" d="M645.95,821.89c.86,0,1.56.74,1.56,1.66"/>
    </g>
    <rect class="st7" x="652.09" y="789.76" width="35.68" height="40.44"/>
  </g>
  <g>
    <path class="st7" d="M591.68,751.65c-6.26,7.8-12.52,15.61-18.78,23.41-.18.41-.03.92.37,1.24,8.31,8.71,17.89,16.2,28.33,22.15.17.1.38.09.5-.04.59-.73,1.17-1.45,1.76-2.18l16.98-21.01-29.17-23.57"/>
    <path class="st7" d="M593.29,750.15c-.68.65-1.26,1.37-1.77,2.16-.09.16-.04.37.13.51,9.16,7.76,18.44,15.35,27.86,22.78.26.16.57.13.74-.07.71-.74,1.34-1.54,1.88-2.41"/>
    <path class="st7" d="M590.6,755.41c-.57-.46.06-2.18,1.4-3.84.11-.13.22-.26.33-.39l.95-1.03c.14-.12.36-.11.52.02l28.39,22.95-1.95,2.42c-.65.78-1.3,1.55-1.96,2.33-.36.26-.89.22-1.29-.1-9.96-5.95-18.92-13.54-26.4-22.35Z"/>
    <path class="st7" d="M591.65,753.75c-.13.43-.29.84-.48,1.24-.13.51-.29,1.02-.48,1.51-.26.67-.51,1.34-.76,2.02-.34.93-.76,1.81-1.27,2.66-.31.52-.63,1.02-.98,1.52-.36.52-.73,1.05-1.11,1.56-.89,1.23-1.84,2.41-2.86,3.54-1.03,1.14-2.14,2.18-3.35,3.14-.91.72-1.88,1.34-2.93,1.88-.66.34-1.33.46-2.13.4-.07,0-.12-.03-.18-.07l-.51-.41c-.1-.16-.12-.3-.08-.47,6.07-7.51,12.14-15.02,18.21-22.53.11-.13.32-.14.48-.01l.16.13h0c.15.13.19.34.1.48-.21.35-.42.69-.63,1.04-.31.44-.58.89-.81,1.38l-.41,1.02Z"/>
    <path class="st7" d="M618.98,775.84c-.39.22-.76.46-1.12.73-.47.24-.93.5-1.37.79-.6.39-1.21.78-1.81,1.16-.84.53-1.61,1.13-2.33,1.8-.44.41-.87.83-1.28,1.27-.44.47-.87.94-1.3,1.41-1.02,1.13-1.97,2.3-2.86,3.54-.9,1.24-1.68,2.55-2.36,3.93-.51,1.04-.92,2.12-1.22,3.26-.19.72-.18,1.4.05,2.16.02.06.05.11.11.16l.51.41c.18.06.32.06.48-.02,6.07-7.51,12.14-15.02,18.21-22.53.11-.13.07-.34-.09-.47l-.16-.13h0c-.16-.12-.37-.12-.49,0-.29.28-.59.55-.88.83-.36.39-.75.75-1.18,1.08l-.91.61Z"/>
  </g>
  <circle class="st2" cx="567.62" cy="805.55" r="13.02"/>
  <g>
    <path class="st3" d="M569.66,956.69c-11.6,0-22.94-4.79-31.27-13.11-8.07-8.07-12.86-19.41-12.86-31.01"/>
    <line class="st3" x1="569.66" y1="914.33" x2="569.66" y2="956.69"/>
    <polyline class="st3" points="525.54 912.56 569.66 912.56 569.66 914.33"/>
  </g>
  <g>
    <g>
      <polyline class="st4" points="488.23 948.65 488.18 948.65 488.18 948.69"/>
      <line class="st5" x1="488.18" y1="949.38" x2="488.18" y2="992.9"/>
      <polyline class="st4" points="488.18 993.25 488.18 993.29 488.23 993.29"/>
      <line class="st6" x1="488.91" y1="993.29" x2="531.92" y2="993.29"/>
      <polyline class="st4" points="532.27 993.29 532.31 993.29 532.31 993.25"/>
      <line class="st5" x1="532.31" y1="992.56" x2="532.31" y2="949.04"/>
      <polyline class="st4" points="532.31 948.69 532.31 948.65 532.27 948.65"/>
      <line class="st6" x1="531.58" y1="948.65" x2="488.57" y2="948.65"/>
    </g>
    <g>
      <line class="st3" x1="510.21" y1="993.12" x2="510.21" y2="980.82"/>
      <path class="st7" d="M507.52,980.88c0,1.52,1.23,2.75,2.75,2.75s2.75-1.23,2.75-2.75c0-1.52-1.23-2.75-2.75-2.75s-2.75,1.23-2.75,2.75"/>
    </g>
  </g>
  <path class="st2" d="M535.43,993.9v-16.09c0-6.19,4.45-11.2,9.95-11.2s9.95,5.01,9.95,11.2v16.09s-19.9,0-19.9,0Z"/>
  <g>
    <path class="st20" d="M487.49,912.02h18.5c.41,0,.74.21.74.47v26.59c0,.32-.33.59-.74.59h-18.5"/>
    <path class="st3" d="M490.19,926.9c.55,0,1-.45,1-1s-.45-1-1-1-1,.45-1,1,.45,1,1,1"/>
    <g>
      <path class="st3" d="M499,927.11c.68,0,1.23-.55,1.23-1.23s-.55-1.23-1.23-1.23-1.23.55-1.23,1.23.55,1.23,1.23,1.23"/>
      <path class="st3" d="M499,927.69c1,0,1.82-.81,1.82-1.82s-.81-1.82-1.82-1.82-1.82.81-1.82,1.82.81,1.82,1.82,1.82"/>
    </g>
    <path class="st12" d="M493.4,914.05h10.82c.41,0,.74.23.74.52v22.61c0,.29-.33.52-.74.52h-10.82c-.41,0-.74-.23-.74-.52v-22.61c0-.29.33-.52.74-.52Z"/>
  </g>
  <g>
    <polygon class="st21" points="714.21 1010.36 714.18 973.03 714.21 942.32 679.95 942.32 679.95 1010.36 714.21 1010.36"/>
    <g>
      <g>
        <polyline class="st10" points="684.78 1003.49 705.98 1003.49 705.98 982.3 684.78 982.3 684.78 1003.49"/>
        <line class="st10" x1="700.85" y1="992.84" x2="709.38" y2="992.84"/>
      </g>
      <polyline class="st10" points="681.68 1008.66 712.48 1008.66 712.48 977.13 681.68 977.13 681.68 1008.66"/>
    </g>
    <g>
      <g>
        <line class="st13" x1="684.75" y1="952.3" x2="692.99" y2="952.3"/>
        <line class="st13" x1="700.36" y1="952.3" x2="708.6" y2="952.3"/>
        <line class="st13" x1="704.42" y1="948.49" x2="704.42" y2="956.22"/>
        <line class="st13" x1="688.93" y1="948.49" x2="688.93" y2="956.22"/>
      </g>
      <polyline class="st9" points="681.68 960.68 712.48 960.68 712.48 944.02 681.68 944.02 681.68 960.68"/>
    </g>
  </g>
  <path class="st8" d="M679.93,941.88"/>
  <line class="st3" x1="713.95" y1="942.27" x2="679.93" y2="942.27"/>
  <line class="st22" x1="713.96" y1="942.26" x2="679.94" y2="942.26"/>
  <path class="st17" d="M679.94,884.9l-16.54,23.26s7.42,4.85,16.54,4.89"/>
  <path class="st17" d="M679.94,941.46l-16.54-22.75s7.42-4.74,16.54-4.79"/>
  <rect class="st22" x="679.96" y="913.41" width="34.03" height="28.87" transform="translate(1393.94 1855.69) rotate(180)"/>
  <rect class="st22" x="679.96" y="884.59" width="34.03" height="28.87" transform="translate(1393.94 1798.05) rotate(180)"/>
  <rect class="st0" x="604" y="898.82" width="122.04" height="100.67" transform="translate(-284.14 1614.18) rotate(-90)"/>
  <g>
    <line class="st3" x1="710.72" y1="857.58" x2="710.72" y2="876.84"/>
    <line class="st3" x1="709.34" y1="876.84" x2="709.34" y2="857.58"/>
    <polyline class="st3" points="710.72 876.84 710.72 879.72 709.34 879.72 709.34 876.84 710.72 876.84"/>
    <polyline class="st3" points="710.72 854.76 710.72 857.58 709.34 857.58 709.34 854.76 710.72 854.76"/>
    <line class="st3" x1="713.78" y1="856.56" x2="710.96" y2="856.56"/>
    <line class="st3" x1="713.78" y1="877.73" x2="710.96" y2="877.73"/>
  </g>
  <g>
    <polygon class="st14" points="714.21 1010.36 714.18 973.03 714.21 942.32 679.95 942.32 679.95 1010.36 714.21 1010.36"/>
    <g>
      <g>
        <polyline class="st10" points="684.78 1003.49 705.98 1003.49 705.98 982.3 684.78 982.3 684.78 1003.49"/>
        <line class="st10" x1="700.85" y1="992.84" x2="709.38" y2="992.84"/>
      </g>
      <polyline class="st10" points="681.68 1008.66 712.48 1008.66 712.48 977.13 681.68 977.13 681.68 1008.66"/>
    </g>
    <g>
      <g>
        <line class="st13" x1="684.75" y1="952.3" x2="692.99" y2="952.3"/>
        <line class="st13" x1="700.36" y1="952.3" x2="708.6" y2="952.3"/>
        <line class="st13" x1="704.42" y1="948.49" x2="704.42" y2="956.22"/>
        <line class="st13" x1="688.93" y1="948.49" x2="688.93" y2="956.22"/>
      </g>
      <polyline class="st9" points="681.68 960.68 712.48 960.68 712.48 944.02 681.68 944.02 681.68 960.68"/>
    </g>
  </g>
  <path class="st8" d="M679.93,941.88"/>
  <line class="st3" x1="713.95" y1="942.27" x2="679.93" y2="942.27"/>
  <line class="st22" x1="713.96" y1="942.26" x2="679.94" y2="942.26"/>
  <path class="st17" d="M679.94,884.9l-16.54,23.26s7.42,4.85,16.54,4.89"/>
  <path class="st17" d="M679.94,941.46l-16.54-22.75s7.42-4.74,16.54-4.79"/>
  <rect class="st15" x="679.96" y="913.41" width="34.03" height="28.87" transform="translate(1393.94 1855.69) rotate(180)"/>
  <rect class="st15" x="679.96" y="884.59" width="34.03" height="28.87" transform="translate(1393.94 1798.05) rotate(180)"/>
  <line class="st1" x1="548.98" y1="740.38" x2="677.14" y2="740.38"/>
  <rect class="st24" x="567.61" y="956.69" width="3.54" height="61.57"/>
  <rect class="st24" x="567.61" y="901.89" width="3.54" height="10.69"/>
  <rect class="st24" x="483.54" y="899.83" width="87.71" height="3.54"/>
  <rect class="st24" x="478.11" y="993.77" width="90.9" height="24.91"/>
  <rect class="st24" x="481.84" y="1010.18" width="99.32" height="8.5"/>
  <rect class="st24" x="624.41" y="1010.18" width="92.82" height="8.5"/>
  <polyline class="st24" points="679.34 729.41 686.36 729.41 686.36 679.22 677.85 679.22 677.85 740.38 679.34 740.38 679.34 729.41"/>
  <polyline class="st24" points="543.39 726.25 550.41 726.25 550.41 679.26 541.9 679.26 541.9 736.52 543.39 736.52 543.39 726.25"/>
  <rect class="st24" x="497.89" y="687.85" width="32.06" height="72.99" transform="translate(1238.26 210.43) rotate(90)"/>
  <rect class="st24" x="714.08" y="738.62" width="8.5" height="280.06"/>
  <rect class="st24" x="477.58" y="738.62" width="8.5" height="280.06"/>
  <rect class="st24" x="683.26" y="701.07" width="34.02" height="44.6" transform="translate(1423.64 23.1) rotate(90)"/>
  <g>
    <polyline class="st12" points="649.56 684.76 676.26 684.76 676.26 682.06 649.56 682.06 649.56 684.76"/>
    <polyline class="st11" points="552.09 684.73 646.56 684.73 646.56 682.03 552.09 682.03 552.09 684.73"/>
    <line class="st12" x1="648.06" y1="678.46" x2="677.67" y2="678.46"/>
    <polyline class="st12" points="677.94 678.46 677.52 678.46 677.52 679.36 676.2 679.36 676.2 684.76 677.94 684.76 677.94 678.46"/>
    <polyline class="st12" points="550.35 678.46 550.77 678.46 550.77 679.36 552.09 679.36 552.09 684.76 550.35 684.76 550.35 678.46"/>
    <polyline class="st12" points="648.3 678.46 647.88 678.46 647.88 679.36 646.62 679.36 646.62 684.76 649.56 684.76 649.56 679.36 648.3 679.36 648.3 678.46"/>
    <line class="st12" x1="676.26" y1="679.36" x2="649.56" y2="679.36"/>
    <line class="st12" x1="646.62" y1="679.36" x2="552.09" y2="679.36"/>
    <line class="st12" x1="676.26" y1="682.06" x2="676.26" y2="679.36"/>
    <line class="st12" x1="648.06" y1="678.46" x2="550.56" y2="678.46"/>
    <polyline class="st12" points="552.09 679.36 550.77 679.36 550.77 678.46 550.35 678.46 550.35 684.76 552.09 684.76 552.09 679.36"/>
    <line class="st16" x1="676.26" y1="682.06" x2="662.88" y2="704.74"/>
    <line class="st16" x1="649.79" y1="682.06" x2="663.17" y2="704.74"/>
    <line class="st18" x1="676.26" y1="684.7" x2="676.32" y2="684.76"/>
    <line class="st12" x1="646.62" y1="684.76" x2="552.09" y2="684.76"/>
    <line class="st12" x1="676.26" y1="684.76" x2="649.56" y2="684.76"/>
    <polyline class="st12" points="649.56 684.76 649.56 679.36 648.3 679.36 648.3 678.46 647.88 678.46 647.88 679.36 646.62 679.36 646.62 684.76 649.56 684.76"/>
    <polyline class="st12" points="677.58 679.36 676.26 679.36 676.26 684.76 677.94 684.76 677.94 678.46 677.58 678.46 677.58 679.36"/>
    <polyline class="st12" points="676.26 679.36 649.56 679.36 649.56 682.06 676.26 682.06 676.26 679.36"/>
  </g>
  <rect class="st24" x="485.62" y="900.39" width="2.88" height="109.52" transform="translate(974.12 1910.29) rotate(180)"/>
  <g>
    <path class="st3" d="M624.92,1010.32c0-11.6-4.79-22.95-13.11-31.27-8.07-8.07-19.42-12.86-31.01-12.86"/>
    <line class="st3" x1="582.56" y1="1010.32" x2="624.92" y2="1010.32"/>
    <polyline class="st3" points="580.8 966.2 580.8 1010.32 582.56 1010.32"/>
  </g>
  <rect class="st19" x="614.69" y="888.14" width="102.54" height="122.04"/>
</svg>