<?xml version="1.0" encoding="UTF-8"?>
<svg id="Vinduer_i_facade" xmlns="http://www.w3.org/2000/svg" version="1.1" viewBox="0 0 1200 1697.14">
  <!-- Generator: Adobe Illustrator 29.6.0, SVG Export Plug-In . SVG Version: 2.1.1 Build 207)  -->
  <defs>
    <style>
      .st0, .st1, .st2, .st3, .st4, .st5, .st6, .st7, .st8, .st9, .st10, .st11, .st12, .st13, .st14, .st15, .st16 {
        fill: none;
      }

      .st17 {
        fill: #e2dedb;
      }

      .st18, .st1, .st2, .st3, .st4, .st5, .st6, .st8, .st9, .st10, .st13, .st19, .st20 {
        stroke: #363a3b;
      }

      .st18, .st3, .st7, .st12, .st13, .st15, .st20, .st16 {
        stroke-width: .28px;
      }

      .st18, .st8 {
        stroke-miterlimit: 10;
      }

      .st18, .st19, .st20 {
        fill: #fff;
      }

      .st1 {
        stroke-width: .3px;
      }

      .st1, .st2, .st3, .st4, .st5, .st6, .st7, .st9, .st10, .st11, .st12, .st13, .st14, .st15, .st19, .st20, .st16 {
        stroke-linecap: round;
        stroke-linejoin: round;
      }

      .st2 {
        stroke-width: .28px;
      }

      .st4 {
        stroke-width: .28px;
      }

      .st5, .st11, .st19 {
        stroke-width: .28px;
      }

      .st6 {
        stroke-width: .29px;
      }

      .st21 {
        fill: #ece8e5;
      }

      .st7, .st12, .st14, .st15 {
        stroke: #000;
      }

      .st8 {
        stroke-width: .29px;
      }

      .st9 {
        stroke-width: .18px;
      }

      .st9, .st10, .st14 {
        stroke-dasharray: .06 .43;
      }

      .st10, .st14 {
        stroke-width: .18px;
      }

      .st11 {
        stroke: #0e0e0e;
      }

      .st12 {
        stroke-dasharray: .09 .69;
      }

      .st13 {
        stroke-dasharray: .09 .69;
      }

      .st15 {
        stroke-dasharray: .09 .68;
      }

      .st22 {
        fill: #302c35;
      }

      .st16 {
        stroke: #00001d;
      }
    </style>
  </defs>
  <path class="st21" d="M657.05,715.76l.36,194.87s61.52-1,62.52,0,0,100.43,0,100.43h-83.14l-.13,24.14-157.53.19-.62-365.52,33.92,4.66,3.13,24.99,141.5,16.24Z"/>
  <g>
    <rect class="st20" x="457.75" y="751.24" width="110.26" height="50.38" transform="translate(-263.23 1289.78) rotate(-90.03)"/>
    <rect class="st20" x="498.87" y="733.29" width="27.99" height="27.57" rx="1.42" ry="1.42" transform="translate(1026.19 1493.83) rotate(179.97)"/>
    <polygon class="st20" points="487.03 735.73 487.09 831.86 538.11 831.83 538.07 760.57 487.03 735.73"/>
  </g>
  <g>
    <g>
      <path class="st20" d="M603.92,838.36c.02-7.12,6.17-12.88,13.75-12.86,5.58.01,11.1,3.68,12.98,8.82.26.7.78,2.18.7,4.11-.26,6.06-6.31,12.88-13.75,12.86-7.58-.02-13.7-5.81-13.69-12.93Z"/>
      <path class="st3" d="M629.55,835.53c.01-4.38-5.31-7.93-11.89-7.95"/>
      <path class="st3" d="M605.73,835.47c.01-4.38,5.35-7.91,11.93-7.89"/>
      <path class="st3" d="M605.73,835.47c0,.86-.69,1.56-1.53,1.56"/>
      <path class="st3" d="M629.55,835.53c0,.86.74,1.57,1.65,1.57"/>
    </g>
    <g>
      <path class="st20" d="M603.8,882.63c-.02,7.12,6.11,12.91,13.69,12.93,5.58.01,11.11-3.62,13.03-8.75.26-.7.79-2.17.72-4.11-.23-6.06-6.24-12.91-13.69-12.93-7.58-.02-13.73,5.74-13.75,12.86Z"/>
      <path class="st3" d="M629.43,885.59c-.01,4.38-5.35,7.91-11.93,7.89"/>
      <path class="st3" d="M605.61,885.53c-.01,4.38,5.31,7.93,11.89,7.95"/>
      <path class="st3" d="M605.61,885.53c0-.86-.68-1.57-1.53-1.57"/>
      <path class="st3" d="M629.43,885.59c0-.86.74-1.56,1.66-1.56"/>
    </g>
    <rect class="st20" x="599.74" y="841.35" width="35.68" height="40.44" transform="translate(-245.56 1476.96) rotate(-89.85)"/>
  </g>
  <g>
    <path class="st3" d="M678.79,923.58c0,11.6-4.79,22.94-13.11,31.27-8.07,8.07-19.41,12.86-31.01,12.86"/>
    <line class="st3" x1="636.43" y1="923.58" x2="678.79" y2="923.58"/>
    <polyline class="st3" points="634.67 967.71 634.67 923.58 636.43 923.58"/>
  </g>
  <g>
    <g>
      <polyline class="st7" points="672.09 959.98 672.04 959.98 672.04 960.03"/>
      <line class="st12" x1="672.04" y1="960.72" x2="672.04" y2="1004.24"/>
      <polyline class="st7" points="672.04 1004.58 672.04 1004.63 672.09 1004.63"/>
      <line class="st15" x1="672.77" y1="1004.63" x2="715.78" y2="1004.63"/>
      <polyline class="st7" points="716.13 1004.63 716.17 1004.63 716.17 1004.58"/>
      <line class="st12" x1="716.17" y1="1003.89" x2="716.17" y2="960.37"/>
      <polyline class="st7" points="716.17 960.03 716.17 959.98 716.13 959.98"/>
      <line class="st15" x1="715.44" y1="959.98" x2="672.43" y2="959.98"/>
    </g>
    <g>
      <line class="st3" x1="694.07" y1="1004.45" x2="694.07" y2="992.15"/>
      <path class="st20" d="M691.38,992.21c0,1.52,1.23,2.75,2.75,2.75s2.75-1.23,2.75-2.75-1.23-2.75-2.75-2.75-2.75,1.23-2.75,2.75"/>
    </g>
  </g>
  <path class="st18" d="M649.05,1005.68v-16.09c0-6.19,4.45-11.2,9.95-11.2s9.95,5.01,9.95,11.2v16.09s-19.9,0-19.9,0Z"/>
  <g>
    <path class="st19" d="M716.47,951h-18.5c-.41,0-.74-.21-.74-.47v-26.59c0-.32.33-.59.74-.59h18.5"/>
    <path class="st3" d="M713.77,936.12c-.55,0-1,.45-1,1s.45,1,1,1,1-.45,1-1-.45-1-1-1"/>
    <g>
      <path class="st3" d="M704.96,935.92c-.68,0-1.23.55-1.23,1.23s.55,1.23,1.23,1.23,1.23-.55,1.23-1.23-.55-1.23-1.23-1.23"/>
      <path class="st3" d="M704.96,935.33c-1,0-1.82.81-1.82,1.82s.81,1.82,1.82,1.82,1.82-.81,1.82-1.82-.81-1.82-1.82-1.82"/>
    </g>
    <path class="st5" d="M710.56,948.97h-10.82c-.41,0-.74-.23-.74-.52v-22.61c0-.29.33-.52.74-.52h10.82c.41,0,.74.23.74.52v22.61c0,.29-.33.52-.74.52Z"/>
  </g>
  <g>
    <g>
      <path class="st20" d="M612.01,725.56c-6.26,7.8-12.52,15.61-18.78,23.41-.18.41-.03.92.37,1.24,8.31,8.71,17.89,16.2,28.33,22.15.17.1.38.09.5-.04.59-.73,1.17-1.45,1.76-2.18l16.98-21.01-29.17-23.57"/>
      <path class="st20" d="M613.62,724.07c-.68.65-1.26,1.37-1.77,2.16-.09.16-.04.37.13.51,9.16,7.76,18.44,15.35,27.86,22.78.26.16.57.13.74-.07.71-.74,1.34-1.54,1.88-2.41"/>
      <path class="st20" d="M610.93,729.32c-.57-.46.06-2.18,1.4-3.84.11-.13.22-.26.33-.39l.95-1.03c.14-.12.36-.11.52.02l28.39,22.95-1.95,2.42c-.65.78-1.3,1.55-1.96,2.33-.36.26-.89.22-1.29-.1-9.96-5.95-18.92-13.54-26.4-22.35Z"/>
      <path class="st20" d="M611.98,727.67c-.13.43-.29.84-.48,1.24-.13.51-.29,1.02-.48,1.51-.26.67-.51,1.34-.76,2.02-.34.93-.76,1.81-1.27,2.66-.31.52-.63,1.02-.98,1.52-.36.52-.73,1.05-1.11,1.56-.89,1.23-1.84,2.41-2.86,3.54-1.03,1.14-2.14,2.18-3.35,3.14-.91.72-1.88,1.34-2.93,1.88-.66.34-1.33.46-2.13.4-.07,0-.12-.03-.18-.07l-.51-.41c-.1-.16-.12-.3-.08-.47,6.07-7.51,12.14-15.02,18.21-22.53.11-.13.32-.14.48-.01l.16.13h0c.15.13.19.34.1.48-.21.35-.42.69-.63,1.04-.31.44-.58.89-.81,1.38l-.41,1.02Z"/>
      <path class="st20" d="M639.31,749.75c-.39.22-.76.46-1.12.73-.47.24-.93.5-1.37.79-.6.39-1.21.78-1.81,1.16-.84.53-1.61,1.13-2.33,1.8-.44.41-.87.83-1.28,1.27-.44.47-.87.94-1.3,1.41-1.02,1.13-1.97,2.3-2.86,3.54-.9,1.24-1.68,2.55-2.36,3.93-.51,1.04-.92,2.12-1.22,3.26-.19.72-.18,1.4.05,2.16.02.06.05.11.11.16l.51.41c.18.06.32.06.48-.02,6.07-7.51,12.14-15.02,18.21-22.53.11-.13.07-.34-.09-.47l-.16-.13h0c-.16-.12-.37-.12-.49,0-.29.28-.59.55-.88.83-.36.39-.75.75-1.18,1.08l-.91.61Z"/>
    </g>
    <circle class="st18" cx="572.08" cy="765.68" r="13.02"/>
  </g>
  <rect class="st20" x="482.64" y="901.74" width="34.73" height="28.81"/>
  <g>
    <line class="st3" x1="486.29" y1="877.62" x2="486.31" y2="896.89"/>
    <line class="st3" x1="487.69" y1="896.88" x2="487.67" y2="877.62"/>
    <polyline class="st3" points="486.31 896.89 486.31 899.77 487.69 899.76 487.69 896.88 486.31 896.89"/>
    <polyline class="st3" points="486.28 874.8 486.29 877.62 487.67 877.62 487.66 874.8 486.28 874.8"/>
    <line class="st3" x1="483.23" y1="876.6" x2="486.05" y2="876.6"/>
    <line class="st3" x1="483.25" y1="897.78" x2="486.07" y2="897.78"/>
  </g>
  <rect class="st17" x="481.1" y="905.77" width="95.55" height="127.53"/>
  <g>
    <polygon class="st8" points="483.18 1026.97 483.21 989.64 483.18 958.93 517.44 958.93 517.44 1026.97 483.18 1026.97"/>
    <g>
      <g>
        <polyline class="st2" points="512.61 1020.1 491.41 1020.1 491.41 998.9 512.61 998.9 512.61 1020.1"/>
        <line class="st2" x1="496.54" y1="1009.45" x2="488.01" y2="1009.45"/>
      </g>
      <polyline class="st2" points="515.71 1025.27 484.91 1025.27 484.91 993.74 515.71 993.74 515.71 1025.27"/>
    </g>
    <g>
      <g>
        <line class="st6" x1="512.64" y1="968.91" x2="504.4" y2="968.91"/>
        <line class="st6" x1="497.03" y1="968.91" x2="488.79" y2="968.91"/>
        <line class="st6" x1="492.97" y1="965.1" x2="492.97" y2="972.82"/>
        <line class="st6" x1="508.46" y1="965.1" x2="508.46" y2="972.82"/>
      </g>
      <polyline class="st1" points="515.71 977.29 484.91 977.29 484.91 960.63 515.71 960.63 515.71 977.29"/>
    </g>
  </g>
  <g>
    <polyline class="st0" points="517.23 901.78 517.23 959.48 483.21 959.48 483.21 901.78"/>
    <g>
      <line class="st3" x1="483.37" y1="901.78" x2="517.39" y2="901.78"/>
      <g>
        <line class="st3" x1="483.37" y1="930.55" x2="517.39" y2="930.55"/>
        <line class="st3" x1="517.39" y1="931.31" x2="517.39" y2="901.84"/>
        <line class="st3" x1="517.39" y1="931.31" x2="517.39" y2="959.25"/>
        <path class="st16" d="M517.39,959.64"/>
        <line class="st3" x1="483.37" y1="959.25" x2="517.39" y2="959.25"/>
      </g>
    </g>
    <path class="st10" d="M517.39,959.14l16.54-23.26s-7.42-4.85-16.54-4.89"/>
    <path class="st10" d="M517.39,902.58l16.54,22.75s-7.42,4.74-16.54,4.79"/>
  </g>
  <line class="st13" x1="516.29" y1="699.72" x2="615.17" y2="710.95"/>
  <rect class="st22" x="511.52" y="662.06" width="7.32" height="37.29" transform="translate(948.2 1416.4) rotate(-173.36)"/>
  <rect class="st22" x="617.29" y="674.33" width="8.5" height="37.29" transform="translate(84.29 -67.21) rotate(6.64)"/>
  <polygon class="st22" points="478.91 661.78 520.62 665.93 516.69 699.72 474.98 695.57 478.91 661.78"/>
  <rect class="st22" x="618.42" y="679.73" width="46.63" height="34.01" transform="translate(1207.67 1456.34) rotate(-174.04)"/>
  <rect class="st22" x="654.79" y="710.45" width="8.5" height="200.49" transform="translate(1318.09 1621.39) rotate(-180)"/>
  <rect class="st22" x="474.91" y="695.5" width="8.5" height="338.08" transform="translate(958.33 1729.09) rotate(-180)"/>
  <rect class="st22" x="522.4" y="979.27" width="8.5" height="103.53" transform="translate(1557.69 504.39) rotate(90)"/>
  <rect class="st22" x="627.67" y="1021.65" width="8.5" height="18.78" transform="translate(1662.97 399.13) rotate(90)"/>
  <rect class="st22" x="674.73" y="963.1" width="8.5" height="92.27" transform="translate(1688.22 330.26) rotate(90)"/>
  <rect class="st22" x="716.61" y="905.86" width="8.5" height="106.97"/>
  <rect class="st22" x="688.96" y="878.74" width="8.5" height="62.73" transform="translate(-216.89 1603.32) rotate(-90)"/>
  <rect class="st22" x="674.86" y="868.78" width="3.54" height="87.58" transform="translate(1589.2 235.93) rotate(90)"/>
  <rect class="st22" x="632.81" y="1007.89" width="8.5" height="27.39"/>
  <rect class="st22" x="632.82" y="967.71" width="3.54" height="59.1"/>
  <rect class="st22" x="632.82" y="911.27" width="3.54" height="12.33"/>
  <g>
    <path class="st3" d="M578.41,1026.86c0-11.6,4.79-22.95,13.11-31.27,8.07-8.07,19.42-12.86,31.01-12.86"/>
    <line class="st3" x1="620.77" y1="1026.86" x2="578.41" y2="1026.86"/>
    <polyline class="st3" points="622.54 982.74 622.54 1026.86 620.77 1026.86"/>
  </g>
  <g>
    <polyline class="st5" points="548.64 671.38 522.13 668.26 522.44 665.58 548.96 668.7 548.64 671.38"/>
    <polyline class="st4" points="616.94 679.39 551.63 671.7 551.94 669.02 617.25 676.71 616.94 679.39"/>
    <line class="st5" x1="550.87" y1="665.3" x2="521.46" y2="661.84"/>
    <polyline class="st5" points="521.2 661.8 521.61 661.85 521.51 662.75 522.82 662.9 522.19 668.26 520.46 668.06 521.2 661.8"/>
    <polyline class="st5" points="619.4 673.37 618.98 673.32 618.87 674.21 617.56 674.06 616.93 679.42 618.66 679.63 619.4 673.37"/>
    <polyline class="st5" points="550.63 665.27 551.05 665.32 550.94 666.21 552.2 666.36 551.56 671.72 548.64 671.38 549.28 666.02 550.53 666.16 550.63 665.27"/>
    <line class="st5" x1="522.76" y1="662.89" x2="549.28" y2="666.02"/>
    <line class="st5" x1="552.2" y1="666.36" x2="617.56" y2="674.06"/>
    <line class="st5" x1="522.44" y1="665.58" x2="522.76" y2="662.89"/>
    <line class="st5" x1="550.87" y1="665.3" x2="619.19" y2="673.34"/>
    <polyline class="st5" points="617.56 674.06 618.87 674.21 618.98 673.32 619.4 673.37 618.66 679.63 616.93 679.42 617.56 674.06"/>
    <line class="st9" x1="522.44" y1="665.58" x2="533.08" y2="689.67"/>
    <line class="st9" x1="548.73" y1="668.67" x2="532.79" y2="689.63"/>
    <line class="st11" x1="522.13" y1="668.2" x2="522.07" y2="668.25"/>
    <line class="st5" x1="551.56" y1="671.72" x2="616.93" y2="679.42"/>
    <line class="st5" x1="522.13" y1="668.26" x2="548.64" y2="671.38"/>
    <polyline class="st5" points="548.64 671.38 549.28 666.02 550.53 666.16 550.63 665.27 551.05 665.32 550.94 666.21 552.2 666.36 551.56 671.72 548.64 671.38"/>
    <polyline class="st5" points="521.45 662.74 522.76 662.89 522.13 668.26 520.46 668.06 521.2 661.8 521.55 661.85 521.45 662.74"/>
    <polyline class="st5" points="522.76 662.89 549.28 666.02 548.96 668.7 522.44 665.58 522.76 662.89"/>
  </g>
  <rect class="st14" x="481.1" y="906.03" width="95.55" height="121.56"/>
</svg>