<?xml version="1.0" encoding="UTF-8"?>
<svg id="Vinduer_i_facade" xmlns="http://www.w3.org/2000/svg" version="1.1" viewBox="0 0 1200 1697.14">
  <!-- Generator: Adobe Illustrator 29.6.0, SVG Export Plug-In . SVG Version: 2.1.1 Build 207)  -->
  <defs>
    <style>
      .st0 {
        stroke-dasharray: .08 .57;
        stroke-width: .19px;
      }

      .st0, .st1, .st2, .st3, .st4, .st5, .st6, .st7, .st8, .st9, .st10, .st11, .st12, .st13, .st14, .st15, .st16, .st17, .st18, .st19 {
        stroke: #363a3b;
      }

      .st0, .st3, .st4, .st5, .st6, .st7, .st8, .st9, .st10, .st11, .st12, .st20, .st13, .st14, .st21, .st22, .st23, .st15, .st16, .st17, .st24 {
        fill: none;
      }

      .st0, .st3, .st4, .st5, .st6, .st7, .st8, .st9, .st10, .st11, .st12, .st20, .st14, .st21, .st22, .st23, .st15, .st16, .st17, .st18, .st19, .st24 {
        stroke-linejoin: round;
      }

      .st0, .st3, .st4, .st5, .st6, .st7, .st8, .st9, .st10, .st11, .st12, .st20, .st14, .st21, .st22, .st23, .st18, .st19, .st24 {
        stroke-linecap: round;
      }

      .st25 {
        fill: #e2dedb;
      }

      .st1, .st2, .st13 {
        stroke-miterlimit: 10;
      }

      .st1, .st2, .st18, .st19 {
        fill: #fff;
      }

      .st1, .st13 {
        stroke-width: .29px;
      }

      .st2, .st7, .st20, .st21, .st23, .st19, .st24 {
        stroke-width: .28px;
      }

      .st3 {
        stroke-width: .3px;
      }

      .st4 {
        stroke-width: .31px;
      }

      .st5 {
        stroke-width: .3px;
      }

      .st6 {
        stroke-width: .28px;
      }

      .st8, .st15 {
        stroke-width: .28px;
      }

      .st9, .st18 {
        stroke-width: .28px;
      }

      .st10 {
        stroke-width: .28px;
      }

      .st11 {
        stroke-width: .28px;
      }

      .st12 {
        stroke-width: .29px;
      }

      .st26 {
        fill: #ece8e5;
      }

      .st20, .st21, .st22, .st23 {
        stroke: #000;
      }

      .st14, .st22 {
        stroke-dasharray: .06 .43;
        stroke-width: .18px;
      }

      .st21 {
        stroke-dasharray: .09 .69;
      }

      .st23 {
        stroke-dasharray: .09 .68;
      }

      .st27 {
        fill: #302c35;
      }

      .st16 {
        stroke-width: .29px;
      }

      .st17 {
        stroke-width: .28px;
      }

      .st24 {
        stroke: #00001d;
      }
    </style>
  </defs>
  <polygon class="st26" points="543.37 708.5 543.37 887.45 461.35 887.45 461.35 1008.08 543.37 1008.08 558.89 1008.08 737.58 1008.08 737.58 708.5 543.37 708.5"/>
  <g>
    <rect class="st19" x="649.71" y="766.97" width="110.26" height="50.38" transform="translate(-87.32 1497) rotate(-90)"/>
    <rect class="st19" x="690.85" y="749.02" width="27.99" height="27.57" rx="1.42" ry="1.42"/>
    <polygon class="st19" points="730.68 751.45 730.68 847.58 679.65 847.58 679.65 776.32 730.68 751.45"/>
  </g>
  <g>
    <g>
      <path class="st19" d="M597.64,868.37c-7.12,0-12.9,6.14-12.9,13.72,0,5.58,3.65,11.1,8.79,13.01.7.26,2.18.79,4.11.71,6.06-.24,12.9-6.28,12.9-13.72s-5.78-13.72-12.9-13.72Z"/>
      <path class="st7" d="M594.75,894c-4.38,0-7.92-5.33-7.92-11.91"/>
      <path class="st7" d="M594.75,870.18c-4.38,0-7.92,5.33-7.92,11.91"/>
      <path class="st7" d="M594.75,870.18c.86,0,1.56-.68,1.56-1.53"/>
      <path class="st7" d="M594.75,894c.86,0,1.56.74,1.56,1.66"/>
    </g>
    <g>
      <path class="st19" d="M641.92,868.37c7.12,0,12.9,6.14,12.9,13.72,0,5.58-3.65,11.1-8.79,13.01-.7.26-2.18.79-4.11.71-6.06-.24-12.9-6.28-12.9-13.72s5.78-13.72,12.9-13.72Z"/>
      <path class="st7" d="M644.81,894c4.38,0,7.92-5.33,7.92-11.91"/>
      <path class="st7" d="M644.81,870.18c4.38,0,7.92,5.33,7.92,11.91"/>
      <path class="st7" d="M644.81,870.18c-.86,0-1.56-.68-1.56-1.53"/>
      <path class="st7" d="M644.81,894c-.86,0-1.56.74-1.56,1.66"/>
    </g>
    <rect class="st19" x="602.99" y="861.87" width="35.68" height="40.44" transform="translate(1241.65 1764.18) rotate(-180)"/>
  </g>
  <g>
    <g>
      <polyline class="st20" points="464.68 938.14 464.64 938.14 464.64 938.18"/>
      <line class="st21" x1="464.64" y1="938.87" x2="464.64" y2="982.39"/>
      <polyline class="st20" points="464.64 982.74 464.64 982.78 464.68 982.78"/>
      <line class="st23" x1="465.37" y1="982.78" x2="508.38" y2="982.78"/>
      <polyline class="st20" points="508.72 982.78 508.77 982.78 508.77 982.74"/>
      <line class="st21" x1="508.77" y1="982.05" x2="508.77" y2="938.53"/>
      <polyline class="st20" points="508.77 938.18 508.77 938.14 508.72 938.14"/>
      <line class="st23" x1="508.04" y1="938.14" x2="465.02" y2="938.14"/>
    </g>
    <g>
      <line class="st7" x1="486.67" y1="982.61" x2="486.67" y2="970.31"/>
      <path class="st19" d="M483.97,970.37c0,1.52,1.23,2.75,2.75,2.75s2.75-1.23,2.75-2.75-1.23-2.75-2.75-2.75-2.75,1.23-2.75,2.75"/>
    </g>
  </g>
  <path class="st2" d="M511.88,983.61v-16.09c0-6.19,4.45-11.2,9.95-11.2,5.5,0,9.95,5.01,9.95,11.2v16.09s-19.9,0-19.9,0Z"/>
  <g>
    <path class="st18" d="M464.23,901.74h18.5c.41,0,.74.21.74.47v26.59c0,.32-.33.59-.74.59h-18.5"/>
    <path class="st7" d="M466.92,916.62c.55,0,1-.45,1-1s-.45-1-1-1-1,.45-1,1,.45,1,1,1"/>
    <g>
      <path class="st7" d="M475.73,916.82c.68,0,1.23-.55,1.23-1.23s-.55-1.23-1.23-1.23-1.23.55-1.23,1.23.55,1.23,1.23,1.23"/>
      <path class="st7" d="M475.73,917.41c1,0,1.82-.81,1.82-1.82s-.81-1.82-1.82-1.82-1.82.81-1.82,1.82.81,1.82,1.82,1.82"/>
    </g>
    <path class="st9" d="M470.14,903.77h10.82c.41,0,.74.23.74.52v22.61c0,.29-.33.52-.74.52h-10.82c-.41,0-.74-.23-.74-.52v-22.61c0-.29.33-.52.74-.52Z"/>
  </g>
  <g>
    <path class="st7" d="M546.24,946.13c-11.6,0-22.94-4.79-31.27-13.11-8.07-8.07-12.86-19.41-12.86-31.01"/>
    <line class="st7" x1="546.24" y1="903.77" x2="546.24" y2="946.13"/>
    <polyline class="st7" points="502.11 902 546.24 902 546.24 903.77"/>
  </g>
  <g>
    <path class="st19" d="M598.01,740.61c6.26,7.8,12.52,15.61,18.78,23.41.18.41.03.92-.37,1.24-8.31,8.71-17.89,16.2-28.33,22.15-.17.1-.38.09-.5-.04-.59-.73-1.17-1.45-1.76-2.18l-16.98-21.01,29.17-23.57"/>
    <path class="st19" d="M596.41,739.12c.68.65,1.26,1.37,1.77,2.16.09.16.04.37-.13.51-9.16,7.76-18.44,15.35-27.86,22.78-.26.16-.57.13-.74-.07-.71-.74-1.34-1.54-1.88-2.41"/>
    <path class="st19" d="M599.1,744.37c.57-.46-.06-2.18-1.4-3.84-.11-.13-.22-.26-.33-.39l-.95-1.03c-.14-.12-.36-.11-.52.02l-28.39,22.95,1.95,2.42c.65.78,1.3,1.55,1.96,2.33.36.26.89.22,1.29-.1,9.96-5.95,18.92-13.54,26.4-22.35Z"/>
    <path class="st19" d="M598.05,742.72c.13.43.29.84.48,1.24.13.51.29,1.02.48,1.51.26.67.51,1.34.76,2.02.34.93.76,1.81,1.27,2.66.31.52.63,1.02.98,1.52.36.52.73,1.05,1.11,1.56.89,1.23,1.84,2.41,2.86,3.54,1.03,1.14,2.14,2.18,3.35,3.14.91.72,1.88,1.34,2.93,1.88.66.34,1.33.46,2.13.4.07,0,.12-.03.18-.07l.51-.41c.1-.16.12-.3.08-.47-6.07-7.51-12.14-15.02-18.21-22.53-.11-.13-.32-.14-.48-.01l-.16.13h0c-.15.13-.19.34-.1.48.21.35.42.69.63,1.04.31.44.58.89.81,1.38l.41,1.02Z"/>
    <path class="st19" d="M570.72,764.8c.39.22.76.46,1.12.73.47.24.93.5,1.37.79.6.39,1.21.78,1.81,1.16.84.53,1.61,1.13,2.33,1.8.44.41.87.83,1.28,1.27.44.47.87.94,1.3,1.41,1.02,1.13,1.97,2.3,2.86,3.54.9,1.24,1.68,2.55,2.36,3.93.51,1.04.92,2.12,1.22,3.26.19.72.18,1.4-.05,2.16-.02.06-.05.11-.11.16l-.51.41c-.18.06-.32.06-.48-.02-6.07-7.51-12.14-15.02-18.21-22.53-.11-.13-.07-.34.09-.47l.16-.13h0c.16-.12.37-.12.49,0,.29.28.59.55.88.83.36.39.75.75,1.18,1.08l.91.61Z"/>
  </g>
  <circle class="st2" cx="648" cy="763.71" r="13.02"/>
  <g>
    <g>
      <polyline class="st1" points="583.11 965.34 548.07 965.34 548.07 999.6 586.38 999.57 617.89 999.6 617.89 965.34 583.11 965.34"/>
      <g>
        <g>
          <polyline class="st6" points="554.94 970.18 554.94 991.37 576.13 991.37 576.13 970.18 554.94 970.18"/>
          <line class="st6" x1="565.59" y1="986.25" x2="565.59" y2="994.77"/>
        </g>
        <polyline class="st6" points="549.77 967.07 549.77 997.87 581.3 997.87 581.3 967.07 549.77 967.07"/>
      </g>
      <g>
        <g>
          <line class="st12" x1="606.13" y1="970.15" x2="606.13" y2="978.39"/>
          <line class="st12" x1="606.13" y1="985.75" x2="606.13" y2="993.99"/>
          <line class="st12" x1="609.94" y1="989.81" x2="602.22" y2="989.81"/>
          <line class="st12" x1="609.94" y1="974.32" x2="602.22" y2="974.32"/>
        </g>
        <polyline class="st3" points="597.75 967.07 597.75 997.87 614.41 997.87 614.41 967.07 597.75 967.07"/>
      </g>
    </g>
    <path class="st24" d="M616.52,965.34"/>
    <line class="st7" x1="616.13" y1="999.36" x2="616.13" y2="965.34"/>
    <line class="st7" x1="616.14" y1="999.37" x2="616.14" y2="965.35"/>
    <g>
      <line class="st7" x1="616.09" y1="999.37" x2="616.09" y2="965.35"/>
      <path class="st7" d="M588.88,970.62"/>
      <path class="st7" d="M618.35,970.62"/>
      <line class="st7" x1="616.09" y1="965.35" x2="644.79" y2="965.35"/>
      <path class="st24" d="M645.18,965.35"/>
      <line class="st7" x1="644.79" y1="999.37" x2="644.79" y2="965.35"/>
    </g>
    <path class="st14" d="M644.68,965.35l-23.26-16.54s-4.85,7.42-4.89,16.54"/>
  </g>
  <g>
    <g>
      <polyline class="st20" points="464.81 938.09 464.76 938.09 464.76 938.13"/>
      <line class="st21" x1="464.76" y1="938.82" x2="464.76" y2="982.34"/>
      <polyline class="st20" points="464.76 982.69 464.76 982.73 464.81 982.73"/>
      <line class="st23" x1="465.49" y1="982.73" x2="508.5" y2="982.73"/>
      <polyline class="st20" points="508.84 982.73 508.89 982.73 508.89 982.69"/>
      <line class="st21" x1="508.89" y1="982" x2="508.89" y2="938.48"/>
      <polyline class="st20" points="508.89 938.13 508.89 938.09 508.84 938.09"/>
      <line class="st23" x1="508.16" y1="938.09" x2="465.15" y2="938.09"/>
    </g>
    <g>
      <line class="st7" x1="486.79" y1="982.56" x2="486.79" y2="970.26"/>
      <path class="st19" d="M484.1,970.32c0,1.52,1.23,2.75,2.75,2.75s2.75-1.23,2.75-2.75-1.23-2.75-2.75-2.75-2.75,1.23-2.75,2.75"/>
    </g>
  </g>
  <path class="st2" d="M512.01,983.34v-16.09c0-6.19,4.45-11.2,9.95-11.2,5.5,0,9.95,5.01,9.95,11.2v16.09s-19.9,0-19.9,0Z"/>
  <g>
    <path class="st18" d="M464.35,901.46h18.5c.41,0,.74.21.74.47v26.59c0,.32-.33.59-.74.59h-18.5"/>
    <path class="st7" d="M467.05,916.34c.55,0,1-.45,1-1s-.45-1-1-1-1,.45-1,1,.45,1,1,1"/>
    <g>
      <path class="st7" d="M475.86,916.55c.68,0,1.23-.55,1.23-1.23s-.55-1.23-1.23-1.23-1.23.55-1.23,1.23.55,1.23,1.23,1.23"/>
      <path class="st7" d="M475.86,917.13c1,0,1.82-.81,1.82-1.82s-.81-1.82-1.82-1.82-1.82.81-1.82,1.82.81,1.82,1.82,1.82"/>
    </g>
    <path class="st9" d="M470.26,903.49h10.82c.41,0,.74.23.74.52v22.61c0,.29-.33.52-.74.52h-10.82c-.41,0-.74-.23-.74-.52v-22.61c0-.29.33-.52.74-.52Z"/>
  </g>
  <polygon class="st25" points="738.47 999.91 617.84 999.91 617.92 980.71 583.28 980.6 583.28 915.96 738.47 915.96 738.47 999.91"/>
  <g>
    <line class="st7" x1="732.86" y1="890.09" x2="732.86" y2="909.35"/>
    <line class="st7" x1="731.48" y1="909.35" x2="731.48" y2="890.09"/>
    <polyline class="st7" points="732.86 909.35 732.86 912.23 731.48 912.23 731.48 909.35 732.86 909.35"/>
    <polyline class="st7" points="732.86 887.27 732.86 890.09 731.48 890.09 731.48 887.27 732.86 887.27"/>
    <line class="st7" x1="735.92" y1="889.07" x2="733.1" y2="889.07"/>
    <line class="st7" x1="735.92" y1="910.24" x2="733.1" y2="910.24"/>
  </g>
  <g>
    <g>
      <polygon class="st13" points="548.07 999.6 585.4 999.57 616.11 999.6 616.11 965.34 548.07 965.34 548.07 999.6"/>
      <g>
        <g>
          <polyline class="st6" points="554.94 970.18 554.94 991.37 576.13 991.37 576.13 970.18 554.94 970.18"/>
          <line class="st6" x1="565.59" y1="986.25" x2="565.59" y2="994.77"/>
        </g>
        <polyline class="st6" points="549.77 967.07 549.77 997.87 581.3 997.87 581.3 967.07 549.77 967.07"/>
      </g>
      <g>
        <g>
          <line class="st12" x1="606.13" y1="970.15" x2="606.13" y2="978.39"/>
          <line class="st12" x1="606.13" y1="985.75" x2="606.13" y2="993.99"/>
          <line class="st12" x1="609.94" y1="989.81" x2="602.22" y2="989.81"/>
          <line class="st12" x1="609.94" y1="974.32" x2="602.22" y2="974.32"/>
        </g>
        <polyline class="st3" points="597.75 967.07 597.75 997.87 614.41 997.87 614.41 967.07 597.75 967.07"/>
      </g>
    </g>
    <path class="st24" d="M616.52,965.34"/>
    <line class="st7" x1="616.13" y1="999.36" x2="616.13" y2="965.34"/>
    <line class="st7" x1="616.14" y1="999.37" x2="616.14" y2="965.35"/>
    <g>
      <line class="st7" x1="616.09" y1="999.37" x2="616.09" y2="965.35"/>
      <path class="st7" d="M588.88,970.62"/>
      <path class="st7" d="M618.35,970.62"/>
      <line class="st7" x1="616.09" y1="965.35" x2="644.79" y2="965.35"/>
      <path class="st24" d="M645.18,965.35"/>
      <line class="st7" x1="644.79" y1="999.37" x2="644.79" y2="965.35"/>
    </g>
    <path class="st14" d="M644.68,965.35l-23.26-16.54s-4.85,7.42-4.89,16.54"/>
  </g>
  <rect class="st27" x="456.86" y="884.12" width="91.29" height="8.5"/>
  <rect class="st27" x="544.62" y="889.11" width="3.54" height="12.82"/>
  <rect class="st27" x="544.7" y="945.98" width="3.54" height="61.28"/>
  <rect class="st27" x="725.83" y="999.42" width="18.45" height="8.5"/>
  <rect class="st27" x="546.43" y="999.5" width="135.49" height="8.58"/>
  <rect class="st27" x="455.72" y="983.17" width="92.48" height="24.91"/>
  <rect class="st27" x="732.92" y="698.37" width="9.98" height="34.02"/>
  <rect class="st27" x="541.74" y="689.06" width="35.49" height="34.02"/>
  <rect class="st27" x="665.72" y="689.06" width="78.56" height="34.02"/>
  <rect class="st27" x="539.64" y="689.06" width="8.5" height="201.94"/>
  <rect class="st27" x="455.72" y="884.12" width="8.5" height="123.32"/>
  <rect class="st27" x="735.78" y="689.06" width="8.5" height="317.84"/>
  <g>
    <path class="st7" d="M681.85,999.65c0-11.6,4.79-22.95,13.11-31.27,8.07-8.07,19.42-12.86,31.01-12.86"/>
    <line class="st7" x1="724.21" y1="999.65" x2="681.85" y2="999.65"/>
    <polyline class="st7" points="725.97 955.52 725.97 999.65 724.21 999.65"/>
  </g>
  <g>
    <g>
      <path class="st0" d="M635.03,708.63c.01,15.52-4.79,27.77-15.77,39.21-10.64,11.09-25.64,17.62-41,17.69"/>
      <path class="st0" d="M636.45,708.41"/>
      <path class="st0" d="M578.01,708.65"/>
      <line class="st0" x1="578.26" y1="765.53" x2="578.01" y2="708.65"/>
    </g>
    <line class="st9" x1="608.54" y1="702.39" x2="578.51" y2="702.39"/>
    <polyline class="st9" points="631.83 706.47 580.97 706.47 580.97 703.71 631.83 703.71 631.83 706.47"/>
    <line class="st9" x1="611.16" y1="708.63" x2="662.16" y2="708.63"/>
    <line class="st9" x1="664.62" y1="708.63" x2="609" y2="708.63"/>
    <line class="st9" x1="611.16" y1="708.63" x2="662.16" y2="708.63"/>
    <line class="st9" x1="664.62" y1="708.63" x2="580.97" y2="708.63"/>
    <line class="st9" x1="611.16" y1="708.63" x2="662.16" y2="708.63"/>
    <line class="st8" x1="664.62" y1="702.39" x2="608.08" y2="702.39"/>
    <line class="st9" x1="665.13" y1="700.11" x2="578.01" y2="700.11"/>
    <polyline class="st4" points="665.4 708.63 663.45 708.63 663.45 703.19 664.62 703.19 664.62 702.27 665.4 702.27 665.4 708.63"/>
    <polyline class="st9" points="663.45 706.47 635.97 706.47 635.97 703.71 663.45 703.71 663.45 706.47"/>
    <polyline class="st4" points="577.74 708.63 580.97 708.63 580.97 703.19 578.51 703.19 578.51 702.27 577.74 702.27 577.74 708.63"/>
    <rect class="st9" x="578.01" y="699.27" width=".54" height="1.74" transform="translate(1156.56 1400.29) rotate(180)"/>
    <rect class="st9" x="582.57" y="699.27" width=".54" height="1.74" transform="translate(1165.68 1400.29) rotate(180)"/>
    <rect class="st9" x="587.13" y="699.27" width=".54" height="1.74" transform="translate(1174.8 1400.29) rotate(180)"/>
    <rect class="st9" x="591.69" y="699.27" width=".54" height="1.74" transform="translate(1183.92 1400.29) rotate(180)"/>
    <rect class="st9" x="596.22" y="699.27" width=".54" height="1.74" transform="translate(1192.98 1400.29) rotate(180)"/>
    <rect class="st9" x="600.78" y="699.27" width=".54" height="1.74" transform="translate(1202.1 1400.29) rotate(180)"/>
    <rect class="st9" x="605.34" y="699.27" width=".54" height="1.74" transform="translate(1211.22 1400.29) rotate(180)"/>
    <rect class="st9" x="609.9" y="699.27" width=".54" height="1.74" transform="translate(1220.34 1400.29) rotate(180)"/>
    <rect class="st9" x="614.46" y="699.27" width=".54" height="1.74" transform="translate(1229.46 1400.29) rotate(180)"/>
    <rect class="st9" x="619.02" y="699.27" width=".54" height="1.74" transform="translate(1238.58 1400.29) rotate(180)"/>
    <rect class="st9" x="623.58" y="699.27" width=".54" height="1.74" transform="translate(1247.7 1400.29) rotate(180)"/>
    <rect class="st9" x="628.14" y="699.27" width=".54" height="1.74" transform="translate(1256.82 1400.29) rotate(180)"/>
    <rect class="st9" x="632.67" y="699.24" width=".54" height="1.74" transform="translate(1265.88 1400.23) rotate(180)"/>
    <rect class="st9" x="637.23" y="699.24" width=".54" height="1.74" transform="translate(1275 1400.23) rotate(180)"/>
    <rect class="st9" x="641.79" y="699.24" width=".54" height="1.74" transform="translate(1284.12 1400.23) rotate(180)"/>
    <rect class="st9" x="646.35" y="699.24" width=".54" height="1.74" transform="translate(1293.24 1400.23) rotate(180)"/>
    <rect class="st9" x="650.91" y="699.24" width=".54" height="1.74" transform="translate(1302.36 1400.23) rotate(180)"/>
    <rect class="st9" x="655.47" y="699.24" width=".54" height="1.74" transform="translate(1311.48 1400.23) rotate(180)"/>
    <rect class="st9" x="660.03" y="699.24" width=".54" height="1.74" transform="translate(1320.6 1400.23) rotate(180)"/>
    <rect class="st9" x="664.59" y="699.24" width=".54" height="1.74" transform="translate(1329.72 1400.23) rotate(180)"/>
    <line class="st11" x1="631.83" y1="703.18" x2="663.45" y2="703.18"/>
    <line class="st17" x1="578.51" y1="703.18" x2="631.83" y2="703.19"/>
    <g>
      <polyline class="st10" points="635.03 702.27 634.11 702.27 634.11 708.63 635.97 708.63 635.97 703.19 635.03 703.19 635.03 702.27"/>
      <polyline class="st16" points="634.11 703.19 631.83 703.19 631.83 708.63"/>
      <polyline class="st5" points="631.83 708.63 635.03 708.63 635.03 702.27 635.03 702.27 634.11 702.27"/>
    </g>
    <line class="st15" x1="665.92" y1="703.43" x2="665.42" y2="703.43"/>
    <line class="st15" x1="577.74" y1="703.43" x2="577.24" y2="703.43"/>
  </g>
  <polygon class="st22" points="617.92 980.71 617.89 999.65 735.78 999.65 735.78 915.96 583.28 915.96 583.28 980.6 617.92 980.71"/>
</svg>