<?xml version="1.0" encoding="UTF-8"?>
<svg id="Vinduer_i_facade" xmlns="http://www.w3.org/2000/svg" version="1.1" viewBox="0 0 1200 1697.14">
  <!-- Generator: Adobe Illustrator 29.6.0, SVG Export Plug-In . SVG Version: 2.1.1 Build 207)  -->
  <defs>
    <style>
      .st0 {
        fill: #e2dedb;
      }

      .st1 {
        stroke-width: .29px;
      }

      .st1, .st2 {
        stroke-miterlimit: 10;
      }

      .st1, .st2, .st3, .st4, .st5, .st6, .st7, .st8, .st9, .st10, .st11, .st12, .st13 {
        stroke: #363a3b;
      }

      .st1, .st2, .st12, .st13 {
        fill: #fff;
      }

      .st2, .st5, .st14, .st15, .st11, .st16, .st13 {
        stroke-width: .28px;
      }

      .st3 {
        stroke-width: .3px;
      }

      .st3, .st4, .st5, .st6, .st7, .st8, .st14, .st9, .st10, .st17, .st15, .st11, .st18, .st16 {
        fill: none;
      }

      .st3, .st4, .st5, .st6, .st7, .st8, .st14, .st9, .st10, .st17, .st15, .st11, .st18, .st16, .st12, .st13 {
        stroke-linecap: round;
        stroke-linejoin: round;
      }

      .st4 {
        stroke-width: .28px;
      }

      .st6 {
        stroke-width: .28px;
      }

      .st7, .st17, .st12 {
        stroke-width: .28px;
      }

      .st8 {
        stroke-width: .29px;
      }

      .st19 {
        fill: #ece8e5;
      }

      .st14, .st15, .st18, .st16 {
        stroke: #000;
      }

      .st9 {
        stroke-width: .18px;
      }

      .st9, .st10, .st18 {
        stroke-dasharray: .06 .43;
      }

      .st10, .st18 {
        stroke-width: .18px;
      }

      .st17 {
        stroke: #0e0e0e;
      }

      .st15 {
        stroke-dasharray: .09 .69;
      }

      .st11 {
        stroke-dasharray: .09 .69;
      }

      .st16 {
        stroke-dasharray: .09 .68;
      }

      .st20 {
        fill: #302c35;
      }
    </style>
  </defs>
  <polygon class="st19" points="534.02 720 634.06 724.21 636.12 720.44 673.37 720.88 673.37 891.14 743.87 891.14 743.87 988.25 661.4 988.25 661.4 1014.85 456.11 1014.85 456.11 837.94 488.92 837.94 488.92 711.13 529.27 714.23 534.02 720"/>
  <line class="st11" x1="533.65" y1="720" x2="634.06" y2="724.21"/>
  <g>
    <g>
      <polyline class="st13" points="563.96 972.43 588.77 972.43 588.77 1006.45 563.96 1006.45 563.96 972.43"/>
      <path class="st13" d="M589.16,972.43"/>
      <path class="st13" d="M588.77,972.43"/>
    </g>
    <path class="st10" d="M588.77,972.43l-19.53-16.54s-4.36,7.42-4.4,16.54"/>
    <g>
      <polyline class="st13" points="563.98 972.43 539.17 972.43 539.17 1006.45 563.98 1006.45 563.98 972.43"/>
      <path class="st13" d="M538.78,972.43"/>
      <path class="st13" d="M539.17,972.43"/>
    </g>
    <path class="st10" d="M539.17,972.43l19.53-16.54s4.36,7.42,4.4,16.54"/>
  </g>
  <g>
    <g>
      <polyline class="st14" points="696.13 939.51 696.09 939.51 696.09 939.55"/>
      <line class="st15" x1="696.09" y1="940.24" x2="696.09" y2="983.76"/>
      <polyline class="st14" points="696.09 984.11 696.09 984.15 696.13 984.15"/>
      <line class="st16" x1="696.81" y1="984.15" x2="739.83" y2="984.15"/>
      <polyline class="st14" points="740.17 984.15 740.22 984.15 740.22 984.11"/>
      <line class="st15" x1="740.22" y1="983.42" x2="740.22" y2="939.9"/>
      <polyline class="st14" points="740.22 939.55 740.22 939.51 740.17 939.51"/>
      <line class="st16" x1="739.49" y1="939.51" x2="696.47" y2="939.51"/>
    </g>
    <g>
      <line class="st5" x1="718.12" y1="983.98" x2="718.12" y2="971.68"/>
      <path class="st13" d="M715.42,971.74c0,1.52,1.23,2.75,2.75,2.75s2.75-1.23,2.75-2.75c0-1.52-1.23-2.75-2.75-2.75s-2.75,1.23-2.75,2.75"/>
    </g>
  </g>
  <path class="st2" d="M673.09,985.21v-16.09c0-6.19,4.45-11.2,9.95-11.2s9.95,5.01,9.95,11.2v16.09s-19.9,0-19.9,0Z"/>
  <g>
    <path class="st12" d="M740.85,930.53h-18.5c-.41,0-.74-.21-.74-.47v-26.59c0-.32.33-.59.74-.59h18.5"/>
    <path class="st5" d="M738.15,915.65c-.55,0-1,.45-1,1s.45,1,1,1,1-.45,1-1-.45-1-1-1"/>
    <g>
      <path class="st5" d="M729.34,915.44c-.68,0-1.23.55-1.23,1.23s.55,1.23,1.23,1.23,1.23-.55,1.23-1.23-.55-1.23-1.23-1.23"/>
      <path class="st5" d="M729.34,914.86c-1,0-1.82.81-1.82,1.82s.81,1.82,1.82,1.82,1.82-.81,1.82-1.82-.81-1.82-1.82-1.82"/>
    </g>
    <path class="st7" d="M734.94,928.5h-10.82c-.41,0-.74-.23-.74-.52v-22.61c0-.29.33-.52.74-.52h10.82c.41,0,.74.23.74.52v22.61c0,.29-.33.52-.74.52Z"/>
  </g>
  <g>
    <g>
      <path class="st13" d="M533.39,910.36c-7.12-.02-12.88-6.17-12.86-13.75.01-5.58,3.68-11.1,8.82-12.98.7-.26,2.18-.78,4.11-.7,6.06.26,12.88,6.31,12.86,13.75-.02,7.58-5.81,13.7-12.93,13.69Z"/>
      <path class="st5" d="M530.56,884.72c-4.38-.01-7.93,5.31-7.95,11.89"/>
      <path class="st5" d="M530.5,908.54c-4.38-.01-7.91-5.35-7.89-11.93"/>
      <path class="st5" d="M530.5,908.54c.86,0,1.56.69,1.56,1.53"/>
      <path class="st5" d="M530.56,884.72c.86,0,1.57-.74,1.57-1.65"/>
    </g>
    <g>
      <path class="st13" d="M577.66,910.47c7.12.02,12.91-6.11,12.93-13.69.01-5.58-3.62-11.11-8.75-13.03-.7-.26-2.17-.79-4.11-.72-6.06.23-12.91,6.24-12.93,13.69-.02,7.58,5.74,13.73,12.86,13.75Z"/>
      <path class="st5" d="M580.62,884.85c4.38.01,7.91,5.35,7.89,11.93"/>
      <path class="st5" d="M580.56,908.67c4.38.01,7.93-5.31,7.95-11.89"/>
      <path class="st5" d="M580.56,908.67c-.86,0-1.57.68-1.57,1.53"/>
      <path class="st5" d="M580.62,884.85c-.86,0-1.56-.74-1.56-1.66"/>
    </g>
    <rect class="st13" x="538.77" y="876.48" width="35.68" height="40.44" transform="translate(1110.93 1794.81) rotate(-179.85)"/>
  </g>
  <g>
    <rect class="st13" x="586.2" y="767.12" width="110.26" height="50.38" transform="translate(-151.36 1433.18) rotate(-89.97)"/>
    <rect class="st13" x="627.36" y="749.17" width="27.99" height="27.57" rx="1.42" ry="1.42"/>
    <polygon class="st13" points="667.19 751.62 667.14 847.75 616.11 847.72 616.16 776.45 667.19 751.62"/>
  </g>
  <g>
    <g>
      <path class="st13" d="M530.76,732.14c6.26,7.8,12.52,15.61,18.78,23.41.18.41.03.92-.37,1.24-8.31,8.71-17.89,16.2-28.33,22.15-.17.1-.38.09-.5-.04-.59-.73-1.17-1.45-1.76-2.18l-16.98-21.01,29.17-23.57"/>
      <path class="st13" d="M529.16,730.64c.68.65,1.26,1.37,1.77,2.16.09.16.04.37-.13.51-9.16,7.76-18.44,15.35-27.86,22.78-.26.16-.57.13-.74-.07-.71-.74-1.34-1.54-1.88-2.41"/>
      <path class="st13" d="M531.85,735.9c.57-.46-.06-2.18-1.4-3.84-.11-.13-.22-.26-.33-.39l-.95-1.03c-.14-.12-.36-.11-.52.02l-28.39,22.95,1.95,2.42c.65.78,1.3,1.55,1.96,2.33.36.26.89.22,1.29-.1,9.96-5.95,18.92-13.54,26.4-22.35Z"/>
      <path class="st13" d="M530.8,734.24c.13.43.29.84.48,1.24.13.51.29,1.02.48,1.51.26.67.51,1.34.76,2.02.34.93.76,1.81,1.27,2.66.31.52.63,1.02.98,1.52.36.52.73,1.05,1.11,1.56.89,1.23,1.84,2.41,2.86,3.54,1.03,1.14,2.14,2.18,3.35,3.14.91.72,1.88,1.34,2.93,1.88.66.34,1.33.46,2.13.4.07,0,.12-.03.18-.07l.51-.41c.1-.16.12-.3.08-.47-6.07-7.51-12.14-15.02-18.21-22.53-.11-.13-.32-.14-.48-.01l-.16.13h0c-.15.13-.19.34-.1.48.21.35.42.69.63,1.04.31.44.58.89.81,1.38l.41,1.02Z"/>
      <path class="st13" d="M503.47,756.33c.39.22.76.46,1.12.73.47.24.93.5,1.37.79.6.39,1.21.78,1.81,1.16.84.53,1.61,1.13,2.33,1.8.44.41.87.83,1.28,1.27.44.47.87.94,1.3,1.41,1.02,1.13,1.97,2.3,2.86,3.54.9,1.24,1.68,2.55,2.36,3.93.51,1.04.92,2.12,1.22,3.26.19.72.18,1.4-.05,2.16-.02.06-.05.11-.11.16l-.51.41c-.18.06-.32.06-.48-.02-6.07-7.51-12.14-15.02-18.21-22.53-.11-.13-.07-.34.09-.47l.16-.13h0c.16-.12.37-.12.49,0,.29.28.59.55.88.83.36.39.75.75,1.18,1.08l.91.61Z"/>
    </g>
    <circle class="st2" cx="570.7" cy="772.25" r="13.02"/>
  </g>
  <g>
    <polygon class="st1" points="656.93 1006.71 619.6 1006.69 588.89 1006.71 588.89 972.45 656.93 972.45 656.93 1006.71"/>
    <g>
      <g>
        <polyline class="st4" points="650.06 977.29 650.06 998.48 628.87 998.48 628.87 977.29 650.06 977.29"/>
        <line class="st4" x1="639.41" y1="993.36" x2="639.41" y2="1001.88"/>
      </g>
      <polyline class="st4" points="655.23 974.19 655.23 1004.98 623.7 1004.98 623.7 974.19 655.23 974.19"/>
    </g>
    <g>
      <g>
        <line class="st8" x1="598.87" y1="977.26" x2="598.87" y2="985.5"/>
        <line class="st8" x1="598.87" y1="992.86" x2="598.87" y2="1001.1"/>
        <line class="st8" x1="595.06" y1="996.93" x2="602.79" y2="996.93"/>
        <line class="st8" x1="595.06" y1="981.43" x2="602.79" y2="981.43"/>
      </g>
      <polyline class="st3" points="607.25 974.19 607.25 1004.98 590.59 1004.98 590.59 974.19 607.25 974.19"/>
    </g>
  </g>
  <rect class="st0" x="480.86" y="900.5" width="82.45" height="129.57" transform="translate(-443.2 1487.37) rotate(-90)"/>
  <g>
    <line class="st5" x1="462.32" y1="898.85" x2="462.34" y2="918.12"/>
    <line class="st5" x1="463.72" y1="918.12" x2="463.7" y2="898.85"/>
    <polyline class="st5" points="462.34 918.12 462.34 921 463.72 921 463.72 918.12 462.34 918.12"/>
    <polyline class="st5" points="462.31 896.03 462.32 898.85 463.7 898.85 463.69 896.03 462.31 896.03"/>
    <line class="st5" x1="459.26" y1="897.83" x2="462.08" y2="897.83"/>
    <line class="st5" x1="459.28" y1="919.01" x2="462.1" y2="919.01"/>
  </g>
  <g>
    <g>
      <polyline class="st5" points="563.96 972.43 588.77 972.43 588.77 1006.45 563.96 1006.45 563.96 972.43"/>
      <path class="st13" d="M589.16,972.43"/>
      <path class="st13" d="M588.77,972.43"/>
    </g>
    <path class="st10" d="M588.77,972.43l-19.53-16.54s-4.36,7.42-4.4,16.54"/>
    <g>
      <polyline class="st5" points="563.98 972.43 539.17 972.43 539.17 1006.45 563.98 1006.45 563.98 972.43"/>
      <path class="st13" d="M538.78,972.43"/>
      <path class="st13" d="M539.17,972.43"/>
    </g>
    <path class="st10" d="M539.17,972.43l19.53-16.54s4.36,7.42,4.4,16.54"/>
  </g>
  <polygon class="st20" points="525.52 719.59 534.02 720.03 535.33 683.08 526.83 682.78 525.52 719.59"/>
  <rect class="st20" x="633.52" y="686.85" width="8.5" height="36.58" transform="translate(23.64 -20.68) rotate(1.89)"/>
  <rect class="st20" x="633.44" y="690.62" width="45.14" height="34.3" transform="translate(23.74 -21.29) rotate(1.89)"/>
  <rect class="st20" x="670.67" y="691.36" width="8.5" height="199.23"/>
  <rect class="st20" x="672.48" y="885.49" width="76.76" height="8.5"/>
  <rect class="st20" x="698.87" y="848.58" width="3.54" height="87.35" transform="translate(-191.61 1592.89) rotate(-90)"/>
  <rect class="st20" x="696.39" y="945.18" width="8.5" height="87.35" transform="translate(-288.21 1689.49) rotate(-90)"/>
  <rect class="st20" x="581.91" y="936.61" width="8.5" height="148.04" transform="translate(-424.47 1596.79) rotate(-90)"/>
  <rect class="st20" x="455.45" y="1001.68" width="8.5" height="17.9" transform="translate(-550.93 1470.34) rotate(-90)"/>
  <rect class="st20" x="464.74" y="819.58" width="8.5" height="36.46" transform="translate(-368.83 1306.8) rotate(-90)"/>
  <rect class="st20" x="656.88" y="890.48" width="3.54" height="12.88" transform="translate(1317.31 1793.84) rotate(180)"/>
  <rect class="st20" x="656.89" y="947.27" width="3.54" height="38.28" transform="translate(1317.32 1932.82) rotate(180)"/>
  <rect class="st20" x="740.73" y="890.56" width="8.5" height="102.51" transform="translate(1489.97 1883.63) rotate(180)"/>
  <rect class="st20" x="484" y="687.85" width="8.5" height="154.22" transform="translate(976.5 1529.91) rotate(180)"/>
  <rect class="st20" x="450.76" y="834.28" width="8.5" height="180.43" transform="translate(910.03 1848.99) rotate(180)"/>
  <rect class="st20" x="656.93" y="988.99" width="8.5" height="25.86" transform="translate(1322.37 2003.83) rotate(180)"/>
  <polygon class="st20" points="533.76 720 484.06 717.9 484 687.43 535.02 689.53 533.76 720"/>
  <g>
    <path class="st5" d="M702.87,903.21c0,11.6-4.79,22.94-13.11,31.27-8.07,8.07-19.41,12.86-31.01,12.86"/>
    <line class="st5" x1="660.51" y1="903.21" x2="702.87" y2="903.21"/>
    <polyline class="st5" points="658.75 947.33 658.75 903.21 660.51 903.21"/>
  </g>
  <g>
    <path class="st5" d="M512.63,1006.48c0-11.6-4.79-22.95-13.11-31.27-8.07-8.07-19.42-12.86-31.01-12.86"/>
    <line class="st5" x1="470.27" y1="1006.48" x2="512.63" y2="1006.48"/>
    <polyline class="st5" points="468.5 962.36 468.5 1006.48 470.27 1006.48"/>
  </g>
  <g>
    <polyline class="st7" points="563.57 689.66 536.89 688.62 537 685.92 563.68 686.96 563.57 689.66"/>
    <polyline class="st6" points="632.28 692.32 566.57 689.75 566.68 687.05 632.39 689.62 632.28 692.32"/>
    <line class="st7" x1="565.32" y1="683.43" x2="535.73" y2="682.27"/>
    <polyline class="st7" points="535.46 682.26 535.88 682.27 535.85 683.17 537.16 683.22 536.95 688.62 535.21 688.55 535.46 682.26"/>
    <polyline class="st7" points="634.27 686.12 633.85 686.11 633.81 687.01 632.49 686.96 632.28 692.35 634.02 692.42 634.27 686.12"/>
    <polyline class="st7" points="565.08 683.42 565.5 683.43 565.46 684.33 566.72 684.38 566.51 689.78 563.57 689.66 563.78 684.27 565.04 684.32 565.08 683.42"/>
    <line class="st7" x1="537.1" y1="683.22" x2="563.78" y2="684.27"/>
    <line class="st7" x1="566.72" y1="684.38" x2="632.49" y2="686.96"/>
    <line class="st7" x1="537" y1="685.92" x2="537.1" y2="683.22"/>
    <line class="st7" x1="565.32" y1="683.43" x2="634.06" y2="686.12"/>
    <polyline class="st7" points="632.49 686.96 633.81 687.01 633.85 686.11 634.27 686.12 634.02 692.42 632.28 692.35 632.49 686.96"/>
    <line class="st9" x1="537" y1="685.92" x2="549.48" y2="709.11"/>
    <line class="st9" x1="563.45" y1="686.96" x2="549.19" y2="709.1"/>
    <line class="st17" x1="536.9" y1="688.56" x2="536.83" y2="688.62"/>
    <line class="st7" x1="566.51" y1="689.78" x2="632.28" y2="692.35"/>
    <line class="st7" x1="536.89" y1="688.62" x2="563.57" y2="689.66"/>
    <polyline class="st7" points="563.57 689.66 563.78 684.27 565.04 684.32 565.08 683.42 565.5 683.43 565.46 684.33 566.72 684.38 566.51 689.78 563.57 689.66"/>
    <polyline class="st7" points="535.79 683.17 537.1 683.22 536.89 688.62 535.21 688.55 535.46 682.26 535.82 682.27 535.79 683.17"/>
    <polyline class="st7" points="537.1 683.22 563.78 684.27 563.68 686.96 537 685.92 537.1 683.22"/>
  </g>
  <rect class="st18" x="458.89" y="924.06" width="127.99" height="82.65"/>
</svg>