<?xml version="1.0" encoding="UTF-8"?>
<svg id="Vinduer_i_facade" xmlns="http://www.w3.org/2000/svg" version="1.1" viewBox="0 0 1200 1697.14">
  <!-- Generator: Adobe Illustrator 29.6.0, SVG Export Plug-In . SVG Version: 2.1.1 Build 207)  -->
  <defs>
    <style>
      .st0 {
        fill: #e2dedb;
      }

      .st1, .st2, .st3, .st4, .st5, .st6, .st7, .st8, .st9, .st10, .st11, .st12, .st13, .st14 {
        stroke: #363a3b;
      }

      .st1, .st2, .st9 {
        stroke-miterlimit: 10;
      }

      .st1, .st2, .st13, .st14 {
        fill: #fff;
      }

      .st1, .st9 {
        stroke-width: .29px;
      }

      .st2, .st5, .st15, .st16, .st12, .st17, .st14 {
        stroke-width: .28px;
      }

      .st3 {
        stroke-width: .3px;
      }

      .st3, .st4, .st5, .st6, .st7, .st8, .st15, .st9, .st10, .st11, .st18, .st16, .st12, .st19, .st17 {
        fill: none;
      }

      .st3, .st4, .st5, .st6, .st7, .st8, .st15, .st10, .st11, .st18, .st16, .st12, .st19, .st17, .st13, .st14 {
        stroke-linecap: round;
        stroke-linejoin: round;
      }

      .st4 {
        stroke-width: .28px;
      }

      .st6 {
        stroke-width: .28px;
      }

      .st7, .st18, .st13 {
        stroke-width: .28px;
      }

      .st8 {
        stroke-width: .29px;
      }

      .st20 {
        fill: #ece8e5;
      }

      .st15, .st16, .st19, .st17 {
        stroke: #000;
      }

      .st10 {
        stroke-width: .18px;
      }

      .st10, .st11, .st19 {
        stroke-dasharray: .06 .43;
      }

      .st11, .st19 {
        stroke-width: .18px;
      }

      .st18 {
        stroke: #0e0e0e;
      }

      .st16 {
        stroke-dasharray: .09 .69;
      }

      .st12 {
        stroke-dasharray: .09 .69;
      }

      .st17 {
        stroke-dasharray: .09 .68;
      }

      .st21 {
        fill: #302c35;
      }
    </style>
  </defs>
  <polygon class="st20" points="470.73 728.81 569.83 721.58 574.44 717.81 624.29 714.51 628.42 717.21 726.29 707.57 729.18 705.32 749.26 702.52 749.26 1027.72 604.25 1027.75 604.14 994.8 519.51 994.8 519.51 899.52 452.33 899.52 452.33 703.66 470.73 728.81"/>
  <line class="st12" x1="628.42" y1="717.21" x2="727.44" y2="707.6"/>
  <line class="st12" x1="470.73" y1="728.81" x2="569.86" y2="721.86"/>
  <g>
    <path class="st11" d="M711.58,894.45l-16.54,23.26s7.42,4.85,16.54,4.89"/>
    <path class="st11" d="M711.58,951.6l-16.54-23.26s7.42-4.85,16.54-4.89"/>
    <rect class="st14" x="714.39" y="891.52" width="28.71" height="34.33" transform="translate(-179.94 1637.43) rotate(-90)"/>
    <rect class="st14" x="714.39" y="920.2" width="28.71" height="34.33" transform="translate(-208.62 1666.12) rotate(-90)"/>
  </g>
  <g>
    <g>
      <polyline class="st15" points="569.27 944.15 569.32 944.15 569.32 944.19"/>
      <line class="st16" x1="569.32" y1="944.89" x2="569.32" y2="988.4"/>
      <polyline class="st15" points="569.32 988.75 569.32 988.8 569.27 988.8"/>
      <line class="st17" x1="568.59" y1="988.8" x2="525.58" y2="988.8"/>
      <polyline class="st15" points="525.24 988.8 525.19 988.8 525.19 988.75"/>
      <line class="st16" x1="525.19" y1="988.06" x2="525.19" y2="944.54"/>
      <polyline class="st15" points="525.19 944.19 525.19 944.15 525.24 944.15"/>
      <line class="st17" x1="525.92" y1="944.15" x2="568.93" y2="944.15"/>
    </g>
    <g>
      <line class="st5" x1="547.29" y1="988.62" x2="547.29" y2="976.32"/>
      <path class="st14" d="M549.98,976.38c0,1.52-1.23,2.75-2.75,2.75s-2.75-1.23-2.75-2.75c0-1.52,1.23-2.75,2.75-2.75s2.75,1.23,2.75,2.75"/>
    </g>
  </g>
  <path class="st2" d="M592.31,989.64v-16.09c0-6.19-4.45-11.2-9.95-11.2-5.5,0-9.95,5.01-9.95,11.2v16.09s19.9,0,19.9,0Z"/>
  <g>
    <path class="st13" d="M524.56,934.96h18.5c.41,0,.74-.21.74-.47v-26.59c0-.32-.33-.59-.74-.59h-18.5"/>
    <path class="st5" d="M527.26,920.08c.55,0,1,.45,1,1s-.45,1-1,1-1-.45-1-1,.45-1,1-1"/>
    <g>
      <path class="st5" d="M536.07,919.88c.68,0,1.23.55,1.23,1.23s-.55,1.23-1.23,1.23-1.23-.55-1.23-1.23.55-1.23,1.23-1.23"/>
      <path class="st5" d="M536.07,919.29c1,0,1.82.81,1.82,1.82s-.81,1.82-1.82,1.82-1.82-.81-1.82-1.82.81-1.82,1.82-1.82"/>
    </g>
    <path class="st7" d="M530.47,932.93h10.82c.41,0,.74-.23.74-.52v-22.61c0-.29-.33-.52-.74-.52h-10.82c-.41,0-.74.23-.74.52v22.61c0,.29.33.52.74.52Z"/>
  </g>
  <g>
    <g>
      <path class="st14" d="M663.45,825.16c-7.12-.02-12.88-6.17-12.86-13.75.01-5.58,3.68-11.1,8.82-12.98.7-.26,2.18-.78,4.11-.7,6.06.26,12.88,6.31,12.86,13.75-.02,7.58-5.81,13.7-12.93,13.69Z"/>
      <path class="st5" d="M660.62,799.52c-4.38-.01-7.93,5.31-7.95,11.89"/>
      <path class="st5" d="M660.56,823.34c-4.38-.01-7.91-5.35-7.89-11.93"/>
      <path class="st5" d="M660.56,823.34c.86,0,1.56.69,1.56,1.53"/>
      <path class="st5" d="M660.62,799.52c.86,0,1.57-.74,1.57-1.65"/>
    </g>
    <g>
      <path class="st14" d="M707.73,825.27c7.12.02,12.91-6.11,12.93-13.69.01-5.58-3.62-11.11-8.75-13.03-.7-.26-2.17-.79-4.11-.72-6.06.23-12.91,6.24-12.93,13.69s5.74,13.73,12.86,13.75Z"/>
      <path class="st5" d="M710.68,799.65c4.38.01,7.91,5.35,7.89,11.93"/>
      <path class="st5" d="M710.62,823.47c4.38.01,7.93-5.31,7.95-11.89"/>
      <path class="st5" d="M710.62,823.47c-.86,0-1.57.68-1.57,1.53"/>
      <path class="st5" d="M710.68,799.65c-.86,0-1.56-.74-1.56-1.66"/>
    </g>
    <rect class="st14" x="668.83" y="791.28" width="35.68" height="40.44" transform="translate(1371.27 1624.74) rotate(-179.85)"/>
  </g>
  <g>
    <rect class="st14" x="431.86" y="809.75" width="110.26" height="50.38" transform="translate(-347.66 1322.43) rotate(-90.03)"/>
    <rect class="st14" x="472.98" y="791.8" width="27.99" height="27.57" rx="1.42" ry="1.42" transform="translate(974.43 1610.88) rotate(179.97)"/>
    <polygon class="st14" points="461.14 794.25 461.19 890.38 512.22 890.35 512.18 819.08 461.14 794.25"/>
  </g>
  <g>
    <path class="st14" d="M570.46,733.62c-6.26,7.8-12.52,15.61-18.78,23.41-.18.41-.03.92.37,1.24,8.31,8.71,17.89,16.2,28.33,22.15.17.1.38.09.5-.04.59-.73,1.17-1.45,1.76-2.18l16.98-21.01-29.17-23.57"/>
    <path class="st14" d="M572.06,732.12c-.68.65-1.26,1.37-1.77,2.16-.09.16-.04.37.13.51,9.16,7.76,18.44,15.35,27.86,22.78.26.16.57.13.74-.07.71-.74,1.34-1.54,1.88-2.41"/>
    <path class="st14" d="M569.37,737.38c-.57-.46.06-2.18,1.4-3.84.11-.13.22-.26.33-.39l.95-1.03c.14-.12.36-.11.52.02l28.39,22.95-1.95,2.42c-.65.78-1.3,1.55-1.96,2.33-.36.26-.89.22-1.29-.1-9.96-5.95-18.92-13.54-26.4-22.35Z"/>
    <path class="st14" d="M570.42,735.72c-.13.43-.29.84-.48,1.24-.13.51-.29,1.02-.48,1.51-.26.67-.51,1.34-.76,2.02-.34.93-.76,1.81-1.27,2.66-.31.52-.63,1.02-.98,1.52-.36.52-.73,1.05-1.11,1.56-.89,1.23-1.84,2.41-2.86,3.54-1.03,1.14-2.14,2.18-3.35,3.14-.91.72-1.88,1.34-2.93,1.88-.66.34-1.33.46-2.13.4-.07,0-.12-.03-.18-.07l-.51-.41c-.1-.16-.12-.3-.08-.47,6.07-7.51,12.14-15.02,18.21-22.53.11-.13.32-.14.48-.01l.16.13h0c.15.13.19.34.1.48-.21.35-.42.69-.63,1.04-.31.44-.58.89-.81,1.38l-.41,1.02Z"/>
    <path class="st14" d="M597.75,757.81c-.39.22-.76.46-1.12.73-.47.24-.93.5-1.37.79-.6.39-1.21.78-1.81,1.16-.84.53-1.61,1.13-2.33,1.8-.44.41-.87.83-1.28,1.27-.44.47-.87.94-1.3,1.41-1.02,1.13-1.97,2.3-2.86,3.54-.9,1.24-1.68,2.55-2.36,3.93-.51,1.04-.92,2.12-1.22,3.26-.19.72-.18,1.4.05,2.16.02.06.05.11.11.16l.51.41c.18.06.32.06.48-.02,6.07-7.51,12.14-15.02,18.21-22.53.11-.13.07-.34-.09-.47l-.16-.13h0c-.16-.12-.37-.12-.49,0-.29.28-.59.55-.88.83-.36.39-.75.75-1.18,1.08l-.91.61Z"/>
  </g>
  <circle class="st2" cx="545.04" cy="793.25" r="13.02"/>
  <g>
    <g>
      <polyline class="st4" points="716.42 1012.92 737.61 1012.92 737.61 991.72 716.42 991.72 716.42 1012.92"/>
      <line class="st4" x1="732.49" y1="1002.26" x2="741.01" y2="1002.26"/>
    </g>
    <polyline class="st4" points="713.31 1018.08 744.11 1018.08 744.11 986.55 713.31 986.55 713.31 1018.08"/>
  </g>
  <g>
    <g>
      <line class="st8" x1="716.39" y1="961.73" x2="724.63" y2="961.73"/>
      <line class="st8" x1="731.99" y1="961.73" x2="740.23" y2="961.73"/>
      <line class="st8" x1="736.06" y1="957.92" x2="736.06" y2="965.64"/>
      <line class="st8" x1="720.56" y1="957.92" x2="720.56" y2="965.64"/>
    </g>
    <polyline class="st3" points="713.31 970.11 744.11 970.11 744.11 953.45 713.31 953.45 713.31 970.11"/>
  </g>
  <polygon class="st1" points="745.84 1019.79 745.81 982.45 745.84 951.75 711.58 951.75 711.58 1019.79 745.84 1019.79"/>
  <polygon class="st0" points="746.34 895.26 728.66 895.26 626.13 895.26 608.45 895.26 608.45 992.16 728.66 992.16 728.66 954.59 746.34 954.59 746.34 895.26"/>
  <g>
    <line class="st5" x1="742.35" y1="868.76" x2="742.33" y2="888.03"/>
    <line class="st5" x1="740.95" y1="888.03" x2="740.97" y2="868.76"/>
    <polyline class="st5" points="742.33 888.03 742.32 890.91 740.94 890.91 740.95 888.03 742.33 888.03"/>
    <polyline class="st5" points="742.35 865.94 742.35 868.76 740.97 868.76 740.97 865.94 742.35 865.94"/>
    <line class="st5" x1="745.41" y1="867.74" x2="742.59" y2="867.74"/>
    <line class="st5" x1="745.38" y1="888.92" x2="742.56" y2="888.92"/>
  </g>
  <g>
    <path class="st11" d="M711.58,894.45l-16.54,23.26s7.42,4.85,16.54,4.89"/>
    <path class="st11" d="M711.58,951.6l-16.54-23.26s7.42-4.85,16.54-4.89"/>
    <rect class="st5" x="714.39" y="891.52" width="28.71" height="34.33" transform="translate(-179.94 1637.43) rotate(-90)"/>
    <rect class="st5" x="714.39" y="920.2" width="28.71" height="34.33" transform="translate(-208.62 1666.12) rotate(-90)"/>
  </g>
  <g>
    <g>
      <polyline class="st4" points="716.42 1012.92 737.61 1012.92 737.61 991.72 716.42 991.72 716.42 1012.92"/>
      <line class="st4" x1="732.49" y1="1002.26" x2="741.01" y2="1002.26"/>
    </g>
    <polyline class="st4" points="713.31 1018.08 744.11 1018.08 744.11 986.55 713.31 986.55 713.31 1018.08"/>
  </g>
  <g>
    <g>
      <line class="st8" x1="716.39" y1="961.73" x2="724.63" y2="961.73"/>
      <line class="st8" x1="731.99" y1="961.73" x2="740.23" y2="961.73"/>
      <line class="st8" x1="736.06" y1="957.92" x2="736.06" y2="965.64"/>
      <line class="st8" x1="720.56" y1="957.92" x2="720.56" y2="965.64"/>
    </g>
    <polyline class="st3" points="713.31 970.11 744.11 970.11 744.11 953.45 713.31 953.45 713.31 970.11"/>
  </g>
  <polygon class="st9" points="745.84 1019.79 745.81 982.45 745.84 951.75 711.58 951.75 711.58 1019.79 745.84 1019.79"/>
  <rect class="st21" x="724.74" y="669.99" width="8.5" height="37.3" transform="translate(-62.97 73.46) rotate(-5.53)"/>
  <polygon class="st21" points="753.96 704.92 745.45 705.72 745.45 1027.75 753.96 1027.75 753.96 704.92"/>
  <rect class="st21" x="461.26" y="691.01" width="8.5" height="38.1" transform="translate(-45.22 31.8) rotate(-3.73)"/>
  <rect class="st21" x="448.29" y="696.17" width="8.5" height="207.49" transform="translate(905.09 1599.84) rotate(-180)"/>
  <rect class="st21" x="447.13" y="695.73" width="17.44" height="34.02" transform="translate(-45.42 31.18) rotate(-3.73)"/>
  <rect class="st21" x="448.79" y="895.16" width="71.39" height="8.5"/>
  <rect class="st21" x="520.06" y="895.1" width="88.53" height="3.54"/>
  <rect class="st21" x="583.79" y="973.06" width="46.14" height="3.54" transform="translate(-367.98 1581.69) rotate(-90)"/>
  <rect class="st21" x="600.66" y="899.68" width="12.39" height="3.54" transform="translate(-294.6 1508.31) rotate(-90)"/>
  <rect class="st21" x="470.64" y="943.5" width="99.84" height="8.5" transform="translate(-427.19 1468.31) rotate(-90)"/>
  <rect class="st21" x="517.01" y="989.16" width="91.22" height="8.5" transform="translate(1125.24 1986.83) rotate(-180)"/>
  <rect class="st21" x="662.28" y="1019.25" width="90.73" height="8.5" transform="translate(1415.29 2047) rotate(-180)"/>
  <rect class="st21" x="600.1" y="1019.25" width="18.23" height="8.5" transform="translate(1218.43 2047.01) rotate(-180)"/>
  <rect class="st21" x="588.48" y="1007.42" width="31.75" height="8.5" transform="translate(1616.03 407.32) rotate(90)"/>
  <path class="st21" d="M468.07,696.45"/>
  <g>
    <path class="st21" d="M628.13,717.21c-21.73,2.27-40.87,3.78-58.27,4.6l2.93-33.95c16.71-1.32,32.3-2.69,46.01-4.15l9.33,33.5Z"/>
    <path class="st21" d="M628.42,717.21l-8.88.81c-1.23-11.91-2.4-24.4-3.5-37.41l8.47-.79,3.91,37.39Z"/>
    <path class="st21" d="M578.34,721.28l-8.48.58-2.58-37.49,8.48-.58c1.08,12.73,1.94,25.24,2.58,37.49Z"/>
  </g>
  <rect class="st21" x="731.49" y="674.6" width="21" height="31.44" transform="translate(-63.08 74.72) rotate(-5.53)"/>
  <g>
    <path class="st5" d="M562.82,907.64c0,11.6,4.79,22.94,13.11,31.27,8.07,8.07,19.41,12.86,31.01,12.86"/>
    <line class="st5" x1="605.18" y1="907.64" x2="562.82" y2="907.64"/>
    <polyline class="st5" points="606.95 951.76 606.95 907.64 605.18 907.64"/>
  </g>
  <g>
    <path class="st5" d="M662.37,1019.42c0-11.6-4.79-22.95-13.11-31.27-8.07-8.07-19.42-12.86-31.01-12.86"/>
    <line class="st5" x1="620.01" y1="1019.42" x2="662.37" y2="1019.42"/>
    <polyline class="st5" points="618.24 975.29 618.24 1019.42 620.01 1019.42"/>
  </g>
  <g>
    <polyline class="st7" points="497.31 694.49 470.67 696.32 470.49 693.62 497.12 691.8 497.31 694.49"/>
    <polyline class="st6" points="565.9 689.77 500.3 694.26 500.11 691.57 565.72 687.07 565.9 689.77"/>
    <line class="st7" x1="498.37" y1="688.11" x2="468.83" y2="690.13"/>
    <polyline class="st7" points="468.56 690.15 468.98 690.12 469.04 691.02 470.36 690.93 470.73 696.31 468.99 696.43 468.56 690.15"/>
    <polyline class="st7" points="567.21 683.39 566.79 683.42 566.85 684.32 565.54 684.41 565.91 689.8 567.64 689.68 567.21 683.39"/>
    <polyline class="st7" points="498.13 688.12 498.55 688.09 498.61 688.99 499.87 688.91 500.24 694.29 497.31 694.49 496.94 689.11 498.2 689.02 498.13 688.12"/>
    <line class="st7" x1="470.3" y1="690.93" x2="496.94" y2="689.11"/>
    <line class="st7" x1="499.87" y1="688.91" x2="565.54" y2="684.41"/>
    <line class="st7" x1="470.49" y1="693.62" x2="470.3" y2="690.93"/>
    <line class="st7" x1="498.37" y1="688.11" x2="567" y2="683.41"/>
    <polyline class="st7" points="565.54 684.41 566.85 684.32 566.79 683.42 567.21 683.39 567.64 689.68 565.91 689.8 565.54 684.41"/>
    <line class="st10" x1="470.49" y1="693.62" x2="485.38" y2="715.34"/>
    <line class="st10" x1="496.89" y1="691.82" x2="485.09" y2="715.36"/>
    <line class="st18" x1="470.67" y1="696.26" x2="470.61" y2="696.32"/>
    <line class="st7" x1="500.24" y1="694.29" x2="565.91" y2="689.8"/>
    <line class="st7" x1="470.67" y1="696.32" x2="497.31" y2="694.49"/>
    <polyline class="st7" points="497.31 694.49 496.94 689.11 498.2 689.02 498.13 688.12 498.55 688.09 498.61 688.99 499.87 688.91 500.24 694.29 497.31 694.49"/>
    <polyline class="st7" points="468.98 691.02 470.3 690.93 470.67 696.32 468.99 696.43 468.56 690.15 468.92 690.12 468.98 691.02"/>
    <polyline class="st7" points="470.3 690.93 496.94 689.11 497.12 691.8 470.49 693.62 470.3 690.93"/>
  </g>
  <g>
    <polyline class="st7" points="653.44 682.48 626.86 685.06 626.6 682.37 653.18 679.79 653.44 682.48"/>
    <polyline class="st6" points="721.87 675.8 656.42 682.16 656.16 679.47 721.61 673.11 721.87 675.8"/>
    <line class="st7" x1="654.32" y1="676.06" x2="624.85" y2="678.93"/>
    <polyline class="st7" points="624.58 678.95 625 678.91 625.09 679.81 626.4 679.68 626.92 685.05 625.19 685.22 624.58 678.95"/>
    <polyline class="st7" points="723 669.39 722.58 669.43 722.67 670.32 721.35 670.45 721.87 675.83 723.61 675.66 723 669.39"/>
    <polyline class="st7" points="654.08 676.09 654.5 676.04 654.59 676.94 655.84 676.82 656.36 682.19 653.44 682.48 652.91 677.1 654.17 676.98 654.08 676.09"/>
    <line class="st7" x1="626.34" y1="679.69" x2="652.91" y2="677.1"/>
    <line class="st7" x1="655.84" y1="676.82" x2="721.35" y2="670.45"/>
    <line class="st7" x1="626.6" y1="682.37" x2="626.34" y2="679.69"/>
    <line class="st7" x1="654.32" y1="676.06" x2="722.79" y2="669.41"/>
    <polyline class="st7" points="721.35 670.45 722.67 670.32 722.58 669.43 723 669.39 723.61 675.66 721.87 675.83 721.35 670.45"/>
    <line class="st10" x1="626.6" y1="682.37" x2="642.11" y2="703.65"/>
    <line class="st10" x1="652.95" y1="679.81" x2="641.82" y2="703.68"/>
    <line class="st18" x1="626.86" y1="685" x2="626.8" y2="685.07"/>
    <line class="st7" x1="656.36" y1="682.19" x2="721.87" y2="675.83"/>
    <line class="st7" x1="626.86" y1="685.06" x2="653.44" y2="682.48"/>
    <polyline class="st7" points="653.44 682.48 652.91 677.1 654.17 676.98 654.08 676.09 654.5 676.04 654.59 676.94 655.84 676.82 656.36 682.19 653.44 682.48"/>
    <polyline class="st7" points="625.03 679.81 626.34 679.69 626.86 685.06 625.19 685.22 624.58 678.95 624.94 678.92 625.03 679.81"/>
    <polyline class="st7" points="626.34 679.69 652.91 677.1 653.18 679.79 626.6 682.37 626.34 679.69"/>
  </g>
  <polygon class="st19" points="608.63 992.16 728.66 992.16 728.66 954.59 746.34 954.59 745.91 895.26 608.63 895.26 608.63 992.16"/>
</svg>