<?xml version="1.0" encoding="UTF-8"?>
<svg xmlns="http://www.w3.org/2000/svg" version="1.1" viewBox="0 0 1200 1697.14">
  <!-- Generator: Adobe Illustrator 29.6.0, SVG Export Plug-In . SVG Version: 2.1.1 Build 207)  -->
  <defs>
    <style>
      .st0, .st1 {
        stroke: #0d101f;
      }

      .st0, .st1, .st2, .st3, .st4, .st5 {
        stroke-width: .15px;
      }

      .st0, .st1, .st3, .st4, .st5 {
        stroke-linecap: round;
        stroke-linejoin: round;
      }

      .st0, .st3, .st6 {
        fill: #fff;
      }

      .st1, .st2, .st4, .st5 {
        fill: none;
      }

      .st7 {
        fill: #3f3f3e;
      }

      .st2 {
        stroke-miterlimit: 10;
      }

      .st2, .st3, .st4 {
        stroke: #1d1d1b;
      }

      .st8 {
        fill: #383037;
      }

      .st5 {
        stroke: #11100e;
      }

      .st9 {
        fill: #f2efed;
      }
    </style>
  </defs>
  <g id="sfondo">
    <g>
      <polygon class="st9" points="643.51 1116.73 766.76 1116.73 766.76 978.52 643.4 978.52 643.4 979.42 643.4 987.07 643.4 988.42 637.1 988.42 637.1 987.07 637.1 973.11 643.4 973.11 669.96 973.11 767.21 973.11 767.21 938 643.4 938 637.1 938 637.1 932.14 767.21 932.14 767.21 629.15 694.73 629.15 694.73 589.09 773.06 589.09 773.06 1128.89 643.4 1128.89 591.18 1128.89 590.28 1128.89 590.28 1116.73 591.18 1116.73 637.1 1116.73 637.1 1064.51 637.1 1063.61 643.4 1063.61 643.4 1064.51 643.4 1102.32 643.4 1116.73 643.51 1116.73"/>
      <polygon class="st9" points="643.51 1116.73 643.4 1116.73 643.4 1102.32 643.4 1064.51 643.4 1063.61 637.1 1063.61 637.1 1064.51 637.1 1116.73 591.18 1116.73 590.28 1116.73 590.28 1128.89 506.54 1128.89 506.54 1116.73 505.64 1116.73 499.34 1116.73 499.34 938.9 461.97 938.9 461.97 629.15 510.14 629.15 510.14 598.09 510.14 589.09 694.73 589.09 694.73 629.15 767.21 629.15 767.21 932.14 637.1 932.14 637.1 938 643.4 938 767.21 938 767.21 973.11 669.96 973.11 643.4 973.11 637.1 973.11 637.1 987.07 637.1 988.42 643.4 988.42 643.4 987.07 643.4 979.42 643.4 978.52 766.76 978.52 766.76 1116.73 643.51 1116.73"/>
      <polygon class="st9" points="510.14 598.09 510.14 629.15 461.97 629.15 461.97 938.9 499.34 938.9 499.34 1116.73 505.64 1116.73 506.54 1116.73 506.54 1128.89 505.64 1128.89 499.34 1128.89 493.48 1123.03 493.48 944.75 456.12 944.75 456.12 716.49 429.55 716.49 429.55 589.09 510.14 589.09 510.14 598.09"/>
    </g>
  </g>
  <g id="letto">
    <g>
      <g>
        <polygon class="st6" points="542.18 802.22 542.18 802.66 464.67 802.66 464.67 654.38 465.65 654.87 465.65 802.22 542.18 802.22"/>
        <path class="st6" d="M542.18,692.74v109.48h-76.53v-147.35l17.01,8.41c7.31,3.62,13.36,6.61,18.37,9.09l2.63,1.3c5.59,2.77,9.73,4.82,12.79,6.34l1.16.57,7.56,3.74,17.01,8.42Z"/>
        <path class="st6" d="M542.18,632.14v60.6l-17.01-8.42v-30.18c0-1.94-1.56-3.51-3.5-3.51h-35.51c-1.94,0-3.5,1.57-3.5,3.51v9.14l-17.01-8.41v-22.73h76.53Z"/>
        <path class="st6" d="M525.17,654.14v30.18l-7.56-3.74c-.37-.19-.75-.38-1.16-.57-3.06-1.52-7.2-3.57-12.79-6.34-.85-.41-1.72-.85-2.63-1.3-5.01-2.48-11.06-5.47-18.37-9.09v-9.14c0-1.94,1.56-3.51,3.5-3.51h35.51c1.94,0,3.5,1.57,3.5,3.51Z"/>
      </g>
      <g>
        <polyline class="st1" points="465.65 654.87 465.65 632.14 542.18 632.14 542.18 692.74"/>
        <polyline class="st1" points="482.66 663.28 465.65 654.87 464.67 654.38 464.67 802.66 542.18 802.66 542.18 802.22 542.18 692.74 525.17 684.32"/>
        <line class="st1" x1="503.66" y1="673.67" x2="501.03" y2="672.37"/>
        <line class="st1" x1="517.61" y1="680.58" x2="516.45" y2="680.01"/>
        <line class="st1" x1="486.16" y1="650.63" x2="521.67" y2="650.63"/>
        <path class="st1" d="M521.67,650.63c1.94,0,3.5,1.57,3.5,3.51"/>
        <path class="st1" d="M482.66,654.14c0-1.94,1.56-3.51,3.5-3.51"/>
        <path class="st1" d="M482.66,654.14v9.14c7.31,3.62,13.36,6.61,18.37,9.09.91.45,1.78.89,2.63,1.3,5.59,2.77,9.73,4.82,12.79,6.34.41.19.79.38,1.16.57l7.56,3.74v-30.18"/>
      </g>
    </g>
    <rect class="st0" x="474.51" y="889.65" width="32.87" height="32.87" transform="translate(-415.14 1397.02) rotate(-90)"/>
  </g>
  <g id="bianchi">
    <rect class="st6" x="510.14" y="589.09" width="188.07" height="21.16"/>
    <rect class="st6" x="503.52" y="1116.73" width="86.76" height="12.16"/>
    <rect class="st6" x="697.99" y="1048.69" width="71.6" height="70.37"/>
    <rect class="st6" x="665.01" y="978.52" width="27.01" height="1.35"/>
    <rect class="st6" x="659.61" y="979.87" width="37.37" height="1.8"/>
    <line class="st2" x1="651.34" y1="1116.74" x2="690.19" y2="1116.74"/>
  </g>
  <g id="pareti">
    <rect class="st7" x="606.55" y="932.01" width="33.71" height="5.99"/>
  </g>
  <g id="Livello_1">
    <line class="st4" x1="694.73" y1="598.09" x2="693.83" y2="598.09"/>
    <g>
      <rect class="st6" x="607.55" y="877.89" width="104.13" height="54.26"/>
      <line class="st4" x1="711.68" y1="877.89" x2="607.55" y2="877.89"/>
      <line class="st4" x1="635.37" y1="924.02" x2="635.37" y2="911.55"/>
      <line class="st4" x1="686.58" y1="892.33" x2="698.77" y2="892.33"/>
      <line class="st4" x1="686.58" y1="915.24" x2="698.77" y2="915.24"/>
      <line class="st4" x1="692.6" y1="909.23" x2="692.6" y2="921.42"/>
      <line class="st4" x1="692.6" y1="886.15" x2="692.6" y2="898.34"/>
      <rect class="st4" x="679.6" y="880.79" width="26.81" height="45.99"/>
      <rect class="st4" x="619.78" y="888.05" width="31.01" height="31.01"/>
      <rect class="st4" x="612.06" y="880.34" width="46.6" height="46.44"/>
      <line class="st4" x1="607.55" y1="877.89" x2="607.55" y2="932.01"/>
    </g>
    <line class="st4" x1="692.03" y1="978.52" x2="692.03" y2="979.87"/>
    <line class="st4" x1="665.01" y1="979.87" x2="665.01" y2="978.52"/>
    <line class="st4" x1="659.61" y1="979.87" x2="659.61" y2="981.67"/>
    <line class="st4" x1="696.98" y1="979.87" x2="659.61" y2="979.87"/>
    <line class="st4" x1="696.98" y1="981.67" x2="696.98" y2="979.87"/>
    <line class="st4" x1="659.61" y1="981.67" x2="696.98" y2="981.67"/>
    <circle class="st4" cx="732.2" cy="1097.92" r="4.23"/>
    <circle class="st4" cx="732.2" cy="1097.92" r="4.23"/>
    <line class="st4" x1="732.11" y1="1116.73" x2="732.11" y2="1097.83"/>
    <line class="st4" x1="765.75" y1="1048.69" x2="706.14" y2="1048.69"/>
    <polyline class="st4" points="765.75 1048.69 766.76 1048.69 766.76 1049.29"/>
    <polyline class="st4" points="766.76 1115.61 766.76 1116.73 766.22 1116.73"/>
    <line class="st4" x1="766.76" y1="1115.61" x2="766.76" y2="1049.29"/>
    <line class="st4" x1="697.99" y1="1116.73" x2="766.22" y2="1116.73"/>
    <polyline class="st4" points="697.99 1116.73 697.99 1048.69 706.14 1048.69"/>
    <line class="st3" x1="661.24" y1="1087.92" x2="679.7" y2="1087.92"/>
    <line class="st3" x1="651.34" y1="1108.18" x2="651.34" y2="1097.82"/>
    <line class="st3" x1="679.7" y1="1087.92" x2="661.24" y2="1087.92"/>
    <line class="st3" x1="651.34" y1="1097.82" x2="651.34" y2="1108.18"/>
    <line class="st3" x1="679.7" y1="1087.92" x2="661.24" y2="1087.92"/>
    <line class="st3" x1="651.34" y1="1097.82" x2="651.34" y2="1108.18"/>
    <line class="st3" x1="661.24" y1="1087.92" x2="679.7" y2="1087.92"/>
    <line class="st3" x1="651.34" y1="1108.18" x2="651.34" y2="1097.82"/>
    <line class="st3" x1="679.7" y1="1087.92" x2="661.24" y2="1087.92"/>
    <line class="st3" x1="651.34" y1="1097.82" x2="651.34" y2="1108.18"/>
    <line class="st3" x1="679.7" y1="1087.92" x2="661.24" y2="1087.92"/>
    <line class="st3" x1="651.34" y1="1097.82" x2="651.34" y2="1108.18"/>
    <path class="st3" d="M690.19,1116.73v-27.68c0-.62-.29-1.11-.66-1.11h-37.37c-.45,0-.82.49-.82,1.11v27.68"/>
    <path class="st3" d="M689.53,1106.39v-16.22c0-.62-.37-1.11-.82-1.11h-35.72c-.45,0-.82.5-.82,1.11v16.22c0,.61.37,1.11.82,1.11h35.72c.45,0,.82-.5.82-1.11Z"/>
    <path class="st3" d="M669.27,1097.99c0-.87.71-1.58,1.58-1.58s1.58.71,1.58,1.58-.71,1.58-1.58,1.58-1.58-.71-1.58-1.58Z"/>
    <circle class="st3" cx="670.85" cy="1097.99" r="2.93"/>
    <circle class="st3" cx="670.85" cy="1112.44" r="2.2" transform="translate(-565.96 1509.75) rotate(-76.72)"/>
    <path class="st3" d="M742.9,978.52v24.72c0,9.52-6.84,17.22-15.29,17.22s-15.29-7.7-15.29-17.22v-24.72h30.58Z"/>
    <line class="st4" x1="512.39" y1="1116.73" x2="588.03" y2="1116.73"/>
    <line class="st4" x1="509.24" y1="1116.73" x2="509.24" y2="1037.95"/>
    <line class="st4" x1="512.39" y1="1116.73" x2="509.24" y2="1116.73"/>
    <path class="st4" d="M588.03,1116.73c0-20.71-8.55-40.97-23.41-55.38-14.41-14.86-34.67-23.41-55.38-23.41"/>
    <line class="st4" x1="602.89" y1="597.64" x2="602.89" y2="610.25"/>
    <line class="st4" x1="607.39" y1="597.64" x2="602.89" y2="597.64"/>
    <line class="st4" x1="607.39" y1="610.25" x2="607.39" y2="597.64"/>
    <line class="st4" x1="602.89" y1="610.25" x2="607.39" y2="610.25"/>
    <line class="st4" x1="689.33" y1="597.64" x2="689.33" y2="610.25"/>
    <line class="st4" x1="693.83" y1="597.64" x2="689.33" y2="597.64"/>
    <line class="st4" x1="693.83" y1="610.25" x2="693.83" y2="597.64"/>
    <line class="st4" x1="689.33" y1="610.25" x2="693.83" y2="610.25"/>
    <line class="st4" x1="607.39" y1="597.64" x2="689.33" y2="597.64"/>
    <line class="st4" x1="689.33" y1="610.25" x2="607.39" y2="610.25"/>
    <line class="st4" x1="607.39" y1="598.09" x2="607.39" y2="602.14"/>
    <line class="st4" x1="689.33" y1="598.09" x2="607.39" y2="598.09"/>
    <line class="st4" x1="689.33" y1="602.14" x2="689.33" y2="598.09"/>
    <line class="st4" x1="607.39" y1="602.14" x2="689.33" y2="602.14"/>
    <line class="st4" x1="519.15" y1="597.64" x2="593.88" y2="597.64"/>
    <line class="st4" x1="593.88" y1="597.64" x2="519.15" y2="597.64"/>
    <line class="st4" x1="513.74" y1="597.64" x2="599.28" y2="597.64"/>
    <line class="st4" x1="513.29" y1="597.64" x2="599.73" y2="597.64"/>
    <line class="st4" x1="601.98" y1="597.64" x2="511.04" y2="597.64"/>
    <line class="st4" x1="511.04" y1="597.64" x2="511.04" y2="610.25"/>
    <line class="st4" x1="519.15" y1="597.64" x2="511.04" y2="597.64"/>
    <line class="st4" x1="519.15" y1="604.4" x2="519.15" y2="597.64"/>
    <line class="st4" x1="515.54" y1="604.4" x2="519.15" y2="604.4"/>
    <line class="st4" x1="515.54" y1="610.25" x2="515.54" y2="604.4"/>
    <line class="st4" x1="511.04" y1="610.25" x2="515.54" y2="610.25"/>
    <line class="st4" x1="597.48" y1="604.4" x2="597.48" y2="610.25"/>
    <line class="st4" x1="593.88" y1="604.4" x2="597.48" y2="604.4"/>
    <line class="st4" x1="593.88" y1="597.64" x2="593.88" y2="604.4"/>
    <line class="st4" x1="601.98" y1="597.64" x2="593.88" y2="597.64"/>
    <line class="st4" x1="601.98" y1="610.25" x2="601.98" y2="597.64"/>
    <line class="st4" x1="597.48" y1="610.25" x2="601.98" y2="610.25"/>
    <line class="st4" x1="519.15" y1="604.4" x2="593.88" y2="604.4"/>
    <line class="st4" x1="519.15" y1="597.64" x2="593.88" y2="597.64"/>
    <line class="st4" x1="597.48" y1="610.25" x2="515.54" y2="610.25"/>
    <line class="st4" x1="519.15" y1="598.09" x2="519.15" y2="602.14"/>
    <line class="st4" x1="593.88" y1="598.09" x2="519.15" y2="598.09"/>
    <line class="st4" x1="593.88" y1="602.14" x2="593.88" y2="598.09"/>
    <line class="st4" x1="519.15" y1="602.14" x2="593.88" y2="602.14"/>
    <line class="st4" x1="511.04" y1="598.09" x2="510.14" y2="598.09"/>
    <line class="st4" x1="602.89" y1="598.09" x2="601.98" y2="598.09"/>
    <line class="st4" x1="643.4" y1="973.12" x2="643.4" y2="972.22"/>
    <line class="st4" x1="767.21" y1="973.12" x2="643.4" y2="938"/>
    <line class="st4" x1="767.21" y1="938" x2="643.4" y2="973.12"/>
    <polyline class="st4" points="509.24 1037.95 509.24 1116.73 512.39 1116.73"/>
    <polyline class="st4" points="637.1 972.22 637.1 973.12 643.4 973.12 643.4 972.22"/>
    <polyline class="st4" points="566.87 1060.91 637.1 1060.91 637.1 1057.76"/>
    <line class="st4" x1="637.1" y1="939.35" x2="637.1" y2="938"/>
    <line class="st4" x1="637.1" y1="972.22" x2="637.1" y2="971.32"/>
    <line class="st4" x1="643.4" y1="938" x2="643.4" y2="972.22"/>
    <line class="st4" x1="637.1" y1="938" x2="643.4" y2="938"/>
    <line class="st4" x1="637.1" y1="971.32" x2="639.35" y2="971.32"/>
    <line class="st4" x1="637.1" y1="939.35" x2="637.1" y2="971.32"/>
    <line class="st4" x1="639.35" y1="939.35" x2="637.1" y2="939.35"/>
    <line class="st4" x1="639.35" y1="971.32" x2="639.35" y2="939.35"/>
    <line class="st4" x1="742.9" y1="973.12" x2="712.29" y2="973.12"/>
    <line class="st4" x1="637.1" y1="1057.76" x2="637.1" y2="990.67"/>
    <line class="st4" x1="637.1" y1="1060.91" x2="566.87" y2="1060.91"/>
    <line class="st4" x1="637.1" y1="1057.76" x2="637.1" y2="1060.91"/>
    <path class="st4" d="M637.1,990.67c-18.46,0-36.47,7.65-49.52,20.71-13.06,13.06-20.71,31.06-20.71,49.52"/>
    <line class="st4" x1="512.39" y1="1116.73" x2="588.03" y2="1116.73"/>
    <g>
      <g>
        <polygon class="st6" points="756.41 699.33 756.41 767.76 749.65 767.76 712.74 767.76 705.53 767.76 705.53 699.33 712.74 699.33 749.65 699.33 756.41 699.33"/>
        <path class="st6" d="M749.65,699.33h-36.91c1.8-4.5,5.4-8.56,9.9-11.26.45-.45.45-.9.45-1.35-.9-.9-1.8-1.35-2.7-1.35-1.35.45-2.7,1.35-3.6,1.8q-.45.45-.9.45c-.45,0-.45-.45-.9-.45s-.45,0-.45-.45c9.9-7.2,22.96-7.2,32.86,0q0,.45-.45.45s-.45.45-.9.45c0,0-.45,0-.9-.45-.9-.45-2.25-1.35-3.15-1.8-1.35,0-2.25.45-2.7,1.35-.45.45,0,.9.45,1.35,4.5,2.7,7.65,6.76,9.9,11.26Z"/>
        <path class="st6" d="M712.74,767.76h36.91c-2.25,4.5-5.4,8.55-9.9,11.26-.45.45-.9.9-.45,1.35.45.9,1.35,1.35,2.7,1.35.9-.45,2.25-1.35,3.15-1.8.45-.45.9-.45.9-.45.45,0,.9.45.9.45q.45,0,.45.45c-9.9,6.75-22.96,6.75-32.86,0q0-.45.45-.45c.45,0,.45-.45.9-.45s.45,0,.9.45c.9.45,2.25,1.35,3.6,1.8.9,0,1.8-.45,2.7-1.35,0-.45,0-.9-.45-1.35-4.5-2.71-8.1-6.76-9.9-11.26Z"/>
      </g>
      <g>
        <polyline class="st4" points="705.53 767.76 712.74 767.76 749.65 767.76 756.41 767.76"/>
        <polyline class="st4" points="756.41 699.33 749.65 699.33 712.74 699.33 705.53 699.33"/>
        <line class="st4" x1="756.41" y1="767.76" x2="756.41" y2="699.33"/>
        <path class="st4" d="M714.54,780.37c9.9,6.75,22.96,6.75,32.86,0"/>
        <path class="st4" d="M712.74,767.76c1.8,4.5,5.4,8.55,9.9,11.26"/>
        <path class="st4" d="M723.09,780.37c0-.45,0-.9-.45-1.35"/>
        <path class="st4" d="M716.79,779.92c.9.45,2.25,1.35,3.6,1.8"/>
        <path class="st4" d="M720.39,781.72c.9,0,1.8-.45,2.7-1.35"/>
        <path class="st4" d="M714.99,779.92q-.45,0-.45.45"/>
        <path class="st4" d="M715.89,779.47c-.45,0-.45.45-.9.45"/>
        <path class="st4" d="M716.79,779.92q-.45-.45-.9-.45"/>
        <path class="st4" d="M739.75,779.02c4.5-2.71,7.65-6.76,9.9-11.26"/>
        <path class="st4" d="M739.75,779.02c-.45.45-.9.9-.45,1.35"/>
        <path class="st4" d="M742,781.72c.9-.45,2.25-1.35,3.15-1.8"/>
        <path class="st4" d="M739.3,780.37c.45.9,1.35,1.35,2.7,1.35"/>
        <path class="st4" d="M747.4,780.37q0-.45-.45-.45"/>
        <path class="st4" d="M746.95,779.92s-.45-.45-.9-.45"/>
        <path class="st4" d="M746.05,779.47s-.45,0-.9.45"/>
        <path class="st4" d="M747.4,686.72c-9.9-7.2-22.96-7.2-32.86,0"/>
        <path class="st4" d="M722.64,688.07c-4.5,2.7-8.1,6.76-9.9,11.26"/>
        <path class="st4" d="M722.64,688.07c.45-.45.45-.9.45-1.35"/>
        <path class="st4" d="M720.39,685.37c-1.35.45-2.7,1.35-3.6,1.8"/>
        <path class="st4" d="M723.09,686.72c-.9-.9-1.8-1.35-2.7-1.35"/>
        <path class="st4" d="M714.54,686.72q0,.45.45.45"/>
        <path class="st4" d="M714.99,687.17c.45,0,.45.45.9.45"/>
        <path class="st4" d="M715.89,687.62q.45,0,.9-.45"/>
        <path class="st4" d="M749.65,699.33c-2.25-4.5-5.4-8.56-9.9-11.26"/>
        <path class="st4" d="M739.3,686.72c-.45.45,0,.9.45,1.35"/>
        <path class="st4" d="M745.15,687.17c-.9-.45-2.25-1.35-3.15-1.8"/>
        <path class="st4" d="M742,685.37c-1.35,0-2.25.45-2.7,1.35"/>
        <path class="st4" d="M746.95,687.17q.45,0,.45-.45"/>
        <path class="st4" d="M746.05,687.62c.45,0,.9-.45.9-.45"/>
        <path class="st4" d="M745.15,687.17c.45.45.9.45.9.45"/>
        <line class="st4" x1="705.53" y1="767.76" x2="705.53" y2="699.33"/>
      </g>
    </g>
    <g>
      <g>
        <polygon class="st6" points="706.04 699.33 706.04 767.76 699.28 767.76 662.37 767.76 655.16 767.76 655.16 699.33 662.37 699.33 699.28 699.33 706.04 699.33"/>
        <path class="st6" d="M699.28,699.33h-36.91c1.8-4.5,5.4-8.56,9.9-11.26.45-.45.45-.9.45-1.35-.9-.9-1.8-1.35-2.7-1.35-1.35.45-2.7,1.35-3.6,1.8q-.45.45-.9.45c-.45,0-.45-.45-.9-.45s-.45,0-.45-.45c9.9-7.2,22.96-7.2,32.86,0q0,.45-.45.45s-.45.45-.9.45c0,0-.45,0-.9-.45-.9-.45-2.25-1.35-3.15-1.8-1.35,0-2.25.45-2.7,1.35-.45.45,0,.9.45,1.35,4.5,2.7,7.65,6.76,9.9,11.26Z"/>
        <path class="st6" d="M662.37,767.76h36.91c-2.25,4.5-5.4,8.55-9.9,11.26-.45.45-.9.9-.45,1.35.45.9,1.35,1.35,2.7,1.35.9-.45,2.25-1.35,3.15-1.8.45-.45.9-.45.9-.45.45,0,.9.45.9.45q.45,0,.45.45c-9.9,6.75-22.96,6.75-32.86,0q0-.45.45-.45c.45,0,.45-.45.9-.45s.45,0,.9.45c.9.45,2.25,1.35,3.6,1.8.9,0,1.8-.45,2.7-1.35,0-.45,0-.9-.45-1.35-4.5-2.71-8.1-6.76-9.9-11.26Z"/>
      </g>
      <g>
        <polyline class="st4" points="655.16 767.76 662.37 767.76 699.28 767.76 706.04 767.76"/>
        <polyline class="st4" points="706.04 699.33 699.28 699.33 662.37 699.33 655.16 699.33"/>
        <line class="st4" x1="706.04" y1="767.76" x2="706.04" y2="699.33"/>
        <path class="st4" d="M664.17,780.37c9.9,6.75,22.96,6.75,32.86,0"/>
        <path class="st4" d="M662.37,767.76c1.8,4.5,5.4,8.55,9.9,11.26"/>
        <path class="st4" d="M672.72,780.37c0-.45,0-.9-.45-1.35"/>
        <path class="st4" d="M666.42,779.92c.9.45,2.25,1.35,3.6,1.8"/>
        <path class="st4" d="M670.02,781.72c.9,0,1.8-.45,2.7-1.35"/>
        <path class="st4" d="M664.62,779.92q-.45,0-.45.45"/>
        <path class="st4" d="M665.52,779.47c-.45,0-.45.45-.9.45"/>
        <path class="st4" d="M666.42,779.92q-.45-.45-.9-.45"/>
        <path class="st4" d="M689.38,779.02c4.5-2.71,7.65-6.76,9.9-11.26"/>
        <path class="st4" d="M689.38,779.02c-.45.45-.9.9-.45,1.35"/>
        <path class="st4" d="M691.63,781.72c.9-.45,2.25-1.35,3.15-1.8"/>
        <path class="st4" d="M688.93,780.37c.45.9,1.35,1.35,2.7,1.35"/>
        <path class="st4" d="M697.03,780.37q0-.45-.45-.45"/>
        <path class="st4" d="M696.58,779.92s-.45-.45-.9-.45"/>
        <path class="st4" d="M695.68,779.47s-.45,0-.9.45"/>
        <path class="st4" d="M697.03,686.72c-9.9-7.2-22.96-7.2-32.86,0"/>
        <path class="st4" d="M672.27,688.07c-4.5,2.7-8.1,6.76-9.9,11.26"/>
        <path class="st4" d="M672.27,688.07c.45-.45.45-.9.45-1.35"/>
        <path class="st4" d="M670.02,685.37c-1.35.45-2.7,1.35-3.6,1.8"/>
        <path class="st4" d="M672.72,686.72c-.9-.9-1.8-1.35-2.7-1.35"/>
        <path class="st4" d="M664.17,686.72q0,.45.45.45"/>
        <path class="st4" d="M664.62,687.17c.45,0,.45.45.9.45"/>
        <path class="st4" d="M665.52,687.62q.45,0,.9-.45"/>
        <path class="st4" d="M699.28,699.33c-2.25-4.5-5.4-8.56-9.9-11.26"/>
        <path class="st4" d="M688.93,686.72c-.45.45,0,.9.45,1.35"/>
        <path class="st4" d="M694.78,687.17c-.9-.45-2.25-1.35-3.15-1.8"/>
        <path class="st4" d="M691.63,685.37c-1.35,0-2.25.45-2.7,1.35"/>
        <path class="st4" d="M696.58,687.17q.45,0,.45-.45"/>
        <path class="st4" d="M695.68,687.62c.45,0,.9-.45.9-.45"/>
        <path class="st4" d="M694.78,687.17c.45.45.9.45.9.45"/>
        <line class="st4" x1="655.16" y1="767.76" x2="655.16" y2="699.33"/>
      </g>
    </g>
    <g>
      <path class="st6" d="M491.46,821.83c4.95-.9,9.91-1.81,15.31-1.35,1.8,0,3.6.9,4.95,2.25,0,.45.45.45.9.9l12.16,14.85c.9.9,1.8,1.8,2.25,3.15.45,1.36.45,3.16,0,4.96-4.95,13.05-14.86,23.41-27.01,30.16-1.35.45-3.16.9-4.96.45-1.35-.45-2.25-1.35-3.15-2.25l-16.21-10.35-.9-.9c-1.35-1.36-2.7-2.71-3.15-4.96-.45-4.95-.45-9.9,0-14.85.45-5.41,2.7-10.36,6.31-14.41,3.6-4.05,8.1-6.75,13.5-7.65Z"/>
      <g>
        <line class="st4" x1="475.7" y1="864.6" x2="491.91" y2="874.95"/>
        <path class="st4" d="M491.91,874.95c.9.9,1.8,1.8,3.15,2.25"/>
        <path class="st4" d="M495.06,877.2c1.8.45,3.61,0,4.96-.45"/>
        <path class="st4" d="M477.96,829.48c-3.61,4.05-5.86,9-6.31,14.41"/>
        <path class="st4" d="M482.91,833.98c-.9.9-1.8,1.8-2.7,3.15"/>
        <path class="st4" d="M480.21,837.13c-4.06,6.31-4.06,14.41,0,20.71"/>
        <path class="st4" d="M480.21,857.84c2.25,3.15,4.95,5.86,8.1,8.56"/>
        <path class="st4" d="M500.02,876.75c12.15-6.75,22.06-17.11,27.01-30.16"/>
        <path class="st4" d="M506.77,820.48c-5.4-.46-10.36.45-15.31,1.35"/>
        <path class="st4" d="M511.72,822.73c-1.35-1.35-3.15-2.25-4.95-2.25"/>
        <path class="st4" d="M512.62,823.63c-.45-.45-.9-.45-.9-.9"/>
        <line class="st4" x1="512.62" y1="823.63" x2="524.78" y2="838.48"/>
        <path class="st4" d="M527.03,841.63c-.45-1.35-1.35-2.25-2.25-3.15"/>
        <path class="st4" d="M527.03,846.59c.45-1.8.45-3.6,0-4.96"/>
        <path class="st4" d="M491.46,821.83c-5.4.9-9.9,3.6-13.5,7.65"/>
        <path class="st4" d="M485.61,830.83c-.9.9-1.8,2.25-2.7,3.15"/>
        <path class="st4" d="M506.32,828.58c-6.75-3.15-14.86-2.25-20.71,2.25"/>
        <path class="st4" d="M515.77,835.78c-3.15-2.7-6.3-4.95-9.45-7.2"/>
        <path class="st4" d="M471.65,843.89c-.45,4.95-.45,9.9,0,14.85"/>
        <path class="st4" d="M471.65,858.74c.45,2.25,1.8,3.6,3.15,4.96"/>
        <path class="st4" d="M474.8,863.7l.9.9"/>
      </g>
    </g>
    <g>
      <rect class="st6" x="711.3" y="877.82" width="55.54" height="55.15"/>
      <line class="st5" x1="766.84" y1="877.82" x2="765.28" y2="877.82"/>
      <line class="st5" x1="762.54" y1="877.82" x2="759.8" y2="877.82"/>
      <line class="st5" x1="757.07" y1="877.82" x2="754.33" y2="877.82"/>
      <line class="st5" x1="751.59" y1="877.82" x2="748.85" y2="877.82"/>
      <line class="st5" x1="746.11" y1="877.82" x2="743.38" y2="877.82"/>
      <line class="st5" x1="740.64" y1="877.82" x2="737.51" y2="877.82"/>
      <line class="st5" x1="734.77" y1="877.82" x2="732.03" y2="877.82"/>
      <line class="st5" x1="729.29" y1="877.82" x2="726.56" y2="877.82"/>
      <line class="st5" x1="723.82" y1="877.82" x2="721.08" y2="877.82"/>
      <line class="st5" x1="718.34" y1="877.82" x2="715.6" y2="877.82"/>
      <line class="st5" x1="712.87" y1="877.82" x2="711.3" y2="877.82"/>
      <line class="st5" x1="711.3" y1="877.82" x2="711.3" y2="878.99"/>
      <line class="st5" x1="711.3" y1="881.73" x2="711.3" y2="884.46"/>
      <line class="st5" x1="711.3" y1="887.59" x2="711.3" y2="890.33"/>
      <line class="st5" x1="711.3" y1="893.07" x2="711.3" y2="895.81"/>
      <line class="st5" x1="711.3" y1="898.55" x2="711.3" y2="901.28"/>
      <line class="st5" x1="711.3" y1="904.02" x2="711.3" y2="906.76"/>
      <line class="st5" x1="711.3" y1="909.5" x2="711.3" y2="912.24"/>
      <line class="st5" x1="711.3" y1="914.97" x2="711.3" y2="918.1"/>
      <line class="st5" x1="711.3" y1="920.84" x2="711.3" y2="923.58"/>
      <line class="st5" x1="711.3" y1="926.32" x2="711.3" y2="929.05"/>
      <line class="st5" x1="711.3" y1="931.79" x2="711.3" y2="932.97"/>
      <path class="st5" d="M766.84,877.82"/>
    </g>
    <g>
      <polygon class="st8" points="643.51 1116.74 766.76 1116.74 766.76 978.52 643.4 978.52 643.4 979.42 643.4 987.08 643.4 988.43 637.1 988.43 637.1 987.08 637.1 973.12 643.4 973.12 669.96 973.12 767.21 973.12 767.21 938 643.4 938 637.1 938 637.1 932.15 767.21 932.15 767.21 629.16 694.73 629.16 694.73 589.09 773.06 589.09 773.06 1128.89 643.4 1128.89 591.18 1128.89 590.28 1128.89 590.28 1116.74 591.18 1116.74 637.1 1116.74 637.1 1064.51 637.1 1063.61 643.4 1063.61 643.4 1064.51 643.4 1102.33 643.4 1116.74 643.51 1116.74"/>
      <polygon class="st8" points="510.14 598.1 510.14 629.16 461.97 629.16 461.97 938.9 499.33 938.9 499.33 1116.74 505.64 1116.74 506.54 1116.74 506.54 1128.89 505.64 1128.89 499.33 1128.89 493.48 1123.04 493.48 944.76 456.11 944.76 456.11 716.5 429.55 716.5 429.55 589.09 510.14 589.09 510.14 598.1"/>
    </g>
    <rect class="st3" x="655.16" y="699.33" width="101.25" height="68.43"/>
  </g>
</svg>