<?xml version="1.0" encoding="UTF-8"?>
<svg xmlns="http://www.w3.org/2000/svg" version="1.1" viewBox="0 0 1200 1697.14">
  <!-- Generator: Adobe Illustrator 29.6.0, SVG Export Plug-In . SVG Version: 2.1.1 Build 207)  -->
  <defs>
    <style>
      .st0, .st1 {
        stroke: #0d101f;
      }

      .st0, .st1, .st2, .st3, .st4 {
        stroke-linecap: round;
        stroke-linejoin: round;
        stroke-width: .15px;
      }

      .st0, .st2, .st5 {
        fill: #fff;
      }

      .st1, .st3, .st4 {
        fill: none;
      }

      .st2, .st3 {
        stroke: #1d1d1b;
      }

      .st6 {
        fill: #383037;
      }

      .st4 {
        stroke: #11100e;
      }

      .st7 {
        fill: #f2efed;
      }
    </style>
  </defs>
  <g id="sfondo">
    <g>
      <polygon class="st7" points="727.15 538.11 727.15 1077.9 710.04 1077.9 709.14 1077.9 709.14 1065.75 710.04 1065.75 720.85 1065.75 720.85 578.17 648.81 578.17 648.81 538.11 669.07 538.11 669.07 536.75 684.38 536.75 684.38 538.11 727.15 538.11"/>
      <polygon class="st7" points="720.85 578.17 720.85 1065.75 710.04 1065.75 709.14 1065.75 709.14 1077.9 624.95 1077.9 624.95 1065.75 624.05 1065.75 556.97 1065.75 556.97 1013.53 556.97 1012.62 550.67 1012.62 550.67 1013.53 550.67 1065.75 427.31 1065.75 427.31 927.54 550.67 927.54 550.67 936.09 550.67 937.44 556.97 937.44 556.97 921.23 429.56 921.23 429.69 887.02 556.97 887.02 556.97 881.16 550.67 881.16 427.31 881.16 427.31 578.17 464.23 578.17 464.23 538.11 648.81 538.11 648.81 578.17 720.85 578.17"/>
      <polygon class="st7" points="624.95 1065.75 624.95 1077.9 421.01 1077.9 421.01 538.11 464.23 538.11 464.23 578.17 427.31 578.17 427.31 881.16 550.67 881.16 556.97 881.16 556.97 887.02 429.69 887.02 429.56 921.23 556.97 921.23 556.97 937.44 550.67 937.44 550.67 936.09 550.67 927.54 427.31 927.54 427.31 1065.75 550.67 1065.75 550.67 1013.53 550.67 1012.62 556.97 1012.62 556.97 1013.53 556.97 1065.75 624.05 1065.75 624.95 1065.75"/>
    </g>
  </g>
  <g id="letto">
    <g>
      <g>
        <polygon class="st5" points="430.43 709.18 430.43 708.74 507.94 708.74 507.94 857.02 506.96 856.53 506.96 709.18 430.43 709.18"/>
        <path class="st5" d="M430.43,818.66v-109.48h76.53v147.35l-17.01-8.41c-7.31-3.62-13.36-6.61-18.37-9.09l-2.63-1.3c-5.59-2.77-9.73-4.82-12.79-6.34l-1.16-.57-7.56-3.74-17.01-8.42Z"/>
        <path class="st5" d="M430.43,879.26v-60.6l17.01,8.42v30.18c0,1.94,1.56,3.51,3.5,3.51h35.51c1.94,0,3.5-1.57,3.5-3.51v-9.14l17.01,8.41v22.73h-76.53Z"/>
        <path class="st5" d="M447.44,857.26v-30.18l7.56,3.74c.37.19.75.38,1.16.57,3.06,1.52,7.2,3.57,12.79,6.34.85.41,1.72.85,2.63,1.3,5.01,2.48,11.06,5.47,18.37,9.09v9.14c0,1.94-1.56,3.51-3.5,3.51h-35.51c-1.94,0-3.5-1.57-3.5-3.51Z"/>
      </g>
      <g>
        <polyline class="st1" points="506.96 856.53 506.96 879.26 430.43 879.26 430.43 818.66"/>
        <polyline class="st1" points="489.95 848.12 506.96 856.53 507.94 857.02 507.94 708.74 430.43 708.74 430.43 709.18 430.43 818.66 447.44 827.08"/>
        <line class="st1" x1="468.95" y1="837.73" x2="471.58" y2="839.03"/>
        <line class="st1" x1="455" y1="830.82" x2="456.16" y2="831.39"/>
        <line class="st1" x1="486.45" y1="860.77" x2="450.94" y2="860.77"/>
        <path class="st1" d="M450.94,860.77c-1.94,0-3.5-1.57-3.5-3.51"/>
        <path class="st1" d="M489.95,857.26c0,1.94-1.56,3.51-3.5,3.51"/>
        <path class="st1" d="M489.95,857.26v-9.14c-7.31-3.62-13.36-6.61-18.37-9.09-.91-.45-1.78-.89-2.63-1.3-5.59-2.77-9.73-4.82-12.79-6.34-.41-.19-.79-.38-1.16-.57l-7.56-3.74v30.18"/>
      </g>
    </g>
    <rect class="st0" x="506.91" y="587.39" width="32.87" height="32.87"/>
    <g>
      <rect class="st5" x="557.09" y="1013.07" width="55.54" height="55.15"/>
      <line class="st4" x1="612.63" y1="1068.22" x2="612.63" y2="1067.04"/>
      <line class="st4" x1="612.63" y1="1064.31" x2="612.63" y2="1061.57"/>
      <line class="st4" x1="612.63" y1="1058.83" x2="612.63" y2="1056.09"/>
      <line class="st4" x1="612.63" y1="1053.35" x2="612.63" y2="1050.22"/>
      <line class="st4" x1="612.63" y1="1047.49" x2="612.63" y2="1044.75"/>
      <line class="st4" x1="612.63" y1="1042.01" x2="612.63" y2="1039.27"/>
      <line class="st4" x1="612.63" y1="1036.53" x2="612.63" y2="1033.8"/>
      <line class="st4" x1="612.63" y1="1031.06" x2="612.63" y2="1028.32"/>
      <line class="st4" x1="612.63" y1="1025.58" x2="612.63" y2="1022.85"/>
      <line class="st4" x1="612.63" y1="1019.72" x2="612.63" y2="1016.98"/>
      <line class="st4" x1="612.63" y1="1014.24" x2="612.63" y2="1013.07"/>
      <line class="st4" x1="612.63" y1="1013.07" x2="611.07" y2="1013.07"/>
      <line class="st4" x1="608.33" y1="1013.07" x2="605.59" y2="1013.07"/>
      <line class="st4" x1="602.85" y1="1013.07" x2="600.12" y2="1013.07"/>
      <line class="st4" x1="597.38" y1="1013.07" x2="594.64" y2="1013.07"/>
      <line class="st4" x1="591.9" y1="1013.07" x2="589.16" y2="1013.07"/>
      <line class="st4" x1="586.43" y1="1013.07" x2="583.3" y2="1013.07"/>
      <line class="st4" x1="580.56" y1="1013.07" x2="577.82" y2="1013.07"/>
      <line class="st4" x1="575.08" y1="1013.07" x2="572.34" y2="1013.07"/>
      <line class="st4" x1="569.61" y1="1013.07" x2="566.87" y2="1013.07"/>
      <line class="st4" x1="564.13" y1="1013.07" x2="561.39" y2="1013.07"/>
      <line class="st4" x1="558.65" y1="1013.07" x2="557.09" y2="1013.07"/>
      <line class="st4" x1="557.09" y1="1013.07" x2="557.09" y2="1014.24"/>
      <line class="st4" x1="557.09" y1="1016.98" x2="557.09" y2="1019.72"/>
      <line class="st4" x1="557.09" y1="1022.85" x2="557.09" y2="1025.58"/>
      <line class="st4" x1="557.09" y1="1028.32" x2="557.09" y2="1031.06"/>
      <line class="st4" x1="557.09" y1="1033.8" x2="557.09" y2="1036.53"/>
      <line class="st4" x1="557.09" y1="1039.27" x2="557.09" y2="1042.01"/>
      <line class="st4" x1="557.09" y1="1044.75" x2="557.09" y2="1047.49"/>
      <line class="st4" x1="557.09" y1="1050.22" x2="557.09" y2="1053.35"/>
      <line class="st4" x1="557.09" y1="1056.09" x2="557.09" y2="1058.83"/>
      <line class="st4" x1="557.09" y1="1061.57" x2="557.09" y2="1064.31"/>
      <line class="st4" x1="557.09" y1="1067.04" x2="557.09" y2="1068.22"/>
      <path class="st4" d="M612.63,1013.07"/>
      <line class="st4" x1="612.63" y1="1013.07" x2="612.63" y2="1014.24"/>
      <line class="st4" x1="612.63" y1="1016.98" x2="612.63" y2="1019.72"/>
      <line class="st4" x1="612.63" y1="1022.85" x2="612.63" y2="1025.58"/>
      <line class="st4" x1="612.63" y1="1028.32" x2="612.63" y2="1031.06"/>
      <line class="st4" x1="612.63" y1="1033.8" x2="612.63" y2="1036.53"/>
      <line class="st4" x1="612.63" y1="1039.27" x2="612.63" y2="1042.01"/>
      <line class="st4" x1="612.63" y1="1044.75" x2="612.63" y2="1047.49"/>
      <line class="st4" x1="612.63" y1="1050.22" x2="612.63" y2="1053.35"/>
      <line class="st4" x1="612.63" y1="1056.09" x2="612.63" y2="1058.83"/>
      <line class="st4" x1="612.63" y1="1061.57" x2="612.63" y2="1064.31"/>
      <line class="st4" x1="612.63" y1="1067.04" x2="612.63" y2="1068.22"/>
    </g>
  </g>
  <g id="bianchi">
    <rect class="st5" x="458.83" y="536.76" width="200.12" height="22.49"/>
    <rect class="st5" x="425.6" y="997.69" width="70.48" height="70.48"/>
    <rect class="st5" x="502.05" y="927.52" width="27.46" height="1.82"/>
    <rect class="st5" x="497.09" y="928.87" width="37.37" height="1.8"/>
    <rect class="st5" x="624.95" y="1065.75" width="86.97" height="26.38"/>
  </g>
  <g id="pareti">
    <g>
      <polygon class="st6" points="727.15 538.09 727.15 1077.89 710.04 1077.89 709.14 1077.89 709.14 1065.74 710.04 1065.74 720.85 1065.74 720.85 578.16 648.81 578.16 648.81 538.09 669.07 538.09 669.07 536.74 684.38 536.74 684.38 538.09 727.15 538.09"/>
      <polygon class="st6" points="624.95 1065.74 624.95 1077.89 421.01 1077.89 421.01 538.09 464.23 538.09 464.23 578.16 427.31 578.16 427.31 881.15 550.67 881.15 556.97 881.15 556.97 887 429.69 887 429.56 921.22 556.97 921.22 556.97 937.43 550.67 937.43 550.67 936.08 550.67 927.52 427.31 927.52 427.31 1065.74 550.67 1065.74 550.67 1013.51 550.67 1012.61 556.97 1012.61 556.97 1013.51 556.97 1065.74 624.05 1065.74 624.95 1065.74"/>
    </g>
  </g>
  <g id="Livello_1">
    <line class="st3" x1="706.44" y1="1065.73" x2="706.44" y2="986.95"/>
    <line class="st3" x1="702.84" y1="1065.73" x2="706.44" y2="1065.73"/>
    <line class="st3" x1="556.97" y1="939.67" x2="556.97" y2="1006.76"/>
    <path class="st3" d="M627.2,1009.91c0-18.46-7.2-36.47-20.26-49.52-13.51-13.06-31.06-20.71-49.97-20.71"/>
    <line class="st3" x1="556.97" y1="1009.91" x2="627.2" y2="1009.91"/>
    <line class="st3" x1="556.97" y1="1006.76" x2="556.97" y2="1009.91"/>
    <line class="st3" x1="556.97" y1="1006.76" x2="556.97" y2="939.67"/>
    <line class="st3" x1="556.97" y1="920.32" x2="555.17" y2="920.32"/>
    <line class="st3" x1="556.97" y1="888.35" x2="556.97" y2="920.32"/>
    <line class="st3" x1="555.17" y1="888.35" x2="556.97" y2="888.35"/>
    <line class="st3" x1="555.17" y1="920.32" x2="555.17" y2="888.35"/>
    <line class="st3" x1="556.97" y1="887" x2="556.97" y2="888.35"/>
    <line class="st3" x1="534.46" y1="930.67" x2="497.09" y2="930.67"/>
    <line class="st3" x1="497.09" y1="930.67" x2="497.09" y2="928.87"/>
    <line class="st3" x1="497.09" y1="928.87" x2="534.46" y2="928.87"/>
    <line class="st3" x1="534.46" y1="928.87" x2="534.46" y2="930.67"/>
    <line class="st3" x1="529.51" y1="928.87" x2="529.51" y2="927.52"/>
    <line class="st3" x1="502.05" y1="927.52" x2="502.05" y2="928.87"/>
    <g>
      <rect class="st5" x="640.61" y="874.3" width="103.36" height="54.26" transform="translate(-209.13 1593.72) rotate(-90)"/>
      <line class="st3" x1="711.3" y1="923.68" x2="698.82" y2="923.68"/>
      <line class="st3" x1="665.16" y1="849.75" x2="716.5" y2="849.75"/>
      <rect class="st3" x="667.61" y="900.38" width="46.44" height="46.6"/>
      <rect class="st3" x="675.32" y="908.25" width="31.01" height="31.01"/>
      <rect class="st3" x="668.06" y="852.63" width="45.99" height="26.81"/>
      <line class="st3" x1="673.42" y1="866.44" x2="685.61" y2="866.44"/>
      <line class="st3" x1="696.5" y1="866.44" x2="708.69" y2="866.44"/>
      <line class="st3" x1="702.51" y1="872.46" x2="702.51" y2="860.27"/>
      <line class="st3" x1="679.6" y1="872.46" x2="679.6" y2="860.27"/>
      <line class="st3" x1="665.16" y1="849.75" x2="665.16" y2="951.5"/>
    </g>
    <circle class="st3" cx="461.52" cy="1046.92" r="4.23"/>
    <circle class="st3" cx="461.52" cy="1046.92" r="4.23"/>
    <line class="st3" x1="461.43" y1="1065.73" x2="461.43" y2="1046.83"/>
    <line class="st3" x1="495.07" y1="997.69" x2="435.46" y2="997.69"/>
    <polyline class="st3" points="495.07 997.69 496.08 997.69 496.08 998.29"/>
    <polyline class="st3" points="496.08 1064.61 496.08 1065.73 495.54 1065.73"/>
    <line class="st3" x1="496.08" y1="1064.61" x2="496.08" y2="998.29"/>
    <line class="st3" x1="427.31" y1="1065.73" x2="495.54" y2="1065.73"/>
    <polyline class="st3" points="427.31 1065.73 427.31 997.69 435.46 997.69"/>
    <g>
      <path class="st5" d="M481.8,927.52v24.72c0,9.52-6.84,17.22-15.29,17.22s-15.28-7.7-15.28-17.22v-24.72h30.57Z"/>
      <path class="st3" d="M481.8,927.52v24.72c0,9.52-6.84,17.22-15.29,17.22s-15.28-7.7-15.28-17.22v-24.72h30.57Z"/>
    </g>
    <line class="st3" x1="550.67" y1="921.22" x2="550.67" y2="887"/>
    <line class="st3" x1="429.69" y1="887" x2="550.67" y2="921.22"/>
    <line class="st3" x1="429.56" y1="921.22" x2="550.67" y2="887"/>
    <line class="st3" x1="556.97" y1="920.32" x2="556.97" y2="921.22"/>
    <polyline class="st3" points="556.97 1006.76 556.97 1009.91 627.2 1009.91"/>
    <line class="st3" x1="706.29" y1="1065.77" x2="706.29" y2="1065.77"/>
    <line class="st3" x1="706.55" y1="1065.77" x2="706.55" y2="1065.77"/>
    <polyline class="st3" points="702.84 1065.73 706.44 1065.73 706.44 986.95"/>
    <line class="st3" x1="627.65" y1="1065.73" x2="702.84" y2="1065.73"/>
    <line class="st3" x1="702.84" y1="1065.73" x2="627.65" y2="1065.73"/>
    <path class="st3" d="M706.44,986.95c-21.16,0-40.97,8.55-55.83,23.41-14.86,14.41-22.96,34.67-22.96,55.38"/>
    <line class="st3" x1="556.97" y1="888.35" x2="555.17" y2="888.35"/>
    <line class="st3" x1="648.81" y1="547.09" x2="647.46" y2="547.09"/>
    <line class="st3" x1="556.97" y1="547.09" x2="555.62" y2="547.09"/>
    <line class="st3" x1="465.13" y1="547.09" x2="464.23" y2="547.09"/>
    <line class="st3" x1="639.81" y1="547.09" x2="639.81" y2="551.14"/>
    <line class="st3" x1="564.63" y1="547.09" x2="639.81" y2="547.09"/>
    <line class="st3" x1="564.63" y1="551.14" x2="564.63" y2="547.09"/>
    <line class="st3" x1="639.81" y1="551.14" x2="564.63" y2="551.14"/>
    <line class="st3" x1="561.02" y1="559.25" x2="643.41" y2="559.25"/>
    <line class="st3" x1="639.81" y1="546.64" x2="564.63" y2="546.64"/>
    <line class="st3" x1="639.81" y1="553.4" x2="564.63" y2="553.4"/>
    <line class="st3" x1="647.46" y1="546.64" x2="647.46" y2="559.25"/>
    <line class="st3" x1="639.81" y1="546.64" x2="647.46" y2="546.64"/>
    <line class="st3" x1="639.81" y1="553.4" x2="639.81" y2="546.64"/>
    <line class="st3" x1="643.41" y1="553.4" x2="639.81" y2="553.4"/>
    <line class="st3" x1="643.41" y1="559.25" x2="643.41" y2="553.4"/>
    <line class="st3" x1="647.46" y1="559.25" x2="643.41" y2="559.25"/>
    <line class="st3" x1="561.02" y1="553.4" x2="561.02" y2="559.25"/>
    <line class="st3" x1="564.63" y1="553.4" x2="561.02" y2="553.4"/>
    <line class="st3" x1="564.63" y1="546.64" x2="564.63" y2="553.4"/>
    <line class="st3" x1="556.97" y1="546.64" x2="564.63" y2="546.64"/>
    <line class="st3" x1="556.97" y1="559.25" x2="556.97" y2="546.64"/>
    <line class="st3" x1="561.02" y1="559.25" x2="556.97" y2="559.25"/>
    <line class="st3" x1="556.97" y1="546.64" x2="647.46" y2="546.64"/>
    <line class="st3" x1="645.66" y1="546.64" x2="558.77" y2="546.64"/>
    <line class="st3" x1="645.21" y1="546.64" x2="559.67" y2="546.64"/>
    <line class="st3" x1="564.63" y1="546.64" x2="639.81" y2="546.64"/>
    <line class="st3" x1="639.81" y1="546.64" x2="564.63" y2="546.64"/>
    <line class="st3" x1="551.57" y1="547.09" x2="551.57" y2="551.14"/>
    <line class="st3" x1="469.18" y1="547.09" x2="551.57" y2="547.09"/>
    <line class="st3" x1="469.18" y1="551.14" x2="469.18" y2="547.09"/>
    <line class="st3" x1="551.57" y1="551.14" x2="469.18" y2="551.14"/>
    <line class="st3" x1="469.18" y1="559.25" x2="551.57" y2="559.25"/>
    <line class="st3" x1="551.57" y1="546.64" x2="469.18" y2="546.64"/>
    <line class="st3" x1="469.18" y1="546.64" x2="469.18" y2="559.25"/>
    <line class="st3" x1="465.13" y1="546.64" x2="469.18" y2="546.64"/>
    <line class="st3" x1="465.13" y1="559.25" x2="465.13" y2="546.64"/>
    <line class="st3" x1="469.18" y1="559.25" x2="465.13" y2="559.25"/>
    <line class="st3" x1="555.62" y1="546.64" x2="555.62" y2="559.25"/>
    <line class="st3" x1="551.57" y1="546.64" x2="555.62" y2="546.64"/>
    <line class="st3" x1="551.57" y1="559.25" x2="551.57" y2="546.64"/>
    <line class="st3" x1="555.62" y1="559.25" x2="551.57" y2="559.25"/>
    <g>
      <path class="st5" d="M492.14,606.97c.45,1.8.45,3.61-.45,4.96-6.3,12.15-17.11,22.06-30.16,27.01-1.36.45-3.16.45-4.96,0-.9-.45-2.25-1.35-3.15-2.25l-14.4-12.16c-.46-.45-.91-.9-.91-.9-1.35-1.35-2.25-3.15-2.7-4.95,0-5.4.45-10.36,1.35-15.31.9-5.4,3.61-9.9,7.66-13.5,4.05-3.61,9-5.86,14.4-6.31,4.96-.45,10.36-.45,15.31,0,1.8.45,3.6,1.8,4.5,3.15.45.45.9.45.9.9l10.81,16.21c.9.9,1.35,1.8,1.8,3.15Z"/>
      <g>
        <path class="st3" d="M435.41,618.68c.45,1.8,1.35,3.6,2.7,4.95"/>
        <path class="st3" d="M436.76,603.37c-.9,4.95-1.35,9.91-1.35,15.31"/>
        <path class="st3" d="M461.53,638.94c13.05-4.95,23.86-14.86,30.16-27.01"/>
        <path class="st3" d="M481.33,600.22c-2.7-3.15-5.4-5.85-8.55-8.1"/>
        <path class="st3" d="M472.78,592.12c-6.3-4.06-14.41-4.06-20.71,0"/>
        <path class="st3" d="M452.07,592.12c-.9.9-1.8,1.8-3.15,2.7"/>
        <path class="st3" d="M458.82,583.56c-5.4.45-10.35,2.7-14.4,6.31"/>
        <path class="st3" d="M491.69,611.93c.9-1.35.9-3.16.45-4.96"/>
        <path class="st3" d="M492.14,606.97c-.45-1.35-.9-2.25-1.8-3.15"/>
        <line class="st3" x1="479.53" y1="587.61" x2="490.34" y2="603.82"/>
        <path class="st3" d="M479.53,587.61c0-.45-.45-.45-.9-.9"/>
        <path class="st3" d="M478.63,586.71c-.9-1.35-2.7-2.7-4.5-3.15"/>
        <path class="st3" d="M474.13,583.56c-4.95-.45-10.35-.45-15.31,0"/>
        <path class="st3" d="M443.97,618.23c1.8,3.15,4.5,6.3,7.2,9.45"/>
        <path class="st3" d="M446.22,597.52c-4.95,5.85-5.85,13.96-2.25,20.71"/>
        <line class="st3" x1="448.92" y1="594.82" x2="446.22" y2="597.52"/>
        <path class="st3" d="M444.42,589.87c-4.05,3.6-6.76,8.1-7.66,13.5"/>
        <path class="st3" d="M456.57,638.94c1.8.45,3.6.45,4.96,0"/>
        <path class="st3" d="M453.42,636.69c.9.9,2.25,1.8,3.15,2.25"/>
        <line class="st3" x1="439.02" y1="624.53" x2="453.42" y2="636.69"/>
        <path class="st3" d="M438.11,623.63s.45.45.91.9"/>
      </g>
    </g>
    <line class="st3" x1="550.67" y1="1077.89" x2="624.05" y2="1077.89"/>
    <line class="st3" x1="624.95" y1="1077.89" x2="624.05" y2="1077.89"/>
    <line class="st3" x1="624.95" y1="1077.89" x2="624.05" y2="1077.89"/>
    <line class="st3" x1="727.15" y1="538.09" x2="727.15" y2="1077.89"/>
    <g>
      <g>
        <path class="st5" d="M542.11,1039.17v16.22c0,.62-.37,1.11-.83,1.11h-35.72c-.45,0-.82-.49-.82-1.11v-16.22c0-.62.37-1.12.82-1.12h35.72c.46,0,.83.5.83,1.12ZM526.36,1046.99c0-1.62-1.32-2.93-2.94-2.93s-2.93,1.31-2.93,2.93,1.31,2.93,2.93,2.93,2.94-1.31,2.94-2.93Z"/>
        <path class="st5" d="M523.42,1059.24c1.22,0,2.21.99,2.21,2.2s-.99,2.21-2.21,2.21-2.2-.99-2.2-2.21.99-2.2,2.2-2.2Z"/>
        <path class="st5" d="M525,1046.99c0,.87-.7,1.58-1.58,1.58s-1.57-.71-1.57-1.58.7-1.58,1.57-1.58,1.58.71,1.58,1.58Z"/>
        <path class="st5" d="M523.42,1048.57c.88,0,1.58-.71,1.58-1.58s-.7-1.58-1.58-1.58-1.57.71-1.57,1.58.7,1.58,1.57,1.58ZM526.36,1046.99c0,1.62-1.32,2.93-2.94,2.93s-2.93-1.31-2.93-2.93,1.31-2.93,2.93-2.93,2.94,1.31,2.94,2.93Z"/>
        <path class="st5" d="M523.42,1063.65c1.22,0,2.21-.99,2.21-2.21s-.99-2.2-2.21-2.2-2.2.99-2.2,2.2.99,2.21,2.2,2.21ZM542.11,1055.39v-16.22c0-.62-.37-1.12-.83-1.12h-35.72c-.45,0-.82.5-.82,1.12v16.22c0,.62.37,1.11.82,1.11h35.72c.46,0,.83-.49.83-1.11ZM542.77,1038.06v27.68h-38.85v-27.68c0-.62.37-1.12.82-1.12h37.37c.36,0,.66.5.66,1.12Z"/>
      </g>
      <g>
        <path class="st3" d="M521.22,1061.44c0-1.21.99-2.2,2.2-2.2s2.21.99,2.21,2.2-.99,2.21-2.21,2.21-2.2-.99-2.2-2.21Z"/>
        <path class="st3" d="M520.49,1046.99c0-1.62,1.31-2.93,2.93-2.93s2.94,1.31,2.94,2.93-1.32,2.93-2.94,2.93-2.93-1.31-2.93-2.93Z"/>
        <path class="st3" d="M521.85,1046.99c0-.87.7-1.58,1.57-1.58s1.58.71,1.58,1.58-.7,1.58-1.58,1.58-1.57-.71-1.57-1.58Z"/>
        <path class="st3" d="M542.11,1055.39v-16.22c0-.62-.37-1.12-.83-1.12h-35.72c-.45,0-.82.5-.82,1.12v16.22c0,.62.37,1.11.82,1.11h35.72c.46,0,.83-.49.83-1.11Z"/>
        <path class="st3" d="M503.92,1057.18v8.56"/>
        <path class="st3" d="M542.77,1065.74v-27.68c0-.62-.3-1.12-.66-1.12h-37.37c-.45,0-.82.5-.82,1.12v8.77"/>
        <line class="st3" x1="503.92" y1="1057.18" x2="503.92" y2="1046.83"/>
        <line class="st3" x1="513.82" y1="1036.92" x2="532.28" y2="1036.92"/>
        <line class="st3" x1="503.92" y1="1065.74" x2="542.77" y2="1065.74"/>
      </g>
    </g>
    <g>
      <g>
        <g>
          <polygon class="st5" points="716.87 664.37 716.87 732.8 710.11 732.8 673.2 732.8 665.99 732.8 665.99 664.37 673.2 664.37 710.11 664.37 716.87 664.37"/>
          <path class="st5" d="M702.46,650.41c-1.35,0-2.25.45-2.7,1.35-.45.45,0,.9.45,1.35,4.5,2.7,7.65,6.76,9.9,11.26h-36.91c1.8-4.5,5.4-8.56,9.9-11.26.45-.45.45-.9.45-1.35-.9-.9-1.8-1.35-2.7-1.35-1.35.45-2.7,1.35-3.6,1.8q-.45.45-.9.45c-.45,0-.45-.45-.9-.45s-.45,0-.45-.45c9.9-7.2,22.96-7.2,32.86,0q0,.45-.45.45s-.45.45-.9.45c0,0-.45,0-.9-.45-.9-.45-2.25-1.35-3.15-1.8Z"/>
          <path class="st5" d="M707.86,745.41c-9.9,6.75-22.96,6.75-32.86,0q0-.45.45-.45c.45,0,.45-.45.9-.45s.45,0,.9.45c.9.45,2.25,1.35,3.6,1.8.9,0,1.8-.45,2.7-1.35,0-.45,0-.9-.45-1.35-4.5-2.71-8.1-6.76-9.9-11.26h36.91c-2.25,4.5-5.4,8.55-9.9,11.26-.45.45-.9.9-.45,1.35.45.9,1.35,1.35,2.7,1.35.9-.45,2.25-1.35,3.15-1.8.45-.45.9-.45.9-.45.45,0,.9.45.9.45q.45,0,.45.45Z"/>
        </g>
        <g>
          <polyline class="st3" points="665.99 732.8 673.2 732.8 710.11 732.8 716.87 732.8"/>
          <polyline class="st3" points="716.87 664.37 710.11 664.37 673.2 664.37 665.99 664.37"/>
          <line class="st3" x1="716.87" y1="732.8" x2="716.87" y2="664.37"/>
          <path class="st3" d="M675,745.41c9.9,6.75,22.96,6.75,32.86,0"/>
          <path class="st3" d="M673.2,732.8c1.8,4.5,5.4,8.55,9.9,11.26"/>
          <path class="st3" d="M683.55,745.41c0-.45,0-.9-.45-1.35"/>
          <path class="st3" d="M677.25,744.96c.9.45,2.25,1.35,3.6,1.8"/>
          <path class="st3" d="M680.85,746.76c.9,0,1.8-.45,2.7-1.35"/>
          <path class="st3" d="M675.45,744.96q-.45,0-.45.45"/>
          <path class="st3" d="M676.35,744.51c-.45,0-.45.45-.9.45"/>
          <path class="st3" d="M677.25,744.96q-.45-.45-.9-.45"/>
          <path class="st3" d="M700.21,744.06c4.5-2.71,7.65-6.76,9.9-11.26"/>
          <path class="st3" d="M700.21,744.06c-.45.45-.9.9-.45,1.35"/>
          <path class="st3" d="M702.46,746.76c.9-.45,2.25-1.35,3.15-1.8"/>
          <path class="st3" d="M699.76,745.41c.45.9,1.35,1.35,2.7,1.35"/>
          <path class="st3" d="M707.86,745.41q0-.45-.45-.45"/>
          <path class="st3" d="M707.41,744.96s-.45-.45-.9-.45"/>
          <path class="st3" d="M706.51,744.51s-.45,0-.9.45"/>
          <path class="st3" d="M707.86,651.76c-9.9-7.2-22.96-7.2-32.86,0"/>
          <path class="st3" d="M683.1,653.11c-4.5,2.7-8.1,6.76-9.9,11.26"/>
          <path class="st3" d="M683.1,653.11c.45-.45.45-.9.45-1.35"/>
          <path class="st3" d="M680.85,650.41c-1.35.45-2.7,1.35-3.6,1.8"/>
          <path class="st3" d="M683.55,651.76c-.9-.9-1.8-1.35-2.7-1.35"/>
          <path class="st3" d="M675,651.76q0,.45.45.45"/>
          <path class="st3" d="M675.45,652.21c.45,0,.45.45.9.45"/>
          <path class="st3" d="M676.35,652.66q.45,0,.9-.45"/>
          <path class="st3" d="M710.11,664.37c-2.25-4.5-5.4-8.56-9.9-11.26"/>
          <path class="st3" d="M699.76,651.76c-.45.45,0,.9.45,1.35"/>
          <path class="st3" d="M705.61,652.21c-.9-.45-2.25-1.35-3.15-1.8"/>
          <path class="st3" d="M702.46,650.41c-1.35,0-2.25.45-2.7,1.35"/>
          <path class="st3" d="M707.41,652.21q.45,0,.45-.45"/>
          <path class="st3" d="M706.51,652.66c.45,0,.9-.45.9-.45"/>
          <path class="st3" d="M705.61,652.21c.45.45.9.45.9.45"/>
          <line class="st3" x1="665.99" y1="732.8" x2="665.99" y2="664.37"/>
        </g>
      </g>
      <g>
        <g>
          <polygon class="st5" points="666.5 664.37 666.5 732.8 659.74 732.8 622.83 732.8 615.62 732.8 615.62 664.37 622.83 664.37 659.74 664.37 666.5 664.37"/>
          <path class="st5" d="M657.04,652.21s-.45.45-.9.45c0,0-.45,0-.9-.45-.9-.45-2.25-1.35-3.15-1.8-1.35,0-2.25.45-2.7,1.35-.45.45,0,.9.45,1.35,4.5,2.7,7.65,6.76,9.9,11.26h-36.91c1.8-4.5,5.4-8.56,9.9-11.26.45-.45.45-.9.45-1.35-.9-.9-1.8-1.35-2.7-1.35-1.35.45-2.7,1.35-3.6,1.8q-.45.45-.9.45c-.45,0-.45-.45-.9-.45s-.45,0-.45-.45c9.9-7.2,22.96-7.2,32.86,0q0,.45-.45.45Z"/>
          <path class="st5" d="M657.04,744.96q.45,0,.45.45c-9.9,6.75-22.96,6.75-32.86,0q0-.45.45-.45c.45,0,.45-.45.9-.45s.45,0,.9.45c.9.45,2.25,1.35,3.6,1.8.9,0,1.8-.45,2.7-1.35,0-.45,0-.9-.45-1.35-4.5-2.71-8.1-6.76-9.9-11.26h36.91c-2.25,4.5-5.4,8.55-9.9,11.26-.45.45-.9.9-.45,1.35.45.9,1.35,1.35,2.7,1.35.9-.45,2.25-1.35,3.15-1.8.45-.45.9-.45.9-.45.45,0,.9.45.9.45Z"/>
        </g>
        <g>
          <polyline class="st3" points="615.62 732.8 622.83 732.8 659.74 732.8 666.5 732.8"/>
          <polyline class="st3" points="666.5 664.37 659.74 664.37 622.83 664.37 615.62 664.37"/>
          <line class="st3" x1="666.5" y1="732.8" x2="666.5" y2="664.37"/>
          <path class="st3" d="M624.63,745.41c9.9,6.75,22.96,6.75,32.86,0"/>
          <path class="st3" d="M622.83,732.8c1.8,4.5,5.4,8.55,9.9,11.26"/>
          <path class="st3" d="M633.18,745.41c0-.45,0-.9-.45-1.35"/>
          <path class="st3" d="M626.88,744.96c.9.45,2.25,1.35,3.6,1.8"/>
          <path class="st3" d="M630.48,746.76c.9,0,1.8-.45,2.7-1.35"/>
          <path class="st3" d="M625.08,744.96q-.45,0-.45.45"/>
          <path class="st3" d="M625.98,744.51c-.45,0-.45.45-.9.45"/>
          <path class="st3" d="M626.88,744.96q-.45-.45-.9-.45"/>
          <path class="st3" d="M649.84,744.06c4.5-2.71,7.65-6.76,9.9-11.26"/>
          <path class="st3" d="M649.84,744.06c-.45.45-.9.9-.45,1.35"/>
          <path class="st3" d="M652.09,746.76c.9-.45,2.25-1.35,3.15-1.8"/>
          <path class="st3" d="M649.39,745.41c.45.9,1.35,1.35,2.7,1.35"/>
          <path class="st3" d="M657.49,745.41q0-.45-.45-.45"/>
          <path class="st3" d="M657.04,744.96s-.45-.45-.9-.45"/>
          <path class="st3" d="M656.14,744.51s-.45,0-.9.45"/>
          <path class="st3" d="M657.49,651.76c-9.9-7.2-22.96-7.2-32.86,0"/>
          <path class="st3" d="M632.73,653.11c-4.5,2.7-8.1,6.76-9.9,11.26"/>
          <path class="st3" d="M632.73,653.11c.45-.45.45-.9.45-1.35"/>
          <path class="st3" d="M630.48,650.41c-1.35.45-2.7,1.35-3.6,1.8"/>
          <path class="st3" d="M633.18,651.76c-.9-.9-1.8-1.35-2.7-1.35"/>
          <path class="st3" d="M624.63,651.76q0,.45.45.45"/>
          <path class="st3" d="M625.08,652.21c.45,0,.45.45.9.45"/>
          <path class="st3" d="M625.98,652.66q.45,0,.9-.45"/>
          <path class="st3" d="M659.74,664.37c-2.25-4.5-5.4-8.56-9.9-11.26"/>
          <path class="st3" d="M649.39,651.76c-.45.45,0,.9.45,1.35"/>
          <path class="st3" d="M655.24,652.21c-.9-.45-2.25-1.35-3.15-1.8"/>
          <path class="st3" d="M652.09,650.41c-1.35,0-2.25.45-2.7,1.35"/>
          <path class="st3" d="M657.04,652.21q.45,0,.45-.45"/>
          <path class="st3" d="M656.14,652.66c.45,0,.9-.45.9-.45"/>
          <path class="st3" d="M655.24,652.21c.45.45.9.45.9.45"/>
          <line class="st3" x1="615.62" y1="732.8" x2="615.62" y2="664.37"/>
        </g>
      </g>
      <rect class="st2" x="615.62" y="664.37" width="101.25" height="68.43"/>
    </g>
  </g>
</svg>