<?xml version="1.0" encoding="UTF-8"?>
<svg xmlns="http://www.w3.org/2000/svg" version="1.1" viewBox="0 0 1200 1697.14">
  <!-- Generator: Adobe Illustrator 29.6.0, SVG Export Plug-In . SVG Version: 2.1.1 Build 207)  -->
  <defs>
    <style>
      .st0, .st1 {
        stroke: #0d101f;
      }

      .st0, .st1, .st2, .st3 {
        stroke-linecap: round;
        stroke-linejoin: round;
        stroke-width: .15px;
      }

      .st0, .st4 {
        fill: #fff;
      }

      .st1, .st2, .st3 {
        fill: none;
      }

      .st5 {
        fill: #383037;
      }

      .st2 {
        stroke: #1d1d1b;
      }

      .st3 {
        stroke: #11100e;
      }

      .st6 {
        fill: #f2efed;
      }
    </style>
  </defs>
  <g id="sfondo">
    <g>
      <polygon class="st6" points="814.86 1108.34 814.86 1115.09 809.01 1121.39 597.86 1121.39 597.86 1028.65 429.48 1028.65 429.48 596.9 428.58 596.9 428.58 587.9 519.52 587.9 519.52 596.9 519.52 627.96 463.7 627.96 463.7 839.11 597.41 839.11 603.71 839.11 603.71 844.06 597.41 844.06 463.7 844.06 463.7 877.83 597.41 877.83 603.71 877.83 603.71 892.69 603.71 893.59 597.41 893.59 597.41 892.69 597.41 884.13 597.41 883.23 463.7 883.23 463.7 1022.35 597.41 1022.35 597.41 1021.45 597.41 969.67 597.41 968.77 603.71 968.77 603.71 969.67 603.71 1022.35 603.71 1115.09 802.71 1115.09 802.71 1108.34 802.71 1107.44 814.86 1107.44 814.86 1108.34"/>
      <polygon class="st6" points="814.86 1023.25 814.86 1107.44 802.71 1107.44 802.71 1108.34 802.71 1115.09 603.71 1115.09 603.71 1022.35 603.71 969.67 603.71 968.77 597.41 968.77 597.41 969.67 597.41 1021.45 597.41 1022.35 463.7 1022.35 463.7 883.23 597.41 883.23 597.41 884.13 597.41 892.69 597.41 893.59 603.71 893.59 603.71 892.69 603.71 877.83 597.41 877.83 463.7 877.83 463.7 844.06 597.41 844.06 603.71 844.06 603.71 839.11 597.41 839.11 463.7 839.11 463.7 627.96 519.52 627.96 519.52 596.9 519.52 587.9 704.11 587.9 704.11 596.9 704.11 627.96 765.34 627.96 765.34 822.45 802.71 822.45 802.71 1022.35 802.71 1023.25 814.86 1023.25"/>
      <polygon class="st6" points="814.86 1022.35 814.86 1023.25 802.71 1023.25 802.71 1022.35 802.71 822.45 765.34 822.45 765.34 627.96 704.11 627.96 704.11 596.9 704.11 587.9 745.08 587.9 771.64 587.9 771.64 816.15 809.01 816.15 809.01 994.43 814.86 1000.29 814.86 1022.35"/>
    </g>
  </g>
  <g id="letto">
    <g>
      <g>
        <polygon class="st4" points="464.97 668.49 464.97 668.05 542.48 668.05 542.48 816.33 541.5 815.84 541.5 668.49 464.97 668.49"/>
        <path class="st4" d="M464.97,777.97v-109.48h76.53v147.35l-17.01-8.41c-7.31-3.62-13.36-6.61-18.37-9.09l-2.63-1.3c-5.59-2.77-9.73-4.82-12.79-6.34l-1.16-.57-7.56-3.74-17.01-8.42Z"/>
        <path class="st4" d="M464.97,838.57v-60.6l17.01,8.42v30.18c0,1.94,1.56,3.51,3.5,3.51h35.51c1.94,0,3.5-1.57,3.5-3.51v-9.14l17.01,8.41v22.73h-76.53Z"/>
        <path class="st4" d="M481.98,816.57v-30.18l7.56,3.74c.37.19.75.38,1.16.57,3.06,1.52,7.2,3.57,12.79,6.34.85.41,1.72.85,2.63,1.3,5.01,2.48,11.06,5.47,18.37,9.09v9.14c0,1.94-1.56,3.51-3.5,3.51h-35.51c-1.94,0-3.5-1.57-3.5-3.51Z"/>
      </g>
      <g>
        <polyline class="st1" points="541.5 815.84 541.5 838.57 464.97 838.57 464.97 777.97"/>
        <polyline class="st1" points="524.49 807.43 541.5 815.84 542.48 816.33 542.48 668.05 464.97 668.05 464.97 668.49 464.97 777.97 481.98 786.39"/>
        <line class="st1" x1="503.49" y1="797.04" x2="506.12" y2="798.34"/>
        <line class="st1" x1="489.54" y1="790.13" x2="490.7" y2="790.7"/>
        <line class="st1" x1="520.99" y1="820.08" x2="485.48" y2="820.08"/>
        <path class="st1" d="M485.48,820.08c-1.94,0-3.5-1.57-3.5-3.51"/>
        <path class="st1" d="M524.49,816.57c0,1.94-1.56,3.51-3.5,3.51"/>
        <path class="st1" d="M524.49,816.57v-9.14c-7.31-3.62-13.36-6.61-18.37-9.09-.91-.45-1.78-.89-2.63-1.3-5.59-2.77-9.73-4.82-12.79-6.34-.41-.19-.79-.38-1.16-.57l-7.56-3.74v30.18"/>
      </g>
    </g>
    <rect class="st0" x="555.11" y="794.09" width="32.87" height="32.87"/>
    <g>
      <rect class="st4" x="747.99" y="878.2" width="55.54" height="55.15" transform="translate(-130.02 1681.54) rotate(-90)"/>
      <line class="st3" x1="748.18" y1="878.01" x2="748.18" y2="879.57"/>
      <line class="st3" x1="748.18" y1="882.31" x2="748.18" y2="885.05"/>
      <line class="st3" x1="748.18" y1="887.79" x2="748.18" y2="890.52"/>
      <line class="st3" x1="748.18" y1="893.26" x2="748.18" y2="896"/>
      <line class="st3" x1="748.18" y1="898.74" x2="748.18" y2="901.48"/>
      <line class="st3" x1="748.18" y1="904.21" x2="748.18" y2="907.34"/>
      <line class="st3" x1="748.18" y1="910.08" x2="748.18" y2="912.82"/>
      <line class="st3" x1="748.18" y1="915.56" x2="748.18" y2="918.29"/>
      <line class="st3" x1="748.18" y1="921.03" x2="748.18" y2="923.77"/>
      <line class="st3" x1="748.18" y1="926.51" x2="748.18" y2="929.25"/>
      <line class="st3" x1="748.18" y1="931.98" x2="748.18" y2="933.55"/>
      <line class="st3" x1="748.18" y1="933.55" x2="749.36" y2="933.55"/>
      <line class="st3" x1="752.1" y1="933.55" x2="754.83" y2="933.55"/>
      <line class="st3" x1="757.96" y1="933.55" x2="760.7" y2="933.55"/>
      <line class="st3" x1="763.44" y1="933.55" x2="766.18" y2="933.55"/>
      <line class="st3" x1="768.92" y1="933.55" x2="771.65" y2="933.55"/>
      <line class="st3" x1="774.39" y1="933.55" x2="777.13" y2="933.55"/>
      <line class="st3" x1="779.87" y1="933.55" x2="782.61" y2="933.55"/>
      <line class="st3" x1="785.34" y1="933.55" x2="788.47" y2="933.55"/>
      <line class="st3" x1="791.21" y1="933.55" x2="793.95" y2="933.55"/>
      <line class="st3" x1="796.69" y1="933.55" x2="799.42" y2="933.55"/>
      <line class="st3" x1="802.16" y1="933.55" x2="803.34" y2="933.55"/>
      <path class="st3" d="M748.18,878.01"/>
    </g>
    <g>
      <rect class="st4" x="747.99" y="934.48" width="55.54" height="55.15" transform="translate(-186.29 1737.81) rotate(-90)"/>
      <line class="st3" x1="748.18" y1="934.28" x2="748.18" y2="935.85"/>
      <line class="st3" x1="748.18" y1="938.58" x2="748.18" y2="941.32"/>
      <line class="st3" x1="748.18" y1="944.06" x2="748.18" y2="946.8"/>
      <line class="st3" x1="748.18" y1="949.54" x2="748.18" y2="952.27"/>
      <line class="st3" x1="748.18" y1="955.01" x2="748.18" y2="957.75"/>
      <line class="st3" x1="748.18" y1="960.49" x2="748.18" y2="963.62"/>
      <line class="st3" x1="748.18" y1="966.35" x2="748.18" y2="969.09"/>
      <line class="st3" x1="748.18" y1="971.83" x2="748.18" y2="974.57"/>
      <line class="st3" x1="748.18" y1="977.31" x2="748.18" y2="980.04"/>
      <line class="st3" x1="748.18" y1="982.78" x2="748.18" y2="985.52"/>
      <line class="st3" x1="748.18" y1="988.26" x2="748.18" y2="989.82"/>
      <line class="st3" x1="748.18" y1="989.82" x2="749.36" y2="989.82"/>
      <line class="st3" x1="752.1" y1="989.82" x2="754.83" y2="989.82"/>
      <line class="st3" x1="757.96" y1="989.82" x2="760.7" y2="989.82"/>
      <line class="st3" x1="763.44" y1="989.82" x2="766.18" y2="989.82"/>
      <line class="st3" x1="768.92" y1="989.82" x2="771.65" y2="989.82"/>
      <line class="st3" x1="774.39" y1="989.82" x2="777.13" y2="989.82"/>
      <line class="st3" x1="779.87" y1="989.82" x2="782.61" y2="989.82"/>
      <line class="st3" x1="785.34" y1="989.82" x2="788.47" y2="989.82"/>
      <line class="st3" x1="791.21" y1="989.82" x2="793.95" y2="989.82"/>
      <line class="st3" x1="796.69" y1="989.82" x2="799.42" y2="989.82"/>
      <line class="st3" x1="802.16" y1="989.82" x2="803.34" y2="989.82"/>
      <path class="st3" d="M748.18,934.28"/>
    </g>
    <g>
      <rect class="st4" x="747.99" y="822.66" width="55.54" height="55.15" transform="translate(-74.48 1626) rotate(-90)"/>
      <line class="st3" x1="803.34" y1="822.47" x2="802.16" y2="822.47"/>
      <line class="st3" x1="799.42" y1="822.47" x2="796.69" y2="822.47"/>
      <line class="st3" x1="793.95" y1="822.47" x2="791.21" y2="822.47"/>
      <line class="st3" x1="788.47" y1="822.47" x2="785.34" y2="822.47"/>
      <line class="st3" x1="782.61" y1="822.47" x2="779.87" y2="822.47"/>
      <line class="st3" x1="777.13" y1="822.47" x2="774.39" y2="822.47"/>
      <line class="st3" x1="771.65" y1="822.47" x2="768.92" y2="822.47"/>
      <line class="st3" x1="766.18" y1="822.47" x2="763.44" y2="822.47"/>
      <line class="st3" x1="760.7" y1="822.47" x2="757.96" y2="822.47"/>
      <line class="st3" x1="754.83" y1="822.47" x2="752.1" y2="822.47"/>
      <line class="st3" x1="749.36" y1="822.47" x2="748.18" y2="822.47"/>
      <line class="st3" x1="748.18" y1="822.47" x2="748.18" y2="824.03"/>
      <line class="st3" x1="748.18" y1="826.77" x2="748.18" y2="829.51"/>
      <line class="st3" x1="748.18" y1="832.24" x2="748.18" y2="834.98"/>
      <line class="st3" x1="748.18" y1="837.72" x2="748.18" y2="840.46"/>
      <line class="st3" x1="748.18" y1="843.2" x2="748.18" y2="845.93"/>
      <line class="st3" x1="748.18" y1="848.67" x2="748.18" y2="851.8"/>
      <line class="st3" x1="748.18" y1="854.54" x2="748.18" y2="857.28"/>
      <line class="st3" x1="748.18" y1="860.01" x2="748.18" y2="862.75"/>
      <line class="st3" x1="748.18" y1="865.49" x2="748.18" y2="868.23"/>
      <line class="st3" x1="748.18" y1="870.97" x2="748.18" y2="873.7"/>
      <line class="st3" x1="748.18" y1="876.44" x2="748.18" y2="878.01"/>
      <line class="st3" x1="748.18" y1="878.01" x2="749.36" y2="878.01"/>
      <line class="st3" x1="752.1" y1="878.01" x2="754.83" y2="878.01"/>
      <line class="st3" x1="757.96" y1="878.01" x2="760.7" y2="878.01"/>
      <line class="st3" x1="763.44" y1="878.01" x2="766.18" y2="878.01"/>
      <line class="st3" x1="768.92" y1="878.01" x2="771.65" y2="878.01"/>
      <line class="st3" x1="774.39" y1="878.01" x2="777.13" y2="878.01"/>
      <line class="st3" x1="779.87" y1="878.01" x2="782.61" y2="878.01"/>
      <line class="st3" x1="785.34" y1="878.01" x2="788.47" y2="878.01"/>
      <line class="st3" x1="791.21" y1="878.01" x2="793.95" y2="878.01"/>
      <line class="st3" x1="796.69" y1="878.01" x2="799.42" y2="878.01"/>
      <line class="st3" x1="802.16" y1="878.01" x2="803.34" y2="878.01"/>
      <path class="st3" d="M748.18,822.47"/>
      <line class="st3" x1="748.18" y1="822.47" x2="749.36" y2="822.47"/>
      <line class="st3" x1="752.1" y1="822.47" x2="754.83" y2="822.47"/>
      <line class="st3" x1="757.96" y1="822.47" x2="760.7" y2="822.47"/>
      <line class="st3" x1="763.44" y1="822.47" x2="766.18" y2="822.47"/>
      <line class="st3" x1="768.92" y1="822.47" x2="771.65" y2="822.47"/>
      <line class="st3" x1="774.39" y1="822.47" x2="777.13" y2="822.47"/>
      <line class="st3" x1="779.87" y1="822.47" x2="782.61" y2="822.47"/>
      <line class="st3" x1="785.34" y1="822.47" x2="788.47" y2="822.47"/>
      <line class="st3" x1="791.21" y1="822.47" x2="793.95" y2="822.47"/>
      <line class="st3" x1="796.69" y1="822.47" x2="799.42" y2="822.47"/>
      <line class="st3" x1="802.16" y1="822.47" x2="803.34" y2="822.47"/>
    </g>
    <g>
      <polygon class="st5" points="814.86 1108.34 814.86 1115.09 809.01 1121.39 597.86 1121.39 597.86 1028.65 429.48 1028.65 429.48 596.9 428.58 596.9 428.58 587.9 519.52 587.9 519.52 596.9 519.52 627.96 463.7 627.96 463.7 839.11 597.41 839.11 603.71 839.11 603.71 844.06 597.41 844.06 463.7 844.06 463.7 877.83 597.41 877.83 603.71 877.83 603.71 892.69 603.71 893.59 597.41 893.59 597.41 892.69 597.41 884.13 597.41 883.23 463.7 883.23 463.7 1022.35 597.41 1022.35 597.41 1021.45 597.41 969.67 597.41 968.77 603.71 968.77 603.71 969.67 603.71 1022.35 603.71 1115.09 802.71 1115.09 802.71 1108.34 802.71 1107.44 814.86 1107.44 814.86 1108.34"/>
      <polygon class="st5" points="814.86 1022.35 814.86 1023.25 802.71 1023.25 802.71 1022.35 802.71 822.45 765.34 822.45 765.34 627.96 704.11 627.96 704.11 596.9 704.11 587.9 745.08 587.9 771.64 587.9 771.64 816.15 809.01 816.15 809.01 994.43 814.86 1000.29 814.86 1022.35"/>
    </g>
  </g>
  <g id="bianchi">
    <rect class="st4" x="518.06" y="587.89" width="200.11" height="21.16"/>
    <rect class="st4" x="802.71" y="1022.34" width="12.16" height="89.37"/>
    <rect class="st4" x="463.7" y="954.3" width="68.77" height="68.04"/>
    <rect class="st4" x="549.69" y="883.23" width="27.46" height=".9"/>
    <rect class="st4" x="544.74" y="884.13" width="37.37" height="1.35"/>
  </g>
  <g id="Livello_1">
    <polyline class="st2" points="463.7 1022.34 463.7 954.3 471.85 954.3"/>
    <line class="st2" x1="463.7" y1="1022.34" x2="531.93" y2="1022.34"/>
    <line class="st2" x1="532.47" y1="1021.22" x2="532.47" y2="954.9"/>
    <polyline class="st2" points="532.47 1021.22 532.47 1022.34 531.93 1022.34"/>
    <polyline class="st2" points="531.46 954.3 532.47 954.3 532.47 954.9"/>
    <line class="st2" x1="531.46" y1="954.3" x2="471.85" y2="954.3"/>
    <line class="st2" x1="497.82" y1="1022.34" x2="497.82" y2="1003.44"/>
    <circle class="st2" cx="497.91" cy="1003.53" r="4.23" transform="translate(-217.24 141.24) rotate(-13.28)"/>
    <circle class="st2" cx="497.91" cy="1003.53" r="4.23" transform="translate(-217.24 141.24) rotate(-13.28)"/>
    <line class="st2" x1="802.71" y1="1101.13" x2="802.71" y2="1025.94"/>
    <line class="st2" x1="802.71" y1="1104.73" x2="723.92" y2="1104.73"/>
    <line class="st2" x1="723.92" y1="1104.73" x2="723.92" y2="1101.13"/>
    <path class="st2" d="M802.71,1025.94c-20.71,0-40.97,8.1-55.38,22.96-14.86,14.86-23.41,34.67-23.41,55.83"/>
    <line class="st2" x1="824.77" y1="909.34" x2="827.92" y2="909.34"/>
    <line class="st2" x1="599.21" y1="844.06" x2="599.21" y2="877.83"/>
    <line class="st2" x1="611.37" y1="609.05" x2="606.87" y2="609.05"/>
    <line class="st2" x1="606.87" y1="609.05" x2="606.87" y2="596.45"/>
    <line class="st2" x1="606.87" y1="596.45" x2="611.37" y2="596.45"/>
    <line class="st2" x1="611.37" y1="596.45" x2="611.37" y2="609.05"/>
    <line class="st2" x1="524.93" y1="609.05" x2="520.43" y2="609.05"/>
    <line class="st2" x1="520.43" y1="609.05" x2="520.43" y2="596.45"/>
    <line class="st2" x1="520.43" y1="596.45" x2="524.93" y2="596.45"/>
    <line class="st2" x1="524.93" y1="596.45" x2="524.93" y2="609.05"/>
    <line class="st2" x1="606.87" y1="596.45" x2="524.93" y2="596.45"/>
    <line class="st2" x1="524.93" y1="609.05" x2="606.87" y2="609.05"/>
    <line class="st2" x1="606.87" y1="601.4" x2="524.93" y2="601.4"/>
    <line class="st2" x1="524.93" y1="601.4" x2="524.93" y2="596.9"/>
    <line class="st2" x1="524.93" y1="596.9" x2="606.87" y2="596.9"/>
    <line class="st2" x1="606.87" y1="596.9" x2="606.87" y2="601.4"/>
    <line class="st2" x1="695.11" y1="596.45" x2="620.37" y2="596.45"/>
    <line class="st2" x1="620.37" y1="596.45" x2="695.11" y2="596.45"/>
    <line class="st2" x1="700.51" y1="596.45" x2="614.97" y2="596.45"/>
    <line class="st2" x1="700.96" y1="596.45" x2="614.52" y2="596.45"/>
    <line class="st2" x1="612.27" y1="596.45" x2="703.21" y2="596.45"/>
    <line class="st2" x1="616.32" y1="609.05" x2="612.27" y2="609.05"/>
    <line class="st2" x1="612.27" y1="609.05" x2="612.27" y2="596.45"/>
    <line class="st2" x1="612.27" y1="596.45" x2="620.37" y2="596.45"/>
    <line class="st2" x1="620.37" y1="596.45" x2="620.37" y2="603.2"/>
    <line class="st2" x1="620.37" y1="603.2" x2="616.32" y2="603.2"/>
    <line class="st2" x1="616.32" y1="603.2" x2="616.32" y2="609.05"/>
    <line class="st2" x1="703.21" y1="609.05" x2="698.71" y2="609.05"/>
    <line class="st2" x1="698.71" y1="609.05" x2="698.71" y2="603.2"/>
    <line class="st2" x1="698.71" y1="603.2" x2="695.11" y2="603.2"/>
    <line class="st2" x1="695.11" y1="603.2" x2="695.11" y2="596.45"/>
    <line class="st2" x1="695.11" y1="596.45" x2="703.21" y2="596.45"/>
    <line class="st2" x1="703.21" y1="596.45" x2="703.21" y2="609.05"/>
    <line class="st2" x1="695.11" y1="603.2" x2="620.37" y2="603.2"/>
    <line class="st2" x1="695.11" y1="596.45" x2="620.37" y2="596.45"/>
    <line class="st2" x1="616.32" y1="609.05" x2="698.71" y2="609.05"/>
    <line class="st2" x1="695.11" y1="601.4" x2="620.37" y2="601.4"/>
    <line class="st2" x1="620.37" y1="601.4" x2="620.37" y2="596.9"/>
    <line class="st2" x1="620.37" y1="596.9" x2="695.11" y2="596.9"/>
    <line class="st2" x1="695.11" y1="596.9" x2="695.11" y2="601.4"/>
    <line class="st2" x1="520.43" y1="596.9" x2="519.53" y2="596.9"/>
    <line class="st2" x1="612.27" y1="596.9" x2="611.37" y2="596.9"/>
    <line class="st2" x1="704.11" y1="596.9" x2="703.21" y2="596.9"/>
    <g>
      <g>
        <path class="st4" d="M593.16,995.78v16.22c0,.62-.37,1.12-.83,1.12h-35.72c-.45,0-.82-.5-.82-1.12v-16.22c0-.62.37-1.12.82-1.12h35.72c.46,0,.83.5.83,1.12ZM577.41,1003.6c0-1.62-1.32-2.93-2.94-2.93s-2.93,1.31-2.93,2.93,1.31,2.94,2.93,2.94,2.94-1.32,2.94-2.94Z"/>
        <path class="st4" d="M574.47,1015.85c1.22,0,2.21.99,2.21,2.2s-.99,2.21-2.21,2.21-2.2-.99-2.2-2.21.98-2.2,2.2-2.2Z"/>
        <circle class="st4" cx="574.47" cy="1003.6" r="1.58"/>
        <path class="st4" d="M574.47,1005.18c.87,0,1.58-.71,1.58-1.58s-.71-1.58-1.58-1.58-1.58.71-1.58,1.58.71,1.58,1.58,1.58ZM577.41,1003.6c0,1.62-1.32,2.94-2.94,2.94s-2.93-1.32-2.93-2.94,1.31-2.93,2.93-2.93,2.94,1.31,2.94,2.93Z"/>
        <path class="st4" d="M574.47,1020.26c1.22,0,2.21-.99,2.21-2.21s-.99-2.2-2.21-2.2-2.2.99-2.2,2.2.98,2.21,2.2,2.21ZM593.16,1012v-16.22c0-.62-.37-1.12-.83-1.12h-35.72c-.45,0-.82.5-.82,1.12v16.22c0,.62.37,1.12.82,1.12h35.72c.46,0,.83-.5.83-1.12ZM593.81,1022.35h-38.85v-27.68c0-.62.37-1.11.83-1.11h37.37c.36,0,.65.49.65,1.11v27.68Z"/>
      </g>
      <g>
        <path class="st2" d="M571.54,1003.6c0-1.62,1.31-2.93,2.93-2.93s2.94,1.31,2.94,2.93-1.32,2.94-2.94,2.94-2.93-1.32-2.93-2.94Z"/>
        <circle class="st2" cx="574.47" cy="1003.6" r="1.58"/>
        <path class="st2" d="M593.16,1012v-16.22c0-.62-.37-1.12-.83-1.12h-35.72c-.45,0-.82.5-.82,1.12v16.22c0,.62.37,1.12.82,1.12h35.72c.46,0,.83-.5.83-1.12Z"/>
        <path class="st2" d="M554.96,1013.79v8.56"/>
        <path class="st2" d="M593.81,1022.35v-27.68c0-.62-.29-1.11-.65-1.11h-37.37c-.46,0-.83.49-.83,1.11v8.77"/>
        <line class="st2" x1="554.96" y1="1013.79" x2="554.96" y2="1003.44"/>
        <line class="st2" x1="564.87" y1="993.53" x2="583.33" y2="993.53"/>
        <path class="st2" d="M572.27,1018.05c0-1.21.98-2.2,2.2-2.2s2.21.99,2.21,2.2-.99,2.21-2.21,2.21-2.2-.99-2.2-2.21Z"/>
      </g>
    </g>
    <line class="st2" x1="599.21" y1="844.06" x2="463.7" y2="877.83"/>
    <line class="st2" x1="599.21" y1="877.83" x2="463.7" y2="844.06"/>
    <g>
      <rect class="st4" x="580.94" y="1035.91" width="101.75" height="55.25" transform="translate(1695.35 431.72) rotate(90)"/>
      <g>
        <rect class="st2" x="608.5" y="1017.18" width="46.44" height="46.6"/>
        <rect class="st2" x="616.21" y="1024.89" width="31.01" height="31.01"/>
        <rect class="st2" x="608.5" y="1084.71" width="45.99" height="26.81"/>
        <line class="st2" x1="649.12" y1="1097.71" x2="636.94" y2="1097.71"/>
        <line class="st2" x1="626.05" y1="1097.71" x2="613.86" y2="1097.71"/>
        <line class="st2" x1="642.95" y1="1091.7" x2="642.95" y2="1103.89"/>
        <line class="st2" x1="619.96" y1="1091.7" x2="619.96" y2="1103.89"/>
        <rect class="st2" x="604.19" y="1012.66" width="55.25" height="101.75"/>
        <line class="st2" x1="611.25" y1="1040.48" x2="623.72" y2="1040.48"/>
      </g>
    </g>
    <g>
      <path class="st4" d="M518.06,883.24c0,8.24,0,16.48-.02,24.73,0,9.51-6.85,17.21-15.3,17.2-8.45,0-15.28-7.71-15.27-17.22,0-8.25,0-16.49,0-24.73,10.19.01,20.39.02,30.58.02Z"/>
      <path class="st2" d="M518.06,883.24c0,8.24,0,16.48-.02,24.73,0,9.51-6.85,17.21-15.3,17.2-8.45,0-15.28-7.71-15.27-17.22,0-8.25,0-16.49,0-24.73,10.19.01,20.39.02,30.58.02Z"/>
    </g>
    <line class="st2" x1="549.69" y1="883.23" x2="549.69" y2="884.13"/>
    <line class="st2" x1="577.15" y1="884.13" x2="577.15" y2="883.23"/>
    <line class="st2" x1="582.11" y1="884.13" x2="582.11" y2="885.48"/>
    <line class="st2" x1="544.74" y1="884.13" x2="582.11" y2="884.13"/>
    <line class="st2" x1="544.74" y1="885.48" x2="544.74" y2="884.13"/>
    <line class="st2" x1="582.11" y1="885.48" x2="544.74" y2="885.48"/>
    <polyline class="st2" points="603.72 962.92 603.72 966.07 673.95 966.07"/>
    <line class="st2" x1="723.92" y1="1101.13" x2="724" y2="1101.13"/>
    <polyline class="st2" points="724 1101.13 723.92 1101.13 723.92 1104.73 802.71 1104.73 802.71 1101.13"/>
    <line class="st2" x1="802.71" y1="1101.13" x2="802.71" y2="1104.73"/>
    <line class="st2" x1="802.71" y1="1101.13" x2="802.71" y2="1025.94"/>
    <line class="st2" x1="603.72" y1="895.83" x2="603.72" y2="962.92"/>
    <line class="st2" x1="603.72" y1="876.93" x2="603.72" y2="877.83"/>
    <line class="st2" x1="603.72" y1="844.06" x2="603.72" y2="844.96"/>
    <line class="st2" x1="601.46" y1="876.93" x2="601.46" y2="844.96"/>
    <line class="st2" x1="601.46" y1="844.96" x2="603.72" y2="844.96"/>
    <line class="st2" x1="603.72" y1="844.96" x2="603.72" y2="876.93"/>
    <line class="st2" x1="603.72" y1="876.93" x2="601.46" y2="876.93"/>
    <line class="st2" x1="603.72" y1="962.92" x2="603.72" y2="895.83"/>
    <line class="st2" x1="603.72" y1="962.92" x2="603.72" y2="966.07"/>
    <line class="st2" x1="603.72" y1="966.07" x2="673.95" y2="966.07"/>
    <path class="st2" d="M673.95,966.07c0-18.46-7.2-36.47-20.71-49.52-13.06-13.06-30.61-20.71-49.52-20.71"/>
    <line class="st2" x1="599.21" y1="877.83" x2="599.21" y2="844.06"/>
    <g>
      <g>
        <path class="st4" d="M724.15,768.78c.9,0,2.25-.46,2.7-1.36,0-.45,0-1.35-.45-1.35-4.51-2.7-8.11-6.75-9.91-11.7h36.92c-1.8,4.95-5.4,9-9.91,11.7-.45,0-.9.9-.45,1.35.45.9,1.36,1.36,2.71,1.36.9-.91,2.25-1.36,3.6-2.26h1.8v.9c-9.46,6.76-22.96,6.76-32.87,0q0-.45.45-.9h1.8c1.35.9,2.26,1.35,3.61,2.26Z"/>
        <polygon class="st4" points="716.49 754.37 709.29 754.37 709.29 686.39 716.49 686.39 753.41 686.39 760.16 686.39 760.16 754.37 753.41 754.37 716.49 754.37"/>
        <path class="st4" d="M753.41,686.39h-36.92c1.8-4.96,5.4-9.01,9.91-11.26.45-.45.45-.9.45-1.35-.45-.9-1.8-1.35-2.7-1.35-1.35.45-2.26,1.35-3.61,1.8h-1.8q-.45,0-.45-.45c9.91-7.2,23.41-7.2,32.87,0v.45h-1.8c-1.35-.45-2.7-1.35-3.6-1.8-1.35,0-2.26.45-2.71,1.35-.45.45,0,.9.45,1.35,4.51,2.25,8.11,6.3,9.91,11.26Z"/>
      </g>
      <g>
        <path class="st2" d="M751.16,673.78c-9.46-7.2-22.96-7.2-32.87,0"/>
        <path class="st2" d="M726.4,675.13c-4.51,2.25-8.11,6.3-9.91,11.26"/>
        <path class="st2" d="M726.4,675.13c.45-.45.45-.9.45-1.35"/>
        <path class="st2" d="M724.15,672.43c-1.35.45-2.26,1.35-3.61,1.8"/>
        <path class="st2" d="M726.85,673.78c-.45-.9-1.8-1.35-2.7-1.35"/>
        <path class="st2" d="M718.29,673.78q0,.45.45.45"/>
        <path class="st2" d="M718.74,674.23h.9"/>
        <path class="st2" d="M719.64,674.23h.9"/>
        <path class="st2" d="M753.41,686.39c-1.8-4.96-5.4-9.01-9.91-11.26"/>
        <path class="st2" d="M743.05,673.78c-.45.45,0,.9.45,1.35"/>
        <path class="st2" d="M749.36,674.23c-1.35-.45-2.7-1.35-3.6-1.8"/>
        <path class="st2" d="M745.76,672.43c-1.35,0-2.26.45-2.71,1.35"/>
        <path class="st2" d="M751.16,674.23v-.45"/>
        <line class="st2" x1="749.81" y1="674.23" x2="751.16" y2="674.23"/>
        <line class="st2" x1="749.36" y1="674.23" x2="749.81" y2="674.23"/>
        <line class="st2" x1="709.29" y1="754.37" x2="709.29" y2="686.39"/>
        <polyline class="st2" points="709.29 754.37 716.49 754.37 753.41 754.37 760.16 754.37"/>
        <polyline class="st2" points="760.16 686.39 753.41 686.39 716.49 686.39 709.29 686.39"/>
        <line class="st2" x1="760.16" y1="754.37" x2="760.16" y2="686.39"/>
        <path class="st2" d="M718.29,767.42c9.91,6.76,23.41,6.76,32.87,0"/>
        <path class="st2" d="M716.49,754.37c1.8,4.95,5.4,9,9.91,11.7"/>
        <path class="st2" d="M726.85,767.42c0-.45,0-1.35-.45-1.35"/>
        <path class="st2" d="M720.54,766.52c1.35.9,2.26,1.35,3.61,2.26"/>
        <path class="st2" d="M724.15,768.78c.9,0,2.25-.46,2.7-1.36"/>
        <path class="st2" d="M718.74,766.52q-.45.45-.45.9"/>
        <path class="st2" d="M719.64,766.52h-.9"/>
        <path class="st2" d="M720.54,766.52h-.9"/>
        <path class="st2" d="M743.5,766.07c4.51-2.7,8.11-6.75,9.91-11.7"/>
        <path class="st2" d="M743.5,766.07c-.45,0-.9.9-.45,1.35"/>
        <path class="st2" d="M745.76,768.78c.9-.91,2.25-1.36,3.6-2.26"/>
        <path class="st2" d="M743.05,767.42c.45.9,1.36,1.36,2.71,1.36"/>
        <path class="st2" d="M751.16,767.42v-.9"/>
        <line class="st2" x1="751.16" y1="766.52" x2="749.81" y2="766.52"/>
        <line class="st2" x1="749.81" y1="766.52" x2="749.36" y2="766.52"/>
      </g>
    </g>
    <line class="st2" x1="597.41" y1="839.11" x2="463.7" y2="839.11"/>
    <line class="st2" x1="597.86" y1="1028.65" x2="597.86" y2="1121.39"/>
    <line class="st2" x1="809.01" y1="1121.39" x2="597.86" y2="1121.39"/>
  </g>
</svg>