<?xml version="1.0" encoding="UTF-8"?>
<svg xmlns="http://www.w3.org/2000/svg" version="1.1" viewBox="0 0 1200 1697.14">
  <!-- Generator: Adobe Illustrator 29.6.0, SVG Export Plug-In . SVG Version: 2.1.1 Build 207)  -->
  <defs>
    <style>
      .st0, .st1 {
        stroke: #0d101f;
      }

      .st0, .st1, .st2, .st3, .st4 {
        stroke-linecap: round;
        stroke-linejoin: round;
        stroke-width: .15px;
      }

      .st0, .st2, .st5 {
        fill: #fff;
      }

      .st1, .st3, .st4 {
        fill: none;
      }

      .st2, .st3 {
        stroke: #1d1d1b;
      }

      .st6 {
        fill: #383037;
      }

      .st4 {
        stroke: #11100e;
      }

      .st7 {
        fill: #f2efed;
      }
    </style>
  </defs>
  <g id="sfondo">
    <g>
      <polygon class="st7" points="763.03 710.58 763.03 1117.12 576.64 1117.12 570.34 1122.97 549.18 1122.97 548.28 1122.97 548.28 1110.82 549.18 1110.82 627.07 1110.82 627.07 1058.59 627.07 1057.69 633.37 1057.69 633.37 1058.59 633.37 1096.41 633.37 1110.82 756.73 1110.82 756.73 1109.69 756.73 1043.37 756.73 972.6 633.37 972.6 633.37 981.16 633.37 982.51 627.07 982.51 627.07 981.16 627.07 967.2 633.37 967.2 756.73 967.2 756.73 932.08 633.82 932.08 627.07 932.08 627.07 926.23 633.37 926.23 633.82 926.23 756.73 926.23 756.73 750.65 745.47 750.65 715.31 750.65 715.31 623.24 674.34 623.24 674.34 592.18 674.34 583.17 754.93 583.17 754.93 710.58 763.03 710.58"/>
      <polygon class="st7" points="627.07 967.2 627.07 981.16 627.07 982.51 633.37 982.51 633.37 981.16 633.37 972.6 756.73 972.6 756.73 1043.37 756.73 1109.69 756.73 1110.82 633.37 1110.82 633.37 1096.41 633.37 1058.59 633.37 1057.69 627.07 1057.69 627.07 1058.59 627.07 1110.82 549.18 1110.82 548.28 1110.82 548.28 1122.97 464.54 1122.97 464.54 1110.82 463.19 1110.82 452.39 1110.82 452.39 623.24 489.3 623.24 489.3 583.17 674.34 583.17 674.34 592.18 674.34 623.24 715.31 623.24 715.31 750.65 745.47 750.65 756.73 750.65 756.73 926.23 633.82 926.23 633.37 926.23 627.07 926.23 627.07 932.08 633.82 932.08 756.73 932.08 756.73 967.2 633.37 967.2 627.07 967.2"/>
      <polygon class="st7" points="489.3 583.17 489.3 623.24 452.39 623.24 452.39 1110.82 463.19 1110.82 464.54 1110.82 464.54 1122.97 463.19 1122.97 446.53 1122.97 446.53 583.17 489.3 583.17"/>
    </g>
  </g>
  <g id="letto">
    <g>
      <g>
        <polygon class="st5" points="676.55 754.62 676.55 754.18 754.06 754.18 754.06 902.46 753.08 901.97 753.08 754.62 676.55 754.62"/>
        <path class="st5" d="M676.55,864.1v-109.48h76.53v147.35l-17.01-8.41c-7.31-3.62-13.36-6.61-18.37-9.09l-2.63-1.3c-5.59-2.77-9.73-4.82-12.79-6.34l-1.16-.57-7.56-3.74-17.01-8.42Z"/>
        <path class="st5" d="M676.55,924.7v-60.6l17.01,8.42v30.18c0,1.94,1.56,3.51,3.5,3.51h35.51c1.94,0,3.5-1.57,3.5-3.51v-9.14l17.01,8.41v22.73h-76.53Z"/>
        <path class="st5" d="M693.56,902.7v-30.18l7.56,3.74c.37.19.75.38,1.16.57,3.06,1.52,7.2,3.57,12.79,6.34.85.41,1.72.85,2.63,1.3,5.01,2.48,11.06,5.47,18.37,9.09v9.14c0,1.94-1.56,3.51-3.5,3.51h-35.51c-1.94,0-3.5-1.57-3.5-3.51Z"/>
      </g>
      <g>
        <polyline class="st1" points="753.08 901.97 753.08 924.7 676.55 924.7 676.55 864.1"/>
        <polyline class="st1" points="736.07 893.56 753.08 901.97 754.06 902.46 754.06 754.18 676.55 754.18 676.55 754.62 676.55 864.1 693.56 872.52"/>
        <line class="st1" x1="715.07" y1="883.17" x2="717.7" y2="884.47"/>
        <line class="st1" x1="701.12" y1="876.26" x2="702.28" y2="876.83"/>
        <line class="st1" x1="732.57" y1="906.21" x2="697.06" y2="906.21"/>
        <path class="st1" d="M697.06,906.21c-1.94,0-3.5-1.57-3.5-3.51"/>
        <path class="st1" d="M736.07,902.7c0,1.94-1.56,3.51-3.5,3.51"/>
        <path class="st1" d="M736.07,902.7v-9.14c-7.31-3.62-13.36-6.61-18.37-9.09-.91-.45-1.78-.89-2.63-1.3-5.59-2.77-9.73-4.82-12.79-6.34-.41-.19-.79-.38-1.16-.57l-7.56-3.74v30.18"/>
      </g>
    </g>
    <rect class="st0" x="633.14" y="889.78" width="32.87" height="32.87" transform="translate(1555.78 256.63) rotate(90)"/>
    <g>
      <rect class="st5" x="571.38" y="1058.47" width="55.54" height="55.15"/>
      <line class="st4" x1="626.92" y1="1113.63" x2="626.92" y2="1112.45"/>
      <line class="st4" x1="626.92" y1="1109.71" x2="626.92" y2="1106.98"/>
      <line class="st4" x1="626.92" y1="1104.24" x2="626.92" y2="1101.5"/>
      <line class="st4" x1="626.92" y1="1098.76" x2="626.92" y2="1095.63"/>
      <line class="st4" x1="626.92" y1="1092.89" x2="626.92" y2="1090.16"/>
      <line class="st4" x1="626.92" y1="1087.42" x2="626.92" y2="1084.68"/>
      <line class="st4" x1="626.92" y1="1081.94" x2="626.92" y2="1079.21"/>
      <line class="st4" x1="626.92" y1="1076.47" x2="626.92" y2="1073.73"/>
      <line class="st4" x1="626.92" y1="1070.99" x2="626.92" y2="1068.25"/>
      <line class="st4" x1="626.92" y1="1065.12" x2="626.92" y2="1062.39"/>
      <line class="st4" x1="626.92" y1="1059.65" x2="626.92" y2="1058.47"/>
      <line class="st4" x1="626.92" y1="1058.47" x2="625.36" y2="1058.47"/>
      <line class="st4" x1="622.62" y1="1058.47" x2="619.88" y2="1058.47"/>
      <line class="st4" x1="617.15" y1="1058.47" x2="614.41" y2="1058.47"/>
      <line class="st4" x1="611.67" y1="1058.47" x2="608.93" y2="1058.47"/>
      <line class="st4" x1="606.19" y1="1058.47" x2="603.46" y2="1058.47"/>
      <line class="st4" x1="600.72" y1="1058.47" x2="597.59" y2="1058.47"/>
      <line class="st4" x1="594.85" y1="1058.47" x2="592.11" y2="1058.47"/>
      <line class="st4" x1="589.37" y1="1058.47" x2="586.64" y2="1058.47"/>
      <line class="st4" x1="583.9" y1="1058.47" x2="581.16" y2="1058.47"/>
      <line class="st4" x1="578.42" y1="1058.47" x2="575.68" y2="1058.47"/>
      <line class="st4" x1="572.95" y1="1058.47" x2="571.38" y2="1058.47"/>
      <line class="st4" x1="571.38" y1="1058.47" x2="571.38" y2="1059.65"/>
      <line class="st4" x1="571.38" y1="1062.39" x2="571.38" y2="1065.12"/>
      <line class="st4" x1="571.38" y1="1068.25" x2="571.38" y2="1070.99"/>
      <line class="st4" x1="571.38" y1="1073.73" x2="571.38" y2="1076.47"/>
      <line class="st4" x1="571.38" y1="1079.21" x2="571.38" y2="1081.94"/>
      <line class="st4" x1="571.38" y1="1084.68" x2="571.38" y2="1087.42"/>
      <line class="st4" x1="571.38" y1="1090.16" x2="571.38" y2="1092.89"/>
      <line class="st4" x1="571.38" y1="1095.63" x2="571.38" y2="1098.76"/>
      <line class="st4" x1="571.38" y1="1101.5" x2="571.38" y2="1104.24"/>
      <line class="st4" x1="571.38" y1="1106.98" x2="571.38" y2="1109.71"/>
      <line class="st4" x1="571.38" y1="1112.45" x2="571.38" y2="1113.63"/>
      <path class="st4" d="M626.92,1058.47"/>
      <line class="st4" x1="626.92" y1="1058.47" x2="626.92" y2="1059.65"/>
      <line class="st4" x1="626.92" y1="1062.39" x2="626.92" y2="1065.12"/>
      <line class="st4" x1="626.92" y1="1068.25" x2="626.92" y2="1070.99"/>
      <line class="st4" x1="626.92" y1="1073.73" x2="626.92" y2="1076.47"/>
      <line class="st4" x1="626.92" y1="1079.21" x2="626.92" y2="1081.94"/>
      <line class="st4" x1="626.92" y1="1084.68" x2="626.92" y2="1087.42"/>
      <line class="st4" x1="626.92" y1="1090.16" x2="626.92" y2="1092.89"/>
      <line class="st4" x1="626.92" y1="1095.63" x2="626.92" y2="1098.76"/>
      <line class="st4" x1="626.92" y1="1101.5" x2="626.92" y2="1104.24"/>
      <line class="st4" x1="626.92" y1="1106.98" x2="626.92" y2="1109.71"/>
      <line class="st4" x1="626.92" y1="1112.45" x2="626.92" y2="1113.63"/>
    </g>
  </g>
  <g id="bianchi">
    <rect class="st5" x="489.3" y="583.17" width="187.56" height="21.16"/>
    <rect class="st5" x="654.53" y="972.6" width="27.46" height="1.35"/>
    <rect class="st5" x="649.57" y="973.95" width="37.37" height="1.8"/>
    <rect class="st5" x="687.95" y="1042.77" width="71.82" height="70.72"/>
    <rect class="st5" x="464.54" y="1110.81" width="92.29" height="25.64"/>
  </g>
  <g id="Livello_1">
    <path class="st3" d="M627.06,984.75c-18.46,0-36.47,7.65-49.52,20.71-13.51,13.06-20.71,31.06-20.71,49.52"/>
    <line class="st3" x1="627.06" y1="1051.83" x2="627.06" y2="1054.99"/>
    <line class="st3" x1="627.06" y1="1054.99" x2="556.83" y2="1054.99"/>
    <line class="st3" x1="627.06" y1="1051.83" x2="627.06" y2="984.75"/>
    <path class="st3" d="M545.58,1110.81c0-20.71-8.1-40.97-22.96-55.38-14.86-14.86-34.67-23.41-55.83-23.41"/>
    <line class="st3" x1="470.39" y1="1110.81" x2="466.79" y2="1110.81"/>
    <line class="st3" x1="466.79" y1="1110.81" x2="466.79" y2="1032.02"/>
    <line class="st3" x1="732.86" y1="967.19" x2="702.25" y2="967.19"/>
    <line class="st3" x1="627.06" y1="1051.83" x2="627.06" y2="984.75"/>
    <line class="st3" x1="629.31" y1="965.39" x2="629.31" y2="933.43"/>
    <line class="st3" x1="629.31" y1="933.43" x2="627.06" y2="933.43"/>
    <line class="st3" x1="627.06" y1="933.43" x2="627.06" y2="965.39"/>
    <line class="st3" x1="627.06" y1="965.39" x2="629.31" y2="965.39"/>
    <line class="st3" x1="627.06" y1="966.29" x2="627.06" y2="965.39"/>
    <line class="st3" x1="627.06" y1="933.43" x2="627.06" y2="932.08"/>
    <rect class="st5" x="426.04" y="912.97" width="101.75" height="54.26" transform="translate(1417.01 463.19) rotate(90)"/>
    <rect class="st3" x="455.15" y="893.75" width="46.44" height="46.6"/>
    <rect class="st3" x="462.87" y="901.46" width="31.01" height="31.01"/>
    <rect class="st3" x="455.15" y="961.28" width="45.99" height="26.81"/>
    <line class="st3" x1="495.78" y1="974.28" x2="483.59" y2="974.28"/>
    <line class="st3" x1="472.7" y1="974.28" x2="460.52" y2="974.28"/>
    <line class="st3" x1="466.69" y1="968.27" x2="466.69" y2="980.46"/>
    <line class="st3" x1="489.6" y1="968.27" x2="489.6" y2="980.46"/>
    <line class="st3" x1="457.91" y1="917.05" x2="470.38" y2="917.05"/>
    <line class="st3" x1="504.04" y1="990.98" x2="504.04" y2="889.23"/>
    <line class="st3" x1="504.04" y1="889.23" x2="452.71" y2="889.23"/>
    <line class="st3" x1="504.04" y1="990.98" x2="452.71" y2="990.98"/>
    <g>
      <path class="st5" d="M732.89,972.57v24.73c0,9.51-6.84,17.21-15.29,17.21s-15.29-7.7-15.29-17.21v-24.73h30.58Z"/>
      <path class="st3" d="M732.89,972.57v24.73c0,9.51-6.84,17.21-15.29,17.21s-15.29-7.7-15.29-17.21v-24.73h30.58Z"/>
    </g>
    <polyline class="st3" points="687.95 1110.81 687.95 1042.77 696.1 1042.77"/>
    <polyline class="st3" points="755.71 1042.77 756.72 1042.77 756.72 1043.37"/>
    <line class="st3" x1="755.71" y1="1042.77" x2="696.1" y2="1042.77"/>
    <line class="st3" x1="722.07" y1="1110.81" x2="722.07" y2="1091.91"/>
    <circle class="st3" cx="722.16" cy="1092" r="4.23"/>
    <circle class="st3" cx="722.16" cy="1092" r="4.23"/>
    <line class="st3" x1="649.57" y1="975.75" x2="686.94" y2="975.75"/>
    <line class="st3" x1="686.94" y1="975.75" x2="686.94" y2="973.95"/>
    <line class="st3" x1="686.94" y1="973.95" x2="649.57" y2="973.95"/>
    <line class="st3" x1="649.57" y1="973.95" x2="649.57" y2="975.75"/>
    <line class="st3" x1="654.53" y1="973.95" x2="654.53" y2="972.6"/>
    <line class="st3" x1="681.99" y1="972.6" x2="681.99" y2="973.95"/>
    <line class="st3" x1="633.82" y1="967.19" x2="756.72" y2="932.08"/>
    <line class="st3" x1="633.82" y1="932.08" x2="756.72" y2="967.19"/>
    <line class="st3" x1="627.06" y1="932.08" x2="633.82" y2="932.08"/>
    <line class="st3" x1="633.82" y1="967.19" x2="633.82" y2="932.08"/>
    <line class="st3" x1="633.82" y1="932.08" x2="633.82" y2="967.19"/>
    <polyline class="st3" points="627.06 966.29 627.06 967.19 633.37 967.19"/>
    <polyline class="st3" points="556.83 1054.99 627.06 1054.99 627.06 1051.83"/>
    <line class="st3" x1="627.06" y1="933.43" x2="629.31" y2="933.43"/>
    <line class="st3" x1="470.39" y1="1110.81" x2="545.58" y2="1110.81"/>
    <line class="st3" x1="470.39" y1="1110.81" x2="545.58" y2="1110.81"/>
    <polyline class="st3" points="466.79 1032.02 466.79 1110.81 470.39 1110.81"/>
    <line class="st3" x1="674.34" y1="592.17" x2="672.98" y2="592.17"/>
    <line class="st3" x1="582.49" y1="592.17" x2="581.14" y2="592.17"/>
    <line class="st3" x1="490.65" y1="592.17" x2="489.3" y2="592.17"/>
    <line class="st3" x1="665.33" y1="592.17" x2="665.33" y2="596.22"/>
    <line class="st3" x1="590.15" y1="592.17" x2="665.33" y2="592.17"/>
    <line class="st3" x1="590.15" y1="596.22" x2="590.15" y2="592.17"/>
    <line class="st3" x1="665.33" y1="596.22" x2="590.15" y2="596.22"/>
    <line class="st3" x1="586.54" y1="604.33" x2="668.93" y2="604.33"/>
    <line class="st3" x1="665.33" y1="591.72" x2="590.15" y2="591.72"/>
    <line class="st3" x1="665.33" y1="598.47" x2="590.15" y2="598.47"/>
    <line class="st3" x1="672.98" y1="591.72" x2="672.98" y2="604.33"/>
    <line class="st3" x1="665.33" y1="591.72" x2="672.98" y2="591.72"/>
    <line class="st3" x1="665.33" y1="598.47" x2="665.33" y2="591.72"/>
    <line class="st3" x1="668.93" y1="598.47" x2="665.33" y2="598.47"/>
    <line class="st3" x1="668.93" y1="604.33" x2="668.93" y2="598.47"/>
    <line class="st3" x1="672.98" y1="604.33" x2="668.93" y2="604.33"/>
    <line class="st3" x1="586.54" y1="598.47" x2="586.54" y2="604.33"/>
    <line class="st3" x1="590.15" y1="598.47" x2="586.54" y2="598.47"/>
    <line class="st3" x1="590.15" y1="591.72" x2="590.15" y2="598.47"/>
    <line class="st3" x1="582.49" y1="591.72" x2="590.15" y2="591.72"/>
    <line class="st3" x1="582.49" y1="604.33" x2="582.49" y2="591.72"/>
    <line class="st3" x1="586.54" y1="604.33" x2="582.49" y2="604.33"/>
    <line class="st3" x1="582.49" y1="591.72" x2="672.98" y2="591.72"/>
    <line class="st3" x1="671.18" y1="591.72" x2="584.29" y2="591.72"/>
    <line class="st3" x1="670.28" y1="591.72" x2="584.74" y2="591.72"/>
    <line class="st3" x1="590.15" y1="591.72" x2="665.33" y2="591.72"/>
    <line class="st3" x1="665.33" y1="591.72" x2="590.15" y2="591.72"/>
    <line class="st3" x1="577.09" y1="592.17" x2="577.09" y2="596.22"/>
    <line class="st3" x1="494.7" y1="592.17" x2="577.09" y2="592.17"/>
    <line class="st3" x1="494.7" y1="596.22" x2="494.7" y2="592.17"/>
    <line class="st3" x1="577.09" y1="596.22" x2="494.7" y2="596.22"/>
    <line class="st3" x1="494.7" y1="604.33" x2="577.09" y2="604.33"/>
    <line class="st3" x1="577.09" y1="591.72" x2="494.7" y2="591.72"/>
    <line class="st3" x1="494.7" y1="591.72" x2="494.7" y2="604.33"/>
    <line class="st3" x1="490.65" y1="591.72" x2="494.7" y2="591.72"/>
    <line class="st3" x1="490.65" y1="604.33" x2="490.65" y2="591.72"/>
    <line class="st3" x1="494.7" y1="604.33" x2="490.65" y2="604.33"/>
    <line class="st3" x1="581.14" y1="591.72" x2="581.14" y2="604.33"/>
    <line class="st3" x1="577.09" y1="591.72" x2="581.14" y2="591.72"/>
    <line class="st3" x1="577.09" y1="604.33" x2="577.09" y2="591.72"/>
    <line class="st3" x1="581.14" y1="604.33" x2="577.09" y2="604.33"/>
    <line class="st3" x1="633.37" y1="972.6" x2="633.37" y2="973.5"/>
    <line class="st3" x1="763.03" y1="1117.11" x2="576.64" y2="1117.11"/>
    <g>
      <g>
        <path class="st5" d="M680.32,1083.13v27.68h-38.85v-27.68c0-.61.37-1.11.83-1.11h37.36c.37,0,.66.5.66,1.11ZM679.66,1100.47v-16.22c0-.62-.36-1.12-.82-1.12h-35.72c-.45,0-.82.5-.82,1.12v16.22c0,.62.37,1.11.82,1.11h35.72c.46,0,.82-.49.82-1.11ZM663.18,1106.52c0-1.22-.98-2.2-2.2-2.2s-2.2.98-2.2,2.2.98,2.21,2.2,2.21,2.2-.99,2.2-2.21Z"/>
        <path class="st5" d="M679.66,1084.25v16.22c0,.62-.36,1.11-.82,1.11h-35.72c-.45,0-.82-.49-.82-1.11v-16.22c0-.62.37-1.12.82-1.12h35.72c.46,0,.82.5.82,1.12ZM663.91,1092.07c0-1.62-1.31-2.94-2.93-2.94s-2.93,1.32-2.93,2.94,1.31,2.93,2.93,2.93,2.93-1.31,2.93-2.93Z"/>
        <path class="st5" d="M660.98,1089.13c1.62,0,2.93,1.32,2.93,2.94s-1.31,2.93-2.93,2.93-2.93-1.31-2.93-2.93,1.31-2.94,2.93-2.94ZM662.56,1092.07c0-.87-.71-1.58-1.58-1.58s-1.58.71-1.58,1.58.71,1.58,1.58,1.58,1.58-.71,1.58-1.58Z"/>
        <path class="st5" d="M660.98,1104.32c1.22,0,2.2.98,2.2,2.2s-.98,2.21-2.2,2.21-2.2-.99-2.2-2.21.98-2.2,2.2-2.2Z"/>
        <circle class="st5" cx="660.98" cy="1092.07" r="1.58"/>
      </g>
      <g>
        <path class="st3" d="M658.78,1106.52c0-1.22.98-2.2,2.2-2.2s2.2.98,2.2,2.2-.98,2.21-2.2,2.21-2.2-.99-2.2-2.21Z"/>
        <path class="st3" d="M658.05,1092.07c0-1.62,1.31-2.94,2.93-2.94s2.93,1.32,2.93,2.94-1.31,2.93-2.93,2.93-2.93-1.31-2.93-2.93Z"/>
        <circle class="st3" cx="660.98" cy="1092.07" r="1.58"/>
        <path class="st3" d="M679.66,1100.47v-16.22c0-.62-.36-1.12-.82-1.12h-35.72c-.45,0-.82.5-.82,1.12v16.22c0,.62.37,1.11.82,1.11h35.72c.46,0,.82-.49.82-1.11Z"/>
        <path class="st3" d="M641.47,1102.26v8.55"/>
        <path class="st3" d="M680.32,1110.81v-27.68c0-.61-.29-1.11-.66-1.11h-37.36c-.46,0-.83.5-.83,1.11v8.78"/>
        <line class="st3" x1="641.47" y1="1102.26" x2="641.47" y2="1091.91"/>
        <line class="st3" x1="651.38" y1="1082" x2="669.84" y2="1082"/>
        <line class="st3" x1="641.47" y1="1110.81" x2="680.32" y2="1110.81"/>
      </g>
    </g>
    <g>
      <polygon class="st6" points="763.02 710.58 763.02 1117.12 576.64 1117.12 570.33 1122.97 549.17 1122.97 548.27 1122.97 548.27 1110.81 549.17 1110.81 627.06 1110.81 627.06 1058.59 627.06 1057.69 633.36 1057.69 633.36 1058.59 633.36 1096.41 633.36 1110.81 756.72 1110.81 756.72 1109.69 756.72 1043.37 756.72 972.6 633.36 972.6 633.36 981.15 633.36 982.51 627.06 982.51 627.06 981.15 627.06 967.2 633.36 967.2 756.72 967.2 756.72 932.08 633.81 932.08 627.06 932.08 627.06 926.23 633.36 926.23 633.81 926.23 756.72 926.23 756.72 750.65 745.47 750.65 715.3 750.65 715.3 623.24 674.33 623.24 674.33 592.17 674.33 583.17 754.92 583.17 754.92 710.58 763.02 710.58"/>
      <polygon class="st6" points="489.3 583.17 489.3 623.24 452.38 623.24 452.38 1110.81 463.19 1110.81 464.54 1110.81 464.54 1122.97 463.19 1122.97 446.53 1122.97 446.53 583.17 489.3 583.17"/>
    </g>
    <g>
      <g>
        <g>
          <path class="st5" d="M496.56,785.07c-8.87,3.87-19.72,2.96-28.04-2.72q0-.45.45-.9h1.8c1.35.9,2.26,1.35,3.61,2.26.9,0,2.25-.46,2.7-1.36,0-.45,0-1.35-.45-1.35-4.51-2.7-8.11-6.75-9.91-11.7h36.92c-1.8,4.95-5.4,9-9.91,11.7-.45,0-.9.9-.45,1.35.45.9,1.36,1.36,2.71,1.36l.57,1.36Z"/>
          <path class="st5" d="M496.56,785.07l-.57-1.36c.9-.91,2.25-1.36,3.6-2.26h1.8v.9c-1.52,1.08-3.14,1.99-4.83,2.72Z"/>
          <polygon class="st5" points="466.72 769.3 459.52 769.3 459.52 701.32 466.72 701.32 503.64 701.32 510.39 701.32 510.39 769.3 503.64 769.3 466.72 769.3"/>
          <path class="st5" d="M503.64,701.32h-36.92c1.8-4.96,5.4-9.01,9.91-11.26.45-.45.45-.9.45-1.35-.45-.9-1.8-1.35-2.7-1.35-1.35.45-2.26,1.35-3.61,1.8h-1.8q-.45,0-.45-.45c9.91-7.2,23.41-7.2,32.87,0v.45h-1.8c-1.35-.45-2.7-1.35-3.6-1.8-1.35,0-2.26.45-2.71,1.35-.45.45,0,.9.45,1.35,4.51,2.25,8.11,6.3,9.91,11.26Z"/>
        </g>
        <g>
          <path class="st3" d="M501.39,688.71c-9.46-7.2-22.96-7.2-32.87,0"/>
          <path class="st3" d="M476.63,690.06c-4.51,2.25-8.11,6.3-9.91,11.26"/>
          <path class="st3" d="M476.63,690.06c.45-.45.45-.9.45-1.35"/>
          <path class="st3" d="M474.38,687.36c-1.35.45-2.26,1.35-3.61,1.8"/>
          <path class="st3" d="M477.08,688.71c-.45-.9-1.8-1.35-2.7-1.35"/>
          <path class="st3" d="M468.52,688.71q0,.45.45.45"/>
          <path class="st3" d="M468.97,689.16h.9"/>
          <path class="st3" d="M469.87,689.16h.9"/>
          <path class="st3" d="M503.64,701.32c-1.8-4.96-5.4-9.01-9.91-11.26"/>
          <path class="st3" d="M493.28,688.71c-.45.45,0,.9.45,1.35"/>
          <path class="st3" d="M499.59,689.16c-1.35-.45-2.7-1.35-3.6-1.8"/>
          <path class="st3" d="M495.99,687.36c-1.35,0-2.26.45-2.71,1.35"/>
          <path class="st3" d="M501.39,689.16v-.45"/>
          <line class="st3" x1="500.04" y1="689.16" x2="501.39" y2="689.16"/>
          <line class="st3" x1="499.59" y1="689.16" x2="500.04" y2="689.16"/>
          <line class="st3" x1="459.52" y1="769.3" x2="459.52" y2="701.32"/>
          <polyline class="st3" points="459.52 769.3 466.72 769.3 503.64 769.3 510.39 769.3"/>
          <polyline class="st3" points="510.39 701.32 503.64 701.32 466.72 701.32 459.52 701.32"/>
          <line class="st3" x1="510.39" y1="769.3" x2="510.39" y2="701.32"/>
          <path class="st3" d="M468.52,782.35c8.32,5.68,19.17,6.59,28.04,2.72,1.69-.73,3.31-1.64,4.83-2.72"/>
          <path class="st3" d="M466.72,769.3c1.8,4.95,5.4,9,9.91,11.7"/>
          <path class="st3" d="M477.08,782.35c0-.45,0-1.35-.45-1.35"/>
          <path class="st3" d="M470.77,781.45c1.35.9,2.26,1.35,3.61,2.26"/>
          <path class="st3" d="M474.38,783.71c.9,0,2.25-.46,2.7-1.36"/>
          <path class="st3" d="M468.97,781.45q-.45.45-.45.9"/>
          <path class="st3" d="M469.87,781.45h-.9"/>
          <path class="st3" d="M470.77,781.45h-.9"/>
          <path class="st3" d="M493.73,781c4.51-2.7,8.11-6.75,9.91-11.7"/>
          <path class="st3" d="M493.73,781c-.45,0-.9.9-.45,1.35"/>
          <path class="st3" d="M495.99,783.71c.9-.91,2.25-1.36,3.6-2.26"/>
          <path class="st3" d="M493.28,782.35c.45.9,1.36,1.36,2.71,1.36"/>
          <path class="st3" d="M501.39,782.35v-.9"/>
          <line class="st3" x1="501.39" y1="781.45" x2="500.04" y2="781.45"/>
          <line class="st3" x1="500.04" y1="781.45" x2="499.59" y2="781.45"/>
        </g>
      </g>
      <g>
        <g>
          <path class="st5" d="M547.86,785.07c-8.87,3.87-19.72,2.96-28.04-2.72q0-.45.45-.9h1.8c1.35.9,2.26,1.36,3.61,2.26.9,0,2.25-.45,2.7-1.36,0-.45,0-1.35-.45-1.35-4.51-2.7-8.11-6.75-9.91-11.7h36.92c-1.8,4.95-5.4,9-9.91,11.7-.45,0-.9.9-.45,1.35.45.91,1.36,1.36,2.71,1.36l.57,1.36Z"/>
          <path class="st5" d="M547.86,785.07l-.57-1.36c.9-.9,2.25-1.36,3.6-2.26h1.8v.9c-1.52,1.08-3.14,1.99-4.83,2.72Z"/>
          <polygon class="st5" points="518.02 769.3 510.82 769.3 510.82 701.32 518.02 701.32 554.94 701.32 561.69 701.32 561.69 769.3 554.94 769.3 518.02 769.3"/>
          <path class="st5" d="M554.94,701.32h-36.92c1.8-4.95,5.4-9.01,9.91-11.26.45-.45.45-.9.45-1.35-.45-.9-1.8-1.35-2.7-1.35-1.35.45-2.26,1.35-3.61,1.8h-1.8q-.45,0-.45-.45c9.91-7.2,23.41-7.2,32.87,0v.45h-1.8c-1.35-.45-2.7-1.35-3.6-1.8-1.35,0-2.26.45-2.71,1.35-.45.45,0,.9.45,1.35,4.51,2.25,8.11,6.31,9.91,11.26Z"/>
        </g>
        <g>
          <path class="st3" d="M552.69,688.71c-9.46-7.2-22.96-7.2-32.87,0"/>
          <path class="st3" d="M527.93,690.06c-4.51,2.25-8.11,6.31-9.91,11.26"/>
          <path class="st3" d="M527.93,690.06c.45-.45.45-.9.45-1.35"/>
          <path class="st3" d="M525.68,687.36c-1.35.45-2.26,1.35-3.61,1.8"/>
          <path class="st3" d="M528.38,688.71c-.45-.9-1.8-1.35-2.7-1.35"/>
          <path class="st3" d="M519.82,688.71q0,.45.45.45"/>
          <path class="st3" d="M520.27,689.16h.9"/>
          <path class="st3" d="M521.17,689.16h.9"/>
          <path class="st3" d="M554.94,701.32c-1.8-4.95-5.4-9.01-9.91-11.26"/>
          <path class="st3" d="M544.58,688.71c-.45.45,0,.9.45,1.35"/>
          <path class="st3" d="M550.89,689.16c-1.35-.45-2.7-1.35-3.6-1.8"/>
          <path class="st3" d="M547.29,687.36c-1.35,0-2.26.45-2.71,1.35"/>
          <path class="st3" d="M552.69,689.16v-.45"/>
          <line class="st3" x1="551.34" y1="689.16" x2="552.69" y2="689.16"/>
          <line class="st3" x1="550.89" y1="689.16" x2="551.34" y2="689.16"/>
          <line class="st3" x1="510.82" y1="769.3" x2="510.82" y2="701.32"/>
          <polyline class="st3" points="510.82 769.3 518.02 769.3 554.94 769.3 561.69 769.3"/>
          <polyline class="st3" points="561.69 701.32 554.94 701.32 518.02 701.32 510.82 701.32"/>
          <line class="st3" x1="561.69" y1="769.3" x2="561.69" y2="701.32"/>
          <path class="st3" d="M519.82,782.35c8.32,5.68,19.17,6.59,28.04,2.72,1.69-.73,3.31-1.64,4.83-2.72"/>
          <path class="st3" d="M518.02,769.3c1.8,4.95,5.4,9,9.91,11.7"/>
          <path class="st3" d="M528.38,782.35c0-.45,0-1.35-.45-1.35"/>
          <path class="st3" d="M522.07,781.45c1.35.9,2.26,1.36,3.61,2.26"/>
          <path class="st3" d="M525.68,783.71c.9,0,2.25-.45,2.7-1.36"/>
          <path class="st3" d="M520.27,781.45q-.45.45-.45.9"/>
          <path class="st3" d="M521.17,781.45h-.9"/>
          <path class="st3" d="M522.07,781.45h-.9"/>
          <path class="st3" d="M545.03,781c4.51-2.7,8.11-6.75,9.91-11.7"/>
          <path class="st3" d="M545.03,781c-.45,0-.9.9-.45,1.35"/>
          <path class="st3" d="M547.29,783.71c.9-.9,2.25-1.36,3.6-2.26"/>
          <path class="st3" d="M544.58,782.35c.45.91,1.36,1.36,2.71,1.36"/>
          <path class="st3" d="M552.69,782.35v-.9"/>
          <line class="st3" x1="552.69" y1="781.45" x2="551.34" y2="781.45"/>
          <line class="st3" x1="551.34" y1="781.45" x2="550.89" y2="781.45"/>
        </g>
      </g>
      <rect class="st2" x="459.52" y="701.32" width="102.18" height="67.98"/>
    </g>
  </g>
</svg>