<?xml version="1.0" encoding="UTF-8"?>
<svg xmlns="http://www.w3.org/2000/svg" version="1.1" viewBox="0 0 1200 1697.14">
  <!-- Generator: Adobe Illustrator 29.6.0, SVG Export Plug-In . SVG Version: 2.1.1 Build 207)  -->
  <defs>
    <style>
      .st0 {
        fill: #302c35;
      }

      .st1 {
        fill: #ece8e5;
      }

      .st2, .st3, .st4, .st5 {
        stroke-linecap: round;
        stroke-linejoin: round;
        stroke-width: .15px;
      }

      .st2, .st3, .st5 {
        fill: none;
      }

      .st2, .st4 {
        stroke: #0c1020;
      }

      .st6, .st4 {
        fill: #fff;
      }

      .st3 {
        stroke: #1d1d1b;
      }

      .st5 {
        stroke: #11100d;
      }
    </style>
  </defs>
  <g id="sfondo">
    <g>
      <polygon class="st1" points="787.95 532.74 828.01 532.74 828.01 579.56 829.81 579.56 829.81 594.87 828.01 594.87 828.01 620.53 787.95 620.53 787.95 549.39 561.49 549.39 561.49 693.46 561.49 694.36 549.33 694.36 549.33 693.46 549.33 614.67 549.33 549.39 549.33 532.74 787.95 532.74"/>
      <polygon class="st1" points="561.49 549.39 787.95 549.39 787.95 620.53 828.01 620.53 828.01 805.11 819.01 805.11 787.95 805.11 787.95 906.41 819.01 906.41 819.91 999.15 787.95 999.15 787.95 1003.2 787.95 1090.99 787.95 1136.47 681.7 1136.47 681.7 980.24 675.39 980.24 647.48 980.24 646.58 980.24 646.58 986.55 647.48 986.55 675.39 986.55 675.39 1136.47 508.37 1136.47 508.37 1051.38 502.96 1051.38 502.96 1136.47 469.2 1136.47 469.2 1011.76 502.96 1011.76 502.96 1017.16 508.37 1017.16 508.37 1008.61 561.49 1008.61 561.49 986.55 570.04 986.55 570.94 986.55 570.94 980.24 570.04 980.24 561.49 980.24 561.49 779 561.49 778.1 549.33 778.1 549.33 694.36 561.49 694.36 561.49 693.46 561.49 549.39"/>
      <polygon class="st1" points="549.33 778.1 561.49 778.1 561.49 779 561.49 980.24 570.04 980.24 570.94 980.24 570.94 986.55 570.04 986.55 561.49 986.55 561.49 1008.61 508.37 1008.61 508.37 1017.16 502.96 1017.16 502.96 1011.76 469.2 1011.76 469.2 1136.47 502.96 1136.47 502.96 1051.38 508.37 1051.38 508.37 1136.47 675.39 1136.47 675.39 986.55 647.48 986.55 646.58 986.55 646.58 980.24 647.48 980.24 675.39 980.24 681.7 980.24 681.7 1136.47 787.95 1136.47 787.95 1090.99 787.95 1003.2 787.95 999.15 819.91 999.15 819.91 1090.99 828.01 1090.99 828.01 1170.68 462.89 1170.68 462.89 1002.3 555.64 1002.3 555.64 791.16 549.33 785.3 549.33 784.85 549.33 779 549.33 778.1"/>
      <polygon class="st1" points="819.01 805.11 828.01 805.11 828.01 906.41 819.01 906.41 787.95 906.41 787.95 805.11 819.01 805.11"/>
    </g>
  </g>
  <g id="numeri">
    <g>
      <g>
        <polygon class="st6" points="734.39 552.14 734.83 552.14 734.83 629.65 586.56 629.65 587.04 628.67 734.39 628.67 734.39 552.14"/>
        <path class="st6" d="M624.91,552.14h109.48v76.53h-147.35l8.42-17.01c7.56-15.28,12.4-25.06,15.5-31.33l.77-1.56c1.1-2.22,1.94-3.93,2.59-5.24l.41-.82c.25-.51.47-.94.65-1.32l.24-.47c.63-1.29.81-1.64.85-1.73l.02-.04,8.42-17.01Z"/>
        <path class="st6" d="M564.31,552.14h60.6l-8.42,17.01h-30.18c-1.93,0-3.5,1.56-3.5,3.5v35.51c0,1.94,1.57,3.5,3.5,3.5h9.15l-8.42,17.01h-22.73v-76.53Z"/>
        <path class="st6" d="M586.31,569.15h30.18l-.02.04c-.04.09-.22.44-.85,1.73-.08.14-.15.3-.24.47-.18.38-.4.81-.65,1.32-.13.25-.26.52-.41.82-.65,1.31-1.49,3.02-2.59,5.24-.24.49-.5,1.01-.77,1.56-3.1,6.27-7.94,16.05-15.5,31.33h-9.15c-1.93,0-3.5-1.56-3.5-3.5v-35.51c0-1.94,1.57-3.5,3.5-3.5Z"/>
      </g>
      <g>
        <polyline class="st2" points="587.04 628.67 564.31 628.67 564.31 552.14 624.91 552.14"/>
        <polyline class="st2" points="595.46 611.66 587.04 628.67 586.56 629.65 734.83 629.65 734.83 552.14 734.39 552.14 624.91 552.14 616.49 569.15 616.47 569.19"/>
        <line class="st2" x1="611.73" y1="578.77" x2="610.96" y2="580.33"/>
        <line class="st2" x1="614.73" y1="572.71" x2="614.32" y2="573.53"/>
        <line class="st2" x1="615.62" y1="570.92" x2="615.38" y2="571.39"/>
        <line class="st2" x1="582.81" y1="608.16" x2="582.81" y2="572.65"/>
        <path class="st2" d="M582.81,572.65c0-1.94,1.57-3.5,3.5-3.5"/>
        <path class="st2" d="M586.31,611.66c-1.93,0-3.5-1.56-3.5-3.5"/>
        <path class="st2" d="M586.31,611.66h9.15c7.56-15.28,12.4-25.06,15.5-31.33.27-.55.53-1.07.77-1.56,1.1-2.22,1.94-3.93,2.59-5.24.15-.3.28-.57.41-.82.25-.51.47-.94.65-1.32.09-.17.16-.33.24-.47.63-1.29.81-1.64.85-1.73l.02-.04h-30.18"/>
      </g>
    </g>
    <g>
      <rect class="st6" x="560.92" y="782.77" width="55.54" height="55.15" transform="translate(1399.04 221.66) rotate(90)"/>
      <line class="st5" x1="561.12" y1="838.12" x2="562.29" y2="838.12"/>
      <line class="st5" x1="565.03" y1="838.12" x2="567.77" y2="838.12"/>
      <line class="st5" x1="570.51" y1="838.12" x2="573.24" y2="838.12"/>
      <line class="st5" x1="575.98" y1="838.12" x2="579.11" y2="838.12"/>
      <line class="st5" x1="581.85" y1="838.12" x2="584.59" y2="838.12"/>
      <line class="st5" x1="587.32" y1="838.12" x2="590.06" y2="838.12"/>
      <line class="st5" x1="592.8" y1="838.12" x2="595.54" y2="838.12"/>
      <line class="st5" x1="598.28" y1="838.12" x2="601.01" y2="838.12"/>
      <line class="st5" x1="603.75" y1="838.12" x2="606.49" y2="838.12"/>
      <line class="st5" x1="609.62" y1="838.12" x2="612.36" y2="838.12"/>
      <line class="st5" x1="615.1" y1="838.12" x2="616.27" y2="838.12"/>
      <line class="st5" x1="616.27" y1="838.12" x2="616.27" y2="836.56"/>
      <line class="st5" x1="616.27" y1="833.82" x2="616.27" y2="831.08"/>
      <line class="st5" x1="616.27" y1="828.34" x2="616.27" y2="825.6"/>
      <line class="st5" x1="616.27" y1="822.87" x2="616.27" y2="820.13"/>
      <line class="st5" x1="616.27" y1="817.39" x2="616.27" y2="814.65"/>
      <line class="st5" x1="616.27" y1="811.91" x2="616.27" y2="808.78"/>
      <line class="st5" x1="616.27" y1="806.05" x2="616.27" y2="803.31"/>
      <line class="st5" x1="616.27" y1="800.57" x2="616.27" y2="797.83"/>
      <line class="st5" x1="616.27" y1="795.09" x2="616.27" y2="792.36"/>
      <line class="st5" x1="616.27" y1="789.62" x2="616.27" y2="786.88"/>
      <line class="st5" x1="616.27" y1="784.14" x2="616.27" y2="782.58"/>
      <line class="st5" x1="616.27" y1="782.58" x2="615.1" y2="782.58"/>
      <line class="st5" x1="612.36" y1="782.58" x2="609.62" y2="782.58"/>
      <line class="st5" x1="606.49" y1="782.58" x2="603.75" y2="782.58"/>
      <line class="st5" x1="601.01" y1="782.58" x2="598.28" y2="782.58"/>
      <line class="st5" x1="595.54" y1="782.58" x2="592.8" y2="782.58"/>
      <line class="st5" x1="590.06" y1="782.58" x2="587.32" y2="782.58"/>
      <line class="st5" x1="584.59" y1="782.58" x2="581.85" y2="782.58"/>
      <line class="st5" x1="579.11" y1="782.58" x2="575.98" y2="782.58"/>
      <line class="st5" x1="573.24" y1="782.58" x2="570.51" y2="782.58"/>
      <line class="st5" x1="567.77" y1="782.58" x2="565.03" y2="782.58"/>
      <line class="st5" x1="562.29" y1="782.58" x2="561.12" y2="782.58"/>
      <path class="st5" d="M616.27,838.12"/>
      <line class="st5" x1="616.27" y1="838.12" x2="615.1" y2="838.12"/>
      <line class="st5" x1="612.36" y1="838.12" x2="609.62" y2="838.12"/>
      <line class="st5" x1="606.49" y1="838.12" x2="603.75" y2="838.12"/>
      <line class="st5" x1="601.01" y1="838.12" x2="598.28" y2="838.12"/>
      <line class="st5" x1="595.54" y1="838.12" x2="592.8" y2="838.12"/>
      <line class="st5" x1="590.06" y1="838.12" x2="587.32" y2="838.12"/>
      <line class="st5" x1="584.59" y1="838.12" x2="581.85" y2="838.12"/>
      <line class="st5" x1="579.11" y1="838.12" x2="575.98" y2="838.12"/>
      <line class="st5" x1="573.24" y1="838.12" x2="570.51" y2="838.12"/>
      <line class="st5" x1="567.77" y1="838.12" x2="565.03" y2="838.12"/>
      <line class="st5" x1="562.29" y1="838.12" x2="561.12" y2="838.12"/>
    </g>
    <g>
      <rect class="st6" x="560.92" y="838.84" width="55.54" height="55.15" transform="translate(1455.11 277.72) rotate(90)"/>
      <line class="st5" x1="561.12" y1="894.19" x2="562.29" y2="894.19"/>
      <line class="st5" x1="565.03" y1="894.19" x2="567.77" y2="894.19"/>
      <line class="st5" x1="570.51" y1="894.19" x2="573.24" y2="894.19"/>
      <line class="st5" x1="575.98" y1="894.19" x2="579.11" y2="894.19"/>
      <line class="st5" x1="581.85" y1="894.19" x2="584.59" y2="894.19"/>
      <line class="st5" x1="587.32" y1="894.19" x2="590.06" y2="894.19"/>
      <line class="st5" x1="592.8" y1="894.19" x2="595.54" y2="894.19"/>
      <line class="st5" x1="598.28" y1="894.19" x2="601.01" y2="894.19"/>
      <line class="st5" x1="603.75" y1="894.19" x2="606.49" y2="894.19"/>
      <line class="st5" x1="609.62" y1="894.19" x2="612.36" y2="894.19"/>
      <line class="st5" x1="615.1" y1="894.19" x2="616.27" y2="894.19"/>
      <line class="st5" x1="616.27" y1="894.19" x2="616.27" y2="892.62"/>
      <line class="st5" x1="616.27" y1="889.88" x2="616.27" y2="887.15"/>
      <line class="st5" x1="616.27" y1="884.41" x2="616.27" y2="881.67"/>
      <line class="st5" x1="616.27" y1="878.93" x2="616.27" y2="876.2"/>
      <line class="st5" x1="616.27" y1="873.46" x2="616.27" y2="870.72"/>
      <line class="st5" x1="616.27" y1="867.98" x2="616.27" y2="864.85"/>
      <line class="st5" x1="616.27" y1="862.11" x2="616.27" y2="859.38"/>
      <line class="st5" x1="616.27" y1="856.64" x2="616.27" y2="853.9"/>
      <line class="st5" x1="616.27" y1="851.16" x2="616.27" y2="848.42"/>
      <line class="st5" x1="616.27" y1="845.69" x2="616.27" y2="842.95"/>
      <line class="st5" x1="616.27" y1="840.21" x2="616.27" y2="838.65"/>
      <line class="st5" x1="616.27" y1="838.65" x2="615.1" y2="838.65"/>
      <line class="st5" x1="612.36" y1="838.65" x2="609.62" y2="838.65"/>
      <line class="st5" x1="606.49" y1="838.65" x2="603.75" y2="838.65"/>
      <line class="st5" x1="601.01" y1="838.65" x2="598.28" y2="838.65"/>
      <line class="st5" x1="595.54" y1="838.65" x2="592.8" y2="838.65"/>
      <line class="st5" x1="590.06" y1="838.65" x2="587.32" y2="838.65"/>
      <line class="st5" x1="584.59" y1="838.65" x2="581.85" y2="838.65"/>
      <line class="st5" x1="579.11" y1="838.65" x2="575.98" y2="838.65"/>
      <line class="st5" x1="573.24" y1="838.65" x2="570.51" y2="838.65"/>
      <line class="st5" x1="567.77" y1="838.65" x2="565.03" y2="838.65"/>
      <line class="st5" x1="562.29" y1="838.65" x2="561.12" y2="838.65"/>
      <path class="st5" d="M616.27,894.19"/>
      <line class="st5" x1="616.27" y1="894.19" x2="615.1" y2="894.19"/>
      <line class="st5" x1="612.36" y1="894.19" x2="609.62" y2="894.19"/>
      <line class="st5" x1="606.49" y1="894.19" x2="603.75" y2="894.19"/>
      <line class="st5" x1="601.01" y1="894.19" x2="598.28" y2="894.19"/>
      <line class="st5" x1="595.54" y1="894.19" x2="592.8" y2="894.19"/>
      <line class="st5" x1="590.06" y1="894.19" x2="587.32" y2="894.19"/>
      <line class="st5" x1="584.59" y1="894.19" x2="581.85" y2="894.19"/>
      <line class="st5" x1="579.11" y1="894.19" x2="575.98" y2="894.19"/>
      <line class="st5" x1="573.24" y1="894.19" x2="570.51" y2="894.19"/>
      <line class="st5" x1="567.77" y1="894.19" x2="565.03" y2="894.19"/>
      <line class="st5" x1="562.29" y1="894.19" x2="561.12" y2="894.19"/>
    </g>
    <g>
      <g>
        <path class="st6" d="M742.87,805.55c8.87-3.86,19.72-2.94,28.03,2.73q0,.45-.45.9h-1.8c-1.35-.9-2.25-1.35-3.6-2.26-.9,0-2.25.46-2.7,1.36,0,.45,0,1.35.45,1.35,4.5,2.7,8.1,6.75,9.9,11.7h-36.92c1.81-4.95,5.41-9,9.91-11.7.45,0,.9-.9.45-1.35-.45-.9-1.35-1.36-2.7-1.36l-.57-1.37Z"/>
        <path class="st6" d="M742.87,805.55l.57,1.37c-.9.91-2.25,1.36-3.6,2.26h-1.8v-.9c1.52-1.09,3.14-2,4.83-2.73Z"/>
        <polygon class="st6" points="772.7 821.33 779.91 821.33 779.91 889.31 772.7 889.31 735.78 889.31 729.03 889.31 729.03 821.33 735.78 821.33 772.7 821.33"/>
        <path class="st6" d="M735.78,889.31h36.92c-1.8,4.96-5.4,9.01-9.9,11.26-.45.45-.45.9-.45,1.35.45.9,1.8,1.35,2.7,1.35,1.35-.45,2.25-1.35,3.6-1.8h1.8q.45,0,.45.45c-9.9,7.2-23.41,7.2-32.86,0v-.45h1.8c1.35.45,2.7,1.35,3.6,1.8,1.35,0,2.25-.45,2.7-1.35.45-.45,0-.9-.45-1.35-4.5-2.25-8.1-6.3-9.91-11.26Z"/>
      </g>
      <g>
        <path class="st3" d="M738.04,901.92c9.45,7.2,22.96,7.2,32.86,0"/>
        <path class="st3" d="M762.8,900.57c4.5-2.25,8.1-6.3,9.9-11.26"/>
        <path class="st3" d="M762.8,900.57c-.45.45-.45.9-.45,1.35"/>
        <path class="st3" d="M765.05,903.27c1.35-.45,2.25-1.35,3.6-1.8"/>
        <path class="st3" d="M762.35,901.92c.45.9,1.8,1.35,2.7,1.35"/>
        <path class="st3" d="M770.9,901.92q0-.45-.45-.45"/>
        <path class="st3" d="M770.45,901.47h-.9"/>
        <path class="st3" d="M769.55,901.47h-.9"/>
        <path class="st3" d="M735.78,889.31c1.81,4.96,5.41,9.01,9.91,11.26"/>
        <path class="st3" d="M746.14,901.92c.45-.45,0-.9-.45-1.35"/>
        <path class="st3" d="M739.84,901.47c1.35.45,2.7,1.35,3.6,1.8"/>
        <path class="st3" d="M743.44,903.27c1.35,0,2.25-.45,2.7-1.35"/>
        <path class="st3" d="M738.04,901.47v.45"/>
        <line class="st3" x1="739.39" y1="901.47" x2="738.04" y2="901.47"/>
        <line class="st3" x1="739.84" y1="901.47" x2="739.39" y2="901.47"/>
        <line class="st3" x1="779.91" y1="821.33" x2="779.91" y2="889.31"/>
        <polyline class="st3" points="779.91 821.33 772.7 821.33 735.78 821.33 729.03 821.33"/>
        <polyline class="st3" points="729.03 889.31 735.78 889.31 772.7 889.31 779.91 889.31"/>
        <line class="st3" x1="729.03" y1="821.33" x2="729.03" y2="889.31"/>
        <path class="st3" d="M770.9,808.28c-8.31-5.67-19.16-6.59-28.03-2.73-1.69.73-3.31,1.64-4.83,2.73"/>
        <path class="st3" d="M772.7,821.33c-1.8-4.95-5.4-9-9.9-11.7"/>
        <path class="st3" d="M762.35,808.28c0,.45,0,1.35.45,1.35"/>
        <path class="st3" d="M768.65,809.18c-1.35-.9-2.25-1.35-3.6-2.26"/>
        <path class="st3" d="M765.05,806.92c-.9,0-2.25.46-2.7,1.36"/>
        <path class="st3" d="M770.45,809.18q.45-.45.45-.9"/>
        <path class="st3" d="M769.55,809.18h.9"/>
        <path class="st3" d="M768.65,809.18h.9"/>
        <path class="st3" d="M745.69,809.63c-4.5,2.7-8.1,6.75-9.91,11.7"/>
        <path class="st3" d="M745.69,809.63c.45,0,.9-.9.45-1.35"/>
        <path class="st3" d="M743.44,806.92c-.9.91-2.25,1.36-3.6,2.26"/>
        <path class="st3" d="M746.14,808.28c-.45-.9-1.35-1.36-2.7-1.36"/>
        <path class="st3" d="M738.04,808.28v.9"/>
        <line class="st3" x1="738.04" y1="809.18" x2="739.39" y2="809.18"/>
        <line class="st3" x1="739.39" y1="809.18" x2="739.84" y2="809.18"/>
      </g>
    </g>
  </g>
  <g id="bianchi">
    <rect class="st6" x="769.87" y="943.85" width="93.62" height="18.74" transform="translate(-136.54 1769.9) rotate(-90)"/>
    <rect class="st6" x="730.33" y="689.42" width="194.69" height="40.74" transform="translate(117.88 1537.47) rotate(-90)"/>
    <rect class="st6" x="510.86" y="727.47" width="89.11" height="12.16" transform="translate(-178.13 1288.96) rotate(-90)"/>
    <rect class="st6" x="709.37" y="1059.93" width="51.32" height="101.75" transform="translate(-375.77 1845.84) rotate(-90)"/>
    <rect class="st6" x="608.17" y="1067.61" width="68.04" height="69.68" transform="translate(-460.26 1744.64) rotate(-90)"/>
    <rect class="st4" x="534.7" y="992.63" width="1.8" height="37.37" transform="translate(-475.71 1546.91) rotate(-90)"/>
    <rect class="st4" x="533.6" y="995.18" width="3.55" height="27.01" transform="translate(-473.31 1544.07) rotate(-90)"/>
  </g>
  <g id="pareti">
    <g>
      <polygon class="st0" points="787.95 532.74 828.02 532.74 828.02 579.56 829.82 579.56 829.82 594.87 828.02 594.87 828.02 620.53 787.95 620.53 787.95 549.4 561.49 549.4 561.49 693.47 561.49 694.37 549.34 694.37 549.34 693.47 549.34 614.68 549.34 549.4 549.34 532.74 787.95 532.74"/>
      <polygon class="st0" points="549.34 778.1 561.49 778.1 561.49 779.01 561.49 980.25 570.05 980.25 570.95 980.25 570.95 986.55 570.05 986.55 561.49 986.55 561.49 1008.61 508.37 1008.61 508.37 1017.17 502.96 1017.17 502.96 1011.76 469.2 1011.76 469.2 1136.47 502.96 1136.47 502.96 1051.38 508.37 1051.38 508.37 1136.47 675.39 1136.47 675.39 986.55 647.48 986.55 646.58 986.55 646.58 980.25 647.48 980.25 675.39 980.25 681.7 980.25 681.7 1136.47 787.95 1136.47 787.95 1091 787.95 1003.21 787.95 999.16 819.91 999.16 819.91 1091 828.02 1091 828.02 1170.69 462.9 1170.69 462.9 1002.31 555.64 1002.31 555.64 791.16 549.34 785.31 549.34 784.86 549.34 779.01 549.34 778.1"/>
      <polygon class="st0" points="819.01 805.12 828.02 805.12 828.02 906.41 819.01 906.41 787.95 906.41 787.95 805.12 819.01 805.12"/>
    </g>
  </g>
  <g id="Default">
    <rect class="st4" x="760.71" y="699.54" width="32.87" height="32.87" transform="translate(61.17 1493.11) rotate(-90)"/>
    <rect class="st2" x="756.21" y="1087.81" width="26.81" height="45.99"/>
    <line class="st2" x1="551.42" y1="573.62" x2="551.42" y2="573.75"/>
    <line class="st2" x1="516.92" y1="1012.21" x2="554.29" y2="1012.21"/>
    <line class="st2" x1="554.29" y1="1012.21" x2="554.29" y2="1010.41"/>
    <line class="st2" x1="554.29" y1="1010.41" x2="516.92" y2="1010.41"/>
    <line class="st2" x1="516.92" y1="1010.41" x2="516.92" y2="1012.21"/>
    <line class="st2" x1="521.87" y1="1010.41" x2="521.87" y2="1008.61"/>
    <line class="st2" x1="548.88" y1="1008.61" x2="548.88" y2="1010.41"/>
    <line class="st2" x1="812.71" y1="993.75" x2="807.3" y2="993.75"/>
    <line class="st2" x1="812.71" y1="990.15" x2="812.71" y2="993.75"/>
    <line class="st2" x1="819.91" y1="990.15" x2="812.71" y2="990.15"/>
    <line class="st2" x1="819.91" y1="998.25" x2="819.91" y2="990.15"/>
    <line class="st2" x1="807.3" y1="998.25" x2="819.91" y2="998.25"/>
    <line class="st2" x1="807.3" y1="993.75" x2="807.3" y2="998.25"/>
    <line class="st2" x1="819.91" y1="907.31" x2="807.3" y2="907.31"/>
    <line class="st2" x1="819.91" y1="915.42" x2="819.91" y2="907.31"/>
    <line class="st2" x1="812.71" y1="915.42" x2="819.91" y2="915.42"/>
    <line class="st2" x1="812.71" y1="911.36" x2="812.71" y2="915.42"/>
    <line class="st2" x1="807.3" y1="911.36" x2="812.71" y2="911.36"/>
    <line class="st2" x1="807.3" y1="907.31" x2="807.3" y2="911.36"/>
    <line class="st2" x1="812.71" y1="915.42" x2="812.71" y2="990.15"/>
    <line class="st2" x1="819.91" y1="915.42" x2="819.91" y2="990.15"/>
    <line class="st2" x1="807.3" y1="993.75" x2="807.3" y2="911.36"/>
    <line class="st2" x1="819.01" y1="915.42" x2="814.96" y2="915.42"/>
    <line class="st2" x1="819.01" y1="990.15" x2="819.01" y2="915.42"/>
    <line class="st2" x1="814.96" y1="990.15" x2="819.01" y2="990.15"/>
    <line class="st2" x1="814.96" y1="915.42" x2="814.96" y2="990.15"/>
    <line class="st2" x1="577.25" y1="980.25" x2="643.88" y2="980.25"/>
    <line class="st2" x1="577.25" y1="980.25" x2="643.88" y2="980.25"/>
    <polyline class="st2" points="573.65 910.01 573.65 980.25 577.25 980.25"/>
    <line class="st2" x1="819.01" y1="1171.58" x2="819.01" y2="1171.56"/>
    <line class="st2" x1="827.11" y1="1171.58" x2="827.11" y2="1171.58"/>
    <line class="st2" x1="561.49" y1="772.25" x2="561.49" y2="775.4"/>
    <line class="st2" x1="561.49" y1="772.25" x2="561.49" y2="696.61"/>
    <line class="st2" x1="561.49" y1="696.61" x2="561.49" y2="772.25"/>
    <line class="st2" x1="640.28" y1="772.25" x2="640.21" y2="772.25"/>
    <polyline class="st2" points="561.49 772.25 561.49 775.4 640.28 775.4 640.28 772.25 640.21 772.25"/>
    <polyline class="st2" points="608.48 1136.47 607.35 1136.47 607.35 1135.87"/>
    <polyline class="st2" points="675.39 1135.35 675.39 1136.47 674.8 1136.47"/>
    <polyline class="st2" points="674.27 1068.43 675.39 1068.43 675.39 1069.03"/>
    <polyline class="st2" points="607.35 1069.55 607.35 1068.43 607.95 1068.43"/>
    <line class="st2" x1="674.27" y1="1068.43" x2="607.95" y2="1068.43"/>
    <line class="st2" x1="675.39" y1="1135.35" x2="675.39" y2="1069.03"/>
    <line class="st2" x1="608.48" y1="1136.47" x2="674.8" y2="1136.47"/>
    <line class="st2" x1="607.35" y1="1069.55" x2="607.35" y2="1135.87"/>
    <circle class="st2" cx="656.58" cy="1102.36" r="4.23"/>
    <circle class="st2" cx="656.58" cy="1102.36" r="4.23"/>
    <line class="st2" x1="675.39" y1="1102.45" x2="656.49" y2="1102.45"/>
    <g>
      <path class="st6" d="M508.37,1088.32h24.72c9.52,0,17.22,6.84,17.22,15.29s-7.7,15.28-17.22,15.28h-24.72v-30.57Z"/>
      <path class="st2" d="M508.37,1088.32h24.72c9.52,0,17.22,6.84,17.22,15.29s-7.7,15.28-17.22,15.28h-24.72v-30.57Z"/>
    </g>
    <rect class="st2" x="684.16" y="1085.14" width="101.75" height="51.32"/>
    <line class="st2" x1="763.19" y1="1122.26" x2="775.38" y2="1122.26"/>
    <line class="st2" x1="763.19" y1="1099.35" x2="775.38" y2="1099.35"/>
    <line class="st2" x1="769.21" y1="1105.36" x2="769.21" y2="1093.17"/>
    <line class="st2" x1="769.21" y1="1128.44" x2="769.21" y2="1116.25"/>
    <rect class="st2" x="696.39" y="1095.3" width="31.01" height="31.01"/>
    <rect class="st2" x="688.68" y="1087.59" width="46.6" height="46.44"/>
    <line class="st2" x1="711.98" y1="1118.81" x2="711.98" y2="1131.28"/>
    <line class="st2" x1="506.11" y1="1050.48" x2="506.11" y2="1018.51"/>
    <line class="st2" x1="506.11" y1="1018.51" x2="508.37" y2="1018.51"/>
    <line class="st2" x1="508.37" y1="1018.51" x2="508.37" y2="1050.48"/>
    <line class="st2" x1="508.37" y1="1050.48" x2="506.11" y2="1050.48"/>
    <line class="st2" x1="502.96" y1="1051.38" x2="502.96" y2="1017.16"/>
    <line class="st2" x1="508.37" y1="1050.48" x2="508.37" y2="1051.38"/>
    <line class="st2" x1="508.37" y1="1017.16" x2="508.37" y2="1018.51"/>
    <line class="st2" x1="508.37" y1="1018.51" x2="506.11" y2="1018.51"/>
    <line class="st2" x1="573.55" y1="980.21" x2="573.8" y2="980.21"/>
    <line class="st2" x1="573.55" y1="980.21" x2="573.8" y2="980.21"/>
    <line class="st2" x1="573.65" y1="980.25" x2="573.65" y2="910.01"/>
    <line class="st2" x1="577.25" y1="980.25" x2="573.65" y2="980.25"/>
    <path class="st2" d="M643.88,980.25c0-18.46-7.2-36.47-20.26-49.52-13.51-13.06-31.06-20.71-49.97-20.71"/>
    <line class="st2" x1="469.2" y1="1011.76" x2="498.91" y2="1136.47"/>
    <line class="st2" x1="502.96" y1="1011.76" x2="473.25" y2="1136.47"/>
    <g>
      <path class="st6" d="M776.52,688.96c-1.35.9-3.15.9-4.95,0-13.05-4.95-23.41-14.4-30.16-27.01-.45-1.35-.9-3.15-.45-4.5.9-1.35,1.35-2.7,2.25-3.6l10.35-16.21c.45,0,.45-.45.9-.9,1.35-1.35,2.7-2.25,4.96-2.7,4.95-.9,9.9-.9,14.85,0,5.41,0,10.36,2.25,14.41,5.85,4.05,3.6,6.75,8.56,7.65,13.51s1.8,10.35,1.35,15.3c0,1.81-.9,3.61-2.25,4.96l-.9.9-14.85,12.15c-.91.9-1.81,1.8-3.16,2.25Z"/>
      <g>
        <path class="st2" d="M797.68,668.7c.45-4.95-.45-10.35-1.35-15.3"/>
        <path class="st2" d="M795.43,673.66c1.35-1.35,2.25-3.15,2.25-4.96"/>
        <path class="st2" d="M794.53,674.56l.9-.9"/>
        <line class="st2" x1="794.53" y1="674.56" x2="779.68" y2="686.71"/>
        <path class="st2" d="M776.52,688.96c1.35-.45,2.25-1.35,3.16-2.25"/>
        <path class="st2" d="M771.57,688.96c1.8.9,3.6.9,4.95,0"/>
        <path class="st2" d="M796.33,653.4c-.9-4.95-3.6-9.91-7.65-13.51"/>
        <path class="st2" d="M787.33,647.99c-.9-1.35-2.25-2.25-3.15-3.15"/>
        <path class="st2" d="M789.58,668.25c3.15-6.75,2.25-14.85-2.25-20.26"/>
        <path class="st2" d="M782.38,677.71c2.7-2.7,4.95-5.85,7.2-9.46"/>
        <path class="st2" d="M774.27,634.04c-4.95-.9-9.9-.9-14.85,0"/>
        <path class="st2" d="M759.42,634.04c-2.26.45-3.61,1.35-4.96,2.7"/>
        <path class="st2" d="M754.46,636.74c-.45.45-.45.9-.9.9"/>
        <line class="st2" x1="753.56" y1="637.64" x2="743.21" y2="653.85"/>
        <path class="st2" d="M743.21,653.85c-.9.9-1.35,2.25-2.25,3.6"/>
        <path class="st2" d="M740.96,657.45c-.45,1.35,0,3.15.45,4.5"/>
        <path class="st2" d="M788.68,639.89c-4.05-3.6-9-5.85-14.41-5.85"/>
        <path class="st2" d="M784.18,644.84c-.9-.9-1.8-1.8-3.15-2.25"/>
        <path class="st2" d="M781.03,642.59c-6.31-4.5-14.41-4.5-20.71-.45"/>
        <path class="st2" d="M760.32,642.14c-3.16,2.7-5.86,5.4-8.56,8.11"/>
        <path class="st2" d="M741.41,661.95c6.75,12.61,17.11,22.06,30.16,27.01"/>
      </g>
    </g>
    <line class="st2" x1="640.28" y1="775.4" x2="640.28" y2="772.25"/>
    <line class="st2" x1="561.49" y1="775.4" x2="640.28" y2="775.4"/>
    <path class="st2" d="M640.28,775.4c0-20.71-8.1-40.97-22.96-55.38-14.86-14.86-34.67-23.41-55.83-23.41"/>
    <line class="st2" x1="807.3" y1="712.37" x2="807.3" y2="707.87"/>
    <line class="st2" x1="807.3" y1="707.87" x2="819.91" y2="707.87"/>
    <line class="st2" x1="819.91" y1="707.87" x2="819.91" y2="712.37"/>
    <line class="st2" x1="819.91" y1="712.37" x2="807.3" y2="712.37"/>
    <line class="st2" x1="807.3" y1="625.93" x2="807.3" y2="621.43"/>
    <line class="st2" x1="807.3" y1="621.43" x2="819.91" y2="621.43"/>
    <line class="st2" x1="819.91" y1="621.43" x2="819.91" y2="625.93"/>
    <line class="st2" x1="819.91" y1="625.93" x2="807.3" y2="625.93"/>
    <line class="st2" x1="819.91" y1="707.87" x2="819.91" y2="625.93"/>
    <line class="st2" x1="807.3" y1="625.93" x2="807.3" y2="707.87"/>
    <line class="st2" x1="814.96" y1="707.87" x2="814.96" y2="625.93"/>
    <line class="st2" x1="814.96" y1="625.93" x2="819.01" y2="625.93"/>
    <line class="st2" x1="819.01" y1="625.93" x2="819.01" y2="707.87"/>
    <line class="st2" x1="819.01" y1="707.87" x2="814.96" y2="707.87"/>
    <line class="st2" x1="819.91" y1="796.11" x2="819.91" y2="721.38"/>
    <line class="st2" x1="819.91" y1="721.38" x2="819.91" y2="796.11"/>
    <line class="st2" x1="819.91" y1="801.51" x2="819.91" y2="715.97"/>
    <line class="st2" x1="819.91" y1="801.96" x2="819.91" y2="715.52"/>
    <line class="st2" x1="819.91" y1="713.27" x2="819.91" y2="804.21"/>
    <line class="st2" x1="807.3" y1="717.77" x2="807.3" y2="713.27"/>
    <line class="st2" x1="807.3" y1="713.27" x2="819.91" y2="713.27"/>
    <line class="st2" x1="819.91" y1="713.27" x2="819.91" y2="721.38"/>
    <line class="st2" x1="819.91" y1="721.38" x2="812.71" y2="721.38"/>
    <line class="st2" x1="812.71" y1="721.38" x2="812.71" y2="717.77"/>
    <line class="st2" x1="812.71" y1="717.77" x2="807.3" y2="717.77"/>
    <line class="st2" x1="807.3" y1="804.21" x2="807.3" y2="799.71"/>
    <line class="st2" x1="807.3" y1="799.71" x2="812.71" y2="799.71"/>
    <line class="st2" x1="812.71" y1="799.71" x2="812.71" y2="796.11"/>
    <line class="st2" x1="812.71" y1="796.11" x2="819.91" y2="796.11"/>
    <line class="st2" x1="819.91" y1="796.11" x2="819.91" y2="804.21"/>
    <line class="st2" x1="819.91" y1="804.21" x2="807.3" y2="804.21"/>
    <line class="st2" x1="812.71" y1="796.11" x2="812.71" y2="721.38"/>
    <line class="st2" x1="819.91" y1="796.11" x2="819.91" y2="721.38"/>
    <line class="st2" x1="807.3" y1="717.77" x2="807.3" y2="799.71"/>
    <line class="st2" x1="814.96" y1="796.11" x2="814.96" y2="721.38"/>
    <line class="st2" x1="814.96" y1="721.38" x2="819.01" y2="721.38"/>
    <line class="st2" x1="819.01" y1="721.38" x2="819.01" y2="796.11"/>
    <line class="st2" x1="819.01" y1="796.11" x2="814.96" y2="796.11"/>
    <line class="st2" x1="819.91" y1="915.42" x2="819.91" y2="990.15"/>
    <line class="st2" x1="819.91" y1="990.15" x2="819.91" y2="915.42"/>
    <line class="st2" x1="819.91" y1="910.01" x2="819.91" y2="995.55"/>
    <line class="st2" x1="819.91" y1="909.56" x2="819.91" y2="996"/>
    <line class="st2" x1="819.91" y1="998.25" x2="819.91" y2="907.31"/>
    <line class="st2" x1="787.95" y1="1091" x2="787.95" y2="1089.65"/>
    <line class="st2" x1="787.95" y1="1085.59" x2="787.95" y2="1089.65"/>
    <line class="st2" x1="787.95" y1="532.74" x2="797.4" y2="532.74"/>
    <g>
      <g>
        <path class="st6" d="M656.49,1007.71h18.9v38.85h-27.68c-.61,0-1.11-.29-1.11-.66v-37.37c0-.45.5-.82,1.11-.82h8.78ZM665.05,1008.53h-16.22c-.62,0-1.12.37-1.12.83v35.72c0,.45.5.82,1.12.82h16.22c.61,0,1.11-.37,1.11-.82v-35.72c0-.46-.5-.83-1.11-.83ZM671.1,1025.01c-1.22,0-2.2.99-2.2,2.21s.98,2.2,2.2,2.2,2.2-.99,2.2-2.2-.98-2.21-2.2-2.21Z"/>
        <path class="st6" d="M648.83,1008.53h16.22c.61,0,1.11.37,1.11.83v35.72c0,.45-.5.82-1.11.82h-16.22c-.62,0-1.12-.37-1.12-.82v-35.72c0-.46.5-.83,1.12-.83ZM656.65,1024.28c-1.62,0-2.94,1.32-2.94,2.94s1.32,2.93,2.94,2.93,2.93-1.31,2.93-2.93-1.31-2.94-2.93-2.94Z"/>
        <path class="st6" d="M653.71,1027.22c0-1.62,1.32-2.94,2.94-2.94s2.93,1.32,2.93,2.94-1.31,2.93-2.93,2.93-2.94-1.31-2.94-2.93ZM656.65,1025.64c-.87,0-1.58.71-1.58,1.58s.71,1.58,1.58,1.58,1.58-.71,1.58-1.58-.71-1.58-1.58-1.58Z"/>
        <path class="st6" d="M668.9,1027.22c0-1.22.98-2.21,2.2-2.21s2.2.99,2.2,2.21-.98,2.2-2.2,2.2-2.2-.99-2.2-2.2Z"/>
        <circle class="st6" cx="656.65" cy="1027.22" r="1.58"/>
      </g>
      <g>
        <path class="st2" d="M671.1,1025.01c-1.22,0-2.2.99-2.2,2.21s.98,2.2,2.2,2.2,2.2-.99,2.2-2.2-.98-2.21-2.2-2.21Z"/>
        <path class="st2" d="M656.65,1024.28c-1.62,0-2.94,1.32-2.94,2.94s1.32,2.93,2.94,2.93,2.93-1.31,2.93-2.93-1.31-2.94-2.93-2.94Z"/>
        <circle class="st2" cx="656.65" cy="1027.22" r="1.58"/>
        <path class="st2" d="M665.05,1045.9h-16.22c-.62,0-1.12-.37-1.12-.82v-35.72c0-.46.5-.83,1.12-.83h16.22c.61,0,1.11.37,1.11.83v35.72c0,.45-.5.82-1.11.82Z"/>
        <line class="st2" x1="646.58" y1="1017.61" x2="646.58" y2="1036.07"/>
        <path class="st2" d="M675.39,1046.56h-27.68c-.61,0-1.11-.29-1.11-.66v-37.37c0-.45.5-.82,1.11-.82h27.68"/>
        <line class="st2" x1="675.39" y1="1046.56" x2="675.39" y2="1007.71"/>
      </g>
    </g>
  </g>
</svg>