<?xml version="1.0" encoding="UTF-8"?>
<svg id="Vinduer_i_facade" xmlns="http://www.w3.org/2000/svg" version="1.1" viewBox="0 0 1200 1697.14">
  <!-- Generator: Adobe Illustrator 29.6.0, SVG Export Plug-In . SVG Version: 2.1.1 Build 207)  -->
  <defs>
    <style>
      .st0 {
        fill: #e2dedb;
      }

      .st1, .st2, .st3, .st4, .st5, .st6, .st7, .st8, .st9, .st10, .st11, .st12, .st13 {
        stroke: #363a3b;
      }

      .st1, .st4, .st14, .st15, .st11, .st13, .st16 {
        stroke-width: .28px;
      }

      .st1, .st8 {
        stroke-miterlimit: 10;
      }

      .st1, .st17, .st12, .st13 {
        fill: #fff;
      }

      .st2 {
        stroke-width: .3px;
      }

      .st2, .st3, .st4, .st5, .st6, .st7, .st14, .st8, .st9, .st10, .st15, .st18, .st11, .st19, .st16 {
        fill: none;
      }

      .st2, .st3, .st4, .st5, .st6, .st7, .st14, .st9, .st10, .st15, .st18, .st11, .st19, .st12, .st13, .st16 {
        stroke-linecap: round;
        stroke-linejoin: round;
      }

      .st3 {
        stroke-width: .28px;
      }

      .st5 {
        stroke-width: .28px;
      }

      .st6, .st8, .st18, .st12 {
        stroke-width: .28px;
      }

      .st7 {
        stroke-width: .29px;
      }

      .st20 {
        fill: #ece8e5;
      }

      .st14, .st15, .st19, .st16 {
        stroke: #000;
      }

      .st9 {
        stroke-width: .18px;
      }

      .st9, .st10, .st19 {
        stroke-dasharray: .06 .43;
      }

      .st10, .st19 {
        stroke-width: .18px;
      }

      .st15 {
        stroke-dasharray: .09 .69;
      }

      .st18 {
        stroke: #0e0e0e;
      }

      .st11 {
        stroke-dasharray: .09 .69;
      }

      .st21 {
        fill: #302c35;
      }

      .st16 {
        stroke-dasharray: .09 .68;
      }
    </style>
  </defs>
  <polygon class="st20" points="697.77 635.9 697.77 917.94 561.96 917.94 561.64 1067.46 464.76 1067.46 464.74 817.98 488.21 817.98 488.42 784.86 557.64 784.86 557.64 635.9 697.77 635.9"/>
  <line class="st11" x1="697.87" y1="872.22" x2="697.89" y2="773.16"/>
  <rect class="st17" x="541.39" y="803.95" width="34" height="2.88" transform="translate(1363.78 247) rotate(90)"/>
  <polyline class="st12" points="558.84 939.96 531.92 939.97 531.92 968.41 558.85 968.41"/>
  <polyline class="st12" points="558.85 939.91 531.92 939.91 531.91 911.47 558.84 911.46 558.85 939.91"/>
  <g>
    <path class="st10" d="M531.89,968.21l-16.55-22.26s7.42-5.13,16.54-5.17"/>
    <path class="st10" d="M531.88,939.14c-9.13-.04-16.54-5.41-16.54-5.41l16.54-22.26"/>
  </g>
  <g>
    <line class="st4" x1="562.94" y1="814.56" x2="562.94" y2="795.3"/>
    <line class="st4" x1="564.32" y1="795.3" x2="564.32" y2="814.56"/>
    <polyline class="st4" points="562.94 795.3 562.94 792.42 564.32 792.42 564.32 795.3 562.94 795.3"/>
    <polyline class="st4" points="562.94 817.38 562.94 814.56 564.32 814.56 564.32 817.38 562.94 817.38"/>
    <line class="st4" x1="559.88" y1="815.58" x2="562.7" y2="815.58"/>
    <line class="st4" x1="559.88" y1="794.41" x2="562.7" y2="794.41"/>
  </g>
  <polygon class="st0" points="557 784.2 488.96 784.2 488.96 817.98 472.62 817.98 472.68 906.08 557 906.07 557 784.2"/>
  <g>
    <g>
      <path class="st13" d="M663.57,869.36c0,7.12-6.14,12.9-13.72,12.9-5.58,0-11.11-3.65-13.01-8.79-.26-.7-.79-2.18-.71-4.11.24-6.06,6.28-12.9,13.72-12.9,7.58,0,13.72,5.77,13.72,12.9Z"/>
      <path class="st4" d="M637.94,872.25c0,4.38,5.33,7.92,11.91,7.92"/>
      <path class="st4" d="M661.76,872.25c0,4.38-5.33,7.92-11.91,7.92"/>
      <path class="st4" d="M661.76,872.25c0-.86.68-1.56,1.53-1.56"/>
      <path class="st4" d="M637.94,872.25c0-.86-.74-1.56-1.66-1.56"/>
    </g>
    <g>
      <path class="st13" d="M663.57,825.08c0-7.12-6.14-12.9-13.72-12.9-5.58,0-11.1,3.65-13.01,8.79-.26.7-.79,2.18-.71,4.11.24,6.06,6.28,12.9,13.72,12.9s13.72-5.78,13.72-12.9Z"/>
      <path class="st4" d="M637.94,822.19c0-4.38,5.33-7.92,11.91-7.92"/>
      <path class="st4" d="M661.76,822.19c0-4.38-5.33-7.92-11.91-7.92"/>
      <path class="st4" d="M661.76,822.19c0,.86.68,1.56,1.53,1.56"/>
      <path class="st4" d="M637.94,822.19c0,.86-.74,1.56-1.66,1.56"/>
    </g>
    <rect class="st13" x="632.01" y="825.96" width="35.68" height="40.44" transform="translate(1495.98 196.28) rotate(90)"/>
  </g>
  <g>
    <path class="st12" d="M556.58,977.88h-18.5c-.41,0-.74.21-.74.47v26.59c0,.32.33.59.74.59h18.5"/>
    <path class="st4" d="M553.88,992.76c-.55,0-1-.45-1-1s.45-1,1-1,1,.45,1,1-.45,1-1,1"/>
    <g>
      <path class="st4" d="M545.07,992.96c-.68,0-1.23-.55-1.23-1.23s.55-1.23,1.23-1.23,1.23.55,1.23,1.23-.55,1.23-1.23,1.23"/>
      <path class="st4" d="M545.07,993.55c-1,0-1.82-.81-1.82-1.82s.81-1.82,1.82-1.82,1.82.81,1.82,1.82-.81,1.82-1.82,1.82"/>
    </g>
    <path class="st6" d="M550.67,979.91h-10.82c-.41,0-.74.23-.74.52v22.61c0,.29.33.52.74.52h10.82c.41,0,.74-.23.74-.52v-22.61c0-.29-.33-.52-.74-.52Z"/>
  </g>
  <g>
    <g>
      <polyline class="st14" points="556.22 1017.06 556.27 1017.06 556.27 1017.11"/>
      <line class="st15" x1="556.27" y1="1017.8" x2="556.27" y2="1061.32"/>
      <polyline class="st14" points="556.27 1061.67 556.27 1061.71 556.22 1061.71"/>
      <line class="st16" x1="555.54" y1="1061.71" x2="512.53" y2="1061.71"/>
      <polyline class="st14" points="512.18 1061.71 512.14 1061.71 512.14 1061.67"/>
      <line class="st15" x1="512.14" y1="1060.97" x2="512.14" y2="1017.46"/>
      <polyline class="st14" points="512.14 1017.11 512.14 1017.06 512.18 1017.06"/>
      <line class="st16" x1="512.87" y1="1017.06" x2="555.88" y2="1017.06"/>
    </g>
    <g>
      <line class="st4" x1="534.58" y1="1061.6" x2="534.58" y2="1049.3"/>
      <path class="st13" d="M537.28,1049.35c0,1.52-1.23,2.75-2.75,2.75s-2.75-1.23-2.75-2.75,1.23-2.75,2.75-2.75,2.75,1.23,2.75,2.75"/>
    </g>
  </g>
  <path class="st1" d="M508,1062.2v-16.09c0-6.19-4.45-11.2-9.95-11.2-5.5,0-9.95,5.01-9.95,11.2v16.09s19.9,0,19.9,0Z"/>
  <g>
    <rect class="st13" x="570.53" y="646.27" width="113.09" height="50.38" transform="translate(1254.2 1342.89) rotate(180)"/>
    <rect class="st13" x="584.13" y="657.73" width="27.44" height="27.44" rx="1.42" ry="1.42" transform="translate(-73.57 1269.35) rotate(-90)"/>
    <polygon class="st13" points="585.32 645.63 683.92 645.62 683.92 696.65 610.83 696.65 585.32 645.63"/>
  </g>
  <circle class="st1" cx="620.25" cy="721.23" r="13.02"/>
  <g>
    <rect class="st8" x="492.37" y="788.12" width="67.55" height="34.29"/>
    <g>
      <g>
        <polyline class="st3" points="498.87 817.65 498.86 796.31 519.64 796.3 519.65 817.64 498.87 817.65"/>
        <line class="st3" x1="509.31" y1="801.47" x2="509.31" y2="792.89"/>
      </g>
      <polyline class="st3" points="493.81 820.77 493.8 789.77 524.71 789.76 524.71 820.76 493.81 820.77"/>
    </g>
    <g>
      <g>
        <line class="st7" x1="549.95" y1="817.67" x2="549.95" y2="809.37"/>
        <line class="st7" x1="549.95" y1="801.96" x2="549.94" y2="793.66"/>
        <line class="st7" x1="553.72" y1="797.86" x2="546.06" y2="797.87"/>
        <line class="st7" x1="553.73" y1="813.46" x2="546.07" y2="813.46"/>
      </g>
      <polyline class="st2" points="541.64 820.76 541.63 789.76 558.15 789.75 558.16 820.76 541.64 820.76"/>
    </g>
  </g>
  <rect class="st21" x="697.87" y="872.22" width="34.01" height="54.87"/>
  <rect class="st21" x="697.89" y="764.65" width="36.99" height="8.5"/>
  <rect class="st21" x="697.89" y="872.06" width="36.99" height="8.5"/>
  <rect class="st21" x="697.78" y="626.59" width="34.19" height="141.04"/>
  <rect class="st21" x="464.78" y="814.07" width="27.48" height="8.5"/>
  <rect class="st21" x="483.8" y="779.89" width="76.15" height="8.5"/>
  <rect class="st21" x="464.79" y="958.02" width="8.5" height="112.51"/>
  <rect class="st21" x="464.79" y="814.21" width="8.5" height="100.55"/>
  <rect class="st21" x="483.84" y="779.89" width="8.5" height="42.58"/>
  <rect class="st21" x="551.56" y="632.1" width="8.5" height="156.29"/>
  <rect class="st21" x="558.69" y="913.15" width="8.5" height="157.38"/>
  <rect class="st21" x="529.34" y="967.83" width="30.99" height="3.54"/>
  <rect class="st21" x="469.89" y="967.83" width="15.27" height="3.54"/>
  <rect class="st21" x="464.8" y="1062.06" width="102.39" height="8.49"/>
  <rect class="st21" x="556.55" y="968.04" width="3.54" height="96.94"/>
  <rect class="st21" x="558.76" y="913.11" width="3.54" height="61.83"/>
  <rect class="st21" x="473.01" y="967.87" width="3.54" height="97.39"/>
  <rect class="st21" x="560.71" y="913.15" width="139.3" height="8.5"/>
  <rect class="st21" x="551.6" y="631.48" width="148.42" height="8.5"/>
  <g>
    <path class="st6" d="M517.42,958.46c0-11.6-4.79-22.95-13.11-31.27-8.07-8.07-19.41-12.86-31.01-12.86"/>
    <line class="st6" x1="475.06" y1="958.46" x2="517.42" y2="958.46"/>
    <polyline class="st6" points="473.29 914.34 473.29 958.46 475.06 958.46"/>
  </g>
  <g>
    <path class="st6" d="M529.29,969.6c0,11.6-4.79,22.94-13.11,31.27-8.07,8.07-19.42,12.86-31.01,12.86"/>
    <line class="st6" x1="486.93" y1="969.6" x2="529.29" y2="969.6"/>
    <polyline class="st6" points="485.17 1013.72 485.17 969.6 486.93 969.6"/>
  </g>
  <g>
    <polyline class="st6" points="728.96 801.54 728.96 774.84 731.66 774.84 731.66 801.54 728.96 801.54"/>
    <polyline class="st5" points="728.98 870.3 728.99 804.54 731.69 804.54 731.68 870.3 728.98 870.3"/>
    <line class="st6" x1="735.26" y1="803.04" x2="735.26" y2="773.43"/>
    <polyline class="st6" points="735.26 773.16 735.26 773.58 734.36 773.58 734.36 774.9 728.96 774.9 728.96 773.16 735.26 773.16"/>
    <polyline class="st6" points="735.25 872.04 735.25 871.62 734.35 871.62 734.35 870.3 728.95 870.3 728.95 872.04 735.25 872.04"/>
    <polyline class="st6" points="735.26 802.8 735.26 803.22 734.36 803.22 734.36 804.48 728.96 804.48 728.96 801.54 734.36 801.54 734.36 802.8 735.26 802.8"/>
    <line class="st6" x1="734.36" y1="774.84" x2="734.36" y2="801.54"/>
    <line class="st6" x1="734.36" y1="804.48" x2="734.35" y2="870.3"/>
    <line class="st6" x1="731.66" y1="774.84" x2="734.36" y2="774.84"/>
    <line class="st6" x1="735.26" y1="803.04" x2="735.25" y2="871.83"/>
    <polyline class="st6" points="734.35 870.3 734.35 871.62 735.25 871.62 735.25 872.04 728.95 872.04 728.95 870.3 734.35 870.3"/>
    <line class="st9" x1="731.66" y1="774.84" x2="708.98" y2="788.22"/>
    <line class="st9" x1="731.66" y1="801.31" x2="708.98" y2="787.93"/>
    <line class="st18" x1="729.02" y1="774.84" x2="728.96" y2="774.78"/>
    <line class="st6" x1="728.96" y1="804.48" x2="728.95" y2="870.3"/>
    <line class="st6" x1="728.96" y1="774.84" x2="728.96" y2="801.54"/>
    <polyline class="st6" points="728.96 801.54 734.36 801.54 734.36 802.8 735.26 802.8 735.26 803.22 734.36 803.22 734.36 804.48 728.96 804.48 728.96 801.54"/>
    <polyline class="st6" points="734.36 773.52 734.36 774.84 728.96 774.84 728.96 773.16 735.26 773.16 735.26 773.52 734.36 773.52"/>
    <polyline class="st6" points="734.36 774.84 734.36 801.54 731.66 801.54 731.66 774.84 734.36 774.84"/>
  </g>
  <path class="st19" d="M469.89,784.14"/>
  <polyline class="st19" points="469.89 906.25 556.95 906.25 556.95 784.14"/>
</svg>