<?xml version="1.0" encoding="UTF-8"?>
<svg id="Vinduer_i_facade" xmlns="http://www.w3.org/2000/svg" version="1.1" viewBox="0 0 1200 1697.14">
  <!-- Generator: Adobe Illustrator 29.6.0, SVG Export Plug-In . SVG Version: 2.1.1 Build 207)  -->
  <defs>
    <style>
      .st0 {
        stroke-dasharray: .09 .68;
      }

      .st0, .st1, .st2, .st3, .st4, .st5, .st6, .st7 {
        stroke-width: .28px;
      }

      .st0, .st1, .st8, .st9, .st3, .st10, .st11, .st12, .st4, .st13, .st14, .st5, .st15, .st16, .st17, .st6, .st7 {
        stroke-linecap: round;
        stroke-linejoin: round;
      }

      .st0, .st1, .st8, .st9, .st3, .st10, .st11, .st12, .st4, .st13, .st14, .st5, .st15, .st16, .st7 {
        fill: none;
      }

      .st0, .st1, .st4, .st5, .st16 {
        stroke: #000;
      }

      .st18 {
        fill: #e2dedb;
      }

      .st1 {
        stroke-dasharray: .09 .69;
      }

      .st19 {
        stroke-width: .29px;
      }

      .st19, .st2, .st20 {
        stroke-miterlimit: 10;
      }

      .st19, .st2, .st20, .st8, .st9, .st3, .st10, .st11, .st12, .st13, .st14, .st17, .st6 {
        stroke: #363a3b;
      }

      .st19, .st2, .st20, .st17, .st6 {
        fill: #fff;
      }

      .st20, .st11, .st15, .st17 {
        stroke-width: .28px;
      }

      .st8 {
        stroke-width: .3px;
      }

      .st9 {
        stroke-width: .28px;
      }

      .st10 {
        stroke-width: .28px;
      }

      .st12 {
        stroke-width: .29px;
      }

      .st21 {
        fill: #ece8e5;
      }

      .st13 {
        stroke-width: .18px;
      }

      .st13, .st14, .st16 {
        stroke-dasharray: .06 .43;
      }

      .st14, .st16 {
        stroke-width: .18px;
      }

      .st5 {
        stroke-dasharray: .09 .69;
      }

      .st15 {
        stroke: #0e0e0e;
      }

      .st22 {
        fill: #363a3b;
      }

      .st23 {
        fill: #302c35;
      }

      .st7 {
        stroke: #00001d;
      }
    </style>
  </defs>
  <polygon class="st21" points="705.98 980.78 614.67 1019.36 613.32 1028.6 538.94 1059.97 538.98 999.58 417.5 999.51 417.59 865.81 494.38 865.85 494.5 660.24 616.37 634.97 756.48 968.29 713.88 986.42 705.98 980.78"/>
  <line class="st1" x1="705.75" y1="980.98" x2="614.78" y2="1019.47"/>
  <g>
    <rect class="st6" x="472.02" y="710.12" width="110.26" height="50.38" transform="translate(-208.47 1262.02) rotate(-89.97)"/>
    <rect class="st6" x="513.18" y="692.17" width="27.99" height="27.57" rx="1.42" ry="1.42" transform="translate(1053.92 1412.22) rotate(-179.97)"/>
    <polygon class="st6" points="501.35 694.58 501.29 790.71 552.31 790.74 552.36 719.48 501.35 694.58"/>
  </g>
  <g>
    <g>
      <path class="st6" d="M653.96,968.75c-6.59,2.7-14.26-.79-17.14-7.8-2.12-5.16-.84-11.66,3.2-15.37.55-.51,1.71-1.56,3.54-2.22,5.7-2.07,14.32.92,17.14,7.8s-.14,14.88-6.73,17.59Z"/>
      <path class="st3" d="M641.56,946.12c-4.05,1.66-5.31,7.93-2.81,14.02"/>
      <path class="st3" d="M650.6,968.17c-4.05,1.66-9.35-1.92-11.85-8.02"/>
      <path class="st3" d="M650.6,968.17c.8-.33,1.71.04,2.03.82"/>
      <path class="st3" d="M641.56,946.12c.8-.33,1.17-1.28.82-2.13"/>
    </g>
    <g>
      <path class="st6" d="M694.93,951.95c6.59-2.7,9.61-10.58,6.73-17.59-2.12-5.16-7.59-8.89-13.06-8.7-.75.03-2.31.1-4.08.9-5.51,2.52-9.55,10.7-6.73,17.59,2.87,7.01,10.55,10.5,17.14,7.8Z"/>
      <path class="st3" d="M687.88,927.14c4.05-1.66,9.35,1.92,11.85,8.02"/>
      <path class="st3" d="M696.92,949.18c4.05-1.66,5.31-7.93,2.81-14.02"/>
      <path class="st3" d="M696.92,949.18c-.8.33-1.19,1.23-.87,2.01"/>
      <path class="st3" d="M687.88,927.14c-.8.33-1.73-.09-2.07-.94"/>
    </g>
    <rect class="st6" x="652.37" y="927.04" width="35.68" height="40.44" transform="translate(1649.61 1569.54) rotate(157.71)"/>
  </g>
  <g>
    <path class="st6" d="M631.36,726.55c-7.81,6.25-15.61,12.51-23.42,18.76-.41.18-.92.03-1.24-.37-8.7-8.32-16.19-17.9-22.13-28.35-.1-.17-.09-.38.04-.5.73-.59,1.45-1.17,2.18-1.76l21.02-16.97,23.56,29.18"/>
    <path class="st6" d="M632.86,724.95c-.66.68-1.37,1.26-2.16,1.77-.16.09-.37.04-.51-.13-7.75-9.16-15.34-18.45-22.76-27.88-.16-.26-.13-.57.07-.74.74-.71,1.54-1.33,2.41-1.88"/>
    <path class="st6" d="M627.6,727.64c.46.57,2.18-.06,3.84-1.4.13-.11.26-.22.39-.33l1.03-.95c.12-.14.11-.36-.02-.52l-22.93-28.41-2.42,1.95c-.78.65-1.55,1.3-2.33,1.95-.26.36-.22.89.1,1.29,5.94,9.96,13.52,18.92,22.34,26.42Z"/>
    <path class="st6" d="M629.25,726.59c-.43.13-.84.29-1.24.48-.51.13-1.02.29-1.51.48-.67.26-1.34.51-2.02.76-.93.34-1.81.76-2.66,1.26-.52.31-1.02.63-1.52.98-.52.36-1.05.73-1.56,1.1-1.23.89-2.41,1.84-3.54,2.86-1.14,1.03-2.18,2.14-3.14,3.35-.72.91-1.34,1.88-1.88,2.93-.34.66-.47,1.33-.4,2.13,0,.07.03.12.07.18l.41.51c.16.1.3.12.47.08,7.51-6.07,15.03-12.13,22.54-18.2.13-.11.14-.32.02-.48l-.13-.16h0c-.13-.15-.34-.19-.48-.1-.35.21-.69.42-1.04.62-.44.31-.9.58-1.38.8l-1.02.41Z"/>
    <path class="st6" d="M607.19,699.25c-.22.39-.46.76-.73,1.12-.24.47-.5.93-.79,1.37-.39.6-.78,1.2-1.17,1.81-.53.84-1.13,1.61-1.8,2.33-.41.44-.83.87-1.27,1.28-.47.44-.94.87-1.41,1.3-1.13,1.02-2.31,1.97-3.54,2.86-1.25.9-2.55,1.68-3.94,2.36-1.04.51-2.12.92-3.26,1.22-.72.19-1.4.18-2.16-.06-.06-.02-.11-.05-.16-.11l-.41-.51c-.06-.18-.06-.32.02-.48,7.51-6.07,15.03-12.13,22.54-18.2.13-.11.34-.07.47.09l.13.16h0c.12.16.12.37,0,.49-.28.29-.55.59-.83.88-.39.36-.75.75-1.08,1.18l-.61.91Z"/>
  </g>
  <circle class="st2" cx="577.44" cy="750.59" r="13.02" transform="translate(-123.71 114.03) rotate(-10.19)"/>
  <g>
    <g>
      <polyline class="st4" points="545.44 869.66 545.48 869.66 545.48 869.61"/>
      <line class="st5" x1="545.48" y1="868.92" x2="545.51" y2="825.4"/>
      <polyline class="st4" points="545.51 825.05 545.51 825.01 545.47 825.01"/>
      <line class="st0" x1="544.78" y1="825.01" x2="501.77" y2="824.98"/>
      <polyline class="st4" points="501.43 824.98 501.38 824.98 501.38 825.03"/>
      <line class="st5" x1="501.38" y1="825.72" x2="501.35" y2="869.24"/>
      <polyline class="st4" points="501.35 869.58 501.35 869.63 501.4 869.63"/>
      <line class="st0" x1="502.08" y1="869.63" x2="545.1" y2="869.66"/>
    </g>
    <g>
      <line class="st3" x1="523.48" y1="825.17" x2="523.47" y2="837.47"/>
      <path class="st6" d="M526.17,837.41c0-1.52-1.23-2.75-2.75-2.75s-2.75,1.23-2.75,2.75,1.23,2.75,2.75,2.75,2.75-1.23,2.75-2.75"/>
    </g>
  </g>
  <path class="st2" d="M571.93,824.26v16.09c-.01,6.19-4.47,11.2-9.97,11.2s-9.94-5.02-9.94-11.21v-16.09s19.91.01,19.91.01Z"/>
  <polygon class="st19" points="425.86 870.32 466.57 870.38 497.28 870.36 497.26 904.62 425.84 904.58 425.86 870.32"/>
  <g>
    <g>
      <polyline class="st9" points="432.88 899.75 432.89 878.56 454.09 878.57 454.07 899.77 432.88 899.75"/>
      <line class="st9" x1="443.54" y1="883.69" x2="443.55" y2="875.17"/>
    </g>
    <polyline class="st9" points="427.71 902.85 427.73 872.05 459.26 872.07 459.24 902.87 427.71 902.85"/>
  </g>
  <g>
    <g>
      <line class="st12" x1="487.06" y1="899.81" x2="487.06" y2="891.57"/>
      <line class="st12" x1="487.07" y1="884.21" x2="487.07" y2="875.97"/>
      <line class="st12" x1="490.88" y1="880.15" x2="483.16" y2="880.14"/>
      <line class="st12" x1="490.87" y1="895.64" x2="483.15" y2="895.64"/>
    </g>
    <polyline class="st8" points="478.68 902.88 478.69 872.09 495.36 872.1 495.34 902.89 478.68 902.88"/>
  </g>
  <path class="st7" d="M494.49,904.64"/>
  <path class="st14" d="M618.07,896.03l16.56-23.25s-7.42-4.86-16.54-4.9"/>
  <path class="st14" d="M618.1,839.47l16.53,22.76s-7.42,4.74-16.55,4.78"/>
  <rect class="st20" x="584.04" y="838.64" width="34.03" height="28.87"/>
  <rect class="st20" x="584.02" y="867.46" width="34.03" height="28.87"/>
  <g>
    <path class="st17" d="M500.77,878.89h18.5c.41.01.74.22.74.48l-.02,26.59c0,.32-.33.59-.74.59h-18.5"/>
    <path class="st3" d="M503.46,893.77c.55,0,1-.45,1-1s-.45-1-1-1-1,.45-1,1,.45,1,1,1"/>
    <g>
      <path class="st3" d="M512.27,893.98c.68,0,1.23-.55,1.23-1.23s-.55-1.23-1.23-1.23-1.23.55-1.23,1.23.55,1.23,1.23,1.23"/>
      <path class="st3" d="M512.27,894.57c1,0,1.82-.81,1.82-1.81s-.81-1.82-1.81-1.82-1.82.81-1.82,1.81.81,1.82,1.81,1.82"/>
    </g>
    <path class="st11" d="M506.68,880.93h10.82c.41,0,.74.24.74.53v22.61c-.01.29-.35.52-.75.52h-10.82c-.41,0-.74-.24-.74-.53v-22.61c.01-.29.35-.52.75-.52Z"/>
  </g>
  <rect class="st18" x="426.07" y="917.67" width="155.31" height="78.43"/>
  <g>
    <line class="st3" x1="546.36" y1="1023.88" x2="546.38" y2="1004.62"/>
    <line class="st3" x1="547.76" y1="1004.62" x2="547.74" y2="1023.88"/>
    <polyline class="st3" points="546.38 1004.62 546.38 1001.74 547.76 1001.74 547.76 1004.62 546.38 1004.62"/>
    <polyline class="st3" points="546.36 1026.7 546.36 1023.88 547.74 1023.88 547.74 1026.7 546.36 1026.7"/>
    <line class="st3" x1="543.3" y1="1024.9" x2="546.12" y2="1024.9"/>
    <line class="st3" x1="543.32" y1="1003.73" x2="546.14" y2="1003.73"/>
  </g>
  <rect class="st23" x="534.65" y="996.11" width="8.5" height="88.35"/>
  <polygon class="st23" points="417.58 986.14 417.46 1004.55 425.96 1004.56 426.09 986.15 417.58 986.14"/>
  <rect class="st23" x="417.52" y="863.14" width="8.5" height="78.74"/>
  <polygon class="st23" points="489.53 801.24 489.49 870.39 500.82 870.29 500.86 801.13 489.53 801.24"/>
  <rect class="st23" x="489.58" y="648.87" width="8.5" height="154.41"/>
  <rect class="st23" x="740.09" y="933.19" width="32.06" height="56.96" transform="translate(1823.85 1558.71) rotate(157.39)"/>
  <rect class="st23" x="728.23" y="947.19" width="32.06" height="69.58" transform="translate(1358.19 -86.33) rotate(67.04)"/>
  <polygon class="st23" points="543.12 1084.45 536.44 1068.68 538.17 1051.73 607.72 1022.27 620.22 1051.79 543.12 1084.45"/>
  <rect class="st23" x="673.83" y="783.08" width="32.06" height="40.44" transform="translate(1635.54 1279.61) rotate(157.39)"/>
  <rect class="st23" x="607.55" y="616.67" width="32.06" height="56.58" transform="translate(1447.21 1000.58) rotate(157.39)"/>
  <rect class="st23" x="476.91" y="939.49" width="8.5" height="121.69" transform="translate(1481.79 519.78) rotate(90.03)"/>
  <rect class="st23" x="451.47" y="827.74" width="8.5" height="76.38" transform="translate(1321.92 410.72) rotate(90.03)"/>
  <rect class="st22" x="716.87" y="977.98" width="8.5" height="56.02" transform="translate(-332.89 357.07) rotate(-22.75)"/>
  <rect class="st22" x="617.56" y="1018.78" width="8.5" height="57.17" transform="translate(-356.6 321.88) rotate(-22.75)"/>
  <rect class="st23" x="545.39" y="579.5" width="21.26" height="131.2" transform="translate(1065.66 -37.24) rotate(77.51)"/>
  <rect class="st23" x="527.48" y="767.14" width="23.42" height="91.14" transform="translate(1352.23 274.01) rotate(90.03)"/>
  <rect class="st23" x="581.17" y="807.77" width="3.54" height="110.57"/>
  <rect class="st23" x="497.29" y="808.21" width="3.54" height="110.06"/>
  <rect class="st23" x="576.01" y="910.67" width="3.54" height="11.76" transform="translate(1494.68 339.32) rotate(90.03)"/>
  <rect class="st23" x="510.62" y="901.43" width="3.54" height="30.15" transform="translate(1429.21 404.67) rotate(90.03)"/>
  <g>
    <path class="st3" d="M527.95,916.26c0-11.6,4.8-22.94,13.13-31.26,8.07-8.06,19.42-12.85,31.02-12.84"/>
    <line class="st3" x1="570.31" y1="916.28" x2="527.95" y2="916.26"/>
    <polyline class="st3" points="572.1 872.16 572.07 916.28 570.31 916.28"/>
  </g>
  <g>
    <path class="st3" d="M425.94,985.98c11.6,0,22.95-4.78,31.27-13.09,8.07-8.06,12.87-19.41,12.88-31.01"/>
    <line class="st3" x1="425.97" y1="943.62" x2="425.94" y2="985.98"/>
    <polyline class="st3" points="470.1 941.88 425.97 941.86 425.97 943.62"/>
  </g>
  <g>
    <line class="st11" x1="707.12" y1="850.67" x2="696.46" y2="825.22"/>
    <line class="st11" x1="701.38" y1="823.13" x2="712.05" y2="848.57"/>
    <line class="st11" x1="701.74" y1="821.57" x2="713.42" y2="849.41"/>
    <polyline class="st11" points="713.54 849.77 713.42 849.41 712.58 849.77 712.05 848.57 707.12 850.67 707.78 852.23 713.54 849.77"/>
    <polyline class="st11" points="701.74 821.57 701.56 821.21 695.8 823.6 696.46 825.22 701.38 823.13 700.9 821.93 701.74 821.57"/>
    <polyline class="st11" points="698.44 824.32 709.16 849.83 711.68 848.75 700.96 823.31 698.44 824.32"/>
    <line class="st11" x1="742.05" y1="933.97" x2="708.26" y2="853.43"/>
    <line class="st11" x1="713.24" y1="851.33" x2="746.97" y2="931.87"/>
    <line class="st11" x1="713.54" y1="849.77" x2="748.35" y2="932.71"/>
    <polyline class="st11" points="713.54 849.77 713.42 849.41 707.6 851.87 708.26 853.43 713.24 851.33 712.7 850.13 713.54 849.77"/>
    <polyline class="st11" points="748.47 933.07 748.35 932.71 747.51 933.07 746.97 931.87 742.05 933.97 742.71 935.53 748.47 933.07"/>
    <polyline class="st11" points="710.3 852.59 744.09 933.07 746.55 932.05 712.82 851.51 710.3 852.59"/>
  </g>
  <g>
    <line class="st11" x1="643.81" y1="699.88" x2="633.15" y2="674.43"/>
    <line class="st11" x1="638.07" y1="672.34" x2="648.73" y2="697.78"/>
    <line class="st11" x1="638.43" y1="670.78" x2="650.11" y2="698.62"/>
    <polyline class="st11" points="650.23 698.98 650.11 698.62 649.27 698.98 648.73 697.78 643.81 699.88 644.47 701.44 650.23 698.98"/>
    <polyline class="st11" points="638.43 670.78 638.25 670.42 632.49 672.81 633.15 674.43 638.07 672.34 637.59 671.14 638.43 670.78"/>
    <polyline class="st11" points="635.13 673.53 645.85 699.04 648.37 697.96 637.65 672.52 635.13 673.53"/>
    <line class="st11" x1="678.74" y1="783.18" x2="644.95" y2="702.64"/>
    <line class="st11" x1="649.93" y1="700.54" x2="683.66" y2="781.08"/>
    <line class="st11" x1="650.23" y1="698.98" x2="685.04" y2="781.92"/>
    <polyline class="st11" points="650.23 698.98 650.11 698.62 644.29 701.08 644.95 702.64 649.93 700.54 649.39 699.34 650.23 698.98"/>
    <polyline class="st11" points="685.16 782.28 685.04 781.92 684.2 782.28 683.66 781.08 678.74 783.18 679.4 784.74 685.16 782.28"/>
    <polyline class="st11" points="646.99 701.8 680.78 782.28 683.24 781.26 649.51 700.72 646.99 701.8"/>
  </g>
  <g>
    <polyline class="st11" points="660.88 1055.93 636.3 1066.37 637.35 1068.85 661.93 1058.41 660.88 1055.93"/>
    <polyline class="st10" points="724.18 1029.08 663.65 1054.78 664.7 1057.27 725.23 1031.56 724.18 1029.08"/>
    <line class="st11" x1="664.72" y1="1061.14" x2="637.46" y2="1072.72"/>
    <polyline class="st11" points="637.22 1072.82 637.6 1072.66 637.25 1071.83 638.47 1071.31 636.35 1066.34 634.75 1067.02 637.22 1072.82"/>
    <polyline class="st11" points="728.23 1034.17 727.84 1034.33 727.49 1033.5 726.27 1034.02 724.16 1029.05 725.77 1028.37 728.23 1034.17"/>
    <polyline class="st11" points="664.5 1061.23 664.88 1061.07 664.53 1060.24 665.69 1059.75 663.58 1054.78 660.88 1055.93 662.99 1060.9 664.15 1060.41 664.5 1061.23"/>
    <line class="st11" x1="638.41" y1="1071.34" x2="662.99" y2="1060.9"/>
    <line class="st11" x1="665.69" y1="1059.75" x2="726.27" y2="1034.02"/>
    <line class="st11" x1="637.35" y1="1068.85" x2="638.41" y2="1071.34"/>
    <line class="st11" x1="664.72" y1="1061.14" x2="728.03" y2="1034.25"/>
    <polyline class="st11" points="726.27 1034.02 727.49 1033.5 727.84 1034.33 728.23 1034.17 725.77 1028.37 724.16 1029.05 726.27 1034.02"/>
    <line class="st13" x1="637.35" y1="1068.85" x2="640.8" y2="1042.74"/>
    <line class="st13" x1="661.72" y1="1058.5" x2="640.54" y2="1042.86"/>
    <line class="st15" x1="636.32" y1="1066.42" x2="636.24" y2="1066.39"/>
    <line class="st11" x1="663.58" y1="1054.78" x2="724.16" y2="1029.05"/>
    <line class="st11" x1="636.3" y1="1066.37" x2="660.88" y2="1055.93"/>
    <polyline class="st11" points="660.88 1055.93 662.99 1060.9 664.15 1060.41 664.5 1061.23 664.88 1061.07 664.53 1060.24 665.69 1059.75 663.58 1054.78 660.88 1055.93"/>
    <polyline class="st11" points="637.2 1071.85 638.41 1071.34 636.3 1066.37 634.75 1067.02 637.22 1072.82 637.55 1072.68 637.2 1071.85"/>
    <polyline class="st11" points="638.41 1071.34 662.99 1060.9 661.93 1058.41 637.35 1068.85 638.41 1071.34"/>
  </g>
  <rect class="st16" x="425.84" y="917.62" width="155.51" height="78.53"/>
</svg>