<?xml version="1.0" encoding="UTF-8"?>
<svg id="Vinduer_i_facade" xmlns="http://www.w3.org/2000/svg" version="1.1" viewBox="0 0 1200 1697.14">
  <!-- Generator: Adobe Illustrator 29.6.0, SVG Export Plug-In . SVG Version: 2.1.1 Build 207)  -->
  <defs>
    <style>
      .st0 {
        stroke-dasharray: .08 .57;
        stroke-width: .19px;
      }

      .st0, .st1, .st2, .st3, .st4, .st5, .st6, .st7, .st8, .st9, .st10, .st11, .st12, .st13, .st14, .st15, .st16, .st17, .st18 {
        stroke: #363a3b;
      }

      .st0, .st2, .st3, .st4, .st5, .st6, .st7, .st8, .st9, .st10, .st11, .st19, .st12, .st13, .st20, .st21, .st22, .st14, .st15, .st16, .st23 {
        fill: none;
      }

      .st0, .st2, .st3, .st4, .st5, .st6, .st7, .st8, .st9, .st10, .st11, .st19, .st13, .st20, .st21, .st22, .st14, .st15, .st16, .st17, .st18, .st23 {
        stroke-linejoin: round;
      }

      .st0, .st2, .st3, .st4, .st5, .st6, .st7, .st8, .st9, .st10, .st11, .st19, .st13, .st20, .st21, .st22, .st17, .st18, .st23 {
        stroke-linecap: round;
      }

      .st24 {
        fill: #e2dedb;
      }

      .st1, .st6, .st19, .st20, .st22, .st18, .st23 {
        stroke-width: .28px;
      }

      .st1, .st12 {
        stroke-miterlimit: 10;
      }

      .st1, .st25, .st17, .st18 {
        fill: #fff;
      }

      .st2 {
        stroke-width: .3px;
      }

      .st3 {
        stroke-width: .31px;
      }

      .st4 {
        stroke-width: .3px;
      }

      .st5 {
        stroke-width: .28px;
      }

      .st7, .st14 {
        stroke-width: .28px;
      }

      .st8, .st17 {
        stroke-width: .28px;
      }

      .st9 {
        stroke-width: .28px;
      }

      .st10 {
        stroke-width: .28px;
      }

      .st11 {
        stroke-width: .29px;
      }

      .st26 {
        fill: #ece8e5;
      }

      .st19, .st20, .st21, .st22 {
        stroke: #000;
      }

      .st12 {
        stroke-width: .29px;
      }

      .st13, .st21 {
        stroke-dasharray: .06 .43;
        stroke-width: .18px;
      }

      .st20 {
        stroke-dasharray: .09 .69;
      }

      .st22 {
        stroke-dasharray: .09 .68;
      }

      .st27 {
        fill: #302c35;
      }

      .st15 {
        stroke-width: .29px;
      }

      .st16 {
        stroke-width: .28px;
      }

      .st23 {
        stroke: #00001d;
      }
    </style>
  </defs>
  <polygon class="st26" points="722.01 1008.05 600.3 1008.05 600.3 978.68 516.38 978.34 515.83 885.9 481.58 886.23 481.58 709.08 722.01 709.08 722.01 1008.05"/>
  <rect class="st25" x="681.03" y="800.58" width="34.26" height="125.53" transform="translate(1396.32 1726.69) rotate(180)"/>
  <polygon class="st24" points="716.57 964.03 603.83 964.1 603.83 849.23 716.13 849.15 716.57 964.03"/>
  <g>
    <line class="st6" x1="606.96" y1="972.52" x2="606.96" y2="991.78"/>
    <line class="st6" x1="608.34" y1="991.78" x2="608.34" y2="972.52"/>
    <polyline class="st6" points="606.96 991.78 606.96 994.66 608.34 994.66 608.34 991.78 606.96 991.78"/>
    <polyline class="st6" points="606.96 969.7 606.96 972.52 608.34 972.52 608.34 969.7 606.96 969.7"/>
    <line class="st6" x1="603.9" y1="971.5" x2="606.72" y2="971.5"/>
    <line class="st6" x1="603.9" y1="992.67" x2="606.72" y2="992.67"/>
  </g>
  <g>
    <polygon class="st12" points="715.2 926.11 715.17 888.77 715.2 858.07 680.94 858.07 680.94 926.11 715.2 926.11"/>
    <g>
      <g>
        <polyline class="st5" points="685.78 919.24 706.97 919.24 706.97 898.04 685.78 898.04 685.78 919.24"/>
        <line class="st5" x1="701.85" y1="908.59" x2="710.37" y2="908.59"/>
      </g>
      <polyline class="st5" points="682.67 924.41 713.47 924.41 713.47 892.88 682.67 892.88 682.67 924.41"/>
    </g>
    <g>
      <g>
        <line class="st11" x1="685.75" y1="868.05" x2="693.99" y2="868.05"/>
        <line class="st11" x1="701.35" y1="868.05" x2="709.59" y2="868.05"/>
        <line class="st11" x1="705.41" y1="864.24" x2="705.41" y2="871.96"/>
        <line class="st11" x1="689.92" y1="864.24" x2="689.92" y2="871.96"/>
      </g>
      <polyline class="st2" points="682.67 876.43 713.47 876.43 713.47 859.77 682.67 859.77 682.67 876.43"/>
    </g>
  </g>
  <path class="st23" d="M680.05,858.17"/>
  <g>
    <g>
      <polyline class="st19" points="520.46 929.61 520.42 929.61 520.42 929.65"/>
      <line class="st20" x1="520.42" y1="930.35" x2="520.42" y2="973.86"/>
      <polyline class="st19" points="520.42 974.21 520.42 974.26 520.46 974.26"/>
      <line class="st22" x1="521.15" y1="974.26" x2="564.16" y2="974.26"/>
      <polyline class="st19" points="564.5 974.26 564.55 974.26 564.55 974.21"/>
      <line class="st20" x1="564.55" y1="973.52" x2="564.55" y2="930"/>
      <polyline class="st19" points="564.55 929.65 564.55 929.61 564.5 929.61"/>
      <line class="st22" x1="563.82" y1="929.61" x2="520.81" y2="929.61"/>
    </g>
    <g>
      <line class="st6" x1="542.45" y1="974.08" x2="542.45" y2="961.78"/>
      <path class="st18" d="M539.75,961.84c0,1.52,1.23,2.75,2.75,2.75s2.75-1.23,2.75-2.75-1.23-2.75-2.75-2.75-2.75,1.23-2.75,2.75"/>
    </g>
  </g>
  <path class="st1" d="M567.24,975.03v-16.09c0-6.19,4.45-11.2,9.95-11.2,5.5,0,9.95,5.01,9.95,11.2v16.09s-19.9,0-19.9,0Z"/>
  <g>
    <path class="st17" d="M519.64,892.82h18.5c.41,0,.74.21.74.47v26.59c0,.32-.33.59-.74.59h-18.5"/>
    <path class="st6" d="M522.33,907.7c.55,0,1-.45,1-1s-.45-1-1-1-1,.45-1,1,.45,1,1,1"/>
    <g>
      <path class="st6" d="M531.15,907.9c.68,0,1.23-.55,1.23-1.23s-.55-1.23-1.23-1.23-1.23.55-1.23,1.23.55,1.23,1.23,1.23"/>
      <path class="st6" d="M531.15,908.49c1,0,1.82-.81,1.82-1.82s-.81-1.82-1.82-1.82-1.82.81-1.82,1.82.81,1.82,1.82,1.82"/>
    </g>
    <path class="st8" d="M525.55,894.85h10.82c.41,0,.74.23.74.52v22.61c0,.29-.33.52-.74.52h-10.82c-.41,0-.74-.23-.74-.52v-22.61c0-.29.33-.52.74-.52Z"/>
  </g>
  <g>
    <g>
      <path class="st18" d="M618.93,743.98c-7.12,0-12.9,6.14-12.9,13.72,0,5.58,3.65,11.1,8.79,13.01.7.26,2.18.79,4.11.71,6.06-.24,12.9-6.28,12.9-13.72s-5.78-13.72-12.9-13.72Z"/>
      <path class="st6" d="M616.04,769.61c-4.38,0-7.92-5.33-7.92-11.91"/>
      <path class="st6" d="M616.04,745.79c-4.38,0-7.92,5.33-7.92,11.91"/>
      <path class="st6" d="M616.04,745.79c.86,0,1.56-.68,1.56-1.53"/>
      <path class="st6" d="M616.04,769.61c.86,0,1.56.74,1.56,1.66"/>
    </g>
    <g>
      <path class="st18" d="M663.21,743.98c7.12,0,12.9,6.14,12.9,13.72,0,5.58-3.65,11.1-8.79,13.01-.7.26-2.18.79-4.11.71-6.06-.24-12.9-6.28-12.9-13.72s5.78-13.72,12.9-13.72Z"/>
      <path class="st6" d="M666.1,769.61c4.38,0,7.92-5.33,7.92-11.91"/>
      <path class="st6" d="M666.1,745.79c4.38,0,7.92,5.33,7.92,11.91"/>
      <path class="st6" d="M666.1,745.79c-.86,0-1.56-.68-1.56-1.53"/>
      <path class="st6" d="M666.1,769.61c-.86,0-1.56.74-1.56,1.66"/>
    </g>
    <rect class="st18" x="624.28" y="737.48" width="35.68" height="40.44" transform="translate(1284.23 1515.41) rotate(-180)"/>
  </g>
  <g>
    <rect class="st18" x="457.23" y="798.3" width="110.26" height="50.38" transform="translate(-311.12 1335.85) rotate(-90)"/>
    <rect class="st18" x="498.37" y="780.35" width="27.99" height="27.57" rx="1.42" ry="1.42"/>
    <polygon class="st18" points="538.2 782.78 538.2 878.91 487.18 878.91 487.18 807.64 538.2 782.78"/>
  </g>
  <circle class="st1" cx="564.31" cy="856.27" r="13.02"/>
  <rect class="st27" x="601.63" y="999.57" width="59.3" height="8.5"/>
  <rect class="st27" x="704.88" y="999.57" width="18.73" height="8.5"/>
  <rect class="st27" x="580.5" y="689.07" width="37.57" height="34.02"/>
  <rect class="st27" x="706.59" y="689.07" width="32.76" height="34.1"/>
  <rect class="st27" x="511.33" y="881.03" width="8.5" height="102.27"/>
  <rect class="st27" x="715.1" y="716.42" width="8.5" height="291.28"/>
  <rect class="st27" x="600.46" y="880.79" width="3.54" height="12.51"/>
  <rect class="st27" x="600.43" y="937.29" width="3.54" height="37.95" transform="translate(-1.65 1.04) rotate(-.1)"/>
  <rect class="st27" x="519.27" y="880.79" width="84.57" height="3.54"/>
  <rect class="st27" x="460.65" y="689.07" width="31.44" height="34.02"/>
  <rect class="st27" x="476.18" y="715.64" width="8.5" height="171.43"/>
  <rect class="st27" x="516.57" y="974.79" width="87.43" height="8.5"/>
  <rect class="st27" x="476.18" y="880.79" width="43.2" height="8.5"/>
  <polygon class="st27" points="595.5 1008.06 604.01 1008.07 603.99 975 595.48 975 595.5 1008.06"/>
  <g>
    <g>
      <line class="st6" x1="715" y1="800.58" x2="680.98" y2="800.58"/>
      <g>
        <line class="st6" x1="715" y1="829.35" x2="680.98" y2="829.35"/>
        <line class="st6" x1="680.98" y1="830.12" x2="680.98" y2="800.64"/>
        <line class="st6" x1="680.98" y1="830.12" x2="680.98" y2="858.05"/>
        <path class="st23" d="M680.98,858.44"/>
        <line class="st6" x1="715" y1="858.05" x2="680.98" y2="858.05"/>
      </g>
    </g>
    <path class="st13" d="M680.98,857.94l-16.54-23.26s7.42-4.85,16.54-4.89"/>
    <path class="st13" d="M680.98,801.38l-16.54,22.75s7.42,4.74,16.54,4.79"/>
  </g>
  <g>
    <path class="st6" d="M602.35,937.35c-11.6,0-22.94-4.79-31.27-13.11-8.07-8.07-12.86-19.41-12.86-31.01"/>
    <line class="st6" x1="602.35" y1="894.99" x2="602.35" y2="937.35"/>
    <polyline class="st6" points="558.22 893.22 602.35 893.22 602.35 894.99"/>
  </g>
  <g>
    <path class="st6" d="M660.77,999.72c0-11.6,4.79-22.95,13.11-31.27,8.07-8.07,19.42-12.86,31.01-12.86"/>
    <line class="st6" x1="703.13" y1="999.72" x2="660.77" y2="999.72"/>
    <polyline class="st6" points="704.9 955.6 704.9 999.72 703.13 999.72"/>
  </g>
  <g>
    <g>
      <path class="st0" d="M549.79,709.21c.01,15.52-4.79,27.77-15.77,39.21-10.64,11.09-25.64,17.62-41,17.69"/>
      <path class="st0" d="M551.21,708.98"/>
      <path class="st0" d="M492.77,709.22"/>
      <line class="st0" x1="493.02" y1="766.1" x2="492.77" y2="709.22"/>
    </g>
    <line class="st8" x1="523.3" y1="702.97" x2="493.27" y2="702.97"/>
    <polyline class="st8" points="546.59 707.05 495.73 707.05 495.73 704.29 546.59 704.29 546.59 707.05"/>
    <line class="st8" x1="525.92" y1="709.21" x2="576.92" y2="709.21"/>
    <line class="st8" x1="579.38" y1="709.21" x2="523.76" y2="709.21"/>
    <line class="st8" x1="525.92" y1="709.21" x2="576.92" y2="709.21"/>
    <line class="st8" x1="579.38" y1="709.21" x2="495.73" y2="709.21"/>
    <line class="st8" x1="525.92" y1="709.21" x2="576.92" y2="709.21"/>
    <line class="st7" x1="579.38" y1="702.97" x2="522.84" y2="702.97"/>
    <line class="st8" x1="579.89" y1="700.69" x2="492.77" y2="700.69"/>
    <polyline class="st3" points="580.16 709.21 578.21 709.21 578.21 703.76 579.38 703.76 579.38 702.85 580.16 702.85 580.16 709.21"/>
    <polyline class="st8" points="578.21 707.05 550.73 707.05 550.73 704.29 578.21 704.29 578.21 707.05"/>
    <polyline class="st3" points="492.5 709.21 495.73 709.21 495.73 703.76 493.27 703.76 493.27 702.85 492.5 702.85 492.5 709.21"/>
    <rect class="st8" x="492.77" y="699.85" width=".54" height="1.74" transform="translate(986.07 1401.43) rotate(180)"/>
    <rect class="st8" x="497.33" y="699.85" width=".54" height="1.74" transform="translate(995.19 1401.43) rotate(180)"/>
    <rect class="st8" x="501.89" y="699.85" width=".54" height="1.74" transform="translate(1004.31 1401.43) rotate(180)"/>
    <rect class="st8" x="506.45" y="699.85" width=".54" height="1.74" transform="translate(1013.43 1401.43) rotate(180)"/>
    <rect class="st8" x="510.98" y="699.85" width=".54" height="1.74" transform="translate(1022.49 1401.43) rotate(180)"/>
    <rect class="st8" x="515.54" y="699.85" width=".54" height="1.74" transform="translate(1031.61 1401.43) rotate(180)"/>
    <rect class="st8" x="520.1" y="699.85" width=".54" height="1.74" transform="translate(1040.73 1401.43) rotate(180)"/>
    <rect class="st8" x="524.66" y="699.85" width=".54" height="1.74" transform="translate(1049.85 1401.43) rotate(180)"/>
    <rect class="st8" x="529.22" y="699.85" width=".54" height="1.74" transform="translate(1058.97 1401.43) rotate(180)"/>
    <rect class="st8" x="533.78" y="699.85" width=".54" height="1.74" transform="translate(1068.09 1401.43) rotate(180)"/>
    <rect class="st8" x="538.34" y="699.85" width=".54" height="1.74" transform="translate(1077.21 1401.43) rotate(180)"/>
    <rect class="st8" x="542.9" y="699.85" width=".54" height="1.74" transform="translate(1086.33 1401.43) rotate(180)"/>
    <rect class="st8" x="547.43" y="699.82" width=".54" height="1.74" transform="translate(1095.39 1401.37) rotate(180)"/>
    <rect class="st8" x="551.99" y="699.82" width=".54" height="1.74" transform="translate(1104.51 1401.37) rotate(180)"/>
    <rect class="st8" x="556.55" y="699.82" width=".54" height="1.74" transform="translate(1113.63 1401.37) rotate(180)"/>
    <rect class="st8" x="561.11" y="699.82" width=".54" height="1.74" transform="translate(1122.75 1401.37) rotate(180)"/>
    <rect class="st8" x="565.67" y="699.82" width=".54" height="1.74" transform="translate(1131.87 1401.37) rotate(180)"/>
    <rect class="st8" x="570.23" y="699.82" width=".54" height="1.74" transform="translate(1140.99 1401.37) rotate(180)"/>
    <rect class="st8" x="574.79" y="699.82" width=".54" height="1.74" transform="translate(1150.11 1401.37) rotate(180)"/>
    <rect class="st8" x="579.35" y="699.82" width=".54" height="1.74" transform="translate(1159.23 1401.37) rotate(180)"/>
    <line class="st10" x1="546.59" y1="703.76" x2="578.21" y2="703.76"/>
    <line class="st16" x1="493.27" y1="703.76" x2="546.59" y2="703.76"/>
    <g>
      <polyline class="st9" points="549.78 702.85 548.87 702.85 548.87 709.21 550.72 709.21 550.72 703.76 549.78 703.76 549.78 702.85"/>
      <polyline class="st15" points="548.87 703.76 546.58 703.76 546.58 709.21"/>
      <polyline class="st4" points="546.58 709.21 549.78 709.21 549.78 702.85 549.78 702.85 548.87 702.85"/>
    </g>
    <line class="st14" x1="580.68" y1="704" x2="580.18" y2="704"/>
    <line class="st14" x1="492.49" y1="704" x2="491.99" y2="704"/>
  </g>
  <g>
    <g>
      <path class="st0" d="M675.86,709.21c.01,15.52-4.79,27.77-15.77,39.21-10.64,11.09-25.64,17.62-41,17.69"/>
      <path class="st0" d="M677.28,708.98"/>
      <path class="st0" d="M618.84,709.22"/>
      <line class="st0" x1="619.09" y1="766.1" x2="618.84" y2="709.22"/>
    </g>
    <line class="st8" x1="649.37" y1="702.97" x2="619.34" y2="702.97"/>
    <polyline class="st8" points="672.66 707.05 621.8 707.05 621.8 704.29 672.66 704.29 672.66 707.05"/>
    <line class="st8" x1="651.99" y1="709.21" x2="702.99" y2="709.21"/>
    <line class="st8" x1="705.45" y1="709.21" x2="649.83" y2="709.21"/>
    <line class="st8" x1="651.99" y1="709.21" x2="702.99" y2="709.21"/>
    <line class="st8" x1="705.45" y1="709.21" x2="621.8" y2="709.21"/>
    <line class="st8" x1="651.99" y1="709.21" x2="702.99" y2="709.21"/>
    <line class="st7" x1="705.45" y1="702.97" x2="648.91" y2="702.97"/>
    <line class="st8" x1="705.96" y1="700.69" x2="618.84" y2="700.69"/>
    <polyline class="st3" points="706.23 709.21 704.28 709.21 704.28 703.76 705.45 703.76 705.45 702.85 706.23 702.85 706.23 709.21"/>
    <polyline class="st8" points="704.28 707.05 676.8 707.05 676.8 704.29 704.28 704.29 704.28 707.05"/>
    <polyline class="st3" points="618.57 709.21 621.8 709.21 621.8 703.76 619.34 703.76 619.34 702.85 618.57 702.85 618.57 709.21"/>
    <rect class="st8" x="618.84" y="699.85" width=".54" height="1.74" transform="translate(1238.22 1401.43) rotate(180)"/>
    <rect class="st8" x="623.4" y="699.85" width=".54" height="1.74" transform="translate(1247.34 1401.43) rotate(180)"/>
    <rect class="st8" x="627.96" y="699.85" width=".54" height="1.74" transform="translate(1256.46 1401.43) rotate(180)"/>
    <rect class="st8" x="632.52" y="699.85" width=".54" height="1.74" transform="translate(1265.58 1401.43) rotate(180)"/>
    <rect class="st8" x="637.05" y="699.85" width=".54" height="1.74" transform="translate(1274.64 1401.43) rotate(180)"/>
    <rect class="st8" x="641.61" y="699.85" width=".54" height="1.74" transform="translate(1283.76 1401.43) rotate(180)"/>
    <rect class="st8" x="646.17" y="699.85" width=".54" height="1.74" transform="translate(1292.88 1401.43) rotate(180)"/>
    <rect class="st8" x="650.73" y="699.85" width=".54" height="1.74" transform="translate(1302 1401.43) rotate(180)"/>
    <rect class="st8" x="655.29" y="699.85" width=".54" height="1.74" transform="translate(1311.12 1401.43) rotate(180)"/>
    <rect class="st8" x="659.85" y="699.85" width=".54" height="1.74" transform="translate(1320.24 1401.43) rotate(180)"/>
    <rect class="st8" x="664.41" y="699.85" width=".54" height="1.74" transform="translate(1329.36 1401.43) rotate(180)"/>
    <rect class="st8" x="668.97" y="699.85" width=".54" height="1.74" transform="translate(1338.48 1401.43) rotate(180)"/>
    <rect class="st8" x="673.5" y="699.82" width=".54" height="1.74" transform="translate(1347.54 1401.37) rotate(180)"/>
    <rect class="st8" x="678.06" y="699.82" width=".54" height="1.74" transform="translate(1356.66 1401.37) rotate(180)"/>
    <rect class="st8" x="682.62" y="699.82" width=".54" height="1.74" transform="translate(1365.78 1401.37) rotate(180)"/>
    <rect class="st8" x="687.18" y="699.82" width=".54" height="1.74" transform="translate(1374.9 1401.37) rotate(180)"/>
    <rect class="st8" x="691.74" y="699.82" width=".54" height="1.74" transform="translate(1384.02 1401.37) rotate(180)"/>
    <rect class="st8" x="696.3" y="699.82" width=".54" height="1.74" transform="translate(1393.14 1401.37) rotate(180)"/>
    <rect class="st8" x="700.86" y="699.82" width=".54" height="1.74" transform="translate(1402.26 1401.37) rotate(180)"/>
    <rect class="st8" x="705.42" y="699.82" width=".54" height="1.74" transform="translate(1411.38 1401.37) rotate(180)"/>
    <line class="st10" x1="672.66" y1="703.76" x2="704.28" y2="703.76"/>
    <line class="st16" x1="619.34" y1="703.76" x2="672.66" y2="703.76"/>
    <g>
      <polyline class="st9" points="675.86 702.85 674.94 702.85 674.94 709.21 676.8 709.21 676.8 703.76 675.86 703.76 675.86 702.85"/>
      <polyline class="st15" points="674.94 703.76 672.66 703.76 672.66 709.21"/>
      <polyline class="st4" points="672.66 709.21 675.86 709.21 675.86 702.85 675.86 702.85 674.94 702.85"/>
    </g>
    <line class="st14" x1="706.75" y1="704" x2="706.25" y2="704"/>
    <line class="st14" x1="618.57" y1="704" x2="618.07" y2="704"/>
  </g>
  <rect class="st21" x="604.01" y="849.15" width="116.97" height="114.95"/>
</svg>