<?xml version="1.0" encoding="UTF-8"?>
<svg id="Vinduer_i_facade" xmlns="http://www.w3.org/2000/svg" version="1.1" viewBox="0 0 1200 1697.14">
  <!-- Generator: Adobe Illustrator 29.6.0, SVG Export Plug-In . SVG Version: 2.1.1 Build 207)  -->
  <defs>
    <style>
      .st0 {
        fill: #e2dedb;
      }

      .st1 {
        stroke-dasharray: .09 .69;
      }

      .st1, .st2, .st3, .st4, .st5, .st6, .st7 {
        stroke-width: .28px;
      }

      .st1, .st8, .st9, .st3, .st10, .st11, .st12, .st4, .st13, .st14, .st15, .st16, .st5, .st17, .st6 {
        fill: none;
      }

      .st1, .st8, .st9, .st3, .st10, .st11, .st12, .st4, .st14, .st15, .st16, .st5, .st17, .st6, .st18, .st7 {
        stroke-linecap: round;
        stroke-linejoin: round;
      }

      .st1, .st4, .st5, .st17, .st6 {
        stroke: #000;
      }

      .st19, .st2, .st8, .st9, .st3, .st10, .st11, .st12, .st13, .st14, .st15, .st18, .st7 {
        stroke: #363a3b;
      }

      .st19, .st2, .st13 {
        stroke-miterlimit: 10;
      }

      .st19, .st2, .st18, .st7 {
        fill: #fff;
      }

      .st19, .st13 {
        stroke-width: .29px;
      }

      .st8 {
        stroke-width: .3px;
      }

      .st9 {
        stroke-width: .28px;
      }

      .st10 {
        stroke-width: .28px;
      }

      .st11, .st16, .st18 {
        stroke-width: .28px;
      }

      .st12 {
        stroke-width: .29px;
      }

      .st20 {
        fill: #ece8e5;
      }

      .st14 {
        stroke-width: .18px;
      }

      .st14, .st15, .st17 {
        stroke-dasharray: .06 .43;
      }

      .st15, .st17 {
        stroke-width: .18px;
      }

      .st16 {
        stroke: #0e0e0e;
      }

      .st5 {
        stroke-dasharray: .09 .69;
      }

      .st6 {
        stroke-dasharray: .09 .68;
      }

      .st21 {
        fill: #302c35;
      }
    </style>
  </defs>
  <line class="st1" x1="474.28" y1="712.89" x2="434.23" y2="802.79"/>
  <polygon class="st20" points="432.46 807 474.43 712.56 470.9 704.82 488.19 667.58 617.66 696.84 622.49 703.82 720.59 722.76 761.81 698.84 765.31 865.77 821.05 866.7 821.05 1057.53 724.08 1057.52 724.08 953.56 606.58 953.56 606.58 869.76 570.66 869.76 432.46 807"/>
  <line class="st1" x1="474.28" y1="712.89" x2="434.23" y2="802.79"/>
  <line class="st1" x1="719.26" y1="722.51" x2="622.49" y2="703.82"/>
  <g>
    <polyline class="st7" points="783.91 973.77 783.91 951.71 817.93 951.71 817.93 973.77 783.91 973.77"/>
    <path class="st7" d="M783.91,951.32"/>
    <path class="st7" d="M783.91,951.71"/>
  </g>
  <g>
    <polyline class="st7" points="783.91 973.99 783.91 995.84 817.93 995.84 817.93 973.99 783.91 973.99"/>
    <path class="st7" d="M783.91,995.71"/>
    <path class="st7" d="M783.91,995.37"/>
  </g>
  <g>
    <rect class="st7" x="457.31" y="783.12" width="110.26" height="50.38" transform="translate(655.09 1754.68) rotate(-156.2)"/>
    <rect class="st7" x="471.59" y="782.68" width="27.99" height="27.57" rx="1.42" ry="1.42" transform="translate(1410.27 673.61) rotate(113.8)"/>
    <polygon class="st7" points="464.77 815.52 552.72 854.31 573.31 807.63 508.11 778.87 464.77 815.52"/>
  </g>
  <g>
    <g>
      <path class="st7" d="M624.1,850.41c-7.12-.02-12.88-6.17-12.87-13.75.01-5.58,3.67-11.1,8.82-12.99.7-.26,2.18-.78,4.11-.7,6.06.26,12.88,6.31,12.87,13.75s-5.81,13.7-12.93,13.69Z"/>
      <path class="st3" d="M621.26,824.77c-4.38-.01-7.93,5.31-7.95,11.89"/>
      <path class="st3" d="M621.21,848.59c-4.38-.01-7.91-5.35-7.89-11.93"/>
      <path class="st3" d="M621.21,848.59c.86,0,1.56.69,1.56,1.53"/>
      <path class="st3" d="M621.26,824.77c.86,0,1.57-.74,1.57-1.65"/>
    </g>
    <g>
      <path class="st7" d="M668.37,850.51c7.12.02,12.91-6.11,12.93-13.69.01-5.58-3.62-11.11-8.76-13.03-.7-.26-2.17-.79-4.11-.72-6.06.23-12.91,6.25-12.93,13.69-.02,7.58,5.74,13.73,12.87,13.75Z"/>
      <path class="st3" d="M671.32,824.89c4.38.01,7.91,5.35,7.89,11.93"/>
      <path class="st3" d="M671.27,848.71c4.38.01,7.93-5.31,7.95-11.89"/>
      <path class="st3" d="M671.27,848.71c-.86,0-1.57.68-1.57,1.53"/>
      <path class="st3" d="M671.32,824.89c-.86,0-1.56-.74-1.56-1.66"/>
    </g>
    <rect class="st7" x="629.47" y="816.52" width="35.68" height="40.44" transform="translate(1292.67 1674.99) rotate(-179.87)"/>
  </g>
  <circle class="st2" cx="672.94" cy="743.57" r="13.02"/>
  <g>
    <path class="st3" d="M659.18,877.29c0,11.6,4.79,22.94,13.11,31.27,8.07,8.07,19.41,12.86,31.01,12.86"/>
    <line class="st3" x1="701.54" y1="877.29" x2="659.18" y2="877.29"/>
    <polyline class="st3" points="703.31 921.42 703.31 877.29 701.54 877.29"/>
  </g>
  <g>
    <g>
      <polyline class="st4" points="655.82 948.2 655.82 948.24 655.78 948.24"/>
      <line class="st5" x1="655.09" y1="948.24" x2="611.57" y2="948.24"/>
      <polyline class="st4" points="611.22 948.24 611.17 948.24 611.17 948.2"/>
      <line class="st6" x1="611.17" y1="947.51" x2="611.17" y2="904.5"/>
      <polyline class="st4" points="611.17 904.16 611.17 904.11 611.22 904.11"/>
      <line class="st5" x1="611.91" y1="904.11" x2="655.43" y2="904.11"/>
      <polyline class="st4" points="655.78 904.11 655.82 904.11 655.82 904.16"/>
      <line class="st6" x1="655.82" y1="904.84" x2="655.82" y2="947.85"/>
    </g>
    <g>
      <line class="st3" x1="611.35" y1="926.21" x2="623.65" y2="926.21"/>
      <path class="st7" d="M623.59,928.9c-1.52,0-2.75-1.23-2.75-2.75s1.23-2.75,2.75-2.75c1.52,0,2.75,1.23,2.75,2.75s-1.23,2.75-2.75,2.75"/>
    </g>
  </g>
  <path class="st2" d="M610.44,897.77h16.09c6.19,0,11.2-4.45,11.2-9.95s-5.01-9.95-11.2-9.95h-16.09s0,19.9,0,19.9Z"/>
  <g>
    <path class="st18" d="M694.4,948.75v-18.5c0-.41-.21-.74-.47-.74h-26.59c-.32,0-.59.33-.59.74v18.5"/>
    <path class="st3" d="M679.52,946.05c0-.55.45-1,1-1s1,.45,1,1-.45,1-1,1-1-.45-1-1"/>
    <g>
      <path class="st3" d="M679.31,937.24c0-.68.55-1.23,1.23-1.23s1.23.55,1.23,1.23-.55,1.23-1.23,1.23-1.23-.55-1.23-1.23"/>
      <path class="st3" d="M678.73,937.24c0-1,.81-1.82,1.82-1.82s1.82.81,1.82,1.82-.81,1.82-1.82,1.82-1.82-.81-1.82-1.82"/>
    </g>
    <path class="st11" d="M692.37,942.84v-10.82c0-.41-.23-.74-.52-.74h-22.61c-.29,0-.52.33-.52.74v10.82c0,.41.23.74.52.74h22.61c.29,0,.52-.33.52-.74Z"/>
  </g>
  <g>
    <polygon class="st19" points="818.19 883.64 818.16 920.97 818.19 951.68 783.93 951.68 783.93 883.64 818.19 883.64"/>
    <g>
      <g>
        <polyline class="st9" points="788.76 890.51 809.96 890.51 809.96 911.71 788.76 911.71 788.76 890.51"/>
        <line class="st9" x1="804.83" y1="901.16" x2="813.36" y2="901.16"/>
      </g>
      <polyline class="st9" points="785.66 885.34 816.46 885.34 816.46 916.87 785.66 916.87 785.66 885.34"/>
    </g>
    <g>
      <g>
        <line class="st12" x1="788.73" y1="941.7" x2="796.98" y2="941.7"/>
        <line class="st12" x1="804.34" y1="941.7" x2="812.58" y2="941.7"/>
        <line class="st12" x1="808.4" y1="945.51" x2="808.4" y2="937.79"/>
        <line class="st12" x1="792.91" y1="945.51" x2="792.91" y2="937.79"/>
      </g>
      <polyline class="st8" points="785.66 933.32 816.46 933.32 816.46 949.98 785.66 949.98 785.66 933.32"/>
    </g>
  </g>
  <g>
    <path class="st7" d="M720.72,734.71c-6.26,7.8-12.52,15.61-18.78,23.41-.18.41-.03.92.37,1.24,8.31,8.71,17.89,16.2,28.33,22.15.17.1.38.09.5-.04.59-.73,1.17-1.45,1.76-2.18l16.98-21.01-29.17-23.57"/>
    <path class="st7" d="M722.33,733.21c-.68.65-1.26,1.37-1.77,2.16-.09.16-.04.37.13.51,9.16,7.76,18.44,15.35,27.86,22.78.26.16.57.13.74-.07.71-.74,1.34-1.54,1.88-2.41"/>
    <path class="st7" d="M719.64,738.47c-.57-.46.06-2.18,1.4-3.84.11-.13.22-.26.33-.39l.95-1.03c.14-.12.36-.11.52.02l28.39,22.95-1.95,2.42c-.65.78-1.3,1.55-1.96,2.33-.36.26-.89.22-1.29-.1-9.96-5.95-18.92-13.54-26.4-22.35Z"/>
    <path class="st7" d="M720.69,736.81c-.13.43-.29.84-.48,1.24-.13.51-.29,1.02-.48,1.51-.26.67-.51,1.34-.76,2.02-.34.93-.76,1.81-1.27,2.66-.31.52-.63,1.02-.98,1.52-.36.52-.73,1.05-1.11,1.56-.89,1.23-1.84,2.41-2.86,3.54-1.03,1.14-2.14,2.18-3.35,3.14-.91.72-1.88,1.34-2.93,1.88-.66.34-1.33.46-2.13.4-.07,0-.12-.03-.18-.07l-.51-.41c-.1-.16-.12-.3-.08-.47,6.07-7.51,12.14-15.02,18.21-22.53.11-.13.32-.14.48-.01l.16.13h0c.15.13.19.34.1.48-.21.35-.42.69-.63,1.04-.31.44-.58.89-.81,1.38l-.41,1.02Z"/>
    <path class="st7" d="M740.74,770.57c3.66-4.53,7.33-9.06,10.99-13.6.11-.13.07-.34-.09-.47l-.16-.13h0c-.16-.12-.37-.12-.49,0-.29.28-.59.55-.88.83-.36.39-.75.75-1.18,1.08l-.91.61c-.39.22-.76.46-1.12.73-.47.24-.93.5-1.37.79-.6.39-1.21.78-1.81,1.16-.84.53-1.61,1.13-2.33,1.8-.44.41-.87.83-1.28,1.27-.44.47-.87.94-1.3,1.41-1.02,1.13-1.97,2.3-2.86,3.54-.9,1.24-1.68,2.55-2.36,3.93-.51,1.04-.92,2.12-1.22,3.26-.19.72-.18,1.4.05,2.16.02.06.05.11.11.16l.51.41c.18.06.32.06.48-.02,2.41-2.98,4.82-5.96,7.22-8.94"/>
  </g>
  <polygon class="st0" points="704.33 870.7 704.33 952.92 724.09 952.92 724.09 1000.59 807.74 1000.59 807.74 870.7 704.33 870.7"/>
  <g>
    <line class="st3" x1="757.87" y1="861.51" x2="757.85" y2="842.24"/>
    <line class="st3" x1="756.47" y1="842.24" x2="756.49" y2="861.51"/>
    <polyline class="st3" points="757.85 842.24 757.85 839.36 756.47 839.36 756.47 842.24 757.85 842.24"/>
    <polyline class="st3" points="757.88 864.33 757.87 861.51 756.49 861.51 756.5 864.33 757.88 864.33"/>
    <line class="st3" x1="760.94" y1="862.52" x2="758.12" y2="862.53"/>
    <line class="st3" x1="760.91" y1="841.35" x2="758.09" y2="841.35"/>
  </g>
  <g>
    <polyline class="st3" points="783.91 973.99 783.91 951.67 817.93 951.67 817.93 973.99 783.91 973.99"/>
    <path class="st3" d="M783.91,951.32"/>
    <path class="st3" d="M783.91,951.67"/>
  </g>
  <path class="st15" d="M783.91,951.71l-12.8,17.38s5.74,3.88,12.8,3.91"/>
  <g>
    <polyline class="st3" points="783.91 973.77 783.91 995.84 817.93 995.84 817.93 973.77 783.91 973.77"/>
    <path class="st3" d="M783.91,996.19"/>
    <path class="st3" d="M783.91,995.84"/>
  </g>
  <path class="st15" d="M783.91,995.84l-12.8-17.38s5.74-3.88,12.8-3.91"/>
  <g>
    <polygon class="st13" points="818.19 883.64 818.16 920.97 818.19 951.68 783.93 951.68 783.93 883.64 818.19 883.64"/>
    <g>
      <g>
        <polyline class="st9" points="788.76 890.51 809.96 890.51 809.96 911.71 788.76 911.71 788.76 890.51"/>
        <line class="st9" x1="804.83" y1="901.16" x2="813.36" y2="901.16"/>
      </g>
      <polyline class="st9" points="785.66 885.34 816.46 885.34 816.46 916.87 785.66 916.87 785.66 885.34"/>
    </g>
    <g>
      <g>
        <line class="st12" x1="788.73" y1="941.7" x2="796.98" y2="941.7"/>
        <line class="st12" x1="804.34" y1="941.7" x2="812.58" y2="941.7"/>
        <line class="st12" x1="808.4" y1="945.51" x2="808.4" y2="937.79"/>
        <line class="st12" x1="792.91" y1="945.51" x2="792.91" y2="937.79"/>
      </g>
      <polyline class="st8" points="785.66 933.32 816.46 933.32 816.46 949.98 785.66 949.98 785.66 933.32"/>
    </g>
  </g>
  <rect class="st21" x="723.19" y="686.74" width="8.5" height="37" transform="translate(146.58 -124.9) rotate(10.91)"/>
  <rect class="st21" x="731.26" y="692.84" width="34.02" height="35.87" transform="translate(-91.24 1311.05) rotate(-79.09)"/>
  <rect class="st21" x="375.48" y="790.47" width="57.02" height="20.98" transform="translate(448.08 1696.96) rotate(-156.05)"/>
  <rect class="st21" x="421.37" y="692.72" width="56.94" height="8.5" transform="translate(578.05 1516.54) rotate(-156.05)"/>
  <polygon class="st21" points="433.12 804.5 573.39 866.4 569.97 874.18 429.7 812.29 433.12 804.5"/>
  <rect class="st21" x="526.34" y="592.31" width="34.02" height="157.93" transform="translate(-218.65 1077.71) rotate(-79.09)"/>
  <polygon class="st21" points="469.03 639.62 500.22 653.18 474.43 712.56 443.36 698.7 469.03 639.62"/>
  <rect class="st21" x="617.59" y="666.12" width="8.5" height="37.23" transform="translate(140.8 -105.29) rotate(10.91)"/>
  <rect class="st21" x="760.62" y="697.48" width="8.5" height="173.43"/>
  <rect class="st21" x="718.78" y="948.73" width="8.5" height="108.42"/>
  <rect class="st21" x="602.18" y="865.59" width="8.5" height="91.63"/>
  <rect class="st21" x="583.19" y="852.44" width="8.5" height="34.97" transform="translate(-282.48 1457.36) rotate(-90)"/>
  <rect class="st21" x="701.49" y="921.43" width="3.54" height="35.08"/>
  <rect class="st21" x="701.49" y="864.93" width="3.54" height="12.36"/>
  <rect class="st21" x="634.62" y="797.86" width="3.54" height="137.28" transform="translate(-230.11 1502.9) rotate(-90)"/>
  <rect class="st21" x="662.56" y="892.59" width="8.5" height="120.75" transform="translate(-286.14 1619.8) rotate(-90)"/>
  <rect class="st21" x="788.54" y="835.23" width="8.5" height="62.78" transform="translate(-73.82 1659.42) rotate(-90)"/>
  <rect class="st21" x="719.11" y="1048.65" width="45.1" height="8.5"/>
  <rect class="st21" x="807.89" y="1048.65" width="16.8" height="8.5"/>
  <rect class="st21" x="732.21" y="963.06" width="179.7" height="8.5" transform="translate(-145.25 1789.36) rotate(-90)"/>
  <rect class="st21" x="783.77" y="862.4" width="42.54" height="21.26" transform="translate(1610.1 1746.06) rotate(180)"/>
  <g>
    <path class="st3" d="M763.89,1048.79c0-11.6,4.79-22.95,13.11-31.27,8.07-8.07,19.42-12.86,31.01-12.86"/>
    <line class="st3" x1="806.25" y1="1048.79" x2="763.89" y2="1048.79"/>
    <polyline class="st3" points="808.02 1004.67 808.02 1048.79 806.25 1048.79"/>
  </g>
  <g>
    <polyline class="st11" points="415.72 717.5 426.45 693.05 423.98 691.96 413.25 716.41 415.72 717.5"/>
    <polyline class="st10" points="388.05 780.44 414.49 720.23 412.02 719.15 385.58 779.36 388.05 780.44"/>
    <line class="st11" x1="409.35" y1="716.34" x2="421.25" y2="689.23"/>
    <polyline class="st11" points="421.36 688.98 421.19 689.36 422.02 689.72 421.49 690.93 426.43 693.1 427.13 691.51 421.36 688.98"/>
    <polyline class="st11" points="381.61 779.52 381.78 779.13 382.6 779.49 383.14 778.29 388.08 780.46 387.38 782.05 381.61 779.52"/>
    <polyline class="st11" points="409.45 716.12 409.28 716.5 410.1 716.86 409.6 718.02 414.54 720.19 415.72 717.5 410.78 715.33 410.27 716.48 409.45 716.12"/>
    <line class="st11" x1="421.51" y1="690.88" x2="410.78" y2="715.33"/>
    <line class="st11" x1="409.6" y1="718.02" x2="383.14" y2="778.29"/>
    <line class="st11" x1="423.98" y1="691.96" x2="421.51" y2="690.88"/>
    <line class="st11" x1="409.35" y1="716.34" x2="381.7" y2="779.32"/>
    <polyline class="st11" points="383.14 778.29 382.6 779.49 381.78 779.13 381.61 779.52 387.38 782.05 388.08 780.46 383.14 778.29"/>
    <line class="st14" x1="423.98" y1="691.96" x2="439.37" y2="713.33"/>
    <line class="st14" x1="413.34" y1="716.2" x2="439.49" y2="713.07"/>
    <line class="st16" x1="426.4" y1="693.02" x2="426.48" y2="692.99"/>
    <line class="st11" x1="414.54" y1="720.19" x2="388.08" y2="780.46"/>
    <line class="st11" x1="426.45" y1="693.05" x2="415.72" y2="717.5"/>
    <polyline class="st11" points="415.72 717.5 410.78 715.33 410.27 716.48 409.45 716.12 409.28 716.5 410.1 716.86 409.6 718.02 414.54 720.19 415.72 717.5"/>
    <polyline class="st11" points="422.04 689.67 421.51 690.88 426.45 693.05 427.13 691.51 421.36 688.98 421.22 689.31 422.04 689.67"/>
    <polyline class="st11" points="421.51 690.88 410.78 715.33 413.25 716.41 423.98 691.96 421.51 690.88"/>
  </g>
  <g>
    <polyline class="st11" points="656.48 678.2 630.27 673.11 630.79 670.46 657 675.55 656.48 678.2"/>
    <polyline class="st10" points="723.99 691.28 659.43 678.74 659.95 676.09 724.5 688.63 723.99 691.28"/>
    <line class="st11" x1="659.16" y1="672.3" x2="630.09" y2="666.66"/>
    <polyline class="st11" points="629.82 666.61 630.24 666.69 630.06 667.57 631.36 667.82 630.33 673.12 628.62 672.79 629.82 666.61"/>
    <polyline class="st11" points="726.89 685.46 726.48 685.38 726.31 686.26 725.01 686.01 723.98 691.31 725.69 691.64 726.89 685.46"/>
    <polyline class="st11" points="658.92 672.26 659.33 672.34 659.16 673.22 660.4 673.46 659.37 678.76 656.48 678.2 657.51 672.9 658.75 673.14 658.92 672.26"/>
    <line class="st11" x1="631.3" y1="667.81" x2="657.51" y2="672.9"/>
    <line class="st11" x1="660.4" y1="673.46" x2="725.01" y2="686.01"/>
    <line class="st11" x1="630.79" y1="670.46" x2="631.3" y2="667.81"/>
    <line class="st11" x1="659.16" y1="672.3" x2="726.68" y2="685.42"/>
    <polyline class="st11" points="725.01 686.01 726.31 686.26 726.48 685.38 726.89 685.46 725.69 691.64 723.98 691.31 725.01 686.01"/>
    <line class="st14" x1="630.79" y1="670.46" x2="639.6" y2="695.28"/>
    <line class="st14" x1="656.77" y1="675.51" x2="639.31" y2="695.22"/>
    <line class="st16" x1="630.28" y1="673.05" x2="630.21" y2="673.1"/>
    <line class="st11" x1="659.37" y1="678.76" x2="723.98" y2="691.31"/>
    <line class="st11" x1="630.27" y1="673.11" x2="656.48" y2="678.2"/>
    <polyline class="st11" points="656.48 678.2 657.51 672.9 658.75 673.14 658.92 672.26 659.33 672.34 659.16 673.22 660.4 673.46 659.37 678.76 656.48 678.2"/>
    <polyline class="st11" points="630.01 667.56 631.3 667.81 630.27 673.11 628.62 672.79 629.82 666.61 630.18 666.67 630.01 667.56"/>
    <polyline class="st11" points="631.3 667.81 657.51 672.9 657 675.55 630.79 670.46 631.3 667.81"/>
  </g>
  <polygon class="st17" points="722.66 951.71 724.09 1000.59 807.74 1000.59 807.74 870.7 704.33 870.7 704.33 952.92 722.66 951.71"/>
</svg>