<?xml version="1.0" encoding="UTF-8"?>
<svg id="Vinduer_i_facade" xmlns="http://www.w3.org/2000/svg" version="1.1" viewBox="0 0 1200 1697.14">
  <!-- Generator: Adobe Illustrator 29.6.0, SVG Export Plug-In . SVG Version: 2.1.1 Build 207)  -->
  <defs>
    <style>
      .st0, .st1, .st2, .st3, .st4, .st5, .st6, .st7, .st8, .st9, .st10, .st11, .st12 {
        fill: none;
      }

      .st13 {
        fill: #e2dedb;
      }

      .st14, .st15, .st1, .st2, .st3, .st4, .st5, .st6, .st8, .st9, .st16, .st17 {
        stroke: #363a3b;
      }

      .st14, .st15, .st8 {
        stroke-miterlimit: 10;
      }

      .st14, .st15, .st16, .st17 {
        fill: #fff;
      }

      .st14, .st8 {
        stroke-width: .29px;
      }

      .st15, .st3, .st7, .st10, .st12, .st17 {
        stroke-width: .28px;
      }

      .st1 {
        stroke-width: .3px;
      }

      .st1, .st2, .st3, .st4, .st5, .st6, .st7, .st9, .st10, .st11, .st12, .st16, .st17 {
        stroke-linecap: round;
        stroke-linejoin: round;
      }

      .st2 {
        stroke-width: .28px;
      }

      .st4, .st16 {
        stroke-width: .28px;
      }

      .st5 {
        stroke-width: .29px;
      }

      .st18 {
        fill: #ece8e5;
      }

      .st6 {
        stroke-dasharray: .07 .52;
        stroke-width: .18px;
      }

      .st7, .st10, .st11, .st12 {
        stroke: #000;
      }

      .st9, .st11 {
        stroke-dasharray: .06 .43;
        stroke-width: .18px;
      }

      .st10 {
        stroke-dasharray: .09 .69;
      }

      .st12 {
        stroke-dasharray: .09 .68;
      }

      .st19 {
        fill: #302c35;
      }
    </style>
  </defs>
  <polygon class="st18" points="730.15 709.36 686.26 709.36 524.42 709.36 480.53 709.36 480.53 1008.05 686.26 1008.05 686.26 841.41 730.15 841.41 730.15 709.36"/>
  <line class="st0" x1="690.07" y1="802.73" x2="690.07" y2="836.44"/>
  <line class="st0" x1="690.03" y1="802.82" x2="690.03" y2="836.67"/>
  <line class="st0" x1="689.46" y1="802.73" x2="689.46" y2="836.44"/>
  <line class="st0" x1="689.5" y1="802.82" x2="689.5" y2="836.67"/>
  <path class="st9" d="M656.54,802.48l27.36-16.54s5.71,7.42,5.76,16.54"/>
  <path class="st9" d="M723.67,802.49l-27.36-16.54s-5.71,7.42-5.76,16.54"/>
  <g>
    <line class="st17" x1="656.54" y1="836.51" x2="656.54" y2="802.66"/>
    <path class="st17" d="M657.44,802.66"/>
    <line class="st17" x1="656.54" y1="802.66" x2="690.1" y2="802.66"/>
    <path class="st17" d="M690.55,802.66"/>
    <line class="st17" x1="690.1" y1="836.51" x2="690.1" y2="802.66"/>
  </g>
  <g>
    <line class="st16" x1="723.67" y1="836.51" x2="723.67" y2="802.66"/>
    <path class="st16" d="M722.77,802.66"/>
    <line class="st16" x1="723.67" y1="802.66" x2="690.1" y2="802.66"/>
    <path class="st16" d="M689.65,802.66"/>
    <line class="st16" x1="690.1" y1="836.51" x2="690.1" y2="802.66"/>
  </g>
  <rect class="st16" x="656.5" y="802.48" width="33.56" height="36.46"/>
  <rect class="st16" x="690.09" y="802.48" width="33.56" height="36.46"/>
  <g>
    <rect class="st17" x="462.59" y="802.26" width="113.09" height="50.38" transform="translate(-308.31 1346.58) rotate(-90)"/>
    <rect class="st17" x="505.14" y="783.2" width="27.99" height="28.27" rx="1.42" ry="1.42" transform="translate(1038.27 1594.67) rotate(180)"/>
    <polygon class="st17" points="493.3 785.69 493.3 884.29 544.32 884.29 544.32 811.2 493.3 785.69"/>
  </g>
  <g>
    <g>
      <path class="st17" d="M674.13,742.44c7.12,0,12.9,6.14,12.9,13.72,0,5.58-3.65,11.1-8.79,13.01-.7.26-2.18.79-4.11.71-6.06-.24-12.9-6.28-12.9-13.72,0-7.58,5.78-13.72,12.9-13.72Z"/>
      <path class="st3" d="M677.02,768.07c4.38,0,7.92-5.33,7.92-11.91"/>
      <path class="st3" d="M677.02,744.25c4.38,0,7.92,5.33,7.92,11.91"/>
      <path class="st3" d="M677.02,744.25c-.86,0-1.56-.68-1.56-1.53"/>
      <path class="st3" d="M677.02,768.07c-.86,0-1.56.74-1.56,1.66"/>
    </g>
    <g>
      <path class="st17" d="M629.85,742.44c-7.12,0-12.9,6.14-12.9,13.72,0,5.58,3.65,11.1,8.79,13.01.7.26,2.18.79,4.11.71,6.06-.24,12.9-6.28,12.9-13.72,0-7.58-5.78-13.72-12.9-13.72Z"/>
      <path class="st3" d="M626.96,768.07c-4.38,0-7.92-5.33-7.92-11.91"/>
      <path class="st3" d="M626.96,744.25c-4.38,0-7.92,5.33-7.92,11.91"/>
      <path class="st3" d="M626.96,744.25c.86,0,1.56-.68,1.56-1.53"/>
      <path class="st3" d="M626.96,768.07c.86,0,1.56.74,1.56,1.66"/>
    </g>
    <rect class="st17" x="633.11" y="735.94" width="35.68" height="40.44"/>
  </g>
  <circle class="st15" cx="567.5" cy="755.64" r="13.02"/>
  <path class="st15" d="M487.26,984.55h16.09c6.19,0,11.2-4.45,11.2-9.95s-5.01-9.95-11.2-9.95h-16.09s0,19.9,0,19.9Z"/>
  <g>
    <path class="st16" d="M569.2,916.77v18.5c0,.41-.21.74-.47.74h-26.59c-.32,0-.59-.33-.59-.74v-18.5"/>
    <path class="st3" d="M554.32,919.47c0,.55.45,1,1,1s1-.45,1-1-.45-1-1-1-1,.45-1,1"/>
    <g>
      <path class="st3" d="M554.12,928.28c0,.68.55,1.23,1.23,1.23s1.23-.55,1.23-1.23-.55-1.23-1.23-1.23-1.23.55-1.23,1.23"/>
      <path class="st3" d="M553.53,928.28c0,1,.81,1.82,1.82,1.82s1.82-.81,1.82-1.82-.81-1.82-1.82-1.82-1.82.81-1.82,1.82"/>
    </g>
    <path class="st4" d="M567.17,922.68v10.82c0,.41-.23.74-.52.74h-22.61c-.29,0-.52-.33-.52-.74v-10.82c0-.41.23-.74.52-.74h22.61c.29,0,.52.33.52.74Z"/>
  </g>
  <g>
    <polyline class="st7" points="532.43 917.02 532.43 916.97 532.39 916.97"/>
    <line class="st10" x1="531.69" y1="916.97" x2="488.18" y2="916.97"/>
    <polyline class="st7" points="487.83 916.97 487.78 916.97 487.78 917.02"/>
    <line class="st12" x1="487.78" y1="917.7" x2="487.78" y2="960.71"/>
    <polyline class="st7" points="487.78 961.05 487.78 961.1 487.83 961.1"/>
    <line class="st10" x1="488.52" y1="961.1" x2="532.04" y2="961.1"/>
    <polyline class="st7" points="532.39 961.1 532.43 961.1 532.43 961.05"/>
    <line class="st12" x1="532.43" y1="960.37" x2="532.43" y2="917.36"/>
  </g>
  <g>
    <line class="st3" x1="487.96" y1="939" x2="500.26" y2="939"/>
    <path class="st17" d="M500.2,936.31c-1.52,0-2.75,1.23-2.75,2.75s1.23,2.75,2.75,2.75,2.75-1.23,2.75-2.75-1.23-2.75-2.75-2.75"/>
  </g>
  <polygon class="st14" points="681.83 858.06 681.8 895.39 681.83 926.1 647.57 926.1 647.57 858.06 681.83 858.06"/>
  <g>
    <g>
      <polyline class="st2" points="652.4 864.93 673.6 864.93 673.6 886.12 652.4 886.12 652.4 864.93"/>
      <line class="st2" x1="668.47" y1="875.58" x2="677" y2="875.58"/>
    </g>
    <polyline class="st2" points="649.3 859.76 680.1 859.76 680.1 891.29 649.3 891.29 649.3 859.76"/>
  </g>
  <g>
    <g>
      <line class="st5" x1="652.38" y1="916.12" x2="660.62" y2="916.12"/>
      <line class="st5" x1="667.98" y1="916.12" x2="676.22" y2="916.12"/>
      <line class="st5" x1="672.04" y1="919.93" x2="672.04" y2="912.2"/>
      <line class="st5" x1="656.55" y1="919.93" x2="656.55" y2="912.2"/>
    </g>
    <polyline class="st1" points="649.3 907.73 680.1 907.73 680.1 924.39 649.3 924.39 649.3 907.73"/>
  </g>
  <g>
    <line class="st3" x1="574.92" y1="910.28" x2="555.66" y2="910.28"/>
    <line class="st3" x1="555.66" y1="908.9" x2="574.92" y2="908.9"/>
    <polyline class="st3" points="555.66 910.28 552.78 910.28 552.78 908.9 555.66 908.9 555.66 910.28"/>
    <polyline class="st3" points="577.74 910.28 574.92 910.28 574.92 908.9 577.74 908.9 577.74 910.28"/>
    <line class="st3" x1="575.94" y1="913.34" x2="575.94" y2="910.52"/>
    <line class="st3" x1="554.77" y1="913.34" x2="554.77" y2="910.52"/>
  </g>
  <polygon class="st13" points="661.89 908.95 682.47 908.95 682.47 857.97 581.55 857.96 581.55 999.82 661.89 999.83 661.89 908.95"/>
  <polygon class="st8" points="681.83 858.06 681.8 895.39 681.83 926.1 647.57 926.1 647.57 858.06 681.83 858.06"/>
  <g>
    <g>
      <polyline class="st2" points="652.4 864.93 673.6 864.93 673.6 886.12 652.4 886.12 652.4 864.93"/>
      <line class="st2" x1="668.47" y1="875.58" x2="677" y2="875.58"/>
    </g>
    <polyline class="st2" points="649.3 859.76 680.1 859.76 680.1 891.29 649.3 891.29 649.3 859.76"/>
  </g>
  <g>
    <g>
      <line class="st5" x1="652.38" y1="916.12" x2="660.62" y2="916.12"/>
      <line class="st5" x1="667.98" y1="916.12" x2="676.22" y2="916.12"/>
      <line class="st5" x1="672.04" y1="919.93" x2="672.04" y2="912.2"/>
      <line class="st5" x1="656.55" y1="919.93" x2="656.55" y2="912.2"/>
    </g>
    <polyline class="st1" points="649.3 907.73 680.1 907.73 680.1 924.39 649.3 924.39 649.3 907.73"/>
  </g>
  <rect class="st19" x="481.86" y="722.53" width="7.79" height="193.94"/>
  <rect class="st19" x="479.57" y="916.47" width="7.79" height="88.24"/>
  <rect class="st19" x="468.53" y="996.91" width="112.96" height="11.18"/>
  <rect class="st19" x="723.72" y="714.16" width="8.5" height="130.87"/>
  <rect class="st19" x="681.55" y="838.95" width="8.5" height="164.25"/>
  <rect class="st19" x="647.41" y="836.53" width="84.78" height="8.5"/>
  <rect class="st19" x="581.49" y="999.59" width="46.37" height="8.5"/>
  <rect class="st19" x="671.72" y="999.59" width="18.35" height="8.5"/>
  <rect class="st19" x="479.46" y="913.06" width="102.02" height="3.54"/>
  <rect class="st19" x="462.19" y="689.05" width="34.02" height="34.02"/>
  <polygon class="st19" points="468.53 722.88 489.79 722.88 489.79 914.98 484.18 914.98 485.18 1005.06 468.53 1005.06 468.53 722.88"/>
  <rect class="st19" x="584.85" y="689.05" width="37.34" height="34.02"/>
  <rect class="st19" x="710.89" y="689.05" width="26.93" height="34.02"/>
  <rect class="st19" x="647.41" y="841.41" width="41.11" height="16.6"/>
  <rect class="st19" x="577.94" y="913.16" width="3.54" height="30.15"/>
  <rect class="st19" x="577.94" y="987.33" width="3.54" height="13.65"/>
  <g>
    <path class="st4" d="M535.7,987.33c0-11.6,4.79-22.94,13.11-31.27,8.07-8.07,19.41-12.86,31.01-12.86"/>
    <line class="st4" x1="578.06" y1="987.33" x2="535.7" y2="987.33"/>
    <polyline class="st4" points="579.82 943.21 579.82 987.33 578.06 987.33"/>
  </g>
  <g>
    <path class="st4" d="M627.72,999.8c0-11.6,4.79-22.94,13.11-31.27,8.07-8.07,19.41-12.86,31.01-12.86"/>
    <line class="st4" x1="670.08" y1="999.8" x2="627.72" y2="999.8"/>
    <polyline class="st4" points="671.85 955.67 671.85 999.8 670.08 999.8"/>
  </g>
  <g>
    <path class="st9" d="M679.23,710.18c.96,6.05,3.95,11.17,8.52,15.84,5.45,5.58,13.11,8.89,20.94,8.89"/>
    <line class="st9" x1="708.69" y1="734.92" x2="708.69" y2="709.61"/>
  </g>
  <g>
    <path class="st6" d="M552.97,709.59c0,14.39-5.94,28.47-16.27,38.79-10.01,10.01-24.09,15.96-38.48,15.96"/>
    <path class="st6" d="M552.97,709.59"/>
    <path class="st6" d="M498.22,709.59"/>
    <line class="st6" x1="498.22" y1="764.34" x2="498.22" y2="709.59"/>
  </g>
  <g>
    <line class="st4" x1="582.4" y1="709.35" x2="554.98" y2="709.35"/>
    <line class="st4" x1="554.98" y1="704.01" x2="582.4" y2="704.01"/>
    <line class="st4" x1="553.66" y1="703.11" x2="583.72" y2="703.11"/>
    <polyline class="st4" points="553.66 703.11 553.02 703.11 553.02 709.35 554.98 709.35 554.98 704.01 553.66 704.01 553.66 703.11"/>
    <polyline class="st4" points="584.14 703.11 583.72 703.11 583.72 704.01 582.4 704.01 582.4 709.35 584.14 709.35 584.14 703.11"/>
    <polyline class="st4" points="554.98 707.19 582.4 707.19 582.4 704.43 554.98 704.43 554.98 707.19"/>
    <line class="st4" x1="550.84" y1="709.35" x2="499.84" y2="709.35"/>
    <line class="st4" x1="497.38" y1="709.35" x2="553" y2="709.35"/>
    <line class="st4" x1="550.84" y1="704.01" x2="548.44" y2="704.01"/>
    <line class="st4" x1="545.74" y1="704.01" x2="542.98" y2="704.01"/>
    <line class="st4" x1="540.28" y1="704.01" x2="537.58" y2="704.01"/>
    <line class="st4" x1="534.88" y1="704.01" x2="532.12" y2="704.01"/>
    <line class="st4" x1="529.42" y1="704.01" x2="526.72" y2="704.01"/>
    <line class="st4" x1="523.96" y1="704.01" x2="521.26" y2="704.01"/>
    <line class="st4" x1="518.56" y1="704.01" x2="515.8" y2="704.01"/>
    <line class="st4" x1="513.1" y1="704.01" x2="510.4" y2="704.01"/>
    <line class="st4" x1="507.7" y1="704.01" x2="504.94" y2="704.01"/>
    <line class="st4" x1="502.24" y1="704.01" x2="499.84" y2="704.01"/>
    <line class="st4" x1="497.38" y1="704.01" x2="499.36" y2="704.01"/>
    <line class="st4" x1="502.06" y1="704.01" x2="504.82" y2="704.01"/>
    <line class="st4" x1="507.52" y1="704.01" x2="510.22" y2="704.01"/>
    <line class="st4" x1="512.98" y1="704.01" x2="515.68" y2="704.01"/>
    <line class="st4" x1="518.38" y1="704.01" x2="521.14" y2="704.01"/>
    <line class="st4" x1="523.84" y1="704.01" x2="526.54" y2="704.01"/>
    <line class="st4" x1="529.24" y1="704.01" x2="532" y2="704.01"/>
    <line class="st4" x1="534.7" y1="704.01" x2="537.4" y2="704.01"/>
    <line class="st4" x1="540.16" y1="704.01" x2="542.86" y2="704.01"/>
    <line class="st4" x1="545.56" y1="704.01" x2="548.26" y2="704.01"/>
    <line class="st4" x1="551.02" y1="704.01" x2="553" y2="704.01"/>
    <line class="st4" x1="550.84" y1="709.35" x2="499.84" y2="709.35"/>
    <line class="st4" x1="497.38" y1="709.35" x2="553" y2="709.35"/>
    <line class="st4" x1="550.84" y1="704.01" x2="548.44" y2="704.01"/>
    <line class="st4" x1="545.74" y1="704.01" x2="542.98" y2="704.01"/>
    <line class="st4" x1="540.28" y1="704.01" x2="537.58" y2="704.01"/>
    <line class="st4" x1="534.88" y1="704.01" x2="532.12" y2="704.01"/>
    <line class="st4" x1="529.42" y1="704.01" x2="526.72" y2="704.01"/>
    <line class="st4" x1="523.96" y1="704.01" x2="521.26" y2="704.01"/>
    <line class="st4" x1="518.56" y1="704.01" x2="515.8" y2="704.01"/>
    <line class="st4" x1="513.1" y1="704.01" x2="510.4" y2="704.01"/>
    <line class="st4" x1="507.7" y1="704.01" x2="504.94" y2="704.01"/>
    <line class="st4" x1="502.24" y1="704.01" x2="499.84" y2="704.01"/>
    <line class="st4" x1="497.38" y1="704.01" x2="499.36" y2="704.01"/>
    <line class="st4" x1="502.06" y1="704.01" x2="504.82" y2="704.01"/>
    <line class="st4" x1="507.52" y1="704.01" x2="510.22" y2="704.01"/>
    <line class="st4" x1="512.98" y1="704.01" x2="515.68" y2="704.01"/>
    <line class="st4" x1="518.38" y1="704.01" x2="521.14" y2="704.01"/>
    <line class="st4" x1="523.84" y1="704.01" x2="526.54" y2="704.01"/>
    <line class="st4" x1="529.24" y1="704.01" x2="532" y2="704.01"/>
    <line class="st4" x1="534.7" y1="704.01" x2="537.4" y2="704.01"/>
    <line class="st4" x1="540.16" y1="704.01" x2="542.86" y2="704.01"/>
    <line class="st4" x1="545.56" y1="704.01" x2="548.26" y2="704.01"/>
    <line class="st4" x1="551.02" y1="704.01" x2="553" y2="704.01"/>
    <line class="st4" x1="550.84" y1="709.35" x2="499.84" y2="709.35"/>
    <line class="st4" x1="499.84" y1="704.01" x2="550.84" y2="704.01"/>
    <line class="st4" x1="497.38" y1="703.11" x2="553.3" y2="703.11"/>
    <polyline class="st4" points="550.84 709.35 553.66 709.35 553.66 703.11 553.02 703.11 553.02 704.01 550.84 704.01 550.84 709.35"/>
    <polyline class="st4" points="497.02 709.35 499.84 709.35 499.84 704.01 497.38 704.01 497.38 703.11 497.02 703.11 497.02 709.35"/>
    <polyline class="st4" points="499.84 707.19 550.84 707.19 550.84 704.43 499.84 704.43 499.84 707.19"/>
  </g>
  <g>
    <line class="st4" x1="707.12" y1="709.42" x2="681.98" y2="709.42"/>
    <line class="st4" x1="681.98" y1="704.08" x2="707.12" y2="704.08"/>
    <line class="st4" x1="679.52" y1="703.18" x2="709.58" y2="703.18"/>
    <polyline class="st4" points="679.16 709.42 681.98 709.42 681.98 704.08 679.8 704.08 679.8 703.18 679.16 703.18 679.16 709.42"/>
    <polyline class="st4" points="707.12 709.42 710 709.42 710 703.18 709.58 703.18 709.58 704.08 707.12 704.08 707.12 709.42"/>
    <polyline class="st4" points="681.98 707.26 707.12 707.26 707.12 704.5 681.98 704.5 681.98 707.26"/>
    <line class="st4" x1="681.98" y1="704.08" x2="683.3" y2="704.08"/>
    <line class="st4" x1="685.04" y1="704.08" x2="686.78" y2="704.08"/>
    <line class="st4" x1="688.52" y1="704.08" x2="690.2" y2="704.08"/>
    <line class="st4" x1="691.94" y1="704.08" x2="693.68" y2="704.08"/>
    <line class="st4" x1="695.42" y1="704.08" x2="697.16" y2="704.08"/>
    <line class="st4" x1="698.9" y1="704.08" x2="700.64" y2="704.08"/>
    <line class="st4" x1="702.38" y1="704.08" x2="704.12" y2="704.08"/>
    <line class="st4" x1="705.86" y1="704.08" x2="707.12" y2="704.08"/>
    <line class="st4" x1="709.58" y1="704.08" x2="707.66" y2="704.08"/>
    <line class="st4" x1="705.92" y1="704.08" x2="704.18" y2="704.08"/>
    <line class="st4" x1="702.44" y1="704.08" x2="700.7" y2="704.08"/>
    <line class="st4" x1="698.96" y1="704.08" x2="697.22" y2="704.08"/>
    <line class="st4" x1="695.54" y1="704.08" x2="693.8" y2="704.08"/>
    <line class="st4" x1="692.06" y1="704.08" x2="690.32" y2="704.08"/>
    <line class="st4" x1="688.58" y1="704.08" x2="686.84" y2="704.08"/>
    <line class="st4" x1="685.1" y1="704.08" x2="683.36" y2="704.08"/>
    <line class="st4" x1="681.62" y1="704.08" x2="679.98" y2="704.08"/>
    <line class="st4" x1="681.98" y1="709.42" x2="707.12" y2="709.42"/>
    <line class="st4" x1="709.58" y1="709.42" x2="679.7" y2="709.42"/>
    <line class="st4" x1="623.24" y1="703.18" x2="679.16" y2="703.18"/>
    <line class="st4" x1="677.84" y1="709.42" x2="624.56" y2="709.42"/>
    <line class="st4" x1="624.56" y1="704.08" x2="677.84" y2="704.08"/>
    <polygon class="st4" points="679.8 703.18 679.8 709.42 677.84 709.42 677.84 704.08 679.16 704.08 679.16 703.18 679.8 703.18"/>
    <polyline class="st4" points="623.24 703.18 622.82 703.18 622.82 709.42 624.56 709.42 624.56 704.08 623.24 704.08 623.24 703.18"/>
    <polyline class="st4" points="624.56 707.26 677.84 707.26 677.84 704.5 624.56 704.5 624.56 707.26"/>
  </g>
  <polygon class="st11" points="581.55 999.59 661.89 999.59 661.89 908.95 685.8 908.9 685.8 857.96 581.55 857.96 581.55 999.59"/>
</svg>