<?xml version="1.0" encoding="UTF-8"?>
<svg id="Vinduer_i_facade" xmlns="http://www.w3.org/2000/svg" version="1.1" viewBox="0 0 1200 1697">
  <!-- Generator: Adobe Illustrator 29.6.0, SVG Export Plug-In . SVG Version: 2.1.1 Build 207)  -->
  <defs>
    <style>
      .st0, .st1, .st2, .st3, .st4, .st5, .st6, .st7, .st8, .st9, .st10, .st11, .st12, .st13, .st14, .st15, .st16 {
        fill: none;
      }

      .st17 {
        fill: #e2dedb;
      }

      .st1 {
        stroke-dasharray: .09 .69;
      }

      .st1, .st18, .st4, .st8, .st13, .st15, .st19, .st16 {
        stroke-width: .28px;
      }

      .st1, .st2, .st3, .st4, .st5, .st6, .st7, .st8, .st10, .st11, .st12, .st13, .st14, .st15, .st20, .st19, .st16 {
        stroke-linecap: round;
        stroke-linejoin: round;
      }

      .st1, .st8, .st13, .st14, .st15 {
        stroke: #000;
      }

      .st18, .st2, .st3, .st4, .st5, .st6, .st7, .st9, .st10, .st11, .st20, .st19 {
        stroke: #363a3b;
      }

      .st18, .st9 {
        stroke-miterlimit: 10;
      }

      .st18, .st20, .st19 {
        fill: #fff;
      }

      .st2 {
        stroke-width: .3px;
      }

      .st3 {
        stroke-width: .28px;
      }

      .st5 {
        stroke-width: .28px;
      }

      .st6, .st12, .st20 {
        stroke-width: .28px;
      }

      .st7 {
        stroke-width: .29px;
      }

      .st21 {
        fill: #ece8e5;
      }

      .st9 {
        stroke-width: .29px;
      }

      .st10 {
        stroke-width: .18px;
      }

      .st10, .st11, .st14 {
        stroke-dasharray: .06 .43;
      }

      .st11, .st14 {
        stroke-width: .18px;
      }

      .st12 {
        stroke: #0e0e0e;
      }

      .st13 {
        stroke-dasharray: .09 .69;
      }

      .st15 {
        stroke-dasharray: .09 .68;
      }

      .st22 {
        fill: #302c35;
      }

      .st16 {
        stroke: #00001d;
      }
    </style>
  </defs>
  <path class="st21" d="M657.05,684.51l.36,226.04s61.52-1,62.52,0,0,100.43,0,100.43h-83.14l-.13,24.14-157.53.19-.62-365.52,33.92,4.66,4.24,25.12,98.51,11.36,41.89-26.42Z"/>
  <line class="st1" x1="614.83" y1="710.78" x2="516.65" y2="699.57"/>
  <g>
    <rect class="st19" x="457.75" y="751.17" width="110.26" height="50.38" transform="translate(-263.16 1289.71) rotate(-90.03)"/>
    <rect class="st19" x="498.87" y="733.21" width="27.99" height="27.57" rx="1.42" ry="1.42" transform="translate(1026.19 1493.69) rotate(179.97)"/>
    <polygon class="st19" points="487.03 735.66 487.09 831.79 538.11 831.76 538.07 760.5 487.03 735.66"/>
  </g>
  <g>
    <g>
      <path class="st19" d="M603.92,838.28c.02-7.12,6.17-12.88,13.75-12.86,5.58.01,11.1,3.68,12.98,8.82.26.7.78,2.18.7,4.11-.26,6.06-6.31,12.88-13.75,12.86-7.58-.02-13.7-5.81-13.69-12.93Z"/>
      <path class="st4" d="M629.55,835.46c.01-4.38-5.31-7.93-11.89-7.95"/>
      <path class="st4" d="M605.73,835.4c.01-4.38,5.35-7.91,11.93-7.89"/>
      <path class="st4" d="M605.73,835.4c0,.86-.69,1.56-1.53,1.56"/>
      <path class="st4" d="M629.55,835.46c0,.86.74,1.57,1.65,1.57"/>
    </g>
    <g>
      <path class="st19" d="M603.8,882.56c-.02,7.12,6.11,12.91,13.69,12.93,5.58.01,11.11-3.62,13.03-8.75.26-.7.79-2.17.72-4.11-.23-6.06-6.24-12.91-13.69-12.93-7.58-.02-13.73,5.74-13.75,12.86Z"/>
      <path class="st4" d="M629.43,885.52c-.01,4.38-5.35,7.91-11.93,7.89"/>
      <path class="st4" d="M605.61,885.46c-.01,4.38,5.31,7.93,11.89,7.95"/>
      <path class="st4" d="M605.61,885.46c0-.86-.68-1.57-1.53-1.57"/>
      <path class="st4" d="M629.43,885.52c0-.86.74-1.56,1.66-1.56"/>
    </g>
    <rect class="st19" x="599.74" y="841.28" width="35.68" height="40.44" transform="translate(-245.49 1476.89) rotate(-89.85)"/>
  </g>
  <g>
    <path class="st4" d="M678.79,923.51c0,11.6-4.79,22.94-13.11,31.27-8.07,8.07-19.41,12.86-31.01,12.86"/>
    <line class="st4" x1="636.43" y1="923.51" x2="678.79" y2="923.51"/>
    <polyline class="st4" points="634.67 967.64 634.67 923.51 636.43 923.51"/>
  </g>
  <g>
    <g>
      <polyline class="st8" points="672.09 959.91 672.04 959.91 672.04 959.95"/>
      <line class="st13" x1="672.04" y1="960.65" x2="672.04" y2="1004.16"/>
      <polyline class="st8" points="672.04 1004.51 672.04 1004.56 672.09 1004.56"/>
      <line class="st15" x1="672.77" y1="1004.56" x2="715.78" y2="1004.56"/>
      <polyline class="st8" points="716.13 1004.56 716.17 1004.56 716.17 1004.51"/>
      <line class="st13" x1="716.17" y1="1003.82" x2="716.17" y2="960.3"/>
      <polyline class="st8" points="716.17 959.95 716.17 959.91 716.13 959.91"/>
      <line class="st15" x1="715.44" y1="959.91" x2="672.43" y2="959.91"/>
    </g>
    <g>
      <line class="st4" x1="694.07" y1="1004.38" x2="694.07" y2="992.08"/>
      <path class="st19" d="M691.38,992.14c0,1.52,1.23,2.75,2.75,2.75s2.75-1.23,2.75-2.75-1.23-2.75-2.75-2.75-2.75,1.23-2.75,2.75"/>
    </g>
  </g>
  <path class="st18" d="M649.05,1005.61v-16.09c0-6.19,4.45-11.2,9.95-11.2s9.95,5.01,9.95,11.2v16.09s-19.9,0-19.9,0Z"/>
  <g>
    <path class="st20" d="M716.47,950.93h-18.5c-.41,0-.74-.21-.74-.47v-26.59c0-.32.33-.59.74-.59h18.5"/>
    <path class="st4" d="M713.77,936.05c-.55,0-1,.45-1,1s.45,1,1,1,1-.45,1-1-.45-1-1-1"/>
    <g>
      <path class="st4" d="M704.96,935.85c-.68,0-1.23.55-1.23,1.23s.55,1.23,1.23,1.23,1.23-.55,1.23-1.23-.55-1.23-1.23-1.23"/>
      <path class="st4" d="M704.96,935.26c-1,0-1.82.81-1.82,1.82s.81,1.82,1.82,1.82,1.82-.81,1.82-1.82-.81-1.82-1.82-1.82"/>
    </g>
    <path class="st6" d="M710.56,948.9h-10.82c-.41,0-.74-.23-.74-.52v-22.61c0-.29.33-.52.74-.52h10.82c.41,0,.74.23.74.52v22.61c0,.29-.33.52-.74.52Z"/>
  </g>
  <g>
    <g>
      <path class="st19" d="M612.01,725.49c-6.26,7.8-12.52,15.61-18.78,23.41-.18.41-.03.92.37,1.24,8.31,8.71,17.89,16.2,28.33,22.15.17.1.38.09.5-.04.59-.73,1.17-1.45,1.76-2.18l16.98-21.01-29.17-23.57"/>
      <path class="st19" d="M613.62,724c-.68.65-1.26,1.37-1.77,2.16-.09.16-.04.37.13.51,9.16,7.76,18.44,15.35,27.86,22.78.26.16.57.13.74-.07.71-.74,1.34-1.54,1.88-2.41"/>
      <path class="st19" d="M610.93,729.25c-.57-.46.06-2.18,1.4-3.84.11-.13.22-.26.33-.39l.95-1.03c.14-.12.36-.11.52.02l28.39,22.95-1.95,2.42c-.65.78-1.3,1.55-1.96,2.33-.36.26-.89.22-1.29-.1-9.96-5.95-18.92-13.54-26.4-22.35Z"/>
      <path class="st19" d="M611.98,727.6c-.13.43-.29.84-.48,1.24-.13.51-.29,1.02-.48,1.51-.26.67-.51,1.34-.76,2.02-.34.93-.76,1.81-1.27,2.66-.31.52-.63,1.02-.98,1.52-.36.52-.73,1.05-1.11,1.56-.89,1.23-1.84,2.41-2.86,3.54-1.03,1.14-2.14,2.18-3.35,3.14-.91.72-1.88,1.34-2.93,1.88-.66.34-1.33.46-2.13.4-.07,0-.12-.03-.18-.07l-.51-.41c-.1-.16-.12-.3-.08-.47,6.07-7.51,12.14-15.02,18.21-22.53.11-.13.32-.14.48-.01l.16.13h0c.15.13.19.34.1.48-.21.35-.42.69-.63,1.04-.31.44-.58.89-.81,1.38l-.41,1.02Z"/>
      <path class="st19" d="M639.31,749.68c-.39.22-.76.46-1.12.73-.47.24-.93.5-1.37.79-.6.39-1.21.78-1.81,1.16-.84.53-1.61,1.13-2.33,1.8-.44.41-.87.83-1.28,1.27-.44.47-.87.94-1.3,1.41-1.02,1.13-1.97,2.3-2.86,3.54-.9,1.24-1.68,2.55-2.36,3.93-.51,1.04-.92,2.12-1.22,3.26-.19.72-.18,1.4.05,2.16.02.06.05.11.11.16l.51.41c.18.06.32.06.48-.02,6.07-7.51,12.14-15.02,18.21-22.53.11-.13.07-.34-.09-.47l-.16-.13h0c-.16-.12-.37-.12-.49,0-.29.28-.59.55-.88.83-.36.39-.75.75-1.18,1.08l-.91.61Z"/>
    </g>
    <circle class="st18" cx="572.08" cy="765.61" r="13.02"/>
  </g>
  <rect class="st19" x="482.64" y="901.67" width="34.73" height="28.81"/>
  <g>
    <line class="st4" x1="486.29" y1="877.55" x2="486.31" y2="896.81"/>
    <line class="st4" x1="487.69" y1="896.81" x2="487.67" y2="877.55"/>
    <polyline class="st4" points="486.31 896.81 486.31 899.69 487.69 899.69 487.69 896.81 486.31 896.81"/>
    <polyline class="st4" points="486.28 874.73 486.29 877.55 487.67 877.55 487.66 874.73 486.28 874.73"/>
    <line class="st4" x1="483.23" y1="876.53" x2="486.05" y2="876.53"/>
    <line class="st4" x1="483.25" y1="897.71" x2="486.07" y2="897.7"/>
  </g>
  <rect class="st17" x="481.1" y="905.7" width="95.55" height="127.53"/>
  <g>
    <polygon class="st9" points="483.18 1026.9 483.21 989.56 483.18 958.86 517.44 958.86 517.44 1026.9 483.18 1026.9"/>
    <g>
      <g>
        <polyline class="st3" points="512.61 1020.03 491.41 1020.03 491.41 998.83 512.61 998.83 512.61 1020.03"/>
        <line class="st3" x1="496.54" y1="1009.37" x2="488.01" y2="1009.37"/>
      </g>
      <polyline class="st3" points="515.71 1025.2 484.91 1025.2 484.91 993.67 515.71 993.67 515.71 1025.2"/>
    </g>
    <g>
      <g>
        <line class="st7" x1="512.64" y1="968.84" x2="504.4" y2="968.84"/>
        <line class="st7" x1="497.03" y1="968.84" x2="488.79" y2="968.84"/>
        <line class="st7" x1="492.97" y1="965.03" x2="492.97" y2="972.75"/>
        <line class="st7" x1="508.46" y1="965.03" x2="508.46" y2="972.75"/>
      </g>
      <polyline class="st2" points="515.71 977.22 484.91 977.22 484.91 960.56 515.71 960.56 515.71 977.22"/>
    </g>
  </g>
  <g>
    <polyline class="st0" points="517.23 901.71 517.23 959.41 483.21 959.41 483.21 901.71"/>
    <g>
      <line class="st4" x1="483.37" y1="901.71" x2="517.39" y2="901.71"/>
      <g>
        <line class="st4" x1="483.37" y1="930.47" x2="517.39" y2="930.47"/>
        <line class="st4" x1="517.39" y1="931.24" x2="517.39" y2="901.77"/>
        <line class="st4" x1="517.39" y1="931.24" x2="517.39" y2="959.18"/>
        <path class="st16" d="M517.39,959.57"/>
        <line class="st4" x1="483.37" y1="959.18" x2="517.39" y2="959.18"/>
      </g>
    </g>
    <path class="st11" d="M517.39,959.07l16.54-23.26s-7.42-4.85-16.54-4.89"/>
    <path class="st11" d="M517.39,902.51l16.54,22.75s-7.42,4.74-16.54,4.79"/>
  </g>
  <rect class="st22" x="511.52" y="661.99" width="7.32" height="37.29" transform="translate(948.2 1416.26) rotate(-173.36)"/>
  <rect class="st22" x="617.29" y="674.26" width="8.5" height="37.29" transform="translate(84.28 -67.21) rotate(6.64)"/>
  <polygon class="st22" points="478.91 661.71 520.62 665.86 516.69 699.65 474.98 695.5 478.91 661.71"/>
  <rect class="st22" x="618.42" y="679.66" width="46.63" height="34.01" transform="translate(1207.67 1456.2) rotate(-174.04)"/>
  <rect class="st22" x="654.79" y="710.38" width="8.5" height="200.49" transform="translate(1318.09 1621.24) rotate(-180)"/>
  <rect class="st22" x="474.91" y="695.43" width="8.5" height="338.08" transform="translate(958.33 1728.95) rotate(-180)"/>
  <rect class="st22" x="522.4" y="979.2" width="8.5" height="103.53" transform="translate(1557.62 504.32) rotate(90)"/>
  <rect class="st22" x="627.67" y="1021.58" width="8.5" height="18.78" transform="translate(1662.9 399.05) rotate(90)"/>
  <rect class="st22" x="674.73" y="963.03" width="8.5" height="92.27" transform="translate(1688.15 330.19) rotate(90)"/>
  <rect class="st22" x="716.61" y="905.79" width="8.5" height="106.97"/>
  <rect class="st22" x="688.96" y="878.67" width="8.5" height="62.73" transform="translate(-216.82 1603.25) rotate(-90)"/>
  <rect class="st22" x="674.86" y="868.7" width="3.54" height="87.58" transform="translate(1589.12 235.86) rotate(90)"/>
  <rect class="st22" x="632.81" y="1007.82" width="8.5" height="27.39"/>
  <rect class="st22" x="632.82" y="967.64" width="3.54" height="59.1"/>
  <rect class="st22" x="632.82" y="911.2" width="3.54" height="12.33"/>
  <g>
    <path class="st4" d="M578.41,1026.79c0-11.6,4.79-22.95,13.11-31.27,8.07-8.07,19.42-12.86,31.01-12.86"/>
    <line class="st4" x1="620.77" y1="1026.79" x2="578.41" y2="1026.79"/>
    <polyline class="st4" points="622.54 982.67 622.54 1026.79 620.77 1026.79"/>
  </g>
  <g>
    <polyline class="st6" points="548.64 671.31 522.13 668.19 522.44 665.5 548.96 668.63 548.64 671.31"/>
    <polyline class="st5" points="616.94 679.32 551.63 671.63 551.94 668.95 617.25 676.64 616.94 679.32"/>
    <line class="st6" x1="550.87" y1="665.23" x2="521.46" y2="661.76"/>
    <polyline class="st6" points="521.2 661.73 521.61 661.78 521.51 662.68 522.82 662.83 522.19 668.19 520.46 667.99 521.2 661.73"/>
    <polyline class="st6" points="619.4 673.3 618.98 673.25 618.87 674.14 617.56 673.99 616.93 679.35 618.66 679.55 619.4 673.3"/>
    <polyline class="st6" points="550.63 665.2 551.05 665.25 550.94 666.14 552.2 666.29 551.56 671.65 548.64 671.31 549.28 665.95 550.53 666.09 550.63 665.2"/>
    <line class="st6" x1="522.76" y1="662.82" x2="549.28" y2="665.95"/>
    <line class="st6" x1="552.2" y1="666.29" x2="617.56" y2="673.99"/>
    <line class="st6" x1="522.44" y1="665.5" x2="522.76" y2="662.82"/>
    <line class="st6" x1="550.87" y1="665.23" x2="619.19" y2="673.27"/>
    <polyline class="st6" points="617.56 673.99 618.87 674.14 618.98 673.25 619.4 673.3 618.66 679.55 616.93 679.35 617.56 673.99"/>
    <line class="st10" x1="522.44" y1="665.5" x2="533.08" y2="689.59"/>
    <line class="st10" x1="548.73" y1="668.6" x2="532.79" y2="689.56"/>
    <line class="st12" x1="522.13" y1="668.13" x2="522.07" y2="668.18"/>
    <line class="st6" x1="551.56" y1="671.65" x2="616.93" y2="679.35"/>
    <line class="st6" x1="522.13" y1="668.19" x2="548.64" y2="671.31"/>
    <polyline class="st6" points="548.64 671.31 549.28 665.95 550.53 666.09 550.63 665.2 551.05 665.25 550.94 666.14 552.2 666.29 551.56 671.65 548.64 671.31"/>
    <polyline class="st6" points="521.45 662.67 522.76 662.82 522.13 668.19 520.46 667.99 521.2 661.73 521.55 661.78 521.45 662.67"/>
    <polyline class="st6" points="522.76 662.82 549.28 665.95 548.96 668.63 522.44 665.5 522.76 662.82"/>
  </g>
  <rect class="st14" x="478.5" y="905.7" width="98.15" height="122.66"/>
</svg>