<?xml version="1.0" encoding="UTF-8"?>
<svg id="Tekst" xmlns="http://www.w3.org/2000/svg" version="1.1" viewBox="0 0 1200 1697.14">
  <!-- Generator: Adobe Illustrator 29.6.0, SVG Export Plug-In . SVG Version: 2.1.1 Build 207)  -->
  <defs>
    <style>
      .st0, .st1, .st2, .st3, .st4, .st5, .st6, .st7, .st8, .st9, .st10, .st11, .st12, .st13, .st14, .st15, .st16, .st17 {
        fill: none;
      }

      .st18 {
        fill: #e2dedb;
      }

      .st1 {
        stroke-dasharray: .09 .69;
      }

      .st1, .st19, .st4, .st8, .st12, .st16, .st20, .st17 {
        stroke-width: .28px;
      }

      .st1, .st2, .st3, .st4, .st5, .st6, .st7, .st8, .st10, .st11, .st12, .st13, .st15, .st16, .st21, .st20, .st17 {
        stroke-linecap: round;
        stroke-linejoin: round;
      }

      .st1, .st8, .st12, .st15, .st16 {
        stroke: #000;
      }

      .st22, .st19, .st2, .st3, .st4, .st5, .st6, .st7, .st9, .st10, .st11, .st21, .st20 {
        stroke: #363a3b;
      }

      .st22, .st19, .st9, .st14 {
        stroke-miterlimit: 10;
      }

      .st22, .st19, .st23, .st21, .st20 {
        fill: #fff;
      }

      .st22, .st9 {
        stroke-width: .29px;
      }

      .st2 {
        stroke-width: .3px;
      }

      .st3 {
        stroke-width: .28px;
      }

      .st5 {
        stroke-width: .28px;
      }

      .st6, .st13, .st21 {
        stroke-width: .28px;
      }

      .st7 {
        stroke-width: .29px;
      }

      .st24 {
        fill: #ece8e5;
      }

      .st10 {
        stroke-width: .18px;
      }

      .st10, .st11, .st15 {
        stroke-dasharray: .06 .43;
      }

      .st11, .st15 {
        stroke-width: .18px;
      }

      .st12 {
        stroke-dasharray: .09 .69;
      }

      .st13 {
        stroke: #0e0e0e;
      }

      .st14 {
        stroke: #15bbb3;
      }

      .st16 {
        stroke-dasharray: .09 .68;
      }

      .st25 {
        fill: #302c35;
      }

      .st17 {
        stroke: #00001d;
      }
    </style>
  </defs>
  <polygon class="st24" points="659 772.32 675.54 870 697.83 892.07 685.99 927.48 704.97 1024.26 708.66 1027.6 711.89 1039.73 513.34 1038.51 513.34 955.95 457.08 955.95 457.07 702.34 548.25 702.34 548.25 661.5 661.36 661.5 659 772.32"/>
  <line class="st1" x1="675.57" y1="869.77" x2="659.07" y2="772.23"/>
  <line class="st1" x1="704.97" y1="1024.26" x2="686.14" y2="927.75"/>
  <rect class="st23" x="500.51" y="984.95" width="67.08" height="33.95" transform="translate(1535.97 467.88) rotate(90)"/>
  <polygon class="st22" points="465.53 951.48 465.55 914.15 465.53 883.44 499.79 883.44 499.79 951.48 465.53 951.48"/>
  <g>
    <g>
      <polyline class="st3" points="494.95 944.61 473.76 944.61 473.76 923.41 494.95 923.41 494.95 944.61"/>
      <line class="st3" x1="478.88" y1="933.96" x2="470.36" y2="933.96"/>
    </g>
    <polyline class="st3" points="498.05 949.78 467.26 949.78 467.26 918.25 498.05 918.25 498.05 949.78"/>
  </g>
  <g>
    <g>
      <line class="st7" x1="494.98" y1="893.42" x2="486.74" y2="893.42"/>
      <line class="st7" x1="479.38" y1="893.42" x2="471.14" y2="893.42"/>
      <line class="st7" x1="475.31" y1="889.61" x2="475.31" y2="897.33"/>
      <line class="st7" x1="490.81" y1="889.61" x2="490.81" y2="897.33"/>
    </g>
    <polyline class="st2" points="498.05 901.8 467.26 901.8 467.26 885.14 498.05 885.14 498.05 901.8"/>
  </g>
  <g>
    <g>
      <polyline class="st8" points="468.44 748.49 468.4 748.49 468.4 748.45"/>
      <line class="st12" x1="468.4" y1="747.75" x2="468.4" y2="704.23"/>
      <polyline class="st8" points="468.4 703.89 468.4 703.84 468.44 703.84"/>
      <line class="st16" x1="469.12" y1="703.84" x2="512.14" y2="703.84"/>
      <polyline class="st8" points="512.48 703.84 512.53 703.84 512.53 703.89"/>
      <line class="st12" x1="512.53" y1="704.58" x2="512.53" y2="748.1"/>
      <polyline class="st8" points="512.53 748.45 512.53 748.49 512.48 748.49"/>
      <line class="st16" x1="511.8" y1="748.49" x2="468.78" y2="748.49"/>
    </g>
    <g>
      <line class="st4" x1="490.43" y1="704.02" x2="490.43" y2="716.32"/>
      <path class="st20" d="M487.73,716.26c0-1.52,1.23-2.75,2.75-2.75s2.75,1.23,2.75,2.75c0,1.52-1.23,2.75-2.75,2.75s-2.75-1.23-2.75-2.75"/>
    </g>
  </g>
  <path class="st19" d="M515.53,703.47v16.09c0,6.19,4.45,11.2,9.95,11.2,5.5,0,9.95-5.01,9.95-11.2v-16.09s-19.9,0-19.9,0Z"/>
  <g>
    <path class="st21" d="M468.1,787.15h18.5c.41,0,.74-.21.74-.47v-26.59c0-.32-.33-.59-.74-.59h-18.5"/>
    <path class="st4" d="M470.8,772.27c.55,0,1,.45,1,1s-.45,1-1,1-1-.45-1-1,.45-1,1-1"/>
    <g>
      <path class="st4" d="M479.61,772.07c.68,0,1.23.55,1.23,1.23s-.55,1.23-1.23,1.23-1.23-.55-1.23-1.23c0-.68.55-1.23,1.23-1.23"/>
      <path class="st4" d="M479.61,771.48c1,0,1.82.81,1.82,1.82s-.81,1.82-1.82,1.82-1.82-.81-1.82-1.82.81-1.82,1.82-1.82"/>
    </g>
    <path class="st6" d="M474.01,785.12h10.82c.41,0,.74-.23.74-.52v-22.61c0-.29-.33-.52-.74-.52h-10.82c-.41,0-.74.23-.74.52v22.61c0,.29.33.52.74.52Z"/>
  </g>
  <g>
    <g>
      <line class="st0" x1="550.78" y1="1002.26" x2="517.07" y2="1002.26"/>
      <line class="st0" x1="550.68" y1="1002.22" x2="516.83" y2="1002.22"/>
      <g>
        <line class="st4" x1="517" y1="968.39" x2="550.85" y2="968.39"/>
        <path class="st4" d="M550.85,969.29"/>
        <line class="st4" x1="550.85" y1="968.39" x2="550.85" y2="1001.96"/>
        <path class="st17" d="M550.85,1002.4"/>
        <line class="st4" x1="517" y1="1001.96" x2="550.85" y2="1001.96"/>
      </g>
      <path class="st11" d="M551.02,968.39l16.54,27.36s-7.42,5.71-16.54,5.76"/>
    </g>
    <g>
      <line class="st0" x1="550.78" y1="1001.65" x2="517.07" y2="1001.65"/>
      <line class="st0" x1="550.68" y1="1001.69" x2="516.83" y2="1001.69"/>
      <g>
        <line class="st4" x1="517" y1="1035.52" x2="550.85" y2="1035.52"/>
        <path class="st4" d="M550.85,1034.62"/>
        <line class="st4" x1="550.85" y1="1035.52" x2="550.85" y2="1001.95"/>
        <path class="st17" d="M550.85,1001.51"/>
        <line class="st4" x1="517" y1="1001.95" x2="550.85" y2="1001.95"/>
      </g>
      <path class="st11" d="M551.02,1035.52l16.54-27.36s-7.42-5.71-16.54-5.76"/>
    </g>
  </g>
  <g>
    <path class="st20" d="M685.97,994.16c-7.8-6.26-15.61-12.52-23.41-18.78-.41-.18-.92-.03-1.24.37-8.71,8.31-16.2,17.89-22.15,28.33-.1.17-.09.38.04.5.73.59,1.45,1.17,2.18,1.76l21.01,16.98,23.57-29.17"/>
    <path class="st20" d="M687.46,995.77c-.65-.68-1.37-1.26-2.16-1.77-.16-.09-.37-.04-.51.13-7.76,9.16-15.35,18.44-22.78,27.86-.16.26-.13.57.07.74.74.71,1.54,1.34,2.41,1.88"/>
    <path class="st20" d="M682.21,993.08c.46-.57,2.18.06,3.84,1.4.13.11.26.22.39.33l1.03.95c.12.14.11.36-.02.52l-22.95,28.39-2.42-1.95c-.78-.65-1.55-1.3-2.33-1.96-.26-.36-.22-.89.1-1.29,5.95-9.96,13.54-18.92,22.35-26.4Z"/>
    <path class="st20" d="M683.86,994.13c-.43-.13-.84-.29-1.24-.48-.51-.13-1.02-.29-1.51-.48-.67-.26-1.34-.51-2.02-.76-.93-.34-1.81-.76-2.66-1.27-.52-.31-1.02-.63-1.52-.98-.52-.36-1.05-.73-1.56-1.11-1.23-.89-2.41-1.84-3.54-2.86-1.14-1.03-2.18-2.14-3.14-3.35-.72-.91-1.34-1.88-1.88-2.93-.34-.66-.46-1.33-.4-2.13,0-.07.03-.12.07-.18l.41-.51c.16-.1.3-.12.47-.08,7.51,6.07,15.02,12.14,22.53,18.21.13.11.14.32.01.48l-.13.16h0c-.13.15-.34.19-.48.1-.35-.21-.69-.42-1.04-.63-.44-.31-.89-.58-1.38-.81l-1.02-.41Z"/>
    <path class="st20" d="M661.78,1021.46c-.22-.39-.46-.76-.73-1.12-.24-.47-.5-.93-.79-1.37-.39-.6-.78-1.21-1.16-1.81-.53-.84-1.13-1.61-1.8-2.33-.41-.44-.83-.87-1.27-1.28-.47-.44-.94-.87-1.41-1.3-1.13-1.02-2.3-1.97-3.54-2.86-1.24-.9-2.55-1.68-3.93-2.36-1.04-.51-2.12-.92-3.26-1.22-.72-.19-1.4-.18-2.16.05-.06.02-.11.05-.16.11l-.41.51c-.06.18-.06.32.02.48,7.51,6.07,15.02,12.14,22.53,18.21.13.11.34.07.47-.09l.13-.16h0c.12-.16.12-.37,0-.49-.28-.29-.55-.59-.83-.88-.39-.36-.75-.75-1.08-1.18l-.61-.91Z"/>
  </g>
  <circle class="st19" cx="653.82" cy="950.57" r="13.02"/>
  <g>
    <g>
      <path class="st20" d="M564.92,889.47c.02-7.12,6.17-12.88,13.75-12.86,5.58.01,11.1,3.68,12.98,8.82.26.7.78,2.18.7,4.11-.26,6.06-6.31,12.88-13.75,12.86-7.58-.02-13.7-5.81-13.69-12.93Z"/>
      <path class="st4" d="M590.56,886.64c.01-4.38-5.31-7.93-11.89-7.95"/>
      <path class="st4" d="M566.74,886.58c.01-4.38,5.35-7.91,11.93-7.89"/>
      <path class="st4" d="M566.74,886.58c0,.86-.69,1.56-1.53,1.56"/>
      <path class="st4" d="M590.56,886.64c0,.86.74,1.57,1.65,1.57"/>
    </g>
    <g>
      <path class="st20" d="M564.8,933.74c-.02,7.12,6.11,12.91,13.69,12.93,5.58.01,11.11-3.62,13.03-8.75.26-.7.79-2.17.72-4.11-.23-6.06-6.24-12.91-13.69-12.93-7.58-.02-13.73,5.74-13.75,12.86Z"/>
      <path class="st4" d="M590.43,936.7c-.01,4.38-5.35,7.91-11.93,7.89"/>
      <path class="st4" d="M566.61,936.64c-.01,4.38,5.31,7.93,11.89,7.95"/>
      <path class="st4" d="M566.61,936.64c0-.86-.68-1.57-1.53-1.57"/>
      <path class="st4" d="M590.43,936.7c0-.86.74-1.56,1.66-1.56"/>
    </g>
    <rect class="st20" x="560.74" y="892.46" width="35.68" height="40.44" transform="translate(-335.57 1488.94) rotate(-89.85)"/>
  </g>
  <g>
    <rect class="st20" x="526.58" y="709.91" width="110.26" height="50.38" transform="translate(-153.04 1317.26) rotate(-90.03)"/>
    <rect class="st20" x="567.7" y="691.96" width="27.99" height="27.57" rx="1.42" ry="1.42" transform="translate(1163.82 1411.14) rotate(179.97)"/>
    <polygon class="st20" points="555.86 694.41 555.91 790.54 606.94 790.51 606.9 719.24 555.86 694.41"/>
  </g>
  <polygon class="st18" points="465.46 937.55 465.83 796.9 549.47 796.9 549.11 937.55 465.46 937.55"/>
  <g>
    <line class="st4" x1="552.34" y1="802.94" x2="552.36" y2="822.2"/>
    <line class="st4" x1="553.74" y1="822.2" x2="553.72" y2="802.93"/>
    <polyline class="st4" points="552.36 822.2 552.36 825.08 553.74 825.08 553.74 822.2 552.36 822.2"/>
    <polyline class="st4" points="552.33 800.11 552.34 802.94 553.72 802.93 553.71 800.11 552.33 800.11"/>
    <line class="st4" x1="549.28" y1="801.92" x2="552.1" y2="801.92"/>
    <line class="st4" x1="549.3" y1="823.09" x2="552.12" y2="823.09"/>
  </g>
  <polygon class="st9" points="465.53 951.48 465.55 914.15 465.53 883.44 499.79 883.44 499.79 951.48 465.53 951.48"/>
  <g>
    <g>
      <polyline class="st3" points="494.95 944.61 473.76 944.61 473.76 923.41 494.95 923.41 494.95 944.61"/>
      <line class="st3" x1="478.88" y1="933.96" x2="470.36" y2="933.96"/>
    </g>
    <polyline class="st3" points="498.05 949.78 467.26 949.78 467.26 918.25 498.05 918.25 498.05 949.78"/>
  </g>
  <g>
    <g>
      <line class="st7" x1="494.98" y1="893.42" x2="486.74" y2="893.42"/>
      <line class="st7" x1="479.38" y1="893.42" x2="471.14" y2="893.42"/>
      <line class="st7" x1="475.31" y1="889.61" x2="475.31" y2="897.33"/>
      <line class="st7" x1="490.81" y1="889.61" x2="490.81" y2="897.33"/>
    </g>
    <polyline class="st2" points="498.05 901.8 467.26 901.8 467.26 885.14 498.05 885.14 498.05 901.8"/>
  </g>
  <rect class="st25" x="593" y="608.59" width="8.5" height="107.81" transform="translate(-65.24 1259.75) rotate(-90)"/>
  <rect class="st25" x="459.51" y="699.91" width="8.5" height="96.24" transform="translate(927.53 1496.05) rotate(-180)"/>
  <rect class="st25" x="543.35" y="658.34" width="8.5" height="42.81" transform="translate(1095.2 1359.48) rotate(180)"/>
  <rect class="st25" x="502.69" y="654.22" width="3.54" height="94.78" transform="translate(1206.08 197.15) rotate(90)"/>
  <rect class="st25" x="457.07" y="699.91" width="8.5" height="112.76" transform="translate(922.65 1512.57) rotate(-180)"/>
  <rect class="st25" x="474.9" y="777.01" width="3.54" height="37.31" transform="translate(1272.33 318.99) rotate(90)"/>
  <rect class="st25" x="543.82" y="789.4" width="3.54" height="12.53" transform="translate(1341.25 250.07) rotate(90)"/>
  <rect class="st25" x="548.3" y="699.91" width="3.54" height="96.12"/>
  <path class="st25" d="M659,772.32l36.16-6.26-1.41-8.39-3.05.44c-5.92-33.37-16.71-104.94-16.71-104.94l-33.15,4.99s8.96,60.4,18.17,114.16Z"/>
  <path class="st25" d="M685.99,927.48c-3.71-18.17-7.23-37.38-10.45-57.48l33.58-.6c3,16.49,5.93,31.85,8.76,45.33l-31.89,12.75Z"/>
  <path class="st25" d="M686.03,927.77l-1.7-8.75c11.55-2.46,23.68-4.91,36.32-7.35l1.64,8.34-36.26,7.76Z"/>
  <path class="st25" d="M676.93,878.38l-1.44-8.38,36.49-6.44,1.44,8.38c-12.37,2.39-24.54,4.54-36.49,6.44Z"/>
  <rect class="st25" x="604.68" y="940.06" width="8.5" height="199.32" transform="translate(-430.78 1648.65) rotate(-90)"/>
  <polygon class="st25" points="742.93 1025.24 741.26 1016.9 704.97 1024.26 707.52 1032.41 742.93 1025.24"/>
  <polygon class="st25" points="708.58 1043.97 704.9 1024.27 737.99 1017.56 741.66 1037.25 708.58 1043.97"/>
  <rect class="st25" x="457.07" y="856.44" width="8.5" height="102.63" transform="translate(922.65 1815.51) rotate(-180)"/>
  <rect class="st25" x="509.08" y="951.47" width="8.5" height="92.49" transform="translate(1026.65 1995.43) rotate(-180)"/>
  <rect class="st25" x="481.52" y="927.02" width="8.5" height="57.39" transform="translate(1441.49 469.95) rotate(90)"/>
  <g>
    <path class="st4" d="M539.45,751.65c-11.6,0-22.94,4.79-31.27,13.11-8.07,8.07-12.86,19.41-12.86,31.01"/>
    <line class="st4" x1="539.45" y1="794.01" x2="539.45" y2="751.65"/>
    <polyline class="st4" points="495.33 795.78 539.45 795.78 539.45 794.01"/>
  </g>
  <g>
    <path class="st4" d="M465.4,856.73c11.6,0,22.95-4.79,31.27-13.11,8.07-8.07,12.86-19.42,12.86-31.01"/>
    <line class="st4" x1="465.4" y1="814.37" x2="465.4" y2="856.73"/>
    <polyline class="st4" points="509.53 812.61 465.4 812.61 465.4 814.37"/>
  </g>
  <g>
    <polyline class="st6" points="694.39 794.86 689.87 768.55 692.53 768.09 697.05 794.4 694.39 794.86"/>
    <polyline class="st5" points="706.08 862.62 694.93 797.81 697.59 797.36 708.74 862.16 706.08 862.62"/>
    <line class="st6" x1="700.86" y1="795.27" x2="695.84" y2="766.09"/>
    <polyline class="st6" points="695.79 765.82 695.86 766.24 694.97 766.39 695.2 767.69 689.88 768.61 689.58 766.89 695.79 765.82"/>
    <polyline class="st6" points="712.55 863.27 712.48 862.86 711.59 863.01 711.37 861.71 706.05 862.63 706.34 864.34 712.55 863.27"/>
    <polyline class="st6" points="700.81 795.04 700.89 795.45 700 795.6 700.21 796.84 694.89 797.76 694.39 794.86 699.71 793.95 699.93 795.19 700.81 795.04"/>
    <line class="st6" x1="695.19" y1="767.63" x2="699.71" y2="793.95"/>
    <line class="st6" x1="700.21" y1="796.84" x2="711.37" y2="861.71"/>
    <line class="st6" x1="692.53" y1="768.09" x2="695.19" y2="767.63"/>
    <line class="st6" x1="700.86" y1="795.27" x2="712.52" y2="863.07"/>
    <polyline class="st6" points="711.37 861.71 711.59 863.01 712.48 862.86 712.55 863.27 706.34 864.34 706.05 862.63 711.37 861.71"/>
    <line class="st10" x1="692.53" y1="768.09" x2="672.44" y2="785.12"/>
    <line class="st10" x1="697.01" y1="794.18" x2="672.39" y2="784.84"/>
    <line class="st13" x1="689.93" y1="768.54" x2="689.86" y2="768.49"/>
    <line class="st6" x1="694.89" y1="797.76" x2="706.05" y2="862.63"/>
    <line class="st6" x1="689.87" y1="768.55" x2="694.39" y2="794.86"/>
    <polyline class="st6" points="694.39 794.86 699.71 793.95 699.93 795.19 700.81 795.04 700.89 795.45 700 795.6 700.21 796.84 694.89 797.76 694.39 794.86"/>
    <polyline class="st6" points="694.96 766.33 695.19 767.63 689.87 768.55 689.58 766.89 695.79 765.82 695.85 766.18 694.96 766.33"/>
    <polyline class="st6" points="695.19 767.63 699.71 793.95 697.05 794.4 692.53 768.09 695.19 767.63"/>
  </g>
  <g>
    <polyline class="st6" points="722.24 948.96 716.97 922.78 719.61 922.25 724.89 948.42 722.24 948.96"/>
    <polyline class="st5" points="735.85 1016.36 722.86 951.89 725.51 951.36 738.5 1015.82 735.85 1016.36"/>
    <line class="st6" x1="728.71" y1="949.18" x2="722.86" y2="920.16"/>
    <polyline class="st6" points="722.81 919.89 722.89 920.3 722.01 920.48 722.27 921.78 716.98 922.84 716.63 921.14 722.81 919.89"/>
    <polyline class="st6" points="742.34 1016.82 742.26 1016.41 741.38 1016.59 741.12 1015.3 735.82 1016.36 736.17 1018.07 742.34 1016.82"/>
    <polyline class="st6" points="728.66 948.95 728.75 949.36 727.87 949.54 728.11 950.77 722.82 951.84 722.24 948.96 727.53 947.89 727.78 949.13 728.66 948.95"/>
    <line class="st6" x1="722.26" y1="921.72" x2="727.53" y2="947.89"/>
    <line class="st6" x1="728.11" y1="950.77" x2="741.12" y2="1015.3"/>
    <line class="st6" x1="719.61" y1="922.25" x2="722.26" y2="921.72"/>
    <line class="st6" x1="728.71" y1="949.18" x2="742.3" y2="1016.62"/>
    <polyline class="st6" points="741.12 1015.3 741.38 1016.59 742.26 1016.41 742.34 1016.82 736.17 1018.07 735.82 1016.36 741.12 1015.3"/>
    <line class="st10" x1="719.61" y1="922.25" x2="700.02" y2="939.85"/>
    <line class="st10" x1="724.84" y1="948.2" x2="699.97" y2="939.56"/>
    <line class="st13" x1="717.02" y1="922.77" x2="716.95" y2="922.72"/>
    <line class="st6" x1="722.82" y1="951.84" x2="735.82" y2="1016.36"/>
    <line class="st6" x1="716.97" y1="922.78" x2="722.24" y2="948.96"/>
    <polyline class="st6" points="722.24 948.96 727.53 947.89 727.78 949.13 728.66 948.95 728.75 949.36 727.87 949.54 728.11 950.77 722.82 951.84 722.24 948.96"/>
    <polyline class="st6" points="722 920.42 722.26 921.72 716.97 922.78 716.63 921.14 722.81 919.89 722.88 920.24 722 920.42"/>
    <polyline class="st6" points="722.26 921.72 727.53 947.89 724.89 948.42 719.61 922.25 722.26 921.72"/>
  </g>
  <path class="st14" d="M675.58,663.84"/>
  <rect class="st15" x="465.4" y="796.9" width="84.07" height="140.64"/>
</svg>