<?xml version="1.0" encoding="UTF-8"?>
<svg id="Vinduer_i_facade" xmlns="http://www.w3.org/2000/svg" version="1.1" viewBox="0 0 1200 1697.14">
  <!-- Generator: Adobe Illustrator 29.6.0, SVG Export Plug-In . SVG Version: 2.1.1 Build 207)  -->
  <defs>
    <style>
      .st0 {
        fill: #e2dedb;
      }

      .st1, .st2, .st3, .st4, .st5, .st6, .st7, .st8, .st9, .st10, .st11, .st12, .st13, .st14, .st15, .st16 {
        stroke: #363a3b;
      }

      .st1, .st2, .st3, .st10, .st11 {
        stroke-miterlimit: 10;
      }

      .st1, .st2, .st3, .st15, .st16 {
        fill: #fff;
      }

      .st1, .st10 {
        stroke-width: .29px;
      }

      .st2, .st6, .st17, .st14, .st18, .st19, .st16, .st20 {
        stroke-width: .28px;
      }

      .st3, .st8, .st11, .st12, .st21, .st15 {
        stroke-width: .28px;
      }

      .st4 {
        stroke-width: .3px;
      }

      .st4, .st5, .st6, .st7, .st8, .st9, .st17, .st10, .st11, .st12, .st13, .st21, .st14, .st18, .st22, .st19, .st20 {
        fill: none;
      }

      .st4, .st5, .st6, .st7, .st8, .st9, .st17, .st12, .st13, .st21, .st14, .st18, .st22, .st19, .st15, .st16, .st20 {
        stroke-linecap: round;
        stroke-linejoin: round;
      }

      .st5 {
        stroke-width: .28px;
      }

      .st7 {
        stroke-width: .28px;
      }

      .st9 {
        stroke-width: .29px;
      }

      .st23 {
        fill: #ece8e5;
      }

      .st17, .st18, .st22, .st19 {
        stroke: #000;
      }

      .st12, .st13, .st22 {
        stroke-dasharray: .06 .43;
      }

      .st13, .st22 {
        stroke-width: .18px;
      }

      .st21 {
        stroke: #0e0e0e;
      }

      .st14 {
        stroke-dasharray: .09 .69;
      }

      .st18 {
        stroke-dasharray: .09 .69;
      }

      .st19 {
        stroke-dasharray: .09 .68;
      }

      .st24 {
        fill: #302c35;
      }

      .st20 {
        stroke: #00001d;
      }
    </style>
  </defs>
  <polygon class="st23" points="692.8 733.79 687.05 740.72 558.12 740.14 558.12 733.79 484.63 733.79 484.63 1018.44 721.85 1018.44 721.85 733.79 692.8 733.79"/>
  <line class="st14" x1="559.78" y1="740.18" x2="687.05" y2="740.72"/>
  <g>
    <rect class="st16" x="636" y="810.97" width="110.26" height="50.38" transform="translate(-145.03 1527.3) rotate(-90)"/>
    <rect class="st16" x="677.14" y="793.02" width="27.99" height="27.57" rx="1.42" ry="1.42"/>
    <polygon class="st16" points="716.97 795.45 716.97 891.58 665.95 891.58 665.95 820.32 716.97 795.45"/>
  </g>
  <g>
    <g>
      <path class="st16" d="M509.99,808.29c-7.12,0-12.9,6.14-12.9,13.72,0,5.58,3.65,11.1,8.79,13.01.7.26,2.18.79,4.11.71,6.06-.24,12.9-6.28,12.9-13.72s-5.78-13.72-12.9-13.72Z"/>
      <path class="st6" d="M507.1,833.92c-4.38,0-7.92-5.33-7.92-11.91"/>
      <path class="st6" d="M507.1,810.1c-4.38,0-7.92,5.33-7.92,11.91"/>
      <path class="st6" d="M507.1,810.1c.86,0,1.56-.68,1.56-1.53"/>
      <path class="st6" d="M507.1,833.92c.86,0,1.56.74,1.56,1.66"/>
    </g>
    <g>
      <path class="st16" d="M554.26,808.29c7.12,0,12.9,6.14,12.9,13.72,0,5.58-3.65,11.1-8.79,13.01-.7.26-2.18.79-4.11.71-6.06-.24-12.9-6.28-12.9-13.72s5.78-13.72,12.9-13.72Z"/>
      <path class="st6" d="M557.15,833.92c4.38,0,7.92-5.33,7.92-11.91"/>
      <path class="st6" d="M557.15,810.1c4.38,0,7.92,5.33,7.92,11.91"/>
      <path class="st6" d="M557.15,810.1c-.86,0-1.56-.68-1.56-1.53"/>
      <path class="st6" d="M557.15,833.92c-.86,0-1.56.74-1.56,1.66"/>
    </g>
    <rect class="st16" x="515.33" y="801.79" width="35.68" height="40.44" transform="translate(1066.33 1644.02) rotate(-180)"/>
  </g>
  <g>
    <path class="st16" d="M610.13,748.59c6.26,7.8,12.52,15.61,18.78,23.41.18.41.03.92-.37,1.24-8.31,8.71-17.89,16.2-28.33,22.15-.17.1-.38.09-.5-.04-.59-.73-1.17-1.45-1.76-2.18l-16.98-21.01,29.17-23.57"/>
    <path class="st16" d="M608.52,747.09c.68.65,1.26,1.37,1.77,2.16.09.16.04.37-.13.51-9.16,7.76-18.44,15.35-27.86,22.78-.26.16-.57.13-.74-.07-.71-.74-1.34-1.54-1.88-2.41"/>
    <path class="st16" d="M611.21,752.34c.57-.46-.06-2.18-1.4-3.84-.11-.13-.22-.26-.33-.39l-.95-1.03c-.14-.12-.36-.11-.52.02l-28.39,22.95,1.95,2.42c.65.78,1.3,1.55,1.96,2.33.36.26.89.22,1.29-.1,9.96-5.95,18.92-13.54,26.4-22.35Z"/>
    <path class="st16" d="M610.16,750.69c.13.43.29.84.48,1.24.13.51.29,1.02.48,1.51.26.67.51,1.34.76,2.02.34.93.76,1.81,1.27,2.66.31.52.63,1.02.98,1.52.36.52.73,1.05,1.11,1.56.89,1.23,1.84,2.41,2.86,3.54,1.03,1.14,2.14,2.18,3.35,3.14.91.72,1.88,1.34,2.93,1.88.66.34,1.33.46,2.13.4.07,0,.12-.03.18-.07l.51-.41c.1-.16.12-.3.08-.47-6.07-7.51-12.14-15.02-18.21-22.53-.11-.13-.32-.14-.48-.01l-.16.13h0c-.15.13-.19.34-.1.48.21.35.42.69.63,1.04.31.44.58.89.81,1.38l.41,1.02Z"/>
    <path class="st16" d="M582.83,772.78c.39.22.76.46,1.12.73.47.24.93.5,1.37.79.6.39,1.21.78,1.81,1.16.84.53,1.61,1.13,2.33,1.8.44.41.87.83,1.28,1.27.44.47.87.94,1.3,1.41,1.02,1.13,1.97,2.3,2.86,3.54.9,1.24,1.68,2.55,2.36,3.93.51,1.04.92,2.12,1.22,3.26.19.72.18,1.4-.05,2.16-.02.06-.05.11-.11.16l-.51.41c-.18.06-.32.06-.48-.02-6.07-7.51-12.14-15.02-18.21-22.53-.11-.13-.07-.34.09-.47l.16-.13h0c.16-.12.37-.12.49,0,.29.28.59.55.88.83.36.39.75.75,1.18,1.08l.91.61Z"/>
  </g>
  <circle class="st2" cx="634.19" cy="802.49" r="13.02"/>
  <g>
    <path class="st6" d="M634.58,956.45c11.6,0,22.94-4.79,31.27-13.11,8.07-8.07,12.86-19.41,12.86-31.01"/>
    <line class="st6" x1="634.58" y1="914.09" x2="634.58" y2="956.45"/>
    <polyline class="st6" points="678.7 912.33 634.58 912.33 634.58 914.09"/>
  </g>
  <g>
    <g>
      <polyline class="st17" points="716.45 948.41 716.5 948.41 716.5 948.45"/>
      <line class="st18" x1="716.5" y1="949.15" x2="716.5" y2="992.67"/>
      <polyline class="st17" points="716.5 993.01 716.5 993.06 716.45 993.06"/>
      <line class="st19" x1="715.77" y1="993.06" x2="672.76" y2="993.06"/>
      <polyline class="st17" points="672.42 993.06 672.37 993.06 672.37 993.01"/>
      <line class="st18" x1="672.37" y1="992.32" x2="672.37" y2="948.8"/>
      <polyline class="st17" points="672.37 948.45 672.37 948.41 672.42 948.41"/>
      <line class="st19" x1="673.1" y1="948.41" x2="716.11" y2="948.41"/>
    </g>
    <g>
      <line class="st6" x1="694.47" y1="992.88" x2="694.47" y2="980.58"/>
      <path class="st16" d="M697.16,980.64c0,1.52-1.23,2.75-2.75,2.75s-2.75-1.23-2.75-2.75,1.23-2.75,2.75-2.75,2.75,1.23,2.75,2.75"/>
    </g>
  </g>
  <path class="st2" d="M669.26,993.66v-16.09c0-6.19-4.45-11.2-9.95-11.2-5.5,0-9.95,5.01-9.95,11.2v16.09s19.9,0,19.9,0Z"/>
  <g>
    <path class="st15" d="M716.75,911.79h-18.5c-.41,0-.74.21-.74.47v26.59c0,.32.33.59.74.59h18.5"/>
    <path class="st6" d="M714.05,926.66c-.55,0-1-.45-1-1s.45-1,1-1,1,.45,1,1-.45,1-1,1"/>
    <g>
      <path class="st6" d="M705.24,926.87c-.68,0-1.23-.55-1.23-1.23s.55-1.23,1.23-1.23,1.23.55,1.23,1.23-.55,1.23-1.23,1.23"/>
      <path class="st6" d="M705.24,927.45c-1,0-1.82-.81-1.82-1.82s.81-1.82,1.82-1.82,1.82.81,1.82,1.82-.81,1.82-1.82,1.82"/>
    </g>
    <path class="st8" d="M710.84,913.81h-10.82c-.41,0-.74.23-.74.52v22.61c0,.29.33.52.74.52h10.82c.41,0,.74-.23.74-.52v-22.61c0-.29-.33-.52-.74-.52Z"/>
  </g>
  <g>
    <polygon class="st1" points="490.56 1010.12 490.58 972.79 490.55 942.08 524.81 942.08 524.81 1010.12 490.56 1010.12"/>
    <g>
      <g>
        <polyline class="st5" points="519.98 1003.26 498.78 1003.26 498.78 982.06 519.98 982.06 519.98 1003.26"/>
        <line class="st5" x1="503.91" y1="992.6" x2="495.39" y2="992.6"/>
      </g>
      <polyline class="st5" points="523.08 1008.42 492.28 1008.42 492.28 976.89 523.08 976.89 523.08 1008.42"/>
    </g>
    <g>
      <g>
        <line class="st9" x1="520.01" y1="952.07" x2="511.77" y2="952.07"/>
        <line class="st9" x1="504.41" y1="952.07" x2="496.16" y2="952.07"/>
        <line class="st9" x1="500.34" y1="948.26" x2="500.34" y2="955.98"/>
        <line class="st9" x1="515.83" y1="948.26" x2="515.83" y2="955.98"/>
      </g>
      <polyline class="st4" points="523.08 960.45 492.28 960.45 492.28 943.79 523.08 943.79 523.08 960.45"/>
    </g>
  </g>
  <path class="st20" d="M524.83,941.64"/>
  <line class="st6" x1="490.81" y1="942.03" x2="524.83" y2="942.03"/>
  <line class="st3" x1="490.81" y1="942.03" x2="524.82" y2="942.03"/>
  <path class="st13" d="M524.82,884.67l16.54,23.26s-7.42,4.85-16.54,4.89"/>
  <path class="st13" d="M524.82,941.22l16.54-22.75s-7.42-4.74-16.54-4.79"/>
  <rect class="st3" x="490.78" y="913.17" width="34.03" height="28.87"/>
  <rect class="st3" x="490.78" y="884.35" width="34.03" height="28.87"/>
  <rect class="st0" x="478.42" y="898.72" width="122.32" height="100.67" transform="translate(-409.48 1488.64) rotate(-90)"/>
  <g>
    <line class="st6" x1="493.91" y1="859.09" x2="493.91" y2="878.35"/>
    <line class="st6" x1="495.29" y1="878.35" x2="495.29" y2="859.09"/>
    <polyline class="st6" points="493.91 878.35 493.91 881.23 495.29 881.23 495.29 878.35 493.91 878.35"/>
    <polyline class="st6" points="493.91 856.27 493.91 859.09 495.29 859.09 495.29 856.27 493.91 856.27"/>
    <line class="st6" x1="490.85" y1="858.07" x2="493.67" y2="858.07"/>
    <line class="st6" x1="490.85" y1="879.24" x2="493.67" y2="879.24"/>
  </g>
  <g>
    <polygon class="st10" points="490.56 1010.12 490.58 972.79 490.55 942.08 524.81 942.08 524.81 1010.12 490.56 1010.12"/>
    <g>
      <g>
        <polyline class="st5" points="519.98 1003.26 498.78 1003.26 498.78 982.06 519.98 982.06 519.98 1003.26"/>
        <line class="st5" x1="503.91" y1="992.6" x2="495.39" y2="992.6"/>
      </g>
      <polyline class="st5" points="523.08 1008.42 492.28 1008.42 492.28 976.89 523.08 976.89 523.08 1008.42"/>
    </g>
    <g>
      <g>
        <line class="st9" x1="520.01" y1="952.07" x2="511.77" y2="952.07"/>
        <line class="st9" x1="504.41" y1="952.07" x2="496.16" y2="952.07"/>
        <line class="st9" x1="500.34" y1="948.26" x2="500.34" y2="955.98"/>
        <line class="st9" x1="515.83" y1="948.26" x2="515.83" y2="955.98"/>
      </g>
      <polyline class="st4" points="523.08 960.45 492.28 960.45 492.28 943.79 523.08 943.79 523.08 960.45"/>
    </g>
  </g>
  <path class="st20" d="M524.83,941.64"/>
  <line class="st6" x1="490.81" y1="942.03" x2="524.83" y2="942.03"/>
  <line class="st3" x1="490.81" y1="942.03" x2="524.82" y2="942.03"/>
  <path class="st13" d="M524.82,884.67l16.54,23.26s-7.42,4.85-16.54,4.89"/>
  <path class="st13" d="M524.82,941.22l16.54-22.75s-7.42-4.74-16.54-4.79"/>
  <rect class="st11" x="490.78" y="913.17" width="34.03" height="28.87"/>
  <rect class="st11" x="490.78" y="884.35" width="34.03" height="28.87"/>
  <rect class="st24" x="632.91" y="956.45" width="3.54" height="61.57"/>
  <rect class="st24" x="632.91" y="899.59" width="3.54" height="12.75"/>
  <rect class="st24" x="632.97" y="899.59" width="87.71" height="3.54"/>
  <rect class="st24" x="633.03" y="993.53" width="94.26" height="24.91"/>
  <rect class="st24" x="472.71" y="731.64" width="86.86" height="8.5"/>
  <polygon class="st24" points="486.43 1018.41 575.72 1018.64 575.72 1010.13 486.44 1009.91 486.43 1018.41"/>
  <rect class="st24" x="619.61" y="1009.98" width="96.79" height="8.5"/>
  <polyline class="st24" points="688.55 726.09 695.56 726.09 695.56 679.41 687.06 679.41 687.06 736.29 688.55 736.29 688.55 726.09"/>
  <polyline class="st24" points="552.55 726.09 559.56 726.09 559.56 679.41 551.06 679.41 551.06 736.29 552.55 736.29 552.55 726.09"/>
  <rect class="st24" x="499.13" y="679.74" width="34.02" height="86.86" transform="translate(1239.31 207.04) rotate(90)"/>
  <rect class="st24" x="718.79" y="738.38" width="8.5" height="280.06"/>
  <rect class="st24" x="482.47" y="738.38" width="8.5" height="280.06"/>
  <rect class="st24" x="690.16" y="703.59" width="34.02" height="40.25" transform="translate(1430.88 16.54) rotate(90)"/>
  <g>
    <polyline class="st8" points="658.78 684.81 685.48 684.81 685.48 682.11 658.78 682.11 658.78 684.81"/>
    <polyline class="st7" points="561.31 684.78 655.78 684.78 655.78 682.08 561.31 682.08 561.31 684.78"/>
    <line class="st8" x1="657.28" y1="678.51" x2="686.89" y2="678.51"/>
    <polyline class="st8" points="687.16 678.51 686.74 678.51 686.74 679.41 685.42 679.41 685.42 684.81 687.16 684.81 687.16 678.51"/>
    <polyline class="st8" points="559.57 678.51 559.99 678.51 559.99 679.41 561.31 679.41 561.31 684.81 559.57 684.81 559.57 678.51"/>
    <polyline class="st8" points="657.52 678.51 657.1 678.51 657.1 679.41 655.84 679.41 655.84 684.81 658.78 684.81 658.78 679.41 657.52 679.41 657.52 678.51"/>
    <line class="st8" x1="685.48" y1="679.41" x2="658.78" y2="679.41"/>
    <line class="st8" x1="655.84" y1="679.41" x2="561.31" y2="679.41"/>
    <line class="st8" x1="685.48" y1="682.11" x2="685.48" y2="679.41"/>
    <line class="st8" x1="657.28" y1="678.51" x2="559.78" y2="678.51"/>
    <polyline class="st8" points="561.31 679.41 559.99 679.41 559.99 678.51 559.57 678.51 559.57 684.81 561.31 684.81 561.31 679.41"/>
    <line class="st12" x1="685.48" y1="682.11" x2="672.1" y2="704.79"/>
    <line class="st12" x1="659.01" y1="682.11" x2="672.39" y2="704.79"/>
    <line class="st21" x1="685.48" y1="684.75" x2="685.54" y2="684.81"/>
    <line class="st8" x1="655.84" y1="684.81" x2="561.31" y2="684.81"/>
    <line class="st8" x1="685.48" y1="684.81" x2="658.78" y2="684.81"/>
    <polyline class="st8" points="658.78 684.81 658.78 679.41 657.52 679.41 657.52 678.51 657.1 678.51 657.1 679.41 655.84 679.41 655.84 684.81 658.78 684.81"/>
    <polyline class="st8" points="686.8 679.41 685.48 679.41 685.48 684.81 687.16 684.81 687.16 678.51 686.8 678.51 686.8 679.41"/>
    <polyline class="st8" points="685.48 679.41 658.78 679.41 658.78 682.11 685.48 682.11 685.48 679.41"/>
  </g>
  <rect class="st24" x="716.78" y="900.15" width="2.88" height="109.52"/>
  <g>
    <path class="st6" d="M575.47,1010.18c0-11.6,4.79-22.95,13.11-31.27,8.07-8.07,19.42-12.86,31.01-12.86"/>
    <line class="st6" x1="617.83" y1="1010.18" x2="575.47" y2="1010.18"/>
    <polyline class="st6" points="619.6 966.05 619.6 1010.18 617.83 1010.18"/>
  </g>
  <rect class="st22" x="485.52" y="887.9" width="104.8" height="122.23"/>
</svg>