<?xml version="1.0" encoding="UTF-8"?>
<svg id="Vinduer_i_facade" xmlns="http://www.w3.org/2000/svg" version="1.1" viewBox="0 0 1200 1697.14">
  <!-- Generator: Adobe Illustrator 29.6.0, SVG Export Plug-In . SVG Version: 2.1.1 Build 207)  -->
  <defs>
    <style>
      .st0 {
        fill: #e2dedb;
      }

      .st1 {
        stroke-dasharray: .09 .69;
      }

      .st1, .st2, .st3, .st4, .st5, .st6, .st7 {
        stroke-width: .28px;
      }

      .st1, .st8, .st9, .st3, .st10, .st11, .st12, .st4, .st13, .st14, .st15, .st16, .st5, .st17, .st6 {
        fill: none;
      }

      .st1, .st8, .st9, .st3, .st10, .st11, .st12, .st4, .st14, .st15, .st16, .st5, .st17, .st6, .st18, .st7 {
        stroke-linecap: round;
        stroke-linejoin: round;
      }

      .st1, .st4, .st5, .st17, .st6 {
        stroke: #000;
      }

      .st19, .st2, .st8, .st9, .st3, .st10, .st11, .st12, .st13, .st14, .st15, .st18, .st7 {
        stroke: #363a3b;
      }

      .st19, .st2, .st13 {
        stroke-miterlimit: 10;
      }

      .st19, .st2, .st20, .st18, .st7 {
        fill: #fff;
      }

      .st19, .st13 {
        stroke-width: .29px;
      }

      .st8 {
        stroke-width: .3px;
      }

      .st9 {
        stroke-width: .28px;
      }

      .st10 {
        stroke-width: .28px;
      }

      .st11, .st16, .st18 {
        stroke-width: .28px;
      }

      .st12 {
        stroke-width: .29px;
      }

      .st21 {
        fill: #ece8e5;
      }

      .st14 {
        stroke-width: .18px;
      }

      .st14, .st15, .st17 {
        stroke-dasharray: .06 .43;
      }

      .st15, .st17 {
        stroke-width: .18px;
      }

      .st16 {
        stroke: #0e0e0e;
      }

      .st5 {
        stroke-dasharray: .09 .69;
      }

      .st6 {
        stroke-dasharray: .09 .68;
      }

      .st22 {
        fill: #302c35;
      }
    </style>
  </defs>
  <polygon class="st21" points="533.68 724.14 632.57 719.47 635.54 716.26 673.23 713.6 672.35 891.85 737.97 892.73 737.97 990.28 652.39 990.28 652.39 1015.11 461.78 1015.28 461.74 838.2 492.77 838.2 492.77 696.76 533.68 724.14"/>
  <line class="st1" x1="632.03" y1="719.44" x2="533.73" y2="724.08"/>
  <rect class="st11" x="466.62" y="841.51" width="26.93" height="28.9"/>
  <path class="st15" d="M493.58,841.72l16.54,22.62s-7.42,5.21-16.54,5.25"/>
  <rect class="st20" x="466.99" y="841.51" width="26.56" height="28.9"/>
  <g>
    <g>
      <polyline class="st4" points="688.61 940.18 688.56 940.18 688.56 940.23"/>
      <line class="st5" x1="688.56" y1="940.92" x2="688.56" y2="984.44"/>
      <polyline class="st4" points="688.56 984.79 688.56 984.83 688.61 984.83"/>
      <line class="st6" x1="689.29" y1="984.83" x2="732.3" y2="984.83"/>
      <polyline class="st4" points="732.65 984.83 732.69 984.83 732.69 984.79"/>
      <line class="st5" x1="732.69" y1="984.1" x2="732.69" y2="940.58"/>
      <polyline class="st4" points="732.69 940.23 732.69 940.18 732.65 940.18"/>
      <line class="st6" x1="731.96" y1="940.18" x2="688.95" y2="940.18"/>
    </g>
    <g>
      <line class="st3" x1="710.59" y1="984.66" x2="710.59" y2="972.36"/>
      <path class="st7" d="M707.9,972.42c0,1.52,1.23,2.75,2.75,2.75s2.75-1.23,2.75-2.75-1.23-2.75-2.75-2.75-2.75,1.23-2.75,2.75"/>
    </g>
  </g>
  <path class="st2" d="M665.57,985.67v-16.09c0-6.19,4.45-11.2,9.95-11.2s9.95,5.01,9.95,11.2v16.09s-19.9,0-19.9,0Z"/>
  <g>
    <path class="st18" d="M733.32,930.99h-18.5c-.41,0-.74-.21-.74-.47v-26.59c0-.32.33-.59.74-.59h18.5"/>
    <path class="st3" d="M730.63,916.12c-.55,0-1,.45-1,1s.45,1,1,1,1-.45,1-1-.45-1-1-1"/>
    <g>
      <path class="st3" d="M721.81,915.91c-.68,0-1.23.55-1.23,1.23s.55,1.23,1.23,1.23,1.23-.55,1.23-1.23-.55-1.23-1.23-1.23"/>
      <path class="st3" d="M721.81,915.33c-1,0-1.82.81-1.82,1.82s.81,1.82,1.82,1.82,1.82-.81,1.82-1.82-.81-1.82-1.82-1.82"/>
    </g>
    <path class="st11" d="M727.41,928.97h-10.82c-.41,0-.74-.23-.74-.52v-22.61c0-.29.33-.52.74-.52h10.82c.41,0,.74.23.74.52v22.61c0,.29-.33.52-.74.52Z"/>
  </g>
  <g>
    <g>
      <path class="st7" d="M535.98,911.95c-7.12-.02-12.88-6.17-12.86-13.75.01-5.58,3.68-11.1,8.82-12.98.7-.26,2.18-.78,4.11-.7,6.06.26,12.88,6.31,12.86,13.75-.02,7.58-5.81,13.7-12.93,13.69Z"/>
      <path class="st3" d="M533.15,886.31c-4.38-.01-7.93,5.31-7.95,11.89"/>
      <path class="st3" d="M533.09,910.13c-4.38-.01-7.91-5.35-7.89-11.93"/>
      <path class="st3" d="M533.09,910.13c.86,0,1.56.69,1.56,1.53"/>
      <path class="st3" d="M533.15,886.31c.86,0,1.57-.74,1.57-1.65"/>
    </g>
    <g>
      <path class="st7" d="M580.26,912.06c7.12.02,12.91-6.11,12.93-13.69.01-5.58-3.62-11.11-8.75-13.03-.7-.26-2.17-.79-4.11-.72-6.06.23-12.91,6.24-12.93,13.69-.02,7.58,5.74,13.73,12.86,13.75Z"/>
      <path class="st3" d="M583.21,886.44c4.38.01,7.91,5.35,7.89,11.93"/>
      <path class="st3" d="M583.15,910.26c4.38.01,7.93-5.31,7.95-11.89"/>
      <path class="st3" d="M583.15,910.26c-.86,0-1.57.68-1.57,1.53"/>
      <path class="st3" d="M583.21,886.44c-.86,0-1.56-.74-1.56-1.66"/>
    </g>
    <rect class="st7" x="541.36" y="878.07" width="35.68" height="40.44" transform="translate(1116.11 1797.99) rotate(-179.85)"/>
  </g>
  <g>
    <rect class="st7" x="584.81" y="763.72" width="110.26" height="50.38" transform="translate(-149.36 1428.38) rotate(-89.97)"/>
    <rect class="st7" x="625.96" y="745.77" width="27.99" height="27.57" rx="1.42" ry="1.42"/>
    <polygon class="st7" points="665.8 748.22 665.74 844.35 614.72 844.32 614.76 773.05 665.8 748.22"/>
  </g>
  <g>
    <g>
      <path class="st7" d="M536.02,735.06c6.26,7.8,12.52,15.61,18.78,23.41.18.41.03.92-.37,1.24-8.31,8.71-17.89,16.2-28.33,22.15-.17.1-.38.09-.5-.04-.59-.73-1.17-1.45-1.76-2.18l-16.98-21.01,29.17-23.57"/>
      <path class="st7" d="M534.41,733.56c.68.65,1.26,1.37,1.77,2.16.09.16.04.37-.13.51-9.16,7.76-18.44,15.35-27.86,22.78-.26.16-.57.13-.74-.07-.71-.74-1.34-1.54-1.88-2.41"/>
      <path class="st7" d="M537.1,738.82c.57-.46-.06-2.18-1.4-3.84-.11-.13-.22-.26-.33-.39l-.95-1.03c-.14-.12-.36-.11-.52.02l-28.39,22.95,1.95,2.42c.65.78,1.3,1.55,1.96,2.33.36.26.89.22,1.29-.1,9.96-5.95,18.92-13.54,26.4-22.35Z"/>
      <path class="st7" d="M536.05,737.16c.13.43.29.84.48,1.24.13.51.29,1.02.48,1.51.26.67.51,1.34.76,2.02.34.93.76,1.81,1.27,2.66.31.52.63,1.02.98,1.52.36.52.73,1.05,1.11,1.56.89,1.23,1.84,2.41,2.86,3.54,1.03,1.14,2.14,2.18,3.35,3.14.91.72,1.88,1.34,2.93,1.88.66.34,1.33.46,2.13.4.07,0,.12-.03.18-.07l.51-.41c.1-.16.12-.3.08-.47-6.07-7.51-12.14-15.02-18.21-22.53-.11-.13-.32-.14-.48-.01l-.16.13h0c-.15.13-.19.34-.1.48.21.35.42.69.63,1.04.31.44.58.89.81,1.38l.41,1.02Z"/>
      <path class="st7" d="M508.73,759.25c.39.22.76.46,1.12.73.47.24.93.5,1.37.79.6.39,1.21.78,1.81,1.16.84.53,1.61,1.13,2.33,1.8.44.41.87.83,1.28,1.27.44.47.87.94,1.3,1.41,1.02,1.13,1.97,2.3,2.86,3.54.9,1.24,1.68,2.55,2.36,3.93.51,1.04.92,2.12,1.22,3.26.19.72.18,1.4-.05,2.16-.02.06-.05.11-.11.16l-.51.41c-.18.06-.32.06-.48-.02-6.07-7.51-12.14-15.02-18.21-22.53-.11-.13-.07-.34.09-.47l.16-.13h0c.16-.12.37-.12.49,0,.29.28.59.55.88.83.36.39.75.75,1.18,1.08l.91.61Z"/>
    </g>
    <circle class="st2" cx="575.95" cy="775.17" r="13.02"/>
  </g>
  <polygon class="st19" points="649.25 1007.25 611.91 1007.22 581.21 1007.25 581.21 972.99 649.25 972.99 649.25 1007.25"/>
  <g>
    <g>
      <polyline class="st7" points="581.25 972.97 556.44 972.97 556.44 1006.99 581.25 1006.99 581.25 972.97"/>
      <path class="st7" d="M556.05,972.97"/>
      <path class="st7" d="M556.44,972.97"/>
    </g>
    <path class="st15" d="M556.44,972.97l19.53-16.54s4.36,7.42,4.4,16.54"/>
    <g>
      <g>
        <polyline class="st9" points="642.38 977.82 642.38 999.02 621.18 999.02 621.18 977.82 642.38 977.82"/>
        <line class="st9" x1="631.72" y1="993.9" x2="631.72" y2="1002.42"/>
      </g>
      <polyline class="st9" points="647.55 974.72 647.55 1005.52 616.02 1005.52 616.02 974.72 647.55 974.72"/>
    </g>
    <g>
      <g>
        <line class="st12" x1="591.19" y1="977.8" x2="591.19" y2="986.04"/>
        <line class="st12" x1="591.19" y1="993.4" x2="591.19" y2="1001.64"/>
        <line class="st12" x1="587.38" y1="997.46" x2="595.1" y2="997.46"/>
        <line class="st12" x1="587.38" y1="981.97" x2="595.1" y2="981.97"/>
      </g>
      <polyline class="st8" points="599.57 974.72 599.57 1005.52 582.91 1005.52 582.91 974.72 599.57 974.72"/>
    </g>
  </g>
  <rect class="st0" x="489.24" y="901.71" width="82.94" height="127.5" transform="translate(-434.75 1496.17) rotate(-90)"/>
  <g>
    <line class="st3" x1="470.23" y1="896.89" x2="470.26" y2="916.16"/>
    <line class="st3" x1="471.64" y1="916.16" x2="471.61" y2="896.89"/>
    <polyline class="st3" points="470.26 916.16 470.26 919.04 471.64 919.04 471.64 916.16 470.26 916.16"/>
    <polyline class="st3" points="470.23 894.07 470.23 896.89 471.61 896.89 471.61 894.07 470.23 894.07"/>
    <line class="st3" x1="467.17" y1="895.88" x2="469.99" y2="895.87"/>
    <line class="st3" x1="467.2" y1="917.05" x2="470.02" y2="917.05"/>
  </g>
  <g>
    <polyline class="st3" points="581.25 972.97 556.44 972.97 556.44 1006.99 581.25 1006.99 581.25 972.97"/>
    <path class="st3" d="M556.05,972.97"/>
    <path class="st3" d="M556.44,972.97"/>
  </g>
  <path class="st15" d="M556.44,972.97l19.53-16.54s4.36,7.42,4.4,16.54"/>
  <g>
    <g>
      <polyline class="st9" points="642.38 977.82 642.38 999.02 621.18 999.02 621.18 977.82 642.38 977.82"/>
      <line class="st9" x1="631.72" y1="993.9" x2="631.72" y2="1002.42"/>
    </g>
    <polyline class="st9" points="647.55 974.72 647.55 1005.52 616.02 1005.52 616.02 974.72 647.55 974.72"/>
  </g>
  <g>
    <g>
      <line class="st12" x1="591.19" y1="977.8" x2="591.19" y2="986.04"/>
      <line class="st12" x1="591.19" y1="993.4" x2="591.19" y2="1001.64"/>
      <line class="st12" x1="587.38" y1="997.46" x2="595.1" y2="997.46"/>
      <line class="st12" x1="587.38" y1="981.97" x2="595.1" y2="981.97"/>
    </g>
    <polyline class="st8" points="599.57 974.72 599.57 1005.52 582.91 1005.52 582.91 974.72 599.57 974.72"/>
  </g>
  <polygon class="st13" points="649.25 1007.25 611.91 1007.22 581.21 1007.25 581.21 972.99 649.25 972.99 649.25 1007.25"/>
  <polygon class="st22" points="641.07 719.03 632.57 719.47 631.26 682.52 639.76 682.22 641.07 719.03"/>
  <rect class="st22" x="524.55" y="686.83" width="8.5" height="36.58" transform="translate(1080.61 1392.38) rotate(178.11)"/>
  <polygon class="st22" points="488.57 725.63 533.68 724.14 532.55 689.86 488.6 691.35 488.57 725.63"/>
  <polygon class="st22" points="488.19 691.28 496.69 691.07 496.69 841.69 488.45 841.69 488.19 691.28"/>
  <polygon class="st22" points="677.23 892.96 668.73 892.95 668.73 690.34 677.23 689.9 677.23 892.96"/>
  <polygon class="st22" points="632.83 719.44 677.2 717.35 677.26 686.88 631.57 688.97 632.83 719.44"/>
  <rect class="st22" x="461.13" y="833.18" width="34.79" height="8.5"/>
  <rect class="st22" x="371.64" y="919.99" width="182.12" height="8.5" transform="translate(-461.54 1386.95) rotate(-90)"/>
  <rect class="st22" x="458.69" y="1006.8" width="17.43" height="8.5" transform="translate(934.81 2022.11) rotate(-180)"/>
  <rect class="st22" x="520.15" y="1006.8" width="137.42" height="8.5" transform="translate(1177.73 2022.11) rotate(-180)"/>
  <rect class="st22" x="649.24" y="985.26" width="8.5" height="30.05"/>
  <rect class="st22" x="692.11" y="944.74" width="8.5" height="89.41" transform="translate(-293.07 1685.83) rotate(-90)"/>
  <rect class="st22" x="649.24" y="947.66" width="3.54" height="42.68"/>
  <rect class="st22" x="693.61" y="846.7" width="3.54" height="92.28" transform="translate(-197.46 1588.21) rotate(-90)"/>
  <rect class="st22" x="649.24" y="891.07" width="3.54" height="12.6"/>
  <rect class="st22" x="733.04" y="886.12" width="8.5" height="107.58"/>
  <rect class="st22" x="703.08" y="856.14" width="8.5" height="68.39" transform="translate(-183 1597.67) rotate(-90)"/>
  <g>
    <path class="st3" d="M695.06,903.67c0,11.6-4.79,22.94-13.11,31.27-8.07,8.07-19.41,12.86-31.01,12.86"/>
    <line class="st3" x1="652.7" y1="903.67" x2="695.06" y2="903.67"/>
    <polyline class="st3" points="650.93 947.8 650.93 903.67 652.7 903.67"/>
  </g>
  <g>
    <path class="st3" d="M520.21,1006.98c0-11.6-4.79-22.95-13.11-31.27-8.07-8.07-19.42-12.86-31.01-12.86"/>
    <line class="st3" x1="477.85" y1="1006.98" x2="520.21" y2="1006.98"/>
    <polyline class="st3" points="476.08 962.86 476.08 1006.98 477.85 1006.98"/>
  </g>
  <g>
    <polyline class="st11" points="561.08 691 534.4 692.08 534.29 689.38 560.97 688.3 561.08 691"/>
    <polyline class="st10" points="629.78 688.17 564.08 690.84 563.97 688.15 629.67 685.48 629.78 688.17"/>
    <line class="st11" x1="562.32" y1="684.64" x2="532.74" y2="685.84"/>
    <polyline class="st11" points="532.47 685.85 532.89 685.84 532.92 686.73 534.24 686.68 534.46 692.08 532.72 692.15 532.47 685.85"/>
    <polyline class="st11" points="631.27 681.84 630.85 681.85 630.88 682.75 629.56 682.81 629.78 688.2 631.52 688.13 631.27 681.84"/>
    <polyline class="st11" points="562.08 684.65 562.5 684.63 562.54 685.53 563.8 685.48 564.02 690.88 561.08 691 560.86 685.6 562.12 685.55 562.08 684.65"/>
    <line class="st11" x1="534.18" y1="686.68" x2="560.86" y2="685.6"/>
    <line class="st11" x1="563.8" y1="685.48" x2="629.56" y2="682.81"/>
    <line class="st11" x1="534.29" y1="689.38" x2="534.18" y2="686.68"/>
    <line class="st11" x1="562.32" y1="684.64" x2="631.06" y2="681.85"/>
    <polyline class="st11" points="629.56 682.81 630.88 682.75 630.85 681.85 631.27 681.84 631.52 688.13 629.78 688.2 629.56 682.81"/>
    <line class="st14" x1="534.29" y1="689.38" x2="548.58" y2="711.5"/>
    <line class="st14" x1="560.74" y1="688.31" x2="548.29" y2="711.51"/>
    <line class="st16" x1="534.4" y1="692.02" x2="534.34" y2="692.08"/>
    <line class="st11" x1="564.02" y1="690.88" x2="629.78" y2="688.2"/>
    <line class="st11" x1="534.4" y1="692.08" x2="561.08" y2="691"/>
    <polyline class="st11" points="561.08 691 560.86 685.6 562.12 685.55 562.08 684.65 562.5 684.63 562.54 685.53 563.8 685.48 564.02 690.88 561.08 691"/>
    <polyline class="st11" points="532.86 686.74 534.18 686.68 534.4 692.08 532.72 692.15 532.47 685.85 532.83 685.84 532.86 686.74"/>
    <polyline class="st11" points="534.18 686.68 560.86 685.6 560.97 688.3 534.29 689.38 534.18 686.68"/>
  </g>
  <rect class="st17" x="463.51" y="923.7" width="131.03" height="83.53"/>
</svg>