<?xml version="1.0" encoding="UTF-8"?>
<svg id="Vinduer_i_facade" xmlns="http://www.w3.org/2000/svg" version="1.1" viewBox="0 0 1200 1697.14">
  <!-- Generator: Adobe Illustrator 29.6.0, SVG Export Plug-In . SVG Version: 2.1.1 Build 207)  -->
  <defs>
    <style>
      .st0 {
        stroke-dasharray: .08 .57;
        stroke-width: .19px;
      }

      .st0, .st1, .st2, .st3, .st4, .st5, .st6, .st7, .st8, .st9, .st10, .st11, .st12, .st13, .st14, .st15, .st16, .st17, .st18, .st19, .st20, .st21 {
        stroke: #363a3b;
      }

      .st0, .st4, .st5, .st6, .st7, .st8, .st9, .st10, .st11, .st12, .st13, .st22, .st14, .st15, .st16, .st23, .st24, .st25, .st17, .st18, .st19, .st26 {
        fill: none;
      }

      .st0, .st4, .st5, .st6, .st7, .st8, .st9, .st10, .st11, .st12, .st13, .st22, .st16, .st23, .st24, .st25, .st17, .st18, .st19, .st20, .st21, .st26 {
        stroke-linejoin: round;
      }

      .st0, .st4, .st5, .st6, .st7, .st8, .st9, .st10, .st11, .st12, .st13, .st22, .st16, .st23, .st24, .st25, .st20, .st21, .st26 {
        stroke-linecap: round;
      }

      .st27 {
        fill: #e2dedb;
      }

      .st1, .st2, .st3, .st14, .st15 {
        stroke-miterlimit: 10;
      }

      .st1, .st2, .st3, .st28, .st20, .st21 {
        fill: #fff;
      }

      .st1, .st14 {
        stroke-width: .29px;
      }

      .st2, .st8, .st22, .st23, .st25, .st21, .st26 {
        stroke-width: .28px;
      }

      .st3, .st10, .st15, .st20 {
        stroke-width: .28px;
      }

      .st4 {
        stroke-width: .3px;
      }

      .st5 {
        stroke-width: .31px;
      }

      .st6 {
        stroke-width: .3px;
      }

      .st7 {
        stroke-width: .28px;
      }

      .st9, .st17 {
        stroke-width: .28px;
      }

      .st11 {
        stroke-width: .28px;
      }

      .st12 {
        stroke-width: .28px;
      }

      .st13 {
        stroke-width: .29px;
      }

      .st29 {
        fill: #ece8e5;
      }

      .st22, .st23, .st24, .st25 {
        stroke: #000;
      }

      .st16, .st24 {
        stroke-dasharray: .06 .43;
        stroke-width: .18px;
      }

      .st23 {
        stroke-dasharray: .09 .69;
      }

      .st25 {
        stroke-dasharray: .09 .68;
      }

      .st30 {
        fill: #302c35;
      }

      .st18 {
        stroke-width: .29px;
      }

      .st19 {
        stroke-width: .28px;
      }

      .st26 {
        stroke: #00001d;
      }
    </style>
  </defs>
  <g>
    <rect class="st29" x="519.29" y="709.69" width="223.47" height="174.92"/>
    <rect class="st29" x="432.82" y="889.89" width="223.47" height="118.11"/>
  </g>
  <g>
    <rect class="st21" x="656.42" y="795.3" width="110.26" height="50.38" transform="translate(-108.94 1532.04) rotate(-90)"/>
    <rect class="st21" x="697.55" y="777.35" width="27.99" height="27.57" rx="1.42" ry="1.42"/>
    <polygon class="st21" points="737.38 779.78 737.38 875.91 686.36 875.91 686.36 804.65 737.38 779.78"/>
  </g>
  <g>
    <g>
      <path class="st21" d="M553.48,808.65c-7.12,0-12.9,6.14-12.9,13.72,0,5.58,3.65,11.1,8.79,13.01.7.26,2.18.79,4.11.71,6.06-.24,12.9-6.28,12.9-13.72s-5.78-13.72-12.9-13.72Z"/>
      <path class="st8" d="M550.58,834.28c-4.38,0-7.92-5.33-7.92-11.91"/>
      <path class="st8" d="M550.58,810.46c-4.38,0-7.92,5.33-7.92,11.91"/>
      <path class="st8" d="M550.58,810.46c.86,0,1.56-.68,1.56-1.53"/>
      <path class="st8" d="M550.58,834.28c.86,0,1.56.74,1.56,1.66"/>
    </g>
    <g>
      <path class="st21" d="M597.75,808.65c7.12,0,12.9,6.14,12.9,13.72,0,5.58-3.65,11.1-8.79,13.01-.7.26-2.18.79-4.11.71-6.06-.24-12.9-6.28-12.9-13.72s5.78-13.72,12.9-13.72Z"/>
      <path class="st8" d="M600.64,834.28c4.38,0,7.92-5.33,7.92-11.91"/>
      <path class="st8" d="M600.64,810.46c4.38,0,7.92,5.33,7.92,11.91"/>
      <path class="st8" d="M600.64,810.46c-.86,0-1.56-.68-1.56-1.53"/>
      <path class="st8" d="M600.64,834.28c-.86,0-1.56.74-1.56,1.66"/>
    </g>
    <rect class="st21" x="558.82" y="802.15" width="35.68" height="40.44" transform="translate(1153.31 1644.74) rotate(-180)"/>
  </g>
  <line class="st28" x1="734.96" y1="902.45" x2="768.98" y2="902.45"/>
  <polygon class="st1" points="653.33 1000.21 653.3 964.32 653.33 934.8 619.07 934.8 619.07 1000.21 653.33 1000.21"/>
  <g>
    <g>
      <polyline class="st7" points="623.9 993.17 645.1 993.17 645.1 971.97 623.9 971.97 623.9 993.17"/>
      <line class="st7" x1="639.97" y1="982.51" x2="648.5" y2="982.51"/>
    </g>
    <polyline class="st7" points="620.8 998.34 651.6 998.34 651.6 966.81 620.8 966.81 620.8 998.34"/>
  </g>
  <g>
    <g>
      <line class="st13" x1="623.88" y1="944.78" x2="632.12" y2="944.78"/>
      <line class="st13" x1="639.48" y1="944.78" x2="647.72" y2="944.78"/>
      <line class="st13" x1="643.54" y1="940.97" x2="643.54" y2="948.69"/>
      <line class="st13" x1="628.05" y1="940.97" x2="628.05" y2="948.69"/>
    </g>
    <polyline class="st4" points="620.8 953.16 651.6 953.16 651.6 936.5 620.8 936.5 620.8 953.16"/>
  </g>
  <path class="st26" d="M619.05,934.36"/>
  <line class="st8" x1="653.07" y1="934.75" x2="619.05" y2="934.75"/>
  <line class="st3" x1="653.08" y1="934.74" x2="619.06" y2="934.74"/>
  <path class="st16" d="M619.06,933.94l-16.54-22.75s7.42-4.74,16.54-4.79"/>
  <rect class="st3" x="619.08" y="905.89" width="34.03" height="28.87" transform="translate(1272.19 1840.64) rotate(-180)"/>
  <g>
    <line class="st3" x1="619.09" y1="905.84" x2="619.09" y2="881.03"/>
    <path class="st3" d="M619.09,880.64"/>
    <polyline class="st3" points="619.09 881.03 653.11 881.03 653.11 905.84 619.09 905.84"/>
  </g>
  <path class="st16" d="M619.1,881.03l-16.54,19.53s7.42,4.36,16.54,4.4"/>
  <g>
    <g>
      <polyline class="st22" points="439.88 938.45 439.83 938.45 439.83 938.49"/>
      <line class="st23" x1="439.83" y1="939.18" x2="439.83" y2="982.7"/>
      <polyline class="st22" points="439.83 983.05 439.83 983.09 439.88 983.09"/>
      <line class="st25" x1="440.56" y1="983.09" x2="483.57" y2="983.09"/>
      <polyline class="st22" points="483.91 983.09 483.96 983.09 483.96 983.05"/>
      <line class="st23" x1="483.96" y1="982.36" x2="483.96" y2="938.84"/>
      <polyline class="st22" points="483.96 938.49 483.96 938.45 483.91 938.45"/>
      <line class="st25" x1="483.23" y1="938.45" x2="440.22" y2="938.45"/>
    </g>
    <g>
      <line class="st8" x1="461.86" y1="982.92" x2="461.86" y2="970.62"/>
      <path class="st21" d="M459.17,970.68c0,1.52,1.23,2.75,2.75,2.75s2.75-1.23,2.75-2.75-1.23-2.75-2.75-2.75-2.75,1.23-2.75,2.75"/>
    </g>
  </g>
  <path class="st2" d="M487.07,983.69v-16.09c0-6.19,4.45-11.2,9.95-11.2,5.5,0,9.95,5.01,9.95,11.2v16.09s-19.9,0-19.9,0Z"/>
  <g>
    <path class="st20" d="M439.42,901.82h18.5c.41,0,.74.21.74.47v26.59c0,.32-.33.59-.74.59h-18.5"/>
    <path class="st8" d="M442.12,916.7c.55,0,1-.45,1-1s-.45-1-1-1-1,.45-1,1,.45,1,1,1"/>
    <g>
      <path class="st8" d="M450.93,916.9c.68,0,1.23-.55,1.23-1.23s-.55-1.23-1.23-1.23-1.23.55-1.23,1.23.55,1.23,1.23,1.23"/>
      <path class="st8" d="M450.93,917.49c1,0,1.82-.81,1.82-1.82s-.81-1.82-1.82-1.82-1.82.81-1.82,1.82.81,1.82,1.82,1.82"/>
    </g>
    <path class="st10" d="M445.33,903.85h10.82c.41,0,.74.23.74.52v22.61c0,.29-.33.52-.74.52h-10.82c-.41,0-.74-.23-.74-.52v-22.61c0-.29.33-.52.74-.52Z"/>
  </g>
  <g>
    <path class="st8" d="M521.51,946.21c-11.6,0-22.94-4.79-31.27-13.11-8.07-8.07-12.86-19.41-12.86-31.01"/>
    <line class="st8" x1="521.51" y1="903.85" x2="521.51" y2="946.21"/>
    <polyline class="st8" points="477.39 902.09 521.51 902.09 521.51 903.85"/>
  </g>
  <g>
    <g>
      <path class="st21" d="M594.08,720.32c6.26,7.8,12.52,15.61,18.78,23.41.18.41.03.92-.37,1.24-8.31,8.71-17.89,16.2-28.33,22.15-.17.1-.38.09-.5-.04-.59-.73-1.17-1.45-1.76-2.18l-16.98-21.01,29.17-23.57"/>
      <path class="st21" d="M592.47,718.82c.68.65,1.26,1.37,1.77,2.16.09.16.04.37-.13.51-9.16,7.76-18.44,15.35-27.86,22.78-.26.16-.57.13-.74-.07-.71-.74-1.34-1.54-1.88-2.41"/>
      <path class="st21" d="M595.16,724.08c.57-.46-.06-2.18-1.4-3.84-.11-.13-.22-.26-.33-.39l-.95-1.03c-.14-.12-.36-.11-.52.02l-28.39,22.95,1.95,2.42c.65.78,1.3,1.55,1.96,2.33.36.26.89.22,1.29-.1,9.96-5.95,18.92-13.54,26.4-22.35Z"/>
      <path class="st21" d="M594.11,722.42c.13.43.29.84.48,1.24.13.51.29,1.02.48,1.51.26.67.51,1.34.76,2.02.34.93.76,1.81,1.27,2.66.31.52.63,1.02.98,1.52.36.52.73,1.05,1.11,1.56.89,1.23,1.84,2.41,2.86,3.54,1.03,1.14,2.14,2.18,3.35,3.14.91.72,1.88,1.34,2.93,1.88.66.34,1.33.46,2.13.4.07,0,.12-.03.18-.07l.51-.41c.1-.16.12-.3.08-.47-6.07-7.51-12.14-15.02-18.21-22.53-.11-.13-.32-.14-.48-.01l-.16.13h0c-.15.13-.19.34-.1.48.21.35.42.69.63,1.04.31.44.58.89.81,1.38l.41,1.02Z"/>
      <path class="st21" d="M566.78,744.51c.39.22.76.46,1.12.73.47.24.93.5,1.37.79.6.39,1.21.78,1.81,1.16.84.53,1.61,1.13,2.33,1.8.44.41.87.83,1.28,1.27.44.47.87.94,1.3,1.41,1.02,1.13,1.97,2.3,2.86,3.54.9,1.24,1.68,2.55,2.36,3.93.51,1.04.92,2.12,1.22,3.26.19.72.18,1.4-.05,2.16-.02.06-.05.11-.11.16l-.51.41c-.18.06-.32.06-.48-.02-6.07-7.51-12.14-15.02-18.21-22.53-.11-.13-.07-.34.09-.47l.16-.13h0c.16-.12.37-.12.49,0,.29.28.59.55.88.83.36.39.75.75,1.18,1.08l.91.61Z"/>
    </g>
    <circle class="st2" cx="634.01" cy="760.44" r="13.02"/>
  </g>
  <rect class="st27" x="523.03" y="882.16" width="107.22" height="117.61"/>
  <g>
    <line class="st8" x1="526.16" y1="858.52" x2="526.16" y2="877.78"/>
    <line class="st8" x1="527.54" y1="877.78" x2="527.54" y2="858.52"/>
    <polyline class="st8" points="526.16 877.78 526.16 880.66 527.54 880.66 527.54 877.78 526.16 877.78"/>
    <polyline class="st8" points="526.16 855.7 526.16 858.52 527.54 858.52 527.54 855.7 526.16 855.7"/>
    <line class="st8" x1="523.1" y1="857.5" x2="525.92" y2="857.5"/>
    <line class="st8" x1="523.1" y1="878.67" x2="525.92" y2="878.67"/>
  </g>
  <polygon class="st14" points="653.33 1000.21 653.3 964.32 653.33 934.8 619.07 934.8 619.07 1000.21 653.33 1000.21"/>
  <g>
    <g>
      <polyline class="st7" points="623.9 993.17 645.1 993.17 645.1 971.97 623.9 971.97 623.9 993.17"/>
      <line class="st7" x1="639.97" y1="982.51" x2="648.5" y2="982.51"/>
    </g>
    <polyline class="st7" points="620.8 998.34 651.6 998.34 651.6 966.81 620.8 966.81 620.8 998.34"/>
  </g>
  <g>
    <g>
      <line class="st13" x1="623.88" y1="944.78" x2="632.12" y2="944.78"/>
      <line class="st13" x1="639.48" y1="944.78" x2="647.72" y2="944.78"/>
      <line class="st13" x1="643.54" y1="940.97" x2="643.54" y2="948.69"/>
      <line class="st13" x1="628.05" y1="940.97" x2="628.05" y2="948.69"/>
    </g>
    <polyline class="st4" points="620.8 953.16 651.6 953.16 651.6 936.5 620.8 936.5 620.8 953.16"/>
  </g>
  <path class="st16" d="M619.06,933.94l-16.54-22.75s7.42-4.74,16.54-4.79"/>
  <rect class="st15" x="619.08" y="905.89" width="34.03" height="28.87" transform="translate(1272.19 1840.64) rotate(-180)"/>
  <g>
    <line class="st15" x1="619.09" y1="905.84" x2="619.09" y2="881.03"/>
    <path class="st15" d="M619.09,880.64"/>
    <polyline class="st15" points="619.09 881.03 653.11 881.03 653.11 905.84 619.09 905.84"/>
  </g>
  <path class="st16" d="M619.1,881.03l-16.54,19.53s7.42,4.36,16.54,4.4"/>
  <rect class="st30" x="614.04" y="689.14" width="37.57" height="34.02"/>
  <rect class="st30" x="740.14" y="689.14" width="21.26" height="34.02"/>
  <rect class="st30" x="740.13" y="717.08" width="8.5" height="172.33"/>
  <rect class="st30" x="652.88" y="883.3" width="8.5" height="123.2"/>
  <rect class="st30" x="431.02" y="889.61" width="8.5" height="118.36"/>
  <rect class="st30" x="652.93" y="880.89" width="93.62" height="8.5"/>
  <rect class="st30" x="431.04" y="884.19" width="90.75" height="8.5"/>
  <rect class="st30" x="519.55" y="889.36" width="3.54" height="12.82"/>
  <rect class="st30" x="519.64" y="946.22" width="3.54" height="61.28"/>
  <rect class="st30" x="576.61" y="999.5" width="84.77" height="8.5"/>
  <rect class="st30" x="480.7" y="999.5" width="52.1" height="8.5"/>
  <rect class="st30" x="431.96" y="983.54" width="90.15" height="24.43"/>
  <rect class="st30" x="504.19" y="689.14" width="21.46" height="34.02"/>
  <rect class="st30" x="514.6" y="715.53" width="8.5" height="175.55"/>
  <g>
    <path class="st8" d="M576.68,999.73c0-11.6-4.79-22.95-13.11-31.27-8.07-8.07-19.42-12.86-31.01-12.86"/>
    <line class="st8" x1="534.32" y1="999.73" x2="576.68" y2="999.73"/>
    <polyline class="st8" points="532.55 955.6 532.55 999.73 534.32 999.73"/>
  </g>
  <g>
    <g>
      <path class="st0" d="M583.24,709.52c.01,15.52-4.79,27.77-15.77,39.21-10.64,11.09-25.64,17.62-41,17.69"/>
      <path class="st0" d="M584.66,709.3"/>
      <path class="st0" d="M526.22,709.54"/>
      <line class="st0" x1="526.47" y1="766.42" x2="526.22" y2="709.54"/>
    </g>
    <line class="st10" x1="556.75" y1="703.28" x2="526.73" y2="703.28"/>
    <polyline class="st10" points="580.04 707.36 529.19 707.36 529.19 704.6 580.04 704.6 580.04 707.36"/>
    <line class="st10" x1="559.37" y1="709.52" x2="610.37" y2="709.52"/>
    <line class="st10" x1="612.83" y1="709.52" x2="557.21" y2="709.52"/>
    <line class="st10" x1="559.37" y1="709.52" x2="610.37" y2="709.52"/>
    <line class="st10" x1="612.83" y1="709.52" x2="529.19" y2="709.52"/>
    <line class="st10" x1="559.37" y1="709.52" x2="610.37" y2="709.52"/>
    <line class="st9" x1="612.83" y1="703.28" x2="556.3" y2="703.28"/>
    <line class="st10" x1="613.34" y1="701" x2="526.22" y2="701"/>
    <polyline class="st5" points="613.61 709.52 611.66 709.52 611.66 704.08 612.83 704.08 612.83 703.16 613.61 703.16 613.61 709.52"/>
    <polyline class="st10" points="611.66 707.36 584.18 707.36 584.18 704.6 611.66 704.6 611.66 707.36"/>
    <polyline class="st5" points="525.95 709.52 529.19 709.52 529.19 704.08 526.73 704.08 526.73 703.16 525.95 703.16 525.95 709.52"/>
    <rect class="st10" x="526.22" y="700.16" width=".54" height="1.74" transform="translate(1052.98 1402.07) rotate(180)"/>
    <rect class="st10" x="530.78" y="700.16" width=".54" height="1.74" transform="translate(1062.1 1402.07) rotate(180)"/>
    <rect class="st10" x="535.34" y="700.16" width=".54" height="1.74" transform="translate(1071.22 1402.07) rotate(180)"/>
    <rect class="st10" x="539.9" y="700.16" width=".54" height="1.74" transform="translate(1080.34 1402.07) rotate(180)"/>
    <rect class="st10" x="544.43" y="700.16" width=".54" height="1.74" transform="translate(1089.4 1402.07) rotate(180)"/>
    <rect class="st10" x="548.99" y="700.16" width=".54" height="1.74" transform="translate(1098.52 1402.07) rotate(180)"/>
    <rect class="st10" x="553.55" y="700.16" width=".54" height="1.74" transform="translate(1107.64 1402.07) rotate(180)"/>
    <rect class="st10" x="558.11" y="700.16" width=".54" height="1.74" transform="translate(1116.76 1402.07) rotate(180)"/>
    <rect class="st10" x="562.67" y="700.16" width=".54" height="1.74" transform="translate(1125.88 1402.07) rotate(180)"/>
    <rect class="st10" x="567.23" y="700.16" width=".54" height="1.74" transform="translate(1135 1402.07) rotate(180)"/>
    <rect class="st10" x="571.79" y="700.16" width=".54" height="1.74" transform="translate(1144.12 1402.07) rotate(180)"/>
    <rect class="st10" x="576.35" y="700.16" width=".54" height="1.74" transform="translate(1153.24 1402.07) rotate(180)"/>
    <rect class="st10" x="580.88" y="700.13" width=".54" height="1.74" transform="translate(1162.3 1402.01) rotate(180)"/>
    <rect class="st10" x="585.44" y="700.13" width=".54" height="1.74" transform="translate(1171.42 1402.01) rotate(180)"/>
    <rect class="st10" x="590" y="700.13" width=".54" height="1.74" transform="translate(1180.54 1402.01) rotate(180)"/>
    <rect class="st10" x="594.56" y="700.13" width=".54" height="1.74" transform="translate(1189.66 1402.01) rotate(180)"/>
    <rect class="st10" x="599.12" y="700.13" width=".54" height="1.74" transform="translate(1198.78 1402.01) rotate(180)"/>
    <rect class="st10" x="603.68" y="700.13" width=".54" height="1.74" transform="translate(1207.9 1402.01) rotate(180)"/>
    <rect class="st10" x="608.24" y="700.13" width=".54" height="1.74" transform="translate(1217.02 1402.01) rotate(180)"/>
    <rect class="st10" x="612.8" y="700.13" width=".54" height="1.74" transform="translate(1226.14 1402.01) rotate(180)"/>
    <line class="st12" x1="580.04" y1="704.07" x2="611.66" y2="704.07"/>
    <line class="st19" x1="526.73" y1="704.07" x2="580.04" y2="704.08"/>
    <g>
      <polyline class="st11" points="583.24 703.16 582.32 703.16 582.32 709.52 584.18 709.52 584.18 704.08 583.24 704.08 583.24 703.16"/>
      <polyline class="st18" points="582.32 704.08 580.04 704.08 580.04 709.52"/>
      <polyline class="st6" points="580.04 709.52 583.24 709.52 583.24 703.16 583.24 703.16 582.32 703.16"/>
    </g>
    <line class="st17" x1="614.13" y1="704.32" x2="613.63" y2="704.32"/>
    <line class="st17" x1="525.95" y1="704.32" x2="525.45" y2="704.32"/>
  </g>
  <g>
    <g>
      <path class="st0" d="M709.4,709.52c.01,15.52-4.79,27.77-15.77,39.21-10.64,11.09-25.64,17.62-41,17.69"/>
      <path class="st0" d="M710.82,709.3"/>
      <path class="st0" d="M652.38,709.54"/>
      <line class="st0" x1="652.63" y1="766.42" x2="652.38" y2="709.54"/>
    </g>
    <line class="st10" x1="682.91" y1="703.28" x2="652.89" y2="703.28"/>
    <polyline class="st10" points="706.2 707.36 655.35 707.36 655.35 704.6 706.2 704.6 706.2 707.36"/>
    <line class="st10" x1="685.54" y1="709.52" x2="736.54" y2="709.52"/>
    <line class="st10" x1="739" y1="709.52" x2="683.38" y2="709.52"/>
    <line class="st10" x1="685.54" y1="709.52" x2="736.54" y2="709.52"/>
    <line class="st10" x1="739" y1="709.52" x2="655.35" y2="709.52"/>
    <line class="st10" x1="685.54" y1="709.52" x2="736.54" y2="709.52"/>
    <line class="st9" x1="739" y1="703.28" x2="682.46" y2="703.28"/>
    <line class="st10" x1="739.5" y1="701" x2="652.38" y2="701"/>
    <polyline class="st5" points="739.77 709.52 737.82 709.52 737.82 704.08 739 704.08 739 703.16 739.77 703.16 739.77 709.52"/>
    <polyline class="st10" points="737.82 707.36 710.34 707.36 710.34 704.6 737.82 704.6 737.82 707.36"/>
    <polyline class="st5" points="652.11 709.52 655.35 709.52 655.35 704.08 652.89 704.08 652.89 703.16 652.11 703.16 652.11 709.52"/>
    <rect class="st10" x="652.38" y="700.16" width=".54" height="1.74" transform="translate(1305.3 1402.07) rotate(180)"/>
    <rect class="st10" x="656.94" y="700.16" width=".54" height="1.74" transform="translate(1314.42 1402.07) rotate(180)"/>
    <rect class="st10" x="661.5" y="700.16" width=".54" height="1.74" transform="translate(1323.54 1402.07) rotate(180)"/>
    <rect class="st10" x="666.06" y="700.16" width=".54" height="1.74" transform="translate(1332.66 1402.07) rotate(180)"/>
    <rect class="st10" x="670.59" y="700.16" width=".54" height="1.74" transform="translate(1341.72 1402.07) rotate(180)"/>
    <rect class="st10" x="675.15" y="700.16" width=".54" height="1.74" transform="translate(1350.84 1402.07) rotate(180)"/>
    <rect class="st10" x="679.71" y="700.16" width=".54" height="1.74" transform="translate(1359.96 1402.07) rotate(180)"/>
    <rect class="st10" x="684.27" y="700.16" width=".54" height="1.74" transform="translate(1369.08 1402.07) rotate(180)"/>
    <rect class="st10" x="688.83" y="700.16" width=".54" height="1.74" transform="translate(1378.2 1402.07) rotate(180)"/>
    <rect class="st10" x="693.39" y="700.16" width=".54" height="1.74" transform="translate(1387.32 1402.07) rotate(180)"/>
    <rect class="st10" x="697.95" y="700.16" width=".54" height="1.74" transform="translate(1396.44 1402.07) rotate(180)"/>
    <rect class="st10" x="702.51" y="700.16" width=".54" height="1.74" transform="translate(1405.56 1402.07) rotate(180)"/>
    <rect class="st10" x="707.04" y="700.13" width=".54" height="1.74" transform="translate(1414.62 1402.01) rotate(180)"/>
    <rect class="st10" x="711.6" y="700.13" width=".54" height="1.74" transform="translate(1423.74 1402.01) rotate(180)"/>
    <rect class="st10" x="716.16" y="700.13" width=".54" height="1.74" transform="translate(1432.86 1402.01) rotate(180)"/>
    <rect class="st10" x="720.72" y="700.13" width=".54" height="1.74" transform="translate(1441.98 1402.01) rotate(180)"/>
    <rect class="st10" x="725.28" y="700.13" width=".54" height="1.74" transform="translate(1451.1 1402.01) rotate(180)"/>
    <rect class="st10" x="729.84" y="700.13" width=".54" height="1.74" transform="translate(1460.22 1402.01) rotate(180)"/>
    <rect class="st10" x="734.4" y="700.13" width=".54" height="1.74" transform="translate(1469.34 1402.01) rotate(180)"/>
    <rect class="st10" x="738.96" y="700.13" width=".54" height="1.74" transform="translate(1478.46 1402.01) rotate(180)"/>
    <line class="st12" x1="706.2" y1="704.07" x2="737.82" y2="704.07"/>
    <line class="st19" x1="652.89" y1="704.07" x2="706.2" y2="704.08"/>
    <g>
      <polyline class="st11" points="709.4 703.16 708.48 703.16 708.48 709.52 710.34 709.52 710.34 704.08 709.4 704.08 709.4 703.16"/>
      <polyline class="st18" points="708.48 704.08 706.2 704.08 706.2 709.52"/>
      <polyline class="st6" points="706.2 709.52 709.4 709.52 709.4 703.16 709.4 703.16 708.48 703.16"/>
    </g>
    <line class="st17" x1="740.3" y1="704.32" x2="739.8" y2="704.32"/>
    <line class="st17" x1="652.11" y1="704.32" x2="651.61" y2="704.32"/>
  </g>
  <rect class="st24" x="523.18" y="882.12" width="107.06" height="117.61"/>
</svg>