<?xml version="1.0" encoding="UTF-8"?>
<svg id="Vinduer_i_facade" xmlns="http://www.w3.org/2000/svg" version="1.1" viewBox="0 0 1200 1697.14">
  <!-- Generator: Adobe Illustrator 29.6.0, SVG Export Plug-In . SVG Version: 2.1.1 Build 207)  -->
  <defs>
    <style>
      .st0, .st1, .st2, .st3, .st4, .st5, .st6, .st7, .st8, .st9, .st10, .st11, .st12, .st13, .st14, .st15 {
        fill: none;
      }

      .st16 {
        fill: #e2dedb;
      }

      .st1 {
        stroke-dasharray: .09 .69;
      }

      .st1, .st17, .st4, .st8, .st13, .st15, .st18 {
        stroke-width: .28px;
      }

      .st1, .st2, .st3, .st4, .st5, .st6, .st7, .st8, .st10, .st11, .st12, .st13, .st14, .st15, .st19, .st18 {
        stroke-linecap: round;
        stroke-linejoin: round;
      }

      .st1, .st8, .st13, .st14, .st15 {
        stroke: #000;
      }

      .st20 {
        stroke-width: .29px;
      }

      .st20, .st17, .st2, .st3, .st4, .st5, .st6, .st7, .st9, .st10, .st11, .st19, .st18 {
        stroke: #363a3b;
      }

      .st20, .st17, .st9 {
        stroke-miterlimit: 10;
      }

      .st20, .st17, .st19, .st18 {
        fill: #fff;
      }

      .st2 {
        stroke-width: .3px;
      }

      .st3 {
        stroke-width: .28px;
      }

      .st5 {
        stroke-width: .28px;
      }

      .st6, .st9, .st12, .st19 {
        stroke-width: .28px;
      }

      .st7 {
        stroke-width: .29px;
      }

      .st21 {
        fill: #ece8e5;
      }

      .st10 {
        stroke-width: .18px;
      }

      .st10, .st11, .st14 {
        stroke-dasharray: .06 .43;
      }

      .st11, .st14 {
        stroke-width: .18px;
      }

      .st12 {
        stroke: #0e0e0e;
      }

      .st13 {
        stroke-dasharray: .09 .69;
      }

      .st15 {
        stroke-dasharray: .09 .68;
      }

      .st22 {
        fill: #302c35;
      }
    </style>
  </defs>
  <polygon class="st21" points="521.89 712.57 619.89 700.23 624.85 696.45 681.18 687.6 681.18 872.95 715.25 872.95 715.25 1006.81 707.2 1006.81 707.2 1039.26 573.08 1039.26 573.08 1012.71 487.24 1012.71 487.24 687.6 521.89 712.57"/>
  <line class="st1" x1="619.89" y1="700.23" x2="522.21" y2="712.35"/>
  <g>
    <g>
      <polyline class="st8" points="539.06 963.78 539.1 963.78 539.1 963.82"/>
      <line class="st13" x1="539.1" y1="964.51" x2="539.1" y2="1008.03"/>
      <polyline class="st8" points="539.1 1008.38 539.1 1008.42 539.06 1008.42"/>
      <line class="st15" x1="538.37" y1="1008.42" x2="495.36" y2="1008.42"/>
      <polyline class="st8" points="495.02 1008.42 494.97 1008.42 494.97 1008.38"/>
      <line class="st13" x1="494.97" y1="1007.69" x2="494.97" y2="964.17"/>
      <polyline class="st8" points="494.97 963.82 494.97 963.78 495.02 963.78"/>
      <line class="st15" x1="495.7" y1="963.78" x2="538.71" y2="963.78"/>
    </g>
    <g>
      <line class="st4" x1="517.07" y1="1008.25" x2="517.07" y2="995.95"/>
      <path class="st18" d="M519.76,996.01c0,1.52-1.23,2.75-2.75,2.75s-2.75-1.23-2.75-2.75c0-1.52,1.23-2.75,2.75-2.75s2.75,1.23,2.75,2.75"/>
    </g>
  </g>
  <path class="st17" d="M562.09,1009.26v-16.09c0-6.19-4.45-11.2-9.95-11.2-5.5,0-9.95,5.01-9.95,11.2v16.09s19.9,0,19.9,0Z"/>
  <g>
    <path class="st19" d="M494.34,954.58h18.5c.41,0,.74-.21.74-.47v-26.59c0-.32-.33-.59-.74-.59h-18.5"/>
    <path class="st4" d="M497.04,939.71c.55,0,1,.45,1,1s-.45,1-1,1-1-.45-1-1,.45-1,1-1"/>
    <g>
      <path class="st4" d="M505.85,939.5c.68,0,1.23.55,1.23,1.23s-.55,1.23-1.23,1.23-1.23-.55-1.23-1.23.55-1.23,1.23-1.23"/>
      <path class="st4" d="M505.85,938.92c1,0,1.82.81,1.82,1.82s-.81,1.82-1.82,1.82-1.82-.81-1.82-1.82.81-1.82,1.82-1.82"/>
    </g>
    <path class="st6" d="M500.25,952.56h10.82c.41,0,.74-.23.74-.52v-22.61c0-.29-.33-.52-.74-.52h-10.82c-.41,0-.74.23-.74.52v22.61c0,.29.33.52.74.52Z"/>
  </g>
  <g>
    <g>
      <path class="st18" d="M544.02,880.27c-.04,7.12-6.21,12.87-13.78,12.83-5.58-.03-11.09-3.71-12.96-8.85-.26-.7-.78-2.18-.69-4.12.27-6.06,6.34-12.87,13.78-12.83,7.58.04,13.69,5.84,13.65,12.97Z"/>
      <path class="st4" d="M518.37,883.03c-.02,4.38,5.29,7.95,11.87,7.98"/>
      <path class="st4" d="M542.19,883.15c-.02,4.38-5.37,7.89-11.95,7.86"/>
      <path class="st4" d="M542.19,883.15c0-.86.69-1.56,1.54-1.56"/>
      <path class="st4" d="M518.37,883.03c0-.86-.73-1.57-1.65-1.57"/>
    </g>
    <g>
      <path class="st18" d="M544.24,835.99c.04-7.12-6.08-12.93-13.65-12.97-5.58-.03-11.12,3.59-13.05,8.72-.26.7-.8,2.17-.73,4.11.21,6.06,6.21,12.93,13.65,12.97s13.75-5.71,13.78-12.83Z"/>
      <path class="st4" d="M518.63,832.97c.02-4.38,5.37-7.89,11.95-7.86"/>
      <path class="st4" d="M542.45,833.09c.02-4.38-5.29-7.95-11.87-7.98"/>
      <path class="st4" d="M542.45,833.09c0,.86.68,1.57,1.52,1.57"/>
      <path class="st4" d="M518.63,832.97c0,.86-.75,1.56-1.66,1.56"/>
    </g>
    <rect class="st18" x="512.58" y="836.8" width="35.68" height="40.44" transform="translate(1390.12 330.97) rotate(90.29)"/>
  </g>
  <g>
    <rect class="st18" x="593.93" y="741.49" width="110.26" height="50.38" transform="translate(-118.01 1415.29) rotate(-89.97)"/>
    <rect class="st18" x="635.09" y="723.54" width="27.99" height="27.57" rx="1.42" ry="1.42"/>
    <polygon class="st18" points="674.92 725.99 674.87 822.12 623.84 822.09 623.88 750.82 674.92 725.99"/>
  </g>
  <g>
    <path class="st18" d="M535.57,726.55c6.26,7.8,12.52,15.61,18.78,23.41.18.41.03.92-.37,1.24-8.31,8.71-17.89,16.2-28.33,22.15-.17.1-.38.09-.5-.04-.59-.73-1.17-1.45-1.76-2.18l-16.98-21.01,29.17-23.57"/>
    <path class="st18" d="M533.97,725.05c.68.65,1.26,1.37,1.77,2.16.09.16.04.37-.13.51-9.16,7.76-18.44,15.35-27.86,22.78-.26.16-.57.13-.74-.07-.71-.74-1.34-1.54-1.88-2.41"/>
    <path class="st18" d="M536.66,730.31c.57-.46-.06-2.18-1.4-3.84-.11-.13-.22-.26-.33-.39l-.95-1.03c-.14-.12-.36-.11-.52.02l-28.39,22.95,1.95,2.42c.65.78,1.3,1.55,1.96,2.33.36.26.89.22,1.29-.1,9.96-5.95,18.92-13.54,26.4-22.35Z"/>
    <path class="st18" d="M535.61,728.65c.13.43.29.84.48,1.24.13.51.29,1.02.48,1.51.26.67.51,1.34.76,2.02.34.93.76,1.81,1.27,2.66.31.52.63,1.02.98,1.52.36.52.73,1.05,1.11,1.56.89,1.23,1.84,2.41,2.86,3.54,1.03,1.14,2.14,2.18,3.35,3.14.91.72,1.88,1.34,2.93,1.88.66.34,1.33.46,2.13.4.07,0,.12-.03.18-.07l.51-.41c.1-.16.12-.3.08-.47-6.07-7.51-12.14-15.02-18.21-22.53-.11-.13-.32-.14-.48-.01l-.16.13h0c-.15.13-.19.34-.1.48.21.35.42.69.63,1.04.31.44.58.89.81,1.38l.41,1.02Z"/>
    <path class="st18" d="M508.28,750.74c.39.22.76.46,1.12.73.47.24.93.5,1.37.79.6.39,1.21.78,1.81,1.16.84.53,1.61,1.13,2.33,1.8.44.41.87.83,1.28,1.27.44.47.87.94,1.3,1.41,1.02,1.13,1.97,2.3,2.86,3.54.9,1.24,1.68,2.55,2.36,3.93.51,1.04.92,2.12,1.22,3.26.19.72.18,1.4-.05,2.16-.02.06-.05.11-.11.16l-.51.41c-.18.06-.32.06-.48-.02-6.07-7.51-12.14-15.02-18.21-22.53-.11-.13-.07-.34.09-.47l.16-.13h0c.16-.12.37-.12.49,0,.29.28.59.55.88.83.36.39.75.75,1.18,1.08l.91.61Z"/>
  </g>
  <circle class="st17" cx="575.18" cy="764.46" r="13.02"/>
  <path class="st11" d="M677.91,945.2l-16.54,23.26s7.42,4.85,16.54,4.89"/>
  <path class="st11" d="M677.91,1002.36l-16.54-23.26s7.42-4.85,16.54-4.89"/>
  <rect class="st18" x="680.72" y="942.28" width="28.71" height="34.33" transform="translate(-264.37 1654.51) rotate(-90)"/>
  <rect class="st18" x="680.72" y="970.96" width="28.71" height="34.33" transform="translate(-293.05 1683.2) rotate(-90)"/>
  <polygon class="st20" points="712.25 945.5 712.22 908.17 712.25 877.46 677.99 877.46 677.99 945.5 712.25 945.5"/>
  <rect class="st19" x="677.92" y="1002.42" width="26.93" height="28.9"/>
  <path class="st11" d="M677.89,1031.12l-16.54-22.62s7.42-5.21,16.54-5.25"/>
  <path class="st0" d="M677.91,945.2l-16.54,23.26s7.42,4.85,16.54,4.89"/>
  <path class="st0" d="M677.91,1002.36l-16.54-23.26s7.42-4.85,16.54-4.89"/>
  <path class="st0" d="M677.89,1031.12l-16.54-22.62s7.42-5.21,16.54-5.25"/>
  <g>
    <line class="st4" x1="603.72" y1="914.05" x2="584.45" y2="914.03"/>
    <line class="st4" x1="584.45" y1="912.65" x2="603.72" y2="912.67"/>
    <polyline class="st4" points="584.45 914.03 581.57 914.03 581.57 912.65 584.45 912.65 584.45 914.03"/>
    <polyline class="st4" points="606.54 914.06 603.72 914.05 603.72 912.67 606.54 912.68 606.54 914.06"/>
    <line class="st4" x1="604.73" y1="917.11" x2="604.74" y2="914.29"/>
    <line class="st4" x1="583.56" y1="917.09" x2="583.56" y2="914.27"/>
  </g>
  <polygon class="st16" points="577.78 1015.06 713.24 1015.26 713.24 917.28 577.78 917.08 577.78 1015.06"/>
  <path class="st11" d="M677.91,945.2l-16.54,23.26s7.42,4.85,16.54,4.89"/>
  <path class="st11" d="M677.91,1002.36l-16.54-23.26s7.42-4.85,16.54-4.89"/>
  <rect class="st9" x="680.93" y="942.48" width="28.29" height="34.33" transform="translate(-264.58 1654.72) rotate(-90)"/>
  <rect class="st9" x="680.72" y="970.96" width="28.71" height="34.33" transform="translate(-293.05 1683.2) rotate(-90)"/>
  <g>
    <g>
      <polyline class="st3" points="682.82 938.63 704.02 938.63 704.02 917.44 682.82 917.44 682.82 938.63"/>
      <line class="st3" x1="698.89" y1="927.98" x2="707.42" y2="927.98"/>
    </g>
    <polyline class="st3" points="679.72 943.8 710.52 943.8 710.52 912.27 679.72 912.27 679.72 943.8"/>
  </g>
  <g>
    <g>
      <line class="st7" x1="682.8" y1="887.44" x2="691.04" y2="887.44"/>
      <line class="st7" x1="698.4" y1="887.44" x2="706.64" y2="887.44"/>
      <line class="st7" x1="702.46" y1="883.63" x2="702.46" y2="891.36"/>
      <line class="st7" x1="686.97" y1="883.63" x2="686.97" y2="891.36"/>
    </g>
    <polyline class="st2" points="679.72 895.83 710.52 895.83 710.52 879.17 679.72 879.17 679.72 895.83"/>
  </g>
  <polygon class="st9" points="712.17 945.5 712.14 908.17 712.17 877.46 677.91 877.46 677.91 945.5 712.17 945.5"/>
  <rect class="st9" x="677.92" y="1002.42" width="26.93" height="28.9"/>
  <path class="st11" d="M677.89,1031.12l-16.54-22.62s7.42-5.21,16.54-5.25"/>
  <path class="st0" d="M677.91,945.2l-16.54,23.26s7.42,4.85,16.54,4.89"/>
  <path class="st0" d="M677.91,1002.36l-16.54-23.26s7.42-4.85,16.54-4.89"/>
  <path class="st0" d="M677.89,1031.12l-16.54-22.62s7.42-5.21,16.54-5.25"/>
  <rect class="st22" x="512.3" y="675.87" width="7.32" height="37.29" transform="translate(1113.73 1320.02) rotate(172.91)"/>
  <rect class="st22" x="617.95" y="662.55" width="8.5" height="37.29" transform="translate(-79.35 82.03) rotate(-7.09)"/>
  <polygon class="st22" points="615.89 666.54 681.85 657.63 686.46 691.33 620.5 700.24 615.89 666.54"/>
  <rect class="st22" x="677.75" y="691.01" width="8.65" height="186.56"/>
  <rect class="st22" x="712.34" y="870.56" width="8.65" height="166.63"/>
  <rect class="st22" x="569.92" y="1012.26" width="8.65" height="27.25"/>
  <rect class="st22" x="697.56" y="854.14" width="8.65" height="38.2" transform="translate(-171.35 1575.12) rotate(-90)"/>
  <rect class="st22" x="672.22" y="990.75" width="8.65" height="88.88" transform="translate(-358.64 1711.73) rotate(-90)"/>
  <rect class="st22" x="694.07" y="1012.78" width="35.79" height="15.01" transform="translate(-308.32 1732.25) rotate(-90)"/>
  <rect class="st22" x="574.74" y="1026.04" width="8.65" height="18.29" transform="translate(-456.13 1614.25) rotate(-90)"/>
  <rect class="st22" x="527.9" y="966.92" width="8.65" height="92.36" transform="translate(-480.87 1545.32) rotate(-90)"/>
  <rect class="st22" x="575.01" y="971.33" width="3.54" height="46.06" transform="translate(1153.56 1988.72) rotate(-180)"/>
  <rect class="st22" x="483.1" y="683.19" width="8.65" height="334.23"/>
  <polygon class="st22" points="522.03 712.54 483.04 717.41 479.02 683.63 518 678.77 522.03 712.54"/>
  <rect class="st22" x="484.03" y="914.76" width="10.5" height="101.61"/>
  <rect class="st22" x="528.95" y="869.65" width="3.54" height="93.58" transform="translate(-385.71 1447.16) rotate(-90)"/>
  <rect class="st22" x="575.01" y="914.67" width="3.54" height="12.76" transform="translate(1153.56 1842.09) rotate(-180)"/>
  <g>
    <path class="st4" d="M532.61,927.26c0,11.6,4.79,22.94,13.11,31.27,8.07,8.07,19.41,12.86,31.01,12.86"/>
    <line class="st4" x1="574.97" y1="927.26" x2="532.61" y2="927.26"/>
    <polyline class="st4" points="576.73 971.39 576.73 927.26 574.97 927.26"/>
  </g>
  <g>
    <path class="st4" d="M632.42,1030.98c0-11.6-4.79-22.95-13.11-31.27-8.07-8.07-19.42-12.86-31.01-12.86"/>
    <line class="st4" x1="590.06" y1="1030.98" x2="632.42" y2="1030.98"/>
    <polyline class="st4" points="588.29 986.85 588.29 1030.98 590.06 1030.98"/>
  </g>
  <g>
    <polyline class="st6" points="546.26 677.52 519.76 680.78 519.43 678.1 545.93 674.84 546.26 677.52"/>
    <polyline class="st5" points="614.5 669.09 549.23 677.12 548.9 674.44 614.17 666.41 614.5 669.09"/>
    <line class="st6" x1="546.98" y1="671.08" x2="517.59" y2="674.7"/>
    <polyline class="st6" points="517.32 674.73 517.74 674.68 517.85 675.57 519.16 675.41 519.82 680.77 518.09 680.98 517.32 674.73"/>
    <polyline class="st6" points="615.46 662.65 615.05 662.71 615.16 663.6 613.85 663.76 614.51 669.12 616.23 668.91 615.46 662.65"/>
    <polyline class="st6" points="546.74 671.11 547.16 671.06 547.27 671.95 548.52 671.8 549.18 677.16 546.26 677.52 545.6 672.16 546.85 672 546.74 671.11"/>
    <line class="st6" x1="519.1" y1="675.42" x2="545.6" y2="672.16"/>
    <line class="st6" x1="548.52" y1="671.8" x2="613.85" y2="663.76"/>
    <line class="st6" x1="519.43" y1="678.1" x2="519.1" y2="675.42"/>
    <line class="st6" x1="546.98" y1="671.08" x2="615.25" y2="662.68"/>
    <polyline class="st6" points="613.85 663.76 615.16 663.6 615.05 662.71 615.46 662.65 616.23 668.91 614.51 669.12 613.85 663.76"/>
    <line class="st10" x1="519.43" y1="678.1" x2="535.48" y2="698.98"/>
    <line class="st10" x1="545.7" y1="674.87" x2="535.19" y2="699.01"/>
    <line class="st12" x1="519.75" y1="680.72" x2="519.7" y2="680.79"/>
    <line class="st6" x1="549.18" y1="677.16" x2="614.51" y2="669.12"/>
    <line class="st6" x1="519.76" y1="680.78" x2="546.26" y2="677.52"/>
    <polyline class="st6" points="546.26 677.52 545.6 672.16 546.85 672 546.74 671.11 547.16 671.06 547.27 671.95 548.52 671.8 549.18 677.16 546.26 677.52"/>
    <polyline class="st6" points="517.79 675.58 519.1 675.42 519.76 680.78 518.09 680.98 517.32 674.73 517.68 674.69 517.79 675.58"/>
    <polyline class="st6" points="519.1 675.42 545.6 672.16 545.93 674.84 519.43 678.1 519.1 675.42"/>
  </g>
  <rect class="st14" x="577.78" y="917.52" width="136.77" height="97.65"/>
</svg>