<?xml version="1.0" encoding="UTF-8"?>
<svg id="Vinduer_i_facade" xmlns="http://www.w3.org/2000/svg" version="1.1" viewBox="0 0 1200 1697.14">
  <!-- Generator: Adobe Illustrator 29.6.0, SVG Export Plug-In . SVG Version: 2.1.1 Build 207)  -->
  <defs>
    <style>
      .st0 {
        fill: #e2dedb;
      }

      .st1, .st2, .st3, .st4, .st5, .st6, .st7, .st8, .st9, .st10, .st11, .st12, .st13, .st14, .st15, .st16 {
        stroke: #363a3b;
      }

      .st1, .st2, .st3, .st10, .st11 {
        stroke-miterlimit: 10;
      }

      .st1, .st2, .st3, .st15, .st16 {
        fill: #fff;
      }

      .st1, .st10 {
        stroke-width: .29px;
      }

      .st2, .st6, .st17, .st14, .st18, .st19, .st16, .st20 {
        stroke-width: .28px;
      }

      .st3, .st8, .st11, .st12, .st21, .st15 {
        stroke-width: .28px;
      }

      .st4 {
        stroke-width: .3px;
      }

      .st4, .st5, .st6, .st7, .st8, .st9, .st17, .st10, .st11, .st12, .st13, .st21, .st14, .st18, .st22, .st19, .st20 {
        fill: none;
      }

      .st4, .st5, .st6, .st7, .st8, .st9, .st17, .st12, .st13, .st21, .st14, .st18, .st22, .st19, .st15, .st16, .st20 {
        stroke-linecap: round;
        stroke-linejoin: round;
      }

      .st5 {
        stroke-width: .28px;
      }

      .st7 {
        stroke-width: .28px;
      }

      .st9 {
        stroke-width: .29px;
      }

      .st23 {
        fill: #ece8e5;
      }

      .st17, .st18, .st22, .st19 {
        stroke: #000;
      }

      .st12, .st13, .st22 {
        stroke-dasharray: .06 .43;
      }

      .st13, .st22 {
        stroke-width: .18px;
      }

      .st21 {
        stroke: #0e0e0e;
      }

      .st14 {
        stroke-dasharray: .09 .69;
      }

      .st18 {
        stroke-dasharray: .09 .69;
      }

      .st19 {
        stroke-dasharray: .09 .68;
      }

      .st24 {
        fill: #302c35;
      }

      .st20 {
        stroke: #00001d;
      }
    </style>
  </defs>
  <polygon class="st23" points="681.18 734.03 681.18 740.15 547.57 740.15 547.75 734.03 480.14 734.03 480.14 1018.68 717.35 1018.68 717.35 734.03 681.18 734.03"/>
  <line class="st14" x1="550.48" y1="740.12" x2="678.32" y2="739.81"/>
  <g>
    <rect class="st16" x="459.89" y="782.27" width="110.26" height="50.38" transform="translate(-292.44 1322.48) rotate(-90)"/>
    <rect class="st16" x="501.03" y="764.32" width="27.99" height="27.57" rx="1.42" ry="1.42" transform="translate(1030.04 1556.2) rotate(180)"/>
    <polygon class="st16" points="489.19 766.75 489.19 862.88 540.21 862.88 540.21 791.61 489.19 766.75"/>
  </g>
  <g>
    <g>
      <path class="st16" d="M693.03,796.25c7.12,0,12.9,6.14,12.9,13.72,0,5.58-3.65,11.1-8.79,13.01-.7.26-2.18.79-4.11.71-6.06-.24-12.9-6.28-12.9-13.72s5.78-13.72,12.9-13.72Z"/>
      <path class="st6" d="M695.92,821.89c4.38,0,7.92-5.33,7.92-11.91"/>
      <path class="st6" d="M695.92,798.07c4.38,0,7.92,5.33,7.92,11.91"/>
      <path class="st6" d="M695.92,798.07c-.86,0-1.56-.68-1.56-1.53"/>
      <path class="st6" d="M695.92,821.89c-.86,0-1.56.74-1.56,1.66"/>
    </g>
    <g>
      <path class="st16" d="M648.76,796.25c-7.12,0-12.9,6.14-12.9,13.72,0,5.58,3.65,11.1,8.79,13.01.7.26,2.18.79,4.11.71,6.06-.24,12.9-6.28,12.9-13.72s-5.78-13.72-12.9-13.72Z"/>
      <path class="st6" d="M645.87,821.89c-4.38,0-7.92-5.33-7.92-11.91"/>
      <path class="st6" d="M645.87,798.07c-4.38,0-7.92,5.33-7.92,11.91"/>
      <path class="st6" d="M645.87,798.07c.86,0,1.56-.68,1.56-1.53"/>
      <path class="st6" d="M645.87,821.89c.86,0,1.56.74,1.56,1.66"/>
    </g>
    <rect class="st16" x="652.01" y="789.76" width="35.68" height="40.44"/>
  </g>
  <g>
    <path class="st16" d="M591.61,749.53c-6.26,7.8-12.52,15.61-18.78,23.41-.18.41-.03.92.37,1.24,8.31,8.71,17.89,16.2,28.33,22.15.17.1.38.09.5-.04.59-.73,1.17-1.45,1.76-2.18l16.98-21.01-29.17-23.57"/>
    <path class="st16" d="M593.21,748.03c-.68.65-1.26,1.37-1.77,2.16-.09.16-.04.37.13.51,9.16,7.76,18.44,15.35,27.86,22.78.26.16.57.13.74-.07.71-.74,1.34-1.54,1.88-2.41"/>
    <path class="st16" d="M590.52,753.28c-.57-.46.06-2.18,1.4-3.84.11-.13.22-.26.33-.39l.95-1.03c.14-.12.36-.11.52.02l28.39,22.95-1.95,2.42c-.65.78-1.3,1.55-1.96,2.33-.36.26-.89.22-1.29-.1-9.96-5.95-18.92-13.54-26.4-22.35Z"/>
    <path class="st16" d="M591.57,751.63c-.13.43-.29.84-.48,1.24-.13.51-.29,1.02-.48,1.51-.26.67-.51,1.34-.76,2.02-.34.93-.76,1.81-1.27,2.66-.31.52-.63,1.02-.98,1.52-.36.52-.73,1.05-1.11,1.56-.89,1.23-1.84,2.41-2.86,3.54-1.03,1.14-2.14,2.18-3.35,3.14-.91.72-1.88,1.34-2.93,1.88-.66.34-1.33.46-2.13.4-.07,0-.12-.03-.18-.07l-.51-.41c-.1-.16-.12-.3-.08-.47,6.07-7.51,12.14-15.02,18.21-22.53.11-.13.32-.14.48-.01l.16.13h0c.15.13.19.34.1.48-.21.35-.42.69-.63,1.04-.31.44-.58.89-.81,1.38l-.41,1.02Z"/>
    <path class="st16" d="M618.9,773.71c-.39.22-.76.46-1.12.73-.47.24-.93.5-1.37.79-.6.39-1.21.78-1.81,1.16-.84.53-1.61,1.13-2.33,1.8-.44.41-.87.83-1.28,1.27-.44.47-.87.94-1.3,1.41-1.02,1.13-1.97,2.3-2.86,3.54-.9,1.24-1.68,2.55-2.36,3.93-.51,1.04-.92,2.12-1.22,3.26-.19.72-.18,1.4.05,2.16.02.06.05.11.11.16l.51.41c.18.06.32.06.48-.02,6.07-7.51,12.14-15.02,18.21-22.53.11-.13.07-.34-.09-.47l-.16-.13h0c-.16-.12-.37-.12-.49,0-.29.28-.59.55-.88.83-.36.39-.75.75-1.18,1.08l-.91.61Z"/>
  </g>
  <circle class="st2" cx="567.54" cy="803.43" r="13.02"/>
  <g>
    <path class="st6" d="M569.58,956.69c-11.6,0-22.94-4.79-31.27-13.11-8.07-8.07-12.86-19.41-12.86-31.01"/>
    <line class="st6" x1="569.58" y1="914.33" x2="569.58" y2="956.69"/>
    <polyline class="st6" points="525.46 912.56 569.58 912.56 569.58 914.33"/>
  </g>
  <g>
    <g>
      <polyline class="st17" points="488.15 948.65 488.1 948.65 488.1 948.69"/>
      <line class="st18" x1="488.1" y1="949.38" x2="488.1" y2="992.9"/>
      <polyline class="st17" points="488.1 993.25 488.1 993.29 488.15 993.29"/>
      <line class="st19" x1="488.83" y1="993.29" x2="531.85" y2="993.29"/>
      <polyline class="st17" points="532.19 993.29 532.23 993.29 532.23 993.25"/>
      <line class="st18" x1="532.23" y1="992.56" x2="532.23" y2="949.04"/>
      <polyline class="st17" points="532.23 948.69 532.23 948.65 532.19 948.65"/>
      <line class="st19" x1="531.5" y1="948.65" x2="488.49" y2="948.65"/>
    </g>
    <g>
      <line class="st6" x1="510.13" y1="993.12" x2="510.13" y2="980.82"/>
      <path class="st16" d="M507.44,980.88c0,1.52,1.23,2.75,2.75,2.75s2.75-1.23,2.75-2.75c0-1.52-1.23-2.75-2.75-2.75s-2.75,1.23-2.75,2.75"/>
    </g>
  </g>
  <path class="st2" d="M535.35,993.9v-16.09c0-6.19,4.45-11.2,9.95-11.2s9.95,5.01,9.95,11.2v16.09s-19.9,0-19.9,0Z"/>
  <g>
    <path class="st15" d="M487.41,912.02h18.5c.41,0,.74.21.74.47v26.59c0,.32-.33.59-.74.59h-18.5"/>
    <path class="st6" d="M490.11,926.9c.55,0,1-.45,1-1s-.45-1-1-1-1,.45-1,1,.45,1,1,1"/>
    <g>
      <path class="st6" d="M498.92,927.11c.68,0,1.23-.55,1.23-1.23s-.55-1.23-1.23-1.23-1.23.55-1.23,1.23.55,1.23,1.23,1.23"/>
      <path class="st6" d="M498.92,927.69c1,0,1.82-.81,1.82-1.82s-.81-1.82-1.82-1.82-1.82.81-1.82,1.82.81,1.82,1.82,1.82"/>
    </g>
    <path class="st8" d="M493.32,914.05h10.82c.41,0,.74.23.74.52v22.61c0,.29-.33.52-.74.52h-10.82c-.41,0-.74-.23-.74-.52v-22.61c0-.29.33-.52.74-.52Z"/>
  </g>
  <g>
    <polygon class="st1" points="714.13 1010.36 714.1 973.03 714.13 942.32 679.87 942.32 679.87 1010.36 714.13 1010.36"/>
    <g>
      <g>
        <polyline class="st5" points="684.7 1003.49 705.9 1003.49 705.9 982.3 684.7 982.3 684.7 1003.49"/>
        <line class="st5" x1="700.77" y1="992.84" x2="709.3" y2="992.84"/>
      </g>
      <polyline class="st5" points="681.6 1008.66 712.4 1008.66 712.4 977.13 681.6 977.13 681.6 1008.66"/>
    </g>
    <g>
      <g>
        <line class="st9" x1="684.67" y1="952.3" x2="692.91" y2="952.3"/>
        <line class="st9" x1="700.28" y1="952.3" x2="708.52" y2="952.3"/>
        <line class="st9" x1="704.34" y1="948.49" x2="704.34" y2="956.22"/>
        <line class="st9" x1="688.85" y1="948.49" x2="688.85" y2="956.22"/>
      </g>
      <polyline class="st4" points="681.6 960.68 712.4 960.68 712.4 944.02 681.6 944.02 681.6 960.68"/>
    </g>
  </g>
  <path class="st20" d="M679.85,941.88"/>
  <line class="st6" x1="713.87" y1="942.27" x2="679.85" y2="942.27"/>
  <line class="st3" x1="713.88" y1="942.26" x2="679.86" y2="942.26"/>
  <path class="st13" d="M679.86,884.9l-16.54,23.26s7.42,4.85,16.54,4.89"/>
  <path class="st13" d="M679.86,941.46l-16.54-22.75s7.42-4.74,16.54-4.79"/>
  <rect class="st3" x="679.88" y="913.41" width="34.03" height="28.87" transform="translate(1393.78 1855.69) rotate(180)"/>
  <rect class="st3" x="679.88" y="884.59" width="34.03" height="28.87" transform="translate(1393.78 1798.05) rotate(180)"/>
  <rect class="st0" x="604.79" y="899.69" width="122.04" height="98.93" transform="translate(-283.35 1614.97) rotate(-90)"/>
  <g>
    <line class="st6" x1="710.64" y1="857.58" x2="710.64" y2="876.84"/>
    <line class="st6" x1="709.26" y1="876.84" x2="709.26" y2="857.58"/>
    <polyline class="st6" points="710.64 876.84 710.64 879.72 709.26 879.72 709.26 876.84 710.64 876.84"/>
    <polyline class="st6" points="710.64 854.76 710.64 857.58 709.26 857.58 709.26 854.76 710.64 854.76"/>
    <line class="st6" x1="713.7" y1="856.56" x2="710.88" y2="856.56"/>
    <line class="st6" x1="713.7" y1="877.73" x2="710.88" y2="877.73"/>
  </g>
  <g>
    <polygon class="st10" points="714.13 1010.36 714.1 973.03 714.13 942.32 679.87 942.32 679.87 1010.36 714.13 1010.36"/>
    <g>
      <g>
        <polyline class="st5" points="684.7 1003.49 705.9 1003.49 705.9 982.3 684.7 982.3 684.7 1003.49"/>
        <line class="st5" x1="700.77" y1="992.84" x2="709.3" y2="992.84"/>
      </g>
      <polyline class="st5" points="681.6 1008.66 712.4 1008.66 712.4 977.13 681.6 977.13 681.6 1008.66"/>
    </g>
    <g>
      <g>
        <line class="st9" x1="684.67" y1="952.3" x2="692.91" y2="952.3"/>
        <line class="st9" x1="700.28" y1="952.3" x2="708.52" y2="952.3"/>
        <line class="st9" x1="704.34" y1="948.49" x2="704.34" y2="956.22"/>
        <line class="st9" x1="688.85" y1="948.49" x2="688.85" y2="956.22"/>
      </g>
      <polyline class="st4" points="681.6 960.68 712.4 960.68 712.4 944.02 681.6 944.02 681.6 960.68"/>
    </g>
  </g>
  <path class="st20" d="M679.85,941.88"/>
  <line class="st6" x1="713.87" y1="942.27" x2="679.85" y2="942.27"/>
  <line class="st3" x1="713.88" y1="942.26" x2="679.86" y2="942.26"/>
  <path class="st13" d="M679.86,884.9l-16.54,23.26s7.42,4.85,16.54,4.89"/>
  <path class="st13" d="M679.86,941.46l-16.54-22.75s7.42-4.74,16.54-4.79"/>
  <rect class="st11" x="679.88" y="913.41" width="34.03" height="28.87" transform="translate(1393.78 1855.69) rotate(180)"/>
  <rect class="st11" x="679.88" y="884.59" width="34.03" height="28.87" transform="translate(1393.78 1798.05) rotate(180)"/>
  <rect class="st24" x="567.53" y="956.69" width="3.54" height="61.57"/>
  <rect class="st24" x="567.53" y="901.89" width="3.54" height="10.69"/>
  <rect class="st24" x="483.46" y="899.83" width="87.61" height="3.54"/>
  <rect class="st24" x="478.03" y="993.77" width="90.9" height="24.91"/>
  <rect class="st24" x="481.76" y="1010.18" width="101.6" height="8.5"/>
  <rect class="st24" x="627.27" y="1010.18" width="89.88" height="8.5"/>
  <polyline class="st24" points="679.26 729.41 686.28 729.41 686.28 679.22 677.77 679.22 677.77 740.38 679.26 740.38 679.26 729.41"/>
  <polyline class="st24" points="543.31 726.25 550.33 726.25 550.33 679.26 541.82 679.26 541.82 736.52 543.31 736.52 543.31 726.25"/>
  <rect class="st24" x="497.89" y="687.93" width="32.06" height="72.83" transform="translate(1238.26 210.43) rotate(90)"/>
  <rect class="st24" x="714" y="738.62" width="8.5" height="280.06"/>
  <rect class="st24" x="477.5" y="738.62" width="8.5" height="280.06"/>
  <rect class="st24" x="683.18" y="701.07" width="34.02" height="44.6" transform="translate(1423.56 23.18) rotate(90)"/>
  <g>
    <polyline class="st8" points="649.48 684.76 676.18 684.76 676.18 682.06 649.48 682.06 649.48 684.76"/>
    <polyline class="st7" points="552.01 684.73 646.48 684.73 646.48 682.03 552.01 682.03 552.01 684.73"/>
    <line class="st8" x1="647.98" y1="678.46" x2="677.59" y2="678.46"/>
    <polyline class="st8" points="677.86 678.46 677.44 678.46 677.44 679.36 676.12 679.36 676.12 684.76 677.86 684.76 677.86 678.46"/>
    <polyline class="st8" points="550.27 678.46 550.69 678.46 550.69 679.36 552.01 679.36 552.01 684.76 550.27 684.76 550.27 678.46"/>
    <polyline class="st8" points="648.22 678.46 647.8 678.46 647.8 679.36 646.54 679.36 646.54 684.76 649.48 684.76 649.48 679.36 648.22 679.36 648.22 678.46"/>
    <line class="st8" x1="676.18" y1="679.36" x2="649.48" y2="679.36"/>
    <line class="st8" x1="646.54" y1="679.36" x2="552.01" y2="679.36"/>
    <line class="st8" x1="676.18" y1="682.06" x2="676.18" y2="679.36"/>
    <line class="st8" x1="647.98" y1="678.46" x2="550.48" y2="678.46"/>
    <polyline class="st8" points="552.01 679.36 550.69 679.36 550.69 678.46 550.27 678.46 550.27 684.76 552.01 684.76 552.01 679.36"/>
    <line class="st12" x1="676.18" y1="682.06" x2="662.8" y2="704.74"/>
    <line class="st12" x1="649.71" y1="682.06" x2="663.09" y2="704.74"/>
    <line class="st21" x1="676.18" y1="684.7" x2="676.24" y2="684.76"/>
    <line class="st8" x1="646.54" y1="684.76" x2="552.01" y2="684.76"/>
    <line class="st8" x1="676.18" y1="684.76" x2="649.48" y2="684.76"/>
    <polyline class="st8" points="649.48 684.76 649.48 679.36 648.22 679.36 648.22 678.46 647.8 678.46 647.8 679.36 646.54 679.36 646.54 684.76 649.48 684.76"/>
    <polyline class="st8" points="677.5 679.36 676.18 679.36 676.18 684.76 677.86 684.76 677.86 678.46 677.5 678.46 677.5 679.36"/>
    <polyline class="st8" points="676.18 679.36 649.48 679.36 649.48 682.06 676.18 682.06 676.18 679.36"/>
  </g>
  <rect class="st24" x="485.54" y="900.39" width="2.88" height="109.52" transform="translate(973.96 1910.29) rotate(180)"/>
  <g>
    <path class="st6" d="M627.4,1010.32c0-11.6-4.79-22.95-13.11-31.27-8.07-8.07-19.42-12.86-31.01-12.86"/>
    <line class="st6" x1="585.04" y1="1010.32" x2="627.4" y2="1010.32"/>
    <polyline class="st6" points="583.27 966.2 583.27 1010.32 585.04 1010.32"/>
  </g>
  <rect class="st22" x="616.34" y="888.14" width="101.91" height="122.04"/>
</svg>