<?xml version="1.0" encoding="UTF-8"?>
<svg id="Vinduer_i_facade" xmlns="http://www.w3.org/2000/svg" version="1.1" viewBox="0 0 1200 1697.14">
  <!-- Generator: Adobe Illustrator 29.6.0, SVG Export Plug-In . SVG Version: 2.1.1 Build 207)  -->
  <defs>
    <style>
      .st0 {
        fill: #e2dedb;
      }

      .st1 {
        stroke-dasharray: .09 .69;
      }

      .st1, .st2, .st3, .st4, .st5, .st6, .st7 {
        stroke-width: .28px;
      }

      .st1, .st8, .st9, .st3, .st10, .st11, .st12, .st4, .st13, .st14, .st15, .st16, .st5, .st17, .st6 {
        fill: none;
      }

      .st1, .st8, .st9, .st3, .st10, .st11, .st12, .st4, .st14, .st15, .st16, .st5, .st17, .st6, .st18, .st7 {
        stroke-linecap: round;
        stroke-linejoin: round;
      }

      .st1, .st4, .st5, .st17, .st6 {
        stroke: #000;
      }

      .st19, .st2, .st8, .st9, .st3, .st10, .st11, .st12, .st13, .st14, .st15, .st18, .st7 {
        stroke: #363a3b;
      }

      .st19, .st2, .st13 {
        stroke-miterlimit: 10;
      }

      .st19, .st2, .st18, .st7 {
        fill: #fff;
      }

      .st19, .st13 {
        stroke-width: .29px;
      }

      .st8 {
        stroke-width: .3px;
      }

      .st9 {
        stroke-width: .28px;
      }

      .st10 {
        stroke-width: .28px;
      }

      .st11, .st16, .st18 {
        stroke-width: .28px;
      }

      .st12 {
        stroke-width: .29px;
      }

      .st20 {
        fill: #ece8e5;
      }

      .st14 {
        stroke-width: .18px;
      }

      .st14, .st15, .st17 {
        stroke-dasharray: .06 .43;
      }

      .st15, .st17 {
        stroke-width: .18px;
      }

      .st16 {
        stroke: #0e0e0e;
      }

      .st5 {
        stroke-dasharray: .09 .69;
      }

      .st6 {
        stroke-dasharray: .09 .68;
      }

      .st21 {
        fill: #302c35;
      }
    </style>
  </defs>
  <polygon class="st20" points="487.29 691.68 585.11 707.92 718.85 698.97 718.69 1039.13 626.64 1039.13 624.31 1017.04 532.66 1016.98 533.52 823.98 475.44 823.98 475.44 664.36 487.29 691.68"/>
  <line class="st1" x1="586.02" y1="707.9" x2="488.6" y2="691.9"/>
  <g>
    <path class="st15" d="M570.45,959.25l16.54-19.53s-7.42-4.36-16.54-4.4"/>
    <g>
      <g>
        <polyline class="st3" points="570.45 934.44 570.45 959.25 536.43 959.25 536.43 934.44 570.45 934.44"/>
        <path class="st3" d="M570.45,959.64"/>
        <path class="st3" d="M570.45,959.25"/>
      </g>
      <g>
        <polyline class="st3" points="570.45 934.47 570.45 909.66 536.43 909.66 536.43 934.47 570.45 934.47"/>
        <path class="st3" d="M570.45,909.27"/>
        <path class="st3" d="M570.45,909.66"/>
      </g>
    </g>
    <path class="st15" d="M570.45,909.66l16.54,19.53s-7.42,4.36-16.54,4.4"/>
  </g>
  <g>
    <polygon class="st19" points="536.15 841.82 536.18 879.15 536.15 909.86 570.41 909.86 570.41 841.82 536.15 841.82"/>
    <g>
      <g>
        <polyline class="st9" points="565.57 848.68 544.38 848.68 544.38 869.88 565.57 869.88 565.57 848.68"/>
        <line class="st9" x1="549.5" y1="859.34" x2="540.98" y2="859.34"/>
      </g>
      <polyline class="st9" points="568.68 843.52 537.88 843.52 537.88 875.05 568.68 875.05 568.68 843.52"/>
    </g>
    <g>
      <g>
        <line class="st12" x1="565.6" y1="899.87" x2="557.36" y2="899.87"/>
        <line class="st12" x1="550" y1="899.87" x2="541.76" y2="899.87"/>
        <line class="st12" x1="545.94" y1="903.68" x2="545.94" y2="895.96"/>
        <line class="st12" x1="561.43" y1="903.68" x2="561.43" y2="895.96"/>
      </g>
      <polyline class="st8" points="568.68 891.49 537.88 891.49 537.88 908.15 568.68 908.15 568.68 891.49"/>
    </g>
  </g>
  <g>
    <rect class="st7" x="631.23" y="768.32" width="110.26" height="50.38" transform="translate(-106.74 1480.34) rotate(-90.03)"/>
    <rect class="st7" x="672.35" y="750.37" width="27.99" height="27.57" rx="1.42" ry="1.42" transform="translate(1373.14 1527.89) rotate(179.97)"/>
    <polygon class="st7" points="660.5 752.82 660.56 848.95 711.58 848.91 711.54 777.65 660.5 752.82"/>
  </g>
  <g>
    <g>
      <path class="st7" d="M502.58,746.77c-4.26-5.71-2.78-14.01,3.29-18.54,4.47-3.33,11.09-3.71,15.68-.72.63.41,1.93,1.27,3.03,2.87,3.43,5,2.67,14.09-3.29,18.54-6.08,4.53-14.45,3.56-18.71-2.15Z"/>
      <path class="st3" d="M521.41,729.13c-2.62-3.51-9-3.17-14.28.76"/>
      <path class="st3" d="M502.31,743.37c-2.62-3.51-.46-9.53,4.82-13.47"/>
      <path class="st3" d="M502.31,743.37c.52.69.39,1.66-.29,2.17"/>
      <path class="st3" d="M521.41,729.13c.52.69,1.53.81,2.26.26"/>
    </g>
    <g>
      <path class="st7" d="M529.04,782.27c4.26,5.71,12.63,6.67,18.71,2.15,4.47-3.33,6.73-9.56,5.18-14.82-.21-.72-.67-2.22-1.89-3.72-3.81-4.71-12.74-6.59-18.71-2.15-6.08,4.53-7.55,12.83-3.29,18.54Z"/>
      <path class="st3" d="M551.32,769.28c2.62,3.51.46,9.53-4.82,13.47"/>
      <path class="st3" d="M532.22,783.51c2.62,3.51,9,3.17,14.28-.76"/>
      <path class="st3" d="M532.22,783.51c-.52-.69-1.48-.84-2.16-.34"/>
      <path class="st3" d="M551.32,769.28c-.52-.69-.34-1.7.39-2.24"/>
    </g>
    <rect class="st7" x="509.6" y="736.94" width="35.68" height="40.44" transform="translate(235.39 1632.48) rotate(-126.69)"/>
  </g>
  <circle class="st2" cx="631.45" cy="758.95" r="13.02"/>
  <g>
    <path class="st3" d="M674.87,953.42c0,11.6-4.79,22.94-13.11,31.27-8.07,8.07-19.41,12.86-31.01,12.86"/>
    <line class="st3" x1="632.51" y1="953.42" x2="674.87" y2="953.42"/>
    <polyline class="st3" points="630.74 997.54 630.74 953.42 632.51 953.42"/>
  </g>
  <g>
    <g>
      <polyline class="st4" points="668.54 990.07 668.5 990.07 668.5 990.12"/>
      <line class="st5" x1="668.5" y1="990.81" x2="668.5" y2="1034.33"/>
      <polyline class="st4" points="668.5 1034.67 668.5 1034.72 668.54 1034.72"/>
      <line class="st6" x1="669.22" y1="1034.72" x2="712.24" y2="1034.72"/>
      <polyline class="st4" points="712.58 1034.72 712.63 1034.72 712.63 1034.67"/>
      <line class="st5" x1="712.63" y1="1033.98" x2="712.63" y2="990.46"/>
      <polyline class="st4" points="712.63 990.12 712.63 990.07 712.58 990.07"/>
      <line class="st6" x1="711.9" y1="990.07" x2="668.88" y2="990.07"/>
    </g>
    <g>
      <line class="st3" x1="690.53" y1="1034.54" x2="690.53" y2="1022.24"/>
      <path class="st7" d="M687.83,1022.3c0,1.52,1.23,2.75,2.75,2.75s2.75-1.23,2.75-2.75c0-1.52-1.23-2.75-2.75-2.75s-2.75,1.23-2.75,2.75"/>
    </g>
  </g>
  <path class="st2" d="M644.9,1035.42v-16.09c0-6.19,4.45-11.2,9.95-11.2s9.95,5.01,9.95,11.2v16.09s-19.9,0-19.9,0Z"/>
  <g>
    <path class="st18" d="M712.78,980.74h-18.5c-.41,0-.74-.21-.74-.47v-26.59c0-.32.33-.59.74-.59h18.5"/>
    <path class="st3" d="M710.08,965.87c-.55,0-1,.45-1,1s.45,1,1,1,1-.45,1-1-.45-1-1-1"/>
    <g>
      <path class="st3" d="M701.27,965.66c-.68,0-1.23.55-1.23,1.23s.55,1.23,1.23,1.23,1.23-.55,1.23-1.23c0-.68-.55-1.23-1.23-1.23"/>
      <path class="st3" d="M701.27,965.07c-1,0-1.82.81-1.82,1.82,0,1,.81,1.82,1.82,1.82s1.82-.81,1.82-1.82-.81-1.82-1.82-1.82"/>
    </g>
    <path class="st11" d="M706.87,978.71h-10.82c-.41,0-.74-.23-.74-.52v-22.61c0-.29.33-.52.74-.52h10.82c.41,0,.74.23.74.52v22.61c0,.29-.33.52-.74.52Z"/>
  </g>
  <g>
    <line class="st3" x1="640.62" y1="937.94" x2="659.89" y2="937.92"/>
    <line class="st3" x1="659.89" y1="936.54" x2="640.62" y2="936.56"/>
    <polyline class="st3" points="659.89 937.92 662.77 937.91 662.77 936.53 659.89 936.54 659.89 937.92"/>
    <polyline class="st3" points="637.8 937.94 640.62 937.94 640.62 936.56 637.8 936.56 637.8 937.94"/>
    <line class="st3" x1="639.6" y1="941" x2="639.6" y2="938.18"/>
    <line class="st3" x1="660.78" y1="940.98" x2="660.78" y2="938.16"/>
  </g>
  <rect class="st0" x="533.52" y="881.18" width="96.2" height="127.53"/>
  <g>
    <polygon class="st13" points="536.15 841.82 536.18 879.15 536.15 909.86 570.41 909.86 570.41 841.82 536.15 841.82"/>
    <g>
      <g>
        <polyline class="st9" points="565.57 848.68 544.38 848.68 544.38 869.88 565.57 869.88 565.57 848.68"/>
        <line class="st9" x1="549.5" y1="859.34" x2="540.98" y2="859.34"/>
      </g>
      <polyline class="st9" points="568.68 843.52 537.88 843.52 537.88 875.05 568.68 875.05 568.68 843.52"/>
    </g>
    <g>
      <g>
        <line class="st12" x1="565.6" y1="899.87" x2="557.36" y2="899.87"/>
        <line class="st12" x1="550" y1="899.87" x2="541.76" y2="899.87"/>
        <line class="st12" x1="545.94" y1="903.68" x2="545.94" y2="895.96"/>
        <line class="st12" x1="561.43" y1="903.68" x2="561.43" y2="895.96"/>
      </g>
      <polyline class="st8" points="568.68 891.49 537.88 891.49 537.88 908.15 568.68 908.15 568.68 891.49"/>
    </g>
  </g>
  <g>
    <path class="st15" d="M570.41,959.45l16.54-19.53s-7.42-4.36-16.54-4.4"/>
    <g>
      <g>
        <polyline class="st3" points="570.41 934.64 570.41 959.45 536.39 959.45 536.39 934.64 570.41 934.64"/>
        <path class="st3" d="M570.41,959.84"/>
        <path class="st3" d="M570.41,959.45"/>
      </g>
      <g>
        <polyline class="st3" points="570.41 934.66 570.41 909.85 536.39 909.85 536.39 934.66 570.41 934.66"/>
        <path class="st3" d="M570.41,909.46"/>
        <path class="st3" d="M570.41,909.85"/>
      </g>
    </g>
    <path class="st15" d="M570.41,909.85l16.54,19.53s-7.42,4.36-16.54,4.4"/>
  </g>
  <rect class="st21" x="483.09" y="654.05" width="7.32" height="37.29" transform="translate(856 1416.4) rotate(-170.52)"/>
  <rect class="st21" x="588.12" y="671.59" width="8.5" height="37.29" transform="translate(121.83 -88.18) rotate(9.48)"/>
  <polygon class="st21" points="476.46 655.52 492.92 658.21 487.32 691.76 470.86 689.07 476.46 655.52"/>
  <rect class="st21" x="588.5" y="684.99" width="138.86" height="34.02" transform="translate(1201.25 1496.04) rotate(-171.24)"/>
  <rect class="st21" x="470.89" y="688.91" width="8.5" height="135.18" transform="translate(950.29 1513) rotate(-180)"/>
  <rect class="st21" x="516.4" y="774.83" width="8.5" height="99.52" transform="translate(1345.25 303.95) rotate(90)"/>
  <rect class="st21" x="671.89" y="898.74" width="3.54" height="87.87" transform="translate(1616.34 269.02) rotate(90)"/>
  <rect class="st21" x="629.08" y="940.9" width="3.54" height="12.65"/>
  <rect class="st21" x="629.08" y="997.54" width="3.54" height="38.59"/>
  <rect class="st21" x="539.17" y="810.49" width="21.2" height="41.28" transform="translate(1380.91 281.38) rotate(90)"/>
  <rect class="st21" x="715.39" y="711.82" width="8.5" height="331.62" transform="translate(1439.28 1755.26) rotate(-180)"/>
  <rect class="st21" x="527.85" y="820.75" width="8.5" height="196.23" transform="translate(1064.2 1837.73) rotate(-180)"/>
  <rect class="st21" x="623.3" y="1008.57" width="9.18" height="34.87" transform="translate(1255.78 2052.01) rotate(-180)"/>
  <rect class="st21" x="668.83" y="989.46" width="8.5" height="99.46" transform="translate(1712.27 366.11) rotate(90)"/>
  <rect class="st21" x="606.02" y="993.02" width="8.5" height="39.48" transform="translate(1623.04 402.48) rotate(90)"/>
  <rect class="st21" x="533.51" y="1004.01" width="8.5" height="17.42" transform="translate(1550.49 474.96) rotate(90)"/>
  <rect class="st21" x="712.82" y="943.03" width="5.86" height="96.1"/>
  <g>
    <path class="st3" d="M590.6,1008.7c0-11.6-4.79-22.95-13.11-31.27-8.07-8.07-19.42-12.86-31.01-12.86"/>
    <line class="st3" x1="548.24" y1="1008.7" x2="590.6" y2="1008.7"/>
    <polyline class="st3" points="546.48 964.58 546.48 1008.7 548.24 1008.7"/>
  </g>
  <g>
    <polyline class="st11" points="520.64 665.04 494.31 660.61 494.76 657.95 521.09 662.38 520.64 665.04"/>
    <polyline class="st10" points="588.45 676.44 523.6 665.51 524.05 662.85 588.9 673.77 588.45 676.44"/>
    <line class="st11" x1="523.17" y1="659.08" x2="493.97" y2="654.16"/>
    <polyline class="st11" points="493.7 654.12 494.12 654.19 493.97 655.08 495.27 655.29 494.37 660.62 492.66 660.33 493.7 654.12"/>
    <polyline class="st11" points="591.21 670.54 590.79 670.47 590.64 671.36 589.34 671.14 588.45 676.47 590.16 676.75 591.21 670.54"/>
    <polyline class="st11" points="522.93 659.04 523.34 659.11 523.2 660 524.44 660.21 523.54 665.53 520.64 665.04 521.54 659.72 522.78 659.93 522.93 659.04"/>
    <line class="st11" x1="495.21" y1="655.28" x2="521.54" y2="659.72"/>
    <line class="st11" x1="524.44" y1="660.21" x2="589.34" y2="671.14"/>
    <line class="st11" x1="494.76" y1="657.95" x2="495.21" y2="655.28"/>
    <line class="st11" x1="523.17" y1="659.08" x2="591" y2="670.51"/>
    <polyline class="st11" points="589.34 671.14 590.64 671.36 590.79 670.47 591.21 670.54 590.16 676.75 588.45 676.47 589.34 671.14"/>
    <line class="st14" x1="494.76" y1="657.95" x2="504.19" y2="682.53"/>
    <line class="st14" x1="520.86" y1="662.34" x2="503.9" y2="682.49"/>
    <line class="st16" x1="494.32" y1="660.55" x2="494.25" y2="660.6"/>
    <line class="st11" x1="523.54" y1="665.53" x2="588.45" y2="676.47"/>
    <line class="st11" x1="494.31" y1="660.61" x2="520.64" y2="665.04"/>
    <polyline class="st11" points="520.64 665.04 521.54 659.72 522.78 659.93 522.93 659.04 523.34 659.11 523.2 660 524.44 660.21 523.54 665.53 520.64 665.04"/>
    <polyline class="st11" points="493.91 655.07 495.21 655.28 494.31 660.61 492.66 660.33 493.7 654.12 494.06 654.18 493.91 655.07"/>
    <polyline class="st11" points="495.21 655.28 521.54 659.72 521.09 662.38 494.76 657.95 495.21 655.28"/>
  </g>
  <rect class="st17" x="530.64" y="881.18" width="99.09" height="127.53"/>
</svg>