<?xml version="1.0" encoding="UTF-8"?>
<svg id="Vinduer_i_facade" xmlns="http://www.w3.org/2000/svg" version="1.1" viewBox="0 0 1200 1697.14">
  <!-- Generator: Adobe Illustrator 29.6.0, SVG Export Plug-In . SVG Version: 2.1.1 Build 207)  -->
  <defs>
    <style>
      .st0 {
        fill: #e2dedb;
      }

      .st1, .st2, .st3, .st4, .st5, .st6, .st7, .st8, .st9, .st10, .st11, .st12, .st13, .st14, .st15, .st16 {
        stroke: #363a3b;
      }

      .st1, .st2, .st3, .st10, .st11 {
        stroke-miterlimit: 10;
      }

      .st1, .st2, .st3, .st15, .st16 {
        fill: #fff;
      }

      .st1, .st10 {
        stroke-width: .29px;
      }

      .st2, .st6, .st17, .st14, .st18, .st19, .st16, .st20 {
        stroke-width: .28px;
      }

      .st3, .st8, .st11, .st12, .st21, .st15 {
        stroke-width: .28px;
      }

      .st4 {
        stroke-width: .3px;
      }

      .st4, .st5, .st6, .st7, .st8, .st9, .st17, .st10, .st11, .st12, .st13, .st21, .st14, .st18, .st22, .st19, .st20 {
        fill: none;
      }

      .st4, .st5, .st6, .st7, .st8, .st9, .st17, .st12, .st13, .st21, .st14, .st18, .st22, .st19, .st15, .st16, .st20 {
        stroke-linecap: round;
        stroke-linejoin: round;
      }

      .st5 {
        stroke-width: .28px;
      }

      .st7 {
        stroke-width: .28px;
      }

      .st9 {
        stroke-width: .29px;
      }

      .st23 {
        fill: #ece8e5;
      }

      .st17, .st18, .st22, .st19 {
        stroke: #000;
      }

      .st12, .st13, .st22 {
        stroke-dasharray: .06 .43;
      }

      .st13, .st22 {
        stroke-width: .18px;
      }

      .st21 {
        stroke: #0e0e0e;
      }

      .st14 {
        stroke-dasharray: .09 .69;
      }

      .st18 {
        stroke-dasharray: .09 .69;
      }

      .st19 {
        stroke-dasharray: .09 .68;
      }

      .st24 {
        fill: #302c35;
      }

      .st20 {
        stroke: #00001d;
      }
    </style>
  </defs>
  <polygon class="st23" points="693.28 733.88 693.28 740.97 561.15 740.97 561.15 733.88 480.01 733.88 480.01 1018.54 717.22 1018.54 717.22 733.88 693.28 733.88"/>
  <line class="st14" x1="564.22" y1="740.97" x2="692.06" y2="740.67"/>
  <g>
    <rect class="st16" x="630.02" y="811.07" width="110.26" height="50.38" transform="translate(-151.11 1521.41) rotate(-90)"/>
    <rect class="st16" x="671.16" y="793.12" width="27.99" height="27.57" rx="1.42" ry="1.42"/>
    <polygon class="st16" points="710.98 795.55 710.98 891.68 659.96 891.68 659.96 820.42 710.98 795.55"/>
  </g>
  <g>
    <g>
      <path class="st16" d="M515.88,804.78c-7.12,0-12.9,6.14-12.9,13.72,0,5.58,3.65,11.1,8.79,13.01.7.26,2.18.79,4.11.71,6.06-.24,12.9-6.28,12.9-13.72s-5.78-13.72-12.9-13.72Z"/>
      <path class="st6" d="M512.98,830.41c-4.38,0-7.92-5.33-7.92-11.91"/>
      <path class="st6" d="M512.98,806.59c-4.38,0-7.92,5.33-7.92,11.91"/>
      <path class="st6" d="M512.98,806.59c.86,0,1.56-.68,1.56-1.53"/>
      <path class="st6" d="M512.98,830.41c.86,0,1.56.74,1.56,1.66"/>
    </g>
    <g>
      <path class="st16" d="M560.15,804.78c7.12,0,12.9,6.14,12.9,13.72,0,5.58-3.65,11.1-8.79,13.01-.7.26-2.18.79-4.11.71-6.06-.24-12.9-6.28-12.9-13.72s5.78-13.72,12.9-13.72Z"/>
      <path class="st6" d="M563.04,830.41c4.38,0,7.92-5.33,7.92-11.91"/>
      <path class="st6" d="M563.04,806.59c4.38,0,7.92,5.33,7.92,11.91"/>
      <path class="st6" d="M563.04,806.59c-.86,0-1.56-.68-1.56-1.53"/>
      <path class="st6" d="M563.04,830.41c-.86,0-1.56.74-1.56,1.66"/>
    </g>
    <rect class="st16" x="521.22" y="798.29" width="35.68" height="40.44" transform="translate(1078.11 1637.01) rotate(-180)"/>
  </g>
  <g>
    <path class="st16" d="M609.85,746.44c6.26,7.8,12.52,15.61,18.78,23.41.18.41.03.92-.37,1.24-8.31,8.71-17.89,16.2-28.33,22.15-.17.1-.38.09-.5-.04-.59-.73-1.17-1.45-1.76-2.18l-16.98-21.01,29.17-23.57"/>
    <path class="st16" d="M608.25,744.94c.68.65,1.26,1.37,1.77,2.16.09.16.04.37-.13.51-9.16,7.76-18.44,15.35-27.86,22.78-.26.16-.57.13-.74-.07-.71-.74-1.34-1.54-1.88-2.41"/>
    <path class="st16" d="M610.93,750.19c.57-.46-.06-2.18-1.4-3.84-.11-.13-.22-.26-.33-.39l-.95-1.03c-.14-.12-.36-.11-.52.02l-28.39,22.95,1.95,2.42c.65.78,1.3,1.55,1.96,2.33.36.26.89.22,1.29-.1,9.96-5.95,18.92-13.54,26.4-22.35Z"/>
    <path class="st16" d="M609.89,748.54c.13.43.29.84.48,1.24.13.51.29,1.02.48,1.51.26.67.51,1.34.76,2.02.34.93.76,1.81,1.27,2.66.31.52.63,1.02.98,1.52.36.52.73,1.05,1.11,1.56.89,1.23,1.84,2.41,2.86,3.54,1.03,1.14,2.14,2.18,3.35,3.14.91.72,1.88,1.34,2.93,1.88.66.34,1.33.46,2.13.4.07,0,.12-.03.18-.07l.51-.41c.1-.16.12-.3.08-.47-6.07-7.51-12.14-15.02-18.21-22.53-.11-.13-.32-.14-.48-.01l-.16.13h0c-.15.13-.19.34-.1.48.21.35.42.69.63,1.04.31.44.58.89.81,1.38l.41,1.02Z"/>
    <path class="st16" d="M582.56,770.62c.39.22.76.46,1.12.73.47.24.93.5,1.37.79.6.39,1.21.78,1.81,1.16.84.53,1.61,1.13,2.33,1.8.44.41.87.83,1.28,1.27.44.47.87.94,1.3,1.41,1.02,1.13,1.97,2.3,2.86,3.54.9,1.24,1.68,2.55,2.36,3.93.51,1.04.92,2.12,1.22,3.26.19.72.18,1.4-.05,2.16-.02.06-.05.11-.11.16l-.51.41c-.18.06-.32.06-.48-.02-6.07-7.51-12.14-15.02-18.21-22.53-.11-.13-.07-.34.09-.47l.16-.13h0c.16-.12.37-.12.49,0,.29.28.59.55.88.83.36.39.75.75,1.18,1.08l.91.61Z"/>
  </g>
  <circle class="st2" cx="633.91" cy="800.34" r="13.02"/>
  <g>
    <path class="st6" d="M629.92,956.55c11.6,0,22.94-4.79,31.27-13.11,8.07-8.07,12.86-19.41,12.86-31.01"/>
    <line class="st6" x1="629.92" y1="914.19" x2="629.92" y2="956.55"/>
    <polyline class="st6" points="674.05 912.42 629.92 912.42 629.92 914.19"/>
  </g>
  <g>
    <g>
      <polyline class="st17" points="712.05 948.98 712.1 948.98 712.1 949.02"/>
      <line class="st18" x1="712.1" y1="949.72" x2="712.1" y2="993.23"/>
      <polyline class="st17" points="712.1 993.58 712.1 993.63 712.05 993.63"/>
      <line class="st19" x1="711.37" y1="993.63" x2="668.35" y2="993.63"/>
      <polyline class="st17" points="668.01 993.63 667.97 993.63 667.97 993.58"/>
      <line class="st18" x1="667.97" y1="992.89" x2="667.97" y2="949.37"/>
      <polyline class="st17" points="667.97 949.02 667.97 948.98 668.01 948.98"/>
      <line class="st19" x1="668.7" y1="948.98" x2="711.71" y2="948.98"/>
    </g>
    <g>
      <line class="st6" x1="690.07" y1="993.45" x2="690.07" y2="981.15"/>
      <path class="st16" d="M692.76,981.21c0,1.52-1.23,2.75-2.75,2.75s-2.75-1.23-2.75-2.75,1.23-2.75,2.75-2.75,2.75,1.23,2.75,2.75"/>
    </g>
  </g>
  <path class="st2" d="M664.16,993.75v-16.09c0-6.19-4.45-11.2-9.95-11.2-5.5,0-9.95,5.01-9.95,11.2v16.09s19.9,0,19.9,0Z"/>
  <g>
    <path class="st15" d="M712.1,911.88h-18.5c-.41,0-.74.21-.74.47v26.59c0,.32.33.59.74.59h18.5"/>
    <path class="st6" d="M709.4,926.76c-.55,0-1-.45-1-1s.45-1,1-1,1,.45,1,1-.45,1-1,1"/>
    <g>
      <path class="st6" d="M700.59,926.96c-.68,0-1.23-.55-1.23-1.23s.55-1.23,1.23-1.23,1.23.55,1.23,1.23-.55,1.23-1.23,1.23"/>
      <path class="st6" d="M700.59,927.55c-1,0-1.82-.81-1.82-1.82s.81-1.82,1.82-1.82,1.82.81,1.82,1.82-.81,1.82-1.82,1.82"/>
    </g>
    <path class="st8" d="M706.19,913.91h-10.82c-.41,0-.74.23-.74.52v22.61c0,.29.33.52.74.52h10.82c.41,0,.74-.23.74-.52v-22.61c0-.29-.33-.52-.74-.52Z"/>
  </g>
  <g>
    <polygon class="st1" points="485.74 1010.22 485.77 972.89 485.74 942.18 520 942.18 520 1010.22 485.74 1010.22"/>
    <g>
      <g>
        <polyline class="st5" points="515.16 1003.35 493.97 1003.35 493.97 982.15 515.16 982.15 515.16 1003.35"/>
        <line class="st5" x1="499.09" y1="992.7" x2="490.57" y2="992.7"/>
      </g>
      <polyline class="st5" points="518.27 1008.52 487.47 1008.52 487.47 976.99 518.27 976.99 518.27 1008.52"/>
    </g>
    <g>
      <g>
        <line class="st9" x1="515.19" y1="952.16" x2="506.95" y2="952.16"/>
        <line class="st9" x1="499.59" y1="952.16" x2="491.35" y2="952.16"/>
        <line class="st9" x1="495.52" y1="948.35" x2="495.52" y2="956.07"/>
        <line class="st9" x1="511.02" y1="948.35" x2="511.02" y2="956.07"/>
      </g>
      <polyline class="st4" points="518.27 960.54 487.47 960.54 487.47 943.88 518.27 943.88 518.27 960.54"/>
    </g>
  </g>
  <path class="st20" d="M520.02,941.74"/>
  <line class="st6" x1="486" y1="942.13" x2="520.02" y2="942.13"/>
  <line class="st3" x1="485.99" y1="942.12" x2="520.01" y2="942.12"/>
  <path class="st13" d="M520.01,884.76l16.54,23.26s-7.42,4.85-16.54,4.89"/>
  <path class="st13" d="M520.01,941.32l16.54-22.75s-7.42-4.74-16.54-4.79"/>
  <rect class="st3" x="485.96" y="913.27" width="34.03" height="28.87"/>
  <rect class="st3" x="485.96" y="884.45" width="34.03" height="28.87"/>
  <rect class="st0" x="473.9" y="898.68" width="122.04" height="100.67" transform="translate(-414.09 1483.94) rotate(-90)"/>
  <g>
    <line class="st6" x1="489.19" y1="859.18" x2="489.19" y2="878.44"/>
    <line class="st6" x1="490.57" y1="878.44" x2="490.57" y2="859.18"/>
    <polyline class="st6" points="489.19 878.44 489.19 881.32 490.57 881.32 490.57 878.44 489.19 878.44"/>
    <polyline class="st6" points="489.19 856.36 489.19 859.18 490.57 859.18 490.57 856.36 489.19 856.36"/>
    <line class="st6" x1="486.13" y1="858.16" x2="488.95" y2="858.16"/>
    <line class="st6" x1="486.13" y1="879.33" x2="488.95" y2="879.33"/>
  </g>
  <g>
    <polygon class="st10" points="485.74 1010.22 485.77 972.89 485.74 942.18 520 942.18 520 1010.22 485.74 1010.22"/>
    <g>
      <g>
        <polyline class="st5" points="515.16 1003.35 493.97 1003.35 493.97 982.15 515.16 982.15 515.16 1003.35"/>
        <line class="st5" x1="499.09" y1="992.7" x2="490.57" y2="992.7"/>
      </g>
      <polyline class="st5" points="518.27 1008.52 487.47 1008.52 487.47 976.99 518.27 976.99 518.27 1008.52"/>
    </g>
    <g>
      <g>
        <line class="st9" x1="515.19" y1="952.16" x2="506.95" y2="952.16"/>
        <line class="st9" x1="499.59" y1="952.16" x2="491.35" y2="952.16"/>
        <line class="st9" x1="495.52" y1="948.35" x2="495.52" y2="956.07"/>
        <line class="st9" x1="511.02" y1="948.35" x2="511.02" y2="956.07"/>
      </g>
      <polyline class="st4" points="518.27 960.54 487.47 960.54 487.47 943.88 518.27 943.88 518.27 960.54"/>
    </g>
  </g>
  <path class="st20" d="M520.02,941.74"/>
  <line class="st6" x1="486" y1="942.13" x2="520.02" y2="942.13"/>
  <line class="st3" x1="485.99" y1="942.12" x2="520.01" y2="942.12"/>
  <path class="st13" d="M520.01,884.76l16.54,23.26s-7.42,4.85-16.54,4.89"/>
  <path class="st13" d="M520.01,941.32l16.54-22.75s-7.42-4.74-16.54-4.79"/>
  <rect class="st11" x="485.96" y="913.27" width="34.03" height="28.87"/>
  <rect class="st11" x="485.96" y="884.45" width="34.03" height="28.87"/>
  <rect class="st24" x="628.25" y="956.55" width="3.54" height="61.57"/>
  <rect class="st24" x="628.25" y="901.74" width="3.54" height="10.69"/>
  <rect class="st24" x="628.25" y="899.69" width="87.61" height="3.54"/>
  <rect class="st24" x="628.25" y="993.63" width="90.85" height="24.91"/>
  <rect class="st24" x="477.37" y="731.73" width="86.86" height="8.5"/>
  <rect class="st24" x="481.62" y="1010.04" width="89.21" height="8.5"/>
  <rect class="st24" x="614.72" y="1010.04" width="96.58" height="8.5"/>
  <polyline class="st24" points="691.55 726.18 691.71 679.5 700.22 679.5 700.22 726.18 693.2 726.18"/>
  <polyline class="st24" points="557.21 726.18 564.22 726.18 564.22 679.5 555.72 679.5 555.72 736.38 557.21 736.38 557.21 726.18"/>
  <rect class="st24" x="503.78" y="680.53" width="34.02" height="86.86" transform="translate(1244.76 203.17) rotate(90)"/>
  <rect class="st24" x="714.14" y="738.48" width="8.5" height="280.06"/>
  <rect class="st24" x="477.37" y="738.48" width="8.5" height="280.06"/>
  <polygon class="st24" points="691.55 740.46 691.62 706.96 722.64 706.96 722.64 740.97 691.55 740.46"/>
  <g>
    <polyline class="st8" points="663.44 684.9 690.14 684.9 690.14 682.2 663.44 682.2 663.44 684.9"/>
    <polyline class="st7" points="565.97 684.87 660.44 684.87 660.44 682.17 565.97 682.17 565.97 684.87"/>
    <line class="st8" x1="661.94" y1="678.6" x2="691.55" y2="678.6"/>
    <polyline class="st8" points="691.82 678.6 691.4 678.6 691.4 679.5 690.08 679.5 690.08 684.9 691.82 684.9 691.82 678.6"/>
    <polyline class="st8" points="564.23 678.6 564.65 678.6 564.65 679.5 565.97 679.5 565.97 684.9 564.23 684.9 564.23 678.6"/>
    <polyline class="st8" points="662.18 678.6 661.76 678.6 661.76 679.5 660.5 679.5 660.5 684.9 663.44 684.9 663.44 679.5 662.18 679.5 662.18 678.6"/>
    <line class="st8" x1="690.14" y1="679.5" x2="663.44" y2="679.5"/>
    <line class="st8" x1="660.5" y1="679.5" x2="565.97" y2="679.5"/>
    <line class="st8" x1="690.14" y1="682.2" x2="690.14" y2="679.5"/>
    <line class="st8" x1="661.94" y1="678.6" x2="564.44" y2="678.6"/>
    <polyline class="st8" points="565.97 679.5 564.65 679.5 564.65 678.6 564.23 678.6 564.23 684.9 565.97 684.9 565.97 679.5"/>
    <line class="st12" x1="690.14" y1="682.2" x2="676.76" y2="704.88"/>
    <line class="st12" x1="663.67" y1="682.2" x2="677.05" y2="704.88"/>
    <line class="st21" x1="690.14" y1="684.84" x2="690.2" y2="684.9"/>
    <line class="st8" x1="660.5" y1="684.9" x2="565.97" y2="684.9"/>
    <line class="st8" x1="690.14" y1="684.9" x2="663.44" y2="684.9"/>
    <polyline class="st8" points="663.44 684.9 663.44 679.5 662.18 679.5 662.18 678.6 661.76 678.6 661.76 679.5 660.5 679.5 660.5 684.9 663.44 684.9"/>
    <polyline class="st8" points="691.46 679.5 690.14 679.5 690.14 684.9 691.82 684.9 691.82 678.6 691.46 678.6 691.46 679.5"/>
    <polyline class="st8" points="690.14 679.5 663.44 679.5 663.44 682.2 690.14 682.2 690.14 679.5"/>
  </g>
  <rect class="st24" x="712.12" y="900.25" width="2.88" height="109.52"/>
  <g>
    <path class="st6" d="M570.74,1010.18c0-11.6,4.79-22.95,13.11-31.27,8.07-8.07,19.42-12.86,31.01-12.86"/>
    <line class="st6" x1="613.1" y1="1010.18" x2="570.74" y2="1010.18"/>
    <polyline class="st6" points="614.86 966.05 614.86 1010.18 613.1 1010.18"/>
  </g>
  <rect class="st22" x="480.01" y="887.99" width="105.5" height="122.23"/>
</svg>