<?xml version="1.0" encoding="UTF-8"?>
<svg id="Layer_1" xmlns="http://www.w3.org/2000/svg" xmlns:xlink="http://www.w3.org/1999/xlink" version="1.1" viewBox="0 0 1200 1697.14">
  <!-- Generator: Adobe Illustrator 29.6.0, SVG Export Plug-In . SVG Version: 2.1.1 Build 207)  -->
  <defs>
    <style>
      .st0, .st1, .st2, .st3 {
        fill: none;
      }

      .st1 {
        stroke: #0d0e1c;
      }

      .st1, .st2, .st3 {
        stroke-linecap: round;
        stroke-linejoin: round;
      }

      .st1, .st3 {
        stroke-width: .08px;
      }

      .st2 {
        stroke-width: .14px;
      }

      .st2, .st3 {
        stroke: #000;
      }

      .st4 {
        clip-path: url(#clippath-1);
      }

      .st5 {
        clip-path: url(#clippath-3);
      }

      .st6 {
        clip-path: url(#clippath-4);
      }

      .st7 {
        clip-path: url(#clippath-2);
      }

      .st8 {
        clip-path: url(#clippath-7);
      }

      .st9 {
        clip-path: url(#clippath-6);
      }

      .st10 {
        clip-path: url(#clippath-9);
      }

      .st11 {
        clip-path: url(#clippath-8);
      }

      .st12 {
        clip-path: url(#clippath-5);
      }

      .st13 {
        fill: #fff;
      }

      .st14 {
        fill: #ece9e5;
      }

      .st15 {
        fill: #302c35;
      }

      .st16 {
        clip-path: url(#clippath);
      }
    </style>
    <clipPath id="clippath">
      <rect class="st0" x="197.33" y="420.71" width="805.33" height="855.73"/>
    </clipPath>
    <clipPath id="clippath-1">
      <rect class="st0" x="746.29" y="614.4" width="72.58" height="159.65"/>
    </clipPath>
    <clipPath id="clippath-2">
      <rect class="st0" x="197.33" y="420.71" width="805.33" height="855.73"/>
    </clipPath>
    <clipPath id="clippath-3">
      <rect class="st0" x="631" y="1105.15" width="39.21" height="28.6"/>
    </clipPath>
    <clipPath id="clippath-4">
      <rect class="st0" x="197.33" y="420.71" width="805.33" height="855.73"/>
    </clipPath>
    <clipPath id="clippath-5">
      <rect class="st0" x="197.33" y="420.71" width="805.33" height="855.73"/>
    </clipPath>
    <clipPath id="clippath-6">
      <rect class="st0" x="698.86" y="1154.67" width="56.78" height="42.08"/>
    </clipPath>
    <clipPath id="clippath-7">
      <rect class="st0" x="197.33" y="420.71" width="805.33" height="855.73"/>
    </clipPath>
    <clipPath id="clippath-8">
      <rect class="st0" x="197.33" y="420.71" width="805.33" height="855.73"/>
    </clipPath>
    <clipPath id="clippath-9">
      <rect class="st0" x="197.33" y="420.71" width="805.33" height="855.73"/>
    </clipPath>
  </defs>
  <rect class="st14" x="384.66" y="793.05" width="452.96" height="427.65"/>
  <rect class="st14" x="384.66" y="566.57" width="452.96" height="46.92"/>
  <rect class="st14" x="493.52" y="613.49" width="344.11" height="179.56"/>
  <rect class="st14" x="490.31" y="479.15" width="249.77" height="87.42"/>
  <rect class="st13" x="529.13" y="1029.57" width="95.52" height="47.69"/>
  <rect class="st13" x="400.53" y="1156.91" width="128.6" height="47.93"/>
  <rect class="st13" x="519" y="570.96" width="199.07" height="11.81"/>
  <rect class="st15" x="384.66" y="793.05" width="15.86" height="283.53"/>
  <rect class="st15" x="384.66" y="1148.13" width="15.86" height="72.57"/>
  <rect class="st15" x="400.53" y="1204.84" width="419.55" height="15.87"/>
  <rect class="st15" x="736.03" y="479.15" width="4.05" height="87.42"/>
  <rect class="st15" x="490.31" y="479.15" width="4.05" height="87.42"/>
  <rect class="st15" x="716.33" y="597.29" width="121.3" height="16.2"/>
  <rect class="st15" x="492.33" y="613.49" width="15.87" height="195.76"/>
  <rect class="st15" x="400.53" y="793.05" width="91.81" height="16.2"/>
  <rect class="st15" x="400.53" y="928.74" width="43.88" height="8.1"/>
  <rect class="st15" x="424.49" y="809.26" width="19.92" height="119.49"/>
  <rect class="st15" x="529.13" y="1077.25" width="95.52" height="8.1"/>
  <rect class="st15" x="529.13" y="1085.35" width="11.14" height="119.48"/>
  <rect class="st15" x="604.06" y="1085.35" width="20.59" height="119.48"/>
  <rect class="st15" x="820.07" y="613.49" width="17.55" height="607.21"/>
  <rect class="st15" x="804.21" y="1001.65" width="9.11" height="6.41"/>
  <rect class="st15" x="624.65" y="1006.71" width="5.06" height="198.13"/>
  <rect class="st15" x="629.71" y="1196.74" width="183.62" height="13.72"/>
  <rect class="st15" x="811.97" y="1001.65" width="9.57" height="205.05"/>
  <rect class="st15" x="629.71" y="1006.71" width="1.35" height="190.03"/>
  <rect class="st15" x="624.64" y="1001.65" width="101.09" height="6.41"/>
  <rect class="st15" x="716.33" y="566.57" width="121.3" height="30.72"/>
  <rect class="st15" x="384.66" y="597.29" width="134.34" height="16.2"/>
  <rect class="st15" x="384.66" y="566.57" width="134.34" height="30.72"/>
  <rect class="st15" x="494.36" y="479.15" width="241.67" height="3.71"/>
  <path class="st3" d="M424.49,809.26v119.48M424.49,928.74h-23.96M400.53,850.1v-40.84M604.05,1085.35v119.49M604.05,1204.84h-63.79M540.26,1204.84v-119.49M540.26,1085.35h63.79M400.53,1204.84v-55.69M384.66,1148.13v72.57M400.53,1075.57v-138.73M400.53,928.74v-119.48M400.53,793.05h-15.86M384.66,793.05v137.04M384.66,930.09v146.49M529.12,1204.84h-128.6M400.53,1220.7h173.15M589.54,1220.7h138.39M743.79,1220.7h76.28M712.74,495.69l-13.16,1.35M699.58,497.04l-12.83,3.38M686.75,500.42l-11.81,5.4M674.94,505.82l-10.8,7.43M664.13,513.24l-9.11,9.45M655.02,522.69l-7.76,10.8M647.26,533.49l-5.4,11.82M641.86,545.31l-3.38,12.83M638.48,558.13l-1.35,12.83M712.74,570.96v-75.27M707.68,571.63v4.05M642.2,571.63h65.48M642.2,575.69v-4.05M707.68,575.69h-65.48M638.82,582.77h72.23M707.68,570.96h-65.48M707.68,577.37h-65.48M638.82,577.37v5.4M711.05,577.37v5.4M711.05,577.37h-72.23M638.82,577.37v5.4M642.2,577.37h-3.37M642.2,570.96v6.41M634.77,570.96h7.43M634.77,582.77v-11.82M638.82,582.77h-4.05M715.1,570.96v11.82M707.68,570.96h7.43M707.68,577.37v-6.41M711.05,577.37h-3.38M711.05,582.77v-5.4M715.1,582.77h-4.05M524.06,575.69h105.64M629.71,575.69v-4.05M629.71,571.63h-105.64M524.06,571.63v4.05M629.71,582.77h-105.64M524.06,570.96h105.64M629.71,582.77h4.05M633.76,582.77v-11.82M633.76,570.96h-4.05M629.71,570.96v11.82M520.01,582.77h4.05M524.06,582.77v-11.82M524.06,570.96h-4.05M520.01,570.96v11.82M494.36,482.86v83.71M736.03,566.57v-83.71M736.03,482.86h-241.67M490.31,566.57h4.05M494.36,566.57v-83.71M494.36,482.86h241.67M736.03,482.86v83.71M736.03,566.57h4.05M740.08,566.57v-87.42M740.08,479.15h-249.77M490.31,479.15v87.42M467.36,1145.77l-1.35-13.16M466.01,1132.61l-3.71-12.49M462.29,1120.12l-6.41-11.48M455.88,1108.64l-8.1-10.13M447.78,1098.52l-10.12-8.44M437.65,1090.08l-11.47-6.07M426.18,1084l-12.49-3.71M413.69,1080.29l-13.16-1.35M400.53,1076.58h-15.86M384.66,1148.13h15.86M400.53,1145.77h66.83M400.53,1142.4v3.37M400.53,1149.15v-1.01M400.53,1145.77h0M400.53,1142.4v-63.46M400.53,1076.58v-1.01M604.05,1085.35l-63.79,119.49M604.05,1204.84v-119.49M604.05,1085.35h-63.79M540.26,1085.35v119.49M540.26,1204.84h63.79M384.66,613.49h8.1M400.53,613.49h12.15M420.44,613.49h71.89M508.2,613.49h10.8M519,613.49v-16.2M716.11,613.49h103.96M716.11,597.29v16.2M424.49,809.26l-23.96,119.48M424.49,928.74v-119.48M424.49,809.26h-23.96M400.53,809.26v119.48M401.54,928.74h22.95M508.2,809.26v-195.77M492.33,613.49v179.57M492.33,809.26h15.86M492.33,793.05h-91.81M444.4,809.26h47.93M400.53,936.84h43.88M444.4,936.84v-8.1M444.4,928.74v-119.48M624.64,1077.25h-95.52M529.12,1077.25v8.1M529.12,1085.35v119.49"/>
  <path class="st3" d="M576.72,1077.25h-47.59M624.65,1029.32v22.28M624.65,1077.25h-95.52M837.63,1220.7v-607.21M837.63,1116.07v8.1M400.53,1156.91h1.35M404.24,1156.91h2.37M408.96,1156.91h2.37M413.69,1156.91h2.36M418.75,1156.91h2.36M423.48,1156.91h2.36M428.2,1156.91h2.36M432.93,1156.91h2.36M437.66,1156.91h2.36M442.38,1156.91h2.7M447.44,1156.91h1.01M448.46,1156.91v1.35M448.46,1160.62v2.36M448.46,1165.35v2.36M448.46,1170.07v2.36M448.46,1174.8v2.7M448.46,1179.86v2.36M448.46,1184.59v2.36M448.46,1189.31v2.36M448.46,1194.04v2.36M448.46,1198.76v2.36M448.46,1203.49v1.35M448.46,1204.84h-1.01M445.08,1204.84h-2.7M440.02,1204.84h-2.36M435.29,1204.84h-2.36M430.57,1204.84h-2.36M425.84,1204.84h-2.36M421.12,1204.84h-2.36M416.05,1204.84h-2.36M411.33,1204.84h-2.37M406.6,1204.84h-2.37M401.88,1204.84h-1.35M519,581.08v32.41M508.2,613.49v195.77M508.2,809.26h-18.57M424.49,809.26v119.48M424.49,928.74h-23.96M400.53,936.84v139.73M400.53,1078.94v63.46M400.53,1145.77h0M400.53,1148.13v1.01M400.53,1204.84h128.6M529.13,1204.84v-127.59M529.13,1077.25h95.52M624.65,1051.6v-49.95M804.21,1001.65h1.01M818.39,1001.65h1.69M820.07,1001.65v-388.16M716.12,613.49v-32.41M716.12,581.08h-1.01M634.77,581.08h-1.01M520.01,581.08h-1.01M400.53,1149.15v-1.01M400.53,1145.77h0M400.53,1142.4v-63.46M400.53,1076.58v-1.01M813.32,1001.65h-8.1"/>
  <path class="st3" d="M725.57,1001.65h-100.92M624.65,1001.65v5.06M804.21,1001.65h1.01M624.65,1006.71v70.54M818.39,1001.65h-5.06"/>
  <path class="st3" d="M801.85,927.73l-12.83,1.01M789.02,928.74l-12.49,3.37M776.53,932.11l-11.48,5.4M765.06,937.52l-10.8,7.43M754.26,944.94l-8.78,9.11M745.48,954.05l-7.43,10.47M738.05,964.52l-5.4,11.81M732.65,976.33l-3.37,12.49M729.28,988.82l-1.35,12.83M804.21,1008.06v-6.41M725.57,1001.65v6.41M801.85,1001.65v-73.92M798.47,1001.65h3.38M802.19,1001.65h-74.26M811.97,1196.74v-188.68M631.06,1196.74h115.77M746.83,1196.74h65.14M631.06,1196.74v-188.68M631.06,1008.06h94.51M811.97,1008.06h-7.76"/>
  <path class="st3" d="M632.07,1008.06h4.05M837.62,566.57h-121.51M716.11,566.57v30.72M519,566.57h-134.34M519,597.29v-30.72M519,566.57v8.78M519,575.35h1.01M633.76,575.35h1.01M715.1,575.35h1.01M716.11,575.35v-8.78M716.11,575.35h-1.01M634.77,575.35h-1.01M520.01,575.35h-1.01M519,581.08v-5.74M716.11,575.35v5.74"/>
  <path class="st3" d="M837.63,1220.7h-452.96M837.63,566.57v654.13M384.66,793.05h107.67M492.34,793.05v-179.56M492.34,613.49h-107.67M384.66,613.49v-46.92"/>
  <g class="st16">
    <path class="st2" d="M335.05,314.44v6.07M255.73,338.06l7.09,16.2M280.37,349.88l-17.55,4.38M251.68,377.56l28.69-27.68M251.68,377.56l4.05-39.49M251.68,377.56l11.14-23.29M574.35,314.44v6.07M414.7,314.44v6.07M494.36,314.44v6.07M574.35,314.44h-239.31M1034.07,1440.77V257.06"/>
    <path d="M983.16,335.83c-.28-.43-.67-.75-1.17-.96-.5-.21-1.12-.32-1.85-.32-.58,0-1.1.11-1.57.32-.47.21-.82.5-1.07.89-.25.38-.37.78-.37,1.21s.11.81.34,1.14c.23.33.58.61,1.05.82.33.15.92.32,1.8.51.87.19,1.42.39,1.62.57.21.19.32.43.32.72,0,.33-.15.62-.45.85-.3.24-.77.36-1.42.36s-1.1-.13-1.42-.39c-.32-.26-.51-.64-.57-1.16l-1.03.07c.02.47.15.9.4,1.27.25.37.6.65,1.06.85.46.19.99.29,1.6.29.55,0,1.04-.09,1.49-.27.45-.18.79-.45,1.02-.81.23-.35.35-.73.35-1.14,0-.37-.1-.71-.29-1-.19-.3-.48-.55-.87-.75-.3-.16-.82-.33-1.57-.5-.75-.18-1.23-.31-1.45-.4-.34-.13-.59-.28-.73-.47-.15-.19-.22-.41-.22-.66s.08-.48.23-.69c.15-.21.39-.37.7-.49.31-.12.68-.18,1.09-.18.46,0,.88.08,1.25.24.37.16.64.37.82.62.17.26.29.59.34.99l1.01-.09c-.01-.54-.16-1.02-.44-1.45M974.44,334.69v2.79l-1.33,1.29-2.9-4.08h-1.42l3.57,4.79-3.41,3.26h1.46l4.04-3.99v3.99h1.08v-8.06h-1.08Z"/>
    <path d="M959.55,340.35h5.37v-.92h-5.37v.92ZM959.55,337.91h5.37v-.92h-5.37v.92Z"/>
    <path d="M954.8,335.83c-.28-.43-.67-.75-1.17-.96-.5-.21-1.11-.32-1.85-.32-.58,0-1.1.1-1.57.31-.46.21-.82.51-1.07.89-.25.38-.37.78-.37,1.21s.11.81.34,1.14c.23.33.57.61,1.05.82.33.15.92.32,1.8.51.88.2,1.42.39,1.62.57.21.19.32.43.32.72,0,.34-.15.62-.44.86-.3.23-.77.35-1.43.35s-1.1-.13-1.42-.39c-.32-.26-.51-.64-.56-1.16l-1.03.08c.02.47.15.9.4,1.27.25.37.61.66,1.07.85.46.19.99.29,1.6.29.55,0,1.04-.09,1.49-.27.45-.18.79-.45,1.02-.8.23-.36.35-.73.35-1.14,0-.37-.1-.7-.29-1-.19-.3-.48-.55-.87-.75-.3-.15-.83-.32-1.57-.5-.74-.18-1.23-.31-1.45-.39-.34-.13-.59-.29-.73-.48-.15-.19-.22-.41-.22-.66s.08-.48.23-.69c.16-.21.39-.38.7-.5.31-.12.68-.18,1.09-.18.46,0,.88.08,1.25.24.37.16.64.37.82.63.18.26.29.59.34.99l1.02-.09c-.01-.54-.16-1.02-.44-1.45"/>
    <path d="M946.58,334.69v2.31l-.7.67-1.95-2.99h-1.23l2.48,3.67-2.25,2.17h1.29l2.37-2.38v4.6h1v-8.06h-1ZM937.46,334.69h-1.04c.13.22.21.46.25.7.05.24.07.83.07,1.74v1.32c0,.44.02.75.05.91.06.27.16.49.31.67.15.18.38.33.69.44.31.12.72.18,1.23.18s.95-.07,1.33-.21c.39-.14.68-.33.88-.59.21-.25.35-.59.44-1l-.98-.13c-.11.42-.27.7-.5.87-.22.16-.57.24-1.04.24-.5,0-.88-.11-1.14-.33-.19-.17-.28-.45-.28-.85,0-.04,0-.12,0-.26.38-.13.98-.24,1.78-.34.39-.05.69-.09.89-.15.26-.07.51-.18.72-.33.22-.14.39-.33.52-.57s.2-.5.2-.78c0-.49-.17-.89-.52-1.2s-.85-.47-1.49-.47c-.39,0-.76.07-1.1.19-.34.13-.7.35-1.07.66-.03-.27-.1-.51-.2-.72M937.74,337.26c0-.44.05-.77.16-.99.14-.29.36-.52.66-.68.3-.17.65-.25,1.03-.25s.68.09.89.26c.2.18.3.39.3.66,0,.18-.05.33-.14.47-.09.14-.23.25-.4.33-.17.07-.46.14-.87.2-.72.1-1.27.22-1.63.37v-.36Z"/>
    <path d="M934.43,334.69v2.31l-.7.67-1.95-2.99h-1.23l2.48,3.67-2.25,2.16h1.29l2.36-2.38v4.6h1v-8.06h-1ZM927.95,335.54c.15,0,.26.03.34.07.08.05.14.11.17.19.04.08.05.26.05.54v3.41h-1v.77h1v2.04l.99-.59v-1.45h.73v-.77h-.73v-3.36c0-.6-.04-.98-.12-1.17-.08-.19-.22-.34-.42-.45-.2-.11-.48-.17-.84-.17-.22,0-.47.03-.76.09l.14.88c.18-.03.33-.04.44-.04"/>
    <path d="M982.1,321.53v3.66h-3.82v.95h3.82v2.49h-4.41v.95h5.49v-8.06h-1.07ZM976.41,322.67c-.28-.43-.68-.75-1.17-.96-.5-.21-1.11-.32-1.85-.32-.58,0-1.11.1-1.57.31-.46.21-.82.51-1.07.89-.25.38-.37.78-.37,1.21s.11.81.34,1.14c.23.33.57.61,1.05.83.33.14.92.32,1.8.51.88.2,1.42.39,1.62.57.21.19.32.43.32.72,0,.33-.15.62-.45.85-.3.23-.77.35-1.42.35s-1.1-.13-1.42-.39c-.32-.26-.51-.64-.56-1.16l-1.03.08c.02.47.15.9.4,1.27.25.37.61.66,1.07.85s.99.29,1.6.29c.55,0,1.04-.09,1.49-.27.45-.19.79-.45,1.02-.81.24-.35.35-.73.35-1.14,0-.37-.1-.7-.29-1-.19-.3-.48-.55-.87-.75-.3-.16-.83-.33-1.57-.5-.74-.18-1.23-.31-1.45-.4-.34-.13-.59-.28-.73-.48-.15-.19-.22-.41-.22-.66s.08-.48.23-.69c.16-.21.39-.38.7-.5.31-.12.68-.18,1.09-.18.46,0,.88.08,1.25.24.37.16.64.37.82.63.18.26.29.59.34.99l1.02-.09c-.01-.54-.16-1.02-.44-1.45"/>
    <path d="M960.56,327.19h5.37v-.92h-5.37v.92ZM960.56,324.74h5.37v-.92h-5.37v.92Z"/>
    <polygon points="954.77 321.53 954.77 325.19 950.95 325.19 950.95 326.14 954.77 326.14 954.77 328.63 950.36 328.63 950.36 329.58 955.85 329.58 955.85 321.53 954.77 321.53"/>
    <path d="M948.54,322.18c-.51-.52-1.17-.79-2-.79-.51,0-.99.12-1.42.36-.43.24-.77.57-.99,1-.23.43-.34,1.02-.34,1.77,0,.93.26,1.65.77,2.18.51.53,1.17.79,1.99.79.73,0,1.35-.22,1.85-.65.61-.52.91-1.32.91-2.4,0-.98-.26-1.74-.77-2.26M947.79,326.12c-.33.37-.74.55-1.24.55s-.9-.19-1.23-.56c-.33-.37-.5-.92-.5-1.64,0-.77.17-1.34.49-1.71.33-.38.74-.56,1.24-.56s.91.19,1.24.56c.33.37.49.93.49,1.68s-.17,1.31-.49,1.68M941.88,321.53v3.05c0,.42-.05.81-.17,1.16-.07.23-.2.41-.37.54-.18.13-.37.2-.59.2-.24,0-.49-.07-.73-.21l-.34.92c.35.21.69.32,1.03.32.23,0,.44-.07.64-.2.19-.13.4-.4.64-.82v.89h.9v-5.84h-1Z"/>
    <path d="M935.73,322.49c.26-.19.57-.28.94-.28.49,0,.9.17,1.23.51.33.34.51.83.55,1.48h-4.39c0,.11,0,.2,0,.26,0,.97.25,1.71.75,2.24.5.53,1.14.8,1.93.8s1.47-.27,1.99-.81c.51-.54.77-1.31.77-2.29s-.25-1.69-.76-2.21c-.5-.53-1.19-.79-2.05-.79-.68,0-1.25.17-1.69.5-.44.33-.74.79-.9,1.39l1.03.13c.15-.42.35-.72.61-.91M937.87,326.23c-.31.31-.7.46-1.16.46-.51,0-.92-.19-1.24-.57-.21-.25-.33-.62-.38-1.11h3.29c-.03.51-.21.91-.52,1.22M932.37,321.87c-.4-.32-.99-.47-1.75-.47-.46,0-.88.08-1.24.24-.37.16-.65.38-.84.68-.19.29-.29.6-.29.93s.08.62.24.85c.16.23.38.4.66.52.28.12.77.27,1.48.46.49.13.78.22.88.25.17.07.3.16.38.27.08.1.12.22.12.35,0,.2-.1.38-.29.53-.2.15-.52.22-.98.22-.39,0-.69-.08-.9-.25-.21-.17-.34-.4-.39-.71l-.98.13c.06.38.18.68.34.9.17.22.42.41.77.54.35.13.76.2,1.22.2.31,0,.59-.04.86-.12.27-.08.48-.18.63-.29.21-.15.37-.33.49-.55.12-.22.18-.46.18-.72,0-.28-.07-.55-.22-.78-.15-.23-.36-.42-.65-.55-.28-.13-.79-.29-1.52-.48-.55-.14-.89-.25-1.02-.33-.2-.13-.29-.31-.29-.53,0-.25.11-.47.33-.65.22-.19.56-.28,1.02-.28s.81.1,1.06.31c.25.21.41.51.46.9l.99-.16c-.11-.62-.37-1.09-.77-1.4M925.99,329.59h1v-8.06h-1v8.06ZM920.3,321.53h-1.05c.13.22.21.46.26.7.04.24.06.83.06,1.74v1.32c0,.44.02.74.05.91.06.27.16.5.31.67.15.18.38.33.69.44.31.12.72.18,1.23.18s.95-.07,1.34-.21c.38-.14.68-.33.88-.59.21-.25.35-.59.44-1l-.98-.13c-.11.42-.27.7-.5.87-.22.17-.57.24-1.04.24-.5,0-.88-.11-1.14-.34-.19-.16-.28-.45-.28-.85,0-.04,0-.12,0-.26.38-.13.98-.24,1.78-.34.39-.05.69-.1.89-.15.27-.07.51-.18.72-.32.22-.15.39-.33.52-.57.13-.24.2-.5.2-.78,0-.49-.17-.89-.52-1.2-.35-.31-.85-.47-1.49-.47-.39,0-.76.06-1.1.19-.34.13-.7.35-1.07.66-.03-.27-.1-.51-.2-.72M920.58,324.09c0-.44.05-.77.16-.99.14-.29.36-.52.66-.69.3-.16.65-.25,1.03-.25s.69.09.89.26c.2.18.3.39.3.66,0,.17-.04.33-.14.47-.09.14-.23.25-.4.32-.17.07-.46.14-.87.2-.72.1-1.27.22-1.63.37v-.36ZM922.68,328.15c-.2-.2-.43-.29-.71-.29s-.5.1-.7.29c-.2.2-.3.44-.3.72s.1.52.3.71.43.29.7.29.51-.1.7-.29.3-.42.3-.69c0-.29-.1-.54-.3-.74M922.37,329.29c-.12.11-.26.17-.41.17s-.3-.06-.42-.18c-.11-.12-.17-.26-.17-.43s.06-.3.17-.42c.12-.12.26-.17.42-.17s.3.06.41.17c.12.12.17.26.17.44,0,.16-.06.3-.17.42M914.52,322.49c.26-.19.57-.28.94-.28.49,0,.9.17,1.23.51.33.34.51.83.55,1.48h-4.39c0,.11,0,.2,0,.26,0,.97.25,1.71.75,2.24.5.53,1.14.8,1.93.8s1.47-.27,1.99-.81c.51-.54.76-1.31.76-2.29s-.25-1.69-.76-2.21c-.51-.53-1.19-.79-2.05-.79-.69,0-1.25.17-1.69.5-.44.33-.74.79-.9,1.39l1.03.13c.15-.42.36-.72.61-.91M916.66,326.23c-.31.31-.7.46-1.16.46-.51,0-.92-.19-1.24-.57-.21-.25-.33-.62-.38-1.11h3.29c-.04.51-.21.91-.52,1.22"/>
    <path d="M909.73,322.37c.15,0,.26.03.34.07.08.05.14.11.17.19.03.08.05.26.05.54v3.41h-1v.77h1v2.04l.99-.59v-1.45h.73v-.77h-.73v-3.36c0-.6-.04-.99-.12-1.17-.08-.18-.22-.33-.42-.45-.2-.11-.48-.17-.85-.17-.22,0-.47.03-.75.09l.14.87c.18-.03.33-.04.44-.04M905.04,321.87c-.4-.32-.99-.47-1.75-.47-.46,0-.88.08-1.25.24-.36.16-.65.38-.84.67-.2.29-.29.6-.29.93s.08.62.24.85c.16.23.38.4.66.52.28.12.77.27,1.48.46.49.14.78.22.88.26.18.07.3.15.39.26.08.1.12.21.12.35,0,.2-.1.38-.29.53-.2.15-.53.22-.98.22-.39,0-.69-.08-.9-.25-.21-.17-.34-.4-.39-.7l-.98.13c.07.38.18.68.35.9.17.22.42.4.77.54.35.13.76.2,1.22.2.31,0,.59-.04.86-.12.27-.08.48-.18.64-.29.21-.15.37-.33.49-.55.12-.22.18-.46.18-.72,0-.29-.07-.55-.22-.78-.15-.24-.36-.42-.64-.56-.28-.13-.79-.29-1.52-.48-.54-.13-.88-.25-1.02-.34-.2-.13-.3-.31-.3-.53,0-.25.11-.47.33-.65.22-.19.57-.28,1.02-.28s.81.11,1.06.32c.25.21.41.51.46.9l.99-.15c-.11-.62-.36-1.09-.77-1.4"/>
    <path d="M898.31,321.53v2.31l-.71.67-1.95-2.99h-1.23l2.48,3.67-2.25,2.17h1.29l2.37-2.38v4.6h1v-8.06h-1ZM889.53,321.53h-1.04c.13.22.21.46.25.7.05.24.07.83.07,1.74v1.32c0,.44.02.74.05.91.06.27.16.5.31.67.15.18.38.33.69.44.31.12.72.18,1.23.18s.95-.07,1.33-.21c.39-.14.68-.34.88-.59.21-.25.35-.59.44-1l-.98-.13c-.11.41-.27.7-.5.87-.22.16-.57.24-1.04.24-.5,0-.88-.11-1.14-.33-.19-.17-.28-.45-.28-.85,0-.04,0-.12,0-.26.38-.13.98-.25,1.78-.35.39-.05.69-.09.89-.15.26-.07.51-.18.72-.33.22-.14.39-.33.52-.57.13-.23.2-.49.2-.78,0-.49-.17-.89-.52-1.2-.35-.31-.85-.47-1.49-.47-.39,0-.76.07-1.1.19-.34.13-.7.35-1.07.66-.03-.27-.1-.51-.2-.72M889.82,324.09c0-.44.05-.77.16-.99.14-.29.36-.52.66-.69.3-.17.65-.25,1.03-.25s.68.09.89.26c.2.18.3.39.3.66,0,.17-.05.33-.14.47-.09.14-.23.25-.4.32-.17.07-.46.14-.87.2-.72.1-1.27.23-1.63.37v-.36Z"/>
    <path d="M886.58,322.26c-.4-.57-.94-.86-1.64-.86s-1.3.27-1.8.82c-.5.55-.75,1.32-.75,2.32,0,.42.06.82.18,1.19.12.37.29.68.49.95.21.26.47.47.8.61.32.15.67.22,1.03.22.65,0,1.19-.26,1.61-.79v2.88h1v-8.06h-.93v.73ZM886.12,326.12c-.32.37-.69.56-1.13.56s-.8-.18-1.11-.54c-.3-.36-.46-.93-.46-1.69s.16-1.3.48-1.68c.32-.38.69-.56,1.13-.56.54,0,.96.25,1.28.76.19.31.29.82.29,1.52s-.16,1.25-.48,1.63"/>
    <path d="M575.78,322.56c-.45-.56-1.07-.83-1.85-.83-.6,0-1.09.16-1.48.48-.39.32-.68.76-.88,1.34-.2.58-.29,1.34-.29,2.29,0,.8.06,1.43.18,1.9.12.47.29.87.51,1.2.21.33.48.58.81.76.33.17.71.26,1.15.26.59,0,1.08-.15,1.47-.47.39-.31.68-.76.88-1.34.2-.58.29-1.35.29-2.3,0-1.51-.27-2.61-.8-3.28M575.04,328.56c-.27.38-.64.58-1.1.58s-.85-.22-1.17-.65-.47-1.32-.47-2.64.16-2.2.47-2.64.7-.66,1.16-.66.84.22,1.16.65c.31.44.47,1.32.47,2.64s-.17,2.23-.51,2.72M422.08,322.81c-.11.18-.25.36-.42.53-.17.18-.55.52-1.15,1.02-.72.6-1.23,1.07-1.54,1.42-.31.35-.53.67-.67.98-.13.31-.2.63-.2.95,0,.63.23,1.17.68,1.6.46.43,1.07.64,1.85.64s1.39-.2,1.85-.59.73-.98.79-1.74l-1.03-.11c0,.51-.15.9-.44,1.19-.29.29-.67.43-1.15.43-.46,0-.83-.13-1.11-.4-.28-.27-.43-.6-.43-.99s.16-.77.47-1.19c.31-.42.91-.99,1.8-1.71.57-.46,1-.87,1.31-1.22.3-.35.52-.71.66-1.07.09-.22.12-.45.12-.69h-5.38v.95h3.99Z"/>
    <path d="M415.99,321.86v3.03c0,.53-.05.94-.16,1.22-.11.28-.28.5-.52.64-.24.15-.5.22-.78.22-.37,0-.64-.11-.8-.33-.16-.22-.24-.55-.24-.99v-3.79h-1v3.39c0,.6-.14,1.04-.41,1.31-.28.27-.62.41-1.04.41-.23,0-.43-.06-.6-.16-.17-.11-.29-.25-.35-.42-.07-.17-.1-.46-.1-.86v-3.68h-1v4.01c0,.66.16,1.16.47,1.48.32.32.77.48,1.35.48.74,0,1.35-.34,1.82-1.02.11.32.31.57.59.75.28.18.64.27,1.07.27.39,0,.74-.08,1.05-.26.31-.17.55-.4.74-.69v.82h.9v-5.84h-1Z"/>
    <path d="M496.88,329.95h.64c.17-.35.47-.71.89-1.08.42-.37.9-.68,1.46-.94v-.95c-.31.11-.66.28-1.05.51s-.71.46-.95.68v-6.31h-1v8.09ZM492.95,321.86v3.03c0,.53-.05.94-.16,1.22-.11.28-.28.5-.52.64-.24.15-.5.22-.78.22-.37,0-.64-.11-.8-.33-.16-.22-.24-.55-.24-.99v-3.79h-1v3.39c0,.6-.14,1.04-.41,1.31-.27.27-.62.41-1.03.41-.23,0-.43-.06-.6-.16-.17-.11-.28-.25-.35-.42-.07-.17-.1-.46-.1-.86v-3.68h-.99v4.01c0,.66.16,1.16.47,1.48.32.32.76.48,1.35.48.75,0,1.35-.34,1.82-1.02.11.32.31.57.59.75.28.18.64.27,1.07.27.39,0,.74-.08,1.05-.26.31-.17.55-.4.74-.69v.82h.89v-5.84h-1Z"/>
    <path d="M671.7,321.86v6.86l-2.35-6.86h-.97l-2.36,6.74v-6.74h-1.04v8.06h1.45l1.95-5.61c.2-.57.34-1,.43-1.29.08.26.21.66.39,1.19l1.93,5.71h1.62v-8.06h-1.04ZM659.68,321.86h-1.04c.12.22.21.46.25.7.04.24.06.83.06,1.74v1.32c0,.44.02.75.05.91.06.27.16.49.31.67.15.18.38.33.69.44s.72.18,1.22.18.95-.07,1.34-.21c.38-.14.68-.33.88-.59.2-.25.35-.59.44-1l-.98-.13c-.11.41-.27.7-.49.87-.22.16-.57.24-1.04.24-.5,0-.88-.11-1.14-.34-.19-.16-.28-.45-.28-.85,0-.04,0-.12,0-.26.38-.13.97-.25,1.78-.34.4-.05.69-.1.89-.15.26-.07.5-.18.72-.33.21-.14.38-.33.51-.57.13-.23.2-.5.2-.78,0-.49-.18-.89-.52-1.2-.35-.32-.85-.47-1.49-.47-.39,0-.76.07-1.1.19-.34.13-.7.35-1.07.66-.03-.27-.1-.51-.2-.72M659.96,324.43c0-.44.05-.76.16-.99.14-.29.36-.52.66-.68.3-.17.64-.25,1.03-.25s.68.09.88.26c.2.18.3.4.3.66,0,.17-.05.33-.14.47-.09.14-.22.25-.39.32-.17.07-.46.14-.87.2-.73.1-1.27.22-1.63.37v-.36ZM662.05,328.49c-.2-.2-.43-.29-.71-.29s-.5.09-.7.29c-.2.19-.29.43-.29.71s.1.52.29.71c.2.2.43.3.7.3s.51-.1.7-.29.3-.43.3-.69c0-.29-.1-.54-.3-.73M661.75,329.63c-.12.11-.26.17-.41.17s-.3-.06-.42-.18c-.11-.12-.17-.26-.17-.42s.06-.31.17-.42c.12-.11.26-.18.42-.18s.3.06.41.18c.12.12.17.26.17.44,0,.16-.06.3-.17.41"/>
    <rect x="656.33" y="321.87" width="1" height="8.06"/>
    <path d="M648.09,329.96h.64c.17-.35.47-.71.89-1.08.42-.37.91-.68,1.46-.94v-.96c-.31.11-.66.28-1.05.51s-.7.46-.95.68v-6.31h-1v8.09ZM643.75,327.7h1.14v-1.13h-1.14v1.13ZM643.75,322.99h1.14v-1.13h-1.14v1.13Z"/>
    <path d="M641.6,322.34c-.47-.41-1.07-.62-1.81-.62-.9,0-1.61.33-2.14.98-.43.53-.64,1.16-.64,1.89s.24,1.39.73,1.88c.49.49,1.09.73,1.8.73.54,0,1.05-.17,1.54-.51l-.44,2.16h-3.25v.95h4.05l.79-4.14-.94-.12c-.15.23-.35.42-.61.57-.26.14-.55.21-.87.21-.52,0-.94-.16-1.26-.49-.32-.33-.48-.77-.48-1.33s.17-1.07.5-1.43c.33-.36.74-.54,1.22-.54.4,0,.74.13,1.03.38.28.25.46.63.54,1.14l1.05-.09c-.07-.68-.34-1.22-.8-1.63M635.18,322.56c-.45-.56-1.06-.84-1.85-.84-.6,0-1.09.16-1.48.48-.39.32-.68.76-.88,1.35-.2.58-.3,1.34-.3,2.29,0,.8.06,1.43.18,1.9.12.47.29.87.51,1.2.21.33.49.58.82.76.33.17.71.26,1.15.26.59,0,1.08-.16,1.47-.47.39-.31.68-.76.88-1.34.2-.58.3-1.35.3-2.3,0-1.51-.27-2.61-.8-3.27M634.45,328.56c-.27.38-.64.58-1.1.58s-.86-.22-1.17-.65c-.31-.43-.47-1.32-.47-2.64s.16-2.2.47-2.64c.31-.44.7-.66,1.16-.66s.85.22,1.16.66c.31.44.47,1.32.47,2.64s-.17,2.23-.52,2.72"/>
    <polygon class="st13" points="284.75 321.86 273.62 344.48 259.1 337.73 270.24 314.78 284.75 321.86"/>
    <polygon points="279.01 324.62 273.52 335.96 271.4 320.93 269.43 319.98 262.44 334.42 264.28 335.31 269.77 323.97 271.89 338.99 273.86 339.95 280.85 325.51 279.01 324.62"/>
    <path d="M342.88,322.35c-.47-.42-1.07-.64-1.78-.64-.79,0-1.45.25-1.96.74-.52.49-.77,1.09-.77,1.79,0,.52.13.95.4,1.3.27.35.64.58,1.12.69-.37.17-.65.39-.84.68-.19.29-.28.61-.28.95,0,.37.1.71.3,1.04.2.33.49.59.86.77.38.19.78.28,1.22.28.64,0,1.18-.18,1.62-.55.43-.36.71-.88.83-1.54l-1-.18c-.08.48-.24.85-.5,1.09-.26.24-.58.36-.97.36s-.71-.12-.96-.36c-.25-.24-.37-.54-.37-.9,0-.46.17-.8.51-1.02.34-.22.72-.33,1.15-.33.04,0,.09,0,.16,0l.11-.87c-.28.07-.51.11-.7.11-.46,0-.85-.15-1.15-.44-.3-.3-.45-.67-.45-1.13s.16-.88.48-1.2c.33-.32.72-.49,1.19-.49.39,0,.73.13,1.01.37.28.25.47.65.59,1.21l1-.13c-.07-.67-.33-1.22-.8-1.64M336.34,321.86v3.03c0,.53-.05.94-.16,1.22-.1.28-.28.5-.52.64-.24.15-.5.22-.78.22-.37,0-.64-.11-.8-.33-.16-.22-.24-.55-.24-.99v-3.79h-1v3.39c0,.6-.14,1.04-.41,1.31-.27.27-.62.41-1.03.41-.23,0-.43-.06-.6-.16-.17-.11-.28-.25-.35-.42-.07-.17-.1-.46-.1-.86v-3.68h-.99v4.01c0,.66.16,1.16.47,1.48.32.32.76.48,1.35.48.75,0,1.35-.34,1.82-1.02.11.32.31.57.59.75.28.18.64.27,1.08.27.39,0,.74-.08,1.05-.26.31-.17.55-.4.74-.69v.82h.89v-5.84h-1Z"/>
    <rect class="st13" x="910.19" y="1385.42" width="102.27" height="18.9"/>
    <path d="M1006.19,1400.87h.95c.26-.52.69-1.06,1.32-1.61s1.34-1.02,2.17-1.41v-1.43c-.46.17-.98.42-1.56.76-.58.34-1.04.68-1.4,1.02v-9.41h-1.48v12.08ZM999.79,1390.47h1.69v-1.68h-1.69v1.68ZM996.82,1390.49c-.42-.64-1-1.11-1.73-1.43-.74-.31-1.65-.48-2.75-.48-.86,0-1.63.16-2.32.47-.69.31-1.22.75-1.59,1.32-.36.56-.55,1.17-.55,1.81s.17,1.22.5,1.71c.34.5.85.91,1.56,1.23.48.22,1.37.47,2.67.77s2.1.58,2.41.86c.31.28.47.63.47,1.07,0,.5-.22.92-.66,1.27-.44.35-1.15.53-2.11.53s-1.63-.19-2.1-.58c-.47-.39-.75-.96-.83-1.72l-1.53.12c.03.71.22,1.34.59,1.89.37.56.89.98,1.58,1.27.68.29,1.47.43,2.37.43.81,0,1.55-.14,2.21-.41.66-.28,1.17-.68,1.51-1.2.35-.53.52-1.09.52-1.7,0-.55-.14-1.05-.43-1.5-.28-.45-.71-.82-1.29-1.12-.44-.23-1.22-.49-2.33-.75s-1.83-.46-2.15-.59c-.51-.19-.87-.43-1.09-.71-.22-.28-.33-.61-.33-.99s.12-.71.34-1.03c.23-.31.57-.56,1.04-.74.47-.18,1-.27,1.61-.27.69,0,1.3.12,1.85.36.55.24.95.55,1.21.94s.43.88.5,1.48l1.5-.13c-.02-.81-.24-1.53-.66-2.16M979.81,1388.79h-1.55c.18.34.31.68.38,1.04.06.36.09,1.23.09,2.6v1.97c0,.66.03,1.11.07,1.36.09.41.24.74.46,1.01.22.27.56.49,1.03.66.47.17,1.07.26,1.82.26s1.41-.1,1.98-.31c.57-.21,1-.5,1.31-.88.3-.38.52-.88.65-1.5l-1.45-.2c-.16.62-.4,1.05-.73,1.29-.33.24-.85.36-1.54.36-.75,0-1.31-.17-1.69-.5-.28-.24-.42-.67-.42-1.27,0-.05,0-.18.01-.38.56-.2,1.45-.37,2.64-.51.59-.07,1.03-.14,1.32-.22.39-.11.75-.27,1.07-.49.31-.21.57-.5.77-.85.2-.35.29-.74.29-1.17,0-.73-.26-1.33-.78-1.79-.51-.47-1.25-.7-2.21-.7-.58,0-1.13.09-1.63.28-.51.19-1.04.52-1.59.99-.04-.41-.14-.77-.29-1.08M980.23,1392.62c0-.65.08-1.15.24-1.48.21-.43.53-.77.98-1.02.44-.25.95-.37,1.52-.37s1.02.13,1.31.39c.3.26.45.59.45.98,0,.26-.07.49-.21.7-.14.21-.33.37-.59.48-.25.11-.68.21-1.29.3-1.08.15-1.88.34-2.42.56v-.54ZM974.9,1400.82h1.48v-12.03h-1.48v12.03ZM970.43,1397.5h1.69v-1.68h-1.69v1.68ZM970.43,1390.47h1.69v-1.68h-1.69v1.68ZM956.81,1400.07c.61.53,1.38.79,2.33.79,1.27,0,2.29-.46,3.04-1.38.86-1.05,1.29-2.74,1.29-5.07,0-2.08-.39-3.57-1.17-4.47-.78-.91-1.78-1.36-3.02-1.36-.73,0-1.37.17-1.94.52-.57.35-1.02.84-1.35,1.49-.33.65-.49,1.35-.49,2.11,0,1.15.35,2.08,1.04,2.81.69.73,1.54,1.09,2.52,1.09.56,0,1.11-.13,1.62-.4.52-.26.95-.66,1.31-1.21-.01,1.2-.15,2.13-.42,2.78-.27.65-.64,1.15-1.1,1.48-.36.26-.77.4-1.25.4-.59,0-1.08-.21-1.48-.63-.24-.26-.43-.68-.56-1.26l-1.47.11c.12.94.48,1.67,1.09,2.2M961.06,1394.57c-.47.48-1.03.72-1.7.72s-1.23-.24-1.68-.72c-.44-.48-.66-1.13-.66-1.96s.23-1.55.68-2.05c.45-.5.99-.76,1.61-.76.43,0,.84.12,1.23.36.39.24.69.6.91,1.06.22.46.33.95.33,1.46,0,.77-.23,1.41-.7,1.88M951.43,1390.47h1.68v-1.68h-1.68v1.68ZM944.05,1388.79c-.77,0-1.42.07-1.94.2-.53.13-.97.33-1.32.59-.35.26-.65.64-.89,1.12-.24.48-.36,1.01-.36,1.57,0,.7.2,1.31.59,1.82.39.52.95.88,1.68,1.09-.56.28-.99.64-1.26,1.1-.28.45-.42.94-.42,1.45,0,.56.16,1.08.47,1.59.31.5.75.88,1.31,1.13.56.24,1.29.36,2.22.36h4.52v-12.03h-4.6ZM947.05,1399.4h-2.41c-.87,0-1.48-.05-1.83-.17-.36-.11-.63-.32-.82-.62-.19-.3-.29-.66-.29-1.05,0-.42.1-.77.31-1.05.21-.28.51-.48.92-.6.3-.09.81-.14,1.52-.14h2.61v3.63ZM947.05,1394.35h-2.79c-.77,0-1.35-.07-1.77-.2-.41-.13-.73-.37-.96-.7-.23-.33-.35-.72-.35-1.17,0-.38.08-.72.24-1.01.16-.29.36-.52.61-.67.25-.15.56-.26.92-.33.21-.04.57-.06,1.08-.06h3.01v4.13ZM935.34,1390.47h1.68v-1.68h-1.68v1.68ZM927.51,1400.87h.96c.25-.52.69-1.06,1.32-1.61.62-.55,1.34-1.02,2.17-1.41v-1.43c-.46.17-.98.42-1.56.76-.58.34-1.05.68-1.4,1.02v-9.41h-1.48v12.08ZM921.12,1390.47h1.69v-1.68h-1.69v1.68ZM917,1390.21c-.17.27-.37.54-.62.8s-.82.77-1.71,1.51c-1.06.9-1.82,1.6-2.28,2.12s-.78,1-.98,1.47-.3.94-.3,1.42c0,.95.34,1.74,1.01,2.38.67.64,1.59.96,2.75.96s2.06-.3,2.74-.89c.68-.59,1.07-1.45,1.18-2.59l-1.52-.15c0,.75-.22,1.34-.65,1.77-.43.43-1,.64-1.71.64-.68,0-1.22-.2-1.64-.6-.42-.4-.63-.9-.63-1.48s.23-1.15.69-1.77c.46-.62,1.34-1.48,2.66-2.55.85-.69,1.49-1.3,1.94-1.82.45-.52.77-1.06.98-1.6.12-.33.18-.67.17-1.02h-7.97v1.42h5.92Z"/>
    <rect class="st13" x="910.19" y="1361.11" width="102.27" height="18.9"/>
    <path d="M1009.9,1365.91c-.17.27-.37.53-.62.8-.25.27-.82.77-1.71,1.51-1.06.9-1.82,1.61-2.28,2.12-.46.52-.79,1.01-.99,1.47-.2.47-.3.94-.3,1.42,0,.95.34,1.74,1.01,2.38s1.59.96,2.75.96,2.06-.3,2.74-.89c.68-.6,1.07-1.46,1.18-2.59l-1.52-.16c0,.76-.22,1.35-.65,1.77-.43.43-1,.64-1.71.64-.68,0-1.22-.2-1.64-.6-.42-.4-.63-.9-.63-1.48s.23-1.15.69-1.77c.46-.62,1.34-1.48,2.66-2.55.84-.69,1.49-1.3,1.93-1.82.45-.53.77-1.06.98-1.6.13-.33.18-.67.17-1.03h-7.98v1.42h5.92ZM999.79,1366.17h1.69v-1.68h-1.69v1.68ZM996.82,1366.19c-.42-.64-1-1.11-1.73-1.43s-1.65-.48-2.75-.48c-.86,0-1.63.16-2.32.47-.69.31-1.22.76-1.59,1.32-.36.56-.55,1.17-.55,1.81s.17,1.22.5,1.71c.34.5.85.91,1.56,1.23.48.22,1.37.47,2.67.77s2.1.58,2.41.86c.31.28.47.64.47,1.07,0,.5-.22.92-.66,1.28-.44.35-1.15.53-2.11.53s-1.63-.19-2.1-.58c-.47-.39-.75-.96-.83-1.72l-1.53.12c.03.7.22,1.34.59,1.89s.89.98,1.58,1.27c.68.28,1.47.43,2.37.43.81,0,1.55-.14,2.21-.41.66-.28,1.17-.68,1.51-1.2.35-.53.52-1.09.52-1.7,0-.55-.14-1.05-.43-1.5-.28-.45-.71-.82-1.29-1.12-.44-.23-1.22-.49-2.33-.75-1.11-.27-1.83-.46-2.15-.59-.51-.19-.87-.43-1.09-.71-.22-.28-.33-.61-.33-.99s.12-.71.34-1.03c.23-.32.57-.56,1.04-.74.47-.18,1-.27,1.61-.27.69,0,1.3.12,1.85.36.55.24.95.55,1.21.94.26.38.43.88.5,1.48l1.5-.13c-.02-.81-.24-1.53-.66-2.16M979.81,1364.49h-1.55c.18.34.31.68.38,1.05.06.36.09,1.23.09,2.61v1.97c0,.66.03,1.11.07,1.36.09.41.24.74.46,1.01.22.27.56.49,1.03.66.47.17,1.07.26,1.82.26s1.41-.1,1.98-.31c.57-.21,1-.5,1.31-.88.3-.38.52-.88.65-1.5l-1.45-.2c-.16.62-.4,1.05-.73,1.29-.33.24-.85.36-1.54.36-.75,0-1.31-.17-1.69-.5-.28-.24-.42-.67-.42-1.27,0-.05,0-.18.01-.38.56-.19,1.45-.37,2.64-.51.59-.07,1.03-.15,1.32-.22.39-.11.75-.27,1.07-.48.31-.22.57-.5.77-.85s.29-.74.29-1.17c0-.73-.26-1.33-.78-1.79-.51-.47-1.25-.7-2.21-.7-.58,0-1.13.1-1.63.29-.51.19-1.04.52-1.59.98-.04-.41-.14-.77-.29-1.08M980.23,1368.32c0-.65.08-1.14.24-1.48.21-.43.53-.77.98-1.02.44-.25.95-.37,1.52-.37s1.02.13,1.31.39c.3.26.45.59.45.98,0,.26-.07.49-.21.7-.14.21-.33.37-.59.48-.25.11-.68.21-1.29.3-1.08.15-1.88.34-2.42.56v-.54ZM974.9,1376.52h1.48v-12.03h-1.48v12.03ZM970.43,1373.2h1.69v-1.68h-1.69v1.68ZM970.43,1366.17h1.69v-1.68h-1.69v1.68ZM956.81,1375.77c.61.53,1.38.8,2.33.8,1.27,0,2.29-.46,3.04-1.38.86-1.06,1.29-2.74,1.29-5.07,0-2.08-.39-3.57-1.17-4.48-.78-.91-1.78-1.36-3.02-1.36-.73,0-1.37.17-1.94.52-.57.35-1.02.84-1.35,1.49-.33.65-.49,1.35-.49,2.11,0,1.15.35,2.08,1.04,2.81.69.72,1.54,1.09,2.52,1.09.56,0,1.11-.13,1.62-.39.52-.26.95-.66,1.31-1.21-.01,1.2-.15,2.13-.42,2.78-.27.65-.64,1.15-1.1,1.49-.36.26-.77.39-1.25.39-.59,0-1.08-.21-1.48-.63-.24-.26-.43-.68-.56-1.26l-1.47.11c.12.94.48,1.67,1.09,2.2M961.06,1370.27c-.47.48-1.03.72-1.7.72s-1.23-.24-1.68-.72c-.44-.48-.66-1.13-.66-1.96s.23-1.55.68-2.05c.45-.51.99-.76,1.61-.76.43,0,.84.12,1.23.37.39.24.69.6.91,1.06.22.47.33.95.33,1.46,0,.78-.23,1.41-.7,1.88M951.43,1366.17h1.68v-1.68h-1.68v1.68ZM944.05,1364.49c-.77,0-1.42.07-1.94.2-.53.13-.97.33-1.32.59-.35.26-.65.63-.89,1.12-.24.48-.36,1.01-.36,1.57,0,.7.2,1.31.59,1.82.39.52.95.88,1.68,1.09-.56.28-.99.64-1.26,1.1-.28.45-.42.94-.42,1.45,0,.56.16,1.08.47,1.59.31.5.75.88,1.31,1.12.56.24,1.29.36,2.22.36h4.52v-12.03h-4.6ZM947.05,1375.1h-2.41c-.87,0-1.48-.05-1.83-.17-.36-.11-.63-.32-.82-.62-.19-.31-.29-.66-.29-1.06,0-.42.1-.77.31-1.05.21-.28.51-.48.92-.6.3-.09.81-.14,1.52-.14h2.61v3.63ZM947.05,1370.04h-2.79c-.77,0-1.35-.07-1.77-.2-.41-.13-.73-.36-.96-.7-.23-.33-.35-.72-.35-1.17,0-.38.08-.72.24-1.01.16-.29.36-.52.61-.67.25-.15.56-.26.92-.33.21-.04.57-.06,1.08-.06h3.01v4.13ZM935.34,1366.17h1.68v-1.68h-1.68v1.68ZM931.22,1365.91c-.16.27-.37.53-.62.8-.25.27-.82.77-1.71,1.51-1.06.9-1.82,1.61-2.28,2.12-.46.52-.78,1.01-.98,1.47-.2.47-.3.94-.3,1.42,0,.95.34,1.74,1.01,2.38s1.59.96,2.75.96,2.06-.3,2.74-.89c.68-.6,1.08-1.46,1.18-2.59l-1.52-.16c0,.76-.22,1.35-.65,1.77-.43.43-1,.64-1.71.64-.67,0-1.22-.2-1.64-.6-.42-.4-.63-.9-.63-1.48s.23-1.15.69-1.77c.46-.62,1.35-1.48,2.66-2.55.85-.69,1.49-1.3,1.94-1.82.45-.53.78-1.06.98-1.6.13-.33.18-.67.17-1.03h-7.97v1.42h5.92ZM921.12,1366.17h1.69v-1.68h-1.69v1.68ZM917,1365.91c-.17.27-.37.53-.62.8s-.82.77-1.71,1.51c-1.06.9-1.82,1.61-2.28,2.12-.46.52-.78,1.01-.98,1.47-.2.47-.3.94-.3,1.42,0,.95.34,1.74,1.01,2.38.67.64,1.59.96,2.75.96s2.06-.3,2.74-.89c.68-.6,1.07-1.46,1.18-2.59l-1.52-.16c0,.76-.22,1.35-.65,1.77-.43.43-1,.64-1.71.64-.68,0-1.22-.2-1.64-.6-.42-.4-.63-.9-.63-1.48s.23-1.15.69-1.77c.46-.62,1.34-1.48,2.66-2.55.85-.69,1.49-1.3,1.94-1.82.45-.53.77-1.06.98-1.6.12-.33.18-.67.17-1.03h-7.97v1.42h5.92Z"/>
    <rect class="st13" x="910.19" y="1333.77" width="102.27" height="18.9"/>
    <path d="M1010.56,1337.88c-.7-.63-1.58-.94-2.64-.94-1.17,0-2.15.36-2.91,1.1-.77.73-1.15,1.62-1.15,2.67,0,.78.2,1.42.59,1.94.4.52.95.86,1.66,1.02-.55.25-.96.59-1.24,1.02-.28.42-.42.9-.42,1.42,0,.55.15,1.07.44,1.55.3.49.72.87,1.27,1.15.56.28,1.16.42,1.82.42.96,0,1.75-.27,2.4-.82.64-.54,1.05-1.31,1.24-2.3l-1.48-.26c-.11.72-.36,1.26-.74,1.62-.38.36-.86.54-1.44.54s-1.06-.18-1.42-.53c-.37-.36-.55-.81-.55-1.35,0-.68.25-1.19.76-1.52.51-.33,1.07-.49,1.7-.49.06,0,.14,0,.24.02l.16-1.29c-.42.11-.77.16-1.04.16-.69,0-1.25-.22-1.69-.66-.44-.44-.67-1-.67-1.68s.24-1.31.72-1.79c.48-.48,1.07-.72,1.76-.72.59,0,1.09.18,1.49.55.41.37.7.97.87,1.81l1.48-.19c-.1-1-.5-1.82-1.2-2.45M999.79,1338.83h1.69v-1.68h-1.69v1.68ZM996.82,1338.85c-.42-.64-1-1.11-1.73-1.43s-1.65-.48-2.75-.48c-.86,0-1.63.16-2.32.47-.69.31-1.22.76-1.59,1.32-.36.56-.55,1.17-.55,1.81s.17,1.22.5,1.71c.34.49.85.9,1.56,1.23.48.22,1.37.47,2.67.77,1.3.29,2.1.58,2.41.85.31.28.47.64.47,1.07,0,.5-.22.92-.66,1.28-.44.35-1.15.53-2.11.53s-1.63-.2-2.1-.58c-.47-.39-.75-.96-.83-1.72l-1.53.11c.03.7.22,1.34.59,1.9.37.56.89.98,1.58,1.27.68.28,1.47.43,2.37.43.81,0,1.55-.14,2.21-.41.66-.28,1.17-.68,1.51-1.2.35-.53.52-1.1.52-1.7,0-.55-.14-1.05-.43-1.5-.28-.45-.71-.82-1.29-1.12-.44-.24-1.22-.49-2.33-.75s-1.83-.46-2.15-.59c-.51-.19-.87-.43-1.09-.71-.22-.28-.33-.61-.33-.99s.12-.71.34-1.03c.23-.32.57-.56,1.04-.74.47-.18,1-.27,1.61-.27.69,0,1.3.12,1.85.36.55.24.95.55,1.21.94.26.38.43.88.5,1.48l1.5-.13c-.02-.8-.24-1.53-.66-2.16M979.81,1337.15h-1.55c.18.34.31.68.38,1.05.06.36.09,1.23.09,2.6v1.97c0,.66.03,1.11.07,1.36.09.41.24.74.46,1,.22.27.56.49,1.03.66.47.17,1.07.26,1.82.26s1.41-.1,1.98-.31c.57-.21,1-.5,1.31-.88.3-.38.52-.88.65-1.5l-1.45-.2c-.16.62-.4,1.05-.73,1.29-.33.24-.85.36-1.54.36-.75,0-1.31-.17-1.69-.5-.28-.24-.42-.67-.42-1.27,0-.05,0-.18.01-.38.56-.19,1.45-.37,2.64-.51.59-.07,1.03-.14,1.32-.22.39-.11.75-.27,1.07-.49.31-.21.57-.49.77-.85s.29-.74.29-1.17c0-.73-.26-1.32-.78-1.79-.51-.47-1.25-.7-2.21-.7-.58,0-1.13.1-1.63.29-.51.19-1.04.52-1.59.98-.04-.41-.14-.77-.29-1.08M980.23,1340.98c0-.65.08-1.14.24-1.48.21-.43.53-.77.98-1.02.44-.25.95-.38,1.52-.38s1.02.13,1.31.39c.3.26.45.59.45.98,0,.26-.07.49-.21.7-.14.21-.33.37-.59.48-.25.11-.68.21-1.29.3-1.08.15-1.88.34-2.42.56v-.54ZM974.9,1349.18h1.48v-12.03h-1.48v12.03ZM970.43,1345.86h1.69v-1.68h-1.69v1.68ZM970.43,1338.83h1.69v-1.68h-1.69v1.68ZM956.81,1348.43c.61.53,1.38.8,2.33.8,1.27,0,2.29-.46,3.04-1.38.86-1.06,1.29-2.75,1.29-5.07,0-2.08-.39-3.57-1.17-4.48-.78-.91-1.78-1.36-3.02-1.36-.73,0-1.37.17-1.94.52-.57.35-1.02.84-1.35,1.49-.33.65-.49,1.35-.49,2.11,0,1.15.35,2.08,1.04,2.81.69.72,1.54,1.09,2.52,1.09.56,0,1.11-.13,1.62-.4.52-.26.95-.66,1.31-1.2-.01,1.2-.15,2.13-.42,2.78-.27.65-.64,1.15-1.1,1.49-.36.26-.77.39-1.25.39-.59,0-1.08-.21-1.48-.63-.24-.26-.43-.68-.56-1.26l-1.47.12c.12.94.48,1.67,1.09,2.2M961.06,1342.93c-.47.48-1.03.72-1.7.72s-1.23-.24-1.68-.72c-.44-.48-.66-1.14-.66-1.96s.23-1.55.68-2.05c.45-.51.99-.76,1.61-.76.43,0,.84.12,1.23.37.39.24.69.6.91,1.06.22.47.33.95.33,1.46,0,.78-.23,1.41-.7,1.88M951.43,1338.83h1.68v-1.68h-1.68v1.68ZM944.05,1337.15c-.77,0-1.42.07-1.94.2-.53.13-.97.33-1.32.59-.35.26-.65.63-.89,1.12-.24.48-.36,1.01-.36,1.57,0,.7.2,1.31.59,1.82.39.52.95.88,1.68,1.09-.56.28-.99.65-1.26,1.1-.28.45-.42.94-.42,1.45,0,.56.16,1.08.47,1.59.31.5.75.88,1.31,1.12.56.24,1.29.37,2.22.37h4.52v-12.03h-4.6ZM947.05,1347.76h-2.41c-.87,0-1.48-.06-1.83-.17-.36-.11-.63-.32-.82-.62-.19-.3-.29-.66-.29-1.05,0-.42.1-.77.31-1.05.21-.28.51-.48.92-.6.3-.09.81-.14,1.52-.14h2.61v3.64ZM947.05,1342.7h-2.79c-.77,0-1.35-.07-1.77-.2-.41-.13-.73-.36-.96-.7-.23-.33-.35-.72-.35-1.17,0-.38.08-.72.24-1.01.16-.29.36-.52.61-.67.25-.15.56-.26.92-.33.21-.04.57-.06,1.08-.06h3.01v4.13ZM935.34,1338.83h1.68v-1.68h-1.68v1.68ZM931.88,1337.88c-.7-.63-1.58-.94-2.64-.94-1.17,0-2.15.36-2.91,1.1-.77.73-1.15,1.62-1.15,2.67,0,.78.2,1.42.59,1.94.39.52.95.86,1.66,1.02-.55.25-.96.59-1.24,1.02-.28.42-.42.9-.42,1.42,0,.55.15,1.07.44,1.55.29.49.72.87,1.27,1.15.56.28,1.16.42,1.82.42.95,0,1.75-.27,2.4-.82.64-.54,1.05-1.31,1.24-2.3l-1.48-.26c-.11.72-.36,1.26-.74,1.62-.38.36-.86.54-1.44.54s-1.05-.18-1.43-.53c-.36-.36-.55-.81-.55-1.35,0-.68.25-1.19.76-1.52.51-.33,1.07-.49,1.7-.49.06,0,.14,0,.24.02l.17-1.29c-.42.11-.77.16-1.05.16-.68,0-1.25-.22-1.69-.66-.44-.44-.66-1-.66-1.68s.24-1.31.72-1.79c.48-.48,1.07-.72,1.77-.72.59,0,1.08.18,1.49.55.41.37.7.97.87,1.81l1.48-.19c-.1-1-.5-1.82-1.2-2.45M921.12,1338.83h1.69v-1.68h-1.69v1.68ZM917,1338.57c-.17.27-.37.53-.62.8s-.82.77-1.71,1.51c-1.06.9-1.82,1.6-2.28,2.12-.46.51-.78,1.01-.98,1.47-.2.47-.3.94-.3,1.42,0,.95.34,1.74,1.01,2.38.67.64,1.59.96,2.75.96s2.06-.3,2.74-.89c.68-.59,1.07-1.46,1.18-2.59l-1.52-.16c0,.76-.22,1.35-.65,1.77-.43.43-1,.64-1.71.64-.68,0-1.22-.2-1.64-.6-.42-.4-.63-.9-.63-1.48s.23-1.15.69-1.77c.46-.62,1.34-1.48,2.66-2.55.85-.69,1.49-1.3,1.94-1.82.45-.52.77-1.06.98-1.6.12-.33.18-.67.17-1.03h-7.97v1.42h5.92Z"/>
    <rect class="st13" x="910.19" y="1308.12" width="102.27" height="18.9"/>
    <path d="M1005.54,1311.5v2.88h-1.63v1.35h1.63v7.8h1.21l5.51-7.8v-1.35h-5.23v-2.88h-1.48ZM1010.79,1315.73l-3.78,5.42v-5.42h3.78ZM999.79,1313.18h1.69v-1.68h-1.69v1.68ZM996.82,1313.2c-.42-.64-1-1.11-1.73-1.43-.74-.31-1.65-.48-2.75-.48-.86,0-1.63.16-2.32.47-.69.31-1.22.76-1.59,1.32-.36.57-.55,1.17-.55,1.81s.17,1.22.5,1.71c.34.49.85.9,1.56,1.23.48.22,1.37.47,2.67.76,1.3.29,2.1.58,2.41.86.31.28.47.64.47,1.07,0,.5-.22.92-.66,1.28-.44.35-1.15.53-2.11.53s-1.63-.19-2.1-.58c-.47-.39-.75-.96-.83-1.72l-1.53.12c.03.7.22,1.34.59,1.89.37.56.89.98,1.58,1.27.68.28,1.47.43,2.37.43.81,0,1.55-.14,2.21-.41.66-.28,1.17-.68,1.51-1.2.35-.53.52-1.1.52-1.7,0-.55-.14-1.05-.43-1.5-.28-.45-.71-.82-1.29-1.12-.44-.24-1.22-.49-2.33-.75s-1.83-.46-2.15-.59c-.51-.19-.87-.43-1.09-.71-.22-.28-.33-.61-.33-.99s.12-.71.34-1.03c.23-.31.57-.56,1.04-.74.47-.18,1-.27,1.61-.27.69,0,1.3.12,1.85.36.55.24.95.55,1.21.94.26.38.43.88.5,1.48l1.5-.13c-.02-.8-.24-1.53-.66-2.16M979.81,1311.5h-1.55c.18.34.31.68.38,1.04.06.37.09,1.23.09,2.6v1.97c0,.66.03,1.11.07,1.36.09.41.24.74.46,1,.22.27.56.49,1.03.66.47.17,1.07.26,1.82.26s1.41-.1,1.98-.31c.57-.21,1-.5,1.31-.88.3-.38.52-.88.65-1.5l-1.45-.2c-.16.62-.4,1.05-.73,1.29-.33.24-.85.36-1.54.36-.75,0-1.31-.17-1.69-.5-.28-.24-.42-.67-.42-1.27,0-.05,0-.18.01-.38.56-.2,1.45-.37,2.64-.51.59-.07,1.03-.14,1.32-.22.39-.11.75-.27,1.07-.49.31-.21.57-.49.77-.85.2-.35.29-.74.29-1.17,0-.73-.26-1.32-.78-1.79-.51-.47-1.25-.7-2.21-.7-.58,0-1.13.1-1.63.29-.51.19-1.04.52-1.59.98-.04-.41-.14-.77-.29-1.08M980.23,1315.33c0-.65.08-1.14.24-1.48.21-.43.53-.77.98-1.02.44-.25.95-.37,1.52-.37s1.02.13,1.31.39c.3.26.45.59.45.98,0,.26-.07.49-.21.7-.14.21-.33.37-.59.48-.25.11-.68.21-1.29.3-1.08.15-1.88.34-2.42.56v-.54ZM974.9,1323.52h1.48v-12.03h-1.48v12.03ZM970.43,1320.21h1.69v-1.68h-1.69v1.68ZM970.43,1313.18h1.69v-1.68h-1.69v1.68ZM956.81,1322.78c.61.53,1.38.8,2.33.8,1.27,0,2.29-.46,3.04-1.38.86-1.05,1.29-2.74,1.29-5.07,0-2.08-.39-3.57-1.17-4.48-.78-.9-1.78-1.36-3.02-1.36-.73,0-1.37.17-1.94.52-.57.35-1.02.84-1.35,1.49-.33.65-.49,1.35-.49,2.11,0,1.15.35,2.08,1.04,2.81.69.72,1.54,1.09,2.52,1.09.56,0,1.11-.13,1.62-.4.52-.26.95-.66,1.31-1.2-.01,1.2-.15,2.13-.42,2.78-.27.65-.64,1.15-1.1,1.49-.36.26-.77.39-1.25.39-.59,0-1.08-.21-1.48-.63-.24-.26-.43-.69-.56-1.26l-1.47.12c.12.94.48,1.67,1.09,2.2M961.06,1317.28c-.47.48-1.03.72-1.7.72s-1.23-.24-1.68-.72c-.44-.48-.66-1.14-.66-1.97s.23-1.55.68-2.05c.45-.51.99-.76,1.61-.76.43,0,.84.12,1.23.37.39.24.69.6.91,1.06.22.47.33.95.33,1.46,0,.78-.23,1.41-.7,1.88M951.43,1313.18h1.68v-1.68h-1.68v1.68ZM944.05,1311.5c-.77,0-1.42.07-1.94.2-.53.13-.97.33-1.32.59-.35.26-.65.63-.89,1.12-.24.48-.36,1.01-.36,1.57,0,.7.2,1.31.59,1.82.39.52.95.88,1.68,1.09-.56.28-.99.65-1.26,1.1-.28.45-.42.94-.42,1.45,0,.56.16,1.08.47,1.59.31.5.75.88,1.31,1.12.56.24,1.29.37,2.22.37h4.52v-12.03h-4.6ZM947.05,1322.1h-2.41c-.87,0-1.48-.06-1.83-.17-.36-.11-.63-.32-.82-.62-.19-.3-.29-.66-.29-1.05,0-.42.1-.77.31-1.05.21-.28.51-.48.92-.6.3-.09.81-.14,1.52-.14h2.61v3.64ZM947.05,1317.05h-2.79c-.77,0-1.35-.07-1.77-.2-.41-.13-.73-.36-.96-.7-.23-.33-.35-.72-.35-1.17,0-.39.08-.72.24-1.01.16-.29.36-.52.61-.67.25-.15.56-.26.92-.33.21-.04.57-.06,1.08-.06h3.01v4.13ZM935.34,1313.18h1.68v-1.68h-1.68v1.68ZM926.86,1311.5v2.88h-1.63v1.35h1.63v7.8h1.21l5.51-7.8v-1.35h-5.23v-2.88h-1.48ZM932.12,1315.73l-3.78,5.42v-5.42h3.78ZM921.12,1313.18h1.69v-1.68h-1.69v1.68ZM917,1312.92c-.17.27-.37.53-.62.8s-.82.77-1.71,1.51c-1.06.9-1.82,1.6-2.28,2.12-.46.51-.78,1-.98,1.47-.2.46-.3.94-.3,1.42,0,.95.34,1.74,1.01,2.38.67.64,1.59.96,2.75.96s2.06-.3,2.74-.89c.68-.59,1.07-1.46,1.18-2.59l-1.52-.16c0,.76-.22,1.35-.65,1.77-.43.43-1,.64-1.71.64-.68,0-1.22-.2-1.64-.61-.42-.4-.63-.89-.63-1.48s.23-1.15.69-1.78c.46-.62,1.34-1.47,2.66-2.54.85-.69,1.49-1.3,1.94-1.82.45-.52.77-1.06.98-1.6.12-.33.18-.67.17-1.03h-7.97v1.42h5.92Z"/>
    <rect class="st13" x="910.19" y="1285.17" width="102.27" height="18.9"/>
    <path d="M1010.58,1289.26c-.7-.61-1.59-.92-2.69-.92-1.34,0-2.4.49-3.17,1.46-.64.79-.95,1.74-.95,2.82,0,1.15.36,2.08,1.08,2.8.73.73,1.61,1.09,2.67,1.09.79,0,1.55-.25,2.28-.76l-.65,3.23h-4.81v1.41h6l1.17-6.18-1.39-.18c-.22.35-.52.62-.91.84-.38.21-.81.32-1.29.32-.77,0-1.39-.24-1.86-.73-.47-.49-.71-1.15-.71-1.99,0-.89.25-1.6.74-2.13.49-.54,1.1-.8,1.81-.8.59,0,1.1.19,1.52.57s.69.95.8,1.7l1.55-.13c-.1-1.01-.49-1.82-1.19-2.43M999.79,1290.23h1.69v-1.68h-1.69v1.68ZM996.82,1290.25c-.42-.63-1-1.11-1.73-1.43s-1.65-.48-2.75-.48c-.86,0-1.63.16-2.32.47-.69.31-1.22.76-1.59,1.32-.36.56-.55,1.17-.55,1.81s.17,1.22.5,1.71c.34.49.85.9,1.56,1.23.48.22,1.37.47,2.67.77,1.3.29,2.1.58,2.41.85.31.28.47.64.47,1.07,0,.5-.22.92-.66,1.28-.44.35-1.15.53-2.11.53s-1.63-.2-2.1-.58c-.47-.39-.75-.96-.83-1.72l-1.53.11c.03.7.22,1.34.59,1.9.37.56.89.98,1.58,1.27.68.28,1.47.43,2.37.43.81,0,1.55-.14,2.21-.41.66-.28,1.17-.68,1.51-1.2.35-.53.52-1.1.52-1.7,0-.55-.14-1.05-.43-1.5-.28-.45-.71-.82-1.29-1.12-.44-.24-1.22-.49-2.33-.75s-1.83-.46-2.15-.59c-.51-.19-.87-.43-1.09-.71-.22-.28-.33-.61-.33-.99s.12-.71.34-1.03c.23-.32.57-.56,1.04-.74.47-.18,1-.27,1.61-.27.69,0,1.3.12,1.85.36.55.24.95.55,1.21.94.26.38.43.88.5,1.48l1.5-.13c-.02-.8-.24-1.53-.66-2.16M979.81,1288.54h-1.55c.18.34.31.68.38,1.05.06.36.09,1.23.09,2.6v1.97c0,.66.03,1.11.07,1.36.09.41.24.74.46,1,.22.27.56.49,1.03.66.47.17,1.07.26,1.82.26s1.41-.1,1.98-.31c.57-.21,1-.5,1.31-.88.3-.38.52-.88.65-1.5l-1.45-.2c-.16.62-.4,1.05-.73,1.29-.33.24-.85.36-1.54.36-.75,0-1.31-.17-1.69-.5-.28-.24-.42-.67-.42-1.27,0-.05,0-.18.01-.38.56-.19,1.45-.37,2.64-.51.59-.07,1.03-.14,1.32-.22.39-.11.75-.27,1.07-.49.31-.21.57-.49.77-.85s.29-.74.29-1.17c0-.73-.26-1.33-.78-1.79-.51-.47-1.25-.7-2.21-.7-.58,0-1.13.1-1.63.29-.51.19-1.04.52-1.59.98-.04-.41-.14-.77-.29-1.08M980.23,1292.38c0-.65.08-1.14.24-1.48.21-.43.53-.77.98-1.02.44-.25.95-.38,1.52-.38s1.02.13,1.31.39c.3.26.45.59.45.98,0,.26-.07.49-.21.7-.14.21-.33.37-.59.48-.25.11-.68.21-1.29.3-1.08.15-1.88.34-2.42.56v-.54ZM974.9,1300.57h1.48v-12.03h-1.48v12.03ZM970.43,1297.26h1.69v-1.68h-1.69v1.68ZM970.43,1290.23h1.69v-1.68h-1.69v1.68ZM956.81,1299.83c.61.53,1.38.8,2.33.8,1.27,0,2.29-.46,3.04-1.38.86-1.06,1.29-2.75,1.29-5.07,0-2.08-.39-3.57-1.17-4.48-.78-.91-1.78-1.36-3.02-1.36-.73,0-1.37.17-1.94.52-.57.35-1.02.84-1.35,1.49-.33.65-.49,1.35-.49,2.11,0,1.15.35,2.08,1.04,2.81.69.72,1.54,1.08,2.52,1.08.56,0,1.11-.13,1.62-.4.52-.26.95-.66,1.31-1.2-.01,1.2-.15,2.13-.42,2.78-.27.65-.64,1.15-1.1,1.49-.36.26-.77.39-1.25.39-.59,0-1.08-.21-1.48-.63-.24-.26-.43-.68-.56-1.26l-1.47.12c.12.94.48,1.67,1.09,2.2M961.06,1294.32c-.47.48-1.03.72-1.7.72s-1.23-.24-1.68-.72c-.44-.48-.66-1.14-.66-1.96s.23-1.55.68-2.05c.45-.51.99-.76,1.61-.76.43,0,.84.12,1.23.37.39.24.69.6.91,1.06.22.47.33.95.33,1.46,0,.78-.23,1.41-.7,1.88M951.43,1290.23h1.68v-1.68h-1.68v1.68ZM944.05,1288.54c-.77,0-1.42.07-1.94.2-.53.13-.97.33-1.32.59-.35.26-.65.63-.89,1.12-.24.48-.36,1.01-.36,1.57,0,.7.2,1.31.59,1.82.39.52.95.88,1.68,1.09-.56.28-.99.65-1.26,1.1-.28.45-.42.94-.42,1.45,0,.56.16,1.08.47,1.59.31.5.75.88,1.31,1.12.56.24,1.29.37,2.22.37h4.52v-12.03h-4.6ZM947.05,1299.15h-2.41c-.87,0-1.48-.06-1.83-.17-.36-.11-.63-.32-.82-.62-.19-.3-.29-.65-.29-1.05,0-.42.1-.77.31-1.05.21-.28.51-.48.92-.6.3-.09.81-.14,1.52-.14h2.61v3.64ZM947.05,1294.1h-2.79c-.77,0-1.35-.07-1.77-.2-.41-.13-.73-.36-.96-.7-.23-.33-.35-.72-.35-1.17,0-.38.08-.72.24-1.01.16-.29.36-.52.61-.67.25-.15.56-.26.92-.33.21-.04.57-.06,1.08-.06h3.01v4.13ZM935.34,1290.23h1.68v-1.68h-1.68v1.68ZM931.9,1289.26c-.7-.61-1.59-.92-2.69-.92-1.34,0-2.4.49-3.17,1.46-.64.79-.95,1.74-.95,2.82,0,1.15.36,2.08,1.08,2.8.73.73,1.61,1.09,2.67,1.09.79,0,1.55-.25,2.28-.76l-.65,3.23h-4.82v1.41h6l1.17-6.18-1.39-.18c-.22.35-.52.62-.91.84-.38.21-.81.32-1.29.32-.77,0-1.39-.24-1.86-.73-.47-.49-.71-1.15-.71-1.99,0-.89.25-1.6.74-2.13.49-.54,1.1-.8,1.81-.8.59,0,1.1.19,1.52.57.42.38.69.95.8,1.7l1.56-.13c-.1-1.01-.49-1.82-1.19-2.43M921.12,1290.23h1.69v-1.68h-1.69v1.68ZM917,1289.96c-.17.27-.37.53-.62.8s-.82.77-1.71,1.51c-1.06.9-1.82,1.6-2.28,2.12-.46.51-.78,1.01-.98,1.47-.2.47-.3.94-.3,1.42,0,.95.34,1.74,1.01,2.38.67.64,1.59.96,2.75.96s2.06-.3,2.74-.89c.68-.59,1.07-1.46,1.18-2.59l-1.52-.16c0,.76-.22,1.35-.65,1.77-.43.43-1,.64-1.71.64-.68,0-1.22-.2-1.64-.6-.42-.4-.63-.9-.63-1.48s.23-1.15.69-1.77c.46-.62,1.34-1.48,2.66-2.55.85-.69,1.49-1.3,1.94-1.82.45-.52.77-1.06.98-1.6.12-.33.18-.67.17-1.03h-7.97v1.42h5.92Z"/>
    <line class="st3" x1="604.06" y1="1204.84" x2="540.26" y2="1085.35"/>
    <line class="st3" x1="424.49" y1="928.74" x2="400.53" y2="809.26"/>
  </g>
  <path class="st3" d="M444.41,849.08v63.79M448.46,1204.84v-1.35M448.46,1201.13v-2.36M448.46,1196.4v-2.36M448.46,1191.68v-2.36M448.46,1186.95v-2.36M448.46,1182.22v-2.36M448.46,1177.5v-2.7M448.46,1172.44v-2.36M448.46,1167.71v-2.36M448.46,1162.99v-2.36M448.46,1158.26v-1.35M448.46,1156.91h3.37M454.19,1156.91h2.36M458.92,1156.91h2.36M463.64,1156.91h2.36M468.37,1156.91h2.36M473.1,1156.91h2.36M477.82,1156.91h2.7M482.88,1156.91h2.36M487.61,1156.91h2.36M492.33,1156.91h2.36M497.06,1156.91h2.36M501.79,1156.91h2.36M506.51,1156.91h2.7M511.57,1156.91h2.36M516.3,1156.91h2.36M521.02,1156.91h2.36M525.75,1156.91h3.38M529.13,1204.84h-3.38M523.39,1204.84h-2.36M518.66,1204.84h-2.36M513.94,1204.84h-2.36M509.21,1204.84h-2.7M504.15,1204.84h-2.36M499.42,1204.84h-2.36M494.7,1204.84h-2.36M489.97,1204.84h-2.36M485.25,1204.84h-2.36M480.52,1204.84h-2.7M475.46,1204.84h-2.36M470.73,1204.84h-2.36M466.01,1204.84h-2.36M461.28,1204.84h-2.36M456.56,1204.84h-2.36M451.83,1204.84h-3.37"/>
  <polygon class="st13" points="773.83 837.27 769.44 843.01 768.77 843.34 768.09 843.34 767.08 841.99 767.08 840.64 767.76 838.96 768.77 837.27 768.77 836.93 768.77 836.59 768.77 836.26 768.77 835.58 768.43 835.58 768.09 835.24 764.38 842.67 763.37 850.77 764.38 858.87 768.09 866.3 768.43 866.3 768.77 865.96 768.77 865.62 768.77 864.95 768.77 864.61 768.77 864.27 767.76 862.58 767.08 860.89 767.08 859.54 768.09 858.53 768.77 858.53 769.44 858.87 773.83 864.27 780.25 867.98 780.25 833.55 773.83 837.27"/>
  <polygon class="st13" points="780.25 802.84 780.25 833.56 780.25 867.98 780.25 898.7 820.07 898.7 820.07 802.84 780.25 802.84"/>
  <line class="st3" x1="768.77" y1="864.27" x2="768.77" y2="864.61"/>
  <line class="st3" x1="768.77" y1="864.61" x2="768.77" y2="864.94"/>
  <line class="st3" x1="768.77" y1="865.96" x2="768.77" y2="865.62"/>
  <line class="st3" x1="768.77" y1="865.62" x2="768.77" y2="864.95"/>
  <line class="st3" x1="768.09" y1="866.3" x2="768.43" y2="866.3"/>
  <line class="st3" x1="768.43" y1="866.3" x2="768.77" y2="865.96"/>
  <line class="st3" x1="768.09" y1="858.53" x2="767.08" y2="859.54"/>
  <line class="st3" x1="767.08" y1="859.54" x2="767.08" y2="860.89"/>
  <line class="st3" x1="767.08" y1="860.89" x2="767.76" y2="862.58"/>
  <line class="st3" x1="767.76" y1="862.58" x2="768.77" y2="864.27"/>
  <line class="st3" x1="769.44" y1="858.87" x2="768.77" y2="858.53"/>
  <line class="st3" x1="768.77" y1="858.53" x2="768.09" y2="858.53"/>
  <line class="st3" x1="769.44" y1="858.87" x2="773.83" y2="864.27"/>
  <line class="st3" x1="773.83" y1="864.27" x2="780.24" y2="867.98"/>
  <line class="st3" x1="768.77" y1="837.27" x2="768.77" y2="836.93"/>
  <line class="st3" x1="768.77" y1="836.93" x2="768.77" y2="836.59"/>
  <line class="st3" x1="768.77" y1="835.58" x2="768.77" y2="836.25"/>
  <line class="st3" x1="768.77" y1="836.26" x2="768.77" y2="836.59"/>
  <line class="st3" x1="768.09" y1="835.24" x2="768.43" y2="835.58"/>
  <line class="st3" x1="768.43" y1="835.58" x2="768.77" y2="835.58"/>
  <line class="st3" x1="768.09" y1="843.34" x2="767.08" y2="841.99"/>
  <line class="st3" x1="767.08" y1="841.99" x2="767.08" y2="840.64"/>
  <line class="st3" x1="767.08" y1="840.64" x2="767.76" y2="838.96"/>
  <line class="st3" x1="767.76" y1="838.96" x2="768.77" y2="837.27"/>
  <line class="st3" x1="769.44" y1="843.01" x2="768.77" y2="843.34"/>
  <line class="st3" x1="768.77" y1="843.34" x2="768.09" y2="843.34"/>
  <line class="st3" x1="769.44" y1="843.01" x2="773.83" y2="837.27"/>
  <line class="st3" x1="773.83" y1="837.27" x2="780.24" y2="833.56"/>
  <line class="st3" x1="768.09" y1="866.3" x2="764.38" y2="858.87"/>
  <line class="st3" x1="764.38" y1="858.87" x2="763.37" y2="850.77"/>
  <line class="st3" x1="763.37" y1="850.77" x2="764.38" y2="842.67"/>
  <line class="st3" x1="764.38" y1="842.67" x2="768.09" y2="835.24"/>
  <line class="st3" x1="780.25" y1="898.7" x2="820.07" y2="898.7"/>
  <line class="st3" x1="820.07" y1="898.7" x2="820.07" y2="802.84"/>
  <line class="st3" x1="820.07" y1="802.84" x2="780.25" y2="802.84"/>
  <polyline class="st3" points="780.25 802.84 780.25 833.56 780.25 867.98 780.25 898.7"/>
  <polygon class="st13" points="746.29 774.05 818.87 774.05 818.87 773.64 747.21 773.64 747.21 635.68 746.29 635.23 746.29 774.05"/>
  <g class="st4">
    <path class="st13" d="M818.87,671.14v102.5h-71.66v-137.96l24.55,12.14c1.06.52,2.08,1.02,3.06,1.52l2.85,1.41,6.29,3.11c.37.19.75.36,1.11.55l2.1,1.04c.68.33,1.31.64,1.93.95l3.37,1.67,1.46.72c.23.11.46.22.68.34l1.25.62c.58.29,1.13.55,1.63.81l.93.46,1.19.59c.48.24.88.44,1.24.61l.46.23c.39.19.68.33.9.45l.22.1c.31.15.43.21.48.23l.04.02,15.92,7.88Z"/>
    <path class="st13" d="M818.87,614.4v56.74l-15.92-7.89v-28.25c0-1.81-1.47-3.28-3.29-3.28h-33.24c-1.82,0-3.28,1.47-3.28,3.28v8.56c3.11,1.54,5.97,2.96,8.62,4.27l-24.55-12.15v-21.28h71.66Z"/>
    <path class="st13" d="M802.94,635v28.26l-.04-.02s-.17-.08-.48-.24c-.07-.04-.14-.07-.22-.1-.22-.12-.51-.26-.9-.45-.14-.07-.29-.15-.46-.23-.36-.17-.76-.37-1.24-.61-.35-.18-.75-.37-1.19-.59-.29-.15-.61-.3-.93-.46-.5-.25-1.05-.51-1.63-.8-.39-.2-.81-.41-1.25-.62-.21-.11-.44-.22-.68-.34-.46-.23-.94-.47-1.46-.72-1.02-.5-2.15-1.06-3.37-1.66-.62-.31-1.25-.63-1.93-.95-.67-.34-1.37-.69-2.1-1.04-.37-.19-.74-.36-1.12-.55-1.9-.95-3.99-1.97-6.29-3.11-.92-.46-1.86-.93-2.85-1.42-.99-.49-2-1-3.06-1.52-2.65-1.31-5.52-2.73-8.62-4.27v-8.56c0-1.81,1.47-3.28,3.29-3.28h33.24c1.82,0,3.29,1.47,3.29,3.28"/>
    <path class="st13" d="M802.94,663.25l-.04-.02.04.02Z"/>
    <path class="st13" d="M802.43,663l-.22-.1c.08.03.16.06.22.1"/>
    <path class="st13" d="M801.3,662.45l-.46-.23c.17.08.32.16.46.23"/>
    <path class="st13" d="M799.61,661.61l-1.19-.59c.44.21.83.41,1.19.59"/>
    <path class="st13" d="M798.42,661.02l-.93-.46c.32.16.64.31.93.46"/>
    <path class="st13" d="M795.86,659.75l-1.25-.62c.44.21.86.42,1.25.62"/>
    <path class="st13" d="M793.94,658.8l-1.46-.72c.51.25,1,.49,1.46.72"/>
    <path class="st13" d="M792.47,658.08l-3.37-1.67c1.23.61,2.35,1.16,3.37,1.67"/>
    <path class="st13" d="M787.18,655.46l-2.1-1.04c.73.36,1.42.7,2.1,1.04"/>
    <path class="st13" d="M783.96,653.86l-6.29-3.11c2.3,1.13,4.39,2.16,6.29,3.11"/>
    <path class="st13" d="M777.67,650.76l-2.85-1.42c.99.49,1.94.96,2.85,1.42"/>
  </g>
  <polyline class="st1" points="747.21 635.68 747.21 614.4 818.87 614.4 818.87 671.14"/>
  <polyline class="st1" points="771.75 647.83 747.21 635.68 746.29 635.23 746.29 774.05 818.87 774.05 818.87 773.64 818.87 671.14 802.94 663.26 802.9 663.24"/>
  <polyline class="st1" points="783.96 653.86 777.67 650.76 774.82 649.34"/>
  <line class="st1" x1="787.18" y1="655.46" x2="785.08" y2="654.42"/>
  <polyline class="st1" points="793.94 658.8 792.48 658.08 789.1 656.41"/>
  <line class="st1" x1="795.86" y1="659.75" x2="794.61" y2="659.14"/>
  <polyline class="st1" points="799.61 661.61 798.42 661.02 797.49 660.56"/>
  <line class="st1" x1="801.3" y1="662.45" x2="800.85" y2="662.22"/>
  <line class="st1" x1="802.43" y1="663" x2="802.2" y2="662.9"/>
  <line class="st1" x1="766.42" y1="631.72" x2="799.66" y2="631.72"/>
  <g class="st7">
    <path class="st1" d="M799.66,631.72c1.82,0,3.29,1.47,3.29,3.28"/>
    <path class="st1" d="M763.13,635c0-1.81,1.47-3.28,3.29-3.28"/>
    <path class="st1" d="M763.13,635v8.56c3.11,1.53,5.98,2.96,8.62,4.27,1.06.51,2.08,1.02,3.06,1.52.99.49,1.94.95,2.86,1.42,2.3,1.13,4.39,2.16,6.29,3.11.38.19.75.36,1.12.55.73.35,1.42.7,2.09,1.04.68.32,1.31.64,1.93.95,1.22.61,2.35,1.16,3.37,1.66.51.26,1,.49,1.46.72.23.11.46.22.67.34.44.21.86.42,1.26.62.58.29,1.12.55,1.63.8.32.16.64.31.92.46.44.21.83.41,1.19.59.48.23.88.44,1.24.61.17.08.32.16.46.23.38.19.67.33.9.45.08.03.16.07.22.1.31.15.43.21.48.24l.04.02v-28.26"/>
  </g>
  <g class="st5">
    <path class="st13" d="M631.02,1105.15c7.7,0,15.41,0,23.11,0,8.9,0,16.09,6.4,16.08,14.3,0,7.9-7.2,14.29-16.1,14.28-7.7,0-15.4,0-23.11-.02,0-9.53.01-19.05.02-28.58"/>
  </g>
  <g class="st6">
    <path class="st3" d="M631.02,1105.15c7.7,0,15.41,0,23.11,0,8.9,0,16.09,6.4,16.08,14.3,0,7.9-7.2,14.29-16.1,14.28-7.7,0-15.4,0-23.11-.02,0-9.53.01-19.05.02-28.58Z"/>
  </g>
  <rect class="st13" x="631.06" y="1008.06" width="69.65" height="70.4"/>
  <polyline class="st3" points="631.06 1008.06 700.71 1008.06 700.71 1016.4"/>
  <line class="st3" x1="631.06" y1="1008.06" x2="631.06" y2="1077.91"/>
  <line class="st3" x1="632.21" y1="1078.46" x2="700.1" y2="1078.46"/>
  <polyline class="st3" points="632.21 1078.46 631.06 1078.46 631.06 1077.91"/>
  <polyline class="st3" points="700.71 1077.42 700.71 1078.46 700.1 1078.46"/>
  <line class="st3" x1="700.71" y1="1077.42" x2="700.71" y2="1016.4"/>
  <line class="st3" x1="631.06" y1="1042.98" x2="650.41" y2="1042.98"/>
  <g class="st12">
    <path class="st3" d="M650.31,1038.75c-2.39,0-4.33,1.94-4.33,4.33s1.94,4.33,4.33,4.33,4.33-1.94,4.33-4.33-1.94-4.33-4.33-4.33Z"/>
    <path class="st3" d="M650.31,1038.75c-2.39,0-4.33,1.94-4.33,4.33s1.94,4.33,4.33,4.33,4.33-1.94,4.33-4.33-1.94-4.33-4.33-4.33Z"/>
  </g>
  <g class="st9">
    <path class="st13" d="M755.64,1156.29v40.45h-56.78v-40.45c0-.9.54-1.62,1.21-1.62h54.62c.53,0,.95.72.95,1.62M754.69,1181.61v-23.7c0-.9-.54-1.62-1.21-1.62h-52.21c-.66,0-1.2.72-1.2,1.62v23.7c0,.91.54,1.64,1.2,1.64h52.21c.67,0,1.21-.73,1.21-1.64M730.6,1190.46c0-1.77-1.45-3.21-3.23-3.21s-3.22,1.45-3.22,3.21,1.45,3.23,3.22,3.23,3.23-1.45,3.23-3.23"/>
    <path class="st13" d="M754.68,1157.91v23.7c0,.91-.54,1.64-1.21,1.64h-52.2c-.66,0-1.2-.73-1.2-1.64v-23.7c0-.91.54-1.62,1.2-1.62h52.2c.67,0,1.21.71,1.21,1.62M731.67,1169.34c0-2.37-1.93-4.28-4.3-4.28s-4.28,1.91-4.28,4.28,1.91,4.3,4.28,4.3,4.3-1.93,4.3-4.3"/>
    <path class="st13" d="M727.37,1165.06c2.37,0,4.3,1.91,4.3,4.28s-1.93,4.3-4.3,4.3-4.28-1.93-4.28-4.3,1.91-4.28,4.28-4.28M729.68,1169.34c0-1.27-1.04-2.31-2.31-2.31s-2.31,1.04-2.31,2.31,1.04,2.31,2.31,2.31,2.31-1.04,2.31-2.31"/>
    <path class="st13" d="M727.37,1187.24c1.78,0,3.23,1.45,3.23,3.21s-1.45,3.23-3.23,3.23-3.22-1.45-3.22-3.23,1.45-3.21,3.22-3.21"/>
    <path class="st13" d="M727.37,1167.03c1.27,0,2.31,1.04,2.31,2.31s-1.04,2.31-2.31,2.31-2.31-1.04-2.31-2.31,1.04-2.31,2.31-2.31"/>
  </g>
  <g class="st8">
    <path class="st3" d="M724.16,1190.46c0-1.77,1.45-3.21,3.22-3.21s3.23,1.45,3.23,3.21-1.45,3.23-3.23,3.23-3.22-1.45-3.22-3.23Z"/>
    <path class="st3" d="M723.09,1169.34c0-2.37,1.91-4.28,4.28-4.28s4.3,1.91,4.3,4.28-1.93,4.3-4.3,4.3-4.28-1.93-4.28-4.3Z"/>
    <path class="st3" d="M725.06,1169.34c0-1.27,1.04-2.31,2.31-2.31s2.31,1.04,2.31,2.31-1.04,2.31-2.31,2.31-2.31-1.04-2.31-2.31Z"/>
    <path class="st3" d="M754.69,1181.61v-23.7c0-.91-.54-1.62-1.21-1.62h-52.2c-.66,0-1.2.71-1.2,1.62v23.7c0,.91.54,1.64,1.2,1.64h52.2c.67,0,1.21-.73,1.21-1.64Z"/>
  </g>
  <line class="st3" x1="698.86" y1="1184.23" x2="698.86" y2="1196.74"/>
  <g class="st11">
    <path class="st3" d="M755.64,1196.74v-40.46c0-.9-.42-1.62-.95-1.62h-54.61c-.67,0-1.22.71-1.22,1.62v12.82"/>
  </g>
  <line class="st3" x1="698.86" y1="1184.23" x2="698.86" y2="1169.1"/>
  <line class="st3" x1="698.86" y1="1196.74" x2="755.64" y2="1196.74"/>
  <polygon class="st13" points="468.15 832.21 460.05 833.56 452.62 837.27 452.62 837.61 452.96 837.61 453.63 837.61 453.97 837.61 454.31 837.61 454.65 837.61 456.33 836.6 458.02 835.92 459.37 836.26 460.38 837.27 460.38 837.95 460.05 838.28 454.65 843.01 450.93 849.08 485.36 849.08 481.65 843.01 476.25 838.28 475.57 837.95 475.91 837.27 476.92 836.26 478.27 835.92 479.96 836.6 481.65 837.61 481.99 837.61 482.32 837.61 482.66 837.61 483.34 837.61 483.67 837.27 476.25 833.56 468.15 832.21"/>
  <polygon class="st13" points="516.08 832.21 507.64 833.56 500.55 837.27 500.55 837.61 500.89 837.61 501.23 837.61 501.9 837.61 502.24 837.61 502.58 837.61 504.26 836.6 505.95 835.92 507.3 836.26 508.31 837.27 508.31 837.95 507.98 838.28 502.24 843.01 498.86 849.08 533.29 849.08 529.58 843.01 523.84 838.28 523.5 837.95 523.5 837.27 524.52 836.26 526.2 835.92 527.89 836.6 529.24 837.61 529.58 837.61 530.25 837.61 530.59 837.61 530.93 837.61 531.27 837.61 531.6 837.27 524.18 833.56 516.08 832.21"/>
  <polygon class="st13" points="533.29 849.08 498.86 849.08 485.36 849.08 450.93 849.08 444.18 849.08 444.18 912.88 450.93 912.88 485.36 912.88 498.86 912.88 533.29 912.88 539.7 912.88 539.7 849.08 533.29 849.08"/>
  <polygon class="st13" points="450.93 912.88 454.65 918.95 460.05 923.68 460.38 924.01 460.38 924.69 459.37 925.7 458.02 926.04 456.33 925.36 454.65 924.35 454.31 924.35 453.97 924.35 453.63 924.35 452.96 924.35 452.62 924.35 452.62 924.69 460.05 928.4 468.15 929.75 476.25 928.4 483.67 924.69 483.34 924.35 482.66 924.35 482.32 924.35 481.99 924.35 481.65 924.35 479.96 925.36 478.27 926.04 476.92 925.7 475.91 924.69 475.57 924.01 476.25 923.68 481.65 918.95 485.36 912.88 450.93 912.88"/>
  <polygon class="st13" points="498.86 912.88 502.24 918.95 507.98 923.68 508.31 924.01 508.31 924.69 507.3 925.7 505.95 926.04 504.26 925.36 502.58 924.35 502.24 924.35 501.9 924.35 501.23 924.35 500.89 924.35 500.55 924.35 500.55 924.69 507.64 928.4 516.08 929.75 524.18 928.4 531.6 924.69 531.27 924.35 530.93 924.35 530.59 924.35 530.25 924.35 529.58 924.35 529.24 924.35 527.89 925.36 526.2 926.04 524.51 925.7 523.5 924.69 523.5 924.01 523.84 923.68 529.58 918.95 533.29 912.88 498.86 912.88"/>
  <line class="st3" x1="454.65" y1="924.35" x2="454.31" y2="924.35"/>
  <line class="st3" x1="454.31" y1="924.35" x2="453.97" y2="924.35"/>
  <line class="st3" x1="452.96" y1="924.35" x2="453.63" y2="924.35"/>
  <line class="st3" x1="453.63" y1="924.35" x2="453.97" y2="924.35"/>
  <line class="st3" x1="452.62" y1="924.69" x2="452.62" y2="924.35"/>
  <line class="st3" x1="452.62" y1="924.35" x2="452.96" y2="924.35"/>
  <line class="st3" x1="460.38" y1="924.69" x2="459.37" y2="925.7"/>
  <line class="st3" x1="459.37" y1="925.7" x2="458.02" y2="926.04"/>
  <line class="st3" x1="458.02" y1="926.04" x2="456.33" y2="925.37"/>
  <line class="st3" x1="456.33" y1="925.37" x2="454.65" y2="924.35"/>
  <line class="st3" x1="460.05" y1="923.68" x2="460.38" y2="924.02"/>
  <line class="st3" x1="460.38" y1="924.02" x2="460.38" y2="924.69"/>
  <line class="st3" x1="460.05" y1="923.68" x2="454.65" y2="918.95"/>
  <line class="st3" x1="454.65" y1="918.95" x2="450.93" y2="912.88"/>
  <line class="st3" x1="481.65" y1="924.35" x2="481.99" y2="924.35"/>
  <line class="st3" x1="481.99" y1="924.35" x2="482.32" y2="924.35"/>
  <line class="st3" x1="483.34" y1="924.35" x2="482.66" y2="924.35"/>
  <line class="st3" x1="482.66" y1="924.35" x2="482.32" y2="924.35"/>
  <line class="st3" x1="483.67" y1="924.69" x2="483.34" y2="924.35"/>
  <line class="st3" x1="475.91" y1="924.69" x2="476.92" y2="925.7"/>
  <line class="st3" x1="476.92" y1="925.7" x2="478.27" y2="926.04"/>
  <line class="st3" x1="478.27" y1="926.04" x2="479.96" y2="925.37"/>
  <line class="st3" x1="479.96" y1="925.37" x2="481.65" y2="924.35"/>
  <line class="st3" x1="476.25" y1="923.68" x2="475.57" y2="924.02"/>
  <line class="st3" x1="475.57" y1="924.02" x2="475.91" y2="924.69"/>
  <line class="st3" x1="476.25" y1="923.68" x2="481.65" y2="918.95"/>
  <line class="st3" x1="481.65" y1="918.95" x2="485.36" y2="912.88"/>
  <line class="st3" x1="452.62" y1="924.69" x2="460.05" y2="928.4"/>
  <line class="st3" x1="460.05" y1="928.4" x2="468.15" y2="929.75"/>
  <line class="st3" x1="468.15" y1="929.75" x2="476.25" y2="928.4"/>
  <line class="st3" x1="476.25" y1="928.4" x2="483.67" y2="924.69"/>
  <line class="st3" x1="454.65" y1="837.61" x2="454.31" y2="837.61"/>
  <line class="st3" x1="454.31" y1="837.61" x2="453.97" y2="837.61"/>
  <line class="st3" x1="452.96" y1="837.61" x2="453.63" y2="837.61"/>
  <line class="st3" x1="453.63" y1="837.61" x2="453.97" y2="837.61"/>
  <line class="st3" x1="452.62" y1="837.27" x2="452.62" y2="837.61"/>
  <line class="st3" x1="452.62" y1="837.61" x2="452.96" y2="837.61"/>
  <line class="st3" x1="460.38" y1="837.27" x2="459.37" y2="836.26"/>
  <line class="st3" x1="459.37" y1="836.26" x2="458.02" y2="835.92"/>
  <line class="st3" x1="458.02" y1="835.92" x2="456.33" y2="836.6"/>
  <line class="st3" x1="456.33" y1="836.6" x2="454.65" y2="837.61"/>
  <line class="st3" x1="460.05" y1="838.28" x2="460.38" y2="837.95"/>
  <line class="st3" x1="460.38" y1="837.95" x2="460.38" y2="837.27"/>
  <line class="st3" x1="460.05" y1="838.28" x2="454.65" y2="843.01"/>
  <line class="st3" x1="454.65" y1="843.01" x2="450.93" y2="849.08"/>
  <line class="st3" x1="481.65" y1="837.61" x2="481.99" y2="837.61"/>
  <line class="st3" x1="481.99" y1="837.61" x2="482.32" y2="837.61"/>
  <line class="st3" x1="483.34" y1="837.61" x2="482.66" y2="837.61"/>
  <line class="st3" x1="482.66" y1="837.61" x2="482.32" y2="837.61"/>
  <line class="st3" x1="483.67" y1="837.27" x2="483.34" y2="837.61"/>
  <line class="st3" x1="475.91" y1="837.27" x2="476.92" y2="836.26"/>
  <line class="st3" x1="476.92" y1="836.26" x2="478.27" y2="835.92"/>
  <line class="st3" x1="478.27" y1="835.92" x2="479.96" y2="836.6"/>
  <line class="st3" x1="479.96" y1="836.6" x2="481.65" y2="837.61"/>
  <line class="st3" x1="476.25" y1="838.28" x2="475.57" y2="837.95"/>
  <line class="st3" x1="475.57" y1="837.95" x2="475.91" y2="837.27"/>
  <line class="st3" x1="476.25" y1="838.28" x2="481.65" y2="843.01"/>
  <line class="st3" x1="481.65" y1="843.01" x2="485.36" y2="849.08"/>
  <line class="st3" x1="452.62" y1="837.27" x2="460.05" y2="833.56"/>
  <line class="st3" x1="460.05" y1="833.56" x2="468.15" y2="832.21"/>
  <line class="st3" x1="468.15" y1="832.21" x2="476.25" y2="833.56"/>
  <line class="st3" x1="476.25" y1="833.56" x2="483.67" y2="837.27"/>
  <line class="st3" x1="444.18" y1="849.08" x2="444.18" y2="912.88"/>
  <line class="st3" x1="529.24" y1="924.35" x2="529.58" y2="924.35"/>
  <line class="st3" x1="529.58" y1="924.35" x2="530.25" y2="924.35"/>
  <line class="st3" x1="530.93" y1="924.35" x2="530.59" y2="924.35"/>
  <line class="st3" x1="530.59" y1="924.35" x2="530.25" y2="924.35"/>
  <line class="st3" x1="531.6" y1="924.69" x2="531.27" y2="924.35"/>
  <line class="st3" x1="531.27" y1="924.35" x2="530.93" y2="924.35"/>
  <line class="st3" x1="523.5" y1="924.69" x2="524.51" y2="925.7"/>
  <line class="st3" x1="524.51" y1="925.7" x2="526.2" y2="926.04"/>
  <line class="st3" x1="526.2" y1="926.04" x2="527.89" y2="925.37"/>
  <line class="st3" x1="527.89" y1="925.37" x2="529.24" y2="924.35"/>
  <line class="st3" x1="523.84" y1="923.68" x2="523.5" y2="924.02"/>
  <line class="st3" x1="523.5" y1="924.02" x2="523.5" y2="924.69"/>
  <line class="st3" x1="523.84" y1="923.68" x2="529.58" y2="918.95"/>
  <line class="st3" x1="529.58" y1="918.95" x2="533.29" y2="912.88"/>
  <line class="st3" x1="502.58" y1="924.35" x2="502.24" y2="924.35"/>
  <line class="st3" x1="502.24" y1="924.35" x2="501.9" y2="924.35"/>
  <line class="st3" x1="500.89" y1="924.35" x2="501.22" y2="924.35"/>
  <line class="st3" x1="501.23" y1="924.35" x2="501.9" y2="924.35"/>
  <line class="st3" x1="500.55" y1="924.69" x2="500.55" y2="924.35"/>
  <line class="st3" x1="500.55" y1="924.35" x2="500.89" y2="924.35"/>
  <line class="st3" x1="508.31" y1="924.69" x2="507.3" y2="925.7"/>
  <line class="st3" x1="507.3" y1="925.7" x2="505.95" y2="926.04"/>
  <line class="st3" x1="505.95" y1="926.04" x2="504.26" y2="925.37"/>
  <line class="st3" x1="504.26" y1="925.37" x2="502.58" y2="924.35"/>
  <line class="st3" x1="507.98" y1="923.68" x2="508.31" y2="924.02"/>
  <line class="st3" x1="508.31" y1="924.02" x2="508.31" y2="924.69"/>
  <line class="st3" x1="507.98" y1="923.68" x2="502.24" y2="918.95"/>
  <line class="st3" x1="502.24" y1="918.95" x2="498.86" y2="912.88"/>
  <line class="st3" x1="531.6" y1="924.69" x2="524.18" y2="928.4"/>
  <line class="st3" x1="524.18" y1="928.4" x2="516.07" y2="929.75"/>
  <line class="st3" x1="516.08" y1="929.75" x2="507.64" y2="928.4"/>
  <line class="st3" x1="507.64" y1="928.4" x2="500.55" y2="924.69"/>
  <line class="st3" x1="529.24" y1="837.61" x2="529.58" y2="837.61"/>
  <line class="st3" x1="529.58" y1="837.61" x2="530.25" y2="837.61"/>
  <line class="st3" x1="530.93" y1="837.61" x2="530.59" y2="837.61"/>
  <line class="st3" x1="530.59" y1="837.61" x2="530.25" y2="837.61"/>
  <line class="st3" x1="531.6" y1="837.27" x2="531.27" y2="837.61"/>
  <line class="st3" x1="531.27" y1="837.61" x2="530.93" y2="837.61"/>
  <line class="st3" x1="523.5" y1="837.27" x2="524.51" y2="836.26"/>
  <line class="st3" x1="524.51" y1="836.26" x2="526.2" y2="835.92"/>
  <line class="st3" x1="526.2" y1="835.92" x2="527.89" y2="836.6"/>
  <line class="st3" x1="527.89" y1="836.6" x2="529.24" y2="837.61"/>
  <line class="st3" x1="523.84" y1="838.28" x2="523.5" y2="837.95"/>
  <line class="st3" x1="523.5" y1="837.95" x2="523.5" y2="837.27"/>
  <line class="st3" x1="523.84" y1="838.28" x2="529.58" y2="843.01"/>
  <line class="st3" x1="529.58" y1="843.01" x2="533.29" y2="849.08"/>
  <line class="st3" x1="502.58" y1="837.61" x2="502.24" y2="837.61"/>
  <line class="st3" x1="502.24" y1="837.61" x2="501.9" y2="837.61"/>
  <line class="st3" x1="500.89" y1="837.61" x2="501.22" y2="837.61"/>
  <line class="st3" x1="501.23" y1="837.61" x2="501.9" y2="837.61"/>
  <line class="st3" x1="500.55" y1="837.27" x2="500.55" y2="837.61"/>
  <line class="st3" x1="500.55" y1="837.61" x2="500.89" y2="837.61"/>
  <line class="st3" x1="508.31" y1="837.27" x2="507.3" y2="836.26"/>
  <line class="st3" x1="507.3" y1="836.26" x2="505.95" y2="835.92"/>
  <line class="st3" x1="505.95" y1="835.92" x2="504.26" y2="836.6"/>
  <line class="st3" x1="504.26" y1="836.6" x2="502.58" y2="837.61"/>
  <line class="st3" x1="507.98" y1="838.28" x2="508.31" y2="837.95"/>
  <line class="st3" x1="508.31" y1="837.95" x2="508.31" y2="837.27"/>
  <line class="st3" x1="507.98" y1="838.28" x2="502.24" y2="843.01"/>
  <line class="st3" x1="502.24" y1="843.01" x2="498.86" y2="849.08"/>
  <line class="st3" x1="531.6" y1="837.27" x2="524.18" y2="833.56"/>
  <line class="st3" x1="524.18" y1="833.56" x2="516.07" y2="832.21"/>
  <line class="st3" x1="516.08" y1="832.21" x2="507.64" y2="833.56"/>
  <line class="st3" x1="507.64" y1="833.56" x2="500.55" y2="837.27"/>
  <line class="st3" x1="539.7" y1="849.08" x2="539.7" y2="912.88"/>
  <polyline class="st3" points="539.7 912.88 533.29 912.88 498.86 912.88 485.36 912.88 450.93 912.88 444.18 912.88"/>
  <polyline class="st3" points="444.18 849.08 450.93 849.08 485.36 849.08 498.86 849.08 533.29 849.08 539.7 849.08"/>
  <line class="st3" x1="600.44" y1="1071.22" x2="600.44" y2="1060.55"/>
  <rect class="st3" x="529.12" y="1029.57" width="95.37" height="47.78"/>
  <line class="st3" x1="538.26" y1="1044.57" x2="548.69" y2="1044.57"/>
  <line class="st3" x1="538.26" y1="1064.18" x2="548.69" y2="1064.18"/>
  <line class="st3" x1="543.4" y1="1059.04" x2="543.4" y2="1069.47"/>
  <line class="st3" x1="543.4" y1="1039.29" x2="543.4" y2="1049.72"/>
  <rect class="st3" x="532.28" y="1034.7" width="22.95" height="39.36"/>
  <rect class="st3" x="587.1" y="1040.43" width="26.55" height="26.54"/>
  <rect class="st3" x="580.5" y="1033.83" width="39.89" height="39.75"/>
  <polygon class="st13" points="509.83 717.17 509.83 769.15 511.18 771.85 513.88 773.2 526.03 773.2 526.03 717.17 509.83 717.17"/>
  <polygon class="st13" points="526.03 717.17 526.03 773.2 565.86 773.2 568.56 771.85 569.57 769.15 569.57 717.17 526.03 717.17"/>
  <polygon class="st13" points="513.88 661.47 511.18 662.49 509.83 665.52 509.83 717.17 526.03 717.17 526.03 661.47 513.88 661.47"/>
  <polygon class="st13" points="526.03 661.47 526.03 717.17 569.57 717.17 569.57 665.52 568.56 662.49 565.85 661.47 526.03 661.47"/>
  <polyline class="st3" points="526.03 661.47 526.03 717.17 526.03 773.19"/>
  <polyline class="st3" points="569.57 717.17 526.03 717.17 509.83 717.17"/>
  <line class="st3" x1="513.88" y1="773.2" x2="511.18" y2="771.85"/>
  <line class="st3" x1="511.18" y1="771.85" x2="509.83" y2="769.15"/>
  <line class="st3" x1="513.88" y1="661.47" x2="511.18" y2="662.49"/>
  <line class="st3" x1="511.18" y1="662.49" x2="509.83" y2="665.52"/>
  <line class="st3" x1="565.86" y1="773.2" x2="568.56" y2="771.85"/>
  <line class="st3" x1="568.56" y1="771.85" x2="569.57" y2="769.15"/>
  <line class="st3" x1="565.86" y1="661.47" x2="568.56" y2="662.49"/>
  <line class="st3" x1="568.56" y1="662.49" x2="569.57" y2="665.52"/>
  <polyline class="st3" points="565.86 661.47 526.03 661.47 513.88 661.47"/>
  <polyline class="st3" points="509.83 665.52 509.83 717.17 509.83 769.14"/>
  <polyline class="st3" points="513.88 773.2 526.03 773.2 565.86 773.2"/>
  <polyline class="st3" points="569.57 769.15 569.57 717.17 569.57 665.53"/>
  <g class="st10">
    <path class="st13" d="M587.25,703.05c4.5-14.35,19.78-22.33,34.14-17.83,14.35,4.5,22.33,19.79,17.83,34.13-4.51,14.35-19.79,22.33-34.14,17.83-14.35-4.51-22.33-19.79-17.83-34.13"/>
    <path class="st3" d="M587.25,703.05c4.5-14.35,19.78-22.33,34.14-17.83,14.35,4.5,22.33,19.79,17.83,34.13-4.51,14.35-19.79,22.33-34.14,17.83-14.35-4.51-22.33-19.79-17.83-34.13Z"/>
  </g>
</svg>