<?xml version="1.0" encoding="UTF-8"?>
<svg id="Layer_1" xmlns="http://www.w3.org/2000/svg" xmlns:xlink="http://www.w3.org/1999/xlink" version="1.1" viewBox="0 0 1200 1697.14">
  <!-- Generator: Adobe Illustrator 29.6.0, SVG Export Plug-In . SVG Version: 2.1.1 Build 207)  -->
  <defs>
    <style>
      .st0, .st1, .st2, .st3 {
        fill: none;
      }

      .st1 {
        stroke: #0d0e1c;
      }

      .st1, .st2, .st3 {
        stroke-linecap: round;
        stroke-linejoin: round;
      }

      .st1, .st3 {
        stroke-width: .08px;
      }

      .st2 {
        stroke-width: .14px;
      }

      .st2, .st3 {
        stroke: #000;
      }

      .st4 {
        clip-path: url(#clippath-1);
      }

      .st5 {
        clip-path: url(#clippath-3);
      }

      .st6 {
        clip-path: url(#clippath-4);
      }

      .st7 {
        clip-path: url(#clippath-2);
      }

      .st8 {
        clip-path: url(#clippath-7);
      }

      .st9 {
        clip-path: url(#clippath-6);
      }

      .st10 {
        clip-path: url(#clippath-9);
      }

      .st11 {
        clip-path: url(#clippath-8);
      }

      .st12 {
        clip-path: url(#clippath-5);
      }

      .st13 {
        fill: #fff;
      }

      .st14 {
        fill: #ece9e5;
      }

      .st15 {
        fill: #302c35;
      }

      .st16 {
        clip-path: url(#clippath);
      }
    </style>
    <clipPath id="clippath">
      <rect class="st0" x="238.65" y="441.48" width="770.69" height="814.19"/>
    </clipPath>
    <clipPath id="clippath-1">
      <rect class="st0" x="667.47" y="762.1" width="72.57" height="159.65"/>
    </clipPath>
    <clipPath id="clippath-2">
      <rect class="st0" x="238.65" y="441.48" width="770.69" height="814.19"/>
    </clipPath>
    <clipPath id="clippath-3">
      <rect class="st0" x="634.18" y="990.09" width="28.6" height="39.22"/>
    </clipPath>
    <clipPath id="clippath-4">
      <rect class="st0" x="238.65" y="441.48" width="770.69" height="814.19"/>
    </clipPath>
    <clipPath id="clippath-5">
      <rect class="st0" x="238.65" y="441.48" width="770.69" height="814.19"/>
    </clipPath>
    <clipPath id="clippath-6">
      <rect class="st0" x="705.8" y="1073.55" width="27.51" height="37.12"/>
    </clipPath>
    <clipPath id="clippath-7">
      <rect class="st0" x="238.65" y="441.48" width="770.69" height="814.19"/>
    </clipPath>
    <clipPath id="clippath-8">
      <rect class="st0" x="238.65" y="441.48" width="770.69" height="814.19"/>
    </clipPath>
    <clipPath id="clippath-9">
      <rect class="st0" x="238.65" y="441.48" width="770.69" height="814.19"/>
    </clipPath>
  </defs>
  <rect class="st14" x="419.97" y="658.85" width="338.88" height="481.65"/>
  <rect class="st14" x="456.42" y="571.09" width="249.43" height="118.13"/>
  <rect class="st13" x="437.59" y="1006.5" width="47.78" height="117.89"/>
  <rect class="st13" x="437.18" y="904.9" width="47.93" height="95.86"/>
  <rect class="st13" x="482.71" y="663.23" width="198.63" height="11.47"/>
  <rect class="st15" x="679.86" y="689.22" width="78.98" height="16.2"/>
  <rect class="st15" x="604.6" y="1124.63" width="136.7" height="15.87"/>
  <rect class="st15" x="419.97" y="1124.63" width="113.07" height="15.87"/>
  <rect class="st15" x="741.29" y="705.42" width="17.55" height="435.07"/>
  <rect class="st15" x="701.8" y="571.09" width="4.05" height="87.75"/>
  <rect class="st15" x="456.42" y="571.09" width="4.05" height="87.75"/>
  <rect class="st15" x="460.13" y="571.09" width="245.72" height="3.71"/>
  <rect class="st15" x="419.97" y="705.42" width="17.55" height="419.21"/>
  <rect class="st15" x="437.18" y="1000.76" width="55.69" height="5.74"/>
  <rect class="st15" x="613.37" y="1117.88" width="130.4" height="7.99"/>
  <rect class="st15" x="613.37" y="1109.11" width="5.4" height="8.77"/>
  <rect class="st15" x="618.77" y="983.55" width="125" height="5.06"/>
  <rect class="st15" x="734.2" y="988.61" width="8.4" height="129.27"/>
  <rect class="st15" x="618.77" y="988.61" width="115.44" height="1.35"/>
  <rect class="st15" x="618.77" y="1109.11" width="1.35" height="7.43"/>
  <rect class="st15" x="613.37" y="983.55" width="5.4" height="54.68"/>
  <rect class="st15" x="618.77" y="984.22" width="1.35" height="54.01"/>
  <rect class="st15" x="618.77" y="1116.54" width="115.44" height="1.35"/>
  <rect class="st15" x="733.19" y="988.61" width="1.01" height="127.92"/>
  <rect class="st15" x="621.47" y="923.8" width="121.14" height="7.76"/>
  <rect class="st15" x="613.37" y="923.8" width="8.44" height="59.74"/>
  <rect class="st15" x="679.86" y="658.84" width="78.98" height="30.38"/>
  <rect class="st15" x="419.99" y="689.22" width="62.72" height="16.2"/>
  <rect class="st15" x="419.99" y="658.84" width="62.72" height="30.38"/>
  <path class="st3" d="M741.29,931.57v51.98M741.29,983.55h-119.49M621.81,983.55v-51.98M621.81,931.57h119.49M679.86,689.22v16.2M679.86,705.42h61.43M437.52,705.42h45.23M482.74,705.42v-16.2M419.97,1140.5h112.4M532.36,1124.63h-94.85M605.61,1140.5h135.68M602.23,1124.63h0M604.59,1124.63h1.01M758.84,1140.5v-208.93M758.84,923.81v-218.38M602.23,1058.14l-13.16,1.35M589.07,1059.49l-12.49,3.71M576.58,1063.2l-11.48,6.08M565.1,1069.28l-10.13,8.44M554.98,1077.72l-8.1,9.79M546.88,1087.51l-6.42,11.81M540.46,1099.32l-3.71,12.49M536.75,1111.81l-1.35,12.83M533.04,1124.63v15.87M604.59,1140.5v-15.87M602.23,1124.63v-66.49M598.86,1124.63h3.37M605.61,1124.63h-1.01M602.23,1124.63h0M676.49,587.63l-13.16,1.35M663.32,588.98l-12.49,3.37M650.84,592.35l-11.81,5.4M639.02,597.75l-10.8,7.76M628.22,605.52l-9.45,9.11M618.77,614.63l-7.43,10.8M611.34,625.43l-5.74,11.81M605.61,637.24l-3.38,12.83M602.23,650.07l-1.01,13.16M676.49,663.23v-75.61M671.76,663.57v4.05M606.28,663.57h65.48M606.28,667.62v-4.05M671.76,667.62h-65.48M602.57,674.71h72.57M671.76,663.23h-65.48M671.76,669.31h-65.48M602.57,669.31v5.4M675.14,669.31v5.4M675.14,669.31h-72.57M678.85,663.23v11.47M671.76,663.23h7.09M671.76,669.31v-6.07M675.14,669.31h-3.38M675.14,674.71v-5.4M678.85,674.71h-3.71M602.57,669.31v5.4M606.28,669.31h-3.71M606.28,663.23v6.07M598.86,663.23h7.42M598.86,674.71v-11.47M602.57,674.71h-3.71M487.81,667.62h105.98M593.79,667.62v-4.05M593.79,663.57h-105.98M487.81,663.57v4.05M593.79,674.71h-105.98M487.81,663.23h105.98M593.79,674.71h4.05M597.84,674.71v-11.47M597.84,663.23h-4.05M593.79,663.23v11.47M483.76,674.71h4.05M487.81,674.71v-11.47M487.81,663.23h-4.05M483.76,663.23v11.47M701.8,574.8h-241.33M460.47,574.8v84.05M701.8,658.85v-84.05M701.8,658.85h4.05M705.85,658.85v-87.76M705.85,571.09h-249.43M456.42,571.09v87.76M456.42,658.85h4.05M460.47,658.85v-84.05M460.47,574.8h241.33M701.8,574.8v84.05M741.29,983.55l-119.49-51.98M741.29,983.55h-119.49M621.81,983.55v-51.98M621.81,931.57h119.49M741.29,931.57v51.98"/>
  <path class="st3" d="M437.52,952.83h3.38M443.26,952.83h2.36M447.98,952.83h2.36M452.71,952.83h2.36M457.43,952.83h2.7M462.5,952.83h2.36M467.22,952.83h2.36M471.95,952.83h2.36M476.67,952.83h2.36M481.4,952.83h3.71M485.11,952.83v-1.35M485.11,949.12v-2.36M485.11,944.4v-2.36M485.11,939.67v-2.36M485.11,934.94v-2.36M485.11,930.22v-2.36M485.11,925.16v-2.36M485.11,920.43v-2.36M485.11,915.71v-2.36M485.11,910.98v-2.36M485.11,906.25v-1.35M485.11,904.9h-3.71M479.03,904.9h-2.36M474.31,904.9h-2.36M469.58,904.9h-2.36M464.86,904.9h-2.36M460.13,904.9h-2.7M455.07,904.9h-2.36M450.34,904.9h-2.36M445.62,904.9h-2.36M440.89,904.9h-3.38M419.97,705.43v419.21M437.52,1000.76h3.38M443.26,1000.76h2.36M447.98,1000.76h2.36M452.71,1000.76h2.36M457.43,1000.76h2.7M462.5,1000.76h2.36M467.22,1000.76h2.36M471.95,1000.76h2.36M476.67,1000.76h2.36M481.4,1000.76h3.71M485.11,1000.76v-1.35M485.11,997.05v-2.36M485.11,992.32v-2.36M485.11,987.6v-2.36M485.11,982.87v-2.7M485.11,977.81v-2.36M485.11,973.08v-2.36M485.11,968.36v-2.36M485.11,963.63v-2.36M485.11,958.91v-2.36M485.11,954.18v-1.35M485.11,952.83h-3.71M479.03,952.83h-2.36M474.31,952.83h-2.36M469.58,952.83h-2.36M464.86,952.83h-2.36M460.13,952.83h-2.7M455.07,952.83h-2.36M450.34,952.83h-2.36M445.62,952.83h-2.36M440.89,952.83h-3.38M437.52,1006.5h55.35M492.87,1006.5v-5.74M492.87,1000.76h-55.35M419.97,1006.5v-5.74M482.75,673.02v32.4M437.52,705.43v295.34M437.52,1006.5v118.13M532.36,1124.63h.67M535.4,1124.63h63.45M602.23,1124.63h0M604.59,1124.63h8.78M613.37,923.81h127.92M741.29,923.81v-218.38M679.86,705.43v-32.4M679.86,673.02h-1.01M598.86,673.02h-1.01M483.76,673.02h-1.01M734.21,1140.5h-129.61M605.61,1124.63h-1.01M602.23,1124.63h0M533.04,1140.5h-113.07"/>
  <path class="st3" d="M613.37,1117.88v6.75M613.37,1109.11v8.78M613.37,983.55v54.68M739.61,983.55h-117.8"/>
  <path class="st3" d="M684.59,1106.41l-1.35-12.82M683.24,1093.58l-3.71-12.15M679.52,1081.43l-6.07-11.47M673.45,1069.95l-8.1-10.13M665.35,1059.83l-10.12-8.1M655.22,1051.73l-11.48-6.08M643.75,1045.65l-12.15-3.71M631.59,1041.94l-12.83-1.35M620.12,1038.23h-6.75M613.37,1109.11h6.75M618.77,1106.41h65.82M618.77,1040.59v65.82"/>
  <path class="st3" d="M620.12,989.96h113.07M620.12,1038.23v-48.27M620.12,1116.53v-7.43M733.19,1116.53h-113.07M733.19,989.96v126.57"/>
  <path class="st3" d="M740.95,923.8h-7.76M733.19,923.8v7.76M733.19,931.57h7.76M685.26,923.8h-63.8M621.81,931.57h63.46M685.26,931.57v-7.76M685.26,923.8h47.93M733.19,931.57h-47.93M733.19,923.8v7.76M685.26,931.57v-7.76M613.37,923.8v59.74M621.47,923.8h-8.1M482.75,689.22v-30.38M482.75,658.84h-62.78M758.84,658.84h-78.98M679.86,658.84v30.38M679.86,667.62h-1.01M598.86,667.62h-1.01M483.76,667.62h-1.01M482.75,673.02v-5.4M679.86,667.62v5.4M679.86,667.62v-8.78M482.75,658.84v8.78M482.75,667.62h1.01M597.84,667.62h1.01M678.85,667.62h1.01M419.97,1140.5v-481.65M758.84,1140.5h-24.64M758.84,658.84v481.65"/>
  <g class="st16">
    <path class="st2" d="M1115.61,579.19h-6.07M1091.99,499.87l-16.2,7.09M1080.17,524.51l-4.38-17.55M1052.49,495.82l27.68,28.69M1052.49,495.82l39.49,4.05M1052.49,495.82l23.29,11.14M1115.61,818.5h-6.07M1115.61,658.84h-6.07M1115.61,738.5h-6.07M1115.61,818.5v-239.31M-10.72,1278.21h1183.71"/>
    <path d="M1094.22,1227.3c.43-.28.75-.67.96-1.17.21-.5.32-1.12.32-1.85,0-.58-.11-1.1-.32-1.57-.21-.47-.5-.82-.89-1.07-.38-.25-.78-.37-1.21-.37s-.81.11-1.15.34c-.33.23-.61.58-.82,1.05-.14.33-.32.93-.51,1.8-.19.87-.38,1.42-.57,1.62-.19.21-.42.32-.72.32-.33,0-.62-.15-.85-.45-.23-.3-.36-.77-.36-1.42s.13-1.1.39-1.42c.26-.32.64-.51,1.16-.56l-.08-1.03c-.47.02-.9.15-1.27.4-.37.25-.66.6-.85,1.06-.19.46-.29.99-.29,1.59,0,.55.09,1.05.27,1.49.18.45.45.79.81,1.02.35.23.74.35,1.14.35.37,0,.71-.1,1-.28.3-.19.55-.48.75-.87.16-.3.33-.82.5-1.57.18-.75.31-1.23.39-1.45.13-.34.29-.59.48-.73.19-.15.41-.22.66-.22s.48.08.69.23c.21.15.38.39.49.7.12.31.18.68.18,1.09,0,.46-.08.88-.24,1.25-.16.37-.37.65-.62.82-.26.17-.59.29-.99.34l.09,1.01c.54-.02,1.02-.16,1.45-.45M1095.36,1218.58h-2.79l-1.28-1.33,4.08-2.9v-1.42l-4.8,3.57-3.26-3.41v1.46l4,4.04h-4v1.08h8.06v-1.08Z"/>
    <path d="M1089.7,1209.06h.92v-5.37h-.92v5.37ZM1092.14,1209.06h.92v-5.37h-.92v5.37Z"/>
    <path d="M1094.22,1198.95c.43-.28.75-.67.96-1.17.21-.5.32-1.11.32-1.85,0-.58-.1-1.1-.31-1.57-.21-.47-.51-.82-.89-1.07-.38-.25-.78-.37-1.22-.37s-.81.11-1.14.34c-.33.23-.61.58-.82,1.05-.15.33-.32.93-.51,1.8-.2.88-.39,1.42-.57,1.63-.19.21-.42.31-.71.31-.34,0-.62-.15-.86-.45-.23-.3-.36-.77-.36-1.42s.13-1.1.39-1.42c.26-.32.64-.51,1.15-.56l-.08-1.03c-.47.02-.9.15-1.27.4-.38.25-.66.6-.85,1.07-.19.46-.29.99-.29,1.59,0,.55.09,1.05.28,1.49.18.45.45.79.8,1.02.35.23.73.35,1.14.35.37,0,.71-.1,1-.29.3-.19.55-.48.75-.87.16-.3.32-.83.5-1.57.18-.74.31-1.23.39-1.45.13-.34.29-.59.48-.73.19-.15.41-.22.66-.22s.48.07.69.23c.21.15.38.39.5.7.12.31.18.68.18,1.09,0,.46-.08.88-.24,1.25-.16.37-.37.64-.63.82-.26.17-.59.29-.99.34l.09,1.01c.54-.01,1.02-.16,1.45-.45"/>
    <path d="M1095.36,1190.72h-2.31l-.67-.71,2.98-1.95v-1.23l-3.67,2.48-2.16-2.26v1.29l2.38,2.37h-4.6v1h8.06v-1ZM1095.36,1181.6v-1.04c-.22.12-.46.21-.7.25-.25.04-.83.07-1.75.07h-1.32c-.44,0-.74.02-.91.05-.27.06-.49.16-.67.31-.18.15-.33.38-.44.69-.12.31-.18.72-.18,1.23s.07.95.21,1.33c.14.38.33.68.59.88.26.2.59.35,1,.44l.13-.98c-.42-.11-.7-.27-.87-.5-.16-.22-.25-.57-.25-1.04,0-.5.11-.88.34-1.14.16-.19.45-.28.85-.28.03,0,.12,0,.26,0,.13.38.25.97.34,1.78.05.4.09.69.15.89.07.27.18.5.32.72.14.21.33.38.57.52.24.13.5.2.78.2.49,0,.89-.17,1.2-.52.31-.35.47-.84.47-1.49,0-.39-.07-.76-.19-1.1-.13-.34-.35-.7-.66-1.07.27-.03.51-.1.72-.2M1092.79,1181.88c.44,0,.77.05.99.16.29.14.52.36.68.66.17.3.25.64.25,1.02s-.09.69-.27.89c-.18.2-.4.3-.66.3-.18,0-.33-.05-.47-.14-.14-.09-.25-.22-.33-.39-.07-.17-.14-.46-.2-.87-.1-.73-.23-1.27-.38-1.63h.36Z"/>
    <path d="M1095.36,1178.57h-2.31l-.67-.71,2.99-1.95v-1.23l-3.67,2.48-2.16-2.25v1.29l2.37,2.37h-4.6v1h8.06v-1ZM1094.51,1172.1c0,.15-.03.26-.07.34-.05.08-.11.14-.19.17-.08.03-.26.05-.55.05h-3.42v-1.01h-.77v1.01h-2.04l.59.99h1.45v.73h.77v-.73h3.36c.59,0,.98-.04,1.17-.12.18-.08.33-.22.45-.42.11-.2.17-.48.17-.84,0-.22-.03-.47-.09-.76l-.88.14c.03.18.04.33.04.44"/>
    <path d="M1108.52,1226.25h-3.66v-3.82h-.95v3.82h-2.5v-4.41h-.95v5.49h8.06v-1.08ZM1107.38,1220.55c.43-.28.74-.67.96-1.17.21-.5.32-1.11.32-1.85,0-.58-.1-1.11-.31-1.57-.21-.46-.51-.82-.89-1.07-.38-.25-.79-.37-1.22-.37s-.81.11-1.14.34c-.33.23-.61.58-.83,1.05-.14.33-.32.93-.51,1.8-.2.88-.39,1.42-.57,1.63-.19.21-.43.31-.72.31-.33,0-.62-.15-.85-.45-.23-.3-.35-.77-.35-1.42s.13-1.1.39-1.42c.26-.32.64-.51,1.15-.56l-.08-1.03c-.47.02-.9.15-1.27.4-.38.25-.66.6-.85,1.07-.19.46-.29.99-.29,1.59,0,.55.09,1.05.27,1.49.19.45.45.79.81,1.02.35.24.73.35,1.14.35.37,0,.7-.1,1-.29.3-.19.55-.48.75-.87.16-.3.32-.83.5-1.57.18-.74.31-1.23.39-1.45.13-.34.29-.59.48-.73.19-.15.41-.22.66-.22s.48.07.69.23c.21.15.38.39.5.7.12.31.18.68.18,1.09,0,.46-.08.88-.24,1.25-.16.37-.37.64-.63.82-.26.17-.59.29-.99.34l.09,1.01c.54-.01,1.02-.16,1.45-.45"/>
    <path d="M1102.86,1210.07h.92v-5.37h-.92v5.37ZM1105.31,1210.07h.92v-5.37h-.92v5.37Z"/>
    <polygon points="1108.52 1198.91 1104.86 1198.91 1104.86 1195.09 1103.91 1195.09 1103.91 1198.91 1101.42 1198.91 1101.42 1194.5 1100.47 1194.5 1100.47 1199.99 1108.52 1199.99 1108.52 1198.91"/>
    <path d="M1107.87,1192.69c.53-.51.79-1.18.79-2,0-.51-.12-.99-.36-1.42-.24-.43-.57-.76-1-.99-.43-.23-1.02-.34-1.77-.34-.93,0-1.65.26-2.18.77-.53.52-.79,1.18-.79,1.99,0,.73.22,1.35.65,1.85.52.61,1.32.91,2.4.91.98,0,1.74-.25,2.26-.76M1103.93,1191.93c-.37-.33-.55-.74-.55-1.24s.18-.9.56-1.23c.37-.33.92-.5,1.64-.5.77,0,1.34.16,1.71.49.38.33.56.74.56,1.24s-.19.91-.56,1.24c-.37.33-.93.49-1.68.49s-1.31-.16-1.68-.49M1108.52,1186.02h-3.05c-.42,0-.81-.06-1.16-.17-.23-.07-.41-.2-.54-.37-.13-.18-.2-.37-.2-.59,0-.24.07-.49.21-.73l-.92-.34c-.21.35-.32.69-.32,1.03,0,.23.07.45.2.64.13.19.41.4.82.63h-.89v.9h5.84v-1Z"/>
    <path d="M1107.56,1179.87c.19.26.29.57.29.94,0,.49-.17.9-.51,1.23-.34.33-.83.51-1.48.55v-4.4c-.11,0-.2,0-.26,0-.96,0-1.71.25-2.24.75-.53.5-.8,1.14-.8,1.93s.27,1.47.81,1.98c.54.51,1.31.77,2.29.77s1.69-.25,2.21-.76c.53-.5.79-1.19.79-2.05,0-.68-.16-1.25-.49-1.69-.33-.44-.79-.74-1.39-.9l-.13,1.03c.42.15.72.36.91.62M1103.82,1182.02c-.31-.31-.46-.7-.46-1.16,0-.51.19-.92.57-1.24.25-.21.61-.33,1.1-.38v3.29c-.51-.03-.91-.21-1.22-.52M1108.18,1176.51c.31-.4.47-.98.47-1.75,0-.46-.08-.88-.24-1.24-.16-.37-.38-.65-.67-.84-.29-.19-.6-.29-.93-.29s-.62.08-.84.24c-.23.16-.4.38-.52.66-.12.28-.27.77-.46,1.48-.13.49-.22.78-.25.88-.07.17-.16.3-.26.38-.1.08-.22.12-.35.12-.2,0-.38-.1-.53-.3-.15-.19-.23-.52-.23-.98,0-.39.08-.69.25-.9.17-.21.4-.34.7-.38l-.13-.97c-.38.06-.68.18-.9.34-.23.17-.4.42-.54.77-.13.35-.2.76-.2,1.22,0,.31.04.59.12.87.08.27.18.48.29.63.14.21.33.37.55.49.22.12.46.18.72.18.29,0,.55-.07.79-.22.23-.15.42-.36.55-.64s.29-.79.48-1.52c.14-.55.25-.88.33-1.02.13-.2.31-.29.53-.29.25,0,.47.11.65.33.19.22.28.56.28,1.02s-.1.81-.31,1.06c-.21.25-.51.41-.9.46l.16.99c.62-.11,1.09-.37,1.4-.77M1100.46,1171.13h8.06v-1h-8.06v1ZM1108.52,1164.44v-1.04c-.22.13-.46.21-.7.25-.24.04-.82.06-1.74.06h-1.32c-.44,0-.75.02-.91.05-.27.06-.5.17-.67.31-.18.15-.33.38-.44.69-.12.31-.18.72-.18,1.23s.07.95.2,1.34c.14.38.33.68.59.88.25.21.59.35,1,.44l.13-.98c-.41-.11-.7-.27-.86-.5-.17-.22-.25-.57-.25-1.04,0-.5.11-.88.33-1.14.17-.19.45-.28.85-.28.04,0,.12,0,.26,0,.13.38.24.97.34,1.78.05.4.1.69.15.89.07.27.18.5.32.72.14.21.33.38.57.52.23.13.5.2.78.2.49,0,.89-.17,1.2-.52s.47-.84.47-1.49c0-.39-.06-.76-.19-1.1-.13-.34-.35-.7-.66-1.07.28-.03.51-.1.72-.2M1105.96,1164.73c.44,0,.77.06.99.16.29.14.52.36.68.66.16.3.25.64.25,1.03s-.09.69-.26.89c-.18.2-.4.3-.66.3-.17,0-.33-.04-.47-.14-.14-.09-.25-.22-.32-.39-.08-.17-.14-.46-.2-.87-.1-.72-.22-1.27-.37-1.63h.36ZM1101.9,1166.82c.2-.19.29-.43.29-.71s-.1-.5-.29-.7c-.19-.2-.43-.3-.71-.3s-.52.1-.71.3c-.2.2-.29.43-.29.7s.1.5.29.7.42.3.69.3c.29,0,.54-.1.74-.3M1100.76,1166.52c-.11-.12-.18-.26-.18-.41s.06-.3.18-.42c.12-.11.26-.17.42-.17s.31.06.42.17c.12.12.18.25.18.42s-.06.29-.18.41c-.12.12-.26.17-.44.17-.16,0-.3-.06-.42-.17M1107.56,1158.66c.19.26.29.57.29.94,0,.49-.17.9-.51,1.23-.34.33-.83.51-1.48.55v-4.4c-.11,0-.2,0-.26,0-.96,0-1.71.25-2.24.75-.53.5-.8,1.15-.8,1.93s.27,1.48.81,1.98c.54.51,1.31.76,2.29.76s1.69-.25,2.21-.76c.53-.5.79-1.19.79-2.05,0-.68-.16-1.25-.49-1.69-.33-.44-.79-.74-1.39-.9l-.13,1.03c.42.15.72.36.91.61M1103.82,1160.8c-.31-.31-.46-.7-.46-1.16,0-.51.19-.92.57-1.24.25-.21.61-.33,1.1-.38v3.29c-.51-.03-.91-.21-1.22-.52"/>
    <path d="M1107.68,1153.87c0,.15-.02.26-.07.34-.05.08-.11.14-.19.17-.08.03-.26.05-.55.05h-3.41v-1.01h-.77v1.01h-2.04l.59,1h1.45v.73h.77v-.73h3.36c.59,0,.98-.04,1.17-.12.19-.08.33-.22.45-.42.12-.2.17-.48.17-.84,0-.22-.03-.47-.09-.75l-.88.14c.03.18.04.33.04.44M1108.18,1149.18c.32-.4.47-.98.47-1.75,0-.46-.08-.88-.24-1.25-.16-.37-.38-.65-.68-.84-.29-.2-.6-.29-.93-.29s-.62.08-.85.24c-.23.16-.4.38-.52.66-.12.28-.27.77-.46,1.48-.14.49-.22.78-.25.88-.07.17-.16.3-.27.38-.1.08-.21.12-.35.12-.2,0-.38-.1-.53-.3s-.23-.52-.23-.98c0-.39.08-.69.25-.9.17-.21.4-.34.7-.38l-.13-.98c-.38.06-.68.18-.9.34-.22.17-.4.43-.54.78-.13.35-.2.76-.2,1.22,0,.31.04.59.12.86.08.27.18.48.29.63.15.21.33.37.55.49.22.12.46.18.72.18.28,0,.55-.07.78-.22.23-.14.42-.36.55-.65.13-.28.29-.79.48-1.52.14-.54.25-.88.34-1.02.13-.19.31-.29.53-.29.25,0,.47.11.65.33.19.22.28.56.28,1.02s-.1.81-.32,1.06c-.21.25-.51.41-.9.46l.15.99c.62-.11,1.09-.36,1.4-.77"/>
    <path d="M1108.52,1142.46h-2.31l-.67-.71,2.98-1.95v-1.23l-3.67,2.48-2.16-2.25v1.29l2.38,2.36h-4.6v1h8.06v-1ZM1108.52,1133.68v-1.04c-.22.12-.46.21-.7.25-.25.04-.83.07-1.75.07h-1.32c-.44,0-.74.02-.91.05-.27.06-.5.16-.67.31-.18.15-.33.38-.45.69-.12.31-.18.72-.18,1.23s.07.95.21,1.33.33.68.59.88c.25.2.59.35,1,.44l.13-.98c-.41-.11-.7-.27-.86-.5-.16-.22-.25-.57-.25-1.04,0-.5.11-.88.33-1.14.17-.19.45-.28.85-.28.04,0,.13,0,.26,0,.14.38.25.97.35,1.78.05.4.09.69.15.89.07.27.18.5.32.72.14.21.33.38.57.52.23.13.49.2.78.2.49,0,.89-.17,1.2-.52.31-.35.47-.84.47-1.49,0-.39-.07-.76-.2-1.1-.13-.34-.35-.7-.66-1.07.27-.03.51-.1.72-.2M1105.96,1133.96c.44,0,.77.05.99.16.29.14.51.36.68.66.17.3.25.64.25,1.02s-.09.69-.27.89c-.18.2-.4.3-.66.3-.17,0-.33-.05-.47-.14-.14-.09-.25-.22-.32-.39-.07-.17-.14-.46-.2-.87-.1-.73-.23-1.27-.38-1.63h.36Z"/>
    <path d="M1107.79,1130.73c.58-.39.86-.94.86-1.64s-.27-1.3-.82-1.8c-.55-.5-1.32-.75-2.32-.75-.42,0-.82.06-1.19.18-.37.12-.68.28-.95.49-.26.21-.47.48-.61.8-.14.32-.22.67-.22,1.03,0,.65.26,1.19.79,1.61h-2.88v1h8.06v-.93h-.73ZM1103.93,1130.26c-.38-.32-.56-.69-.56-1.13s.18-.8.54-1.11c.36-.3.93-.46,1.69-.46s1.3.16,1.68.48c.38.32.56.69.56,1.13,0,.53-.25.96-.76,1.27-.31.19-.82.29-1.52.29s-1.25-.16-1.63-.48"/>
    <path d="M1107.49,819.92c.56-.45.83-1.06.83-1.85,0-.6-.16-1.09-.48-1.48-.31-.39-.76-.68-1.35-.88-.58-.2-1.34-.29-2.29-.29-.8,0-1.44.06-1.91.18-.47.12-.87.29-1.2.5-.33.21-.58.49-.76.81-.18.33-.26.71-.26,1.15,0,.59.16,1.08.47,1.47.31.39.76.69,1.34.88.58.2,1.35.29,2.3.29,1.51,0,2.6-.27,3.27-.8M1101.49,819.18c-.39-.28-.58-.64-.58-1.1s.22-.85.65-1.17c.44-.31,1.32-.47,2.65-.47s2.2.16,2.64.47c.44.31.66.7.66,1.16s-.22.84-.65,1.16c-.44.31-1.32.47-2.64.47s-2.23-.17-2.72-.52M1107.24,666.23c-.18-.11-.36-.25-.53-.42-.18-.17-.52-.55-1.02-1.15-.6-.72-1.07-1.23-1.42-1.54-.35-.31-.67-.53-.98-.66-.31-.13-.63-.2-.95-.2-.64,0-1.17.23-1.6.68-.43.46-.64,1.07-.64,1.86s.2,1.39.6,1.85c.4.46.97.73,1.73.8l.1-1.03c-.5,0-.9-.15-1.19-.44-.29-.29-.43-.68-.43-1.16,0-.46.14-.83.4-1.11.27-.28.6-.43.99-.43s.77.16,1.19.47c.42.31.99.91,1.71,1.79.46.57.87,1.01,1.22,1.31.35.3.71.52,1.07.66.22.08.45.12.69.11v-5.38h-.95v3.99Z"/>
    <path d="M1108.19,660.14h-3.03c-.53,0-.94-.05-1.22-.16-.29-.11-.5-.28-.64-.52-.15-.24-.22-.5-.22-.78,0-.37.11-.64.33-.8.22-.16.55-.24.99-.24h3.79v-1h-3.39c-.6,0-1.04-.14-1.31-.41-.27-.28-.41-.62-.41-1.04,0-.23.05-.43.16-.6.11-.17.25-.29.42-.35.18-.07.46-.1.85-.1h3.68v-1h-4.01c-.66,0-1.16.16-1.48.47-.32.31-.48.76-.48,1.35,0,.75.34,1.35,1.02,1.82-.32.11-.57.31-.75.59-.18.28-.27.64-.27,1.07,0,.39.08.74.26,1.05.17.31.41.55.69.74h-.82v.9h5.84v-1Z"/>
    <path d="M1100.1,741.02v.64c.35.17.71.47,1.08.89.37.42.68.9.94,1.46h.96c-.11-.31-.29-.66-.51-1.05-.23-.39-.46-.7-.68-.95h6.3v-1h-8.09ZM1108.19,737.09h-3.03c-.53,0-.94-.05-1.22-.16-.29-.11-.5-.28-.64-.52-.15-.24-.22-.5-.22-.78,0-.37.11-.63.33-.8.22-.16.55-.24.99-.24h3.79v-1h-3.39c-.6,0-1.04-.14-1.31-.41-.27-.27-.41-.62-.41-1.03,0-.23.05-.43.16-.6.11-.17.25-.29.42-.35.18-.07.46-.1.85-.1h3.68v-.99h-4.01c-.66,0-1.16.16-1.48.47-.32.31-.48.76-.48,1.35,0,.75.34,1.35,1.02,1.82-.32.11-.57.31-.75.59-.18.28-.27.64-.27,1.07,0,.39.08.74.26,1.05.17.31.41.55.69.74h-.82v.89h5.84v-1Z"/>
    <path d="M1108.19,915.85h-6.86l6.86-2.35v-.97l-6.74-2.36h6.74v-1.04h-8.06v1.45l5.61,1.94c.57.2,1,.34,1.29.44-.27.08-.66.21-1.19.39l-5.71,1.92v1.62h8.06v-1.04ZM1108.19,903.82v-1.04c-.23.13-.46.21-.7.25-.24.04-.83.06-1.74.06h-1.32c-.44,0-.74.02-.91.05-.27.06-.49.16-.67.31-.18.15-.33.38-.44.69-.12.31-.18.72-.18,1.23s.07.95.2,1.34c.14.39.34.68.59.88.25.21.59.35,1,.44l.13-.98c-.42-.11-.7-.27-.87-.49-.16-.22-.25-.57-.25-1.04,0-.5.11-.88.34-1.14.16-.19.45-.28.85-.28.03,0,.12,0,.26,0,.13.38.24.97.34,1.78.05.4.1.69.15.89.08.26.18.5.33.72.14.21.33.38.57.51.24.13.5.2.78.2.49,0,.89-.18,1.2-.52.32-.35.47-.85.47-1.49,0-.39-.07-.76-.19-1.1-.13-.34-.35-.7-.66-1.07.27-.03.51-.1.72-.2M1105.62,904.1c.44,0,.77.06.99.16.29.14.52.36.69.66.16.3.25.64.25,1.03s-.09.68-.26.88c-.18.2-.39.3-.66.3-.17,0-.33-.05-.47-.14-.14-.09-.25-.22-.32-.39-.07-.17-.14-.46-.2-.87-.1-.72-.23-1.27-.37-1.63h.36ZM1101.57,906.19c.2-.2.29-.43.29-.71s-.09-.5-.29-.7c-.19-.2-.43-.29-.71-.29s-.52.1-.71.29c-.2.2-.29.43-.29.7s.1.5.29.7c.2.2.42.3.69.3.29,0,.54-.1.73-.29M1100.42,905.89c-.12-.12-.17-.26-.17-.41s.06-.3.17-.42c.12-.11.26-.17.42-.17s.31.06.43.18c.11.12.17.25.17.42s-.06.29-.17.41c-.12.12-.26.18-.44.18-.16,0-.3-.06-.42-.18"/>
    <rect x="1100.13" y="900.48" width="8.06" height="1"/>
    <path d="M1100.1,892.23v.64c.35.18.71.47,1.07.89.37.42.69.9.95,1.46h.95c-.11-.31-.28-.66-.51-1.05-.23-.39-.46-.7-.68-.94h6.3v-1h-8.09ZM1102.35,889.03h1.13v-1.14h-1.13v1.14ZM1107.06,889.03h1.13v-1.14h-1.13v1.14Z"/>
    <path d="M1107.71,885.74c.41-.47.61-1.07.61-1.81,0-.9-.32-1.61-.98-2.14-.53-.43-1.16-.64-1.89-.64s-1.39.24-1.88.73c-.49.49-.73,1.09-.73,1.8,0,.54.17,1.05.5,1.54l-2.16-.44v-3.25h-.94v4.05l4.14.79.12-.94c-.23-.15-.42-.35-.57-.61-.14-.26-.21-.55-.21-.87,0-.52.16-.94.49-1.26.33-.32.77-.48,1.33-.48.59,0,1.07.17,1.43.5.36.33.54.74.54,1.22,0,.4-.13.74-.38,1.03-.25.28-.63.46-1.14.54l.09,1.05c.68-.07,1.22-.34,1.63-.8M1107.49,879.33c.56-.45.83-1.06.83-1.85,0-.6-.16-1.09-.47-1.48-.32-.39-.77-.68-1.35-.88-.58-.2-1.34-.3-2.29-.3-.8,0-1.43.06-1.9.18-.47.12-.87.29-1.2.51-.33.21-.58.49-.76.82-.18.33-.26.71-.26,1.15,0,.59.16,1.08.47,1.47.31.39.76.68,1.34.88.58.2,1.35.3,2.3.3,1.51,0,2.6-.27,3.27-.81M1101.49,878.59c-.38-.27-.58-.64-.58-1.1s.22-.86.66-1.17,1.32-.47,2.64-.47,2.2.15,2.64.47c.44.31.66.7.66,1.16s-.22.84-.66,1.16c-.44.31-1.32.47-2.64.47s-2.23-.17-2.72-.51"/>
    <polygon class="st13" points="1108.19 528.9 1085.57 517.76 1092.32 503.24 1115.27 514.38 1108.19 528.9"/>
    <polygon points="1105.44 523.15 1094.09 517.66 1109.12 515.54 1110.07 513.57 1095.63 506.58 1094.74 508.42 1106.08 513.91 1091.06 516.03 1090.11 518 1104.55 524.99 1105.44 523.15"/>
    <path d="M1107.7,587.02c.42-.47.63-1.07.63-1.78,0-.79-.25-1.45-.74-1.97-.49-.52-1.08-.77-1.79-.77-.52,0-.95.13-1.3.4-.35.27-.58.64-.68,1.12-.17-.37-.4-.65-.68-.84-.29-.19-.61-.28-.95-.28-.36,0-.71.1-1.04.3-.32.2-.58.49-.77.86-.19.37-.28.78-.28,1.22,0,.64.18,1.18.55,1.62.36.43.88.71,1.54.83l.18-1c-.48-.07-.85-.24-1.09-.5s-.36-.58-.36-.97.12-.71.36-.96c.24-.25.54-.37.9-.37.46,0,.79.17,1.02.51.22.34.33.72.33,1.15,0,.04,0,.09,0,.16l.87.11c-.07-.28-.11-.52-.11-.7,0-.47.15-.85.44-1.15s.67-.45,1.13-.45.87.16,1.2.48c.32.33.48.72.48,1.19,0,.4-.12.73-.37,1.01-.25.27-.65.47-1.21.58l.13,1c.67-.07,1.22-.34,1.64-.8M1108.19,580.48h-3.03c-.53,0-.94-.05-1.22-.16-.29-.1-.5-.28-.64-.52-.15-.24-.22-.5-.22-.78,0-.37.11-.63.33-.8.22-.16.55-.24.99-.24h3.79v-1h-3.39c-.6,0-1.04-.14-1.31-.41-.27-.27-.41-.62-.41-1.03,0-.23.05-.43.16-.6.11-.17.25-.29.42-.35.18-.07.46-.1.85-.1h3.68v-.99h-4.01c-.66,0-1.16.16-1.48.47-.32.31-.48.76-.48,1.35,0,.75.34,1.35,1.02,1.82-.32.11-.57.31-.75.59-.18.28-.27.64-.27,1.07,0,.39.08.74.26,1.05.17.31.41.55.69.74h-.82v.89h5.84v-1Z"/>
    <rect class="st13" x="25.73" y="1154.34" width="18.9" height="102.27"/>
    <path d="M29.19,1250.33v.95c.52.26,1.05.7,1.61,1.32.55.62,1.02,1.35,1.41,2.17h1.43c-.17-.46-.42-.98-.76-1.56-.34-.58-.68-1.05-1.02-1.4h9.41v-1.48h-12.08ZM39.58,1245.62h1.68v-1.69h-1.68v1.69ZM39.56,1240.97c.64-.42,1.12-1,1.43-1.74s.47-1.66.47-2.74c0-.86-.16-1.63-.47-2.33-.32-.69-.76-1.22-1.32-1.59-.56-.36-1.17-.55-1.81-.55s-1.21.17-1.71.5c-.49.34-.9.85-1.22,1.55-.22.48-.48,1.37-.77,2.67-.29,1.3-.58,2.1-.86,2.41-.28.31-.63.47-1.06.47-.5,0-.92-.22-1.28-.66-.35-.44-.53-1.15-.53-2.11s.19-1.63.58-2.1c.39-.47.97-.75,1.72-.83l-.12-1.53c-.7.03-1.33.22-1.89.59-.56.37-.98.89-1.27,1.57-.29.68-.43,1.47-.43,2.37,0,.81.14,1.55.41,2.21.28.66.67,1.17,1.2,1.51.53.35,1.09.52,1.7.52.55,0,1.05-.14,1.5-.43.44-.28.82-.71,1.12-1.29.23-.44.49-1.22.75-2.33.26-1.11.46-1.82.59-2.15.19-.51.43-.87.71-1.09.28-.22.61-.33.99-.33s.72.11,1.03.34c.32.23.56.58.74,1.04.18.47.27,1.01.27,1.62,0,.69-.12,1.3-.36,1.85-.24.55-.55.95-.94,1.21-.38.26-.88.43-1.48.5l.13,1.51c.8-.02,1.53-.24,2.16-.66M41.26,1223.95v-1.55c-.33.18-.68.31-1.05.37-.36.07-1.23.1-2.6.1h-1.97c-.66,0-1.11.02-1.36.07-.41.09-.74.24-1.01.46-.26.22-.49.56-.66,1.03-.17.46-.26,1.07-.26,1.82s.1,1.41.31,1.98c.21.57.5,1.01.88,1.31.38.3.88.52,1.5.65l.2-1.45c-.62-.16-1.05-.4-1.29-.73-.24-.33-.37-.85-.37-1.55,0-.74.17-1.31.5-1.68.25-.28.67-.42,1.27-.42.06,0,.18,0,.39,0,.2.56.37,1.44.51,2.64.07.59.14,1.02.22,1.32.11.39.27.75.49,1.06.21.32.5.57.85.76.35.2.74.29,1.17.29.73,0,1.32-.26,1.79-.77.47-.52.7-1.25.7-2.21,0-.58-.1-1.13-.29-1.63-.19-.51-.52-1.04-.98-1.59.41-.04.77-.14,1.08-.3M37.43,1224.37c.65,0,1.14.08,1.48.24.43.21.77.53,1.02.98.25.44.37.95.37,1.52s-.13,1.01-.39,1.31c-.26.3-.59.45-.99.45-.26,0-.49-.07-.7-.2-.21-.14-.37-.33-.48-.59-.11-.25-.21-.68-.29-1.29-.15-1.08-.34-1.88-.56-2.42h.54ZM29.23,1220.53h12.03v-1.48h-12.03v1.48ZM32.55,1216.26h1.68v-1.69h-1.68v1.69ZM39.58,1216.26h1.68v-1.69h-1.68v1.69ZM29.98,1200.95c-.53.61-.79,1.38-.79,2.33,0,1.27.46,2.28,1.38,3.04,1.05.86,2.75,1.29,5.07,1.29,2.08,0,3.57-.39,4.47-1.17.9-.78,1.36-1.78,1.36-3.02,0-.73-.17-1.37-.52-1.94-.35-.57-.84-1.02-1.49-1.35-.65-.33-1.35-.49-2.11-.49-1.15,0-2.08.35-2.81,1.04-.73.69-1.09,1.53-1.09,2.52,0,.57.13,1.11.39,1.62.27.52.67.95,1.21,1.31-1.2,0-2.13-.15-2.78-.42-.65-.27-1.15-.64-1.49-1.11-.26-.35-.39-.77-.39-1.24,0-.59.21-1.08.63-1.48.26-.24.68-.43,1.26-.56l-.11-1.47c-.94.12-1.67.48-2.2,1.09M35.48,1205.21c-.48-.46-.72-1.04-.72-1.7s.24-1.23.72-1.68c.48-.44,1.13-.66,1.97-.66s1.55.23,2.05.68c.5.45.76.99.76,1.61,0,.43-.12.84-.37,1.23-.24.39-.6.69-1.06.91-.47.22-.95.32-1.46.32-.77,0-1.4-.23-1.88-.7M39.58,1197.26h1.68v-1.68h-1.68v1.68ZM41.26,1188.19c0-.77-.07-1.42-.2-1.94-.14-.53-.33-.97-.6-1.32-.26-.35-.64-.65-1.12-.89-.49-.24-1.01-.36-1.57-.36-.7,0-1.31.2-1.82.59-.52.39-.88.95-1.09,1.68-.28-.56-.64-.99-1.1-1.26-.45-.28-.94-.42-1.45-.42-.55,0-1.08.16-1.59.48-.5.31-.88.75-1.12,1.31-.24.56-.36,1.29-.36,2.22v4.52h12.03v-4.6ZM30.65,1191.19v-2.41c0-.87.06-1.48.17-1.84.11-.35.32-.63.62-.82.3-.19.66-.29,1.05-.29.42,0,.77.1,1.05.31.28.21.48.51.6.92.09.31.14.82.14,1.52v2.61h-3.64ZM35.71,1191.19v-2.79c0-.77.07-1.35.2-1.77.13-.41.37-.73.69-.96.33-.23.72-.35,1.17-.35.38,0,.72.08,1.01.24.29.16.52.37.67.61.15.25.26.56.33.92.04.21.06.57.06,1.08v3h-4.13ZM39.58,1181.17h1.68v-1.69h-1.68v1.69ZM29.19,1171.66v.95c.52.26,1.05.7,1.61,1.32.55.62,1.02,1.35,1.41,2.17h1.43c-.17-.46-.42-.98-.76-1.56-.34-.58-.68-1.04-1.02-1.4h9.41v-1.48h-12.08ZM39.58,1166.95h1.68v-1.69h-1.68v1.69ZM40.53,1161.81c.63-.7.95-1.58.95-2.64,0-1.17-.37-2.15-1.1-2.91-.73-.77-1.62-1.15-2.67-1.15-.78,0-1.42.2-1.94.59s-.86.95-1.02,1.66c-.25-.55-.59-.96-1.02-1.24-.43-.28-.9-.42-1.42-.42-.55,0-1.07.15-1.55.44-.49.29-.87.72-1.15,1.27-.28.56-.42,1.16-.42,1.82,0,.95.27,1.75.81,2.4.55.64,1.31,1.05,2.3,1.23l.26-1.48c-.72-.11-1.26-.36-1.62-.74-.36-.38-.54-.87-.54-1.44s.18-1.06.53-1.42c.35-.37.8-.55,1.35-.55.68,0,1.19.25,1.52.76.33.5.49,1.07.49,1.7,0,.06,0,.14-.02.24l1.3.16c-.11-.42-.16-.76-.16-1.04,0-.69.22-1.25.66-1.7.44-.44,1-.66,1.68-.66.71,0,1.31.24,1.79.72.48.48.73,1.07.73,1.77,0,.59-.19,1.08-.56,1.49-.37.41-.97.7-1.81.87l.2,1.48c1-.1,1.82-.5,2.44-1.2"/>
    <rect class="st13" x="50.04" y="1154.34" width="18.9" height="102.27"/>
    <path d="M64.14,1254.04c-.27-.16-.53-.37-.8-.62-.27-.25-.77-.82-1.51-1.71-.9-1.06-1.6-1.82-2.12-2.28-.51-.46-1-.79-1.47-.99-.47-.19-.94-.3-1.42-.3-.94,0-1.74.34-2.38,1.01-.64.68-.96,1.59-.96,2.75s.3,2.06.89,2.74c.59.68,1.46,1.07,2.59,1.18l.16-1.52c-.76,0-1.35-.22-1.77-.65-.43-.43-.64-1-.64-1.71,0-.67.2-1.22.6-1.64.4-.42.9-.63,1.48-.63.56,0,1.15.23,1.77.69.63.46,1.48,1.35,2.55,2.66.69.84,1.3,1.49,1.82,1.94.52.45,1.06.77,1.6.97.33.13.67.18,1.03.17v-7.97h-1.42v5.92ZM63.88,1245.62h1.68v-1.69h-1.68v1.69ZM63.86,1240.97c.64-.42,1.12-1,1.43-1.74s.47-1.66.47-2.74c0-.86-.16-1.63-.47-2.33-.32-.69-.76-1.22-1.32-1.59-.56-.36-1.17-.55-1.81-.55s-1.21.17-1.71.5c-.49.34-.9.85-1.22,1.55-.22.48-.48,1.37-.77,2.67-.29,1.3-.58,2.1-.86,2.41-.28.31-.63.47-1.06.47-.5,0-.92-.22-1.28-.66-.35-.44-.53-1.15-.53-2.11s.2-1.63.58-2.1c.39-.47.97-.75,1.72-.83l-.11-1.53c-.71.03-1.34.22-1.9.59-.56.37-.98.89-1.27,1.57-.29.68-.43,1.47-.43,2.37,0,.81.14,1.55.41,2.21.28.66.67,1.17,1.2,1.51.53.35,1.09.52,1.7.52.55,0,1.05-.14,1.5-.43.44-.28.82-.71,1.12-1.29.23-.44.49-1.22.75-2.33.26-1.11.46-1.82.59-2.15.19-.51.43-.87.71-1.09.28-.22.61-.33.99-.33s.72.11,1.03.34c.32.23.56.58.74,1.04.18.47.27,1.01.27,1.62,0,.69-.12,1.3-.36,1.85-.24.55-.55.95-.94,1.21-.38.26-.88.43-1.48.5l.13,1.51c.8-.02,1.52-.24,2.16-.66M65.56,1223.95v-1.55c-.33.18-.68.31-1.05.37-.36.07-1.23.1-2.6.1h-1.97c-.66,0-1.11.02-1.36.07-.41.09-.74.24-1.01.46-.26.22-.48.56-.66,1.03-.17.46-.26,1.07-.26,1.82s.1,1.41.31,1.98c.21.57.5,1.01.88,1.31.38.3.88.52,1.5.65l.2-1.45c-.62-.16-1.05-.4-1.29-.73-.24-.33-.37-.85-.37-1.55,0-.74.17-1.31.5-1.68.25-.28.67-.42,1.27-.42.06,0,.19,0,.39,0,.2.56.37,1.44.51,2.64.07.59.14,1.02.22,1.32.11.39.27.75.48,1.06.21.32.5.57.85.76.35.2.74.29,1.17.29.73,0,1.32-.26,1.8-.77.46-.52.7-1.25.7-2.21,0-.58-.1-1.13-.29-1.63-.19-.51-.52-1.04-.98-1.59.41-.04.77-.14,1.08-.3M61.73,1224.37c.65,0,1.14.08,1.48.24.43.21.77.53,1.02.98.25.44.37.95.37,1.52s-.13,1.01-.39,1.31c-.26.3-.59.45-.99.45-.26,0-.49-.07-.7-.2-.21-.14-.37-.33-.48-.59-.11-.25-.21-.68-.29-1.29-.15-1.08-.34-1.88-.56-2.42h.54ZM53.54,1220.53h12.03v-1.48h-12.03v1.48ZM56.85,1216.26h1.68v-1.69h-1.68v1.69ZM63.88,1216.26h1.68v-1.69h-1.68v1.69ZM54.28,1200.95c-.53.61-.79,1.38-.79,2.33,0,1.27.46,2.28,1.38,3.04,1.05.86,2.75,1.29,5.07,1.29,2.08,0,3.57-.39,4.47-1.17.9-.78,1.36-1.78,1.36-3.02,0-.73-.17-1.37-.52-1.94-.35-.57-.84-1.02-1.49-1.35-.65-.33-1.35-.49-2.11-.49-1.15,0-2.08.35-2.81,1.04-.73.69-1.09,1.53-1.09,2.52,0,.57.13,1.11.39,1.62.27.52.67.95,1.21,1.31-1.2,0-2.13-.15-2.78-.42-.65-.27-1.15-.64-1.49-1.11-.26-.35-.39-.77-.39-1.24,0-.59.21-1.08.63-1.48.26-.24.68-.43,1.26-.56l-.11-1.47c-.94.12-1.67.48-2.2,1.09M59.78,1205.21c-.48-.46-.72-1.04-.72-1.7s.24-1.23.72-1.68c.48-.44,1.14-.66,1.97-.66s1.55.23,2.05.68c.5.45.76.99.76,1.61,0,.43-.12.84-.37,1.23-.24.39-.6.69-1.06.91-.47.22-.95.32-1.46.32-.78,0-1.4-.23-1.88-.7M63.88,1197.26h1.68v-1.68h-1.68v1.68ZM65.56,1188.19c0-.77-.07-1.42-.2-1.94-.14-.53-.33-.97-.6-1.32-.26-.35-.64-.65-1.12-.89-.49-.24-1.01-.36-1.57-.36-.7,0-1.31.2-1.82.59-.52.39-.88.95-1.09,1.68-.28-.56-.64-.99-1.1-1.26-.45-.28-.94-.42-1.45-.42-.55,0-1.08.16-1.59.48-.5.31-.88.75-1.12,1.31-.24.56-.36,1.29-.36,2.22v4.52h12.03v-4.6ZM54.95,1191.19v-2.41c0-.87.06-1.48.17-1.84.11-.35.32-.63.62-.82.3-.19.66-.29,1.05-.29.42,0,.77.1,1.05.31.28.21.48.51.6.92.09.31.14.82.14,1.52v2.61h-3.64ZM60.01,1191.19v-2.79c0-.77.07-1.35.2-1.77.13-.41.37-.73.7-.96.33-.23.72-.35,1.17-.35.38,0,.72.08,1.01.24.29.16.52.37.67.61.15.25.26.56.33.92.04.21.06.57.06,1.08v3h-4.13ZM63.88,1181.17h1.68v-1.69h-1.68v1.69ZM64.14,1175.37c-.27-.16-.53-.37-.8-.62-.27-.25-.77-.82-1.51-1.71-.9-1.06-1.6-1.82-2.12-2.28-.51-.46-1-.78-1.47-.98-.47-.19-.94-.29-1.42-.29-.94,0-1.74.34-2.38,1.01-.64.67-.96,1.59-.96,2.75s.3,2.06.89,2.74c.59.68,1.46,1.08,2.59,1.18l.16-1.52c-.76,0-1.35-.22-1.77-.65-.43-.43-.64-1-.64-1.71,0-.68.2-1.22.6-1.64.4-.42.9-.63,1.48-.63.56,0,1.15.23,1.77.69.63.46,1.48,1.35,2.55,2.66.69.84,1.3,1.49,1.82,1.94.52.45,1.06.77,1.6.97.33.13.67.18,1.03.17v-7.98h-1.42v5.92ZM63.88,1166.95h1.68v-1.69h-1.68v1.69ZM64.83,1161.81c.63-.7.94-1.58.94-2.64,0-1.17-.36-2.15-1.1-2.91-.73-.77-1.62-1.15-2.67-1.15-.78,0-1.42.2-1.94.59-.52.39-.86.95-1.02,1.66-.25-.55-.59-.96-1.02-1.24s-.9-.42-1.42-.42c-.55,0-1.06.15-1.55.44-.49.29-.87.72-1.15,1.27-.28.56-.42,1.16-.42,1.82,0,.95.27,1.75.81,2.4.55.64,1.31,1.05,2.3,1.23l.26-1.48c-.72-.11-1.26-.36-1.62-.74-.36-.38-.54-.87-.54-1.44s.18-1.06.53-1.42c.35-.37.8-.55,1.35-.55.68,0,1.19.25,1.52.76.33.5.49,1.07.49,1.7,0,.06,0,.14-.02.24l1.3.16c-.11-.42-.16-.76-.16-1.04,0-.69.22-1.25.66-1.7.44-.44,1-.66,1.68-.66.71,0,1.31.24,1.79.72.48.48.72,1.07.72,1.77,0,.59-.19,1.08-.56,1.49-.37.41-.97.7-1.81.87l.2,1.48c1-.1,1.82-.5,2.44-1.2"/>
    <rect class="st13" x="73.66" y="1154.34" width="18.9" height="102.27"/>
    <path d="M88.46,1254.7c.63-.7.94-1.58.94-2.64,0-1.17-.36-2.15-1.1-2.91-.73-.77-1.62-1.15-2.67-1.15-.78,0-1.42.2-1.94.59-.52.4-.86.95-1.02,1.66-.25-.55-.59-.96-1.02-1.24s-.9-.42-1.42-.42-1.06.15-1.55.44c-.49.29-.87.72-1.15,1.27-.28.56-.42,1.16-.42,1.82,0,.96.27,1.75.81,2.4.55.64,1.31,1.05,2.3,1.23l.26-1.48c-.72-.11-1.26-.36-1.62-.74-.36-.39-.54-.87-.54-1.44s.18-1.06.53-1.42c.35-.37.8-.55,1.35-.55.68,0,1.19.25,1.52.76s.49,1.07.49,1.7c0,.06,0,.14-.02.24l1.3.16c-.11-.42-.16-.77-.16-1.05,0-.68.22-1.25.66-1.69.44-.45,1-.67,1.68-.67.71,0,1.31.24,1.79.72.48.48.72,1.07.72,1.77,0,.59-.19,1.09-.56,1.49-.37.41-.97.7-1.81.87l.2,1.48c1-.1,1.82-.5,2.44-1.2M87.51,1245.62h1.68v-1.69h-1.68v1.69ZM87.49,1240.97c.64-.42,1.12-1,1.43-1.74s.47-1.66.47-2.74c0-.86-.16-1.63-.47-2.33-.32-.69-.76-1.22-1.32-1.59-.56-.36-1.17-.55-1.81-.55s-1.21.17-1.71.5c-.49.34-.9.85-1.22,1.55-.22.48-.48,1.37-.77,2.67-.29,1.3-.58,2.1-.86,2.41-.28.31-.63.47-1.06.47-.5,0-.92-.22-1.28-.66-.35-.44-.53-1.15-.53-2.11s.2-1.63.58-2.1c.39-.47.96-.75,1.72-.83l-.11-1.53c-.71.03-1.34.22-1.9.59-.56.37-.98.89-1.27,1.57-.29.68-.43,1.47-.43,2.37,0,.81.14,1.55.41,2.21.27.66.67,1.17,1.2,1.51.53.35,1.09.52,1.7.52.55,0,1.05-.14,1.5-.43.44-.28.82-.71,1.12-1.29.23-.44.49-1.22.75-2.33.26-1.11.46-1.82.59-2.15.19-.51.43-.87.71-1.09.28-.22.61-.33.99-.33s.72.11,1.03.34c.32.23.56.58.74,1.04.18.47.27,1.01.27,1.62,0,.69-.12,1.3-.36,1.85-.24.55-.55.95-.94,1.21-.38.26-.88.43-1.48.5l.13,1.51c.8-.02,1.52-.24,2.16-.66M89.19,1223.95v-1.55c-.34.18-.69.31-1.05.37-.36.07-1.23.1-2.6.1h-1.97c-.66,0-1.11.02-1.36.07-.41.09-.74.24-1,.46-.27.22-.49.56-.66,1.03-.17.46-.26,1.07-.26,1.82s.1,1.41.3,1.98c.21.57.5,1.01.88,1.31.38.3.88.52,1.5.65l.2-1.45c-.62-.16-1.05-.4-1.29-.73-.24-.33-.36-.85-.36-1.55,0-.74.16-1.31.5-1.68.25-.28.67-.42,1.27-.42.06,0,.19,0,.39,0,.2.56.37,1.44.51,2.64.07.59.14,1.02.22,1.32.11.39.27.75.48,1.06.21.32.5.57.85.76.35.2.74.29,1.17.29.73,0,1.32-.26,1.8-.77.46-.52.7-1.25.7-2.21,0-.58-.1-1.13-.29-1.63-.19-.51-.52-1.04-.98-1.59.41-.04.77-.14,1.08-.3M85.36,1224.37c.65,0,1.14.08,1.48.24.43.21.77.53,1.02.98.25.44.37.95.37,1.52s-.13,1.01-.39,1.31c-.26.3-.59.45-.99.45-.26,0-.49-.07-.7-.2-.21-.14-.37-.33-.48-.59-.11-.25-.21-.68-.29-1.29-.15-1.08-.34-1.88-.56-2.42h.54ZM77.16,1220.53h12.03v-1.48h-12.03v1.48ZM80.48,1216.26h1.68v-1.69h-1.68v1.69ZM87.51,1216.26h1.68v-1.69h-1.68v1.69ZM77.91,1200.95c-.53.61-.79,1.38-.79,2.33,0,1.27.46,2.28,1.38,3.04,1.06.86,2.75,1.29,5.07,1.29,2.08,0,3.57-.39,4.47-1.17.9-.78,1.36-1.78,1.36-3.02,0-.73-.17-1.37-.51-1.94-.35-.57-.84-1.02-1.49-1.35-.65-.33-1.35-.49-2.11-.49-1.15,0-2.08.35-2.81,1.04-.73.69-1.09,1.53-1.09,2.52,0,.57.13,1.11.39,1.62.26.52.67.95,1.21,1.31-1.2,0-2.13-.15-2.78-.42-.65-.27-1.15-.64-1.49-1.11-.26-.35-.39-.77-.39-1.24,0-.59.21-1.08.63-1.48.26-.24.68-.43,1.26-.56l-.11-1.47c-.94.12-1.67.48-2.2,1.09M83.41,1205.21c-.48-.46-.72-1.04-.72-1.7s.24-1.23.72-1.68c.48-.44,1.14-.66,1.97-.66s1.55.23,2.05.68c.5.45.76.99.76,1.61,0,.43-.12.84-.37,1.23-.24.39-.6.69-1.06.91-.46.22-.95.32-1.46.32-.78,0-1.4-.23-1.88-.7M87.51,1197.26h1.68v-1.68h-1.68v1.68ZM89.19,1188.19c0-.77-.07-1.42-.2-1.94-.14-.53-.33-.97-.6-1.32-.26-.35-.64-.65-1.12-.89-.49-.24-1.01-.36-1.57-.36-.7,0-1.31.2-1.82.59-.51.39-.88.95-1.09,1.68-.28-.56-.64-.99-1.1-1.26-.45-.28-.94-.42-1.45-.42-.55,0-1.08.16-1.59.48-.5.31-.88.75-1.12,1.31-.25.56-.37,1.29-.37,2.22v4.52h12.03v-4.6ZM78.58,1191.19v-2.41c0-.87.06-1.48.17-1.84.11-.35.32-.63.62-.82.3-.19.66-.29,1.05-.29.42,0,.77.1,1.05.31.28.21.48.51.6.92.09.31.14.82.14,1.52v2.61h-3.64ZM83.63,1191.19v-2.79c0-.77.07-1.35.2-1.77.14-.41.37-.73.7-.96.33-.23.72-.35,1.17-.35.38,0,.72.08,1.01.24.29.16.52.37.67.61.15.25.26.56.33.92.04.21.06.57.06,1.08v3h-4.13ZM87.51,1181.17h1.68v-1.69h-1.68v1.69ZM88.46,1176.03c.63-.7.94-1.58.94-2.64,0-1.17-.36-2.15-1.1-2.91-.73-.77-1.62-1.15-2.67-1.15-.78,0-1.42.2-1.94.59-.52.39-.86.95-1.02,1.66-.25-.55-.59-.96-1.02-1.24s-.9-.42-1.42-.42-1.06.15-1.55.44c-.49.29-.87.72-1.15,1.27-.28.56-.42,1.16-.42,1.82,0,.96.27,1.75.81,2.4.55.64,1.31,1.05,2.3,1.23l.26-1.48c-.72-.11-1.26-.36-1.62-.74-.36-.38-.54-.87-.54-1.44s.18-1.06.53-1.42c.35-.37.8-.55,1.35-.55.68,0,1.19.25,1.52.76.33.51.49,1.07.49,1.7,0,.06,0,.14-.02.24l1.3.16c-.11-.42-.16-.76-.16-1.04,0-.69.22-1.25.66-1.7.44-.44,1-.66,1.68-.66.71,0,1.31.24,1.79.72.48.48.72,1.07.72,1.76,0,.59-.19,1.09-.56,1.49-.37.41-.97.7-1.81.87l.2,1.48c1-.1,1.82-.5,2.44-1.2M87.51,1166.95h1.68v-1.69h-1.68v1.69ZM88.46,1161.81c.63-.7.94-1.58.94-2.64,0-1.17-.36-2.15-1.1-2.91-.73-.77-1.62-1.15-2.67-1.15-.78,0-1.42.2-1.94.59-.52.39-.86.95-1.02,1.66-.25-.55-.59-.96-1.02-1.24s-.9-.42-1.42-.42-1.06.15-1.55.44c-.49.29-.87.72-1.15,1.27-.28.56-.42,1.16-.42,1.82,0,.95.27,1.75.81,2.4.55.64,1.31,1.05,2.3,1.23l.26-1.48c-.72-.11-1.26-.36-1.62-.74-.36-.38-.54-.87-.54-1.44s.18-1.06.53-1.42c.35-.37.8-.55,1.35-.55.68,0,1.19.25,1.52.76.33.5.49,1.07.49,1.7,0,.06,0,.14-.02.24l1.3.16c-.11-.42-.16-.76-.16-1.04,0-.69.22-1.25.66-1.7.44-.44,1-.66,1.68-.66.71,0,1.31.24,1.79.72.48.48.72,1.07.72,1.77,0,.59-.19,1.08-.56,1.49-.37.41-.97.7-1.81.87l.2,1.48c1-.1,1.82-.5,2.44-1.2"/>
    <rect class="st13" x="96.95" y="1154.34" width="18.9" height="102.27"/>
    <path d="M112.48,1249.68h-2.88v-1.63h-1.35v1.63h-7.79v1.21l7.79,5.51h1.35v-5.23h2.88v-1.48ZM108.25,1254.94l-5.42-3.77h5.42v3.77ZM110.8,1245.62h1.68v-1.69h-1.68v1.69ZM110.78,1240.97c.64-.42,1.12-1,1.43-1.74s.47-1.66.47-2.74c0-.86-.16-1.63-.47-2.33-.32-.69-.76-1.22-1.32-1.59-.56-.36-1.17-.55-1.81-.55s-1.21.17-1.71.5c-.49.34-.9.85-1.22,1.55-.22.48-.48,1.37-.77,2.67-.29,1.3-.58,2.1-.86,2.41-.28.31-.63.47-1.06.47-.5,0-.92-.22-1.28-.66-.35-.44-.53-1.15-.53-2.11s.19-1.63.58-2.1c.39-.47.96-.75,1.72-.83l-.12-1.53c-.7.03-1.33.22-1.89.59-.56.37-.98.89-1.27,1.57-.29.68-.43,1.47-.43,2.37,0,.81.14,1.55.41,2.21.28.66.67,1.17,1.2,1.51.53.35,1.09.52,1.7.52.55,0,1.05-.14,1.5-.43.44-.28.82-.71,1.12-1.29.23-.44.49-1.22.75-2.33.26-1.11.46-1.82.59-2.15.19-.51.43-.87.71-1.09.28-.22.61-.33.99-.33s.72.11,1.03.34c.32.23.56.58.74,1.04.18.47.27,1.01.27,1.62,0,.69-.12,1.3-.36,1.85-.24.55-.55.95-.94,1.21-.38.26-.88.43-1.48.5l.13,1.51c.8-.02,1.53-.24,2.16-.66M112.48,1223.95v-1.55c-.33.18-.68.31-1.05.37-.36.07-1.23.1-2.6.1h-1.97c-.66,0-1.11.02-1.36.07-.41.09-.74.24-1.01.46-.26.22-.49.56-.66,1.03-.17.46-.26,1.07-.26,1.82s.1,1.41.31,1.98c.21.57.5,1.01.88,1.31.38.3.88.52,1.5.65l.2-1.45c-.62-.16-1.05-.4-1.29-.73-.24-.33-.37-.85-.37-1.55,0-.74.17-1.31.5-1.68.25-.28.67-.42,1.27-.42.06,0,.18,0,.39,0,.2.56.37,1.44.51,2.64.07.59.14,1.02.22,1.32.11.39.27.75.49,1.06.21.32.5.57.85.76.35.2.75.29,1.17.29.73,0,1.32-.26,1.79-.77.47-.52.7-1.25.7-2.21,0-.58-.1-1.13-.29-1.63-.19-.51-.52-1.04-.98-1.59.41-.04.77-.14,1.08-.3M108.65,1224.37c.65,0,1.14.08,1.48.24.43.21.77.53,1.02.98.25.44.37.95.37,1.52s-.13,1.01-.39,1.31c-.26.3-.59.45-.99.45-.26,0-.49-.07-.7-.2-.21-.14-.37-.33-.48-.59-.11-.25-.21-.68-.29-1.29-.15-1.08-.34-1.88-.56-2.42h.54ZM100.45,1220.53h12.03v-1.48h-12.03v1.48ZM103.77,1216.26h1.68v-1.69h-1.68v1.69ZM110.8,1216.26h1.68v-1.69h-1.68v1.69ZM101.2,1200.95c-.53.61-.79,1.38-.79,2.33,0,1.27.46,2.28,1.38,3.04,1.05.86,2.75,1.29,5.07,1.29,2.08,0,3.57-.39,4.47-1.17.9-.78,1.36-1.78,1.36-3.02,0-.73-.17-1.37-.52-1.94-.35-.57-.84-1.02-1.49-1.35-.65-.33-1.35-.49-2.11-.49-1.15,0-2.08.35-2.81,1.04-.73.69-1.09,1.53-1.09,2.52,0,.57.13,1.11.39,1.62.27.52.67.95,1.21,1.31-1.2,0-2.13-.15-2.78-.42-.65-.27-1.14-.64-1.48-1.11-.26-.35-.39-.77-.39-1.24,0-.59.21-1.08.63-1.48.26-.24.68-.43,1.26-.56l-.11-1.47c-.94.12-1.67.48-2.2,1.09M106.7,1205.21c-.48-.46-.72-1.04-.72-1.7s.24-1.23.72-1.68c.48-.44,1.13-.66,1.97-.66s1.55.23,2.05.68c.5.45.75.99.75,1.61,0,.43-.12.84-.36,1.23-.24.39-.6.69-1.06.91-.47.22-.95.32-1.46.32-.77,0-1.4-.23-1.88-.7M110.8,1197.26h1.68v-1.68h-1.68v1.68ZM112.48,1188.19c0-.77-.07-1.42-.2-1.94-.14-.53-.33-.97-.6-1.32-.26-.35-.64-.65-1.12-.89-.49-.24-1.01-.36-1.57-.36-.7,0-1.31.2-1.82.59-.52.39-.88.95-1.09,1.68-.28-.56-.64-.99-1.1-1.26-.45-.28-.94-.42-1.45-.42-.55,0-1.08.16-1.59.48-.5.31-.88.75-1.12,1.31-.24.56-.36,1.29-.36,2.22v4.52h12.03v-4.6ZM101.87,1191.19v-2.41c0-.87.06-1.48.17-1.84.11-.35.32-.63.62-.82.3-.19.66-.29,1.05-.29.42,0,.77.1,1.05.31.28.21.48.51.6.92.09.31.14.82.14,1.52v2.61h-3.64ZM106.92,1191.19v-2.79c0-.77.07-1.35.2-1.77.13-.41.36-.73.69-.96.33-.23.72-.35,1.17-.35.38,0,.72.08,1.01.24.29.16.52.37.67.61.15.25.26.56.33.92.04.21.06.57.06,1.08v3h-4.13ZM110.8,1181.17h1.68v-1.69h-1.68v1.69ZM112.48,1171.01h-2.88v-1.63h-1.35v1.63h-7.79v1.21l7.79,5.5h1.35v-5.23h2.88v-1.48ZM108.25,1176.26l-5.42-3.77h5.42v3.77ZM110.8,1166.95h1.68v-1.69h-1.68v1.69ZM111.75,1161.81c.63-.7.94-1.58.94-2.64,0-1.17-.36-2.15-1.1-2.91-.73-.77-1.62-1.15-2.67-1.15-.78,0-1.42.2-1.94.59s-.86.95-1.02,1.66c-.25-.55-.59-.96-1.02-1.24-.43-.28-.9-.42-1.42-.42-.55,0-1.07.15-1.55.44-.49.29-.87.72-1.15,1.27-.28.56-.42,1.16-.42,1.82,0,.95.27,1.75.81,2.4.55.64,1.31,1.05,2.3,1.23l.26-1.48c-.72-.11-1.26-.36-1.62-.74-.36-.38-.54-.87-.54-1.44s.18-1.06.53-1.42c.35-.37.8-.55,1.34-.55.69,0,1.19.25,1.52.76.33.5.5,1.07.5,1.7,0,.06,0,.14-.02.24l1.3.16c-.11-.42-.16-.76-.16-1.04,0-.69.22-1.25.66-1.7.44-.44,1-.66,1.68-.66.71,0,1.31.24,1.79.72.48.48.72,1.07.72,1.77,0,.59-.19,1.08-.55,1.49-.37.41-.97.7-1.81.87l.2,1.48c1-.1,1.82-.5,2.44-1.2"/>
    <rect class="st13" x="119.9" y="1154.34" width="18.9" height="102.27"/>
    <path d="M134.72,1254.72c.61-.69.92-1.59.92-2.68,0-1.34-.49-2.4-1.46-3.17-.79-.64-1.73-.96-2.82-.96s-2.08.36-2.8,1.08c-.73.73-1.09,1.61-1.09,2.67,0,.8.25,1.56.76,2.28l-3.23-.65v-4.81h-1.41v6l6.18,1.17.18-1.39c-.35-.22-.62-.52-.84-.91-.21-.38-.33-.81-.33-1.29,0-.77.25-1.39.73-1.87.49-.47,1.15-.71,1.99-.71.89,0,1.6.25,2.14.74.54.49.81,1.1.81,1.81,0,.59-.19,1.1-.57,1.52-.38.42-.95.69-1.7.8l.13,1.56c1.01-.1,1.82-.49,2.44-1.19M133.75,1245.62h1.68v-1.69h-1.68v1.69ZM133.73,1240.97c.64-.42,1.12-1,1.43-1.74s.47-1.66.47-2.74c0-.86-.16-1.63-.47-2.33-.32-.69-.76-1.22-1.32-1.59-.56-.36-1.17-.55-1.81-.55s-1.21.17-1.71.5c-.49.34-.9.85-1.22,1.55-.22.48-.48,1.37-.77,2.67-.29,1.3-.58,2.1-.86,2.41-.28.31-.63.47-1.06.47-.5,0-.92-.22-1.28-.66-.35-.44-.53-1.15-.53-2.11s.2-1.63.58-2.1c.39-.47.97-.75,1.72-.83l-.12-1.53c-.7.03-1.33.22-1.89.59-.56.37-.98.89-1.27,1.57-.29.68-.43,1.47-.43,2.37,0,.81.14,1.55.41,2.21.28.66.67,1.17,1.2,1.51.53.35,1.09.52,1.7.52.55,0,1.05-.14,1.5-.43.44-.28.82-.71,1.12-1.29.23-.44.49-1.22.75-2.33.26-1.11.46-1.82.59-2.15.19-.51.43-.87.71-1.09.28-.22.61-.33.99-.33s.72.11,1.03.34c.32.23.56.58.74,1.04.18.47.27,1.01.27,1.62,0,.69-.12,1.3-.36,1.85-.24.55-.55.95-.94,1.21-.38.26-.88.43-1.48.5l.13,1.51c.8-.02,1.53-.24,2.16-.66M135.43,1223.95v-1.55c-.33.18-.68.31-1.05.37-.36.07-1.23.1-2.6.1h-1.97c-.66,0-1.11.02-1.36.07-.41.09-.74.24-1.01.46-.26.22-.49.56-.66,1.03-.17.46-.26,1.07-.26,1.82s.1,1.41.31,1.98c.21.57.5,1.01.88,1.31.38.3.88.52,1.5.65l.2-1.45c-.62-.16-1.05-.4-1.29-.73-.24-.33-.37-.85-.37-1.55,0-.74.17-1.31.5-1.68.25-.28.67-.42,1.27-.42.06,0,.19,0,.39,0,.2.56.37,1.44.51,2.64.07.59.14,1.02.22,1.32.11.39.27.75.49,1.06.21.32.5.57.85.76.35.2.74.29,1.17.29.73,0,1.32-.26,1.79-.77.47-.52.7-1.25.7-2.21,0-.58-.1-1.13-.29-1.63-.19-.51-.52-1.04-.98-1.59.41-.04.77-.14,1.08-.3M131.6,1224.37c.65,0,1.14.08,1.48.24.43.21.77.53,1.02.98.25.44.37.95.37,1.52s-.13,1.01-.39,1.31c-.26.3-.59.45-.99.45-.26,0-.49-.07-.7-.2-.21-.14-.37-.33-.48-.59-.11-.25-.21-.68-.29-1.29-.15-1.08-.34-1.88-.56-2.42h.54ZM123.4,1220.53h12.03v-1.48h-12.03v1.48ZM126.72,1216.26h1.68v-1.69h-1.68v1.69ZM133.75,1216.26h1.68v-1.69h-1.68v1.69ZM124.15,1200.95c-.53.61-.79,1.38-.79,2.33,0,1.27.46,2.28,1.38,3.04,1.05.86,2.75,1.29,5.07,1.29,2.08,0,3.57-.39,4.47-1.17.9-.78,1.36-1.78,1.36-3.02,0-.73-.17-1.37-.52-1.94-.35-.57-.84-1.02-1.49-1.35-.65-.33-1.35-.49-2.11-.49-1.15,0-2.08.35-2.81,1.04-.73.69-1.09,1.53-1.09,2.52,0,.57.13,1.11.39,1.62.27.52.67.95,1.21,1.31-1.2,0-2.13-.15-2.78-.42-.65-.27-1.15-.64-1.49-1.11-.26-.35-.39-.77-.39-1.24,0-.59.21-1.08.63-1.48.26-.24.68-.43,1.26-.56l-.11-1.47c-.94.12-1.67.48-2.2,1.09M129.65,1205.21c-.48-.46-.72-1.04-.72-1.7s.24-1.23.72-1.68c.48-.44,1.13-.66,1.97-.66s1.55.23,2.05.68c.5.45.76.99.76,1.61,0,.43-.12.84-.37,1.23-.24.39-.6.69-1.06.91-.47.22-.95.32-1.46.32-.78,0-1.4-.23-1.88-.7M133.75,1197.26h1.68v-1.68h-1.68v1.68ZM135.43,1188.19c0-.77-.07-1.42-.2-1.94-.14-.53-.33-.97-.6-1.32-.26-.35-.64-.65-1.12-.89-.49-.24-1.01-.36-1.57-.36-.7,0-1.31.2-1.82.59-.52.39-.88.95-1.09,1.68-.28-.56-.64-.99-1.1-1.26-.45-.28-.94-.42-1.45-.42-.55,0-1.08.16-1.59.48-.5.31-.88.75-1.12,1.31-.24.56-.36,1.29-.36,2.22v4.52h12.03v-4.6ZM124.82,1191.19v-2.41c0-.87.06-1.48.17-1.84.11-.35.32-.63.62-.82.3-.19.66-.29,1.05-.29.42,0,.77.1,1.05.31.28.21.48.51.6.92.09.31.14.82.14,1.52v2.61h-3.64ZM129.87,1191.19v-2.79c0-.77.07-1.35.2-1.77.13-.41.37-.73.69-.96.33-.23.72-.35,1.17-.35.38,0,.72.08,1.01.24.29.16.52.37.67.61.15.25.26.56.33.92.04.21.06.57.06,1.08v3h-4.13ZM133.75,1181.17h1.68v-1.69h-1.68v1.69ZM134.72,1176.05c.61-.69.92-1.59.92-2.69,0-1.34-.49-2.4-1.46-3.17-.79-.63-1.73-.95-2.82-.95s-2.08.36-2.8,1.08c-.73.73-1.09,1.61-1.09,2.67,0,.8.25,1.56.76,2.28l-3.23-.65v-4.81h-1.41v6l6.18,1.17.18-1.39c-.35-.22-.62-.52-.84-.91-.21-.38-.33-.81-.33-1.29,0-.76.25-1.39.73-1.86.49-.48,1.15-.72,1.99-.72.89,0,1.6.25,2.14.74.54.49.81,1.1.81,1.81,0,.59-.19,1.1-.57,1.52-.38.42-.95.69-1.7.8l.13,1.56c1.01-.1,1.82-.49,2.44-1.19M133.75,1166.95h1.68v-1.69h-1.68v1.69ZM134.7,1161.81c.63-.7.94-1.58.94-2.64,0-1.17-.36-2.15-1.1-2.91-.73-.77-1.62-1.15-2.67-1.15-.78,0-1.42.2-1.94.59s-.86.95-1.02,1.66c-.25-.55-.59-.96-1.02-1.24-.43-.28-.9-.42-1.42-.42-.55,0-1.06.15-1.55.44-.49.29-.87.72-1.15,1.27-.28.56-.42,1.16-.42,1.82,0,.95.27,1.75.81,2.4.55.64,1.31,1.05,2.3,1.23l.26-1.48c-.72-.11-1.26-.36-1.62-.74-.36-.38-.54-.87-.54-1.44s.18-1.06.53-1.42c.35-.37.8-.55,1.35-.55.68,0,1.19.25,1.52.76.33.5.49,1.07.49,1.7,0,.06,0,.14-.02.24l1.3.16c-.11-.42-.16-.76-.16-1.04,0-.69.22-1.25.66-1.7.44-.44,1-.66,1.68-.66.71,0,1.31.24,1.79.72.48.48.73,1.07.73,1.77,0,.59-.19,1.08-.56,1.49-.37.41-.97.7-1.81.87l.2,1.48c1-.1,1.82-.5,2.44-1.2"/>
    <rect class="st13" x="143.19" y="1154.34" width="18.9" height="102.27"/>
    <path d="M147.44,1249.31c-.53.6-.79,1.39-.79,2.33,0,1.27.46,2.28,1.38,3.04,1.05.86,2.74,1.29,5.07,1.29,2.08,0,3.57-.39,4.47-1.17.9-.78,1.36-1.78,1.36-3.02,0-.72-.17-1.37-.52-1.94-.35-.57-.84-1.02-1.49-1.34-.65-.33-1.35-.49-2.11-.49-1.15,0-2.08.35-2.81,1.04-.73.69-1.09,1.53-1.09,2.52,0,.56.13,1.1.39,1.62.26.52.67.95,1.21,1.31-1.2,0-2.13-.15-2.78-.42-.65-.27-1.15-.64-1.49-1.1-.26-.36-.39-.77-.39-1.24,0-.59.21-1.08.63-1.48.26-.24.68-.43,1.26-.56l-.11-1.47c-.94.12-1.67.49-2.2,1.09M152.94,1253.57c-.48-.47-.72-1.03-.72-1.7s.24-1.23.72-1.68c.48-.45,1.14-.67,1.97-.67s1.55.22,2.05.67c.5.45.76.99.76,1.61,0,.43-.12.84-.37,1.23-.24.39-.6.69-1.06.91-.47.21-.95.32-1.46.32-.77,0-1.4-.23-1.88-.7M157.04,1245.62h1.68v-1.69h-1.68v1.69ZM157.02,1240.97c.64-.42,1.12-1,1.43-1.74s.47-1.66.47-2.74c0-.86-.16-1.63-.47-2.33-.32-.69-.76-1.22-1.32-1.59-.56-.36-1.17-.55-1.81-.55s-1.21.17-1.71.5c-.49.34-.9.85-1.22,1.55-.22.48-.48,1.37-.77,2.67-.29,1.3-.58,2.1-.86,2.41-.28.31-.63.47-1.06.47-.5,0-.92-.22-1.28-.66-.35-.44-.53-1.15-.53-2.11s.19-1.63.58-2.1c.39-.47.97-.75,1.72-.83l-.11-1.53c-.71.03-1.34.22-1.9.59-.56.37-.98.89-1.27,1.57-.29.68-.43,1.47-.43,2.37,0,.81.14,1.55.41,2.21.28.66.68,1.17,1.2,1.51.53.35,1.09.52,1.7.52.55,0,1.05-.14,1.5-.43.44-.28.82-.71,1.12-1.29.23-.44.49-1.22.75-2.33.26-1.11.46-1.82.59-2.15.19-.51.43-.87.71-1.09.28-.22.61-.33.99-.33s.72.11,1.03.34c.32.23.56.58.74,1.04.18.47.27,1.01.27,1.62,0,.69-.12,1.3-.36,1.85-.24.55-.55.95-.94,1.21-.38.26-.88.43-1.48.5l.13,1.51c.8-.02,1.53-.24,2.16-.66M158.72,1223.95v-1.55c-.33.18-.68.31-1.05.37-.36.07-1.23.1-2.6.1h-1.97c-.66,0-1.11.02-1.36.07-.41.09-.74.24-1.01.46-.26.22-.49.56-.66,1.03-.17.46-.26,1.07-.26,1.82s.1,1.41.31,1.98c.21.57.5,1.01.88,1.31.38.3.88.52,1.5.65l.2-1.45c-.62-.16-1.05-.4-1.29-.73-.24-.33-.37-.85-.37-1.55,0-.74.17-1.31.5-1.68.25-.28.67-.42,1.27-.42.06,0,.19,0,.39,0,.2.56.37,1.44.51,2.64.07.59.14,1.02.22,1.32.11.39.27.75.49,1.06.21.32.5.57.85.76.35.2.74.29,1.17.29.73,0,1.32-.26,1.79-.77.47-.52.7-1.25.7-2.21,0-.58-.1-1.13-.29-1.63-.19-.51-.52-1.04-.98-1.59.41-.04.77-.14,1.08-.3M154.89,1224.37c.65,0,1.14.08,1.48.24.43.21.77.53,1.02.98.25.44.37.95.37,1.52s-.13,1.01-.39,1.31c-.26.3-.59.45-.99.45-.26,0-.49-.07-.7-.2-.21-.14-.37-.33-.48-.59-.11-.25-.21-.68-.29-1.29-.15-1.08-.34-1.88-.56-2.42h.54ZM146.69,1220.53h12.02v-1.48h-12.02v1.48ZM150.01,1216.26h1.68v-1.69h-1.68v1.69ZM157.04,1216.26h1.68v-1.69h-1.68v1.69ZM147.44,1200.95c-.53.61-.79,1.38-.79,2.33,0,1.27.46,2.28,1.38,3.04,1.05.86,2.74,1.29,5.07,1.29,2.08,0,3.57-.39,4.47-1.17.9-.78,1.36-1.78,1.36-3.02,0-.73-.17-1.37-.52-1.94-.35-.57-.84-1.02-1.49-1.35-.65-.33-1.35-.49-2.11-.49-1.15,0-2.08.35-2.81,1.04-.73.69-1.09,1.53-1.09,2.52,0,.57.13,1.11.39,1.62.26.52.67.95,1.21,1.31-1.2,0-2.13-.15-2.78-.42-.65-.27-1.15-.64-1.49-1.11-.26-.35-.39-.77-.39-1.24,0-.59.21-1.08.63-1.48.26-.24.68-.43,1.26-.56l-.11-1.47c-.94.12-1.67.48-2.2,1.09M152.94,1205.21c-.48-.46-.72-1.04-.72-1.7s.24-1.23.72-1.68c.48-.44,1.14-.66,1.97-.66s1.55.23,2.05.68c.5.45.76.99.76,1.61,0,.43-.12.84-.37,1.23-.24.39-.6.69-1.06.91-.47.22-.95.32-1.46.32-.77,0-1.4-.23-1.88-.7M157.04,1197.26h1.68v-1.68h-1.68v1.68ZM158.72,1188.19c0-.77-.07-1.42-.2-1.94-.14-.53-.33-.97-.6-1.32-.26-.35-.64-.65-1.12-.89-.49-.24-1.01-.36-1.57-.36-.7,0-1.31.2-1.82.59-.52.39-.88.95-1.09,1.68-.28-.56-.64-.99-1.1-1.26-.46-.28-.94-.42-1.45-.42-.55,0-1.08.16-1.59.48-.5.31-.88.75-1.12,1.31-.24.56-.36,1.29-.36,2.22v4.52h12.03v-4.6ZM148.11,1191.19v-2.41c0-.87.06-1.48.17-1.84.11-.35.32-.63.62-.82.3-.19.66-.29,1.05-.29.42,0,.77.1,1.05.31.28.21.48.51.6.92.09.31.14.82.14,1.52v2.61h-3.64ZM153.16,1191.19v-2.79c0-.77.07-1.35.2-1.77.13-.41.37-.73.7-.96.33-.23.72-.35,1.17-.35.38,0,.72.08,1.01.24.29.16.52.37.67.61.15.25.26.56.33.92.04.21.06.57.06,1.08v3h-4.13ZM157.04,1181.17h1.68v-1.69h-1.68v1.69ZM147.44,1170.64c-.53.61-.79,1.38-.79,2.33,0,1.27.46,2.28,1.38,3.04,1.05.86,2.74,1.29,5.07,1.29,2.08,0,3.57-.39,4.47-1.17.9-.78,1.36-1.79,1.36-3.02,0-.72-.17-1.37-.52-1.94-.35-.57-.84-1.02-1.49-1.35-.65-.32-1.35-.49-2.11-.49-1.15,0-2.08.35-2.81,1.04-.73.69-1.09,1.53-1.09,2.52,0,.56.13,1.1.39,1.62.26.52.67.95,1.21,1.31-1.2,0-2.13-.15-2.78-.42-.65-.27-1.15-.64-1.49-1.1-.26-.36-.39-.77-.39-1.24,0-.59.21-1.08.63-1.48.26-.24.68-.43,1.26-.56l-.11-1.47c-.94.12-1.67.49-2.2,1.09M152.94,1174.9c-.48-.46-.72-1.03-.72-1.7s.24-1.23.72-1.68c.48-.45,1.14-.67,1.97-.67s1.55.23,2.05.68c.5.45.76.99.76,1.61,0,.43-.12.84-.37,1.23-.24.39-.6.69-1.06.91-.47.22-.95.32-1.46.32-.77,0-1.4-.23-1.88-.7M157.04,1166.95h1.68v-1.69h-1.68v1.69ZM157.99,1161.81c.63-.7.94-1.58.94-2.64,0-1.17-.36-2.15-1.1-2.91-.73-.77-1.62-1.15-2.67-1.15-.78,0-1.42.2-1.94.59s-.86.95-1.02,1.66c-.25-.55-.59-.96-1.02-1.24s-.9-.42-1.42-.42c-.55,0-1.07.15-1.55.44-.49.29-.87.72-1.15,1.27-.28.56-.42,1.16-.42,1.82,0,.95.27,1.75.81,2.4.55.64,1.31,1.05,2.3,1.23l.26-1.48c-.72-.11-1.26-.36-1.62-.74-.36-.38-.54-.87-.54-1.44s.18-1.06.53-1.42c.35-.37.8-.55,1.35-.55.68,0,1.19.25,1.52.76.33.5.49,1.07.49,1.7,0,.06,0,.14-.02.24l1.3.16c-.11-.42-.16-.76-.16-1.04,0-.69.22-1.25.66-1.7.44-.44,1-.66,1.68-.66.71,0,1.31.24,1.79.72.48.48.73,1.07.73,1.77,0,.59-.19,1.08-.56,1.49-.37.41-.97.7-1.81.87l.2,1.48c1-.1,1.82-.5,2.44-1.2"/>
    <rect class="st13" x="166.48" y="1154.34" width="18.9" height="102.27"/>
    <path d="M171.56,1249.9c.86.75,1.9,1.46,3.15,2.13,1.24.67,2.54,1.18,3.88,1.53,1.34.36,2.48.54,3.43.56v-1.52c-1.2-.08-2.3-.27-3.31-.57-1.43-.41-2.82-1-4.16-1.75-1.35-.76-2.43-1.52-3.25-2.29h-1.15v7.81h1.42v-5.91ZM180.33,1245.62h1.68v-1.69h-1.68v1.69ZM180.31,1240.97c.64-.42,1.12-1,1.43-1.74.32-.74.48-1.66.48-2.74,0-.86-.16-1.63-.47-2.33-.32-.69-.76-1.22-1.32-1.59-.57-.36-1.17-.55-1.81-.55s-1.22.17-1.71.5-.9.85-1.22,1.55c-.22.48-.48,1.37-.77,2.67-.29,1.3-.58,2.1-.86,2.41-.28.31-.63.47-1.06.47-.5,0-.93-.22-1.28-.66s-.53-1.15-.53-2.11.19-1.63.58-2.1c.39-.47.96-.75,1.72-.83l-.11-1.53c-.71.03-1.33.22-1.89.59-.56.37-.98.89-1.26,1.57-.29.68-.43,1.47-.43,2.37,0,.81.14,1.55.41,2.21.28.66.68,1.17,1.2,1.51.53.35,1.09.52,1.7.52.55,0,1.05-.14,1.5-.43.45-.28.82-.71,1.12-1.29.23-.44.49-1.22.75-2.33.27-1.11.46-1.82.59-2.15.19-.51.43-.87.71-1.09.28-.22.61-.33.99-.33s.72.11,1.03.34c.31.23.56.58.74,1.04.18.47.27,1.01.27,1.62,0,.69-.12,1.3-.36,1.85-.24.55-.55.95-.93,1.21-.39.26-.88.43-1.48.5l.13,1.51c.8-.02,1.52-.24,2.16-.66M182.01,1223.95v-1.55c-.33.18-.68.31-1.05.37-.36.07-1.23.1-2.6.1h-1.97c-.65,0-1.11.02-1.36.07-.41.09-.74.24-1.01.46-.26.22-.48.56-.66,1.03-.17.46-.26,1.07-.26,1.82s.1,1.41.31,1.98c.21.57.5,1.01.88,1.31.38.3.88.52,1.5.65l.2-1.45c-.62-.16-1.05-.4-1.29-.73-.24-.33-.36-.85-.36-1.55,0-.74.17-1.31.5-1.68.25-.28.67-.42,1.27-.42.06,0,.18,0,.38,0,.2.56.37,1.44.51,2.64.07.59.15,1.02.22,1.32.11.39.27.75.49,1.06.21.32.5.57.85.76.35.2.75.29,1.17.29.73,0,1.33-.26,1.79-.77.47-.52.7-1.25.7-2.21,0-.58-.1-1.13-.29-1.63-.19-.51-.52-1.04-.99-1.59.41-.04.77-.14,1.07-.3M178.18,1224.37c.65,0,1.14.08,1.47.24.43.21.77.53,1.02.98.25.44.37.95.37,1.52s-.13,1.01-.39,1.31c-.26.3-.59.45-.99.45-.25,0-.49-.07-.7-.2-.21-.14-.37-.33-.48-.59-.11-.25-.21-.68-.3-1.29-.15-1.08-.34-1.88-.56-2.42h.54ZM169.98,1220.53h12.03v-1.48h-12.03v1.48ZM173.3,1216.26h1.68v-1.69h-1.68v1.69ZM180.33,1216.26h1.68v-1.69h-1.68v1.69ZM170.73,1200.95c-.53.61-.79,1.38-.79,2.33,0,1.27.46,2.28,1.38,3.04,1.05.86,2.74,1.29,5.07,1.29,2.08,0,3.57-.39,4.48-1.17.9-.78,1.36-1.78,1.36-3.02,0-.73-.17-1.37-.52-1.94-.35-.57-.84-1.02-1.49-1.35-.65-.33-1.35-.49-2.1-.49-1.15,0-2.09.35-2.81,1.04-.72.69-1.08,1.53-1.08,2.52,0,.57.13,1.11.39,1.62.26.52.67.95,1.21,1.31-1.2,0-2.13-.15-2.78-.42-.65-.27-1.14-.64-1.48-1.11-.26-.35-.39-.77-.39-1.24,0-.59.21-1.08.63-1.48.26-.24.68-.43,1.26-.56l-.11-1.47c-.94.12-1.67.48-2.2,1.09M176.23,1205.21c-.48-.46-.72-1.04-.72-1.7s.24-1.23.72-1.68c.48-.44,1.13-.66,1.96-.66s1.55.23,2.05.68c.5.45.75.99.75,1.61,0,.43-.12.84-.36,1.23-.24.39-.6.69-1.06.91-.47.22-.95.32-1.46.32-.77,0-1.4-.23-1.88-.7M180.33,1197.26h1.68v-1.68h-1.68v1.68ZM182.01,1188.19c0-.77-.07-1.42-.2-1.94-.14-.53-.33-.97-.6-1.32-.26-.35-.64-.65-1.12-.89-.49-.24-1.01-.36-1.57-.36-.7,0-1.31.2-1.82.59-.51.39-.88.95-1.09,1.68-.28-.56-.64-.99-1.1-1.26-.46-.28-.94-.42-1.45-.42-.55,0-1.08.16-1.59.48-.5.31-.88.75-1.12,1.31-.24.56-.36,1.29-.36,2.22v4.52h12.03v-4.6ZM171.4,1191.19v-2.41c0-.87.06-1.48.17-1.84.11-.35.32-.63.62-.82.3-.19.65-.29,1.05-.29.42,0,.77.1,1.05.31.28.21.48.51.6.92.09.31.14.82.14,1.52v2.61h-3.63ZM176.45,1191.19v-2.79c0-.77.07-1.35.2-1.77.13-.41.36-.73.69-.96.33-.23.72-.35,1.17-.35.38,0,.72.08,1.01.24.29.16.52.37.67.61.15.25.26.56.33.92.04.21.06.57.06,1.08v3h-4.13ZM180.33,1181.17h1.68v-1.69h-1.68v1.69ZM171.56,1171.23c.86.75,1.9,1.46,3.15,2.13,1.24.67,2.54,1.18,3.88,1.53,1.34.36,2.48.54,3.43.56v-1.52c-1.2-.08-2.3-.27-3.31-.57-1.43-.41-2.82-1-4.16-1.75-1.35-.75-2.43-1.51-3.25-2.28h-1.15v7.81h1.42v-5.9ZM180.33,1166.95h1.68v-1.69h-1.68v1.69ZM181.28,1161.81c.63-.7.94-1.58.94-2.64,0-1.17-.37-2.15-1.1-2.91s-1.62-1.15-2.67-1.15c-.78,0-1.42.2-1.94.59s-.86.95-1.02,1.66c-.25-.55-.59-.96-1.02-1.24-.43-.28-.9-.42-1.42-.42-.55,0-1.06.15-1.55.44-.49.29-.87.72-1.15,1.27-.28.56-.42,1.16-.42,1.82,0,.95.27,1.75.81,2.4.55.64,1.31,1.05,2.3,1.23l.26-1.48c-.72-.11-1.26-.36-1.62-.74-.36-.38-.54-.87-.54-1.44s.18-1.06.53-1.42c.36-.37.8-.55,1.34-.55.68,0,1.19.25,1.52.76.33.5.49,1.07.49,1.7,0,.06,0,.14-.02.24l1.3.16c-.11-.42-.17-.76-.17-1.04,0-.69.22-1.25.66-1.7.44-.44,1-.66,1.68-.66.71,0,1.31.24,1.79.72.48.48.72,1.07.72,1.77,0,.59-.19,1.08-.55,1.49-.37.41-.97.7-1.81.87l.2,1.48c1-.1,1.82-.5,2.44-1.2"/>
    <line class="st3" x1="621.81" y1="983.55" x2="740.96" y2="931.57"/>
  </g>
  <line class="st3" x1="438.08" y1="772.42" x2="438.08" y2="836.22"/>
  <polygon class="st13" points="667.47 762.1 667.47 762.51 739.13 762.51 739.13 900.47 740.04 900.91 740.04 762.1 667.47 762.1"/>
  <g class="st4">
    <path class="st13" d="M667.47,865.01v-102.5h71.66v137.96l-15.93-7.88c-3.74-1.85-7.12-3.52-10.18-5.04-1.02-.5-2.01-.99-2.96-1.46-.96-.48-1.87-.93-2.76-1.37-2.66-1.32-5.02-2.48-7.12-3.52-1.4-.69-2.69-1.33-3.86-1.91-.59-.29-1.15-.57-1.68-.83-.54-.27-1.05-.53-1.54-.76-.24-.12-.48-.24-.71-.36-.43-.21-.83-.41-1.22-.6-.45-.22-.88-.44-1.28-.64-.37-.19-.72-.35-1.06-.53-.66-.33-1.23-.61-1.75-.86-.25-.13-.49-.25-.71-.35-.11-.06-.21-.11-.32-.16-.21-.1-.39-.2-.57-.28-.08-.05-.17-.08-.25-.12-.32-.16-.58-.29-.8-.4-.06-.03-.1-.06-.15-.07-.1-.05-.19-.1-.27-.13-.08-.04-.14-.07-.21-.1-.29-.15-.37-.19-.4-.2h0s-15.92-7.88-15.92-7.88Z"/>
    <path class="st13" d="M667.47,921.75v-56.74l15.92,7.88h0v28.26c0,1.81,1.47,3.28,3.29,3.28h33.24c1.81,0,3.28-1.47,3.28-3.28v-8.57l15.93,7.89v21.28h-71.66Z"/>
    <polygon class="st13" points="683.39 872.89 683.39 872.89 683.4 872.89 683.39 872.89"/>
    <path class="st13" d="M683.39,901.15v-28.26h0s.11.05.4.2l.21.1.27.13s.09.05.15.08l.81.4c.08.04.17.07.25.12l.57.28c.11.05.21.1.32.16l.71.35c.51.25,1.09.53,1.75.86l1.06.52c.4.2.83.41,1.28.64l1.22.6c.23.11.47.23.71.36l1.54.76c.53.26,1.1.54,1.68.83l3.86,1.91c2.1,1.04,4.46,2.2,7.12,3.52l2.76,1.37,2.96,1.46c3.06,1.51,6.44,3.19,10.18,5.04v8.56c0,1.81-1.47,3.28-3.29,3.28h-33.24c-1.82,0-3.29-1.47-3.29-3.28"/>
    <path class="st13" d="M684.01,873.19l-.21-.1c.07.03.13.07.21.1"/>
    <path class="st13" d="M684.28,873.32l-.27-.13c.08.04.17.08.27.13"/>
    <path class="st13" d="M685.24,873.8l-.8-.4.8.4"/>
    <path class="st13" d="M686.06,874.2l-.57-.28c.18.08.36.18.57.28"/>
    <path class="st13" d="M687.09,874.72l-.71-.35c.22.11.46.22.71.35"/>
    <path class="st13" d="M689.9,876.11l-1.06-.53c.34.17.69.34,1.06.53"/>
    <path class="st13" d="M692.4,877.34l-1.22-.6c.38.19.78.4,1.22.6"/>
    <path class="st13" d="M694.65,878.46l-1.54-.76c.49.23.99.49,1.54.76"/>
    <path class="st13" d="M700.19,881.2l-3.86-1.91c1.17.58,2.45,1.22,3.86,1.91"/>
    <path class="st13" d="M710.07,886.09l-2.76-1.37c.89.44,1.81.89,2.76,1.37"/>
    <path class="st13" d="M713.02,887.55l-2.96-1.46c.94.47,1.94.95,2.96,1.46"/>
  </g>
  <polyline class="st1" points="739.13 900.47 739.13 921.75 667.47 921.75 667.47 865.01"/>
  <polyline class="st1" points="723.2 892.58 739.13 900.47 740.04 900.92 740.04 762.1 667.47 762.1 667.47 762.51 667.47 865.01 683.39 872.88"/>
  <polyline class="st1" points="707.3 884.72 710.07 886.09 713.02 887.55"/>
  <line class="st1" x1="696.33" y1="879.29" x2="700.19" y2="881.2"/>
  <line class="st1" x1="693.11" y1="877.7" x2="694.65" y2="878.45"/>
  <line class="st1" x1="691.18" y1="876.74" x2="692.4" y2="877.34"/>
  <line class="st1" x1="688.84" y1="875.58" x2="689.9" y2="876.11"/>
  <line class="st1" x1="686.38" y1="874.36" x2="687.09" y2="874.72"/>
  <line class="st1" x1="685.49" y1="873.92" x2="686.06" y2="874.21"/>
  <line class="st1" x1="684.43" y1="873.4" x2="685.24" y2="873.8"/>
  <polyline class="st1" points="683.8 873.09 684.01 873.19 684.28 873.32"/>
  <line class="st1" x1="683.39" y1="872.89" x2="683.4" y2="872.89"/>
  <line class="st1" x1="719.92" y1="904.43" x2="686.68" y2="904.43"/>
  <g class="st7">
    <path class="st1" d="M686.68,904.43c-1.82,0-3.29-1.47-3.29-3.28"/>
    <path class="st1" d="M723.2,901.15c0,1.81-1.47,3.28-3.29,3.28"/>
    <path class="st1" d="M723.2,901.15v-8.56c-3.73-1.85-7.12-3.52-10.18-5.04-1.02-.51-2.01-1-2.96-1.46-.96-.48-1.88-.93-2.76-1.37-2.66-1.32-5.02-2.48-7.11-3.52-1.41-.69-2.69-1.33-3.86-1.91-.59-.29-1.15-.57-1.69-.83-.54-.27-1.05-.52-1.53-.76-.24-.12-.48-.25-.71-.36-.43-.21-.83-.41-1.22-.6-.45-.22-.88-.44-1.28-.64-.37-.19-.72-.35-1.06-.52-.65-.33-1.24-.61-1.75-.86-.25-.13-.49-.24-.71-.35-.11-.06-.21-.11-.32-.16-.21-.1-.4-.2-.57-.28-.08-.05-.17-.08-.25-.12-.32-.16-.58-.29-.8-.4-.06-.03-.1-.06-.15-.08-.1-.05-.19-.09-.27-.13-.08-.04-.14-.07-.21-.1-.29-.15-.37-.19-.4-.2h0s0,0,0,0v28.26"/>
  </g>
  <g class="st5">
    <path class="st13" d="M662.77,990.11c0,7.71,0,15.42-.02,23.12,0,8.89-6.41,16.09-14.31,16.08-7.9,0-14.28-7.21-14.27-16.1,0-7.7,0-15.41,0-23.12,9.52,0,19.06.02,28.59.02"/>
  </g>
  <g class="st6">
    <path class="st3" d="M662.77,990.11c0,7.71,0,15.42-.02,23.12,0,8.89-6.41,16.09-14.31,16.08-7.9,0-14.28-7.21-14.27-16.1,0-7.7,0-15.41,0-23.12,9.52,0,19.06.02,28.59.02Z"/>
  </g>
  <rect class="st13" x="669.4" y="989.56" width="63.89" height="63.21"/>
  <polyline class="st3" points="733.29 989.56 733.29 1052.77 725.72 1052.77"/>
  <line class="st3" x1="733.29" y1="989.56" x2="669.9" y2="989.56"/>
  <line class="st3" x1="669.4" y1="990.6" x2="669.4" y2="1052.22"/>
  <polyline class="st3" points="669.4 990.6 669.4 989.56 669.9 989.56"/>
  <polyline class="st3" points="670.34 1052.77 669.4 1052.77 669.4 1052.22"/>
  <line class="st3" x1="670.34" y1="1052.77" x2="725.72" y2="1052.77"/>
  <line class="st3" x1="701.59" y1="989.56" x2="701.59" y2="1007.12"/>
  <g class="st12">
    <path class="st3" d="M705.44,1007.04c0-2.17-1.76-3.93-3.93-3.93s-3.93,1.76-3.93,3.93,1.76,3.93,3.93,3.93,3.93-1.76,3.93-3.93Z"/>
    <path class="st3" d="M705.44,1007.04c0-2.17-1.76-3.93-3.93-3.93s-3.93,1.76-3.93,3.93,1.76,3.93,3.93,3.93,3.93-1.76,3.93-3.93Z"/>
  </g>
  <g class="st9">
    <path class="st13" d="M706.85,1073.55h26.45v37.12h-26.45c-.58,0-1.06-.35-1.06-.78v-35.7c0-.35.48-.63,1.06-.63M723.42,1074.18h-15.5c-.59,0-1.07.35-1.07.78v34.13c0,.44.48.79,1.07.79h15.5c.58,0,1.06-.35,1.06-.79v-34.13c0-.43-.48-.78-1.06-.78M729.2,1089.92c-1.17,0-2.1.95-2.1,2.1s.93,2.11,2.1,2.11,2.1-.94,2.1-2.11-.94-2.1-2.1-2.1"/>
    <path class="st13" d="M707.93,1074.18h15.49c.58,0,1.06.35,1.06.78v34.13c0,.44-.48.79-1.06.79h-15.49c-.59,0-1.07-.35-1.07-.79v-34.13c0-.43.48-.78,1.07-.78M715.4,1089.22c-1.55,0-2.81,1.25-2.81,2.8s1.26,2.81,2.81,2.81,2.8-1.26,2.8-2.81-1.25-2.8-2.8-2.8"/>
    <path class="st13" d="M712.59,1092.02c0-1.55,1.26-2.8,2.81-2.8s2.8,1.25,2.8,2.8-1.25,2.81-2.8,2.81-2.81-1.26-2.81-2.81M715.4,1090.52c-.83,0-1.51.67-1.51,1.5s.68,1.51,1.51,1.51,1.51-.68,1.51-1.51-.68-1.5-1.51-1.5"/>
    <path class="st13" d="M727.1,1092.02c0-1.16.94-2.1,2.1-2.1s2.1.95,2.1,2.1-.93,2.11-2.1,2.11-2.1-.94-2.1-2.11"/>
    <path class="st13" d="M713.89,1092.02c0-.83.68-1.5,1.51-1.5s1.51.67,1.51,1.5-.68,1.51-1.51,1.51-1.51-.68-1.51-1.51"/>
  </g>
  <g class="st8">
    <path class="st3" d="M729.2,1094.13c-1.17,0-2.1-.95-2.1-2.11s.93-2.1,2.1-2.1,2.1.94,2.1,2.1-.94,2.11-2.1,2.11Z"/>
    <path class="st3" d="M715.4,1094.83c-1.55,0-2.81-1.26-2.81-2.81s1.26-2.8,2.81-2.8,2.8,1.25,2.8,2.8-1.25,2.81-2.8,2.81Z"/>
    <path class="st3" d="M715.4,1093.53c-.83,0-1.51-.68-1.51-1.51s.68-1.5,1.51-1.5,1.51.67,1.51,1.5-.68,1.51-1.51,1.51Z"/>
    <path class="st3" d="M723.42,1074.18h-15.5c-.59,0-1.07.35-1.07.78v34.13c0,.44.48.79,1.07.79h15.5c.58,0,1.06-.35,1.06-.79v-34.13c0-.43-.48-.78-1.06-.78Z"/>
  </g>
  <line class="st3" x1="725.13" y1="1110.66" x2="733.3" y2="1110.66"/>
  <g class="st11">
    <path class="st3" d="M733.3,1073.55h-26.45c-.58,0-1.06.28-1.06.63v35.7c0,.43.48.78,1.06.78h8.38"/>
  </g>
  <line class="st3" x1="725.13" y1="1110.66" x2="715.24" y2="1110.66"/>
  <line class="st3" x1="733.3" y1="1110.66" x2="733.3" y2="1073.55"/>
  <polygon class="st13" points="461.82 755.55 453.72 756.9 446.3 760.61 446.3 760.95 446.63 760.95 447.31 760.95 447.65 760.95 447.98 760.95 448.32 760.95 450.01 759.93 451.7 759.26 453.05 759.6 454.06 760.61 454.06 761.28 453.72 761.62 448.32 766.35 444.61 772.42 479.04 772.42 475.32 766.35 469.92 761.62 469.25 761.28 469.59 760.61 470.6 759.6 471.95 759.26 473.64 759.93 475.32 760.95 475.66 760.95 476 760.95 476.34 760.95 477.01 760.95 477.35 760.61 469.92 756.9 461.82 755.55"/>
  <polygon class="st13" points="509.75 755.55 501.31 756.9 494.22 760.61 494.22 760.95 494.56 760.95 494.9 760.95 495.58 760.95 495.91 760.95 496.25 760.95 497.94 759.93 499.63 759.26 500.98 759.6 501.99 760.61 501.99 761.28 501.65 761.62 495.91 766.35 492.54 772.42 526.97 772.42 523.25 766.35 517.51 761.62 517.18 761.28 517.18 760.61 518.19 759.6 519.88 759.26 521.56 759.93 522.92 760.95 523.25 760.95 523.93 760.95 524.27 760.95 524.6 760.95 524.94 760.95 525.28 760.61 517.85 756.9 509.75 755.55"/>
  <polygon class="st13" points="526.97 772.42 492.54 772.42 479.04 772.42 444.61 772.42 437.86 772.42 437.86 836.22 444.61 836.22 479.04 836.22 492.54 836.22 526.97 836.22 533.38 836.22 533.38 772.42 526.97 772.42"/>
  <polygon class="st13" points="444.61 836.22 448.32 842.29 453.72 847.02 454.06 847.35 454.06 848.03 453.05 849.04 451.7 849.38 450.01 848.7 448.32 847.69 447.98 847.69 447.65 847.69 447.31 847.69 446.63 847.69 446.3 847.69 446.3 848.03 453.72 851.74 461.82 853.09 469.92 851.74 477.35 848.03 477.01 847.69 476.34 847.69 476 847.69 475.66 847.69 475.32 847.69 473.64 848.7 471.95 849.38 470.6 849.04 469.59 848.03 469.25 847.35 469.92 847.02 475.32 842.29 479.04 836.22 444.61 836.22"/>
  <polygon class="st13" points="492.54 836.22 495.91 842.29 501.65 847.02 501.99 847.35 501.99 848.03 500.98 849.04 499.63 849.38 497.94 848.7 496.25 847.69 495.91 847.69 495.58 847.69 494.9 847.69 494.56 847.69 494.23 847.69 494.23 848.03 501.31 851.74 509.75 853.09 517.85 851.74 525.28 848.03 524.94 847.69 524.6 847.69 524.27 847.69 523.93 847.69 523.25 847.69 522.92 847.69 521.57 848.7 519.88 849.38 518.19 849.04 517.18 848.03 517.18 847.35 517.51 847.02 523.25 842.29 526.97 836.22 492.54 836.22"/>
  <line class="st3" x1="448.32" y1="847.69" x2="447.98" y2="847.69"/>
  <line class="st3" x1="447.98" y1="847.69" x2="447.65" y2="847.69"/>
  <line class="st3" x1="446.63" y1="847.69" x2="447.31" y2="847.69"/>
  <line class="st3" x1="447.31" y1="847.69" x2="447.65" y2="847.69"/>
  <line class="st3" x1="446.3" y1="848.03" x2="446.3" y2="847.69"/>
  <line class="st3" x1="446.3" y1="847.69" x2="446.63" y2="847.69"/>
  <line class="st3" x1="454.06" y1="848.03" x2="453.05" y2="849.04"/>
  <line class="st3" x1="453.05" y1="849.04" x2="451.7" y2="849.38"/>
  <line class="st3" x1="451.7" y1="849.38" x2="450.01" y2="848.71"/>
  <line class="st3" x1="450.01" y1="848.7" x2="448.32" y2="847.69"/>
  <line class="st3" x1="453.72" y1="847.02" x2="454.06" y2="847.35"/>
  <line class="st3" x1="454.06" y1="847.35" x2="454.06" y2="848.03"/>
  <line class="st3" x1="453.72" y1="847.02" x2="448.32" y2="842.29"/>
  <line class="st3" x1="448.32" y1="842.29" x2="444.61" y2="836.22"/>
  <line class="st3" x1="475.32" y1="847.69" x2="475.66" y2="847.69"/>
  <line class="st3" x1="475.66" y1="847.69" x2="476" y2="847.69"/>
  <line class="st3" x1="477.01" y1="847.69" x2="476.34" y2="847.69"/>
  <line class="st3" x1="476.34" y1="847.69" x2="476" y2="847.69"/>
  <line class="st3" x1="477.35" y1="848.03" x2="477.01" y2="847.69"/>
  <line class="st3" x1="469.59" y1="848.03" x2="470.6" y2="849.04"/>
  <line class="st3" x1="470.6" y1="849.04" x2="471.95" y2="849.38"/>
  <line class="st3" x1="471.95" y1="849.38" x2="473.64" y2="848.71"/>
  <line class="st3" x1="473.64" y1="848.7" x2="475.32" y2="847.69"/>
  <line class="st3" x1="469.92" y1="847.02" x2="469.25" y2="847.35"/>
  <line class="st3" x1="469.25" y1="847.35" x2="469.59" y2="848.03"/>
  <line class="st3" x1="469.92" y1="847.02" x2="475.32" y2="842.29"/>
  <line class="st3" x1="475.32" y1="842.29" x2="479.04" y2="836.22"/>
  <line class="st3" x1="446.3" y1="848.03" x2="453.72" y2="851.74"/>
  <line class="st3" x1="453.72" y1="851.74" x2="461.82" y2="853.09"/>
  <line class="st3" x1="461.82" y1="853.09" x2="469.92" y2="851.74"/>
  <line class="st3" x1="469.92" y1="851.74" x2="477.35" y2="848.03"/>
  <line class="st3" x1="448.32" y1="760.95" x2="447.98" y2="760.95"/>
  <line class="st3" x1="447.98" y1="760.95" x2="447.65" y2="760.95"/>
  <line class="st3" x1="446.63" y1="760.95" x2="447.31" y2="760.95"/>
  <line class="st3" x1="447.31" y1="760.95" x2="447.65" y2="760.95"/>
  <line class="st3" x1="446.3" y1="760.61" x2="446.3" y2="760.95"/>
  <line class="st3" x1="446.3" y1="760.95" x2="446.63" y2="760.95"/>
  <line class="st3" x1="454.06" y1="760.61" x2="453.05" y2="759.6"/>
  <line class="st3" x1="453.05" y1="759.6" x2="451.7" y2="759.26"/>
  <line class="st3" x1="451.7" y1="759.26" x2="450.01" y2="759.93"/>
  <line class="st3" x1="450.01" y1="759.94" x2="448.32" y2="760.95"/>
  <line class="st3" x1="453.72" y1="761.62" x2="454.06" y2="761.29"/>
  <line class="st3" x1="454.06" y1="761.29" x2="454.06" y2="760.61"/>
  <line class="st3" x1="453.72" y1="761.62" x2="448.32" y2="766.35"/>
  <line class="st3" x1="448.32" y1="766.35" x2="444.61" y2="772.42"/>
  <line class="st3" x1="475.32" y1="760.95" x2="475.66" y2="760.95"/>
  <line class="st3" x1="475.66" y1="760.95" x2="476" y2="760.95"/>
  <line class="st3" x1="477.01" y1="760.95" x2="476.34" y2="760.95"/>
  <line class="st3" x1="476.34" y1="760.95" x2="476" y2="760.95"/>
  <line class="st3" x1="477.35" y1="760.61" x2="477.01" y2="760.95"/>
  <line class="st3" x1="469.59" y1="760.61" x2="470.6" y2="759.6"/>
  <line class="st3" x1="470.6" y1="759.6" x2="471.95" y2="759.26"/>
  <line class="st3" x1="471.95" y1="759.26" x2="473.64" y2="759.93"/>
  <line class="st3" x1="473.64" y1="759.94" x2="475.32" y2="760.95"/>
  <line class="st3" x1="469.92" y1="761.62" x2="469.25" y2="761.29"/>
  <line class="st3" x1="469.25" y1="761.29" x2="469.59" y2="760.61"/>
  <line class="st3" x1="469.92" y1="761.62" x2="475.32" y2="766.35"/>
  <line class="st3" x1="475.32" y1="766.35" x2="479.04" y2="772.42"/>
  <line class="st3" x1="446.3" y1="760.61" x2="453.72" y2="756.9"/>
  <line class="st3" x1="453.72" y1="756.9" x2="461.82" y2="755.55"/>
  <line class="st3" x1="461.82" y1="755.55" x2="469.92" y2="756.9"/>
  <line class="st3" x1="469.92" y1="756.9" x2="477.35" y2="760.61"/>
  <line class="st3" x1="437.86" y1="772.42" x2="437.86" y2="836.22"/>
  <line class="st3" x1="522.91" y1="847.69" x2="523.25" y2="847.69"/>
  <line class="st3" x1="523.25" y1="847.69" x2="523.93" y2="847.69"/>
  <line class="st3" x1="524.6" y1="847.69" x2="524.27" y2="847.69"/>
  <line class="st3" x1="524.26" y1="847.69" x2="523.93" y2="847.69"/>
  <line class="st3" x1="525.28" y1="848.03" x2="524.94" y2="847.69"/>
  <line class="st3" x1="524.94" y1="847.69" x2="524.6" y2="847.69"/>
  <line class="st3" x1="517.18" y1="848.03" x2="518.19" y2="849.04"/>
  <line class="st3" x1="518.19" y1="849.04" x2="519.88" y2="849.38"/>
  <line class="st3" x1="519.88" y1="849.38" x2="521.56" y2="848.71"/>
  <line class="st3" x1="521.56" y1="848.7" x2="522.91" y2="847.69"/>
  <line class="st3" x1="517.51" y1="847.02" x2="517.18" y2="847.35"/>
  <line class="st3" x1="517.18" y1="847.35" x2="517.18" y2="848.03"/>
  <line class="st3" x1="517.51" y1="847.02" x2="523.25" y2="842.29"/>
  <line class="st3" x1="523.25" y1="842.29" x2="526.97" y2="836.22"/>
  <line class="st3" x1="496.25" y1="847.69" x2="495.91" y2="847.69"/>
  <line class="st3" x1="495.91" y1="847.69" x2="495.58" y2="847.69"/>
  <line class="st3" x1="494.56" y1="847.69" x2="494.9" y2="847.69"/>
  <line class="st3" x1="494.9" y1="847.69" x2="495.57" y2="847.69"/>
  <line class="st3" x1="494.22" y1="848.03" x2="494.22" y2="847.69"/>
  <line class="st3" x1="494.22" y1="847.69" x2="494.56" y2="847.69"/>
  <line class="st3" x1="501.99" y1="848.03" x2="500.98" y2="849.04"/>
  <line class="st3" x1="500.98" y1="849.04" x2="499.63" y2="849.38"/>
  <line class="st3" x1="499.63" y1="849.38" x2="497.94" y2="848.71"/>
  <line class="st3" x1="497.94" y1="848.7" x2="496.25" y2="847.69"/>
  <line class="st3" x1="501.65" y1="847.02" x2="501.99" y2="847.35"/>
  <line class="st3" x1="501.99" y1="847.35" x2="501.99" y2="848.03"/>
  <line class="st3" x1="501.65" y1="847.02" x2="495.91" y2="842.29"/>
  <line class="st3" x1="495.91" y1="842.29" x2="492.54" y2="836.22"/>
  <line class="st3" x1="525.28" y1="848.03" x2="517.85" y2="851.74"/>
  <line class="st3" x1="517.85" y1="851.74" x2="509.75" y2="853.09"/>
  <line class="st3" x1="509.75" y1="853.09" x2="501.31" y2="851.74"/>
  <line class="st3" x1="501.31" y1="851.74" x2="494.23" y2="848.03"/>
  <line class="st3" x1="522.91" y1="760.95" x2="523.25" y2="760.95"/>
  <line class="st3" x1="523.25" y1="760.95" x2="523.93" y2="760.95"/>
  <line class="st3" x1="524.6" y1="760.95" x2="524.27" y2="760.95"/>
  <line class="st3" x1="524.26" y1="760.95" x2="523.93" y2="760.95"/>
  <line class="st3" x1="525.28" y1="760.61" x2="524.94" y2="760.95"/>
  <line class="st3" x1="524.94" y1="760.95" x2="524.6" y2="760.95"/>
  <line class="st3" x1="517.18" y1="760.61" x2="518.19" y2="759.6"/>
  <line class="st3" x1="518.19" y1="759.6" x2="519.88" y2="759.26"/>
  <line class="st3" x1="519.88" y1="759.26" x2="521.56" y2="759.93"/>
  <line class="st3" x1="521.56" y1="759.94" x2="522.91" y2="760.95"/>
  <line class="st3" x1="517.51" y1="761.62" x2="517.18" y2="761.29"/>
  <line class="st3" x1="517.18" y1="761.29" x2="517.18" y2="760.61"/>
  <line class="st3" x1="517.51" y1="761.62" x2="523.25" y2="766.35"/>
  <line class="st3" x1="523.25" y1="766.35" x2="526.97" y2="772.42"/>
  <line class="st3" x1="496.25" y1="760.95" x2="495.91" y2="760.95"/>
  <line class="st3" x1="495.91" y1="760.95" x2="495.58" y2="760.95"/>
  <line class="st3" x1="494.56" y1="760.95" x2="494.9" y2="760.95"/>
  <line class="st3" x1="494.9" y1="760.95" x2="495.57" y2="760.95"/>
  <line class="st3" x1="494.22" y1="760.61" x2="494.22" y2="760.95"/>
  <line class="st3" x1="494.22" y1="760.95" x2="494.56" y2="760.95"/>
  <line class="st3" x1="501.99" y1="760.61" x2="500.98" y2="759.6"/>
  <line class="st3" x1="500.98" y1="759.6" x2="499.63" y2="759.26"/>
  <line class="st3" x1="499.63" y1="759.26" x2="497.94" y2="759.93"/>
  <line class="st3" x1="497.94" y1="759.94" x2="496.25" y2="760.95"/>
  <line class="st3" x1="501.65" y1="761.62" x2="501.99" y2="761.29"/>
  <line class="st3" x1="501.99" y1="761.29" x2="501.99" y2="760.61"/>
  <line class="st3" x1="501.65" y1="761.62" x2="495.91" y2="766.35"/>
  <line class="st3" x1="495.91" y1="766.35" x2="492.54" y2="772.42"/>
  <line class="st3" x1="525.28" y1="760.61" x2="517.85" y2="756.9"/>
  <line class="st3" x1="517.85" y1="756.9" x2="509.75" y2="755.55"/>
  <line class="st3" x1="509.75" y1="755.55" x2="501.31" y2="756.9"/>
  <line class="st3" x1="501.31" y1="756.9" x2="494.23" y2="760.61"/>
  <line class="st3" x1="533.38" y1="772.42" x2="533.38" y2="836.22"/>
  <polyline class="st3" points="533.38 836.22 526.97 836.22 492.54 836.22 479.04 836.22 444.61 836.22 437.86 836.22"/>
  <polyline class="st3" points="437.86 772.42 444.61 772.42 479.04 772.42 492.54 772.42 526.97 772.42 533.38 772.42"/>
  <line class="st3" x1="443.72" y1="1030.46" x2="454.39" y2="1030.46"/>
  <rect class="st3" x="437.59" y="1006.5" width="47.78" height="117.89"/>
  <line class="st3" x1="470.37" y1="1086.57" x2="470.37" y2="1097"/>
  <line class="st3" x1="450.76" y1="1086.57" x2="450.76" y2="1097"/>
  <line class="st3" x1="455.9" y1="1091.72" x2="445.47" y2="1091.72"/>
  <line class="st3" x1="475.65" y1="1091.72" x2="465.22" y2="1091.72"/>
  <rect class="st3" x="440.88" y="1080.59" width="39.36" height="22.95"/>
  <rect class="st3" x="447.96" y="1017.12" width="26.55" height="26.54"/>
  <rect class="st3" x="441.36" y="1010.52" width="39.75" height="39.89"/>
  <g class="st10">
    <path class="st13" d="M640.04,881.1c10.26,0,18.57,8.32,18.57,18.57s-8.31,18.57-18.57,18.57-18.57-8.31-18.57-18.57,8.31-18.57,18.57-18.57"/>
    <path class="st1" d="M640.04,881.1c10.26,0,18.57,8.32,18.57,18.57s-8.31,18.57-18.57,18.57-18.57-8.31-18.57-18.57,8.31-18.57,18.57-18.57Z"/>
  </g>
</svg>