<?xml version="1.0" encoding="UTF-8"?>
<svg id="Layer_1" xmlns="http://www.w3.org/2000/svg" xmlns:xlink="http://www.w3.org/1999/xlink" version="1.1" viewBox="0 0 1200 1697.14">
  <!-- Generator: Adobe Illustrator 29.6.0, SVG Export Plug-In . SVG Version: 2.1.1 Build 207)  -->
  <defs>
    <style>
      .st0, .st1, .st2, .st3 {
        fill: none;
      }

      .st1 {
        stroke: #0d0e1c;
      }

      .st1, .st2, .st3 {
        stroke-linecap: round;
        stroke-linejoin: round;
      }

      .st1, .st3 {
        stroke-width: .08px;
      }

      .st2 {
        stroke-width: .14px;
      }

      .st2, .st3 {
        stroke: #000;
      }

      .st4 {
        clip-path: url(#clippath-11);
      }

      .st5 {
        clip-path: url(#clippath-10);
      }

      .st6 {
        clip-path: url(#clippath-15);
      }

      .st7 {
        clip-path: url(#clippath-13);
      }

      .st8 {
        clip-path: url(#clippath-14);
      }

      .st9 {
        clip-path: url(#clippath-12);
      }

      .st10 {
        clip-path: url(#clippath-1);
      }

      .st11 {
        clip-path: url(#clippath-3);
      }

      .st12 {
        clip-path: url(#clippath-4);
      }

      .st13 {
        clip-path: url(#clippath-2);
      }

      .st14 {
        clip-path: url(#clippath-7);
      }

      .st15 {
        clip-path: url(#clippath-6);
      }

      .st16 {
        clip-path: url(#clippath-9);
      }

      .st17 {
        clip-path: url(#clippath-8);
      }

      .st18 {
        clip-path: url(#clippath-5);
      }

      .st19 {
        fill: #fff;
      }

      .st20 {
        fill: #ece9e5;
      }

      .st21 {
        stroke: #231f20;
        stroke-miterlimit: 10;
        stroke-width: .09px;
      }

      .st21, .st22 {
        fill: #302c35;
      }

      .st23 {
        clip-path: url(#clippath);
      }
    </style>
    <clipPath id="clippath">
      <rect class="st0" x="737.21" y="930.63" width="72.57" height="159.65"/>
    </clipPath>
    <clipPath id="clippath-1">
      <rect class="st0" x="221.74" y="441.48" width="756.52" height="814.19"/>
    </clipPath>
    <clipPath id="clippath-2">
      <rect class="st0" x="706.87" y="820.22" width="28.6" height="39.22"/>
    </clipPath>
    <clipPath id="clippath-3">
      <rect class="st0" x="221.74" y="441.48" width="756.52" height="814.19"/>
    </clipPath>
    <clipPath id="clippath-4">
      <rect class="st0" x="221.74" y="441.48" width="756.52" height="814.19"/>
    </clipPath>
    <clipPath id="clippath-5">
      <rect class="st0" x="779.11" y="739.01" width="26.88" height="36.26"/>
    </clipPath>
    <clipPath id="clippath-6">
      <rect class="st0" x="221.74" y="441.48" width="756.52" height="814.19"/>
    </clipPath>
    <clipPath id="clippath-7">
      <rect class="st0" x="221.74" y="441.48" width="756.52" height="814.19"/>
    </clipPath>
    <clipPath id="clippath-8">
      <rect class="st0" x="221.74" y="441.48" width="756.52" height="814.19"/>
    </clipPath>
    <clipPath id="clippath-9">
      <rect class="st0" x="519.54" y="724.74" width="47.57" height="97.55"/>
    </clipPath>
    <clipPath id="clippath-10">
      <rect class="st0" x="221.74" y="441.48" width="756.52" height="814.19"/>
    </clipPath>
    <clipPath id="clippath-11">
      <rect class="st0" x="565.96" y="724.74" width="47.56" height="97.55"/>
    </clipPath>
    <clipPath id="clippath-12">
      <rect class="st0" x="221.74" y="441.48" width="756.52" height="814.19"/>
    </clipPath>
    <clipPath id="clippath-13">
      <rect class="st0" x="221.74" y="441.48" width="756.52" height="814.19"/>
    </clipPath>
    <clipPath id="clippath-14">
      <rect class="st0" x="494.17" y="865.4" width="65.16" height="65.12"/>
    </clipPath>
    <clipPath id="clippath-15">
      <rect class="st0" x="221.74" y="441.48" width="756.52" height="814.19"/>
    </clipPath>
  </defs>
  <rect class="st20" x="468.2" y="581.29" width="363.52" height="609.57"/>
  <rect class="st20" x="498.57" y="473.95" width="211.97" height="154.93"/>
  <rect class="st20" x="356.47" y="821.27" width="184.46" height="249.43"/>
  <rect class="st19" x="567.53" y="1174.66" width="210.27" height="16.2"/>
  <rect class="st19" x="468.19" y="815.03" width="16.2" height="231.71"/>
  <rect class="st19" x="468.19" y="615.38" width="16.2" height="82.02"/>
  <rect class="st19" x="491.48" y="481.89" width="203.19" height="55.86"/>
  <rect class="st19" x="502.88" y="513.78" width="59.82" height="47.59"/>
  <rect class="st22" x="769.61" y="1144.28" width="62.1" height="15.86"/>
  <rect class="st22" x="694.67" y="581.29" width="137.04" height="16.2"/>
  <rect class="st22" x="814.16" y="677.82" width="17.55" height="466.46"/>
  <rect class="st22" x="356.47" y="821.27" width="4.05" height="249.43"/>
  <rect class="st22" x="358.5" y="821.1" width="109.7" height="4.05"/>
  <rect class="st22" x="358.5" y="1066.65" width="109.7" height="4.05"/>
  <rect class="st22" x="468.2" y="473.95" width="46.58" height="141.43"/>
  <rect class="st22" x="514.77" y="473.95" width="195.77" height="15.87"/>
  <rect class="st22" x="694.67" y="489.82" width="15.86" height="91.47"/>
  <rect class="st22" x="686.58" y="726.42" width="125.9" height="5.4"/>
  <rect class="st22" x="686.58" y="731.82" width="6.41" height="8.78"/>
  <rect class="st22" x="691.64" y="860.76" width="120.83" height="5.4"/>
  <rect class="st22" x="807.41" y="726.42" width="8.59" height="139.74"/>
  <rect class="st22" x="694.67" y="917.8" width="119.49" height="8.1"/>
  <rect class="st22" x="686.58" y="866.16" width="8.1" height="59.74"/>
  <rect class="st22" x="554.6" y="561.37" width="8.1" height="28.01"/>
  <rect class="st22" x="514.77" y="581.29" width="39.83" height="8.1"/>
  <rect class="st22" x="514.77" y="561.37" width="39.83" height="8.1"/>
  <rect class="st22" x="691.64" y="859.75" width="115.77" height="1.01"/>
  <rect class="st22" x="686.58" y="811.48" width="6.24" height="56.33"/>
  <rect class="st22" x="691.64" y="731.82" width="115.77" height="1.35"/>
  <rect class="st22" x="806.06" y="733.17" width="1.35" height="127.58"/>
  <rect class="st22" x="468.2" y="697.4" width="46.58" height="152.23"/>
  <rect class="st22" x="769.61" y="1160.15" width="62.1" height="30.72"/>
  <rect class="st22" x="468.2" y="1046.74" width="46.58" height="144.12"/>
  <rect class="st22" x="814.16" y="591.8" width="17.55" height="14.46"/>
  <rect class="st22" x="506.84" y="1144.28" width="65.65" height="46.58"/>
  <polygon class="st19" points="737.21 1090.28 809.78 1090.28 809.78 1089.87 738.12 1089.87 738.12 951.9 737.21 951.45 737.21 1090.28"/>
  <polygon class="st19" points="738.11 1089.87 809.77 1089.87 809.77 987.36 793.85 979.48 754.04 959.78 738.11 951.9 738.11 1089.87"/>
  <g class="st23">
    <path class="st19" d="M809.77,930.63v56.74l-15.92-7.89v-28.26c0-1.82-1.47-3.28-3.28-3.28h-33.25c-1.82,0-3.29,1.47-3.29,3.28v8.56l-15.93-7.88v-21.27h71.66Z"/>
    <path class="st19" d="M793.85,951.23v28.26l-39.81-19.7v-8.56c0-1.82,1.47-3.29,3.29-3.29h33.25c1.81,0,3.28,1.47,3.28,3.29"/>
  </g>
  <polyline class="st1" points="738.11 951.9 738.11 930.63 809.78 930.63 809.78 987.36"/>
  <polyline class="st1" points="754.04 959.78 738.11 951.9 737.2 951.45 737.2 1090.28 809.77 1090.28 809.77 1089.87 809.77 987.37 793.85 979.48"/>
  <line class="st1" x1="757.32" y1="947.94" x2="790.57" y2="947.94"/>
  <g class="st10">
    <path class="st1" d="M790.57,947.94c1.81,0,3.28,1.47,3.28,3.29"/>
    <path class="st1" d="M754.04,951.23c0-1.82,1.47-3.29,3.29-3.29"/>
  </g>
  <polyline class="st1" points="754.04 951.23 754.04 959.78 793.85 979.48 793.85 951.23"/>
  <g class="st13">
    <path class="st19" d="M706.87,859.42c0-7.7.01-15.41.01-23.11,0-8.9,6.4-16.09,14.3-16.09,7.9,0,14.3,7.21,14.29,16.11,0,7.7-.01,15.41-.02,23.11-9.53,0-19.05,0-28.58-.02"/>
  </g>
  <g class="st11">
    <path class="st3" d="M706.87,859.42c0-7.7.01-15.41.01-23.11,0-8.9,6.4-16.09,14.3-16.09,7.9,0,14.3,7.21,14.29,16.11,0,7.7-.01,15.41-.02,23.11-9.53,0-19.05,0-28.58-.02Z"/>
  </g>
  <rect class="st19" x="743.59" y="797.44" width="62.49" height="61.83"/>
  <polyline class="st3" points="743.59 859.27 743.59 797.44 751 797.44"/>
  <line class="st3" x1="743.59" y1="859.27" x2="805.59" y2="859.27"/>
  <line class="st3" x1="806.08" y1="858.25" x2="806.08" y2="797.99"/>
  <polyline class="st3" points="806.08 858.25 806.08 859.27 805.59 859.27"/>
  <polyline class="st3" points="805.17 797.44 806.08 797.44 806.08 797.99"/>
  <line class="st3" x1="805.17" y1="797.44" x2="751" y2="797.44"/>
  <line class="st3" x1="774.59" y1="859.27" x2="774.59" y2="842.1"/>
  <g class="st12">
    <path class="st3" d="M770.83,842.18c0,2.12,1.72,3.84,3.84,3.84s3.85-1.72,3.85-3.84-1.72-3.84-3.85-3.84-3.84,1.72-3.84,3.84Z"/>
    <path class="st3" d="M770.83,842.18c0,2.12,1.72,3.84,3.84,3.84s3.85-1.72,3.85-3.84-1.72-3.84-3.85-3.84-3.84,1.72-3.84,3.84Z"/>
  </g>
  <g class="st18">
    <path class="st19" d="M781.2,739.62h15.14c.58,0,1.04.35,1.04.76v33.35c0,.42-.46.77-1.04.77h-15.14c-.58,0-1.05-.35-1.05-.77v-33.35c0-.42.47-.76,1.05-.76M788.5,754.32c-1.51,0-2.73,1.22-2.73,2.74s1.22,2.73,2.73,2.73,2.75-1.22,2.75-2.73-1.23-2.74-2.75-2.74"/>
    <path class="st19" d="M799.93,757.06c0-1.14.92-2.06,2.05-2.06s2.06.92,2.06,2.06-.92,2.05-2.06,2.05-2.05-.92-2.05-2.05"/>
    <path class="st19" d="M788.5,755.59c.81,0,1.48.65,1.48,1.47s-.66,1.46-1.48,1.46-1.48-.65-1.48-1.46.66-1.47,1.48-1.47"/>
    <path class="st19" d="M788.5,758.53c.81,0,1.48-.65,1.48-1.46s-.66-1.47-1.48-1.47-1.47.65-1.47,1.47.66,1.46,1.47,1.46M791.24,757.06c0,1.51-1.23,2.73-2.75,2.73s-2.73-1.22-2.73-2.73,1.22-2.74,2.73-2.74,2.75,1.22,2.75,2.74"/>
    <path class="st19" d="M799.93,757.07c0,1.13.92,2.05,2.05,2.05s2.06-.92,2.06-2.05-.92-2.06-2.06-2.06-2.05.92-2.05,2.06M780.15,773.74c0,.42.47.76,1.05.76h15.14c.58,0,1.04-.35,1.04-.76v-33.35c0-.42-.46-.76-1.04-.76h-15.14c-.58,0-1.05.35-1.05.76v33.35ZM798.01,775.27h-17.85c-.58,0-1.05-.35-1.05-.76v-34.88c0-.34.47-.62,1.05-.62h25.84v36.26h-7.99Z"/>
  </g>
  <g class="st15">
    <path class="st3" d="M801.99,759.12c-1.13,0-2.05-.92-2.05-2.05s.92-2.06,2.05-2.06,2.06.92,2.06,2.06-.92,2.05-2.06,2.05Z"/>
    <path class="st3" d="M788.5,759.8c-1.51,0-2.73-1.22-2.73-2.73s1.22-2.74,2.73-2.74,2.75,1.22,2.75,2.74-1.23,2.73-2.75,2.73Z"/>
    <path class="st3" d="M788.5,758.53c-.81,0-1.48-.65-1.48-1.46s.66-1.47,1.48-1.47,1.48.65,1.48,1.47-.66,1.46-1.48,1.46Z"/>
    <path class="st3" d="M796.34,739.62h-15.14c-.58,0-1.04.35-1.04.76v33.35c0,.42.46.77,1.04.77h15.14c.58,0,1.04-.35,1.04-.77v-33.35c0-.42-.46-.76-1.04-.76Z"/>
  </g>
  <line class="st3" x1="798.01" y1="775.27" x2="806" y2="775.27"/>
  <g class="st14">
    <path class="st3" d="M806,739h-25.84c-.58,0-1.04.28-1.04.62v34.88c0,.42.47.76,1.04.76h8.19"/>
  </g>
  <line class="st3" x1="798.01" y1="775.27" x2="788.35" y2="775.27"/>
  <line class="st3" x1="806" y1="775.27" x2="806" y2="739"/>
  <line class="st3" x1="612.66" y1="497.61" x2="612.66" y2="508.29"/>
  <line class="st3" x1="686.16" y1="523.58" x2="675.73" y2="523.58"/>
  <line class="st3" x1="686.16" y1="503.97" x2="675.73" y2="503.97"/>
  <line class="st3" x1="681.02" y1="509.12" x2="681.02" y2="498.69"/>
  <line class="st3" x1="681.02" y1="528.87" x2="681.02" y2="518.44"/>
  <rect class="st3" x="669.19" y="494.1" width="22.95" height="39.36"/>
  <rect class="st3" x="599.45" y="501.86" width="26.54" height="26.55"/>
  <rect class="st3" x="592.71" y="495.26" width="39.89" height="39.75"/>
  <g class="st17">
    <path class="st19" d="M707.5,965.56c-9.6,0-17.38-7.78-17.38-17.38s7.78-17.38,17.38-17.38,17.38,7.78,17.38,17.38-7.78,17.38-17.38,17.38"/>
    <circle class="st1" cx="707.5" cy="948.18" r="17.38"/>
  </g>
  <g class="st16">
    <polygon class="st19" points="551.61 820.93 543.17 822.28 535.07 820.93 527.64 817.22 527.98 816.88 528.32 816.88 528.66 816.88 528.99 816.88 529.67 816.88 530.01 816.88 531.36 817.89 533.04 818.57 534.73 818.23 535.74 817.22 535.74 816.54 535.41 816.2 529.67 811.48 525.96 805.4 560.38 805.4 557.01 811.48 551.27 816.2 550.93 816.54 550.93 817.22 551.94 818.23 553.29 818.57 554.98 817.89 556.67 816.88 557.01 816.88 557.35 816.88 558.02 816.88 558.36 816.88 558.7 816.88 558.7 817.22 551.61 820.93"/>
    <polygon class="st19" points="525.96 805.4 519.54 805.4 519.54 741.61 525.96 741.61 560.38 741.61 567.11 741.61 567.11 805.4 560.38 805.4 525.96 805.4"/>
    <polygon class="st19" points="560.38 741.61 525.96 741.61 529.67 735.54 535.41 730.81 535.74 730.47 535.74 729.8 534.73 728.79 533.05 728.45 531.36 729.12 530.01 730.14 529.67 730.14 529 730.14 528.66 730.14 528.32 730.14 527.98 730.14 527.64 729.8 535.07 726.08 543.17 724.73 551.61 726.08 558.7 729.8 558.7 730.14 558.36 730.14 558.02 730.14 557.35 730.14 557.01 730.14 556.67 730.14 554.98 729.12 553.3 728.45 551.95 728.79 550.93 729.8 550.93 730.47 551.27 730.81 557.01 735.54 560.38 741.61"/>
  </g>
  <g class="st5">
    <line class="st3" x1="567.11" y1="805.4" x2="567.11" y2="741.61"/>
    <line class="st3" x1="530.01" y1="730.13" x2="529.67" y2="730.13"/>
    <line class="st3" x1="529.67" y1="730.13" x2="529" y2="730.13"/>
    <line class="st3" x1="528.32" y1="730.13" x2="528.66" y2="730.13"/>
    <line class="st3" x1="528.66" y1="730.13" x2="528.99" y2="730.13"/>
    <line class="st3" x1="527.64" y1="729.8" x2="527.98" y2="730.14"/>
    <line class="st3" x1="527.98" y1="730.13" x2="528.32" y2="730.13"/>
    <line class="st3" x1="535.74" y1="729.8" x2="534.73" y2="728.79"/>
    <line class="st3" x1="534.73" y1="728.78" x2="533.05" y2="728.45"/>
    <line class="st3" x1="533.05" y1="728.45" x2="531.36" y2="729.12"/>
    <line class="st3" x1="531.36" y1="729.12" x2="530.01" y2="730.14"/>
    <line class="st3" x1="535.41" y1="730.81" x2="535.74" y2="730.47"/>
    <line class="st3" x1="535.74" y1="730.47" x2="535.74" y2="729.8"/>
    <line class="st3" x1="535.41" y1="730.81" x2="529.67" y2="735.53"/>
    <line class="st3" x1="529.67" y1="735.54" x2="525.96" y2="741.61"/>
    <line class="st3" x1="556.67" y1="730.13" x2="557.01" y2="730.13"/>
    <line class="st3" x1="557.01" y1="730.13" x2="557.35" y2="730.13"/>
    <line class="st3" x1="558.36" y1="730.13" x2="558.02" y2="730.13"/>
    <line class="st3" x1="558.02" y1="730.13" x2="557.35" y2="730.13"/>
    <line class="st3" x1="558.7" y1="729.8" x2="558.7" y2="730.14"/>
    <line class="st3" x1="558.7" y1="730.13" x2="558.36" y2="730.13"/>
    <line class="st3" x1="550.93" y1="729.8" x2="551.95" y2="728.79"/>
    <line class="st3" x1="551.95" y1="728.78" x2="553.3" y2="728.45"/>
    <line class="st3" x1="553.3" y1="728.45" x2="554.98" y2="729.12"/>
    <line class="st3" x1="554.98" y1="729.12" x2="556.67" y2="730.14"/>
    <line class="st3" x1="551.27" y1="730.81" x2="550.93" y2="730.47"/>
    <line class="st3" x1="550.93" y1="730.47" x2="550.93" y2="729.8"/>
    <line class="st3" x1="551.27" y1="730.81" x2="557.01" y2="735.53"/>
    <line class="st3" x1="557.01" y1="735.54" x2="560.38" y2="741.61"/>
    <line class="st3" x1="527.64" y1="729.8" x2="535.07" y2="726.09"/>
    <line class="st3" x1="535.07" y1="726.08" x2="543.17" y2="724.73"/>
    <line class="st3" x1="543.17" y1="724.73" x2="551.61" y2="726.08"/>
    <line class="st3" x1="551.61" y1="726.08" x2="558.7" y2="729.8"/>
    <line class="st3" x1="530.01" y1="816.88" x2="529.67" y2="816.88"/>
    <line class="st3" x1="529.67" y1="816.88" x2="529" y2="816.88"/>
    <line class="st3" x1="528.32" y1="816.88" x2="528.66" y2="816.88"/>
    <line class="st3" x1="528.66" y1="816.88" x2="528.99" y2="816.88"/>
    <line class="st3" x1="527.64" y1="817.22" x2="527.98" y2="816.88"/>
    <line class="st3" x1="527.98" y1="816.88" x2="528.32" y2="816.88"/>
    <line class="st3" x1="535.74" y1="817.22" x2="534.73" y2="818.23"/>
    <line class="st3" x1="534.73" y1="818.23" x2="533.05" y2="818.57"/>
    <line class="st3" x1="533.05" y1="818.57" x2="531.36" y2="817.89"/>
    <line class="st3" x1="531.36" y1="817.89" x2="530.01" y2="816.88"/>
    <line class="st3" x1="535.41" y1="816.2" x2="535.74" y2="816.54"/>
    <line class="st3" x1="535.74" y1="816.54" x2="535.74" y2="817.22"/>
    <line class="st3" x1="535.41" y1="816.2" x2="529.67" y2="811.48"/>
    <line class="st3" x1="529.67" y1="811.48" x2="525.96" y2="805.4"/>
    <line class="st3" x1="556.67" y1="816.88" x2="557.01" y2="816.88"/>
    <line class="st3" x1="557.01" y1="816.88" x2="557.35" y2="816.88"/>
    <line class="st3" x1="558.36" y1="816.88" x2="558.02" y2="816.88"/>
    <line class="st3" x1="558.02" y1="816.88" x2="557.35" y2="816.88"/>
    <line class="st3" x1="558.7" y1="817.22" x2="558.7" y2="816.88"/>
    <line class="st3" x1="558.7" y1="816.88" x2="558.36" y2="816.88"/>
    <line class="st3" x1="550.93" y1="817.22" x2="551.95" y2="818.23"/>
    <line class="st3" x1="551.95" y1="818.23" x2="553.3" y2="818.57"/>
    <line class="st3" x1="553.3" y1="818.57" x2="554.98" y2="817.89"/>
    <line class="st3" x1="554.98" y1="817.89" x2="556.67" y2="816.88"/>
    <line class="st3" x1="551.27" y1="816.2" x2="550.93" y2="816.54"/>
    <line class="st3" x1="550.93" y1="816.54" x2="550.93" y2="817.22"/>
    <line class="st3" x1="551.27" y1="816.2" x2="557.01" y2="811.48"/>
    <line class="st3" x1="557.01" y1="811.48" x2="560.38" y2="805.4"/>
    <line class="st3" x1="527.64" y1="817.22" x2="535.07" y2="820.93"/>
    <line class="st3" x1="535.07" y1="820.93" x2="543.17" y2="822.28"/>
    <line class="st3" x1="543.17" y1="822.28" x2="551.61" y2="820.93"/>
    <line class="st3" x1="551.61" y1="820.93" x2="558.7" y2="817.22"/>
    <line class="st3" x1="519.54" y1="805.4" x2="519.54" y2="741.61"/>
    <polyline class="st3" points="519.54 741.61 525.96 741.61 560.38 741.61 567.11 741.61"/>
    <polyline class="st3" points="567.11 805.4 560.38 805.4 525.96 805.4 519.54 805.4"/>
  </g>
  <g class="st4">
    <polygon class="st19" points="598.03 820.93 589.59 822.28 581.49 820.93 574.06 817.22 574.4 816.88 574.74 816.88 575.08 816.88 575.41 816.88 576.09 816.88 576.43 816.88 577.78 817.89 579.46 818.57 581.15 818.23 582.16 817.22 582.16 816.54 581.82 816.2 576.09 811.48 572.38 805.4 606.8 805.4 603.43 811.48 597.69 816.2 597.35 816.54 597.35 817.22 598.36 818.23 599.71 818.57 601.4 817.89 603.09 816.88 603.43 816.88 603.76 816.88 604.44 816.88 604.78 816.88 605.11 816.88 605.11 817.22 598.03 820.93"/>
    <polygon class="st19" points="572.38 805.4 565.96 805.4 565.96 741.61 572.38 741.61 606.8 741.61 613.53 741.61 613.53 805.4 606.8 805.4 572.38 805.4"/>
    <polygon class="st19" points="606.8 741.61 572.37 741.61 576.09 735.54 581.82 730.81 582.16 730.47 582.16 729.8 581.15 728.79 579.46 728.45 577.77 729.12 576.42 730.14 576.09 730.14 575.41 730.14 575.07 730.14 574.74 730.14 574.4 730.14 574.06 729.8 581.49 726.08 589.59 724.73 598.03 726.08 605.11 729.8 605.11 730.14 604.78 730.14 604.44 730.14 603.76 730.14 603.43 730.14 603.09 730.14 601.4 729.12 599.71 728.45 598.36 728.79 597.35 729.8 597.35 730.47 597.69 730.81 603.43 735.54 606.8 741.61"/>
  </g>
  <g class="st9">
    <line class="st3" x1="613.52" y1="805.4" x2="613.52" y2="741.61"/>
    <line class="st3" x1="576.43" y1="730.13" x2="576.09" y2="730.13"/>
    <line class="st3" x1="576.09" y1="730.13" x2="575.41" y2="730.13"/>
    <line class="st3" x1="574.74" y1="730.13" x2="575.08" y2="730.13"/>
    <line class="st3" x1="575.08" y1="730.13" x2="575.41" y2="730.13"/>
    <line class="st3" x1="574.06" y1="729.8" x2="574.4" y2="730.14"/>
    <line class="st3" x1="574.4" y1="730.13" x2="574.74" y2="730.13"/>
    <line class="st3" x1="582.16" y1="729.8" x2="581.15" y2="728.79"/>
    <line class="st3" x1="581.15" y1="728.78" x2="579.46" y2="728.45"/>
    <line class="st3" x1="579.46" y1="728.45" x2="577.78" y2="729.12"/>
    <line class="st3" x1="577.78" y1="729.12" x2="576.43" y2="730.14"/>
    <line class="st3" x1="581.83" y1="730.81" x2="582.16" y2="730.47"/>
    <line class="st3" x1="582.16" y1="730.47" x2="582.16" y2="729.8"/>
    <line class="st3" x1="581.83" y1="730.81" x2="576.09" y2="735.53"/>
    <line class="st3" x1="576.09" y1="735.54" x2="572.37" y2="741.61"/>
    <line class="st3" x1="603.09" y1="730.13" x2="603.43" y2="730.13"/>
    <line class="st3" x1="603.43" y1="730.13" x2="603.76" y2="730.13"/>
    <line class="st3" x1="604.78" y1="730.13" x2="604.44" y2="730.13"/>
    <line class="st3" x1="604.44" y1="730.13" x2="603.76" y2="730.13"/>
    <line class="st3" x1="605.11" y1="729.8" x2="605.11" y2="730.14"/>
    <line class="st3" x1="605.11" y1="730.13" x2="604.78" y2="730.13"/>
    <line class="st3" x1="597.35" y1="729.8" x2="598.36" y2="728.79"/>
    <line class="st3" x1="598.36" y1="728.78" x2="599.71" y2="728.45"/>
    <line class="st3" x1="599.71" y1="728.45" x2="601.4" y2="729.12"/>
    <line class="st3" x1="601.4" y1="729.12" x2="603.09" y2="730.14"/>
    <line class="st3" x1="597.69" y1="730.81" x2="597.35" y2="730.47"/>
    <line class="st3" x1="597.35" y1="730.47" x2="597.35" y2="729.8"/>
    <line class="st3" x1="597.69" y1="730.81" x2="603.43" y2="735.53"/>
    <line class="st3" x1="603.43" y1="735.54" x2="606.8" y2="741.61"/>
    <line class="st3" x1="574.06" y1="729.8" x2="581.49" y2="726.09"/>
    <line class="st3" x1="581.49" y1="726.08" x2="589.59" y2="724.73"/>
    <line class="st3" x1="589.59" y1="724.73" x2="598.03" y2="726.08"/>
    <line class="st3" x1="598.03" y1="726.08" x2="605.11" y2="729.8"/>
    <line class="st3" x1="576.43" y1="816.88" x2="576.09" y2="816.88"/>
    <line class="st3" x1="576.09" y1="816.88" x2="575.41" y2="816.88"/>
    <line class="st3" x1="574.74" y1="816.88" x2="575.08" y2="816.88"/>
    <line class="st3" x1="575.08" y1="816.88" x2="575.41" y2="816.88"/>
    <line class="st3" x1="574.06" y1="817.22" x2="574.4" y2="816.88"/>
    <line class="st3" x1="574.4" y1="816.88" x2="574.74" y2="816.88"/>
    <line class="st3" x1="582.16" y1="817.22" x2="581.15" y2="818.23"/>
    <line class="st3" x1="581.15" y1="818.23" x2="579.46" y2="818.57"/>
    <line class="st3" x1="579.46" y1="818.57" x2="577.78" y2="817.89"/>
    <line class="st3" x1="577.78" y1="817.89" x2="576.43" y2="816.88"/>
    <line class="st3" x1="581.83" y1="816.2" x2="582.16" y2="816.54"/>
    <line class="st3" x1="582.16" y1="816.54" x2="582.16" y2="817.22"/>
    <line class="st3" x1="581.83" y1="816.2" x2="576.09" y2="811.48"/>
    <line class="st3" x1="576.09" y1="811.48" x2="572.37" y2="805.4"/>
    <line class="st3" x1="603.09" y1="816.88" x2="603.43" y2="816.88"/>
    <line class="st3" x1="603.43" y1="816.88" x2="603.76" y2="816.88"/>
    <line class="st3" x1="604.78" y1="816.88" x2="604.44" y2="816.88"/>
    <line class="st3" x1="604.44" y1="816.88" x2="603.76" y2="816.88"/>
    <line class="st3" x1="605.11" y1="817.22" x2="605.11" y2="816.88"/>
    <line class="st3" x1="605.11" y1="816.88" x2="604.78" y2="816.88"/>
    <line class="st3" x1="597.35" y1="817.22" x2="598.36" y2="818.23"/>
    <line class="st3" x1="598.36" y1="818.23" x2="599.71" y2="818.57"/>
    <line class="st3" x1="599.71" y1="818.57" x2="601.4" y2="817.89"/>
    <line class="st3" x1="601.4" y1="817.89" x2="603.09" y2="816.88"/>
    <line class="st3" x1="597.69" y1="816.2" x2="597.35" y2="816.54"/>
    <line class="st3" x1="597.35" y1="816.54" x2="597.35" y2="817.22"/>
    <line class="st3" x1="597.69" y1="816.2" x2="603.43" y2="811.48"/>
    <line class="st3" x1="603.43" y1="811.48" x2="606.8" y2="805.4"/>
    <line class="st3" x1="574.06" y1="817.22" x2="581.49" y2="820.93"/>
    <line class="st3" x1="581.49" y1="820.93" x2="589.59" y2="822.28"/>
    <line class="st3" x1="589.59" y1="822.28" x2="598.03" y2="820.93"/>
    <line class="st3" x1="598.03" y1="820.93" x2="605.11" y2="817.22"/>
    <line class="st3" x1="565.96" y1="805.4" x2="565.96" y2="741.61"/>
    <polyline class="st3" points="565.96 741.61 572.38 741.61 606.8 741.61 613.52 741.61"/>
    <polyline class="st3" points="613.52 805.4 606.8 805.4 572.37 805.4 565.96 805.4"/>
    <rect class="st19" x="519.55" y="741.61" width="93.98" height="63.79"/>
    <rect class="st3" x="519.55" y="741.61" width="93.98" height="63.79"/>
  </g>
  <rect class="st19" x="514.77" y="1048.76" width="47.59" height="95.52"/>
  <path class="st21" d="M694.68,866.16h119.48M814.16,917.8h-119.48M554.6,581.28h-39.83M514.77,581.28v-11.81M514.77,569.47h39.83M572.49,1160.15v-15.86M572.49,1144.28h-57.72M814.16,1144.28h-44.55M769.61,1144.28v15.86M830.02,581.28h-119.48M694.68,581.28v16.2M694.68,597.49h119.48M814.16,597.49v7.76M831.71,606.26v-24.98M814.16,925.9v218.38M831.71,1190.86v-481.99M831.71,708.87v-31.05M814.16,606.26v-1.01M468.19,491.5v-3.71M360.52,1066.65h107.67M468.19,1066.65v-241.67M468.19,824.98h-107.67M360.52,824.98v241.67M468.19,1070.7v-4.05M468.19,1066.65h-107.67M360.52,1066.65v-241.67M360.52,824.98h107.67M468.19,824.98v-3.71M468.19,821.27h-111.72M356.47,821.27v249.44M356.47,1070.7h111.72M747.67,608.96l1.35,12.83M749.02,621.79l3.71,12.49M752.73,634.28l6.08,11.48M758.81,645.75l8.44,10.13M767.24,655.88l9.79,8.44M777.03,664.32l11.81,6.07M788.85,670.39l12.49,3.71M801.33,674.1l12.83,1.35M814.16,677.82h17.55M831.71,606.26h-17.55M814.16,608.96h-66.49M814.16,675.46v-66.5M814.16,726.42v-48.6M814.16,605.25v1.01M766.23,1186.47l-2.7,1.69M761.51,1189.17l-2.02,1.35M757.46,1191.54l-2.36,1.35M753.07,1193.9l-2.02,1.35M749.02,1196.26l-2.02,1.35M744.97,1198.96l-2.03,1.01M740.92,1201.32l-2.36,1.01M736.53,1203.69l-2.03,1.01M732.48,1206.05l-2.03,1.01M728.43,1208.41l-2.02,1.01M724.04,1210.77l-2.02,1.35M719.99,1213.14l-2.02,1.35M715.94,1215.5l-2.02,1.35M711.89,1217.86l-2.36,1.35M707.5,1220.23l-2.02,1.35M703.45,1222.59l-2.7,1.69M690.63,1186.47l.33,1.69M691.3,1190.52v2.7M691.64,1195.59v2.36M691.98,1200.31l.68,2.36M693.33,1204.7l.67,2.36M694.68,1209.42l.34,2.36M696.02,1213.81l1.02,2.36M698.05,1218.2l1.02,2.36M700.08,1222.59l.68,1.69M577.55,1185.8h109.36M686.91,1185.8v-3.71M686.91,1182.08h-109.36M577.55,1182.08v3.71M761.17,1182.08h-65.48M695.69,1182.08v3.71M695.69,1185.8h65.48M761.17,1185.8v-3.71M577.55,1174.66h109.36M692.31,1174.66h72.23M692.31,1174.66h72.23M764.54,1186.47h-72.23M686.91,1186.47h-109.36M761.17,1186.47h-65.48M692.31,1180.06v-5.4M764.54,1180.06v-5.4M761.17,1180.06h-65.48M764.54,1180.06h-72.23M692.31,1174.66h-5.4M686.91,1174.66v11.81M686.91,1186.47h8.77M695.69,1186.47v-6.41M695.69,1180.06h-3.38M692.31,1180.06v-5.4M768.59,1174.66h-4.05M764.54,1174.66v5.4M764.54,1180.06h-3.38M761.17,1180.06v6.41M761.17,1186.47h7.43M768.59,1186.47v-11.81M577.55,1174.66h-4.05M573.5,1174.66v11.81M573.5,1186.47h4.05M577.55,1186.47v-11.81M690.63,1186.47h75.61M766.57,1186.47h-76.28M766.23,1186.47h-75.61M764.54,1186.47h-72.23M692.31,1186.47h72.23M690.29,1186.47h76.28M695.69,1186.47h65.48M761.17,1186.47h-65.48M514.77,1144.28v-97.55M514.77,1046.74h-15.87M514.77,849.62v-152.22M514.77,697.39h-15.87M498.91,849.62h15.87M514.77,615.38v-25.99M514.77,581.28v-11.81M514.77,561.37v-71.56M498.91,615.38h15.87M814.16,866.16l-119.48,51.64M814.16,866.16h-119.48M694.68,917.8h119.48M514.77,569.47l39.83,11.81M554.6,569.47l-39.83,11.81M514.77,581.28h39.83M554.6,569.47h-39.83M514.77,569.47v11.81M710.54,473.95h-195.77M514.77,489.81h179.9M710.54,489.81v-15.86M694.68,489.81v91.47M710.54,581.28v-35.78M710.54,537.74v-47.93M397.31,1043.36l1.01-13.16M398.33,1030.2l3.37-12.83M401.7,1017.37l5.74-11.81M407.44,1005.56l7.43-10.8M414.87,994.76l9.45-9.11M424.31,985.64l10.47-7.43M434.78,978.22l12.15-5.74M446.93,972.48l12.49-3.38M459.42,969.1l13.17-1.01M472.58,1043.36h-75.27M476.97,1038.3v-65.48M476.97,972.82h-3.72M473.26,972.82v65.48M473.26,1038.3h3.72M484.4,969.44v72.23M472.58,1038.3v-65.48M478.99,1038.3v-65.48M478.99,969.44h5.4M478.99,1041.67h5.4M478.99,1041.67v-72.23M484.4,969.44v-4.05M484.4,965.39h-11.81M472.58,965.39v7.43M472.58,972.82h6.41M478.99,972.82v-3.37M478.99,969.44h5.4M484.4,1045.72v-4.05M484.4,1041.67h-5.4M478.99,1041.67v-3.37M478.99,1038.3h-6.41M472.58,1038.3v7.43M472.58,1045.72h11.81M473.26,854.68h3.72M473.26,960.33v-105.65M476.97,960.33h-3.72M476.97,854.68v105.65M484.4,960.33v-105.65M472.58,854.68v105.65M472.58,850.63h11.81M472.58,854.68v-4.05M484.4,854.68h-11.81M484.4,850.63v4.05M472.58,960.33h11.81M472.58,964.38v-4.05M484.4,964.38h-11.81M484.4,960.33v4.05"/>
  <path class="st3" d="M472.58,694.02l-1.35-2.7M469.88,689.3l-1.35-2.03M467.52,685.24l-1.35-2.02M465.16,681.19l-1.35-2.03M462.79,677.14l-1.35-2.36M460.43,672.76l-1.35-2.03M458.07,668.71l-1.35-2.02M455.71,664.66l-1.35-2.02M453.01,660.27l-1.01-2.02M450.64,656.22l-1.01-2.02M448.28,652.17l-1.01-2.03M445.92,648.12l-1.01-2.36M443.55,643.73l-1.01-2.03M441.19,639.68l-1.35-2.02M438.83,635.63l-1.35-2.02M436.47,631.58l-1.69-2.7M472.58,618.75h-1.69M468.53,619.09l-2.37.34M463.81,619.43l-2.36.34M459.08,620.1l-2.36.67M454.36,621.11l-2.36.68M449.63,622.46l-2.36.67M445.24,624.15l-2.36,1.01M440.85,626.18l-2.02,1.01M436.47,628.2l-1.69.67M476.97,689.3v-65.48M476.97,623.81h-3.72M473.26,623.81v65.48M473.26,689.3h3.72M484.39,620.1v72.57M484.39,620.1v72.57M479,620.1h5.4M479,692.67h5.4M472.58,692.67v-72.57M472.58,689.3v-65.48M479,689.3v-65.48M479,692.67v-72.57M484.39,620.1v-3.71M484.39,616.39h-11.81M472.58,616.39v7.43M472.58,623.81h6.41M479,623.81v-3.71M479,620.1h5.4M484.39,696.38v-3.71M484.39,692.67h-5.4M479,692.67v-3.37M479,689.3h-6.41M472.58,689.3v7.09M472.58,696.38h11.81M472.58,696.38v-80M472.58,616.39v80M472.58,618.75v75.27M472.58,694.7v-76.28M472.58,694.02v-75.27M472.58,692.67v-72.57M472.58,620.1v72.57M472.58,618.41v76.28M472.58,623.81v65.48M472.58,689.3v-65.48M514.77,1046.74v97.54M514.77,1144.28h57.72M572.49,1144.28v32.41M572.49,1176.69h1.01M768.59,1176.69h1.01M769.61,1176.69v-32.41M814.16,1144.28v-218.38M814.16,925.9h-127.58M686.58,726.42h127.58M814.16,606.26v-1.01M814.16,597.49h-119.49M694.67,597.49v-107.67M694.67,489.82h-179.9M514.77,541.8v19.57M514.77,569.47h39.83M554.6,581.29h-39.83M514.77,589.39v25.99M514.77,615.38h-32.4M482.37,615.38v1.01M482.37,696.38v1.01M482.37,697.4h32.4M514.77,697.4v152.23M514.77,849.62h-32.4M482.37,849.62v1.01M482.37,964.38v1.01M482.37,1045.72v1.02M482.37,1046.74h32.4M521.18,473.95h189.36M814.16,605.25v1.01M812.47,726.42h-125.9M686.58,726.42v5.4M686.58,731.82v8.78M686.58,811.48v54.68M691.64,746v62.78M694.67,866.16h117.8M814.16,917.8h-8.1M806.06,917.8v8.1"/>
  <path class="st3" d="M806.06,925.9h8.1M758.13,917.8h-63.46M694.68,917.8v8.1M694.68,925.9h63.46M758.13,925.9v-8.1M758.13,917.8h47.93M806.06,925.9h-47.93M806.06,917.8v8.1M758.13,925.9v-8.1M694.68,925.9v-59.74M686.58,866.16v59.74M686.58,925.9h8.1M514.77,742.62v63.79M562.37,1096.35h-3.38M556.63,1096.35h-2.36M551.9,1096.35h-2.36M547.18,1096.35h-2.7M542.11,1096.35h-2.36M537.39,1096.35h-2.37M532.66,1096.35h-2.36M527.94,1096.35h-2.36M523.21,1096.35h-2.36M518.49,1096.35h-3.71M514.77,1048.76h3.71M520.85,1048.76h2.36M525.57,1048.76h2.36M530.3,1048.76h2.36M535.02,1048.76h2.37M539.75,1048.76h2.36M544.48,1048.76h2.7M549.54,1048.76h2.36M554.26,1048.76h2.36M558.99,1048.76h3.38M562.37,1048.76v1.01M562.37,1052.14v2.36M562.37,1056.86v2.36M562.37,1061.92v2.36M562.37,1066.65v2.36M562.37,1071.38v2.36M562.37,1076.1v2.36M562.37,1080.83v2.36M562.37,1085.55v2.36M562.37,1090.61v2.36M562.37,1095.34v1.02M694.68,537.74v1.01M694.68,541.12v2.36M694.68,545.84v2.7M694.68,550.91v2.36M694.68,555.63v2.36M694.68,560.36v2.36M694.68,565.08v2.36M694.68,569.81v2.36M694.68,574.53v2.7M694.68,579.6v2.36M694.68,584.32v1.01M646.75,489.81h47.93M694.68,489.81v47.93M694.68,537.74h-47.93"/>
  <path class="st3" d="M694.68,489.81v47.93M694.68,537.74h-95.86M598.82,489.81h95.86M562.7,561.37v-23.63M562.7,537.74h36.11M562.37,1096.35h-3.38M556.63,1096.35h-2.36M551.9,1096.35h-2.36M547.18,1096.35h-2.7M542.11,1096.35h-2.36M537.39,1096.35h-2.36M532.66,1096.35h-2.36M527.94,1096.35h-2.37M523.21,1096.35h-2.36M518.49,1096.35h-3.71M514.77,1144.28h3.71M520.85,1144.28h2.36M525.57,1144.28h2.37M530.3,1144.28h2.36M535.03,1144.28h2.36M539.75,1144.28h2.36M544.48,1144.28h2.7M549.54,1144.28h2.36M554.26,1144.28h2.36M558.99,1144.28h3.38M562.37,1144.28v-1.35M562.37,1140.57v-2.36M562.37,1135.84v-2.36M562.37,1131.12v-2.36M562.37,1126.39v-2.36M562.37,1121.67v-2.36M562.37,1116.94v-2.7M562.37,1111.88v-2.36M562.37,1107.16v-2.36M562.37,1102.43v-2.36M562.37,1097.7v-1.35M554.6,569.47v11.82M554.6,589.39h8.1M562.7,589.39v-28.01M562.7,561.37h-8.1M554.6,581.29h-39.83M514.77,589.39h39.83M514.77,569.47h39.83M554.6,561.37h-39.83M757.46,743.3l-1.01,12.83M756.44,756.12l-4.05,12.15M752.39,768.28l-6.07,11.47M746.32,779.75l-8.1,9.79M738.22,789.54l-9.79,8.44M728.43,797.98l-11.48,6.07M716.95,804.05l-12.49,3.71M704.46,807.77l-12.83,1.01M692.99,811.48h-6.41M686.58,740.6h6.41M691.64,746.34v-3.04M691.64,743.3h65.82M691.64,746.34v62.44"/>
  <path class="st3" d="M692.99,859.75v-48.27M806.06,859.75v-126.57M814.16,917.8v-51.64M692.99,740.6v-7.43M692.99,733.17h113.07M692.99,859.75h113.07"/>
  <path class="st3" d="M468.19,473.95v141.42M468.19,615.37h30.72M468.19,697.39v152.22M468.19,849.62h30.72M498.91,697.39h-30.72M468.19,1046.74v144.12M468.19,1190.86h30.72M498.91,1046.74h-30.72M468.19,1046.74v-197.12M468.19,697.39v-82.02M468.19,1046.74h8.78M476.97,1046.74v-1.01M476.97,965.39v-1.01M476.97,850.63v-1.01M476.97,849.62h-8.78M468.19,697.39h8.78M476.97,697.39v-1.01M476.97,616.39v-1.01M476.97,615.37h-8.78M476.97,849.62v1.01M476.97,964.38v1.01M476.97,1045.72v1.01M482.37,1046.74h-5.4M476.97,849.62h5.4M476.97,615.37v1.01M476.97,696.38v1.01M482.37,697.39h-5.4M476.97,615.37h5.4M769.61,1160.14v30.71M769.61,1190.86h62.1M498.91,1190.86h73.58M572.49,1190.86v-30.71M769.61,1190.86h-197.12M572.49,1182.08h1.01M768.59,1182.08h1.01M769.61,1176.68v5.4"/>
  <path class="st3" d="M572.49,1182.09v-5.4M572.49,1182.09v8.78M769.61,1190.86v-8.78M769.61,1182.09h-1.01M573.5,1182.09h-1.01M710.54,473.95v107.33M710.54,581.29h121.17M468.19,473.95h52.99M468.19,499.27v-25.32M831.71,1190.86h-363.52"/>
  <g class="st7">
    <path class="st2" d="M115.48,1117.95h6.07M139.1,1197.27l16.2-7.09M150.92,1172.63l4.39,17.55M178.6,1201.32l-27.68-28.69M178.6,1201.32l-39.49-4.05M178.6,1201.32l-23.29-11.14M115.48,878.65h6.07M115.48,1038.3h6.07M115.48,958.64h6.07M115.48,878.65v239.31M1241.81,418.93H58.1"/>
    <path d="M136.87,469.85c-.43.28-.75.67-.96,1.17-.21.5-.32,1.11-.32,1.85,0,.58.11,1.1.32,1.57.21.47.5.82.89,1.07.38.25.78.37,1.21.37s.81-.11,1.15-.34c.33-.22.61-.58.82-1.05.14-.33.32-.92.51-1.8.19-.88.38-1.42.57-1.62.19-.21.42-.32.72-.32.33,0,.62.15.85.45.23.3.36.77.36,1.42s-.13,1.1-.39,1.42c-.26.32-.64.51-1.16.56l.08,1.03c.47-.02.9-.15,1.27-.4.37-.25.66-.6.85-1.06.19-.46.29-.99.29-1.6,0-.55-.09-1.04-.27-1.49-.18-.45-.45-.79-.81-1.02-.35-.23-.74-.35-1.14-.35-.37,0-.71.09-1,.29-.3.19-.55.48-.75.87-.16.3-.33.82-.5,1.57-.18.75-.31,1.23-.39,1.45-.13.34-.29.59-.48.73-.19.15-.41.22-.66.22s-.48-.08-.69-.23c-.21-.16-.38-.39-.49-.7-.12-.32-.18-.68-.18-1.09,0-.46.08-.88.24-1.25.16-.37.37-.64.62-.82.26-.18.59-.29.99-.34l-.09-1.02c-.54.02-1.02.16-1.45.45M135.73,478.56h2.79l1.28,1.33-4.08,2.9v1.42l4.8-3.56,3.26,3.41v-1.46l-4-4.04h4v-1.08h-8.06v1.08Z"/>
    <path d="M141.39,488.08h-.92v5.37h.92v-5.37ZM138.95,488.08h-.92v5.37h.92v-5.37Z"/>
    <path d="M136.87,498.2c-.43.28-.75.67-.96,1.17-.21.5-.32,1.11-.32,1.85,0,.58.1,1.1.31,1.57.21.47.51.82.89,1.07.38.25.78.37,1.22.37s.81-.11,1.14-.34c.33-.23.61-.58.82-1.05.15-.33.32-.92.51-1.8.2-.88.39-1.42.57-1.62.19-.21.42-.32.71-.32.34,0,.62.15.86.45.23.3.36.77.36,1.43s-.13,1.1-.39,1.42-.64.51-1.15.56l.08,1.03c.47-.02.9-.15,1.27-.4.38-.25.66-.61.85-1.06.19-.46.29-.99.29-1.6,0-.55-.09-1.04-.28-1.49-.18-.45-.45-.79-.8-1.02-.35-.23-.73-.35-1.14-.35-.37,0-.71.1-1,.29-.3.19-.55.48-.75.87-.16.3-.32.82-.5,1.57-.18.75-.31,1.23-.39,1.45-.13.34-.29.59-.48.73-.19.15-.41.22-.66.22s-.48-.07-.69-.23c-.21-.16-.38-.39-.5-.7-.12-.32-.18-.68-.18-1.09,0-.46.08-.88.24-1.25.16-.37.37-.64.63-.82.26-.18.59-.29.99-.34l-.09-1.02c-.54.01-1.02.16-1.45.45"/>
    <path d="M135.73,506.42h2.31l.67.71-2.98,1.95v1.23l3.67-2.48,2.16,2.26v-1.3l-2.38-2.37h4.6v-1h-8.06v1ZM135.73,515.54v1.04c.22-.12.46-.21.7-.25.25-.05.83-.07,1.75-.07h1.32c.44,0,.74-.02.91-.05.27-.06.49-.16.67-.31.18-.15.33-.38.44-.69.12-.31.18-.72.18-1.23s-.07-.95-.21-1.33c-.14-.38-.33-.68-.59-.88-.26-.21-.59-.35-1-.44l-.13.98c.42.11.7.27.87.5.16.22.25.57.25,1.04,0,.5-.11.88-.34,1.14-.16.19-.45.28-.85.28-.03,0-.12,0-.26,0-.13-.38-.25-.98-.34-1.78-.05-.39-.09-.69-.15-.89-.07-.27-.18-.5-.32-.72-.14-.21-.33-.38-.57-.52-.24-.13-.5-.2-.78-.2-.49,0-.89.17-1.2.52-.31.35-.47.85-.47,1.49,0,.39.07.76.19,1.1.13.34.35.7.66,1.07-.27.03-.51.1-.72.2M138.3,515.26c-.44,0-.77-.05-.99-.16-.29-.14-.52-.36-.68-.66-.17-.3-.25-.64-.25-1.03s.09-.68.27-.88c.18-.2.4-.31.66-.31.18,0,.33.05.47.14.14.09.25.22.33.39.07.17.14.46.2.87.1.73.23,1.27.38,1.63h-.36Z"/>
    <path d="M135.73,518.57h2.31l.67.71-2.99,1.95v1.23l3.67-2.48,2.16,2.25v-1.29l-2.37-2.37h4.6v-1h-8.06v1ZM136.57,525.05c0-.15.03-.26.07-.34.05-.08.11-.14.19-.17.08-.04.26-.05.55-.05h3.42v1.01h.77v-1.01h2.04l-.59-.99h-1.45v-.73h-.77v.73h-3.36c-.59,0-.98.04-1.17.12-.18.08-.33.22-.45.42-.11.2-.17.48-.17.84,0,.22.03.47.09.76l.88-.14c-.03-.18-.04-.33-.04-.44"/>
    <path d="M122.56,470.9h3.66v3.82h.95v-3.82h2.5v4.41h.95v-5.49h-8.06v1.08ZM123.7,476.59c-.43.28-.74.67-.96,1.17-.21.5-.32,1.11-.32,1.85,0,.58.1,1.1.31,1.57.21.46.51.82.89,1.07.38.25.79.37,1.22.37s.81-.11,1.14-.34c.33-.23.61-.58.83-1.05.14-.33.32-.92.51-1.8.2-.88.39-1.42.57-1.62.19-.21.43-.32.72-.32.33,0,.62.15.85.45.23.3.35.77.35,1.43s-.13,1.1-.39,1.42c-.26.32-.64.51-1.15.56l.08,1.03c.47-.02.9-.15,1.27-.4.38-.25.66-.61.85-1.06.19-.46.29-.99.29-1.6,0-.55-.09-1.04-.27-1.49-.19-.45-.45-.79-.81-1.02-.35-.23-.73-.35-1.14-.35-.37,0-.7.1-1,.29-.3.19-.55.48-.75.87-.16.3-.32.82-.5,1.57-.18.75-.31,1.23-.39,1.45-.13.34-.29.59-.48.73-.19.15-.41.22-.66.22s-.48-.07-.69-.23c-.21-.16-.38-.39-.5-.7-.12-.32-.18-.68-.18-1.09,0-.46.08-.88.24-1.25.16-.37.37-.64.63-.82.26-.18.59-.29.99-.34l-.09-1.02c-.54.01-1.02.16-1.45.45"/>
    <path d="M128.22,487.07h-.92v5.37h.92v-5.37ZM125.78,487.07h-.92v5.37h.92v-5.37Z"/>
    <polygon points="122.56 498.23 126.23 498.23 126.23 502.05 127.18 502.05 127.18 498.23 129.67 498.23 129.67 502.64 130.62 502.64 130.62 497.15 122.56 497.15 122.56 498.23"/>
    <path d="M123.22,504.46c-.53.51-.79,1.18-.79,2,0,.51.12.99.36,1.43.24.44.57.76,1,.99.43.23,1.02.34,1.77.34.92,0,1.65-.26,2.18-.77.53-.52.79-1.18.79-1.99,0-.73-.22-1.34-.65-1.85-.52-.61-1.32-.91-2.4-.91-.98,0-1.74.25-2.26.76M127.16,505.21c.37.33.55.74.55,1.24s-.18.9-.56,1.24c-.37.33-.92.5-1.64.5-.77,0-1.34-.16-1.71-.49-.38-.33-.56-.75-.56-1.24s.19-.91.56-1.24c.37-.33.93-.49,1.68-.49s1.31.17,1.68.49M122.56,511.12h3.05c.42,0,.81.06,1.16.17.23.07.41.2.54.37.13.18.2.37.2.59,0,.24-.07.49-.21.73l.92.34c.21-.35.32-.69.32-1.03,0-.23-.07-.45-.2-.64-.13-.19-.41-.4-.82-.63h.89v-.9h-5.84v1Z"/>
    <path d="M123.53,517.27c-.19-.26-.29-.57-.29-.94,0-.49.17-.9.51-1.23.34-.33.83-.51,1.48-.55v4.39c.11,0,.2,0,.26,0,.96,0,1.71-.25,2.24-.75.53-.5.8-1.14.8-1.93s-.27-1.47-.81-1.99c-.54-.51-1.31-.77-2.29-.77s-1.69.25-2.21.76c-.53.51-.79,1.19-.79,2.05,0,.68.16,1.24.49,1.69.33.44.79.74,1.39.9l.13-1.03c-.42-.15-.72-.35-.91-.62M127.26,515.13c.31.31.46.7.46,1.16,0,.51-.19.92-.57,1.24-.25.21-.61.33-1.1.38v-3.29c.51.03.91.21,1.22.52M122.9,520.63c-.31.4-.47.99-.47,1.75,0,.46.08.88.24,1.24.16.37.38.65.67.84.29.19.6.29.93.29s.62-.08.84-.24c.23-.16.4-.38.52-.66.12-.28.27-.77.46-1.48.13-.49.22-.78.25-.88.07-.18.16-.3.26-.38.1-.08.22-.12.35-.12.2,0,.38.1.53.29.15.2.23.52.23.98,0,.39-.08.69-.25.9-.17.21-.4.34-.7.39l.13.97c.38-.06.68-.18.9-.34.23-.17.4-.42.54-.77.13-.35.2-.76.2-1.22,0-.31-.04-.6-.12-.87-.08-.27-.18-.48-.29-.63-.14-.21-.33-.37-.55-.49-.22-.12-.46-.18-.72-.18-.29,0-.55.07-.79.22-.23.15-.42.36-.55.64-.14.28-.29.79-.48,1.52-.14.54-.25.89-.33,1.02-.13.2-.31.29-.53.29-.25,0-.47-.11-.65-.33-.19-.22-.28-.56-.28-1.02s.1-.81.31-1.06c.21-.25.51-.41.9-.47l-.16-.99c-.62.11-1.09.37-1.4.77M130.62,526.02h-8.06v1h8.06v-1ZM122.56,532.7v1.04c.22-.13.46-.21.7-.26.24-.04.82-.06,1.74-.06h1.32c.44,0,.75-.02.91-.05.27-.06.5-.17.67-.31.18-.15.33-.38.44-.69.12-.31.18-.72.18-1.22s-.07-.95-.2-1.34c-.14-.38-.33-.68-.59-.88-.25-.21-.59-.35-1-.44l-.13.98c.41.11.7.27.86.5.17.22.25.57.25,1.04,0,.5-.11.88-.33,1.14-.17.19-.45.28-.85.28-.04,0-.12,0-.26,0-.13-.38-.24-.98-.34-1.78-.05-.39-.1-.69-.15-.89-.07-.27-.18-.5-.32-.72-.14-.21-.33-.38-.57-.52-.23-.13-.5-.2-.78-.2-.49,0-.89.17-1.2.52s-.47.85-.47,1.49c0,.39.06.76.19,1.1.13.34.35.7.66,1.07-.28.03-.51.1-.72.2M125.13,532.42c-.44,0-.77-.06-.99-.16-.29-.14-.52-.36-.68-.66-.16-.3-.25-.64-.25-1.03s.09-.68.26-.88c.18-.2.4-.3.66-.3.17,0,.33.04.47.14.14.09.25.22.32.39.08.17.14.46.2.87.1.72.22,1.27.37,1.63h-.36ZM129.18,530.32c-.2.2-.29.43-.29.71s.1.5.29.7c.19.2.43.3.71.3s.52-.1.71-.3.29-.43.29-.7-.1-.5-.29-.7-.42-.3-.69-.3c-.29,0-.54.1-.74.29M130.33,530.63c.11.12.18.25.18.41s-.06.3-.18.42c-.12.11-.26.17-.42.17s-.31-.06-.42-.17c-.12-.12-.18-.25-.18-.41s.06-.3.18-.41.26-.18.44-.18c.16,0,.3.06.42.18M123.53,538.48c-.19-.26-.29-.57-.29-.94,0-.49.17-.9.51-1.23.34-.33.83-.51,1.48-.55v4.4c.11,0,.2,0,.26,0,.96,0,1.71-.25,2.24-.75.53-.5.8-1.14.8-1.93s-.27-1.47-.81-1.99c-.54-.51-1.31-.76-2.29-.76s-1.69.25-2.21.76c-.53.5-.79,1.19-.79,2.05,0,.68.16,1.25.49,1.69.33.44.79.74,1.39.9l.13-1.03c-.42-.15-.72-.36-.91-.62M127.26,536.34c.31.31.46.7.46,1.16,0,.5-.19.92-.57,1.24-.25.21-.61.33-1.1.38v-3.29c.51.04.91.21,1.22.52"/>
    <path d="M123.41,543.27c0-.15.02-.26.07-.34.05-.08.11-.14.19-.17.08-.04.26-.05.55-.05h3.41v1.01h.77v-1.01h2.04l-.59-1h-1.45v-.73h-.77v.73h-3.36c-.59,0-.98.04-1.17.12-.19.08-.33.22-.45.42-.12.2-.17.48-.17.84,0,.22.03.47.09.75l.88-.14c-.03-.18-.04-.33-.04-.44M122.9,547.97c-.32.4-.47.99-.47,1.75,0,.46.08.88.24,1.24.16.36.38.64.68.84.29.2.6.29.93.29s.62-.08.85-.24c.23-.16.4-.38.52-.66.12-.28.27-.77.46-1.48.14-.49.22-.78.25-.88.07-.17.16-.3.27-.38.1-.08.21-.12.35-.12.2,0,.38.1.53.3s.23.52.23.98c0,.39-.08.69-.25.9-.17.21-.4.34-.7.38l.13.98c.38-.07.68-.18.9-.35.22-.17.4-.43.54-.77.13-.35.2-.76.2-1.22,0-.31-.04-.6-.12-.86-.08-.27-.18-.48-.29-.63-.15-.21-.33-.37-.55-.49-.22-.12-.46-.18-.72-.18-.28,0-.55.07-.78.22-.23.15-.42.36-.55.65-.13.28-.29.79-.48,1.52-.14.54-.25.88-.34,1.02-.13.2-.31.29-.53.29-.25,0-.47-.11-.65-.33-.19-.22-.28-.56-.28-1.02s.1-.81.32-1.06c.21-.25.51-.41.9-.46l-.15-.99c-.62.11-1.09.36-1.4.77"/>
    <path d="M122.56,554.69h2.31l.67.7-2.98,1.95v1.23l3.67-2.48,2.16,2.25v-1.29l-2.38-2.36h4.6v-1h-8.06v1ZM122.56,563.47v1.04c.22-.12.46-.21.7-.25.25-.05.83-.07,1.75-.07h1.32c.44,0,.74-.02.91-.05.27-.06.5-.16.67-.31.18-.15.33-.38.45-.69.12-.31.18-.72.18-1.23s-.07-.95-.21-1.33-.33-.68-.59-.88c-.25-.21-.59-.35-1-.44l-.13.98c.41.11.7.27.86.5.16.22.25.57.25,1.04,0,.5-.11.88-.33,1.14-.17.19-.45.28-.85.28-.04,0-.13,0-.26,0-.14-.38-.25-.98-.35-1.78-.05-.39-.09-.69-.15-.89-.07-.27-.18-.5-.32-.72-.14-.21-.33-.38-.57-.52-.23-.13-.49-.2-.78-.2-.49,0-.89.17-1.2.52-.31.35-.47.85-.47,1.49,0,.39.07.76.2,1.1.13.34.35.7.66,1.07-.27.03-.51.1-.72.2M125.13,563.18c-.44,0-.77-.05-.99-.16-.29-.14-.52-.36-.68-.66-.17-.3-.25-.64-.25-1.03s.09-.68.27-.88c.18-.2.4-.31.66-.31.17,0,.33.05.47.14.14.09.25.22.32.39.07.17.14.46.2.87.1.73.23,1.27.38,1.63h-.36Z"/>
    <path d="M123.29,566.42c-.58.39-.86.94-.86,1.64s.27,1.3.82,1.8c.55.5,1.32.75,2.32.75.42,0,.82-.06,1.19-.18.37-.12.68-.28.95-.49.26-.21.47-.48.61-.8.14-.32.22-.67.22-1.03,0-.65-.26-1.19-.79-1.61h2.88v-1h-8.06v.93h.73ZM127.16,566.88c.38.32.56.7.56,1.13s-.18.8-.54,1.11c-.36.31-.93.46-1.69.46s-1.3-.16-1.68-.48c-.38-.32-.56-.7-.56-1.13,0-.53.25-.96.76-1.28.31-.19.82-.29,1.52-.29s1.25.16,1.63.48"/>
    <path d="M123.6,877.22c-.56.45-.83,1.06-.83,1.85,0,.6.16,1.09.48,1.48.31.39.76.68,1.35.88.58.2,1.34.29,2.29.29.8,0,1.44-.06,1.91-.18.47-.12.87-.29,1.2-.5.33-.21.58-.49.76-.81.18-.33.26-.71.26-1.15,0-.59-.16-1.08-.47-1.47-.31-.39-.76-.69-1.34-.88-.58-.2-1.35-.29-2.3-.29-1.51,0-2.6.27-3.27.8M129.6,877.96c.39.28.58.64.58,1.1s-.22.85-.65,1.17c-.44.31-1.32.47-2.65.47s-2.2-.16-2.64-.47c-.44-.31-.66-.7-.66-1.16s.22-.84.65-1.16c.44-.31,1.32-.47,2.64-.47s2.23.17,2.72.52M123.85,1030.92c.18.11.36.25.53.42.18.17.52.55,1.02,1.15.6.72,1.07,1.23,1.42,1.54.35.31.67.53.98.66.31.13.63.2.95.2.64,0,1.17-.23,1.6-.68.43-.46.64-1.07.64-1.86s-.2-1.39-.6-1.85-.97-.72-1.73-.79l-.1,1.03c.5,0,.9.15,1.19.44.29.29.43.68.43,1.15,0,.46-.14.83-.4,1.11-.27.28-.6.42-.99.42s-.77-.16-1.19-.47c-.42-.31-.99-.91-1.71-1.8-.46-.57-.87-1-1.22-1.31-.35-.3-.71-.52-1.07-.66-.22-.08-.45-.12-.69-.11v5.38h.95v-3.99Z"/>
    <path d="M122.9,1037.01h3.03c.53,0,.94.05,1.22.16.29.11.5.28.64.52.15.24.22.5.22.78,0,.37-.11.64-.33.8-.22.16-.55.25-.99.25h-3.79v1h3.39c.6,0,1.04.14,1.31.41.27.28.41.62.41,1.04,0,.23-.05.43-.16.6-.11.17-.25.29-.42.35-.18.07-.46.1-.85.1h-3.68v.99h4.01c.66,0,1.16-.16,1.48-.47.32-.32.48-.76.48-1.35,0-.74-.34-1.35-1.02-1.82.32-.11.57-.31.75-.59.18-.28.27-.64.27-1.08,0-.39-.08-.74-.26-1.05-.17-.31-.41-.55-.69-.74h.82v-.89h-5.84v1Z"/>
    <path d="M130.99,956.12v-.64c-.35-.17-.71-.47-1.08-.89-.37-.42-.68-.9-.94-1.46h-.96c.11.31.29.66.51,1.05.23.39.46.71.68.95h-6.3v1h8.09ZM122.9,960.05h3.03c.53,0,.94.05,1.22.16.29.11.5.28.64.52.15.24.22.5.22.78,0,.37-.11.63-.33.8-.22.16-.55.25-.99.25h-3.79v1h3.39c.6,0,1.04.14,1.31.41.27.28.41.62.41,1.03,0,.23-.05.43-.16.6-.11.17-.25.28-.42.35-.18.07-.46.1-.85.1h-3.68v.99h4.01c.66,0,1.16-.16,1.48-.47.32-.32.48-.76.48-1.35,0-.75-.34-1.36-1.02-1.82.32-.12.57-.31.75-.59.18-.28.27-.64.27-1.07,0-.39-.08-.74-.26-1.05-.17-.31-.41-.55-.69-.74h.82v-.89h-5.84v1Z"/>
    <path d="M122.9,781.3h6.86l-6.86,2.35v.97l6.74,2.36h-6.74v1.04h8.06v-1.45l-5.61-1.94c-.57-.2-1-.34-1.29-.44.27-.08.66-.21,1.19-.39l5.71-1.92v-1.62h-8.06v1.04ZM122.9,793.32v1.04c.23-.12.46-.21.7-.25.24-.04.83-.06,1.74-.06h1.32c.44,0,.74-.02.91-.05.27-.06.49-.17.67-.31.18-.15.33-.38.44-.69s.18-.72.18-1.22-.07-.96-.2-1.34c-.14-.39-.34-.68-.59-.88-.25-.21-.59-.35-1-.44l-.13.98c.42.11.7.27.87.49.16.22.25.57.25,1.04,0,.5-.11.88-.34,1.14-.16.19-.45.28-.85.28-.03,0-.12,0-.26,0-.13-.38-.24-.98-.34-1.78-.05-.39-.1-.69-.15-.89-.08-.27-.18-.5-.33-.72-.14-.21-.33-.38-.57-.51-.24-.13-.5-.2-.78-.2-.49,0-.89.17-1.2.52-.32.35-.47.85-.47,1.49,0,.39.07.76.19,1.1.13.34.35.7.66,1.07-.27.03-.51.1-.72.2M125.47,793.04c-.44,0-.77-.06-.99-.16-.29-.14-.52-.36-.69-.66-.16-.3-.25-.64-.25-1.03s.09-.68.26-.89c.18-.2.39-.3.66-.3.17,0,.33.04.47.14.14.09.25.22.32.39.07.17.14.46.2.87.1.73.23,1.27.37,1.63h-.36ZM129.52,790.95c-.2.2-.29.43-.29.71s.09.5.29.7c.19.2.43.29.71.29s.52-.1.71-.29.29-.43.29-.7-.1-.5-.29-.7-.42-.3-.69-.3c-.29,0-.54.1-.73.3M130.67,791.25c.12.12.17.25.17.41s-.06.3-.17.42c-.12.11-.26.17-.42.17s-.31-.06-.43-.18c-.11-.12-.17-.25-.17-.41s.06-.3.17-.41c.12-.12.26-.18.44-.18.16,0,.3.06.42.18"/>
    <rect x="122.9" y="795.67" width="8.06" height="1"/>
    <path d="M130.99,804.91v-.64c-.35-.18-.71-.47-1.07-.89-.37-.42-.69-.9-.95-1.46h-.96c.11.31.28.66.51,1.05s.46.7.68.94h-6.3v1h8.09ZM128.74,808.12h-1.13v1.14h1.13v-1.14ZM124.03,808.12h-1.13v1.14h1.13v-1.14Z"/>
    <path d="M123.38,811.4c-.41.47-.61,1.07-.61,1.81,0,.9.32,1.61.98,2.14.53.43,1.16.64,1.89.64s1.39-.25,1.88-.73c.49-.49.73-1.09.73-1.8,0-.54-.17-1.05-.5-1.54l2.16.44v3.25h.94v-4.05l-4.14-.79-.12.94c.23.15.42.35.57.61.14.26.21.55.21.87,0,.52-.16.94-.49,1.26-.33.32-.77.48-1.33.48-.59,0-1.07-.17-1.43-.5-.36-.33-.54-.74-.54-1.22,0-.4.13-.74.38-1.03.25-.28.63-.46,1.14-.54l-.09-1.05c-.68.07-1.22.34-1.63.8M123.6,817.82c-.56.45-.83,1.06-.83,1.85,0,.6.16,1.09.47,1.48.32.39.77.68,1.35.88.58.2,1.34.3,2.29.3.8,0,1.43-.06,1.9-.18.47-.12.87-.29,1.2-.5.33-.21.58-.49.76-.82.18-.33.26-.71.26-1.15,0-.59-.16-1.08-.47-1.47-.31-.39-.76-.68-1.34-.88-.58-.2-1.35-.3-2.3-.3-1.51,0-2.6.27-3.27.8M129.6,818.56c.38.27.58.64.58,1.1s-.22.86-.66,1.17-1.32.47-2.64.47-2.2-.15-2.64-.47c-.44-.31-.66-.7-.66-1.16s.22-.85.66-1.16c.44-.31,1.32-.47,2.64-.47s2.23.17,2.72.51"/>
    <polygon class="st19" points="122.9 1168.25 145.51 1179.38 138.76 1193.9 115.81 1182.76 122.9 1168.25"/>
    <polygon points="125.65 1173.99 137 1179.48 121.97 1181.6 121.02 1183.57 135.46 1190.56 136.35 1188.72 125.01 1183.23 140.03 1181.11 140.98 1179.14 126.54 1172.15 125.65 1173.99"/>
    <path d="M123.39,1110.12c-.42.47-.63,1.06-.63,1.78,0,.79.25,1.44.74,1.96.49.52,1.08.77,1.79.77.52,0,.95-.13,1.3-.4.35-.27.58-.64.68-1.12.17.37.4.65.68.84.29.19.61.28.95.28.36,0,.71-.1,1.04-.3.32-.2.58-.49.77-.86.19-.37.28-.78.28-1.23,0-.64-.18-1.18-.55-1.62-.36-.43-.88-.71-1.54-.83l-.18,1c.48.07.85.24,1.09.5s.36.58.36.97-.12.71-.36.96c-.24.25-.54.37-.9.37-.46,0-.79-.17-1.02-.51-.22-.34-.33-.72-.33-1.15,0-.04,0-.09,0-.16l-.87-.11c.07.28.11.51.11.7,0,.47-.15.84-.44,1.15-.29.3-.67.45-1.13.45s-.87-.16-1.2-.48c-.32-.32-.48-.72-.48-1.19,0-.4.12-.73.37-1.01.25-.28.65-.47,1.21-.59l-.13-1c-.67.07-1.22.34-1.64.81M122.9,1116.66h3.03c.53,0,.94.05,1.22.16.29.1.5.28.64.52.15.24.22.5.22.78,0,.37-.11.63-.33.8-.22.16-.55.25-.99.25h-3.79v1h3.39c.6,0,1.04.14,1.31.41.27.28.41.62.41,1.03,0,.23-.05.43-.16.6-.11.17-.25.28-.42.35-.18.07-.46.1-.85.1h-3.68v.99h4.01c.66,0,1.16-.16,1.48-.47.32-.32.48-.76.48-1.35,0-.75-.34-1.36-1.02-1.82.32-.12.57-.31.75-.59.18-.28.27-.64.27-1.07,0-.39-.08-.74-.26-1.05-.17-.31-.41-.55-.69-.74h.82v-.89h-5.84v1Z"/>
    <rect class="st19" x="1186.45" y="440.54" width="18.9" height="102.27"/>
    <path d="M1201.9,446.81v-.95c-.52-.26-1.05-.7-1.61-1.32-.55-.62-1.02-1.34-1.41-2.17h-1.43c.17.46.42.98.76,1.56.34.58.68,1.04,1.02,1.4h-9.41v1.48h12.08ZM1191.51,451.52h-1.68v1.69h1.68v-1.69ZM1191.53,456.18c-.64.42-1.11,1-1.43,1.74-.32.74-.48,1.65-.48,2.74,0,.86.16,1.63.47,2.32.31.69.76,1.22,1.32,1.58.57.37,1.17.55,1.81.55s1.22-.17,1.71-.5c.49-.34.9-.85,1.22-1.56.22-.48.48-1.37.77-2.67.29-1.3.58-2.1.86-2.41.28-.31.63-.47,1.06-.47.5,0,.92.22,1.28.66.36.44.53,1.15.53,2.11s-.19,1.63-.58,2.1c-.39.47-.96.75-1.72.83l.11,1.53c.7-.03,1.34-.23,1.89-.59.56-.37.98-.9,1.27-1.58.29-.68.43-1.47.43-2.37,0-.81-.14-1.55-.41-2.21-.27-.66-.67-1.17-1.2-1.51-.53-.35-1.1-.52-1.71-.52-.55,0-1.05.14-1.5.42-.44.28-.82.71-1.12,1.29-.23.44-.49,1.22-.75,2.33-.27,1.11-.46,1.82-.59,2.15-.19.51-.43.87-.71,1.09-.28.22-.61.33-.99.33s-.72-.11-1.03-.34c-.32-.23-.56-.58-.74-1.04-.18-.47-.27-1-.27-1.61,0-.68.12-1.3.36-1.85.24-.55.55-.96.94-1.22.38-.26.88-.43,1.48-.5l-.13-1.51c-.81.02-1.53.25-2.16.66M1189.83,473.19v1.55c.33-.19.68-.31,1.05-.37s1.23-.09,2.6-.09h1.97c.66,0,1.11-.03,1.36-.07.41-.09.74-.24,1.01-.46.26-.22.48-.56.66-1.03.18-.47.27-1.07.27-1.82s-.1-1.41-.31-1.98c-.2-.57-.5-1.01-.88-1.31-.38-.3-.88-.52-1.5-.65l-.2,1.45c.62.16,1.05.41,1.29.74.24.33.36.85.36,1.55,0,.75-.17,1.31-.5,1.69-.25.28-.67.42-1.27.42-.05,0-.18,0-.38,0-.2-.57-.37-1.45-.51-2.64-.07-.58-.14-1.03-.22-1.32-.11-.39-.27-.75-.48-1.06-.21-.32-.5-.57-.85-.76-.35-.2-.74-.29-1.17-.29-.73,0-1.32.26-1.8.77-.46.51-.7,1.25-.7,2.21,0,.58.1,1.13.29,1.63.19.51.52,1.04.98,1.58-.41.05-.77.14-1.07.3M1193.66,472.77c-.65,0-1.14-.08-1.48-.24-.44-.21-.77-.53-1.02-.98-.25-.44-.37-.95-.37-1.52s.13-1.02.39-1.31c.26-.3.59-.45.98-.45.26,0,.49.07.7.21.21.14.37.33.48.58.11.25.21.68.3,1.29.15,1.08.34,1.88.56,2.42h-.54ZM1201.85,476.62h-12.03v1.48h12.03v-1.48ZM1198.54,480.89h-1.68v1.69h1.68v-1.69ZM1191.51,480.89h-1.68v1.69h1.68v-1.69ZM1201.11,496.19c.53-.61.79-1.38.79-2.33,0-1.27-.46-2.28-1.38-3.03-1.05-.86-2.74-1.29-5.07-1.29-2.08,0-3.57.39-4.48,1.17-.91.78-1.36,1.78-1.36,3.02,0,.72.17,1.37.51,1.94s.84,1.02,1.49,1.34c.65.33,1.35.49,2.1.49,1.15,0,2.08-.35,2.81-1.04.72-.69,1.08-1.54,1.08-2.52,0-.56-.13-1.1-.39-1.62-.26-.51-.66-.95-1.2-1.31,1.2.01,2.13.15,2.78.42.65.26,1.15.63,1.48,1.1.26.35.39.77.39,1.24,0,.59-.21,1.08-.63,1.48-.26.24-.68.43-1.26.56l.11,1.47c.94-.12,1.67-.49,2.2-1.09M1195.61,491.93c.48.47.72,1.04.72,1.7s-.24,1.23-.72,1.68c-.48.45-1.13.67-1.96.67s-1.55-.22-2.05-.67c-.5-.45-.76-.99-.76-1.62,0-.43.12-.83.37-1.22.24-.39.6-.69,1.06-.91.47-.22.95-.33,1.46-.33.77,0,1.4.23,1.88.7M1191.51,499.89h-1.68v1.68h1.68v-1.68ZM1189.83,508.95c0,.77.07,1.42.2,1.95.14.53.33.97.59,1.32.26.35.64.64,1.12.89.49.24,1.01.36,1.57.36.7,0,1.31-.2,1.82-.59.51-.39.88-.95,1.09-1.68.28.57.64.99,1.1,1.27.46.28.94.42,1.45.42.55,0,1.08-.16,1.59-.47.5-.32.88-.75,1.13-1.31.24-.55.36-1.29.36-2.21v-4.52h-12.02v4.6ZM1200.44,505.95v2.41c0,.87-.06,1.48-.17,1.84-.11.36-.32.63-.62.82-.31.19-.66.29-1.05.29-.42,0-.77-.11-1.05-.31-.28-.21-.48-.51-.6-.92-.09-.31-.14-.81-.14-1.52v-2.61h3.64ZM1195.38,505.95v2.79c0,.77-.07,1.35-.2,1.76-.13.41-.37.73-.7.96-.33.23-.72.35-1.17.35-.38,0-.72-.08-1.01-.24-.29-.16-.51-.36-.67-.61-.16-.25-.27-.55-.33-.92-.04-.21-.06-.57-.06-1.09v-3h4.13ZM1191.51,515.98h-1.68v1.68h1.68v-1.68ZM1201.9,525.49v-.96c-.52-.26-1.05-.69-1.61-1.32-.55-.62-1.02-1.34-1.41-2.17h-1.43c.17.46.42.98.76,1.56.34.58.68,1.05,1.02,1.4h-9.41v1.48h12.08ZM1191.51,530.2h-1.68v1.69h1.68v-1.69ZM1201.9,539.71v-.95c-.52-.26-1.05-.7-1.61-1.32-.55-.62-1.02-1.34-1.41-2.17h-1.43c.17.46.42.98.76,1.56.34.58.68,1.05,1.02,1.4h-9.41v1.48h12.08Z"/>
    <rect class="st19" x="1164.51" y="440.54" width="18.9" height="102.27"/>
    <path d="M1169.31,443.1c.27.16.53.37.8.62.26.25.77.82,1.51,1.71.9,1.06,1.6,1.83,2.12,2.29.51.46,1,.78,1.47.98.47.2.94.3,1.42.3.95,0,1.74-.34,2.38-1.01.64-.68.96-1.59.96-2.75s-.3-2.06-.89-2.74c-.59-.68-1.45-1.07-2.59-1.18l-.16,1.52c.76,0,1.35.22,1.77.65.43.43.64,1,.64,1.71,0,.67-.2,1.22-.6,1.64s-.9.63-1.48.63-1.15-.23-1.78-.69c-.62-.46-1.47-1.34-2.55-2.66-.69-.85-1.3-1.49-1.82-1.94-.52-.45-1.06-.77-1.6-.98-.33-.12-.67-.19-1.03-.17v7.97h1.42v-5.91ZM1169.57,451.52h-1.68v1.69h1.68v-1.69ZM1169.59,456.18c-.64.42-1.11,1-1.43,1.74-.32.74-.48,1.65-.48,2.74,0,.86.16,1.63.47,2.32.31.69.76,1.22,1.32,1.58.57.37,1.17.55,1.81.55s1.22-.17,1.71-.5.9-.85,1.22-1.56c.22-.48.48-1.37.77-2.67.29-1.3.58-2.1.86-2.41.28-.31.63-.47,1.06-.47.5,0,.92.22,1.28.66.36.44.53,1.15.53,2.11s-.2,1.63-.59,2.1c-.39.47-.96.75-1.72.83l.12,1.53c.71-.03,1.34-.23,1.89-.59.56-.37.98-.9,1.27-1.58.29-.68.43-1.47.43-2.37,0-.81-.14-1.55-.41-2.21-.27-.66-.67-1.17-1.2-1.51-.53-.35-1.1-.52-1.7-.52-.55,0-1.05.14-1.5.42-.44.28-.82.71-1.12,1.29-.23.44-.49,1.22-.75,2.33-.27,1.11-.46,1.82-.59,2.15-.19.51-.43.87-.71,1.09-.28.22-.61.33-.99.33s-.72-.11-1.03-.34c-.32-.23-.56-.58-.74-1.04-.18-.47-.27-1-.27-1.61,0-.68.12-1.3.36-1.85.24-.55.55-.96.94-1.22.38-.26.88-.43,1.48-.5l-.13-1.51c-.81.02-1.53.25-2.16.66M1167.89,473.19v1.55c.33-.19.68-.31,1.05-.37.36-.06,1.23-.09,2.6-.09h1.97c.65,0,1.11-.03,1.36-.07.41-.09.74-.24,1.01-.46.26-.22.48-.56.66-1.03.18-.47.27-1.07.27-1.82s-.1-1.41-.31-1.98c-.21-.57-.5-1.01-.88-1.31-.38-.3-.88-.52-1.5-.65l-.2,1.45c.62.16,1.05.41,1.29.74.24.33.36.85.36,1.55,0,.75-.17,1.31-.5,1.69-.25.28-.67.42-1.27.42-.06,0-.19,0-.39,0-.2-.57-.37-1.45-.51-2.64-.07-.58-.14-1.03-.22-1.32-.11-.39-.27-.75-.48-1.06-.21-.32-.5-.57-.85-.76-.35-.2-.74-.29-1.17-.29-.73,0-1.32.26-1.8.77-.46.51-.7,1.25-.7,2.21,0,.58.1,1.13.29,1.63.19.51.52,1.04.98,1.58-.41.05-.77.14-1.07.3M1171.72,472.77c-.65,0-1.14-.08-1.48-.24-.43-.21-.77-.53-1.02-.98-.25-.44-.37-.95-.37-1.52s.13-1.02.39-1.31c.26-.3.59-.45.98-.45.26,0,.49.07.7.21.21.14.37.33.48.58.11.25.21.68.3,1.29.15,1.08.34,1.88.56,2.42h-.54ZM1179.91,476.62h-12.03v1.48h12.03v-1.48ZM1176.6,480.89h-1.68v1.69h1.68v-1.69ZM1169.57,480.89h-1.68v1.69h1.68v-1.69ZM1179.17,496.19c.53-.61.79-1.38.79-2.33,0-1.27-.46-2.28-1.38-3.03-1.05-.86-2.74-1.29-5.07-1.29-2.08,0-3.57.39-4.48,1.17-.91.78-1.36,1.78-1.36,3.02,0,.72.17,1.37.51,1.94s.84,1.02,1.49,1.34c.65.33,1.35.49,2.1.49,1.15,0,2.08-.35,2.81-1.04.72-.69,1.08-1.54,1.08-2.52,0-.56-.13-1.1-.39-1.62-.26-.51-.66-.95-1.2-1.31,1.2.01,2.13.15,2.78.42.65.26,1.15.63,1.48,1.1.26.35.39.77.39,1.24,0,.59-.21,1.08-.63,1.48-.26.24-.68.43-1.26.56l.11,1.47c.94-.12,1.67-.49,2.2-1.09M1173.67,491.93c.48.47.72,1.04.72,1.7s-.24,1.23-.72,1.68c-.48.45-1.13.67-1.96.67s-1.55-.22-2.05-.67c-.5-.45-.76-.99-.76-1.62,0-.43.12-.83.37-1.22.24-.39.6-.69,1.06-.91.47-.22.95-.33,1.46-.33.77,0,1.4.23,1.88.7M1169.57,499.89h-1.68v1.68h1.68v-1.68ZM1167.89,508.95c0,.77.07,1.42.2,1.95.14.53.33.97.59,1.32.26.35.64.64,1.12.89.49.24,1.01.36,1.57.36.7,0,1.3-.2,1.82-.59.51-.39.88-.95,1.09-1.68.28.57.64.99,1.1,1.27.46.28.94.42,1.45.42.55,0,1.08-.16,1.59-.47.5-.32.88-.75,1.13-1.31.24-.55.36-1.29.36-2.21v-4.52h-12.02v4.6ZM1178.5,505.95v2.41c0,.87-.06,1.48-.17,1.84-.11.36-.32.63-.62.82-.31.19-.66.29-1.05.29-.42,0-.77-.11-1.05-.31-.28-.21-.48-.51-.6-.92-.09-.31-.14-.81-.14-1.52v-2.61h3.64ZM1173.44,505.95v2.79c0,.77-.07,1.35-.2,1.76-.13.41-.37.73-.7.96-.33.23-.72.35-1.17.35-.38,0-.72-.08-1.02-.24-.29-.16-.51-.36-.67-.61-.16-.25-.27-.55-.33-.92-.04-.21-.06-.57-.06-1.09v-3h4.13ZM1169.57,515.98h-1.68v1.68h1.68v-1.68ZM1169.31,521.78c.27.16.53.37.8.62.26.25.77.82,1.51,1.71.9,1.07,1.6,1.83,2.12,2.29.51.46,1,.79,1.47.98.47.2.94.3,1.42.3.95,0,1.74-.34,2.38-1.01.64-.68.96-1.59.96-2.75s-.3-2.06-.89-2.74c-.59-.68-1.45-1.07-2.59-1.18l-.16,1.52c.76,0,1.35.22,1.77.65.43.43.64,1,.64,1.71,0,.67-.2,1.22-.6,1.64s-.9.63-1.48.63-1.15-.23-1.78-.69c-.62-.46-1.47-1.35-2.55-2.66-.69-.85-1.3-1.49-1.82-1.94-.52-.45-1.06-.77-1.6-.98-.33-.12-.67-.19-1.03-.17v7.97h1.42v-5.91ZM1169.57,530.2h-1.68v1.69h1.68v-1.69ZM1179.96,539.71v-.95c-.52-.26-1.05-.7-1.61-1.32-.55-.62-1.02-1.34-1.41-2.17h-1.43c.17.46.42.98.76,1.56.34.58.68,1.05,1.02,1.4h-9.41v1.48h12.08Z"/>
    <rect class="st19" x="1139.88" y="440.54" width="18.9" height="102.27"/>
    <path d="M1143.98,442.44c-.63.7-.94,1.58-.94,2.64,0,1.18.36,2.15,1.1,2.92.73.77,1.62,1.15,2.67,1.15.78,0,1.42-.2,1.94-.59.51-.4.85-.95,1.02-1.66.25.55.59.96,1.02,1.24.43.28.9.42,1.42.42.55,0,1.06-.15,1.55-.44.49-.29.87-.72,1.15-1.27.28-.56.42-1.16.42-1.82,0-.95-.27-1.75-.82-2.39-.54-.64-1.31-1.06-2.3-1.24l-.26,1.48c.72.11,1.26.35,1.62.74.36.38.54.87.54,1.44s-.18,1.05-.53,1.42c-.36.37-.81.55-1.35.55-.68,0-1.19-.25-1.52-.76-.33-.5-.49-1.07-.49-1.7,0-.06,0-.14.02-.24l-1.3-.16c.11.42.16.76.16,1.04,0,.69-.22,1.25-.66,1.7-.44.44-1,.67-1.68.67s-1.31-.24-1.79-.72c-.48-.48-.72-1.07-.72-1.76,0-.59.18-1.08.55-1.49.37-.41.98-.7,1.81-.87l-.2-1.48c-1,.1-1.82.5-2.45,1.19M1144.93,451.52h-1.68v1.69h1.68v-1.69ZM1144.95,456.18c-.64.42-1.11,1-1.43,1.74-.32.74-.48,1.65-.48,2.74,0,.86.16,1.63.47,2.32.31.69.76,1.22,1.32,1.58.57.37,1.17.55,1.81.55s1.21-.17,1.71-.5.9-.85,1.23-1.56c.22-.48.48-1.37.77-2.67.29-1.3.58-2.1.86-2.41.28-.31.63-.47,1.06-.47.5,0,.92.22,1.28.66.36.44.53,1.15.53,2.11s-.2,1.63-.58,2.1c-.39.47-.96.75-1.72.83l.12,1.53c.7-.03,1.34-.23,1.89-.59.56-.37.98-.9,1.27-1.58.29-.68.43-1.47.43-2.37,0-.81-.14-1.55-.41-2.21-.27-.66-.67-1.17-1.2-1.51-.53-.35-1.09-.52-1.7-.52-.55,0-1.05.14-1.5.42-.44.28-.82.71-1.12,1.29-.23.44-.49,1.22-.75,2.33-.26,1.11-.46,1.82-.58,2.15-.19.51-.43.87-.71,1.09-.28.22-.61.33-.99.33s-.72-.11-1.03-.34c-.32-.23-.56-.58-.74-1.04-.18-.47-.27-1-.27-1.61,0-.68.12-1.3.36-1.85.24-.55.55-.96.93-1.22.38-.26.88-.43,1.48-.5l-.13-1.51c-.81.02-1.53.25-2.16.66M1143.25,473.19v1.55c.33-.19.68-.31,1.05-.37s1.23-.09,2.6-.09h1.97c.66,0,1.11-.03,1.36-.07.41-.09.74-.24,1.01-.46.26-.22.48-.56.66-1.03.18-.47.26-1.07.26-1.82s-.1-1.41-.31-1.98c-.2-.57-.5-1.01-.88-1.31-.38-.3-.88-.52-1.5-.65l-.2,1.45c.62.16,1.05.41,1.29.74.24.33.36.85.36,1.55,0,.75-.17,1.31-.5,1.69-.25.28-.67.42-1.27.42-.05,0-.18,0-.38,0-.2-.57-.37-1.45-.51-2.64-.07-.58-.14-1.03-.22-1.32-.11-.39-.27-.75-.48-1.06-.21-.32-.49-.57-.85-.76-.35-.2-.74-.29-1.17-.29-.73,0-1.33.26-1.79.77-.47.51-.7,1.25-.7,2.21,0,.58.1,1.13.29,1.63.19.51.52,1.04.98,1.58-.41.05-.77.14-1.07.3M1147.08,472.77c-.65,0-1.14-.08-1.48-.24-.43-.21-.77-.53-1.02-.98-.25-.44-.37-.95-.37-1.52s.13-1.02.39-1.31c.26-.3.59-.45.98-.45.25,0,.49.07.7.21.21.14.37.33.48.58.11.25.21.68.29,1.29.15,1.08.34,1.88.56,2.42h-.54ZM1155.28,476.62h-12.03v1.48h12.03v-1.48ZM1151.96,480.89h-1.68v1.69h1.68v-1.69ZM1144.93,480.89h-1.68v1.69h1.68v-1.69ZM1154.53,496.19c.53-.61.79-1.38.79-2.33,0-1.27-.46-2.28-1.38-3.03-1.06-.86-2.74-1.29-5.07-1.29-2.08,0-3.57.39-4.48,1.17-.91.78-1.36,1.78-1.36,3.02,0,.72.17,1.37.51,1.94s.84,1.02,1.49,1.34c.65.33,1.35.49,2.1.49,1.15,0,2.08-.35,2.81-1.04.72-.69,1.08-1.54,1.08-2.52,0-.56-.13-1.1-.39-1.62-.26-.51-.66-.95-1.21-1.31,1.2.01,2.13.15,2.78.42.65.26,1.15.63,1.48,1.1.26.35.39.77.39,1.24,0,.59-.21,1.08-.63,1.48-.27.24-.69.43-1.27.56l.12,1.47c.94-.12,1.67-.49,2.2-1.09M1149.03,491.93c.48.47.72,1.04.72,1.7s-.24,1.23-.72,1.68c-.48.45-1.13.67-1.97.67s-1.55-.22-2.05-.67c-.5-.45-.76-.99-.76-1.62,0-.43.12-.83.36-1.22.24-.39.6-.69,1.06-.91.47-.22.95-.33,1.46-.33.78,0,1.4.23,1.88.7M1144.93,499.89h-1.68v1.68h1.68v-1.68ZM1143.25,508.95c0,.77.07,1.42.2,1.95.13.53.33.97.59,1.32.26.35.64.64,1.12.89.49.24,1.01.36,1.57.36.7,0,1.31-.2,1.82-.59.51-.39.88-.95,1.09-1.68.28.57.64.99,1.1,1.27.46.28.94.42,1.45.42.55,0,1.08-.16,1.59-.47.5-.32.88-.75,1.12-1.31.24-.55.36-1.29.36-2.21v-4.52h-12.03v4.6ZM1153.86,505.95v2.41c0,.87-.06,1.48-.17,1.84-.11.36-.32.63-.62.82-.31.19-.66.29-1.05.29-.42,0-.77-.11-1.05-.31-.28-.21-.48-.51-.6-.92-.09-.31-.14-.81-.14-1.52v-2.61h3.64ZM1148.8,505.95v2.79c0,.77-.07,1.35-.2,1.76-.13.41-.36.73-.7.96-.33.23-.72.35-1.17.35-.38,0-.72-.08-1.01-.24-.29-.16-.52-.36-.67-.61-.16-.25-.27-.55-.33-.92-.04-.21-.06-.57-.06-1.09v-3h4.13ZM1144.93,515.98h-1.68v1.68h1.68v-1.68ZM1143.98,521.11c-.63.7-.94,1.58-.94,2.64,0,1.17.36,2.15,1.1,2.91.73.77,1.62,1.15,2.67,1.15.78,0,1.42-.2,1.94-.59.51-.4.85-.95,1.02-1.66.25.55.59.96,1.02,1.24.43.28.9.42,1.42.42.55,0,1.06-.15,1.55-.44.49-.29.87-.72,1.15-1.27.28-.56.42-1.16.42-1.82,0-.95-.27-1.75-.82-2.4-.54-.64-1.31-1.05-2.3-1.23l-.26,1.48c.72.11,1.26.36,1.62.74.36.38.54.87.54,1.44s-.18,1.05-.53,1.42c-.36.37-.81.55-1.35.55-.68,0-1.19-.25-1.52-.76-.33-.5-.49-1.07-.49-1.7,0-.06,0-.14.02-.24l-1.3-.16c.11.42.16.76.16,1.04,0,.69-.22,1.25-.66,1.7-.44.44-1,.67-1.68.67s-1.31-.24-1.79-.72c-.48-.48-.72-1.07-.72-1.76,0-.59.18-1.08.55-1.49.37-.41.98-.7,1.81-.87l-.2-1.48c-1,.1-1.82.5-2.45,1.19M1144.93,530.2h-1.68v1.69h1.68v-1.69ZM1155.33,539.71v-.95c-.52-.26-1.05-.7-1.61-1.32-.55-.62-1.02-1.34-1.41-2.17h-1.43c.17.46.42.98.76,1.56.34.58.68,1.05,1.02,1.4h-9.41v1.48h12.08Z"/>
    <rect class="st19" x="1116.58" y="440.54" width="18.9" height="102.27"/>
    <path d="M1119.96,447.46h2.88v1.63h1.35v-1.63h7.79v-1.21l-7.79-5.5h-1.35v5.23h-2.88v1.48ZM1124.19,442.21l5.42,3.78h-5.42v-3.78ZM1121.64,451.52h-1.68v1.69h1.68v-1.69ZM1121.66,456.18c-.64.42-1.11,1-1.43,1.74-.32.74-.48,1.65-.48,2.74,0,.86.16,1.63.47,2.32.31.69.76,1.22,1.32,1.58.57.37,1.17.55,1.81.55s1.21-.17,1.71-.5.9-.85,1.23-1.56c.22-.48.48-1.37.77-2.67.29-1.3.58-2.1.86-2.41.28-.31.63-.47,1.06-.47.5,0,.92.22,1.28.66.36.44.53,1.15.53,2.11s-.2,1.63-.58,2.1c-.39.47-.96.75-1.72.83l.12,1.53c.7-.03,1.34-.23,1.89-.59.56-.37.98-.9,1.27-1.58.29-.68.43-1.47.43-2.37,0-.81-.14-1.55-.41-2.21-.27-.66-.67-1.17-1.2-1.51-.53-.35-1.09-.52-1.7-.52-.55,0-1.05.14-1.5.42-.44.28-.82.71-1.12,1.29-.23.44-.49,1.22-.75,2.33-.26,1.11-.46,1.82-.58,2.15-.19.51-.43.87-.71,1.09-.28.22-.61.33-.99.33s-.72-.11-1.03-.34c-.32-.23-.56-.58-.74-1.04-.18-.47-.27-1-.27-1.61,0-.68.12-1.3.36-1.85.24-.55.55-.96.93-1.22.39-.26.88-.43,1.48-.5l-.13-1.51c-.81.02-1.53.25-2.16.66M1119.96,473.19v1.55c.33-.19.68-.31,1.05-.37s1.23-.09,2.6-.09h1.97c.66,0,1.11-.03,1.36-.07.41-.09.74-.24,1.01-.46.26-.22.48-.56.66-1.03.18-.47.26-1.07.26-1.82s-.1-1.41-.31-1.98c-.2-.57-.5-1.01-.88-1.31-.38-.3-.88-.52-1.5-.65l-.2,1.45c.62.16,1.05.41,1.29.74.24.33.36.85.36,1.55,0,.75-.17,1.31-.5,1.69-.25.28-.67.42-1.27.42-.05,0-.18,0-.38,0-.2-.57-.37-1.45-.51-2.64-.07-.58-.14-1.03-.22-1.32-.11-.39-.27-.75-.48-1.06-.21-.32-.49-.57-.85-.76-.35-.2-.74-.29-1.17-.29-.73,0-1.33.26-1.8.77-.47.51-.7,1.25-.7,2.21,0,.58.1,1.13.29,1.63.19.51.52,1.04.98,1.58-.41.05-.77.14-1.07.3M1123.79,472.77c-.65,0-1.14-.08-1.48-.24-.43-.21-.77-.53-1.02-.98-.25-.44-.37-.95-.37-1.52s.13-1.02.39-1.31c.26-.3.59-.45.98-.45.26,0,.49.07.7.21.21.14.37.33.48.58.11.25.21.68.3,1.29.15,1.08.34,1.88.56,2.42h-.54ZM1131.99,476.62h-12.02v1.48h12.02v-1.48ZM1128.67,480.89h-1.68v1.69h1.68v-1.69ZM1121.64,480.89h-1.68v1.69h1.68v-1.69ZM1131.24,496.19c.53-.61.79-1.38.79-2.33,0-1.27-.46-2.28-1.38-3.03-1.05-.86-2.74-1.29-5.07-1.29-2.08,0-3.57.39-4.48,1.17-.91.78-1.36,1.78-1.36,3.02,0,.72.17,1.37.51,1.94s.84,1.02,1.49,1.34c.65.33,1.35.49,2.1.49,1.15,0,2.08-.35,2.81-1.04.72-.69,1.08-1.54,1.08-2.52,0-.56-.13-1.1-.39-1.62-.26-.51-.66-.95-1.21-1.31,1.2.01,2.13.15,2.78.42.65.26,1.15.63,1.48,1.1.26.35.39.77.39,1.24,0,.59-.21,1.08-.63,1.48-.26.24-.69.43-1.27.56l.12,1.47c.94-.12,1.67-.49,2.2-1.09M1125.74,491.93c.48.47.72,1.04.72,1.7s-.24,1.23-.72,1.68c-.48.45-1.13.67-1.96.67s-1.55-.22-2.05-.67c-.5-.45-.76-.99-.76-1.62,0-.43.12-.83.37-1.22.24-.39.6-.69,1.06-.91.47-.22.95-.33,1.46-.33.78,0,1.4.23,1.88.7M1121.64,499.89h-1.68v1.68h1.68v-1.68ZM1119.96,508.95c0,.77.07,1.42.2,1.95.13.53.33.97.59,1.32.26.35.64.64,1.12.89.49.24,1.01.36,1.57.36.7,0,1.31-.2,1.82-.59.51-.39.88-.95,1.09-1.68.28.57.64.99,1.1,1.27.46.28.94.42,1.45.42.55,0,1.08-.16,1.59-.47.5-.32.88-.75,1.12-1.31.24-.55.36-1.29.36-2.21v-4.52h-12.02v4.6ZM1130.57,505.95v2.41c0,.87-.06,1.48-.17,1.84-.11.36-.32.63-.62.82-.31.19-.66.29-1.05.29-.42,0-.77-.11-1.05-.31-.28-.21-.48-.51-.6-.92-.09-.31-.14-.81-.14-1.52v-2.61h3.64ZM1125.51,505.95v2.79c0,.77-.07,1.35-.2,1.76-.13.41-.37.73-.7.96-.33.23-.72.35-1.17.35-.38,0-.72-.08-1.01-.24-.29-.16-.51-.36-.67-.61-.16-.25-.27-.55-.33-.92-.04-.21-.06-.57-.06-1.09v-3h4.13ZM1121.64,515.98h-1.68v1.68h1.68v-1.68ZM1119.96,526.14h2.88v1.63h1.35v-1.63h7.79v-1.21l-7.79-5.5h-1.35v5.23h-2.88v1.48ZM1124.19,520.88l5.42,3.78h-5.42v-3.78ZM1121.64,530.2h-1.68v1.69h1.68v-1.69ZM1132.04,539.71v-.95c-.52-.26-1.05-.7-1.61-1.32-.55-.62-1.02-1.34-1.41-2.17h-1.43c.17.46.42.98.76,1.56.34.58.68,1.05,1.02,1.4h-9.41v1.48h12.08Z"/>
    <rect class="st19" x="1093.63" y="440.54" width="18.9" height="102.27"/>
    <path d="M1097.72,442.42c-.61.7-.92,1.59-.92,2.69,0,1.34.48,2.4,1.46,3.17.79.63,1.73.95,2.82.95s2.08-.36,2.8-1.09c.73-.72,1.09-1.61,1.09-2.67,0-.79-.25-1.55-.76-2.28l3.23.65v4.81h1.41v-6l-6.18-1.17-.18,1.39c.35.22.62.52.84.9.21.38.33.81.33,1.29,0,.77-.25,1.39-.73,1.87-.49.47-1.15.71-2,.71-.89,0-1.6-.25-2.13-.74-.54-.49-.81-1.1-.81-1.81,0-.59.19-1.1.57-1.52.38-.42.94-.69,1.7-.8l-.13-1.56c-1.01.1-1.82.49-2.43,1.19M1098.69,451.52h-1.68v1.69h1.68v-1.69ZM1098.71,456.18c-.64.42-1.11,1-1.43,1.74-.32.74-.48,1.65-.48,2.74,0,.86.16,1.63.47,2.32.31.69.76,1.22,1.32,1.58.57.37,1.17.55,1.81.55s1.22-.17,1.71-.5c.49-.34.9-.85,1.23-1.56.22-.48.48-1.37.77-2.67.29-1.3.58-2.1.86-2.41.28-.31.63-.47,1.06-.47.5,0,.92.22,1.28.66.36.44.53,1.15.53,2.11s-.2,1.63-.58,2.1c-.39.47-.96.75-1.72.83l.12,1.53c.7-.03,1.34-.23,1.89-.59.56-.37.98-.9,1.27-1.58.29-.68.43-1.47.43-2.37,0-.81-.14-1.55-.41-2.21-.27-.66-.67-1.17-1.2-1.51-.53-.35-1.1-.52-1.71-.52-.55,0-1.05.14-1.5.42-.44.28-.82.71-1.12,1.29-.23.44-.49,1.22-.75,2.33-.27,1.11-.46,1.82-.59,2.15-.19.51-.43.87-.71,1.09-.28.22-.61.33-.99.33s-.72-.11-1.03-.34c-.32-.23-.56-.58-.74-1.04-.18-.47-.27-1-.27-1.61,0-.68.12-1.3.36-1.85.24-.55.55-.96.94-1.22.38-.26.88-.43,1.48-.5l-.13-1.51c-.81.02-1.53.25-2.16.66M1097.01,473.19v1.55c.33-.19.68-.31,1.05-.37s1.23-.09,2.6-.09h1.97c.66,0,1.11-.03,1.36-.07.41-.09.74-.24,1.01-.46.26-.22.48-.56.66-1.03.18-.47.27-1.07.27-1.82s-.1-1.41-.31-1.98c-.2-.57-.5-1.01-.88-1.31-.38-.3-.88-.52-1.5-.65l-.2,1.45c.62.16,1.05.41,1.29.74.24.33.36.85.36,1.55,0,.75-.17,1.31-.5,1.69-.25.28-.67.42-1.27.42-.05,0-.18,0-.38,0-.2-.57-.37-1.45-.51-2.64-.07-.58-.14-1.03-.22-1.32-.11-.39-.27-.75-.48-1.06-.21-.32-.5-.57-.85-.76-.35-.2-.74-.29-1.17-.29-.73,0-1.32.26-1.8.77-.46.51-.7,1.25-.7,2.21,0,.58.1,1.13.29,1.63.19.51.52,1.04.98,1.58-.41.05-.77.14-1.07.3M1100.84,472.77c-.65,0-1.14-.08-1.48-.24-.43-.21-.77-.53-1.02-.98-.25-.44-.37-.95-.37-1.52s.13-1.02.39-1.31c.26-.3.59-.45.98-.45.26,0,.49.07.7.21.21.14.37.33.48.58.11.25.21.68.3,1.29.15,1.08.34,1.88.56,2.42h-.54ZM1109.03,476.62h-12.03v1.48h12.03v-1.48ZM1105.72,480.89h-1.68v1.69h1.68v-1.69ZM1098.69,480.89h-1.68v1.69h1.68v-1.69ZM1108.29,496.19c.53-.61.79-1.38.79-2.33,0-1.27-.46-2.28-1.38-3.03-1.05-.86-2.74-1.29-5.07-1.29-2.08,0-3.57.39-4.48,1.17-.91.78-1.36,1.78-1.36,3.02,0,.72.17,1.37.51,1.94s.84,1.02,1.49,1.34c.65.33,1.35.49,2.1.49,1.15,0,2.08-.35,2.81-1.04.72-.69,1.08-1.54,1.08-2.52,0-.56-.13-1.1-.39-1.62-.26-.51-.66-.95-1.21-1.31,1.2.01,2.13.15,2.78.42.65.26,1.15.63,1.48,1.1.26.35.39.77.39,1.24,0,.59-.21,1.08-.63,1.48-.26.24-.68.43-1.27.56l.12,1.47c.94-.12,1.67-.49,2.2-1.09M1102.79,491.93c.48.47.72,1.04.72,1.7s-.24,1.23-.72,1.68c-.48.45-1.13.67-1.96.67s-1.55-.22-2.05-.67c-.5-.45-.76-.99-.76-1.62,0-.43.12-.83.37-1.22.24-.39.6-.69,1.06-.91.47-.22.95-.33,1.46-.33.78,0,1.4.23,1.88.7M1098.69,499.89h-1.68v1.68h1.68v-1.68ZM1097.01,508.95c0,.77.07,1.42.2,1.95.14.53.33.97.59,1.32.26.35.64.64,1.12.89.49.24,1.01.36,1.57.36.7,0,1.31-.2,1.82-.59.51-.39.88-.95,1.09-1.68.28.57.64.99,1.1,1.27.46.28.94.42,1.45.42.55,0,1.08-.16,1.59-.47.5-.32.88-.75,1.13-1.31.24-.55.36-1.29.36-2.21v-4.52h-12.02v4.6ZM1107.62,505.95v2.41c0,.87-.06,1.48-.17,1.84-.11.36-.32.63-.62.82-.31.19-.66.29-1.05.29-.42,0-.77-.11-1.05-.31-.28-.21-.48-.51-.6-.92-.09-.31-.14-.81-.14-1.52v-2.61h3.64ZM1102.56,505.95v2.79c0,.77-.07,1.35-.2,1.76-.13.41-.37.73-.7.96-.33.23-.72.35-1.17.35-.38,0-.72-.08-1.01-.24-.29-.16-.51-.36-.67-.61-.16-.25-.27-.55-.33-.92-.04-.21-.06-.57-.06-1.09v-3h4.13ZM1098.69,515.98h-1.68v1.68h1.68v-1.68ZM1097.72,521.1c-.61.7-.92,1.59-.92,2.69,0,1.34.48,2.39,1.46,3.17.79.63,1.73.95,2.82.95s2.08-.36,2.8-1.09c.73-.72,1.09-1.61,1.09-2.66,0-.8-.25-1.56-.76-2.28l3.23.65v4.81h1.41v-6l-6.18-1.17-.18,1.39c.35.22.62.52.84.9.21.38.33.81.33,1.29,0,.77-.25,1.39-.73,1.86-.49.48-1.15.71-2,.71-.89,0-1.6-.25-2.13-.74-.54-.49-.81-1.1-.81-1.81,0-.59.19-1.1.57-1.52.38-.42.94-.69,1.7-.8l-.13-1.56c-1.01.1-1.82.49-2.43,1.19M1098.69,530.2h-1.68v1.69h1.68v-1.69ZM1109.08,539.71v-.95c-.52-.26-1.05-.7-1.61-1.32-.55-.62-1.02-1.34-1.41-2.17h-1.43c.17.46.42.98.76,1.56.34.58.68,1.05,1.02,1.4h-9.41v1.48h12.08Z"/>
    <line class="st3" x1="694.68" y1="866.16" x2="814.16" y2="917.8"/>
  </g>
  <g class="st8">
    <polygon class="st19" points="540.13 930.39 507.03 919.39 523.75 869.04 556.85 880.03 558.95 881.24 559.33 882.88 543.83 929.58 542.58 930.52 540.13 930.39"/>
    <polygon class="st19" points="494.17 913.1 509.68 866.4 511.26 865.4 513.65 865.69 523.75 869.04 507.03 919.4 496.93 916.04 494.89 914.69 494.17 913.1"/>
  </g>
  <g class="st6">
    <line class="st3" x1="523.75" y1="869.04" x2="507.03" y2="919.39"/>
    <line class="st3" x1="496.93" y1="916.04" x2="494.89" y2="914.69"/>
    <line class="st3" x1="494.89" y1="914.69" x2="494.17" y2="913.1"/>
    <line class="st3" x1="513.65" y1="865.69" x2="511.26" y2="865.4"/>
    <line class="st3" x1="511.26" y1="865.4" x2="509.68" y2="866.4"/>
    <line class="st3" x1="540.13" y1="930.39" x2="542.58" y2="930.52"/>
    <line class="st3" x1="542.58" y1="930.52" x2="543.82" y2="929.58"/>
    <line class="st3" x1="556.85" y1="880.03" x2="558.95" y2="881.23"/>
    <line class="st3" x1="558.95" y1="881.23" x2="559.33" y2="882.88"/>
    <polyline class="st3" points="556.85 880.03 523.75 869.04 513.65 865.69"/>
    <line class="st3" x1="509.68" y1="866.4" x2="494.17" y2="913.1"/>
    <polyline class="st3" points="496.93 916.04 507.03 919.39 540.13 930.39"/>
    <line class="st3" x1="543.82" y1="929.58" x2="559.33" y2="882.88"/>
  </g>
</svg>