<?xml version="1.0" encoding="UTF-8"?>
<svg id="Layer_1" xmlns="http://www.w3.org/2000/svg" xmlns:xlink="http://www.w3.org/1999/xlink" version="1.1" viewBox="0 0 1200 1697.14">
  <!-- Generator: Adobe Illustrator 29.6.0, SVG Export Plug-In . SVG Version: 2.1.1 Build 207)  -->
  <defs>
    <style>
      .st0, .st1, .st2, .st3 {
        fill: none;
      }

      .st1 {
        stroke: #0d0e1c;
      }

      .st1, .st2, .st3 {
        stroke-linecap: round;
        stroke-linejoin: round;
      }

      .st1, .st3 {
        stroke-width: .08px;
      }

      .st2 {
        stroke-width: .14px;
      }

      .st2, .st3 {
        stroke: #000;
      }

      .st4 {
        clip-path: url(#clippath-1);
      }

      .st5 {
        clip-path: url(#clippath-3);
      }

      .st6 {
        clip-path: url(#clippath-4);
      }

      .st7 {
        clip-path: url(#clippath-2);
      }

      .st8 {
        clip-path: url(#clippath-7);
      }

      .st9 {
        clip-path: url(#clippath-6);
      }

      .st10 {
        clip-path: url(#clippath-9);
      }

      .st11 {
        clip-path: url(#clippath-8);
      }

      .st12 {
        clip-path: url(#clippath-5);
      }

      .st13 {
        fill: #fff;
      }

      .st14 {
        fill: #ece9e5;
      }

      .st15 {
        fill: #302c35;
      }

      .st16 {
        clip-path: url(#clippath);
      }
    </style>
    <clipPath id="clippath">
      <rect class="st0" x="441.84" y="765.84" width="72.57" height="159.65"/>
    </clipPath>
    <clipPath id="clippath-1">
      <rect class="st0" x="243.65" y="441.48" width="770.69" height="814.19"/>
    </clipPath>
    <clipPath id="clippath-2">
      <rect class="st0" x="517.32" y="994.66" width="28.6" height="39.22"/>
    </clipPath>
    <clipPath id="clippath-3">
      <rect class="st0" x="243.65" y="441.48" width="770.69" height="814.19"/>
    </clipPath>
    <clipPath id="clippath-4">
      <rect class="st0" x="243.65" y="441.48" width="770.69" height="814.19"/>
    </clipPath>
    <clipPath id="clippath-5">
      <rect class="st0" x="447.83" y="1077.73" width="27.52" height="37.12"/>
    </clipPath>
    <clipPath id="clippath-6">
      <rect class="st0" x="243.65" y="441.48" width="770.69" height="814.19"/>
    </clipPath>
    <clipPath id="clippath-7">
      <rect class="st0" x="243.65" y="441.48" width="770.69" height="814.19"/>
    </clipPath>
    <clipPath id="clippath-8">
      <rect class="st0" x="243.65" y="441.48" width="770.69" height="814.19"/>
    </clipPath>
    <clipPath id="clippath-9">
      <rect class="st0" x="243.65" y="441.48" width="770.69" height="814.19"/>
    </clipPath>
  </defs>
  <rect class="st14" x="421.93" y="663.23" width="339.22" height="481.99"/>
  <rect class="st14" x="461.42" y="576.51" width="249.77" height="170.31"/>
  <rect class="st13" x="695.66" y="910.64" width="60.67" height="226.65"/>
  <rect class="st13" x="481.12" y="667.62" width="223.15" height="11.81"/>
  <rect class="st15" x="684.92" y="693.95" width="76.22" height="15.87"/>
  <rect class="st15" x="421.93" y="1129.36" width="153.91" height="15.87"/>
  <rect class="st15" x="647.4" y="1129.36" width="113.75" height="15.87"/>
  <rect class="st15" x="461.42" y="575.98" width="249.43" height="4.05"/>
  <rect class="st15" x="461.59" y="575.98" width="4.05" height="91.65"/>
  <rect class="st15" x="706.8" y="575.98" width="4.05" height="91.65"/>
  <rect class="st15" x="421.93" y="709.81" width="17.55" height="419.55"/>
  <rect class="st15" x="743.59" y="709.81" width="17.55" height="419.55"/>
  <rect class="st15" x="687.56" y="1005.15" width="56.03" height="6.07"/>
  <rect class="st15" x="441.17" y="1122.61" width="125.9" height="10.21"/>
  <rect class="st15" x="562" y="1113.4" width="5.06" height="9.21"/>
  <rect class="st15" x="441.17" y="988.27" width="120.83" height="5.06"/>
  <rect class="st15" x="435.7" y="988.27" width="10.53" height="144.55"/>
  <rect class="st15" x="446.23" y="993.34" width="115.77" height="1.35"/>
  <rect class="st15" x="560.65" y="1113.4" width="1.35" height="7.86"/>
  <rect class="st15" x="562" y="988.27" width="5.06" height="54.68"/>
  <rect class="st15" x="560.65" y="988.27" width="1.35" height="54.68"/>
  <rect class="st15" x="446.23" y="1121.26" width="115.77" height="1.35"/>
  <rect class="st15" x="446.23" y="993.34" width="1.35" height="127.92"/>
  <rect class="st15" x="439.48" y="928.19" width="119.49" height="8.1"/>
  <rect class="st15" x="558.97" y="928.19" width="8.1" height="60.08"/>
  <rect class="st15" x="684.92" y="663.23" width="76.22" height="30.72"/>
  <rect class="st15" x="421.88" y="693.95" width="65.88" height="15.87"/>
  <rect class="st15" x="421.88" y="663.23" width="65.88" height="30.72"/>
  <polygon class="st13" points="441.85 765.84 441.85 766.25 513.5 766.25 513.5 904.21 514.42 904.67 514.42 765.84 441.85 765.84"/>
  <polygon class="st13" points="441.85 766.25 441.85 868.75 457.77 876.63 497.57 896.33 513.5 904.21 513.5 766.25 441.85 766.25"/>
  <g class="st16">
    <path class="st13" d="M441.84,925.49v-56.74l15.92,7.88v28.26c0,1.82,1.46,3.29,3.28,3.29h33.25c1.81,0,3.27-1.47,3.27-3.29v-8.56l15.93,7.88v21.28h-71.65Z"/>
    <path class="st13" d="M457.77,904.89v-28.26l39.8,19.7v8.56c0,1.82-1.46,3.29-3.28,3.29h-33.25c-1.82,0-3.28-1.47-3.28-3.29"/>
  </g>
  <polyline class="st1" points="513.5 904.21 513.5 925.49 441.84 925.49 441.84 868.75"/>
  <polyline class="st1" points="497.57 896.34 513.5 904.21 514.42 904.67 514.42 765.84 441.85 765.84 441.85 766.25 441.85 868.75 457.77 876.64"/>
  <line class="st1" x1="494.29" y1="908.18" x2="461.05" y2="908.18"/>
  <g class="st4">
    <path class="st1" d="M461.05,908.18c-1.82,0-3.28-1.47-3.28-3.29"/>
    <path class="st1" d="M497.57,904.89c0,1.82-1.46,3.29-3.28,3.29"/>
  </g>
  <polyline class="st1" points="497.57 904.89 497.57 896.33 457.77 876.63 457.77 904.89"/>
  <g class="st7">
    <path class="st13" d="M545.92,994.67c0,7.71,0,15.41,0,23.11,0,8.9-6.41,16.09-14.31,16.09-7.9-.01-14.29-7.21-14.28-16.11,0-7.7,0-15.41.02-23.11,9.52,0,19.05,0,28.58.02"/>
  </g>
  <g class="st5">
    <path class="st3" d="M545.92,994.67c0,7.71,0,15.41,0,23.11,0,8.9-6.41,16.09-14.31,16.09-7.9-.01-14.29-7.21-14.28-16.11,0-7.7,0-15.41.02-23.11,9.52,0,19.05,0,28.58.02Z"/>
  </g>
  <rect class="st13" x="447.39" y="994.3" width="62.49" height="63.21"/>
  <polyline class="st3" points="509.88 994.3 509.88 1057.51 503.71 1057.51"/>
  <line class="st3" x1="509.88" y1="994.3" x2="447.89" y2="994.3"/>
  <line class="st3" x1="447.39" y1="995.34" x2="447.39" y2="1056.96"/>
  <polyline class="st3" points="447.39 995.34 447.39 994.3 447.89 994.3"/>
  <polyline class="st3" points="448.33 1057.51 447.39 1057.51 447.39 1056.96"/>
  <line class="st3" x1="448.33" y1="1057.51" x2="503.71" y2="1057.51"/>
  <line class="st3" x1="479.58" y1="994.3" x2="479.58" y2="1011.86"/>
  <g class="st6">
    <path class="st3" d="M483.43,1011.78c0-2.17-1.76-3.93-3.93-3.93s-3.93,1.76-3.93,3.93,1.76,3.93,3.93,3.93,3.93-1.76,3.93-3.93Z"/>
    <path class="st3" d="M483.43,1011.78c0-2.17-1.76-3.93-3.93-3.93s-3.93,1.76-3.93,3.93,1.76,3.93,3.93,3.93,3.93-1.76,3.93-3.93Z"/>
  </g>
  <g class="st12">
    <path class="st13" d="M473.21,1114.21h-15.49c-.59,0-1.06-.35-1.06-.78v-34.13c0-.44.47-.79,1.06-.79h15.49c.6,0,1.07.35,1.07.79v34.13c0,.43-.47.78-1.07.78M465.74,1099.16c1.55,0,2.8-1.25,2.8-2.8s-1.25-2.81-2.8-2.81-2.8,1.26-2.8,2.81,1.25,2.8,2.8,2.8"/>
    <path class="st13" d="M454.04,1096.36c0,1.16-.94,2.1-2.1,2.1s-2.11-.95-2.11-2.1.94-2.11,2.11-2.11,2.1.94,2.1,2.11"/>
    <path class="st13" d="M465.74,1097.86c-.83,0-1.51-.67-1.51-1.5s.68-1.51,1.51-1.51,1.51.68,1.51,1.51-.68,1.5-1.51,1.5"/>
    <path class="st13" d="M465.74,1093.55c1.55,0,2.8,1.26,2.8,2.81s-1.25,2.8-2.8,2.8-2.8-1.25-2.8-2.8,1.25-2.81,2.8-2.81M467.25,1096.36c0-.83-.68-1.51-1.51-1.51s-1.51.68-1.51,1.51.67,1.5,1.51,1.5,1.51-.67,1.51-1.5"/>
    <path class="st13" d="M454.04,1096.37c0-1.17-.94-2.11-2.1-2.11s-2.11.94-2.11,2.11.95,2.1,2.11,2.1,2.1-.95,2.1-2.1M456.01,1077.73h18.27c.59,0,1.07.35,1.07.78v35.7c0,.34-.48.63-1.07.63h-26.45v-37.12h8.18ZM473.21,1078.51h-15.5c-.59,0-1.06.35-1.06.79v34.13c0,.43.47.78,1.06.78h15.5c.59,0,1.07-.35,1.07-.78v-34.13c0-.44-.48-.79-1.07-.79"/>
  </g>
  <g class="st9">
    <path class="st3" d="M451.94,1094.25c1.16,0,2.1.95,2.1,2.11s-.95,2.1-2.1,2.1-2.11-.94-2.11-2.1.94-2.11,2.11-2.11Z"/>
    <path class="st3" d="M465.74,1093.56c1.55,0,2.8,1.26,2.8,2.81s-1.25,2.8-2.8,2.8-2.8-1.25-2.8-2.8,1.25-2.81,2.8-2.81Z"/>
    <path class="st3" d="M465.74,1094.85c.83,0,1.51.68,1.51,1.51s-.68,1.5-1.51,1.5-1.51-.67-1.51-1.5.68-1.51,1.51-1.51Z"/>
    <path class="st3" d="M457.72,1114.21h15.5c.59,0,1.07-.35,1.07-.78v-34.13c0-.44-.48-.79-1.07-.79h-15.5c-.59,0-1.06.35-1.06.79v34.13c0,.43.47.78,1.06.78Z"/>
  </g>
  <line class="st3" x1="456.01" y1="1077.72" x2="447.83" y2="1077.72"/>
  <g class="st8">
    <path class="st3" d="M447.83,1114.84h26.45c.59,0,1.07-.29,1.07-.63v-35.7c0-.43-.48-.78-1.07-.78h-8.38"/>
  </g>
  <line class="st3" x1="456.01" y1="1077.72" x2="465.9" y2="1077.72"/>
  <line class="st3" x1="447.83" y1="1077.72" x2="447.83" y2="1114.84"/>
  <polygon class="st13" points="671.87 760.1 663.77 761.45 656.34 765.17 656.34 765.5 656.68 765.5 657.36 765.5 657.69 765.5 658.03 765.5 658.37 765.5 660.06 764.49 661.74 763.82 663.09 764.15 664.11 765.17 664.11 765.84 663.77 766.18 658.37 770.91 654.66 776.98 689.08 776.98 685.37 770.91 679.97 766.18 679.3 765.84 679.63 765.17 680.65 764.15 682 763.82 683.68 764.49 685.37 765.5 685.71 765.5 686.04 765.5 686.38 765.5 687.06 765.5 687.4 765.17 679.97 761.45 671.87 760.1"/>
  <polygon class="st13" points="719.78 760.1 711.36 761.45 704.27 765.17 704.27 765.5 704.61 765.5 704.95 765.5 705.62 765.5 705.96 765.5 706.3 765.5 707.99 764.49 709.67 763.82 711.02 764.15 712.04 765.17 712.04 765.84 711.7 766.18 705.96 770.9 702.58 776.98 737.01 776.98 733.3 770.9 727.56 766.18 727.23 765.84 727.23 765.17 728.24 764.15 729.93 763.82 731.61 764.49 732.96 765.5 733.3 765.5 733.97 765.5 734.32 765.5 734.65 765.5 734.99 765.5 735.32 765.17 727.9 761.45 719.81 760.1 719.78 760.1"/>
  <polygon class="st13" points="737.01 776.98 702.58 776.98 689.08 776.98 654.66 776.98 647.9 776.98 647.9 840.77 654.66 840.77 689.08 840.77 702.58 840.77 737.01 840.77 743.43 840.77 743.43 776.98 737.01 776.98"/>
  <polygon class="st13" points="654.66 840.77 658.37 846.85 663.77 851.57 664.11 851.91 664.11 852.59 663.1 853.6 661.74 853.94 660.06 853.26 658.37 852.25 658.03 852.25 657.69 852.25 657.36 852.25 656.68 852.25 656.34 852.25 656.34 852.59 663.77 856.3 671.87 857.65 679.97 856.3 687.4 852.59 687.06 852.25 686.38 852.25 686.05 852.25 685.71 852.25 685.37 852.25 683.68 853.26 682 853.94 680.65 853.6 679.63 852.59 679.3 851.91 679.97 851.57 685.37 846.85 689.08 840.77 654.66 840.77"/>
  <polygon class="st13" points="702.58 840.77 705.96 846.85 711.7 851.57 712.04 851.91 712.04 852.59 711.02 853.6 709.67 853.94 707.99 853.26 706.3 852.25 705.96 852.25 705.62 852.25 704.95 852.25 704.61 852.25 704.27 852.25 704.27 852.59 711.36 856.3 719.78 857.65 719.81 857.65 727.9 856.3 735.33 852.59 734.99 852.25 734.65 852.25 734.31 852.25 733.98 852.25 733.3 852.25 732.96 852.25 731.61 853.26 729.92 853.94 728.24 853.6 727.22 852.59 727.22 851.91 727.56 851.57 733.3 846.85 737.01 840.77 702.58 840.77"/>
  <line class="st3" x1="658.37" y1="852.25" x2="658.03" y2="852.25"/>
  <line class="st3" x1="658.03" y1="852.25" x2="657.69" y2="852.25"/>
  <line class="st3" x1="656.68" y1="852.25" x2="657.36" y2="852.25"/>
  <line class="st3" x1="657.36" y1="852.25" x2="657.69" y2="852.25"/>
  <line class="st3" x1="656.34" y1="852.59" x2="656.34" y2="852.25"/>
  <line class="st3" x1="656.34" y1="852.25" x2="656.68" y2="852.25"/>
  <line class="st3" x1="664.11" y1="852.59" x2="663.09" y2="853.6"/>
  <line class="st3" x1="663.1" y1="853.6" x2="661.74" y2="853.94"/>
  <line class="st3" x1="661.74" y1="853.94" x2="660.06" y2="853.26"/>
  <line class="st3" x1="660.06" y1="853.26" x2="658.37" y2="852.25"/>
  <line class="st3" x1="663.77" y1="851.57" x2="664.11" y2="851.91"/>
  <line class="st3" x1="664.11" y1="851.91" x2="664.11" y2="852.59"/>
  <line class="st3" x1="663.77" y1="851.57" x2="658.37" y2="846.85"/>
  <line class="st3" x1="658.37" y1="846.85" x2="654.66" y2="840.77"/>
  <line class="st3" x1="685.37" y1="852.25" x2="685.71" y2="852.25"/>
  <line class="st3" x1="685.71" y1="852.25" x2="686.05" y2="852.25"/>
  <line class="st3" x1="687.06" y1="852.25" x2="686.39" y2="852.25"/>
  <line class="st3" x1="686.38" y1="852.25" x2="686.05" y2="852.25"/>
  <line class="st3" x1="687.4" y1="852.59" x2="687.06" y2="852.25"/>
  <line class="st3" x1="679.63" y1="852.59" x2="680.65" y2="853.6"/>
  <line class="st3" x1="680.65" y1="853.6" x2="682" y2="853.94"/>
  <line class="st3" x1="682" y1="853.94" x2="683.68" y2="853.26"/>
  <line class="st3" x1="683.68" y1="853.26" x2="685.37" y2="852.25"/>
  <line class="st3" x1="679.97" y1="851.57" x2="679.3" y2="851.91"/>
  <line class="st3" x1="679.3" y1="851.91" x2="679.63" y2="852.59"/>
  <line class="st3" x1="679.97" y1="851.57" x2="685.37" y2="846.85"/>
  <line class="st3" x1="685.37" y1="846.85" x2="689.08" y2="840.77"/>
  <line class="st3" x1="656.34" y1="852.59" x2="663.77" y2="856.3"/>
  <line class="st3" x1="663.77" y1="856.3" x2="671.87" y2="857.65"/>
  <line class="st3" x1="671.87" y1="857.65" x2="679.97" y2="856.3"/>
  <line class="st3" x1="679.97" y1="856.3" x2="687.4" y2="852.59"/>
  <line class="st3" x1="658.37" y1="765.51" x2="658.03" y2="765.51"/>
  <line class="st3" x1="658.03" y1="765.51" x2="657.69" y2="765.51"/>
  <line class="st3" x1="656.68" y1="765.51" x2="657.36" y2="765.51"/>
  <line class="st3" x1="657.36" y1="765.51" x2="657.69" y2="765.51"/>
  <line class="st3" x1="656.34" y1="765.17" x2="656.34" y2="765.5"/>
  <line class="st3" x1="656.34" y1="765.51" x2="656.68" y2="765.51"/>
  <line class="st3" x1="664.11" y1="765.17" x2="663.09" y2="764.15"/>
  <line class="st3" x1="663.1" y1="764.16" x2="661.74" y2="763.82"/>
  <line class="st3" x1="661.74" y1="763.82" x2="660.06" y2="764.49"/>
  <line class="st3" x1="660.06" y1="764.49" x2="658.37" y2="765.51"/>
  <line class="st3" x1="663.77" y1="766.18" x2="664.11" y2="765.84"/>
  <line class="st3" x1="664.11" y1="765.84" x2="664.11" y2="765.17"/>
  <line class="st3" x1="663.77" y1="766.18" x2="658.37" y2="770.9"/>
  <line class="st3" x1="658.37" y1="770.91" x2="654.66" y2="776.98"/>
  <line class="st3" x1="685.37" y1="765.51" x2="685.71" y2="765.51"/>
  <line class="st3" x1="685.71" y1="765.51" x2="686.05" y2="765.51"/>
  <line class="st3" x1="687.06" y1="765.51" x2="686.39" y2="765.51"/>
  <line class="st3" x1="686.38" y1="765.51" x2="686.05" y2="765.51"/>
  <line class="st3" x1="687.4" y1="765.17" x2="687.06" y2="765.5"/>
  <line class="st3" x1="679.63" y1="765.17" x2="680.65" y2="764.15"/>
  <line class="st3" x1="680.65" y1="764.16" x2="682" y2="763.82"/>
  <line class="st3" x1="682" y1="763.82" x2="683.68" y2="764.49"/>
  <line class="st3" x1="683.68" y1="764.49" x2="685.37" y2="765.51"/>
  <line class="st3" x1="679.97" y1="766.18" x2="679.3" y2="765.84"/>
  <line class="st3" x1="679.3" y1="765.84" x2="679.63" y2="765.17"/>
  <line class="st3" x1="679.97" y1="766.18" x2="685.37" y2="770.9"/>
  <line class="st3" x1="685.37" y1="770.91" x2="689.08" y2="776.98"/>
  <line class="st3" x1="656.34" y1="765.17" x2="663.77" y2="761.45"/>
  <line class="st3" x1="663.77" y1="761.45" x2="671.87" y2="760.1"/>
  <line class="st3" x1="671.87" y1="760.1" x2="679.97" y2="761.45"/>
  <line class="st3" x1="679.97" y1="761.45" x2="687.4" y2="765.17"/>
  <line class="st3" x1="647.91" y1="776.98" x2="647.91" y2="840.77"/>
  <line class="st3" x1="732.96" y1="852.25" x2="733.3" y2="852.25"/>
  <line class="st3" x1="733.3" y1="852.25" x2="733.97" y2="852.25"/>
  <line class="st3" x1="734.65" y1="852.25" x2="734.31" y2="852.25"/>
  <line class="st3" x1="734.31" y1="852.25" x2="733.98" y2="852.25"/>
  <line class="st3" x1="735.33" y1="852.59" x2="734.99" y2="852.25"/>
  <line class="st3" x1="734.99" y1="852.25" x2="734.65" y2="852.25"/>
  <line class="st3" x1="727.22" y1="852.59" x2="728.24" y2="853.6"/>
  <line class="st3" x1="728.24" y1="853.6" x2="729.92" y2="853.94"/>
  <line class="st3" x1="729.92" y1="853.94" x2="731.61" y2="853.26"/>
  <line class="st3" x1="731.61" y1="853.26" x2="732.96" y2="852.25"/>
  <line class="st3" x1="727.56" y1="851.57" x2="727.23" y2="851.91"/>
  <line class="st3" x1="727.22" y1="851.91" x2="727.22" y2="852.59"/>
  <line class="st3" x1="727.56" y1="851.57" x2="733.3" y2="846.85"/>
  <line class="st3" x1="733.3" y1="846.85" x2="737.01" y2="840.77"/>
  <line class="st3" x1="706.3" y1="852.25" x2="705.96" y2="852.25"/>
  <line class="st3" x1="705.96" y1="852.25" x2="705.62" y2="852.25"/>
  <line class="st3" x1="704.61" y1="852.25" x2="704.95" y2="852.25"/>
  <line class="st3" x1="704.95" y1="852.25" x2="705.62" y2="852.25"/>
  <line class="st3" x1="704.27" y1="852.59" x2="704.27" y2="852.25"/>
  <line class="st3" x1="704.27" y1="852.25" x2="704.61" y2="852.25"/>
  <line class="st3" x1="712.04" y1="852.59" x2="711.02" y2="853.6"/>
  <line class="st3" x1="711.02" y1="853.6" x2="709.67" y2="853.94"/>
  <line class="st3" x1="709.67" y1="853.94" x2="707.99" y2="853.26"/>
  <line class="st3" x1="707.99" y1="853.26" x2="706.3" y2="852.25"/>
  <line class="st3" x1="711.7" y1="851.57" x2="712.04" y2="851.91"/>
  <line class="st3" x1="712.04" y1="851.91" x2="712.04" y2="852.59"/>
  <line class="st3" x1="711.7" y1="851.57" x2="705.96" y2="846.85"/>
  <line class="st3" x1="705.96" y1="846.85" x2="702.59" y2="840.77"/>
  <line class="st3" x1="735.33" y1="852.59" x2="727.9" y2="856.3"/>
  <line class="st3" x1="727.9" y1="856.3" x2="719.8" y2="857.65"/>
  <line class="st3" x1="719.8" y1="857.65" x2="711.36" y2="856.3"/>
  <line class="st3" x1="711.36" y1="856.3" x2="704.27" y2="852.59"/>
  <line class="st3" x1="732.96" y1="765.51" x2="733.3" y2="765.51"/>
  <line class="st3" x1="733.3" y1="765.51" x2="733.97" y2="765.51"/>
  <line class="st3" x1="734.65" y1="765.51" x2="734.31" y2="765.51"/>
  <line class="st3" x1="734.31" y1="765.51" x2="733.98" y2="765.51"/>
  <line class="st3" x1="735.33" y1="765.17" x2="734.99" y2="765.5"/>
  <line class="st3" x1="734.99" y1="765.51" x2="734.65" y2="765.51"/>
  <line class="st3" x1="727.22" y1="765.17" x2="728.24" y2="764.15"/>
  <line class="st3" x1="728.24" y1="764.16" x2="729.92" y2="763.82"/>
  <line class="st3" x1="729.92" y1="763.82" x2="731.61" y2="764.49"/>
  <line class="st3" x1="731.61" y1="764.49" x2="732.96" y2="765.51"/>
  <line class="st3" x1="727.56" y1="766.18" x2="727.23" y2="765.84"/>
  <line class="st3" x1="727.22" y1="765.84" x2="727.22" y2="765.17"/>
  <line class="st3" x1="727.56" y1="766.18" x2="733.3" y2="770.9"/>
  <line class="st3" x1="733.3" y1="770.91" x2="737.01" y2="776.98"/>
  <line class="st3" x1="706.3" y1="765.51" x2="705.96" y2="765.51"/>
  <line class="st3" x1="705.96" y1="765.51" x2="705.62" y2="765.51"/>
  <line class="st3" x1="704.61" y1="765.51" x2="704.95" y2="765.51"/>
  <line class="st3" x1="704.95" y1="765.51" x2="705.62" y2="765.51"/>
  <line class="st3" x1="704.27" y1="765.17" x2="704.27" y2="765.5"/>
  <line class="st3" x1="704.27" y1="765.51" x2="704.61" y2="765.51"/>
  <line class="st3" x1="712.04" y1="765.17" x2="711.02" y2="764.15"/>
  <line class="st3" x1="711.02" y1="764.16" x2="709.67" y2="763.82"/>
  <line class="st3" x1="709.67" y1="763.82" x2="707.99" y2="764.49"/>
  <line class="st3" x1="707.99" y1="764.49" x2="706.3" y2="765.51"/>
  <line class="st3" x1="711.7" y1="766.18" x2="712.04" y2="765.84"/>
  <line class="st3" x1="712.04" y1="765.84" x2="712.04" y2="765.17"/>
  <line class="st3" x1="711.7" y1="766.18" x2="705.96" y2="770.9"/>
  <line class="st3" x1="705.96" y1="770.91" x2="702.59" y2="776.98"/>
  <line class="st3" x1="735.33" y1="765.17" x2="727.9" y2="761.45"/>
  <line class="st3" x1="727.9" y1="761.45" x2="719.8" y2="760.1"/>
  <line class="st3" x1="719.8" y1="760.1" x2="711.36" y2="761.45"/>
  <line class="st3" x1="711.36" y1="761.45" x2="704.27" y2="765.17"/>
  <line class="st3" x1="743.43" y1="776.98" x2="743.43" y2="840.77"/>
  <polyline class="st3" points="743.43 840.77 737.01 840.77 702.59 840.77 689.08 840.77 654.66 840.77 647.91 840.77"/>
  <polyline class="st3" points="647.91 776.98 654.66 776.98 689.08 776.98 702.59 776.98 737.01 776.98 743.43 776.98"/>
  <line class="st3" x1="725.77" y1="1036.72" x2="736.44" y2="1036.72"/>
  <rect class="st3" x="695.74" y="1011.35" width="47.78" height="117.89"/>
  <line class="st3" x1="728.51" y1="1091.42" x2="728.51" y2="1101.85"/>
  <line class="st3" x1="708.9" y1="1091.42" x2="708.9" y2="1101.85"/>
  <line class="st3" x1="714.05" y1="1096.56" x2="703.62" y2="1096.56"/>
  <line class="st3" x1="733.8" y1="1096.56" x2="723.37" y2="1096.56"/>
  <rect class="st3" x="699.03" y="1085.44" width="39.36" height="22.95"/>
  <rect class="st3" x="706.11" y="1023.38" width="26.55" height="26.54"/>
  <rect class="st3" x="699.51" y="1016.77" width="39.75" height="39.89"/>
  <g class="st11">
    <path class="st13" d="M539.72,882.59c11.43,0,20.69,9.26,20.69,20.69s-9.26,20.69-20.69,20.69-20.69-9.26-20.69-20.69,9.26-20.69,20.69-20.69"/>
    <path class="st1" d="M539.72,882.59c11.43,0,20.69,9.26,20.69,20.69s-9.26,20.69-20.69,20.69-20.69-9.26-20.69-20.69,9.26-20.69,20.69-20.69Z"/>
  </g>
  <path class="st3" d="M439.48,936.3h119.49M558.96,936.3v45.23M558.96,988.27h-119.49M439.48,988.27v-51.98M684.86,693.95v15.86M684.86,709.81h58.73M439.48,709.81h48.27M487.75,709.81v-15.86M421.93,1145.23h4.72M426.65,1145.23h149.19M647.4,1145.23h113.75M743.59,1129.36h-96.19M575.17,1129.36h.67M465.47,576.51v86.72M706.8,663.24v-87.26M461.42,663.24h4.05M465.47,663.24v-87.26M465.47,580.03h241.33M706.8,575.98v87.26M706.8,663.24h4.05M710.85,663.24v-87.26M461.42,576.51v86.72M558.96,936.3l-119.49,51.98M558.96,936.3h-119.49M439.48,936.3v51.98M439.48,988.27h119.49M558.96,988.27v-51.98M421.93,709.81v419.55M761.14,1129.36v-419.55"/>
  <path class="st3" d="M743.59,840.77v-63.79M743.59,957.56h-1.35M739.88,957.56h-2.36M735.15,957.56h-2.36M730.43,957.56h-2.36M725.37,957.56h-2.36M720.64,957.56h-2.36M715.92,957.56h-2.36M711.19,957.56h-2.36M706.46,957.56h-2.36M701.74,957.56h-2.7M696.68,957.56h-1.01M695.66,957.56v-1.35M695.66,953.85v-2.36M695.66,949.12v-2.36M695.66,944.4v-2.7M695.66,939.33v-2.36M695.66,934.61v-2.36M695.66,929.88v-2.36M695.66,925.16v-2.36M695.66,920.43v-2.36M695.66,915.71v-2.7M695.66,910.64v-1.01M695.66,909.63h1.01M699.04,909.63h2.7M704.1,909.63h2.36M708.83,909.63h2.36M713.55,909.63h2.36M718.28,909.63h2.36M723,909.63h2.36M728.07,909.63h2.36M732.79,909.63h2.36M737.52,909.63h2.36M742.24,909.63h1.35M743.59,909.63v1.01M743.59,913.01v2.7M743.59,918.07v2.36M743.59,922.79v2.36M743.59,927.52v2.36M743.59,932.24v2.36M743.59,936.97v2.36M743.59,941.7v2.7M743.59,946.76v2.36M743.59,951.48v2.36M743.59,956.21v1.35M578.54,1062.53l12.83,1.35M591.37,1063.88l12.49,3.71M603.86,1067.59l11.47,6.41M615.33,1074.01l10.13,8.1M625.46,1082.11l8.44,10.13M633.9,1092.23l6.07,11.47M639.97,1103.71l3.71,12.49M643.68,1116.2l1.35,13.16M575.84,1145.23v-15.87M647.4,1129.36v15.87M645.03,1129.36h-66.49M578.54,1129.36v-66.83M575.17,1129.36h.67M743.59,1005.15h-1.35M739.88,1005.15h-2.36M735.15,1005.15h-2.36M730.43,1005.15h-2.36M725.37,1005.15h-2.36M720.64,1005.15h-2.36M715.92,1005.15h-2.36M711.19,1005.15h-2.36M706.46,1005.15h-2.36M701.74,1005.15h-2.7M696.68,1005.15h-1.01M695.66,1005.15v-1.01M695.66,1001.78v-2.36M695.66,996.71v-2.36M695.66,991.99v-2.36M695.66,987.26v-2.36M695.66,982.54v-2.36M695.66,977.81v-2.36M695.66,973.09v-2.36M695.66,968.02v-2.36M695.66,963.3v-2.36M695.66,958.57v-1.01M695.66,957.56h1.01M699.04,957.56h2.7M704.1,957.56h2.36M708.83,957.56h2.36M713.55,957.56h2.36M718.28,957.56h2.36M723,957.56h2.36M728.07,957.56h2.36M732.79,957.56h2.36M737.52,957.56h2.36M742.24,957.56h1.35M743.59,957.56v1.01M743.59,960.93v2.36M743.59,965.66v2.36M743.59,970.72v2.36M743.59,975.45v2.36M743.59,980.17v2.36M743.59,984.9v2.36M743.59,989.62v2.36M743.59,994.35v2.36M743.59,999.41v2.36M743.59,1004.14v1.01M743.59,1005.15h-56.03M687.56,1005.15v6.08M687.56,1011.23h56.03M421.93,1011.23v-6.08M491.46,592.35l13.16,1.01M504.62,593.37l12.49,3.37M517.11,596.74l11.81,5.74M528.92,602.48l10.8,7.43M539.73,609.91l9.45,9.45M549.18,619.36l7.42,10.46M556.6,629.82l5.74,12.15M562.34,641.97l3.38,12.49M565.72,654.46l1.01,13.16M491.46,667.62v-75.27M496.18,672.01h65.48M561.67,672.01v-3.71M561.67,668.3h-65.48M496.18,668.3v3.71M565.04,679.44h-72.23M496.18,667.62h65.48M496.18,674.04h65.48M565.04,674.04v5.4M492.81,674.04v5.4M492.81,674.04h72.23M488.76,679.44h4.05M492.81,679.44v-5.4M492.81,674.04h3.38M496.18,674.04v-6.41M496.18,667.62h-7.43M488.76,667.62v11.81M565.04,679.44h4.05M569.09,679.44v-11.81M569.09,667.62h-7.43M561.67,667.62v6.41M561.67,674.04h3.38M565.04,674.04v5.4M680.14,668.3v3.71M574.15,668.3h105.98M574.15,672.01v-3.71M680.14,672.01h-105.98M574.15,679.44h105.98M680.14,667.62h-105.98M574.15,667.62v11.81M570.1,667.62h4.05M570.1,679.44v-11.81M574.15,679.44h-4.05M683.85,667.62v11.81M680.14,667.62h3.72M680.14,679.44v-11.81M683.85,679.44h-3.72M487.75,677.41v32.4M439.48,709.81v218.38M439.48,928.19h127.58M567.07,1129.36h8.78M743.59,1129.36v-118.13M743.59,1005.15v-295.34M684.86,709.81v-32.4M684.86,677.41h-1.01M570.1,677.41h-1.01M488.76,677.41h-1.01M575.84,1129.36h-.67"/>
  <path class="st3" d="M743.59,1060.17v47.93M743.59,1012.58v95.52M567.06,1129.36v-6.75M567.06,1122.61v-9.11M567.06,1042.95v-54.68M562,1111.13h0M558.96,988.27h-117.8"/>
  <path class="st3" d="M496.18,1111.13l1.35-12.83M497.53,1098.31l3.71-12.49M501.25,1085.82l6.07-11.47M507.32,1074.34l8.1-9.79M515.42,1064.56l9.79-8.1M525.21,1056.45l11.47-6.07M536.69,1050.38l12.49-3.71M549.18,1046.67l12.83-1.35M560.65,1042.95h6.41M567.06,1113.5h-6.41M562,1107.76v3.38M562,1111.13h-65.82M562,1111.13h0M562,1107.76v-62.44"/>
  <path class="st3" d="M480.32,994.69h-1.35M477.28,994.69h-1.35M480.32,994.69h-4.39M480.32,994.69h-1.35M477.28,994.69h-1.35M447.58,994.69h113.07M560.65,994.69v48.26M560.65,1113.5v7.76M560.65,1121.26h-113.07M447.58,1121.26v-126.57"/>
  <path class="st3" d="M507.66,994.69h-21.27M481.67,994.69h-2.7M477.28,994.69h-2.7M469.86,994.69h-21.26M508.34,995.02l-.67-.34M761.14,928.19v8.1M439.48,936.29h8.1M447.58,936.29v-8.1M447.58,928.19h-8.1M495.17,936.29h63.8M558.97,928.19h-63.8M495.17,928.19v8.1M495.17,936.29h-47.59M447.58,928.19h47.59M447.58,936.29v-8.1M495.17,928.19v8.1M567.07,988.27v-60.08M567.07,928.19h-8.1M487.75,693.95v-30.72M487.75,663.23h-65.82M761.14,663.23h-76.28M684.86,663.23v30.72M684.86,672.01h-1.01M570.1,672.01h-1.01M488.76,672.01h-1.01M487.75,677.41v-5.4M684.86,672.01v5.4M684.86,672.01v-8.78M487.75,663.23v8.78M487.75,672.01h1.01M569.09,672.01h1.01M683.85,672.01h1.01M761.14,663.23v481.99M421.93,1145.22v-481.99"/>
  <g class="st10">
    <path class="st2" d="M1120.61,579.19h-6.07M1096.99,499.87l-16.2,7.09M1085.17,524.51l-4.38-17.55M1057.49,495.82l27.68,28.69M1057.49,495.82l39.49,4.05M1057.49,495.82l23.29,11.14M1120.61,818.5h-6.07M1120.61,658.84h-6.07M1120.61,738.5h-6.07M1120.61,818.5v-239.31M-5.72,1278.21h1183.71"/>
    <path d="M1099.22,1227.3c.43-.28.75-.67.96-1.17.21-.5.32-1.12.32-1.85,0-.58-.11-1.1-.32-1.57-.21-.47-.5-.82-.89-1.07-.38-.25-.78-.37-1.21-.37s-.81.11-1.15.34c-.33.23-.61.58-.82,1.05-.14.33-.32.93-.51,1.8-.19.87-.38,1.42-.57,1.62-.19.21-.42.32-.72.32-.33,0-.62-.15-.85-.45-.23-.3-.36-.77-.36-1.42s.13-1.1.39-1.42c.26-.32.64-.51,1.16-.56l-.08-1.03c-.47.02-.9.15-1.27.4-.37.25-.66.6-.85,1.06-.19.46-.29.99-.29,1.59,0,.55.09,1.05.27,1.49.18.45.45.79.81,1.02.35.23.74.35,1.14.35.37,0,.71-.1,1-.28.3-.19.55-.48.75-.87.16-.3.33-.82.5-1.57.18-.75.31-1.23.39-1.45.13-.34.29-.59.48-.73.19-.15.41-.22.66-.22s.48.08.69.23c.21.15.38.39.49.7.12.31.18.68.18,1.09,0,.46-.08.88-.24,1.25-.16.37-.37.65-.62.82-.26.17-.59.29-.99.34l.09,1.01c.54-.02,1.02-.16,1.45-.45M1100.36,1218.58h-2.79l-1.28-1.33,4.08-2.9v-1.42l-4.8,3.57-3.26-3.41v1.46l4,4.04h-4v1.08h8.06v-1.08Z"/>
    <path d="M1094.7,1209.06h.92v-5.37h-.92v5.37ZM1097.14,1209.06h.92v-5.37h-.92v5.37Z"/>
    <path d="M1099.22,1198.95c.43-.28.75-.67.96-1.17.21-.5.32-1.11.32-1.85,0-.58-.1-1.1-.31-1.57-.21-.47-.51-.82-.89-1.07-.38-.25-.78-.37-1.22-.37s-.81.11-1.14.34c-.33.23-.61.58-.82,1.05-.15.33-.32.93-.51,1.8-.2.88-.39,1.42-.57,1.63-.19.21-.42.31-.71.31-.34,0-.62-.15-.86-.45-.23-.3-.36-.77-.36-1.42s.13-1.1.39-1.42c.26-.32.64-.51,1.15-.56l-.08-1.03c-.47.02-.9.15-1.27.4-.38.25-.66.6-.85,1.07-.19.46-.29.99-.29,1.59,0,.55.09,1.05.28,1.49.18.45.45.79.8,1.02.35.23.73.35,1.14.35.37,0,.71-.1,1-.29.3-.19.55-.48.75-.87.16-.3.32-.83.5-1.57.18-.74.31-1.23.39-1.45.13-.34.29-.59.48-.73.19-.15.41-.22.66-.22s.48.07.69.23c.21.15.38.39.5.7.12.31.18.68.18,1.09,0,.46-.08.88-.24,1.25-.16.37-.37.64-.63.82-.26.17-.59.29-.99.34l.09,1.01c.54-.01,1.02-.16,1.45-.45"/>
    <path d="M1100.36,1190.73h-2.31l-.67-.71,2.98-1.95v-1.23l-3.67,2.48-2.16-2.26v1.29l2.38,2.37h-4.6v1h8.06v-1ZM1100.36,1181.6v-1.04c-.22.12-.46.21-.7.25-.25.04-.83.07-1.75.07h-1.32c-.44,0-.74.02-.91.05-.27.06-.49.16-.67.31-.18.15-.33.38-.44.69-.12.31-.18.72-.18,1.23s.07.95.21,1.33c.14.38.33.68.59.88.26.2.59.35,1,.44l.13-.98c-.42-.11-.7-.27-.87-.5-.16-.22-.25-.57-.25-1.04,0-.5.11-.88.34-1.14.16-.19.45-.28.85-.28.03,0,.12,0,.26,0,.13.38.25.97.34,1.78.05.4.09.69.15.89.07.27.18.5.32.72.14.21.33.38.57.52.24.13.5.2.78.2.49,0,.89-.17,1.2-.52.31-.35.47-.84.47-1.49,0-.39-.07-.76-.19-1.1-.13-.34-.35-.7-.66-1.07.27-.03.51-.1.72-.2M1097.79,1181.89c.44,0,.77.05.99.16.29.14.52.36.68.66.17.3.25.64.25,1.02s-.09.69-.27.89c-.18.2-.4.3-.66.3-.18,0-.33-.05-.47-.14-.14-.09-.25-.22-.33-.39-.07-.17-.14-.46-.2-.87-.1-.73-.23-1.27-.38-1.63h.36Z"/>
    <path d="M1100.36,1178.57h-2.31l-.67-.71,2.99-1.95v-1.23l-3.67,2.48-2.16-2.25v1.29l2.37,2.37h-4.6v1h8.06v-1ZM1099.51,1172.1c0,.15-.03.26-.07.34-.05.08-.11.14-.19.17-.08.03-.26.05-.55.05h-3.42v-1.01h-.77v1.01h-2.04l.59.99h1.45v.73h.77v-.73h3.36c.59,0,.98-.04,1.17-.12.18-.08.33-.22.45-.42.11-.2.17-.48.17-.84,0-.22-.03-.47-.09-.76l-.88.14c.03.18.04.33.04.44"/>
    <path d="M1113.52,1226.25h-3.66v-3.82h-.95v3.82h-2.5v-4.41h-.95v5.49h8.06v-1.08ZM1112.38,1220.55c.43-.28.74-.67.96-1.17.21-.5.32-1.11.32-1.85,0-.58-.1-1.11-.31-1.57-.21-.46-.51-.82-.89-1.07-.38-.25-.79-.37-1.22-.37s-.81.11-1.14.34c-.33.23-.61.58-.83,1.05-.14.33-.32.93-.51,1.8-.2.88-.39,1.42-.57,1.63-.19.21-.43.31-.72.31-.33,0-.62-.15-.85-.45-.23-.3-.35-.77-.35-1.42s.13-1.1.39-1.42c.26-.32.64-.51,1.15-.56l-.08-1.03c-.47.02-.9.15-1.27.4-.38.25-.66.6-.85,1.07-.19.46-.29.99-.29,1.59,0,.55.09,1.05.27,1.49.19.45.45.79.81,1.02.35.24.73.35,1.14.35.37,0,.7-.1,1-.29.3-.19.55-.48.75-.87.16-.3.32-.83.5-1.57.18-.74.31-1.23.39-1.45.13-.34.29-.59.48-.73.19-.15.41-.22.66-.22s.48.07.69.23c.21.15.38.39.5.7.12.31.18.68.18,1.09,0,.46-.08.88-.24,1.25-.16.37-.37.64-.63.82-.26.17-.59.29-.99.34l.09,1.01c.54-.01,1.02-.16,1.45-.45"/>
    <path d="M1107.86,1210.08h.92v-5.37h-.92v5.37ZM1110.31,1210.08h.92v-5.37h-.92v5.37Z"/>
    <polygon points="1113.52 1198.91 1109.86 1198.91 1109.86 1195.09 1108.91 1195.09 1108.91 1198.91 1106.42 1198.91 1106.42 1194.5 1105.47 1194.5 1105.47 1199.99 1113.52 1199.99 1113.52 1198.91"/>
    <path d="M1112.87,1192.69c.53-.51.79-1.18.79-2,0-.51-.12-.99-.36-1.42-.24-.43-.57-.76-1-.99-.43-.23-1.02-.34-1.77-.34-.93,0-1.65.26-2.18.77-.53.52-.79,1.18-.79,1.99,0,.73.22,1.35.65,1.85.52.61,1.32.91,2.4.91.98,0,1.74-.25,2.26-.76M1108.93,1191.93c-.37-.33-.55-.74-.55-1.24s.18-.9.56-1.23c.37-.33.92-.5,1.64-.5.77,0,1.34.16,1.71.49.38.33.56.74.56,1.24s-.19.91-.56,1.24c-.37.33-.93.49-1.68.49s-1.31-.16-1.68-.49M1113.52,1186.02h-3.05c-.42,0-.81-.06-1.16-.17-.23-.07-.41-.2-.54-.37-.13-.18-.2-.37-.2-.59,0-.24.07-.49.21-.73l-.92-.34c-.21.35-.32.69-.32,1.03,0,.23.07.45.2.64.13.19.41.4.82.63h-.89v.9h5.84v-1Z"/>
    <path d="M1112.56,1179.87c.19.26.29.57.29.94,0,.49-.17.9-.51,1.23-.34.33-.83.51-1.48.55v-4.4c-.11,0-.2,0-.26,0-.96,0-1.71.25-2.24.75-.53.5-.8,1.14-.8,1.93s.27,1.47.81,1.98c.54.51,1.31.77,2.29.77s1.69-.25,2.21-.76c.53-.5.79-1.19.79-2.05,0-.68-.16-1.25-.49-1.69-.33-.44-.79-.74-1.39-.9l-.13,1.03c.42.15.72.36.91.62M1108.82,1182.02c-.31-.31-.46-.7-.46-1.16,0-.51.19-.92.57-1.24.25-.21.61-.33,1.1-.38v3.29c-.51-.03-.91-.21-1.22-.52M1113.18,1176.51c.31-.4.47-.98.47-1.75,0-.46-.08-.88-.24-1.24-.16-.37-.38-.65-.67-.84-.29-.19-.6-.29-.93-.29s-.62.08-.84.24c-.23.16-.4.38-.52.66-.12.28-.27.77-.46,1.48-.13.49-.22.78-.25.88-.07.17-.16.3-.26.38-.1.08-.22.12-.35.12-.2,0-.38-.1-.53-.3-.15-.19-.23-.52-.23-.98,0-.39.08-.69.25-.9.17-.21.4-.34.7-.38l-.13-.97c-.38.06-.68.18-.9.34-.23.17-.4.42-.54.77-.13.35-.2.76-.2,1.22,0,.31.04.59.12.87.08.27.18.48.29.63.14.21.33.37.55.49.22.12.46.18.72.18.29,0,.55-.07.79-.22.23-.15.42-.36.55-.64s.29-.79.48-1.52c.14-.55.25-.88.33-1.02.13-.2.31-.29.53-.29.25,0,.47.11.65.33.19.22.28.56.28,1.02s-.1.81-.31,1.06c-.21.25-.51.41-.9.46l.16.99c.62-.11,1.09-.37,1.4-.77M1105.46,1171.13h8.06v-1h-8.06v1ZM1113.52,1164.44v-1.04c-.22.13-.46.21-.7.25-.24.04-.82.06-1.74.06h-1.32c-.44,0-.75.02-.91.05-.27.06-.5.17-.67.31-.18.15-.33.38-.44.69-.12.31-.18.72-.18,1.23s.07.95.2,1.34c.14.38.33.68.59.88.25.21.59.35,1,.44l.13-.98c-.41-.11-.7-.27-.86-.5-.17-.22-.25-.57-.25-1.04,0-.5.11-.88.33-1.14.17-.19.45-.28.85-.28.04,0,.12,0,.26,0,.13.38.24.97.34,1.78.05.4.1.69.15.89.07.27.18.5.32.72.14.21.33.38.57.52.23.13.5.2.78.2.49,0,.89-.17,1.2-.52s.47-.84.47-1.49c0-.39-.06-.76-.19-1.1-.13-.34-.35-.7-.66-1.07.28-.03.51-.1.72-.2M1110.96,1164.73c.44,0,.77.06.99.16.29.14.52.36.68.66.16.3.25.64.25,1.03s-.09.69-.26.89c-.18.2-.4.3-.66.3-.17,0-.33-.04-.47-.14-.14-.09-.25-.22-.32-.39-.08-.17-.14-.46-.2-.87-.1-.72-.22-1.27-.37-1.63h.36ZM1106.9,1166.82c.2-.19.29-.43.29-.71s-.1-.5-.29-.7c-.19-.2-.43-.3-.71-.3s-.52.1-.71.3c-.2.2-.29.43-.29.7s.1.5.29.7.42.3.69.3c.29,0,.54-.1.74-.3M1105.76,1166.52c-.11-.12-.18-.26-.18-.41s.06-.3.18-.42c.12-.11.26-.17.42-.17s.31.06.42.17c.12.12.18.25.18.42s-.06.29-.18.41c-.12.12-.26.17-.44.17-.16,0-.3-.06-.42-.17M1112.56,1158.66c.19.26.29.57.29.94,0,.49-.17.9-.51,1.23-.34.33-.83.51-1.48.55v-4.4c-.11,0-.2,0-.26,0-.96,0-1.71.25-2.24.75-.53.5-.8,1.15-.8,1.93s.27,1.48.81,1.98c.54.51,1.31.76,2.29.76s1.69-.25,2.21-.76c.53-.5.79-1.19.79-2.05,0-.68-.16-1.25-.49-1.69-.33-.44-.79-.74-1.39-.9l-.13,1.03c.42.15.72.36.91.61M1108.82,1160.8c-.31-.31-.46-.7-.46-1.16,0-.51.19-.92.57-1.24.25-.21.61-.33,1.1-.38v3.29c-.51-.03-.91-.21-1.22-.52"/>
    <path d="M1112.68,1153.87c0,.15-.02.26-.07.34-.05.08-.11.14-.19.17-.08.03-.26.05-.55.05h-3.41v-1.01h-.77v1.01h-2.04l.59,1h1.45v.73h.77v-.73h3.36c.59,0,.98-.04,1.17-.12.19-.08.33-.22.45-.42.12-.2.17-.48.17-.84,0-.22-.03-.47-.09-.75l-.88.14c.03.18.04.33.04.44M1113.18,1149.18c.32-.4.47-.98.47-1.75,0-.46-.08-.88-.24-1.25-.16-.37-.38-.65-.68-.84-.29-.2-.6-.29-.93-.29s-.62.08-.85.24c-.23.16-.4.38-.52.66-.12.28-.27.77-.46,1.48-.14.49-.22.78-.25.88-.07.17-.16.3-.27.38-.1.08-.21.12-.35.12-.2,0-.38-.1-.53-.3s-.23-.52-.23-.98c0-.39.08-.69.25-.9.17-.21.4-.34.7-.38l-.13-.98c-.38.06-.68.18-.9.34-.22.17-.4.43-.54.78-.13.35-.2.76-.2,1.22,0,.31.04.59.12.86.08.27.18.48.29.63.15.21.33.37.55.49.22.12.46.18.72.18.28,0,.55-.07.78-.22.23-.14.42-.36.55-.65.13-.28.29-.79.48-1.52.14-.54.25-.88.34-1.02.13-.19.31-.29.53-.29.25,0,.47.11.65.33.19.22.28.56.28,1.02s-.1.81-.32,1.06c-.21.25-.51.41-.9.46l.15.99c.62-.11,1.09-.36,1.4-.77"/>
    <path d="M1113.52,1142.46h-2.31l-.67-.71,2.98-1.95v-1.23l-3.67,2.48-2.16-2.25v1.29l2.38,2.36h-4.6v1h8.06v-1ZM1113.52,1133.68v-1.04c-.22.12-.46.21-.7.25-.25.04-.83.07-1.75.07h-1.32c-.44,0-.74.02-.91.05-.27.06-.5.16-.67.31-.18.15-.33.38-.45.69-.12.31-.18.72-.18,1.23s.07.95.21,1.33.33.68.59.88c.25.2.59.35,1,.44l.13-.98c-.41-.11-.7-.27-.86-.5-.16-.22-.25-.57-.25-1.04,0-.5.11-.88.33-1.14.17-.19.45-.28.85-.28.04,0,.13,0,.26,0,.14.38.25.97.35,1.78.05.4.09.69.15.89.07.27.18.5.32.72.14.21.33.38.57.52.23.13.49.2.78.2.49,0,.89-.17,1.2-.52.31-.35.47-.84.47-1.49,0-.39-.07-.76-.2-1.1-.13-.34-.35-.7-.66-1.07.27-.03.51-.1.72-.2M1110.96,1133.96c.44,0,.77.05.99.16.29.14.51.36.68.66.17.3.25.64.25,1.02s-.09.69-.27.89c-.18.2-.4.3-.66.3-.17,0-.33-.05-.47-.14-.14-.09-.25-.22-.32-.39-.07-.17-.14-.46-.2-.87-.1-.73-.23-1.27-.38-1.63h.36Z"/>
    <path d="M1112.79,1130.73c.58-.4.86-.94.86-1.64s-.27-1.3-.82-1.8c-.55-.5-1.32-.75-2.32-.75-.42,0-.82.06-1.19.18-.37.12-.68.28-.95.49-.26.21-.47.48-.61.8-.14.32-.22.67-.22,1.03,0,.65.26,1.19.79,1.62h-2.88v1h8.06v-.93h-.73ZM1108.93,1130.26c-.38-.32-.56-.69-.56-1.13s.18-.8.54-1.11c.36-.31.93-.46,1.69-.46s1.3.16,1.68.48c.38.32.56.69.56,1.13,0,.54-.25.96-.76,1.27-.31.19-.82.29-1.52.29s-1.25-.16-1.63-.48"/>
    <path d="M1112.49,819.92c.56-.45.83-1.06.83-1.85,0-.6-.16-1.09-.48-1.48-.31-.39-.76-.68-1.35-.88-.58-.2-1.34-.29-2.29-.29-.8,0-1.44.06-1.91.18-.47.12-.87.29-1.2.5-.33.21-.58.49-.76.81-.18.33-.26.71-.26,1.15,0,.59.16,1.08.47,1.47.31.39.76.69,1.34.88.58.2,1.35.29,2.3.29,1.51,0,2.6-.27,3.27-.8M1106.49,819.18c-.39-.28-.58-.64-.58-1.1s.22-.85.65-1.17c.44-.31,1.32-.47,2.65-.47s2.2.16,2.64.47c.44.31.66.7.66,1.16s-.22.84-.65,1.16c-.44.31-1.32.47-2.64.47s-2.23-.17-2.72-.52M1112.24,666.23c-.18-.11-.36-.25-.53-.42-.18-.17-.52-.55-1.02-1.15-.6-.72-1.07-1.23-1.42-1.54-.35-.31-.67-.53-.98-.66-.31-.13-.63-.2-.95-.2-.64,0-1.17.23-1.6.68-.43.46-.64,1.07-.64,1.86s.2,1.39.6,1.85c.4.46.97.73,1.73.8l.1-1.03c-.5,0-.9-.15-1.19-.44-.29-.29-.43-.68-.43-1.16,0-.46.14-.83.4-1.11.27-.28.6-.43.99-.43s.77.16,1.19.47c.42.31.99.91,1.71,1.79.46.57.87,1.01,1.22,1.31.35.3.71.52,1.07.66.22.08.45.12.69.11v-5.38h-.95v3.99Z"/>
    <path d="M1113.19,660.14h-3.03c-.53,0-.94-.05-1.22-.16-.29-.11-.5-.28-.64-.52-.15-.24-.22-.5-.22-.78,0-.37.11-.64.33-.8.22-.16.55-.24.99-.24h3.79v-1h-3.39c-.6,0-1.04-.14-1.31-.41-.27-.28-.41-.62-.41-1.04,0-.23.05-.43.16-.6.11-.17.25-.29.42-.35.18-.07.46-.1.85-.1h3.68v-1h-4.01c-.66,0-1.16.16-1.48.47-.32.31-.48.76-.48,1.35,0,.75.34,1.35,1.02,1.82-.32.11-.57.31-.75.59-.18.28-.27.64-.27,1.07,0,.39.08.74.26,1.05.17.31.41.55.69.74h-.82v.9h5.84v-1Z"/>
    <path d="M1105.1,741.02v.64c.35.17.71.47,1.08.89.37.42.68.9.94,1.46h.96c-.11-.31-.29-.66-.51-1.05-.23-.39-.46-.7-.68-.95h6.3v-1h-8.09ZM1113.19,737.09h-3.03c-.53,0-.94-.05-1.22-.16-.29-.11-.5-.28-.64-.52-.15-.24-.22-.5-.22-.78,0-.37.11-.63.33-.8.22-.16.55-.24.99-.24h3.79v-1h-3.39c-.6,0-1.04-.14-1.31-.41-.27-.27-.41-.62-.41-1.03,0-.23.05-.43.16-.6.11-.17.25-.29.42-.35.18-.07.46-.1.85-.1h3.68v-.99h-4.01c-.66,0-1.16.16-1.48.47-.32.31-.48.76-.48,1.35,0,.75.34,1.35,1.02,1.82-.32.11-.57.31-.75.59-.18.28-.27.64-.27,1.07,0,.39.08.74.26,1.05.17.31.41.55.69.74h-.82v.89h5.84v-1Z"/>
    <path d="M1113.19,915.85h-6.86l6.86-2.35v-.97l-6.74-2.36h6.74v-1.04h-8.06v1.45l5.61,1.94c.57.2,1,.34,1.29.44-.27.08-.66.21-1.19.39l-5.71,1.92v1.62h8.06v-1.04ZM1113.19,903.82v-1.04c-.23.13-.46.21-.7.25-.24.04-.83.06-1.74.06h-1.32c-.44,0-.74.02-.91.05-.27.06-.49.16-.67.31-.18.15-.33.38-.44.69-.12.31-.18.72-.18,1.23s.07.95.2,1.34c.14.39.34.68.59.88.25.21.59.35,1,.44l.13-.98c-.42-.11-.7-.27-.87-.49-.16-.22-.25-.57-.25-1.04,0-.5.11-.88.34-1.14.16-.19.45-.28.85-.28.03,0,.12,0,.26,0,.13.38.24.97.34,1.78.05.4.1.69.15.89.08.26.18.5.33.72.14.21.33.38.57.51.24.13.5.2.78.2.49,0,.89-.18,1.2-.52.32-.35.47-.85.47-1.49,0-.39-.07-.76-.19-1.1-.13-.34-.35-.7-.66-1.07.27-.03.51-.1.72-.2M1110.62,904.1c.44,0,.77.06.99.16.29.14.52.36.69.66.16.3.25.64.25,1.03s-.09.68-.26.88c-.18.2-.39.3-.66.3-.17,0-.33-.05-.47-.14-.14-.09-.25-.22-.32-.39-.07-.17-.14-.46-.2-.87-.1-.72-.23-1.27-.37-1.63h.36ZM1106.56,906.2c.2-.2.29-.43.29-.71s-.09-.5-.29-.7c-.19-.2-.43-.29-.71-.29s-.52.1-.71.29c-.2.2-.29.43-.29.7s.1.5.29.7c.2.2.42.3.69.3.29,0,.54-.1.73-.29M1105.42,905.89c-.12-.12-.17-.26-.17-.41s.06-.3.17-.42c.12-.11.26-.17.42-.17s.31.06.43.18c.11.12.17.25.17.42s-.06.29-.17.41c-.12.12-.26.18-.44.18-.16,0-.3-.06-.42-.18"/>
    <rect x="1105.13" y="900.48" width="8.06" height="1"/>
    <path d="M1105.1,892.23v.65c.35.17.71.47,1.07.89.37.42.69.91.95,1.46h.96c-.11-.31-.28-.66-.51-1.05-.23-.39-.46-.71-.68-.95h6.3v-1h-8.09ZM1107.35,889.03h1.13v-1.14h-1.13v1.14ZM1112.06,889.03h1.13v-1.14h-1.13v1.14Z"/>
    <path d="M1112.71,885.74c.41-.47.61-1.07.61-1.81,0-.9-.32-1.61-.98-2.14-.53-.43-1.16-.64-1.89-.64s-1.39.24-1.88.73c-.49.49-.73,1.09-.73,1.8,0,.54.17,1.05.5,1.54l-2.16-.44v-3.25h-.94v4.05l4.14.79.12-.94c-.23-.15-.42-.35-.57-.61-.14-.26-.21-.55-.21-.87,0-.52.16-.94.49-1.26.33-.32.77-.48,1.33-.48.59,0,1.07.17,1.43.5.36.33.54.74.54,1.22,0,.4-.13.74-.38,1.03-.25.28-.63.46-1.14.54l.09,1.05c.68-.07,1.22-.34,1.63-.8M1112.49,879.33c.56-.45.83-1.06.83-1.85,0-.6-.16-1.09-.47-1.48-.32-.39-.77-.68-1.35-.88-.58-.2-1.34-.3-2.29-.3-.8,0-1.43.06-1.9.18-.47.12-.87.29-1.2.51-.33.21-.58.49-.76.82-.18.33-.26.71-.26,1.15,0,.59.16,1.08.47,1.47.31.39.76.68,1.34.88.58.2,1.35.3,2.3.3,1.51,0,2.6-.27,3.27-.81M1106.49,878.59c-.38-.27-.58-.64-.58-1.1s.22-.86.66-1.17,1.32-.47,2.64-.47,2.2.15,2.64.47c.44.31.66.7.66,1.16s-.22.84-.66,1.16c-.44.31-1.32.47-2.64.47s-2.23-.17-2.72-.51"/>
    <polygon class="st13" points="1113.19 528.9 1090.57 517.76 1097.32 503.25 1120.27 514.39 1113.19 528.9"/>
    <polygon points="1110.44 523.15 1099.09 517.66 1114.12 515.54 1115.07 513.57 1100.63 506.58 1099.74 508.42 1111.08 513.91 1096.06 516.03 1095.11 518 1109.55 524.99 1110.44 523.15"/>
    <path d="M1112.7,587.02c.42-.47.63-1.07.63-1.78,0-.79-.25-1.45-.74-1.97-.49-.52-1.08-.77-1.79-.77-.52,0-.95.13-1.3.4-.35.27-.58.64-.68,1.12-.17-.37-.4-.65-.68-.84-.29-.19-.61-.28-.95-.28-.36,0-.71.1-1.04.3-.32.2-.58.49-.77.86-.19.37-.28.78-.28,1.22,0,.64.18,1.18.55,1.62.36.43.88.71,1.54.83l.18-1c-.48-.07-.85-.24-1.09-.5s-.36-.58-.36-.97.12-.71.36-.96c.24-.25.54-.37.9-.37.46,0,.79.17,1.02.51.22.34.33.72.33,1.15,0,.04,0,.09,0,.16l.87.11c-.07-.28-.11-.52-.11-.7,0-.47.15-.85.44-1.15s.67-.45,1.13-.45.87.16,1.2.48c.32.33.48.72.48,1.19,0,.4-.12.73-.37,1.01-.25.27-.65.47-1.21.58l.13,1c.67-.07,1.22-.34,1.64-.8M1113.19,580.48h-3.03c-.53,0-.94-.05-1.22-.16-.29-.1-.5-.28-.64-.52-.15-.24-.22-.5-.22-.78,0-.37.11-.63.33-.8.22-.16.55-.24.99-.24h3.79v-1h-3.39c-.6,0-1.04-.14-1.31-.41-.27-.27-.41-.62-.41-1.03,0-.23.05-.43.16-.6.11-.17.25-.29.42-.35.18-.07.46-.1.85-.1h3.68v-.99h-4.01c-.66,0-1.16.16-1.48.47-.32.31-.48.76-.48,1.35,0,.75.34,1.35,1.02,1.82-.32.11-.57.31-.75.59-.18.28-.27.64-.27,1.07,0,.39.08.74.26,1.05.17.31.41.55.69.74h-.82v.89h5.84v-1Z"/>
    <rect class="st13" x="34.11" y="944.73" width="18.9" height="311.88"/>
    <path d="M37.56,1250.33v.95c.52.26,1.05.7,1.61,1.32.55.62,1.02,1.35,1.41,2.17h1.43c-.17-.46-.42-.98-.76-1.56-.34-.58-.68-1.05-1.02-1.4h9.41v-1.48h-12.08ZM47.95,1245.63h1.68v-1.69h-1.68v1.69ZM47.93,1240.99c.64-.42,1.11-1,1.43-1.74.32-.73.48-1.65.48-2.74,0-.86-.16-1.64-.47-2.33-.31-.69-.76-1.22-1.32-1.59-.56-.37-1.17-.55-1.81-.55s-1.22.17-1.71.5-.9.85-1.23,1.56c-.22.48-.48,1.37-.77,2.67-.29,1.3-.58,2.1-.86,2.4-.28.31-.63.47-1.07.47-.5,0-.92-.22-1.27-.66-.35-.44-.53-1.14-.53-2.11s.2-1.63.58-2.1c.39-.48.97-.76,1.72-.84l-.11-1.53c-.71.03-1.34.23-1.89.59-.56.37-.98.89-1.27,1.58-.29.68-.43,1.47-.43,2.36,0,.81.14,1.55.41,2.22.28.66.68,1.17,1.2,1.51.53.35,1.1.52,1.7.52.55,0,1.05-.14,1.5-.42.45-.28.82-.71,1.12-1.29.24-.44.49-1.22.75-2.33.27-1.11.46-1.82.59-2.15.19-.5.43-.87.71-1.08.28-.22.61-.33.99-.33s.71.12,1.03.34c.31.23.56.57.74,1.04.18.47.27,1.01.27,1.61,0,.69-.12,1.31-.36,1.85-.24.55-.55.95-.93,1.22-.39.26-.88.43-1.48.5l.13,1.5c.8-.02,1.53-.24,2.16-.66M49.63,1223.99v-1.55c-.33.18-.68.31-1.05.37-.36.07-1.23.1-2.6.1h-1.97c-.65,0-1.11.02-1.36.07-.4.09-.74.24-1.01.46-.26.22-.48.56-.66,1.03-.18.47-.27,1.07-.27,1.82s.1,1.41.31,1.98c.21.57.5,1.01.88,1.31.38.3.88.52,1.5.65l.2-1.45c-.62-.16-1.05-.41-1.29-.74-.24-.33-.36-.85-.36-1.54,0-.75.17-1.31.5-1.69.25-.28.67-.42,1.27-.42.06,0,.18,0,.38,0,.2.56.37,1.45.51,2.64.07.59.14,1.03.22,1.32.11.39.27.75.48,1.06.21.32.5.57.85.76.35.2.74.29,1.17.29.73,0,1.32-.26,1.8-.77.47-.52.7-1.25.7-2.22,0-.58-.09-1.12-.29-1.63-.19-.51-.52-1.03-.98-1.58.41-.04.77-.14,1.07-.3M45.8,1224.41c.65,0,1.14.08,1.47.24.43.21.77.54,1.02.98.25.45.37.95.37,1.53s-.13,1.01-.39,1.31c-.26.3-.59.45-.98.45-.26,0-.49-.07-.7-.21-.21-.14-.37-.33-.48-.58-.11-.25-.21-.68-.3-1.29-.15-1.08-.34-1.88-.56-2.42h.54ZM37.61,1220.58h12.02v-1.48h-12.02v1.48ZM40.92,1216.33h1.68v-1.69h-1.68v1.69ZM47.95,1216.33h1.68v-1.69h-1.68v1.69ZM38.35,1201.05c-.53.61-.8,1.38-.8,2.33,0,1.27.46,2.29,1.38,3.04,1.06.86,2.75,1.29,5.07,1.29,2.08,0,3.57-.39,4.48-1.17.9-.78,1.36-1.79,1.36-3.02,0-.72-.17-1.37-.52-1.94-.35-.57-.84-1.02-1.49-1.34-.65-.33-1.35-.49-2.1-.49-1.15,0-2.08.35-2.81,1.04-.72.69-1.08,1.53-1.08,2.52,0,.56.13,1.11.39,1.62.26.52.66.95,1.2,1.31-1.2,0-2.13-.15-2.78-.42-.65-.27-1.14-.63-1.48-1.1-.26-.36-.4-.77-.4-1.24,0-.59.21-1.08.63-1.48.26-.24.68-.43,1.26-.56l-.12-1.47c-.93.12-1.67.49-2.2,1.09M43.86,1205.31c-.48-.47-.72-1.04-.72-1.7s.24-1.24.72-1.68c.48-.45,1.13-.67,1.96-.67s1.55.23,2.05.67c.5.45.76.99.76,1.61,0,.43-.12.84-.37,1.23-.24.39-.6.69-1.06.91-.47.21-.95.33-1.46.33-.77,0-1.4-.23-1.88-.7M47.95,1197.38h1.68v-1.69h-1.68v1.69ZM49.63,1188.32c0-.77-.07-1.42-.2-1.95s-.33-.97-.59-1.32c-.26-.35-.64-.64-1.12-.89-.49-.24-1.01-.36-1.57-.36-.7,0-1.31.2-1.82.59s-.88.95-1.09,1.68c-.28-.56-.64-.99-1.1-1.27-.46-.28-.94-.42-1.45-.42-.55,0-1.08.16-1.59.47-.51.32-.88.75-1.12,1.31-.24.56-.36,1.3-.36,2.22v4.53h12.02v-4.6ZM39.03,1191.32v-2.41c0-.87.06-1.48.17-1.84.11-.36.32-.63.62-.82.3-.19.65-.29,1.05-.29.42,0,.77.1,1.05.31.28.21.48.51.6.92.09.31.14.81.14,1.52v2.61h-3.63ZM44.08,1191.32v-2.79c0-.77.07-1.36.2-1.77.13-.41.37-.73.7-.96s.72-.35,1.17-.35c.38,0,.72.08,1.01.24.3.16.52.36.67.61.15.25.26.56.33.92.04.21.06.57.06,1.09v3h-4.13ZM47.95,1181.31h1.68v-1.69h-1.68v1.69ZM37.56,1171.81v.96c.52.26,1.05.69,1.61,1.32.55.62,1.02,1.34,1.41,2.17h1.43c-.17-.46-.42-.98-.76-1.56-.34-.58-.68-1.05-1.02-1.41h9.41v-1.48h-12.08ZM47.95,1167.12h1.68v-1.69h-1.68v1.69ZM39.18,1157.19c.85.75,1.9,1.46,3.15,2.13,1.24.67,2.53,1.18,3.88,1.53,1.34.36,2.48.54,3.43.56v-1.52c-1.2-.08-2.3-.27-3.31-.57-1.43-.41-2.82-1-4.17-1.75-1.35-.76-2.43-1.52-3.25-2.29h-1.15v7.81h1.42v-5.91ZM49.63,1152.12c.5.01.88.1,1.14.25.27.15.47.38.6.69l.63-.41c-.21-.48-.5-.83-.88-1.04-.38-.22-.88-.33-1.5-.33h-1.68v1.69h1.68v-.84ZM38.35,1137.66c-.53.61-.8,1.39-.8,2.33,0,1.27.46,2.29,1.38,3.04,1.06.86,2.75,1.29,5.07,1.29,2.08,0,3.57-.39,4.48-1.17.9-.78,1.36-1.78,1.36-3.02,0-.73-.17-1.37-.52-1.94-.35-.57-.84-1.02-1.49-1.34-.65-.33-1.35-.49-2.1-.49-1.15,0-2.08.35-2.81,1.04-.72.69-1.08,1.54-1.08,2.52,0,.56.13,1.11.39,1.62.26.52.66.95,1.2,1.31-1.2-.01-2.13-.15-2.78-.42-.65-.27-1.14-.64-1.48-1.1-.26-.36-.4-.77-.4-1.25,0-.59.21-1.08.63-1.48.26-.24.68-.43,1.26-.56l-.12-1.47c-.93.12-1.67.48-2.2,1.09M43.86,1141.92c-.48-.47-.72-1.04-.72-1.7s.24-1.24.72-1.68c.48-.45,1.13-.67,1.96-.67s1.55.23,2.05.68c.5.45.76.99.76,1.61,0,.43-.12.84-.37,1.23-.24.39-.6.69-1.06.91-.47.22-.95.33-1.46.33-.77,0-1.4-.24-1.88-.7M47.95,1133.99h1.68v-1.69h-1.68v1.69ZM49.63,1124.93c0-.77-.07-1.42-.2-1.95-.14-.53-.33-.97-.59-1.32-.26-.35-.64-.64-1.12-.89-.49-.24-1.01-.36-1.57-.36-.7,0-1.31.2-1.82.59-.51.39-.88.95-1.09,1.68-.28-.56-.64-.99-1.1-1.27-.46-.28-.94-.42-1.45-.42-.55,0-1.08.16-1.59.47-.51.32-.88.75-1.12,1.31-.24.56-.36,1.3-.36,2.22v4.52h12.02v-4.6ZM39.03,1127.93v-2.41c0-.87.06-1.48.17-1.84.11-.35.32-.63.62-.82s.65-.29,1.05-.29c.42,0,.77.1,1.05.31.28.21.48.51.6.92.09.31.14.82.14,1.52v2.61h-3.63ZM44.08,1127.93v-2.79c0-.77.07-1.36.2-1.77.13-.41.37-.73.7-.96.33-.23.72-.35,1.17-.35.38,0,.72.08,1.01.24.3.16.52.36.67.61.15.25.26.56.33.92.04.21.06.57.06,1.09v3h-4.13ZM47.95,1117.92h1.68v-1.69h-1.68v1.69ZM37.56,1108.42v.96c.52.26,1.05.7,1.61,1.32.55.62,1.02,1.34,1.41,2.17h1.43c-.17-.46-.42-.98-.76-1.56-.34-.58-.68-1.04-1.02-1.4h9.41v-1.48h-12.08ZM47.95,1103.73h1.68v-1.69h-1.68v1.69ZM49.06,1098.51c.52-.6.78-1.37.78-2.31,0-.89-.24-1.67-.71-2.32-.48-.66-1.17-1.16-2.08-1.5-.91-.34-2.14-.5-3.67-.5s-2.61.17-3.38.51c-.78.34-1.38.83-1.8,1.48-.42.65-.63,1.37-.63,2.15,0,1.09.37,1.99,1.11,2.71.75.72,1.73,1.08,2.95,1.08s2.13-.35,2.85-1.04c.72-.69,1.08-1.54,1.08-2.53,0-.6-.14-1.15-.44-1.67-.29-.51-.68-.92-1.14-1.21.13,0,.23,0,.29,0,.61,0,1.21.07,1.81.22.59.15,1.06.33,1.41.55.35.22.62.5.83.84.21.35.31.74.31,1.2,0,.53-.15.97-.45,1.31s-.78.57-1.45.69l.13,1.42c.95-.12,1.68-.48,2.21-1.08M43.53,1094.19c.48.44.72,1,.72,1.69s-.24,1.25-.72,1.72c-.48.46-1.1.69-1.87.69-.85,0-1.55-.24-2.08-.73-.53-.49-.8-1.06-.8-1.72s.25-1.18.75-1.63,1.17-.68,2.02-.68,1.51.22,1.99.66M49.63,1088.73c.5.02.88.1,1.14.25.27.15.47.38.6.69l.63-.41c-.21-.48-.5-.83-.88-1.05-.38-.22-.88-.33-1.5-.33h-1.68v1.69h1.68v-.84Z"/>
    <path d="M38.36,1073.8c-.53.61-.8,1.38-.8,2.33,0,1.27.46,2.28,1.38,3.04,1.05.86,2.75,1.29,5.07,1.29,2.08,0,3.57-.39,4.48-1.17.9-.78,1.35-1.79,1.35-3.02,0-.72-.17-1.37-.51-1.94s-.84-1.02-1.49-1.34c-.65-.33-1.35-.49-2.1-.49-1.15,0-2.08.35-2.81,1.04-.73.69-1.09,1.53-1.09,2.52,0,.57.13,1.11.39,1.62.27.52.66.95,1.21,1.31-1.2-.01-2.13-.15-2.78-.42-.65-.27-1.14-.64-1.48-1.1-.26-.36-.39-.77-.39-1.24,0-.59.21-1.08.63-1.48.27-.24.69-.43,1.26-.56l-.12-1.47c-.93.12-1.67.49-2.2,1.09M43.86,1078.06c-.48-.47-.72-1.04-.72-1.71s.24-1.24.72-1.68c.48-.44,1.13-.67,1.97-.67s1.55.23,2.05.68c.5.45.76.99.76,1.61,0,.43-.12.84-.36,1.23-.25.39-.6.69-1.06.91-.47.22-.95.32-1.46.32-.77,0-1.4-.23-1.88-.7M47.95,1070.11h1.68v-1.69h-1.68v1.69Z"/>
    <path d="M49.63,1061.08c0-.77-.07-1.42-.2-1.95-.14-.53-.33-.97-.59-1.32-.26-.35-.64-.64-1.12-.88-.49-.24-1.01-.36-1.57-.36-.7,0-1.31.2-1.82.59-.51.39-.88.95-1.09,1.68-.28-.56-.64-.99-1.1-1.27-.45-.28-.94-.42-1.45-.42-.56,0-1.08.16-1.59.47-.51.32-.88.75-1.12,1.31-.24.56-.36,1.3-.36,2.22v4.53h12.02v-4.6ZM39.03,1064.09v-2.41c0-.87.06-1.48.17-1.83.11-.36.32-.63.62-.83.3-.19.65-.29,1.05-.29.42,0,.77.1,1.05.31.28.21.48.51.6.92.09.3.14.81.14,1.52v2.61h-3.63ZM44.08,1064.09v-2.79c0-.77.07-1.36.2-1.76.13-.41.37-.73.7-.96.33-.23.72-.35,1.17-.35.38,0,.72.08,1.01.24.29.16.51.36.67.61.15.25.26.56.33.92.04.21.06.57.06,1.09v3h-4.13ZM47.95,1054.25h1.68v-1.69h-1.68v1.69Z"/>
    <path d="M37.56,1044.78v.95c.52.26,1.05.7,1.61,1.32.55.62,1.03,1.34,1.41,2.17h1.43c-.17-.46-.42-.98-.76-1.56-.34-.58-.68-1.04-1.02-1.4h9.41v-1.48h-12.08ZM47.95,1039.73h1.68v-1.69h-1.68v1.69Z"/>
    <path d="M37.56,1030.26v.96c.52.26,1.05.69,1.61,1.32.55.62,1.02,1.34,1.41,2.17h1.43c-.17-.46-.43-.98-.76-1.56-.34-.58-.68-1.04-1.02-1.4h9.41v-1.48h-12.08ZM37.56,1020.83v.96c.52.26,1.05.7,1.61,1.32.55.62,1.02,1.35,1.41,2.17h1.43c-.17-.46-.43-.98-.76-1.56-.34-.58-.68-1.04-1.02-1.4h9.41v-1.48h-12.08ZM49.63,1015.35c.5.02.88.1,1.14.25.27.15.47.38.6.69l.63-.41c-.21-.48-.5-.83-.88-1.04-.38-.22-.88-.33-1.5-.33h-1.68v1.69h1.68v-.84ZM38.35,1000.93c-.53.61-.79,1.38-.79,2.33,0,1.27.46,2.29,1.38,3.04,1.06.86,2.75,1.29,5.07,1.29,2.08,0,3.57-.39,4.48-1.17.91-.78,1.36-1.78,1.36-3.02,0-.72-.17-1.37-.52-1.94-.35-.57-.84-1.02-1.49-1.35-.65-.33-1.35-.49-2.1-.49-1.15,0-2.08.35-2.81,1.04-.72.69-1.08,1.53-1.08,2.52,0,.56.13,1.11.39,1.62.26.52.66.95,1.21,1.31-1.21,0-2.13-.15-2.78-.42-.65-.27-1.14-.64-1.48-1.1-.26-.36-.39-.77-.39-1.25,0-.59.21-1.08.63-1.48.26-.24.68-.43,1.26-.56l-.12-1.47c-.93.12-1.67.48-2.2,1.09M43.86,1005.18c-.48-.47-.72-1.03-.72-1.7s.24-1.24.72-1.68c.48-.45,1.13-.67,1.96-.67s1.55.22,2.05.67c.5.45.76.99.76,1.61,0,.43-.12.84-.37,1.23-.24.39-.59.69-1.06.91-.47.22-.95.33-1.46.33-.78,0-1.4-.23-1.88-.7M47.95,997.27h1.68v-1.69h-1.68v1.69ZM49.63,988.23c0-.77-.07-1.42-.2-1.94-.14-.53-.33-.97-.6-1.32-.26-.35-.63-.65-1.12-.88-.49-.24-1.01-.36-1.57-.36-.7,0-1.31.2-1.82.59-.51.4-.88.96-1.09,1.68-.28-.56-.64-.99-1.1-1.27-.45-.28-.94-.42-1.45-.42-.56,0-1.08.16-1.59.47-.51.31-.88.75-1.13,1.31-.24.56-.36,1.3-.36,2.22v4.53h12.02v-4.6ZM39.03,991.23v-2.41c0-.87.06-1.48.17-1.84.11-.35.32-.63.62-.82.3-.19.65-.29,1.05-.29.42,0,.77.1,1.05.31s.48.51.6.92c.09.3.14.81.14,1.52v2.61h-3.63ZM44.08,991.23v-2.79c0-.77.07-1.36.2-1.76.13-.41.37-.73.7-.96.33-.23.72-.35,1.17-.35.39,0,.72.08,1.02.24.29.16.51.36.67.61.15.25.27.56.33.92.04.21.06.57.06,1.09v3h-4.14ZM47.95,981.24h1.68v-1.69h-1.68v1.69ZM37.56,971.76v.96c.52.26,1.05.69,1.61,1.32.55.62,1.02,1.34,1.41,2.17h1.43c-.17-.46-.43-.98-.76-1.56-.34-.58-.68-1.05-1.02-1.4h9.41v-1.48h-12.08ZM47.95,967.08h1.68v-1.69h-1.68v1.69ZM37.56,957.6v.96c.52.26,1.05.69,1.61,1.32.55.62,1.02,1.34,1.41,2.17h1.43c-.17-.46-.43-.98-.76-1.56-.34-.58-.68-1.05-1.02-1.41h9.41v-1.48h-12.08Z"/>
    <path d="M48.9,952.28c.63-.7.94-1.58.94-2.64,0-1.18-.36-2.15-1.1-2.91-.73-.77-1.62-1.16-2.67-1.16-.78,0-1.42.2-1.94.6-.51.4-.86.95-1.02,1.66-.25-.55-.59-.96-1.02-1.24s-.9-.42-1.42-.42c-.55,0-1.06.14-1.55.44-.49.29-.87.72-1.15,1.27-.28.56-.42,1.16-.42,1.82,0,.96.27,1.75.81,2.39.55.64,1.31,1.05,2.3,1.24l.26-1.48c-.72-.11-1.26-.36-1.62-.74-.36-.39-.54-.87-.54-1.44s.18-1.06.53-1.43c.35-.37.8-.55,1.35-.55.68,0,1.19.26,1.52.76s.49,1.07.49,1.7c0,.06,0,.14-.02.24l1.3.16c-.11-.42-.16-.76-.16-1.04,0-.69.22-1.25.66-1.69.44-.45,1-.67,1.68-.67.71,0,1.31.24,1.79.72.48.48.72,1.07.72,1.77,0,.58-.19,1.09-.56,1.49-.37.41-.97.7-1.81.87l.2,1.48c1-.1,1.82-.5,2.44-1.2"/>
    <rect class="st13" x="56.05" y="944.73" width="18.9" height="311.88"/>
    <path d="M70.15,1254.04c-.27-.17-.53-.37-.8-.62-.27-.25-.77-.82-1.51-1.71-.9-1.06-1.6-1.83-2.12-2.29-.52-.45-1-.79-1.47-.98-.47-.2-.94-.3-1.42-.3-.95,0-1.74.34-2.38,1.01s-.96,1.59-.96,2.75.3,2.06.89,2.74c.59.68,1.46,1.07,2.59,1.18l.16-1.52c-.75,0-1.35-.22-1.77-.65-.43-.43-.64-1-.64-1.71,0-.67.2-1.22.6-1.64.4-.42.9-.63,1.48-.63s1.15.23,1.77.69c.63.46,1.48,1.35,2.55,2.66.69.85,1.3,1.49,1.82,1.94.53.45,1.06.77,1.6.97.33.13.67.18,1.03.17v-7.98h-1.42v5.92ZM69.89,1245.63h1.68v-1.69h-1.68v1.69ZM69.87,1240.99c.64-.42,1.11-1,1.43-1.74.32-.73.48-1.65.48-2.74,0-.86-.16-1.64-.47-2.33-.31-.69-.76-1.22-1.32-1.59-.56-.37-1.17-.55-1.81-.55s-1.22.17-1.71.5-.9.85-1.23,1.56c-.22.48-.48,1.37-.77,2.67-.29,1.3-.58,2.1-.86,2.4-.28.31-.63.47-1.07.47-.5,0-.92-.22-1.27-.66-.35-.44-.53-1.14-.53-2.11s.2-1.63.58-2.1c.39-.48.97-.76,1.72-.84l-.11-1.53c-.71.03-1.34.23-1.89.59-.56.37-.98.89-1.27,1.58-.29.68-.43,1.47-.43,2.36,0,.81.14,1.55.41,2.22.28.66.68,1.17,1.2,1.51.53.35,1.1.52,1.7.52.55,0,1.05-.14,1.5-.42.45-.28.82-.71,1.12-1.29.24-.44.49-1.22.75-2.33.27-1.11.46-1.82.59-2.15.19-.5.43-.87.71-1.08.28-.22.61-.33.99-.33s.71.12,1.03.34c.31.23.56.57.74,1.04.18.47.27,1.01.27,1.61,0,.69-.12,1.31-.36,1.85-.24.55-.55.95-.93,1.22-.39.26-.88.43-1.48.5l.13,1.5c.81-.02,1.53-.24,2.16-.66M71.57,1223.99v-1.55c-.33.18-.68.31-1.05.37-.36.07-1.23.1-2.6.1h-1.97c-.65,0-1.11.02-1.36.07-.4.09-.74.24-1.01.46-.26.22-.49.56-.66,1.03-.18.47-.26,1.07-.26,1.82s.1,1.41.31,1.98c.21.57.5,1.01.88,1.31.38.3.88.52,1.5.65l.2-1.45c-.62-.16-1.05-.41-1.29-.74-.24-.33-.36-.85-.36-1.54,0-.75.17-1.31.5-1.69.25-.28.67-.42,1.27-.42.06,0,.18,0,.38,0,.2.56.37,1.45.51,2.64.07.59.14,1.03.22,1.32.11.39.27.75.49,1.06.21.32.5.57.85.76.35.2.74.29,1.17.29.73,0,1.32-.26,1.79-.77.47-.52.7-1.25.7-2.22,0-.58-.1-1.12-.29-1.63-.19-.51-.52-1.03-.98-1.58.41-.04.77-.14,1.07-.3M67.74,1224.41c.65,0,1.14.08,1.47.24.43.21.77.54,1.02.98.25.45.37.95.37,1.53s-.13,1.01-.39,1.31c-.26.3-.59.45-.99.45-.25,0-.49-.07-.7-.21-.21-.14-.37-.33-.48-.58-.11-.25-.21-.68-.3-1.29-.15-1.08-.34-1.88-.56-2.42h.54ZM59.55,1220.58h12.03v-1.48h-12.03v1.48ZM62.86,1216.33h1.68v-1.69h-1.68v1.69ZM69.89,1216.33h1.68v-1.69h-1.68v1.69ZM60.29,1201.05c-.53.61-.8,1.38-.8,2.33,0,1.27.46,2.29,1.38,3.04,1.06.86,2.75,1.29,5.07,1.29,2.08,0,3.57-.39,4.48-1.17.9-.78,1.36-1.79,1.36-3.02,0-.72-.17-1.37-.52-1.94-.35-.57-.84-1.02-1.49-1.34-.65-.33-1.35-.49-2.1-.49-1.15,0-2.08.35-2.81,1.04-.72.69-1.08,1.53-1.08,2.52,0,.56.13,1.11.39,1.62.26.52.66.95,1.2,1.31-1.2,0-2.13-.15-2.78-.42-.65-.27-1.14-.63-1.48-1.1-.26-.36-.4-.77-.4-1.24,0-.59.21-1.08.63-1.48.26-.24.68-.43,1.26-.56l-.11-1.47c-.94.12-1.67.49-2.2,1.09M65.8,1205.31c-.48-.47-.72-1.04-.72-1.7s.24-1.24.72-1.68c.48-.45,1.13-.67,1.96-.67s1.55.23,2.05.67c.5.45.76.99.76,1.61,0,.43-.12.84-.37,1.23-.24.39-.6.69-1.06.91-.47.21-.95.33-1.46.33-.77,0-1.4-.23-1.88-.7M69.89,1197.38h1.68v-1.69h-1.68v1.69ZM71.57,1188.32c0-.77-.07-1.42-.2-1.95s-.33-.97-.59-1.32c-.26-.35-.64-.64-1.12-.89-.49-.24-1.01-.36-1.57-.36-.7,0-1.31.2-1.82.59-.51.39-.88.95-1.09,1.68-.28-.56-.64-.99-1.1-1.27-.46-.28-.94-.42-1.45-.42-.55,0-1.08.16-1.59.47-.51.32-.88.75-1.12,1.31-.24.56-.37,1.3-.37,2.22v4.53h12.03v-4.6ZM60.97,1191.32v-2.41c0-.87.06-1.48.17-1.84.11-.36.32-.63.62-.82.3-.19.65-.29,1.05-.29.42,0,.77.1,1.05.31.28.21.48.51.6.92.09.31.14.81.14,1.52v2.61h-3.63ZM66.02,1191.32v-2.79c0-.77.07-1.36.2-1.77.13-.41.37-.73.69-.96.33-.23.72-.35,1.17-.35.38,0,.72.08,1.01.24.3.16.52.36.67.61.15.25.26.56.33.92.04.21.06.57.06,1.09v3h-4.13ZM69.89,1181.31h1.68v-1.69h-1.68v1.69ZM70.15,1175.53c-.27-.17-.53-.38-.8-.62-.27-.25-.77-.82-1.51-1.71-.9-1.07-1.6-1.83-2.12-2.29-.52-.46-1-.79-1.47-.98-.47-.2-.94-.29-1.42-.29-.95,0-1.74.34-2.38,1.01s-.96,1.59-.96,2.75.3,2.06.89,2.74,1.46,1.08,2.59,1.18l.16-1.52c-.75,0-1.35-.22-1.77-.65-.43-.43-.64-1-.64-1.71,0-.68.2-1.22.6-1.64.4-.42.9-.63,1.48-.63s1.15.23,1.77.69c.63.46,1.48,1.35,2.55,2.66.69.84,1.3,1.49,1.82,1.94.53.44,1.06.77,1.6.97.33.13.67.19,1.03.17v-7.98h-1.42v5.92ZM69.89,1167.12h1.68v-1.69h-1.68v1.69ZM61.12,1157.19c.85.75,1.9,1.46,3.15,2.13,1.24.67,2.53,1.18,3.88,1.53,1.34.36,2.48.54,3.43.56v-1.52c-1.2-.08-2.3-.27-3.31-.57-1.43-.41-2.82-1-4.17-1.75-1.35-.76-2.43-1.52-3.25-2.29h-1.15v7.81h1.42v-5.91ZM71.57,1152.12c.5.01.88.1,1.14.25.27.15.47.38.61.69l.63-.41c-.21-.48-.5-.83-.88-1.04-.38-.22-.88-.33-1.5-.33h-1.68v1.69h1.68v-.84ZM60.29,1137.66c-.53.61-.8,1.39-.8,2.33,0,1.27.46,2.29,1.38,3.04,1.06.86,2.75,1.29,5.07,1.29,2.08,0,3.57-.39,4.48-1.17.9-.78,1.36-1.78,1.36-3.02,0-.73-.17-1.37-.52-1.94-.35-.57-.84-1.02-1.49-1.34-.65-.33-1.35-.49-2.1-.49-1.15,0-2.08.35-2.81,1.04-.72.69-1.08,1.54-1.08,2.52,0,.56.13,1.11.39,1.62.26.52.66.95,1.2,1.31-1.2-.01-2.13-.15-2.78-.42-.65-.27-1.14-.64-1.48-1.1-.26-.36-.4-.77-.4-1.25,0-.59.21-1.08.63-1.48.26-.24.68-.43,1.26-.56l-.11-1.47c-.94.12-1.67.48-2.2,1.09M65.8,1141.92c-.48-.47-.72-1.04-.72-1.7s.24-1.24.72-1.68c.48-.45,1.13-.67,1.96-.67s1.55.23,2.05.68c.5.45.76.99.76,1.61,0,.43-.12.84-.37,1.23-.24.39-.6.69-1.06.91-.47.22-.95.33-1.46.33-.77,0-1.4-.24-1.88-.7M69.89,1133.99h1.68v-1.69h-1.68v1.69ZM71.57,1124.93c0-.77-.07-1.42-.2-1.95-.14-.53-.33-.97-.59-1.32-.26-.35-.64-.64-1.12-.89-.49-.24-1.01-.36-1.57-.36-.7,0-1.31.2-1.82.59-.51.39-.88.95-1.09,1.68-.28-.56-.64-.99-1.1-1.27-.46-.28-.94-.42-1.45-.42-.55,0-1.08.16-1.59.47-.51.32-.88.75-1.12,1.31-.24.56-.37,1.3-.37,2.22v4.52h12.03v-4.6ZM60.97,1127.93v-2.41c0-.87.06-1.48.17-1.84.11-.35.32-.63.62-.82s.65-.29,1.05-.29c.42,0,.77.1,1.05.31.28.21.48.51.6.92.09.31.14.82.14,1.52v2.61h-3.63ZM66.02,1127.93v-2.79c0-.77.07-1.36.2-1.77.13-.41.37-.73.69-.96.33-.23.72-.35,1.17-.35.38,0,.72.08,1.01.24.3.16.52.36.67.61.15.25.26.56.33.92.04.21.06.57.06,1.09v3h-4.13ZM69.89,1117.92h1.68v-1.69h-1.68v1.69ZM70.15,1112.14c-.27-.16-.53-.37-.8-.62-.27-.25-.77-.82-1.51-1.72-.9-1.06-1.6-1.82-2.12-2.28-.52-.46-1-.78-1.47-.98-.47-.2-.94-.3-1.42-.3-.95,0-1.74.34-2.38,1.01-.64.67-.96,1.59-.96,2.75s.3,2.06.89,2.74c.59.68,1.46,1.07,2.59,1.18l.16-1.52c-.75,0-1.35-.22-1.77-.65-.43-.43-.64-1-.64-1.71,0-.68.2-1.22.6-1.64.4-.42.9-.63,1.48-.63s1.15.23,1.77.69c.63.46,1.48,1.35,2.55,2.66.69.84,1.3,1.49,1.82,1.94.53.45,1.06.77,1.6.97.33.13.67.18,1.03.17v-7.98h-1.42v5.92ZM69.89,1103.73h1.68v-1.69h-1.68v1.69ZM71,1098.51c.52-.6.78-1.37.78-2.31,0-.89-.24-1.67-.71-2.32-.48-.66-1.17-1.16-2.08-1.5-.91-.34-2.14-.5-3.67-.5s-2.61.17-3.38.51c-.78.34-1.38.83-1.8,1.48-.42.65-.63,1.37-.63,2.15,0,1.09.37,1.99,1.11,2.71.75.72,1.73,1.08,2.95,1.08s2.13-.35,2.85-1.04c.72-.69,1.08-1.54,1.08-2.53,0-.6-.14-1.15-.44-1.67-.29-.51-.68-.92-1.15-1.21.13,0,.23,0,.3,0,.61,0,1.21.07,1.81.22.59.15,1.06.33,1.41.55.35.22.62.5.83.84.21.35.31.74.31,1.2,0,.53-.15.97-.45,1.31s-.78.57-1.45.69l.13,1.42c.95-.12,1.68-.48,2.21-1.08M65.47,1094.19c.48.44.72,1,.72,1.69s-.24,1.25-.72,1.72c-.48.46-1.1.69-1.87.69-.85,0-1.55-.24-2.08-.73-.53-.49-.8-1.06-.8-1.72s.25-1.18.75-1.63,1.17-.68,2.02-.68,1.51.22,1.99.66M71.57,1088.73c.5.02.88.1,1.14.25.27.15.47.38.61.69l.63-.41c-.21-.48-.5-.83-.88-1.05-.38-.22-.88-.33-1.5-.33h-1.68v1.69h1.68v-.84Z"/>
    <path d="M60.29,1073.8c-.53.61-.8,1.38-.8,2.33,0,1.27.46,2.28,1.38,3.04,1.06.86,2.75,1.29,5.07,1.29,2.08,0,3.57-.39,4.48-1.17.91-.78,1.36-1.79,1.36-3.02,0-.72-.17-1.37-.51-1.94s-.84-1.02-1.49-1.34-1.35-.49-2.1-.49c-1.15,0-2.08.35-2.81,1.04-.72.69-1.08,1.53-1.08,2.52,0,.57.13,1.11.39,1.62.26.52.66.95,1.2,1.31-1.2-.01-2.13-.15-2.78-.42-.65-.27-1.14-.64-1.48-1.1-.26-.36-.39-.77-.39-1.24,0-.59.21-1.08.63-1.48.26-.24.69-.43,1.26-.56l-.11-1.47c-.93.12-1.67.49-2.2,1.09M65.8,1078.06c-.48-.47-.72-1.04-.72-1.71s.24-1.24.72-1.68c.48-.44,1.13-.67,1.96-.67s1.55.23,2.05.68c.5.45.76.99.76,1.61,0,.43-.12.84-.37,1.23-.24.39-.59.69-1.06.91-.47.22-.95.32-1.46.32-.77,0-1.4-.23-1.88-.7M69.89,1070.11h1.68v-1.69h-1.68v1.69Z"/>
    <path d="M71.57,1061.08c0-.77-.07-1.42-.2-1.95-.14-.53-.33-.97-.59-1.32-.26-.35-.64-.64-1.12-.88-.49-.24-1.01-.36-1.57-.36-.7,0-1.3.2-1.82.59-.51.39-.88.95-1.09,1.68-.28-.56-.64-.99-1.1-1.27-.46-.28-.94-.42-1.45-.42-.55,0-1.08.16-1.59.47-.5.32-.88.75-1.12,1.31-.24.56-.36,1.3-.36,2.22v4.53h12.02v-4.6ZM60.97,1064.09v-2.41c0-.87.06-1.48.17-1.83.11-.36.32-.63.62-.83.3-.19.65-.29,1.05-.29.42,0,.77.1,1.05.31.28.21.48.51.6.92.09.3.14.81.14,1.52v2.61h-3.63ZM66.02,1064.09v-2.79c0-.77.07-1.36.2-1.76.13-.41.37-.73.7-.96.33-.23.72-.35,1.17-.35.39,0,.72.08,1.02.24.29.16.51.36.67.61.15.25.27.56.33.92.04.21.06.57.06,1.09v3h-4.13ZM69.89,1054.25h1.68v-1.69h-1.68v1.69Z"/>
    <path d="M70.15,1048.49c-.27-.16-.53-.37-.8-.62-.26-.25-.77-.82-1.51-1.71-.9-1.06-1.6-1.82-2.12-2.28-.51-.46-1-.79-1.47-.98-.47-.2-.94-.29-1.42-.29-.95,0-1.74.34-2.38,1.01-.64.67-.96,1.59-.96,2.75s.3,2.06.89,2.74c.6.68,1.46,1.07,2.59,1.18l.16-1.52c-.75,0-1.35-.22-1.77-.65-.43-.43-.64-1-.64-1.71,0-.68.2-1.22.6-1.64.4-.42.9-.63,1.48-.63s1.15.23,1.78.69c.62.46,1.47,1.35,2.55,2.66.69.84,1.3,1.49,1.82,1.94.53.45,1.06.77,1.6.97.33.13.67.18,1.03.17v-7.98h-1.42v5.92ZM69.89,1039.73h1.68v-1.69h-1.68v1.69Z"/>
    <path d="M59.5,1030.26v.96c.52.26,1.05.69,1.61,1.32.55.62,1.02,1.34,1.41,2.17h1.43c-.17-.46-.43-.98-.76-1.56-.34-.58-.68-1.04-1.02-1.4h9.41v-1.48h-12.08ZM59.5,1020.83v.96c.52.26,1.05.7,1.61,1.32.55.62,1.02,1.35,1.41,2.17h1.43c-.17-.46-.43-.98-.76-1.56-.34-.58-.68-1.04-1.02-1.4h9.41v-1.48h-12.08ZM71.57,1015.35c.5.02.88.1,1.14.25.27.15.47.38.6.69l.63-.41c-.21-.48-.5-.83-.88-1.04-.38-.22-.88-.33-1.5-.33h-1.68v1.69h1.68v-.84ZM60.29,1000.93c-.53.61-.79,1.38-.79,2.33,0,1.27.46,2.29,1.38,3.04,1.06.86,2.75,1.29,5.07,1.29,2.08,0,3.57-.39,4.48-1.17.91-.78,1.36-1.78,1.36-3.02,0-.72-.17-1.37-.52-1.94-.35-.57-.84-1.02-1.49-1.35-.65-.33-1.35-.49-2.1-.49-1.15,0-2.08.35-2.81,1.04-.72.69-1.08,1.53-1.08,2.52,0,.56.13,1.11.39,1.62.26.52.66.95,1.2,1.31-1.2,0-2.13-.15-2.78-.42-.65-.27-1.14-.64-1.48-1.1-.26-.36-.4-.77-.4-1.25,0-.59.21-1.08.63-1.48.26-.24.68-.43,1.26-.56l-.11-1.47c-.93.12-1.67.48-2.2,1.09M65.8,1005.18c-.48-.47-.72-1.03-.72-1.7s.24-1.24.72-1.68c.48-.45,1.13-.67,1.96-.67s1.55.22,2.05.67c.5.45.76.99.76,1.61,0,.43-.12.84-.37,1.23-.24.39-.59.69-1.06.91-.47.22-.95.33-1.46.33-.77,0-1.4-.23-1.88-.7M69.89,997.27h1.68v-1.69h-1.68v1.69ZM71.57,988.23c0-.77-.07-1.42-.2-1.94-.14-.53-.33-.97-.6-1.32-.26-.35-.64-.65-1.12-.88-.49-.24-1.01-.36-1.57-.36-.7,0-1.31.2-1.82.59-.51.4-.88.96-1.09,1.68-.28-.56-.64-.99-1.1-1.27-.45-.28-.94-.42-1.45-.42-.55,0-1.08.16-1.59.47-.51.31-.88.75-1.13,1.31-.24.56-.36,1.3-.36,2.22v4.53h12.02v-4.6ZM60.97,991.23v-2.41c0-.87.06-1.48.17-1.84.11-.35.32-.63.62-.82.3-.19.65-.29,1.05-.29.42,0,.77.1,1.05.31.28.21.48.51.6.92.09.3.14.81.14,1.52v2.61h-3.63ZM66.02,991.23v-2.79c0-.77.07-1.36.2-1.76.13-.41.37-.73.7-.96s.72-.35,1.17-.35c.39,0,.72.08,1.02.24.29.16.51.36.67.61.15.25.27.56.33.92.04.21.06.57.06,1.09v3h-4.13ZM69.89,981.24h1.68v-1.69h-1.68v1.69ZM70.15,975.47c-.26-.16-.53-.37-.8-.62-.26-.25-.77-.82-1.51-1.71-.9-1.06-1.6-1.82-2.12-2.28-.51-.46-1-.79-1.47-.98-.47-.2-.94-.3-1.42-.3-.95,0-1.74.34-2.38,1.01-.64.67-.96,1.59-.96,2.75s.3,2.06.89,2.74c.59.68,1.46,1.07,2.59,1.18l.16-1.52c-.76,0-1.35-.23-1.77-.65-.43-.43-.64-1-.64-1.71,0-.68.2-1.22.6-1.64.4-.42.9-.63,1.48-.63s1.15.23,1.78.69c.62.46,1.47,1.35,2.55,2.66.69.84,1.3,1.49,1.82,1.94.53.45,1.06.77,1.6.97.33.13.67.19,1.03.17v-7.97h-1.42v5.92ZM69.89,967.08h1.68v-1.69h-1.68v1.69ZM59.5,957.6v.96c.52.26,1.05.69,1.61,1.32.55.62,1.02,1.34,1.41,2.17h1.43c-.17-.46-.43-.98-.76-1.56-.34-.58-.68-1.05-1.02-1.41h9.41v-1.48h-12.08Z"/>
    <path d="M70.84,952.28c.63-.7.94-1.58.94-2.64,0-1.18-.36-2.15-1.1-2.91-.73-.77-1.62-1.16-2.67-1.16-.78,0-1.42.2-1.94.6s-.86.95-1.02,1.66c-.25-.55-.59-.96-1.02-1.24-.43-.28-.9-.42-1.42-.42-.55,0-1.07.14-1.55.44-.49.29-.87.72-1.15,1.27-.28.56-.42,1.16-.42,1.82,0,.96.27,1.75.81,2.39.55.64,1.31,1.05,2.3,1.24l.26-1.48c-.72-.11-1.26-.36-1.62-.74-.36-.39-.54-.87-.54-1.44s.18-1.06.53-1.43c.35-.37.8-.55,1.35-.55.68,0,1.19.26,1.52.76s.49,1.07.49,1.7c0,.06,0,.14-.02.24l1.3.16c-.11-.42-.16-.76-.16-1.04,0-.69.22-1.25.66-1.69.44-.45,1-.67,1.68-.67.71,0,1.31.24,1.79.72.48.48.73,1.07.73,1.77,0,.58-.19,1.09-.56,1.49-.37.41-.97.7-1.81.87l.2,1.48c1-.1,1.82-.5,2.44-1.2"/>
    <rect class="st13" x="77.65" y="944.73" width="18.9" height="311.88"/>
    <path d="M92.45,1254.7c.63-.7.95-1.58.95-2.64,0-1.18-.37-2.15-1.1-2.92-.73-.77-1.62-1.15-2.67-1.15-.78,0-1.43.2-1.94.59-.51.39-.86.95-1.02,1.66-.25-.55-.59-.96-1.02-1.24-.43-.28-.9-.42-1.42-.42-.55,0-1.06.14-1.55.44-.49.29-.87.72-1.15,1.27-.28.55-.42,1.16-.42,1.82,0,.95.27,1.75.82,2.4.55.64,1.31,1.05,2.3,1.23l.26-1.48c-.72-.11-1.26-.36-1.63-.74-.36-.38-.54-.87-.54-1.44s.18-1.06.54-1.42c.35-.37.8-.55,1.34-.55.68,0,1.19.25,1.52.76.33.5.49,1.07.49,1.7,0,.06,0,.14-.02.24l1.3.17c-.11-.42-.17-.77-.17-1.05,0-.69.22-1.25.66-1.7.44-.44,1-.66,1.68-.66s1.31.24,1.79.72c.48.48.72,1.07.72,1.77,0,.59-.19,1.08-.56,1.49-.37.41-.97.7-1.81.87l.2,1.48c1-.1,1.82-.5,2.44-1.2M91.49,1245.63h1.68v-1.69h-1.68v1.69ZM91.47,1240.99c.64-.42,1.11-1,1.43-1.74.32-.73.48-1.65.48-2.74,0-.86-.16-1.64-.47-2.33-.31-.69-.76-1.22-1.32-1.59-.56-.37-1.17-.55-1.81-.55s-1.22.17-1.71.5-.9.85-1.23,1.56c-.22.48-.48,1.37-.77,2.67-.29,1.3-.58,2.1-.86,2.4-.28.31-.63.47-1.07.47-.5,0-.92-.22-1.27-.66-.35-.44-.53-1.14-.53-2.11s.2-1.63.58-2.1c.39-.48.97-.76,1.72-.84l-.11-1.53c-.71.03-1.34.23-1.89.59-.56.37-.98.89-1.27,1.58-.29.68-.43,1.47-.43,2.36,0,.81.14,1.55.41,2.22.28.66.68,1.17,1.2,1.51.53.35,1.1.52,1.7.52.55,0,1.05-.14,1.5-.42.45-.28.82-.71,1.12-1.29.24-.44.49-1.22.75-2.33.27-1.11.46-1.82.59-2.15.19-.5.43-.87.71-1.08.28-.22.61-.33.99-.33s.71.12,1.03.34c.31.23.56.57.74,1.04.18.47.27,1.01.27,1.61,0,.69-.12,1.31-.36,1.85-.24.55-.55.95-.93,1.22-.39.26-.88.43-1.48.5l.13,1.5c.8-.02,1.53-.24,2.16-.66M93.18,1223.99v-1.55c-.33.18-.68.31-1.04.37-.36.07-1.23.1-2.61.1h-1.97c-.65,0-1.11.02-1.36.07-.4.09-.74.24-1.01.46-.26.22-.48.56-.66,1.03-.18.47-.27,1.07-.27,1.82s.1,1.41.31,1.98c.21.57.5,1.01.88,1.31.38.3.88.52,1.5.65l.2-1.45c-.62-.16-1.05-.41-1.29-.74-.24-.33-.36-.85-.36-1.54,0-.75.17-1.31.5-1.69.25-.28.67-.42,1.27-.42.06,0,.18,0,.38,0,.2.56.37,1.45.51,2.64.07.59.14,1.03.22,1.32.11.39.27.75.48,1.06.21.32.5.57.85.76.35.2.74.29,1.17.29.73,0,1.32-.26,1.8-.77.47-.52.7-1.25.7-2.22,0-.58-.09-1.12-.29-1.63-.19-.51-.52-1.03-.98-1.58.41-.04.77-.14,1.07-.3M89.35,1224.41c.65,0,1.14.08,1.47.24.43.21.77.54,1.02.98.25.45.37.95.37,1.53s-.13,1.01-.39,1.31c-.26.3-.59.45-.98.45-.26,0-.49-.07-.7-.21-.21-.14-.37-.33-.48-.58-.11-.25-.21-.68-.3-1.29-.15-1.08-.34-1.88-.56-2.42h.54ZM81.15,1220.58h12.02v-1.48h-12.02v1.48ZM84.46,1216.33h1.68v-1.69h-1.68v1.69ZM91.49,1216.33h1.68v-1.69h-1.68v1.69ZM81.9,1201.05c-.53.61-.8,1.38-.8,2.33,0,1.27.46,2.29,1.38,3.04,1.06.86,2.75,1.29,5.07,1.29,2.08,0,3.57-.39,4.48-1.17.9-.78,1.36-1.79,1.36-3.02,0-.72-.17-1.37-.52-1.94-.35-.57-.84-1.02-1.49-1.34-.65-.33-1.35-.49-2.1-.49-1.15,0-2.08.35-2.81,1.04-.72.69-1.08,1.53-1.08,2.52,0,.56.13,1.11.39,1.62.26.52.66.95,1.2,1.31-1.2,0-2.13-.15-2.78-.42-.65-.27-1.14-.63-1.48-1.1-.26-.36-.4-.77-.4-1.24,0-.59.21-1.08.63-1.48.26-.24.68-.43,1.26-.56l-.12-1.47c-.93.12-1.67.49-2.2,1.09M87.4,1205.31c-.48-.47-.72-1.04-.72-1.7s.24-1.24.72-1.68c.48-.45,1.13-.67,1.96-.67s1.55.23,2.05.67c.5.45.76.99.76,1.61,0,.43-.12.84-.37,1.23-.24.39-.6.69-1.06.91-.47.21-.95.33-1.46.33-.77,0-1.4-.23-1.88-.7M91.49,1197.38h1.68v-1.69h-1.68v1.69ZM93.18,1188.32c0-.77-.07-1.42-.2-1.95s-.33-.97-.59-1.32c-.26-.35-.64-.64-1.12-.89-.49-.24-1.01-.36-1.57-.36-.7,0-1.31.2-1.82.59s-.88.95-1.09,1.68c-.28-.56-.64-.99-1.1-1.27-.46-.28-.94-.42-1.45-.42-.55,0-1.08.16-1.59.47-.51.32-.88.75-1.12,1.31-.24.56-.36,1.3-.36,2.22v4.53h12.02v-4.6ZM82.57,1191.32v-2.41c0-.87.06-1.48.17-1.84.11-.36.32-.63.62-.82.3-.19.65-.29,1.05-.29.42,0,.77.1,1.05.31.28.21.48.51.6.92.09.31.14.81.14,1.52v2.61h-3.63ZM87.62,1191.32v-2.79c0-.77.07-1.36.2-1.77.13-.41.37-.73.7-.96s.72-.35,1.17-.35c.38,0,.72.08,1.01.24.3.16.52.36.67.61.15.25.26.56.33.92.04.21.06.57.06,1.09v3h-4.13ZM91.49,1181.31h1.68v-1.69h-1.68v1.69ZM92.45,1176.19c.63-.7.95-1.58.95-2.64,0-1.18-.37-2.15-1.1-2.92-.73-.77-1.62-1.15-2.67-1.15-.78,0-1.43.2-1.94.59-.51.4-.86.95-1.02,1.66-.25-.55-.59-.96-1.02-1.24-.43-.28-.9-.42-1.42-.42-.55,0-1.06.15-1.55.44-.49.29-.87.72-1.15,1.27-.28.56-.42,1.16-.42,1.82,0,.95.27,1.75.82,2.39.55.64,1.31,1.05,2.3,1.24l.26-1.48c-.72-.11-1.26-.35-1.63-.74-.36-.38-.54-.87-.54-1.44s.18-1.06.54-1.43c.35-.37.8-.55,1.34-.55.68,0,1.19.25,1.52.76.33.51.49,1.07.49,1.71,0,.06,0,.14-.02.24l1.3.16c-.11-.42-.17-.76-.17-1.04,0-.69.22-1.25.66-1.7.44-.45,1-.67,1.68-.67s1.31.24,1.79.72c.48.48.72,1.07.72,1.76,0,.59-.19,1.09-.56,1.5-.37.41-.97.7-1.81.87l.2,1.48c1-.1,1.82-.5,2.44-1.2M91.49,1167.12h1.68v-1.69h-1.68v1.69ZM82.72,1157.19c.85.75,1.9,1.46,3.15,2.13,1.24.67,2.53,1.18,3.88,1.53,1.34.36,2.48.54,3.43.56v-1.52c-1.2-.08-2.3-.27-3.31-.57-1.43-.41-2.82-1-4.17-1.75-1.35-.76-2.43-1.52-3.25-2.29h-1.15v7.81h1.42v-5.91ZM93.18,1152.12c.5.01.88.1,1.14.25.27.15.47.38.6.69l.63-.41c-.21-.48-.5-.83-.88-1.04-.38-.22-.88-.33-1.5-.33h-1.68v1.69h1.68v-.84ZM81.9,1137.66c-.53.61-.8,1.39-.8,2.33,0,1.27.46,2.29,1.38,3.04,1.06.86,2.75,1.29,5.07,1.29,2.08,0,3.57-.39,4.48-1.17.9-.78,1.36-1.78,1.36-3.02,0-.73-.17-1.37-.52-1.94-.35-.57-.84-1.02-1.49-1.34-.65-.33-1.35-.49-2.1-.49-1.15,0-2.08.35-2.81,1.04-.72.69-1.08,1.54-1.08,2.52,0,.56.13,1.11.39,1.62.26.52.66.95,1.2,1.31-1.2-.01-2.13-.15-2.78-.42-.65-.27-1.14-.64-1.48-1.1-.26-.36-.4-.77-.4-1.25,0-.59.21-1.08.63-1.48.26-.24.68-.43,1.26-.56l-.12-1.47c-.93.12-1.67.48-2.2,1.09M87.4,1141.92c-.48-.47-.72-1.04-.72-1.7s.24-1.24.72-1.68c.48-.45,1.13-.67,1.96-.67s1.55.23,2.05.68c.5.45.76.99.76,1.61,0,.43-.12.84-.37,1.23-.24.39-.6.69-1.06.91-.47.22-.95.33-1.46.33-.77,0-1.4-.24-1.88-.7M91.49,1133.99h1.68v-1.69h-1.68v1.69ZM93.18,1124.93c0-.77-.07-1.42-.2-1.95-.14-.53-.33-.97-.59-1.32-.26-.35-.64-.64-1.12-.89-.49-.24-1.01-.36-1.57-.36-.7,0-1.31.2-1.82.59-.51.39-.88.95-1.09,1.68-.28-.56-.64-.99-1.1-1.27-.46-.28-.94-.42-1.45-.42-.55,0-1.08.16-1.59.47-.51.32-.88.75-1.12,1.31-.24.56-.36,1.3-.36,2.22v4.52h12.02v-4.6ZM82.57,1127.93v-2.41c0-.87.06-1.48.17-1.84.11-.35.32-.63.62-.82s.65-.29,1.05-.29c.42,0,.77.1,1.05.31.28.21.48.51.6.92.09.31.14.82.14,1.52v2.61h-3.63ZM87.62,1127.93v-2.79c0-.77.07-1.36.2-1.77.13-.41.37-.73.7-.96.33-.23.72-.35,1.17-.35.38,0,.72.08,1.01.24.3.16.52.36.67.61.15.25.26.56.33.92.04.21.06.57.06,1.09v3h-4.13ZM91.49,1117.92h1.68v-1.69h-1.68v1.69ZM92.45,1112.8c.63-.7.95-1.58.95-2.64,0-1.18-.37-2.15-1.1-2.92-.73-.77-1.62-1.15-2.67-1.15-.78,0-1.43.2-1.94.59-.51.39-.86.95-1.02,1.66-.25-.55-.59-.97-1.02-1.25-.43-.28-.9-.42-1.42-.42-.55,0-1.06.14-1.55.44-.49.29-.87.72-1.15,1.27-.28.56-.42,1.16-.42,1.82,0,.96.27,1.75.82,2.39.55.64,1.31,1.05,2.3,1.24l.26-1.48c-.72-.11-1.26-.36-1.63-.74-.36-.39-.54-.87-.54-1.44s.18-1.06.54-1.43c.35-.37.8-.55,1.34-.55.68,0,1.19.26,1.52.76.33.51.49,1.07.49,1.71,0,.06,0,.14-.02.24l1.3.16c-.11-.42-.17-.76-.17-1.04,0-.69.22-1.25.66-1.69.44-.45,1-.67,1.68-.67s1.31.24,1.79.72c.48.48.72,1.07.72,1.76,0,.59-.19,1.09-.56,1.5-.37.41-.97.7-1.81.87l.2,1.48c1-.1,1.82-.5,2.44-1.2M91.49,1103.73h1.68v-1.69h-1.68v1.69ZM92.6,1098.51c.52-.6.78-1.37.78-2.31,0-.89-.24-1.67-.71-2.32-.48-.66-1.17-1.16-2.08-1.5-.91-.34-2.14-.5-3.67-.5s-2.61.17-3.38.51c-.78.34-1.38.83-1.8,1.48-.42.65-.63,1.37-.63,2.15,0,1.09.37,1.99,1.11,2.71.75.72,1.73,1.08,2.95,1.08s2.13-.35,2.85-1.04c.72-.69,1.08-1.54,1.08-2.53,0-.6-.14-1.15-.44-1.67-.29-.51-.68-.92-1.15-1.21.13,0,.23,0,.3,0,.61,0,1.21.07,1.81.22.59.15,1.06.33,1.41.55.35.22.62.5.83.84.21.35.31.74.31,1.2,0,.53-.15.97-.45,1.31s-.78.57-1.45.69l.13,1.42c.95-.12,1.68-.48,2.21-1.08M87.08,1094.19c.48.44.72,1,.72,1.69s-.24,1.25-.72,1.72c-.48.46-1.1.69-1.87.69-.85,0-1.55-.24-2.08-.73-.53-.49-.8-1.06-.8-1.72s.25-1.18.75-1.63,1.17-.68,2.02-.68,1.51.22,1.99.66M93.18,1088.73c.5.02.88.1,1.14.25.27.15.47.38.6.69l.63-.41c-.21-.48-.5-.83-.88-1.05-.38-.22-.88-.33-1.5-.33h-1.68v1.69h1.68v-.84Z"/>
    <path d="M81.9,1073.8c-.53.61-.79,1.38-.79,2.33,0,1.27.46,2.28,1.38,3.04,1.05.86,2.75,1.29,5.07,1.29,2.08,0,3.57-.39,4.47-1.17.91-.78,1.36-1.79,1.36-3.02,0-.72-.17-1.37-.52-1.94s-.84-1.02-1.49-1.34c-.65-.33-1.35-.49-2.11-.49-1.15,0-2.08.35-2.81,1.04-.73.69-1.09,1.53-1.09,2.52,0,.57.13,1.11.39,1.62.26.52.66.95,1.21,1.31-1.2-.01-2.13-.15-2.78-.42-.65-.27-1.15-.64-1.49-1.1-.26-.36-.39-.77-.39-1.24,0-.59.21-1.08.63-1.48.26-.24.69-.43,1.26-.56l-.12-1.47c-.93.12-1.67.49-2.2,1.09M87.4,1078.06c-.48-.47-.72-1.04-.72-1.71s.24-1.24.72-1.68c.48-.44,1.14-.67,1.97-.67s1.55.23,2.05.68c.5.45.76.99.76,1.61,0,.43-.12.84-.36,1.23-.24.39-.6.69-1.06.91-.47.22-.95.32-1.46.32-.78,0-1.41-.23-1.89-.7M91.49,1070.11h1.68v-1.69h-1.68v1.69Z"/>
    <path d="M93.18,1061.08c0-.77-.07-1.42-.2-1.95-.14-.53-.33-.97-.6-1.32-.26-.35-.63-.64-1.12-.88-.49-.24-1.01-.36-1.57-.36-.7,0-1.31.2-1.82.59-.52.39-.88.95-1.09,1.68-.28-.56-.64-.99-1.1-1.27-.45-.28-.94-.42-1.45-.42-.55,0-1.08.16-1.59.47-.5.32-.88.75-1.12,1.31-.24.56-.36,1.3-.36,2.22v4.53h12.03v-4.6ZM82.57,1064.09v-2.41c0-.87.06-1.48.17-1.83.12-.36.32-.63.62-.83.3-.19.66-.29,1.05-.29.42,0,.77.1,1.05.31.28.21.48.51.6.92.09.3.14.81.14,1.52v2.61h-3.64ZM87.62,1064.09v-2.79c0-.77.07-1.36.2-1.76.13-.41.37-.73.7-.96.33-.23.72-.35,1.17-.35.38,0,.72.08,1.01.24.29.16.52.36.67.61.15.25.26.56.33.92.04.21.06.57.06,1.09v3h-4.13ZM91.49,1054.25h1.68v-1.69h-1.68v1.69Z"/>
    <path d="M92.45,1049.15c.63-.7.94-1.58.94-2.64,0-1.17-.36-2.15-1.1-2.91-.73-.77-1.62-1.16-2.67-1.16-.77,0-1.42.2-1.94.6-.51.39-.86.95-1.02,1.66-.25-.55-.59-.97-1.02-1.25-.42-.28-.9-.42-1.42-.42-.55,0-1.07.14-1.55.44-.49.29-.87.72-1.15,1.27-.28.56-.42,1.16-.42,1.82,0,.96.27,1.75.81,2.4.55.64,1.31,1.05,2.3,1.24l.26-1.48c-.72-.11-1.26-.36-1.62-.74-.36-.38-.54-.86-.54-1.44s.18-1.06.53-1.42.8-.55,1.35-.55c.68,0,1.19.26,1.52.76.33.51.49,1.07.49,1.7,0,.06,0,.14-.02.24l1.3.16c-.11-.42-.16-.76-.16-1.04,0-.69.22-1.25.66-1.7.44-.44,1-.67,1.68-.67.71,0,1.31.24,1.79.72.48.48.72,1.07.72,1.77,0,.59-.18,1.09-.55,1.49-.37.41-.97.7-1.81.87l.2,1.48c1-.1,1.81-.5,2.44-1.2M91.49,1039.73h1.68v-1.69h-1.68v1.69Z"/>
    <path d="M81.1,1030.26v.96c.52.26,1.05.69,1.61,1.32.55.62,1.02,1.34,1.41,2.17h1.43c-.17-.46-.43-.98-.76-1.56-.34-.58-.68-1.04-1.02-1.4h9.41v-1.48h-12.08ZM81.1,1020.83v.96c.52.26,1.05.7,1.61,1.32.55.62,1.02,1.35,1.41,2.17h1.43c-.17-.46-.43-.98-.76-1.56-.34-.58-.68-1.04-1.02-1.4h9.41v-1.48h-12.08ZM93.18,1015.35c.5.02.88.1,1.14.25.27.15.47.38.6.69l.63-.41c-.21-.48-.5-.83-.88-1.04-.38-.22-.88-.33-1.5-.33h-1.68v1.69h1.68v-.84ZM81.9,1000.93c-.53.61-.79,1.38-.79,2.33,0,1.27.46,2.29,1.38,3.04,1.06.86,2.75,1.29,5.07,1.29,2.08,0,3.57-.39,4.48-1.17.91-.78,1.36-1.78,1.36-3.02,0-.72-.17-1.37-.52-1.94-.35-.57-.84-1.02-1.49-1.35-.65-.33-1.35-.49-2.1-.49-1.15,0-2.08.35-2.81,1.04-.72.69-1.08,1.53-1.08,2.52,0,.56.13,1.11.39,1.62.26.52.66.95,1.21,1.31-1.21,0-2.13-.15-2.78-.42-.65-.27-1.14-.64-1.48-1.1-.26-.36-.39-.77-.39-1.25,0-.59.21-1.08.63-1.48.26-.24.68-.43,1.26-.56l-.12-1.47c-.93.12-1.67.48-2.2,1.09M87.4,1005.18c-.48-.47-.72-1.03-.72-1.7s.24-1.24.72-1.68c.48-.45,1.13-.67,1.96-.67s1.55.22,2.05.67c.5.45.76.99.76,1.61,0,.43-.12.84-.37,1.23-.24.39-.6.69-1.06.91-.47.22-.95.33-1.46.33-.78,0-1.4-.23-1.88-.7M91.5,997.27h1.68v-1.69h-1.68v1.69ZM93.18,988.23c0-.77-.07-1.42-.2-1.94-.14-.53-.33-.97-.6-1.32-.26-.35-.63-.65-1.12-.88-.49-.24-1.01-.36-1.57-.36-.7,0-1.31.2-1.82.59-.51.4-.88.96-1.09,1.68-.28-.56-.64-.99-1.1-1.27-.45-.28-.94-.42-1.45-.42-.56,0-1.08.16-1.59.47-.51.31-.88.75-1.13,1.31-.24.56-.36,1.3-.36,2.22v4.53h12.02v-4.6ZM82.57,991.23v-2.41c0-.87.06-1.48.17-1.84.11-.35.32-.63.62-.82.3-.19.65-.29,1.05-.29.42,0,.77.1,1.05.31s.48.51.6.92c.09.3.14.81.14,1.52v2.61h-3.63ZM87.62,991.23v-2.79c0-.77.07-1.36.2-1.76.13-.41.37-.73.7-.96.33-.23.72-.35,1.17-.35.38,0,.72.08,1.01.24.29.16.51.36.67.61.15.25.27.56.33.92.04.21.06.57.06,1.09v3h-4.14ZM91.5,981.24h1.68v-1.69h-1.68v1.69ZM92.45,976.13c.63-.7.95-1.58.95-2.64,0-1.17-.36-2.15-1.1-2.91-.73-.77-1.62-1.15-2.67-1.15-.78,0-1.43.2-1.94.59-.51.4-.85.95-1.02,1.66-.25-.55-.59-.96-1.02-1.24-.43-.28-.9-.42-1.42-.42-.55,0-1.07.14-1.55.44-.49.29-.87.72-1.15,1.27-.28.55-.42,1.16-.42,1.82,0,.96.27,1.75.82,2.4.54.64,1.31,1.05,2.3,1.24l.26-1.48c-.72-.11-1.26-.36-1.62-.74-.36-.38-.54-.86-.54-1.44s.18-1.05.53-1.42c.36-.37.8-.55,1.34-.55.68,0,1.19.25,1.52.76.33.51.49,1.07.49,1.71,0,.06,0,.14-.01.24l1.29.16c-.11-.42-.16-.76-.16-1.04,0-.69.22-1.25.66-1.7.44-.44,1-.67,1.68-.67s1.31.24,1.79.72c.48.48.72,1.07.72,1.76,0,.59-.19,1.09-.56,1.5-.37.41-.97.7-1.81.87l.2,1.48c1-.1,1.82-.5,2.44-1.2M91.5,967.08h1.68v-1.69h-1.68v1.69ZM81.1,957.6v.96c.52.26,1.05.69,1.61,1.32.55.62,1.02,1.34,1.41,2.17h1.43c-.17-.46-.43-.98-.76-1.56-.34-.58-.68-1.05-1.02-1.41h9.41v-1.48h-12.08Z"/>
    <path d="M92.45,952.28c.63-.7.95-1.58.95-2.64,0-1.18-.37-2.15-1.1-2.91-.73-.77-1.62-1.16-2.67-1.16-.78,0-1.42.2-1.94.6-.51.4-.86.95-1.02,1.66-.25-.55-.59-.96-1.02-1.24s-.9-.42-1.42-.42c-.55,0-1.06.14-1.55.44-.49.29-.87.72-1.15,1.27-.28.56-.42,1.16-.42,1.82,0,.96.27,1.75.81,2.39.55.64,1.31,1.05,2.3,1.24l.26-1.48c-.72-.11-1.26-.36-1.62-.74-.36-.39-.54-.87-.54-1.44s.18-1.06.53-1.43c.35-.37.8-.55,1.35-.55.68,0,1.19.26,1.52.76s.49,1.07.49,1.7c0,.06,0,.14-.02.24l1.3.16c-.11-.42-.16-.76-.16-1.04,0-.69.22-1.25.66-1.69.44-.45,1-.67,1.68-.67.71,0,1.31.24,1.79.72.48.48.72,1.07.72,1.77,0,.58-.19,1.09-.56,1.49-.37.41-.97.7-1.81.87l.2,1.48c1-.1,1.82-.5,2.44-1.2"/>
    <rect class="st13" x="97.9" y="1090.88" width="18.9" height="165.73"/>
    <path d="M113.43,1249.68h-2.88v-1.63h-1.35v1.63h-7.79v1.21l7.79,5.51h1.35v-5.24h2.88v-1.48ZM109.2,1254.94l-5.42-3.78h5.42v3.78ZM111.75,1245.64h1.68v-1.69h-1.68v1.69ZM111.73,1241c.64-.42,1.11-1,1.43-1.74.31-.74.47-1.65.47-2.74,0-.86-.15-1.63-.47-2.33-.31-.69-.75-1.22-1.32-1.58-.56-.37-1.17-.55-1.81-.55s-1.21.17-1.71.5-.9.85-1.23,1.56c-.22.48-.48,1.37-.77,2.67-.29,1.3-.58,2.1-.85,2.41-.28.31-.63.47-1.07.47-.5,0-.92-.22-1.27-.66-.36-.44-.53-1.15-.53-2.11s.2-1.63.58-2.1c.39-.47.96-.75,1.72-.83l-.12-1.53c-.7.03-1.33.23-1.89.59-.56.37-.98.9-1.27,1.58-.28.68-.43,1.47-.43,2.36,0,.81.14,1.55.41,2.22.27.67.67,1.17,1.2,1.52.53.35,1.1.52,1.7.52.55,0,1.05-.14,1.5-.42.44-.28.82-.71,1.12-1.29.24-.44.49-1.22.75-2.33.27-1.11.46-1.83.59-2.15.19-.51.43-.87.71-1.09.28-.22.61-.33.99-.33s.71.11,1.03.34c.32.23.56.57.74,1.04.18.47.27,1,.27,1.61,0,.69-.12,1.3-.36,1.85-.24.55-.55.95-.93,1.21-.39.26-.88.42-1.48.5l.13,1.51c.81-.02,1.53-.24,2.16-.66M113.43,1223.99v-1.54c-.34.19-.68.31-1.05.37-.36.07-1.23.1-2.6.1h-1.97c-.66,0-1.11.02-1.36.07-.41.09-.74.24-1.01.46-.26.22-.49.56-.66,1.03-.18.47-.26,1.07-.26,1.82s.1,1.42.31,1.98c.21.57.5,1.01.88,1.31.38.3.88.52,1.5.65l.2-1.45c-.62-.16-1.05-.4-1.29-.73-.24-.33-.36-.85-.36-1.55,0-.74.17-1.31.5-1.69.25-.28.67-.42,1.27-.42.05,0,.18,0,.38,0,.2.56.37,1.44.51,2.64.07.59.14,1.03.22,1.32.11.4.27.75.49,1.07.21.32.49.57.85.76.35.2.74.29,1.17.29.73,0,1.32-.26,1.79-.77.47-.52.7-1.25.7-2.22,0-.58-.1-1.13-.29-1.63-.19-.51-.52-1.04-.98-1.59.41-.04.77-.14,1.08-.3M109.6,1224.41c.65,0,1.14.08,1.48.24.43.21.77.53,1.02.98.25.44.37.95.37,1.52s-.13,1.02-.39,1.31c-.27.3-.59.45-.99.45-.26,0-.49-.07-.7-.21s-.37-.33-.48-.59c-.11-.25-.21-.68-.29-1.29-.15-1.08-.34-1.88-.56-2.42h.54ZM101.4,1220.58h12.03v-1.48h-12.03v1.48ZM104.72,1216.33h1.68v-1.69h-1.68v1.69ZM111.75,1216.33h1.68v-1.69h-1.68v1.69ZM102.15,1201.05c-.53.61-.8,1.39-.8,2.33,0,1.27.46,2.29,1.38,3.04,1.06.86,2.75,1.29,5.07,1.29,2.08,0,3.57-.39,4.47-1.17.91-.78,1.36-1.79,1.36-3.02,0-.73-.17-1.37-.51-1.94-.35-.57-.84-1.02-1.49-1.34-.65-.33-1.35-.49-2.1-.49-1.15,0-2.08.35-2.81,1.04-.72.69-1.09,1.54-1.09,2.52,0,.56.13,1.1.39,1.62.26.52.67.95,1.21,1.31-1.2,0-2.13-.15-2.78-.42-.65-.27-1.14-.63-1.48-1.1-.26-.36-.4-.77-.4-1.25,0-.58.21-1.08.63-1.48.27-.24.69-.43,1.26-.56l-.11-1.47c-.94.12-1.67.49-2.2,1.09M107.65,1205.31c-.48-.47-.72-1.04-.72-1.7s.24-1.24.72-1.68c.48-.45,1.13-.67,1.96-.67s1.55.22,2.05.67c.5.45.76.99.76,1.61,0,.43-.12.84-.36,1.23s-.6.69-1.06.91c-.46.22-.95.32-1.46.32-.78,0-1.4-.23-1.88-.7M111.75,1197.38h1.68v-1.69h-1.68v1.69ZM113.43,1188.32c0-.77-.07-1.41-.2-1.94-.13-.53-.33-.97-.59-1.32-.26-.35-.63-.65-1.12-.89-.49-.24-1.01-.36-1.57-.36-.7,0-1.31.2-1.82.59-.51.39-.88.95-1.09,1.68-.28-.56-.65-.99-1.1-1.27-.45-.28-.94-.42-1.45-.42-.55,0-1.08.16-1.59.47-.51.32-.88.75-1.13,1.31-.24.56-.36,1.29-.36,2.22v4.53h12.03v-4.6ZM102.82,1191.32v-2.41c0-.87.06-1.48.17-1.84.11-.35.32-.63.62-.82.3-.19.65-.29,1.05-.29.42,0,.77.1,1.05.31.28.21.48.51.6.91.1.31.14.82.14,1.53v2.61h-3.63ZM107.87,1191.32v-2.79c0-.77.07-1.35.2-1.76.13-.41.37-.73.69-.96.33-.23.72-.35,1.17-.35.38,0,.72.08,1.01.24.29.16.52.36.67.61.15.25.26.56.33.92.04.21.06.57.06,1.08v3h-4.13ZM111.75,1181.31h1.68v-1.69h-1.68v1.69ZM113.43,1171.16h-2.88v-1.63h-1.35v1.63h-7.79v1.21l7.79,5.51h1.35v-5.23h2.88v-1.48ZM109.2,1176.42l-5.42-3.78h5.42v3.78ZM111.75,1167.12h1.68v-1.69h-1.68v1.69ZM102.98,1157.19c.85.75,1.9,1.46,3.14,2.13,1.25.67,2.54,1.18,3.88,1.53,1.34.36,2.48.54,3.43.56v-1.52c-1.2-.08-2.3-.27-3.31-.57-1.43-.41-2.82-.99-4.17-1.75-1.35-.76-2.43-1.52-3.25-2.28h-1.15v7.81h1.42v-5.91ZM113.43,1152.12c.49.02.88.1,1.14.25s.47.38.6.69l.63-.41c-.21-.48-.5-.83-.88-1.05-.38-.22-.88-.33-1.49-.33h-1.68v1.69h1.68v-.84ZM102.15,1137.66c-.53.61-.8,1.39-.8,2.33,0,1.28.46,2.29,1.38,3.04,1.06.86,2.75,1.29,5.07,1.29,2.08,0,3.57-.39,4.47-1.17.91-.78,1.36-1.79,1.36-3.02,0-.73-.17-1.37-.51-1.94-.35-.57-.84-1.02-1.49-1.35-.65-.32-1.35-.49-2.1-.49-1.15,0-2.08.35-2.81,1.04-.72.69-1.09,1.53-1.09,2.52,0,.57.13,1.11.39,1.62.26.52.67.95,1.21,1.31-1.2-.01-2.13-.15-2.78-.42-.65-.27-1.14-.64-1.48-1.1-.26-.36-.4-.77-.4-1.24,0-.59.21-1.08.63-1.48.27-.24.69-.43,1.26-.56l-.11-1.47c-.94.12-1.67.49-2.2,1.09M107.65,1141.92c-.48-.47-.72-1.04-.72-1.7s.24-1.23.72-1.68c.48-.44,1.13-.67,1.96-.67s1.55.22,2.05.68c.5.45.76.99.76,1.61,0,.43-.12.84-.36,1.23-.24.39-.6.69-1.06.91-.46.21-.95.32-1.46.32-.78,0-1.4-.24-1.88-.7M111.75,1133.99h1.68v-1.69h-1.68v1.69ZM113.43,1124.93c0-.77-.07-1.41-.2-1.94-.13-.53-.33-.97-.59-1.32-.26-.35-.63-.65-1.12-.88-.49-.24-1.01-.36-1.57-.36-.7,0-1.31.2-1.82.59-.51.4-.88.96-1.09,1.69-.28-.57-.65-.99-1.1-1.27-.45-.28-.94-.42-1.45-.42-.55,0-1.08.16-1.59.47-.51.31-.88.75-1.13,1.31-.24.56-.36,1.3-.36,2.22v4.53h12.03v-4.6ZM102.82,1127.93v-2.41c0-.87.06-1.48.17-1.84.11-.36.32-.63.62-.83.3-.19.65-.29,1.05-.29.42,0,.77.1,1.05.31s.48.51.6.92c.1.3.14.81.14,1.52v2.61h-3.63ZM107.87,1127.93v-2.79c0-.77.07-1.36.2-1.76.13-.41.37-.73.69-.96.33-.23.72-.35,1.17-.35.38,0,.72.08,1.01.24.29.16.52.36.67.61.15.25.26.56.33.92.04.21.06.57.06,1.08v3h-4.13ZM111.75,1117.92h1.68v-1.69h-1.68v1.69ZM113.43,1107.77h-2.88v-1.63h-1.35v1.63h-7.79v1.21l7.79,5.5h1.35v-5.23h2.88v-1.48ZM109.2,1113.03l-5.42-3.78h5.42v3.78ZM111.75,1103.73h1.68v-1.69h-1.68v1.69ZM112.85,1098.51c.52-.6.78-1.37.78-2.31,0-.89-.24-1.66-.71-2.32-.48-.66-1.17-1.16-2.08-1.5-.91-.33-2.14-.5-3.67-.5s-2.61.17-3.39.51c-.78.34-1.38.83-1.8,1.48-.42.65-.63,1.37-.63,2.15,0,1.09.37,1.99,1.11,2.71.75.72,1.73,1.08,2.95,1.08s2.13-.35,2.85-1.04c.72-.69,1.08-1.54,1.08-2.54,0-.6-.14-1.15-.44-1.67-.29-.51-.67-.92-1.14-1.21.13,0,.23,0,.3,0,.61,0,1.21.07,1.8.22.59.15,1.06.33,1.41.55.35.22.62.5.83.84.21.34.31.74.31,1.2,0,.53-.15.97-.45,1.31-.3.34-.78.57-1.45.69l.13,1.42c.95-.12,1.68-.48,2.21-1.08M107.33,1094.19c.48.44.72,1,.72,1.69s-.24,1.25-.72,1.72c-.48.46-1.1.69-1.87.69-.85,0-1.55-.24-2.08-.73-.54-.49-.8-1.06-.8-1.72s.25-1.18.75-1.63c.5-.46,1.17-.68,2.02-.68s1.51.22,1.99.66"/>
    <rect class="st13" x="119.16" y="1154.34" width="18.9" height="102.27"/>
    <path d="M133.98,1254.72c.61-.69.92-1.59.92-2.69,0-1.34-.49-2.39-1.46-3.17-.79-.64-1.73-.95-2.82-.95s-2.08.36-2.8,1.08c-.73.73-1.09,1.61-1.09,2.67,0,.8.25,1.56.76,2.28l-3.23-.65v-4.82h-1.41v6l6.18,1.17.18-1.39c-.34-.22-.62-.52-.84-.9-.21-.39-.32-.82-.32-1.29,0-.77.24-1.39.73-1.87.49-.48,1.15-.71,1.99-.71.88,0,1.6.25,2.13.74.54.49.8,1.1.8,1.81,0,.59-.19,1.1-.57,1.52-.38.42-.95.69-1.7.8l.13,1.55c1.01-.1,1.82-.49,2.44-1.19M133.01,1245.62h1.68v-1.69h-1.68v1.69ZM132.99,1240.96c.63-.42,1.11-1,1.43-1.74.32-.74.47-1.65.47-2.74,0-.86-.16-1.63-.47-2.33-.32-.69-.76-1.22-1.32-1.59-.57-.37-1.17-.55-1.81-.55s-1.22.17-1.71.51c-.49.33-.9.85-1.23,1.56-.22.48-.47,1.37-.76,2.67-.29,1.3-.58,2.1-.86,2.41-.28.31-.63.47-1.06.47-.5,0-.92-.22-1.28-.66-.35-.44-.53-1.14-.53-2.11s.2-1.63.58-2.1c.39-.48.96-.75,1.72-.83l-.11-1.53c-.71.03-1.34.22-1.9.59-.56.37-.98.89-1.27,1.57-.29.68-.43,1.47-.43,2.37,0,.81.14,1.55.41,2.21.27.66.68,1.17,1.2,1.52.53.35,1.1.52,1.7.52.55,0,1.05-.14,1.5-.42.45-.28.82-.71,1.12-1.29.24-.44.49-1.22.75-2.33.27-1.11.46-1.82.59-2.15.19-.5.43-.87.71-1.08.28-.22.61-.33.99-.33s.71.12,1.03.34c.32.23.56.57.74,1.04.18.47.27,1,.27,1.61,0,.69-.12,1.3-.35,1.85-.24.55-.55.95-.93,1.21-.39.26-.88.43-1.48.5l.13,1.51c.8-.02,1.53-.24,2.16-.66M134.69,1223.94v-1.55c-.33.18-.68.31-1.04.37-.36.06-1.23.1-2.6.1h-1.97c-.66,0-1.11.02-1.36.07-.41.09-.74.24-1.01.46-.26.22-.48.56-.66,1.03-.18.47-.26,1.07-.26,1.82s.1,1.41.31,1.98c.21.57.5,1.01.88,1.31.38.3.88.52,1.5.65l.2-1.45c-.62-.16-1.05-.41-1.29-.74-.24-.33-.36-.85-.36-1.54,0-.75.16-1.31.5-1.69.25-.28.67-.42,1.27-.42.06,0,.18,0,.38.01.2.56.37,1.44.51,2.64.07.59.14,1.03.22,1.32.11.39.27.75.48,1.06.21.32.5.57.85.77.35.19.74.29,1.17.29.73,0,1.33-.26,1.79-.77s.7-1.26.7-2.22c0-.58-.1-1.13-.29-1.63-.19-.51-.52-1.04-.98-1.58.41-.04.77-.14,1.07-.3M130.86,1224.36c.65,0,1.14.08,1.48.24.43.21.77.53,1.02.98.25.44.37.95.37,1.52s-.13,1.01-.39,1.31c-.26.3-.59.45-.99.45-.26,0-.49-.07-.7-.21-.21-.14-.37-.33-.48-.58-.11-.25-.21-.68-.29-1.29-.15-1.08-.34-1.88-.56-2.42h.54ZM122.67,1220.52h12.02v-1.48h-12.02v1.48ZM125.98,1216.24h1.68v-1.69h-1.68v1.69ZM133.01,1216.24h1.68v-1.69h-1.68v1.69ZM123.41,1200.93c-.53.61-.8,1.39-.8,2.33,0,1.27.46,2.29,1.38,3.04,1.05.86,2.75,1.29,5.07,1.29,2.08,0,3.57-.39,4.48-1.17.9-.78,1.35-1.78,1.35-3.02,0-.72-.17-1.37-.51-1.94-.35-.57-.84-1.02-1.49-1.35-.65-.33-1.35-.49-2.1-.49-1.15,0-2.09.35-2.81,1.04-.72.69-1.09,1.54-1.09,2.53,0,.57.13,1.11.39,1.62.27.52.67.95,1.21,1.31-1.2-.01-2.13-.15-2.78-.42-.65-.27-1.15-.64-1.49-1.1-.26-.36-.39-.77-.39-1.25,0-.59.21-1.08.63-1.48.27-.24.69-.43,1.26-.56l-.11-1.47c-.94.12-1.67.48-2.2,1.09M128.91,1205.19c-.48-.47-.72-1.03-.72-1.7s.24-1.24.72-1.68c.48-.44,1.13-.67,1.96-.67s1.54.22,2.05.68c.5.45.75.99.75,1.61,0,.43-.12.84-.36,1.23-.24.39-.6.69-1.06.91-.46.21-.95.32-1.46.32-.78,0-1.4-.24-1.88-.7M133.01,1197.24h1.68v-1.69h-1.68v1.69ZM134.69,1188.17c0-.77-.06-1.42-.2-1.95-.14-.53-.33-.97-.6-1.32-.26-.35-.63-.64-1.12-.88-.48-.24-1.01-.36-1.57-.36-.7,0-1.31.2-1.82.59-.51.39-.88.95-1.09,1.68-.28-.56-.64-.99-1.1-1.27-.45-.28-.94-.42-1.45-.42-.55,0-1.08.16-1.59.48-.5.31-.88.75-1.12,1.31-.25.56-.37,1.3-.37,2.22v4.53h12.02v-4.6ZM124.09,1191.17v-2.41c0-.87.06-1.48.17-1.83.11-.36.32-.63.62-.83.31-.19.66-.29,1.05-.29.42,0,.77.1,1.05.31.28.2.48.51.6.92.09.31.14.81.14,1.52v2.61h-3.63ZM129.14,1191.17v-2.79c0-.77.07-1.36.2-1.77.14-.41.37-.73.7-.96.33-.23.72-.35,1.17-.35.38,0,.72.08,1.01.24.29.16.52.36.67.61.15.24.26.55.33.92.04.21.06.57.06,1.09v3h-4.14ZM133.01,1181.14h1.68v-1.69h-1.68v1.69ZM133.98,1176.02c.61-.69.92-1.59.92-2.68,0-1.34-.49-2.4-1.46-3.17-.79-.64-1.73-.96-2.82-.96s-2.08.36-2.8,1.09c-.73.72-1.09,1.61-1.09,2.67,0,.79.25,1.56.76,2.28l-3.23-.65v-4.81h-1.41v6l6.18,1.17.18-1.39c-.34-.22-.62-.52-.84-.9-.21-.38-.32-.81-.32-1.29,0-.77.24-1.39.73-1.86.49-.48,1.15-.71,1.99-.71.88,0,1.6.25,2.13.74s.8,1.1.8,1.81c0,.59-.19,1.1-.57,1.52-.38.42-.95.69-1.7.8l.13,1.56c1.01-.1,1.82-.5,2.44-1.19M133.01,1166.92h1.68v-1.69h-1.68v1.69ZM124.24,1156.97c.85.75,1.9,1.46,3.14,2.13,1.25.67,2.54,1.18,3.88,1.53,1.34.36,2.48.55,3.43.56v-1.52c-1.19-.08-2.3-.27-3.3-.57-1.43-.41-2.82-.99-4.17-1.75-1.35-.76-2.43-1.52-3.25-2.29h-1.15v7.81h1.42v-5.91Z"/>
    <line class="st3" x1="558.96" y1="988.27" x2="439.48" y2="936.29"/>
  </g>
</svg>