<?xml version="1.0" encoding="UTF-8"?>
<svg id="Layer_1" xmlns="http://www.w3.org/2000/svg" xmlns:xlink="http://www.w3.org/1999/xlink" version="1.1" viewBox="0 0 1200 1697.14">
  <!-- Generator: Adobe Illustrator 29.6.0, SVG Export Plug-In . SVG Version: 2.1.1 Build 207)  -->
  <defs>
    <style>
      .st0, .st1, .st2, .st3 {
        fill: none;
      }

      .st4, .st2, .st5, .st3 {
        stroke: #000;
      }

      .st4, .st6 {
        fill: #fff;
      }

      .st4, .st5 {
        stroke-miterlimit: 10;
        stroke-width: .05px;
      }

      .st1 {
        stroke: #0d0e1c;
      }

      .st1, .st2, .st3 {
        stroke-linecap: round;
        stroke-linejoin: round;
      }

      .st1, .st3 {
        stroke-width: .08px;
      }

      .st2 {
        stroke-width: .14px;
      }

      .st7 {
        clip-path: url(#clippath-1);
      }

      .st8 {
        clip-path: url(#clippath-3);
      }

      .st9 {
        clip-path: url(#clippath-4);
      }

      .st10 {
        clip-path: url(#clippath-2);
      }

      .st11 {
        clip-path: url(#clippath-7);
      }

      .st12 {
        clip-path: url(#clippath-6);
      }

      .st13 {
        clip-path: url(#clippath-9);
      }

      .st14 {
        clip-path: url(#clippath-8);
      }

      .st15 {
        clip-path: url(#clippath-5);
      }

      .st16 {
        fill: #ece9e5;
      }

      .st5, .st17 {
        fill: #302c35;
      }

      .st18 {
        clip-path: url(#clippath);
      }
    </style>
    <clipPath id="clippath">
      <rect class="st0" x="214.65" y="441.48" width="770.69" height="814.19"/>
    </clipPath>
    <clipPath id="clippath-1">
      <rect class="st0" x="452.41" y="749.72" width="72.57" height="159.65"/>
    </clipPath>
    <clipPath id="clippath-2">
      <rect class="st0" x="214.65" y="441.48" width="770.69" height="814.19"/>
    </clipPath>
    <clipPath id="clippath-3">
      <rect class="st0" x="529.07" y="977.68" width="28.6" height="39.22"/>
    </clipPath>
    <clipPath id="clippath-4">
      <rect class="st0" x="214.65" y="441.48" width="770.69" height="814.19"/>
    </clipPath>
    <clipPath id="clippath-5">
      <rect class="st0" x="214.65" y="441.48" width="770.69" height="814.19"/>
    </clipPath>
    <clipPath id="clippath-6">
      <rect class="st0" x="459.24" y="1061.09" width="27.51" height="37.12"/>
    </clipPath>
    <clipPath id="clippath-7">
      <rect class="st0" x="214.65" y="441.48" width="770.69" height="814.19"/>
    </clipPath>
    <clipPath id="clippath-8">
      <rect class="st0" x="214.65" y="441.48" width="770.69" height="814.19"/>
    </clipPath>
    <clipPath id="clippath-9">
      <rect class="st0" x="214.65" y="441.48" width="770.69" height="814.19"/>
    </clipPath>
  </defs>
  <rect class="st16" x="433.34" y="646.09" width="360.14" height="481.99"/>
  <rect class="st16" x="480.59" y="539.02" width="250.28" height="137.78"/>
  <rect class="st6" x="707.07" y="892.48" width="55.69" height="231.42"/>
  <rect class="st6" x="777.28" y="695.6" width="47.93" height="191.49"/>
  <rect class="st4" x="502.09" y="650.48" width="208.83" height="11.81"/>
  <rect class="st17" x="433.34" y="646.09" width="73.24" height="46.92"/>
  <rect class="st17" x="433.34" y="1112.22" width="153.91" height="15.86"/>
  <rect class="st17" x="658.8" y="1112.22" width="117.12" height="15.86"/>
  <rect class="st17" x="754.66" y="885.4" width="16.2" height="242.68"/>
  <rect class="st17" x="433.34" y="693.01" width="17.55" height="419.21"/>
  <rect class="st17" x="480.59" y="534.97" width="249.43" height="4.05"/>
  <rect class="st17" x="726.08" y="538.98" width="4.05" height="123.31"/>
  <rect class="st17" x="480.59" y="538.99" width="4.05" height="123.3"/>
  <rect class="st17" x="770.86" y="1061.59" width="11.81" height="66.49"/>
  <rect class="st17" x="782.68" y="1061.59" width="10.8" height="66.49"/>
  <rect class="st17" x="698.97" y="988.34" width="55.69" height="5.74"/>
  <rect class="st17" x="452.57" y="1105.47" width="125.9" height="13.55"/>
  <rect class="st17" x="572.06" y="971.13" width="6.41" height="54.68"/>
  <rect class="st17" x="452.57" y="971.13" width="120.83" height="5.07"/>
  <rect class="st17" x="447.96" y="971.13" width="9.68" height="143.37"/>
  <rect class="st17" x="457.64" y="976.19" width="115.77" height="1.35"/>
  <rect class="st17" x="572.06" y="1096.35" width="6.41" height="10.69"/>
  <rect class="st17" x="457.64" y="1104.12" width="115.77" height="1.35"/>
  <rect class="st17" x="457.64" y="976.19" width="1.35" height="127.92"/>
  <rect class="st17" x="450.89" y="911.39" width="119.49" height="7.76"/>
  <rect class="st17" x="570.37" y="911.39" width="8.1" height="59.74"/>
  <rect class="st17" x="770.86" y="885.4" width="22.62" height="176.19"/>
  <rect class="st17" x="754.66" y="662.29" width="38.82" height="59.4"/>
  <rect class="st17" x="703.7" y="646.09" width="89.78" height="46.92"/>
  <path class="st3" d="M450.89,919.15h119.48M570.37,919.15v51.98M570.37,971.13h-119.48M450.89,971.13v-51.98M703.7,676.81v16.2M703.7,693.01h50.97M450.89,693.01h55.69M506.58,693.01v-16.2M754.66,1112.22h-95.86M659.82,1128.08h94.85M433.34,1128.08h153.24M754.66,693.01v28.69M754.66,721.7h16.2M770.86,1128.08v-66.49M770.86,885.4h-16.2M433.34,693.01v419.21M589.95,1045.72l12.83,1.35M602.78,1047.07l12.49,3.71M615.26,1050.79l11.47,6.08M626.74,1056.86l10.13,8.44M636.87,1065.3l8.44,9.79M645.3,1075.09l6.07,11.47M651.38,1086.56l3.71,12.83M655.09,1099.39l1.35,12.83M587.25,1128.08v-15.87M658.8,1112.22v15.87M656.44,1112.22h-66.49M589.95,1112.22v-66.49M586.57,1112.22h.68"/>
  <path class="st17" d="M754.66,940.41h-1.01M751.29,940.41h-2.36M746.56,940.41h-2.37M741.5,940.41h-2.36M736.77,940.41h-2.36M732.05,940.41h-2.36M727.32,940.41h-2.36M722.6,940.41h-2.36M717.87,940.41h-2.7M712.81,940.41h-2.36M708.08,940.41h-1.01M707.07,940.41v-1.35M707.07,936.7v-2.36M707.07,931.98v-2.36M707.07,927.25v-2.36M707.07,922.53v-2.36M707.07,917.8v-2.7M707.07,912.74v-2.36M707.07,908.01v-2.36M707.07,903.29v-2.36M707.07,898.56v-2.36M707.07,893.84v-1.35M707.07,892.49h1.01M710.45,892.49h2.36M715.17,892.49h2.7M720.24,892.49h2.36M724.96,892.49h2.36M729.69,892.49h2.36M734.41,892.49h2.36M739.14,892.49h2.36M744.2,892.49h2.37M748.93,892.49h2.36M753.65,892.49h1.01M754.66,892.49v1.35M754.66,896.2v2.36M754.66,900.92v2.36M754.66,905.65v2.36M754.66,910.38v2.36M754.66,915.1v2.7M754.66,920.16v2.36M754.66,924.89v2.36M754.66,929.61v2.36M754.66,934.34v2.36M754.66,939.06v1.35M754.66,988.34h-1.01M751.29,988.34h-2.36M746.56,988.34h-2.37M741.5,988.34h-2.36M736.77,988.34h-2.36M732.05,988.34h-2.36M727.32,988.34h-2.36M722.6,988.34h-2.36M717.87,988.34h-2.7M712.81,988.34h-2.36M708.08,988.34h-1.01M707.07,988.34v-1.35M707.07,984.63v-2.36M707.07,979.9v-2.36M707.07,975.18v-2.36M707.07,970.12v-2.36M707.07,965.39v-2.36M707.07,960.67v-2.36M707.07,955.94v-2.36M707.07,951.22v-2.36M707.07,946.49v-2.36M707.07,941.43v-1.01M707.07,940.41h1.01M710.45,940.41h2.36M715.17,940.41h2.7M720.24,940.41h2.36M724.96,940.41h2.36M729.69,940.41h2.36M734.41,940.41h2.36M739.14,940.41h2.36M744.2,940.41h2.37M748.93,940.41h2.36M753.65,940.41h1.01M754.66,940.41v1.01M754.66,944.13v2.36M754.66,948.85v2.36M754.66,953.58v2.36M754.66,958.3v2.36M754.66,963.03v2.36M754.66,967.76v2.36M754.66,972.82v2.36M754.66,977.54v2.36M754.66,982.27v2.36M754.66,986.99v1.35M570.37,919.15h-119.49M450.89,919.15v51.98M450.89,971.13h119.49M570.37,971.13v-51.98M725.97,546.52h-241.33M484.64,546.52v99.57M725.97,646.09v-99.57M725.97,646.09h4.05M730.02,646.09v-103.62M730.02,542.47h-249.43M480.59,542.47v103.62M480.59,646.09h4.05M484.64,646.09v-99.57M484.64,546.52h241.33M725.97,546.52v99.57M782.68,1061.59h-11.82M770.86,1061.59v66.49M782.68,1128.08v-66.49M791.45,1061.59h-8.78M782.68,1061.59v66.49M791.45,1128.08v-66.49M754.66,988.34h-55.69M698.97,988.34v5.74M698.97,994.08h55.69M789.09,882.02l1.35-2.7M791.79,877.3l1.35-2.02M794.15,873.25l1.35-2.02M796.52,869.2l1.35-2.36M798.88,864.81l1.35-2.02M801.24,860.76l1.35-2.02M803.6,856.71l1.35-2.03M806.3,852.32l1.02-2.02M808.67,848.27l1.01-2.03M811.03,844.22l1.01-2.03M813.39,840.17l1.01-2.36M815.76,835.78l1.01-2.03M818.12,831.73l1.01-2.02M820.48,827.68l1.35-2.02M822.84,823.29l1.35-2.02M825.21,819.24l1.69-2.36M789.09,806.75h1.69M793.14,807.09h2.36M797.87,807.43l2.36.34M802.59,807.77l2.36.68M807.32,809.12l2.36.67M812.04,810.47l2.36.68M816.43,811.82l2.36,1.01M820.82,813.84l2.02,1.01M825.21,815.87l1.69,1.01M784.7,726.76h3.71M784.7,802.7v-75.95M788.42,802.7h-3.71M788.42,726.76v75.95M788.42,876.96h-3.71M788.42,811.48v65.48M784.7,811.48h3.71M784.7,876.96v-65.48M777.28,808.1v72.23M777.28,808.1v72.23M777.28,726.76v75.95M789.09,880.33v-72.23M789.09,876.96v-65.48M789.09,802.7v-75.95M782.68,808.1h-5.4M782.68,880.33h-5.4M782.68,876.96v-65.48M782.68,880.33v-72.23M782.68,808.1h-5.4M782.68,811.48v-3.38M789.09,811.48h-6.41M789.09,802.7v8.77M777.28,802.7h11.81M777.28,808.1v-5.4M789.09,726.76h-11.81M789.09,722.71v4.05M777.28,722.71h11.81M777.28,726.76v-4.05M789.09,884.38h-11.81M789.09,876.96v7.43M782.68,876.96h6.41M782.68,880.33v-3.38M777.28,880.33h5.4M777.28,884.38v-4.05M789.09,806.75v75.27M789.09,882.36v-76.28M789.09,882.02v-75.27M789.09,880.33v-72.23M789.09,808.1v72.23M789.09,806.08v76.28M789.09,811.48v65.48M789.09,876.96v-65.48"/>
  <path class="st5" d="M509.95,575.21l13.16,1.35M523.12,576.56l12.49,3.37M535.61,579.94l11.81,5.4M547.42,585.34l10.8,7.43M558.22,592.76l9.45,9.45M567.67,602.21l7.43,10.8M575.1,613.01l5.74,11.81M580.83,624.83l3.38,12.83M584.21,637.65l1.01,12.83M509.95,650.48v-75.27M514.68,655.2h65.48M580.16,655.2v-4.05M580.16,651.15h-65.48M514.68,651.15v4.05M583.87,662.29h-72.57M514.68,650.48h65.48M514.68,656.89h65.48M583.87,656.89v5.4M511.3,656.89v5.4M511.3,656.89h72.57M507.59,662.29h3.71M511.3,662.29v-5.4M511.3,656.89h3.38M514.68,656.89v-6.41M514.68,650.48h-7.09M507.59,650.48v11.81M583.87,662.29h3.71M587.58,662.29v-11.81M587.58,650.48h-7.43M580.16,650.48v6.41M580.16,656.89h3.71M583.87,656.89v5.4M698.63,651.15v4.05M592.65,651.15h105.98M592.65,655.2v-4.05M698.63,655.2h-105.98M592.65,662.29h105.98M698.63,650.48h-105.98M592.65,650.48v11.81M588.6,650.48h4.05M588.6,662.29v-11.81M592.65,662.29h-4.05M702.68,650.48v11.81M698.63,650.48h4.05M698.63,662.29v-11.81M702.68,662.29h-4.05M506.58,660.6v32.4M450.89,693.01v218.38M450.89,911.39h127.58M578.47,1112.22h8.78M754.66,1112.22v-118.14M754.66,988.34v-102.94M754.66,885.4h24.64M779.3,885.4v-1.01M779.3,722.71v-1.01M779.3,721.7h-24.64M754.66,721.7v-28.69M754.66,693.01h-50.97M703.69,693.01v-32.4M703.69,660.6h-1.01M588.6,660.6h-1.01M507.59,660.6h-1.01M751.62,1128.08h-92.82M587.25,1112.22h-.68M587.25,1128.08h-153.91M754.66,1043.36v47.59"/>
  <path class="st17" d="M754.66,995.43v95.52M578.47,1112.22v-6.75M578.47,1105.46v-9.11M578.47,1025.81v-54.68M573.41,1090.95v-62.78M570.37,971.13h-117.8M507.59,1093.99l1.01-12.82M508.6,1081.16l3.72-12.15M512.32,1069.01l6.07-11.47M518.39,1057.54l8.44-10.13M526.83,1047.41l9.79-8.1M536.62,1039.31l11.48-6.08M548.09,1033.23l12.49-3.71M560.58,1029.52l12.83-1.35M572.06,1025.81h6.41M578.47,1096.35h-6.41M573.41,1090.95v3.04M573.41,1093.99h-65.82M573.41,1090.95v-62.78"/>
  <path class="st3" d="M491.73,977.54h-1.35M488.69,977.54h-1.35M491.73,977.54h-4.39M491.73,977.54h-1.35M488.69,977.54h-1.35"/>
  <path class="st3" d="M458.99,977.54h113.07M572.06,977.54v48.26M572.06,1096.35v7.77M572.06,1104.12h-113.07M458.99,1104.12v-126.57"/>
  <path class="st3" d="M450.89,919.15h8.1M458.99,919.15v-7.76M458.99,911.39h-8.1M506.58,919.15h63.8M570.37,911.39h-63.8M506.58,911.39v7.76M506.58,919.15h-47.59M458.99,911.39h47.59M458.99,919.15v-7.76M506.58,911.39v7.76M578.47,971.13v-59.74M578.47,911.39h-8.1M793.48,1061.59v-176.19M793.48,885.4h-22.62M770.86,1061.59h22.62M793.48,721.7v-44.89M770.86,721.7h22.62M793.48,721.7v163.7M793.48,1061.59v66.49M793.48,721.7h-8.78M784.7,721.7v1.01M784.7,884.39v1.01M784.7,885.4h8.78M793.48,1061.59h-2.02M784.7,885.4v-1.01M784.7,722.71v-1.01M784.7,885.4h-5.4M506.58,676.81v-30.72M506.58,646.09h-73.24M793.48,676.81v-30.72M793.48,646.09h-89.78M703.7,646.09v30.72M703.7,654.87v-8.78M703.7,654.87h-1.01M588.6,654.87h-1.01M507.59,654.87h-1.01M506.58,660.6v-5.74M506.58,646.09v8.78M506.58,654.87h1.01M587.59,654.87h1.01M702.68,654.87h1.01M793.48,1128.08h-41.85M433.34,1128.08v-481.99"/>
  <g class="st18">
    <path class="st2" d="M70.83,1117.95h6.07M94.46,1197.27l16.2-7.09M106.27,1172.63l4.39,17.55M133.95,1201.32l-27.68-28.69M133.95,1201.32l-39.49-4.05M133.95,1201.32l-23.29-11.14M70.83,878.65h6.07M70.83,1038.3h6.07M70.83,958.64h6.07M70.83,878.65v239.31M1197.16,418.93H13.45"/>
    <path d="M92.22,469.84c-.43.28-.75.67-.96,1.17-.21.5-.32,1.11-.32,1.85,0,.58.11,1.1.32,1.57.21.47.5.82.89,1.07.38.25.78.37,1.21.37s.81-.11,1.15-.34c.33-.22.61-.58.82-1.05.14-.33.32-.92.51-1.8.19-.88.38-1.42.57-1.62.19-.21.42-.32.72-.32.33,0,.62.15.85.45.23.3.36.77.36,1.42s-.13,1.1-.39,1.42c-.26.32-.64.51-1.16.56l.08,1.03c.47-.02.9-.15,1.27-.4.37-.25.66-.6.85-1.06.19-.46.29-.99.29-1.6,0-.55-.09-1.04-.27-1.49-.18-.45-.45-.79-.81-1.02-.35-.23-.74-.35-1.14-.35-.37,0-.71.09-1,.29-.3.19-.55.48-.75.87-.16.3-.33.82-.5,1.57-.18.75-.31,1.23-.39,1.45-.13.34-.29.59-.48.73-.19.15-.41.22-.66.22s-.48-.08-.69-.23c-.21-.16-.38-.39-.49-.7-.12-.32-.18-.68-.18-1.09,0-.46.08-.88.24-1.25.16-.37.37-.64.62-.82.26-.18.59-.29.99-.34l-.09-1.02c-.54.02-1.02.16-1.45.45M91.08,478.56h2.79l1.28,1.33-4.08,2.9v1.42l4.8-3.56,3.26,3.41v-1.46l-4-4.04h4v-1.08h-8.06v1.08Z"/>
    <path d="M96.74,488.08h-.92v5.37h.92v-5.37ZM94.3,488.08h-.92v5.37h.92v-5.37Z"/>
    <path d="M92.22,498.2c-.43.28-.75.67-.96,1.17-.21.5-.32,1.11-.32,1.85,0,.58.1,1.1.31,1.57.21.47.51.82.89,1.07.38.25.78.37,1.22.37s.81-.11,1.14-.34c.33-.23.61-.58.82-1.05.15-.33.32-.92.51-1.8.2-.88.39-1.42.57-1.62.19-.21.42-.32.71-.32.34,0,.62.15.86.45.23.3.36.77.36,1.43s-.13,1.1-.39,1.42-.64.51-1.15.56l.08,1.03c.47-.02.9-.15,1.27-.4.38-.25.66-.61.85-1.06.19-.46.29-.99.29-1.6,0-.55-.09-1.04-.28-1.49-.18-.45-.45-.79-.8-1.02-.35-.23-.73-.35-1.14-.35-.37,0-.71.1-1,.29-.3.19-.55.48-.75.87-.16.3-.32.82-.5,1.57-.18.75-.31,1.23-.39,1.45-.13.34-.29.59-.48.73-.19.15-.41.22-.66.22s-.48-.07-.69-.23c-.21-.16-.38-.39-.5-.7-.12-.32-.18-.68-.18-1.09,0-.46.08-.88.24-1.25.16-.37.37-.64.63-.82.26-.18.59-.29.99-.34l-.09-1.02c-.54.01-1.02.16-1.45.45"/>
    <path d="M91.08,506.42h2.31l.67.71-2.98,1.95v1.23l3.67-2.48,2.16,2.26v-1.3l-2.38-2.37h4.6v-1h-8.06v1ZM91.08,515.54v1.04c.22-.12.46-.21.7-.25.25-.05.83-.07,1.75-.07h1.32c.44,0,.74-.02.91-.05.27-.06.49-.16.67-.31.18-.15.33-.38.44-.69.12-.31.18-.72.18-1.23s-.07-.95-.21-1.33c-.14-.38-.33-.68-.59-.88-.26-.21-.59-.35-1-.44l-.13.98c.42.11.7.27.87.5.16.22.25.57.25,1.04,0,.5-.11.88-.34,1.14-.16.19-.45.28-.85.28-.03,0-.12,0-.26,0-.13-.38-.25-.98-.34-1.78-.05-.39-.09-.69-.15-.89-.07-.27-.18-.5-.32-.72-.14-.21-.33-.38-.57-.52-.24-.13-.5-.2-.78-.2-.49,0-.89.17-1.2.52-.31.35-.47.85-.47,1.49,0,.39.07.76.19,1.1.13.34.35.7.66,1.07-.27.03-.51.1-.72.2M93.65,515.26c-.44,0-.77-.05-.99-.16-.29-.14-.52-.36-.68-.66-.17-.3-.25-.64-.25-1.03s.09-.68.27-.88c.18-.2.4-.31.66-.31.18,0,.33.05.47.14.14.09.25.22.33.39.07.17.14.46.2.87.1.73.23,1.27.38,1.63h-.36Z"/>
    <path d="M91.08,518.57h2.31l.67.71-2.99,1.95v1.23l3.67-2.48,2.16,2.25v-1.29l-2.37-2.37h4.6v-1h-8.06v1ZM91.93,525.05c0-.15.03-.26.07-.34.05-.08.11-.14.19-.17.08-.04.26-.05.55-.05h3.42v1.01h.77v-1.01h2.04l-.59-.99h-1.45v-.73h-.77v.73h-3.36c-.59,0-.98.04-1.17.12-.18.08-.33.22-.45.42-.11.2-.17.48-.17.84,0,.22.03.47.09.76l.88-.14c-.03-.18-.04-.33-.04-.44"/>
    <path d="M77.92,470.9h3.66v3.82h.95v-3.82h2.5v4.41h.95v-5.49h-8.06v1.08ZM79.06,476.59c-.43.28-.74.67-.96,1.17-.21.5-.32,1.11-.32,1.85,0,.58.1,1.1.31,1.57.21.46.51.82.89,1.07.38.25.79.37,1.22.37s.81-.11,1.14-.34c.33-.23.61-.58.83-1.05.14-.33.32-.92.51-1.8.2-.88.39-1.42.57-1.62.19-.21.43-.32.72-.32.33,0,.62.15.85.45.23.3.35.77.35,1.43s-.13,1.1-.39,1.42c-.26.32-.64.51-1.15.56l.08,1.03c.47-.02.9-.15,1.27-.4.38-.25.66-.61.85-1.06.19-.46.29-.99.29-1.6,0-.55-.09-1.04-.27-1.49-.19-.45-.45-.79-.81-1.02-.35-.23-.73-.35-1.14-.35-.37,0-.7.1-1,.29-.3.19-.55.48-.75.87-.16.3-.32.82-.5,1.57-.18.75-.31,1.23-.39,1.45-.13.34-.29.59-.48.73-.19.15-.41.22-.66.22s-.48-.07-.69-.23c-.21-.16-.38-.39-.5-.7-.12-.32-.18-.68-.18-1.09,0-.46.08-.88.24-1.25.16-.37.37-.64.63-.82.26-.18.59-.29.99-.34l-.09-1.02c-.54.01-1.02.16-1.45.45"/>
    <path d="M83.58,487.07h-.92v5.37h.92v-5.37ZM81.13,487.07h-.92v5.37h.92v-5.37Z"/>
    <polygon points="77.92 498.23 81.58 498.23 81.58 502.05 82.53 502.05 82.53 498.23 85.03 498.23 85.03 502.64 85.98 502.64 85.98 497.15 77.92 497.15 77.92 498.23"/>
    <path d="M78.57,504.46c-.53.51-.79,1.18-.79,2,0,.51.12.99.36,1.43.24.44.57.76,1,.99.43.23,1.02.34,1.77.34.93,0,1.65-.26,2.18-.77.53-.52.79-1.18.79-1.99,0-.73-.22-1.34-.65-1.85-.52-.61-1.32-.91-2.4-.91-.98,0-1.74.25-2.26.76M82.51,505.21c.37.33.55.74.55,1.24s-.18.9-.56,1.24c-.37.33-.92.5-1.64.5-.77,0-1.34-.16-1.71-.49-.38-.33-.56-.75-.56-1.24s.19-.91.56-1.24c.37-.33.93-.49,1.68-.49s1.31.17,1.68.49M77.92,511.12h3.05c.42,0,.81.06,1.16.17.23.07.41.2.54.37.13.18.2.37.2.59,0,.24-.07.49-.21.73l.92.34c.21-.35.32-.69.32-1.03,0-.23-.07-.45-.2-.64-.13-.19-.41-.4-.82-.63h.89v-.9h-5.84v1Z"/>
    <path d="M78.89,517.27c-.19-.26-.29-.57-.29-.94,0-.49.17-.9.51-1.23.34-.33.83-.51,1.48-.55v4.39c.11,0,.2,0,.26,0,.96,0,1.71-.25,2.24-.75.53-.5.8-1.14.8-1.93s-.27-1.47-.81-1.99c-.54-.51-1.31-.77-2.29-.77s-1.69.25-2.21.76c-.53.51-.79,1.19-.79,2.05,0,.68.16,1.24.49,1.69.33.44.79.74,1.39.9l.13-1.03c-.42-.15-.72-.35-.91-.62M82.62,515.13c.31.31.46.7.46,1.16,0,.51-.19.92-.57,1.24-.25.21-.61.33-1.1.38v-3.29c.51.03.91.21,1.22.52M78.26,520.63c-.31.4-.47.99-.47,1.75,0,.46.08.88.24,1.24.16.37.38.65.67.84.29.19.6.29.93.29s.62-.08.84-.24c.23-.16.4-.38.52-.66.12-.28.27-.77.46-1.48.13-.49.22-.78.25-.88.07-.18.16-.3.26-.38.1-.08.22-.12.35-.12.2,0,.38.1.53.29.15.2.23.52.23.98,0,.39-.08.69-.25.9-.17.21-.4.34-.7.39l.13.97c.38-.06.68-.18.9-.34.23-.17.4-.42.54-.77.13-.35.2-.76.2-1.22,0-.31-.04-.6-.12-.87-.08-.27-.18-.48-.29-.63-.14-.21-.33-.37-.55-.49-.22-.12-.46-.18-.72-.18-.29,0-.55.07-.79.22-.23.15-.42.36-.55.64-.14.28-.29.79-.48,1.52-.14.54-.25.89-.33,1.02-.13.2-.31.29-.53.29-.25,0-.47-.11-.65-.33-.19-.22-.28-.56-.28-1.02s.1-.81.31-1.06c.21-.25.51-.41.9-.47l-.16-.99c-.62.11-1.09.37-1.4.77M85.98,526.02h-8.06v1h8.06v-1ZM77.92,532.7v1.04c.22-.13.46-.21.7-.26.24-.04.82-.06,1.74-.06h1.32c.44,0,.75-.02.91-.05.27-.06.5-.17.67-.31.18-.15.33-.38.44-.69.12-.31.18-.72.18-1.22s-.07-.95-.2-1.34c-.14-.38-.33-.68-.59-.88-.25-.21-.59-.35-1-.44l-.13.98c.41.11.7.27.86.5.17.22.25.57.25,1.04,0,.5-.11.88-.33,1.14-.17.19-.45.28-.85.28-.04,0-.12,0-.26,0-.13-.38-.24-.98-.34-1.78-.05-.39-.1-.69-.15-.89-.07-.27-.18-.5-.32-.72-.14-.21-.33-.38-.57-.52-.23-.13-.5-.2-.78-.2-.49,0-.89.17-1.2.52s-.47.85-.47,1.49c0,.39.06.76.19,1.1.13.34.35.7.66,1.07-.28.03-.51.1-.72.2M80.49,532.42c-.44,0-.77-.06-.99-.16-.29-.14-.52-.36-.68-.66-.16-.3-.25-.64-.25-1.03s.09-.68.26-.88c.18-.2.4-.3.66-.3.17,0,.33.04.47.14.14.09.25.22.32.39.08.17.14.46.2.87.1.72.22,1.27.37,1.63h-.36ZM84.54,530.32c-.2.2-.29.43-.29.71s.1.5.29.7c.19.2.43.3.71.3s.52-.1.71-.3.29-.43.29-.7-.1-.5-.29-.7-.42-.3-.69-.3c-.29,0-.54.1-.74.29M85.68,530.63c.11.12.18.25.18.41s-.06.3-.18.42c-.12.11-.26.17-.42.17s-.31-.06-.42-.17c-.12-.12-.18-.25-.18-.41s.06-.3.18-.41.26-.18.44-.18c.16,0,.3.06.42.18M78.89,538.48c-.19-.26-.29-.57-.29-.94,0-.49.17-.9.51-1.23.34-.33.83-.51,1.48-.55v4.4c.11,0,.2,0,.26,0,.96,0,1.71-.25,2.24-.75.53-.5.8-1.14.8-1.93s-.27-1.47-.81-1.99c-.54-.51-1.31-.76-2.29-.76s-1.69.25-2.21.76c-.53.5-.79,1.19-.79,2.05,0,.68.16,1.25.49,1.69.33.44.79.74,1.39.9l.13-1.03c-.42-.15-.72-.36-.91-.62M82.62,536.34c.31.31.46.7.46,1.16,0,.5-.19.92-.57,1.24-.25.21-.61.33-1.1.38v-3.29c.51.04.91.21,1.22.52"/>
    <path d="M78.76,543.27c0-.15.02-.26.07-.34.05-.08.11-.14.19-.17.08-.04.26-.05.55-.05h3.41v1.01h.77v-1.01h2.04l-.59-1h-1.45v-.73h-.77v.73h-3.36c-.59,0-.98.04-1.17.12-.19.08-.33.22-.45.42-.12.2-.17.48-.17.84,0,.22.03.47.09.75l.88-.14c-.03-.18-.04-.33-.04-.44M78.26,547.96c-.32.4-.47.99-.47,1.75,0,.46.08.88.24,1.24.16.36.38.64.68.84.29.2.6.29.93.29s.62-.08.85-.24c.23-.16.4-.38.52-.66.12-.28.27-.77.46-1.48.14-.49.22-.78.25-.88.07-.17.16-.3.27-.38.1-.08.21-.12.35-.12.2,0,.38.1.53.3s.23.52.23.98c0,.39-.08.69-.25.9-.17.21-.4.34-.7.38l.13.98c.38-.07.68-.18.9-.35.22-.17.4-.43.54-.77.13-.35.2-.76.2-1.22,0-.31-.04-.6-.12-.86-.08-.27-.18-.48-.29-.63-.15-.21-.33-.37-.55-.49-.22-.12-.46-.18-.72-.18-.28,0-.55.07-.78.22-.23.15-.42.36-.55.65-.13.28-.29.79-.48,1.52-.14.54-.25.88-.34,1.02-.13.2-.31.29-.53.29-.25,0-.47-.11-.65-.33-.19-.22-.28-.56-.28-1.02s.1-.81.32-1.06c.21-.25.51-.41.9-.46l-.15-.99c-.62.11-1.09.36-1.4.77"/>
    <path d="M77.92,554.69h2.31l.67.7-2.98,1.95v1.23l3.67-2.48,2.16,2.25v-1.29l-2.38-2.36h4.6v-1h-8.06v1ZM77.92,563.47v1.04c.22-.12.46-.21.7-.25.25-.05.83-.07,1.75-.07h1.32c.44,0,.74-.02.91-.05.27-.06.5-.16.67-.31.18-.15.33-.38.45-.69.12-.31.18-.72.18-1.23s-.07-.95-.21-1.33-.33-.68-.59-.88c-.25-.21-.59-.35-1-.44l-.13.98c.41.11.7.27.86.5.16.22.25.57.25,1.04,0,.5-.11.88-.33,1.14-.17.19-.45.28-.85.28-.04,0-.13,0-.26,0-.14-.38-.25-.98-.35-1.78-.05-.39-.09-.69-.15-.89-.07-.27-.18-.5-.32-.72-.14-.21-.33-.38-.57-.52-.23-.13-.49-.2-.78-.2-.49,0-.89.17-1.2.52-.31.35-.47.85-.47,1.49,0,.39.07.76.2,1.1.13.34.35.7.66,1.07-.27.03-.51.1-.72.2M80.48,563.18c-.44,0-.77-.05-.99-.16-.29-.14-.51-.36-.68-.66-.17-.3-.25-.64-.25-1.03s.09-.68.27-.88c.18-.2.4-.31.66-.31.17,0,.33.05.47.14.14.09.25.22.32.39.07.17.14.46.2.87.1.73.23,1.27.38,1.63h-.36Z"/>
    <path d="M78.65,566.42c-.58.39-.86.94-.86,1.64s.27,1.3.82,1.8c.55.5,1.32.75,2.32.75.42,0,.82-.06,1.19-.18.37-.12.68-.28.95-.49.26-.21.47-.48.61-.8.14-.32.22-.67.22-1.03,0-.65-.26-1.19-.79-1.61h2.88v-1h-8.06v.93h.73ZM82.51,566.88c.38.32.56.7.56,1.13s-.18.8-.54,1.11c-.36.31-.93.46-1.69.46s-1.3-.16-1.68-.48c-.38-.32-.56-.7-.56-1.13,0-.53.25-.96.76-1.28.31-.19.82-.29,1.52-.29s1.25.16,1.63.48"/>
    <path d="M78.95,877.22c-.56.45-.83,1.06-.83,1.85,0,.6.16,1.09.48,1.48.31.39.76.68,1.35.88.58.2,1.34.29,2.29.29.8,0,1.44-.06,1.91-.18.47-.12.87-.29,1.2-.5.33-.21.58-.49.76-.81.18-.33.26-.71.26-1.15,0-.59-.16-1.08-.47-1.47-.31-.39-.76-.69-1.34-.88-.58-.2-1.35-.29-2.3-.29-1.51,0-2.6.27-3.27.8M84.95,877.96c.39.28.58.64.58,1.1s-.22.85-.65,1.17c-.44.31-1.32.47-2.65.47s-2.2-.16-2.64-.47c-.44-.31-.66-.7-.66-1.16s.22-.84.65-1.16c.44-.31,1.32-.47,2.64-.47s2.23.17,2.72.52M79.21,1030.92c.18.11.36.25.53.42.18.17.52.55,1.02,1.15.6.72,1.07,1.23,1.42,1.54.35.31.67.53.98.66.31.13.63.2.95.2.64,0,1.17-.23,1.6-.68.43-.46.64-1.07.64-1.86s-.2-1.39-.6-1.85-.97-.72-1.73-.79l-.1,1.03c.5,0,.9.15,1.19.44.29.29.43.68.43,1.15,0,.46-.14.83-.4,1.11-.27.28-.6.42-.99.42s-.77-.16-1.19-.47c-.42-.31-.99-.91-1.71-1.8-.46-.57-.87-1-1.22-1.31-.35-.3-.71-.52-1.07-.66-.22-.08-.45-.12-.69-.11v5.38h.95v-3.99Z"/>
    <path d="M78.26,1037.01h3.03c.53,0,.94.05,1.22.16.29.11.5.28.64.52.15.24.22.5.22.78,0,.37-.11.64-.33.8-.22.16-.55.25-.99.25h-3.79v1h3.39c.6,0,1.04.14,1.31.41.27.28.41.62.41,1.04,0,.23-.05.43-.16.6-.11.17-.25.29-.42.35-.18.07-.46.1-.85.1h-3.68v.99h4.01c.66,0,1.16-.16,1.48-.47.32-.32.48-.76.48-1.35,0-.74-.34-1.35-1.02-1.82.32-.11.57-.31.75-.59.18-.28.27-.64.27-1.08,0-.39-.08-.74-.26-1.05-.17-.31-.41-.55-.69-.74h.82v-.89h-5.84v1Z"/>
    <path d="M86.35,956.12v-.64c-.35-.17-.71-.47-1.08-.89-.37-.42-.68-.9-.94-1.46h-.96c.11.31.29.66.51,1.05.23.39.46.71.68.95h-6.3v1h8.09ZM78.26,960.05h3.03c.53,0,.94.05,1.22.16.29.11.5.28.64.52.15.24.22.5.22.78,0,.37-.11.63-.33.8-.22.16-.55.25-.99.25h-3.79v1h3.39c.6,0,1.04.14,1.31.41.27.28.41.62.41,1.03,0,.23-.05.43-.16.6-.11.17-.25.28-.42.35-.18.07-.46.1-.85.1h-3.68v.99h4.01c.66,0,1.16-.16,1.48-.47.32-.32.48-.76.48-1.35,0-.75-.34-1.36-1.02-1.82.32-.12.57-.31.75-.59.18-.28.27-.64.27-1.07,0-.39-.08-.74-.26-1.05-.17-.31-.41-.55-.69-.74h.82v-.89h-5.84v1Z"/>
    <path d="M78.25,781.3h6.86l-6.86,2.35v.97l6.74,2.36h-6.74v1.04h8.06v-1.45l-5.61-1.94c-.57-.2-1-.34-1.29-.44.27-.08.66-.21,1.19-.39l5.71-1.92v-1.62h-8.06v1.04ZM78.25,793.32v1.04c.23-.13.46-.21.7-.25.24-.04.83-.06,1.74-.06h1.32c.44,0,.74-.02.91-.05.27-.06.49-.16.67-.31.18-.15.33-.38.44-.69.12-.31.18-.72.18-1.22s-.07-.96-.2-1.34c-.14-.39-.34-.68-.59-.88-.25-.21-.59-.35-1-.44l-.13.98c.42.11.7.27.87.49.16.22.25.57.25,1.04,0,.5-.11.88-.34,1.14-.16.19-.45.28-.85.28-.03,0-.12,0-.26,0-.13-.38-.24-.98-.34-1.78-.05-.39-.1-.69-.15-.89-.08-.27-.18-.5-.33-.72-.14-.21-.33-.38-.57-.51-.24-.13-.5-.2-.78-.2-.49,0-.89.17-1.2.52-.32.35-.47.85-.47,1.49,0,.39.07.76.19,1.1.13.34.35.7.66,1.07-.27.03-.51.1-.72.2M80.82,793.04c-.44,0-.77-.06-.99-.16-.29-.14-.52-.36-.69-.66-.16-.3-.25-.64-.25-1.03s.09-.68.26-.89c.18-.2.39-.3.66-.3.17,0,.33.04.47.14.14.09.25.22.32.39.07.17.14.46.2.87.1.73.23,1.27.37,1.63h-.36ZM84.88,790.95c-.2.2-.29.43-.29.71s.09.5.29.7c.19.2.43.29.71.29s.52-.1.71-.29.29-.43.29-.7-.1-.5-.29-.7-.42-.3-.69-.3c-.29,0-.54.1-.73.3M86.02,791.25c.12.12.17.25.17.41s-.06.3-.17.42c-.12.11-.26.17-.42.17s-.31-.06-.43-.18c-.11-.12-.17-.25-.17-.41s.06-.3.17-.41c.12-.12.26-.18.44-.18.16,0,.3.06.42.18"/>
    <rect x="78.26" y="795.67" width="8.06" height="1"/>
    <path d="M86.35,804.91v-.65c-.35-.17-.71-.47-1.08-.89-.37-.42-.68-.91-.94-1.46h-.96c.11.31.28.66.51,1.05.23.39.46.71.68.95h-6.31v1h8.09ZM84.09,808.12h-1.13v1.14h1.13v-1.14ZM79.38,808.12h-1.13v1.14h1.13v-1.14Z"/>
    <path d="M78.73,811.4c-.41.47-.61,1.07-.61,1.81,0,.9.32,1.61.98,2.14.53.43,1.16.64,1.89.64s1.39-.24,1.88-.73c.49-.49.73-1.09.73-1.8,0-.54-.17-1.05-.5-1.54l2.16.44v3.25h.94v-4.05l-4.14-.79-.12.94c.23.15.42.35.57.61.14.26.21.55.21.87,0,.52-.16.94-.49,1.26-.33.32-.77.48-1.33.48-.59,0-1.07-.17-1.43-.5-.36-.33-.54-.74-.54-1.22,0-.4.13-.74.38-1.03.25-.28.63-.46,1.14-.54l-.09-1.05c-.68.07-1.22.34-1.63.8M78.95,817.82c-.56.45-.83,1.06-.83,1.85,0,.6.16,1.09.47,1.48.32.39.77.68,1.35.88.58.2,1.34.3,2.29.3.8,0,1.43-.06,1.9-.18.47-.12.87-.29,1.2-.51.33-.21.58-.49.76-.82.18-.33.26-.71.26-1.15,0-.59-.16-1.08-.47-1.47-.31-.39-.76-.68-1.34-.88-.58-.2-1.35-.3-2.3-.3-1.51,0-2.6.27-3.27.81M84.95,818.55c.38.27.58.64.58,1.1s-.22.86-.66,1.17-1.32.47-2.64.47-2.2-.15-2.64-.47c-.44-.31-.66-.7-.66-1.16s.22-.84.66-1.16c.44-.31,1.32-.47,2.64-.47s2.23.17,2.72.51"/>
    <polygon class="st6" points="78.26 1168.25 100.87 1179.38 94.12 1193.9 71.17 1182.76 78.26 1168.25"/>
    <polygon points="81.01 1173.99 92.35 1179.48 77.32 1181.6 76.37 1183.57 90.81 1190.56 91.7 1188.72 80.36 1183.23 95.38 1181.11 96.34 1179.14 81.9 1172.15 81.01 1173.99"/>
    <path d="M78.75,1110.12c-.42.47-.63,1.06-.63,1.78,0,.79.25,1.44.74,1.96.49.52,1.08.77,1.79.77.52,0,.95-.13,1.3-.4.35-.27.58-.64.68-1.12.17.37.4.65.68.84.29.19.61.28.95.28.36,0,.71-.1,1.04-.3.32-.2.58-.49.77-.86.19-.38.28-.78.28-1.23,0-.64-.18-1.18-.55-1.62-.36-.43-.88-.71-1.54-.83l-.18,1c.48.07.85.24,1.09.5s.36.58.36.97-.12.71-.36.96c-.24.25-.54.38-.9.38-.46,0-.79-.17-1.02-.51-.22-.34-.33-.72-.33-1.15,0-.04,0-.09,0-.16l-.87-.11c.07.28.11.51.11.7,0,.47-.15.85-.44,1.15-.29.3-.67.45-1.13.45s-.87-.16-1.2-.48c-.32-.33-.48-.72-.48-1.19,0-.4.12-.73.37-1.01.25-.28.65-.47,1.21-.59l-.13-1c-.67.07-1.22.34-1.64.81M78.26,1116.66h3.03c.53,0,.94.05,1.22.16.29.1.5.28.64.52.15.24.22.5.22.78,0,.37-.11.63-.33.8-.22.17-.55.24-.99.24h-3.79v1h3.39c.6,0,1.04.14,1.31.41.27.28.41.62.41,1.03,0,.23-.05.43-.16.6-.11.17-.25.28-.42.35-.18.07-.46.1-.85.1h-3.68v.99h4.01c.66,0,1.16-.16,1.48-.47.32-.31.48-.76.48-1.35,0-.75-.34-1.35-1.02-1.82.32-.11.57-.31.75-.59.18-.28.27-.64.27-1.08,0-.39-.08-.74-.26-1.05-.17-.31-.41-.55-.69-.74h.82v-.89h-5.84v1Z"/>
    <rect class="st6" x="1139.78" y="440.54" width="18.9" height="111.72"/>
    <path d="M1155.23,446.81v-.95c-.52-.26-1.05-.7-1.61-1.32-.55-.62-1.02-1.34-1.41-2.17h-1.43c.17.46.42.98.76,1.56.34.58.68,1.05,1.02,1.4h-9.41v1.48h12.08ZM1144.84,451.52h-1.68v1.69h1.68v-1.69ZM1144.86,456.18c-.64.42-1.11,1-1.43,1.74-.32.74-.48,1.65-.48,2.74,0,.86.16,1.63.47,2.32.31.69.76,1.21,1.32,1.59.57.37,1.17.55,1.81.55s1.22-.17,1.71-.5c.49-.33.9-.85,1.23-1.56.22-.48.48-1.37.77-2.67.29-1.3.58-2.1.86-2.41.28-.31.63-.47,1.06-.47.5,0,.92.22,1.28.66.36.44.53,1.14.53,2.11s-.2,1.63-.58,2.1c-.39.47-.96.75-1.72.84l.12,1.53c.7-.03,1.34-.22,1.89-.59s.98-.89,1.27-1.58c.29-.68.43-1.47.43-2.37,0-.81-.14-1.55-.41-2.21-.27-.67-.67-1.17-1.2-1.51-.53-.35-1.1-.52-1.71-.52-.55,0-1.05.14-1.5.42-.44.29-.82.71-1.12,1.29-.23.45-.49,1.22-.75,2.33-.27,1.11-.46,1.82-.59,2.15-.19.5-.43.87-.71,1.09-.28.22-.61.33-.99.33s-.72-.12-1.03-.34c-.32-.23-.56-.58-.74-1.04-.18-.47-.27-1.01-.27-1.61,0-.69.12-1.31.36-1.85.24-.55.55-.96.94-1.22.38-.26.88-.43,1.48-.5l-.13-1.51c-.81.02-1.53.24-2.16.66M1143.16,473.2v1.55c.33-.19.68-.31,1.05-.37.36-.06,1.23-.1,2.6-.1h1.97c.66,0,1.11-.02,1.36-.07.41-.09.74-.24,1.01-.46.26-.22.48-.56.66-1.03.18-.47.27-1.07.27-1.82s-.1-1.41-.31-1.98c-.2-.57-.5-1.01-.88-1.31-.38-.3-.88-.52-1.5-.65l-.2,1.45c.62.16,1.05.4,1.29.74.24.33.36.85.36,1.54,0,.75-.17,1.31-.5,1.69-.25.28-.67.42-1.27.42-.05,0-.18,0-.38,0-.2-.56-.37-1.45-.51-2.64-.07-.59-.14-1.03-.22-1.32-.11-.39-.27-.75-.48-1.06-.21-.32-.5-.57-.85-.76-.35-.2-.74-.29-1.17-.29-.73,0-1.32.26-1.8.77-.46.52-.7,1.26-.7,2.22,0,.58.1,1.12.29,1.63.19.51.52,1.04.98,1.59-.41.05-.77.14-1.07.3M1146.99,472.78c-.65,0-1.14-.08-1.48-.24-.43-.21-.77-.54-1.02-.98-.25-.45-.37-.95-.37-1.52s.13-1.01.39-1.31c.26-.3.59-.45.98-.45.26,0,.49.07.7.21.21.14.37.33.48.59.11.25.21.68.3,1.29.15,1.07.34,1.88.56,2.42h-.54ZM1155.18,476.62h-12.03v1.48h12.03v-1.48ZM1151.87,480.9h-1.68v1.69h1.68v-1.69ZM1144.84,480.9h-1.68v1.69h1.68v-1.69ZM1154.44,496.2c.53-.61.79-1.38.79-2.33,0-1.27-.46-2.29-1.38-3.04-1.05-.86-2.74-1.29-5.07-1.29-2.08,0-3.57.39-4.48,1.17-.91.78-1.36,1.79-1.36,3.02,0,.73.17,1.37.51,1.94s.84,1.02,1.49,1.34c.65.33,1.35.49,2.1.49,1.15,0,2.08-.35,2.81-1.04.72-.69,1.08-1.54,1.08-2.52,0-.57-.13-1.11-.39-1.62-.26-.52-.66-.95-1.21-1.31,1.2,0,2.13.15,2.78.42.65.27,1.15.64,1.48,1.11.26.35.39.77.39,1.24,0,.59-.21,1.08-.63,1.48-.26.24-.68.43-1.27.56l.12,1.47c.94-.12,1.67-.49,2.2-1.09M1148.94,491.95c.48.46.72,1.03.72,1.7s-.24,1.23-.72,1.68c-.48.44-1.13.66-1.96.66s-1.55-.22-2.05-.67c-.5-.45-.76-.99-.76-1.61,0-.43.12-.84.37-1.23.24-.39.6-.69,1.06-.91.47-.22.95-.32,1.46-.32.78,0,1.4.23,1.88.7M1144.84,499.9h-1.68v1.69h1.68v-1.69ZM1143.16,508.97c0,.77.07,1.42.2,1.95.14.53.33.97.59,1.32.26.35.64.65,1.12.89.49.24,1.01.36,1.57.36.7,0,1.31-.19,1.82-.59.51-.39.88-.95,1.09-1.68.28.57.64.99,1.1,1.27s.94.42,1.45.42c.55,0,1.08-.16,1.59-.48.5-.32.88-.75,1.13-1.31.24-.56.36-1.3.36-2.22v-4.52h-12.02v4.6ZM1153.77,505.97v2.41c0,.87-.06,1.48-.17,1.84-.11.35-.32.63-.62.82-.31.19-.66.29-1.05.29-.42,0-.77-.1-1.05-.31-.28-.21-.48-.51-.6-.92-.09-.31-.14-.81-.14-1.52v-2.61h3.64ZM1148.71,505.97v2.79c0,.77-.07,1.36-.2,1.76-.13.41-.37.73-.7.96-.33.23-.72.35-1.17.35-.38,0-.72-.08-1.01-.24-.29-.16-.51-.36-.67-.61-.16-.25-.27-.55-.33-.92-.04-.21-.06-.57-.06-1.09v-3h4.13ZM1144.84,515.99h-1.68v1.69h1.68v-1.69ZM1155.23,525.51v-.95c-.52-.26-1.05-.7-1.61-1.32s-1.02-1.34-1.41-2.17h-1.43c.17.46.42.98.76,1.56.34.58.68,1.05,1.02,1.4h-9.41v1.48h12.08ZM1144.84,530.22h-1.68v1.69h1.68v-1.69ZM1155.23,539.73v-.95c-.52-.26-1.05-.7-1.61-1.32-.55-.62-1.02-1.34-1.41-2.17h-1.43c.17.46.42.98.76,1.56.34.58.68,1.05,1.02,1.4h-9.41v1.48h12.08Z"/>
    <path d="M1154.44,550.1c.53-.61.79-1.39.79-2.33,0-1.28-.46-2.29-1.38-3.04-1.05-.86-2.74-1.29-5.07-1.29-2.08,0-3.57.39-4.48,1.17-.9.78-1.36,1.79-1.36,3.02,0,.73.17,1.37.52,1.94.35.57.84,1.02,1.49,1.35.65.33,1.35.49,2.1.49,1.15,0,2.08-.35,2.81-1.04.72-.69,1.09-1.53,1.09-2.52,0-.56-.13-1.1-.4-1.62-.26-.52-.66-.96-1.2-1.31,1.2.01,2.13.15,2.78.42.65.27,1.15.64,1.49,1.1.26.36.39.77.39,1.24,0,.59-.21,1.08-.63,1.48-.26.24-.68.43-1.26.56l.11,1.48c.94-.12,1.67-.49,2.2-1.09M1148.94,545.84c.48.47.72,1.03.72,1.7s-.24,1.23-.72,1.68-1.13.67-1.97.67-1.55-.22-2.05-.67-.76-.99-.76-1.61c0-.43.12-.84.36-1.23.24-.39.6-.69,1.06-.91.46-.21.95-.33,1.46-.33.77,0,1.41.23,1.88.7"/>
    <rect class="st6" x="1117.5" y="440.54" width="18.9" height="111.72"/>
    <path d="M1122.3,443.1c.27.17.53.38.8.62.27.25.77.83,1.51,1.71.9,1.06,1.61,1.83,2.12,2.28.52.46,1.01.79,1.47.98.47.2.94.3,1.42.3.95,0,1.74-.34,2.38-1.01.64-.68.96-1.59.96-2.75s-.3-2.06-.89-2.74c-.59-.68-1.45-1.07-2.59-1.18l-.15,1.52c.76,0,1.35.22,1.77.65.43.43.64,1,.64,1.71,0,.67-.2,1.22-.6,1.64-.4.42-.9.63-1.48.63s-1.15-.23-1.78-.69c-.62-.46-1.47-1.34-2.55-2.66-.69-.85-1.3-1.49-1.82-1.94-.52-.45-1.06-.77-1.6-.97-.33-.13-.67-.19-1.03-.18v7.98h1.42v-5.92ZM1122.56,451.52h-1.68v1.69h1.68v-1.69ZM1122.58,456.18c-.64.42-1.11,1-1.43,1.74-.32.74-.48,1.65-.48,2.74,0,.86.16,1.63.47,2.32.31.69.76,1.21,1.32,1.59.57.37,1.17.55,1.81.55s1.21-.17,1.71-.5c.49-.33.9-.85,1.23-1.56.22-.48.48-1.37.77-2.67.29-1.3.58-2.1.86-2.41.28-.31.63-.47,1.06-.47.5,0,.92.22,1.28.66.35.44.53,1.14.53,2.11s-.2,1.63-.58,2.1c-.39.47-.96.75-1.72.84l.12,1.53c.7-.03,1.34-.22,1.89-.59s.98-.89,1.27-1.58.43-1.47.43-2.37c0-.81-.14-1.55-.41-2.21-.27-.67-.67-1.17-1.2-1.51-.53-.35-1.09-.52-1.7-.52-.55,0-1.05.14-1.5.42-.44.29-.82.71-1.12,1.29-.23.45-.49,1.22-.75,2.33-.26,1.11-.46,1.82-.58,2.15-.19.5-.43.87-.71,1.09-.28.22-.61.33-.99.33s-.72-.12-1.03-.34c-.32-.23-.56-.58-.74-1.04-.18-.47-.27-1.01-.27-1.61,0-.69.12-1.31.36-1.85.24-.55.55-.96.93-1.22s.88-.43,1.48-.5l-.13-1.51c-.8.02-1.53.24-2.16.66M1120.88,473.2v1.55c.33-.19.68-.31,1.05-.37.36-.06,1.23-.1,2.6-.1h1.97c.66,0,1.11-.02,1.36-.07.41-.09.74-.24,1.01-.46.26-.22.48-.56.66-1.03.17-.47.26-1.07.26-1.82s-.1-1.41-.31-1.98c-.2-.57-.5-1.01-.88-1.31-.38-.3-.88-.52-1.5-.65l-.2,1.45c.62.16,1.05.4,1.29.74.24.33.36.85.36,1.54,0,.75-.17,1.31-.5,1.69-.25.28-.67.42-1.27.42-.06,0-.19,0-.39,0-.2-.56-.36-1.45-.51-2.64-.07-.59-.14-1.03-.22-1.32-.11-.39-.27-.75-.48-1.06-.21-.32-.49-.57-.85-.76-.35-.2-.74-.29-1.17-.29-.73,0-1.33.26-1.79.77-.47.52-.7,1.26-.7,2.22,0,.58.1,1.12.29,1.63.19.51.52,1.04.98,1.59-.41.05-.77.14-1.07.3M1124.71,472.78c-.65,0-1.14-.08-1.48-.24-.43-.21-.77-.54-1.02-.98-.25-.45-.37-.95-.37-1.52s.13-1.01.39-1.31c.26-.3.59-.45.98-.45.25,0,.49.07.7.21.21.14.37.33.48.59.11.25.2.68.29,1.29.15,1.07.34,1.88.56,2.42h-.54ZM1132.91,476.62h-12.02v1.48h12.02v-1.48ZM1129.59,480.9h-1.68v1.69h1.68v-1.69ZM1122.56,480.9h-1.68v1.69h1.68v-1.69ZM1132.16,496.2c.53-.61.79-1.38.79-2.33,0-1.27-.46-2.29-1.38-3.04-1.06-.86-2.74-1.29-5.07-1.29-2.08,0-3.57.39-4.48,1.17-.91.78-1.36,1.79-1.36,3.02,0,.73.17,1.37.51,1.94s.84,1.02,1.49,1.34c.65.33,1.35.49,2.1.49,1.15,0,2.08-.35,2.81-1.04.72-.69,1.08-1.54,1.08-2.52,0-.57-.13-1.11-.39-1.62-.26-.52-.66-.95-1.21-1.31,1.2,0,2.13.15,2.78.42.65.27,1.15.64,1.48,1.11.26.35.4.77.4,1.24,0,.59-.21,1.08-.63,1.48-.27.24-.69.43-1.27.56l.12,1.47c.94-.12,1.67-.49,2.2-1.09M1126.66,491.95c.48.46.72,1.03.72,1.7s-.24,1.23-.72,1.68c-.48.44-1.13.66-1.97.66s-1.55-.22-2.05-.67c-.5-.45-.76-.99-.76-1.61,0-.43.12-.84.36-1.23.24-.39.6-.69,1.06-.91.47-.22.95-.32,1.46-.32.78,0,1.4.23,1.88.7M1122.56,499.9h-1.68v1.69h1.68v-1.69ZM1120.88,508.97c0,.77.07,1.42.2,1.95.13.53.33.97.59,1.32.26.35.64.65,1.12.89.49.24,1.01.36,1.57.36.7,0,1.3-.19,1.82-.59.51-.39.88-.95,1.09-1.68.28.57.64.99,1.1,1.27s.94.42,1.45.42c.55,0,1.08-.16,1.59-.48.5-.32.88-.75,1.13-1.31.24-.56.36-1.3.36-2.22v-4.52h-12.02v4.6ZM1131.49,505.97v2.41c0,.87-.06,1.48-.17,1.84-.11.35-.32.63-.62.82-.31.19-.66.29-1.05.29-.42,0-.77-.1-1.05-.31-.28-.21-.48-.51-.6-.92-.09-.31-.14-.81-.14-1.52v-2.61h3.64ZM1126.43,505.97v2.79c0,.77-.07,1.36-.2,1.76-.13.41-.37.73-.7.96-.33.23-.72.35-1.17.35-.38,0-.72-.08-1.02-.24-.29-.16-.51-.36-.67-.61-.16-.25-.27-.55-.33-.92-.04-.21-.06-.57-.06-1.09v-3h4.13ZM1122.56,515.99h-1.68v1.69h1.68v-1.69ZM1122.3,521.8c.27.16.53.37.8.62.27.25.77.82,1.51,1.71.9,1.06,1.61,1.82,2.12,2.28.52.46,1.01.79,1.47.98.47.2.94.3,1.42.3.95,0,1.74-.34,2.38-1.01.64-.68.96-1.59.96-2.75s-.3-2.06-.89-2.74c-.59-.68-1.45-1.07-2.59-1.18l-.15,1.52c.76,0,1.35.22,1.77.65.43.43.64,1,.64,1.71,0,.67-.2,1.22-.6,1.64-.4.42-.9.63-1.48.63s-1.15-.23-1.78-.69c-.62-.46-1.47-1.35-2.55-2.66-.69-.85-1.3-1.49-1.82-1.94-.52-.45-1.06-.77-1.6-.97-.33-.13-.67-.19-1.03-.17v7.97h1.42v-5.92ZM1122.56,530.22h-1.68v1.69h1.68v-1.69ZM1132.96,539.73v-.95c-.52-.26-1.05-.7-1.61-1.32-.55-.62-1.02-1.34-1.41-2.17h-1.43c.17.46.42.98.76,1.56.34.58.68,1.05,1.02,1.4h-9.41v1.48h12.08Z"/>
    <path d="M1132.16,550.1c.53-.61.79-1.39.79-2.33,0-1.28-.46-2.29-1.38-3.04-1.05-.86-2.74-1.29-5.07-1.29-2.08,0-3.57.39-4.48,1.17-.9.78-1.36,1.79-1.36,3.02,0,.73.17,1.37.52,1.94.35.57.84,1.02,1.49,1.35.65.33,1.35.49,2.1.49,1.15,0,2.08-.35,2.81-1.04.72-.69,1.09-1.53,1.09-2.52,0-.56-.13-1.1-.4-1.62-.26-.52-.66-.96-1.2-1.31,1.2.01,2.13.15,2.78.42.65.27,1.15.64,1.48,1.1.27.36.4.77.4,1.24,0,.59-.21,1.08-.63,1.48-.26.24-.69.43-1.26.56l.11,1.48c.94-.12,1.67-.49,2.2-1.09M1126.66,545.84c.48.47.72,1.03.72,1.7s-.24,1.23-.72,1.68-1.13.67-1.97.67-1.55-.22-2.05-.67-.76-.99-.76-1.61c0-.43.12-.84.36-1.23.25-.39.6-.69,1.07-.91.46-.21.95-.33,1.46-.33.77,0,1.41.23,1.88.7"/>
    <rect class="st6" x="1096.24" y="440.54" width="18.9" height="111.72"/>
    <path d="M1100.35,442.44c-.63.7-.94,1.58-.94,2.64,0,1.18.36,2.15,1.1,2.92.73.77,1.62,1.15,2.67,1.15.78,0,1.42-.2,1.94-.59.51-.4.85-.95,1.02-1.66.25.55.59.96,1.02,1.24.43.28.9.42,1.42.42.55,0,1.06-.15,1.55-.44.49-.3.87-.72,1.15-1.27.28-.56.42-1.16.42-1.82,0-.95-.27-1.75-.82-2.4-.54-.64-1.31-1.05-2.3-1.23l-.26,1.48c.72.11,1.26.35,1.62.74.36.38.55.86.55,1.44s-.18,1.05-.53,1.42c-.36.37-.81.55-1.35.55-.68,0-1.19-.25-1.52-.76-.33-.5-.49-1.07-.49-1.7,0-.06,0-.14.02-.24l-1.3-.17c.11.42.16.76.16,1.04,0,.68-.22,1.25-.66,1.7-.44.44-1,.67-1.68.67s-1.31-.24-1.79-.72c-.48-.48-.72-1.07-.72-1.76,0-.59.18-1.08.55-1.49.37-.41.98-.7,1.81-.87l-.2-1.48c-1,.1-1.82.5-2.45,1.2M1101.3,451.52h-1.68v1.69h1.68v-1.69ZM1101.32,456.18c-.64.42-1.11,1-1.43,1.74-.32.74-.48,1.65-.48,2.74,0,.86.16,1.63.47,2.32.31.69.76,1.21,1.32,1.59.57.37,1.17.55,1.81.55s1.21-.17,1.71-.5c.49-.33.9-.85,1.23-1.56.22-.48.48-1.37.77-2.67.29-1.3.58-2.1.86-2.41.28-.31.63-.47,1.06-.47.5,0,.92.22,1.28.66.35.44.53,1.14.53,2.11s-.2,1.63-.58,2.1c-.39.47-.96.75-1.72.84l.12,1.53c.7-.03,1.34-.22,1.89-.59s.98-.89,1.27-1.58.43-1.47.43-2.37c0-.81-.14-1.55-.41-2.21-.27-.67-.67-1.17-1.2-1.51-.53-.35-1.09-.52-1.7-.52-.55,0-1.05.14-1.5.42-.44.29-.82.71-1.12,1.29-.23.45-.49,1.22-.75,2.33-.26,1.11-.46,1.82-.58,2.15-.19.5-.43.87-.71,1.09-.28.22-.61.33-.99.33s-.72-.12-1.03-.34c-.32-.23-.56-.58-.74-1.04-.18-.47-.27-1.01-.27-1.61,0-.69.12-1.31.36-1.85.24-.55.55-.96.93-1.22s.88-.43,1.48-.5l-.13-1.51c-.8.02-1.53.24-2.16.66M1099.62,473.2v1.55c.33-.19.68-.31,1.05-.37.36-.06,1.23-.1,2.6-.1h1.97c.66,0,1.11-.02,1.36-.07.41-.09.74-.24,1.01-.46.26-.22.48-.56.66-1.03.18-.47.26-1.07.26-1.82s-.1-1.41-.31-1.98c-.2-.57-.5-1.01-.88-1.31-.38-.3-.88-.52-1.5-.65l-.2,1.45c.62.16,1.05.4,1.29.74.24.33.36.85.36,1.54,0,.75-.17,1.31-.5,1.69-.25.28-.67.42-1.27.42-.05,0-.18,0-.38,0-.2-.56-.37-1.45-.51-2.64-.07-.59-.14-1.03-.22-1.32-.11-.39-.27-.75-.48-1.06-.21-.32-.49-.57-.85-.76-.35-.2-.74-.29-1.17-.29-.73,0-1.33.26-1.79.77-.47.52-.7,1.26-.7,2.22,0,.58.1,1.12.29,1.63.19.51.52,1.04.98,1.59-.41.05-.77.14-1.07.3M1103.45,472.78c-.65,0-1.14-.08-1.48-.24-.43-.21-.77-.54-1.02-.98-.25-.45-.37-.95-.37-1.52s.13-1.01.39-1.31c.26-.3.59-.45.98-.45.25,0,.49.07.7.21.21.14.37.33.48.59.11.25.21.68.3,1.29.15,1.07.34,1.88.56,2.42h-.54ZM1111.64,476.62h-12.02v1.48h12.02v-1.48ZM1108.33,480.9h-1.68v1.69h1.68v-1.69ZM1101.3,480.9h-1.68v1.69h1.68v-1.69ZM1110.9,496.2c.53-.61.79-1.38.79-2.33,0-1.27-.46-2.29-1.38-3.04-1.06-.86-2.74-1.29-5.07-1.29-2.08,0-3.57.39-4.48,1.17-.91.78-1.36,1.79-1.36,3.02,0,.73.17,1.37.51,1.94s.84,1.02,1.49,1.34c.65.33,1.35.49,2.1.49,1.15,0,2.08-.35,2.81-1.04.72-.69,1.08-1.54,1.08-2.52,0-.57-.13-1.11-.39-1.62-.26-.52-.66-.95-1.21-1.31,1.2,0,2.13.15,2.78.42.65.27,1.15.64,1.48,1.11.26.35.4.77.4,1.24,0,.59-.21,1.08-.63,1.48-.27.24-.69.43-1.27.56l.12,1.47c.94-.12,1.67-.49,2.2-1.09M1105.39,491.95c.48.46.72,1.03.72,1.7s-.24,1.23-.72,1.68c-.48.44-1.13.66-1.96.66s-1.55-.22-2.05-.67c-.5-.45-.76-.99-.76-1.61,0-.43.12-.84.36-1.23.24-.39.6-.69,1.06-.91.47-.22.95-.32,1.46-.32.78,0,1.4.23,1.88.7M1101.3,499.9h-1.68v1.69h1.68v-1.69ZM1099.62,508.97c0,.77.07,1.42.2,1.95.13.53.33.97.59,1.32.26.35.64.65,1.12.89.49.24,1.01.36,1.57.36.7,0,1.3-.19,1.82-.59.51-.39.88-.95,1.09-1.68.28.57.64.99,1.1,1.27s.94.42,1.45.42c.55,0,1.08-.16,1.59-.48.5-.32.88-.75,1.13-1.31.24-.56.36-1.3.36-2.22v-4.52h-12.02v4.6ZM1110.22,505.97v2.41c0,.87-.06,1.48-.17,1.84-.11.35-.32.63-.62.82-.31.19-.66.29-1.05.29-.42,0-.77-.1-1.05-.31-.28-.21-.48-.51-.6-.92-.09-.31-.14-.81-.14-1.52v-2.61h3.64ZM1105.17,505.97v2.79c0,.77-.07,1.36-.2,1.76-.13.41-.36.73-.7.96-.33.23-.72.35-1.17.35-.38,0-.72-.08-1.02-.24-.29-.16-.51-.36-.67-.61-.16-.25-.27-.55-.33-.92-.04-.21-.06-.57-.06-1.09v-3h4.13ZM1101.3,515.99h-1.68v1.69h1.68v-1.69ZM1100.35,521.13c-.63.7-.94,1.58-.94,2.64,0,1.18.36,2.15,1.1,2.92.73.77,1.62,1.15,2.67,1.15.78,0,1.42-.2,1.94-.59.51-.4.85-.95,1.02-1.67.25.55.59.96,1.02,1.24s.9.42,1.42.42c.55,0,1.06-.15,1.55-.44.49-.29.87-.72,1.15-1.27.28-.55.42-1.16.42-1.82,0-.96-.27-1.75-.82-2.4-.54-.64-1.31-1.05-2.3-1.23l-.26,1.48c.72.11,1.26.35,1.62.74.36.38.55.87.55,1.44s-.18,1.05-.53,1.42c-.36.37-.81.55-1.35.55-.68,0-1.19-.25-1.52-.76-.33-.5-.49-1.07-.49-1.7,0-.06,0-.14.02-.24l-1.3-.17c.11.42.16.76.16,1.05,0,.68-.22,1.25-.66,1.7-.44.44-1,.66-1.68.66s-1.31-.24-1.79-.72c-.48-.48-.72-1.07-.72-1.76,0-.59.18-1.09.55-1.49.37-.41.98-.7,1.81-.87l-.2-1.48c-1,.1-1.82.5-2.45,1.2M1101.3,530.22h-1.68v1.69h1.68v-1.69ZM1111.69,539.73v-.95c-.52-.26-1.05-.7-1.61-1.32-.55-.62-1.02-1.34-1.41-2.17h-1.43c.17.46.42.98.76,1.56.34.58.68,1.05,1.02,1.4h-9.41v1.48h12.08Z"/>
    <path d="M1110.9,550.1c.53-.61.79-1.39.79-2.33,0-1.28-.46-2.29-1.38-3.04-1.05-.86-2.74-1.29-5.07-1.29-2.08,0-3.57.39-4.48,1.17-.9.78-1.36,1.79-1.36,3.02,0,.73.17,1.37.52,1.94.35.57.84,1.02,1.49,1.35.65.33,1.35.49,2.1.49,1.15,0,2.08-.35,2.81-1.04.72-.69,1.09-1.53,1.09-2.52,0-.56-.13-1.1-.4-1.62-.26-.52-.66-.96-1.2-1.31,1.2.01,2.13.15,2.78.42.65.27,1.15.64,1.48,1.1.27.36.4.77.4,1.24,0,.59-.21,1.08-.63,1.48-.26.24-.69.43-1.26.56l.11,1.48c.94-.12,1.67-.49,2.2-1.09M1105.39,545.84c.48.47.72,1.03.72,1.7s-.24,1.23-.72,1.68-1.13.67-1.97.67-1.55-.22-2.05-.67-.76-.99-.76-1.61c0-.43.12-.84.36-1.23.25-.39.6-.69,1.07-.91.46-.21.95-.33,1.46-.33.77,0,1.41.23,1.88.7"/>
    <line class="st3" x1="570.37" y1="919.15" x2="450.89" y2="971.13"/>
    <line class="st3" x1="570.37" y1="971.13" x2="450.89" y2="919.15"/>
  </g>
  <polygon class="st6" points="452.41 749.72 452.41 750.13 524.07 750.13 524.07 888.1 524.97 888.55 524.97 749.72 452.41 749.72"/>
  <polygon class="st6" points="452.41 750.13 452.41 852.63 468.33 860.51 508.14 880.21 524.07 888.1 524.07 750.13 452.41 750.13"/>
  <g class="st7">
    <path class="st6" d="M452.4,909.37v-56.74l15.92,7.88v28.26c0,1.81,1.47,3.28,3.28,3.28h33.25c1.82,0,3.29-1.48,3.29-3.28v-8.56l15.93,7.88v21.27h-71.66Z"/>
    <path class="st6" d="M468.33,888.77v-28.26l39.81,19.7v8.56c0,1.81-1.47,3.29-3.29,3.29h-33.25c-1.81,0-3.28-1.48-3.28-3.29"/>
  </g>
  <polyline class="st1" points="524.07 888.1 524.07 909.37 452.4 909.37 452.4 852.63"/>
  <polyline class="st1" points="508.14 880.21 524.06 888.1 524.97 888.55 524.97 749.72 452.4 749.72 452.4 750.13 452.4 852.63 468.33 860.51"/>
  <line class="st1" x1="504.85" y1="892.06" x2="471.61" y2="892.06"/>
  <g class="st10">
    <path class="st1" d="M471.61,892.06c-1.81,0-3.28-1.48-3.28-3.29"/>
    <path class="st1" d="M508.14,888.77c0,1.81-1.47,3.29-3.29,3.29"/>
  </g>
  <polyline class="st1" points="508.14 888.77 508.14 880.22 468.33 860.52 468.33 888.77"/>
  <g class="st8">
    <path class="st6" d="M557.67,977.7c-.01,7.71-.01,15.41-.02,23.11,0,8.9-6.4,16.1-14.3,16.09-7.9,0-14.28-7.21-14.28-16.11,0-7.7.01-15.41.01-23.11,9.54,0,19.06,0,28.59.02"/>
  </g>
  <g class="st9">
    <path class="st3" d="M557.67,977.7c-.01,7.71-.01,15.41-.02,23.11,0,8.9-6.4,16.1-14.3,16.09-7.9,0-14.28-7.21-14.28-16.11,0-7.7.01-15.41.01-23.11,9.54,0,19.06,0,28.59.02Z"/>
  </g>
  <rect class="st6" x="459.04" y="977.54" width="62.49" height="63.21"/>
  <polyline class="st3" points="521.54 977.54 521.54 1040.75 515.36 1040.75"/>
  <line class="st17" x1="521.54" y1="977.54" x2="459.55" y2="977.54"/>
  <line class="st3" x1="459.04" y1="978.59" x2="459.04" y2="1040.2"/>
  <polyline class="st3" points="459.04 978.59 459.04 977.54 459.54 977.54"/>
  <polyline class="st3" points="459.98 1040.75 459.04 1040.75 459.04 1040.2"/>
  <line class="st3" x1="459.98" y1="1040.75" x2="515.36" y2="1040.75"/>
  <line class="st3" x1="491.24" y1="977.54" x2="491.24" y2="995.1"/>
  <g class="st15">
    <path class="st3" d="M495.09,995.02c0-2.17-1.76-3.93-3.93-3.93s-3.93,1.76-3.93,3.93,1.76,3.93,3.93,3.93,3.93-1.76,3.93-3.93Z"/>
    <path class="st3" d="M495.09,995.02c0-2.17-1.76-3.93-3.93-3.93s-3.93,1.76-3.93,3.93,1.76,3.93,3.93,3.93,3.93-1.76,3.93-3.93Z"/>
  </g>
  <g class="st12">
    <path class="st6" d="M484.62,1097.57h-15.49c-.59,0-1.07-.35-1.07-.78v-34.14c0-.43.48-.78,1.07-.78h15.49c.59,0,1.07.35,1.07.78v34.14c0,.43-.48.78-1.07.78M477.15,1082.53c1.55,0,2.8-1.25,2.8-2.8s-1.25-2.81-2.8-2.81-2.81,1.26-2.81,2.81,1.26,2.8,2.81,2.8"/>
    <path class="st6" d="M465.45,1079.73c0,1.16-.95,2.1-2.1,2.1s-2.11-.94-2.11-2.1.94-2.11,2.11-2.11,2.1.95,2.1,2.11"/>
    <path class="st6" d="M477.15,1081.23c-.83,0-1.51-.67-1.51-1.5s.68-1.51,1.51-1.51,1.51.67,1.51,1.51-.68,1.5-1.51,1.5"/>
    <path class="st6" d="M478.66,1079.73c0-.84-.68-1.51-1.51-1.51s-1.51.67-1.51,1.51.68,1.5,1.51,1.5,1.51-.67,1.51-1.5M477.15,1076.92c1.55,0,2.8,1.26,2.8,2.81s-1.25,2.8-2.8,2.8-2.81-1.25-2.81-2.8,1.26-2.81,2.81-2.81"/>
    <path class="st6" d="M486.75,1061.87v35.71c0,.34-.47.63-1.06.63h-26.45v-37.12h26.45c.59,0,1.06.35,1.06.78M485.69,1096.79v-34.14c0-.43-.48-.78-1.07-.78h-15.5c-.59,0-1.07.35-1.07.78v34.14c0,.43.48.79,1.07.79h15.5c.59,0,1.07-.36,1.07-.79M465.45,1079.73c0-1.17-.95-2.11-2.1-2.11s-2.11.95-2.11,2.11.94,2.1,2.11,2.1,2.1-.94,2.1-2.1"/>
  </g>
  <g class="st11">
    <path class="st3" d="M463.35,1077.62c1.15,0,2.1.95,2.1,2.11s-.95,2.1-2.1,2.1-2.11-.94-2.11-2.1.95-2.11,2.11-2.11Z"/>
    <path class="st3" d="M477.15,1076.92c1.55,0,2.8,1.26,2.8,2.81s-1.25,2.8-2.8,2.8-2.81-1.25-2.81-2.8,1.26-2.81,2.81-2.81Z"/>
    <path class="st3" d="M477.15,1078.22c.83,0,1.51.67,1.51,1.51s-.68,1.5-1.51,1.5-1.51-.67-1.51-1.5.68-1.51,1.51-1.51Z"/>
    <path class="st3" d="M469.13,1097.58h15.5c.59,0,1.07-.35,1.07-.78v-34.14c0-.43-.48-.78-1.07-.78h-15.5c-.59,0-1.07.35-1.07.78v34.14c0,.43.48.78,1.07.78Z"/>
  </g>
  <line class="st3" x1="467.42" y1="1061.09" x2="459.24" y2="1061.09"/>
  <g class="st14">
    <path class="st3" d="M459.24,1098.21h26.45c.59,0,1.06-.29,1.06-.63v-35.7c0-.43-.47-.79-1.06-.79h-8.38"/>
  </g>
  <line class="st3" x1="467.42" y1="1061.09" x2="477.3" y2="1061.09"/>
  <line class="st3" x1="459.24" y1="1061.09" x2="459.24" y2="1098.21"/>
  <polygon class="st6" points="713.65 823.97 717.36 830.04 722.76 834.77 723.44 835.11 723.1 835.78 722.09 836.79 720.74 837.13 719.05 836.46 717.36 835.44 717.03 835.44 716.69 835.44 716.35 835.44 715.68 835.44 715.34 835.78 722.76 839.49 730.86 840.84 738.97 839.49 746.39 835.78 746.39 835.44 746.05 835.44 745.38 835.44 745.04 835.44 744.7 835.44 744.37 835.44 742.68 836.46 740.99 837.13 739.64 836.79 738.63 835.78 738.63 835.11 738.97 834.77 744.37 830.04 748.08 823.97 713.65 823.97"/>
  <polygon class="st6" points="665.72 823.97 669.43 830.04 675.17 834.77 675.51 835.11 675.51 835.78 674.5 836.79 672.81 837.13 671.12 836.46 669.77 835.44 669.43 835.44 668.76 835.44 668.42 835.44 668.08 835.44 667.75 835.44 667.41 835.78 674.83 839.49 682.93 840.84 691.37 839.49 698.46 835.78 698.46 835.44 698.12 835.44 697.79 835.44 697.11 835.44 696.77 835.44 696.44 835.44 694.75 836.46 693.06 837.13 691.71 836.79 690.7 835.78 690.7 835.11 691.04 834.77 696.77 830.04 700.15 823.97 665.72 823.97"/>
  <polygon class="st6" points="748.08 760.17 713.65 760.17 700.15 760.17 665.72 760.17 659.31 760.17 659.31 823.97 665.72 823.97 700.15 823.97 713.65 823.97 748.08 823.97 754.83 823.97 754.83 760.17 748.08 760.17"/>
  <polygon class="st6" points="730.86 743.3 722.76 744.65 715.34 748.36 715.68 748.7 716.35 748.7 716.69 748.7 717.03 748.7 717.36 748.7 719.05 747.69 720.74 747.01 722.09 747.35 723.1 748.36 723.44 749.04 722.76 749.37 717.36 754.1 713.65 760.17 748.08 760.17 744.37 754.1 738.96 749.37 738.63 749.04 738.63 748.36 739.64 747.35 740.99 747.01 742.68 747.69 744.37 748.7 744.7 748.7 745.04 748.7 745.38 748.7 746.05 748.7 746.39 748.7 746.39 748.36 738.96 744.65 730.86 743.3"/>
  <polygon class="st6" points="682.93 743.3 674.83 744.65 667.41 748.36 667.75 748.7 668.08 748.7 668.42 748.7 668.76 748.7 669.43 748.7 669.77 748.7 671.12 747.69 672.81 747.01 674.5 747.35 675.51 748.36 675.51 749.04 675.17 749.37 669.43 754.1 665.72 760.17 700.15 760.17 696.77 754.1 691.04 749.37 690.7 749.04 690.7 748.36 691.71 747.35 693.06 747.01 694.75 747.69 696.44 748.7 696.77 748.7 697.11 748.7 697.79 748.7 698.12 748.7 698.46 748.7 698.46 748.36 691.37 744.65 682.93 743.3"/>
  <line class="st3" x1="744.37" y1="748.7" x2="744.7" y2="748.7"/>
  <line class="st3" x1="744.7" y1="748.7" x2="745.04" y2="748.7"/>
  <line class="st3" x1="746.05" y1="748.7" x2="745.38" y2="748.7"/>
  <line class="st3" x1="745.38" y1="748.7" x2="745.04" y2="748.7"/>
  <line class="st3" x1="746.39" y1="748.36" x2="746.39" y2="748.7"/>
  <line class="st3" x1="746.39" y1="748.7" x2="746.05" y2="748.7"/>
  <line class="st3" x1="738.63" y1="748.36" x2="739.64" y2="747.35"/>
  <line class="st3" x1="739.64" y1="747.35" x2="740.99" y2="747.01"/>
  <line class="st3" x1="740.99" y1="747.01" x2="742.68" y2="747.69"/>
  <line class="st3" x1="742.68" y1="747.69" x2="744.36" y2="748.7"/>
  <line class="st3" x1="738.96" y1="749.37" x2="738.63" y2="749.04"/>
  <line class="st3" x1="738.63" y1="749.04" x2="738.63" y2="748.36"/>
  <line class="st3" x1="738.96" y1="749.37" x2="744.36" y2="754.1"/>
  <line class="st3" x1="744.37" y1="754.1" x2="748.08" y2="760.17"/>
  <line class="st3" x1="717.36" y1="748.7" x2="717.02" y2="748.7"/>
  <line class="st3" x1="717.03" y1="748.7" x2="716.69" y2="748.7"/>
  <line class="st3" x1="715.68" y1="748.7" x2="716.35" y2="748.7"/>
  <line class="st3" x1="716.35" y1="748.7" x2="716.69" y2="748.7"/>
  <line class="st3" x1="715.34" y1="748.36" x2="715.67" y2="748.7"/>
  <line class="st3" x1="723.1" y1="748.36" x2="722.09" y2="747.35"/>
  <line class="st3" x1="722.09" y1="747.35" x2="720.74" y2="747.01"/>
  <line class="st3" x1="720.74" y1="747.01" x2="719.05" y2="747.69"/>
  <line class="st3" x1="719.05" y1="747.69" x2="717.36" y2="748.7"/>
  <line class="st3" x1="722.76" y1="749.37" x2="723.44" y2="749.04"/>
  <line class="st3" x1="723.44" y1="749.04" x2="723.1" y2="748.36"/>
  <line class="st3" x1="722.76" y1="749.37" x2="717.36" y2="754.1"/>
  <line class="st3" x1="717.36" y1="754.1" x2="713.65" y2="760.17"/>
  <line class="st3" x1="746.39" y1="748.36" x2="738.97" y2="744.65"/>
  <line class="st3" x1="738.96" y1="744.65" x2="730.86" y2="743.3"/>
  <line class="st3" x1="730.86" y1="743.3" x2="722.76" y2="744.65"/>
  <line class="st3" x1="722.76" y1="744.65" x2="715.34" y2="748.36"/>
  <line class="st3" x1="744.37" y1="835.44" x2="744.7" y2="835.44"/>
  <line class="st3" x1="744.7" y1="835.44" x2="745.04" y2="835.44"/>
  <line class="st3" x1="746.05" y1="835.44" x2="745.38" y2="835.44"/>
  <line class="st3" x1="745.38" y1="835.44" x2="745.04" y2="835.44"/>
  <line class="st3" x1="746.39" y1="835.78" x2="746.39" y2="835.44"/>
  <line class="st3" x1="746.39" y1="835.44" x2="746.05" y2="835.44"/>
  <line class="st3" x1="738.63" y1="835.78" x2="739.64" y2="836.79"/>
  <line class="st3" x1="739.64" y1="836.79" x2="740.99" y2="837.13"/>
  <line class="st3" x1="740.99" y1="837.13" x2="742.68" y2="836.46"/>
  <line class="st3" x1="742.68" y1="836.46" x2="744.36" y2="835.44"/>
  <line class="st3" x1="738.96" y1="834.77" x2="738.63" y2="835.11"/>
  <line class="st3" x1="738.63" y1="835.11" x2="738.63" y2="835.78"/>
  <line class="st3" x1="738.96" y1="834.77" x2="744.36" y2="830.04"/>
  <line class="st3" x1="744.37" y1="830.04" x2="748.08" y2="823.97"/>
  <line class="st3" x1="717.36" y1="835.44" x2="717.02" y2="835.44"/>
  <line class="st3" x1="717.03" y1="835.44" x2="716.69" y2="835.44"/>
  <line class="st3" x1="715.68" y1="835.44" x2="716.35" y2="835.44"/>
  <line class="st3" x1="716.35" y1="835.44" x2="716.69" y2="835.44"/>
  <line class="st3" x1="715.34" y1="835.78" x2="715.67" y2="835.44"/>
  <line class="st3" x1="723.1" y1="835.78" x2="722.09" y2="836.79"/>
  <line class="st3" x1="722.09" y1="836.79" x2="720.74" y2="837.13"/>
  <line class="st3" x1="720.74" y1="837.13" x2="719.05" y2="836.46"/>
  <line class="st3" x1="719.05" y1="836.46" x2="717.36" y2="835.44"/>
  <line class="st3" x1="722.76" y1="834.77" x2="723.44" y2="835.11"/>
  <line class="st3" x1="723.44" y1="835.11" x2="723.1" y2="835.78"/>
  <line class="st3" x1="722.76" y1="834.77" x2="717.36" y2="830.04"/>
  <line class="st3" x1="717.36" y1="830.04" x2="713.65" y2="823.97"/>
  <line class="st3" x1="746.39" y1="835.78" x2="738.97" y2="839.49"/>
  <line class="st3" x1="738.96" y1="839.49" x2="730.86" y2="840.84"/>
  <line class="st3" x1="730.86" y1="840.84" x2="722.76" y2="839.49"/>
  <line class="st3" x1="722.76" y1="839.49" x2="715.34" y2="835.78"/>
  <line class="st3" x1="754.83" y1="823.97" x2="754.83" y2="760.17"/>
  <line class="st3" x1="669.77" y1="748.7" x2="669.43" y2="748.7"/>
  <line class="st3" x1="669.43" y1="748.7" x2="668.76" y2="748.7"/>
  <line class="st3" x1="668.08" y1="748.7" x2="668.42" y2="748.7"/>
  <line class="st3" x1="668.42" y1="748.7" x2="668.76" y2="748.7"/>
  <line class="st3" x1="667.41" y1="748.36" x2="667.75" y2="748.7"/>
  <line class="st3" x1="667.75" y1="748.7" x2="668.08" y2="748.7"/>
  <line class="st3" x1="675.51" y1="748.36" x2="674.5" y2="747.35"/>
  <line class="st3" x1="674.5" y1="747.35" x2="672.81" y2="747.01"/>
  <line class="st3" x1="672.81" y1="747.01" x2="671.12" y2="747.69"/>
  <line class="st3" x1="671.12" y1="747.69" x2="669.77" y2="748.7"/>
  <line class="st3" x1="675.17" y1="749.37" x2="675.51" y2="749.04"/>
  <line class="st3" x1="675.51" y1="749.04" x2="675.51" y2="748.36"/>
  <line class="st3" x1="675.17" y1="749.37" x2="669.43" y2="754.1"/>
  <line class="st3" x1="669.43" y1="754.1" x2="665.72" y2="760.17"/>
  <line class="st3" x1="696.44" y1="748.7" x2="696.77" y2="748.7"/>
  <line class="st3" x1="696.77" y1="748.7" x2="697.11" y2="748.7"/>
  <line class="st3" x1="698.12" y1="748.7" x2="697.79" y2="748.7"/>
  <line class="st3" x1="697.79" y1="748.7" x2="697.11" y2="748.7"/>
  <line class="st3" x1="698.46" y1="748.36" x2="698.46" y2="748.7"/>
  <line class="st3" x1="698.46" y1="748.7" x2="698.12" y2="748.7"/>
  <line class="st3" x1="690.7" y1="748.36" x2="691.71" y2="747.35"/>
  <line class="st3" x1="691.71" y1="747.35" x2="693.06" y2="747.01"/>
  <line class="st3" x1="693.06" y1="747.01" x2="694.75" y2="747.69"/>
  <line class="st3" x1="694.75" y1="747.69" x2="696.44" y2="748.7"/>
  <line class="st3" x1="691.04" y1="749.37" x2="690.7" y2="749.04"/>
  <line class="st3" x1="690.7" y1="749.04" x2="690.7" y2="748.36"/>
  <line class="st3" x1="691.04" y1="749.37" x2="696.77" y2="754.1"/>
  <line class="st3" x1="696.77" y1="754.1" x2="700.15" y2="760.17"/>
  <line class="st3" x1="667.41" y1="748.36" x2="674.83" y2="744.65"/>
  <line class="st3" x1="674.83" y1="744.65" x2="682.93" y2="743.3"/>
  <line class="st3" x1="682.93" y1="743.3" x2="691.37" y2="744.65"/>
  <line class="st3" x1="691.37" y1="744.65" x2="698.46" y2="748.36"/>
  <line class="st3" x1="669.77" y1="835.44" x2="669.43" y2="835.44"/>
  <line class="st3" x1="669.43" y1="835.44" x2="668.76" y2="835.44"/>
  <line class="st3" x1="668.08" y1="835.44" x2="668.42" y2="835.44"/>
  <line class="st3" x1="668.42" y1="835.44" x2="668.76" y2="835.44"/>
  <line class="st3" x1="667.41" y1="835.78" x2="667.75" y2="835.44"/>
  <line class="st3" x1="667.75" y1="835.44" x2="668.08" y2="835.44"/>
  <line class="st3" x1="675.51" y1="835.78" x2="674.5" y2="836.79"/>
  <line class="st3" x1="674.5" y1="836.79" x2="672.81" y2="837.13"/>
  <line class="st3" x1="672.81" y1="837.13" x2="671.12" y2="836.46"/>
  <line class="st3" x1="671.12" y1="836.46" x2="669.77" y2="835.44"/>
  <line class="st3" x1="675.17" y1="834.77" x2="675.51" y2="835.11"/>
  <line class="st3" x1="675.51" y1="835.11" x2="675.51" y2="835.78"/>
  <line class="st3" x1="675.17" y1="834.77" x2="669.43" y2="830.04"/>
  <line class="st3" x1="669.43" y1="830.04" x2="665.72" y2="823.97"/>
  <line class="st3" x1="696.44" y1="835.44" x2="696.77" y2="835.44"/>
  <line class="st3" x1="696.77" y1="835.44" x2="697.11" y2="835.44"/>
  <line class="st3" x1="698.12" y1="835.44" x2="697.79" y2="835.44"/>
  <line class="st3" x1="697.79" y1="835.44" x2="697.11" y2="835.44"/>
  <line class="st3" x1="698.46" y1="835.78" x2="698.46" y2="835.44"/>
  <line class="st3" x1="698.46" y1="835.44" x2="698.12" y2="835.44"/>
  <line class="st3" x1="690.7" y1="835.78" x2="691.71" y2="836.79"/>
  <line class="st3" x1="691.71" y1="836.79" x2="693.06" y2="837.13"/>
  <line class="st3" x1="693.06" y1="837.13" x2="694.75" y2="836.46"/>
  <line class="st3" x1="694.75" y1="836.46" x2="696.44" y2="835.44"/>
  <line class="st3" x1="691.04" y1="834.77" x2="690.7" y2="835.11"/>
  <line class="st3" x1="690.7" y1="835.11" x2="690.7" y2="835.78"/>
  <line class="st3" x1="691.04" y1="834.77" x2="696.77" y2="830.04"/>
  <line class="st3" x1="696.77" y1="830.04" x2="700.15" y2="823.97"/>
  <line class="st3" x1="667.41" y1="835.78" x2="674.83" y2="839.49"/>
  <line class="st3" x1="674.83" y1="839.49" x2="682.93" y2="840.84"/>
  <line class="st3" x1="682.93" y1="840.84" x2="691.37" y2="839.49"/>
  <line class="st3" x1="691.37" y1="839.49" x2="698.46" y2="835.78"/>
  <line class="st3" x1="659.31" y1="823.97" x2="659.31" y2="760.17"/>
  <polyline class="st3" points="659.31 760.17 665.72 760.17 700.15 760.17 713.65 760.17 748.08 760.17 754.83 760.17"/>
  <polyline class="st3" points="754.83 823.97 748.08 823.97 713.65 823.97 700.15 823.97 665.72 823.97 659.31 823.97"/>
  <line class="st3" x1="748.64" y1="1016.22" x2="737.96" y2="1016.22"/>
  <rect class="st3" x="706.98" y="995.43" width="47.78" height="117.89"/>
  <line class="st3" x1="721.98" y1="1085.29" x2="721.98" y2="1074.85"/>
  <line class="st3" x1="741.59" y1="1085.29" x2="741.59" y2="1074.85"/>
  <line class="st3" x1="736.45" y1="1080.14" x2="746.88" y2="1080.14"/>
  <line class="st3" x1="716.7" y1="1080.14" x2="727.13" y2="1080.14"/>
  <rect class="st3" x="712.1" y="1068.32" width="39.36" height="22.95"/>
  <rect class="st3" x="717.84" y="1003.02" width="26.54" height="26.54"/>
  <rect class="st3" x="711.24" y="996.28" width="39.75" height="39.89"/>
  <g class="st13">
    <path class="st6" d="M550.36,904.4c-9.56,0-17.32-7.75-17.32-17.31s7.75-17.31,17.32-17.31,17.31,7.75,17.31,17.31-7.75,17.31-17.31,17.31"/>
    <path class="st1" d="M550.36,904.4c-9.56,0-17.32-7.75-17.32-17.31s7.75-17.31,17.32-17.31,17.31,7.75,17.31,17.31-7.75,17.31-17.31,17.31Z"/>
  </g>
  <rect class="st17" x="764.45" y="1052.7" width="29.03" height="75.38"/>
  <rect class="st17" x="702.18" y="1112.22" width="70.37" height="5.98"/>
  <rect class="st16" x="484.64" y="542.47" width="241.25" height="28.66"/>
</svg>