<?xml version="1.0" encoding="UTF-8"?>
<svg id="Layer_1" xmlns="http://www.w3.org/2000/svg" xmlns:xlink="http://www.w3.org/1999/xlink" version="1.1" viewBox="0 0 1200 1697.14">
  <!-- Generator: Adobe Illustrator 29.6.0, SVG Export Plug-In . SVG Version: 2.1.1 Build 207)  -->
  <defs>
    <style>
      .st0, .st1, .st2, .st3, .st4 {
        fill: none;
      }

      .st1 {
        stroke-width: .09px;
      }

      .st1, .st2 {
        stroke-miterlimit: 10;
      }

      .st1, .st2, .st3, .st4 {
        stroke: #000;
      }

      .st2, .st4 {
        stroke-width: .08px;
      }

      .st3 {
        stroke-width: .14px;
      }

      .st3, .st4 {
        stroke-linecap: round;
        stroke-linejoin: round;
      }

      .st5 {
        clip-path: url(#clippath-17);
      }

      .st6 {
        clip-path: url(#clippath-11);
      }

      .st7 {
        clip-path: url(#clippath-16);
      }

      .st8 {
        clip-path: url(#clippath-10);
      }

      .st9 {
        clip-path: url(#clippath-15);
      }

      .st10 {
        clip-path: url(#clippath-13);
      }

      .st11 {
        clip-path: url(#clippath-14);
      }

      .st12 {
        clip-path: url(#clippath-12);
      }

      .st13 {
        clip-path: url(#clippath-1);
      }

      .st14 {
        clip-path: url(#clippath-3);
      }

      .st15 {
        clip-path: url(#clippath-4);
      }

      .st16 {
        clip-path: url(#clippath-2);
      }

      .st17 {
        clip-path: url(#clippath-7);
      }

      .st18 {
        clip-path: url(#clippath-6);
      }

      .st19 {
        clip-path: url(#clippath-9);
      }

      .st20 {
        clip-path: url(#clippath-8);
      }

      .st21 {
        clip-path: url(#clippath-5);
      }

      .st22 {
        fill: #fff;
      }

      .st23 {
        fill: #ece9e5;
      }

      .st24 {
        fill: #302c35;
      }

      .st25 {
        clip-path: url(#clippath);
      }
    </style>
    <clipPath id="clippath">
      <rect class="st0" x="659.71" y="781.2" width="150.18" height="120.74"/>
    </clipPath>
    <clipPath id="clippath-1">
      <rect class="st0" x="177.65" y="441.48" width="770.69" height="814.19"/>
    </clipPath>
    <clipPath id="clippath-2">
      <rect class="st0" x="177.65" y="441.48" width="770.69" height="814.19"/>
    </clipPath>
    <clipPath id="clippath-3">
      <rect class="st0" x="437.21" y="853.67" width="115.56" height="115.56"/>
    </clipPath>
    <clipPath id="clippath-4">
      <rect class="st0" x="177.65" y="441.48" width="770.69" height="814.19"/>
    </clipPath>
    <clipPath id="clippath-5">
      <rect class="st0" x="177.65" y="441.48" width="770.69" height="814.19"/>
    </clipPath>
    <clipPath id="clippath-6">
      <rect class="st0" x="177.65" y="441.48" width="770.69" height="814.19"/>
    </clipPath>
    <clipPath id="clippath-7">
      <rect class="st0" x="177.65" y="441.48" width="770.69" height="814.19"/>
    </clipPath>
    <clipPath id="clippath-8">
      <rect class="st0" x="177.65" y="441.48" width="770.69" height="814.19"/>
    </clipPath>
    <clipPath id="clippath-9">
      <rect class="st0" x="177.65" y="441.48" width="770.69" height="814.19"/>
    </clipPath>
    <clipPath id="clippath-10">
      <rect class="st0" x="177.65" y="441.48" width="770.69" height="814.19"/>
    </clipPath>
    <clipPath id="clippath-11">
      <rect class="st0" x="707.68" y="972.22" width="28.59" height="39.22"/>
    </clipPath>
    <clipPath id="clippath-12">
      <rect class="st0" x="177.65" y="441.48" width="770.69" height="814.19"/>
    </clipPath>
    <clipPath id="clippath-13">
      <rect class="st0" x="177.65" y="441.48" width="770.69" height="814.19"/>
    </clipPath>
    <clipPath id="clippath-14">
      <rect class="st0" x="778.01" y="1054.96" width="27.51" height="37.12"/>
    </clipPath>
    <clipPath id="clippath-15">
      <rect class="st0" x="177.65" y="441.48" width="770.69" height="814.19"/>
    </clipPath>
    <clipPath id="clippath-16">
      <rect class="st0" x="177.65" y="441.48" width="770.69" height="814.19"/>
    </clipPath>
    <clipPath id="clippath-17">
      <rect class="st0" x="177.65" y="441.48" width="770.69" height="814.19"/>
    </clipPath>
  </defs>
  <rect class="st23" x="375.84" y="641.03" width="304.45" height="481.65"/>
  <rect class="st23" x="429.51" y="537.08" width="216.33" height="123.53"/>
  <rect class="st23" x="663.41" y="642.72" width="167.75" height="479.97"/>
  <rect class="st22" x="638.51" y="912.03" width="49.05" height="97.35"/>
  <rect class="st22" x="389.2" y="1011.3" width="51.78" height="97.96"/>
  <rect class="st22" x="766.02" y="684.86" width="50.34" height="50.34"/>
  <rect class="st22" x="676.9" y="638.66" width="87.32" height="18.23"/>
  <rect class="st22" x="438.79" y="645.42" width="185.81" height="11.47"/>
  <rect class="st24" x="614.47" y="671.4" width="65.82" height="16.2"/>
  <rect class="st24" x="521.33" y="1106.82" width="309.83" height="15.87"/>
  <rect class="st24" x="375.84" y="1106.82" width="74.26" height="15.87"/>
  <rect class="st24" x="429.51" y="537.07" width="4.05" height="103.96"/>
  <rect class="st24" x="641.8" y="537.07" width="4.05" height="103.96"/>
  <rect class="st24" x="429.51" y="537.07" width="216.33" height="4.05"/>
  <rect class="st24" x="375.84" y="687.61" width="17.21" height="419.21"/>
  <rect class="st24" x="762.65" y="651.49" width="68.52" height="36.12"/>
  <rect class="st24" x="762.65" y="642.72" width="68.52" height="8.78"/>
  <rect class="st24" x="694.13" y="905.99" width="119.49" height="7.76"/>
  <rect class="st24" x="686.03" y="913.75" width="8.1" height="51.98"/>
  <rect class="st24" x="686.03" y="1100.07" width="126.23" height="8.96"/>
  <rect class="st24" x="686.03" y="965.73" width="5.4" height="54.68"/>
  <rect class="st24" x="686.03" y="1091.29" width="6.75" height="18.23"/>
  <rect class="st24" x="691.43" y="965.73" width="120.84" height="5.07"/>
  <rect class="st24" x="624.6" y="766.92" width="7.76" height="139.06"/>
  <rect class="st24" x="624.6" y="670.9" width="7.76" height="25.48"/>
  <rect class="st24" x="691.43" y="970.79" width="115.44" height="1.35"/>
  <rect class="st24" x="691.43" y="972.14" width="1.35" height="48.27"/>
  <rect class="st24" x="691.43" y="1098.72" width="115.44" height="1.35"/>
  <rect class="st24" x="624.6" y="905.99" width="69.53" height="7.76"/>
  <rect class="st24" x="614.47" y="641.03" width="65.82" height="30.38"/>
  <rect class="st24" x="375.84" y="641.03" width="74.93" height="46.58"/>
  <g class="st25">
    <path class="st22" d="M809.65,781.2l.24,119.9-30.77.17v-.12s1.52-14.98,1.52-14.98l17.6-.16c2.41-.09,4.23-1.85,4.14-4.26l-.35-81.55c-.14-2.01-1.91-3.84-4.27-4.14l-8.01.18,1.51-14.94,18.39-.09Z"/>
    <path class="st22" d="M802.37,881.75c.09,2.41-1.73,4.17-4.14,4.26l-17.6.15,9.11-89.94,8.01-.17c2.35.3,4.13,2.13,4.27,4.14l.35,81.55Z"/>
    <polygon class="st22" points="779.12 901.15 779.12 901.27 660.35 901.94 659.71 781.99 791.26 781.29 789.75 796.23 780.63 886.17 779.12 901.15"/>
  </g>
  <line class="st4" x1="660.35" y1="901.94" x2="659.71" y2="781.99"/>
  <polyline class="st4" points="809.89 901.09 779.12 901.27 660.35 901.94"/>
  <polyline class="st4" points="659.71 781.99 791.26 781.29 809.65 781.2"/>
  <polyline class="st4" points="791.26 781.24 791.26 781.29 789.74 796.23 780.63 886.17 779.12 901.15"/>
  <g class="st13">
    <path class="st4" d="M802.03,800.2c-.14-2.01-1.91-3.84-4.27-4.14"/>
  </g>
  <g class="st16">
    <path class="st4" d="M798.23,886.01c2.41-.09,4.23-1.85,4.14-4.26"/>
  </g>
  <g class="st14">
    <path class="st22" d="M477.32,952.52c-5.15-2.12-9.92-5.28-14.02-9.39-4.1-4.1-7.27-8.86-9.39-14.02-2.17-5.29-3.24-11.01-3.09-16.88-.15-6.04,1.06-12,3.41-17.45,2.15-5,5.24-9.59,9.07-13.42,4.93-4.93,10.8-8.51,17.25-10.6,4.41-1.43,9.1-2.17,13.93-2.18,7.57,0,14.99,2.01,21.57,5.83,3.24,1.88,6.27,4.2,9.02,6.94,2.73,2.74,5.06,5.77,6.94,9.01,3.82,6.58,5.83,14.01,5.83,21.57,0,4.84-.74,9.53-2.17,13.94-2.09,6.45-5.66,12.31-10.6,17.25-3.83,3.83-8.43,6.92-13.43,9.07-5.46,2.34-11.42,3.56-17.46,3.4-5.87.15-11.57-.91-16.87-3.08"/>
    <path class="st22" d="M494.19,955.6c6.04.16,12-1.06,17.46-3.4l.06.14c-2.08,4.45-5.34,8.31-9.5,10.68-.3.3-.3.89,0,1.19.29.89,1.19,1.19,2.37,1.19.89-.3,2.08-.89,2.97-1.78q.59,0,.89.3c.3-.3.6,0,.89-.3l.59.6c-9.5,6.53-21.68,6.83-30.89,0-.3-.3,0-.6.3-.3.3-.3.6,0,.89-.3.3.3.59,0,.89.3.89.3,2.08.89,3.26,1.49.89.3,2.08-.29,2.37-1.19.3-.3.3-.89-.3-.89-4.39-2.64-7.63-6.43-9.14-10.8,5.3,2.17,11,3.23,16.87,3.08"/>
    <path class="st22" d="M443.41,904.23c2.38-4.16,5.94-7.72,10.69-9.5l.14.06c-2.34,5.46-3.55,11.42-3.4,17.45-.15,5.86.91,11.58,3.09,16.88-4.37-1.51-8.16-4.75-10.81-9.15,0-.59-.6-.59-.89-.3-.89.3-1.48,1.49-1.18,2.38.59,1.19,1.19,2.38,1.49,3.27.3.3,0,.6.3.89-.3.3,0,.6-.3.89.3.3-.3.3-.3.3-6.83-9.21-6.53-21.38,0-30.89l.6.59c-.3.3,0,.6-.3.89q.3.3.3.89c-.89.89-1.48,2.08-1.78,2.97,0,1.19.3,2.08,1.19,2.37.3.3.89.3,1.19,0"/>
    <path class="st22" d="M547.65,893.24c6.83,9.21,6.83,21.68,0,30.89,0,0-.3-.3-.59-.6v-.59q0-.59.3-.89c.59-1.19,1.19-2.38,1.48-3.27.3-.89-.3-2.08-1.19-2.37-.3-.3-.89-.3-1.19,0-2.08,4.45-5.94,7.72-10.69,9.51l-.09-.03c1.44-4.41,2.16-9.1,2.17-13.94,0-7.56-2.01-14.99-5.83-21.57l.18-.11c5.94,1.19,11.59,5.05,14.55,10.4,0,.59.59.59.89.3.9-.3,1.49-1.49,1.19-2.38-.6-1.19-.89-2.08-1.48-3.26q-.3-.3-.3-.89s0-.6.3-.89l.3-.3Z"/>
    <path class="st22" d="M482.32,858.79c9.2-6.83,21.68-6.83,30.89,0l-.3.3c-.3.29-.89.29-.89.29q-.6,0-.89-.29c-1.18-.6-2.08-.89-3.27-1.49-.89-.29-2.08.3-2.38,1.19-.29.3-.29.89.3.89,5.35,2.97,9.21,8.61,10.39,14.55l-.1.19c-6.58-3.83-14-5.83-21.57-5.83-4.84,0-9.52.74-13.93,2.18l-.03-.09c1.78-4.75,5.05-8.61,9.51-10.69.29-.3.29-.89,0-1.19-.3-.89-1.48-1.48-2.38-1.19-.89.3-2.08.89-3.26,1.49q-.3.29-.89.29s-.6,0-.89-.29l-.3-.3Z"/>
  </g>
  <g class="st15">
    <path class="st4" d="M442.82,898.89q0-.59-.3-.89"/>
    <path class="st4" d="M453.92,929.12c2.12,5.15,5.29,9.92,9.39,14.02,4.1,4.1,8.86,7.27,14.02,9.39,5.3,2.17,11,3.23,16.87,3.08,6.04.16,12-1.06,17.46-3.4,5-2.15,9.59-5.24,13.42-9.07,4.93-4.93,8.51-10.8,10.6-17.25,1.43-4.41,2.16-9.1,2.17-13.94,0-7.56-2.01-14.99-5.83-21.57-1.88-3.24-4.2-6.27-6.94-9.01-2.74-2.74-5.78-5.07-9.02-6.94-6.58-3.82-14-5.83-21.57-5.83-4.83,0-9.52.74-13.93,2.17-6.45,2.09-12.31,5.67-17.25,10.6-3.83,3.83-6.92,8.42-9.07,13.42-2.34,5.46-3.56,11.42-3.4,17.46-.15,5.86.91,11.57,3.09,16.87Z"/>
    <path class="st4" d="M479.04,964.22c9.21,6.83,21.38,6.54,30.89,0"/>
    <path class="st4" d="M477.26,952.34c.02.06.04.12.06.18,1.51,4.37,4.75,8.17,9.14,10.81"/>
    <path class="st4" d="M486.76,964.22c.3-.3.3-.89-.3-.89"/>
    <path class="st4" d="M481.12,963.92c.89.3,2.08.89,3.26,1.48"/>
    <path class="st4" d="M484.39,965.41c.89.3,2.08-.29,2.38-1.19"/>
    <path class="st4" d="M479.34,963.92c-.3-.3-.59,0-.3.3"/>
    <path class="st4" d="M480.23,963.62c-.3.3-.59,0-.89.3"/>
    <path class="st4" d="M481.12,963.92c-.3-.3-.59,0-.89-.3"/>
    <path class="st4" d="M502.21,963.03c-.3.3-.3.89,0,1.19"/>
    <path class="st4" d="M504.59,965.41c.89-.3,2.08-.89,2.97-1.78"/>
    <path class="st4" d="M502.21,964.22c.3.89,1.19,1.19,2.38,1.19"/>
  </g>
  <line class="st4" x1="509.93" y1="964.22" x2="509.34" y2="963.63"/>
  <g class="st21">
    <path class="st4" d="M509.33,963.62c-.3.3-.59,0-.89.3"/>
    <path class="st4" d="M508.44,963.92q-.3-.3-.89-.3"/>
    <path class="st4" d="M502.21,963.03c4.15-2.37,7.42-6.24,9.5-10.69"/>
    <path class="st4" d="M547.65,924.13c6.83-9.2,6.83-21.68,0-30.89"/>
    <path class="st4" d="M546.75,900.67c-2.96-5.35-8.61-9.2-14.55-10.4"/>
    <path class="st4" d="M546.75,900.67c0,.59.59.59.89.3"/>
    <path class="st4" d="M548.83,898.58c-.59-1.19-.89-2.08-1.48-3.26"/>
    <path class="st4" d="M547.64,900.96c.9-.3,1.49-1.49,1.19-2.38"/>
  </g>
  <line class="st4" x1="547.65" y1="893.24" x2="547.35" y2="893.54"/>
  <g class="st18">
    <path class="st4" d="M547.35,893.54c-.3.3-.3.89-.3.89"/>
    <path class="st4" d="M547.05,894.43q0,.59.3.89"/>
    <path class="st4" d="M547.65,916.41c-.3-.3-.89-.3-1.19,0"/>
    <path class="st4" d="M547.35,922.05c.59-1.19,1.19-2.37,1.48-3.26"/>
    <path class="st4" d="M548.83,918.78c.3-.89-.3-2.08-1.19-2.37"/>
    <path class="st4" d="M547.05,923.53c.3.3.59.6.59.6"/>
  </g>
  <line class="st4" x1="547.05" y1="922.94" x2="547.05" y2="923.53"/>
  <g class="st17">
    <path class="st4" d="M547.35,922.05q-.3.3-.3.89"/>
    <path class="st4" d="M535.77,925.91c4.75-1.78,8.62-5.05,10.69-9.51"/>
    <path class="st4" d="M442.22,896.51c-6.54,9.51-6.83,21.68,0,30.89"/>
    <path class="st4" d="M443.1,919.97c2.65,4.4,6.44,7.64,10.81,9.15.06.02.12.04.18.06"/>
    <path class="st4" d="M443.1,919.97c0-.6-.59-.6-.89-.3"/>
    <path class="st4" d="M441.03,922.05c.6,1.19,1.19,2.38,1.49,3.27"/>
    <path class="st4" d="M442.21,919.67c-.89.3-1.48,1.48-1.19,2.37"/>
    <path class="st4" d="M442.22,927.4s.59,0,.3-.3"/>
    <path class="st4" d="M442.52,927.1c.3-.3,0-.6.3-.89"/>
    <path class="st4" d="M442.82,926.21c-.3-.3,0-.59-.3-.89"/>
    <path class="st4" d="M442.22,904.23c.3.3.89.3,1.19,0"/>
    <path class="st4" d="M442.82,898.89c-.89.89-1.48,2.08-1.78,2.97"/>
    <path class="st4" d="M441.03,901.85c0,1.19.3,2.08,1.19,2.37"/>
  </g>
  <line class="st4" x1="442.82" y1="897.1" x2="442.22" y2="896.51"/>
  <g class="st20">
    <path class="st4" d="M442.52,898c.3-.3,0-.6.3-.89"/>
    <path class="st4" d="M454.09,894.73c-4.75,1.78-8.31,5.35-10.69,9.5"/>
    <path class="st4" d="M513.2,858.79c-9.21-6.83-21.68-6.83-30.89,0"/>
    <path class="st4" d="M516.16,874.24c-1.19-5.94-5.04-11.58-10.4-14.55"/>
    <path class="st4" d="M505.47,858.79c-.3.3-.3.89.3.89"/>
    <path class="st4" d="M511.12,859.09c-1.19-.59-2.08-.89-3.27-1.49"/>
    <path class="st4" d="M507.85,857.6c-.89-.3-2.08.3-2.38,1.19"/>
  </g>
  <line class="st4" x1="512.9" y1="859.09" x2="513.2" y2="858.79"/>
  <g class="st19">
    <path class="st4" d="M512.01,859.39s.59,0,.89-.3"/>
    <path class="st4" d="M511.12,859.09q.3.3.89.3"/>
    <path class="st4" d="M490.03,859.98c.3-.3.3-.89,0-1.19"/>
    <path class="st4" d="M487.66,857.61c-.89.3-2.08.89-3.26,1.48"/>
    <path class="st4" d="M490.03,858.79c-.3-.89-1.48-1.48-2.38-1.19"/>
  </g>
  <line class="st4" x1="482.32" y1="858.79" x2="482.61" y2="859.09"/>
  <g class="st8">
    <path class="st4" d="M482.61,859.09c.3.3.89.3.89.3"/>
    <path class="st4" d="M483.5,859.39q.59,0,.89-.3"/>
    <path class="st4" d="M490.03,859.98c-4.45,2.08-7.72,5.94-9.51,10.69"/>
  </g>
  <g class="st6">
    <path class="st22" d="M736.27,972.24c0,7.71,0,15.42,0,23.12,0,8.89-6.41,16.09-14.32,16.08-7.89,0-14.28-7.21-14.27-16.1,0-7.7,0-15.41,0-23.12,9.53,0,19.06.02,28.59.02"/>
  </g>
  <g class="st12">
    <path class="st4" d="M736.27,972.24c0,7.71,0,15.42,0,23.12,0,8.89-6.41,16.09-14.32,16.08-7.89,0-14.28-7.21-14.27-16.1,0-7.7,0-15.41,0-23.12,9.53,0,19.06.02,28.59.02Z"/>
  </g>
  <rect class="st22" x="743.02" y="972.25" width="62.49" height="63.21"/>
  <line class="st4" x1="805.51" y1="972.25" x2="743.52" y2="972.25"/>
  <line class="st4" x1="743.02" y1="973.3" x2="743.02" y2="1034.91"/>
  <polyline class="st4" points="743.02 973.3 743.02 972.25 743.52 972.25"/>
  <polyline class="st4" points="743.96 1035.47 743.02 1035.47 743.02 1034.91"/>
  <line class="st4" x1="743.96" y1="1035.47" x2="805.51" y2="1035.47"/>
  <line class="st4" x1="775.22" y1="972.25" x2="775.22" y2="989.81"/>
  <g class="st10">
    <path class="st4" d="M779.06,989.73c0-2.17-1.76-3.93-3.93-3.93s-3.93,1.76-3.93,3.93,1.76,3.93,3.93,3.93,3.93-1.76,3.93-3.93Z"/>
    <path class="st4" d="M779.06,989.73c0-2.17-1.76-3.93-3.93-3.93s-3.93,1.76-3.93,3.93,1.76,3.93,3.93,3.93,3.93-1.76,3.93-3.93Z"/>
  </g>
  <g class="st11">
    <path class="st22" d="M780.13,1055.58h15.49c.59,0,1.07.35,1.07.79v34.13c0,.43-.48.78-1.07.78h-15.49c-.6,0-1.06-.35-1.06-.78v-34.13c0-.44.46-.79,1.06-.79M787.6,1070.62c-1.55,0-2.8,1.26-2.8,2.81s1.25,2.8,2.8,2.8,2.81-1.25,2.81-2.8-1.26-2.81-2.81-2.81"/>
    <path class="st22" d="M799.3,1073.44c0-1.17.95-2.11,2.1-2.11s2.11.95,2.11,2.11-.94,2.1-2.11,2.1-2.1-.94-2.1-2.1"/>
    <path class="st22" d="M787.6,1071.93c.83,0,1.51.68,1.51,1.51s-.68,1.51-1.51,1.51-1.51-.68-1.51-1.51.68-1.51,1.51-1.51"/>
    <path class="st22" d="M789.11,1073.43c0-.83-.68-1.51-1.51-1.51s-1.51.68-1.51,1.51.68,1.51,1.51,1.51,1.51-.68,1.51-1.51M787.6,1070.62c1.55,0,2.81,1.26,2.81,2.81s-1.26,2.8-2.81,2.8-2.8-1.25-2.8-2.8,1.25-2.81,2.8-2.81"/>
    <path class="st22" d="M803.52,1073.44c0-1.17-.95-2.11-2.11-2.11s-2.1.95-2.1,2.11.95,2.1,2.1,2.1,2.11-.94,2.11-2.1M795.63,1055.58h-15.5c-.59,0-1.06.35-1.06.79v34.13c0,.43.47.79,1.06.79h15.5c.59,0,1.07-.35,1.07-.79v-34.13c0-.44-.48-.79-1.07-.79M779.07,1054.96h26.45v37.12h-26.45c-.59,0-1.06-.35-1.06-.79v-35.71c0-.35.47-.62,1.06-.62"/>
  </g>
  <g class="st9">
    <path class="st4" d="M801.41,1075.54c-1.16,0-2.1-.95-2.1-2.1s.95-2.11,2.1-2.11,2.11.94,2.11,2.11-.94,2.1-2.11,2.1Z"/>
    <path class="st4" d="M787.6,1076.23c-1.55,0-2.8-1.25-2.8-2.8s1.25-2.81,2.8-2.81,2.81,1.26,2.81,2.81-1.26,2.8-2.81,2.8Z"/>
    <path class="st4" d="M787.6,1074.94c-.83,0-1.51-.68-1.51-1.51s.68-1.51,1.51-1.51,1.51.68,1.51,1.51-.68,1.51-1.51,1.51Z"/>
    <path class="st4" d="M795.63,1055.58h-15.5c-.59,0-1.06.35-1.06.79v34.13c0,.43.47.78,1.06.78h15.5c.59,0,1.07-.35,1.07-.78v-34.13c0-.44-.48-.79-1.07-.79Z"/>
  </g>
  <g class="st7">
    <path class="st4" d="M805.52,1054.96h-26.45c-.59,0-1.06.28-1.06.62v35.71c0,.44.47.79,1.06.79h8.38"/>
  </g>
  <line class="st4" x1="679.57" y1="937.59" x2="668.89" y2="937.59"/>
  <rect class="st4" x="638.51" y="913.98" width="47.78" height="95.4"/>
  <line class="st4" x1="653.52" y1="998.21" x2="653.52" y2="987.78"/>
  <line class="st4" x1="673.13" y1="998.21" x2="673.13" y2="987.78"/>
  <line class="st4" x1="667.98" y1="993.06" x2="678.41" y2="993.06"/>
  <line class="st4" x1="648.23" y1="993.06" x2="658.66" y2="993.06"/>
  <rect class="st4" x="643.64" y="981.24" width="39.36" height="22.95"/>
  <rect class="st4" x="649.37" y="924.38" width="26.55" height="26.54"/>
  <rect class="st4" x="642.77" y="917.64" width="39.75" height="39.88"/>
  <path class="st4" d="M694.13,913.75h119.49M813.61,913.75v51.98M813.61,965.73h-119.49M694.13,965.73v-31.05M762.65,671.4v16.2M762.65,687.61h50.97M614.47,671.4v16.2M680.29,687.61v-16.2M393.05,687.61h57.72M450.77,687.61v-16.2M522.33,1122.68h308.84M449.08,1106.82h-56.03M375.84,1122.68h4.73M380.57,1122.68h69.53M641.73,541.12h-208.17M433.56,541.12v99.91M654.3,641.03h4.05M645.83,641.03v-103.96M645.85,537.07h-216.34M429.51,537.07v103.96M429.51,641.03h4.05M433.56,641.03v-99.91M433.56,541.12h208.17M641.73,541.12v99.91M831.17,1122.68v-479.97M393.05,1106.82v-419.21M375.84,687.61v419.21M813.61,913.75h-119.49M694.13,934.68v31.05M694.13,965.73h119.49M813.61,965.73v-51.98M452.46,1040.32l12.83,1.35M465.28,1041.67l12.49,3.71M477.77,1045.39l11.81,6.07M489.59,1051.46l9.79,8.44M499.38,1059.9l8.44,9.79M507.81,1069.69l6.07,11.81M513.89,1081.5l3.71,12.49M517.6,1093.99l1.35,12.83M450.1,1122.68v-15.87M521.31,1106.82v15.87M518.95,1106.82h-66.49M452.46,1040.32h3.04M452.46,1106.82v-66.49M449.08,1106.82h1.01M762.65,651.49v19.91M762.65,642.71v8.78M831.17,642.71h-68.52M683.67,645.41l2.7-1.69M688.39,642.71l2.03-1.35M692.44,640.01l2.36-1.01M696.83,637.65l2.03-1.01M700.88,635.29l2.02-1.01M704.93,632.93l2.02-1.01M709.32,630.56l2.02-1.01M713.37,628.2l2.02-1.35M717.42,625.84l2.02-1.35M721.47,623.48l2.36-1.35M725.86,621.11l2.02-1.35M729.91,618.75l2.02-1.35M733.96,616.39l2.02-1.35M738.34,613.69l2.02-1.01M742.4,611.32l2.02-1.01M746.45,608.96l2.7-1.35M759.27,645.41l-.34-2.02M758.93,641.03l-.34-2.36M758.26,636.3v-2.36M757.92,631.58l-.67-2.36M756.57,626.85l-.67-2.02M755.22,622.46l-.34-2.36M753.87,617.74l-1.01-2.02M751.85,613.35l-1.01-2.02M749.82,609.3l-.68-1.69M688.73,649.8h65.48M754.21,649.8v-4.05M754.21,645.75h-65.48M688.73,645.75v4.05M757.58,656.89h-72.23M757.58,656.89h-72.23M757.58,651.49v5.4M685.35,651.49v5.4M685.35,645.41h72.23M688.73,645.41h65.48M688.73,651.49h65.48M685.35,651.49h72.23M681.3,656.89h4.05M685.35,656.89v-5.4M685.35,651.49h3.38M688.73,651.49v-6.08M688.73,645.41h-7.43M681.3,645.41v11.48M757.58,656.89h4.05M761.63,656.89v-11.48M761.63,645.41h-7.43M754.21,645.41v6.08M754.21,651.49h3.37M757.58,651.49v5.4M681.3,645.41h80.33M761.63,645.41h-80.33M759.27,645.41h-75.61M683.33,645.41h76.28M683.67,645.41h75.61M685.35,645.41h72.23M757.58,645.41h-72.23M759.61,645.41h-76.28M754.21,645.41h-65.48M688.73,645.41h65.48M454.15,569.81l13.16,1.35M467.31,571.16l12.49,3.38M479.8,574.53l12.15,5.4M491.95,579.93l10.8,7.43M502.75,587.36l9.11,9.45M511.86,596.81l7.43,10.8M519.29,607.61l5.74,11.81M525.03,619.43l3.38,12.82M528.4,632.25l1.01,13.16M454.15,645.41v-75.61M459.21,649.8h65.48M524.69,649.8v-4.05M524.69,645.75h-65.48M459.21,645.75v4.05M528.06,656.89h-72.23M459.21,645.41h65.48M459.21,651.49h65.48M528.06,651.49v5.4M455.83,651.49v5.4M455.83,651.49h72.23M451.78,656.89h4.05M455.83,656.89v-5.4M455.83,651.49h3.38M459.21,651.49v-6.08M459.21,645.41h-7.43M451.78,645.41v11.48M528.06,656.89h4.05M532.12,656.89v-11.48M532.12,645.41h-7.43M524.69,645.41v6.08M524.69,651.49h3.38M528.06,651.49v5.4M609.41,645.75v4.05M537.18,645.75h72.23M537.18,649.8v-4.05M609.41,649.8h-72.23M537.18,656.89h72.23M609.41,645.41h-72.23M613.46,645.41v11.48M609.41,645.41h4.05M609.41,656.89v-11.48M613.46,656.89h-4.05M537.18,645.41v11.48M533.13,645.41h4.05M533.13,656.89v-11.48M537.18,656.89h-4.05M813.61,905.99h-7.76M805.85,905.99v7.76M805.85,913.75h7.76M757.92,905.99h-63.79M694.13,913.75h63.79M757.92,913.75v-7.76M757.92,905.99h47.93M805.85,913.75h-47.93M805.85,905.99v7.76M757.92,913.75v-7.76M686.03,913.75v51.98M694.13,965.73v-51.98"/>
  <path class="st4" d="M686.03,1100.07v6.75M686.03,1091.29v8.78M686.03,965.73v54.68M691.43,1022.43v66.15M812.26,965.73h-118.13"/>
  <path class="st22" d="M393.05,1058.89h1.35M396.77,1058.89h2.36M401.49,1058.89h2.36M406.22,1058.89h2.7M411.28,1058.89h2.36M416.01,1058.89h2.36M420.73,1058.89h2.36M425.46,1058.89h2.36M430.18,1058.89h2.36M434.91,1058.89h2.7M439.97,1058.89h1.01M440.98,1058.89v1.35M440.98,1062.6v2.36M440.98,1067.32v2.36M440.98,1072.05v2.36M440.98,1076.77v2.7M440.98,1081.84v2.37M440.98,1086.56v2.36M440.98,1091.29v2.36M440.98,1096.01v2.36M440.98,1100.74v2.36M440.98,1105.46v1.35M393.05,1106.81v-1.35M393.05,1103.1v-2.36M393.05,1098.38v-2.36M393.05,1093.65v-2.36M393.05,1088.93v-2.36M393.05,1084.2v-2.37M393.05,1079.47v-2.7M393.05,1074.41v-2.36M393.05,1069.69v-2.36M393.05,1064.96v-2.36M393.05,1060.24v-1.35M393.05,1058.89h1.35M396.77,1058.89h2.36M401.49,1058.89h2.36M406.22,1058.89h2.7M411.28,1058.89h2.36M416.01,1058.89h2.36M420.73,1058.89h2.36M425.46,1058.89h2.36M430.18,1058.89h2.36M434.91,1058.89h2.7M439.97,1058.89h1.01M440.98,1058.89v-1.01M440.98,1055.51v-2.36M440.98,1050.45v-2.36M440.98,1045.72v-2.36M440.98,1041v-2.36M440.98,1036.27v-2.36M440.98,1031.55v-2.36M440.98,1026.82v-2.36M440.98,1021.76v-2.36M440.98,1017.03v-2.36M440.98,1012.31v-1.01M440.98,1011.29h-1.01M437.61,1011.29h-2.7M432.54,1011.29h-2.36M427.82,1011.29h-2.36M423.09,1011.29h-2.36M418.37,1011.29h-2.36M413.64,1011.29h-2.36M408.92,1011.29h-2.7M403.85,1011.29h-2.36M399.13,1011.29h-2.36M394.4,1011.29h-1.35M393.05,1011.29v1.01M393.05,1014.67v2.36M393.05,1019.39v2.36M393.05,1024.46v2.36M393.05,1029.18v2.36M393.05,1033.91v2.36M393.05,1038.63v2.36M393.05,1043.36v2.36M393.05,1048.08v2.36M393.05,1053.15v2.36M393.05,1057.87v1.01M624.6,687.6v8.78M632.36,695.37v-7.76M624.6,766.92v139.06M632.36,905.99v-138.05M632.36,695.37v1.01M632.36,698.74h0M632.36,766.92v1.01M698.18,698.74l-1.01,13.16M697.17,711.91l-4.05,12.15M693.12,724.06l-6.07,11.47M687.04,735.53l-8.1,9.79M678.94,745.32l-9.79,8.44M669.15,753.76l-11.47,6.08M657.68,759.84l-12.49,3.71M645.19,763.55l-12.83,1.01M632.36,766.92h-7.76M624.6,696.38h7.76M632.36,702.12v-3.38M632.36,698.74h65.82M632.36,695.37v1.01M632.36,698.74h0M632.36,702.12v62.44M632.36,766.92v1.01"/>
  <path class="st4" d="M393.05,1058.89h1.35M396.77,1058.89h2.36M401.49,1058.89h2.36M406.22,1058.89h2.7M411.28,1058.89h2.36M416.01,1058.89h2.36M420.73,1058.89h2.36M425.46,1058.89h2.36M430.18,1058.89h2.36M434.91,1058.89h2.7M439.97,1058.89h1.01M440.98,1058.89v1.35M440.98,1062.6v2.36M440.98,1067.32v2.36M440.98,1072.05v2.36M440.98,1076.77v2.7M440.98,1081.84v2.37M440.98,1086.56v2.36M440.98,1091.29v2.36M440.98,1096.01v2.36M440.98,1100.74v2.36M440.98,1105.46v1.35M393.05,1106.81v-1.35M393.05,1103.1v-2.36M393.05,1098.38v-2.36M393.05,1093.65v-2.36M393.05,1088.93v-2.36M393.05,1084.2v-2.37M393.05,1079.47v-2.7M393.05,1074.41v-2.36M393.05,1069.69v-2.36M393.05,1064.96v-2.36M393.05,1060.24v-1.35M393.05,1058.89h1.35M396.77,1058.89h2.36M401.49,1058.89h2.36M406.22,1058.89h2.7M411.28,1058.89h2.36M416.01,1058.89h2.36M420.73,1058.89h2.36M425.46,1058.89h2.36M430.18,1058.89h2.36M434.91,1058.89h2.7M439.97,1058.89h1.01M440.98,1058.89v-1.01M440.98,1055.51v-2.36M440.98,1050.45v-2.36M440.98,1045.72v-2.36M440.98,1041v-2.36M440.98,1036.27v-2.36M440.98,1031.55v-2.36M440.98,1026.82v-2.36M440.98,1021.76v-2.36M440.98,1017.03v-2.36M440.98,1012.31v-1.01M440.98,1011.29h-1.01M437.61,1011.29h-2.7M432.54,1011.29h-2.36M427.82,1011.29h-2.36M423.09,1011.29h-2.36M418.37,1011.29h-2.36M413.64,1011.29h-2.36M408.92,1011.29h-2.7M403.85,1011.29h-2.36M399.13,1011.29h-2.36M394.4,1011.29h-1.35M393.05,1011.29v1.01M393.05,1014.67v2.36M393.05,1019.39v2.36M393.05,1024.46v2.36M393.05,1029.18v2.36M393.05,1033.91v2.36M393.05,1038.63v2.36M393.05,1043.36v2.36M393.05,1048.08v2.36M393.05,1053.15v2.36M393.05,1057.87v1.01M624.6,687.6v8.78M632.36,695.37v-7.76M624.6,766.92v139.06M632.36,905.99v-138.05M632.36,695.37v1.01M632.36,698.74h0M632.36,766.92v1.01M698.18,698.74l-1.01,13.16M697.17,711.91l-4.05,12.15M693.12,724.06l-6.07,11.47M687.04,735.53l-8.1,9.79M678.94,745.32l-9.79,8.44M669.15,753.76l-11.47,6.08M657.68,759.84l-12.49,3.71M645.19,763.55l-12.83,1.01M632.36,766.92h-7.76M624.6,696.38h7.76M632.36,702.12v-3.38M632.36,698.74h65.82M632.36,695.37v1.01M632.36,698.74h0M632.36,702.12v62.44M632.36,766.92v1.01"/>
  <polygon class="st22" points="397.1 768.27 397.1 820.25 398.45 822.95 401.15 824.3 413.3 824.3 413.3 768.27 397.1 768.27"/>
  <polygon class="st22" points="413.3 768.27 413.3 824.3 453.13 824.3 455.83 822.95 456.84 820.26 456.84 768.27 413.3 768.27"/>
  <polygon class="st22" points="401.15 712.58 398.45 713.59 397.1 716.63 397.1 768.27 413.3 768.27 413.3 712.58 401.15 712.58"/>
  <polygon class="st22" points="413.3 712.58 413.3 768.27 456.84 768.27 456.84 716.62 455.83 713.59 453.13 712.58 413.3 712.58"/>
  <polyline class="st4" points="413.3 712.58 413.3 768.27 413.3 824.3"/>
  <polyline class="st4" points="456.84 768.27 413.3 768.27 397.1 768.27"/>
  <line class="st4" x1="401.15" y1="824.3" x2="398.45" y2="822.95"/>
  <line class="st4" x1="398.45" y1="822.95" x2="397.1" y2="820.25"/>
  <line class="st4" x1="401.15" y1="712.58" x2="398.45" y2="713.59"/>
  <line class="st4" x1="398.45" y1="713.6" x2="397.1" y2="716.63"/>
  <line class="st4" x1="453.13" y1="824.3" x2="455.83" y2="822.95"/>
  <line class="st4" x1="455.83" y1="822.95" x2="456.85" y2="820.25"/>
  <line class="st4" x1="453.13" y1="712.58" x2="455.83" y2="713.59"/>
  <line class="st4" x1="455.83" y1="713.6" x2="456.85" y2="716.63"/>
  <polyline class="st4" points="453.13 712.58 413.3 712.58 401.15 712.58"/>
  <polyline class="st4" points="397.1 716.63 397.1 768.28 397.1 820.25"/>
  <polyline class="st4" points="401.15 824.3 413.3 824.3 453.13 824.3"/>
  <polyline class="st4" points="456.84 820.25 456.84 768.27 456.84 716.63"/>
  <path class="st4" d="M766.02,735.2h1.01M769.4,735.2h2.36M774.12,735.2h2.7M779.19,735.2h2.36M783.91,735.2h2.36M788.64,735.2h2.36M793.36,735.2h2.36M798.09,735.2h2.36M802.81,735.2h2.7M807.88,735.2h2.36M812.6,735.2h1.01M813.61,735.2v-1.01M813.61,731.82v-2.36M813.61,727.1v-2.36M813.61,722.03v-2.36M813.61,717.31v-2.36M813.61,712.58v-2.37M813.61,707.86v-2.36M813.61,703.13v-2.36M813.61,698.41v-2.36M813.61,693.34v-2.36M813.61,688.62v-1.01M766.02,687.61v1.01M766.02,690.98v2.36M766.02,696.04v2.36M766.02,700.77v2.36M766.02,705.49v2.36M766.02,710.22v2.37M766.02,714.95v2.36M766.02,719.67v2.36M766.02,724.73v2.36M766.02,729.46v2.36M766.02,734.18v1.01M686.03,961.68v47.93M638.44,913.75h47.59M686.03,913.75v95.86M757.25,1088.59l-1.35-12.83M755.9,1075.76l-3.71-12.15M752.18,1063.61l-6.07-11.47M746.11,1052.14l-8.1-10.13M738.01,1042.01l-10.13-8.1M727.88,1033.91l-11.47-6.08M716.41,1027.83l-12.15-3.71M704.25,1024.12l-12.83-1.35M692.78,1020.41h-6.75M686.03,1091.29h6.75M691.43,1088.59h65.82"/>
  <path class="st4" d="M691.43,1085.55v3.04M691.43,1088.59v-65.82"/>
  <path class="st4" d="M450.77,655.2v32.4M393.05,687.61v419.21M449.08,1106.82h1.01M686.03,905.99h127.58M813.61,905.99v-218.38M762.65,687.61v-32.06M762.65,655.54h-1.02M681.3,655.54h-1.01M680.29,655.54v32.06M680.29,687.61h-47.93M624.6,687.61h-10.13M614.47,687.61v-32.4M614.47,655.2h-1.01M533.13,655.2h-1.01M451.78,655.2h-1.01"/>
  <path class="st4" d="M831.17,1122.68h-309.85M450.1,1106.81h-1.01M692.78,972.14h112.73M692.78,1020.41v-48.26M692.78,1098.71v-7.43M805.51,1098.71h-112.73M805.51,972.14v126.57"/>
  <path class="st4" d="M805.51,973.15v2.36M375.84,913.75v-7.76M694.13,905.99h-61.77M624.6,905.99v7.76M624.6,913.75h61.43M450.77,671.4v-30.38M450.77,641.03h-23.96M680.29,671.4v-30.38M680.29,641.03h-65.82M614.47,641.03v30.38M680.29,641.03v8.78M680.29,649.8h1.01M761.63,649.8h1.01M762.65,649.8v21.6M762.65,649.8h-1.01M681.3,649.8h-1.01M680.29,655.54v-5.74M614.47,649.8v-8.78M614.47,649.8h-1.01M533.13,649.8h-1.01M451.78,649.8h-1.01M450.77,641.03v8.78M450.77,649.8h1.01M532.11,649.8h1.01M613.46,649.8h1.01M426.81,641.03h-50.97M375.84,1122.68v-481.65"/>
  <g class="st5">
    <path class="st3" d="M71.39,1117.95h6.07M95.02,1197.27l16.2-7.09M106.83,1172.63l4.38,17.55M134.51,1201.32l-27.68-28.69M134.51,1201.32l-39.49-4.05M134.51,1201.32l-23.29-11.14M71.39,878.65h6.07M71.39,1038.3h6.07M71.39,958.64h6.07M71.39,878.65v239.31M1197.72,418.93H14.01"/>
    <path d="M92.78,469.84c-.43.28-.75.67-.96,1.17-.21.5-.32,1.11-.32,1.85,0,.58.11,1.1.32,1.57s.5.82.88,1.07c.38.25.78.37,1.21.37s.81-.11,1.15-.34c.33-.22.6-.58.82-1.05.14-.33.32-.92.52-1.8.19-.88.38-1.42.57-1.62.19-.21.42-.32.72-.32.33,0,.62.15.85.45.23.3.35.77.35,1.42s-.13,1.1-.39,1.42c-.26.32-.64.51-1.15.56l.07,1.03c.47-.02.9-.15,1.27-.4.37-.25.65-.6.85-1.06.19-.46.29-.99.29-1.6,0-.55-.09-1.04-.28-1.49-.18-.45-.45-.79-.81-1.02-.35-.23-.74-.35-1.14-.35-.37,0-.7.09-1,.29-.3.19-.55.48-.75.87-.16.3-.32.82-.5,1.57-.18.75-.31,1.23-.4,1.45-.13.34-.28.59-.48.73-.19.15-.41.22-.66.22s-.48-.08-.69-.23c-.21-.16-.37-.39-.49-.7-.12-.32-.18-.68-.18-1.09,0-.46.08-.88.24-1.25.16-.37.37-.64.62-.82.26-.18.59-.29.99-.34l-.09-1.02c-.54.02-1.02.16-1.45.45M91.64,478.56h2.79l1.28,1.33-4.08,2.9v1.42l4.79-3.56,3.26,3.41v-1.46l-4-4.04h4v-1.08h-8.06v1.08Z"/>
    <path d="M97.3,488.08h-.92v5.37h.92v-5.37ZM94.86,488.08h-.92v5.37h.92v-5.37Z"/>
    <path d="M92.78,498.2c-.43.28-.75.67-.96,1.17-.21.5-.32,1.11-.32,1.85,0,.58.11,1.1.32,1.57.21.47.51.82.88,1.07.38.25.78.37,1.22.37s.81-.11,1.14-.34c.33-.23.61-.58.82-1.05.15-.33.32-.92.52-1.8.19-.88.39-1.42.57-1.62.19-.21.42-.32.72-.32.33,0,.62.15.86.45.24.3.36.77.36,1.43s-.13,1.1-.39,1.42c-.26.32-.64.51-1.15.56l.08,1.03c.47-.02.9-.15,1.27-.4.37-.25.66-.61.85-1.06.19-.46.29-.99.29-1.6,0-.55-.09-1.04-.28-1.49-.18-.45-.45-.79-.81-1.02-.35-.23-.73-.35-1.14-.35-.37,0-.71.1-1,.29-.3.19-.55.48-.75.87-.15.3-.32.82-.5,1.57-.18.75-.31,1.23-.39,1.45-.13.34-.29.59-.47.73-.19.15-.41.22-.66.22s-.48-.07-.69-.23c-.21-.16-.38-.39-.5-.7-.12-.32-.18-.68-.18-1.09,0-.46.08-.88.24-1.25.16-.37.37-.64.63-.82.26-.18.59-.29.99-.34l-.09-1.02c-.54.01-1.02.16-1.45.45"/>
    <path d="M91.64,506.42h2.31l.67.71-2.99,1.95v1.23l3.67-2.48,2.16,2.26v-1.3l-2.37-2.37h4.59v-1h-8.06v1ZM91.64,515.54v1.04c.22-.12.46-.21.7-.25.24-.05.83-.07,1.75-.07h1.32c.44,0,.74-.02.91-.05.27-.06.5-.16.67-.31.18-.15.33-.38.44-.69.12-.31.18-.72.18-1.23s-.07-.95-.21-1.33c-.14-.38-.33-.68-.59-.88-.26-.21-.59-.35-1-.44l-.13.98c.42.11.7.27.87.5.16.22.24.57.24,1.04,0,.5-.11.88-.33,1.14-.17.19-.45.28-.85.28-.03,0-.12,0-.26,0-.13-.38-.25-.98-.34-1.78-.05-.39-.09-.69-.15-.89-.07-.27-.18-.5-.33-.72-.14-.21-.33-.38-.57-.52-.24-.13-.5-.2-.78-.2-.49,0-.89.17-1.2.52-.32.35-.47.85-.47,1.49,0,.39.07.76.19,1.1.13.34.35.7.66,1.07-.28.03-.52.1-.72.2M94.21,515.26c-.44,0-.77-.05-.99-.16-.29-.14-.52-.36-.68-.66-.17-.3-.25-.64-.25-1.03s.09-.68.27-.88c.18-.2.4-.31.66-.31.18,0,.33.05.47.14.14.09.25.22.33.39.07.17.14.46.19.87.1.73.23,1.27.38,1.63h-.36Z"/>
    <path d="M91.64,518.57h2.32l.67.71-2.99,1.95v1.23l3.67-2.48,2.16,2.25v-1.29l-2.37-2.37h4.6v-1h-8.06v1ZM92.49,525.05c0-.15.02-.26.07-.34.05-.08.11-.14.19-.17.08-.04.26-.05.55-.05h3.41v1.01h.77v-1.01h2.04l-.59-.99h-1.45v-.73h-.77v.73h-3.36c-.6,0-.98.04-1.17.12-.19.08-.34.22-.45.42-.11.2-.17.48-.17.84,0,.22.03.47.09.76l.88-.14c-.02-.18-.04-.33-.04-.44"/>
    <path d="M78.48,470.9h3.66v3.82h.95v-3.82h2.49v4.41h.95v-5.49h-8.06v1.08ZM79.62,476.59c-.43.28-.75.67-.96,1.17-.21.5-.32,1.11-.32,1.85,0,.58.11,1.1.32,1.57.21.46.51.82.88,1.07.38.25.79.37,1.22.37s.81-.11,1.14-.34c.33-.23.61-.58.83-1.05.14-.33.32-.92.51-1.8.2-.88.39-1.42.57-1.62.19-.21.43-.32.72-.32.33,0,.62.15.85.45.24.3.36.77.36,1.43s-.13,1.1-.39,1.42c-.26.32-.64.51-1.15.56l.08,1.03c.47-.02.9-.15,1.27-.4.37-.25.66-.61.85-1.06s.29-.99.29-1.6c0-.55-.09-1.04-.28-1.49-.19-.45-.45-.79-.81-1.02-.35-.23-.73-.35-1.14-.35-.37,0-.7.1-1,.29-.3.19-.55.48-.75.87-.16.3-.33.82-.5,1.57-.18.75-.31,1.23-.4,1.45-.13.34-.28.59-.47.73-.19.15-.41.22-.66.22s-.48-.07-.69-.23c-.21-.16-.38-.39-.5-.7-.12-.32-.18-.68-.18-1.09,0-.46.08-.88.24-1.25.16-.37.37-.64.63-.82.26-.18.59-.29.99-.34l-.09-1.02c-.54.01-1.02.16-1.45.45"/>
    <path d="M84.14,487.07h-.92v5.37h.92v-5.37ZM81.69,487.07h-.92v5.37h.92v-5.37Z"/>
    <polygon points="78.48 498.23 82.14 498.23 82.14 502.05 83.09 502.05 83.09 498.23 85.58 498.23 85.58 502.64 86.53 502.64 86.53 497.15 78.48 497.15 78.48 498.23"/>
    <path d="M79.13,504.46c-.52.51-.79,1.18-.79,2,0,.51.12.99.36,1.43.24.44.57.76,1,.99.43.23,1.02.34,1.77.34.93,0,1.66-.26,2.18-.77.53-.52.79-1.18.79-1.99,0-.73-.22-1.34-.65-1.85-.52-.61-1.32-.91-2.4-.91-.99,0-1.74.25-2.26.76M83.07,505.21c.37.33.56.74.56,1.24s-.19.9-.56,1.24c-.37.33-.92.5-1.64.5-.77,0-1.34-.16-1.71-.49-.37-.33-.56-.75-.56-1.24s.19-.91.56-1.24c.37-.33.93-.49,1.68-.49s1.31.17,1.68.49M78.48,511.12h3.06c.42,0,.81.06,1.16.17.23.07.41.2.54.37.13.18.2.37.2.59,0,.24-.07.49-.21.73l.92.34c.21-.35.32-.69.32-1.03,0-.23-.07-.45-.2-.64-.13-.19-.41-.4-.82-.63h.89v-.9h-5.84v1Z"/>
    <path d="M79.44,517.27c-.19-.26-.28-.57-.28-.94,0-.49.17-.9.51-1.23.34-.33.83-.51,1.47-.55v4.39c.12,0,.2,0,.26,0,.96,0,1.71-.25,2.24-.75.53-.5.8-1.14.8-1.93s-.27-1.47-.81-1.99c-.54-.51-1.31-.77-2.29-.77s-1.69.25-2.21.76c-.53.51-.79,1.19-.79,2.05,0,.68.16,1.24.49,1.69.33.44.79.74,1.39.9l.13-1.03c-.42-.15-.72-.35-.91-.62M83.18,515.13c.3.31.46.7.46,1.16,0,.51-.19.92-.57,1.24-.25.21-.62.33-1.11.38v-3.29c.51.03.92.21,1.22.52M78.82,520.63c-.31.4-.47.99-.47,1.75,0,.46.08.88.24,1.24.16.37.39.65.68.84.29.19.6.29.93.29s.62-.08.84-.24c.23-.16.4-.38.52-.66.12-.28.27-.77.46-1.48.13-.49.22-.78.25-.88.07-.18.16-.3.27-.38.1-.08.22-.12.35-.12.2,0,.38.1.53.29.15.2.23.52.23.98,0,.39-.08.69-.25.9-.17.21-.41.34-.7.39l.13.97c.38-.06.68-.18.9-.34.22-.17.41-.42.54-.77s.2-.76.2-1.22c0-.31-.04-.6-.12-.87-.08-.27-.18-.48-.29-.63-.14-.21-.33-.37-.55-.49-.22-.12-.46-.18-.72-.18-.29,0-.55.07-.79.22-.23.15-.42.36-.55.64-.14.28-.29.79-.48,1.52-.14.54-.25.89-.33,1.02-.13.2-.3.29-.53.29-.25,0-.47-.11-.65-.33-.19-.22-.28-.56-.28-1.02s.1-.81.31-1.06c.21-.25.51-.41.9-.47l-.15-.99c-.62.11-1.09.37-1.4.77M86.54,526.02h-8.06v1h8.06v-1ZM78.48,532.7v1.04c.22-.13.46-.21.7-.26.25-.04.83-.06,1.75-.06h1.32c.44,0,.74-.02.91-.05.27-.06.5-.17.67-.31.18-.15.33-.38.45-.69.11-.31.17-.72.17-1.22s-.07-.95-.21-1.34c-.14-.38-.33-.68-.59-.88-.26-.21-.59-.35-1-.44l-.13.98c.42.11.7.27.87.5.16.22.24.57.24,1.04,0,.5-.11.88-.33,1.14-.17.19-.45.28-.85.28-.04,0-.12,0-.26,0-.13-.38-.25-.98-.34-1.78-.05-.39-.1-.69-.15-.89-.07-.27-.18-.5-.32-.72-.14-.21-.33-.38-.57-.52-.23-.13-.5-.2-.78-.2-.49,0-.89.17-1.2.52s-.47.85-.47,1.49c0,.39.06.76.19,1.1.13.34.35.7.66,1.07-.28.03-.52.1-.72.2M81.04,532.42c-.44,0-.77-.06-.99-.16-.29-.14-.52-.36-.69-.66-.17-.3-.25-.64-.25-1.03s.09-.68.27-.88c.17-.2.4-.3.66-.3.17,0,.33.04.47.14.14.09.25.22.32.39.07.17.14.46.2.87.1.72.22,1.27.37,1.63h-.36ZM85.1,530.32c-.2.2-.29.43-.29.71s.1.5.29.7c.2.2.43.3.71.3s.52-.1.71-.3c.2-.2.29-.43.29-.7s-.1-.5-.29-.7-.42-.3-.69-.3c-.29,0-.54.1-.73.29M86.24,530.63c.12.12.18.25.18.41s-.06.3-.18.42c-.12.11-.26.17-.43.17s-.3-.06-.42-.17c-.12-.12-.18-.25-.18-.41s.06-.3.18-.41.26-.18.43-.18c.16,0,.3.06.42.18M79.44,538.48c-.19-.26-.28-.57-.28-.94,0-.49.17-.9.51-1.23.34-.33.83-.51,1.47-.55v4.4c.12,0,.2,0,.26,0,.96,0,1.71-.25,2.24-.75.53-.5.8-1.14.8-1.93s-.27-1.47-.81-1.99c-.54-.51-1.31-.76-2.29-.76s-1.69.25-2.21.76c-.53.5-.79,1.19-.79,2.05,0,.68.16,1.25.49,1.69.33.44.79.74,1.39.9l.13-1.03c-.42-.15-.72-.36-.91-.62M83.18,536.34c.3.31.46.7.46,1.16,0,.5-.19.92-.57,1.24-.25.21-.62.33-1.11.38v-3.29c.51.04.92.21,1.22.52"/>
    <path d="M79.32,543.27c0-.15.03-.26.07-.34s.11-.14.19-.17.26-.05.55-.05h3.41v1.01h.77v-1.01h2.04l-.59-1h-1.44v-.73h-.77v.73h-3.36c-.6,0-.98.04-1.17.12-.19.08-.33.22-.45.42-.12.2-.17.48-.17.84,0,.22.03.47.09.75l.88-.14c-.03-.18-.04-.33-.04-.44M78.82,547.96c-.32.4-.47.99-.47,1.75,0,.46.08.88.24,1.24.16.36.38.64.68.84.29.2.6.29.93.29s.62-.08.84-.24c.23-.16.4-.38.52-.66.12-.28.27-.77.46-1.48.13-.49.22-.78.25-.88.07-.17.15-.3.27-.38.1-.08.21-.12.35-.12.2,0,.38.1.53.3s.22.52.22.98c0,.39-.08.69-.25.9-.17.21-.4.34-.7.38l.13.98c.37-.07.68-.18.9-.35.23-.17.41-.43.54-.77.13-.35.2-.76.2-1.22,0-.31-.04-.6-.12-.86-.08-.27-.18-.48-.29-.63-.15-.21-.33-.37-.55-.49-.22-.12-.46-.18-.72-.18-.28,0-.55.07-.78.22-.23.15-.42.36-.56.65-.13.28-.29.79-.48,1.52-.14.54-.25.88-.34,1.02-.13.2-.3.29-.53.29-.25,0-.47-.11-.65-.33-.18-.22-.28-.56-.28-1.02s.1-.81.31-1.06c.21-.25.51-.41.9-.46l-.15-.99c-.62.11-1.09.36-1.4.77"/>
    <path d="M78.48,554.69h2.31l.67.7-2.99,1.95v1.23l3.67-2.48,2.16,2.25v-1.29l-2.37-2.36h4.6v-1h-8.06v1ZM78.48,563.47v1.04c.22-.12.46-.21.7-.25.24-.05.83-.07,1.75-.07h1.32c.44,0,.74-.02.91-.05.27-.06.5-.16.67-.31.18-.15.33-.38.44-.69.12-.31.17-.72.17-1.23s-.07-.95-.2-1.33c-.14-.38-.34-.68-.59-.88-.25-.21-.59-.35-1-.44l-.13.98c.41.11.7.27.87.5.16.22.24.57.24,1.04,0,.5-.11.88-.33,1.14-.17.19-.45.28-.85.28-.04,0-.13,0-.26,0-.14-.38-.25-.98-.35-1.78-.04-.39-.09-.69-.15-.89-.07-.27-.18-.5-.33-.72-.14-.21-.33-.38-.57-.52-.23-.13-.49-.2-.78-.2-.49,0-.89.17-1.2.52-.31.35-.47.85-.47,1.49,0,.39.07.76.2,1.1.13.34.35.7.66,1.07-.28.03-.52.1-.72.2M81.04,563.18c-.44,0-.77-.05-.99-.16-.29-.14-.52-.36-.69-.66-.17-.3-.25-.64-.25-1.03s.09-.68.27-.88c.18-.2.4-.31.66-.31.17,0,.33.05.47.14.14.09.25.22.32.39.07.17.14.46.19.87.11.73.23,1.27.38,1.63h-.36Z"/>
    <path d="M79.21,566.42c-.57.39-.86.94-.86,1.64s.27,1.3.82,1.8c.55.5,1.32.75,2.32.75.42,0,.82-.06,1.19-.18.37-.12.69-.28.95-.49.26-.21.47-.48.61-.8.14-.32.22-.67.22-1.03,0-.65-.26-1.19-.79-1.61h2.88v-1h-8.06v.93h.73ZM83.07,566.88c.37.32.56.7.56,1.13s-.18.8-.54,1.11c-.36.31-.93.46-1.69.46s-1.3-.16-1.68-.48c-.37-.32-.56-.7-.56-1.13,0-.53.25-.96.76-1.28.31-.19.82-.29,1.52-.29s1.25.16,1.63.48"/>
    <path d="M79.51,877.22c-.56.45-.83,1.06-.83,1.85,0,.6.16,1.09.48,1.48.31.39.76.68,1.34.88.58.2,1.34.29,2.29.29.8,0,1.44-.06,1.9-.18.47-.12.87-.29,1.2-.5.33-.21.58-.49.76-.81.18-.33.26-.71.26-1.15,0-.59-.15-1.08-.47-1.47-.31-.39-.76-.69-1.34-.88-.58-.2-1.35-.29-2.3-.29-1.51,0-2.6.27-3.27.8M85.51,877.96c.38.28.58.64.58,1.1s-.22.85-.66,1.17-1.32.47-2.64.47-2.2-.16-2.64-.47c-.44-.31-.66-.7-.66-1.16s.22-.84.65-1.16c.44-.31,1.32-.47,2.64-.47s2.23.17,2.72.52M79.77,1030.92c.18.11.36.25.54.42.18.17.52.55,1.01,1.15.6.72,1.08,1.23,1.42,1.54.35.31.67.53.98.66.31.13.63.2.95.2.63,0,1.17-.23,1.6-.68.43-.46.64-1.07.64-1.86s-.2-1.39-.6-1.85-.97-.72-1.74-.79l-.1,1.03c.5,0,.9.15,1.19.44.29.29.43.68.43,1.15,0,.46-.14.83-.41,1.11-.27.28-.6.42-.99.42s-.77-.16-1.19-.47c-.42-.31-.99-.91-1.71-1.8-.46-.57-.87-1-1.22-1.31-.35-.3-.71-.52-1.07-.66-.22-.08-.45-.12-.69-.11v5.38h.95v-3.99Z"/>
    <path d="M78.81,1037.01h3.03c.53,0,.94.05,1.22.16.28.11.5.28.64.52.15.24.22.5.22.78,0,.37-.11.64-.33.8-.22.16-.55.25-.99.25h-3.79v1h3.39c.6,0,1.04.14,1.31.41.27.28.41.62.41,1.04,0,.23-.06.43-.16.6-.11.17-.25.29-.42.35-.18.07-.46.1-.86.1h-3.68v.99h4.01c.67,0,1.16-.16,1.48-.47.32-.32.48-.76.48-1.35,0-.74-.34-1.35-1.02-1.82.32-.11.57-.31.75-.59.18-.28.27-.64.27-1.08,0-.39-.08-.74-.26-1.05-.17-.31-.41-.55-.69-.74h.82v-.89h-5.84v1Z"/>
    <path d="M86.9,956.12v-.64c-.35-.17-.71-.47-1.08-.89-.37-.42-.68-.9-.94-1.46h-.96c.11.31.28.66.51,1.05.23.39.46.71.68.95h-6.31v1h8.09ZM78.81,960.05h3.03c.53,0,.94.05,1.22.16.28.11.5.28.64.52.15.24.22.5.22.78,0,.37-.11.63-.33.8-.22.16-.55.25-.99.25h-3.79v1h3.39c.6,0,1.04.14,1.31.41.27.28.41.62.41,1.03,0,.23-.06.43-.16.6-.11.17-.25.28-.42.35-.18.07-.46.1-.86.1h-3.68v.99h4.01c.67,0,1.16-.16,1.48-.47.32-.32.48-.76.48-1.35,0-.75-.34-1.36-1.02-1.82.32-.12.57-.31.75-.59.18-.28.27-.64.27-1.07,0-.39-.08-.74-.26-1.05-.17-.31-.41-.55-.69-.74h.82v-.89h-5.84v1Z"/>
    <path d="M78.81,781.3h6.86l-6.86,2.35v.97l6.74,2.36h-6.74v1.04h8.06v-1.45l-5.61-1.94c-.57-.2-1-.34-1.29-.44.26-.08.66-.21,1.19-.39l5.71-1.92v-1.62h-8.06v1.04ZM78.81,793.32v1.04c.22-.13.46-.21.7-.25.24-.04.83-.06,1.74-.06h1.32c.44,0,.75-.02.92-.05.27-.06.49-.16.67-.31.18-.15.32-.38.44-.69.12-.31.17-.72.17-1.23s-.07-.95-.21-1.34c-.14-.39-.33-.68-.59-.88-.25-.21-.59-.35-1-.44l-.13.98c.42.11.71.27.87.49.16.22.25.57.25,1.04,0,.5-.11.88-.34,1.14-.16.19-.45.28-.85.28-.04,0-.12,0-.26,0-.13-.38-.25-.97-.34-1.78-.05-.4-.1-.69-.15-.89-.07-.26-.18-.5-.33-.72-.14-.21-.33-.38-.57-.51-.24-.13-.5-.2-.79-.2-.49,0-.89.17-1.2.52-.31.35-.47.85-.47,1.49,0,.39.07.76.19,1.1.13.34.35.7.66,1.07-.28.03-.52.1-.72.2M81.38,793.04c-.44,0-.76-.06-.99-.16-.29-.14-.52-.36-.68-.66-.17-.3-.25-.64-.25-1.03s.09-.68.26-.88c.17-.2.39-.3.66-.3.17,0,.33.05.47.14.14.09.25.22.32.39.07.17.14.46.2.87.1.72.22,1.27.37,1.63h-.36ZM85.44,790.95c-.2.2-.29.43-.29.71s.1.5.29.7c.19.2.43.29.71.29s.52-.1.71-.29.29-.43.29-.7-.1-.5-.29-.7c-.2-.2-.43-.3-.69-.3-.29,0-.54.1-.73.29M86.58,791.25c.12.12.17.26.17.41s-.06.3-.18.42c-.12.11-.26.17-.42.17s-.31-.06-.42-.18c-.12-.12-.18-.25-.18-.42s.06-.29.18-.41c.12-.12.26-.18.43-.18.16,0,.3.06.42.18"/>
    <rect x="78.82" y="795.67" width="8.06" height="1"/>
    <path d="M86.9,804.91v-.64c-.35-.18-.71-.47-1.08-.89-.37-.42-.69-.91-.95-1.46h-.96c.12.31.28.66.51,1.05.23.39.46.71.69.95h-6.31v1h8.09ZM84.65,808.12h-1.13v1.14h1.13v-1.14ZM79.94,808.12h-1.13v1.14h1.13v-1.14Z"/>
    <path d="M79.29,811.4c-.41.47-.62,1.07-.62,1.81,0,.9.33,1.61.98,2.14.53.43,1.16.64,1.89.64s1.39-.24,1.88-.73c.49-.49.73-1.09.73-1.8,0-.54-.17-1.05-.5-1.54l2.16.44v3.25h.95v-4.05l-4.14-.79-.12.94c.23.15.42.35.56.61.14.26.21.55.21.87,0,.52-.16.94-.49,1.26-.32.32-.77.48-1.33.48s-1.07-.17-1.43-.5c-.36-.33-.54-.74-.54-1.22,0-.4.13-.74.38-1.03.26-.28.63-.46,1.14-.54l-.09-1.05c-.68.07-1.22.34-1.63.8M79.51,817.82c-.56.45-.83,1.06-.83,1.85,0,.6.16,1.09.48,1.48.31.39.76.68,1.35.88.58.2,1.34.3,2.29.3.8,0,1.44-.06,1.91-.18.47-.12.87-.29,1.2-.51.33-.21.58-.49.76-.82.18-.33.26-.71.26-1.15,0-.59-.15-1.08-.47-1.47-.31-.39-.76-.68-1.34-.88-.58-.2-1.35-.3-2.3-.3-1.51,0-2.6.27-3.27.81M85.51,818.55c.39.27.58.64.58,1.1s-.22.86-.66,1.17c-.43.31-1.32.47-2.64.47s-2.2-.15-2.64-.47c-.44-.31-.66-.7-.66-1.16s.22-.84.66-1.16,1.32-.47,2.64-.47,2.23.17,2.72.51"/>
    <polygon class="st22" points="78.81 1168.25 101.43 1179.38 94.68 1193.9 71.73 1182.76 78.81 1168.25"/>
    <polygon points="81.57 1173.99 92.91 1179.48 77.88 1181.6 76.93 1183.57 91.37 1190.56 92.26 1188.72 80.92 1183.23 95.94 1181.11 96.9 1179.14 82.46 1172.15 81.57 1173.99"/>
    <path d="M79.3,1110.12c-.42.47-.63,1.06-.63,1.78,0,.79.25,1.45.73,1.97.49.52,1.09.77,1.79.77.52,0,.95-.13,1.3-.4.35-.27.57-.64.69-1.12.17.37.4.65.68.84.29.19.6.28.95.28.36,0,.71-.1,1.04-.3.33-.2.59-.49.77-.86.19-.38.28-.78.28-1.22,0-.65-.18-1.18-.54-1.62-.37-.43-.88-.71-1.54-.83l-.18,1c.48.07.85.24,1.09.5.24.26.36.58.36.97s-.12.71-.36.96-.54.38-.9.38c-.46,0-.79-.17-1.01-.51-.22-.34-.33-.72-.33-1.15,0-.04,0-.09,0-.16l-.87-.11c.07.28.11.52.11.7,0,.46-.15.84-.44,1.15-.3.3-.67.45-1.13.45s-.87-.16-1.2-.48c-.32-.33-.49-.72-.49-1.19,0-.39.13-.73.37-1.01.25-.28.65-.47,1.21-.59l-.13-1c-.67.06-1.22.33-1.64.8M78.81,1116.66h3.03c.53,0,.94.05,1.22.16.28.1.5.28.64.52.15.24.22.5.22.78,0,.37-.11.63-.33.8-.22.17-.55.24-.99.24h-3.79v1h3.39c.6,0,1.04.14,1.31.41.27.28.41.62.41,1.03,0,.23-.06.43-.16.6-.11.17-.25.28-.42.35-.18.07-.46.1-.86.1h-3.68v.99h4.01c.67,0,1.16-.16,1.48-.47.32-.31.48-.76.48-1.35,0-.75-.34-1.35-1.02-1.82.32-.11.57-.31.75-.59.18-.28.27-.64.27-1.08,0-.39-.08-.74-.26-1.05-.17-.31-.41-.55-.69-.74h.82v-.89h-5.84v1Z"/>
    <rect class="st22" x="1142.37" y="440.54" width="18.9" height="111.72"/>
    <path d="M1157.82,446.81v-.95c-.52-.26-1.05-.7-1.61-1.32-.55-.62-1.02-1.34-1.41-2.17h-1.43c.17.46.42.98.76,1.56.34.58.68,1.05,1.02,1.4h-9.41v1.48h12.08ZM1147.42,451.52h-1.68v1.69h1.68v-1.69ZM1147.44,456.18c-.64.42-1.11,1-1.43,1.74-.32.74-.48,1.65-.48,2.74,0,.86.16,1.63.47,2.32.31.69.76,1.21,1.32,1.59.57.37,1.17.55,1.81.55s1.22-.17,1.71-.5c.49-.33.9-.85,1.22-1.56.22-.48.48-1.37.77-2.67.29-1.3.58-2.1.86-2.41.28-.31.63-.47,1.06-.47.5,0,.92.22,1.28.66.35.44.53,1.14.53,2.11s-.19,1.63-.58,2.1c-.39.47-.96.75-1.72.84l.12,1.53c.71-.03,1.34-.22,1.89-.59s.98-.89,1.27-1.58c.29-.68.43-1.47.43-2.37,0-.81-.14-1.55-.41-2.21-.27-.67-.67-1.17-1.2-1.51-.53-.35-1.1-.52-1.7-.52-.55,0-1.05.14-1.5.42-.44.29-.82.71-1.12,1.29-.23.45-.49,1.22-.75,2.33-.27,1.11-.46,1.82-.59,2.15-.19.5-.43.87-.71,1.09-.28.22-.61.33-.99.33s-.72-.12-1.03-.34c-.32-.23-.56-.58-.74-1.04-.18-.47-.27-1.01-.27-1.61,0-.69.12-1.31.36-1.85.24-.55.55-.96.94-1.22.38-.26.88-.43,1.48-.5l-.13-1.51c-.8.02-1.53.24-2.16.66M1145.74,473.2v1.55c.33-.19.68-.31,1.05-.37.36-.06,1.23-.1,2.6-.1h1.97c.66,0,1.11-.02,1.36-.07.41-.09.74-.24,1.01-.46.26-.22.48-.56.66-1.03.17-.47.26-1.07.26-1.82s-.1-1.41-.31-1.98c-.2-.57-.5-1.01-.87-1.31-.38-.3-.88-.52-1.5-.65l-.2,1.45c.62.16,1.05.4,1.29.74.24.33.36.85.36,1.54,0,.75-.17,1.31-.5,1.69-.25.28-.67.42-1.27.42-.06,0-.19,0-.39,0-.2-.56-.37-1.45-.51-2.64-.07-.59-.14-1.03-.22-1.32-.11-.39-.27-.75-.48-1.06-.21-.32-.5-.57-.85-.76-.35-.2-.74-.29-1.17-.29-.73,0-1.32.26-1.8.77-.46.52-.7,1.26-.7,2.22,0,.58.1,1.12.29,1.63s.52,1.04.98,1.59c-.41.05-.77.14-1.07.3M1149.57,472.78c-.65,0-1.14-.08-1.48-.24-.44-.21-.77-.54-1.02-.98-.25-.45-.37-.95-.37-1.52s.13-1.01.39-1.31c.26-.3.59-.45.98-.45.26,0,.49.07.7.21.21.14.37.33.48.59.11.25.21.68.3,1.29.15,1.07.34,1.88.56,2.42h-.54ZM1157.77,476.62h-12.02v1.48h12.02v-1.48ZM1154.45,480.9h-1.68v1.69h1.68v-1.69ZM1147.42,480.9h-1.68v1.69h1.68v-1.69ZM1157.02,496.2c.53-.61.79-1.38.79-2.33,0-1.27-.46-2.29-1.38-3.04-1.05-.86-2.74-1.29-5.07-1.29-2.08,0-3.57.39-4.48,1.17-.91.78-1.36,1.79-1.36,3.02,0,.73.17,1.37.51,1.94s.84,1.02,1.49,1.34c.65.33,1.35.49,2.1.49,1.15,0,2.08-.35,2.81-1.04.72-.69,1.08-1.54,1.08-2.52,0-.57-.13-1.11-.39-1.62-.26-.52-.66-.95-1.21-1.31,1.2,0,2.13.15,2.78.42.65.27,1.15.64,1.48,1.11.26.35.4.77.4,1.24,0,.59-.21,1.08-.63,1.48-.26.24-.68.43-1.27.56l.12,1.47c.94-.12,1.67-.49,2.2-1.09M1151.52,491.95c.48.46.72,1.03.72,1.7s-.24,1.23-.72,1.68c-.48.44-1.13.66-1.96.66s-1.55-.22-2.05-.67c-.5-.45-.76-.99-.76-1.61,0-.43.12-.84.37-1.23.24-.39.6-.69,1.06-.91.47-.22.95-.32,1.46-.32.77,0,1.4.23,1.88.7M1147.42,499.9h-1.68v1.69h1.68v-1.69ZM1145.74,508.97c0,.77.07,1.42.2,1.95.14.53.33.97.59,1.32.26.35.64.65,1.12.89.49.24,1.01.36,1.57.36.7,0,1.3-.19,1.82-.59.51-.39.88-.95,1.09-1.68.28.57.64.99,1.1,1.27s.94.42,1.45.42c.55,0,1.08-.16,1.59-.48.5-.32.88-.75,1.13-1.31.24-.56.36-1.3.36-2.22v-4.52h-12.02v4.6ZM1156.35,505.97v2.41c0,.87-.06,1.48-.17,1.84-.11.35-.32.63-.62.82-.31.19-.66.29-1.05.29-.42,0-.77-.1-1.05-.31-.28-.21-.48-.51-.6-.92-.09-.31-.14-.81-.14-1.52v-2.61h3.64ZM1151.29,505.97v2.79c0,.77-.07,1.36-.2,1.76-.13.41-.37.73-.7.96-.33.23-.72.35-1.17.35-.38,0-.72-.08-1.02-.24-.29-.16-.51-.36-.67-.61-.16-.25-.27-.55-.33-.92-.04-.21-.06-.57-.06-1.09v-3h4.13ZM1147.42,515.99h-1.68v1.69h1.68v-1.69ZM1157.82,525.51v-.95c-.52-.26-1.05-.7-1.61-1.32s-1.02-1.34-1.41-2.17h-1.43c.17.46.42.98.76,1.56.34.58.68,1.05,1.02,1.4h-9.41v1.48h12.08ZM1147.42,530.22h-1.68v1.69h1.68v-1.69ZM1157.82,539.73v-.95c-.52-.26-1.05-.7-1.61-1.32-.55-.62-1.02-1.34-1.41-2.17h-1.43c.17.46.42.98.76,1.56.34.58.68,1.05,1.02,1.4h-9.41v1.48h12.08Z"/>
    <path d="M1147.16,545.37c.27.17.53.37.8.62.27.25.77.82,1.51,1.71.9,1.06,1.6,1.83,2.12,2.29.51.46,1,.78,1.47.98.46.2.94.29,1.42.29.95,0,1.74-.34,2.38-1.01.64-.67.96-1.59.96-2.75s-.3-2.06-.89-2.74c-.59-.68-1.46-1.07-2.59-1.18l-.15,1.52c.76,0,1.34.22,1.77.65.43.43.64,1,.64,1.71,0,.68-.2,1.22-.61,1.64-.4.42-.89.63-1.48.63s-1.15-.23-1.78-.69c-.62-.46-1.47-1.35-2.55-2.66-.69-.84-1.3-1.49-1.82-1.94-.53-.45-1.06-.77-1.6-.98-.33-.12-.67-.18-1.02-.17v7.98h1.42v-5.92Z"/>
    <rect class="st22" x="1118.06" y="440.54" width="18.9" height="111.72"/>
    <path d="M1122.86,443.1c.27.17.53.38.8.62.27.25.77.83,1.51,1.71.9,1.06,1.61,1.83,2.12,2.28.52.46,1.01.79,1.47.98.47.2.94.3,1.42.3.95,0,1.74-.34,2.38-1.01.64-.68.96-1.59.96-2.75s-.3-2.06-.89-2.74c-.59-.68-1.45-1.07-2.59-1.18l-.15,1.52c.76,0,1.35.22,1.77.65.43.43.64,1,.64,1.71,0,.67-.2,1.22-.6,1.64-.4.42-.9.63-1.48.63s-1.15-.23-1.78-.69c-.62-.46-1.47-1.34-2.55-2.66-.69-.85-1.3-1.49-1.82-1.94-.52-.45-1.06-.77-1.6-.97-.33-.13-.67-.19-1.03-.18v7.98h1.42v-5.92ZM1123.12,451.52h-1.68v1.69h1.68v-1.69ZM1123.14,456.18c-.64.42-1.11,1-1.43,1.74-.32.74-.48,1.65-.48,2.74,0,.86.16,1.63.47,2.32.31.69.76,1.21,1.32,1.59.57.37,1.17.55,1.81.55s1.21-.17,1.71-.5c.49-.33.9-.85,1.23-1.56.22-.48.48-1.37.77-2.67.29-1.3.58-2.1.86-2.41.28-.31.63-.47,1.06-.47.5,0,.92.22,1.28.66.35.44.53,1.14.53,2.11s-.2,1.63-.58,2.1c-.39.47-.96.75-1.72.84l.12,1.53c.7-.03,1.34-.22,1.89-.59s.98-.89,1.27-1.58.43-1.47.43-2.37c0-.81-.14-1.55-.41-2.21-.27-.67-.67-1.17-1.2-1.51-.53-.35-1.09-.52-1.7-.52-.55,0-1.05.14-1.5.42-.44.29-.82.71-1.12,1.29-.23.45-.49,1.22-.75,2.33-.26,1.11-.46,1.82-.58,2.15-.19.5-.43.87-.71,1.09-.28.22-.61.33-.99.33s-.72-.12-1.03-.34c-.32-.23-.56-.58-.74-1.04-.18-.47-.27-1.01-.27-1.61,0-.69.12-1.31.36-1.85.24-.55.55-.96.93-1.22s.88-.43,1.48-.5l-.13-1.51c-.8.02-1.53.24-2.16.66M1121.44,473.2v1.55c.33-.19.68-.31,1.05-.37.36-.06,1.23-.1,2.6-.1h1.97c.66,0,1.11-.02,1.36-.07.41-.09.74-.24,1.01-.46.26-.22.48-.56.66-1.03.17-.47.26-1.07.26-1.82s-.1-1.41-.31-1.98c-.2-.57-.5-1.01-.88-1.31-.38-.3-.88-.52-1.5-.65l-.2,1.45c.62.16,1.05.4,1.29.74.24.33.36.85.36,1.54,0,.75-.17,1.31-.5,1.69-.25.28-.67.42-1.27.42-.06,0-.19,0-.39,0-.2-.56-.36-1.45-.51-2.64-.07-.59-.14-1.03-.22-1.32-.11-.39-.27-.75-.48-1.06-.21-.32-.49-.57-.85-.76-.35-.2-.74-.29-1.17-.29-.73,0-1.33.26-1.79.77-.47.52-.7,1.26-.7,2.22,0,.58.1,1.12.29,1.63.19.51.52,1.04.98,1.59-.41.05-.77.14-1.07.3M1125.27,472.78c-.65,0-1.14-.08-1.48-.24-.43-.21-.77-.54-1.02-.98-.25-.45-.37-.95-.37-1.52s.13-1.01.39-1.31c.26-.3.59-.45.98-.45.25,0,.49.07.7.21.21.14.37.33.48.59.11.25.2.68.29,1.29.15,1.07.34,1.88.56,2.42h-.54ZM1133.46,476.62h-12.02v1.48h12.02v-1.48ZM1130.15,480.9h-1.68v1.69h1.68v-1.69ZM1123.12,480.9h-1.68v1.69h1.68v-1.69ZM1132.72,496.2c.53-.61.79-1.38.79-2.33,0-1.27-.46-2.29-1.38-3.04-1.06-.86-2.74-1.29-5.07-1.29-2.08,0-3.57.39-4.48,1.17-.91.78-1.36,1.79-1.36,3.02,0,.73.17,1.37.51,1.94s.84,1.02,1.49,1.34c.65.33,1.35.49,2.1.49,1.15,0,2.08-.35,2.81-1.04.72-.69,1.08-1.54,1.08-2.52,0-.57-.13-1.11-.39-1.62-.26-.52-.66-.95-1.21-1.31,1.2,0,2.13.15,2.78.42.65.27,1.15.64,1.48,1.11.26.35.4.77.4,1.24,0,.59-.21,1.08-.63,1.48-.27.24-.69.43-1.27.56l.12,1.47c.94-.12,1.67-.49,2.2-1.09M1127.22,491.95c.48.46.72,1.03.72,1.7s-.24,1.23-.72,1.68c-.48.44-1.13.66-1.97.66s-1.55-.22-2.05-.67c-.5-.45-.76-.99-.76-1.61,0-.43.12-.84.36-1.23.24-.39.6-.69,1.06-.91.47-.22.95-.32,1.46-.32.78,0,1.4.23,1.88.7M1123.12,499.9h-1.68v1.69h1.68v-1.69ZM1121.44,508.97c0,.77.07,1.42.2,1.95.13.53.33.97.59,1.32.26.35.64.65,1.12.89.49.24,1.01.36,1.57.36.7,0,1.3-.19,1.82-.59.51-.39.88-.95,1.09-1.68.28.57.64.99,1.1,1.27s.94.42,1.45.42c.55,0,1.08-.16,1.59-.48.5-.32.88-.75,1.13-1.31.24-.56.36-1.3.36-2.22v-4.52h-12.02v4.6ZM1132.05,505.97v2.41c0,.87-.06,1.48-.17,1.84-.11.35-.32.63-.62.82-.31.19-.66.29-1.05.29-.42,0-.77-.1-1.05-.31-.28-.21-.48-.51-.6-.92-.09-.31-.14-.81-.14-1.52v-2.61h3.64ZM1126.99,505.97v2.79c0,.77-.07,1.36-.2,1.76-.13.41-.37.73-.7.96-.33.23-.72.35-1.17.35-.38,0-.72-.08-1.02-.24-.29-.16-.51-.36-.67-.61-.16-.25-.27-.55-.33-.92-.04-.21-.06-.57-.06-1.09v-3h4.13ZM1123.12,515.99h-1.68v1.69h1.68v-1.69ZM1122.86,521.8c.27.16.53.37.8.62.27.25.77.82,1.51,1.71.9,1.06,1.61,1.82,2.12,2.28.52.46,1.01.79,1.47.98.47.2.94.3,1.42.3.95,0,1.74-.34,2.38-1.01.64-.68.96-1.59.96-2.75s-.3-2.06-.89-2.74c-.59-.68-1.45-1.07-2.59-1.18l-.15,1.52c.76,0,1.35.22,1.77.65.43.43.64,1,.64,1.71,0,.67-.2,1.22-.6,1.64-.4.42-.9.63-1.48.63s-1.15-.23-1.78-.69c-.62-.46-1.47-1.35-2.55-2.66-.69-.85-1.3-1.49-1.82-1.94-.52-.45-1.06-.77-1.6-.97-.33-.13-.67-.19-1.03-.17v7.97h1.42v-5.92ZM1123.12,530.22h-1.68v1.69h1.68v-1.69ZM1133.51,539.73v-.95c-.52-.26-1.05-.7-1.61-1.32-.55-.62-1.02-1.34-1.41-2.17h-1.43c.17.46.42.98.76,1.56.34.58.68,1.05,1.02,1.4h-9.41v1.48h12.08Z"/>
    <path d="M1122.86,545.37c.27.17.53.37.8.62.27.25.77.82,1.51,1.71.9,1.06,1.61,1.83,2.12,2.29.52.46,1.01.78,1.47.98.46.2.94.29,1.42.29.94,0,1.74-.34,2.38-1.01.64-.67.96-1.59.96-2.75s-.3-2.06-.89-2.74c-.59-.68-1.46-1.07-2.59-1.18l-.15,1.52c.76,0,1.34.22,1.77.65.43.43.64,1,.64,1.71,0,.68-.2,1.22-.6,1.64-.4.42-.9.63-1.48.63s-1.15-.23-1.78-.69-1.47-1.35-2.55-2.66c-.69-.84-1.3-1.49-1.82-1.94-.53-.45-1.06-.77-1.6-.98-.33-.12-.67-.18-1.02-.17v7.98h1.42v-5.92Z"/>
    <rect class="st22" x="1094.44" y="440.54" width="18.9" height="111.72"/>
    <path d="M1098.54,442.44c-.63.7-.94,1.58-.94,2.64,0,1.18.36,2.15,1.1,2.92.73.77,1.62,1.15,2.67,1.15.78,0,1.42-.2,1.94-.59.52-.4.86-.95,1.02-1.66.25.55.59.96,1.02,1.24.43.28.9.42,1.42.42.55,0,1.06-.15,1.55-.44.49-.3.87-.72,1.15-1.27.28-.56.42-1.16.42-1.82,0-.95-.27-1.75-.81-2.4-.55-.64-1.31-1.05-2.3-1.23l-.26,1.48c.72.11,1.26.35,1.62.74.36.38.54.86.54,1.44s-.18,1.05-.53,1.42c-.36.37-.8.55-1.35.55-.68,0-1.19-.25-1.52-.76-.33-.5-.49-1.07-.49-1.7,0-.06,0-.14.02-.24l-1.3-.17c.11.42.16.76.16,1.04,0,.68-.22,1.25-.66,1.7-.44.44-1,.67-1.68.67s-1.31-.24-1.79-.72c-.48-.48-.72-1.07-.72-1.76,0-.59.19-1.08.55-1.49.37-.41.97-.7,1.81-.87l-.2-1.48c-1,.1-1.82.5-2.45,1.2M1099.49,451.52h-1.68v1.69h1.68v-1.69ZM1099.51,456.18c-.64.42-1.11,1-1.43,1.74-.32.74-.48,1.65-.48,2.74,0,.86.16,1.63.47,2.32.31.69.75,1.21,1.32,1.59.57.37,1.17.55,1.81.55s1.22-.17,1.71-.5c.49-.33.9-.85,1.22-1.56.22-.48.48-1.37.77-2.67.29-1.3.58-2.1.86-2.41.28-.31.63-.47,1.06-.47.5,0,.92.22,1.28.66.35.44.53,1.14.53,2.11s-.2,1.63-.59,2.1c-.39.47-.96.75-1.72.84l.11,1.53c.71-.03,1.34-.22,1.89-.59s.98-.89,1.27-1.58c.29-.68.43-1.47.43-2.37,0-.81-.14-1.55-.41-2.21-.27-.67-.67-1.17-1.2-1.51-.53-.35-1.1-.52-1.7-.52-.55,0-1.05.14-1.5.42-.44.29-.82.71-1.12,1.29-.23.45-.49,1.22-.75,2.33-.27,1.11-.46,1.82-.59,2.15-.19.5-.43.87-.71,1.09-.28.22-.61.33-.99.33s-.72-.12-1.03-.34c-.32-.23-.56-.58-.74-1.04-.18-.47-.27-1.01-.27-1.61,0-.69.12-1.31.36-1.85.24-.55.55-.96.94-1.22.38-.26.88-.43,1.48-.5l-.13-1.51c-.8.02-1.53.24-2.16.66M1097.81,473.2v1.55c.33-.19.68-.31,1.05-.37.36-.06,1.23-.1,2.6-.1h1.97c.65,0,1.11-.02,1.36-.07.41-.09.74-.24,1.01-.46.26-.22.48-.56.66-1.03.17-.47.26-1.07.26-1.82s-.1-1.41-.31-1.98c-.2-.57-.5-1.01-.88-1.31-.38-.3-.88-.52-1.5-.65l-.2,1.45c.62.16,1.05.4,1.29.74.24.33.36.85.36,1.54,0,.75-.17,1.31-.5,1.69-.25.28-.67.42-1.27.42-.06,0-.19,0-.39,0-.2-.56-.36-1.45-.51-2.64-.07-.59-.14-1.03-.22-1.32-.11-.39-.27-.75-.48-1.06-.21-.32-.5-.57-.85-.76-.35-.2-.74-.29-1.17-.29-.73,0-1.32.26-1.8.77-.46.52-.7,1.26-.7,2.22,0,.58.1,1.12.29,1.63s.52,1.04.98,1.59c-.41.05-.77.14-1.07.3M1101.64,472.78c-.65,0-1.14-.08-1.48-.24-.43-.21-.77-.54-1.02-.98-.25-.45-.37-.95-.37-1.52s.13-1.01.39-1.31c.26-.3.59-.45.98-.45.26,0,.49.07.7.21.21.14.37.33.48.59.11.25.21.68.3,1.29.15,1.07.34,1.88.56,2.42h-.54ZM1109.84,476.62h-12.03v1.48h12.03v-1.48ZM1106.52,480.9h-1.68v1.69h1.68v-1.69ZM1099.49,480.9h-1.68v1.69h1.68v-1.69ZM1109.09,496.2c.53-.61.79-1.38.79-2.33,0-1.27-.46-2.29-1.38-3.04-1.05-.86-2.74-1.29-5.07-1.29-2.08,0-3.57.39-4.48,1.17-.9.78-1.36,1.79-1.36,3.02,0,.73.17,1.37.51,1.94.35.57.84,1.02,1.49,1.34.65.33,1.35.49,2.1.49,1.15,0,2.08-.35,2.81-1.04.72-.69,1.08-1.54,1.08-2.52,0-.57-.13-1.11-.39-1.62-.26-.52-.66-.95-1.2-1.31,1.2,0,2.13.15,2.78.42.65.27,1.15.64,1.48,1.11.26.35.4.77.4,1.24,0,.59-.21,1.08-.63,1.48-.26.24-.68.43-1.26.56l.11,1.47c.94-.12,1.67-.49,2.2-1.09M1103.59,491.95c.48.46.72,1.03.72,1.7s-.24,1.23-.72,1.68c-.48.44-1.13.66-1.96.66s-1.55-.22-2.05-.67c-.5-.45-.76-.99-.76-1.61,0-.43.12-.84.37-1.23.24-.39.6-.69,1.06-.91.47-.22.95-.32,1.46-.32.77,0,1.4.23,1.88.7M1099.49,499.9h-1.68v1.69h1.68v-1.69ZM1097.81,508.97c0,.77.07,1.42.2,1.95.14.53.33.97.59,1.32.26.35.64.65,1.12.89.49.24,1.01.36,1.57.36.7,0,1.3-.19,1.82-.59.51-.39.88-.95,1.09-1.68.28.57.64.99,1.1,1.27s.94.42,1.45.42c.55,0,1.08-.16,1.59-.48.5-.32.88-.75,1.13-1.31.24-.56.36-1.3.36-2.22v-4.52h-12.02v4.6ZM1108.42,505.97v2.41c0,.87-.06,1.48-.17,1.84-.11.35-.32.63-.62.82-.31.19-.66.29-1.05.29-.42,0-.77-.1-1.05-.31-.28-.21-.48-.51-.6-.92-.09-.31-.14-.81-.14-1.52v-2.61h3.64ZM1103.36,505.97v2.79c0,.77-.07,1.36-.2,1.76-.13.41-.37.73-.7.96-.33.23-.72.35-1.17.35-.38,0-.72-.08-1.02-.24-.29-.16-.51-.36-.67-.61-.16-.25-.27-.55-.33-.92-.04-.21-.06-.57-.06-1.09v-3h4.13ZM1099.49,515.99h-1.68v1.69h1.68v-1.69ZM1098.54,521.13c-.63.7-.94,1.58-.94,2.64,0,1.18.36,2.15,1.1,2.92.73.77,1.62,1.15,2.67,1.15.78,0,1.42-.2,1.94-.59.52-.4.86-.95,1.02-1.67.25.55.59.96,1.02,1.24s.9.42,1.42.42c.55,0,1.06-.15,1.55-.44.49-.29.87-.72,1.15-1.27.28-.55.42-1.16.42-1.82,0-.96-.27-1.75-.81-2.4-.55-.64-1.31-1.05-2.3-1.23l-.26,1.48c.72.11,1.26.35,1.62.74.36.38.54.87.54,1.44s-.18,1.05-.53,1.42c-.36.37-.8.55-1.35.55-.68,0-1.19-.25-1.52-.76-.33-.5-.49-1.07-.49-1.7,0-.06,0-.14.02-.24l-1.3-.17c.11.42.16.76.16,1.05,0,.68-.22,1.25-.66,1.7-.44.44-1,.66-1.68.66s-1.31-.24-1.79-.72c-.48-.48-.72-1.07-.72-1.76,0-.59.19-1.09.55-1.49.37-.41.97-.7,1.81-.87l-.2-1.48c-1,.1-1.82.5-2.45,1.2M1099.49,530.22h-1.68v1.69h1.68v-1.69ZM1109.89,539.73v-.95c-.52-.26-1.05-.7-1.61-1.32-.55-.62-1.02-1.34-1.41-2.17h-1.43c.17.46.42.98.76,1.56.34.58.68,1.05,1.02,1.4h-9.41v1.48h12.08Z"/>
    <path d="M1099.23,545.37c.27.17.53.37.8.62.27.25.77.82,1.51,1.71.9,1.06,1.6,1.83,2.12,2.29.52.46,1,.78,1.47.98.46.2.94.29,1.42.29.94,0,1.74-.34,2.38-1.01.64-.67.96-1.59.96-2.75s-.3-2.06-.89-2.74c-.59-.68-1.46-1.07-2.59-1.18l-.15,1.52c.76,0,1.34.22,1.77.65.43.43.64,1,.64,1.71,0,.68-.2,1.22-.6,1.64-.4.42-.89.63-1.48.63s-1.15-.23-1.78-.69-1.47-1.35-2.55-2.66c-.69-.84-1.3-1.49-1.82-1.94-.53-.45-1.06-.77-1.6-.98-.33-.12-.67-.18-1.02-.17v7.98h1.42v-5.92Z"/>
    <line class="st2" x1="813.61" y1="913.75" x2="694.13" y2="965.73"/>
    <line class="st2" x1="813.61" y1="965.73" x2="694.13" y2="913.75"/>
    <line class="st4" x1="686.03" y1="1106.82" x2="521.32" y2="1106.82"/>
  </g>
  <rect class="st24" x="813.61" y="687.61" width="17.55" height="316.25"/>
  <rect class="st24" x="805.51" y="965.73" width="25.65" height="152.47"/>
  <line class="st4" x1="787.45" y1="1092.08" x2="805.52" y2="1092.08"/>
  <line class="st0" x1="802.03" y1="800.2" x2="802.37" y2="881.75"/>
  <line class="st0" x1="798.23" y1="886.01" x2="780.63" y2="886.17"/>
  <line class="st1" x1="797.76" y1="796.06" x2="789.74" y2="796.23"/>
  <line class="st1" x1="798.23" y1="886.01" x2="780.63" y2="886.17"/>
  <line class="st1" x1="802.37" y1="881.75" x2="802.03" y2="800.2"/>
  <line class="st1" x1="809.65" y1="781.2" x2="809.89" y2="901.09"/>
</svg>