<?xml version="1.0" encoding="UTF-8"?>
<svg id="Layer_1" xmlns="http://www.w3.org/2000/svg" xmlns:xlink="http://www.w3.org/1999/xlink" version="1.1" viewBox="0 0 1200 1697.14">
  <!-- Generator: Adobe Illustrator 29.6.0, SVG Export Plug-In . SVG Version: 2.1.1 Build 207)  -->
  <defs>
    <style>
      .st0, .st1, .st2, .st3, .st4 {
        fill: none;
      }

      .st1 {
        stroke: #0d0e1c;
      }

      .st1, .st2, .st4 {
        stroke-width: .08px;
      }

      .st1, .st3, .st4 {
        stroke-linecap: round;
        stroke-linejoin: round;
      }

      .st2 {
        stroke-miterlimit: 10;
      }

      .st2, .st3, .st4 {
        stroke: #000;
      }

      .st3 {
        stroke-width: .14px;
      }

      .st5 {
        clip-path: url(#clippath-11);
      }

      .st6 {
        clip-path: url(#clippath-10);
      }

      .st7 {
        clip-path: url(#clippath-15);
      }

      .st8 {
        clip-path: url(#clippath-13);
      }

      .st9 {
        clip-path: url(#clippath-14);
      }

      .st10 {
        clip-path: url(#clippath-12);
      }

      .st11 {
        clip-path: url(#clippath-1);
      }

      .st12 {
        clip-path: url(#clippath-3);
      }

      .st13 {
        clip-path: url(#clippath-4);
      }

      .st14 {
        clip-path: url(#clippath-2);
      }

      .st15 {
        clip-path: url(#clippath-7);
      }

      .st16 {
        clip-path: url(#clippath-6);
      }

      .st17 {
        clip-path: url(#clippath-9);
      }

      .st18 {
        clip-path: url(#clippath-8);
      }

      .st19 {
        clip-path: url(#clippath-5);
      }

      .st20 {
        fill: #fff;
      }

      .st21 {
        fill: #ece9e5;
      }

      .st22 {
        fill: #302c35;
      }

      .st23 {
        clip-path: url(#clippath);
      }
    </style>
    <clipPath id="clippath">
      <rect class="st0" x="689.33" y="801.41" width="72.57" height="159.65"/>
    </clipPath>
    <clipPath id="clippath-1">
      <rect class="st0" x="262.21" y="480.54" width="729.58" height="736.07"/>
    </clipPath>
    <clipPath id="clippath-2">
      <rect class="st0" x="656.04" y="1028.99" width="28.61" height="39.22"/>
    </clipPath>
    <clipPath id="clippath-3">
      <rect class="st0" x="262.21" y="480.54" width="729.58" height="736.07"/>
    </clipPath>
    <clipPath id="clippath-4">
      <rect class="st0" x="262.21" y="480.54" width="729.58" height="736.07"/>
    </clipPath>
    <clipPath id="clippath-5">
      <rect class="st0" x="727.14" y="1112.73" width="27.51" height="37.12"/>
    </clipPath>
    <clipPath id="clippath-6">
      <rect class="st0" x="262.21" y="480.54" width="729.58" height="736.07"/>
    </clipPath>
    <clipPath id="clippath-7">
      <rect class="st0" x="262.21" y="480.54" width="729.58" height="736.07"/>
    </clipPath>
    <clipPath id="clippath-8">
      <rect class="st0" x="469.51" y="794.37" width="115.56" height="115.56"/>
    </clipPath>
    <clipPath id="clippath-9">
      <rect class="st0" x="262.21" y="480.54" width="729.58" height="736.07"/>
    </clipPath>
    <clipPath id="clippath-10">
      <rect class="st0" x="262.21" y="480.54" width="729.58" height="736.07"/>
    </clipPath>
    <clipPath id="clippath-11">
      <rect class="st0" x="262.21" y="480.54" width="729.58" height="736.07"/>
    </clipPath>
    <clipPath id="clippath-12">
      <rect class="st0" x="262.21" y="480.54" width="729.58" height="736.07"/>
    </clipPath>
    <clipPath id="clippath-13">
      <rect class="st0" x="262.21" y="480.54" width="729.58" height="736.07"/>
    </clipPath>
    <clipPath id="clippath-14">
      <rect class="st0" x="262.21" y="480.54" width="729.58" height="736.07"/>
    </clipPath>
    <clipPath id="clippath-15">
      <rect class="st0" x="262.21" y="480.54" width="729.58" height="736.07"/>
    </clipPath>
  </defs>
  <rect class="st21" x="419.9" y="697.91" width="360.14" height="481.65"/>
  <rect class="st21" x="483.35" y="610.15" width="249.43" height="118.13"/>
  <rect class="st20" x="455.97" y="943.97" width="50.34" height="221.69"/>
  <rect class="st20" x="415.51" y="771.75" width="20.55" height="165.13"/>
  <rect class="st20" x="506.47" y="702.3" width="200.66" height="11.47"/>
  <rect class="st22" x="707.13" y="697.91" width="72.91" height="46.58"/>
  <rect class="st22" x="458.71" y="1163.7" width="95.86" height="15.87"/>
  <rect class="st22" x="626.13" y="1163.7" width="153.91" height="15.87"/>
  <rect class="st22" x="762.49" y="744.49" width="17.55" height="419.21"/>
  <rect class="st22" x="442.51" y="936.85" width="16.2" height="242.71"/>
  <rect class="st22" x="483.35" y="610.15" width="4.05" height="87.75"/>
  <rect class="st22" x="728.74" y="610.15" width="4.05" height="87.75"/>
  <rect class="st22" x="485.38" y="610.15" width="245.38" height="3.71"/>
  <rect class="st22" x="458.71" y="1039.82" width="55.69" height="5.74"/>
  <rect class="st22" x="634.9" y="1156.27" width="125.9" height="9.97"/>
  <rect class="st22" x="634.9" y="1148.17" width="5.4" height="8.77"/>
  <rect class="st22" x="640.3" y="1022.61" width="120.5" height="5.06"/>
  <rect class="st22" x="755.74" y="1022.61" width="10.21" height="141.09"/>
  <rect class="st22" x="640.3" y="1027.67" width="115.43" height="1.35"/>
  <rect class="st22" x="640.3" y="1148.17" width="1.01" height="7.42"/>
  <rect class="st22" x="634.9" y="1020.75" width="6.41" height="56.53"/>
  <rect class="st22" x="640.3" y="1155.6" width="115.43" height="1.35"/>
  <rect class="st22" x="754.39" y="1027.67" width="1.35" height="127.92"/>
  <rect class="st22" x="643" y="962.87" width="119.48" height="7.76"/>
  <rect class="st22" x="634.9" y="962.87" width="8.1" height="59.74"/>
  <rect class="st22" x="419.9" y="936.88" width="22.62" height="242.68"/>
  <rect class="st22" x="419.9" y="697.91" width="90.12" height="46.58"/>
  <rect class="st22" x="430.7" y="936.88" width="11.81" height="81.34"/>
  <rect class="st20" x="413.15" y="936.88" width="8.78" height="81.34"/>
  <rect class="st22" x="419.9" y="697.91" width="38.82" height="75.27"/>
  <polygon class="st20" points="689.33 801.41 689.33 801.82 760.99 801.82 760.99 939.79 761.9 940.24 761.9 801.41 689.33 801.41"/>
  <polygon class="st20" points="689.33 801.82 689.33 904.32 705.26 912.2 745.07 931.91 760.99 939.79 760.99 801.82 689.33 801.82"/>
  <g class="st23">
    <path class="st20" d="M689.33,961.06v-56.74l15.92,7.88v28.26c0,1.82,1.47,3.28,3.28,3.28h33.25c1.82,0,3.28-1.47,3.28-3.28v-8.56l15.92,7.88v21.27h-71.66Z"/>
    <path class="st20" d="M705.26,940.46v-28.26l39.81,19.7v8.56c0,1.82-1.47,3.28-3.29,3.28h-33.25c-1.81,0-3.28-1.47-3.28-3.28"/>
  </g>
  <polyline class="st1" points="760.99 939.79 760.99 961.06 689.33 961.06 689.33 904.32"/>
  <polyline class="st1" points="745.07 931.9 760.99 939.79 761.9 940.24 761.9 801.41 689.33 801.41 689.33 801.82 689.33 904.32 705.26 912.2"/>
  <line class="st1" x1="741.78" y1="943.75" x2="708.54" y2="943.75"/>
  <g class="st11">
    <path class="st1" d="M708.54,943.75c-1.81,0-3.28-1.47-3.28-3.28"/>
    <path class="st1" d="M745.07,940.46c0,1.82-1.47,3.28-3.29,3.28"/>
  </g>
  <polyline class="st1" points="745.07 940.46 745.07 931.9 705.26 912.2 705.26 940.46"/>
  <g class="st14">
    <path class="st20" d="M684.65,1029c0,7.71,0,15.42-.02,23.12,0,8.89-6.41,16.09-14.31,16.08-7.9,0-14.28-7.21-14.28-16.1.01-7.7.02-15.41.02-23.12,9.53,0,19.06.02,28.59.02"/>
  </g>
  <g class="st12">
    <path class="st4" d="M684.65,1029c0,7.71,0,15.42-.02,23.12,0,8.89-6.41,16.09-14.31,16.08-7.9,0-14.28-7.21-14.28-16.1.01-7.7.02-15.41.02-23.12,9.53,0,19.06.02,28.59.02Z"/>
  </g>
  <rect class="st20" x="691.75" y="1028.81" width="62.49" height="63.21"/>
  <polyline class="st4" points="754.24 1028.81 754.24 1092.02 748.07 1092.02"/>
  <line class="st4" x1="754.24" y1="1028.81" x2="692.25" y2="1028.81"/>
  <line class="st4" x1="691.75" y1="1029.85" x2="691.75" y2="1091.46"/>
  <polyline class="st4" points="691.75 1029.85 691.75 1028.81 692.25 1028.81"/>
  <polyline class="st4" points="692.69 1092.02 691.75 1092.02 691.75 1091.46"/>
  <line class="st4" x1="692.69" y1="1092.02" x2="748.07" y2="1092.02"/>
  <line class="st4" x1="723.95" y1="1028.81" x2="723.95" y2="1046.36"/>
  <g class="st13">
    <path class="st4" d="M727.79,1046.28c0-2.17-1.76-3.93-3.93-3.93s-3.93,1.76-3.93,3.93,1.76,3.93,3.93,3.93,3.93-1.76,3.93-3.93Z"/>
    <path class="st4" d="M727.79,1046.28c0-2.17-1.76-3.93-3.93-3.93s-3.93,1.76-3.93,3.93,1.76,3.93,3.93,3.93,3.93-1.76,3.93-3.93Z"/>
  </g>
  <g class="st19">
    <path class="st20" d="M729.26,1113.36h15.51c.58,0,1.06.35,1.06.78v34.13c0,.44-.48.79-1.06.79h-15.51c-.59,0-1.06-.35-1.06-.79v-34.13c0-.43.47-.78,1.06-.78M736.73,1128.41c-1.55,0-2.8,1.25-2.8,2.8s1.25,2.81,2.8,2.81,2.81-1.26,2.81-2.81-1.26-2.8-2.81-2.8"/>
    <path class="st20" d="M748.43,1131.21c0-1.16.95-2.1,2.11-2.1s2.1.95,2.1,2.1-.95,2.11-2.1,2.11-2.11-.94-2.11-2.11"/>
    <path class="st20" d="M736.73,1129.71c.83,0,1.51.67,1.51,1.5s-.68,1.51-1.51,1.51-1.5-.68-1.5-1.51.67-1.5,1.5-1.5"/>
    <path class="st20" d="M735.23,1131.21c0,.83.67,1.51,1.5,1.51s1.51-.68,1.51-1.51-.68-1.5-1.51-1.5-1.5.67-1.5,1.5M739.54,1131.21c0,1.55-1.26,2.81-2.81,2.81s-2.8-1.26-2.8-2.81,1.25-2.8,2.8-2.8,2.81,1.25,2.81,2.8"/>
    <path class="st20" d="M748.43,1131.21c0,1.17.95,2.11,2.11,2.11s2.11-.95,2.11-2.11-.95-2.1-2.11-2.1-2.11.95-2.11,2.1M754.64,1112.73v37.12h-26.45c-.59,0-1.06-.35-1.06-.78v-35.7c0-.35.47-.63,1.06-.63h26.45ZM728.2,1148.28c0,.44.47.79,1.06.79h15.5c.58,0,1.06-.35,1.06-.79v-34.13c0-.43-.48-.78-1.06-.78h-15.5c-.6,0-1.06.35-1.06.78v34.13Z"/>
  </g>
  <g class="st16">
    <path class="st4" d="M750.54,1133.32c-1.16,0-2.11-.95-2.11-2.11s.95-2.1,2.11-2.1,2.1.94,2.1,2.1-.95,2.11-2.1,2.11Z"/>
    <path class="st4" d="M736.73,1134.02c-1.55,0-2.8-1.26-2.8-2.81s1.25-2.8,2.8-2.8,2.81,1.25,2.81,2.8-1.26,2.81-2.81,2.81Z"/>
    <path class="st4" d="M736.73,1132.72c-.83,0-1.5-.68-1.5-1.51s.67-1.5,1.5-1.5,1.51.67,1.51,1.5-.68,1.51-1.51,1.51Z"/>
    <path class="st4" d="M744.76,1113.36h-15.51c-.59,0-1.06.35-1.06.78v34.13c0,.44.47.79,1.06.79h15.51c.59,0,1.06-.35,1.06-.79v-34.13c0-.43-.48-.78-1.06-.78Z"/>
  </g>
  <line class="st4" x1="746.47" y1="1149.85" x2="754.64" y2="1149.85"/>
  <g class="st15">
    <path class="st4" d="M754.64,1112.73h-26.45c-.59,0-1.06.28-1.06.63v35.7c0,.43.47.78,1.06.78h8.38"/>
  </g>
  <line class="st4" x1="746.47" y1="1149.85" x2="736.57" y2="1149.85"/>
  <line class="st4" x1="754.64" y1="1149.85" x2="754.64" y2="1112.73"/>
  <line class="st4" x1="476.39" y1="1066.48" x2="465.71" y2="1066.48"/>
  <rect class="st4" x="458.64" y="1045.68" width="47.78" height="117.89"/>
  <line class="st4" x1="473.64" y1="1135.54" x2="473.64" y2="1125.11"/>
  <line class="st4" x1="493.25" y1="1135.54" x2="493.25" y2="1125.11"/>
  <line class="st4" x1="488.11" y1="1130.39" x2="498.54" y2="1130.39"/>
  <line class="st4" x1="468.36" y1="1130.39" x2="478.79" y2="1130.39"/>
  <rect class="st4" x="463.76" y="1118.57" width="39.36" height="22.95"/>
  <rect class="st4" x="469.5" y="1053.27" width="26.54" height="26.54"/>
  <rect class="st4" x="462.9" y="1046.53" width="39.75" height="39.89"/>
  <g class="st18">
    <path class="st20" d="M510.63,811.41c5.46-2.34,11.42-3.55,17.47-3.4,5.87-.15,11.56.92,16.86,3.09,5.15,2.12,9.91,5.28,14.02,9.39,4.1,4.1,7.27,8.87,9.39,14.02,2.17,5.3,3.24,11,3.09,16.87.15,6.05-1.07,12.01-3.41,17.46-2.14,5-5.23,9.59-9.07,13.42-4.93,4.93-10.82,8.51-17.26,10.6-4.41,1.44-9.08,2.17-13.91,2.17-7.57,0-14.99-2-21.58-5.83-3.24-1.88-6.27-4.2-9.02-6.94-2.75-2.74-5.07-5.78-6.95-9.02-3.83-6.58-5.83-14.01-5.82-21.57,0-4.83.73-9.51,2.17-13.92,2.09-6.45,5.67-12.33,10.6-17.27,3.83-3.83,8.42-6.93,13.42-9.07"/>
    <path class="st20" d="M512.36,799.39c9.5-6.53,21.68-6.83,30.89,0,.3.3,0,.59-.3.3-.29.3-.59,0-.89.3-.3-.3-.59,0-.89-.3-.89-.3-2.08-.88-3.27-1.48-.9-.3-2.08.29-2.38,1.18-.3.3-.3.89.3.9,4.39,2.64,7.63,6.43,9.14,10.8-5.3-2.17-11-3.24-16.86-3.08-6.05-.15-12.01,1.06-17.47,3.4l-.06-.14c2.08-4.45,5.35-8.32,9.51-10.69.3-.3.3-.89,0-1.19-.29-.89-1.19-1.19-2.37-1.19-.89.3-2.08.89-2.97,1.78q-.59,0-.89-.3c-.3.3-.59,0-.89.3q-.29-.3-.59-.59"/>
    <path class="st20" d="M580.06,836.21c6.83,9.21,6.53,21.39,0,30.89l-.59-.59c.3-.3,0-.6.3-.89q-.3-.3-.3-.89c.89-.89,1.48-2.08,1.78-2.97,0-1.19-.3-2.08-1.19-2.37-.3-.3-.89-.3-1.19,0-2.38,4.16-5.94,7.72-10.69,9.51l-.14-.06c2.34-5.45,3.56-11.41,3.41-17.46.15-5.87-.92-11.57-3.1-16.87,4.38,1.51,8.17,4.75,10.81,9.15,0,.6.59.6.89.3.89-.3,1.48-1.48,1.19-2.37-.6-1.19-1.19-2.39-1.48-3.28-.3-.29,0-.59-.3-.89.3-.3,0-.59.3-.89-.3-.3.3-.3.3-.3"/>
    <path class="st20" d="M474.64,870.36c-6.83-9.21-6.83-21.67,0-30.88l.59.59v.59q0,.6-.29.89c-.6,1.18-1.19,2.37-1.48,3.26-.3.89.3,2.07,1.19,2.37.3.3.89.3,1.19,0,2.08-4.45,5.94-7.72,10.69-9.5l.09.04c-1.43,4.41-2.16,9.09-2.16,13.92,0,7.57,1.99,14.99,5.82,21.57l-.18.11c-5.94-1.19-11.58-5.05-14.55-10.39,0-.59-.59-.59-.89-.3-.89.3-1.48,1.49-1.19,2.38.59,1.19.89,2.08,1.48,3.26q.29.3.29.89s0,.6-.29.89l-.3.3Z"/>
    <path class="st20" d="M539.67,904.52l.3.3c-9.21,6.83-21.68,6.83-30.89,0l.29-.3c.3-.3.89-.3.89-.3q.59,0,.89.3c1.19.59,2.08.89,3.26,1.48.9.3,2.09-.29,2.38-1.18.3-.3.29-.9-.31-.9-5.34-2.97-9.2-8.61-10.39-14.55l.1-.19c6.58,3.83,14,5.83,21.58,5.83,4.83,0,9.51-.73,13.91-2.17l.04.09c-1.78,4.75-5.05,8.61-9.5,10.69-.29.3-.29.89,0,1.19.3.89,1.48,1.48,2.38,1.19.89-.3,2.08-.89,3.27-1.48q.29-.3.89-.3s.59,0,.89.3"/>
  </g>
  <g class="st17">
    <path class="st4" d="M579.47,864.72q0,.59.3.89"/>
    <path class="st4" d="M568.36,834.49c-2.12-5.15-5.28-9.92-9.39-14.02-4.11-4.11-8.87-7.27-14.02-9.39-5.29-2.17-11-3.24-16.86-3.09-6.05-.15-12.01,1.06-17.47,3.41-5.01,2.14-9.59,5.24-13.42,9.07-4.93,4.93-8.51,10.82-10.6,17.26-1.43,4.41-2.16,9.09-2.16,13.92,0,7.57,1.99,14.99,5.82,21.57,1.88,3.24,4.2,6.27,6.95,9.02,2.75,2.74,5.78,5.07,9.02,6.94,6.59,3.82,14,5.83,21.58,5.83,4.83,0,9.51-.73,13.91-2.17,6.45-2.09,12.33-5.67,17.26-10.6,3.83-3.83,6.93-8.42,9.07-13.42,2.34-5.46,3.56-11.41,3.41-17.46.15-5.86-.92-11.57-3.09-16.87Z"/>
    <path class="st4" d="M543.24,799.39c-9.21-6.83-21.39-6.53-30.89,0"/>
    <path class="st4" d="M545.02,811.27c-.02-.06-.04-.12-.06-.18-1.51-4.37-4.75-8.17-9.14-10.8"/>
    <path class="st4" d="M535.51,799.39c-.3.3-.3.89.3.9"/>
    <path class="st4" d="M541.16,799.68c-.89-.3-2.08-.89-3.27-1.48"/>
    <path class="st4" d="M537.89,798.21c-.9-.3-2.08.29-2.38,1.18"/>
    <path class="st4" d="M542.94,799.68c.3.3.59,0,.3-.3"/>
    <path class="st4" d="M542.05,799.98c.3-.3.59,0,.89-.3"/>
    <path class="st4" d="M541.16,799.68c.3.3.59,0,.89.3"/>
    <path class="st4" d="M520.07,800.57c.3-.3.3-.89,0-1.19"/>
    <path class="st4" d="M517.7,798.2c-.89.3-2.08.89-2.97,1.78"/>
    <path class="st4" d="M520.07,799.39c-.3-.89-1.19-1.19-2.38-1.19"/>
    <path class="st4" d="M512.36,799.39q.3.3.59.59"/>
    <path class="st4" d="M512.95,799.98c.3-.3.59,0,.89-.3"/>
    <path class="st4" d="M513.84,799.68q.3.3.89.3"/>
    <path class="st4" d="M520.07,800.57c-4.15,2.38-7.43,6.24-9.51,10.7"/>
    <path class="st4" d="M474.64,839.48c-6.83,9.21-6.83,21.67,0,30.89"/>
    <path class="st4" d="M475.53,862.94c2.97,5.35,8.61,9.2,14.54,10.39"/>
    <path class="st4" d="M475.53,862.94c0-.59-.59-.59-.89-.3"/>
    <path class="st4" d="M473.45,865.02c.59,1.19.89,2.08,1.48,3.26"/>
    <path class="st4" d="M474.64,862.65c-.89.3-1.48,1.48-1.19,2.37"/>
  </g>
  <line class="st4" x1="474.64" y1="870.36" x2="474.94" y2="870.07"/>
  <g class="st6">
    <path class="st4" d="M474.93,870.07c.3-.3.3-.89.3-.89"/>
    <path class="st4" d="M475.23,869.18q0-.59-.3-.89"/>
    <path class="st4" d="M474.64,847.2c.3.3.89.3,1.19,0"/>
    <path class="st4" d="M474.93,841.56c-.59,1.19-1.19,2.38-1.48,3.26"/>
    <path class="st4" d="M473.45,844.82c-.3.89.3,2.08,1.19,2.37"/>
  </g>
  <line class="st4" x1="475.23" y1="840.07" x2="474.64" y2="839.48"/>
  <line class="st4" x1="475.23" y1="840.67" x2="475.23" y2="840.08"/>
  <g class="st5">
    <path class="st4" d="M474.93,841.56q.3-.3.3-.89"/>
    <path class="st4" d="M486.51,837.7c-4.75,1.78-8.61,5.05-10.69,9.5"/>
    <path class="st4" d="M580.06,867.09c6.53-9.5,6.83-21.68,0-30.88"/>
    <path class="st4" d="M579.17,843.64c-2.64-4.4-6.44-7.64-10.81-9.15-.06-.02-.12-.04-.18-.06"/>
    <path class="st4" d="M579.17,843.64c0,.6.59.6.89.3"/>
    <path class="st4" d="M581.25,841.56c-.6-1.19-1.19-2.39-1.48-3.28"/>
    <path class="st4" d="M580.06,843.94c.89-.3,1.48-1.48,1.19-2.38"/>
    <path class="st4" d="M580.06,836.21s-.59,0-.3.3"/>
    <path class="st4" d="M579.77,836.5c-.3.3,0,.6-.3.89"/>
    <path class="st4" d="M579.47,837.4c.3.3,0,.59.3.89"/>
    <path class="st4" d="M580.06,859.38c-.3-.3-.89-.3-1.19,0"/>
    <path class="st4" d="M579.47,864.72c.89-.89,1.48-2.08,1.78-2.97"/>
    <path class="st4" d="M581.25,861.75c0-1.19-.3-2.08-1.19-2.37"/>
  </g>
  <line class="st4" x1="579.47" y1="866.5" x2="580.06" y2="867.09"/>
  <g class="st10">
    <path class="st4" d="M579.77,865.61c-.3.3,0,.6-.3.89"/>
    <path class="st4" d="M568.18,868.88c4.75-1.78,8.32-5.35,10.69-9.51"/>
    <path class="st4" d="M509.08,904.81c9.21,6.83,21.68,6.83,30.89,0"/>
    <path class="st4" d="M506.12,889.38c1.19,5.94,5.05,11.58,10.39,14.54"/>
    <path class="st4" d="M516.81,904.82c.3-.3.29-.9-.3-.9"/>
    <path class="st4" d="M511.16,904.52c1.19.59,2.08.89,3.27,1.48"/>
    <path class="st4" d="M514.43,906c.9.3,2.08-.29,2.38-1.18"/>
  </g>
  <line class="st4" x1="509.38" y1="904.52" x2="509.08" y2="904.81"/>
  <g class="st8">
    <path class="st4" d="M510.27,904.22s-.59,0-.89.3"/>
    <path class="st4" d="M511.16,904.52q-.3-.3-.89-.3"/>
    <path class="st4" d="M532.25,903.63c-.3.3-.3.89,0,1.19"/>
    <path class="st4" d="M534.63,906c.89-.3,2.08-.89,3.27-1.48"/>
    <path class="st4" d="M532.25,904.81c.3.89,1.48,1.48,2.38,1.19"/>
  </g>
  <line class="st4" x1="539.97" y1="904.81" x2="539.67" y2="904.51"/>
  <g class="st9">
    <path class="st4" d="M539.67,904.52c-.3-.3-.89-.3-.89-.3"/>
    <path class="st4" d="M538.78,904.22q-.59,0-.89.3"/>
    <path class="st4" d="M532.25,903.63c4.45-2.08,7.72-5.94,9.5-10.69"/>
    <path class="st20" d="M664.56,922.74c9.35,0,16.94,7.58,16.94,16.94s-7.59,16.94-16.94,16.94-16.94-7.58-16.94-16.94,7.59-16.94,16.94-16.94"/>
    <circle class="st4" cx="664.56" cy="939.68" r="16.94"/>
  </g>
  <path class="st4" d="M643,1022.61v-51.98M643,970.63h119.49M762.49,970.63v51.98M762.49,1022.61h-119.49M707.14,728.29v16.2M707.14,744.49h55.35M458.71,744.49h51.3M510.02,744.49v-16.2M458.71,1179.56h94.85M554.57,1163.7h-95.86M627.14,1179.56h152.9M626.13,1163.7h1.01M780.04,1163.7v-419.21M458.71,936.88h-16.2M442.51,936.88v81.34M458.71,773.18v-28.69M442.51,773.18h16.2M703.42,626.69l-13.17,1.35M690.26,628.04l-12.49,3.38M677.77,631.42l-11.81,5.4M665.96,636.82l-10.8,7.76M655.16,644.58l-9.45,9.11M645.71,653.69l-7.43,10.8M638.28,664.49l-5.74,11.82M632.54,676.31l-3.37,12.83M629.17,689.13l-1.01,13.16M703.42,702.3v-75.61M698.69,702.63v4.05M633.22,702.63h65.48M633.22,706.68v-4.05M698.69,706.68h-65.48M629.51,713.77h72.57M698.69,702.3h-65.48M698.69,708.37h-65.48M629.51,708.37v5.4M702.07,708.37v5.4M702.07,708.37h-72.57M706.12,702.3v11.47M698.69,702.3h7.43M698.69,708.37v-6.07M702.07,708.37h-3.38M702.07,713.77v-5.4M706.12,713.77h-4.05M629.51,708.37v5.4M633.22,708.37h-3.71M633.22,702.3v6.07M625.79,702.3h7.43M625.79,713.77v-11.47M629.51,713.77h-3.72M514.74,706.68h105.99M620.73,706.68v-4.05M620.73,702.63h-105.99M514.74,702.63v4.05M620.73,713.77h-105.99M514.74,702.3h105.99M620.73,713.77h4.05M624.78,713.77v-11.47M624.78,702.3h-4.05M620.73,702.3v11.47M510.69,713.77h4.05M514.74,713.77v-11.47M514.74,702.3h-4.05M510.69,702.3v11.47M487.4,613.86v84.05M728.74,697.91v-84.05M728.74,613.86h-241.33M483.35,697.91h4.05M487.4,697.91v-84.05M487.4,613.86h241.33M728.74,613.86v84.05M728.74,697.91h4.05M732.79,697.91v-87.76M732.79,610.15h-249.44M483.35,610.15v87.76M643,970.63l119.49,51.98M643,970.63h119.49M762.49,970.63v51.98M762.49,1022.61h-119.49M643,1022.61v-51.98M623.43,1097.2l-12.83,1.35M610.6,1098.55l-12.49,3.71M598.11,1102.27l-11.48,6.08M586.64,1108.34l-10.13,8.44M576.51,1116.78l-8.44,9.79M568.07,1126.57l-6.07,11.81M562,1138.38l-3.71,12.49M558.29,1150.87l-1.35,12.83M554.57,1163.7v15.87M626.13,1179.56v-15.87M623.43,1163.7v-66.49M620.39,1163.7h3.04M627.14,1163.7h-1.01"/>
  <path class="st4" d="M458.71,991.89h1.01M462.09,991.89h2.36M466.81,991.89h2.7M471.88,991.89h2.36M476.6,991.89h2.36M481.33,991.89h2.36M486.05,991.89h2.36M490.78,991.89h2.36M495.5,991.89h2.7M500.57,991.89h2.36M505.29,991.89h1.01M506.3,991.89v-1.35M506.3,988.18v-2.37M506.3,983.45v-2.36M506.3,978.73v-2.36M506.3,974v-2.36M506.3,969.28v-2.36M506.3,964.22v-2.37M506.3,959.49v-2.36M506.3,954.76v-2.36M506.3,950.04v-2.36M506.3,945.31v-1.35M506.3,943.96h-1.01M502.93,943.96h-2.36M498.2,943.96h-2.7M493.14,943.96h-2.36M488.42,943.96h-2.36M483.69,943.96h-2.36M478.96,943.96h-2.36M474.24,943.96h-2.36M469.51,943.96h-2.7M464.45,943.96h-2.36M459.73,943.96h-1.01M458.71,943.96v1.35M458.71,947.68v2.36M458.71,952.4v2.36M458.71,957.13v2.36M458.71,961.85v2.37M458.71,966.92v2.36M458.71,971.64v2.36M458.71,976.37v2.36M458.71,981.09v2.36M458.71,985.82v2.37M458.71,990.54v1.35M458.71,1039.82h1.01M462.09,1039.82h2.36M466.81,1039.82h2.7M471.88,1039.82h2.36M476.6,1039.82h2.36M481.33,1039.82h2.36M486.05,1039.82h2.36M490.78,1039.82h2.36M495.5,1039.82h2.7M500.57,1039.82h2.36M505.29,1039.82h1.01M506.3,1039.82v-1.35M506.3,1036.11v-2.36M506.3,1031.38v-2.36M506.3,1026.66v-2.36M506.3,1021.93v-2.7M506.3,1016.87v-2.36M506.3,1012.14v-2.36M506.3,1007.42v-2.36M506.3,1002.69v-2.36M506.3,997.97v-2.36M506.3,993.24v-1.35M506.3,991.89h-1.01M502.93,991.89h-2.36M498.2,991.89h-2.7M493.14,991.89h-2.36M488.42,991.89h-2.36M483.69,991.89h-2.36M478.96,991.89h-2.36M474.24,991.89h-2.36M469.51,991.89h-2.7M464.45,991.89h-2.36M459.73,991.89h-1.01M458.71,991.89v1.35M458.71,995.6v2.36M458.71,1000.33v2.36M458.71,1005.06v2.36M458.71,1009.78v2.36M458.71,1014.51v2.36M458.71,1019.23v2.7M458.71,1024.3v2.36M458.71,1029.02v2.36M458.71,1033.75v2.36M458.71,1038.47v1.35M458.71,1045.56h55.69M514.41,1045.56v-5.74M514.41,1039.82h-55.69M424.29,776.89l-1.35,2.36M421.59,781.61l-1.02,2.02M419.22,785.66l-1.35,2.02M416.86,789.71l-1.35,2.02M414.5,793.76l-1.35,2.36M412.13,798.15l-1.35,2.02M409.77,802.2l-1.35,2.03M407.41,806.25l-1.35,2.03M404.71,810.3l-1.01,2.37M402.35,814.69l-1.01,2.03M399.98,818.74l-1.01,2.03M397.62,822.79l-1.01,2.02M395.26,827.18l-1.01,2.02M392.9,831.23l-1.01,2.02M390.53,835.28l-1.35,2.02M388.17,839.33l-1.69,2.7M424.29,852.16h-1.69M420.23,851.82l-2.36-.34M415.51,851.48l-2.36-.34M410.78,850.81l-2.36-.68M406.06,849.46l-2.36-.34"/>
  <path class="st4" d="M401.33,848.44l-2.36-.68M396.95,846.76l-2.36-1.01M392.56,844.73l-2.02-1.01M388.17,842.71l-1.69-.68M428.67,931.81h-3.71M428.67,856.21v75.61M424.96,856.21h3.71M424.96,931.81v-75.61M424.96,781.61h3.71M424.96,847.09v-65.48M428.67,847.09h-3.71M428.67,781.61v65.48M436.1,850.47v-72.23M436.1,850.47v-72.23M436.1,931.81v-75.61M424.29,778.24v72.23M424.29,781.61v65.48M424.29,856.21v75.61M430.7,850.47h5.4M430.7,778.24h5.4M430.7,781.61v65.48M430.7,778.24v72.23M430.7,850.47h5.4M430.7,847.09v3.38M424.29,847.09h6.41M424.29,856.21v-9.11M436.1,856.21h-11.81M436.1,850.47v5.74M424.29,931.81h11.81M424.29,935.86v-4.05M436.1,935.86h-11.81M436.1,931.81v4.05M424.29,774.19h11.81M424.29,781.61v-7.43M430.7,781.61h-6.41M430.7,778.24v3.38M436.1,778.24h-5.4M436.1,774.19v4.05M424.29,852.16v-75.27M424.29,776.21v76.28M424.29,776.89v75.27M424.29,778.24v72.23M424.29,850.47v-72.23M424.29,852.49v-76.28M424.29,847.09v-65.48M424.29,781.61v65.48M510.02,744.48h-51.3M458.71,744.48v28.69M458.71,773.17h-24.64M434.07,773.17v1.01M434.07,935.86v1.01M434.07,936.88h24.64M458.71,936.88v102.94M458.71,1045.56v118.14M556.93,1163.69h63.45M626.13,1163.69h8.78M634.9,962.87h127.58M762.49,962.87v-218.38M707.13,744.48v-32.4M707.13,712.08h-1.01M625.79,712.08h-1.01M510.69,712.08h-.68M510.02,712.08v32.4M780.04,1179.56h-153.91M627.14,1163.69h-1.01M554.57,1179.56h-91.81M458.71,1094.84v47.59"/>
  <path class="st4" d="M458.71,1046.91v95.52M634.9,1156.94v6.75M634.9,1148.17v8.77M634.9,1022.61v54.68M640.3,1079.65v62.78M760.8,1022.61h-117.8M705.78,1145.47l-1.01-12.82M704.77,1132.64l-3.71-12.15M701.06,1120.49l-6.08-11.47M694.98,1109.02l-8.44-10.13M686.54,1098.89l-9.79-8.1M676.76,1090.79l-11.48-6.08M665.28,1084.71l-12.15-3.71M653.13,1081l-12.83-1.35M641.32,1077.29h-6.41M634.9,1148.17h6.41M640.3,1145.47h65.48M640.3,1142.43v3.04M640.3,1142.43v-62.78"/>
  <path class="st22" d="M641.32,1029.02h113.07M641.32,1077.29v-48.27M641.32,1155.59v-7.43M754.39,1155.59h-113.07M754.39,1029.02v126.57"/>
  <path class="st4" d="M780.04,962.87v7.76M762.49,962.87h-7.77M754.72,962.87v7.76M754.72,970.63h7.77M706.8,962.87h-63.79M643,970.63h63.79M706.8,970.63v-7.76M706.8,962.87h47.93M754.72,970.63h-47.93M754.72,962.87v7.76M706.8,970.63v-7.76M634.9,962.87v59.74M643,962.87h-8.1M419.9,728.28v44.89M419.9,773.18h22.62M419.9,1018.22v161.34M442.51,1018.22h-22.62M419.9,1018.22h2.02M428.68,936.88v-1.01M428.68,774.19v-1.01M428.68,773.18h-8.78M442.51,936.88h-13.84M428.68,773.18v1.01M428.68,935.86v1.01M428.68,773.18h5.4M510.02,728.28v-30.38M510.02,697.91h-90.12M419.9,697.91v30.38M780.04,697.91h-72.91M707.13,697.91v30.38M707.13,706.68v-8.78M707.13,706.68h-1.01M625.79,706.68h-1.01M510.69,706.68h-.67M510.02,712.08v-5.4M707.13,706.68v5.4M510.02,697.91v8.78M510.02,706.68h.67M624.78,706.68h1.01M706.12,706.68h1.01M430.7,1018.22h11.81M442.51,1018.22v-81.34"/>
  <path class="st4" d="M442.51,936.88h-11.81M430.7,936.88v81.34M421.92,1018.22h8.78M430.7,1018.22v-81.34M430.7,936.88h-8.78M421.92,936.88v81.34M780.04,697.91v481.65M462.76,1179.56h-42.86"/>
  <g class="st7">
    <path class="st3" d="M1139.17,618.25h-6.07M1115.55,538.93l-16.2,7.09M1103.73,563.57l-4.39-17.55M1076.05,534.88l27.68,28.69M1076.05,534.88l39.49,4.05M1076.05,534.88l23.29,11.14M1139.17,857.56h-6.07M1139.17,697.91h-6.07M1139.17,777.56h-6.07M1139.17,857.56v-239.31M12.84,1317.27h1183.71"/>
    <path d="M1117.78,1266.36c.43-.28.75-.67.96-1.17.21-.5.32-1.12.32-1.85,0-.58-.11-1.1-.32-1.57-.21-.47-.51-.82-.89-1.07-.38-.25-.78-.37-1.21-.37s-.82.11-1.15.34c-.33.23-.6.58-.82,1.05-.14.33-.32.93-.52,1.8-.19.87-.38,1.42-.57,1.62-.19.21-.42.32-.71.32-.33,0-.62-.15-.86-.45-.24-.3-.35-.77-.35-1.42s.13-1.1.39-1.42c.26-.32.64-.51,1.15-.56l-.08-1.03c-.47.02-.89.15-1.27.4-.37.25-.66.6-.85,1.06-.19.46-.29.99-.29,1.59,0,.55.09,1.05.28,1.49.18.45.45.79.8,1.02.36.23.74.35,1.14.35.37,0,.7-.1,1-.28.3-.19.55-.48.75-.87.16-.3.33-.82.5-1.57.18-.75.31-1.23.4-1.45.13-.34.29-.59.47-.73.19-.15.41-.22.66-.22s.48.08.69.23c.21.15.38.39.49.7.12.31.18.68.18,1.09,0,.46-.08.88-.24,1.25-.16.37-.37.65-.62.82-.26.17-.59.29-.99.34l.09,1.01c.54-.02,1.02-.16,1.45-.45M1118.92,1257.64h-2.79l-1.29-1.33,4.08-2.9v-1.42l-4.79,3.57-3.26-3.41v1.46l4,4.04h-4v1.08h8.06v-1.08Z"/>
    <path d="M1113.26,1248.12h.92v-5.37h-.92v5.37ZM1115.7,1248.12h.92v-5.37h-.92v5.37Z"/>
    <path d="M1117.78,1238.01c.43-.28.75-.67.96-1.17.21-.5.32-1.11.32-1.85,0-.58-.1-1.1-.31-1.57-.21-.47-.51-.82-.89-1.07-.38-.25-.78-.37-1.21-.37s-.81.11-1.14.34c-.33.23-.61.58-.82,1.05-.15.33-.32.93-.52,1.8-.2.88-.39,1.42-.57,1.63-.19.21-.42.31-.72.31-.33,0-.62-.15-.86-.45-.23-.3-.35-.77-.35-1.42s.13-1.1.39-1.42c.26-.32.65-.51,1.16-.56l-.08-1.03c-.47.02-.9.15-1.27.4-.38.25-.66.6-.85,1.07-.19.46-.29.99-.29,1.59,0,.55.09,1.05.27,1.49.18.45.45.79.81,1.02.35.23.73.35,1.14.35.37,0,.7-.1,1-.29.3-.19.55-.48.75-.87.16-.3.32-.83.5-1.57.18-.74.31-1.23.39-1.45.13-.34.29-.59.48-.73.19-.15.41-.22.66-.22s.48.07.69.23c.21.15.38.39.5.7.12.31.18.68.18,1.09,0,.46-.08.88-.24,1.25-.16.37-.37.64-.63.82-.26.17-.59.29-.99.34l.09,1.01c.54-.01,1.02-.16,1.45-.45"/>
    <path d="M1118.92,1229.79h-2.32l-.67-.71,2.98-1.95v-1.23l-3.67,2.48-2.16-2.26v1.29l2.37,2.37h-4.6v1h8.06v-1ZM1118.92,1220.66v-1.04c-.22.12-.46.21-.7.25-.24.04-.82.07-1.74.07h-1.32c-.44,0-.74.02-.91.05-.27.06-.49.16-.67.31-.18.15-.33.38-.44.69-.12.31-.17.72-.17,1.23s.07.95.21,1.33c.13.38.33.68.59.88.25.2.59.35,1,.44l.13-.98c-.42-.11-.7-.27-.87-.5-.16-.22-.24-.57-.24-1.04,0-.5.11-.88.33-1.14.17-.19.45-.28.86-.28.04,0,.12,0,.26,0,.13.38.24.97.34,1.78.05.4.09.69.15.89.07.27.18.5.33.72.14.21.33.38.57.52.24.13.5.2.78.2.49,0,.89-.17,1.2-.52s.47-.84.47-1.49c0-.39-.07-.76-.19-1.1-.13-.34-.35-.7-.66-1.07.27-.03.51-.1.72-.2M1116.35,1220.95c.44,0,.77.05.99.16.29.14.52.36.68.66.17.3.25.64.25,1.02s-.09.69-.27.89c-.17.2-.39.3-.66.3-.17,0-.33-.05-.47-.14-.14-.09-.25-.22-.33-.39-.07-.17-.14-.46-.2-.87-.1-.73-.23-1.27-.38-1.63h.36Z"/>
    <path d="M1118.92,1217.63h-2.32l-.67-.71,2.99-1.95v-1.23l-3.67,2.48-2.16-2.25v1.29l2.37,2.37h-4.6v1h8.06v-1ZM1118.07,1211.16c0,.15-.03.26-.07.34-.05.08-.11.14-.19.17-.08.03-.26.05-.55.05h-3.41v-1.01h-.77v1.01h-2.04l.59.99h1.45v.73h.77v-.73h3.36c.59,0,.98-.04,1.17-.12.19-.08.34-.22.45-.42.11-.2.17-.48.17-.84,0-.22-.03-.47-.09-.76l-.87.14c.03.18.04.33.04.44"/>
    <path d="M1132.08,1265.31h-3.66v-3.82h-.95v3.82h-2.49v-4.41h-.95v5.49h8.06v-1.08ZM1130.94,1259.61c.43-.28.74-.67.96-1.17.21-.5.32-1.11.32-1.85,0-.58-.1-1.11-.31-1.57-.21-.46-.51-.82-.89-1.07-.38-.25-.78-.37-1.21-.37s-.81.11-1.14.34c-.33.23-.61.58-.82,1.05-.15.33-.32.93-.51,1.8-.2.88-.39,1.42-.57,1.63-.19.21-.43.31-.72.31-.33,0-.62-.15-.86-.45-.23-.3-.35-.77-.35-1.42s.13-1.1.39-1.42c.26-.32.65-.51,1.16-.56l-.08-1.03c-.47.02-.9.15-1.27.4-.38.25-.66.6-.85,1.07-.19.46-.29.99-.29,1.59,0,.55.09,1.05.27,1.49.18.45.45.79.81,1.02.35.24.73.35,1.14.35.37,0,.7-.1,1-.29.3-.19.55-.48.75-.87.16-.3.33-.83.5-1.57.18-.74.31-1.23.39-1.45.13-.34.29-.59.48-.73.19-.15.41-.22.66-.22s.48.07.69.23c.21.15.38.39.5.7.12.31.18.68.18,1.09,0,.46-.08.88-.24,1.25-.16.37-.37.64-.63.82-.26.17-.59.29-.99.34l.09,1.01c.54-.01,1.02-.16,1.45-.45"/>
    <path d="M1126.42,1249.14h.92v-5.37h-.92v5.37ZM1128.87,1249.14h.92v-5.37h-.92v5.37Z"/>
    <polygon points="1132.08 1237.97 1128.42 1237.97 1128.42 1234.16 1127.47 1234.16 1127.47 1237.97 1124.98 1237.97 1124.98 1233.56 1124.03 1233.56 1124.03 1239.05 1132.08 1239.05 1132.08 1237.97"/>
    <path d="M1131.43,1231.75c.52-.51.79-1.18.79-2,0-.51-.12-.99-.36-1.42-.24-.43-.57-.76-1-.99-.43-.23-1.02-.34-1.77-.34-.93,0-1.66.26-2.18.77-.53.52-.79,1.18-.79,1.99,0,.73.22,1.35.65,1.85.52.61,1.32.91,2.4.91.99,0,1.74-.25,2.26-.76M1127.49,1230.99c-.37-.33-.56-.74-.56-1.24s.19-.9.56-1.23c.37-.33.92-.5,1.64-.5.77,0,1.34.16,1.71.49.37.33.56.74.56,1.24s-.19.91-.56,1.24c-.37.33-.93.49-1.68.49s-1.31-.16-1.68-.49M1132.08,1225.08h-3.06c-.42,0-.8-.06-1.15-.17-.23-.07-.41-.2-.54-.37-.13-.18-.2-.37-.2-.59,0-.24.07-.49.22-.73l-.92-.34c-.21.35-.32.69-.32,1.03,0,.23.06.45.2.64.13.19.4.4.82.63h-.89v.9h5.84v-1Z"/>
    <path d="M1131.12,1218.93c.19.26.29.57.29.94,0,.49-.17.9-.51,1.23-.34.33-.83.51-1.47.55v-4.4c-.12,0-.2,0-.26,0-.96,0-1.71.25-2.24.75-.53.5-.8,1.14-.8,1.93s.27,1.47.82,1.98c.54.51,1.3.77,2.29.77s1.69-.25,2.21-.76c.53-.5.79-1.19.79-2.05,0-.68-.17-1.25-.49-1.69-.33-.44-.79-.74-1.39-.9l-.13,1.03c.42.15.72.36.91.62M1127.38,1221.08c-.3-.31-.46-.7-.46-1.16,0-.51.19-.92.57-1.24.25-.21.61-.33,1.11-.38v3.29c-.51-.03-.92-.21-1.22-.52M1131.74,1215.57c.31-.4.47-.98.47-1.75,0-.46-.08-.88-.24-1.24-.16-.37-.39-.65-.68-.84-.29-.19-.6-.29-.93-.29s-.62.08-.85.24c-.23.16-.4.38-.52.66-.12.28-.27.77-.46,1.48-.13.49-.22.78-.25.88-.07.17-.16.3-.27.38-.1.08-.22.12-.34.12-.2,0-.38-.1-.53-.3-.15-.19-.22-.52-.22-.98,0-.39.08-.69.25-.9.17-.21.4-.34.7-.38l-.13-.97c-.38.06-.68.18-.9.34-.22.17-.4.42-.54.77-.13.35-.2.76-.2,1.22,0,.31.04.59.12.87.08.27.18.48.29.63.14.21.33.37.55.49.22.12.46.18.72.18.29,0,.55-.07.78-.22.23-.15.42-.36.55-.64.14-.28.29-.79.48-1.52.13-.55.25-.88.33-1.02.13-.2.3-.29.53-.29.25,0,.47.11.65.33.19.22.28.56.28,1.02s-.1.81-.31,1.06c-.21.25-.51.41-.9.46l.16.99c.62-.11,1.09-.37,1.4-.77M1124.02,1210.19h8.06v-1h-8.06v1ZM1132.08,1203.51v-1.04c-.22.13-.46.21-.7.25-.25.04-.82.06-1.74.06h-1.32c-.44,0-.74.02-.91.05-.27.06-.5.17-.67.31-.18.15-.33.38-.44.69-.12.31-.18.72-.18,1.23s.07.95.21,1.34c.14.38.34.68.59.88.25.21.59.35,1,.44l.13-.98c-.42-.11-.7-.27-.87-.5-.16-.22-.25-.57-.25-1.04,0-.5.11-.88.34-1.14.17-.19.45-.28.85-.28.04,0,.13,0,.26,0,.13.38.25.97.34,1.78.05.4.1.69.15.89.07.27.18.5.32.72.14.21.33.38.57.52.23.13.5.2.78.2.49,0,.89-.17,1.2-.52s.47-.84.47-1.49c0-.39-.06-.76-.19-1.1-.13-.34-.35-.7-.66-1.07.27-.03.51-.1.72-.2M1129.52,1203.79c.44,0,.77.06.99.16.29.14.52.36.68.66.17.3.25.64.25,1.03s-.09.69-.27.89c-.17.2-.39.3-.66.3-.17,0-.33-.04-.47-.14-.14-.09-.25-.22-.32-.39-.08-.17-.14-.46-.2-.87-.1-.72-.23-1.27-.37-1.63h.36ZM1125.46,1205.88c.2-.19.29-.43.29-.71s-.1-.5-.29-.7c-.2-.2-.44-.3-.72-.3s-.52.1-.71.3c-.2.2-.3.43-.3.7s.1.5.29.7.43.3.69.3c.29,0,.54-.1.74-.3M1124.32,1205.58c-.12-.12-.18-.26-.18-.41s.06-.3.18-.42c.12-.11.26-.17.42-.17s.31.06.42.17c.12.12.17.25.17.42s-.06.29-.17.41c-.12.12-.26.17-.44.17-.16,0-.3-.06-.41-.17M1131.12,1197.72c.19.26.29.57.29.94,0,.49-.17.9-.51,1.23-.34.33-.83.51-1.47.55v-4.4c-.12,0-.2,0-.26,0-.96,0-1.71.25-2.24.75-.53.5-.8,1.15-.8,1.93s.27,1.48.82,1.98c.54.51,1.3.76,2.29.76s1.69-.25,2.21-.76c.53-.5.79-1.19.79-2.05,0-.68-.17-1.25-.49-1.69-.33-.44-.79-.74-1.39-.9l-.13,1.03c.42.15.72.36.91.61M1127.38,1199.87c-.3-.31-.46-.7-.46-1.16,0-.51.19-.92.57-1.24.25-.21.61-.33,1.11-.38v3.29c-.51-.03-.92-.21-1.22-.52"/>
    <path d="M1131.24,1192.93c0,.15-.03.26-.07.34-.05.08-.11.14-.19.17s-.26.05-.55.05h-3.41v-1.01h-.77v1.01h-2.04l.59,1h1.45v.73h.77v-.73h3.36c.59,0,.98-.04,1.17-.12.18-.08.33-.22.45-.42.12-.2.17-.48.17-.84,0-.22-.03-.47-.09-.75l-.87.14c.03.18.04.33.04.44M1131.74,1188.24c.32-.4.47-.98.47-1.75,0-.46-.08-.88-.24-1.25-.16-.37-.38-.65-.68-.84-.29-.2-.6-.29-.93-.29s-.62.08-.84.24c-.23.16-.4.38-.52.66-.12.28-.27.77-.46,1.48-.13.49-.22.78-.25.88-.07.17-.16.3-.27.38-.1.08-.21.12-.34.12-.2,0-.38-.1-.53-.3-.15-.2-.22-.52-.22-.98,0-.39.09-.69.25-.9.17-.21.4-.34.7-.38l-.13-.98c-.38.06-.68.18-.91.34-.22.17-.4.43-.53.78-.13.35-.2.76-.2,1.22,0,.31.04.59.12.86.08.27.18.48.29.63.15.21.33.37.55.49.22.12.46.18.72.18.29,0,.55-.07.78-.22.23-.14.42-.36.56-.65.13-.28.29-.79.47-1.52.14-.54.25-.88.34-1.02.13-.19.3-.29.53-.29.25,0,.47.11.65.33.18.22.28.56.28,1.02s-.1.81-.31,1.06c-.21.25-.51.41-.9.46l.15.99c.62-.11,1.09-.36,1.4-.77"/>
    <path d="M1132.08,1181.52h-2.32l-.67-.71,2.98-1.95v-1.23l-3.67,2.48-2.16-2.25v1.29l2.37,2.36h-4.6v1h8.06v-1ZM1132.08,1172.74v-1.04c-.22.12-.46.21-.7.25-.24.04-.82.07-1.74.07h-1.32c-.44,0-.74.02-.91.05-.27.06-.5.16-.67.31-.18.15-.33.38-.44.69-.12.31-.17.72-.17,1.23s.07.95.2,1.33c.14.38.34.68.59.88.25.2.59.35,1,.44l.13-.98c-.41-.11-.7-.27-.87-.5-.16-.22-.24-.57-.24-1.04,0-.5.11-.88.33-1.14.17-.19.45-.28.85-.28.04,0,.12,0,.26,0,.14.38.25.97.35,1.78.04.4.09.69.15.89.07.27.18.5.33.72.14.21.33.38.57.52.23.13.5.2.78.2.49,0,.89-.17,1.2-.52.31-.35.47-.84.47-1.49,0-.39-.07-.76-.2-1.1-.13-.34-.34-.7-.66-1.07.27-.03.51-.1.72-.2M1129.52,1173.02c.44,0,.77.05.99.16.29.14.52.36.68.66.17.3.25.64.25,1.02s-.09.69-.27.89c-.17.2-.39.3-.66.3-.17,0-.33-.05-.47-.14-.14-.09-.25-.22-.32-.39-.07-.17-.14-.46-.2-.87-.1-.73-.23-1.27-.38-1.63h.36Z"/>
    <path d="M1131.35,1169.79c.57-.39.86-.94.86-1.64s-.27-1.3-.82-1.8c-.55-.5-1.32-.75-2.32-.75-.42,0-.82.06-1.19.18-.37.12-.69.28-.95.49-.26.21-.47.48-.61.8-.14.32-.22.67-.22,1.03,0,.65.26,1.19.79,1.61h-2.88v1h8.06v-.93h-.73ZM1127.49,1169.32c-.38-.32-.56-.69-.56-1.13s.18-.8.54-1.11c.36-.3.93-.46,1.69-.46s1.3.16,1.68.48.56.69.56,1.13c0,.53-.25.96-.76,1.27-.31.19-.82.29-1.52.29s-1.25-.16-1.63-.48"/>
    <path d="M1131.05,858.98c.56-.45.84-1.06.84-1.85,0-.6-.16-1.09-.48-1.48-.31-.39-.77-.68-1.34-.88-.58-.2-1.35-.29-2.29-.29-.8,0-1.43.06-1.9.18-.47.12-.87.29-1.2.5-.33.21-.58.49-.76.81-.18.33-.26.71-.26,1.15,0,.59.16,1.08.47,1.47.31.39.76.69,1.34.88.58.2,1.35.29,2.3.29,1.51,0,2.6-.27,3.27-.8M1125.05,858.25c-.39-.28-.58-.64-.58-1.1s.22-.85.66-1.17c.43-.31,1.32-.47,2.64-.47s2.2.16,2.64.47c.44.31.66.7.66,1.16s-.22.84-.65,1.16c-.44.31-1.32.47-2.64.47s-2.23-.17-2.72-.52M1130.8,705.29c-.18-.11-.36-.25-.53-.42-.18-.17-.52-.55-1.02-1.15-.6-.72-1.08-1.23-1.42-1.54-.34-.31-.67-.53-.99-.66-.31-.13-.63-.2-.95-.2-.63,0-1.16.23-1.59.68-.43.46-.64,1.07-.64,1.86s.2,1.39.59,1.85c.4.46.98.73,1.74.8l.1-1.03c-.51,0-.9-.15-1.19-.44-.29-.29-.43-.68-.43-1.16,0-.46.14-.83.41-1.11.27-.28.6-.43.99-.43s.77.16,1.19.47c.42.31.99.91,1.71,1.79.46.57.87,1.01,1.22,1.31.35.3.71.52,1.07.66.22.08.45.12.69.11v-5.38h-.95v3.99Z"/>
    <path d="M1131.75,699.2h-3.03c-.53,0-.94-.05-1.22-.16-.28-.11-.5-.28-.65-.52-.15-.24-.22-.5-.22-.78,0-.37.11-.64.33-.8.22-.16.55-.24.99-.24h3.79v-1h-3.39c-.6,0-1.04-.14-1.31-.41-.27-.28-.41-.62-.41-1.04,0-.23.06-.43.16-.6.11-.17.25-.29.42-.35.17-.07.46-.1.86-.1h3.67v-1h-4.01c-.66,0-1.16.16-1.48.47-.32.31-.48.76-.48,1.35,0,.75.34,1.35,1.02,1.82-.32.11-.57.31-.75.59-.18.28-.27.64-.27,1.07,0,.39.08.74.26,1.05.17.31.4.55.69.74h-.82v.9h5.83v-1Z"/>
    <path d="M1123.66,780.08v.64c.35.17.71.47,1.08.89.37.42.69.9.95,1.46h.95c-.11-.31-.28-.66-.51-1.05-.23-.39-.46-.7-.68-.95h6.3v-1h-8.09ZM1131.75,776.16h-3.03c-.53,0-.94-.05-1.22-.16-.28-.11-.5-.28-.65-.52-.15-.24-.22-.5-.22-.78,0-.37.11-.63.33-.8.22-.16.55-.24.99-.24h3.79v-1h-3.39c-.6,0-1.04-.14-1.31-.41-.27-.27-.41-.62-.41-1.03,0-.23.06-.43.16-.6.11-.17.25-.29.42-.35.17-.07.46-.1.86-.1h3.67v-.99h-4.01c-.66,0-1.16.16-1.48.47-.32.31-.48.76-.48,1.35,0,.75.34,1.35,1.02,1.82-.32.11-.57.31-.75.59-.18.28-.27.64-.27,1.07,0,.39.08.74.26,1.05.17.31.4.55.69.74h-.82v.89h5.83v-1Z"/>
    <path d="M1131.75,954.91h-6.86l6.86-2.35v-.97l-6.74-2.36h6.74v-1.04h-8.06v1.45l5.61,1.94c.57.2,1,.34,1.29.44-.26.08-.66.21-1.19.39l-5.71,1.92v1.62h8.06v-1.04ZM1131.75,942.88v-1.04c-.22.13-.46.21-.7.25-.24.04-.82.06-1.74.06h-1.32c-.44,0-.74.02-.91.05-.27.06-.49.16-.67.31-.17.15-.33.38-.44.69-.12.31-.17.72-.17,1.23s.07.95.21,1.34c.14.39.33.68.59.88.25.21.59.35,1,.44l.13-.98c-.42-.11-.7-.27-.87-.49-.16-.22-.24-.57-.24-1.04,0-.5.11-.88.34-1.14.16-.19.45-.28.85-.28.04,0,.12,0,.26,0,.13.38.25.97.34,1.78.05.4.1.69.15.89.08.26.18.5.33.72.14.21.33.38.57.51.23.13.5.2.78.2.49,0,.89-.18,1.2-.52.31-.35.47-.85.47-1.49,0-.39-.07-.76-.19-1.1-.13-.34-.35-.7-.66-1.07.27-.03.52-.1.72-.2M1129.18,943.16c.44,0,.77.06.99.16.29.14.52.36.69.66.16.3.25.64.25,1.03s-.09.68-.26.88c-.18.2-.4.3-.66.3-.17,0-.33-.05-.47-.14-.14-.09-.25-.22-.32-.39-.07-.17-.14-.46-.2-.87-.1-.72-.22-1.27-.37-1.63h.36ZM1125.12,945.26c.2-.2.29-.43.29-.71s-.09-.5-.29-.7c-.19-.2-.43-.29-.71-.29s-.52.1-.71.29c-.2.2-.29.43-.29.7s.09.5.29.7c.2.2.43.3.69.3.29,0,.54-.1.73-.29M1123.98,944.95c-.12-.12-.17-.26-.17-.41s.06-.3.17-.42c.12-.11.26-.17.43-.17s.3.06.42.18c.12.12.18.25.18.42s-.06.29-.18.41c-.12.12-.26.18-.43.18-.16,0-.3-.06-.42-.18"/>
    <rect x="1123.69" y="939.54" width="8.06" height="1"/>
    <path d="M1123.66,931.29v.64c.35.18.71.47,1.08.89.37.42.68.9.95,1.46h.95c-.12-.31-.29-.66-.51-1.05-.23-.39-.46-.7-.69-.94h6.31v-1h-8.09ZM1125.91,928.09h1.13v-1.14h-1.13v1.14ZM1130.62,928.09h1.13v-1.14h-1.13v1.14Z"/>
    <path d="M1131.27,924.8c.41-.47.61-1.07.61-1.81,0-.9-.33-1.61-.98-2.14-.53-.43-1.16-.64-1.89-.64s-1.39.24-1.88.73c-.49.49-.73,1.09-.73,1.8,0,.54.17,1.05.51,1.54l-2.17-.44v-3.25h-.94v4.05l4.14.79.12-.94c-.23-.15-.42-.35-.56-.61-.14-.26-.22-.55-.22-.87,0-.52.16-.94.49-1.26.33-.32.77-.48,1.33-.48.59,0,1.07.17,1.43.5.36.33.54.74.54,1.22,0,.4-.13.74-.38,1.03-.26.28-.64.46-1.14.54l.09,1.05c.68-.07,1.22-.34,1.63-.8M1131.05,918.39c.56-.45.83-1.06.83-1.85,0-.6-.16-1.09-.48-1.48-.31-.39-.76-.68-1.35-.88-.58-.2-1.34-.3-2.29-.3-.8,0-1.43.06-1.9.18-.47.12-.87.29-1.2.51-.33.21-.58.49-.76.82-.18.33-.26.71-.26,1.15,0,.59.16,1.08.47,1.47.31.39.76.68,1.34.88.58.2,1.35.3,2.3.3,1.51,0,2.6-.27,3.28-.81M1125.05,917.65c-.39-.27-.58-.64-.58-1.1s.22-.86.65-1.17,1.32-.47,2.64-.47,2.2.15,2.64.47c.44.31.66.7.66,1.16s-.22.84-.66,1.16c-.44.31-1.32.47-2.64.47s-2.23-.17-2.72-.51"/>
    <polygon class="st20" points="1131.75 567.96 1109.13 556.82 1115.88 542.31 1138.83 553.45 1131.75 567.96"/>
    <polygon points="1128.99 562.22 1117.65 556.72 1132.68 554.6 1133.63 552.64 1119.19 545.65 1118.3 547.48 1129.64 552.97 1114.62 555.1 1113.66 557.06 1128.1 564.06 1128.99 562.22"/>
    <path d="M1131.26,626.08c.42-.47.64-1.07.64-1.78,0-.79-.25-1.45-.73-1.97-.49-.52-1.09-.77-1.79-.77-.52,0-.95.13-1.3.4-.34.27-.57.64-.68,1.12-.17-.37-.4-.65-.68-.84-.29-.19-.61-.28-.95-.28-.36,0-.71.1-1.04.3-.33.2-.59.49-.77.86-.19.37-.28.78-.28,1.22,0,.64.18,1.18.55,1.62.36.43.88.71,1.54.83l.17-1c-.48-.07-.84-.24-1.09-.5s-.36-.58-.36-.97.12-.71.36-.96c.24-.25.54-.37.9-.37.46,0,.79.17,1.02.51.22.34.33.72.33,1.15,0,.04,0,.09-.01.16l.87.11c-.07-.28-.11-.52-.11-.7,0-.47.14-.85.44-1.15.29-.3.67-.45,1.12-.45s.87.16,1.2.48c.32.33.48.72.48,1.19,0,.4-.12.73-.37,1.01-.25.27-.65.47-1.21.58l.13,1c.67-.07,1.22-.34,1.64-.81M1131.75,619.55h-3.03c-.53,0-.94-.05-1.22-.16-.28-.1-.5-.28-.65-.52-.15-.24-.22-.5-.22-.78,0-.37.11-.63.33-.8.22-.16.55-.24.99-.24h3.79v-1h-3.39c-.6,0-1.04-.14-1.31-.41-.27-.27-.41-.62-.41-1.03,0-.23.06-.43.16-.6.11-.17.25-.29.42-.35.17-.07.46-.1.86-.1h3.67v-.99h-4.01c-.66,0-1.16.16-1.48.47-.32.31-.48.76-.48,1.35,0,.75.34,1.35,1.02,1.82-.32.11-.57.31-.75.59-.18.28-.27.64-.27,1.07,0,.39.08.74.26,1.05.17.31.4.55.69.74h-.82v.89h5.83v-1Z"/>
    <rect class="st20" x="51.32" y="1183.95" width="18.9" height="111.72"/>
    <path d="M54.77,1289.39v.96c.52.26,1.05.69,1.61,1.32.55.62,1.02,1.34,1.41,2.17h1.43c-.17-.46-.42-.98-.76-1.56-.34-.58-.68-1.05-1.02-1.41h9.41v-1.48h-12.08ZM65.16,1284.68h1.68v-1.69h-1.68v1.69ZM65.14,1280.02c.64-.42,1.11-1,1.43-1.74.32-.74.48-1.65.48-2.75,0-.86-.16-1.63-.47-2.33-.31-.69-.76-1.22-1.32-1.58-.57-.37-1.17-.55-1.81-.55s-1.22.17-1.71.5c-.49.34-.9.85-1.23,1.56-.22.48-.48,1.37-.77,2.67s-.58,2.1-.86,2.41c-.28.31-.63.47-1.06.47-.5,0-.92-.22-1.28-.66-.36-.44-.53-1.15-.53-2.11s.2-1.63.58-2.1c.39-.47.96-.75,1.72-.84l-.12-1.53c-.7.03-1.34.23-1.89.59-.56.37-.98.89-1.27,1.58-.29.68-.43,1.47-.43,2.37,0,.81.14,1.55.41,2.21.27.67.67,1.17,1.2,1.52.53.35,1.1.52,1.71.52.55,0,1.05-.14,1.5-.42.44-.28.82-.71,1.12-1.29.23-.44.49-1.22.75-2.33.27-1.11.46-1.83.59-2.15.19-.51.43-.87.71-1.09.28-.22.61-.33.99-.33s.72.11,1.03.34c.32.23.56.57.74,1.04.18.47.27,1.01.27,1.61,0,.69-.12,1.3-.36,1.85-.24.55-.55.95-.94,1.21-.38.26-.88.43-1.48.5l.13,1.51c.81-.02,1.53-.24,2.16-.66M66.84,1263.01v-1.55c-.33.19-.68.31-1.05.38-.36.06-1.23.09-2.6.09h-1.97c-.66,0-1.11.03-1.36.07-.41.09-.74.24-1.01.46-.26.22-.48.56-.66,1.03-.18.47-.27,1.07-.27,1.82s.1,1.41.31,1.99c.2.57.5,1.01.88,1.31.38.3.88.52,1.5.65l.2-1.45c-.62-.16-1.05-.4-1.29-.74-.24-.33-.36-.84-.36-1.54,0-.75.17-1.31.5-1.69.25-.28.67-.42,1.27-.42.05,0,.18,0,.38,0,.2.56.37,1.45.51,2.64.07.59.14,1.02.22,1.32.11.4.27.75.48,1.07.21.31.5.57.85.76.35.2.74.29,1.17.29.73,0,1.32-.26,1.8-.77.46-.52.7-1.25.7-2.21,0-.58-.1-1.13-.29-1.63-.19-.51-.52-1.04-.98-1.59.41-.05.77-.14,1.07-.3M63.01,1263.42c.65,0,1.14.08,1.48.24.43.21.77.53,1.02.98.25.45.37.95.37,1.53s-.13,1.01-.39,1.31c-.26.3-.59.45-.98.45-.26,0-.49-.07-.7-.21-.21-.14-.37-.33-.48-.59-.11-.25-.21-.68-.3-1.29-.15-1.08-.34-1.88-.56-2.42h.54ZM54.82,1259.58h12.03v-1.48h-12.03v1.48ZM58.13,1255.31h1.68v-1.69h-1.68v1.69ZM65.16,1255.31h1.68v-1.69h-1.68v1.69ZM55.56,1240c-.53.6-.79,1.38-.79,2.33,0,1.27.46,2.29,1.38,3.04,1.05.86,2.74,1.29,5.07,1.29,2.08,0,3.57-.39,4.48-1.17.91-.78,1.36-1.78,1.36-3.02,0-.73-.17-1.37-.51-1.94-.35-.57-.84-1.02-1.49-1.35-.65-.33-1.35-.49-2.1-.49-1.15,0-2.08.35-2.81,1.04-.72.69-1.08,1.53-1.08,2.52,0,.57.13,1.11.39,1.62.26.51.66.95,1.21,1.31-1.2,0-2.13-.15-2.78-.42-.65-.27-1.15-.64-1.48-1.11-.26-.35-.39-.77-.39-1.24,0-.59.21-1.08.63-1.48.26-.24.68-.43,1.27-.56l-.12-1.48c-.94.12-1.67.49-2.2,1.09M61.07,1244.26c-.48-.46-.72-1.03-.72-1.7s.24-1.23.72-1.68c.48-.44,1.13-.66,1.96-.66s1.55.22,2.05.67c.5.45.76.99.76,1.61,0,.43-.12.84-.37,1.23-.24.39-.6.69-1.06.91-.47.22-.95.33-1.46.33-.78,0-1.4-.23-1.88-.7M65.16,1236.3h1.68v-1.69h-1.68v1.69ZM66.84,1227.23c0-.77-.07-1.42-.2-1.95-.14-.53-.33-.97-.59-1.32-.26-.35-.64-.65-1.12-.88-.49-.24-1.01-.36-1.57-.36-.7,0-1.31.2-1.82.59-.51.39-.88.95-1.09,1.68-.28-.57-.64-.99-1.1-1.27s-.94-.42-1.45-.42c-.55,0-1.08.16-1.59.48-.5.31-.88.75-1.13,1.31-.24.56-.36,1.3-.36,2.22v4.52h12.02v-4.6ZM56.24,1230.24v-2.41c0-.87.06-1.48.17-1.84.11-.35.32-.63.62-.82.31-.19.66-.29,1.05-.29.42,0,.77.1,1.05.31.28.21.48.51.6.92.09.31.14.82.14,1.52v2.61h-3.64ZM61.29,1230.24v-2.79c0-.77.07-1.36.2-1.77.13-.41.37-.73.7-.96.33-.23.72-.35,1.17-.35.38,0,.72.08,1.01.24.29.16.51.36.67.61.16.25.27.56.33.92.04.21.06.57.06,1.09v3h-4.13ZM65.16,1220.21h1.68v-1.69h-1.68v1.69ZM54.77,1210.69v.95c.52.26,1.05.7,1.61,1.32s1.02,1.35,1.41,2.17h1.43c-.17-.46-.42-.98-.76-1.56-.34-.58-.68-1.05-1.02-1.4h9.41v-1.48h-12.08ZM65.16,1205.99h1.68v-1.69h-1.68v1.69ZM54.77,1196.47v.96c.52.26,1.05.69,1.61,1.32.55.62,1.02,1.34,1.41,2.17h1.43c-.17-.46-.42-.98-.76-1.56-.34-.58-.68-1.05-1.02-1.4h9.41v-1.48h-12.08Z"/>
    <path d="M66.13,1191.51c.61-.69.92-1.59.92-2.69,0-1.34-.49-2.4-1.46-3.17-.79-.64-1.73-.95-2.82-.95s-2.08.36-2.81,1.08c-.73.73-1.09,1.62-1.09,2.67,0,.8.25,1.56.76,2.28l-3.23-.65v-4.81h-1.41v6l6.17,1.17.18-1.39c-.34-.22-.62-.52-.84-.9-.22-.39-.33-.82-.33-1.29,0-.77.24-1.39.73-1.86.49-.47,1.15-.71,1.99-.71.89,0,1.6.25,2.13.74.54.49.81,1.1.81,1.81,0,.59-.19,1.1-.57,1.52-.38.42-.94.69-1.7.8l.13,1.56c1.01-.1,1.82-.49,2.43-1.19"/>
    <rect class="st20" x="74.61" y="1183.95" width="18.9" height="111.72"/>
    <path d="M88.71,1293.1c-.27-.16-.53-.37-.8-.62-.26-.25-.77-.83-1.51-1.71-.9-1.07-1.6-1.83-2.12-2.29-.51-.46-1-.78-1.47-.98-.47-.2-.94-.3-1.42-.3-.95,0-1.74.34-2.38,1.01-.64.67-.96,1.59-.96,2.75s.3,2.06.89,2.74c.59.68,1.45,1.07,2.59,1.18l.16-1.52c-.76,0-1.35-.22-1.77-.65-.43-.43-.64-1-.64-1.71,0-.67.2-1.22.6-1.64s.9-.63,1.48-.63c.55,0,1.15.23,1.77.69.63.46,1.48,1.35,2.55,2.66.69.84,1.3,1.49,1.82,1.94.52.45,1.06.77,1.6.97.33.13.67.18,1.03.17v-7.98h-1.42v5.92ZM88.45,1284.68h1.68v-1.69h-1.68v1.69ZM88.43,1280.02c.64-.42,1.11-1,1.43-1.74.32-.74.48-1.65.48-2.75,0-.86-.16-1.63-.47-2.33-.31-.69-.76-1.22-1.32-1.58-.57-.37-1.17-.55-1.81-.55s-1.22.17-1.71.5c-.49.34-.9.85-1.22,1.56-.22.48-.48,1.37-.77,2.67s-.58,2.1-.86,2.41c-.28.31-.63.47-1.06.47-.5,0-.92-.22-1.28-.66-.35-.44-.53-1.15-.53-2.11s.19-1.63.58-2.1c.39-.47.96-.75,1.72-.84l-.11-1.53c-.71.03-1.34.23-1.89.59-.56.37-.98.89-1.27,1.58-.29.68-.43,1.47-.43,2.37,0,.81.14,1.55.41,2.21.27.67.67,1.17,1.2,1.52.53.35,1.1.52,1.7.52.55,0,1.05-.14,1.5-.42.44-.28.82-.71,1.12-1.29.23-.44.49-1.22.75-2.33.27-1.11.46-1.83.59-2.15.19-.51.43-.87.71-1.09.28-.22.61-.33.99-.33s.72.11,1.03.34c.32.23.56.57.74,1.04.18.47.27,1.01.27,1.61,0,.69-.12,1.3-.36,1.85-.24.55-.55.95-.94,1.21-.38.26-.88.43-1.48.5l.13,1.51c.8-.02,1.53-.24,2.16-.66M90.13,1263.01v-1.55c-.33.19-.68.31-1.05.38-.36.06-1.23.09-2.6.09h-1.97c-.66,0-1.11.03-1.37.07-.4.09-.74.24-1,.46-.26.22-.48.56-.66,1.03-.17.47-.26,1.07-.26,1.82s.1,1.41.31,1.99c.21.57.5,1.01.88,1.31.38.3.88.52,1.5.65l.2-1.45c-.62-.16-1.05-.4-1.29-.74-.24-.33-.36-.84-.36-1.54,0-.75.17-1.31.5-1.69.25-.28.67-.42,1.27-.42.06,0,.19,0,.39,0,.2.56.36,1.45.51,2.64.07.59.14,1.02.22,1.32.11.4.27.75.48,1.07.21.31.5.57.85.76.35.2.74.29,1.17.29.73,0,1.32-.26,1.8-.77.46-.52.7-1.25.7-2.21,0-.58-.1-1.13-.29-1.63-.19-.51-.52-1.04-.98-1.59.41-.05.77-.14,1.07-.3M86.3,1263.42c.65,0,1.14.08,1.48.24.44.21.77.53,1.02.98.25.45.37.95.37,1.53s-.13,1.01-.39,1.31c-.26.3-.59.45-.98.45-.26,0-.49-.07-.7-.21-.21-.14-.37-.33-.48-.59-.11-.25-.21-.68-.29-1.29-.15-1.08-.34-1.88-.56-2.42h.54ZM78.11,1259.58h12.03v-1.48h-12.03v1.48ZM81.42,1255.31h1.68v-1.69h-1.68v1.69ZM88.45,1255.31h1.68v-1.69h-1.68v1.69ZM78.85,1240c-.53.6-.79,1.38-.79,2.33,0,1.27.46,2.29,1.38,3.04,1.05.86,2.74,1.29,5.07,1.29,2.08,0,3.57-.39,4.48-1.17.91-.78,1.36-1.78,1.36-3.02,0-.73-.17-1.37-.51-1.94-.35-.57-.84-1.02-1.49-1.35-.65-.33-1.35-.49-2.1-.49-1.15,0-2.08.35-2.81,1.04-.72.69-1.08,1.53-1.08,2.52,0,.57.13,1.11.39,1.62.26.51.66.95,1.2,1.31-1.2,0-2.13-.15-2.78-.42-.65-.27-1.15-.64-1.48-1.11-.26-.35-.4-.77-.4-1.24,0-.59.21-1.08.63-1.48.26-.24.68-.43,1.26-.56l-.11-1.48c-.94.12-1.67.49-2.2,1.09M84.36,1244.26c-.48-.46-.72-1.03-.72-1.7s.24-1.23.72-1.68c.48-.44,1.13-.66,1.96-.66s1.55.22,2.05.67c.5.45.76.99.76,1.61,0,.43-.12.84-.37,1.23-.24.39-.6.69-1.06.91-.47.22-.95.33-1.46.33-.77,0-1.4-.23-1.88-.7M88.45,1236.3h1.68v-1.69h-1.68v1.69ZM90.13,1227.23c0-.77-.07-1.42-.2-1.95-.14-.53-.33-.97-.59-1.32-.26-.35-.64-.65-1.12-.88-.49-.24-1.01-.36-1.57-.36-.7,0-1.3.2-1.82.59-.51.39-.88.95-1.09,1.68-.28-.57-.64-.99-1.1-1.27s-.94-.42-1.45-.42c-.55,0-1.08.16-1.59.48-.5.31-.88.75-1.13,1.31-.24.56-.36,1.3-.36,2.22v4.52h12.02v-4.6ZM79.53,1230.24v-2.41c0-.87.06-1.48.17-1.84.11-.35.32-.63.62-.82.31-.19.66-.29,1.05-.29.42,0,.77.1,1.05.31.28.21.48.51.6.92.09.31.14.82.14,1.52v2.61h-3.64ZM84.58,1230.24v-2.79c0-.77.07-1.36.2-1.77.13-.41.37-.73.7-.96.33-.23.72-.35,1.17-.35.38,0,.72.08,1.02.24.29.16.51.36.67.61.16.25.27.56.33.92.04.21.06.57.06,1.09v3h-4.13ZM88.45,1220.21h1.68v-1.69h-1.68v1.69ZM88.71,1214.41c-.27-.17-.53-.37-.8-.62-.26-.25-.77-.82-1.51-1.71-.9-1.06-1.6-1.82-2.12-2.28-.51-.46-1-.79-1.47-.98-.47-.2-.94-.3-1.42-.3-.95,0-1.74.34-2.38,1.01-.64.67-.96,1.59-.96,2.75s.3,2.06.89,2.74c.59.68,1.45,1.08,2.59,1.18l.16-1.52c-.76,0-1.35-.22-1.77-.65-.43-.43-.64-1-.64-1.71,0-.67.2-1.22.6-1.64.4-.42.9-.63,1.48-.63.55,0,1.15.23,1.77.69.63.46,1.48,1.35,2.55,2.66.69.84,1.3,1.49,1.82,1.94.52.45,1.06.77,1.6.97.33.13.67.18,1.03.17v-7.98h-1.42v5.92ZM88.45,1205.99h1.68v-1.69h-1.68v1.69ZM78.06,1196.47v.96c.52.26,1.05.69,1.61,1.32.55.62,1.02,1.34,1.41,2.17h1.43c-.17-.46-.42-.98-.76-1.56-.34-.58-.68-1.05-1.02-1.4h9.41v-1.48h-12.08Z"/>
    <path d="M89.42,1191.51c.61-.69.92-1.59.92-2.69,0-1.34-.49-2.4-1.46-3.17-.79-.64-1.73-.95-2.82-.95s-2.08.36-2.81,1.08c-.73.73-1.09,1.62-1.09,2.67,0,.8.25,1.56.76,2.28l-3.23-.65v-4.81h-1.41v6l6.18,1.17.18-1.39c-.34-.22-.62-.52-.84-.9-.21-.39-.32-.82-.32-1.29,0-.77.24-1.39.73-1.86.49-.47,1.15-.71,1.99-.71.89,0,1.6.25,2.13.74.53.49.81,1.1.81,1.81,0,.59-.19,1.1-.57,1.52-.38.42-.95.69-1.7.8l.13,1.56c1.01-.1,1.82-.49,2.43-1.19"/>
    <rect class="st20" x="96.88" y="1183.95" width="18.9" height="111.72"/>
    <path d="M111.68,1293.76c.63-.7.94-1.58.94-2.64,0-1.17-.36-2.15-1.1-2.92-.73-.77-1.62-1.15-2.67-1.15-.78,0-1.42.2-1.94.59-.51.39-.85.95-1.02,1.66-.25-.55-.59-.96-1.02-1.24-.43-.28-.9-.42-1.42-.42-.55,0-1.06.15-1.55.44-.49.29-.87.72-1.15,1.27s-.42,1.16-.42,1.82c0,.95.27,1.75.82,2.4.54.64,1.31,1.05,2.3,1.23l.26-1.48c-.72-.11-1.26-.35-1.62-.74-.36-.38-.54-.86-.54-1.44s.18-1.06.53-1.42c.36-.37.8-.55,1.35-.55.68,0,1.19.25,1.52.75.33.51.49,1.07.49,1.7,0,.06,0,.14-.02.24l1.3.16c-.11-.42-.16-.76-.16-1.04,0-.69.22-1.25.66-1.7.44-.44,1-.66,1.68-.66s1.31.24,1.79.72c.48.48.72,1.07.72,1.77,0,.59-.18,1.08-.55,1.49-.37.41-.98.7-1.81.87l.2,1.48c1-.1,1.82-.5,2.45-1.2M110.73,1284.68h1.68v-1.69h-1.68v1.69ZM110.71,1280.02c.64-.42,1.11-1,1.43-1.74.32-.74.48-1.65.48-2.75,0-.86-.16-1.63-.47-2.33-.31-.69-.76-1.22-1.32-1.58-.57-.37-1.17-.55-1.81-.55s-1.21.17-1.71.5c-.49.34-.9.85-1.23,1.56-.22.48-.48,1.37-.77,2.67s-.58,2.1-.86,2.41c-.28.31-.63.47-1.06.47-.5,0-.92-.22-1.28-.66-.36-.44-.53-1.15-.53-2.11s.2-1.63.58-2.1c.39-.47.96-.75,1.72-.84l-.12-1.53c-.71.03-1.34.23-1.89.59-.56.37-.98.89-1.27,1.58-.29.68-.43,1.47-.43,2.37,0,.81.14,1.55.41,2.21.27.67.67,1.17,1.2,1.52.53.35,1.09.52,1.7.52.55,0,1.05-.14,1.5-.42.44-.28.82-.71,1.12-1.29.23-.44.49-1.22.75-2.33.26-1.11.46-1.83.58-2.15.19-.51.43-.87.71-1.09.28-.22.61-.33.99-.33s.72.11,1.03.34c.32.23.56.57.74,1.04.18.47.27,1.01.27,1.61,0,.69-.12,1.3-.36,1.85-.24.55-.55.95-.93,1.21-.39.26-.88.43-1.48.5l.13,1.51c.81-.02,1.53-.24,2.16-.66M112.41,1263.01v-1.55c-.33.19-.68.31-1.05.38-.36.06-1.23.09-2.6.09h-1.97c-.66,0-1.11.03-1.36.07-.41.09-.74.24-1.01.46-.26.22-.48.56-.66,1.03-.18.47-.26,1.07-.26,1.82s.1,1.41.31,1.99c.2.57.5,1.01.88,1.31.38.3.88.52,1.5.65l.2-1.45c-.62-.16-1.05-.4-1.29-.74-.24-.33-.36-.84-.36-1.54,0-.75.17-1.31.5-1.69.25-.28.67-.42,1.27-.42.05,0,.18,0,.38,0,.2.56.36,1.45.51,2.64.07.59.14,1.02.22,1.32.11.4.27.75.48,1.07.21.31.49.57.85.76.35.2.74.29,1.17.29.73,0,1.33-.26,1.8-.77.47-.52.7-1.25.7-2.21,0-.58-.1-1.13-.29-1.63-.19-.51-.52-1.04-.98-1.59.41-.05.77-.14,1.08-.3M108.58,1263.42c.65,0,1.14.08,1.48.24.43.21.77.53,1.02.98.25.45.37.95.37,1.53s-.13,1.01-.39,1.31c-.26.3-.59.45-.98.45-.26,0-.49-.07-.7-.21-.21-.14-.37-.33-.48-.59-.11-.25-.21-.68-.3-1.29-.15-1.08-.34-1.88-.56-2.42h.54ZM100.38,1259.58h12.03v-1.48h-12.03v1.48ZM103.7,1255.31h1.68v-1.69h-1.68v1.69ZM110.73,1255.31h1.68v-1.69h-1.68v1.69ZM101.13,1240c-.53.6-.79,1.38-.79,2.33,0,1.27.46,2.29,1.38,3.04,1.05.86,2.75,1.29,5.07,1.29,2.08,0,3.57-.39,4.48-1.17.91-.78,1.36-1.78,1.36-3.02,0-.73-.17-1.37-.51-1.94-.35-.57-.84-1.02-1.49-1.35-.65-.33-1.35-.49-2.1-.49-1.15,0-2.08.35-2.81,1.04-.72.69-1.08,1.53-1.08,2.52,0,.57.13,1.11.39,1.62.26.51.66.95,1.21,1.31-1.2,0-2.13-.15-2.78-.42-.65-.27-1.15-.64-1.48-1.11-.26-.35-.39-.77-.39-1.24,0-.59.21-1.08.63-1.48.26-.24.69-.43,1.27-.56l-.12-1.48c-.94.12-1.67.49-2.2,1.09M106.63,1244.26c-.48-.46-.72-1.03-.72-1.7s.24-1.23.72-1.68c.48-.44,1.13-.66,1.96-.66s1.55.22,2.05.67c.5.45.76.99.76,1.61,0,.43-.12.84-.37,1.23-.24.39-.6.69-1.06.91-.47.22-.95.33-1.46.33-.78,0-1.4-.23-1.88-.7M110.73,1236.3h1.68v-1.69h-1.68v1.69ZM112.41,1227.23c0-.77-.07-1.42-.2-1.95-.13-.53-.33-.97-.59-1.32-.26-.35-.64-.65-1.12-.88-.49-.24-1.01-.36-1.57-.36-.7,0-1.3.2-1.82.59-.51.39-.88.95-1.09,1.68-.28-.57-.64-.99-1.1-1.27-.45-.28-.94-.42-1.45-.42-.55,0-1.08.16-1.59.48-.5.31-.88.75-1.12,1.31-.24.56-.36,1.3-.36,2.22v4.52h12.03v-4.6ZM101.8,1230.24v-2.41c0-.87.06-1.48.17-1.84.11-.35.32-.63.62-.82.31-.19.66-.29,1.05-.29.42,0,.77.1,1.05.31.28.21.48.51.6.92.09.31.14.82.14,1.52v2.61h-3.64ZM106.86,1230.24v-2.79c0-.77.07-1.36.2-1.77.13-.41.37-.73.7-.96.33-.23.72-.35,1.17-.35.38,0,.72.08,1.02.24.29.16.51.36.67.61.16.25.27.56.33.92.04.21.06.57.06,1.09v3h-4.13ZM110.73,1220.21h1.68v-1.69h-1.68v1.69ZM111.68,1215.07c.63-.7.94-1.58.94-2.64,0-1.18-.36-2.15-1.1-2.92-.73-.77-1.62-1.15-2.67-1.15-.78,0-1.42.2-1.94.59-.51.4-.85.95-1.02,1.67-.25-.55-.59-.96-1.02-1.24s-.9-.42-1.42-.42c-.55,0-1.06.15-1.55.44-.49.29-.87.72-1.15,1.27-.28.55-.42,1.16-.42,1.82,0,.96.27,1.75.82,2.4.54.64,1.31,1.05,2.3,1.24l.26-1.48c-.72-.11-1.26-.35-1.62-.74-.36-.38-.54-.87-.54-1.44s.18-1.05.53-1.42c.36-.37.8-.55,1.35-.55.68,0,1.19.25,1.52.75.33.51.49,1.08.49,1.7,0,.06,0,.14-.02.24l1.3.17c-.11-.42-.16-.76-.16-1.05,0-.69.22-1.25.66-1.7.44-.45,1-.66,1.68-.66s1.31.24,1.79.72c.48.48.72,1.07.72,1.77,0,.59-.18,1.08-.55,1.49-.37.41-.98.7-1.81.87l.2,1.48c1-.1,1.82-.5,2.45-1.2M110.73,1205.99h1.68v-1.69h-1.68v1.69ZM100.33,1196.47v.96c.52.26,1.05.69,1.61,1.32.55.62,1.02,1.34,1.41,2.17h1.43c-.17-.46-.42-.98-.76-1.56-.34-.58-.68-1.05-1.02-1.4h9.41v-1.48h-12.08Z"/>
    <path d="M111.7,1191.51c.61-.69.92-1.59.92-2.69,0-1.34-.49-2.4-1.46-3.17-.79-.64-1.73-.95-2.82-.95s-2.08.36-2.81,1.08c-.73.73-1.09,1.62-1.09,2.67,0,.8.25,1.56.76,2.28l-3.23-.65v-4.81h-1.41v6l6.17,1.17.18-1.39c-.34-.22-.62-.52-.84-.9-.22-.39-.33-.82-.33-1.29,0-.77.24-1.39.73-1.86.49-.47,1.15-.71,1.99-.71.89,0,1.6.25,2.13.74.54.49.81,1.1.81,1.81,0,.59-.19,1.1-.57,1.52-.38.42-.95.69-1.7.8l.13,1.56c1.01-.1,1.82-.49,2.43-1.19"/>
    <line class="st2" x1="643" y1="1022.61" x2="762.49" y2="970.63"/>
  </g>
  <rect class="st22" x="422.09" y="937.02" width="29.03" height="99.97"/>
</svg>