<?xml version="1.0" encoding="UTF-8"?>
<svg id="Layer_1" xmlns="http://www.w3.org/2000/svg" xmlns:xlink="http://www.w3.org/1999/xlink" version="1.1" viewBox="0 0 1200 1697.14">
  <!-- Generator: Adobe Illustrator 29.6.0, SVG Export Plug-In . SVG Version: 2.1.1 Build 207)  -->
  <defs>
    <style>
      .st0, .st1, .st2, .st3 {
        fill: none;
      }

      .st1 {
        stroke: #0d0e1c;
      }

      .st1, .st2, .st3 {
        stroke-linecap: round;
        stroke-linejoin: round;
      }

      .st1, .st3 {
        stroke-width: .08px;
      }

      .st2 {
        stroke-width: .14px;
      }

      .st2, .st3 {
        stroke: #000;
      }

      .st4 {
        clip-path: url(#clippath-1);
      }

      .st5 {
        clip-path: url(#clippath-3);
      }

      .st6 {
        clip-path: url(#clippath-4);
      }

      .st7 {
        clip-path: url(#clippath-2);
      }

      .st8 {
        clip-path: url(#clippath-7);
      }

      .st9 {
        clip-path: url(#clippath-6);
      }

      .st10 {
        clip-path: url(#clippath-9);
      }

      .st11 {
        clip-path: url(#clippath-8);
      }

      .st12 {
        clip-path: url(#clippath-5);
      }

      .st13 {
        fill: #fff;
      }

      .st14 {
        fill: #ece9e5;
      }

      .st15 {
        fill: #302c35;
      }

      .st16 {
        clip-path: url(#clippath);
      }
    </style>
    <clipPath id="clippath">
      <rect class="st0" x="429.69" y="781.87" width="72.57" height="159.65"/>
    </clipPath>
    <clipPath id="clippath-1">
      <rect class="st0" x="297.59" y="457.51" width="668.81" height="782.13"/>
    </clipPath>
    <clipPath id="clippath-2">
      <rect class="st0" x="505.17" y="1010.68" width="28.6" height="39.22"/>
    </clipPath>
    <clipPath id="clippath-3">
      <rect class="st0" x="297.59" y="457.51" width="668.81" height="782.13"/>
    </clipPath>
    <clipPath id="clippath-4">
      <rect class="st0" x="297.59" y="457.51" width="668.81" height="782.13"/>
    </clipPath>
    <clipPath id="clippath-5">
      <rect class="st0" x="435.68" y="1093.75" width="27.52" height="37.12"/>
    </clipPath>
    <clipPath id="clippath-6">
      <rect class="st0" x="297.59" y="457.51" width="668.81" height="782.13"/>
    </clipPath>
    <clipPath id="clippath-7">
      <rect class="st0" x="297.59" y="457.51" width="668.81" height="782.13"/>
    </clipPath>
    <clipPath id="clippath-8">
      <rect class="st0" x="297.59" y="457.51" width="668.81" height="782.13"/>
    </clipPath>
    <clipPath id="clippath-9">
      <rect class="st0" x="297.59" y="457.51" width="668.81" height="782.13"/>
    </clipPath>
  </defs>
  <rect class="st14" x="409.77" y="679.26" width="339.22" height="481.99"/>
  <rect class="st14" x="449.1" y="592.43" width="249.77" height="170.31"/>
  <rect class="st13" x="683.51" y="926.67" width="60.67" height="226.65"/>
  <rect class="st13" x="468.97" y="683.65" width="223.15" height="11.81"/>
  <rect class="st15" x="672.77" y="709.98" width="76.22" height="15.87"/>
  <rect class="st15" x="409.77" y="1145.39" width="153.91" height="15.87"/>
  <rect class="st15" x="635.24" y="1145.39" width="113.75" height="15.87"/>
  <rect class="st15" x="449.26" y="591.75" width="249.43" height="4.05"/>
  <rect class="st15" x="449.43" y="591.75" width="4.05" height="91.9"/>
  <rect class="st15" x="694.65" y="591.66" width="4.05" height="91.99"/>
  <rect class="st15" x="409.77" y="725.84" width="17.55" height="419.55"/>
  <rect class="st15" x="731.44" y="725.84" width="17.55" height="419.55"/>
  <rect class="st15" x="675.41" y="1021.18" width="56.03" height="6.07"/>
  <rect class="st15" x="429.01" y="1138.64" width="125.9" height="10.21"/>
  <rect class="st15" x="549.85" y="1129.43" width="5.06" height="9.21"/>
  <rect class="st15" x="429.01" y="1004.3" width="120.83" height="5.06"/>
  <rect class="st15" x="423.54" y="1004.3" width="10.53" height="144.55"/>
  <rect class="st15" x="434.08" y="1009.37" width="115.77" height="1.35"/>
  <rect class="st15" x="548.5" y="1129.43" width="1.35" height="7.86"/>
  <rect class="st15" x="549.85" y="1004.3" width="5.06" height="54.68"/>
  <rect class="st15" x="548.5" y="1004.3" width="1.35" height="54.68"/>
  <rect class="st15" x="434.08" y="1137.29" width="115.77" height="1.35"/>
  <rect class="st15" x="434.08" y="1009.37" width="1.35" height="127.92"/>
  <rect class="st15" x="427.33" y="944.22" width="119.49" height="8.1"/>
  <rect class="st15" x="546.81" y="944.22" width="8.1" height="60.08"/>
  <rect class="st15" x="672.77" y="679.26" width="76.22" height="30.72"/>
  <rect class="st15" x="409.73" y="709.98" width="65.87" height="15.87"/>
  <rect class="st15" x="409.73" y="679.26" width="65.87" height="30.72"/>
  <polygon class="st13" points="429.69 781.87 429.69 782.28 501.34 782.28 501.34 920.23 502.26 920.69 502.26 781.87 429.69 781.87"/>
  <polygon class="st13" points="429.69 782.28 429.69 884.78 445.62 892.66 485.42 912.36 501.34 920.24 501.34 782.28 429.69 782.28"/>
  <g class="st16">
    <path class="st13" d="M429.69,941.52v-56.74l15.92,7.88v28.26c0,1.82,1.46,3.29,3.28,3.29h33.25c1.82,0,3.27-1.47,3.27-3.29v-8.56l15.93,7.88v21.28h-71.65Z"/>
    <path class="st13" d="M445.62,920.92v-28.26l39.8,19.7v8.56c0,1.82-1.46,3.29-3.28,3.29h-33.25c-1.82,0-3.28-1.47-3.28-3.29"/>
  </g>
  <polyline class="st1" points="501.34 920.24 501.34 941.52 429.69 941.52 429.69 884.78"/>
  <polyline class="st1" points="485.42 912.36 501.34 920.24 502.26 920.7 502.26 781.87 429.69 781.87 429.69 782.28 429.69 884.78 445.62 892.66"/>
  <line class="st1" x1="482.14" y1="924.21" x2="448.89" y2="924.21"/>
  <g class="st4">
    <path class="st1" d="M448.89,924.21c-1.82,0-3.28-1.47-3.28-3.29"/>
    <path class="st1" d="M485.42,920.92c0,1.82-1.46,3.29-3.28,3.29"/>
  </g>
  <polyline class="st1" points="485.42 920.92 485.42 912.36 445.62 892.66 445.62 920.92"/>
  <g class="st7">
    <path class="st13" d="M533.77,1010.7c0,7.71,0,15.41,0,23.11-.01,8.9-6.41,16.09-14.3,16.09-7.9-.01-14.3-7.21-14.29-16.11.01-7.7.01-15.41.02-23.11,9.52,0,19.05,0,28.58.02"/>
  </g>
  <g class="st5">
    <path class="st3" d="M533.77,1010.7c0,7.71,0,15.41,0,23.11-.01,8.9-6.41,16.09-14.3,16.09-7.9-.01-14.3-7.21-14.29-16.11.01-7.7.01-15.41.02-23.11,9.52,0,19.05,0,28.58.02Z"/>
  </g>
  <rect class="st13" x="435.23" y="1010.33" width="62.49" height="63.21"/>
  <polyline class="st3" points="497.72 1010.33 497.72 1073.54 491.55 1073.54"/>
  <line class="st3" x1="497.72" y1="1010.33" x2="435.73" y2="1010.33"/>
  <line class="st3" x1="435.23" y1="1011.37" x2="435.23" y2="1072.99"/>
  <polyline class="st3" points="435.23 1011.37 435.23 1010.33 435.73 1010.33"/>
  <polyline class="st3" points="436.17 1073.54 435.24 1073.54 435.24 1072.98"/>
  <line class="st3" x1="436.17" y1="1073.54" x2="491.55" y2="1073.54"/>
  <line class="st3" x1="467.43" y1="1010.33" x2="467.43" y2="1027.89"/>
  <g class="st6">
    <path class="st3" d="M471.27,1027.8c0-2.17-1.76-3.93-3.93-3.93s-3.93,1.76-3.93,3.93,1.76,3.93,3.93,3.93,3.93-1.76,3.93-3.93Z"/>
    <path class="st3" d="M471.27,1027.8c0-2.17-1.76-3.93-3.93-3.93s-3.93,1.76-3.93,3.93,1.76,3.93,3.93,3.93,3.93-1.76,3.93-3.93Z"/>
  </g>
  <g class="st12">
    <path class="st13" d="M461.06,1130.24h-15.49c-.59,0-1.06-.35-1.06-.78v-34.13c0-.44.47-.79,1.06-.79h15.49c.6,0,1.07.35,1.07.79v34.13c0,.43-.48.78-1.07.78M453.59,1115.19c1.55,0,2.8-1.25,2.8-2.8s-1.25-2.81-2.8-2.81-2.8,1.26-2.8,2.81,1.25,2.8,2.8,2.8"/>
    <path class="st13" d="M441.89,1112.39c0,1.16-.94,2.1-2.1,2.1s-2.11-.95-2.11-2.1.94-2.11,2.11-2.11,2.1.94,2.1,2.11"/>
    <path class="st13" d="M453.59,1113.89c-.83,0-1.51-.67-1.51-1.5s.68-1.51,1.51-1.51,1.51.68,1.51,1.51-.68,1.5-1.51,1.5"/>
    <path class="st13" d="M453.59,1109.58c1.55,0,2.8,1.26,2.8,2.81s-1.25,2.8-2.8,2.8-2.8-1.25-2.8-2.8,1.25-2.81,2.8-2.81M455.1,1112.39c0-.83-.68-1.51-1.51-1.51s-1.51.68-1.51,1.51.67,1.5,1.51,1.5,1.51-.67,1.51-1.5"/>
    <path class="st13" d="M441.89,1112.39c0-1.17-.94-2.11-2.1-2.11s-2.11.94-2.11,2.11.95,2.1,2.11,2.1,2.1-.95,2.1-2.1M443.85,1093.75h18.27c.59,0,1.07.35,1.07.78v35.7c0,.34-.48.63-1.07.63h-26.45v-37.12h8.18ZM461.06,1094.54h-15.5c-.59,0-1.06.35-1.06.79v34.13c0,.43.47.78,1.06.78h15.5c.59,0,1.07-.35,1.07-.78v-34.13c0-.44-.48-.79-1.07-.79"/>
  </g>
  <g class="st9">
    <path class="st3" d="M439.78,1110.28c1.15,0,2.1.95,2.1,2.11s-.95,2.1-2.1,2.1-2.11-.94-2.11-2.1.94-2.11,2.11-2.11Z"/>
    <path class="st3" d="M453.59,1109.58c1.55,0,2.8,1.26,2.8,2.81s-1.25,2.8-2.8,2.8-2.8-1.25-2.8-2.8,1.25-2.81,2.8-2.81Z"/>
    <path class="st3" d="M453.59,1110.88c.83,0,1.51.68,1.51,1.51s-.68,1.5-1.51,1.5-1.51-.67-1.51-1.5.68-1.51,1.51-1.51Z"/>
    <path class="st3" d="M445.56,1130.24h15.5c.59,0,1.07-.35,1.07-.78v-34.13c0-.44-.48-.79-1.07-.79h-15.5c-.59,0-1.06.35-1.06.79v34.13c0,.43.47.78,1.06.78Z"/>
  </g>
  <line class="st3" x1="443.85" y1="1093.75" x2="435.68" y2="1093.75"/>
  <g class="st8">
    <path class="st3" d="M435.67,1130.87h26.45c.59,0,1.07-.29,1.07-.63v-35.7c0-.43-.48-.78-1.07-.78h-8.38"/>
  </g>
  <line class="st3" x1="443.85" y1="1093.75" x2="453.74" y2="1093.75"/>
  <line class="st3" x1="435.67" y1="1093.75" x2="435.67" y2="1130.87"/>
  <polygon class="st13" points="659.71 776.13 651.62 777.48 644.19 781.19 644.19 781.53 644.53 781.53 645.2 781.53 645.54 781.53 645.88 781.53 646.22 781.53 647.9 780.52 649.59 779.85 650.94 780.18 651.95 781.19 651.95 781.87 651.62 782.21 646.22 786.93 642.5 793.01 676.93 793.01 673.22 786.93 667.82 782.21 667.14 781.87 667.48 781.19 668.49 780.18 669.84 779.85 671.53 780.52 673.22 781.53 673.55 781.53 673.89 781.53 674.23 781.53 674.9 781.53 675.24 781.19 667.82 777.48 659.71 776.13"/>
  <polygon class="st13" points="707.64 776.13 699.21 777.48 692.12 781.19 692.12 781.53 692.46 781.53 692.79 781.53 693.47 781.53 693.81 781.53 694.14 781.53 695.83 780.52 697.52 779.84 698.87 780.18 699.88 781.19 699.88 781.87 699.55 782.21 693.81 786.93 690.43 793.01 724.86 793.01 721.15 786.93 715.41 782.21 715.07 781.87 715.07 781.19 716.08 780.18 717.77 779.84 719.46 780.52 720.81 781.53 721.15 781.53 721.82 781.53 722.16 781.53 722.5 781.53 722.83 781.53 723.17 781.19 715.75 777.48 707.64 776.13"/>
  <polygon class="st13" points="724.86 793.01 690.43 793.01 676.93 793.01 642.5 793.01 635.75 793.01 635.75 856.8 642.5 856.8 676.93 856.8 690.43 856.8 724.86 856.8 731.27 856.8 731.27 793.01 724.86 793.01"/>
  <polygon class="st13" points="642.5 856.8 646.21 862.88 651.61 867.6 651.95 867.94 651.95 868.61 650.94 869.63 649.59 869.96 647.9 869.29 646.21 868.28 645.88 868.28 645.54 868.28 645.2 868.28 644.53 868.28 644.19 868.28 644.19 868.61 651.61 872.33 659.72 873.68 667.82 872.33 675.24 868.61 674.9 868.28 674.23 868.28 673.89 868.28 673.55 868.28 673.22 868.28 671.53 869.29 669.84 869.96 668.49 869.63 667.48 868.61 667.14 867.94 667.82 867.6 673.22 862.88 676.93 856.8 642.5 856.8"/>
  <polygon class="st13" points="690.43 856.8 693.81 862.88 699.54 867.6 699.88 867.94 699.88 868.62 698.87 869.63 697.52 869.97 695.83 869.29 694.14 868.28 693.81 868.28 693.47 868.28 692.79 868.28 692.46 868.28 692.12 868.28 692.12 868.62 699.21 872.33 707.64 873.68 715.75 872.33 723.17 868.62 722.83 868.28 722.5 868.28 722.16 868.28 721.82 868.28 721.15 868.28 720.81 868.28 719.46 869.29 717.77 869.97 716.08 869.63 715.07 868.62 715.07 867.94 715.41 867.6 721.15 862.88 724.86 856.8 690.43 856.8"/>
  <line class="st3" x1="646.22" y1="868.28" x2="645.88" y2="868.28"/>
  <line class="st3" x1="645.88" y1="868.28" x2="645.54" y2="868.28"/>
  <line class="st3" x1="644.53" y1="868.28" x2="645.2" y2="868.28"/>
  <line class="st3" x1="645.2" y1="868.28" x2="645.54" y2="868.28"/>
  <line class="st3" x1="644.19" y1="868.62" x2="644.19" y2="868.28"/>
  <line class="st3" x1="644.19" y1="868.28" x2="644.53" y2="868.28"/>
  <line class="st3" x1="651.95" y1="868.62" x2="650.94" y2="869.63"/>
  <line class="st3" x1="650.94" y1="869.63" x2="649.59" y2="869.97"/>
  <line class="st3" x1="649.59" y1="869.97" x2="647.9" y2="869.29"/>
  <line class="st3" x1="647.9" y1="869.29" x2="646.22" y2="868.28"/>
  <line class="st3" x1="651.62" y1="867.6" x2="651.95" y2="867.94"/>
  <line class="st3" x1="651.95" y1="867.94" x2="651.95" y2="868.61"/>
  <line class="st3" x1="651.62" y1="867.6" x2="646.22" y2="862.88"/>
  <line class="st3" x1="646.22" y1="862.88" x2="642.5" y2="856.8"/>
  <line class="st3" x1="673.22" y1="868.28" x2="673.56" y2="868.28"/>
  <line class="st3" x1="673.55" y1="868.28" x2="673.89" y2="868.28"/>
  <line class="st3" x1="674.9" y1="868.28" x2="674.23" y2="868.28"/>
  <line class="st3" x1="674.23" y1="868.28" x2="673.89" y2="868.28"/>
  <line class="st3" x1="675.24" y1="868.62" x2="674.9" y2="868.28"/>
  <line class="st3" x1="667.48" y1="868.62" x2="668.49" y2="869.63"/>
  <line class="st3" x1="668.49" y1="869.63" x2="669.84" y2="869.97"/>
  <line class="st3" x1="669.84" y1="869.97" x2="671.53" y2="869.29"/>
  <line class="st3" x1="671.53" y1="869.29" x2="673.22" y2="868.28"/>
  <line class="st3" x1="667.82" y1="867.6" x2="667.14" y2="867.94"/>
  <line class="st3" x1="667.14" y1="867.94" x2="667.48" y2="868.61"/>
  <line class="st3" x1="667.82" y1="867.6" x2="673.22" y2="862.88"/>
  <line class="st3" x1="673.22" y1="862.88" x2="676.93" y2="856.8"/>
  <line class="st3" x1="644.19" y1="868.62" x2="651.61" y2="872.33"/>
  <line class="st3" x1="651.62" y1="872.33" x2="659.72" y2="873.68"/>
  <line class="st3" x1="659.72" y1="873.68" x2="667.82" y2="872.33"/>
  <line class="st3" x1="667.82" y1="872.33" x2="675.24" y2="868.62"/>
  <line class="st3" x1="646.22" y1="781.53" x2="645.88" y2="781.53"/>
  <line class="st3" x1="645.88" y1="781.53" x2="645.54" y2="781.53"/>
  <line class="st3" x1="644.53" y1="781.53" x2="645.2" y2="781.53"/>
  <line class="st3" x1="645.2" y1="781.53" x2="645.54" y2="781.53"/>
  <line class="st3" x1="644.19" y1="781.2" x2="644.19" y2="781.53"/>
  <line class="st3" x1="644.19" y1="781.53" x2="644.53" y2="781.53"/>
  <line class="st3" x1="651.95" y1="781.2" x2="650.94" y2="780.18"/>
  <line class="st3" x1="650.94" y1="780.18" x2="649.59" y2="779.85"/>
  <line class="st3" x1="649.59" y1="779.85" x2="647.9" y2="780.52"/>
  <line class="st3" x1="647.9" y1="780.52" x2="646.22" y2="781.53"/>
  <line class="st3" x1="651.62" y1="782.21" x2="651.95" y2="781.87"/>
  <line class="st3" x1="651.95" y1="781.87" x2="651.95" y2="781.2"/>
  <line class="st3" x1="651.62" y1="782.21" x2="646.22" y2="786.93"/>
  <line class="st3" x1="646.22" y1="786.93" x2="642.5" y2="793.01"/>
  <line class="st3" x1="673.22" y1="781.53" x2="673.56" y2="781.53"/>
  <line class="st3" x1="673.55" y1="781.53" x2="673.89" y2="781.53"/>
  <line class="st3" x1="674.9" y1="781.53" x2="674.23" y2="781.53"/>
  <line class="st3" x1="674.23" y1="781.53" x2="673.89" y2="781.53"/>
  <line class="st3" x1="675.24" y1="781.2" x2="674.9" y2="781.53"/>
  <line class="st3" x1="667.48" y1="781.2" x2="668.49" y2="780.18"/>
  <line class="st3" x1="668.49" y1="780.18" x2="669.84" y2="779.85"/>
  <line class="st3" x1="669.84" y1="779.85" x2="671.53" y2="780.52"/>
  <line class="st3" x1="671.53" y1="780.52" x2="673.22" y2="781.53"/>
  <line class="st3" x1="667.82" y1="782.21" x2="667.14" y2="781.87"/>
  <line class="st3" x1="667.14" y1="781.87" x2="667.48" y2="781.2"/>
  <line class="st3" x1="667.82" y1="782.21" x2="673.22" y2="786.93"/>
  <line class="st3" x1="673.22" y1="786.93" x2="676.93" y2="793.01"/>
  <line class="st3" x1="644.19" y1="781.2" x2="651.61" y2="777.48"/>
  <line class="st3" x1="651.62" y1="777.48" x2="659.72" y2="776.13"/>
  <line class="st3" x1="659.72" y1="776.13" x2="667.82" y2="777.48"/>
  <line class="st3" x1="667.82" y1="777.48" x2="675.24" y2="781.2"/>
  <line class="st3" x1="635.75" y1="793.01" x2="635.75" y2="856.8"/>
  <line class="st3" x1="720.81" y1="868.28" x2="721.15" y2="868.28"/>
  <line class="st3" x1="721.15" y1="868.28" x2="721.82" y2="868.28"/>
  <line class="st3" x1="722.5" y1="868.28" x2="722.16" y2="868.28"/>
  <line class="st3" x1="722.16" y1="868.28" x2="721.82" y2="868.28"/>
  <line class="st3" x1="723.17" y1="868.62" x2="722.83" y2="868.28"/>
  <line class="st3" x1="722.83" y1="868.28" x2="722.5" y2="868.28"/>
  <line class="st3" x1="715.07" y1="868.62" x2="716.08" y2="869.63"/>
  <line class="st3" x1="716.08" y1="869.63" x2="717.77" y2="869.97"/>
  <line class="st3" x1="717.77" y1="869.97" x2="719.46" y2="869.29"/>
  <line class="st3" x1="719.46" y1="869.29" x2="720.81" y2="868.28"/>
  <line class="st3" x1="715.41" y1="867.6" x2="715.07" y2="867.94"/>
  <line class="st3" x1="715.07" y1="867.94" x2="715.07" y2="868.61"/>
  <line class="st3" x1="715.41" y1="867.6" x2="721.15" y2="862.88"/>
  <line class="st3" x1="721.15" y1="862.88" x2="724.86" y2="856.8"/>
  <line class="st3" x1="694.14" y1="868.28" x2="693.81" y2="868.28"/>
  <line class="st3" x1="693.81" y1="868.28" x2="693.47" y2="868.28"/>
  <line class="st3" x1="692.46" y1="868.28" x2="692.79" y2="868.28"/>
  <line class="st3" x1="692.79" y1="868.28" x2="693.47" y2="868.28"/>
  <line class="st3" x1="692.12" y1="868.62" x2="692.12" y2="868.28"/>
  <line class="st3" x1="692.12" y1="868.28" x2="692.46" y2="868.28"/>
  <line class="st3" x1="699.88" y1="868.62" x2="698.87" y2="869.63"/>
  <line class="st3" x1="698.87" y1="869.63" x2="697.52" y2="869.97"/>
  <line class="st3" x1="697.52" y1="869.97" x2="695.83" y2="869.29"/>
  <line class="st3" x1="695.83" y1="869.29" x2="694.14" y2="868.28"/>
  <line class="st3" x1="699.54" y1="867.6" x2="699.88" y2="867.94"/>
  <line class="st3" x1="699.88" y1="867.94" x2="699.88" y2="868.61"/>
  <line class="st3" x1="699.54" y1="867.6" x2="693.81" y2="862.88"/>
  <line class="st3" x1="693.81" y1="862.88" x2="690.43" y2="856.8"/>
  <line class="st3" x1="723.17" y1="868.62" x2="715.75" y2="872.33"/>
  <line class="st3" x1="715.75" y1="872.33" x2="707.65" y2="873.68"/>
  <line class="st3" x1="707.64" y1="873.68" x2="699.21" y2="872.33"/>
  <line class="st3" x1="699.21" y1="872.33" x2="692.12" y2="868.62"/>
  <line class="st3" x1="720.81" y1="781.53" x2="721.15" y2="781.53"/>
  <line class="st3" x1="721.15" y1="781.53" x2="721.82" y2="781.53"/>
  <line class="st3" x1="722.5" y1="781.53" x2="722.16" y2="781.53"/>
  <line class="st3" x1="722.16" y1="781.53" x2="721.82" y2="781.53"/>
  <line class="st3" x1="723.17" y1="781.2" x2="722.83" y2="781.53"/>
  <line class="st3" x1="722.83" y1="781.53" x2="722.5" y2="781.53"/>
  <line class="st3" x1="715.07" y1="781.2" x2="716.08" y2="780.18"/>
  <line class="st3" x1="716.08" y1="780.18" x2="717.77" y2="779.85"/>
  <line class="st3" x1="717.77" y1="779.85" x2="719.46" y2="780.52"/>
  <line class="st3" x1="719.46" y1="780.52" x2="720.81" y2="781.53"/>
  <line class="st3" x1="715.41" y1="782.21" x2="715.07" y2="781.87"/>
  <line class="st3" x1="715.07" y1="781.87" x2="715.07" y2="781.2"/>
  <line class="st3" x1="715.41" y1="782.21" x2="721.15" y2="786.93"/>
  <line class="st3" x1="721.15" y1="786.93" x2="724.86" y2="793.01"/>
  <line class="st3" x1="694.14" y1="781.53" x2="693.81" y2="781.53"/>
  <line class="st3" x1="693.81" y1="781.53" x2="693.47" y2="781.53"/>
  <line class="st3" x1="692.46" y1="781.53" x2="692.79" y2="781.53"/>
  <line class="st3" x1="692.79" y1="781.53" x2="693.47" y2="781.53"/>
  <line class="st3" x1="692.12" y1="781.2" x2="692.12" y2="781.53"/>
  <line class="st3" x1="692.12" y1="781.53" x2="692.46" y2="781.53"/>
  <line class="st3" x1="699.88" y1="781.2" x2="698.87" y2="780.18"/>
  <line class="st3" x1="698.87" y1="780.18" x2="697.52" y2="779.85"/>
  <line class="st3" x1="697.52" y1="779.85" x2="695.83" y2="780.52"/>
  <line class="st3" x1="695.83" y1="780.52" x2="694.14" y2="781.53"/>
  <line class="st3" x1="699.54" y1="782.21" x2="699.88" y2="781.87"/>
  <line class="st3" x1="699.88" y1="781.87" x2="699.88" y2="781.2"/>
  <line class="st3" x1="699.54" y1="782.21" x2="693.81" y2="786.93"/>
  <line class="st3" x1="693.81" y1="786.93" x2="690.43" y2="793.01"/>
  <line class="st3" x1="723.17" y1="781.2" x2="715.75" y2="777.48"/>
  <line class="st3" x1="715.75" y1="777.48" x2="707.65" y2="776.13"/>
  <line class="st3" x1="707.64" y1="776.13" x2="699.21" y2="777.48"/>
  <line class="st3" x1="699.21" y1="777.48" x2="692.12" y2="781.2"/>
  <line class="st3" x1="731.27" y1="793.01" x2="731.27" y2="856.8"/>
  <polyline class="st3" points="731.27 856.8 724.86 856.8 690.43 856.8 676.93 856.8 642.5 856.8 635.75 856.8"/>
  <polyline class="st3" points="635.75 793.01 642.5 793.01 676.93 793.01 690.43 793.01 724.86 793.01 731.27 793.01"/>
  <line class="st3" x1="713.61" y1="1052.75" x2="724.29" y2="1052.75"/>
  <rect class="st3" x="683.59" y="1027.38" width="47.78" height="117.89"/>
  <line class="st3" x1="716.36" y1="1107.44" x2="716.36" y2="1117.88"/>
  <line class="st3" x1="696.75" y1="1107.44" x2="696.75" y2="1117.88"/>
  <line class="st3" x1="701.89" y1="1112.59" x2="691.46" y2="1112.59"/>
  <line class="st3" x1="721.64" y1="1112.59" x2="711.21" y2="1112.59"/>
  <rect class="st3" x="686.87" y="1101.47" width="39.36" height="22.95"/>
  <rect class="st3" x="693.95" y="1039.41" width="26.55" height="26.54"/>
  <rect class="st3" x="687.36" y="1032.8" width="39.75" height="39.89"/>
  <g class="st11">
    <path class="st13" d="M527.57,898.62c11.43,0,20.69,9.26,20.69,20.69s-9.26,20.69-20.69,20.69-20.69-9.26-20.69-20.69,9.26-20.69,20.69-20.69"/>
    <path class="st1" d="M527.57,898.62c11.43,0,20.69,9.26,20.69,20.69s-9.26,20.69-20.69,20.69-20.69-9.26-20.69-20.69,9.26-20.69,20.69-20.69Z"/>
  </g>
  <path class="st15" d="M427.32,952.32h119.49M546.81,952.32v45.23M546.81,1004.3h-119.49M427.32,1004.3v-51.98M672.71,709.98v15.86M672.71,725.84h58.73M427.32,725.84h48.27M475.59,725.84v-15.86M409.77,1161.25h4.73M414.5,1161.25h149.19M635.24,1161.25h113.75M731.44,1145.39h-96.2M563.01,1145.39h.68M453.31,591.75v87.51M694.65,679.26v-87.61M449.26,679.26h4.05M453.31,679.26v-87.51M694.65,591.66v87.61M694.65,679.26h4.05M698.7,679.26v-87.51M449.26,591.75v87.51M546.81,952.32l-119.49,51.98M546.81,952.32h-119.49M427.32,952.32v51.98M427.32,1004.3h119.49M546.81,1004.3v-51.98M409.77,725.84v419.55M748.99,1145.39v-419.55"/>
  <path class="st3" d="M731.44,856.8v-63.79M731.44,973.59h-1.35M727.72,973.59h-2.36M723,973.59h-2.36M718.27,973.59h-2.36M713.21,973.59h-2.36M708.49,973.59h-2.36M703.76,973.59h-2.36M699.04,973.59h-2.37M694.31,973.59h-2.36M689.58,973.59h-2.7M684.52,973.59h-1.01M683.51,973.59v-1.35M683.51,969.87v-2.36M683.51,965.15v-2.36M683.51,960.42v-2.7M683.51,955.36v-2.36M683.51,950.64v-2.36M683.51,945.91v-2.36M683.51,941.18v-2.36M683.51,936.46v-2.36M683.51,931.73v-2.7M683.51,926.67v-1.01M683.51,925.66h1.01M686.88,925.66h2.7M691.95,925.66h2.36M696.67,925.66h2.37M701.4,925.66h2.36M706.12,925.66h2.36M710.85,925.66h2.36M715.91,925.66h2.36M720.64,925.66h2.36M725.36,925.66h2.36M730.09,925.66h1.35M731.44,925.66v1.01M731.44,929.03v2.7M731.44,934.1v2.36M731.44,938.82v2.36M731.44,943.55v2.36M731.44,948.27v2.36M731.44,953v2.36M731.44,957.72v2.7M731.44,962.79v2.36M731.44,967.51v2.36M731.44,972.24v1.35M566.39,1078.56l12.83,1.35M579.21,1079.91l12.49,3.71M591.7,1083.62l11.47,6.41M603.18,1090.03l10.13,8.1M613.3,1098.13l8.44,10.13M621.74,1108.26l6.07,11.47M627.82,1119.74l3.71,12.49M631.53,1132.23l1.35,13.16M563.69,1161.25v-15.87M635.24,1145.39v15.87M632.88,1145.39h-66.49M566.39,1145.39v-66.83M563.01,1145.39h.68M731.44,1021.18h-1.35M727.72,1021.18h-2.36M723,1021.18h-2.36M718.27,1021.18h-2.36M713.21,1021.18h-2.36M708.49,1021.18h-2.36M703.76,1021.18h-2.36M699.04,1021.18h-2.37M694.31,1021.18h-2.36M689.58,1021.18h-2.7M684.52,1021.18h-1.01M683.51,1021.18v-1.01M683.51,1017.8v-2.36M683.51,1012.74v-2.36M683.51,1008.01v-2.36M683.51,1003.29v-2.36M683.51,998.56v-2.36M683.51,993.84v-2.36M683.51,989.11v-2.36M683.51,984.05v-2.36M683.51,979.32v-2.36M683.51,974.6v-1.01M683.51,973.59h1.01M686.88,973.59h2.7M691.95,973.59h2.36M696.67,973.59h2.37M701.4,973.59h2.36M706.12,973.59h2.36M710.85,973.59h2.36M715.91,973.59h2.36M720.64,973.59h2.36M725.36,973.59h2.36M730.09,973.59h1.35M731.44,973.59v1.01M731.44,976.96v2.36M731.44,981.69v2.36M731.44,986.75v2.36M731.44,991.48v2.36M731.44,996.2v2.36M731.44,1000.93v2.36M731.44,1005.65v2.36M731.44,1010.38v2.36M731.44,1015.44v2.36M731.44,1020.17v1.01M731.44,1021.18h-56.03M675.41,1021.18v6.08M675.41,1027.25h56.03M409.77,1027.25v-6.08M479.3,608.38l13.16,1.01M492.47,609.39l12.49,3.37M504.96,612.77l11.81,5.74M516.77,618.51l10.8,7.43M527.57,625.93l9.45,9.45M537.02,635.38l7.43,10.46M544.45,645.85l5.74,12.15M550.18,658l3.38,12.49M553.56,670.49l1.01,13.16M479.3,683.65v-75.27M484.03,688.04h65.48M549.51,688.04v-3.71M549.51,684.33h-65.48M484.03,684.33v3.71M552.89,695.46h-72.23M484.03,683.65h65.48M484.03,690.06h65.48M552.89,690.06v5.4M480.65,690.06v5.4M480.65,690.06h72.23M476.6,695.46h4.05M480.65,695.46v-5.4M480.65,690.06h3.38M484.03,690.06v-6.41M484.03,683.65h-7.43M476.6,683.65v11.81M552.89,695.46h4.05M556.94,695.46v-11.81M556.94,683.65h-7.43M549.51,683.65v6.41M549.51,690.06h3.38M552.89,690.06v5.4M667.98,684.33v3.71M562,684.33h105.98M562,688.04v-3.71M667.98,688.04h-105.98M562,695.46h105.98M667.98,683.65h-105.98M562,683.65v11.81M557.95,683.65h4.05M557.95,695.46v-11.81M562,695.46h-4.05M671.7,683.65v11.81M667.98,683.65h3.71M667.98,695.46v-11.81M671.7,695.46h-3.71M475.59,693.44v32.4M427.32,725.84v218.38M427.32,944.22h127.59M554.91,1145.39h8.78M731.44,1145.39v-118.13M731.44,1021.18v-295.34M672.71,725.84v-32.4M672.71,693.44h-1.01M557.95,693.44h-1.01M476.6,693.44h-1.01M563.69,1145.39h-.68"/>
  <path class="st3" d="M731.44,1076.19v47.93M731.44,1028.6v95.52M554.91,1145.39v-6.75M554.91,1138.64v-9.11M554.91,1058.98v-54.68M549.85,1127.16h0M546.81,1004.3h-117.8"/>
  <path class="st3" d="M484.03,1127.16l1.35-12.83M485.38,1114.34l3.71-12.49M489.09,1101.85l6.07-11.47M495.17,1090.37l8.1-9.79M503.27,1080.58l9.79-8.1M513.06,1072.48l11.48-6.07M524.53,1066.41l12.49-3.71M537.02,1062.69l12.83-1.35M548.5,1058.98h6.41M554.91,1129.52h-6.41M549.85,1123.79v3.38M549.85,1127.16h-65.82M549.85,1127.16h0M549.85,1123.79v-62.44"/>
  <path class="st3" d="M468.17,1010.71h-1.35M465.13,1010.71h-1.35M468.17,1010.71h-4.39M468.17,1010.71h-1.35M465.13,1010.71h-1.35M435.43,1010.71h113.07M548.5,1010.71v48.26M548.5,1129.52v7.76M548.5,1137.29h-113.07M435.43,1137.29v-126.57"/>
  <path class="st3" d="M495.51,1010.71h-21.26M469.52,1010.71h-2.7M465.13,1010.71h-2.7M457.7,1010.71h-21.26M496.18,1011.05l-.68-.34M748.99,944.22v8.1M427.33,952.32h8.1M435.43,952.32v-8.1M435.43,944.22h-8.1M483.02,952.32h63.8M546.81,944.22h-63.8M483.02,944.22v8.1M483.02,952.32h-47.59M435.43,944.22h47.59M435.43,952.32v-8.1M483.02,944.22v8.1M554.91,1004.3v-60.08M554.91,944.22h-8.1M475.59,709.98v-30.72M475.59,679.26h-65.82M748.99,679.26h-76.28M672.71,679.26v30.72M672.71,688.04h-1.01M557.95,688.04h-1.01M476.6,688.04h-1.01M475.59,693.44v-5.4M672.71,688.04v5.4M672.71,688.04v-8.78M475.59,679.26v8.78M475.59,688.04h1.01M556.94,688.04h1.01M671.7,688.04h1.01M748.99,679.26v481.99M409.77,1161.25v-481.99"/>
  <g class="st10">
    <path class="st2" d="M1108.46,595.22h-6.07M1084.83,515.9l-16.2,7.09M1073.02,540.54l-4.39-17.55M1045.34,511.85l27.68,28.69M1045.34,511.85l39.49,4.05M1045.34,511.85l23.29,11.14M1108.46,834.53h-6.07M1108.46,674.87h-6.07M1108.46,754.53h-6.07M1108.46,834.53v-239.31M-17.87,1294.24h1183.71"/>
    <path d="M1087.06,1243.33c.43-.28.75-.67.96-1.17.21-.5.32-1.12.32-1.85,0-.58-.11-1.1-.32-1.57-.21-.47-.51-.82-.89-1.07-.38-.25-.78-.37-1.21-.37s-.82.11-1.15.34c-.33.23-.6.58-.82,1.05-.14.33-.32.93-.52,1.8-.19.87-.38,1.42-.57,1.62-.19.21-.42.32-.71.32-.33,0-.62-.15-.86-.45-.24-.3-.35-.77-.35-1.42s.13-1.1.39-1.42c.26-.32.64-.51,1.15-.56l-.08-1.03c-.47.02-.89.15-1.27.4-.37.25-.66.6-.85,1.06-.19.46-.29.99-.29,1.59,0,.55.09,1.05.28,1.49.18.45.45.79.8,1.02.36.23.74.35,1.14.35.37,0,.7-.1,1-.28.3-.19.55-.48.75-.87.16-.3.33-.82.5-1.57.18-.75.31-1.23.4-1.45.13-.34.29-.59.47-.73.19-.15.41-.22.66-.22s.48.08.69.23c.21.15.38.39.49.7.12.31.18.68.18,1.09,0,.46-.08.88-.24,1.25-.16.37-.37.65-.62.82-.26.17-.59.29-.99.34l.09,1.01c.54-.02,1.02-.16,1.45-.45M1088.21,1234.61h-2.79l-1.29-1.33,4.08-2.9v-1.42l-4.79,3.57-3.26-3.41v1.46l4,4.04h-4v1.08h8.06v-1.08Z"/>
    <path d="M1082.54,1225.09h.92v-5.37h-.92v5.37ZM1084.99,1225.09h.92v-5.37h-.92v5.37Z"/>
    <path d="M1087.07,1214.98c.43-.28.75-.67.96-1.17.21-.5.32-1.11.32-1.85,0-.58-.1-1.1-.31-1.57-.21-.47-.51-.82-.89-1.07-.38-.25-.78-.37-1.21-.37s-.81.11-1.14.34c-.33.23-.61.58-.82,1.05-.15.33-.32.93-.52,1.8-.2.88-.39,1.42-.57,1.63-.19.21-.42.31-.72.31-.33,0-.62-.15-.86-.45-.23-.3-.35-.77-.35-1.42s.13-1.1.39-1.42c.26-.32.65-.51,1.16-.56l-.08-1.03c-.47.02-.9.15-1.27.4-.38.25-.66.6-.85,1.07-.19.46-.29.99-.29,1.59,0,.55.09,1.05.27,1.49.18.45.45.79.81,1.02.35.23.73.35,1.14.35.37,0,.7-.1,1-.29.3-.19.55-.48.75-.87.16-.3.32-.83.5-1.57.18-.74.31-1.23.39-1.45.13-.34.29-.59.48-.73.19-.15.41-.22.66-.22s.48.07.69.23c.21.15.38.39.5.7.12.31.18.68.18,1.09,0,.46-.08.88-.24,1.25-.16.37-.37.64-.63.82-.26.17-.59.29-.99.34l.09,1.01c.54-.01,1.02-.16,1.45-.45"/>
    <path d="M1088.21,1206.75h-2.32l-.67-.71,2.98-1.95v-1.23l-3.67,2.48-2.16-2.26v1.29l2.37,2.37h-4.6v1h8.06v-1ZM1088.21,1197.63v-1.04c-.22.12-.46.21-.7.25-.24.04-.82.07-1.74.07h-1.32c-.44,0-.74.02-.91.05-.27.06-.49.16-.67.31-.18.15-.33.38-.44.69-.12.31-.17.72-.17,1.23s.07.95.21,1.33c.13.38.33.68.59.88.25.2.59.35,1,.44l.13-.98c-.42-.11-.7-.27-.87-.5-.16-.22-.24-.57-.24-1.04,0-.5.11-.88.33-1.14.17-.19.45-.28.86-.28.04,0,.12,0,.26,0,.13.38.24.97.34,1.78.05.4.09.69.15.89.07.27.18.5.33.72.14.21.33.38.57.52.24.13.5.2.78.2.49,0,.89-.17,1.2-.52s.47-.84.47-1.49c0-.39-.07-.76-.19-1.1-.13-.34-.35-.7-.66-1.07.27-.03.51-.1.72-.2M1085.64,1197.91c.44,0,.77.05.99.16.29.14.52.36.68.66.17.3.25.64.25,1.02s-.09.69-.27.89c-.17.2-.39.3-.66.3-.17,0-.33-.05-.47-.14-.14-.09-.25-.22-.33-.39-.07-.17-.14-.46-.2-.87-.1-.73-.23-1.27-.38-1.63h.36Z"/>
    <path d="M1088.21,1194.6h-2.32l-.67-.71,2.99-1.95v-1.23l-3.67,2.48-2.16-2.25v1.29l2.37,2.37h-4.6v1h8.06v-1ZM1087.36,1188.12c0,.15-.03.26-.07.34-.05.08-.11.14-.19.17-.08.03-.26.05-.55.05h-3.41v-1.01h-.77v1.01h-2.04l.59.99h1.45v.73h.77v-.73h3.36c.59,0,.98-.04,1.17-.12.19-.08.34-.22.45-.42.11-.2.17-.48.17-.84,0-.22-.03-.47-.09-.76l-.87.14c.03.18.04.33.04.44"/>
    <path d="M1101.37,1242.27h-3.66v-3.82h-.95v3.82h-2.49v-4.41h-.95v5.49h8.06v-1.08ZM1100.23,1236.58c.43-.28.74-.67.96-1.17.21-.5.32-1.11.32-1.85,0-.58-.1-1.11-.31-1.57-.21-.46-.51-.82-.89-1.07-.38-.25-.78-.37-1.21-.37s-.81.11-1.14.34c-.33.23-.61.58-.82,1.05-.15.33-.32.93-.51,1.8-.2.88-.39,1.42-.57,1.63-.19.21-.43.31-.72.31-.33,0-.62-.15-.86-.45-.23-.3-.35-.77-.35-1.42s.13-1.1.39-1.42c.26-.32.65-.51,1.16-.56l-.08-1.03c-.47.02-.9.15-1.27.4-.38.25-.66.6-.85,1.07-.19.46-.29.99-.29,1.59,0,.55.09,1.05.27,1.49.18.45.45.79.81,1.02.35.24.73.35,1.14.35.37,0,.7-.1,1-.29.3-.19.55-.48.75-.87.16-.3.33-.83.5-1.57.18-.74.31-1.23.39-1.45.13-.34.29-.59.48-.73.19-.15.41-.22.66-.22s.48.07.69.23c.21.15.38.39.5.7.12.31.18.68.18,1.09,0,.46-.08.88-.24,1.25-.16.37-.37.64-.63.82-.26.17-.59.29-.99.34l.09,1.01c.54-.01,1.02-.16,1.45-.45"/>
    <path d="M1095.71,1226.1h.92v-5.37h-.92v5.37ZM1098.16,1226.1h.92v-5.37h-.92v5.37Z"/>
    <polygon points="1101.37 1214.94 1097.71 1214.94 1097.71 1211.12 1096.76 1211.12 1096.76 1214.94 1094.26 1214.94 1094.26 1210.53 1093.31 1210.53 1093.31 1216.02 1101.37 1216.02 1101.37 1214.94"/>
    <path d="M1100.72,1208.72c.52-.51.79-1.18.79-2,0-.51-.12-.99-.36-1.42-.24-.43-.57-.76-1-.99-.43-.23-1.02-.34-1.77-.34-.93,0-1.66.26-2.18.77-.53.52-.79,1.18-.79,1.99,0,.73.22,1.35.65,1.85.52.61,1.32.91,2.4.91.99,0,1.74-.25,2.26-.76M1096.77,1207.96c-.37-.33-.56-.74-.56-1.24s.19-.9.56-1.23c.37-.33.92-.5,1.64-.5.77,0,1.34.16,1.71.49.37.33.56.74.56,1.24s-.19.91-.56,1.24c-.37.33-.93.49-1.68.49s-1.31-.16-1.68-.49M1101.37,1202.05h-3.06c-.42,0-.8-.06-1.15-.17-.23-.07-.41-.2-.54-.37-.13-.18-.2-.37-.2-.59,0-.24.07-.49.22-.73l-.92-.34c-.21.35-.32.69-.32,1.03,0,.23.06.45.2.64.13.19.4.4.82.63h-.89v.9h5.84v-1Z"/>
    <path d="M1100.4,1195.9c.19.26.29.57.29.94,0,.49-.17.9-.51,1.23-.34.33-.83.51-1.47.55v-4.4c-.12,0-.2,0-.26,0-.96,0-1.71.25-2.24.75-.53.5-.8,1.14-.8,1.93s.27,1.47.82,1.98c.54.51,1.3.77,2.29.77s1.69-.25,2.21-.76c.53-.5.79-1.19.79-2.05,0-.68-.17-1.25-.49-1.69-.33-.44-.79-.74-1.39-.9l-.13,1.03c.42.15.72.36.91.62M1096.67,1198.04c-.3-.31-.46-.7-.46-1.16,0-.51.19-.92.57-1.24.25-.21.61-.33,1.11-.38v3.29c-.51-.03-.92-.21-1.22-.52M1101.03,1192.54c.31-.4.47-.98.47-1.75,0-.46-.08-.88-.24-1.24-.16-.37-.39-.65-.68-.84-.29-.19-.6-.29-.93-.29s-.62.08-.85.24c-.23.16-.4.38-.52.66-.12.28-.27.77-.46,1.48-.13.49-.22.78-.25.88-.07.17-.16.3-.27.38-.1.08-.22.12-.34.12-.2,0-.38-.1-.53-.3-.15-.19-.22-.52-.22-.98,0-.39.08-.69.25-.9.17-.21.4-.34.7-.38l-.13-.97c-.38.06-.68.18-.9.34-.22.17-.4.42-.54.77-.13.35-.2.76-.2,1.22,0,.31.04.59.12.87.08.27.18.48.29.63.14.21.33.37.55.49.22.12.46.18.72.18.29,0,.55-.07.78-.22.23-.15.42-.36.55-.64.14-.28.29-.79.48-1.52.13-.55.25-.88.33-1.02.13-.2.3-.29.53-.29.25,0,.47.11.65.33.19.22.28.56.28,1.02s-.1.81-.31,1.06c-.21.25-.51.41-.9.46l.16.99c.62-.11,1.09-.37,1.4-.77M1093.31,1187.15h8.06v-1h-8.06v1ZM1101.37,1180.47v-1.04c-.22.13-.46.21-.7.25-.25.04-.82.06-1.74.06h-1.32c-.44,0-.74.02-.91.05-.27.06-.5.17-.67.31-.18.15-.33.38-.44.69-.12.31-.18.72-.18,1.23s.07.95.21,1.34c.14.38.34.68.59.88.25.21.59.35,1,.44l.13-.98c-.42-.11-.7-.27-.87-.5-.16-.22-.25-.57-.25-1.04,0-.5.11-.88.34-1.14.17-.19.45-.28.85-.28.04,0,.13,0,.26,0,.13.38.25.97.34,1.78.05.4.1.69.15.89.07.27.18.5.32.72.14.21.33.38.57.52.23.13.5.2.78.2.49,0,.89-.17,1.2-.52s.47-.84.47-1.49c0-.39-.06-.76-.19-1.1-.13-.34-.35-.7-.66-1.07.27-.03.51-.1.72-.2M1098.8,1180.75c.44,0,.77.06.99.16.29.14.52.36.68.66.17.3.25.64.25,1.03s-.09.69-.27.89c-.17.2-.39.3-.66.3-.17,0-.33-.04-.47-.14-.14-.09-.25-.22-.32-.39-.08-.17-.14-.46-.2-.87-.1-.72-.23-1.27-.37-1.63h.36ZM1094.75,1182.85c.2-.19.29-.43.29-.71s-.1-.5-.29-.7c-.2-.2-.44-.3-.72-.3s-.52.1-.71.3c-.2.2-.3.43-.3.7s.1.5.29.7.43.3.69.3c.29,0,.54-.1.74-.3M1093.61,1182.54c-.12-.12-.18-.26-.18-.41s.06-.3.18-.42c.12-.11.26-.17.42-.17s.31.06.42.17c.12.12.17.25.17.42s-.06.29-.17.41c-.12.12-.26.17-.44.17-.16,0-.3-.06-.41-.17M1100.4,1174.69c.19.26.29.57.29.94,0,.49-.17.9-.51,1.23-.34.33-.83.51-1.47.55v-4.4c-.12,0-.2,0-.26,0-.96,0-1.71.25-2.24.75-.53.5-.8,1.15-.8,1.93s.27,1.48.82,1.98c.54.51,1.3.76,2.29.76s1.69-.25,2.21-.76c.53-.5.79-1.19.79-2.05,0-.68-.17-1.25-.49-1.69-.33-.44-.79-.74-1.39-.9l-.13,1.03c.42.15.72.36.91.61M1096.67,1176.83c-.3-.31-.46-.7-.46-1.16,0-.51.19-.92.57-1.24.25-.21.61-.33,1.11-.38v3.29c-.51-.03-.92-.21-1.22-.52"/>
    <path d="M1100.52,1169.9c0,.15-.03.26-.07.34-.05.08-.11.14-.19.17s-.26.05-.55.05h-3.41v-1.01h-.77v1.01h-2.04l.59,1h1.45v.73h.77v-.73h3.36c.59,0,.98-.04,1.17-.12.18-.08.33-.22.45-.42.12-.2.17-.48.17-.84,0-.22-.03-.47-.09-.75l-.87.14c.03.18.04.33.04.44M1101.03,1165.21c.32-.4.47-.98.47-1.75,0-.46-.08-.88-.24-1.25-.16-.37-.38-.65-.68-.84-.29-.2-.6-.29-.93-.29s-.62.08-.84.24c-.23.16-.4.38-.52.66-.12.28-.27.77-.46,1.48-.13.49-.22.78-.25.88-.07.17-.16.3-.27.38-.1.08-.21.12-.34.12-.2,0-.38-.1-.53-.3-.15-.2-.22-.52-.22-.98,0-.39.09-.69.25-.9.17-.21.4-.34.7-.38l-.13-.98c-.38.06-.68.18-.91.34-.22.17-.4.43-.53.78-.13.35-.2.76-.2,1.22,0,.31.04.59.12.86.08.27.18.48.29.63.15.21.33.37.55.49.22.12.46.18.72.18.29,0,.55-.07.78-.22.23-.14.42-.36.56-.65.13-.28.29-.79.47-1.52.14-.54.25-.88.34-1.02.13-.19.3-.29.53-.29.25,0,.47.11.65.33.18.22.28.56.28,1.02s-.1.81-.31,1.06c-.21.25-.51.41-.9.46l.15.99c.62-.11,1.09-.36,1.4-.77"/>
    <path d="M1101.37,1158.49h-2.32l-.67-.71,2.98-1.95v-1.23l-3.67,2.48-2.16-2.25v1.29l2.37,2.36h-4.6v1h8.06v-1ZM1101.37,1149.71v-1.04c-.22.12-.46.21-.7.25-.24.04-.82.07-1.74.07h-1.32c-.44,0-.74.02-.91.05-.27.06-.5.16-.67.31-.18.15-.33.38-.44.69-.12.31-.17.72-.17,1.23s.07.95.2,1.33c.14.38.34.68.59.88.25.2.59.35,1,.44l.13-.98c-.41-.11-.7-.27-.87-.5-.16-.22-.24-.57-.24-1.04,0-.5.11-.88.33-1.14.17-.19.45-.28.85-.28.04,0,.12,0,.26,0,.14.38.25.97.35,1.78.04.4.09.69.15.89.07.27.18.5.33.72.14.21.33.38.57.52.23.13.5.2.78.2.49,0,.89-.17,1.2-.52.31-.35.47-.84.47-1.49,0-.39-.07-.76-.2-1.1-.13-.34-.34-.7-.66-1.07.27-.03.51-.1.72-.2M1098.8,1149.99c.44,0,.77.05.99.16.29.14.52.36.68.66.17.3.25.64.25,1.02s-.09.69-.27.89c-.17.2-.39.3-.66.3-.17,0-.33-.05-.47-.14-.14-.09-.25-.22-.32-.39-.07-.17-.14-.46-.2-.87-.1-.73-.23-1.27-.38-1.63h.36Z"/>
    <path d="M1100.64,1146.75c.57-.4.86-.94.86-1.64s-.27-1.3-.82-1.8c-.55-.5-1.32-.75-2.32-.75-.42,0-.82.06-1.19.18-.37.12-.69.28-.95.49-.26.21-.47.48-.61.8-.14.32-.22.67-.22,1.03,0,.65.26,1.19.79,1.62h-2.88v1h8.06v-.93h-.73ZM1096.78,1146.29c-.38-.32-.56-.69-.56-1.13s.18-.8.54-1.11c.36-.31.93-.46,1.69-.46s1.3.16,1.68.48.56.69.56,1.13c0,.54-.25.96-.76,1.27-.31.19-.82.29-1.52.29s-1.25-.16-1.63-.48"/>
    <path d="M1100.33,835.95c.56-.45.84-1.06.84-1.85,0-.6-.16-1.09-.48-1.48-.31-.39-.77-.68-1.34-.88-.58-.2-1.35-.29-2.29-.29-.8,0-1.43.06-1.9.18-.47.12-.87.29-1.2.5-.33.21-.58.49-.76.81-.18.33-.26.71-.26,1.15,0,.59.16,1.08.47,1.47.31.39.76.69,1.34.88.58.2,1.35.29,2.3.29,1.51,0,2.6-.27,3.27-.8M1094.34,835.21c-.39-.28-.58-.64-.58-1.1s.22-.85.66-1.17c.43-.31,1.32-.47,2.64-.47s2.2.16,2.64.47c.44.31.66.7.66,1.16s-.22.84-.65,1.16c-.44.31-1.32.47-2.64.47s-2.23-.17-2.72-.52M1100.08,682.26c-.18-.11-.36-.25-.53-.42-.18-.17-.52-.55-1.02-1.15-.6-.72-1.08-1.23-1.42-1.54-.34-.31-.67-.53-.99-.66-.31-.13-.63-.2-.95-.2-.63,0-1.16.23-1.59.68-.43.46-.64,1.07-.64,1.86s.2,1.39.59,1.85c.4.46.98.73,1.74.8l.1-1.03c-.51,0-.9-.15-1.19-.44-.29-.29-.43-.68-.43-1.16,0-.46.14-.83.41-1.11.27-.28.6-.43.99-.43s.77.16,1.19.47c.42.31.99.91,1.71,1.79.46.57.87,1.01,1.22,1.31.35.3.71.52,1.07.66.22.08.45.12.69.11v-5.38h-.95v3.99Z"/>
    <path d="M1101.03,676.17h-3.03c-.53,0-.94-.05-1.22-.16-.28-.11-.5-.28-.65-.52-.15-.24-.22-.5-.22-.78,0-.37.11-.64.33-.8.22-.16.55-.24.99-.24h3.79v-1h-3.39c-.6,0-1.04-.14-1.31-.41-.27-.28-.41-.62-.41-1.04,0-.23.06-.43.16-.6.11-.17.25-.29.42-.35.17-.07.46-.1.86-.1h3.67v-1h-4.01c-.66,0-1.16.16-1.48.47-.32.31-.48.76-.48,1.35,0,.75.34,1.35,1.02,1.82-.32.11-.57.31-.75.59-.18.28-.27.64-.27,1.07,0,.39.08.74.26,1.05.17.31.4.55.69.74h-.82v.9h5.83v-1Z"/>
    <path d="M1092.94,757.05v.64c.35.17.71.47,1.08.89.37.42.69.9.95,1.46h.95c-.11-.31-.28-.66-.51-1.05-.23-.39-.46-.7-.68-.95h6.3v-1h-8.09ZM1101.03,753.12h-3.03c-.53,0-.94-.05-1.22-.16-.28-.11-.5-.28-.65-.52-.15-.24-.22-.5-.22-.78,0-.37.11-.63.33-.8.22-.16.55-.24.99-.24h3.79v-1h-3.39c-.6,0-1.04-.14-1.31-.41-.27-.27-.41-.62-.41-1.03,0-.23.06-.43.16-.6.11-.17.25-.29.42-.35.17-.07.46-.1.86-.1h3.67v-.99h-4.01c-.66,0-1.16.16-1.48.47-.32.31-.48.76-.48,1.35,0,.75.34,1.35,1.02,1.82-.32.11-.57.31-.75.59-.18.28-.27.64-.27,1.07,0,.39.08.74.26,1.05.17.31.4.55.69.74h-.82v.89h5.83v-1Z"/>
    <path d="M1101.03,931.88h-6.86l6.86-2.35v-.97l-6.74-2.36h6.74v-1.04h-8.06v1.45l5.61,1.94c.57.2,1,.34,1.29.44-.26.08-.66.21-1.19.39l-5.71,1.92v1.62h8.06v-1.04ZM1101.03,919.85v-1.04c-.22.13-.46.21-.7.25-.24.04-.82.06-1.74.06h-1.32c-.44,0-.74.02-.91.05-.27.06-.49.16-.67.31-.17.15-.33.38-.44.69-.12.31-.17.72-.17,1.23s.07.95.21,1.34c.14.39.33.68.59.88.25.21.59.35,1,.44l.13-.98c-.42-.11-.7-.27-.87-.49-.16-.22-.24-.57-.24-1.04,0-.5.11-.88.34-1.14.16-.19.45-.28.85-.28.04,0,.12,0,.26,0,.13.38.25.97.34,1.78.05.4.1.69.15.89.08.26.18.5.33.72.14.21.33.38.57.51.23.13.5.2.78.2.49,0,.89-.18,1.2-.52.31-.35.47-.85.47-1.49,0-.39-.07-.76-.19-1.1-.13-.34-.35-.7-.66-1.07.27-.03.52-.1.72-.2M1098.47,920.13c.44,0,.77.06.99.16.29.14.52.36.69.66.16.3.25.64.25,1.03s-.09.68-.26.88c-.18.2-.4.3-.66.3-.17,0-.33-.05-.47-.14-.14-.09-.25-.22-.32-.39-.07-.17-.14-.46-.2-.87-.1-.72-.22-1.27-.37-1.63h.36ZM1094.41,922.22c.2-.2.29-.43.29-.71s-.09-.5-.29-.7c-.19-.2-.43-.29-.71-.29s-.52.1-.71.29c-.2.2-.29.43-.29.7s.09.5.29.7c.2.2.43.3.69.3.29,0,.54-.1.73-.29M1093.27,921.92c-.12-.12-.17-.26-.17-.41s.06-.3.17-.42c.12-.11.26-.17.43-.17s.3.06.42.18c.12.12.18.25.18.42s-.06.29-.18.41c-.12.12-.26.18-.43.18-.16,0-.3-.06-.42-.18"/>
    <rect x="1092.97" y="916.51" width="8.06" height="1"/>
    <path d="M1092.94,908.26v.64c.35.18.71.47,1.08.89.37.42.69.9.95,1.46h.96c-.12-.31-.29-.66-.51-1.05-.23-.39-.46-.71-.68-.95h6.31v-1h-8.09ZM1095.2,905.06h1.13v-1.14h-1.13v1.14ZM1099.91,905.06h1.13v-1.14h-1.13v1.14Z"/>
    <path d="M1100.55,901.77c.41-.47.61-1.07.61-1.81,0-.9-.33-1.61-.98-2.14-.53-.43-1.16-.64-1.89-.64s-1.39.24-1.88.73c-.49.49-.73,1.09-.73,1.8,0,.54.17,1.05.51,1.54l-2.17-.44v-3.25h-.94v4.05l4.14.79.12-.94c-.23-.15-.42-.35-.56-.61-.14-.26-.22-.55-.22-.87,0-.52.16-.94.49-1.26.33-.32.77-.48,1.33-.48.59,0,1.07.17,1.43.5.36.33.54.74.54,1.22,0,.4-.13.74-.38,1.03-.26.28-.64.46-1.14.54l.09,1.05c.68-.07,1.22-.34,1.63-.8M1100.33,895.35c.56-.45.83-1.06.83-1.85,0-.6-.16-1.09-.48-1.48-.31-.39-.76-.68-1.35-.88-.58-.2-1.34-.3-2.29-.3-.8,0-1.43.06-1.9.18-.47.12-.87.29-1.2.51-.33.21-.58.49-.76.82-.18.33-.26.71-.26,1.15,0,.59.16,1.08.47,1.47.31.39.76.68,1.34.88.58.2,1.35.3,2.3.3,1.51,0,2.6-.27,3.28-.81M1094.34,894.62c-.39-.27-.58-.64-.58-1.1s.22-.86.65-1.17,1.32-.47,2.64-.47,2.2.15,2.64.47c.44.31.66.7.66,1.16s-.22.84-.66,1.16c-.44.31-1.32.47-2.64.47s-2.23-.17-2.72-.51"/>
    <polygon class="st13" points="1101.03 544.93 1078.42 533.79 1085.17 519.27 1108.12 530.41 1101.03 544.93"/>
    <polygon points="1098.28 539.18 1086.93 533.69 1101.97 531.57 1102.92 529.6 1088.48 522.61 1087.59 524.45 1098.93 529.94 1083.9 532.06 1082.95 534.03 1097.39 541.02 1098.28 539.18"/>
    <path d="M1100.54,603.05c.42-.47.64-1.07.64-1.78,0-.79-.25-1.45-.73-1.97-.49-.52-1.09-.77-1.79-.77-.52,0-.95.13-1.3.4-.34.27-.57.64-.68,1.12-.17-.37-.4-.65-.68-.84-.29-.19-.61-.28-.95-.28-.36,0-.71.1-1.04.3-.33.2-.59.49-.77.86-.19.37-.28.78-.28,1.22,0,.64.18,1.18.55,1.62.36.43.88.71,1.54.83l.17-1c-.48-.07-.84-.24-1.09-.5s-.36-.58-.36-.97.12-.71.36-.96c.24-.25.54-.37.9-.37.46,0,.79.17,1.02.51.22.34.33.72.33,1.15,0,.04,0,.09-.01.16l.87.11c-.07-.28-.11-.52-.11-.7,0-.47.14-.85.44-1.15.29-.3.67-.45,1.12-.45s.87.16,1.2.48c.32.33.48.72.48,1.19,0,.4-.12.73-.37,1.01-.25.28-.65.47-1.21.59l.13,1c.67-.07,1.22-.34,1.64-.8M1101.03,596.51h-3.03c-.53,0-.94-.05-1.22-.16-.28-.1-.5-.28-.65-.52-.15-.24-.22-.5-.22-.78,0-.37.11-.63.33-.8.22-.16.55-.24.99-.24h3.79v-1h-3.39c-.6,0-1.04-.14-1.31-.41-.27-.27-.41-.62-.41-1.04,0-.23.06-.42.16-.6.11-.17.25-.29.42-.35.17-.07.46-.1.86-.1h3.67v-.99h-4.01c-.66,0-1.16.16-1.48.47-.32.31-.48.76-.48,1.35,0,.75.34,1.35,1.02,1.82-.32.11-.57.31-.75.59-.18.28-.27.64-.27,1.07,0,.39.08.74.26,1.05.17.31.4.55.69.74h-.82v.89h5.83v-1Z"/>
    <rect class="st13" x="21.95" y="960.76" width="18.9" height="311.88"/>
    <path d="M25.41,1266.35v.95c.52.26,1.05.7,1.61,1.32.55.62,1.02,1.35,1.41,2.17h1.43c-.17-.46-.42-.98-.76-1.56-.34-.58-.68-1.05-1.02-1.4h9.41v-1.48h-12.08ZM35.8,1261.66h1.68v-1.69h-1.68v1.69ZM35.78,1257.02c.64-.42,1.12-1,1.43-1.74.32-.73.47-1.65.47-2.74,0-.86-.16-1.64-.47-2.33-.31-.69-.76-1.22-1.32-1.59-.57-.37-1.17-.55-1.81-.55s-1.21.17-1.71.5c-.49.33-.9.85-1.22,1.56-.22.48-.48,1.37-.77,2.67-.29,1.3-.58,2.1-.86,2.4-.28.31-.64.47-1.07.47-.5,0-.92-.22-1.28-.66-.35-.44-.53-1.14-.53-2.11s.19-1.63.58-2.1c.39-.48.96-.76,1.72-.84l-.11-1.53c-.71.03-1.34.23-1.9.59-.55.37-.98.89-1.26,1.58-.29.68-.43,1.47-.43,2.36,0,.81.14,1.55.41,2.22.27.66.68,1.17,1.2,1.51.53.35,1.09.52,1.7.52.55,0,1.05-.14,1.5-.42.45-.28.82-.71,1.12-1.29.23-.44.49-1.22.75-2.33.27-1.11.46-1.82.59-2.15.19-.5.43-.87.71-1.08.28-.22.61-.33.99-.33s.72.12,1.03.34c.31.23.56.57.74,1.04.18.47.27,1.01.27,1.61,0,.69-.12,1.31-.36,1.85-.24.55-.55.95-.93,1.22-.38.26-.88.43-1.48.5l.13,1.5c.8-.02,1.52-.24,2.16-.66M37.48,1240.02v-1.55c-.33.18-.68.31-1.05.37-.36.07-1.23.1-2.6.1h-1.97c-.66,0-1.11.02-1.36.07-.4.09-.74.24-1.01.46-.26.22-.48.56-.66,1.03-.18.47-.27,1.07-.27,1.82s.1,1.41.31,1.98c.21.57.5,1.01.88,1.31.38.3.88.52,1.5.65l.2-1.45c-.62-.16-1.05-.41-1.29-.74-.24-.33-.36-.85-.36-1.54,0-.75.17-1.31.5-1.69.25-.28.67-.42,1.27-.42.06,0,.19,0,.39,0,.2.56.37,1.45.51,2.64.07.59.14,1.03.22,1.32.11.39.27.75.48,1.06.21.32.5.57.85.76.35.2.74.29,1.17.29.73,0,1.33-.26,1.8-.77.46-.52.7-1.25.7-2.22,0-.58-.09-1.12-.29-1.63-.19-.51-.52-1.03-.98-1.58.41-.04.77-.14,1.07-.3M33.65,1240.44c.65,0,1.14.08,1.47.24.43.21.77.54,1.02.98.25.45.37.95.37,1.53s-.13,1.01-.39,1.31c-.26.3-.59.45-.98.45-.26,0-.49-.07-.7-.21-.21-.14-.37-.33-.48-.58-.11-.25-.21-.68-.3-1.29-.15-1.08-.34-1.88-.56-2.42h.54ZM25.46,1236.61h12.02v-1.48h-12.02v1.48ZM28.77,1232.35h1.68v-1.69h-1.68v1.69ZM35.8,1232.35h1.68v-1.69h-1.68v1.69ZM26.2,1217.08c-.53.61-.79,1.38-.79,2.33,0,1.27.46,2.29,1.38,3.04,1.05.86,2.74,1.29,5.07,1.29,2.08,0,3.57-.39,4.47-1.17.9-.78,1.36-1.79,1.36-3.02,0-.72-.17-1.37-.52-1.94-.35-.57-.84-1.02-1.49-1.34-.65-.33-1.35-.49-2.11-.49-1.15,0-2.08.35-2.81,1.04-.73.69-1.09,1.53-1.09,2.52,0,.56.13,1.11.39,1.62.27.52.67.95,1.21,1.31-1.2,0-2.13-.15-2.78-.42-.65-.27-1.15-.63-1.48-1.1-.26-.36-.39-.77-.39-1.24,0-.59.21-1.08.63-1.48.26-.24.68-.43,1.26-.56l-.12-1.47c-.93.12-1.67.49-2.2,1.09M31.7,1221.34c-.48-.47-.72-1.04-.72-1.71s.24-1.23.72-1.68c.48-.45,1.13-.67,1.96-.67s1.55.23,2.05.67c.5.45.76.99.76,1.61,0,.43-.12.84-.37,1.23-.24.39-.6.69-1.06.91-.47.21-.95.33-1.46.33-.77,0-1.4-.24-1.88-.7M35.8,1213.4h1.68v-1.69h-1.68v1.69ZM37.48,1204.35c0-.77-.07-1.42-.2-1.95-.13-.53-.33-.97-.59-1.32-.26-.35-.64-.64-1.12-.89-.49-.24-1.01-.36-1.57-.36-.7,0-1.3.2-1.82.59s-.88.95-1.09,1.68c-.28-.56-.64-.99-1.1-1.27-.45-.28-.94-.42-1.45-.42-.55,0-1.08.16-1.59.47-.51.32-.88.75-1.12,1.31-.24.56-.36,1.3-.36,2.22v4.53h12.02v-4.6ZM26.87,1207.35v-2.41c0-.87.06-1.48.17-1.84.11-.36.32-.63.62-.82.3-.19.66-.29,1.05-.29.42,0,.77.1,1.05.31.28.21.48.51.6.92.09.31.14.81.14,1.52v2.61h-3.63ZM31.93,1207.35v-2.79c0-.77.07-1.36.2-1.77.13-.41.37-.73.7-.96s.72-.35,1.17-.35c.38,0,.72.08,1.01.24.29.16.52.36.67.61.16.25.26.56.33.92.04.21.06.57.06,1.09v3h-4.13ZM35.8,1197.34h1.68v-1.69h-1.68v1.69ZM25.41,1187.84v.96c.52.26,1.05.69,1.61,1.32.55.62,1.02,1.34,1.41,2.17h1.43c-.17-.46-.42-.98-.76-1.56-.34-.58-.68-1.05-1.02-1.41h9.41v-1.48h-12.08ZM35.8,1183.15h1.68v-1.69h-1.68v1.69ZM27.03,1173.22c.86.75,1.9,1.46,3.15,2.13,1.24.67,2.53,1.18,3.88,1.53,1.34.36,2.48.54,3.43.56v-1.52c-1.2-.08-2.3-.27-3.31-.57-1.43-.41-2.81-1-4.17-1.75-1.35-.76-2.43-1.52-3.25-2.29h-1.15v7.81h1.42v-5.91ZM37.48,1168.15c.5.01.88.1,1.15.25.27.15.47.38.6.69l.63-.41c-.21-.48-.5-.83-.88-1.04-.38-.22-.88-.33-1.5-.33h-1.68v1.69h1.68v-.84ZM26.2,1153.69c-.53.61-.79,1.39-.79,2.33,0,1.27.46,2.29,1.38,3.04,1.05.86,2.74,1.29,5.07,1.29,2.08,0,3.57-.39,4.47-1.17.9-.78,1.36-1.78,1.36-3.02,0-.73-.17-1.37-.52-1.94-.35-.57-.84-1.02-1.49-1.34-.65-.33-1.35-.49-2.11-.49-1.15,0-2.08.35-2.81,1.04-.73.69-1.09,1.54-1.09,2.52,0,.56.13,1.11.39,1.62.27.52.67.95,1.21,1.31-1.2-.01-2.13-.15-2.78-.42-.65-.27-1.15-.64-1.48-1.1-.26-.36-.39-.77-.39-1.25,0-.59.21-1.08.63-1.48.26-.24.68-.43,1.26-.56l-.12-1.47c-.93.12-1.67.48-2.2,1.09M31.7,1157.95c-.48-.47-.72-1.04-.72-1.7s.24-1.24.72-1.68c.48-.45,1.13-.67,1.96-.67s1.55.23,2.05.68c.5.45.76.99.76,1.61,0,.43-.12.84-.37,1.23-.24.39-.6.69-1.06.91-.47.22-.95.33-1.46.33-.77,0-1.4-.24-1.88-.7M35.8,1150.01h1.68v-1.69h-1.68v1.69ZM37.48,1140.96c0-.77-.07-1.42-.2-1.95-.13-.53-.33-.97-.59-1.32-.26-.35-.64-.64-1.12-.89-.49-.24-1.01-.36-1.57-.36-.7,0-1.3.2-1.82.59s-.88.95-1.09,1.68c-.28-.56-.64-.99-1.1-1.27-.45-.28-.94-.42-1.45-.42-.55,0-1.08.16-1.59.47-.51.32-.88.75-1.12,1.31-.24.56-.36,1.3-.36,2.22v4.52h12.02v-4.6ZM26.87,1143.96v-2.41c0-.87.06-1.48.17-1.84.11-.35.32-.63.62-.82.3-.19.66-.29,1.05-.29.42,0,.77.1,1.05.31.28.21.48.51.6.92.09.31.14.82.14,1.52v2.61h-3.63ZM31.93,1143.96v-2.79c0-.77.07-1.36.2-1.77.13-.41.37-.73.7-.96.33-.23.72-.35,1.17-.35.38,0,.72.08,1.01.24.29.16.52.36.67.61.16.25.26.56.33.92.04.21.06.57.06,1.09v3h-4.13ZM35.8,1133.95h1.68v-1.69h-1.68v1.69ZM25.41,1124.45v.96c.52.26,1.05.7,1.61,1.32s1.02,1.34,1.41,2.17h1.43c-.17-.46-.42-.98-.76-1.56-.34-.58-.68-1.04-1.02-1.4h9.41v-1.48h-12.08ZM35.8,1119.76h1.68v-1.69h-1.68v1.69ZM36.9,1114.54c.52-.6.78-1.37.78-2.31,0-.89-.24-1.67-.71-2.32-.48-.66-1.17-1.16-2.08-1.5-.91-.34-2.14-.5-3.67-.5s-2.6.17-3.38.51c-.78.34-1.38.83-1.8,1.48-.42.65-.63,1.37-.63,2.15,0,1.09.37,1.99,1.12,2.71.74.72,1.73,1.08,2.94,1.08s2.13-.35,2.85-1.04c.72-.69,1.08-1.54,1.08-2.53,0-.6-.15-1.15-.44-1.67-.29-.51-.67-.92-1.14-1.21.13,0,.23,0,.29,0,.61,0,1.21.07,1.8.22.59.15,1.06.33,1.41.55.35.22.62.5.83.84.21.35.31.74.31,1.2,0,.53-.15.97-.45,1.31s-.79.57-1.45.69l.13,1.42c.95-.12,1.68-.48,2.2-1.08M31.38,1110.21c.48.44.72,1,.72,1.69s-.24,1.25-.72,1.72c-.48.46-1.1.69-1.86.69-.86,0-1.55-.24-2.09-.73-.53-.49-.8-1.06-.8-1.72s.25-1.18.74-1.63c.5-.45,1.17-.68,2.02-.68s1.51.22,1.99.66M37.48,1104.76c.5.02.88.1,1.15.25.27.15.47.38.6.69l.63-.41c-.21-.48-.5-.83-.88-1.05-.38-.22-.88-.33-1.5-.33h-1.68v1.69h1.68v-.84Z"/>
    <path d="M26.2,1089.83c-.53.61-.79,1.39-.79,2.33,0,1.27.46,2.29,1.38,3.04,1.05.86,2.74,1.29,5.07,1.29,2.08,0,3.57-.39,4.48-1.17.9-.78,1.36-1.79,1.36-3.02,0-.72-.17-1.37-.52-1.94-.34-.57-.84-1.02-1.49-1.35-.65-.33-1.35-.49-2.1-.49-1.15,0-2.08.35-2.81,1.04-.72.69-1.09,1.54-1.09,2.52,0,.57.13,1.11.4,1.62s.66.95,1.2,1.31c-1.2-.01-2.13-.15-2.78-.42-.65-.27-1.15-.64-1.48-1.1-.26-.36-.4-.77-.4-1.25,0-.58.21-1.08.63-1.48.26-.24.69-.43,1.27-.56l-.12-1.47c-.94.12-1.67.49-2.2,1.09M31.7,1094.09c-.48-.47-.72-1.03-.72-1.7s.24-1.24.72-1.68c.48-.44,1.13-.67,1.97-.67s1.55.22,2.05.68c.5.45.76.99.76,1.61,0,.43-.12.84-.36,1.23-.24.39-.6.69-1.06.91-.46.21-.95.32-1.46.32-.77,0-1.4-.23-1.88-.7M35.8,1086.13h1.68v-1.69h-1.68v1.69Z"/>
    <path d="M37.48,1077.11c0-.77-.07-1.42-.2-1.95-.14-.53-.33-.97-.59-1.32-.26-.35-.64-.65-1.12-.88-.49-.24-1.01-.36-1.57-.36-.7,0-1.3.2-1.82.59-.51.39-.88.95-1.09,1.68-.28-.56-.64-.99-1.1-1.27-.46-.28-.94-.42-1.45-.42-.55,0-1.08.16-1.59.47-.5.32-.88.75-1.13,1.31-.24.56-.36,1.3-.36,2.22v4.53h12.03v-4.6ZM26.87,1080.12v-2.41c0-.87.06-1.48.17-1.83.12-.36.32-.63.62-.82.3-.19.66-.29,1.05-.29.42,0,.77.1,1.05.31.28.21.48.51.6.92.09.31.14.82.14,1.52v2.61h-3.64ZM31.93,1080.12v-2.79c0-.77.07-1.36.2-1.77.13-.41.37-.73.7-.96.33-.23.72-.35,1.17-.35.38,0,.72.08,1.02.24.29.16.51.36.67.61.15.24.26.55.33.92.04.21.06.57.06,1.09v3h-4.14ZM35.8,1070.27h1.68v-1.69h-1.68v1.69Z"/>
    <path d="M25.41,1060.8v.95c.52.26,1.05.7,1.61,1.32s1.02,1.35,1.41,2.17h1.43c-.17-.46-.42-.98-.76-1.56-.34-.58-.68-1.04-1.02-1.4h9.41v-1.48h-12.08ZM35.8,1055.76h1.68v-1.69h-1.68v1.69Z"/>
    <path d="M25.41,1046.29v.96c.52.26,1.05.69,1.61,1.32s1.02,1.34,1.41,2.17h1.43c-.17-.46-.42-.98-.76-1.56-.34-.58-.68-1.04-1.02-1.4h9.41v-1.48h-12.08ZM25.41,1036.86v.96c.52.26,1.05.7,1.61,1.32s1.02,1.35,1.41,2.17h1.43c-.17-.46-.42-.98-.76-1.56-.34-.58-.68-1.04-1.02-1.4h9.41v-1.48h-12.08ZM37.48,1031.38c.5.02.88.1,1.15.25.26.15.47.38.6.69l.63-.41c-.21-.48-.5-.83-.88-1.04-.38-.22-.88-.33-1.5-.33h-1.68v1.69h1.68v-.84ZM26.2,1016.95c-.53.61-.79,1.38-.79,2.33,0,1.27.46,2.29,1.38,3.04,1.05.86,2.74,1.29,5.07,1.29,2.08,0,3.57-.39,4.48-1.17.91-.78,1.36-1.78,1.36-3.02,0-.72-.17-1.37-.51-1.94-.35-.57-.84-1.02-1.49-1.35-.65-.33-1.35-.49-2.1-.49-1.15,0-2.08.35-2.81,1.04-.72.69-1.08,1.53-1.08,2.52,0,.56.13,1.11.39,1.62.26.52.66.95,1.21,1.31-1.2,0-2.13-.15-2.78-.42-.65-.27-1.15-.64-1.48-1.1-.26-.36-.39-.77-.39-1.25,0-.59.21-1.08.63-1.48.26-.24.69-.43,1.27-.56l-.12-1.47c-.94.12-1.67.48-2.2,1.09M31.7,1021.21c-.48-.47-.72-1.03-.72-1.7s.24-1.24.72-1.68c.48-.45,1.13-.67,1.96-.67s1.55.22,2.05.67c.5.45.76.99.76,1.61,0,.43-.12.84-.37,1.23-.24.39-.6.69-1.06.91-.47.22-.95.33-1.46.33-.78,0-1.4-.23-1.88-.7M35.8,1013.29h1.68v-1.69h-1.68v1.69ZM37.48,1004.25c0-.77-.07-1.42-.2-1.94-.14-.53-.33-.97-.59-1.32-.26-.35-.64-.65-1.12-.88-.49-.24-1.01-.36-1.57-.36-.7,0-1.3.2-1.82.59-.51.4-.88.96-1.09,1.68-.28-.56-.64-.99-1.1-1.27s-.94-.42-1.45-.42c-.55,0-1.08.16-1.59.47-.5.31-.88.75-1.13,1.31-.24.56-.36,1.3-.36,2.22v4.53h12.02v-4.6ZM26.87,1007.26v-2.41c0-.87.06-1.48.17-1.84.11-.35.32-.63.62-.82.31-.19.66-.29,1.05-.29.42,0,.77.1,1.05.31.28.21.48.51.6.92.09.3.14.81.14,1.52v2.61h-3.64ZM31.93,1007.26v-2.79c0-.77.07-1.36.2-1.76.13-.41.37-.73.7-.96.33-.23.72-.35,1.17-.35.38,0,.72.08,1.02.24.29.16.51.36.67.61.16.25.27.56.33.92.04.21.06.57.06,1.09v3h-4.13ZM35.8,997.27h1.68v-1.69h-1.68v1.69ZM25.41,987.78v.96c.52.26,1.05.69,1.61,1.32s1.02,1.34,1.41,2.17h1.43c-.17-.46-.42-.98-.76-1.56-.34-.58-.68-1.05-1.02-1.4h9.41v-1.48h-12.08ZM35.8,983.11h1.68v-1.69h-1.68v1.69ZM25.41,973.62v.96c.52.26,1.05.69,1.61,1.32.55.62,1.02,1.34,1.41,2.17h1.43c-.17-.46-.42-.98-.76-1.56-.34-.58-.68-1.05-1.02-1.41h9.41v-1.48h-12.08Z"/>
    <path d="M36.75,968.31c.63-.7.94-1.58.94-2.64,0-1.18-.36-2.15-1.09-2.91-.73-.77-1.62-1.16-2.67-1.16-.78,0-1.43.2-1.94.6-.51.4-.86.95-1.02,1.66-.25-.55-.59-.96-1.02-1.24-.43-.28-.9-.42-1.42-.42-.55,0-1.06.14-1.55.44-.49.29-.87.72-1.15,1.27-.28.56-.42,1.16-.42,1.82,0,.96.27,1.75.82,2.39.54.64,1.31,1.05,2.3,1.24l.26-1.48c-.72-.11-1.26-.36-1.63-.74-.36-.39-.54-.87-.54-1.44s.18-1.06.53-1.43c.35-.37.8-.55,1.34-.55.68,0,1.19.26,1.52.76.33.5.49,1.07.49,1.7,0,.06,0,.14-.02.24l1.3.16c-.11-.42-.17-.76-.17-1.04,0-.69.22-1.25.66-1.69.44-.45,1-.67,1.68-.67s1.3.24,1.79.72c.48.48.72,1.07.72,1.77,0,.58-.19,1.09-.55,1.49-.37.41-.97.7-1.81.87l.2,1.48c1-.1,1.82-.5,2.45-1.2"/>
    <rect class="st13" x="43.89" y="960.76" width="18.9" height="311.88"/>
    <path d="M58,1270.07c-.27-.17-.53-.37-.8-.62-.27-.25-.77-.82-1.51-1.71-.9-1.06-1.6-1.83-2.12-2.29-.51-.46-1-.79-1.47-.98-.46-.2-.94-.3-1.42-.3-.94,0-1.74.34-2.38,1.01-.64.67-.96,1.59-.96,2.75s.3,2.06.89,2.74c.59.68,1.45,1.07,2.59,1.18l.16-1.52c-.76,0-1.35-.22-1.77-.65-.43-.43-.64-1-.64-1.71,0-.67.2-1.22.6-1.64.4-.42.89-.63,1.48-.63s1.15.23,1.78.69c.62.46,1.48,1.35,2.55,2.66.69.85,1.3,1.49,1.82,1.94.52.45,1.06.77,1.6.97.33.13.67.18,1.02.17v-7.98h-1.42v5.92ZM57.74,1261.66h1.68v-1.69h-1.68v1.69ZM57.72,1257.02c.64-.42,1.12-1,1.43-1.74.32-.73.47-1.65.47-2.74,0-.86-.16-1.64-.47-2.33-.31-.69-.76-1.22-1.32-1.59-.57-.37-1.17-.55-1.81-.55s-1.21.17-1.71.5c-.49.33-.9.85-1.22,1.56-.22.48-.48,1.37-.77,2.67-.29,1.3-.58,2.1-.86,2.4-.28.31-.64.47-1.07.47-.5,0-.92-.22-1.28-.66-.35-.44-.53-1.14-.53-2.11s.19-1.63.58-2.1c.39-.48.96-.76,1.72-.84l-.12-1.53c-.7.03-1.33.23-1.89.59-.56.37-.98.89-1.27,1.58-.29.68-.43,1.47-.43,2.36,0,.81.14,1.55.41,2.22.27.66.68,1.17,1.2,1.51.53.35,1.09.52,1.7.52.55,0,1.05-.14,1.5-.42.45-.28.82-.71,1.12-1.29.23-.44.49-1.22.75-2.33.27-1.11.46-1.82.59-2.15.19-.5.43-.87.71-1.08.28-.22.61-.33.99-.33s.72.12,1.03.34c.31.23.56.57.74,1.04.18.47.27,1.01.27,1.61,0,.69-.12,1.31-.36,1.85-.24.55-.55.95-.93,1.22-.38.26-.88.43-1.48.5l.13,1.5c.81-.02,1.53-.24,2.16-.66M59.42,1240.02v-1.55c-.33.18-.68.31-1.05.37-.36.07-1.23.1-2.6.1h-1.97c-.66,0-1.11.02-1.36.07-.4.09-.74.24-1.01.46-.26.22-.48.56-.66,1.03-.18.47-.27,1.07-.27,1.82s.1,1.41.31,1.98c.21.57.5,1.01.88,1.31.38.3.88.52,1.5.65l.2-1.45c-.62-.16-1.05-.41-1.29-.74-.24-.33-.36-.85-.36-1.54,0-.75.17-1.31.5-1.69.25-.28.67-.42,1.27-.42.06,0,.18,0,.39,0,.2.56.37,1.45.51,2.64.07.59.14,1.03.22,1.32.11.39.27.75.48,1.06.21.32.5.57.85.76.35.2.74.29,1.17.29.73,0,1.33-.26,1.79-.77.47-.52.7-1.25.7-2.22,0-.58-.09-1.12-.29-1.63-.19-.51-.52-1.03-.98-1.58.41-.04.77-.14,1.07-.3M55.59,1240.44c.65,0,1.14.08,1.47.24.43.21.77.54,1.02.98.25.45.37.95.37,1.53s-.13,1.01-.39,1.31c-.26.3-.59.45-.98.45-.26,0-.49-.07-.7-.21-.21-.14-.37-.33-.48-.58-.11-.25-.21-.68-.3-1.29-.15-1.08-.34-1.88-.56-2.42h.54ZM47.39,1236.61h12.03v-1.48h-12.03v1.48ZM50.71,1232.35h1.68v-1.69h-1.68v1.69ZM57.74,1232.35h1.68v-1.69h-1.68v1.69ZM48.14,1217.08c-.53.61-.79,1.38-.79,2.33,0,1.27.46,2.29,1.38,3.04,1.05.86,2.74,1.29,5.07,1.29,2.08,0,3.57-.39,4.47-1.17.9-.78,1.36-1.79,1.36-3.02,0-.72-.17-1.37-.52-1.94-.35-.57-.84-1.02-1.49-1.34-.65-.33-1.35-.49-2.11-.49-1.15,0-2.08.35-2.81,1.04-.73.69-1.09,1.53-1.09,2.52,0,.56.13,1.11.39,1.62.26.52.66.95,1.2,1.31-1.2,0-2.13-.15-2.78-.42-.65-.27-1.15-.63-1.48-1.1-.26-.36-.39-.77-.39-1.24,0-.59.21-1.08.63-1.48.26-.24.68-.43,1.26-.56l-.12-1.47c-.94.12-1.67.49-2.2,1.09M53.64,1221.34c-.48-.47-.72-1.04-.72-1.71s.24-1.23.72-1.68c.48-.45,1.13-.67,1.96-.67s1.55.23,2.05.67c.5.45.76.99.76,1.61,0,.43-.12.84-.37,1.23-.24.39-.6.69-1.06.91-.47.21-.95.33-1.46.33-.77,0-1.4-.24-1.88-.7M57.74,1213.4h1.68v-1.69h-1.68v1.69ZM59.42,1204.35c0-.77-.07-1.42-.2-1.95-.13-.53-.33-.97-.59-1.32-.26-.35-.64-.64-1.12-.89-.49-.24-1.01-.36-1.57-.36-.7,0-1.31.2-1.82.59-.51.39-.88.95-1.09,1.68-.28-.56-.64-.99-1.1-1.27-.46-.28-.94-.42-1.45-.42-.55,0-1.08.16-1.59.47-.51.32-.88.75-1.12,1.31-.24.56-.36,1.3-.36,2.22v4.53h12.03v-4.6ZM48.81,1207.35v-2.41c0-.87.06-1.48.17-1.84.11-.36.32-.63.62-.82.3-.19.66-.29,1.05-.29.42,0,.77.1,1.05.31.28.21.48.51.6.92.09.31.14.81.14,1.52v2.61h-3.63ZM53.87,1207.35v-2.79c0-.77.07-1.36.2-1.77.13-.41.37-.73.7-.96.33-.23.72-.35,1.17-.35.38,0,.72.08,1.01.24.29.16.52.36.67.61.16.25.26.56.33.92.04.21.06.57.06,1.09v3h-4.13ZM57.74,1197.34h1.68v-1.69h-1.68v1.69ZM58,1191.55c-.27-.17-.53-.38-.8-.62-.27-.25-.77-.82-1.51-1.71-.9-1.07-1.6-1.83-2.12-2.29-.51-.46-1-.79-1.47-.98-.46-.2-.94-.29-1.42-.29-.94,0-1.74.34-2.38,1.01-.64.67-.96,1.59-.96,2.75s.3,2.06.89,2.74,1.45,1.08,2.59,1.18l.16-1.52c-.76,0-1.35-.22-1.77-.65-.43-.43-.64-1-.64-1.71,0-.68.2-1.22.6-1.64.4-.42.89-.63,1.48-.63s1.15.23,1.78.69c.62.46,1.48,1.35,2.55,2.66.69.84,1.3,1.49,1.82,1.94.52.44,1.06.77,1.6.97.33.13.67.19,1.02.17v-7.98h-1.42v5.92ZM57.74,1183.15h1.68v-1.69h-1.68v1.69ZM48.97,1173.22c.86.75,1.9,1.46,3.15,2.13,1.24.67,2.53,1.18,3.88,1.53,1.34.36,2.48.54,3.43.56v-1.52c-1.2-.08-2.3-.27-3.31-.57-1.43-.41-2.81-1-4.17-1.75-1.35-.76-2.43-1.52-3.25-2.29h-1.15v7.81h1.42v-5.91ZM59.42,1168.15c.5.01.88.1,1.14.25.27.15.47.38.61.69l.63-.41c-.21-.48-.5-.83-.88-1.04-.38-.22-.88-.33-1.5-.33h-1.68v1.69h1.68v-.84ZM48.14,1153.69c-.53.61-.79,1.39-.79,2.33,0,1.27.46,2.29,1.38,3.04,1.05.86,2.74,1.29,5.07,1.29,2.08,0,3.57-.39,4.47-1.17.9-.78,1.36-1.78,1.36-3.02,0-.73-.17-1.37-.52-1.94-.35-.57-.84-1.02-1.49-1.34-.65-.33-1.35-.49-2.11-.49-1.15,0-2.08.35-2.81,1.04-.73.69-1.09,1.54-1.09,2.52,0,.56.13,1.11.39,1.62.26.52.66.95,1.2,1.31-1.2-.01-2.13-.15-2.78-.42-.65-.27-1.15-.64-1.48-1.1-.26-.36-.39-.77-.39-1.25,0-.59.21-1.08.63-1.48.26-.24.68-.43,1.26-.56l-.12-1.47c-.94.12-1.67.48-2.2,1.09M53.64,1157.95c-.48-.47-.72-1.04-.72-1.7s.24-1.24.72-1.68c.48-.45,1.13-.67,1.96-.67s1.55.23,2.05.68c.5.45.76.99.76,1.61,0,.43-.12.84-.37,1.23-.24.39-.6.69-1.06.91-.47.22-.95.33-1.46.33-.77,0-1.4-.24-1.88-.7M57.74,1150.01h1.68v-1.69h-1.68v1.69ZM59.42,1140.96c0-.77-.07-1.42-.2-1.95-.13-.53-.33-.97-.59-1.32-.26-.35-.64-.64-1.12-.89-.49-.24-1.01-.36-1.57-.36-.7,0-1.31.2-1.82.59-.51.39-.88.95-1.09,1.68-.28-.56-.64-.99-1.1-1.27-.46-.28-.94-.42-1.45-.42-.55,0-1.08.16-1.59.47-.51.32-.88.75-1.12,1.31-.24.56-.36,1.3-.36,2.22v4.52h12.03v-4.6ZM48.81,1143.96v-2.41c0-.87.06-1.48.17-1.84.11-.35.32-.63.62-.82.3-.19.66-.29,1.05-.29.42,0,.77.1,1.05.31.28.21.48.51.6.92.09.31.14.82.14,1.52v2.61h-3.63ZM53.87,1143.96v-2.79c0-.77.07-1.36.2-1.77.13-.41.37-.73.7-.96.33-.23.72-.35,1.17-.35.38,0,.72.08,1.01.24.29.16.52.36.67.61.16.25.26.56.33.92.04.21.06.57.06,1.09v3h-4.13ZM57.74,1133.95h1.68v-1.69h-1.68v1.69ZM58,1128.16c-.27-.16-.53-.37-.8-.62-.27-.25-.77-.83-1.51-1.72-.9-1.06-1.6-1.82-2.12-2.28-.51-.46-1-.78-1.47-.98-.46-.2-.94-.3-1.42-.3-.94,0-1.74.34-2.38,1.01-.64.67-.96,1.59-.96,2.75s.3,2.06.89,2.74c.59.68,1.45,1.07,2.59,1.18l.16-1.52c-.76,0-1.35-.22-1.77-.65-.43-.43-.64-1-.64-1.71,0-.68.2-1.22.6-1.64.4-.42.89-.63,1.48-.63s1.15.23,1.78.69c.62.46,1.48,1.35,2.55,2.66.69.84,1.3,1.49,1.82,1.94.52.45,1.06.77,1.6.97.33.13.67.18,1.02.17v-7.98h-1.42v5.92ZM57.74,1119.76h1.68v-1.69h-1.68v1.69ZM58.84,1114.54c.52-.6.78-1.37.78-2.31,0-.89-.24-1.67-.71-2.32-.48-.66-1.17-1.16-2.08-1.5-.91-.34-2.14-.5-3.67-.5s-2.6.17-3.38.51c-.78.34-1.38.83-1.8,1.48-.42.65-.63,1.37-.63,2.15,0,1.09.37,1.99,1.12,2.71.74.72,1.73,1.08,2.94,1.08s2.13-.35,2.85-1.04c.72-.69,1.08-1.54,1.08-2.53,0-.6-.15-1.15-.44-1.67-.29-.51-.67-.92-1.14-1.21.13,0,.23,0,.29,0,.61,0,1.21.07,1.8.22.59.15,1.06.33,1.41.55.35.22.63.5.83.84.21.35.31.74.31,1.2,0,.53-.15.97-.45,1.31s-.79.57-1.45.69l.13,1.42c.95-.12,1.68-.48,2.2-1.08M53.32,1110.21c.48.44.72,1,.72,1.69s-.24,1.25-.72,1.72c-.48.46-1.1.69-1.86.69-.86,0-1.55-.24-2.09-.73-.53-.49-.8-1.06-.8-1.72s.25-1.18.74-1.63c.5-.45,1.17-.68,2.02-.68s1.51.22,1.99.66M59.42,1104.76c.5.02.88.1,1.14.25.27.15.47.38.61.69l.63-.41c-.21-.48-.5-.83-.88-1.05-.38-.22-.88-.33-1.5-.33h-1.68v1.69h1.68v-.84Z"/>
    <path d="M48.14,1089.83c-.53.61-.79,1.39-.79,2.33,0,1.27.46,2.29,1.38,3.04,1.05.86,2.74,1.29,5.07,1.29,2.08,0,3.57-.39,4.48-1.17.9-.78,1.36-1.79,1.36-3.02,0-.72-.17-1.37-.52-1.94-.35-.57-.84-1.02-1.49-1.35-.65-.33-1.35-.49-2.1-.49-1.15,0-2.08.35-2.81,1.04-.72.69-1.09,1.54-1.09,2.52,0,.57.13,1.11.4,1.62.26.51.66.95,1.2,1.31-1.2-.01-2.13-.15-2.78-.42-.65-.27-1.15-.64-1.49-1.1-.26-.36-.39-.77-.39-1.25,0-.58.21-1.08.63-1.48.26-.24.68-.43,1.26-.56l-.11-1.47c-.94.12-1.67.49-2.2,1.09M53.64,1094.09c-.48-.47-.72-1.03-.72-1.7s.24-1.24.72-1.68c.48-.44,1.13-.67,1.97-.67s1.55.22,2.05.68c.5.45.76.99.76,1.61,0,.43-.12.84-.37,1.23-.24.39-.6.69-1.06.91-.46.21-.95.32-1.46.32-.77,0-1.41-.23-1.88-.7M57.74,1086.13h1.68v-1.69h-1.68v1.69Z"/>
    <path d="M59.42,1077.11c0-.77-.07-1.42-.2-1.95-.13-.53-.33-.97-.59-1.32-.27-.35-.64-.65-1.12-.88-.48-.24-1-.36-1.57-.36-.7,0-1.31.2-1.82.59-.51.39-.88.95-1.09,1.68-.28-.56-.65-.99-1.1-1.27-.46-.28-.94-.42-1.45-.42-.55,0-1.08.16-1.59.47-.51.32-.88.75-1.13,1.31-.24.56-.36,1.3-.36,2.22v4.53h12.02v-4.6ZM48.81,1080.12v-2.41c0-.87.06-1.48.17-1.83.11-.36.32-.63.62-.82.31-.19.66-.29,1.05-.29.42,0,.77.1,1.05.31.28.21.48.51.6.92.09.31.14.82.14,1.52v2.61h-3.63ZM53.87,1080.12v-2.79c0-.77.07-1.36.2-1.77.14-.41.37-.73.7-.96.33-.23.72-.35,1.17-.35.38,0,.72.08,1.02.24.29.16.51.36.67.61.15.24.26.55.33.92.04.21.06.57.06,1.09v3h-4.14ZM57.74,1070.27h1.68v-1.69h-1.68v1.69Z"/>
    <path d="M58,1064.51c-.27-.16-.54-.37-.8-.62-.27-.25-.77-.82-1.52-1.71-.89-1.06-1.6-1.82-2.12-2.28-.51-.46-1-.79-1.47-.99-.47-.2-.94-.29-1.42-.29-.95,0-1.74.34-2.38,1.01-.64.68-.96,1.59-.96,2.75s.29,2.06.89,2.74c.59.68,1.45,1.07,2.59,1.18l.16-1.52c-.76,0-1.35-.22-1.77-.65-.43-.43-.64-1-.64-1.71,0-.68.2-1.22.61-1.64.4-.42.9-.63,1.48-.63s1.15.23,1.77.69c.63.46,1.48,1.35,2.55,2.66.69.85,1.3,1.49,1.82,1.94.53.45,1.06.77,1.6.97.33.13.67.19,1.02.17v-7.98h-1.42v5.92ZM57.74,1055.76h1.68v-1.69h-1.68v1.69Z"/>
    <path d="M47.35,1046.29v.96c.52.26,1.05.69,1.61,1.32s1.02,1.34,1.41,2.17h1.43c-.17-.46-.42-.98-.76-1.56-.34-.58-.68-1.04-1.02-1.4h9.41v-1.48h-12.08ZM47.35,1036.86v.96c.52.26,1.05.7,1.61,1.32s1.02,1.35,1.41,2.17h1.43c-.17-.46-.42-.98-.76-1.56-.34-.58-.68-1.04-1.02-1.4h9.41v-1.48h-12.08ZM59.42,1031.38c.5.02.88.1,1.15.25.26.15.46.38.6.69l.63-.41c-.21-.48-.5-.83-.88-1.04-.38-.22-.88-.33-1.5-.33h-1.68v1.69h1.68v-.84ZM48.14,1016.95c-.53.61-.79,1.38-.79,2.33,0,1.27.46,2.29,1.38,3.04,1.05.86,2.74,1.29,5.07,1.29,2.08,0,3.57-.39,4.48-1.17.91-.78,1.36-1.78,1.36-3.02,0-.72-.17-1.37-.51-1.94-.35-.57-.84-1.02-1.49-1.35-.65-.33-1.35-.49-2.1-.49-1.15,0-2.08.35-2.81,1.04-.72.69-1.08,1.53-1.08,2.52,0,.56.13,1.11.39,1.62.26.52.66.95,1.2,1.31-1.2,0-2.13-.15-2.78-.42-.65-.27-1.15-.64-1.48-1.1-.26-.36-.4-.77-.4-1.25,0-.59.21-1.08.63-1.48.26-.24.68-.43,1.26-.56l-.11-1.47c-.94.12-1.67.48-2.2,1.09M53.64,1021.21c-.48-.47-.72-1.03-.72-1.7s.24-1.24.72-1.68c.48-.45,1.13-.67,1.96-.67s1.55.22,2.05.67c.5.45.76.99.76,1.61,0,.43-.12.84-.37,1.23-.24.39-.6.69-1.06.91-.47.22-.95.33-1.46.33-.77,0-1.4-.23-1.88-.7M57.74,1013.29h1.68v-1.69h-1.68v1.69ZM59.42,1004.25c0-.77-.07-1.42-.2-1.94-.14-.53-.33-.97-.59-1.32-.26-.35-.64-.65-1.12-.88-.49-.24-1.01-.36-1.57-.36-.7,0-1.3.2-1.82.59-.51.4-.88.96-1.09,1.68-.28-.56-.64-.99-1.1-1.27s-.94-.42-1.45-.42c-.55,0-1.08.16-1.59.47-.5.31-.88.75-1.13,1.31-.24.56-.36,1.3-.36,2.22v4.53h12.02v-4.6ZM48.81,1007.26v-2.41c0-.87.06-1.48.17-1.84.11-.35.32-.63.62-.82.31-.19.66-.29,1.05-.29.42,0,.77.1,1.05.31.28.21.48.51.6.92.09.3.14.81.14,1.52v2.61h-3.64ZM53.87,1007.26v-2.79c0-.77.07-1.36.2-1.76.13-.41.37-.73.7-.96.33-.23.72-.35,1.17-.35.38,0,.72.08,1.02.24.29.16.51.36.67.61.16.25.27.56.33.92.04.21.06.57.06,1.09v3h-4.13ZM57.74,997.27h1.68v-1.69h-1.68v1.69ZM58,991.49c-.27-.16-.53-.37-.8-.62-.26-.25-.77-.82-1.51-1.71-.9-1.06-1.6-1.82-2.12-2.28-.51-.46-1-.79-1.47-.98-.47-.2-.94-.3-1.42-.3-.95,0-1.74.34-2.38,1.01-.64.67-.96,1.59-.96,2.75s.3,2.06.89,2.74c.59.68,1.45,1.07,2.59,1.17l.16-1.52c-.76,0-1.35-.23-1.77-.65-.43-.43-.64-1-.64-1.71,0-.68.2-1.22.6-1.64s.9-.63,1.48-.63c.55,0,1.15.23,1.77.69.63.46,1.48,1.35,2.55,2.66.69.84,1.3,1.49,1.82,1.94.52.45,1.06.77,1.6.97.33.13.67.19,1.03.17v-7.97h-1.42v5.92ZM57.74,983.11h1.68v-1.69h-1.68v1.69ZM47.35,973.62v.96c.52.26,1.05.69,1.61,1.32.55.62,1.02,1.34,1.41,2.17h1.43c-.17-.46-.42-.98-.76-1.56-.34-.58-.68-1.05-1.02-1.41h9.41v-1.48h-12.08Z"/>
    <path d="M58.69,968.31c.63-.7.94-1.58.94-2.64,0-1.18-.37-2.15-1.1-2.91-.73-.77-1.62-1.16-2.67-1.16-.78,0-1.42.2-1.94.6-.52.4-.86.95-1.02,1.66-.25-.55-.59-.96-1.01-1.24-.43-.28-.9-.42-1.42-.42-.55,0-1.06.14-1.55.44-.49.29-.87.72-1.15,1.27-.28.56-.42,1.16-.42,1.82,0,.96.27,1.75.82,2.39.54.64,1.31,1.05,2.3,1.24l.26-1.48c-.72-.11-1.26-.36-1.63-.74-.36-.39-.54-.87-.54-1.44s.18-1.06.53-1.43c.35-.37.8-.55,1.34-.55.68,0,1.19.26,1.52.76.33.5.49,1.07.49,1.7,0,.06,0,.14-.02.24l1.3.16c-.11-.42-.17-.76-.17-1.04,0-.69.22-1.25.66-1.69.44-.45,1-.67,1.68-.67s1.3.24,1.78.72c.48.48.72,1.07.72,1.77,0,.58-.19,1.09-.55,1.49-.37.41-.97.7-1.81.87l.2,1.48c1-.1,1.82-.5,2.45-1.2"/>
    <rect class="st13" x="65.5" y="960.76" width="18.9" height="311.88"/>
    <path d="M80.29,1270.73c.63-.7.94-1.58.94-2.64,0-1.18-.37-2.15-1.1-2.92-.73-.77-1.62-1.15-2.67-1.15-.78,0-1.43.2-1.94.59-.51.39-.86.95-1.02,1.66-.25-.55-.59-.96-1.02-1.24-.43-.28-.9-.42-1.42-.42-.55,0-1.06.14-1.55.44-.49.29-.87.72-1.15,1.27-.28.55-.42,1.16-.42,1.82,0,.95.27,1.75.81,2.4.55.64,1.31,1.05,2.3,1.23l.26-1.48c-.72-.11-1.26-.36-1.62-.74-.36-.38-.54-.87-.54-1.44s.18-1.06.53-1.42c.35-.37.8-.55,1.34-.55.68,0,1.19.25,1.52.76.33.5.49,1.07.49,1.7,0,.06,0,.14-.02.24l1.3.17c-.11-.42-.17-.77-.17-1.05,0-.69.22-1.25.66-1.7.44-.44,1-.66,1.68-.66s1.3.24,1.79.72c.48.48.72,1.07.72,1.77,0,.59-.19,1.08-.55,1.49-.37.41-.97.7-1.81.87l.2,1.48c1-.1,1.82-.5,2.45-1.2M79.34,1261.66h1.68v-1.69h-1.68v1.69ZM79.32,1257.02c.64-.42,1.12-1,1.43-1.74.32-.73.47-1.65.47-2.74,0-.86-.16-1.64-.47-2.33-.31-.69-.76-1.22-1.32-1.59-.57-.37-1.17-.55-1.81-.55s-1.21.17-1.71.5c-.49.33-.9.85-1.22,1.56-.22.48-.48,1.37-.77,2.67-.29,1.3-.58,2.1-.86,2.4-.28.31-.64.47-1.07.47-.5,0-.92-.22-1.28-.66-.35-.44-.53-1.14-.53-2.11s.19-1.63.58-2.1c.39-.48.96-.76,1.72-.84l-.11-1.53c-.71.03-1.34.23-1.89.59-.56.37-.98.89-1.27,1.58-.29.68-.43,1.47-.43,2.36,0,.81.14,1.55.41,2.22.27.66.68,1.17,1.2,1.51.53.35,1.09.52,1.7.52.55,0,1.05-.14,1.5-.42.45-.28.82-.71,1.12-1.29.23-.44.49-1.22.75-2.33.27-1.11.46-1.82.59-2.15.19-.5.43-.87.71-1.08.28-.22.61-.33.99-.33s.72.12,1.03.34c.31.23.56.57.74,1.04.18.47.27,1.01.27,1.61,0,.69-.12,1.31-.36,1.85-.24.55-.55.95-.93,1.22-.38.26-.88.43-1.48.5l.13,1.5c.8-.02,1.52-.24,2.16-.66M81.02,1240.02v-1.55c-.33.18-.68.31-1.05.37-.36.07-1.23.1-2.6.1h-1.97c-.66,0-1.11.02-1.36.07-.4.09-.74.24-1.01.46-.26.22-.48.56-.66,1.03-.18.47-.27,1.07-.27,1.82s.1,1.41.31,1.98c.21.57.5,1.01.88,1.31.38.3.88.52,1.5.65l.2-1.45c-.62-.16-1.05-.41-1.29-.74-.24-.33-.36-.85-.36-1.54,0-.75.17-1.31.5-1.69.25-.28.67-.42,1.27-.42.06,0,.19,0,.39,0,.2.56.37,1.45.51,2.64.07.59.14,1.03.22,1.32.11.39.27.75.48,1.06.21.32.5.57.85.76.35.2.74.29,1.17.29.73,0,1.33-.26,1.8-.77.46-.52.7-1.25.7-2.22,0-.58-.09-1.12-.29-1.63-.19-.51-.52-1.03-.98-1.58.41-.04.77-.14,1.07-.3M77.19,1240.44c.65,0,1.14.08,1.47.24.43.21.77.54,1.02.98.25.45.37.95.37,1.53s-.13,1.01-.39,1.31c-.26.3-.59.45-.98.45-.26,0-.49-.07-.7-.21-.21-.14-.37-.33-.48-.58-.11-.25-.21-.68-.3-1.29-.15-1.08-.34-1.88-.56-2.42h.54ZM69,1236.61h12.02v-1.48h-12.02v1.48ZM72.31,1232.35h1.68v-1.69h-1.68v1.69ZM79.34,1232.35h1.68v-1.69h-1.68v1.69ZM69.74,1217.08c-.53.61-.79,1.38-.79,2.33,0,1.27.46,2.29,1.38,3.04,1.05.86,2.74,1.29,5.07,1.29,2.08,0,3.57-.39,4.47-1.17.9-.78,1.36-1.79,1.36-3.02,0-.72-.17-1.37-.52-1.94-.35-.57-.84-1.02-1.49-1.34-.65-.33-1.35-.49-2.11-.49-1.15,0-2.08.35-2.81,1.04-.73.69-1.09,1.53-1.09,2.52,0,.56.13,1.11.39,1.62.26.52.66.95,1.2,1.31-1.2,0-2.13-.15-2.78-.42-.65-.27-1.15-.63-1.48-1.1-.26-.36-.39-.77-.39-1.24,0-.59.21-1.08.63-1.48.26-.24.68-.43,1.26-.56l-.12-1.47c-.93.12-1.67.49-2.2,1.09M75.24,1221.34c-.48-.47-.72-1.04-.72-1.71s.24-1.23.72-1.68c.48-.45,1.13-.67,1.96-.67s1.55.23,2.05.67c.5.45.76.99.76,1.61,0,.43-.12.84-.37,1.23-.24.39-.6.69-1.06.91-.47.21-.95.33-1.46.33-.77,0-1.4-.24-1.88-.7M79.34,1213.4h1.68v-1.69h-1.68v1.69ZM81.02,1204.35c0-.77-.07-1.42-.2-1.95-.13-.53-.33-.97-.59-1.32-.26-.35-.64-.64-1.12-.89-.49-.24-1.01-.36-1.57-.36-.7,0-1.31.2-1.82.59s-.88.95-1.09,1.68c-.28-.56-.64-.99-1.1-1.27-.46-.28-.94-.42-1.45-.42-.55,0-1.08.16-1.59.47-.51.32-.88.75-1.12,1.31-.24.56-.36,1.3-.36,2.22v4.53h12.02v-4.6ZM70.41,1207.35v-2.41c0-.87.06-1.48.17-1.84.11-.36.32-.63.62-.82.3-.19.66-.29,1.05-.29.42,0,.77.1,1.05.31.28.21.48.51.6.92.09.31.14.81.14,1.52v2.61h-3.63ZM75.47,1207.35v-2.79c0-.77.07-1.36.2-1.77.13-.41.37-.73.7-.96s.72-.35,1.17-.35c.38,0,.72.08,1.01.24.29.16.52.36.67.61.16.25.26.56.33.92.04.21.06.57.06,1.09v3h-4.13ZM79.34,1197.34h1.68v-1.69h-1.68v1.69ZM80.29,1192.22c.63-.7.94-1.58.94-2.64,0-1.18-.37-2.15-1.1-2.92-.73-.77-1.62-1.15-2.67-1.15-.78,0-1.43.2-1.94.59-.51.4-.86.95-1.02,1.66-.25-.55-.59-.96-1.02-1.24-.43-.28-.9-.42-1.42-.42-.55,0-1.06.15-1.55.44-.49.29-.87.72-1.15,1.27-.28.56-.42,1.16-.42,1.82,0,.95.27,1.75.81,2.39.55.64,1.31,1.05,2.3,1.24l.26-1.48c-.72-.11-1.26-.36-1.62-.74-.36-.38-.54-.87-.54-1.44s.18-1.06.53-1.43c.35-.37.8-.55,1.34-.55.68,0,1.19.25,1.52.76.33.51.49,1.07.49,1.71,0,.06,0,.14-.02.24l1.3.16c-.11-.42-.17-.76-.17-1.04,0-.69.22-1.25.66-1.7.44-.45,1-.67,1.68-.67s1.3.24,1.79.72c.48.48.72,1.07.72,1.76,0,.59-.19,1.09-.55,1.5-.37.41-.97.7-1.81.87l.2,1.48c1-.1,1.82-.5,2.45-1.2M79.34,1183.15h1.68v-1.69h-1.68v1.69ZM70.57,1173.22c.86.75,1.9,1.46,3.15,2.13,1.24.67,2.53,1.18,3.88,1.53,1.34.36,2.48.54,3.43.56v-1.52c-1.2-.08-2.3-.27-3.31-.57-1.43-.41-2.81-1-4.17-1.75-1.35-.76-2.43-1.52-3.25-2.29h-1.15v7.81h1.42v-5.91ZM81.02,1168.15c.5.01.88.1,1.15.25.27.15.47.38.6.69l.63-.41c-.21-.48-.5-.83-.88-1.04-.38-.22-.88-.33-1.5-.33h-1.68v1.69h1.68v-.84ZM69.74,1153.69c-.53.61-.79,1.39-.79,2.33,0,1.27.46,2.29,1.38,3.04,1.05.86,2.74,1.29,5.07,1.29,2.08,0,3.57-.39,4.47-1.17.9-.78,1.36-1.78,1.36-3.02,0-.73-.17-1.37-.52-1.94-.35-.57-.84-1.02-1.49-1.34-.65-.33-1.35-.49-2.11-.49-1.15,0-2.08.35-2.81,1.04-.73.69-1.09,1.54-1.09,2.52,0,.56.13,1.11.39,1.62.26.52.66.95,1.2,1.31-1.2-.01-2.13-.15-2.78-.42-.65-.27-1.15-.64-1.48-1.1-.26-.36-.39-.77-.39-1.25,0-.59.21-1.08.63-1.48.26-.24.68-.43,1.26-.56l-.12-1.47c-.93.12-1.67.48-2.2,1.09M75.24,1157.95c-.48-.47-.72-1.04-.72-1.7s.24-1.24.72-1.68c.48-.45,1.13-.67,1.96-.67s1.55.23,2.05.68c.5.45.76.99.76,1.61,0,.43-.12.84-.37,1.23-.24.39-.6.69-1.06.91-.47.22-.95.33-1.46.33-.77,0-1.4-.24-1.88-.7M79.34,1150.01h1.68v-1.69h-1.68v1.69ZM81.02,1140.96c0-.77-.07-1.42-.2-1.95-.13-.53-.33-.97-.59-1.32-.26-.35-.64-.64-1.12-.89-.49-.24-1.01-.36-1.57-.36-.7,0-1.31.2-1.82.59s-.88.95-1.09,1.68c-.28-.56-.64-.99-1.1-1.27-.46-.28-.94-.42-1.45-.42-.55,0-1.08.16-1.59.47-.51.32-.88.75-1.12,1.31-.24.56-.36,1.3-.36,2.22v4.52h12.02v-4.6ZM70.41,1143.96v-2.41c0-.87.06-1.48.17-1.84.11-.35.32-.63.62-.82.3-.19.66-.29,1.05-.29.42,0,.77.1,1.05.31.28.21.48.51.6.92.09.31.14.82.14,1.52v2.61h-3.63ZM75.47,1143.96v-2.79c0-.77.07-1.36.2-1.77.13-.41.37-.73.7-.96.33-.23.72-.35,1.17-.35.38,0,.72.08,1.01.24.29.16.52.36.67.61.16.25.26.56.33.92.04.21.06.57.06,1.09v3h-4.13ZM79.34,1133.95h1.68v-1.69h-1.68v1.69ZM80.29,1128.83c.63-.7.94-1.58.94-2.64,0-1.18-.37-2.15-1.1-2.92-.73-.77-1.62-1.15-2.67-1.15-.78,0-1.43.2-1.94.59-.51.39-.86.95-1.02,1.66-.25-.55-.59-.97-1.02-1.25-.43-.28-.9-.42-1.42-.42-.55,0-1.06.14-1.55.44-.49.29-.87.72-1.15,1.27-.28.56-.42,1.16-.42,1.82,0,.96.27,1.75.81,2.39.55.64,1.31,1.05,2.3,1.24l.26-1.48c-.72-.11-1.26-.36-1.62-.74-.36-.39-.54-.87-.54-1.44s.18-1.06.53-1.43c.35-.37.8-.55,1.34-.55.68,0,1.19.26,1.52.76.33.51.49,1.07.49,1.71,0,.06,0,.14-.02.24l1.3.16c-.11-.42-.17-.76-.17-1.04,0-.69.22-1.25.66-1.69.44-.45,1-.67,1.68-.67s1.3.24,1.79.72c.48.48.72,1.07.72,1.76,0,.59-.19,1.09-.55,1.5-.37.41-.97.7-1.81.87l.2,1.48c1-.1,1.82-.5,2.45-1.2M79.34,1119.76h1.68v-1.69h-1.68v1.69ZM80.44,1114.54c.52-.6.78-1.37.78-2.31,0-.89-.24-1.67-.71-2.32-.48-.66-1.17-1.16-2.08-1.5-.91-.34-2.14-.5-3.67-.5s-2.6.17-3.38.51c-.78.34-1.38.83-1.8,1.48-.42.65-.63,1.37-.63,2.15,0,1.09.37,1.99,1.12,2.71.74.72,1.73,1.08,2.94,1.08s2.13-.35,2.85-1.04c.72-.69,1.08-1.54,1.08-2.53,0-.6-.15-1.15-.44-1.67-.29-.51-.67-.92-1.14-1.21.13,0,.23,0,.29,0,.61,0,1.21.07,1.8.22.59.15,1.06.33,1.41.55.35.22.62.5.83.84.21.35.31.74.31,1.2,0,.53-.15.97-.45,1.31s-.79.57-1.45.69l.13,1.42c.95-.12,1.68-.48,2.2-1.08M74.92,1110.21c.48.44.72,1,.72,1.69s-.24,1.25-.72,1.72c-.48.46-1.1.69-1.86.69-.86,0-1.55-.24-2.09-.73-.53-.49-.8-1.06-.8-1.72s.25-1.18.74-1.63c.5-.45,1.17-.68,2.02-.68s1.51.22,1.99.66M81.02,1104.76c.5.02.88.1,1.15.25.27.15.47.38.6.69l.63-.41c-.21-.48-.5-.83-.88-1.05-.38-.22-.88-.33-1.5-.33h-1.68v1.69h1.68v-.84Z"/>
    <path d="M69.74,1089.83c-.53.61-.8,1.39-.8,2.33,0,1.27.46,2.29,1.38,3.04,1.05.86,2.74,1.29,5.07,1.29,2.08,0,3.57-.39,4.48-1.17.9-.78,1.35-1.79,1.35-3.02,0-.72-.17-1.37-.51-1.94-.35-.57-.84-1.02-1.49-1.35-.65-.33-1.35-.49-2.1-.49-1.15,0-2.09.35-2.81,1.04-.72.69-1.09,1.54-1.09,2.52,0,.57.13,1.11.39,1.62.26.51.66.95,1.21,1.31-1.2-.01-2.13-.15-2.78-.42-.65-.27-1.15-.64-1.48-1.1-.26-.36-.39-.77-.39-1.25,0-.58.21-1.08.63-1.48.26-.24.68-.43,1.26-.56l-.11-1.47c-.94.12-1.67.49-2.2,1.09M75.24,1094.09c-.48-.47-.72-1.03-.72-1.7s.24-1.24.72-1.68c.48-.44,1.13-.67,1.97-.67s1.54.22,2.05.68c.5.45.76.99.76,1.61,0,.43-.12.84-.36,1.23-.25.39-.6.69-1.06.91-.46.21-.95.32-1.46.32-.78,0-1.41-.23-1.88-.7M79.34,1086.13h1.68v-1.69h-1.68v1.69Z"/>
    <path d="M81.02,1077.11c0-.77-.07-1.42-.2-1.95-.14-.53-.33-.97-.6-1.32-.26-.35-.63-.65-1.12-.88-.48-.24-1.01-.36-1.57-.36-.7,0-1.31.2-1.82.59-.51.39-.88.95-1.09,1.68-.28-.56-.65-.99-1.1-1.27-.45-.28-.94-.42-1.45-.42-.55,0-1.08.16-1.59.47-.51.32-.88.75-1.13,1.31-.24.56-.36,1.3-.36,2.22v4.53h12.02v-4.6ZM70.41,1080.12v-2.41c0-.87.06-1.48.17-1.83.12-.36.32-.63.62-.82.31-.19.65-.29,1.05-.29.42,0,.77.1,1.05.31.28.21.48.51.6.92.1.31.14.82.14,1.52v2.61h-3.63ZM75.47,1080.12v-2.79c0-.77.07-1.36.2-1.77.14-.41.37-.73.7-.96.33-.23.72-.35,1.17-.35.38,0,.72.08,1.01.24.29.16.51.36.67.61.16.24.27.55.33.92.04.21.06.57.06,1.09v3h-4.13ZM79.34,1070.27h1.68v-1.69h-1.68v1.69Z"/>
    <path d="M80.29,1065.18c.63-.7.94-1.58.94-2.64,0-1.17-.37-2.15-1.09-2.91-.73-.77-1.62-1.15-2.67-1.15-.78,0-1.43.2-1.94.59-.51.4-.86.95-1.02,1.66-.25-.55-.59-.96-1.02-1.24s-.9-.42-1.42-.42c-.55,0-1.06.14-1.55.44-.49.3-.87.72-1.15,1.27-.28.55-.42,1.16-.42,1.82,0,.96.27,1.75.81,2.39.55.64,1.31,1.06,2.3,1.24l.26-1.48c-.72-.11-1.26-.35-1.63-.74-.36-.39-.54-.86-.54-1.44s.18-1.05.53-1.43c.36-.37.81-.55,1.35-.55.68,0,1.19.25,1.52.76.33.5.49,1.07.49,1.7,0,.06,0,.14-.01.24l1.3.17c-.11-.42-.16-.77-.16-1.04,0-.69.22-1.25.66-1.7.44-.45,1-.67,1.68-.67s1.31.24,1.79.72c.48.48.72,1.07.72,1.76,0,.59-.19,1.09-.56,1.49-.37.41-.97.7-1.81.87l.2,1.48c1-.1,1.82-.5,2.44-1.2M79.34,1055.76h1.68v-1.69h-1.68v1.69Z"/>
    <path d="M68.95,1046.29v.96c.52.26,1.05.69,1.61,1.32s1.02,1.34,1.41,2.17h1.43c-.17-.46-.42-.98-.76-1.56-.34-.58-.68-1.04-1.02-1.4h9.41v-1.48h-12.08ZM68.95,1036.86v.96c.52.26,1.05.7,1.61,1.32s1.02,1.35,1.41,2.17h1.43c-.17-.46-.42-.98-.76-1.56-.34-.58-.68-1.04-1.02-1.4h9.41v-1.48h-12.08ZM81.02,1031.38c.5.02.88.1,1.15.25.26.15.47.38.6.69l.63-.41c-.21-.48-.5-.83-.88-1.04-.38-.22-.88-.33-1.5-.33h-1.68v1.69h1.68v-.84ZM69.74,1016.95c-.53.61-.79,1.38-.79,2.33,0,1.27.46,2.29,1.38,3.04,1.05.86,2.74,1.29,5.07,1.29,2.08,0,3.57-.39,4.48-1.17.91-.78,1.36-1.78,1.36-3.02,0-.72-.17-1.37-.51-1.94-.35-.57-.84-1.02-1.49-1.35-.65-.33-1.35-.49-2.1-.49-1.15,0-2.08.35-2.81,1.04-.72.69-1.08,1.53-1.08,2.52,0,.56.13,1.11.39,1.62.26.52.66.95,1.21,1.31-1.2,0-2.13-.15-2.78-.42-.65-.27-1.15-.64-1.48-1.1-.26-.36-.4-.77-.4-1.25,0-.59.21-1.08.63-1.48.26-.24.69-.43,1.27-.56l-.12-1.47c-.94.12-1.67.48-2.2,1.09M75.24,1021.21c-.48-.47-.72-1.03-.72-1.7s.24-1.24.72-1.68c.48-.45,1.13-.67,1.96-.67s1.55.22,2.05.67c.5.45.76.99.76,1.61,0,.43-.12.84-.37,1.23-.24.39-.6.69-1.06.91-.47.22-.95.33-1.46.33-.78,0-1.4-.23-1.88-.7M79.34,1013.29h1.68v-1.69h-1.68v1.69ZM81.02,1004.25c0-.77-.07-1.42-.2-1.94-.14-.53-.33-.97-.59-1.32-.26-.35-.64-.65-1.12-.88-.49-.24-1.01-.36-1.57-.36-.7,0-1.31.2-1.82.59-.51.4-.88.96-1.09,1.68-.28-.56-.64-.99-1.1-1.27s-.94-.42-1.45-.42c-.55,0-1.08.16-1.59.47-.5.31-.88.75-1.13,1.31-.24.56-.36,1.3-.36,2.22v4.53h12.02v-4.6ZM70.41,1007.26v-2.41c0-.87.06-1.48.17-1.84.11-.35.32-.63.62-.82.31-.19.66-.29,1.05-.29.42,0,.77.1,1.05.31s.48.51.6.92c.09.3.14.81.14,1.52v2.61h-3.64ZM75.47,1007.26v-2.79c0-.77.07-1.36.2-1.76.13-.41.37-.73.7-.96.33-.23.72-.35,1.17-.35.38,0,.72.08,1.01.24.29.16.51.36.67.61.16.25.27.56.33.92.04.21.06.57.06,1.09v3h-4.13ZM79.34,997.27h1.68v-1.69h-1.68v1.69ZM80.29,992.16c.63-.7.94-1.58.94-2.64,0-1.17-.36-2.15-1.1-2.91-.73-.77-1.62-1.15-2.67-1.15-.78,0-1.42.2-1.94.59-.51.4-.85.95-1.02,1.66-.25-.55-.59-.96-1.02-1.24s-.9-.42-1.42-.42c-.55,0-1.06.14-1.55.44-.49.29-.87.72-1.15,1.27-.28.55-.42,1.16-.42,1.82,0,.96.27,1.75.82,2.4.54.64,1.31,1.05,2.3,1.24l.26-1.48c-.72-.11-1.26-.36-1.62-.74-.36-.38-.55-.86-.55-1.44s.18-1.05.53-1.42c.36-.37.81-.55,1.35-.55.68,0,1.19.25,1.52.76.33.51.49,1.07.49,1.71,0,.06,0,.14-.02.24l1.3.16c-.11-.42-.16-.76-.16-1.04,0-.69.22-1.25.66-1.7.44-.44,1-.67,1.68-.67s1.31.24,1.79.72c.48.48.72,1.07.72,1.76,0,.59-.18,1.09-.55,1.5-.37.41-.97.7-1.81.87l.2,1.48c1-.1,1.82-.5,2.45-1.2M79.34,983.11h1.68v-1.69h-1.68v1.69ZM68.95,973.62v.96c.52.26,1.05.69,1.61,1.32.55.62,1.02,1.34,1.41,2.17h1.43c-.17-.46-.42-.98-.76-1.56-.34-.58-.68-1.05-1.02-1.41h9.41v-1.48h-12.08Z"/>
    <path d="M80.29,968.31c.63-.7.94-1.58.94-2.64,0-1.18-.37-2.15-1.1-2.91-.73-.77-1.62-1.16-2.67-1.16-.78,0-1.43.2-1.94.6-.51.4-.86.95-1.02,1.66-.25-.55-.59-.96-1.02-1.24-.43-.28-.9-.42-1.42-.42-.55,0-1.06.14-1.55.44-.49.29-.87.72-1.15,1.27-.28.56-.42,1.16-.42,1.82,0,.96.27,1.75.82,2.39.54.64,1.31,1.05,2.3,1.24l.26-1.48c-.72-.11-1.26-.36-1.63-.74-.36-.39-.54-.87-.54-1.44s.18-1.06.53-1.43c.35-.37.8-.55,1.34-.55.68,0,1.19.26,1.52.76.33.5.49,1.07.49,1.7,0,.06,0,.14-.02.24l1.3.16c-.11-.42-.17-.76-.17-1.04,0-.69.22-1.25.66-1.69.44-.45,1-.67,1.68-.67s1.3.24,1.79.72c.48.48.72,1.07.72,1.77,0,.58-.19,1.09-.55,1.49-.37.41-.97.7-1.81.87l.2,1.48c1-.1,1.82-.5,2.45-1.2"/>
    <rect class="st13" x="85.75" y="1106.91" width="18.9" height="165.73"/>
    <path d="M101.28,1265.71h-2.88v-1.63h-1.35v1.63h-7.79v1.21l7.79,5.51h1.35v-5.24h2.88v-1.48ZM97.04,1270.96l-5.42-3.78h5.42v3.78ZM99.59,1261.66h1.68v-1.69h-1.68v1.69ZM99.57,1257.02c.64-.42,1.12-1,1.43-1.74.32-.74.47-1.65.47-2.74,0-.86-.16-1.63-.47-2.33-.32-.69-.76-1.22-1.32-1.58-.57-.37-1.17-.55-1.81-.55s-1.22.17-1.71.5-.9.85-1.23,1.56c-.22.48-.48,1.37-.77,2.67-.29,1.3-.58,2.1-.85,2.41-.28.31-.64.47-1.07.47-.5,0-.92-.22-1.28-.66-.36-.44-.53-1.15-.53-2.11s.2-1.63.58-2.1c.39-.47.96-.75,1.72-.83l-.12-1.53c-.7.03-1.33.23-1.89.59-.56.37-.98.9-1.27,1.58-.29.68-.43,1.47-.43,2.36,0,.81.14,1.55.41,2.22.27.67.67,1.17,1.2,1.52.53.35,1.09.52,1.7.52.55,0,1.05-.14,1.5-.42.45-.28.82-.71,1.12-1.29.23-.44.49-1.22.75-2.33.27-1.11.46-1.83.59-2.15.19-.51.43-.87.71-1.09.28-.22.61-.33.99-.33s.71.11,1.03.34c.32.23.56.57.74,1.04.18.47.27,1,.27,1.61,0,.69-.12,1.3-.36,1.85-.24.55-.55.95-.93,1.21-.38.26-.88.42-1.48.5l.13,1.51c.81-.02,1.53-.24,2.16-.66M101.28,1240.02v-1.54c-.33.19-.68.31-1.05.37-.36.07-1.23.1-2.6.1h-1.97c-.66,0-1.11.02-1.36.07-.4.09-.74.24-1,.46-.27.22-.48.56-.66,1.03-.18.47-.26,1.07-.26,1.82s.1,1.42.31,1.98c.2.57.5,1.01.88,1.31.38.3.88.52,1.5.65l.2-1.45c-.62-.16-1.05-.4-1.29-.73-.24-.33-.36-.85-.36-1.55,0-.74.17-1.31.5-1.69.25-.28.67-.42,1.27-.42.06,0,.18,0,.39,0,.2.56.37,1.44.51,2.64.07.59.14,1.03.22,1.32.11.4.27.75.48,1.07.21.32.49.57.85.76s.74.29,1.17.29c.73,0,1.33-.26,1.79-.77.47-.52.7-1.25.7-2.22,0-.58-.1-1.13-.29-1.63-.19-.51-.52-1.04-.98-1.59.41-.04.77-.14,1.07-.3M97.44,1240.44c.65,0,1.14.08,1.48.24.43.21.77.53,1.02.98.25.44.38.95.38,1.52s-.13,1.02-.39,1.31c-.26.3-.59.45-.99.45-.26,0-.49-.07-.7-.21s-.37-.33-.48-.59c-.11-.25-.21-.68-.29-1.29-.15-1.08-.34-1.88-.56-2.42h.54ZM89.25,1236.61h12.03v-1.48h-12.03v1.48ZM92.56,1232.36h1.68v-1.69h-1.68v1.69ZM99.59,1232.36h1.68v-1.69h-1.68v1.69ZM90,1217.08c-.53.61-.8,1.39-.8,2.33,0,1.27.46,2.29,1.38,3.04,1.05.86,2.74,1.29,5.07,1.29,2.08,0,3.57-.39,4.48-1.17s1.35-1.79,1.35-3.02c0-.73-.17-1.37-.51-1.94-.35-.57-.84-1.02-1.49-1.34-.65-.33-1.35-.49-2.1-.49-1.15,0-2.08.35-2.81,1.04-.73.69-1.09,1.54-1.09,2.52,0,.56.13,1.1.39,1.62.26.52.66.95,1.21,1.31-1.2,0-2.13-.15-2.78-.42-.65-.27-1.15-.63-1.48-1.1-.26-.36-.4-.77-.4-1.25,0-.58.21-1.08.63-1.48.27-.24.68-.43,1.27-.56l-.12-1.47c-.94.12-1.67.49-2.2,1.09M95.5,1221.34c-.48-.47-.72-1.04-.72-1.7s.24-1.24.72-1.68c.48-.45,1.13-.67,1.97-.67s1.55.22,2.05.67.76.99.76,1.61c0,.43-.12.84-.36,1.23s-.6.69-1.06.91c-.47.22-.95.32-1.46.32-.78,0-1.41-.23-1.88-.7M99.59,1213.4h1.68v-1.69h-1.68v1.69ZM101.28,1204.35c0-.77-.07-1.41-.2-1.94-.13-.53-.33-.97-.6-1.32-.26-.35-.63-.65-1.12-.89-.49-.24-1.01-.36-1.57-.36-.7,0-1.31.2-1.82.59-.51.39-.88.95-1.09,1.68-.28-.56-.64-.99-1.1-1.27-.45-.28-.94-.42-1.45-.42-.55,0-1.08.16-1.59.47-.51.32-.88.75-1.12,1.31-.24.56-.36,1.29-.36,2.22v4.53h12.03v-4.6ZM90.67,1207.35v-2.41c0-.87.06-1.48.17-1.84.11-.35.32-.63.62-.82.31-.19.66-.29,1.05-.29.42,0,.77.1,1.05.31.28.21.48.51.6.91.1.31.14.82.14,1.53v2.61h-3.64ZM95.72,1207.35v-2.79c0-.77.07-1.35.2-1.76.13-.41.36-.73.7-.96.33-.23.72-.35,1.17-.35.38,0,.72.08,1.01.24.29.16.52.36.67.61.15.25.26.56.33.92.04.21.06.57.06,1.08v3h-4.13ZM99.59,1197.34h1.68v-1.69h-1.68v1.69ZM101.28,1187.19h-2.88v-1.63h-1.35v1.63h-7.79v1.21l7.79,5.51h1.35v-5.23h2.88v-1.48ZM97.04,1192.45l-5.42-3.78h5.42v3.78ZM99.59,1183.15h1.68v-1.69h-1.68v1.69ZM90.82,1173.22c.85.75,1.9,1.46,3.15,2.13,1.24.67,2.54,1.18,3.88,1.53,1.34.36,2.48.54,3.43.56v-1.52c-1.2-.08-2.3-.27-3.31-.57-1.43-.41-2.82-.99-4.17-1.75-1.35-.76-2.43-1.52-3.25-2.28h-1.15v7.81h1.42v-5.91ZM101.28,1168.15c.49.02.88.1,1.14.25.27.15.47.38.6.69l.63-.41c-.21-.48-.5-.83-.88-1.05-.38-.22-.88-.33-1.5-.33h-1.68v1.69h1.68v-.84ZM90,1153.69c-.53.61-.8,1.39-.8,2.33,0,1.28.46,2.29,1.38,3.04,1.05.86,2.74,1.29,5.07,1.29,2.08,0,3.57-.39,4.48-1.17.9-.78,1.35-1.79,1.35-3.02,0-.73-.17-1.37-.51-1.94-.35-.57-.84-1.02-1.49-1.35-.65-.32-1.35-.49-2.1-.49-1.15,0-2.08.35-2.81,1.04-.73.69-1.09,1.53-1.09,2.52,0,.57.13,1.11.39,1.62.26.52.66.95,1.21,1.31-1.2-.01-2.13-.15-2.78-.42-.65-.27-1.15-.64-1.48-1.1-.26-.36-.4-.77-.4-1.24,0-.59.21-1.08.63-1.48.27-.24.68-.43,1.27-.56l-.12-1.47c-.94.12-1.67.49-2.2,1.09M95.5,1157.95c-.48-.47-.72-1.04-.72-1.7s.24-1.23.72-1.68c.48-.44,1.13-.67,1.97-.67s1.55.22,2.05.68c.5.45.76.99.76,1.61,0,.43-.12.84-.36,1.23-.24.39-.6.69-1.06.91-.47.21-.95.32-1.46.32-.78,0-1.41-.24-1.88-.7M99.59,1150.01h1.68v-1.69h-1.68v1.69ZM101.28,1140.96c0-.77-.07-1.41-.2-1.94-.13-.53-.33-.97-.6-1.32-.26-.35-.63-.65-1.12-.88-.49-.24-1.01-.36-1.57-.36-.7,0-1.31.2-1.82.59-.51.4-.88.96-1.09,1.69-.28-.57-.64-.99-1.1-1.27-.45-.28-.94-.42-1.45-.42-.55,0-1.08.16-1.59.47-.51.31-.88.75-1.12,1.31-.24.56-.36,1.3-.36,2.22v4.53h12.03v-4.6ZM90.67,1143.96v-2.41c0-.87.06-1.48.17-1.84.11-.36.32-.63.62-.83.31-.19.66-.29,1.05-.29.42,0,.77.1,1.05.31s.48.51.6.92c.1.3.14.81.14,1.52v2.61h-3.64ZM95.72,1143.96v-2.79c0-.77.07-1.36.2-1.76.13-.41.36-.73.7-.96.33-.23.72-.35,1.17-.35.38,0,.72.08,1.01.24.29.16.52.36.67.61.15.25.26.56.33.92.04.21.06.57.06,1.08v3h-4.13ZM99.59,1133.95h1.68v-1.69h-1.68v1.69ZM101.28,1123.8h-2.88v-1.63h-1.35v1.63h-7.79v1.21l7.79,5.5h1.35v-5.23h2.88v-1.48ZM97.04,1129.06l-5.42-3.78h5.42v3.78ZM99.59,1119.76h1.68v-1.69h-1.68v1.69ZM100.7,1114.54c.52-.6.78-1.37.78-2.31,0-.89-.24-1.66-.71-2.32s-1.17-1.16-2.08-1.5c-.91-.33-2.14-.5-3.67-.5s-2.6.17-3.39.51c-.78.34-1.38.83-1.8,1.48-.42.65-.63,1.37-.63,2.15,0,1.09.37,1.99,1.11,2.71.75.72,1.73,1.08,2.95,1.08s2.13-.35,2.85-1.04c.72-.69,1.08-1.54,1.08-2.54,0-.6-.14-1.15-.44-1.67-.29-.51-.68-.92-1.14-1.21.13,0,.23,0,.29,0,.61,0,1.21.07,1.8.22.59.15,1.06.33,1.41.55.35.22.62.5.83.84.21.34.31.74.31,1.2,0,.53-.15.97-.45,1.31-.3.34-.78.57-1.45.69l.13,1.42c.95-.12,1.68-.48,2.2-1.08M95.18,1110.21c.48.44.72,1,.72,1.69s-.24,1.25-.72,1.72c-.48.46-1.1.69-1.86.69-.86,0-1.55-.24-2.09-.73-.53-.49-.8-1.06-.8-1.72s.25-1.18.75-1.63c.5-.46,1.17-.68,2.02-.68s1.51.22,1.99.66"/>
    <rect class="st13" x="107.01" y="1170.37" width="18.9" height="102.27"/>
    <path d="M121.82,1270.75c.61-.69.92-1.59.92-2.69,0-1.34-.49-2.39-1.46-3.17-.79-.64-1.73-.95-2.82-.95s-2.08.36-2.81,1.08c-.73.73-1.09,1.61-1.09,2.67,0,.8.25,1.56.76,2.28l-3.23-.65v-4.82h-1.41v6l6.18,1.17.18-1.39c-.35-.22-.62-.52-.84-.9-.21-.39-.32-.82-.32-1.29,0-.77.24-1.39.73-1.87.49-.48,1.15-.71,1.99-.71.89,0,1.6.25,2.13.74.53.49.8,1.1.8,1.81,0,.59-.19,1.1-.57,1.52-.38.42-.95.69-1.7.8l.13,1.55c1.01-.1,1.83-.49,2.44-1.19M120.86,1261.65h1.68v-1.69h-1.68v1.69ZM120.84,1256.99c.64-.42,1.11-1,1.43-1.74.32-.74.48-1.65.48-2.74,0-.86-.16-1.63-.47-2.33-.31-.69-.76-1.22-1.32-1.59-.57-.37-1.17-.55-1.81-.55s-1.22.17-1.71.51c-.49.33-.9.85-1.23,1.56-.22.48-.47,1.37-.76,2.67-.29,1.3-.58,2.1-.86,2.41-.28.31-.63.47-1.07.47-.5,0-.92-.22-1.28-.66-.35-.44-.53-1.14-.53-2.11s.2-1.63.58-2.1c.39-.48.96-.75,1.72-.83l-.12-1.53c-.7.03-1.34.22-1.89.59-.56.37-.98.89-1.27,1.57-.29.68-.43,1.47-.43,2.37,0,.81.13,1.55.41,2.21.27.66.67,1.17,1.2,1.52.53.35,1.1.52,1.71.52.55,0,1.05-.14,1.49-.42.45-.28.82-.71,1.12-1.29.24-.44.49-1.22.75-2.33.27-1.11.46-1.82.59-2.15.19-.5.43-.87.71-1.08.28-.22.61-.33.99-.33s.71.12,1.03.34c.31.23.56.57.74,1.04.18.47.27,1,.27,1.61,0,.69-.12,1.3-.35,1.85-.24.55-.55.95-.94,1.21-.39.26-.88.43-1.48.5l.13,1.51c.8-.02,1.52-.24,2.16-.66M122.54,1239.97v-1.55c-.33.18-.68.31-1.04.37-.36.06-1.23.1-2.61.1h-1.97c-.66,0-1.11.02-1.36.07-.4.09-.74.24-1,.46-.27.22-.49.56-.66,1.03-.18.47-.26,1.07-.26,1.82s.1,1.41.31,1.98c.21.57.5,1.01.88,1.31s.88.52,1.5.65l.2-1.45c-.62-.16-1.05-.41-1.29-.74-.25-.33-.36-.85-.36-1.54,0-.75.16-1.31.5-1.69.25-.28.67-.42,1.27-.42.05,0,.18,0,.38.01.2.56.36,1.44.51,2.64.07.59.14,1.03.22,1.32.11.39.27.75.48,1.06.21.32.5.57.85.77.35.19.74.29,1.17.29.72,0,1.32-.26,1.79-.77s.7-1.26.7-2.22c0-.58-.09-1.13-.29-1.63-.19-.51-.52-1.04-.98-1.58.41-.04.77-.14,1.07-.3M118.71,1240.39c.65,0,1.14.08,1.48.24.43.21.77.53,1.02.98.25.44.38.95.38,1.52s-.13,1.01-.4,1.31c-.26.3-.59.45-.98.45-.26,0-.49-.07-.7-.21-.21-.14-.37-.33-.48-.58s-.21-.68-.29-1.29c-.16-1.08-.34-1.88-.56-2.42h.54ZM110.51,1236.54h12.02v-1.48h-12.02v1.48ZM113.82,1232.27h1.68v-1.69h-1.68v1.69ZM120.86,1232.27h1.68v-1.69h-1.68v1.69ZM111.26,1216.96c-.53.61-.8,1.39-.8,2.33,0,1.27.46,2.29,1.38,3.04,1.05.86,2.75,1.29,5.07,1.29,2.08,0,3.57-.39,4.47-1.17.9-.78,1.36-1.78,1.36-3.02,0-.72-.17-1.37-.51-1.94-.35-.57-.84-1.02-1.49-1.35-.65-.33-1.35-.49-2.1-.49-1.15,0-2.09.35-2.81,1.04-.72.69-1.09,1.54-1.09,2.53,0,.57.13,1.11.39,1.62.27.52.66.95,1.2,1.31-1.2-.01-2.13-.15-2.78-.42-.65-.27-1.14-.64-1.48-1.1-.26-.36-.39-.77-.39-1.25,0-.59.21-1.08.63-1.48.26-.24.68-.43,1.26-.56l-.12-1.47c-.93.12-1.67.48-2.2,1.09M116.76,1221.22c-.48-.47-.72-1.03-.72-1.7s.24-1.24.72-1.68c.48-.44,1.13-.67,1.97-.67s1.54.22,2.05.68c.5.45.76.99.76,1.61,0,.43-.12.84-.36,1.23-.24.39-.6.69-1.06.91-.46.21-.95.32-1.46.32-.78,0-1.41-.24-1.88-.7M120.86,1213.27h1.68v-1.69h-1.68v1.69ZM122.54,1204.2c0-.77-.07-1.42-.2-1.95-.13-.53-.33-.97-.59-1.32-.26-.35-.64-.64-1.12-.88-.48-.24-1.01-.36-1.57-.36-.7,0-1.31.2-1.82.59-.51.39-.88.95-1.09,1.68-.28-.56-.64-.99-1.1-1.27-.45-.28-.94-.42-1.45-.42-.55,0-1.08.16-1.59.48-.51.31-.88.75-1.12,1.31-.24.56-.36,1.3-.36,2.22v4.53h12.02v-4.6ZM111.93,1207.2v-2.41c0-.87.06-1.48.17-1.83.11-.36.32-.63.62-.83.3-.19.65-.29,1.05-.29.42,0,.77.1,1.05.31.28.2.48.51.6.92.09.31.14.81.14,1.52v2.61h-3.63ZM116.98,1207.2v-2.79c0-.77.07-1.36.2-1.77.14-.41.37-.73.7-.96.33-.23.72-.35,1.17-.35.38,0,.72.08,1.01.24s.51.36.67.61c.16.24.27.55.33.92.04.21.06.57.06,1.09v3h-4.13ZM120.86,1197.17h1.68v-1.69h-1.68v1.69ZM121.82,1192.05c.61-.69.92-1.59.92-2.68,0-1.34-.49-2.4-1.46-3.17-.79-.64-1.73-.96-2.82-.96s-2.08.36-2.81,1.09c-.73.72-1.09,1.61-1.09,2.67,0,.79.25,1.56.76,2.28l-3.23-.65v-4.81h-1.41v6l6.18,1.17.18-1.39c-.35-.22-.62-.52-.84-.9-.21-.38-.32-.81-.32-1.29,0-.77.24-1.39.73-1.86.49-.48,1.15-.71,1.99-.71.89,0,1.6.25,2.13.74s.8,1.1.8,1.81c0,.59-.19,1.1-.57,1.52-.38.42-.95.69-1.7.8l.13,1.56c1.01-.1,1.83-.5,2.44-1.19M120.86,1182.95h1.68v-1.69h-1.68v1.69ZM112.09,1173c.85.75,1.9,1.46,3.14,2.13,1.24.67,2.54,1.18,3.88,1.53,1.34.36,2.48.55,3.43.56v-1.52c-1.19-.08-2.3-.27-3.31-.57-1.43-.41-2.81-.99-4.17-1.75-1.35-.76-2.43-1.52-3.25-2.29h-1.15v7.81h1.42v-5.91Z"/>
    <line class="st3" x1="546.81" y1="1004.3" x2="427.33" y2="952.32"/>
  </g>
</svg>