<?xml version="1.0" encoding="UTF-8"?>
<svg id="Layer_1" xmlns="http://www.w3.org/2000/svg" xmlns:xlink="http://www.w3.org/1999/xlink" version="1.1" viewBox="0 0 1200 1697.14">
  <!-- Generator: Adobe Illustrator 29.6.0, SVG Export Plug-In . SVG Version: 2.1.1 Build 207)  -->
  <defs>
    <style>
      .st0, .st1, .st2, .st3 {
        fill: none;
      }

      .st1 {
        stroke: #0d0e1c;
      }

      .st1, .st2, .st3 {
        stroke-linecap: round;
        stroke-linejoin: round;
      }

      .st1, .st3 {
        stroke-width: .08px;
      }

      .st2 {
        stroke-width: .14px;
      }

      .st2, .st3 {
        stroke: #000;
      }

      .st4 {
        clip-path: url(#clippath-1);
      }

      .st5 {
        clip-path: url(#clippath-3);
      }

      .st6 {
        clip-path: url(#clippath-4);
      }

      .st7 {
        clip-path: url(#clippath-2);
      }

      .st8 {
        clip-path: url(#clippath-7);
      }

      .st9 {
        clip-path: url(#clippath-6);
      }

      .st10 {
        clip-path: url(#clippath-9);
      }

      .st11 {
        clip-path: url(#clippath-8);
      }

      .st12 {
        clip-path: url(#clippath-5);
      }

      .st13 {
        fill: #fff;
      }

      .st14 {
        fill: #ece9e5;
      }

      .st15 {
        fill: #302c35;
      }

      .st16 {
        clip-path: url(#clippath);
      }
    </style>
    <clipPath id="clippath">
      <rect class="st0" x="225.65" y="441.48" width="770.69" height="814.19"/>
    </clipPath>
    <clipPath id="clippath-1">
      <rect class="st0" x="425.01" y="772.09" width="72.58" height="159.65"/>
    </clipPath>
    <clipPath id="clippath-2">
      <rect class="st0" x="225.65" y="441.48" width="770.69" height="814.19"/>
    </clipPath>
    <clipPath id="clippath-3">
      <rect class="st0" x="502.19" y="999.38" width="28.61" height="39.22"/>
    </clipPath>
    <clipPath id="clippath-4">
      <rect class="st0" x="225.65" y="441.48" width="770.69" height="814.19"/>
    </clipPath>
    <clipPath id="clippath-5">
      <rect class="st0" x="225.65" y="441.48" width="770.69" height="814.19"/>
    </clipPath>
    <clipPath id="clippath-6">
      <rect class="st0" x="431.35" y="1082.96" width="27.51" height="37.12"/>
    </clipPath>
    <clipPath id="clippath-7">
      <rect class="st0" x="225.65" y="441.48" width="770.69" height="814.19"/>
    </clipPath>
    <clipPath id="clippath-8">
      <rect class="st0" x="225.65" y="441.48" width="770.69" height="814.19"/>
    </clipPath>
    <clipPath id="clippath-9">
      <rect class="st0" x="225.65" y="441.48" width="770.69" height="814.19"/>
    </clipPath>
  </defs>
  <rect class="st14" x="405.95" y="668.3" width="338.88" height="481.99"/>
  <rect class="st14" x="443.42" y="556.57" width="249.43" height="123.2"/>
  <rect class="st13" x="679.69" y="914.69" width="48.77" height="95.52"/>
  <rect class="st13" x="679.42" y="1013.25" width="54.86" height="122.05"/>
  <rect class="st13" x="466.95" y="672.69" width="207.5" height="11.81"/>
  <rect class="st15" x="666.86" y="699.01" width="77.97" height="15.87"/>
  <rect class="st15" x="405.95" y="1134.09" width="193.06" height="16.2"/>
  <rect class="st15" x="670.58" y="1134.09" width="74.25" height="16.2"/>
  <rect class="st15" x="443.42" y="556.58" width="249.43" height="4.02"/>
  <rect class="st15" x="443.43" y="559.89" width="4.02" height="112.79"/>
  <rect class="st15" x="688.82" y="559.89" width="4.02" height="112.79"/>
  <rect class="st15" x="405.95" y="714.88" width="17.55" height="419.21"/>
  <rect class="st15" x="727.28" y="714.88" width="17.55" height="419.21"/>
  <rect class="st15" x="671.59" y="1010.21" width="55.69" height="6.07"/>
  <rect class="st15" x="424.85" y="1127.34" width="126.24" height="8.39"/>
  <rect class="st15" x="545.69" y="1118.41" width="5.4" height="8.92"/>
  <rect class="st15" x="424.85" y="993" width="120.83" height="5.4"/>
  <rect class="st15" x="419.76" y="993" width="10.49" height="148.31"/>
  <rect class="st15" x="430.25" y="998.4" width="115.44" height="1.01"/>
  <rect class="st15" x="544.68" y="1118.41" width="1.01" height="7.91"/>
  <rect class="st15" x="545.69" y="993" width="5.4" height="55.02"/>
  <rect class="st15" x="544.68" y="993" width="1.01" height="55.01"/>
  <rect class="st15" x="430.25" y="1126.32" width="115.44" height="1.01"/>
  <rect class="st15" x="430.25" y="998.4" width="1.35" height="127.92"/>
  <rect class="st15" x="423.5" y="933.26" width="119.48" height="8.1"/>
  <rect class="st15" x="542.99" y="933.26" width="8.1" height="59.74"/>
  <rect class="st15" x="666.86" y="668.3" width="77.97" height="30.72"/>
  <rect class="st15" x="405.95" y="699.01" width="63.75" height="15.87"/>
  <rect class="st15" x="405.95" y="668.3" width="63.75" height="30.72"/>
  <path class="st3" d="M542.99,993h-119.48M423.5,993v-51.64M423.5,941.36h119.48M666.86,699.01v15.86M666.86,714.88h60.42M423.5,714.88h46.24M469.75,714.88v-15.86M405.95,1150.29h5.4M423.5,1150.29h139.4M571,1150.29h27.34M670.57,1150.29h73.25M727.28,1134.09h-55.69M601.38,1134.09h63.46M668.21,1134.09h0M670.57,1134.09h1.02M663.49,597.42l-13.16,1.01M650.32,598.43l-12.49,3.38M637.84,601.8l-11.81,5.74M626.02,607.54l-10.8,7.43M615.22,614.97l-9.45,9.11M605.77,624.08l-7.43,10.8M598.34,634.88l-5.74,12.15M592.61,647.03l-3.38,12.49M589.23,659.52l-1.01,13.16M663.49,672.69v-75.27M658.76,673.36v3.71M593.28,673.36h65.48M593.28,677.07v-3.71M658.76,677.07h-65.48M589.57,684.5h72.57M658.76,672.69h-65.48M658.76,679.1h-65.48M589.57,679.1v5.4M662.14,679.1v5.4M662.14,679.1h-72.57M665.85,672.69v11.81M658.76,672.69h7.09M658.76,679.1v-6.41M662.14,679.1h-3.37M662.14,684.5v-5.4M665.85,684.5h-3.72M589.57,679.1v5.4M593.28,679.1h-3.71M593.28,672.69v6.41M585.86,672.69h7.43M585.86,684.5v-11.81M589.57,684.5h-3.71M474.81,677.07h105.98M580.79,677.07v-3.71M580.79,673.36h-105.98M474.81,673.36v3.71M580.79,684.5h-105.98M474.81,672.69h105.98M580.79,684.5h4.05M584.84,684.5v-11.81M584.84,672.69h-4.05M580.79,672.69v11.81M470.76,684.5h4.05M474.81,684.5v-11.81M474.81,672.69h-4.05M470.76,672.69v11.81M688.8,560.63h-241.33M447.47,560.63v107.67M688.8,668.3v-107.67M688.8,668.3h4.05M692.85,668.3v-111.72M692.85,556.58h-249.44M443.42,556.58v111.72M443.42,668.3h4.05M447.47,668.3v-107.67M447.47,560.63h241.33M688.8,560.63v107.67M405.95,714.88v419.21M423.5,993l119.48-51.64M542.99,993h-119.48M423.5,993v-51.64M423.5,941.36h119.48M744.83,1134.09v-419.21M668.21,1067.59l-13.16,1.35M655.05,1068.94l-12.49,3.71M642.56,1072.66l-11.48,6.08M631.08,1078.73l-10.12,8.44M620.96,1087.17l-8.1,10.13M612.86,1097.3l-6.41,11.47M606.44,1108.77l-3.71,12.49M602.73,1121.26l-1.35,12.83M599.02,1134.09v16.2M670.57,1150.29v-16.2M668.21,1134.09v-66.49M664.84,1134.09h3.38M671.59,1134.09h-1.02M668.21,1134.09h0M664.84,1134.09h-63.46"/>
  <path class="st3" d="M727.28,845.84v-63.79M727.28,962.28h-1.01M723.9,962.28h-2.36M718.84,962.28h-2.37M714.12,962.28h-2.36M709.39,962.28h-2.36M704.67,962.28h-2.36M699.94,962.28h-2.36M695.22,962.28h-2.7M690.15,962.28h-2.36M685.43,962.28h-2.36M680.7,962.28h-1.01M679.69,962.28v-1.01M679.69,958.91v-2.36M679.69,954.18v-2.7M679.69,949.12v-2.36M679.69,944.4v-2.36M679.69,939.67v-2.36M679.69,934.94v-2.36M679.69,930.22v-2.36M679.69,925.16v-2.36M679.69,920.43v-2.36M679.69,915.71v-1.01M679.69,914.69h1.01M683.06,914.69h2.36M687.79,914.69h2.36M692.52,914.69h2.7M697.58,914.69h2.36M702.3,914.69h2.36M707.03,914.69h2.36M711.75,914.69h2.36M716.48,914.69h2.37M721.54,914.69h2.36M726.27,914.69h1.01M727.28,914.69v1.01M727.28,918.07v2.36M727.28,922.79v2.36M727.28,927.86v2.36M727.28,932.58v2.36M727.28,937.31v2.36M727.28,942.03v2.36M727.28,946.76v2.36M727.28,951.48v2.7M727.28,956.55v2.36M727.28,961.27v1.01M727.28,1010.21h-1.01M723.9,1010.21h-2.36M718.84,1010.21h-2.37M714.12,1010.21h-2.36M709.39,1010.21h-2.36M704.67,1010.21h-2.36M699.94,1010.21h-2.36M695.22,1010.21h-2.7M690.15,1010.21h-2.36M685.43,1010.21h-2.36M680.7,1010.21h-1.01M679.69,1010.21v-1.01M679.69,1006.5v-2.36M679.69,1001.78v-2.36M679.69,997.05v-2.36M679.69,992.32v-2.36M679.69,987.6v-2.36M679.69,982.87v-2.7M679.69,977.81v-2.36M679.69,973.09v-2.36M679.69,968.36v-2.37M679.69,963.63v-1.35M679.69,962.28h1.01M683.06,962.28h2.36M687.79,962.28h2.36M692.52,962.28h2.7M697.58,962.28h2.36M702.3,962.28h2.36M707.03,962.28h2.36M711.75,962.28h2.36M716.48,962.28h2.37M721.54,962.28h2.36M726.27,962.28h1.01M727.28,962.28v1.35M727.28,966v2.37M727.28,970.72v2.36M727.28,975.45v2.36M727.28,980.17v2.7M727.28,985.24v2.36M727.28,989.96v2.36M727.28,994.69v2.36M727.28,999.41v2.36M727.28,1004.14v2.36M727.28,1009.2v1.01M405.95,1016.29v-6.07M744.83,1016.29h0M744.83,1010.21h0M744.83,1010.21v6.07M727.28,1010.21h-55.69M671.59,1010.21v6.07M671.59,1016.29h55.69M469.75,682.47v32.4M423.51,714.88v218.38M423.51,933.26h127.58M551.09,1134.09h47.93M601.38,1134.09h63.45M668.21,1134.09h0M670.57,1134.09h1.02M727.28,1134.09v-117.8M727.28,1010.21v-295.34M666.86,714.88v-32.4M666.86,682.47h-1.01M585.86,682.47h-1.01M470.76,682.47h-1.01M744.83,1150.29h-74.26M671.59,1134.09h-1.02"/>
  <path class="st3" d="M668.21,1134.09h0M664.84,1134.09h-63.45M599.02,1150.29h-8.1M727.28,1065.23v47.93M727.28,1017.3v95.86M551.09,1134.09v-6.75M551.09,1127.33v-8.77M551.09,1048.02v-55.02M542.99,993h-118.13"/>
  <path class="st3" d="M479.87,1116.2l1.35-12.83M481.22,1103.37l3.71-12.49M484.93,1090.88l6.08-11.47M491.01,1079.41l8.44-9.79M499.45,1069.62l9.79-8.44M509.24,1061.18l11.48-6.07M520.71,1055.1l12.15-3.71M532.86,1051.39l12.83-1.01M544.68,1048.02h6.41M551.09,1118.56h-6.41M545.69,1112.82v3.38M545.69,1116.2h-65.82M545.69,1116.2v-65.82"/>
  <path class="st3" d="M431.61,999.41h113.07M544.68,999.41v48.6M544.68,1118.56v7.76M544.68,1126.32h-113.07M431.61,1126.32v-126.91"/>
  <path class="st3" d="M423.5,941.36h7.77M431.27,941.36v-8.1M431.27,933.26h-7.77M479.2,941.36h63.79M542.99,933.26h-63.79M479.2,933.26v8.1M479.2,941.36h-47.93M431.27,933.26h47.93M431.27,941.36v-8.1M479.2,933.26v8.1M551.09,993v-59.74M551.09,933.26h-8.1M469.74,699.01v-30.72M469.74,668.3h-63.79M744.83,668.3h-77.97M666.86,668.3v30.72M666.86,677.07h-1.01M585.86,677.07h-1.02M470.76,677.07h-1.02M469.74,682.47v-5.4M666.86,677.07v5.4M666.86,677.07v-8.78M469.74,668.3v8.78M469.74,677.07h1.02M584.84,677.07h1.02M665.85,677.07h1.01M405.95,1150.29v-481.99M590.92,1150.29h-184.96M744.83,668.3v481.99"/>
  <g class="st16">
    <path class="st2" d="M1102.61,579.19h-6.07M1078.99,499.87l-16.2,7.09M1067.17,524.51l-4.38-17.55M1039.49,495.82l27.68,28.69M1039.49,495.82l39.49,4.05M1039.49,495.82l23.29,11.14M1102.61,818.5h-6.07M1102.61,658.84h-6.07M1102.61,738.5h-6.07M1102.61,818.5v-239.31M-23.72,1278.21h1183.71"/>
    <path d="M1081.22,1227.3c.43-.28.75-.67.96-1.17.21-.5.32-1.12.32-1.85,0-.58-.11-1.1-.32-1.57-.21-.47-.5-.82-.89-1.07-.38-.25-.78-.37-1.21-.37s-.81.11-1.14.34c-.33.23-.61.58-.82,1.05-.15.33-.32.93-.51,1.8-.19.87-.39,1.42-.57,1.62-.19.21-.43.32-.72.32-.33,0-.62-.15-.85-.45-.24-.3-.36-.77-.36-1.42s.13-1.1.39-1.42c.26-.32.64-.51,1.16-.56l-.07-1.03c-.47.02-.9.15-1.27.4-.37.25-.65.6-.85,1.06-.19.46-.29.99-.29,1.6,0,.55.09,1.05.27,1.49.18.45.45.79.81,1.02.35.23.73.35,1.14.35.37,0,.71-.1,1-.28.3-.19.55-.48.75-.87.16-.3.33-.82.5-1.57.18-.75.31-1.23.4-1.45.13-.34.28-.59.47-.73.19-.15.41-.22.66-.22s.48.08.69.23c.21.15.37.39.49.7.12.31.18.68.18,1.09,0,.46-.08.88-.24,1.25-.16.37-.37.65-.62.82s-.59.29-.99.34l.09,1.01c.54-.02,1.02-.16,1.45-.45M1082.36,1218.58h-2.79l-1.29-1.33,4.08-2.9v-1.42l-4.79,3.57-3.26-3.41v1.46l3.99,4.04h-3.99v1.08h8.06v-1.08Z"/>
    <path d="M1076.7,1209.06h.92v-5.37h-.92v5.37ZM1079.14,1209.06h.92v-5.37h-.92v5.37Z"/>
    <path d="M1081.22,1198.95c.43-.28.75-.67.96-1.17.21-.5.32-1.11.32-1.85,0-.58-.1-1.1-.31-1.57-.21-.47-.51-.82-.89-1.07-.38-.25-.78-.37-1.21-.37s-.81.11-1.14.34c-.33.23-.61.58-.82,1.05-.15.33-.32.93-.51,1.8-.2.88-.39,1.42-.57,1.63-.19.21-.43.31-.72.31-.34,0-.62-.15-.86-.45-.23-.3-.35-.77-.35-1.42s.13-1.1.39-1.42c.26-.32.64-.51,1.16-.56l-.08-1.03c-.47.02-.9.15-1.27.4-.37.25-.66.6-.85,1.07-.19.46-.29.99-.29,1.59,0,.55.09,1.05.27,1.49.18.45.45.79.8,1.02.36.23.73.35,1.14.35.37,0,.7-.1,1-.29.3-.19.55-.48.75-.87.15-.3.32-.83.5-1.57.18-.74.31-1.23.39-1.45.13-.34.29-.59.48-.73.19-.15.41-.22.66-.22s.48.07.69.23c.21.15.38.39.5.7.12.31.18.68.18,1.09,0,.46-.08.88-.24,1.25-.16.37-.37.64-.63.82-.26.17-.59.29-.99.34l.09,1.01c.54-.01,1.02-.16,1.45-.45"/>
    <path d="M1082.36,1190.73h-2.31l-.67-.71,2.99-1.95v-1.23l-3.67,2.48-2.17-2.26v1.29l2.38,2.37h-4.6v1h8.06v-1ZM1082.36,1181.6v-1.04c-.22.12-.46.21-.7.25-.24.04-.83.07-1.74.07h-1.32c-.44,0-.75.02-.91.05-.27.06-.49.16-.67.31-.18.15-.33.38-.44.69-.12.31-.18.72-.18,1.23s.07.95.21,1.33c.14.38.33.68.59.88.25.2.59.35,1,.44l.13-.98c-.42-.11-.7-.27-.87-.5-.16-.22-.24-.57-.24-1.04,0-.5.11-.88.33-1.14.17-.19.45-.28.85-.28.04,0,.12,0,.26,0,.13.38.24.97.34,1.78.05.4.09.69.15.89.07.27.18.5.33.72.14.21.33.38.57.52.24.13.5.2.78.2.49,0,.89-.17,1.2-.52s.47-.84.47-1.49c0-.39-.07-.76-.19-1.1-.13-.34-.35-.7-.66-1.07.27-.03.51-.1.72-.2M1079.79,1181.89c.44,0,.77.05.99.16.29.14.52.36.68.66.17.3.25.64.25,1.02s-.09.69-.26.89c-.18.2-.39.3-.66.3-.18,0-.33-.05-.47-.14-.14-.09-.25-.22-.33-.39-.07-.17-.14-.46-.2-.87-.1-.73-.22-1.27-.37-1.63h.36Z"/>
    <path d="M1082.36,1178.57h-2.31l-.67-.71,2.99-1.95v-1.23l-3.67,2.48-2.16-2.25v1.29l2.38,2.37h-4.6v1h8.06v-1ZM1081.51,1172.1c0,.15-.03.26-.07.34-.05.08-.11.14-.19.17-.08.03-.26.05-.54.05h-3.41v-1.01h-.77v1.01h-2.04l.59.99h1.45v.73h.77v-.73h3.36c.6,0,.98-.04,1.17-.12.19-.08.34-.22.45-.42.11-.2.17-.48.17-.84,0-.22-.03-.47-.09-.76l-.88.14c.03.18.04.33.04.44"/>
    <path d="M1095.52,1226.25h-3.66v-3.82h-.95v3.82h-2.49v-4.41h-.95v5.49h8.06v-1.08ZM1094.38,1220.55c.43-.28.75-.67.96-1.17.21-.5.32-1.11.32-1.85,0-.58-.1-1.11-.31-1.57-.21-.46-.51-.82-.89-1.07-.38-.25-.78-.37-1.21-.37s-.81.11-1.14.34c-.33.23-.61.58-.83,1.05-.14.33-.32.93-.51,1.8-.2.88-.39,1.42-.57,1.63-.19.21-.43.31-.72.31-.33,0-.62-.15-.85-.45-.23-.3-.35-.77-.35-1.42s.13-1.1.39-1.42c.26-.32.64-.51,1.16-.56l-.08-1.03c-.47.02-.9.15-1.27.4-.37.25-.66.6-.85,1.07-.19.46-.29.99-.29,1.59,0,.55.09,1.05.27,1.49.19.45.45.79.81,1.02.35.24.73.35,1.14.35.37,0,.7-.1,1-.29.3-.19.55-.48.75-.87.16-.3.33-.83.5-1.57.18-.74.31-1.23.4-1.45.13-.34.28-.59.48-.73.19-.15.41-.22.66-.22s.48.07.69.23c.21.15.38.39.5.7.12.31.18.68.18,1.09,0,.46-.08.88-.24,1.25-.16.37-.37.64-.63.82-.26.17-.59.29-.99.34l.09,1.01c.54-.01,1.02-.16,1.45-.45"/>
    <path d="M1089.86,1210.08h.92v-5.37h-.92v5.37ZM1092.31,1210.08h.92v-5.37h-.92v5.37Z"/>
    <polygon points="1095.52 1198.91 1091.86 1198.91 1091.86 1195.09 1090.91 1195.09 1090.91 1198.91 1088.42 1198.91 1088.42 1194.5 1087.47 1194.5 1087.47 1199.99 1095.52 1199.99 1095.52 1198.91"/>
    <path d="M1094.87,1192.69c.52-.51.79-1.18.79-2,0-.51-.12-.99-.36-1.42-.24-.43-.57-.76-1-.99-.43-.23-1.02-.34-1.77-.34-.93,0-1.65.26-2.18.77-.53.52-.79,1.18-.79,1.99,0,.73.22,1.35.65,1.85.52.61,1.32.91,2.4.91.98,0,1.74-.25,2.26-.76M1090.93,1191.93c-.37-.33-.55-.74-.55-1.24s.19-.9.56-1.23c.37-.33.92-.5,1.64-.5.77,0,1.34.16,1.71.49.38.33.56.74.56,1.24s-.19.91-.56,1.24c-.37.33-.93.49-1.68.49s-1.31-.16-1.68-.49M1095.52,1186.02h-3.05c-.42,0-.81-.06-1.16-.17-.23-.07-.41-.2-.54-.37-.13-.18-.2-.37-.2-.59,0-.24.07-.49.21-.73l-.92-.34c-.21.35-.32.69-.32,1.03,0,.23.07.45.2.64.13.19.4.4.82.63h-.89v.9h5.84v-1Z"/>
    <path d="M1094.56,1179.87c.19.26.28.57.28.94,0,.49-.17.9-.51,1.23-.34.33-.83.51-1.48.55v-4.39c-.11,0-.2,0-.26,0-.97,0-1.71.25-2.24.75-.53.5-.8,1.14-.8,1.93s.27,1.47.81,1.98c.54.51,1.31.77,2.29.77s1.69-.25,2.21-.76c.53-.5.79-1.19.79-2.05,0-.68-.17-1.25-.5-1.69-.33-.44-.79-.74-1.39-.9l-.13,1.03c.42.15.72.36.91.62M1090.82,1182.02c-.31-.31-.46-.7-.46-1.16,0-.51.19-.92.57-1.24.25-.21.62-.33,1.11-.38v3.29c-.51-.03-.91-.21-1.22-.52M1095.18,1176.51c.32-.4.47-.98.47-1.75,0-.46-.08-.88-.24-1.24-.16-.37-.38-.65-.68-.84-.29-.19-.6-.29-.93-.29s-.62.08-.85.24c-.23.16-.4.38-.52.66-.12.28-.27.77-.46,1.48-.13.49-.22.78-.25.88-.07.17-.16.3-.27.38-.1.08-.22.12-.35.12-.2,0-.38-.1-.53-.3-.15-.19-.22-.52-.22-.98,0-.39.08-.69.25-.9.17-.21.4-.34.71-.38l-.13-.97c-.38.06-.68.18-.9.34-.22.17-.41.42-.54.77-.13.35-.2.76-.2,1.22,0,.31.04.59.12.87.08.27.18.48.29.63.15.21.33.37.55.49.22.12.46.18.72.18.28,0,.55-.07.78-.22.23-.15.42-.36.55-.64.13-.28.29-.79.48-1.52.14-.55.25-.89.33-1.02.13-.2.31-.29.53-.29.25,0,.47.11.65.33.19.22.28.56.28,1.02s-.1.81-.31,1.06c-.21.25-.51.41-.9.46l.16.99c.62-.11,1.09-.37,1.4-.77M1087.46,1171.13h8.06v-1h-8.06v1ZM1095.52,1164.44v-1.04c-.22.13-.46.21-.7.25-.24.04-.83.06-1.74.06h-1.32c-.44,0-.74.02-.91.05-.27.06-.5.17-.67.31-.18.15-.33.38-.44.69-.12.31-.18.72-.18,1.23s.07.95.21,1.34c.14.38.33.68.59.88.25.21.59.35,1,.44l.13-.98c-.42-.11-.7-.27-.87-.5-.17-.22-.24-.57-.24-1.04,0-.5.11-.88.34-1.14.16-.19.45-.28.85-.28.04,0,.12,0,.26,0,.13.38.24.97.34,1.78.05.4.1.69.15.89.07.26.18.5.32.72.15.21.33.38.57.52.24.13.5.2.78.2.49,0,.89-.17,1.2-.52s.47-.84.47-1.49c0-.39-.06-.76-.19-1.1-.13-.34-.35-.7-.66-1.07.27-.03.51-.1.72-.2M1092.96,1164.73c.44,0,.77.06.99.16.29.14.52.36.69.66.16.3.25.64.25,1.03s-.09.69-.26.89c-.18.2-.39.3-.66.3-.17,0-.33-.04-.47-.14-.14-.09-.25-.22-.32-.39-.07-.17-.14-.46-.2-.87-.1-.72-.22-1.27-.37-1.63h.36ZM1088.9,1166.82c.2-.19.29-.43.29-.71s-.1-.5-.29-.7c-.2-.2-.44-.3-.72-.3s-.52.1-.71.3c-.2.2-.29.43-.29.7s.1.5.29.7.42.3.69.3c.29,0,.54-.1.74-.3M1087.76,1166.52c-.11-.12-.17-.26-.17-.41s.06-.3.18-.42c.12-.11.26-.17.43-.17s.3.06.42.17c.12.12.17.25.17.42s-.06.29-.17.41c-.12.12-.26.17-.44.17-.16,0-.3-.06-.42-.17M1094.56,1158.66c.19.26.28.57.28.94,0,.49-.17.9-.51,1.23-.34.33-.83.51-1.48.55v-4.4c-.11,0-.2,0-.26,0-.97,0-1.71.25-2.24.75-.53.5-.8,1.15-.8,1.93s.27,1.48.81,1.98c.54.51,1.31.76,2.29.76s1.69-.25,2.21-.76c.53-.5.79-1.19.79-2.05,0-.68-.17-1.25-.5-1.69-.33-.44-.79-.74-1.39-.9l-.13,1.03c.42.15.72.36.91.61M1090.82,1160.8c-.31-.31-.46-.7-.46-1.16,0-.51.19-.92.57-1.24.25-.21.62-.33,1.11-.38v3.29c-.51-.03-.91-.21-1.22-.52"/>
    <path d="M1094.68,1153.87c0,.15-.03.26-.07.34-.05.08-.11.14-.19.17-.08.03-.26.05-.54.05h-3.41v-1.01h-.77v1.01h-2.04l.59,1h1.45v.73h.77v-.73h3.36c.6,0,.99-.04,1.17-.12.18-.08.33-.22.45-.42.11-.2.17-.48.17-.84,0-.22-.03-.47-.09-.75l-.87.14c.03.18.04.33.04.44M1095.18,1149.18c.32-.4.47-.98.47-1.75,0-.46-.08-.88-.24-1.25-.16-.37-.38-.65-.67-.84-.29-.2-.6-.29-.93-.29s-.62.08-.85.24c-.23.16-.4.38-.52.66s-.27.77-.46,1.48c-.14.49-.22.78-.26.88-.07.17-.15.3-.26.38-.1.08-.21.12-.35.12-.2,0-.38-.1-.53-.3s-.22-.52-.22-.98c0-.39.08-.69.25-.9.17-.21.4-.34.7-.38l-.13-.98c-.38.06-.68.18-.9.34-.22.17-.4.43-.54.78-.13.35-.2.76-.2,1.22,0,.31.04.59.12.86.08.27.18.48.29.63.15.21.33.37.55.49.22.12.46.18.72.18.29,0,.55-.07.78-.22.24-.14.42-.36.56-.65.13-.28.29-.79.48-1.52.13-.54.25-.88.34-1.02.13-.19.31-.29.53-.29.25,0,.47.11.65.33.19.22.28.56.28,1.02s-.11.81-.32,1.06c-.21.25-.51.41-.9.46l.15.99c.62-.11,1.09-.36,1.4-.77"/>
    <path d="M1095.52,1142.46h-2.31l-.67-.71,2.99-1.95v-1.23l-3.67,2.48-2.17-2.25v1.29l2.38,2.36h-4.6v1h8.06v-1ZM1095.52,1133.68v-1.04c-.22.13-.46.21-.7.25-.24.04-.83.06-1.74.06h-1.32c-.44,0-.74.02-.91.05-.27.06-.5.16-.67.31-.18.15-.33.38-.44.69-.12.31-.18.72-.18,1.23s.07.95.21,1.33c.14.38.34.68.59.88.25.2.59.35,1,.44l.13-.98c-.41-.11-.7-.27-.87-.5-.16-.22-.24-.57-.24-1.04,0-.5.11-.88.33-1.14.17-.19.45-.28.85-.28.04,0,.12,0,.26,0,.13.38.25.97.35,1.78.05.4.09.69.15.89.07.27.18.5.33.72.14.21.33.38.57.52.23.13.49.2.78.2.49,0,.89-.17,1.2-.52.31-.35.47-.84.47-1.49,0-.39-.07-.76-.19-1.1-.13-.34-.35-.7-.66-1.07.27-.03.51-.09.72-.2M1092.96,1133.96c.44,0,.77.05.99.16.29.14.52.36.69.66.17.3.25.64.25,1.03s-.09.69-.26.89c-.18.2-.39.3-.66.3-.17,0-.33-.05-.47-.14-.14-.09-.25-.22-.32-.39-.07-.17-.14-.46-.2-.87-.1-.72-.23-1.27-.37-1.63h.36Z"/>
    <path d="M1094.79,1130.73c.57-.4.86-.94.86-1.64s-.27-1.3-.82-1.8c-.55-.5-1.32-.75-2.32-.75-.42,0-.82.06-1.19.18-.37.12-.68.28-.95.49-.26.21-.47.48-.61.8-.15.32-.22.67-.22,1.03,0,.65.26,1.19.79,1.62h-2.88v1h8.06v-.93h-.73ZM1090.93,1130.26c-.37-.32-.56-.69-.56-1.13s.18-.8.54-1.11c.36-.31.93-.46,1.69-.46s1.3.16,1.68.48c.38.32.56.69.56,1.13,0,.54-.25.96-.76,1.27-.31.19-.82.29-1.52.29s-1.25-.16-1.63-.48"/>
    <path d="M1094.49,819.92c.56-.45.83-1.06.83-1.85,0-.6-.16-1.09-.48-1.48-.32-.39-.76-.68-1.34-.88-.58-.2-1.34-.29-2.29-.29-.8,0-1.43.06-1.9.18-.47.12-.87.29-1.2.5-.33.21-.58.49-.76.81-.17.33-.26.71-.26,1.15,0,.59.15,1.08.47,1.47.31.39.76.69,1.34.88.58.2,1.35.29,2.3.29,1.51,0,2.61-.27,3.28-.8M1088.49,819.18c-.38-.28-.58-.64-.58-1.1s.22-.85.65-1.17,1.32-.47,2.64-.47,2.2.16,2.64.47.66.7.66,1.16-.22.84-.65,1.16c-.44.31-1.32.47-2.64.47s-2.23-.17-2.72-.52M1094.24,666.23c-.18-.11-.36-.25-.53-.42-.18-.17-.52-.55-1.02-1.15-.6-.72-1.07-1.23-1.42-1.54-.35-.31-.67-.53-.98-.66-.31-.13-.63-.2-.95-.2-.63,0-1.17.23-1.6.68-.43.46-.64,1.07-.64,1.86s.2,1.39.59,1.85c.4.46.98.73,1.74.8l.11-1.03c-.51,0-.9-.15-1.19-.44-.29-.29-.43-.68-.43-1.16,0-.46.13-.83.4-1.11.27-.28.6-.43.99-.43s.77.16,1.19.47c.42.31.99.91,1.71,1.79.46.57.87,1.01,1.22,1.31.35.3.71.52,1.07.66.22.08.45.12.69.11v-5.38h-.95v3.99Z"/>
    <path d="M1095.19,660.14h-3.03c-.53,0-.94-.05-1.22-.16s-.5-.28-.64-.52c-.15-.24-.22-.5-.22-.78,0-.37.11-.64.33-.8.22-.16.55-.24.99-.24h3.79v-1h-3.39c-.6,0-1.04-.14-1.31-.41-.27-.28-.41-.62-.41-1.04,0-.23.06-.43.16-.6.11-.17.25-.29.42-.35.17-.07.46-.1.86-.1h3.68v-1h-4.01c-.66,0-1.16.16-1.48.47-.32.31-.48.76-.48,1.35,0,.75.34,1.35,1.02,1.82-.32.11-.57.31-.75.59-.18.28-.27.64-.27,1.07,0,.39.08.74.26,1.05.17.31.4.55.69.74h-.82v.9h5.84v-1Z"/>
    <path d="M1087.1,741.02v.64c.35.17.71.47,1.08.89.37.42.68.9.94,1.46h.95c-.11-.31-.28-.66-.51-1.05s-.46-.7-.68-.95h6.31v-1h-8.09ZM1095.19,737.1h-3.03c-.53,0-.94-.05-1.22-.16s-.5-.28-.64-.52c-.15-.24-.22-.5-.22-.78,0-.37.11-.63.33-.8.22-.16.55-.24.99-.24h3.79v-1h-3.39c-.6,0-1.04-.14-1.31-.41-.27-.27-.41-.62-.41-1.03,0-.23.06-.43.16-.6.11-.17.25-.29.42-.35.17-.07.46-.1.86-.1h3.68v-.99h-4.01c-.66,0-1.16.16-1.48.47-.32.31-.48.76-.48,1.35,0,.75.34,1.35,1.02,1.82-.32.11-.57.31-.75.59-.18.28-.27.64-.27,1.07,0,.39.08.74.26,1.05.17.31.4.55.69.74h-.82v.89h5.84v-1Z"/>
    <path d="M1095.19,915.85h-6.86l6.86-2.35v-.97l-6.74-2.36h6.74v-1.04h-8.06v1.45l5.61,1.94c.57.2,1,.34,1.29.44-.26.08-.66.21-1.19.39l-5.71,1.92v1.62h8.06v-1.04ZM1095.19,903.82v-1.04c-.22.13-.46.21-.7.25-.24.04-.83.06-1.74.06h-1.32c-.44,0-.75.02-.91.05-.27.06-.49.16-.67.31-.18.15-.33.38-.44.69-.12.31-.18.72-.18,1.23s.07.95.21,1.34c.14.39.33.68.59.88.25.21.59.35,1,.44l.13-.98c-.41-.11-.7-.27-.87-.49-.16-.22-.24-.57-.24-1.04,0-.5.11-.88.34-1.14.16-.19.45-.28.85-.28.04,0,.12,0,.26,0,.13.38.25.97.34,1.78.05.4.1.69.15.89.07.26.18.5.33.72.14.21.33.38.57.51.23.13.5.2.78.2.49,0,.89-.18,1.2-.52.32-.35.47-.85.47-1.49,0-.39-.07-.76-.19-1.1-.13-.34-.35-.7-.66-1.07.27-.03.51-.1.72-.2M1092.62,904.1c.44,0,.76.06.99.16.29.14.52.36.68.66.17.3.25.64.25,1.03s-.09.68-.26.88c-.18.2-.4.3-.66.3-.17,0-.33-.05-.47-.14-.14-.09-.25-.22-.32-.39-.07-.17-.14-.46-.2-.87-.1-.72-.22-1.27-.37-1.63h.36ZM1088.56,906.2c.2-.2.29-.43.29-.71s-.09-.5-.29-.7c-.19-.2-.43-.29-.71-.29s-.52.1-.71.29c-.2.2-.3.43-.3.7s.1.5.29.7c.2.2.43.3.69.3.29,0,.54-.1.73-.29M1087.42,905.89c-.11-.12-.17-.26-.17-.41s.06-.3.18-.42c.12-.11.26-.17.42-.17s.31.06.42.18c.11.12.18.25.18.42s-.06.29-.18.41c-.12.12-.26.18-.44.18-.16,0-.3-.06-.41-.18"/>
    <rect x="1087.13" y="900.48" width="8.06" height="1"/>
    <path d="M1087.1,892.23v.64c.35.18.71.47,1.07.89.37.42.69.91.95,1.47h.95c-.11-.31-.28-.66-.51-1.05-.23-.39-.46-.71-.68-.95h6.31v-1h-8.09ZM1089.35,889.03h1.13v-1.14h-1.13v1.14ZM1094.06,889.03h1.13v-1.14h-1.13v1.14Z"/>
    <path d="M1094.71,885.74c.41-.47.62-1.07.62-1.81,0-.9-.33-1.61-.98-2.14-.53-.43-1.16-.64-1.89-.64s-1.39.24-1.88.73c-.49.49-.73,1.09-.73,1.8,0,.54.17,1.05.51,1.54l-2.16-.44v-3.25h-.95v4.05l4.14.79.12-.94c-.23-.15-.42-.35-.57-.61-.14-.26-.21-.55-.21-.87,0-.52.16-.94.49-1.26.33-.32.77-.48,1.33-.48s1.07.17,1.43.5c.36.33.54.74.54,1.22,0,.4-.13.74-.38,1.03-.25.28-.63.46-1.14.54l.09,1.05c.68-.07,1.22-.34,1.63-.8M1094.49,879.33c.56-.45.84-1.06.84-1.85,0-.6-.16-1.09-.48-1.48-.32-.39-.76-.68-1.35-.88-.58-.2-1.34-.3-2.29-.3-.8,0-1.43.06-1.9.18-.47.12-.87.29-1.2.51-.33.21-.58.49-.76.82-.17.33-.26.71-.26,1.15,0,.59.16,1.08.47,1.47.31.39.76.68,1.34.88.58.2,1.35.3,2.3.3,1.51,0,2.61-.27,3.27-.81M1088.49,878.59c-.38-.27-.58-.64-.58-1.1s.22-.86.65-1.17c.43-.31,1.32-.47,2.64-.47s2.2.15,2.64.47c.44.31.66.7.66,1.16s-.22.84-.66,1.16c-.44.31-1.32.47-2.64.47s-2.23-.17-2.72-.51"/>
    <polygon class="st13" points="1095.19 528.9 1072.57 517.76 1079.32 503.25 1102.27 514.39 1095.19 528.9"/>
    <polygon points="1092.43 523.15 1081.09 517.66 1096.12 515.54 1097.07 513.57 1082.63 506.58 1081.74 508.42 1093.08 513.91 1078.06 516.03 1077.1 518 1091.54 524.99 1092.43 523.15"/>
    <path d="M1094.7,587.02c.42-.47.64-1.07.64-1.78,0-.79-.25-1.45-.74-1.97-.49-.52-1.09-.77-1.79-.77-.52,0-.95.13-1.3.4-.35.27-.58.64-.69,1.12-.17-.37-.39-.65-.68-.84-.29-.19-.61-.28-.95-.28-.37,0-.71.1-1.04.3-.33.2-.59.49-.77.86-.19.37-.28.78-.28,1.22,0,.64.18,1.18.55,1.62.36.43.88.71,1.54.83l.18-1c-.48-.07-.85-.24-1.09-.5-.24-.26-.36-.58-.36-.97s.12-.71.36-.96c.24-.25.54-.37.9-.37.46,0,.8.17,1.02.51.22.34.33.72.33,1.15,0,.04,0,.09,0,.16l.87.11c-.07-.28-.11-.52-.11-.7,0-.47.15-.85.44-1.15.3-.3.67-.45,1.13-.45s.88.16,1.2.48c.32.33.49.72.49,1.19,0,.4-.13.73-.37,1.01-.25.28-.65.47-1.21.59l.13,1c.67-.07,1.22-.34,1.64-.8M1095.19,580.48h-3.03c-.53,0-.94-.05-1.22-.16-.28-.1-.5-.28-.64-.52s-.22-.5-.22-.78c0-.37.11-.63.33-.8.22-.16.55-.24.99-.24h3.79v-1h-3.39c-.6,0-1.04-.14-1.31-.41-.27-.27-.41-.62-.41-1.04,0-.23.06-.42.16-.6.11-.17.25-.29.42-.35.17-.07.46-.1.86-.1h3.68v-.99h-4.01c-.66,0-1.16.16-1.48.47-.32.31-.48.76-.48,1.35,0,.75.34,1.35,1.02,1.82-.32.11-.57.31-.75.59-.18.28-.27.64-.27,1.07,0,.39.08.74.26,1.05.17.31.4.55.69.74h-.82v.89h5.84v-1Z"/>
    <rect class="st13" x="12.73" y="1154.34" width="18.9" height="102.27"/>
    <path d="M16.18,1250.33v.95c.52.26,1.05.69,1.61,1.32s1.02,1.35,1.41,2.17h1.43c-.17-.46-.42-.98-.76-1.56-.34-.58-.68-1.05-1.02-1.4h9.41v-1.48h-12.08ZM26.58,1245.62h1.68v-1.69h-1.68v1.69ZM26.56,1240.97c.63-.42,1.11-1,1.43-1.74.32-.74.47-1.65.47-2.74,0-.86-.16-1.64-.47-2.33-.31-.69-.76-1.22-1.32-1.58-.56-.37-1.17-.55-1.81-.55s-1.22.17-1.71.5c-.5.34-.91.85-1.23,1.56-.22.49-.47,1.37-.77,2.67-.29,1.3-.58,2.1-.86,2.41-.28.31-.63.47-1.06.47-.5,0-.92-.22-1.28-.66-.35-.44-.53-1.15-.53-2.11s.19-1.63.58-2.1c.39-.47.96-.75,1.72-.84l-.11-1.53c-.71.03-1.34.23-1.9.59-.56.37-.98.89-1.27,1.58-.29.68-.43,1.47-.43,2.36,0,.81.14,1.55.41,2.21.27.67.68,1.17,1.2,1.52.53.35,1.1.52,1.7.52.55,0,1.05-.14,1.49-.42.45-.28.82-.71,1.12-1.28.24-.45.49-1.22.75-2.33.27-1.11.46-1.82.59-2.15.19-.51.43-.87.71-1.08.28-.22.61-.33.99-.33s.71.12,1.03.34c.31.23.56.57.74,1.04.18.46.27,1,.27,1.61,0,.69-.12,1.3-.35,1.85-.24.55-.55.95-.94,1.22-.38.26-.88.43-1.48.5l.13,1.51c.8-.02,1.53-.24,2.16-.66M28.26,1223.95v-1.55c-.33.19-.68.31-1.05.38-.36.06-1.23.09-2.6.09h-1.97c-.66,0-1.11.03-1.36.07-.41.09-.74.24-1.01.46-.27.22-.49.56-.66,1.03-.18.47-.26,1.07-.26,1.82s.1,1.41.31,1.98c.21.57.5,1.01.88,1.31.38.3.88.52,1.5.65l.2-1.45c-.62-.16-1.05-.4-1.29-.73-.24-.33-.37-.84-.37-1.54,0-.75.17-1.31.5-1.69.24-.28.67-.42,1.27-.42.05,0,.18,0,.38,0,.2.57.37,1.45.51,2.64.07.59.14,1.03.22,1.32.11.39.27.75.48,1.06.21.31.5.57.85.76.35.2.74.29,1.17.29.73,0,1.33-.26,1.79-.77.47-.52.7-1.25.7-2.22,0-.58-.1-1.12-.29-1.63-.19-.51-.52-1.03-.98-1.58.41-.04.77-.14,1.08-.3M24.43,1224.37c.65,0,1.14.08,1.48.24.43.21.77.54,1.02.98.25.45.37.95.37,1.52s-.13,1.01-.39,1.31c-.26.3-.59.45-.99.45-.26,0-.49-.07-.7-.21-.21-.14-.37-.33-.48-.59-.11-.25-.21-.68-.29-1.29-.16-1.07-.34-1.88-.56-2.42h.54ZM16.23,1220.53h12.03v-1.48h-12.03v1.48ZM19.55,1216.26h1.68v-1.69h-1.68v1.69ZM26.58,1216.26h1.68v-1.69h-1.68v1.69ZM16.98,1200.95c-.53.61-.8,1.39-.8,2.33,0,1.28.46,2.29,1.38,3.04,1.05.86,2.75,1.29,5.07,1.29,2.07,0,3.57-.39,4.47-1.17.9-.78,1.35-1.78,1.35-3.02,0-.73-.17-1.37-.51-1.94-.35-.57-.84-1.02-1.49-1.35-.65-.32-1.35-.49-2.11-.49-1.15,0-2.08.35-2.81,1.04-.73.69-1.09,1.53-1.09,2.52,0,.56.13,1.11.39,1.62.26.52.66.95,1.21,1.31-1.2,0-2.13-.15-2.78-.42-.65-.27-1.15-.64-1.49-1.1-.26-.36-.39-.77-.39-1.25,0-.59.21-1.08.63-1.48.26-.24.69-.43,1.26-.56l-.11-1.47c-.94.12-1.67.49-2.2,1.09M22.48,1205.21c-.48-.47-.72-1.04-.72-1.71s.24-1.23.72-1.68c.48-.45,1.13-.66,1.97-.66s1.55.22,2.05.67c.5.45.76.99.76,1.61,0,.43-.12.84-.37,1.23-.24.39-.6.69-1.06.91-.46.22-.95.33-1.46.33-.77,0-1.4-.23-1.88-.7M26.58,1197.26h1.68v-1.69h-1.68v1.69ZM28.26,1188.19c0-.77-.07-1.42-.2-1.95-.14-.53-.33-.97-.59-1.32-.26-.35-.64-.64-1.12-.88-.48-.24-1.01-.36-1.57-.36-.7,0-1.31.2-1.82.59-.51.39-.88.96-1.09,1.69-.28-.57-.64-.99-1.1-1.27-.45-.28-.94-.42-1.45-.42-.55,0-1.08.16-1.59.47-.51.31-.88.75-1.12,1.31-.24.56-.37,1.3-.37,2.22v4.53h12.03v-4.6ZM17.65,1191.19v-2.41c0-.86.06-1.48.17-1.83.11-.36.32-.63.62-.82.31-.19.66-.29,1.05-.29.42,0,.77.1,1.05.31.28.21.48.51.6.92.09.31.14.81.14,1.52v2.61h-3.63ZM22.71,1191.19v-2.79c0-.77.07-1.35.2-1.76.14-.41.37-.73.7-.96.33-.23.72-.35,1.17-.35.38,0,.72.08,1.01.24.29.16.52.36.67.61.15.25.26.56.33.92.04.21.06.57.06,1.09v3h-4.13ZM26.58,1181.17h1.68v-1.68h-1.68v1.68ZM16.18,1171.66v.96c.52.26,1.05.7,1.61,1.32.55.62,1.02,1.34,1.41,2.17h1.43c-.17-.46-.42-.98-.76-1.56-.34-.58-.68-1.05-1.02-1.4h9.41v-1.48h-12.08ZM26.58,1166.95h1.68v-1.69h-1.68v1.69ZM27.55,1161.82c.61-.69.92-1.59.92-2.68,0-1.34-.49-2.4-1.46-3.17-.79-.63-1.73-.95-2.82-.95s-2.08.36-2.81,1.08-1.09,1.61-1.09,2.67c0,.8.25,1.56.76,2.28l-3.23-.65v-4.82h-1.41v6l6.18,1.17.18-1.39c-.34-.22-.62-.52-.84-.9-.21-.38-.32-.82-.32-1.29,0-.77.24-1.39.73-1.86.48-.48,1.15-.71,1.99-.71.89,0,1.6.25,2.13.74.54.49.81,1.09.81,1.81,0,.59-.19,1.1-.57,1.52-.38.42-.95.69-1.7.8l.13,1.55c1.01-.1,1.82-.49,2.43-1.19"/>
    <rect class="st13" x="34.67" y="1154.34" width="18.9" height="102.27"/>
    <path d="M48.78,1254.04c-.27-.17-.53-.37-.8-.62-.26-.25-.77-.82-1.51-1.71-.9-1.06-1.6-1.83-2.12-2.28-.51-.46-1.01-.79-1.47-.98-.47-.2-.94-.3-1.42-.3-.94,0-1.74.34-2.38,1.01s-.96,1.59-.96,2.75.3,2.06.89,2.74c.59.68,1.46,1.07,2.59,1.18l.16-1.52c-.76,0-1.35-.22-1.77-.65-.43-.43-.64-1-.64-1.71,0-.67.2-1.22.6-1.64.4-.42.9-.63,1.48-.63s1.15.23,1.77.69c.63.46,1.48,1.34,2.55,2.66.69.84,1.3,1.49,1.82,1.94s1.06.77,1.6.97c.33.13.67.18,1.02.17v-7.97h-1.42v5.91ZM48.52,1245.62h1.68v-1.69h-1.68v1.69ZM48.5,1240.97c.64-.42,1.11-1,1.43-1.74.32-.74.48-1.65.48-2.74,0-.86-.16-1.64-.47-2.33-.31-.69-.76-1.22-1.32-1.58-.57-.37-1.17-.55-1.81-.55s-1.22.17-1.71.5c-.5.34-.9.85-1.23,1.56-.22.49-.47,1.37-.76,2.67-.3,1.3-.58,2.1-.86,2.41-.28.31-.64.47-1.07.47-.5,0-.92-.22-1.27-.66-.35-.44-.53-1.15-.53-2.11s.2-1.63.58-2.1c.39-.47.96-.75,1.72-.84l-.11-1.53c-.71.03-1.34.23-1.9.59-.56.37-.98.89-1.27,1.58-.28.68-.43,1.47-.43,2.36,0,.81.14,1.55.41,2.21.27.67.68,1.17,1.2,1.52.53.35,1.09.52,1.7.52.55,0,1.05-.14,1.49-.42.45-.28.82-.71,1.12-1.28.24-.45.49-1.22.75-2.33.26-1.11.46-1.82.59-2.15.19-.51.43-.87.71-1.08.28-.22.61-.33.99-.33s.71.12,1.03.34c.31.23.56.57.74,1.04.18.46.27,1,.27,1.61,0,.69-.12,1.3-.36,1.85-.24.55-.55.95-.94,1.22-.38.26-.88.43-1.48.5l.13,1.51c.8-.02,1.52-.24,2.16-.66M50.2,1223.95v-1.55c-.33.19-.68.31-1.05.38-.36.06-1.23.09-2.6.09h-1.97c-.66,0-1.11.03-1.36.07-.4.09-.74.24-1.01.46s-.49.56-.66,1.03c-.17.47-.26,1.07-.26,1.82s.1,1.41.31,1.98c.21.57.5,1.01.88,1.31.38.3.88.52,1.5.65l.2-1.45c-.62-.16-1.05-.4-1.29-.73-.24-.33-.36-.84-.36-1.54,0-.75.17-1.31.5-1.69.25-.28.67-.42,1.27-.42.06,0,.18,0,.39,0,.2.57.37,1.45.51,2.64.07.59.14,1.03.22,1.32.11.39.27.75.48,1.06.22.31.5.57.85.76.35.2.74.29,1.17.29.73,0,1.32-.26,1.79-.77.47-.52.7-1.25.7-2.22,0-.58-.09-1.12-.29-1.63-.19-.51-.52-1.03-.98-1.58.41-.04.77-.14,1.08-.3M46.37,1224.37c.65,0,1.15.08,1.48.24.43.21.77.54,1.02.98.25.45.37.95.37,1.52s-.13,1.01-.4,1.31c-.26.3-.59.45-.99.45-.25,0-.49-.07-.7-.21-.21-.14-.37-.33-.48-.59-.11-.25-.21-.68-.3-1.29-.15-1.07-.34-1.88-.56-2.42h.54ZM38.17,1220.53h12.03v-1.48h-12.03v1.48ZM41.49,1216.26h1.68v-1.69h-1.68v1.69ZM48.52,1216.26h1.68v-1.69h-1.68v1.69ZM38.92,1200.95c-.53.61-.8,1.39-.8,2.33,0,1.28.46,2.29,1.38,3.04,1.06.86,2.74,1.29,5.07,1.29,2.08,0,3.57-.39,4.48-1.17.9-.78,1.35-1.78,1.35-3.02,0-.73-.17-1.37-.52-1.94-.35-.57-.84-1.02-1.49-1.35-.65-.32-1.35-.49-2.11-.49-1.15,0-2.08.35-2.81,1.04-.72.69-1.09,1.53-1.09,2.52,0,.56.13,1.11.39,1.62.26.52.67.95,1.21,1.31-1.21,0-2.13-.15-2.78-.42-.65-.27-1.15-.64-1.49-1.1-.26-.36-.39-.77-.39-1.25,0-.59.21-1.08.63-1.48.26-.24.68-.43,1.26-.56l-.12-1.47c-.94.12-1.67.49-2.2,1.09M44.42,1205.21c-.48-.47-.72-1.04-.72-1.71s.24-1.23.72-1.68c.48-.45,1.13-.66,1.96-.66s1.55.22,2.05.67c.5.45.75.99.75,1.61,0,.43-.12.84-.36,1.23-.24.39-.6.69-1.06.91-.47.22-.95.33-1.46.33-.78,0-1.4-.23-1.88-.7M48.52,1197.26h1.68v-1.69h-1.68v1.69ZM50.2,1188.19c0-.77-.07-1.42-.2-1.95-.13-.53-.33-.97-.6-1.32s-.63-.64-1.12-.88c-.49-.24-1.01-.36-1.57-.36-.7,0-1.31.2-1.82.59-.51.39-.88.96-1.09,1.69-.28-.57-.65-.99-1.1-1.27-.45-.28-.94-.42-1.45-.42-.55,0-1.08.16-1.59.47-.51.31-.88.75-1.13,1.31-.24.56-.36,1.3-.36,2.22v4.53h12.03v-4.6ZM39.59,1191.19v-2.41c0-.86.05-1.48.17-1.83.11-.36.32-.63.62-.82.3-.19.65-.29,1.05-.29.42,0,.77.1,1.05.31.28.21.48.51.6.92.1.31.14.81.14,1.52v2.61h-3.63ZM44.64,1191.19v-2.79c0-.77.07-1.35.2-1.76.13-.41.36-.73.69-.96.33-.23.72-.35,1.17-.35.38,0,.72.08,1.01.24.29.16.52.36.67.61.15.25.26.56.33.92.04.21.06.57.06,1.09v3h-4.13ZM48.52,1181.17h1.68v-1.68h-1.68v1.68ZM48.78,1175.37c-.27-.16-.53-.37-.8-.62-.26-.25-.77-.83-1.51-1.71-.9-1.06-1.6-1.83-2.12-2.28-.51-.46-1.01-.79-1.47-.98-.47-.2-.94-.3-1.42-.3-.94,0-1.74.34-2.38,1.01-.64.68-.96,1.59-.96,2.75s.3,2.06.89,2.74c.59.68,1.46,1.07,2.59,1.18l.16-1.52c-.76,0-1.35-.22-1.77-.65-.43-.43-.64-1-.64-1.71,0-.67.2-1.22.6-1.64.4-.42.9-.63,1.48-.63s1.15.23,1.77.69c.63.46,1.48,1.35,2.55,2.66.69.85,1.3,1.49,1.82,1.94s1.06.77,1.6.97c.33.13.67.19,1.02.17v-7.97h-1.42v5.91ZM48.52,1166.95h1.68v-1.69h-1.68v1.69ZM49.48,1161.82c.61-.69.92-1.59.92-2.68,0-1.34-.49-2.4-1.46-3.17-.79-.63-1.73-.95-2.82-.95s-2.07.36-2.8,1.08-1.09,1.61-1.09,2.67c0,.8.25,1.56.75,2.28l-3.23-.65v-4.82h-1.41v6l6.18,1.17.18-1.39c-.35-.22-.62-.52-.84-.9-.22-.38-.33-.82-.33-1.29,0-.77.24-1.39.73-1.86.49-.48,1.15-.71,1.99-.71.89,0,1.6.25,2.14.74.54.49.8,1.09.8,1.81,0,.59-.19,1.1-.57,1.52-.38.42-.95.69-1.7.8l.13,1.55c1.01-.1,1.82-.49,2.43-1.19"/>
    <rect class="st13" x="59.31" y="1154.34" width="18.9" height="102.27"/>
    <path d="M74.11,1254.7c.63-.7.94-1.58.94-2.64,0-1.17-.36-2.14-1.1-2.91-.73-.77-1.62-1.15-2.67-1.15-.78,0-1.42.2-1.94.59-.52.39-.86.95-1.02,1.66-.25-.55-.59-.96-1.02-1.24-.43-.28-.9-.42-1.42-.42-.55,0-1.07.14-1.55.44-.49.29-.87.72-1.15,1.27-.28.56-.43,1.16-.43,1.82,0,.95.27,1.75.82,2.39.55.64,1.31,1.05,2.3,1.24l.26-1.48c-.72-.11-1.26-.36-1.62-.74-.36-.38-.54-.86-.54-1.44s.18-1.06.53-1.42c.36-.37.81-.55,1.35-.55.68,0,1.19.25,1.52.76.33.5.49,1.07.49,1.7,0,.06,0,.14-.01.24l1.29.17c-.11-.42-.16-.76-.16-1.05,0-.69.22-1.25.66-1.7.44-.44,1-.67,1.68-.67s1.31.24,1.79.72c.48.48.72,1.07.72,1.77,0,.59-.19,1.08-.56,1.49-.37.41-.97.7-1.81.87l.2,1.48c1-.1,1.82-.5,2.44-1.2M73.16,1245.62h1.68v-1.69h-1.68v1.69ZM73.14,1240.97c.64-.42,1.11-1,1.43-1.74.32-.74.48-1.65.48-2.74,0-.86-.16-1.64-.47-2.33-.31-.69-.76-1.22-1.32-1.58-.57-.37-1.17-.55-1.81-.55s-1.22.17-1.71.5c-.5.34-.9.85-1.23,1.56-.22.49-.47,1.37-.77,2.67-.29,1.3-.58,2.1-.86,2.41-.28.31-.63.47-1.07.47-.5,0-.92-.22-1.27-.66-.35-.44-.53-1.15-.53-2.11s.2-1.63.58-2.1c.39-.47.96-.75,1.72-.84l-.12-1.53c-.7.03-1.33.23-1.89.59-.56.37-.98.89-1.27,1.58-.28.68-.43,1.47-.43,2.36,0,.81.14,1.55.41,2.21.27.67.68,1.17,1.2,1.52.53.35,1.1.52,1.7.52.55,0,1.05-.14,1.49-.42.45-.28.82-.71,1.12-1.28.24-.45.49-1.22.75-2.33.27-1.11.46-1.82.59-2.15.19-.51.43-.87.71-1.08.28-.22.61-.33.99-.33s.71.12,1.03.34c.31.23.56.57.74,1.04.18.46.27,1,.27,1.61,0,.69-.12,1.3-.36,1.85-.24.55-.55.95-.94,1.22-.38.26-.88.43-1.48.5l.13,1.51c.8-.02,1.52-.24,2.16-.66M74.84,1223.95v-1.55c-.33.19-.68.31-1.05.38-.36.06-1.23.09-2.6.09h-1.97c-.66,0-1.11.03-1.36.07-.4.09-.74.24-1.01.46s-.49.56-.66,1.03c-.17.47-.26,1.07-.26,1.82s.1,1.41.31,1.98c.2.57.5,1.01.88,1.31.38.3.88.52,1.5.65l.2-1.45c-.62-.16-1.05-.4-1.29-.73-.24-.33-.36-.84-.36-1.54,0-.75.17-1.31.5-1.69.25-.28.67-.42,1.27-.42.05,0,.18,0,.38,0,.2.57.36,1.45.51,2.64.07.59.14,1.03.22,1.32.11.39.27.75.48,1.06.21.31.5.57.85.76.35.2.74.29,1.17.29.73,0,1.32-.26,1.79-.77.47-.52.7-1.25.7-2.22,0-.58-.09-1.12-.29-1.63-.19-.51-.52-1.03-.98-1.58.41-.04.77-.14,1.08-.3M71.01,1224.37c.65,0,1.14.08,1.48.24.43.21.77.54,1.02.98.25.45.37.95.37,1.52s-.13,1.01-.4,1.31c-.26.3-.59.45-.99.45-.25,0-.49-.07-.7-.21-.21-.14-.37-.33-.48-.59-.11-.25-.21-.68-.3-1.29-.15-1.07-.34-1.88-.56-2.42h.54ZM62.81,1220.53h12.03v-1.48h-12.03v1.48ZM66.13,1216.26h1.68v-1.69h-1.68v1.69ZM73.16,1216.26h1.68v-1.69h-1.68v1.69ZM63.56,1200.95c-.53.61-.8,1.39-.8,2.33,0,1.28.46,2.29,1.38,3.04,1.06.86,2.74,1.29,5.07,1.29,2.08,0,3.57-.39,4.48-1.17.9-.78,1.35-1.78,1.35-3.02,0-.73-.17-1.37-.52-1.94-.35-.57-.84-1.02-1.49-1.35-.65-.32-1.35-.49-2.1-.49-1.15,0-2.08.35-2.81,1.04-.72.69-1.09,1.53-1.09,2.52,0,.56.13,1.11.39,1.62.26.52.67.95,1.21,1.31-1.2,0-2.13-.15-2.78-.42-.65-.27-1.15-.64-1.49-1.1-.26-.36-.39-.77-.39-1.25,0-.59.21-1.08.63-1.48.26-.24.68-.43,1.27-.56l-.12-1.47c-.94.12-1.67.49-2.2,1.09M69.06,1205.21c-.48-.47-.72-1.04-.72-1.71s.24-1.23.72-1.68c.48-.45,1.13-.66,1.96-.66s1.55.22,2.05.67c.5.45.75.99.75,1.61,0,.43-.12.84-.36,1.23-.24.39-.6.69-1.06.91-.47.22-.95.33-1.46.33-.78,0-1.41-.23-1.88-.7M73.16,1197.26h1.68v-1.69h-1.68v1.69ZM74.84,1188.19c0-.77-.07-1.42-.2-1.95-.13-.53-.33-.97-.6-1.32s-.63-.64-1.12-.88c-.49-.24-1.01-.36-1.57-.36-.7,0-1.31.2-1.82.59-.51.39-.88.96-1.09,1.69-.28-.57-.65-.99-1.1-1.27-.45-.28-.94-.42-1.45-.42-.55,0-1.08.16-1.59.47-.51.31-.88.75-1.13,1.31-.24.56-.36,1.3-.36,2.22v4.53h12.03v-4.6ZM64.23,1191.19v-2.41c0-.86.05-1.48.17-1.83.11-.36.32-.63.62-.82.3-.19.65-.29,1.05-.29.42,0,.77.1,1.05.31.28.21.48.51.6.92.1.31.14.81.14,1.52v2.61h-3.63ZM69.28,1191.19v-2.79c0-.77.07-1.35.2-1.76.13-.41.36-.73.69-.96.33-.23.72-.35,1.17-.35.38,0,.72.08,1.01.24.29.16.52.36.67.61.15.25.26.56.33.92.04.21.06.57.06,1.09v3h-4.13ZM73.16,1181.17h1.68v-1.68h-1.68v1.68ZM74.11,1176.03c.63-.7.94-1.58.94-2.64,0-1.18-.36-2.15-1.1-2.92-.73-.77-1.62-1.15-2.67-1.15-.78,0-1.42.2-1.94.59-.52.4-.86.95-1.02,1.66-.25-.55-.59-.96-1.02-1.24-.43-.28-.9-.42-1.42-.42-.55,0-1.07.14-1.55.44-.49.29-.87.72-1.15,1.27-.28.56-.43,1.16-.43,1.82,0,.95.27,1.75.82,2.39.55.64,1.31,1.05,2.3,1.23l.26-1.48c-.72-.11-1.26-.36-1.62-.74-.36-.38-.54-.86-.54-1.44s.18-1.05.53-1.42c.36-.37.81-.55,1.35-.55.68,0,1.19.25,1.52.76.33.5.49,1.07.49,1.7,0,.06,0,.14-.01.24l1.29.17c-.11-.42-.16-.77-.16-1.05,0-.68.22-1.25.66-1.69.44-.45,1-.67,1.68-.67s1.31.24,1.79.72c.48.48.72,1.07.72,1.77,0,.59-.19,1.08-.56,1.49-.37.41-.97.7-1.81.87l.2,1.48c1-.1,1.82-.5,2.44-1.2M73.16,1166.95h1.68v-1.69h-1.68v1.69ZM74.12,1161.82c.61-.69.92-1.59.92-2.68,0-1.34-.49-2.4-1.46-3.17-.79-.63-1.73-.95-2.82-.95s-2.07.36-2.8,1.08c-.73.73-1.09,1.61-1.09,2.67,0,.8.25,1.56.75,2.28l-3.23-.65v-4.82h-1.41v6l6.18,1.17.18-1.39c-.34-.22-.62-.52-.84-.9-.22-.38-.33-.82-.33-1.29,0-.77.24-1.39.73-1.86.49-.48,1.15-.71,1.99-.71.89,0,1.6.25,2.13.74.54.49.8,1.09.8,1.81,0,.59-.19,1.1-.57,1.52-.38.42-.95.69-1.7.8l.13,1.55c1.01-.1,1.82-.49,2.43-1.19"/>
    <rect class="st13" x="82.6" y="1154.34" width="18.9" height="102.27"/>
    <path d="M98.13,1249.68h-2.88v-1.63h-1.35v1.63h-7.8v1.21l7.8,5.5h1.35v-5.23h2.88v-1.48ZM93.9,1254.94l-5.42-3.78h5.42v3.78ZM96.45,1245.62h1.68v-1.69h-1.68v1.69ZM96.43,1240.97c.64-.42,1.11-1,1.43-1.74.32-.74.48-1.65.48-2.74,0-.86-.16-1.64-.47-2.33-.31-.69-.76-1.22-1.32-1.58-.57-.37-1.17-.55-1.81-.55s-1.22.17-1.71.5c-.5.34-.9.85-1.23,1.56-.22.49-.47,1.37-.76,2.67-.3,1.3-.58,2.1-.86,2.41-.28.31-.63.47-1.07.47-.5,0-.92-.22-1.27-.66-.35-.44-.53-1.15-.53-2.11s.2-1.63.58-2.1c.39-.47.96-.75,1.72-.84l-.11-1.53c-.71.03-1.34.23-1.9.59-.56.37-.98.89-1.27,1.58-.29.68-.43,1.47-.43,2.36,0,.81.13,1.55.41,2.21.27.67.68,1.17,1.2,1.52.53.35,1.09.52,1.7.52.55,0,1.05-.14,1.49-.42.45-.28.82-.71,1.12-1.28.24-.45.49-1.22.75-2.33.26-1.11.46-1.82.59-2.15.19-.51.43-.87.71-1.08.28-.22.61-.33.99-.33s.71.12,1.03.34c.31.23.56.57.74,1.04.18.46.27,1,.27,1.61,0,.69-.12,1.3-.36,1.85-.24.55-.55.95-.94,1.22-.39.26-.88.43-1.48.5l.13,1.51c.8-.02,1.52-.24,2.16-.66M98.13,1223.95v-1.55c-.33.19-.68.31-1.04.38-.36.06-1.23.09-2.6.09h-1.97c-.66,0-1.11.03-1.36.07-.4.09-.74.24-1.01.46s-.49.56-.66,1.03c-.17.47-.26,1.07-.26,1.82s.1,1.41.31,1.98c.21.57.5,1.01.88,1.31.38.3.88.52,1.5.65l.2-1.45c-.62-.16-1.05-.4-1.29-.73-.24-.33-.36-.84-.36-1.54,0-.75.17-1.31.5-1.69.25-.28.67-.42,1.27-.42.06,0,.18,0,.39,0,.2.57.36,1.45.51,2.64.07.59.14,1.03.22,1.32.11.39.27.75.48,1.06.22.31.5.57.85.76.35.2.74.29,1.17.29.73,0,1.32-.26,1.79-.77.47-.52.7-1.25.7-2.22,0-.58-.09-1.12-.29-1.63-.19-.51-.52-1.03-.99-1.58.41-.04.77-.14,1.08-.3M94.3,1224.37c.65,0,1.14.08,1.48.24.43.21.77.54,1.02.98.25.45.37.95.37,1.52s-.13,1.01-.4,1.31c-.26.3-.59.45-.99.45-.26,0-.49-.07-.7-.21-.21-.14-.37-.33-.48-.59-.11-.25-.21-.68-.3-1.29-.16-1.07-.34-1.88-.56-2.42h.54ZM86.1,1220.53h12.03v-1.48h-12.03v1.48ZM89.42,1216.26h1.68v-1.69h-1.68v1.69ZM96.45,1216.26h1.68v-1.69h-1.68v1.69ZM86.85,1200.95c-.53.61-.8,1.39-.8,2.33,0,1.28.46,2.29,1.38,3.04,1.05.86,2.74,1.29,5.07,1.29,2.08,0,3.57-.39,4.48-1.17.9-.78,1.35-1.78,1.35-3.02,0-.73-.17-1.37-.52-1.94-.35-.57-.84-1.02-1.49-1.35-.65-.32-1.35-.49-2.1-.49-1.15,0-2.08.35-2.81,1.04-.72.69-1.09,1.53-1.09,2.52,0,.56.13,1.11.39,1.62.26.52.67.95,1.21,1.31-1.21,0-2.13-.15-2.78-.42-.65-.27-1.15-.64-1.49-1.1-.26-.36-.39-.77-.39-1.25,0-.59.21-1.08.63-1.48.26-.24.68-.43,1.27-.56l-.12-1.47c-.94.12-1.67.49-2.2,1.09M92.35,1205.21c-.48-.47-.72-1.04-.72-1.71s.24-1.23.72-1.68c.48-.45,1.13-.66,1.96-.66s1.55.22,2.05.67c.5.45.75.99.75,1.61,0,.43-.12.84-.36,1.23-.24.39-.6.69-1.06.91-.47.22-.95.33-1.46.33-.78,0-1.41-.23-1.88-.7M96.45,1197.26h1.68v-1.69h-1.68v1.69ZM98.13,1188.19c0-.77-.07-1.42-.2-1.95-.13-.53-.33-.97-.6-1.32s-.63-.64-1.12-.88c-.49-.24-1.01-.36-1.57-.36-.7,0-1.31.2-1.82.59-.51.39-.88.96-1.09,1.69-.28-.57-.65-.99-1.1-1.27-.45-.28-.94-.42-1.45-.42-.55,0-1.08.16-1.59.47-.51.31-.88.75-1.13,1.31-.24.56-.36,1.3-.36,2.22v4.53h12.03v-4.6ZM87.52,1191.19v-2.41c0-.86.05-1.48.17-1.83.11-.36.32-.63.62-.82.3-.19.65-.29,1.05-.29.42,0,.77.1,1.05.31.28.21.48.51.6.92.1.31.14.81.14,1.52v2.61h-3.63ZM92.57,1191.19v-2.79c0-.77.07-1.35.2-1.76.13-.41.37-.73.7-.96.33-.23.72-.35,1.17-.35.38,0,.72.08,1.01.24.29.16.51.36.67.61.15.25.26.56.33.92.04.21.06.57.06,1.09v3h-4.13ZM96.45,1181.17h1.68v-1.68h-1.68v1.68ZM98.13,1171.01h-2.88v-1.63h-1.35v1.63h-7.8v1.21l7.8,5.5h1.35v-5.23h2.88v-1.48ZM93.9,1176.26l-5.42-3.78h5.42v3.78ZM96.45,1166.95h1.68v-1.69h-1.68v1.69ZM97.41,1161.82c.61-.69.92-1.59.92-2.68,0-1.34-.49-2.4-1.46-3.17-.79-.63-1.73-.95-2.82-.95s-2.07.36-2.8,1.08c-.73.73-1.09,1.61-1.09,2.67,0,.8.25,1.56.75,2.28l-3.23-.65v-4.82h-1.41v6l6.18,1.17.18-1.39c-.34-.22-.62-.52-.84-.9-.22-.38-.33-.82-.33-1.29,0-.77.24-1.39.73-1.86.49-.48,1.15-.71,1.99-.71.89,0,1.6.25,2.13.74.54.49.8,1.09.8,1.81,0,.59-.19,1.1-.57,1.52-.38.42-.95.69-1.7.8l.13,1.55c1.01-.1,1.82-.49,2.43-1.19"/>
    <rect class="st13" x="105.55" y="1154.34" width="18.9" height="102.27"/>
    <path d="M120.37,1254.72c.61-.69.92-1.59.92-2.69,0-1.34-.49-2.4-1.46-3.17-.79-.64-1.73-.95-2.82-.95s-2.08.36-2.8,1.08c-.73.73-1.09,1.62-1.09,2.67,0,.8.25,1.56.76,2.28l-3.23-.65v-4.82h-1.41v6l6.17,1.17.18-1.39c-.34-.22-.62-.52-.84-.9-.22-.38-.32-.82-.32-1.29,0-.77.24-1.39.73-1.86.49-.47,1.15-.71,1.99-.71.89,0,1.6.25,2.13.74.54.49.81,1.1.81,1.81,0,.59-.19,1.1-.57,1.52-.38.42-.95.68-1.7.8l.13,1.55c1.01-.1,1.82-.49,2.43-1.19M119.4,1245.62h1.68v-1.69h-1.68v1.69ZM119.38,1240.97c.63-.42,1.11-1,1.43-1.74.32-.74.48-1.65.48-2.74,0-.86-.16-1.64-.47-2.33-.32-.69-.76-1.22-1.32-1.58-.56-.37-1.17-.55-1.81-.55s-1.22.17-1.71.5c-.49.34-.9.85-1.23,1.56-.22.49-.47,1.37-.77,2.67-.29,1.3-.58,2.1-.86,2.41-.28.31-.63.47-1.06.47-.5,0-.92-.22-1.28-.66-.35-.44-.53-1.15-.53-2.11s.2-1.63.58-2.1c.39-.47.96-.75,1.72-.84l-.11-1.53c-.7.03-1.34.23-1.9.59-.56.37-.98.89-1.27,1.58-.29.68-.43,1.47-.43,2.36,0,.81.13,1.55.41,2.21.27.67.68,1.17,1.2,1.52.53.35,1.1.52,1.71.52.55,0,1.05-.14,1.49-.42.45-.28.82-.71,1.12-1.28.24-.45.49-1.22.75-2.33.27-1.11.46-1.82.59-2.15.19-.51.43-.87.71-1.08.28-.22.61-.33.99-.33s.71.12,1.03.34c.31.23.56.57.74,1.04.18.46.27,1,.27,1.61,0,.69-.12,1.3-.36,1.85-.24.55-.55.95-.94,1.22-.38.26-.88.43-1.48.5l.13,1.51c.81-.02,1.53-.24,2.16-.66M121.08,1223.95v-1.55c-.33.19-.68.31-1.04.38-.36.06-1.23.09-2.6.09h-1.97c-.66,0-1.11.03-1.36.07-.41.09-.74.24-1.01.46-.26.22-.49.56-.66,1.03-.17.47-.26,1.07-.26,1.82s.1,1.41.31,1.98c.21.57.5,1.01.88,1.31.38.3.88.52,1.5.65l.2-1.45c-.62-.16-1.05-.4-1.29-.73-.24-.33-.36-.84-.36-1.54,0-.75.16-1.31.5-1.69.25-.28.67-.42,1.27-.42.05,0,.18,0,.38,0,.2.57.36,1.45.51,2.64.07.59.14,1.03.22,1.32.11.39.27.75.48,1.06.22.31.5.57.85.76.35.2.74.29,1.17.29.72,0,1.32-.26,1.79-.77.47-.52.7-1.25.7-2.22,0-.58-.1-1.12-.29-1.63-.19-.51-.52-1.03-.99-1.58.41-.04.77-.14,1.08-.3M117.25,1224.37c.65,0,1.14.08,1.48.24.43.21.77.54,1.02.98.25.45.37.95.37,1.52s-.13,1.01-.4,1.31c-.26.3-.59.45-.98.45-.26,0-.49-.07-.7-.21-.21-.14-.37-.33-.48-.59-.11-.25-.21-.68-.3-1.29-.16-1.07-.34-1.88-.56-2.42h.54ZM109.05,1220.53h12.03v-1.48h-12.03v1.48ZM112.37,1216.26h1.68v-1.69h-1.68v1.69ZM119.4,1216.26h1.68v-1.69h-1.68v1.69ZM109.8,1200.95c-.53.61-.8,1.39-.8,2.33,0,1.28.46,2.29,1.38,3.04,1.05.86,2.74,1.29,5.07,1.29,2.08,0,3.57-.39,4.48-1.17.9-.78,1.35-1.78,1.35-3.02,0-.73-.17-1.37-.52-1.94-.34-.57-.84-1.02-1.49-1.35-.65-.32-1.35-.49-2.1-.49-1.15,0-2.09.35-2.81,1.04-.73.69-1.09,1.53-1.09,2.52,0,.56.13,1.11.39,1.62.26.52.66.95,1.21,1.31-1.21,0-2.13-.15-2.78-.42-.65-.27-1.14-.64-1.48-1.1-.26-.36-.39-.77-.39-1.25,0-.59.21-1.08.63-1.48.26-.24.68-.43,1.26-.56l-.11-1.47c-.94.12-1.67.49-2.2,1.09M115.3,1205.21c-.48-.47-.72-1.04-.72-1.71s.24-1.23.72-1.68c.48-.45,1.13-.66,1.97-.66s1.55.22,2.05.67.76.99.76,1.61c0,.43-.12.84-.36,1.23-.24.39-.6.69-1.06.91-.47.22-.95.33-1.46.33-.78,0-1.4-.23-1.88-.7M119.4,1197.26h1.68v-1.69h-1.68v1.69ZM121.08,1188.19c0-.77-.06-1.42-.2-1.95-.14-.53-.33-.97-.6-1.32-.26-.35-.63-.64-1.12-.88-.49-.24-1.01-.36-1.57-.36-.7,0-1.31.2-1.82.59-.51.39-.88.96-1.09,1.69-.28-.57-.64-.99-1.1-1.27-.45-.28-.94-.42-1.45-.42-.55,0-1.08.16-1.59.47-.51.31-.88.75-1.13,1.31-.24.56-.36,1.3-.36,2.22v4.53h12.03v-4.6ZM110.47,1191.19v-2.41c0-.86.05-1.48.17-1.83.11-.36.32-.63.62-.82.3-.19.65-.29,1.05-.29.42,0,.77.1,1.05.31.28.21.48.51.6.92.1.31.14.81.14,1.52v2.61h-3.63ZM115.53,1191.19v-2.79c0-.77.07-1.35.2-1.76.13-.41.37-.73.7-.96s.72-.35,1.17-.35c.38,0,.72.08,1.01.24.29.16.52.36.67.61.15.25.26.56.33.92.04.21.06.57.06,1.09v3h-4.14ZM119.4,1181.17h1.68v-1.68h-1.68v1.68ZM120.37,1176.05c.61-.69.92-1.59.92-2.69,0-1.34-.49-2.4-1.46-3.17-.79-.63-1.73-.96-2.82-.96s-2.08.36-2.8,1.09c-.73.73-1.09,1.61-1.09,2.67,0,.79.25,1.55.76,2.28l-3.23-.65v-4.82h-1.41v6l6.17,1.17.18-1.39c-.34-.22-.62-.52-.84-.9-.22-.38-.32-.81-.32-1.29,0-.77.24-1.39.73-1.86.49-.47,1.15-.71,1.99-.71.89,0,1.6.25,2.13.74.54.49.81,1.1.81,1.81,0,.59-.19,1.1-.57,1.52-.38.42-.95.69-1.7.8l.13,1.55c1.01-.1,1.82-.49,2.43-1.19M119.4,1166.95h1.68v-1.69h-1.68v1.69ZM120.37,1161.82c.61-.69.92-1.59.92-2.68,0-1.34-.49-2.4-1.46-3.17-.79-.63-1.73-.95-2.82-.95s-2.08.36-2.8,1.08-1.09,1.61-1.09,2.67c0,.8.25,1.56.76,2.28l-3.23-.65v-4.82h-1.41v6l6.17,1.17.18-1.39c-.34-.22-.62-.52-.84-.9-.22-.38-.32-.82-.32-1.29,0-.77.24-1.39.73-1.86.49-.48,1.15-.71,1.99-.71.89,0,1.6.25,2.13.74.54.49.81,1.09.81,1.81,0,.59-.19,1.1-.57,1.52-.38.42-.95.69-1.7.8l.13,1.55c1.01-.1,1.82-.49,2.43-1.19"/>
    <rect class="st13" x="127.49" y="1154.34" width="18.9" height="102.27"/>
    <path d="M131.74,1249.32c-.53.6-.79,1.38-.79,2.33,0,1.27.46,2.28,1.38,3.04,1.05.86,2.74,1.29,5.07,1.29,2.08,0,3.57-.39,4.48-1.17.9-.78,1.35-1.79,1.35-3.02,0-.73-.17-1.37-.52-1.94-.34-.57-.84-1.02-1.49-1.35-.65-.32-1.35-.49-2.11-.49-1.15,0-2.08.35-2.81,1.04-.73.69-1.09,1.53-1.09,2.52,0,.56.13,1.11.39,1.62.26.52.66.95,1.21,1.31-1.2,0-2.13-.15-2.78-.42-.65-.27-1.15-.64-1.48-1.1-.26-.36-.39-.77-.39-1.24,0-.59.21-1.08.63-1.48.26-.24.68-.43,1.26-.56l-.11-1.47c-.94.12-1.67.48-2.2,1.09M137.24,1253.57c-.48-.46-.72-1.03-.72-1.7s.24-1.23.72-1.68c.48-.45,1.13-.67,1.97-.67s1.55.22,2.05.67.76.99.76,1.61c0,.43-.12.84-.36,1.23-.24.39-.6.69-1.06.91-.47.21-.95.33-1.46.33-.77,0-1.4-.24-1.88-.7M141.34,1245.62h1.68v-1.69h-1.68v1.69ZM141.32,1240.97c.63-.42,1.11-1,1.43-1.74.32-.74.48-1.65.48-2.74,0-.86-.16-1.64-.47-2.33-.32-.69-.76-1.22-1.32-1.58-.56-.37-1.17-.55-1.81-.55s-1.22.17-1.71.5c-.49.34-.9.85-1.23,1.56-.22.49-.47,1.37-.77,2.67-.29,1.3-.58,2.1-.86,2.41-.28.31-.63.47-1.06.47-.5,0-.92-.22-1.28-.66-.35-.44-.53-1.15-.53-2.11s.19-1.63.58-2.1c.39-.47.96-.75,1.72-.84l-.11-1.53c-.7.03-1.34.23-1.89.59-.56.37-.98.89-1.27,1.58-.29.68-.43,1.47-.43,2.36,0,.81.14,1.55.41,2.21.27.67.68,1.17,1.2,1.52.53.35,1.1.52,1.7.52.55,0,1.05-.14,1.49-.42.45-.28.82-.71,1.12-1.28.23-.45.49-1.22.75-2.33.27-1.11.46-1.82.59-2.15.19-.51.43-.87.71-1.08.28-.22.61-.33.99-.33s.71.12,1.03.34c.31.23.56.57.74,1.04.18.46.27,1,.27,1.61,0,.69-.12,1.3-.36,1.85-.24.55-.55.95-.94,1.22-.38.26-.88.43-1.48.5l.13,1.51c.81-.02,1.53-.24,2.16-.66M143.02,1223.95v-1.55c-.33.19-.68.31-1.04.38-.36.06-1.23.09-2.6.09h-1.97c-.66,0-1.11.03-1.36.07-.41.09-.74.24-1.01.46-.26.22-.49.56-.66,1.03-.18.47-.26,1.07-.26,1.82s.1,1.41.31,1.98c.21.57.5,1.01.88,1.31.38.3.88.52,1.5.65l.2-1.45c-.62-.16-1.05-.4-1.29-.73-.24-.33-.36-.84-.36-1.54,0-.75.16-1.31.5-1.69.25-.28.67-.42,1.27-.42.05,0,.18,0,.38,0,.2.57.36,1.45.51,2.64.07.59.14,1.03.22,1.32.11.39.27.75.48,1.06.22.31.5.57.85.76.35.2.74.29,1.17.29.72,0,1.32-.26,1.79-.77.47-.52.7-1.25.7-2.22,0-.58-.1-1.12-.29-1.63-.19-.51-.52-1.03-.99-1.58.41-.04.77-.14,1.08-.3M139.19,1224.37c.65,0,1.14.08,1.48.24.43.21.77.54,1.02.98.25.45.37.95.37,1.52s-.13,1.01-.4,1.31c-.26.3-.59.45-.98.45-.26,0-.49-.07-.7-.21-.21-.14-.37-.33-.48-.59-.11-.25-.21-.68-.3-1.29-.16-1.07-.34-1.88-.56-2.42h.54ZM130.99,1220.53h12.03v-1.48h-12.03v1.48ZM134.31,1216.26h1.68v-1.69h-1.68v1.69ZM141.34,1216.26h1.68v-1.69h-1.68v1.69ZM131.74,1200.95c-.53.61-.79,1.39-.79,2.33,0,1.28.46,2.29,1.38,3.04,1.05.86,2.74,1.29,5.07,1.29,2.08,0,3.57-.39,4.48-1.17.9-.78,1.35-1.78,1.35-3.02,0-.73-.17-1.37-.52-1.94-.34-.57-.84-1.02-1.49-1.35-.65-.32-1.35-.49-2.11-.49-1.15,0-2.08.35-2.81,1.04-.73.69-1.09,1.53-1.09,2.52,0,.56.13,1.11.39,1.62.26.52.66.95,1.21,1.31-1.2,0-2.13-.15-2.78-.42-.65-.27-1.15-.64-1.48-1.1-.26-.36-.39-.77-.39-1.25,0-.59.21-1.08.63-1.48.26-.24.68-.43,1.26-.56l-.11-1.47c-.94.12-1.67.49-2.2,1.09M137.24,1205.21c-.48-.47-.72-1.04-.72-1.71s.24-1.23.72-1.68c.48-.45,1.13-.66,1.97-.66s1.55.22,2.05.67.76.99.76,1.61c0,.43-.12.84-.36,1.23-.24.39-.6.69-1.06.91-.47.22-.95.33-1.46.33-.77,0-1.4-.23-1.88-.7M141.34,1197.26h1.68v-1.69h-1.68v1.69ZM143.02,1188.19c0-.77-.06-1.42-.2-1.95-.14-.53-.33-.97-.6-1.32-.26-.35-.63-.64-1.12-.88-.48-.24-1.01-.36-1.57-.36-.7,0-1.31.2-1.82.59-.51.39-.88.96-1.09,1.69-.28-.57-.64-.99-1.1-1.27-.45-.28-.94-.42-1.45-.42-.55,0-1.08.16-1.59.47-.51.31-.88.75-1.12,1.31-.25.56-.36,1.3-.36,2.22v4.53h12.02v-4.6ZM132.41,1191.19v-2.41c0-.86.06-1.48.16-1.83.11-.36.32-.63.62-.82.3-.19.66-.29,1.06-.29.42,0,.77.1,1.05.31.28.21.48.51.6.92.1.31.14.81.14,1.52v2.61h-3.63ZM137.47,1191.19v-2.79c0-.77.07-1.35.2-1.76.13-.41.37-.73.7-.96s.72-.35,1.17-.35c.38,0,.72.08,1.01.24.29.16.52.36.67.61.15.25.26.56.33.92.04.21.06.57.06,1.09v3h-4.14ZM141.34,1181.17h1.68v-1.68h-1.68v1.68ZM131.74,1170.64c-.53.6-.79,1.38-.79,2.33,0,1.28.46,2.29,1.38,3.04,1.05.86,2.74,1.29,5.07,1.29,2.08,0,3.57-.39,4.48-1.17.9-.78,1.35-1.78,1.35-3.02,0-.73-.17-1.37-.52-1.94-.34-.57-.84-1.02-1.49-1.35-.65-.32-1.35-.49-2.11-.49-1.15,0-2.08.35-2.81,1.04-.73.69-1.09,1.53-1.09,2.52,0,.56.13,1.11.39,1.62.26.52.66.95,1.21,1.31-1.2-.01-2.13-.15-2.78-.42-.65-.27-1.15-.64-1.48-1.1-.26-.36-.39-.77-.39-1.24,0-.59.21-1.08.63-1.48.26-.24.68-.43,1.26-.56l-.11-1.47c-.94.12-1.67.48-2.2,1.09M137.24,1174.9c-.48-.46-.72-1.03-.72-1.7s.24-1.23.72-1.68c.48-.45,1.13-.67,1.97-.67s1.55.22,2.05.67.76.99.76,1.61c0,.43-.12.84-.36,1.23-.24.39-.6.69-1.06.91-.47.22-.95.33-1.46.33-.77,0-1.4-.24-1.88-.7M141.34,1166.95h1.68v-1.69h-1.68v1.69ZM142.31,1161.82c.61-.69.92-1.59.92-2.68,0-1.34-.49-2.4-1.46-3.17-.79-.63-1.73-.95-2.82-.95s-2.08.36-2.8,1.08-1.09,1.61-1.09,2.67c0,.8.25,1.56.76,2.28l-3.23-.65v-4.82h-1.41v6l6.18,1.17.18-1.39c-.34-.22-.62-.52-.84-.9-.22-.38-.32-.82-.32-1.29,0-.77.24-1.39.73-1.86.49-.48,1.15-.71,1.99-.71.89,0,1.6.25,2.13.74.54.49.81,1.09.81,1.81,0,.59-.19,1.1-.57,1.52-.38.42-.95.69-1.7.8l.13,1.55c1.01-.1,1.82-.49,2.43-1.19"/>
    <rect class="st13" x="150.78" y="1154.34" width="18.9" height="102.27"/>
    <path d="M155.86,1249.9c.85.75,1.9,1.46,3.15,2.13,1.25.66,2.54,1.18,3.88,1.53,1.34.36,2.48.55,3.43.56v-1.52c-1.2-.08-2.3-.27-3.31-.56-1.43-.41-2.82-.99-4.17-1.75-1.35-.76-2.43-1.52-3.25-2.29h-1.15v7.81h1.42v-5.91ZM164.63,1245.62h1.68v-1.69h-1.68v1.69ZM164.61,1240.97c.64-.42,1.12-1,1.43-1.74.32-.74.47-1.65.47-2.74,0-.86-.15-1.64-.47-2.33-.31-.69-.76-1.22-1.32-1.58-.56-.37-1.17-.55-1.81-.55s-1.22.17-1.71.5c-.49.34-.9.85-1.23,1.56-.22.49-.47,1.37-.77,2.67-.29,1.3-.58,2.1-.86,2.41-.28.31-.63.47-1.07.47-.5,0-.92-.22-1.28-.66-.35-.44-.53-1.15-.53-2.11s.19-1.63.58-2.1c.39-.47.96-.75,1.72-.84l-.11-1.53c-.7.03-1.34.23-1.89.59-.56.37-.98.89-1.27,1.58-.29.68-.43,1.47-.43,2.36,0,.81.14,1.55.41,2.21.27.67.67,1.17,1.2,1.52.53.35,1.09.52,1.7.52.55,0,1.05-.14,1.49-.42.45-.28.82-.71,1.12-1.28.23-.45.49-1.22.75-2.33s.46-1.82.59-2.15c.19-.51.43-.87.71-1.08.28-.22.61-.33.99-.33s.71.12,1.03.34c.32.23.56.57.74,1.04.18.46.27,1,.27,1.61,0,.69-.12,1.3-.36,1.85-.24.55-.55.95-.94,1.22-.38.26-.88.43-1.48.5l.13,1.51c.81-.02,1.53-.24,2.16-.66M166.31,1223.95v-1.55c-.33.19-.69.31-1.05.38-.36.06-1.23.09-2.6.09h-1.97c-.66,0-1.11.03-1.36.07-.4.09-.74.24-1.01.46-.26.22-.48.56-.66,1.03-.17.47-.26,1.07-.26,1.82s.1,1.41.31,1.98c.2.57.5,1.01.88,1.31.38.3.88.52,1.5.65l.2-1.45c-.62-.16-1.05-.4-1.29-.73-.25-.33-.36-.84-.36-1.54,0-.75.17-1.31.5-1.69.25-.28.67-.42,1.27-.42.05,0,.18,0,.39,0,.2.57.37,1.45.51,2.64.07.59.14,1.03.22,1.32.11.39.27.75.48,1.06.22.31.5.57.85.76.35.2.74.29,1.17.29.73,0,1.33-.26,1.79-.77.47-.52.7-1.25.7-2.22,0-.58-.1-1.12-.29-1.63-.19-.51-.52-1.03-.98-1.58.41-.04.77-.14,1.08-.3M162.48,1224.37c.65,0,1.14.08,1.48.24.43.21.77.54,1.02.98.25.45.37.95.37,1.52s-.13,1.01-.39,1.31c-.26.3-.59.45-.99.45-.26,0-.49-.07-.7-.21-.21-.14-.37-.33-.48-.59-.11-.25-.21-.68-.3-1.29-.15-1.07-.34-1.88-.56-2.42h.54ZM154.28,1220.53h12.03v-1.48h-12.03v1.48ZM157.6,1216.26h1.68v-1.69h-1.68v1.69ZM164.63,1216.26h1.68v-1.69h-1.68v1.69ZM155.03,1200.95c-.53.61-.8,1.39-.8,2.33,0,1.28.46,2.29,1.38,3.04,1.06.86,2.75,1.29,5.07,1.29,2.08,0,3.57-.39,4.47-1.17.91-.78,1.36-1.78,1.36-3.02,0-.73-.17-1.37-.51-1.94-.35-.57-.84-1.02-1.49-1.35-.65-.32-1.35-.49-2.11-.49-1.15,0-2.08.35-2.81,1.04-.73.69-1.09,1.53-1.09,2.52,0,.56.13,1.11.39,1.62.26.52.66.95,1.21,1.31-1.21,0-2.13-.15-2.78-.42-.65-.27-1.14-.64-1.48-1.1-.26-.36-.39-.77-.39-1.25,0-.59.21-1.08.63-1.48.26-.24.69-.43,1.26-.56l-.11-1.47c-.93.12-1.67.49-2.2,1.09M160.53,1205.21c-.48-.47-.72-1.04-.72-1.71s.24-1.23.72-1.68c.48-.45,1.13-.66,1.97-.66s1.55.22,2.05.67.76.99.76,1.61c0,.43-.12.84-.36,1.23-.24.39-.6.69-1.06.91-.46.22-.95.33-1.46.33-.78,0-1.41-.23-1.88-.7M164.63,1197.26h1.68v-1.69h-1.68v1.69ZM166.31,1188.19c0-.77-.07-1.42-.2-1.95-.13-.53-.33-.97-.59-1.32s-.63-.64-1.12-.88c-.49-.24-1.01-.36-1.57-.36-.7,0-1.31.2-1.82.59-.51.39-.88.96-1.09,1.69-.28-.57-.64-.99-1.1-1.27-.45-.28-.94-.42-1.45-.42-.55,0-1.08.16-1.59.47-.51.31-.88.75-1.12,1.31-.24.56-.36,1.3-.36,2.22v4.53h12.03v-4.6ZM155.7,1191.19v-2.41c0-.86.06-1.48.17-1.83.11-.36.32-.63.62-.82.3-.19.66-.29,1.05-.29.42,0,.77.1,1.05.31.28.21.48.51.6.92.09.31.14.81.14,1.52v2.61h-3.64ZM160.75,1191.19v-2.79c0-.77.07-1.35.2-1.76.13-.41.36-.73.69-.96.33-.23.72-.35,1.17-.35.38,0,.72.08,1.01.24.29.16.52.36.67.61.15.25.26.56.33.92.04.21.06.57.06,1.09v3h-4.14ZM164.63,1181.17h1.68v-1.68h-1.68v1.68ZM155.86,1171.23c.85.75,1.9,1.46,3.15,2.13,1.25.66,2.54,1.18,3.88,1.53,1.34.36,2.48.54,3.43.56v-1.52c-1.2-.08-2.3-.27-3.31-.57-1.43-.41-2.82-.99-4.17-1.75-1.35-.76-2.43-1.52-3.25-2.29h-1.15v7.81h1.42v-5.91ZM164.63,1166.95h1.68v-1.69h-1.68v1.69ZM165.59,1161.82c.61-.69.92-1.59.92-2.68,0-1.34-.48-2.4-1.46-3.17-.79-.63-1.73-.95-2.82-.95s-2.08.36-2.8,1.08-1.09,1.61-1.09,2.67c0,.8.25,1.56.76,2.28l-3.23-.65v-4.82h-1.41v6l6.17,1.17.18-1.39c-.34-.22-.62-.52-.84-.9-.22-.38-.33-.82-.33-1.29,0-.77.24-1.39.73-1.86.49-.48,1.15-.71,1.99-.71.89,0,1.6.25,2.14.74.53.49.8,1.09.8,1.81,0,.59-.19,1.1-.57,1.52-.38.42-.95.69-1.7.8l.13,1.55c1.01-.1,1.82-.49,2.43-1.19"/>
    <line class="st3" x1="542.99" y1="993" x2="423.5" y2="941.36"/>
    <line class="st3" x1="542.99" y1="993" x2="542.99" y2="941.36"/>
  </g>
  <polygon class="st13" points="425.01 772.09 425.01 772.5 496.67 772.5 496.67 910.47 497.58 910.91 497.58 772.09 425.01 772.09"/>
  <polygon class="st13" points="425.01 772.5 425.01 875 440.93 882.88 480.74 902.58 496.67 910.47 496.67 772.5 425.01 772.5"/>
  <g class="st4">
    <path class="st13" d="M425,931.74v-56.74l15.93,7.88v28.26c0,1.81,1.47,3.28,3.29,3.28h33.25c1.81,0,3.27-1.47,3.27-3.28v-8.56l15.93,7.88v21.27h-71.66Z"/>
    <path class="st13" d="M440.93,911.14v-28.26l39.81,19.7v8.56c0,1.81-1.47,3.28-3.28,3.28h-33.24c-1.82,0-3.29-1.47-3.29-3.28"/>
  </g>
  <polyline class="st1" points="496.67 910.47 496.67 931.74 425 931.74 425 875"/>
  <polyline class="st1" points="480.74 902.58 496.66 910.46 497.58 910.91 497.58 772.09 425 772.09 425 772.5 425 875 440.93 882.88"/>
  <line class="st1" x1="477.46" y1="914.42" x2="444.22" y2="914.42"/>
  <g class="st7">
    <path class="st1" d="M444.22,914.42c-1.82,0-3.29-1.47-3.29-3.28"/>
    <path class="st1" d="M480.74,911.14c0,1.81-1.47,3.28-3.28,3.28"/>
  </g>
  <polyline class="st1" points="480.74 911.14 480.74 902.58 440.93 882.88 440.93 911.14"/>
  <g class="st5">
    <path class="st13" d="M530.8,999.4c0,7.71,0,15.41-.02,23.11,0,8.9-6.4,16.1-14.31,16.09-7.9,0-14.28-7.21-14.28-16.11,0-7.7,0-15.4.02-23.11,9.52,0,19.06,0,28.59.02"/>
  </g>
  <g class="st6">
    <path class="st3" d="M530.8,999.4c0,7.71,0,15.41-.02,23.11,0,8.9-6.4,16.1-14.31,16.09-7.9,0-14.28-7.21-14.28-16.11,0-7.7,0-15.4.02-23.11,9.52,0,19.06,0,28.59.02Z"/>
  </g>
  <rect class="st13" x="431.6" y="999.41" width="63.89" height="63.21"/>
  <polyline class="st3" points="495.49 999.41 495.49 1062.62 487.92 1062.62"/>
  <line class="st3" x1="495.49" y1="999.41" x2="432.1" y2="999.41"/>
  <line class="st3" x1="431.61" y1="1000.46" x2="431.61" y2="1062.07"/>
  <polyline class="st3" points="431.61 1000.46 431.61 999.41 432.11 999.41"/>
  <polyline class="st3" points="432.54 1062.62 431.61 1062.62 431.61 1062.07"/>
  <line class="st3" x1="432.54" y1="1062.62" x2="487.92" y2="1062.62"/>
  <line class="st3" x1="463.8" y1="999.41" x2="463.8" y2="1016.97"/>
  <g class="st12">
    <circle class="st3" cx="463.72" cy="1016.89" r="3.93"/>
    <circle class="st3" cx="463.72" cy="1016.89" r="3.93"/>
  </g>
  <g class="st9">
    <path class="st13" d="M456.73,1119.44h-15.5c-.58,0-1.06-.35-1.06-.78v-34.13c0-.44.48-.79,1.06-.79h15.5c.59,0,1.06.35,1.06.79v34.13c0,.43-.47.78-1.06.78M449.26,1104.4c1.55,0,2.8-1.25,2.8-2.8s-1.25-2.81-2.8-2.81-2.81,1.26-2.81,2.81,1.26,2.8,2.81,2.8"/>
    <path class="st13" d="M437.56,1101.6c0,1.16-.94,2.1-2.11,2.1s-2.1-.95-2.1-2.1.94-2.11,2.1-2.11,2.11.94,2.11,2.11"/>
    <path class="st13" d="M449.26,1103.1c-.83,0-1.51-.67-1.51-1.5s.68-1.51,1.51-1.51,1.5.67,1.5,1.51-.67,1.5-1.5,1.5"/>
    <path class="st13" d="M449.27,1100.09c-.83,0-1.51.67-1.51,1.51s.68,1.5,1.51,1.5,1.5-.67,1.5-1.5-.67-1.51-1.5-1.51M446.46,1101.6c0-1.55,1.26-2.81,2.81-2.81s2.8,1.26,2.8,2.81-1.25,2.8-2.8,2.8-2.81-1.25-2.81-2.8"/>
    <path class="st13" d="M433.35,1101.6c0,1.15.95,2.1,2.1,2.1s2.11-.95,2.11-2.1-.95-2.11-2.11-2.11-2.1.94-2.1,2.11M456.74,1083.74h-15.51c-.58,0-1.06.35-1.06.79v34.13c0,.43.48.78,1.06.78h15.51c.59,0,1.06-.35,1.06-.78v-34.13c0-.44-.47-.79-1.06-.79M458.86,1083.74v35.7c0,.34-.47.63-1.06.63h-26.45v-37.12h26.45c.59,0,1.06.35,1.06.78"/>
  </g>
  <g class="st8">
    <path class="st3" d="M435.45,1099.49c1.17,0,2.11.95,2.11,2.11s-.94,2.1-2.11,2.1-2.1-.94-2.1-2.1.95-2.11,2.1-2.11Z"/>
    <path class="st3" d="M449.26,1098.79c1.55,0,2.8,1.26,2.8,2.81s-1.25,2.8-2.8,2.8-2.81-1.25-2.81-2.8,1.26-2.81,2.81-2.81Z"/>
    <path class="st3" d="M449.26,1100.09c.83,0,1.5.67,1.5,1.51s-.67,1.5-1.5,1.5-1.51-.67-1.51-1.5.68-1.51,1.51-1.51Z"/>
    <path class="st3" d="M441.23,1119.44h15.51c.59,0,1.06-.35,1.06-.78v-34.13c0-.44-.47-.79-1.06-.79h-15.51c-.58,0-1.06.35-1.06.79v34.13c0,.43.48.78,1.06.78Z"/>
  </g>
  <line class="st3" x1="439.53" y1="1082.96" x2="431.35" y2="1082.96"/>
  <g class="st11">
    <path class="st3" d="M431.35,1120.07h26.45c.59,0,1.06-.29,1.06-.63v-35.7c0-.43-.47-.78-1.06-.78h-8.38"/>
  </g>
  <line class="st3" x1="439.53" y1="1082.96" x2="449.42" y2="1082.96"/>
  <line class="st3" x1="431.35" y1="1082.96" x2="431.35" y2="1120.07"/>
  <polygon class="st13" points="655.73 765.17 647.63 766.52 640.2 770.23 640.2 770.57 640.54 770.57 641.21 770.57 641.55 770.57 641.89 770.57 642.23 770.57 643.91 769.56 645.6 768.88 646.95 769.22 647.96 770.23 647.96 770.91 647.63 771.24 642.23 775.97 638.51 782.04 672.94 782.04 669.23 775.97 663.83 771.24 663.15 770.91 663.49 770.23 664.5 769.22 665.85 768.88 667.54 769.56 669.23 770.57 669.57 770.57 669.9 770.57 670.24 770.57 670.92 770.57 671.25 770.23 663.83 766.52 655.73 765.17"/>
  <polygon class="st13" points="703.66 765.17 695.22 766.52 688.13 770.23 688.13 770.57 688.47 770.57 688.8 770.57 689.48 770.57 689.82 770.57 690.15 770.57 691.84 769.56 693.53 768.88 694.88 769.22 695.89 770.23 695.89 770.91 695.55 771.24 689.82 775.97 686.44 782.04 720.87 782.04 717.15 775.97 711.42 771.24 711.08 770.91 711.08 770.23 712.09 769.22 713.78 768.88 715.47 769.56 716.82 770.57 717.15 770.57 717.83 770.57 718.17 770.57 718.5 770.57 718.84 770.57 719.18 770.23 711.75 766.52 703.66 765.17"/>
  <polygon class="st13" points="720.87 782.04 686.44 782.04 672.94 782.04 638.51 782.04 631.76 782.04 631.76 845.84 638.51 845.84 672.94 845.84 686.44 845.84 720.87 845.84 727.28 845.84 727.28 782.04 720.87 782.04"/>
  <polygon class="st13" points="638.51 845.84 642.23 851.91 647.63 856.64 647.96 856.98 647.96 857.65 646.95 858.66 645.6 859 643.91 858.33 642.23 857.31 641.89 857.31 641.55 857.31 641.21 857.31 640.54 857.31 640.2 857.31 640.2 857.65 647.63 861.36 655.73 862.71 663.83 861.36 671.25 857.65 670.92 857.31 670.24 857.31 669.9 857.31 669.57 857.31 669.23 857.31 667.54 858.33 665.85 859 664.5 858.66 663.49 857.65 663.15 856.98 663.83 856.64 669.23 851.91 672.94 845.84 638.51 845.84"/>
  <polygon class="st13" points="686.44 845.84 689.82 851.91 695.55 856.64 695.89 856.98 695.89 857.65 694.88 858.66 693.53 859 691.84 858.33 690.15 857.31 689.82 857.31 689.48 857.31 688.8 857.31 688.47 857.31 688.13 857.31 688.13 857.65 695.22 861.36 703.65 862.71 711.76 861.36 719.18 857.65 718.84 857.31 718.5 857.31 718.17 857.31 717.83 857.31 717.15 857.31 716.82 857.31 715.47 858.33 713.78 859 712.09 858.66 711.08 857.65 711.08 856.98 711.42 856.64 717.15 851.91 720.87 845.84 686.44 845.84"/>
  <line class="st3" x1="642.23" y1="857.31" x2="641.89" y2="857.31"/>
  <line class="st3" x1="641.89" y1="857.31" x2="641.55" y2="857.31"/>
  <line class="st3" x1="640.54" y1="857.31" x2="641.21" y2="857.31"/>
  <line class="st3" x1="641.21" y1="857.31" x2="641.55" y2="857.31"/>
  <line class="st3" x1="640.2" y1="857.65" x2="640.2" y2="857.31"/>
  <line class="st3" x1="640.2" y1="857.31" x2="640.54" y2="857.31"/>
  <line class="st3" x1="647.96" y1="857.65" x2="646.95" y2="858.66"/>
  <line class="st3" x1="646.95" y1="858.66" x2="645.6" y2="859"/>
  <line class="st3" x1="645.6" y1="859" x2="643.91" y2="858.33"/>
  <line class="st3" x1="643.91" y1="858.33" x2="642.23" y2="857.31"/>
  <line class="st3" x1="647.63" y1="856.64" x2="647.96" y2="856.97"/>
  <line class="st3" x1="647.96" y1="856.98" x2="647.96" y2="857.65"/>
  <line class="st3" x1="647.63" y1="856.64" x2="642.23" y2="851.91"/>
  <line class="st3" x1="642.23" y1="851.91" x2="638.51" y2="845.84"/>
  <line class="st3" x1="669.23" y1="857.31" x2="669.56" y2="857.31"/>
  <line class="st3" x1="669.56" y1="857.31" x2="669.9" y2="857.31"/>
  <line class="st3" x1="670.91" y1="857.31" x2="670.24" y2="857.31"/>
  <line class="st3" x1="670.24" y1="857.31" x2="669.9" y2="857.31"/>
  <line class="st3" x1="671.25" y1="857.65" x2="670.92" y2="857.31"/>
  <line class="st3" x1="663.49" y1="857.65" x2="664.5" y2="858.66"/>
  <line class="st3" x1="664.5" y1="858.66" x2="665.85" y2="859"/>
  <line class="st3" x1="665.85" y1="859" x2="667.54" y2="858.33"/>
  <line class="st3" x1="667.54" y1="858.33" x2="669.23" y2="857.31"/>
  <line class="st3" x1="663.83" y1="856.64" x2="663.15" y2="856.97"/>
  <line class="st3" x1="663.15" y1="856.98" x2="663.49" y2="857.65"/>
  <line class="st3" x1="663.83" y1="856.64" x2="669.23" y2="851.91"/>
  <line class="st3" x1="669.23" y1="851.91" x2="672.94" y2="845.84"/>
  <line class="st3" x1="640.2" y1="857.65" x2="647.62" y2="861.36"/>
  <line class="st3" x1="647.63" y1="861.36" x2="655.73" y2="862.71"/>
  <line class="st3" x1="655.73" y1="862.71" x2="663.83" y2="861.36"/>
  <line class="st3" x1="663.83" y1="861.36" x2="671.25" y2="857.65"/>
  <line class="st3" x1="642.23" y1="770.57" x2="641.89" y2="770.57"/>
  <line class="st3" x1="641.89" y1="770.57" x2="641.55" y2="770.57"/>
  <line class="st3" x1="640.54" y1="770.57" x2="641.21" y2="770.57"/>
  <line class="st3" x1="641.21" y1="770.57" x2="641.55" y2="770.57"/>
  <line class="st3" x1="640.2" y1="770.23" x2="640.2" y2="770.57"/>
  <line class="st3" x1="640.2" y1="770.57" x2="640.54" y2="770.57"/>
  <line class="st3" x1="647.96" y1="770.23" x2="646.95" y2="769.22"/>
  <line class="st3" x1="646.95" y1="769.22" x2="645.6" y2="768.88"/>
  <line class="st3" x1="645.6" y1="768.88" x2="643.91" y2="769.55"/>
  <line class="st3" x1="643.91" y1="769.56" x2="642.23" y2="770.57"/>
  <line class="st3" x1="647.63" y1="771.24" x2="647.96" y2="770.91"/>
  <line class="st3" x1="647.96" y1="770.91" x2="647.96" y2="770.23"/>
  <line class="st3" x1="647.63" y1="771.24" x2="642.23" y2="775.97"/>
  <line class="st3" x1="642.23" y1="775.97" x2="638.51" y2="782.04"/>
  <line class="st3" x1="669.23" y1="770.57" x2="669.56" y2="770.57"/>
  <line class="st3" x1="669.56" y1="770.57" x2="669.9" y2="770.57"/>
  <line class="st3" x1="670.91" y1="770.57" x2="670.24" y2="770.57"/>
  <line class="st3" x1="670.24" y1="770.57" x2="669.9" y2="770.57"/>
  <line class="st3" x1="671.25" y1="770.23" x2="670.92" y2="770.57"/>
  <line class="st3" x1="663.49" y1="770.23" x2="664.5" y2="769.22"/>
  <line class="st3" x1="664.5" y1="769.22" x2="665.85" y2="768.88"/>
  <line class="st3" x1="665.85" y1="768.88" x2="667.54" y2="769.55"/>
  <line class="st3" x1="667.54" y1="769.56" x2="669.23" y2="770.57"/>
  <line class="st3" x1="663.83" y1="771.24" x2="663.15" y2="770.91"/>
  <line class="st3" x1="663.15" y1="770.91" x2="663.49" y2="770.23"/>
  <line class="st3" x1="663.83" y1="771.24" x2="669.23" y2="775.97"/>
  <line class="st3" x1="669.23" y1="775.97" x2="672.94" y2="782.04"/>
  <line class="st3" x1="640.2" y1="770.23" x2="647.62" y2="766.52"/>
  <line class="st3" x1="647.63" y1="766.52" x2="655.73" y2="765.17"/>
  <line class="st3" x1="655.73" y1="765.17" x2="663.83" y2="766.52"/>
  <line class="st3" x1="663.83" y1="766.52" x2="671.25" y2="770.23"/>
  <line class="st3" x1="631.76" y1="782.04" x2="631.76" y2="845.84"/>
  <line class="st3" x1="716.82" y1="857.31" x2="717.15" y2="857.31"/>
  <line class="st3" x1="717.16" y1="857.31" x2="717.83" y2="857.31"/>
  <line class="st3" x1="718.51" y1="857.31" x2="718.17" y2="857.31"/>
  <line class="st3" x1="718.17" y1="857.31" x2="717.83" y2="857.31"/>
  <line class="st3" x1="719.18" y1="857.65" x2="718.84" y2="857.31"/>
  <line class="st3" x1="718.84" y1="857.31" x2="718.51" y2="857.31"/>
  <line class="st3" x1="711.08" y1="857.65" x2="712.09" y2="858.66"/>
  <line class="st3" x1="712.09" y1="858.66" x2="713.78" y2="859"/>
  <line class="st3" x1="713.78" y1="859" x2="715.47" y2="858.33"/>
  <line class="st3" x1="715.47" y1="858.33" x2="716.82" y2="857.31"/>
  <line class="st3" x1="711.42" y1="856.64" x2="711.08" y2="856.97"/>
  <line class="st3" x1="711.08" y1="856.98" x2="711.08" y2="857.65"/>
  <line class="st3" x1="711.42" y1="856.64" x2="717.16" y2="851.91"/>
  <line class="st3" x1="717.16" y1="851.91" x2="720.87" y2="845.84"/>
  <line class="st3" x1="690.15" y1="857.31" x2="689.82" y2="857.31"/>
  <line class="st3" x1="689.82" y1="857.31" x2="689.48" y2="857.31"/>
  <line class="st3" x1="688.47" y1="857.31" x2="688.8" y2="857.31"/>
  <line class="st3" x1="688.8" y1="857.31" x2="689.48" y2="857.31"/>
  <line class="st3" x1="688.13" y1="857.65" x2="688.13" y2="857.31"/>
  <line class="st3" x1="688.13" y1="857.31" x2="688.47" y2="857.31"/>
  <line class="st3" x1="695.89" y1="857.65" x2="694.88" y2="858.66"/>
  <line class="st3" x1="694.88" y1="858.66" x2="693.53" y2="859"/>
  <line class="st3" x1="693.53" y1="859" x2="691.84" y2="858.33"/>
  <line class="st3" x1="691.84" y1="858.33" x2="690.15" y2="857.31"/>
  <line class="st3" x1="695.56" y1="856.64" x2="695.89" y2="856.97"/>
  <line class="st3" x1="695.89" y1="856.98" x2="695.89" y2="857.65"/>
  <line class="st3" x1="695.56" y1="856.64" x2="689.82" y2="851.91"/>
  <line class="st3" x1="689.82" y1="851.91" x2="686.44" y2="845.84"/>
  <line class="st3" x1="719.18" y1="857.65" x2="711.76" y2="861.36"/>
  <line class="st3" x1="711.76" y1="861.36" x2="703.66" y2="862.71"/>
  <line class="st3" x1="703.66" y1="862.71" x2="695.22" y2="861.36"/>
  <line class="st3" x1="695.22" y1="861.36" x2="688.13" y2="857.65"/>
  <line class="st3" x1="716.82" y1="770.57" x2="717.15" y2="770.57"/>
  <line class="st3" x1="717.16" y1="770.57" x2="717.83" y2="770.57"/>
  <line class="st3" x1="718.51" y1="770.57" x2="718.17" y2="770.57"/>
  <line class="st3" x1="718.17" y1="770.57" x2="717.83" y2="770.57"/>
  <line class="st3" x1="719.18" y1="770.23" x2="718.84" y2="770.57"/>
  <line class="st3" x1="718.84" y1="770.57" x2="718.51" y2="770.57"/>
  <line class="st3" x1="711.08" y1="770.23" x2="712.09" y2="769.22"/>
  <line class="st3" x1="712.09" y1="769.22" x2="713.78" y2="768.88"/>
  <line class="st3" x1="713.78" y1="768.88" x2="715.47" y2="769.55"/>
  <line class="st3" x1="715.47" y1="769.56" x2="716.82" y2="770.57"/>
  <line class="st3" x1="711.42" y1="771.24" x2="711.08" y2="770.91"/>
  <line class="st3" x1="711.08" y1="770.91" x2="711.08" y2="770.23"/>
  <line class="st3" x1="711.42" y1="771.24" x2="717.16" y2="775.97"/>
  <line class="st3" x1="717.16" y1="775.97" x2="720.87" y2="782.04"/>
  <line class="st3" x1="690.15" y1="770.57" x2="689.82" y2="770.57"/>
  <line class="st3" x1="689.82" y1="770.57" x2="689.48" y2="770.57"/>
  <line class="st3" x1="688.47" y1="770.57" x2="688.8" y2="770.57"/>
  <line class="st3" x1="688.8" y1="770.57" x2="689.48" y2="770.57"/>
  <line class="st3" x1="688.13" y1="770.23" x2="688.13" y2="770.57"/>
  <line class="st3" x1="688.13" y1="770.57" x2="688.47" y2="770.57"/>
  <line class="st3" x1="695.89" y1="770.23" x2="694.88" y2="769.22"/>
  <line class="st3" x1="694.88" y1="769.22" x2="693.53" y2="768.88"/>
  <line class="st3" x1="693.53" y1="768.88" x2="691.84" y2="769.55"/>
  <line class="st3" x1="691.84" y1="769.56" x2="690.15" y2="770.57"/>
  <line class="st3" x1="695.56" y1="771.24" x2="695.89" y2="770.91"/>
  <line class="st3" x1="695.89" y1="770.91" x2="695.89" y2="770.23"/>
  <line class="st3" x1="695.56" y1="771.24" x2="689.82" y2="775.97"/>
  <line class="st3" x1="689.82" y1="775.97" x2="686.44" y2="782.04"/>
  <line class="st3" x1="719.18" y1="770.23" x2="711.76" y2="766.52"/>
  <line class="st3" x1="711.76" y1="766.52" x2="703.66" y2="765.17"/>
  <line class="st3" x1="703.66" y1="765.17" x2="695.22" y2="766.52"/>
  <line class="st3" x1="695.22" y1="766.52" x2="688.13" y2="770.23"/>
  <line class="st3" x1="727.28" y1="782.04" x2="727.28" y2="845.84"/>
  <polyline class="st3" points="727.28 845.84 720.87 845.84 686.44 845.84 672.94 845.84 638.51 845.84 631.76 845.84"/>
  <polyline class="st3" points="631.76 782.04 638.51 782.04 672.94 782.04 686.44 782.04 720.87 782.04 727.28 782.04"/>
  <line class="st3" x1="709.45" y1="1040.21" x2="720.13" y2="1040.21"/>
  <rect class="st3" x="679.43" y="1016.24" width="47.78" height="117.89"/>
  <line class="st3" x1="712.2" y1="1096.31" x2="712.2" y2="1106.74"/>
  <line class="st3" x1="692.59" y1="1096.31" x2="692.59" y2="1106.74"/>
  <line class="st3" x1="697.73" y1="1101.46" x2="687.3" y2="1101.46"/>
  <line class="st3" x1="717.49" y1="1101.46" x2="707.06" y2="1101.46"/>
  <rect class="st3" x="682.71" y="1090.33" width="39.36" height="22.95"/>
  <rect class="st3" x="689.8" y="1026.87" width="26.54" height="26.54"/>
  <rect class="st3" x="683.2" y="1020.26" width="39.75" height="39.89"/>
  <g class="st10">
    <path class="st13" d="M526.79,885.32c11.74,0,21.27,9.52,21.27,21.27s-9.52,21.27-21.27,21.27-21.27-9.52-21.27-21.27,9.52-21.27,21.27-21.27"/>
    <circle class="st1" cx="526.79" cy="906.59" r="21.27"/>
  </g>
</svg>