<?xml version="1.0" encoding="UTF-8"?>
<svg id="Livello_3" xmlns="http://www.w3.org/2000/svg" xmlns:xlink="http://www.w3.org/1999/xlink" version="1.1" viewBox="0 0 2400 1700">
  <!-- Generator: Adobe Illustrator 29.7.1, SVG Export Plug-In . SVG Version: 2.1.1 Build 8)  -->
  <defs>
    <style>
      .st0, .st1, .st2, .st3 {
        fill: none;
      }

      .st4, .st5 {
        fill: #302c35;
      }

      .st6 {
        fill: #423941;
      }

      .st7 {
        fill: #5dcd90;
        opacity: 0;
      }

      .st8, .st9, .st10 {
        isolation: isolate;
      }

      .st1, .st2, .st3, .st11 {
        stroke-width: .2px;
      }

      .st1, .st2, .st11 {
        stroke-linecap: round;
        stroke-linejoin: round;
      }

      .st1, .st3, .st11 {
        stroke: #000;
      }

      .st12 {
        clip-path: url(#clippath-17);
      }

      .st13 {
        clip-path: url(#clippath-19);
      }

      .st14 {
        clip-path: url(#clippath-11);
      }

      .st15 {
        clip-path: url(#clippath-16);
      }

      .st16 {
        clip-path: url(#clippath-18);
      }

      .st17 {
        clip-path: url(#clippath-10);
      }

      .st18 {
        clip-path: url(#clippath-15);
      }

      .st19 {
        clip-path: url(#clippath-13);
      }

      .st20 {
        clip-path: url(#clippath-14);
      }

      .st21 {
        clip-path: url(#clippath-12);
      }

      .st22 {
        clip-path: url(#clippath-27);
      }

      .st23 {
        clip-path: url(#clippath-26);
      }

      .st24 {
        clip-path: url(#clippath-28);
      }

      .st25 {
        clip-path: url(#clippath-20);
      }

      .st26 {
        clip-path: url(#clippath-21);
      }

      .st27 {
        clip-path: url(#clippath-22);
      }

      .st28 {
        clip-path: url(#clippath-23);
      }

      .st29 {
        clip-path: url(#clippath-24);
      }

      .st30 {
        clip-path: url(#clippath-25);
      }

      .st31 {
        clip-path: url(#clippath-1);
      }

      .st32 {
        clip-path: url(#clippath-3);
      }

      .st33 {
        clip-path: url(#clippath-4);
      }

      .st34 {
        clip-path: url(#clippath-2);
      }

      .st35 {
        clip-path: url(#clippath-7);
      }

      .st36 {
        clip-path: url(#clippath-6);
      }

      .st37 {
        clip-path: url(#clippath-9);
      }

      .st38 {
        clip-path: url(#clippath-8);
      }

      .st39 {
        clip-path: url(#clippath-5);
      }

      .st40, .st11 {
        fill: #fff;
      }

      .st2 {
        stroke: #00001d;
      }

      .st9 {
        font-size: 15px;
      }

      .st9, .st10 {
        fill: #231f20;
        font-family: CanelaText-Regular, 'Canela Text';
      }

      .st41 {
        fill: #ece9e5;
      }

      .st3 {
        stroke-miterlimit: 10;
      }

      .st10 {
        font-size: 43px;
      }

      .st5 {
        fill-rule: evenodd;
      }

      .st42 {
        clip-path: url(#clippath);
      }
    </style>
    <clipPath id="clippath">
      <polygon class="st0" points="1272.6 1054 1272.6 1103.8 1383.6 1103.8 1383.6 1054 1381.8 1054 1381.8 1102 1274.4 1102 1274.4 1054 1272.6 1054"/>
    </clipPath>
    <clipPath id="clippath-1">
      <path class="st0" d="M1222.8,614.8v77.4h7.2v-77.4h-7.2ZM1222.8,725.2v74.4h7.2v-74.4h-7.2ZM1222.8,832.6v67.8h7.2v-67.8h-7.2Z"/>
    </clipPath>
    <clipPath id="clippath-2">
      <path class="st0" d="M1166.4,614.8v112.8h7.2v-112.8h-7.2ZM1166.4,760v70.8h7.2v-70.8h-7.2ZM1166.4,863.2v90.6h7.2v-90.6h-7.2ZM1166.4,986.2v47.4h7.2v-47.4h-7.2Z"/>
    </clipPath>
    <clipPath id="clippath-3">
      <path class="st0" d="M973.2,607v7.8h204.6v-7.8h-204.6ZM1216.2,607v7.8h114.6v-7.8h-114.6ZM1403.4,607v7.8h19.8v-7.8h-19.8Z"/>
    </clipPath>
    <clipPath id="clippath-4">
      <path class="st0" d="M1416.6,614.8v20.4h6.6v-20.4h-6.6ZM1416.6,722.8v55.2h6.6v-55.2h-6.6ZM1416.6,865.6v54.6h6.6v-54.6h-6.6ZM1416.6,1007.8v32.4h6.6v-32.4h-6.6Z"/>
    </clipPath>
    <clipPath id="clippath-5">
      <path class="st0" d="M959.4,593.2v13.8h182.4v-13.8h-178.2l-.6,4.2v-4.2h-3.6ZM1216.2,593.2v13.8h53.4v-13.8h-53.4Z"/>
    </clipPath>
    <clipPath id="clippath-6">
      <polygon class="st0" points="1437 623.8 1437 625.6 1485 625.6 1485 733 1437 733 1437 734.8 1486.8 734.8 1486.8 623.8 1437 623.8"/>
    </clipPath>
    <clipPath id="clippath-7">
      <polygon class="st0" points="1437 766 1437 767.8 1474.2 767.8 1474.2 875.2 1437 875.2 1437 877 1476 877 1476 766 1437 766"/>
    </clipPath>
    <clipPath id="clippath-8">
      <path class="st0" d="M959.4,607v183.6h13.8v-183.6h-13.8ZM959.4,863.2v123h13.8v-123h-13.8ZM959.4,1022.8v17.4h13.8v-17.4h-13.8Z"/>
    </clipPath>
    <clipPath id="clippath-9">
      <path class="st0" d="M1222.8,900.4v60h7.2v-60h-7.2ZM1222.8,992.8v40.8h7.2v-40.8h-7.2Z"/>
    </clipPath>
    <clipPath id="clippath-10">
      <path class="st0" d="M996.6,1094.8v12h29.4v-12h-29.4ZM1113.6,1094.8v12h31.8v-12h-31.8Z"/>
    </clipPath>
    <clipPath id="clippath-11">
      <polygon class="st0" points="913.2 620.8 913.2 875.8 959.4 875.8 959.4 874 915 874 915 622.6 959.4 622.6 959.4 620.8 913.2 620.8"/>
    </clipPath>
    <clipPath id="clippath-12">
      <path class="st0" d="M973.2,614.8v175.8h6.6v-175.8h-6.6ZM973.2,863.2v123h6.6v-123h-6.6ZM973.2,1022.8v17.4h6.6v-17.4h-6.6Z"/>
    </clipPath>
    <clipPath id="clippath-13">
      <path class="st0" d="M979.8,1033.6v6.6h28.8v-6.6h-28.8ZM1111.2,1033.6v6.6h70.2v-6.6h-70.2ZM1218,1033.6v6.6h67.2v-6.6h-67.2ZM1372.8,1033.6v6.6h43.8v-6.6h-43.8Z"/>
    </clipPath>
    <clipPath id="clippath-14">
      <polygon class="st0" points="913.2 935.8 913.2 1028.8 959.4 1028.8 959.4 1027 915 1027 915 937.6 959.4 937.6 959.4 935.8 913.2 935.8"/>
    </clipPath>
    <clipPath id="clippath-15">
      <path class="st0" d="M1269.6,593.2v13.8h25.2v-13.8h-25.2ZM1403.4,593.2v13.8h19.8v-13.8h-19.8Z"/>
    </clipPath>
    <clipPath id="clippath-16">
      <path class="st0" d="M1014,614.8v44.4h7.2v-44.4h-7.2ZM1014,699.4v64.2h7.2v-64.2h-7.2Z"/>
    </clipPath>
    <clipPath id="clippath-17">
      <path class="st0" d="M1014,659.2v3.6h7.2v-3.6h-7.2ZM1014,695.8v3.6h7.2v-3.6h-7.2Z"/>
    </clipPath>
    <clipPath id="clippath-18">
      <path class="st0" d="M1315.8,900.4v3.6h3.6v-3.6h-3.6ZM1315.8,925v28.8h3.6v-28.8h-3.6Z"/>
    </clipPath>
    <clipPath id="clippath-19">
      <path class="st0" d="M1083.6,947.8v2.4h3.6v-2.4h-3.6ZM1119.6,947.8v2.4h24v-2.4h-24Z"/>
    </clipPath>
    <clipPath id="clippath-20">
      <path class="st0" d="M1103.4,824.8v2.4h24v-2.4h-24ZM1159.8,824.8v2.4h3.6v-2.4h-3.6Z"/>
    </clipPath>
    <clipPath id="clippath-21">
      <path class="st0" d="M1072.8,770.8v3.6h3v-3.6h-3ZM1072.8,795.4v28.2h3v-28.2h-3Z"/>
    </clipPath>
    <clipPath id="clippath-22">
      <path class="st0" d="M1233,836.2v1.8h3.6v-1.8h-3.6ZM1269,836.2v1.8h24v-1.8h-24Z"/>
    </clipPath>
    <clipPath id="clippath-23">
      <path class="st0" d="M1233,669.4v1.8h3.6v-1.8h-3.6ZM1269,669.4v1.8h24v-1.8h-24Z"/>
    </clipPath>
    <clipPath id="clippath-24">
      <path class="st0" d="M1315.8,839.8v28.2h3.6v-28.2h-3.6ZM1315.8,889v3.6h3.6v-3.6h-3.6Z"/>
    </clipPath>
    <clipPath id="clippath-25">
      <path class="st0" d="M1315.8,614.8v3.6h3.6v-3.6h-3.6ZM1315.8,639.4v28.8h3.6v-28.8h-3.6Z"/>
    </clipPath>
    <clipPath id="clippath-26">
      <path class="st0" d="M1233,955v1.8h3.6v-1.8h-3.6ZM1269,955v1.8h24v-1.8h-24Z"/>
    </clipPath>
    <clipPath id="clippath-27">
      <path class="st0" d="M959.4,1040.2v13.8h37.2v-13.8h-37.2ZM1145.4,1040.2v13.8h36v-13.8h-36ZM1218,1040.2v13.8h67.2v-13.8h-67.2ZM1372.8,1040.2v13.8h64.2v-13.8h-64.2Z"/>
    </clipPath>
    <clipPath id="clippath-28">
      <path class="st0" d="M1423.2,593.2v42h13.8v-42h-13.8ZM1423.2,722.8v55.2h13.8v-55.2h-13.8ZM1423.2,865.6v54.6h13.8v-54.6h-13.8ZM1423.2,1007.8v32.4h13.8v-32.4h-13.8Z"/>
    </clipPath>
  </defs>
  <rect class="st41" x="915.1" y="622.2" width="44.2" height="253.1"/>
  <rect class="st41" x="915.1" y="937.5" width="44.2" height="89.8"/>
  <rect class="st41" x="1273.9" y="1054" width="108.3" height="48.7"/>
  <rect class="st41" x="1437" y="767" width="38.2" height="108.3"/>
  <rect class="st41" x="1437" y="624.8" width="48.9" height="108.3"/>
  <g>
    <rect class="st41" x="1230.2" y="601" width="200" height="152"/>
    <rect class="st41" x="966.6" y="769.8" width="200" height="278.2"/>
    <rect class="st41" x="1229.6" y="754.8" width="200" height="142"/>
    <rect class="st41" x="1229.9" y="899.8" width="200.1" height="147.2"/>
    <rect class="st41" x="1004" y="953.4" width="134.2" height="147.2"/>
    <g class="st42">
      <rect class="st4" x="1272.6" y="1054" width="111" height="49.8"/>
    </g>
    <g class="st31">
      <rect class="st4" x="1222.8" y="614.8" width="7.2" height="285.6"/>
    </g>
    <g>
      <path class="st5" d="M1166.4,614.8v112.8h7.2v-112.8h-7.2ZM1166.4,760v70.8h7.2v-70.8h-7.2ZM1166.4,863.2v90.6h7.2v-90.6h-7.2ZM1166.4,986.2v47.4h7.2v-47.4h-7.2Z"/>
      <g class="st34">
        <rect class="st4" x="1166.4" y="614.8" width="7.2" height="418.8"/>
      </g>
    </g>
    <g>
      <path class="st5" d="M973.2,607v7.8h204.6v-7.8h-204.6ZM1216.2,607v7.8h114.6v-7.8h-114.6ZM1403.4,607v7.8h19.8v-7.8h-19.8Z"/>
      <g class="st32">
        <rect class="st4" x="973.2" y="607" width="450" height="7.8"/>
      </g>
    </g>
    <rect class="st4" x="979.8" y="763.6" width="186.6" height="7.2"/>
    <g class="st33">
      <rect class="st4" x="1416.6" y="614.8" width="6.6" height="425.4"/>
    </g>
    <g>
      <path class="st5" d="M959.4,593.2v13.8h182.4v-13.8h-178.2l-.6,4.2v-4.2h-3.6ZM1216.2,593.2v13.8h53.4v-13.8h-53.4Z"/>
      <g class="st39">
        <rect class="st4" x="959.4" y="593.2" width="310.2" height="13.8"/>
      </g>
    </g>
    <g class="st36">
      <rect class="st4" x="1437" y="623.8" width="49.8" height="111"/>
    </g>
    <g class="st35">
      <rect class="st4" x="1437" y="766" width="39" height="111"/>
    </g>
    <g>
      <path class="st5" d="M959.4,607v183.6h13.8v-183.6h-13.8ZM959.4,863.2v123h13.8v-123h-13.8ZM959.4,1022.8v17.4h13.8v-17.4h-13.8Z"/>
      <g class="st38">
        <rect class="st4" x="959.4" y="607" width="13.8" height="433.2"/>
      </g>
    </g>
    <rect class="st4" x="1230" y="749.8" width="186.6" height="7.8"/>
    <rect class="st4" x="1230" y="892.6" width="186.6" height="7.8"/>
    <rect class="st4" x="1143.6" y="946.6" width="22.8" height="3.6"/>
    <g class="st37">
      <rect class="st4" x="1222.8" y="900.4" width="7.2" height="133.2"/>
    </g>
    <rect x="1137" y="832.6" width="29.4" height="1.2"/>
    <rect x="1230" y="961.6" width="29.4" height="1.2"/>
    <g class="st17">
      <rect class="st4" x="996.6" y="1094.8" width="148.8" height="12"/>
    </g>
    <g class="st14">
      <rect class="st4" x="913.2" y="620.8" width="46.2" height="255"/>
    </g>
    <g>
      <path class="st5" d="M973.2,614.8v175.8h6.6v-175.8h-6.6ZM973.2,863.2v123h6.6v-123h-6.6ZM973.2,1022.8v17.4h6.6v-17.4h-6.6Z"/>
      <g class="st21">
        <rect class="st4" x="973.2" y="614.8" width="6.6" height="425.4"/>
      </g>
    </g>
    <g class="st19">
      <rect class="st4" x="979.8" y="1033.6" width="436.8" height="6.6"/>
    </g>
    <rect x="1230" y="829.6" width="29.4" height="1.2"/>
    <g class="st20">
      <rect class="st4" x="913.2" y="935.8" width="46.2" height="93"/>
    </g>
    <g class="st18">
      <rect class="st4" x="1269.6" y="593.2" width="153.6" height="13.8"/>
    </g>
    <rect class="st4" x="1021.2" y="699.4" width="68.4" height="6.6"/>
    <rect class="st4" x="1082.4" y="750.4" width="7.2" height="13.2"/>
    <g>
      <path class="st5" d="M1014,614.8v44.4h7.2v-44.4h-7.2ZM1014,699.4v64.2h7.2v-64.2h-7.2Z"/>
      <g class="st15">
        <rect class="st4" x="1014" y="614.8" width="7.2" height="148.8"/>
      </g>
    </g>
    <g class="st12">
      <rect class="st4" x="1014" y="659.2" width="7.2" height="40.2"/>
    </g>
    <rect x="1137" y="757" width="29.4" height="1.8"/>
    <rect x="1230" y="722.2" width="29.4" height="1.2"/>
    <rect class="st4" x="1141.8" y="598" width="36" height="9"/>
    <rect class="st4" x="1141.8" y="594.4" width="36" height="3.6"/>
    <g class="st16">
      <rect class="st4" x="1315.8" y="900.4" width="3.6" height="53.4"/>
    </g>
    <rect class="st4" x="1293" y="953.8" width="26.4" height="3"/>
    <rect x="1137" y="955" width="29.4" height="1.2"/>
    <rect class="st4" x="1282.2" y="757.6" width="3" height="24.6"/>
    <rect class="st4" x="1282.2" y="725.2" width="3" height="24.6"/>
    <rect class="st4" x="1282.2" y="1008.4" width="3" height="25.2"/>
    <rect x="1021.2" y="692.8" width="29.4" height="1.2"/>
    <rect class="st4" x="979.8" y="931" width="100.8" height="5.4"/>
    <rect class="st4" x="1075.2" y="887.8" width="5.4" height="43.2"/>
    <rect class="st4" x="1080.6" y="887.8" width="85.8" height="5.4"/>
    <rect class="st4" x="1081.2" y="893.8" width="2.4" height="56.4"/>
    <g class="st13">
      <rect class="st4" x="1083.6" y="947.8" width="60" height="2.4"/>
    </g>
    <rect class="st4" x="1141.2" y="893.8" width="2.4" height="54"/>
    <rect class="st4" x="1083.6" y="893.8" width="57.6" height="3"/>
    <rect class="st4" x="1157.4" y="1012" width="9" height="3.6"/>
    <rect class="st4" x="1157.4" y="1015.6" width="3.6" height="18"/>
    <rect class="st4" x="1111.2" y="1008.4" width="2.4" height="25.2"/>
    <rect x="1089" y="918.4" width="1.2" height="29.4"/>
    <rect class="st4" x="1081.2" y="950.2" width="3" height="28.8"/>
    <rect class="st4" x="1163.4" y="771.4" width="2.4" height="55.8"/>
    <g class="st25">
      <rect class="st4" x="1103.4" y="824.8" width="60" height="2.4"/>
    </g>
    <rect class="st4" x="1103.4" y="771.4" width="2.4" height="53.4"/>
    <rect class="st4" x="1105.8" y="771.4" width="57.6" height="3.1"/>
    <rect class="st4" x="1072.8" y="823.6" width="30.6" height="3.6"/>
    <g class="st26">
      <rect class="st4" x="1072.8" y="770.8" width="3" height="52.8"/>
    </g>
    <rect x="1156.8" y="796" width="1.2" height="28.8"/>
    <rect class="st4" x="1075.2" y="860.2" width="3" height="27.6"/>
    <rect class="st4" x="1230.6" y="836.2" width="2.4" height="55.8"/>
    <g class="st27">
      <rect class="st4" x="1233" y="836.2" width="60" height="1.8"/>
    </g>
    <rect class="st4" x="1290.6" y="838" width="2.4" height="54"/>
    <rect class="st4" x="1233" y="889.3" width="57.6" height="2.7"/>
    <rect x="1238.4" y="838" width="1.2" height="29.4"/>
    <rect class="st4" x="1230.6" y="615.4" width="2.4" height="55.8"/>
    <g class="st28">
      <rect class="st4" x="1233" y="669.4" width="60" height="1.8"/>
    </g>
    <rect class="st4" x="1290.6" y="615.4" width="2.4" height="54"/>
    <rect class="st4" x="1233" y="615.4" width="57.6" height="2.7"/>
    <rect x="1238.4" y="640" width="1.2" height="29.4"/>
    <g class="st29">
      <rect class="st4" x="1315.8" y="839.8" width="3.6" height="52.8"/>
    </g>
    <rect class="st4" x="1293" y="836.2" width="26.4" height="3.6"/>
    <g class="st30">
      <rect class="st4" x="1315.8" y="614.8" width="3.6" height="53.4"/>
    </g>
    <rect class="st4" x="1293" y="668.2" width="26.4" height="3"/>
    <rect class="st4" x="1132.8" y="1040.2" width="12.6" height="54.6"/>
    <rect class="st4" x="996.6" y="1040.2" width="12" height="54.6"/>
    <rect class="st4" x="1230.6" y="901" width="2.4" height="55.8"/>
    <g class="st23">
      <rect class="st4" x="1233" y="955" width="60" height="1.8"/>
    </g>
    <rect class="st4" x="1290.6" y="901" width="2.4" height="54"/>
    <rect class="st4" x="1233" y="901" width="57.6" height="3"/>
    <rect x="1238.4" y="925.6" width="1.2" height="29.4"/>
    <g class="st22">
      <rect class="st4" x="959.4" y="1040.2" width="477.6" height="13.8"/>
    </g>
    <g class="st24">
      <rect class="st4" x="1423.2" y="593.2" width="13.8" height="447"/>
    </g>
    <rect class="st4" x="1294.8" y="598" width="36" height="9"/>
    <rect class="st4" x="1294.8" y="594.4" width="36" height="3.6"/>
    <path class="st3" d="M1274.4,1102h107.4M1381.8,1102v-48M1381.8,1054h-107.4M1274.4,1054v48M1274.4,1054h-1.8M1272.6,1054v49.8M1272.6,1103.8h111M1383.6,1103.8v-49.8M1383.6,1054h-1.8M1381.8,1054v48M1381.8,1102h-107.4M1274.4,1102v-48M979.8,1033.6h28.2M1026,1095.4v5.4M1026,1100.8h87.6M1113.6,1100.8v-5.4M1134,1033.6h23.4M1161,1033.6v-18M1166.4,1012v-26.4M1166.4,984.4v-28.2M1166.4,953.8h0M1166.4,950.2h-77.4M1087.8,950.2h-.6M1081.2,950.2v-13.8M1081.2,936.4h-101.4M979.8,936.4v49.8M979.8,986.2h-14.4M965.4,986.2v.6M965.4,1022.2v.6M965.4,1022.8h14.4M1416.6,635.2v-20.4M1403.4,614.8v-15M1403.4,599.8h-.6M1331.4,599.8h-.6M1330.8,599.8v15M1330.8,614.8h-11.4M1315.8,614.8v53.4M1293,671.2h-63M1230,671.2v1.2M1230,692.2v.6M1230,694v28.2M1230,724.6v.6M1230,749.8h52.2M1285.2,749.8h131.4M1416.6,722.8h14.4M1431,722.8h0M1431,686.8v-.6M1431,635.8v-.6M1431,635.2h-14.4M1372.8,1033.6h43.8M1416.6,1007.8h14.4M1431,1007.8v-.6M1431,920.8v-.6M1431,920.2h-14.4M1416.6,900.4h-97.2M1319.4,900.4v56.4M1319.4,956.8h-89.4M1230,956.8v3.6M1230,962.8v70.8M1230,1033.6h52.2M1285.2,1033.6h0M1285.2,1033.6v14.4M1285.2,1048h.6M1336.2,1048h.6M1372.8,1048h0M1372.8,1048v-14.4M965.4,863.2h14.4M979.8,863.2v67.8M979.8,931h95.4M1075.2,931v-43.2M1080.6,887.8h85.8M1166.4,887.8v-24.6M1166.4,862v-28.2M1166.4,831.4v-.6M1166.4,829v-1.8M1166.4,827.2h-93.6M1072.8,827.2v-56.4M1072.8,770.8h-93M979.8,790.6h-14.4M965.4,790.6v.6M965.4,826.6v.6M965.4,862.6v.6M1431,778h-14.4M1416.6,757.6h-131.4M1282.2,757.6h-52.2M1230,799.6v.6M1230,801.4v27.6M1230,832v4.2M1230,836.2h89.4M1319.4,836.2v56.4M1319.4,892.6h97.2M1416.6,865.6h14.4M1431,865.6v-.6M1431,829h0M1431,778h0M1143.6,946.6v-53.4M1143.6,893.2h22.8M1166.4,893.2v53.4M1075.8,770.8h28.8M1104.6,770.8v.6M1315.8,892.6h-22.8M1293,892.6v-52.8M1315.8,839.8v52.8M1293,668.2v-53.4M1293,614.8h22.8M1315.8,614.8v53.4M1293,953.8v-53.4M1315.8,900.4v53.4M1311,953.8h-18M979.8,763.6v-148.8M1021.2,614.8h145.2M1166.4,614.8v112.8M1166.4,763.6h-76.8M1089.6,763.6v-13.2M1089.6,706.6v-7.2M1089.6,699.4h-68.4M1014,699.4v64.2M1021.2,706h61.2M1082.4,706v57.6M1082.4,763.6h-61.2M1021.2,763.6v-57.6M1166.4,1015.6v18M1161,1033.6v-18M1222.8,614.8v77.4M1222.8,692.2h7.2M1230,692.2v-77.4M1222.8,725.2v74.4M1222.8,799.6h7.2M1230,799.6v-42M1230,749.8v-24.6M1230,725.2h-7.2M1222.8,832.6v67.8M1230,892.6v-60M1230,832.6h-7.2M1222.8,832.6v-33M1222.8,725.2v-33M1230,799.6v29.4M1230,832v.6M1230,692.2v.6M1230,694v28.2M1230,724.6v.6M1222.8,799.6h7.2M1230,832.6h-7.2M1222.8,692.2h7.2M1230,725.2h-7.2M1166.4,614.8v112.8M1166.4,727.6h7.2M1173.6,727.6v-112.8M1166.4,760v3.6M1166.4,770.8v60M1166.4,830.8h7.2M1173.6,830.8v-70.8M1173.6,760h-7.2M1166.4,863.2v24.6M1166.4,893.2v53.4M1166.4,950.2v3.6M1166.4,953.8h7.2M1173.6,953.8v-90.6M1173.6,863.2h-7.2M1166.4,986.2v47.4M1173.6,1033.6v-47.4M1173.6,986.2h-7.2M1166.4,986.2v-.6M1166.4,984.4v-28.2M1166.4,953.8h0M1166.4,863.2h0M1166.4,862v-28.2M1166.4,831.4v-.6M1166.4,760v-.6M1166.4,758.8v-31.2M1173.6,953.8v32.4M1173.6,727.6v32.4M1173.6,830.8v32.4M1166.4,830.8h7.2M1173.6,863.2h-7.2M1166.4,727.6h7.2M1173.6,760h-7.2M1166.4,953.8h7.2M1173.6,986.2h-7.2M979.8,614.8h34.2M1021.2,614.8h145.2M1173.6,614.8h4.2M1177.8,614.8v-7.8M1177.8,607h-36M1216.2,614.8h6.6M1230,614.8h100.8M1330.8,614.8v-7.8M1330.8,607h-36M1216.2,607v7.8M1403.4,614.8h13.2M1403.4,607v7.8M979.8,770.8h186.6M1166.4,763.6h-76.8M1082.4,763.6h-61.2M1014,763.6h-34.2M1423.2,1007.8h-6.6M1416.6,1007.8v25.8M1423.2,865.6h-6.6M1416.6,865.6v27M1416.6,900.4v19.8"/>
    <path class="st3" d="M1416.6,920.2h6.6M1423.2,722.8h-6.6M1416.6,722.8v27M1416.6,757.6v20.4M1416.6,778h6.6M1416.6,614.8v20.4M1416.6,635.2h6.6M1141.8,607v-13.8M1141.8,593.2h-178.2M963.6,593.2v4.2M963.6,597.4h-.6M963,597.4v-4.2M963,593.2h-3.6M959.4,593.2v13.8M1269.6,593.2h-53.4M1216.2,593.2v13.8M963.6,593.2h306M963.6,593.2v4.2M1216.2,597.4h0M1178.4,597.4h-.6M1216.2,599.8v-2.4M1177.8,597.4h.6M1216.2,597.4h0M1177.8,597.4v9.6M1468.8,863.8l-1.8-10.2M1467,853.6l-4.8-9.6M1462.2,844l-7.2-7.2M1455,836.8l-9.6-4.8M1445.4,832l-10.2-1.8M1435.2,863.8h33.6M1434.6,861.4h-1.8M1434.6,832.6v28.8M1432.8,832.6h1.8M1432.8,861.4v-28.8M1429.8,830.8v32.4M1435.2,861.4v-28.8M1432.2,861.4v-28.8M1432.2,830.8h-2.4M1432.2,863.2h-2.4M1432.2,863.2v-32.4M1435.2,865h-5.4M1435.2,861.4v3.6M1432.2,861.4h3M1432.2,863.2v-1.8M1429.8,863.2h2.4M1429.8,865v-1.8M1432.2,830.8h-2.4M1432.2,832.6v-1.8M1435.2,832.6h-3M1435.2,829v3.6M1429.8,829h5.4M1429.8,830.8v-1.8M1432.8,779.8v47.4M1432.8,827.2h1.8M1434.6,827.2v-47.4M1434.6,779.8h-1.8M1429.8,827.2v-47.4M1435.2,779.8v47.4M1430.4,827.2h-.6M1430.4,779.8h-.6M1429.8,827.2v1.8M1429.8,829h5.4M1435.2,829v-1.8M1435.2,827.2h-5.4M1429.8,778v1.8M1429.8,779.8h5.4M1435.2,779.8v-1.8M1435.2,778h-5.4M1435.2,922l3,4.8M1440,931l2.4,3.6M1444.8,938.2l1.8,3.6M1449,945.4l3,5.4M1435.2,955h2.4M1441.8,954.4l1.8-.6M1443.6,953.8l2.4-.6M1449.6,951.4l2.4-.6M1434.6,1005.4v-48.6M1434.6,956.8h-1.8M1432.8,956.8v48.6M1432.8,1005.4h1.8M1432.8,923.8v29.4M1432.8,953.2h1.8M1434.6,953.2v-29.4M1434.6,923.8h-1.8M1429.8,1005.4v-48.6M1429.8,954.4v-31.8M1429.8,954.4v-31.8M1435.2,922.6v31.8M1435.2,956.8v48.6M1435.2,923.8v29.4M1432.2,954.4h-2.4M1432.2,922.6h-2.4M1430.4,956.8h-.6M1432.2,923.8v29.4M1432.2,922.6v31.8M1429.8,954.4v2.4M1429.8,956.8h5.4M1435.2,956.8v-3.6M1435.2,953.2h-3M1432.2,953.2v1.2M1432.2,954.4h-2.4M1429.8,920.8v1.8M1429.8,922.6h2.4M1432.2,922.6v1.2M1432.2,923.8h3M1435.2,923.8v-3M1435.2,920.8h-5.4M1429.8,1005.4v1.8M1429.8,1007.2h5.4M1435.2,1007.2v-1.8M1435.2,1005.4h-5.4M1435.2,955v-33M1435.2,921.4v34.2M1435.2,922v33M1435.2,922.6v31.8M1435.2,954.4v-31.8M1435.2,955.6v-34.2M1435.2,953.2v-29.4M1435.2,923.8v29.4M1485,733v-107.4M1485,625.6h-48M1437,625.6v107.4M1437,733h48M1437,733v1.8M1437,734.8h49.8M1486.8,734.8v-111M1486.8,623.8h-49.8M1437,623.8v1.8M1437,625.6h48M1485,625.6v107.4M1485,733h-48M1474.2,875.2v-107.4M1474.2,767.8h-37.2M1437,767.8v107.4M1437,875.2h37.2M1437,875.2v1.8M1437,877h39M1476,877v-111M1476,766h-39M1437,766v1.8M1437,767.8h37.2M1474.2,767.8v107.4M1474.2,875.2h-37.2M1166.4,946.6l-22.8-53.4v53.4l22.8-53.4M1143.6,893.2v53.4M1166.4,946.6v-53.4M1165.8,893.2h-22.2M1075.8,823.6l27.6-51.6M1104,771.4l.6-.6M1103.4,822.4l-27.6-51.6M1104.6,771.4v-.6M1104.6,770.8h-28.8M1293,892.6l22.8-52.8M1315.8,892.6l-22.8-52.8v52.8-52.8M1315.8,839.8v52.8M1315.8,892.6h-22.8M1468.8,721.6l-1.8-10.2M1467,711.4l-4.8-9.6M1462.2,701.8l-7.2-7.2M1455,694.6l-9.6-4.8M1445.4,689.8l-10.2-1.8M1435.2,721.6h33.6M1434.6,719.2h-1.8M1434.6,690.4v28.8M1432.8,690.4h1.8M1432.8,719.2v-28.8M1429.8,688.6v32.4M1435.2,719.2v-28.8M1432.2,719.2v-28.8M1432.2,688.6h-2.4M1432.2,721h-2.4M1432.2,721v-32.4M1435.2,722.8h-5.4M1435.2,719.2v3.6M1432.2,719.2h3M1432.2,721v-1.8M1429.8,721h2.4M1429.8,722.8v-1.8M1432.2,688.6h-2.4M1432.2,690.4v-1.8M1435.2,690.4h-3M1435.2,686.8v3.6M1429.8,686.8h5.4M1429.8,688.6v-1.8M1432.8,637.6v46.8M1432.8,684.4h1.8M1434.6,684.4v-46.8M1434.6,637.6h-1.8M1429.8,684.4v-46.8M1435.2,637.6v46.8M1430.4,684.4h-.6M1430.4,637.6h-.6M1429.8,684.4v1.8M1429.8,686.2h5.4M1435.2,686.2v-1.8M1435.2,684.4h-5.4M1429.8,635.8v1.8M1429.8,637.6h5.4"/>
    <path class="st3" d="M1435.2,637.6v-1.8M1435.2,635.8h-5.4M973.2,1022.8h-13.8M959.4,1022.8v17.4M973.2,863.2h-13.8M959.4,863.2v123M959.4,986.2h13.8M959.4,607v183.6M959.4,790.6h13.8M959.4,863.2v-240.6M959.4,620.8v-13.8M959.4,1022.8v-36.6M963,790.6v.6M963,826.6v.6M963,862.6v.6M965.4,863.2h-2.4M963,790.6h2.4M963,986.2h-3.6M963,986.2v.6M963,1022.2v.6M963,986.2h2.4M959.4,863.2h3.6M963,863.2v-.6M963,827.2v-.6M963,791.2v-.6M959.4,1022.8h3.6M963,1022.8v-.6M963,986.8v-.6M1230,757.6h186.6M1416.6,749.8h-186.6M1230,900.4h85.8M1319.4,900.4h97.2M1416.6,892.6h-186.6M1358.4,757.6h28.2M1306.2,757.6v4.2M1306.2,766v4.2M1306.2,774.4v4.2M1306.2,778.6h4.2M1314.6,778.6h4.8M1323.6,778.6h4.2M1327.8,778.6v-4.2M1327.8,770.2v-4.2M1327.8,761.8v-4.2M1327.8,757.6h-4.2M1319.4,757.6h-4.8M1310.4,757.6h-4.2M1293,614.8l22.8,53.4M1293,668.2v-53.4M1293,614.8h22.8M1315.8,614.8v53.4M1166.4,946.6h-22.8M1143.6,950.2h22.8M1222.8,900.4v60M1222.8,960.4h7.2M1230,960.4v-60M1222.8,992.8v40.8M1230,1033.6v-40.8M1230,992.8h-7.2M1222.8,992.8v-32.4M1230,960.4h0M1230,962.8v30M1222.8,960.4h7.2M1230,992.8h-7.2M1137,832.6l1.8,11.4M1138.8,844l6.6,9M1145.4,853l9.6,6.6M1155,859.6l11.4,2.4M1173.6,863.2v-1.8M1173.6,861.4h-6M1167.6,861.4v.6M1167.6,862h-1.2M1166.4,862v1.2"/>
    <path class="st3" d="M1166.4,863.2h7.2M1173.6,831.4h-7.2M1166.4,831.4v.6M1166.4,832h1.2M1167.6,832v.6M1167.6,832.6h6M1173.6,832.6v-1.2M1166.4,832.6h-29.4M1137,832.6v1.2M1137,833.8h29.4M1166.4,833.8v-1.2M1166.4,830.8v.6M1166.4,833.8v28.2M1166.4,863.2h0M1173.6,830.8v32.4M1259.4,961.6l-1.8,11.4M1257.6,973l-6.6,9.6M1251,982.6l-9.6,6.6M1241.4,989.2l-11.4,1.8M1222.8,962.2v-1.8M1228.8,962.2h-6M1228.8,961.6v.6M1230,961.6h-1.2M1230,960.4v1.2M1222.8,960.4h7.2M1230,992.2h-7.2M1230,991v1.2M1228.8,991h1.2M1228.8,991h0M1222.8,991h6M1222.8,992.2v-1.2M1230,962.8v-1.2M1259.4,962.8h-29.4M1259.4,961.6v1.2M1230,961.6h29.4M1230,960.4h0M1230,962.8v30M1222.8,960.4v32.4M1215,595.6l-2.4-1.8M1209,592l-4.2-2.4M1201.2,587.8l-3.6-2.4M1194,583l-3.6-1.8M1186.8,578.8l-2.4-1.2M1179.6,595.6v-3M1180.2,588.4l.6-2.4M1180.8,586l.6-1.8M1183.2,580l1.2-2.4M1212.6,595.6v1.8M1181.4,595.6h31.2M1181.4,597.4v-1.8M1212.6,597.4h-31.2M1180.2,600.4h34.2M1180.2,600.4h34.2M1180.2,598v2.4M1214.4,598v2.4M1214.4,595.6h-34.2M1212.6,595.6h-31.2M1212.6,598h-31.2M1214.4,598h-34.2M1216.2,595.6v4.8M1212.6,595.6h3.6M1212.6,598v-2.4M1214.4,598h-1.8M1214.4,600.4v-2.4M1216.2,600.4h-1.8M1180.2,598v2.4M1181.4,598h-1.2M1181.4,595.6v2.4M1178.4,595.6h3M1178.4,600.4v-4.8M1180.2,600.4h-1.8M1178.4,595.6h37.8M1179.6,595.6h35.4M1215,595.6h-36M1215,595.6h-35.4M1214.4,595.6h-34.2M1180.2,595.6h34.2M1179,595.6h36M1181.4,595.6h31.2M1212.6,595.6h-31.2M996.6,1106.8h29.4M1026,1106.8v-12M1026,1094.8h-17.4M996.6,1094.8v12M1113.6,1106.8h31.8M1145.4,1106.8v-12M1132.8,1094.8h-19.2M1113.6,1094.8v12M1113.6,1106.8h-87.6M1113.6,1106.8v-3.6M1113.6,1103.2h0M1026.6,1103.2h-.6M1026,1103.2v3.6M1026,1103.2h.6M1113.6,1103.2h0M1285.2,757.6v4.2M1285.2,766v4.2M1285.2,774.4v4.2M1285.2,778.6h4.2M1293.6,778.6h4.2M1302,778.6h4.2M1306.2,778.6v-4.2M1306.2,770.2v-4.2M1306.2,761.8v-4.2M1306.2,757.6h-4.2M1297.8,757.6h-4.2M1289.4,757.6h-4.2M915,622.6v251.4M915,874h44.4M959.4,874v-251.4M959.4,622.6h-44.4M959.4,622.6v-1.8M959.4,620.8h-46.2M913.2,620.8v255M913.2,875.8h46.2M959.4,875.8v-1.8M959.4,874h-44.4M915,874v-251.4M915,622.6h44.4M1315.8,953.8l-22.8-53.4v53.4l22.8-53.4M1293,900.4v53.4M1293,953.8h18M1315.8,953.8v-53.4M973.2,790.6h6.6M979.8,790.6v-19.8M979.8,763.6v-148.8M973.2,986.2h6.6M979.8,986.2v-49.8M979.8,931v-67.8M979.8,863.2h-6.6M979.8,1033.6v-10.8M979.8,1022.8h-6.6M1416.6,1033.6h-43.8M1372.8,1033.6v6.6M1285.2,1033.6h-55.2M1222.8,1033.6h-4.8M1218,1033.6v6.6M1285.2,1040.2v-6.6M1181.4,1033.6h-7.8M1166.4,1033.6h-55.2M1111.2,1033.6v6.6M1111.2,1040.2h21.6M1181.4,1040.2v-6.6M1008.6,1033.6h-28.8M1008.6,1040.2v-6.6M1259.4,830.8l-1.8-11.4M1257.6,819.4l-6.6-9.6M1251,809.8l-9.6-6M1241.4,803.8l-11.4-2.4M1222.8,800.2v1.2M1222.8,801.4h6M1228.8,801.4h0M1228.8,801.4h1.2M1230,801.4v-1.2M1230,800.2h-7.2M1222.8,832h7.2M1230,832v-1.2M1230,830.8h-1.2M1228.8,830.8h0M1228.8,830.8h-6M1222.8,830.8v1.2M1230,830.8h29.4M1259.4,830.8v-1.2M1259.4,829.6h-29.4M1230,829.6v1.2M1230,832.6v-.6M1230,829v-29.4M1222.8,832.6v-33M915,937.6v89.4M915,1027h44.4M959.4,1027v-89.4M959.4,937.6h-44.4M959.4,937.6v-1.8M959.4,935.8h-46.2M913.2,935.8v93M913.2,1028.8h46.2M959.4,1028.8v-1.8M959.4,1027h-44.4M915,1027v-89.4M915,937.6h44.4M979.8,614.8l34.2,148.8M980.4,763.6l33.6-148.8M1014,614.8v148.8M979.8,763.6v-148.8M927.6,1021l1.8-10.2M929.4,1010.8l4.8-9.6M934.2,1001.2l7.2-7.2M941.4,994l9.6-4.8M951,989.2l10.2-1.8M961.2,1021h-33.6M963,1018.6v-28.8M963,989.8h-1.2M961.8,989.8v28.8M961.8,1018.6h1.2M966.6,988v32.4M961.2,1018.6v-28.8M964.2,1018.6v-28.8M964.2,988h2.4M964.2,1020.4h2.4"/>
    <path class="st3" d="M964.2,1020.4v-32.4M966.6,988v-1.2M966.6,986.8h-5.4M961.2,986.8v3M961.2,989.8h3M964.2,989.8v-1.8M964.2,988h2.4M966.6,1022.2v-1.8M966.6,1020.4h-2.4M964.2,1020.4v-1.8M964.2,1018.6h-3M961.2,1018.6v3.6M961.2,1022.2h5.4M1294.8,607v-13.8M1294.8,593.2h-25.2M1423.2,593.2h-19.8M1403.4,593.2v13.8M1269.6,593.2h153.6M1403.4,597.4h-.6M1331.4,597.4h-.6M1330.8,607v-9.6M1330.8,597.4h.6M1402.8,597.4h.6M1210.8,976.6h-6M1200.6,976.6h-4.8M1191.6,976.6h-6M1185.6,976.6v6M1185.6,986.8v4.2M1185.6,995.2v4.2M1185.6,1003.6v4.2M1185.6,1012v4.2M1185.6,1020.4v6M1185.6,1026.4h6M1195.8,1026.4h4.8M1204.8,1026.4h6M1210.8,1026.4v-6M1210.8,1016.2v-4.2M1210.8,1007.8v-4.2M1210.8,999.4v-4.2M1210.8,991v-4.2M1210.8,982.6v-6M1210.8,976.6l-.6,2.4M1209,983.2l-1.2,3.6M1207.2,991l-1.2,4.2M1204.8,999.4l-1.2,4.2M1203,1007.8l-1.2,4.2M1200.6,1016.2l-.6,3.6M1198.8,1024l-.6,2.4M1185.6,976.6l.6,2.4M1187.4,983.2l1.2,3.6M1189.2,991l1.2,4.2M1191.6,999.4l1.2,4.2M1193.4,1007.8l1.2,4.2M1195.8,1016.2l.6,3.6M1197.6,1024l.6,2.4M1306.2,749.8v-4.2M1306.2,741.4v-4.2M1306.2,733v-4.2M1306.2,728.8h4.2M1314.6,728.8h4.8M1323.6,728.8h4.2M1327.8,728.8v4.2M1327.8,737.2v4.2M1327.8,745.6v4.2M1327.8,749.8h-4.2M1319.4,749.8h-4.8M1310.4,749.8h-4.2M1285.2,749.8v-4.2M1285.2,741.4v-4.2M1285.2,733v-4.2M1285.2,728.8h4.2M1293.6,728.8h4.2M1302,728.8h4.2M1306.2,728.8v4.2M1306.2,737.2v4.2M1306.2,745.6v4.2M1306.2,749.8h-4.2M1297.8,749.8h-4.2M1289.4,749.8h-4.2M1089.6,706h-68.4M1021.2,699.4h32.4M1089.6,699.4h-36M1089.6,706v-6.6M1089.6,763.6v-13.2M1089.6,750.4h-7.2M1082.4,750.4v13.2M1089.6,706v44.4M1082.4,750.4v-44.4M1082.4,706h7.2M1089.6,750.4h-7.2M1021.2,695.8v3.6M1021.2,763.6v-57.6M1021.2,614.8v44.4M1021.2,662.8v-3.6M1014,662.8v-3.6M1014,614.8v44.4M1014,763.6v-64.2M1014,695.8v3.6M1021.2,662.8h-7.2M1021.2,695.8h-7.2M1137,758.8l1.8-11.4M1138.8,747.4l6.6-9.6M1145.4,737.8l9.6-6.6M1155,731.2l11.4-2.4M1173.6,758.2v1.2M1167.6,758.2h6M1167.6,758.8v-.6M1166.4,758.8h1.2M1166.4,759.4v-.6M1173.6,759.4h-7.2M1166.4,727.6h7.2M1166.4,728.8v-1.2M1167.6,728.8h-1.2M1167.6,729.4v-.6M1173.6,729.4h-6M1173.6,727.6v1.8M1166.4,757v1.8M1137,757h29.4M1137,758.8v-1.8M1166.4,758.8h-29.4M1166.4,760v-.6M1166.4,758.8v-31.2M1173.6,760v-32.4M1259.4,723.4l-1.8-11.4M1257.6,712l-6.6-9.6M1251,702.4l-9.6-6M1241.4,696.4l-11.4-2.4M1222.8,692.8v1.8M1222.8,694.6h6M1228.8,694.6v-.6M1228.8,694h1.2M1230,694v-1.2M1230,692.8h-7.2M1222.8,724.6h7.2M1230,724.6v-1.2M1230,723.4h-1.2M1228.8,723.4h0M1228.8,723.4h-6M1222.8,723.4v1.2M1230,723.4h29.4M1259.4,723.4v-1.2M1259.4,722.2h-29.4M1230,722.2v1.2M1230,725.2v-.6M1230,722.2v-28.2M1230,692.8v-.6M1222.8,725.2v-33M1141.8,598v9M1141.8,607h36M1177.8,607v-9M1177.8,598h-36M1141.8,594.4v3.6M1141.8,598h36M1177.8,598v-3.6M1177.8,594.4h-36M1315.8,900.4v3.6M1315.8,904h3.6M1319.4,904v-3.6M1315.8,925v28.8M1315.8,953.8h3.6M1319.4,953.8v-28.8M1319.4,925h-3.6M1315.8,925v-21M1319.4,904v21M1315.8,904h3.6M1319.4,925h-3.6M1319.4,953.8h-26.4M1293,956.8h26.4M1319.4,956.8v-3"/>
    <path class="st3" d="M1340.4,900.4v4.2M1340.4,908.8v4.2M1340.4,917.2v4.2M1340.4,921.4h-4.2M1332,921.4h-4.2M1323.6,921.4h-4.2M1319.4,921.4v-4.2M1319.4,913v-4.2M1319.4,904.6v-4.2M1319.4,900.4h4.2M1327.8,900.4h4.2M1336.2,900.4h4.2M1161,1033.6l5.4-18M1166.4,1033.6l-5.4-18,5.4,18v-18M1161,1015.6v18M1161,1033.6h5.4M1137,955l1.8,11.4M1138.8,966.4l6.6,9.6M1145.4,976l9.6,6.6M1155,982.6l11.4,1.8M1173.6,985.6v-1.2M1173.6,984.4h-6M1167.6,984.4h0M1167.6,984.4h-1.2M1166.4,984.4v1.2M1166.4,985.6h7.2M1173.6,953.8h-7.2M1166.4,953.8v1.2M1166.4,955h1.2M1167.6,955v.6M1167.6,955.6h6M1173.6,955.6v-1.8M1166.4,955h-29.4M1137,955v1.2M1137,956.2h29.4M1166.4,956.2v-1.2M1166.4,953.8h0M1166.4,956.2v28.2M1166.4,985.6v.6M1173.6,953.8v32.4M1282.2,757.6v24.6M1282.2,782.2h3M1285.2,782.2v-24.6M1285.2,757.6h-3M1285.2,749.8v-24.6M1285.2,725.2h-3M1282.2,725.2v24.6M1282.2,749.8h3M1285.2,1033.6v-25.2M1285.2,1008.4h-3M1282.2,1008.4v25.2M1282.2,1033.6h3M1371.6,1085.8l-10.2-1.8M1361.4,1084l-9.6-4.8M1351.8,1079.2l-7.2-7.2M1344.6,1072l-4.8-9.6M1339.8,1062.4l-1.8-10.2M1371.6,1052.2v33.6M1369.2,1050.4h-28.8M1340.4,1050.4v1.2M1340.4,1051.6h28.8M1369.2,1051.6v-1.2M1338.6,1046.8h32.4M1369.2,1052.2h-28.8M1369.2,1049.2h-28.8M1338.6,1049.2v-2.4M1371,1049.2v-2.4M1371,1049.2h-32.4M1338.6,1046.8h-1.8M1336.8,1046.8v5.4M1336.8,1052.2h3.6M1340.4,1052.2v-3M1340.4,1049.2h-1.8M1338.6,1049.2v-2.4M1372.8,1046.8h-1.8M1371,1046.8v2.4M1371,1049.2h-1.8M1369.2,1049.2v3M1369.2,1052.2h3.6M1372.8,1052.2v-5.4M1287.6,1051.6v-1.2M1334.4,1051.6h-46.8M1334.4,1050.4v1.2M1287.6,1050.4h46.8M1334.4,1046.8h-46.8M1287.6,1052.2h46.8M1285.8,1052.2v-5.4M1287.6,1052.2h-1.8M1287.6,1046.8v5.4M1285.8,1046.8h1.8M1334.4,1052.2v-5.4M1336.2,1052.2h-1.8M1336.2,1046.8v5.4"/>
    <path class="st3" d="M1334.4,1046.8h1.8M1216.2,1052.2l-5.4,3M1207.2,1057.6l-3.6,1.8M1200,1061.8l-3.6,1.8M1192.8,1066l-5.4,3M1182.6,1052.2l.6,2.4M1183.8,1058.8v1.8M1183.8,1060.6l1.2,2.4M1186.2,1066.6l1.2,2.4M1214.4,1050.4h-29.4M1185,1050.4v1.2M1185,1051.6h29.4M1214.4,1051.6v-1.2M1183.8,1046.8h31.8M1183.8,1046.8h31.8M1183.8,1049.2v-2.4M1215.6,1049.2v-2.4M1215.6,1052.2h-31.8M1214.4,1052.2h-29.4M1214.4,1049.2h-29.4M1215.6,1049.2h-31.8M1183.8,1046.8h-1.8M1182,1046.8v5.4M1182,1052.2h3M1185,1052.2v-3M1185,1049.2h-1.2M1183.8,1049.2v-2.4M1217.4,1046.8h-1.8M1215.6,1046.8v2.4M1215.6,1049.2h-1.2M1214.4,1049.2v3M1214.4,1052.2h3M1217.4,1052.2v-5.4M1217.4,1052.2h-35.4M1182,1052.2h35.4M1182.6,1052.2h33.6M1216.8,1052.2h-34.2M1216.2,1052.2h-33.6M1215.6,1052.2h-31.8M1183.8,1052.2h31.8M1182.6,1052.2h34.2M1185,1052.2h29.4M1214.4,1052.2h-29.4M1027.8,1106.2l5.4,3M1036.8,1111l3.6,2.4M1044,1115.2l3.6,2.4M1051.2,1119.4l5.4,3M1061.4,1106.2l-.6,2.4M1060.2,1112.8v1.8M1060.2,1114.6l-1.2,1.8M1057.8,1120.6l-1.2,1.8M1111.8,1103.8v1.8M1063.2,1103.8h48.6M1063.2,1105.6v-1.8M1111.8,1105.6h-48.6M1030.2,1105.6v-1.8M1059,1105.6h-28.8M1059,1103.8v1.8M1030.2,1103.8h28.8M1060.8,1100.8h-32.4M1060.8,1100.8h-32.4M1111.8,1100.8h-48.6M1028.4,1106.2h32.4M1030.2,1106.2h28.8M1063.2,1106.2h48.6M1060.8,1103.2v-2.4M1028.4,1103.2v-2.4M1030.2,1103.2h28.8M1028.4,1103.2h32.4M1111.8,1106.2v-5.4M1113.6,1106.2h-1.8M1113.6,1100.8v5.4M1111.8,1100.8h1.8M1060.8,1103.2v-2.4M1059,1103.2h1.8M1059,1106.2v-3M1063.2,1106.2h-4.2M1063.2,1100.8v5.4M1060.8,1100.8h2.4M1026.6,1106.2v-5.4M1030.2,1106.2h-3.6M1030.2,1103.2v3M1028.4,1103.2h1.8M1028.4,1100.8v2.4M1026.6,1100.8h1.8M1061.4,1106.2h-33.6M1027.8,1106.2h33.6M1027.8,1106.2h33.6M1028.4,1106.2h32.4M1060.8,1106.2h-32.4M1061.4,1106.2h-33.6M1059,1106.2h-28.8M1030.2,1106.2h28.8M927.6,862l1.8-10.8M929.4,851.2l4.8-9M934.2,842.2l7.2-7.8M941.4,834.4l9.6-4.8M951,829.6l10.2-1.2M961.2,862h-33.6M963,859.6v-29.4M963,830.2h-1.2M961.8,830.2v29.4M961.8,859.6h1.2M966.6,829v31.8M961.2,859.6v-29.4M964.2,859.6v-29.4M964.2,829h2.4M964.2,860.8h2.4M964.2,860.8v-31.8M966.6,862.6v-1.8M966.6,860.8h-2.4M964.2,860.8v-1.2M964.2,859.6h-3M961.2,859.6v3M961.2,862.6h5.4M966.6,829v-1.8M966.6,827.2h-5.4M961.2,827.2v3M961.2,830.2h3M964.2,830.2v-1.2M964.2,829h2.4M961.8,793h1.2M961.8,824.8v-31.8M963,824.8h-1.2M963,793v31.8M966.6,824.8v-31.8M961.2,793v31.8M961.2,791.2h5.4M961.2,793v-1.8M966.6,793h-5.4M966.6,791.2v1.8M961.2,824.8h5.4M961.2,826.6v-1.8M966.6,826.6h-5.4M966.6,824.8v1.8M1050.6,694l-2.4-11.4M1048.2,682.6l-6.6-9.6M1041.6,673l-9.6-6M1032,667l-10.8-2.4M1014,695.2h7.2M1021.2,695.2v-1.2M1021.2,694h-1.8M1019.4,694h0M1019.4,694h-5.4M1014,694v1.2M1014,663.4v1.2M1014,664.6h5.4M1019.4,664.6h0M1019.4,664.6h1.8M1021.2,664.6v-1.2M1021.2,663.4h-7.2M1021.2,694h29.4M1050.6,694v-1.2M1050.6,692.8h-29.4M1021.2,692.8v1.2M1021.2,695.8v-.6M1021.2,694v-31.2M1014,695.8v-33M979.8,936.4h100.8M1080.6,936.4v-5.4M1075.2,931h-95.4M1075.2,887.8v43.2M1080.6,931v-37.8M1080.6,887.8h-2.4M1080.6,893.2h85.8M1166.4,887.8h-85.8M1081.2,893.8v56.4M1081.2,950.2h2.4M1083.6,947.8v-51.6M1083.6,893.8h-2.4M1083.6,950.2h3.6M1087.2,950.2v-2.4M1087.2,947.8h-3.6M1119.6,950.2h24M1141.2,947.8h-21.6M1119.6,947.8v2.4M1119.6,950.2h-32.4M1087.2,947.8h.6M1088.4,947.8h31.2M1119.6,947.8v2.4M1087.2,950.2v-2.4M1143.6,946.6v-52.8M1143.6,893.8h-2.4M1141.2,896.8v51M1141.2,893.8h-57.6M1083.6,896.2h.6"/>
    <path class="st3" d="M1087.8,896.2h15M1087.8,896.2h15M1102.8,896.2h-15M1161,1015.6h5.4M1166.4,1015.6v-3.6M1166.4,1012h-9M1157.4,1012v3.6M1161,1033.6v-18M1157.4,1015.6v18M1157.4,1033.6h3.6M1113.6,1040.2h3.6M1121.4,1040.2h4.2M1129.8,1040.2h3M1132.8,1061.8h-3M1125.6,1061.8h-4.2M1117.2,1061.8h-3.6M1113.6,1061.8v-4.2M1113.6,1053.4v-4.2M1113.6,1044.4v-4.2M1051.2,936.4h-71.4M979.8,936.4v49.8M1113.6,1033.6v-25.2M1113.6,1008.4h-2.4M1111.2,1008.4v25.2M1111.2,1033.6h2.4"/>
    <path class="st3" d="M1135.8,1033.6h-21.6M1156.8,1033.6v-21.6,21.6h-42.6M1089,918.4l10.8,2.4M1099.8,920.8l9.6,6M1109.4,926.8l6,9.6M1115.4,936.4l2.4,11.4M1119,947.8v2.4M1117.8,947.8h1.2M1117.8,949v-1.2M1117.8,949h0M1117.8,950.2v-1.2M1119,950.2h-1.2M1089,950.2h-1.2M1089,949v1.2M1088.4,949h.6M1088.4,947.8v1.2M1087.8,947.8h.6M1087.8,950.2v-2.4M1090.2,947.8h-1.2M1090.2,918.4v29.4M1089,918.4h1.2M1089,947.8v-29.4M1087.2,947.8h.6M1088.4,947.8h31.2M1087.2,950.2h32.4M1141.2,928.6v11.4"/>
    <path class="st3" d="M1143.6,940.6v-12.6"/>
    <path class="st3" d="M1141.2,928.6v11.4M1084.2,979v-28.8M1084.2,950.2h-3M1081.2,950.2v28.8M1081.2,979h3M1081.2,936.4v4.2M1081.2,944.8v4.2M1081.2,953.8v4.2M1081.2,958h-4.2M1072.8,958h-4.2M1064.4,958h-4.2M1060.2,958v-4.2M1060.2,949v-4.2M1060.2,940.6v-4.2M1060.2,936.4h4.2M1068.6,936.4h4.2M1077,936.4h4.2M1163.4,773.8v51M1163.4,827.2h2.4M1165.8,827.2v-55.8M1165.8,771.4h-2.4M1163.4,824.8h-3.6M1159.8,824.8v2.4M1159.8,827.2h3.6M1127.4,824.8h-21.6M1103.4,827.2h24M1127.4,827.2v-2.4M1127.4,824.8h31.2M1159.2,824.8h.6M1159.8,827.2h-32.4M1127.4,827.2v-2.4M1159.8,824.8v2.4M1105.8,824.8v-50.4M1105.8,771.4h-2.4M1103.4,771.4v52.2M1162.8,773.8h.6M1163.4,771.4h-57.6M1159.2,773.8h-15M1159.2,773.8h-15"/>
    <path class="st3" d="M1144.2,773.8h15M1103.4,823.6h-27.6M1072.8,823.6v3.6M1072.8,827.2h30.6M1072.8,770.8v3.6M1072.8,774.4h3M1075.8,774.4v-3.6M1075.8,770.8h-3M1072.8,795.4v28.2M1075.8,823.6v-28.2M1075.8,795.4h-3M1072.8,795.4v-21M1075.8,774.4v21M1072.8,774.4h3M1075.8,795.4h-3M1026,931h49.2M1075.2,931v-70.8M1072.8,791.8v4.2M1072.8,800.2v4.2M1072.8,809.2v4.2M1072.8,813.4h-4.8M1063.8,813.4h-4.2M1055.4,813.4h-4.2M1051.2,813.4v-4.2M1051.2,804.4v-4.2M1051.2,796v-4.2M1051.2,791.8h4.2M1059.6,791.8h4.2M1068,791.8h4.8M1051.2,770.8v4.2M1051.2,779.2v4.2M1051.2,787.6v4.2M1051.2,791.8h4.2M1059.6,791.8h4.2M1068,791.8h4.8M1072.8,791.8v-4.2M1072.8,783.4v-4.2M1072.8,775v-4.2M1072.8,770.8h-4.8M1063.8,770.8h-4.2M1055.4,770.8h-4.2M1158,796l-10.8,1.8M1147.2,797.8l-9.6,6.6M1137.6,804.4l-6.6,9.6M1131,814l-1.8,10.8M1128,827.2h1.2M1129.2,827.2v-.6M1129.2,826.6h0M1129.2,826.6v-1.8M1129.2,824.8h-1.2M1128,824.8v2.4M1159.2,827.2v-2.4M1159.2,824.8h-.6M1158.6,824.8v1.8M1158.6,826.6h-.6M1158,826.6v.6M1158,827.2h1.2M1158,824.8v-28.8M1158,796h-1.2M1156.8,796v28.8M1156.8,824.8h1.2M1159.8,824.8h-.6M1158.6,824.8h-31.2M1159.8,827.2h-32.4M1105.8,806.2v10.8"/>
    <path class="st3" d="M1106.4,811h0M1106.4,809.8h0M1106.4,813.4h0M1106.4,811h0M1105.8,808h.6M1106.4,815.2h-.6M1106.4,811h0M1106.4,811v-1.2M1106.4,813.4v-1.2M1106.4,812.2v-1.2M1106.4,815.2h0M1106.4,808.6v-.6M1106.4,815.2v-1.8M1106.4,809.8v-1.2M1106.4,813.4h0M1106.4,809.8h0M1106.4,813.4v-1.8M1106.4,811.6v-1.8M1103.4,818.2v-12.6M1106.4,811h0M1106.4,809.8h0M1106.4,813.4h0M1106.4,811h0M1105.8,808h.6M1106.4,815.2h-.6M1106.4,811h0M1106.4,811v-1.2M1106.4,813.4v-1.2"/>
    <path class="st3" d="M1106.4,812.2v-1.2M1106.4,815.2h0M1106.4,808.6v-.6M1106.4,815.2v-1.8M1106.4,809.8v-1.2M1106.4,813.4h0M1106.4,809.8h0M1106.4,813.4v-1.8M1106.4,811.6v-1.8M1105.8,806.2v10.8M1078.8,862.6v4.2l21,21h-21"/>
    <path class="st3" d="M1120.8,887.8h-42M1078.2,887.8v-27.6M1078.2,860.2h-3M1075.2,860.2v27.6M999.6,770.8h28.2M1141.2,911.8v2.4"/>
    <path class="st3" d="M1141.2,909.4v1.8M1141.2,907v1.8"/>
    <path class="st3" d="M1106.4,787.6v-.6M1106.4,787h-.6M1105.8,787v1.8M1105.8,788.8h.6M1106.4,788.8v-.6M1105.8,784v2.4M1105.8,789.4v2.4M1106.4,788.8v-1.8M1106.4,788.8v-.6M1106.4,787.6v-.6M1105.8,788.8h.6M1106.4,787h-.6"/>
    <path class="st3" d="M1181.4,1033.6v14.4M1181.4,1048h.6M1217.4,1048h.6M1218,1048v-14.4M1222.8,1033.6v-40.8M1222.8,992.8h7.2M1230,992.8v-30M1230,960.4h0M1230,960.4h-7.2M1222.8,960.4v-127.8M1222.8,832.6h7.2M1230,832.6v-.6M1230,829v-29.4M1230,799.6h-7.2M1222.8,799.6v-74.4M1222.8,725.2h7.2M1230,725.2v-.6M1230,722.2v-28.2M1230,692.8v-.6M1230,692.2h-7.2M1222.8,692.2v-77.4M1216.2,614.8v-15M1216.2,599.8h0M1178.4,599.8h-.6M1177.8,599.8v15M1173.6,614.8v112.8M1173.6,727.6h-7.2M1166.4,727.6v31.2M1166.4,759.4v.6M1166.4,760h7.2M1173.6,760v70.8M1173.6,830.8h-7.2M1166.4,830.8v.6M1166.4,833.8v28.2M1166.4,863.2h0M1166.4,863.2h7.2M1173.6,863.2v90.6M1173.6,953.8h-7.2M1166.4,953.8h0M1166.4,956.2v28.2M1166.4,985.6v.6M1166.4,986.2h7.2M1173.6,986.2v47.4M1057.8,662.2h61.8M1058.4,662.2h60M1119.6,662.8h-61.8M1118.4,662.8h-60M1057.8,662.8v-.6M1057.8,662.2h61.8M1058.4,662.2h60M1119.6,662.8h-61.8M1118.4,662.8h-60M1057.8,662.8v-.6M1057.8,662.2h61.8M1058.4,662.2h60M1119.6,662.8h-61.8M1118.4,662.8h-60M1057.8,662.8v-.6M1119.6,652h-.6M1117.8,652h-60M1117.8,652h-59.4M1057.8,650.8h60M1119,650.8h.6M1058.4,650.8h59.4M1057.8,652v-1.2M1119.6,652h-.6M1117.8,652h-60M1117.8,652h-59.4M1057.8,650.8h60M1119,650.8h.6M1058.4,650.8h59.4M1057.8,652v-1.2M1119.6,652h-.6M1117.8,652h-60M1117.8,652h-59.4M1057.8,650.8h60M1119,650.8h.6M1058.4,650.8h59.4M1057.8,652v-1.2M1119.6,652h-.6M1117.8,652h-60M1117.8,652h-59.4M1057.8,650.8h60M1119,650.8h.6M1058.4,650.8h59.4M1057.8,652v-1.2M1119.6,650.8v1.2M1119.6,652h-.6M1117.8,652h-60M1117.8,652h-59.4M1057.8,650.8h60M1119,650.8h.6M1058.4,650.8h59.4M1057.8,652v-1.2M1119.6,652h-.6M1117.8,652h-60M1117.8,652h-59.4M1057.8,650.8h60M1119,650.8h.6M1058.4,650.8h59.4M1057.8,652v-1.2M1058.4,653.8v6.6M1058.4,652.6v8.4M1057.2,661v-8.4M1057.2,660.4v-6.6M1058.4,661h-1.2M1057.2,652.6h1.2M1058.4,653.8v6.6M1058.4,652.6v8.4M1057.2,661v-8.4M1057.2,660.4v-6.6M1058.4,661h-1.2M1057.2,652.6h1.2M1058.4,653.8v6.6M1058.4,652.6v8.4M1057.2,661v-8.4M1057.2,660.4v-6.6M1058.4,661h-1.2M1057.2,652.6h1.2M1119,700h-27.6M1117.8,700h-25.2M1091.4,699.4h27.6M1092.6,699.4h25.2M1091.4,700v-.6M1119,700v-.6M1091.4,699.4h27.6M1092.6,699.4h25.2M1091.4,699.4h27.6M1092.6,699.4h25.2M1091.4,699.4h27.6M1092.6,699.4h25.2M1091.4,699.4h27.6M1092.6,699.4h25.2M1091.4,699.4h27.6M1092.6,699.4h25.2M1091.4,699.4h27.6M1092.6,699.4h25.2M1091.4,699.4h27.6M1092.6,699.4h25.2M1058.4,653.8v6.6M1058.4,652.6v8.4M1057.2,661v-8.4M1057.2,660.4v-6.6M1058.4,661h-1.2M1057.2,652.6h1.2M1058.4,652.6v8.4M1058.4,653.8v6.6M1057.2,661v-8.4M1057.2,660.4v-6.6M1058.4,652.6h-1.2M1057.2,661h1.2M1058.4,652.6v8.4M1058.4,653.8v6.6M1057.2,661v-8.4M1057.2,660.4v-6.6M1058.4,652.6h-1.2M1057.2,661h1.2M1058.4,652.6v8.4M1058.4,653.8v6.6M1057.2,661v-8.4M1057.2,660.4v-6.6M1058.4,652.6h-1.2M1057.2,661h1.2M1058.4,652.6v8.4M1058.4,653.8v6.6M1057.2,661v-8.4M1057.2,660.4v-6.6M1058.4,652.6h-1.2M1057.2,661h1.2M1117.8,616v1.2M1117.8,617.2h1.2M1119,617.2v-1.2M1119,616h-1.2M1117.8,660.4v.6M1117.8,661h1.2M1119,661v-.6M1119,660.4h-1.2M1117.8,660.4v-43.2M1117.8,660.4h1.2M1119,617.2h-1.2M1119,617.2v43.2M1117.8,661v-8.4M1117.8,660.4v-6.6M1119,652.6v8.4M1119,653.8v6.6M1117.8,661h1.2"/>
    <path class="st3" d="M1117.8,661v-8.4M1117.8,660.4v-6.6M1119,652.6v8.4M1119,653.8v6.6M1117.8,661h1.2M1117.8,661v-8.4M1117.8,660.4v-6.6M1119,652.6v8.4M1119,653.8v6.6M1117.8,661h1.2M1117.8,661v-8.4M1117.8,660.4v-6.6M1119,652.6v8.4M1119,653.8v6.6M1117.8,661h1.2M1117.8,661v-8.4M1117.8,660.4v-6.6M1119,652.6v8.4M1119,653.8v6.6M1117.8,661h1.2M1117.8,661v-8.4M1117.8,660.4v-6.6M1119,652.6v8.4M1119,653.8v6.6M1117.8,661h1.2M1117.8,661v-8.4M1117.8,660.4v-6.6M1119,652.6v8.4M1119,653.8v6.6M1117.8,661h1.2M1057.8,662.2h61.8M1058.4,662.2h60M1119.6,662.8h-61.8M1118.4,662.8h-60M1119.6,662.2v.6M1057.8,662.8v-.6M1057.8,662.2h61.8M1058.4,662.2h60M1119.6,662.8h-61.8M1118.4,662.8h-60M1057.8,662.8v-.6M1057.8,662.2h61.8M1058.4,662.2h60M1119.6,662.8h-61.8M1118.4,662.8h-60M1057.8,662.8v-.6M1057.8,662.2h61.8M1058.4,662.2h60M1119.6,662.8h-61.8M1118.4,662.8h-60M1057.8,662.8v-.6M1057.8,662.2h61.8M1058.4,662.2h60M1119.6,662.8h-61.8M1118.4,662.8h-60M1057.8,662.8v-.6M1119.6,652h-.6M1117.8,652h-60M1117.8,652h-59.4M1057.8,650.8h60M1119,650.8h.6M1058.4,650.8h59.4M1057.8,652v-1.2M1119.6,652h-.6M1117.8,652h-60M1117.8,652h-59.4M1057.8,650.8h60M1119,650.8h.6M1058.4,650.8h59.4M1057.8,650.8v1.2M1260.6,757.6h-21M1282.2,778.6v-21M1282.2,757.6h-42.6M1259.4,722.2l-.6-1.8M1258.8,720.4v-.6M1260.6,749.8h-21"/>
    <path class="st3" d="M1282.2,728.8v21M1282.2,749.8h-42.6M1260.6,1033.6h-21M1282.2,1012v21.6M1282.2,1033.6h-42.6M1084.2,896.8h57M1105.8,773.8v51M1105.8,824.8h.6M1106.4,824.2v-50.4M1106.4,773.8h-.6M1105.8,774.4h57M1089.6,750.4h-7.2M1082.4,706h-13.2M1082.4,707.2v-1.2M1082.4,706v1.2M1089.6,706h-7.2M1082.4,706h7.2M1021.2,706h61.2M1089.6,703.6v-.6M1021.2,706v57.6M1026,706h-4.8M1082.4,707.2v5.4M1082.4,712.6v-5.4M1082.4,712.6v31.8M1082.4,744.4v-31.8M1082.4,744.4v5.4M1082.4,749.8v-5.4M1023.6,763.6h0M1027.8,763.6h-4.2M1027.8,763.6h0M1023.6,763.6h4.2M1021.2,763.6h2.4M1082.4,763.6h-61.2M1082.4,751v12.6M1082.4,749.8v.6M1082.4,763.6v-13.8M1074,763.6h8.4M1042.2,706h-1.8M1042.2,706.6v-.6M1040.4,706.6h1.8M1042.2,706.6h-1.8M1042.2,706v.6M1040.4,706h1.8M1026,706.6h1.8M1026,706v.6M1027.8,706h-1.8M1026,706h1.8M1026,706.6v-.6M1027.8,706.6h-1.8M1027.8,709.6h12.6M1027.8,706v3.6M1040.4,706h-12.6M1040.4,709.6v-3.6M1027.8,709.6h12.6M1027.8,706v3.6M1040.4,706h-12.6M1040.4,709.6v-3.6M1065.6,707.2v-1.2M1065.6,706v1.2M1069.2,706h-3.6M1069.2,707.2v-1.2M1069.2,706v1.2M1065.6,706h3.6M1057.8,706h7.8M1080,712.6h2.4M1080,711.4v1.2M1078.2,711.4h1.8"/>
    <path class="st3" d="M1078.2,710.8v.6M1078.8,710.8h-.6M1078.8,711.4v-.6M1080,711.4h-1.2M1080,712v-.6M1082.4,712h-2.4M1082.4,707.2v4.8M1081.8,707.2h.6M1081.8,707.2h0M1081.8,707.2h0M1081.8,707.2h0M1078.2,707.2h3.6M1078.2,710.8v-3.6M1078.2,729.4h1.8M1078.2,712v17.4M1080,712h-1.8M1080,729.4v-17.4M1081.8,749.8h.6M1081.8,749.2v.6M1081.8,749.2h0M1081.8,749.2h0M1082.4,749.2h-.6M1082.4,744.4v4.8M1081.2,744.4h1.2M1081.2,745.6v-1.2M1081.2,745.6h0M1080,745.6h1.2M1080,728.2v17.4M1081.2,728.2h-1.2M1081.2,745.6v-17.4M1081.2,744.4v1.2M1082.4,744.4h-1.2M1082.4,712.6v31.8M1082.4,707.2v5.4M1081.8,707.2h.6M1082.4,749.8v-5.4M1082.4,762.4v-12.6M1078.2,762.4h4.2M1078.2,729.4v33M1078.2,711.4v.6M1078.8,711.4h3M1078.8,709.6v1.8M1080.6,707.2l-1.8,2.4M1081.8,709l-1.2-1.8M1081.8,711.4v-2.4M1082.4,712.6h1.8M1082.4,712.6h0M1084.2,712.6h-1.8M1084.2,707.2v5.4M1082.4,707.2h1.8M1082.4,707.2h0M1084.2,707.2h-1.8M1084.2,712.6v-5.4M1084.2,749.8h-1.8M1084.2,744.4v5.4M1082.4,744.4h1.8M1082.4,744.4h0M1084.2,744.4h-1.8M1084.2,749.8v-5.4M1082.4,749.8h1.8M1082.4,749.8h0M1073.4,744.4v-31.8M1073.4,751h0M1073.4,744.4v6.6M1074,744.4h-.6M1074,745v-.6M1074,745h0M1074,744.4v.6M1073.4,744.4h.6M1073.4,751v-6.6M1073.4,711.4h-15M1073.4,712v-.6M1074.6,712h-1.2M1074.6,711.4v.6M1077,711.4h-2.4M1077,710.8v.6M1077.6,710.8h-.6M1077.6,712v-1.2M1074.6,712h3M1074.6,712.6v-.6M1073.4,712.6h1.2M1073.4,712v.6M1073.4,751v-39M1073.4,751h0M1073.4,712v39M1073.4,712h0M1073.4,751h0M1073.4,751h0M1058.4,751h15M1023.6,751h30.6M1023.6,711.4v39.6M1054.2,711.4h-30.6M1072.2,715.6v-1.2M1071.6,715.6h.6M1071.6,714.4v1.2M1072.2,714.4h-.6M1026,748h45.6M1026,746.8v1.2M1071.6,746.8h-45.6M1071.6,748v-1.2M1026,715.6v-1.2M1026,746.8v-31.2M1024.8,746.8h1.2M1024.8,715.6v31.2M1026,715.6h-1.2M1024.8,715.6h1.2M1024.8,714.4v1.2M1026,714.4h-1.2M1026,715.6v-1.2M1071.6,715.6h-45.6M1071.6,714.4v1.2M1026,714.4h45.6M1024.8,748h1.2M1024.8,746.8v1.2M1026,746.8h-1.2M1026,748v-1.2M1052.4,722.2h13.8M1052.4,716.2v6M1066.2,716.2h-13.8M1066.2,722.2v-6M1071.6,748h.6M1071.6,746.8v1.2M1072.2,746.8h-.6M1072.2,748v-1.2M1058.4,752.2v-4.2M1054.2,752.2h4.2M1054.2,748v4.2M1054.2,710.8v3.6M1058.4,710.8h-4.2M1058.4,714.4v-3.6M1033.8,710.8h19.2M1033.8,710.8h0M1053,710.8h-19.2M1053,710.8h0M1053,710.8h0M1053,710.8h0M1053,710.8h0M1035,710.8h18M1035,709.6v1.2M1054.2,709h-.6M1054.2,710.2v-1.2M1054.2,709v1.2M1054.2,709h0M1054.2,710.2v-1.2M1054.2,753.4v-1.2M1054.2,753.4h0M1054.2,752.2v1.2M1054.2,753.4v-1.2M1053.6,753.4h.6M1033.8,752.2h19.2M1033.8,752.2h0M1053,752.2h-19.2M1053,752.2h0M1035,753.4h18M1035,752.2v1.2M1053,752.2h-18M1053,752.2h0M1053,752.2h0M1053,752.2h0M1054.2,710.8h-1.2M1059,710.8h-.6M1058.4,751.6h.6M1053,751.6h1.2M1059,709v1.8M1059,709h0M1059,710.8v-1.8M1053,709h0M1053,709h0M1053,709h0M1053,710.8h0M1053,710.8h0M1059,754v-2.4M1059,754h0M1059,751.6v2.4M1053,751.6v.6M1053,752.2v-.6M1053,754v-.6M1053,754h0M1053,753.4v.6M1053,710.8h0M1053,752.2v-.6M1044.6,751.6v.6M1044.6,710.8h0M1045.8,752.2v-.6M1045.8,751.6v.6M1045.8,710.8h0M1045.8,710.8h0M1045.8,752.2v-.6M1045.8,751.6v.6M1045.8,710.8h0M1045.8,710.8h0M1051.8,752.2v-.6M1051.8,751.6v.6M1051.8,710.8h0M1051.8,710.8h0M1051.8,710.8h0M1051.8,710.8h0M1051.8,751.6v.6M1051.8,752.2v-.6M1050.6,748v3"/>
    <path class="st3" d="M1050.6,715.6v31.2M1050.6,712v2.4M1053,746.8v-24.6M1053,722.2v24.6M1053,716.2v-.6M1053,715.6v.6M1059,748v3M1059,751v-3M1059,751h0M1059,748v3M1059,751v-3M1053,751h6M1053,748v3M1053,751v-3M1053,751h0M1053,748v3M1053,751v-3M1059,746.8v-24.6M1059,722.2v24.6M1059,716.2v-.6M1059,715.6v.6M1053,714.4v-2.4M1053,712v2.4M1053,712h0M1053,714.4v-2.4M1053,712v2.4M1059,712h-6M1059,714.4v-2.4M1059,712v2.4M1059,712h0M1059,714.4v-2.4M1059,712v2.4M1062,714.4v-2.4M1062,716.2v-.6M1062,746.8v-24.6M1062,751v-3M1053,746.8v-24.6M1053,722.2v24.6M1053,716.2v-.6M1053,715.6v.6M1059,715.6v.6M1059,716.2v-.6M1059,722.2v24.6M1059,746.8v-24.6M1024.2,712h28.8M1024.2,712h0M1054.2,712h-30M1073.4,712h-15M1073.4,712h0M1059,712h14.4M1024.2,751h30M1024.2,751h0M1053,751h-28.8M1073.4,751h-14.4M1073.4,751h0M1058.4,751h15M1024.2,751v-39M1024.2,712v39M1024.2,712h0M1024.2,751v-39M1024.2,751h0M1053,709h-12.6M1053.6,709h-.6M1053.6,710.2v-1.2M1059,710.2h-5.4M1059,709v1.2M1059,709h0M1059,710.8v-1.8M1053,710.8h6M1053,709v1.8M1059,752.2v1.2M1053.6,752.2h5.4M1053.6,753.4v-1.2M1053,753.4h.6M1053,752.2v1.2M1059,752.2h-6M1059,753.4v-1.2M1059,753.4h0M1072.8,707.2h-2.4M1072.8,709v-1.8M1070.4,709h2.4M1059.6,709.6h10.8M1059.6,707.2v2.4M1070.4,707.2h-10.8M1070.4,709.6v-2.4M1053,707.8h6.6M1053,706.6v1.2M1065.6,706.6h-12.6M1070.4,706.6h-1.2M1070.4,707.2v-.6M1056.6,707.8h0M1055.4,707.8h1.2M1055.4,710.2v-2.4M1055.4,710.2h0M1055.4,707.8v2.4M1054.2,707.8h1.2M1054.2,707.8h0M1056.6,707.8h-2.4M1054.2,754.6h2.4M1054.2,754.6h0M1055.4,754.6h-1.2M1055.4,752.2v2.4M1055.4,752.2h0M1055.4,754.6v-2.4M1056.6,754.6h-1.2M1056.6,754.6h0M1056,753.4v-1.2M1055.4,753.4h.6M1055.4,752.2v1.2M1055.4,752.2h0M1055.4,753.4v-1.2M1054.8,753.4h.6M1054.8,752.2v1.2M1054.8,752.2h0M1054.8,709v1.2M1055.4,709h-.6M1055.4,710.2v-1.2M1055.4,710.2h0M1055.4,709v1.2M1056,709h-.6M1056,710.2v-1.2M1056,710.2h0M1054.8,710.2h0M1056,710.2h-1.2M1056,752.2h0M1054.8,752.2h1.2M1023,751.6h31.2M1023,710.8v40.8M1054.2,710.8h-31.2M1073.4,710.8h-15M1073.4,711.4v-.6M1073.4,709.6v1.8M1077.6,709.6h-4.2M1077.6,760v-50.4M1073.4,760h4.2M1073.4,751v9M1073.4,751.6v-.6M1058.4,751.6h15M1065,760.6l.6-.6M1032,760.6h33M1032,760v.6M1032,756.4v.6M1065,756.4h-33M1065.6,757l-.6-.6M1068,759.4h0M1068,759.4h0M1068,759.4h0M1068.6,759.4h0M1068,759.4h.6M1068,757.6h0M1068.6,757.6h-.6M1068.6,757.6h0M1068,757.6h0M1029.6,757.6h0M1029,757.6h.6M1029.6,757.6h0M1029,757.6h0M1029.6,757.6h-.6M1029.6,759.4h0M1029,759.4h.6M1029,759.4h0M1029.6,759.4h0M1054.2,757h-2.4M1043.4,760h0M1045.2,760h-1.8M1045.2,757v3M1043.4,757h1.8M1043.4,757h0M1045.8,757h-2.4M1045.8,760v-3M1043.4,760h2.4M1029.6,760h13.8M1029.6,757v3M1043.4,757h-13.8M1051.8,757h-6M1051.8,760v-3M1054.2,757h0M1068,757h-13.8M1068,760v-3M1054.2,760h13.8M1054.2,760h0M1051.8,760h2.4M1051.8,757v3M1054.2,757h-2.4M1051.8,760h2.4M1045.8,760h6M1030.8,760h0M1029.6,760h1.2M1029.6,757v3M1030.8,757h-1.2M1030.8,757h0M1029.6,757h1.2M1029.6,760v-3M1030.8,760h-1.2M1068,760h-1.8M1068,757v3M1066.2,757h1.8M1066.2,757h0M1068,757h-1.8M1068,760v-3"/>
    <path class="st3" d="M1066.2,760h1.8M1066.2,760h0M1068,759.4v-1.8M1068,759.4h0M1068,758.8v.6M1068,758.8h0M1068,758.8h0M1068,758.8h0M1068,758.2v.6M1068,758.2h0M1068,758.2h0M1068,757.6v.6M1068,757.6h0M1068,757.6h0M1068.6,758.2h1.2M1068.6,758.8v-.6M1069.8,758.8h-1.2M1069.8,759.4v-.6M1068.6,759.4h1.2M1068.6,757.6v1.8M1069.8,757.6h-1.2M1069.8,758.2v-.6M1029,757.6v1.8M1029,757.6h0M1029,758.2v-.6M1029,758.2h0M1029,758.2h0M1029,758.8v-.6M1029,758.8h0M1029,758.8h0M1029,758.8h0M1029,759.4v-.6M1029,759.4h0M1029.6,759.4h-.6M1029,758.8h-1.2M1029,758.2v.6M1027.8,758.2h1.2M1027.8,757.6v.6M1029,757.6h-1.2M1029,759.4v-1.8M1027.8,759.4h1.2M1027.8,758.8v.6M1026.6,757.6v1.8M1027.2,757.6h-.6M1027.2,758.2v-.6M1029,758.2h-1.8M1029,758.8v-.6M1027.2,758.8h1.8M1027.2,759.4v-.6M1026.6,759.4h.6M1070.4,759.4h0M1070.4,758.8v.6M1068.6,758.8h1.8M1068.6,758.2v.6M1070.4,758.2h-1.8M1070.4,757.6v.6M1070.4,757.6h0M1070.4,759.4v-1.8M1069.8,763.6h-42M1069.8,763.6h0M1074,763.6h-4.2M1074,763.6h0M1069.8,763.6h4.2M1026,763.6h0M1027.8,763.6h-1.8M1027.8,763.6h0M1026,763.6h1.8M1069.8,763.6h0M1072.2,763.6h-2.4M1072.2,763.6h0M1069.8,763.6h2.4M1025.4,755.8h46.8M1025.4,754.6v1.2M1072.2,754.6h-46.8M1072.2,755.8v-1.2M1025.4,755.8v7.8M1026.6,755.8h-1.2M1026.6,763.6v-7.8M1025.4,763.6h1.2M1070.4,755.8v7.8M1072.2,755.8h-1.8M1072.2,763.6v-7.8M1070.4,763.6h1.8M1057.8,706h-4.8M1057.8,706.6v-.6M1053,707.8h0M1053,707.2v.6M1053,707.2h0M1053,707.2h0M1053,706v1.2M1042.2,706h10.8M1090.2,703.6v-.6M1090.2,703.6h0M1090.2,703.6h0M1090.2,703.6h0M1090.2,704.2v-.6M1090.2,704.2h0M1090.2,703.6v.6M1090.2,703.6h0M1090.2,703.6h0M1090.2,703.6h0M1090.2,703v.6M1090.2,703h0M1090.2,703h0M1090.2,703h0M1090.2,703h0M1090.2,703h0M1090.2,703h0M1090.2,703h0M1090.2,703.6v-.6M1090.2,703.6h0M1090.2,703.6h0M1090.2,704.2v-.6M1090.2,704.2h0M1090.2,704.2h0M1090.2,704.2h0M1090.2,703.6v.6M1090.2,703.6h0M1090.2,703.6h0M1090.2,703v.6M1090.2,703h0M1090.2,703h0M1090.2,702.4v.6M1090.2,702.4h0M1090.2,703v-.6M1090.2,703h0M1090.2,703h0M1090.2,701.8h-.6M1090.2,704.8v-3M1089.6,704.8h.6M1089.6,701.8v3M1075.8,728.8h1.2M1075.8,712v16.8M1077,712h-1.2M1077,728.8v-16.8M1074,745h1.8M1074,728.2v16.8M1075.8,728.2h-1.8M1075.8,745v-16.8M1078.8,729.4v-17.4M1079.4,729.4v-17.4M1079.4,729.4v-17.4M1080,745.6v-17.4M1080.6,745.6v-17.4M1080.6,745.6v-17.4M1076.4,728.8v-16.8M1076.4,728.8v-16.8M1077,728.8v-16.8M1074.6,745v-16.8M1075.2,745v-16.8M1075.2,745v-16.8M1065,709.6h1.8M1063.8,709.6h1.2M1062.6,709.6h1.2M1061.4,709.6h1.2M1061.4,709.6h0M1061.4,708.4v1.2M1061.4,708.4h0M1062.6,708.4h-1.2M1063.8,708.4h-1.2M1065,708.4h-1.2M1066.8,708.4h-1.8M1068,708.4h-1.2M1068.6,708.4h-.6M1069.2,708.4h-.6M1069.2,709.6v-1.2M1068.6,709.6h.6M1068,709.6h.6M1066.8,709.6h1.2M1048.2,757h0M1048.8,757h-.6M1049.4,757h-.6M1049.4,757h0M1049.4,760h0M1048.8,760h.6M1048.2,760h.6M1048.2,760h0M1051.2,757h-4.8M1051.2,757h0M1046.4,757h4.8M1046.4,760v-3M1051.2,760h-4.8M1051.2,760h0M1046.4,760h4.8M1046.4,760h0M1051.2,760h-4.8M1051.2,757v3M1046.4,757h4.8M1046.4,757h0M1056.6,757h0M1057.2,757h-.6M1057.8,757h-.6M1057.8,757h0M1057.8,760h0M1057.2,760h.6M1056.6,760h.6M1056.6,760h0M1039.8,757h0M1040.4,757h-.6M1041,757h-.6"/>
    <path class="st3" d="M1041,757h0M1041,760h0M1040.4,760h.6M1039.8,760h.6M1039.8,760h0M1042.2,757h-4.2M1042.2,757h0M1038,757h4.2M1038,760v-3M1042.2,760h-4.2M1042.2,760h0M1038,760h4.2M1038,760h0M1042.2,760h-4.2M1042.2,757v3M1038,757h4.2M1038,757h0M1059.6,757h-4.8M1059.6,757h0M1054.8,757h4.8M1054.8,760v-3M1059.6,760h-4.8M1059.6,760h0M1054.8,760h4.8M1054.8,760h0M1059.6,760h-4.8M1059.6,757v3M1054.8,757h4.8M1054.8,757h0M1089.6,707.2v43.2M1089.6,703.6h0M1089.6,703.6h0M1089.6,703v.6M1089.6,703h0M1089.6,703.6v.6M1089.6,703.6h0M1089.6,703.6h0M1089.6,703v.6M1089.6,703h0M1089.6,703h0M1089.6,701.8v3M1089.6,704.8v-3M1089.6,749.8v-21.6M1089.6,728.2v-21M1089.6,728.2v21.6M1089.6,707.2v21M1089.6,750.4v-44.4M1165.2,759.4h3M1165.2,762.4v-3M1090.8,762.4h74.4M1090.8,750.4v12M1082.4,750.4h8.4M1082.4,706.6v43.8M1090.8,706.6h-8.4M1090.8,699.4v7.2M1119.6,699.4h-28.8M1119.6,698.2v1.2M1119.6,616v48M1165.2,616h-45.6M1165.2,727.6v-111.6M1168.2,727.6h-3M1168.2,758.2v-28.8M1021.8,698.2h36M1021.8,661v31.8M1021.8,694v4.2M1056.6,664v-3M1057.8,664h-1.2M1021.8,616v36M1066.2,616h-44.4M1056.6,650.2h9.6M1056.6,652v-1.8M1119.6,664v34.2M1057.8,664v34.2M1056.6,661h-34.8M1056.6,652h-34.8M1066.2,650.2v-34.2M1119.6,650.2v-34.2M1110.6,698.2h9M1101.6,698.2h9M1093.2,698.2h8.4M1084.2,698.2h9M1075.2,698.2h9M1066.2,698.2h9M1057.8,698.2h8.4M1110.6,664h9M1101.6,664h9M1093.2,664h8.4M1084.2,664h9M1075.2,664h9M1066.2,664h9M1057.8,664h8.4M1021.8,652v9M1056.6,652v9M1075.2,616h-9M1084.2,616h-9M1093.2,616h-9M1101.6,616h-8.4M1110.6,616h-9M1119.6,616h-9M1075.2,650.2h-9M1084.2,650.2h-9M1093.2,650.2h-9M1101.6,650.2h-8.4M1110.6,650.2h-9M1119.6,650.2h-.6M1117.8,650.2h-7.2M1120.8,664v11.4M1120.8,686.8v11.4M1111.8,664v11.4M1111.8,686.8v11.4M1102.8,664v11.4M1102.8,686.8v11.4M1093.8,664v11.4M1093.8,686.8v11.4M1085.4,664v11.4M1085.4,686.8v11.4M1076.4,664v11.4M1076.4,686.8v11.4M1067.4,664v11.4M1067.4,686.8v11.4M1058.4,664v11.4M1058.4,686.8v11.4M1056.6,662.2h-12M1033.8,662.2h-12M1056.6,653.2h-12M1033.8,653.2h-12M1065.6,650.2v-11.4M1065.6,627.4v-11.4M1074,650.2v-11.4M1074,627.4v-11.4M1083,650.2v-11.4M1083,627.4v-11.4M1092,650.2v-11.4M1092,627.4v-11.4M1101,650.2v-11.4M1101,627.4v-11.4M1109.4,650.2v-11.4M1109.4,627.4v-11.4M1110.6,664v34.2M1101.6,664v34.2M1093.2,664v34.2M1084.2,664v34.2M1075.2,664v34.2M1066.2,664v34.2M1075.2,650.2v-34.2M1084.2,650.2v-34.2M1093.2,650.2v-34.2M1101.6,650.2v-34.2M1110.6,650.2v-34.2M1140.6,896.2h0M1140.6,896.2h0M1140.6,896.2h.6M1141.2,896.2h0M1141.2,896.2v.6M1141.2,896.8h0M1138.8,896.2h1.8M1138.2,896.8h0M1138.2,896.8v-.6M1138.2,896.2h0M1138.2,896.2h0M1138.2,896.2h0M1138.2,896.2h.6M1141.2,924.4h0M1141.2,924.4h0M1141.2,924.4h0M1141.2,896.8v10.2M1141.2,908.8v.6M1141.2,911.2v.6M1141.2,914.2v10.2"/>
    <path class="st3" d="M1140,896.8h-1.2M1140.6,896.2h-1.8M1138.8,896.2l-.6.6M1141.2,924.4v-10.2M1141.2,911.8v-.6M1141.2,909.4v-.6M1141.2,907v-10.2M1141.2,896.8l-.6-.6M1105.8,773.8v10.2M1105.8,786.4v.6M1105.8,788.8v.6M1105.8,791.8v9.6M1105.8,801.4v.6M1105.8,802h0M1105.8,802h0M1105.8,802h.6M1106.4,802h0M1106.4,802h0M1108.8,773.8h0M1108.8,773.8h0M1108.8,773.8h0M1108.8,773.8h0M1108.8,773.8h0M1108.8,773.8h-.6M1108.2,773.8h-1.8M1106.4,773.8h0M1106.4,773.8h0M1106.4,773.8h-.6M1105.8,773.8h0M1105.8,773.8h0M1105.8,773.8h0M1108.2,774.4h-1.2"/>
    <path class="st3" d="M1106.4,800.8v-9M1106.4,789.4v-1.2M1106.4,787.6v-1.2M1106.4,784v-9M1107,774.4h1.2M1106.4,773.8h1.8M1108.2,773.8h.6M1106.4,775l.6-.6M1105.8,801.4v-9.6M1105.8,789.4v-.6M1105.8,787v-.6M1105.8,784v-10.2M1105.8,773.8h.6M1106.4,802l-.6-.6M1233,889.6v-51.6M1233,836.2h-2.4M1230.6,836.2v55.8M1230.6,892h2.4M1233,838h3.6M1236.6,838v-1.8M1236.6,836.2h-3.6"/>
    <path class="st3" d="M1269,838h21.6M1293,836.2h-24M1269,836.2v1.8M1269,838h-.6M1267.2,838h-27.6M1237.2,838h-.6M1236.6,836.2h32.4M1269,836.2v1.8M1236.6,838v-1.8M1290.6,838v51M1290.6,892h2.4M1293,892v-52.2M1233.6,889.6h-.6M1233,892h57.6M1237.2,889.6h15M1237.2,889.6h15M1252.2,889.6h-15M1238.4,867.4l10.8-2.4M1249.2,865l9.6-6M1258.8,859l6.6-9.6M1265.4,849.4l1.8-11.4M1268.4,836.2h-1.2M1267.2,836.2v.6M1267.2,836.8h0M1267.2,836.8v1.2M1267.2,838h1.2M1268.4,838v-1.8M1237.2,836.2v1.8M1237.2,838h.6M1237.8,838v-1.2M1237.8,836.8h.6M1238.4,836.8v-.6M1238.4,836.2h-1.2M1238.4,838v29.4M1238.4,867.4h1.2M1239.6,867.4v-29.4M1239.6,838h-1.2M1236.6,838h.6M1239.6,838h27.6M1268.4,838h.6M1236.6,836.2h32.4M1290.6,857.2v-11.4"/>
    <path class="st3" d="M1290,852.4h0M1290,853.6h0M1290,850h0M1290,852.4h0M1290.6,854.8h-.6M1290,848.2h.6M1290,852.4h0M1290,852.4v.6M1290,850v1.2M1290,851.2v1.2M1290,848.2h0M1290,854.8h0M1290,848.2v1.2M1290,853.6v1.2M1290,850v-.6M1290,853.6v-.6M1290,850v1.8M1290,851.8v1.2M1293,845.2v12.6M1290,852.4h0M1290,853.6h0M1290,850h0M1290,852.4h0M1290.6,854.8h-.6M1290,848.2h.6M1290,852.4h0M1290,852.4v.6M1290,850v1.2M1290,851.2v1.2M1290,848.2h0M1290,854.8h0M1290,848.2v1.2M1290,853.6v1.2M1290,850v-.6M1290,853.6v-.6M1290,850v1.8M1290,851.8v1.2"/>
    <path class="st3" d="M1290.6,857.2v-11.4"/>
    <path class="st3" d="M1290,875.8v.6M1290,876.4h.6M1290.6,876.4v-1.8M1290.6,874.6h-.6M1290,874.6v.6M1290.6,879.4v-2.4M1290.6,874v-2.4M1290,874.6v1.8M1290,874.6v.6M1290,875.8v.6M1290.6,874.6h-.6M1290,876.4h.6M1290.6,889.6v-51.6M1290.6,838h-.6M1290,838.6v51M1290,889.6h.6M1233,838v51.6M1233,889.6h.6M1233.6,889v-50.4M1233.6,838h-.6M1290.6,889h-57M1290.6,889v-9.6M1290.6,877v-.6M1290.6,874.6v-.6M1290.6,871.6v-10.2M1290.6,861.4h0M1290.6,861.4h0"/>
    <path class="st3" d="M1290.6,861.4h0M1290.6,861.4h-.6M1290,861.4h0M1290,861.4h0M1287.6,889v.6M1287.6,889.6h0M1287.6,889.6h0M1287.6,889.6h0M1287.6,889.6h0M1287.6,889.6h.6M1288.2,889.6h1.8M1290,889.6h0M1290,889.6h0M1290,889.6h.6M1290.6,889.6h0M1290.6,889.6h0M1290.6,889.6v-.6"/>
    <path class="st3" d="M1290,862.6v9M1290,874v1.2M1290,875.8v1.2M1290,879.4v9M1289.4,889h-1.2M1290,889.6h-1.8M1288.2,889.6l-.6-.6M1290,888.4l-.6.6M1290.6,861.4v10.2M1290.6,874v.6M1290.6,876.4v.6M1290.6,879.4v9.6M1290.6,889l-.6.6M1290,861.4h.6M1230.6,615.4v55.8M1230.6,671.2h2.4M1233,669.4v-51.6M1233,615.4h-2.4M1233,671.2h3.6M1236.6,671.2v-1.8M1236.6,669.4h-3.6M1269,671.2h24M1290.6,669.4h-21.6M1269,669.4v1.8M1269,671.2h-32.4M1236.6,669.4h.6M1239.6,669.4h27.6M1268.4,669.4h.6M1269,669.4v1.8M1236.6,671.2v-1.8M1293,668.2v-52.8M1293,615.4h-2.4M1290.6,618.4v51M1290.6,615.4h-57.6M1233,617.8h.6M1237.2,617.8h15M1237.2,617.8h15"/>
    <path class="st3" d="M1252.2,617.8h-15M1238.4,640l10.8,2.4M1249.2,642.4l9.6,6M1258.8,648.4l6.6,9.6M1265.4,658l1.8,11.4M1268.4,669.4v1.8M1267.2,669.4h1.2M1267.2,670.6v-1.2M1267.2,670.6h0M1267.2,671.2v-.6M1268.4,671.2h-1.2M1238.4,671.2h-1.2M1238.4,670.6v.6M1237.8,670.6h.6M1237.8,669.4v1.2M1237.2,669.4h.6M1237.2,671.2v-1.8M1239.6,669.4h-1.2M1239.6,640v29.4M1238.4,640h1.2M1238.4,669.4v-29.4M1236.6,669.4h.6M1239.6,669.4h27.6M1268.4,669.4h.6M1236.6,671.2h32.4M1290.6,650.2v11.4"/>
    <path class="st3" d="M1290,655h0M1290,654.4h0M1290,657.4h0M1290,655h0M1290.6,652.6h-.6M1290,659.2h.6M1290,655h0M1290,655v-.6M1290,657.4v-1.2M1290,656.2v-1.2M1290,659.2h0M1290,652.6h0M1290,659.2v-1.2M1290,653.8v-1.2M1290,657.4v.6M1290,653.8v.6M1290,657.4v-1.2M1290,656.2v-1.8"/>
    <path class="st3" d="M1293,662.2v-12.6M1290,655h0M1290,654.4h0M1290,657.4h0M1290,655h0M1290.6,652.6h-.6M1290,659.2h.6M1290,655h0M1290,655v-.6M1290,657.4v-1.2M1290,656.2v-1.2M1290,659.2h0M1290,652.6h0M1290,659.2v-1.2M1290,653.8v-1.2M1290,657.4v.6M1290,653.8v.6M1290,657.4v-1.2M1290,656.2v-1.8M1290.6,650.2v11.4"/>
    <path class="st3" d="M1290.6,633.4v2.4M1290,632.8v-.6M1290.6,632.8h-.6M1290.6,631v1.8M1290,631h.6M1290,631.6v-.6"/>
    <path class="st3" d="M1290.6,628v2.4M1290,632.8v-1.8M1290,632.8v-.6M1290,631.6v-.6M1290.6,632.8h-.6M1290,631h.6M1290,617.8v51M1290,669.4h.6M1290.6,669.4v-51.6M1290.6,617.8h-.6M1290,668.8h-21M1269,668.8v.6M1269,669.4h21M1236.6,668.8h-3M1233.6,669.4h3M1236.6,669.4v-.6M1233.6,668.8v-50.4M1233.6,617.8h-.6M1233,617.8v51.6M1233,669.4h.6M1233.6,618.4h57M1290,617.8h0M1290,617.8h0M1290,617.8h.6M1290.6,617.8h0M1290.6,617.8v.6M1290.6,618.4h0M1288.2,617.8h1.8M1287.6,618.4h0M1287.6,618.4v-.6M1287.6,617.8h0M1287.6,617.8h0M1287.6,617.8h0M1287.6,617.8h.6M1290.6,646h0M1290.6,646h0M1290.6,646h0M1290.6,646h-.6M1290,646h0M1290,646h0M1290.6,618.4v9.6M1290.6,630.4v.6M1290.6,633.4h0M1290.6,635.8v10.2M1289.4,619h0"/>
    <path class="st3" d="M1290,645.4v-9.6M1290,633.4v-1.2M1290,631.6v-1.2M1290,628v-9M1289.4,618.4h-1.2M1290,617.8h-1.8M1290,619l-.6-.6M1290.6,646v-10.2M1290.6,633.4h0M1290.6,631v-.6M1290.6,628v-9.6M1290.6,618.4l-.6-.6M1155,718h-3M1147.8,718h-4.2M1139.4,718h-4.2M1131,718h-4.2M1122.6,718h-3M1119.6,718v3M1119.6,725.2v4.2M1119.6,733.6v4.2M1119.6,742v4.2M1119.6,750.4v3M1119.6,753.4h3M1126.8,753.4h4.2M1135.2,753.4h4.2M1143.6,753.4h4.2M1152,753.4h3M1155,753.4v-3M1155,746.2v-4.2M1155,737.8v-4.2M1155,729.4v-4.2M1155,721v-3M1155,718l-2.4,4.2M1150.8,726.4l-1.8,3.6M1147.2,733.6l-1.8,4.2M1143.6,741.4l-2.4,3.6M1139.4,749.2l-1.8,4.2M1119.6,718l2.4,4.2M1123.8,726.4l1.8,3.6M1127.4,733.6l1.8,4.2M1131.6,741.4l1.8,3.6M1135.2,749.2l2.4,4.2M1319.4,892.6v-3.6M1319.4,889h-3.6M1315.8,889v3.6M1315.8,892.6h3.6M1319.4,868v-28.2M1319.4,839.8h-3.6M1315.8,839.8v28.2M1315.8,868h3.6M1319.4,868v21M1315.8,889v-21M1319.4,889h-3.6M1315.8,868h3.6M1319.4,836.2h-26.4M1293,839.8h26.4M1319.4,839.8v-3.6M1315.8,614.8v3.6M1315.8,618.4h3.6M1319.4,618.4v-3.6M1319.4,614.8h-3.6M1315.8,639.4v28.8M1315.8,668.2h3.6M1319.4,668.2v-28.8M1319.4,639.4h-3.6M1315.8,639.4v-21M1319.4,618.4v21M1315.8,618.4h3.6M1319.4,639.4h-3.6M1319.4,668.2h-26.4M1293,671.2h26.4M1319.4,671.2v-3M979.8,913.6v17.4M979.8,931h42.6M1145.4,1094.8v-40.8M1132.8,1040.2v54.6M996.6,1054v40.8M1008.6,1094.8v-54.6M1403.4,597.4h-.6M1331.4,597.4h-.6M1216.2,597.4h0M1178.4,597.4h-.6M963.6,593.2h469.2M963.6,597.4v-4.2M1230.6,901v55.8M1230.6,956.8h2.4M1233,955v-51.6M1233,901h-2.4M1233,956.8h3.6M1236.6,956.8v-1.8M1236.6,955h-3.6M1269,956.8h24M1290.6,955h-21.6M1269,955v1.8M1269,956.8h-32.4M1236.6,955h.6M1239.6,955h27.6M1268.4,955h.6M1269,955v1.8M1236.6,956.8v-1.8M1293,953.8v-52.8M1293,901h-2.4M1290.6,904v51M1290.6,901h-57.6M1233,903.4h.6M1237.2,903.4h15M1237.2,903.4h15"/>
    <path class="st3" d="M1252.2,903.4h-15M1238.4,925.6l10.8,2.4M1249.2,928l9.6,6M1258.8,934l6.6,9.6M1265.4,943.6l1.8,11.4M1268.4,955v1.8M1267.2,955h1.2M1267.2,956.2v-1.2M1267.2,956.2h0M1267.2,956.8v-.6M1268.4,956.8h-1.2M1238.4,956.8h-1.2M1238.4,956.2v.6M1237.8,956.2h.6M1237.8,955v1.2M1237.2,955h.6M1237.2,956.8v-1.8M1239.6,955h-1.2M1239.6,925.6v29.4M1238.4,925.6h1.2M1238.4,955v-29.4M1236.6,955h.6M1239.6,955h27.6M1268.4,955h.6M1236.6,956.8h32.4M1290.6,935.8v11.4"/>
    <path class="st3" d="M1293,947.8v-12.6M1290.6,935.8v11.4"/>
    <path class="st3" d="M1290.6,919v2.4M1290.6,916.6v1.8"/>
    <path class="st3" d="M1290.6,913.6v2.4M1290,954.4h-21M1269,954.4v.6M1269,955h21M1236.6,954.4h-3M1233.6,955h3M1236.6,955v-.6M1233.6,954.4v-50.4M1233.6,903.4h-.6M1233,903.4v51.6M1233,955h.6M1233.6,904h57M1290,903.4h0M1290,903.4h0M1290,903.4h.6M1290.6,903.4h0M1290.6,903.4h0M1290.6,903.4v.6M1288.2,903.4h1.8M1287.6,904v-.6M1287.6,903.4h0M1287.6,903.4h0M1287.6,903.4h0M1287.6,903.4h0M1287.6,903.4h.6M1290.6,931.6h0M1290.6,931.6h0M1290.6,931.6h0M1290.6,904v9.6M1290.6,916v.6M1290.6,918.4v.6M1290.6,921.4v10.2"/>
    <path class="st3" d="M1289.4,904h-1.2M1290,903.4h-1.8M1288.2,903.4l-.6.6M1290.6,931.6v-10.2M1290.6,919v-.6M1290.6,916.6v-.6M1290.6,913.6v-9.6M1290.6,904l-.6-.6M1402.2,595.6l-5.4-3M1393.2,590.2l-4.2-2.4M1385.4,586l-3.6-2.4M1378.2,581.8l-5.4-3M1368.6,595.6v-2.4M1369.2,589l.6-2.4M1369.8,586.6l.6-1.8M1372.2,580.6l.6-1.8M1333.2,597.4v-1.8M1366.8,597.4h-33.6M1366.8,595.6v1.8M1333.2,595.6h33.6M1399.8,595.6v1.8M1370.4,595.6h29.4M1370.4,597.4v-1.8M1399.8,597.4h-29.4M1369.2,600.4h31.8M1369.2,600.4h31.8M1333.2,600.4h33.6M1401,595.6h-31.8M1399.8,595.6h-29.4M1366.8,595.6h-33.6M1369.2,598v2.4M1401,598v2.4M1399.8,598h-29.4M1401,598h-31.8M1369.2,598v2.4M1370.4,598h-1.2M1370.4,595.6v2.4M1366.8,595.6h3.6M1366.8,600.4v-4.8M1369.2,600.4h-2.4M1402.8,595.6v4.8M1399.8,595.6h3M1399.8,598v-2.4M1401,598h-1.2M1401,600.4v-2.4M1402.8,600.4h-1.8M1333.2,595.6v4.8M1331.4,595.6h1.8M1331.4,600.4v-4.8M1333.2,600.4h-1.8M1368.6,595.6h33.6M1402.2,595.6h-34.2M1402.2,595.6h-33.6M1401,595.6h-31.8M1369.2,595.6h31.8M1368,595.6h34.2M1370.4,595.6h29.4M1399.8,595.6h-29.4"/>
    <path class="st3" d="M959.4,1054h37.2M959.4,1040.2v13.8M1145.4,1054h36M1181.4,1054v-13.8M1218,1054h67.2M1285.2,1054v-13.8M1218,1040.2v13.8M1372.8,1054h64.2M1437,1054v-13.8M1372.8,1040.2v13.8M1372.8,1054h-87.6M1218,1054h-36.6M1372.8,1054v-3.6M1372.8,1050.4h0M1336.8,1050.4h-.6M1285.8,1050.4h-.6M1285.2,1050.4v3.6M1218,1054v-3.6M1218,1050.4h-.6M1182,1050.4h-.6M1181.4,1050.4v3.6M1285.2,1050.4h.6M1336.2,1050.4h.6M1372.8,1050.4h0M1181.4,1050.4h.6M1217.4,1050.4h.6M1218,1048v2.4M1423.2,635.2h13.8M1437,635.2v-42M1437,593.2h-13.8M1423.2,778h13.8M1437,778v-55.2M1437,722.8h-13.8M1423.2,920.2h13.8M1437,920.2v-54.6M1437,865.6h-13.8M1437,1040.2v-32.4M1437,1007.8h-13.8M1437,635.2v87.6M1437,778v87.6M1437,920.2v87.6M1433.4,865.6h3.6M1433.4,865.6v-.6M1433.4,829h0M1433.4,778h0M1433.4,722.8h3.6M1433.4,722.8h0M1433.4,686.8v-.6M1433.4,635.8v-.6M1433.4,1007.8h3.6M1433.4,1007.8v-.6M1433.4,920.8v-.6M1437,778h-3.6M1433.4,778h0M1433.4,829h0M1433.4,865v.6M1437,635.2h-3.6M1433.4,635.2v.6M1433.4,686.2v.6M1433.4,722.8h0M1437,920.2h-3.6M1433.4,920.2v.6M1433.4,1007.2v.6M1294.8,598v9M1294.8,607h36M1330.8,607v-9M1330.8,598h-36M1294.8,594.4v3.6M1294.8,598h36M1330.8,598v-3.6M1330.8,594.4h-36M1113.6,1061.8h3.6M1121.4,1061.8h4.2M1129.8,1061.8h3M1132.8,1082.8h-3M1125.6,1082.8h-4.2M1117.2,1082.8h-3.6M1113.6,1082.8v-4.2M1113.6,1074.4v-4.2M1113.6,1066v-4.2M1119.6,632.8h-79.8M1039.8,632.8v48M1039.8,680.8h79.8M1119.6,680.8l-7.8,4.8M1119.6,680.8l-7.8-4.8M1112.4,1035.4h-1.2"/>
    <line class="st0" x1="1261.8" y1="974.8" x2="1261.8" y2="986.2"/>
    <line class="st3" x1="1293" y1="839.8" x2="1315.8" y2="892.6"/>
    <line class="st1" x1="1143.6" y1="893.8" x2="1166.4" y2="946.6"/>
    <line class="st1" x1="1161" y1="1015.6" x2="1166.4" y2="1033.6"/>
    <line class="st1" x1="1293" y1="901" x2="1315.8" y2="953.8"/>
    <rect class="st4" x="1138.5" y="594.4" width="38.9" height="16.5"/>
    <rect class="st4" x="1289.3" y="594.7" width="41.2" height="17.5"/>
    <rect class="st4" x="1282.5" y="746.8" width="2.3" height="14.7"/>
    <rect class="st4" x="1316.3" y="837.1" width="2.9" height="11.7"/>
    <rect class="st4" x="1316.1" y="890.3" width="3" height="5.9"/>
    <rect class="st4" x="1227.2" y="889.3" width="65.5" height="14.4"/>
    <rect class="st4" x="1227.2" y="836.5" width="5.8" height="120"/>
    <rect class="st4" x="1316.1" y="951.4" width="3" height="4.4"/>
    <g class="st8">
      <g class="st8">
        <g class="st8">
          <text class="st9" transform="translate(1342 697)"><tspan x="0" y="0">7/1</tspan></text>
        </g>
      </g>
    </g>
    <g class="st8">
      <g class="st8">
        <g class="st8">
          <text class="st9" transform="translate(1342 832.9)"><tspan x="0" y="0">7/2</tspan></text>
        </g>
      </g>
    </g>
    <g class="st8">
      <g class="st8">
        <g class="st8">
          <text class="st9" transform="translate(1342 982.3)"><tspan x="0" y="0">7/3</tspan></text>
        </g>
      </g>
    </g>
    <g class="st8">
      <g class="st8">
        <g class="st8">
          <text class="st9" transform="translate(1010 982.3)"><tspan x="0" y="0">7/4</tspan></text>
        </g>
      </g>
    </g>
    <g class="st8">
      <g class="st8">
        <g class="st8">
          <text class="st9" transform="translate(1010 832.9)"><tspan x="0" y="0">7/5</tspan></text>
        </g>
      </g>
    </g>
    <g>
      <path class="st40" d="M1289.7,663.4h-10.9c-4.2,0-7.6-3-7.6-6.7s3.4-6.7,7.6-6.7h10.9v13.5h0Z"/>
      <g>
        <line class="st3" x1="1289.7" y1="663.4" x2="1278.9" y2="663.4"/>
        <path class="st3" d="M1278.9,663.4c-4.2,0-7.6-3-7.6-6.7"/>
        <path class="st3" d="M1271.3,656.7c0-3.7,3.4-6.7,7.6-6.7"/>
        <line class="st3" x1="1278.9" y1="649.9" x2="1289.7" y2="649.9"/>
        <line class="st3" x1="1289.7" y1="649.9" x2="1289.7" y2="663.4"/>
      </g>
    </g>
    <g>
      <polygon class="st40" points="1289.3 618.6 1289.7 618.6 1289.7 618.8 1289.3 618.6"/>
      <polygon class="st40" points="1261.7 618.6 1289.3 618.6 1289.7 618.8 1289.7 646.4 1289.5 646.9 1261.9 646.9 1261.4 646.7 1261.4 619.1 1261.7 618.6"/>
      <polygon class="st40" points="1261.4 618.6 1261.7 618.6 1261.4 619.1 1261.4 618.6"/>
      <polygon class="st40" points="1289.7 646.4 1289.7 646.9 1289.5 646.9 1289.7 646.4"/>
      <polygon class="st40" points="1261.4 646.7 1261.9 646.9 1261.4 646.9 1261.4 646.7"/>
    </g>
    <polyline class="st2" points="1261.9 646.9 1261.4 646.9 1261.4 646.6"/>
    <polyline class="st2" points="1289.7 646.4 1289.7 646.9 1289.5 646.9"/>
    <polyline class="st2" points="1289.3 618.6 1289.7 618.6 1289.7 618.8"/>
    <polyline class="st2" points="1261.4 619.1 1261.4 618.6 1261.7 618.6"/>
    <line class="st2" x1="1289.3" y1="618.6" x2="1261.7" y2="618.6"/>
    <line class="st2" x1="1289.7" y1="646.4" x2="1289.7" y2="618.8"/>
    <line class="st2" x1="1261.9" y1="646.9" x2="1289.5" y2="646.9"/>
    <line class="st2" x1="1261.4" y1="619.1" x2="1261.4" y2="646.6"/>
    <path class="st2" d="M1281.9,634.5c1,0,1.8-.8,1.8-1.8"/>
    <path class="st2" d="M1283.7,632.7c0-1-.8-1.8-1.8-1.8"/>
    <path class="st2" d="M1281.9,631c-1,0-1.8.8-1.8,1.8"/>
    <path class="st2" d="M1280.2,632.7c0,1,.8,1.8,1.8,1.8"/>
    <path class="st2" d="M1281.9,634.5c1,0,1.8-.8,1.8-1.8"/>
    <path class="st2" d="M1283.7,632.7c0-1-.8-1.8-1.8-1.8"/>
    <path class="st2" d="M1281.9,631c-1,0-1.8.8-1.8,1.8"/>
    <path class="st2" d="M1280.2,632.7c0,1,.8,1.8,1.8,1.8"/>
    <line class="st2" x1="1289.7" y1="632.8" x2="1281.9" y2="632.8"/>
    <path class="st40" d="M1254.7,618.5v11.8c0,.3,0,.5-.3.5h-16c-.2,0-.3-.2-.3-.5v-11.8h16.6Z"/>
    <line class="st2" x1="1254.7" y1="618.5" x2="1254.7" y2="630.4"/>
    <path class="st2" d="M1254.7,630.4c0,.3,0,.5-.3.5"/>
    <line class="st2" x1="1254.4" y1="630.8" x2="1238.5" y2="630.8"/>
    <path class="st2" d="M1238.5,630.8c-.2,0-.3-.2-.3-.5"/>
    <line class="st2" x1="1238.1" y1="630.4" x2="1238.1" y2="618.5"/>
    <line class="st2" x1="1242.3" y1="630.8" x2="1250.2" y2="630.8"/>
    <line class="st2" x1="1238.1" y1="622.2" x2="1238.1" y2="626.6"/>
    <line class="st2" x1="1250.2" y1="630.8" x2="1242.3" y2="630.8"/>
    <line class="st2" x1="1238.1" y1="626.6" x2="1238.1" y2="622.2"/>
    <line class="st2" x1="1250.2" y1="630.8" x2="1242.3" y2="630.8"/>
    <line class="st2" x1="1238.1" y1="626.6" x2="1238.1" y2="622.2"/>
    <line class="st2" x1="1242.3" y1="630.8" x2="1250.2" y2="630.8"/>
    <line class="st2" x1="1238.1" y1="622.2" x2="1238.1" y2="626.6"/>
    <line class="st2" x1="1250.2" y1="630.8" x2="1242.3" y2="630.8"/>
    <line class="st2" x1="1238.1" y1="626.6" x2="1238.1" y2="622.2"/>
    <line class="st2" x1="1250.2" y1="630.8" x2="1242.3" y2="630.8"/>
    <line class="st2" x1="1254.4" y1="623" x2="1254.4" y2="629.9"/>
    <path class="st2" d="M1254.4,629.9c0,.3-.2.5-.3.5"/>
    <line class="st2" x1="1254.1" y1="630.4" x2="1238.8" y2="630.4"/>
    <path class="st2" d="M1238.8,630.4c-.2,0-.3-.2-.3-.5"/>
    <line class="st2" x1="1238.5" y1="629.9" x2="1238.5" y2="623"/>
    <path class="st2" d="M1238.5,623c0-.3.2-.5.3-.5"/>
    <line class="st2" x1="1238.8" y1="622.5" x2="1254.1" y2="622.5"/>
    <path class="st2" d="M1254.1,622.5c.2,0,.3.2.3.5"/>
    <path class="st2" d="M1245.8,626.5c0-.4.3-.7.7-.7s.7.3.7.7-.3.7-.7.7-.7-.3-.7-.7h0Z"/>
    <path class="st2" d="M1245.2,626.5c0-.7.6-1.2,1.2-1.2s1.2.6,1.2,1.2-.6,1.2-1.2,1.2-1.2-.6-1.2-1.2h0Z"/>
    <path class="st2" d="M1245.5,620.4c0-.5.4-.9.9-.9s.9.4.9.9-.4.9-.9.9-.9-.4-.9-.9h0Z"/>
    <g>
      <path class="st40" d="M1289.7,843.8h-10.9c-4.2,0-7.6,3-7.6,6.7s3.4,6.7,7.6,6.7h10.9v-13.5h0Z"/>
      <g>
        <line class="st3" x1="1289.7" y1="843.8" x2="1278.8" y2="843.8"/>
        <path class="st3" d="M1278.8,843.8c-4.2,0-7.6,3-7.6,6.7"/>
        <path class="st3" d="M1271.3,850.5c0,3.7,3.4,6.7,7.6,6.7"/>
        <line class="st3" x1="1278.8" y1="857.2" x2="1289.7" y2="857.2"/>
        <line class="st3" x1="1289.7" y1="857.2" x2="1289.7" y2="843.8"/>
      </g>
    </g>
    <g>
      <polygon class="st40" points="1289.2 888.6 1289.7 888.6 1289.7 888.3 1289.2 888.6"/>
      <polygon class="st40" points="1261.7 888.6 1289.2 888.6 1289.7 888.3 1289.7 860.7 1289.5 860.3 1261.9 860.3 1261.4 860.5 1261.4 888.1 1261.7 888.6"/>
      <polygon class="st40" points="1261.4 888.6 1261.7 888.6 1261.4 888.1 1261.4 888.6"/>
      <polygon class="st40" points="1289.7 860.7 1289.7 860.3 1289.5 860.3 1289.7 860.7"/>
      <polygon class="st40" points="1261.4 860.5 1261.9 860.3 1261.4 860.3 1261.4 860.5"/>
    </g>
    <polyline class="st2" points="1261.9 860.3 1261.4 860.3 1261.4 860.5"/>
    <polyline class="st2" points="1289.7 860.7 1289.7 860.3 1289.5 860.3"/>
    <polyline class="st2" points="1289.2 888.6 1289.7 888.6 1289.7 888.3"/>
    <polyline class="st2" points="1261.4 888.1 1261.4 888.6 1261.7 888.6"/>
    <line class="st2" x1="1289.2" y1="888.6" x2="1261.7" y2="888.6"/>
    <line class="st2" x1="1289.7" y1="860.7" x2="1289.7" y2="888.3"/>
    <line class="st2" x1="1261.9" y1="860.3" x2="1289.5" y2="860.3"/>
    <line class="st2" x1="1261.4" y1="888.1" x2="1261.4" y2="860.5"/>
    <path class="st2" d="M1281.9,872.7c1,0,1.8.8,1.8,1.8"/>
    <path class="st2" d="M1283.7,874.5c0,1-.8,1.8-1.8,1.8"/>
    <path class="st2" d="M1281.9,876.2c-1,0-1.8-.8-1.8-1.8"/>
    <path class="st2" d="M1280.1,874.5c0-1,.8-1.8,1.8-1.8"/>
    <path class="st2" d="M1281.9,872.7c1,0,1.8.8,1.8,1.8"/>
    <path class="st2" d="M1283.7,874.5c0,1-.8,1.8-1.8,1.8"/>
    <path class="st2" d="M1281.9,876.2c-1,0-1.8-.8-1.8-1.8"/>
    <path class="st2" d="M1280.1,874.5c0-1,.8-1.8,1.8-1.8"/>
    <line class="st2" x1="1289.7" y1="874.4" x2="1281.9" y2="874.4"/>
    <path class="st40" d="M1254.7,888.6v-11.8c0-.3,0-.5-.3-.5h-16c-.2,0-.3.2-.3.5v11.8h16.6Z"/>
    <line class="st2" x1="1254.7" y1="888.6" x2="1254.7" y2="876.8"/>
    <path class="st2" d="M1254.7,876.8c0-.3,0-.5-.3-.5"/>
    <line class="st2" x1="1254.4" y1="876.3" x2="1238.4" y2="876.3"/>
    <path class="st2" d="M1238.4,876.3c-.2,0-.3.2-.3.5"/>
    <line class="st2" x1="1238.1" y1="876.8" x2="1238.1" y2="888.6"/>
    <line class="st2" x1="1242.3" y1="876.3" x2="1250.2" y2="876.3"/>
    <line class="st2" x1="1238.1" y1="885" x2="1238.1" y2="880.5"/>
    <line class="st2" x1="1250.2" y1="876.3" x2="1242.3" y2="876.3"/>
    <line class="st2" x1="1238.1" y1="880.5" x2="1238.1" y2="885"/>
    <line class="st2" x1="1250.2" y1="876.3" x2="1242.3" y2="876.3"/>
    <line class="st2" x1="1238.1" y1="880.5" x2="1238.1" y2="885"/>
    <line class="st2" x1="1242.3" y1="876.3" x2="1250.2" y2="876.3"/>
    <line class="st2" x1="1238.1" y1="885" x2="1238.1" y2="880.5"/>
    <line class="st2" x1="1250.2" y1="876.3" x2="1242.3" y2="876.3"/>
    <line class="st2" x1="1238.1" y1="880.5" x2="1238.1" y2="885"/>
    <line class="st2" x1="1250.2" y1="876.3" x2="1242.3" y2="876.3"/>
    <line class="st2" x1="1254.4" y1="884.2" x2="1254.4" y2="877.3"/>
    <path class="st2" d="M1254.4,877.3c0-.3-.2-.5-.3-.5"/>
    <line class="st2" x1="1254.1" y1="876.8" x2="1238.8" y2="876.8"/>
    <path class="st2" d="M1238.8,876.8c-.2,0-.3.2-.3.5"/>
    <line class="st2" x1="1238.4" y1="877.3" x2="1238.4" y2="884.2"/>
    <path class="st2" d="M1238.4,884.2c0,.3.2.5.3.5"/>
    <line class="st2" x1="1238.8" y1="884.7" x2="1254.1" y2="884.7"/>
    <path class="st2" d="M1254.1,884.7c.2,0,.3-.2.3-.5"/>
    <path class="st2" d="M1245.8,880.6c0,.4.3.7.7.7s.7-.3.7-.7-.3-.7-.7-.7-.7.3-.7.7h0Z"/>
    <path class="st2" d="M1245.2,880.6c0,.7.6,1.2,1.2,1.2s1.2-.6,1.2-1.2-.6-1.2-1.2-1.2-1.2.6-1.2,1.2h0Z"/>
    <path class="st2" d="M1245.5,886.8c0,.5.4.9.9.9s.9-.4.9-.9-.4-.9-.9-.9-.9.4-.9.9h0Z"/>
    <g>
      <path class="st40" d="M1290.3,949.2h-10.9c-4.2,0-7.6-3-7.6-6.7s3.4-6.7,7.6-6.7h10.9v13.5h0Z"/>
      <g>
        <line class="st3" x1="1290.3" y1="949.2" x2="1279.4" y2="949.2"/>
        <path class="st3" d="M1279.4,949.2c-4.2,0-7.6-3-7.6-6.7"/>
        <path class="st3" d="M1271.9,942.5c0-3.7,3.4-6.7,7.6-6.7"/>
        <line class="st3" x1="1279.4" y1="935.8" x2="1290.3" y2="935.8"/>
        <line class="st3" x1="1290.3" y1="935.8" x2="1290.3" y2="949.2"/>
      </g>
    </g>
    <g>
      <polygon class="st40" points="1289.8 904.4 1290.3 904.4 1290.3 904.7 1289.8 904.4"/>
      <polygon class="st40" points="1262.3 904.4 1289.8 904.4 1290.3 904.7 1290.3 932.3 1290.1 932.7 1262.5 932.7 1262 932.5 1262 904.9 1262.3 904.4"/>
      <polygon class="st40" points="1262 904.4 1262.3 904.4 1262 904.9 1262 904.4"/>
      <polygon class="st40" points="1290.3 932.3 1290.3 932.7 1290.1 932.7 1290.3 932.3"/>
      <polygon class="st40" points="1262 932.5 1262.5 932.7 1262 932.7 1262 932.5"/>
    </g>
    <polyline class="st2" points="1262.5 932.7 1262 932.7 1262 932.5"/>
    <polyline class="st2" points="1290.3 932.3 1290.3 932.7 1290.1 932.7"/>
    <polyline class="st2" points="1289.8 904.4 1290.3 904.4 1290.3 904.7"/>
    <polyline class="st2" points="1262 904.9 1262 904.4 1262.3 904.4"/>
    <line class="st2" x1="1289.8" y1="904.4" x2="1262.3" y2="904.4"/>
    <line class="st2" x1="1290.3" y1="932.3" x2="1290.3" y2="904.7"/>
    <line class="st2" x1="1262.5" y1="932.7" x2="1290.1" y2="932.7"/>
    <line class="st2" x1="1262" y1="904.9" x2="1262" y2="932.5"/>
    <path class="st2" d="M1282.5,920.3c1,0,1.8-.8,1.8-1.8"/>
    <path class="st2" d="M1284.2,918.5c0-1-.8-1.8-1.8-1.8"/>
    <path class="st2" d="M1282.5,916.8c-1,0-1.8.8-1.8,1.8"/>
    <path class="st2" d="M1280.7,918.5c0,1,.8,1.8,1.8,1.8"/>
    <path class="st2" d="M1282.5,920.3c1,0,1.8-.8,1.8-1.8"/>
    <path class="st2" d="M1284.2,918.5c0-1-.8-1.8-1.8-1.8"/>
    <path class="st2" d="M1282.5,916.8c-1,0-1.8.8-1.8,1.8"/>
    <path class="st2" d="M1280.7,918.5c0,1,.8,1.8,1.8,1.8"/>
    <line class="st2" x1="1290.3" y1="918.6" x2="1282.5" y2="918.6"/>
    <path class="st40" d="M1255.3,904.4v11.8c0,.3,0,.5-.3.5h-16c-.2,0-.3-.2-.3-.5v-11.8h16.6Z"/>
    <line class="st2" x1="1255.3" y1="904.4" x2="1255.3" y2="916.2"/>
    <path class="st2" d="M1255.3,916.2c0,.3,0,.5-.3.5"/>
    <line class="st2" x1="1255" y1="916.7" x2="1239.1" y2="916.7"/>
    <path class="st2" d="M1239.1,916.7c-.2,0-.3-.2-.3-.5"/>
    <line class="st2" x1="1238.7" y1="916.2" x2="1238.7" y2="904.4"/>
    <line class="st2" x1="1242.9" y1="916.7" x2="1250.8" y2="916.7"/>
    <line class="st2" x1="1238.7" y1="908" x2="1238.7" y2="912.5"/>
    <line class="st2" x1="1250.8" y1="916.7" x2="1242.9" y2="916.7"/>
    <line class="st2" x1="1238.7" y1="912.5" x2="1238.7" y2="908"/>
    <line class="st2" x1="1250.8" y1="916.7" x2="1242.9" y2="916.7"/>
    <line class="st2" x1="1238.7" y1="912.5" x2="1238.7" y2="908"/>
    <line class="st2" x1="1242.9" y1="916.7" x2="1250.8" y2="916.7"/>
    <line class="st2" x1="1238.7" y1="908" x2="1238.7" y2="912.5"/>
    <line class="st2" x1="1250.8" y1="916.7" x2="1242.9" y2="916.7"/>
    <line class="st2" x1="1238.7" y1="912.5" x2="1238.7" y2="908"/>
    <line class="st2" x1="1250.8" y1="916.7" x2="1242.9" y2="916.7"/>
    <line class="st2" x1="1255" y1="908.8" x2="1255" y2="915.7"/>
    <path class="st2" d="M1255,915.7c0,.3-.2.5-.3.5"/>
    <line class="st2" x1="1254.7" y1="916.2" x2="1239.4" y2="916.2"/>
    <path class="st2" d="M1239.4,916.2c-.2,0-.3-.2-.3-.5"/>
    <line class="st2" x1="1239.1" y1="915.7" x2="1239.1" y2="908.8"/>
    <path class="st2" d="M1239.1,908.8c0-.3.2-.5.3-.5"/>
    <line class="st2" x1="1239.4" y1="908.3" x2="1254.7" y2="908.3"/>
    <path class="st2" d="M1254.7,908.3c.2,0,.3.2.3.5"/>
    <path class="st2" d="M1246.4,912.4c0-.4.3-.7.7-.7s.7.3.7.7-.3.7-.7.7-.7-.3-.7-.7h0Z"/>
    <path class="st2" d="M1245.8,912.4c0-.7.6-1.2,1.2-1.2s1.2.6,1.2,1.2-.6,1.2-1.2,1.2-1.2-.6-1.2-1.2h0Z"/>
    <path class="st2" d="M1246.1,906.2c0-.5.4-.9.9-.9s.9.4.9.9-.4.9-.9.9-.9-.4-.9-.9h0Z"/>
    <g>
      <path class="st40" d="M1140.9,942h-10.9c-4.2,0-7.6-3-7.6-6.7s3.4-6.7,7.6-6.7h10.9v13.5h0Z"/>
      <g>
        <line class="st3" x1="1140.9" y1="942" x2="1130" y2="942"/>
        <path class="st3" d="M1130,942c-4.2,0-7.6-3-7.6-6.7"/>
        <path class="st3" d="M1122.4,935.3c0-3.7,3.4-6.7,7.6-6.7"/>
        <line class="st3" x1="1130" y1="928.6" x2="1140.9" y2="928.6"/>
        <line class="st3" x1="1140.9" y1="928.6" x2="1140.9" y2="942"/>
      </g>
    </g>
    <g>
      <polygon class="st40" points="1140.4 897.2 1140.9 897.2 1140.9 897.5 1140.4 897.2"/>
      <polygon class="st40" points="1112.8 897.2 1140.4 897.2 1140.9 897.5 1140.9 925.1 1140.6 925.5 1113 925.5 1112.6 925.3 1112.6 897.7 1112.8 897.2"/>
      <polygon class="st40" points="1112.6 897.2 1112.8 897.2 1112.6 897.7 1112.6 897.2"/>
      <polygon class="st40" points="1140.9 925.1 1140.9 925.5 1140.6 925.5 1140.9 925.1"/>
      <polygon class="st40" points="1112.6 925.3 1113 925.5 1112.6 925.5 1112.6 925.3"/>
    </g>
    <polyline class="st2" points="1113 925.5 1112.6 925.5 1112.6 925.3"/>
    <polyline class="st2" points="1140.9 925.1 1140.9 925.5 1140.6 925.5"/>
    <polyline class="st2" points="1140.4 897.2 1140.9 897.2 1140.9 897.5"/>
    <polyline class="st2" points="1112.6 897.7 1112.6 897.2 1112.8 897.2"/>
    <line class="st2" x1="1140.4" y1="897.2" x2="1112.8" y2="897.2"/>
    <line class="st2" x1="1140.9" y1="925.1" x2="1140.9" y2="897.5"/>
    <line class="st2" x1="1113" y1="925.5" x2="1140.6" y2="925.5"/>
    <line class="st2" x1="1112.6" y1="897.7" x2="1112.6" y2="925.3"/>
    <path class="st2" d="M1133.1,913.1c1,0,1.8-.8,1.8-1.8"/>
    <path class="st2" d="M1134.8,911.3c0-1-.8-1.8-1.8-1.8"/>
    <path class="st2" d="M1133.1,909.6c-1,0-1.8.8-1.8,1.8"/>
    <path class="st2" d="M1131.3,911.3c0,1,.8,1.8,1.8,1.8"/>
    <path class="st2" d="M1133.1,913.1c1,0,1.8-.8,1.8-1.8"/>
    <path class="st2" d="M1134.8,911.3c0-1-.8-1.8-1.8-1.8"/>
    <path class="st2" d="M1133.1,909.6c-1,0-1.8.8-1.8,1.8"/>
    <path class="st2" d="M1131.3,911.3c0,1,.8,1.8,1.8,1.8"/>
    <line class="st2" x1="1140.9" y1="911.4" x2="1133" y2="911.4"/>
    <path class="st40" d="M1105.8,897.2v11.8c0,.3,0,.5-.3.5h-16c-.2,0-.3-.2-.3-.5v-11.8h16.6Z"/>
    <line class="st2" x1="1105.8" y1="897.2" x2="1105.8" y2="909"/>
    <path class="st2" d="M1105.8,909c0,.3,0,.5-.3.5"/>
    <line class="st2" x1="1105.6" y1="909.5" x2="1089.6" y2="909.5"/>
    <path class="st2" d="M1089.6,909.5c-.2,0-.3-.2-.3-.5"/>
    <line class="st2" x1="1089.2" y1="909" x2="1089.2" y2="897.2"/>
    <line class="st2" x1="1093.5" y1="909.5" x2="1101.4" y2="909.5"/>
    <line class="st2" x1="1089.2" y1="900.8" x2="1089.2" y2="905.3"/>
    <line class="st2" x1="1101.4" y1="909.5" x2="1093.5" y2="909.5"/>
    <line class="st2" x1="1089.2" y1="905.3" x2="1089.2" y2="900.8"/>
    <line class="st2" x1="1101.4" y1="909.5" x2="1093.5" y2="909.5"/>
    <line class="st2" x1="1089.2" y1="905.3" x2="1089.2" y2="900.8"/>
    <line class="st2" x1="1093.5" y1="909.5" x2="1101.4" y2="909.5"/>
    <line class="st2" x1="1089.2" y1="900.8" x2="1089.2" y2="905.3"/>
    <line class="st2" x1="1101.4" y1="909.5" x2="1093.5" y2="909.5"/>
    <line class="st2" x1="1089.2" y1="905.3" x2="1089.2" y2="900.8"/>
    <line class="st2" x1="1101.4" y1="909.5" x2="1093.5" y2="909.5"/>
    <line class="st2" x1="1105.6" y1="901.6" x2="1105.6" y2="908.5"/>
    <path class="st2" d="M1105.6,908.5c0,.3-.2.5-.3.5"/>
    <line class="st2" x1="1105.2" y1="909" x2="1089.9" y2="909"/>
    <path class="st2" d="M1089.9,909c-.2,0-.3-.2-.3-.5"/>
    <line class="st2" x1="1089.6" y1="908.5" x2="1089.6" y2="901.6"/>
    <path class="st2" d="M1089.6,901.6c0-.3.2-.5.3-.5"/>
    <line class="st2" x1="1089.9" y1="901.1" x2="1105.2" y2="901.1"/>
    <path class="st2" d="M1105.2,901.1c.2,0,.3.2.3.5"/>
    <path class="st2" d="M1096.9,905.2c0-.4.3-.7.7-.7s.7.3.7.7-.3.7-.7.7-.7-.3-.7-.7h0Z"/>
    <path class="st2" d="M1096.3,905.2c0-.7.6-1.2,1.2-1.2s1.2.6,1.2,1.2-.6,1.2-1.2,1.2-1.2-.6-1.2-1.2h0Z"/>
    <path class="st2" d="M1096.6,899c0-.5.4-.9.9-.9s.9.4.9.9-.4.9-.9.9-.9-.4-.9-.9h0Z"/>
    <rect class="st11" x="1230.4" y="728.3" width="51.6" height="21"/>
    <rect class="st2" x="1236" y="729.9" width="10.3" height="17.6"/>
    <line class="st2" x1="1241.3" y1="745.5" x2="1241.3" y2="740.8"/>
    <line class="st2" x1="1241.3" y1="736.6" x2="1241.3" y2="732"/>
    <line class="st2" x1="1243.6" y1="734.3" x2="1238.9" y2="734.3"/>
    <line class="st2" x1="1243.6" y1="743.1" x2="1238.9" y2="743.1"/>
    <line class="st2" x1="1270.1" y1="746.4" x2="1270.1" y2="743.2"/>
    <rect class="st2" x="1261.1" y="729.8" width="17.9" height="17.8"/>
    <rect class="st2" x="1264.1" y="732.8" width="11.9" height="11.9"/>
    <rect class="st11" x="1230.4" y="757.9" width="51.6" height="21"/>
    <rect class="st2" x="1236" y="759.7" width="10.3" height="17.6"/>
    <line class="st2" x1="1241.3" y1="761.7" x2="1241.3" y2="766.4"/>
    <line class="st2" x1="1241.3" y1="770.6" x2="1241.3" y2="775.2"/>
    <line class="st2" x1="1243.6" y1="772.9" x2="1238.9" y2="772.9"/>
    <line class="st2" x1="1243.6" y1="764.1" x2="1238.9" y2="764.1"/>
    <line class="st2" x1="1270.1" y1="760.8" x2="1270.1" y2="764"/>
    <rect class="st2" x="1261.1" y="759.6" width="17.9" height="17.8"/>
    <rect class="st2" x="1264.1" y="762.5" width="11.9" height="11.9"/>
    <rect class="st11" x="1230.3" y="1012.3" width="51.6" height="21"/>
    <rect class="st2" x="1235.8" y="1013.9" width="10.3" height="17.6"/>
    <line class="st2" x1="1241.1" y1="1029.5" x2="1241.1" y2="1024.8"/>
    <line class="st2" x1="1241.1" y1="1020.7" x2="1241.1" y2="1016"/>
    <line class="st2" x1="1243.4" y1="1018.3" x2="1238.8" y2="1018.3"/>
    <line class="st2" x1="1243.4" y1="1027.1" x2="1238.8" y2="1027.1"/>
    <line class="st2" x1="1269.9" y1="1030.4" x2="1269.9" y2="1027.2"/>
    <rect class="st2" x="1261" y="1013.8" width="17.9" height="17.8"/>
    <rect class="st2" x="1264" y="1016.8" width="11.9" height="11.9"/>
    <rect class="st11" x="1078.6" y="866.5" width="51.6" height="21"/>
    <rect class="st2" x="1084.1" y="868.1" width="10.3" height="17.6"/>
    <line class="st2" x1="1089.4" y1="883.7" x2="1089.4" y2="879"/>
    <line class="st2" x1="1089.4" y1="874.9" x2="1089.4" y2="870.2"/>
    <line class="st2" x1="1091.7" y1="872.6" x2="1087" y2="872.6"/>
    <line class="st2" x1="1091.7" y1="881.3" x2="1087" y2="881.3"/>
    <line class="st2" x1="1118.2" y1="884.6" x2="1118.2" y2="881.4"/>
    <rect class="st2" x="1109.2" y="868" width="17.9" height="17.8"/>
    <rect class="st2" x="1112.2" y="871" width="11.9" height="11.9"/>
    <line class="st3" x1="1315.8" y1="614.8" x2="1293" y2="668.2"/>
    <g>
      <path class="st40" d="M1106.8,819.4h10.9c4.2,0,7.6-3,7.6-6.7s-3.4-6.7-7.6-6.7h-10.9v13.5h0Z"/>
      <g>
        <line class="st3" x1="1106.8" y1="819.4" x2="1117.7" y2="819.4"/>
        <path class="st3" d="M1117.7,819.4c4.2,0,7.6-3,7.6-6.7"/>
        <path class="st3" d="M1125.3,812.7c0-3.7-3.4-6.7-7.6-6.7"/>
        <line class="st3" x1="1117.7" y1="805.9" x2="1106.8" y2="805.9"/>
        <line class="st3" x1="1106.8" y1="805.9" x2="1106.8" y2="819.4"/>
      </g>
    </g>
    <g>
      <polygon class="st40" points="1107.3 774.6 1106.8 774.6 1106.8 774.8 1107.3 774.6"/>
      <polygon class="st40" points="1134.9 774.6 1107.3 774.6 1106.8 774.8 1106.8 802.4 1107.1 802.9 1134.7 802.9 1135.1 802.7 1135.1 775.1 1134.9 774.6"/>
      <polygon class="st40" points="1135.1 774.6 1134.9 774.6 1135.1 775.1 1135.1 774.6"/>
      <polygon class="st40" points="1106.8 802.4 1106.8 802.9 1107.1 802.9 1106.8 802.4"/>
      <polygon class="st40" points="1135.1 802.7 1134.7 802.9 1135.1 802.9 1135.1 802.7"/>
    </g>
    <polyline class="st2" points="1134.7 802.9 1135.1 802.9 1135.1 802.6"/>
    <polyline class="st2" points="1106.8 802.4 1106.8 802.9 1107.1 802.9"/>
    <polyline class="st2" points="1107.3 774.6 1106.8 774.6 1106.8 774.8"/>
    <polyline class="st2" points="1135.1 775.1 1135.1 774.6 1134.9 774.6"/>
    <line class="st2" x1="1107.3" y1="774.6" x2="1134.9" y2="774.6"/>
    <line class="st2" x1="1106.8" y1="802.4" x2="1106.8" y2="774.8"/>
    <line class="st2" x1="1134.7" y1="802.9" x2="1107.1" y2="802.9"/>
    <line class="st2" x1="1135.1" y1="775.1" x2="1135.1" y2="802.6"/>
    <path class="st2" d="M1114.7,790.5c-1,0-1.8-.8-1.8-1.8"/>
    <path class="st2" d="M1112.9,788.7c0-1,.8-1.8,1.8-1.8"/>
    <path class="st2" d="M1114.7,787c1,0,1.8.8,1.8,1.8"/>
    <path class="st2" d="M1116.4,788.7c0,1-.8,1.8-1.8,1.8"/>
    <path class="st2" d="M1114.7,790.5c-1,0-1.8-.8-1.8-1.8"/>
    <path class="st2" d="M1112.9,788.7c0-1,.8-1.8,1.8-1.8"/>
    <path class="st2" d="M1114.7,787c1,0,1.8.8,1.8,1.8"/>
    <path class="st2" d="M1116.4,788.7c0,1-.8,1.8-1.8,1.8"/>
    <line class="st2" x1="1106.8" y1="788.8" x2="1114.7" y2="788.8"/>
    <path class="st40" d="M1141.8,774.5v11.8c0,.3,0,.5.3.5h16c.2,0,.3-.2.3-.5v-11.8h-16.6Z"/>
    <line class="st2" x1="1141.8" y1="774.5" x2="1141.8" y2="786.4"/>
    <path class="st2" d="M1141.8,786.4c0,.3,0,.5.3.5"/>
    <line class="st2" x1="1142.1" y1="786.8" x2="1158.1" y2="786.8"/>
    <path class="st2" d="M1158.1,786.8c.2,0,.3-.2.3-.5"/>
    <line class="st2" x1="1158.4" y1="786.4" x2="1158.4" y2="774.5"/>
    <line class="st2" x1="1154.2" y1="786.8" x2="1146.3" y2="786.8"/>
    <line class="st2" x1="1158.4" y1="778.2" x2="1158.4" y2="782.6"/>
    <line class="st2" x1="1146.3" y1="786.8" x2="1154.2" y2="786.8"/>
    <line class="st2" x1="1158.4" y1="782.6" x2="1158.4" y2="778.2"/>
    <line class="st2" x1="1146.3" y1="786.8" x2="1154.2" y2="786.8"/>
    <line class="st2" x1="1158.4" y1="782.6" x2="1158.4" y2="778.2"/>
    <line class="st2" x1="1154.2" y1="786.8" x2="1146.3" y2="786.8"/>
    <line class="st2" x1="1158.4" y1="778.2" x2="1158.4" y2="782.6"/>
    <line class="st2" x1="1146.3" y1="786.8" x2="1154.2" y2="786.8"/>
    <line class="st2" x1="1158.4" y1="782.6" x2="1158.4" y2="778.2"/>
    <line class="st2" x1="1146.3" y1="786.8" x2="1154.2" y2="786.8"/>
    <line class="st2" x1="1142.1" y1="779" x2="1142.1" y2="785.9"/>
    <path class="st2" d="M1142.1,785.9c0,.3.2.5.3.5"/>
    <line class="st2" x1="1142.5" y1="786.4" x2="1157.7" y2="786.4"/>
    <path class="st2" d="M1157.7,786.4c.2,0,.3-.2.3-.5"/>
    <line class="st2" x1="1158.1" y1="785.9" x2="1158.1" y2="779"/>
    <path class="st2" d="M1158.1,779c0-.3-.2-.5-.3-.5"/>
    <line class="st2" x1="1157.7" y1="778.5" x2="1142.5" y2="778.5"/>
    <path class="st2" d="M1142.5,778.5c-.2,0-.3.2-.3.5"/>
    <path class="st2" d="M1150.8,782.5c0-.4-.3-.7-.7-.7s-.7.3-.7.7.3.7.7.7.7-.3.7-.7h0Z"/>
    <path class="st2" d="M1151.4,782.5c0-.7-.6-1.2-1.2-1.2s-1.2.6-1.2,1.2.6,1.2,1.2,1.2,1.2-.6,1.2-1.2h0Z"/>
    <path class="st2" d="M1151.1,776.4c0-.5-.4-.9-.9-.9s-.9.4-.9.9.4.9.9.9.9-.4.9-.9h0Z"/>
    <polyline class="st11" points="1113.9 1033.3 1113.9 1012.3 1157.1 1012.3 1157.1 1033.3"/>
    <rect class="st2" x="1144.5" y="1014" width="10.3" height="17.6"/>
    <line class="st2" x1="1149.4" y1="1029.6" x2="1149.4" y2="1024.9"/>
    <line class="st2" x1="1149.4" y1="1020.7" x2="1149.4" y2="1016.1"/>
    <line class="st2" x1="1147.1" y1="1018.4" x2="1151.8" y2="1018.4"/>
    <line class="st2" x1="1147.1" y1="1027.2" x2="1151.8" y2="1027.2"/>
    <line class="st2" x1="1125.3" y1="1030.5" x2="1125.3" y2="1027.3"/>
    <rect class="st2" x="1116.4" y="1013.9" width="17.9" height="17.8"/>
    <rect class="st2" x="1119.3" y="1016.9" width="11.9" height="11.9"/>
    <rect class="st4" x="1282.5" y="1029.8" width="2.4" height="5.8"/>
    <rect class="st4" x="1272.9" y="1052.9" width="1.2" height="2.8"/>
    <rect class="st4" x="1382.1" y="1052.2" width="1.2" height="3.9"/>
    <rect class="st4" x="1111.5" y="1028.6" width="1.8" height="8.8"/>
    <rect class="st4" x="1081.5" y="948.4" width="2.4" height="4.1"/>
    <rect class="st4" x="1077.9" y="891.3" width="4.5" height="44.6"/>
    <rect class="st4" x="1080.6" y="890.8" width="62.7" height="5.7"/>
    <rect class="st4" x="1164.1" y="767.7" width="6.5" height="59.2"/>
    <rect class="st4" x="1103.8" y="768.4" width="62.3" height="4.2"/>
    <rect class="st4" x="1073.1" y="768.7" width="2.4" height="4.2"/>
    <rect class="st4" x="961.8" y="593.5" width="4.9" height="4.9"/>
    <rect class="st4" x="957.5" y="621.2" width="5.3" height="1.2"/>
    <rect class="st4" x="1225.8" y="610.9" width="66.8" height="7.2"/>
    <rect class="st4" x="1228.2" y="615.8" width="3.5" height="55.1"/>
    <rect class="st4" x="1165.2" y="1012.3" width="4.2" height="3"/>
    <rect class="st4" x="1157.8" y="1031.7" width="3" height="5.7"/>
  </g>
  <rect class="st40" x="2140.5" y="0" width="259.5" height="259.5"/>
  <g>
    <polygon class="st6" points="2101.4 336.9 2109.2 327.4 2109.5 285.4 2101.4 336.9"/>
    <polygon class="st6" points="2109.2 327.4 2116.9 337 2109.5 285.4 2109.2 327.4"/>
  </g>
  <g class="st8">
    <g class="st8">
      <g class="st8">
        <text class="st10" transform="translate(2093.8 277.1)"><tspan x="0" y="0">N</tspan></text>
      </g>
    </g>
  </g>
  <polygon id="STR-7-01" class="st7" points="1437 625.6 1437 635.3 1430.2 635.3 1430.2 601 1230.2 601 1230.2 753 1430.2 753 1430.2 722.8 1437 722.8 1437 733 1485 733 1485 625.6 1437 625.6"/>
  <polygon id="STR-7-05" class="st7" points="966.6 769.8 966.6 790.5 959.4 790.5 959.4 622.6 915 622.6 915 790.5 915 862.9 915 874 959.4 874 959.4 862.9 966.6 862.9 966.6 933.7 1079.1 933.7 1079.1 890.5 1166.7 890.5 1166.7 769.8 966.6 769.8"/>
  <polygon id="STR-7-02" class="st7" points="1437 767.8 1437 778 1429.6 778 1429.6 754.8 1229.6 754.8 1229.6 896.8 1429.6 896.8 1429.6 865.6 1437 865.6 1437 875.2 1474.2 875.2 1474.2 865.6 1474.2 778 1474.2 767.8 1437 767.8"/>
  <polygon id="STR-7-03" class="st7" points="1430 1047 1430 899.8 1229.9 899.8 1229.9 1047 1285.1 1047 1285.1 1054 1274.4 1054 1274.4 1102 1381.8 1102 1381.8 1054 1372.8 1054 1372.8 1047 1430 1047"/>
  <polygon id="STR-7-04" class="st7" points="1079.1 890.5 1079.1 933.7 966.6 933.7 966.6 937.5 915.1 937.5 915.1 1027.3 966.6 1027.3 966.6 1044.4 1002.6 1044.4 1002.6 1100.8 1139.1 1100.6 1139.1 1044.4 1166.4 1044.4 1166.4 890.5 1079.1 890.5"/>
</svg>