<?xml version="1.0" encoding="UTF-8"?>
<svg id="Layer_1" xmlns="http://www.w3.org/2000/svg" xmlns:xlink="http://www.w3.org/1999/xlink" version="1.1" viewBox="0 0 1200 1697.14">
  <!-- Generator: Adobe Illustrator 29.6.0, SVG Export Plug-In . SVG Version: 2.1.1 Build 207)  -->
  <defs>
    <style>
      .st0, .st1, .st2, .st3 {
        fill: none;
      }

      .st1 {
        stroke-width: .14px;
      }

      .st1, .st2, .st3 {
        stroke-linecap: round;
        stroke-linejoin: round;
      }

      .st1, .st3 {
        stroke: #000;
      }

      .st2 {
        stroke: #c1c0bf;
      }

      .st2, .st3 {
        stroke-width: .08px;
      }

      .st4 {
        clip-path: url(#clippath-17);
      }

      .st5 {
        clip-path: url(#clippath-11);
      }

      .st6 {
        clip-path: url(#clippath-16);
      }

      .st7 {
        clip-path: url(#clippath-10);
      }

      .st8 {
        clip-path: url(#clippath-15);
      }

      .st9 {
        clip-path: url(#clippath-13);
      }

      .st10 {
        clip-path: url(#clippath-14);
      }

      .st11 {
        clip-path: url(#clippath-12);
      }

      .st12 {
        clip-path: url(#clippath-1);
      }

      .st13 {
        clip-path: url(#clippath-3);
      }

      .st14 {
        clip-path: url(#clippath-4);
      }

      .st15 {
        clip-path: url(#clippath-2);
      }

      .st16 {
        clip-path: url(#clippath-7);
      }

      .st17 {
        clip-path: url(#clippath-6);
      }

      .st18 {
        clip-path: url(#clippath-9);
      }

      .st19 {
        clip-path: url(#clippath-8);
      }

      .st20 {
        clip-path: url(#clippath-5);
      }

      .st21 {
        fill: #fff;
      }

      .st22 {
        fill: #ece9e5;
      }

      .st23 {
        fill: #302c35;
      }

      .st24 {
        clip-path: url(#clippath);
      }
    </style>
    <clipPath id="clippath">
      <rect class="st0" x="744.3" y="1068.98" width="28.6" height="39.22"/>
    </clipPath>
    <clipPath id="clippath-1">
      <rect class="st0" x="301.14" y="441.48" width="661.73" height="814.19"/>
    </clipPath>
    <clipPath id="clippath-2">
      <rect class="st0" x="301.14" y="441.48" width="661.73" height="814.19"/>
    </clipPath>
    <clipPath id="clippath-3">
      <rect class="st0" x="815.72" y="987.52" width="27.52" height="37.12"/>
    </clipPath>
    <clipPath id="clippath-4">
      <rect class="st0" x="301.14" y="441.48" width="661.73" height="814.19"/>
    </clipPath>
    <clipPath id="clippath-5">
      <rect class="st0" x="301.14" y="441.48" width="661.73" height="814.19"/>
    </clipPath>
    <clipPath id="clippath-6">
      <rect class="st0" x="642.15" y="747.11" width="112.44" height="139.85"/>
    </clipPath>
    <clipPath id="clippath-7">
      <rect class="st0" x="301.14" y="441.48" width="661.73" height="814.19"/>
    </clipPath>
    <clipPath id="clippath-8">
      <rect class="st0" x="301.14" y="441.48" width="661.73" height="814.19"/>
    </clipPath>
    <clipPath id="clippath-9">
      <rect class="st0" x="426.19" y="872.67" width="95.76" height="98.7"/>
    </clipPath>
    <clipPath id="clippath-10">
      <rect class="st0" x="301.14" y="441.48" width="661.73" height="814.19"/>
    </clipPath>
    <clipPath id="clippath-11">
      <rect class="st0" x="301.14" y="441.48" width="661.73" height="814.19"/>
    </clipPath>
    <clipPath id="clippath-12">
      <rect class="st0" x="301.14" y="441.48" width="661.73" height="814.19"/>
    </clipPath>
    <clipPath id="clippath-13">
      <rect class="st0" x="301.14" y="441.48" width="661.73" height="814.19"/>
    </clipPath>
    <clipPath id="clippath-14">
      <rect class="st0" x="301.14" y="441.48" width="661.73" height="814.19"/>
    </clipPath>
    <clipPath id="clippath-15">
      <rect class="st0" x="301.14" y="441.48" width="661.73" height="814.19"/>
    </clipPath>
    <clipPath id="clippath-16">
      <rect class="st0" x="301.14" y="441.48" width="661.73" height="814.19"/>
    </clipPath>
    <clipPath id="clippath-17">
      <rect class="st0" x="301.14" y="441.48" width="661.73" height="814.19"/>
    </clipPath>
  </defs>
  <rect class="st22" x="538.2" y="495.55" width="280.49" height="251.8"/>
  <rect class="st22" x="491.11" y="962.02" width="371.78" height="220.41"/>
  <rect class="st22" x="369.77" y="790.36" width="391.7" height="329.29"/>
  <rect class="st22" x="488.92" y="700.43" width="270.87" height="111.39"/>
  <rect class="st21" x="553.94" y="704.82" width="91.56" height="11.81"/>
  <rect class="st21" x="359.98" y="814" width="23.96" height="237.8"/>
  <rect class="st21" x="533.54" y="1046.23" width="49.74" height="102.3"/>
  <rect class="st21" x="424.11" y="1043.53" width="99.92" height="54.17"/>
  <polygon class="st21" points="722.09 959.25 732.57 961.09 734.98 961.03 736.4 959.81 744.92 911.35 743.98 909.88 741.76 908.84 731.28 906.99 722.09 959.25"/>
  <polygon class="st21" points="696.93 900.95 694.49 901.17 693.39 902.29 684.87 950.75 685.49 952.33 687.74 953.21 722.09 959.25 731.28 907 696.93 900.95"/>
  <line class="st3" x1="722.09" y1="959.25" x2="731.28" y2="907"/>
  <line class="st3" x1="741.76" y1="908.84" x2="743.98" y2="909.88"/>
  <line class="st3" x1="743.98" y1="909.88" x2="744.92" y2="911.35"/>
  <line class="st3" x1="732.57" y1="961.09" x2="734.98" y2="961.03"/>
  <line class="st3" x1="734.98" y1="961.03" x2="736.39" y2="959.81"/>
  <line class="st3" x1="696.93" y1="900.96" x2="694.49" y2="901.18"/>
  <line class="st3" x1="694.49" y1="901.18" x2="693.39" y2="902.29"/>
  <line class="st3" x1="687.74" y1="953.21" x2="685.49" y2="952.33"/>
  <line class="st3" x1="685.49" y1="952.33" x2="684.87" y2="950.75"/>
  <polyline class="st3" points="687.74 953.21 722.09 959.25 732.57 961.09"/>
  <line class="st3" x1="736.4" y1="959.81" x2="744.92" y2="911.35"/>
  <polyline class="st3" points="741.76 908.84 731.28 906.99 696.93 900.96"/>
  <line class="st3" x1="693.39" y1="902.29" x2="684.87" y2="950.75"/>
  <g class="st24">
    <path class="st21" d="M744.3,1108.18c0-7.71,0-15.42,0-23.12,0-8.89,6.41-16.09,14.31-16.08,7.9,0,14.29,7.21,14.28,16.1,0,7.7,0,15.42-.02,23.12-9.52,0-19.05-.02-28.58-.02"/>
  </g>
  <g class="st12">
    <path class="st3" d="M744.3,1108.18c0-7.71,0-15.42,0-23.12,0-8.89,6.41-16.09,14.31-16.08,7.9,0,14.29,7.21,14.28,16.1,0,7.7,0,15.42-.02,23.12-9.52,0-19.05-.02-28.58-.02Z"/>
  </g>
  <rect class="st21" x="780.49" y="1044.95" width="62.49" height="63.21"/>
  <polyline class="st3" points="780.49 1108.16 780.49 1044.95 786.66 1044.95"/>
  <line class="st3" x1="780.49" y1="1108.16" x2="842.48" y2="1108.16"/>
  <line class="st3" x1="842.98" y1="1107.12" x2="842.98" y2="1045.51"/>
  <polyline class="st3" points="842.98 1107.12 842.98 1108.16 842.48 1108.16"/>
  <polyline class="st3" points="842.04 1044.95 842.98 1044.95 842.98 1045.51"/>
  <line class="st3" x1="842.04" y1="1044.95" x2="786.66" y2="1044.95"/>
  <line class="st3" x1="810.79" y1="1108.16" x2="810.79" y2="1090.6"/>
  <g class="st15">
    <path class="st3" d="M806.94,1090.69c0,2.17,1.76,3.93,3.93,3.93s3.93-1.76,3.93-3.93-1.76-3.93-3.93-3.93-3.93,1.76-3.93,3.93Z"/>
    <path class="st3" d="M806.94,1090.69c0,2.17,1.76,3.93,3.93,3.93s3.93-1.76,3.93-3.93-1.76-3.93-3.93-3.93-3.93,1.76-3.93,3.93Z"/>
  </g>
  <g class="st13">
    <path class="st21" d="M817.85,988.14h15.49c.59,0,1.06.35,1.06.79v34.13c0,.43-.47.78-1.06.78h-15.49c-.6,0-1.07-.35-1.07-.78v-34.13c0-.44.47-.79,1.07-.79M825.32,1003.19c-1.55,0-2.8,1.26-2.8,2.81s1.25,2.8,2.8,2.8,2.8-1.25,2.8-2.8-1.25-2.81-2.8-2.81"/>
    <path class="st21" d="M837.03,1005.99c0-1.17.94-2.11,2.1-2.11s2.11.94,2.11,2.11-.94,2.1-2.11,2.1-2.1-.94-2.1-2.1"/>
    <path class="st21" d="M825.32,1004.49c.83,0,1.51.68,1.51,1.51s-.68,1.51-1.51,1.51-1.51-.68-1.51-1.51.68-1.51,1.51-1.51"/>
    <path class="st21" d="M826.83,1005.99c0-.83-.68-1.51-1.51-1.51s-1.51.68-1.51,1.51.68,1.51,1.51,1.51,1.51-.68,1.51-1.51M825.32,1003.19c1.55,0,2.8,1.26,2.8,2.81s-1.25,2.8-2.8,2.8-2.8-1.25-2.8-2.8,1.25-2.81,2.8-2.81"/>
    <path class="st21" d="M841.24,1005.99c0-1.17-.95-2.11-2.11-2.11s-2.1.95-2.1,2.11.94,2.1,2.1,2.1,2.11-.93,2.11-2.1M833.35,988.14h-15.5c-.59,0-1.07.35-1.07.79v34.13c0,.43.48.78,1.07.78h15.5c.59,0,1.06-.35,1.06-.78v-34.13c0-.44-.47-.79-1.06-.79M816.79,987.52h26.45v37.12h-26.45c-.59,0-1.07-.35-1.07-.79v-35.7c0-.34.48-.62,1.07-.62"/>
  </g>
  <g class="st14">
    <path class="st3" d="M839.13,1008.1c-1.17,0-2.1-.94-2.1-2.1s.94-2.11,2.1-2.11,2.11.94,2.11,2.11-.94,2.1-2.11,2.1Z"/>
    <path class="st3" d="M825.32,1008.79c-1.55,0-2.8-1.25-2.8-2.8s1.25-2.81,2.8-2.81,2.8,1.26,2.8,2.81-1.25,2.8-2.8,2.8Z"/>
    <path class="st3" d="M825.32,1007.5c-.83,0-1.51-.68-1.51-1.51s.68-1.51,1.51-1.51,1.51.68,1.51,1.51-.68,1.51-1.51,1.51Z"/>
    <path class="st3" d="M833.35,988.14h-15.5c-.59,0-1.07.35-1.07.79v34.13c0,.43.48.78,1.07.78h15.5c.59,0,1.06-.35,1.06-.78v-34.13c0-.44-.47-.79-1.06-.79Z"/>
  </g>
  <line class="st3" x1="835.06" y1="1024.64" x2="843.24" y2="1024.64"/>
  <g class="st20">
    <path class="st3" d="M843.24,987.52h-26.45c-.59,0-1.07.28-1.07.62v35.7c0,.44.48.79,1.07.79h8.38"/>
  </g>
  <line class="st3" x1="835.06" y1="1024.64" x2="825.17" y2="1024.64"/>
  <line class="st3" x1="843.24" y1="1024.64" x2="843.24" y2="987.52"/>
  <line class="st3" x1="542.03" y1="1125.85" x2="552.7" y2="1125.85"/>
  <rect class="st3" x="535.49" y="1048.08" width="47.78" height="98.56"/>
  <line class="st3" x1="568.68" y1="1062.41" x2="568.68" y2="1072.85"/>
  <line class="st3" x1="549.07" y1="1062.41" x2="549.07" y2="1072.85"/>
  <line class="st3" x1="554.22" y1="1067.56" x2="543.79" y2="1067.56"/>
  <line class="st3" x1="573.97" y1="1067.56" x2="563.54" y2="1067.56"/>
  <rect class="st3" x="539.2" y="1056.43" width="39.36" height="22.95"/>
  <rect class="st3" x="546.28" y="1112.51" width="26.55" height="26.54"/>
  <rect class="st3" x="539.68" y="1105.91" width="39.75" height="39.89"/>
  <g class="st17">
    <path class="st21" d="M642.15,747.34l111.66-.22.16,28.66h-.11s-13.96-1.41-13.96-1.41l-.14-16.39c-.08-2.24-1.73-3.95-3.97-3.86l-75.95.33c-1.88.13-3.57,1.77-3.85,3.97l.16,7.46-13.91-1.41-.09-17.13Z"/>
    <path class="st21" d="M735.8,754.11c2.24-.09,3.88,1.61,3.97,3.85l.13,16.39-83.75-8.48-.16-7.47c.28-2.2,1.98-3.84,3.85-3.97l75.95-.32Z"/>
    <polygon class="st21" points="753.86 775.77 753.97 775.77 754.6 886.38 642.89 886.97 642.24 764.47 656.15 765.87 739.9 774.36 753.86 775.77"/>
  </g>
  <line class="st3" x1="754.6" y1="886.38" x2="642.89" y2="886.97"/>
  <polyline class="st3" points="753.81 747.11 753.97 775.77 754.6 886.38"/>
  <line class="st3" x1="642.15" y1="747.34" x2="753.81" y2="747.11"/>
  <polyline class="st3" points="642.89 886.97 642.24 764.47 642.15 747.34"/>
  <polyline class="st3" points="642.19 764.46 642.24 764.46 656.15 765.87 739.9 774.36 753.86 775.77"/>
  <line class="st3" x1="735.8" y1="754.11" x2="659.85" y2="754.44"/>
  <line class="st3" x1="655.99" y1="758.41" x2="656.15" y2="765.87"/>
  <g class="st16">
    <path class="st3" d="M659.85,754.44c-1.88.13-3.57,1.77-3.86,3.97"/>
  </g>
  <line class="st3" x1="739.77" y1="757.97" x2="739.9" y2="774.36"/>
  <g class="st19">
    <path class="st3" d="M739.77,757.97c-.08-2.24-1.73-3.95-3.97-3.85"/>
  </g>
  <g class="st18">
    <path class="st21" d="M500.11,971.37c-.43,0-.43-.43,0-.43,0-.42.42-.42.42-.84.42,0,.42-.42.84-.42.84-.42,2.1-.84,3.36-1.26.84-.42,1.26-1.68.84-2.52,0-.42-.42-.84-.84-.42-4.98,1.24-9.95.85-14.11-1.18,5.28-2.21,10.07-5.49,14.11-9.74,4.39-4.17,7.73-9.25,9.94-14.76l.14.05c1.68,4.62,2.1,9.66.84,14.29,0,.42.42.84.84.84.84.42,1.68,0,2.52-.84.42-.84.84-2.1.84-3.37q.43-.42.85-.42c0-.42.42-.42.42-.84h.84c-2.11,11.34-10.5,20.16-21.84,21.85"/>
    <path class="st21" d="M448.03,970.94c.42,0,0,.43,0,.43-11.34-1.69-19.74-10.5-21.84-21.85h.84c0,.42.42.42.42.84q.42,0,.84.42c0,1.27.42,2.53.84,3.37.84.84,1.68,1.26,2.52.84.42,0,.84-.42.84-.84-1.26-4.63-1.26-9.67.84-14.28l.14-.06c2.2,5.51,5.56,10.59,9.95,14.76,4.04,4.25,8.83,7.53,14.1,9.74-4.16,2.02-9.13,2.42-14.1,1.18-.42-.42-.84,0-.84.42-.42.84,0,2.1.84,2.52,1.26.42,2.52.84,3.36,1.26.42,0,.42.42.84.42,0,.42.42.42.42.84"/>
    <path class="st21" d="M490.61,964.31c-5.14,2.15-10.74,3.27-16.55,3.27s-11.41-1.13-16.55-3.27c-5.27-2.21-10.07-5.49-14.1-9.74-4.38-4.17-7.74-9.24-9.95-14.76-2.02-5.06-3.08-10.49-3.08-15.9,0-6.98,1.63-13.67,4.71-19.71,2.11-4.13,4.9-7.96,8.31-11.37,5.34-5.36,12.01-9.19,19.38-11.14,3.62-.96,7.41-1.46,11.28-1.46s7.67.5,11.29,1.46c7.36,1.95,14.02,5.78,19.38,11.14,3.41,3.41,6.2,7.24,8.3,11.37,3.08,6.04,4.71,12.72,4.71,19.71,0,5.42-1.05,10.85-3.08,15.9-2.2,5.51-5.55,10.59-9.93,14.76-4.04,4.25-8.83,7.53-14.11,9.74"/>
    <path class="st21" d="M513.13,904.17l-.09.04c-2.1-4.13-4.89-7.96-8.31-11.37-5.35-5.35-12.01-9.19-19.38-11.14l.06-.21c5.04-3.36,11.75-4.62,17.64-2.94.42.42.84,0,.84-.42.42-.84,0-2.1-.84-2.52-1.26-.42-2.1-.84-3.37-1.26q-.42,0-.84-.42s-.42-.42-.42-.84v-.42c11.34,1.68,20.16,10.49,21.85,21.84h-.85l-.42-.42q-.42-.42-.42-.84c-.42-1.26-.84-2.52-1.26-3.37-.42-.84-1.68-1.26-2.52-.84-.42,0-.84.42-.84.84,1.68,4.63,1.26,9.66-.84,14.28"/>
    <path class="st21" d="M435.1,904.2l-.09-.04c-2.1-4.62-2.52-9.65-.84-14.28,0-.42-.42-.84-.84-.84-.84-.42-2.1,0-2.52.84-.42.85-.84,2.11-1.26,3.37q0,.42-.42.84s-.42.42-.84.42h-.42c1.68-11.34,10.49-20.16,21.84-21.84v.42c0,.42-.42.84-.42.84q-.42.42-.84.42c-1.26.42-2.1.84-3.36,1.26-.84.42-1.26,1.68-.84,2.52,0,.42.42.84.84.42,5.88-1.68,12.6-.42,17.64,2.94l.06.21c-7.36,1.95-14.03,5.78-19.38,11.14-3.41,3.41-6.21,7.24-8.31,11.37"/>
  </g>
  <g class="st7">
    <path class="st3" d="M428.29,950.78q-.42-.42-.84-.42"/>
    <path class="st3" d="M457.51,964.31c5.14,2.15,10.75,3.27,16.55,3.27s11.41-1.13,16.55-3.27c5.28-2.21,10.07-5.49,14.11-9.74,4.38-4.17,7.73-9.24,9.94-14.76,2.02-5.06,3.08-10.49,3.08-15.9,0-6.98-1.63-13.67-4.71-19.71-2.1-4.13-4.89-7.96-8.3-11.37-5.35-5.36-12.01-9.19-19.38-11.14-3.62-.96-7.41-1.46-11.29-1.46s-7.66.5-11.28,1.46c-7.36,1.95-14.03,5.78-19.38,11.14-3.41,3.41-6.2,7.24-8.31,11.37-3.08,6.04-4.71,12.72-4.71,19.71,0,5.42,1.05,10.85,3.08,15.9,2.2,5.51,5.56,10.59,9.94,14.76,4.04,4.25,8.83,7.53,14.1,9.74Z"/>
    <path class="st3" d="M500.11,971.37c11.33-1.69,19.73-10.5,21.84-21.85"/>
    <path class="st3" d="M490.45,964.23c.06.03.11.06.17.08,4.16,2.02,9.13,2.42,14.12,1.18"/>
    <path class="st3" d="M505.57,965.9c0-.42-.42-.84-.84-.42"/>
    <path class="st3" d="M501.37,969.68c.84-.42,2.1-.84,3.36-1.26"/>
    <path class="st3" d="M504.73,968.42c.84-.42,1.26-1.68.84-2.52"/>
    <path class="st3" d="M500.11,970.94c-.43,0-.43.43,0,.43"/>
    <path class="st3" d="M500.53,970.1c0,.42-.42.42-.42.84"/>
    <path class="st3" d="M501.37,969.68c-.42,0-.42.42-.84.42"/>
    <path class="st3" d="M515.64,954.15c0,.42.42.84.84.84"/>
    <path class="st3" d="M519,954.15c.42-.84.84-2.1.84-3.37"/>
    <path class="st3" d="M516.48,954.99c.84.42,1.68,0,2.52-.84"/>
  </g>
  <line class="st3" x1="521.95" y1="949.52" x2="521.11" y2="949.52"/>
  <g class="st5">
    <path class="st3" d="M521.11,949.52c0,.42-.42.42-.42.84"/>
    <path class="st3" d="M520.69,950.36q-.42,0-.85.42"/>
    <path class="st3" d="M515.64,954.15c1.26-4.63.84-9.66-.84-14.28"/>
    <path class="st3" d="M520.27,894.51c-1.69-11.34-10.5-20.16-21.85-21.84"/>
    <path class="st3" d="M503.05,878.55c-5.89-1.68-12.6-.42-17.64,2.94"/>
    <path class="st3" d="M503.05,878.55c.42.42.84,0,.84-.42"/>
    <path class="st3" d="M503.05,875.61c-1.26-.42-2.1-.84-3.37-1.26"/>
    <path class="st3" d="M503.89,878.13c.42-.84,0-2.1-.84-2.52"/>
  </g>
  <line class="st3" x1="498.42" y1="872.67" x2="498.42" y2="873.09"/>
  <g class="st11">
    <path class="st3" d="M498.42,873.09c0,.42.42.84.42.84"/>
    <path class="st3" d="M498.84,873.93q.42.42.84.42"/>
    <path class="st3" d="M514.8,889.04c-.42,0-.84.42-.84.84"/>
    <path class="st3" d="M518.58,893.25c-.42-1.26-.84-2.52-1.26-3.37"/>
    <path class="st3" d="M517.32,889.88c-.42-.84-1.68-1.26-2.52-.84"/>
  </g>
  <line class="st3" x1="519.42" y1="894.51" x2="520.27" y2="894.51"/>
  <line class="st3" x1="519" y1="894.09" x2="519.42" y2="894.51"/>
  <g class="st9">
    <path class="st3" d="M518.58,893.25q0,.42.42.84"/>
    <path class="st3" d="M513.13,904.17c2.1-4.62,2.52-9.65.84-14.28"/>
    <path class="st3" d="M426.19,949.52c2.1,11.34,10.49,20.16,21.84,21.85"/>
    <path class="st3" d="M443.41,965.49c4.97,1.24,9.94.85,14.1-1.18.06-.03.11-.06.17-.08"/>
    <path class="st3" d="M443.41,965.49c-.42-.42-.84,0-.84.42"/>
    <path class="st3" d="M443.41,968.42c1.26.42,2.52.84,3.36,1.26"/>
    <path class="st3" d="M442.57,965.9c-.42.84,0,2.1.84,2.52"/>
    <path class="st3" d="M448.03,971.37s.42-.43,0-.43"/>
    <path class="st3" d="M448.03,970.94c0-.42-.42-.42-.42-.84"/>
    <path class="st3" d="M447.61,970.1c-.42,0-.42-.42-.84-.42"/>
    <path class="st3" d="M431.65,954.99c.42,0,.84-.42.84-.84"/>
    <path class="st3" d="M428.29,950.78c0,1.27.42,2.53.84,3.37"/>
    <path class="st3" d="M429.13,954.15c.84.84,1.68,1.26,2.52.84"/>
  </g>
  <line class="st3" x1="427.03" y1="949.52" x2="426.19" y2="949.52"/>
  <g class="st10">
    <path class="st3" d="M427.45,950.36c0-.42-.42-.42-.42-.84"/>
    <path class="st3" d="M433.32,939.87c-2.1,4.62-2.1,9.65-.84,14.28"/>
    <path class="st3" d="M449.71,872.67c-11.34,1.68-20.16,10.49-21.84,21.84"/>
    <path class="st3" d="M462.73,881.49c-5.05-3.36-11.76-4.62-17.64-2.94"/>
    <path class="st3" d="M444.25,878.13c0,.42.42.84.84.42"/>
    <path class="st3" d="M448.45,874.35c-1.26.42-2.1.84-3.36,1.26"/>
    <path class="st3" d="M445.09,875.61c-.84.42-1.26,1.68-.84,2.52"/>
  </g>
  <line class="st3" x1="449.71" y1="873.09" x2="449.71" y2="872.67"/>
  <g class="st8">
    <path class="st3" d="M449.29,873.93s.42-.42.42-.84"/>
    <path class="st3" d="M448.45,874.35q.42,0,.84-.42"/>
    <path class="st3" d="M434.17,889.88c0-.42-.42-.84-.84-.84"/>
    <path class="st3" d="M430.81,889.88c-.42.85-.84,2.11-1.26,3.37"/>
    <path class="st3" d="M433.32,889.04c-.84-.42-2.1,0-2.52.84"/>
  </g>
  <line class="st3" x1="427.87" y1="894.51" x2="428.29" y2="894.51"/>
  <g class="st6">
    <path class="st3" d="M428.29,894.51c.42,0,.84-.42.84-.42"/>
    <path class="st3" d="M429.13,894.09q.42-.42.42-.84"/>
    <path class="st3" d="M434.17,889.88c-1.68,4.63-1.26,9.66.84,14.28"/>
  </g>
  <rect class="st23" x="535.5" y="1166.56" width="107.67" height="15.87"/>
  <rect class="st23" x="714.39" y="1166.56" width="148.34" height="15.87"/>
  <rect class="st23" x="642.15" y="700.43" width="176.53" height="30.72"/>
  <rect class="st23" x="500.9" y="700.43" width="58.9" height="46.92"/>
  <rect class="st23" x="753.88" y="747.35" width="11.81" height="229.02"/>
  <rect class="st23" x="765.69" y="961.68" width="97.21" height="16.03"/>
  <rect class="st23" x="851.08" y="973.49" width="11.81" height="193.06"/>
  <rect class="st23" x="723.5" y="975.18" width="125.9" height="5.07"/>
  <rect class="st23" x="723.5" y="980.24" width="6.41" height="9.11"/>
  <rect class="st23" x="728.56" y="1109.52" width="120.84" height="5.4"/>
  <rect class="st23" x="844.33" y="973.13" width="9.97" height="141.78"/>
  <rect class="st23" x="397.78" y="783.8" width="121.85" height="28.01"/>
  <rect class="st23" x="369.77" y="1048.09" width="28.01" height="71.55"/>
  <rect class="st23" x="369.77" y="783.8" width="28.01" height="67.17"/>
  <rect class="st23" x="397.78" y="1091.63" width="121.85" height="28.01"/>
  <rect class="st23" x="723.5" y="1114.92" width="7.76" height="51.64"/>
  <rect class="st23" x="814.63" y="495.55" width="4.05" height="204.88"/>
  <rect class="st23" x="543.6" y="495.55" width="271.04" height="4.05"/>
  <rect class="st23" x="642.15" y="731.15" width="176.53" height="16.2"/>
  <rect class="st23" x="519.63" y="731.15" width="15.87" height="80.67"/>
  <rect class="st23" x="519.63" y="1042.01" width="15.87" height="140.41"/>
  <rect class="st23" x="575.66" y="1146.64" width="7.76" height="19.91"/>
  <rect class="st23" x="535.5" y="1146.64" width="40.17" height="8.1"/>
  <rect class="st23" x="535.5" y="1042.01" width="56.03" height="6.07"/>
  <rect class="st23" x="658.02" y="975.18" width="65.48" height="6.07"/>
  <rect class="st23" x="728.56" y="1108.17" width="115.77" height="1.35"/>
  <rect class="st23" x="723.5" y="1059.9" width="6.41" height="56.87"/>
  <rect class="st23" x="728.56" y="980.24" width="115.77" height="1.35"/>
  <rect class="st23" x="842.98" y="981.59" width="1.35" height="127.92"/>
  <rect class="st23" x="540.89" y="495.55" width=".68" height="204.88"/>
  <rect class="st23" x="488.92" y="700.43" width="30.72" height="111.39"/>
  <rect class="st23" x="488.92" y="1112.51" width="30.72" height="69.91"/>
  <path class="st2" d="M543.59,500.61h271.04M543.59,506.35h271.04M543.59,512.43h271.04M543.59,518.5h271.04M543.59,524.24h271.04M543.59,530.32h271.04M543.59,536.39h271.04M543.59,542.47h271.04M543.59,548.21h271.04M543.59,554.28h271.04M543.59,560.36h271.04M543.59,566.1h271.04M543.59,572.17h271.04M543.59,578.25h271.04M543.59,584.32h271.04M543.59,590.06h271.04M543.59,596.14h271.04M543.59,602.21h271.04M543.59,607.95h271.04M543.59,614.02h271.04M543.59,620.1h271.04M543.59,626.18h271.04M543.59,631.91h271.04M543.59,637.99h271.04M543.59,644.06h271.04M543.59,649.8h271.04M543.59,655.88h271.04M543.59,661.95h271.04M543.59,668.03h271.04M543.59,673.77h271.04M543.59,679.84h271.04M543.59,685.92h271.04M543.59,691.66h271.04M543.59,697.73h271.04"/>
  <path class="st3" d="M575.66,1166.56h-40.17M535.49,1166.56v-11.82M535.49,1154.74h40.17M731.26,1114.91h119.82M851.08,1114.91v51.64M851.08,1166.56h-119.82M731.26,1166.56v-51.64M723.5,1166.56h-8.1M714.38,1182.42h148.51M488.91,1182.42h154.25M714.38,1166.56h1.01M559.8,747.35h-24.3M535.49,747.35v64.47M535.49,811.81h-15.87M395.76,850.97h-11.81M383.94,850.97v197.12M383.94,1048.08h11.81M519.63,1042.01h15.87M535.49,1048.08v98.56M535.49,1154.74h40.17M714.38,1166.56h1.01M723.5,975.18h30.38M753.87,975.18v-227.83M753.87,747.35h-111.72M642.15,747.35v-32.4M642.15,714.94h-1.02M560.81,714.94h-1.01M559.8,714.94v32.4M851.08,1114.91l-119.82,51.64M851.08,1114.91h-119.82M731.26,1114.91v51.64M731.26,1166.56h119.82M851.08,1165.54v-50.63M559.8,731.14v-30.72M559.8,700.43h-18.23M540.89,700.43h-21.27M814.63,700.43h-172.47M642.15,700.43v30.72M541.57,700.43h-.67M753.87,747.35v226.15M765.69,961.68v-214.33M862.9,961.68h-97.21M862.9,973.49v-5.74M862.9,1166.56v-193.06M723.5,1059.9v55.02M728.56,991.72v65.82M731.26,1114.91h118.13M559.8,700.43h254.83M559.8,700.43h254.83M642.15,712.58h-1.02M560.81,712.58h-1.01M488.91,783.8h-91.13M397.78,811.81h121.85M369.77,783.8v67.17M369.77,850.97h28.01M397.78,850.97v-39.15M397.78,783.8h-28.01M369.77,1048.08v71.56M369.77,1119.64h28.01M397.78,1091.62v-43.54M397.78,1048.08h-28.01M369.77,1048.08h8.78M378.54,1048.08v-1.01M378.54,851.98v-1.01M378.54,850.97h-8.78M383.94,1048.08h-5.4M378.54,850.97h5.4M378.54,850.97v1.01M378.54,1047.07v1.01M397.78,1119.64h91.13M519.63,1091.62h-121.85M731.26,1166.56v-51.64M723.5,1114.91v51.64M818.68,700.43v-204.88M818.68,495.55h-4.05M814.63,499.6v200.83M814.63,495.55h-271.04M543.59,495.55v4.05M543.59,499.6h271.04M642.15,731.14v16.2M535.49,747.35h24.3"/>
  <path class="st3" d="M559.8,747.35v-16.2M535.49,1042.01h-15.86M519.63,1042.01v49.62M535.49,811.81v-64.47M519.63,811.81h0M519.63,811.81h15.86M575.66,1154.74v11.81M583.42,1166.56v-19.91M583.42,1146.64h-7.76M535.49,1154.74h40.17M575.66,1146.64h-40.17M535.49,1154.74l40.17,11.81M535.49,1166.56h40.17M575.66,1154.74h-40.17M535.49,1154.74v11.81M712.02,1100.06l-13.16,1.35M698.86,1101.41l-12.49,3.71M686.37,1105.13l-11.47,6.08M674.89,1111.2l-10.13,8.44M664.77,1119.64l-8.1,9.79M656.67,1129.43l-6.07,11.81M650.59,1141.24l-3.71,12.49M646.88,1153.73l-1.35,12.83M643.17,1166.56v15.87M714.38,1182.42v-15.87M712.02,1166.56v-66.49M645.53,1166.56h66.49M715.4,1166.56h-1.01"/>
  <path class="st3" d="M471.7,1091.63v-5.9M471.7,1083.36v-2.36M471.7,1078.63v-2.36M471.7,1073.91v-2.36M471.7,1069.18v-2.36M471.7,1064.12v-2.36M471.7,1059.39v-2.36M471.7,1054.67v-2.36M471.7,1049.94v-2.36M471.7,1045.22v-1.69M471.7,1043.53h1.35M475.41,1043.53h2.37M480.14,1043.53h2.36M484.87,1043.53h2.7M489.93,1043.53h2.36M494.65,1043.53h2.36M499.38,1043.53h2.36M504.1,1043.53h2.37M508.83,1043.53h2.36M513.56,1043.53h2.7M518.62,1043.53h1.01M753.88,747.35h-111.72M535.49,1048.09h56.03M591.52,1048.09v-6.07M591.52,1042.01h-56.03M535.49,1097.7v-47.93M535.49,1145.29v-95.52M372.13,854.68l-1.35,2.36M369.43,859.41l-1.01,2.02M367.07,863.46l-1.01,2.02M364.71,867.51l-1.35,2.02M362.34,871.56l-1.35,2.36M359.98,875.95l-1.35,2.02M357.62,880l-1.35,2.02M355.25,884.05l-1.35,2.03M352.89,888.1l-1.35,2.36M350.53,892.48l-1.35,2.03M347.83,896.53l-1.01,2.03M345.47,900.59l-1.02,2.02M343.1,904.97l-1.01,2.02M340.74,909.02l-1.01,2.02M338.38,913.07l-1.01,2.03M336.01,917.13l-1.35,2.7M372.13,929.95h-1.69"/>
  <path class="st3" d="M368.08,929.61l-2.36-.34M363.35,929.28l-2.36-.34M358.63,928.6l-2.36-.68M353.91,927.25l-2.36-.34M349.18,926.24l-2.02-.67M344.79,924.55l-2.02-1.01M340.4,922.53l-2.03-1.01M336.01,920.5l-1.35-.67M376.52,1043.36h-3.71M376.52,934v109.36M372.81,934h3.71M372.81,1043.36v-109.36M372.81,859.41h3.71M372.81,924.89v-65.48M376.52,924.89h-3.71M376.52,859.41v65.48M383.95,928.6v-72.57M383.95,928.6v-72.57M383.95,1043.36v-109.36M372.13,856.03v72.57M372.13,859.41v65.48M372.13,934v109.36M378.54,928.6h5.4M378.54,856.03h5.4M378.54,859.41v65.48M378.54,856.03v72.57M372.13,1043.36h11.82M372.13,1047.07v-3.71M383.95,1047.07h-11.82M383.95,1043.36v3.71M378.54,928.6h5.4M378.54,924.89v3.72M372.13,924.89h6.41M372.13,934v-9.11M383.95,934h-11.82M383.95,928.6v5.4M372.13,851.98h11.82M372.13,859.41v-7.43M378.54,859.41h-6.41M378.54,856.03v3.38M383.95,856.03h-5.4M383.95,851.98v4.05M372.13,929.95v-75.27M372.13,854.01v76.28M372.13,854.68v75.27M372.13,856.03v72.57M372.13,928.6v-72.57M372.13,930.29v-76.28M372.13,924.89v-65.48M372.13,859.41v65.48M563.17,629.55l13.16,1.35M576.34,630.9l12.83,3.37M589.16,634.28l11.81,5.4M600.97,639.68l10.8,7.43M611.78,647.1l9.11,9.45M620.89,656.55l7.76,10.8M628.65,667.35l5.4,11.81M634.05,679.17l3.38,12.83M637.43,691.99l1.35,12.83M563.17,704.82v-75.27M568.24,709.55h65.48M633.72,709.55v-4.05M633.72,705.49h-65.48M568.24,705.49v4.05M637.09,716.63h-72.23M568.24,704.82h65.48M568.24,711.23h65.48M637.09,711.23v5.4M564.86,711.23v5.4M564.86,711.23h72.23M560.81,716.63h4.05M564.86,716.63v-5.4M564.86,711.23h3.38M568.24,711.23v-6.42M568.24,704.82h-7.43M560.81,704.82v11.81M637.09,716.63h4.05M641.14,716.63v-11.81M641.14,704.82h-7.43M633.72,704.82v6.42M633.72,711.23h3.37M637.09,711.23v5.4M794.38,991.72l-1.35,12.83M793.03,1004.54l-3.71,12.49M789.32,1017.03l-6.07,11.47M783.24,1028.51l-8.1,9.79M775.14,1038.3l-10.13,8.1M765.01,1046.4l-11.14,6.08M753.88,1052.47l-12.49,3.71M741.39,1056.19l-12.83,1.35M729.91,1059.9h-6.41M723.5,989.35h6.41M728.56,995.09v-3.38M728.56,991.72h65.82M728.56,991.72v65.82"/>
  <path class="st3" d="M809.9,1108.16h1.69M812.94,1108.16h1.69M809.9,1108.16h4.73"/>
  <path class="st3" d="M809.9,1108.16h1.69M812.94,1108.16h1.69M715.4,1166.56h-1.01M842.98,1108.16h-113.07M729.91,1108.16v-48.26M729.91,989.35v-7.76M729.91,981.59h113.07M842.98,981.59v126.57"/>
  <path class="st3" d="M782.9,1108.16h20.93M808.89,1108.16h2.7M812.94,1108.16h3.03M820.71,1108.16h21.26M543.59,495.55v204.88M538.87,700.43v-204.88M538.87,700.43h.34M543.26,700.43h.34M543.26,700.43h-1.35M541.91,700.43h-.34M540.89,700.43h-.34M540.56,700.43h-1.35M540.89,495.55v204.88M540.56,495.55v204.88M540.56,495.55v204.88M539.21,495.55v204.88M543.26,495.55v204.88M541.91,495.55v204.88M541.91,495.55v204.88M541.57,495.55v204.88M541.57,700.43v-204.88M540.89,495.55v204.88M538.87,700.43v-204.88M486.21,700.43h-.34M538.87,700.43h-.68M538.19,495.55v204.88M538.19,495.55v204.88M538.19,495.55v204.88M488.92,700.43v83.37M519.63,700.43h-30.72M488.92,1119.64v62.78M471.7,1043.53v1.69M471.7,1047.58v2.36M471.7,1052.31v2.36M471.7,1057.03v2.36M471.7,1061.75v2.36M471.7,1066.82v2.36M471.7,1071.54v2.36M471.7,1076.27v2.36M471.7,1080.99v2.36"/>
  <path class="st3" d="M471.7,1085.72v5.9M424.11,1091.62v-5.9M424.11,1083.36v-2.36M424.11,1078.63v-2.36M424.11,1073.9v-2.36M424.11,1069.18v-2.36M424.11,1064.12v-2.36M424.11,1059.39v-2.36M424.11,1054.67v-2.36M424.11,1049.94v-2.36M424.11,1045.21v-1.69M424.11,1043.53h1.01M427.49,1043.53h2.36M432.55,1043.53h2.36M437.27,1043.53h2.36M442,1043.53h2.37M446.73,1043.53h2.36M451.45,1043.53h2.36M456.17,1043.53h2.36M461.24,1043.53h2.36M465.96,1043.53h2.36M470.69,1043.53h1.01M765.69,747.35v214.33M765.69,961.68h97.21M862.9,961.68v220.74M818.68,747.35h-52.99M818.68,495.55v204.88M538.2,700.43v-204.88M538.2,495.55h280.49M818.68,686.25v61.09"/>
  <g class="st4">
    <path class="st1" d="M71.73,1117.95h6.07M95.36,1197.27l16.2-7.09M107.17,1172.63l4.38,17.55M134.85,1201.32l-27.68-28.69M134.85,1201.32l-39.49-4.05M134.85,1201.32l-23.29-11.14M71.73,878.65h6.07M71.73,1038.3h6.07M71.73,958.64h6.07M71.73,878.65v239.31M1198.06,418.93H14.35"/>
    <path d="M93.14,469.84c-.43.28-.76.68-.97,1.17-.21.5-.33,1.11-.33,1.85,0,.58.11,1.1.32,1.57.21.46.51.82.9,1.07.38.25.79.37,1.23.37s.83-.11,1.16-.34c.34-.22.61-.57.83-1.05.15-.33.32-.93.52-1.8.2-.88.39-1.42.58-1.62.19-.21.43-.32.72-.32.34,0,.63.15.87.45.24.3.36.77.36,1.42s-.13,1.1-.4,1.42c-.26.32-.65.51-1.17.56l.08,1.03c.48-.02.91-.15,1.28-.4.38-.25.67-.6.86-1.06.2-.46.29-.99.29-1.6,0-.54-.09-1.04-.28-1.49-.19-.45-.46-.79-.82-1.02-.35-.23-.74-.35-1.15-.35-.38,0-.72.09-1.02.28-.3.19-.55.48-.76.87-.16.3-.33.82-.51,1.57-.18.75-.31,1.23-.4,1.45-.13.34-.29.58-.48.73-.19.15-.42.22-.67.22s-.49-.08-.7-.23c-.21-.15-.38-.39-.5-.7-.12-.32-.19-.68-.19-1.09,0-.46.08-.88.24-1.25.16-.37.37-.64.63-.82.26-.18.6-.29,1.01-.34l-.09-1.01c-.55.01-1.04.16-1.47.44M91.98,478.56h2.83l1.31,1.33-4.13,2.89v1.42l4.86-3.56,3.3,3.41v-1.46l-4.04-4.04h4.04v-1.07h-8.16v1.07Z"/>
    <path d="M97.72,488.08h-.93v5.37h.93v-5.37ZM95.24,488.08h-.93v5.37h.93v-5.37Z"/>
    <path d="M93.14,498.19c-.43.28-.76.67-.97,1.17-.21.5-.33,1.12-.33,1.85,0,.58.11,1.1.32,1.57.21.46.51.82.9,1.07.39.25.79.37,1.23.37s.82-.11,1.16-.34c.34-.22.61-.57.83-1.05.15-.33.32-.92.52-1.8.2-.87.39-1.41.58-1.62.19-.21.43-.32.72-.32.34,0,.63.15.86.45.24.3.36.77.36,1.42s-.13,1.1-.4,1.42c-.26.32-.65.51-1.17.56l.08,1.03c.48-.02.91-.15,1.29-.4.38-.25.66-.6.86-1.06s.29-.99.29-1.6c0-.55-.09-1.04-.28-1.49-.18-.45-.46-.79-.81-1.02-.36-.23-.75-.35-1.16-.35-.37,0-.71.1-1.01.29-.3.19-.56.48-.76.87-.16.3-.33.82-.51,1.57-.18.75-.31,1.23-.4,1.45-.13.34-.29.58-.48.73-.19.15-.42.22-.67.22s-.49-.08-.7-.23c-.21-.15-.38-.39-.51-.7-.12-.31-.18-.68-.18-1.09,0-.46.08-.88.24-1.25.16-.37.37-.64.63-.82.26-.18.6-.29,1-.34l-.09-1.01c-.55.01-1.04.16-1.47.45"/>
    <path d="M91.98,506.42h2.34l.68.7-3.02,1.95v1.23l3.72-2.48,2.19,2.25v-1.29l-2.4-2.36h4.65v-1h-8.16v1ZM91.98,515.53v1.04c.23-.12.46-.21.71-.25.25-.04.84-.06,1.77-.06h1.33c.45,0,.75-.02.93-.05.27-.06.5-.17.68-.31.18-.15.33-.38.45-.69.12-.32.18-.73.18-1.23s-.07-.95-.21-1.33c-.14-.39-.34-.68-.59-.88-.26-.21-.6-.35-1.02-.44l-.13.98c.42.11.71.27.88.49.17.22.25.57.25,1.04,0,.5-.11.88-.34,1.14-.17.19-.45.28-.86.28-.04,0-.12,0-.26,0-.13-.38-.25-.97-.35-1.78-.05-.39-.1-.69-.15-.89-.07-.27-.18-.51-.33-.72-.14-.21-.34-.38-.57-.51-.24-.13-.5-.2-.79-.2-.49,0-.9.17-1.21.52-.32.35-.48.85-.48,1.49,0,.39.07.76.2,1.1.13.34.35.7.67,1.07-.28.03-.52.1-.73.2M94.58,515.25c-.44,0-.77-.05-1-.16-.29-.14-.52-.36-.69-.66-.17-.3-.25-.64-.25-1.03s.09-.68.27-.88c.18-.2.4-.3.67-.3.17,0,.33.05.48.14.14.09.25.22.33.39.07.17.14.46.2.87.11.73.23,1.27.38,1.63h-.37Z"/>
    <path d="M91.98,518.57h2.35l.68.7-3.02,1.95v1.23l3.72-2.48,2.2,2.25v-1.29l-2.41-2.36h4.65v-1h-8.16v1ZM92.84,525.04c0-.15.02-.26.07-.34.05-.08.11-.14.19-.17.08-.04.27-.05.55-.05h3.46v1.01h.78v-1.01h2.07l-.6-.99h-1.46v-.73h-.78v.73h-3.4c-.6,0-.99.04-1.18.12-.19.08-.34.22-.45.42-.12.2-.17.48-.17.84,0,.22.03.47.09.76l.89-.14c-.02-.18-.04-.33-.04-.44"/>
    <path d="M78.82,470.89h3.71v3.82h.97v-3.82h2.53v4.41h.96v-5.49h-8.16v1.08ZM79.97,476.59c-.43.28-.76.67-.97,1.17-.22.5-.33,1.12-.33,1.85,0,.58.11,1.1.32,1.57.21.46.51.82.89,1.07.39.25.79.37,1.23.37s.82-.11,1.16-.34c.34-.23.61-.57.83-1.05.15-.33.32-.92.52-1.8.2-.87.39-1.41.58-1.62.19-.21.43-.32.72-.32.34,0,.63.15.86.45.24.3.36.77.36,1.42s-.13,1.1-.4,1.42c-.26.32-.65.51-1.17.56l.08,1.03c.48-.02.91-.15,1.29-.4.38-.25.66-.6.86-1.06s.29-.99.29-1.6c0-.55-.09-1.04-.28-1.49-.19-.45-.46-.79-.81-1.02-.36-.23-.75-.35-1.16-.35-.37,0-.71.1-1.01.29s-.56.48-.76.87c-.16.3-.33.82-.51,1.57-.18.75-.31,1.23-.4,1.45-.13.34-.29.58-.48.73-.19.15-.41.22-.67.22s-.49-.08-.7-.23c-.21-.15-.38-.39-.51-.7-.12-.31-.18-.68-.18-1.09,0-.46.08-.88.24-1.25.16-.37.37-.64.64-.82.26-.18.59-.29,1-.34l-.09-1.01c-.55.01-1.04.16-1.47.45"/>
    <path d="M84.55,487.08h-.93v5.37h.93v-5.37ZM82.08,487.08h-.93v5.37h.93v-5.37Z"/>
    <polygon points="78.82 498.24 82.53 498.24 82.53 502.05 83.49 502.05 83.49 498.24 86.02 498.24 86.02 502.65 86.98 502.65 86.98 497.16 78.82 497.16 78.82 498.24"/>
    <path d="M79.48,504.45c-.53.51-.79,1.18-.79,2,0,.51.12.99.36,1.42.24.43.58.76,1.02.99.43.23,1.03.34,1.8.34.94,0,1.67-.26,2.21-.77.53-.51.8-1.18.8-1.99,0-.73-.22-1.34-.66-1.85-.52-.61-1.34-.91-2.43-.91-1,0-1.76.26-2.29.76M83.47,505.21c.38.33.56.74.56,1.24s-.19.9-.56,1.23c-.37.33-.93.49-1.66.49-.78,0-1.35-.16-1.73-.49s-.57-.74-.57-1.24.19-.91.56-1.24c.38-.33.94-.49,1.7-.49s1.32.17,1.7.49M78.82,511.13h3.1c.42,0,.81.06,1.17.17.23.07.42.2.55.37.13.18.2.37.2.59,0,.24-.07.49-.22.73l.93.34c.21-.35.32-.69.32-1.03,0-.23-.07-.45-.2-.64-.13-.19-.41-.4-.83-.63h.9v-.9h-5.91v1Z"/>
    <path d="M79.8,517.27c-.19-.26-.29-.57-.29-.94,0-.49.17-.9.52-1.23.35-.33.84-.51,1.49-.55v4.39c.12,0,.21,0,.27,0,.98,0,1.73-.25,2.27-.75.54-.5.81-1.14.81-1.93s-.28-1.47-.83-1.99c-.55-.51-1.32-.77-2.31-.77s-1.71.26-2.24.76c-.53.5-.8,1.18-.8,2.05,0,.68.17,1.24.5,1.69.33.44.8.74,1.41.9l.13-1.03c-.42-.15-.73-.35-.92-.62M83.58,515.13c.31.31.46.7.46,1.16,0,.51-.2.92-.58,1.24-.25.21-.62.33-1.12.37v-3.29c.52.03.93.21,1.24.52M79.16,520.64c-.32.4-.48.98-.48,1.75,0,.46.08.88.24,1.24.16.37.39.65.69.84.29.2.61.29.94.29s.63-.08.86-.24c.23-.16.41-.38.53-.65.12-.28.27-.77.46-1.48.14-.49.22-.78.26-.88.07-.18.16-.3.27-.38.1-.08.22-.12.35-.12.21,0,.38.1.53.29.15.2.23.52.23.98,0,.39-.08.69-.26.9-.17.21-.41.34-.71.39l.14.98c.38-.06.69-.18.91-.35.23-.17.41-.42.54-.77.14-.35.2-.76.2-1.22,0-.31-.04-.6-.12-.86-.08-.27-.18-.48-.29-.63-.15-.21-.34-.37-.56-.49-.23-.12-.47-.18-.73-.18-.29,0-.55.07-.79.22-.24.15-.43.36-.56.64-.14.28-.3.79-.48,1.52-.14.55-.25.89-.34,1.02-.13.2-.31.29-.54.29-.25,0-.47-.11-.66-.33-.19-.22-.28-.56-.28-1.02s.11-.81.32-1.06c.21-.25.52-.41.91-.46l-.15-.99c-.63.11-1.1.37-1.42.77M86.98,526.03h-8.16v1h8.16v-1ZM78.82,532.72v1.04c.23-.13.46-.21.71-.26.25-.04.84-.06,1.77-.06h1.33c.45,0,.76-.02.92-.05.28-.06.5-.16.68-.31.18-.15.33-.38.45-.69.12-.32.18-.72.18-1.23s-.07-.95-.21-1.33c-.14-.39-.34-.68-.6-.88-.26-.2-.6-.35-1.02-.44l-.13.98c.42.11.71.27.87.49.17.22.25.57.25,1.04,0,.5-.12.88-.34,1.14-.17.19-.45.28-.86.28-.04,0-.13,0-.26,0-.14-.38-.25-.98-.35-1.78-.05-.39-.1-.69-.15-.89-.07-.27-.18-.51-.33-.72s-.34-.38-.58-.51c-.24-.13-.5-.2-.79-.2-.49,0-.9.18-1.22.52-.32.35-.48.84-.48,1.49,0,.39.07.76.2,1.1.13.35.35.7.67,1.07-.28.03-.52.09-.73.2M81.42,532.44c-.44,0-.77-.06-1-.16-.29-.14-.52-.36-.69-.66-.17-.3-.25-.64-.25-1.03s.09-.68.27-.89.4-.3.67-.3c.17,0,.33.05.48.14.14.09.25.22.33.39.07.17.14.46.2.87.1.73.23,1.27.38,1.63h-.37ZM85.52,530.35c-.2.2-.3.43-.3.71s.1.5.29.7c.2.2.44.3.73.3s.52-.1.72-.3c.2-.2.3-.43.3-.7s-.1-.5-.29-.7c-.2-.2-.43-.3-.7-.3-.3,0-.55.1-.74.29M86.68,530.65c.11.12.17.25.17.41s-.06.3-.18.41c-.12.12-.26.18-.43.18s-.31-.06-.43-.18c-.12-.11-.18-.25-.18-.41s.06-.3.18-.41c.12-.12.27-.18.44-.18s.31.06.42.18M79.8,538.51c-.19-.26-.29-.57-.29-.94,0-.49.17-.9.52-1.23.35-.33.84-.51,1.49-.55v4.39c.12,0,.21,0,.27,0,.98,0,1.73-.25,2.27-.75.54-.5.81-1.14.81-1.93s-.28-1.47-.83-1.99-1.32-.76-2.31-.76-1.71.25-2.24.76c-.53.5-.8,1.19-.8,2.05,0,.68.17,1.24.5,1.68.33.44.8.74,1.41.9l.13-1.03c-.42-.15-.73-.35-.92-.62M83.58,536.37c.31.31.46.7.46,1.16,0,.51-.2.92-.58,1.24-.25.21-.62.33-1.12.38v-3.29c.52.04.93.21,1.24.52"/>
    <path d="M79.67,543.27c0-.15.02-.26.07-.34.05-.08.11-.14.2-.17.08-.04.27-.06.55-.06h3.46v1h.78v-1h2.06l-.6-.99h-1.46v-.73h-.78v.73h-3.4c-.6,0-.99.04-1.18.12-.19.08-.34.22-.46.42-.11.2-.17.48-.17.84,0,.22.03.47.09.75l.88-.14c-.03-.18-.04-.33-.04-.44M79.16,547.98c-.32.4-.48.99-.48,1.75,0,.46.08.87.24,1.24.16.36.39.64.69.84s.61.29.94.29.63-.08.86-.24c.23-.16.41-.38.53-.66.12-.28.28-.77.47-1.48.13-.49.22-.78.25-.88.07-.17.16-.3.27-.38.1-.08.22-.12.35-.12.21,0,.38.1.54.3.15.2.23.52.23.98,0,.39-.08.69-.26.9-.17.21-.41.34-.71.39l.14.98c.38-.07.69-.18.91-.35.23-.17.41-.43.55-.77.14-.35.2-.76.2-1.21,0-.31-.04-.6-.12-.86-.08-.27-.18-.48-.29-.63-.15-.21-.34-.37-.56-.49-.22-.12-.47-.18-.73-.18-.29,0-.56.07-.79.22-.24.15-.43.36-.56.65-.14.28-.29.79-.48,1.52-.14.54-.25.88-.34,1.02-.13.2-.31.3-.53.3-.25,0-.47-.11-.66-.33-.19-.22-.28-.56-.28-1.02s.1-.81.32-1.06c.21-.25.51-.41.91-.46l-.16-.99c-.63.11-1.1.37-1.42.77"/>
    <path d="M78.82,554.68h2.34l.68.71-3.02,1.95v1.23l3.72-2.48,2.19,2.25v-1.29l-2.4-2.36h4.65v-1h-8.16v1ZM78.82,563.46v1.04c.23-.12.46-.21.71-.25.24-.04.83-.06,1.77-.06h1.33c.45,0,.75-.02.92-.05.28-.06.5-.17.68-.31.18-.15.33-.38.45-.69.12-.31.18-.72.18-1.22s-.07-.95-.21-1.34c-.14-.38-.34-.68-.6-.88-.26-.21-.6-.35-1.02-.44l-.13.98c.42.11.71.27.88.49.17.22.25.57.25,1.04,0,.5-.11.88-.34,1.14-.17.19-.45.28-.86.28-.04,0-.12,0-.26,0-.14-.38-.25-.98-.35-1.78-.05-.39-.1-.69-.15-.89-.07-.27-.19-.51-.33-.72-.14-.21-.34-.38-.58-.51-.24-.13-.5-.2-.79-.2-.49,0-.9.17-1.22.52s-.48.85-.48,1.49c0,.39.07.76.19,1.1.13.34.35.7.67,1.07-.28.03-.52.1-.73.2M81.42,563.18c-.44,0-.78-.05-1-.16-.29-.14-.52-.36-.69-.66-.17-.3-.26-.64-.26-1.03s.09-.68.27-.88c.18-.2.4-.3.66-.3.18,0,.34.05.48.14.14.09.25.22.33.39.07.17.14.46.2.87.11.73.23,1.27.38,1.63h-.37Z"/>
    <path d="M79.56,566.41c-.58.4-.87.94-.87,1.64s.28,1.3.83,1.8c.55.5,1.34.75,2.35.75.43,0,.83-.06,1.2-.18.37-.12.69-.28.96-.49.26-.21.47-.48.62-.8.14-.33.22-.67.22-1.03,0-.65-.27-1.19-.79-1.61h2.91v-1h-8.16v.92h.74ZM83.47,566.88c.38.32.57.7.57,1.13s-.18.8-.55,1.11c-.37.31-.94.46-1.71.46s-1.32-.16-1.7-.48c-.38-.32-.57-.69-.57-1.13,0-.53.26-.96.77-1.28.31-.19.83-.29,1.54-.29s1.27.16,1.65.48"/>
    <path d="M79.86,877.22c-.56.45-.84,1.06-.84,1.85,0,.6.16,1.09.48,1.48.32.39.77.68,1.36.88.59.2,1.36.29,2.32.29.81,0,1.45-.06,1.93-.18.48-.12.88-.29,1.21-.5.33-.21.59-.49.76-.81.18-.33.27-.71.27-1.15,0-.59-.16-1.08-.48-1.47-.32-.39-.77-.69-1.36-.88-.59-.2-1.36-.3-2.33-.3-1.54,0-2.64.27-3.32.81M85.94,877.96c.39.27.59.64.59,1.1s-.22.86-.66,1.17c-.44.31-1.34.47-2.68.47s-2.23-.15-2.68-.47c-.44-.31-.66-.7-.66-1.16s.22-.84.66-1.16c.44-.31,1.34-.47,2.68-.47s2.26.17,2.75.51M80.12,1030.91c.18.11.36.25.54.42.18.17.52.55,1.03,1.15.61.72,1.09,1.23,1.43,1.54.35.31.68.53,1,.67.32.13.63.2.96.2.64,0,1.18-.22,1.62-.68.43-.45.65-1.07.65-1.85s-.2-1.39-.61-1.85-.99-.72-1.76-.79l-.1,1.03c.51,0,.91.15,1.2.44.29.29.44.68.44,1.15,0,.46-.14.82-.41,1.11-.28.28-.61.42-1.01.42s-.78-.15-1.2-.46c-.42-.31-1-.91-1.73-1.79-.47-.57-.88-1-1.24-1.3-.35-.3-.72-.52-1.08-.66-.22-.09-.46-.12-.69-.12v5.37h.96v-3.99Z"/>
    <path d="M79.16,1037.01h3.07c.54,0,.95.05,1.23.16.29.11.5.28.65.52.15.24.22.5.22.78,0,.37-.11.64-.34.8-.22.17-.56.25-1,.25h-3.84v1h3.43c.61,0,1.05.14,1.33.41.28.28.42.62.42,1.04,0,.23-.06.43-.16.6-.11.17-.25.29-.42.35-.18.06-.47.1-.87.1h-3.72v.99h4.06c.68,0,1.18-.16,1.5-.47.32-.32.49-.76.49-1.35,0-.75-.35-1.35-1.04-1.82.33-.11.58-.31.76-.59.18-.28.27-.63.27-1.07,0-.39-.09-.74-.27-1.05-.18-.31-.41-.55-.7-.74h.83v-.89h-5.91v1Z"/>
    <path d="M87.35,956.12v-.64c-.35-.17-.71-.47-1.09-.89-.38-.42-.69-.9-.96-1.46h-.97c.12.31.29.66.52,1.05.23.39.46.7.69.94h-6.39v1h8.19ZM79.16,960.06h3.07c.54,0,.95.05,1.23.16.29.11.5.28.65.52.15.24.22.5.22.78,0,.37-.11.64-.34.8-.22.16-.56.24-1,.24h-3.84v1h3.43c.61,0,1.05.14,1.33.41.28.28.42.62.42,1.03,0,.23-.06.43-.16.6-.11.17-.25.29-.42.35-.18.07-.47.1-.87.1h-3.72v.99h4.06c.68,0,1.18-.16,1.5-.47.32-.31.49-.76.49-1.35,0-.75-.35-1.35-1.04-1.82.33-.11.58-.31.76-.59.18-.28.27-.63.27-1.07,0-.39-.09-.74-.27-1.05-.18-.31-.41-.55-.7-.74h.83v-.89h-5.91v1Z"/>
    <path d="M79.16,781.29h6.95l-6.95,2.35v.97l6.83,2.36h-6.83v1.04h8.16v-1.45l-5.68-1.95c-.58-.2-1.01-.34-1.31-.43.27-.08.67-.21,1.21-.39l5.78-1.93v-1.62h-8.16v1.04ZM79.16,793.31v1.04c.23-.12.46-.21.71-.25.25-.04.84-.07,1.77-.07h1.34c.44,0,.75-.01.92-.05.28-.06.5-.16.68-.31.18-.15.33-.38.45-.69.12-.32.18-.72.18-1.22s-.07-.95-.21-1.34c-.14-.38-.34-.68-.59-.88s-.6-.35-1.02-.44l-.14.98c.42.11.71.27.88.5.17.22.25.57.25,1.04,0,.5-.11.88-.34,1.14-.16.19-.45.28-.86.28-.04,0-.13,0-.26,0-.13-.38-.25-.98-.35-1.78-.05-.39-.1-.69-.15-.89-.07-.27-.19-.5-.33-.72-.14-.21-.34-.39-.58-.52-.24-.13-.5-.2-.79-.2-.49,0-.9.18-1.22.52-.31.35-.48.84-.48,1.49,0,.39.07.76.2,1.1.13.34.35.7.67,1.07-.28.03-.52.09-.73.2M81.75,793.03c-.44,0-.77-.06-1-.16-.29-.14-.53-.36-.69-.66-.17-.3-.25-.64-.25-1.03s.09-.68.27-.89c.18-.2.4-.3.67-.3.18,0,.33.05.48.14.14.09.25.22.33.39.07.17.14.46.2.87.11.72.23,1.27.38,1.63h-.37ZM85.86,790.94c-.2.2-.3.43-.3.71s.1.5.29.7c.2.2.44.29.72.29s.52-.1.72-.29c.2-.2.3-.43.3-.7s-.09-.5-.29-.7c-.2-.2-.43-.3-.7-.3-.3,0-.55.1-.74.3M87.02,791.24c.12.12.18.25.18.41s-.06.3-.18.42c-.12.11-.26.17-.43.17s-.31-.06-.43-.18c-.12-.12-.18-.25-.18-.41s.06-.3.18-.41c.12-.12.26-.18.44-.18.16,0,.3.06.42.18"/>
    <rect x="79.15" y="795.67" width="8.16" height="1"/>
    <path d="M87.35,804.91v-.64c-.35-.17-.72-.47-1.09-.89-.37-.42-.69-.9-.96-1.46h-.97c.12.31.28.66.52,1.05.23.39.46.71.69.95h-6.39v1h8.19ZM85.07,808.12h-1.14v1.14h1.14v-1.14ZM80.3,808.12h-1.14v1.14h1.14v-1.14Z"/>
    <path d="M79.64,811.4c-.41.47-.62,1.07-.62,1.81,0,.9.33,1.61.99,2.14.54.43,1.18.64,1.92.64s1.41-.24,1.9-.73c.49-.49.74-1.09.74-1.79,0-.54-.17-1.05-.51-1.54l2.2.44v3.25h.96v-4.04l-4.19-.79-.12.94c.23.15.42.35.57.61.15.26.22.55.22.87,0,.52-.17.94-.5,1.26-.33.32-.78.48-1.35.48-.6,0-1.08-.17-1.45-.5-.36-.33-.55-.74-.55-1.22,0-.4.13-.74.39-1.02.26-.28.64-.47,1.16-.54l-.09-1.05c-.69.07-1.24.33-1.66.8M79.86,817.82c-.56.45-.85,1.06-.85,1.85,0,.6.16,1.09.48,1.47.32.39.78.69,1.36.88.59.2,1.36.3,2.32.3.81,0,1.45-.06,1.93-.18.48-.12.88-.29,1.21-.5s.59-.49.76-.81c.17-.33.26-.71.26-1.15,0-.59-.16-1.08-.48-1.47-.32-.39-.77-.69-1.36-.88-.59-.2-1.37-.3-2.33-.3-1.53,0-2.64.27-3.32.8M85.93,818.56c.39.27.58.64.58,1.1s-.22.86-.66,1.17c-.44.31-1.33.47-2.68.47s-2.23-.16-2.67-.47c-.44-.31-.67-.7-.67-1.16s.22-.85.67-1.16c.44-.31,1.33-.47,2.67-.47s2.26.17,2.76.51"/>
    <polygon class="st21" points="79.16 1168.24 101.77 1179.38 95.02 1193.9 72.07 1182.76 79.16 1168.24"/>
    <polygon points="81.91 1173.99 93.25 1179.48 78.22 1181.6 77.27 1183.57 91.71 1190.56 92.6 1188.72 81.26 1183.23 96.28 1181.11 97.24 1179.14 82.8 1172.15 81.91 1173.99"/>
    <path d="M79.65,1110.12c-.43.47-.64,1.06-.64,1.77,0,.79.25,1.45.75,1.97.49.51,1.1.77,1.81.77.53,0,.97-.13,1.32-.4.35-.27.58-.64.69-1.12.17.37.4.65.69.84.29.19.61.28.96.28.37,0,.72-.1,1.05-.3.33-.2.59-.48.78-.85.19-.37.28-.78.28-1.23,0-.64-.18-1.18-.55-1.61-.37-.44-.89-.71-1.56-.83l-.18,1c.49.07.86.24,1.1.5.25.26.37.58.37.97s-.12.71-.36.96c-.24.25-.54.37-.91.37-.47,0-.81-.17-1.03-.51s-.34-.72-.34-1.15c0-.04,0-.09.01-.16l-.88-.11c.07.28.11.52.11.7,0,.46-.15.84-.45,1.14-.3.3-.68.45-1.14.45-.48,0-.89-.16-1.21-.49-.33-.32-.49-.72-.49-1.19,0-.39.13-.73.38-1,.25-.28.66-.47,1.23-.58l-.14-1c-.68.07-1.23.34-1.66.81M79.16,1116.66h3.07c.54,0,.95.05,1.23.16.29.11.5.28.65.52.15.24.22.5.22.78,0,.37-.11.64-.34.8-.22.17-.56.25-1,.25h-3.84v1h3.43c.61,0,1.05.14,1.33.41.28.28.42.62.42,1.03,0,.23-.06.43-.16.6-.11.17-.25.29-.42.35-.18.06-.47.1-.87.1h-3.72v.99h4.06c.68,0,1.18-.16,1.5-.47.32-.32.49-.76.49-1.35,0-.75-.35-1.35-1.04-1.82.33-.11.58-.31.76-.59.18-.28.27-.63.27-1.07,0-.39-.09-.74-.27-1.05-.18-.31-.41-.55-.7-.74h.83v-.89h-5.91v1Z"/>
    <rect class="st21" x="1142.71" y="440.54" width="18.9" height="102.27"/>
    <path d="M1157.36,447.83c.53-.61.8-1.38.8-2.33,0-1.27-.46-2.29-1.38-3.04-1.05-.86-2.75-1.29-5.07-1.29-2.08,0-3.57.39-4.47,1.17-.91.78-1.36,1.78-1.36,3.02,0,.72.17,1.37.52,1.94.35.57.84,1.02,1.49,1.35.65.33,1.35.49,2.11.49,1.15,0,2.08-.35,2.81-1.04.73-.7,1.09-1.54,1.09-2.52,0-.57-.13-1.11-.39-1.62-.26-.51-.66-.95-1.2-1.31,1.2.01,2.13.15,2.78.42.65.27,1.15.63,1.48,1.1.26.35.39.77.39,1.24,0,.59-.21,1.08-.63,1.48-.26.24-.68.43-1.26.56l.12,1.47c.94-.12,1.67-.48,2.2-1.09M1151.86,443.57c.48.47.72,1.03.72,1.7s-.24,1.24-.72,1.68c-.48.45-1.14.67-1.97.67s-1.55-.22-2.05-.68c-.51-.45-.76-.99-.76-1.61,0-.43.12-.84.36-1.22.24-.39.6-.7,1.06-.91.47-.22.95-.33,1.46-.33.77,0,1.4.23,1.88.7M1147.76,451.52h-1.68v1.69h1.68v-1.69ZM1147.78,456.18c-.64.42-1.11,1-1.43,1.74-.31.74-.48,1.66-.48,2.75,0,.86.16,1.64.47,2.32.31.69.76,1.22,1.32,1.59.57.37,1.17.55,1.81.55s1.21-.17,1.71-.5.9-.85,1.23-1.56c.22-.48.47-1.37.77-2.67.29-1.3.58-2.1.85-2.41.28-.31.64-.47,1.07-.47.5,0,.92.22,1.28.66s.53,1.14.53,2.11-.19,1.63-.58,2.1c-.39.48-.96.76-1.73.84l.12,1.53c.7-.03,1.34-.22,1.89-.59.56-.37.98-.89,1.27-1.58.29-.68.43-1.47.43-2.37,0-.81-.14-1.55-.41-2.21-.27-.66-.68-1.17-1.2-1.51s-1.09-.52-1.7-.52c-.55,0-1.05.14-1.5.43-.45.28-.82.71-1.12,1.29-.24.45-.49,1.22-.75,2.33-.26,1.11-.46,1.82-.58,2.15-.19.5-.43.87-.71,1.09-.28.22-.61.33-.99.33s-.71-.11-1.03-.34c-.31-.23-.56-.58-.74-1.04-.18-.47-.27-1-.27-1.61,0-.68.12-1.3.36-1.85.24-.55.55-.95.93-1.21s.88-.43,1.48-.5l-.13-1.51c-.81.02-1.53.24-2.16.66M1146.08,473.2v1.55c.33-.19.68-.31,1.04-.37.36-.07,1.23-.1,2.61-.1h1.97c.66,0,1.11-.02,1.36-.07.41-.09.74-.24,1.01-.46.26-.22.48-.56.66-1.03.18-.47.26-1.07.26-1.82s-.1-1.41-.31-1.98c-.2-.57-.5-1.01-.88-1.31-.38-.3-.88-.52-1.5-.65l-.2,1.45c.62.16,1.05.41,1.29.74.24.33.36.85.36,1.55,0,.75-.17,1.31-.5,1.68-.25.28-.67.42-1.27.42-.05,0-.18,0-.38,0-.2-.56-.37-1.45-.51-2.64-.07-.58-.14-1.03-.22-1.32-.11-.39-.27-.75-.48-1.06-.21-.32-.49-.57-.85-.77-.35-.19-.74-.29-1.17-.29-.73,0-1.33.26-1.79.77-.47.51-.7,1.25-.7,2.21,0,.58.1,1.13.29,1.63.19.51.52,1.04.98,1.59-.41.04-.77.14-1.07.29M1149.91,472.78c-.65,0-1.15-.08-1.48-.24-.43-.21-.77-.53-1.02-.98-.25-.45-.37-.95-.37-1.52s.13-1.01.4-1.31c.26-.3.59-.45.98-.45.26,0,.49.07.7.21s.37.33.48.58c.11.25.21.68.29,1.29.15,1.07.34,1.88.56,2.42h-.54ZM1158.11,476.62h-12.02v1.48h12.02v-1.48ZM1154.79,480.89h-1.68v1.69h1.68v-1.69ZM1147.76,480.89h-1.68v1.69h1.68v-1.69ZM1157.36,496.2c.53-.61.8-1.38.8-2.33,0-1.27-.46-2.29-1.38-3.04-1.05-.86-2.75-1.29-5.07-1.29-2.08,0-3.57.39-4.47,1.17-.91.78-1.36,1.79-1.36,3.02,0,.72.17,1.37.52,1.94.35.57.84,1.02,1.49,1.34.65.33,1.35.49,2.11.49,1.15,0,2.08-.35,2.81-1.04.73-.7,1.09-1.53,1.09-2.52,0-.57-.13-1.11-.39-1.62-.26-.51-.66-.95-1.2-1.31,1.2.01,2.13.15,2.78.42.65.27,1.15.64,1.48,1.1.26.35.39.77.39,1.24,0,.59-.21,1.08-.63,1.48-.26.24-.68.43-1.26.56l.12,1.47c.94-.12,1.67-.48,2.2-1.09M1151.86,491.94c.48.47.72,1.04.72,1.71s-.24,1.24-.72,1.68c-.48.45-1.14.67-1.97.67s-1.55-.23-2.05-.68c-.51-.45-.76-.99-.76-1.61,0-.43.12-.84.36-1.23.24-.39.6-.69,1.06-.91.47-.22.95-.33,1.46-.33.77,0,1.4.23,1.88.7M1147.76,499.9h-1.68v1.69h1.68v-1.69ZM1146.08,508.97c0,.77.07,1.42.2,1.95.13.53.33.97.59,1.32.26.35.64.64,1.12.89.48.24,1.01.36,1.57.36.7,0,1.31-.2,1.82-.59.51-.39.88-.95,1.09-1.68.28.57.64.99,1.1,1.27.45.28.94.42,1.45.42.55,0,1.08-.16,1.59-.47.51-.32.88-.75,1.13-1.31.24-.56.36-1.3.36-2.22v-4.52h-12.03v4.6ZM1156.69,505.96v2.41c0,.87-.05,1.48-.17,1.84-.11.35-.32.63-.62.82-.3.19-.65.29-1.05.29-.42,0-.77-.1-1.05-.31-.28-.21-.48-.51-.6-.92-.09-.31-.14-.82-.14-1.52v-2.61h3.63ZM1151.64,505.96v2.79c0,.77-.07,1.36-.2,1.77-.13.41-.36.73-.7.96-.33.23-.72.35-1.17.35-.38,0-.72-.08-1.01-.24-.29-.16-.52-.36-.67-.61-.15-.24-.26-.55-.33-.92-.04-.21-.06-.57-.06-1.09v-3h4.13ZM1147.76,515.99h-1.68v1.69h1.68v-1.69ZM1157.36,526.52c.53-.61.8-1.38.8-2.33,0-1.27-.46-2.29-1.38-3.03-1.05-.86-2.75-1.29-5.07-1.29-2.08,0-3.57.39-4.47,1.17-.91.78-1.36,1.79-1.36,3.02,0,.72.17,1.37.52,1.94.35.57.84,1.02,1.49,1.35.65.33,1.35.49,2.11.49,1.15,0,2.08-.35,2.81-1.04.73-.69,1.09-1.54,1.09-2.52,0-.56-.13-1.1-.39-1.62-.26-.51-.66-.95-1.2-1.31,1.2,0,2.13.15,2.78.42.65.27,1.15.64,1.48,1.1.26.36.39.77.39,1.24,0,.59-.21,1.08-.63,1.48-.26.24-.68.43-1.26.56l.12,1.47c.94-.12,1.67-.48,2.2-1.09M1151.86,522.26c.48.47.72,1.04.72,1.7s-.24,1.23-.72,1.68c-.48.44-1.14.66-1.97.66s-1.55-.22-2.05-.68c-.51-.45-.76-.99-.76-1.61,0-.43.12-.84.36-1.23s.6-.69,1.06-.91c.47-.22.95-.33,1.46-.33.77,0,1.4.23,1.88.7M1147.76,530.22h-1.68v1.69h1.68v-1.69ZM1147.5,536.02c.27.17.53.37.8.62s.77.82,1.51,1.71c.9,1.06,1.6,1.83,2.12,2.29.51.46,1,.78,1.47.98.46.2.94.29,1.42.29.95,0,1.74-.34,2.38-1.01.64-.67.96-1.59.96-2.75s-.3-2.06-.89-2.74c-.59-.68-1.46-1.07-2.59-1.18l-.15,1.52c.76,0,1.34.22,1.77.65.43.43.64,1,.64,1.71,0,.68-.2,1.22-.61,1.64-.4.42-.89.63-1.48.63s-1.15-.23-1.78-.69c-.62-.46-1.47-1.35-2.55-2.66-.69-.85-1.3-1.49-1.82-1.94-.53-.45-1.06-.77-1.6-.97-.33-.12-.67-.19-1.02-.17v7.98h1.42v-5.92Z"/>
    <line class="st3" x1="723.5" y1="981.25" x2="723.5" y2="989.35"/>
    <line class="st3" x1="731.26" y1="1114.92" x2="851.08" y2="1166.56"/>
    <line class="st3" x1="575.66" y1="1154.74" x2="535.49" y2="1166.56"/>
    <line class="st3" x1="643.17" y1="1166.56" x2="583.42" y2="1166.56"/>
  </g>
</svg>