<?xml version="1.0" encoding="UTF-8"?>
<svg id="Layer_1" xmlns="http://www.w3.org/2000/svg" xmlns:xlink="http://www.w3.org/1999/xlink" version="1.1" viewBox="0 0 1200 1697.14">
  <!-- Generator: Adobe Illustrator 29.6.0, SVG Export Plug-In . SVG Version: 2.1.1 Build 207)  -->
  <defs>
    <style>
      .st0, .st1, .st2, .st3 {
        fill: none;
      }

      .st1 {
        stroke-linecap: round;
        stroke-linejoin: round;
      }

      .st1, .st2, .st3 {
        stroke-width: .17px;
      }

      .st1, .st3 {
        stroke: #000;
      }

      .st2 {
        stroke: #c1c0bf;
      }

      .st2, .st3 {
        stroke-miterlimit: 10;
      }

      .st4 {
        clip-path: url(#clippath-1);
      }

      .st5 {
        clip-path: url(#clippath-3);
      }

      .st6 {
        clip-path: url(#clippath-4);
      }

      .st7 {
        clip-path: url(#clippath-2);
      }

      .st8 {
        clip-path: url(#clippath-6);
      }

      .st9 {
        clip-path: url(#clippath-5);
      }

      .st10 {
        fill: #fff;
      }

      .st11 {
        fill: #ece9e5;
      }

      .st12 {
        fill: #302c35;
      }

      .st13 {
        clip-path: url(#clippath);
      }
    </style>
    <clipPath id="clippath">
      <rect class="st0" x="810.06" y="1217.81" width="28.98" height="39.74"/>
    </clipPath>
    <clipPath id="clippath-1">
      <rect class="st0" x="87.19" y="308.64" width="901.62" height="1079.86"/>
    </clipPath>
    <clipPath id="clippath-2">
      <rect class="st0" x="87.19" y="308.64" width="901.62" height="1079.86"/>
    </clipPath>
    <clipPath id="clippath-3">
      <rect class="st0" x="881.34" y="1301.65" width="27.88" height="37.62"/>
    </clipPath>
    <clipPath id="clippath-4">
      <rect class="st0" x="87.19" y="308.64" width="901.62" height="1079.86"/>
    </clipPath>
    <clipPath id="clippath-5">
      <rect class="st0" x="87.19" y="308.64" width="901.62" height="1079.86"/>
    </clipPath>
    <clipPath id="clippath-6">
      <rect class="st0" x="87.19" y="308.64" width="901.62" height="1079.86"/>
    </clipPath>
  </defs>
  <rect class="st11" x="643.82" y="889.75" width="289" height="476.55"/>
  <rect class="st11" x="547.71" y="889.75" width="158.85" height="270.31"/>
  <rect class="st11" x="335.47" y="471.93" width="467.21" height="218.92"/>
  <rect class="st11" x="609.78" y="633.67" width="192.22" height="256.08"/>
  <rect class="st10" x="655.74" y="1153" width="46.82" height="97.69"/>
  <rect class="st10" x="621.13" y="894.42" width="184.76" height="11.35"/>
  <g class="st13">
    <path class="st10" d="M839.04,1217.83c0,7.8,0,15.61,0,23.42-.01,9.02-6.49,16.3-14.5,16.3-8.01,0-14.47-7.3-14.47-16.32,0-7.81,0-15.61.01-23.42,9.66,0,19.31,0,28.96.02"/>
  </g>
  <g class="st4">
    <path class="st1" d="M839.04,1217.83c0,7.8,0,15.61,0,23.42-.01,9.02-6.49,16.3-14.5,16.3-8.01,0-14.47-7.3-14.47-16.32,0-7.81,0-15.61.01-23.42,9.66,0,19.31,0,28.96.02Z"/>
  </g>
  <rect class="st10" x="845.88" y="1217.84" width="63.33" height="64.06"/>
  <line class="st1" x1="909.21" y1="1217.84" x2="846.39" y2="1217.84"/>
  <line class="st1" x1="845.88" y1="1218.9" x2="845.88" y2="1281.34"/>
  <polyline class="st1" points="845.88 1218.9 845.88 1217.84 846.39 1217.84"/>
  <polyline class="st1" points="846.83 1281.91 845.88 1281.91 845.88 1281.34"/>
  <line class="st1" x1="846.83" y1="1281.91" x2="902.96" y2="1281.91"/>
  <line class="st1" x1="878.51" y1="1217.84" x2="878.51" y2="1235.64"/>
  <g class="st7">
    <path class="st1" d="M882.41,1235.55c0-2.2-1.78-3.98-3.98-3.98s-3.98,1.79-3.98,3.98,1.78,3.98,3.98,3.98,3.98-1.78,3.98-3.98Z"/>
    <path class="st1" d="M882.41,1235.55c0-2.2-1.78-3.98-3.98-3.98s-3.98,1.79-3.98,3.98,1.78,3.98,3.98,3.98,3.98-1.78,3.98-3.98Z"/>
  </g>
  <g class="st5">
    <path class="st10" d="M883.49,1302.29h15.7c.6,0,1.08.36,1.08.79v34.59c0,.43-.48.79-1.08.79h-15.7c-.6,0-1.09-.36-1.09-.79v-34.59c0-.44.49-.79,1.09-.79M891.06,1317.54c-1.57,0-2.84,1.28-2.84,2.85s1.27,2.84,2.84,2.84,2.85-1.27,2.85-2.84-1.28-2.85-2.85-2.85"/>
    <path class="st10" d="M902.92,1320.38c0-1.18.96-2.14,2.13-2.14s2.14.96,2.14,2.14-.96,2.13-2.14,2.13-2.13-.96-2.13-2.13"/>
    <path class="st10" d="M891.06,1318.85c.84,0,1.53.68,1.53,1.53s-.69,1.52-1.53,1.52-1.53-.68-1.53-1.52.69-1.53,1.53-1.53"/>
    <path class="st10" d="M889.53,1320.38c0,.85.69,1.52,1.53,1.52s1.53-.68,1.53-1.52-.69-1.53-1.53-1.53-1.53.68-1.53,1.53M891.06,1323.22c-1.57,0-2.84-1.27-2.84-2.84s1.27-2.85,2.84-2.85,2.85,1.28,2.85,2.85-1.28,2.84-2.85,2.84"/>
    <path class="st10" d="M905.05,1322.52c1.18,0,2.14-.96,2.14-2.13s-.96-2.14-2.14-2.14-2.13.96-2.13,2.14.96,2.13,2.13,2.13M900.28,1337.68v-34.6c0-.43-.49-.79-1.09-.79h-15.7c-.6,0-1.09.36-1.09.79v34.6c0,.43.49.79,1.09.79h15.7c.6,0,1.09-.36,1.09-.79M890.91,1339.27h-8.49c-.6,0-1.08-.36-1.08-.8v-36.18c0-.35.47-.63,1.08-.63h26.8v37.61h-18.31Z"/>
  </g>
  <g class="st6">
    <path class="st1" d="M905.05,1322.52c-1.17,0-2.13-.96-2.13-2.13s.96-2.14,2.13-2.14,2.14.96,2.14,2.14-.96,2.13-2.14,2.13Z"/>
    <path class="st1" d="M891.06,1323.22c-1.57,0-2.84-1.27-2.84-2.84s1.27-2.85,2.84-2.85,2.85,1.28,2.85,2.85-1.28,2.84-2.85,2.84Z"/>
    <path class="st1" d="M891.06,1321.9c-.84,0-1.53-.67-1.53-1.52s.69-1.53,1.53-1.53,1.53.68,1.53,1.53-.69,1.52-1.53,1.52Z"/>
    <path class="st1" d="M899.19,1302.29h-15.7c-.6,0-1.09.36-1.09.79v34.6c0,.44.49.79,1.09.79h15.7c.6,0,1.09-.36,1.09-.79v-34.6c0-.44-.49-.79-1.09-.79Z"/>
  </g>
  <g class="st9">
    <path class="st1" d="M909.21,1301.65h-26.8c-.6,0-1.08.29-1.08.64v36.18c0,.44.47.8,1.08.8h8.49"/>
  </g>
  <polygon class="st10" points="876.49 1065.53 880.21 1071.62 885.62 1076.35 886.3 1076.69 885.96 1077.36 884.95 1078.38 883.59 1078.72 881.9 1078.04 880.21 1077.03 879.87 1077.03 879.54 1077.03 879.2 1077.03 878.52 1077.03 878.18 1077.36 885.62 1081.09 893.74 1082.44 901.86 1081.09 909.3 1077.36 909.3 1077.03 908.96 1077.03 908.29 1077.03 907.95 1077.03 907.61 1077.03 907.27 1077.03 905.58 1078.04 903.89 1078.72 902.54 1078.38 901.52 1077.36 901.52 1076.69 901.86 1076.35 907.27 1071.62 910.99 1065.53 876.49 1065.53"/>
  <polygon class="st10" points="828.45 1065.53 832.18 1071.62 837.93 1076.35 838.26 1076.69 838.26 1077.36 837.25 1078.38 835.56 1078.72 833.87 1078.04 832.51 1077.03 832.18 1077.03 831.5 1077.03 831.16 1077.03 830.82 1077.03 830.48 1077.03 830.15 1077.36 837.59 1081.09 845.71 1082.44 854.16 1081.09 861.27 1077.36 861.27 1077.03 860.93 1077.03 860.59 1077.03 859.92 1077.03 859.58 1077.03 859.24 1077.03 857.55 1078.04 855.85 1078.72 854.5 1078.38 853.49 1077.36 853.49 1076.69 853.82 1076.35 859.58 1071.62 862.96 1065.53 828.45 1065.53"/>
  <polygon class="st10" points="910.99 1001.59 876.49 1001.59 862.96 1001.59 828.45 1001.59 822.03 1001.59 822.03 1065.53 828.45 1065.53 862.96 1065.53 876.49 1065.53 910.99 1065.53 917.76 1065.53 917.76 1001.59 910.99 1001.59"/>
  <polygon class="st10" points="845.71 984.68 837.59 986.03 830.15 989.75 830.48 990.09 830.82 990.09 831.16 990.09 831.5 990.09 832.17 990.09 832.51 990.09 833.87 989.08 835.56 988.4 837.25 988.74 838.26 989.75 838.26 990.43 837.93 990.77 832.17 995.51 828.46 1001.59 862.96 1001.59 859.58 995.51 853.83 990.77 853.49 990.43 853.49 989.75 854.5 988.74 855.85 988.4 857.55 989.08 859.24 990.09 859.58 990.09 859.91 990.09 860.59 990.09 860.93 990.09 861.27 990.09 861.27 989.75 854.16 986.03 845.71 984.68"/>
  <polygon class="st10" points="893.74 984.68 885.62 986.03 878.18 989.75 878.52 990.09 879.19 990.09 879.53 990.09 879.87 990.09 880.21 990.09 881.9 989.08 883.59 988.4 884.95 988.74 885.96 989.75 886.3 990.43 885.62 990.77 880.21 995.51 876.49 1001.59 910.99 1001.59 907.27 995.51 901.86 990.77 901.52 990.43 901.52 989.75 902.54 988.74 903.89 988.4 905.58 989.08 907.27 990.09 907.61 990.09 907.95 990.09 908.29 990.09 908.96 990.09 909.3 990.09 909.3 989.75 901.86 986.03 893.74 984.68"/>
  <line class="st1" x1="880.21" y1="990.09" x2="879.87" y2="990.09"/>
  <line class="st1" x1="879.87" y1="990.09" x2="879.53" y2="990.09"/>
  <line class="st1" x1="878.52" y1="990.09" x2="879.19" y2="990.09"/>
  <line class="st1" x1="879.19" y1="990.09" x2="879.53" y2="990.09"/>
  <line class="st1" x1="878.18" y1="989.75" x2="878.52" y2="990.09"/>
  <line class="st1" x1="885.96" y1="989.75" x2="884.95" y2="988.74"/>
  <line class="st1" x1="884.95" y1="988.74" x2="883.59" y2="988.4"/>
  <line class="st1" x1="883.59" y1="988.4" x2="881.9" y2="989.07"/>
  <line class="st1" x1="881.9" y1="989.08" x2="880.21" y2="990.09"/>
  <line class="st1" x1="885.62" y1="990.77" x2="886.3" y2="990.43"/>
  <line class="st1" x1="886.3" y1="990.43" x2="885.96" y2="989.75"/>
  <line class="st1" x1="885.62" y1="990.77" x2="880.21" y2="995.5"/>
  <line class="st1" x1="880.21" y1="995.5" x2="876.49" y2="1001.59"/>
  <line class="st1" x1="893.74" y1="984.68" x2="885.62" y2="986.03"/>
  <line class="st1" x1="885.62" y1="986.03" x2="878.18" y2="989.75"/>
  <line class="st1" x1="880.21" y1="1077.03" x2="879.87" y2="1077.03"/>
  <line class="st1" x1="879.87" y1="1077.03" x2="879.53" y2="1077.03"/>
  <line class="st1" x1="878.52" y1="1077.03" x2="879.19" y2="1077.03"/>
  <line class="st1" x1="879.19" y1="1077.03" x2="879.53" y2="1077.03"/>
  <line class="st1" x1="878.18" y1="1077.36" x2="878.52" y2="1077.03"/>
  <line class="st1" x1="885.96" y1="1077.36" x2="884.95" y2="1078.38"/>
  <line class="st1" x1="884.95" y1="1078.38" x2="883.59" y2="1078.72"/>
  <line class="st1" x1="883.59" y1="1078.72" x2="881.9" y2="1078.04"/>
  <line class="st1" x1="881.9" y1="1078.04" x2="880.21" y2="1077.03"/>
  <line class="st1" x1="885.62" y1="1076.35" x2="886.3" y2="1076.69"/>
  <line class="st1" x1="886.3" y1="1076.69" x2="885.96" y2="1077.36"/>
  <line class="st1" x1="885.62" y1="1076.35" x2="880.21" y2="1071.62"/>
  <line class="st1" x1="880.21" y1="1071.61" x2="876.49" y2="1065.53"/>
  <line class="st1" x1="893.74" y1="1082.44" x2="885.62" y2="1081.09"/>
  <line class="st1" x1="885.62" y1="1081.09" x2="878.18" y2="1077.36"/>
  <line class="st1" x1="832.51" y1="990.09" x2="832.17" y2="990.09"/>
  <line class="st1" x1="832.17" y1="990.09" x2="831.5" y2="990.09"/>
  <line class="st1" x1="830.82" y1="990.09" x2="831.16" y2="990.09"/>
  <line class="st1" x1="831.16" y1="990.09" x2="831.5" y2="990.09"/>
  <line class="st1" x1="830.15" y1="989.75" x2="830.49" y2="990.09"/>
  <line class="st1" x1="830.48" y1="990.09" x2="830.82" y2="990.09"/>
  <line class="st1" x1="838.26" y1="989.75" x2="837.25" y2="988.74"/>
  <line class="st1" x1="837.25" y1="988.74" x2="835.56" y2="988.4"/>
  <line class="st1" x1="835.56" y1="988.4" x2="833.87" y2="989.07"/>
  <line class="st1" x1="833.87" y1="989.08" x2="832.51" y2="990.09"/>
  <line class="st1" x1="837.92" y1="990.77" x2="838.26" y2="990.43"/>
  <line class="st1" x1="838.26" y1="990.43" x2="838.26" y2="989.75"/>
  <line class="st1" x1="837.92" y1="990.77" x2="832.17" y2="995.5"/>
  <line class="st1" x1="832.17" y1="995.5" x2="828.45" y2="1001.59"/>
  <line class="st1" x1="859.24" y1="990.09" x2="859.58" y2="990.09"/>
  <line class="st1" x1="859.58" y1="990.09" x2="859.92" y2="990.09"/>
  <line class="st1" x1="860.93" y1="990.09" x2="860.59" y2="990.09"/>
  <line class="st1" x1="860.59" y1="990.09" x2="859.91" y2="990.09"/>
  <line class="st1" x1="861.27" y1="989.75" x2="861.27" y2="990.09"/>
  <line class="st1" x1="861.27" y1="990.09" x2="860.93" y2="990.09"/>
  <line class="st1" x1="853.49" y1="989.75" x2="854.5" y2="988.74"/>
  <line class="st1" x1="854.5" y1="988.74" x2="855.85" y2="988.4"/>
  <line class="st1" x1="855.85" y1="988.4" x2="857.54" y2="989.07"/>
  <line class="st1" x1="857.54" y1="989.08" x2="859.24" y2="990.09"/>
  <line class="st1" x1="853.82" y1="990.77" x2="853.48" y2="990.43"/>
  <line class="st1" x1="853.49" y1="990.43" x2="853.49" y2="989.75"/>
  <line class="st1" x1="853.82" y1="990.77" x2="859.57" y2="995.5"/>
  <line class="st1" x1="859.58" y1="995.5" x2="862.96" y2="1001.59"/>
  <line class="st1" x1="830.15" y1="989.75" x2="837.59" y2="986.03"/>
  <line class="st1" x1="837.59" y1="986.03" x2="845.7" y2="984.68"/>
  <line class="st1" x1="845.71" y1="984.68" x2="854.16" y2="986.03"/>
  <line class="st1" x1="854.16" y1="986.03" x2="861.27" y2="989.75"/>
  <line class="st1" x1="832.51" y1="1077.03" x2="832.17" y2="1077.03"/>
  <line class="st1" x1="832.17" y1="1077.03" x2="831.5" y2="1077.03"/>
  <line class="st1" x1="830.82" y1="1077.03" x2="831.16" y2="1077.03"/>
  <line class="st1" x1="831.16" y1="1077.03" x2="831.5" y2="1077.03"/>
  <line class="st1" x1="830.15" y1="1077.36" x2="830.49" y2="1077.03"/>
  <line class="st1" x1="830.48" y1="1077.03" x2="830.82" y2="1077.03"/>
  <line class="st1" x1="838.26" y1="1077.36" x2="837.25" y2="1078.38"/>
  <line class="st1" x1="837.25" y1="1078.38" x2="835.56" y2="1078.72"/>
  <line class="st1" x1="835.56" y1="1078.72" x2="833.87" y2="1078.04"/>
  <line class="st1" x1="833.87" y1="1078.04" x2="832.51" y2="1077.03"/>
  <line class="st1" x1="837.92" y1="1076.35" x2="838.26" y2="1076.69"/>
  <line class="st1" x1="838.26" y1="1076.69" x2="838.26" y2="1077.36"/>
  <line class="st1" x1="837.92" y1="1076.35" x2="832.17" y2="1071.62"/>
  <line class="st1" x1="832.17" y1="1071.61" x2="828.45" y2="1065.53"/>
  <line class="st1" x1="859.24" y1="1077.03" x2="859.58" y2="1077.03"/>
  <line class="st1" x1="859.58" y1="1077.03" x2="859.92" y2="1077.03"/>
  <line class="st1" x1="860.93" y1="1077.03" x2="860.59" y2="1077.03"/>
  <line class="st1" x1="860.59" y1="1077.03" x2="859.91" y2="1077.03"/>
  <line class="st1" x1="861.27" y1="1077.36" x2="861.27" y2="1077.03"/>
  <line class="st1" x1="861.27" y1="1077.03" x2="860.93" y2="1077.03"/>
  <line class="st1" x1="853.49" y1="1077.36" x2="854.5" y2="1078.38"/>
  <line class="st1" x1="854.5" y1="1078.38" x2="855.85" y2="1078.72"/>
  <line class="st1" x1="855.85" y1="1078.72" x2="857.54" y2="1078.04"/>
  <line class="st1" x1="857.54" y1="1078.04" x2="859.24" y2="1077.03"/>
  <line class="st1" x1="853.82" y1="1076.35" x2="853.48" y2="1076.69"/>
  <line class="st1" x1="853.49" y1="1076.69" x2="853.49" y2="1077.36"/>
  <line class="st1" x1="853.82" y1="1076.35" x2="859.57" y2="1071.62"/>
  <line class="st1" x1="859.58" y1="1071.61" x2="862.96" y2="1065.53"/>
  <line class="st1" x1="830.15" y1="1077.36" x2="837.59" y2="1081.09"/>
  <line class="st1" x1="837.59" y1="1081.09" x2="845.7" y2="1082.44"/>
  <line class="st1" x1="845.71" y1="1082.44" x2="854.16" y2="1081.09"/>
  <line class="st1" x1="854.16" y1="1081.09" x2="861.27" y2="1077.36"/>
  <line class="st1" x1="822.03" y1="1065.53" x2="822.03" y2="1001.59"/>
  <polyline class="st1" points="822.03 1001.59 828.45 1001.59 862.96 1001.59 876.49 1001.59 910.99 1001.59 917.76 1001.59"/>
  <polyline class="st1" points="917.76 1065.53 910.99 1065.53 876.49 1065.53 862.96 1065.53 828.46 1065.53 822.03 1065.53"/>
  <line class="st1" x1="673.9" y1="1228.89" x2="664.14" y2="1228.89"/>
  <rect class="st1" x="655.84" y="1154.2" width="46.82" height="96.5"/>
  <line class="st1" x1="671.39" y1="1172.44" x2="671.39" y2="1162.9"/>
  <line class="st1" x1="689.32" y1="1172.44" x2="689.32" y2="1162.9"/>
  <line class="st1" x1="684.61" y1="1167.73" x2="694.14" y2="1167.73"/>
  <line class="st1" x1="666.56" y1="1167.73" x2="676.09" y2="1167.73"/>
  <rect class="st1" x="662.36" y="1156.93" width="35.98" height="20.97"/>
  <rect class="st1" x="667.6" y="1216.83" width="24.26" height="24.26"/>
  <rect class="st1" x="661.57" y="1210.67" width="36.33" height="36.46"/>
  <polygon class="st10" points="559.72 935.8 559.72 1030.58 599.1 1030.58 599.1 1000.54 599.1 966.5 599.1 935.8 559.72 935.8"/>
  <polygon class="st10" points="599.1 1000.54 605.11 996.54 609.78 991.2 609.78 990.53 610.45 990.53 611.78 991.87 611.78 993.2 611.11 995.21 609.78 996.54 609.78 997.21 609.78 997.87 610.45 997.87 610.45 998.54 615.12 988.53 615.12 977.85 610.45 967.84 610.45 968.51 609.78 968.51 609.78 969.17 609.78 969.84 611.11 971.85 611.78 973.18 611.78 974.51 610.45 975.85 609.78 975.85 609.78 975.18 605.11 969.84 599.1 966.5 599.1 1000.54"/>
  <line class="st1" x1="609.78" y1="969.84" x2="609.78" y2="969.17"/>
  <line class="st1" x1="610.45" y1="968.51" x2="609.78" y2="968.51"/>
  <line class="st1" x1="609.78" y1="968.51" x2="609.78" y2="969.17"/>
  <line class="st1" x1="610.45" y1="967.84" x2="610.45" y2="968.5"/>
  <line class="st1" x1="610.45" y1="975.85" x2="611.78" y2="974.51"/>
  <line class="st1" x1="611.78" y1="974.51" x2="611.78" y2="973.18"/>
  <line class="st1" x1="611.78" y1="973.18" x2="611.11" y2="971.84"/>
  <line class="st1" x1="611.11" y1="971.84" x2="609.78" y2="969.84"/>
  <line class="st1" x1="609.78" y1="975.18" x2="609.78" y2="975.85"/>
  <line class="st1" x1="609.78" y1="975.85" x2="610.44" y2="975.85"/>
  <line class="st1" x1="609.78" y1="975.18" x2="605.1" y2="969.84"/>
  <line class="st1" x1="605.11" y1="969.84" x2="599.1" y2="966.5"/>
  <line class="st1" x1="609.78" y1="996.54" x2="609.78" y2="997.21"/>
  <line class="st1" x1="610.45" y1="997.87" x2="609.78" y2="997.87"/>
  <line class="st1" x1="609.78" y1="997.87" x2="609.78" y2="997.21"/>
  <line class="st1" x1="610.45" y1="998.54" x2="610.45" y2="997.87"/>
  <line class="st1" x1="610.45" y1="990.53" x2="611.78" y2="991.87"/>
  <line class="st1" x1="611.78" y1="991.87" x2="611.78" y2="993.2"/>
  <line class="st1" x1="611.78" y1="993.2" x2="611.11" y2="995.21"/>
  <line class="st1" x1="611.11" y1="995.21" x2="609.78" y2="996.54"/>
  <line class="st1" x1="609.78" y1="991.2" x2="609.78" y2="990.53"/>
  <line class="st1" x1="609.78" y1="990.53" x2="610.44" y2="990.53"/>
  <line class="st1" x1="609.78" y1="991.2" x2="605.1" y2="996.54"/>
  <line class="st1" x1="605.11" y1="996.54" x2="599.1" y2="1000.54"/>
  <line class="st1" x1="610.45" y1="967.84" x2="615.12" y2="977.85"/>
  <line class="st1" x1="615.12" y1="977.85" x2="615.12" y2="988.53"/>
  <line class="st1" x1="615.12" y1="988.53" x2="610.44" y2="998.54"/>
  <line class="st1" x1="559.72" y1="1030.58" x2="599.1" y2="1030.58"/>
  <polyline class="st1" points="599.1 1030.58 599.1 1000.54 599.1 966.5 599.1 935.8"/>
  <line class="st1" x1="559.72" y1="1030.58" x2="559.72" y2="935.8"/>
  <line class="st1" x1="599.1" y1="935.8" x2="559.72" y2="935.8"/>
  <polygon class="st10" points="580.41 1037.92 582 1053.24 590.12 1132.03 591.76 1148.05 717.23 1148.05 717.23 1037.92 580.41 1037.92"/>
  <polygon class="st10" points="590.12 1132.03 571.73 1132.03 568.39 1130.7 567.06 1128.03 567.06 1057.94 568.39 1054.61 571.73 1053.27 581.74 1053.27 582 1053.24 590.12 1132.03"/>
  <polygon class="st10" points="559.72 1037.92 559.72 1148.05 591.76 1148.05 590.12 1132.03 571.73 1132.03 568.39 1130.7 567.06 1128.03 567.06 1057.94 568.39 1054.61 571.73 1053.27 581.74 1053.27 582 1053.24 580.41 1037.92 559.72 1037.92"/>
  <line class="st1" x1="571.73" y1="1132.03" x2="568.4" y2="1130.7"/>
  <line class="st1" x1="568.4" y1="1130.69" x2="567.06" y2="1128.02"/>
  <polyline class="st1" points="571.73 1132.03 590.12 1132.03 590.42 1132.03"/>
  <line class="st1" x1="571.73" y1="1053.27" x2="568.4" y2="1054.6"/>
  <line class="st1" x1="568.4" y1="1054.61" x2="567.06" y2="1057.94"/>
  <line class="st1" x1="571.73" y1="1053.27" x2="581.75" y2="1053.27"/>
  <line class="st1" x1="567.06" y1="1128.02" x2="567.06" y2="1057.94"/>
  <polyline class="st1" points="580.41 1037.92 582 1053.24 590.12 1132.03 591.76 1148.05"/>
  <polyline class="st1" points="717.24 1037.92 580.41 1037.92 559.72 1037.92"/>
  <line class="st1" x1="717.24" y1="1148.05" x2="717.24" y2="1037.92"/>
  <polyline class="st1" points="717.24 1148.05 591.76 1148.05 559.72 1148.05"/>
  <line class="st1" x1="559.72" y1="1037.92" x2="559.72" y2="1148.05"/>
  <rect class="st10" x="654.27" y="1255.96" width="49.96" height="96.54"/>
  <line class="st1" x1="656.84" y1="1255.96" x2="659.51" y2="1255.96"/>
  <line class="st1" x1="664.18" y1="1255.96" x2="668.86" y2="1255.96"/>
  <line class="st1" x1="673.53" y1="1255.96" x2="678.2" y2="1255.96"/>
  <line class="st1" x1="682.87" y1="1255.96" x2="688.21" y2="1255.96"/>
  <line class="st1" x1="692.88" y1="1255.96" x2="697.55" y2="1255.96"/>
  <line class="st1" x1="702.23" y1="1255.96" x2="704.23" y2="1255.96"/>
  <line class="st1" x1="704.23" y1="1255.96" x2="704.23" y2="1258.63"/>
  <line class="st1" x1="704.23" y1="1263.3" x2="704.23" y2="1267.97"/>
  <line class="st1" x1="704.23" y1="1272.64" x2="704.23" y2="1277.31"/>
  <line class="st1" x1="704.23" y1="1281.98" x2="704.23" y2="1286.66"/>
  <line class="st1" x1="704.23" y1="1291.33" x2="704.23" y2="1296"/>
  <line class="st1" x1="704.23" y1="1301.34" x2="704.23" y2="1303.34"/>
  <line class="st1" x1="704.23" y1="1303.34" x2="702.23" y2="1303.34"/>
  <line class="st1" x1="697.55" y1="1303.34" x2="692.88" y2="1303.34"/>
  <line class="st1" x1="688.21" y1="1303.34" x2="682.87" y2="1303.34"/>
  <line class="st1" x1="678.2" y1="1303.34" x2="673.53" y2="1303.34"/>
  <line class="st1" x1="668.86" y1="1303.34" x2="664.18" y2="1303.34"/>
  <line class="st1" x1="659.51" y1="1303.34" x2="656.84" y2="1303.34"/>
  <line class="st1" x1="704.23" y1="1350.73" x2="704.23" y2="1348.06"/>
  <line class="st1" x1="704.23" y1="1343.39" x2="704.23" y2="1338.72"/>
  <line class="st1" x1="704.23" y1="1334.04" x2="704.23" y2="1329.37"/>
  <line class="st1" x1="704.23" y1="1324.7" x2="704.23" y2="1320.03"/>
  <line class="st1" x1="704.23" y1="1315.36" x2="704.23" y2="1310.68"/>
  <line class="st1" x1="704.23" y1="1306.01" x2="704.23" y2="1303.34"/>
  <line class="st1" x1="704.23" y1="1303.34" x2="702.23" y2="1303.34"/>
  <line class="st1" x1="697.55" y1="1303.34" x2="692.88" y2="1303.34"/>
  <line class="st1" x1="688.21" y1="1303.34" x2="682.87" y2="1303.34"/>
  <line class="st1" x1="678.2" y1="1303.34" x2="673.53" y2="1303.34"/>
  <line class="st1" x1="668.86" y1="1303.34" x2="664.18" y2="1303.34"/>
  <line class="st1" x1="659.51" y1="1303.34" x2="656.84" y2="1303.34"/>
  <rect class="st12" x="781.98" y="1350.28" width="150.84" height="16.02"/>
  <rect class="st12" x="643.82" y="1350.28" width="67.41" height="16.02"/>
  <rect class="st12" x="791.99" y="889.75" width="140.83" height="46.05"/>
  <rect class="st12" x="547.71" y="935.8" width="12.01" height="224.26"/>
  <rect class="st12" x="559.73" y="1148.05" width="96.11" height="12.01"/>
  <rect class="st12" x="643.82" y="1160.06" width="12.02" height="190.22"/>
  <rect class="st12" x="607.78" y="686.85" width="4" height="205.96"/>
  <rect class="st12" x="339.13" y="686.85" width="268.65" height="4"/>
  <rect class="st12" x="547.71" y="889.75" width="82.76" height="46.05"/>
  <rect class="st12" x="338.14" y="471.93" width="464.54" height="4.67"/>
  <rect class="st12" x="335.47" y="471.93" width="3.89" height="218.92"/>
  <rect class="st12" x="798" y="474.6" width="4.67" height="415.15"/>
  <rect class="st12" x="790.66" y="1343.61" width="124.81" height="9.3"/>
  <rect class="st12" x="790.66" y="1210.79" width="6.67" height="54.02"/>
  <rect class="st12" x="796" y="1210.79" width="119.47" height="5.34"/>
  <rect class="st12" x="790.66" y="1142.04" width="8.01" height="68.75"/>
  <rect class="st12" x="798.67" y="1142.04" width="118.14" height="7.34"/>
  <rect class="st12" x="655.84" y="1148.05" width="61.41" height="6"/>
  <rect class="st12" x="796" y="1216.13" width="114.13" height="1.34"/>
  <rect class="st12" x="790.66" y="1334.93" width="6.67" height="8.98"/>
  <rect class="st12" x="796" y="1342.27" width="114.13" height="1.33"/>
  <rect class="st12" x="347.48" y="484.61" width="165.53" height="39.38"/>
  <rect class="st12" x="338.14" y="476.6" width="182.88" height="55.4"/>
  <path class="st2" d="M335.47,485.28h0M339.47,485.28h.66M521.01,485.28h276.99M335.47,496.63h0M339.47,496.63h.66M521.01,496.63h276.99M335.47,508.64h0M339.47,508.64h.66M521.01,508.64h276.99M335.47,520.65h0M339.47,520.65h.66M521.01,520.65h276.99M335.47,532h0M339.47,532h458.53M335.47,544.01h0M339.47,544.01h458.53M335.47,556.03h0M339.47,556.03h458.53M335.47,568.04h0M339.47,568.04h458.53M335.47,579.39h0M339.47,579.39h458.53M335.47,591.4h0M339.47,591.4h458.53M335.47,603.42h0M339.47,603.42h458.53M335.47,615.43h0M339.47,615.43h458.53M335.47,626.78h0M339.47,626.78h458.53M335.47,638.79h0M339.47,638.79h458.53M335.47,650.81h0M339.47,650.81h458.53M335.47,662.15h0M339.47,662.15h458.53M335.47,674.17h0M339.47,674.17h458.53M335.47,686.18h0M339.47,686.18h458.53M611.79,698.19h186.21M611.79,709.54h186.21M611.79,721.55h186.21M611.79,733.57h186.21M611.79,744.91h186.21M611.79,756.93h186.21M611.79,768.94h186.21M611.79,780.96h186.21M611.79,792.3h186.21M611.79,804.32h186.21M611.79,816.33h186.21M611.79,827.68h186.21M611.79,839.69h186.21M611.79,851.7h186.21M611.79,863.72h186.21M611.79,875.06h186.21M611.79,887.08h186.21"/>
  <path class="st3" d="M916.81,1149.38v61.4M782.65,1366.3h150.17M643.82,1366.3h66.07M781.98,1350.28h.67M932.82,1350.28v-170.86M932.82,1163.4v-136.16M932.82,1011.22v-75.42M630.47,903.77v32.03M630.47,935.8h-70.75M559.73,935.8v212.25M559.73,1148.05h96.11M655.84,1160.06v190.22M655.84,1350.28h55.4M713.24,1350.28h62.74M781.98,1350.28h8.67M790.66,1142.04h126.15M916.81,1142.04v-206.24M916.81,935.8h-124.81M791.99,935.8v-32.03M791.99,903.77h-1.33M711.9,903.77h-1.33M631.14,903.77h-.67M798.67,1149.38l118.14,61.4M916.81,1210.79v-61.4M630.47,920.45v-30.7M630.47,889.75h-18.68M932.82,889.75h-131.48M800,889.75h-8.01M791.99,889.75v30.7M801.34,889.75h-1.33M547.71,935.8v224.26M547.71,1160.06h12.01M559.73,1148.05v-212.25M655.84,1148.05h-96.11M559.73,1160.06h84.1M655.84,1160.06v-6.01M643.82,1160.06v190.22M655.84,1350.28v-190.22M779.31,1284.87l-16.69,2.01M762.63,1286.88l-16.02,6.67M746.61,1293.55l-14.02,10.68M732.59,1304.23l-10.01,13.35M722.58,1317.58l-6.67,16.02M715.91,1333.6l-2.67,16.69"/>
  <path class="st1" d="M711.23,1350.28v16.02M781.98,1366.3v-16.02M779.31,1350.28v-65.41M775.98,1350.28h3.34"/>
  <path class="st1" d="M782.65,1350.28h-.67M340.14,475.93h-.66M335.47,475.93h0M791.99,901.76h-1.33M711.9,901.76h-1.33M631.14,901.76h-.67M611.79,889.75v-202.9M611.79,686.84h-4.01M607.78,690.85v198.9M607.78,686.84h-267.64M340.14,686.84v4M340.14,690.85h267.64M791.99,920.45v15.35M791.99,935.8h124.81M630.47,935.8v-15.35M633.81,819.67l19.36,2.67M653.17,822.34l18.02,7.34M671.19,829.68l15.35,12.01M686.54,841.69l11.35,15.35M697.89,857.04l8.01,18.02M705.89,875.06l2,19.36M633.81,894.42v-74.75"/>
  <path class="st1" d="M638.48,898.43h64.74M703.23,898.43v-3.34M703.23,895.09h-64.74M638.48,895.09v3.34"/>
  <path class="st1" d="M706.56,905.77h-71.41M638.48,894.42h64.74M638.48,900.43h64.74M706.56,900.43v5.34M635.15,900.43v5.34M635.15,900.43h71.41"/>
  <path class="st1" d="M631.14,905.77h4M635.15,905.77v-5.34M635.15,900.43h3.33M638.48,900.43v-6.01M638.48,894.42h-7.34M631.14,894.42v11.35M706.56,905.77h4M710.57,905.77v-11.35M710.57,894.42h-7.34M703.22,894.42v6.01M703.22,900.43h3.34M706.56,900.43v5.34M787.32,895.09v3.34M715.24,895.09h72.08M715.24,898.43v-3.34M787.32,898.43h-72.08"/>
  <path class="st1" d="M715.24,905.77h72.08M787.32,894.42h-72.08M715.24,903.1v2.67M787.32,903.1v2.67"/>
  <path class="st1" d="M715.24,894.42v11.35M711.9,894.42h3.34M711.9,905.77v-11.35M715.24,905.77h-3.34M790.66,894.42v11.35M787.32,894.42h3.34M787.32,905.77v-11.35M790.66,905.77h-3.34"/>
  <path class="st1" d="M932.82,1366.3h-150.84M782.65,1350.28h-.66M711.23,1366.3h-67.41M335.47,471.93h0M340.14,471.93h462.54M798,476.6h-457.86M802.67,476.6v-4.67M335.47,471.93h467.21M336.8,473.27h464.54M336.8,473.27h464.54M337.47,473.93h463.87M338.14,474.6h461.87M338.14,474.6h461.87M338.14,474.6h461.87M339.47,475.93h459.2M801.34,473.93h-463.2M338.14,474.6h461.87M801.34,474.6v-.67M337.47,473.93v216.92M336.8,473.27v217.58M336.8,473.27v217.58M335.47,471.93v218.92M339.47,475.93v214.92M338.14,474.6v216.25M338.14,474.6v216.25M338.14,654.14v36.71M338.14,690.85v-216.25M338.14,473.93h-.67M337.47,473.93v216.92M798,889.75v-413.14M802.67,476.6v413.14M802.67,889.75h0M802.67,889.75h-1.33M800,889.75h-1.33M801.34,889.75v-415.82M801.34,889.75v-416.48M801.34,889.75v-416.48M802.67,889.75v-417.82M798.67,889.75v-413.81M800,889.75v-415.15M800,889.75v-415.15M800,889.75v-415.15M800,474.6v415.15M801.34,889.75v-415.15M790.66,1343.61v6.67M790.66,1334.93v8.68M790.66,1210.79v54.06M916.81,1210.79h-118.14M798.67,1210.79v-61.4M798.67,1142.04h-8.01M790.66,1142.04v68.75M916.81,1142.04h-8.01M908.8,1142.04v7.34M908.8,1149.38h8.01M861.41,1142.04h-62.74M798.67,1149.38h62.74M861.41,1149.38v-7.34M861.41,1142.04h47.39M908.8,1149.38h-47.39M908.8,1142.04v7.34M861.41,1149.38v-7.34M559.72,1037.92v110.13M559.72,1148.05h157.52M869.42,1142.04h-2M862.08,1142.04h-4.67M852.73,1142.04h-4.67M843.39,1142.04h-4.67M834.04,1142.04h-4.67M824.7,1142.04h-2.67"/>
  <path class="st1" d="M869.42,1142.04h2.67M876.76,1142.04h4.67M886.1,1142.04h4.67M895.45,1142.04h4.67M904.79,1142.04h4.67M914.14,1142.04h2.67M916.81,1142.04v-2.67M916.81,1134.7v-4.67M916.81,1125.35v-4.67M916.81,1116.01v-5.34M916.81,1106v-4.67M916.81,1096.65v-2M860.74,1332.26l-2-16.69M858.74,1315.57l-6.67-15.35M852.07,1300.22l-10.01-13.35M842.05,1286.87l-14.02-10.68M828.04,1276.19l-15.35-6.67M812.69,1269.52l-16.69-2"/>
  <path class="st1" d="M797.33,1264.85h-6.67M790.66,1334.93h6.67M796,1332.26h64.74M796,1329.59v2.67"/>
  <line class="st1" x1="796" y1="1332.26" x2="796" y2="1267.52"/>
  <path class="st1" d="M655.84,1202.11v-46.72M655.84,1249.5v-94.1M655.84,1154.05h61.41M717.24,1154.05v-6M717.24,1148.05h-61.41"/>
  <path class="st1" d="M916.81,979.85v62.74M879.43,1217.46h1.33M876.09,1217.46h2"/>
  <path class="st1" d="M876.09,1217.46h4.67M876.09,1217.46h2M879.43,1217.46h1.33M797.33,1217.46h111.46M797.33,1264.85v-47.39M797.33,1342.27v-7.34M908.8,1342.27h-111.46M908.8,1217.46v124.81"/>
  <path class="st1" d="M849.39,1217.46h20.69M874.76,1217.46h3.34M879.43,1217.46h2.67M886.77,1217.46h20.69M908.8,1218.13v2.67"/>
  <path class="st1" d="M599.1,935.8h-39.38M559.73,935.8v94.78M513.01,523.99v-39.38M513.01,484.61h-165.52M347.48,484.61v39.38M347.48,523.99h165.52M340.14,532h180.87M521.01,532v-55.4M521.01,476.6h-180.87M340.14,476.6v55.4M513.01,523.99h-165.52M347.48,523.99v-39.38M347.48,484.61h165.52M513.01,484.61v39.38M607.78,889.75v-198.9M607.78,690.85h-272.32M643.82,1366.3v-206.24M643.82,1160.06h-96.11M547.71,1160.06v-270.31M547.71,889.75h60.07M932.82,889.75v476.55M335.47,471.93h467.21M802.67,471.93v417.82M802.67,889.75h130.15M335.47,690.85v-218.92"/>
  <g class="st8">
    <path class="st1" d="M-423.42,1396.33h12.01M-423.42,1238.82h12.01M-423.42,1080.63h12.01M-376.7,1631.94l32.04-14.02M-353.33,1583.22l8.67,34.71M-298.6,1639.95l-54.73-56.73M-298.6,1639.95l-78.09-8.01M-298.6,1639.95l-46.06-22.02M-423.42,1001.88h12.01M-423.42,1317.58h12.01M-423.42,1160.06h12.01M-423.42,1001.88v394.46M1803.83,92.82H-536.88"/>
    <path d="M-381.09,193.5c-.85.56-1.49,1.33-1.92,2.31-.42.98-.64,2.2-.64,3.66,0,1.15.21,2.18.63,3.1.42.92,1.01,1.62,1.77,2.11.76.49,1.57.74,2.43.74s1.63-.22,2.3-.67c.66-.44,1.21-1.14,1.65-2.07.29-.64.63-1.83,1.03-3.56.39-1.73.77-2.8,1.15-3.21.37-.41.85-.62,1.43-.62.67,0,1.24.3,1.72.88.48.59.71,1.52.71,2.81s-.26,2.17-.78,2.8c-.52.63-1.3,1-2.31,1.12l.16,2.04c.94-.04,1.79-.3,2.54-.79.75-.49,1.32-1.19,1.7-2.1.39-.91.58-1.96.58-3.15,0-1.08-.18-2.06-.55-2.95-.37-.89-.9-1.56-1.61-2.02-.71-.46-1.47-.69-2.28-.69-.74,0-1.41.19-2.01.57-.6.38-1.1.95-1.5,1.72-.31.59-.65,1.63-1.01,3.1s-.62,2.43-.78,2.86c-.26.67-.58,1.15-.95,1.45-.38.29-.82.44-1.33.44s-.96-.15-1.38-.46c-.42-.31-.75-.77-1-1.39-.24-.62-.36-1.34-.36-2.15,0-.92.16-1.74.48-2.47.32-.73.73-1.27,1.25-1.62.51-.35,1.18-.57,1.99-.66l-.17-2.01c-1.08.03-2.05.33-2.91.88M-383.37,210.74h5.59l2.58,2.63-8.17,5.73v2.81l9.6-7.04,6.54,6.74v-2.88l-8-7.98h8v-2.13h-16.14v2.13Z"/>
    <path d="M-372.03,229.56h-1.85v10.61h1.85v-10.61ZM-376.93,229.56h-1.85v10.61h1.85v-10.61Z"/>
    <path d="M-381.09,249.55c-.85.56-1.49,1.33-1.92,2.32-.42.98-.64,2.2-.64,3.65,0,1.15.21,2.18.63,3.1.42.92,1.01,1.62,1.77,2.11.76.49,1.57.74,2.43.74s1.63-.22,2.3-.67c.66-.45,1.21-1.13,1.64-2.07.3-.64.64-1.83,1.03-3.56.39-1.73.77-2.8,1.15-3.21.37-.42.85-.62,1.43-.62.67,0,1.24.29,1.71.88.47.59.71,1.53.71,2.81s-.26,2.17-.78,2.8c-.52.63-1.29,1-2.31,1.11l.16,2.04c.95-.03,1.79-.3,2.54-.79.75-.49,1.31-1.19,1.7-2.1.39-.91.58-1.96.58-3.15,0-1.08-.18-2.07-.55-2.95-.37-.89-.9-1.56-1.61-2.02-.71-.46-1.47-.69-2.29-.69-.74,0-1.41.19-2.01.56-.6.38-1.1.95-1.51,1.72-.31.59-.65,1.63-1.01,3.1-.35,1.48-.62,2.43-.78,2.86-.26.67-.58,1.16-.96,1.45-.37.29-.82.44-1.32.44s-.96-.15-1.38-.46c-.42-.3-.76-.77-1-1.39-.24-.62-.36-1.34-.36-2.15,0-.91.16-1.74.48-2.47.32-.73.74-1.27,1.26-1.62.51-.35,1.18-.57,1.98-.67l-.17-2.01c-1.08.03-2.05.32-2.9.88"/>
    <path d="M-383.37,265.82h4.64l1.34,1.39-5.98,3.85v2.43l7.36-4.9,4.34,4.45v-2.55l-4.75-4.67h9.2v-1.97h-16.14v1.97ZM-383.37,283.85v2.06c.45-.25.91-.41,1.41-.5.49-.08,1.65-.12,3.5-.12h2.64c.88,0,1.49-.04,1.83-.1.54-.12.99-.32,1.35-.61.36-.29.65-.75.89-1.37.23-.62.35-1.43.35-2.43s-.14-1.88-.41-2.64c-.28-.76-.67-1.34-1.18-1.74-.51-.4-1.18-.69-2.01-.87l-.26,1.93c.83.21,1.41.54,1.73.98.33.44.49,1.13.49,2.06,0,.99-.22,1.74-.67,2.25-.33.37-.9.56-1.71.56-.07,0-.25,0-.52-.01-.26-.75-.49-1.93-.68-3.52-.09-.78-.2-1.36-.3-1.75-.15-.53-.36-1-.65-1.42-.28-.42-.66-.76-1.14-1.02-.47-.26-.99-.39-1.57-.39-.98,0-1.78.34-2.4,1.03-.63.69-.94,1.67-.94,2.95,0,.77.13,1.5.38,2.17.26.68.7,1.38,1.32,2.11-.55.06-1.03.19-1.45.4M-378.23,283.29c-.87,0-1.53-.1-1.98-.32-.58-.28-1.04-.72-1.37-1.3-.34-.59-.5-1.27-.5-2.03s.18-1.35.53-1.75c.35-.4.79-.6,1.32-.6.35,0,.66.09.94.27.28.18.5.44.64.78.14.34.28.91.39,1.72.21,1.43.46,2.51.75,3.22h-.73Z"/>
    <path d="M-383.37,289.85h4.64l1.34,1.39-5.98,3.85v2.43l7.35-4.9,4.34,4.45v-2.56l-4.75-4.67h9.2v-1.97h-16.14v1.97ZM-381.67,302.65c0-.29.05-.52.14-.67.09-.16.22-.27.38-.34.17-.07.53-.1,1.09-.1h6.84v1.98h1.54v-1.98h4.08l-1.19-1.97h-2.9v-1.45h-1.54v1.45h-6.73c-1.19,0-1.97.08-2.34.24-.37.16-.67.44-.9.83-.22.4-.34.95-.34,1.67,0,.44.06.93.17,1.49l1.75-.29c-.05-.36-.07-.65-.07-.87"/>
    <path d="M-409.4,195.58h7.33v7.55h1.9v-7.55h5v8.71h1.9v-10.84h-16.13v2.13ZM-407.12,206.83c-.86.56-1.49,1.33-1.92,2.31-.43.98-.64,2.21-.64,3.66,0,1.15.21,2.18.64,3.1.42.92,1.01,1.62,1.77,2.11.76.49,1.57.74,2.43.74s1.63-.22,2.3-.67c.66-.45,1.21-1.14,1.64-2.08.3-.64.64-1.83,1.03-3.56.39-1.73.78-2.8,1.15-3.21.37-.42.85-.62,1.43-.62.67,0,1.24.29,1.71.88.47.59.71,1.53.71,2.81s-.26,2.17-.78,2.8c-.52.63-1.29,1-2.31,1.11l.15,2.04c.95-.03,1.8-.3,2.54-.79.75-.49,1.32-1.19,1.7-2.1.38-.91.58-1.96.58-3.15,0-1.08-.18-2.07-.55-2.95-.37-.88-.91-1.56-1.61-2.02-.71-.46-1.47-.69-2.29-.69-.74,0-1.41.19-2.01.56-.6.38-1.1.95-1.5,1.72-.32.59-.65,1.63-1.01,3.11s-.62,2.43-.79,2.86c-.26.67-.57,1.16-.95,1.45-.38.29-.82.44-1.32.44s-.96-.16-1.38-.46c-.42-.3-.76-.77-1-1.39-.24-.62-.36-1.34-.36-2.15,0-.92.15-1.74.48-2.47.32-.74.74-1.27,1.26-1.62.52-.35,1.18-.57,1.99-.67l-.18-2.01c-1.08.03-2.04.32-2.9.88"/>
    <path d="M-398.06,227.57h-1.85v10.61h1.85v-10.61ZM-402.96,227.57h-1.85v10.61h1.85v-10.61Z"/>
    <polygon points="-409.4 249.65 -402.07 249.65 -402.07 257.19 -400.17 257.19 -400.17 249.65 -395.17 249.65 -395.17 258.36 -393.26 258.36 -393.26 247.52 -409.4 247.52 -409.4 249.65"/>
    <path d="M-408.09,261.94c-1.05,1-1.57,2.32-1.57,3.95,0,1.02.24,1.95.71,2.81.48.86,1.15,1.51,2.01,1.97.86.45,2.04.67,3.55.67,1.86,0,3.31-.51,4.36-1.52,1.06-1.02,1.58-2.32,1.58-3.93,0-1.44-.43-2.66-1.3-3.66-1.04-1.2-2.64-1.8-4.81-1.8-1.98,0-3.49.5-4.54,1.51M-400.2,263.44c.74.65,1.11,1.47,1.11,2.45s-.37,1.79-1.12,2.44c-.74.66-1.84.98-3.29.98-1.53,0-2.68-.32-3.42-.98-.75-.65-1.13-1.47-1.13-2.45s.37-1.8,1.12-2.45c.74-.65,1.87-.98,3.36-.98s2.61.33,3.36.98M-409.4,275.14h6.12c.84,0,1.61.11,2.31.33.46.14.82.39,1.09.74.26.34.39.73.39,1.16,0,.48-.14.96-.43,1.45l1.84.68c.43-.69.64-1.36.64-2.03,0-.46-.13-.88-.4-1.26-.26-.38-.81-.81-1.64-1.26h1.77v-1.78h-11.69v1.97Z"/>
    <path d="M-407.46,287.28c-.38-.51-.57-1.13-.57-1.86,0-.97.34-1.78,1.03-2.43.68-.65,1.67-1.01,2.95-1.09v8.68c.23,0,.41.01.53.01,1.93,0,3.42-.49,4.49-1.48,1.06-.99,1.6-2.26,1.6-3.82s-.54-2.92-1.63-3.93c-1.09-1.01-2.61-1.51-4.58-1.51s-3.38.5-4.43,1.5c-1.05,1-1.58,2.35-1.58,4.05,0,1.35.33,2.46.99,3.33.66.87,1.59,1.46,2.79,1.79l.25-2.04c-.84-.3-1.45-.71-1.83-1.22M-399.99,283.04c.61.62.91,1.38.91,2.29,0,1-.38,1.82-1.15,2.44-.49.41-1.23.66-2.21.75v-6.5c1.02.07,1.84.4,2.44,1.03M-408.72,293.94c-.63.79-.94,1.95-.94,3.46,0,.92.16,1.73.48,2.45.32.73.77,1.28,1.35,1.66.58.38,1.2.57,1.87.57s1.24-.16,1.7-.47c.45-.31.8-.75,1.04-1.3.24-.55.54-1.53.92-2.92.26-.96.43-1.55.51-1.74.14-.34.31-.59.52-.76.21-.16.44-.24.69-.24.41,0,.76.2,1.06.58.3.39.45,1.04.45,1.94,0,.77-.17,1.36-.51,1.78-.33.42-.8.67-1.4.76l.26,1.93c.76-.13,1.36-.35,1.81-.68.46-.33.81-.84,1.08-1.53.26-.69.4-1.49.4-2.41,0-.61-.08-1.17-.24-1.7-.16-.53-.35-.95-.58-1.26-.29-.41-.66-.73-1.11-.97-.44-.23-.92-.35-1.45-.35-.57,0-1.1.14-1.57.43-.48.29-.85.71-1.12,1.27-.26.56-.58,1.56-.95,3.01-.27,1.08-.49,1.75-.67,2.02-.26.39-.61.58-1.06.58-.49,0-.93-.22-1.3-.66-.37-.44-.56-1.11-.56-2.02s.21-1.6.63-2.1c.42-.5,1.02-.81,1.8-.92l-.31-1.95c-1.24.22-2.18.72-2.81,1.52M-393.26,304.6h-16.14v1.97h16.14v-1.97ZM-409.4,317.83v2.06c.45-.25.91-.41,1.4-.5.49-.08,1.65-.13,3.5-.13h2.64c.89,0,1.49-.03,1.83-.1.55-.12,1-.32,1.35-.61.35-.29.65-.75.89-1.37.23-.62.35-1.43.35-2.43s-.14-1.88-.41-2.64c-.28-.76-.67-1.34-1.18-1.74-.51-.4-1.18-.69-2.01-.87l-.26,1.93c.83.21,1.41.54,1.73.98.33.45.49,1.13.49,2.06,0,.99-.23,1.74-.67,2.25-.33.37-.9.56-1.71.56-.07,0-.24,0-.52,0-.27-.76-.49-1.93-.68-3.53-.09-.78-.19-1.36-.29-1.75-.15-.53-.37-1-.65-1.42-.29-.42-.66-.76-1.14-1.02-.48-.26-1-.39-1.57-.39-.98,0-1.78.34-2.41,1.03-.62.69-.94,1.67-.94,2.95,0,.77.13,1.5.38,2.17.26.68.7,1.38,1.32,2.11-.55.06-1.03.19-1.44.39M-404.26,317.27c-.88,0-1.53-.1-1.98-.32-.58-.28-1.04-.72-1.37-1.31-.34-.59-.5-1.27-.5-2.03s.18-1.35.53-1.75c.35-.4.79-.6,1.32-.6.35,0,.66.1.95.28.28.19.5.44.64.78.15.34.28.91.4,1.72.2,1.44.45,2.51.75,3.23h-.73ZM-396.14,313.14c-.4.38-.59.85-.59,1.4s.2,1,.58,1.38c.39.39.87.58,1.43.58s1.04-.19,1.43-.58c.39-.38.59-.85.59-1.39s-.19-1-.58-1.39c-.39-.39-.86-.59-1.39-.59-.59,0-1.08.2-1.47.58M-393.85,313.74c.23.23.35.5.35.82s-.12.59-.35.82c-.24.23-.52.34-.85.34s-.61-.12-.85-.35c-.23-.23-.35-.5-.35-.81s.12-.59.35-.82c.23-.23.52-.35.87-.35.32,0,.6.11.83.35M-407.46,329.28c-.38-.51-.57-1.13-.57-1.86,0-.97.34-1.78,1.03-2.43.68-.65,1.67-1.01,2.95-1.09v8.68c.23,0,.41.01.53.01,1.93,0,3.42-.49,4.49-1.48,1.06-.99,1.6-2.26,1.6-3.82s-.54-2.91-1.63-3.93c-1.09-1.01-2.61-1.51-4.58-1.51s-3.38.5-4.43,1.49c-1.05,1-1.58,2.35-1.58,4.06,0,1.35.33,2.46.99,3.33.66.87,1.59,1.46,2.79,1.79l.25-2.04c-.84-.3-1.45-.7-1.83-1.21M-399.99,325.05c.61.62.91,1.38.91,2.29,0,1-.38,1.82-1.15,2.44-.49.41-1.23.66-2.21.75v-6.5c1.02.07,1.84.41,2.44,1.03"/>
    <path d="M-407.71,338.69c0-.29.05-.52.15-.67.09-.16.22-.27.38-.34.16-.07.52-.11,1.09-.11h6.84v1.99h1.54v-1.99h4.09l-1.19-1.96h-2.9v-1.45h-1.54v1.45h-6.73c-1.18,0-1.97.08-2.34.24-.37.16-.67.44-.9.83-.23.39-.34.95-.34,1.67,0,.44.06.93.18,1.49l1.75-.28c-.05-.36-.08-.65-.08-.87M-408.72,348.01c-.63.79-.94,1.95-.94,3.46,0,.91.16,1.73.48,2.45.32.73.77,1.28,1.35,1.66.58.38,1.21.58,1.87.58s1.24-.16,1.7-.48c.45-.31.8-.75,1.04-1.3.23-.55.54-1.53.92-2.92.26-.97.43-1.55.51-1.74.14-.34.32-.6.53-.76.21-.16.44-.24.69-.24.4,0,.76.2,1.06.58.3.39.45,1.04.45,1.94,0,.77-.17,1.36-.51,1.78-.34.42-.8.67-1.41.76l.27,1.93c.76-.12,1.36-.35,1.81-.68.46-.33.81-.84,1.08-1.53.26-.69.4-1.49.4-2.4,0-.61-.08-1.18-.24-1.71s-.35-.95-.58-1.26c-.29-.41-.66-.73-1.11-.97-.44-.23-.93-.35-1.45-.35-.57,0-1.1.15-1.57.43-.48.29-.84.71-1.11,1.28-.27.55-.58,1.56-.95,3.01-.27,1.07-.5,1.75-.68,2.02-.25.39-.61.58-1.05.58-.5,0-.93-.21-1.31-.65-.37-.44-.55-1.11-.55-2.02s.21-1.6.63-2.1c.42-.5,1.02-.8,1.81-.91l-.31-1.95c-1.24.22-2.18.73-2.81,1.52"/>
    <path d="M-409.4,361.26h4.63l1.35,1.4-5.98,3.85v2.43l7.35-4.91,4.34,4.46v-2.56l-4.75-4.67h9.2v-1.97h-16.14v1.97ZM-409.4,378.62v2.06c.45-.25.91-.42,1.41-.5.49-.08,1.65-.12,3.49-.12h2.64c.88,0,1.49-.04,1.83-.1.54-.12.99-.32,1.35-.62.36-.29.65-.75.89-1.37.23-.62.35-1.42.35-2.42s-.14-1.88-.41-2.65c-.28-.76-.67-1.34-1.18-1.74-.51-.4-1.18-.69-2.01-.87l-.26,1.93c.83.22,1.41.54,1.73.98.33.44.49,1.13.49,2.06,0,.99-.22,1.74-.67,2.25-.33.37-.9.56-1.7.56-.07,0-.25,0-.52,0-.27-.75-.49-1.93-.69-3.52-.09-.78-.19-1.37-.29-1.75-.15-.53-.36-1-.65-1.42-.29-.42-.66-.76-1.14-1.02-.47-.26-1-.39-1.57-.39-.98,0-1.78.34-2.41,1.03-.63.69-.94,1.67-.94,2.95,0,.77.13,1.5.38,2.17.26.68.7,1.38,1.32,2.11-.55.06-1.03.19-1.45.39M-404.26,378.06c-.87,0-1.54-.1-1.98-.32-.58-.28-1.04-.71-1.37-1.3-.33-.59-.5-1.27-.5-2.03s.18-1.35.53-1.75c.35-.4.79-.6,1.32-.6.35,0,.66.09.94.27.28.18.5.45.64.78.14.34.27.91.39,1.72.2,1.43.45,2.51.75,3.22h-.73Z"/>
    <path d="M-407.93,384.46c-1.15.78-1.73,1.86-1.73,3.24s.54,2.56,1.63,3.55c1.09.99,2.64,1.48,4.65,1.48.84,0,1.63-.12,2.38-.35.74-.24,1.37-.56,1.9-.97.52-.42.93-.94,1.22-1.58.29-.64.44-1.32.44-2.04,0-1.29-.53-2.35-1.58-3.19h5.76v-1.98h-16.14v1.83h1.47ZM-400.2,385.38c.75.63,1.13,1.37,1.13,2.24s-.36,1.59-1.09,2.19c-.73.6-1.85.9-3.38.9s-2.61-.31-3.36-.94c-.75-.63-1.13-1.37-1.13-2.24,0-1.06.51-1.9,1.53-2.52.62-.38,1.63-.57,3.04-.57s2.51.32,3.26.94"/>
    <path d="M-407.34,999.06c-1.11.89-1.67,2.1-1.67,3.65,0,1.18.32,2.15.95,2.92.64.77,1.54,1.35,2.7,1.74,1.16.39,2.69.58,4.58.58,1.6,0,2.87-.12,3.81-.36.94-.24,1.74-.57,2.4-1,.66-.42,1.16-.96,1.51-1.61.35-.65.52-1.41.52-2.27,0-1.17-.31-2.14-.95-2.91-.63-.77-1.52-1.35-2.69-1.74-1.16-.39-2.7-.59-4.61-.59-3.03,0-5.22.53-6.56,1.59M-395.33,1000.52c.77.54,1.16,1.26,1.16,2.17s-.44,1.69-1.31,2.31c-.88.62-2.64.93-5.3.93s-4.4-.31-5.29-.93c-.88-.62-1.32-1.38-1.32-2.29s.44-1.67,1.32-2.29c.88-.62,2.64-.92,5.29-.92s4.47.34,5.45,1.02M-408.73,1308.78h3.86v2.17h1.82v-2.17h10.46v-1.61l-10.46-7.33h-1.82v6.97h-3.86v1.98ZM-403.05,1301.78l7.28,5.03h-7.28v-5.03Z"/>
    <path d="M-408.73,1315.03h6.06c1.06,0,1.88.1,2.44.32.57.21.99.55,1.29,1.02.3.47.44.99.44,1.54,0,.73-.22,1.25-.66,1.57-.44.33-1.1.49-1.98.49h-7.59v1.98h6.79c1.21,0,2.08.27,2.63.81.54.54.82,1.22.82,2.04,0,.45-.11.85-.32,1.18-.21.34-.49.57-.84.69-.35.13-.92.2-1.71.2h-7.36v1.96h8.02c1.33,0,2.32-.31,2.97-.93.64-.62.96-1.51.96-2.66,0-1.48-.68-2.68-2.05-3.6.64-.23,1.15-.62,1.51-1.17.36-.55.54-1.26.54-2.12,0-.77-.18-1.46-.52-2.07-.35-.6-.81-1.09-1.38-1.46h1.64v-1.77h-11.69v1.98Z"/>
    <path d="M-406.83,1150.14c.35.22.72.5,1.07.83.36.34,1.03,1.1,2.03,2.28,1.2,1.42,2.15,2.43,2.84,3.04.69.61,1.35,1.05,1.97,1.31.62.26,1.26.4,1.9.4,1.27,0,2.33-.45,3.19-1.35.86-.9,1.29-2.12,1.29-3.66s-.4-2.74-1.19-3.65c-.8-.9-1.95-1.43-3.47-1.57l-.21,2.03c1.02,0,1.81.3,2.38.87s.86,1.33.86,2.28c0,.9-.27,1.63-.81,2.19-.54.56-1.2.83-1.99.83-.74,0-1.54-.3-2.38-.92-.84-.61-1.98-1.79-3.42-3.54-.92-1.12-1.74-1.99-2.44-2.58-.7-.6-1.42-1.03-2.15-1.3-.44-.17-.9-.24-1.37-.23v10.63h1.9v-7.88ZM-408.73,1162.86h6.06c1.06,0,1.88.11,2.44.32.57.21.99.55,1.29,1.03.3.47.44.99.44,1.54,0,.73-.22,1.25-.66,1.58-.44.32-1.1.48-1.98.48h-7.59v1.98h6.79c1.21,0,2.08.27,2.63.81.54.54.82,1.23.82,2.04,0,.45-.11.84-.32,1.18-.21.34-.49.57-.84.7-.35.13-.92.19-1.71.19h-7.36v1.96h8.02c1.33,0,2.32-.31,2.97-.93.64-.62.96-1.51.96-2.66,0-1.48-.68-2.68-2.05-3.6.64-.23,1.15-.62,1.51-1.17.36-.55.54-1.26.54-2.12,0-.77-.18-1.46-.52-2.07-.35-.61-.81-1.1-1.38-1.46h1.64v-1.77h-11.69v1.97Z"/>
    <path d="M-408.73,809.37h13.74l-13.74,4.65v1.92l13.51,4.67h-13.51v2.05h16.14v-2.86l-11.23-3.85c-1.14-.39-2-.67-2.59-.86.53-.16,1.32-.42,2.39-.77l11.43-3.81v-3.2h-16.14v2.05ZM-408.73,833.14v2.06c.45-.25.91-.42,1.4-.5.49-.08,1.65-.13,3.5-.13h2.64c.88,0,1.49-.03,1.83-.1.54-.12.99-.32,1.35-.62.36-.29.65-.75.89-1.37.23-.62.35-1.43.35-2.42s-.14-1.88-.41-2.64c-.28-.76-.67-1.34-1.18-1.74-.51-.4-1.18-.69-2.01-.87l-.26,1.93c.83.21,1.41.54,1.73.98.33.44.49,1.13.49,2.06,0,.99-.22,1.74-.67,2.25-.33.37-.9.56-1.71.56-.07,0-.25,0-.52,0-.26-.76-.49-1.93-.68-3.52-.09-.78-.2-1.37-.3-1.75-.15-.53-.36-1-.65-1.42-.29-.42-.67-.76-1.14-1.02-.48-.26-1-.39-1.57-.39-.98,0-1.78.34-2.41,1.03-.62.69-.94,1.67-.94,2.95,0,.78.13,1.5.38,2.18.26.68.7,1.38,1.32,2.11-.55.06-1.03.19-1.44.4M-403.59,832.58c-.87,0-1.53-.11-1.98-.32-.58-.28-1.04-.71-1.37-1.31-.34-.59-.5-1.27-.5-2.03s.18-1.35.53-1.75c.35-.4.79-.6,1.32-.6.35,0,.66.09.94.28.28.18.5.44.64.78.15.34.28.91.4,1.72.21,1.43.46,2.5.75,3.22h-.73ZM-395.47,828.45c-.39.39-.59.86-.59,1.41s.19.99.58,1.38c.39.39.86.58,1.43.58s1.04-.2,1.43-.58c.39-.39.59-.85.59-1.39s-.19-.99-.58-1.39c-.39-.39-.85-.59-1.39-.59-.59,0-1.08.19-1.47.58M-393.18,829.04c.23.23.35.5.35.82s-.12.6-.35.82c-.24.22-.52.34-.85.34s-.61-.12-.85-.35c-.23-.23-.35-.5-.35-.82s.12-.59.35-.82.52-.35.87-.35c.32,0,.6.11.83.35"/>
    <rect x="-408.73" y="837.79" width="16.14" height="1.98"/>
    <path d="M-392.53,856.07v-1.27c-.7-.34-1.42-.93-2.16-1.75-.74-.83-1.37-1.79-1.89-2.89h-1.92c.23.61.57,1.31,1.02,2.08.46.77.91,1.39,1.37,1.87h-12.63v1.98h16.2ZM-397.04,862.42h-2.26v2.25h2.26v-2.25ZM-406.48,862.42h-2.26v2.25h2.26v-2.25Z"/>
    <path d="M-392.53,874.76v-1.27c-.7-.35-1.42-.93-2.16-1.75-.74-.83-1.37-1.79-1.89-2.9h-1.91c.23.62.57,1.31,1.03,2.08.46.77.91,1.4,1.37,1.87h-12.63v1.97h16.2ZM-407.33,881.61c-1.11.88-1.67,2.1-1.67,3.65,0,1.18.32,2.15.95,2.92.63.77,1.54,1.35,2.7,1.74,1.16.39,2.69.58,4.58.58,1.6,0,2.87-.12,3.81-.36.94-.24,1.74-.57,2.4-1,.66-.43,1.16-.96,1.51-1.61.35-.65.52-1.41.52-2.27,0-1.17-.31-2.14-.95-2.91-.63-.77-1.53-1.35-2.69-1.74-1.16-.39-2.7-.59-4.6-.59-3.03,0-5.22.53-6.56,1.59M-395.33,883.06c.77.54,1.16,1.26,1.16,2.17s-.44,1.69-1.31,2.31-2.64.93-5.29.93-4.4-.31-5.29-.93c-.88-.62-1.32-1.38-1.32-2.29s.44-1.67,1.32-2.29c.88-.62,2.64-.92,5.29-.92s4.46.34,5.45,1.02M-407.33,894.3c-1.11.88-1.67,2.1-1.67,3.65,0,1.18.32,2.15.95,2.92.63.77,1.54,1.35,2.7,1.74,1.16.39,2.69.58,4.58.58,1.6,0,2.87-.12,3.81-.36.94-.24,1.74-.57,2.4-1,.66-.43,1.16-.96,1.51-1.61.35-.65.52-1.41.52-2.27,0-1.17-.31-2.14-.95-2.91-.63-.77-1.53-1.36-2.69-1.74-1.16-.39-2.7-.59-4.6-.59-3.03,0-5.22.53-6.56,1.59M-395.33,895.76c.77.54,1.16,1.27,1.16,2.17s-.44,1.69-1.31,2.31c-.87.62-2.64.92-5.29.92s-4.4-.31-5.29-.92c-.88-.62-1.32-1.38-1.32-2.29s.44-1.67,1.32-2.29c.88-.62,2.64-.92,5.29-.92s4.46.34,5.45,1.02"/>
    <polygon class="st10" points="-408.73 1574.54 -364.02 1596.57 -377.36 1625.27 -422.75 1603.24 -408.73 1574.54"/>
    <polygon points="-403.29 1585.9 -380.85 1596.76 -410.58 1600.95 -412.46 1604.84 -383.9 1618.66 -382.14 1615.03 -404.56 1604.18 -374.86 1599.98 -372.98 1596.09 -401.53 1582.26 -403.29 1585.9"/>
    <path d="M-392.53,1076.32v-1.27c-.7-.35-1.42-.93-2.16-1.75-.74-.83-1.37-1.79-1.9-2.9h-1.91c.23.62.57,1.31,1.02,2.08.45.77.91,1.39,1.36,1.87h-12.62v1.97h16.2ZM-408.73,1084.1h6.06c1.06,0,1.88.11,2.44.32.57.21.99.55,1.29,1.02.3.47.44.99.44,1.55,0,.73-.22,1.25-.66,1.57-.44.32-1.1.49-1.98.49h-7.59v1.98h6.79c1.21,0,2.08.27,2.63.81.54.54.82,1.22.82,2.04,0,.45-.11.85-.32,1.18-.21.34-.49.57-.84.7-.35.13-.92.2-1.71.2h-7.36v1.96h8.02c1.33,0,2.32-.31,2.97-.93.64-.62.96-1.51.96-2.66,0-1.48-.68-2.68-2.05-3.6.64-.22,1.15-.62,1.51-1.17.36-.55.54-1.26.54-2.12,0-.77-.18-1.46-.52-2.07-.35-.6-.81-1.09-1.38-1.45h1.64v-1.77h-11.69v1.97Z"/>
    <path d="M-407.75,1223.34c-.85.93-1.27,2.1-1.27,3.51,0,1.56.49,2.86,1.47,3.89.98,1.03,2.17,1.53,3.59,1.53,1.04,0,1.91-.26,2.6-.79.7-.53,1.15-1.26,1.37-2.21.34.73.79,1.28,1.36,1.65.58.38,1.21.56,1.91.56.73,0,1.43-.2,2.08-.59.65-.39,1.17-.95,1.55-1.69s.57-1.54.57-2.42c0-1.27-.37-2.34-1.09-3.19-.73-.86-1.76-1.4-3.09-1.65l-.35,1.97c.97.14,1.7.48,2.18.99.48.51.73,1.15.73,1.92s-.24,1.41-.72,1.9c-.48.49-1.08.73-1.8.73-.92,0-1.6-.34-2.04-1-.44-.68-.66-1.43-.66-2.27,0-.08,0-.19.02-.32l-1.74-.22c.15.56.22,1.02.22,1.39,0,.91-.3,1.67-.89,2.26-.59.59-1.34.89-2.25.89-.95,0-1.75-.32-2.4-.96-.64-.64-.97-1.43-.97-2.35,0-.78.25-1.45.75-1.99.49-.54,1.3-.93,2.43-1.16l-.26-1.97c-1.34.13-2.43.66-3.28,1.6M-408.73,1236.27h6.06c1.06,0,1.88.11,2.44.32.57.21.99.55,1.29,1.02.3.47.44.99.44,1.55,0,.73-.22,1.25-.66,1.57-.44.33-1.1.49-1.98.49h-7.59v1.98h6.79c1.21,0,2.08.27,2.63.81.54.55.82,1.22.82,2.04,0,.45-.11.85-.32,1.18-.21.34-.49.57-.84.7-.35.13-.92.19-1.71.19h-7.36v1.96h8.02c1.33,0,2.32-.31,2.97-.93.64-.62.96-1.51.96-2.66,0-1.48-.68-2.68-2.05-3.6.64-.22,1.15-.62,1.51-1.17.36-.55.54-1.26.54-2.12,0-.77-.18-1.46-.52-2.07-.35-.6-.81-1.09-1.38-1.45h1.64v-1.77h-11.69v1.97Z"/>
    <path d="M-407.77,1380.83c-.82.93-1.23,2.12-1.23,3.58,0,1.78.65,3.19,1.96,4.22,1.06.85,2.32,1.27,3.79,1.27,1.54,0,2.79-.48,3.76-1.44.98-.97,1.46-2.15,1.46-3.55,0-1.06-.34-2.07-1.02-3.04l4.34.87v6.41h1.89v-7.99l-8.29-1.56-.24,1.86c.46.29.84.69,1.13,1.21.29.51.43,1.09.43,1.72,0,1.02-.32,1.85-.98,2.48-.65.63-1.54.95-2.68.95s-2.14-.33-2.86-.99c-.72-.66-1.08-1.46-1.08-2.41,0-.79.26-1.46.77-2.02.51-.56,1.27-.92,2.28-1.07l-.17-2.08c-1.36.14-2.45.66-3.27,1.59M-408.73,1393.79h6.06c1.06,0,1.88.1,2.44.32.57.21.99.55,1.29,1.03.3.47.44.98.44,1.54,0,.73-.22,1.25-.66,1.58-.44.32-1.1.48-1.98.48h-7.59v1.98h6.79c1.21,0,2.08.27,2.63.81.54.54.82,1.22.82,2.04,0,.45-.11.85-.32,1.18-.21.34-.49.57-.84.69-.35.13-.92.19-1.71.19h-7.36v1.96h8.02c1.33,0,2.32-.31,2.97-.93.64-.62.96-1.51.96-2.67,0-1.47-.68-2.68-2.05-3.6.64-.23,1.15-.62,1.51-1.17.36-.55.54-1.26.54-2.12,0-.78-.18-1.47-.52-2.08-.35-.6-.81-1.09-1.38-1.46h1.64v-1.77h-11.69v1.98Z"/>
    <rect class="st10" x="1694.37" y="135.54" width="37.38" height="202.24"/>
    <path d="M1723.35,149.97c1.05-1.2,1.58-2.73,1.58-4.61,0-2.52-.91-4.52-2.72-6.01-2.09-1.71-5.43-2.55-10.03-2.55-4.11,0-7.06.77-8.85,2.31-1.79,1.54-2.69,3.53-2.69,5.97,0,1.43.34,2.71,1.03,3.84.68,1.13,1.66,2.01,2.94,2.66,1.28.64,2.66.97,4.16.97,2.27,0,4.13-.69,5.56-2.06,1.43-1.37,2.15-3.03,2.15-4.99,0-1.12-.26-2.19-.78-3.21-.52-1.02-1.32-1.88-2.39-2.59,2.38.02,4.22.3,5.5.83,1.29.53,2.27,1.26,2.94,2.18.52.71.78,1.52.78,2.46,0,1.16-.42,2.14-1.25,2.93-.52.48-1.35.85-2.5,1.11l.23,2.91c1.85-.24,3.3-.96,4.35-2.16M1712.48,141.55c.95.92,1.42,2.04,1.42,3.37s-.47,2.44-1.42,3.32c-.95.88-2.24,1.32-3.88,1.32s-3.06-.44-4.06-1.33c-1-.89-1.5-1.95-1.5-3.19,0-.85.24-1.66.72-2.43.48-.77,1.18-1.37,2.1-1.8.92-.43,1.88-.64,2.89-.64,1.54,0,2.77.46,3.72,1.39M1704.37,157.27h-3.33v3.34h3.33v-3.34ZM1704.41,166.48c-1.26.83-2.21,1.97-2.83,3.43-.62,1.46-.94,3.27-.94,5.43,0,1.7.31,3.24.94,4.6.62,1.36,1.49,2.4,2.61,3.13,1.12.73,2.31,1.09,3.58,1.09s2.41-.33,3.39-.99c.98-.66,1.78-1.69,2.42-3.08.43-.95.94-2.71,1.51-5.28.58-2.57,1.14-4.15,1.7-4.76.55-.62,1.25-.93,2.11-.93.98,0,1.82.44,2.52,1.31.7.88,1.05,2.27,1.05,4.18s-.39,3.22-1.15,4.16c-.77.94-1.9,1.49-3.41,1.65l.23,3.03c1.39-.05,2.64-.44,3.75-1.17,1.1-.72,1.94-1.76,2.5-3.11.57-1.35.85-2.91.85-4.68,0-1.61-.27-3.07-.81-4.38-.54-1.31-1.33-2.31-2.37-2.99-1.04-.68-2.16-1.02-3.37-1.02-1.09,0-2.08.28-2.96.84-.89.56-1.62,1.41-2.22,2.55-.47.88-.96,2.42-1.48,4.6-.52,2.19-.91,3.61-1.16,4.25-.38,1-.85,1.71-1.4,2.15-.56.43-1.21.65-1.95.65s-1.42-.23-2.04-.68c-.62-.45-1.11-1.13-1.47-2.06-.36-.92-.54-1.99-.54-3.19,0-1.36.24-2.58.71-3.66.47-1.08,1.09-1.88,1.85-2.4.76-.51,1.74-.84,2.93-.98l-.26-2.98c-1.59.04-3.01.48-4.27,1.31M1701.05,200.13v3.06c.66-.37,1.35-.62,2.07-.74.72-.12,2.44-.19,5.15-.19h3.9c1.3,0,2.19-.05,2.7-.15.8-.18,1.46-.48,1.98-.91.52-.43.96-1.11,1.31-2.03.35-.92.52-2.12.52-3.6s-.21-2.79-.61-3.92c-.4-1.13-.98-1.99-1.73-2.59-.75-.6-1.74-1.02-2.96-1.28l-.39,2.86c1.22.31,2.07.8,2.55,1.46.48.65.72,1.67.72,3.05,0,1.48-.33,2.59-.99,3.33-.49.56-1.33.83-2.52.83-.11,0-.36,0-.76-.02-.39-1.12-.73-2.86-1.01-5.22-.14-1.16-.29-2.03-.44-2.6-.22-.79-.53-1.49-.95-2.11-.43-.63-.98-1.13-1.68-1.52-.7-.38-1.47-.58-2.31-.58-1.44,0-2.62.51-3.54,1.53-.92,1.02-1.39,2.48-1.39,4.38,0,1.15.19,2.23.57,3.23.38,1,1.03,2.05,1.94,3.13-.81.08-1.52.28-2.12.59M1708.62,199.3c-1.29,0-2.26-.16-2.92-.47-.86-.41-1.53-1.06-2.02-1.94-.49-.88-.74-1.88-.74-3.01s.26-2,.78-2.6c.52-.59,1.17-.89,1.94-.89.51,0,.97.14,1.39.41.42.27.73.66.95,1.15.21.5.41,1.35.59,2.56.3,2.12.67,3.72,1.1,4.78h-1.07ZM1724.83,206.9h-23.78v2.93h23.78v-2.93ZM1718.27,215.36h-3.33v3.34h3.33v-3.34ZM1704.37,215.36h-3.33v3.34h3.33v-3.34ZM1723.35,245.63c1.05-1.2,1.58-2.73,1.58-4.61,0-2.52-.91-4.52-2.72-6.01-2.09-1.7-5.43-2.56-10.03-2.56-4.11,0-7.06.77-8.85,2.31-1.79,1.54-2.69,3.53-2.69,5.98,0,1.43.34,2.71,1.03,3.84.68,1.13,1.66,2.01,2.94,2.66,1.28.65,2.66.97,4.16.97,2.27,0,4.13-.68,5.56-2.06,1.43-1.37,2.15-3.03,2.15-4.99,0-1.12-.26-2.19-.78-3.21-.52-1.02-1.32-1.88-2.39-2.58,2.38.02,4.22.3,5.5.83,1.29.53,2.27,1.26,2.94,2.18.52.71.78,1.53.78,2.46,0,1.16-.42,2.14-1.25,2.93-.52.48-1.35.85-2.5,1.11l.23,2.91c1.85-.24,3.3-.96,4.35-2.16M1712.48,237.2c.95.92,1.42,2.05,1.42,3.37s-.47,2.44-1.42,3.32c-.95.88-2.24,1.32-3.88,1.32s-3.06-.45-4.06-1.33c-1-.89-1.5-1.95-1.5-3.19,0-.85.24-1.66.72-2.43.48-.77,1.18-1.37,2.1-1.8.92-.43,1.88-.64,2.89-.64,1.54,0,2.77.46,3.72,1.38M1704.37,252.93h-3.33v3.34h3.33v-3.34ZM1701.05,270.87c0,1.52.13,2.8.4,3.85.26,1.05.66,1.92,1.17,2.61.52.69,1.26,1.28,2.21,1.75.95.47,1.99.71,3.11.71,1.38,0,2.59-.39,3.6-1.16,1.02-.77,1.74-1.88,2.16-3.33.55,1.12,1.28,1.95,2.17,2.51.9.55,1.85.83,2.87.83,1.09,0,2.14-.31,3.14-.94,1-.62,1.74-1.49,2.22-2.59.48-1.1.72-2.57.72-4.39v-8.95h-23.78v9.1ZM1722.02,264.93v4.77c0,1.72-.11,2.92-.33,3.63-.22.71-.63,1.25-1.23,1.63-.6.38-1.3.57-2.08.57-.83,0-1.52-.2-2.08-.61-.55-.4-.95-1.01-1.18-1.81-.18-.61-.27-1.61-.27-3.01v-5.16h7.19ZM1712.03,264.93v5.52c0,1.52-.13,2.68-.4,3.49-.26.81-.72,1.44-1.38,1.9-.66.46-1.43.68-2.31.68-.76,0-1.42-.16-2-.47-.58-.31-1.02-.72-1.32-1.2-.3-.49-.52-1.09-.65-1.82-.07-.41-.11-1.13-.11-2.15v-5.94h8.17ZM1704.37,284.75h-3.33v3.34h3.33v-3.34ZM1723.35,305.58c1.05-1.2,1.58-2.74,1.58-4.61,0-2.52-.91-4.52-2.72-6.01-2.09-1.7-5.43-2.56-10.03-2.56-4.11,0-7.06.77-8.85,2.32-1.79,1.54-2.69,3.53-2.69,5.97,0,1.43.34,2.71,1.03,3.84.68,1.13,1.66,2.02,2.94,2.66,1.28.64,2.66.97,4.16.97,2.27,0,4.13-.69,5.56-2.06,1.43-1.37,2.15-3.04,2.15-4.99,0-1.12-.26-2.19-.78-3.21-.52-1.02-1.32-1.88-2.39-2.58,2.38.02,4.22.3,5.5.83,1.29.53,2.27,1.26,2.94,2.18.52.7.78,1.52.78,2.45,0,1.16-.42,2.14-1.25,2.93-.52.48-1.35.85-2.5,1.11l.23,2.91c1.85-.24,3.3-.96,4.35-2.15M1712.48,297.16c.95.93,1.42,2.05,1.42,3.37s-.47,2.44-1.42,3.32c-.95.88-2.24,1.32-3.88,1.32s-3.06-.44-4.06-1.33c-1-.89-1.5-1.96-1.5-3.19,0-.85.24-1.65.72-2.43.48-.77,1.18-1.37,2.1-1.8.92-.43,1.88-.64,2.89-.64,1.54,0,2.77.46,3.72,1.38M1704.37,312.88h-3.33v3.34h3.33v-3.34ZM1701.05,332.99h5.7v3.22h2.67v-3.22h15.41v-2.39l-15.41-10.89h-2.67v10.35h-5.7v2.93ZM1709.42,322.59l10.72,7.47h-10.72v-7.47Z"/>
    <line class="st3" x1="916.81" y1="1149.38" x2="798.67" y2="1210.79"/>
  </g>
</svg>