<?xml version="1.0" encoding="UTF-8"?>
<svg id="Layer_1" xmlns="http://www.w3.org/2000/svg" xmlns:xlink="http://www.w3.org/1999/xlink" version="1.1" viewBox="0 0 1200 1697.14">
  <!-- Generator: Adobe Illustrator 29.6.0, SVG Export Plug-In . SVG Version: 2.1.1 Build 207)  -->
  <defs>
    <style>
      .st0, .st1, .st2, .st3 {
        fill: none;
      }

      .st1 {
        stroke: #0d0e1c;
      }

      .st1, .st2, .st3 {
        stroke-linecap: round;
        stroke-linejoin: round;
      }

      .st1, .st3 {
        stroke-width: .08px;
      }

      .st2 {
        stroke-width: .14px;
      }

      .st2, .st3 {
        stroke: #000;
      }

      .st4 {
        clip-path: url(#clippath-1);
      }

      .st5 {
        clip-path: url(#clippath-3);
      }

      .st6 {
        clip-path: url(#clippath-4);
      }

      .st7 {
        clip-path: url(#clippath-2);
      }

      .st8 {
        clip-path: url(#clippath-7);
      }

      .st9 {
        clip-path: url(#clippath-6);
      }

      .st10 {
        clip-path: url(#clippath-8);
      }

      .st11 {
        clip-path: url(#clippath-5);
      }

      .st12 {
        fill: #fff;
      }

      .st13 {
        fill: #ece9e5;
      }

      .st14 {
        fill: #302c35;
      }

      .st15 {
        clip-path: url(#clippath);
      }
    </style>
    <clipPath id="clippath">
      <rect class="st0" x="351.18" y="663.77" width="72.58" height="159.65"/>
    </clipPath>
    <clipPath id="clippath-1">
      <rect class="st0" x="207.57" y="441.48" width="784.87" height="814.19"/>
    </clipPath>
    <clipPath id="clippath-2">
      <rect class="st0" x="428.24" y="946.21" width="28.6" height="39.22"/>
    </clipPath>
    <clipPath id="clippath-3">
      <rect class="st0" x="207.57" y="441.48" width="784.87" height="814.19"/>
    </clipPath>
    <clipPath id="clippath-4">
      <rect class="st0" x="207.57" y="441.48" width="784.87" height="814.19"/>
    </clipPath>
    <clipPath id="clippath-5">
      <rect class="st0" x="357.91" y="1029.12" width="27.51" height="37.12"/>
    </clipPath>
    <clipPath id="clippath-6">
      <rect class="st0" x="207.57" y="441.48" width="784.87" height="814.19"/>
    </clipPath>
    <clipPath id="clippath-7">
      <rect class="st0" x="207.57" y="441.48" width="784.87" height="814.19"/>
    </clipPath>
    <clipPath id="clippath-8">
      <rect class="st0" x="207.57" y="441.48" width="784.87" height="814.19"/>
    </clipPath>
  </defs>
  <rect class="st13" x="332.51" y="614.63" width="363.52" height="481.99"/>
  <rect class="st13" x="675.1" y="735.13" width="108.68" height="249.43"/>
  <rect class="st12" x="388.37" y="603.23" width="203.25" height="27.6"/>
  <rect class="st12" x="679.83" y="756.16" width="11.81" height="202.12"/>
  <rect class="st12" x="601.76" y="959.75" width="53.76" height="122.42"/>
  <rect class="st14" x="779.73" y="735.13" width="4.05" height="249.43"/>
  <rect class="st14" x="667.38" y="980.51" width="116.4" height="4.05"/>
  <rect class="st14" x="667.38" y="734.96" width="116.4" height="4.05"/>
  <rect class="st14" x="332.51" y="1080.76" width="17.55" height="15.87"/>
  <rect class="st14" x="332.51" y="614.63" width="62.11" height="46.91"/>
  <rect class="st14" x="332.51" y="661.54" width="17.55" height="419.21"/>
  <rect class="st14" x="350.06" y="879.93" width="119.82" height="7.76"/>
  <rect class="st14" x="469.88" y="879.93" width="7.76" height="59.74"/>
  <rect class="st14" x="556.97" y="1080.76" width="92.48" height="15.87"/>
  <rect class="st14" x="347.71" y="1080.76" width="137.7" height="15.87"/>
  <rect class="st14" x="649.45" y="614.63" width="46.58" height="144.12"/>
  <rect class="st14" x="593.76" y="956.88" width="55.69" height="5.74"/>
  <rect class="st14" x="344.45" y="1074.01" width="133.19" height="6.75"/>
  <rect class="st14" x="471.23" y="1065.9" width="6.41" height="8.1"/>
  <rect class="st14" x="351.75" y="939.67" width="120.83" height="5.06"/>
  <rect class="st14" x="344.45" y="939.67" width="12.36" height="134.34"/>
  <rect class="st14" x="356.81" y="944.73" width="115.77" height="1.35"/>
  <rect class="st14" x="471.23" y="935.49" width="6.41" height="58.86"/>
  <rect class="st14" x="356.81" y="1072.66" width="115.77" height="1.35"/>
  <rect class="st14" x="356.81" y="944.73" width="1.35" height="127.92"/>
  <rect class="st14" x="649.45" y="955.87" width="46.58" height="140.75"/>
  <rect class="st14" x="591.73" y="614.63" width="73.58" height="46.91"/>
  <polygon class="st12" points="351.18 823.42 423.76 823.42 423.76 823 352.1 823 352.1 685.05 351.18 684.6 351.18 823.42"/>
  <polygon class="st12" points="352.1 823.01 423.76 823.01 423.76 720.51 407.83 712.63 368.02 692.93 352.1 685.05 352.1 823.01"/>
  <g class="st15">
    <path class="st12" d="M423.76,663.76v56.74l-15.93-7.87h0v-28.26c0-1.81-1.47-3.28-3.29-3.28h-33.25c-1.81,0-3.27,1.47-3.27,3.28v8.57l-15.93-7.88v-21.28h71.66Z"/>
    <polygon class="st12" points="407.83 712.62 407.83 712.63 368.02 692.93 407.83 712.62"/>
    <path class="st12" d="M407.83,684.36v28.26l-39.81-19.69v-8.56c0-1.81,1.47-3.28,3.28-3.28h33.24c1.82,0,3.29,1.47,3.29,3.28"/>
  </g>
  <polyline class="st1" points="352.1 685.05 352.1 663.77 423.76 663.77 423.76 720.5"/>
  <polyline class="st1" points="407.83 712.62 368.02 692.93 352.1 685.05 351.18 684.6 351.18 823.42 423.76 823.42 423.76 823 423.76 720.5 407.83 712.63"/>
  <line class="st1" x1="371.3" y1="681.09" x2="404.55" y2="681.09"/>
  <g class="st4">
    <path class="st1" d="M404.55,681.09c1.82,0,3.29,1.47,3.29,3.28"/>
    <path class="st1" d="M368.02,684.36c0-1.81,1.47-3.28,3.28-3.28"/>
  </g>
  <polyline class="st1" points="368.02 684.36 368.02 692.93 407.83 712.63 407.83 712.62 407.83 684.36"/>
  <g class="st7">
    <path class="st12" d="M456.84,946.23c0,7.71,0,15.42,0,23.12-.01,8.89-6.41,16.09-14.3,16.08-7.9,0-14.3-7.21-14.29-16.1.01-7.7.01-15.41.02-23.12,9.53,0,19.05.02,28.58.02"/>
  </g>
  <g class="st5">
    <path class="st3" d="M456.84,946.23c0,7.71,0,15.42,0,23.12-.01,8.89-6.41,16.09-14.3,16.08-7.9,0-14.3-7.21-14.29-16.1.01-7.7.01-15.41.02-23.12,9.53,0,19.05.02,28.58.02Z"/>
  </g>
  <rect class="st12" x="357.8" y="945.94" width="62.49" height="63.21"/>
  <polyline class="st3" points="420.29 945.94 420.29 1009.15 414.12 1009.15"/>
  <line class="st3" x1="420.29" y1="945.94" x2="358.3" y2="945.94"/>
  <line class="st3" x1="357.8" y1="946.98" x2="357.8" y2="1008.59"/>
  <polyline class="st3" points="357.8 946.98 357.8 945.94 358.3 945.94"/>
  <polyline class="st3" points="358.74 1009.15 357.8 1009.15 357.8 1008.59"/>
  <line class="st3" x1="358.74" y1="1009.15" x2="414.12" y2="1009.15"/>
  <line class="st3" x1="389.99" y1="945.94" x2="389.99" y2="963.5"/>
  <g class="st6">
    <path class="st3" d="M393.84,963.41c0-2.17-1.76-3.93-3.93-3.93s-3.93,1.76-3.93,3.93,1.76,3.93,3.93,3.93,3.93-1.76,3.93-3.93Z"/>
    <path class="st3" d="M393.84,963.41c0-2.17-1.76-3.93-3.93-3.93s-3.93,1.76-3.93,3.93,1.76,3.93,3.93,3.93,3.93-1.76,3.93-3.93Z"/>
  </g>
  <g class="st11">
    <path class="st12" d="M383.29,1065.6h-15.49c-.59,0-1.06-.35-1.06-.78v-34.13c0-.44.47-.79,1.06-.79h15.49c.59,0,1.07.35,1.07.79v34.13c0,.43-.48.78-1.07.78M375.82,1050.56c1.55,0,2.8-1.25,2.8-2.8s-1.25-2.81-2.8-2.81-2.8,1.26-2.8,2.81,1.25,2.8,2.8,2.8"/>
    <path class="st12" d="M364.11,1047.76c0,1.16-.94,2.1-2.1,2.1s-2.11-.95-2.11-2.1.94-2.11,2.11-2.11,2.1.94,2.1,2.11"/>
    <path class="st12" d="M377.33,1047.76c0,.83-.68,1.51-1.51,1.51s-1.51-.68-1.51-1.51.68-1.51,1.51-1.51,1.51.68,1.51,1.51"/>
    <path class="st12" d="M375.82,1049.27c.83,0,1.51-.68,1.51-1.51s-.68-1.51-1.51-1.51-1.51.68-1.51,1.51.68,1.51,1.51,1.51M378.62,1047.76c0,1.55-1.25,2.8-2.8,2.8s-2.8-1.25-2.8-2.8,1.25-2.81,2.8-2.81,2.8,1.26,2.8,2.81"/>
    <path class="st12" d="M359.9,1047.76c0,1.16.95,2.1,2.11,2.1s2.1-.95,2.1-2.1-.94-2.11-2.1-2.11-2.11.95-2.11,2.11M367.79,1065.61h15.5c.59,0,1.07-.35,1.07-.78v-34.13c0-.44-.48-.79-1.07-.79h-15.5c-.59,0-1.06.35-1.06.79v34.13c0,.43.47.78,1.06.78M384.36,1066.24h-26.45v-37.12h26.45c.58,0,1.06.35,1.06.78v35.7c0,.35-.48.63-1.06.63"/>
  </g>
  <g class="st9">
    <path class="st3" d="M362.01,1045.65c1.17,0,2.1.95,2.1,2.11s-.94,2.1-2.1,2.1-2.11-.94-2.11-2.1.94-2.11,2.11-2.11Z"/>
    <path class="st3" d="M375.82,1044.95c1.55,0,2.8,1.26,2.8,2.81s-1.25,2.8-2.8,2.8-2.8-1.25-2.8-2.8,1.25-2.81,2.8-2.81Z"/>
    <path class="st3" d="M375.82,1046.25c.83,0,1.51.68,1.51,1.51s-.68,1.51-1.51,1.51-1.51-.68-1.51-1.51.68-1.51,1.51-1.51Z"/>
    <path class="st3" d="M367.79,1065.61h15.5c.59,0,1.07-.35,1.07-.78v-34.13c0-.44-.48-.79-1.07-.79h-15.5c-.59,0-1.06.35-1.06.79v34.13c0,.43.47.78,1.06.78Z"/>
  </g>
  <line class="st3" x1="366.08" y1="1029.12" x2="357.91" y2="1029.12"/>
  <g class="st8">
    <path class="st3" d="M357.91,1066.24h26.45c.58,0,1.06-.28,1.06-.63v-35.7c0-.43-.48-.78-1.06-.78h-8.39"/>
  </g>
  <line class="st3" x1="366.08" y1="1029.12" x2="375.97" y2="1029.12"/>
  <line class="st3" x1="357.91" y1="1029.12" x2="357.91" y2="1066.24"/>
  <line class="st3" x1="631.79" y1="984.79" x2="642.46" y2="984.79"/>
  <rect class="st3" x="601.76" y="962.62" width="47.69" height="118.13"/>
  <line class="st3" x1="634.54" y1="1045.12" x2="634.54" y2="1055.55"/>
  <line class="st3" x1="614.92" y1="1045.12" x2="614.92" y2="1055.55"/>
  <line class="st3" x1="620.07" y1="1050.27" x2="609.64" y2="1050.27"/>
  <line class="st3" x1="639.82" y1="1050.27" x2="629.39" y2="1050.27"/>
  <rect class="st3" x="605.05" y="1039.14" width="39.36" height="22.95"/>
  <rect class="st3" x="612.13" y="971.45" width="26.54" height="26.54"/>
  <rect class="st3" x="605.53" y="964.85" width="39.75" height="39.89"/>
  <polygon class="st12" points="632.73 829.41 624.29 830.76 617.2 834.48 617.2 834.81 617.54 834.81 617.88 834.81 618.55 834.81 618.89 834.81 619.23 834.81 620.92 833.8 622.6 833.13 623.95 833.46 624.97 834.48 624.97 835.15 624.63 835.49 618.89 840.21 615.52 846.29 649.94 846.29 646.23 840.21 640.49 835.49 640.16 835.15 640.16 834.48 641.17 833.46 642.85 833.13 644.54 833.8 645.89 834.81 646.23 834.81 646.9 834.81 647.24 834.81 647.58 834.81 647.92 834.81 648.26 834.48 640.83 830.76 632.73 829.41"/>
  <polygon class="st12" points="649.94 846.29 615.52 846.29 608.79 846.29 608.79 910.08 615.52 910.08 649.94 910.08 656.36 910.08 656.36 846.29 649.94 846.29"/>
  <polygon class="st12" points="615.52 910.08 618.89 916.16 624.63 920.88 624.97 921.22 624.97 921.9 623.95 922.91 622.6 923.25 620.92 922.57 619.23 921.56 618.89 921.56 618.55 921.56 617.88 921.56 617.54 921.56 617.2 921.56 617.2 921.9 624.29 925.61 632.73 926.96 640.83 925.61 648.26 921.9 647.92 921.56 647.58 921.56 647.24 921.56 646.91 921.56 646.23 921.56 645.89 921.56 644.54 922.57 642.86 923.25 641.17 922.91 640.15 921.9 640.15 921.22 640.49 920.88 646.23 916.16 649.94 910.08 615.52 910.08"/>
  <line class="st3" x1="608.79" y1="846.29" x2="608.79" y2="910.08"/>
  <line class="st3" x1="645.89" y1="921.56" x2="646.23" y2="921.56"/>
  <line class="st3" x1="646.23" y1="921.56" x2="646.9" y2="921.56"/>
  <line class="st3" x1="647.58" y1="921.56" x2="647.24" y2="921.56"/>
  <line class="st3" x1="647.24" y1="921.56" x2="646.9" y2="921.56"/>
  <line class="st3" x1="648.25" y1="921.89" x2="647.92" y2="921.56"/>
  <line class="st3" x1="647.92" y1="921.56" x2="647.58" y2="921.56"/>
  <line class="st3" x1="640.15" y1="921.89" x2="641.17" y2="922.91"/>
  <line class="st3" x1="641.17" y1="922.91" x2="642.85" y2="923.24"/>
  <line class="st3" x1="642.85" y1="923.24" x2="644.54" y2="922.57"/>
  <line class="st3" x1="644.54" y1="922.57" x2="645.89" y2="921.56"/>
  <line class="st3" x1="640.49" y1="920.88" x2="640.15" y2="921.22"/>
  <line class="st3" x1="640.15" y1="921.22" x2="640.15" y2="921.89"/>
  <line class="st3" x1="640.49" y1="920.88" x2="646.23" y2="916.16"/>
  <line class="st3" x1="646.23" y1="916.16" x2="649.94" y2="910.08"/>
  <line class="st3" x1="619.23" y1="921.56" x2="618.89" y2="921.56"/>
  <line class="st3" x1="618.89" y1="921.56" x2="618.55" y2="921.56"/>
  <line class="st3" x1="617.54" y1="921.56" x2="617.88" y2="921.56"/>
  <line class="st3" x1="617.88" y1="921.56" x2="618.55" y2="921.56"/>
  <line class="st3" x1="617.2" y1="921.89" x2="617.2" y2="921.56"/>
  <line class="st3" x1="617.2" y1="921.56" x2="617.54" y2="921.56"/>
  <line class="st3" x1="624.97" y1="921.89" x2="623.95" y2="922.91"/>
  <line class="st3" x1="623.95" y1="922.91" x2="622.6" y2="923.24"/>
  <line class="st3" x1="622.6" y1="923.24" x2="620.92" y2="922.57"/>
  <line class="st3" x1="620.92" y1="922.57" x2="619.23" y2="921.56"/>
  <line class="st3" x1="624.63" y1="920.88" x2="624.97" y2="921.22"/>
  <line class="st3" x1="624.97" y1="921.22" x2="624.97" y2="921.89"/>
  <line class="st3" x1="624.63" y1="920.88" x2="618.89" y2="916.16"/>
  <line class="st3" x1="618.89" y1="916.16" x2="615.52" y2="910.08"/>
  <line class="st3" x1="648.25" y1="921.89" x2="640.83" y2="925.61"/>
  <line class="st3" x1="640.83" y1="925.61" x2="632.73" y2="926.96"/>
  <line class="st3" x1="632.73" y1="926.96" x2="624.29" y2="925.61"/>
  <line class="st3" x1="624.29" y1="925.61" x2="617.2" y2="921.89"/>
  <line class="st3" x1="645.89" y1="834.81" x2="646.23" y2="834.81"/>
  <line class="st3" x1="646.23" y1="834.81" x2="646.9" y2="834.81"/>
  <line class="st3" x1="647.58" y1="834.81" x2="647.24" y2="834.81"/>
  <line class="st3" x1="647.24" y1="834.81" x2="646.9" y2="834.81"/>
  <line class="st3" x1="648.25" y1="834.48" x2="647.92" y2="834.81"/>
  <line class="st3" x1="647.92" y1="834.81" x2="647.58" y2="834.81"/>
  <line class="st3" x1="640.15" y1="834.48" x2="641.17" y2="833.46"/>
  <line class="st3" x1="641.17" y1="833.46" x2="642.85" y2="833.13"/>
  <line class="st3" x1="642.85" y1="833.13" x2="644.54" y2="833.8"/>
  <line class="st3" x1="644.54" y1="833.8" x2="645.89" y2="834.81"/>
  <line class="st3" x1="640.49" y1="835.49" x2="640.15" y2="835.15"/>
  <line class="st3" x1="640.15" y1="835.15" x2="640.15" y2="834.48"/>
  <line class="st3" x1="640.49" y1="835.49" x2="646.23" y2="840.21"/>
  <line class="st3" x1="646.23" y1="840.21" x2="649.94" y2="846.29"/>
  <line class="st3" x1="619.23" y1="834.81" x2="618.89" y2="834.81"/>
  <line class="st3" x1="618.89" y1="834.81" x2="618.55" y2="834.81"/>
  <line class="st3" x1="617.54" y1="834.81" x2="617.88" y2="834.81"/>
  <line class="st3" x1="617.88" y1="834.81" x2="618.55" y2="834.81"/>
  <line class="st3" x1="617.2" y1="834.48" x2="617.2" y2="834.81"/>
  <line class="st3" x1="617.2" y1="834.81" x2="617.54" y2="834.81"/>
  <line class="st3" x1="624.97" y1="834.48" x2="623.95" y2="833.46"/>
  <line class="st3" x1="623.95" y1="833.46" x2="622.6" y2="833.13"/>
  <line class="st3" x1="622.6" y1="833.13" x2="620.92" y2="833.8"/>
  <line class="st3" x1="620.92" y1="833.8" x2="619.23" y2="834.81"/>
  <line class="st3" x1="624.63" y1="835.49" x2="624.97" y2="835.15"/>
  <line class="st3" x1="624.97" y1="835.15" x2="624.97" y2="834.48"/>
  <line class="st3" x1="624.63" y1="835.49" x2="618.89" y2="840.21"/>
  <line class="st3" x1="618.89" y1="840.21" x2="615.52" y2="846.29"/>
  <line class="st3" x1="648.25" y1="834.48" x2="640.83" y2="830.76"/>
  <line class="st3" x1="640.83" y1="830.76" x2="632.73" y2="829.41"/>
  <line class="st3" x1="632.73" y1="829.41" x2="624.29" y2="830.76"/>
  <line class="st3" x1="624.29" y1="830.76" x2="617.2" y2="834.48"/>
  <line class="st3" x1="656.36" y1="846.29" x2="656.36" y2="910.08"/>
  <polyline class="st3" points="656.36 910.08 649.94 910.08 615.52 910.08 608.79 910.08"/>
  <polyline class="st3" points="608.79 846.29 615.52 846.29 649.94 846.29 656.36 846.29"/>
  <polygon class="st12" points="586.31 829.41 577.87 830.76 570.79 834.48 570.79 834.81 571.12 834.81 571.46 834.81 572.14 834.81 572.47 834.81 572.81 834.81 574.5 833.8 576.19 833.13 577.54 833.46 578.55 834.48 578.55 835.15 578.21 835.49 572.47 840.21 569.1 846.29 603.52 846.29 599.81 840.21 594.08 835.49 593.74 835.15 593.74 834.48 594.75 833.46 596.44 833.13 598.12 833.8 599.47 834.81 599.81 834.81 600.49 834.81 600.82 834.81 601.16 834.81 601.5 834.81 601.84 834.48 594.41 830.76 586.31 829.41"/>
  <polygon class="st12" points="603.53 846.29 569.1 846.29 562.38 846.29 562.38 910.08 569.1 910.08 603.53 910.08 609.94 910.08 609.94 846.29 603.53 846.29"/>
  <polygon class="st12" points="569.1 910.08 572.47 916.16 578.21 920.88 578.55 921.22 578.55 921.89 577.54 922.91 576.19 923.24 574.5 922.57 572.81 921.56 572.47 921.56 572.14 921.56 571.46 921.56 571.12 921.56 570.79 921.56 570.79 921.89 577.87 925.61 586.31 926.96 594.41 925.61 601.84 921.89 601.5 921.56 601.16 921.56 600.82 921.56 600.49 921.56 599.81 921.56 599.47 921.56 598.12 922.57 596.44 923.24 594.75 922.91 593.74 921.89 593.74 921.22 594.07 920.88 599.81 916.16 603.53 910.08 569.1 910.08"/>
  <line class="st3" x1="562.37" y1="846.29" x2="562.37" y2="910.08"/>
  <line class="st3" x1="599.47" y1="921.56" x2="599.81" y2="921.56"/>
  <line class="st3" x1="599.81" y1="921.56" x2="600.49" y2="921.56"/>
  <line class="st3" x1="601.16" y1="921.56" x2="600.82" y2="921.56"/>
  <line class="st3" x1="600.82" y1="921.56" x2="600.49" y2="921.56"/>
  <line class="st3" x1="601.84" y1="921.89" x2="601.5" y2="921.56"/>
  <line class="st3" x1="601.5" y1="921.56" x2="601.16" y2="921.56"/>
  <line class="st3" x1="593.74" y1="921.89" x2="594.75" y2="922.91"/>
  <line class="st3" x1="594.75" y1="922.91" x2="596.43" y2="923.24"/>
  <line class="st3" x1="596.44" y1="923.24" x2="598.12" y2="922.57"/>
  <line class="st3" x1="598.12" y1="922.57" x2="599.47" y2="921.56"/>
  <line class="st3" x1="594.07" y1="920.88" x2="593.74" y2="921.22"/>
  <line class="st3" x1="593.74" y1="921.22" x2="593.74" y2="921.89"/>
  <line class="st3" x1="594.07" y1="920.88" x2="599.81" y2="916.16"/>
  <line class="st3" x1="599.81" y1="916.16" x2="603.52" y2="910.08"/>
  <line class="st3" x1="572.81" y1="921.56" x2="572.47" y2="921.56"/>
  <line class="st3" x1="572.47" y1="921.56" x2="572.14" y2="921.56"/>
  <line class="st3" x1="571.12" y1="921.56" x2="571.46" y2="921.56"/>
  <line class="st3" x1="571.46" y1="921.56" x2="572.13" y2="921.56"/>
  <line class="st3" x1="570.79" y1="921.89" x2="570.79" y2="921.56"/>
  <line class="st3" x1="570.79" y1="921.56" x2="571.12" y2="921.56"/>
  <line class="st3" x1="578.55" y1="921.89" x2="577.54" y2="922.91"/>
  <line class="st3" x1="577.54" y1="922.91" x2="576.19" y2="923.24"/>
  <line class="st3" x1="576.19" y1="923.24" x2="574.5" y2="922.57"/>
  <line class="st3" x1="574.5" y1="922.57" x2="572.81" y2="921.56"/>
  <line class="st3" x1="578.21" y1="920.88" x2="578.55" y2="921.22"/>
  <line class="st3" x1="578.55" y1="921.22" x2="578.55" y2="921.89"/>
  <line class="st3" x1="578.21" y1="920.88" x2="572.47" y2="916.16"/>
  <line class="st3" x1="572.47" y1="916.16" x2="569.1" y2="910.08"/>
  <line class="st3" x1="601.84" y1="921.89" x2="594.41" y2="925.61"/>
  <line class="st3" x1="594.41" y1="925.61" x2="586.31" y2="926.96"/>
  <line class="st3" x1="586.31" y1="926.96" x2="577.87" y2="925.61"/>
  <line class="st3" x1="577.87" y1="925.61" x2="570.79" y2="921.89"/>
  <line class="st3" x1="599.47" y1="834.81" x2="599.81" y2="834.81"/>
  <line class="st3" x1="599.81" y1="834.81" x2="600.49" y2="834.81"/>
  <line class="st3" x1="601.16" y1="834.81" x2="600.82" y2="834.81"/>
  <line class="st3" x1="600.82" y1="834.81" x2="600.49" y2="834.81"/>
  <line class="st3" x1="601.84" y1="834.48" x2="601.5" y2="834.81"/>
  <line class="st3" x1="601.5" y1="834.81" x2="601.16" y2="834.81"/>
  <line class="st3" x1="593.74" y1="834.48" x2="594.75" y2="833.46"/>
  <line class="st3" x1="594.75" y1="833.46" x2="596.43" y2="833.13"/>
  <line class="st3" x1="596.44" y1="833.13" x2="598.12" y2="833.8"/>
  <line class="st3" x1="598.12" y1="833.8" x2="599.47" y2="834.81"/>
  <line class="st3" x1="594.07" y1="835.49" x2="593.74" y2="835.15"/>
  <line class="st3" x1="593.74" y1="835.15" x2="593.74" y2="834.48"/>
  <line class="st3" x1="594.07" y1="835.49" x2="599.81" y2="840.21"/>
  <line class="st3" x1="599.81" y1="840.21" x2="603.52" y2="846.29"/>
  <line class="st3" x1="572.81" y1="834.81" x2="572.47" y2="834.81"/>
  <line class="st3" x1="572.47" y1="834.81" x2="572.14" y2="834.81"/>
  <line class="st3" x1="571.12" y1="834.81" x2="571.46" y2="834.81"/>
  <line class="st3" x1="571.46" y1="834.81" x2="572.13" y2="834.81"/>
  <line class="st3" x1="570.79" y1="834.48" x2="570.79" y2="834.81"/>
  <line class="st3" x1="570.79" y1="834.81" x2="571.12" y2="834.81"/>
  <line class="st3" x1="578.55" y1="834.48" x2="577.54" y2="833.46"/>
  <line class="st3" x1="577.54" y1="833.46" x2="576.19" y2="833.13"/>
  <line class="st3" x1="576.19" y1="833.13" x2="574.5" y2="833.8"/>
  <line class="st3" x1="574.5" y1="833.8" x2="572.81" y2="834.81"/>
  <line class="st3" x1="578.21" y1="835.49" x2="578.55" y2="835.15"/>
  <line class="st3" x1="578.55" y1="835.15" x2="578.55" y2="834.48"/>
  <line class="st3" x1="578.21" y1="835.49" x2="572.47" y2="840.21"/>
  <line class="st3" x1="572.47" y1="840.21" x2="569.1" y2="846.29"/>
  <line class="st3" x1="601.84" y1="834.48" x2="594.41" y2="830.76"/>
  <line class="st3" x1="594.41" y1="830.76" x2="586.31" y2="829.41"/>
  <line class="st3" x1="586.31" y1="829.41" x2="577.87" y2="830.76"/>
  <line class="st3" x1="577.87" y1="830.76" x2="570.79" y2="834.48"/>
  <line class="st3" x1="609.94" y1="846.29" x2="609.94" y2="910.08"/>
  <polyline class="st3" points="609.94 910.08 603.52 910.08 569.1 910.08 562.38 910.08"/>
  <polyline class="st3" points="562.37 846.29 569.1 846.29 603.52 846.29 609.94 846.29"/>
  <rect class="st12" x="562.37" y="846.29" width="93.99" height="63.79"/>
  <rect class="st3" x="562.37" y="846.29" width="93.99" height="63.79"/>
  <rect class="st12" x="350.06" y="831.49" width="49.65" height="47.59"/>
  <line class="st3" x1="399.72" y1="879.08" x2="396.34" y2="879.08"/>
  <line class="st3" x1="393.98" y1="879.08" x2="391.61" y2="879.08"/>
  <line class="st3" x1="389.25" y1="879.08" x2="386.89" y2="879.08"/>
  <line class="st3" x1="384.53" y1="879.08" x2="381.83" y2="879.08"/>
  <line class="st3" x1="379.46" y1="879.08" x2="377.1" y2="879.08"/>
  <line class="st3" x1="374.74" y1="879.08" x2="372.38" y2="879.08"/>
  <line class="st3" x1="370.01" y1="879.08" x2="367.65" y2="879.08"/>
  <line class="st3" x1="365.29" y1="879.08" x2="362.92" y2="879.08"/>
  <line class="st3" x1="360.56" y1="879.08" x2="358.2" y2="879.08"/>
  <line class="st3" x1="355.84" y1="879.08" x2="352.12" y2="879.08"/>
  <line class="st3" x1="352.12" y1="831.49" x2="355.84" y2="831.49"/>
  <line class="st3" x1="358.2" y1="831.49" x2="360.56" y2="831.49"/>
  <line class="st3" x1="362.92" y1="831.49" x2="365.29" y2="831.49"/>
  <line class="st3" x1="367.65" y1="831.49" x2="370.01" y2="831.49"/>
  <line class="st3" x1="372.37" y1="831.49" x2="374.74" y2="831.49"/>
  <line class="st3" x1="377.1" y1="831.49" x2="379.46" y2="831.49"/>
  <line class="st3" x1="381.83" y1="831.49" x2="384.53" y2="831.49"/>
  <line class="st3" x1="386.89" y1="831.49" x2="389.25" y2="831.49"/>
  <line class="st3" x1="391.61" y1="831.49" x2="393.98" y2="831.49"/>
  <line class="st3" x1="396.34" y1="831.49" x2="399.71" y2="831.49"/>
  <line class="st3" x1="399.72" y1="831.49" x2="399.72" y2="832.5"/>
  <line class="st3" x1="399.72" y1="834.87" x2="399.72" y2="837.23"/>
  <line class="st3" x1="399.72" y1="839.59" x2="399.72" y2="841.95"/>
  <line class="st3" x1="399.72" y1="844.65" x2="399.72" y2="847.02"/>
  <line class="st3" x1="399.72" y1="849.38" x2="399.72" y2="851.74"/>
  <line class="st3" x1="399.72" y1="854.11" x2="399.72" y2="856.47"/>
  <line class="st3" x1="399.72" y1="858.83" x2="399.72" y2="861.19"/>
  <line class="st3" x1="399.72" y1="863.56" x2="399.72" y2="865.92"/>
  <line class="st3" x1="399.72" y1="868.28" x2="399.72" y2="870.64"/>
  <line class="st3" x1="399.72" y1="873.34" x2="399.72" y2="875.71"/>
  <line class="st3" x1="399.72" y1="878.07" x2="399.72" y2="879.08"/>
  <line class="st3" x1="399.72" y1="879.08" x2="396.34" y2="879.08"/>
  <line class="st3" x1="393.98" y1="879.08" x2="391.61" y2="879.08"/>
  <line class="st3" x1="389.25" y1="879.08" x2="386.89" y2="879.08"/>
  <line class="st3" x1="384.53" y1="879.08" x2="381.83" y2="879.08"/>
  <line class="st3" x1="379.46" y1="879.08" x2="377.1" y2="879.08"/>
  <line class="st3" x1="374.74" y1="879.08" x2="372.38" y2="879.08"/>
  <line class="st3" x1="370.01" y1="879.08" x2="367.65" y2="879.08"/>
  <line class="st3" x1="365.29" y1="879.08" x2="362.92" y2="879.08"/>
  <line class="st3" x1="360.56" y1="879.08" x2="358.2" y2="879.08"/>
  <line class="st3" x1="355.84" y1="879.08" x2="352.12" y2="879.08"/>
  <rect class="st12" x="598.45" y="662.9" width="49.65" height="47.59"/>
  <line class="st3" x1="598.45" y1="662.9" x2="601.82" y2="662.9"/>
  <line class="st3" x1="604.19" y1="662.9" x2="606.55" y2="662.9"/>
  <line class="st3" x1="608.91" y1="662.9" x2="611.27" y2="662.9"/>
  <line class="st3" x1="613.64" y1="662.9" x2="616.34" y2="662.9"/>
  <line class="st3" x1="618.7" y1="662.9" x2="621.06" y2="662.9"/>
  <line class="st3" x1="623.42" y1="662.9" x2="625.79" y2="662.9"/>
  <line class="st3" x1="628.15" y1="662.9" x2="630.51" y2="662.9"/>
  <line class="st3" x1="632.88" y1="662.9" x2="635.24" y2="662.9"/>
  <line class="st3" x1="637.6" y1="662.9" x2="639.96" y2="662.9"/>
  <line class="st3" x1="642.33" y1="662.9" x2="646.04" y2="662.9"/>
  <line class="st3" x1="646.04" y1="710.49" x2="642.33" y2="710.49"/>
  <line class="st3" x1="639.96" y1="710.49" x2="637.6" y2="710.49"/>
  <line class="st3" x1="635.24" y1="710.49" x2="632.87" y2="710.49"/>
  <line class="st3" x1="630.51" y1="710.49" x2="628.15" y2="710.49"/>
  <line class="st3" x1="625.79" y1="710.49" x2="623.42" y2="710.49"/>
  <line class="st3" x1="621.06" y1="710.49" x2="618.7" y2="710.49"/>
  <line class="st3" x1="616.34" y1="710.49" x2="613.64" y2="710.49"/>
  <line class="st3" x1="611.27" y1="710.49" x2="608.91" y2="710.49"/>
  <line class="st3" x1="606.55" y1="710.49" x2="604.19" y2="710.49"/>
  <line class="st3" x1="601.82" y1="710.49" x2="598.45" y2="710.49"/>
  <line class="st3" x1="598.45" y1="710.49" x2="598.45" y2="709.47"/>
  <line class="st3" x1="598.45" y1="707.11" x2="598.45" y2="704.75"/>
  <line class="st3" x1="598.45" y1="702.39" x2="598.45" y2="700.02"/>
  <line class="st3" x1="598.45" y1="697.32" x2="598.45" y2="694.96"/>
  <line class="st3" x1="598.45" y1="692.6" x2="598.45" y2="690.23"/>
  <line class="st3" x1="598.45" y1="687.87" x2="598.45" y2="685.51"/>
  <line class="st3" x1="598.45" y1="683.15" x2="598.45" y2="680.78"/>
  <line class="st3" x1="598.45" y1="678.42" x2="598.45" y2="676.06"/>
  <line class="st3" x1="598.45" y1="673.7" x2="598.45" y2="671.33"/>
  <line class="st3" x1="598.45" y1="668.63" x2="598.45" y2="666.27"/>
  <line class="st3" x1="598.45" y1="663.91" x2="598.45" y2="662.9"/>
  <line class="st3" x1="598.45" y1="662.9" x2="601.82" y2="662.9"/>
  <line class="st3" x1="604.19" y1="662.9" x2="606.55" y2="662.9"/>
  <line class="st3" x1="608.91" y1="662.9" x2="611.27" y2="662.9"/>
  <line class="st3" x1="613.64" y1="662.9" x2="616.34" y2="662.9"/>
  <line class="st3" x1="618.7" y1="662.9" x2="621.06" y2="662.9"/>
  <line class="st3" x1="623.42" y1="662.9" x2="625.79" y2="662.9"/>
  <line class="st3" x1="628.15" y1="662.9" x2="630.51" y2="662.9"/>
  <line class="st3" x1="632.88" y1="662.9" x2="635.24" y2="662.9"/>
  <line class="st3" x1="637.6" y1="662.9" x2="639.96" y2="662.9"/>
  <line class="st3" x1="642.33" y1="662.9" x2="646.04" y2="662.9"/>
  <polygon class="st12" points="534.44 638.05 532.77 638.52 531.12 640.34 526.3 649.83 573.6 673.86 578.42 664.38 579.06 662.05 578.31 660.34 534.44 638.05"/>
  <polygon class="st12" points="510.5 680.92 510 683.32 510.74 684.69 554.61 706.98 556.3 706.85 557.8 704.96 573.6 673.86 526.3 649.83 510.5 680.92"/>
  <line class="st3" x1="573.6" y1="673.86" x2="526.3" y2="649.82"/>
  <line class="st3" x1="531.12" y1="640.34" x2="532.76" y2="638.52"/>
  <line class="st3" x1="532.77" y1="638.52" x2="534.44" y2="638.05"/>
  <line class="st3" x1="578.42" y1="664.38" x2="579.06" y2="662.05"/>
  <line class="st3" x1="579.06" y1="662.05" x2="578.31" y2="660.34"/>
  <line class="st3" x1="510.5" y1="680.92" x2="510" y2="683.31"/>
  <line class="st3" x1="510" y1="683.32" x2="510.74" y2="684.69"/>
  <line class="st3" x1="557.8" y1="704.95" x2="556.3" y2="706.84"/>
  <line class="st3" x1="556.3" y1="706.84" x2="554.61" y2="706.98"/>
  <polyline class="st3" points="557.8 704.95 573.6 673.86 578.42 664.37"/>
  <line class="st3" x1="578.31" y1="660.34" x2="534.44" y2="638.05"/>
  <polyline class="st3" points="531.12 640.34 526.3 649.82 510.5 680.92"/>
  <line class="st3" x1="510.74" y1="684.69" x2="554.61" y2="706.98"/>
  <path class="st3" d="M779.73,980.51v-241.67M779.73,738.84h-83.71M696.03,980.51h83.71M696.03,980.51v4.05M696.03,984.56h87.76M783.78,984.56v-249.43M783.78,735.13h-87.76M696.03,735.13v3.71M696.03,738.84h83.71M779.73,738.84v241.67M779.73,980.51h-83.71M469.88,939.67h-119.82M350.06,887.69h119.82M469.88,889.15v50.52M332.51,1096.62h17.55M591.73,645.34v16.2M591.73,661.55h57.72M350.06,661.55h44.55M394.61,661.55v-16.2M649.45,758.75v-97.21M649.45,661.55h-57.72M591.73,661.55v-32.74M591.73,628.81h-1.02M395.63,628.81h-1.01M394.61,628.81v32.74M350.06,661.55v218.38M350.06,879.93h127.58M477.65,1080.76h7.76M556.97,1080.76h92.48M649.45,1080.76v-118.13M649.45,956.88v-1.01M649.45,955.87h32.4M681.85,955.87v-1.02M681.85,841.11v-1.01M681.85,759.77v-1.02M681.85,758.75h-32.4M587.01,619.69h-109.7M477.31,619.69v4.05M477.31,623.74h109.7M587.01,623.74v-4.05M403.05,623.74h65.48M468.53,623.74v-4.05M468.53,619.69h-65.48M403.05,619.69v4.05M587.01,630.83h-109.7M471.91,630.83h-72.23M471.91,630.83h-72.23M399.68,619.02h72.23M477.31,619.02h109.7M403.05,619.02h65.48M471.91,625.43v5.4M399.68,625.43v5.4M403.05,625.43h65.48M399.68,625.43h72.23M587.01,630.83h3.71M590.72,630.83v-11.82M590.72,619.02h-3.71M587.01,619.02v11.82M471.91,630.83h5.4M477.31,630.83v-11.82M477.31,619.02h-8.77M468.53,619.02v6.42M468.53,625.43h3.37M471.91,625.43v5.4M395.63,630.83h4.05M399.68,630.83v-5.4M399.68,625.43h3.38M403.05,625.43v-6.42M403.05,619.02h-7.43M395.63,619.02v11.82M473.6,619.02h-75.27M397.65,619.02h76.28M398.33,619.02h75.27M399.68,619.02h72.23M471.91,619.02h-72.23M473.93,619.02h-76.28M468.53,619.02h-65.48M403.05,619.02h65.48M350.06,879.93v-218.38M332.51,661.55v419.21M350.06,887.69h8.1M358.16,887.69v-7.76M358.16,879.93h-8.1M406.09,887.69h63.79M469.88,879.93h-63.79M406.09,879.93v7.76M406.09,887.69h-47.93M358.16,879.93h47.93M358.16,887.69v-7.76M406.09,879.93v7.76M477.65,939.67v-59.74M477.65,879.93h-7.76"/>
  <path class="st3" d="M397.99,879.93h-1.01M394.28,879.93h-2.36M389.55,879.93h-2.36M384.83,879.93h-2.37M380.1,879.93h-2.36M375.37,879.93h-2.36M370.65,879.93h-2.7M365.59,879.93h-2.36M360.86,879.93h-2.36M356.14,879.93h-2.36M351.41,879.93h-1.35M350.06,879.93v-1.35M350.06,876.21v-2.36M350.06,871.49v-2.36M350.06,866.76v-2.36M350.06,861.7v-2.36M350.06,856.98v-2.36M350.06,852.25v-2.36M350.06,847.52v-2.36M350.06,842.8v-2.36M350.06,838.07v-2.7M350.06,833.01v-1.01M350.06,1096.62h134.68M557.98,1096.62h91.47M649.45,1080.75h-91.47M484.73,1080.75h.67M556.96,1080.75h1.01M488.11,1014.26l12.82,1.01M500.93,1015.27l12.49,4.05M513.42,1019.32l11.47,6.08M524.9,1025.4l10.13,8.1M535.03,1033.5l8.44,10.13M543.46,1043.63l6.07,11.48M549.54,1055.1l3.71,12.49M553.25,1067.59l1.35,13.16M485.41,1096.62v-15.87M556.96,1080.75v15.87M554.6,1080.75h-66.49M488.11,1080.75v-66.49M484.73,1080.75h.67M556.96,1080.75h1.01M469.88,939.67l-119.82-51.98M350.06,939.67h119.82M469.88,939.67v-51.98M469.88,887.69h-119.82M649.45,661.55v97.21M649.45,758.75h15.86M665.31,955.87h-15.86M649.45,956.88h-55.69M593.76,956.88v5.74M593.76,962.62h55.69M767.24,762.47l-1.35,13.16M765.89,775.63l-3.37,12.49M762.52,788.12l-5.4,11.81M757.12,799.93l-7.76,10.8M749.36,810.73l-9.11,9.45M740.24,820.18l-10.8,7.43M729.44,827.61l-11.81,5.74"/>
  <path class="st3" d="M717.63,833.35l-12.83,3.37M704.8,836.72l-13.16,1.01M691.64,762.47h75.61M687.25,767.19v65.48M687.25,832.67h3.71M690.96,832.67v-65.48M690.96,767.19h-3.71M679.83,836.05v-72.23M691.64,767.19v65.48M685.23,767.19v65.48M685.23,836.05h-5.4M685.23,763.82h-5.4M685.23,763.82v72.23M679.83,836.05v4.05M679.83,840.1h11.81M691.64,840.1v-7.43M691.64,832.67h-6.41M685.23,832.67v3.37M685.23,836.05h-5.4M679.83,759.77v4.05M679.83,763.82h5.4M685.23,763.82v3.37M685.23,767.19h6.41M691.64,767.19v-7.43M691.64,759.77h-11.81M690.96,951.15h-3.71M690.96,845.16v105.98M687.25,845.16h3.71M687.25,951.15v-105.98M679.83,845.16v105.98M691.64,951.15v-105.98M691.64,954.86h-11.81M691.64,951.15v3.71M679.83,951.15h11.81M679.83,954.86v-3.71M691.64,845.16h-11.81M691.64,841.11v4.05M679.83,841.11h11.81M679.83,845.16v-4.05M643.03,1096.62h-86.07M557.98,1080.76h-1.01M485.41,1080.76h-.68M485.41,1096.62h-152.9M649.45,1011.9v47.59M649.45,963.97v95.52M332.51,887.69v-7.76M477.65,1080.76v-6.75M477.65,1074.01v-8.1M477.65,1065.9h-5.06M477.65,994.35v-54.68"/>
  <path class="st3" d="M472.58,1059.49v-62.78M477.65,1065.9h-5.06M469.88,939.67h-118.13M406.77,1062.53l1.35-12.82M408.12,1049.7l3.71-12.49M411.83,1037.21l6.08-11.14M417.9,1026.08l8.1-10.13M426,1015.95l10.13-8.1M436.13,1007.85l11.14-6.08M447.27,1001.77l12.49-3.71M459.76,998.06l12.82-1.35M471.23,994.35h6.41M472.58,1059.49v3.04M472.58,1062.53h-65.82M472.58,1059.49v-62.78"/>
  <path class="st3" d="M391.24,946.08h-1.69M388.2,946.08h-1.69M391.24,946.08h-4.72M391.24,946.08h-1.69M388.2,946.08h-1.69"/>
  <path class="st3" d="M358.16,946.08h113.07M471.23,946.08v48.26M471.23,1065.9v6.75M472.58,1065.9h-1.35M471.23,1072.65h-113.07M358.16,1072.65v-126.57"/>
  <path class="st3" d="M696.03,1096.62v-140.75M696.03,955.87h-30.71M696.03,758.75v-144.13M696.03,614.63h-30.71M665.31,758.75h30.71M696.03,758.75h-8.77M687.25,758.75v1.01M687.25,840.1v1.01M687.25,954.86v1.01M687.25,955.87h8.77M687.25,955.87v-1.01M687.25,841.11v-1.01M687.25,759.77v-1.01M681.85,758.75h5.4M687.25,955.87h-5.4M394.62,645.34v-30.72M394.62,614.63h-62.11M665.31,614.63h-73.58M591.73,614.63v30.72M591.73,623.41h-1.01M395.63,623.41h-1.01M394.62,628.8v-5.4M591.73,623.41v5.4M591.73,623.41v-8.78M394.62,614.63v8.78M394.62,623.41h1.01M590.72,623.41h1.01M332.51,1096.62v-481.99M696.03,1096.62h-52.99"/>
  <g class="st10">
    <path class="st2" d="M1098.7,579.19h-6.07M1075.07,499.87l-16.2,7.09M1063.26,524.51l-4.39-17.55M1035.58,495.82l27.68,28.69M1035.58,495.82l39.49,4.05M1035.58,495.82l23.29,11.14M1098.7,818.5h-6.07M1098.7,658.84h-6.07M1098.7,738.5h-6.07M1098.7,818.5v-239.31M-27.63,1278.21h1183.71"/>
    <path d="M1077.31,1227.3c.43-.28.75-.67.96-1.17.21-.5.32-1.12.32-1.85,0-.58-.11-1.1-.32-1.57-.21-.47-.5-.82-.89-1.07-.38-.25-.78-.37-1.21-.37s-.81.11-1.14.34c-.33.23-.61.58-.82,1.05-.15.33-.32.93-.51,1.8-.19.87-.39,1.42-.57,1.62-.19.21-.43.32-.72.32-.33,0-.62-.15-.85-.45-.24-.3-.36-.77-.36-1.42s.13-1.1.39-1.42c.26-.32.64-.51,1.16-.56l-.07-1.03c-.47.02-.9.15-1.27.4-.37.25-.65.6-.85,1.06-.19.46-.29.99-.29,1.59,0,.55.09,1.05.27,1.49.18.45.45.79.81,1.02.35.23.73.35,1.14.35.37,0,.71-.1,1-.28.3-.19.55-.48.75-.87.16-.3.33-.82.5-1.57.18-.75.31-1.23.4-1.45.13-.34.28-.59.47-.73.19-.15.41-.22.66-.22s.48.08.69.23c.21.15.37.39.49.7.12.31.18.68.18,1.09,0,.46-.08.88-.24,1.25-.16.37-.37.65-.62.82s-.59.29-.99.34l.09,1.01c.54-.02,1.02-.16,1.45-.45M1078.45,1218.58h-2.79l-1.29-1.33,4.08-2.9v-1.42l-4.79,3.57-3.26-3.41v1.46l3.99,4.04h-3.99v1.08h8.06v-1.08Z"/>
    <path d="M1072.79,1209.06h.92v-5.37h-.92v5.37ZM1075.23,1209.06h.92v-5.37h-.92v5.37Z"/>
    <path d="M1077.31,1198.95c.43-.28.75-.67.96-1.17.21-.5.32-1.11.32-1.85,0-.58-.1-1.1-.31-1.57-.21-.47-.51-.82-.89-1.07-.38-.25-.78-.37-1.21-.37s-.81.11-1.14.34c-.33.23-.61.58-.82,1.05-.15.33-.32.93-.51,1.8-.2.88-.39,1.42-.57,1.63-.19.21-.43.31-.72.31-.34,0-.62-.15-.86-.45-.23-.3-.35-.77-.35-1.42s.13-1.1.39-1.42c.26-.32.64-.51,1.16-.56l-.08-1.03c-.47.02-.9.15-1.27.4-.37.25-.66.6-.85,1.07-.19.46-.29.99-.29,1.59,0,.55.09,1.05.27,1.49.18.45.45.79.8,1.02.36.23.73.35,1.14.35.37,0,.7-.1,1-.29.3-.19.55-.48.75-.87.15-.3.32-.83.5-1.57.18-.74.31-1.23.39-1.45.13-.34.29-.59.48-.73.19-.15.41-.22.66-.22s.48.07.69.23c.21.15.38.39.5.7.12.31.18.68.18,1.09,0,.46-.08.88-.24,1.25-.16.37-.37.64-.63.82-.26.17-.59.29-.99.34l.09,1.01c.54-.01,1.02-.16,1.45-.45"/>
    <path d="M1078.45,1190.72h-2.31l-.67-.71,2.99-1.95v-1.23l-3.67,2.48-2.17-2.26v1.29l2.38,2.37h-4.6v1h8.06v-1ZM1078.45,1181.6v-1.04c-.22.12-.46.21-.7.25-.24.04-.83.07-1.74.07h-1.32c-.44,0-.75.02-.91.05-.27.06-.49.16-.67.31-.18.15-.33.38-.44.69-.12.31-.18.72-.18,1.23s.07.95.21,1.33c.14.38.33.68.59.88.25.2.59.35,1,.44l.13-.98c-.42-.11-.7-.27-.87-.5-.16-.22-.24-.57-.24-1.04,0-.5.11-.88.33-1.14.17-.19.45-.28.85-.28.04,0,.12,0,.26,0,.13.38.24.97.34,1.78.05.4.09.69.15.89.07.27.18.5.33.72.14.21.33.38.57.52.24.13.5.2.78.2.49,0,.89-.17,1.2-.52s.47-.84.47-1.49c0-.39-.07-.76-.19-1.1-.13-.34-.35-.7-.66-1.07.27-.03.51-.1.72-.2M1075.88,1181.88c.44,0,.77.05.99.16.29.14.52.36.68.66.17.3.25.64.25,1.02s-.09.69-.26.89c-.18.2-.39.3-.66.3-.18,0-.33-.05-.47-.14-.14-.09-.25-.22-.33-.39-.07-.17-.14-.46-.2-.87-.1-.73-.22-1.27-.37-1.63h.36Z"/>
    <path d="M1078.45,1178.57h-2.31l-.67-.71,2.99-1.95v-1.23l-3.67,2.48-2.16-2.25v1.29l2.38,2.37h-4.6v1h8.06v-1ZM1077.6,1172.09c0,.15-.03.26-.07.34-.05.08-.11.14-.19.17-.08.03-.26.05-.54.05h-3.41v-1.01h-.77v1.01h-2.04l.59.99h1.45v.73h.77v-.73h3.36c.6,0,.98-.04,1.17-.12.19-.08.34-.22.45-.42.11-.2.17-.48.17-.84,0-.22-.03-.47-.09-.76l-.88.14c.03.18.04.33.04.44"/>
    <path d="M1091.61,1226.25h-3.66v-3.82h-.95v3.82h-2.49v-4.41h-.95v5.49h8.06v-1.08ZM1090.47,1220.55c.43-.28.75-.67.96-1.17.21-.5.32-1.11.32-1.85,0-.58-.1-1.11-.31-1.57-.21-.46-.51-.82-.89-1.07-.38-.25-.78-.37-1.21-.37s-.81.11-1.14.34c-.33.23-.61.58-.83,1.05-.14.33-.32.93-.51,1.8-.2.88-.39,1.42-.57,1.63-.19.21-.43.31-.72.31-.33,0-.62-.15-.85-.45-.23-.3-.35-.77-.35-1.42s.13-1.1.39-1.42c.26-.32.64-.51,1.16-.56l-.08-1.03c-.47.02-.9.15-1.27.4-.37.25-.66.6-.85,1.07-.19.46-.29.99-.29,1.59,0,.55.09,1.05.27,1.49.19.45.45.79.81,1.02.35.24.73.35,1.14.35.37,0,.7-.1,1-.29.3-.19.55-.48.75-.87.16-.3.33-.83.5-1.57.18-.74.31-1.23.4-1.45.13-.34.28-.59.48-.73.19-.15.41-.22.66-.22s.48.07.69.23c.21.15.38.39.5.7.12.31.18.68.18,1.09,0,.46-.08.88-.24,1.25-.16.37-.37.64-.63.82-.26.17-.59.29-.99.34l.09,1.01c.54-.01,1.02-.16,1.45-.45"/>
    <path d="M1085.95,1210.08h.92v-5.37h-.92v5.37ZM1088.4,1210.08h.92v-5.37h-.92v5.37Z"/>
    <polygon points="1091.61 1198.91 1087.95 1198.91 1087.95 1195.09 1087 1195.09 1087 1198.91 1084.5 1198.91 1084.5 1194.5 1083.55 1194.5 1083.55 1199.99 1091.61 1199.99 1091.61 1198.91"/>
    <path d="M1090.96,1192.69c.52-.51.79-1.18.79-2,0-.51-.12-.99-.36-1.42-.24-.43-.57-.76-1-.99-.43-.23-1.02-.34-1.77-.34-.93,0-1.65.26-2.18.77-.53.52-.79,1.18-.79,1.99,0,.73.22,1.35.65,1.85.52.61,1.32.91,2.4.91.98,0,1.74-.25,2.26-.76M1087.02,1191.93c-.37-.33-.55-.74-.55-1.24s.19-.9.56-1.23c.37-.33.92-.5,1.64-.5.77,0,1.34.16,1.71.49.38.33.56.74.56,1.24s-.19.91-.56,1.24c-.37.33-.93.49-1.68.49s-1.31-.16-1.68-.49M1091.61,1186.02h-3.05c-.42,0-.81-.06-1.16-.17-.23-.07-.41-.2-.54-.37-.13-.18-.2-.37-.2-.59,0-.24.07-.49.21-.73l-.92-.34c-.21.35-.32.69-.32,1.03,0,.23.07.45.2.64.13.19.4.4.82.63h-.89v.9h5.84v-1Z"/>
    <path d="M1090.64,1179.87c.19.26.28.57.28.94,0,.49-.17.9-.51,1.23-.34.33-.83.51-1.48.55v-4.4c-.11,0-.2,0-.26,0-.97,0-1.71.25-2.24.75-.53.5-.8,1.14-.8,1.93s.27,1.47.81,1.98c.54.51,1.31.77,2.29.77s1.69-.25,2.21-.76c.53-.5.79-1.19.79-2.05,0-.68-.17-1.25-.5-1.69-.33-.44-.79-.74-1.39-.9l-.13,1.03c.42.15.72.36.91.62M1086.91,1182.02c-.31-.31-.46-.7-.46-1.16,0-.51.19-.92.57-1.24.25-.21.62-.33,1.11-.38v3.29c-.51-.03-.91-.21-1.22-.52M1091.27,1176.51c.32-.4.47-.98.47-1.75,0-.46-.08-.88-.24-1.24-.16-.37-.38-.65-.68-.84-.29-.19-.6-.29-.93-.29s-.62.08-.85.24c-.23.16-.4.38-.52.66-.12.28-.27.77-.46,1.48-.13.49-.22.78-.25.88-.07.17-.16.3-.27.38-.1.08-.22.12-.35.12-.2,0-.38-.1-.53-.3-.15-.19-.22-.52-.22-.98,0-.39.08-.69.25-.9.17-.21.4-.34.71-.38l-.13-.97c-.38.06-.68.18-.9.34-.22.17-.41.42-.54.77-.13.35-.2.76-.2,1.22,0,.31.04.59.12.87.08.27.18.48.29.63.15.21.33.37.55.49.22.12.46.18.72.18.28,0,.55-.07.78-.22.23-.15.42-.36.55-.64.13-.28.29-.79.48-1.52.14-.55.25-.88.33-1.02.13-.2.31-.29.53-.29.25,0,.47.11.65.33.19.22.28.56.28,1.02s-.1.81-.31,1.06c-.21.25-.51.41-.9.46l.16.99c.62-.11,1.09-.37,1.4-.77M1083.55,1171.13h8.06v-1h-8.06v1ZM1091.61,1164.44v-1.04c-.22.13-.46.21-.7.25-.24.04-.83.06-1.74.06h-1.32c-.44,0-.74.02-.91.05-.27.06-.5.17-.67.31-.18.15-.33.38-.44.69-.12.31-.18.72-.18,1.23s.07.95.21,1.34c.14.38.33.68.59.88.25.21.59.35,1,.44l.13-.98c-.42-.11-.7-.27-.87-.5-.17-.22-.24-.57-.24-1.04,0-.5.11-.88.34-1.14.16-.19.45-.28.85-.28.04,0,.12,0,.26,0,.13.38.24.97.34,1.78.05.4.1.69.15.89.07.27.18.5.32.72.15.21.33.38.57.52.24.13.5.2.78.2.49,0,.89-.17,1.2-.52s.47-.84.47-1.49c0-.39-.06-.76-.19-1.1-.13-.34-.35-.7-.66-1.07.27-.03.51-.1.72-.2M1089.04,1164.73c.44,0,.77.06.99.16.29.14.52.36.69.66.16.3.25.64.25,1.03s-.09.69-.26.89c-.18.2-.39.3-.66.3-.17,0-.33-.04-.47-.14-.14-.09-.25-.22-.32-.39-.07-.17-.14-.46-.2-.87-.1-.72-.22-1.27-.37-1.63h.36ZM1084.99,1166.82c.2-.19.29-.43.29-.71s-.1-.5-.29-.7c-.2-.2-.44-.3-.72-.3s-.52.1-.71.3c-.2.2-.29.43-.29.7s.1.5.29.7.42.3.69.3c.29,0,.54-.1.74-.3M1083.85,1166.52c-.11-.12-.17-.26-.17-.41s.06-.3.18-.42c.12-.11.26-.17.43-.17s.3.06.42.17c.12.12.17.25.17.42s-.06.29-.17.41c-.12.12-.26.17-.44.17-.16,0-.3-.06-.42-.17M1090.64,1158.66c.19.26.28.57.28.94,0,.49-.17.9-.51,1.23-.34.33-.83.51-1.48.55v-4.4c-.11,0-.2,0-.26,0-.97,0-1.71.25-2.24.75-.53.5-.8,1.15-.8,1.93s.27,1.48.81,1.98c.54.51,1.31.76,2.29.76s1.69-.25,2.21-.76c.53-.5.79-1.19.79-2.05,0-.68-.17-1.25-.5-1.69-.33-.44-.79-.74-1.39-.9l-.13,1.03c.42.15.72.36.91.61M1086.91,1160.8c-.31-.31-.46-.7-.46-1.16,0-.51.19-.92.57-1.24.25-.21.62-.33,1.11-.38v3.29c-.51-.03-.91-.21-1.22-.52"/>
    <path d="M1090.76,1153.87c0,.15-.03.26-.07.34-.05.08-.11.14-.19.17-.08.03-.26.05-.54.05h-3.41v-1.01h-.77v1.01h-2.04l.59,1h1.45v.73h.77v-.73h3.36c.6,0,.99-.04,1.17-.12.18-.08.33-.22.45-.42.11-.2.17-.48.17-.84,0-.22-.03-.47-.09-.75l-.87.14c.03.18.04.33.04.44M1091.27,1149.18c.32-.4.47-.98.47-1.75,0-.46-.08-.88-.24-1.25-.16-.37-.38-.65-.67-.84-.29-.2-.6-.29-.93-.29s-.62.08-.85.24c-.23.16-.4.38-.52.66s-.27.77-.46,1.48c-.14.49-.22.78-.26.88-.07.17-.15.3-.26.38-.1.08-.21.12-.35.12-.2,0-.38-.1-.53-.3s-.22-.52-.22-.98c0-.39.08-.69.25-.9.17-.21.4-.34.7-.38l-.13-.98c-.38.06-.68.18-.9.34-.22.17-.4.43-.54.78-.13.35-.2.76-.2,1.22,0,.31.04.59.12.86.08.27.18.48.29.63.15.21.33.37.55.49.22.12.46.18.72.18.29,0,.55-.07.78-.22.24-.14.42-.36.56-.65.13-.28.29-.79.48-1.52.13-.54.25-.88.34-1.02.13-.19.31-.29.53-.29.25,0,.47.11.65.33.19.22.28.56.28,1.02s-.11.81-.32,1.06c-.21.25-.51.41-.9.46l.15.99c.62-.11,1.09-.36,1.4-.77"/>
    <path d="M1091.61,1142.46h-2.31l-.67-.71,2.99-1.95v-1.23l-3.67,2.48-2.17-2.25v1.29l2.38,2.36h-4.6v1h8.06v-1ZM1091.61,1133.68v-1.04c-.22.12-.46.21-.7.25-.25.04-.83.07-1.75.07h-1.32c-.44,0-.74.02-.91.05-.27.06-.5.16-.67.31-.18.15-.33.38-.44.69-.12.31-.18.72-.18,1.23s.07.95.21,1.33c.14.38.34.68.59.88.25.2.59.35,1,.44l.13-.98c-.41-.11-.7-.27-.87-.5-.16-.22-.24-.57-.24-1.04,0-.5.11-.88.33-1.14.17-.19.45-.28.85-.28.04,0,.12,0,.26,0,.13.38.25.97.35,1.78.05.4.09.69.15.89.07.27.18.5.33.72.14.21.33.38.57.52.23.13.49.2.78.2.49,0,.89-.17,1.2-.52.31-.35.47-.84.47-1.49,0-.39-.07-.76-.19-1.1-.13-.34-.35-.7-.66-1.07.27-.03.51-.1.72-.2M1089.04,1133.96c.44,0,.77.05.99.16.29.14.52.36.69.66.17.3.25.64.25,1.02s-.09.69-.26.89c-.18.2-.39.3-.66.3-.17,0-.33-.05-.47-.14-.14-.09-.25-.22-.32-.39-.07-.17-.14-.46-.2-.87-.1-.73-.23-1.27-.37-1.63h.36Z"/>
    <path d="M1090.88,1130.73c.57-.39.86-.94.86-1.64s-.27-1.3-.82-1.8c-.55-.5-1.32-.75-2.32-.75-.42,0-.82.06-1.19.18-.37.12-.68.28-.95.49-.26.21-.47.48-.61.8-.15.32-.22.67-.22,1.03,0,.65.26,1.19.79,1.61h-2.88v1h8.06v-.93h-.73ZM1087.02,1130.26c-.37-.32-.56-.69-.56-1.13s.18-.8.54-1.11c.36-.3.93-.46,1.69-.46s1.3.16,1.68.48c.38.32.56.69.56,1.13,0,.53-.25.96-.76,1.27-.31.19-.82.29-1.52.29s-1.25-.16-1.63-.48"/>
    <path d="M1090.57,819.92c.56-.45.83-1.06.83-1.85,0-.6-.16-1.09-.48-1.48-.32-.39-.76-.68-1.34-.88-.58-.2-1.34-.29-2.29-.29-.8,0-1.43.06-1.9.18-.47.12-.87.29-1.2.5-.33.21-.58.49-.76.81-.17.33-.26.71-.26,1.15,0,.59.15,1.08.47,1.47.31.39.76.69,1.34.88.58.2,1.35.29,2.3.29,1.51,0,2.61-.27,3.28-.8M1084.58,819.18c-.38-.28-.58-.64-.58-1.1s.22-.85.65-1.17,1.32-.47,2.64-.47,2.2.16,2.64.47.66.7.66,1.16-.22.84-.65,1.16c-.44.31-1.32.47-2.64.47s-2.23-.17-2.72-.52M1090.32,666.23c-.18-.11-.36-.25-.53-.42-.18-.17-.52-.55-1.02-1.15-.6-.72-1.07-1.23-1.42-1.54-.35-.31-.67-.53-.98-.66-.31-.13-.63-.2-.95-.2-.63,0-1.17.23-1.6.68-.43.46-.64,1.07-.64,1.86s.2,1.39.59,1.85c.4.46.98.73,1.74.8l.11-1.03c-.51,0-.9-.15-1.19-.44-.29-.29-.43-.68-.43-1.16,0-.46.13-.83.4-1.11.27-.28.6-.43.99-.43s.77.16,1.19.47c.42.31.99.91,1.71,1.79.46.57.87,1.01,1.22,1.31.35.3.71.52,1.07.66.22.08.45.12.69.11v-5.38h-.95v3.99Z"/>
    <path d="M1091.27,660.14h-3.03c-.53,0-.94-.05-1.22-.16-.28-.11-.5-.28-.64-.52-.15-.24-.22-.5-.22-.78,0-.37.11-.64.33-.8.22-.16.55-.24.99-.24h3.79v-1h-3.39c-.6,0-1.04-.14-1.31-.41-.27-.28-.41-.62-.41-1.04,0-.23.06-.43.16-.6.11-.17.25-.29.42-.35.17-.07.46-.1.86-.1h3.68v-1h-4.01c-.66,0-1.16.16-1.48.47-.32.31-.48.76-.48,1.35,0,.75.34,1.35,1.02,1.82-.32.11-.57.31-.75.59-.18.28-.27.64-.27,1.07,0,.39.08.74.26,1.05.17.31.4.55.69.74h-.82v.9h5.84v-1Z"/>
    <path d="M1083.18,741.02v.64c.35.17.71.47,1.08.89.37.42.68.9.94,1.46h.95c-.11-.31-.28-.66-.51-1.05s-.46-.7-.68-.95h6.31v-1h-8.09ZM1091.27,737.09h-3.03c-.53,0-.94-.05-1.22-.16-.28-.11-.5-.28-.64-.52-.15-.24-.22-.5-.22-.78,0-.37.11-.63.33-.8.22-.16.55-.24.99-.24h3.79v-1h-3.39c-.6,0-1.04-.14-1.31-.41-.27-.27-.41-.62-.41-1.03,0-.23.06-.43.16-.6.11-.17.25-.29.42-.35.17-.07.46-.1.86-.1h3.68v-.99h-4.01c-.66,0-1.16.16-1.48.47-.32.31-.48.76-.48,1.35,0,.75.34,1.35,1.02,1.82-.32.11-.57.31-.75.59-.18.28-.27.64-.27,1.07,0,.39.08.74.26,1.05.17.31.4.55.69.74h-.82v.89h5.84v-1Z"/>
    <path d="M1091.27,915.85h-6.86l6.86-2.35v-.97l-6.74-2.36h6.74v-1.04h-8.06v1.45l5.61,1.94c.57.2,1,.34,1.29.44-.26.08-.66.21-1.19.39l-5.71,1.92v1.62h8.06v-1.04ZM1091.27,903.82v-1.04c-.22.13-.46.21-.7.25-.24.04-.83.06-1.74.06h-1.32c-.44,0-.75.02-.91.05-.27.06-.49.16-.67.31-.18.15-.33.38-.44.69-.12.31-.18.72-.18,1.23s.07.95.21,1.34c.14.39.33.68.59.88.25.21.59.35,1,.44l.13-.98c-.41-.11-.7-.27-.87-.49-.16-.22-.24-.57-.24-1.04,0-.5.11-.88.34-1.14.16-.19.45-.28.85-.28.04,0,.12,0,.26,0,.13.38.25.97.34,1.78.05.4.1.69.15.89.07.26.18.5.33.72.14.21.33.38.57.51.23.13.5.2.78.2.49,0,.89-.18,1.2-.52.32-.35.47-.85.47-1.49,0-.39-.07-.76-.19-1.1-.13-.34-.35-.7-.66-1.07.27-.03.51-.1.72-.2M1088.71,904.1c.44,0,.76.06.99.16.29.14.52.36.68.66.17.3.25.64.25,1.03s-.09.68-.26.88c-.18.2-.4.3-.66.3-.17,0-.33-.05-.47-.14-.14-.09-.25-.22-.32-.39-.07-.17-.14-.46-.2-.87-.1-.72-.22-1.27-.37-1.63h.36ZM1084.65,906.19c.2-.2.29-.43.29-.71s-.09-.5-.29-.7c-.19-.2-.43-.29-.71-.29s-.52.1-.71.29c-.2.2-.3.43-.3.7s.1.5.29.7c.2.2.43.3.69.3.29,0,.54-.1.73-.29M1083.51,905.89c-.11-.12-.17-.26-.17-.41s.06-.3.18-.42c.12-.11.26-.17.42-.17s.31.06.42.18c.11.12.18.25.18.42s-.06.29-.18.41c-.12.12-.26.18-.44.18-.16,0-.3-.06-.41-.18"/>
    <rect x="1083.21" y="900.48" width="8.06" height="1"/>
    <path d="M1083.18,892.23v.64c.35.17.71.47,1.08.89.37.42.69.9.94,1.46h.96c-.12-.31-.29-.66-.51-1.05-.23-.39-.46-.71-.69-.95h6.31v-1h-8.09ZM1085.44,889.03h1.13v-1.14h-1.13v1.14ZM1090.15,889.03h1.13v-1.14h-1.13v1.14Z"/>
    <path d="M1090.79,885.74c.41-.47.62-1.07.62-1.81,0-.9-.33-1.61-.98-2.14-.53-.43-1.16-.64-1.89-.64s-1.39.24-1.88.73c-.49.49-.73,1.09-.73,1.8,0,.54.17,1.05.51,1.54l-2.16-.44v-3.25h-.95v4.05l4.14.79.12-.94c-.23-.15-.42-.35-.57-.61-.14-.26-.21-.55-.21-.87,0-.52.16-.94.49-1.26.33-.32.77-.48,1.33-.48s1.07.17,1.43.5c.36.33.54.74.54,1.22,0,.4-.13.74-.38,1.03-.25.28-.63.46-1.14.54l.09,1.05c.68-.07,1.22-.34,1.63-.8M1090.57,879.32c.56-.45.84-1.06.84-1.85,0-.6-.16-1.09-.48-1.48-.32-.39-.76-.68-1.35-.88-.58-.2-1.34-.3-2.29-.3-.8,0-1.43.06-1.9.18-.47.12-.87.29-1.2.51-.33.21-.58.49-.76.82-.17.33-.26.71-.26,1.15,0,.59.16,1.08.47,1.47.31.39.76.68,1.34.88.58.2,1.35.3,2.3.3,1.51,0,2.61-.27,3.27-.81M1084.58,878.59c-.38-.27-.58-.64-.58-1.1s.22-.86.65-1.17c.43-.31,1.32-.47,2.64-.47s2.2.15,2.64.47c.44.31.66.7.66,1.16s-.22.84-.66,1.16c-.44.31-1.32.47-2.64.47s-2.23-.17-2.72-.51"/>
    <polygon class="st12" points="1091.27 528.9 1068.66 517.76 1075.41 503.24 1098.36 514.38 1091.27 528.9"/>
    <polygon points="1088.52 523.15 1077.17 517.66 1092.21 515.54 1093.16 513.57 1078.72 506.58 1077.83 508.42 1089.17 513.91 1074.14 516.03 1073.19 518 1087.63 524.99 1088.52 523.15"/>
    <path d="M1090.78,587.02c.42-.47.64-1.07.64-1.78,0-.79-.25-1.45-.74-1.97-.49-.52-1.09-.77-1.79-.77-.52,0-.95.13-1.3.4-.35.27-.58.64-.69,1.12-.17-.37-.39-.65-.68-.84-.29-.19-.61-.28-.95-.28-.37,0-.71.1-1.04.3-.33.2-.59.49-.77.86-.19.37-.28.78-.28,1.22,0,.64.18,1.18.55,1.62.36.43.88.71,1.54.83l.18-1c-.48-.07-.85-.24-1.09-.5-.24-.26-.36-.58-.36-.97s.12-.71.36-.96.54-.37.9-.37c.46,0,.8.17,1.02.51.22.34.33.72.33,1.15,0,.04,0,.09,0,.16l.87.11c-.07-.28-.11-.52-.11-.7,0-.47.15-.85.44-1.15.3-.3.67-.45,1.13-.45s.88.16,1.2.48c.32.33.49.72.49,1.19,0,.4-.13.73-.37,1.01-.25.27-.65.47-1.21.58l.13,1c.67-.07,1.22-.34,1.64-.81M1091.27,580.48h-3.03c-.53,0-.94-.05-1.22-.16-.28-.1-.5-.28-.64-.52s-.22-.5-.22-.78c0-.37.11-.63.33-.8.22-.16.55-.24.99-.24h3.79v-1h-3.39c-.6,0-1.04-.14-1.31-.41-.27-.27-.41-.62-.41-1.03,0-.23.06-.43.16-.6.11-.17.25-.29.42-.35.17-.07.46-.1.86-.1h3.68v-.99h-4.01c-.66,0-1.16.16-1.48.47-.32.31-.48.76-.48,1.35,0,.75.34,1.35,1.02,1.82-.32.11-.57.31-.75.59-.18.28-.27.64-.27,1.07,0,.39.08.74.26,1.05.17.31.4.55.69.74h-.82v.89h5.84v-1Z"/>
    <rect class="st12" x="8.82" y="1154.34" width="18.9" height="102.27"/>
    <path d="M13.07,1249.31c-.53.61-.8,1.38-.8,2.33,0,1.27.46,2.29,1.38,3.04,1.06.86,2.74,1.29,5.07,1.29,2.08,0,3.57-.39,4.48-1.17.91-.78,1.36-1.79,1.36-3.02,0-.73-.17-1.37-.51-1.94s-.84-1.02-1.49-1.34c-.65-.33-1.35-.49-2.1-.49-1.15,0-2.09.35-2.81,1.04-.72.69-1.09,1.54-1.09,2.52,0,.56.13,1.1.39,1.62.26.52.66.95,1.21,1.31-1.2-.01-2.13-.15-2.78-.42-.65-.27-1.15-.63-1.48-1.1-.26-.36-.39-.77-.39-1.24,0-.59.21-1.08.63-1.48.26-.24.68-.43,1.27-.56l-.12-1.47c-.93.12-1.67.49-2.2,1.09M18.57,1253.57c-.48-.47-.72-1.04-.72-1.7s.24-1.23.72-1.68c.48-.45,1.13-.66,1.96-.66s1.55.22,2.05.67c.5.45.76.99.76,1.61,0,.43-.12.84-.37,1.23-.24.39-.59.69-1.06.91-.47.22-.95.32-1.46.32-.78,0-1.4-.23-1.88-.7M22.67,1245.62h1.68v-1.69h-1.68v1.69ZM22.64,1240.96c.64-.42,1.11-1,1.43-1.73.32-.74.47-1.65.47-2.75,0-.86-.16-1.63-.47-2.33-.31-.69-.75-1.22-1.32-1.58-.56-.37-1.17-.55-1.81-.55s-1.22.17-1.71.5c-.49.34-.9.85-1.22,1.56-.22.48-.48,1.37-.77,2.67-.29,1.3-.58,2.1-.86,2.41-.28.31-.63.47-1.06.47-.5,0-.92-.22-1.28-.66-.35-.44-.53-1.15-.53-2.11s.19-1.63.58-2.1c.39-.47.96-.75,1.72-.84l-.12-1.53c-.71.03-1.34.23-1.89.59-.56.37-.98.89-1.27,1.58-.29.68-.43,1.47-.43,2.37,0,.81.14,1.55.41,2.21.27.67.67,1.17,1.2,1.52.53.35,1.09.52,1.7.52.56,0,1.05-.14,1.5-.42.45-.28.82-.71,1.12-1.29.23-.44.49-1.22.75-2.33.27-1.11.46-1.83.59-2.15.19-.51.43-.87.71-1.09.28-.22.61-.33.99-.33s.72.11,1.03.34.56.57.74,1.04c.18.47.27,1.01.27,1.61,0,.69-.12,1.3-.36,1.85-.24.55-.55.95-.93,1.21-.39.26-.88.43-1.48.5l.13,1.51c.8-.02,1.53-.24,2.16-.66M24.35,1223.94v-1.55c-.33.19-.68.31-1.05.38-.36.06-1.23.09-2.6.09h-1.97c-.66,0-1.11.03-1.36.07-.41.09-.74.24-1.01.46-.27.22-.49.56-.66,1.03-.17.47-.27,1.07-.27,1.82s.1,1.41.31,1.99c.21.57.5,1.01.88,1.31.38.3.88.52,1.5.65l.19-1.45c-.62-.16-1.05-.4-1.29-.74-.24-.33-.36-.84-.36-1.54,0-.75.16-1.31.5-1.69.24-.28.67-.42,1.27-.42.05,0,.18,0,.38,0,.19.56.37,1.45.51,2.64.07.59.15,1.02.22,1.32.11.4.27.75.48,1.07.21.31.5.57.85.76.35.2.74.29,1.17.29.73,0,1.33-.26,1.8-.77.46-.52.7-1.25.7-2.21,0-.58-.1-1.13-.29-1.63-.19-.51-.52-1.04-.98-1.59.41-.05.77-.14,1.08-.3M20.52,1224.36c.65,0,1.14.08,1.48.24.43.21.77.53,1.02.98.25.45.37.95.37,1.53s-.13,1.01-.39,1.31c-.26.3-.59.45-.99.45-.26,0-.49-.07-.7-.21-.21-.14-.37-.33-.48-.59-.11-.25-.21-.68-.3-1.29-.15-1.08-.34-1.88-.56-2.42h.54ZM12.32,1220.52h12.03v-1.48h-12.03v1.48ZM15.64,1216.24h1.68v-1.69h-1.68v1.69ZM22.67,1216.24h1.68v-1.69h-1.68v1.69ZM13.07,1200.94c-.53.6-.8,1.38-.8,2.33,0,1.27.46,2.29,1.38,3.04,1.06.86,2.74,1.29,5.07,1.29,2.08,0,3.57-.39,4.48-1.17.91-.78,1.36-1.78,1.36-3.02,0-.73-.17-1.37-.51-1.94-.35-.57-.84-1.02-1.49-1.35-.65-.33-1.35-.49-2.1-.49-1.15,0-2.09.35-2.81,1.04-.72.69-1.09,1.53-1.09,2.52,0,.57.13,1.11.39,1.62.26.51.66.95,1.21,1.31-1.2,0-2.13-.15-2.78-.42-.65-.27-1.15-.64-1.48-1.11-.26-.35-.39-.77-.39-1.24,0-.59.21-1.08.63-1.48.26-.24.68-.43,1.27-.56l-.12-1.48c-.93.12-1.67.49-2.2,1.09M18.57,1205.19c-.48-.46-.72-1.03-.72-1.7s.24-1.23.72-1.68c.48-.44,1.13-.66,1.96-.66s1.55.22,2.05.67c.5.45.76.99.76,1.61,0,.43-.12.84-.37,1.23-.24.39-.59.69-1.06.91-.47.22-.95.33-1.46.33-.78,0-1.4-.23-1.88-.7M22.67,1197.24h1.68v-1.69h-1.68v1.69ZM24.35,1188.17c0-.77-.07-1.42-.2-1.95-.14-.53-.33-.97-.59-1.32-.26-.35-.64-.65-1.12-.88-.49-.24-1.01-.36-1.57-.36-.7,0-1.31.2-1.82.59-.51.39-.88.95-1.09,1.68-.28-.57-.64-.99-1.1-1.27-.46-.28-.94-.42-1.45-.42-.55,0-1.08.16-1.59.48-.51.31-.88.75-1.13,1.31-.24.56-.36,1.3-.36,2.22v4.52h12.03v-4.6ZM13.74,1191.17v-2.41c0-.87.06-1.48.17-1.84.11-.35.32-.63.62-.82.31-.19.66-.29,1.05-.29.42,0,.77.1,1.05.31.28.21.48.51.6.92.09.31.14.82.14,1.52v2.61h-3.63ZM18.79,1191.17v-2.79c0-.77.07-1.36.2-1.77.13-.41.37-.73.7-.96.33-.23.72-.35,1.17-.35.38,0,.72.08,1.01.24.29.16.52.36.67.61.15.25.26.56.33.92.04.21.06.57.06,1.09v3h-4.13ZM22.67,1181.15h1.68v-1.69h-1.68v1.69ZM13.07,1170.62c-.53.61-.8,1.39-.8,2.33,0,1.27.46,2.28,1.38,3.04,1.06.86,2.74,1.29,5.07,1.29,2.08,0,3.57-.39,4.48-1.17.91-.78,1.36-1.79,1.36-3.02,0-.73-.17-1.37-.51-1.94-.35-.57-.84-1.02-1.49-1.35-.65-.33-1.35-.49-2.1-.49-1.15,0-2.09.35-2.81,1.04-.72.69-1.09,1.53-1.09,2.52,0,.57.13,1.11.39,1.62.26.52.66.95,1.21,1.31-1.2-.01-2.13-.15-2.78-.42-.65-.27-1.15-.64-1.48-1.1-.26-.36-.39-.77-.39-1.25,0-.59.21-1.08.63-1.48.26-.24.68-.43,1.27-.56l-.12-1.47c-.93.12-1.67.49-2.2,1.09M18.57,1174.87c-.48-.46-.72-1.03-.72-1.7s.24-1.24.72-1.68c.48-.44,1.13-.67,1.96-.67s1.55.23,2.05.67c.5.45.76.99.76,1.61,0,.43-.12.84-.37,1.23-.24.39-.59.69-1.06.91-.47.21-.95.32-1.46.32-.78,0-1.4-.23-1.88-.7M22.67,1166.92h1.68v-1.69h-1.68v1.69ZM12.27,1157.41v.96c.52.26,1.06.69,1.61,1.32.55.62,1.02,1.34,1.41,2.17h1.43c-.17-.46-.42-.98-.76-1.56-.34-.58-.68-1.05-1.01-1.4h9.41v-1.48h-12.08Z"/>
    <rect class="st12" x="30.76" y="1154.34" width="18.9" height="102.27"/>
    <path d="M35.84,1249.9c.85.75,1.9,1.46,3.14,2.13,1.24.66,2.53,1.18,3.88,1.54,1.34.36,2.48.54,3.43.56v-1.52c-1.2-.09-2.3-.27-3.3-.57-1.43-.41-2.82-.99-4.17-1.75-1.35-.76-2.43-1.52-3.25-2.29h-1.15v7.81h1.42v-5.91ZM44.61,1245.62h1.68v-1.69h-1.68v1.69ZM44.58,1240.96c.64-.42,1.12-1,1.43-1.73.32-.74.47-1.65.47-2.75,0-.86-.16-1.63-.47-2.33-.31-.69-.75-1.22-1.32-1.58-.56-.37-1.17-.55-1.81-.55s-1.22.17-1.71.5c-.49.34-.9.85-1.22,1.56-.22.48-.48,1.37-.77,2.67-.29,1.3-.58,2.1-.86,2.41-.28.31-.63.47-1.06.47-.5,0-.92-.22-1.28-.66-.35-.44-.53-1.15-.53-2.11s.19-1.63.58-2.1c.39-.47.96-.75,1.72-.84l-.12-1.53c-.71.03-1.34.23-1.89.59-.56.37-.98.89-1.27,1.58-.29.68-.43,1.47-.43,2.37,0,.81.14,1.55.41,2.21.27.67.67,1.17,1.2,1.52.53.35,1.09.52,1.7.52.56,0,1.05-.14,1.5-.42.45-.28.82-.71,1.12-1.29.23-.44.49-1.22.75-2.33.27-1.11.46-1.83.59-2.15.19-.51.43-.87.71-1.09.28-.22.61-.33.99-.33s.72.11,1.03.34.56.57.74,1.04c.18.47.27,1.01.27,1.61,0,.69-.12,1.3-.36,1.85-.24.55-.55.95-.94,1.21-.38.26-.88.43-1.48.5l.13,1.51c.8-.02,1.53-.24,2.16-.66M46.29,1223.94v-1.55c-.33.19-.68.31-1.04.38-.36.06-1.23.09-2.6.09h-1.97c-.66,0-1.11.03-1.36.07-.4.09-.74.24-1,.46-.27.22-.49.56-.66,1.03-.18.47-.27,1.07-.27,1.82s.1,1.41.31,1.99c.21.57.5,1.01.88,1.31.38.3.88.52,1.5.65l.19-1.45c-.62-.16-1.05-.4-1.29-.74-.24-.33-.36-.84-.36-1.54,0-.75.16-1.31.5-1.69.24-.28.67-.42,1.27-.42.05,0,.18,0,.38,0,.19.56.37,1.45.51,2.64.07.59.15,1.02.22,1.32.11.4.27.75.48,1.07.21.31.5.57.85.76.35.2.74.29,1.17.29.73,0,1.32-.26,1.8-.77.46-.52.7-1.25.7-2.21,0-.58-.1-1.13-.29-1.63-.19-.51-.52-1.04-.98-1.59.41-.05.77-.14,1.07-.3M42.46,1224.36c.65,0,1.14.08,1.48.24.43.21.77.53,1.02.98.25.45.37.95.37,1.53s-.13,1.01-.39,1.31c-.26.3-.59.45-.99.45-.26,0-.49-.07-.7-.21-.21-.14-.37-.33-.48-.59-.11-.25-.21-.68-.3-1.29-.15-1.08-.34-1.88-.56-2.42h.54ZM34.26,1220.52h12.03v-1.48h-12.03v1.48ZM37.58,1216.24h1.68v-1.69h-1.68v1.69ZM44.61,1216.24h1.68v-1.69h-1.68v1.69ZM35.01,1200.94c-.53.6-.8,1.38-.8,2.33,0,1.27.46,2.29,1.38,3.04,1.06.86,2.74,1.29,5.07,1.29,2.08,0,3.57-.39,4.48-1.17.91-.78,1.36-1.78,1.36-3.02,0-.73-.17-1.37-.51-1.94-.35-.57-.84-1.02-1.49-1.35-.65-.33-1.35-.49-2.1-.49-1.15,0-2.08.35-2.81,1.04-.72.69-1.09,1.53-1.09,2.52,0,.57.13,1.11.39,1.62.26.51.66.95,1.2,1.31-1.2,0-2.13-.15-2.78-.42-.65-.27-1.15-.64-1.48-1.11-.26-.35-.39-.77-.39-1.24,0-.59.21-1.08.63-1.48.26-.24.68-.43,1.26-.56l-.11-1.48c-.94.12-1.67.49-2.2,1.09M40.51,1205.19c-.48-.46-.72-1.03-.72-1.7s.24-1.23.72-1.68c.48-.44,1.13-.66,1.96-.66s1.55.22,2.05.67c.5.45.75.99.75,1.61,0,.43-.12.84-.37,1.23-.24.39-.59.69-1.06.91-.47.22-.95.33-1.46.33-.78,0-1.41-.23-1.88-.7M44.61,1197.24h1.68v-1.69h-1.68v1.69ZM46.29,1188.17c0-.77-.06-1.42-.2-1.95-.14-.53-.33-.97-.59-1.32-.26-.35-.64-.65-1.12-.88-.49-.24-1.01-.36-1.57-.36-.7,0-1.31.2-1.82.59-.51.39-.88.95-1.09,1.68-.28-.57-.64-.99-1.1-1.27-.46-.28-.94-.42-1.45-.42-.55,0-1.08.16-1.59.48-.51.31-.88.75-1.13,1.31-.24.56-.36,1.3-.36,2.22v4.52h12.02v-4.6ZM35.68,1191.17v-2.41c0-.87.06-1.48.17-1.84.11-.35.32-.63.62-.82.31-.19.66-.29,1.05-.29.42,0,.77.1,1.05.31.28.21.48.51.6.92.09.31.14.82.14,1.52v2.61h-3.63ZM40.73,1191.17v-2.79c0-.77.07-1.36.2-1.77.13-.41.37-.73.7-.96.33-.23.72-.35,1.17-.35.38,0,.72.08,1.01.24.29.16.52.36.67.61.16.25.27.56.33.92.04.21.05.57.05,1.09v3h-4.13ZM44.61,1181.15h1.68v-1.69h-1.68v1.69ZM35.84,1171.2c.85.75,1.9,1.46,3.14,2.13,1.24.67,2.53,1.18,3.88,1.53,1.34.36,2.48.54,3.43.56v-1.52c-1.2-.08-2.3-.27-3.3-.57-1.43-.41-2.82-1-4.17-1.75-1.35-.75-2.43-1.51-3.25-2.28h-1.15v7.81h1.42v-5.91ZM44.61,1166.92h1.68v-1.69h-1.68v1.69ZM34.21,1157.41v.96c.52.26,1.06.69,1.61,1.32.55.62,1.02,1.34,1.41,2.17h1.43c-.17-.46-.42-.98-.76-1.56-.34-.58-.68-1.05-1.01-1.4h9.41v-1.48h-12.07Z"/>
    <line class="st3" x1="350.06" y1="887.69" x2="350.06" y2="939.67"/>
    <line class="st3" x1="469.88" y1="887.69" x2="350.06" y2="939.67"/>
  </g>
</svg>