<?xml version="1.0" encoding="UTF-8"?>
<svg id="Lag_1" xmlns="http://www.w3.org/2000/svg" version="1.1" viewBox="0 0 1200 1697.14">
  <!-- Generator: Adobe Illustrator 29.6.0, SVG Export Plug-In . SVG Version: 2.1.1 Build 207)  -->
  <defs>
    <style>
      .st0 {
        fill: #000016;
      }

      .st1 {
        stroke-dasharray: .06 .43;
      }

      .st1, .st2, .st3, .st4, .st5, .st6, .st7, .st8, .st9, .st10 {
        stroke-width: .18px;
      }

      .st1, .st2, .st3, .st5, .st6, .st8, .st9, .st10 {
        stroke-linejoin: round;
      }

      .st1, .st2, .st3, .st5, .st8, .st9 {
        stroke-linecap: round;
      }

      .st1, .st3, .st5, .st6, .st7, .st8, .st9, .st10 {
        stroke: #000;
      }

      .st1, .st3, .st5, .st6, .st8 {
        fill: none;
      }

      .st2, .st4 {
        stroke: #060305;
      }

      .st2, .st4, .st7, .st9, .st10 {
        fill: #fff;
      }

      .st11 {
        fill: #e8e3e0;
      }

      .st4, .st7 {
        stroke-miterlimit: 10;
      }

      .st5 {
        stroke-dasharray: .06 .43;
      }

      .st8 {
        stroke-dasharray: .06 .42;
      }
    </style>
  </defs>
  <polygon class="st11" points="632.31 726.17 632.31 695.04 538.69 695.04 538.69 891.38 551.54 891.38 551.54 994.29 660.42 994.29 660.42 726.17 632.31 726.17"/>
  <g>
    <path class="st3" d="M594.29,996.58s0,.02,0,.03"/>
    <path class="st5" d="M594.26,997.02c-.32,2.68-3.07,10.29-3.79,10.29l-19.33-10.99-.22-.13"/>
    <line class="st3" x1="570.73" y1="996.08" x2="570.7" y2="996.06"/>
  </g>
  <g>
    <path class="st3" d="M536.5,842.76s-.02,0-.03,0"/>
    <path class="st8" d="M536.05,842.73c-2.58-.32-9.82-2.93-9.82-3.61l10.51-18.42.12-.2"/>
    <line class="st3" x1="536.98" y1="820.31" x2="536.99" y2="820.29"/>
  </g>
  <rect class="st10" x="640.94" y="798.99" width="17.45" height="21"/>
  <rect class="st10" x="622.53" y="798.99" width="17.52" height="21"/>
  <rect class="st10" x="604.18" y="798.99" width="17.54" height="21"/>
  <polygon class="st10" points="658.45 738.87 634.39 738.87 634.32 728.11 658.45 728.08 658.45 738.87"/>
  <line class="st3" x1="658.39" y1="799.18" x2="656.91" y2="799.18"/>
  <line class="st3" x1="654.99" y1="799.18" x2="653.73" y2="799.18"/>
  <line class="st3" x1="651.88" y1="799.18" x2="650.62" y2="799.18"/>
  <line class="st3" x1="648.7" y1="799.18" x2="647.45" y2="799.18"/>
  <line class="st3" x1="645.6" y1="799.18" x2="644.34" y2="799.18"/>
  <line class="st3" x1="658.39" y1="816.55" x2="658.39" y2="815.3"/>
  <line class="st3" x1="658.39" y1="813.37" x2="658.39" y2="812.12"/>
  <line class="st3" x1="658.39" y1="810.27" x2="658.39" y2="809.01"/>
  <line class="st3" x1="658.39" y1="807.09" x2="658.39" y2="805.83"/>
  <line class="st3" x1="658.39" y1="803.98" x2="658.39" y2="802.73"/>
  <line class="st3" x1="658.39" y1="800.8" x2="658.39" y2="799.18"/>
  <line class="st3" x1="621.72" y1="799.18" x2="620.24" y2="799.18"/>
  <line class="st3" x1="618.32" y1="799.18" x2="617.06" y2="799.18"/>
  <line class="st3" x1="615.21" y1="799.18" x2="613.95" y2="799.18"/>
  <line class="st3" x1="612.03" y1="799.18" x2="610.77" y2="799.18"/>
  <line class="st3" x1="608.85" y1="799.18" x2="607.6" y2="799.18"/>
  <line class="st3" x1="640.05" y1="799.18" x2="638.57" y2="799.18"/>
  <line class="st3" x1="636.65" y1="799.18" x2="635.39" y2="799.18"/>
  <line class="st3" x1="633.55" y1="799.18" x2="632.29" y2="799.18"/>
  <line class="st3" x1="630.37" y1="799.18" x2="629.11" y2="799.18"/>
  <line class="st3" x1="627.26" y1="799.18" x2="626.01" y2="799.18"/>
  <line class="st3" x1="606.34" y1="751.64" x2="578.02" y2="751.64"/>
  <path class="st3" d="M578.02,751.6c0,15.62,12.66,28.28,28.28,28.28"/>
  <line class="st3" x1="606.34" y1="779.96" x2="606.34" y2="751.64"/>
  <line class="st3" x1="561.83" y1="695.08" x2="561.83" y2="723.32"/>
  <path class="st3" d="M561.79,723.32c15.62,0,28.28-12.66,28.28-28.28"/>
  <line class="st3" x1="590.07" y1="695.08" x2="561.83" y2="695.08"/>
  <polyline class="st9" points="609.3 741.51 630.29 741.51 630.29 699.59 609.3 699.59 609.3 741.51"/>
  <polyline class="st3" points="630.29 729.31 609.3 729.31 609.3 741.51 630.29 741.51 630.29 729.31"/>
  <line class="st3" x1="627.85" y1="735.23" x2="622.23" y2="735.23"/>
  <line class="st3" x1="617.35" y1="735.23" x2="611.74" y2="735.23"/>
  <line class="st3" x1="614.55" y1="732.42" x2="614.55" y2="738.04"/>
  <line class="st3" x1="625.04" y1="732.42" x2="625.04" y2="738.04"/>
  <polyline class="st3" points="612.77 703.07 626.74 703.07 626.74 717.04 612.77 717.04 612.77 703.07"/>
  <polyline class="st3" points="630.29 720.59 630.29 699.59 609.3 699.59 609.3 720.59 630.29 720.59"/>
  <line class="st3" x1="628.67" y1="710.09" x2="623.12" y2="710.09"/>
  <polyline class="st9" points="536.99 820.25 536.92 842.95 539.58 842.95 539.58 820.25 536.99 820.25"/>
  <polyline class="st9" points="536.92 844.65 542.17 844.65 542.17 846.42 536.92 846.42 536.92 844.65"/>
  <polyline class="st9" points="536.84 877.84 542.09 877.84 542.09 879.62 536.84 879.62 536.84 877.84"/>
  <polyline class="st9" points="536.92 846.42 536.84 877.84 538.62 877.84 538.69 846.42 536.92 846.42"/>
  <polyline class="st9" points="536.99 818.47 542.17 818.47 542.17 820.25 536.99 820.25 536.99 818.47"/>
  <polyline class="st9" points="536.92 842.95 542.17 842.95 542.17 844.65 536.92 844.65 536.92 842.95"/>
  <line class="st3" x1="535.81" y1="879.62" x2="535.88" y2="818.47"/>
  <polyline class="st9" points="646.48 996.06 646.48 990.81 648.26 990.81 648.26 996.06 646.48 996.06"/>
  <polyline class="st9" points="595.99 996.06 646.48 996.06 646.48 994.29 595.99 994.29 595.99 996.06"/>
  <polyline class="st9" points="570.7 996.06 594.29 996.06 594.29 993.4 570.7 993.4 570.7 996.06"/>
  <polyline class="st9" points="568.93 996.06 568.93 990.81 570.7 990.81 570.7 996.06 568.93 996.06"/>
  <polyline class="st9" points="594.29 996.06 594.29 990.81 595.99 990.81 595.99 996.06 594.29 996.06"/>
  <line class="st3" x1="648.26" y1="997.1" x2="568.93" y2="997.1"/>
  <path class="st10" d="M642.28,786.77c0,.96.78,1.74,1.74,1.74s1.74-.78,1.74-1.74c0-.96-.78-1.74-1.74-1.74s-1.74.78-1.74,1.74"/>
  <path class="st7" d="M640.19,738.87v10.15c0,3.91,2.81,7.07,6.28,7.07,3.47,0,6.28-3.16,6.28-7.07v-10.15s-12.56,0-12.56,0Z"/>
  <path class="st10" d="M628.12,794.74v-9.21c0-.2-.13-.37-.3-.37h-16.78c-.2,0-.37.17-.37.37v9.21"/>
  <path class="st6" d="M618.73,793.04c0-.35.28-.63.63-.63s.63.28.63.63c0,.35-.28.63-.63.63s-.63-.28-.63-.63"/>
  <path class="st6" d="M618.59,788.6c0-.43.35-.78.78-.78s.78.35.78.78-.35.78-.78.78-.78-.35-.78-.78"/>
  <path class="st6" d="M618.22,788.6c0-.63.51-1.15,1.15-1.15s1.15.51,1.15,1.15-.51,1.15-1.15,1.15-1.15-.51-1.15-1.15"/>
  <path class="st6" d="M611.41,785.54h15.97c.2,0,.37.17.37.37v5.4c0,.2-.16.37-.37.37h-15.97c-.2,0-.37-.17-.37-.37v-5.4c0-.2.16-.37.37-.37Z"/>
  <g>
    <polyline class="st3" points="630.01 766.58 630.01 766.55 630.04 766.55"/>
    <line class="st1" x1="630.46" y1="766.55" x2="657.71" y2="766.55"/>
    <polyline class="st3" points="657.93 766.55 657.95 766.55 657.95 766.58"/>
    <line class="st1" x1="657.95" y1="767.01" x2="657.95" y2="794.26"/>
    <polyline class="st3" points="657.95 794.47 657.95 794.5 657.93 794.5"/>
    <line class="st1" x1="657.5" y1="794.5" x2="630.25" y2="794.5"/>
    <polyline class="st3" points="630.04 794.5 630.01 794.5 630.01 794.47"/>
    <line class="st1" x1="630.01" y1="794.05" x2="630.01" y2="766.8"/>
  </g>
  <line class="st6" x1="643.98" y1="794.5" x2="643.98" y2="786.74"/>
  <line class="st6" x1="634.37" y1="723.89" x2="663.5" y2="698.39"/>
  <line class="st6" x1="663.5" y1="723.89" x2="634.37" y2="698.39"/>
  <polygon class="st0" points="558.58 693.31 558.58 689.83 538.54 689.83 538.54 697.96 536.1 697.96 536.03 725.91 538.47 725.91 538.39 788.75 535.95 788.75 535.88 818.47 558.5 818.47 558.57 698.1 558.8 698.56 560.06 698.56 560.06 693.31 558.58 693.31"/>
  <path class="st0" d="M544.53,908.75v82.73h2.66-.05c-.26,1.14-.57,2.25-.95,3.33h.04s4.73,2.28,4.73,2.28h17.97v-23.36h-10.57l.07-94.12h-22.62v17.23l-.06-.03c3.82,3.2,6.81,7.27,8.72,11.87"/>
  <g>
    <g>
      <path class="st9" d="M653.63,862.27c0-4.55-3.93-8.24-8.77-8.24-3.57,0-7.1,2.33-8.31,5.62-.17.45-.5,1.39-.46,2.63.15,3.87,4.01,8.24,8.77,8.24s8.77-3.69,8.77-8.24Z"/>
      <path class="st3" d="M637.25,860.42c0-2.8,3.41-5.06,7.61-5.06"/>
      <path class="st3" d="M652.47,860.42c0-2.8-3.41-5.06-7.61-5.06"/>
      <path class="st3" d="M652.47,860.42c0,.55.44,1,.98,1"/>
      <path class="st3" d="M637.25,860.42c0,.55-.44,1-.98,1"/>
      <g>
        <path class="st9" d="M632.03,862.27c0-4.55-3.93-8.24-8.77-8.24-3.57,0-7.1,2.33-8.31,5.62-.17.45-.5,1.39-.46,2.63.15,3.87,4.01,8.24,8.77,8.24s8.77-3.69,8.77-8.24Z"/>
        <path class="st3" d="M615.65,860.42c0-2.8,3.41-5.06,7.61-5.06"/>
        <path class="st3" d="M630.87,860.42c0-2.8-3.41-5.06-7.61-5.06"/>
        <path class="st3" d="M630.87,860.42c0,.55.44,1,.98,1"/>
        <path class="st3" d="M615.65,860.42c0,.55-.47,1-1.06,1"/>
      </g>
    </g>
    <g>
      <path class="st9" d="M653.63,889.42c0,4.55-3.93,8.24-8.77,8.24-3.57,0-7.1-2.33-8.31-5.62-.17-.45-.5-1.39-.46-2.63.15-3.87,4.01-8.24,8.77-8.24s8.77,3.69,8.77,8.24Z"/>
      <path class="st3" d="M637.25,891.27c0,2.8,3.41,5.06,7.61,5.06"/>
      <path class="st3" d="M652.47,891.27c0,2.8-3.41,5.06-7.61,5.06"/>
      <path class="st3" d="M652.47,891.27c0-.55.44-1,.98-1"/>
      <path class="st3" d="M637.25,891.27c0-.55-.44-1-.98-1"/>
      <g>
        <path class="st9" d="M632.03,889.42c0,4.55-3.93,8.24-8.77,8.24-3.57,0-7.1-2.33-8.31-5.62-.17-.45-.5-1.39-.46-2.63.15-3.87,4.01-8.24,8.77-8.24s8.77,3.69,8.77,8.24Z"/>
        <path class="st3" d="M615.65,891.27c0,2.8,3.41,5.06,7.61,5.06"/>
        <path class="st3" d="M630.87,891.27c0,2.8-3.41,5.06-7.61,5.06"/>
        <path class="st3" d="M630.87,891.27c0-.55.44-1,.98-1"/>
        <path class="st3" d="M615.65,891.27c0-.55-.47-1-1.06-1"/>
      </g>
    </g>
    <rect class="st9" x="622.66" y="853.2" width="22.81" height="44.7" transform="translate(-241.49 1509.61) rotate(-90)"/>
  </g>
  <g>
    <rect class="st2" x="540.85" y="920.86" width="70.16" height="31.57" transform="translate(1512.58 360.72) rotate(90)"/>
    <rect class="st2" x="567.16" y="946.56" width="17.54" height="17.54" rx="1.42" ry="1.42" transform="translate(1151.86 1910.66) rotate(-180)"/>
    <polygon class="st2" points="559.74 962.55 559.74 901.38 591.71 901.38 591.71 946.73 559.74 962.55"/>
  </g>
  <g>
    <path class="st2" d="M648.23,965.36c-5.24-3.67-10.47-7.33-15.71-11-.27-.1-.59.02-.78.29-5.21,5.66-9.59,12.09-12.95,18.99-.06.11-.04.24.05.32.49.34.98.69,1.46,1.03l14.11,9.95,13.82-19.58"/>
    <path class="st2" d="M649.25,966.32c-.45-.4-.93-.75-1.45-1.04-.1-.05-.24,0-.32.1-4.57,6.16-9.02,12.4-13.37,18.72-.09.17-.06.37.07.47.5.42,1.04.79,1.62,1.1"/>
    <path class="st2" d="M645.79,964.82c.27-.38,1.39-.05,2.51.74.09.07.17.13.26.2l.7.56c.08.08.09.22,0,.33l-13.45,19.06-1.62-1.14c-.52-.38-1.04-.77-1.57-1.15-.18-.22-.18-.56.01-.83,3.38-6.6,7.85-12.63,13.16-17.77Z"/>
    <path class="st2" d="M646.89,965.42c-.28-.07-.55-.15-.81-.25-.33-.06-.66-.15-.98-.25-.44-.14-.88-.27-1.32-.4-.61-.18-1.19-.41-1.75-.7-.34-.17-.68-.36-1.01-.56-.35-.21-.7-.42-1.04-.64-.82-.52-1.61-1.07-2.37-1.68-.77-.61-1.48-1.27-2.14-2.01-.5-.55-.93-1.14-1.32-1.79-.24-.41-.35-.83-.34-1.34,0-.04.01-.08.04-.12l.24-.34c.1-.07.19-.09.3-.07,5.04,3.56,10.09,7.12,15.13,10.68.09.06.1.2.03.3l-.07.11h0c-.08.1-.21.14-.3.08-.23-.12-.46-.24-.69-.36-.29-.18-.59-.33-.91-.46l-.67-.22Z"/>
    <path class="st2" d="M633.94,983.77c-.16-.24-.33-.47-.51-.68-.17-.29-.36-.57-.56-.84-.27-.37-.55-.74-.82-1.11-.37-.51-.79-.98-1.24-1.41-.28-.26-.57-.52-.87-.76-.32-.26-.63-.51-.95-.77-.76-.6-1.55-1.16-2.37-1.68-.83-.52-1.7-.97-2.61-1.34-.69-.28-1.39-.5-2.13-.64-.47-.09-.9-.05-1.38.12-.04.02-.07.04-.1.08l-.24.34c-.03.12-.02.21.03.3,5.04,3.56,10.09,7.12,15.13,10.68.09.06.22.03.3-.07l.07-.11h0c.07-.11.06-.24-.02-.31-.19-.18-.38-.35-.57-.53-.27-.21-.51-.45-.74-.71l-.43-.56Z"/>
  </g>
  <circle class="st4" cx="646.37" cy="951.76" r="6.97"/>
  <g>
    <polyline class="st10" points="658.49 962.43 657.15 962.43 657.15 946.72 658.49 946.72"/>
    <polyline class="st10" points="657.15 945.83 657.15 963.4 655.74 963.4 655.74 945.83 657.15 945.83"/>
  </g>
  <polygon class="st0" points="663.64 973.73 663.64 724.06 658.39 724.06 634.43 724.06 634.43 698.56 650.55 698.56 650.55 693.31 591.85 693.31 591.85 698.56 630.29 698.56 630.29 742.18 604.27 742.18 604.27 749.86 608.41 749.86 608.41 746.39 634.43 746.39 634.43 728.28 658.39 728.28 658.39 794.96 608.41 794.96 608.41 781.66 604.27 781.66 604.27 799.18 658.39 799.18 658.39 973.73 648.26 973.73 648.26 997.1 673.77 997.1 673.77 973.73 663.64 973.73"/>
</svg>