<?xml version="1.0" encoding="UTF-8"?>
<svg id="Lag_1" xmlns="http://www.w3.org/2000/svg" version="1.1" viewBox="0 0 1200 1697.14">
  <!-- Generator: Adobe Illustrator 29.6.0, SVG Export Plug-In . SVG Version: 2.1.1 Build 207)  -->
  <defs>
    <style>
      .st0 {
        fill: #000016;
      }

      .st1 {
        stroke-dasharray: .06 .42;
      }

      .st1, .st2, .st3, .st4, .st5, .st6, .st7, .st8, .st9, .st10 {
        stroke-width: .18px;
      }

      .st1, .st2, .st3, .st4, .st5, .st8, .st9, .st10 {
        stroke-linecap: round;
      }

      .st1, .st2, .st3, .st4, .st7, .st8, .st9, .st10 {
        stroke-linejoin: round;
      }

      .st1, .st3, .st4, .st5, .st8, .st10 {
        fill: none;
      }

      .st1, .st3, .st4, .st6, .st8, .st9 {
        stroke: #000;
      }

      .st2, .st6, .st7, .st9 {
        fill: #fff;
      }

      .st2, .st7 {
        stroke: #060305;
      }

      .st11 {
        fill: #e8e3e0;
      }

      .st4 {
        stroke-dasharray: .06 .43;
      }

      .st5 {
        stroke: #979899;
      }

      .st5, .st6 {
        stroke-miterlimit: 10;
      }

      .st12 {
        fill: #979899;
      }

      .st13 {
        fill: #dbd7d5;
      }

      .st8 {
        stroke-dasharray: .06 .43;
      }

      .st10 {
        stroke: #747675;
      }
    </style>
  </defs>
  <polygon class="st11" points="629.97 952.65 658.64 952.65 658.64 713.24 628.21 713.24 628.21 693.64 554.81 693.64 554.81 1015.4 629.97 1015.4 629.97 952.65"/>
  <line class="st3" x1="655.45" y1="954.38" x2="631.31" y2="1011.94"/>
  <line class="st3" x1="631.31" y1="954.38" x2="655.45" y2="1011.94"/>
  <rect class="st13" x="554.74" y="878.42" width="101.38" height="57.56"/>
  <rect class="st9" x="637.79" y="857.23" width="17.64" height="21.23"/>
  <rect class="st9" x="619.18" y="857.23" width="17.72" height="21.23"/>
  <rect class="st9" x="600.63" y="857.23" width="17.73" height="21.23"/>
  <polyline class="st9" points="589.65 691.84 589.65 697.15 591.37 697.15 591.37 691.84 589.65 691.84"/>
  <polyline class="st9" points="601.98 691.84 601.98 697.15 603.77 697.15 603.77 691.84 601.98 691.84"/>
  <polyline class="st9" points="591.37 691.84 601.98 691.84 601.98 693.64 591.37 693.64 591.37 691.84"/>
  <polyline class="st9" points="564.9 691.84 564.9 697.15 566.7 697.15 566.7 691.84 564.9 691.84"/>
  <polyline class="st9" points="587.85 691.84 587.85 697.15 589.65 697.15 589.65 691.84 587.85 691.84"/>
  <polyline class="st9" points="587.85 691.84 566.7 691.84 566.7 693.64 587.85 693.64 587.85 691.84"/>
  <path class="st9" d="M624.89,882.74v9.31c0,.21-.13.37-.3.37h-16.97c-.21,0-.37-.17-.37-.37v-9.31"/>
  <path class="st3" d="M615.4,884.46c0,.35.28.64.64.64s.64-.28.64-.64-.28-.64-.64-.64-.64.28-.64.64"/>
  <path class="st3" d="M615.25,888.94c0,.43.35.78.78.78s.78-.35.78-.78-.35-.78-.78-.78-.78.35-.78.78"/>
  <path class="st3" d="M614.88,888.94c0,.64.52,1.16,1.16,1.16s1.16-.52,1.16-1.16-.52-1.16-1.16-1.16-1.16.52-1.16,1.16"/>
  <path class="st3" d="M608,885.84h16.15c.21,0,.37.17.37.37v5.46c0,.21-.17.37-.37.37h-16.15c-.21,0-.37-.17-.37-.37v-5.46c0-.21.17-.37.37-.37Z"/>
  <path class="st6" d="M637.09,939.22v-10.27c0-3.95,2.84-7.15,6.35-7.15s6.35,3.2,6.35,7.15v10.27h-12.7Z"/>
  <polygon class="st9" points="655.55 939.22 631.23 939.22 631.16 950.11 655.55 950.14 655.55 939.22"/>
  <path class="st9" d="M639.13,890.79c0,.97.79,1.76,1.76,1.76s1.76-.79,1.76-1.76-.79-1.76-1.76-1.76-1.76.79-1.76,1.76"/>
  <path class="st12" d="M539.27,693.64l25.64-2.84-25.64,9.72v-6.88ZM546.82,690.8l-7.55,2.84,25.64-2.84h-18.09Z"/>
  <path class="st5" d="M539.27,693.64l25.64-2.84-25.64,9.72v-6.88ZM546.82,690.8l-7.55,2.84,25.64-2.84h-18.09Z"/>
  <path class="st12" d="M539.27,715.02l25.64-9.72v9.72h-25.64ZM539.27,700.52v14.5l25.64-9.72-25.64-4.78Z"/>
  <path class="st5" d="M539.27,715.02l25.64-9.72v9.72h-25.64ZM539.27,700.52v14.5l25.64-9.72-25.64-4.78Z"/>
  <polygon class="st12" points="539.27 700.52 564.9 690.8 564.9 705.3 539.27 700.52"/>
  <polygon class="st5" points="539.27 700.52 564.9 690.8 564.9 705.3 539.27 700.52"/>
  <line class="st3" x1="614.91" y1="878.42" x2="613.64" y2="878.42"/>
  <line class="st3" x1="611.77" y1="878.42" x2="610.5" y2="878.42"/>
  <line class="st3" x1="608.56" y1="878.42" x2="607.29" y2="878.42"/>
  <line class="st3" x1="605.42" y1="878.42" x2="604.15" y2="878.42"/>
  <line class="st3" x1="655.43" y1="860.86" x2="655.43" y2="862.13"/>
  <line class="st3" x1="655.43" y1="863.99" x2="655.43" y2="865.27"/>
  <line class="st3" x1="655.43" y1="867.21" x2="655.43" y2="868.48"/>
  <line class="st3" x1="655.43" y1="870.35" x2="655.43" y2="871.62"/>
  <line class="st3" x1="655.43" y1="873.56" x2="655.43" y2="874.83"/>
  <polyline class="st3" points="655.43 876.7 655.43 878.42 653.93 878.42"/>
  <line class="st3" x1="651.99" y1="878.42" x2="650.72" y2="878.42"/>
  <line class="st3" x1="648.85" y1="878.42" x2="647.58" y2="878.42"/>
  <line class="st3" x1="645.64" y1="878.42" x2="644.36" y2="878.42"/>
  <line class="st3" x1="642.5" y1="878.42" x2="641.22" y2="878.42"/>
  <line class="st3" x1="633.45" y1="878.42" x2="632.18" y2="878.42"/>
  <line class="st3" x1="630.31" y1="878.42" x2="629.04" y2="878.42"/>
  <line class="st3" x1="627.1" y1="878.42" x2="625.83" y2="878.42"/>
  <line class="st3" x1="623.96" y1="878.42" x2="622.69" y2="878.42"/>
  <line class="st3" x1="640.93" y1="882.98" x2="640.93" y2="890.83"/>
  <line class="st3" x1="602.8" y1="926.49" x2="574.17" y2="926.49"/>
  <path class="st3" d="M602.77,897.86c-15.79,0-28.59,12.8-28.59,28.59"/>
  <line class="st3" x1="602.8" y1="897.86" x2="602.8" y2="926.49"/>
  <line class="st3" x1="557.8" y1="1015.44" x2="557.8" y2="986.81"/>
  <path class="st3" d="M586.36,1015.4c0-15.79-12.8-28.59-28.59-28.59"/>
  <line class="st3" x1="586.36" y1="1015.44" x2="557.8" y2="1015.44"/>
  <polyline class="st9" points="605.79 936.73 627.02 936.73 627.02 1010.88 605.79 1010.88 605.79 936.73"/>
  <polyline class="st3" points="627.02 949.06 605.79 949.06 605.79 936.73 627.02 936.73 627.02 949.06"/>
  <line class="st3" x1="624.56" y1="943.08" x2="618.87" y2="943.08"/>
  <line class="st3" x1="613.94" y1="943.08" x2="608.26" y2="943.08"/>
  <line class="st3" x1="611.1" y1="945.85" x2="611.1" y2="940.24"/>
  <line class="st3" x1="621.71" y1="945.85" x2="621.71" y2="940.24"/>
  <polyline class="st3" points="609.31 1007.29 623.43 1007.29 623.43 993.16 609.31 993.16 609.31 1007.29"/>
  <polyline class="st3" points="627.02 989.65 627.02 1010.88 605.79 1010.88 605.79 989.65 627.02 989.65"/>
  <line class="st3" x1="625.38" y1="1000.26" x2="619.77" y2="1000.26"/>
  <polyline class="st3" points="549.51 1011.93 548.24 1011.93 548.24 1017.23 552.12 1017.23"/>
  <polyline class="st9" points="626.13 803.67 614.24 803.67 614.24 812.72 615.36 813.76 625.23 813.84 626.2 812.79 626.13 803.67"/>
  <line class="st3" x1="603.77" y1="690.8" x2="564.9" y2="690.8"/>
  <line class="st10" x1="614.24" y1="811" x2="621.49" y2="803.67"/>
  <line class="st10" x1="616.18" y1="813.76" x2="626.13" y2="803.82"/>
  <line class="st10" x1="620.89" y1="813.76" x2="626.13" y2="808.53"/>
  <line class="st10" x1="618.35" y1="813.76" x2="614.24" y2="809.65"/>
  <line class="st10" x1="623.14" y1="813.84" x2="614.24" y2="804.94"/>
  <line class="st10" x1="626.2" y1="812.12" x2="617.75" y2="803.67"/>
  <line class="st10" x1="626.13" y1="807.33" x2="622.54" y2="803.67"/>
  <rect class="st8" x="554.63" y="878.42" width="101.38" height="57.56"/>
  <g>
    <path class="st3" d="M587.85,691.3s0-.02,0-.03"/>
    <path class="st4" d="M587.83,690.85c-.28-2.82-2.76-10.94-3.4-10.94l-17.34,11.66-.19.13"/>
    <line class="st3" x1="566.72" y1="691.83" x2="566.7" y2="691.84"/>
  </g>
  <g>
    <polyline class="st3" points="626.8 911.21 626.8 911.24 626.83 911.24"/>
    <line class="st1" x1="627.25" y1="911.24" x2="654.81" y2="911.24"/>
    <polyline class="st3" points="655.03 911.24 655.05 911.24 655.05 911.21"/>
    <line class="st1" x1="655.05" y1="910.79" x2="655.05" y2="883.22"/>
    <polyline class="st3" points="655.05 883.01 655.05 882.98 655.03 882.98"/>
    <line class="st1" x1="654.6" y1="882.98" x2="627.04" y2="882.98"/>
    <polyline class="st3" points="626.83 882.98 626.8 882.98 626.8 883.01"/>
    <line class="st1" x1="626.8" y1="883.43" x2="626.8" y2="911"/>
  </g>
  <g>
    <path class="st2" d="M652.95,737.93c-7.63,1.24-15.45,1.37-23.14.37-.33,0-.61-.19-.69-.47-.02-6.44-.05-12.87-.07-19.31"/>
    <path class="st2" d="M652.95,737.93c.13-.02.22-.11.23-.22v-18.92l-24.15-.26c-.02,6.44-.05,12.87-.07,19.31-.07.28-.36.47-.69.47-7.68,1-15.5.87-23.14-.37-.13-.02-.22-.11-.23-.22v-19.18h24.13"/>
    <path class="st2" d="M652.84,717.55c.07.6.08,1.19.01,1.8-.02.12-.13.2-.27.2-7.72.18-15.43.22-23.16.13-.19-.02-.34-.16-.34-.33-.06-.66-.04-1.31.03-1.97"/>
    <path class="st2" d="M605.24,717.55c-.07.6-.08,1.19-.01,1.8.02.12.13.2.27.2,7.72.18,15.43.22,23.16.13.19-.02.34-.16.34-.33.06-.66.04-1.31-.03-1.97"/>
    <path class="st2" d="M604.94,717.2v-.21c0-.07.07-.13.15-.13h47.9c.08,0,.15.06.15.13v.21l-.06.15h-.36s-47.77-.15-47.77-.15Z"/>
    <path class="st2" d="M652.06,721.27c.47,0,.85-1.11.85-2.49,0-.11,0-.22-.01-.33l-.06-.9c-.02-.12-.13-.2-.27-.2h-23.49v2c.01.65.02,1.3.04,1.96.07.28.36.47.69.47,7.39,1.05,14.94.88,22.25-.51Z"/>
    <path class="st2" d="M606.05,721.27c-.47,0-.85-1.11-.85-2.49,0-.11,0-.22.01-.33l.06-.9c.02-.12.13-.2.27-.2h23.49v2c-.01.65-.02,1.3-.04,1.96-.07.28-.36.47-.69.47-7.39,1.05-14.94.88-22.25-.51Z"/>
    <path class="st2" d="M652.68,719.53c-.11.27-.19.54-.26.81-.14.31-.26.63-.37.95-.14.44-.29.88-.44,1.32-.2.61-.35,1.22-.44,1.84-.06.38-.1.77-.13,1.15-.03.41-.06.82-.08,1.23-.05.98-.05,1.95,0,2.93.05.99.19,1.96.41,2.92.16.73.4,1.43.71,2.13.19.44.48.77.9,1.06.04.02.07.04.12.04h.42c.12-.04.18-.1.23-.2v-18.64c0-.11-.1-.2-.23-.2h-.13c-.13,0-.23.09-.24.2-.04.26-.07.52-.11.77-.02.34-.07.68-.16,1.02l-.21.68Z"/>
    <path class="st2" d="M605.4,719.53c.11.27.19.54.26.81.14.31.26.63.37.95.14.44.29.88.44,1.32.2.61.35,1.22.44,1.84.06.38.1.77.13,1.15.03.41.06.82.08,1.23.05.98.05,1.95,0,2.93-.05.99-.19,1.96-.41,2.92-.16.73-.4,1.43-.71,2.13-.19.44-.48.77-.9,1.06-.04.02-.07.04-.12.04h-.42c-.12-.04-.18-.1-.23-.2v-18.64c0-.11.1-.2.23-.2h.13c.13,0,.23.09.24.2.04.26.07.52.11.77.02.34.07.68.16,1.02l.21.68Z"/>
  </g>
  <g>
    <g>
      <path class="st9" d="M591.11,824.3c0,4.58,3.95,8.3,8.83,8.3,3.59,0,7.14-2.35,8.37-5.65.17-.45.51-1.4.46-2.65-.16-3.9-4.04-8.3-8.83-8.3s-8.83,3.72-8.83,8.3Z"/>
      <path class="st3" d="M607.61,826.16c0,2.82-3.43,5.1-7.66,5.1"/>
      <path class="st3" d="M592.28,826.16c0,2.82,3.43,5.1,7.66,5.1"/>
      <path class="st3" d="M592.28,826.16c0-.56-.44-1.01-.98-1.01"/>
      <path class="st3" d="M607.61,826.16c0-.56.48-1.01,1.07-1.01"/>
    </g>
    <g>
      <path class="st9" d="M591.11,795.82c0-4.58,3.95-8.3,8.83-8.3,3.59,0,7.14,2.35,8.37,5.65.17.45.51,1.4.46,2.65-.16,3.9-4.04,8.3-8.83,8.3s-8.83-3.72-8.83-8.3Z"/>
      <path class="st3" d="M607.61,793.96c0-2.82-3.43-5.1-7.66-5.1"/>
      <path class="st3" d="M592.28,793.96c0-2.82,3.43-5.1,7.66-5.1"/>
      <path class="st3" d="M592.28,793.96c0,.56-.44,1.01-.98,1.01"/>
      <path class="st3" d="M607.61,793.96c0,.56.48,1.01,1.07,1.01"/>
    </g>
    <rect class="st9" x="588.47" y="796.38" width="22.95" height="26.02" transform="translate(1409.33 209.45) rotate(90)"/>
  </g>
  <polyline class="st9" points="556.16 736.19 556.16 718.55 557.58 718.55 557.58 736.19 556.16 736.19"/>
  <polyline class="st9" points="554.81 719.45 556.16 719.45 556.16 735.3 554.81 735.3"/>
  <polygon class="st0" points="564.9 715.02 564.9 690.8 541.66 690.8 541.66 692.74 539.27 692.74 539.27 715.02 549.51 715.02 549.51 1011.93 548.24 1011.93 548.24 1017.23 552.12 1017.23 556.01 1017.23 556.01 1011.93 554.81 1011.93 554.81 715.02 564.9 715.02"/>
  <circle class="st7" cx="641.86" cy="753.74" r="9.69"/>
  <polygon class="st0" points="629.34 704.1 629.34 686.39 607.89 686.39 607.89 690.8 603.77 690.8 603.77 715.09 629.34 715.09 655.43 715.09 655.43 878.42 600.71 878.42 600.71 896.06 604.9 896.06 604.9 882.68 655.43 882.68 655.43 950.11 631.21 950.11 631.21 931.72 604.9 931.72 604.9 928.21 600.71 928.21 600.71 935.98 627.02 935.98 627.02 1011.93 588.15 1011.93 588.15 1017.23 647.5 1017.23 647.5 1011.93 631.21 1011.93 631.21 954.37 655.43 954.37 655.43 954.67 660.73 954.67 660.73 729.35 660.73 715.09 660.73 713.42 660.73 711.6 660.73 704.1 629.34 704.1"/>
</svg>