<?xml version="1.0" encoding="UTF-8"?>
<svg id="Lag_1" xmlns="http://www.w3.org/2000/svg" version="1.1" viewBox="0 0 1200 1697.14">
  <!-- Generator: Adobe Illustrator 29.6.0, SVG Export Plug-In . SVG Version: 2.1.1 Build 207)  -->
  <defs>
    <style>
      .st0 {
        fill: #000016;
      }

      .st1, .st2, .st3, .st4, .st5, .st6, .st7, .st8, .st9, .st10 {
        stroke-width: .18px;
      }

      .st1, .st2, .st3, .st4, .st6, .st8, .st9, .st10 {
        stroke-linecap: round;
      }

      .st1, .st2, .st4, .st6, .st7, .st8, .st9, .st10 {
        stroke-linejoin: round;
      }

      .st1, .st5, .st7, .st9 {
        fill: #fff;
      }

      .st1, .st7 {
        stroke: #060305;
      }

      .st11 {
        fill: #e8e3e0;
      }

      .st2, .st3, .st4, .st6, .st8, .st10 {
        fill: none;
      }

      .st2, .st4, .st5, .st6, .st8, .st9 {
        stroke: #000;
      }

      .st3 {
        stroke: #979899;
      }

      .st3, .st5 {
        stroke-miterlimit: 10;
      }

      .st12 {
        fill: #979899;
      }

      .st4 {
        stroke-dasharray: .06 .42;
      }

      .st6 {
        stroke-dasharray: .06 .43;
      }

      .st13 {
        fill: #dbd7d5;
      }

      .st8 {
        stroke-dasharray: .06 .43;
      }

      .st10 {
        stroke: #747675;
      }
    </style>
  </defs>
  <polygon class="st11" points="546.07 694.95 546.07 1015.44 626.21 1015.44 626.21 954.26 652.63 954.26 652.63 694.95 546.07 694.95"/>
  <rect class="st13" x="549.61" y="878.18" width="101.56" height="57.66"/>
  <rect class="st9" x="632.84" y="856.95" width="17.67" height="21.27"/>
  <rect class="st9" x="614.2" y="856.95" width="17.75" height="21.27"/>
  <rect class="st9" x="595.61" y="856.95" width="17.76" height="21.27"/>
  <polyline class="st9" points="641.41 813.34 641.56 801.66 665.97 801.58 665.82 813.26 641.41 813.34"/>
  <polyline class="st9" points="561.59 693.23 561.59 698.55 559.86 698.55 559.86 693.23 561.59 693.23"/>
  <path class="st9" d="M634.14,890.57c0,.97.79,1.76,1.76,1.76s1.76-.79,1.76-1.76-.79-1.76-1.76-1.76-1.76.79-1.76,1.76"/>
  <polygon class="st12" points="640.14 692.18 665.97 692.18 640.14 701.92 640.14 692.18"/>
  <polygon class="st3" points="640.14 692.18 665.97 692.18 640.14 701.92 640.14 692.18"/>
  <path class="st12" d="M640.14,714.42l25.83-9.81v9.81h-25.83ZM640.14,701.92v12.5l25.83-9.81-25.83-2.7Z"/>
  <path class="st3" d="M640.14,714.42l25.83-9.81v9.81h-25.83ZM640.14,701.92v12.5l25.83-9.81-25.83-2.7Z"/>
  <polygon class="st12" points="640.14 701.92 665.97 692.18 665.97 704.61 640.14 701.92"/>
  <polygon class="st3" points="640.14 701.92 665.97 692.18 665.97 704.61 640.14 701.92"/>
  <polygon class="st12" points="534.03 692.18 559.86 692.18 534.03 701.92 534.03 692.18"/>
  <polygon class="st3" points="534.03 692.18 559.86 692.18 534.03 701.92 534.03 692.18"/>
  <path class="st12" d="M534.03,714.27l25.83-9.81v9.88l-25.83-.07ZM534.03,701.92v12.36l25.83-9.81-25.83-2.55Z"/>
  <path class="st3" d="M534.03,714.27l25.83-9.81v9.88l-25.83-.07ZM534.03,701.92v12.36l25.83-9.81-25.83-2.55Z"/>
  <polygon class="st12" points="534.03 701.92 559.86 692.18 559.86 704.46 534.03 701.92"/>
  <polygon class="st3" points="534.03 701.92 559.86 692.18 559.86 704.46 534.03 701.92"/>
  <line class="st10" x1="641.56" y1="804.65" x2="644.48" y2="801.66"/>
  <line class="st10" x1="641.48" y1="809.44" x2="649.27" y2="801.66"/>
  <line class="st10" x1="642.31" y1="813.34" x2="654.06" y2="801.66"/>
  <line class="st10" x1="647.1" y1="813.34" x2="658.86" y2="801.58"/>
  <line class="st10" x1="651.89" y1="813.34" x2="663.65" y2="801.58"/>
  <line class="st10" x1="656.68" y1="813.26" x2="665.97" y2="804.05"/>
  <line class="st10" x1="661.48" y1="813.26" x2="665.89" y2="808.84"/>
  <line class="st10" x1="644.33" y1="813.34" x2="641.48" y2="810.49"/>
  <line class="st10" x1="649.12" y1="813.34" x2="641.48" y2="805.77"/>
  <line class="st10" x1="653.84" y1="813.34" x2="642.23" y2="801.66"/>
  <line class="st10" x1="658.56" y1="813.26" x2="646.95" y2="801.66"/>
  <line class="st10" x1="663.35" y1="813.26" x2="651.67" y2="801.66"/>
  <line class="st10" x1="665.89" y1="811.02" x2="656.46" y2="801.66"/>
  <line class="st10" x1="665.89" y1="806.3" x2="661.18" y2="801.58"/>
  <line class="st10" x1="665.97" y1="801.66" x2="665.97" y2="801.58"/>
  <polyline class="st2" points="612.8 693.23 561.59 693.23 561.59 694.95 612.8 694.95 612.8 693.23"/>
  <polyline class="st9" points="638.41 693.23 614.53 693.23 614.53 695.85 638.41 695.85 638.41 693.23"/>
  <polyline class="st9" points="640.14 693.23 640.14 698.55 638.41 698.55 638.41 693.23 640.14 693.23"/>
  <polyline class="st9" points="614.53 693.23 614.53 698.55 612.8 698.55 612.8 693.23 614.53 693.23"/>
  <line class="st2" x1="559.86" y1="692.18" x2="640.14" y2="692.18"/>
  <line class="st2" x1="655.71" y1="860.59" x2="655.71" y2="861.86"/>
  <line class="st2" x1="655.71" y1="863.73" x2="655.71" y2="865"/>
  <line class="st2" x1="655.71" y1="866.95" x2="655.71" y2="868.22"/>
  <line class="st2" x1="655.71" y1="870.09" x2="655.71" y2="871.37"/>
  <line class="st2" x1="655.71" y1="873.31" x2="655.71" y2="874.59"/>
  <line class="st2" x1="655.71" y1="860.59" x2="655.71" y2="861.86"/>
  <line class="st2" x1="655.71" y1="863.73" x2="655.71" y2="865"/>
  <line class="st2" x1="655.71" y1="866.95" x2="655.71" y2="868.22"/>
  <line class="st2" x1="655.71" y1="870.09" x2="655.71" y2="871.37"/>
  <line class="st2" x1="655.71" y1="873.31" x2="655.71" y2="874.59"/>
  <line class="st2" x1="609.81" y1="878.18" x2="608.54" y2="878.18"/>
  <line class="st2" x1="606.66" y1="878.18" x2="605.39" y2="878.18"/>
  <line class="st2" x1="603.44" y1="878.18" x2="602.17" y2="878.18"/>
  <line class="st2" x1="600.3" y1="878.18" x2="599.03" y2="878.18"/>
  <line class="st2" x1="650.39" y1="860.59" x2="650.39" y2="861.86"/>
  <line class="st2" x1="650.39" y1="863.73" x2="650.39" y2="865"/>
  <line class="st2" x1="650.39" y1="866.95" x2="650.39" y2="868.22"/>
  <line class="st2" x1="650.39" y1="870.09" x2="650.39" y2="871.37"/>
  <line class="st2" x1="650.39" y1="873.31" x2="650.39" y2="874.59"/>
  <polyline class="st2" points="650.39 876.46 650.39 878.18 648.9 878.18"/>
  <line class="st2" x1="647.02" y1="878.18" x2="645.68" y2="878.18"/>
  <line class="st2" x1="643.8" y1="878.18" x2="642.53" y2="878.18"/>
  <line class="st2" x1="640.58" y1="878.18" x2="639.31" y2="878.18"/>
  <line class="st2" x1="637.44" y1="878.18" x2="636.17" y2="878.18"/>
  <line class="st2" x1="628.38" y1="878.18" x2="627.11" y2="878.18"/>
  <line class="st2" x1="625.23" y1="878.18" x2="623.96" y2="878.18"/>
  <line class="st2" x1="622.01" y1="878.18" x2="620.74" y2="878.18"/>
  <line class="st2" x1="618.87" y1="878.18" x2="617.6" y2="878.18"/>
  <line class="st2" x1="635.94" y1="882.75" x2="635.94" y2="890.61"/>
  <line class="st2" x1="597.68" y1="926.33" x2="569.07" y2="926.33"/>
  <path class="st2" d="M597.64,897.65c-15.82,0-28.64,12.82-28.64,28.64"/>
  <line class="st2" x1="597.68" y1="897.65" x2="597.68" y2="926.33"/>
  <line class="st2" x1="552.6" y1="1015.44" x2="552.6" y2="986.76"/>
  <path class="st2" d="M581.21,1015.4c0-15.82-12.82-28.64-28.64-28.64"/>
  <line class="st2" x1="581.28" y1="1015.44" x2="552.6" y2="1015.44"/>
  <polyline class="st9" points="600.75 936.59 621.94 936.59 621.94 1010.87 600.75 1010.87 600.75 936.59"/>
  <polyline class="st9" points="621.94 948.94 600.75 948.94 600.75 936.59 621.94 936.59 621.94 948.94"/>
  <line class="st2" x1="619.47" y1="942.95" x2="613.78" y2="942.95"/>
  <line class="st2" x1="608.84" y1="942.95" x2="603.22" y2="942.95"/>
  <line class="st2" x1="605.99" y1="945.72" x2="605.99" y2="940.11"/>
  <line class="st2" x1="616.62" y1="945.72" x2="616.62" y2="940.11"/>
  <polyline class="st9" points="604.27 1007.27 618.42 1007.27 618.42 993.12 604.27 993.12 604.27 1007.27"/>
  <polyline class="st2" points="621.94 989.6 621.94 1010.87 600.75 1010.87 600.75 989.6 621.94 989.6"/>
  <line class="st2" x1="620.37" y1="1000.24" x2="614.68" y2="1000.24"/>
  <polygon class="st0" points="559.86 714.35 559.86 692.18 534.03 692.18 534.03 714.27 544.29 714.3 544.29 1011.92 543.02 1011.92 543.02 1017.23 546.91 1017.23 550.8 1017.23 550.8 1011.92 549.61 1011.92 549.61 714.32 559.86 714.35"/>
  <polygon class="st0" points="640.14 692.18 640.14 714.42 650.39 714.42 650.39 801.66 655.71 801.66 655.71 714.42 665.97 714.42 665.97 692.18 640.14 692.18"/>
  <polyline class="st9" points="549.81 719.66 551.24 719.66 551.24 735.54 549.81 735.54"/>
  <polyline class="st9" points="551.03 736.44 551.03 718.76 552.45 718.76 552.45 736.44 551.03 736.44"/>
  <path class="st9" d="M619.81,882.63v9.32c0,.21-.13.37-.3.37h-17c-.21,0-.37-.17-.37-.37v-9.32"/>
  <path class="st2" d="M610.3,884.35c0,.35.28.64.64.64s.64-.28.64-.64-.28-.64-.64-.64-.64.28-.64.64"/>
  <path class="st2" d="M610.15,888.85c0,.43.35.79.79.79s.79-.35.79-.79-.35-.79-.79-.79-.79.35-.79.79"/>
  <path class="st2" d="M609.77,888.85c0,.64.52,1.16,1.16,1.16s1.16-.52,1.16-1.16-.52-1.16-1.16-1.16-1.16.52-1.16,1.16"/>
  <path class="st2" d="M602.88,885.74h16.14c.21,0,.37.17.37.37v5.47c0,.21-.17.37-.37.37h-16.15c-.21,0-.37-.17-.37-.37v-5.47c0-.21.17-.37.37-.37Z"/>
  <line class="st2" x1="599.79" y1="932.71" x2="601.88" y2="932.71"/>
  <g>
    <path class="st1" d="M611.14,724.16c-7.65,1.25-15.48,1.37-23.18.38-.33,0-.62-.2-.69-.47-.02-6.45-.05-12.89-.07-19.34"/>
    <path class="st1" d="M611.14,724.16c.13-.02.22-.11.23-.22v-18.96l-24.19-.26c-.02,6.45-.05,12.89-.07,19.34-.07.28-.36.47-.69.47-7.7,1-15.53.87-23.18-.38-.13-.02-.22-.11-.23-.22v-19.22h24.17"/>
    <path class="st1" d="M611.04,703.74c.07.6.08,1.2.01,1.8-.02.12-.13.2-.27.2-7.73.18-15.46.22-23.2.13-.19-.02-.34-.17-.34-.33-.06-.66-.05-1.31.03-1.97"/>
    <path class="st1" d="M563.35,703.74c-.07.6-.08,1.2-.01,1.8.02.12.13.2.27.2,7.73.18,15.46.22,23.2.13.19-.02.34-.17.34-.33.06-.66.05-1.31-.03-1.97"/>
    <path class="st1" d="M563.06,703.39v-.21c0-.07.07-.13.15-.13h47.98c.08,0,.15.06.15.13v.21l-.06.15h-.36s-47.85-.15-47.85-.15Z"/>
    <path class="st1" d="M610.26,707.46c.47,0,.85-1.12.85-2.49,0-.11,0-.22-.01-.33l-.06-.9c-.02-.12-.13-.2-.27-.2h-23.53v2c.01.65.02,1.31.04,1.96.07.28.36.47.69.47,7.4,1.05,14.97.88,22.29-.51Z"/>
    <path class="st1" d="M564.17,707.46c-.47,0-.85-1.12-.85-2.49,0-.11,0-.22.01-.33l.06-.9c.02-.12.13-.2.27-.2h23.53v2c-.01.65-.02,1.31-.04,1.96-.07.28-.36.47-.69.47-7.4,1.05-14.97.88-22.29-.51Z"/>
    <path class="st1" d="M610.88,705.73c-.11.27-.2.54-.27.82-.14.31-.26.63-.37.95-.14.44-.29.88-.44,1.32-.2.61-.35,1.22-.44,1.84-.06.38-.1.77-.13,1.16-.03.41-.06.82-.08,1.23-.05.98-.05,1.95,0,2.93.05.99.19,1.96.41,2.93.16.73.4,1.43.71,2.13.19.44.48.77.9,1.06.04.02.07.04.12.04h.42c.12-.04.18-.1.23-.2v-18.67c0-.11-.1-.2-.23-.2h-.13c-.13,0-.23.09-.24.2-.04.26-.07.52-.11.77-.02.34-.07.68-.16,1.02l-.21.68Z"/>
    <path class="st1" d="M563.51,705.73c.11.27.2.54.27.82.14.31.26.63.37.95.14.44.29.88.44,1.32.2.61.35,1.22.44,1.84.06.38.1.77.13,1.16.03.41.06.82.08,1.23.05.98.05,1.95,0,2.93-.05.99-.19,1.96-.41,2.93-.16.73-.4,1.43-.71,2.13-.19.44-.48.77-.9,1.06-.04.02-.07.04-.12.04h-.42c-.12-.04-.18-.1-.23-.2v-18.67c0-.11.1-.2.23-.2h.13c.13,0,.23.09.24.2.04.26.07.52.11.77.02.34.07.68.16,1.02l.21.68Z"/>
  </g>
  <path class="st5" d="M632.29,939.06v-10.28c0-3.96,2.84-7.16,6.36-7.16s6.36,3.2,6.36,7.16v10.28h-12.72Z"/>
  <polygon class="st9" points="650.78 939.06 626.41 939.06 626.35 949.96 650.78 949.99 650.78 939.06"/>
  <rect class="st8" x="549.5" y="878.18" width="101.56" height="57.66"/>
  <g>
    <polyline class="st2" points="621.79 911.03 621.79 911.05 621.82 911.05"/>
    <line class="st4" x1="622.24" y1="911.05" x2="649.85" y2="911.05"/>
    <polyline class="st2" points="650.07 911.05 650.09 911.05 650.09 911.03"/>
    <line class="st4" x1="650.09" y1="910.6" x2="650.09" y2="882.99"/>
    <polyline class="st2" points="650.09 882.78 650.09 882.75 650.07 882.75"/>
    <line class="st4" x1="649.64" y1="882.75" x2="622.03" y2="882.75"/>
    <polyline class="st2" points="621.82 882.75 621.79 882.75 621.79 882.78"/>
    <line class="st4" x1="621.79" y1="883.2" x2="621.79" y2="910.81"/>
  </g>
  <polygon class="st0" points="650.39 813.34 650.39 878.18 595.58 878.18 595.58 895.85 599.85 895.85 599.85 882.45 650.39 882.45 650.39 949.99 626.21 949.99 626.21 931.57 599.85 931.57 599.85 928.05 595.58 928.05 595.58 935.84 621.94 935.84 621.94 1011.92 583 1011.92 583 1017.23 642.46 1017.23 642.46 1011.92 626.21 1011.92 626.21 954.26 650.39 954.26 650.39 954.56 655.71 954.56 655.71 813.34 650.39 813.34"/>
  <line class="st2" x1="650.39" y1="954.26" x2="626.21" y2="1011.92"/>
  <line class="st2" x1="626.21" y1="954.26" x2="650.39" y2="1011.92"/>
  <g>
    <path class="st2" d="M614.75,692.62s0-.02,0-.03"/>
    <path class="st6" d="M614.77,692.17c.29-3.1,3.09-12.26,3.81-12.26l19.39,13.01.23.16"/>
    <line class="st2" x1="638.39" y1="693.21" x2="638.41" y2="693.23"/>
  </g>
  <g>
    <g>
      <path class="st9" d="M586.97,821.15c0,4.59,3.96,8.31,8.84,8.31,3.6,0,7.16-2.35,8.38-5.66.17-.45.51-1.4.46-2.65-.16-3.91-4.05-8.31-8.84-8.31s-8.84,3.72-8.84,8.31Z"/>
      <path class="st2" d="M603.49,823.01c0,2.82-3.43,5.1-7.68,5.1"/>
      <path class="st2" d="M588.14,823.01c0,2.82,3.43,5.1,7.68,5.1"/>
      <path class="st2" d="M588.14,823.01c0-.56-.44-1.01-.99-1.01"/>
      <path class="st2" d="M603.49,823.01c0-.56.44-1.01.99-1.01"/>
      <g>
        <path class="st9" d="M608.75,821.15c0,4.59,3.96,8.31,8.84,8.31,3.6,0,7.16-2.35,8.38-5.66.17-.45.51-1.4.46-2.65-.16-3.91-4.05-8.31-8.84-8.31s-8.84,3.72-8.84,8.31Z"/>
        <path class="st2" d="M625.27,823.01c0,2.82-3.43,5.1-7.68,5.1"/>
        <path class="st2" d="M609.92,823.01c0,2.82,3.43,5.1,7.68,5.1"/>
        <path class="st2" d="M609.92,823.01c0-.56-.44-1.01-.99-1.01"/>
        <path class="st2" d="M625.27,823.01c0-.56.48-1.01,1.07-1.01"/>
      </g>
    </g>
    <g>
      <path class="st9" d="M586.97,793.77c0-4.59,3.96-8.31,8.84-8.31,3.6,0,7.16,2.35,8.38,5.66.17.45.51,1.4.46,2.65-.16,3.91-4.05,8.31-8.84,8.31s-8.84-3.72-8.84-8.31Z"/>
      <path class="st2" d="M603.49,791.9c0-2.82-3.43-5.1-7.68-5.1"/>
      <path class="st2" d="M588.14,791.9c0-2.82,3.43-5.1,7.68-5.1"/>
      <path class="st2" d="M588.14,791.9c0,.56-.44,1.01-.99,1.01"/>
      <path class="st2" d="M603.49,791.9c0,.56.44,1.01.99,1.01"/>
      <g>
        <path class="st9" d="M608.75,793.77c0-4.59,3.96-8.31,8.84-8.31,3.6,0,7.16,2.35,8.38,5.66.17.45.51,1.4.46,2.65-.16,3.91-4.05,8.31-8.84,8.31s-8.84-3.72-8.84-8.31Z"/>
        <path class="st2" d="M625.27,791.9c0-2.82-3.43-5.1-7.68-5.1"/>
        <path class="st2" d="M609.92,791.9c0-2.82,3.43-5.1,7.68-5.1"/>
        <path class="st2" d="M609.92,791.9c0,.56-.44,1.01-.99,1.01"/>
        <path class="st2" d="M625.27,791.9c0,.56.48,1.01,1.07,1.01"/>
      </g>
    </g>
    <rect class="st9" x="595.21" y="785.22" width="22.99" height="45.07" transform="translate(1414.47 201.05) rotate(90)"/>
  </g>
  <circle class="st7" cx="626.58" cy="714.96" r="9.7"/>
</svg>