<?xml version="1.0" encoding="UTF-8"?>
<svg id="Lag_1" xmlns="http://www.w3.org/2000/svg" version="1.1" viewBox="0 0 1200 1697.14">
  <!-- Generator: Adobe Illustrator 29.6.0, SVG Export Plug-In . SVG Version: 2.1.1 Build 207)  -->
  <defs>
    <style>
      .st0 {
        fill: #000016;
      }

      .st1 {
        stroke-dasharray: .06 .43;
      }

      .st1, .st2, .st3, .st4, .st5, .st6, .st7, .st8, .st9, .st10, .st11, .st12 {
        stroke-width: .18px;
      }

      .st1, .st2, .st3, .st4, .st6, .st7, .st8, .st9, .st10, .st11, .st12 {
        stroke-linejoin: round;
      }

      .st1, .st2, .st3, .st7, .st9, .st10, .st11 {
        stroke-linecap: round;
      }

      .st1, .st3, .st4, .st5, .st7, .st9, .st10, .st11, .st12 {
        stroke: #000;
      }

      .st1, .st3, .st4, .st6, .st7, .st9, .st11 {
        fill: none;
      }

      .st2, .st5, .st8, .st10, .st12 {
        fill: #fff;
      }

      .st2, .st8 {
        stroke: #060305;
      }

      .st13 {
        fill: #e8e3e0;
      }

      .st5 {
        stroke-miterlimit: 10;
      }

      .st6 {
        stroke: #747675;
      }

      .st14 {
        fill: #dbd7d5;
      }

      .st7 {
        stroke-dasharray: .06 .42;
      }

      .st9 {
        stroke-dasharray: .06 .42;
      }

      .st11 {
        stroke-dasharray: .06 .43;
      }
    </style>
  </defs>
  <polygon class="st13" points="548.37 972.43 548.37 741.34 576.48 741.34 576.48 711.42 654.01 711.42 654.01 972.43 548.37 972.43"/>
  <rect class="st14" x="549.33" y="785.59" width="105.21" height="52.82"/>
  <polyline class="st12" points="638.22 974.22 638.22 968.93 640.01 968.93 640.01 974.22 638.22 974.22"/>
  <polyline class="st12" points="587.34 974.22 638.22 974.22 638.22 972.43 587.34 972.5 587.34 974.22"/>
  <polyline class="st12" points="561.86 974.29 585.62 974.22 585.62 971.61 561.86 971.61 561.86 974.29"/>
  <polyline class="st12" points="560.14 974.29 560.07 969 561.86 969 561.86 974.29 560.14 974.29"/>
  <polyline class="st12" points="585.62 974.22 585.62 968.93 587.34 968.93 587.34 974.22 585.62 974.22"/>
  <line class="st4" x1="640.01" y1="975.26" x2="560.14" y2="975.33"/>
  <path class="st12" d="M567.22,803.95c0,.97-.78,1.75-1.75,1.75s-1.75-.78-1.75-1.75.78-1.75,1.75-1.75,1.75.78,1.75,1.75"/>
  <line class="st4" x1="603.5" y1="768.45" x2="632.03" y2="768.45"/>
  <path class="st4" d="M631.96,768.49c0,15.74-12.76,28.5-28.5,28.5"/>
  <line class="st4" x1="603.5" y1="796.91" x2="603.5" y2="768.45"/>
  <line class="st4" x1="648.42" y1="711.39" x2="648.42" y2="739.92"/>
  <path class="st4" d="M648.39,739.92c-15.74,0-28.5-12.76-28.5-28.5"/>
  <line class="st4" x1="619.89" y1="711.39" x2="648.42" y2="711.39"/>
  <polyline class="st12" points="600.52 758.25 579.44 758.25 579.44 716.01 600.52 716.01 600.52 758.25"/>
  <polyline class="st4" points="579.44 745.88 600.52 745.88 600.52 758.25 579.44 758.25 579.44 745.88"/>
  <line class="st4" x1="581.9" y1="751.84" x2="587.48" y2="751.84"/>
  <line class="st4" x1="592.48" y1="751.84" x2="598.06" y2="751.84"/>
  <line class="st4" x1="595.23" y1="749.08" x2="595.23" y2="754.67"/>
  <line class="st4" x1="584.73" y1="749.08" x2="584.73" y2="754.67"/>
  <polyline class="st4" points="597.02 719.51 582.94 719.51 582.94 733.59 597.02 733.59 597.02 719.51"/>
  <polyline class="st4" points="579.44 737.09 579.44 716.01 600.52 716.01 600.52 737.09 579.44 737.09"/>
  <line class="st4" x1="581" y1="726.51" x2="586.66" y2="726.51"/>
  <polyline class="st12" points="647.9 784.62 659.45 784.54 659.52 772.92 647.9 773 647.9 784.62"/>
  <line class="st6" x1="647.9" y1="780.3" x2="652.15" y2="784.62"/>
  <line class="st6" x1="647.9" y1="775.6" x2="656.92" y2="784.54"/>
  <line class="st6" x1="650.06" y1="773" x2="659.52" y2="782.46"/>
  <line class="st6" x1="654.76" y1="772.92" x2="659.52" y2="777.69"/>
  <line class="st6" x1="651.7" y1="773" x2="647.9" y2="776.8"/>
  <line class="st6" x1="656.47" y1="772.92" x2="647.9" y2="781.56"/>
  <line class="st6" x1="659.52" y1="774.64" x2="649.54" y2="784.62"/>
  <line class="st6" x1="659.52" y1="779.4" x2="654.31" y2="784.54"/>
  <path class="st5" d="M569.33,755.68v10.23c0,3.94-2.83,7.13-6.33,7.13s-6.33-3.19-6.33-7.13v-10.23s12.65,0,12.65,0Z"/>
  <polygon class="st12" points="550.93 755.68 575.18 755.68 575.24 744.84 550.93 744.81 550.93 755.68"/>
  <rect class="st12" x="550.99" y="816.26" width="17.58" height="21.16" transform="translate(1119.56 1653.68) rotate(180)"/>
  <rect class="st12" x="569.47" y="816.26" width="17.66" height="21.16" transform="translate(1156.59 1653.68) rotate(180)"/>
  <rect class="st12" x="587.94" y="816.26" width="17.67" height="21.16" transform="translate(1193.55 1653.68) rotate(180)"/>
  <path class="st12" d="M581.49,811.98v-9.28c0-.21.13-.37.3-.37h16.91c.21,0,.37.17.37.37v9.28"/>
  <path class="st4" d="M590.95,810.26c0-.35-.28-.63-.63-.63s-.63.28-.63.63c0,.35.28.63.63.63s.63-.28.63-.63"/>
  <path class="st4" d="M591.1,805.79c0-.43-.35-.78-.78-.78s-.78.35-.78.78.35.78.78.78.78-.35.78-.78"/>
  <path class="st4" d="M591.47,805.79c0-.64-.52-1.15-1.15-1.15s-1.15.52-1.15,1.15.52,1.15,1.15,1.15,1.15-.52,1.15-1.15"/>
  <path class="st4" d="M582.23,802.7h16.1c.21,0,.37.17.37.37v5.44c0,.2-.17.37-.37.37h-16.1c-.2,0-.37-.17-.37-.37v-5.44c0-.2.17-.37.37-.37Z"/>
  <g>
    <polyline class="st3" points="579.59 783.6 579.59 783.58 579.56 783.58"/>
    <line class="st1" x1="579.13" y1="783.58" x2="551.67" y2="783.58"/>
    <polyline class="st3" points="551.46 783.58 551.43 783.58 551.43 783.6"/>
    <line class="st1" x1="551.43" y1="784.03" x2="551.43" y2="811.49"/>
    <polyline class="st3" points="551.43 811.71 551.43 811.74 551.46 811.74"/>
    <line class="st1" x1="551.88" y1="811.74" x2="579.34" y2="811.74"/>
    <polyline class="st3" points="579.56 811.74 579.59 811.74 579.59 811.71"/>
    <line class="st1" x1="579.59" y1="811.28" x2="579.59" y2="783.82"/>
  </g>
  <line class="st4" x1="565.51" y1="811.74" x2="565.51" y2="803.91"/>
  <g>
    <path class="st3" d="M585.51,974.83s0,.02,0,.03"/>
    <path class="st7" d="M585.49,975.27c-.28,3.09-3.07,12.2-3.79,12.2l-19.29-12.95-.23-.16"/>
    <line class="st3" x1="561.99" y1="974.23" x2="561.97" y2="974.22"/>
  </g>
  <line class="st4" x1="575.19" y1="740.59" x2="545.84" y2="714.89"/>
  <line class="st4" x1="545.84" y1="740.59" x2="575.19" y2="714.89"/>
  <polygon class="st0" points="654.01 709.67 657.89 709.67 657.89 714.89 656.69 714.89 656.69 772.92 651.4 773 651.4 714.89 650.14 714.89 650.14 709.67 654.01 709.67"/>
  <polygon class="st0" points="664.74 956.71 664.14 950.97 656.69 951.03 656.69 784.54 651.4 784.62 651.4 951.06 642.99 951.12 643.06 957.01 639.93 957.01 639.93 975.33 665.63 975.33 665.63 956.71 664.74 956.71"/>
  <g>
    <path class="st2" d="M628.46,947.96c-1.23-7.56-1.36-15.31-.37-22.93,0-.33.19-.61.47-.68,6.38-.02,12.75-.05,19.13-.07"/>
    <path class="st2" d="M628.46,947.96c.02.13.11.22.22.23h18.75l.26-23.93c-6.38-.02-12.75-.05-19.13-.07-.27-.07-.47-.36-.47-.68-.99-7.61-.86-15.36.37-22.93.02-.13.11-.22.22-.23h19.01v23.91"/>
    <path class="st2" d="M648.66,947.86c-.6.07-1.18.08-1.78.01-.11-.02-.2-.13-.2-.27-.18-7.65-.22-15.29-.13-22.94.02-.19.16-.34.33-.34.65-.06,1.3-.04,1.95.03"/>
    <path class="st2" d="M648.66,900.69c-.6-.07-1.18-.08-1.78-.01-.11.02-.2.13-.2.27-.18,7.65-.22,15.29-.13,22.94.02.19.16.34.33.34.65.06,1.3.04,1.95-.03"/>
    <path class="st2" d="M649,900.4h.21c.07,0,.12.06.12.14v47.46c0,.08-.06.14-.12.14h-.21l-.14-.06v-.36s.14-47.33.14-47.33Z"/>
    <path class="st2" d="M644.98,947.08c0,.47,1.1.84,2.47.84.11,0,.22,0,.33-.01l.89-.06c.11-.02.2-.13.2-.27v-23.27h-1.98c-.65.01-1.29.02-1.94.04-.27.07-.47.36-.47.68-1.04,7.32-.87,14.8.5,22.05Z"/>
    <path class="st2" d="M644.98,901.5c0-.47,1.1-.84,2.47-.84.11,0,.22,0,.33.01l.89.06c.11.02.2.13.2.27v23.27h-1.98c-.65-.01-1.29-.02-1.94-.04-.27-.07-.47-.36-.47-.68-1.04-7.32-.87-14.8.5-22.05Z"/>
    <path class="st2" d="M646.69,947.7c-.27-.11-.53-.19-.81-.26-.31-.14-.62-.26-.94-.36-.44-.14-.87-.29-1.3-.43-.6-.2-1.2-.35-1.82-.44-.38-.05-.76-.1-1.14-.12-.41-.03-.81-.06-1.22-.08-.97-.05-1.93-.05-2.9,0-.98.05-1.94.19-2.9.4-.72.16-1.42.39-2.11.7-.43.19-.76.47-1.05.89-.02.04-.03.07-.03.12v.42c.04.11.1.18.2.23h18.47c.11,0,.2-.1.2-.23v-.13h0c0-.13-.09-.23-.2-.24-.26-.04-.51-.07-.77-.11-.34-.02-.67-.07-1.01-.15l-.67-.21Z"/>
    <path class="st2" d="M646.69,900.85c-.27.11-.53.19-.81.26-.31.14-.62.26-.94.36-.44.14-.87.29-1.3.43-.6.2-1.2.35-1.82.44-.38.05-.76.1-1.14.12-.41.03-.81.06-1.22.08-.97.05-1.93.05-2.9,0-.98-.05-1.94-.19-2.9-.4-.72-.16-1.42-.39-2.11-.7-.43-.19-.76-.47-1.05-.89-.02-.04-.03-.07-.03-.12v-.42c.04-.11.1-.18.2-.23h18.47c.11,0,.2.1.2.23v.13h0c0,.13-.09.23-.2.24-.26.04-.51.07-.77.11-.34.02-.67.07-1.01.15l-.67.21Z"/>
  </g>
  <circle class="st8" cx="615.89" cy="949.96" r="9.6"/>
  <g>
    <polyline class="st12" points="550.83 944.48 552.16 944.48 552.16 953.06 550.83 953.06"/>
    <polyline class="st12" points="552.16 954.03 552.16 943.5 553.58 943.5 553.58 954.03 552.16 954.03"/>
  </g>
  <g>
    <g>
      <path class="st10" d="M593.79,872.53c0-4.54-3.92-8.22-8.75-8.22-3.56,0-7.08,2.33-8.29,5.6-.17.45-.5,1.39-.45,2.62.15,3.86,4,8.22,8.75,8.22s8.75-3.68,8.75-8.22Z"/>
      <path class="st3" d="M577.45,870.69c0-2.79,3.4-5.05,7.59-5.05"/>
      <path class="st3" d="M592.63,870.69c0-2.79-3.4-5.05-7.59-5.05"/>
      <path class="st3" d="M592.63,870.69c0,.55.44,1,.98,1"/>
      <path class="st3" d="M577.45,870.69c0,.55-.44,1-.98,1"/>
      <g>
        <path class="st10" d="M572.25,872.53c0-4.54-3.92-8.22-8.75-8.22-3.56,0-7.08,2.33-8.29,5.6-.17.45-.5,1.39-.45,2.62.15,3.86,4,8.22,8.75,8.22s8.75-3.68,8.75-8.22Z"/>
        <path class="st3" d="M555.91,870.69c0-2.79,3.4-5.05,7.59-5.05"/>
        <path class="st3" d="M571.09,870.69c0-2.79-3.4-5.05-7.59-5.05"/>
        <path class="st3" d="M571.09,870.69c0,.55.44,1,.98,1"/>
        <path class="st3" d="M555.91,870.69c0,.55-.47,1-1.06,1"/>
      </g>
    </g>
    <g>
      <path class="st10" d="M593.79,899.62c0,4.54-3.92,8.22-8.75,8.22-3.56,0-7.08-2.33-8.29-5.6-.17-.45-.5-1.39-.45-2.62.15-3.86,4-8.22,8.75-8.22s8.75,3.68,8.75,8.22Z"/>
      <path class="st3" d="M577.45,901.46c0,2.79,3.4,5.05,7.59,5.05"/>
      <path class="st3" d="M592.63,901.46c0,2.79-3.4,5.05-7.59,5.05"/>
      <path class="st3" d="M592.63,901.46c0-.55.44-1,.98-1"/>
      <path class="st3" d="M577.45,901.46c0-.55-.44-1-.98-1"/>
      <g>
        <path class="st10" d="M572.25,899.62c0,4.54-3.92,8.22-8.75,8.22-3.56,0-7.08-2.33-8.29-5.6-.17-.45-.5-1.39-.45-2.62.15-3.86,4-8.22,8.75-8.22s8.75,3.68,8.75,8.22Z"/>
        <path class="st3" d="M555.91,901.46c0,2.79,3.4,5.05,7.59,5.05"/>
        <path class="st3" d="M571.09,901.46c0,2.79-3.4,5.05-7.59,5.05"/>
        <path class="st3" d="M571.09,901.46c0-.55.44-1,.98-1"/>
        <path class="st3" d="M555.91,901.46c0-.55-.47-1-1.06-1"/>
      </g>
    </g>
    <rect class="st10" x="562.9" y="863.49" width="22.74" height="44.58" transform="translate(-311.51 1460.05) rotate(-90)"/>
  </g>
  <polygon class="st0" points="618.18 714.89 618.18 709.67 559.03 709.67 559.03 714.89 575.19 714.89 575.19 740.59 551.13 740.59 545.84 740.59 545.84 957.23 538.99 957.23 538.99 957.25 534.37 957.23 534.37 975.26 538.99 975.26 560.07 975.26 560.07 957.3 560.07 957.23 551.13 957.23 551.13 816.28 605.66 816.28 605.66 798.7 601.42 798.7 601.42 812.03 551.13 812.03 551.13 744.84 575.19 744.84 575.19 763.16 601.42 763.16 601.42 766.66 605.66 766.66 605.66 758.92 579.44 758.92 579.44 714.89 618.18 714.89"/>
  <g>
    <polyline class="st3" points="653.87 785.62 653.87 785.59 653.84 785.59"/>
    <line class="st11" x1="653.42" y1="785.59" x2="546.52" y2="785.59"/>
    <polyline class="st3" points="546.3 785.59 546.28 785.59 546.28 785.62"/>
    <line class="st9" x1="546.28" y1="786.05" x2="546.28" y2="838.16"/>
    <polyline class="st3" points="546.28 838.37 546.28 838.4 546.3 838.4"/>
    <line class="st11" x1="546.73" y1="838.4" x2="653.63" y2="838.4"/>
    <polyline class="st3" points="653.84 838.4 653.87 838.4 653.87 838.37"/>
    <line class="st9" x1="653.87" y1="837.95" x2="653.87" y2="785.83"/>
  </g>
</svg>