<?xml version="1.0" encoding="UTF-8"?>
<svg id="Lag_1" xmlns="http://www.w3.org/2000/svg" version="1.1" viewBox="0 0 1200 1697.14">
  <!-- Generator: Adobe Illustrator 29.6.0, SVG Export Plug-In . SVG Version: 2.1.1 Build 207)  -->
  <defs>
    <style>
      .st0, .st1, .st2, .st3, .st4, .st5, .st6, .st7, .st8, .st9, .st10, .st11, .st12, .st13 {
        stroke-width: .18px;
      }

      .st0, .st1, .st2, .st3, .st6, .st8, .st9, .st10, .st11, .st13 {
        stroke-linecap: round;
      }

      .st0, .st2, .st3, .st4, .st5, .st6, .st8, .st9, .st10, .st13 {
        fill: none;
      }

      .st0, .st2, .st3, .st4, .st6, .st7, .st8, .st9, .st10, .st11, .st12, .st13 {
        stroke: #000;
      }

      .st0, .st3, .st6, .st7, .st8, .st10 {
        stroke-miterlimit: 10;
      }

      .st14 {
        fill: #000016;
      }

      .st1 {
        stroke: #060305;
      }

      .st1, .st2, .st4, .st5, .st9, .st11, .st12, .st13 {
        stroke-linejoin: round;
      }

      .st1, .st7, .st11, .st12 {
        fill: #fff;
      }

      .st15 {
        fill: #e8e3e0;
      }

      .st3 {
        stroke-dasharray: .06 .42;
      }

      .st5 {
        stroke: #767676;
      }

      .st6 {
        stroke-dasharray: .06 .43;
      }

      .st16 {
        fill: #dbd7d5;
      }

      .st8 {
        stroke-dasharray: .06 .43;
      }

      .st9 {
        stroke-dasharray: .06 .43;
      }

      .st10 {
        stroke-dasharray: .06 .42;
      }

      .st13 {
        stroke-dasharray: .06 .42;
      }
    </style>
  </defs>
  <polygon class="st15" points="546.34 725.35 546.34 955.26 574.31 955.26 574.31 985.02 651.44 985.02 651.44 725.35 546.34 725.35"/>
  <rect class="st16" x="545.29" y="858.68" width="104.67" height="52.55"/>
  <polyline class="st12" points="549.08 750.03 550.41 750.03 550.41 765.74 549.08 765.74"/>
  <polyline class="st12" points="559.75 723.57 559.75 728.83 557.98 728.83 557.98 723.57 559.75 723.57"/>
  <polyline class="st4" points="610.38 723.57 559.75 723.57 559.75 725.35 610.38 725.27 610.38 723.57"/>
  <polyline class="st12" points="635.72 723.49 612.08 723.57 612.08 726.16 635.72 726.16 635.72 723.49"/>
  <polyline class="st12" points="637.43 723.49 637.5 728.76 635.72 728.76 635.72 723.49 637.43 723.49"/>
  <polyline class="st12" points="612.08 723.57 612.08 728.83 610.38 728.83 610.38 723.57 612.08 723.57"/>
  <line class="st4" x1="557.98" y1="722.53" x2="637.43" y2="722.46"/>
  <path class="st12" d="M565.09,892.96c0-.96-.78-1.74-1.74-1.74s-1.74.78-1.74,1.74.78,1.74,1.74,1.74,1.74-.78,1.74-1.74"/>
  <line class="st4" x1="601.19" y1="928.28" x2="629.57" y2="928.28"/>
  <path class="st4" d="M629.5,928.24c0-15.66-12.69-28.35-28.35-28.35"/>
  <line class="st4" x1="601.19" y1="899.97" x2="601.19" y2="928.28"/>
  <line class="st4" x1="645.88" y1="985.06" x2="645.88" y2="956.67"/>
  <path class="st4" d="M645.84,956.67c-15.66,0-28.35,12.69-28.35,28.35"/>
  <line class="st4" x1="617.49" y1="985.06" x2="645.88" y2="985.06"/>
  <polyline class="st12" points="598.22 938.44 577.25 938.44 577.25 980.46 598.22 980.46 598.22 938.44"/>
  <polyline class="st4" points="577.25 950.74 598.22 950.74 598.22 938.44 577.25 938.44 577.25 950.74"/>
  <line class="st4" x1="579.69" y1="944.81" x2="585.25" y2="944.81"/>
  <line class="st4" x1="590.22" y1="944.81" x2="595.78" y2="944.81"/>
  <line class="st4" x1="592.96" y1="947.55" x2="592.96" y2="941.99"/>
  <line class="st4" x1="582.51" y1="947.55" x2="582.51" y2="941.99"/>
  <polyline class="st4" points="594.74 976.98 580.73 976.98 580.73 962.97 594.74 962.97 594.74 976.98"/>
  <polyline class="st4" points="577.25 959.48 577.25 980.46 598.22 980.46 598.22 959.48 577.25 959.48"/>
  <line class="st4" x1="578.8" y1="970.01" x2="584.44" y2="970.01"/>
  <polyline class="st12" points="645.36 912.2 656.85 912.27 656.92 923.83 645.36 923.76 645.36 912.2"/>
  <line class="st5" x1="645.36" y1="916.5" x2="649.59" y2="912.2"/>
  <line class="st5" x1="645.36" y1="921.17" x2="654.33" y2="912.27"/>
  <line class="st5" x1="647.51" y1="923.76" x2="656.92" y2="914.35"/>
  <line class="st5" x1="652.18" y1="923.83" x2="656.92" y2="919.09"/>
  <line class="st5" x1="649.14" y1="923.76" x2="645.36" y2="919.98"/>
  <line class="st5" x1="653.88" y1="923.83" x2="645.36" y2="915.24"/>
  <line class="st5" x1="656.92" y1="922.13" x2="646.99" y2="912.2"/>
  <line class="st5" x1="656.92" y1="917.39" x2="651.73" y2="912.27"/>
  <polyline class="st12" points="550.41 766.63 550.41 749.06 551.82 749.06 551.82 766.63 550.41 766.63"/>
  <path class="st7" d="M567.19,940.99v-10.18c0-3.92-2.82-7.09-6.3-7.09s-6.29,3.17-6.29,7.09v10.18s12.59,0,12.59,0Z"/>
  <polygon class="st12" points="548.88 940.99 573 940.99 573.07 951.78 548.88 951.81 548.88 940.99"/>
  <rect class="st12" x="548.94" y="859.67" width="17.49" height="21.05" transform="translate(1115.38 1740.38) rotate(-180)"/>
  <rect class="st12" x="567.32" y="859.67" width="17.57" height="21.05" transform="translate(1152.21 1740.38) rotate(-180)"/>
  <rect class="st12" x="585.71" y="859.67" width="17.58" height="21.05" transform="translate(1188.99 1740.38) rotate(-180)"/>
  <path class="st12" d="M579.28,884.98v9.23c0,.2.13.37.3.37h16.82c.2,0,.37-.17.37-.37v-9.23"/>
  <path class="st4" d="M588.7,886.68c0,.35-.28.63-.63.63s-.63-.28-.63-.63c0-.35.28-.63.63-.63s.63.28.63.63"/>
  <path class="st4" d="M588.85,891.13c0,.43-.35.78-.78.78s-.78-.35-.78-.78c0-.43.35-.78.78-.78s.78.35.78.78"/>
  <path class="st4" d="M589.22,891.13c0,.63-.51,1.15-1.15,1.15s-1.15-.51-1.15-1.15c0-.63.51-1.15,1.15-1.15s1.15.51,1.15,1.15"/>
  <path class="st4" d="M580.02,888.05h16.01c.2,0,.37.17.37.37v5.41c0,.2-.17.37-.37.37h-16.01c-.2,0-.37-.17-.37-.37v-5.41c0-.2.17-.37.37-.37Z"/>
  <g>
    <polyline class="st2" points="577.39 913.21 577.39 913.24 577.37 913.24"/>
    <line class="st9" x1="576.94" y1="913.24" x2="549.62" y2="913.24"/>
    <polyline class="st2" points="549.41 913.24 549.38 913.24 549.38 913.21"/>
    <line class="st9" x1="549.38" y1="912.78" x2="549.38" y2="885.46"/>
    <polyline class="st2" points="549.38 885.25 549.38 885.22 549.41 885.22"/>
    <line class="st9" x1="549.83" y1="885.22" x2="577.15" y2="885.22"/>
    <polyline class="st2" points="577.37 885.22 577.39 885.22 577.39 885.25"/>
    <line class="st9" x1="577.39" y1="885.67" x2="577.39" y2="912.99"/>
  </g>
  <line class="st4" x1="563.39" y1="885.22" x2="563.39" y2="893"/>
  <g>
    <path class="st2" d="M612.19,722.96s0-.02,0-.03"/>
    <path class="st13" d="M612.22,722.52c.28-3.07,3.05-12.14,3.77-12.14l19.19,12.88.23.16"/>
    <line class="st2" x1="635.59" y1="723.55" x2="635.61" y2="723.57"/>
  </g>
  <line class="st4" x1="573.02" y1="956" x2="543.82" y2="981.57"/>
  <line class="st4" x1="543.82" y1="956" x2="573.02" y2="981.57"/>
  <polygon class="st14" points="577.25 981.57 577.25 937.77 603.34 937.77 603.34 930.06 599.11 930.06 599.11 933.54 573.02 933.54 573.02 951.78 549.08 951.78 549.08 884.92 599.11 884.92 599.11 898.19 603.34 898.19 603.34 880.7 549.08 880.7 549.08 740.47 557.98 740.47 557.98 722.53 537 722.53 537 740.47 543.82 740.47 543.82 956 549.08 956 573.02 956 573.02 981.57 556.94 981.57 556.94 986.76 615.79 986.76 615.79 981.57 577.25 981.57"/>
  <polygon class="st14" points="637.43 722.46 637.43 740.54 644.17 740.54 644.03 744.69 648.84 744.69 648.84 912.2 654.11 912.27 654.11 744.69 661.81 744.69 662.04 740.54 663 740.54 663 722.46 637.43 722.46"/>
  <polygon class="st14" points="651.44 986.76 655.29 986.76 655.29 981.57 654.11 981.57 654.11 923.83 648.84 923.76 648.84 981.57 647.58 981.57 647.58 986.76 651.44 986.76"/>
  <g>
    <g>
      <path class="st11" d="M645.01,786.22c0,4.54-3.92,8.23-8.75,8.23-3.56,0-7.08-2.33-8.3-5.61-.17-.45-.5-1.39-.45-2.62.15-3.87,4-8.23,8.75-8.23s8.75,3.68,8.75,8.23Z"/>
      <path class="st2" d="M628.66,788.07c0,2.79,3.4,5.05,7.6,5.05"/>
      <path class="st2" d="M643.86,788.07c0,2.79-3.4,5.05-7.6,5.05"/>
      <path class="st2" d="M643.86,788.07c0-.55.44-1,.98-1"/>
      <path class="st2" d="M628.66,788.07c0-.55-.44-1-.98-1"/>
      <g>
        <path class="st11" d="M623.46,786.22c0,4.54-3.92,8.23-8.75,8.23-3.56,0-7.08-2.33-8.3-5.61-.17-.45-.5-1.39-.45-2.62.15-3.87,4-8.23,8.75-8.23s8.75,3.68,8.75,8.23Z"/>
        <path class="st2" d="M607.1,788.07c0,2.79,3.4,5.05,7.6,5.05"/>
        <path class="st2" d="M622.3,788.07c0,2.79-3.4,5.05-7.6,5.05"/>
        <path class="st2" d="M622.3,788.07c0-.55.44-1,.98-1"/>
        <path class="st2" d="M607.1,788.07c0-.55-.47-1-1.06-1"/>
      </g>
    </g>
    <g>
      <path class="st11" d="M645.01,759.12c0-4.54-3.92-8.23-8.75-8.23-3.56,0-7.08,2.33-8.3,5.61-.17.45-.5,1.39-.45,2.62.15,3.87,4,8.23,8.75,8.23s8.75-3.68,8.75-8.23Z"/>
      <path class="st2" d="M628.66,757.27c0-2.79,3.4-5.05,7.6-5.05"/>
      <path class="st2" d="M643.86,757.27c0-2.79-3.4-5.05-7.6-5.05"/>
      <path class="st2" d="M643.86,757.27c0,.55.44,1,.98,1"/>
      <path class="st2" d="M628.66,757.27c0,.55-.44,1-.98,1"/>
      <g>
        <path class="st11" d="M623.46,759.12c0-4.54-3.92-8.23-8.75-8.23-3.56,0-7.08,2.33-8.3,5.61-.17.45-.5,1.39-.45,2.62.15,3.87,4,8.23,8.75,8.23s8.75-3.68,8.75-8.23Z"/>
        <path class="st2" d="M607.1,757.27c0-2.79,3.4-5.05,7.6-5.05"/>
        <path class="st2" d="M622.3,757.27c0-2.79-3.4-5.05-7.6-5.05"/>
        <path class="st2" d="M622.3,757.27c0,.55.44,1,.98,1"/>
        <path class="st2" d="M607.1,757.27c0,.55-.47,1-1.06,1"/>
      </g>
    </g>
    <rect class="st11" x="614.1" y="750.66" width="22.76" height="44.61" transform="translate(1398.45 147.49) rotate(90)"/>
  </g>
  <circle class="st1" cx="584.92" cy="827.26" r="9.61"/>
  <g>
    <path class="st1" d="M570.85,837.2c1.23-7.57,1.36-15.32.37-22.94,0-.33-.19-.61-.47-.68-6.38-.02-12.76-.05-19.15-.07"/>
    <path class="st1" d="M570.85,837.2c-.02.13-.11.22-.22.23h-1.79s-16.98,0-16.98,0l-.26-23.94c6.38-.02,12.76-.05,19.15-.07.27-.07.47-.36.47-.68.99-7.62.86-15.37-.37-22.94-.02-.13-.11-.22-.22-.23h-1.79s-17.23,0-17.23,0v23.93"/>
    <path class="st1" d="M550.64,837.1c.6.07,1.18.08,1.78.01.11-.02.2-.13.2-.27.18-7.65.22-15.3.13-22.96-.02-.19-.16-.34-.33-.34-.65-.06-1.3-.04-1.95.03"/>
    <path class="st1" d="M550.64,789.9c.6-.07,1.18-.08,1.78-.01.11.02.2.13.2.27.18,7.65.22,15.3.13,22.96-.02.19-.16.34-.33.34-.65.06-1.3.04-1.95-.03"/>
    <path class="st1" d="M550.3,789.61h-.21c-.07,0-.12.06-.12.14,0,15.83,0,31.66,0,47.5,0,.08.06.14.12.14h.21s.14-.06.14-.06v-.36s-.14-47.36-.14-47.36Z"/>
    <path class="st1" d="M554.33,836.32c0,.47-1.1.84-2.47.84-.11,0-.22,0-.33-.01l-.89-.06c-.11-.02-.2-.13-.2-.27v-23.29h1.98c.65.01,1.29.02,1.94.04.27.07.47.36.47.68,1.04,7.33.87,14.81-.5,22.06Z"/>
    <path class="st1" d="M554.33,790.71c0-.47-1.1-.84-2.47-.84-.11,0-.22,0-.33.01l-.89.06c-.11.02-.2.13-.2.27v23.29h1.98c.65-.01,1.29-.02,1.94-.04.27-.07.47-.36.47-.68,1.04-7.33.87-14.81-.5-22.06Z"/>
    <path class="st1" d="M552.61,836.94c.27-.11.53-.19.81-.26.31-.14.62-.26.94-.36.44-.14.87-.29,1.3-.43.6-.2,1.21-.35,1.83-.44.38-.05.76-.1,1.14-.12.41-.03.81-.06,1.22-.08.97-.05,1.93-.05,2.9,0,.98.05,1.94.19,2.9.41.72.16,1.42.39,2.11.7.43.19.76.47,1.05.9.02.04.03.07.03.12v.42c-.04.11-.1.18-.2.23h-18.48c-.11,0-.2-.1-.2-.23v-.13h0c0-.13.09-.23.2-.24.26-.04.51-.07.77-.11.34-.02.67-.07,1.01-.15l.67-.21Z"/>
    <path class="st1" d="M552.61,790.05c.27.11.53.19.81.26.31.14.62.26.94.36.44.14.87.29,1.3.43.6.2,1.21.35,1.83.44.38.05.76.1,1.14.12.41.03.81.06,1.22.08.97.05,1.93.05,2.9,0,.98-.05,1.94-.19,2.9-.41.72-.16,1.42-.39,2.11-.7.43-.19.76-.47,1.05-.9.02-.04.03-.07.03-.12v-.42c-.04-.11-.1-.18-.2-.23-6.16,0-12.32,0-18.48,0-.11,0-.2.1-.2.23v.13h0c0,.13.09.23.2.24.26.04.51.07.77.11.34.02.67.07,1.01.15l.67.21Z"/>
  </g>
  <g>
    <polyline class="st0" points="547.03 858.85 547.03 858.82 547.06 858.82"/>
    <polyline class="st10" points="547.48 858.82 554.89 858.82 650.16 858.82"/>
    <polyline class="st0" points="650.37 858.82 650.4 858.82 650.4 858.85"/>
    <line class="st8" x1="650.4" y1="859.27" x2="650.4" y2="910.86"/>
    <polyline class="st0" points="650.4 911.07 650.4 911.1 650.37 911.1"/>
    <line class="st6" x1="649.94" y1="911.1" x2="548.48" y2="911.1"/>
    <polyline class="st0" points="548.27 911.1 548.24 911.1 548.24 911.07"/>
    <polyline class="st3" points="548.24 910.65 548.24 868.03 547.06 859.06"/>
  </g>
</svg>