<?xml version="1.0" encoding="UTF-8"?>
<svg id="Lag_1" xmlns="http://www.w3.org/2000/svg" version="1.1" viewBox="0 0 1200 1697.14">
  <!-- Generator: Adobe Illustrator 29.6.0, SVG Export Plug-In . SVG Version: 2.1.1 Build 207)  -->
  <defs>
    <style>
      .st0, .st1, .st2, .st3, .st4, .st5, .st6, .st7, .st8, .st9, .st10, .st11, .st12, .st13 {
        stroke-width: .18px;
      }

      .st0, .st1, .st2, .st3, .st4, .st7, .st9, .st10, .st11, .st12 {
        stroke-linecap: round;
      }

      .st0, .st2, .st3, .st4, .st5, .st6, .st7, .st9, .st10, .st11 {
        fill: none;
      }

      .st0, .st2, .st3, .st4, .st5, .st7, .st8, .st9, .st10, .st11, .st12, .st13 {
        stroke: #000;
      }

      .st0, .st4, .st7, .st8, .st10, .st11 {
        stroke-miterlimit: 10;
      }

      .st14 {
        fill: #000016;
      }

      .st1 {
        stroke: #060305;
      }

      .st1, .st2, .st3, .st5, .st6, .st9, .st12, .st13 {
        stroke-linejoin: round;
      }

      .st1, .st8, .st12, .st13 {
        fill: #fff;
      }

      .st15 {
        fill: #e8e3e0;
      }

      .st3 {
        stroke-dasharray: .06 .42;
      }

      .st4 {
        stroke-dasharray: .06 .42;
      }

      .st6 {
        stroke: #767676;
      }

      .st7 {
        stroke-dasharray: .06 .43;
      }

      .st16 {
        fill: #dbd7d5;
      }

      .st9 {
        stroke-dasharray: .06 .43;
      }

      .st10 {
        stroke-dasharray: .06 .43;
      }

      .st11 {
        stroke-dasharray: .06 .42;
      }
    </style>
  </defs>
  <polygon class="st15" points="624.13 951.64 651.16 951.64 651.16 726.04 546.63 726.04 546.63 984.32 624.13 984.32 624.13 951.64"/>
  <rect class="st16" x="546.11" y="858.66" width="104.11" height="52.27" transform="translate(1196.33 1769.6) rotate(-180)"/>
  <path class="st13" d="M632.51,892.76c0-.96.78-1.73,1.73-1.73s1.73.78,1.73,1.73-.78,1.73-1.73,1.73-1.73-.78-1.73-1.73"/>
  <line class="st5" x1="596.61" y1="927.89" x2="568.37" y2="927.89"/>
  <path class="st5" d="M568.45,927.85c0-15.57,12.62-28.2,28.2-28.2"/>
  <line class="st5" x1="596.61" y1="899.73" x2="596.61" y2="927.89"/>
  <line class="st5" x1="552.16" y1="984.36" x2="552.16" y2="956.12"/>
  <path class="st5" d="M552.19,956.12c15.57,0,28.2,12.62,28.2,28.2"/>
  <line class="st5" x1="580.39" y1="984.36" x2="552.16" y2="984.36"/>
  <polyline class="st13" points="599.56 937.99 620.42 937.99 620.42 979.79 599.56 979.79 599.56 937.99"/>
  <polyline class="st5" points="620.42 950.22 599.56 950.22 599.56 937.99 620.42 937.99 620.42 950.22"/>
  <line class="st5" x1="617.99" y1="944.33" x2="612.46" y2="944.33"/>
  <line class="st5" x1="607.52" y1="944.33" x2="601.99" y2="944.33"/>
  <line class="st5" x1="604.79" y1="947.05" x2="604.79" y2="941.53"/>
  <line class="st5" x1="615.19" y1="947.05" x2="615.19" y2="941.53"/>
  <polyline class="st5" points="603.02 976.32 616.96 976.32 616.96 962.39 603.02 962.39 603.02 976.32"/>
  <polyline class="st5" points="620.42 958.92 620.42 979.79 599.56 979.79 599.56 958.92 620.42 958.92"/>
  <line class="st5" x1="618.87" y1="969.39" x2="613.27" y2="969.39"/>
  <polyline class="st13" points="552.67 911.89 541.25 911.96 541.17 923.46 552.67 923.39 552.67 911.89"/>
  <line class="st6" x1="552.67" y1="916.17" x2="548.47" y2="911.89"/>
  <line class="st6" x1="552.67" y1="920.81" x2="543.75" y2="911.96"/>
  <line class="st6" x1="550.53" y1="923.39" x2="541.17" y2="914.03"/>
  <line class="st6" x1="545.89" y1="923.46" x2="541.17" y2="918.75"/>
  <line class="st6" x1="548.91" y1="923.39" x2="552.67" y2="919.63"/>
  <line class="st6" x1="544.19" y1="923.46" x2="552.67" y2="914.91"/>
  <line class="st6" x1="541.17" y1="921.77" x2="551.05" y2="911.89"/>
  <line class="st6" x1="541.17" y1="917.05" x2="546.33" y2="911.96"/>
  <path class="st8" d="M630.43,940.52v-10.13c0-3.9,2.8-7.05,6.26-7.05s6.26,3.15,6.26,7.05v10.13h-12.52Z"/>
  <polygon class="st13" points="648.63 940.52 624.64 940.52 624.57 951.26 648.63 951.29 648.63 940.52"/>
  <rect class="st13" x="631.17" y="859.64" width="17.4" height="20.94"/>
  <rect class="st13" x="612.82" y="859.64" width="17.47" height="20.94"/>
  <rect class="st13" x="594.52" y="859.64" width="17.49" height="20.94"/>
  <path class="st13" d="M618.39,884.82v9.18c0,.2-.13.37-.29.37h-16.73c-.2,0-.37-.16-.37-.37v-9.18"/>
  <path class="st5" d="M609.03,886.51c0,.35.28.63.63.63s.63-.28.63-.63-.28-.63-.63-.63-.63.28-.63.63"/>
  <path class="st5" d="M608.88,890.94c0,.43.35.77.77.77s.77-.35.77-.77-.35-.77-.77-.77-.77.35-.77.77"/>
  <path class="st5" d="M608.51,890.94c0,.63.51,1.14,1.14,1.14s1.14-.51,1.14-1.14-.51-1.14-1.14-1.14-1.14.51-1.14,1.14"/>
  <path class="st5" d="M601.73,887.88h15.93c.2,0,.37.17.37.37v5.38c0,.2-.16.37-.37.37h-15.93c-.2,0-.37-.17-.37-.37v-5.38c0-.2.16-.37.37-.37Z"/>
  <g>
    <polyline class="st2" points="620.27 912.89 620.27 912.92 620.3 912.92"/>
    <line class="st3" x1="620.73" y1="912.92" x2="647.9" y2="912.92"/>
    <polyline class="st2" points="648.11 912.92 648.14 912.92 648.14 912.89"/>
    <line class="st3" x1="648.14" y1="912.47" x2="648.14" y2="885.3"/>
    <polyline class="st2" points="648.14 885.08 648.14 885.06 648.11 885.06"/>
    <line class="st3" x1="647.69" y1="885.06" x2="620.51" y2="885.06"/>
    <polyline class="st2" points="620.3 885.06 620.27 885.06 620.27 885.08"/>
    <line class="st3" x1="620.27" y1="885.51" x2="620.27" y2="912.68"/>
  </g>
  <line class="st5" x1="634.21" y1="885.06" x2="634.21" y2="892.8"/>
  <polygon class="st14" points="546.63 986.05 542.79 986.05 542.79 980.89 543.97 980.89 543.97 923.46 549.21 923.39 549.21 980.89 550.46 980.89 550.46 986.05 546.63 986.05"/>
  <line class="st5" x1="624.62" y1="955.46" x2="653.67" y2="980.89"/>
  <line class="st5" x1="653.67" y1="955.46" x2="624.62" y2="980.89"/>
  <polyline class="st13" points="562.26 724.2 562.26 729.44 560.49 729.44 560.49 724.2 562.26 724.2"/>
  <polyline class="st13" points="612.61 724.2 562.26 724.2 562.26 725.97 612.61 725.97 612.61 724.2"/>
  <line class="st5" x1="614.38" y1="723.03" x2="614.38" y2="724.2"/>
  <polyline class="st13" points="637.82 724.2 614.38 724.2 614.3 726.78 637.82 726.78 637.82 724.2"/>
  <polyline class="st13" points="639.59 724.2 639.59 729.44 637.82 729.44 637.82 724.2 639.59 724.2"/>
  <polyline class="st13" points="614.38 724.2 614.38 729.44 612.61 729.44 612.61 724.2 614.38 724.2"/>
  <line class="st5" x1="560.49" y1="723.17" x2="639.59" y2="723.1"/>
  <g>
    <path class="st2" d="M614.52,723.6s0-.02,0-.03"/>
    <path class="st9" d="M614.55,723.16c.28-3.06,3.04-12.06,3.75-12.06l19.09,12.81.23.16"/>
    <line class="st2" x1="637.79" y1="724.19" x2="637.82" y2="724.2"/>
  </g>
  <polygon class="st14" points="535.05 723.17 535.05 741.67 538.15 741.67 538.15 745.28 543.97 745.34 543.97 911.96 549.21 911.89 549.21 745.39 560.34 745.5 560.49 743.88 560.49 723.17 535.05 723.17"/>
  <g>
    <g>
      <path class="st12" d="M553.23,784.62c0,4.52,3.9,8.18,8.7,8.18,3.54,0,7.05-2.32,8.25-5.58.16-.44.5-1.38.45-2.61-.15-3.84-3.98-8.18-8.7-8.18s-8.7,3.66-8.7,8.18Z"/>
      <path class="st2" d="M569.49,786.45c0,2.78-3.38,5.03-7.56,5.03"/>
      <path class="st2" d="M554.38,786.45c0,2.78,3.38,5.03,7.56,5.03"/>
      <path class="st2" d="M554.38,786.45c0-.55-.43-.99-.97-.99"/>
      <path class="st2" d="M569.49,786.45c0-.55.43-.99.97-.99"/>
      <g>
        <path class="st12" d="M574.67,784.62c0,4.52,3.9,8.18,8.7,8.18,3.54,0,7.05-2.32,8.25-5.58.16-.44.5-1.38.45-2.61-.15-3.84-3.98-8.18-8.7-8.18s-8.7,3.66-8.7,8.18Z"/>
        <path class="st2" d="M590.93,786.45c0,2.78-3.38,5.03-7.56,5.03"/>
        <path class="st2" d="M575.82,786.45c0,2.78,3.38,5.03,7.56,5.03"/>
        <path class="st2" d="M575.82,786.45c0-.55-.43-.99-.97-.99"/>
        <path class="st2" d="M590.93,786.45c0-.55.47-.99,1.05-.99"/>
      </g>
    </g>
    <g>
      <path class="st12" d="M553.23,757.66c0-4.52,3.9-8.18,8.7-8.18,3.54,0,7.05,2.32,8.25,5.58.16.44.5,1.38.45,2.61-.15,3.84-3.98,8.18-8.7,8.18s-8.7-3.66-8.7-8.18Z"/>
      <path class="st2" d="M569.49,755.82c0-2.78-3.38-5.03-7.56-5.03"/>
      <path class="st2" d="M554.38,755.82c0-2.78,3.38-5.03,7.56-5.03"/>
      <path class="st2" d="M554.38,755.82c0,.55-.43.99-.97.99"/>
      <path class="st2" d="M569.49,755.82c0,.55.43.99.97.99"/>
      <g>
        <path class="st12" d="M574.67,757.66c0-4.52,3.9-8.18,8.7-8.18,3.54,0,7.05,2.32,8.25,5.58.16.44.5,1.38.45,2.61-.15,3.84-3.98,8.18-8.7,8.18s-8.7-3.66-8.7-8.18Z"/>
        <path class="st2" d="M590.93,755.82c0-2.78-3.38-5.03-7.56-5.03"/>
        <path class="st2" d="M575.82,755.82c0-2.78,3.38-5.03,7.56-5.03"/>
        <path class="st2" d="M575.82,755.82c0,.55-.43.99-.97.99"/>
        <path class="st2" d="M590.93,755.82c0,.55.47.99,1.05.99"/>
      </g>
    </g>
    <rect class="st12" x="561.34" y="749.25" width="22.64" height="44.37" transform="translate(1344.09 198.78) rotate(90)"/>
  </g>
  <circle class="st1" cx="613.39" cy="827.55" r="9.55"/>
  <g>
    <path class="st1" d="M626.91,837.43c-1.23-7.53-1.35-15.24-.37-22.82,0-.32.19-.61.46-.68,6.35-.02,12.69-.05,19.04-.07"/>
    <path class="st1" d="M626.91,837.43c.02.13.11.22.22.23h18.66l.26-23.82c-6.35-.02-12.69-.05-19.04-.07-.27-.07-.46-.35-.46-.68-.98-7.58-.86-15.29.37-22.82.02-.13.11-.22.22-.23h18.92v23.8"/>
    <path class="st1" d="M647.01,837.33c-.59.07-1.18.08-1.77.01-.11-.02-.2-.13-.2-.27-.18-7.61-.22-15.22-.13-22.84.02-.19.16-.34.33-.34.65-.06,1.29-.04,1.94.03"/>
    <path class="st1" d="M647.01,790.38c-.59-.07-1.18-.08-1.77-.01-.11.02-.2.13-.2.27-.18,7.61-.22,15.22-.13,22.84.02.19.16.34.33.34.65.06,1.29.04,1.94-.03"/>
    <path class="st1" d="M647.35,790.09h.21c.07,0,.12.06.12.14v47.24c0,.08-.06.14-.12.14h-.21l-.14-.06v-.36s.14-47.11.14-47.11Z"/>
    <path class="st1" d="M643.34,836.56c0,.46,1.1.84,2.45.84.11,0,.22,0,.32-.01l.89-.06c.11-.02.2-.13.2-.27v-23.16h-1.97c-.64.01-1.29.02-1.93.04-.27.07-.46.35-.46.68-1.03,7.29-.86,14.73.5,21.95Z"/>
    <path class="st1" d="M643.34,791.18c0-.46,1.1-.84,2.45-.84.11,0,.22,0,.32.01l.89.06c.11.02.2.13.2.27v23.16h-1.97c-.64-.01-1.29-.02-1.93-.04-.27-.07-.46-.35-.46-.68-1.03-7.29-.86-14.73.5-21.95Z"/>
    <path class="st1" d="M645.05,837.17c-.26-.11-.53-.19-.8-.26-.31-.14-.62-.26-.94-.36-.43-.14-.87-.28-1.3-.43-.6-.2-1.2-.35-1.82-.43-.38-.05-.76-.1-1.14-.12-.4-.03-.81-.06-1.21-.08-.96-.05-1.92-.05-2.89,0-.97.05-1.93.19-2.88.4-.72.16-1.41.39-2.1.7-.43.19-.76.47-1.05.89-.02.04-.03.07-.03.12v.42c.04.11.1.18.2.23h18.38c.11,0,.2-.1.2-.23v-.13h0c0-.13-.09-.23-.2-.24-.25-.04-.51-.07-.76-.11-.34-.02-.67-.07-1-.15l-.67-.21Z"/>
    <path class="st1" d="M645.05,790.53c-.26.11-.53.19-.8.26-.31.14-.62.26-.94.36-.43.14-.87.28-1.3.43-.6.2-1.2.35-1.82.43-.38.05-.76.1-1.14.12-.4.03-.81.06-1.21.08-.96.05-1.92.05-2.89,0-.97-.05-1.93-.19-2.88-.4-.72-.16-1.41-.39-2.1-.7-.43-.19-.76-.47-1.05-.89-.02-.04-.03-.07-.03-.12v-.42c.04-.11.1-.18.2-.23h18.38c.11,0,.2.1.2.23v.13h0c0,.13-.09.23-.2.24-.25.04-.51.07-.76.11-.34.02-.67.07-1,.15l-.67.21Z"/>
  </g>
  <g>
    <polyline class="st13" points="648.58 744.13 647.25 744.13 647.25 752.65 648.58 752.65"/>
    <polyline class="st13" points="647.25 753.61 647.25 743.17 645.85 743.17 645.85 753.61 647.25 753.61"/>
  </g>
  <polygon class="st14" points="664.95 723.1 639.59 723.1 639.59 741.53 648.43 741.53 648.43 880.56 594.47 880.56 594.47 897.96 598.67 897.96 598.67 884.76 648.43 884.76 648.43 951.26 624.62 951.26 624.62 933.12 598.67 933.12 598.67 929.66 594.47 929.66 594.47 937.32 620.42 937.32 620.42 980.89 582.09 980.89 582.09 986.05 640.62 986.05 640.62 980.89 624.62 980.89 624.62 955.46 648.43 955.46 653.67 955.46 653.67 741.53 664.95 741.53 664.95 723.1"/>
  <g>
    <polyline class="st0" points="547.48 858.69 547.48 858.66 547.51 858.66"/>
    <polyline class="st11" points="547.93 858.66 555.34 858.66 650.61 858.66"/>
    <polyline class="st0" points="650.82 858.66 650.85 858.66 650.85 858.69"/>
    <line class="st10" x1="650.85" y1="859.11" x2="650.85" y2="910.7"/>
    <polyline class="st0" points="650.85 910.91 650.85 910.94 650.82 910.94"/>
    <line class="st7" x1="650.4" y1="910.94" x2="548.93" y2="910.94"/>
    <polyline class="st0" points="548.72 910.94 548.69 910.94 548.69 910.91"/>
    <polyline class="st4" points="548.69 910.49 548.69 867.87 547.51 858.9"/>
  </g>
</svg>