<?xml version="1.0" encoding="UTF-8"?>
<svg id="Lag_1" xmlns="http://www.w3.org/2000/svg" version="1.1" viewBox="0 0 1200 1697.14">
  <!-- Generator: Adobe Illustrator 29.6.0, SVG Export Plug-In . SVG Version: 2.1.1 Build 207)  -->
  <defs>
    <style>
      .st0 {
        fill: #000016;
      }

      .st1 {
        stroke-dasharray: .06 .43;
      }

      .st1, .st2, .st3, .st4, .st5, .st6, .st7, .st8, .st9, .st10, .st11 {
        stroke-width: .18px;
      }

      .st1, .st2, .st3, .st4, .st6, .st8, .st9, .st10 {
        stroke-linecap: round;
      }

      .st1, .st2, .st3, .st6, .st7, .st8, .st9, .st10, .st11 {
        stroke-linejoin: round;
      }

      .st1, .st3, .st4, .st6, .st8, .st10 {
        fill: none;
      }

      .st1, .st3, .st5, .st6, .st8, .st9, .st11 {
        stroke: #000;
      }

      .st2, .st5, .st7, .st9, .st11 {
        fill: #fff;
      }

      .st2, .st7 {
        stroke: #060305;
      }

      .st12 {
        fill: #e8e3e0;
      }

      .st4 {
        stroke: #979899;
      }

      .st4, .st5 {
        stroke-miterlimit: 10;
      }

      .st13 {
        fill: #979899;
      }

      .st14 {
        fill: #dbd7d5;
      }

      .st6 {
        stroke-dasharray: .06 .42;
      }

      .st8 {
        stroke-dasharray: .06 .43;
      }

      .st10 {
        stroke: #747675;
      }
    </style>
  </defs>
  <polygon class="st12" points="547.9 695.6 547.9 953.51 574.28 953.51 574.28 1015.44 654.28 1015.44 654.28 695.6 547.9 695.6"/>
  <rect class="st14" x="549.24" y="878.43" width="101.38" height="57.55" transform="translate(1199.85 1814.41) rotate(-180)"/>
  <polyline class="st9" points="535.46 813.7 535.61 802.04 559.97 801.96 559.82 813.62 535.46 813.7"/>
  <polyline class="st9" points="640.18 693.8 640.18 699.11 638.38 699.11 638.38 693.8 640.18 693.8"/>
  <path class="st5" d="M555.43,939.23v-10.27c0-3.95,2.84-7.15,6.35-7.15s6.35,3.2,6.35,7.15v10.27h-12.7Z"/>
  <polygon class="st9" points="573.89 939.23 549.56 939.23 549.5 950.12 573.89 950.15 573.89 939.23"/>
  <polygon class="st13" points="534.19 692.76 559.97 692.76 534.19 702.47 534.19 692.76"/>
  <polygon class="st4" points="534.19 692.76 559.97 692.76 534.19 702.47 534.19 692.76"/>
  <path class="st13" d="M534.19,714.96l25.79-9.79v9.79h-25.79ZM534.19,702.47v12.48l25.79-9.79-25.79-2.69Z"/>
  <path class="st4" d="M534.19,714.96l25.79-9.79v9.79h-25.79ZM534.19,702.47v12.48l25.79-9.79-25.79-2.69Z"/>
  <polygon class="st13" points="534.19 702.47 559.97 692.76 559.97 705.17 534.19 702.47"/>
  <polygon class="st4" points="534.19 702.47 559.97 692.76 559.97 705.17 534.19 702.47"/>
  <line class="st10" x1="535.61" y1="805.03" x2="538.52" y2="802.04"/>
  <line class="st10" x1="535.53" y1="809.81" x2="543.3" y2="802.04"/>
  <line class="st10" x1="536.35" y1="813.7" x2="548.09" y2="802.04"/>
  <line class="st10" x1="541.14" y1="813.7" x2="552.87" y2="801.96"/>
  <line class="st10" x1="545.92" y1="813.7" x2="557.66" y2="801.96"/>
  <line class="st10" x1="550.7" y1="813.62" x2="559.97" y2="804.43"/>
  <line class="st10" x1="555.49" y1="813.62" x2="559.9" y2="809.21"/>
  <line class="st10" x1="538.37" y1="813.7" x2="535.53" y2="810.86"/>
  <line class="st10" x1="543.16" y1="813.7" x2="535.53" y2="806.15"/>
  <line class="st10" x1="547.86" y1="813.7" x2="536.28" y2="802.04"/>
  <line class="st10" x1="552.57" y1="813.62" x2="540.99" y2="802.04"/>
  <line class="st10" x1="557.36" y1="813.62" x2="545.7" y2="802.04"/>
  <line class="st10" x1="559.9" y1="811.38" x2="550.48" y2="802.04"/>
  <line class="st10" x1="559.9" y1="806.67" x2="555.19" y2="801.96"/>
  <line class="st10" x1="559.97" y1="802.04" x2="559.97" y2="801.96"/>
  <polygon class="st13" points="642.57 690.81 645.26 690.81 642.57 691.79 642.57 690.81"/>
  <polygon class="st4" points="642.57 690.81 645.26 690.81 642.57 691.79 642.57 690.81"/>
  <polygon class="st13" points="640.18 692.76 642.57 692.76 640.18 693.65 640.18 692.76"/>
  <polygon class="st4" points="640.18 692.76 642.57 692.76 640.18 693.65 640.18 692.76"/>
  <path class="st13" d="M642.57,691.79l5.16-.97-5.16,1.94v-.97ZM645.26,690.81l-2.69.97,5.16-.97h-2.47Z"/>
  <path class="st4" d="M642.57,691.79l5.16-.97-5.16,1.94v-.97ZM645.26,690.81l-2.69.97,5.16-.97h-2.47Z"/>
  <path class="st13" d="M640.18,693.65l25.64-2.84-25.64,9.72v-6.88ZM647.73,690.81l-7.55,2.84,25.64-2.84h-18.09Z"/>
  <path class="st4" d="M640.18,693.65l25.64-2.84-25.64,9.72v-6.88ZM647.73,690.81l-7.55,2.84,25.64-2.84h-18.09Z"/>
  <path class="st13" d="M640.18,715.03l25.64-9.72v9.72h-25.64ZM640.18,700.53v14.5l25.64-9.72-25.64-4.78Z"/>
  <path class="st4" d="M640.18,715.03l25.64-9.72v9.72h-25.64ZM640.18,700.53v14.5l25.64-9.72-25.64-4.78Z"/>
  <polygon class="st13" points="640.18 700.53 665.81 690.81 665.81 705.32 640.18 700.53"/>
  <polygon class="st4" points="640.18 700.53 665.81 690.81 665.81 705.32 640.18 700.53"/>
  <polyline class="st9" points="561.77 693.8 561.77 699.11 559.97 699.11 559.97 693.8 561.77 693.8"/>
  <polyline class="st3" points="612.82 693.8 561.77 693.8 561.77 695.6 612.82 695.6 612.82 693.8"/>
  <line class="st3" x1="614.61" y1="692.61" x2="614.61" y2="693.8"/>
  <polyline class="st9" points="638.38 693.8 614.61 693.8 614.61 696.42 638.38 696.42 638.38 693.8"/>
  <polyline class="st9" points="614.61 693.8 614.61 699.11 612.82 699.11 612.82 693.8 614.61 693.8"/>
  <line class="st3" x1="559.97" y1="692.76" x2="640.18" y2="692.76"/>
  <line class="st3" x1="590.25" y1="878.43" x2="591.52" y2="878.43"/>
  <line class="st3" x1="593.46" y1="878.43" x2="594.73" y2="878.43"/>
  <line class="st3" x1="596.6" y1="878.43" x2="597.87" y2="878.43"/>
  <line class="st3" x1="599.81" y1="878.43" x2="601.08" y2="878.43"/>
  <line class="st3" x1="549.73" y1="860.86" x2="549.73" y2="862.13"/>
  <line class="st3" x1="549.73" y1="864" x2="549.73" y2="865.27"/>
  <line class="st3" x1="549.73" y1="867.22" x2="549.73" y2="868.49"/>
  <line class="st3" x1="549.73" y1="870.36" x2="549.73" y2="871.63"/>
  <line class="st3" x1="549.73" y1="873.57" x2="549.73" y2="874.84"/>
  <polyline class="st3" points="549.73 876.71 549.73 878.43 551.3 878.43"/>
  <line class="st3" x1="553.17" y1="878.43" x2="554.44" y2="878.43"/>
  <line class="st3" x1="556.39" y1="878.43" x2="557.66" y2="878.43"/>
  <line class="st3" x1="559.52" y1="878.43" x2="560.8" y2="878.43"/>
  <line class="st3" x1="562.74" y1="878.43" x2="564.01" y2="878.43"/>
  <line class="st3" x1="571.71" y1="878.43" x2="572.98" y2="878.43"/>
  <line class="st3" x1="574.92" y1="878.43" x2="576.19" y2="878.43"/>
  <line class="st3" x1="578.06" y1="878.43" x2="579.33" y2="878.43"/>
  <line class="st3" x1="581.28" y1="878.43" x2="582.55" y2="878.43"/>
  <line class="st3" x1="564.23" y1="882.99" x2="564.23" y2="890.84"/>
  <path class="st3" d="M565.95,890.8c0-.97-.79-1.76-1.76-1.76s-1.76.79-1.76,1.76.79,1.76,1.76,1.76,1.76-.79,1.76-1.76"/>
  <line class="st3" x1="602.35" y1="926.49" x2="630.98" y2="926.49"/>
  <path class="st3" d="M630.91,926.45c0-15.79-12.8-28.59-28.59-28.59"/>
  <line class="st3" x1="602.35" y1="897.86" x2="602.35" y2="926.49"/>
  <polyline class="st3" points="549.73 882.69 549.73 878.43 604.52 878.43 604.52 896.07 600.26 896.07 600.26 882.69 549.73 882.69"/>
  <polyline class="st3" points="604.52 935.98 604.52 928.21 600.26 928.21 600.26 931.72 573.95 931.72 573.95 950.11 549.73 950.11 549.73 954.37 573.95 954.37 573.95 1011.93 557.73 1011.93 557.73 1017.23 617 1017.23 617 1011.93 578.21 1011.93 578.21 935.98 604.52 935.98"/>
  <line class="st3" x1="647.43" y1="1015.44" x2="647.43" y2="986.81"/>
  <path class="st3" d="M647.39,986.81c-15.79,0-28.59,12.8-28.59,28.59"/>
  <line class="st3" x1="618.8" y1="1015.44" x2="647.43" y2="1015.44"/>
  <polyline class="st3" points="599.36 936.73 578.21 936.73 578.21 1010.88 599.36 1010.88 599.36 936.73"/>
  <polyline class="st3" points="578.21 949.06 599.36 949.06 599.36 936.73 578.21 936.73 578.21 949.06"/>
  <line class="st3" x1="580.68" y1="943.08" x2="586.28" y2="943.08"/>
  <line class="st3" x1="591.22" y1="943.08" x2="596.9" y2="943.08"/>
  <line class="st3" x1="594.06" y1="945.85" x2="594.06" y2="940.24"/>
  <line class="st3" x1="583.44" y1="945.85" x2="583.44" y2="940.24"/>
  <polyline class="st3" points="595.85 1007.29 581.72 1007.29 581.72 993.16 595.85 993.16 595.85 1007.29"/>
  <polyline class="st3" points="578.21 989.65 578.21 1010.88 599.36 1010.88 599.36 989.65 578.21 989.65"/>
  <line class="st3" x1="579.78" y1="1000.27" x2="585.39" y2="1000.27"/>
  <polyline class="st3" points="650.42 1011.93 649.15 1011.93 649.15 1017.23 653.03 1017.23"/>
  <line class="st3" x1="590.25" y1="878.43" x2="591.52" y2="878.43"/>
  <line class="st3" x1="593.46" y1="878.43" x2="594.73" y2="878.43"/>
  <line class="st3" x1="596.6" y1="878.43" x2="597.87" y2="878.43"/>
  <line class="st3" x1="599.81" y1="878.43" x2="601.08" y2="878.43"/>
  <line class="st3" x1="549.73" y1="860.86" x2="549.73" y2="862.13"/>
  <line class="st3" x1="549.73" y1="864" x2="549.73" y2="865.27"/>
  <line class="st3" x1="549.73" y1="867.22" x2="549.73" y2="868.49"/>
  <line class="st3" x1="549.73" y1="870.36" x2="549.73" y2="871.63"/>
  <line class="st3" x1="549.73" y1="873.57" x2="549.73" y2="874.84"/>
  <polyline class="st3" points="549.73 876.71 549.73 878.43 551.3 878.43"/>
  <line class="st3" x1="553.17" y1="878.43" x2="554.44" y2="878.43"/>
  <line class="st3" x1="556.39" y1="878.43" x2="557.66" y2="878.43"/>
  <line class="st3" x1="559.52" y1="878.43" x2="560.8" y2="878.43"/>
  <line class="st3" x1="562.74" y1="878.43" x2="564.01" y2="878.43"/>
  <line class="st3" x1="571.71" y1="878.43" x2="572.98" y2="878.43"/>
  <line class="st3" x1="574.92" y1="878.43" x2="576.19" y2="878.43"/>
  <line class="st3" x1="578.06" y1="878.43" x2="579.33" y2="878.43"/>
  <line class="st3" x1="581.28" y1="878.43" x2="582.55" y2="878.43"/>
  <path class="st9" d="M565.95,890.8c0-.97-.79-1.76-1.76-1.76s-1.76.79-1.76,1.76.79,1.76,1.76,1.76,1.76-.79,1.76-1.76"/>
  <line class="st3" x1="564.23" y1="882.99" x2="564.23" y2="890.84"/>
  <line class="st3" x1="602.35" y1="926.49" x2="630.98" y2="926.49"/>
  <path class="st3" d="M630.91,926.45c0-15.79-12.8-28.59-28.59-28.59"/>
  <line class="st3" x1="602.35" y1="897.86" x2="602.35" y2="926.49"/>
  <line class="st3" x1="647.43" y1="1015.44" x2="647.43" y2="986.81"/>
  <path class="st3" d="M647.39,986.81c-15.79,0-28.59,12.8-28.59,28.59"/>
  <line class="st3" x1="618.8" y1="1015.44" x2="647.43" y2="1015.44"/>
  <polyline class="st9" points="599.36 936.73 578.21 936.73 578.21 1010.88 599.36 1010.88 599.36 936.73"/>
  <polyline class="st3" points="578.21 949.06 599.36 949.06 599.36 936.73 578.21 936.73 578.21 949.06"/>
  <line class="st3" x1="580.68" y1="943.08" x2="586.28" y2="943.08"/>
  <line class="st3" x1="591.22" y1="943.08" x2="596.9" y2="943.08"/>
  <line class="st3" x1="594.06" y1="945.85" x2="594.06" y2="940.24"/>
  <line class="st3" x1="583.44" y1="945.85" x2="583.44" y2="940.24"/>
  <polyline class="st9" points="595.85 1007.29 581.72 1007.29 581.72 993.16 595.85 993.16 595.85 1007.29"/>
  <polyline class="st3" points="578.21 989.65 578.21 1010.88 599.36 1010.88 599.36 989.65 578.21 989.65"/>
  <line class="st9" x1="579.78" y1="1000.27" x2="585.39" y2="1000.27"/>
  <line class="st3" x1="544.43" y1="860.86" x2="544.43" y2="862.13"/>
  <line class="st3" x1="544.43" y1="864" x2="544.43" y2="865.27"/>
  <line class="st3" x1="544.43" y1="867.22" x2="544.43" y2="868.49"/>
  <line class="st3" x1="544.43" y1="870.36" x2="544.43" y2="871.63"/>
  <line class="st3" x1="544.43" y1="873.57" x2="544.43" y2="874.84"/>
  <path class="st9" d="M597.94,882.74v9.31c0,.21-.13.37-.3.37h-16.97c-.21,0-.37-.17-.37-.37v-9.31"/>
  <path class="st3" d="M588.45,884.47c0,.35.28.64.64.64s.64-.28.64-.64-.28-.64-.64-.64-.64.28-.64.64"/>
  <path class="st3" d="M588.3,888.95c0,.43.35.78.78.78s.78-.35.78-.78-.35-.78-.78-.78-.78.35-.78.78"/>
  <path class="st3" d="M587.93,888.95c0,.64.52,1.16,1.16,1.16s1.16-.52,1.16-1.16-.52-1.16-1.16-1.16-1.16.52-1.16,1.16"/>
  <path class="st3" d="M581.05,885.85h16.15c.21,0,.37.17.37.37v5.46c0,.21-.17.37-.37.37h-16.15c-.21,0-.37-.17-.37-.37v-5.46c0-.21.17-.37.37-.37Z"/>
  <rect class="st9" x="586.89" y="857.35" width="17.64" height="21.23"/>
  <rect class="st9" x="568.28" y="857.35" width="17.71" height="21.23"/>
  <rect class="st9" x="549.73" y="857.35" width="17.73" height="21.23"/>
  <line class="st3" x1="573.88" y1="954.39" x2="549.73" y2="1011.94"/>
  <line class="st3" x1="549.73" y1="954.39" x2="573.88" y2="1011.94"/>
  <rect class="st8" x="549.15" y="878.43" width="101.38" height="57.54" transform="translate(1199.68 1814.4) rotate(-180)"/>
  <g>
    <polyline class="st3" points="578.36 911.2 578.36 911.23 578.33 911.23"/>
    <line class="st6" x1="577.91" y1="911.23" x2="550.35" y2="911.23"/>
    <polyline class="st3" points="550.14 911.23 550.11 911.23 550.11 911.2"/>
    <line class="st6" x1="550.11" y1="910.78" x2="550.11" y2="883.21"/>
    <polyline class="st3" points="550.11 883 550.11 882.97 550.14 882.97"/>
    <line class="st6" x1="550.56" y1="882.97" x2="578.12" y2="882.97"/>
    <polyline class="st3" points="578.33 882.97 578.36 882.97 578.36 883"/>
    <line class="st6" x1="578.36" y1="883.42" x2="578.36" y2="910.99"/>
  </g>
  <g>
    <path class="st3" d="M614.69,692.6s0-.02,0-.03"/>
    <path class="st1" d="M614.71,692.15c.29-3.1,3.08-12.24,3.8-12.24l19.36,12.99.23.16"/>
    <line class="st3" x1="638.28" y1="693.19" x2="638.31" y2="693.21"/>
  </g>
  <g>
    <path class="st2" d="M611.2,725.08c-7.63,1.24-15.45,1.37-23.14.37-.33,0-.61-.19-.69-.47-.02-6.44-.05-12.87-.07-19.31"/>
    <path class="st2" d="M611.2,725.08c.13-.02.22-.11.23-.22v-18.92l-24.15-.26c-.02,6.44-.05,12.87-.07,19.31-.07.28-.36.47-.69.47-7.68,1-15.5.87-23.14-.37-.13-.02-.22-.11-.23-.22v-19.18h24.13"/>
    <path class="st2" d="M611.09,704.69c.07.6.08,1.19.01,1.8-.02.12-.13.2-.27.2-7.72.18-15.43.22-23.15.13-.19-.02-.34-.16-.34-.33-.06-.66-.04-1.31.03-1.97"/>
    <path class="st2" d="M563.49,704.69c-.07.6-.08,1.19-.01,1.8.02.12.13.2.27.2,7.72.18,15.43.22,23.15.13.19-.02.34-.16.34-.33.06-.66.04-1.31-.03-1.97"/>
    <path class="st2" d="M563.2,704.35v-.21c0-.07.07-.13.15-.13h47.9c.08,0,.15.06.15.13v.21l-.06.15h-.36s-47.76-.15-47.76-.15Z"/>
    <path class="st2" d="M610.31,708.41c.47,0,.85-1.11.85-2.49,0-.11,0-.22-.01-.33l-.06-.9c-.02-.12-.13-.2-.27-.2h-23.49v2c.01.65.02,1.3.04,1.96.07.28.36.47.69.47,7.39,1.05,14.94.88,22.25-.51Z"/>
    <path class="st2" d="M564.31,708.41c-.47,0-.85-1.11-.85-2.49,0-.11,0-.22.01-.33l.06-.9c.02-.12.13-.2.27-.2h23.49v2c-.01.65-.02,1.3-.04,1.96-.07.28-.36.47-.69.47-7.39,1.05-14.94.88-22.25-.51Z"/>
    <path class="st2" d="M610.94,706.68c-.11.27-.19.54-.26.81-.14.31-.26.63-.37.95-.14.44-.29.88-.44,1.32-.2.61-.35,1.22-.44,1.84-.06.38-.1.77-.13,1.15-.03.41-.06.82-.08,1.23-.05.98-.05,1.95,0,2.93.05.99.19,1.96.41,2.92.16.73.4,1.43.71,2.13.19.44.48.77.9,1.06.04.02.07.04.12.04h.42c.12-.04.18-.1.23-.2v-18.64c0-.11-.1-.2-.23-.2h-.13c-.13,0-.23.09-.24.2-.04.26-.07.51-.11.77-.02.34-.07.68-.16,1.02l-.21.68Z"/>
    <path class="st2" d="M563.65,706.68c.11.27.19.54.26.81.14.31.26.63.37.95.14.44.29.88.44,1.32.2.61.35,1.22.44,1.84.06.38.1.77.13,1.15.03.41.06.82.08,1.23.05.98.05,1.95,0,2.93-.05.99-.19,1.96-.41,2.92-.16.73-.4,1.43-.71,2.13-.19.44-.48.77-.9,1.06-.04.02-.07.04-.12.04h-.42c-.12-.04-.18-.1-.23-.2v-18.64c0-.11.1-.2.23-.2h.13c.13,0,.23.09.24.2.04.26.07.51.11.77.02.34.07.68.16,1.02l.21.68Z"/>
  </g>
  <g>
    <g>
      <path class="st9" d="M617.57,794.16c0-4.58-3.95-8.3-8.83-8.3-3.59,0-7.14,2.35-8.37,5.65-.17.45-.51,1.4-.46,2.65.16,3.9,4.04,8.3,8.83,8.3s8.83-3.72,8.83-8.3Z"/>
      <path class="st3" d="M601.08,792.3c0-2.82,3.43-5.1,7.66-5.1"/>
      <path class="st3" d="M616.4,792.3c0-2.82-3.43-5.1-7.66-5.1"/>
      <path class="st3" d="M616.4,792.3c0,.56.44,1.01.98,1.01"/>
      <path class="st3" d="M601.08,792.3c0,.56-.44,1.01-.98,1.01"/>
      <g>
        <path class="st9" d="M595.83,794.16c0-4.58-3.95-8.3-8.83-8.3-3.59,0-7.14,2.35-8.37,5.65-.17.45-.51,1.4-.46,2.65.16,3.9,4.04,8.3,8.83,8.3s8.83-3.72,8.83-8.3Z"/>
        <path class="st3" d="M579.34,792.3c0-2.82,3.43-5.1,7.66-5.1"/>
        <path class="st3" d="M594.66,792.3c0-2.82-3.43-5.1-7.66-5.1"/>
        <path class="st3" d="M594.66,792.3c0,.56.44,1.01.98,1.01"/>
        <path class="st3" d="M579.34,792.3c0,.56-.48,1.01-1.07,1.01"/>
      </g>
    </g>
    <g>
      <path class="st9" d="M617.57,821.5c0,4.58-3.95,8.3-8.83,8.3-3.59,0-7.14-2.35-8.37-5.65-.17-.45-.51-1.4-.46-2.65.16-3.9,4.04-8.3,8.83-8.3s8.83,3.72,8.83,8.3Z"/>
      <path class="st3" d="M601.08,823.36c0,2.82,3.43,5.1,7.66,5.1"/>
      <path class="st3" d="M616.4,823.36c0,2.82-3.43,5.1-7.66,5.1"/>
      <path class="st3" d="M616.4,823.36c0-.56.44-1.01.98-1.01"/>
      <path class="st3" d="M601.08,823.36c0-.56-.44-1.01-.98-1.01"/>
      <g>
        <path class="st9" d="M595.83,821.5c0,4.58-3.95,8.3-8.83,8.3-3.59,0-7.14-2.35-8.37-5.65-.17-.45-.51-1.4-.46-2.65.16-3.9,4.04-8.3,8.83-8.3s8.83,3.72,8.83,8.3Z"/>
        <path class="st3" d="M579.34,823.36c0,2.82,3.43,5.1,7.66,5.1"/>
        <path class="st3" d="M594.66,823.36c0,2.82-3.43,5.1-7.66,5.1"/>
        <path class="st3" d="M594.66,823.36c0-.56.44-1.01.98-1.01"/>
        <path class="st3" d="M579.34,823.36c0-.56-.48-1.01-1.07-1.01"/>
      </g>
    </g>
    <rect class="st9" x="586.39" y="785.04" width="22.95" height="44.99" transform="translate(-209.66 1405.4) rotate(-90)"/>
  </g>
  <polygon class="st0" points="534.19 692.76 534.19 714.96 544.43 714.96 544.43 802.04 549.73 802.04 549.73 714.96 559.97 714.96 559.97 692.76 534.19 692.76"/>
  <polygon class="st0" points="578.21 1011.93 578.21 935.98 604.52 935.98 604.52 928.21 600.26 928.21 600.26 931.72 573.95 931.72 573.95 950.11 549.73 950.11 549.73 882.69 600.26 882.69 600.26 896.07 604.52 896.07 604.52 878.43 549.73 878.43 549.73 813.7 544.43 813.7 544.43 954.67 549.73 954.67 549.73 954.37 573.95 954.37 573.95 1011.93 557.73 1011.93 557.73 1017.23 617 1017.23 617 1011.93 578.21 1011.93"/>
  <circle class="st7" cx="627.7" cy="715.17" r="9.69"/>
  <g>
    <polyline class="st11" points="650.72 718.12 649.38 718.12 649.38 726.76 650.72 726.76"/>
    <polyline class="st11" points="649.38 727.74 649.38 717.14 647.96 717.14 647.96 727.74 649.38 727.74"/>
  </g>
  <polygon class="st0" points="665.81 715.03 665.81 690.81 642.57 690.81 642.57 692.76 640.18 692.76 640.18 715.03 650.42 715.03 650.42 1011.93 649.15 1011.93 649.15 1017.23 653.03 1017.23 656.92 1017.23 656.92 1011.93 655.72 1011.93 655.72 715.03 665.81 715.03"/>
</svg>