<?xml version="1.0" encoding="UTF-8"?>
<svg id="Lag_1" xmlns="http://www.w3.org/2000/svg" version="1.1" viewBox="0 0 1200 1697.14">
  <!-- Generator: Adobe Illustrator 29.6.0, SVG Export Plug-In . SVG Version: 2.1.1 Build 207)  -->
  <defs>
    <style>
      .st0, .st1, .st2, .st3, .st4, .st5, .st6, .st7, .st8, .st9, .st10, .st11, .st12 {
        stroke-width: .18px;
      }

      .st0, .st1, .st2, .st3, .st4, .st5, .st6, .st8, .st9, .st10, .st12 {
        stroke-linecap: round;
      }

      .st0, .st1, .st2, .st4, .st5, .st6, .st7, .st9, .st10, .st11, .st12 {
        stroke: #000;
      }

      .st0, .st2, .st4, .st5, .st6, .st8, .st9, .st12 {
        fill: none;
      }

      .st0, .st6, .st7, .st12 {
        stroke-miterlimit: 10;
      }

      .st13 {
        fill: #000016;
      }

      .st1 {
        fill: #dddcdc;
      }

      .st1, .st2, .st3, .st4, .st5, .st8, .st9, .st10, .st11 {
        stroke-linejoin: round;
      }

      .st2 {
        stroke-dasharray: .06 .43;
      }

      .st3 {
        stroke: #060305;
      }

      .st3, .st7, .st10, .st11 {
        fill: #fff;
      }

      .st14 {
        fill: #e8e3e0;
      }

      .st5 {
        stroke-dasharray: .06 .43;
      }

      .st6 {
        stroke-dasharray: .06 .42;
      }

      .st8 {
        stroke: #767676;
      }

      .st15 {
        fill: #dbd7d5;
      }

      .st9 {
        stroke-dasharray: .06 .42;
      }

      .st12 {
        stroke-dasharray: .06 .42;
      }
    </style>
  </defs>
  <polygon class="st14" points="623.34 954.76 651.21 954.76 651.21 723.5 546.73 723.5 546.73 985.02 623.34 985.02 623.34 954.76"/>
  <path class="st7" d="M630.37,940.99v-10.18c0-3.92,2.82-7.09,6.3-7.09s6.3,3.17,6.3,7.09v10.18h-12.59Z"/>
  <polygon class="st10" points="648.68 940.99 624.55 940.99 624.49 951.79 648.68 951.82 648.68 940.99"/>
  <rect class="st15" x="549.09" y="858.72" width="100.55" height="52.9"/>
  <g>
    <polyline class="st0" points="549.09 911.59 549.09 911.62 549.12 911.62"/>
    <line class="st6" x1="549.55" y1="911.62" x2="649.4" y2="911.62"/>
    <polyline class="st0" points="649.62 911.62 649.64 911.62 649.64 911.59"/>
    <line class="st12" x1="649.64" y1="911.17" x2="649.64" y2="858.96"/>
    <polyline class="st0" points="649.64 858.75 649.64 858.72 649.62 858.72"/>
    <line class="st6" x1="649.19" y1="858.72" x2="549.34" y2="858.72"/>
    <polyline class="st0" points="549.12 858.72 549.09 858.72 549.09 858.75"/>
    <line class="st12" x1="549.09" y1="859.18" x2="549.09" y2="911.38"/>
  </g>
  <rect class="st10" x="631.12" y="859.65" width="17.5" height="21.06"/>
  <rect class="st10" x="612.66" y="859.65" width="17.57" height="21.06"/>
  <rect class="st10" x="594.26" y="859.65" width="17.59" height="21.06"/>
  <polyline class="st10" points="572.38 723.57 572.38 728.83 570.6 728.83 570.6 723.57 572.38 723.57"/>
  <polyline class="st10" points="614.64 723.57 572.38 723.57 572.38 725.35 614.64 725.28 614.64 723.57"/>
  <polyline class="st10" points="640 723.5 616.35 723.57 616.35 726.17 640 726.17 640 723.5"/>
  <polyline class="st10" points="641.78 723.5 641.78 728.76 640 728.76 640 723.5 641.78 723.5"/>
  <polyline class="st10" points="616.35 723.57 616.42 728.76 614.64 728.76 614.64 723.57 616.35 723.57"/>
  <line class="st4" x1="641.78" y1="722.46" x2="570.6" y2="722.53"/>
  <line class="st4" x1="648.6" y1="880.67" x2="647.04" y2="880.67"/>
  <line class="st4" x1="645.19" y1="880.67" x2="643.93" y2="880.67"/>
  <line class="st4" x1="642" y1="880.67" x2="640.74" y2="880.67"/>
  <line class="st4" x1="638.89" y1="880.67" x2="637.63" y2="880.67"/>
  <line class="st4" x1="635.7" y1="880.67" x2="634.44" y2="880.67"/>
  <line class="st4" x1="648.6" y1="863.25" x2="648.6" y2="864.51"/>
  <line class="st4" x1="648.6" y1="866.36" x2="648.6" y2="867.62"/>
  <line class="st4" x1="648.6" y1="869.55" x2="648.6" y2="870.81"/>
  <line class="st4" x1="648.6" y1="872.66" x2="648.6" y2="873.92"/>
  <line class="st4" x1="648.6" y1="875.85" x2="648.6" y2="877.11"/>
  <line class="st4" x1="648.6" y1="878.96" x2="648.6" y2="880.67"/>
  <line class="st4" x1="611.83" y1="880.67" x2="610.27" y2="880.67"/>
  <line class="st4" x1="608.41" y1="880.67" x2="607.15" y2="880.67"/>
  <line class="st4" x1="605.23" y1="880.67" x2="603.97" y2="880.67"/>
  <line class="st4" x1="602.11" y1="880.67" x2="600.85" y2="880.67"/>
  <line class="st4" x1="598.92" y1="880.67" x2="597.66" y2="880.67"/>
  <line class="st4" x1="630.21" y1="880.67" x2="628.65" y2="880.67"/>
  <line class="st4" x1="626.8" y1="880.67" x2="625.54" y2="880.67"/>
  <line class="st4" x1="623.61" y1="880.67" x2="622.35" y2="880.67"/>
  <line class="st4" x1="620.5" y1="880.67" x2="619.24" y2="880.67"/>
  <line class="st4" x1="617.31" y1="880.67" x2="616.05" y2="880.67"/>
  <path class="st10" d="M632.44,892.94c0,.96.78,1.74,1.74,1.74s1.74-.78,1.74-1.74-.78-1.74-1.74-1.74-1.74.78-1.74,1.74"/>
  <line class="st4" x1="596.4" y1="928.27" x2="568.01" y2="928.27"/>
  <path class="st4" d="M596.37,899.87c-15.66,0-28.36,12.7-28.36,28.36"/>
  <line class="st4" x1="596.4" y1="899.94" x2="596.4" y2="928.27"/>
  <line class="st4" x1="551.7" y1="985.06" x2="551.7" y2="956.66"/>
  <path class="st4" d="M580.02,985.02c0-15.66-12.7-28.36-28.36-28.36"/>
  <line class="st4" x1="580.09" y1="985.06" x2="551.7" y2="985.06"/>
  <polyline class="st10" points="599.37 938.42 620.35 938.42 620.35 980.46 599.37 980.46 599.37 938.42"/>
  <polyline class="st4" points="620.35 950.73 599.37 950.73 599.37 938.42 620.35 938.42 620.35 950.73"/>
  <line class="st4" x1="617.9" y1="944.8" x2="612.34" y2="944.8"/>
  <line class="st4" x1="607.45" y1="944.8" x2="601.82" y2="944.8"/>
  <line class="st4" x1="604.63" y1="947.54" x2="604.63" y2="941.98"/>
  <line class="st4" x1="615.09" y1="947.54" x2="615.09" y2="941.98"/>
  <polyline class="st4" points="602.85 976.97 616.87 976.97 616.87 962.96 602.85 962.96 602.85 976.97"/>
  <polyline class="st4" points="620.35 959.48 620.35 980.46 599.37 980.46 599.37 959.48 620.35 959.48"/>
  <line class="st4" x1="618.79" y1="970.01" x2="613.23" y2="970.01"/>
  <polyline class="st10" points="537.76 908.99 555.63 909.21 555.55 927.75 537.24 927.52 537.76 908.99"/>
  <line class="st8" x1="537.69" y1="911.88" x2="540.58" y2="908.99"/>
  <line class="st8" x1="537.54" y1="916.77" x2="545.25" y2="909.06"/>
  <line class="st8" x1="537.46" y1="921.59" x2="549.85" y2="909.14"/>
  <line class="st8" x1="537.32" y1="926.49" x2="554.52" y2="909.21"/>
  <line class="st8" x1="540.87" y1="927.6" x2="555.55" y2="912.84"/>
  <line class="st8" x1="545.55" y1="927.67" x2="555.55" y2="917.59"/>
  <line class="st8" x1="550.22" y1="927.75" x2="555.55" y2="922.33"/>
  <line class="st8" x1="540.73" y1="927.6" x2="537.39" y2="924.19"/>
  <line class="st8" x1="545.55" y1="927.67" x2="537.46" y2="919.59"/>
  <line class="st8" x1="550.29" y1="927.75" x2="537.61" y2="914.99"/>
  <line class="st8" x1="555.11" y1="927.75" x2="537.76" y2="910.47"/>
  <line class="st8" x1="555.55" y1="923.52" x2="541.02" y2="909.06"/>
  <line class="st8" x1="555.55" y1="918.85" x2="545.84" y2="909.06"/>
  <line class="st8" x1="555.55" y1="914.11" x2="550.59" y2="909.14"/>
  <path class="st10" d="M618.27,884.97v9.23c0,.2-.13.37-.3.37h-16.83c-.2,0-.37-.17-.37-.37v-9.23"/>
  <path class="st4" d="M608.85,886.67c0,.35.28.63.63.63s.63-.28.63-.63-.28-.63-.63-.63-.63.28-.63.63"/>
  <path class="st4" d="M608.71,891.12c0,.43.35.78.78.78s.78-.35.78-.78-.35-.78-.78-.78-.78.35-.78.78"/>
  <path class="st4" d="M608.34,891.12c0,.63.51,1.15,1.15,1.15s1.15-.51,1.15-1.15-.51-1.15-1.15-1.15-1.15.51-1.15,1.15"/>
  <path class="st4" d="M601.51,888.05h16.02c.2,0,.37.17.37.37v5.41c0,.2-.17.37-.37.37h-16.02c-.2,0-.37-.17-.37-.37v-5.41c0-.2.17-.37.37-.37Z"/>
  <g>
    <polyline class="st4" points="620.16 913.2 620.16 913.23 620.19 913.23"/>
    <line class="st5" x1="620.62" y1="913.23" x2="647.94" y2="913.23"/>
    <polyline class="st4" points="648.16 913.23 648.18 913.23 648.18 913.2"/>
    <line class="st2" x1="648.18" y1="912.78" x2="648.18" y2="885.43"/>
    <polyline class="st4" points="648.18 885.22 648.18 885.19 648.16 885.19"/>
    <line class="st5" x1="647.73" y1="885.19" x2="620.4" y2="885.19"/>
    <polyline class="st4" points="620.19 885.19 620.16 885.19 620.16 885.22"/>
    <line class="st2" x1="620.16" y1="885.65" x2="620.16" y2="912.99"/>
  </g>
  <line class="st4" x1="634.21" y1="885.19" x2="634.21" y2="892.98"/>
  <g>
    <path class="st4" d="M616.57,722.97s0-.02,0-.03"/>
    <path class="st9" d="M616.59,722.52c.28-3.07,3.05-12.14,3.77-12.14l19.2,12.89.23.16"/>
    <line class="st4" x1="639.97" y1="723.55" x2="640" y2="723.57"/>
  </g>
  <line class="st1" x1="653.86" y1="955.99" x2="624.58" y2="981.57"/>
  <line class="st1" x1="624.58" y1="955.99" x2="653.86" y2="981.57"/>
  <polygon class="st13" points="570.6 722.53 566.82 722.53 544.13 722.53 543.99 739.72 543.99 739.72 543.99 739.72 543.99 740.25 543.99 740.25 543.99 909.06 549.35 909.14 549.35 740.28 570.6 740.4 570.6 722.53"/>
  <polygon class="st13" points="548.73 981.57 548.73 927.67 543.47 927.6 543.47 930.67 543.47 940.87 543.47 946.5 543.47 969.93 543.47 986.76 546.14 986.76 549.99 986.76 549.99 981.57 548.73 981.57"/>
  <g>
    <g>
      <path class="st10" d="M552.82,784.6c0,4.55,3.92,8.23,8.75,8.23,3.56,0,7.09-2.33,8.3-5.61.17-.45.5-1.39.45-2.62-.15-3.87-4.01-8.23-8.75-8.23s-8.75,3.69-8.75,8.23Z"/>
      <path class="st4" d="M569.17,786.44c0,2.79-3.4,5.05-7.6,5.05"/>
      <path class="st4" d="M553.97,786.44c0,2.79,3.4,5.05,7.6,5.05"/>
      <path class="st4" d="M553.97,786.44c0-.55-.44-1-.98-1"/>
      <path class="st4" d="M569.17,786.44c0-.55.44-1,.98-1"/>
      <g>
        <path class="st10" d="M574.38,784.6c0,4.55,3.92,8.23,8.75,8.23,3.56,0,7.09-2.33,8.3-5.61.17-.45.5-1.39.45-2.62-.15-3.87-4.01-8.23-8.75-8.23s-8.75,3.69-8.75,8.23Z"/>
        <path class="st4" d="M590.74,786.44c0,2.79-3.4,5.05-7.6,5.05"/>
        <path class="st4" d="M575.54,786.44c0,2.79,3.4,5.05,7.6,5.05"/>
        <path class="st4" d="M575.54,786.44c0-.55-.44-1-.98-1"/>
        <path class="st4" d="M590.74,786.44c0-.55.47-1,1.06-1"/>
      </g>
    </g>
    <g>
      <path class="st10" d="M552.82,757.48c0-4.55,3.92-8.23,8.75-8.23,3.56,0,7.09,2.33,8.3,5.61.17.45.5,1.39.45,2.62-.15,3.87-4.01,8.23-8.75,8.23s-8.75-3.69-8.75-8.23Z"/>
      <path class="st4" d="M569.17,755.64c0-2.79-3.4-5.05-7.6-5.05"/>
      <path class="st4" d="M553.97,755.64c0-2.79,3.4-5.05,7.6-5.05"/>
      <path class="st4" d="M553.97,755.64c0,.55-.44,1-.98,1"/>
      <path class="st4" d="M569.17,755.64c0,.55.44,1,.98,1"/>
      <g>
        <path class="st10" d="M574.38,757.48c0-4.55,3.92-8.23,8.75-8.23,3.56,0,7.09,2.33,8.3,5.61.17.45.5,1.39.45,2.62-.15,3.87-4.01,8.23-8.75,8.23s-8.75-3.69-8.75-8.23Z"/>
        <path class="st4" d="M590.74,755.64c0-2.79-3.4-5.05-7.6-5.05"/>
        <path class="st4" d="M575.54,755.64c0-2.79,3.4-5.05,7.6-5.05"/>
        <path class="st4" d="M575.54,755.64c0,.55-.44,1-.98,1"/>
        <path class="st4" d="M590.74,755.64c0,.55.47,1,1.06,1"/>
      </g>
    </g>
    <rect class="st10" x="560.97" y="749.03" width="22.77" height="44.62" transform="translate(1343.69 198.98) rotate(90)"/>
  </g>
  <circle class="st3" cx="612.93" cy="828.54" r="9.61"/>
  <g>
    <path class="st3" d="M627.01,838.49c-1.23-7.57-1.36-15.33-.37-22.95,0-.33.19-.61.47-.68,6.38-.02,12.77-.05,19.15-.07"/>
    <path class="st3" d="M627.01,838.49c.02.13.11.22.22.23h18.77l.26-23.95c-6.38-.02-12.77-.05-19.15-.07-.27-.07-.47-.36-.47-.68-.99-7.62-.86-15.38.37-22.95.02-.13.11-.22.22-.23h19.03v23.93"/>
    <path class="st3" d="M647.22,838.39c-.6.07-1.18.08-1.78.01-.12-.02-.2-.13-.2-.27-.18-7.66-.22-15.31-.13-22.97.02-.19.16-.34.33-.34.65-.06,1.3-.04,1.95.03"/>
    <path class="st3" d="M647.22,791.17c-.6-.07-1.18-.08-1.78-.01-.12.02-.2.13-.2.27-.18,7.66-.22,15.31-.13,22.97.02.19.16.34.33.34.65.06,1.3.04,1.95-.03"/>
    <path class="st3" d="M647.57,790.88h.21c.07,0,.12.06.12.14v47.51c0,.08-.06.14-.12.14h-.21l-.14-.06v-.36s.14-47.37.14-47.37Z"/>
    <path class="st3" d="M643.54,837.61c0,.47,1.1.84,2.47.84.11,0,.22,0,.33-.01l.89-.06c.12-.02.2-.13.2-.27v-23.3h-1.98c-.65.01-1.29.02-1.94.04-.27.07-.47.36-.47.68-1.04,7.33-.87,14.82.5,22.07Z"/>
    <path class="st3" d="M643.54,791.98c0-.47,1.1-.84,2.47-.84.11,0,.22,0,.33.01l.89.06c.12.02.2.13.2.27v23.3h-1.98c-.65-.01-1.29-.02-1.94-.04-.27-.07-.47-.36-.47-.68-1.04-7.33-.87-14.82.5-22.07Z"/>
    <path class="st3" d="M645.26,838.23c-.27-.11-.53-.19-.81-.26-.31-.14-.62-.26-.94-.36-.44-.14-.87-.29-1.3-.43-.6-.2-1.21-.35-1.83-.44-.38-.05-.76-.1-1.14-.12-.41-.03-.81-.06-1.22-.08-.97-.05-1.93-.05-2.9,0-.98.05-1.94.19-2.9.41-.72.16-1.42.39-2.11.7-.43.19-.76.47-1.05.9-.02.04-.03.07-.03.12v.42c.04.11.1.18.2.23h18.49c.11,0,.2-.1.2-.23v-.13h0c0-.13-.09-.23-.2-.24-.26-.04-.51-.07-.77-.11-.34-.02-.67-.07-1.01-.15l-.67-.21Z"/>
    <path class="st3" d="M645.26,791.33c-.27.11-.53.19-.81.26-.31.14-.62.26-.94.36-.44.14-.87.29-1.3.43-.6.2-1.21.35-1.83.44-.38.05-.76.1-1.14.12-.41.03-.81.06-1.22.08-.97.05-1.93.05-2.9,0-.98-.05-1.94-.19-2.9-.41-.72-.16-1.42-.39-2.11-.7-.43-.19-.76-.47-1.05-.9-.02-.04-.03-.07-.03-.12v-.42c.04-.11.1-.18.2-.23h18.49c.11,0,.2.1.2.23v.13h0c0,.13-.09.23-.2.24-.26.04-.51.07-.77.11-.34.02-.67.07-1.01.15l-.67.21Z"/>
  </g>
  <g>
    <polyline class="st11" points="648.89 743.03 647.56 743.03 647.56 751.6 648.89 751.6"/>
    <polyline class="st11" points="647.56 752.57 647.56 742.06 646.15 742.06 646.15 752.57 647.56 752.57"/>
  </g>
  <polygon class="st13" points="641.78 722.46 641.78 740.4 648.6 740.4 648.6 880.67 594.25 880.67 594.25 898.17 598.48 898.17 598.48 884.89 648.6 884.89 648.6 951.77 624.58 951.77 624.58 933.53 598.48 933.53 598.48 930.04 594.25 930.04 594.25 937.76 620.35 937.76 620.35 981.57 581.87 981.57 581.87 986.76 640.66 986.76 640.66 981.57 624.58 981.57 624.58 955.99 648.6 955.99 653.86 955.99 653.86 740.4 662.76 740.4 662.76 722.46 641.78 722.46"/>
</svg>