<?xml version="1.0" encoding="UTF-8"?>
<svg id="Lag_1" xmlns="http://www.w3.org/2000/svg" version="1.1" viewBox="0 0 1200 1697.14">
  <!-- Generator: Adobe Illustrator 29.6.0, SVG Export Plug-In . SVG Version: 2.1.1 Build 207)  -->
  <defs>
    <style>
      .st0 {
        stroke-dasharray: .06 .42;
      }

      .st0, .st1, .st2, .st3, .st4, .st5, .st6, .st7, .st8, .st9, .st10, .st11, .st12 {
        stroke-width: .18px;
      }

      .st0, .st1, .st2, .st3, .st4, .st5, .st7, .st8, .st9, .st10, .st11, .st12 {
        stroke-linejoin: round;
      }

      .st0, .st1, .st2, .st4, .st5, .st8, .st10, .st11, .st12 {
        stroke-linecap: round;
      }

      .st0, .st2, .st3, .st4, .st5, .st6, .st8, .st9, .st10, .st11, .st12 {
        stroke: #000;
      }

      .st0, .st2, .st3, .st4, .st5, .st10, .st11, .st12 {
        fill: none;
      }

      .st13 {
        fill: #000016;
      }

      .st1, .st6, .st7, .st8, .st9 {
        fill: #fff;
      }

      .st1, .st7 {
        stroke: #060305;
      }

      .st14 {
        fill: #e8e3e0;
      }

      .st4 {
        stroke-dasharray: .06 .43;
      }

      .st5 {
        stroke-dasharray: .06 .42;
      }

      .st6 {
        stroke-miterlimit: 10;
      }

      .st15 {
        fill: #dbd7d5;
      }

      .st10 {
        stroke-dasharray: .06 .42;
      }

      .st11 {
        stroke-dasharray: .06 .43;
      }

      .st12 {
        stroke-dasharray: .06 .42;
      }
    </style>
  </defs>
  <path class="st14" d="M531.73,732.33v172.36h17.98v60.04h130.64v-232.4h-148.61ZM677.51,882.27h-31.85v-28.75h31.85v28.75Z"/>
  <rect class="st15" x="559.19" y="899.88" width="62.5" height="52.91" transform="translate(-3.3 2.11) rotate(-.2)"/>
  <g>
    <path class="st2" d="M529.44,819.18s-.02,0-.03,0"/>
    <path class="st0" d="M528.99,819.21c-2.89.29-11.29,2.97-11.29,3.67l12.02,18.7.14.22"/>
    <line class="st2" x1="529.99" y1="841.97" x2="530" y2="842"/>
  </g>
  <line class="st2" x1="661.29" y1="952.38" x2="661.37" y2="944.58"/>
  <path class="st8" d="M659.59,944.53c.01-.96.8-1.74,1.76-1.73.96.01,1.74.8,1.73,1.76-.01.96-.8,1.74-1.76,1.73-.96-.01-1.74-.8-1.73-1.76"/>
  <path class="st9" d="M645.09,952.76l.04-9.24c0-.21-.13-.37-.3-.37l-16.85-.08c-.21,0-.37.16-.37.37l-.04,9.24"/>
  <path class="st3" d="M635.68,951c0-.35.29-.63.63-.63s.63.29.63.63-.29.63-.63.63-.63-.29-.63-.63"/>
  <path class="st3" d="M635.55,946.55c0-.43.35-.78.78-.78s.78.35.78.78-.35.78-.78.78-.78-.35-.78-.78"/>
  <path class="st3" d="M635.18,946.55c0-.64.52-1.15,1.16-1.14s1.15.52,1.14,1.16-.52,1.15-1.16,1.14-1.15-.52-1.14-1.16"/>
  <path class="st3" d="M633.66,938.17h5.42c.2,0,.37.17.37.37v16.03c0,.2-.17.37-.37.37h-5.42c-.2,0-.37-.17-.37-.37v-16.03c0-.2.17-.37.37-.37Z" transform="translate(-313.13 1578.52) rotate(-89.73)"/>
  <g>
    <polyline class="st2" points="647.12 923.97 647.12 923.94 647.14 923.94"/>
    <line class="st10" x1="647.57" y1="923.94" x2="675.15" y2="923.94"/>
    <polyline class="st2" points="675.36 923.94 675.39 923.94 675.39 923.97"/>
    <line class="st11" x1="675.39" y1="924.4" x2="675.39" y2="952.14"/>
    <polyline class="st2" points="675.39 952.35 675.39 952.38 675.36 952.38"/>
    <line class="st10" x1="674.94" y1="952.38" x2="647.36" y2="952.38"/>
    <polyline class="st2" points="647.14 952.38 647.12 952.38 647.12 952.35"/>
    <line class="st11" x1="647.12" y1="951.93" x2="647.12" y2="924.18"/>
  </g>
  <path class="st6" d="M655.17,896.63v10.19c0,3.92,2.82,7.1,6.3,7.1,3.48,0,6.3-3.17,6.3-7.1v-10.19h-12.61Z"/>
  <polygon class="st9" points="676.88 896.63 646.56 896.63 646.48 885.82 676.88 885.79 676.88 896.63"/>
  <polyline class="st8" points="553.9 880.61 552.49 880.6 552.46 864.92 553.8 864.92 553.85 864.03 553.85 881.5 555.26 881.5 555.26 864.03 553.85 864.03"/>
  <line class="st2" x1="624.03" y1="937.69" x2="595.64" y2="937.76"/>
  <path class="st2" d="M623.96,909.26c-15.68.02-28.37,12.75-28.34,28.43"/>
  <line class="st2" x1="624.04" y1="909.29" x2="624.03" y2="937.69"/>
  <polyline class="st8" points="621.57 898.83 642.6 898.8 642.54 856.73 621.51 856.76 621.57 898.83"/>
  <polyline class="st2" points="642.54 886.46 621.5 886.56 621.57 898.83 642.6 898.8 642.54 886.46"/>
  <line class="st2" x1="640.13" y1="892.49" x2="634.48" y2="892.48"/>
  <line class="st2" x1="629.57" y1="892.51" x2="624" y2="892.5"/>
  <line class="st2" x1="626.83" y1="889.68" x2="626.82" y2="895.25"/>
  <line class="st2" x1="637.31" y1="889.66" x2="637.3" y2="895.24"/>
  <polyline class="st2" points="625.03 860.22 639.01 860.18 639.05 874.22 625 874.27 625.03 860.22"/>
  <polyline class="st2" points="642.57 877.76 642.54 856.73 621.51 856.76 621.54 877.79 642.57 877.76"/>
  <line class="st2" x1="640.92" y1="867.19" x2="635.35" y2="867.26"/>
  <polyline class="st8" points="650.77 851.76 671.8 851.73 671.78 853.51 650.74 853.54 650.77 851.76"/>
  <path class="st2" d="M651.92,846.48c-.02-15.68,12.66-28.4,28.34-28.43l.08,28.42-28.39.07"/>
  <line class="st2" x1="675.86" y1="869.79" x2="675.83" y2="867.7"/>
  <polyline class="st8" points="530 784.16 535.28 784.15 535.31 782.37 530.03 782.37 530 784.16"/>
  <polyline class="st8" points="529.98 815.67 530 784.16 531.79 784.18 531.76 815.69 529.98 815.67"/>
  <polyline class="st8" points="529.99 843.76 535.27 843.75 535.22 841.97 530.01 841.98 529.99 843.76"/>
  <line class="st2" x1="528.99" y1="782.39" x2="528.95" y2="843.78"/>
  <polyline class="st8" points="530 819.24 530.01 841.98 531.72 842 531.79 819.18 530 819.24"/>
  <polygon class="st13" points="682.1 848.21 675.79 848.23 675.79 851.72 671.8 851.73 671.79 855.96 675.8 855.96 675.85 881.53 646.75 881.56 646.74 855.99 650.76 855.99 650.77 851.76 621.48 851.85 621.47 856.01 642.51 855.98 642.62 899.84 621.58 899.87 621.53 907.6 625.77 907.53 625.74 904.04 646.77 904.01 646.81 885.8 675.85 885.77 675.97 952.72 625.82 952.81 625.79 939.49 621.63 939.5 621.59 952.81 559.24 952.92 559.12 889.74 552.39 889.38 552.36 843.73 528.94 843.85 528.76 888.14 527.33 888.06 526.26 907.33 527.82 907.41 528.06 911.14 537.51 912.26 537.84 970.46 559.28 970.46 559.27 969.22 559.28 970.46 682.29 970.25 682.29 952.71 682.1 848.21"/>
  <polygon class="st13" points="681.96 726.68 552.11 726.89 545.63 726.89 530.77 726.89 530.77 735.61 530.77 735.61 530.73 770.89 528.95 770.87 528.99 782.39 552.25 782.34 552.28 771.04 552.11 735.46 552.11 733.2 552.13 733.2 552.13 733.2 557.29 733.2 557.3 733.2 557.3 733.2 675.67 733.02 675.76 816.34 682.08 816.32 681.96 726.68"/>
  <polyline class="st8" points="530.03 817.45 535.23 817.44 535.25 815.73 529.98 815.67 530.03 817.45"/>
  <polyline class="st8" points="530 819.24 535.28 819.23 535.23 817.44 530.03 817.45 530 819.24"/>
  <line class="st2" x1="675.8" y1="855.96" x2="646.75" y2="881.56"/>
  <line class="st2" x1="646.74" y1="855.99" x2="675.85" y2="881.53"/>
  <g>
    <path class="st2" d="M650.92,851.22s0-.02,0-.03"/>
    <path class="st5" d="M650.95,850.77c.29-2.66,2.69-10.16,3.31-10.16l16.9,10.86.18.12"/>
    <line class="st2" x1="671.52" y1="851.71" x2="671.55" y2="851.73"/>
  </g>
  <g>
    <g>
      <rect class="st1" x="604.08" y="735.5" width="70.12" height="31.55"/>
      <rect class="st1" x="649.05" y="742.52" width="17.53" height="17.53" rx="1.42" ry="1.42" transform="translate(-93.47 1409.09) rotate(-90)"/>
    </g>
    <polygon class="st1" points="665.03 735.1 603.9 735.1 603.9 767.06 649.22 767.06 665.03 735.1"/>
  </g>
  <g>
    <g>
      <path class="st8" d="M585.24,826.72c-.02,4.55-3.95,8.23-8.79,8.21-3.56-.01-7.08-2.36-8.29-5.64-.16-.45-.5-1.39-.45-2.63.17-3.87,4.04-8.22,8.79-8.21,4.84.02,8.75,3.72,8.73,8.27Z"/>
      <path class="st2" d="M568.86,828.51c0,2.8,3.38,5.07,7.59,5.09"/>
      <path class="st2" d="M584.08,828.57c0,2.8-3.42,5.05-7.63,5.03"/>
      <path class="st2" d="M584.08,828.57c0-.55.44-1,.98-1"/>
      <path class="st2" d="M568.86,828.51c0-.55-.43-1-.97-1"/>
      <g>
        <path class="st8" d="M563.66,826.65c-.02,4.55-3.95,8.23-8.79,8.21-3.56-.01-7.08-2.36-8.29-5.64-.16-.45-.5-1.39-.45-2.63.17-3.87,4.04-8.22,8.79-8.21s8.75,3.72,8.73,8.27Z"/>
        <path class="st2" d="M547.28,828.44c0,2.8,3.38,5.07,7.59,5.09"/>
        <path class="st2" d="M562.5,828.49c0,2.8-3.42,5.05-7.63,5.03"/>
        <path class="st2" d="M562.5,828.49c0-.55.44-1,.98-1"/>
        <path class="st2" d="M547.28,828.44c0-.55-.47-1-1.05-1"/>
      </g>
    </g>
    <g>
      <path class="st8" d="M585.34,799.58c.02-4.55-3.89-8.25-8.73-8.27-3.56-.01-7.1,2.31-8.33,5.58-.17.45-.51,1.39-.46,2.63.14,3.87,3.98,8.25,8.73,8.27,4.84.02,8.78-3.66,8.79-8.21Z"/>
      <path class="st2" d="M568.97,797.68c0-2.8,3.42-5.05,7.63-5.03"/>
      <path class="st2" d="M584.19,797.73c0-2.8-3.38-5.07-7.59-5.09"/>
      <path class="st2" d="M584.19,797.73c0,.55.43,1,.97,1"/>
      <path class="st2" d="M568.97,797.68c0,.55-.44,1-.98,1"/>
      <g>
        <path class="st8" d="M563.75,799.51c.02-4.55-3.89-8.25-8.73-8.27-3.56-.01-7.1,2.31-8.33,5.58-.17.45-.51,1.39-.46,2.63.14,3.87,3.98,8.25,8.73,8.27,4.84.02,8.78-3.66,8.79-8.21Z"/>
        <path class="st2" d="M547.39,797.6c0-2.8,3.42-5.05,7.63-5.03"/>
        <path class="st2" d="M562.6,797.66c0-2.8-3.38-5.07-7.59-5.09"/>
        <path class="st2" d="M562.6,797.66c0,.55.43,1,.97,1"/>
        <path class="st2" d="M547.39,797.6c0,.55-.48,1-1.06.99"/>
      </g>
    </g>
    <rect class="st8" x="554.34" y="791.05" width="22.79" height="44.67" transform="translate(1381.1 250.51) rotate(90.2)"/>
  </g>
  <circle class="st7" cx="665.96" cy="780.23" r="8.15"/>
  <g>
    <polyline class="st2" points="621.5 899.79 621.5 899.76 621.47 899.76"/>
    <line class="st12" x1="621.05" y1="899.76" x2="559.34" y2="899.76"/>
    <polyline class="st2" points="559.12 899.76 559.1 899.76 559.1 899.79"/>
    <line class="st4" x1="559.1" y1="900.22" x2="559.1" y2="968.18"/>
    <polyline class="st2" points="559.1 968.4 559.1 968.42 559.12 968.42"/>
    <line class="st12" x1="559.55" y1="968.42" x2="621.26" y2="968.42"/>
    <polyline class="st2" points="621.47 968.42 621.5 968.42 621.5 968.4"/>
    <line class="st4" x1="621.5" y1="967.97" x2="621.5" y2="900.01"/>
  </g>
</svg>