<?xml version="1.0" encoding="UTF-8"?>
<svg id="Lag_1" xmlns="http://www.w3.org/2000/svg" version="1.1" viewBox="0 0 1200 1697.14">
  <!-- Generator: Adobe Illustrator 29.6.0, SVG Export Plug-In . SVG Version: 2.1.1 Build 207)  -->
  <defs>
    <style>
      .st0, .st1, .st2, .st3, .st4, .st5, .st6, .st7, .st8, .st9, .st10, .st11, .st12, .st13 {
        stroke-width: .18px;
      }

      .st0, .st1, .st2, .st3, .st6, .st8, .st9, .st10, .st11, .st13 {
        stroke-linecap: round;
      }

      .st0, .st2, .st3, .st4, .st5, .st6, .st8, .st9, .st10, .st13 {
        fill: none;
      }

      .st0, .st2, .st3, .st4, .st6, .st7, .st8, .st9, .st10, .st11, .st12, .st13 {
        stroke: #000;
      }

      .st0, .st3, .st6, .st7, .st8, .st10 {
        stroke-miterlimit: 10;
      }

      .st14 {
        fill: #000016;
      }

      .st1 {
        stroke: #060305;
      }

      .st1, .st2, .st4, .st5, .st9, .st11, .st12, .st13 {
        stroke-linejoin: round;
      }

      .st1, .st7, .st11, .st12 {
        fill: #fff;
      }

      .st15 {
        fill: #e8e3e0;
      }

      .st3 {
        stroke-dasharray: .06 .42;
      }

      .st5 {
        stroke: #767676;
      }

      .st6 {
        stroke-dasharray: .06 .43;
      }

      .st16 {
        fill: #dbd7d5;
      }

      .st8 {
        stroke-dasharray: .06 .43;
      }

      .st9 {
        stroke-dasharray: .06 .43;
      }

      .st10 {
        stroke-dasharray: .06 .42;
      }

      .st13 {
        stroke-dasharray: .06 .42;
      }
    </style>
  </defs>
  <polygon class="st15" points="548.6 725.35 548.6 955.26 578.37 955.26 578.37 985.02 653.7 985.02 653.7 725.35 548.6 725.35"/>
  <rect class="st16" x="549.55" y="858.68" width="104.67" height="52.55"/>
  <polyline class="st12" points="551.34 750.03 552.68 750.03 552.68 765.74 551.34 765.74"/>
  <polyline class="st12" points="562.01 723.57 562.01 728.83 560.24 728.83 560.24 723.57 562.01 723.57"/>
  <polyline class="st4" points="612.64 723.57 562.01 723.57 562.01 725.35 612.64 725.27 612.64 723.57"/>
  <polyline class="st12" points="637.99 723.49 614.34 723.57 614.34 726.16 637.99 726.16 637.99 723.49"/>
  <polyline class="st12" points="639.69 723.49 639.76 728.76 637.99 728.76 637.99 723.49 639.69 723.49"/>
  <polyline class="st12" points="614.34 723.57 614.34 728.83 612.64 728.83 612.64 723.57 614.34 723.57"/>
  <line class="st4" x1="560.24" y1="722.53" x2="639.69" y2="722.46"/>
  <path class="st12" d="M567.35,892.96c0-.96-.78-1.74-1.74-1.74s-1.74.78-1.74,1.74.78,1.74,1.74,1.74,1.74-.78,1.74-1.74"/>
  <line class="st4" x1="603.45" y1="928.28" x2="631.83" y2="928.28"/>
  <path class="st4" d="M631.76,928.24c0-15.66-12.69-28.35-28.35-28.35"/>
  <line class="st4" x1="603.45" y1="899.97" x2="603.45" y2="928.28"/>
  <line class="st4" x1="648.14" y1="985.06" x2="648.14" y2="956.67"/>
  <path class="st4" d="M648.1,956.67c-15.66,0-28.35,12.69-28.35,28.35"/>
  <line class="st4" x1="619.75" y1="985.06" x2="648.14" y2="985.06"/>
  <polyline class="st12" points="600.48 938.44 579.51 938.44 579.51 980.46 600.48 980.46 600.48 938.44"/>
  <polyline class="st4" points="579.51 950.74 600.48 950.74 600.48 938.44 579.51 938.44 579.51 950.74"/>
  <line class="st4" x1="581.95" y1="944.81" x2="587.51" y2="944.81"/>
  <line class="st4" x1="592.48" y1="944.81" x2="598.04" y2="944.81"/>
  <line class="st4" x1="595.22" y1="947.55" x2="595.22" y2="941.99"/>
  <line class="st4" x1="584.77" y1="947.55" x2="584.77" y2="941.99"/>
  <polyline class="st4" points="597 976.98 582.99 976.98 582.99 962.97 597 962.97 597 976.98"/>
  <polyline class="st4" points="579.51 959.48 579.51 980.46 600.48 980.46 600.48 959.48 579.51 959.48"/>
  <line class="st4" x1="581.06" y1="970.01" x2="586.7" y2="970.01"/>
  <polyline class="st12" points="647.62 912.2 659.11 912.27 659.18 923.83 647.62 923.76 647.62 912.2"/>
  <line class="st5" x1="647.62" y1="916.5" x2="651.85" y2="912.2"/>
  <line class="st5" x1="647.62" y1="921.17" x2="656.59" y2="912.27"/>
  <line class="st5" x1="649.77" y1="923.76" x2="659.18" y2="914.35"/>
  <line class="st5" x1="654.44" y1="923.83" x2="659.18" y2="919.09"/>
  <line class="st5" x1="651.4" y1="923.76" x2="647.62" y2="919.98"/>
  <line class="st5" x1="656.14" y1="923.83" x2="647.62" y2="915.24"/>
  <line class="st5" x1="659.18" y1="922.13" x2="649.25" y2="912.2"/>
  <line class="st5" x1="659.18" y1="917.39" x2="654" y2="912.27"/>
  <polyline class="st12" points="552.68 766.63 552.68 749.06 554.08 749.06 554.08 766.63 552.68 766.63"/>
  <path class="st7" d="M569.45,940.99v-10.18c0-3.92-2.82-7.09-6.3-7.09s-6.29,3.17-6.29,7.09v10.18s12.59,0,12.59,0Z"/>
  <polygon class="st12" points="551.14 940.99 575.26 940.99 575.33 951.78 551.14 951.81 551.14 940.99"/>
  <rect class="st12" x="551.2" y="859.67" width="17.49" height="21.05" transform="translate(1119.9 1740.38) rotate(-180)"/>
  <rect class="st12" x="569.59" y="859.67" width="17.57" height="21.05" transform="translate(1156.74 1740.38) rotate(-180)"/>
  <rect class="st12" x="587.97" y="859.67" width="17.58" height="21.05" transform="translate(1193.51 1740.38) rotate(-180)"/>
  <path class="st12" d="M581.54,884.98v9.23c0,.2.13.37.3.37h16.82c.2,0,.37-.17.37-.37v-9.23"/>
  <path class="st4" d="M590.96,886.68c0,.35-.28.63-.63.63s-.63-.28-.63-.63c0-.35.28-.63.63-.63s.63.28.63.63"/>
  <path class="st4" d="M591.11,891.13c0,.43-.35.78-.78.78s-.78-.35-.78-.78c0-.43.35-.78.78-.78s.78.35.78.78"/>
  <path class="st4" d="M591.48,891.13c0,.63-.51,1.15-1.15,1.15s-1.15-.51-1.15-1.15c0-.63.51-1.15,1.15-1.15s1.15.51,1.15,1.15"/>
  <path class="st4" d="M582.28,888.05h16.01c.2,0,.37.17.37.37v5.41c0,.2-.17.37-.37.37h-16.01c-.2,0-.37-.17-.37-.37v-5.41c0-.2.17-.37.37-.37Z"/>
  <g>
    <polyline class="st2" points="579.65 913.21 579.65 913.24 579.63 913.24"/>
    <line class="st9" x1="579.2" y1="913.24" x2="551.88" y2="913.24"/>
    <polyline class="st2" points="551.67 913.24 551.64 913.24 551.64 913.21"/>
    <line class="st9" x1="551.64" y1="912.78" x2="551.64" y2="885.46"/>
    <polyline class="st2" points="551.64 885.25 551.64 885.22 551.67 885.22"/>
    <line class="st9" x1="552.09" y1="885.22" x2="579.41" y2="885.22"/>
    <polyline class="st2" points="579.63 885.22 579.65 885.22 579.65 885.25"/>
    <line class="st9" x1="579.65" y1="885.67" x2="579.65" y2="912.99"/>
  </g>
  <line class="st4" x1="565.65" y1="885.22" x2="565.65" y2="893"/>
  <g>
    <path class="st2" d="M614.45,722.96s0-.02,0-.03"/>
    <path class="st13" d="M614.48,722.52c.28-3.07,3.05-12.14,3.77-12.14l19.19,12.88.23.16"/>
    <line class="st2" x1="637.85" y1="723.55" x2="637.87" y2="723.57"/>
  </g>
  <polygon class="st14" points="653.7 986.76 657.55 986.76 657.55 981.57 656.37 981.57 656.37 923.83 651.1 923.76 651.1 981.57 649.84 981.57 649.84 986.76 653.7 986.76"/>
  <line class="st4" x1="575.28" y1="956" x2="546.08" y2="981.57"/>
  <line class="st4" x1="546.08" y1="956" x2="575.28" y2="981.57"/>
  <polygon class="st14" points="579.51 981.57 579.51 937.77 605.6 937.77 605.6 930.06 601.37 930.06 601.37 933.54 575.28 933.54 575.28 951.78 551.34 951.78 551.34 884.92 601.37 884.92 601.37 898.19 605.6 898.19 605.6 880.7 551.34 880.7 551.34 740.88 560.24 740.91 560.24 722.53 534.66 722.53 534.66 740.84 546.08 740.87 546.08 956 551.34 956 575.28 956 575.28 981.57 559.2 981.57 559.2 986.76 618.05 986.76 618.05 981.57 579.51 981.57"/>
  <polygon class="st14" points="639.76 722.46 639.76 741.06 642.88 741.06 642.88 744.69 651.1 744.77 651.1 912.2 656.37 912.27 656.37 744.83 665.19 744.91 665.34 743.28 665.34 722.46 639.76 722.46"/>
  <g>
    <g>
      <path class="st11" d="M647.25,786.11c0,4.54-3.92,8.23-8.75,8.23-3.56,0-7.08-2.33-8.3-5.61-.17-.45-.5-1.39-.45-2.62.15-3.87,4-8.23,8.75-8.23s8.75,3.68,8.75,8.23Z"/>
      <path class="st2" d="M630.9,787.95c0,2.79,3.4,5.05,7.6,5.05"/>
      <path class="st2" d="M646.09,787.95c0,2.79-3.4,5.05-7.6,5.05"/>
      <path class="st2" d="M646.09,787.95c0-.55.44-1,.98-1"/>
      <path class="st2" d="M630.9,787.95c0-.55-.44-1-.98-1"/>
      <g>
        <path class="st11" d="M625.69,786.11c0,4.54-3.92,8.23-8.75,8.23-3.56,0-7.08-2.33-8.3-5.61-.17-.45-.5-1.39-.45-2.62.15-3.87,4-8.23,8.75-8.23s8.75,3.68,8.75,8.23Z"/>
        <path class="st2" d="M609.34,787.95c0,2.79,3.4,5.05,7.6,5.05"/>
        <path class="st2" d="M624.54,787.95c0,2.79-3.4,5.05-7.6,5.05"/>
        <path class="st2" d="M624.54,787.95c0-.55.44-1,.98-1"/>
        <path class="st2" d="M609.34,787.95c0-.55-.47-1-1.06-1"/>
      </g>
    </g>
    <g>
      <path class="st11" d="M647.25,759c0-4.54-3.92-8.23-8.75-8.23-3.56,0-7.08,2.33-8.3,5.61-.17.45-.5,1.39-.45,2.62.15,3.87,4,8.23,8.75,8.23s8.75-3.68,8.75-8.23Z"/>
      <path class="st2" d="M630.9,757.15c0-2.79,3.4-5.05,7.6-5.05"/>
      <path class="st2" d="M646.09,757.15c0-2.79-3.4-5.05-7.6-5.05"/>
      <path class="st2" d="M646.09,757.15c0,.55.44,1,.98,1"/>
      <path class="st2" d="M630.9,757.15c0,.55-.44,1-.98,1"/>
      <g>
        <path class="st11" d="M625.69,759c0-4.54-3.92-8.23-8.75-8.23-3.56,0-7.08,2.33-8.3,5.61-.17.45-.5,1.39-.45,2.62.15,3.87,4,8.23,8.75,8.23s8.75-3.68,8.75-8.23Z"/>
        <path class="st2" d="M609.34,757.15c0-2.79,3.4-5.05,7.6-5.05"/>
        <path class="st2" d="M624.54,757.15c0-2.79-3.4-5.05-7.6-5.05"/>
        <path class="st2" d="M624.54,757.15c0,.55.44,1,.98,1"/>
        <path class="st2" d="M609.34,757.15c0,.55-.47,1-1.06,1"/>
      </g>
    </g>
    <rect class="st11" x="616.34" y="750.54" width="22.76" height="44.61" transform="translate(1400.57 145.13) rotate(90)"/>
  </g>
  <circle class="st1" cx="587.16" cy="827.14" r="9.61"/>
  <g>
    <path class="st1" d="M573.09,837.09c1.23-7.57,1.36-15.32.37-22.94,0-.33-.19-.61-.47-.68-6.38-.02-12.76-.05-19.15-.07"/>
    <path class="st1" d="M573.09,837.09c-.02.13-.11.22-.22.23h-1.79s-16.98,0-16.98,0l-.26-23.94c6.38-.02,12.76-.05,19.15-.07.27-.07.47-.36.47-.68.99-7.62.86-15.37-.37-22.94-.02-.13-.11-.22-.22-.23h-1.79s-17.23,0-17.23,0v23.93"/>
    <path class="st1" d="M552.88,836.98c.6.07,1.18.08,1.78.01.11-.02.2-.13.2-.27.18-7.65.22-15.3.13-22.96-.02-.19-.16-.34-.33-.34-.65-.06-1.3-.04-1.95.03"/>
    <path class="st1" d="M552.88,789.78c.6-.07,1.18-.08,1.78-.01.11.02.2.13.2.27.18,7.65.22,15.3.13,22.96-.02.19-.16.34-.33.34-.65.06-1.3.04-1.95-.03"/>
    <path class="st1" d="M552.53,789.49h-.21c-.07,0-.12.06-.12.14,0,15.83,0,31.66,0,47.5,0,.08.06.14.12.14h.21s.14-.06.14-.06v-.36s-.14-47.36-.14-47.36Z"/>
    <path class="st1" d="M556.56,836.21c0,.47-1.1.84-2.47.84-.11,0-.22,0-.33-.01l-.89-.06c-.11-.02-.2-.13-.2-.27v-23.29h1.98c.65.01,1.29.02,1.94.04.27.07.47.36.47.68,1.04,7.33.87,14.81-.5,22.06Z"/>
    <path class="st1" d="M556.56,790.59c0-.47-1.1-.84-2.47-.84-.11,0-.22,0-.33.01l-.89.06c-.11.02-.2.13-.2.27v23.29h1.98c.65-.01,1.29-.02,1.94-.04.27-.07.47-.36.47-.68,1.04-7.33.87-14.81-.5-22.06Z"/>
    <path class="st1" d="M554.84,836.82c.27-.11.53-.19.81-.26.31-.14.62-.26.94-.36.44-.14.87-.29,1.3-.43.6-.2,1.21-.35,1.83-.44.38-.05.76-.1,1.14-.12.41-.03.81-.06,1.22-.08.97-.05,1.93-.05,2.9,0,.98.05,1.94.19,2.9.41.72.16,1.42.39,2.11.7.43.19.76.47,1.05.9.02.04.03.07.03.12v.42c-.04.11-.1.18-.2.23h-18.48c-.11,0-.2-.1-.2-.23v-.13h0c0-.13.09-.23.2-.24.26-.04.51-.07.77-.11.34-.02.67-.07,1.01-.15l.67-.21Z"/>
    <path class="st1" d="M554.84,789.94c.27.11.53.19.81.26.31.14.62.26.94.36.44.14.87.29,1.3.43.6.2,1.21.35,1.83.44.38.05.76.1,1.14.12.41.03.81.06,1.22.08.97.05,1.93.05,2.9,0,.98-.05,1.94-.19,2.9-.41.72-.16,1.42-.39,2.11-.7.43-.19.76-.47,1.05-.9.02-.04.03-.07.03-.12v-.42c-.04-.11-.1-.18-.2-.23h-18.48c-.11,0-.2.1-.2.23v.13h0c0,.13.09.23.2.24.26.04.51.07.77.11.34.02.67.07,1.01.15l.67.21Z"/>
  </g>
  <g>
    <polyline class="st0" points="548.48 858.85 548.48 858.82 548.51 858.82"/>
    <polyline class="st10" points="548.93 858.82 556.34 858.82 651.61 858.82"/>
    <polyline class="st0" points="651.82 858.82 651.85 858.82 651.85 858.85"/>
    <line class="st8" x1="651.85" y1="859.27" x2="651.85" y2="910.86"/>
    <polyline class="st0" points="651.85 911.07 651.85 911.1 651.82 911.1"/>
    <line class="st6" x1="651.4" y1="911.1" x2="549.93" y2="911.1"/>
    <polyline class="st0" points="549.72 911.1 549.69 911.1 549.69 911.07"/>
    <polyline class="st3" points="549.69 910.65 549.69 868.03 548.51 859.06"/>
  </g>
</svg>