<?xml version="1.0" encoding="UTF-8"?>
<svg id="Lag_1" xmlns="http://www.w3.org/2000/svg" version="1.1" viewBox="0 0 1200 1697.14">
  <!-- Generator: Adobe Illustrator 29.6.0, SVG Export Plug-In . SVG Version: 2.1.1 Build 207)  -->
  <defs>
    <style>
      .st0 {
        stroke-dasharray: .06 .42;
      }

      .st0, .st1, .st2, .st3, .st4, .st5, .st6, .st7, .st8, .st9, .st10, .st11, .st12, .st13, .st14, .st15, .st16 {
        stroke-width: .18px;
      }

      .st0, .st1, .st2, .st3, .st4, .st5, .st7, .st8, .st10, .st12, .st13, .st15, .st16 {
        stroke-linecap: round;
      }

      .st0, .st1, .st2, .st4, .st5, .st6, .st7, .st8, .st9, .st12, .st13, .st14, .st15, .st16 {
        stroke: #000;
      }

      .st0, .st1, .st2, .st4, .st5, .st6, .st7, .st8, .st10, .st12, .st15, .st16 {
        fill: none;
      }

      .st0, .st3, .st4, .st5, .st6, .st10, .st11, .st13, .st14 {
        stroke-linejoin: round;
      }

      .st1, .st2, .st7, .st8, .st9, .st12, .st15, .st16 {
        stroke-miterlimit: 10;
      }

      .st17 {
        fill: #000016;
      }

      .st2 {
        stroke-dasharray: .06 .43;
      }

      .st3, .st9, .st11, .st13, .st14 {
        fill: #fff;
      }

      .st3, .st11 {
        stroke: #060305;
      }

      .st18 {
        fill: #e8e3e0;
      }

      .st5 {
        stroke-dasharray: .06 .43;
      }

      .st7 {
        stroke-dasharray: .06 .42;
      }

      .st8 {
        stroke-dasharray: .06 .43;
      }

      .st10 {
        stroke: #767676;
      }

      .st19 {
        fill: #dbd7d5;
      }

      .st12 {
        stroke-dasharray: .06 .43;
      }

      .st15 {
        stroke-dasharray: .06 .43;
      }

      .st16 {
        stroke-dasharray: .06 .42;
      }
    </style>
  </defs>
  <polygon class="st18" points="624.47 691.24 624.47 720.89 653.15 720.89 653.15 994.54 548.25 994.54 548.25 691.24 624.47 691.24"/>
  <rect class="st19" x="547.02" y="796.79" width="106.13" height="61.67" transform="translate(1200.16 1655.24) rotate(-180)"/>
  <g>
    <path class="st4" d="M585.43,996.86s0,.02,0,.03"/>
    <path class="st5" d="M585.4,997.3c-.33,2.71-3.12,10.43-3.84,10.43l-19.59-11.14-.23-.14"/>
    <line class="st4" x1="561.55" y1="996.35" x2="561.53" y2="996.33"/>
  </g>
  <polyline class="st13" points="556.27 788.92 537.76 788.99 537.76 807.73 556.27 807.65 556.27 788.92"/>
  <line class="st10" x1="556.27" y1="790.87" x2="554.32" y2="788.92"/>
  <line class="st10" x1="556.27" y1="795.66" x2="549.53" y2="788.92"/>
  <line class="st10" x1="556.27" y1="800.46" x2="544.81" y2="788.92"/>
  <line class="st10" x1="556.27" y1="805.18" x2="540.01" y2="788.92"/>
  <line class="st10" x1="554.02" y1="807.65" x2="537.76" y2="791.39"/>
  <line class="st10" x1="549.23" y1="807.73" x2="537.76" y2="796.19"/>
  <line class="st10" x1="544.51" y1="807.73" x2="537.76" y2="800.98"/>
  <line class="st10" x1="539.71" y1="807.73" x2="537.76" y2="805.7"/>
  <line class="st10" x1="554.55" y1="807.65" x2="556.27" y2="805.93"/>
  <line class="st10" x1="549.75" y1="807.73" x2="556.27" y2="801.13"/>
  <line class="st10" x1="544.96" y1="807.73" x2="556.27" y2="796.41"/>
  <line class="st10" x1="540.24" y1="807.73" x2="556.27" y2="791.61"/>
  <line class="st10" x1="537.76" y1="805.4" x2="554.25" y2="788.92"/>
  <line class="st10" x1="537.76" y1="800.68" x2="549.45" y2="788.92"/>
  <line class="st10" x1="537.76" y1="795.89" x2="544.66" y2="788.92"/>
  <line class="st10" x1="537.76" y1="791.09" x2="539.86" y2="788.92"/>
  <polygon class="st17" points="546.91 689.41 543.01 689.41 543.01 694.73 544.28 694.73 544.21 788.92 549.6 788.92 549.6 694.73 550.8 694.73 550.8 689.41 546.91 689.41"/>
  <rect class="st14" x="632.71" y="796.6" width="17.68" height="21.28"/>
  <rect class="st14" x="614.05" y="796.6" width="17.76" height="21.28"/>
  <rect class="st14" x="595.46" y="796.6" width="17.77" height="21.28"/>
  <polygon class="st14" points="650.46 735.67 626.07 735.67 626 724.75 650.46 724.73 650.46 735.67"/>
  <line class="st4" x1="650.4" y1="796.79" x2="648.9" y2="796.79"/>
  <line class="st4" x1="646.95" y1="796.79" x2="645.68" y2="796.79"/>
  <line class="st4" x1="643.8" y1="796.79" x2="642.53" y2="796.79"/>
  <line class="st4" x1="640.58" y1="796.79" x2="639.31" y2="796.79"/>
  <line class="st4" x1="637.43" y1="796.79" x2="636.16" y2="796.79"/>
  <line class="st4" x1="650.4" y1="814.4" x2="650.4" y2="813.12"/>
  <line class="st4" x1="650.4" y1="811.17" x2="650.4" y2="809.9"/>
  <line class="st4" x1="650.4" y1="808.03" x2="650.4" y2="806.75"/>
  <line class="st4" x1="650.4" y1="804.81" x2="650.4" y2="803.53"/>
  <line class="st4" x1="650.4" y1="801.66" x2="650.4" y2="800.38"/>
  <line class="st4" x1="650.4" y1="798.44" x2="650.4" y2="796.79"/>
  <line class="st4" x1="613.23" y1="796.79" x2="611.73" y2="796.79"/>
  <line class="st4" x1="609.78" y1="796.79" x2="608.51" y2="796.79"/>
  <line class="st4" x1="606.64" y1="796.79" x2="605.36" y2="796.79"/>
  <line class="st4" x1="603.41" y1="796.79" x2="602.14" y2="796.79"/>
  <line class="st4" x1="600.19" y1="796.79" x2="598.92" y2="796.79"/>
  <line class="st4" x1="631.81" y1="796.79" x2="630.32" y2="796.79"/>
  <line class="st4" x1="628.37" y1="796.79" x2="627.09" y2="796.79"/>
  <line class="st4" x1="625.22" y1="796.79" x2="623.95" y2="796.79"/>
  <line class="st4" x1="622" y1="796.79" x2="620.72" y2="796.79"/>
  <line class="st4" x1="618.85" y1="796.79" x2="617.58" y2="796.79"/>
  <line class="st4" x1="597.64" y1="748.61" x2="568.94" y2="748.61"/>
  <path class="st4" d="M568.94,748.57c0,15.83,12.83,28.66,28.66,28.66"/>
  <line class="st4" x1="597.64" y1="777.3" x2="597.64" y2="748.61"/>
  <path class="st4" d="M581.16,691.28h-28.62l-.04,28.62c15.83,0,28.66-12.83,28.66-28.66"/>
  <polyline class="st13" points="600.64 738.34 621.92 738.34 621.92 695.85 600.64 695.85 600.64 738.34"/>
  <polyline class="st4" points="621.92 725.98 600.64 725.98 600.64 738.34 621.92 738.34 621.92 725.98"/>
  <line class="st4" x1="619.45" y1="731.97" x2="613.75" y2="731.97"/>
  <line class="st4" x1="608.81" y1="731.97" x2="603.11" y2="731.97"/>
  <line class="st4" x1="605.96" y1="729.12" x2="605.96" y2="734.82"/>
  <line class="st4" x1="616.6" y1="729.12" x2="616.6" y2="734.82"/>
  <polyline class="st4" points="604.16 699.37 618.33 699.37 618.33 713.54 604.16 713.54 604.16 699.37"/>
  <polyline class="st4" points="621.92 717.13 621.92 695.85 600.64 695.85 600.64 717.13 621.92 717.13"/>
  <line class="st4" x1="620.27" y1="706.49" x2="614.65" y2="706.49"/>
  <polyline class="st13" points="638.33 996.33 638.33 991.01 640.13 991.01 640.13 996.33 638.33 996.33"/>
  <polyline class="st13" points="587.15 996.33 638.33 996.33 638.33 994.54 587.15 994.54 587.15 996.33"/>
  <polyline class="st13" points="559.73 996.33 559.73 991.01 561.53 991.01 561.53 996.33 559.73 996.33"/>
  <polyline class="st13" points="585.43 996.33 585.43 991.01 587.15 991.01 587.15 996.33 585.43 996.33"/>
  <line class="st4" x1="640.13" y1="997.38" x2="559.73" y2="997.38"/>
  <path class="st14" d="M634.07,784.22c0,.97.79,1.76,1.76,1.76s1.76-.79,1.76-1.76c0-.97-.79-1.76-1.76-1.76s-1.76.79-1.76,1.76"/>
  <path class="st9" d="M631.95,735.67v10.29c0,3.96,2.85,7.17,6.37,7.17,3.52,0,6.36-3.21,6.36-7.17v-10.29s-12.73,0-12.73,0Z"/>
  <path class="st14" d="M619.72,792.29v-9.33c0-.21-.13-.37-.3-.37h-17.01c-.21,0-.37.17-.37.37v9.33"/>
  <path class="st6" d="M610.21,790.57c0-.35.29-.64.64-.64s.64.29.64.64c0,.35-.29.64-.64.64s-.64-.29-.64-.64"/>
  <path class="st6" d="M610.06,786.07c0-.43.35-.79.79-.79s.79.35.79.79-.35.79-.79.79-.79-.35-.79-.79"/>
  <path class="st6" d="M609.68,786.07c0-.64.52-1.16,1.16-1.16s1.16.52,1.16,1.16-.52,1.16-1.16,1.16-1.16-.52-1.16-1.16"/>
  <path class="st6" d="M602.79,782.96h16.19c.21,0,.37.17.37.37v5.47c0,.21-.17.37-.37.37h-16.19c-.21,0-.37-.17-.37-.37v-5.47c0-.21.17-.37.37-.37Z"/>
  <g>
    <polyline class="st4" points="621.63 763.75 621.63 763.72 621.66 763.72"/>
    <line class="st0" x1="622.09" y1="763.72" x2="649.72" y2="763.72"/>
    <polyline class="st4" points="649.93 763.72 649.96 763.72 649.96 763.75"/>
    <line class="st0" x1="649.96" y1="764.17" x2="649.96" y2="791.81"/>
    <polyline class="st4" points="649.96 792.02 649.96 792.05 649.93 792.05"/>
    <line class="st0" x1="649.51" y1="792.05" x2="621.87" y2="792.05"/>
    <polyline class="st4" points="621.66 792.05 621.63 792.05 621.63 792.02"/>
    <line class="st0" x1="621.63" y1="791.59" x2="621.63" y2="763.96"/>
  </g>
  <line class="st6" x1="635.8" y1="792.05" x2="635.8" y2="784.18"/>
  <line class="st6" x1="626.05" y1="720.49" x2="655.58" y2="694.63"/>
  <line class="st6" x1="655.72" y1="720.66" x2="626.05" y2="694.63"/>
  <polyline class="st13" points="561.53 996.33 585.43 996.33 585.43 993.64 561.53 993.64 561.53 996.33"/>
  <polygon class="st17" points="544.28 973.55 544.28 807.73 549.6 807.73 549.6 973.55 559.87 973.55 559.87 997.38 534.02 997.38 534.02 973.55 544.28 973.55"/>
  <g>
    <g>
      <path class="st13" d="M606.96,873.95c0-4.59,3.96-8.32,8.85-8.32,3.6,0,7.16,2.35,8.39,5.67.17.45.51,1.4.46,2.65-.16,3.91-4.05,8.32-8.85,8.32s-8.85-3.72-8.85-8.32Z"/>
      <path class="st4" d="M623.49,872.09c0-2.82-3.44-5.11-7.68-5.11"/>
      <path class="st4" d="M608.13,872.09c0-2.82,3.44-5.11,7.68-5.11"/>
      <path class="st4" d="M608.13,872.09c0,.56-.44,1.01-.99,1.01"/>
      <path class="st4" d="M623.49,872.09c0,.56.44,1.01.99,1.01"/>
      <g>
        <path class="st13" d="M628.75,873.95c0-4.59,3.96-8.32,8.85-8.32,3.6,0,7.16,2.35,8.39,5.67.17.45.51,1.4.46,2.65-.16,3.91-4.05,8.32-8.85,8.32-4.89,0-8.85-3.72-8.85-8.32Z"/>
        <path class="st4" d="M645.28,872.09c0-2.82-3.44-5.11-7.68-5.11"/>
        <path class="st4" d="M629.92,872.09c0-2.82,3.44-5.11,7.68-5.11"/>
        <path class="st4" d="M629.92,872.09c0,.56-.44,1.01-.99,1.01"/>
        <path class="st4" d="M645.28,872.09c0,.56.48,1.01,1.07,1.01"/>
      </g>
    </g>
    <g>
      <path class="st13" d="M606.96,901.36c0,4.59,3.96,8.32,8.85,8.32,3.6,0,7.16-2.35,8.39-5.67.17-.45.51-1.4.46-2.65-.16-3.91-4.05-8.32-8.85-8.32s-8.85,3.72-8.85,8.32Z"/>
      <path class="st4" d="M623.49,903.22c0,2.82-3.44,5.11-7.68,5.11"/>
      <path class="st4" d="M608.13,903.22c0,2.82,3.44,5.11,7.68,5.11"/>
      <path class="st4" d="M608.13,903.22c0-.56-.44-1.01-.99-1.01"/>
      <path class="st4" d="M623.49,903.22c0-.56.44-1.01.99-1.01"/>
      <g>
        <path class="st13" d="M628.75,901.36c0,4.59,3.96,8.32,8.85,8.32,3.6,0,7.16-2.35,8.39-5.67.17-.45.51-1.4.46-2.65-.16-3.91-4.05-8.32-8.85-8.32-4.89,0-8.85,3.72-8.85,8.32Z"/>
        <path class="st4" d="M645.28,903.22c0,2.82-3.44,5.11-7.68,5.11"/>
        <path class="st4" d="M629.92,903.22c0,2.82,3.44,5.11,7.68,5.11"/>
        <path class="st4" d="M629.92,903.22c0-.56-.44-1.01-.99-1.01"/>
        <path class="st4" d="M645.28,903.22c0-.56.48-1.01,1.07-1.01"/>
      </g>
    </g>
    <rect class="st13" x="615.2" y="864.8" width="23.01" height="45.1" transform="translate(-260.65 1514.06) rotate(-90)"/>
  </g>
  <g>
    <path class="st3" d="M573.29,970.55c1.25-7.65,1.37-15.49.38-23.19,0-.33-.2-.62-.47-.69-6.45-.02-12.9-.05-19.36-.07"/>
    <path class="st3" d="M573.29,970.55c-.02.13-.11.22-.22.23h-1.81s-17.16,0-17.16,0l-.26-24.21c6.45-.02,12.9-.05,19.36-.07.28-.07.47-.36.47-.69,1-7.7.87-15.54-.38-23.19-.02-.13-.11-.22-.22-.23h-1.81s-17.42,0-17.42,0v24.19"/>
    <path class="st3" d="M552.86,970.45c.6.07,1.2.08,1.8.01.12-.02.2-.13.2-.27.18-7.74.22-15.47.13-23.21-.02-.19-.17-.34-.33-.35-.66-.06-1.31-.05-1.97.03"/>
    <path class="st3" d="M552.86,922.72c.6-.07,1.2-.08,1.8-.01.12.02.2.13.2.27.18,7.74.22,15.47.13,23.21-.02.19-.17.34-.33.35-.66.06-1.31.05-1.97-.03"/>
    <path class="st3" d="M552.51,922.43h-.21c-.07,0-.13.07-.13.15,0,16.01,0,32.01,0,48.02,0,.08.06.15.13.15h.21s.15-.06.15-.06v-.36s-.15-47.88-.15-47.88Z"/>
    <path class="st3" d="M556.59,969.66c0,.47-1.12.85-2.49.85-.11,0-.22,0-.33-.01l-.9-.06c-.12-.02-.2-.13-.2-.27v-23.55h2c.65.01,1.31.02,1.96.04.28.07.47.36.47.69,1.05,7.41.88,14.98-.51,22.31Z"/>
    <path class="st3" d="M556.59,923.54c0-.47-1.12-.85-2.49-.85-.11,0-.22,0-.33.01l-.9.06c-.12.02-.2.13-.2.27v23.55h2c.65-.01,1.31-.02,1.96-.04.28-.07.47-.36.47-.69,1.05-7.41.88-14.98-.51-22.31Z"/>
    <path class="st3" d="M554.85,970.29c.27-.11.54-.2.82-.27.31-.14.63-.26.95-.37.44-.14.88-.29,1.32-.44.61-.21,1.22-.35,1.85-.44.38-.06.77-.1,1.16-.13.41-.03.82-.06,1.23-.08.98-.05,1.95-.05,2.93,0,.99.05,1.96.19,2.93.41.73.16,1.44.4,2.13.71.44.19.77.48,1.06.9.02.04.04.07.04.12v.42c-.04.12-.1.18-.2.23-6.23,0-12.46,0-18.69,0-.11,0-.2-.1-.2-.23v-.13h0c0-.13.09-.23.2-.24.26-.04.52-.07.77-.11.34-.02.68-.07,1.02-.16l.68-.21Z"/>
    <path class="st3" d="M554.85,922.88c.27.11.54.2.82.27.31.14.63.26.95.37.44.14.88.29,1.32.44.61.21,1.22.35,1.85.44.38.06.77.1,1.16.13.41.03.82.06,1.23.08.98.05,1.95.05,2.93,0,.99-.05,1.96-.19,2.93-.41.73-.16,1.44-.4,2.13-.71.44-.19.77-.48,1.06-.9.02-.04.04-.07.04-.12v-.42c-.04-.12-.1-.18-.2-.23h-18.69c-.11,0-.2.1-.2.23v.13h0c0,.13.09.23.2.24.26.04.52.07.77.11.34.02.68.07,1.02.16l.68.21Z"/>
  </g>
  <circle class="st11" cx="587.07" cy="959.55" r="9.71"/>
  <g>
    <polyline class="st14" points="650.69 961.97 649.35 961.97 649.35 946.26 650.69 946.26"/>
    <polyline class="st14" points="649.35 945.37 649.35 962.94 647.95 962.94 647.95 945.37 649.35 945.37"/>
  </g>
  <polygon class="st17" points="655.72 973.7 655.72 720.66 650.4 720.66 626.12 720.66 626.12 694.8 642.45 694.8 642.45 689.48 582.96 689.48 582.96 694.8 621.92 694.8 621.92 739.01 595.55 739.01 595.55 746.81 599.74 746.81 599.74 743.29 626.12 743.29 626.12 724.93 650.4 724.93 650.4 792.52 599.74 792.52 599.74 779.03 595.55 779.03 595.55 796.79 650.4 796.79 650.4 973.7 640.13 973.7 640.13 997.38 665.98 997.38 665.98 973.7 655.72 973.7"/>
  <g>
    <polyline class="st1" points="556.24 807.65 556.27 807.65 556.27 807.62"/>
    <line class="st12" x1="556.27" y1="807.18" x2="556.27" y2="797.06"/>
    <polyline class="st1" points="556.27 796.84 556.27 796.81 556.3 796.81"/>
    <line class="st2" x1="556.73" y1="796.81" x2="651.54" y2="796.81"/>
    <polyline class="st1" points="651.75 796.81 651.78 796.81 651.78 796.84"/>
    <line class="st16" x1="651.78" y1="797.27" x2="651.78" y2="858.19"/>
    <polyline class="st1" points="651.78 858.4 651.78 858.43 651.75 858.43"/>
    <line class="st8" x1="651.33" y1="858.43" x2="549.86" y2="858.43"/>
    <polyline class="st1" points="549.65 858.43 549.62 858.43 549.62 858.4"/>
    <line class="st15" x1="549.62" y1="857.98" x2="549.62" y2="807.91"/>
    <polyline class="st1" points="549.62 807.7 549.62 807.67 549.65 807.67"/>
    <line class="st7" x1="550.07" y1="807.67" x2="556.03" y2="807.65"/>
  </g>
</svg>