<?xml version="1.0" encoding="UTF-8"?>
<svg id="Lag_1" xmlns="http://www.w3.org/2000/svg" version="1.1" viewBox="0 0 1200 1697.14">
  <!-- Generator: Adobe Illustrator 29.6.0, SVG Export Plug-In . SVG Version: 2.1.1 Build 207)  -->
  <defs>
    <style>
      .st0 {
        fill: #000016;
      }

      .st1 {
        stroke-dasharray: .06 .43;
      }

      .st1, .st2, .st3, .st4, .st5, .st6, .st7, .st8, .st9, .st10, .st11, .st12 {
        stroke-width: .18px;
      }

      .st1, .st2, .st3, .st4, .st5, .st7, .st8, .st9, .st10, .st11, .st12 {
        stroke-linejoin: round;
      }

      .st1, .st2, .st3, .st4, .st8, .st10, .st11 {
        stroke-linecap: round;
      }

      .st1, .st2, .st4, .st5, .st6, .st8, .st10, .st11, .st12 {
        stroke: #000;
      }

      .st1, .st2, .st4, .st5, .st7, .st8, .st11 {
        fill: none;
      }

      .st2 {
        stroke-dasharray: .06 .43;
      }

      .st3, .st6, .st9, .st10, .st12 {
        fill: #fff;
      }

      .st3, .st9 {
        stroke: #060305;
      }

      .st13 {
        fill: #e8e3e0;
      }

      .st6 {
        stroke-miterlimit: 10;
      }

      .st7 {
        stroke: #747675;
      }

      .st14 {
        fill: #dbd7d5;
      }

      .st8 {
        stroke-dasharray: .06 .42;
      }

      .st11 {
        stroke-dasharray: .06 .43;
      }
    </style>
  </defs>
  <polygon class="st13" points="548.34 972.43 548.34 741.67 577.24 741.67 577.24 711.42 653.97 711.42 653.97 972.43 548.34 972.43"/>
  <rect class="st14" x="549.29" y="785.59" width="105.21" height="52.82"/>
  <polyline class="st12" points="638.18 974.22 638.18 968.93 639.97 968.93 639.97 974.22 638.18 974.22"/>
  <polyline class="st12" points="587.3 974.22 638.18 974.22 638.18 972.43 587.3 972.5 587.3 974.22"/>
  <polyline class="st12" points="561.82 974.29 585.58 974.22 585.58 971.61 561.82 971.61 561.82 974.29"/>
  <polyline class="st12" points="560.11 974.29 560.03 969 561.82 969 561.82 974.29 560.11 974.29"/>
  <polyline class="st12" points="585.58 974.22 585.58 968.93 587.3 968.93 587.3 974.22 585.58 974.22"/>
  <line class="st5" x1="639.97" y1="975.26" x2="560.11" y2="975.33"/>
  <path class="st12" d="M567.18,803.95c0,.97-.78,1.75-1.75,1.75s-1.75-.78-1.75-1.75.78-1.75,1.75-1.75,1.75.78,1.75,1.75"/>
  <line class="st5" x1="603.46" y1="768.45" x2="632" y2="768.45"/>
  <path class="st5" d="M631.92,768.49c0,15.74-12.76,28.5-28.5,28.5"/>
  <line class="st5" x1="603.46" y1="796.91" x2="603.46" y2="768.45"/>
  <line class="st5" x1="648.39" y1="711.39" x2="648.39" y2="739.92"/>
  <path class="st5" d="M648.35,739.92c-15.74,0-28.5-12.76-28.5-28.5"/>
  <line class="st5" x1="619.85" y1="711.39" x2="648.39" y2="711.39"/>
  <polyline class="st12" points="600.48 758.25 579.4 758.25 579.4 716.01 600.48 716.01 600.48 758.25"/>
  <polyline class="st5" points="579.4 745.88 600.48 745.88 600.48 758.25 579.4 758.25 579.4 745.88"/>
  <line class="st5" x1="581.86" y1="751.84" x2="587.45" y2="751.84"/>
  <line class="st5" x1="592.44" y1="751.84" x2="598.03" y2="751.84"/>
  <line class="st5" x1="595.19" y1="749.08" x2="595.19" y2="754.67"/>
  <line class="st5" x1="584.69" y1="749.08" x2="584.69" y2="754.67"/>
  <polyline class="st5" points="596.98 719.51 582.9 719.51 582.9 733.59 596.98 733.59 596.98 719.51"/>
  <polyline class="st5" points="579.4 737.09 579.4 716.01 600.48 716.01 600.48 737.09 579.4 737.09"/>
  <line class="st5" x1="580.97" y1="726.51" x2="586.63" y2="726.51"/>
  <polyline class="st12" points="647.87 784.62 659.41 784.54 659.49 772.92 647.87 773 647.87 784.62"/>
  <line class="st7" x1="647.87" y1="780.3" x2="652.11" y2="784.62"/>
  <line class="st7" x1="647.87" y1="775.6" x2="656.88" y2="784.54"/>
  <line class="st7" x1="650.03" y1="773" x2="659.49" y2="782.46"/>
  <line class="st7" x1="654.72" y1="772.92" x2="659.49" y2="777.69"/>
  <line class="st7" x1="651.66" y1="773" x2="647.87" y2="776.8"/>
  <line class="st7" x1="656.43" y1="772.92" x2="647.87" y2="781.56"/>
  <line class="st7" x1="659.49" y1="774.64" x2="649.5" y2="784.62"/>
  <line class="st7" x1="659.49" y1="779.4" x2="654.27" y2="784.54"/>
  <path class="st6" d="M569.29,755.68v10.23c0,3.94-2.83,7.13-6.33,7.13s-6.33-3.19-6.33-7.13v-10.23s12.65,0,12.65,0Z"/>
  <polygon class="st12" points="550.89 755.68 575.14 755.68 575.2 744.84 550.89 744.81 550.89 755.68"/>
  <rect class="st12" x="550.95" y="816.26" width="17.58" height="21.16" transform="translate(1119.49 1653.68) rotate(180)"/>
  <rect class="st12" x="569.43" y="816.26" width="17.66" height="21.16" transform="translate(1156.51 1653.68) rotate(180)"/>
  <rect class="st12" x="587.9" y="816.26" width="17.67" height="21.16" transform="translate(1193.48 1653.68) rotate(180)"/>
  <path class="st12" d="M581.45,811.98v-9.28c0-.21.13-.37.3-.37h16.91c.21,0,.37.17.37.37v9.28"/>
  <path class="st5" d="M590.91,810.26c0-.35-.28-.63-.63-.63s-.63.28-.63.63c0,.35.28.63.63.63s.63-.28.63-.63"/>
  <path class="st5" d="M591.06,805.79c0-.43-.35-.78-.78-.78s-.78.35-.78.78c0,.43.35.78.78.78s.78-.35.78-.78"/>
  <path class="st5" d="M591.43,805.79c0-.64-.52-1.15-1.15-1.15s-1.15.52-1.15,1.15c0,.64.52,1.15,1.15,1.15s1.15-.52,1.15-1.15"/>
  <path class="st5" d="M582.19,802.7h16.1c.2,0,.37.17.37.37v5.44c0,.2-.17.37-.37.37h-16.1c-.21,0-.37-.17-.37-.37v-5.44c0-.21.17-.37.37-.37Z"/>
  <g>
    <polyline class="st4" points="579.55 783.6 579.55 783.58 579.52 783.58"/>
    <line class="st1" x1="579.09" y1="783.58" x2="551.63" y2="783.58"/>
    <polyline class="st4" points="551.42 783.58 551.39 783.58 551.39 783.6"/>
    <line class="st1" x1="551.39" y1="784.03" x2="551.39" y2="811.49"/>
    <polyline class="st4" points="551.39 811.71 551.39 811.74 551.42 811.74"/>
    <line class="st1" x1="551.85" y1="811.74" x2="579.31" y2="811.74"/>
    <polyline class="st4" points="579.52 811.74 579.55 811.74 579.55 811.71"/>
    <line class="st1" x1="579.55" y1="811.28" x2="579.55" y2="783.82"/>
  </g>
  <line class="st5" x1="565.47" y1="811.74" x2="565.47" y2="803.91"/>
  <g>
    <path class="st4" d="M585.47,974.83s0,.02,0,.03"/>
    <path class="st8" d="M585.45,975.27c-.28,3.09-3.07,12.2-3.79,12.2l-19.29-12.95-.23-.16"/>
    <line class="st4" x1="561.95" y1="974.23" x2="561.93" y2="974.22"/>
  </g>
  <polygon class="st0" points="653.97 709.67 657.85 709.67 657.85 714.89 656.66 714.89 656.66 772.92 651.37 773 651.37 714.89 650.1 714.89 650.1 709.67 653.97 709.67"/>
  <line class="st5" x1="575.15" y1="740.59" x2="545.8" y2="714.89"/>
  <line class="st5" x1="545.8" y1="740.59" x2="575.15" y2="714.89"/>
  <polygon class="st0" points="639.97 975.33 639.97 956.56 643.54 956.56 643.54 952.76 651.37 952.76 651.37 784.62 656.66 784.54 656.66 952.76 662.69 952.76 662.91 956.49 665.67 956.49 665.67 975.41 639.97 975.33"/>
  <g>
    <path class="st3" d="M628.42,949.63c-1.23-7.56-1.36-15.31-.37-22.93,0-.33.19-.61.47-.68,6.38-.02,12.75-.05,19.13-.07"/>
    <path class="st3" d="M628.42,949.63c.02.13.11.22.22.23h18.75l.26-23.93c-6.38-.02-12.75-.05-19.13-.07-.27-.07-.47-.36-.47-.68-.99-7.61-.86-15.36.37-22.93.02-.13.11-.22.22-.23h19.01v23.91"/>
    <path class="st3" d="M648.61,949.52c-.6.07-1.18.08-1.78.01-.11-.02-.2-.13-.2-.27-.18-7.65-.22-15.29-.13-22.94.02-.19.16-.34.33-.34.65-.06,1.3-.04,1.95.03"/>
    <path class="st3" d="M648.61,902.35c-.6-.07-1.18-.08-1.78-.01-.11.02-.2.13-.2.27-.18,7.65-.22,15.29-.13,22.94.02.19.16.34.33.34.65.06,1.3.04,1.95-.03"/>
    <path class="st3" d="M648.96,902.06h.21c.07,0,.12.06.12.14v47.46c0,.08-.06.14-.12.14h-.21l-.14-.06v-.36s.14-47.33.14-47.33Z"/>
    <path class="st3" d="M644.93,948.75c0,.47,1.1.84,2.47.84.11,0,.22,0,.33-.01l.89-.06c.11-.02.2-.13.2-.27v-23.27h-1.98c-.65.01-1.29.02-1.94.04-.27.07-.47.36-.47.68-1.04,7.32-.87,14.8.5,22.05Z"/>
    <path class="st3" d="M644.93,903.16c0-.47,1.1-.84,2.47-.84.11,0,.22,0,.33.01l.89.06c.11.02.2.13.2.27v23.27h-1.98c-.65-.01-1.29-.02-1.94-.04-.27-.07-.47-.36-.47-.68-1.04-7.32-.87-14.8.5-22.05Z"/>
    <path class="st3" d="M646.65,949.37c-.27-.11-.53-.19-.81-.26-.31-.14-.62-.26-.94-.36-.44-.14-.87-.29-1.3-.43-.6-.2-1.2-.35-1.82-.44-.38-.05-.76-.1-1.14-.12-.41-.03-.81-.06-1.22-.08-.97-.05-1.93-.05-2.9,0-.98.05-1.94.19-2.9.4-.72.16-1.42.39-2.11.7-.43.19-.76.47-1.05.89-.02.04-.03.07-.03.12v.42c.04.11.1.18.2.23h18.47c.11,0,.2-.1.2-.23v-.13h0c0-.13-.09-.23-.2-.24-.26-.04-.51-.07-.77-.11-.34-.02-.67-.07-1.01-.15l-.67-.21Z"/>
    <path class="st3" d="M646.65,902.51c-.27.11-.53.19-.81.26-.31.14-.62.26-.94.36-.44.14-.87.29-1.3.43-.6.2-1.2.35-1.82.44-.38.05-.76.1-1.14.12-.41.03-.81.06-1.22.08-.97.05-1.93.05-2.9,0-.98-.05-1.94-.19-2.9-.4-.72-.16-1.42-.39-2.11-.7-.43-.19-.76-.47-1.05-.89-.02-.04-.03-.07-.03-.12v-.42c.04-.11.1-.18.2-.23h18.47c.11,0,.2.1.2.23v.13h0c0,.13-.09.23-.2.24-.26.04-.51.07-.77.11-.34.02-.67.07-1.01.15l-.67.21Z"/>
  </g>
  <circle class="st9" cx="615.85" cy="951.62" r="9.6"/>
  <g>
    <polyline class="st12" points="550.78 946.14 552.12 946.14 552.12 954.72 550.78 954.72"/>
    <polyline class="st12" points="552.12 955.69 552.12 945.17 553.53 945.17 553.53 955.69 552.12 955.69"/>
  </g>
  <g>
    <g>
      <path class="st10" d="M593.74,874.2c0-4.54-3.92-8.22-8.75-8.22-3.56,0-7.08,2.33-8.29,5.6-.17.45-.5,1.39-.45,2.62.15,3.86,4,8.22,8.75,8.22s8.75-3.68,8.75-8.22Z"/>
      <path class="st4" d="M577.4,872.35c0-2.79,3.4-5.05,7.59-5.05"/>
      <path class="st4" d="M592.59,872.35c0-2.79-3.4-5.05-7.59-5.05"/>
      <path class="st4" d="M592.59,872.35c0,.55.44,1,.98,1"/>
      <path class="st4" d="M577.4,872.35c0,.55-.44,1-.98,1"/>
      <g>
        <path class="st10" d="M572.2,874.2c0-4.54-3.92-8.22-8.75-8.22-3.56,0-7.08,2.33-8.29,5.6-.17.45-.5,1.39-.45,2.62.15,3.86,4,8.22,8.75,8.22s8.75-3.68,8.75-8.22Z"/>
        <path class="st4" d="M555.86,872.35c0-2.79,3.4-5.05,7.59-5.05"/>
        <path class="st4" d="M571.05,872.35c0-2.79-3.4-5.05-7.59-5.05"/>
        <path class="st4" d="M571.05,872.35c0,.55.44,1,.98,1"/>
        <path class="st4" d="M555.86,872.35c0,.55-.47,1-1.06,1"/>
      </g>
    </g>
    <g>
      <path class="st10" d="M593.74,901.28c0,4.54-3.92,8.22-8.75,8.22-3.56,0-7.08-2.33-8.29-5.6-.17-.45-.5-1.39-.45-2.62.15-3.86,4-8.22,8.75-8.22s8.75,3.68,8.75,8.22Z"/>
      <path class="st4" d="M577.4,903.13c0,2.79,3.4,5.05,7.59,5.05"/>
      <path class="st4" d="M592.59,903.13c0,2.79-3.4,5.05-7.59,5.05"/>
      <path class="st4" d="M592.59,903.13c0-.55.44-1,.98-1"/>
      <path class="st4" d="M577.4,903.13c0-.55-.44-1-.98-1"/>
      <g>
        <path class="st10" d="M572.2,901.28c0,4.54-3.92,8.22-8.75,8.22-3.56,0-7.08-2.33-8.29-5.6-.17-.45-.5-1.39-.45-2.62.15-3.86,4-8.22,8.75-8.22s8.75,3.68,8.75,8.22Z"/>
        <path class="st4" d="M555.86,903.13c0,2.79,3.4,5.05,7.59,5.05"/>
        <path class="st4" d="M571.05,903.13c0,2.79-3.4,5.05-7.59,5.05"/>
        <path class="st4" d="M571.05,903.13c0-.55.44-1,.98-1"/>
        <path class="st4" d="M555.86,903.13c0-.55-.47-1-1.06-1"/>
      </g>
    </g>
    <rect class="st10" x="562.85" y="865.15" width="22.74" height="44.58" transform="translate(-313.22 1461.67) rotate(-90)"/>
  </g>
  <polygon class="st0" points="579.4 714.89 579.4 758.92 605.62 758.92 605.62 766.67 601.38 766.67 601.38 763.16 575.15 763.16 575.15 744.84 551.09 744.84 551.09 812.03 601.38 812.03 601.38 798.7 605.62 798.7 605.62 816.28 551.09 816.28 551.09 956.81 560.03 956.78 560.03 975.26 534.33 975.26 534.33 956.86 545.8 956.83 545.8 740.59 551.09 740.59 575.15 740.59 575.15 714.89 558.99 714.89 558.99 709.67 618.14 709.67 618.14 714.89 579.4 714.89"/>
  <g>
    <polyline class="st4" points="654.28 785.62 654.28 785.59 654.25 785.59"/>
    <line class="st11" x1="653.83" y1="785.59" x2="546.93" y2="785.59"/>
    <polyline class="st4" points="546.71 785.59 546.69 785.59 546.69 785.62"/>
    <line class="st2" x1="546.69" y1="786.05" x2="546.69" y2="837.64"/>
    <polyline class="st4" points="546.69 837.85 546.69 837.88 546.71 837.88"/>
    <line class="st11" x1="547.14" y1="837.88" x2="654.04" y2="837.88"/>
    <polyline class="st4" points="654.25 837.88 654.28 837.88 654.28 837.85"/>
    <line class="st2" x1="654.28" y1="837.42" x2="654.28" y2="785.84"/>
  </g>
</svg>