<?xml version="1.0" encoding="UTF-8"?>
<svg id="Lag_1" xmlns="http://www.w3.org/2000/svg" version="1.1" viewBox="0 0 1200 1697.14">
  <!-- Generator: Adobe Illustrator 29.6.0, SVG Export Plug-In . SVG Version: 2.1.1 Build 207)  -->
  <defs>
    <style>
      .st0, .st1, .st2, .st3, .st4, .st5, .st6, .st7, .st8, .st9, .st10, .st11, .st12, .st13, .st14, .st15, .st16 {
        stroke-width: .18px;
      }

      .st0, .st1, .st2, .st3, .st4, .st6, .st7, .st9, .st10, .st12, .st13, .st15, .st16 {
        stroke-linecap: round;
      }

      .st0, .st1, .st3, .st4, .st5, .st6, .st7, .st8, .st10, .st12, .st13, .st14, .st15, .st16 {
        stroke: #000;
      }

      .st0, .st1, .st3, .st4, .st5, .st6, .st7, .st9, .st10, .st12, .st15, .st16 {
        fill: none;
      }

      .st0, .st1, .st6, .st7, .st8, .st12, .st15, .st16 {
        stroke-miterlimit: 10;
      }

      .st17 {
        fill: #000016;
      }

      .st1 {
        stroke-dasharray: .06 .43;
      }

      .st2, .st3, .st4, .st5, .st9, .st10, .st11, .st13, .st14 {
        stroke-linejoin: round;
      }

      .st2, .st8, .st11, .st13, .st14 {
        fill: #fff;
      }

      .st2, .st11 {
        stroke: #060305;
      }

      .st18 {
        fill: #e8e3e0;
      }

      .st4 {
        stroke-dasharray: .06 .42;
      }

      .st6 {
        stroke-dasharray: .06 .42;
      }

      .st7 {
        stroke-dasharray: .06 .43;
      }

      .st9 {
        stroke: #767676;
      }

      .st10 {
        stroke-dasharray: .06 .42;
      }

      .st19 {
        fill: #dbd7d5;
      }

      .st12 {
        stroke-dasharray: .06 .43;
      }

      .st15 {
        stroke-dasharray: .06 .43;
      }

      .st16 {
        stroke-dasharray: .06 .42;
      }
    </style>
  </defs>
  <polygon class="st18" points="624.4 691.66 624.4 721.23 653 721.23 653 994.15 548.39 994.15 548.39 691.66 624.4 691.66"/>
  <rect class="st19" x="547.16" y="796.93" width="105.85" height="61.51" transform="translate(1200.16 1655.36) rotate(-180)"/>
  <g>
    <path class="st3" d="M585.47,996.46s0,.02,0,.03"/>
    <path class="st10" d="M585.44,996.91c-.32,2.71-3.11,10.4-3.83,10.4l-19.54-11.11-.23-.13"/>
    <line class="st3" x1="561.65" y1="995.95" x2="561.63" y2="995.94"/>
  </g>
  <polyline class="st13" points="556.39 789.08 537.93 789.15 537.93 807.83 556.39 807.76 556.39 789.08"/>
  <line class="st9" x1="556.39" y1="791.02" x2="554.45" y2="789.08"/>
  <line class="st9" x1="556.39" y1="795.8" x2="549.66" y2="789.08"/>
  <line class="st9" x1="556.39" y1="800.59" x2="544.95" y2="789.08"/>
  <line class="st9" x1="556.39" y1="805.29" x2="540.17" y2="789.08"/>
  <line class="st9" x1="554.15" y1="807.76" x2="537.93" y2="791.54"/>
  <line class="st9" x1="549.36" y1="807.83" x2="537.93" y2="796.33"/>
  <line class="st9" x1="544.66" y1="807.83" x2="537.93" y2="801.11"/>
  <line class="st9" x1="539.87" y1="807.83" x2="537.93" y2="805.82"/>
  <line class="st9" x1="554.67" y1="807.76" x2="556.39" y2="806.04"/>
  <line class="st9" x1="549.89" y1="807.83" x2="556.39" y2="801.26"/>
  <line class="st9" x1="545.1" y1="807.83" x2="556.39" y2="796.55"/>
  <line class="st9" x1="540.4" y1="807.83" x2="556.39" y2="791.77"/>
  <line class="st9" x1="537.93" y1="805.52" x2="554.37" y2="789.08"/>
  <line class="st9" x1="537.93" y1="800.81" x2="549.59" y2="789.08"/>
  <line class="st9" x1="537.93" y1="796.03" x2="544.81" y2="789.08"/>
  <line class="st9" x1="537.93" y1="791.24" x2="540.02" y2="789.08"/>
  <polygon class="st17" points="547.05 689.83 543.16 689.83 543.16 695.14 544.43 695.14 544.36 789.08 549.74 789.08 549.74 695.14 550.93 695.14 550.93 689.83 547.05 689.83"/>
  <rect class="st14" x="632.63" y="796.74" width="17.64" height="21.22"/>
  <rect class="st14" x="614.02" y="796.74" width="17.71" height="21.22"/>
  <rect class="st14" x="595.47" y="796.74" width="17.73" height="21.22"/>
  <polygon class="st14" points="650.32 735.97 626 735.97 625.94 725.09 650.32 725.06 650.32 735.97"/>
  <line class="st3" x1="650.26" y1="796.93" x2="648.77" y2="796.93"/>
  <line class="st3" x1="646.82" y1="796.93" x2="645.55" y2="796.93"/>
  <line class="st3" x1="643.69" y1="796.93" x2="642.42" y2="796.93"/>
  <line class="st3" x1="640.47" y1="796.93" x2="639.2" y2="796.93"/>
  <line class="st3" x1="637.33" y1="796.93" x2="636.06" y2="796.93"/>
  <line class="st3" x1="650.26" y1="814.49" x2="650.26" y2="813.22"/>
  <line class="st3" x1="650.26" y1="811.27" x2="650.26" y2="810"/>
  <line class="st3" x1="650.26" y1="808.14" x2="650.26" y2="806.87"/>
  <line class="st3" x1="650.26" y1="804.92" x2="650.26" y2="803.65"/>
  <line class="st3" x1="650.26" y1="801.78" x2="650.26" y2="800.51"/>
  <line class="st3" x1="650.26" y1="798.57" x2="650.26" y2="796.93"/>
  <line class="st3" x1="613.2" y1="796.93" x2="611.7" y2="796.93"/>
  <line class="st3" x1="609.76" y1="796.93" x2="608.49" y2="796.93"/>
  <line class="st3" x1="606.62" y1="796.93" x2="605.35" y2="796.93"/>
  <line class="st3" x1="603.4" y1="796.93" x2="602.13" y2="796.93"/>
  <line class="st3" x1="600.19" y1="796.93" x2="598.92" y2="796.93"/>
  <line class="st3" x1="631.73" y1="796.93" x2="630.23" y2="796.93"/>
  <line class="st3" x1="628.29" y1="796.93" x2="627.02" y2="796.93"/>
  <line class="st3" x1="625.15" y1="796.93" x2="623.88" y2="796.93"/>
  <line class="st3" x1="621.94" y1="796.93" x2="620.67" y2="796.93"/>
  <line class="st3" x1="618.8" y1="796.93" x2="617.53" y2="796.93"/>
  <line class="st3" x1="597.65" y1="748.87" x2="569.03" y2="748.87"/>
  <path class="st3" d="M569.03,748.83c0,15.79,12.8,28.59,28.59,28.59"/>
  <line class="st3" x1="597.65" y1="777.5" x2="597.65" y2="748.87"/>
  <path class="st3" d="M581.21,691.7h-28.55l-.04,28.55c15.79,0,28.59-12.8,28.59-28.59"/>
  <polyline class="st13" points="600.64 738.63 621.86 738.63 621.86 696.26 600.64 696.26 600.64 738.63"/>
  <polyline class="st3" points="621.86 726.3 600.64 726.3 600.64 738.63 621.86 738.63 621.86 726.3"/>
  <line class="st3" x1="619.4" y1="732.28" x2="613.72" y2="732.28"/>
  <line class="st3" x1="608.79" y1="732.28" x2="603.11" y2="732.28"/>
  <line class="st3" x1="605.95" y1="729.44" x2="605.95" y2="735.12"/>
  <line class="st3" x1="616.56" y1="729.44" x2="616.56" y2="735.12"/>
  <polyline class="st3" points="604.15 699.77 618.28 699.77 618.28 713.9 604.15 713.9 604.15 699.77"/>
  <polyline class="st3" points="621.86 717.48 621.86 696.26 600.64 696.26 600.64 717.48 621.86 717.48"/>
  <line class="st3" x1="620.22" y1="706.87" x2="614.61" y2="706.87"/>
  <polyline class="st13" points="638.23 995.94 638.23 990.63 640.02 990.63 640.02 995.94 638.23 995.94"/>
  <polyline class="st13" points="587.19 995.94 638.23 995.94 638.23 994.15 587.19 994.15 587.19 995.94"/>
  <polyline class="st13" points="559.84 995.94 559.84 990.63 561.63 990.63 561.63 995.94 559.84 995.94"/>
  <polyline class="st13" points="585.47 995.94 585.47 990.63 587.19 990.63 587.19 995.94 585.47 995.94"/>
  <line class="st3" x1="640.02" y1="996.99" x2="559.84" y2="996.99"/>
  <path class="st14" d="M633.98,784.39c0,.97.79,1.76,1.76,1.76s1.76-.79,1.76-1.76-.79-1.76-1.76-1.76-1.76.79-1.76,1.76"/>
  <path class="st8" d="M631.87,735.97v10.26c0,3.95,2.84,7.15,6.35,7.15,3.51,0,6.35-3.2,6.35-7.15v-10.26h-12.69Z"/>
  <path class="st14" d="M619.67,792.44v-9.31c0-.21-.13-.37-.3-.37h-16.96c-.21,0-.37.17-.37.37v9.31"/>
  <path class="st5" d="M610.18,790.72c0-.35.28-.64.64-.64s.64.28.64.64-.28.64-.64.64-.64-.28-.64-.64"/>
  <path class="st5" d="M610.03,786.24c0-.43.35-.78.78-.78s.78.35.78.78-.35.78-.78.78-.78-.35-.78-.78"/>
  <path class="st5" d="M609.66,786.24c0-.64.52-1.16,1.16-1.16s1.16.52,1.16,1.16-.52,1.16-1.16,1.16-1.16-.52-1.16-1.16"/>
  <path class="st5" d="M602.78,783.14h16.15c.21,0,.37.17.37.37v5.46c0,.21-.17.37-.37.37h-16.15c-.21,0-.37-.17-.37-.37v-5.46c0-.21.17-.37.37-.37Z"/>
  <g>
    <polyline class="st3" points="621.58 763.98 621.58 763.95 621.6 763.95"/>
    <line class="st4" x1="622.03" y1="763.95" x2="649.59" y2="763.95"/>
    <polyline class="st3" points="649.8 763.95 649.82 763.95 649.82 763.98"/>
    <line class="st4" x1="649.82" y1="764.4" x2="649.82" y2="791.96"/>
    <polyline class="st3" points="649.82 792.17 649.82 792.2 649.8 792.2"/>
    <line class="st4" x1="649.37" y1="792.2" x2="621.82" y2="792.2"/>
    <polyline class="st3" points="621.6 792.2 621.58 792.2 621.58 792.17"/>
    <line class="st4" x1="621.58" y1="791.75" x2="621.58" y2="764.19"/>
  </g>
  <line class="st5" x1="635.7" y1="792.2" x2="635.7" y2="784.35"/>
  <line class="st5" x1="625.98" y1="720.83" x2="655.43" y2="695.04"/>
  <line class="st5" x1="655.57" y1="721" x2="625.98" y2="695.04"/>
  <polyline class="st13" points="561.63 995.94 585.47 995.94 585.47 993.25 561.63 993.25 561.63 995.94"/>
  <polygon class="st17" points="544.43 973.22 544.43 807.83 549.74 807.83 549.74 973.22 559.98 973.22 559.98 996.98 534.19 996.98 534.19 973.22 544.43 973.22"/>
  <g>
    <g>
      <path class="st13" d="M606.52,873.65c0-4.59,3.96-8.32,8.85-8.32,3.6,0,7.16,2.35,8.39,5.67.17.45.51,1.4.46,2.65-.16,3.91-4.05,8.32-8.85,8.32s-8.85-3.72-8.85-8.32Z"/>
      <path class="st3" d="M623.05,871.79c0-2.82-3.44-5.11-7.68-5.11"/>
      <path class="st3" d="M607.69,871.79c0-2.82,3.44-5.11,7.68-5.11"/>
      <path class="st3" d="M607.69,871.79c0,.56-.44,1.01-.99,1.01"/>
      <path class="st3" d="M623.05,871.79c0,.56.44,1.01.99,1.01"/>
      <g>
        <path class="st13" d="M628.32,873.65c0-4.59,3.96-8.32,8.85-8.32,3.6,0,7.16,2.35,8.39,5.67.17.45.51,1.4.46,2.65-.16,3.91-4.05,8.32-8.85,8.32-4.89,0-8.85-3.72-8.85-8.32Z"/>
        <path class="st3" d="M644.85,871.79c0-2.82-3.44-5.11-7.68-5.11"/>
        <path class="st3" d="M629.48,871.79c0-2.82,3.44-5.11,7.68-5.11"/>
        <path class="st3" d="M629.48,871.79c0,.56-.44,1.01-.99,1.01"/>
        <path class="st3" d="M644.85,871.79c0,.56.48,1.01,1.07,1.01"/>
      </g>
    </g>
    <g>
      <path class="st13" d="M606.52,901.06c0,4.59,3.96,8.32,8.85,8.32,3.6,0,7.16-2.35,8.39-5.67.17-.45.51-1.4.46-2.65-.16-3.91-4.05-8.32-8.85-8.32s-8.85,3.72-8.85,8.32Z"/>
      <path class="st3" d="M623.05,902.92c0,2.82-3.44,5.11-7.68,5.11"/>
      <path class="st3" d="M607.69,902.92c0,2.82,3.44,5.11,7.68,5.11"/>
      <path class="st3" d="M607.69,902.92c0-.56-.44-1.01-.99-1.01"/>
      <path class="st3" d="M623.05,902.92c0-.56.44-1.01.99-1.01"/>
      <g>
        <path class="st13" d="M628.32,901.06c0,4.59,3.96,8.32,8.85,8.32,3.6,0,7.16-2.35,8.39-5.67.17-.45.51-1.4.46-2.65-.16-3.91-4.05-8.32-8.85-8.32-4.89,0-8.85,3.72-8.85,8.32Z"/>
        <path class="st3" d="M644.85,902.92c0,2.82-3.44,5.11-7.68,5.11"/>
        <path class="st3" d="M629.48,902.92c0,2.82,3.44,5.11,7.68,5.11"/>
        <path class="st3" d="M629.48,902.92c0-.56-.44-1.01-.99-1.01"/>
        <path class="st3" d="M644.85,902.92c0-.56.48-1.01,1.07-1.01"/>
      </g>
    </g>
    <rect class="st13" x="614.76" y="864.5" width="23.01" height="45.1" transform="translate(-260.79 1513.32) rotate(-90)"/>
  </g>
  <g>
    <path class="st2" d="M572.86,970.25c1.25-7.65,1.37-15.49.38-23.19,0-.33-.2-.62-.47-.69-6.45-.02-12.9-.05-19.36-.07"/>
    <path class="st2" d="M572.86,970.25c-.02.13-.11.22-.22.23h-1.81s-17.16,0-17.16,0l-.26-24.21c6.45-.02,12.9-.05,19.36-.07.28-.07.47-.36.47-.69,1-7.7.87-15.54-.38-23.19-.02-.13-.11-.22-.22-.23h-1.81s-17.42,0-17.42,0v24.19"/>
    <path class="st2" d="M552.42,970.15c.6.07,1.2.08,1.8.01.12-.02.2-.13.2-.27.18-7.74.22-15.47.13-23.21-.02-.19-.17-.34-.33-.35-.66-.06-1.31-.05-1.97.03"/>
    <path class="st2" d="M552.42,922.43c.6-.07,1.2-.08,1.8-.01.12.02.2.13.2.27.18,7.74.22,15.47.13,23.21-.02.19-.17.34-.33.35-.66.06-1.31.05-1.97-.03"/>
    <path class="st2" d="M552.08,922.13h-.21c-.07,0-.13.07-.13.15,0,16.01,0,32.01,0,48.02,0,.08.06.15.13.15h.21s.15-.06.15-.06v-.36s-.15-47.88-.15-47.88Z"/>
    <path class="st2" d="M556.15,969.37c0,.47-1.12.85-2.49.85-.11,0-.22,0-.33-.01l-.9-.06c-.12-.02-.2-.13-.2-.27v-23.55h2c.65.01,1.31.02,1.96.04.28.07.47.36.47.69,1.05,7.41.88,14.98-.51,22.31Z"/>
    <path class="st2" d="M556.15,923.25c0-.47-1.12-.85-2.49-.85-.11,0-.22,0-.33.01l-.9.06c-.12.02-.2.13-.2.27v23.55h2c.65-.01,1.31-.02,1.96-.04.28-.07.47-.36.47-.69,1.05-7.41.88-14.98-.51-22.31Z"/>
    <path class="st2" d="M554.41,969.99c.27-.11.54-.2.82-.27.31-.14.63-.26.95-.37.44-.14.88-.29,1.32-.44.61-.21,1.22-.35,1.85-.44.38-.06.77-.1,1.16-.13.41-.03.82-.06,1.23-.08.98-.05,1.95-.05,2.93,0,.99.05,1.96.19,2.93.41.73.16,1.44.4,2.13.71.44.19.77.48,1.06.9.02.04.04.07.04.12v.42c-.04.12-.1.18-.2.23-6.23,0-12.46,0-18.69,0-.11,0-.2-.1-.2-.23v-.13h0c0-.13.09-.23.2-.24.26-.04.52-.07.77-.11.34-.02.68-.07,1.02-.16l.68-.21Z"/>
    <path class="st2" d="M554.41,922.59c.27.11.54.2.82.27.31.14.63.26.95.37.44.14.88.29,1.32.44.61.21,1.22.35,1.85.44.38.06.77.1,1.16.13.41.03.82.06,1.23.08.98.05,1.95.05,2.93,0,.99-.05,1.96-.19,2.93-.41.73-.16,1.44-.4,2.13-.71.44-.19.77-.48,1.06-.9.02-.04.04-.07.04-.12v-.42c-.04-.12-.1-.18-.2-.23-6.23,0-12.46,0-18.69,0-.11,0-.2.1-.2.23v.13h0c0,.13.09.23.2.24.26.04.52.07.77.11.34.02.68.07,1.02.16l.68.21Z"/>
  </g>
  <circle class="st11" cx="586.63" cy="959.25" r="9.71"/>
  <g>
    <polyline class="st14" points="650.25 961.67 648.92 961.67 648.92 945.96 650.25 945.96"/>
    <polyline class="st14" points="648.92 945.07 648.92 962.64 647.51 962.64 647.51 945.07 648.92 945.07"/>
  </g>
  <polygon class="st17" points="655.57 973.37 655.57 721 650.26 721 626.05 721 626.05 695.21 642.34 695.21 642.34 689.91 583 689.91 583 695.21 621.86 695.21 621.86 739.31 595.56 739.31 595.56 747.08 599.74 747.08 599.74 743.57 626.05 743.57 626.05 725.26 650.26 725.26 650.26 792.67 599.74 792.67 599.74 779.21 595.56 779.21 595.56 796.93 650.26 796.93 650.26 973.37 640.02 973.37 640.02 996.99 665.81 996.99 665.81 973.37 655.57 973.37"/>
  <g>
    <polyline class="st0" points="556.36 807.76 556.39 807.76 556.39 807.73"/>
    <line class="st12" x1="556.39" y1="807.3" x2="556.39" y2="797.17"/>
    <polyline class="st0" points="556.39 796.95 556.39 796.93 556.42 796.93"/>
    <line class="st1" x1="556.84" y1="796.93" x2="651.65" y2="796.93"/>
    <polyline class="st0" points="651.87 796.93 651.9 796.93 651.9 796.95"/>
    <line class="st16" x1="651.9" y1="797.38" x2="651.9" y2="858.31"/>
    <polyline class="st0" points="651.9 858.52 651.9 858.55 651.87 858.55"/>
    <line class="st7" x1="651.44" y1="858.55" x2="549.98" y2="858.55"/>
    <polyline class="st0" points="549.77 858.55 549.74 858.55 549.74 858.52"/>
    <line class="st15" x1="549.74" y1="858.09" x2="549.74" y2="808.03"/>
    <polyline class="st0" points="549.74 807.82 549.74 807.79 549.77 807.79"/>
    <line class="st6" x1="550.18" y1="807.78" x2="556.15" y2="807.76"/>
  </g>
</svg>