<?xml version="1.0" encoding="UTF-8"?>
<svg id="Lag_1" xmlns="http://www.w3.org/2000/svg" version="1.1" viewBox="0 0 1200 1697.14">
  <!-- Generator: Adobe Illustrator 29.6.0, SVG Export Plug-In . SVG Version: 2.1.1 Build 207)  -->
  <defs>
    <style>
      .st0 {
        stroke-dasharray: .06 .43;
      }

      .st0, .st1, .st2, .st3, .st4, .st5, .st6, .st7, .st8, .st9 {
        stroke-width: .18px;
      }

      .st0, .st1, .st2, .st3, .st5, .st7, .st8, .st9 {
        stroke-linecap: round;
      }

      .st0, .st1, .st3, .st5, .st6, .st7, .st8, .st9 {
        stroke-linejoin: round;
      }

      .st0, .st3, .st4, .st5, .st7, .st8 {
        stroke: #000;
      }

      .st0, .st3, .st5, .st7, .st9 {
        fill: none;
      }

      .st10 {
        fill: #000016;
      }

      .st1, .st2, .st4, .st6, .st8 {
        fill: #fff;
      }

      .st1, .st2, .st6 {
        stroke: #060305;
      }

      .st11 {
        fill: #e8e3e0;
      }

      .st2, .st4 {
        stroke-miterlimit: 10;
      }

      .st12 {
        fill: #dbd7d5;
      }

      .st5 {
        stroke-dasharray: .06 .42;
      }

      .st7 {
        stroke-dasharray: .06 .43;
      }

      .st9 {
        stroke: #747675;
      }
    </style>
  </defs>
  <polygon class="st11" points="634.61 835.22 634.61 691.86 573.05 691.86 573.05 706.61 547.28 706.61 547.28 951.88 575.22 951.88 575.22 1015.4 652.11 1015.4 652.11 835.22 634.61 835.22"/>
  <polyline class="st8" points="648.95 856.31 648.95 838.67 647.53 838.67 647.53 856.31 648.95 856.31"/>
  <polyline class="st8" points="650.37 839.56 648.95 839.56 648.95 855.41 650.37 855.41"/>
  <rect class="st12" x="549.45" y="878.56" width="101.38" height="57.56" transform="translate(1200.28 1814.67) rotate(-180)"/>
  <rect class="st2" x="544.43" y="708.08" width="25.45" height="3.53"/>
  <polyline class="st8" points="571.75 805.62 584.45 805.62 584.45 814.15 572.87 814.15 571.82 813.02 571.75 805.62"/>
  <line class="st3" x1="602.32" y1="926.49" x2="630.95" y2="926.49"/>
  <path class="st3" d="M630.87,926.45c0-15.79-12.8-28.59-28.59-28.59"/>
  <line class="st3" x1="602.32" y1="897.86" x2="602.32" y2="926.49"/>
  <line class="st3" x1="647.31" y1="1015.44" x2="647.31" y2="986.81"/>
  <path class="st3" d="M647.28,986.81c-15.79,0-28.59,12.8-28.59,28.59"/>
  <line class="st3" x1="618.76" y1="1015.44" x2="647.31" y2="1015.44"/>
  <polyline class="st8" points="599.33 936.73 578.1 936.73 578.1 1010.88 599.33 1010.88 599.33 936.73"/>
  <polyline class="st3" points="578.1 949.06 599.33 949.06 599.33 936.73 578.1 936.73 578.1 949.06"/>
  <line class="st3" x1="580.57" y1="943.08" x2="586.25" y2="943.08"/>
  <line class="st3" x1="591.18" y1="943.08" x2="596.86" y2="943.08"/>
  <line class="st3" x1="594.02" y1="945.85" x2="594.02" y2="940.24"/>
  <line class="st3" x1="583.41" y1="945.85" x2="583.41" y2="940.24"/>
  <polyline class="st3" points="595.81 1007.37 581.69 1007.37 581.69 993.24 595.81 993.24 595.81 1007.37"/>
  <line class="st3" x1="579.74" y1="1000.27" x2="585.35" y2="1000.27"/>
  <line class="st9" x1="571.75" y1="808.99" x2="575.11" y2="805.62"/>
  <line class="st9" x1="572.12" y1="813.4" x2="579.89" y2="805.62"/>
  <line class="st9" x1="576.08" y1="814.15" x2="584.45" y2="805.77"/>
  <line class="st9" x1="580.86" y1="814.15" x2="584.45" y2="810.56"/>
  <line class="st9" x1="574.29" y1="814.15" x2="571.82" y2="811.68"/>
  <line class="st9" x1="579.07" y1="814.15" x2="571.75" y2="806.9"/>
  <line class="st9" x1="583.78" y1="814.15" x2="575.26" y2="805.62"/>
  <line class="st9" x1="584.45" y1="810.11" x2="579.97" y2="805.62"/>
  <polyline class="st8" points="609.64 691.86 609.64 697.17 607.85 697.17 607.85 691.86 609.64 691.86"/>
  <polyline class="st8" points="597.23 691.86 597.23 697.17 595.52 697.17 595.52 691.86 597.23 691.86"/>
  <polyline class="st8" points="607.85 691.86 597.23 691.86 597.23 693.65 607.85 693.65 607.85 691.86"/>
  <polyline class="st8" points="634.31 691.86 634.31 697.17 632.59 697.17 632.59 691.86 634.31 691.86"/>
  <polyline class="st8" points="611.36 691.86 611.36 697.17 609.64 697.17 609.64 691.86 611.36 691.86"/>
  <line class="st3" x1="595.52" y1="690.81" x2="634.31" y2="690.81"/>
  <polyline class="st8" points="611.36 691.86 632.59 691.86 632.59 693.65 611.36 693.65 611.36 691.86"/>
  <path class="st4" d="M555.65,939.37v-10.27c0-3.95,2.84-7.15,6.35-7.15s6.35,3.2,6.35,7.15v10.27h-12.7Z"/>
  <polygon class="st8" points="574.1 939.37 549.78 939.37 549.71 950.25 574.1 950.28 574.1 939.37"/>
  <path class="st8" d="M566.17,890.93c0-.97-.79-1.76-1.76-1.76s-1.76.79-1.76,1.76.79,1.76,1.76,1.76,1.76-.79,1.76-1.76"/>
  <line class="st3" x1="564.45" y1="883.12" x2="564.45" y2="890.97"/>
  <path class="st8" d="M598.16,882.87v9.31c0,.21-.13.37-.3.37h-16.97c-.21,0-.37-.17-.37-.37v-9.31"/>
  <path class="st3" d="M588.67,884.6c0,.35.28.64.64.64s.64-.28.64-.64-.28-.64-.64-.64-.64.28-.64.64"/>
  <path class="st3" d="M588.52,889.08c0,.43.35.78.78.78s.78-.35.78-.78-.35-.78-.78-.78-.78.35-.78.78"/>
  <path class="st3" d="M588.14,889.08c0,.64.52,1.16,1.16,1.16s1.16-.52,1.16-1.16-.52-1.16-1.16-1.16-1.16.52-1.16,1.16"/>
  <path class="st3" d="M581.26,885.98h16.15c.21,0,.37.17.37.37v5.46c0,.21-.17.37-.37.37h-16.15c-.21,0-.37-.17-.37-.37v-5.46c0-.21.17-.37.37-.37Z"/>
  <g>
    <polyline class="st3" points="578.58 911.33 578.58 911.36 578.55 911.36"/>
    <line class="st5" x1="578.13" y1="911.36" x2="550.56" y2="911.36"/>
    <polyline class="st3" points="550.35 911.36 550.32 911.36 550.32 911.33"/>
    <line class="st5" x1="550.32" y1="910.91" x2="550.32" y2="883.34"/>
    <polyline class="st3" points="550.32 883.13 550.32 883.1 550.35 883.1"/>
    <line class="st5" x1="550.77" y1="883.1" x2="578.34" y2="883.1"/>
    <polyline class="st3" points="578.55 883.1 578.58 883.1 578.58 883.13"/>
    <line class="st5" x1="578.58" y1="883.55" x2="578.58" y2="911.12"/>
  </g>
  <rect class="st7" x="549.45" y="878.57" width="101.38" height="57.42" transform="translate(1200.28 1814.55) rotate(-180)"/>
  <g>
    <path class="st3" d="M611.36,691.31s0-.02,0-.03"/>
    <path class="st0" d="M611.39,690.86c.28-2.83,2.77-10.95,3.41-10.95l17.4,11.68.19.13"/>
    <line class="st3" x1="632.57" y1="691.84" x2="632.59" y2="691.86"/>
  </g>
  <line class="st3" x1="573.91" y1="954.37" x2="549.95" y2="1011.95"/>
  <line class="st3" x1="549.97" y1="954.49" x2="573.91" y2="1011.93"/>
  <rect class="st8" x="586.83" y="857.43" width="17.64" height="21.23"/>
  <rect class="st8" x="568.22" y="857.43" width="17.71" height="21.23"/>
  <rect class="st8" x="549.67" y="857.43" width="17.73" height="21.23"/>
  <path class="st8" d="M613.56,719.39c0-4.58,3.95-8.3,8.83-8.3,3.59,0,7.14,2.35,8.37,5.65.17.45.51,1.4.46,2.65-.16,3.9-4.04,8.3-8.83,8.3-4.87,0-8.83-3.72-8.83-8.3Z"/>
  <path class="st3" d="M630.05,717.53c0-2.82-3.43-5.1-7.66-5.1"/>
  <path class="st3" d="M614.72,717.53c0-2.82,3.43-5.1,7.66-5.1"/>
  <path class="st3" d="M614.72,717.53c0,.56-.44,1.01-.98,1.01"/>
  <path class="st3" d="M630.05,717.53c0,.56.44,1.01.98,1.01"/>
  <g>
    <path class="st8" d="M613.56,745.89c0,4.58,3.95,8.3,8.83,8.3,3.59,0,7.14-2.35,8.37-5.65.17-.45.51-1.4.46-2.65-.16-3.9-4.04-8.3-8.83-8.3s-8.83,3.72-8.83,8.3Z"/>
    <path class="st3" d="M630.05,747.75c0,2.82-3.43,5.1-7.66,5.1"/>
    <path class="st3" d="M614.72,747.75c0,2.82,3.43,5.1,7.66,5.1"/>
    <path class="st3" d="M614.72,747.75c0-.56-.44-1.01-.98-1.01"/>
    <path class="st3" d="M630.05,747.75c0-.56.48-1.01,1.07-1.01"/>
  </g>
  <rect class="st8" x="610.91" y="721.04" width="22.95" height="22.95" transform="translate(1354.9 110.13) rotate(90)"/>
  <g>
    <path class="st1" d="M572.01,752.65c1.24,7.63,1.37,15.45.37,23.14,0,.33-.19.61-.47.69-6.44.02-12.87.05-19.31.07"/>
    <path class="st1" d="M572.01,752.65c-.02-.13-.11-.22-.22-.23h-18.92l-.26,24.15c6.44.02,12.87.05,19.31.07.28.07.47.36.47.69,1,7.68.87,15.5-.37,23.14-.02.13-.11.22-.22.23h-19.18v-24.13"/>
    <path class="st1" d="M551.63,752.75c.6-.07,1.19-.08,1.8-.01.12.02.2.13.2.27.18,7.72.22,15.43.13,23.15-.02.19-.16.34-.33.34-.66.06-1.31.04-1.97-.03"/>
    <path class="st1" d="M551.63,800.35c.6.07,1.19.08,1.8.01.12-.02.2-.13.2-.27.18-7.72.22-15.43.13-23.15-.02-.19-.16-.34-.33-.34-.66-.06-1.31-.04-1.97.03"/>
    <path class="st1" d="M551.28,800.65h-.21c-.07,0-.13-.07-.13-.15v-47.9c0-.08.06-.15.13-.15h.21l.15.06v.36s-.15,47.76-.15,47.76Z"/>
    <path class="st1" d="M555.34,753.53c0-.47-1.11-.85-2.49-.85-.11,0-.22,0-.33.01l-.9.06c-.12.02-.2.13-.2.27v23.49h2c.65-.01,1.3-.02,1.96-.04.28-.07.47-.36.47-.69,1.05-7.39.88-14.94-.51-22.25Z"/>
    <path class="st1" d="M555.34,799.54c0,.47-1.11.85-2.49.85-.11,0-.22,0-.33-.01l-.9-.06c-.12-.02-.2-.13-.2-.27v-23.49h2c.65.01,1.3.02,1.96.04.28.07.47.36.47.69,1.05,7.39.88,14.94-.51,22.25Z"/>
    <path class="st1" d="M553.61,752.91c.27.11.54.19.81.26.31.14.63.26.95.37.44.14.88.29,1.32.44.61.2,1.22.35,1.84.44.38.06.77.1,1.15.13.41.03.82.06,1.23.08.98.05,1.95.05,2.93,0,.99-.05,1.96-.19,2.92-.41.73-.16,1.43-.4,2.13-.71.44-.19.77-.48,1.06-.9.02-.04.04-.07.04-.12v-.42c-.04-.12-.1-.18-.2-.23h-18.64c-.11,0-.2.1-.2.23v.13h0c0,.13.09.23.2.24.26.04.51.07.77.11.34.02.68.07,1.02.16l.68.21Z"/>
    <path class="st1" d="M553.61,800.2c.27-.11.54-.19.81-.26.31-.14.63-.26.95-.37.44-.14.88-.29,1.32-.44.61-.2,1.22-.35,1.84-.44.38-.06.77-.1,1.15-.13.41-.03.82-.06,1.23-.08.98-.05,1.95-.05,2.93,0,.99.05,1.96.19,2.92.41.73.16,1.43.4,2.13.71.44.19.77.48,1.06.9.02.04.04.07.04.12v.42c-.04.12-.1.18-.2.23h-18.64c-.11,0-.2-.1-.2-.23v-.13h0c0-.13.09-.23.2-.24.26-.04.51-.07.77-.11.34-.02.68-.07,1.02-.16l.68-.21Z"/>
  </g>
  <polygon class="st10" points="591.33 690.81 591.33 686.4 569.88 686.4 569.88 704.49 544.39 704.49 544.39 715.11 544.39 878.43 544.39 882.69 544.39 950.11 544.39 954.37 544.39 954.67 549.7 954.67 549.7 715.11 569.88 715.11 595.52 715.18 595.52 690.81 591.33 690.81"/>
  <polygon class="st10" points="639.91 831.79 639.91 796.61 639.91 790.6 639.91 690.81 634.61 690.81 634.61 790.6 634.61 796.59 634.61 837.09 650.3 837.09 650.3 1011.93 649.11 1011.93 649.11 1017.23 653 1017.23 655.61 1017.23 655.61 831.79 639.91 831.79"/>
  <polyline class="st10" points="604.41 935.98 604.41 928.21 600.22 928.21 600.22 931.72 573.91 931.72 573.91 950.11 549.7 950.11 549.7 954.37 573.91 954.37 573.91 1011.93 557.62 1011.93 557.62 1017.23 616.97 1017.23 616.97 1011.93 578.1 1011.93 578.1 935.98 604.41 935.98"/>
  <polyline class="st10" points="549.7 882.69 549.7 878.43 604.41 878.43 604.41 896.07 600.22 896.07 600.22 882.69 549.7 882.69"/>
  <circle class="st6" cx="586.83" cy="790.02" r="9.69"/>
</svg>