<?xml version="1.0" encoding="UTF-8"?>
<svg id="Lag_1" xmlns="http://www.w3.org/2000/svg" version="1.1" viewBox="0 0 1200 1697.14">
  <!-- Generator: Adobe Illustrator 29.6.0, SVG Export Plug-In . SVG Version: 2.1.1 Build 207)  -->
  <defs>
    <style>
      .st0, .st1, .st2, .st3, .st4, .st5, .st6, .st7, .st8, .st9, .st10, .st11, .st12, .st13 {
        stroke-width: .18px;
      }

      .st0, .st1, .st2, .st3, .st4, .st7, .st8, .st10, .st11, .st12 {
        stroke-linecap: round;
      }

      .st0, .st1, .st3, .st4, .st5, .st6, .st7, .st8, .st10, .st11 {
        fill: none;
      }

      .st0, .st1, .st3, .st4, .st5, .st7, .st8, .st9, .st10, .st11, .st12, .st13 {
        stroke: #000;
      }

      .st0, .st4, .st8, .st9, .st10, .st11 {
        stroke-miterlimit: 10;
      }

      .st1 {
        stroke-dasharray: .06 .43;
      }

      .st1, .st2, .st3, .st5, .st6, .st7, .st12, .st13 {
        stroke-linejoin: round;
      }

      .st14 {
        fill: #000016;
      }

      .st2 {
        stroke: #060305;
      }

      .st2, .st9, .st12, .st13 {
        fill: #fff;
      }

      .st15 {
        fill: #e8e3e0;
      }

      .st4 {
        stroke-dasharray: .06 .42;
      }

      .st6 {
        stroke: #767676;
      }

      .st7 {
        stroke-dasharray: .06 .42;
      }

      .st8 {
        stroke-dasharray: .06 .43;
      }

      .st16 {
        fill: #dbd7d5;
      }

      .st10 {
        stroke-dasharray: .06 .43;
      }

      .st11 {
        stroke-dasharray: .06 .42;
      }
    </style>
  </defs>
  <polygon class="st15" points="624.55 955.45 651.1 955.45 651.1 725.98 546.54 725.98 546.54 984.32 624.55 984.32 624.55 955.45"/>
  <rect class="st16" x="546.02" y="858.63" width="104.13" height="52.28" transform="translate(1196.18 1769.55) rotate(-180)"/>
  <polyline class="st13" points="562.17 724.21 562.17 729.44 560.4 729.44 560.4 724.21 562.17 724.21"/>
  <polyline class="st5" points="612.54 724.21 562.17 724.21 562.17 725.98 612.54 725.9 612.54 724.21"/>
  <polyline class="st13" points="637.75 724.13 614.23 724.21 614.23 726.79 637.75 726.79 637.75 724.13"/>
  <polyline class="st13" points="639.45 724.13 639.52 729.37 637.75 729.37 637.75 724.13 639.45 724.13"/>
  <polyline class="st13" points="614.23 724.21 614.23 729.44 612.54 729.44 612.54 724.21 614.23 724.21"/>
  <line class="st5" x1="560.4" y1="723.1" x2="639.45" y2="723.03"/>
  <path class="st13" d="M632.44,892.74c0-.96.78-1.73,1.73-1.73s1.73.78,1.73,1.73c0,.96-.78,1.73-1.73,1.73s-1.73-.78-1.73-1.73"/>
  <line class="st5" x1="596.53" y1="927.87" x2="568.29" y2="927.87"/>
  <path class="st5" d="M568.37,927.84c0-15.58,12.63-28.2,28.2-28.2"/>
  <line class="st5" x1="596.53" y1="899.7" x2="596.53" y2="927.87"/>
  <line class="st5" x1="552.07" y1="984.36" x2="552.07" y2="956.11"/>
  <path class="st5" d="M552.11,956.11c15.58,0,28.2,12.63,28.2,28.2"/>
  <line class="st5" x1="580.31" y1="984.36" x2="552.07" y2="984.36"/>
  <polyline class="st13" points="599.48 937.97 620.35 937.97 620.35 979.78 599.48 979.78 599.48 937.97"/>
  <polyline class="st5" points="620.35 950.22 599.48 950.22 599.48 937.97 620.35 937.97 620.35 950.22"/>
  <line class="st5" x1="617.92" y1="944.32" x2="612.39" y2="944.32"/>
  <line class="st5" x1="607.45" y1="944.32" x2="601.92" y2="944.32"/>
  <line class="st5" x1="604.72" y1="947.04" x2="604.72" y2="941.51"/>
  <line class="st5" x1="615.12" y1="947.04" x2="615.12" y2="941.51"/>
  <polyline class="st5" points="602.95 976.32 616.89 976.32 616.89 962.38 602.95 962.38 602.95 976.32"/>
  <polyline class="st5" points="620.35 958.92 620.35 979.78 599.48 979.78 599.48 958.92 620.35 958.92"/>
  <line class="st5" x1="618.8" y1="969.39" x2="613.2" y2="969.39"/>
  <polyline class="st13" points="552.59 911.87 541.16 911.95 541.08 923.45 552.59 923.37 552.59 911.87"/>
  <line class="st6" x1="552.59" y1="916.15" x2="548.38" y2="911.87"/>
  <line class="st6" x1="552.59" y1="920.79" x2="543.66" y2="911.95"/>
  <line class="st6" x1="550.45" y1="923.37" x2="541.08" y2="914.01"/>
  <line class="st6" x1="545.8" y1="923.45" x2="541.08" y2="918.73"/>
  <line class="st6" x1="548.83" y1="923.37" x2="552.59" y2="919.61"/>
  <line class="st6" x1="544.11" y1="923.45" x2="552.59" y2="914.89"/>
  <line class="st6" x1="541.08" y1="921.75" x2="550.96" y2="911.87"/>
  <line class="st6" x1="541.08" y1="917.03" x2="546.24" y2="911.95"/>
  <path class="st9" d="M630.36,940.51v-10.13c0-3.9,2.8-7.05,6.26-7.05,3.46,0,6.26,3.15,6.26,7.05v10.13h-12.53Z"/>
  <polygon class="st13" points="648.57 940.51 624.57 940.51 624.51 951.25 648.57 951.28 648.57 940.51"/>
  <rect class="st13" x="631.11" y="859.61" width="17.4" height="20.94"/>
  <rect class="st13" x="612.75" y="859.61" width="17.48" height="20.94"/>
  <rect class="st13" x="594.44" y="859.61" width="17.49" height="20.94"/>
  <path class="st13" d="M618.32,884.79v9.18c0,.2-.13.37-.29.37h-16.74c-.2,0-.37-.16-.37-.37v-9.18"/>
  <path class="st5" d="M608.96,886.49c0,.35.28.63.63.63s.63-.28.63-.63-.28-.63-.63-.63-.63.28-.63.63"/>
  <path class="st5" d="M608.81,890.91c0,.43.35.77.77.77s.77-.35.77-.77-.35-.77-.77-.77-.77.35-.77.77"/>
  <path class="st5" d="M608.44,890.91c0,.63.51,1.14,1.14,1.14s1.14-.51,1.14-1.14-.51-1.14-1.14-1.14-1.14.51-1.14,1.14"/>
  <path class="st5" d="M601.66,887.85h15.93c.2,0,.37.16.37.37v5.39c0,.2-.16.37-.37.37h-15.93c-.2,0-.37-.17-.37-.37v-5.38c0-.2.17-.37.37-.37Z"/>
  <g>
    <polyline class="st3" points="620.2 912.88 620.2 912.9 620.23 912.9"/>
    <line class="st7" x1="620.66" y1="912.9" x2="647.84" y2="912.9"/>
    <polyline class="st3" points="648.05 912.9 648.08 912.9 648.08 912.88"/>
    <line class="st7" x1="648.08" y1="912.45" x2="648.08" y2="885.27"/>
    <polyline class="st3" points="648.08 885.06 648.08 885.03 648.05 885.03"/>
    <line class="st7" x1="647.62" y1="885.03" x2="620.44" y2="885.03"/>
    <polyline class="st3" points="620.23 885.03 620.2 885.03 620.2 885.06"/>
    <line class="st7" x1="620.2" y1="885.48" x2="620.2" y2="912.66"/>
  </g>
  <line class="st5" x1="634.14" y1="885.03" x2="634.14" y2="892.77"/>
  <g>
    <path class="st3" d="M614.34,723.61s0-.02,0-.03"/>
    <path class="st1" d="M614.37,723.16c.28-3.06,3.04-12.07,3.75-12.07l19.1,12.82.23.16"/>
    <line class="st3" x1="637.62" y1="724.19" x2="637.64" y2="724.21"/>
  </g>
  <polygon class="st14" points="546.54 986.05 542.71 986.05 542.71 980.89 543.89 980.89 543.89 923.45 549.12 923.37 549.12 980.89 550.37 980.89 550.37 986.05 546.54 986.05"/>
  <line class="st5" x1="624.55" y1="955.45" x2="653.61" y2="980.89"/>
  <line class="st5" x1="653.61" y1="955.45" x2="624.55" y2="980.89"/>
  <polygon class="st14" points="535.04 723.1 535.04 741.09 541.75 741.09 541.6 745.22 543.89 745.22 543.89 911.94 549.12 911.87 549.12 745.22 559.3 745.22 559.52 741.09 560.48 741.09 560.48 723.1 535.04 723.1"/>
  <g>
    <g>
      <path class="st12" d="M553.03,784.53c0,4.52,3.9,8.19,8.71,8.19,3.54,0,7.05-2.32,8.25-5.58.16-.45.5-1.38.45-2.61-.15-3.85-3.98-8.19-8.71-8.19s-8.71,3.67-8.71,8.19Z"/>
      <path class="st3" d="M569.3,786.36c0,2.78-3.38,5.03-7.56,5.03"/>
      <path class="st3" d="M554.18,786.36c0,2.78,3.38,5.03,7.56,5.03"/>
      <path class="st3" d="M554.18,786.36c0-.55-.43-.99-.97-.99"/>
      <path class="st3" d="M569.3,786.36c0-.55.43-.99.97-.99"/>
      <g>
        <path class="st12" d="M574.48,784.53c0,4.52,3.9,8.19,8.71,8.19,3.54,0,7.05-2.32,8.25-5.58.16-.45.5-1.38.45-2.61-.15-3.85-3.98-8.19-8.71-8.19s-8.71,3.67-8.71,8.19Z"/>
        <path class="st3" d="M590.74,786.36c0,2.78-3.38,5.03-7.56,5.03"/>
        <path class="st3" d="M575.63,786.36c0,2.78,3.38,5.03,7.56,5.03"/>
        <path class="st3" d="M575.63,786.36c0-.55-.43-.99-.97-.99"/>
        <path class="st3" d="M590.74,786.36c0-.55.47-.99,1.05-.99"/>
      </g>
    </g>
    <g>
      <path class="st12" d="M553.03,757.56c0-4.52,3.9-8.19,8.71-8.19,3.54,0,7.05,2.32,8.25,5.58.16.45.5,1.38.45,2.61-.15,3.85-3.98,8.19-8.71,8.19s-8.71-3.67-8.71-8.19Z"/>
      <path class="st3" d="M569.3,755.73c0-2.78-3.38-5.03-7.56-5.03"/>
      <path class="st3" d="M554.18,755.73c0-2.78,3.38-5.03,7.56-5.03"/>
      <path class="st3" d="M554.18,755.73c0,.55-.43.99-.97.99"/>
      <path class="st3" d="M569.3,755.73c0,.55.43.99.97.99"/>
      <g>
        <path class="st12" d="M574.48,757.56c0-4.52,3.9-8.19,8.71-8.19,3.54,0,7.05,2.32,8.25,5.58.16.45.5,1.38.45,2.61-.15,3.85-3.98,8.19-8.71,8.19s-8.71-3.67-8.71-8.19Z"/>
        <path class="st3" d="M590.74,755.73c0-2.78-3.38-5.03-7.56-5.03"/>
        <path class="st3" d="M575.63,755.73c0-2.78,3.38-5.03,7.56-5.03"/>
        <path class="st3" d="M575.63,755.73c0,.55-.43.99-.97.99"/>
        <path class="st3" d="M590.74,755.73c0,.55.47.99,1.05.99"/>
      </g>
    </g>
    <rect class="st12" x="561.14" y="749.15" width="22.64" height="44.38" transform="translate(1343.8 198.88) rotate(90)"/>
  </g>
  <circle class="st2" cx="613.21" cy="827.47" r="9.56"/>
  <g>
    <path class="st2" d="M626.97,837.41c-1.23-7.53-1.35-15.25-.37-22.82,0-.32.19-.61.46-.68,6.35-.02,12.7-.05,19.05-.07"/>
    <path class="st2" d="M626.97,837.41c.02.13.11.22.22.23h18.67l.26-23.82c-6.35-.02-12.7-.05-19.05-.07-.27-.07-.46-.35-.46-.68-.98-7.58-.86-15.29.37-22.82.02-.13.11-.22.22-.23h18.92v23.8"/>
    <path class="st2" d="M647.07,837.3c-.59.07-1.18.08-1.77.01-.11-.02-.2-.13-.2-.27-.18-7.61-.22-15.23-.13-22.84.02-.19.16-.34.33-.34.65-.06,1.29-.04,1.94.03"/>
    <path class="st2" d="M647.07,790.34c-.59-.07-1.18-.08-1.77-.01-.11.02-.2.13-.2.27-.18,7.61-.22,15.23-.13,22.84.02.19.16.34.33.34.65.06,1.29.04,1.94-.03"/>
    <path class="st2" d="M647.42,790.06h.21c.07,0,.12.06.12.14v47.25c0,.08-.06.14-.12.14h-.21l-.14-.06v-.36s.14-47.12.14-47.12Z"/>
    <path class="st2" d="M643.41,836.53c0,.46,1.1.84,2.46.84.11,0,.22,0,.32-.01l.89-.06c.11-.02.2-.13.2-.27v-23.17h-1.97c-.64.01-1.29.02-1.93.04-.27.07-.46.35-.46.68-1.04,7.29-.87,14.74.5,21.95Z"/>
    <path class="st2" d="M643.41,791.15c0-.46,1.1-.84,2.46-.84.11,0,.22,0,.32.01l.89.06c.11.02.2.13.2.27v23.17h-1.97c-.64-.01-1.29-.02-1.93-.04-.27-.07-.46-.35-.46-.68-1.04-7.29-.87-14.74.5-21.95Z"/>
    <path class="st2" d="M645.12,837.15c-.26-.11-.53-.19-.8-.26-.31-.14-.62-.26-.94-.36-.43-.14-.87-.28-1.3-.43-.6-.2-1.2-.35-1.82-.43-.38-.05-.76-.1-1.14-.12-.4-.03-.81-.06-1.21-.08-.96-.05-1.92-.05-2.89,0-.97.05-1.93.19-2.88.4-.72.16-1.41.39-2.1.7-.43.19-.76.47-1.05.89-.02.04-.03.07-.03.12v.42c.04.11.1.18.2.23h18.39c.11,0,.2-.1.2-.23v-.13h0c0-.13-.09-.23-.2-.24-.25-.04-.51-.07-.76-.11-.34-.02-.67-.07-1-.15l-.67-.21Z"/>
    <path class="st2" d="M645.12,790.5c-.26.11-.53.19-.8.26-.31.14-.62.26-.94.36-.43.14-.87.28-1.3.43-.6.2-1.2.35-1.82.43-.38.05-.76.1-1.14.12-.4.03-.81.06-1.21.08-.96.05-1.92.05-2.89,0-.97-.05-1.93-.19-2.88-.4-.72-.16-1.41-.39-2.1-.7-.43-.19-.76-.47-1.05-.89-.02-.04-.03-.07-.03-.12v-.42c.04-.11.1-.18.2-.23h18.39c.11,0,.2.1.2.23v.13h0c0,.13-.09.23-.2.24-.25.04-.51.07-.76.11-.34.02-.67.07-1,.15l-.67.21Z"/>
  </g>
  <g>
    <polyline class="st13" points="648.49 743.93 647.16 743.93 647.16 752.45 648.49 752.45"/>
    <polyline class="st13" points="647.16 753.42 647.16 742.97 645.76 742.97 645.76 753.42 647.16 753.42"/>
  </g>
  <polygon class="st14" points="639.52 723.03 639.52 741.24 648.37 741.27 648.37 880.53 594.4 880.53 594.4 897.93 598.6 897.93 598.6 884.74 648.37 884.74 648.37 951.25 624.55 951.25 624.55 933.11 598.6 933.11 598.6 929.64 594.4 929.64 594.4 937.31 620.35 937.31 620.35 980.89 582.01 980.89 582.01 986.05 640.56 986.05 640.56 980.89 624.55 980.89 624.55 955.45 648.37 955.45 653.61 955.45 653.61 741.28 664.96 741.32 664.96 723.03 639.52 723.03"/>
  <g>
    <polyline class="st0" points="545.89 858.66 545.89 858.63 545.92 858.63"/>
    <polyline class="st11" points="546.34 858.63 553.75 858.63 649.02 858.63"/>
    <polyline class="st0" points="649.23 858.63 649.26 858.63 649.26 858.66"/>
    <line class="st10" x1="649.26" y1="859.09" x2="649.26" y2="910.67"/>
    <polyline class="st0" points="649.26 910.88 649.26 910.91 649.23 910.91"/>
    <line class="st8" x1="648.8" y1="910.91" x2="547.34" y2="910.91"/>
    <polyline class="st0" points="547.13 910.91 547.1 910.91 547.1 910.88"/>
    <polyline class="st4" points="547.1 910.46 547.1 867.85 545.92 858.87"/>
  </g>
</svg>