<?xml version="1.0" encoding="UTF-8"?>
<svg id="Lag_1" xmlns="http://www.w3.org/2000/svg" version="1.1" viewBox="0 0 1200 1697.14">
  <!-- Generator: Adobe Illustrator 29.6.0, SVG Export Plug-In . SVG Version: 2.1.1 Build 207)  -->
  <defs>
    <style>
      .st0 {
        stroke-dasharray: .06 .43;
      }

      .st0, .st1, .st2, .st3, .st4, .st5, .st6, .st7, .st8, .st9, .st10, .st11, .st12, .st13, .st14, .st15 {
        stroke-width: .18px;
      }

      .st0, .st1, .st2, .st3, .st5, .st7, .st8, .st9, .st11, .st12 {
        fill: none;
      }

      .st0, .st1, .st2, .st4, .st5, .st7, .st8, .st9, .st11, .st13, .st14, .st15 {
        stroke-linejoin: round;
      }

      .st0, .st1, .st2, .st4, .st5, .st7, .st9, .st11, .st13, .st14 {
        stroke-linecap: round;
      }

      .st0, .st1, .st2, .st5, .st7, .st8, .st9, .st10, .st11, .st12, .st13, .st14, .st15 {
        stroke: #000;
      }

      .st1 {
        stroke-dasharray: .06 .43;
      }

      .st2 {
        stroke-dasharray: .06 .42;
      }

      .st3, .st4, .st6 {
        stroke: #060305;
      }

      .st3, .st6, .st10, .st12 {
        stroke-miterlimit: 10;
      }

      .st4, .st6, .st10, .st14, .st15 {
        fill: #fff;
      }

      .st16 {
        fill: #e8e3e0;
      }

      .st7 {
        stroke-dasharray: .06 .43;
      }

      .st9 {
        stroke-dasharray: .06 .43;
      }

      .st11 {
        stroke-dasharray: .06 .42;
      }

      .st17 {
        fill: #dbd7d5;
      }

      .st13 {
        fill: #292826;
      }
    </style>
  </defs>
  <path class="st16" d="M509.59,948.42h169.5v-200.34h-169.5v200.34ZM591.8,916.29v31.83h-30.8v-31.83h30.8Z"/>
  <line class="st3" x1="512.69" y1="745.29" x2="558.81" y2="745.27"/>
  <rect class="st17" x="509.34" y="895.93" width="54.14" height="47.14" transform="translate(-380.95 1459.57) rotate(-90.23)"/>
  <line class="st12" x1="564.19" y1="917.25" x2="589.93" y2="946.05"/>
  <line class="st12" x1="564.46" y1="946.3" x2="589.67" y2="917.02"/>
  <line class="st5" x1="660.38" y1="930.94" x2="652.6" y2="931.03"/>
  <path class="st14" d="M652.55,929.25c-.96,0-1.73.8-1.72,1.76,0,.96.8,1.73,1.76,1.72.96,0,1.73-.8,1.72-1.76,0-.96-.8-1.73-1.76-1.72"/>
  <path class="st10" d="M604.72,924.96h10.16c3.91,0,7.07,2.81,7.07,6.28,0,3.47-3.16,6.28-7.07,6.28h-10.16v-12.56Z"/>
  <polygon class="st15" points="604.72 946.59 604.72 916.37 593.95 916.29 593.92 946.59 604.72 946.59"/>
  <path class="st15" d="M660.23,914.93h-9.21c-.2,0-.37-.13-.37-.3v-16.78c0-.2.17-.37.37-.37h9.21"/>
  <path class="st8" d="M658.53,905.54c-.35,0-.63.28-.63.63s.28.63.63.63.63-.28.63-.63-.28-.63-.63-.63"/>
  <path class="st8" d="M654.09,905.4c-.43,0-.78.35-.78.78s.35.78.78.78.78-.35.78-.78-.35-.78-.78-.78"/>
  <path class="st8" d="M654.09,905.03c-.63,0-1.15.51-1.15,1.15s.51,1.15,1.15,1.15,1.15-.51,1.15-1.15-.51-1.15-1.15-1.15"/>
  <path class="st8" d="M651.39,897.85h5.4c.2,0,.37.17.37.37v15.98c0,.2-.16.37-.37.37h-5.4c-.2,0-.37-.17-.37-.37v-15.98c0-.2.16-.37.37-.37Z"/>
  <g>
    <polyline class="st5" points="631.98 916.91 631.95 916.91 631.95 916.94"/>
    <line class="st1" x1="631.95" y1="917.37" x2="632.13" y2="944.84"/>
    <polyline class="st5" points="632.13 945.05 632.13 945.08 632.16 945.08"/>
    <line class="st11" x1="632.58" y1="945.08" x2="660.23" y2="944.9"/>
    <polyline class="st5" points="660.44 944.9 660.47 944.9 660.47 944.87"/>
    <line class="st1" x1="660.46" y1="944.44" x2="660.29" y2="916.97"/>
    <polyline class="st5" points="660.29 916.76 660.29 916.73 660.26 916.73"/>
    <line class="st11" x1="659.84" y1="916.73" x2="632.19" y2="916.91"/>
  </g>
  <g>
    <path class="st5" d="M681.47,834.85s.02,0,.03,0"/>
    <path class="st0" d="M681.91,834.87c3.07.3,12.1,3.18,12.1,3.93l-12.85,20-.16.25"/>
    <line class="st5" x1="680.88" y1="859.22" x2="680.86" y2="859.25"/>
  </g>
  <g>
    <path class="st5" d="M559.3,942.3s-.02,0-.03,0"/>
    <path class="st2" d="M558.86,942.28c-2.8-.28-10.85-2.74-10.85-3.38l11.56-17.23.13-.19"/>
    <line class="st5" x1="559.83" y1="921.3" x2="559.85" y2="921.28"/>
  </g>
  <polyline class="st14" points="514.49 746.33 512.72 746.4 512.7 751.58 514.47 751.59 514.49 746.33 557.06 746.3 557.05 748.08 514.49 748.11 514.49 746.33"/>
  <polyline class="st14" points="680.86 799.91 675.61 799.89 675.62 798.11 680.87 798.13 680.86 799.91"/>
  <polyline class="st14" points="512.76 777.49 511.35 777.5 511.52 793.2 512.92 793.19"/>
  <polyline class="st14" points="606.53 891.67 606.74 912.62 564.83 913.06 564.61 892.1 606.53 891.67"/>
  <polyline class="st5" points="594.53 912.73 594.31 891.77 606.53 891.67 606.74 912.62 594.53 912.73"/>
  <line class="st5" x1="600.41" y1="910.26" x2="600.38" y2="904.63"/>
  <line class="st5" x1="600.31" y1="899.74" x2="600.27" y2="894.19"/>
  <line class="st5" x1="597.47" y1="897.02" x2="603.1" y2="896.91"/>
  <line class="st5" x1="597.58" y1="907.46" x2="603.21" y2="907.43"/>
  <polyline class="st5" points="568.15 895.59 568.25 909.51 582.24 909.42 582.08 895.42 568.15 895.59"/>
  <polyline class="st5" points="585.79 912.84 564.83 913.06 564.61 892.1 585.57 891.88 585.79 912.84"/>
  <line class="st5" x1="575.27" y1="911.39" x2="575.23" y2="905.84"/>
  <line class="st5" x1="645.3" y1="893.68" x2="645.05" y2="865.39"/>
  <path class="st5" d="M644.97,865.36c-15.62.16-28.15,12.96-27.99,28.58"/>
  <line class="st5" x1="617.01" y1="894" x2="645.3" y2="893.68"/>
  <path class="st5" d="M538.08,941.43l-28.29.04-.05-28.32c15.62,0,28.29,12.65,28.29,28.27"/>
  <polyline class="st14" points="560.01 921.35 560.22 942.3 562 942.24 561.78 921.28 560.01 921.35"/>
  <polyline class="st14" points="558.83 746.31 558.81 751.56 557.11 751.56 557.06 746.3 558.83 746.31"/>
  <polyline class="st13" points="583.31 745.22 583.28 766.76 558.85 766.89 558.81 745.27 583.31 745.22"/>
  <polyline class="st14" points="585.04 746.26 583.26 746.33 583.32 751.51 585.02 751.51 585.04 746.26 627.68 746.23 627.67 748.01 585.03 748.04 585.04 746.26"/>
  <polyline class="st14" points="629.38 746.23 629.43 751.49 627.66 751.48 627.68 746.23 629.38 746.23"/>
  <line class="st5" x1="629.35" y1="745.2" x2="583.31" y2="745.22"/>
  <polyline class="st13" points="681.91 745.11 681.9 798.18 660.22 798.14 660.2 766.38 629.4 766.52 629.35 745.2 681.91 745.11"/>
  <polyline class="st14" points="680.89 833.07 675.63 833.05 675.64 831.35 680.82 831.36 680.89 833.07"/>
  <polyline class="st5" points="680.82 831.36 680.86 799.91 679.09 799.9 679.11 831.36 680.82 831.36"/>
  <polyline class="st14" points="680.86 859.27 675.61 859.25 675.61 857.55 680.86 857.57 680.86 859.27"/>
  <polyline class="st14" points="680.88 834.85 675.62 834.83 675.63 833.05 680.89 833.07 680.88 834.85"/>
  <polyline class="st5" points="680.88 834.85 680.86 857.57 679.09 857.56 679.1 834.84 680.88 834.85"/>
  <line class="st5" x1="681.9" y1="798.18" x2="681.9" y2="859.25"/>
  <polyline class="st13" points="647.06 895.46 660.39 895.34 660.29 891.11 647.04 891.24 647.06 895.46"/>
  <polyline class="st14" points="512.96 794.08 512.73 776.6 514.13 776.59 514.29 794.07 512.96 794.08"/>
  <polygon class="st13" points="505.99 745.31 505.99 767.11 505.99 767.11 507.32 894.31 507.32 894.31 507.32 894.32 507.33 895.08 507.32 895.08 507.32 900.27 507.39 900.26 507.53 911.6 512.72 911.54 511.24 767.13 512.72 767.13 512.69 745.29 505.99 745.31"/>
  <polygon class="st13" points="660.28 859.28 660.32 927.31 660.34 945.38 594.17 946.01 594.17 945.94 594.18 945.94 594.17 945.33 594.17 943.36 594.15 943.36 593.89 916.99 612.03 916.79 611.81 895.83 615.3 895.77 615.27 891.55 607.57 891.64 607.78 912.6 564.09 913.1 563.87 892.14 559.72 892.17 560.01 921.35 564.23 921.32 564.19 917.25 589.67 917.02 589.93 943.37 589.93 946.05 564.46 946.3 564.44 942.28 560.22 942.33 560.23 946.34 513.14 946.79 513.15 943.31 507.84 943.37 507.92 952.04 514.64 952.04 660.34 950.56 660.34 950.62 680.14 950.62 680.16 927.34 681.86 927.34 681.9 859.25 660.28 859.28"/>
  <g>
    <g>
      <path class="st14" d="M554.32,842.05c-.02,4.53-3.94,8.2-8.76,8.18-3.55-.01-7.06-2.35-8.26-5.62-.16-.45-.5-1.39-.44-2.62.17-3.86,4.02-8.2,8.76-8.18,4.82.02,8.72,3.71,8.7,8.24Z"/>
      <path class="st5" d="M538,843.84c0,2.79,3.37,5.05,7.56,5.07"/>
      <path class="st5" d="M553.16,843.89c0,2.79-3.41,5.03-7.6,5.01"/>
      <path class="st5" d="M553.16,843.89c0-.55.44-.99.98-.99"/>
      <path class="st5" d="M538,843.84c0-.55-.43-1-.97-1"/>
      <g>
        <path class="st14" d="M532.81,841.98c-.02,4.53-3.94,8.2-8.76,8.18-3.55-.01-7.06-2.35-8.26-5.62-.16-.45-.5-1.39-.44-2.62.17-3.86,4.02-8.2,8.76-8.18,4.82.02,8.72,3.71,8.7,8.24Z"/>
        <path class="st5" d="M516.49,843.76c0,2.79,3.37,5.05,7.56,5.07"/>
        <path class="st5" d="M531.65,843.81c0,2.79-3.41,5.03-7.6,5.01"/>
        <path class="st5" d="M531.65,843.81c0-.55.44-.99.98-.99"/>
        <path class="st5" d="M516.49,843.76c0-.55-.47-1-1.05-1"/>
      </g>
    </g>
    <g>
      <path class="st14" d="M554.41,815.01c.02-4.53-3.88-8.22-8.7-8.24-3.55-.01-7.08,2.3-8.3,5.56-.17.45-.51,1.38-.46,2.62.14,3.86,3.97,8.22,8.7,8.24,4.82.02,8.74-3.64,8.76-8.18Z"/>
      <path class="st5" d="M538.11,813.11c0-2.79,3.41-5.03,7.6-5.01"/>
      <path class="st5" d="M553.27,813.17c0-2.79-3.37-5.05-7.56-5.07"/>
      <path class="st5" d="M553.27,813.17c0,.55.43,1,.97,1"/>
      <path class="st5" d="M538.11,813.11c0,.55-.44.99-.98.99"/>
      <g>
        <path class="st14" d="M532.91,814.93c.02-4.53-3.88-8.22-8.7-8.24-3.55-.01-7.08,2.3-8.3,5.56-.17.45-.51,1.38-.46,2.62.14,3.86,3.97,8.22,8.7,8.24s8.74-3.64,8.76-8.18Z"/>
        <path class="st5" d="M516.6,813.04c0-2.79,3.41-5.03,7.6-5.01"/>
        <path class="st5" d="M531.76,813.09c0-2.79-3.37-5.05-7.56-5.07"/>
        <path class="st5" d="M531.76,813.09c0,.55.43,1,.97,1"/>
        <path class="st5" d="M516.6,813.04c0,.55-.48.99-1.06.99"/>
      </g>
    </g>
    <rect class="st14" x="523.52" y="806.51" width="22.71" height="44.51" transform="translate(1365.51 296.8) rotate(90.2)"/>
  </g>
  <g>
    <g>
      <rect class="st4" x="608.96" y="787.81" width="69.87" height="31.44" transform="translate(-154.3 1454.03) rotate(-90.47)"/>
      <rect class="st4" x="635.01" y="776.19" width="17.47" height="17.47" rx="1.42" ry="1.42" transform="translate(1293.93 1564.52) rotate(179.53)"/>
    </g>
    <polygon class="st4" points="627.56 777.87 628.06 838.77 659.9 838.51 659.53 793.36 627.56 777.87"/>
  </g>
  <g>
    <path class="st4" d="M516.97,764.57c3.57,5.27,7.14,10.55,10.7,15.82.21.19.55.19.82,0,6.86-3.42,13.21-7.83,18.8-13.06.09-.09.12-.21.07-.31l-.99-1.48-9.58-14.27-19.82,13.3"/>
    <path class="st4" d="M516.37,763.31c.27.53.59,1.02.98,1.48.08.09.22.09.33.02,6.44-4.11,12.8-8.33,19.09-12.66.15-.13.19-.32.1-.46-.32-.57-.69-1.1-1.11-1.6"/>
    <path class="st4" d="M519.06,765.94c-.39.26-1.31-.45-2.07-1.58-.06-.09-.12-.18-.17-.28l-.45-.77c-.05-.11,0-.24.11-.31l19.29-12.95,1.1,1.64c.35.54.7,1.08,1.05,1.63.09.27-.04.59-.31.77-5.49,4.93-11.79,8.96-18.56,11.85Z"/>
    <path class="st4" d="M518.25,764.99c.24.16.46.33.67.52.29.18.56.37.83.58.36.28.72.56,1.08.84.5.38.96.8,1.38,1.27.26.28.5.58.74.88.25.32.5.64.74.97.58.77,1.12,1.57,1.61,2.4.5.84.92,1.71,1.28,2.63.27.69.46,1.4.59,2.13.08.47.03.89-.16,1.37-.02.04-.04.07-.08.09l-.35.23c-.12.03-.21.02-.3-.04-3.43-5.1-6.85-10.21-10.28-15.31-.06-.09-.02-.22.08-.29l.11-.07h0c.11-.07.24-.05.31.03.17.19.34.38.51.58.21.27.44.52.69.75l.54.44Z"/>
    <path class="st4" d="M536.81,752.52c.06.28.14.55.23.82.06.33.13.66.22.98.12.44.25.88.37,1.32.17.61.38,1.19.65,1.76.17.35.34.68.53,1.02.2.35.41.7.61,1.05.49.83,1.03,1.63,1.61,2.4.59.78,1.23,1.5,1.95,2.18.54.51,1.12.96,1.75,1.36.4.25.82.37,1.33.37.04,0,.08-.01.12-.04l.35-.23c.07-.1.1-.18.08-.29-3.43-5.1-6.85-10.21-10.28-15.31-.06-.09-.2-.11-.3-.04l-.11.07h0c-.1.07-.14.2-.09.3.11.23.23.46.34.69.17.29.31.6.43.92l.2.67Z"/>
  </g>
  <circle class="st6" cx="566.1" cy="776.01" r="6.96"/>
  <g>
    <polyline class="st5" points="560.08 892.37 560.08 892.34 560.06 892.34"/>
    <line class="st9" x1="559.63" y1="892.34" x2="512.96" y2="892.34"/>
    <polyline class="st5" points="512.75 892.34 512.72 892.34 512.72 892.37"/>
    <line class="st7" x1="512.72" y1="892.79" x2="512.72" y2="948.17"/>
    <polyline class="st5" points="512.72 948.39 512.72 948.42 512.75 948.42"/>
    <line class="st9" x1="513.18" y1="948.42" x2="559.84" y2="948.42"/>
    <polyline class="st5" points="560.06 948.42 560.08 948.42 560.08 948.39"/>
    <line class="st7" x1="560.08" y1="947.96" x2="560.08" y2="892.58"/>
  </g>
</svg>