<?xml version="1.0" encoding="UTF-8"?>
<svg id="Lag_1" xmlns="http://www.w3.org/2000/svg" version="1.1" viewBox="0 0 1200 1697.14">
  <!-- Generator: Adobe Illustrator 29.6.0, SVG Export Plug-In . SVG Version: 2.1.1 Build 207)  -->
  <defs>
    <style>
      .st0, .st1, .st2, .st3, .st4, .st5, .st6, .st7, .st8, .st9, .st10, .st11, .st12, .st13 {
        stroke-width: .18px;
      }

      .st0, .st1, .st2, .st3, .st4, .st7, .st8, .st9, .st10, .st12, .st13 {
        stroke-linecap: round;
      }

      .st0, .st2, .st3, .st4, .st5, .st6, .st7, .st8, .st9, .st10, .st11, .st12, .st13 {
        stroke: #000;
      }

      .st0, .st2, .st3, .st4, .st5, .st8, .st9, .st12, .st13 {
        fill: none;
      }

      .st0, .st2, .st4, .st6, .st9, .st12 {
        stroke-miterlimit: 10;
      }

      .st14 {
        fill: #000016;
      }

      .st1 {
        stroke: #060305;
      }

      .st1, .st3, .st5, .st7, .st8, .st10, .st11, .st13 {
        stroke-linejoin: round;
      }

      .st1, .st6, .st10, .st11 {
        fill: #fff;
      }

      .st15 {
        fill: #e8e3e0;
      }

      .st2 {
        stroke-dasharray: .06 .42;
      }

      .st4 {
        stroke-dasharray: .06 .42;
      }

      .st7 {
        fill: #2a2b29;
      }

      .st16 {
        fill: #dbd7d5;
      }

      .st8 {
        stroke-dasharray: .06 .42;
      }

      .st9 {
        stroke-dasharray: .06 .42;
      }

      .st12 {
        stroke-dasharray: .06 .42;
      }

      .st13 {
        stroke-dasharray: .06 .43;
      }
    </style>
  </defs>
  <polygon class="st15" points="537.84 724.67 537.84 953.67 566.74 953.67 566.74 985.63 652.06 985.63 652.06 724.67 537.84 724.67"/>
  <rect class="st16" x="537.84" y="859.07" width="114.22" height="52.68"/>
  <polyline class="st10" points="546.74 722.97 546.74 728.24 545.03 728.24 545.03 722.97 546.74 722.97"/>
  <polyline class="st3" points="597.49 722.89 546.74 722.97 546.74 724.67 597.49 724.67 597.49 722.89"/>
  <polyline class="st3" points="622.97 722.89 599.27 722.89 599.27 725.57 622.9 725.49 622.97 722.89"/>
  <polyline class="st10" points="624.68 722.89 624.68 728.17 622.97 728.17 622.97 722.89 624.68 722.89"/>
  <polyline class="st10" points="599.27 722.89 599.27 728.17 597.49 728.17 597.49 722.89 599.27 722.89"/>
  <line class="st3" x1="545.03" y1="721.93" x2="624.68" y2="721.85"/>
  <line class="st3" x1="591.84" y1="928.71" x2="620.3" y2="928.71"/>
  <path class="st3" d="M620.23,928.68c0-15.7-12.72-28.42-28.42-28.42"/>
  <line class="st3" x1="591.84" y1="900.33" x2="591.84" y2="928.71"/>
  <polyline class="st7" points="594 938.22 594 930.5 589.76 930.5 589.76 933.99 563.61 933.99 563.61 952.27 539.53 952.27 539.53 956.5 563.61 956.5 563.61 982.14 547.48 982.14 547.48 987.34 606.4 987.34 606.4 982.14 567.84 982.14 567.84 938.22 594 938.22"/>
  <line class="st3" x1="636.65" y1="985.63" x2="636.65" y2="957.17"/>
  <path class="st3" d="M636.61,957.17c-15.7,0-28.42,12.72-28.42,28.42"/>
  <line class="st3" x1="608.19" y1="985.63" x2="636.65" y2="985.63"/>
  <polyline class="st3" points="588.87 938.89 567.84 938.89 567.84 981.02 588.87 981.02 588.87 938.89"/>
  <polyline class="st3" points="567.84 951.23 588.87 951.23 588.87 938.89 567.84 938.89 567.84 951.23"/>
  <line class="st3" x1="570.29" y1="945.28" x2="575.87" y2="945.28"/>
  <line class="st3" x1="580.84" y1="945.28" x2="586.42" y2="945.28"/>
  <line class="st3" x1="583.59" y1="948.03" x2="583.59" y2="942.46"/>
  <line class="st3" x1="573.12" y1="948.03" x2="573.12" y2="942.46"/>
  <polyline class="st3" points="585.38 977.53 571.33 977.53 571.33 963.49 585.38 963.49 585.38 977.53"/>
  <polyline class="st3" points="567.84 960 567.84 981.02 588.87 981.02 588.87 960 567.84 960"/>
  <line class="st3" x1="569.4" y1="970.55" x2="574.97" y2="970.55"/>
  <polygon class="st14" points="651.02 987.3 671.64 986.15 656.56 721.85 624.68 721.85 624.68 741.17 626.24 741.17 626.69 744.89 636.2 745.48 646.38 913.04 638.28 913.78 638.36 925.44 646.83 924.63 650.03 982.14 639.69 982.14 638.36 982.14 638.36 987.34 642.45 987.34 650.32 987.34 650.32 987.34 650.32 987.34 651.03 987.34 651.02 987.3"/>
  <path class="st11" d="M555.73,893.46c0-.96-.78-1.75-1.75-1.75s-1.75.78-1.75,1.75.78,1.75,1.75,1.75,1.75-.78,1.75-1.75"/>
  <line class="st5" x1="554.02" y1="885.69" x2="554.02" y2="893.49"/>
  <g>
    <path class="st3" d="M599.49,722.28s0-.02,0-.03"/>
    <path class="st8" d="M599.52,721.84c.28-3.08,3.06-12.17,3.78-12.17l19.24,12.91.23.16"/>
    <line class="st3" x1="622.95" y1="722.88" x2="622.97" y2="722.89"/>
  </g>
  <circle class="st1" cx="611.23" cy="739.98" r="9.63"/>
  <g>
    <path class="st1" d="M548.36,749.11c7.59,1.24,15.36,1.36,23,.37.33,0,.61-.19.68-.47.02-6.4.05-12.8.07-19.19"/>
    <path class="st1" d="M548.36,749.11c-.13-.02-.22-.11-.23-.22,0-.6,0-1.19,0-1.79v-17.02s24-.26,24-.26c.02,6.4.05,12.8.07,19.19.07.27.36.47.68.47,7.64.99,15.41.86,23-.37.13-.02.22-.11.23-.22v-1.79s0-17.28,0-17.28h-23.99"/>
    <path class="st1" d="M548.46,728.85c-.07.6-.08,1.19-.01,1.79.02.12.13.2.27.2,7.67.18,15.34.22,23.02.13.19-.02.34-.16.34-.33.06-.66.04-1.3-.03-1.96"/>
    <path class="st1" d="M595.78,728.85c.07.6.08,1.19.01,1.79-.02.12-.13.2-.27.2-7.67.18-15.34.22-23.02.13-.19-.02-.34-.16-.34-.33-.06-.66-.04-1.3.03-1.96"/>
    <path class="st1" d="M596.08,728.5v-.21c0-.07-.06-.12-.14-.12-15.87,0-31.74,0-47.62,0-.08,0-.14.06-.14.12v.21s.06.14.06.14h.36s47.48-.14,47.48-.14Z"/>
    <path class="st1" d="M549.24,732.54c-.47,0-.84-1.11-.84-2.47,0-.11,0-.22.01-.33l.06-.89c.02-.12.13-.2.27-.2h23.35v1.99c-.01.65-.02,1.3-.04,1.94-.07.27-.36.47-.68.47-7.34,1.04-14.85.87-22.12-.51Z"/>
    <path class="st1" d="M594.97,732.54c.47,0,.84-1.11.84-2.47,0-.11,0-.22-.01-.33l-.06-.89c-.02-.12-.13-.2-.27-.2h-23.35v1.99c.01.65.02,1.3.04,1.94.07.27.36.47.68.47,7.34,1.04,14.85.87,22.12-.51Z"/>
    <path class="st1" d="M548.62,730.82c.11.27.19.54.26.81.14.31.26.62.37.94.14.44.29.87.43,1.31.2.6.35,1.21.44,1.83.05.38.1.76.12,1.15.03.41.06.81.08,1.22.05.97.05,1.94,0,2.91-.05.98-.19,1.94-.41,2.91-.16.72-.4,1.42-.7,2.11-.19.44-.47.76-.9,1.05-.04.02-.07.04-.12.04h-.42c-.12-.04-.18-.1-.23-.2,0-6.18,0-12.35,0-18.53,0-.11.1-.2.23-.2h.13c.13,0,.23.09.24.2.04.26.07.51.11.77.02.34.07.68.15,1.01l.21.67Z"/>
    <path class="st1" d="M595.63,730.82c-.11.27-.19.54-.26.81-.14.31-.26.62-.37.94-.14.44-.29.87-.43,1.31-.2.6-.35,1.21-.44,1.83-.05.38-.1.76-.12,1.15-.03.41-.06.81-.08,1.22-.05.97-.05,1.94,0,2.91.05.98.19,1.94.41,2.91.16.72.4,1.42.7,2.11.19.44.47.76.9,1.05.04.02.07.04.12.04h.42c.12-.04.18-.1.23-.2,0-6.18,0-12.35,0-18.53,0-.11-.1-.2-.23-.2h-.13c-.13,0-.23.09-.24.2-.04.26-.07.51-.11.77-.02.34-.07.68-.15,1.01l-.21.67Z"/>
  </g>
  <g>
    <g>
      <path class="st10" d="M582.89,820.56c0,4.56-3.93,8.25-8.77,8.25-3.57,0-7.1-2.33-8.32-5.62-.17-.45-.5-1.39-.46-2.63.15-3.88,4.01-8.25,8.77-8.25s8.77,3.69,8.77,8.25Z"/>
      <path class="st3" d="M566.49,822.41c0,2.8,3.41,5.07,7.62,5.07"/>
      <path class="st3" d="M581.73,822.41c0,2.8-3.41,5.07-7.62,5.07"/>
      <path class="st3" d="M581.73,822.41c0-.55.44-1,.98-1"/>
      <path class="st3" d="M566.49,822.41c0-.55-.44-1-.98-1"/>
      <g>
        <path class="st10" d="M561.28,820.56c0,4.56-3.93,8.25-8.77,8.25-3.57,0-7.1-2.33-8.32-5.62-.17-.45-.5-1.39-.46-2.63.15-3.88,4.01-8.25,8.77-8.25s8.77,3.69,8.77,8.25Z"/>
        <path class="st3" d="M544.88,822.41c0,2.8,3.41,5.07,7.62,5.07"/>
        <path class="st3" d="M560.12,822.41c0,2.8-3.41,5.07-7.62,5.07"/>
        <path class="st3" d="M560.12,822.41c0-.55.44-1,.98-1"/>
        <path class="st3" d="M544.88,822.41c0-.55-.47-1-1.06-1"/>
      </g>
    </g>
    <g>
      <path class="st10" d="M582.89,793.38c0-4.56-3.93-8.25-8.77-8.25-3.57,0-7.1,2.33-8.32,5.62-.17.45-.5,1.39-.46,2.63.15,3.88,4.01,8.25,8.77,8.25s8.77-3.69,8.77-8.25Z"/>
      <path class="st3" d="M566.49,791.54c0-2.8,3.41-5.07,7.62-5.07"/>
      <path class="st3" d="M581.73,791.54c0-2.8-3.41-5.07-7.62-5.07"/>
      <path class="st3" d="M581.73,791.54c0,.55.44,1,.98,1"/>
      <path class="st3" d="M566.49,791.54c0,.55-.44,1-.98,1"/>
      <g>
        <path class="st10" d="M561.28,793.38c0-4.56-3.93-8.25-8.77-8.25-3.57,0-7.1,2.33-8.32,5.62-.17.45-.5,1.39-.46,2.63.15,3.88,4.01,8.25,8.77,8.25s8.77-3.69,8.77-8.25Z"/>
        <path class="st3" d="M544.88,791.54c0-2.8,3.41-5.07,7.62-5.07"/>
        <path class="st3" d="M560.12,791.54c0-2.8-3.41-5.07-7.62-5.07"/>
        <path class="st3" d="M560.12,791.54c0,.55.44,1,.98,1"/>
        <path class="st3" d="M544.88,791.54c0,.55-.47,1-1.06,1"/>
      </g>
    </g>
    <rect class="st10" x="551.9" y="784.91" width="22.82" height="44.72" transform="translate(1370.58 243.97) rotate(90)"/>
  </g>
  <line class="st5" x1="534.37" y1="956.63" x2="563.64" y2="982.27"/>
  <line class="st5" x1="563.64" y1="956.63" x2="534.37" y2="982.27"/>
  <path class="st6" d="M557.79,941.58v-10.21c0-3.93-2.82-7.11-6.31-7.11-3.49,0-6.31,3.18-6.31,7.11v10.21s12.62,0,12.62,0Z"/>
  <polygon class="st11" points="539.44 941.58 563.63 941.58 563.69 952.4 539.44 952.43 539.44 941.58"/>
  <rect class="st11" x="539.5" y="860.06" width="17.54" height="21.1" transform="translate(1096.54 1741.22) rotate(-180)"/>
  <rect class="st11" x="557.93" y="860.06" width="17.61" height="21.1" transform="translate(1133.47 1741.22) rotate(-180)"/>
  <rect class="st11" x="576.36" y="860.06" width="17.62" height="21.1" transform="translate(1170.34 1741.22) rotate(-180)"/>
  <path class="st11" d="M569.92,885.43v9.25c0,.21.13.37.3.37h16.87c.21,0,.37-.17.37-.37v-9.25"/>
  <path class="st5" d="M579.36,887.14c0,.35-.28.63-.63.63s-.63-.28-.63-.63.28-.63.63-.63.63.28.63.63"/>
  <path class="st5" d="M579.51,891.6c0,.43-.35.78-.78.78s-.78-.35-.78-.78c0-.43.35-.78.78-.78s.78.35.78.78"/>
  <path class="st5" d="M579.88,891.6c0,.64-.52,1.15-1.15,1.15s-1.15-.52-1.15-1.15c0-.64.52-1.15,1.15-1.15s1.15.52,1.15,1.15"/>
  <path class="st5" d="M570.66,888.52h16.05c.21,0,.37.17.37.37v5.43c0,.2-.17.37-.37.37h-16.06c-.2,0-.37-.17-.37-.37v-5.43c0-.2.17-.37.37-.37Z"/>
  <g>
    <polyline class="st3" points="568.03 913.73 568.03 913.76 568 913.76"/>
    <line class="st13" x1="567.57" y1="913.76" x2="540.18" y2="913.76"/>
    <polyline class="st3" points="539.97 913.76 539.94 913.76 539.94 913.73"/>
    <line class="st13" x1="539.94" y1="913.3" x2="539.94" y2="885.91"/>
    <polyline class="st3" points="539.94 885.7 539.94 885.67 539.97 885.67"/>
    <line class="st13" x1="540.4" y1="885.67" x2="567.78" y2="885.67"/>
    <polyline class="st3" points="568 885.67 568.03 885.67 568.03 885.7"/>
    <line class="st13" x1="568.03" y1="886.13" x2="568.03" y2="913.52"/>
  </g>
  <polyline class="st10" points="540.94 766.66 540.94 749.05 542.35 749.05 542.35 766.66 540.94 766.66"/>
  <polyline class="st10" points="539.53 750.01 540.94 750.01 540.94 765.76 539.53 765.76"/>
  <polygon class="st14" points="567.88 982.27 567.88 938.35 594.03 938.35 594.03 930.63 589.8 930.63 589.8 934.12 563.64 934.12 563.64 952.4 539.64 952.4 539.64 885.38 589.8 885.38 589.8 898.68 594.03 898.68 594.03 881.14 539.64 881.14 539.64 740.81 545.03 740.79 545.03 723.69 545.03 722.43 545.03 721.93 528.36 721.93 528.36 722.43 528.36 723.69 528.36 740.85 534.37 740.83 534.37 956.63 539.64 956.63 563.64 956.63 563.64 982.27 547.52 982.27 547.52 987.47 606.52 987.47 606.52 982.27 567.88 982.27"/>
  <g>
    <polyline class="st0" points="536.33 859.1 536.33 859.07 536.36 859.07"/>
    <polyline class="st12" points="536.78 859.07 542.83 859.07 650.16 859.07"/>
    <polyline class="st0" points="650.37 859.07 650.4 859.07 650.4 859.1"/>
    <line class="st9" x1="650.4" y1="859.52" x2="650.4" y2="911.73"/>
    <polyline class="st0" points="650.4 911.94 650.4 911.97 650.37 911.97"/>
    <line class="st4" x1="649.95" y1="911.97" x2="535.58" y2="911.97"/>
    <polyline class="st0" points="535.37 911.97 535.34 911.97 535.34 911.94"/>
    <polyline class="st2" points="535.34 911.52 535.34 868.4 536.31 859.31"/>
  </g>
</svg>