<?xml version="1.0" encoding="UTF-8"?>
<svg id="Lag_1" xmlns="http://www.w3.org/2000/svg" version="1.1" viewBox="0 0 1200 1697.14">
  <!-- Generator: Adobe Illustrator 29.6.0, SVG Export Plug-In . SVG Version: 2.1.1 Build 207)  -->
  <defs>
    <style>
      .st0, .st1, .st2, .st3, .st4, .st5, .st6, .st7, .st8, .st9, .st10, .st11, .st12, .st13 {
        stroke-width: .18px;
      }

      .st0, .st1, .st2, .st3, .st4, .st7, .st8, .st10, .st11, .st12 {
        stroke-linecap: round;
      }

      .st0, .st1, .st3, .st4, .st5, .st6, .st7, .st8, .st10, .st11 {
        fill: none;
      }

      .st0, .st1, .st3, .st4, .st5, .st7, .st8, .st9, .st10, .st11, .st12, .st13 {
        stroke: #000;
      }

      .st0, .st4, .st8, .st9, .st10, .st11 {
        stroke-miterlimit: 10;
      }

      .st1 {
        stroke-dasharray: .06 .43;
      }

      .st1, .st2, .st3, .st5, .st6, .st7, .st12, .st13 {
        stroke-linejoin: round;
      }

      .st14 {
        fill: #000016;
      }

      .st2 {
        stroke: #060305;
      }

      .st2, .st9, .st12, .st13 {
        fill: #fff;
      }

      .st15 {
        fill: #e8e3e0;
      }

      .st4 {
        stroke-dasharray: .06 .42;
      }

      .st6 {
        stroke: #767676;
      }

      .st7 {
        stroke-dasharray: .06 .42;
      }

      .st8 {
        stroke-dasharray: .06 .43;
      }

      .st16 {
        fill: #dbd7d5;
      }

      .st10 {
        stroke-dasharray: .06 .43;
      }

      .st11 {
        stroke-dasharray: .06 .42;
      }
    </style>
  </defs>
  <polygon class="st15" points="548.86 725.98 548.86 954.38 577.47 954.38 577.47 984.32 653.42 984.32 653.42 725.98 548.86 725.98"/>
  <rect class="st16" x="549.81" y="858.63" width="104.13" height="52.28"/>
  <polyline class="st13" points="551.59 750.53 552.92 750.53 552.92 766.16 551.59 766.16"/>
  <polyline class="st13" points="562.21 724.21 562.21 729.44 560.44 729.44 560.44 724.21 562.21 724.21"/>
  <polyline class="st5" points="612.57 724.21 562.21 724.21 562.21 725.98 612.57 725.9 612.57 724.21"/>
  <polyline class="st13" points="637.79 724.13 614.27 724.21 614.27 726.79 637.79 726.79 637.79 724.13"/>
  <polyline class="st13" points="639.49 724.13 639.56 729.37 637.79 729.37 637.79 724.13 639.49 724.13"/>
  <polyline class="st13" points="614.27 724.21 614.27 729.44 612.57 729.44 612.57 724.21 614.27 724.21"/>
  <line class="st5" x1="560.44" y1="723.18" x2="639.49" y2="723.1"/>
  <path class="st13" d="M567.52,892.74c0-.96-.78-1.73-1.73-1.73s-1.73.78-1.73,1.73.78,1.73,1.73,1.73,1.73-.78,1.73-1.73"/>
  <line class="st5" x1="603.43" y1="927.87" x2="631.67" y2="927.87"/>
  <path class="st5" d="M631.6,927.84c0-15.58-12.63-28.2-28.2-28.2"/>
  <line class="st5" x1="603.43" y1="899.7" x2="603.43" y2="927.87"/>
  <line class="st5" x1="647.89" y1="984.36" x2="647.89" y2="956.11"/>
  <path class="st5" d="M647.86,956.11c-15.58,0-28.2,12.63-28.2,28.2"/>
  <line class="st5" x1="619.65" y1="984.36" x2="647.89" y2="984.36"/>
  <polyline class="st13" points="600.48 937.97 579.61 937.97 579.61 979.78 600.48 979.78 600.48 937.97"/>
  <polyline class="st5" points="579.61 950.22 600.48 950.22 600.48 937.97 579.61 937.97 579.61 950.22"/>
  <line class="st5" x1="582.04" y1="944.32" x2="587.58" y2="944.32"/>
  <line class="st5" x1="592.52" y1="944.32" x2="598.05" y2="944.32"/>
  <line class="st5" x1="595.24" y1="947.04" x2="595.24" y2="941.51"/>
  <line class="st5" x1="584.85" y1="947.04" x2="584.85" y2="941.51"/>
  <polyline class="st5" points="597.01 976.32 583.08 976.32 583.08 962.38 597.01 962.38 597.01 976.32"/>
  <polyline class="st5" points="579.61 958.92 579.61 979.78 600.48 979.78 600.48 958.92 579.61 958.92"/>
  <line class="st5" x1="581.16" y1="969.39" x2="586.76" y2="969.39"/>
  <polyline class="st13" points="647.38 911.87 658.81 911.95 658.88 923.45 647.38 923.37 647.38 911.87"/>
  <line class="st6" x1="647.38" y1="916.15" x2="651.58" y2="911.87"/>
  <line class="st6" x1="647.38" y1="920.79" x2="656.3" y2="911.95"/>
  <line class="st6" x1="649.52" y1="923.37" x2="658.88" y2="914.01"/>
  <line class="st6" x1="654.16" y1="923.45" x2="658.88" y2="918.73"/>
  <line class="st6" x1="651.14" y1="923.37" x2="647.38" y2="919.61"/>
  <line class="st6" x1="655.86" y1="923.45" x2="647.38" y2="914.89"/>
  <line class="st6" x1="658.88" y1="921.75" x2="649" y2="911.87"/>
  <line class="st6" x1="658.88" y1="917.03" x2="653.72" y2="911.95"/>
  <polyline class="st13" points="552.92 767.05 552.92 749.57 554.32 749.57 554.32 767.05 552.92 767.05"/>
  <path class="st9" d="M569.6,940.51v-10.13c0-3.9-2.8-7.05-6.26-7.05s-6.26,3.15-6.26,7.05v10.13s12.53,0,12.53,0Z"/>
  <polygon class="st13" points="551.39 940.51 575.39 940.51 575.46 951.25 551.39 951.28 551.39 940.51"/>
  <rect class="st13" x="551.45" y="859.61" width="17.4" height="20.94" transform="translate(1120.31 1740.16) rotate(-180)"/>
  <rect class="st13" x="569.74" y="859.61" width="17.48" height="20.94" transform="translate(1156.96 1740.16) rotate(-180)"/>
  <rect class="st13" x="588.03" y="859.61" width="17.49" height="20.94" transform="translate(1193.55 1740.16) rotate(-180)"/>
  <path class="st13" d="M581.64,884.79v9.18c0,.2.13.37.29.37h16.74c.2,0,.37-.16.37-.37v-9.18"/>
  <path class="st5" d="M591,886.49c0,.35-.28.63-.63.63s-.63-.28-.63-.63.28-.63.63-.63.63.28.63.63"/>
  <path class="st5" d="M591.15,890.91c0,.43-.35.77-.77.77s-.77-.35-.77-.77c0-.43.35-.77.77-.77s.77.35.77.77"/>
  <path class="st5" d="M591.52,890.91c0,.63-.51,1.14-1.14,1.14s-1.14-.51-1.14-1.14c0-.63.51-1.14,1.14-1.14s1.14.51,1.14,1.14"/>
  <path class="st5" d="M582.37,887.85h15.93c.2,0,.37.17.37.37v5.38c0,.2-.17.37-.37.37h-15.93c-.2,0-.37-.17-.37-.37v-5.38c0-.2.16-.37.37-.37Z"/>
  <g>
    <polyline class="st3" points="579.76 912.88 579.76 912.9 579.73 912.9"/>
    <line class="st7" x1="579.31" y1="912.9" x2="552.13" y2="912.9"/>
    <polyline class="st3" points="551.91 912.9 551.89 912.9 551.89 912.88"/>
    <line class="st7" x1="551.89" y1="912.45" x2="551.89" y2="885.27"/>
    <polyline class="st3" points="551.89 885.06 551.89 885.03 551.91 885.03"/>
    <line class="st7" x1="552.34" y1="885.03" x2="579.52" y2="885.03"/>
    <polyline class="st3" points="579.73 885.03 579.76 885.03 579.76 885.06"/>
    <line class="st7" x1="579.76" y1="885.48" x2="579.76" y2="912.66"/>
  </g>
  <line class="st5" x1="565.82" y1="885.03" x2="565.82" y2="892.77"/>
  <g>
    <path class="st3" d="M614.38,723.61s0-.02,0-.03"/>
    <path class="st1" d="M614.4,723.16c.28-3.06,3.04-12.07,3.75-12.07l19.1,12.82.23.16"/>
    <line class="st3" x1="637.66" y1="724.19" x2="637.68" y2="724.21"/>
  </g>
  <polygon class="st14" points="653.42 986.05 657.26 986.05 657.26 980.89 656.08 980.89 656.08 923.45 650.84 923.37 650.84 980.89 649.59 980.89 649.59 986.05 653.42 986.05"/>
  <line class="st5" x1="575.41" y1="955.45" x2="546.36" y2="980.89"/>
  <line class="st5" x1="546.36" y1="955.45" x2="575.41" y2="980.89"/>
  <polygon class="st14" points="639.56 723.1 639.56 741.68 643.1 741.68 643.1 745.44 650.84 745.44 650.84 911.87 656.08 911.94 656.08 745.44 662.05 745.44 662.27 741.76 665 741.76 665 723.03 639.56 723.1"/>
  <polygon class="st14" points="579.61 980.89 579.61 937.31 605.57 937.31 605.57 929.64 601.36 929.64 601.36 933.11 575.41 933.11 575.41 951.25 551.59 951.25 551.59 884.74 601.36 884.74 601.36 897.93 605.57 897.93 605.57 880.53 551.59 880.53 551.59 741.44 560.44 741.46 560.44 723.18 535 723.18 535 741.39 546.36 741.42 546.36 955.45 551.59 955.45 575.41 955.45 575.41 980.89 559.41 980.89 559.41 986.05 617.96 986.05 617.96 980.89 579.61 980.89"/>
  <g>
    <g>
      <path class="st12" d="M647.16,786.77c0,4.52-3.9,8.19-8.71,8.19-3.54,0-7.05-2.32-8.25-5.58-.16-.45-.5-1.38-.45-2.61.15-3.85,3.98-8.19,8.71-8.19s8.71,3.67,8.71,8.19Z"/>
      <path class="st3" d="M630.89,788.6c0,2.78,3.38,5.03,7.56,5.03"/>
      <path class="st3" d="M646.01,788.6c0,2.78-3.38,5.03-7.56,5.03"/>
      <path class="st3" d="M646.01,788.6c0-.55.43-.99.97-.99"/>
      <path class="st3" d="M630.89,788.6c0-.55-.43-.99-.97-.99"/>
      <g>
        <path class="st12" d="M625.71,786.77c0,4.52-3.9,8.19-8.71,8.19-3.54,0-7.05-2.32-8.25-5.58-.16-.45-.5-1.38-.45-2.61.15-3.85,3.98-8.19,8.71-8.19s8.71,3.67,8.71,8.19Z"/>
        <path class="st3" d="M609.44,788.6c0,2.78,3.38,5.03,7.56,5.03"/>
        <path class="st3" d="M624.56,788.6c0,2.78-3.38,5.03-7.56,5.03"/>
        <path class="st3" d="M624.56,788.6c0-.55.43-.99.97-.99"/>
        <path class="st3" d="M609.44,788.6c0-.55-.47-.99-1.05-.99"/>
      </g>
    </g>
    <g>
      <path class="st12" d="M647.16,759.8c0-4.52-3.9-8.19-8.71-8.19-3.54,0-7.05,2.32-8.25,5.58-.16.45-.5,1.38-.45,2.61.15,3.85,3.98,8.19,8.71,8.19,4.81,0,8.71-3.67,8.71-8.19Z"/>
      <path class="st3" d="M630.89,757.97c0-2.78,3.38-5.03,7.56-5.03"/>
      <path class="st3" d="M646.01,757.97c0-2.78-3.38-5.03-7.56-5.03"/>
      <path class="st3" d="M646.01,757.97c0,.55.43.99.97.99"/>
      <path class="st3" d="M630.89,757.97c0,.55-.43.99-.97.99"/>
      <g>
        <path class="st12" d="M625.71,759.8c0-4.52-3.9-8.19-8.71-8.19-3.54,0-7.05,2.32-8.25,5.58-.16.45-.5,1.38-.45,2.61.15,3.85,3.98,8.19,8.71,8.19s8.71-3.67,8.71-8.19Z"/>
        <path class="st3" d="M609.44,757.97c0-2.78,3.38-5.03,7.56-5.03"/>
        <path class="st3" d="M624.56,757.97c0-2.78-3.38-5.03-7.56-5.03"/>
        <path class="st3" d="M624.56,757.97c0,.55.43.99.97.99"/>
        <path class="st3" d="M609.44,757.97c0,.55-.47.99-1.05.99"/>
      </g>
    </g>
    <rect class="st12" x="616.4" y="751.39" width="22.64" height="44.38" transform="translate(1401.31 145.85) rotate(90)"/>
  </g>
  <circle class="st2" cx="587.38" cy="827.59" r="9.56"/>
  <g>
    <path class="st2" d="M573.38,837.49c1.23-7.53,1.35-15.25.37-22.82,0-.32-.19-.61-.46-.68-6.35-.02-12.7-.05-19.05-.07"/>
    <path class="st2" d="M573.38,837.49c-.02.13-.11.22-.22.23h-1.78s-16.89,0-16.89,0l-.26-23.82c6.35-.02,12.7-.05,19.05-.07.27-.07.46-.35.46-.68.98-7.58.86-15.29-.37-22.82-.02-.13-.11-.22-.22-.23h-1.78s-17.14,0-17.14,0v23.8"/>
    <path class="st2" d="M553.27,837.38c.59.07,1.18.08,1.77.01.11-.02.2-.13.2-.27.18-7.61.22-15.23.13-22.84-.02-.19-.16-.34-.33-.34-.65-.06-1.29-.04-1.94.03"/>
    <path class="st2" d="M553.27,790.42c.59-.07,1.18-.08,1.77-.01.11.02.2.13.2.27.18,7.61.22,15.23.13,22.84-.02.19-.16.34-.33.34-.65.06-1.29.04-1.94-.03"/>
    <path class="st2" d="M552.93,790.13h-.21c-.07,0-.12.06-.12.14,0,15.75,0,31.5,0,47.25,0,.08.06.14.12.14h.21s.14-.06.14-.06v-.36s-.14-47.12-.14-47.12Z"/>
    <path class="st2" d="M556.94,836.61c0,.46-1.1.84-2.46.84-.11,0-.22,0-.32-.01l-.89-.06c-.11-.02-.2-.13-.2-.27v-23.17h1.97c.64.01,1.29.02,1.93.04.27.07.46.35.46.68,1.04,7.29.87,14.74-.5,21.95Z"/>
    <path class="st2" d="M556.94,791.23c0-.46-1.1-.84-2.46-.84-.11,0-.22,0-.32.01l-.89.06c-.11.02-.2.13-.2.27v23.17h1.97c.64-.01,1.29-.02,1.93-.04.27-.07.46-.35.46-.68,1.04-7.29.87-14.74-.5-21.95Z"/>
    <path class="st2" d="M555.23,837.23c.26-.11.53-.19.8-.26.31-.14.62-.26.94-.36.43-.14.87-.28,1.3-.43.6-.2,1.2-.35,1.82-.43.38-.05.76-.1,1.14-.12.4-.03.81-.06,1.21-.08.96-.05,1.92-.05,2.89,0,.97.05,1.93.19,2.88.4.72.16,1.41.39,2.1.7.43.19.76.47,1.05.89.02.04.03.07.03.12v.42c-.04.11-.1.18-.2.23-6.13,0-12.26,0-18.39,0-.11,0-.2-.1-.2-.23v-.13h0c0-.13.09-.23.2-.24.25-.04.51-.07.76-.11.34-.02.67-.07,1-.15l.67-.21Z"/>
    <path class="st2" d="M555.23,790.58c.26.11.53.19.8.26.31.14.62.26.94.36.43.14.87.28,1.3.43.6.2,1.2.35,1.82.43.38.05.76.1,1.14.12.4.03.81.06,1.21.08.96.05,1.92.05,2.89,0,.97-.05,1.93-.19,2.88-.4.72-.16,1.41-.39,2.1-.7.43-.19.76-.47,1.05-.89.02-.04.03-.07.03-.12v-.42c-.04-.11-.1-.18-.2-.23-6.13,0-12.26,0-18.39,0-.11,0-.2.1-.2.23v.13h0c0,.13.09.23.2.24.25.04.51.07.76.11.34.02.67.07,1,.15l.67.21Z"/>
  </g>
  <g>
    <polyline class="st0" points="548.8 858.66 548.79 858.63 548.82 858.63"/>
    <polyline class="st11" points="549.25 858.63 556.66 858.63 651.92 858.63"/>
    <polyline class="st0" points="652.14 858.63 652.16 858.63 652.16 858.66"/>
    <line class="st10" x1="652.16" y1="859.09" x2="652.16" y2="910.67"/>
    <polyline class="st0" points="652.16 910.88 652.16 910.91 652.14 910.91"/>
    <line class="st8" x1="651.71" y1="910.91" x2="550.25" y2="910.91"/>
    <polyline class="st0" points="550.03 910.91 550.01 910.91 550.01 910.88"/>
    <polyline class="st4" points="550.01 910.46 550.01 867.85 548.83 858.87"/>
  </g>
</svg>