<?xml version="1.0" encoding="UTF-8"?>
<svg id="Lag_1" xmlns="http://www.w3.org/2000/svg" version="1.1" viewBox="0 0 1200 1697.14">
  <!-- Generator: Adobe Illustrator 29.6.0, SVG Export Plug-In . SVG Version: 2.1.1 Build 207)  -->
  <defs>
    <style>
      .st0, .st1, .st2, .st3, .st4, .st5, .st6, .st7, .st8, .st9, .st10, .st11, .st12, .st13 {
        stroke-width: .18px;
      }

      .st0, .st1, .st2, .st3, .st4, .st7, .st8, .st10, .st11, .st12 {
        stroke-linecap: round;
      }

      .st0, .st1, .st3, .st4, .st5, .st6, .st7, .st8, .st10, .st11 {
        fill: none;
      }

      .st0, .st1, .st3, .st4, .st5, .st7, .st8, .st9, .st10, .st11, .st12, .st13 {
        stroke: #000;
      }

      .st0, .st4, .st8, .st9, .st10, .st11 {
        stroke-miterlimit: 10;
      }

      .st1 {
        stroke-dasharray: .06 .43;
      }

      .st1, .st2, .st3, .st5, .st6, .st7, .st12, .st13 {
        stroke-linejoin: round;
      }

      .st14 {
        fill: #000016;
      }

      .st2 {
        stroke: #060305;
      }

      .st2, .st9, .st12, .st13 {
        fill: #fff;
      }

      .st15 {
        fill: #e8e3e0;
      }

      .st4 {
        stroke-dasharray: .06 .42;
      }

      .st6 {
        stroke: #767676;
      }

      .st7 {
        stroke-dasharray: .06 .42;
      }

      .st8 {
        stroke-dasharray: .06 .43;
      }

      .st16 {
        fill: #dbd7d5;
      }

      .st10 {
        stroke-dasharray: .06 .43;
      }

      .st11 {
        stroke-dasharray: .06 .42;
      }
    </style>
  </defs>
  <polygon class="st15" points="626.05 953.09 654.47 953.09 653.08 724.81 548.52 725.45 550.09 983.78 626.05 983.32 626.05 953.09"/>
  <rect class="st16" x="548.79" y="858.63" width="104.13" height="52.28" transform="translate(1201.72 1769.55) rotate(-180)"/>
  <polyline class="st13" points="564.94 724.21 564.94 729.44 563.17 729.44 563.17 724.21 564.94 724.21"/>
  <polyline class="st5" points="615.3 724.21 564.94 724.21 564.94 725.98 615.3 725.9 615.3 724.21"/>
  <polyline class="st13" points="640.52 724.13 617 724.21 617 726.79 640.52 726.79 640.52 724.13"/>
  <polyline class="st13" points="642.22 724.13 642.29 729.37 640.52 729.37 640.52 724.13 642.22 724.13"/>
  <polyline class="st13" points="617 724.21 617 729.44 615.3 729.44 615.3 724.21 617 724.21"/>
  <line class="st5" x1="563.17" y1="723.1" x2="642.22" y2="723.03"/>
  <path class="st13" d="M635.21,892.74c0-.96.78-1.73,1.73-1.73s1.73.78,1.73,1.73c0,.96-.78,1.73-1.73,1.73s-1.73-.78-1.73-1.73"/>
  <line class="st5" x1="599.3" y1="927.87" x2="571.06" y2="927.87"/>
  <path class="st5" d="M571.14,927.84c0-15.58,12.63-28.2,28.2-28.2"/>
  <line class="st5" x1="599.3" y1="899.7" x2="599.3" y2="927.87"/>
  <line class="st5" x1="554.84" y1="984.36" x2="554.84" y2="956.11"/>
  <path class="st5" d="M554.88,956.11c15.58,0,28.2,12.63,28.2,28.2"/>
  <line class="st5" x1="583.08" y1="984.36" x2="554.84" y2="984.36"/>
  <polyline class="st13" points="602.25 937.97 623.12 937.97 623.12 979.78 602.25 979.78 602.25 937.97"/>
  <polyline class="st5" points="623.12 950.22 602.25 950.22 602.25 937.97 623.12 937.97 623.12 950.22"/>
  <line class="st5" x1="620.69" y1="944.32" x2="615.16" y2="944.32"/>
  <line class="st5" x1="610.22" y1="944.32" x2="604.69" y2="944.32"/>
  <line class="st5" x1="607.49" y1="947.04" x2="607.49" y2="941.51"/>
  <line class="st5" x1="617.89" y1="947.04" x2="617.89" y2="941.51"/>
  <polyline class="st5" points="605.72 976.32 619.65 976.32 619.65 962.38 605.72 962.38 605.72 976.32"/>
  <polyline class="st5" points="623.12 958.92 623.12 979.78 602.25 979.78 602.25 958.92 623.12 958.92"/>
  <line class="st5" x1="621.57" y1="969.39" x2="615.97" y2="969.39"/>
  <polyline class="st13" points="555.36 911.87 543.93 911.95 543.85 923.45 555.36 923.37 555.36 911.87"/>
  <line class="st6" x1="555.36" y1="916.15" x2="551.15" y2="911.87"/>
  <line class="st6" x1="555.36" y1="920.79" x2="546.43" y2="911.95"/>
  <line class="st6" x1="553.22" y1="923.37" x2="543.85" y2="914.01"/>
  <line class="st6" x1="548.57" y1="923.45" x2="543.85" y2="918.73"/>
  <line class="st6" x1="551.59" y1="923.37" x2="555.36" y2="919.61"/>
  <line class="st6" x1="546.88" y1="923.45" x2="555.36" y2="914.89"/>
  <line class="st6" x1="543.85" y1="921.75" x2="553.73" y2="911.87"/>
  <line class="st6" x1="543.85" y1="917.03" x2="549.01" y2="911.95"/>
  <path class="st9" d="M633.13,940.51v-10.13c0-3.9,2.8-7.05,6.26-7.05,3.46,0,6.26,3.15,6.26,7.05v10.13h-12.53Z"/>
  <polygon class="st13" points="651.34 940.51 627.34 940.51 627.28 951.25 651.34 951.28 651.34 940.51"/>
  <rect class="st13" x="633.88" y="859.61" width="17.4" height="20.94"/>
  <rect class="st13" x="615.52" y="859.61" width="17.48" height="20.94"/>
  <rect class="st13" x="597.21" y="859.61" width="17.49" height="20.94"/>
  <path class="st13" d="M621.09,884.79v9.18c0,.2-.13.37-.29.37h-16.74c-.2,0-.37-.16-.37-.37v-9.18"/>
  <path class="st5" d="M611.73,886.49c0,.35.28.63.63.63s.63-.28.63-.63-.28-.63-.63-.63-.63.28-.63.63"/>
  <path class="st5" d="M611.58,890.91c0,.43.35.77.77.77s.77-.35.77-.77-.35-.77-.77-.77-.77.35-.77.77"/>
  <path class="st5" d="M611.21,890.91c0,.63.51,1.14,1.14,1.14s1.14-.51,1.14-1.14-.51-1.14-1.14-1.14-1.14.51-1.14,1.14"/>
  <path class="st5" d="M604.43,887.85h15.93c.2,0,.37.16.37.37v5.39c0,.2-.16.37-.37.37h-15.93c-.2,0-.37-.17-.37-.37v-5.38c0-.2.17-.37.37-.37Z"/>
  <g>
    <polyline class="st3" points="622.97 912.88 622.97 912.9 623 912.9"/>
    <line class="st7" x1="623.43" y1="912.9" x2="650.61" y2="912.9"/>
    <polyline class="st3" points="650.82 912.9 650.85 912.9 650.85 912.88"/>
    <line class="st7" x1="650.85" y1="912.45" x2="650.85" y2="885.27"/>
    <polyline class="st3" points="650.85 885.06 650.85 885.03 650.82 885.03"/>
    <line class="st7" x1="650.39" y1="885.03" x2="623.21" y2="885.03"/>
    <polyline class="st3" points="623 885.03 622.97 885.03 622.97 885.06"/>
    <line class="st7" x1="622.97" y1="885.48" x2="622.97" y2="912.66"/>
  </g>
  <line class="st5" x1="636.91" y1="885.03" x2="636.91" y2="892.77"/>
  <g>
    <path class="st3" d="M617.11,723.61s0-.02,0-.03"/>
    <path class="st1" d="M617.13,723.16c.28-3.06,3.04-12.07,3.75-12.07l19.1,12.82.23.16"/>
    <line class="st3" x1="640.39" y1="724.19" x2="640.41" y2="724.21"/>
  </g>
  <polygon class="st14" points="549.31 986.05 545.47 986.05 545.47 980.89 546.65 980.89 546.65 923.45 551.89 923.37 551.89 980.89 553.14 980.89 553.14 986.05 549.31 986.05"/>
  <line class="st5" x1="627.32" y1="955.45" x2="656.38" y2="980.89"/>
  <line class="st5" x1="656.38" y1="955.45" x2="627.32" y2="980.89"/>
  <polygon class="st14" points="537.73 723.18 537.66 742.13 539.06 742.13 539.43 745.96 546.65 745.96 546.65 911.95 551.89 911.87 551.89 745.96 559.63 745.96 559.71 741.91 563.17 741.91 563.17 723.1 537.73 723.18"/>
  <g>
    <g>
      <path class="st12" d="M555.49,785.43c0,4.52,3.9,8.19,8.71,8.19,3.54,0,7.05-2.32,8.25-5.58.16-.45.5-1.38.45-2.61-.15-3.85-3.98-8.19-8.71-8.19s-8.71,3.67-8.71,8.19Z"/>
      <path class="st3" d="M571.76,787.26c0,2.78-3.38,5.03-7.56,5.03"/>
      <path class="st3" d="M556.64,787.26c0,2.78,3.38,5.03,7.56,5.03"/>
      <path class="st3" d="M556.64,787.26c0-.55-.43-.99-.97-.99"/>
      <path class="st3" d="M571.76,787.26c0-.55.43-.99.97-.99"/>
      <g>
        <path class="st12" d="M576.93,785.43c0,4.52,3.9,8.19,8.71,8.19,3.54,0,7.05-2.32,8.25-5.58.16-.45.5-1.38.45-2.61-.15-3.85-3.98-8.19-8.71-8.19s-8.71,3.67-8.71,8.19Z"/>
        <path class="st3" d="M593.2,787.26c0,2.78-3.38,5.03-7.56,5.03"/>
        <path class="st3" d="M578.08,787.26c0,2.78,3.38,5.03,7.56,5.03"/>
        <path class="st3" d="M578.08,787.26c0-.55-.43-.99-.97-.99"/>
        <path class="st3" d="M593.2,787.26c0-.55.47-.99,1.05-.99"/>
      </g>
    </g>
    <g>
      <path class="st12" d="M555.49,758.46c0-4.52,3.9-8.19,8.71-8.19,3.54,0,7.05,2.32,8.25,5.58.16.45.5,1.38.45,2.61-.15,3.85-3.98,8.19-8.71,8.19s-8.71-3.67-8.71-8.19Z"/>
      <path class="st3" d="M571.76,756.63c0-2.78-3.38-5.03-7.56-5.03"/>
      <path class="st3" d="M556.64,756.63c0-2.78,3.38-5.03,7.56-5.03"/>
      <path class="st3" d="M556.64,756.63c0,.55-.43.99-.97.99"/>
      <path class="st3" d="M571.76,756.63c0,.55.43.99.97.99"/>
      <g>
        <path class="st12" d="M576.93,758.46c0-4.52,3.9-8.19,8.71-8.19,3.54,0,7.05,2.32,8.25,5.58.16.45.5,1.38.45,2.61-.15,3.85-3.98,8.19-8.71,8.19s-8.71-3.67-8.71-8.19Z"/>
        <path class="st3" d="M593.2,756.63c0-2.78-3.38-5.03-7.56-5.03"/>
        <path class="st3" d="M578.08,756.63c0-2.78,3.38-5.03,7.56-5.03"/>
        <path class="st3" d="M578.08,756.63c0,.55-.43.99-.97.99"/>
        <path class="st3" d="M593.2,756.63c0,.55.47.99,1.05.99"/>
      </g>
    </g>
    <rect class="st12" x="563.6" y="750.05" width="22.64" height="44.38" transform="translate(1347.16 197.32) rotate(90)"/>
  </g>
  <circle class="st2" cx="615.89" cy="827.45" r="9.56"/>
  <g>
    <path class="st2" d="M629.89,837.34c-1.23-7.53-1.35-15.25-.37-22.82,0-.32.19-.61.46-.68,6.35-.02,12.7-.05,19.05-.07"/>
    <path class="st2" d="M629.89,837.34c.02.13.11.22.22.23h18.67l.26-23.82c-6.35-.02-12.7-.05-19.05-.07-.27-.07-.46-.35-.46-.68-.98-7.58-.86-15.29.37-22.82.02-.13.11-.22.22-.23h18.92v23.8"/>
    <path class="st2" d="M650,837.24c-.59.07-1.18.08-1.77.01-.11-.02-.2-.13-.2-.27-.18-7.61-.22-15.23-.13-22.84.02-.19.16-.34.33-.34.65-.06,1.29-.04,1.94.03"/>
    <path class="st2" d="M650,790.28c-.59-.07-1.18-.08-1.77-.01-.11.02-.2.13-.2.27-.18,7.61-.22,15.23-.13,22.84.02.19.16.34.33.34.65.06,1.29.04,1.94-.03"/>
    <path class="st2" d="M650.34,789.99h.21c.07,0,.12.06.12.14v47.25c0,.08-.06.14-.12.14h-.21l-.14-.06v-.36s.14-47.12.14-47.12Z"/>
    <path class="st2" d="M646.33,836.47c0,.46,1.1.84,2.46.84.11,0,.22,0,.32-.01l.89-.06c.11-.02.2-.13.2-.27v-23.17h-1.97c-.64.01-1.29.02-1.93.04-.27.07-.46.35-.46.68-1.04,7.29-.87,14.74.5,21.95Z"/>
    <path class="st2" d="M646.33,791.08c0-.46,1.1-.84,2.46-.84.11,0,.22,0,.32.01l.89.06c.11.02.2.13.2.27v23.17h-1.97c-.64-.01-1.29-.02-1.93-.04-.27-.07-.46-.35-.46-.68-1.04-7.29-.87-14.74.5-21.95Z"/>
    <path class="st2" d="M648.04,837.08c-.26-.11-.53-.19-.8-.26-.31-.14-.62-.26-.94-.36-.43-.14-.87-.28-1.3-.43-.6-.2-1.2-.35-1.82-.43-.38-.05-.76-.1-1.14-.12-.4-.03-.81-.06-1.21-.08-.96-.05-1.92-.05-2.89,0-.97.05-1.93.19-2.88.4-.72.16-1.41.39-2.1.7-.43.19-.76.47-1.05.89-.02.04-.03.07-.03.12v.42c.04.11.1.18.2.23h18.39c.11,0,.2-.1.2-.23v-.13h0c0-.13-.09-.23-.2-.24-.25-.04-.51-.07-.76-.11-.34-.02-.67-.07-1-.15l-.67-.21Z"/>
    <path class="st2" d="M648.04,790.44c-.26.11-.53.19-.8.26-.31.14-.62.26-.94.36-.43.14-.87.28-1.3.43-.6.2-1.2.35-1.82.43-.38.05-.76.1-1.14.12-.4.03-.81.06-1.21.08-.96.05-1.92.05-2.89,0-.97-.05-1.93-.19-2.88-.4-.72-.16-1.41-.39-2.1-.7-.43-.19-.76-.47-1.05-.89-.02-.04-.03-.07-.03-.12v-.42c.04-.11.1-.18.2-.23h18.39c.11,0,.2.1.2.23v.13h0c0,.13-.09.23-.2.24-.25.04-.51.07-.76.11-.34.02-.67.07-1,.15l-.67.21Z"/>
  </g>
  <g>
    <polyline class="st13" points="651.57 743.94 650.24 743.94 650.24 752.47 651.57 752.47"/>
    <polyline class="st13" points="650.24 753.43 650.24 742.98 648.84 742.98 648.84 753.43 650.24 753.43"/>
  </g>
  <polygon class="st14" points="662.34 723.03 642.29 723.03 642.29 741.24 651.14 741.27 651.14 880.53 597.16 880.53 597.16 897.93 601.37 897.93 601.37 884.74 651.14 884.74 651.14 951.25 627.32 951.25 627.32 933.11 601.37 933.11 601.37 929.64 597.16 929.64 597.16 937.31 623.12 937.31 623.12 980.89 584.78 980.89 584.78 986.05 643.32 986.05 643.32 980.89 627.32 980.89 627.32 955.45 651.14 955.45 656.38 955.45 656.38 741.29 662.34 741.32 662.34 723.03"/>
  <g>
    <polyline class="st0" points="550.83 858.66 550.83 858.63 550.86 858.63"/>
    <polyline class="st11" points="551.28 858.63 558.69 858.63 653.96 858.63"/>
    <polyline class="st0" points="654.17 858.63 654.2 858.63 654.2 858.66"/>
    <line class="st10" x1="654.2" y1="859.09" x2="654.2" y2="910.67"/>
    <polyline class="st0" points="654.2 910.88 654.2 910.91 654.17 910.91"/>
    <line class="st8" x1="653.74" y1="910.91" x2="552.28" y2="910.91"/>
    <polyline class="st0" points="552.07 910.91 552.04 910.91 552.04 910.88"/>
    <polyline class="st4" points="552.04 910.46 552.04 867.85 550.86 858.87"/>
  </g>
</svg>