<?xml version="1.0" encoding="UTF-8"?>
<svg id="Lag_1" xmlns="http://www.w3.org/2000/svg" version="1.1" viewBox="0 0 1200 1697.14">
  <!-- Generator: Adobe Illustrator 29.6.0, SVG Export Plug-In . SVG Version: 2.1.1 Build 207)  -->
  <defs>
    <style>
      .st0 {
        fill: #000016;
      }

      .st1, .st2, .st3, .st4, .st5, .st6, .st7, .st8, .st9, .st10, .st11, .st12 {
        stroke-width: .18px;
      }

      .st1, .st2, .st3, .st5, .st6, .st7, .st8, .st9, .st10, .st11, .st12 {
        stroke-linejoin: round;
      }

      .st1, .st2, .st6, .st8, .st9, .st10, .st12 {
        stroke-linecap: round;
      }

      .st1, .st4, .st7, .st9, .st11 {
        fill: #fff;
      }

      .st1, .st7 {
        stroke: #060305;
      }

      .st13 {
        fill: #e8e3e0;
      }

      .st2, .st3, .st4, .st6, .st8, .st9, .st10, .st11, .st12 {
        stroke: #000;
      }

      .st2, .st3, .st5, .st6, .st8, .st10, .st12 {
        fill: none;
      }

      .st4 {
        stroke-miterlimit: 10;
      }

      .st5 {
        stroke: #747675;
      }

      .st14 {
        fill: #dbd7d5;
      }

      .st6 {
        stroke-dasharray: .06 .43;
      }

      .st8 {
        stroke-dasharray: .06 .43;
      }

      .st10 {
        stroke-dasharray: .06 .43;
      }

      .st12 {
        stroke-dasharray: .06 .42;
      }
    </style>
  </defs>
  <polygon class="st13" points="624.8 743.42 653.37 743.42 651.98 972.19 546.88 971.55 548.46 712.66 624.8 713.12 624.8 743.42"/>
  <rect class="st14" x="547.15" y="785.91" width="104.67" height="52.55" transform="translate(1198.98 1624.37) rotate(180)"/>
  <polyline class="st11" points="639.36 973.58 639.36 968.31 641.13 968.31 641.13 973.58 639.36 973.58"/>
  <polyline class="st11" points="588.73 973.58 639.36 973.58 639.36 971.8 588.73 971.87 588.73 973.58"/>
  <polyline class="st11" points="563.38 973.65 587.03 973.58 587.03 970.98 563.38 970.98 563.38 973.65"/>
  <polyline class="st11" points="561.68 973.65 561.61 968.39 563.38 968.39 563.38 973.65 561.68 973.65"/>
  <polyline class="st11" points="587.03 973.58 587.03 968.31 588.73 968.31 588.73 973.58 587.03 973.58"/>
  <line class="st3" x1="641.13" y1="974.69" x2="561.68" y2="974.76"/>
  <path class="st11" d="M634.02,804.18c0,.96.78,1.74,1.74,1.74s1.74-.78,1.74-1.74c0-.96-.78-1.74-1.74-1.74s-1.74.78-1.74,1.74"/>
  <line class="st3" x1="597.92" y1="768.86" x2="569.54" y2="768.86"/>
  <path class="st3" d="M569.61,768.9c0,15.66,12.69,28.35,28.35,28.35"/>
  <line class="st3" x1="597.92" y1="797.17" x2="597.92" y2="768.86"/>
  <line class="st3" x1="553.23" y1="712.09" x2="553.23" y2="740.47"/>
  <path class="st3" d="M553.27,740.47c15.66,0,28.35-12.69,28.35-28.35"/>
  <line class="st3" x1="581.62" y1="712.09" x2="553.23" y2="712.09"/>
  <polyline class="st11" points="600.89 758.71 621.86 758.71 621.86 716.68 600.89 716.68 600.89 758.71"/>
  <polyline class="st3" points="621.86 746.4 600.89 746.4 600.89 758.71 621.86 758.71 621.86 746.4"/>
  <line class="st3" x1="619.42" y1="752.33" x2="613.86" y2="752.33"/>
  <line class="st3" x1="608.89" y1="752.33" x2="603.33" y2="752.33"/>
  <line class="st3" x1="606.15" y1="749.59" x2="606.15" y2="755.15"/>
  <line class="st3" x1="616.6" y1="749.59" x2="616.6" y2="755.15"/>
  <polyline class="st3" points="604.37 720.17 618.38 720.17 618.38 734.17 604.37 734.17 604.37 720.17"/>
  <polyline class="st3" points="621.86 737.66 621.86 716.68 600.89 716.68 600.89 737.66 621.86 737.66"/>
  <line class="st3" x1="620.31" y1="727.13" x2="614.67" y2="727.13"/>
  <polyline class="st11" points="553.75 784.95 542.26 784.87 542.19 773.31 553.75 773.38 553.75 784.95"/>
  <line class="st5" x1="553.75" y1="780.65" x2="549.52" y2="784.95"/>
  <line class="st5" x1="553.75" y1="775.98" x2="544.78" y2="784.87"/>
  <line class="st5" x1="551.6" y1="773.38" x2="542.19" y2="782.8"/>
  <line class="st5" x1="546.93" y1="773.31" x2="542.19" y2="778.05"/>
  <line class="st5" x1="549.97" y1="773.38" x2="553.75" y2="777.16"/>
  <line class="st5" x1="545.23" y1="773.31" x2="553.75" y2="781.91"/>
  <line class="st5" x1="542.19" y1="775.01" x2="552.12" y2="784.95"/>
  <line class="st5" x1="542.19" y1="779.76" x2="547.37" y2="784.87"/>
  <path class="st4" d="M631.92,756.16v10.18c0,3.92,2.82,7.09,6.3,7.09,3.48,0,6.29-3.17,6.29-7.09v-10.18h-12.59Z"/>
  <polygon class="st11" points="650.23 756.16 626.1 756.16 626.04 745.36 650.23 745.34 650.23 756.16"/>
  <rect class="st11" x="632.67" y="816.43" width="17.49" height="21.05"/>
  <rect class="st11" x="614.22" y="816.43" width="17.57" height="21.05"/>
  <rect class="st11" x="595.82" y="816.43" width="17.58" height="21.05"/>
  <path class="st11" d="M619.83,812.17v-9.23c0-.2-.13-.37-.3-.37h-16.82c-.2,0-.37.17-.37.37v9.23"/>
  <path class="st3" d="M610.41,810.46c0-.35.28-.63.63-.63s.63.28.63.63-.28.63-.63.63-.63-.28-.63-.63"/>
  <path class="st3" d="M610.26,806.01c0-.43.35-.78.78-.78s.78.35.78.78-.35.78-.78.78-.78-.35-.78-.78"/>
  <path class="st3" d="M609.89,806.01c0-.63.51-1.15,1.15-1.15s1.15.51,1.15,1.15-.51,1.15-1.15,1.15-1.15-.51-1.15-1.15"/>
  <path class="st3" d="M603.07,802.94h16.01c.2,0,.37.17.37.37v5.41c0,.2-.17.37-.37.37h-16.01c-.2,0-.37-.17-.37-.37v-5.41c0-.2.17-.37.37-.37Z"/>
  <g>
    <polyline class="st2" points="621.72 783.94 621.72 783.91 621.74 783.91"/>
    <line class="st6" x1="622.17" y1="783.91" x2="649.49" y2="783.91"/>
    <polyline class="st2" points="649.7 783.91 649.73 783.91 649.73 783.94"/>
    <line class="st6" x1="649.73" y1="784.36" x2="649.73" y2="811.68"/>
    <polyline class="st2" points="649.73 811.9 649.73 811.92 649.7 811.92"/>
    <line class="st6" x1="649.28" y1="811.92" x2="621.96" y2="811.92"/>
    <polyline class="st2" points="621.74 811.92 621.72 811.92 621.72 811.9"/>
    <line class="st6" x1="621.72" y1="811.47" x2="621.72" y2="784.15"/>
  </g>
  <line class="st3" x1="635.72" y1="811.92" x2="635.72" y2="804.14"/>
  <g>
    <path class="st2" d="M586.92,974.18s0,.02,0,.03"/>
    <path class="st12" d="M586.89,974.63c-.28,3.07-3.05,12.14-3.77,12.14l-19.19-12.88-.23-.16"/>
    <line class="st2" x1="563.52" y1="973.59" x2="563.5" y2="973.58"/>
  </g>
  <polygon class="st0" points="547.67 710.38 543.82 710.38 543.82 715.57 545 715.57 545 773.31 550.27 773.38 550.27 715.57 551.53 715.57 551.53 710.38 547.67 710.38"/>
  <line class="st3" x1="626.09" y1="741.14" x2="655.29" y2="715.57"/>
  <line class="st3" x1="655.29" y1="741.14" x2="626.09" y2="715.57"/>
  <polygon class="st0" points="536.03 974.61 535.96 955.57 537.37 955.57 537.74 951.71 545 951.71 545 784.87 550.27 784.95 550.27 951.71 558.05 951.71 558.12 955.79 561.61 955.79 561.61 974.69 536.03 974.61"/>
  <g>
    <g>
      <path class="st9" d="M606.35,886.05c0-4.59,3.96-8.32,8.85-8.32,3.6,0,7.16,2.35,8.39,5.67.17.45.51,1.4.46,2.65-.16,3.91-4.05,8.32-8.85,8.32s-8.85-3.72-8.85-8.32Z"/>
      <path class="st2" d="M622.88,884.18c0-2.82-3.44-5.11-7.68-5.11"/>
      <path class="st2" d="M607.52,884.18c0-2.82,3.44-5.11,7.68-5.11"/>
      <path class="st2" d="M607.52,884.18c0,.56-.44,1.01-.99,1.01"/>
      <path class="st2" d="M622.88,884.18c0,.56.44,1.01.99,1.01"/>
      <g>
        <path class="st9" d="M628.14,886.05c0-4.59,3.96-8.32,8.85-8.32,3.6,0,7.16,2.35,8.39,5.67.17.45.51,1.4.46,2.65-.16,3.91-4.05,8.32-8.85,8.32-4.89,0-8.85-3.72-8.85-8.32Z"/>
        <path class="st2" d="M644.68,884.18c0-2.82-3.44-5.11-7.68-5.11"/>
        <path class="st2" d="M629.31,884.18c0-2.82,3.44-5.11,7.68-5.11"/>
        <path class="st2" d="M629.31,884.18c0,.56-.44,1.01-.99,1.01"/>
        <path class="st2" d="M644.68,884.18c0,.56.48,1.01,1.07,1.01"/>
      </g>
    </g>
    <g>
      <path class="st9" d="M606.35,913.45c0,4.59,3.96,8.32,8.85,8.32,3.6,0,7.16-2.35,8.39-5.67.17-.45.51-1.4.46-2.65-.16-3.91-4.05-8.32-8.85-8.32s-8.85,3.72-8.85,8.32Z"/>
      <path class="st2" d="M622.88,915.32c0,2.82-3.44,5.11-7.68,5.11"/>
      <path class="st2" d="M607.52,915.32c0,2.82,3.44,5.11,7.68,5.11"/>
      <path class="st2" d="M607.52,915.32c0-.56-.44-1.01-.99-1.01"/>
      <path class="st2" d="M622.88,915.32c0-.56.44-1.01.99-1.01"/>
      <g>
        <path class="st9" d="M628.14,913.45c0,4.59,3.96,8.32,8.85,8.32,3.6,0,7.16-2.35,8.39-5.67.17-.45.51-1.4.46-2.65-.16-3.91-4.05-8.32-8.85-8.32-4.89,0-8.85,3.72-8.85,8.32Z"/>
        <path class="st2" d="M644.68,915.32c0,2.82-3.44,5.11-7.68,5.11"/>
        <path class="st2" d="M629.31,915.32c0,2.82,3.44,5.11,7.68,5.11"/>
        <path class="st2" d="M629.31,915.32c0-.56-.44-1.01-.99-1.01"/>
        <path class="st2" d="M644.68,915.32c0-.56.48-1.01,1.07-1.01"/>
      </g>
    </g>
    <rect class="st9" x="614.59" y="876.9" width="23.01" height="45.1" transform="translate(-273.35 1525.55) rotate(-90)"/>
  </g>
  <g>
    <path class="st1" d="M572.69,947.91c1.25-7.65,1.37-15.49.38-23.19,0-.33-.2-.62-.47-.69-6.45-.02-12.9-.05-19.36-.07"/>
    <path class="st1" d="M572.69,947.91c-.02.13-.11.22-.22.23h-1.81s-17.16,0-17.16,0l-.26-24.21c6.45-.02,12.9-.05,19.36-.07.28-.07.47-.36.47-.69,1-7.7.87-15.54-.38-23.19-.02-.13-.11-.22-.22-.23h-1.81s-17.42,0-17.42,0v24.19"/>
    <path class="st1" d="M552.25,947.81c.6.07,1.2.08,1.8.01.12-.02.2-.13.2-.27.18-7.74.22-15.47.13-23.21-.02-.19-.17-.34-.33-.35-.66-.06-1.31-.05-1.97.03"/>
    <path class="st1" d="M552.25,900.09c.6-.07,1.2-.08,1.8-.01.12.02.2.13.2.27.18,7.74.22,15.47.13,23.21-.02.19-.17.34-.33.35-.66.06-1.31.05-1.97-.03"/>
    <path class="st1" d="M551.9,899.79h-.21c-.07,0-.13.07-.13.15,0,16.01,0,32.01,0,48.02,0,.08.06.15.13.15h.21s.15-.06.15-.06v-.36s-.15-47.88-.15-47.88Z"/>
    <path class="st1" d="M555.98,947.03c0,.47-1.12.85-2.49.85-.11,0-.22,0-.33-.01l-.9-.06c-.12-.02-.2-.13-.2-.27v-23.55h2c.65.01,1.31.02,1.96.04.28.07.47.36.47.69,1.05,7.41.88,14.98-.51,22.31Z"/>
    <path class="st1" d="M555.98,900.9c0-.47-1.12-.85-2.49-.85-.11,0-.22,0-.33.01l-.9.06c-.12.02-.2.13-.2.27v23.55h2c.65-.01,1.31-.02,1.96-.04.28-.07.47-.36.47-.69,1.05-7.41.88-14.98-.51-22.31Z"/>
    <path class="st1" d="M554.24,947.65c.27-.11.54-.2.82-.27.31-.14.63-.26.95-.37.44-.14.88-.29,1.32-.44.61-.21,1.22-.35,1.85-.44.38-.06.77-.1,1.16-.13.41-.03.82-.06,1.23-.08.98-.05,1.95-.05,2.93,0,.99.05,1.96.19,2.93.41.73.16,1.44.4,2.13.71.44.19.77.48,1.06.9.02.04.04.07.04.12v.42c-.04.12-.1.18-.2.23-6.23,0-12.46,0-18.69,0-.11,0-.2-.1-.2-.23v-.13h0c0-.13.09-.23.2-.24.26-.04.52-.07.77-.11.34-.02.68-.07,1.02-.16l.68-.21Z"/>
    <path class="st1" d="M554.24,900.25c.27.11.54.2.82.27.31.14.63.26.95.37.44.14.88.29,1.32.44.61.21,1.22.35,1.85.44.38.06.77.1,1.16.13.41.03.82.06,1.23.08.98.05,1.95.05,2.93,0,.99-.05,1.96-.19,2.93-.41.73-.16,1.44-.4,2.13-.71.44-.19.77-.48,1.06-.9.02-.04.04-.07.04-.12v-.42c-.04-.12-.1-.18-.2-.23-6.23,0-12.46,0-18.69,0-.11,0-.2.1-.2.23v.13h0c0,.13.09.23.2.24.26.04.52.07.77.11.34.02.68.07,1.02.16l.68.21Z"/>
  </g>
  <circle class="st7" cx="581.53" cy="955.95" r="7.95"/>
  <g>
    <polyline class="st11" points="650.08 944.48 648.75 944.48 648.75 928.77 650.08 928.77"/>
    <polyline class="st11" points="648.75 927.88 648.75 945.44 647.34 945.44 647.34 927.88 648.75 927.88"/>
  </g>
  <polygon class="st0" points="655.29 956.34 655.29 741.14 650.03 741.14 626.09 741.14 626.09 715.57 642.17 715.57 642.17 710.38 583.32 710.38 583.32 715.57 621.86 715.57 621.86 759.37 595.77 759.37 595.77 767.08 600 767.08 600 763.6 626.09 763.6 626.09 745.37 650.03 745.37 650.03 812.22 600 812.22 600 798.95 595.77 798.95 595.77 816.45 650.03 816.45 650.03 956.34 641.13 956.34 641.13 956.45 641.13 974.76 661.29 974.76 664.04 974.76 664.04 956.34 655.29 956.34"/>
  <g>
    <polyline class="st2" points="654.13 785.81 654.13 785.78 654.1 785.78"/>
    <line class="st10" x1="653.68" y1="785.78" x2="546.78" y2="785.78"/>
    <polyline class="st2" points="546.56 785.78 546.54 785.78 546.54 785.81"/>
    <line class="st8" x1="546.54" y1="786.24" x2="546.54" y2="838.22"/>
    <polyline class="st2" points="546.54 838.43 546.54 838.46 546.56 838.46"/>
    <line class="st10" x1="546.99" y1="838.46" x2="653.89" y2="838.46"/>
    <polyline class="st2" points="654.1 838.46 654.13 838.46 654.13 838.43"/>
    <line class="st8" x1="654.13" y1="838" x2="654.13" y2="786.02"/>
  </g>
</svg>