<?xml version="1.0" encoding="UTF-8"?>
<svg id="Lag_1" xmlns="http://www.w3.org/2000/svg" version="1.1" viewBox="0 0 1200 1697.14">
  <!-- Generator: Adobe Illustrator 29.6.0, SVG Export Plug-In . SVG Version: 2.1.1 Build 207)  -->
  <defs>
    <style>
      .st0 {
        stroke-dasharray: .06 .43;
      }

      .st0, .st1, .st2, .st3, .st4, .st5, .st6, .st7, .st8, .st9, .st10, .st11, .st12, .st13, .st14, .st15, .st16 {
        stroke-width: .18px;
      }

      .st0, .st1, .st2, .st3, .st4, .st5, .st7, .st9, .st10, .st11, .st13, .st15, .st16 {
        stroke-linecap: round;
      }

      .st0, .st1, .st2, .st3, .st5, .st6, .st7, .st8, .st10, .st11, .st13, .st14, .st15, .st16 {
        stroke: #000;
      }

      .st0, .st1, .st2, .st3, .st5, .st6, .st7, .st9, .st10, .st11, .st15, .st16 {
        fill: none;
      }

      .st0, .st1, .st2, .st3, .st7, .st8, .st11, .st15 {
        stroke-miterlimit: 10;
      }

      .st2 {
        stroke-dasharray: .06 .42;
      }

      .st17 {
        fill: #000016;
      }

      .st3 {
        stroke-dasharray: .05 .4;
      }

      .st4, .st5, .st6, .st9, .st10, .st12, .st13, .st14, .st16 {
        stroke-linejoin: round;
      }

      .st4, .st8, .st12, .st13, .st14 {
        fill: #fff;
      }

      .st4, .st12 {
        stroke: #060305;
      }

      .st18 {
        fill: #e8e3e0;
      }

      .st7 {
        stroke-dasharray: .06 .43;
      }

      .st9 {
        stroke: #767676;
      }

      .st10 {
        stroke-dasharray: .06 .42;
      }

      .st19 {
        fill: #dbd7d5;
      }

      .st11 {
        stroke-dasharray: .06 .42;
      }

      .st15 {
        stroke-dasharray: .06 .43;
      }

      .st16 {
        stroke-dasharray: .06 .43;
      }
    </style>
  </defs>
  <polygon class="st18" points="575.52 711.4 575.52 741.54 547.06 741.54 547.06 711.4 544.27 711.4 544.27 974.26 653.29 974.26 653.29 711.4 575.52 711.4"/>
  <rect class="st19" x="548.32" y="784.78" width="103.4" height="54.21"/>
  <g>
    <path class="st5" d="M585.46,976.59s0,.02,0,.03"/>
    <path class="st16" d="M585.43,977.03c-.33,2.71-3.12,10.44-3.84,10.44l-19.6-11.14-.23-.14"/>
    <line class="st5" x1="561.57" y1="976.08" x2="561.55" y2="976.06"/>
  </g>
  <polygon class="st17" points="664.2 958.22 664.2 953.13 655.8 953.13 655.8 787.33 650.48 787.25 650.48 953.13 640.21 953.13 640.21 977.11 666.07 977.19 666.07 958.22 664.2 958.22"/>
  <polyline class="st13" points="643.89 768.36 662.7 768.66 662.55 787.4 643.74 787.18 643.89 768.36"/>
  <line class="st9" x1="643.89" y1="769.86" x2="645.39" y2="768.44"/>
  <line class="st9" x1="643.89" y1="774.66" x2="650.03" y2="768.44"/>
  <line class="st9" x1="643.81" y1="779.46" x2="654.75" y2="768.51"/>
  <line class="st9" x1="643.81" y1="784.25" x2="659.48" y2="768.59"/>
  <line class="st9" x1="645.68" y1="787.18" x2="662.7" y2="770.16"/>
  <line class="st9" x1="650.33" y1="787.25" x2="662.62" y2="774.96"/>
  <line class="st9" x1="645.09" y1="787.18" x2="643.81" y2="785.9"/>
  <line class="st9" x1="649.88" y1="787.25" x2="643.81" y2="781.18"/>
  <line class="st9" x1="654.75" y1="787.33" x2="643.81" y2="776.38"/>
  <line class="st9" x1="659.55" y1="787.4" x2="643.89" y2="771.66"/>
  <line class="st9" x1="662.55" y1="785.6" x2="645.39" y2="768.44"/>
  <line class="st9" x1="662.55" y1="780.88" x2="650.18" y2="768.44"/>
  <polyline class="st13" points="599.29 758.54 578.08 758.54 578.08 716.04 599.29 716.04 599.29 758.54"/>
  <polyline class="st5" points="578.08 746.1 599.29 746.1 599.29 758.54 578.08 758.54 578.08 746.1"/>
  <line class="st5" x1="591.12" y1="752.17" x2="596.81" y2="752.17"/>
  <line class="st5" x1="593.97" y1="749.32" x2="593.97" y2="754.95"/>
  <polyline class="st5" points="595.77 719.57 581.6 719.57 581.6 733.73 595.77 733.73 595.77 719.57"/>
  <polyline class="st5" points="578.08 737.26 578.08 716.04 599.29 716.04 599.29 737.26 578.08 737.26"/>
  <line class="st5" x1="580.55" y1="752.17" x2="586.17" y2="752.17"/>
  <line class="st5" x1="583.4" y1="749.32" x2="583.4" y2="754.95"/>
  <line class="st5" x1="579.65" y1="726.61" x2="585.27" y2="726.61"/>
  <polyline class="st13" points="638.41 976.06 638.41 970.74 640.21 970.74 640.21 976.06 638.41 976.06"/>
  <polyline class="st13" points="587.22 976.06 638.41 976.06 638.41 974.34 587.22 974.26 587.22 976.06"/>
  <polyline class="st13" points="561.59 976.06 585.42 976.06 585.42 973.36 561.59 973.36 561.59 976.06"/>
  <polyline class="st13" points="559.79 976.06 559.79 970.74 561.59 970.74 561.59 976.06 559.79 976.06"/>
  <polyline class="st13" points="585.42 976.06 585.42 970.74 587.22 970.74 587.22 976.06 585.42 976.06"/>
  <line class="st5" x1="640.21" y1="977.11" x2="559.79" y2="977.11"/>
  <line class="st5" x1="602.29" y1="768.81" x2="630.99" y2="768.81"/>
  <path class="st5" d="M602.25,797.45c15.83,0,28.67-12.84,28.67-28.67"/>
  <line class="st5" x1="602.29" y1="797.45" x2="602.29" y2="768.81"/>
  <line class="st5" x1="647.48" y1="711.4" x2="647.48" y2="740.11"/>
  <path class="st5" d="M618.78,711.36c0,15.83,12.84,28.67,28.67,28.67"/>
  <line class="st5" x1="618.78" y1="711.4" x2="647.48" y2="711.4"/>
  <path class="st14" d="M565.82,804.52c0,.97-.79,1.76-1.76,1.76s-1.76-.79-1.76-1.76.79-1.76,1.76-1.76,1.76.79,1.76,1.76"/>
  <path class="st8" d="M567.94,755.96v10.29c0,3.96-2.85,7.17-6.37,7.17s-6.37-3.21-6.37-7.17v-10.29s12.73,0,12.73,0Z"/>
  <polygon class="st14" points="549.43 755.96 573.83 755.96 573.89 745.05 549.43 745.02 549.43 755.96"/>
  <rect class="st14" x="549.49" y="816.91" width="17.69" height="21.29" transform="translate(1116.68 1655.11) rotate(180)"/>
  <rect class="st14" x="568.08" y="816.91" width="17.76" height="21.29" transform="translate(1153.93 1655.11) rotate(180)"/>
  <rect class="st14" x="586.67" y="816.91" width="17.78" height="21.29" transform="translate(1191.12 1655.11) rotate(180)"/>
  <path class="st14" d="M580.18,812.6v-9.33c0-.21.13-.37.3-.37h17.01c.21,0,.37.17.37.37v9.33"/>
  <path class="st6" d="M589.7,810.88c0-.35-.29-.64-.64-.64s-.64.29-.64.64c0,.35.29.64.64.64s.64-.29.64-.64"/>
  <path class="st6" d="M589.85,806.38c0-.43-.35-.79-.79-.79s-.79.35-.79.79c0,.43.35.79.79.79s.79-.35.79-.79"/>
  <path class="st6" d="M590.22,806.38c0-.64-.52-1.16-1.16-1.16s-1.16.52-1.16,1.16c0,.64.52,1.16,1.16,1.16s1.16-.52,1.16-1.16"/>
  <path class="st6" d="M580.92,803.27h16.19c.21,0,.37.17.37.37v5.47c0,.21-.17.37-.37.37h-16.19c-.21,0-.37-.17-.37-.37v-5.47c0-.21.17-.37.37-.37Z"/>
  <g>
    <polyline class="st5" points="578.27 784.05 578.27 784.02 578.24 784.02"/>
    <line class="st10" x1="577.81" y1="784.02" x2="550.17" y2="784.02"/>
    <polyline class="st5" points="549.96 784.02 549.93 784.02 549.93 784.05"/>
    <line class="st10" x1="549.93" y1="784.48" x2="549.93" y2="812.12"/>
    <polyline class="st5" points="549.93 812.33 549.93 812.36 549.96 812.36"/>
    <line class="st10" x1="550.38" y1="812.36" x2="578.03" y2="812.36"/>
    <polyline class="st5" points="578.24 812.36 578.27 812.36 578.27 812.33"/>
    <line class="st10" x1="578.27" y1="811.91" x2="578.27" y2="784.26"/>
  </g>
  <line class="st6" x1="564.1" y1="812.22" x2="564.1" y2="804.35"/>
  <line class="st5" x1="573.8" y1="709.67" x2="549.52" y2="740.78"/>
  <line class="st5" x1="549.52" y1="709.67" x2="573.8" y2="740.78"/>
  <line class="st9" x1="654.75" y1="787.33" x2="662.25" y2="779.83"/>
  <line class="st9" x1="659" y1="787.33" x2="662.75" y2="783.58"/>
  <line class="st9" x1="654.75" y1="768.59" x2="662.55" y2="776.38"/>
  <line class="st9" x1="659.48" y1="768.59" x2="662.62" y2="771.74"/>
  <polygon class="st17" points="650.48 709.67 649.21 709.67 649.21 714.92 650.48 714.92 650.48 768.51 655.8 768.51 655.8 714.92 657 714.92 657 709.67 650.48 709.67"/>
  <g>
    <path class="st4" d="M627.09,950.48c-1.23-7.56-1.36-15.31-.37-22.93,0-.33.19-.61.47-.68,6.38-.02,12.75-.05,19.13-.07"/>
    <path class="st4" d="M627.09,950.48c.02.13.11.22.22.23h18.75l.26-23.93c-6.38-.02-12.75-.05-19.13-.07-.27-.07-.47-.36-.47-.68-.99-7.61-.86-15.36.37-22.93.02-.13.11-.22.22-.23h19.01v23.91"/>
    <path class="st4" d="M647.28,950.38c-.6.07-1.18.08-1.78.01-.11-.02-.2-.13-.2-.27-.18-7.65-.22-15.29-.13-22.94.02-.19.16-.34.33-.34.65-.06,1.3-.04,1.95.03"/>
    <path class="st4" d="M647.28,903.21c-.6-.07-1.18-.08-1.78-.01-.11.02-.2.13-.2.27-.18,7.65-.22,15.29-.13,22.94.02.19.16.34.33.34.65.06,1.3.04,1.95-.03"/>
    <path class="st4" d="M647.63,902.92h.21c.07,0,.12.06.12.14v47.46c0,.08-.06.14-.12.14h-.21l-.14-.06v-.36s.14-47.33.14-47.33Z"/>
    <path class="st4" d="M643.6,949.61c0,.47,1.1.84,2.47.84.11,0,.22,0,.33-.01l.89-.06c.11-.02.2-.13.2-.27v-23.27h-1.98c-.65.01-1.29.02-1.94.04-.27.07-.47.36-.47.68-1.04,7.32-.87,14.8.5,22.05Z"/>
    <path class="st4" d="M643.6,904.02c0-.47,1.1-.84,2.47-.84.11,0,.22,0,.33.01l.89.06c.11.02.2.13.2.27v23.27h-1.98c-.65-.01-1.29-.02-1.94-.04-.27-.07-.47-.36-.47-.68-1.04-7.32-.87-14.8.5-22.05Z"/>
    <path class="st4" d="M645.32,950.22c-.27-.11-.53-.19-.81-.26-.31-.14-.62-.26-.94-.36-.44-.14-.87-.29-1.3-.43-.6-.2-1.2-.35-1.82-.44-.38-.05-.76-.1-1.14-.12-.41-.03-.81-.06-1.22-.08-.97-.05-1.93-.05-2.9,0-.98.05-1.94.19-2.9.4-.72.16-1.42.39-2.11.7-.43.19-.76.47-1.05.89-.02.04-.03.07-.03.12v.42c.04.11.1.18.2.23h18.47c.11,0,.2-.1.2-.23v-.13h0c0-.13-.09-.23-.2-.24-.26-.04-.51-.07-.77-.11-.34-.02-.67-.07-1.01-.15l-.67-.21Z"/>
    <path class="st4" d="M645.32,903.37c-.27.11-.53.19-.81.26-.31.14-.62.26-.94.36-.44.14-.87.29-1.3.43-.6.2-1.2.35-1.82.44-.38.05-.76.1-1.14.12-.41.03-.81.06-1.22.08-.97.05-1.93.05-2.9,0-.98-.05-1.94-.19-2.9-.4-.72-.16-1.42-.39-2.11-.7-.43-.19-.76-.47-1.05-.89-.02-.04-.03-.07-.03-.12v-.42c.04-.11.1-.18.2-.23h18.47c.11,0,.2.1.2.23v.13h0c0,.13-.09.23-.2.24-.26.04-.51.07-.77.11-.34.02-.67.07-1.01.15l-.67.21Z"/>
  </g>
  <circle class="st12" cx="614.52" cy="952.48" r="9.6"/>
  <g>
    <polyline class="st14" points="549.42 940.34 550.75 940.34 550.75 948.92 549.42 948.92"/>
    <polyline class="st14" points="550.75 949.89 550.75 939.37 552.16 939.37 552.16 949.89 550.75 949.89"/>
  </g>
  <g>
    <g>
      <path class="st13" d="M592.41,875.05c0-4.54-3.92-8.22-8.75-8.22-3.56,0-7.08,2.33-8.29,5.6-.17.45-.5,1.39-.45,2.62.15,3.86,4,8.22,8.75,8.22s8.75-3.68,8.75-8.22Z"/>
      <path class="st5" d="M576.07,873.21c0-2.79,3.4-5.05,7.59-5.05"/>
      <path class="st5" d="M591.26,873.21c0-2.79-3.4-5.05-7.59-5.05"/>
      <path class="st5" d="M591.26,873.21c0,.55.44,1,.98,1"/>
      <path class="st5" d="M576.07,873.21c0,.55-.44,1-.98,1"/>
      <g>
        <path class="st13" d="M570.87,875.05c0-4.54-3.92-8.22-8.75-8.22-3.56,0-7.08,2.33-8.29,5.6-.17.45-.5,1.39-.45,2.62.15,3.86,4,8.22,8.75,8.22s8.75-3.68,8.75-8.22Z"/>
        <path class="st5" d="M554.53,873.21c0-2.79,3.4-5.05,7.59-5.05"/>
        <path class="st5" d="M569.72,873.21c0-2.79-3.4-5.05-7.59-5.05"/>
        <path class="st5" d="M569.72,873.21c0,.55.44,1,.98,1"/>
        <path class="st5" d="M554.53,873.21c0,.55-.47,1-1.06,1"/>
      </g>
    </g>
    <g>
      <path class="st13" d="M592.41,902.14c0,4.54-3.92,8.22-8.75,8.22-3.56,0-7.08-2.33-8.29-5.6-.17-.45-.5-1.39-.45-2.62.15-3.86,4-8.22,8.75-8.22s8.75,3.68,8.75,8.22Z"/>
      <path class="st5" d="M576.07,903.99c0,2.79,3.4,5.05,7.59,5.05"/>
      <path class="st5" d="M591.26,903.99c0,2.79-3.4,5.05-7.59,5.05"/>
      <path class="st5" d="M591.26,903.99c0-.55.44-1,.98-1"/>
      <path class="st5" d="M576.07,903.99c0-.55-.44-1-.98-1"/>
      <g>
        <path class="st13" d="M570.87,902.14c0,4.54-3.92,8.22-8.75,8.22-3.56,0-7.08-2.33-8.29-5.6-.17-.45-.5-1.39-.45-2.62.15-3.86,4-8.22,8.75-8.22s8.75,3.68,8.75,8.22Z"/>
        <path class="st5" d="M554.53,903.99c0,2.79,3.4,5.05,7.59,5.05"/>
        <path class="st5" d="M569.72,903.99c0,2.79-3.4,5.05-7.59,5.05"/>
        <path class="st5" d="M569.72,903.99c0-.55.44-1,.98-1"/>
        <path class="st5" d="M554.53,903.99c0-.55-.47-1-1.06-1"/>
      </g>
    </g>
    <rect class="st13" x="561.52" y="866.01" width="22.74" height="44.58" transform="translate(-315.41 1461.2) rotate(-90)"/>
  </g>
  <polygon class="st17" points="616.98 714.92 616.98 709.67 582.65 709.67 579.13 709.67 573.8 709.67 573.8 740.78 549.52 740.78 549.52 709.67 544.2 709.67 544.2 953.13 533.93 953.13 533.93 977.11 559.79 977.11 559.79 953.13 549.52 953.13 549.52 816.93 604.46 816.93 604.46 799.24 600.19 799.24 600.19 812.74 549.52 812.74 549.52 745.05 573.8 745.05 573.8 763.49 600.19 763.49 600.19 767.01 604.46 767.01 604.46 759.22 578.08 759.22 578.08 714.92 616.98 714.92"/>
  <g>
    <polyline class="st1" points="548.1 784.91 548.1 784.89 548.12 784.89"/>
    <line class="st11" x1="548.55" y1="784.89" x2="643.51" y2="784.89"/>
    <polyline class="st1" points="643.73 784.89 643.75 784.89 643.75 784.91"/>
    <line class="st3" x1="643.75" y1="785.32" x2="643.74" y2="786.95"/>
    <polyline class="st1" points="643.74 787.15 643.74 787.18 643.76 787.18"/>
    <line class="st2" x1="644.19" y1="787.18" x2="651.66" y2="787.25"/>
    <polyline class="st1" points="651.87 787.25 651.9 787.25 651.9 787.28"/>
    <line class="st15" x1="651.9" y1="787.71" x2="651.72" y2="838.75"/>
    <polyline class="st1" points="651.72 838.96 651.72 838.99 651.69 838.99"/>
    <line class="st0" x1="651.27" y1="838.99" x2="548.34" y2="838.99"/>
    <polyline class="st1" points="548.12 838.99 548.1 838.99 548.1 838.96"/>
    <line class="st7" x1="548.1" y1="838.54" x2="548.1" y2="785.13"/>
  </g>
</svg>