<?xml version="1.0" encoding="UTF-8"?>
<svg id="Lag_1" xmlns="http://www.w3.org/2000/svg" version="1.1" viewBox="0 0 1200 1697.14">
  <!-- Generator: Adobe Illustrator 29.6.0, SVG Export Plug-In . SVG Version: 2.1.1 Build 207)  -->
  <defs>
    <style>
      .st0 {
        stroke-dasharray: .06 .42;
      }

      .st0, .st1, .st2, .st3, .st4, .st5, .st6, .st7, .st8, .st9, .st10, .st11, .st12, .st13 {
        stroke-width: .18px;
      }

      .st0, .st1, .st2, .st3, .st4, .st6, .st7, .st9, .st10, .st11, .st12, .st13 {
        stroke-linejoin: round;
      }

      .st0, .st1, .st2, .st3, .st4, .st7, .st9, .st11, .st13 {
        stroke-linecap: round;
      }

      .st0, .st1, .st2, .st4, .st6, .st7, .st8, .st9, .st11, .st12, .st13 {
        stroke: #000;
      }

      .st0, .st1, .st2, .st4, .st6, .st7, .st9, .st13 {
        fill: none;
      }

      .st14 {
        fill: #000016;
      }

      .st1 {
        stroke-dasharray: .06 .43;
      }

      .st2 {
        stroke-dasharray: .06 .42;
      }

      .st3, .st5, .st8, .st10, .st11, .st12 {
        fill: #fff;
      }

      .st3, .st5, .st10 {
        stroke: #060305;
      }

      .st15 {
        fill: #e8e3e0;
      }

      .st5, .st8 {
        stroke-miterlimit: 10;
      }

      .st7 {
        stroke-dasharray: .06 .43;
      }

      .st9 {
        stroke-dasharray: .06 .43;
      }

      .st16 {
        fill: #dbd7d5;
      }

      .st13 {
        stroke-dasharray: .06 .42;
      }
    </style>
  </defs>
  <path class="st15" d="M509.64,755.06v188.88h169.37v-188.88h-169.37ZM543.73,857.13h-32.41v-31.18h32.41v31.18Z"/>
  <rect class="st16" x="505.95" y="765" width="67.78" height="54.28" transform="translate(-251.29 1333.44) rotate(-90.11)"/>
  <line class="st4" x1="541.75" y1="830.1" x2="512.84" y2="855.71"/>
  <line class="st4" x1="512.79" y1="830.09" x2="541.76" y2="855.61"/>
  <g>
    <path class="st4" d="M680.63,823.55s.02,0,.03,0"/>
    <path class="st1" d="M681.08,823.52c2.94-.29,11.48-2.97,11.48-3.66l-12.21-18.67-.15-.22"/>
    <line class="st4" x1="680.08" y1="800.79" x2="680.06" y2="800.76"/>
  </g>
  <line class="st4" x1="527.36" y1="926.46" x2="527.27" y2="918.67"/>
  <path class="st11" d="M529.05,918.61c-.01-.96-.8-1.73-1.76-1.72-.96.01-1.73.8-1.72,1.76.01.96.8,1.73,1.76,1.72.96-.01,1.73-.8,1.72-1.76"/>
  <path class="st8" d="M533.35,870.7v10.17c0,3.92-2.81,7.08-6.29,7.08-3.48,0-6.29-3.17-6.29-7.08v-10.17h12.58Z"/>
  <polygon class="st12" points="511.69 870.7 541.95 870.7 542.03 859.91 511.69 859.89 511.69 870.7"/>
  <path class="st12" d="M543.39,926.31v-9.22c0-.2.13-.37.3-.37h16.81c.2,0,.37.17.37.37v9.22"/>
  <path class="st6" d="M552.8,924.6c0-.35-.28-.63-.63-.63s-.63.28-.63.63.28.63.63.63.63-.28.63-.63"/>
  <path class="st6" d="M552.95,920.16c0-.43-.35-.78-.78-.78s-.78.35-.78.78.35.78.78.78.78-.35.78-.78"/>
  <path class="st6" d="M553.32,920.16c0-.63-.51-1.15-1.15-1.15s-1.15.51-1.15,1.15.51,1.15,1.15,1.15,1.15-.51,1.15-1.15"/>
  <path class="st6" d="M544.13,917.09h16c.2,0,.37.17.37.37v5.41c0,.2-.17.37-.37.37h-16c-.2,0-.37-.17-.37-.37v-5.41c0-.2.17-.37.37-.37Z"/>
  <g>
    <polyline class="st4" points="541.51 898.43 541.51 898.4 541.48 898.4"/>
    <line class="st0" x1="541.06" y1="898.4" x2="513.53" y2="898.4"/>
    <polyline class="st4" points="513.32 898.4 513.29 898.4 513.29 898.43"/>
    <line class="st9" x1="513.29" y1="898.85" x2="513.29" y2="926.13"/>
    <polyline class="st4" points="513.29 926.34 513.29 926.37 513.32 926.37"/>
    <line class="st0" x1="513.74" y1="926.37" x2="541.27" y2="926.37"/>
    <polyline class="st4" points="541.48 926.37 541.51 926.37 541.51 926.34"/>
    <line class="st9" x1="541.51" y1="925.92" x2="541.51" y2="898.64"/>
  </g>
  <polyline class="st11" points="658.41 790.98 658.56 773.48 657.15 773.48 657.08 790.98 658.41 790.98"/>
  <polyline class="st11" points="659.87 790.09 658.46 790.09 658.59 774.37 660 774.38"/>
  <polyline class="st11" points="567.12 872.74 546.13 872.77 546.07 830.78 567.06 830.75 567.12 872.74"/>
  <polyline class="st4" points="546.13 860.53 567.13 860.5 567.12 872.74 546.13 872.77 546.13 860.53"/>
  <line class="st4" x1="548.55" y1="866.52" x2="554.19" y2="866.46"/>
  <line class="st4" x1="559.08" y1="866.51" x2="564.65" y2="866.45"/>
  <line class="st4" x1="561.83" y1="863.69" x2="561.9" y2="869.26"/>
  <line class="st4" x1="551.37" y1="863.71" x2="551.36" y2="869.27"/>
  <polyline class="st4" points="563.53 834.26 549.58 834.31 549.55 848.26 563.57 848.29 563.53 834.26"/>
  <polyline class="st4" points="546.1 851.77 546.07 830.78 567.06 830.75 567.09 851.74 546.1 851.77"/>
  <line class="st4" x1="547.64" y1="841.33" x2="553.2" y2="841.26"/>
  <line class="st4" x1="564.69" y1="883.29" x2="564.76" y2="911.63"/>
  <line class="st4" x1="509.56" y1="763.57" x2="537.91" y2="763.5"/>
  <path class="st4" d="M509.57,791.86c15.65-.02,28.31-12.73,28.29-28.37"/>
  <line class="st4" x1="509.64" y1="791.91" x2="509.56" y2="763.57"/>
  <polyline class="st11" points="537.8 825.95 516.81 825.98 516.86 827.69 537.86 827.66 537.8 825.95"/>
  <polyline class="st11" points="680.04 825.25 674.77 825.26 674.75 826.97 680.02 827.03 680.04 825.25"/>
  <polyline class="st11" points="679.69 858.54 674.5 858.48 674.48 860.26 679.67 860.25 679.69 858.54"/>
  <polyline class="st11" points="680.02 827.03 679.69 858.54 677.99 858.52 678.24 827.01 680.02 827.03"/>
  <polyline class="st11" points="680.3 799.01 675.03 799.02 675.01 800.72 680.28 800.79 680.3 799.01"/>
  <polyline class="st11" points="680.06 823.55 674.8 823.48 674.77 825.26 680.04 825.25 680.06 823.55"/>
  <line class="st4" x1="680.78" y1="860.31" x2="681.34" y2="799.07"/>
  <polyline class="st11" points="680.06 823.55 680.28 800.79 678.5 800.76 678.28 823.52 680.06 823.55"/>
  <polygon class="st14" points="680.2 917.91 680.78 860.31 659.28 860.09 658.74 926.52 512.96 926.72 512.85 859.87 541.75 859.84 541.79 878.02 562.88 877.99 562.91 881.48 567.16 881.49 567.14 873.78 546.05 873.8 545.92 830.1 567.01 830.08 567.02 825.85 537.65 825.94 537.65 830.09 541.75 830.1 541.76 855.61 512.84 855.71 512.79 830.09 516.8 830.13 516.76 825.98 512.79 825.94 512.73 793.63 507.54 793.65 507.7 926.73 507.77 944.24 684.11 943.94 684.51 917.93 680.2 917.91"/>
  <polyline class="st14" points="562.95 913.38 562.96 926.66 567.19 926.67 567.19 913.32 562.95 913.38"/>
  <polygon class="st14" points="679.71 784 680.02 752.9 657.83 752.9 517.37 753.05 517.37 753.05 517.37 753.05 512.68 753.06 512.68 753.05 507.44 753.05 507.44 761.82 512.72 761.81 512.69 758.32 660.13 758.09 659.92 783.87 659.76 798.84 681.34 799.07 681.42 784.01 679.71 784"/>
  <g>
    <path class="st4" d="M537.54,825.43s0-.02,0-.03"/>
    <path class="st2" d="M537.51,824.99c-.28-2.71-2.7-10.41-3.33-10.41l-16.99,11.11-.18.12"/>
    <line class="st4" x1="516.83" y1="825.94" x2="516.81" y2="825.95"/>
  </g>
  <circle class="st5" cx="647.74" cy="890.26" r="6.97"/>
  <g>
    <g>
      <path class="st11" d="M660.17,843.23c-.02,4.54-3.94,8.21-8.77,8.19-3.56-.01-7.07-2.35-8.27-5.63-.16-.45-.5-1.39-.44-2.62.17-3.86,4.03-8.21,8.77-8.19,4.83.02,8.73,3.71,8.72,8.25Z"/>
      <path class="st4" d="M643.82,845.01c0,2.79,3.38,5.06,7.58,5.08"/>
      <path class="st4" d="M659.01,845.07c0,2.79-3.41,5.04-7.61,5.02"/>
      <path class="st4" d="M659.01,845.07c0-.55.44-1,.98-.99"/>
      <path class="st4" d="M643.82,845.01c0-.55-.43-1-.97-1"/>
      <g>
        <path class="st11" d="M638.63,843.15c-.02,4.54-3.94,8.21-8.77,8.19-3.56-.01-7.07-2.35-8.27-5.63-.16-.45-.5-1.39-.44-2.62.17-3.86,4.03-8.21,8.77-8.19s8.73,3.71,8.72,8.25Z"/>
        <path class="st4" d="M622.28,844.94c0,2.79,3.38,5.06,7.58,5.08"/>
        <path class="st4" d="M637.47,844.99c0,2.79-3.41,5.04-7.61,5.02"/>
        <path class="st4" d="M637.47,844.99c0-.55.44-1,.98-.99"/>
        <path class="st4" d="M622.28,844.94c0-.55-.47-1-1.05-1"/>
      </g>
    </g>
    <g>
      <path class="st11" d="M660.27,816.14c.02-4.54-3.89-8.24-8.72-8.25-3.56-.01-7.09,2.3-8.31,5.57-.17.45-.51,1.39-.46,2.62.14,3.86,3.97,8.24,8.72,8.25,4.83.02,8.76-3.65,8.77-8.19Z"/>
      <path class="st4" d="M643.93,814.24c0-2.79,3.41-5.04,7.61-5.02"/>
      <path class="st4" d="M659.12,814.29c0-2.79-3.38-5.06-7.58-5.08"/>
      <path class="st4" d="M659.12,814.29c0,.55.43,1,.97,1"/>
      <path class="st4" d="M643.93,814.24c0,.55-.44,1-.98.99"/>
      <g>
        <path class="st11" d="M638.72,816.06c.02-4.54-3.89-8.24-8.72-8.25-3.56-.01-7.09,2.3-8.31,5.57-.17.45-.51,1.39-.46,2.62.14,3.86,3.97,8.24,8.72,8.25,4.83.02,8.76-3.65,8.77-8.19Z"/>
        <path class="st4" d="M622.39,814.16c0-2.79,3.41-5.04,7.61-5.02"/>
        <path class="st4" d="M637.58,814.22c0-2.79-3.38-5.06-7.58-5.08"/>
        <path class="st4" d="M637.58,814.22c0,.55.43,1,.97,1"/>
        <path class="st4" d="M622.39,814.16c0,.55-.48,1-1.06.99"/>
      </g>
    </g>
    <rect class="st11" x="629.33" y="807.62" width="22.74" height="44.58" transform="translate(1472.86 192.13) rotate(90.2)"/>
  </g>
  <g>
    <path class="st10" d="M654.14,904.39c-7.56-1.23-15.31-1.36-22.93-.37-.33,0-.61.19-.68.47-.02,6.38-.05,12.75-.07,19.13"/>
    <path class="st10" d="M654.14,904.39c.13.02.22.11.23.22v18.75l-23.93.26c-.02-6.38-.05-12.75-.07-19.13-.07-.27-.36-.47-.68-.47-7.61-.99-15.36-.86-22.93.37-.13.02-.22.11-.23.22v19.01h23.91"/>
    <path class="st10" d="M654.04,924.59c.07-.6.08-1.18.01-1.78-.02-.11-.13-.2-.27-.2-7.65-.18-15.29-.22-22.94-.13-.19.02-.34.16-.34.33-.06.65-.04,1.3.03,1.95"/>
    <path class="st10" d="M606.87,924.59c-.07-.6-.08-1.18-.01-1.78.02-.11.13-.2.27-.2,7.65-.18,15.29-.22,22.94-.13.19.02.34.16.34.33.06.65.04,1.3-.03,1.95"/>
    <path class="st10" d="M606.58,924.93v.21c0,.07.06.12.14.12h47.46c.08,0,.14-.06.14-.12v-.21l-.06-.14h-.36s-47.33.14-47.33.14Z"/>
    <path class="st10" d="M653.27,920.91c.47,0,.84,1.1.84,2.47,0,.11,0,.22-.01.33l-.06.89c-.02.11-.13.2-.27.2h-23.27v-1.98c.01-.65.02-1.29.04-1.94.07-.27.36-.47.68-.47,7.32-1.04,14.8-.87,22.05.5Z"/>
    <path class="st10" d="M607.68,920.91c-.47,0-.84,1.1-.84,2.47,0,.11,0,.22.01.33l.06.89c.02.11.13.2.27.2h23.27v-1.98c-.01-.65-.02-1.29-.04-1.94-.07-.27-.36-.47-.68-.47-7.32-1.04-14.8-.87-22.05.5Z"/>
    <path class="st10" d="M653.88,922.62c-.11-.27-.19-.53-.26-.81-.14-.31-.26-.62-.36-.94-.14-.44-.29-.87-.43-1.3-.2-.6-.35-1.2-.44-1.82-.05-.38-.1-.76-.12-1.14-.03-.41-.06-.81-.08-1.22-.05-.97-.05-1.93,0-2.9.05-.98.19-1.94.4-2.9.16-.72.39-1.42.7-2.11.19-.43.47-.76.89-1.05.04-.02.07-.03.12-.03h.42c.11.04.18.1.23.2v18.47c0,.11-.1.2-.23.2h-.13c-.13,0-.23-.09-.24-.2-.04-.26-.07-.51-.11-.77-.02-.34-.07-.67-.15-1.01l-.21-.67Z"/>
    <path class="st10" d="M607.03,922.62c.11-.27.19-.53.26-.81.14-.31.26-.62.36-.94.14-.44.29-.87.43-1.3.2-.6.35-1.2.44-1.82.05-.38.1-.76.12-1.14.03-.41.06-.81.08-1.22.05-.97.05-1.93,0-2.9-.05-.98-.19-1.94-.4-2.9-.16-.72-.39-1.42-.7-2.11-.19-.43-.47-.76-.89-1.05-.04-.02-.07-.03-.12-.03h-.42c-.11.04-.18.1-.23.2v18.47c0,.11.1.2.23.2h.13c.13,0,.23-.09.24-.2.04-.26.07-.51.11-.77.02-.34.07-.67.15-1.01l.21-.67Z"/>
  </g>
  <line class="st4" x1="564.76" y1="911.63" x2="593.1" y2="911.56"/>
  <path class="st4" d="M593.05,911.54c-.02-15.65-12.73-28.31-28.37-28.29"/>
  <g>
    <g>
      <rect class="st3" x="585" y="760.4" width="69.98" height="31.49" transform="translate(-6.38 5.14) rotate(-.47)"/>
      <rect class="st3" x="629.88" y="767.24" width="17.5" height="17.5" rx="1.42" ry="1.42" transform="translate(-132.08 1420.99) rotate(-90.47)"/>
    </g>
    <polygon class="st3" points="645.69 759.79 584.68 760.29 584.95 792.18 630.18 791.81 645.69 759.79"/>
  </g>
  <g>
    <polyline class="st4" points="566.93 758.19 566.93 758.16 566.9 758.16"/>
    <line class="st13" x1="566.48" y1="758.16" x2="512.81" y2="758.16"/>
    <polyline class="st4" points="512.59 758.16 512.57 758.16 512.57 758.19"/>
    <line class="st7" x1="512.57" y1="758.61" x2="512.57" y2="826.58"/>
    <polyline class="st4" points="512.57 826.79 512.57 826.82 512.59 826.82"/>
    <line class="st13" x1="513.02" y1="826.82" x2="566.69" y2="826.82"/>
    <polyline class="st4" points="566.9 826.82 566.93 826.82 566.93 826.79"/>
    <line class="st7" x1="566.93" y1="826.36" x2="566.93" y2="758.4"/>
  </g>
</svg>