<?xml version="1.0" encoding="UTF-8"?>
<svg id="Layer_1" xmlns="http://www.w3.org/2000/svg" xmlns:xlink="http://www.w3.org/1999/xlink" version="1.1" viewBox="0 0 1200 1697.14">
  <!-- Generator: Adobe Illustrator 29.6.0, SVG Export Plug-In . SVG Version: 2.1.1 Build 207)  -->
  <defs>
    <style>
      .st0, .st1, .st2, .st3 {
        fill: none;
      }

      .st1 {
        stroke: #0d0e1c;
      }

      .st1, .st2, .st3 {
        stroke-linecap: round;
        stroke-linejoin: round;
      }

      .st1, .st3 {
        stroke-width: .08px;
      }

      .st2 {
        stroke-width: .14px;
      }

      .st2, .st3 {
        stroke: #000;
      }

      .st4 {
        clip-path: url(#clippath-1);
      }

      .st5 {
        clip-path: url(#clippath-3);
      }

      .st6 {
        clip-path: url(#clippath-4);
      }

      .st7 {
        clip-path: url(#clippath-2);
      }

      .st8 {
        clip-path: url(#clippath-7);
      }

      .st9 {
        clip-path: url(#clippath-6);
      }

      .st10 {
        clip-path: url(#clippath-9);
      }

      .st11 {
        clip-path: url(#clippath-8);
      }

      .st12 {
        clip-path: url(#clippath-5);
      }

      .st13 {
        fill: #fff;
      }

      .st14 {
        fill: #ece9e5;
      }

      .st15 {
        fill: #302c35;
      }

      .st16 {
        clip-path: url(#clippath);
      }
    </style>
    <clipPath id="clippath">
      <rect class="st0" x="325.39" y="441.48" width="549.21" height="814.19"/>
    </clipPath>
    <clipPath id="clippath-1">
      <rect class="st0" x="676.25" y="762.1" width="72.57" height="159.65"/>
    </clipPath>
    <clipPath id="clippath-2">
      <rect class="st0" x="325.39" y="441.48" width="549.21" height="814.19"/>
    </clipPath>
    <clipPath id="clippath-3">
      <rect class="st0" x="642.96" y="990.09" width="28.6" height="39.22"/>
    </clipPath>
    <clipPath id="clippath-4">
      <rect class="st0" x="325.39" y="441.48" width="549.21" height="814.19"/>
    </clipPath>
    <clipPath id="clippath-5">
      <rect class="st0" x="325.39" y="441.48" width="549.21" height="814.19"/>
    </clipPath>
    <clipPath id="clippath-6">
      <rect class="st0" x="714.58" y="1073.55" width="27.51" height="37.12"/>
    </clipPath>
    <clipPath id="clippath-7">
      <rect class="st0" x="325.39" y="441.48" width="549.21" height="814.19"/>
    </clipPath>
    <clipPath id="clippath-8">
      <rect class="st0" x="325.39" y="441.48" width="549.21" height="814.19"/>
    </clipPath>
    <clipPath id="clippath-9">
      <rect class="st0" x="325.39" y="441.48" width="549.21" height="814.19"/>
    </clipPath>
  </defs>
  <rect class="st14" x="428.76" y="658.85" width="338.88" height="481.65"/>
  <rect class="st14" x="465.21" y="549.72" width="249.43" height="139.5"/>
  <rect class="st13" x="446.38" y="1006.5" width="47.78" height="117.89"/>
  <rect class="st13" x="445.97" y="904.91" width="47.93" height="95.86"/>
  <rect class="st13" x="491.5" y="663.24" width="198.63" height="11.47"/>
  <rect class="st15" x="688.65" y="689.22" width="78.98" height="16.2"/>
  <rect class="st15" x="613.38" y="1124.64" width="136.7" height="15.87"/>
  <rect class="st15" x="428.75" y="1124.64" width="113.07" height="15.87"/>
  <rect class="st15" x="750.08" y="705.43" width="17.55" height="435.07"/>
  <rect class="st15" x="710.59" y="550.99" width="4.05" height="107.85"/>
  <rect class="st15" x="465.21" y="547.87" width="4.05" height="110.98"/>
  <rect class="st15" x="468.92" y="547.87" width="245.72" height="3.71"/>
  <rect class="st15" x="428.75" y="705.43" width="17.55" height="419.21"/>
  <rect class="st15" x="445.97" y="1000.76" width="55.69" height="5.74"/>
  <rect class="st15" x="622.16" y="1117.88" width="130.4" height="7.99"/>
  <rect class="st15" x="622.16" y="1109.11" width="5.4" height="8.77"/>
  <rect class="st15" x="627.56" y="983.55" width="125" height="5.06"/>
  <rect class="st15" x="742.99" y="988.61" width="8.41" height="129.27"/>
  <rect class="st15" x="627.56" y="988.61" width="115.43" height="1.35"/>
  <rect class="st15" x="627.56" y="1109.11" width="1.35" height="7.43"/>
  <rect class="st15" x="622.16" y="983.55" width="5.4" height="54.68"/>
  <rect class="st15" x="627.56" y="984.22" width="1.35" height="54.01"/>
  <rect class="st15" x="627.56" y="1116.54" width="115.43" height="1.35"/>
  <rect class="st15" x="741.98" y="988.61" width="1.01" height="127.92"/>
  <rect class="st15" x="630.26" y="923.81" width="121.14" height="7.76"/>
  <rect class="st15" x="622.16" y="923.81" width="8.44" height="59.74"/>
  <rect class="st15" x="688.65" y="658.85" width="78.98" height="30.38"/>
  <rect class="st15" x="428.78" y="689.22" width="62.72" height="16.2"/>
  <rect class="st15" x="428.78" y="658.85" width="62.72" height="30.38"/>
  <path class="st3" d="M750.08,931.57v51.98M750.08,983.55h-119.48M630.6,983.55v-51.98M630.6,931.57h119.48M688.65,689.22v16.2M688.65,705.42h61.43M446.31,705.42h45.23M491.53,705.42v-16.2M428.76,1140.5h112.4M541.15,1124.63h-94.84M614.4,1140.5h135.69M611.02,1124.63h0M613.38,1124.63h1.01M767.63,1140.5v-208.93M767.63,923.81v-218.38M611.02,1058.14l-13.16,1.35M597.86,1059.49l-12.49,3.71M585.37,1063.2l-11.48,6.08M573.89,1069.28l-10.12,8.44M563.77,1077.72l-8.1,9.79M555.67,1087.51l-6.42,11.81M549.25,1099.32l-3.71,12.49M545.54,1111.81l-1.35,12.83M541.83,1124.63v15.87M613.38,1140.5v-15.87M611.02,1124.63v-66.49M607.65,1124.63h3.37M614.4,1124.63h-1.01M611.02,1124.63h0M685.28,587.63l-13.16,1.35M672.11,588.98l-12.49,3.38M659.63,592.35l-11.81,5.4M647.81,597.75l-10.8,7.76M637.01,605.52l-9.45,9.11M627.56,614.63l-7.42,10.8M620.13,625.43l-5.74,11.81M614.4,637.24l-3.38,12.83M611.02,650.07l-1.01,13.16M685.28,663.23v-75.61M680.55,663.57v4.05M615.07,663.57h65.48M615.07,667.62v-4.05M680.55,667.62h-65.48M611.36,674.71h72.57M680.55,663.23h-65.48M680.55,669.31h-65.48M611.36,669.31v5.4M683.93,669.31v5.4M683.93,669.31h-72.57M687.64,663.23v11.47M680.55,663.23h7.09M680.55,669.31v-6.07M683.93,669.31h-3.37M683.93,674.71v-5.4M687.64,674.71h-3.72M611.36,669.31v5.4M615.07,669.31h-3.71M615.07,663.23v6.07M607.65,663.23h7.42M607.65,674.71v-11.47M611.36,674.71h-3.71M496.6,667.62h105.98M602.58,667.62v-4.05M602.58,663.57h-105.98M496.6,663.57v4.05M602.58,674.71h-105.98M496.6,663.23h105.98M602.58,674.71h4.05M606.63,674.71v-11.47M606.63,663.23h-4.05M602.58,663.23v11.47M492.55,674.71h4.05M496.6,674.71v-11.47M496.6,663.23h-4.05M492.55,663.23v11.47M469.26,574.8v84.04M710.59,658.85v-84.04M710.59,658.85h4.05M714.64,658.85v-110.98M714.64,547.87h-249.43M465.21,547.87v110.98M465.21,658.85h4.05M469.26,658.85v-107.31M469.26,551.54h241.33M710.59,551.54v107.31M750.08,983.55l-119.48-51.98M750.08,983.55h-119.48M630.6,983.55v-51.98M630.6,931.57h119.48M750.08,931.57v51.98"/>
  <path class="st3" d="M446.31,952.83h3.37M452.04,952.83h2.36M456.77,952.83h2.36M461.49,952.83h2.36M466.22,952.83h2.7M471.28,952.83h2.36M476.01,952.83h2.36M480.73,952.83h2.36M485.46,952.83h2.36M490.18,952.83h3.71M493.9,952.83v-1.35M493.9,949.12v-2.36M493.9,944.4v-2.36M493.9,939.67v-2.36M493.9,934.94v-2.36M493.9,930.22v-2.36M493.9,925.16v-2.36M493.9,920.43v-2.36M493.9,915.71v-2.36M493.9,910.98v-2.36M493.9,906.25v-1.35M493.9,904.9h-3.71M487.82,904.9h-2.36M483.1,904.9h-2.36M478.37,904.9h-2.36M473.65,904.9h-2.36M468.92,904.9h-2.7M463.86,904.9h-2.36M459.13,904.9h-2.36M454.41,904.9h-2.36M449.68,904.9h-3.37M428.75,705.43v419.21M446.31,1000.76h3.37M452.04,1000.76h2.36M456.77,1000.76h2.36M461.49,1000.76h2.36M466.22,1000.76h2.7M471.28,1000.76h2.36M476.01,1000.76h2.36M480.73,1000.76h2.36M485.46,1000.76h2.36M490.18,1000.76h3.71M493.9,1000.76v-1.35M493.9,997.05v-2.36M493.9,992.32v-2.36M493.9,987.6v-2.36M493.9,982.87v-2.7M493.9,977.81v-2.36M493.9,973.08v-2.36M493.9,968.36v-2.36M493.9,963.63v-2.36M493.9,958.91v-2.36M493.9,954.18v-1.35M493.9,952.83h-3.71M487.82,952.83h-2.36M483.1,952.83h-2.36M478.37,952.83h-2.36M473.65,952.83h-2.36M468.92,952.83h-2.7M463.86,952.83h-2.36M459.13,952.83h-2.36M454.41,952.83h-2.36M449.68,952.83h-3.37M446.31,1006.5h55.36M501.66,1006.5v-5.74M501.66,1000.76h-55.36M428.75,1006.5v-5.74M491.53,673.02v32.4M446.31,705.43v295.34M446.31,1006.5v118.13M541.15,1124.63h.68M544.19,1124.63h63.46M611.02,1124.63h0M613.38,1124.63h8.78M622.16,923.81h127.92M750.08,923.81v-218.38M688.65,705.43v-32.4M688.65,673.02h-1.01M607.64,673.02h-1.01M492.55,673.02h-1.01M742.99,1140.5h-129.61M614.39,1124.63h-1.01M611.02,1124.63h0M541.83,1140.5h-113.07"/>
  <path class="st3" d="M622.16,1117.88v6.75M622.16,1109.11v8.78M622.16,983.55v54.68M748.39,983.55h-117.8"/>
  <path class="st3" d="M693.38,1106.41l-1.35-12.82M692.03,1093.58l-3.71-12.15M688.31,1081.43l-6.08-11.47M682.24,1069.95l-8.1-10.13M674.14,1059.83l-10.12-8.1M664.01,1051.73l-11.48-6.08M652.54,1045.65l-12.15-3.71M640.38,1041.94l-12.83-1.35M628.91,1038.23h-6.75M622.16,1109.11h6.75M627.56,1106.41h65.82M627.56,1040.59v65.82"/>
  <path class="st3" d="M628.91,989.96h113.07M628.91,1038.23v-48.27M628.91,1116.53v-7.43M741.98,1116.53h-113.07M741.98,989.96v126.57"/>
  <path class="st3" d="M749.74,923.81h-7.76M741.98,923.81v7.76M741.98,931.57h7.76M694.05,923.81h-63.79M630.6,931.57h63.45M694.05,931.57v-7.76M694.05,923.81h47.93M741.98,931.57h-47.93M741.98,923.81v7.76M694.05,931.57v-7.76M622.16,923.81v59.74M630.26,923.81h-8.1M491.53,689.23v-30.38M491.53,658.85h-62.78M767.63,658.85h-78.98M688.65,658.85v30.38M688.65,667.62h-1.01M607.64,667.62h-1.01M492.55,667.62h-1.01M491.53,673.02v-5.4M688.65,667.62v5.4M688.65,667.62v-8.78M491.53,658.85v8.78M491.53,667.62h1.01M606.63,667.62h1.01M687.64,667.62h1.01M428.75,1140.5v-481.65M767.63,1140.5h-24.64M767.63,658.85v481.65"/>
  <g class="st16">
    <path class="st2" d="M1124.4,579.19h-6.07M1100.77,499.87l-16.2,7.09M1088.96,524.51l-4.39-17.55M1061.28,495.82l27.68,28.69M1061.28,495.82l39.49,4.05M1061.28,495.82l23.29,11.14M1124.4,818.5h-6.07M1124.4,658.84h-6.07M1124.4,738.5h-6.07M1124.4,818.5v-239.31M-1.93,1278.21h1183.71"/>
    <path d="M1103.01,1227.3c.43-.28.75-.67.96-1.17.21-.5.32-1.12.32-1.85,0-.58-.11-1.1-.32-1.57-.21-.47-.51-.82-.89-1.07-.38-.25-.78-.37-1.21-.37s-.82.11-1.15.34c-.33.23-.6.58-.82,1.05-.14.33-.32.93-.52,1.8-.19.87-.38,1.42-.57,1.62-.19.21-.42.32-.71.32-.33,0-.62-.15-.86-.45-.24-.3-.35-.77-.35-1.42s.13-1.1.39-1.42c.26-.32.64-.51,1.15-.56l-.08-1.03c-.47.02-.89.15-1.27.4-.37.25-.66.6-.85,1.06-.19.46-.29.99-.29,1.59,0,.55.09,1.05.28,1.49.18.45.45.79.8,1.02.36.23.74.35,1.14.35.37,0,.7-.1,1-.28.3-.19.55-.48.75-.87.16-.3.33-.82.5-1.57.18-.75.31-1.23.4-1.45.13-.34.29-.59.47-.73.19-.15.41-.22.66-.22s.48.08.69.23c.21.15.38.39.49.7.12.31.18.68.18,1.09,0,.46-.08.88-.24,1.25-.16.37-.37.65-.62.82-.26.17-.59.29-.99.34l.09,1.01c.54-.02,1.02-.16,1.45-.45M1104.15,1218.58h-2.79l-1.29-1.33,4.08-2.9v-1.42l-4.79,3.57-3.26-3.41v1.46l4,4.04h-4v1.08h8.06v-1.08Z"/>
    <path d="M1098.49,1209.06h.92v-5.37h-.92v5.37ZM1100.93,1209.06h.92v-5.37h-.92v5.37Z"/>
    <path d="M1103.01,1198.95c.43-.28.75-.67.96-1.17.21-.5.32-1.11.32-1.85,0-.58-.1-1.1-.31-1.57-.21-.47-.51-.82-.89-1.07-.38-.25-.78-.37-1.21-.37s-.81.11-1.14.34c-.33.23-.61.58-.82,1.05-.15.33-.32.93-.52,1.8-.2.88-.39,1.42-.57,1.63-.19.21-.42.31-.72.31-.33,0-.62-.15-.86-.45-.23-.3-.35-.77-.35-1.42s.13-1.1.39-1.42c.26-.32.65-.51,1.16-.56l-.08-1.03c-.47.02-.9.15-1.27.4-.38.25-.66.6-.85,1.07-.19.46-.29.99-.29,1.59,0,.55.09,1.05.27,1.49.18.45.45.79.81,1.02.35.23.73.35,1.14.35.37,0,.7-.1,1-.29.3-.19.55-.48.75-.87.16-.3.32-.83.5-1.57.18-.74.31-1.23.39-1.45.13-.34.29-.59.48-.73.19-.15.41-.22.66-.22s.48.07.69.23c.21.15.38.39.5.7.12.31.18.68.18,1.09,0,.46-.08.88-.24,1.25-.16.37-.37.64-.63.82-.26.17-.59.29-.99.34l.09,1.01c.54-.01,1.02-.16,1.45-.45"/>
    <path d="M1104.15,1190.73h-2.32l-.67-.71,2.98-1.95v-1.23l-3.67,2.48-2.16-2.26v1.29l2.37,2.37h-4.6v1h8.06v-1ZM1104.15,1181.6v-1.04c-.22.12-.46.21-.7.25-.24.04-.82.07-1.74.07h-1.32c-.44,0-.74.02-.91.05-.27.06-.49.16-.67.31-.18.15-.33.38-.44.69-.12.31-.17.72-.17,1.23s.07.95.21,1.33c.13.38.33.68.59.88.25.2.59.35,1,.44l.13-.98c-.42-.11-.7-.27-.87-.5-.16-.22-.24-.57-.24-1.04,0-.5.11-.88.33-1.14.17-.19.45-.28.86-.28.04,0,.12,0,.26,0,.13.38.24.97.34,1.78.05.4.09.69.15.89.07.27.18.5.33.72.14.21.33.38.57.52.24.13.5.2.78.2.49,0,.89-.17,1.2-.52s.47-.84.47-1.49c0-.39-.07-.76-.19-1.1-.13-.34-.35-.7-.66-1.07.27-.03.51-.1.72-.2M1101.58,1181.89c.44,0,.77.05.99.16.29.14.52.36.68.66.17.3.25.64.25,1.02s-.09.69-.27.89c-.17.2-.39.3-.66.3-.17,0-.33-.05-.47-.14-.14-.09-.25-.22-.33-.39-.07-.17-.14-.46-.2-.87-.1-.73-.23-1.27-.38-1.63h.36Z"/>
    <path d="M1104.15,1178.57h-2.32l-.67-.71,2.99-1.95v-1.23l-3.67,2.48-2.16-2.25v1.29l2.37,2.37h-4.6v1h8.06v-1ZM1103.3,1172.1c0,.15-.03.26-.07.34-.05.08-.11.14-.19.17-.08.03-.26.05-.55.05h-3.41v-1.01h-.77v1.01h-2.04l.59.99h1.45v.73h.77v-.73h3.36c.59,0,.98-.04,1.17-.12.19-.08.34-.22.45-.42.11-.2.17-.48.17-.84,0-.22-.03-.47-.09-.76l-.87.14c.03.18.04.33.04.44"/>
    <path d="M1117.31,1226.25h-3.66v-3.82h-.95v3.82h-2.49v-4.41h-.95v5.49h8.06v-1.08ZM1116.17,1220.55c.43-.28.74-.67.96-1.17.21-.5.32-1.11.32-1.85,0-.58-.1-1.11-.31-1.57-.21-.46-.51-.82-.89-1.07-.38-.25-.78-.37-1.21-.37s-.81.11-1.14.34c-.33.23-.61.58-.82,1.05-.15.33-.32.93-.51,1.8-.2.88-.39,1.42-.57,1.63-.19.21-.43.31-.72.31-.33,0-.62-.15-.86-.45-.23-.3-.35-.77-.35-1.42s.13-1.1.39-1.42c.26-.32.65-.51,1.16-.56l-.08-1.03c-.47.02-.9.15-1.27.4-.38.25-.66.6-.85,1.07-.19.46-.29.99-.29,1.59,0,.55.09,1.05.27,1.49.18.45.45.79.81,1.02.35.24.73.35,1.14.35.37,0,.7-.1,1-.29.3-.19.55-.48.75-.87.16-.3.33-.83.5-1.57.18-.74.31-1.23.39-1.45.13-.34.29-.59.48-.73.19-.15.41-.22.66-.22s.48.07.69.23c.21.15.38.39.5.7.12.31.18.68.18,1.09,0,.46-.08.88-.24,1.25-.16.37-.37.64-.63.82-.26.17-.59.29-.99.34l.09,1.01c.54-.01,1.02-.16,1.45-.45"/>
    <path d="M1111.65,1210.08h.92v-5.37h-.92v5.37ZM1114.1,1210.08h.92v-5.37h-.92v5.37Z"/>
    <polygon points="1117.31 1198.91 1113.65 1198.91 1113.65 1195.09 1112.7 1195.09 1112.7 1198.91 1110.2 1198.91 1110.2 1194.5 1109.25 1194.5 1109.25 1199.99 1117.31 1199.99 1117.31 1198.91"/>
    <path d="M1116.66,1192.69c.52-.51.79-1.18.79-2,0-.51-.12-.99-.36-1.42-.24-.43-.57-.76-1-.99-.43-.23-1.02-.34-1.77-.34-.93,0-1.66.26-2.18.77-.53.52-.79,1.18-.79,1.99,0,.73.22,1.35.65,1.85.52.61,1.32.91,2.4.91.99,0,1.74-.25,2.26-.76M1112.72,1191.93c-.37-.33-.56-.74-.56-1.24s.19-.9.56-1.23c.37-.33.92-.5,1.64-.5.77,0,1.34.16,1.71.49.37.33.56.74.56,1.24s-.19.91-.56,1.24c-.37.33-.93.49-1.68.49s-1.31-.16-1.68-.49M1117.31,1186.02h-3.06c-.42,0-.8-.06-1.15-.17-.23-.07-.41-.2-.54-.37-.13-.18-.2-.37-.2-.59,0-.24.07-.49.22-.73l-.92-.34c-.21.35-.32.69-.32,1.03,0,.23.06.45.2.64.13.19.4.4.82.63h-.89v.9h5.84v-1Z"/>
    <path d="M1116.35,1179.87c.19.26.29.57.29.94,0,.49-.17.9-.51,1.23-.34.33-.83.51-1.47.55v-4.39c-.12,0-.2,0-.26,0-.96,0-1.71.25-2.24.75-.53.5-.8,1.14-.8,1.93s.27,1.47.82,1.98c.54.51,1.3.77,2.29.77s1.69-.25,2.21-.76c.53-.5.79-1.19.79-2.05,0-.68-.17-1.25-.49-1.69-.33-.44-.79-.74-1.39-.9l-.13,1.03c.42.15.72.36.91.62M1112.61,1182.02c-.3-.31-.46-.7-.46-1.16,0-.51.19-.92.57-1.24.25-.21.61-.33,1.11-.38v3.29c-.51-.03-.92-.21-1.22-.52M1116.97,1176.51c.31-.4.47-.98.47-1.75,0-.46-.08-.88-.24-1.24-.16-.37-.39-.65-.68-.84-.29-.19-.6-.29-.93-.29s-.62.08-.85.24c-.23.16-.4.38-.52.66-.12.28-.27.77-.46,1.48-.13.49-.22.78-.25.88-.07.17-.16.3-.27.38-.1.08-.22.12-.34.12-.2,0-.38-.1-.53-.3-.15-.19-.22-.52-.22-.98,0-.39.08-.69.25-.9.17-.21.4-.34.7-.38l-.13-.97c-.38.06-.68.18-.9.34-.22.17-.4.42-.54.77-.13.35-.2.76-.2,1.22,0,.31.04.59.12.87.08.27.18.48.29.63.14.21.33.37.55.49.22.12.46.18.72.18.29,0,.55-.07.78-.22.23-.15.42-.36.55-.64.14-.28.29-.79.48-1.52.13-.55.25-.89.33-1.02.13-.2.3-.29.53-.29.25,0,.47.11.65.33.19.22.28.56.28,1.02s-.1.81-.31,1.06c-.21.25-.51.41-.9.46l.16.99c.62-.11,1.09-.37,1.4-.77M1109.25,1171.13h8.06v-1h-8.06v1ZM1117.31,1164.44v-1.04c-.22.13-.46.21-.7.25-.25.04-.82.06-1.74.06h-1.32c-.44,0-.74.02-.91.05-.27.06-.5.17-.67.31-.18.15-.33.38-.44.69-.12.31-.18.72-.18,1.23s.07.95.21,1.34c.14.38.34.68.59.88.25.21.59.35,1,.44l.13-.98c-.42-.11-.7-.27-.87-.5-.16-.22-.25-.57-.25-1.04,0-.5.11-.88.34-1.14.17-.19.45-.28.85-.28.04,0,.13,0,.26,0,.13.38.25.97.34,1.78.05.4.1.69.15.89.07.26.18.5.32.72.14.21.33.38.57.52.23.13.5.2.78.2.49,0,.89-.17,1.2-.52s.47-.84.47-1.49c0-.39-.06-.76-.19-1.1-.13-.34-.35-.7-.66-1.07.27-.03.51-.1.72-.2M1114.75,1164.73c.44,0,.77.06.99.16.29.14.52.36.68.66.17.3.25.64.25,1.03s-.09.69-.27.89c-.17.2-.39.3-.66.3-.17,0-.33-.04-.47-.14-.14-.09-.25-.22-.32-.39-.08-.17-.14-.46-.2-.87-.1-.72-.23-1.27-.37-1.63h.36ZM1110.69,1166.82c.2-.19.29-.43.29-.71s-.1-.5-.29-.7c-.2-.2-.44-.3-.72-.3s-.52.1-.71.3c-.2.2-.3.43-.3.7s.1.5.29.7.43.3.69.3c.29,0,.54-.1.74-.3M1109.55,1166.52c-.12-.12-.18-.26-.18-.41s.06-.3.18-.42c.12-.11.26-.17.42-.17s.31.06.42.17c.12.12.17.25.17.42s-.06.29-.17.41c-.12.12-.26.17-.44.17-.16,0-.3-.06-.41-.17M1116.35,1158.66c.19.26.29.57.29.94,0,.49-.17.9-.51,1.23-.34.33-.83.51-1.47.55v-4.4c-.12,0-.2,0-.26,0-.96,0-1.71.25-2.24.75-.53.5-.8,1.15-.8,1.93s.27,1.48.82,1.98c.54.51,1.3.76,2.29.76s1.69-.25,2.21-.76c.53-.5.79-1.19.79-2.05,0-.68-.17-1.25-.49-1.69-.33-.44-.79-.74-1.39-.9l-.13,1.03c.42.15.72.36.91.61M1112.61,1160.8c-.3-.31-.46-.7-.46-1.16,0-.51.19-.92.57-1.24.25-.21.61-.33,1.11-.38v3.29c-.51-.03-.92-.21-1.22-.52"/>
    <path d="M1116.47,1153.87c0,.15-.03.26-.07.34-.05.08-.11.14-.19.17s-.26.05-.55.05h-3.41v-1.01h-.77v1.01h-2.04l.59,1h1.45v.73h.77v-.73h3.36c.59,0,.98-.04,1.17-.12.18-.08.33-.22.45-.42.12-.2.17-.48.17-.84,0-.22-.03-.47-.09-.75l-.87.14c.03.18.04.33.04.44M1116.97,1149.18c.32-.4.47-.98.47-1.75,0-.46-.08-.88-.24-1.25-.16-.37-.38-.65-.68-.84-.29-.2-.6-.29-.93-.29s-.62.08-.84.24c-.23.16-.4.38-.52.66-.12.28-.27.77-.46,1.48-.13.49-.22.78-.25.88-.07.17-.16.3-.27.38-.1.08-.21.12-.34.12-.2,0-.38-.1-.53-.3-.15-.2-.22-.52-.22-.98,0-.39.09-.69.25-.9.17-.21.4-.34.7-.38l-.13-.98c-.38.06-.68.18-.91.34-.22.17-.4.43-.53.78-.13.35-.2.76-.2,1.22,0,.31.04.59.12.86.08.27.18.48.29.63.15.21.33.37.55.49.22.12.46.18.72.18.29,0,.55-.07.78-.22.23-.14.42-.36.56-.65.13-.28.29-.79.47-1.52.14-.54.25-.88.34-1.02.13-.19.3-.29.53-.29.25,0,.47.11.65.33.18.22.28.56.28,1.02s-.1.81-.31,1.06c-.21.25-.51.41-.9.46l.15.99c.62-.11,1.09-.36,1.4-.77"/>
    <path d="M1117.31,1142.46h-2.32l-.67-.71,2.98-1.95v-1.23l-3.67,2.48-2.16-2.25v1.29l2.37,2.36h-4.6v1h8.06v-1ZM1117.31,1133.68v-1.04c-.22.12-.46.21-.7.25-.24.04-.82.07-1.74.07h-1.32c-.44,0-.74.02-.91.05-.27.06-.5.16-.67.31-.18.15-.33.38-.44.69-.12.31-.17.72-.17,1.23s.07.95.2,1.33c.14.38.34.68.59.88.25.2.59.35,1,.44l.13-.98c-.41-.11-.7-.27-.87-.5-.16-.22-.24-.57-.24-1.04,0-.5.11-.88.33-1.14.17-.19.45-.28.85-.28.04,0,.12,0,.26,0,.14.38.25.97.35,1.78.04.4.09.69.15.89.07.27.18.5.33.72.14.21.33.38.57.52.23.13.5.2.78.2.49,0,.89-.17,1.2-.52.31-.35.47-.84.47-1.49,0-.39-.07-.76-.2-1.1-.13-.34-.34-.7-.66-1.07.27-.03.51-.1.72-.2M1114.75,1133.96c.44,0,.77.05.99.16.29.14.52.36.68.66.17.3.25.64.25,1.02s-.09.69-.27.89c-.17.2-.39.3-.66.3-.17,0-.33-.05-.47-.14-.14-.09-.25-.22-.32-.39-.07-.17-.14-.46-.2-.87-.1-.73-.23-1.27-.38-1.63h.36Z"/>
    <path d="M1116.58,1130.73c.57-.39.86-.94.86-1.64s-.27-1.3-.82-1.8c-.55-.5-1.32-.75-2.32-.75-.42,0-.82.06-1.19.18-.37.12-.69.28-.95.49-.26.21-.47.48-.61.8-.14.32-.22.67-.22,1.03,0,.65.26,1.19.79,1.61h-2.88v1h8.06v-.93h-.73ZM1112.72,1130.26c-.38-.32-.56-.69-.56-1.13s.18-.8.54-1.11c.36-.3.93-.46,1.69-.46s1.3.16,1.68.48.56.69.56,1.13c0,.53-.25.96-.76,1.27-.31.19-.82.29-1.52.29s-1.25-.16-1.63-.48"/>
    <path d="M1116.28,819.92c.56-.45.84-1.06.84-1.85,0-.6-.16-1.09-.48-1.48-.31-.39-.77-.68-1.34-.88-.58-.2-1.35-.29-2.29-.29-.8,0-1.43.06-1.9.18-.47.12-.87.29-1.2.5-.33.21-.58.49-.76.81-.18.33-.26.71-.26,1.15,0,.59.16,1.08.47,1.47.31.39.76.69,1.34.88.58.2,1.35.29,2.3.29,1.51,0,2.6-.27,3.27-.8M1110.28,819.18c-.39-.28-.58-.64-.58-1.1s.22-.85.66-1.17c.43-.31,1.32-.47,2.64-.47s2.2.16,2.64.47c.44.31.66.7.66,1.16s-.22.84-.65,1.16c-.44.31-1.32.47-2.64.47s-2.23-.17-2.72-.52M1116.02,666.23c-.18-.11-.36-.25-.53-.42-.18-.17-.52-.55-1.02-1.15-.6-.72-1.08-1.23-1.42-1.54-.34-.31-.67-.53-.99-.66-.31-.13-.63-.2-.95-.2-.63,0-1.16.23-1.59.68-.43.46-.64,1.07-.64,1.86s.2,1.39.59,1.85c.4.46.98.73,1.74.8l.1-1.03c-.51,0-.9-.15-1.19-.44-.29-.29-.43-.68-.43-1.16,0-.46.14-.83.41-1.11.27-.28.6-.43.99-.43s.77.16,1.19.47c.42.31.99.91,1.71,1.79.46.57.87,1.01,1.22,1.31.35.3.71.52,1.07.66.22.08.45.12.69.11v-5.38h-.95v3.99Z"/>
    <path d="M1116.97,660.14h-3.03c-.53,0-.94-.05-1.22-.16-.28-.11-.5-.28-.65-.52-.15-.24-.22-.5-.22-.78,0-.37.11-.64.33-.8.22-.16.55-.24.99-.24h3.79v-1h-3.39c-.6,0-1.04-.14-1.31-.41-.27-.28-.41-.62-.41-1.04,0-.23.06-.43.16-.6.11-.17.25-.29.42-.35.17-.07.46-.1.86-.1h3.67v-1h-4.01c-.66,0-1.16.16-1.48.47-.32.31-.48.76-.48,1.35,0,.75.34,1.35,1.02,1.82-.32.11-.57.31-.75.59-.18.28-.27.64-.27,1.07,0,.39.08.74.26,1.05.17.31.4.55.69.74h-.82v.9h5.83v-1Z"/>
    <path d="M1108.88,741.02v.64c.35.17.71.47,1.08.89.37.42.69.9.95,1.46h.95c-.11-.31-.28-.66-.51-1.05-.23-.39-.46-.7-.68-.95h6.3v-1h-8.09ZM1116.97,737.09h-3.03c-.53,0-.94-.05-1.22-.16-.28-.11-.5-.28-.65-.52-.15-.24-.22-.5-.22-.78,0-.37.11-.63.33-.8.22-.16.55-.24.99-.24h3.79v-1h-3.39c-.6,0-1.04-.14-1.31-.41-.27-.27-.41-.62-.41-1.03,0-.23.06-.43.16-.6.11-.17.25-.29.42-.35.17-.07.46-.1.86-.1h3.67v-.99h-4.01c-.66,0-1.16.16-1.48.47-.32.31-.48.76-.48,1.35,0,.75.34,1.35,1.02,1.82-.32.11-.57.31-.75.59-.18.28-.27.64-.27,1.07,0,.39.08.74.26,1.05.17.31.4.55.69.74h-.82v.89h5.83v-1Z"/>
    <path d="M1116.98,915.85h-6.86l6.86-2.35v-.97l-6.74-2.36h6.74v-1.04h-8.06v1.45l5.61,1.94c.57.2,1,.34,1.29.44-.26.08-.66.21-1.19.39l-5.71,1.92v1.62h8.06v-1.04ZM1116.98,903.82v-1.04c-.22.13-.46.21-.7.25-.24.04-.82.06-1.74.06h-1.32c-.44,0-.74.02-.91.05-.27.06-.49.16-.67.31-.17.15-.33.38-.44.69-.12.31-.17.72-.17,1.23s.07.95.21,1.34c.14.39.33.68.59.88.25.21.59.35,1,.44l.13-.98c-.42-.11-.7-.27-.87-.49-.16-.22-.24-.57-.24-1.04,0-.5.11-.88.34-1.14.16-.19.45-.28.85-.28.04,0,.12,0,.26,0,.13.38.25.97.34,1.78.05.4.1.69.15.89.08.26.18.5.33.72.14.21.33.38.57.51.23.13.5.2.78.2.49,0,.89-.18,1.2-.52.31-.35.47-.85.47-1.49,0-.39-.07-.76-.19-1.1-.13-.34-.35-.7-.66-1.07.27-.03.52-.1.72-.2M1114.41,904.1c.44,0,.77.06.99.16.29.14.52.36.69.66.16.3.25.64.25,1.03s-.09.68-.26.88c-.18.2-.4.3-.66.3-.17,0-.33-.05-.47-.14-.14-.09-.25-.22-.32-.39-.07-.17-.14-.46-.2-.87-.1-.72-.22-1.27-.37-1.63h.36ZM1110.35,906.19c.2-.2.29-.43.29-.71s-.09-.5-.29-.7c-.19-.2-.43-.29-.71-.29s-.52.1-.71.29c-.2.2-.29.43-.29.7s.09.5.29.7c.2.2.43.3.69.3.29,0,.54-.1.73-.29M1109.21,905.89c-.12-.12-.17-.26-.17-.41s.06-.3.17-.42c.12-.11.26-.17.43-.17s.3.06.42.18c.12.12.18.25.18.42s-.06.29-.18.41c-.12.12-.26.18-.43.18-.16,0-.3-.06-.42-.18"/>
    <rect x="1108.92" y="900.48" width="8.06" height="1"/>
    <path d="M1108.88,892.23v.64c.35.18.71.47,1.08.89.37.42.68.91.94,1.47h.96c-.12-.31-.29-.66-.51-1.05-.23-.39-.46-.71-.69-.95h6.31v-1h-8.09ZM1111.14,889.03h1.13v-1.14h-1.13v1.14ZM1115.85,889.03h1.13v-1.14h-1.13v1.14Z"/>
    <path d="M1116.5,885.74c.41-.47.61-1.07.61-1.81,0-.9-.33-1.61-.98-2.14-.53-.43-1.16-.64-1.89-.64s-1.39.24-1.88.73c-.49.49-.73,1.09-.73,1.8,0,.54.17,1.05.51,1.54l-2.17-.44v-3.25h-.94v4.05l4.14.79.12-.94c-.23-.15-.42-.35-.56-.61-.14-.26-.22-.55-.22-.87,0-.52.16-.94.49-1.26.33-.32.77-.48,1.33-.48.59,0,1.07.17,1.43.5.36.33.54.74.54,1.22,0,.4-.13.74-.38,1.03-.26.28-.64.46-1.14.54l.09,1.05c.68-.07,1.22-.34,1.63-.8M1116.28,879.33c.56-.45.83-1.06.83-1.85,0-.6-.16-1.09-.48-1.48-.31-.39-.76-.68-1.35-.88-.58-.2-1.34-.3-2.29-.3-.8,0-1.43.06-1.9.18-.47.12-.87.29-1.2.51-.33.21-.58.49-.76.82-.18.33-.26.71-.26,1.15,0,.59.16,1.08.47,1.47.31.39.76.68,1.34.88.58.2,1.35.3,2.3.3,1.51,0,2.6-.27,3.28-.81M1110.28,878.59c-.39-.27-.58-.64-.58-1.1s.22-.86.65-1.17,1.32-.47,2.64-.47,2.2.15,2.64.47c.44.31.66.7.66,1.16s-.22.84-.66,1.16c-.44.31-1.32.47-2.64.47s-2.23-.17-2.72-.51"/>
    <polygon class="st13" points="1116.97 528.9 1094.36 517.76 1101.11 503.25 1124.06 514.39 1116.97 528.9"/>
    <polygon points="1114.22 523.15 1102.88 517.66 1117.91 515.54 1118.86 513.57 1104.42 506.58 1103.53 508.42 1114.87 513.91 1099.85 516.03 1098.89 518 1113.33 524.99 1114.22 523.15"/>
    <path d="M1116.48,587.02c.42-.47.64-1.07.64-1.78,0-.79-.25-1.45-.73-1.97-.49-.52-1.09-.77-1.79-.77-.52,0-.95.13-1.3.4-.34.27-.57.64-.68,1.12-.17-.37-.4-.65-.68-.84-.29-.19-.61-.28-.95-.28-.36,0-.71.1-1.04.3-.33.2-.59.49-.77.86-.19.37-.28.78-.28,1.22,0,.64.18,1.18.55,1.62.36.43.88.71,1.54.83l.17-1c-.48-.07-.84-.24-1.09-.5s-.36-.58-.36-.97.12-.71.36-.96c.24-.25.54-.37.9-.37.46,0,.79.17,1.02.51.22.34.33.72.33,1.15,0,.04,0,.09-.01.16l.87.11c-.07-.28-.11-.52-.11-.7,0-.47.14-.85.44-1.15.29-.3.67-.45,1.12-.45s.87.16,1.2.48c.32.33.48.72.48,1.19,0,.4-.12.73-.37,1.01-.25.27-.65.47-1.21.58l.13,1c.67-.07,1.22-.34,1.64-.8M1116.97,580.48h-3.03c-.53,0-.94-.05-1.22-.16-.28-.1-.5-.28-.65-.52-.15-.24-.22-.5-.22-.78,0-.37.11-.63.33-.8.22-.16.55-.24.99-.24h3.79v-1h-3.39c-.6,0-1.04-.14-1.31-.41-.27-.27-.41-.62-.41-1.03,0-.23.06-.43.16-.6.11-.17.25-.29.42-.35.17-.07.46-.1.86-.1h3.67v-.99h-4.01c-.66,0-1.16.16-1.48.47-.32.31-.48.76-.48,1.35,0,.75.34,1.35,1.02,1.82-.32.11-.57.31-.75.59-.18.28-.27.64-.27,1.07,0,.39.08.74.26,1.05.17.31.4.55.69.74h-.82v.89h5.83v-1Z"/>
    <rect class="st13" x="34.52" y="1154.34" width="18.9" height="102.27"/>
    <path d="M37.97,1250.33v.95c.52.26,1.05.7,1.61,1.32s1.02,1.34,1.41,2.17h1.43c-.17-.46-.42-.98-.76-1.56-.34-.58-.68-1.05-1.02-1.4h9.41v-1.48h-12.08ZM48.37,1245.62h1.68v-1.69h-1.68v1.69ZM48.35,1240.97c.64-.42,1.11-1,1.43-1.74.32-.74.48-1.66.48-2.74,0-.86-.16-1.63-.47-2.33-.31-.69-.76-1.22-1.32-1.59-.56-.36-1.17-.55-1.81-.55s-1.21.17-1.71.5c-.49.33-.9.85-1.23,1.56-.22.48-.48,1.37-.77,2.67-.29,1.3-.58,2.1-.86,2.41-.28.31-.64.47-1.07.47-.5,0-.92-.22-1.28-.66-.35-.44-.53-1.15-.53-2.11s.2-1.63.58-2.1c.39-.47.96-.75,1.72-.83l-.12-1.53c-.7.03-1.33.22-1.89.59-.56.37-.98.89-1.27,1.57-.29.68-.43,1.47-.43,2.37,0,.81.13,1.55.41,2.21.27.66.68,1.17,1.2,1.51.53.35,1.09.52,1.7.52.55,0,1.05-.14,1.5-.42.45-.28.82-.71,1.12-1.29.24-.45.49-1.22.75-2.33.27-1.11.46-1.82.59-2.15.19-.5.43-.87.71-1.09.28-.22.61-.33.99-.33s.71.12,1.03.34c.31.23.56.57.74,1.04.18.47.27,1,.27,1.61,0,.69-.12,1.3-.36,1.85-.24.55-.55.95-.93,1.21-.38.26-.88.43-1.48.5l.13,1.5c.81-.02,1.53-.24,2.16-.66M50.05,1223.95v-1.55c-.33.19-.68.31-1.05.37-.36.07-1.23.1-2.6.1h-1.97c-.66,0-1.11.03-1.36.07-.4.09-.74.24-1.01.46-.26.22-.48.56-.66,1.03-.18.46-.26,1.07-.26,1.82s.1,1.41.31,1.98c.21.57.5,1.01.88,1.31.38.3.88.52,1.5.65l.2-1.45c-.62-.16-1.05-.4-1.29-.73-.24-.33-.36-.85-.36-1.55,0-.74.17-1.31.5-1.68.25-.28.67-.42,1.27-.42.05,0,.18,0,.38,0,.2.56.37,1.45.51,2.64.07.59.14,1.03.22,1.32.11.39.27.75.48,1.07.21.31.5.57.85.76.35.19.74.29,1.17.29.73,0,1.33-.26,1.79-.77.47-.52.7-1.25.7-2.21,0-.58-.09-1.12-.29-1.63-.19-.51-.52-1.04-.98-1.59.41-.04.77-.14,1.07-.3M46.22,1224.37c.65,0,1.14.08,1.47.24.43.21.77.53,1.02.98.25.44.37.95.37,1.52s-.13,1.01-.39,1.31c-.26.3-.59.45-.98.45-.26,0-.49-.07-.7-.21-.21-.14-.37-.33-.48-.59-.11-.25-.21-.68-.3-1.29-.15-1.07-.34-1.88-.56-2.42h.54ZM38.02,1220.53h12.03v-1.48h-12.03v1.48ZM41.34,1216.26h1.68v-1.69h-1.68v1.69ZM48.37,1216.26h1.68v-1.69h-1.68v1.69ZM38.77,1200.95c-.53.61-.8,1.38-.8,2.33,0,1.27.46,2.29,1.38,3.04,1.05.86,2.75,1.29,5.07,1.29,2.08,0,3.57-.39,4.47-1.17.9-.78,1.36-1.79,1.36-3.02,0-.72-.17-1.37-.52-1.94-.35-.57-.84-1.02-1.49-1.35-.65-.32-1.35-.49-2.11-.49-1.15,0-2.08.35-2.81,1.04-.73.69-1.09,1.53-1.09,2.52,0,.57.13,1.11.39,1.62.27.52.67.95,1.21,1.31-1.2-.01-2.13-.15-2.78-.42-.65-.27-1.14-.64-1.48-1.11-.26-.35-.39-.77-.39-1.24,0-.59.21-1.08.63-1.48.26-.24.68-.43,1.26-.56l-.11-1.47c-.94.12-1.67.48-2.2,1.09M44.27,1205.21c-.48-.47-.72-1.04-.72-1.7s.24-1.24.72-1.68c.48-.44,1.13-.67,1.96-.67s1.55.23,2.05.68c.5.45.76.99.76,1.61,0,.43-.12.84-.37,1.22-.24.39-.6.69-1.06.91-.47.22-.95.32-1.46.32-.77,0-1.4-.23-1.88-.7M48.37,1197.26h1.68v-1.69h-1.68v1.69ZM50.05,1188.19c0-.77-.07-1.42-.2-1.94-.13-.53-.33-.97-.59-1.32-.26-.35-.64-.65-1.12-.89-.49-.24-1.01-.36-1.57-.36-.7,0-1.31.2-1.82.59-.51.39-.88.95-1.09,1.68-.28-.56-.64-.99-1.1-1.26-.46-.28-.94-.42-1.45-.42-.55,0-1.08.16-1.59.47-.51.32-.88.75-1.13,1.31-.24.56-.36,1.29-.36,2.22v4.52h12.03v-4.6ZM39.44,1191.19v-2.41c0-.87.06-1.48.17-1.84.11-.35.32-.63.62-.82.3-.19.65-.29,1.05-.29.42,0,.77.1,1.05.31.28.21.48.51.6.92.09.31.14.82.14,1.52v2.61h-3.63ZM44.5,1191.19v-2.79c0-.77.07-1.35.2-1.77.13-.41.37-.73.7-.96.33-.23.72-.35,1.17-.35.38,0,.72.08,1.01.24.29.16.52.37.67.61.16.25.26.56.33.92.04.21.06.57.06,1.08v3h-4.13ZM48.37,1181.17h1.68v-1.69h-1.68v1.69ZM37.97,1171.66v.95c.52.26,1.05.7,1.61,1.32s1.02,1.35,1.41,2.17h1.43c-.17-.46-.42-.98-.76-1.56-.34-.58-.68-1.04-1.02-1.4h9.41v-1.48h-12.08ZM48.37,1166.95h1.68v-1.69h-1.68v1.69ZM49.32,1161.81c.63-.7.94-1.58.94-2.64,0-1.17-.37-2.15-1.1-2.91-.73-.77-1.62-1.15-2.67-1.15-.77,0-1.42.2-1.94.59-.52.39-.86.95-1.02,1.66-.25-.55-.59-.96-1.01-1.24-.43-.28-.9-.42-1.42-.42-.55,0-1.06.15-1.55.44-.49.29-.87.72-1.15,1.27-.28.56-.42,1.16-.42,1.82,0,.95.27,1.75.82,2.4.54.64,1.31,1.05,2.3,1.23l.26-1.48c-.72-.11-1.26-.36-1.63-.74-.36-.38-.54-.87-.54-1.44s.18-1.06.53-1.42c.35-.37.8-.55,1.34-.55.68,0,1.19.25,1.52.76.33.5.49,1.07.49,1.7,0,.06,0,.14-.02.24l1.3.16c-.11-.42-.17-.76-.17-1.04,0-.68.22-1.25.66-1.7.44-.44,1-.66,1.68-.66s1.3.24,1.78.72c.48.48.72,1.07.72,1.77,0,.59-.19,1.08-.55,1.49-.37.41-.97.7-1.81.87l.2,1.48c1-.1,1.82-.5,2.45-1.2"/>
    <rect class="st13" x="58.82" y="1154.34" width="18.9" height="102.27"/>
    <path d="M72.93,1254.04c-.27-.17-.53-.38-.8-.62-.27-.26-.77-.82-1.51-1.71-.9-1.06-1.6-1.83-2.12-2.28-.51-.46-1-.78-1.47-.98-.46-.2-.94-.29-1.42-.29-.94,0-1.74.34-2.38,1.01-.64.67-.96,1.59-.96,2.75s.3,2.06.89,2.74c.59.68,1.46,1.07,2.59,1.18l.16-1.52c-.76,0-1.35-.22-1.77-.65-.43-.43-.64-1-.64-1.71,0-.68.2-1.22.6-1.64.4-.42.89-.63,1.48-.63s1.15.23,1.78.69c.63.46,1.48,1.35,2.55,2.66.69.84,1.3,1.49,1.82,1.93.53.45,1.06.77,1.6.97.33.13.67.19,1.02.18v-7.98h-1.42v5.92ZM72.67,1245.62h1.68v-1.69h-1.68v1.69ZM72.65,1240.97c.64-.42,1.11-1,1.43-1.74.31-.74.48-1.66.48-2.74,0-.86-.16-1.63-.47-2.33-.31-.69-.76-1.22-1.32-1.59-.56-.36-1.17-.55-1.81-.55s-1.21.17-1.71.5c-.49.33-.9.85-1.23,1.56-.22.48-.48,1.37-.77,2.67-.29,1.3-.58,2.1-.86,2.41-.28.31-.64.47-1.07.47-.5,0-.92-.22-1.28-.66-.35-.44-.53-1.15-.53-2.11s.2-1.63.58-2.1c.39-.47.96-.75,1.72-.83l-.11-1.53c-.71.03-1.34.22-1.89.59-.56.37-.98.89-1.27,1.57-.29.68-.43,1.47-.43,2.37,0,.81.14,1.55.41,2.21.27.66.68,1.17,1.2,1.51.53.35,1.09.52,1.7.52.55,0,1.05-.14,1.5-.42.45-.28.82-.71,1.12-1.29.24-.45.49-1.22.75-2.33.27-1.11.46-1.82.59-2.15.19-.5.43-.87.71-1.09.28-.22.61-.33.99-.33s.71.12,1.03.34c.31.23.56.57.74,1.04.18.47.27,1,.27,1.61,0,.69-.12,1.3-.36,1.85-.24.55-.55.95-.93,1.21-.38.26-.88.43-1.48.5l.13,1.5c.8-.02,1.52-.24,2.16-.66M74.35,1223.95v-1.55c-.33.19-.68.31-1.05.37-.36.07-1.23.1-2.6.1h-1.97c-.66,0-1.11.03-1.36.07-.41.09-.74.24-1.01.46-.26.22-.48.56-.66,1.03-.17.46-.26,1.07-.26,1.82s.1,1.41.31,1.98c.21.57.5,1.01.88,1.31.38.3.88.52,1.5.65l.2-1.45c-.62-.16-1.05-.4-1.29-.73-.24-.33-.36-.85-.36-1.55,0-.74.17-1.31.5-1.68.25-.28.67-.42,1.27-.42.05,0,.18,0,.38,0,.2.56.37,1.45.51,2.64.07.59.14,1.03.22,1.32.11.39.27.75.48,1.07.21.31.5.57.85.76.35.19.74.29,1.17.29.73,0,1.33-.26,1.8-.77.46-.52.7-1.25.7-2.21,0-.58-.1-1.12-.29-1.63s-.52-1.04-.98-1.59c.41-.04.77-.14,1.07-.3M70.52,1224.37c.65,0,1.14.08,1.47.24.43.21.77.53,1.02.98.25.44.37.95.37,1.52s-.13,1.01-.39,1.31c-.26.3-.59.45-.98.45-.26,0-.49-.07-.7-.21-.21-.14-.37-.33-.48-.59-.11-.25-.21-.68-.29-1.29-.15-1.07-.34-1.88-.56-2.42h.54ZM62.33,1220.53h12.02v-1.48h-12.02v1.48ZM65.64,1216.26h1.68v-1.69h-1.68v1.69ZM72.67,1216.26h1.68v-1.69h-1.68v1.69ZM63.07,1200.95c-.53.61-.8,1.38-.8,2.33,0,1.27.46,2.29,1.38,3.04,1.05.86,2.75,1.29,5.07,1.29,2.08,0,3.57-.39,4.47-1.17.9-.78,1.36-1.79,1.36-3.02,0-.72-.17-1.37-.52-1.94-.35-.57-.84-1.02-1.49-1.35-.65-.32-1.35-.49-2.11-.49-1.15,0-2.08.35-2.81,1.04-.73.69-1.09,1.53-1.09,2.52,0,.57.13,1.11.39,1.62.27.52.67.95,1.21,1.31-1.2-.01-2.13-.15-2.78-.42-.65-.27-1.14-.64-1.48-1.11-.26-.35-.39-.77-.39-1.24,0-.59.21-1.08.63-1.48.26-.24.68-.43,1.26-.56l-.12-1.47c-.93.12-1.67.48-2.2,1.09M68.57,1205.21c-.48-.47-.72-1.04-.72-1.7s.24-1.24.72-1.68c.48-.44,1.14-.67,1.97-.67s1.55.23,2.05.68c.5.45.76.99.76,1.61,0,.43-.12.84-.37,1.22-.24.39-.6.69-1.06.91-.47.22-.95.32-1.46.32-.78,0-1.41-.23-1.89-.7M72.67,1197.26h1.68v-1.69h-1.68v1.69ZM74.35,1188.19c0-.77-.07-1.42-.2-1.94-.13-.53-.33-.97-.59-1.32-.26-.35-.64-.65-1.12-.89-.49-.24-1.01-.36-1.57-.36-.7,0-1.3.2-1.82.59s-.88.95-1.09,1.68c-.28-.56-.64-.99-1.1-1.26-.46-.28-.94-.42-1.45-.42-.55,0-1.08.16-1.59.47-.51.32-.88.75-1.13,1.31-.24.56-.36,1.29-.36,2.22v4.52h12.02v-4.6ZM63.74,1191.19v-2.41c0-.87.06-1.48.17-1.84.11-.35.32-.63.62-.82.3-.19.65-.29,1.05-.29.42,0,.77.1,1.05.31.28.21.48.51.6.92.09.31.14.82.14,1.52v2.61h-3.63ZM68.8,1191.19v-2.79c0-.77.07-1.35.2-1.77.13-.41.37-.73.7-.96.33-.23.72-.35,1.17-.35.38,0,.72.08,1.01.24.29.16.52.37.67.61.16.25.26.56.33.92.04.21.06.57.06,1.08v3h-4.13ZM72.67,1181.17h1.68v-1.69h-1.68v1.69ZM72.93,1175.37c-.27-.17-.53-.38-.8-.62-.27-.25-.77-.82-1.51-1.71-.9-1.06-1.6-1.82-2.12-2.28-.51-.46-1-.78-1.47-.98-.46-.2-.94-.29-1.42-.29-.94,0-1.74.34-2.38,1.01-.64.67-.96,1.59-.96,2.75s.3,2.06.89,2.74c.59.68,1.46,1.08,2.59,1.18l.16-1.52c-.76,0-1.35-.22-1.77-.65-.43-.43-.64-1-.64-1.71,0-.68.2-1.22.6-1.64.4-.42.89-.63,1.48-.63s1.15.23,1.78.69c.63.46,1.48,1.35,2.55,2.66.69.84,1.3,1.49,1.82,1.94.53.45,1.06.77,1.6.97.33.13.67.18,1.02.17v-7.98h-1.42v5.92ZM72.67,1166.95h1.68v-1.69h-1.68v1.69ZM73.62,1161.81c.63-.7.94-1.58.94-2.64,0-1.17-.37-2.15-1.1-2.91-.73-.77-1.62-1.15-2.67-1.15-.78,0-1.43.2-1.94.59-.51.39-.86.95-1.02,1.66-.25-.55-.59-.96-1.02-1.24-.42-.28-.9-.42-1.42-.42-.55,0-1.06.15-1.55.44-.49.29-.87.72-1.15,1.27-.28.56-.42,1.16-.42,1.82,0,.95.27,1.75.82,2.4.54.64,1.31,1.05,2.3,1.23l.26-1.48c-.72-.11-1.26-.36-1.63-.74-.36-.38-.54-.87-.54-1.44s.18-1.06.53-1.42c.35-.37.8-.55,1.34-.55.68,0,1.19.25,1.52.76.33.5.49,1.07.49,1.7,0,.06,0,.14-.02.24l1.3.16c-.11-.42-.17-.76-.17-1.04,0-.68.22-1.25.66-1.7.44-.44,1-.66,1.68-.66.71,0,1.31.24,1.79.72.48.48.72,1.07.72,1.77,0,.59-.19,1.08-.55,1.49-.37.41-.97.7-1.81.87l.2,1.48c1-.1,1.82-.5,2.45-1.2"/>
    <rect class="st13" x="82.45" y="1154.34" width="18.9" height="102.27"/>
    <path d="M97.25,1254.7c.63-.7.94-1.58.94-2.64,0-1.17-.36-2.15-1.1-2.91-.73-.77-1.62-1.15-2.67-1.15-.78,0-1.43.2-1.94.59-.51.39-.86.95-1.02,1.66-.25-.55-.59-.96-1.02-1.24-.43-.28-.9-.42-1.42-.42s-1.06.15-1.55.44-.87.72-1.15,1.27c-.28.56-.42,1.16-.42,1.82,0,.95.27,1.75.82,2.4.54.64,1.31,1.05,2.3,1.24l.26-1.48c-.72-.11-1.26-.36-1.63-.74-.36-.38-.54-.86-.54-1.44s.18-1.06.53-1.42c.35-.37.8-.55,1.34-.55.68,0,1.19.25,1.52.76.33.51.49,1.07.49,1.7,0,.06,0,.14-.02.24l1.3.16c-.11-.42-.17-.76-.17-1.04,0-.69.22-1.25.66-1.69.44-.45,1-.67,1.68-.67.71,0,1.31.24,1.79.72.48.48.72,1.07.72,1.77,0,.58-.19,1.08-.55,1.49-.37.41-.97.7-1.81.87l.2,1.48c1-.1,1.82-.5,2.45-1.2M96.3,1245.62h1.68v-1.69h-1.68v1.69ZM96.27,1240.97c.64-.42,1.11-1,1.43-1.74.31-.74.48-1.66.48-2.74,0-.86-.16-1.63-.47-2.33-.31-.69-.76-1.22-1.32-1.59-.56-.36-1.17-.55-1.81-.55s-1.21.17-1.71.5c-.49.33-.9.85-1.23,1.56-.22.48-.48,1.37-.77,2.67-.29,1.3-.58,2.1-.86,2.41-.28.31-.64.47-1.07.47-.5,0-.92-.22-1.28-.66-.35-.44-.53-1.15-.53-2.11s.2-1.63.58-2.1c.39-.47.96-.75,1.72-.83l-.11-1.53c-.71.03-1.34.22-1.89.59-.56.37-.98.89-1.27,1.57-.29.68-.43,1.47-.43,2.37,0,.81.14,1.55.41,2.21.27.66.67,1.17,1.2,1.51.53.35,1.09.52,1.7.52.55,0,1.05-.14,1.5-.42.45-.28.82-.71,1.12-1.29.24-.45.49-1.22.75-2.33.26-1.11.46-1.82.59-2.15.19-.5.43-.87.71-1.09.28-.22.61-.33.99-.33s.71.12,1.03.34c.31.23.56.57.74,1.04.18.47.27,1,.27,1.61,0,.69-.12,1.3-.36,1.85-.24.55-.55.95-.93,1.21-.38.26-.88.43-1.48.5l.13,1.5c.8-.02,1.52-.24,2.16-.66M97.98,1223.95v-1.55c-.34.19-.69.31-1.05.37-.36.07-1.23.1-2.61.1h-1.97c-.66,0-1.11.03-1.36.07-.4.09-.74.24-1,.46-.27.22-.49.56-.66,1.03-.17.46-.26,1.07-.26,1.82s.1,1.41.31,1.98c.21.57.5,1.01.88,1.31.38.3.88.52,1.5.65l.2-1.45c-.62-.16-1.05-.4-1.29-.73-.24-.33-.36-.85-.36-1.55,0-.74.16-1.31.5-1.68.24-.28.67-.42,1.27-.42.05,0,.18,0,.39,0,.2.56.36,1.45.51,2.64.07.59.14,1.03.22,1.32.11.39.27.75.48,1.07.21.31.5.57.85.76.35.19.74.29,1.17.29.73,0,1.33-.26,1.8-.77.46-.52.7-1.25.7-2.21,0-.58-.1-1.12-.29-1.63s-.52-1.04-.98-1.59c.41-.04.77-.14,1.08-.3M94.15,1224.37c.65,0,1.14.08,1.47.24.43.21.77.53,1.02.98.25.44.37.95.37,1.52s-.13,1.01-.39,1.31c-.26.3-.59.45-.98.45-.26,0-.49-.07-.7-.21-.21-.14-.37-.33-.48-.59-.11-.25-.21-.68-.29-1.29-.15-1.07-.34-1.88-.56-2.42h.54ZM85.95,1220.53h12.03v-1.48h-12.03v1.48ZM89.27,1216.26h1.68v-1.69h-1.68v1.69ZM96.3,1216.26h1.68v-1.69h-1.68v1.69ZM86.7,1200.95c-.53.61-.8,1.38-.8,2.33,0,1.27.46,2.29,1.38,3.04,1.06.86,2.75,1.29,5.07,1.29,2.08,0,3.57-.39,4.47-1.17.9-.78,1.36-1.79,1.36-3.02,0-.72-.17-1.37-.51-1.94-.35-.57-.84-1.02-1.49-1.35-.65-.32-1.35-.49-2.11-.49-1.15,0-2.08.35-2.81,1.04-.73.69-1.09,1.53-1.09,2.52,0,.57.13,1.11.39,1.62.26.52.66.95,1.2,1.31-1.2-.01-2.13-.15-2.78-.42-.65-.27-1.14-.64-1.48-1.11-.26-.35-.39-.77-.39-1.24,0-.59.21-1.08.63-1.48.26-.24.68-.43,1.26-.56l-.12-1.47c-.93.12-1.67.48-2.2,1.09M92.2,1205.21c-.48-.47-.72-1.04-.72-1.7s.24-1.24.72-1.68c.48-.44,1.14-.67,1.97-.67s1.55.23,2.05.68c.51.45.76.99.76,1.61,0,.43-.12.84-.37,1.22-.24.39-.59.69-1.06.91-.46.22-.95.32-1.46.32-.78,0-1.41-.23-1.89-.7M96.3,1197.26h1.68v-1.69h-1.68v1.69ZM97.98,1188.19c0-.77-.07-1.42-.21-1.94-.13-.53-.33-.97-.59-1.32-.26-.35-.64-.65-1.12-.89-.49-.24-1.01-.36-1.57-.36-.7,0-1.3.2-1.82.59-.51.39-.88.95-1.09,1.68-.28-.56-.64-.99-1.1-1.26-.46-.28-.94-.42-1.45-.42-.55,0-1.08.16-1.59.47-.51.32-.88.75-1.12,1.31-.24.56-.36,1.29-.36,2.22v4.52h12.03v-4.6ZM87.37,1191.19v-2.41c0-.87.06-1.48.17-1.84.11-.35.32-.63.62-.82.3-.19.65-.29,1.05-.29.42,0,.77.1,1.05.31.28.21.48.51.6.92.09.31.14.82.14,1.52v2.61h-3.63ZM92.42,1191.19v-2.79c0-.77.07-1.35.2-1.77.14-.41.37-.73.7-.96.33-.23.72-.35,1.17-.35.39,0,.72.08,1.02.24.29.16.51.37.67.61.16.25.26.56.33.92.04.21.06.57.06,1.08v3h-4.13ZM96.3,1181.17h1.68v-1.69h-1.68v1.69ZM97.25,1176.03c.63-.7.94-1.58.94-2.64,0-1.17-.36-2.15-1.1-2.91-.73-.77-1.62-1.15-2.67-1.15-.78,0-1.43.2-1.94.59-.51.39-.86.95-1.02,1.66-.25-.55-.59-.96-1.02-1.24-.43-.28-.9-.42-1.42-.42s-1.06.15-1.55.44c-.49.29-.87.72-1.15,1.27-.28.56-.42,1.16-.42,1.82,0,.96.27,1.75.82,2.4.54.64,1.31,1.05,2.3,1.23l.26-1.48c-.72-.11-1.26-.36-1.63-.74-.36-.38-.54-.87-.54-1.44s.18-1.06.53-1.42c.35-.37.8-.55,1.34-.55.68,0,1.19.25,1.52.76.33.51.49,1.07.49,1.7,0,.06,0,.14-.02.24l1.3.16c-.11-.42-.17-.76-.17-1.04,0-.69.22-1.25.66-1.7.44-.44,1-.66,1.68-.66.71,0,1.31.24,1.79.72.48.48.72,1.07.72,1.76,0,.59-.19,1.09-.55,1.49-.37.41-.97.7-1.81.87l.2,1.48c1-.1,1.82-.5,2.45-1.2M96.3,1166.95h1.68v-1.69h-1.68v1.69ZM97.25,1161.81c.63-.7.94-1.58.94-2.64,0-1.17-.36-2.15-1.1-2.91-.73-.77-1.62-1.15-2.67-1.15-.78,0-1.43.2-1.94.59-.51.39-.86.95-1.02,1.66-.25-.55-.59-.96-1.02-1.24-.43-.28-.9-.42-1.42-.42s-1.06.15-1.55.44c-.49.29-.87.72-1.15,1.27-.28.56-.42,1.16-.42,1.82,0,.95.27,1.75.82,2.4.54.64,1.31,1.05,2.3,1.23l.26-1.48c-.72-.11-1.26-.36-1.63-.74-.36-.38-.54-.87-.54-1.44s.18-1.06.53-1.42c.35-.37.8-.55,1.34-.55.68,0,1.19.25,1.52.76.33.5.49,1.07.49,1.7,0,.06,0,.14-.02.24l1.3.16c-.11-.42-.17-.76-.17-1.04,0-.68.22-1.25.66-1.7.44-.44,1-.66,1.68-.66.71,0,1.31.24,1.79.72.48.48.72,1.07.72,1.77,0,.59-.19,1.08-.55,1.49-.37.41-.97.7-1.81.87l.2,1.48c1-.1,1.82-.5,2.45-1.2"/>
    <rect class="st13" x="105.74" y="1154.34" width="18.9" height="102.27"/>
    <path d="M121.27,1249.68h-2.88v-1.63h-1.35v1.63h-7.79v1.21l7.79,5.5h1.35v-5.23h2.88v-1.48ZM117.03,1254.94l-5.42-3.78h5.42v3.78ZM119.58,1245.62h1.68v-1.69h-1.68v1.69ZM119.56,1240.97c.64-.42,1.11-1,1.43-1.74.31-.74.48-1.66.48-2.74,0-.86-.16-1.63-.47-2.33-.31-.69-.76-1.22-1.32-1.59-.56-.36-1.17-.55-1.81-.55s-1.21.17-1.71.5c-.49.33-.9.85-1.23,1.56-.22.48-.48,1.37-.77,2.67-.29,1.3-.58,2.1-.86,2.41-.28.31-.64.47-1.07.47-.5,0-.92-.22-1.28-.66-.35-.44-.53-1.15-.53-2.11s.2-1.63.58-2.1c.39-.47.96-.75,1.72-.83l-.12-1.53c-.7.03-1.33.22-1.89.59-.56.37-.98.89-1.27,1.57-.29.68-.43,1.47-.43,2.37,0,.81.14,1.55.41,2.21.27.66.68,1.17,1.2,1.51.53.35,1.09.52,1.7.52.55,0,1.05-.14,1.5-.42.45-.28.82-.71,1.12-1.29.24-.45.49-1.22.75-2.33.26-1.11.46-1.82.59-2.15.19-.5.43-.87.71-1.09.28-.22.61-.33.99-.33s.71.12,1.03.34c.31.23.56.57.74,1.04.18.47.27,1,.27,1.61,0,.69-.12,1.3-.36,1.85-.24.55-.55.95-.93,1.21-.38.26-.88.43-1.48.5l.13,1.5c.81-.02,1.53-.24,2.16-.66M121.27,1223.95v-1.55c-.33.19-.68.31-1.05.37-.36.07-1.23.1-2.6.1h-1.97c-.66,0-1.11.03-1.36.07-.41.09-.74.24-1.01.46-.26.22-.48.56-.66,1.03-.17.46-.26,1.07-.26,1.82s.1,1.41.31,1.98c.21.57.5,1.01.88,1.31.38.3.88.52,1.5.65l.2-1.45c-.62-.16-1.05-.4-1.29-.73-.24-.33-.36-.85-.36-1.55,0-.74.17-1.31.5-1.68.25-.28.67-.42,1.27-.42.05,0,.18,0,.38,0,.2.56.37,1.45.51,2.64.07.59.14,1.03.22,1.32.11.39.27.75.48,1.07.21.31.5.57.85.76.35.19.74.29,1.17.29.73,0,1.33-.26,1.79-.77.47-.52.7-1.25.7-2.21,0-.58-.1-1.12-.29-1.63s-.52-1.04-.98-1.59c.41-.04.77-.14,1.07-.3M117.44,1224.37c.65,0,1.14.08,1.47.24.43.21.77.53,1.02.98.25.44.37.95.37,1.52s-.13,1.01-.39,1.31c-.26.3-.59.45-.99.45-.25,0-.49-.07-.7-.21-.21-.14-.37-.33-.48-.59-.11-.25-.21-.68-.29-1.29-.15-1.07-.34-1.88-.56-2.42h.54ZM109.24,1220.53h12.03v-1.48h-12.03v1.48ZM112.55,1216.26h1.68v-1.69h-1.68v1.69ZM119.58,1216.26h1.68v-1.69h-1.68v1.69ZM109.99,1200.95c-.53.61-.8,1.38-.8,2.33,0,1.27.46,2.29,1.38,3.04,1.05.86,2.75,1.29,5.07,1.29,2.08,0,3.57-.39,4.47-1.17.9-.78,1.36-1.79,1.36-3.02,0-.72-.17-1.37-.52-1.94-.35-.57-.84-1.02-1.49-1.35-.65-.32-1.35-.49-2.11-.49-1.15,0-2.08.35-2.81,1.04-.73.69-1.09,1.53-1.09,2.52,0,.57.13,1.11.39,1.62.27.52.67.95,1.21,1.31-1.2-.01-2.13-.15-2.78-.42-.65-.27-1.14-.64-1.48-1.11-.26-.35-.39-.77-.39-1.24,0-.59.21-1.08.63-1.48.26-.24.68-.43,1.26-.56l-.11-1.47c-.94.12-1.67.48-2.2,1.09M115.49,1205.21c-.48-.47-.72-1.04-.72-1.7s.24-1.24.72-1.68c.48-.44,1.13-.67,1.97-.67s1.55.23,2.05.68c.5.45.75.99.75,1.61,0,.43-.12.84-.36,1.22-.24.39-.6.69-1.06.91-.47.22-.95.32-1.46.32-.77,0-1.4-.23-1.88-.7M119.58,1197.26h1.68v-1.69h-1.68v1.69ZM121.27,1188.19c0-.77-.07-1.42-.2-1.94-.13-.53-.33-.97-.59-1.32-.26-.35-.64-.65-1.12-.89-.49-.24-1.01-.36-1.57-.36-.7,0-1.31.2-1.82.59-.51.39-.88.95-1.09,1.68-.28-.56-.64-.99-1.1-1.26-.46-.28-.94-.42-1.45-.42-.55,0-1.08.16-1.59.47-.51.32-.88.75-1.13,1.31-.24.56-.36,1.29-.36,2.22v4.52h12.03v-4.6ZM110.66,1191.19v-2.41c0-.87.06-1.48.17-1.84.11-.35.32-.63.62-.82.3-.19.65-.29,1.05-.29.42,0,.77.1,1.05.31.28.21.48.51.6.92.09.31.14.82.14,1.52v2.61h-3.63ZM115.71,1191.19v-2.79c0-.77.07-1.35.2-1.77.13-.41.36-.73.7-.96.33-.23.72-.35,1.17-.35.38,0,.72.08,1.01.24.29.16.52.37.67.61.16.25.26.56.33.92.04.21.06.57.06,1.08v3h-4.13ZM119.58,1181.17h1.68v-1.69h-1.68v1.69ZM121.27,1171.01h-2.88v-1.63h-1.35v1.63h-7.79v1.21l7.79,5.5h1.35v-5.23h2.88v-1.48ZM117.03,1176.26l-5.42-3.77h5.42v3.77ZM119.58,1166.95h1.68v-1.69h-1.68v1.69ZM120.54,1161.81c.63-.7.94-1.58.94-2.64,0-1.17-.36-2.15-1.09-2.91-.73-.77-1.62-1.15-2.67-1.15-.78,0-1.42.2-1.94.59-.52.39-.86.95-1.02,1.66-.25-.55-.59-.96-1.02-1.24-.42-.28-.9-.42-1.42-.42-.55,0-1.06.15-1.55.44-.49.29-.87.72-1.15,1.27-.28.56-.42,1.16-.42,1.82,0,.95.27,1.75.82,2.4.54.64,1.31,1.05,2.3,1.23l.26-1.48c-.72-.11-1.26-.36-1.63-.74-.36-.38-.54-.87-.54-1.44s.18-1.06.53-1.42c.35-.37.8-.55,1.34-.55.68,0,1.19.25,1.52.76.33.5.49,1.07.49,1.7,0,.06,0,.14-.02.24l1.3.16c-.11-.42-.17-.76-.17-1.04,0-.68.22-1.25.66-1.7.44-.44,1-.66,1.68-.66.71,0,1.31.24,1.79.72.48.48.72,1.07.72,1.77,0,.59-.18,1.08-.55,1.49-.37.41-.97.7-1.81.87l.2,1.48c1-.1,1.82-.5,2.45-1.2"/>
    <rect class="st13" x="128.69" y="1154.34" width="18.9" height="102.27"/>
    <path d="M143.51,1254.72c.61-.69.92-1.59.92-2.69,0-1.34-.49-2.39-1.46-3.17-.79-.64-1.73-.95-2.82-.95s-2.08.36-2.81,1.08c-.73.73-1.09,1.61-1.09,2.67,0,.8.25,1.55.76,2.28l-3.23-.65v-4.81h-1.41v6l6.18,1.17.18-1.39c-.35-.22-.62-.52-.84-.91-.21-.38-.33-.81-.33-1.29,0-.77.24-1.39.73-1.87.49-.48,1.15-.71,1.99-.71.89,0,1.6.25,2.14.74.53.49.8,1.1.8,1.81,0,.59-.19,1.1-.57,1.52-.38.42-.95.69-1.7.8l.13,1.55c1.01-.1,1.82-.49,2.44-1.19M142.54,1245.62h1.68v-1.69h-1.68v1.69ZM142.52,1240.97c.64-.42,1.11-1,1.43-1.74.32-.74.48-1.66.48-2.74,0-.86-.16-1.63-.47-2.33-.31-.69-.76-1.22-1.32-1.59-.56-.36-1.17-.55-1.81-.55s-1.21.17-1.71.5c-.49.33-.9.85-1.23,1.56-.22.48-.48,1.37-.77,2.67-.29,1.3-.58,2.1-.86,2.41-.28.31-.64.47-1.07.47-.5,0-.92-.22-1.28-.66-.35-.44-.53-1.15-.53-2.11s.2-1.63.58-2.1c.39-.47.96-.75,1.72-.83l-.12-1.53c-.7.03-1.33.22-1.89.59-.56.37-.98.89-1.26,1.57-.29.68-.43,1.47-.43,2.37,0,.81.13,1.55.41,2.21.27.66.68,1.17,1.2,1.51.53.35,1.09.52,1.7.52.55,0,1.05-.14,1.5-.42.45-.28.82-.71,1.12-1.29.24-.45.49-1.22.75-2.33.26-1.11.46-1.82.59-2.15.19-.5.43-.87.71-1.09.28-.22.61-.33.99-.33s.71.12,1.03.34c.31.23.56.57.74,1.04.18.47.27,1,.27,1.61,0,.69-.12,1.3-.36,1.85-.24.55-.55.95-.93,1.21-.38.26-.88.43-1.48.5l.13,1.5c.81-.02,1.53-.24,2.16-.66M144.22,1223.95v-1.55c-.33.19-.68.31-1.05.37-.36.07-1.23.1-2.6.1h-1.97c-.66,0-1.11.03-1.36.07-.41.09-.74.24-1.01.46-.26.22-.48.56-.66,1.03-.17.46-.26,1.07-.26,1.82s.1,1.41.31,1.98c.21.57.5,1.01.88,1.31.38.3.88.52,1.5.65l.2-1.45c-.62-.16-1.05-.4-1.29-.73-.24-.33-.36-.85-.36-1.55,0-.74.17-1.31.5-1.68.25-.28.67-.42,1.27-.42.05,0,.18,0,.38,0,.2.56.37,1.45.51,2.64.07.59.14,1.03.22,1.32.11.39.27.75.48,1.07.21.31.5.57.85.76.35.19.74.29,1.17.29.73,0,1.33-.26,1.79-.77.47-.52.7-1.25.7-2.21,0-.58-.1-1.12-.29-1.63-.19-.51-.52-1.04-.98-1.59.41-.04.77-.14,1.07-.3M140.39,1224.37c.65,0,1.14.08,1.47.24.43.21.77.53,1.02.98.25.44.37.95.37,1.52s-.13,1.01-.39,1.31c-.26.3-.59.45-.99.45-.25,0-.49-.07-.7-.21-.21-.14-.37-.33-.48-.59-.11-.25-.21-.68-.3-1.29-.15-1.07-.34-1.88-.56-2.42h.54ZM132.19,1220.53h12.03v-1.48h-12.03v1.48ZM135.51,1216.26h1.68v-1.69h-1.68v1.69ZM142.54,1216.26h1.68v-1.69h-1.68v1.69ZM132.94,1200.95c-.53.61-.8,1.38-.8,2.33,0,1.27.46,2.29,1.38,3.04,1.05.86,2.75,1.29,5.07,1.29,2.08,0,3.57-.39,4.47-1.17.9-.78,1.36-1.79,1.36-3.02,0-.72-.17-1.37-.52-1.94-.35-.57-.84-1.02-1.49-1.35-.65-.32-1.35-.49-2.11-.49-1.15,0-2.08.35-2.81,1.04-.73.69-1.09,1.53-1.09,2.52,0,.57.13,1.11.39,1.62.27.52.67.95,1.21,1.31-1.2-.01-2.13-.15-2.78-.42-.65-.27-1.15-.64-1.48-1.11-.26-.35-.39-.77-.39-1.24,0-.59.21-1.08.63-1.48.26-.24.68-.43,1.26-.56l-.11-1.47c-.94.12-1.67.48-2.2,1.09M138.44,1205.21c-.48-.47-.72-1.04-.72-1.7s.24-1.24.72-1.68c.48-.44,1.13-.67,1.97-.67s1.55.23,2.05.68c.5.45.76.99.76,1.61,0,.43-.12.84-.37,1.22-.24.39-.6.69-1.06.91-.47.22-.95.32-1.46.32-.78,0-1.41-.23-1.89-.7M142.54,1197.26h1.68v-1.69h-1.68v1.69ZM144.22,1188.19c0-.77-.07-1.42-.2-1.94-.13-.53-.33-.97-.59-1.32-.26-.35-.64-.65-1.12-.89-.49-.24-1.01-.36-1.57-.36-.7,0-1.31.2-1.82.59-.51.39-.88.95-1.09,1.68-.28-.56-.64-.99-1.1-1.26-.46-.28-.94-.42-1.45-.42-.55,0-1.08.16-1.59.47-.51.32-.88.75-1.13,1.31-.24.56-.36,1.29-.36,2.22v4.52h12.03v-4.6ZM133.61,1191.19v-2.41c0-.87.06-1.48.17-1.84.11-.35.32-.63.62-.82.3-.19.65-.29,1.05-.29.42,0,.77.1,1.05.31.28.21.48.51.6.92.09.31.14.82.14,1.52v2.61h-3.63ZM138.66,1191.19v-2.79c0-.77.07-1.35.2-1.77.13-.41.37-.73.7-.96.33-.23.72-.35,1.17-.35.38,0,.72.08,1.01.24.29.16.52.37.67.61.16.25.26.56.33.92.04.21.06.57.06,1.08v3h-4.13ZM142.54,1181.17h1.68v-1.69h-1.68v1.69ZM143.51,1176.05c.61-.69.92-1.59.92-2.69,0-1.34-.49-2.4-1.46-3.17-.79-.63-1.73-.95-2.82-.95s-2.08.36-2.81,1.08c-.73.73-1.09,1.61-1.09,2.67,0,.8.25,1.56.76,2.28l-3.23-.65v-4.81h-1.41v6l6.18,1.17.18-1.39c-.35-.22-.62-.52-.84-.91-.21-.38-.33-.81-.33-1.29,0-.76.24-1.39.73-1.86.49-.48,1.15-.72,1.99-.72.89,0,1.6.25,2.14.74.53.49.8,1.1.8,1.81,0,.59-.19,1.1-.57,1.52-.38.42-.95.69-1.7.8l.13,1.55c1.01-.1,1.82-.49,2.44-1.19M142.54,1166.95h1.68v-1.69h-1.68v1.69ZM143.49,1161.81c.63-.7.94-1.58.94-2.64,0-1.17-.36-2.15-1.09-2.91-.73-.77-1.62-1.15-2.67-1.15-.78,0-1.42.2-1.94.59-.52.39-.86.95-1.02,1.66-.25-.55-.59-.96-1.01-1.24-.43-.28-.9-.42-1.42-.42-.55,0-1.06.15-1.55.44-.49.29-.87.72-1.15,1.27-.28.56-.42,1.16-.42,1.82,0,.95.27,1.75.82,2.4.54.64,1.31,1.05,2.3,1.23l.26-1.48c-.72-.11-1.26-.36-1.63-.74-.36-.38-.54-.87-.54-1.44s.18-1.06.53-1.42c.35-.37.8-.55,1.34-.55.68,0,1.19.25,1.52.76.33.5.49,1.07.49,1.7,0,.06,0,.14-.02.24l1.3.16c-.11-.42-.17-.76-.17-1.04,0-.68.22-1.25.66-1.7.44-.44,1-.66,1.68-.66s1.3.24,1.78.72c.48.48.72,1.07.72,1.77,0,.59-.19,1.08-.55,1.49-.37.41-.97.7-1.81.87l.2,1.48c1-.1,1.82-.5,2.45-1.2"/>
    <rect class="st13" x="151.98" y="1154.34" width="18.9" height="102.27"/>
    <path d="M156.23,1249.31c-.53.61-.8,1.39-.8,2.33,0,1.27.46,2.29,1.38,3.04,1.05.86,2.75,1.29,5.07,1.29,2.08,0,3.57-.39,4.47-1.17.9-.78,1.36-1.79,1.36-3.02,0-.72-.17-1.37-.52-1.94-.35-.57-.84-1.02-1.49-1.35-.65-.32-1.35-.49-2.11-.49-1.15,0-2.08.35-2.81,1.04-.73.69-1.09,1.53-1.09,2.52,0,.56.13,1.1.39,1.62.26.52.66.95,1.2,1.31-1.2,0-2.13-.15-2.78-.42-.65-.27-1.14-.63-1.48-1.1-.26-.36-.39-.77-.39-1.24,0-.59.21-1.08.63-1.48.26-.24.68-.43,1.26-.56l-.12-1.47c-.94.12-1.67.49-2.2,1.09M161.73,1253.57c-.48-.47-.72-1.03-.72-1.7s.24-1.23.72-1.68c.48-.44,1.14-.67,1.97-.67s1.55.22,2.05.68c.5.45.76.99.76,1.61,0,.43-.12.84-.37,1.22-.24.39-.6.69-1.06.91-.47.22-.95.33-1.46.33-.77,0-1.4-.23-1.88-.7M165.83,1245.62h1.68v-1.69h-1.68v1.69ZM165.81,1240.97c.64-.42,1.11-1,1.43-1.74.32-.74.48-1.66.48-2.74,0-.86-.16-1.63-.47-2.33-.31-.69-.76-1.22-1.32-1.59-.56-.36-1.17-.55-1.81-.55s-1.21.17-1.71.5c-.49.33-.9.85-1.23,1.56-.22.48-.48,1.37-.77,2.67-.29,1.3-.58,2.1-.86,2.41-.28.31-.64.47-1.07.47-.5,0-.92-.22-1.28-.66-.35-.44-.53-1.15-.53-2.11s.2-1.63.58-2.1c.39-.47.96-.75,1.72-.83l-.11-1.53c-.71.03-1.34.22-1.89.59-.56.37-.98.89-1.27,1.57-.29.68-.43,1.47-.43,2.37,0,.81.13,1.55.41,2.21.27.66.68,1.17,1.2,1.51.53.35,1.09.52,1.7.52.55,0,1.05-.14,1.5-.42.45-.28.82-.71,1.12-1.29.24-.45.49-1.22.75-2.33.27-1.11.46-1.82.59-2.15.19-.5.43-.87.71-1.09.28-.22.61-.33.99-.33s.71.12,1.03.34c.31.23.56.57.74,1.04.18.47.27,1,.27,1.61,0,.69-.12,1.3-.36,1.85-.24.55-.55.95-.93,1.21-.38.26-.88.43-1.48.5l.13,1.5c.81-.02,1.53-.24,2.16-.66M167.51,1223.95v-1.55c-.33.19-.68.31-1.05.37-.36.07-1.23.1-2.6.1h-1.97c-.66,0-1.11.03-1.36.07-.4.09-.74.24-1.01.46-.26.22-.48.56-.66,1.03-.17.46-.26,1.07-.26,1.82s.1,1.41.31,1.98c.21.57.5,1.01.88,1.31.38.3.88.52,1.5.65l.2-1.45c-.62-.16-1.05-.4-1.29-.73-.24-.33-.36-.85-.36-1.55,0-.74.17-1.31.5-1.68.25-.28.67-.42,1.27-.42.05,0,.18,0,.38,0,.2.56.37,1.45.51,2.64.07.59.14,1.03.22,1.32.11.39.27.75.48,1.07.21.31.5.57.85.76.35.19.74.29,1.17.29.73,0,1.33-.26,1.79-.77.47-.52.7-1.25.7-2.21,0-.58-.09-1.12-.29-1.63-.19-.51-.52-1.04-.98-1.59.41-.04.77-.14,1.07-.3M163.68,1224.37c.65,0,1.14.08,1.47.24.43.21.77.53,1.02.98.25.44.37.95.37,1.52s-.13,1.01-.39,1.31c-.26.3-.59.45-.98.45-.26,0-.49-.07-.7-.21-.21-.14-.37-.33-.48-.59-.11-.25-.21-.68-.3-1.29-.15-1.07-.34-1.88-.56-2.42h.54ZM155.48,1220.53h12.02v-1.48h-12.02v1.48ZM158.8,1216.26h1.68v-1.69h-1.68v1.69ZM165.83,1216.26h1.68v-1.69h-1.68v1.69ZM156.23,1200.95c-.53.61-.8,1.38-.8,2.33,0,1.27.46,2.29,1.38,3.04,1.05.86,2.75,1.29,5.07,1.29,2.08,0,3.57-.39,4.47-1.17.9-.78,1.36-1.79,1.36-3.02,0-.72-.17-1.37-.52-1.94-.35-.57-.84-1.02-1.49-1.35-.65-.32-1.35-.49-2.11-.49-1.15,0-2.08.35-2.81,1.04-.73.69-1.09,1.53-1.09,2.52,0,.57.13,1.11.39,1.62.26.52.66.95,1.2,1.31-1.2-.01-2.13-.15-2.78-.42-.65-.27-1.14-.64-1.48-1.11-.26-.35-.39-.77-.39-1.24,0-.59.21-1.08.63-1.48.26-.24.68-.43,1.26-.56l-.12-1.47c-.94.12-1.67.48-2.2,1.09M161.73,1205.21c-.48-.47-.72-1.04-.72-1.7s.24-1.24.72-1.68c.48-.44,1.14-.67,1.97-.67s1.55.23,2.05.68c.5.45.76.99.76,1.61,0,.43-.12.84-.37,1.22-.24.39-.6.69-1.06.91-.47.22-.95.32-1.46.32-.77,0-1.4-.23-1.88-.7M165.83,1197.26h1.68v-1.69h-1.68v1.69ZM167.51,1188.19c0-.77-.07-1.42-.2-1.94-.13-.53-.33-.97-.59-1.32-.26-.35-.64-.65-1.12-.89-.49-.24-1.01-.36-1.57-.36-.7,0-1.31.2-1.82.59-.51.39-.88.95-1.09,1.68-.28-.56-.64-.99-1.1-1.26-.46-.28-.94-.42-1.45-.42-.55,0-1.08.16-1.59.47-.51.32-.88.75-1.13,1.31-.24.56-.36,1.29-.36,2.22v4.52h12.02v-4.6ZM156.9,1191.19v-2.41c0-.87.06-1.48.17-1.84.11-.35.32-.63.62-.82.3-.19.65-.29,1.05-.29.42,0,.77.1,1.05.31.28.21.48.51.6.92.09.31.14.82.14,1.52v2.61h-3.63ZM161.95,1191.19v-2.79c0-.77.07-1.35.2-1.77.13-.41.37-.73.7-.96.33-.23.72-.35,1.17-.35.39,0,.72.08,1.01.24.29.16.52.37.67.61.16.25.26.56.33.92.04.21.06.57.06,1.08v3h-4.13ZM165.83,1181.17h1.68v-1.69h-1.68v1.69ZM156.23,1170.64c-.53.61-.8,1.38-.8,2.33,0,1.27.46,2.28,1.38,3.04,1.05.86,2.75,1.29,5.07,1.29,2.08,0,3.57-.39,4.47-1.17.9-.78,1.36-1.79,1.36-3.02,0-.72-.17-1.37-.52-1.94-.35-.57-.84-1.02-1.49-1.35-.65-.32-1.35-.49-2.11-.49-1.15,0-2.08.35-2.81,1.04-.73.69-1.09,1.53-1.09,2.52,0,.56.13,1.1.39,1.62.26.52.66.95,1.2,1.31-1.2-.01-2.13-.15-2.78-.42-.65-.27-1.14-.64-1.48-1.1-.26-.36-.39-.77-.39-1.24,0-.59.21-1.08.63-1.48.26-.24.68-.43,1.26-.56l-.12-1.47c-.94.12-1.67.49-2.2,1.09M161.73,1174.9c-.48-.46-.72-1.03-.72-1.7s.24-1.23.72-1.68c.48-.45,1.14-.67,1.97-.67s1.55.23,2.05.68c.5.45.76.99.76,1.61,0,.43-.12.84-.37,1.23-.24.39-.6.69-1.06.91-.47.22-.95.32-1.46.32-.77,0-1.4-.23-1.88-.7M165.83,1166.95h1.68v-1.69h-1.68v1.69ZM166.78,1161.81c.63-.7.94-1.58.94-2.64,0-1.17-.37-2.15-1.1-2.91-.73-.77-1.62-1.15-2.67-1.15-.77,0-1.42.2-1.94.59-.52.39-.86.95-1.02,1.66-.25-.55-.59-.96-1.02-1.24-.43-.28-.9-.42-1.42-.42-.55,0-1.06.15-1.55.44-.49.29-.87.72-1.15,1.27-.28.56-.42,1.16-.42,1.82,0,.95.27,1.75.82,2.4.54.64,1.31,1.05,2.3,1.23l.26-1.48c-.72-.11-1.26-.36-1.63-.74-.36-.38-.54-.87-.54-1.44s.18-1.06.53-1.42c.35-.37.8-.55,1.34-.55.68,0,1.19.25,1.52.76.33.5.49,1.07.49,1.7,0,.06,0,.14-.02.24l1.3.16c-.11-.42-.17-.76-.17-1.04,0-.68.22-1.25.66-1.7.44-.44,1-.66,1.68-.66s1.3.24,1.78.72c.48.48.72,1.07.72,1.77,0,.59-.19,1.08-.55,1.49-.37.41-.97.7-1.81.87l.2,1.48c1-.1,1.82-.5,2.45-1.2"/>
    <rect class="st13" x="175.27" y="1154.34" width="18.9" height="102.27"/>
    <path d="M180.34,1249.9c.85.75,1.9,1.46,3.15,2.13,1.24.67,2.53,1.18,3.87,1.53,1.34.36,2.48.54,3.43.56v-1.52c-1.2-.08-2.3-.27-3.31-.57-1.43-.41-2.81-.99-4.17-1.75-1.35-.76-2.43-1.52-3.25-2.28h-1.15v7.81h1.42v-5.91ZM189.11,1245.62h1.68v-1.69h-1.68v1.69ZM189.09,1240.97c.64-.42,1.11-1,1.43-1.74.31-.74.48-1.66.48-2.74,0-.86-.16-1.63-.47-2.33-.31-.69-.76-1.22-1.32-1.59-.56-.36-1.17-.55-1.81-.55s-1.21.17-1.71.5c-.49.33-.9.85-1.23,1.56-.22.48-.48,1.37-.77,2.67-.29,1.3-.58,2.1-.86,2.41-.28.31-.64.47-1.07.47-.5,0-.92-.22-1.28-.66-.35-.44-.53-1.15-.53-2.11s.2-1.63.58-2.1c.39-.47.96-.75,1.72-.83l-.12-1.53c-.7.03-1.33.22-1.89.59-.56.37-.98.89-1.26,1.57-.29.68-.43,1.47-.43,2.37,0,.81.14,1.55.41,2.21.27.66.68,1.17,1.2,1.51.53.35,1.09.52,1.7.52.55,0,1.05-.14,1.5-.42.45-.28.82-.71,1.12-1.29.24-.45.49-1.22.75-2.33.26-1.11.46-1.82.59-2.15.19-.5.43-.87.71-1.09.28-.22.61-.33.99-.33s.71.12,1.03.34c.32.23.56.57.75,1.04.18.47.27,1,.27,1.61,0,.69-.12,1.3-.36,1.85-.24.55-.55.95-.93,1.21-.38.26-.88.43-1.48.5l.13,1.5c.81-.02,1.53-.24,2.16-.66M190.8,1223.95v-1.55c-.33.19-.68.31-1.05.37-.36.07-1.23.1-2.6.1h-1.97c-.66,0-1.11.03-1.36.07-.41.09-.74.24-1.01.46-.26.22-.48.56-.66,1.03-.17.46-.26,1.07-.26,1.82s.1,1.41.31,1.98c.21.57.5,1.01.88,1.31.38.3.88.52,1.5.65l.2-1.45c-.62-.16-1.05-.4-1.29-.73-.24-.33-.36-.85-.36-1.55,0-.74.17-1.31.5-1.68.25-.28.67-.42,1.27-.42.05,0,.18,0,.38,0,.2.56.37,1.45.51,2.64.07.59.14,1.03.22,1.32.11.39.27.75.48,1.07.21.31.5.57.85.76.35.19.74.29,1.17.29.73,0,1.33-.26,1.79-.77.47-.52.7-1.25.7-2.21,0-.58-.1-1.12-.29-1.63-.19-.51-.52-1.04-.98-1.59.41-.04.77-.14,1.07-.3M186.97,1224.37c.65,0,1.14.08,1.47.24.43.21.77.53,1.02.98.25.44.37.95.37,1.52s-.13,1.01-.39,1.31c-.26.3-.59.45-.99.45-.25,0-.49-.07-.7-.21-.21-.14-.37-.33-.48-.59-.11-.25-.21-.68-.29-1.29-.15-1.07-.34-1.88-.56-2.42h.54ZM178.77,1220.53h12.03v-1.48h-12.03v1.48ZM182.08,1216.26h1.68v-1.69h-1.68v1.69ZM189.11,1216.26h1.68v-1.69h-1.68v1.69ZM179.52,1200.95c-.53.61-.8,1.38-.8,2.33,0,1.27.46,2.29,1.38,3.04,1.05.86,2.75,1.29,5.07,1.29,2.08,0,3.57-.39,4.47-1.17.9-.78,1.36-1.79,1.36-3.02,0-.72-.17-1.37-.52-1.94-.35-.57-.84-1.02-1.49-1.35-.65-.32-1.35-.49-2.11-.49-1.15,0-2.08.35-2.81,1.04-.73.69-1.09,1.53-1.09,2.52,0,.57.13,1.11.39,1.62.27.52.67.95,1.21,1.31-1.2-.01-2.13-.15-2.78-.42-.65-.27-1.15-.64-1.48-1.11-.26-.35-.39-.77-.39-1.24,0-.59.21-1.08.63-1.48.26-.24.68-.43,1.26-.56l-.11-1.47c-.94.12-1.67.48-2.2,1.09M185.02,1205.21c-.48-.47-.72-1.04-.72-1.7s.24-1.24.72-1.68c.48-.44,1.13-.67,1.97-.67s1.55.23,2.05.68c.51.45.76.99.76,1.61,0,.43-.12.84-.36,1.22-.24.39-.6.69-1.06.91-.47.22-.95.32-1.46.32-.77,0-1.4-.23-1.88-.7M189.11,1197.26h1.68v-1.69h-1.68v1.69ZM190.8,1188.19c0-.77-.07-1.42-.2-1.94-.13-.53-.33-.97-.59-1.32-.26-.35-.64-.65-1.12-.89-.49-.24-1.01-.36-1.57-.36-.7,0-1.31.2-1.82.59-.51.39-.88.95-1.09,1.68-.28-.56-.64-.99-1.1-1.26-.46-.28-.94-.42-1.45-.42-.55,0-1.08.16-1.59.47-.51.32-.88.75-1.13,1.31-.24.56-.36,1.29-.36,2.22v4.52h12.03v-4.6ZM180.19,1191.19v-2.41c0-.87.06-1.48.17-1.84.11-.35.32-.63.62-.82.3-.19.65-.29,1.05-.29.42,0,.77.1,1.05.31.28.21.48.51.6.92.09.31.14.82.14,1.52v2.61h-3.63ZM185.24,1191.19v-2.79c0-.77.07-1.35.2-1.77.13-.41.36-.73.7-.96.33-.23.72-.35,1.17-.35.38,0,.72.08,1.01.24.29.16.52.37.67.61.15.25.26.56.33.92.04.21.06.57.06,1.08v3h-4.13ZM189.11,1181.17h1.68v-1.69h-1.68v1.69ZM180.34,1171.23c.85.75,1.9,1.46,3.15,2.13,1.24.67,2.53,1.18,3.87,1.53,1.34.36,2.48.54,3.43.56v-1.52c-1.2-.08-2.3-.27-3.31-.57-1.43-.41-2.81-1-4.17-1.75-1.35-.75-2.43-1.51-3.25-2.28h-1.15v7.81h1.42v-5.9ZM189.11,1166.95h1.68v-1.69h-1.68v1.69ZM190.07,1161.81c.63-.7.94-1.58.94-2.64,0-1.17-.36-2.15-1.09-2.91-.73-.77-1.62-1.15-2.67-1.15-.78,0-1.42.2-1.94.59-.52.39-.86.95-1.02,1.66-.25-.55-.59-.96-1.02-1.24-.42-.28-.9-.42-1.42-.42-.55,0-1.06.15-1.55.44-.49.29-.87.72-1.15,1.27-.28.56-.42,1.16-.42,1.82,0,.95.27,1.75.82,2.4.54.64,1.31,1.05,2.3,1.23l.27-1.48c-.72-.11-1.26-.36-1.63-.74-.36-.38-.54-.87-.54-1.44s.18-1.06.53-1.42c.35-.37.8-.55,1.34-.55.68,0,1.19.25,1.52.76.33.5.49,1.07.49,1.7,0,.06,0,.14-.02.24l1.3.16c-.11-.42-.17-.76-.17-1.04,0-.68.22-1.25.66-1.7.44-.44,1-.66,1.68-.66.71,0,1.31.24,1.79.72.48.48.72,1.07.72,1.77,0,.59-.18,1.08-.55,1.49-.37.41-.97.7-1.81.87l.2,1.48c1-.1,1.82-.5,2.45-1.2"/>
    <line class="st3" x1="630.6" y1="983.55" x2="749.75" y2="931.57"/>
  </g>
  <line class="st3" x1="446.87" y1="772.42" x2="446.87" y2="836.22"/>
  <polygon class="st13" points="676.25 762.1 676.25 762.51 747.91 762.51 747.91 900.47 748.82 900.92 748.82 762.1 676.25 762.1"/>
  <g class="st4">
    <path class="st13" d="M676.25,865.01v-102.5h71.66v137.96l-15.93-7.88c-3.73-1.85-7.11-3.52-10.17-5.04-1.02-.5-2.02-.99-2.96-1.46-.96-.48-1.87-.93-2.76-1.37-2.66-1.32-5.02-2.48-7.12-3.52-1.41-.69-2.69-1.33-3.86-1.91-.59-.29-1.15-.57-1.69-.83-.54-.27-1.05-.53-1.53-.76-.24-.12-.48-.24-.71-.36-.43-.21-.83-.41-1.22-.6-.45-.22-.88-.44-1.28-.64-.37-.19-.72-.35-1.06-.53-.66-.33-1.24-.61-1.75-.86-.25-.13-.49-.25-.71-.35-.11-.06-.21-.11-.32-.16-.21-.1-.39-.2-.57-.28-.08-.05-.17-.08-.25-.12-.32-.16-.58-.29-.81-.4-.05-.03-.1-.06-.15-.07-.1-.05-.19-.1-.27-.13-.08-.04-.14-.07-.21-.1-.29-.15-.38-.19-.4-.2h-.01s-15.92-7.88-15.92-7.88Z"/>
    <path class="st13" d="M676.25,921.75v-56.74l15.92,7.88h0v28.26c0,1.81,1.47,3.28,3.29,3.28h33.24c1.82,0,3.28-1.47,3.28-3.28v-8.57l15.93,7.89v21.28h-71.66Z"/>
    <polygon class="st13" points="692.18 872.89 692.18 872.89 692.19 872.89 692.18 872.89"/>
    <path class="st13" d="M692.18,901.15v-28.26h.01s.11.05.4.2l.2.1.27.13s.09.05.15.08l.81.4c.08.04.17.07.25.12l.57.28c.1.05.21.1.32.16l.71.35c.52.25,1.09.53,1.75.86l1.06.52c.4.2.83.41,1.28.64l1.22.6c.23.11.47.23.71.36l1.54.76c.53.26,1.1.54,1.69.83l3.86,1.91c2.1,1.04,4.45,2.2,7.11,3.52l2.76,1.37,2.96,1.46c3.06,1.51,6.44,3.19,10.18,5.04v8.56c0,1.81-1.47,3.28-3.29,3.28h-33.24c-1.82,0-3.29-1.47-3.29-3.28"/>
    <path class="st13" d="M692.8,873.19l-.21-.1c.07.03.13.07.21.1"/>
    <path class="st13" d="M693.07,873.32l-.27-.13c.09.04.17.08.27.13"/>
    <path class="st13" d="M694.02,873.8l-.81-.4c.22.11.48.24.81.4"/>
    <path class="st13" d="M694.85,874.2l-.57-.28c.18.08.36.18.57.28"/>
    <path class="st13" d="M695.88,874.72l-.71-.35c.23.11.46.22.71.35"/>
    <path class="st13" d="M698.69,876.11l-1.06-.53c.34.17.68.34,1.06.53"/>
    <path class="st13" d="M701.19,877.34l-1.22-.6c.39.19.79.4,1.22.6"/>
    <path class="st13" d="M703.43,878.46l-1.54-.76c.48.23.99.49,1.54.76"/>
    <path class="st13" d="M708.98,881.2l-3.86-1.91c1.17.58,2.45,1.22,3.86,1.91"/>
    <path class="st13" d="M718.85,886.09l-2.76-1.37c.89.44,1.8.89,2.76,1.37"/>
    <path class="st13" d="M721.81,887.55l-2.96-1.46c.94.47,1.94.95,2.96,1.46"/>
  </g>
  <polyline class="st1" points="747.92 900.47 747.92 921.75 676.25 921.75 676.25 865.01"/>
  <polyline class="st1" points="731.99 892.58 747.91 900.47 748.82 900.92 748.82 762.1 676.25 762.1 676.25 762.51 676.25 865.01 692.18 872.88"/>
  <polyline class="st1" points="716.09 884.72 718.86 886.09 721.81 887.55"/>
  <line class="st1" x1="705.12" y1="879.29" x2="708.98" y2="881.2"/>
  <line class="st1" x1="701.9" y1="877.7" x2="703.43" y2="878.45"/>
  <line class="st1" x1="699.97" y1="876.74" x2="701.19" y2="877.34"/>
  <line class="st1" x1="697.63" y1="875.58" x2="698.69" y2="876.11"/>
  <line class="st1" x1="695.17" y1="874.36" x2="695.88" y2="874.72"/>
  <line class="st1" x1="694.28" y1="873.92" x2="694.85" y2="874.21"/>
  <line class="st1" x1="693.22" y1="873.4" x2="694.02" y2="873.8"/>
  <polyline class="st1" points="692.59 873.09 692.8 873.19 693.07 873.32"/>
  <line class="st1" x1="692.18" y1="872.89" x2="692.19" y2="872.89"/>
  <line class="st1" x1="728.7" y1="904.43" x2="695.47" y2="904.43"/>
  <g class="st7">
    <path class="st1" d="M695.47,904.43c-1.82,0-3.29-1.47-3.29-3.28"/>
    <path class="st1" d="M731.99,901.15c0,1.81-1.47,3.28-3.29,3.28"/>
    <path class="st1" d="M731.99,901.15v-8.56c-3.74-1.85-7.11-3.52-10.18-5.04-1.02-.51-2.01-1-2.96-1.46-.96-.48-1.87-.93-2.76-1.37-2.66-1.32-5.02-2.48-7.11-3.52-1.41-.69-2.69-1.33-3.86-1.91-.59-.29-1.15-.57-1.68-.83-.54-.27-1.05-.52-1.54-.76-.25-.12-.48-.25-.71-.36-.43-.21-.83-.41-1.22-.6-.45-.22-.88-.44-1.28-.64-.37-.19-.72-.35-1.06-.52-.65-.33-1.24-.61-1.75-.86-.25-.13-.49-.24-.71-.35-.11-.06-.21-.11-.32-.16-.21-.1-.4-.2-.57-.28-.08-.05-.17-.08-.25-.12-.32-.16-.58-.29-.81-.4-.05-.03-.1-.06-.15-.08-.1-.05-.19-.09-.27-.13-.08-.04-.14-.07-.21-.1-.29-.15-.38-.19-.4-.2h0s0,0,0,0v28.26"/>
  </g>
  <g class="st5">
    <path class="st13" d="M671.56,990.11c-.01,7.71-.01,15.42-.02,23.12,0,8.89-6.4,16.09-14.31,16.08-7.9,0-14.28-7.21-14.27-16.1,0-7.7,0-15.41,0-23.12,9.53,0,19.06.02,28.59.02"/>
  </g>
  <g class="st6">
    <path class="st3" d="M671.56,990.11c-.01,7.71-.01,15.42-.02,23.12,0,8.89-6.4,16.09-14.31,16.08-7.9,0-14.28-7.21-14.27-16.1,0-7.7,0-15.41,0-23.12,9.53,0,19.06.02,28.59.02Z"/>
  </g>
  <rect class="st13" x="678.19" y="989.56" width="63.89" height="63.21"/>
  <polyline class="st3" points="742.08 989.56 742.08 1052.77 734.51 1052.77"/>
  <line class="st3" x1="742.08" y1="989.56" x2="678.69" y2="989.56"/>
  <line class="st3" x1="678.19" y1="990.6" x2="678.19" y2="1052.22"/>
  <polyline class="st3" points="678.19 990.6 678.19 989.56 678.69 989.56"/>
  <polyline class="st3" points="679.13 1052.77 678.19 1052.77 678.19 1052.22"/>
  <line class="st3" x1="679.13" y1="1052.77" x2="734.51" y2="1052.77"/>
  <line class="st3" x1="710.38" y1="989.56" x2="710.38" y2="1007.12"/>
  <g class="st12">
    <path class="st3" d="M714.23,1007.04c0-2.17-1.76-3.93-3.93-3.93s-3.93,1.76-3.93,3.93,1.76,3.93,3.93,3.93,3.93-1.76,3.93-3.93Z"/>
    <path class="st3" d="M714.23,1007.04c0-2.17-1.76-3.93-3.93-3.93s-3.93,1.76-3.93,3.93,1.76,3.93,3.93,3.93,3.93-1.76,3.93-3.93Z"/>
  </g>
  <g class="st9">
    <path class="st13" d="M715.64,1073.55h26.45v37.12h-26.45c-.58,0-1.06-.35-1.06-.78v-35.7c0-.35.48-.63,1.06-.63M732.21,1074.18h-15.5c-.59,0-1.07.35-1.07.78v34.13c0,.44.48.79,1.07.79h15.5c.58,0,1.06-.35,1.06-.79v-34.13c0-.43-.48-.78-1.06-.78M737.99,1089.92c-1.16,0-2.1.95-2.1,2.1s.94,2.11,2.1,2.11,2.1-.94,2.1-2.11-.94-2.1-2.1-2.1"/>
    <path class="st13" d="M716.71,1074.18h15.49c.58,0,1.06.35,1.06.78v34.13c0,.44-.48.79-1.06.79h-15.49c-.59,0-1.07-.35-1.07-.79v-34.13c0-.43.48-.78,1.07-.78M724.18,1089.22c-1.55,0-2.81,1.25-2.81,2.8s1.26,2.81,2.81,2.81,2.8-1.26,2.8-2.81-1.25-2.8-2.8-2.8"/>
    <path class="st13" d="M721.38,1092.02c0-1.55,1.26-2.8,2.81-2.8s2.8,1.25,2.8,2.8-1.25,2.81-2.8,2.81-2.81-1.26-2.81-2.81M724.18,1090.52c-.83,0-1.51.67-1.51,1.5s.68,1.51,1.51,1.51,1.51-.68,1.51-1.51-.68-1.5-1.51-1.5"/>
    <path class="st13" d="M735.89,1092.02c0-1.16.94-2.1,2.1-2.1s2.11.95,2.11,2.1-.94,2.11-2.11,2.11-2.1-.94-2.1-2.11"/>
    <path class="st13" d="M722.68,1092.02c0-.83.68-1.5,1.51-1.5s1.51.67,1.51,1.5-.68,1.51-1.51,1.51-1.51-.68-1.51-1.51"/>
  </g>
  <g class="st8">
    <path class="st3" d="M737.99,1094.13c-1.16,0-2.1-.95-2.1-2.11s.94-2.1,2.1-2.1,2.1.94,2.1,2.1-.94,2.11-2.1,2.11Z"/>
    <path class="st3" d="M724.18,1094.83c-1.55,0-2.81-1.26-2.81-2.81s1.26-2.8,2.81-2.8,2.8,1.25,2.8,2.8-1.25,2.81-2.8,2.81Z"/>
    <path class="st3" d="M724.18,1093.53c-.83,0-1.51-.68-1.51-1.51s.68-1.5,1.51-1.5,1.51.67,1.51,1.5-.68,1.51-1.51,1.51Z"/>
    <path class="st3" d="M732.21,1074.18h-15.5c-.59,0-1.07.35-1.07.78v34.13c0,.44.48.79,1.07.79h15.5c.58,0,1.06-.35,1.06-.79v-34.13c0-.43-.48-.78-1.06-.78Z"/>
  </g>
  <line class="st3" x1="733.92" y1="1110.66" x2="742.09" y2="1110.66"/>
  <g class="st11">
    <path class="st3" d="M742.09,1073.55h-26.45c-.58,0-1.06.28-1.06.63v35.7c0,.43.48.78,1.06.78h8.38"/>
  </g>
  <line class="st3" x1="733.92" y1="1110.66" x2="724.02" y2="1110.66"/>
  <line class="st3" x1="742.09" y1="1110.66" x2="742.09" y2="1073.55"/>
  <polygon class="st13" points="470.61 755.55 462.51 756.9 455.08 760.61 455.08 760.95 455.42 760.95 456.1 760.95 456.43 760.95 456.77 760.95 457.11 760.95 458.8 759.94 460.48 759.26 461.83 759.6 462.85 760.61 462.85 761.29 462.51 761.62 457.11 766.35 453.4 772.42 487.82 772.42 484.11 766.35 478.71 761.62 478.04 761.29 478.37 760.61 479.39 759.6 480.74 759.26 482.42 759.94 484.11 760.95 484.45 760.95 484.79 760.95 485.12 760.95 485.8 760.95 486.14 760.61 478.71 756.9 470.61 755.55"/>
  <polygon class="st13" points="518.54 755.55 510.1 756.9 503.01 760.61 503.01 760.95 503.35 760.95 503.69 760.95 504.36 760.95 504.7 760.95 505.04 760.95 506.73 759.94 508.41 759.26 509.76 759.6 510.78 760.61 510.78 761.29 510.44 761.62 504.7 766.35 501.32 772.42 535.75 772.42 532.04 766.35 526.3 761.62 525.96 761.29 525.96 760.61 526.98 759.6 528.66 759.26 530.35 759.94 531.7 760.95 532.04 760.95 532.72 760.95 533.05 760.95 533.39 760.95 533.73 760.95 534.07 760.61 526.64 756.9 518.54 755.55"/>
  <polygon class="st13" points="535.75 772.42 501.33 772.42 487.82 772.42 453.4 772.42 446.65 772.42 446.65 836.22 453.4 836.22 487.82 836.22 501.33 836.22 535.75 836.22 542.17 836.22 542.17 772.42 535.75 772.42"/>
  <polygon class="st13" points="453.4 836.22 457.11 842.29 462.51 847.02 462.85 847.36 462.85 848.03 461.83 849.04 460.48 849.38 458.8 848.71 457.11 847.69 456.77 847.69 456.43 847.69 456.1 847.69 455.42 847.69 455.08 847.69 455.08 848.03 462.51 851.74 470.61 853.09 478.71 851.74 486.14 848.03 485.8 847.69 485.12 847.69 484.79 847.69 484.45 847.69 484.11 847.69 482.42 848.71 480.74 849.38 479.39 849.04 478.37 848.03 478.04 847.36 478.71 847.02 484.11 842.29 487.82 836.22 453.4 836.22"/>
  <polygon class="st13" points="501.33 836.22 504.7 842.29 510.44 847.02 510.78 847.36 510.78 848.03 509.76 849.04 508.41 849.38 506.73 848.7 505.04 847.69 504.7 847.69 504.36 847.69 503.69 847.69 503.35 847.69 503.01 847.69 503.01 848.03 510.1 851.74 518.54 853.09 526.64 851.74 534.07 848.03 533.73 847.69 533.39 847.69 533.05 847.69 532.72 847.69 532.04 847.69 531.7 847.69 530.35 848.7 528.67 849.38 526.98 849.04 525.96 848.03 525.96 847.36 526.3 847.02 532.04 842.29 535.75 836.22 501.33 836.22"/>
  <line class="st3" x1="457.11" y1="847.69" x2="456.77" y2="847.69"/>
  <line class="st3" x1="456.77" y1="847.69" x2="456.43" y2="847.69"/>
  <line class="st3" x1="455.42" y1="847.69" x2="456.1" y2="847.69"/>
  <line class="st3" x1="456.1" y1="847.69" x2="456.43" y2="847.69"/>
  <line class="st3" x1="455.08" y1="848.03" x2="455.08" y2="847.69"/>
  <line class="st3" x1="455.08" y1="847.69" x2="455.42" y2="847.69"/>
  <line class="st3" x1="462.85" y1="848.03" x2="461.83" y2="849.04"/>
  <line class="st3" x1="461.83" y1="849.04" x2="460.48" y2="849.38"/>
  <line class="st3" x1="460.48" y1="849.38" x2="458.8" y2="848.71"/>
  <line class="st3" x1="458.8" y1="848.7" x2="457.11" y2="847.69"/>
  <line class="st3" x1="462.51" y1="847.02" x2="462.85" y2="847.35"/>
  <line class="st3" x1="462.85" y1="847.35" x2="462.85" y2="848.03"/>
  <line class="st3" x1="462.51" y1="847.02" x2="457.11" y2="842.29"/>
  <line class="st3" x1="457.11" y1="842.29" x2="453.4" y2="836.22"/>
  <line class="st3" x1="484.11" y1="847.69" x2="484.45" y2="847.69"/>
  <line class="st3" x1="484.45" y1="847.69" x2="484.79" y2="847.69"/>
  <line class="st3" x1="485.8" y1="847.69" x2="485.12" y2="847.69"/>
  <line class="st3" x1="485.12" y1="847.69" x2="484.79" y2="847.69"/>
  <line class="st3" x1="486.14" y1="848.03" x2="485.8" y2="847.69"/>
  <line class="st3" x1="478.37" y1="848.03" x2="479.39" y2="849.04"/>
  <line class="st3" x1="479.39" y1="849.04" x2="480.74" y2="849.38"/>
  <line class="st3" x1="480.74" y1="849.38" x2="482.42" y2="848.71"/>
  <line class="st3" x1="482.42" y1="848.7" x2="484.11" y2="847.69"/>
  <line class="st3" x1="478.71" y1="847.02" x2="478.04" y2="847.35"/>
  <line class="st3" x1="478.04" y1="847.35" x2="478.37" y2="848.03"/>
  <line class="st3" x1="478.71" y1="847.02" x2="484.11" y2="842.29"/>
  <line class="st3" x1="484.11" y1="842.29" x2="487.82" y2="836.22"/>
  <line class="st3" x1="455.08" y1="848.03" x2="462.51" y2="851.74"/>
  <line class="st3" x1="462.51" y1="851.74" x2="470.61" y2="853.09"/>
  <line class="st3" x1="470.61" y1="853.09" x2="478.71" y2="851.74"/>
  <line class="st3" x1="478.71" y1="851.74" x2="486.14" y2="848.03"/>
  <line class="st3" x1="457.11" y1="760.95" x2="456.77" y2="760.95"/>
  <line class="st3" x1="456.77" y1="760.95" x2="456.43" y2="760.95"/>
  <line class="st3" x1="455.42" y1="760.95" x2="456.1" y2="760.95"/>
  <line class="st3" x1="456.1" y1="760.95" x2="456.43" y2="760.95"/>
  <line class="st3" x1="455.08" y1="760.61" x2="455.08" y2="760.95"/>
  <line class="st3" x1="455.08" y1="760.95" x2="455.42" y2="760.95"/>
  <line class="st3" x1="462.85" y1="760.61" x2="461.83" y2="759.6"/>
  <line class="st3" x1="461.83" y1="759.6" x2="460.48" y2="759.26"/>
  <line class="st3" x1="460.48" y1="759.26" x2="458.8" y2="759.94"/>
  <line class="st3" x1="458.8" y1="759.94" x2="457.11" y2="760.95"/>
  <line class="st3" x1="462.51" y1="761.62" x2="462.85" y2="761.29"/>
  <line class="st3" x1="462.85" y1="761.29" x2="462.85" y2="760.61"/>
  <line class="st3" x1="462.51" y1="761.62" x2="457.11" y2="766.35"/>
  <line class="st3" x1="457.11" y1="766.35" x2="453.4" y2="772.42"/>
  <line class="st3" x1="484.11" y1="760.95" x2="484.45" y2="760.95"/>
  <line class="st3" x1="484.45" y1="760.95" x2="484.79" y2="760.95"/>
  <line class="st3" x1="485.8" y1="760.95" x2="485.12" y2="760.95"/>
  <line class="st3" x1="485.12" y1="760.95" x2="484.79" y2="760.95"/>
  <line class="st3" x1="486.14" y1="760.61" x2="485.8" y2="760.95"/>
  <line class="st3" x1="478.37" y1="760.61" x2="479.39" y2="759.6"/>
  <line class="st3" x1="479.39" y1="759.6" x2="480.74" y2="759.26"/>
  <line class="st3" x1="480.74" y1="759.26" x2="482.42" y2="759.94"/>
  <line class="st3" x1="482.42" y1="759.94" x2="484.11" y2="760.95"/>
  <line class="st3" x1="478.71" y1="761.62" x2="478.04" y2="761.29"/>
  <line class="st3" x1="478.04" y1="761.29" x2="478.37" y2="760.61"/>
  <line class="st3" x1="478.71" y1="761.62" x2="484.11" y2="766.35"/>
  <line class="st3" x1="484.11" y1="766.35" x2="487.82" y2="772.42"/>
  <line class="st3" x1="455.08" y1="760.61" x2="462.51" y2="756.9"/>
  <line class="st3" x1="462.51" y1="756.9" x2="470.61" y2="755.55"/>
  <line class="st3" x1="470.61" y1="755.55" x2="478.71" y2="756.9"/>
  <line class="st3" x1="478.71" y1="756.9" x2="486.14" y2="760.61"/>
  <line class="st3" x1="446.65" y1="772.42" x2="446.65" y2="836.22"/>
  <line class="st3" x1="531.7" y1="847.69" x2="532.04" y2="847.69"/>
  <line class="st3" x1="532.04" y1="847.69" x2="532.72" y2="847.69"/>
  <line class="st3" x1="533.39" y1="847.69" x2="533.05" y2="847.69"/>
  <line class="st3" x1="533.05" y1="847.69" x2="532.72" y2="847.69"/>
  <line class="st3" x1="534.07" y1="848.03" x2="533.73" y2="847.69"/>
  <line class="st3" x1="533.73" y1="847.69" x2="533.39" y2="847.69"/>
  <line class="st3" x1="525.97" y1="848.03" x2="526.98" y2="849.04"/>
  <line class="st3" x1="526.98" y1="849.04" x2="528.66" y2="849.38"/>
  <line class="st3" x1="528.67" y1="849.38" x2="530.35" y2="848.71"/>
  <line class="st3" x1="530.35" y1="848.7" x2="531.7" y2="847.69"/>
  <line class="st3" x1="526.3" y1="847.02" x2="525.96" y2="847.35"/>
  <line class="st3" x1="525.97" y1="847.35" x2="525.97" y2="848.03"/>
  <line class="st3" x1="526.3" y1="847.02" x2="532.04" y2="842.29"/>
  <line class="st3" x1="532.04" y1="842.29" x2="535.75" y2="836.22"/>
  <line class="st3" x1="505.04" y1="847.69" x2="504.7" y2="847.69"/>
  <line class="st3" x1="504.7" y1="847.69" x2="504.36" y2="847.69"/>
  <line class="st3" x1="503.35" y1="847.69" x2="503.69" y2="847.69"/>
  <line class="st3" x1="503.69" y1="847.69" x2="504.36" y2="847.69"/>
  <line class="st3" x1="503.01" y1="848.03" x2="503.01" y2="847.69"/>
  <line class="st3" x1="503.01" y1="847.69" x2="503.35" y2="847.69"/>
  <line class="st3" x1="510.78" y1="848.03" x2="509.76" y2="849.04"/>
  <line class="st3" x1="509.76" y1="849.04" x2="508.41" y2="849.38"/>
  <line class="st3" x1="508.41" y1="849.38" x2="506.73" y2="848.71"/>
  <line class="st3" x1="506.73" y1="848.7" x2="505.04" y2="847.69"/>
  <line class="st3" x1="510.44" y1="847.02" x2="510.78" y2="847.35"/>
  <line class="st3" x1="510.78" y1="847.35" x2="510.78" y2="848.03"/>
  <line class="st3" x1="510.44" y1="847.02" x2="504.7" y2="842.29"/>
  <line class="st3" x1="504.7" y1="842.29" x2="501.33" y2="836.22"/>
  <line class="st3" x1="534.07" y1="848.03" x2="526.64" y2="851.74"/>
  <line class="st3" x1="526.64" y1="851.74" x2="518.54" y2="853.09"/>
  <line class="st3" x1="518.54" y1="853.09" x2="510.1" y2="851.74"/>
  <line class="st3" x1="510.1" y1="851.74" x2="503.01" y2="848.03"/>
  <line class="st3" x1="531.7" y1="760.95" x2="532.04" y2="760.95"/>
  <line class="st3" x1="532.04" y1="760.95" x2="532.72" y2="760.95"/>
  <line class="st3" x1="533.39" y1="760.95" x2="533.05" y2="760.95"/>
  <line class="st3" x1="533.05" y1="760.95" x2="532.72" y2="760.95"/>
  <line class="st3" x1="534.07" y1="760.61" x2="533.73" y2="760.95"/>
  <line class="st3" x1="533.73" y1="760.95" x2="533.39" y2="760.95"/>
  <line class="st3" x1="525.97" y1="760.61" x2="526.98" y2="759.6"/>
  <line class="st3" x1="526.98" y1="759.6" x2="528.66" y2="759.26"/>
  <line class="st3" x1="528.67" y1="759.26" x2="530.35" y2="759.94"/>
  <line class="st3" x1="530.35" y1="759.94" x2="531.7" y2="760.95"/>
  <line class="st3" x1="526.3" y1="761.62" x2="525.96" y2="761.29"/>
  <line class="st3" x1="525.97" y1="761.29" x2="525.97" y2="760.61"/>
  <line class="st3" x1="526.3" y1="761.62" x2="532.04" y2="766.35"/>
  <line class="st3" x1="532.04" y1="766.35" x2="535.75" y2="772.42"/>
  <line class="st3" x1="505.04" y1="760.95" x2="504.7" y2="760.95"/>
  <line class="st3" x1="504.7" y1="760.95" x2="504.36" y2="760.95"/>
  <line class="st3" x1="503.35" y1="760.95" x2="503.69" y2="760.95"/>
  <line class="st3" x1="503.69" y1="760.95" x2="504.36" y2="760.95"/>
  <line class="st3" x1="503.01" y1="760.61" x2="503.01" y2="760.95"/>
  <line class="st3" x1="503.01" y1="760.95" x2="503.35" y2="760.95"/>
  <line class="st3" x1="510.78" y1="760.61" x2="509.76" y2="759.6"/>
  <line class="st3" x1="509.76" y1="759.6" x2="508.41" y2="759.26"/>
  <line class="st3" x1="508.41" y1="759.26" x2="506.73" y2="759.94"/>
  <line class="st3" x1="506.73" y1="759.94" x2="505.04" y2="760.95"/>
  <line class="st3" x1="510.44" y1="761.62" x2="510.78" y2="761.29"/>
  <line class="st3" x1="510.78" y1="761.29" x2="510.78" y2="760.61"/>
  <line class="st3" x1="510.44" y1="761.62" x2="504.7" y2="766.35"/>
  <line class="st3" x1="504.7" y1="766.35" x2="501.33" y2="772.42"/>
  <line class="st3" x1="534.07" y1="760.61" x2="526.64" y2="756.9"/>
  <line class="st3" x1="526.64" y1="756.9" x2="518.54" y2="755.55"/>
  <line class="st3" x1="518.54" y1="755.55" x2="510.1" y2="756.9"/>
  <line class="st3" x1="510.1" y1="756.9" x2="503.01" y2="760.61"/>
  <line class="st3" x1="542.17" y1="772.42" x2="542.17" y2="836.22"/>
  <polyline class="st3" points="542.17 836.22 535.75 836.22 501.33 836.22 487.82 836.22 453.4 836.22 446.65 836.22"/>
  <polyline class="st3" points="446.65 772.42 453.4 772.42 487.82 772.42 501.33 772.42 535.75 772.42 542.17 772.42"/>
  <line class="st3" x1="452.51" y1="1030.46" x2="463.18" y2="1030.46"/>
  <rect class="st3" x="446.38" y="1006.5" width="47.78" height="117.89"/>
  <line class="st3" x1="479.15" y1="1086.57" x2="479.15" y2="1097"/>
  <line class="st3" x1="459.54" y1="1086.57" x2="459.54" y2="1097"/>
  <line class="st3" x1="464.69" y1="1091.72" x2="454.26" y2="1091.72"/>
  <line class="st3" x1="484.44" y1="1091.72" x2="474.01" y2="1091.72"/>
  <rect class="st3" x="449.67" y="1080.59" width="39.36" height="22.95"/>
  <rect class="st3" x="456.75" y="1017.12" width="26.54" height="26.54"/>
  <rect class="st3" x="450.15" y="1010.52" width="39.75" height="39.89"/>
  <g class="st10">
    <path class="st13" d="M648.83,881.1c10.26,0,18.57,8.32,18.57,18.57s-8.31,18.57-18.57,18.57-18.57-8.31-18.57-18.57,8.31-18.57,18.57-18.57"/>
    <path class="st1" d="M648.83,881.1c10.26,0,18.57,8.32,18.57,18.57s-8.31,18.57-18.57,18.57-18.57-8.31-18.57-18.57,8.31-18.57,18.57-18.57Z"/>
  </g>
</svg>