<?xml version="1.0" encoding="UTF-8"?>
<svg id="Layer_1" xmlns="http://www.w3.org/2000/svg" xmlns:xlink="http://www.w3.org/1999/xlink" version="1.1" viewBox="0 0 1200 1697.14">
  <!-- Generator: Adobe Illustrator 29.6.0, SVG Export Plug-In . SVG Version: 2.1.1 Build 207)  -->
  <defs>
    <style>
      .st0, .st1, .st2, .st3 {
        fill: none;
      }

      .st1 {
        stroke: #0d0e1c;
      }

      .st1, .st2, .st3 {
        stroke-linecap: round;
        stroke-linejoin: round;
      }

      .st1, .st3 {
        stroke-width: .08px;
      }

      .st2 {
        stroke-width: .14px;
      }

      .st2, .st3 {
        stroke: #000;
      }

      .st4 {
        clip-path: url(#clippath-11);
      }

      .st5 {
        clip-path: url(#clippath-10);
      }

      .st6 {
        clip-path: url(#clippath-1);
      }

      .st7 {
        clip-path: url(#clippath-3);
      }

      .st8 {
        clip-path: url(#clippath-4);
      }

      .st9 {
        clip-path: url(#clippath-2);
      }

      .st10 {
        clip-path: url(#clippath-7);
      }

      .st11 {
        clip-path: url(#clippath-6);
      }

      .st12 {
        clip-path: url(#clippath-9);
      }

      .st13 {
        clip-path: url(#clippath-8);
      }

      .st14 {
        clip-path: url(#clippath-5);
      }

      .st15 {
        fill: #fff;
      }

      .st16 {
        fill: #ece9e5;
      }

      .st17 {
        fill: #302c35;
      }

      .st18 {
        clip-path: url(#clippath);
      }
    </style>
    <clipPath id="clippath">
      <rect class="st0" x="459.2" y="837.71" width="28.6" height="39.22"/>
    </clipPath>
    <clipPath id="clippath-1">
      <rect class="st0" x="227.07" y="441.48" width="745.87" height="814.19"/>
    </clipPath>
    <clipPath id="clippath-2">
      <rect class="st0" x="227.07" y="441.48" width="745.87" height="814.19"/>
    </clipPath>
    <clipPath id="clippath-3">
      <rect class="st0" x="388.67" y="921.88" width="26.88" height="36.26"/>
    </clipPath>
    <clipPath id="clippath-4">
      <rect class="st0" x="227.07" y="441.48" width="745.87" height="814.19"/>
    </clipPath>
    <clipPath id="clippath-5">
      <rect class="st0" x="227.07" y="441.48" width="745.87" height="814.19"/>
    </clipPath>
    <clipPath id="clippath-6">
      <rect class="st0" x="382.44" y="609.76" width="72.57" height="159.65"/>
    </clipPath>
    <clipPath id="clippath-7">
      <rect class="st0" x="227.07" y="441.48" width="745.87" height="814.19"/>
    </clipPath>
    <clipPath id="clippath-8">
      <rect class="st0" x="227.07" y="441.48" width="745.87" height="814.19"/>
    </clipPath>
    <clipPath id="clippath-9">
      <rect class="st0" x="628.29" y="771.44" width="65.16" height="65.12"/>
    </clipPath>
    <clipPath id="clippath-10">
      <rect class="st0" x="227.07" y="441.48" width="745.87" height="814.19"/>
    </clipPath>
    <clipPath id="clippath-11">
      <rect class="st0" x="227.07" y="441.48" width="745.87" height="814.19"/>
    </clipPath>
  </defs>
  <rect class="st16" x="362.96" y="506.28" width="363.52" height="609.58"/>
  <rect class="st16" x="484.14" y="1068.27" width="211.97" height="154.93"/>
  <rect class="st16" x="653.75" y="626.44" width="184.46" height="249.43"/>
  <rect class="st15" x="416.87" y="506.28" width="210.27" height="16.2"/>
  <rect class="st15" x="710.28" y="650.41" width="16.2" height="231.71"/>
  <rect class="st15" x="710.28" y="999.75" width="16.2" height="82.02"/>
  <rect class="st15" x="500" y="1159.4" width="203.19" height="55.86"/>
  <rect class="st15" x="631.98" y="1135.77" width="59.82" height="47.59"/>
  <rect class="st17" x="362.96" y="537" width="62.1" height="15.87"/>
  <rect class="st17" x="362.96" y="1099.66" width="137.03" height="16.2"/>
  <rect class="st17" x="362.96" y="552.86" width="17.55" height="466.46"/>
  <rect class="st17" x="834.15" y="626.44" width="4.05" height="249.43"/>
  <rect class="st17" x="726.48" y="871.99" width="109.7" height="4.05"/>
  <rect class="st17" x="726.48" y="626.44" width="109.7" height="4.05"/>
  <rect class="st17" x="679.9" y="1081.77" width="46.58" height="141.42"/>
  <rect class="st17" x="484.13" y="1207.33" width="195.77" height="15.87"/>
  <rect class="st17" x="484.13" y="1115.86" width="15.87" height="91.47"/>
  <rect class="st17" x="382.2" y="965.32" width="125.9" height="5.4"/>
  <rect class="st17" x="501.69" y="956.54" width="6.41" height="8.77"/>
  <rect class="st17" x="382.2" y="830.98" width="120.83" height="5.4"/>
  <rect class="st17" x="378.68" y="830.98" width="8.58" height="139.74"/>
  <rect class="st17" x="380.51" y="771.24" width="119.48" height="8.1"/>
  <rect class="st17" x="500" y="771.24" width="8.1" height="59.74"/>
  <rect class="st17" x="631.97" y="1107.76" width="8.1" height="28.01"/>
  <rect class="st17" x="640.07" y="1107.76" width="39.83" height="8.1"/>
  <rect class="st17" x="640.07" y="1127.67" width="39.83" height="8.1"/>
  <rect class="st17" x="387.26" y="836.38" width="115.77" height="1.01"/>
  <rect class="st17" x="501.86" y="829.34" width="6.24" height="56.33"/>
  <rect class="st17" x="387.26" y="963.97" width="115.77" height="1.35"/>
  <rect class="st17" x="387.26" y="836.38" width="1.35" height="127.59"/>
  <rect class="st17" x="679.9" y="847.52" width="46.58" height="152.22"/>
  <rect class="st17" x="362.96" y="506.28" width="62.1" height="30.72"/>
  <rect class="st17" x="679.9" y="506.28" width="46.58" height="144.12"/>
  <rect class="st17" x="362.96" y="1090.88" width="17.55" height="14.46"/>
  <rect class="st17" x="622.19" y="506.28" width="65.65" height="46.58"/>
  <g class="st18">
    <path class="st15" d="M487.8,837.72c0,7.71,0,15.41,0,23.11,0,8.9-6.4,16.09-14.3,16.09-7.9,0-14.3-7.21-14.29-16.11,0-7.7.01-15.4.02-23.11,9.52,0,19.05,0,28.58.02"/>
  </g>
  <g class="st6">
    <path class="st3" d="M487.8,837.72c0,7.71,0,15.41,0,23.11,0,8.9-6.4,16.09-14.3,16.09-7.9,0-14.3-7.21-14.29-16.11,0-7.7.01-15.4.02-23.11,9.52,0,19.05,0,28.58.02Z"/>
  </g>
  <rect class="st15" x="388.59" y="837.87" width="62.49" height="61.83"/>
  <polyline class="st3" points="451.08 837.87 451.08 899.7 443.68 899.7"/>
  <line class="st3" x1="451.08" y1="837.87" x2="389.08" y2="837.87"/>
  <line class="st3" x1="388.59" y1="838.89" x2="388.59" y2="899.16"/>
  <polyline class="st3" points="388.59 838.89 388.59 837.87 389.08 837.87"/>
  <polyline class="st3" points="389.51 899.7 388.59 899.7 388.59 899.16"/>
  <line class="st3" x1="389.51" y1="899.7" x2="443.68" y2="899.7"/>
  <line class="st3" x1="420.08" y1="837.87" x2="420.08" y2="855.05"/>
  <g class="st9">
    <path class="st3" d="M423.84,854.97c0-2.12-1.72-3.84-3.84-3.84s-3.84,1.72-3.84,3.84,1.72,3.84,3.84,3.84,3.84-1.72,3.84-3.84Z"/>
    <path class="st3" d="M423.84,854.97c0-2.12-1.72-3.84-3.84-3.84s-3.84,1.72-3.84,3.84,1.72,3.84,3.84,3.84,3.84-1.72,3.84-3.84Z"/>
  </g>
  <g class="st7">
    <path class="st15" d="M413.48,957.52h-15.14c-.58,0-1.04-.35-1.04-.76v-33.35c0-.42.46-.77,1.04-.77h15.14c.58,0,1.04.35,1.04.77v33.35c0,.42-.47.76-1.04.76M406.18,942.82c1.51,0,2.74-1.22,2.74-2.75s-1.22-2.73-2.74-2.73-2.74,1.23-2.74,2.73,1.23,2.75,2.74,2.75"/>
    <path class="st15" d="M394.74,940.08c0,1.14-.93,2.06-2.05,2.06s-2.07-.92-2.07-2.06.93-2.05,2.07-2.05,2.05.92,2.05,2.05"/>
    <path class="st15" d="M406.18,941.55c-.81,0-1.47-.65-1.47-1.47s.66-1.46,1.47-1.46,1.47.65,1.47,1.46-.66,1.47-1.47,1.47"/>
    <path class="st15" d="M406.18,938.61c-.81,0-1.47.65-1.47,1.46s.66,1.47,1.47,1.47,1.48-.65,1.48-1.47-.66-1.46-1.48-1.46M403.43,940.08c0-1.51,1.23-2.73,2.74-2.73s2.74,1.22,2.74,2.73-1.22,2.75-2.74,2.75-2.74-1.22-2.74-2.75"/>
    <path class="st15" d="M394.74,940.08c0-1.13-.93-2.05-2.05-2.05s-2.07.92-2.07,2.05.93,2.07,2.07,2.07,2.05-.93,2.05-2.07M414.52,923.41c0-.42-.47-.76-1.04-.76h-15.14c-.58,0-1.04.35-1.04.76v33.35c0,.42.46.76,1.04.76h15.14c.58,0,1.04-.35,1.04-.76v-33.35ZM396.67,921.88h17.85c.58,0,1.04.35,1.04.76v34.88c0,.34-.46.62-1.04.62h-25.84v-36.26h7.99Z"/>
  </g>
  <g class="st8">
    <path class="st3" d="M392.69,938.02c1.13,0,2.05.92,2.05,2.05s-.92,2.07-2.05,2.07-2.06-.93-2.06-2.07.92-2.05,2.06-2.05Z"/>
    <path class="st3" d="M406.18,937.34c1.51,0,2.74,1.22,2.74,2.73s-1.22,2.75-2.74,2.75-2.74-1.23-2.74-2.75,1.23-2.73,2.74-2.73Z"/>
    <path class="st3" d="M406.18,938.61c.81,0,1.47.65,1.47,1.46s-.66,1.47-1.47,1.47-1.47-.65-1.47-1.47.66-1.46,1.47-1.46Z"/>
    <path class="st3" d="M398.34,957.52h15.14c.58,0,1.04-.35,1.04-.76v-33.35c0-.42-.46-.77-1.04-.77h-15.14c-.58,0-1.04.35-1.04.77v33.35c0,.42.46.76,1.04.76Z"/>
  </g>
  <line class="st3" x1="396.67" y1="921.88" x2="388.68" y2="921.88"/>
  <g class="st14">
    <path class="st3" d="M388.68,958.14h25.84c.58,0,1.04-.28,1.04-.62v-34.88c0-.42-.47-.76-1.04-.76h-8.19"/>
  </g>
  <line class="st3" x1="396.67" y1="921.88" x2="406.33" y2="921.88"/>
  <line class="st3" x1="388.68" y1="921.88" x2="388.68" y2="958.14"/>
  <line class="st3" x1="582.02" y1="1199.53" x2="582.02" y2="1188.86"/>
  <line class="st3" x1="508.51" y1="1173.56" x2="518.95" y2="1173.56"/>
  <line class="st3" x1="508.51" y1="1193.17" x2="518.95" y2="1193.17"/>
  <line class="st3" x1="513.66" y1="1188.02" x2="513.66" y2="1198.45"/>
  <line class="st3" x1="513.66" y1="1168.27" x2="513.66" y2="1178.7"/>
  <rect class="st3" x="502.53" y="1163.68" width="22.95" height="39.36"/>
  <rect class="st3" x="568.68" y="1168.74" width="26.54" height="26.54"/>
  <rect class="st3" x="562.08" y="1162.14" width="39.89" height="39.75"/>
  <rect class="st15" x="632.66" y="552.94" width="47.59" height="95.52"/>
  <g class="st11">
    <path class="st15" d="M382.44,769.41v-56.74l15.93,7.87h0v28.26c0,1.81,1.46,3.28,3.28,3.28h33.25c1.82,0,3.28-1.47,3.28-3.28v-8.57l15.92,7.88v21.28h-71.65Z"/>
    <polygon class="st15" points="398.37 720.55 398.37 720.54 398.38 720.55 398.37 720.55"/>
    <path class="st15" d="M398.99,720.85l-.21-.1c.07.03.13.06.21.1"/>
    <path class="st15" d="M399.26,720.98l-.27-.13c.09.04.17.08.27.13"/>
    <path class="st15" d="M401.65,752.09c-1.82,0-3.28-1.47-3.28-3.28v-28.26h0s.11.05.4.2l.21.1.27.13s.09.05.15.07l.8.4c.08.04.17.07.25.12l.57.28c.1.04.21.1.32.16l.71.36c.52.25,1.1.53,1.75.86l1.06.52c.4.2.83.41,1.28.64l1.22.6c.24.11.47.23.71.36l1.54.76c.53.26,1.09.55,1.68.83l3.86,1.91c5.59,2.76,13.05,6.46,23,11.38v8.57c0,1.81-1.46,3.28-3.28,3.28h-33.25Z"/>
    <path class="st15" d="M400.22,721.46l-.8-.4c.22.11.49.24.8.4"/>
    <path class="st15" d="M401.04,721.86l-.57-.28c.17.08.36.18.57.28"/>
    <path class="st15" d="M402.07,722.38l-.71-.35c.23.11.46.22.71.35"/>
    <path class="st15" d="M404.88,723.76l-1.06-.52c.33.17.68.34,1.06.52"/>
    <path class="st15" d="M407.38,725l-1.22-.6c.38.19.79.39,1.22.6"/>
    <path class="st15" d="M409.62,726.11l-1.53-.76c.49.23.99.49,1.53.76"/>
    <path class="st15" d="M415.17,728.86l-3.86-1.91c1.17.58,2.45,1.22,3.86,1.91"/>
    <path class="st15" d="M382.44,712.67v-102.5h71.65v137.96l-15.92-7.88c-9.96-4.93-17.42-8.62-23.01-11.38-1.4-.69-2.69-1.33-3.86-1.91-.59-.29-1.15-.57-1.68-.83-.54-.27-1.05-.52-1.54-.76-.24-.12-.48-.25-.71-.36-.43-.21-.83-.41-1.22-.6-.45-.22-.88-.44-1.28-.64-.37-.19-.72-.35-1.06-.52-.66-.33-1.24-.61-1.75-.86-.25-.13-.49-.24-.71-.35-.11-.06-.21-.11-.32-.16-.21-.1-.4-.2-.57-.28-.08-.05-.17-.08-.25-.12-.32-.16-.58-.29-.8-.4-.06-.03-.1-.06-.15-.08-.1-.05-.19-.09-.27-.13-.08-.04-.14-.07-.21-.1-.29-.15-.38-.19-.4-.2h0s-15.93-7.88-15.93-7.88Z"/>
    <polygon class="st15" points="382.44 610.17 382.44 609.76 455.01 609.76 455.01 748.57 454.1 748.13 454.1 610.17 382.44 610.17"/>
  </g>
  <polyline class="st1" points="454.1 748.13 454.1 769.41 382.44 769.41 382.44 712.67"/>
  <polyline class="st1" points="438.17 740.24 454.1 748.12 455.01 748.57 455.01 609.76 382.44 609.76 382.44 610.17 382.44 712.67 398.37 720.54"/>
  <line class="st1" x1="411.31" y1="726.95" x2="415.17" y2="728.86"/>
  <line class="st1" x1="408.09" y1="725.36" x2="409.62" y2="726.11"/>
  <line class="st1" x1="406.16" y1="724.4" x2="407.38" y2="725"/>
  <line class="st1" x1="403.82" y1="723.24" x2="404.88" y2="723.76"/>
  <line class="st1" x1="401.36" y1="722.02" x2="402.07" y2="722.38"/>
  <line class="st1" x1="400.47" y1="721.58" x2="401.04" y2="721.86"/>
  <line class="st1" x1="399.41" y1="721.06" x2="400.21" y2="721.46"/>
  <polyline class="st1" points="398.78 720.75 398.99 720.85 399.26 720.98"/>
  <line class="st1" x1="398.37" y1="720.55" x2="398.38" y2="720.55"/>
  <line class="st1" x1="434.89" y1="752.09" x2="401.65" y2="752.09"/>
  <g class="st10">
    <path class="st1" d="M401.65,752.09c-1.82,0-3.28-1.47-3.28-3.28"/>
    <path class="st1" d="M438.17,748.81c0,1.8-1.46,3.28-3.28,3.28"/>
    <path class="st1" d="M438.17,748.81v-8.57c-9.95-4.93-17.42-8.62-23.01-11.38-1.4-.69-2.69-1.33-3.86-1.91-.59-.29-1.15-.57-1.68-.83-.54-.27-1.05-.52-1.53-.76-.24-.12-.48-.24-.71-.35-.43-.21-.83-.41-1.22-.6-.45-.23-.88-.44-1.28-.64-.38-.19-.72-.36-1.06-.52-.66-.33-1.24-.61-1.75-.86-.25-.13-.49-.24-.71-.35-.11-.06-.22-.11-.32-.16-.21-.1-.39-.2-.57-.28-.08-.05-.17-.09-.25-.12-.32-.16-.58-.29-.8-.4-.06-.03-.1-.06-.15-.08-.1-.04-.18-.09-.27-.13-.08-.04-.14-.07-.21-.1-.29-.15-.38-.19-.41-.2h0s0,0,0,0v28.26"/>
  </g>
  <polygon class="st15" points="652.43 877.75 644 879.1 636.92 882.81 636.92 883.15 637.25 883.15 637.59 883.15 638.26 883.15 638.6 883.15 638.94 883.15 640.63 882.14 642.31 881.46 643.67 881.8 644.68 882.81 644.68 883.49 644.34 883.83 638.6 888.55 635.22 894.63 669.65 894.63 665.94 888.55 660.21 883.83 659.87 883.49 659.87 882.81 660.88 881.8 662.57 881.46 664.25 882.14 665.61 883.15 665.94 883.15 666.62 883.15 666.95 883.15 667.29 883.15 667.63 883.15 667.97 882.81 660.54 879.1 652.45 877.75 652.43 877.75"/>
  <polygon class="st15" points="669.65 894.63 635.23 894.63 628.5 894.63 628.5 958.42 635.23 958.42 669.65 958.42 676.07 958.42 676.07 894.63 669.65 894.63"/>
  <polygon class="st15" points="635.23 958.42 638.6 964.49 644.34 969.22 644.68 969.56 644.68 970.23 643.66 971.25 642.31 971.58 640.63 970.91 638.94 969.9 638.6 969.9 638.26 969.9 637.59 969.9 637.25 969.9 636.91 969.9 636.91 970.23 644 973.95 652.44 975.3 660.54 973.95 667.97 970.23 667.63 969.9 667.29 969.9 666.96 969.9 666.62 969.9 665.94 969.9 665.6 969.9 664.25 970.91 662.57 971.58 660.88 971.25 659.87 970.23 659.87 969.56 660.2 969.22 665.94 964.49 669.65 958.42 635.23 958.42"/>
  <line class="st3" x1="628.5" y1="894.63" x2="628.5" y2="958.42"/>
  <line class="st3" x1="665.6" y1="969.89" x2="665.94" y2="969.89"/>
  <line class="st3" x1="665.94" y1="969.89" x2="666.61" y2="969.89"/>
  <line class="st3" x1="667.29" y1="969.89" x2="666.95" y2="969.89"/>
  <line class="st3" x1="666.95" y1="969.89" x2="666.62" y2="969.89"/>
  <line class="st3" x1="667.97" y1="970.23" x2="667.63" y2="969.89"/>
  <line class="st3" x1="667.63" y1="969.89" x2="667.29" y2="969.89"/>
  <line class="st3" x1="659.87" y1="970.23" x2="660.88" y2="971.24"/>
  <line class="st3" x1="660.88" y1="971.24" x2="662.57" y2="971.58"/>
  <line class="st3" x1="662.57" y1="971.58" x2="664.25" y2="970.91"/>
  <line class="st3" x1="664.25" y1="970.91" x2="665.6" y2="969.89"/>
  <line class="st3" x1="660.2" y1="969.22" x2="659.87" y2="969.56"/>
  <line class="st3" x1="659.87" y1="969.56" x2="659.87" y2="970.23"/>
  <line class="st3" x1="660.2" y1="969.22" x2="665.94" y2="964.49"/>
  <line class="st3" x1="665.94" y1="964.49" x2="669.65" y2="958.42"/>
  <line class="st3" x1="638.94" y1="969.89" x2="638.6" y2="969.89"/>
  <line class="st3" x1="638.6" y1="969.89" x2="638.26" y2="969.89"/>
  <line class="st3" x1="637.25" y1="969.89" x2="637.59" y2="969.89"/>
  <line class="st3" x1="637.59" y1="969.89" x2="638.26" y2="969.89"/>
  <line class="st3" x1="636.91" y1="970.23" x2="636.91" y2="969.89"/>
  <line class="st3" x1="636.91" y1="969.89" x2="637.25" y2="969.89"/>
  <line class="st3" x1="644.68" y1="970.23" x2="643.66" y2="971.24"/>
  <line class="st3" x1="643.66" y1="971.24" x2="642.31" y2="971.58"/>
  <line class="st3" x1="642.31" y1="971.58" x2="640.63" y2="970.91"/>
  <line class="st3" x1="640.63" y1="970.91" x2="638.94" y2="969.89"/>
  <line class="st3" x1="644.34" y1="969.22" x2="644.68" y2="969.56"/>
  <line class="st3" x1="644.68" y1="969.56" x2="644.68" y2="970.23"/>
  <line class="st3" x1="644.34" y1="969.22" x2="638.6" y2="964.49"/>
  <line class="st3" x1="638.6" y1="964.49" x2="635.23" y2="958.42"/>
  <line class="st3" x1="667.97" y1="970.23" x2="660.54" y2="973.94"/>
  <line class="st3" x1="660.54" y1="973.95" x2="652.44" y2="975.3"/>
  <line class="st3" x1="652.44" y1="975.3" x2="644" y2="973.95"/>
  <line class="st3" x1="644" y1="973.95" x2="636.91" y2="970.23"/>
  <line class="st3" x1="665.6" y1="883.15" x2="665.94" y2="883.15"/>
  <line class="st3" x1="665.94" y1="883.15" x2="666.61" y2="883.15"/>
  <line class="st3" x1="667.29" y1="883.15" x2="666.95" y2="883.15"/>
  <line class="st3" x1="666.95" y1="883.15" x2="666.62" y2="883.15"/>
  <line class="st3" x1="667.97" y1="882.81" x2="667.63" y2="883.15"/>
  <line class="st3" x1="667.63" y1="883.15" x2="667.29" y2="883.15"/>
  <line class="st3" x1="659.87" y1="882.81" x2="660.88" y2="881.8"/>
  <line class="st3" x1="660.88" y1="881.8" x2="662.57" y2="881.46"/>
  <line class="st3" x1="662.57" y1="881.46" x2="664.25" y2="882.14"/>
  <line class="st3" x1="664.25" y1="882.14" x2="665.6" y2="883.15"/>
  <line class="st3" x1="660.2" y1="883.83" x2="659.87" y2="883.49"/>
  <line class="st3" x1="659.87" y1="883.49" x2="659.87" y2="882.81"/>
  <line class="st3" x1="660.2" y1="883.83" x2="665.94" y2="888.55"/>
  <line class="st3" x1="665.94" y1="888.55" x2="669.65" y2="894.63"/>
  <line class="st3" x1="638.94" y1="883.15" x2="638.6" y2="883.15"/>
  <line class="st3" x1="638.6" y1="883.15" x2="638.26" y2="883.15"/>
  <line class="st3" x1="637.25" y1="883.15" x2="637.59" y2="883.15"/>
  <line class="st3" x1="637.59" y1="883.15" x2="638.26" y2="883.15"/>
  <line class="st3" x1="636.91" y1="882.81" x2="636.91" y2="883.15"/>
  <line class="st3" x1="636.91" y1="883.15" x2="637.25" y2="883.15"/>
  <line class="st3" x1="644.68" y1="882.81" x2="643.66" y2="881.8"/>
  <line class="st3" x1="643.66" y1="881.8" x2="642.31" y2="881.46"/>
  <line class="st3" x1="642.31" y1="881.46" x2="640.63" y2="882.14"/>
  <line class="st3" x1="640.63" y1="882.14" x2="638.94" y2="883.15"/>
  <line class="st3" x1="644.34" y1="883.83" x2="644.68" y2="883.49"/>
  <line class="st3" x1="644.68" y1="883.49" x2="644.68" y2="882.81"/>
  <line class="st3" x1="644.34" y1="883.83" x2="638.6" y2="888.55"/>
  <line class="st3" x1="638.6" y1="888.55" x2="635.23" y2="894.63"/>
  <line class="st3" x1="667.97" y1="882.81" x2="660.54" y2="879.1"/>
  <line class="st3" x1="660.54" y1="879.1" x2="652.44" y2="877.75"/>
  <line class="st3" x1="652.44" y1="877.75" x2="644" y2="879.1"/>
  <line class="st3" x1="644" y1="879.1" x2="636.91" y2="882.81"/>
  <line class="st3" x1="676.07" y1="894.63" x2="676.07" y2="958.42"/>
  <polyline class="st3" points="676.07 958.42 669.65 958.42 635.23 958.42 628.5 958.42"/>
  <polyline class="st3" points="628.5 894.63 635.22 894.63 669.65 894.63 676.07 894.63"/>
  <polygon class="st15" points="606.01 877.75 597.58 879.1 590.5 882.81 590.5 883.15 590.83 883.15 591.17 883.15 591.85 883.15 592.18 883.15 592.52 883.15 594.21 882.14 595.9 881.46 597.25 881.8 598.26 882.81 598.26 883.49 597.92 883.82 592.18 888.55 588.81 894.63 623.24 894.63 619.52 888.55 613.79 883.82 613.45 883.49 613.45 882.81 614.46 881.8 616.15 881.46 617.84 882.14 619.19 883.15 619.52 883.15 620.2 883.15 620.54 883.15 620.88 883.15 621.21 883.15 621.55 882.81 614.12 879.1 606.04 877.75 606.01 877.75"/>
  <polygon class="st15" points="623.24 894.63 588.81 894.63 582.09 894.63 582.09 958.42 588.81 958.42 623.24 958.42 629.65 958.42 629.65 894.63 623.24 894.63"/>
  <polygon class="st15" points="588.81 958.42 592.18 964.5 597.92 969.22 598.26 969.56 598.26 970.23 597.25 971.25 595.9 971.58 594.21 970.91 592.52 969.9 592.18 969.9 591.85 969.9 591.17 969.9 590.83 969.9 590.5 969.9 590.5 970.23 597.58 973.95 606.02 975.3 614.12 973.95 621.55 970.23 621.21 969.9 620.87 969.9 620.54 969.9 620.2 969.9 619.52 969.9 619.19 969.9 617.84 970.91 616.15 971.58 614.46 971.25 613.45 970.23 613.45 969.56 613.79 969.22 619.52 964.5 623.24 958.42 588.81 958.42"/>
  <line class="st3" x1="582.09" y1="894.63" x2="582.09" y2="958.42"/>
  <line class="st3" x1="619.19" y1="969.89" x2="619.52" y2="969.89"/>
  <line class="st3" x1="619.52" y1="969.89" x2="620.2" y2="969.89"/>
  <line class="st3" x1="620.87" y1="969.89" x2="620.54" y2="969.89"/>
  <line class="st3" x1="620.54" y1="969.89" x2="620.2" y2="969.89"/>
  <line class="st3" x1="621.55" y1="970.23" x2="621.21" y2="969.89"/>
  <line class="st3" x1="621.21" y1="969.89" x2="620.87" y2="969.89"/>
  <line class="st3" x1="613.45" y1="970.23" x2="614.46" y2="971.24"/>
  <line class="st3" x1="614.46" y1="971.24" x2="616.15" y2="971.58"/>
  <line class="st3" x1="616.15" y1="971.58" x2="617.84" y2="970.91"/>
  <line class="st3" x1="617.84" y1="970.91" x2="619.19" y2="969.89"/>
  <line class="st3" x1="613.79" y1="969.22" x2="613.45" y2="969.56"/>
  <line class="st3" x1="613.45" y1="969.56" x2="613.45" y2="970.23"/>
  <line class="st3" x1="613.79" y1="969.22" x2="619.52" y2="964.49"/>
  <line class="st3" x1="619.52" y1="964.49" x2="623.24" y2="958.42"/>
  <line class="st3" x1="592.52" y1="969.89" x2="592.18" y2="969.89"/>
  <line class="st3" x1="592.18" y1="969.89" x2="591.85" y2="969.89"/>
  <line class="st3" x1="590.83" y1="969.89" x2="591.17" y2="969.89"/>
  <line class="st3" x1="591.17" y1="969.89" x2="591.85" y2="969.89"/>
  <line class="st3" x1="590.5" y1="970.23" x2="590.5" y2="969.89"/>
  <line class="st3" x1="590.5" y1="969.89" x2="590.83" y2="969.89"/>
  <line class="st3" x1="598.26" y1="970.23" x2="597.25" y2="971.24"/>
  <line class="st3" x1="597.25" y1="971.24" x2="595.9" y2="971.58"/>
  <line class="st3" x1="595.9" y1="971.58" x2="594.21" y2="970.91"/>
  <line class="st3" x1="594.21" y1="970.91" x2="592.52" y2="969.89"/>
  <line class="st3" x1="597.92" y1="969.22" x2="598.26" y2="969.56"/>
  <line class="st3" x1="598.26" y1="969.56" x2="598.26" y2="970.23"/>
  <line class="st3" x1="597.92" y1="969.22" x2="592.18" y2="964.49"/>
  <line class="st3" x1="592.18" y1="964.49" x2="588.81" y2="958.42"/>
  <line class="st3" x1="621.55" y1="970.23" x2="614.12" y2="973.94"/>
  <line class="st3" x1="614.12" y1="973.95" x2="606.02" y2="975.3"/>
  <line class="st3" x1="606.02" y1="975.3" x2="597.58" y2="973.95"/>
  <line class="st3" x1="597.58" y1="973.95" x2="590.5" y2="970.23"/>
  <line class="st3" x1="619.19" y1="883.15" x2="619.52" y2="883.15"/>
  <line class="st3" x1="619.52" y1="883.15" x2="620.2" y2="883.15"/>
  <line class="st3" x1="620.87" y1="883.15" x2="620.54" y2="883.15"/>
  <line class="st3" x1="620.54" y1="883.15" x2="620.2" y2="883.15"/>
  <line class="st3" x1="621.55" y1="882.81" x2="621.21" y2="883.15"/>
  <line class="st3" x1="621.21" y1="883.15" x2="620.87" y2="883.15"/>
  <line class="st3" x1="613.45" y1="882.81" x2="614.46" y2="881.8"/>
  <line class="st3" x1="614.46" y1="881.8" x2="616.15" y2="881.46"/>
  <line class="st3" x1="616.15" y1="881.46" x2="617.84" y2="882.14"/>
  <line class="st3" x1="617.84" y1="882.14" x2="619.19" y2="883.15"/>
  <line class="st3" x1="613.79" y1="883.83" x2="613.45" y2="883.49"/>
  <line class="st3" x1="613.45" y1="883.49" x2="613.45" y2="882.81"/>
  <line class="st3" x1="613.79" y1="883.83" x2="619.52" y2="888.55"/>
  <line class="st3" x1="619.52" y1="888.55" x2="623.24" y2="894.63"/>
  <line class="st3" x1="592.52" y1="883.15" x2="592.18" y2="883.15"/>
  <line class="st3" x1="592.18" y1="883.15" x2="591.85" y2="883.15"/>
  <line class="st3" x1="590.83" y1="883.15" x2="591.17" y2="883.15"/>
  <line class="st3" x1="591.17" y1="883.15" x2="591.85" y2="883.15"/>
  <line class="st3" x1="590.5" y1="882.81" x2="590.5" y2="883.15"/>
  <line class="st3" x1="590.5" y1="883.15" x2="590.83" y2="883.15"/>
  <line class="st3" x1="598.26" y1="882.81" x2="597.25" y2="881.8"/>
  <line class="st3" x1="597.25" y1="881.8" x2="595.9" y2="881.46"/>
  <line class="st3" x1="595.9" y1="881.46" x2="594.21" y2="882.14"/>
  <line class="st3" x1="594.21" y1="882.14" x2="592.52" y2="883.15"/>
  <line class="st3" x1="597.92" y1="883.83" x2="598.26" y2="883.49"/>
  <line class="st3" x1="598.26" y1="883.49" x2="598.26" y2="882.81"/>
  <line class="st3" x1="597.92" y1="883.83" x2="592.18" y2="888.55"/>
  <line class="st3" x1="592.18" y1="888.55" x2="588.81" y2="894.63"/>
  <line class="st3" x1="621.55" y1="882.81" x2="614.12" y2="879.1"/>
  <line class="st3" x1="614.12" y1="879.1" x2="606.02" y2="877.75"/>
  <line class="st3" x1="606.02" y1="877.75" x2="597.58" y2="879.1"/>
  <line class="st3" x1="597.58" y1="879.1" x2="590.5" y2="882.81"/>
  <line class="st3" x1="629.65" y1="894.63" x2="629.65" y2="958.42"/>
  <polyline class="st3" points="629.65 958.42 623.23 958.42 588.81 958.42 582.09 958.42"/>
  <polyline class="st3" points="582.09 894.63 588.81 894.63 623.24 894.63 629.65 894.63"/>
  <rect class="st15" x="582.08" y="894.63" width="93.99" height="63.79"/>
  <rect class="st3" x="582.08" y="894.62" width="93.98" height="63.79"/>
  <g class="st13">
    <path class="st15" d="M482.69,733.06c9.6,0,17.38,7.78,17.38,17.38s-7.78,17.39-17.38,17.39-17.38-7.78-17.38-17.39,7.78-17.38,17.38-17.38"/>
    <path class="st1" d="M482.69,733.06c9.6,0,17.38,7.78,17.38,17.38s-7.78,17.39-17.38,17.39-17.38-7.78-17.38-17.39,7.78-17.38,17.38-17.38Z"/>
  </g>
  <g class="st12">
    <polygon class="st15" points="680.59 782.57 690.69 785.92 692.73 787.27 693.45 788.86 677.94 835.57 676.37 836.56 673.97 836.27 663.87 832.92 680.59 782.57"/>
    <polygon class="st15" points="647.49 771.57 680.59 782.56 663.87 832.92 630.77 821.93 628.68 820.72 628.29 819.08 643.8 772.37 645.05 771.44 647.49 771.57"/>
  </g>
  <g class="st5">
    <line class="st3" x1="663.87" y1="832.92" x2="680.59" y2="782.57"/>
    <line class="st3" x1="690.69" y1="785.92" x2="692.73" y2="787.27"/>
    <line class="st3" x1="692.73" y1="787.27" x2="693.45" y2="788.86"/>
    <line class="st3" x1="673.97" y1="836.27" x2="676.37" y2="836.56"/>
    <line class="st3" x1="676.36" y1="836.56" x2="677.94" y2="835.56"/>
    <line class="st3" x1="647.49" y1="771.57" x2="645.05" y2="771.44"/>
    <line class="st3" x1="645.04" y1="771.44" x2="643.8" y2="772.37"/>
    <line class="st3" x1="630.77" y1="821.93" x2="628.68" y2="820.73"/>
    <line class="st3" x1="628.68" y1="820.72" x2="628.29" y2="819.08"/>
    <polyline class="st3" points="630.77 821.93 663.87 832.92 673.97 836.27"/>
    <line class="st3" x1="677.94" y1="835.56" x2="693.45" y2="788.86"/>
    <polyline class="st3" points="690.69 785.92 680.59 782.56 647.49 771.57"/>
    <line class="st3" x1="643.8" y1="772.38" x2="628.29" y2="819.08"/>
  </g>
  <path class="st3" d="M500,830.98h-119.48M380.52,779.34h119.48M640.07,1115.86h39.83M679.9,1115.86v11.81M679.9,1127.67h-39.83M622.18,537v15.87M622.18,552.86h57.72M380.52,552.86h44.55M425.07,552.86v-15.87M364.65,1115.86h119.49M500,1115.86v-16.2M500,1099.66h-119.48M380.52,1099.66v-7.76M362.96,1090.88v24.98M380.52,771.24v-218.38M362.96,506.28v481.99M362.96,988.27v31.05M380.52,1090.88v1.01M726.48,1205.64v3.71M834.15,630.49h-107.67M726.48,630.49v241.67M726.48,872.16h107.67M834.15,872.16v-241.67M726.48,626.44v4.05M726.48,630.49h107.67M834.15,630.49v241.67M834.15,872.16h-107.67M726.48,872.16v3.71M726.48,875.88h111.72M838.2,875.88v-249.43M838.2,626.44h-111.72M447.01,1088.18l-1.35-12.83M445.66,1075.35l-3.71-12.49M441.95,1062.87l-6.08-11.48M435.87,1051.39l-8.44-10.13M427.43,1041.26l-9.79-8.44M417.64,1032.83l-11.81-6.07M405.83,1026.75l-12.49-3.71M393.34,1023.04l-12.82-1.35M380.52,1019.32h-17.55M362.96,1090.88h17.55M380.52,1088.18h66.49M380.52,1021.69v66.49M380.52,970.72v48.6M380.52,1091.89v-1.01M428.44,510.67l2.7-1.69M433.17,507.97l2.03-1.35M437.22,505.61l2.36-1.35M441.61,503.24l2.03-1.35M445.66,500.88l2.02-1.35M449.71,498.18l2.02-1.01M453.76,495.82l2.36-1.01M458.15,493.46l2.02-1.01M462.2,491.09l2.03-1.01M466.25,488.73l2.02-1.01M470.64,486.37l2.03-1.35M474.68,484.01l2.02-1.35M478.73,481.64l2.02-1.35M482.78,479.28l2.36-1.35M487.17,476.92l2.02-1.35M491.22,474.55l2.7-1.69M504.05,510.67l-.34-1.69M503.37,506.62v-2.7M503.04,501.56v-2.36M502.7,496.83l-.68-2.36M501.35,492.44l-.68-2.36M500,487.72l-.34-2.36M498.65,483.33l-1.01-2.36M496.62,478.94l-1.01-2.36M494.6,474.55l-.67-1.69M617.12,511.35h-109.36M507.76,511.35v3.71M507.76,515.06h109.36M617.12,515.06v-3.71M433.51,515.06h65.48M498.99,515.06v-3.71M498.99,511.35h-65.48M433.51,511.35v3.71M617.12,522.48h-109.36M502.36,522.48h-72.23M502.36,522.48h-72.23M430.13,510.67h72.23M507.76,510.67h109.36M433.51,510.67h65.48M502.36,517.08v5.4M430.13,517.08v5.4M433.51,517.08h65.48M430.13,517.08h72.23M502.36,522.48h5.4M507.76,522.48v-11.81M507.76,510.67h-8.77M498.99,510.67v6.41M498.99,517.08h3.38M502.36,517.08v5.4M426.08,522.48h4.05M430.13,522.48v-5.4M430.13,517.08h3.37M433.51,517.08v-6.41M433.51,510.67h-7.43M426.08,510.67v11.81M617.12,522.48h4.05M621.17,522.48v-11.81M621.17,510.67h-4.05M617.12,510.67v11.81M504.05,510.67h-75.61M428.11,510.67h76.28M428.44,510.67h75.61M430.13,510.67h72.23M502.36,510.67h-72.23M504.39,510.67h-76.28M498.99,510.67h-65.48M433.51,510.67h65.48M679.9,552.86v97.55M679.9,650.41h15.87M679.9,847.52v152.23M679.9,999.75h15.87M695.77,847.52h-15.87M679.9,1081.77v25.99M679.9,1115.86v11.81M679.9,1135.77v71.56M695.77,1081.77h-15.87M380.52,830.98l119.48-51.64M380.52,830.98h119.48M500,779.34h-119.48M679.9,1127.67l-39.83-11.81M640.07,1127.67l39.83-11.81M679.9,1115.86h-39.83M640.07,1127.67h39.83M679.9,1127.67v-11.81M484.14,1223.19h195.76M679.9,1207.33h-179.9M484.14,1207.33v15.86M500,1207.33v-91.47M484.14,1115.86v35.78M484.14,1159.4v47.93M797.36,653.78l-1.01,13.17M796.35,666.95l-3.37,12.83M792.97,679.77l-5.74,11.81M787.24,691.59l-7.43,10.8M779.81,702.39l-9.45,9.11M770.36,711.5l-10.47,7.43M759.9,718.92l-12.15,5.74M747.75,724.66l-12.49,3.37M735.26,728.04l-13.16,1.01M722.09,653.78h75.27M717.7,658.84v65.48M717.7,724.33h3.71M721.42,724.33v-65.48M721.42,658.84h-3.71M710.28,727.7v-72.23M722.09,658.84v65.48M715.68,658.84v65.48M715.68,727.7h-5.4M715.68,655.47h-5.4M715.68,655.47v72.23M710.28,727.7v4.05M710.28,731.75h11.81M722.09,731.75v-7.43M722.09,724.33h-6.41M715.68,724.33v3.38M715.68,727.7h-5.4M710.28,651.42v4.05M710.28,655.47h5.4M715.68,655.47v3.38M715.68,658.84h6.41M722.09,658.84v-7.43M722.09,651.42h-11.81M721.42,842.46h-3.71M721.42,736.81v105.65M717.7,736.81h3.71M717.7,842.46v-105.65M710.28,736.81v105.65M722.09,842.46v-105.65M722.09,846.51h-11.81M722.09,842.46v4.05M710.28,842.46h11.81M710.28,846.51v-4.05M722.09,736.81h-11.81M722.09,732.76v4.05M710.28,732.76h11.81M710.28,736.81v-4.05"/>
  <path class="st3" d="M722.09,1003.12l1.35,2.7M724.79,1007.85l1.35,2.03M727.16,1011.9l1.35,2.02M729.52,1015.95l1.35,2.02M731.88,1020l1.35,2.36M734.24,1024.39l1.35,2.02M736.61,1028.44l1.35,2.02M738.97,1032.49l1.35,2.02M741.67,1036.88l1.01,2.02M744.03,1040.93l1.01,2.02M746.4,1044.98l1.01,2.02M748.76,1049.03l1.01,2.36M751.12,1053.42l1.01,2.02M753.48,1057.47l1.35,2.02M755.85,1061.52l1.35,2.02M758.21,1065.57l1.69,2.7M722.09,1078.39h1.69M726.14,1078.06l2.36-.34M730.87,1077.72l2.36-.34M735.6,1077.04l2.36-.68M740.32,1076.03l2.36-.68M745.05,1074.68l2.36-.68M749.44,1072.99l2.36-1.01M753.82,1070.97l2.02-1.01M758.21,1068.94l1.69-.67M717.71,1007.85v65.48M717.71,1073.33h3.71M721.42,1073.33v-65.48M721.42,1007.85h-3.71M710.28,1077.04v-72.57M710.28,1077.04v-72.57M715.68,1077.04h-5.4M715.68,1004.47h-5.4M722.09,1004.47v72.57M722.09,1007.85v65.48M715.68,1007.85v65.48M715.68,1004.47v72.57M710.28,1077.04v3.71M710.28,1080.76h11.81M722.09,1080.76v-7.43M722.09,1073.33h-6.41M715.68,1073.33v3.71M715.68,1077.04h-5.4M710.28,1000.76v3.71M710.28,1004.47h5.4M715.68,1004.47v3.38M715.68,1007.85h6.41M722.09,1007.85v-7.09M722.09,1000.76h-11.81M722.09,1000.76v80M722.09,1080.76v-80M722.09,1078.39v-75.27M722.09,1002.45v76.28M722.09,1003.12v75.27M722.09,1004.47v72.57M722.09,1077.04v-72.57M722.09,1078.73v-76.28M722.09,1073.33v-65.48M722.09,1007.85v65.48M679.9,650.41v-97.54M679.9,552.86h-57.72M622.19,552.86v-32.4M622.19,520.46h-1.01M426.08,520.46h-1.01M425.07,520.46v32.4M380.52,552.86v218.38M380.52,771.24h127.59M508.1,970.72h-127.59M380.52,1090.88v1.01M380.52,1099.66h119.49M500,1099.66v107.67M500,1207.33h179.9M679.9,1155.35v-19.57M679.9,1127.67h-39.83M640.07,1115.86h39.83M679.9,1107.76v-25.99M679.9,1081.77h32.4M712.31,1081.77v-1.01M712.31,1000.76v-1.01M712.31,999.75h-32.4M679.9,999.75v-152.22M679.9,847.52h32.4M712.31,847.52v-1.01M712.31,732.76v-1.01M712.31,651.42v-1.02M712.31,650.41h-32.4M673.49,1223.19h-189.36M380.52,1091.89v-1.01M382.2,970.72h125.9M508.1,970.72v-5.4M508.1,965.32v-8.77M508.1,885.67v-54.68M503.04,951.15v-62.78M500,830.99h-117.8M380.52,779.34h8.1M388.62,779.34v-8.1"/>
  <path class="st3" d="M388.62,771.24h-8.1M436.55,779.34h63.45M500,779.34v-8.1M500,771.24h-63.45M436.55,771.24v8.1M436.55,779.34h-47.93M388.62,771.24h47.93M388.62,779.34v-8.1M436.55,771.24v8.1M500,771.24v59.74M508.1,830.98v-59.74M508.1,771.24h-8.1M679.9,954.52v-63.79M632.31,600.79h3.38M638.05,600.79h2.36M642.78,600.79h2.36M647.5,600.79h2.7M652.56,600.79h2.36M657.29,600.79h2.36M662.01,600.79h2.36M666.74,600.79h2.36M671.47,600.79h2.36M676.19,600.79h3.71M679.9,648.38h-3.71M673.83,648.38h-2.36M669.1,648.38h-2.36M664.38,648.38h-2.36M659.65,648.38h-2.36M654.93,648.38h-2.36M650.2,648.38h-2.7M645.14,648.38h-2.36M640.41,648.38h-2.36M635.69,648.38h-3.38M632.31,648.38v-1.01M632.31,645.01v-2.36M632.31,640.28v-2.36M632.31,635.22v-2.36M632.31,630.49v-2.36M632.31,625.77v-2.36M632.31,621.04v-2.36M632.31,616.32v-2.36M632.31,611.59v-2.36M632.31,606.53v-2.36M632.31,601.8v-1.02M500,1159.4v-1.01M500,1156.02v-2.36M500,1151.3v-2.7M500,1146.24v-2.36M500,1141.51v-2.36M500,1136.78v-2.36M500,1132.06v-2.36M500,1127.33v-2.36M500,1122.61v-2.7M500,1117.55v-2.36M500,1112.82v-1.01M547.93,1207.33h-47.93M500,1207.33v-47.93M500,1159.4h47.93"/>
  <path class="st3" d="M500,1207.33v-47.93M500,1159.4h95.86M595.86,1207.33h-95.86M631.97,1135.77v23.63M631.97,1159.4h-36.11M632.31,600.79h3.38M638.05,600.79h2.36M642.78,600.79h2.36M647.5,600.79h2.7M652.56,600.79h2.36M657.29,600.79h2.36M662.01,600.79h2.36M666.74,600.79h2.36M671.47,600.79h2.36M676.19,600.79h3.71M679.9,552.86h-3.71M673.83,552.86h-2.36M669.1,552.86h-2.36M664.38,552.86h-2.36M659.65,552.86h-2.36M654.93,552.86h-2.36M650.2,552.86h-2.7M645.14,552.86h-2.36M640.41,552.86h-2.36M635.69,552.86h-3.38M632.31,552.86v1.35M632.31,556.57v2.36M632.31,561.3v2.36M632.31,566.02v2.36M632.31,570.75v2.36M632.31,575.48v2.36M632.31,580.2v2.7M632.31,585.26v2.36M632.31,589.99v2.36M632.31,594.71v2.36M632.31,599.44v1.35M640.07,1127.67v-11.82M640.07,1107.76h-8.1M631.97,1107.76v28.01M631.97,1135.77h8.1M640.07,1115.86h39.83M679.9,1107.76h-39.83M679.9,1127.67h-39.83M640.07,1135.77h39.83M437.22,953.84l1.01-12.82M438.23,941.02l4.05-12.15M442.28,928.87l6.08-11.47M448.36,917.39l8.1-9.79M456.46,907.6l9.79-8.44M466.25,899.16l11.47-6.08M477.72,893.09l12.49-3.71M490.21,889.38l12.82-1.01M501.69,885.66h6.41M508.1,956.54h-6.41M503.04,950.81v3.04M503.04,953.84h-65.82M503.04,950.81v-62.44"/>
  <path class="st3" d="M501.69,837.4v48.27M388.62,837.4v126.57M380.52,779.34v51.64M501.69,956.54v7.43M501.69,963.97h-113.07M501.69,837.4h-113.07"/>
  <path class="st3" d="M726.48,1223.19v-141.42M726.48,1081.77h-30.71M726.48,999.75v-152.22M726.48,847.52h-30.71M695.77,999.75h30.71M726.48,650.41v-144.12M726.48,506.28h-30.71M695.77,650.41h30.71M726.48,650.41v197.12M726.48,999.75v82.02M726.48,650.41h-8.77M717.71,650.41v1.01M717.71,731.75v1.01M717.71,846.51v1.01M717.71,847.52h8.77M726.48,999.75h-8.77M717.71,999.75v1.01M717.71,1080.76v1.01M717.71,1081.77h8.77M717.71,847.52v-1.01M717.71,732.76v-1.01M717.71,651.42v-1.01M712.31,650.41h5.4M717.71,847.52h-5.4M717.71,1081.77v-1.01M717.71,1000.76v-1.01M712.31,999.75h5.4M717.71,1081.77h-5.4M425.07,537v-30.72M425.07,506.28h-62.1M695.77,506.28h-73.58M622.19,506.28v30.72M425.07,506.28h197.12M622.19,515.06h-1.02M426.08,515.06h-1.01M425.07,520.46v-5.4"/>
  <path class="st3" d="M622.19,515.06v5.4M622.19,515.06v-8.78M425.07,506.28v8.78M425.07,515.06h1.01M621.17,515.06h1.01M484.14,1223.19v-107.34M484.14,1115.86h-121.17M726.48,1223.19h-52.99M726.48,1197.88v25.32M362.96,506.28h363.52"/>
  <g class="st4">
    <path class="st2" d="M1079.2,579.19h-6.07M1055.57,499.87l-16.2,7.09M1043.76,524.51l-4.38-17.55M1016.08,495.82l27.68,28.69M1016.08,495.82l39.49,4.05M1016.08,495.82l23.29,11.14M1079.2,818.5h-6.07M1079.2,658.84h-6.07M1079.2,738.5h-6.07M1079.2,818.5v-239.31M-47.13,1278.21h1183.71"/>
    <path d="M1057.81,1227.3c.43-.28.75-.67.96-1.17.21-.5.32-1.12.32-1.85,0-.58-.11-1.1-.32-1.57-.21-.47-.5-.82-.89-1.07-.38-.25-.78-.37-1.21-.37s-.81.11-1.14.34c-.33.23-.61.58-.82,1.05-.15.33-.32.93-.51,1.8-.19.87-.39,1.42-.57,1.62-.19.21-.43.32-.72.32-.33,0-.62-.15-.85-.45-.24-.3-.36-.77-.36-1.42s.13-1.1.39-1.42c.26-.32.64-.51,1.16-.56l-.07-1.03c-.47.02-.9.15-1.27.4-.37.25-.65.6-.85,1.06-.19.46-.29.99-.29,1.59,0,.55.09,1.05.27,1.49.18.45.45.79.81,1.02.35.23.73.35,1.14.35.37,0,.71-.1,1-.28.3-.19.55-.48.75-.87.16-.3.33-.82.5-1.57.18-.75.31-1.23.4-1.45.13-.34.28-.59.47-.73.19-.15.41-.22.66-.22s.48.08.69.23c.21.15.37.39.49.7.12.31.18.68.18,1.09,0,.46-.08.88-.24,1.25-.16.37-.37.65-.62.82s-.59.29-.99.34l.09,1.01c.54-.02,1.02-.16,1.45-.45M1058.95,1218.58h-2.79l-1.29-1.33,4.08-2.9v-1.42l-4.79,3.57-3.26-3.41v1.46l3.99,4.04h-3.99v1.08h8.06v-1.08Z"/>
    <path d="M1053.28,1209.06h.92v-5.37h-.92v5.37ZM1055.73,1209.06h.92v-5.37h-.92v5.37Z"/>
    <path d="M1057.81,1198.95c.43-.28.75-.67.96-1.17.21-.5.32-1.11.32-1.85,0-.58-.1-1.1-.31-1.57-.21-.47-.51-.82-.89-1.07-.38-.25-.78-.37-1.21-.37s-.81.11-1.14.34c-.33.23-.61.57-.82,1.05-.15.33-.32.92-.51,1.8-.2.88-.39,1.42-.57,1.62-.19.21-.43.32-.72.32-.34,0-.62-.15-.86-.45-.23-.3-.35-.77-.35-1.42s.13-1.1.39-1.42c.26-.32.64-.51,1.16-.56l-.08-1.03c-.47.02-.9.15-1.27.4-.37.25-.66.61-.85,1.06-.19.46-.29.99-.29,1.6,0,.55.09,1.04.27,1.49.18.45.45.79.8,1.02.36.23.73.35,1.14.35.37,0,.7-.1,1-.29.3-.19.55-.48.75-.87.15-.3.32-.83.5-1.57.18-.75.31-1.23.39-1.45.13-.34.29-.58.48-.73.19-.15.41-.22.66-.22s.48.07.69.23c.21.15.38.39.5.7.12.31.18.68.18,1.09,0,.46-.08.88-.24,1.25-.16.37-.37.64-.63.82-.26.17-.59.29-.99.34l.09,1.01c.54-.01,1.02-.16,1.45-.44"/>
    <path d="M1058.95,1190.72h-2.31l-.67-.7,2.99-1.95v-1.23l-3.67,2.48-2.17-2.25v1.29l2.38,2.36h-4.6v1h8.06v-1ZM1058.95,1181.6v-1.04c-.22.13-.46.21-.7.25-.24.04-.83.06-1.74.06h-1.32c-.44,0-.75.02-.91.05-.27.06-.49.16-.67.31-.18.15-.33.38-.44.69-.12.31-.18.72-.18,1.23s.07.95.21,1.33c.14.39.33.68.59.88.25.21.59.35,1,.44l.13-.98c-.42-.11-.7-.27-.87-.5-.16-.22-.24-.57-.24-1.04,0-.5.11-.88.33-1.14.17-.19.45-.28.85-.28.04,0,.12,0,.26,0,.13.38.24.97.34,1.78.05.4.09.69.15.89.07.27.18.51.33.72.14.21.33.39.57.52.24.13.5.2.78.2.49,0,.89-.17,1.2-.52.32-.35.47-.85.47-1.49,0-.39-.07-.76-.19-1.1-.13-.34-.35-.7-.66-1.07.27-.03.51-.09.72-.2M1056.38,1181.88c.44,0,.77.05.99.16.29.14.52.36.68.66.17.3.25.64.25,1.03s-.09.69-.26.89c-.18.2-.39.3-.66.3-.18,0-.33-.05-.47-.14-.14-.09-.25-.22-.33-.39-.07-.17-.14-.46-.2-.87-.1-.72-.22-1.27-.37-1.63h.36Z"/>
    <path d="M1058.95,1178.57h-2.31l-.67-.7,2.99-1.95v-1.23l-3.67,2.48-2.16-2.25v1.29l2.38,2.36h-4.6v1h8.06v-1ZM1058.1,1172.09c0,.15-.03.26-.07.34-.05.08-.11.14-.19.17-.08.03-.26.05-.54.05h-3.41v-1h-.77v1h-2.04l.59.99h1.45v.73h.77v-.73h3.36c.6,0,.98-.04,1.17-.12.19-.08.34-.22.45-.42.11-.2.17-.48.17-.84,0-.22-.03-.47-.09-.76l-.88.14c.03.18.04.33.04.44"/>
    <path d="M1072.11,1226.25h-3.66v-3.82h-.95v3.82h-2.49v-4.41h-.95v5.49h8.06v-1.08ZM1070.97,1220.55c.43-.28.75-.67.96-1.17.21-.5.32-1.11.32-1.85,0-.58-.1-1.11-.31-1.57-.21-.46-.51-.82-.89-1.07-.38-.25-.78-.37-1.21-.37s-.81.11-1.14.34c-.33.23-.61.58-.83,1.05-.14.33-.32.93-.51,1.8-.2.88-.39,1.42-.57,1.63-.19.21-.43.31-.72.31-.33,0-.62-.15-.85-.45-.23-.3-.35-.77-.35-1.42s.13-1.1.39-1.42c.26-.32.64-.51,1.16-.56l-.08-1.03c-.47.02-.9.15-1.27.4-.37.25-.66.6-.85,1.07-.19.46-.29.99-.29,1.59,0,.55.09,1.05.27,1.49.19.45.45.79.81,1.02.35.24.73.35,1.14.35.37,0,.7-.1,1-.29.3-.19.55-.48.75-.87.16-.3.33-.83.5-1.57.18-.74.31-1.23.4-1.45.13-.34.28-.59.48-.73.19-.15.41-.22.66-.22s.48.07.69.23c.21.15.38.39.5.7.12.31.18.68.18,1.09,0,.46-.08.88-.24,1.25-.16.37-.37.64-.63.82-.26.17-.59.29-.99.34l.09,1.01c.54-.01,1.02-.16,1.45-.45"/>
    <path d="M1066.45,1210.07h.92v-5.37h-.92v5.37ZM1068.9,1210.07h.92v-5.37h-.92v5.37Z"/>
    <polygon points="1072.11 1198.91 1068.45 1198.91 1068.45 1195.09 1067.5 1195.09 1067.5 1198.91 1065 1198.91 1065 1194.5 1064.05 1194.5 1064.05 1199.99 1072.11 1199.99 1072.11 1198.91"/>
    <path d="M1071.46,1192.69c.52-.51.79-1.18.79-2,0-.52-.12-.99-.36-1.43-.24-.43-.57-.76-1-.99-.43-.23-1.02-.34-1.77-.34-.93,0-1.65.26-2.18.77-.53.51-.79,1.18-.79,1.99,0,.73.22,1.34.65,1.85.52.61,1.32.91,2.4.91.98,0,1.74-.25,2.26-.76M1067.52,1191.93c-.37-.33-.55-.74-.55-1.24s.19-.9.56-1.24c.37-.33.92-.5,1.64-.5.77,0,1.34.17,1.71.49.38.33.56.75.56,1.24s-.19.91-.56,1.24c-.37.33-.93.49-1.68.49s-1.31-.16-1.68-.49M1072.11,1186.02h-3.05c-.42,0-.81-.06-1.16-.16-.23-.07-.41-.2-.54-.37-.13-.18-.2-.37-.2-.59,0-.24.07-.49.21-.73l-.92-.34c-.21.35-.32.69-.32,1.03,0,.23.07.44.2.64.13.19.4.41.82.63h-.89v.9h5.84v-1Z"/>
    <path d="M1071.14,1179.87c.19.26.28.57.28.94,0,.49-.17.9-.51,1.23-.34.33-.83.51-1.48.55v-4.39c-.11,0-.2,0-.26,0-.97,0-1.71.25-2.24.75-.53.5-.8,1.14-.8,1.93s.27,1.47.81,1.98c.54.51,1.31.77,2.29.77s1.69-.25,2.21-.76c.53-.5.79-1.19.79-2.05,0-.68-.17-1.25-.5-1.69-.33-.44-.79-.74-1.39-.9l-.13,1.03c.42.15.72.36.91.62M1067.41,1182.02c-.31-.31-.46-.7-.46-1.16,0-.51.19-.92.57-1.24.25-.21.62-.33,1.11-.38v3.29c-.51-.03-.91-.21-1.22-.52M1071.77,1176.51c.32-.4.47-.98.47-1.75,0-.46-.08-.88-.24-1.24-.16-.37-.38-.65-.68-.84-.29-.19-.6-.29-.93-.29s-.62.08-.85.24c-.23.16-.4.38-.52.66-.12.28-.27.77-.46,1.48-.13.49-.22.78-.25.88-.07.18-.16.3-.27.38-.1.08-.22.12-.35.12-.2,0-.38-.1-.53-.29-.15-.2-.22-.52-.22-.98,0-.39.08-.69.25-.9.17-.21.4-.34.71-.39l-.13-.97c-.38.06-.68.18-.9.34-.22.17-.41.42-.54.77-.13.35-.2.76-.2,1.22,0,.31.04.6.12.87.08.27.18.48.29.63.15.21.33.37.55.49.22.12.46.18.72.18.28,0,.55-.07.78-.22.23-.15.42-.36.55-.65.13-.28.29-.79.48-1.52.14-.55.25-.89.33-1.02.13-.2.31-.29.53-.29.25,0,.47.11.65.33.19.22.28.56.28,1.02s-.1.81-.31,1.06c-.21.25-.51.41-.9.47l.16.99c.62-.11,1.09-.37,1.4-.77M1064.05,1171.13h8.06v-1h-8.06v1ZM1072.11,1164.44v-1.04c-.22.13-.46.21-.7.26-.24.04-.83.06-1.74.06h-1.32c-.44,0-.74.02-.91.05-.27.06-.5.17-.67.31-.18.15-.33.38-.44.69-.12.31-.18.72-.18,1.22s.07.95.21,1.34c.14.39.33.68.59.88.25.21.59.35,1,.44l.13-.98c-.42-.11-.7-.27-.87-.5-.17-.22-.24-.57-.24-1.04,0-.5.11-.88.34-1.14.16-.19.45-.28.85-.28.04,0,.12,0,.26,0,.13.38.24.97.34,1.78.05.4.1.69.15.89.07.27.18.51.32.72.15.21.33.39.57.52.24.13.5.2.78.2.49,0,.89-.17,1.2-.52.31-.35.47-.85.47-1.49,0-.39-.06-.76-.19-1.1-.13-.34-.35-.7-.66-1.07.27-.03.51-.09.72-.2M1069.54,1164.73c.44,0,.77.06.99.16.29.14.52.36.69.66.16.3.25.64.25,1.03s-.09.69-.26.89c-.18.2-.39.3-.66.3-.17,0-.33-.05-.47-.14-.14-.09-.25-.22-.32-.39-.07-.17-.14-.46-.2-.87-.1-.72-.22-1.27-.37-1.63h.36ZM1065.49,1166.82c.2-.2.29-.43.29-.71s-.1-.5-.29-.7c-.2-.19-.44-.29-.72-.29s-.52.1-.71.29c-.2.2-.29.43-.29.7s.1.51.29.7.42.3.69.3c.29,0,.54-.1.74-.29M1064.35,1166.52c-.11-.12-.17-.26-.17-.41s.06-.3.18-.42c.12-.11.26-.17.43-.17s.3.06.42.17c.12.12.17.26.17.42s-.06.3-.17.41c-.12.12-.26.17-.44.17-.16,0-.3-.06-.42-.17M1071.14,1158.66c.19.26.28.57.28.94,0,.49-.17.9-.51,1.23-.34.33-.83.51-1.48.55v-4.39c-.11,0-.2,0-.26,0-.97,0-1.71.25-2.24.75-.53.5-.8,1.15-.8,1.93s.27,1.47.81,1.98c.54.51,1.31.76,2.29.76s1.69-.25,2.21-.76c.53-.5.79-1.19.79-2.05,0-.69-.17-1.25-.5-1.69-.33-.44-.79-.74-1.39-.9l-.13,1.03c.42.15.72.36.91.62M1067.41,1160.8c-.31-.31-.46-.7-.46-1.16,0-.5.19-.92.57-1.24.25-.21.62-.33,1.11-.38v3.29c-.51-.03-.91-.21-1.22-.52"/>
    <path d="M1071.27,1153.87c0,.15-.03.26-.07.34-.05.08-.11.14-.19.17-.08.03-.26.05-.54.05h-3.41v-1h-.77v1h-2.04l.59,1h1.45v.73h.77v-.73h3.36c.6,0,.99-.04,1.17-.12.18-.08.33-.22.45-.42s.17-.48.17-.84c0-.22-.03-.47-.09-.75l-.87.14c.03.18.04.33.04.44M1071.77,1149.18c.32-.4.47-.98.47-1.75,0-.46-.08-.88-.24-1.25-.16-.36-.38-.64-.67-.84-.29-.2-.6-.29-.93-.29s-.62.08-.85.24c-.23.16-.4.38-.52.66-.12.28-.27.77-.46,1.48-.14.49-.22.78-.26.88-.07.18-.15.3-.26.39-.1.08-.21.12-.35.12-.2,0-.38-.1-.53-.29s-.22-.53-.22-.98c0-.39.08-.69.25-.9.17-.21.4-.34.7-.39l-.13-.98c-.38.07-.68.18-.9.35s-.4.42-.54.77c-.13.35-.2.76-.2,1.22,0,.31.04.59.12.86.08.27.18.48.29.63.15.21.33.37.55.49.22.12.46.18.72.18.29,0,.55-.07.78-.22.24-.14.42-.36.56-.64.13-.28.29-.79.48-1.52.13-.54.25-.88.34-1.02.13-.2.31-.3.53-.3.25,0,.47.11.65.33.19.22.28.56.28,1.02s-.11.81-.32,1.06c-.21.25-.51.41-.9.46l.15.99c.62-.11,1.09-.37,1.4-.77"/>
    <path d="M1072.11,1142.46h-2.31l-.67-.7,2.99-1.95v-1.23l-3.67,2.48-2.17-2.25v1.29l2.38,2.36h-4.6v1h8.06v-1ZM1072.11,1133.68v-1.04c-.22.13-.46.21-.7.25-.25.04-.83.06-1.75.06h-1.32c-.44,0-.74.02-.91.05-.27.06-.5.16-.67.31-.18.15-.33.38-.44.69-.12.31-.18.72-.18,1.23s.07.95.21,1.33c.14.39.34.68.59.88.25.21.59.35,1,.44l.13-.98c-.41-.11-.7-.27-.87-.5-.16-.22-.24-.57-.24-1.04,0-.5.11-.88.33-1.14.17-.19.45-.28.85-.28.04,0,.12,0,.26,0,.13.38.25.97.35,1.78.05.4.09.69.15.89.07.27.18.51.33.72.14.21.33.39.57.52.23.13.49.2.78.2.49,0,.89-.17,1.2-.52.31-.35.47-.85.47-1.49,0-.39-.07-.76-.19-1.1-.13-.34-.35-.7-.66-1.07.27-.03.51-.09.72-.2M1069.54,1133.96c.44,0,.77.05.99.16.29.14.52.36.69.66.17.3.25.64.25,1.03s-.09.69-.26.89c-.18.2-.39.3-.66.3-.17,0-.33-.05-.47-.14-.14-.09-.25-.22-.32-.39-.07-.17-.14-.46-.2-.87-.1-.72-.23-1.27-.37-1.63h.36Z"/>
    <path d="M1071.38,1130.73c.57-.4.86-.94.86-1.64s-.27-1.3-.82-1.8c-.55-.5-1.32-.75-2.32-.75-.42,0-.82.06-1.19.18-.37.12-.68.28-.95.49-.26.21-.47.48-.61.8-.15.32-.22.67-.22,1.03,0,.65.26,1.19.79,1.62h-2.88v1h8.06v-.93h-.73ZM1067.52,1130.26c-.37-.32-.56-.69-.56-1.13s.18-.8.54-1.11c.36-.31.93-.46,1.69-.46s1.3.16,1.68.48c.38.32.56.69.56,1.13,0,.54-.25.96-.76,1.27-.31.19-.82.29-1.52.29s-1.25-.16-1.63-.48"/>
    <path d="M1071.08,819.92c.56-.45.83-1.06.83-1.85,0-.6-.16-1.09-.48-1.48-.32-.39-.76-.68-1.34-.88-.58-.2-1.34-.29-2.29-.29-.8,0-1.43.06-1.9.18-.47.12-.87.29-1.2.5-.33.21-.58.49-.76.81-.17.33-.26.71-.26,1.15,0,.59.15,1.08.47,1.47.31.39.76.68,1.34.88.58.2,1.35.3,2.3.3,1.51,0,2.61-.27,3.28-.8M1065.08,819.18c-.38-.28-.58-.64-.58-1.1s.22-.86.65-1.17,1.32-.47,2.64-.47,2.2.16,2.64.47.66.7.66,1.16-.22.84-.65,1.16c-.44.31-1.32.47-2.64.47s-2.23-.17-2.72-.51M1070.82,666.23c-.18-.11-.36-.25-.53-.42-.18-.17-.52-.55-1.02-1.15-.6-.72-1.07-1.23-1.42-1.54-.35-.31-.67-.53-.98-.66-.31-.13-.63-.2-.95-.2-.63,0-1.17.23-1.6.68-.43.46-.64,1.07-.64,1.86s.2,1.39.59,1.85c.4.46.98.73,1.74.8l.11-1.03c-.51,0-.9-.15-1.19-.44-.29-.29-.43-.68-.43-1.16,0-.46.13-.83.4-1.11.27-.28.6-.43.99-.43s.77.16,1.19.47c.42.31.99.91,1.71,1.79.46.57.87,1.01,1.22,1.31.35.3.71.52,1.07.66.22.08.45.12.69.11v-5.38h-.95v3.99Z"/>
    <path d="M1071.77,660.14h-3.03c-.53,0-.94-.05-1.22-.16-.28-.11-.5-.28-.64-.52-.15-.24-.22-.5-.22-.78,0-.37.11-.64.33-.8.22-.16.55-.24.99-.24h3.79v-1h-3.39c-.6,0-1.04-.14-1.31-.41-.27-.28-.41-.62-.41-1.04,0-.23.06-.43.16-.6.11-.17.25-.29.42-.35.17-.07.46-.1.86-.1h3.68v-1h-4.01c-.66,0-1.16.16-1.48.47-.32.31-.48.76-.48,1.35,0,.75.34,1.35,1.02,1.82-.32.11-.57.31-.75.59-.18.28-.27.64-.27,1.07,0,.39.08.74.26,1.05.17.31.4.55.69.74h-.82v.9h5.84v-1Z"/>
    <path d="M1063.68,741.02v.64c.35.17.71.47,1.08.89.37.42.68.9.94,1.46h.95c-.11-.31-.28-.66-.51-1.05s-.46-.7-.68-.95h6.31v-1h-8.09ZM1071.77,737.09h-3.03c-.53,0-.94-.05-1.22-.16-.28-.11-.5-.28-.64-.52-.15-.24-.22-.5-.22-.78,0-.37.11-.63.33-.8.22-.16.55-.24.99-.24h3.79v-1h-3.39c-.6,0-1.04-.14-1.31-.41-.27-.27-.41-.62-.41-1.03,0-.23.06-.43.16-.6.11-.17.25-.29.42-.35.17-.07.46-.1.86-.1h3.68v-.99h-4.01c-.66,0-1.16.16-1.48.47-.32.31-.48.76-.48,1.35,0,.75.34,1.35,1.02,1.82-.32.11-.57.31-.75.59-.18.28-.27.64-.27,1.07,0,.39.08.74.26,1.05.17.31.4.55.69.74h-.82v.89h5.84v-1Z"/>
    <path d="M1071.77,915.85h-6.86l6.86-2.35v-.97l-6.74-2.36h6.74v-1.04h-8.06v1.45l5.61,1.94c.57.2,1,.34,1.29.44-.26.08-.66.21-1.19.39l-5.71,1.92v1.62h8.06v-1.04ZM1071.77,903.82v-1.04c-.22.13-.46.21-.7.25-.24.04-.83.06-1.74.06h-1.32c-.44,0-.75.02-.91.05-.27.06-.49.16-.67.31-.18.15-.33.38-.44.69-.12.31-.18.72-.18,1.23s.07.95.21,1.34c.14.39.33.68.59.88.25.21.59.35,1,.44l.13-.98c-.41-.11-.7-.27-.87-.49-.16-.22-.24-.57-.24-1.04,0-.5.11-.88.34-1.14.16-.19.45-.28.85-.28.04,0,.12,0,.26,0,.13.38.25.97.34,1.78.05.4.1.69.15.89.07.26.18.5.33.72.14.21.33.38.57.51.23.13.5.2.78.2.49,0,.89-.18,1.2-.52.32-.35.47-.85.47-1.49,0-.39-.07-.76-.19-1.1-.13-.34-.35-.7-.66-1.07.27-.03.51-.1.72-.2M1069.21,904.1c.44,0,.76.06.99.16.29.14.52.36.68.66.17.3.25.64.25,1.03s-.09.68-.26.88c-.18.2-.4.3-.66.3-.17,0-.33-.05-.47-.14-.14-.09-.25-.22-.32-.39-.07-.17-.14-.46-.2-.87-.1-.72-.22-1.27-.37-1.63h.36ZM1065.15,906.19c.2-.2.29-.43.29-.71s-.09-.5-.29-.7c-.19-.2-.43-.29-.71-.29s-.52.1-.71.29c-.2.2-.3.43-.3.7s.1.5.29.7c.2.2.43.3.69.3.29,0,.54-.1.73-.29M1064.01,905.89c-.11-.12-.17-.26-.17-.41s.06-.3.18-.42c.12-.11.26-.17.42-.17s.31.06.42.18c.11.12.18.25.18.42s-.06.29-.18.41c-.12.12-.26.18-.44.18-.16,0-.3-.06-.41-.18"/>
    <rect x="1063.71" y="900.48" width="8.06" height="1"/>
    <path d="M1063.68,892.23v.64c.35.17.71.47,1.08.89.37.42.69.9.94,1.46h.96c-.12-.31-.29-.66-.51-1.05-.23-.39-.46-.7-.69-.95h6.31v-1h-8.09ZM1065.94,889.03h1.13v-1.14h-1.13v1.14ZM1070.65,889.03h1.13v-1.14h-1.13v1.14Z"/>
    <path d="M1071.3,885.74c.41-.47.62-1.07.62-1.81,0-.9-.33-1.61-.98-2.14-.53-.43-1.16-.64-1.89-.64s-1.39.25-1.88.73c-.49.49-.73,1.09-.73,1.8,0,.54.17,1.05.51,1.54l-2.16-.44v-3.25h-.95v4.05l4.14.79.12-.94c-.23-.15-.42-.35-.57-.61-.14-.26-.21-.55-.21-.87,0-.52.16-.94.49-1.26.33-.32.77-.48,1.33-.48s1.07.17,1.43.5c.36.33.54.74.54,1.22,0,.4-.13.74-.38,1.03-.25.28-.63.46-1.14.54l.09,1.05c.68-.07,1.22-.34,1.63-.8M1071.08,879.33c.56-.45.84-1.06.84-1.85,0-.6-.16-1.09-.48-1.48-.32-.39-.76-.68-1.35-.88-.58-.2-1.34-.3-2.29-.3-.8,0-1.43.06-1.9.18-.47.12-.87.29-1.2.5-.33.21-.58.49-.76.82-.17.33-.26.71-.26,1.15,0,.59.16,1.08.47,1.47.31.39.76.68,1.34.88.58.2,1.35.3,2.3.3,1.51,0,2.61-.27,3.27-.8M1065.08,878.59c-.38-.27-.58-.64-.58-1.1s.22-.86.65-1.17c.43-.31,1.32-.47,2.64-.47s2.2.15,2.64.47c.44.31.66.7.66,1.16s-.22.85-.66,1.16c-.44.31-1.32.47-2.64.47s-2.23-.17-2.72-.51"/>
    <polygon class="st15" points="1071.77 528.9 1049.16 517.76 1055.91 503.24 1078.86 514.38 1071.77 528.9"/>
    <polygon points="1069.02 523.15 1057.68 517.66 1072.71 515.54 1073.66 513.57 1059.22 506.58 1058.33 508.42 1069.67 513.91 1054.65 516.03 1053.69 518 1068.13 524.99 1069.02 523.15"/>
    <path d="M1071.28,587.02c.42-.47.64-1.07.64-1.78,0-.79-.25-1.45-.74-1.97-.49-.52-1.09-.77-1.79-.77-.52,0-.95.13-1.3.4-.35.27-.58.64-.69,1.12-.17-.37-.39-.65-.68-.84-.29-.19-.61-.28-.95-.28-.37,0-.71.1-1.04.3-.33.2-.59.49-.77.86-.19.37-.28.78-.28,1.22,0,.64.18,1.18.55,1.62.36.43.88.71,1.54.83l.18-1c-.48-.07-.85-.24-1.09-.5-.24-.26-.36-.58-.36-.97s.12-.71.36-.96c.24-.25.54-.37.9-.37.46,0,.8.17,1.02.51.22.34.33.72.33,1.15,0,.04,0,.09,0,.16l.87.11c-.07-.28-.11-.52-.11-.7,0-.47.15-.85.44-1.15.3-.3.67-.45,1.13-.45s.88.16,1.2.48c.32.33.49.72.49,1.19,0,.4-.13.73-.37,1.01-.25.28-.65.47-1.21.59l.13,1c.67-.07,1.22-.34,1.64-.8M1071.77,580.48h-3.03c-.53,0-.94-.05-1.22-.16-.28-.1-.5-.28-.64-.52s-.22-.5-.22-.78c0-.37.11-.63.33-.8.22-.16.55-.24.99-.24h3.79v-1h-3.39c-.6,0-1.04-.14-1.31-.41-.27-.27-.41-.62-.41-1.04,0-.23.06-.42.16-.6.11-.17.25-.29.42-.35.17-.07.46-.1.86-.1h3.68v-.99h-4.01c-.66,0-1.16.16-1.48.47-.32.31-.48.76-.48,1.35,0,.75.34,1.35,1.02,1.82-.32.11-.57.31-.75.59-.18.28-.27.64-.27,1.07,0,.39.08.74.26,1.05.17.31.4.55.69.74h-.82v.89h5.84v-1Z"/>
    <rect class="st15" x="-10.68" y="1154.34" width="18.9" height="102.27"/>
    <path d="M-7.23,1250.33v.95c.52.26,1.05.7,1.61,1.32s1.02,1.34,1.41,2.17h1.43c-.17-.46-.42-.98-.76-1.56-.34-.58-.68-1.04-1.01-1.4H4.85v-1.48H-7.23ZM3.17,1245.62h1.68v-1.69h-1.68v1.69ZM3.14,1240.97c.64-.42,1.11-1,1.43-1.74.32-.74.48-1.65.48-2.74,0-.86-.16-1.64-.47-2.32-.31-.69-.76-1.22-1.32-1.59-.56-.37-1.17-.55-1.81-.55s-1.22.17-1.71.5c-.49.33-.9.85-1.23,1.56-.22.48-.47,1.37-.77,2.67-.29,1.3-.58,2.1-.86,2.41-.28.31-.64.47-1.07.47-.5,0-.92-.22-1.28-.66-.35-.44-.53-1.15-.53-2.11s.19-1.63.58-2.11c.39-.47.96-.75,1.72-.83l-.11-1.53c-.71.03-1.34.23-1.9.59-.56.37-.98.89-1.27,1.58-.29.68-.43,1.47-.43,2.36,0,.81.13,1.55.41,2.21.27.66.67,1.17,1.2,1.52.53.35,1.09.52,1.7.52.56,0,1.05-.14,1.5-.42.45-.28.82-.71,1.12-1.29.24-.44.49-1.22.75-2.33.27-1.11.46-1.82.59-2.15.19-.5.43-.87.71-1.08.28-.22.61-.33.99-.33s.71.11,1.03.34c.31.23.56.58.74,1.04.18.47.27,1.01.27,1.61,0,.69-.12,1.3-.36,1.85-.24.55-.55.95-.94,1.22-.38.26-.88.43-1.48.5l.13,1.51c.8-.02,1.52-.24,2.16-.66M4.85,1223.95v-1.55c-.33.19-.68.31-1.04.38-.37.06-1.23.1-2.6.1H-.77c-.66,0-1.11.02-1.36.07-.41.09-.74.24-1.01.46-.27.22-.49.56-.66,1.03-.18.46-.27,1.07-.27,1.82s.1,1.41.31,1.98c.21.57.5,1.01.88,1.31.38.3.88.52,1.5.65l.2-1.45c-.62-.16-1.05-.41-1.29-.73-.24-.33-.36-.85-.36-1.55,0-.74.17-1.31.5-1.69.24-.28.67-.42,1.27-.42.05,0,.18,0,.39,0,.19.56.37,1.45.51,2.64.07.59.14,1.02.22,1.32.11.39.27.75.48,1.07.21.32.5.57.85.76.35.19.74.29,1.17.29.73,0,1.32-.26,1.79-.77.47-.52.7-1.25.7-2.22,0-.58-.09-1.12-.29-1.63-.19-.51-.52-1.04-.98-1.58.41-.04.77-.14,1.08-.3M1.02,1224.37c.65,0,1.14.08,1.48.24.43.21.77.53,1.02.98.25.44.37.95.37,1.52s-.13,1.01-.39,1.31c-.26.3-.59.45-.99.45-.26,0-.49-.07-.7-.21-.21-.14-.37-.33-.48-.59-.11-.25-.21-.68-.3-1.29-.15-1.08-.34-1.88-.56-2.42h.54ZM-7.18,1220.53H4.85v-1.48H-7.18v1.48ZM-3.86,1216.25h1.68v-1.69h-1.68v1.69ZM3.17,1216.25h1.68v-1.69h-1.68v1.69ZM-6.43,1200.95c-.53.61-.8,1.39-.8,2.34,0,1.27.46,2.28,1.38,3.03,1.05.86,2.74,1.29,5.07,1.29,2.08,0,3.57-.39,4.48-1.17.91-.78,1.36-1.79,1.36-3.02,0-.72-.17-1.37-.52-1.94s-.84-1.02-1.49-1.34c-.65-.33-1.35-.49-2.11-.49-1.15,0-2.08.35-2.81,1.04-.72.69-1.08,1.53-1.08,2.52,0,.56.13,1.11.39,1.62.26.51.67.95,1.21,1.31-1.2-.01-2.13-.15-2.78-.42-.65-.26-1.15-.63-1.49-1.1-.26-.35-.39-.77-.39-1.24,0-.59.21-1.08.63-1.48.26-.24.68-.43,1.26-.56l-.11-1.47c-.94.12-1.67.49-2.2,1.09M-.93,1205.21c-.48-.47-.72-1.03-.72-1.7s.24-1.23.72-1.68c.48-.44,1.13-.67,1.96-.67s1.55.22,2.05.68c.5.45.76.99.76,1.61,0,.43-.12.83-.37,1.23-.24.39-.59.69-1.06.91-.47.22-.95.33-1.46.33-.77,0-1.4-.23-1.88-.7M3.17,1197.26h1.68v-1.68h-1.68v1.68ZM4.85,1188.19c0-.77-.07-1.42-.2-1.95-.14-.53-.33-.97-.59-1.32-.26-.35-.64-.64-1.12-.89-.49-.24-1.01-.36-1.57-.36-.7,0-1.31.2-1.82.59-.51.39-.88.95-1.09,1.68-.28-.56-.64-.99-1.1-1.27-.45-.28-.94-.42-1.45-.42-.55,0-1.08.16-1.59.47-.5.32-.88.75-1.12,1.31-.24.56-.36,1.3-.36,2.22v4.52H4.85v-4.6ZM-5.76,1191.19v-2.41c0-.87.06-1.48.17-1.83.11-.36.32-.63.62-.82.31-.19.66-.29,1.05-.29.42,0,.77.11,1.05.31.28.21.48.51.6.92.09.31.14.81.14,1.52v2.61h-3.64ZM-.71,1191.19v-2.79c0-.77.07-1.36.2-1.76.13-.41.37-.73.7-.96.33-.23.72-.35,1.17-.35.38,0,.72.08,1.01.24.29.16.51.36.67.61.15.25.26.55.33.92.04.21.06.57.06,1.08v3H-.71ZM3.17,1181.17h1.68v-1.68h-1.68v1.68ZM-7.23,1171.65v.96c.52.26,1.05.69,1.61,1.32.55.62,1.02,1.34,1.41,2.17h1.43c-.17-.46-.42-.98-.76-1.56-.34-.58-.68-1.05-1.01-1.4H4.85v-1.48H-7.23ZM3.17,1166.95h1.68v-1.69h-1.68v1.69ZM-7.23,1157.43v.96c.52.26,1.05.69,1.61,1.32.55.62,1.02,1.34,1.41,2.17h1.43c-.17-.46-.42-.98-.76-1.56-.34-.58-.68-1.05-1.01-1.41H4.85v-1.48H-7.23Z"/>
    <rect class="st15" x="11.26" y="1154.34" width="18.9" height="102.27"/>
    <path d="M25.37,1254.04c-.27-.16-.53-.37-.8-.62-.26-.25-.77-.82-1.51-1.71-.9-1.06-1.6-1.83-2.12-2.29-.51-.46-1-.78-1.47-.98s-.94-.3-1.42-.3c-.95,0-1.74.34-2.38,1.01-.64.67-.96,1.59-.96,2.75s.3,2.06.89,2.74c.59.68,1.46,1.07,2.59,1.18l.16-1.52c-.76,0-1.35-.22-1.77-.65-.43-.43-.64-1-.64-1.71,0-.67.2-1.22.6-1.64.4-.42.9-.63,1.48-.63s1.15.23,1.77.69c.62.46,1.48,1.35,2.55,2.66.69.85,1.29,1.49,1.82,1.94s1.06.77,1.6.97c.33.12.67.18,1.03.17v-7.97h-1.42v5.92ZM25.11,1245.62h1.68v-1.69h-1.68v1.69ZM25.08,1240.97c.64-.42,1.11-1,1.43-1.74.32-.74.48-1.65.48-2.74,0-.86-.16-1.64-.47-2.32-.31-.69-.76-1.22-1.32-1.59-.56-.37-1.17-.55-1.81-.55s-1.22.17-1.71.5c-.5.33-.9.85-1.23,1.56-.22.48-.47,1.37-.77,2.67-.29,1.3-.58,2.1-.86,2.41-.28.31-.64.47-1.07.47-.5,0-.92-.22-1.28-.66-.35-.44-.53-1.15-.53-2.11s.19-1.63.59-2.11c.39-.47.96-.75,1.72-.83l-.11-1.53c-.71.03-1.34.23-1.9.59-.56.37-.98.89-1.27,1.58-.29.68-.43,1.47-.43,2.36,0,.81.13,1.55.41,2.21.27.66.67,1.17,1.2,1.52.53.35,1.09.52,1.7.52.55,0,1.05-.14,1.5-.42.45-.28.82-.71,1.12-1.29.24-.44.49-1.22.75-2.33.27-1.11.46-1.82.59-2.15.19-.5.43-.87.71-1.08.28-.22.61-.33.99-.33s.71.11,1.03.34c.31.23.56.58.74,1.04.18.47.27,1.01.27,1.61,0,.69-.12,1.3-.36,1.85-.24.55-.55.95-.94,1.22-.38.26-.88.43-1.48.5l.13,1.51c.8-.02,1.52-.24,2.16-.66M26.79,1223.95v-1.55c-.33.19-.68.31-1.04.38-.37.06-1.23.1-2.6.1h-1.97c-.66,0-1.11.02-1.36.07-.41.09-.74.24-1.01.46-.27.22-.49.56-.66,1.03-.17.46-.27,1.07-.27,1.82s.1,1.41.31,1.98c.21.57.5,1.01.88,1.31.38.3.88.52,1.5.65l.2-1.45c-.62-.16-1.05-.41-1.29-.73-.24-.33-.36-.85-.36-1.55,0-.74.17-1.31.5-1.69.24-.28.67-.42,1.27-.42.06,0,.19,0,.39,0,.19.56.37,1.45.51,2.64.07.59.14,1.02.22,1.32.11.39.27.75.48,1.07.21.32.5.57.85.76.35.19.74.29,1.17.29.73,0,1.32-.26,1.79-.77.47-.52.7-1.25.7-2.22,0-.58-.09-1.12-.29-1.63-.19-.51-.52-1.04-.98-1.58.41-.04.77-.14,1.08-.3M22.96,1224.37c.65,0,1.14.08,1.48.24.43.21.77.53,1.02.98.25.44.37.95.37,1.52s-.13,1.01-.39,1.31c-.26.3-.59.45-.99.45-.26,0-.49-.07-.7-.21-.21-.14-.37-.33-.48-.59-.11-.25-.21-.68-.3-1.29-.15-1.08-.34-1.88-.56-2.42h.54ZM14.76,1220.53h12.03v-1.48h-12.03v1.48ZM18.08,1216.25h1.68v-1.69h-1.68v1.69ZM25.11,1216.25h1.68v-1.69h-1.68v1.69ZM15.51,1200.95c-.53.61-.8,1.39-.8,2.34,0,1.27.46,2.28,1.38,3.03,1.05.86,2.74,1.29,5.07,1.29,2.08,0,3.57-.39,4.48-1.17.91-.78,1.36-1.79,1.36-3.02,0-.72-.17-1.37-.52-1.94s-.84-1.02-1.49-1.34c-.65-.33-1.35-.49-2.11-.49-1.15,0-2.08.35-2.81,1.04s-1.08,1.53-1.08,2.52c0,.56.13,1.11.39,1.62.26.51.67.95,1.21,1.31-1.2-.01-2.13-.15-2.78-.42-.65-.26-1.15-.63-1.49-1.1-.26-.35-.39-.77-.39-1.24,0-.59.21-1.08.63-1.48.26-.24.68-.43,1.26-.56l-.11-1.47c-.94.12-1.67.49-2.2,1.09M21.01,1205.21c-.48-.47-.72-1.03-.72-1.7s.24-1.23.72-1.68c.48-.44,1.13-.67,1.96-.67s1.55.22,2.05.68c.5.45.76.99.76,1.61,0,.43-.12.83-.37,1.23-.24.39-.59.69-1.06.91-.47.22-.95.33-1.46.33-.77,0-1.4-.23-1.88-.7M25.11,1197.26h1.68v-1.68h-1.68v1.68ZM26.79,1188.19c0-.77-.07-1.42-.2-1.95-.14-.53-.33-.97-.59-1.32-.26-.35-.64-.64-1.12-.89-.49-.24-1.01-.36-1.57-.36-.7,0-1.31.2-1.82.59-.51.39-.88.95-1.09,1.68-.28-.56-.64-.99-1.1-1.27-.45-.28-.94-.42-1.45-.42-.55,0-1.08.16-1.59.47-.5.32-.88.75-1.12,1.31-.24.56-.36,1.3-.36,2.22v4.52h12.03v-4.6ZM16.18,1191.19v-2.41c0-.87.06-1.48.17-1.83.11-.36.32-.63.62-.82.31-.19.66-.29,1.05-.29.42,0,.77.11,1.05.31.28.21.48.51.6.92.09.31.14.81.14,1.52v2.61h-3.64ZM21.23,1191.19v-2.79c0-.77.07-1.36.2-1.76.13-.41.37-.73.7-.96.33-.23.72-.35,1.17-.35.38,0,.72.08,1.01.24.29.16.51.36.67.61.15.25.26.55.33.92.04.21.06.57.06,1.08v3h-4.13ZM25.11,1181.17h1.68v-1.68h-1.68v1.68ZM25.37,1175.36c-.27-.16-.53-.37-.8-.62-.26-.25-.77-.82-1.51-1.71-.9-1.06-1.6-1.83-2.12-2.29-.51-.46-1-.78-1.47-.98-.46-.2-.94-.3-1.42-.3-.95,0-1.74.34-2.38,1.01-.64.68-.96,1.59-.96,2.75s.3,2.06.89,2.74c.59.68,1.46,1.07,2.59,1.18l.16-1.52c-.76,0-1.35-.22-1.77-.65-.43-.43-.64-1-.64-1.71,0-.67.2-1.22.6-1.64.4-.42.9-.63,1.48-.63s1.15.23,1.77.69c.62.46,1.48,1.35,2.55,2.66.69.85,1.29,1.49,1.82,1.94s1.06.77,1.6.97c.33.13.67.19,1.03.17v-7.97h-1.42v5.91ZM25.11,1166.95h1.68v-1.69h-1.68v1.69ZM14.71,1157.43v.96c.52.26,1.05.69,1.61,1.32.55.62,1.03,1.34,1.41,2.17h1.43c-.17-.46-.42-.98-.76-1.56-.34-.58-.68-1.05-1.01-1.41h9.41v-1.48h-12.08Z"/>
    <rect class="st15" x="35.9" y="1154.34" width="18.9" height="102.27"/>
    <path d="M50.69,1254.7c.63-.7.94-1.58.94-2.64,0-1.18-.37-2.15-1.1-2.92-.73-.77-1.62-1.15-2.67-1.15-.78,0-1.43.2-1.94.59-.52.39-.86.95-1.02,1.66-.25-.55-.59-.96-1.02-1.24-.43-.28-.9-.42-1.42-.42-.55,0-1.07.15-1.55.44-.49.29-.87.72-1.15,1.27-.28.56-.42,1.16-.42,1.82,0,.95.27,1.76.82,2.4.54.64,1.31,1.05,2.3,1.24l.26-1.48c-.72-.11-1.26-.35-1.62-.74-.36-.38-.54-.86-.54-1.44s.18-1.05.53-1.42c.36-.37.8-.55,1.35-.55.69,0,1.19.25,1.52.75.33.51.49,1.07.49,1.7,0,.06,0,.14-.01.24l1.29.17c-.11-.42-.16-.77-.16-1.05,0-.69.22-1.25.66-1.69.44-.45,1-.67,1.68-.67s1.31.24,1.79.72c.48.48.72,1.07.72,1.77,0,.59-.19,1.08-.55,1.49-.37.41-.97.7-1.81.87l.19,1.48c1-.1,1.82-.5,2.45-1.2M49.74,1245.62h1.68v-1.69h-1.68v1.69ZM49.72,1240.97c.64-.42,1.11-1,1.43-1.74.32-.74.48-1.65.48-2.74,0-.86-.16-1.64-.47-2.32-.31-.69-.76-1.22-1.32-1.59-.56-.37-1.17-.55-1.81-.55s-1.22.17-1.71.5c-.5.33-.9.85-1.23,1.56-.22.48-.47,1.37-.77,2.67-.29,1.3-.58,2.1-.86,2.41-.28.31-.63.47-1.07.47-.5,0-.92-.22-1.28-.66-.35-.44-.53-1.15-.53-2.11s.2-1.63.58-2.11c.39-.47.96-.75,1.72-.83l-.11-1.53c-.7.03-1.34.23-1.9.59-.56.37-.98.89-1.27,1.58s-.43,1.47-.43,2.36c0,.81.14,1.55.41,2.21.27.66.67,1.17,1.2,1.52.53.35,1.09.52,1.7.52.56,0,1.05-.14,1.5-.42.44-.28.82-.71,1.12-1.29.24-.44.49-1.22.75-2.33.27-1.11.46-1.82.59-2.15.19-.5.43-.87.71-1.08.28-.22.61-.33.99-.33s.71.11,1.03.34c.31.23.56.58.74,1.04.18.47.27,1.01.27,1.61,0,.69-.12,1.3-.36,1.85-.24.55-.55.95-.94,1.22s-.88.43-1.48.5l.13,1.51c.8-.02,1.52-.24,2.16-.66M51.43,1223.95v-1.55c-.34.19-.68.31-1.05.38-.37.06-1.23.1-2.6.1h-1.97c-.66,0-1.11.02-1.36.07-.41.09-.74.24-1.01.46-.27.22-.49.56-.66,1.03-.17.46-.26,1.07-.26,1.82s.1,1.41.31,1.98c.21.57.5,1.01.88,1.31.38.3.88.52,1.5.65l.2-1.45c-.62-.16-1.05-.41-1.29-.73-.24-.33-.36-.85-.36-1.55,0-.74.17-1.31.5-1.69.24-.28.67-.42,1.27-.42.05,0,.18,0,.39,0,.19.56.36,1.45.51,2.64.07.59.14,1.02.22,1.32.11.39.27.75.49,1.07.21.32.49.57.85.76.35.19.74.29,1.17.29.73,0,1.32-.26,1.79-.77.47-.52.7-1.25.7-2.22,0-.58-.09-1.12-.29-1.63-.19-.51-.52-1.04-.98-1.58.41-.04.77-.14,1.08-.3M47.59,1224.37c.65,0,1.14.08,1.48.24.43.21.77.53,1.02.98.25.44.37.95.37,1.52s-.13,1.01-.39,1.31c-.26.3-.59.45-.99.45-.25,0-.49-.07-.7-.21-.21-.14-.37-.33-.48-.59-.11-.25-.21-.68-.29-1.29-.15-1.08-.34-1.88-.56-2.42h.54ZM39.4,1220.53h12.03v-1.48h-12.03v1.48ZM42.71,1216.25h1.68v-1.69h-1.68v1.69ZM49.74,1216.25h1.68v-1.69h-1.68v1.69ZM40.14,1200.95c-.53.61-.8,1.39-.8,2.34,0,1.27.46,2.28,1.38,3.03,1.06.86,2.74,1.29,5.07,1.29,2.08,0,3.57-.39,4.48-1.17.91-.78,1.36-1.79,1.36-3.02,0-.72-.17-1.37-.52-1.94s-.84-1.02-1.49-1.34c-.65-.33-1.35-.49-2.11-.49-1.15,0-2.08.35-2.81,1.04-.72.69-1.08,1.53-1.08,2.52,0,.56.13,1.11.39,1.62.26.51.67.95,1.21,1.31-1.2-.01-2.13-.15-2.78-.42-.65-.26-1.15-.63-1.48-1.1-.26-.35-.39-.77-.39-1.24,0-.59.21-1.08.63-1.48.27-.24.69-.43,1.27-.56l-.12-1.47c-.94.12-1.67.49-2.2,1.09M45.65,1205.21c-.48-.47-.72-1.03-.72-1.7s.24-1.23.72-1.68c.48-.44,1.13-.67,1.97-.67s1.55.22,2.05.68c.5.45.76.99.76,1.61,0,.43-.12.83-.37,1.23-.24.39-.6.69-1.06.91-.47.22-.95.33-1.46.33-.78,0-1.41-.23-1.88-.7M49.74,1197.26h1.68v-1.68h-1.68v1.68ZM51.43,1188.19c0-.77-.07-1.42-.2-1.95-.13-.53-.33-.97-.59-1.32-.26-.35-.63-.64-1.12-.89-.49-.24-1.01-.36-1.57-.36-.7,0-1.3.2-1.82.59-.51.39-.88.95-1.09,1.68-.28-.56-.65-.99-1.1-1.27-.45-.28-.94-.42-1.45-.42-.56,0-1.08.16-1.59.47-.5.32-.88.75-1.12,1.31-.24.56-.37,1.3-.37,2.22v4.52h12.03v-4.6ZM40.82,1191.19v-2.41c0-.87.06-1.48.17-1.83s.32-.63.62-.82c.31-.19.66-.29,1.05-.29.42,0,.77.11,1.05.31s.48.51.6.92c.09.31.14.81.14,1.52v2.61h-3.64ZM45.87,1191.19v-2.79c0-.77.07-1.36.2-1.76.13-.41.36-.73.69-.96.33-.23.72-.35,1.17-.35.38,0,.72.08,1.02.24.29.16.52.36.67.61.15.25.26.55.33.92.04.21.06.57.06,1.08v3h-4.13ZM49.74,1181.17h1.68v-1.68h-1.68v1.68ZM50.69,1176.03c.63-.7.94-1.58.94-2.64,0-1.17-.37-2.15-1.1-2.91-.73-.77-1.62-1.15-2.67-1.15-.78,0-1.43.2-1.94.59-.52.39-.86.95-1.02,1.66-.25-.55-.59-.96-1.02-1.24-.43-.28-.9-.42-1.42-.42-.55,0-1.07.15-1.55.44-.49.29-.87.72-1.15,1.27-.28.56-.42,1.16-.42,1.82,0,.95.27,1.75.82,2.39.54.64,1.31,1.05,2.3,1.24l.26-1.48c-.72-.11-1.26-.36-1.62-.74-.36-.38-.54-.86-.54-1.44s.18-1.06.53-1.42c.36-.37.8-.55,1.35-.55.69,0,1.19.25,1.52.76.33.5.49,1.07.49,1.7,0,.06,0,.14-.01.24l1.29.16c-.11-.42-.16-.76-.16-1.04,0-.69.22-1.25.66-1.7.44-.44,1-.66,1.68-.66s1.31.24,1.79.72c.48.48.72,1.07.72,1.77,0,.59-.19,1.08-.55,1.49-.37.41-.97.7-1.81.87l.19,1.48c1-.1,1.82-.5,2.45-1.19M49.74,1166.95h1.68v-1.69h-1.68v1.69ZM39.35,1157.43v.96c.52.26,1.05.69,1.61,1.32.55.62,1.02,1.34,1.41,2.17h1.43c-.17-.46-.42-.98-.76-1.56-.34-.58-.68-1.05-1.01-1.41h9.41v-1.48h-12.08Z"/>
    <rect class="st15" x="59.19" y="1154.34" width="18.9" height="102.27"/>
    <path d="M74.71,1249.68h-2.88v-1.63h-1.35v1.63h-7.79v1.21l7.79,5.51h1.35v-5.23h2.88v-1.48ZM70.48,1254.94l-5.42-3.77h5.42v3.77ZM73.03,1245.62h1.68v-1.69h-1.68v1.69ZM73.01,1240.97c.64-.42,1.11-1,1.43-1.74.32-.74.47-1.65.47-2.74,0-.86-.16-1.64-.47-2.32-.31-.69-.75-1.22-1.32-1.59-.56-.37-1.17-.55-1.81-.55s-1.22.17-1.71.5c-.5.33-.91.85-1.23,1.56-.22.48-.48,1.37-.77,2.67-.29,1.3-.58,2.1-.86,2.41-.28.31-.63.47-1.07.47-.5,0-.92-.22-1.28-.66-.35-.44-.53-1.15-.53-2.11s.2-1.63.58-2.11c.39-.47.96-.75,1.72-.83l-.11-1.53c-.71.03-1.34.23-1.9.59-.56.37-.98.89-1.27,1.58-.29.68-.43,1.47-.43,2.36,0,.81.13,1.55.41,2.21.27.66.67,1.17,1.2,1.52.53.35,1.09.52,1.7.52.56,0,1.05-.14,1.5-.42.44-.28.82-.71,1.12-1.29.23-.44.49-1.22.75-2.33.26-1.11.46-1.82.59-2.15.19-.5.43-.87.71-1.08.28-.22.61-.33.99-.33s.72.11,1.03.34c.31.23.56.58.74,1.04.18.47.27,1.01.27,1.61,0,.69-.12,1.3-.35,1.85-.24.55-.55.95-.94,1.22-.39.26-.88.43-1.48.5l.13,1.51c.8-.02,1.53-.24,2.16-.66M74.71,1223.95v-1.55c-.33.19-.68.31-1.05.38s-1.23.1-2.6.1h-1.97c-.66,0-1.11.02-1.36.07-.41.09-.74.24-1.01.46-.27.22-.49.56-.66,1.03-.17.46-.26,1.07-.26,1.82s.1,1.41.31,1.98c.21.57.5,1.01.88,1.31.38.3.88.52,1.5.65l.19-1.45c-.62-.16-1.05-.41-1.29-.73-.24-.33-.36-.85-.36-1.55,0-.74.17-1.31.5-1.69.24-.28.67-.42,1.27-.42.05,0,.18,0,.38,0,.19.56.37,1.45.51,2.64.07.59.15,1.02.22,1.32.11.39.27.75.49,1.07.21.32.5.57.85.76.35.19.74.29,1.17.29.73,0,1.33-.26,1.8-.77.47-.52.7-1.25.7-2.22,0-.58-.1-1.12-.29-1.63-.19-.51-.52-1.04-.98-1.58.41-.04.77-.14,1.08-.3M70.88,1224.37c.65,0,1.14.08,1.48.24.43.21.77.53,1.02.98.25.44.37.95.37,1.52s-.13,1.01-.39,1.31c-.26.3-.59.45-.99.45-.26,0-.49-.07-.7-.21-.21-.14-.37-.33-.48-.59-.11-.25-.21-.68-.3-1.29-.15-1.08-.34-1.88-.56-2.42h.54ZM62.69,1220.53h12.03v-1.48h-12.03v1.48ZM66,1216.25h1.68v-1.69h-1.68v1.69ZM73.03,1216.25h1.68v-1.69h-1.68v1.69ZM63.43,1200.95c-.53.61-.8,1.39-.8,2.34,0,1.27.46,2.28,1.38,3.03,1.05.86,2.74,1.29,5.07,1.29,2.08,0,3.57-.39,4.48-1.17.91-.78,1.36-1.79,1.36-3.02,0-.72-.17-1.37-.51-1.94s-.84-1.02-1.49-1.34c-.65-.33-1.35-.49-2.1-.49-1.15,0-2.08.35-2.81,1.04-.72.69-1.09,1.53-1.09,2.52,0,.56.13,1.11.39,1.62.26.51.66.95,1.21,1.31-1.2-.01-2.13-.15-2.78-.42-.65-.26-1.15-.63-1.48-1.1-.26-.35-.39-.77-.39-1.24,0-.59.21-1.08.63-1.48.26-.24.69-.43,1.27-.56l-.12-1.47c-.94.12-1.67.49-2.2,1.09M68.94,1205.21c-.48-.47-.72-1.03-.72-1.7s.24-1.23.72-1.68c.48-.44,1.13-.67,1.96-.67s1.55.22,2.05.68c.5.45.76.99.76,1.61,0,.43-.12.83-.37,1.23-.24.39-.59.69-1.06.91-.47.22-.95.33-1.46.33-.78,0-1.41-.23-1.88-.7M73.03,1197.26h1.68v-1.68h-1.68v1.68ZM74.71,1188.19c0-.77-.07-1.42-.2-1.95-.13-.53-.33-.97-.59-1.32-.26-.35-.64-.64-1.12-.89-.49-.24-1.01-.36-1.57-.36-.7,0-1.31.2-1.82.59-.51.39-.88.95-1.09,1.68-.28-.56-.64-.99-1.1-1.27-.45-.28-.94-.42-1.45-.42-.56,0-1.08.16-1.59.47-.5.32-.88.75-1.12,1.31-.24.56-.37,1.3-.37,2.22v4.52h12.03v-4.6ZM64.11,1191.19v-2.41c0-.87.06-1.48.17-1.83s.32-.63.62-.82c.31-.19.66-.29,1.05-.29.42,0,.77.11,1.05.31s.48.51.6.92c.09.31.14.81.14,1.52v2.61h-3.64ZM69.16,1191.19v-2.79c0-.77.07-1.36.2-1.76.14-.41.37-.73.7-.96.33-.23.72-.35,1.17-.35.38,0,.72.08,1.01.24.29.16.52.36.67.61.15.25.26.55.33.92.04.21.06.57.06,1.08v3h-4.13ZM73.03,1181.17h1.68v-1.68h-1.68v1.68ZM74.71,1171h-2.88v-1.63h-1.35v1.63h-7.79v1.21l7.79,5.51h1.35v-5.23h2.88v-1.48ZM70.48,1176.26l-5.42-3.77h5.42v3.77ZM73.03,1166.95h1.68v-1.69h-1.68v1.69ZM62.64,1157.43v.96c.52.26,1.05.69,1.61,1.32.55.62,1.02,1.34,1.41,2.17h1.43c-.17-.46-.42-.98-.76-1.56-.34-.58-.68-1.05-1.01-1.41h9.41v-1.48h-12.08Z"/>
    <rect class="st15" x="82.14" y="1154.34" width="18.9" height="102.27"/>
    <path d="M96.95,1254.72c.61-.69.92-1.59.92-2.69,0-1.34-.49-2.39-1.46-3.17-.79-.63-1.73-.95-2.82-.95s-2.08.36-2.81,1.09c-.73.72-1.09,1.61-1.09,2.67,0,.79.25,1.55.75,2.28l-3.23-.65v-4.82h-1.41v6l6.18,1.17.18-1.39c-.34-.22-.62-.52-.84-.9-.21-.39-.33-.82-.33-1.29,0-.77.24-1.39.73-1.86.49-.47,1.15-.71,2-.71.89,0,1.6.25,2.13.74.54.49.81,1.1.81,1.81,0,.59-.19,1.1-.57,1.52-.38.42-.94.69-1.7.8l.13,1.55c1.01-.1,1.82-.49,2.43-1.19M95.99,1245.62h1.68v-1.69h-1.68v1.69ZM95.96,1240.97c.64-.42,1.11-1,1.43-1.74.32-.74.47-1.65.47-2.74,0-.86-.16-1.64-.47-2.32-.31-.69-.75-1.22-1.32-1.59-.56-.37-1.17-.55-1.81-.55s-1.22.17-1.71.5c-.5.33-.91.85-1.23,1.56-.22.48-.48,1.37-.77,2.67-.29,1.3-.58,2.1-.86,2.41-.28.31-.63.47-1.06.47-.5,0-.92-.22-1.28-.66-.35-.44-.53-1.15-.53-2.11s.19-1.63.58-2.11c.39-.47.96-.75,1.72-.83l-.12-1.53c-.71.03-1.34.23-1.89.59-.56.37-.98.89-1.27,1.58-.29.68-.43,1.47-.43,2.36,0,.81.14,1.55.41,2.21.27.66.67,1.17,1.2,1.52.53.35,1.09.52,1.7.52.56,0,1.05-.14,1.5-.42.45-.28.82-.71,1.12-1.29.23-.44.49-1.22.75-2.33.27-1.11.46-1.82.59-2.15.19-.5.43-.87.71-1.08.28-.22.61-.33.99-.33s.72.11,1.03.34c.31.23.56.58.74,1.04.18.47.27,1.01.27,1.61,0,.69-.12,1.3-.36,1.85-.24.55-.55.95-.93,1.22-.39.26-.88.43-1.48.5l.13,1.51c.8-.02,1.53-.24,2.16-.66M97.67,1223.95v-1.55c-.33.19-.68.31-1.05.38s-1.23.1-2.6.1h-1.97c-.66,0-1.11.02-1.36.07-.41.09-.74.24-1.01.46-.27.22-.49.56-.66,1.03-.17.46-.27,1.07-.27,1.82s.1,1.41.31,1.98c.21.57.5,1.01.88,1.31.38.3.88.52,1.5.65l.19-1.45c-.62-.16-1.05-.41-1.29-.73-.24-.33-.36-.85-.36-1.55,0-.74.16-1.31.5-1.69.24-.28.67-.42,1.27-.42.05,0,.18,0,.38,0,.19.56.37,1.45.51,2.64.07.59.15,1.02.22,1.32.11.39.27.75.48,1.07.21.32.5.57.85.76.35.19.74.29,1.17.29.73,0,1.33-.26,1.8-.77.46-.52.7-1.25.7-2.22,0-.58-.1-1.12-.29-1.63-.19-.51-.52-1.04-.98-1.58.41-.04.77-.14,1.08-.3M93.84,1224.37c.65,0,1.14.08,1.48.24.43.21.77.53,1.02.98.25.44.37.95.37,1.52s-.13,1.01-.39,1.31c-.26.3-.59.45-.99.45-.26,0-.49-.07-.7-.21-.21-.14-.37-.33-.48-.59-.11-.25-.21-.68-.3-1.29-.15-1.08-.34-1.88-.56-2.42h.54ZM85.64,1220.53h12.03v-1.48h-12.03v1.48ZM88.96,1216.25h1.68v-1.69h-1.68v1.69ZM95.99,1216.25h1.68v-1.69h-1.68v1.69ZM86.39,1200.95c-.53.61-.8,1.39-.8,2.34,0,1.27.46,2.28,1.38,3.03,1.06.86,2.74,1.29,5.07,1.29,2.08,0,3.57-.39,4.48-1.17.91-.78,1.36-1.79,1.36-3.02,0-.72-.17-1.37-.51-1.94s-.84-1.02-1.49-1.34c-.65-.33-1.35-.49-2.1-.49-1.15,0-2.09.35-2.81,1.04-.72.69-1.09,1.53-1.09,2.52,0,.56.13,1.11.39,1.62.26.51.66.95,1.21,1.31-1.2-.01-2.13-.15-2.78-.42-.65-.26-1.15-.63-1.48-1.1-.26-.35-.39-.77-.39-1.24,0-.59.21-1.08.63-1.48.26-.24.68-.43,1.27-.56l-.12-1.47c-.93.12-1.67.49-2.2,1.09M91.89,1205.21c-.48-.47-.72-1.03-.72-1.7s.24-1.23.72-1.68c.48-.44,1.13-.67,1.96-.67s1.55.22,2.05.68c.5.45.76.99.76,1.61,0,.43-.12.83-.37,1.23-.24.39-.59.69-1.06.91-.47.22-.95.33-1.46.33-.78,0-1.41-.23-1.88-.7M95.99,1197.26h1.68v-1.68h-1.68v1.68ZM97.67,1188.19c0-.77-.07-1.42-.2-1.95-.14-.53-.33-.97-.59-1.32-.26-.35-.64-.64-1.12-.89-.49-.24-1.01-.36-1.57-.36-.7,0-1.31.2-1.82.59-.51.39-.88.95-1.09,1.68-.28-.56-.64-.99-1.1-1.27-.46-.28-.94-.42-1.45-.42-.55,0-1.08.16-1.59.47-.51.32-.88.75-1.13,1.31-.24.56-.36,1.3-.36,2.22v4.52h12.03v-4.6ZM87.06,1191.19v-2.41c0-.87.06-1.48.17-1.83.11-.36.32-.63.62-.82.31-.19.66-.29,1.05-.29.42,0,.77.11,1.05.31.28.21.48.51.6.92.09.31.14.81.14,1.52v2.61h-3.63ZM92.11,1191.19v-2.79c0-.77.07-1.36.2-1.76.13-.41.37-.73.7-.96.33-.23.72-.35,1.17-.35.38,0,.72.08,1.01.24.29.16.52.36.67.61.15.25.26.55.33.92.04.21.06.57.06,1.08v3h-4.13ZM95.99,1181.17h1.68v-1.68h-1.68v1.68ZM96.95,1176.04c.61-.7.92-1.59.92-2.69,0-1.34-.49-2.39-1.46-3.17-.79-.63-1.73-.96-2.82-.96s-2.08.36-2.81,1.09c-.73.72-1.09,1.61-1.09,2.66,0,.79.25,1.56.75,2.28l-3.23-.65v-4.81h-1.41v6l6.18,1.17.18-1.39c-.34-.22-.62-.52-.84-.9-.21-.39-.33-.82-.33-1.29,0-.77.24-1.39.73-1.86.49-.47,1.15-.71,2-.71.89,0,1.6.25,2.13.74.54.49.81,1.1.81,1.81,0,.59-.19,1.1-.57,1.52-.38.42-.94.69-1.7.8l.13,1.56c1.01-.1,1.82-.49,2.43-1.19M95.99,1166.95h1.68v-1.69h-1.68v1.69ZM85.59,1157.43v.96c.52.26,1.06.69,1.61,1.32.55.62,1.02,1.34,1.41,2.17h1.43c-.17-.46-.42-.98-.76-1.56-.34-.58-.68-1.05-1.01-1.41h9.41v-1.48h-12.08Z"/>
    <line class="st3" x1="500" y1="830.98" x2="380.52" y2="779.34"/>
  </g>
</svg>