<?xml version="1.0" encoding="UTF-8"?>
<svg id="Layer_1" xmlns="http://www.w3.org/2000/svg" xmlns:xlink="http://www.w3.org/1999/xlink" version="1.1" viewBox="0 0 1200 1697.14">
  <!-- Generator: Adobe Illustrator 29.6.0, SVG Export Plug-In . SVG Version: 2.1.1 Build 207)  -->
  <defs>
    <style>
      .st0, .st1, .st2, .st3 {
        fill: none;
      }

      .st1 {
        stroke: #0d0e1c;
      }

      .st1, .st2, .st3 {
        stroke-linecap: round;
        stroke-linejoin: round;
      }

      .st1, .st3 {
        stroke-width: .08px;
      }

      .st2 {
        stroke-width: .14px;
      }

      .st2, .st3 {
        stroke: #000;
      }

      .st4 {
        clip-path: url(#clippath-1);
      }

      .st5 {
        clip-path: url(#clippath-3);
      }

      .st6 {
        clip-path: url(#clippath-4);
      }

      .st7 {
        clip-path: url(#clippath-2);
      }

      .st8 {
        clip-path: url(#clippath-7);
      }

      .st9 {
        clip-path: url(#clippath-6);
      }

      .st10 {
        clip-path: url(#clippath-9);
      }

      .st11 {
        clip-path: url(#clippath-8);
      }

      .st12 {
        clip-path: url(#clippath-5);
      }

      .st13 {
        fill: #fff;
      }

      .st14 {
        fill: #ece9e5;
      }

      .st15 {
        fill: #302c35;
      }

      .st16 {
        clip-path: url(#clippath);
      }
    </style>
    <clipPath id="clippath">
      <rect class="st0" x="427.01" y="765.84" width="72.57" height="159.65"/>
    </clipPath>
    <clipPath id="clippath-1">
      <rect class="st0" x="200.49" y="441.48" width="799.01" height="814.19"/>
    </clipPath>
    <clipPath id="clippath-2">
      <rect class="st0" x="502.49" y="994.66" width="28.6" height="39.22"/>
    </clipPath>
    <clipPath id="clippath-3">
      <rect class="st0" x="200.49" y="441.48" width="799.01" height="814.19"/>
    </clipPath>
    <clipPath id="clippath-4">
      <rect class="st0" x="200.49" y="441.48" width="799.01" height="814.19"/>
    </clipPath>
    <clipPath id="clippath-5">
      <rect class="st0" x="432.99" y="1077.73" width="27.51" height="37.12"/>
    </clipPath>
    <clipPath id="clippath-6">
      <rect class="st0" x="200.49" y="441.48" width="799.01" height="814.19"/>
    </clipPath>
    <clipPath id="clippath-7">
      <rect class="st0" x="200.49" y="441.48" width="799.01" height="814.19"/>
    </clipPath>
    <clipPath id="clippath-8">
      <rect class="st0" x="200.49" y="441.48" width="799.01" height="814.19"/>
    </clipPath>
    <clipPath id="clippath-9">
      <rect class="st0" x="200.49" y="441.48" width="799.01" height="814.19"/>
    </clipPath>
  </defs>
  <rect class="st14" x="407.09" y="663.24" width="339.22" height="481.99"/>
  <rect class="st14" x="446.58" y="551.51" width="249.77" height="170.31"/>
  <rect class="st13" x="680.83" y="910.64" width="60.67" height="226.65"/>
  <rect class="st13" x="466.28" y="667.62" width="223.15" height="11.81"/>
  <rect class="st15" x="670.08" y="693.95" width="76.22" height="15.87"/>
  <rect class="st15" x="407.09" y="1129.36" width="153.91" height="15.87"/>
  <rect class="st15" x="632.56" y="1129.36" width="113.75" height="15.87"/>
  <rect class="st15" x="446.58" y="551.51" width="249.43" height="4.05"/>
  <rect class="st15" x="446.75" y="551.51" width="4.05" height="116.11"/>
  <rect class="st15" x="691.96" y="551.51" width="4.05" height="116.11"/>
  <rect class="st15" x="407.09" y="709.81" width="17.55" height="419.55"/>
  <rect class="st15" x="728.75" y="709.81" width="17.55" height="419.55"/>
  <rect class="st15" x="672.72" y="1005.15" width="56.03" height="6.07"/>
  <rect class="st15" x="426.33" y="1122.61" width="125.9" height="10.21"/>
  <rect class="st15" x="547.17" y="1113.4" width="5.06" height="9.21"/>
  <rect class="st15" x="426.33" y="988.27" width="120.83" height="5.06"/>
  <rect class="st15" x="420.86" y="988.27" width="10.53" height="144.55"/>
  <rect class="st15" x="431.39" y="993.34" width="115.77" height="1.35"/>
  <rect class="st15" x="545.81" y="1113.4" width="1.35" height="7.86"/>
  <rect class="st15" x="547.17" y="988.27" width="5.06" height="54.68"/>
  <rect class="st15" x="545.81" y="988.27" width="1.35" height="54.68"/>
  <rect class="st15" x="431.39" y="1121.26" width="115.77" height="1.35"/>
  <rect class="st15" x="431.39" y="993.34" width="1.35" height="127.92"/>
  <rect class="st15" x="424.64" y="928.19" width="119.48" height="8.1"/>
  <rect class="st15" x="544.13" y="928.19" width="8.1" height="60.08"/>
  <rect class="st15" x="670.08" y="663.24" width="76.22" height="30.72"/>
  <rect class="st15" x="407.04" y="693.95" width="65.87" height="15.87"/>
  <rect class="st15" x="407.04" y="663.24" width="65.87" height="30.72"/>
  <polygon class="st13" points="427.01 765.84 427.01 766.25 498.66 766.25 498.66 904.21 499.58 904.67 499.58 765.84 427.01 765.84"/>
  <polygon class="st13" points="427.01 766.25 427.01 868.75 442.93 876.63 482.73 896.33 498.66 904.21 498.66 766.25 427.01 766.25"/>
  <g class="st16">
    <path class="st13" d="M427.01,925.49v-56.74l15.93,7.88v28.26c0,1.82,1.46,3.29,3.28,3.29h33.25c1.81,0,3.27-1.47,3.27-3.29v-8.56l15.93,7.88v21.28h-71.65Z"/>
    <path class="st13" d="M442.93,904.89v-28.26l39.8,19.7v8.56c0,1.82-1.46,3.29-3.28,3.29h-33.25c-1.82,0-3.28-1.47-3.28-3.29"/>
  </g>
  <polyline class="st1" points="498.66 904.21 498.66 925.49 427.01 925.49 427.01 868.75"/>
  <polyline class="st1" points="482.73 896.34 498.66 904.21 499.58 904.67 499.58 765.84 427.01 765.84 427.01 766.25 427.01 868.75 442.93 876.64"/>
  <line class="st1" x1="479.46" y1="908.18" x2="446.21" y2="908.18"/>
  <g class="st4">
    <path class="st1" d="M446.21,908.18c-1.82,0-3.28-1.47-3.28-3.29"/>
    <path class="st1" d="M482.73,904.89c0,1.82-1.46,3.29-3.28,3.29"/>
  </g>
  <polyline class="st1" points="482.73 904.89 482.73 896.34 442.93 876.64 442.93 904.89"/>
  <g class="st7">
    <path class="st13" d="M531.08,994.67c0,7.71,0,15.41,0,23.11,0,8.9-6.4,16.09-14.3,16.09-7.9-.01-14.3-7.21-14.29-16.11.01-7.7.01-15.41.02-23.11,9.52,0,19.05,0,28.58.02"/>
  </g>
  <g class="st5">
    <path class="st3" d="M531.08,994.67c0,7.71,0,15.41,0,23.11,0,8.9-6.4,16.09-14.3,16.09-7.9-.01-14.3-7.21-14.29-16.11.01-7.7.01-15.41.02-23.11,9.52,0,19.05,0,28.58.02Z"/>
  </g>
  <rect class="st13" x="432.55" y="994.3" width="62.49" height="63.21"/>
  <polyline class="st3" points="495.04 994.3 495.04 1057.51 488.87 1057.51"/>
  <line class="st3" x1="495.04" y1="994.3" x2="433.05" y2="994.3"/>
  <line class="st3" x1="432.55" y1="995.35" x2="432.55" y2="1056.96"/>
  <polyline class="st3" points="432.55 995.35 432.55 994.3 433.05 994.3"/>
  <polyline class="st3" points="433.49 1057.51 432.55 1057.51 432.55 1056.96"/>
  <line class="st3" x1="433.49" y1="1057.51" x2="488.87" y2="1057.51"/>
  <line class="st3" x1="464.74" y1="994.3" x2="464.74" y2="1011.86"/>
  <g class="st6">
    <path class="st3" d="M468.59,1011.78c0-2.17-1.76-3.93-3.93-3.93s-3.93,1.76-3.93,3.93,1.76,3.93,3.93,3.93,3.93-1.76,3.93-3.93Z"/>
    <path class="st3" d="M468.59,1011.78c0-2.17-1.76-3.93-3.93-3.93s-3.93,1.76-3.93,3.93,1.76,3.93,3.93,3.93,3.93-1.76,3.93-3.93Z"/>
  </g>
  <g class="st12">
    <path class="st13" d="M458.38,1114.21h-15.49c-.59,0-1.06-.35-1.06-.78v-34.13c0-.44.47-.79,1.06-.79h15.49c.59,0,1.07.35,1.07.79v34.13c0,.43-.48.78-1.07.78M450.91,1099.16c1.55,0,2.8-1.25,2.8-2.8s-1.25-2.81-2.8-2.81-2.8,1.26-2.8,2.81,1.25,2.8,2.8,2.8"/>
    <path class="st13" d="M439.2,1096.37c0,1.16-.94,2.1-2.1,2.1s-2.11-.95-2.11-2.1.94-2.11,2.11-2.11,2.1.94,2.1,2.11"/>
    <path class="st13" d="M450.91,1097.87c-.83,0-1.51-.67-1.51-1.5s.68-1.51,1.51-1.51,1.51.68,1.51,1.51-.68,1.5-1.51,1.5"/>
    <path class="st13" d="M450.91,1093.56c1.55,0,2.8,1.26,2.8,2.81s-1.25,2.8-2.8,2.8-2.8-1.25-2.8-2.8,1.25-2.81,2.8-2.81M452.42,1096.37c0-.83-.68-1.51-1.51-1.51s-1.51.68-1.51,1.51.68,1.5,1.51,1.5,1.51-.67,1.51-1.5"/>
    <path class="st13" d="M439.2,1096.37c0-1.17-.94-2.11-2.1-2.11s-2.11.94-2.11,2.11.95,2.1,2.11,2.1,2.1-.95,2.1-2.1M441.17,1077.73h18.27c.59,0,1.07.35,1.07.78v35.7c0,.34-.48.63-1.07.63h-26.45v-37.12h8.18ZM458.38,1078.51h-15.5c-.59,0-1.06.35-1.06.79v34.13c0,.43.47.78,1.06.78h15.5c.59,0,1.07-.35,1.07-.78v-34.13c0-.44-.48-.79-1.07-.79"/>
  </g>
  <g class="st9">
    <path class="st3" d="M437.1,1094.25c1.15,0,2.1.95,2.1,2.11s-.95,2.1-2.1,2.1-2.11-.94-2.11-2.1.94-2.11,2.11-2.11Z"/>
    <path class="st3" d="M450.91,1093.56c1.55,0,2.8,1.26,2.8,2.81s-1.25,2.8-2.8,2.8-2.8-1.25-2.8-2.8,1.25-2.81,2.8-2.81Z"/>
    <path class="st3" d="M450.91,1094.86c.83,0,1.51.68,1.51,1.51s-.68,1.5-1.51,1.5-1.51-.67-1.51-1.5.68-1.51,1.51-1.51Z"/>
    <path class="st3" d="M442.88,1114.21h15.5c.59,0,1.07-.35,1.07-.78v-34.13c0-.44-.48-.79-1.07-.79h-15.5c-.59,0-1.06.35-1.06.79v34.13c0,.43.47.78,1.06.78Z"/>
  </g>
  <line class="st3" x1="441.17" y1="1077.72" x2="432.99" y2="1077.72"/>
  <g class="st8">
    <path class="st3" d="M432.99,1114.84h26.45c.59,0,1.07-.29,1.07-.63v-35.7c0-.43-.48-.78-1.07-.78h-8.38"/>
  </g>
  <line class="st3" x1="441.17" y1="1077.72" x2="451.06" y2="1077.72"/>
  <line class="st3" x1="432.99" y1="1077.72" x2="432.99" y2="1114.84"/>
  <polygon class="st13" points="657.03 760.11 648.93 761.46 641.51 765.17 641.51 765.51 641.84 765.51 642.52 765.51 642.86 765.51 643.19 765.51 643.53 765.51 645.22 764.49 646.91 763.82 648.26 764.16 649.27 765.17 649.27 765.84 648.93 766.18 643.53 770.91 639.82 776.98 674.25 776.98 670.53 770.91 665.13 766.18 664.46 765.84 664.8 765.17 665.81 764.16 667.16 763.82 668.85 764.49 670.53 765.51 670.87 765.51 671.21 765.51 671.55 765.51 672.22 765.51 672.56 765.17 665.13 761.46 657.03 760.11"/>
  <polygon class="st13" points="704.96 760.11 696.52 761.46 689.43 765.17 689.43 765.51 689.77 765.51 690.11 765.51 690.78 765.51 691.12 765.51 691.46 765.51 693.15 764.49 694.84 763.82 696.19 764.16 697.2 765.17 697.2 765.84 696.86 766.18 691.12 770.91 687.75 776.98 722.18 776.98 718.46 770.91 712.73 766.18 712.39 765.84 712.39 765.17 713.4 764.16 715.09 763.82 716.78 764.49 718.13 765.51 718.46 765.51 719.14 765.51 719.48 765.51 719.81 765.51 720.15 765.51 720.49 765.17 713.06 761.46 704.96 760.11"/>
  <polygon class="st13" points="722.18 776.98 687.75 776.98 674.25 776.98 639.82 776.98 633.07 776.98 633.07 840.78 639.82 840.78 674.25 840.78 687.75 840.78 722.18 840.78 728.59 840.78 728.59 776.98 722.18 776.98"/>
  <polygon class="st13" points="639.82 840.77 643.53 846.85 648.93 851.57 649.27 851.91 649.27 852.59 648.26 853.6 646.91 853.94 645.22 853.26 643.53 852.25 643.19 852.25 642.86 852.25 642.52 852.25 641.84 852.25 641.51 852.25 641.51 852.59 648.93 856.3 657.02 857.65 657.05 857.65 665.13 856.3 672.56 852.59 672.22 852.25 671.55 852.25 671.21 852.25 670.87 852.25 670.53 852.25 668.85 853.26 667.16 853.94 665.81 853.6 664.8 852.59 664.46 851.91 665.13 851.57 670.53 846.85 674.25 840.77 639.82 840.77"/>
  <polygon class="st13" points="687.75 840.77 691.12 846.85 696.86 851.57 697.2 851.91 697.2 852.59 696.19 853.6 694.84 853.94 693.15 853.26 691.46 852.25 691.12 852.25 690.79 852.25 690.11 852.25 689.77 852.25 689.44 852.25 689.44 852.59 696.52 856.3 704.95 857.65 704.97 857.65 713.06 856.3 720.49 852.59 720.15 852.25 719.81 852.25 719.48 852.25 719.14 852.25 718.46 852.25 718.13 852.25 716.78 853.26 715.09 853.94 713.4 853.6 712.39 852.59 712.39 851.91 712.72 851.57 718.46 846.85 722.18 840.77 687.75 840.77"/>
  <line class="st3" x1="643.53" y1="852.25" x2="643.19" y2="852.25"/>
  <line class="st3" x1="643.19" y1="852.25" x2="642.86" y2="852.25"/>
  <line class="st3" x1="641.84" y1="852.25" x2="642.52" y2="852.25"/>
  <line class="st3" x1="642.52" y1="852.25" x2="642.85" y2="852.25"/>
  <line class="st3" x1="641.51" y1="852.59" x2="641.51" y2="852.25"/>
  <line class="st3" x1="641.51" y1="852.25" x2="641.84" y2="852.25"/>
  <line class="st3" x1="649.27" y1="852.59" x2="648.26" y2="853.6"/>
  <line class="st3" x1="648.26" y1="853.6" x2="646.9" y2="853.94"/>
  <line class="st3" x1="646.91" y1="853.94" x2="645.22" y2="853.26"/>
  <line class="st3" x1="645.22" y1="853.26" x2="643.53" y2="852.25"/>
  <line class="st3" x1="648.93" y1="851.57" x2="649.27" y2="851.91"/>
  <line class="st3" x1="649.27" y1="851.91" x2="649.27" y2="852.59"/>
  <line class="st3" x1="648.93" y1="851.57" x2="643.53" y2="846.85"/>
  <line class="st3" x1="643.53" y1="846.85" x2="639.82" y2="840.77"/>
  <line class="st3" x1="670.53" y1="852.25" x2="670.87" y2="852.25"/>
  <line class="st3" x1="670.87" y1="852.25" x2="671.21" y2="852.25"/>
  <line class="st3" x1="672.22" y1="852.25" x2="671.55" y2="852.25"/>
  <line class="st3" x1="671.55" y1="852.25" x2="671.21" y2="852.25"/>
  <line class="st3" x1="672.56" y1="852.59" x2="672.22" y2="852.25"/>
  <line class="st3" x1="664.8" y1="852.59" x2="665.81" y2="853.6"/>
  <line class="st3" x1="665.81" y1="853.6" x2="667.16" y2="853.94"/>
  <line class="st3" x1="667.16" y1="853.94" x2="668.85" y2="853.26"/>
  <line class="st3" x1="668.85" y1="853.26" x2="670.53" y2="852.25"/>
  <line class="st3" x1="665.13" y1="851.57" x2="664.46" y2="851.91"/>
  <line class="st3" x1="664.46" y1="851.91" x2="664.8" y2="852.59"/>
  <line class="st3" x1="665.13" y1="851.57" x2="670.53" y2="846.85"/>
  <line class="st3" x1="670.53" y1="846.85" x2="674.25" y2="840.77"/>
  <line class="st3" x1="641.51" y1="852.59" x2="648.93" y2="856.3"/>
  <line class="st3" x1="648.93" y1="856.3" x2="657.03" y2="857.65"/>
  <line class="st3" x1="657.03" y1="857.65" x2="665.13" y2="856.3"/>
  <line class="st3" x1="665.13" y1="856.3" x2="672.56" y2="852.59"/>
  <line class="st3" x1="643.53" y1="765.51" x2="643.19" y2="765.51"/>
  <line class="st3" x1="643.19" y1="765.51" x2="642.86" y2="765.51"/>
  <line class="st3" x1="641.84" y1="765.51" x2="642.52" y2="765.51"/>
  <line class="st3" x1="642.52" y1="765.51" x2="642.85" y2="765.51"/>
  <line class="st3" x1="641.51" y1="765.17" x2="641.51" y2="765.51"/>
  <line class="st3" x1="641.51" y1="765.51" x2="641.84" y2="765.51"/>
  <line class="st3" x1="649.27" y1="765.17" x2="648.26" y2="764.16"/>
  <line class="st3" x1="648.26" y1="764.16" x2="646.9" y2="763.82"/>
  <line class="st3" x1="646.91" y1="763.82" x2="645.22" y2="764.49"/>
  <line class="st3" x1="645.22" y1="764.49" x2="643.53" y2="765.51"/>
  <line class="st3" x1="648.93" y1="766.18" x2="649.27" y2="765.84"/>
  <line class="st3" x1="649.27" y1="765.84" x2="649.27" y2="765.17"/>
  <line class="st3" x1="648.93" y1="766.18" x2="643.53" y2="770.91"/>
  <line class="st3" x1="643.53" y1="770.91" x2="639.82" y2="776.98"/>
  <line class="st3" x1="670.53" y1="765.51" x2="670.87" y2="765.51"/>
  <line class="st3" x1="670.87" y1="765.51" x2="671.21" y2="765.51"/>
  <line class="st3" x1="672.22" y1="765.51" x2="671.55" y2="765.51"/>
  <line class="st3" x1="671.55" y1="765.51" x2="671.21" y2="765.51"/>
  <line class="st3" x1="672.56" y1="765.17" x2="672.22" y2="765.51"/>
  <line class="st3" x1="664.8" y1="765.17" x2="665.81" y2="764.16"/>
  <line class="st3" x1="665.81" y1="764.16" x2="667.16" y2="763.82"/>
  <line class="st3" x1="667.16" y1="763.82" x2="668.85" y2="764.49"/>
  <line class="st3" x1="668.85" y1="764.49" x2="670.53" y2="765.51"/>
  <line class="st3" x1="665.13" y1="766.18" x2="664.46" y2="765.84"/>
  <line class="st3" x1="664.46" y1="765.84" x2="664.8" y2="765.17"/>
  <line class="st3" x1="665.13" y1="766.18" x2="670.53" y2="770.91"/>
  <line class="st3" x1="670.53" y1="770.91" x2="674.25" y2="776.98"/>
  <line class="st3" x1="641.51" y1="765.17" x2="648.93" y2="761.45"/>
  <line class="st3" x1="648.93" y1="761.45" x2="657.03" y2="760.1"/>
  <line class="st3" x1="657.03" y1="760.1" x2="665.13" y2="761.45"/>
  <line class="st3" x1="665.13" y1="761.45" x2="672.56" y2="765.17"/>
  <line class="st3" x1="633.07" y1="776.98" x2="633.07" y2="840.77"/>
  <line class="st3" x1="718.13" y1="852.25" x2="718.46" y2="852.25"/>
  <line class="st3" x1="718.46" y1="852.25" x2="719.14" y2="852.25"/>
  <line class="st3" x1="719.81" y1="852.25" x2="719.48" y2="852.25"/>
  <line class="st3" x1="719.48" y1="852.25" x2="719.14" y2="852.25"/>
  <line class="st3" x1="720.49" y1="852.59" x2="720.15" y2="852.25"/>
  <line class="st3" x1="720.15" y1="852.25" x2="719.81" y2="852.25"/>
  <line class="st3" x1="712.39" y1="852.59" x2="713.4" y2="853.6"/>
  <line class="st3" x1="713.4" y1="853.6" x2="715.09" y2="853.94"/>
  <line class="st3" x1="715.09" y1="853.94" x2="716.77" y2="853.26"/>
  <line class="st3" x1="716.78" y1="853.26" x2="718.13" y2="852.25"/>
  <line class="st3" x1="712.72" y1="851.57" x2="712.39" y2="851.91"/>
  <line class="st3" x1="712.39" y1="851.91" x2="712.39" y2="852.59"/>
  <line class="st3" x1="712.72" y1="851.57" x2="718.46" y2="846.85"/>
  <line class="st3" x1="718.46" y1="846.85" x2="722.18" y2="840.77"/>
  <line class="st3" x1="691.46" y1="852.25" x2="691.12" y2="852.25"/>
  <line class="st3" x1="691.12" y1="852.25" x2="690.79" y2="852.25"/>
  <line class="st3" x1="689.77" y1="852.25" x2="690.11" y2="852.25"/>
  <line class="st3" x1="690.11" y1="852.25" x2="690.78" y2="852.25"/>
  <line class="st3" x1="689.43" y1="852.59" x2="689.43" y2="852.25"/>
  <line class="st3" x1="689.43" y1="852.25" x2="689.77" y2="852.25"/>
  <line class="st3" x1="697.2" y1="852.59" x2="696.18" y2="853.6"/>
  <line class="st3" x1="696.18" y1="853.6" x2="694.84" y2="853.94"/>
  <line class="st3" x1="694.83" y1="853.94" x2="693.15" y2="853.26"/>
  <line class="st3" x1="693.15" y1="853.26" x2="691.46" y2="852.25"/>
  <line class="st3" x1="696.86" y1="851.57" x2="697.2" y2="851.91"/>
  <line class="st3" x1="697.2" y1="851.91" x2="697.2" y2="852.59"/>
  <line class="st3" x1="696.86" y1="851.57" x2="691.12" y2="846.85"/>
  <line class="st3" x1="691.12" y1="846.85" x2="687.75" y2="840.77"/>
  <line class="st3" x1="720.49" y1="852.59" x2="713.06" y2="856.3"/>
  <line class="st3" x1="713.06" y1="856.3" x2="704.96" y2="857.65"/>
  <line class="st3" x1="704.96" y1="857.65" x2="696.52" y2="856.3"/>
  <line class="st3" x1="696.52" y1="856.3" x2="689.44" y2="852.59"/>
  <line class="st3" x1="718.13" y1="765.51" x2="718.46" y2="765.51"/>
  <line class="st3" x1="718.46" y1="765.51" x2="719.14" y2="765.51"/>
  <line class="st3" x1="719.81" y1="765.51" x2="719.48" y2="765.51"/>
  <line class="st3" x1="719.48" y1="765.51" x2="719.14" y2="765.51"/>
  <line class="st3" x1="720.49" y1="765.17" x2="720.15" y2="765.51"/>
  <line class="st3" x1="720.15" y1="765.51" x2="719.81" y2="765.51"/>
  <line class="st3" x1="712.39" y1="765.17" x2="713.4" y2="764.16"/>
  <line class="st3" x1="713.4" y1="764.16" x2="715.09" y2="763.82"/>
  <line class="st3" x1="715.09" y1="763.82" x2="716.77" y2="764.49"/>
  <line class="st3" x1="716.78" y1="764.49" x2="718.13" y2="765.51"/>
  <line class="st3" x1="712.72" y1="766.18" x2="712.39" y2="765.84"/>
  <line class="st3" x1="712.39" y1="765.84" x2="712.39" y2="765.17"/>
  <line class="st3" x1="712.72" y1="766.18" x2="718.46" y2="770.91"/>
  <line class="st3" x1="718.46" y1="770.91" x2="722.18" y2="776.98"/>
  <line class="st3" x1="691.46" y1="765.51" x2="691.12" y2="765.51"/>
  <line class="st3" x1="691.12" y1="765.51" x2="690.79" y2="765.51"/>
  <line class="st3" x1="689.77" y1="765.51" x2="690.11" y2="765.51"/>
  <line class="st3" x1="690.11" y1="765.51" x2="690.78" y2="765.51"/>
  <line class="st3" x1="689.43" y1="765.17" x2="689.43" y2="765.51"/>
  <line class="st3" x1="689.43" y1="765.51" x2="689.77" y2="765.51"/>
  <line class="st3" x1="697.2" y1="765.17" x2="696.18" y2="764.16"/>
  <line class="st3" x1="696.18" y1="764.16" x2="694.84" y2="763.82"/>
  <line class="st3" x1="694.83" y1="763.82" x2="693.15" y2="764.49"/>
  <line class="st3" x1="693.15" y1="764.49" x2="691.46" y2="765.51"/>
  <line class="st3" x1="696.86" y1="766.18" x2="697.2" y2="765.84"/>
  <line class="st3" x1="697.2" y1="765.84" x2="697.2" y2="765.17"/>
  <line class="st3" x1="696.86" y1="766.18" x2="691.12" y2="770.91"/>
  <line class="st3" x1="691.12" y1="770.91" x2="687.75" y2="776.98"/>
  <line class="st3" x1="720.49" y1="765.17" x2="713.06" y2="761.45"/>
  <line class="st3" x1="713.06" y1="761.45" x2="704.96" y2="760.1"/>
  <line class="st3" x1="704.96" y1="760.1" x2="696.52" y2="761.45"/>
  <line class="st3" x1="696.52" y1="761.45" x2="689.44" y2="765.17"/>
  <line class="st3" x1="728.59" y1="776.98" x2="728.59" y2="840.77"/>
  <polyline class="st3" points="728.59 840.77 722.18 840.77 687.75 840.77 674.25 840.77 639.82 840.77 633.07 840.77"/>
  <polyline class="st3" points="633.07 776.98 639.82 776.98 674.24 776.98 687.75 776.98 722.17 776.98 728.59 776.98"/>
  <line class="st3" x1="710.93" y1="1036.72" x2="721.6" y2="1036.72"/>
  <rect class="st3" x="680.9" y="1011.35" width="47.78" height="117.89"/>
  <line class="st3" x1="713.68" y1="1091.42" x2="713.68" y2="1101.85"/>
  <line class="st3" x1="694.06" y1="1091.42" x2="694.06" y2="1101.85"/>
  <line class="st3" x1="699.21" y1="1096.56" x2="688.78" y2="1096.56"/>
  <line class="st3" x1="718.96" y1="1096.56" x2="708.53" y2="1096.56"/>
  <rect class="st3" x="684.19" y="1085.44" width="39.36" height="22.95"/>
  <rect class="st3" x="691.27" y="1023.38" width="26.54" height="26.54"/>
  <rect class="st3" x="684.67" y="1016.78" width="39.75" height="39.89"/>
  <g class="st11">
    <path class="st13" d="M524.89,882.59c11.43,0,20.69,9.26,20.69,20.69s-9.26,20.69-20.69,20.69-20.69-9.26-20.69-20.69,9.26-20.69,20.69-20.69"/>
    <path class="st1" d="M524.89,882.59c11.43,0,20.69,9.26,20.69,20.69s-9.26,20.69-20.69,20.69-20.69-9.26-20.69-20.69,9.26-20.69,20.69-20.69Z"/>
  </g>
  <path class="st3" d="M424.64,936.3h119.49M544.13,936.3v45.23M544.13,988.27h-119.49M424.64,988.27v-51.98M670.02,693.95v15.87M670.02,709.81h58.73M424.64,709.81h48.27M472.91,709.81v-15.87M407.09,1145.23h4.72M411.82,1145.23h149.19M632.56,1145.23h113.75M728.75,1129.36h-96.2M560.33,1129.36h.68M450.63,555.56v107.67M691.96,663.24v-107.67M691.96,555.56h-241.33M446.58,663.24h4.05M450.63,663.24v-107.67M450.63,555.56h241.33M691.96,555.56v107.67M691.96,663.24h4.05M696.01,663.24v-111.72M696.01,551.51h-249.43M446.58,551.51v111.72M544.13,936.3l-119.49,51.98M544.13,936.3h-119.49M424.64,936.3v51.98M424.64,988.27h119.49M544.13,988.27v-51.98M407.09,709.81v419.55M746.31,1129.36v-419.55"/>
  <path class="st3" d="M728.76,840.77v-63.79M728.76,957.56h-1.35M725.04,957.56h-2.36M720.32,957.56h-2.36M715.59,957.56h-2.36M710.53,957.56h-2.36M705.8,957.56h-2.36M701.08,957.56h-2.36M696.35,957.56h-2.36M691.63,957.56h-2.36M686.9,957.56h-2.7M681.84,957.56h-1.01M680.83,957.56v-1.35M680.83,953.85v-2.36M680.83,949.12v-2.36M680.83,944.4v-2.7M680.83,939.33v-2.36M680.83,934.61v-2.36M680.83,929.88v-2.36M680.83,925.16v-2.36M680.83,920.43v-2.36M680.83,915.71v-2.7M680.83,910.64v-1.01M680.83,909.63h1.01M684.2,909.63h2.7M689.26,909.63h2.36M693.99,909.63h2.36M698.72,909.63h2.36M703.44,909.63h2.36M708.17,909.63h2.36M713.23,909.63h2.36M717.95,909.63h2.36M722.68,909.63h2.36M727.41,909.63h1.35M728.76,909.63v1.01M728.76,913.01v2.7M728.76,918.07v2.36M728.76,922.79v2.36M728.76,927.52v2.36M728.76,932.24v2.36M728.76,936.97v2.36M728.76,941.7v2.7M728.76,946.76v2.36M728.76,951.48v2.36M728.76,956.21v1.35M563.7,1062.53l12.83,1.35M576.53,1063.88l12.49,3.71M589.02,1067.59l11.48,6.41M600.49,1074.01l10.13,8.1M610.62,1082.11l8.44,10.13M619.06,1092.23l6.08,11.47M625.13,1103.71l3.71,12.49M628.85,1116.2l1.35,13.16M561,1145.23v-15.87M632.56,1129.36v15.87M630.2,1129.36h-66.49M563.7,1129.36v-66.83M560.33,1129.36h.68M728.76,1005.15h-1.35M725.04,1005.15h-2.36M720.32,1005.15h-2.36M715.59,1005.15h-2.36M710.53,1005.15h-2.36M705.8,1005.15h-2.36M701.08,1005.15h-2.36M696.35,1005.15h-2.36M691.63,1005.15h-2.36M686.9,1005.15h-2.7M681.84,1005.15h-1.01M680.83,1005.15v-1.01M680.83,1001.78v-2.36M680.83,996.71v-2.36M680.83,991.99v-2.36M680.83,987.26v-2.36M680.83,982.54v-2.36M680.83,977.81v-2.36M680.83,973.09v-2.36M680.83,968.02v-2.36M680.83,963.3v-2.36M680.83,958.57v-1.01M680.83,957.56h1.01M684.2,957.56h2.7M689.26,957.56h2.36M693.99,957.56h2.36M698.72,957.56h2.36M703.44,957.56h2.36M708.17,957.56h2.36M713.23,957.56h2.36M717.95,957.56h2.36M722.68,957.56h2.36M727.41,957.56h1.35M728.76,957.56v1.01M728.76,960.93v2.36M728.76,965.66v2.36M728.76,970.72v2.36M728.76,975.45v2.36M728.76,980.17v2.36M728.76,984.9v2.36M728.76,989.62v2.36M728.76,994.35v2.36M728.76,999.41v2.36M728.76,1004.14v1.01M728.76,1005.15h-56.03M672.73,1005.15v6.08M672.73,1011.23h56.03M407.09,1011.23v-6.08M476.62,592.35l13.16,1.01M489.79,593.37l12.49,3.38M502.27,596.74l11.81,5.74M514.09,602.48l10.8,7.43M524.89,609.91l9.45,9.45M534.34,619.36l7.43,10.46M541.76,629.82l5.74,12.15M547.5,641.97l3.37,12.49M550.88,654.46l1.01,13.16M476.62,667.62v-75.27M481.35,672.01h65.48M546.83,672.01v-3.71M546.83,668.3h-65.48M481.35,668.3v3.71M550.2,679.44h-72.23M481.35,667.62h65.48M481.35,674.04h65.48M550.2,674.04v5.4M477.97,674.04v5.4M477.97,674.04h72.23M473.92,679.44h4.05M477.97,679.44v-5.4M477.97,674.04h3.37M481.35,674.04v-6.41M481.35,667.62h-7.43M473.92,667.62v11.81M550.2,679.44h4.05M554.25,679.44v-11.81M554.25,667.62h-7.43M546.83,667.62v6.41M546.83,674.04h3.37M550.2,674.04v5.4M665.3,668.3v3.71M559.32,668.3h105.98M559.32,672.01v-3.71M665.3,672.01h-105.98M559.32,679.44h105.98M665.3,667.62h-105.98M559.32,667.62v11.81M555.27,667.62h4.05M555.27,679.44v-11.81M559.32,679.44h-4.05M669.01,667.62v11.81M665.3,667.62h3.71M665.3,679.44v-11.81M669.01,679.44h-3.71M472.91,677.41v32.4M424.64,709.81v218.38M424.64,928.19h127.59M552.23,1129.36h8.77M728.76,1129.36v-118.13M728.76,1005.15v-295.34M670.03,709.81v-32.4M670.03,677.41h-1.01M555.27,677.41h-1.01M473.92,677.41h-1.01M561,1129.36h-.68"/>
  <path class="st3" d="M728.75,1060.17v47.93M728.75,1012.58v95.52M552.23,1129.36v-6.75M552.23,1122.61v-9.11M552.23,1042.95v-54.68M547.16,1111.13h0M544.13,988.27h-117.8"/>
  <path class="st3" d="M481.35,1111.13l1.35-12.83M482.7,1098.31l3.71-12.49M486.41,1085.82l6.08-11.47M492.48,1074.34l8.1-9.79M500.58,1064.56l9.79-8.1M510.37,1056.45l11.47-6.07M521.85,1050.38l12.49-3.71M534.34,1046.67l12.83-1.35M545.81,1042.95h6.41M552.23,1113.5h-6.41M547.16,1107.76v3.38M547.16,1111.13h-65.82M547.16,1111.13h0M547.16,1107.76v-62.44"/>
  <path class="st3" d="M465.48,994.69h-1.35M462.45,994.69h-1.35M465.48,994.69h-4.39M465.48,994.69h-1.35M462.45,994.69h-1.35M432.74,994.69h113.07M545.82,994.69v48.26M545.82,1113.5v7.76M545.82,1121.26h-113.07M432.74,1121.26v-126.57"/>
  <path class="st3" d="M492.82,994.69h-21.26M466.83,994.69h-2.7M462.45,994.69h-2.7M455.02,994.69h-21.27M493.5,995.02l-.67-.34M746.31,928.19v8.1M424.64,936.29h8.1M432.74,936.29v-8.1M432.74,928.19h-8.1M480.33,936.29h63.79M544.13,928.19h-63.79M480.33,928.19v8.1M480.33,936.29h-47.59M432.74,928.19h47.59M432.74,936.29v-8.1M480.33,928.19v8.1M552.23,988.27v-60.08M552.23,928.19h-8.1M472.91,693.95v-30.72M472.91,663.23h-65.82M746.31,663.23h-76.28M670.03,663.23v30.72M670.03,672.01h-1.01M555.27,672.01h-1.01M473.92,672.01h-1.01M472.91,677.41v-5.4M670.03,672.01v5.4M670.03,672.01v-8.78M472.91,663.23v8.78M472.91,672.01h1.01M554.25,672.01h1.01M669.01,672.01h1.01M746.31,663.23v481.99M407.09,1145.22v-481.99"/>
  <g class="st10">
    <path class="st2" d="M1105.77,579.19h-6.07M1082.15,499.87l-16.2,7.09M1070.33,524.51l-4.38-17.55M1042.66,495.82l27.68,28.69M1042.66,495.82l39.49,4.05M1042.66,495.82l23.29,11.14M1105.77,818.5h-6.07M1105.77,658.85h-6.07M1105.77,738.5h-6.07M1105.77,818.5v-239.31M-20.56,1278.21h1183.71"/>
    <path d="M1084.38,1227.3c.43-.28.75-.67.96-1.17.21-.5.32-1.12.32-1.85,0-.58-.11-1.1-.32-1.57-.21-.47-.5-.82-.89-1.07-.38-.25-.78-.37-1.21-.37s-.81.11-1.14.34c-.33.23-.61.58-.82,1.05-.15.33-.32.93-.51,1.8-.19.87-.39,1.42-.57,1.62-.19.21-.43.32-.72.32-.33,0-.62-.15-.85-.45-.24-.3-.36-.77-.36-1.42s.13-1.1.39-1.42c.26-.32.64-.51,1.16-.56l-.07-1.03c-.47.02-.9.15-1.27.4-.37.25-.65.6-.85,1.06-.19.46-.29.99-.29,1.59,0,.55.09,1.05.27,1.49.18.45.45.79.81,1.02.35.23.73.35,1.14.35.37,0,.71-.1,1-.28.3-.19.55-.48.75-.87.16-.3.33-.82.5-1.57.18-.75.31-1.23.4-1.45.13-.34.28-.59.47-.73.19-.15.41-.22.66-.22s.48.08.69.23c.21.15.37.39.49.7.12.31.18.68.18,1.09,0,.46-.08.88-.24,1.25-.16.37-.37.65-.62.82s-.59.29-.99.34l.09,1.01c.54-.02,1.02-.16,1.45-.45M1085.52,1218.58h-2.79l-1.29-1.33,4.08-2.9v-1.42l-4.79,3.57-3.26-3.41v1.46l3.99,4.04h-3.99v1.08h8.06v-1.08Z"/>
    <path d="M1079.86,1209.06h.92v-5.37h-.92v5.37ZM1082.31,1209.06h.92v-5.37h-.92v5.37Z"/>
    <path d="M1084.38,1198.95c.43-.28.75-.67.96-1.17.21-.5.32-1.11.32-1.85,0-.58-.1-1.1-.31-1.57-.21-.47-.51-.82-.89-1.07-.38-.25-.78-.37-1.21-.37s-.81.11-1.14.34c-.33.23-.61.58-.82,1.05-.15.33-.32.93-.51,1.8-.2.88-.39,1.42-.57,1.63-.19.21-.43.31-.72.31-.34,0-.62-.15-.86-.45-.23-.3-.35-.77-.35-1.42s.13-1.1.39-1.42c.26-.32.64-.51,1.16-.56l-.08-1.03c-.47.02-.9.15-1.27.4-.37.25-.66.6-.85,1.07-.19.46-.29.99-.29,1.59,0,.55.09,1.05.27,1.49.18.45.45.79.8,1.02.36.23.73.35,1.14.35.37,0,.7-.1,1-.29.3-.19.55-.48.75-.87.15-.3.32-.83.5-1.57.18-.74.31-1.23.39-1.45.13-.34.29-.59.48-.73.19-.15.41-.22.66-.22s.48.07.69.23c.21.15.38.39.5.7.12.31.18.68.18,1.09,0,.46-.08.88-.24,1.25-.16.37-.37.64-.63.82-.26.17-.59.29-.99.34l.09,1.01c.54-.01,1.02-.16,1.45-.45"/>
    <path d="M1085.52,1190.73h-2.31l-.67-.71,2.99-1.95v-1.23l-3.67,2.48-2.17-2.26v1.29l2.38,2.37h-4.6v1h8.06v-1ZM1085.52,1181.6v-1.04c-.22.12-.46.21-.7.25-.24.04-.83.07-1.74.07h-1.32c-.44,0-.75.02-.91.05-.27.06-.49.16-.67.31-.18.15-.33.38-.44.69-.12.31-.18.72-.18,1.23s.07.95.21,1.33c.14.38.33.68.59.88.25.2.59.35,1,.44l.13-.98c-.42-.11-.7-.27-.87-.5-.16-.22-.24-.57-.24-1.04,0-.5.11-.88.33-1.14.17-.19.45-.28.85-.28.04,0,.12,0,.26,0,.13.38.24.97.34,1.78.05.4.09.69.15.89.07.27.18.5.33.72.14.21.33.38.57.52.24.13.5.2.78.2.49,0,.89-.17,1.2-.52s.47-.84.47-1.49c0-.39-.07-.76-.19-1.1-.13-.34-.35-.7-.66-1.07.27-.03.51-.1.72-.2M1082.95,1181.89c.44,0,.77.05.99.16.29.14.52.36.68.66.17.3.25.64.25,1.02s-.09.69-.26.89c-.18.2-.39.3-.66.3-.18,0-.33-.05-.47-.14-.14-.09-.25-.22-.33-.39-.07-.17-.14-.46-.2-.87-.1-.73-.22-1.27-.37-1.63h.36Z"/>
    <path d="M1085.52,1178.57h-2.31l-.67-.71,2.99-1.95v-1.23l-3.67,2.48-2.16-2.25v1.29l2.38,2.37h-4.6v1h8.06v-1ZM1084.68,1172.1c0,.15-.03.26-.07.34-.05.08-.11.14-.19.17-.08.03-.26.05-.54.05h-3.41v-1.01h-.77v1.01h-2.04l.59.99h1.45v.73h.77v-.73h3.36c.6,0,.98-.04,1.17-.12.19-.08.34-.22.45-.42.11-.2.17-.48.17-.84,0-.22-.03-.47-.09-.76l-.88.14c.03.18.04.33.04.44"/>
    <path d="M1098.69,1226.25h-3.66v-3.82h-.95v3.82h-2.49v-4.41h-.95v5.49h8.06v-1.08ZM1097.55,1220.55c.43-.28.75-.67.96-1.17.21-.5.32-1.11.32-1.85,0-.58-.1-1.11-.31-1.57-.21-.46-.51-.82-.89-1.07-.38-.25-.78-.37-1.21-.37s-.81.11-1.14.34c-.33.23-.61.58-.83,1.05-.14.33-.32.93-.51,1.8-.2.88-.39,1.42-.57,1.63-.19.21-.43.31-.72.31-.33,0-.62-.15-.85-.45-.23-.3-.35-.77-.35-1.42s.13-1.1.39-1.42c.26-.32.64-.51,1.16-.56l-.08-1.03c-.47.02-.9.15-1.27.4-.37.25-.66.6-.85,1.07-.19.46-.29.99-.29,1.59,0,.55.09,1.05.27,1.49.19.45.45.79.81,1.02.35.24.73.35,1.14.35.37,0,.7-.1,1-.29.3-.19.55-.48.75-.87.16-.3.33-.83.5-1.57.18-.74.31-1.23.4-1.45.13-.34.28-.59.48-.73.19-.15.41-.22.66-.22s.48.07.69.23c.21.15.38.39.5.7.12.31.18.68.18,1.09,0,.46-.08.88-.24,1.25-.16.37-.37.64-.63.82-.26.17-.59.29-.99.34l.09,1.01c.54-.01,1.02-.16,1.45-.45"/>
    <path d="M1093.03,1210.08h.92v-5.37h-.92v5.37ZM1095.47,1210.08h.92v-5.37h-.92v5.37Z"/>
    <polygon points="1098.69 1198.91 1095.02 1198.91 1095.02 1195.1 1094.07 1195.1 1094.07 1198.91 1091.58 1198.91 1091.58 1194.5 1090.63 1194.5 1090.63 1199.99 1098.69 1199.99 1098.69 1198.91"/>
    <path d="M1098.03,1192.69c.52-.51.79-1.18.79-2,0-.51-.12-.99-.36-1.42-.24-.43-.57-.76-1-.99-.43-.23-1.02-.34-1.77-.34-.93,0-1.65.26-2.18.77-.53.52-.79,1.18-.79,1.99,0,.73.22,1.35.65,1.85.52.61,1.32.91,2.4.91.98,0,1.74-.25,2.26-.76M1094.09,1191.93c-.37-.33-.55-.74-.55-1.24s.19-.9.56-1.23c.37-.33.92-.5,1.64-.5.77,0,1.34.16,1.71.49.38.33.56.74.56,1.24s-.19.91-.56,1.24c-.37.33-.93.49-1.68.49s-1.31-.16-1.68-.49M1098.69,1186.02h-3.05c-.42,0-.81-.06-1.16-.17-.23-.07-.41-.2-.54-.37-.13-.18-.2-.37-.2-.59,0-.24.07-.49.21-.73l-.92-.34c-.21.35-.32.69-.32,1.03,0,.23.07.45.2.64.13.19.4.4.82.63h-.89v.9h5.84v-1Z"/>
    <path d="M1097.72,1179.87c.19.26.28.57.28.94,0,.49-.17.9-.51,1.23-.34.33-.83.51-1.48.55v-4.4c-.11,0-.2,0-.26,0-.97,0-1.71.25-2.24.75-.53.5-.8,1.14-.8,1.93s.27,1.47.81,1.98c.54.51,1.31.77,2.29.77s1.69-.25,2.21-.76c.53-.5.79-1.19.79-2.05,0-.68-.17-1.25-.5-1.69-.33-.44-.79-.74-1.39-.9l-.13,1.03c.42.15.72.36.91.62M1093.99,1182.02c-.31-.31-.46-.7-.46-1.16,0-.51.19-.92.57-1.24.25-.21.62-.33,1.11-.38v3.29c-.51-.03-.91-.21-1.22-.52M1098.35,1176.51c.32-.4.47-.98.47-1.75,0-.46-.08-.88-.24-1.24-.16-.37-.38-.65-.68-.84-.29-.19-.6-.29-.93-.29s-.62.08-.85.24c-.23.16-.4.38-.52.66-.12.28-.27.77-.46,1.48-.13.49-.22.78-.25.88-.07.17-.16.3-.27.38-.1.08-.22.12-.35.12-.2,0-.38-.1-.53-.3-.15-.19-.22-.52-.22-.98,0-.39.08-.69.25-.9.17-.21.4-.34.71-.38l-.13-.97c-.38.06-.68.18-.9.34-.22.17-.41.42-.54.77-.13.35-.2.76-.2,1.22,0,.31.04.59.12.87.08.27.18.48.29.63.15.21.33.37.55.49.22.12.46.18.72.18.28,0,.55-.07.78-.22.23-.15.42-.36.55-.64.13-.28.29-.79.48-1.52.14-.55.25-.88.33-1.02.13-.2.31-.29.53-.29.25,0,.47.11.65.33.19.22.28.56.28,1.02s-.1.81-.31,1.06c-.21.25-.51.41-.9.46l.16.99c.62-.11,1.09-.37,1.4-.77M1090.63,1171.13h8.06v-1h-8.06v1ZM1098.69,1164.44v-1.04c-.22.13-.46.21-.7.25-.24.04-.83.06-1.74.06h-1.32c-.44,0-.74.02-.91.05-.27.06-.5.17-.67.31-.18.15-.33.38-.44.69-.12.31-.18.72-.18,1.23s.07.95.21,1.34c.14.38.33.68.59.88.25.21.59.35,1,.44l.13-.98c-.42-.11-.7-.27-.87-.5-.17-.22-.24-.57-.24-1.04,0-.5.11-.88.34-1.14.16-.19.45-.28.85-.28.04,0,.12,0,.26,0,.13.38.24.97.34,1.78.05.4.1.69.15.89.07.27.18.5.32.72.15.21.33.38.57.52.24.13.5.2.78.2.49,0,.89-.17,1.2-.52s.47-.84.47-1.49c0-.39-.06-.76-.19-1.1-.13-.34-.35-.7-.66-1.07.27-.03.51-.1.72-.2M1096.12,1164.73c.44,0,.77.06.99.16.29.14.52.36.69.66.16.3.25.64.25,1.03s-.09.69-.26.89c-.18.2-.39.3-.66.3-.17,0-.33-.04-.47-.14-.14-.09-.25-.22-.32-.39-.07-.17-.14-.46-.2-.87-.1-.72-.22-1.27-.37-1.63h.36ZM1092.07,1166.82c.2-.19.29-.43.29-.71s-.1-.5-.29-.7c-.2-.2-.44-.3-.72-.3s-.52.1-.71.3c-.2.2-.29.43-.29.7s.1.5.29.7.42.3.69.3c.29,0,.54-.1.74-.3M1090.92,1166.52c-.11-.12-.17-.26-.17-.41s.06-.3.18-.42c.12-.11.26-.17.43-.17s.3.06.42.17c.12.12.17.25.17.42s-.06.29-.17.41c-.12.12-.26.17-.44.17-.16,0-.3-.06-.42-.17M1097.72,1158.66c.19.26.28.57.28.94,0,.49-.17.9-.51,1.23-.34.33-.83.51-1.48.55v-4.4c-.11,0-.2,0-.26,0-.97,0-1.71.25-2.24.75-.53.5-.8,1.15-.8,1.93s.27,1.48.81,1.98c.54.51,1.31.76,2.29.76s1.69-.25,2.21-.76c.53-.5.79-1.19.79-2.05,0-.68-.17-1.25-.5-1.69-.33-.44-.79-.74-1.39-.9l-.13,1.03c.42.15.72.36.91.61M1093.99,1160.8c-.31-.31-.46-.7-.46-1.16,0-.51.19-.92.57-1.24.25-.21.62-.33,1.11-.38v3.29c-.51-.03-.91-.21-1.22-.52"/>
    <path d="M1097.84,1153.87c0,.15-.03.26-.07.34-.05.08-.11.14-.19.17-.08.03-.26.05-.54.05h-3.41v-1.01h-.77v1.01h-2.04l.59,1h1.45v.73h.77v-.73h3.36c.6,0,.99-.04,1.17-.12.18-.08.33-.22.45-.42.11-.2.17-.48.17-.84,0-.22-.03-.47-.09-.75l-.87.14c.03.18.04.33.04.44M1098.35,1149.18c.32-.4.47-.98.47-1.75,0-.46-.08-.88-.24-1.25-.16-.37-.38-.65-.67-.84-.29-.2-.6-.29-.93-.29s-.62.08-.85.24c-.23.16-.4.38-.52.66s-.27.77-.46,1.48c-.14.49-.22.78-.26.88-.07.17-.15.3-.26.38-.1.08-.21.12-.35.12-.2,0-.38-.1-.53-.3s-.22-.52-.22-.98c0-.39.08-.69.25-.9.17-.21.4-.34.7-.38l-.13-.98c-.38.06-.68.18-.9.34-.22.17-.4.43-.54.78-.13.35-.2.76-.2,1.22,0,.31.04.59.12.86.08.27.18.48.29.63.15.21.33.37.55.49.22.12.46.18.72.18.29,0,.55-.07.78-.22.24-.14.42-.36.56-.65.13-.28.29-.79.48-1.52.13-.54.25-.88.34-1.02.13-.19.31-.29.53-.29.25,0,.47.11.65.33.19.22.28.56.28,1.02s-.11.81-.32,1.06c-.21.25-.51.41-.9.46l.15.99c.62-.11,1.09-.36,1.4-.77"/>
    <path d="M1098.69,1142.46h-2.31l-.67-.71,2.99-1.95v-1.23l-3.67,2.48-2.17-2.25v1.29l2.38,2.36h-4.6v1h8.06v-1ZM1098.69,1133.68v-1.04c-.22.12-.46.21-.7.25-.25.04-.83.07-1.75.07h-1.32c-.44,0-.74.02-.91.05-.27.06-.5.16-.67.31-.18.15-.33.38-.44.69-.12.31-.18.72-.18,1.23s.07.95.21,1.33c.14.38.34.68.59.88.25.2.59.35,1,.44l.13-.98c-.41-.11-.7-.27-.87-.5-.16-.22-.24-.57-.24-1.04,0-.5.11-.88.33-1.14.17-.19.45-.28.85-.28.04,0,.12,0,.26,0,.13.38.25.97.35,1.78.05.4.09.69.15.89.07.27.18.5.33.72.14.21.33.38.57.52.23.13.49.2.78.2.49,0,.89-.17,1.2-.52.31-.35.47-.84.47-1.49,0-.39-.07-.76-.19-1.1-.13-.34-.35-.7-.66-1.07.27-.03.51-.1.72-.2M1096.12,1133.96c.44,0,.77.05.99.16.29.14.52.36.69.66.17.3.25.64.25,1.02s-.09.69-.26.89c-.18.2-.39.3-.66.3-.17,0-.33-.05-.47-.14-.14-.09-.25-.22-.32-.39-.07-.17-.14-.46-.2-.87-.1-.73-.23-1.27-.37-1.63h.36Z"/>
    <path d="M1097.96,1130.73c.57-.4.86-.94.86-1.64s-.27-1.3-.82-1.8c-.55-.5-1.32-.75-2.32-.75-.42,0-.82.06-1.19.18-.37.12-.68.28-.95.49-.26.21-.47.48-.61.8-.15.32-.22.67-.22,1.03,0,.65.26,1.19.79,1.62h-2.88v1h8.06v-.93h-.73ZM1094.09,1130.26c-.37-.32-.56-.69-.56-1.13s.18-.8.54-1.11c.36-.31.93-.46,1.69-.46s1.3.16,1.68.48c.38.32.56.69.56,1.13,0,.54-.25.96-.76,1.27-.31.19-.82.29-1.52.29s-1.25-.16-1.63-.48"/>
    <path d="M1097.65,819.92c.56-.45.83-1.06.83-1.85,0-.6-.16-1.09-.48-1.48-.32-.39-.76-.68-1.34-.88-.58-.2-1.34-.29-2.29-.29-.8,0-1.43.06-1.9.18-.47.12-.87.29-1.2.5-.33.21-.58.49-.76.81-.17.33-.26.71-.26,1.15,0,.59.15,1.08.47,1.47.31.39.76.69,1.34.88.58.2,1.35.29,2.3.29,1.51,0,2.61-.27,3.28-.8M1091.65,819.19c-.38-.28-.58-.64-.58-1.1s.22-.85.65-1.17,1.32-.47,2.64-.47,2.2.16,2.64.47.66.7.66,1.16-.22.84-.65,1.16c-.44.31-1.32.47-2.64.47s-2.23-.17-2.72-.52M1097.4,666.23c-.18-.11-.36-.25-.53-.42-.18-.17-.52-.55-1.02-1.15-.6-.72-1.07-1.23-1.42-1.54-.35-.31-.67-.53-.98-.66-.31-.13-.63-.2-.95-.2-.63,0-1.17.23-1.6.68-.43.46-.64,1.07-.64,1.86s.2,1.39.59,1.85c.4.46.98.73,1.74.8l.11-1.03c-.51,0-.9-.15-1.19-.44-.29-.29-.43-.68-.43-1.16,0-.46.13-.83.4-1.11.27-.28.6-.43.99-.43s.77.16,1.19.47c.42.31.99.91,1.71,1.79.46.57.87,1.01,1.22,1.31.35.3.71.52,1.07.66.22.08.45.12.69.11v-5.38h-.95v3.99Z"/>
    <path d="M1098.35,660.14h-3.03c-.53,0-.94-.05-1.22-.16-.28-.11-.5-.28-.64-.52-.15-.24-.22-.5-.22-.78,0-.37.11-.64.33-.8.22-.16.55-.24.99-.24h3.79v-1h-3.39c-.6,0-1.04-.14-1.31-.41-.27-.28-.41-.62-.41-1.04,0-.23.06-.43.16-.6.11-.17.25-.29.42-.35.17-.07.46-.1.86-.1h3.68v-1h-4.01c-.66,0-1.16.16-1.48.47-.32.31-.48.76-.48,1.35,0,.75.34,1.35,1.02,1.82-.32.11-.57.31-.75.59-.18.28-.27.64-.27,1.07,0,.39.08.74.26,1.05.17.31.4.55.69.74h-.82v.9h5.84v-1Z"/>
    <path d="M1090.26,741.02v.64c.35.17.71.47,1.08.89.37.42.68.9.94,1.46h.95c-.11-.31-.28-.66-.51-1.05s-.46-.7-.68-.95h6.31v-1h-8.09ZM1098.35,737.1h-3.03c-.53,0-.94-.05-1.22-.16-.28-.11-.5-.28-.64-.52-.15-.24-.22-.5-.22-.78,0-.37.11-.63.33-.8.22-.16.55-.24.99-.24h3.79v-1h-3.39c-.6,0-1.04-.14-1.31-.41-.27-.27-.41-.62-.41-1.03,0-.23.06-.43.16-.6.11-.17.25-.29.42-.35.17-.07.46-.1.86-.1h3.68v-.99h-4.01c-.66,0-1.16.16-1.48.47-.32.31-.48.76-.48,1.35,0,.75.34,1.35,1.02,1.82-.32.11-.57.31-.75.59-.18.28-.27.64-.27,1.07,0,.39.08.74.26,1.05.17.31.4.55.69.74h-.82v.89h5.84v-1Z"/>
    <path d="M1098.35,915.85h-6.86l6.86-2.35v-.97l-6.74-2.36h6.74v-1.04h-8.06v1.45l5.61,1.94c.57.2,1,.34,1.29.44-.26.08-.66.21-1.19.39l-5.71,1.92v1.62h8.06v-1.04ZM1098.35,903.82v-1.04c-.22.13-.46.21-.7.25-.24.04-.83.06-1.74.06h-1.32c-.44,0-.75.02-.91.05-.27.06-.49.16-.67.31-.18.15-.33.38-.44.69-.12.31-.18.72-.18,1.23s.07.95.21,1.34c.14.39.33.68.59.88.25.21.59.35,1,.44l.13-.98c-.41-.11-.7-.27-.87-.49-.16-.22-.24-.57-.24-1.04,0-.5.11-.88.34-1.14.16-.19.45-.28.85-.28.04,0,.12,0,.26,0,.13.38.25.97.34,1.78.05.4.1.69.15.89.07.26.18.5.33.72.14.21.33.38.57.51.23.13.5.2.78.2.49,0,.89-.18,1.2-.52.32-.35.47-.85.47-1.49,0-.39-.07-.76-.19-1.1-.13-.34-.35-.7-.66-1.07.27-.03.51-.1.72-.2M1095.78,904.1c.44,0,.76.06.99.16.29.14.52.36.68.66.17.3.25.64.25,1.03s-.09.68-.26.88c-.18.2-.4.3-.66.3-.17,0-.33-.05-.47-.14-.14-.09-.25-.22-.32-.39-.07-.17-.14-.46-.2-.87-.1-.72-.22-1.27-.37-1.63h.36ZM1091.73,906.2c.2-.2.29-.43.29-.71s-.09-.5-.29-.7c-.19-.2-.43-.29-.71-.29s-.52.1-.71.29c-.2.2-.3.43-.3.7s.1.5.29.7c.2.2.43.3.69.3.29,0,.54-.1.73-.29M1090.58,905.89c-.11-.12-.17-.26-.17-.41s.06-.3.18-.42c.12-.11.26-.17.42-.17s.31.06.42.18c.11.12.18.25.18.42s-.06.29-.18.41c-.12.12-.26.18-.44.18-.16,0-.3-.06-.41-.18"/>
    <rect x="1090.29" y="900.48" width="8.06" height="1"/>
    <path d="M1090.26,892.23v.64c.35.17.71.47,1.07.89.37.42.69.9.95,1.46h.96c-.11-.31-.28-.66-.51-1.05s-.46-.7-.68-.95h6.31v-1h-8.09ZM1092.51,889.03h1.13v-1.14h-1.13v1.14ZM1097.22,889.03h1.13v-1.14h-1.13v1.14Z"/>
    <path d="M1097.87,885.74c.41-.47.62-1.07.62-1.81,0-.9-.33-1.61-.98-2.14-.53-.43-1.16-.64-1.89-.64s-1.39.24-1.88.73c-.49.49-.73,1.09-.73,1.8,0,.54.17,1.05.51,1.54l-2.16-.44v-3.25h-.95v4.05l4.14.79.12-.94c-.23-.15-.42-.35-.57-.61-.14-.26-.21-.55-.21-.87,0-.52.16-.94.49-1.26.33-.32.77-.48,1.33-.48s1.07.17,1.43.5c.36.33.54.74.54,1.22,0,.4-.13.74-.38,1.03-.25.28-.63.46-1.14.54l.09,1.05c.68-.07,1.22-.34,1.63-.8M1097.65,879.33c.56-.45.84-1.06.84-1.85,0-.6-.16-1.09-.48-1.48-.32-.39-.76-.68-1.35-.88-.58-.2-1.34-.3-2.29-.3-.8,0-1.43.06-1.9.18-.47.12-.87.29-1.2.51-.33.21-.58.49-.76.82-.17.33-.26.71-.26,1.15,0,.59.16,1.08.47,1.47.31.39.76.68,1.34.88.58.2,1.35.3,2.3.3,1.51,0,2.61-.27,3.27-.81M1091.65,878.59c-.38-.27-.58-.64-.58-1.1s.22-.86.65-1.17c.43-.31,1.32-.47,2.64-.47s2.2.15,2.64.47c.44.31.66.7.66,1.16s-.22.84-.66,1.16c-.44.31-1.32.47-2.64.47s-2.23-.17-2.72-.51"/>
    <polygon class="st13" points="1098.35 528.9 1075.74 517.76 1082.49 503.25 1105.44 514.39 1098.35 528.9"/>
    <polygon points="1095.6 523.15 1084.25 517.66 1099.28 515.54 1100.23 513.57 1085.79 506.58 1084.9 508.42 1096.24 513.91 1081.22 516.03 1080.27 518 1094.71 524.99 1095.6 523.15"/>
    <path d="M1097.86,587.02c.42-.47.64-1.07.64-1.78,0-.79-.25-1.45-.74-1.97-.49-.52-1.09-.77-1.79-.77-.52,0-.95.13-1.3.4-.35.27-.58.64-.69,1.12-.17-.37-.39-.65-.68-.84-.29-.19-.61-.28-.95-.28-.37,0-.71.1-1.04.3-.33.2-.59.49-.77.86-.19.37-.28.78-.28,1.22,0,.64.18,1.18.55,1.62.36.43.88.71,1.54.83l.18-1c-.48-.07-.85-.24-1.09-.5-.24-.26-.36-.58-.36-.97s.12-.71.36-.96.54-.37.9-.37c.46,0,.8.17,1.02.51.22.34.33.72.33,1.15,0,.04,0,.09,0,.16l.87.11c-.07-.28-.11-.52-.11-.7,0-.47.15-.85.44-1.15.3-.3.67-.45,1.13-.45s.88.16,1.2.48c.32.33.49.72.49,1.19,0,.4-.13.73-.37,1.01-.25.27-.65.47-1.21.58l.13,1c.67-.07,1.22-.34,1.64-.8M1098.35,580.48h-3.03c-.53,0-.94-.05-1.22-.16-.28-.1-.5-.28-.64-.52s-.22-.5-.22-.78c0-.37.11-.63.33-.8.22-.16.55-.24.99-.24h3.79v-1h-3.39c-.6,0-1.04-.14-1.31-.41-.27-.27-.41-.62-.41-1.03,0-.23.06-.43.16-.6.11-.17.25-.29.42-.35.17-.07.46-.1.86-.1h3.68v-.99h-4.01c-.66,0-1.16.16-1.48.47-.32.31-.48.76-.48,1.35,0,.75.34,1.35,1.02,1.82-.32.11-.57.31-.75.59-.18.28-.27.64-.27,1.07,0,.39.08.74.26,1.05.17.31.4.55.69.74h-.82v.89h5.84v-1Z"/>
    <rect class="st13" x="19.27" y="944.73" width="18.9" height="311.88"/>
    <path d="M22.72,1250.33v.95c.52.26,1.06.7,1.61,1.32.55.62,1.02,1.35,1.41,2.17h1.43c-.17-.46-.42-.98-.76-1.56-.34-.58-.68-1.05-1.01-1.4h9.41v-1.48h-12.08ZM33.11,1245.64h1.68v-1.69h-1.68v1.69ZM33.09,1241c.64-.42,1.11-1,1.43-1.74.32-.73.48-1.65.48-2.74,0-.86-.16-1.64-.47-2.33-.31-.69-.75-1.22-1.32-1.59-.56-.37-1.17-.55-1.81-.55s-1.22.17-1.71.5-.9.85-1.22,1.56c-.22.48-.48,1.37-.77,2.67-.29,1.3-.58,2.1-.86,2.4-.28.31-.63.47-1.07.47-.5,0-.92-.22-1.28-.66-.35-.44-.53-1.14-.53-2.11s.2-1.63.58-2.1c.39-.48.97-.76,1.72-.84l-.11-1.53c-.71.03-1.34.23-1.89.59s-.98.89-1.27,1.58c-.29.68-.43,1.47-.43,2.36,0,.81.14,1.55.41,2.22.28.66.68,1.17,1.2,1.51.53.35,1.1.52,1.7.52.55,0,1.05-.14,1.5-.42.45-.28.82-.71,1.12-1.29.23-.44.49-1.22.75-2.33.27-1.11.46-1.82.59-2.15.19-.5.43-.87.71-1.08.28-.22.61-.33.99-.33s.72.12,1.03.34.56.57.74,1.04c.18.47.27,1.01.27,1.61,0,.69-.12,1.31-.36,1.85-.24.55-.55.95-.93,1.22-.39.26-.88.43-1.48.5l.13,1.5c.8-.02,1.53-.24,2.16-.66M34.8,1224v-1.55c-.33.18-.68.31-1.05.37-.36.07-1.23.1-2.6.1h-1.97c-.66,0-1.11.02-1.36.07-.41.09-.74.24-1.01.46-.26.22-.48.56-.66,1.03-.17.47-.27,1.07-.27,1.82s.1,1.41.31,1.98c.21.57.5,1.01.88,1.31.38.3.88.52,1.5.65l.19-1.45c-.62-.16-1.05-.41-1.29-.74-.24-.33-.36-.85-.36-1.54,0-.75.17-1.31.5-1.69.25-.28.67-.42,1.27-.42.05,0,.18,0,.38,0,.2.56.37,1.45.51,2.64.07.59.15,1.03.22,1.32.11.39.27.75.48,1.06.21.32.5.57.85.76.35.2.74.29,1.17.29.73,0,1.32-.26,1.8-.77.46-.52.7-1.25.7-2.22,0-.58-.1-1.12-.29-1.63-.19-.51-.52-1.03-.98-1.58.41-.04.77-.14,1.08-.3M30.97,1224.41c.65,0,1.14.08,1.47.24.43.21.77.54,1.02.98.25.45.37.95.37,1.53s-.13,1.01-.39,1.31c-.26.3-.59.45-.98.45-.26,0-.49-.07-.7-.21-.21-.14-.37-.33-.48-.58-.11-.25-.21-.68-.3-1.29-.15-1.08-.34-1.88-.56-2.42h.54ZM22.77,1220.59h12.02v-1.48h-12.02v1.48ZM26.08,1216.33h1.68v-1.69h-1.68v1.69ZM33.11,1216.33h1.68v-1.69h-1.68v1.69ZM23.52,1201.05c-.53.61-.8,1.38-.8,2.33,0,1.27.46,2.29,1.38,3.04,1.05.86,2.74,1.29,5.07,1.29,2.08,0,3.57-.39,4.48-1.17.9-.78,1.36-1.79,1.36-3.02,0-.72-.17-1.37-.52-1.94-.35-.57-.84-1.02-1.49-1.34-.65-.33-1.35-.49-2.1-.49-1.15,0-2.08.35-2.81,1.04-.73.69-1.09,1.53-1.09,2.52,0,.56.13,1.11.39,1.62.26.52.66.95,1.2,1.31-1.2,0-2.13-.15-2.78-.42-.65-.27-1.15-.63-1.48-1.1-.26-.36-.4-.77-.4-1.24,0-.59.21-1.08.63-1.48.26-.24.68-.43,1.27-.56l-.12-1.47c-.93.12-1.67.49-2.2,1.09M29.02,1205.31c-.48-.47-.72-1.04-.72-1.7s.24-1.24.72-1.68c.48-.45,1.13-.67,1.96-.67s1.55.23,2.05.67c.5.45.76.99.76,1.61,0,.43-.12.84-.37,1.23-.24.39-.6.69-1.06.91-.47.21-.95.33-1.46.33-.78,0-1.4-.23-1.88-.7M33.11,1197.38h1.68v-1.69h-1.68v1.69ZM34.8,1188.32c0-.77-.07-1.42-.2-1.95s-.33-.97-.59-1.32c-.26-.35-.64-.64-1.12-.89-.49-.24-1.01-.36-1.57-.36-.7,0-1.31.2-1.82.59s-.88.95-1.09,1.68c-.28-.56-.65-.99-1.1-1.27-.45-.28-.94-.42-1.45-.42-.55,0-1.08.16-1.59.47-.51.32-.88.75-1.13,1.31-.24.56-.36,1.3-.36,2.22v4.53h12.02v-4.6ZM24.19,1191.33v-2.41c0-.87.06-1.48.17-1.84.11-.36.32-.63.62-.82.3-.19.66-.29,1.05-.29.42,0,.77.1,1.05.31.28.21.48.51.6.92.09.31.14.81.14,1.52v2.61h-3.63ZM29.24,1191.33v-2.79c0-.77.07-1.36.2-1.77.13-.41.37-.73.7-.96.33-.23.72-.35,1.17-.35.38,0,.72.08,1.01.24.29.16.52.36.67.61.15.25.26.56.33.92.04.21.06.57.06,1.09v3h-4.13ZM33.11,1181.32h1.68v-1.69h-1.68v1.69ZM22.72,1171.82v.96c.52.26,1.06.69,1.61,1.32.55.62,1.02,1.34,1.41,2.17h1.43c-.17-.46-.42-.98-.76-1.56-.34-.58-.68-1.05-1.01-1.41h9.41v-1.48h-12.08ZM33.11,1167.12h1.68v-1.69h-1.68v1.69ZM24.34,1157.2c.86.75,1.9,1.46,3.15,2.13,1.24.67,2.53,1.18,3.88,1.53,1.34.36,2.48.54,3.43.56v-1.52c-1.2-.08-2.3-.27-3.31-.57-1.43-.41-2.81-1-4.17-1.75-1.35-.76-2.43-1.52-3.25-2.29h-1.15v7.81h1.42v-5.91ZM34.8,1152.12c.5.01.88.1,1.15.25.27.15.47.38.6.69l.63-.41c-.21-.48-.5-.83-.88-1.04-.38-.22-.88-.33-1.5-.33h-1.68v1.69h1.68v-.84ZM23.52,1137.66c-.53.61-.8,1.39-.8,2.33,0,1.27.46,2.29,1.38,3.04,1.05.86,2.74,1.29,5.07,1.29,2.08,0,3.57-.39,4.48-1.17.9-.78,1.36-1.78,1.36-3.02,0-.73-.17-1.37-.52-1.94-.35-.57-.84-1.02-1.49-1.34-.65-.33-1.35-.49-2.1-.49-1.15,0-2.08.35-2.81,1.04-.73.69-1.09,1.54-1.09,2.52,0,.56.13,1.11.39,1.62.26.52.66.95,1.2,1.31-1.2-.01-2.13-.15-2.78-.42-.65-.27-1.15-.64-1.48-1.1-.26-.36-.4-.77-.4-1.25,0-.59.21-1.08.63-1.48.26-.24.68-.43,1.27-.56l-.12-1.47c-.93.12-1.67.48-2.2,1.09M29.02,1141.92c-.48-.47-.72-1.04-.72-1.7s.24-1.24.72-1.68c.48-.45,1.13-.67,1.96-.67s1.55.23,2.05.68c.5.45.76.99.76,1.61,0,.43-.12.84-.37,1.23-.24.39-.6.69-1.06.91-.47.22-.95.33-1.46.33-.78,0-1.4-.24-1.88-.7M33.11,1133.99h1.68v-1.69h-1.68v1.69ZM34.8,1124.93c0-.77-.07-1.42-.2-1.95-.14-.53-.33-.97-.59-1.32-.26-.35-.64-.64-1.12-.89-.49-.24-1.01-.36-1.57-.36-.7,0-1.31.2-1.82.59-.52.39-.88.96-1.09,1.68-.28-.56-.65-.99-1.1-1.27-.45-.28-.94-.42-1.45-.42-.55,0-1.08.16-1.59.47-.51.31-.88.75-1.13,1.31-.24.56-.36,1.3-.36,2.22v4.52h12.02v-4.6ZM24.19,1127.94v-2.41c0-.87.06-1.48.17-1.84.11-.35.32-.63.62-.82.3-.19.66-.29,1.05-.29.42,0,.77.1,1.05.31.28.21.48.51.6.92.09.31.14.82.14,1.52v2.61h-3.63ZM29.24,1127.94v-2.79c0-.77.07-1.36.2-1.77.13-.41.37-.73.7-.96.33-.23.72-.35,1.17-.35.38,0,.72.08,1.01.24.29.16.52.36.67.61.15.25.26.56.33.92.04.21.06.57.06,1.09v3h-4.13ZM33.11,1117.93h1.68v-1.69h-1.68v1.69ZM22.72,1108.43v.96c.52.26,1.06.7,1.61,1.32.55.62,1.02,1.34,1.41,2.17h1.43c-.17-.46-.42-.98-.76-1.56-.34-.58-.68-1.04-1.01-1.4h9.41v-1.48h-12.08ZM33.11,1103.73h1.68v-1.69h-1.68v1.69ZM34.22,1098.51c.52-.6.78-1.37.78-2.31,0-.89-.24-1.67-.71-2.32-.48-.66-1.17-1.16-2.08-1.5-.91-.34-2.13-.5-3.67-.5s-2.6.17-3.38.51c-.78.34-1.38.83-1.8,1.48-.42.65-.63,1.37-.63,2.15,0,1.09.37,1.99,1.11,2.71.75.72,1.73,1.08,2.95,1.08s2.13-.35,2.85-1.04c.72-.69,1.08-1.54,1.08-2.53,0-.6-.15-1.15-.44-1.67-.29-.51-.67-.92-1.15-1.21.13,0,.23,0,.3,0,.61,0,1.21.07,1.8.22.59.15,1.06.33,1.41.55s.62.5.83.84c.21.35.31.74.31,1.2,0,.53-.15.97-.45,1.31-.3.34-.79.57-1.45.69l.13,1.42c.95-.12,1.68-.48,2.2-1.08M28.7,1094.19c.48.44.72,1,.72,1.69s-.24,1.25-.72,1.72c-.48.46-1.1.69-1.86.69-.86,0-1.55-.24-2.08-.73-.54-.49-.8-1.06-.8-1.72s.25-1.18.75-1.63,1.17-.68,2.02-.68,1.51.22,1.99.66M34.8,1088.73c.5.02.88.1,1.15.25.27.15.47.38.6.69l.63-.41c-.21-.48-.5-.83-.88-1.05-.38-.22-.88-.33-1.5-.33h-1.68v1.69h1.68v-.84Z"/>
    <path d="M23.52,1073.8c-.53.61-.8,1.39-.8,2.33,0,1.27.46,2.28,1.38,3.04,1.05.86,2.74,1.29,5.07,1.29,2.08,0,3.57-.39,4.48-1.17.9-.78,1.36-1.79,1.36-3.02,0-.72-.17-1.37-.52-1.94-.35-.57-.84-1.02-1.49-1.34-.65-.33-1.35-.49-2.1-.49-1.15,0-2.09.35-2.81,1.04-.73.69-1.09,1.54-1.09,2.52,0,.57.13,1.11.4,1.62.26.52.66.95,1.2,1.31-1.2-.01-2.13-.15-2.78-.42-.65-.27-1.15-.64-1.48-1.1-.27-.36-.4-.77-.4-1.25,0-.59.21-1.08.63-1.48.26-.24.69-.43,1.26-.56l-.12-1.47c-.94.12-1.67.49-2.2,1.09M29.02,1078.06c-.48-.47-.72-1.04-.72-1.71s.24-1.24.72-1.68c.48-.45,1.13-.67,1.96-.67s1.55.23,2.05.68c.51.45.76.99.76,1.61,0,.43-.12.84-.37,1.23-.24.39-.6.69-1.06.91-.47.21-.95.33-1.46.33-.78,0-1.41-.24-1.88-.7M33.12,1070.11h1.68v-1.69h-1.68v1.69Z"/>
    <path d="M34.8,1061.08c0-.77-.07-1.42-.2-1.94-.14-.53-.33-.97-.59-1.32-.26-.35-.63-.65-1.12-.89s-1.01-.36-1.57-.36c-.7,0-1.31.2-1.82.59-.52.39-.88.96-1.09,1.68-.28-.56-.65-.99-1.1-1.26-.45-.28-.94-.42-1.45-.42-.55,0-1.08.16-1.59.47-.51.32-.88.75-1.13,1.31-.24.56-.36,1.3-.36,2.22v4.53h12.03v-4.6ZM24.19,1064.09v-2.41c0-.87.06-1.48.17-1.83.11-.36.32-.63.62-.82.3-.19.66-.29,1.05-.29.42,0,.77.1,1.05.31.28.21.48.51.6.92.09.31.14.81.14,1.52v2.61h-3.64ZM29.24,1064.09v-2.79c0-.77.07-1.36.2-1.77.13-.41.36-.73.7-.96.33-.23.72-.35,1.17-.35.38,0,.72.08,1.01.24.29.16.52.36.67.61.15.24.26.55.33.92.04.21.06.57.06,1.09v3.01h-4.14ZM33.12,1054.25h1.68v-1.69h-1.68v1.69Z"/>
    <path d="M22.72,1044.78v.95c.52.26,1.06.7,1.61,1.32.55.62,1.02,1.34,1.41,2.17h1.43c-.17-.46-.42-.98-.76-1.56-.34-.58-.68-1.05-1.02-1.41h9.41v-1.48h-12.08ZM33.12,1039.73h1.68v-1.69h-1.68v1.69Z"/>
    <path d="M22.72,1030.26v.96c.52.26,1.05.69,1.61,1.32s1.03,1.34,1.41,2.17h1.43c-.17-.46-.42-.98-.76-1.56-.34-.58-.68-1.04-1.01-1.4h9.41v-1.48h-12.08ZM22.72,1020.83v.96c.52.26,1.05.7,1.61,1.32s1.03,1.35,1.41,2.17h1.43c-.17-.46-.42-.98-.76-1.56-.34-.58-.68-1.04-1.01-1.4h9.41v-1.48h-12.08ZM34.8,1015.35c.5.02.88.1,1.15.25.26.15.47.38.6.69l.63-.41c-.21-.48-.5-.83-.88-1.04-.38-.22-.88-.33-1.5-.33h-1.68v1.69h1.68v-.84ZM23.52,1000.93c-.53.61-.8,1.38-.8,2.33,0,1.27.46,2.29,1.38,3.04,1.05.86,2.74,1.29,5.07,1.29,2.08,0,3.57-.39,4.48-1.17.91-.78,1.36-1.78,1.36-3.02,0-.72-.17-1.37-.52-1.94-.35-.57-.84-1.02-1.49-1.35-.65-.33-1.35-.49-2.11-.49-1.15,0-2.08.35-2.81,1.04-.72.69-1.08,1.53-1.08,2.52,0,.56.13,1.11.39,1.62.26.52.67.95,1.21,1.31-1.2,0-2.13-.15-2.78-.42-.65-.27-1.15-.64-1.49-1.1-.26-.36-.39-.77-.39-1.25,0-.59.21-1.08.63-1.48.26-.24.69-.43,1.27-.56l-.12-1.47c-.94.12-1.67.48-2.2,1.09M29.02,1005.18c-.48-.47-.72-1.03-.72-1.7s.24-1.24.72-1.68c.48-.45,1.13-.67,1.96-.67s1.55.22,2.05.67c.5.45.76.99.76,1.61,0,.43-.12.84-.37,1.23-.24.39-.59.69-1.06.91-.47.22-.95.33-1.46.33-.78,0-1.41-.23-1.88-.7M33.12,997.27h1.68v-1.69h-1.68v1.69ZM34.8,988.23c0-.77-.07-1.42-.2-1.94-.14-.53-.33-.97-.59-1.32-.26-.35-.63-.65-1.12-.88-.49-.24-1.01-.36-1.57-.36-.7,0-1.3.2-1.82.59-.51.4-.88.96-1.09,1.68-.28-.56-.65-.99-1.1-1.27s-.94-.42-1.45-.42c-.56,0-1.08.16-1.59.47-.5.31-.88.75-1.12,1.31-.24.56-.36,1.3-.36,2.22v4.53h12.03v-4.6ZM24.19,991.23v-2.41c0-.87.06-1.48.17-1.84.11-.35.32-.63.62-.82.31-.19.66-.29,1.05-.29.42,0,.77.1,1.05.31s.48.51.6.92c.09.3.14.81.14,1.52v2.61h-3.64ZM29.24,991.23v-2.79c0-.77.07-1.36.2-1.76.13-.41.37-.73.7-.96.33-.23.72-.35,1.17-.35.38,0,.72.08,1.02.24.29.16.51.36.67.61.15.25.26.56.33.92.04.21.06.57.06,1.09v3h-4.13ZM33.12,981.24h1.68v-1.69h-1.68v1.69ZM22.72,971.76v.96c.52.26,1.05.69,1.61,1.32s1.03,1.34,1.41,2.17h1.43c-.17-.46-.42-.98-.76-1.56-.34-.58-.68-1.05-1.01-1.4h9.41v-1.48h-12.08ZM33.12,967.08h1.68v-1.69h-1.68v1.69ZM22.72,957.6v.96c.52.26,1.05.69,1.61,1.32.55.62,1.03,1.34,1.41,2.17h1.43c-.17-.46-.42-.98-.76-1.56-.34-.58-.68-1.05-1.01-1.41h9.41v-1.48h-12.08Z"/>
    <path d="M34.07,952.28c.63-.7.94-1.58.94-2.64,0-1.18-.36-2.15-1.09-2.91-.73-.77-1.62-1.16-2.67-1.16-.78,0-1.42.2-1.94.6-.52.4-.86.95-1.02,1.66-.25-.55-.59-.96-1.02-1.24-.43-.28-.9-.42-1.42-.42-.55,0-1.06.14-1.55.44-.49.29-.87.72-1.15,1.27-.28.56-.42,1.16-.42,1.82,0,.96.27,1.75.82,2.39.54.64,1.31,1.05,2.3,1.24l.26-1.48c-.72-.11-1.26-.36-1.63-.74-.36-.39-.54-.87-.54-1.44s.18-1.06.54-1.43c.35-.37.8-.55,1.34-.55.68,0,1.19.26,1.52.76s.49,1.07.49,1.7c0,.06,0,.14-.02.24l1.3.16c-.11-.42-.17-.76-.17-1.04,0-.69.22-1.25.66-1.69.44-.45,1-.67,1.68-.67.71,0,1.31.24,1.79.72.48.48.72,1.07.72,1.77,0,.58-.19,1.09-.56,1.49s-.97.7-1.81.87l.2,1.48c1-.1,1.82-.5,2.44-1.2"/>
    <rect class="st13" x="41.21" y="944.73" width="18.9" height="311.88"/>
    <path d="M55.32,1254.04c-.27-.17-.53-.37-.8-.62-.26-.25-.77-.82-1.51-1.71-.9-1.06-1.6-1.83-2.12-2.29-.52-.45-1-.79-1.47-.98-.47-.2-.94-.3-1.42-.3-.95,0-1.74.34-2.38,1.01s-.96,1.59-.96,2.75.3,2.06.89,2.74c.59.68,1.46,1.07,2.59,1.18l.16-1.52c-.76,0-1.35-.22-1.77-.65-.43-.43-.64-1-.64-1.71,0-.67.2-1.22.6-1.64.4-.42.89-.63,1.48-.63s1.15.23,1.77.69c.63.46,1.48,1.35,2.55,2.66.69.85,1.3,1.49,1.82,1.94s1.06.77,1.6.97c.33.13.67.18,1.02.17v-7.98h-1.42v5.92ZM55.05,1245.64h1.68v-1.69h-1.68v1.69ZM55.03,1241c.64-.42,1.11-1,1.43-1.74.32-.73.48-1.65.48-2.74,0-.86-.16-1.64-.47-2.33-.31-.69-.76-1.22-1.32-1.59-.57-.37-1.17-.55-1.81-.55s-1.22.17-1.71.5c-.5.33-.9.85-1.23,1.56-.22.48-.47,1.37-.77,2.67s-.58,2.1-.86,2.4c-.28.31-.64.47-1.07.47-.5,0-.92-.22-1.27-.66-.35-.44-.53-1.14-.53-2.11s.19-1.63.58-2.1c.39-.48.96-.76,1.72-.84l-.12-1.53c-.7.03-1.34.23-1.89.59-.56.37-.98.89-1.27,1.58-.29.68-.43,1.47-.43,2.36,0,.81.14,1.55.41,2.22.28.66.68,1.17,1.2,1.51.53.35,1.09.52,1.7.52.55,0,1.05-.14,1.5-.42.44-.28.82-.71,1.12-1.29.24-.44.49-1.22.75-2.33.27-1.11.46-1.82.59-2.15.19-.5.43-.87.71-1.08.28-.22.61-.33.99-.33s.71.12,1.03.34.56.57.74,1.04c.18.47.27,1.01.27,1.61,0,.69-.12,1.31-.36,1.85-.24.55-.55.95-.94,1.22-.38.26-.88.43-1.48.5l.13,1.5c.81-.02,1.53-.24,2.16-.66M56.74,1224v-1.55c-.33.18-.68.31-1.05.37-.36.07-1.23.1-2.6.1h-1.97c-.65,0-1.11.02-1.36.07-.4.09-.74.24-1.01.46-.26.22-.49.56-.66,1.03-.17.47-.26,1.07-.26,1.82s.1,1.41.31,1.98c.21.57.5,1.01.88,1.31.38.3.88.52,1.5.65l.2-1.45c-.62-.16-1.05-.41-1.29-.74-.24-.33-.36-.85-.36-1.54,0-.75.17-1.31.5-1.69.25-.28.67-.42,1.27-.42.05,0,.18,0,.38,0,.2.56.37,1.45.51,2.64.07.59.14,1.03.22,1.32.11.39.27.75.48,1.06.21.32.5.57.85.76.35.2.74.29,1.17.29.73,0,1.32-.26,1.79-.77.47-.52.7-1.25.7-2.22,0-.58-.1-1.12-.29-1.63-.19-.51-.52-1.03-.99-1.58.41-.04.77-.14,1.08-.3M52.91,1224.41c.65,0,1.14.08,1.48.24.43.21.77.54,1.02.98.25.45.37.95.37,1.53s-.13,1.01-.39,1.31c-.26.3-.59.45-.99.45-.25,0-.49-.07-.7-.21-.21-.14-.37-.33-.48-.58-.11-.25-.21-.68-.3-1.29-.15-1.08-.34-1.88-.56-2.42h.54ZM44.71,1220.59h12.03v-1.48h-12.03v1.48ZM48.02,1216.33h1.68v-1.69h-1.68v1.69ZM55.05,1216.33h1.68v-1.69h-1.68v1.69ZM45.46,1201.05c-.53.61-.79,1.38-.79,2.33,0,1.27.46,2.29,1.38,3.04,1.06.86,2.74,1.29,5.07,1.29,2.08,0,3.57-.39,4.48-1.17.9-.78,1.36-1.79,1.36-3.02,0-.72-.17-1.37-.52-1.94-.35-.57-.84-1.02-1.49-1.34-.65-.33-1.35-.49-2.1-.49-1.15,0-2.08.35-2.81,1.04-.73.69-1.08,1.53-1.08,2.52,0,.56.13,1.11.39,1.62.26.52.67.95,1.21,1.31-1.2,0-2.13-.15-2.78-.42-.65-.27-1.15-.63-1.49-1.1-.26-.36-.4-.77-.4-1.24,0-.59.21-1.08.63-1.48.26-.24.68-.43,1.26-.56l-.11-1.47c-.94.12-1.67.49-2.2,1.09M50.96,1205.31c-.48-.47-.72-1.04-.72-1.7s.24-1.24.72-1.68c.48-.45,1.13-.67,1.96-.67s1.55.23,2.05.67c.5.45.76.99.76,1.61,0,.43-.12.84-.37,1.23-.24.39-.6.69-1.06.91-.47.21-.95.33-1.46.33-.77,0-1.4-.23-1.88-.7M55.05,1197.38h1.68v-1.69h-1.68v1.69ZM56.74,1188.32c0-.77-.07-1.42-.2-1.95-.13-.53-.33-.97-.59-1.32-.26-.35-.64-.64-1.12-.89-.49-.24-1.01-.36-1.57-.36-.7,0-1.31.2-1.82.59-.51.39-.88.95-1.09,1.68-.28-.56-.64-.99-1.1-1.27-.45-.28-.94-.42-1.45-.42-.55,0-1.08.16-1.59.47-.51.32-.88.75-1.13,1.31-.24.56-.36,1.3-.36,2.22v4.53h12.03v-4.6ZM46.13,1191.33v-2.41c0-.87.06-1.48.17-1.84.11-.36.32-.63.62-.82.3-.19.65-.29,1.05-.29.42,0,.77.1,1.05.31.28.21.48.51.6.92.09.31.14.81.14,1.52v2.61h-3.63ZM51.18,1191.33v-2.79c0-.77.07-1.36.2-1.77.13-.41.37-.73.69-.96.33-.23.72-.35,1.17-.35.38,0,.72.08,1.01.24.3.16.52.36.67.61.16.25.26.56.33.92.04.21.06.57.06,1.09v3h-4.13ZM55.05,1181.32h1.68v-1.69h-1.68v1.69ZM55.32,1175.53c-.27-.17-.53-.38-.8-.62-.26-.25-.77-.82-1.51-1.71-.9-1.07-1.6-1.83-2.12-2.29s-1-.79-1.47-.98c-.47-.2-.94-.29-1.42-.29-.95,0-1.74.34-2.38,1.01s-.96,1.59-.96,2.75.3,2.06.89,2.74,1.46,1.08,2.59,1.18l.16-1.52c-.76,0-1.35-.22-1.77-.65-.43-.43-.64-1-.64-1.71,0-.68.2-1.22.6-1.64.4-.42.89-.63,1.48-.63s1.15.23,1.77.69c.63.46,1.48,1.35,2.55,2.66.69.84,1.3,1.49,1.82,1.94.52.44,1.06.77,1.6.97.33.13.67.19,1.02.17v-7.98h-1.42v5.92ZM55.05,1167.12h1.68v-1.69h-1.68v1.69ZM46.28,1157.2c.85.75,1.9,1.46,3.15,2.13,1.24.67,2.53,1.18,3.88,1.53,1.34.36,2.48.54,3.43.56v-1.52c-1.2-.08-2.3-.27-3.31-.57-1.43-.41-2.81-1-4.16-1.75-1.35-.76-2.44-1.52-3.25-2.29h-1.15v7.81h1.42v-5.91ZM56.74,1152.12c.5.01.88.1,1.14.25.27.15.47.38.61.69l.63-.41c-.21-.48-.5-.83-.88-1.04-.38-.22-.88-.33-1.5-.33h-1.68v1.69h1.68v-.84ZM45.46,1137.66c-.53.61-.79,1.39-.79,2.33,0,1.27.46,2.29,1.38,3.04,1.06.86,2.74,1.29,5.07,1.29,2.08,0,3.57-.39,4.48-1.17.9-.78,1.36-1.78,1.36-3.02,0-.73-.17-1.37-.52-1.94-.35-.57-.84-1.02-1.49-1.34-.65-.33-1.35-.49-2.1-.49-1.15,0-2.08.35-2.81,1.04-.73.69-1.08,1.54-1.08,2.52,0,.56.13,1.11.39,1.62.26.52.67.95,1.21,1.31-1.2-.01-2.13-.15-2.78-.42-.65-.27-1.15-.64-1.49-1.1-.26-.36-.4-.77-.4-1.25,0-.59.21-1.08.63-1.48.26-.24.68-.43,1.26-.56l-.11-1.47c-.94.12-1.67.48-2.2,1.09M50.96,1141.92c-.48-.47-.72-1.04-.72-1.7s.24-1.24.72-1.68c.48-.45,1.13-.67,1.96-.67s1.55.23,2.05.68c.5.45.76.99.76,1.61,0,.43-.12.84-.37,1.23-.24.39-.6.69-1.06.91-.47.22-.95.33-1.46.33-.77,0-1.4-.24-1.88-.7M55.05,1133.99h1.68v-1.69h-1.68v1.69ZM56.74,1124.93c0-.77-.07-1.42-.2-1.95-.13-.53-.33-.97-.59-1.32-.26-.35-.64-.64-1.12-.89-.49-.24-1.01-.36-1.57-.36-.7,0-1.31.2-1.82.59-.51.39-.88.96-1.09,1.68-.28-.56-.64-.99-1.1-1.27-.45-.28-.94-.42-1.45-.42-.55,0-1.08.16-1.59.47-.51.31-.88.75-1.13,1.31-.24.56-.36,1.3-.36,2.22v4.52h12.03v-4.6ZM46.13,1127.94v-2.41c0-.87.06-1.48.17-1.84.11-.35.32-.63.62-.82.3-.19.65-.29,1.05-.29.42,0,.77.1,1.05.31.28.21.48.51.6.92.09.31.14.82.14,1.52v2.61h-3.63ZM51.18,1127.94v-2.79c0-.77.07-1.36.2-1.77.13-.41.37-.73.69-.96.33-.23.72-.35,1.17-.35.38,0,.72.08,1.01.24.3.16.52.36.67.61.16.25.26.56.33.92.04.21.06.57.06,1.09v3h-4.13ZM55.05,1117.93h1.68v-1.69h-1.68v1.69ZM55.32,1112.14c-.27-.16-.53-.37-.8-.62-.26-.25-.77-.82-1.51-1.72-.9-1.06-1.6-1.82-2.12-2.28s-1-.78-1.47-.98c-.47-.2-.94-.3-1.42-.3-.95,0-1.74.34-2.38,1.01-.64.67-.96,1.59-.96,2.75s.3,2.06.89,2.74c.59.68,1.46,1.07,2.59,1.18l.16-1.52c-.76,0-1.35-.22-1.77-.65-.43-.43-.64-1-.64-1.71,0-.68.2-1.22.6-1.64.4-.42.89-.63,1.48-.63s1.15.23,1.77.69c.63.46,1.48,1.35,2.55,2.66.69.84,1.3,1.49,1.82,1.94.52.45,1.06.77,1.6.97.33.13.67.18,1.02.17v-7.98h-1.42v5.92ZM55.05,1103.73h1.68v-1.69h-1.68v1.69ZM56.16,1098.51c.52-.6.78-1.37.78-2.31,0-.89-.24-1.67-.71-2.32-.48-.66-1.17-1.16-2.08-1.5-.91-.34-2.14-.5-3.67-.5s-2.6.17-3.38.51c-.78.34-1.38.83-1.8,1.48-.42.65-.63,1.37-.63,2.15,0,1.09.37,1.99,1.11,2.71.75.72,1.72,1.08,2.94,1.08s2.13-.35,2.86-1.04c.72-.69,1.08-1.54,1.08-2.53,0-.6-.14-1.15-.44-1.67-.29-.51-.68-.92-1.15-1.21.13,0,.23,0,.3,0,.61,0,1.21.07,1.81.22.59.15,1.06.33,1.41.55s.62.5.83.84c.21.35.31.74.31,1.2,0,.53-.15.97-.45,1.31-.3.34-.78.57-1.45.69l.13,1.42c.95-.12,1.68-.48,2.2-1.08M50.64,1094.19c.48.44.72,1,.72,1.69s-.24,1.25-.72,1.72c-.48.46-1.1.69-1.87.69-.85,0-1.55-.24-2.08-.73-.54-.49-.8-1.06-.8-1.72s.25-1.18.75-1.63c.5-.45,1.17-.68,2.02-.68s1.51.22,1.99.66M56.74,1088.73c.5.02.88.1,1.14.25.27.15.47.38.61.69l.63-.41c-.21-.48-.5-.83-.88-1.05-.38-.22-.88-.33-1.5-.33h-1.68v1.69h1.68v-.84Z"/>
    <path d="M45.46,1073.8c-.53.61-.8,1.39-.8,2.33,0,1.27.46,2.28,1.38,3.04,1.05.86,2.74,1.29,5.07,1.29,2.07,0,3.57-.39,4.47-1.17.9-.78,1.35-1.79,1.35-3.02,0-.72-.17-1.37-.51-1.94-.35-.57-.84-1.02-1.49-1.34-.65-.33-1.35-.49-2.1-.49-1.15,0-2.09.35-2.81,1.04-.73.69-1.09,1.54-1.09,2.52,0,.57.13,1.11.39,1.62.26.52.66.95,1.21,1.31-1.2-.01-2.13-.15-2.78-.42-.65-.27-1.15-.64-1.48-1.1-.26-.36-.39-.77-.39-1.25,0-.59.21-1.08.63-1.48.27-.24.69-.43,1.27-.56l-.11-1.47c-.94.12-1.67.49-2.2,1.09M50.96,1078.06c-.48-.47-.72-1.04-.72-1.71s.24-1.24.72-1.68c.48-.45,1.13-.67,1.96-.67s1.55.23,2.05.68c.5.45.76.99.76,1.61,0,.43-.12.84-.36,1.23-.24.39-.6.69-1.06.91-.46.21-.95.33-1.46.33-.77,0-1.41-.24-1.88-.7M55.06,1070.11h1.68v-1.69h-1.68v1.69Z"/>
    <path d="M56.74,1061.08c0-.77-.07-1.42-.2-1.94-.14-.53-.33-.97-.59-1.32-.26-.35-.64-.65-1.12-.89-.48-.24-1.01-.36-1.57-.36-.7,0-1.31.2-1.82.59-.51.39-.88.96-1.09,1.68-.28-.56-.64-.99-1.1-1.26-.45-.28-.94-.42-1.45-.42-.55,0-1.08.16-1.58.47-.51.32-.88.75-1.13,1.31-.24.56-.36,1.3-.36,2.22v4.53h12.03v-4.6ZM46.13,1064.09v-2.41c0-.87.05-1.48.17-1.83.11-.36.32-.63.62-.82.31-.19.66-.29,1.06-.29.42,0,.77.1,1.05.31.28.21.48.51.6.92.09.31.14.81.14,1.52v2.61h-3.63ZM51.18,1064.09v-2.79c0-.77.07-1.36.2-1.77.14-.41.37-.73.7-.96.33-.23.72-.35,1.17-.35.38,0,.72.08,1.01.24s.52.36.67.61c.15.24.26.55.33.92.04.21.06.57.06,1.09v3.01h-4.13ZM55.06,1054.25h1.68v-1.69h-1.68v1.69Z"/>
    <path d="M55.32,1048.49c-.27-.16-.54-.37-.8-.62-.26-.25-.77-.82-1.51-1.71-.9-1.06-1.6-1.82-2.12-2.28-.52-.46-1-.79-1.47-.98-.46-.2-.94-.3-1.42-.3-.95,0-1.74.34-2.38,1.01-.64.67-.96,1.59-.96,2.75s.3,2.06.89,2.74c.6.68,1.46,1.07,2.59,1.18l.16-1.52c-.75,0-1.34-.22-1.77-.65-.42-.43-.64-1-.64-1.71,0-.68.2-1.22.61-1.64.4-.42.9-.63,1.48-.63s1.15.23,1.77.69c.63.46,1.48,1.35,2.55,2.66.69.84,1.3,1.49,1.82,1.94.52.45,1.06.77,1.6.97.33.13.67.18,1.02.17v-7.98h-1.42v5.92ZM55.06,1039.73h1.68v-1.69h-1.68v1.69Z"/>
    <path d="M44.66,1030.26v.96c.52.26,1.06.69,1.61,1.32.55.62,1.02,1.34,1.41,2.17h1.43c-.17-.46-.42-.98-.76-1.56-.34-.58-.68-1.04-1.01-1.4h9.41v-1.48h-12.07ZM44.66,1020.83v.96c.52.26,1.06.7,1.61,1.32.55.62,1.02,1.35,1.41,2.17h1.43c-.17-.46-.42-.98-.76-1.56-.34-.58-.68-1.04-1.01-1.4h9.41v-1.48h-12.07ZM56.74,1015.35c.5.02.88.1,1.15.25.27.15.47.38.6.69l.63-.41c-.21-.48-.5-.83-.88-1.04-.38-.22-.88-.33-1.5-.33h-1.68v1.69h1.68v-.84ZM45.46,1000.93c-.53.61-.8,1.38-.8,2.33,0,1.27.46,2.29,1.38,3.04,1.06.86,2.74,1.29,5.07,1.29,2.08,0,3.57-.39,4.48-1.17.91-.78,1.36-1.78,1.36-3.02,0-.72-.17-1.37-.51-1.94-.35-.57-.84-1.02-1.49-1.35-.65-.33-1.35-.49-2.1-.49-1.15,0-2.08.35-2.81,1.04-.72.69-1.09,1.53-1.09,2.52,0,.56.13,1.11.39,1.62.26.52.66.95,1.2,1.31-1.2,0-2.13-.15-2.78-.42-.65-.27-1.15-.64-1.48-1.1-.26-.36-.4-.77-.4-1.25,0-.59.21-1.08.63-1.48.26-.24.68-.43,1.26-.56l-.11-1.47c-.94.12-1.67.48-2.2,1.09M50.96,1005.18c-.48-.47-.72-1.03-.72-1.7s.24-1.24.72-1.68c.48-.45,1.13-.67,1.96-.67s1.55.22,2.05.67c.5.45.75.99.75,1.61,0,.43-.12.84-.37,1.23-.24.39-.59.69-1.06.91-.47.22-.95.33-1.46.33-.78,0-1.4-.23-1.88-.7M55.06,997.27h1.68v-1.69h-1.68v1.69ZM56.74,988.23c0-.77-.06-1.42-.2-1.94-.14-.53-.33-.97-.59-1.32-.26-.35-.64-.65-1.12-.88-.49-.24-1.01-.36-1.57-.36-.7,0-1.31.2-1.82.59-.51.4-.88.96-1.09,1.68-.28-.56-.64-.99-1.1-1.27-.46-.28-.94-.42-1.45-.42-.55,0-1.08.16-1.59.47-.51.31-.88.75-1.13,1.31-.24.56-.36,1.3-.36,2.22v4.53h12.02v-4.6ZM46.13,991.23v-2.41c0-.87.06-1.48.17-1.84.11-.35.32-.63.62-.82.31-.19.66-.29,1.05-.29.42,0,.77.1,1.05.31.28.21.48.51.6.92.09.3.14.81.14,1.52v2.61h-3.63ZM51.18,991.23v-2.79c0-.77.07-1.36.2-1.76.13-.41.37-.73.7-.96s.72-.35,1.17-.35c.38,0,.72.08,1.01.24.29.16.52.36.67.61.16.25.27.56.33.92.04.21.06.57.06,1.09v3h-4.13ZM55.06,981.24h1.68v-1.69h-1.68v1.69ZM55.32,975.47c-.26-.16-.53-.37-.8-.62-.26-.25-.77-.82-1.51-1.71-.9-1.06-1.6-1.82-2.12-2.28-.51-.46-1-.79-1.47-.98-.47-.2-.94-.3-1.42-.3-.94,0-1.74.34-2.38,1.01-.64.67-.96,1.59-.96,2.75s.3,2.06.89,2.74c.6.68,1.46,1.07,2.59,1.18l.16-1.52c-.75,0-1.35-.23-1.77-.65-.43-.43-.64-1-.64-1.71,0-.68.2-1.22.6-1.64s.9-.63,1.48-.63,1.15.23,1.77.69c.62.46,1.48,1.35,2.55,2.66.69.84,1.3,1.49,1.82,1.94.53.45,1.06.77,1.6.97.33.13.67.19,1.02.17v-7.97h-1.42v5.92ZM55.06,967.08h1.68v-1.69h-1.68v1.69ZM44.66,957.6v.96c.52.26,1.06.69,1.61,1.32.55.62,1.02,1.34,1.41,2.17h1.43c-.17-.46-.42-.98-.76-1.56-.34-.58-.68-1.05-1.01-1.41h9.41v-1.48h-12.07Z"/>
    <path d="M56.01,952.28c.63-.7.94-1.58.94-2.64,0-1.18-.36-2.15-1.09-2.91-.73-.77-1.62-1.16-2.67-1.16-.78,0-1.42.2-1.94.6-.52.4-.86.95-1.02,1.66-.25-.55-.59-.96-1.02-1.24-.43-.28-.9-.42-1.42-.42-.55,0-1.07.14-1.55.44-.49.29-.87.72-1.15,1.27-.28.56-.42,1.16-.42,1.82,0,.96.27,1.75.81,2.39.55.64,1.31,1.05,2.3,1.24l.26-1.48c-.72-.11-1.26-.36-1.62-.74-.36-.39-.54-.87-.54-1.44s.18-1.06.54-1.43c.36-.37.8-.55,1.35-.55.68,0,1.19.26,1.52.76s.49,1.07.49,1.7c0,.06,0,.14-.02.24l1.3.16c-.11-.42-.16-.76-.16-1.04,0-.69.22-1.25.66-1.69.44-.45,1-.67,1.68-.67.71,0,1.31.24,1.79.72.48.48.73,1.07.73,1.77,0,.58-.19,1.09-.56,1.49s-.97.7-1.81.87l.19,1.48c1-.1,1.82-.5,2.45-1.2"/>
    <rect class="st13" x="62.81" y="944.73" width="18.9" height="311.88"/>
    <path d="M77.61,1254.7c.63-.7.94-1.58.94-2.64,0-1.18-.37-2.15-1.1-2.92-.73-.77-1.62-1.15-2.67-1.15-.78,0-1.43.2-1.94.59-.52.39-.86.95-1.02,1.66-.25-.55-.59-.96-1.02-1.24-.43-.28-.9-.42-1.42-.42-.55,0-1.06.14-1.55.44-.49.29-.87.72-1.15,1.27-.28.55-.42,1.16-.42,1.82,0,.95.27,1.75.82,2.4.55.64,1.31,1.05,2.3,1.23l.26-1.48c-.72-.11-1.27-.36-1.62-.74-.36-.38-.54-.87-.54-1.44s.18-1.06.54-1.42c.36-.37.8-.55,1.35-.55.68,0,1.19.25,1.52.76.33.5.49,1.07.49,1.7,0,.06,0,.14-.02.24l1.3.17c-.11-.42-.16-.77-.16-1.05,0-.69.22-1.25.66-1.7.44-.44,1-.66,1.68-.66s1.31.24,1.79.72c.48.48.72,1.07.72,1.77,0,.59-.19,1.08-.56,1.49-.37.41-.97.7-1.81.87l.19,1.48c1-.1,1.82-.5,2.45-1.2M76.66,1245.64h1.68v-1.69h-1.68v1.69ZM76.64,1241c.64-.42,1.11-1,1.43-1.74.32-.73.48-1.65.48-2.74,0-.86-.16-1.64-.47-2.33-.31-.69-.76-1.22-1.32-1.59-.57-.37-1.17-.55-1.81-.55s-1.22.17-1.71.5c-.5.33-.9.85-1.23,1.56-.22.48-.47,1.37-.77,2.67s-.58,2.1-.86,2.4c-.28.31-.64.47-1.07.47-.5,0-.92-.22-1.27-.66-.35-.44-.53-1.14-.53-2.11s.19-1.63.58-2.1c.39-.48.96-.76,1.72-.84l-.11-1.53c-.71.03-1.34.23-1.89.59s-.98.89-1.27,1.58c-.29.68-.43,1.47-.43,2.36,0,.81.13,1.55.41,2.22.28.66.68,1.17,1.2,1.51.53.35,1.09.52,1.7.52.55,0,1.05-.14,1.5-.42.44-.28.82-.71,1.12-1.29.24-.44.49-1.22.75-2.33.27-1.11.46-1.82.59-2.15.19-.5.43-.87.71-1.08.28-.22.61-.33.99-.33s.71.12,1.03.34.56.57.74,1.04c.18.47.27,1.01.27,1.61,0,.69-.12,1.31-.36,1.85-.24.55-.55.95-.94,1.22-.38.26-.88.43-1.48.5l.13,1.5c.8-.02,1.52-.24,2.16-.66M78.34,1224v-1.55c-.33.18-.68.31-1.04.37-.36.07-1.23.1-2.6.1h-1.97c-.65,0-1.11.02-1.36.07-.4.09-.74.24-1.01.46-.26.22-.48.56-.66,1.03-.17.47-.26,1.07-.26,1.82s.1,1.41.31,1.98c.21.57.5,1.01.88,1.31.38.3.88.52,1.5.65l.2-1.45c-.62-.16-1.05-.41-1.29-.74-.24-.33-.36-.85-.36-1.54,0-.75.17-1.31.5-1.69.25-.28.67-.42,1.27-.42.05,0,.19,0,.39,0,.2.56.37,1.45.51,2.64.07.59.14,1.03.22,1.32.11.39.27.75.48,1.06.21.32.5.57.85.76.35.2.74.29,1.17.29.73,0,1.32-.26,1.79-.77.47-.52.7-1.25.7-2.22,0-.58-.09-1.12-.29-1.63-.19-.51-.52-1.03-.99-1.58.41-.04.77-.14,1.08-.3M74.51,1224.41c.65,0,1.14.08,1.48.24.43.21.77.54,1.02.98.25.45.37.95.37,1.53s-.13,1.01-.39,1.31c-.26.3-.59.45-.99.45-.26,0-.49-.07-.7-.21-.21-.14-.37-.33-.48-.58-.11-.25-.21-.68-.3-1.29-.15-1.08-.34-1.88-.56-2.42h.54ZM66.31,1220.59h12.03v-1.48h-12.03v1.48ZM69.63,1216.33h1.68v-1.69h-1.68v1.69ZM76.66,1216.33h1.68v-1.69h-1.68v1.69ZM67.06,1201.05c-.53.61-.8,1.38-.8,2.33,0,1.27.46,2.29,1.38,3.04,1.06.86,2.74,1.29,5.07,1.29,2.08,0,3.57-.39,4.48-1.17.9-.78,1.36-1.79,1.36-3.02,0-.72-.17-1.37-.52-1.94-.35-.57-.84-1.02-1.49-1.34-.65-.33-1.35-.49-2.1-.49-1.15,0-2.08.35-2.81,1.04-.73.69-1.08,1.53-1.08,2.52,0,.56.13,1.11.39,1.62.26.52.67.95,1.21,1.31-1.2,0-2.13-.15-2.78-.42-.65-.27-1.15-.63-1.49-1.1-.26-.36-.4-.77-.4-1.24,0-.59.21-1.08.63-1.48.26-.24.68-.43,1.27-.56l-.12-1.47c-.94.12-1.67.49-2.2,1.09M72.56,1205.31c-.48-.47-.72-1.04-.72-1.7s.24-1.24.72-1.68c.48-.45,1.13-.67,1.96-.67s1.55.23,2.05.67c.5.45.76.99.76,1.61,0,.43-.12.84-.37,1.23-.24.39-.6.69-1.06.91-.47.21-.95.33-1.46.33-.78,0-1.4-.23-1.88-.7M76.66,1197.38h1.68v-1.69h-1.68v1.69ZM78.34,1188.32c0-.77-.07-1.42-.2-1.95-.13-.53-.33-.97-.59-1.32-.26-.35-.64-.64-1.12-.89-.49-.24-1.01-.36-1.57-.36-.7,0-1.3.2-1.82.59-.51.39-.88.95-1.09,1.68-.28-.56-.64-.99-1.1-1.27-.45-.28-.94-.42-1.45-.42-.55,0-1.08.16-1.59.47-.51.32-.88.75-1.13,1.31-.24.56-.36,1.3-.36,2.22v4.53h12.03v-4.6ZM67.73,1191.33v-2.41c0-.87.06-1.48.17-1.84.11-.36.32-.63.62-.82.3-.19.65-.29,1.05-.29.42,0,.77.1,1.05.31.28.21.48.51.6.92.09.31.14.81.14,1.52v2.61h-3.63ZM72.79,1191.33v-2.79c0-.77.07-1.36.2-1.77.13-.41.37-.73.7-.96s.72-.35,1.17-.35c.38,0,.72.08,1.01.24.3.16.52.36.67.61.16.25.26.56.33.92.04.21.06.57.06,1.09v3h-4.13ZM76.66,1181.32h1.68v-1.69h-1.68v1.69ZM77.61,1176.19c.63-.7.94-1.58.94-2.64,0-1.18-.37-2.15-1.1-2.92-.73-.77-1.62-1.15-2.67-1.15-.78,0-1.43.2-1.94.59-.52.4-.86.95-1.02,1.66-.25-.55-.59-.96-1.02-1.24-.43-.28-.9-.42-1.42-.42-.55,0-1.06.15-1.55.44-.49.29-.87.72-1.15,1.27-.28.56-.42,1.16-.42,1.82,0,.95.27,1.75.82,2.39.55.64,1.31,1.05,2.3,1.24l.26-1.48c-.72-.11-1.27-.35-1.62-.74-.36-.38-.54-.87-.54-1.44s.18-1.06.54-1.43c.36-.37.8-.55,1.35-.55.68,0,1.19.25,1.52.76.33.51.49,1.07.49,1.71,0,.06,0,.14-.02.24l1.3.16c-.11-.42-.16-.76-.16-1.04,0-.69.22-1.25.66-1.7.44-.45,1-.67,1.68-.67s1.31.24,1.79.72c.48.48.72,1.07.72,1.76,0,.59-.19,1.09-.56,1.5-.37.41-.97.7-1.81.87l.19,1.48c1-.1,1.82-.5,2.45-1.2M76.66,1167.12h1.68v-1.69h-1.68v1.69ZM67.89,1157.2c.85.75,1.9,1.46,3.15,2.13,1.24.67,2.53,1.18,3.88,1.53,1.34.36,2.48.54,3.43.56v-1.52c-1.2-.08-2.3-.27-3.31-.57-1.43-.41-2.82-1-4.17-1.75-1.35-.76-2.44-1.52-3.25-2.29h-1.15v7.81h1.42v-5.91ZM78.34,1152.12c.5.01.88.1,1.15.25.26.15.47.38.6.69l.63-.41c-.21-.48-.5-.83-.88-1.04-.38-.22-.88-.33-1.5-.33h-1.68v1.69h1.68v-.84ZM67.06,1137.66c-.53.61-.8,1.39-.8,2.33,0,1.27.46,2.29,1.38,3.04,1.06.86,2.74,1.29,5.07,1.29,2.08,0,3.57-.39,4.48-1.17.9-.78,1.36-1.78,1.36-3.02,0-.73-.17-1.37-.52-1.94-.35-.57-.84-1.02-1.49-1.34-.65-.33-1.35-.49-2.1-.49-1.15,0-2.08.35-2.81,1.04-.73.69-1.08,1.54-1.08,2.52,0,.56.13,1.11.39,1.62.26.52.67.95,1.21,1.31-1.2-.01-2.13-.15-2.78-.42-.65-.27-1.15-.64-1.49-1.1-.26-.36-.4-.77-.4-1.25,0-.59.21-1.08.63-1.48.26-.24.68-.43,1.27-.56l-.12-1.47c-.94.12-1.67.48-2.2,1.09M72.56,1141.92c-.48-.47-.72-1.04-.72-1.7s.24-1.24.72-1.68c.48-.45,1.13-.67,1.96-.67s1.55.23,2.05.68c.5.45.76.99.76,1.61,0,.43-.12.84-.37,1.23-.24.39-.6.69-1.06.91-.47.22-.95.33-1.46.33-.78,0-1.4-.24-1.88-.7M76.66,1133.99h1.68v-1.69h-1.68v1.69ZM78.34,1124.93c0-.77-.07-1.42-.2-1.95-.13-.53-.33-.97-.59-1.32-.26-.35-.64-.64-1.12-.89-.49-.24-1.01-.36-1.57-.36-.7,0-1.3.2-1.82.59-.51.39-.88.96-1.09,1.68-.28-.56-.64-.99-1.1-1.27-.45-.28-.94-.42-1.45-.42-.55,0-1.08.16-1.59.47-.51.31-.88.75-1.13,1.31-.24.56-.36,1.3-.36,2.22v4.52h12.03v-4.6ZM67.73,1127.94v-2.41c0-.87.06-1.48.17-1.84.11-.35.32-.63.62-.82.3-.19.65-.29,1.05-.29.42,0,.77.1,1.05.31.28.21.48.51.6.92.09.31.14.82.14,1.52v2.61h-3.63ZM72.79,1127.94v-2.79c0-.77.07-1.36.2-1.77.13-.41.37-.73.7-.96.33-.23.72-.35,1.17-.35.38,0,.72.08,1.01.24.3.16.52.36.67.61.16.25.26.56.33.92.04.21.06.57.06,1.09v3h-4.13ZM76.66,1117.93h1.68v-1.69h-1.68v1.69ZM77.61,1112.8c.63-.7.94-1.58.94-2.64,0-1.18-.37-2.15-1.1-2.92-.73-.77-1.62-1.15-2.67-1.15-.78,0-1.43.2-1.94.59-.52.39-.86.95-1.02,1.66-.25-.55-.59-.97-1.02-1.25-.43-.28-.9-.42-1.42-.42-.55,0-1.06.14-1.55.44-.49.29-.87.72-1.15,1.27-.28.56-.42,1.16-.42,1.82,0,.96.27,1.75.82,2.39.55.64,1.31,1.05,2.3,1.24l.26-1.48c-.72-.11-1.27-.36-1.62-.74-.36-.39-.54-.87-.54-1.44s.18-1.06.54-1.43c.36-.37.8-.55,1.35-.55.68,0,1.19.26,1.52.76.33.51.49,1.07.49,1.71,0,.06,0,.14-.02.24l1.3.16c-.11-.42-.16-.76-.16-1.04,0-.69.22-1.25.66-1.69.44-.45,1-.67,1.68-.67s1.31.24,1.79.72c.48.48.72,1.07.72,1.76,0,.59-.19,1.09-.56,1.5-.37.41-.97.7-1.81.87l.19,1.48c1-.1,1.82-.5,2.45-1.2M76.66,1103.73h1.68v-1.69h-1.68v1.69ZM77.76,1098.51c.52-.6.78-1.37.78-2.31,0-.89-.24-1.67-.71-2.32-.48-.66-1.17-1.16-2.08-1.5-.91-.34-2.14-.5-3.67-.5s-2.6.17-3.38.51c-.78.34-1.38.83-1.8,1.48-.42.65-.63,1.37-.63,2.15,0,1.09.37,1.99,1.12,2.71.75.72,1.72,1.08,2.94,1.08s2.13-.35,2.86-1.04c.72-.69,1.08-1.54,1.08-2.53,0-.6-.14-1.15-.44-1.67-.29-.51-.68-.92-1.15-1.21.13,0,.23,0,.3,0,.61,0,1.21.07,1.81.22.59.15,1.06.33,1.41.55s.62.5.83.84c.21.35.31.74.31,1.2,0,.53-.15.97-.45,1.31-.3.34-.78.57-1.45.69l.13,1.42c.95-.12,1.68-.48,2.2-1.08M72.24,1094.19c.48.44.72,1,.72,1.69s-.24,1.25-.72,1.72c-.48.46-1.1.69-1.87.69-.85,0-1.55-.24-2.08-.73-.54-.49-.8-1.06-.8-1.72s.25-1.18.75-1.63c.5-.45,1.17-.68,2.02-.68s1.51.22,1.99.66M78.34,1088.73c.5.02.88.1,1.15.25.26.15.47.38.6.69l.63-.41c-.21-.48-.5-.83-.88-1.05-.38-.22-.88-.33-1.5-.33h-1.68v1.69h1.68v-.84Z"/>
    <path d="M67.06,1073.8c-.53.61-.8,1.39-.8,2.33,0,1.27.46,2.28,1.38,3.04,1.05.86,2.74,1.29,5.07,1.29,2.08,0,3.57-.39,4.47-1.17.91-.78,1.36-1.79,1.36-3.02,0-.72-.17-1.37-.52-1.94-.35-.57-.84-1.02-1.49-1.34-.65-.33-1.35-.49-2.1-.49-1.15,0-2.08.35-2.81,1.04-.72.69-1.08,1.54-1.08,2.52,0,.57.13,1.11.39,1.62.26.52.67.95,1.21,1.31-1.21-.01-2.13-.15-2.78-.42-.65-.27-1.14-.64-1.48-1.1-.26-.36-.39-.77-.39-1.25,0-.59.21-1.08.63-1.48.26-.24.68-.43,1.26-.56l-.11-1.47c-.94.12-1.67.49-2.2,1.09M72.56,1078.06c-.48-.47-.72-1.04-.72-1.71s.24-1.24.72-1.68c.48-.45,1.13-.67,1.96-.67s1.55.23,2.05.68c.5.45.76.99.76,1.61,0,.43-.12.84-.37,1.23-.24.39-.6.69-1.06.91-.47.21-.95.33-1.46.33-.78,0-1.41-.24-1.88-.7M76.66,1070.11h1.68v-1.69h-1.68v1.69Z"/>
    <path d="M78.34,1061.08c0-.77-.07-1.42-.2-1.94-.13-.53-.33-.97-.59-1.32s-.63-.65-1.12-.89-1.01-.36-1.57-.36c-.7,0-1.3.2-1.82.59-.51.39-.88.96-1.09,1.68-.28-.56-.64-.99-1.1-1.26-.45-.28-.94-.42-1.45-.42-.55,0-1.08.16-1.59.47-.5.32-.88.75-1.13,1.31-.24.56-.36,1.3-.36,2.22v4.53h12.03v-4.6ZM67.73,1064.09v-2.41c0-.87.06-1.48.17-1.83.11-.36.32-.63.62-.82.3-.19.65-.29,1.05-.29.42,0,.77.1,1.05.31.28.21.48.51.6.92.09.31.14.81.14,1.52v2.61h-3.63ZM72.79,1064.09v-2.79c0-.77.07-1.36.2-1.77.13-.41.37-.73.7-.96.33-.23.72-.35,1.17-.35.38,0,.72.08,1.01.24.29.16.52.36.67.61.16.24.26.55.33.92.04.21.06.57.06,1.09v3.01h-4.13ZM76.66,1054.25h1.68v-1.69h-1.68v1.69Z"/>
    <path d="M77.61,1049.15c.63-.7.94-1.58.94-2.63,0-1.18-.37-2.15-1.1-2.92-.73-.77-1.62-1.15-2.67-1.15-.78,0-1.42.2-1.94.59-.52.4-.86.95-1.02,1.66-.25-.55-.59-.96-1.02-1.24-.43-.28-.9-.42-1.42-.42-.55,0-1.06.15-1.55.44-.49.29-.87.72-1.15,1.27-.28.55-.42,1.16-.42,1.82,0,.95.27,1.75.82,2.39.55.64,1.31,1.05,2.3,1.24l.26-1.48c-.72-.11-1.26-.36-1.63-.74-.36-.38-.54-.86-.54-1.44s.18-1.05.53-1.42c.35-.37.8-.55,1.34-.55.68,0,1.19.25,1.52.76.33.51.49,1.07.49,1.7,0,.06,0,.14-.02.24l1.3.16c-.11-.42-.17-.77-.17-1.04,0-.69.22-1.25.66-1.7.44-.44,1-.66,1.68-.66s1.31.24,1.79.72c.48.48.72,1.07.72,1.76,0,.59-.19,1.09-.56,1.5-.37.41-.97.7-1.81.87l.19,1.48c1-.1,1.82-.5,2.45-1.2M76.66,1039.73h1.68v-1.69h-1.68v1.69Z"/>
    <path d="M66.26,1030.26v.96c.52.26,1.06.69,1.61,1.32.55.62,1.02,1.34,1.41,2.17h1.43c-.17-.46-.42-.98-.76-1.56-.34-.58-.68-1.04-1.01-1.4h9.41v-1.48h-12.08ZM66.26,1020.83v.96c.52.26,1.06.7,1.61,1.32.55.62,1.02,1.35,1.41,2.17h1.43c-.17-.46-.42-.98-.76-1.56-.34-.58-.68-1.04-1.01-1.4h9.41v-1.48h-12.08ZM78.34,1015.35c.5.02.88.1,1.15.25.26.15.47.38.6.69l.63-.41c-.21-.48-.5-.83-.88-1.04-.38-.22-.88-.33-1.5-.33h-1.68v1.69h1.68v-.84ZM67.06,1000.93c-.53.61-.8,1.38-.8,2.33,0,1.27.46,2.29,1.38,3.04,1.06.86,2.74,1.29,5.07,1.29,2.08,0,3.57-.39,4.48-1.17.91-.78,1.36-1.78,1.36-3.02,0-.72-.17-1.37-.51-1.94-.35-.57-.84-1.02-1.49-1.35-.65-.33-1.35-.49-2.1-.49-1.15,0-2.08.35-2.81,1.04-.72.69-1.09,1.53-1.09,2.52,0,.56.13,1.11.39,1.62.26.52.66.95,1.21,1.31-1.2,0-2.13-.15-2.78-.42-.65-.27-1.15-.64-1.48-1.1-.26-.36-.39-.77-.39-1.25,0-.59.21-1.08.63-1.48.26-.24.69-.43,1.27-.56l-.12-1.47c-.93.12-1.67.48-2.2,1.09M72.56,1005.18c-.48-.47-.72-1.03-.72-1.7s.24-1.24.72-1.68c.48-.45,1.13-.67,1.96-.67s1.55.22,2.05.67c.5.45.76.99.76,1.61,0,.43-.12.84-.37,1.23-.24.39-.59.69-1.06.91-.47.22-.95.33-1.46.33-.78,0-1.41-.23-1.88-.7M76.66,997.27h1.68v-1.69h-1.68v1.69ZM78.34,988.23c0-.77-.07-1.42-.2-1.94-.14-.53-.33-.97-.59-1.32-.26-.35-.64-.65-1.12-.88-.49-.24-1.01-.36-1.57-.36-.7,0-1.31.2-1.82.59-.51.4-.88.96-1.09,1.68-.28-.56-.64-.99-1.1-1.27-.46-.28-.94-.42-1.45-.42-.56,0-1.08.16-1.59.47-.51.31-.88.75-1.13,1.31-.24.56-.36,1.3-.36,2.22v4.53h12.03v-4.6ZM67.73,991.23v-2.41c0-.87.06-1.48.17-1.84.11-.35.32-.63.62-.82.31-.19.66-.29,1.05-.29.42,0,.77.1,1.05.31.28.21.48.51.6.92.09.3.14.81.14,1.52v2.61h-3.63ZM72.79,991.23v-2.79c0-.77.07-1.36.2-1.76.13-.41.37-.73.7-.96.33-.23.72-.35,1.17-.35.38,0,.72.08,1.01.24.29.16.52.36.67.61.15.25.26.56.33.92.04.21.06.57.06,1.09v3h-4.13ZM76.66,981.24h1.68v-1.69h-1.68v1.69ZM77.61,976.13c.63-.7.94-1.58.94-2.64,0-1.17-.36-2.15-1.1-2.91-.73-.77-1.62-1.15-2.67-1.15-.78,0-1.42.2-1.94.59-.51.4-.85.95-1.02,1.66-.25-.55-.59-.96-1.02-1.24-.43-.28-.9-.42-1.42-.42-.55,0-1.06.14-1.55.44-.49.29-.87.72-1.15,1.27-.28.55-.42,1.16-.42,1.82,0,.96.27,1.75.82,2.4.54.64,1.31,1.05,2.3,1.24l.26-1.48c-.72-.11-1.26-.36-1.62-.74-.36-.38-.54-.86-.54-1.44s.18-1.05.53-1.42c.36-.37.8-.55,1.34-.55.68,0,1.19.25,1.52.76.33.51.49,1.07.49,1.71,0,.06,0,.14-.02.24l1.3.16c-.11-.42-.17-.76-.17-1.04,0-.69.22-1.25.66-1.7.44-.44,1-.67,1.68-.67s1.31.24,1.79.72c.48.48.72,1.07.72,1.76,0,.59-.19,1.09-.56,1.5-.37.41-.97.7-1.81.87l.2,1.48c1-.1,1.82-.5,2.45-1.2M76.66,967.08h1.68v-1.69h-1.68v1.69ZM66.26,957.6v.96c.52.26,1.06.69,1.61,1.32.55.62,1.02,1.34,1.41,2.17h1.43c-.17-.46-.42-.98-.76-1.56-.34-.58-.68-1.05-1.01-1.41h9.41v-1.48h-12.08Z"/>
    <path d="M77.61,952.28c.63-.7.94-1.58.94-2.64,0-1.18-.37-2.15-1.1-2.91-.73-.77-1.62-1.16-2.67-1.16-.78,0-1.42.2-1.94.6-.52.4-.86.95-1.02,1.66-.25-.55-.59-.96-1.02-1.24-.43-.28-.9-.42-1.42-.42-.55,0-1.06.14-1.55.44-.49.29-.87.72-1.15,1.27-.28.56-.42,1.16-.42,1.82,0,.96.27,1.75.82,2.39.54.64,1.31,1.05,2.3,1.24l.26-1.48c-.72-.11-1.26-.36-1.62-.74-.36-.39-.54-.87-.54-1.44s.18-1.06.54-1.43c.36-.37.8-.55,1.35-.55.68,0,1.19.26,1.52.76s.49,1.07.49,1.7c0,.06,0,.14-.02.24l1.3.16c-.11-.42-.16-.76-.16-1.04,0-.69.22-1.25.66-1.69.44-.45,1-.67,1.68-.67.71,0,1.31.24,1.79.72.48.48.72,1.07.72,1.77,0,.58-.19,1.09-.56,1.49s-.97.7-1.81.87l.19,1.48c1-.1,1.82-.5,2.45-1.2"/>
    <rect class="st13" x="83.06" y="1090.88" width="18.9" height="165.73"/>
    <path d="M98.59,1249.68h-2.88v-1.63h-1.35v1.63h-7.8v1.21l7.8,5.51h1.35v-5.24h2.88v-1.48ZM94.36,1254.94l-5.43-3.78h5.43v3.78ZM96.91,1245.64h1.68v-1.69h-1.68v1.69ZM96.89,1241c.64-.42,1.12-1,1.43-1.74.31-.74.47-1.65.47-2.74,0-.86-.16-1.63-.47-2.33s-.76-1.22-1.32-1.58c-.57-.37-1.17-.55-1.81-.55s-1.22.17-1.71.5c-.49.34-.9.85-1.23,1.56-.22.48-.47,1.37-.77,2.67-.29,1.3-.58,2.1-.85,2.41-.28.31-.64.47-1.07.47-.5,0-.92-.22-1.28-.66-.35-.44-.53-1.15-.53-2.11s.19-1.63.58-2.1c.39-.47.96-.75,1.72-.83l-.11-1.53c-.71.03-1.34.23-1.89.59-.56.37-.98.9-1.27,1.58-.29.68-.43,1.47-.43,2.36,0,.81.14,1.55.41,2.22.27.67.67,1.17,1.2,1.52.53.35,1.09.52,1.7.52.55,0,1.05-.14,1.5-.42.45-.28.82-.71,1.12-1.29.24-.44.49-1.22.75-2.33.26-1.11.46-1.83.59-2.15.19-.51.43-.87.71-1.09.28-.22.61-.33.99-.33s.71.11,1.03.34c.32.23.56.57.74,1.04.18.47.27,1,.27,1.61,0,.69-.12,1.3-.36,1.85-.24.55-.55.95-.94,1.21-.38.26-.88.42-1.48.5l.13,1.51c.8-.02,1.53-.24,2.16-.66M98.59,1223.99v-1.54c-.33.19-.68.31-1.05.37-.36.07-1.23.1-2.6.1h-1.97c-.66,0-1.11.02-1.36.07-.4.09-.74.24-1.01.46-.26.22-.49.56-.66,1.03-.17.47-.26,1.07-.26,1.82s.1,1.42.31,1.98.5,1.01.88,1.31c.38.3.88.52,1.5.65l.2-1.45c-.62-.16-1.05-.4-1.29-.73-.24-.33-.36-.85-.36-1.55,0-.74.17-1.31.5-1.69.25-.28.67-.42,1.27-.42.05,0,.18,0,.38,0,.2.56.37,1.44.51,2.64.07.59.14,1.03.22,1.32.11.4.27.75.49,1.07.21.32.49.57.85.76.35.2.74.29,1.17.29.73,0,1.32-.26,1.79-.77.47-.52.7-1.25.7-2.22,0-.58-.1-1.13-.29-1.63-.19-.51-.52-1.04-.98-1.59.41-.04.77-.14,1.08-.3M94.76,1224.41c.65,0,1.14.08,1.48.24.43.21.77.53,1.02.98.25.44.38.95.38,1.52s-.13,1.02-.39,1.31c-.26.3-.59.45-.99.45-.26,0-.49-.07-.7-.21s-.37-.33-.48-.59c-.11-.25-.21-.68-.3-1.29-.15-1.08-.34-1.88-.56-2.42h.54ZM86.56,1220.58h12.03v-1.48h-12.03v1.48ZM89.88,1216.33h1.68v-1.69h-1.68v1.69ZM96.91,1216.33h1.68v-1.69h-1.68v1.69ZM87.31,1201.05c-.53.61-.8,1.39-.8,2.33,0,1.27.46,2.29,1.38,3.04,1.06.86,2.75,1.29,5.07,1.29,2.08,0,3.57-.39,4.48-1.17.91-.78,1.36-1.79,1.36-3.02,0-.73-.17-1.37-.52-1.94-.34-.57-.84-1.02-1.49-1.34-.65-.33-1.35-.49-2.11-.49-1.15,0-2.08.35-2.81,1.04-.73.69-1.09,1.54-1.09,2.52,0,.56.13,1.1.39,1.62.26.52.66.95,1.21,1.31-1.2,0-2.13-.15-2.78-.42-.65-.27-1.15-.63-1.48-1.1-.26-.36-.39-.77-.39-1.25,0-.58.21-1.08.63-1.48.26-.24.68-.43,1.27-.56l-.12-1.47c-.94.12-1.67.49-2.2,1.09M92.81,1205.31c-.48-.47-.72-1.04-.72-1.7s.24-1.24.72-1.68c.48-.45,1.13-.67,1.97-.67s1.55.22,2.05.67.75.99.75,1.61c0,.43-.12.84-.36,1.23s-.6.69-1.06.91c-.47.22-.95.32-1.46.32-.78,0-1.41-.23-1.88-.7M96.91,1197.38h1.68v-1.69h-1.68v1.69ZM98.59,1188.32c0-.77-.07-1.41-.2-1.94-.13-.53-.33-.97-.6-1.32-.26-.35-.63-.65-1.12-.89-.49-.24-1.01-.36-1.57-.36-.7,0-1.31.2-1.82.59-.51.39-.88.95-1.09,1.68-.28-.56-.64-.99-1.1-1.27-.45-.28-.94-.42-1.45-.42-.55,0-1.08.16-1.59.47-.51.32-.88.75-1.12,1.31-.24.56-.36,1.29-.36,2.22v4.53h12.03v-4.6ZM87.98,1191.32v-2.41c0-.87.06-1.48.17-1.84.11-.35.32-.63.62-.82.3-.19.66-.29,1.06-.29.42,0,.77.1,1.05.31.28.21.48.51.6.91.09.31.14.82.14,1.53v2.61h-3.64ZM93.04,1191.32v-2.79c0-.77.07-1.35.2-1.76.13-.41.36-.73.69-.96.33-.23.72-.35,1.17-.35.38,0,.72.08,1.01.24.29.16.52.36.67.61.15.25.26.56.33.92.04.21.06.57.06,1.08v3h-4.14ZM96.91,1181.31h1.68v-1.69h-1.68v1.69ZM98.59,1171.16h-2.88v-1.63h-1.35v1.63h-7.8v1.21l7.8,5.51h1.35v-5.23h2.88v-1.48ZM94.36,1176.42l-5.43-3.78h5.43v3.78ZM96.91,1167.12h1.68v-1.69h-1.68v1.69ZM88.14,1157.19c.85.75,1.9,1.46,3.14,2.13,1.25.67,2.54,1.18,3.88,1.53,1.34.36,2.48.54,3.43.56v-1.52c-1.2-.08-2.3-.27-3.31-.57-1.43-.41-2.82-.99-4.17-1.75s-2.43-1.52-3.25-2.28h-1.15v7.81h1.42v-5.91ZM98.59,1152.12c.5.02.88.1,1.14.25s.47.38.6.69l.63-.41c-.21-.48-.5-.83-.88-1.05-.38-.22-.88-.33-1.5-.33h-1.68v1.69h1.68v-.84ZM87.31,1137.66c-.53.61-.8,1.39-.8,2.33,0,1.28.46,2.29,1.38,3.04,1.06.86,2.75,1.29,5.07,1.29,2.08,0,3.57-.39,4.48-1.17.91-.78,1.36-1.79,1.36-3.02,0-.73-.17-1.37-.52-1.94-.34-.57-.84-1.02-1.49-1.35-.65-.32-1.35-.49-2.11-.49-1.15,0-2.08.35-2.81,1.04-.73.69-1.09,1.53-1.09,2.52,0,.57.13,1.11.39,1.62.26.52.66.95,1.21,1.31-1.2-.01-2.13-.15-2.78-.42-.65-.27-1.15-.64-1.48-1.1-.26-.36-.39-.77-.39-1.24,0-.59.21-1.08.63-1.48.26-.24.68-.43,1.27-.56l-.12-1.47c-.94.12-1.67.49-2.2,1.09M92.81,1141.92c-.48-.47-.72-1.04-.72-1.7s.24-1.23.72-1.68c.48-.44,1.13-.67,1.97-.67s1.55.22,2.05.68c.5.45.75.99.75,1.61,0,.43-.12.84-.36,1.23-.24.39-.6.69-1.06.91-.47.21-.95.32-1.46.32-.78,0-1.41-.24-1.88-.7M96.91,1133.99h1.68v-1.69h-1.68v1.69ZM98.59,1124.93c0-.77-.07-1.41-.2-1.94-.13-.53-.33-.97-.6-1.32-.26-.35-.63-.65-1.12-.88-.49-.24-1.01-.36-1.57-.36-.7,0-1.31.2-1.82.59-.51.4-.88.96-1.09,1.69-.28-.57-.64-.99-1.1-1.27-.45-.28-.94-.42-1.45-.42-.55,0-1.08.16-1.59.47-.51.31-.88.75-1.12,1.31-.24.56-.36,1.3-.36,2.22v4.53h12.03v-4.6ZM87.98,1127.93v-2.41c0-.87.06-1.48.17-1.84.11-.36.32-.63.62-.83.3-.19.66-.29,1.06-.29.42,0,.77.1,1.05.31s.48.51.6.92c.09.3.14.81.14,1.52v2.61h-3.64ZM93.04,1127.93v-2.79c0-.77.07-1.36.2-1.76.13-.41.36-.73.69-.96.33-.23.72-.35,1.17-.35.38,0,.72.08,1.01.24.29.16.52.36.67.61.15.25.26.56.33.92.04.21.06.57.06,1.08v3h-4.14ZM96.91,1117.92h1.68v-1.69h-1.68v1.69ZM98.59,1107.77h-2.88v-1.63h-1.35v1.63h-7.8v1.21l7.8,5.5h1.35v-5.23h2.88v-1.48ZM94.36,1113.03l-5.43-3.78h5.43v3.78ZM96.91,1103.73h1.68v-1.69h-1.68v1.69ZM98.01,1098.51c.52-.6.78-1.37.78-2.31,0-.89-.24-1.66-.71-2.32s-1.17-1.16-2.08-1.5c-.91-.33-2.14-.5-3.67-.5s-2.6.17-3.39.51c-.78.34-1.38.83-1.8,1.48-.42.65-.63,1.37-.63,2.15,0,1.09.37,1.99,1.11,2.71.75.72,1.73,1.08,2.95,1.08s2.13-.35,2.85-1.04c.72-.69,1.08-1.54,1.08-2.54,0-.6-.14-1.15-.44-1.67-.29-.51-.68-.92-1.14-1.21.13,0,.23,0,.3,0,.61,0,1.21.07,1.8.22.59.15,1.06.33,1.41.55.35.22.62.5.83.84.21.34.31.74.31,1.2,0,.53-.15.97-.45,1.31-.3.34-.78.57-1.45.69l.13,1.42c.95-.12,1.68-.48,2.2-1.08M92.49,1094.19c.48.44.72,1,.72,1.69s-.24,1.25-.72,1.72c-.48.46-1.1.69-1.86.69-.86,0-1.55-.24-2.09-.73-.53-.49-.8-1.06-.8-1.72s.25-1.18.75-1.63c.5-.46,1.17-.68,2.02-.68s1.51.22,1.99.66"/>
    <rect class="st13" x="104.33" y="1154.34" width="18.9" height="102.27"/>
    <path d="M119.14,1254.72c.61-.69.92-1.59.92-2.69,0-1.34-.49-2.4-1.46-3.17-.79-.63-1.73-.95-2.82-.95s-2.07.36-2.8,1.08c-.73.73-1.09,1.61-1.09,2.67,0,.8.25,1.56.75,2.28l-3.23-.65v-4.81h-1.41v6l6.17,1.17.18-1.39c-.34-.22-.62-.52-.84-.9-.21-.38-.32-.81-.32-1.29,0-.77.24-1.39.73-1.87.49-.47,1.15-.71,1.99-.71.89,0,1.6.25,2.13.74.53.49.8,1.09.8,1.81,0,.59-.19,1.1-.57,1.52s-.95.69-1.7.8l.13,1.56c1.01-.1,1.83-.5,2.44-1.19M118.17,1245.62h1.68v-1.69h-1.68v1.69ZM118.15,1240.96c.64-.42,1.11-1,1.43-1.74.32-.74.48-1.65.48-2.74,0-.86-.16-1.63-.47-2.33-.32-.69-.76-1.22-1.32-1.59-.57-.37-1.17-.55-1.81-.55s-1.22.17-1.71.51c-.5.34-.9.85-1.23,1.55-.22.48-.47,1.37-.76,2.67-.29,1.3-.58,2.1-.86,2.41-.28.31-.63.47-1.07.47-.5,0-.92-.22-1.28-.66-.35-.44-.53-1.15-.53-2.11s.19-1.63.58-2.1c.39-.48.96-.75,1.72-.83l-.12-1.53c-.7.03-1.34.22-1.89.59s-.98.89-1.27,1.57c-.29.68-.43,1.47-.43,2.37,0,.81.14,1.55.41,2.21.27.66.68,1.17,1.2,1.51.53.35,1.1.52,1.7.52.55,0,1.05-.14,1.5-.42.45-.28.82-.71,1.12-1.29.24-.45.49-1.22.75-2.33.27-1.11.46-1.82.59-2.15.19-.5.43-.86.71-1.08.28-.22.61-.33.99-.33s.71.11,1.03.34c.31.23.56.58.74,1.04.18.47.27,1.01.27,1.62,0,.68-.12,1.3-.36,1.85-.24.55-.55.95-.94,1.21-.39.26-.88.43-1.48.5l.13,1.51c.8-.02,1.53-.24,2.16-.66M119.85,1223.94v-1.55c-.33.19-.68.31-1.04.37s-1.23.1-2.6.1h-1.97c-.66,0-1.11.02-1.36.07-.4.09-.74.24-1.01.46s-.49.56-.66,1.03c-.17.47-.26,1.08-.26,1.82s.1,1.41.31,1.98c.2.57.5,1.01.88,1.31.38.3.88.52,1.5.65l.2-1.45c-.62-.16-1.05-.41-1.29-.74-.24-.33-.36-.85-.36-1.54,0-.75.17-1.31.5-1.69.25-.28.67-.42,1.27-.42.06,0,.18,0,.39,0,.2.56.36,1.44.51,2.64.07.59.14,1.03.22,1.32.11.39.27.75.48,1.07.22.32.5.57.85.77.35.19.74.29,1.17.29.73,0,1.32-.26,1.79-.77.47-.52.7-1.25.7-2.22,0-.58-.09-1.12-.29-1.63-.19-.51-.52-1.04-.98-1.58.41-.04.77-.14,1.07-.3M116.02,1224.37c.65,0,1.14.08,1.48.24.43.21.77.53,1.02.98.25.44.38.95.38,1.52s-.13,1.01-.4,1.32c-.26.3-.59.45-.99.45-.26,0-.49-.07-.7-.21-.21-.14-.37-.33-.48-.59-.11-.25-.21-.68-.3-1.29-.16-1.07-.34-1.88-.56-2.42h.54ZM107.83,1220.52h12.03v-1.48h-12.03v1.48ZM111.14,1216.24h1.68v-1.69h-1.68v1.69ZM118.17,1216.24h1.68v-1.69h-1.68v1.69ZM108.58,1200.94c-.53.61-.8,1.39-.8,2.33,0,1.27.46,2.29,1.38,3.04,1.05.86,2.74,1.29,5.07,1.29,2.08,0,3.57-.39,4.48-1.17.9-.78,1.35-1.78,1.35-3.02,0-.73-.17-1.37-.52-1.94-.35-.57-.84-1.02-1.49-1.34-.65-.33-1.35-.49-2.1-.49-1.15,0-2.09.35-2.81,1.04-.72.69-1.09,1.54-1.09,2.52,0,.56.13,1.11.39,1.62.26.52.67.95,1.21,1.31-1.2-.01-2.13-.15-2.78-.42-.65-.27-1.15-.64-1.49-1.1-.26-.36-.39-.77-.39-1.25,0-.59.21-1.08.63-1.48.26-.24.68-.43,1.27-.56l-.12-1.47c-.94.12-1.67.49-2.2,1.09M114.08,1205.19c-.48-.47-.72-1.03-.72-1.7s.24-1.24.72-1.68c.48-.45,1.13-.67,1.96-.67s1.55.23,2.05.67c.5.45.76.99.76,1.61,0,.43-.12.84-.36,1.23-.24.39-.6.69-1.06.91-.47.22-.95.33-1.46.33-.78,0-1.41-.24-1.88-.7M118.17,1197.24h1.68v-1.69h-1.68v1.69ZM119.85,1188.17c0-.77-.07-1.42-.2-1.95-.13-.53-.33-.97-.59-1.32-.26-.35-.63-.64-1.12-.88-.48-.24-1.01-.36-1.57-.36-.7,0-1.31.19-1.82.59-.51.39-.88.95-1.09,1.68-.28-.56-.64-.99-1.1-1.27-.45-.28-.94-.42-1.45-.42-.55,0-1.08.16-1.59.48-.5.31-.88.75-1.12,1.31s-.36,1.3-.36,2.22v4.53h12.03v-4.6ZM109.25,1191.17v-2.41c0-.87.05-1.48.17-1.84.11-.36.32-.63.62-.83.3-.19.65-.29,1.05-.29.42,0,.77.1,1.05.31.28.21.48.51.6.92.09.31.14.81.14,1.52v2.61h-3.63ZM114.3,1191.17v-2.79c0-.77.07-1.36.2-1.76.13-.41.37-.73.7-.96.33-.23.72-.35,1.17-.35.38,0,.72.08,1.01.24.29.16.51.36.67.61.15.24.26.55.33.92.04.21.06.57.06,1.09v3h-4.13ZM118.17,1181.15h1.68v-1.69h-1.68v1.69ZM119.14,1176.02c.61-.69.92-1.59.92-2.69,0-1.34-.49-2.4-1.46-3.17-.79-.64-1.73-.96-2.82-.96s-2.07.36-2.8,1.09c-.73.73-1.09,1.61-1.09,2.67,0,.79.25,1.55.75,2.28l-3.23-.65v-4.81h-1.41v6l6.17,1.17.18-1.39c-.34-.22-.62-.52-.84-.9-.21-.38-.32-.81-.32-1.29,0-.77.24-1.39.73-1.86.49-.47,1.15-.71,1.99-.71.89,0,1.6.25,2.13.74.53.49.8,1.1.8,1.81,0,.59-.19,1.1-.57,1.52s-.95.69-1.7.8l.13,1.56c1.01-.1,1.83-.49,2.44-1.19M118.17,1166.92h1.68v-1.69h-1.68v1.69ZM109.4,1156.98c.85.75,1.9,1.46,3.14,2.13,1.25.67,2.54,1.18,3.88,1.53,1.34.36,2.48.55,3.43.56v-1.52c-1.2-.08-2.3-.27-3.3-.57-1.43-.41-2.82-.99-4.17-1.75-1.35-.76-2.43-1.52-3.25-2.29h-1.15v7.81h1.42v-5.91Z"/>
    <line class="st3" x1="544.13" y1="988.27" x2="424.64" y2="936.29"/>
  </g>
</svg>