<?xml version="1.0" encoding="UTF-8"?>
<svg id="Layer_1" xmlns="http://www.w3.org/2000/svg" xmlns:xlink="http://www.w3.org/1999/xlink" version="1.1" viewBox="0 0 1200 1697.14">
  <!-- Generator: Adobe Illustrator 29.6.0, SVG Export Plug-In . SVG Version: 2.1.1 Build 207)  -->
  <defs>
    <style>
      .st0, .st1, .st2, .st3 {
        fill: none;
      }

      .st1 {
        stroke: #0d0e1c;
      }

      .st1, .st2, .st3 {
        stroke-linecap: round;
        stroke-linejoin: round;
      }

      .st1, .st3 {
        stroke-width: .08px;
      }

      .st2 {
        stroke-width: .14px;
      }

      .st2, .st3 {
        stroke: #000;
      }

      .st4 {
        clip-path: url(#clippath-1);
      }

      .st5 {
        clip-path: url(#clippath-3);
      }

      .st6 {
        clip-path: url(#clippath-4);
      }

      .st7 {
        clip-path: url(#clippath-2);
      }

      .st8 {
        clip-path: url(#clippath-7);
      }

      .st9 {
        clip-path: url(#clippath-6);
      }

      .st10 {
        clip-path: url(#clippath-8);
      }

      .st11 {
        clip-path: url(#clippath-5);
      }

      .st12 {
        fill: #fff;
      }

      .st13 {
        fill: #ece9e5;
      }

      .st14 {
        fill: #302c35;
      }

      .st15 {
        clip-path: url(#clippath);
      }
    </style>
    <clipPath id="clippath">
      <rect class="st0" x="685.48" y="774.96" width="72.57" height="159.65"/>
    </clipPath>
    <clipPath id="clippath-1">
      <rect class="st0" x="186.31" y="441.48" width="827.38" height="814.19"/>
    </clipPath>
    <clipPath id="clippath-2">
      <rect class="st0" x="654.22" y="1002.49" width="28.61" height="39.22"/>
    </clipPath>
    <clipPath id="clippath-3">
      <rect class="st0" x="186.31" y="441.48" width="827.38" height="814.19"/>
    </clipPath>
    <clipPath id="clippath-4">
      <rect class="st0" x="186.31" y="441.48" width="827.38" height="814.19"/>
    </clipPath>
    <clipPath id="clippath-5">
      <rect class="st0" x="724.55" y="1085.22" width="27.51" height="37.12"/>
    </clipPath>
    <clipPath id="clippath-6">
      <rect class="st0" x="186.31" y="441.48" width="827.38" height="814.19"/>
    </clipPath>
    <clipPath id="clippath-7">
      <rect class="st0" x="186.31" y="441.48" width="827.38" height="814.19"/>
    </clipPath>
    <clipPath id="clippath-8">
      <rect class="st0" x="186.31" y="441.48" width="827.38" height="814.19"/>
    </clipPath>
  </defs>
  <rect class="st13" x="438.5" y="700.43" width="339.22" height="452.63"/>
  <rect class="st13" x="477.65" y="671.07" width="300.06" height="30.38"/>
  <rect class="st13" x="478.66" y="567.8" width="263.56" height="118.46"/>
  <rect class="st12" x="447.27" y="917.47" width="56.7" height="223.15"/>
  <rect class="st12" x="527.49" y="675.46" width="205.52" height="11.81"/>
  <rect class="st14" x="478.66" y="513.78" width="15.87" height="186.65"/>
  <rect class="st14" x="731.81" y="701.78" width="45.9" height="15.87"/>
  <rect class="st14" x="438.5" y="1137.19" width="113.75" height="15.86"/>
  <rect class="st14" x="623.46" y="1137.19" width="154.25" height="15.86"/>
  <rect class="st14" x="438.5" y="717.65" width="17.55" height="419.55"/>
  <rect class="st14" x="525.92" y="567.45" width="216.56" height="4.05"/>
  <rect class="st14" x="738.43" y="571.24" width="4.05" height="100.08"/>
  <rect class="st14" x="525.92" y="570.99" width="4.05" height="100.08"/>
  <rect class="st14" x="760.16" y="717.65" width="17.55" height="419.55"/>
  <rect class="st14" x="438.5" y="700.43" width="56.03" height="17.21"/>
  <rect class="st14" x="456.05" y="1012.98" width="56.03" height="6.07"/>
  <rect class="st14" x="632.58" y="1130.45" width="125.9" height="12.33"/>
  <rect class="st14" x="632.58" y="996.11" width="5.06" height="54.68"/>
  <rect class="st14" x="637.64" y="996.11" width="120.83" height="5.06"/>
  <rect class="st14" x="753.41" y="996.11" width="15.53" height="142.5"/>
  <rect class="st14" x="637.64" y="1001.17" width="115.77" height="1.35"/>
  <rect class="st14" x="637.64" y="998.72" width="1.35" height="52.07"/>
  <rect class="st14" x="632.58" y="1122.37" width="5.06" height="23.94"/>
  <rect class="st14" x="637.64" y="1122.29" width="1.35" height="24.02"/>
  <rect class="st14" x="637.64" y="1129.1" width="115.77" height="1.35"/>
  <rect class="st14" x="752.06" y="1001.17" width="1.35" height="127.92"/>
  <rect class="st14" x="640.68" y="936.37" width="119.49" height="7.77"/>
  <rect class="st14" x="632.58" y="936.37" width="8.1" height="59.74"/>
  <rect class="st14" x="731.81" y="671.07" width="45.9" height="30.72"/>
  <rect class="st14" x="492.73" y="701.78" width="42.02" height="15.87"/>
  <rect class="st14" x="492.73" y="671.07" width="42.02" height="30.72"/>
  <rect class="st14" x="494.53" y="513.78" width="30.72" height="188"/>
  <polygon class="st12" points="685.48 774.96 685.48 775.37 757.14 775.37 757.14 913.34 758.05 913.78 758.05 774.96 685.48 774.96"/>
  <polygon class="st12" points="685.48 775.37 685.48 877.87 701.4 885.76 741.21 905.45 757.14 913.34 757.14 775.37 685.48 775.37"/>
  <g class="st15">
    <path class="st12" d="M685.48,934.61v-56.74l15.92,7.89v28.26c0,1.82,1.47,3.28,3.29,3.28h33.24c1.82,0,3.29-1.47,3.29-3.28v-8.56l15.93,7.88v21.27h-71.66Z"/>
    <path class="st12" d="M701.4,914.01v-28.26l39.81,19.7v8.56c0,1.81-1.47,3.28-3.29,3.28h-33.24c-1.82,0-3.29-1.47-3.29-3.28"/>
  </g>
  <polyline class="st1" points="757.14 913.34 757.14 934.61 685.48 934.61 685.48 877.87"/>
  <polyline class="st1" points="741.21 905.45 757.14 913.34 758.05 913.79 758.05 774.96 685.48 774.96 685.48 775.37 685.48 877.87 701.4 885.75"/>
  <line class="st1" x1="737.93" y1="917.3" x2="704.69" y2="917.3"/>
  <g class="st4">
    <path class="st1" d="M704.69,917.3c-1.82,0-3.29-1.47-3.29-3.28"/>
    <path class="st1" d="M741.21,914.01c0,1.81-1.47,3.28-3.29,3.28"/>
  </g>
  <polyline class="st1" points="741.21 914.01 741.21 905.45 701.4 885.75 701.4 914.01"/>
  <g class="st7">
    <path class="st12" d="M682.83,1002.5c-.01,7.71-.01,15.42-.02,23.12,0,8.89-6.4,16.09-14.3,16.08-7.9,0-14.28-7.21-14.28-16.1,0-7.7.02-15.42.02-23.12,9.52,0,19.06.02,28.59.02"/>
  </g>
  <g class="st5">
    <path class="st3" d="M682.83,1002.5c-.01,7.71-.01,15.42-.02,23.12,0,8.89-6.4,16.09-14.3,16.08-7.9,0-14.28-7.21-14.28-16.1,0-7.7.02-15.42.02-23.12,9.52,0,19.06.02,28.59.02Z"/>
  </g>
  <rect class="st12" x="689.57" y="1002.52" width="62.49" height="63.21"/>
  <polyline class="st3" points="752.06 1002.52 752.06 1065.73 745.89 1065.73"/>
  <line class="st3" x1="752.06" y1="1002.52" x2="690.07" y2="1002.52"/>
  <line class="st3" x1="689.57" y1="1003.56" x2="689.57" y2="1065.18"/>
  <polyline class="st3" points="689.57 1003.56 689.57 1002.52 690.07 1002.52"/>
  <polyline class="st3" points="690.51 1065.73 689.57 1065.73 689.57 1065.18"/>
  <line class="st3" x1="690.51" y1="1065.73" x2="745.89" y2="1065.73"/>
  <line class="st3" x1="721.76" y1="1002.52" x2="721.76" y2="1020.08"/>
  <g class="st6">
    <path class="st3" d="M725.61,1020c0-2.17-1.76-3.93-3.93-3.93s-3.93,1.76-3.93,3.93,1.76,3.93,3.93,3.93,3.93-1.76,3.93-3.93Z"/>
    <path class="st3" d="M725.61,1020c0-2.17-1.76-3.93-3.93-3.93s-3.93,1.76-3.93,3.93,1.76,3.93,3.93,3.93,3.93-1.76,3.93-3.93Z"/>
  </g>
  <g class="st11">
    <path class="st12" d="M726.68,1085.85h15.49c.58,0,1.06.35,1.06.78v34.13c0,.44-.48.78-1.06.78h-15.49c-.6,0-1.07-.35-1.07-.78v-34.13c0-.44.48-.78,1.07-.78M734.15,1100.9c-1.55,0-2.81,1.25-2.81,2.8s1.26,2.8,2.81,2.8,2.8-1.25,2.8-2.8-1.25-2.8-2.8-2.8"/>
    <path class="st12" d="M745.86,1103.7c0-1.17.94-2.1,2.1-2.1s2.1.93,2.1,2.1-.94,2.1-2.1,2.1-2.1-.94-2.1-2.1"/>
    <path class="st12" d="M732.64,1103.7c0-.83.68-1.51,1.51-1.51s1.51.68,1.51,1.51-.68,1.51-1.51,1.51-1.51-.68-1.51-1.51"/>
    <path class="st12" d="M734.15,1105.21c.83,0,1.51-.68,1.51-1.51s-.68-1.51-1.51-1.51-1.51.68-1.51,1.51.68,1.51,1.51,1.51M731.34,1103.7c0-1.55,1.26-2.8,2.81-2.8s2.8,1.25,2.8,2.8-1.25,2.8-2.8,2.8-2.81-1.25-2.81-2.8"/>
    <path class="st12" d="M752.06,1085.22v37.12h-26.45c-.58,0-1.06-.35-1.06-.79v-35.69c0-.35.48-.63,1.06-.63h26.45ZM750.06,1103.7c0-1.17-.94-2.1-2.1-2.1s-2.1.93-2.1,2.1.94,2.1,2.1,2.1,2.1-.94,2.1-2.1M743.24,1120.76v-34.13c0-.44-.48-.78-1.06-.78h-15.5c-.59,0-1.07.35-1.07.78v34.13c0,.44.48.78,1.07.78h15.5c.58,0,1.06-.34,1.06-.78"/>
  </g>
  <g class="st9">
    <path class="st3" d="M747.96,1105.8c-1.17,0-2.1-.94-2.1-2.1s.94-2.1,2.1-2.1,2.1.93,2.1,2.1-.94,2.1-2.1,2.1Z"/>
    <path class="st3" d="M734.15,1106.5c-1.55,0-2.81-1.25-2.81-2.8s1.26-2.8,2.81-2.8,2.8,1.25,2.8,2.8-1.25,2.8-2.8,2.8Z"/>
    <path class="st3" d="M734.15,1105.21c-.83,0-1.51-.68-1.51-1.51s.68-1.51,1.51-1.51,1.51.68,1.51,1.51-.68,1.51-1.51,1.51Z"/>
    <path class="st3" d="M742.18,1085.85h-15.5c-.59,0-1.07.35-1.07.78v34.13c0,.44.48.78,1.07.78h15.5c.59,0,1.06-.34,1.06-.78v-34.13c0-.44-.48-.78-1.06-.78Z"/>
  </g>
  <line class="st3" x1="743.89" y1="1122.34" x2="752.06" y2="1122.34"/>
  <g class="st8">
    <path class="st3" d="M752.06,1085.22h-26.45c-.58,0-1.06.28-1.06.63v35.69c0,.44.48.79,1.06.79h8.39"/>
  </g>
  <line class="st3" x1="743.89" y1="1122.34" x2="734" y2="1122.34"/>
  <line class="st3" x1="752.06" y1="1122.34" x2="752.06" y2="1085.22"/>
  <polygon class="st12" points="510.27 850.21 513.99 856.29 519.39 861.01 520.06 861.35 519.72 862.02 518.71 863.04 517.36 863.37 515.67 862.7 513.99 861.69 513.65 861.69 513.31 861.69 512.97 861.69 512.3 861.69 511.96 862.02 519.39 865.74 527.49 867.09 535.59 865.74 543.01 862.02 543.01 861.69 542.68 861.69 542 861.69 541.66 861.69 541.33 861.69 540.99 861.69 539.3 862.7 537.61 863.37 536.26 863.04 535.25 862.02 535.25 861.35 535.59 861.01 540.99 856.29 544.7 850.21 510.27 850.21"/>
  <polygon class="st12" points="462.34 850.21 466.06 856.29 471.79 861.01 472.13 861.35 472.13 862.02 471.12 863.04 469.43 863.37 467.74 862.7 466.39 861.69 466.06 861.69 465.38 861.69 465.04 861.69 464.71 861.69 464.37 861.69 464.03 862.02 471.46 865.74 479.56 867.09 488 865.74 495.08 862.02 495.08 861.69 494.75 861.69 494.41 861.69 493.73 861.69 493.4 861.69 493.06 861.69 491.37 862.7 489.68 863.37 488.33 863.04 487.32 862.02 487.32 861.35 487.66 861.01 493.4 856.29 496.77 850.21 462.34 850.21"/>
  <polygon class="st12" points="544.7 786.42 510.27 786.42 496.77 786.42 462.34 786.42 455.93 786.42 455.93 850.21 462.34 850.21 496.77 850.21 510.27 850.21 544.7 850.21 551.45 850.21 551.45 786.42 544.7 786.42"/>
  <polygon class="st12" points="527.49 769.54 519.39 770.89 511.96 774.61 512.3 774.94 512.97 774.94 513.31 774.94 513.65 774.94 513.99 774.94 515.67 773.93 517.36 773.26 518.71 773.59 519.73 774.61 520.06 775.28 519.39 775.62 513.99 780.34 510.27 786.42 544.7 786.42 540.99 780.34 535.59 775.62 535.25 775.28 535.25 774.61 536.26 773.59 537.61 773.26 539.3 773.93 540.99 774.94 541.33 774.94 541.66 774.94 542 774.94 542.68 774.94 543.01 774.94 543.01 774.61 535.59 770.89 527.49 769.54"/>
  <polygon class="st12" points="479.56 769.54 471.46 770.89 464.03 774.61 464.37 774.94 464.71 774.94 465.04 774.94 465.38 774.94 466.06 774.94 466.39 774.94 467.74 773.93 469.43 773.26 471.12 773.59 472.13 774.61 472.13 775.28 471.8 775.62 466.06 780.34 462.34 786.42 496.77 786.42 493.4 780.34 487.66 775.62 487.32 775.28 487.32 774.61 488.33 773.59 489.68 773.26 491.37 773.93 493.06 774.94 493.4 774.94 493.73 774.94 494.41 774.94 494.75 774.94 495.08 774.94 495.08 774.61 488 770.89 479.56 769.54"/>
  <line class="st3" x1="540.99" y1="774.94" x2="541.33" y2="774.94"/>
  <line class="st3" x1="541.33" y1="774.94" x2="541.66" y2="774.94"/>
  <line class="st3" x1="542.68" y1="774.94" x2="542" y2="774.94"/>
  <line class="st3" x1="542" y1="774.94" x2="541.66" y2="774.94"/>
  <line class="st3" x1="543.01" y1="774.6" x2="543.01" y2="774.94"/>
  <line class="st3" x1="543.01" y1="774.94" x2="542.68" y2="774.94"/>
  <line class="st3" x1="535.25" y1="774.6" x2="536.26" y2="773.59"/>
  <line class="st3" x1="536.26" y1="773.59" x2="537.61" y2="773.25"/>
  <line class="st3" x1="537.61" y1="773.25" x2="539.3" y2="773.93"/>
  <line class="st3" x1="539.3" y1="773.93" x2="540.99" y2="774.94"/>
  <line class="st3" x1="535.59" y1="775.62" x2="535.25" y2="775.28"/>
  <line class="st3" x1="535.25" y1="775.28" x2="535.25" y2="774.6"/>
  <line class="st3" x1="535.59" y1="775.62" x2="540.99" y2="780.34"/>
  <line class="st3" x1="540.99" y1="780.34" x2="544.7" y2="786.42"/>
  <line class="st3" x1="513.99" y1="774.94" x2="513.65" y2="774.94"/>
  <line class="st3" x1="513.65" y1="774.94" x2="513.31" y2="774.94"/>
  <line class="st3" x1="512.3" y1="774.94" x2="512.97" y2="774.94"/>
  <line class="st3" x1="512.97" y1="774.94" x2="513.31" y2="774.94"/>
  <line class="st3" x1="511.96" y1="774.6" x2="512.3" y2="774.94"/>
  <line class="st3" x1="519.72" y1="774.6" x2="518.71" y2="773.59"/>
  <line class="st3" x1="518.71" y1="773.59" x2="517.36" y2="773.25"/>
  <line class="st3" x1="517.36" y1="773.25" x2="515.67" y2="773.93"/>
  <line class="st3" x1="515.67" y1="773.93" x2="513.99" y2="774.94"/>
  <line class="st3" x1="519.39" y1="775.62" x2="520.06" y2="775.28"/>
  <line class="st3" x1="520.06" y1="775.28" x2="519.73" y2="774.6"/>
  <line class="st3" x1="519.39" y1="775.62" x2="513.99" y2="780.34"/>
  <line class="st3" x1="513.99" y1="780.34" x2="510.27" y2="786.42"/>
  <line class="st3" x1="543.01" y1="774.6" x2="535.59" y2="770.89"/>
  <line class="st3" x1="535.59" y1="770.89" x2="527.49" y2="769.54"/>
  <line class="st3" x1="527.49" y1="769.54" x2="519.39" y2="770.89"/>
  <line class="st3" x1="519.39" y1="770.89" x2="511.96" y2="774.6"/>
  <line class="st3" x1="540.99" y1="861.69" x2="541.33" y2="861.69"/>
  <line class="st3" x1="541.33" y1="861.69" x2="541.66" y2="861.69"/>
  <line class="st3" x1="542.68" y1="861.69" x2="542" y2="861.69"/>
  <line class="st3" x1="542" y1="861.69" x2="541.66" y2="861.69"/>
  <line class="st3" x1="543.01" y1="862.02" x2="543.01" y2="861.69"/>
  <line class="st3" x1="543.01" y1="861.69" x2="542.68" y2="861.69"/>
  <line class="st3" x1="535.25" y1="862.02" x2="536.26" y2="863.04"/>
  <line class="st3" x1="536.26" y1="863.04" x2="537.61" y2="863.37"/>
  <line class="st3" x1="537.61" y1="863.37" x2="539.3" y2="862.7"/>
  <line class="st3" x1="539.3" y1="862.7" x2="540.99" y2="861.69"/>
  <line class="st3" x1="535.59" y1="861.01" x2="535.25" y2="861.35"/>
  <line class="st3" x1="535.25" y1="861.35" x2="535.25" y2="862.02"/>
  <line class="st3" x1="535.59" y1="861.01" x2="540.99" y2="856.29"/>
  <line class="st3" x1="540.99" y1="856.29" x2="544.7" y2="850.21"/>
  <line class="st3" x1="513.99" y1="861.69" x2="513.65" y2="861.69"/>
  <line class="st3" x1="513.65" y1="861.69" x2="513.31" y2="861.69"/>
  <line class="st3" x1="512.3" y1="861.69" x2="512.97" y2="861.69"/>
  <line class="st3" x1="512.97" y1="861.69" x2="513.31" y2="861.69"/>
  <line class="st3" x1="511.96" y1="862.02" x2="512.3" y2="861.69"/>
  <line class="st3" x1="519.72" y1="862.02" x2="518.71" y2="863.04"/>
  <line class="st3" x1="518.71" y1="863.04" x2="517.36" y2="863.37"/>
  <line class="st3" x1="517.36" y1="863.37" x2="515.67" y2="862.7"/>
  <line class="st3" x1="515.67" y1="862.7" x2="513.99" y2="861.69"/>
  <line class="st3" x1="519.39" y1="861.01" x2="520.06" y2="861.35"/>
  <line class="st3" x1="520.06" y1="861.35" x2="519.73" y2="862.02"/>
  <line class="st3" x1="519.39" y1="861.01" x2="513.99" y2="856.29"/>
  <line class="st3" x1="513.99" y1="856.29" x2="510.27" y2="850.21"/>
  <line class="st3" x1="543.01" y1="862.02" x2="535.59" y2="865.74"/>
  <line class="st3" x1="535.59" y1="865.74" x2="527.49" y2="867.09"/>
  <line class="st3" x1="527.49" y1="867.09" x2="519.39" y2="865.74"/>
  <line class="st3" x1="519.39" y1="865.74" x2="511.96" y2="862.02"/>
  <line class="st3" x1="551.45" y1="850.21" x2="551.45" y2="786.42"/>
  <line class="st3" x1="466.39" y1="774.94" x2="466.06" y2="774.94"/>
  <line class="st3" x1="466.06" y1="774.94" x2="465.38" y2="774.94"/>
  <line class="st3" x1="464.71" y1="774.94" x2="465.04" y2="774.94"/>
  <line class="st3" x1="465.04" y1="774.94" x2="465.38" y2="774.94"/>
  <line class="st3" x1="464.03" y1="774.6" x2="464.37" y2="774.94"/>
  <line class="st3" x1="464.37" y1="774.94" x2="464.71" y2="774.94"/>
  <line class="st3" x1="472.13" y1="774.6" x2="471.12" y2="773.59"/>
  <line class="st3" x1="471.12" y1="773.59" x2="469.43" y2="773.25"/>
  <line class="st3" x1="469.43" y1="773.25" x2="467.74" y2="773.93"/>
  <line class="st3" x1="467.74" y1="773.93" x2="466.39" y2="774.94"/>
  <line class="st3" x1="471.8" y1="775.62" x2="472.13" y2="775.28"/>
  <line class="st3" x1="472.13" y1="775.28" x2="472.13" y2="774.6"/>
  <line class="st3" x1="471.8" y1="775.62" x2="466.06" y2="780.34"/>
  <line class="st3" x1="466.06" y1="780.34" x2="462.34" y2="786.42"/>
  <line class="st3" x1="493.06" y1="774.94" x2="493.4" y2="774.94"/>
  <line class="st3" x1="493.4" y1="774.94" x2="493.73" y2="774.94"/>
  <line class="st3" x1="494.75" y1="774.94" x2="494.41" y2="774.94"/>
  <line class="st3" x1="494.41" y1="774.94" x2="493.74" y2="774.94"/>
  <line class="st3" x1="495.08" y1="774.6" x2="495.08" y2="774.94"/>
  <line class="st3" x1="495.08" y1="774.94" x2="494.75" y2="774.94"/>
  <line class="st3" x1="487.32" y1="774.6" x2="488.33" y2="773.59"/>
  <line class="st3" x1="488.33" y1="773.59" x2="489.68" y2="773.25"/>
  <line class="st3" x1="489.68" y1="773.25" x2="491.37" y2="773.93"/>
  <line class="st3" x1="491.37" y1="773.93" x2="493.06" y2="774.94"/>
  <line class="st3" x1="487.66" y1="775.62" x2="487.32" y2="775.28"/>
  <line class="st3" x1="487.32" y1="775.28" x2="487.32" y2="774.6"/>
  <line class="st3" x1="487.66" y1="775.62" x2="493.4" y2="780.34"/>
  <line class="st3" x1="493.4" y1="780.34" x2="496.77" y2="786.42"/>
  <line class="st3" x1="464.03" y1="774.6" x2="471.46" y2="770.89"/>
  <line class="st3" x1="471.46" y1="770.89" x2="479.56" y2="769.54"/>
  <line class="st3" x1="479.56" y1="769.54" x2="488" y2="770.89"/>
  <line class="st3" x1="488" y1="770.89" x2="495.08" y2="774.6"/>
  <line class="st3" x1="466.39" y1="861.69" x2="466.06" y2="861.69"/>
  <line class="st3" x1="466.06" y1="861.69" x2="465.38" y2="861.69"/>
  <line class="st3" x1="464.71" y1="861.69" x2="465.04" y2="861.69"/>
  <line class="st3" x1="465.04" y1="861.69" x2="465.38" y2="861.69"/>
  <line class="st3" x1="464.03" y1="862.02" x2="464.37" y2="861.69"/>
  <line class="st3" x1="464.37" y1="861.69" x2="464.71" y2="861.69"/>
  <line class="st3" x1="472.13" y1="862.02" x2="471.12" y2="863.04"/>
  <line class="st3" x1="471.12" y1="863.04" x2="469.43" y2="863.37"/>
  <line class="st3" x1="469.43" y1="863.37" x2="467.74" y2="862.7"/>
  <line class="st3" x1="467.74" y1="862.7" x2="466.39" y2="861.69"/>
  <line class="st3" x1="471.8" y1="861.01" x2="472.13" y2="861.35"/>
  <line class="st3" x1="472.13" y1="861.35" x2="472.13" y2="862.02"/>
  <line class="st3" x1="471.8" y1="861.01" x2="466.06" y2="856.29"/>
  <line class="st3" x1="466.06" y1="856.29" x2="462.34" y2="850.21"/>
  <line class="st3" x1="493.06" y1="861.69" x2="493.4" y2="861.69"/>
  <line class="st3" x1="493.4" y1="861.69" x2="493.73" y2="861.69"/>
  <line class="st3" x1="494.75" y1="861.69" x2="494.41" y2="861.69"/>
  <line class="st3" x1="494.41" y1="861.69" x2="493.74" y2="861.69"/>
  <line class="st3" x1="495.08" y1="862.02" x2="495.08" y2="861.69"/>
  <line class="st3" x1="495.08" y1="861.69" x2="494.75" y2="861.69"/>
  <line class="st3" x1="487.32" y1="862.02" x2="488.33" y2="863.04"/>
  <line class="st3" x1="488.33" y1="863.04" x2="489.68" y2="863.37"/>
  <line class="st3" x1="489.68" y1="863.37" x2="491.37" y2="862.7"/>
  <line class="st3" x1="491.37" y1="862.7" x2="493.06" y2="861.69"/>
  <line class="st3" x1="487.66" y1="861.01" x2="487.32" y2="861.35"/>
  <line class="st3" x1="487.32" y1="861.35" x2="487.32" y2="862.02"/>
  <line class="st3" x1="487.66" y1="861.01" x2="493.4" y2="856.29"/>
  <line class="st3" x1="493.4" y1="856.29" x2="496.77" y2="850.21"/>
  <line class="st3" x1="464.03" y1="862.02" x2="471.46" y2="865.74"/>
  <line class="st3" x1="471.46" y1="865.74" x2="479.56" y2="867.09"/>
  <line class="st3" x1="479.56" y1="867.09" x2="488" y2="865.74"/>
  <line class="st3" x1="488" y1="865.74" x2="495.08" y2="862.02"/>
  <line class="st3" x1="455.93" y1="850.21" x2="455.93" y2="786.42"/>
  <polyline class="st3" points="455.93 786.42 462.34 786.42 496.77 786.42 510.27 786.42 544.7 786.42 551.45 786.42"/>
  <polyline class="st3" points="551.45 850.21 544.7 850.21 510.27 850.21 496.77 850.21 462.34 850.21 455.93 850.21"/>
  <line class="st3" x1="474.21" y1="1039.98" x2="463.54" y2="1039.98"/>
  <rect class="st3" x="456.46" y="1019.18" width="47.78" height="117.89"/>
  <line class="st3" x1="471.47" y1="1109.04" x2="471.47" y2="1098.61"/>
  <line class="st3" x1="491.08" y1="1109.04" x2="491.08" y2="1098.61"/>
  <line class="st3" x1="485.93" y1="1103.89" x2="496.36" y2="1103.89"/>
  <line class="st3" x1="466.18" y1="1103.89" x2="476.61" y2="1103.89"/>
  <rect class="st3" x="461.59" y="1092.07" width="39.36" height="22.95"/>
  <rect class="st3" x="467.32" y="1026.77" width="26.54" height="26.54"/>
  <rect class="st3" x="460.72" y="1020.03" width="39.75" height="39.89"/>
  <path class="st3" d="M640.68,944.13h119.49M760.16,944.13v51.98M760.16,996.11h-119.49"/>
  <line class="st3" x1="478.66" y1="513.78" x2="478.66" y2="700.43"/>
  <path class="st3" d="M731.81,701.78v15.86M731.81,717.65h28.35M494.53,717.65h40.17M534.69,717.65v-15.86M623.46,1153.06h153.24M551.23,1137.2h-95.18M438.5,1137.2v15.86M450.65,1153.06h100.58M438.5,717.65v76.28M438.5,809.79v327.4M738.43,571.5h-208.46M529.97,571.5v99.57M749.02,671.07h4.05M742.48,671.02v-103.62M742.48,567.45h-216.56M525.92,567.45v103.62M525.92,671.07h4.05M529.97,671.07v-99.57M529.97,571.5h208.46M738.43,571.5v99.57M640.68,944.13l119.49,51.98M760.16,996.11h-119.49M640.68,944.13h119.49M760.16,944.13v51.98M777.71,1137.2v-419.55M456.05,848.95v-63.79"/>
  <path class="st3" d="M456.05,965.39h1.35M459.76,965.39h2.36M464.48,965.39h2.36M469.21,965.39h2.36M474.27,965.39h2.36M479,965.39h2.36M483.72,965.39h2.36M488.45,965.39h2.36M493.18,965.39h2.36M497.9,965.39h2.7M502.96,965.39h1.01M503.98,965.39v-1.35M503.98,961.68v-2.36M503.98,956.95v-2.36M503.98,952.23v-2.36M503.98,947.5v-2.7M503.98,942.44v-2.37M503.98,937.72v-2.36M503.98,932.99v-2.36M503.98,928.27v-2.36M503.98,923.54v-2.36M503.98,918.81v-1.35M503.98,917.46h-1.01M500.6,917.46h-2.7M495.54,917.46h-2.36M490.81,917.46h-2.36M486.09,917.46h-2.36M481.36,917.46h-2.36M476.64,917.46h-2.36M471.57,917.46h-2.36M466.85,917.46h-2.36M462.12,917.46h-2.36M457.4,917.46h-1.35M456.05,917.46v1.35M456.05,921.18v2.36M456.05,925.9v2.36M456.05,930.63v2.36M456.05,935.35v2.36M456.05,940.08v2.37M456.05,944.8v2.7M456.05,949.87v2.36M456.05,954.59v2.36M456.05,959.32v2.36M456.05,964.04v1.35M621.1,1070.7l-12.83,1.01M608.27,1071.71l-12.49,4.05M595.78,1075.76l-11.47,6.08M584.31,1081.84l-10.13,8.1M574.18,1089.94l-8.44,10.13M565.74,1100.07l-6.07,11.48M559.67,1111.54l-3.71,12.49M555.96,1124.03l-1.35,13.16M552.24,1137.19v15.87M623.46,1153.06v-15.87M621.1,1137.19v-66.49M624.47,1137.19h-1.01M456.05,1012.98h1.35M459.76,1012.98h2.36M464.48,1012.98h2.36M469.21,1012.98h2.36M474.27,1012.98h2.36M479,1012.98h2.36M483.72,1012.98h2.36M488.45,1012.98h2.36M493.18,1012.98h2.36M497.9,1012.98h2.7M502.96,1012.98h1.01M503.98,1012.98v-1.01M503.98,1009.61v-2.36M503.98,1004.88v-2.36M503.98,999.82v-2.36M503.98,995.1v-2.36M503.98,990.37v-2.37M503.98,985.64v-2.36M503.98,980.92v-2.36M503.98,976.19v-2.36M503.98,971.13v-2.36M503.98,966.41v-1.02M503.98,965.39h-1.01M500.6,965.39h-2.7M495.54,965.39h-2.36M490.81,965.39h-2.36M486.09,965.39h-2.36M481.36,965.39h-2.36M476.64,965.39h-2.36M471.57,965.39h-2.36M466.85,965.39h-2.36M462.12,965.39h-2.36M457.4,965.39h-1.35M456.05,965.39v1.02M456.05,968.77v2.36M456.05,973.83v2.36M456.05,978.56v2.36M456.05,983.28v2.36M456.05,988.01v2.37M456.05,992.73v2.36M456.05,997.46v2.36M456.05,1002.52v2.36M456.05,1007.25v2.36M456.05,1011.97v1.01M478.66,700.43h-40.16M456.05,717.65h38.48M456.05,1019.06h56.03M512.08,1019.06v-6.08M512.08,1012.98h-56.03M777.71,1012.98v6.08M538.07,600.19l13.16,1.01M551.23,601.2l12.83,3.71M564.06,604.91l11.82,5.4M575.87,610.31l10.8,7.43M586.67,617.74l9.11,9.45M595.78,627.19l7.77,10.8M603.55,637.99l5.4,11.81M608.95,649.8l3.38,12.83M612.32,662.63l1.35,12.83M538.07,675.46v-75.27M543.13,680.18h65.48M608.61,680.18v-4.05M608.61,676.13h-65.48M543.13,676.13v4.05M611.99,687.27h-72.23M543.13,675.46h65.48M543.13,681.87h65.48M611.99,681.87v5.4M539.75,682.21v5.06M539.75,681.87h72.23M535.7,687.27h4.05M539.75,687.27v-5.4M539.75,681.87h3.38M543.13,681.87v-6.41M543.13,675.46h-7.43M535.7,675.46v11.81M611.99,687.27h4.05M616.04,687.27v-11.81M616.04,675.46h-7.42M608.61,675.46v6.41M608.61,681.87h3.37M611.99,681.87v5.4M726.75,676.13v4.05M621.1,676.13h105.65M621.1,680.18v-4.05M726.75,680.18h-105.65M621.1,687.27h105.65M726.75,675.46h-105.65M621.1,675.46v11.81M617.05,675.46h4.05M617.05,687.27v-11.81M621.1,687.27h-4.05M730.8,675.46v11.81M726.75,675.46h4.05M726.75,687.27v-11.81M730.8,687.27h-4.05M534.69,717.65h-42.87M456.05,717.65v295.34M456.05,1019.06v118.13M551.23,1137.19h1.01M554.61,1137.19h66.49M623.46,1137.19h9.11M632.57,936.37h127.59M760.16,936.37v-218.72M731.81,717.65v-18.9M534.69,698.75v18.9M438.5,700.43h40.16"/>
  <line class="st3" x1="478.66" y1="700.43" x2="478.66" y2="513.78"/>
  <path class="st3" d="M777.71,1153.06h-154.25M624.48,1137.19h-1.02M552.24,1153.06h-96.2M456.05,1068v47.93M456.05,1020.41v95.52M632.58,1132.13v5.06M637.64,1122.34h-5.06M632.58,1122.34v9.79M632.58,996.11v54.68M637.64,1122.34h-5.06M758.47,996.11h-117.8"/>
  <path class="st3" d="M703.46,1118.97l-1.35-12.83M702.11,1106.14l-3.71-12.49M698.39,1093.65l-6.07-11.14M692.32,1082.52l-8.1-10.13M684.22,1072.39l-9.79-8.1M674.43,1064.29l-11.48-6.08M662.95,1058.21l-12.49-3.71M650.46,1054.5l-12.83-1.35M638.99,1050.79h-6.41M637.64,1118.97h65.82M637.64,1115.59v3.38M637.64,1118.97v-65.82"/>
  <path class="st3" d="M722.02,1002.52h1.69M719.32,1002.52h1.35M719.32,1002.52h4.39M719.32,1002.52h1.35M722.02,1002.52h1.69M638.99,1002.52h113.07M638.99,1050.79v-48.27M638.99,1129.09v-6.75M638.99,1122.34h-1.35M752.06,1129.09h-113.07M752.06,1002.52v126.57"/>
  <path class="st3" d="M760.16,936.36h-8.1M752.06,936.36v7.76M752.06,944.13h8.1M704.47,936.36h-63.79M640.68,944.13h63.79M704.47,944.13v-7.76M704.47,936.36h47.59M752.06,944.13h-47.59M752.06,936.36v7.76M704.47,944.13v-7.76M632.58,936.36v59.74M640.68,936.36h-8.1M534.69,701.78v-30.72M534.69,671.07h-9.45M777.71,671.07h-45.9M731.81,671.07v30.72M731.81,679.84v-8.78M731.81,679.84h-1.01M617.05,679.84h-1.01M535.71,679.84h-1.01M731.81,679.84v18.9M534.69,671.07v8.78M534.69,679.84h1.01M616.04,679.84h1.01M730.8,679.84h1.01"/>
  <line class="st3" x1="525.24" y1="671.07" x2="525.24" y2="513.78"/>
  <path class="st3" d="M777.71,671.07v481.99M456.05,1153.06h-17.55M438.5,1153.06v-452.63"/>
  <g class="st10">
    <path class="st2" d="M80.04,1117.96h6.07M103.67,1197.28l16.2-7.09M115.48,1172.64l4.38,17.55M143.16,1201.33l-27.68-28.69M143.16,1201.33l-39.49-4.05M143.16,1201.33l-23.29-11.14M80.04,878.65h6.07M80.04,1038.3h6.07M80.04,958.64h6.07M80.04,878.65v239.31M1206.37,418.94H22.66"/>
    <path d="M101.43,469.85c-.43.28-.75.67-.96,1.17-.21.5-.32,1.11-.32,1.85,0,.58.11,1.1.32,1.57.21.47.5.82.89,1.07.38.25.78.37,1.21.37s.81-.11,1.15-.34c.33-.22.61-.58.82-1.05.14-.33.32-.92.51-1.8.19-.88.38-1.42.57-1.62.19-.21.42-.32.72-.32.33,0,.62.15.85.45.23.3.36.77.36,1.42s-.13,1.1-.39,1.42c-.26.32-.64.51-1.16.56l.08,1.03c.47-.02.9-.15,1.27-.4.37-.25.66-.6.85-1.06.19-.46.29-.99.29-1.6,0-.55-.09-1.04-.27-1.49-.18-.45-.45-.79-.81-1.02-.35-.23-.74-.35-1.14-.35-.37,0-.71.09-1,.29-.3.19-.55.48-.75.87-.16.3-.33.82-.5,1.57-.18.75-.31,1.23-.39,1.45-.13.34-.29.59-.48.73-.19.15-.41.22-.66.22s-.48-.08-.69-.23c-.21-.16-.38-.39-.49-.7-.12-.32-.18-.68-.18-1.09,0-.46.08-.88.24-1.25.16-.37.37-.64.62-.82.26-.18.59-.29.99-.34l-.09-1.02c-.54.02-1.02.16-1.45.45M100.29,478.56h2.79l1.28,1.33-4.08,2.9v1.42l4.8-3.56,3.26,3.41v-1.46l-4-4.04h4v-1.08h-8.06v1.08Z"/>
    <path d="M105.96,488.08h-.92v5.37h.92v-5.37ZM103.51,488.08h-.92v5.37h.92v-5.37Z"/>
    <path d="M101.43,498.2c-.43.28-.75.67-.96,1.17-.21.5-.32,1.11-.32,1.85,0,.58.1,1.1.31,1.57.21.47.51.82.89,1.07.38.25.78.37,1.22.37s.81-.11,1.14-.34c.33-.23.61-.58.82-1.05.15-.33.32-.92.51-1.8.2-.88.39-1.42.57-1.62.19-.21.42-.32.71-.32.34,0,.62.15.86.45.23.3.36.77.36,1.43s-.13,1.1-.39,1.42-.64.51-1.15.56l.08,1.03c.47-.02.9-.15,1.27-.4.38-.25.66-.61.85-1.06.19-.46.29-.99.29-1.6,0-.55-.09-1.04-.28-1.49-.18-.45-.45-.79-.8-1.02-.35-.23-.73-.35-1.14-.35-.37,0-.71.1-1,.29-.3.19-.55.48-.75.87-.16.3-.32.82-.5,1.57-.18.75-.31,1.23-.39,1.45-.13.34-.29.59-.48.73-.19.15-.41.22-.66.22s-.48-.07-.69-.23c-.21-.16-.38-.39-.5-.7-.12-.32-.18-.68-.18-1.09,0-.46.08-.88.24-1.25.16-.37.37-.64.63-.82.26-.18.59-.29.99-.34l-.09-1.02c-.54.01-1.02.16-1.45.45"/>
    <path d="M100.29,506.42h2.31l.67.71-2.98,1.95v1.23l3.67-2.48,2.16,2.26v-1.3l-2.38-2.37h4.6v-1h-8.06v1ZM100.29,515.54v1.04c.22-.12.46-.21.7-.25.25-.05.83-.07,1.75-.07h1.32c.44,0,.74-.02.91-.05.27-.06.49-.16.67-.31.18-.15.33-.38.44-.69.12-.31.18-.72.18-1.23s-.07-.95-.21-1.33c-.14-.38-.33-.68-.59-.88-.26-.21-.59-.35-1-.44l-.13.98c.42.11.7.27.87.5.16.22.25.57.25,1.04,0,.5-.11.88-.34,1.14-.16.19-.45.28-.85.28-.03,0-.12,0-.26,0-.13-.38-.25-.98-.34-1.78-.05-.39-.09-.69-.15-.89-.07-.27-.18-.5-.32-.72-.14-.21-.33-.38-.57-.52-.24-.13-.5-.2-.78-.2-.49,0-.89.17-1.2.52-.31.35-.47.85-.47,1.49,0,.39.07.76.19,1.1.13.34.35.7.66,1.07-.27.03-.51.1-.72.2M102.86,515.26c-.44,0-.77-.05-.99-.16-.29-.14-.52-.36-.68-.66-.17-.3-.25-.64-.25-1.03s.09-.68.27-.88c.18-.2.4-.31.66-.31.18,0,.33.05.47.14.14.09.25.22.33.39.07.17.14.46.2.87.1.73.23,1.27.38,1.63h-.36Z"/>
    <path d="M100.29,518.57h2.31l.67.71-2.99,1.95v1.23l3.67-2.48,2.16,2.25v-1.29l-2.37-2.37h4.6v-1h-8.06v1ZM101.14,525.05c0-.15.03-.26.07-.34.05-.08.11-.14.19-.17.08-.04.26-.05.55-.05h3.42v1.01h.77v-1.01h2.04l-.59-.99h-1.45v-.73h-.77v.73h-3.36c-.59,0-.98.04-1.17.12-.18.08-.33.22-.45.42-.11.2-.17.48-.17.84,0,.22.03.47.09.76l.88-.14c-.03-.18-.04-.33-.04-.44"/>
    <path d="M87.13,470.9h3.66v3.82h.95v-3.82h2.5v4.41h.95v-5.49h-8.06v1.08ZM88.27,476.6c-.43.28-.74.67-.96,1.17-.21.5-.32,1.11-.32,1.85,0,.58.1,1.1.31,1.57.21.46.51.82.89,1.07.38.25.79.37,1.22.37s.81-.11,1.14-.34c.33-.23.61-.58.83-1.05.14-.33.32-.92.51-1.8.2-.88.39-1.42.57-1.62.19-.21.43-.32.72-.32.33,0,.62.15.85.45.23.3.35.77.35,1.43s-.13,1.1-.39,1.42c-.26.32-.64.51-1.15.56l.08,1.03c.47-.02.9-.15,1.27-.4.38-.25.66-.61.85-1.06.19-.46.29-.99.29-1.6,0-.55-.09-1.04-.27-1.49-.19-.45-.45-.79-.81-1.02-.35-.23-.73-.35-1.14-.35-.37,0-.7.1-1,.29-.3.19-.55.48-.75.87-.16.3-.32.82-.5,1.57-.18.75-.31,1.23-.39,1.45-.13.34-.29.59-.48.73-.19.15-.41.22-.66.22s-.48-.07-.69-.23c-.21-.16-.38-.39-.5-.7-.12-.32-.18-.68-.18-1.09,0-.46.08-.88.24-1.25.16-.37.37-.64.63-.82.26-.18.59-.29.99-.34l-.09-1.02c-.54.01-1.02.16-1.45.45"/>
    <path d="M92.79,487.07h-.92v5.37h.92v-5.37ZM90.35,487.07h-.92v5.37h.92v-5.37Z"/>
    <polygon points="87.13 498.23 90.79 498.23 90.79 502.05 91.74 502.05 91.74 498.23 94.24 498.23 94.24 502.65 95.19 502.65 95.19 497.16 87.13 497.16 87.13 498.23"/>
    <path d="M87.78,504.46c-.53.51-.79,1.18-.79,2,0,.51.12.99.36,1.43.24.44.57.76,1,.99.43.23,1.02.34,1.77.34.92,0,1.65-.26,2.18-.77.53-.52.79-1.18.79-1.99,0-.73-.22-1.34-.65-1.85-.52-.61-1.32-.91-2.4-.91-.98,0-1.74.25-2.26.76M91.72,505.21c.37.33.55.74.55,1.24s-.18.9-.56,1.24c-.37.33-.92.5-1.64.5-.77,0-1.34-.16-1.71-.49-.38-.33-.56-.75-.56-1.24s.19-.91.56-1.24c.37-.33.93-.49,1.68-.49s1.31.17,1.68.49M87.13,511.12h3.05c.42,0,.81.06,1.16.17.23.07.41.2.54.37.13.18.2.37.2.59,0,.24-.07.49-.21.73l.92.34c.21-.35.32-.69.32-1.03,0-.23-.07-.45-.2-.64-.13-.19-.41-.4-.82-.63h.89v-.9h-5.84v1Z"/>
    <path d="M88.1,517.27c-.19-.26-.29-.57-.29-.94,0-.49.17-.9.51-1.23.34-.33.83-.51,1.48-.55v4.39c.11,0,.2,0,.26,0,.96,0,1.71-.25,2.24-.75.53-.5.8-1.14.8-1.93s-.27-1.47-.81-1.99c-.54-.51-1.31-.77-2.29-.77s-1.69.25-2.21.76c-.53.51-.79,1.19-.79,2.05,0,.68.16,1.24.49,1.69.33.44.79.74,1.39.9l.13-1.03c-.42-.15-.72-.35-.91-.62M91.83,515.13c.31.31.46.7.46,1.16,0,.51-.19.92-.57,1.24-.25.21-.61.33-1.1.38v-3.29c.51.03.91.21,1.22.52M87.47,520.64c-.31.4-.47.99-.47,1.75,0,.46.08.88.24,1.24.16.37.38.65.67.84.29.19.6.29.93.29s.62-.08.84-.24c.23-.16.4-.38.52-.66.12-.28.27-.77.46-1.48.13-.49.22-.78.25-.88.07-.18.16-.3.26-.38.1-.08.22-.12.35-.12.2,0,.38.1.53.29.15.2.23.52.23.98,0,.39-.08.69-.25.9-.17.21-.4.34-.7.39l.13.97c.38-.06.68-.18.9-.34.23-.17.4-.42.54-.77.13-.35.2-.76.2-1.22,0-.31-.04-.6-.12-.87-.08-.27-.18-.48-.29-.63-.14-.21-.33-.37-.55-.49-.22-.12-.46-.18-.72-.18-.29,0-.55.07-.79.22-.23.15-.42.36-.55.64-.14.28-.29.79-.48,1.52-.14.54-.25.89-.33,1.02-.13.2-.31.29-.53.29-.25,0-.47-.11-.65-.33-.19-.22-.28-.56-.28-1.02s.1-.81.31-1.06c.21-.25.51-.41.9-.47l-.16-.99c-.62.11-1.09.37-1.4.77M95.19,526.02h-8.06v1h8.06v-1ZM87.13,532.7v1.04c.22-.13.46-.21.7-.26.24-.04.82-.06,1.74-.06h1.32c.44,0,.75-.02.91-.05.27-.06.5-.17.67-.31.18-.15.33-.38.44-.69.12-.31.18-.72.18-1.22s-.07-.95-.2-1.34c-.14-.38-.33-.68-.59-.88-.25-.21-.59-.35-1-.44l-.13.98c.41.11.7.27.86.5.17.22.25.57.25,1.04,0,.5-.11.88-.33,1.14-.17.19-.45.28-.85.28-.04,0-.12,0-.26,0-.13-.38-.24-.98-.34-1.78-.05-.39-.1-.69-.15-.89-.07-.27-.18-.5-.32-.72-.14-.21-.33-.38-.57-.52-.23-.13-.5-.2-.78-.2-.49,0-.89.17-1.2.52s-.47.85-.47,1.49c0,.39.06.76.19,1.1.13.34.35.7.66,1.07-.28.03-.51.1-.72.2M89.7,532.42c-.44,0-.77-.06-.99-.16-.29-.14-.52-.36-.68-.66-.16-.3-.25-.64-.25-1.03s.09-.68.26-.88c.18-.2.4-.3.66-.3.17,0,.33.04.47.14.14.09.25.22.32.39.08.17.14.46.2.87.1.72.22,1.27.37,1.63h-.36ZM93.75,530.33c-.2.2-.29.43-.29.71s.1.5.29.7c.19.2.43.3.71.3s.52-.1.71-.3.29-.43.29-.7-.1-.5-.29-.7-.42-.3-.69-.3c-.29,0-.54.1-.74.29M94.89,530.63c.11.12.18.25.18.41s-.06.3-.18.42c-.12.11-.26.17-.42.17s-.31-.06-.42-.17c-.12-.12-.18-.25-.18-.41s.06-.3.18-.41.26-.18.44-.18c.16,0,.3.06.42.18M88.1,538.49c-.19-.26-.29-.57-.29-.94,0-.49.17-.9.51-1.23.34-.33.83-.51,1.48-.55v4.4c.11,0,.2,0,.26,0,.96,0,1.71-.25,2.24-.75.53-.5.8-1.14.8-1.93s-.27-1.47-.81-1.99c-.54-.51-1.31-.76-2.29-.76s-1.69.25-2.21.76c-.53.5-.79,1.19-.79,2.05,0,.68.16,1.25.49,1.69.33.44.79.74,1.39.9l.13-1.03c-.42-.15-.72-.36-.91-.62M91.83,536.34c.31.31.46.7.46,1.16,0,.5-.19.92-.57,1.24-.25.21-.61.33-1.1.38v-3.29c.51.04.91.21,1.22.52"/>
    <path d="M87.98,543.27c0-.15.02-.26.07-.34.05-.08.11-.14.19-.17.08-.04.26-.05.55-.05h3.41v1.01h.77v-1.01h2.04l-.59-1h-1.45v-.73h-.77v.73h-3.36c-.59,0-.98.04-1.17.12-.19.08-.33.22-.45.42-.12.2-.17.48-.17.84,0,.22.03.47.09.75l.88-.14c-.03-.18-.04-.33-.04-.44M87.47,547.97c-.32.4-.47.99-.47,1.75,0,.46.08.88.24,1.24.16.36.38.64.68.84.29.2.6.29.93.29s.62-.08.85-.24c.23-.16.4-.38.52-.66.12-.28.27-.77.46-1.48.14-.49.22-.78.25-.88.07-.17.16-.3.27-.38.1-.08.21-.12.35-.12.2,0,.38.1.53.3s.23.52.23.98c0,.39-.08.69-.25.9-.17.21-.4.34-.7.38l.13.98c.38-.07.68-.18.9-.35.22-.17.4-.43.54-.77.13-.35.2-.76.2-1.22,0-.31-.04-.6-.12-.86-.08-.27-.18-.48-.29-.63-.15-.21-.33-.37-.55-.49-.22-.12-.46-.18-.72-.18-.28,0-.55.07-.78.22-.23.15-.42.36-.55.65-.13.28-.29.79-.48,1.52-.14.54-.25.88-.34,1.02-.13.2-.31.29-.53.29-.25,0-.47-.11-.65-.33-.19-.22-.28-.56-.28-1.02s.1-.81.32-1.06c.21-.25.51-.41.9-.46l-.15-.99c-.62.11-1.09.36-1.4.77"/>
    <path d="M87.13,554.69h2.31l.67.7-2.98,1.95v1.23l3.67-2.48,2.16,2.25v-1.29l-2.38-2.36h4.6v-1h-8.06v1ZM87.13,563.47v1.04c.22-.12.46-.21.7-.25.25-.05.83-.07,1.75-.07h1.32c.44,0,.74-.02.91-.05.27-.06.5-.16.67-.31.18-.15.33-.38.45-.69.12-.31.18-.72.18-1.23s-.07-.95-.21-1.33-.33-.68-.59-.88c-.25-.21-.59-.35-1-.44l-.13.98c.41.11.7.27.86.5.16.22.25.57.25,1.04,0,.5-.11.88-.33,1.14-.17.19-.45.28-.85.28-.04,0-.13,0-.26,0-.14-.38-.25-.98-.35-1.78-.05-.39-.09-.69-.15-.89-.07-.27-.18-.5-.32-.72-.14-.21-.33-.38-.57-.52-.23-.13-.49-.2-.78-.2-.49,0-.89.17-1.2.52-.31.35-.47.85-.47,1.49,0,.39.07.76.2,1.1.13.34.35.7.66,1.07-.27.03-.51.1-.72.2M89.7,563.18c-.44,0-.77-.05-.99-.16-.29-.14-.52-.36-.68-.66-.17-.3-.25-.64-.25-1.03s.09-.68.27-.88c.18-.2.4-.31.66-.31.17,0,.33.05.47.14.14.09.25.22.32.39.07.17.14.46.2.87.1.73.23,1.27.38,1.63h-.36Z"/>
    <path d="M87.86,566.42c-.58.39-.86.94-.86,1.64s.27,1.3.82,1.8c.55.5,1.32.75,2.32.75.42,0,.82-.06,1.19-.18.37-.12.68-.28.95-.49.26-.21.47-.48.61-.8.14-.32.22-.67.22-1.03,0-.65-.26-1.19-.79-1.61h2.88v-1h-8.06v.93h.73ZM91.72,566.88c.38.32.56.7.56,1.13s-.18.8-.54,1.11c-.36.31-.93.46-1.69.46s-1.3-.16-1.68-.48c-.38-.32-.56-.7-.56-1.13,0-.53.25-.96.76-1.28.31-.19.82-.29,1.52-.29s1.25.16,1.63.48"/>
    <path d="M88.16,877.22c-.56.45-.83,1.06-.83,1.85,0,.6.16,1.09.48,1.48.31.39.76.68,1.35.88.58.2,1.34.29,2.29.29.8,0,1.44-.06,1.91-.18.47-.12.87-.29,1.2-.5.33-.21.58-.49.76-.81.18-.33.26-.71.26-1.15,0-.59-.16-1.08-.47-1.47-.31-.39-.76-.69-1.34-.88-.58-.2-1.35-.29-2.3-.29-1.51,0-2.6.27-3.27.8M94.16,877.96c.39.28.58.64.58,1.1s-.22.85-.65,1.17c-.44.31-1.32.47-2.65.47s-2.2-.16-2.64-.47c-.44-.31-.66-.7-.66-1.16s.22-.84.65-1.16c.44-.31,1.32-.47,2.64-.47s2.23.17,2.72.52M88.42,1030.92c.18.11.36.25.53.42.18.17.52.55,1.02,1.15.6.72,1.07,1.23,1.42,1.54.35.31.67.53.98.66.31.13.63.2.95.2.64,0,1.17-.23,1.6-.68.43-.46.64-1.07.64-1.86s-.2-1.39-.6-1.85-.97-.72-1.73-.79l-.1,1.03c.5,0,.9.15,1.19.44.29.29.43.68.43,1.15,0,.46-.14.83-.4,1.11-.27.28-.6.42-.99.42s-.77-.16-1.19-.47c-.42-.31-.99-.91-1.71-1.8-.46-.57-.87-1-1.22-1.31-.35-.3-.71-.52-1.07-.66-.22-.08-.45-.12-.69-.11v5.38h.95v-3.99Z"/>
    <path d="M87.47,1037.01h3.03c.53,0,.94.05,1.22.16.29.11.5.28.64.52.15.24.22.5.22.78,0,.37-.11.64-.33.8-.22.16-.55.25-.99.25h-3.79v1h3.39c.6,0,1.04.14,1.31.41.27.28.41.62.41,1.04,0,.23-.05.43-.16.6-.11.17-.25.29-.42.35-.18.07-.46.1-.85.1h-3.68v.99h4.01c.66,0,1.16-.16,1.48-.47.32-.32.48-.76.48-1.35,0-.74-.34-1.35-1.02-1.82.32-.11.57-.31.75-.59.18-.28.27-.64.27-1.08,0-.39-.08-.74-.26-1.05-.17-.31-.41-.55-.69-.74h.82v-.89h-5.84v1Z"/>
    <path d="M95.56,956.12v-.64c-.35-.17-.71-.47-1.08-.89-.37-.42-.68-.9-.94-1.46h-.96c.11.31.29.66.51,1.05.23.39.46.71.68.95h-6.3v1h8.09ZM87.47,960.05h3.03c.53,0,.94.05,1.22.16.29.11.5.28.64.52.15.24.22.5.22.78,0,.37-.11.63-.33.8-.22.16-.55.25-.99.25h-3.79v1h3.39c.6,0,1.04.14,1.31.41.27.28.41.62.41,1.03,0,.23-.05.43-.16.6-.11.17-.25.28-.42.35-.18.07-.46.1-.85.1h-3.68v.99h4.01c.66,0,1.16-.16,1.48-.47.32-.32.48-.76.48-1.35,0-.75-.34-1.36-1.02-1.82.32-.12.57-.31.75-.59.18-.28.27-.64.27-1.07,0-.39-.08-.74-.26-1.05-.17-.31-.41-.55-.69-.74h.82v-.89h-5.84v1Z"/>
    <path d="M87.47,781.3h6.86l-6.86,2.35v.97l6.74,2.36h-6.74v1.04h8.06v-1.45l-5.61-1.94c-.57-.2-1-.34-1.29-.44.27-.08.66-.21,1.19-.39l5.71-1.92v-1.62h-8.06v1.04ZM87.47,793.32v1.04c.23-.12.46-.21.7-.25.24-.04.83-.06,1.74-.06h1.32c.44,0,.74-.02.91-.05.27-.06.49-.16.67-.31.18-.15.33-.38.44-.69s.18-.72.18-1.22-.07-.96-.2-1.34c-.14-.39-.34-.68-.59-.88-.25-.21-.59-.35-1-.44l-.13.98c.42.11.7.27.87.49.16.22.25.57.25,1.04,0,.5-.11.88-.34,1.14-.16.19-.45.28-.85.28-.03,0-.12,0-.26,0-.13-.38-.24-.98-.34-1.78-.05-.39-.1-.69-.15-.89-.08-.27-.18-.5-.33-.72-.14-.21-.33-.38-.57-.51-.24-.13-.5-.2-.78-.2-.49,0-.89.17-1.2.52-.32.35-.47.85-.47,1.49,0,.39.07.76.19,1.1.13.34.35.7.66,1.07-.27.03-.51.1-.72.2M90.03,793.04c-.44,0-.77-.06-.99-.16-.29-.14-.52-.36-.69-.66-.16-.3-.25-.64-.25-1.03s.09-.68.26-.88c.18-.2.39-.3.66-.3.17,0,.33.04.47.14.14.09.25.22.32.39.07.17.14.46.2.87.1.73.23,1.27.37,1.63h-.36ZM94.09,790.95c-.2.2-.29.43-.29.71s.09.5.29.7c.19.2.43.29.71.29s.52-.1.71-.29.29-.43.29-.7-.1-.5-.29-.7-.42-.3-.69-.3c-.29,0-.54.1-.73.3M95.23,791.25c.12.12.17.25.17.41s-.06.3-.17.42c-.12.11-.26.17-.42.17s-.31-.06-.43-.18c-.11-.12-.17-.25-.17-.41s.06-.3.17-.41c.12-.12.26-.18.44-.18.16,0,.3.06.42.18"/>
    <rect x="87.47" y="795.67" width="8.06" height="1"/>
    <path d="M95.56,804.91v-.64c-.35-.17-.71-.47-1.07-.89-.37-.42-.69-.9-.95-1.46h-.95c.11.31.28.66.51,1.05s.46.71.68.95h-6.31v1h8.09ZM93.31,808.12h-1.13v1.14h1.13v-1.14ZM88.59,808.12h-1.13v1.14h1.13v-1.14Z"/>
    <path d="M87.95,811.4c-.41.47-.61,1.07-.61,1.81,0,.9.32,1.61.98,2.14.53.43,1.16.64,1.89.64s1.39-.25,1.88-.73c.49-.49.73-1.09.73-1.8,0-.54-.17-1.05-.5-1.54l2.16.44v3.25h.94v-4.05l-4.14-.79-.12.94c.23.15.42.35.57.61.14.26.21.55.21.87,0,.52-.16.94-.49,1.26-.33.32-.77.48-1.33.48-.59,0-1.07-.17-1.43-.5-.36-.33-.54-.74-.54-1.22,0-.4.13-.74.38-1.03.25-.28.63-.46,1.14-.54l-.09-1.05c-.68.07-1.22.34-1.63.8M88.17,817.82c-.56.45-.83,1.06-.83,1.85,0,.6.16,1.09.47,1.48.32.39.77.68,1.35.88.58.2,1.34.3,2.29.3.8,0,1.43-.06,1.9-.18.47-.12.87-.29,1.2-.51.33-.21.58-.49.76-.82.18-.33.26-.71.26-1.15,0-.59-.16-1.08-.47-1.47-.31-.39-.76-.68-1.34-.88-.58-.2-1.35-.3-2.3-.3-1.51,0-2.6.27-3.27.81M94.16,818.56c.38.27.58.64.58,1.1s-.22.86-.66,1.17-1.32.47-2.64.47-2.2-.15-2.64-.47c-.44-.31-.66-.7-.66-1.16s.22-.84.66-1.16c.44-.31,1.32-.47,2.64-.47s2.23.17,2.72.51"/>
    <polygon class="st12" points="87.47 1168.25 110.08 1179.38 103.33 1193.9 80.38 1182.76 87.47 1168.25"/>
    <polygon points="90.22 1173.99 101.57 1179.48 86.53 1181.6 85.58 1183.57 100.02 1190.56 100.91 1188.72 89.57 1183.23 104.6 1181.11 105.55 1179.14 91.11 1172.15 90.22 1173.99"/>
    <path d="M87.96,1110.13c-.42.47-.63,1.06-.63,1.78,0,.79.25,1.44.74,1.96.49.52,1.08.77,1.79.77.52,0,.95-.13,1.3-.4.35-.27.58-.64.68-1.12.17.37.4.65.68.84.29.19.61.28.95.28.36,0,.71-.1,1.04-.3.32-.2.58-.49.77-.86.19-.37.28-.78.28-1.23,0-.64-.18-1.18-.55-1.62-.36-.43-.88-.71-1.54-.83l-.18,1c.48.07.85.24,1.09.5s.36.58.36.97-.12.71-.36.96c-.24.25-.54.37-.9.37-.46,0-.79-.17-1.02-.51-.22-.34-.33-.72-.33-1.15,0-.04,0-.09,0-.16l-.87-.11c.07.28.11.51.11.7,0,.47-.15.84-.44,1.15-.29.3-.67.45-1.13.45s-.87-.16-1.2-.48c-.32-.32-.48-.72-.48-1.19,0-.4.12-.73.37-1.01.25-.28.65-.47,1.21-.59l-.13-1c-.67.07-1.22.34-1.64.81M87.47,1116.66h3.03c.53,0,.94.05,1.22.16.29.1.5.28.64.52.15.24.22.5.22.78,0,.37-.11.63-.33.8-.22.16-.55.25-.99.25h-3.79v1h3.39c.6,0,1.04.14,1.31.41.27.28.41.62.41,1.03,0,.23-.05.43-.16.6-.11.17-.25.28-.42.35-.18.07-.46.1-.85.1h-3.68v.99h4.01c.66,0,1.16-.16,1.48-.47.32-.32.48-.76.48-1.35,0-.75-.34-1.36-1.02-1.82.32-.12.57-.31.75-.59.18-.28.27-.64.27-1.07,0-.39-.08-.74-.26-1.05-.17-.31-.41-.55-.69-.74h.82v-.89h-5.84v1Z"/>
    <rect class="st12" x="1151.02" y="440.54" width="18.9" height="102.27"/>
    <path d="M1166.47,446.82v-.95c-.52-.26-1.05-.7-1.61-1.32-.55-.62-1.02-1.34-1.41-2.17h-1.43c.17.46.42.98.77,1.56.34.58.68,1.04,1.02,1.4h-9.41v1.48h12.08ZM1156.07,451.52h-1.68v1.69h1.68v-1.69ZM1156.1,456.18c-.64.42-1.11,1-1.43,1.74-.32.74-.48,1.65-.48,2.74,0,.86.16,1.64.47,2.32.32.69.76,1.21,1.32,1.59.57.36,1.17.55,1.81.55s1.22-.17,1.71-.5.9-.85,1.22-1.56c.22-.48.48-1.37.77-2.67.29-1.3.58-2.1.86-2.41.28-.31.63-.47,1.06-.47.5,0,.92.22,1.28.66.35.44.53,1.15.53,2.11s-.19,1.63-.58,2.1c-.39.47-.96.75-1.72.84l.11,1.53c.71-.03,1.34-.22,1.89-.59.56-.37.98-.89,1.27-1.58.29-.68.43-1.47.43-2.37,0-.81-.14-1.55-.41-2.21-.27-.66-.67-1.17-1.2-1.51-.53-.35-1.1-.52-1.7-.52-.55,0-1.05.14-1.5.42s-.82.71-1.12,1.29c-.23.44-.48,1.22-.75,2.33-.27,1.11-.46,1.82-.59,2.15-.19.5-.43.87-.71,1.09-.28.22-.61.33-.99.33s-.72-.11-1.03-.34c-.32-.23-.56-.58-.74-1.04-.18-.47-.27-1.01-.27-1.61,0-.68.12-1.3.36-1.85.24-.55.55-.96.94-1.22.38-.26.88-.42,1.48-.5l-.13-1.51c-.8.02-1.52.24-2.16.66M1154.39,473.19v1.55c.33-.18.68-.31,1.05-.37.36-.06,1.23-.09,2.6-.09h1.97c.66,0,1.11-.03,1.37-.07.4-.09.74-.24,1-.46.27-.22.49-.56.66-1.03.18-.47.26-1.07.26-1.82s-.1-1.41-.31-1.99c-.21-.57-.5-1.01-.88-1.31-.38-.3-.88-.52-1.5-.65l-.2,1.45c.62.16,1.05.4,1.29.74.24.33.36.85.36,1.54,0,.75-.16,1.31-.5,1.69-.25.28-.67.42-1.27.42-.05,0-.18,0-.39,0-.19-.57-.36-1.45-.51-2.64-.07-.59-.15-1.03-.22-1.32-.11-.4-.27-.75-.48-1.07-.21-.32-.5-.57-.85-.76s-.74-.29-1.17-.29c-.73,0-1.32.26-1.79.77s-.7,1.25-.7,2.21c0,.58.1,1.13.29,1.63.19.51.52,1.04.99,1.59-.41.04-.77.14-1.08.3M1158.22,472.77c-.65,0-1.14-.08-1.48-.24-.44-.21-.77-.53-1.02-.98-.25-.44-.37-.95-.37-1.52s.13-1.02.39-1.31c.26-.3.59-.45.98-.45.26,0,.49.07.7.21.21.14.37.33.48.58.11.25.21.68.29,1.29.15,1.08.34,1.88.56,2.42h-.54ZM1166.42,476.62h-12.03v1.48h12.03v-1.48ZM1163.1,480.89h-1.68v1.69h1.68v-1.69ZM1156.07,480.89h-1.68v1.69h1.68v-1.69ZM1165.67,496.19c.53-.61.79-1.38.79-2.33,0-1.27-.46-2.29-1.38-3.04-1.05-.86-2.75-1.29-5.07-1.29-2.08,0-3.57.39-4.48,1.17-.91.78-1.36,1.78-1.36,3.02,0,.72.17,1.37.51,1.94.35.57.84,1.02,1.49,1.35.65.33,1.35.49,2.1.49,1.15,0,2.08-.35,2.81-1.04.72-.69,1.09-1.53,1.09-2.52,0-.57-.13-1.11-.4-1.62-.26-.51-.66-.95-1.2-1.31,1.2,0,2.13.15,2.78.42.65.27,1.15.63,1.48,1.1.26.35.4.77.4,1.24,0,.59-.21,1.08-.63,1.48-.26.24-.68.43-1.26.56l.11,1.47c.94-.12,1.67-.48,2.2-1.09M1160.17,491.94c.48.47.72,1.03.72,1.7s-.24,1.24-.72,1.68c-.48.44-1.13.67-1.97.67s-1.55-.22-2.05-.68c-.5-.45-.76-.99-.76-1.61,0-.43.12-.84.37-1.22.24-.39.59-.69,1.06-.91.47-.21.95-.33,1.46-.33.77,0,1.4.23,1.88.7M1156.07,499.89h-1.68v1.68h1.68v-1.68ZM1154.39,508.96c0,.77.07,1.42.2,1.94.14.53.33.97.6,1.32.26.35.64.64,1.12.88.48.24,1.01.36,1.57.36.7,0,1.31-.2,1.82-.59.51-.39.88-.95,1.09-1.68.28.57.64.99,1.1,1.27s.94.42,1.45.42c.55,0,1.08-.16,1.59-.48.51-.32.88-.75,1.13-1.31.24-.56.36-1.3.36-2.22v-4.52h-12.02v4.6ZM1165,505.95v2.41c0,.87-.06,1.48-.17,1.83-.11.36-.32.63-.62.82-.3.19-.66.29-1.05.29-.42,0-.77-.1-1.05-.31-.28-.21-.48-.51-.6-.92-.09-.31-.14-.81-.14-1.52v-2.61h3.64ZM1159.95,505.95v2.79c0,.77-.07,1.35-.2,1.76-.13.41-.37.73-.7.96-.33.23-.72.35-1.17.35-.38,0-.72-.08-1.02-.24s-.51-.36-.67-.61c-.16-.25-.26-.56-.33-.92-.04-.21-.06-.57-.06-1.08v-3h4.13ZM1156.07,515.98h-1.68v1.69h1.68v-1.69ZM1166.47,525.49v-.95c-.52-.26-1.05-.7-1.61-1.32-.55-.62-1.02-1.34-1.41-2.17h-1.43c.17.46.42.98.77,1.56.34.58.68,1.04,1.02,1.4h-9.41v1.48h12.08ZM1156.07,530.2h-1.68v1.69h1.68v-1.69ZM1159.84,534.71c-.53-.4-1.18-.6-1.96-.6-1.05,0-1.93.36-2.63,1.09-.7.73-1.05,1.69-1.05,2.88s.35,2.15,1.05,2.88c.7.73,1.57,1.09,2.59,1.09.75,0,1.38-.2,1.92-.58.54-.38.92-.95,1.17-1.69.22.6.54,1.04.96,1.34s.9.44,1.45.44c.88,0,1.62-.32,2.23-.96.61-.64.91-1.49.91-2.54s-.3-1.89-.89-2.52c-.6-.63-1.33-.95-2.21-.95-.58,0-1.08.15-1.5.45-.41.3-.74.75-.96,1.37-.19-.74-.55-1.3-1.08-1.7M1164.71,536.68c.36.37.54.84.54,1.41s-.19,1.03-.55,1.4c-.37.37-.83.56-1.37.56s-.96-.18-1.32-.55c-.36-.36-.54-.83-.54-1.4s.18-1.06.54-1.43c.36-.37.83-.55,1.39-.55.51,0,.94.19,1.3.56M1159.59,536.33c.46.46.69,1.04.69,1.73s-.23,1.31-.7,1.78c-.47.48-1.05.71-1.76.71s-1.28-.23-1.73-.69c-.45-.46-.68-1.04-.68-1.75,0-.46.11-.88.33-1.28.21-.4.52-.7.92-.9.39-.2.8-.3,1.22-.3.69,0,1.26.23,1.72.69"/>
    <rect class="st12" x="1126.72" y="440.54" width="18.9" height="102.27"/>
    <path d="M1131.51,443.1c.27.17.53.37.8.62.27.25.77.82,1.52,1.71.9,1.06,1.6,1.83,2.12,2.29.51.46,1,.78,1.47.98.47.2.94.29,1.42.29.94,0,1.74-.34,2.38-1.01.64-.68.96-1.59.96-2.75s-.3-2.06-.89-2.74-1.45-1.07-2.59-1.18l-.16,1.52c.76,0,1.35.22,1.77.65.43.43.64,1,.64,1.71,0,.67-.2,1.22-.6,1.64-.4.42-.9.63-1.48.63s-1.15-.23-1.78-.69c-.62-.46-1.47-1.34-2.55-2.66-.69-.84-1.3-1.49-1.82-1.94-.53-.45-1.06-.77-1.6-.97-.33-.13-.67-.19-1.03-.18v7.98h1.42v-5.92ZM1131.77,451.52h-1.68v1.69h1.68v-1.69ZM1131.79,456.18c-.64.42-1.11,1-1.43,1.74-.32.74-.48,1.65-.48,2.74,0,.86.16,1.64.47,2.32.32.69.76,1.21,1.32,1.59.57.36,1.17.55,1.81.55s1.22-.17,1.71-.5c.5-.34.9-.85,1.23-1.56.22-.48.48-1.37.77-2.67.29-1.3.58-2.1.86-2.41.28-.31.63-.47,1.06-.47.5,0,.92.22,1.28.66.35.44.53,1.15.53,2.11s-.19,1.63-.58,2.1c-.39.47-.96.75-1.72.84l.12,1.53c.71-.03,1.34-.22,1.89-.59.56-.37.98-.89,1.27-1.58.29-.68.43-1.47.43-2.37,0-.81-.14-1.55-.41-2.21-.27-.66-.67-1.17-1.2-1.51-.53-.35-1.09-.52-1.7-.52-.55,0-1.05.14-1.5.42s-.82.71-1.12,1.29c-.23.44-.48,1.22-.75,2.33-.27,1.11-.46,1.82-.59,2.15-.19.5-.43.87-.71,1.09-.28.22-.61.33-.99.33s-.72-.11-1.03-.34c-.32-.23-.56-.58-.74-1.04-.18-.47-.27-1.01-.27-1.61,0-.68.12-1.3.36-1.85.24-.55.55-.96.93-1.22.39-.26.88-.42,1.48-.5l-.13-1.51c-.8.02-1.52.24-2.16.66M1130.09,473.19v1.55c.33-.18.68-.31,1.05-.37.36-.06,1.23-.09,2.6-.09h1.97c.66,0,1.11-.03,1.36-.07.41-.09.74-.24,1-.46.27-.22.48-.56.66-1.03.17-.47.26-1.07.26-1.82s-.1-1.41-.31-1.99c-.21-.57-.5-1.01-.88-1.31-.38-.3-.88-.52-1.5-.65l-.2,1.45c.62.16,1.05.4,1.29.74.24.33.36.85.36,1.54,0,.75-.17,1.31-.5,1.69-.25.28-.67.42-1.27.42-.05,0-.18,0-.39,0-.19-.57-.36-1.45-.51-2.64-.07-.59-.15-1.03-.22-1.32-.11-.4-.27-.75-.49-1.07-.21-.32-.5-.57-.85-.76s-.74-.29-1.17-.29c-.73,0-1.32.26-1.79.77s-.7,1.25-.7,2.21c0,.58.1,1.13.29,1.63.19.51.52,1.04.99,1.59-.41.04-.77.14-1.08.3M1133.92,472.77c-.65,0-1.14-.08-1.48-.24-.43-.21-.77-.53-1.02-.98-.25-.44-.37-.95-.37-1.52s.13-1.02.39-1.31c.26-.3.59-.45.98-.45.26,0,.49.07.7.21.21.14.37.33.48.58.11.25.21.68.29,1.29.15,1.08.34,1.88.56,2.42h-.54ZM1142.12,476.62h-12.02v1.48h12.02v-1.48ZM1138.8,480.89h-1.68v1.69h1.68v-1.69ZM1131.77,480.89h-1.68v1.69h1.68v-1.69ZM1141.37,496.19c.53-.61.79-1.38.79-2.33,0-1.27-.46-2.29-1.38-3.04-1.05-.86-2.75-1.29-5.07-1.29-2.08,0-3.57.39-4.48,1.17-.9.78-1.36,1.78-1.36,3.02,0,.72.17,1.37.51,1.94.35.57.84,1.02,1.49,1.35.65.33,1.35.49,2.1.49,1.15,0,2.08-.35,2.81-1.04.72-.69,1.09-1.53,1.09-2.52,0-.57-.13-1.11-.4-1.62-.26-.51-.66-.95-1.21-1.31,1.2,0,2.13.15,2.78.42.65.27,1.15.63,1.48,1.1.26.35.4.77.4,1.24,0,.59-.21,1.08-.63,1.48-.26.24-.68.43-1.27.56l.12,1.47c.94-.12,1.67-.48,2.2-1.09M1135.87,491.94c.48.47.72,1.03.72,1.7s-.24,1.24-.72,1.68c-.48.44-1.13.67-1.97.67s-1.55-.22-2.05-.68c-.51-.45-.76-.99-.76-1.61,0-.43.12-.84.37-1.22.24-.39.59-.69,1.06-.91.47-.21.95-.33,1.46-.33.78,0,1.41.23,1.88.7M1131.77,499.89h-1.68v1.68h1.68v-1.68ZM1130.09,508.96c0,.77.07,1.42.2,1.94.14.53.33.97.6,1.32.26.35.63.64,1.12.88.48.24,1.01.36,1.57.36.7,0,1.31-.2,1.82-.59.51-.39.88-.95,1.09-1.68.28.57.64.99,1.1,1.27s.94.42,1.45.42c.55,0,1.08-.16,1.59-.48.51-.32.88-.75,1.13-1.31.24-.56.36-1.3.36-2.22v-4.52h-12.02v4.6ZM1140.7,505.95v2.41c0,.87-.06,1.48-.17,1.83-.11.36-.32.63-.62.82-.3.19-.66.29-1.05.29-.42,0-.77-.1-1.05-.31-.28-.21-.48-.51-.6-.92-.09-.31-.14-.81-.14-1.52v-2.61h3.64ZM1135.65,505.95v2.79c0,.77-.07,1.35-.2,1.76-.13.41-.37.73-.7.96-.33.23-.72.35-1.17.35-.38,0-.72-.08-1.02-.24s-.51-.36-.67-.61c-.16-.25-.26-.56-.33-.92-.04-.21-.06-.57-.06-1.08v-3h4.14ZM1131.77,515.98h-1.68v1.69h1.68v-1.69ZM1131.51,521.78c.27.17.53.37.8.62.27.25.77.82,1.52,1.71.9,1.06,1.6,1.83,2.12,2.28.51.46,1,.78,1.47.99.47.2.94.29,1.42.29.94,0,1.74-.34,2.38-1.01.64-.67.96-1.59.96-2.75s-.3-2.06-.89-2.74-1.45-1.07-2.59-1.18l-.16,1.52c.76,0,1.35.22,1.77.65.43.43.64,1,.64,1.71,0,.68-.2,1.22-.6,1.64-.4.42-.9.63-1.48.63s-1.15-.23-1.78-.69c-.62-.46-1.47-1.34-2.55-2.66-.69-.84-1.3-1.49-1.82-1.94-.53-.45-1.06-.77-1.6-.98-.33-.12-.67-.18-1.03-.17v7.98h1.42v-5.92ZM1131.77,530.2h-1.68v1.69h1.68v-1.69ZM1135.53,534.71c-.53-.4-1.18-.6-1.96-.6-1.05,0-1.93.36-2.63,1.09-.7.73-1.05,1.69-1.05,2.88s.35,2.15,1.05,2.88c.7.73,1.57,1.09,2.59,1.09.74,0,1.39-.2,1.92-.58.54-.38.92-.95,1.17-1.69.22.6.54,1.04.96,1.34s.9.44,1.45.44c.88,0,1.62-.32,2.23-.96.61-.64.91-1.49.91-2.54s-.3-1.89-.89-2.52c-.6-.63-1.33-.95-2.21-.95-.58,0-1.08.15-1.5.45-.41.3-.74.75-.96,1.37-.19-.74-.55-1.3-1.08-1.7M1140.41,536.68c.36.37.54.84.54,1.41s-.19,1.03-.55,1.4c-.37.37-.83.56-1.37.56s-.96-.18-1.32-.55c-.36-.36-.54-.83-.54-1.4s.18-1.06.54-1.43c.36-.37.83-.55,1.39-.55.51,0,.94.19,1.3.56M1135.28,536.33c.46.46.69,1.04.69,1.73s-.23,1.31-.7,1.78c-.47.48-1.05.71-1.76.71s-1.28-.23-1.73-.69c-.45-.46-.68-1.04-.68-1.75,0-.46.11-.88.33-1.28.21-.4.52-.7.92-.9.39-.2.8-.3,1.22-.3.69,0,1.26.23,1.72.69"/>
    <rect class="st12" x="1103.09" y="440.54" width="18.9" height="102.27"/>
    <path d="M1107.2,442.44c-.63.7-.94,1.58-.94,2.64,0,1.18.36,2.15,1.09,2.91.73.77,1.62,1.15,2.67,1.15.77,0,1.42-.2,1.94-.59.51-.4.85-.95,1.02-1.66.25.55.59.96,1.02,1.24.43.28.9.42,1.42.42s1.06-.15,1.55-.44c.49-.29.87-.72,1.15-1.27.28-.55.42-1.16.42-1.82,0-.95-.27-1.75-.82-2.4-.54-.64-1.31-1.05-2.3-1.23l-.26,1.48c.72.11,1.26.36,1.63.74.36.38.54.86.54,1.44s-.18,1.06-.53,1.43c-.36.36-.8.55-1.35.55-.68,0-1.19-.25-1.52-.76-.33-.5-.49-1.07-.49-1.7,0-.06,0-.14.02-.24l-1.3-.17c.11.42.16.77.16,1.05,0,.68-.22,1.25-.66,1.69-.44.44-1,.66-1.68.66-.71,0-1.31-.24-1.79-.72-.48-.48-.72-1.07-.72-1.76,0-.59.19-1.08.55-1.49.37-.41.98-.7,1.81-.87l-.2-1.48c-1,.1-1.82.5-2.44,1.2M1108.15,451.52h-1.68v1.69h1.68v-1.69ZM1108.17,456.18c-.64.42-1.11,1-1.43,1.74-.32.74-.48,1.65-.48,2.74,0,.86.16,1.64.47,2.32.32.69.76,1.21,1.32,1.59.57.36,1.17.55,1.81.55s1.22-.17,1.71-.5c.5-.34.9-.85,1.23-1.56.22-.48.48-1.37.77-2.67.29-1.3.58-2.1.86-2.41.28-.31.63-.47,1.06-.47.5,0,.92.22,1.28.66.35.44.53,1.15.53,2.11s-.19,1.63-.58,2.1c-.39.47-.96.75-1.72.84l.12,1.53c.7-.03,1.34-.22,1.89-.59.56-.37.98-.89,1.27-1.58s.43-1.47.43-2.37c0-.81-.14-1.55-.41-2.21s-.67-1.17-1.2-1.51c-.53-.35-1.09-.52-1.7-.52-.55,0-1.05.14-1.5.42s-.82.71-1.12,1.29c-.23.44-.48,1.22-.75,2.33-.26,1.11-.46,1.82-.59,2.15-.19.5-.43.87-.71,1.09-.28.22-.61.33-.99.33s-.72-.11-1.03-.34c-.32-.23-.56-.58-.74-1.04-.18-.47-.27-1.01-.27-1.61,0-.68.12-1.3.36-1.85.24-.55.55-.96.93-1.22.39-.26.88-.42,1.48-.5l-.13-1.51c-.8.02-1.52.24-2.16.66M1106.46,473.19v1.55c.34-.18.68-.31,1.05-.37.36-.06,1.23-.09,2.6-.09h1.97c.66,0,1.11-.03,1.36-.07.4-.09.74-.24,1-.46.27-.22.48-.56.66-1.03.17-.47.26-1.07.26-1.82s-.1-1.41-.31-1.99c-.2-.57-.5-1.01-.88-1.31-.38-.3-.88-.52-1.5-.65l-.2,1.45c.62.16,1.05.4,1.29.74.24.33.36.85.36,1.54,0,.75-.17,1.31-.5,1.69-.25.28-.67.42-1.27.42-.05,0-.18,0-.39,0-.19-.57-.36-1.45-.51-2.64-.07-.59-.15-1.03-.22-1.32-.11-.4-.27-.75-.49-1.07-.21-.32-.49-.57-.85-.76s-.74-.29-1.17-.29c-.73,0-1.32.26-1.79.77-.47.51-.7,1.25-.7,2.21,0,.58.1,1.13.29,1.63.19.51.52,1.04.98,1.59-.41.04-.77.14-1.07.3M1110.3,472.77c-.65,0-1.14-.08-1.48-.24-.43-.21-.77-.53-1.02-.98-.25-.44-.37-.95-.37-1.52s.13-1.02.39-1.31c.26-.3.59-.45.98-.45.26,0,.49.07.7.21.21.14.37.33.48.58.11.25.21.68.29,1.29.15,1.08.34,1.88.56,2.42h-.54ZM1118.49,476.62h-12.03v1.48h12.03v-1.48ZM1115.18,480.89h-1.68v1.69h1.68v-1.69ZM1108.15,480.89h-1.68v1.69h1.68v-1.69ZM1117.75,496.19c.53-.61.79-1.38.79-2.33,0-1.27-.46-2.29-1.38-3.04-1.06-.86-2.75-1.29-5.07-1.29-2.08,0-3.57.39-4.48,1.17-.9.78-1.36,1.78-1.36,3.02,0,.72.17,1.37.51,1.94.35.57.84,1.02,1.49,1.35.65.33,1.35.49,2.1.49,1.15,0,2.08-.35,2.81-1.04.72-.69,1.09-1.53,1.09-2.52,0-.57-.13-1.11-.39-1.62-.26-.51-.66-.95-1.21-1.31,1.2,0,2.13.15,2.78.42.65.27,1.15.63,1.48,1.1.26.35.39.77.39,1.24,0,.59-.21,1.08-.63,1.48-.26.24-.68.43-1.27.56l.12,1.47c.94-.12,1.67-.48,2.2-1.09M1112.25,491.94c.48.47.72,1.03.72,1.7s-.24,1.24-.72,1.68c-.48.44-1.13.67-1.97.67s-1.55-.22-2.05-.68c-.51-.45-.76-.99-.76-1.61,0-.43.12-.84.36-1.22.25-.39.6-.69,1.06-.91.47-.21.95-.33,1.46-.33.78,0,1.41.23,1.88.7M1108.15,499.89h-1.68v1.68h1.68v-1.68ZM1106.46,508.96c0,.77.07,1.42.2,1.94.13.53.33.97.6,1.32.26.35.63.64,1.12.88.48.24,1.01.36,1.57.36.7,0,1.31-.2,1.82-.59.51-.39.88-.95,1.09-1.68.28.57.64.99,1.1,1.27s.94.42,1.45.42c.55,0,1.08-.16,1.59-.48.51-.32.88-.75,1.12-1.31.25-.56.36-1.3.36-2.22v-4.52h-12.03v4.6ZM1117.07,505.95v2.41c0,.87-.06,1.48-.17,1.83-.11.36-.32.63-.62.82s-.66.29-1.05.29c-.42,0-.77-.1-1.05-.31-.28-.21-.48-.51-.6-.92-.09-.31-.14-.81-.14-1.52v-2.61h3.64ZM1112.02,505.95v2.79c0,.77-.07,1.35-.2,1.76-.14.41-.37.73-.7.96-.33.23-.72.35-1.17.35-.38,0-.72-.08-1.02-.24s-.51-.36-.67-.61c-.16-.25-.26-.56-.33-.92-.04-.21-.06-.57-.06-1.08v-3h4.13ZM1108.15,515.98h-1.68v1.69h1.68v-1.69ZM1107.2,521.12c-.63.7-.94,1.58-.94,2.64,0,1.18.36,2.15,1.09,2.91.73.77,1.62,1.15,2.67,1.15.77,0,1.42-.2,1.94-.59.51-.39.85-.95,1.02-1.66.25.55.59.96,1.02,1.24.43.28.9.42,1.42.42s1.06-.15,1.55-.44.87-.72,1.15-1.27c.28-.56.42-1.16.42-1.82,0-.95-.27-1.75-.82-2.4-.54-.64-1.31-1.05-2.3-1.23l-.26,1.48c.72.11,1.26.36,1.63.74.36.38.54.86.54,1.44s-.18,1.05-.53,1.43c-.36.36-.8.55-1.35.55-.68,0-1.19-.25-1.52-.76-.33-.5-.49-1.07-.49-1.7,0-.06,0-.14.02-.24l-1.3-.17c.11.42.16.76.16,1.04,0,.69-.22,1.25-.66,1.7-.44.44-1,.66-1.68.66-.71,0-1.31-.24-1.79-.72-.48-.48-.72-1.07-.72-1.76,0-.59.19-1.08.55-1.49.37-.41.98-.7,1.81-.87l-.2-1.48c-1,.1-1.82.5-2.44,1.2M1108.15,530.2h-1.68v1.69h1.68v-1.69ZM1111.91,534.71c-.53-.4-1.18-.6-1.96-.6-1.05,0-1.93.36-2.63,1.09-.7.73-1.05,1.69-1.05,2.88s.35,2.15,1.05,2.88c.7.73,1.57,1.09,2.59,1.09.74,0,1.39-.2,1.92-.58.54-.38.92-.95,1.17-1.69.22.6.54,1.04.96,1.34s.9.44,1.45.44c.88,0,1.62-.32,2.23-.96.61-.64.91-1.49.91-2.54s-.3-1.89-.89-2.52c-.6-.63-1.33-.95-2.21-.95-.58,0-1.08.15-1.5.45-.41.3-.74.75-.96,1.37-.19-.74-.55-1.3-1.08-1.7M1116.79,536.68c.36.37.54.84.54,1.41s-.19,1.03-.55,1.4c-.37.37-.83.56-1.37.56s-.96-.18-1.32-.55c-.36-.36-.54-.83-.54-1.4s.18-1.06.54-1.43c.36-.37.83-.55,1.39-.55.51,0,.94.19,1.3.56M1111.66,536.33c.46.46.69,1.04.69,1.73s-.23,1.31-.7,1.78c-.47.48-1.05.71-1.76.71s-1.28-.23-1.73-.69c-.46-.46-.68-1.04-.68-1.75,0-.46.11-.88.33-1.28.21-.4.52-.7.92-.9.39-.2.8-.3,1.22-.3.69,0,1.26.23,1.72.69"/>
    <rect class="st12" x="1079.8" y="440.54" width="18.9" height="102.27"/>
    <path d="M1083.18,447.46h2.88v1.63h1.35v-1.63h7.79v-1.21l-7.79-5.5h-1.35v5.23h-2.88v1.48ZM1087.41,442.21l5.42,3.78h-5.42v-3.78ZM1084.86,451.52h-1.68v1.69h1.68v-1.69ZM1084.88,456.18c-.64.42-1.11,1-1.43,1.74-.32.74-.48,1.65-.48,2.74,0,.86.16,1.64.47,2.32.32.69.76,1.21,1.32,1.59.57.36,1.17.55,1.81.55s1.22-.17,1.71-.5.9-.85,1.22-1.56c.22-.48.48-1.37.77-2.67.29-1.3.58-2.1.86-2.41.28-.31.63-.47,1.06-.47.5,0,.92.22,1.28.66.35.44.53,1.15.53,2.11s-.2,1.63-.59,2.1c-.39.47-.96.75-1.72.84l.12,1.53c.71-.03,1.34-.22,1.89-.59.56-.37.98-.89,1.27-1.58.29-.68.43-1.47.43-2.37,0-.81-.14-1.55-.41-2.21-.27-.66-.67-1.17-1.2-1.51-.53-.35-1.1-.52-1.7-.52-.55,0-1.05.14-1.5.42s-.82.71-1.12,1.29c-.23.44-.48,1.22-.75,2.33-.27,1.11-.46,1.82-.59,2.15-.19.5-.43.87-.71,1.09-.28.22-.61.33-.99.33s-.72-.11-1.03-.34c-.31-.23-.56-.58-.74-1.04-.18-.47-.27-1.01-.27-1.61,0-.68.12-1.3.36-1.85.24-.55.55-.96.94-1.22.38-.26.88-.42,1.48-.5l-.13-1.51c-.8.02-1.52.24-2.16.66M1083.18,473.19v1.55c.33-.18.68-.31,1.05-.37.36-.06,1.23-.09,2.6-.09h1.97c.65,0,1.11-.03,1.36-.07.4-.09.74-.24,1-.46.27-.22.49-.56.66-1.03.17-.47.26-1.07.26-1.82s-.1-1.41-.31-1.99c-.21-.57-.5-1.01-.88-1.31-.38-.3-.88-.52-1.5-.65l-.2,1.45c.62.16,1.05.4,1.29.74.24.33.36.85.36,1.54,0,.75-.16,1.31-.5,1.69-.25.28-.67.42-1.27.42-.05,0-.18,0-.39,0-.19-.57-.36-1.45-.51-2.64-.07-.59-.15-1.03-.22-1.32-.11-.4-.27-.75-.48-1.07-.21-.32-.5-.57-.85-.76s-.74-.29-1.17-.29c-.73,0-1.32.26-1.79.77s-.7,1.25-.7,2.21c0,.58.1,1.13.29,1.63.19.51.52,1.04.99,1.59-.41.04-.77.14-1.08.3M1087.01,472.77c-.65,0-1.14-.08-1.48-.24-.43-.21-.77-.53-1.02-.98-.25-.44-.37-.95-.37-1.52s.13-1.02.39-1.31c.26-.3.59-.45.98-.45.26,0,.49.07.7.21.21.14.37.33.48.58.11.25.21.68.29,1.29.15,1.08.34,1.88.56,2.42h-.54ZM1095.2,476.62h-12.03v1.48h12.03v-1.48ZM1091.89,480.89h-1.68v1.69h1.68v-1.69ZM1084.86,480.89h-1.68v1.69h1.68v-1.69ZM1094.46,496.19c.53-.61.79-1.38.79-2.33,0-1.27-.46-2.29-1.38-3.04-1.05-.86-2.75-1.29-5.07-1.29-2.08,0-3.57.39-4.48,1.17-.91.78-1.36,1.78-1.36,3.02,0,.72.17,1.37.51,1.94.35.57.84,1.02,1.49,1.35.65.33,1.35.49,2.1.49,1.15,0,2.08-.35,2.81-1.04.72-.69,1.09-1.53,1.09-2.52,0-.57-.13-1.11-.4-1.62-.26-.51-.66-.95-1.2-1.31,1.2,0,2.13.15,2.78.42.65.27,1.15.63,1.48,1.1.26.35.4.77.4,1.24,0,.59-.21,1.08-.63,1.48-.26.24-.68.43-1.26.56l.11,1.47c.94-.12,1.67-.48,2.2-1.09M1088.96,491.94c.48.47.72,1.03.72,1.7s-.24,1.24-.72,1.68c-.48.44-1.13.67-1.97.67s-1.55-.22-2.05-.68c-.5-.45-.76-.99-.76-1.61,0-.43.12-.84.37-1.22.24-.39.59-.69,1.06-.91.47-.21.95-.33,1.46-.33.77,0,1.4.23,1.88.7M1084.86,499.89h-1.68v1.68h1.68v-1.68ZM1083.18,508.96c0,.77.07,1.42.2,1.94.13.53.33.97.59,1.32.26.35.64.64,1.12.88.48.24,1.01.36,1.57.36.7,0,1.31-.2,1.82-.59.51-.39.88-.95,1.09-1.68.28.57.64.99,1.1,1.27s.94.42,1.45.42c.55,0,1.08-.16,1.59-.48.51-.32.88-.75,1.13-1.31.24-.56.36-1.3.36-2.22v-4.52h-12.02v4.6ZM1093.78,505.95v2.41c0,.87-.06,1.48-.17,1.83-.11.36-.32.63-.62.82-.3.19-.66.29-1.05.29-.42,0-.77-.1-1.05-.31-.28-.21-.48-.51-.6-.92-.09-.31-.14-.81-.14-1.52v-2.61h3.64ZM1088.73,505.95v2.79c0,.77-.07,1.35-.2,1.76-.13.41-.36.73-.7.96-.33.23-.72.35-1.17.35-.38,0-.72-.08-1.02-.24s-.51-.36-.67-.61c-.16-.25-.26-.56-.33-.92-.03-.21-.05-.57-.05-1.08v-3h4.13ZM1084.86,515.98h-1.68v1.69h1.68v-1.69ZM1083.18,526.14h2.88v1.63h1.35v-1.63h7.79v-1.21l-7.79-5.5h-1.35v5.23h-2.88v1.48ZM1087.41,520.88l5.42,3.78h-5.42v-3.78ZM1084.86,530.2h-1.68v1.69h1.68v-1.69ZM1088.62,534.71c-.53-.4-1.18-.6-1.96-.6-1.05,0-1.93.36-2.63,1.09-.7.73-1.05,1.69-1.05,2.88s.35,2.15,1.05,2.88c.7.73,1.57,1.09,2.59,1.09.74,0,1.38-.2,1.92-.58.54-.38.92-.95,1.17-1.69.22.6.54,1.04.96,1.34s.9.44,1.45.44c.88,0,1.62-.32,2.23-.96.61-.64.91-1.49.91-2.54s-.3-1.89-.89-2.52c-.6-.63-1.33-.95-2.21-.95-.58,0-1.08.15-1.5.45-.41.3-.74.75-.96,1.37-.19-.74-.55-1.3-1.08-1.7M1093.5,536.68c.36.37.54.84.54,1.41s-.19,1.03-.55,1.4c-.37.37-.83.56-1.37.56s-.96-.18-1.32-.55c-.36-.36-.54-.83-.54-1.4s.18-1.06.54-1.43c.36-.37.83-.55,1.39-.55.51,0,.94.19,1.3.56M1088.37,536.33c.46.46.69,1.04.69,1.73s-.23,1.31-.7,1.78c-.47.48-1.05.71-1.76.71s-1.28-.23-1.73-.69c-.45-.46-.68-1.04-.68-1.75,0-.46.11-.88.33-1.28.21-.4.52-.7.92-.9.39-.2.8-.3,1.22-.3.69,0,1.26.23,1.72.69"/>
    <rect class="st12" x="1056.85" y="440.54" width="18.9" height="102.27"/>
    <path d="M1060.94,442.42c-.61.7-.92,1.59-.92,2.69,0,1.34.49,2.39,1.46,3.17.79.64,1.74.95,2.82.95,1.14,0,2.08-.36,2.81-1.08.73-.73,1.09-1.61,1.09-2.67,0-.79-.25-1.55-.76-2.28l3.23.65v4.81h1.41v-6l-6.18-1.17-.18,1.39c.35.22.62.52.84.9.21.38.33.81.33,1.29,0,.77-.25,1.39-.73,1.87-.49.48-1.15.71-2,.71-.89,0-1.6-.25-2.13-.74-.53-.49-.81-1.1-.81-1.81,0-.59.19-1.1.57-1.52.38-.42.94-.69,1.7-.8l-.13-1.56c-1.01.1-1.82.49-2.44,1.19M1061.9,451.52h-1.68v1.69h1.68v-1.69ZM1061.93,456.18c-.64.42-1.11,1-1.43,1.74-.32.74-.48,1.65-.48,2.74,0,.86.16,1.64.47,2.32.32.69.76,1.21,1.32,1.59.57.36,1.17.55,1.81.55s1.22-.17,1.71-.5.9-.85,1.22-1.56c.22-.48.48-1.37.77-2.67.29-1.3.58-2.1.86-2.41.28-.31.63-.47,1.06-.47.5,0,.92.22,1.28.66.35.44.53,1.15.53,2.11s-.19,1.63-.58,2.1c-.39.47-.96.75-1.72.84l.12,1.53c.71-.03,1.34-.22,1.89-.59.56-.37.98-.89,1.27-1.58.29-.68.43-1.47.43-2.37,0-.81-.14-1.55-.41-2.21-.27-.66-.67-1.17-1.2-1.51-.53-.35-1.1-.52-1.7-.52-.55,0-1.05.14-1.5.42s-.82.71-1.12,1.29c-.23.44-.48,1.22-.75,2.33-.27,1.11-.46,1.82-.59,2.15-.19.5-.43.87-.71,1.09-.28.22-.61.33-.99.33s-.72-.11-1.03-.34c-.32-.23-.56-.58-.74-1.04-.18-.47-.27-1.01-.27-1.61,0-.68.12-1.3.36-1.85.24-.55.55-.96.94-1.22.38-.26.88-.42,1.48-.5l-.13-1.51c-.8.02-1.52.24-2.16.66M1060.22,473.19v1.55c.33-.18.68-.31,1.05-.37.36-.06,1.23-.09,2.6-.09h1.97c.66,0,1.11-.03,1.36-.07.41-.09.74-.24,1-.46.27-.22.49-.56.66-1.03.17-.47.26-1.07.26-1.82s-.1-1.41-.31-1.99c-.21-.57-.5-1.01-.88-1.31-.38-.3-.88-.52-1.5-.65l-.2,1.45c.62.16,1.05.4,1.29.74.24.33.36.85.36,1.54,0,.75-.16,1.31-.5,1.69-.25.28-.67.42-1.27.42-.05,0-.18,0-.39,0-.19-.57-.36-1.45-.51-2.64-.07-.59-.15-1.03-.22-1.32-.11-.4-.27-.75-.49-1.07-.21-.32-.5-.57-.85-.76s-.74-.29-1.17-.29c-.73,0-1.32.26-1.79.77s-.7,1.25-.7,2.21c0,.58.1,1.13.29,1.63.19.51.52,1.04.99,1.59-.41.04-.77.14-1.08.3M1064.05,472.77c-.65,0-1.14-.08-1.48-.24-.43-.21-.77-.53-1.02-.98-.25-.44-.37-.95-.37-1.52s.13-1.02.39-1.31c.26-.3.59-.45.98-.45.26,0,.49.07.7.21.21.14.37.33.48.58.11.25.21.68.29,1.29.15,1.08.34,1.88.56,2.42h-.54ZM1072.25,476.62h-12.03v1.48h12.03v-1.48ZM1068.93,480.89h-1.68v1.69h1.68v-1.69ZM1061.9,480.89h-1.68v1.69h1.68v-1.69ZM1071.5,496.19c.53-.61.79-1.38.79-2.33,0-1.27-.46-2.29-1.38-3.04-1.05-.86-2.75-1.29-5.07-1.29-2.08,0-3.57.39-4.48,1.17-.9.78-1.36,1.78-1.36,3.02,0,.72.17,1.37.51,1.94.35.57.84,1.02,1.49,1.35.65.33,1.35.49,2.1.49,1.15,0,2.08-.35,2.81-1.04.72-.69,1.09-1.53,1.09-2.52,0-.57-.13-1.11-.4-1.62-.26-.51-.66-.95-1.2-1.31,1.2,0,2.13.15,2.78.42.65.27,1.15.63,1.48,1.1.26.35.4.77.4,1.24,0,.59-.21,1.08-.63,1.48-.26.24-.68.43-1.26.56l.11,1.47c.94-.12,1.67-.48,2.2-1.09M1066,491.94c.48.47.72,1.03.72,1.7s-.24,1.24-.72,1.68c-.48.44-1.13.67-1.97.67s-1.55-.22-2.05-.68c-.51-.45-.76-.99-.76-1.61,0-.43.12-.84.37-1.22.24-.39.59-.69,1.06-.91.47-.21.95-.33,1.46-.33.78,0,1.41.23,1.88.7M1061.9,499.89h-1.68v1.68h1.68v-1.68ZM1060.22,508.96c0,.77.07,1.42.2,1.94.13.53.33.97.59,1.32.26.35.64.64,1.12.88.48.24,1.01.36,1.57.36.7,0,1.31-.2,1.82-.59.51-.39.88-.95,1.09-1.68.28.57.64.99,1.1,1.27s.94.42,1.45.42c.55,0,1.08-.16,1.59-.48.51-.32.88-.75,1.13-1.31.24-.56.36-1.3.36-2.22v-4.52h-12.02v4.6ZM1070.83,505.95v2.41c0,.87-.06,1.48-.17,1.83-.11.36-.32.63-.62.82-.3.19-.66.29-1.05.29-.42,0-.77-.1-1.05-.31-.28-.21-.48-.51-.6-.92-.09-.31-.14-.81-.14-1.52v-2.61h3.64ZM1065.78,505.95v2.79c0,.77-.07,1.35-.2,1.76-.13.41-.37.73-.7.96-.33.23-.72.35-1.17.35-.38,0-.72-.08-1.02-.24s-.51-.36-.67-.61c-.16-.25-.26-.56-.33-.92-.04-.21-.05-.57-.05-1.08v-3h4.13ZM1061.9,515.98h-1.68v1.69h1.68v-1.69ZM1060.94,521.1c-.61.7-.92,1.59-.92,2.69,0,1.34.49,2.39,1.46,3.17.79.64,1.74.95,2.82.95,1.14,0,2.08-.36,2.81-1.08.73-.73,1.09-1.61,1.09-2.67,0-.79-.25-1.55-.76-2.28l3.23.65v4.81h1.41v-6l-6.18-1.17-.18,1.39c.35.22.62.52.84.9.21.38.33.82.33,1.29,0,.77-.25,1.39-.73,1.87-.49.48-1.15.71-2,.71-.89,0-1.6-.24-2.13-.74-.53-.49-.81-1.1-.81-1.81,0-.59.19-1.1.57-1.52.38-.42.94-.69,1.7-.8l-.13-1.56c-1.01.1-1.82.49-2.44,1.19M1061.9,530.2h-1.68v1.69h1.68v-1.69ZM1065.67,534.71c-.53-.4-1.18-.6-1.96-.6-1.05,0-1.93.36-2.63,1.09-.7.73-1.05,1.69-1.05,2.88s.35,2.15,1.05,2.88c.7.73,1.57,1.09,2.59,1.09.75,0,1.38-.2,1.92-.58.54-.38.92-.95,1.17-1.69.22.6.54,1.04.96,1.34s.9.44,1.45.44c.88,0,1.62-.32,2.23-.96.61-.64.91-1.49.91-2.54s-.3-1.89-.89-2.52c-.6-.63-1.33-.95-2.21-.95-.58,0-1.08.15-1.5.45-.41.3-.74.75-.96,1.37-.19-.74-.55-1.3-1.08-1.7M1070.54,536.68c.36.37.54.84.54,1.41s-.19,1.03-.55,1.4c-.37.37-.83.56-1.37.56s-.96-.18-1.32-.55c-.36-.36-.54-.83-.54-1.4s.18-1.06.54-1.43c.36-.37.83-.55,1.39-.55.51,0,.94.19,1.3.56M1065.42,536.33c.46.46.69,1.04.69,1.73s-.23,1.31-.7,1.78c-.47.48-1.05.71-1.76.71s-1.28-.23-1.73-.69c-.45-.46-.68-1.04-.68-1.75,0-.46.11-.88.33-1.28.21-.4.52-.7.92-.9.39-.2.8-.3,1.22-.3.69,0,1.26.23,1.72.69"/>
    <line class="st3" x1="640.68" y1="944.13" x2="640.68" y2="996.11"/>
    <line class="st3" x1="760.16" y1="944.13" x2="640.68" y2="996.11"/>
  </g>
</svg>