<?xml version="1.0" encoding="UTF-8"?>
<svg id="Layer_1" xmlns="http://www.w3.org/2000/svg" xmlns:xlink="http://www.w3.org/1999/xlink" version="1.1" viewBox="0 0 1200 1697.14">
  <!-- Generator: Adobe Illustrator 29.6.0, SVG Export Plug-In . SVG Version: 2.1.1 Build 207)  -->
  <defs>
    <style>
      .st0, .st1, .st2, .st3 {
        fill: none;
      }

      .st1 {
        stroke: #0d0e1c;
      }

      .st1, .st2, .st3 {
        stroke-linecap: round;
        stroke-linejoin: round;
      }

      .st1, .st3 {
        stroke-width: .08px;
      }

      .st2 {
        stroke-width: .14px;
      }

      .st2, .st3 {
        stroke: #000;
      }

      .st4 {
        clip-path: url(#clippath-1);
      }

      .st5 {
        clip-path: url(#clippath-3);
      }

      .st6 {
        clip-path: url(#clippath-4);
      }

      .st7 {
        clip-path: url(#clippath-2);
      }

      .st8 {
        clip-path: url(#clippath-7);
      }

      .st9 {
        clip-path: url(#clippath-6);
      }

      .st10 {
        clip-path: url(#clippath-9);
      }

      .st11 {
        clip-path: url(#clippath-8);
      }

      .st12 {
        clip-path: url(#clippath-5);
      }

      .st13 {
        fill: #fff;
      }

      .st14 {
        fill: #ece9e5;
      }

      .st15 {
        fill: #302c35;
      }

      .st16 {
        clip-path: url(#clippath);
      }
    </style>
    <clipPath id="clippath">
      <rect class="st0" x="327.24" y="441.48" width="567.52" height="814.19"/>
    </clipPath>
    <clipPath id="clippath-1">
      <rect class="st0" x="430.61" y="772.09" width="72.58" height="159.65"/>
    </clipPath>
    <clipPath id="clippath-2">
      <rect class="st0" x="327.24" y="441.48" width="567.52" height="814.19"/>
    </clipPath>
    <clipPath id="clippath-3">
      <rect class="st0" x="507.8" y="999.38" width="28.61" height="39.22"/>
    </clipPath>
    <clipPath id="clippath-4">
      <rect class="st0" x="327.24" y="441.48" width="567.52" height="814.19"/>
    </clipPath>
    <clipPath id="clippath-5">
      <rect class="st0" x="327.24" y="441.48" width="567.52" height="814.19"/>
    </clipPath>
    <clipPath id="clippath-6">
      <rect class="st0" x="436.96" y="1082.96" width="27.51" height="37.12"/>
    </clipPath>
    <clipPath id="clippath-7">
      <rect class="st0" x="327.24" y="441.48" width="567.52" height="814.19"/>
    </clipPath>
    <clipPath id="clippath-8">
      <rect class="st0" x="327.24" y="441.48" width="567.52" height="814.19"/>
    </clipPath>
    <clipPath id="clippath-9">
      <rect class="st0" x="327.24" y="441.48" width="567.52" height="814.19"/>
    </clipPath>
  </defs>
  <rect class="st14" x="411.56" y="668.3" width="338.88" height="481.99"/>
  <rect class="st14" x="449.03" y="556.57" width="249.43" height="123.2"/>
  <rect class="st13" x="685.3" y="914.69" width="48.78" height="95.52"/>
  <rect class="st13" x="685.03" y="1013.25" width="54.86" height="122.05"/>
  <rect class="st13" x="472.56" y="672.68" width="207.5" height="11.81"/>
  <rect class="st15" x="672.47" y="699.01" width="77.97" height="15.87"/>
  <rect class="st15" x="411.56" y="1134.09" width="193.07" height="16.2"/>
  <rect class="st15" x="676.19" y="1134.09" width="74.26" height="16.2"/>
  <rect class="st15" x="449.03" y="556.58" width="249.43" height="4.02"/>
  <rect class="st15" x="449.04" y="559.89" width="4.02" height="112.79"/>
  <rect class="st15" x="694.43" y="559.89" width="4.02" height="112.79"/>
  <rect class="st15" x="411.56" y="714.88" width="17.55" height="419.21"/>
  <rect class="st15" x="732.89" y="714.88" width="17.55" height="419.21"/>
  <rect class="st15" x="677.2" y="1010.21" width="55.69" height="6.07"/>
  <rect class="st15" x="430.46" y="1127.34" width="126.24" height="8.39"/>
  <rect class="st15" x="551.3" y="1118.41" width="5.4" height="8.92"/>
  <rect class="st15" x="430.46" y="993" width="120.83" height="5.4"/>
  <rect class="st15" x="425.37" y="993" width="10.49" height="148.31"/>
  <rect class="st15" x="435.86" y="998.4" width="115.44" height="1.01"/>
  <rect class="st15" x="550.29" y="1118.41" width="1.01" height="7.91"/>
  <rect class="st15" x="551.3" y="993" width="5.4" height="55.02"/>
  <rect class="st15" x="550.29" y="993" width="1.01" height="55.02"/>
  <rect class="st15" x="435.86" y="1126.32" width="115.44" height="1.01"/>
  <rect class="st15" x="435.86" y="998.4" width="1.35" height="127.92"/>
  <rect class="st15" x="429.12" y="933.26" width="119.49" height="8.1"/>
  <rect class="st15" x="548.6" y="933.26" width="8.1" height="59.74"/>
  <rect class="st15" x="672.47" y="668.3" width="77.97" height="30.72"/>
  <rect class="st15" x="412.07" y="699.01" width="63.25" height="15.87"/>
  <rect class="st15" x="412.07" y="668.3" width="63.25" height="30.72"/>
  <path class="st3" d="M548.6,993h-119.49M429.11,993v-51.64M429.11,941.36h119.49M672.47,699.01v15.86M672.47,714.88h60.42M429.11,714.88h46.24M475.36,714.88v-15.86M411.56,1150.29h5.4M429.11,1150.29h139.4M576.61,1150.29h27.34M676.18,1150.29h73.25M732.89,1134.09h-55.69M606.99,1134.09h63.46M673.82,1134.09h0M676.18,1134.09h1.02M669.1,597.42l-13.16,1.01M655.93,598.43l-12.49,3.38M643.45,601.8l-11.82,5.74M631.63,607.54l-10.8,7.43M620.83,614.97l-9.45,9.11M611.38,624.08l-7.42,10.8M603.95,634.88l-5.74,12.15M598.22,647.03l-3.38,12.49M594.84,659.52l-1.01,13.16M669.1,672.69v-75.27M664.37,673.36v3.71M598.89,673.36h65.48M598.89,677.07v-3.71M664.37,677.07h-65.48M595.18,684.5h72.57M664.37,672.69h-65.48M664.37,679.1h-65.48M595.18,679.1v5.4M667.75,679.1v5.4M667.75,679.1h-72.57M671.46,672.69v11.81M664.37,672.69h7.09M664.37,679.1v-6.41M667.75,679.1h-3.37M667.75,684.5v-5.4M671.46,684.5h-3.72M595.18,679.1v5.4M598.89,679.1h-3.71M598.89,672.69v6.41M591.47,672.69h7.42M591.47,684.5v-11.81M595.18,684.5h-3.71M480.42,677.07h105.98M586.4,677.07v-3.71M586.4,673.36h-105.98M480.42,673.36v3.71M586.4,684.5h-105.98M480.42,672.69h105.98M586.4,684.5h4.05M590.45,684.5v-11.81M590.45,672.69h-4.05M586.4,672.69v11.81M476.37,684.5h4.05M480.42,684.5v-11.81M480.42,672.69h-4.05M476.37,672.69v11.81M694.41,560.63h-241.33M453.08,560.63v107.67M694.41,668.3v-107.67M694.41,668.3h4.05M698.46,668.3v-111.72M698.46,556.58h-249.43M449.03,556.58v111.72M449.03,668.3h4.05M453.08,668.3v-107.67M453.08,560.63h241.33M694.41,560.63v107.67M411.56,714.88v419.21M429.11,993l119.49-51.64M548.6,993h-119.49M429.11,993v-51.64M429.11,941.36h119.49M750.44,1134.09v-419.21M673.82,1067.59l-13.16,1.35M660.66,1068.94l-12.49,3.71M648.17,1072.66l-11.47,6.08M636.69,1078.73l-10.13,8.44M626.57,1087.17l-8.1,10.13M618.47,1097.3l-6.41,11.47M612.05,1108.77l-3.71,12.49M608.34,1121.26l-1.35,12.83M604.63,1134.09v16.2M676.18,1150.29v-16.2M673.82,1134.09v-66.49M670.45,1134.09h3.37M677.2,1134.09h-1.02M673.82,1134.09h0M670.45,1134.09h-63.46"/>
  <path class="st3" d="M732.89,845.84v-63.79M732.89,962.28h-1.01M729.51,962.28h-2.36M724.45,962.28h-2.36M719.73,962.28h-2.36M715,962.28h-2.36M710.28,962.28h-2.36M705.55,962.28h-2.36M700.83,962.28h-2.7M695.76,962.28h-2.36M691.04,962.28h-2.36M686.31,962.28h-1.01M685.3,962.28v-1.01M685.3,958.91v-2.36M685.3,954.18v-2.7M685.3,949.12v-2.36M685.3,944.4v-2.36M685.3,939.67v-2.37M685.3,934.94v-2.36M685.3,930.22v-2.36M685.3,925.16v-2.36M685.3,920.43v-2.36M685.3,915.71v-1.01M685.3,914.69h1.01M688.67,914.69h2.36M693.4,914.69h2.36M698.13,914.69h2.7M703.19,914.69h2.36M707.91,914.69h2.36M712.64,914.69h2.36M717.36,914.69h2.36M722.09,914.69h2.36M727.15,914.69h2.36M731.88,914.69h1.01M732.89,914.69v1.01M732.89,918.07v2.36M732.89,922.79v2.36M732.89,927.86v2.36M732.89,932.58v2.36M732.89,937.31v2.37M732.89,942.03v2.36M732.89,946.76v2.36M732.89,951.48v2.7M732.89,956.55v2.36M732.89,961.27v1.01M732.89,1010.21h-1.01M729.51,1010.21h-2.36M724.45,1010.21h-2.36M719.73,1010.21h-2.36M715,1010.21h-2.36M710.28,1010.21h-2.36M705.55,1010.21h-2.36M700.83,1010.21h-2.7M695.76,1010.21h-2.36M691.04,1010.21h-2.36M686.31,1010.21h-1.01M685.3,1010.21v-1.01M685.3,1006.5v-2.36M685.3,1001.78v-2.36M685.3,997.05v-2.36M685.3,992.32v-2.36M685.3,987.6v-2.36M685.3,982.87v-2.7M685.3,977.81v-2.36M685.3,973.09v-2.36M685.3,968.36v-2.36M685.3,963.63v-1.35M685.3,962.28h1.01M688.67,962.28h2.36M693.4,962.28h2.36M698.13,962.28h2.7M703.19,962.28h2.36M707.91,962.28h2.36M712.64,962.28h2.36M717.36,962.28h2.36M722.09,962.28h2.36M727.15,962.28h2.36M731.88,962.28h1.01M732.89,962.28v1.35M732.89,966v2.36M732.89,970.72v2.36M732.89,975.45v2.36M732.89,980.17v2.7M732.89,985.24v2.36M732.89,989.96v2.36M732.89,994.69v2.36M732.89,999.41v2.36M732.89,1004.14v2.36M732.89,1009.2v1.01M411.56,1016.29v-6.07M750.44,1016.29h0M750.44,1010.21h0M750.44,1010.21v6.07M732.89,1010.21h-55.69M677.2,1010.21v6.07M677.2,1016.29h55.69M475.36,682.47v32.4M429.12,714.88v218.38M429.12,933.26h127.58M556.7,1134.09h47.93M606.99,1134.09h63.45M673.82,1134.09h0M676.18,1134.09h1.02M732.89,1134.09v-117.8M732.89,1010.21v-295.34M672.47,714.88v-32.4M672.47,682.47h-1.01M591.47,682.47h-1.01M476.37,682.47h-1.01M750.44,1150.29h-74.26M677.2,1134.09h-1.02"/>
  <path class="st3" d="M673.82,1134.09h0M670.45,1134.09h-63.46M604.63,1150.29h-8.1M732.89,1065.23v47.93M732.89,1017.3v95.86M556.7,1134.09v-6.75M556.7,1127.33v-8.78M556.7,1048.02v-55.02M548.6,993h-118.14"/>
  <path class="st3" d="M485.48,1116.2l1.35-12.83M486.83,1103.37l3.71-12.49M490.54,1090.88l6.07-11.47M496.62,1079.41l8.44-9.79M505.06,1069.62l9.79-8.44M514.85,1061.18l11.47-6.07M526.32,1055.1l12.15-3.71M538.47,1051.39l12.83-1.01M550.29,1048.02h6.41M556.7,1118.56h-6.41M551.3,1112.82v3.38M551.3,1116.2h-65.82M551.3,1116.2v-65.82"/>
  <path class="st3" d="M437.22,999.41h113.07M550.29,999.41v48.6M550.29,1118.56v7.76M550.29,1126.32h-113.07M437.22,1126.32v-126.91"/>
  <path class="st3" d="M429.11,941.36h7.77M436.88,941.36v-8.1M436.88,933.26h-7.77M484.81,941.36h63.79M548.6,933.26h-63.79M484.81,933.26v8.1M484.81,941.36h-47.93M436.88,933.26h47.93M436.88,941.36v-8.1M484.81,933.26v8.1M556.7,993v-59.74M556.7,933.26h-8.1M475.35,699.01v-30.72M475.35,668.3h-63.79M750.44,668.3h-77.97M672.47,668.3v30.72M672.47,677.07h-1.01M591.47,677.07h-1.01M476.37,677.07h-1.02M475.35,682.47v-5.4M672.47,677.07v5.4M672.47,677.07v-8.78M475.35,668.3v8.78M475.35,677.07h1.02M590.45,677.07h1.01M671.46,677.07h1.01M411.56,1150.29v-481.99M596.53,1150.29h-184.97M750.44,668.3v481.99"/>
  <g class="st16">
    <path class="st2" d="M1108.22,579.19h-6.07M1084.6,499.87l-16.2,7.09M1072.78,524.51l-4.38-17.55M1045.1,495.82l27.68,28.69M1045.1,495.82l39.49,4.05M1045.1,495.82l23.29,11.14M1108.22,818.5h-6.07M1108.22,658.85h-6.07M1108.22,738.5h-6.07M1108.22,818.5v-239.31M-18.11,1278.21h1183.71"/>
    <path d="M1086.83,1227.3c.43-.28.75-.67.96-1.17.21-.5.32-1.12.32-1.85,0-.58-.11-1.1-.32-1.57-.21-.47-.5-.82-.89-1.07-.38-.25-.78-.37-1.21-.37s-.81.11-1.15.34c-.33.23-.61.58-.82,1.05-.14.33-.32.93-.51,1.8-.19.87-.38,1.42-.57,1.62-.19.21-.42.32-.72.32-.33,0-.62-.15-.85-.45-.23-.3-.36-.77-.36-1.42s.13-1.1.39-1.42c.26-.32.64-.51,1.16-.56l-.08-1.03c-.47.02-.9.15-1.27.4-.37.25-.66.6-.85,1.06-.19.46-.29.99-.29,1.6,0,.55.09,1.05.27,1.49.18.45.45.79.81,1.02.35.23.74.35,1.14.35.37,0,.71-.1,1-.28.3-.19.55-.48.75-.87.16-.3.33-.82.5-1.57.18-.75.31-1.23.39-1.45.13-.34.29-.59.48-.73.19-.15.41-.22.66-.22s.48.08.69.23c.21.15.38.39.49.7.12.31.18.68.18,1.09,0,.46-.08.88-.24,1.25-.16.37-.37.65-.62.82-.26.17-.59.29-.99.34l.09,1.01c.54-.02,1.02-.16,1.45-.45M1087.97,1218.59h-2.79l-1.28-1.33,4.08-2.9v-1.42l-4.8,3.57-3.26-3.41v1.46l4,4.04h-4v1.08h8.06v-1.08Z"/>
    <path d="M1082.31,1209.06h.92v-5.37h-.92v5.37ZM1084.75,1209.06h.92v-5.37h-.92v5.37Z"/>
    <path d="M1086.83,1198.95c.43-.28.75-.67.96-1.17.21-.5.32-1.11.32-1.85,0-.58-.1-1.1-.31-1.57-.21-.47-.51-.82-.89-1.07-.38-.25-.78-.37-1.22-.37s-.81.11-1.14.34c-.33.23-.61.58-.82,1.05-.15.33-.32.93-.51,1.8-.2.88-.39,1.42-.57,1.63-.19.21-.42.31-.71.31-.34,0-.62-.15-.86-.45-.23-.3-.36-.77-.36-1.42s.13-1.1.39-1.42c.26-.32.64-.51,1.15-.56l-.08-1.03c-.47.02-.9.15-1.27.4-.38.25-.66.6-.85,1.07-.19.46-.29.99-.29,1.59,0,.55.09,1.05.28,1.49.18.45.45.79.8,1.02.35.23.73.35,1.14.35.37,0,.71-.1,1-.29.3-.19.55-.48.75-.87.16-.3.32-.83.5-1.57.18-.74.31-1.23.39-1.45.13-.34.29-.59.48-.73.19-.15.41-.22.66-.22s.48.07.69.23c.21.15.38.39.5.7.12.31.18.68.18,1.09,0,.46-.08.88-.24,1.25-.16.37-.37.64-.63.82-.26.17-.59.29-.99.34l.09,1.01c.54-.01,1.02-.16,1.45-.45"/>
    <path d="M1087.97,1190.73h-2.31l-.67-.71,2.98-1.95v-1.23l-3.67,2.48-2.16-2.26v1.29l2.38,2.37h-4.6v1h8.06v-1ZM1087.97,1181.6v-1.04c-.22.12-.46.21-.7.25-.25.04-.83.07-1.75.07h-1.32c-.44,0-.74.02-.91.05-.27.06-.49.16-.67.31-.18.15-.33.38-.44.69-.12.31-.18.72-.18,1.23s.07.95.21,1.33c.14.38.33.68.59.88.26.2.59.35,1,.44l.13-.98c-.42-.11-.7-.27-.87-.5-.16-.22-.25-.57-.25-1.04,0-.5.11-.88.34-1.14.16-.19.45-.28.85-.28.03,0,.12,0,.26,0,.13.38.25.97.34,1.78.05.4.09.69.15.89.07.27.18.5.32.72.14.21.33.38.57.52.24.13.5.2.78.2.49,0,.89-.17,1.2-.52.31-.35.47-.84.47-1.49,0-.39-.07-.76-.19-1.1-.13-.34-.35-.7-.66-1.07.27-.03.51-.1.72-.2M1085.4,1181.89c.44,0,.77.05.99.16.29.14.52.36.68.66.17.3.25.64.25,1.02s-.09.69-.27.89c-.18.2-.4.3-.66.3-.18,0-.33-.05-.47-.14-.14-.09-.25-.22-.33-.39-.07-.17-.14-.46-.2-.87-.1-.73-.23-1.27-.38-1.63h.36Z"/>
    <path d="M1087.97,1178.57h-2.31l-.67-.71,2.99-1.95v-1.23l-3.67,2.48-2.16-2.25v1.29l2.37,2.37h-4.6v1h8.06v-1ZM1087.12,1172.1c0,.15-.03.26-.07.34-.05.08-.11.14-.19.17-.08.03-.26.05-.55.05h-3.42v-1.01h-.77v1.01h-2.04l.59.99h1.45v.73h.77v-.73h3.36c.59,0,.98-.04,1.17-.12.18-.08.33-.22.45-.42.11-.2.17-.48.17-.84,0-.22-.03-.47-.09-.76l-.88.14c.03.18.04.33.04.44"/>
    <path d="M1101.13,1226.25h-3.66v-3.82h-.95v3.82h-2.5v-4.41h-.95v5.49h8.06v-1.08ZM1099.99,1220.55c.43-.28.74-.67.96-1.17.21-.5.32-1.11.32-1.85,0-.58-.1-1.11-.31-1.57-.21-.46-.51-.82-.89-1.07-.38-.25-.79-.37-1.22-.37s-.81.11-1.14.34c-.33.23-.61.58-.83,1.05-.14.33-.32.93-.51,1.8-.2.88-.39,1.42-.57,1.63-.19.21-.43.31-.72.31-.33,0-.62-.15-.85-.45-.23-.3-.35-.77-.35-1.42s.13-1.1.39-1.42c.26-.32.64-.51,1.15-.56l-.08-1.03c-.47.02-.9.15-1.27.4-.38.25-.66.6-.85,1.07-.19.46-.29.99-.29,1.59,0,.55.09,1.05.27,1.49.19.45.45.79.81,1.02.35.24.73.35,1.14.35.37,0,.7-.1,1-.29.3-.19.55-.48.75-.87.16-.3.32-.83.5-1.57.18-.74.31-1.23.39-1.45.13-.34.29-.59.48-.73.19-.15.41-.22.66-.22s.48.07.69.23c.21.15.38.39.5.7.12.31.18.68.18,1.09,0,.46-.08.88-.24,1.25-.16.37-.37.64-.63.82-.26.17-.59.29-.99.34l.09,1.01c.54-.01,1.02-.16,1.45-.45"/>
    <path d="M1095.47,1210.08h.92v-5.37h-.92v5.37ZM1097.92,1210.08h.92v-5.37h-.92v5.37Z"/>
    <polygon points="1101.13 1198.91 1097.47 1198.91 1097.47 1195.1 1096.52 1195.1 1096.52 1198.91 1094.03 1198.91 1094.03 1194.5 1093.08 1194.5 1093.08 1199.99 1101.13 1199.99 1101.13 1198.91"/>
    <path d="M1100.48,1192.69c.53-.51.79-1.18.79-2,0-.51-.12-.99-.36-1.42-.24-.43-.57-.76-1-.99-.43-.23-1.02-.34-1.77-.34-.93,0-1.65.26-2.18.77-.53.52-.79,1.18-.79,1.99,0,.73.22,1.35.65,1.85.52.61,1.32.91,2.4.91.98,0,1.74-.25,2.26-.76M1096.54,1191.93c-.37-.33-.55-.74-.55-1.24s.18-.9.56-1.23c.37-.33.92-.5,1.64-.5.77,0,1.34.16,1.71.49.38.33.56.74.56,1.24s-.19.91-.56,1.24c-.37.33-.93.49-1.68.49s-1.31-.16-1.68-.49M1101.13,1186.02h-3.05c-.42,0-.81-.06-1.16-.17-.23-.07-.41-.2-.54-.37-.13-.18-.2-.37-.2-.59,0-.24.07-.49.21-.73l-.92-.34c-.21.35-.32.69-.32,1.03,0,.23.07.45.2.64.13.19.41.4.82.63h-.89v.9h5.84v-1Z"/>
    <path d="M1100.17,1179.87c.19.26.29.57.29.94,0,.49-.17.9-.51,1.23-.34.33-.83.51-1.48.55v-4.39c-.11,0-.2,0-.26,0-.96,0-1.71.25-2.24.75-.53.5-.8,1.14-.8,1.93s.27,1.47.81,1.98c.54.51,1.31.77,2.29.77s1.69-.25,2.21-.76c.53-.5.79-1.19.79-2.05,0-.68-.16-1.25-.49-1.69-.33-.44-.79-.74-1.39-.9l-.13,1.03c.42.15.72.36.91.62M1096.43,1182.02c-.31-.31-.46-.7-.46-1.16,0-.51.19-.92.57-1.24.25-.21.61-.33,1.1-.38v3.29c-.51-.03-.91-.21-1.22-.52M1100.79,1176.51c.31-.4.47-.98.47-1.75,0-.46-.08-.88-.24-1.24-.16-.37-.38-.65-.67-.84-.29-.19-.6-.29-.93-.29s-.62.08-.84.24c-.23.16-.4.38-.52.66-.12.28-.27.77-.46,1.48-.13.49-.22.78-.25.88-.07.17-.16.3-.26.38-.1.08-.22.12-.35.12-.2,0-.38-.1-.53-.3-.15-.19-.23-.52-.23-.98,0-.39.08-.69.25-.9.17-.21.4-.34.7-.38l-.13-.97c-.38.06-.68.18-.9.34-.23.17-.4.42-.54.77-.13.35-.2.76-.2,1.22,0,.31.04.59.12.87.08.27.18.48.29.63.14.21.33.37.55.49.22.12.46.18.72.18.29,0,.55-.07.79-.22.23-.15.42-.36.55-.64s.29-.79.48-1.52c.14-.55.25-.89.33-1.02.13-.2.31-.29.53-.29.25,0,.47.11.65.33.19.22.28.56.28,1.02s-.1.81-.31,1.06c-.21.25-.51.41-.9.46l.16.99c.62-.11,1.09-.37,1.4-.77M1093.07,1171.13h8.06v-1h-8.06v1ZM1101.13,1164.45v-1.04c-.22.13-.46.21-.7.25-.24.04-.82.06-1.74.06h-1.32c-.44,0-.75.02-.91.05-.27.06-.5.17-.67.31-.18.15-.33.38-.44.69-.12.31-.18.72-.18,1.23s.07.95.2,1.34c.14.38.33.68.59.88.25.21.59.35,1,.44l.13-.98c-.41-.11-.7-.27-.86-.5-.17-.22-.25-.57-.25-1.04,0-.5.11-.88.33-1.14.17-.19.45-.28.85-.28.04,0,.12,0,.26,0,.13.38.24.97.34,1.78.05.4.1.69.15.89.07.26.18.5.32.72.14.21.33.38.57.52.23.13.5.2.78.2.49,0,.89-.17,1.2-.52s.47-.84.47-1.49c0-.39-.06-.76-.19-1.1-.13-.34-.35-.7-.66-1.07.28-.03.51-.1.72-.2M1098.57,1164.73c.44,0,.77.06.99.16.29.14.52.36.68.66.16.3.25.64.25,1.03s-.09.69-.26.89c-.18.2-.4.3-.66.3-.17,0-.33-.04-.47-.14-.14-.09-.25-.22-.32-.39-.08-.17-.14-.46-.2-.87-.1-.72-.22-1.27-.37-1.63h.36ZM1094.51,1166.82c.2-.19.29-.43.29-.71s-.1-.5-.29-.7c-.19-.2-.43-.3-.71-.3s-.52.1-.71.3c-.2.2-.29.43-.29.7s.1.5.29.7.42.3.69.3c.29,0,.54-.1.74-.3M1093.37,1166.52c-.11-.12-.18-.26-.18-.41s.06-.3.18-.42c.12-.11.26-.17.42-.17s.31.06.42.17c.12.12.18.25.18.42s-.06.29-.18.41c-.12.12-.26.17-.44.17-.16,0-.3-.06-.42-.17M1100.17,1158.66c.19.26.29.57.29.94,0,.49-.17.9-.51,1.23-.34.33-.83.51-1.48.55v-4.4c-.11,0-.2,0-.26,0-.96,0-1.71.25-2.24.75-.53.5-.8,1.15-.8,1.93s.27,1.48.81,1.98c.54.51,1.31.76,2.29.76s1.69-.25,2.21-.76c.53-.5.79-1.19.79-2.05,0-.68-.16-1.25-.49-1.69-.33-.44-.79-.74-1.39-.9l-.13,1.03c.42.15.72.36.91.61M1096.43,1160.81c-.31-.31-.46-.7-.46-1.16,0-.51.19-.92.57-1.24.25-.21.61-.33,1.1-.38v3.29c-.51-.03-.91-.21-1.22-.52"/>
    <path d="M1100.29,1153.87c0,.15-.02.26-.07.34-.05.08-.11.14-.19.17-.08.03-.26.05-.55.05h-3.41v-1.01h-.77v1.01h-2.04l.59,1h1.45v.73h.77v-.73h3.36c.59,0,.98-.04,1.17-.12.19-.08.33-.22.45-.42.12-.2.17-.48.17-.84,0-.22-.03-.47-.09-.75l-.88.14c.03.18.04.33.04.44M1100.79,1149.18c.32-.4.47-.98.47-1.75,0-.46-.08-.88-.24-1.25-.16-.37-.38-.65-.68-.84-.29-.2-.6-.29-.93-.29s-.62.08-.85.24c-.23.16-.4.38-.52.66-.12.28-.27.77-.46,1.48-.14.49-.22.78-.25.88-.07.17-.16.3-.27.38-.1.08-.21.12-.35.12-.2,0-.38-.1-.53-.3s-.23-.52-.23-.98c0-.39.08-.69.25-.9.17-.21.4-.34.7-.38l-.13-.98c-.38.06-.68.18-.9.34-.22.17-.4.43-.54.78-.13.35-.2.76-.2,1.22,0,.31.04.59.12.86.08.27.18.48.29.63.15.21.33.37.55.49.22.12.46.18.72.18.28,0,.55-.07.78-.22.23-.14.42-.36.55-.65.13-.28.29-.79.48-1.52.14-.54.25-.88.34-1.02.13-.19.31-.29.53-.29.25,0,.47.11.65.33.19.22.28.56.28,1.02s-.1.81-.32,1.06c-.21.25-.51.41-.9.46l.15.99c.62-.11,1.09-.36,1.4-.77"/>
    <path d="M1101.13,1142.46h-2.31l-.67-.71,2.98-1.95v-1.23l-3.67,2.48-2.16-2.25v1.29l2.38,2.36h-4.6v1h8.06v-1ZM1101.13,1133.68v-1.04c-.22.13-.46.21-.7.25-.25.04-.83.06-1.75.06h-1.32c-.44,0-.74.02-.91.05-.27.06-.5.16-.67.31-.18.15-.33.38-.45.69-.12.31-.18.72-.18,1.23s.07.95.21,1.33.33.68.59.88c.25.2.59.35,1,.44l.13-.98c-.41-.11-.7-.27-.86-.5-.16-.22-.25-.57-.25-1.04,0-.5.11-.88.33-1.14.17-.19.45-.28.85-.28.04,0,.13,0,.26,0,.14.38.25.97.35,1.78.05.4.09.69.15.89.07.27.18.5.32.72.14.21.33.38.57.52.23.13.49.2.78.2.49,0,.89-.17,1.2-.52.31-.35.47-.84.47-1.49,0-.39-.07-.76-.2-1.1-.13-.34-.35-.7-.66-1.07.27-.03.51-.09.72-.2M1098.57,1133.96c.44,0,.77.05.99.16.29.14.51.36.68.66.17.3.25.64.25,1.03s-.09.69-.27.89c-.18.2-.4.3-.66.3-.17,0-.33-.05-.47-.14-.14-.09-.25-.22-.32-.39-.07-.17-.14-.46-.2-.87-.1-.72-.23-1.27-.38-1.63h.36Z"/>
    <path d="M1100.4,1130.73c.58-.4.86-.94.86-1.64s-.27-1.3-.82-1.8c-.55-.5-1.32-.75-2.32-.75-.42,0-.82.06-1.19.18-.37.12-.68.28-.95.49-.26.21-.47.48-.61.8-.14.32-.22.67-.22,1.03,0,.65.26,1.19.79,1.62h-2.88v1h8.06v-.93h-.73ZM1096.54,1130.26c-.38-.32-.56-.69-.56-1.13s.18-.8.54-1.11c.36-.31.93-.46,1.69-.46s1.3.16,1.68.48c.38.32.56.69.56,1.13,0,.54-.25.96-.76,1.27-.31.19-.82.29-1.52.29s-1.25-.16-1.63-.48"/>
    <path d="M1100.1,819.92c.56-.45.83-1.06.83-1.85,0-.6-.16-1.09-.48-1.48-.31-.39-.76-.68-1.35-.88-.58-.2-1.34-.29-2.29-.29-.8,0-1.44.06-1.91.18-.47.12-.87.29-1.2.5-.33.21-.58.49-.76.81-.18.33-.26.71-.26,1.15,0,.59.16,1.08.47,1.47.31.39.76.69,1.34.88.58.2,1.35.29,2.3.29,1.51,0,2.6-.27,3.27-.8M1094.1,819.19c-.39-.28-.58-.64-.58-1.1s.22-.85.65-1.17c.44-.31,1.32-.47,2.65-.47s2.2.16,2.64.47c.44.31.66.7.66,1.16s-.22.84-.65,1.16c-.44.31-1.32.47-2.64.47s-2.23-.17-2.72-.52M1099.85,666.23c-.18-.11-.36-.25-.53-.42-.18-.17-.52-.55-1.02-1.15-.6-.72-1.07-1.23-1.42-1.54-.35-.31-.67-.53-.98-.66-.31-.13-.63-.2-.95-.2-.64,0-1.17.23-1.6.68-.43.46-.64,1.07-.64,1.86s.2,1.39.6,1.85c.4.46.97.73,1.73.8l.1-1.03c-.5,0-.9-.15-1.19-.44-.29-.29-.43-.68-.43-1.16,0-.46.14-.83.4-1.11.27-.28.6-.43.99-.43s.77.16,1.19.47c.42.31.99.91,1.71,1.79.46.57.87,1.01,1.22,1.31.35.3.71.52,1.07.66.22.08.45.12.69.11v-5.38h-.95v3.99Z"/>
    <path d="M1100.8,660.14h-3.03c-.53,0-.94-.05-1.22-.16-.29-.11-.5-.28-.64-.52-.15-.24-.22-.5-.22-.78,0-.37.11-.64.33-.8.22-.16.55-.24.99-.24h3.79v-1h-3.39c-.6,0-1.04-.14-1.31-.41-.27-.28-.41-.62-.41-1.04,0-.23.05-.43.16-.6.11-.17.25-.29.42-.35.18-.07.46-.1.85-.1h3.68v-1h-4.01c-.66,0-1.16.16-1.48.47-.32.31-.48.76-.48,1.35,0,.75.34,1.35,1.02,1.82-.32.11-.57.31-.75.59-.18.28-.27.64-.27,1.07,0,.39.08.74.26,1.05.17.31.41.55.69.74h-.82v.9h5.84v-1Z"/>
    <path d="M1092.71,741.02v.64c.35.17.71.47,1.08.89.37.42.68.9.94,1.46h.96c-.11-.31-.29-.66-.51-1.05-.23-.39-.46-.7-.68-.95h6.3v-1h-8.09ZM1100.8,737.1h-3.03c-.53,0-.94-.05-1.22-.16-.29-.11-.5-.28-.64-.52-.15-.24-.22-.5-.22-.78,0-.37.11-.63.33-.8.22-.16.55-.24.99-.24h3.79v-1h-3.39c-.6,0-1.04-.14-1.31-.41-.27-.27-.41-.62-.41-1.03,0-.23.05-.43.16-.6.11-.17.25-.29.42-.35.18-.07.46-.1.85-.1h3.68v-.99h-4.01c-.66,0-1.16.16-1.48.47-.32.31-.48.76-.48,1.35,0,.75.34,1.35,1.02,1.82-.32.11-.57.31-.75.59-.18.28-.27.64-.27,1.07,0,.39.08.74.26,1.05.17.31.41.55.69.74h-.82v.89h5.84v-1Z"/>
    <path d="M1100.8,915.85h-6.86l6.86-2.35v-.97l-6.74-2.36h6.74v-1.04h-8.06v1.45l5.61,1.94c.57.2,1,.34,1.29.44-.27.08-.66.21-1.19.39l-5.71,1.92v1.62h8.06v-1.04ZM1100.8,903.82v-1.04c-.23.13-.46.21-.7.25-.24.04-.83.06-1.74.06h-1.32c-.44,0-.74.02-.91.05-.27.06-.49.16-.67.31-.18.15-.33.38-.44.69-.12.31-.18.72-.18,1.23s.07.95.2,1.34c.14.39.34.68.59.88.25.21.59.35,1,.44l.13-.98c-.42-.11-.7-.27-.87-.49-.16-.22-.25-.57-.25-1.04,0-.5.11-.88.34-1.14.16-.19.45-.28.85-.28.03,0,.12,0,.26,0,.13.38.24.97.34,1.78.05.4.1.69.15.89.08.26.18.5.33.72.14.21.33.38.57.51.24.13.5.2.78.2.49,0,.89-.18,1.2-.52.32-.35.47-.85.47-1.49,0-.39-.07-.76-.19-1.1-.13-.34-.35-.7-.66-1.07.27-.03.51-.1.72-.2M1098.23,904.1c.44,0,.77.06.99.16.29.14.52.36.69.66.16.3.25.64.25,1.03s-.09.68-.26.88c-.18.2-.39.3-.66.3-.17,0-.33-.05-.47-.14-.14-.09-.25-.22-.32-.39-.07-.17-.14-.46-.2-.87-.1-.72-.23-1.27-.37-1.63h.36ZM1094.18,906.2c.2-.2.29-.43.29-.71s-.09-.5-.29-.7c-.19-.2-.43-.29-.71-.29s-.52.1-.71.29c-.2.2-.29.43-.29.7s.1.5.29.7c.2.2.42.3.69.3.29,0,.54-.1.73-.29M1093.03,905.89c-.12-.12-.17-.26-.17-.41s.06-.3.17-.42c.12-.11.26-.17.42-.17s.31.06.43.18c.11.12.17.25.17.42s-.06.29-.17.41c-.12.12-.26.18-.44.18-.16,0-.3-.06-.42-.18"/>
    <rect x="1092.74" y="900.48" width="8.06" height="1"/>
    <path d="M1092.71,892.23v.64c.35.18.71.47,1.07.89.37.42.68.91.95,1.47h.96c-.12-.31-.29-.66-.51-1.05-.23-.39-.46-.71-.69-.95h6.31v-1h-8.09ZM1094.96,889.03h1.13v-1.14h-1.13v1.14ZM1099.67,889.03h1.13v-1.14h-1.13v1.14Z"/>
    <path d="M1100.32,885.74c.41-.47.61-1.07.61-1.81,0-.9-.32-1.61-.98-2.14-.53-.43-1.16-.64-1.89-.64s-1.39.24-1.88.73c-.49.49-.73,1.09-.73,1.8,0,.54.17,1.05.5,1.54l-2.16-.44v-3.25h-.94v4.05l4.14.79.12-.94c-.23-.15-.42-.35-.57-.61-.14-.26-.21-.55-.21-.87,0-.52.16-.94.49-1.26.33-.32.77-.48,1.33-.48.59,0,1.07.17,1.43.5.36.33.54.74.54,1.22,0,.4-.13.74-.38,1.03-.25.28-.63.46-1.14.54l.09,1.05c.68-.07,1.22-.34,1.63-.8M1100.1,879.33c.56-.45.83-1.06.83-1.85,0-.6-.16-1.09-.47-1.48-.32-.39-.77-.68-1.35-.88-.58-.2-1.34-.3-2.29-.3-.8,0-1.43.06-1.9.18-.47.12-.87.29-1.2.51-.33.21-.58.49-.76.82-.18.33-.26.71-.26,1.15,0,.59.16,1.08.47,1.47.31.39.76.68,1.34.88.58.2,1.35.3,2.3.3,1.51,0,2.6-.27,3.27-.81M1094.1,878.59c-.38-.27-.58-.64-.58-1.1s.22-.86.66-1.17,1.32-.47,2.64-.47,2.2.15,2.64.47c.44.31.66.7.66,1.16s-.22.84-.66,1.16c-.44.31-1.32.47-2.64.47s-2.23-.17-2.72-.51"/>
    <polygon class="st13" points="1100.8 528.9 1078.18 517.76 1084.93 503.25 1107.88 514.39 1100.8 528.9"/>
    <polygon points="1098.05 523.16 1086.7 517.66 1101.73 515.54 1102.68 513.58 1088.24 506.59 1087.35 508.42 1098.69 513.91 1083.67 516.04 1082.72 518 1097.16 525 1098.05 523.16"/>
    <path d="M1100.31,587.02c.42-.47.63-1.07.63-1.78,0-.79-.25-1.45-.74-1.97-.49-.52-1.08-.77-1.79-.77-.52,0-.95.13-1.3.4-.35.27-.58.64-.68,1.12-.17-.37-.4-.65-.68-.84-.29-.19-.61-.28-.95-.28-.36,0-.71.1-1.04.3-.32.2-.58.49-.77.86-.19.37-.28.78-.28,1.22,0,.64.18,1.18.55,1.62.36.43.88.71,1.54.83l.18-1c-.48-.07-.85-.24-1.09-.5s-.36-.58-.36-.97.12-.71.36-.96c.24-.25.54-.37.9-.37.46,0,.79.17,1.02.51.22.34.33.72.33,1.15,0,.04,0,.09,0,.16l.87.11c-.07-.28-.11-.52-.11-.7,0-.47.15-.85.44-1.15s.67-.45,1.13-.45.87.16,1.2.48c.32.33.48.72.48,1.19,0,.4-.12.73-.37,1.01-.25.28-.65.47-1.21.59l.13,1c.67-.07,1.22-.34,1.64-.8M1100.8,580.49h-3.03c-.53,0-.94-.05-1.22-.16-.29-.1-.5-.28-.64-.52-.15-.24-.22-.5-.22-.78,0-.37.11-.63.33-.8.22-.16.55-.24.99-.24h3.79v-1h-3.39c-.6,0-1.04-.14-1.31-.41-.27-.27-.41-.62-.41-1.04,0-.23.05-.42.16-.6.11-.17.25-.29.42-.35.18-.07.46-.1.85-.1h3.68v-.99h-4.01c-.66,0-1.16.16-1.48.47-.32.31-.48.76-.48,1.35,0,.75.34,1.35,1.02,1.82-.32.11-.57.31-.75.59-.18.28-.27.64-.27,1.07,0,.39.08.74.26,1.05.17.31.41.55.69.74h-.82v.89h5.84v-1Z"/>
    <rect class="st13" x="18.34" y="1154.34" width="18.9" height="102.27"/>
    <path d="M21.79,1250.33v.96c.52.26,1.05.69,1.61,1.32.55.62,1.02,1.34,1.41,2.17h1.43c-.17-.46-.42-.98-.76-1.56-.34-.58-.68-1.05-1.02-1.41h9.41v-1.48h-12.07ZM32.19,1245.62h1.68v-1.69h-1.68v1.69ZM32.17,1240.97c.64-.42,1.11-1,1.43-1.74s.48-1.65.48-2.74c0-.86-.16-1.64-.47-2.32-.32-.69-.76-1.22-1.32-1.59-.57-.37-1.17-.55-1.81-.55s-1.22.17-1.71.5c-.49.34-.9.85-1.23,1.56-.22.49-.47,1.37-.77,2.67-.29,1.3-.58,2.1-.86,2.41-.28.31-.63.47-1.06.47-.5,0-.92-.22-1.28-.66-.35-.44-.53-1.15-.53-2.11s.19-1.63.58-2.1c.39-.48.96-.75,1.72-.84l-.11-1.53c-.71.03-1.34.23-1.89.59-.56.37-.98.89-1.27,1.58-.29.68-.43,1.47-.43,2.36,0,.81.14,1.55.41,2.21.27.66.68,1.17,1.2,1.51.53.35,1.1.52,1.71.52.55,0,1.05-.14,1.5-.42.45-.28.82-.71,1.12-1.28.23-.45.49-1.22.75-2.33.27-1.11.46-1.82.59-2.15.19-.5.43-.87.71-1.08.28-.22.61-.33.99-.33s.71.11,1.03.34c.32.23.56.58.74,1.04.18.47.27,1,.27,1.61,0,.68-.12,1.3-.36,1.85-.24.55-.55.95-.94,1.22-.38.26-.88.43-1.48.5l.13,1.5c.81-.02,1.52-.24,2.16-.66M33.87,1223.95v-1.55c-.33.19-.68.31-1.04.37-.36.06-1.23.1-2.6.1h-1.97c-.66,0-1.11.03-1.36.08-.4.08-.74.24-1,.46-.27.22-.49.56-.66,1.03-.18.47-.26,1.07-.26,1.82s.1,1.41.31,1.98c.21.57.5,1.01.88,1.31.38.3.88.52,1.5.65l.2-1.45c-.62-.16-1.05-.4-1.29-.74-.25-.33-.36-.84-.36-1.54,0-.74.16-1.31.5-1.69.24-.28.67-.42,1.27-.42.05,0,.18,0,.38.01.2.56.36,1.44.51,2.64.07.59.15,1.02.22,1.32.11.4.27.75.48,1.07.21.31.5.57.85.76.35.2.74.29,1.17.29.72,0,1.32-.26,1.79-.77.47-.52.7-1.25.7-2.21,0-.58-.1-1.13-.29-1.63-.19-.51-.52-1.04-.99-1.59.41-.04.77-.14,1.07-.3M30.04,1224.37c.65,0,1.14.08,1.48.24.43.21.77.54,1.02.98.25.44.37.95.37,1.52s-.13,1.01-.39,1.31c-.26.3-.59.45-.99.45-.26,0-.49-.07-.7-.21-.21-.14-.37-.33-.48-.59-.11-.25-.21-.68-.29-1.29-.16-1.07-.34-1.88-.56-2.42h.54ZM21.84,1220.53h12.03v-1.48h-12.03v1.48ZM25.16,1216.26h1.68v-1.69h-1.68v1.69ZM32.19,1216.26h1.68v-1.69h-1.68v1.69ZM22.59,1200.95c-.53.61-.79,1.39-.79,2.33,0,1.28.46,2.29,1.38,3.04,1.05.86,2.74,1.29,5.07,1.29,2.08,0,3.57-.39,4.48-1.17.9-.78,1.35-1.78,1.35-3.02,0-.73-.17-1.37-.51-1.94-.35-.57-.84-1.02-1.49-1.35-.65-.32-1.35-.49-2.1-.49-1.15,0-2.09.35-2.81,1.04-.72.69-1.09,1.54-1.09,2.52,0,.56.13,1.11.39,1.62.26.52.66.95,1.2,1.31-1.2,0-2.13-.15-2.78-.42-.65-.27-1.15-.64-1.48-1.1-.26-.36-.39-.77-.39-1.24,0-.59.21-1.08.63-1.48.27-.24.68-.43,1.26-.56l-.11-1.47c-.94.12-1.67.49-2.2,1.09M28.09,1205.21c-.48-.47-.72-1.03-.72-1.7s.24-1.24.72-1.68c.48-.45,1.13-.66,1.97-.66s1.55.22,2.05.67.76.99.76,1.61c0,.43-.12.84-.36,1.23-.25.39-.6.69-1.06.91-.46.22-.95.33-1.46.33-.77,0-1.4-.23-1.88-.7M32.19,1197.26h1.68v-1.68h-1.68v1.68ZM33.87,1188.19c0-.77-.07-1.42-.2-1.95-.14-.53-.33-.97-.6-1.32-.26-.35-.63-.64-1.12-.88-.48-.24-1.01-.36-1.57-.36-.7,0-1.31.2-1.82.59-.51.39-.88.96-1.09,1.69-.28-.57-.64-.99-1.1-1.27-.45-.28-.94-.42-1.45-.42-.55,0-1.08.16-1.59.47-.51.31-.88.75-1.13,1.31-.24.56-.36,1.3-.36,2.22v4.53h12.02v-4.6ZM23.26,1191.19v-2.41c0-.87.05-1.48.16-1.83.11-.36.32-.63.62-.82.31-.19.65-.29,1.05-.29.42,0,.77.11,1.05.31.28.2.48.51.6.92.1.31.14.81.14,1.52v2.61h-3.63ZM28.32,1191.19v-2.79c0-.77.07-1.36.2-1.76.14-.41.37-.73.7-.96.33-.23.72-.35,1.17-.35.38,0,.72.08,1.01.24s.51.36.67.61c.15.25.26.56.33.92.04.21.06.57.06,1.09v3h-4.13ZM32.19,1181.17h1.68v-1.68h-1.68v1.68ZM21.79,1171.66v.96c.52.26,1.05.7,1.61,1.32.55.62,1.02,1.34,1.41,2.17h1.43c-.17-.46-.42-.98-.76-1.56-.34-.58-.68-1.05-1.02-1.4h9.41v-1.48h-12.07ZM32.19,1166.95h1.68v-1.69h-1.68v1.69ZM33.16,1161.82c.61-.69.92-1.59.92-2.68,0-1.34-.49-2.4-1.46-3.17-.79-.63-1.73-.95-2.83-.95s-2.08.36-2.81,1.08c-.73.73-1.09,1.61-1.09,2.67,0,.8.25,1.56.76,2.28l-3.23-.65v-4.82h-1.41v6l6.18,1.17.18-1.39c-.34-.22-.62-.52-.84-.9-.21-.38-.32-.82-.32-1.29,0-.77.24-1.39.73-1.86.49-.48,1.15-.71,1.99-.71.89,0,1.6.25,2.13.74.54.49.81,1.09.81,1.81,0,.59-.19,1.1-.57,1.52-.38.42-.95.69-1.7.8l.13,1.55c1.01-.1,1.82-.49,2.43-1.19"/>
    <rect class="st13" x="40.28" y="1154.34" width="18.9" height="102.27"/>
    <path d="M54.39,1254.04c-.27-.17-.53-.37-.8-.62-.27-.25-.77-.82-1.51-1.71-.9-1.06-1.6-1.82-2.12-2.28s-1-.79-1.47-.98c-.47-.2-.94-.3-1.42-.3-.94,0-1.74.34-2.38,1.01s-.96,1.59-.96,2.75.3,2.06.89,2.74c.6.68,1.46,1.07,2.59,1.18l.16-1.52c-.76,0-1.35-.22-1.77-.65-.42-.43-.64-1-.64-1.71,0-.67.2-1.22.6-1.64.4-.42.9-.63,1.48-.63s1.15.23,1.77.69c.63.46,1.48,1.35,2.55,2.66.69.84,1.3,1.49,1.82,1.94.52.45,1.06.77,1.6.97.33.13.67.18,1.03.17v-7.97h-1.42v5.92ZM54.13,1245.62h1.68v-1.69h-1.68v1.69ZM54.11,1240.97c.64-.42,1.12-1,1.43-1.74.32-.74.48-1.65.48-2.74,0-.86-.16-1.64-.47-2.32-.32-.69-.76-1.22-1.32-1.59-.57-.37-1.17-.55-1.81-.55s-1.22.17-1.71.5c-.49.34-.9.85-1.23,1.56-.22.49-.47,1.37-.77,2.67-.29,1.3-.58,2.1-.86,2.41-.28.31-.64.47-1.07.47-.5,0-.92-.22-1.28-.66-.35-.44-.53-1.15-.53-2.11s.2-1.63.58-2.1c.39-.48.96-.75,1.72-.84l-.11-1.53c-.71.03-1.33.23-1.89.59-.56.37-.98.89-1.27,1.58-.29.68-.43,1.47-.43,2.36,0,.81.14,1.55.41,2.21.27.66.68,1.17,1.2,1.51.53.35,1.09.52,1.7.52.55,0,1.05-.14,1.5-.42.45-.28.82-.71,1.12-1.28.23-.45.49-1.22.75-2.33.27-1.11.46-1.82.59-2.15.19-.5.43-.87.71-1.08.28-.22.61-.33.99-.33s.72.11,1.03.34c.32.23.56.58.74,1.04.18.47.27,1,.27,1.61,0,.68-.12,1.3-.36,1.85-.24.55-.55.95-.93,1.22-.39.26-.88.43-1.48.5l.13,1.5c.81-.02,1.52-.24,2.16-.66M55.81,1223.95v-1.55c-.33.19-.68.31-1.05.37-.36.06-1.23.1-2.6.1h-1.97c-.66,0-1.11.03-1.36.08-.4.08-.74.24-1,.46-.27.22-.49.56-.66,1.03-.18.47-.26,1.07-.26,1.82s.1,1.41.31,1.98c.21.57.5,1.01.88,1.31.38.3.88.52,1.5.65l.2-1.45c-.62-.16-1.05-.4-1.29-.74-.25-.33-.36-.84-.36-1.54,0-.74.17-1.31.5-1.69.25-.28.67-.42,1.27-.42.06,0,.18,0,.38.01.2.56.37,1.44.51,2.64.07.59.14,1.02.22,1.32.11.4.27.75.48,1.07.21.31.5.57.85.76.35.2.74.29,1.17.29.73,0,1.32-.26,1.79-.77.47-.52.7-1.25.7-2.21,0-.58-.1-1.13-.29-1.63-.19-.51-.52-1.04-.98-1.59.41-.04.77-.14,1.07-.3M51.98,1224.37c.65,0,1.15.08,1.48.24.43.21.77.54,1.02.98.25.44.37.95.37,1.52s-.13,1.01-.39,1.31c-.26.3-.59.45-.99.45-.25,0-.49-.07-.7-.21-.21-.14-.37-.33-.48-.59-.11-.25-.21-.68-.29-1.29-.15-1.07-.34-1.88-.56-2.42h.54ZM43.78,1220.53h12.03v-1.48h-12.03v1.48ZM47.1,1216.26h1.68v-1.69h-1.68v1.69ZM54.13,1216.26h1.68v-1.69h-1.68v1.69ZM44.53,1200.95c-.53.61-.8,1.39-.8,2.33,0,1.28.46,2.29,1.38,3.04,1.05.86,2.74,1.29,5.07,1.29,2.08,0,3.57-.39,4.48-1.17.9-.78,1.35-1.78,1.35-3.02,0-.73-.17-1.37-.51-1.94-.35-.57-.84-1.02-1.49-1.35-.65-.32-1.35-.49-2.1-.49-1.15,0-2.08.35-2.81,1.04-.72.69-1.09,1.54-1.09,2.52,0,.56.13,1.11.39,1.62.26.52.66.95,1.21,1.31-1.2,0-2.13-.15-2.78-.42-.65-.27-1.15-.64-1.48-1.1-.26-.36-.39-.77-.39-1.24,0-.59.21-1.08.63-1.48.26-.24.68-.43,1.26-.56l-.11-1.47c-.94.12-1.67.49-2.2,1.09M50.03,1205.21c-.48-.47-.72-1.03-.72-1.7s.24-1.24.72-1.68c.48-.45,1.13-.66,1.97-.66s1.55.22,2.05.67.76.99.76,1.61c0,.43-.12.84-.36,1.23-.25.39-.6.69-1.06.91-.46.22-.95.33-1.46.33-.77,0-1.4-.23-1.88-.7M54.13,1197.26h1.68v-1.68h-1.68v1.68ZM55.81,1188.19c0-.77-.07-1.42-.2-1.95-.13-.53-.33-.97-.6-1.32-.26-.35-.63-.64-1.12-.88-.49-.24-1.01-.36-1.57-.36-.7,0-1.31.2-1.82.59-.51.39-.88.96-1.09,1.69-.28-.57-.64-.99-1.1-1.27-.45-.28-.94-.42-1.45-.42-.55,0-1.08.16-1.59.47-.51.31-.88.75-1.13,1.31-.24.56-.36,1.3-.36,2.22v4.53h12.03v-4.6ZM45.2,1191.19v-2.41c0-.87.05-1.48.17-1.83.11-.36.32-.63.62-.82.31-.19.65-.29,1.05-.29.42,0,.77.11,1.05.31.28.2.48.51.6.92.1.31.14.81.14,1.52v2.61h-3.63ZM50.26,1191.19v-2.79c0-.77.07-1.36.2-1.76.13-.41.36-.73.69-.96.33-.23.72-.35,1.17-.35.38,0,.72.08,1.01.24s.52.36.67.61c.15.25.26.56.33.92.04.21.06.57.06,1.09v3h-4.13ZM54.13,1181.17h1.68v-1.68h-1.68v1.68ZM54.39,1175.37c-.27-.16-.53-.37-.8-.62-.27-.25-.77-.83-1.51-1.71-.9-1.06-1.6-1.83-2.12-2.28s-1-.79-1.47-.98c-.47-.2-.94-.3-1.42-.3-.94,0-1.74.34-2.38,1.01-.64.68-.96,1.59-.96,2.75s.3,2.06.89,2.74c.6.68,1.46,1.07,2.59,1.18l.16-1.52c-.76,0-1.35-.22-1.77-.65-.42-.43-.64-1-.64-1.71,0-.67.2-1.22.6-1.64.4-.42.9-.63,1.48-.63s1.15.23,1.77.69c.63.46,1.48,1.35,2.55,2.66.69.85,1.3,1.49,1.82,1.94.52.45,1.06.77,1.6.97.33.13.67.19,1.03.17v-7.97h-1.42v5.91ZM54.13,1166.95h1.68v-1.69h-1.68v1.69ZM55.1,1161.82c.61-.69.92-1.59.92-2.68,0-1.34-.49-2.4-1.46-3.17-.79-.63-1.73-.95-2.82-.95s-2.08.36-2.8,1.08c-.73.73-1.09,1.61-1.09,2.67,0,.8.25,1.56.76,2.28l-3.23-.65v-4.82h-1.41v6l6.17,1.17.18-1.39c-.35-.22-.62-.52-.84-.9-.22-.38-.33-.82-.33-1.29,0-.77.24-1.39.73-1.86.49-.48,1.15-.71,1.99-.71.89,0,1.6.25,2.14.74.54.49.8,1.09.8,1.81,0,.59-.19,1.1-.57,1.52-.38.42-.95.69-1.7.8l.13,1.55c1.01-.1,1.82-.49,2.43-1.19"/>
    <rect class="st13" x="64.92" y="1154.34" width="18.9" height="102.27"/>
    <path d="M79.72,1254.7c.63-.7.94-1.58.94-2.64,0-1.17-.36-2.14-1.1-2.91-.73-.77-1.62-1.15-2.67-1.15-.78,0-1.42.2-1.94.59-.52.39-.86.95-1.02,1.66-.25-.55-.59-.96-1.02-1.24-.43-.28-.9-.42-1.42-.42-.55,0-1.06.14-1.55.44-.49.29-.87.72-1.15,1.27-.29.56-.42,1.16-.42,1.82,0,.96.27,1.75.81,2.4.55.64,1.31,1.05,2.3,1.23l.26-1.48c-.72-.11-1.26-.36-1.63-.74-.36-.38-.54-.86-.54-1.44s.18-1.06.53-1.43c.36-.37.81-.55,1.35-.55.68,0,1.19.25,1.52.76.33.51.49,1.07.49,1.71,0,.06,0,.14-.01.24l1.3.16c-.11-.42-.16-.76-.16-1.04,0-.69.22-1.25.66-1.69.44-.45,1-.67,1.68-.67s1.31.24,1.79.72c.48.48.72,1.07.72,1.77,0,.59-.19,1.08-.56,1.49-.37.41-.97.7-1.81.87l.2,1.48c1-.1,1.82-.5,2.44-1.2M78.77,1245.62h1.68v-1.69h-1.68v1.69ZM78.75,1240.97c.64-.42,1.12-1,1.43-1.74.32-.74.48-1.65.48-2.74,0-.86-.16-1.64-.47-2.32-.32-.69-.76-1.22-1.32-1.59-.57-.37-1.17-.55-1.81-.55s-1.22.17-1.71.5c-.49.34-.9.85-1.23,1.56-.22.49-.47,1.37-.77,2.67-.29,1.3-.58,2.1-.86,2.41-.28.31-.63.47-1.06.47-.5,0-.92-.22-1.28-.66-.35-.44-.53-1.15-.53-2.11s.2-1.63.58-2.1c.39-.48.96-.75,1.72-.84l-.11-1.53c-.71.03-1.33.23-1.89.59-.56.37-.98.89-1.27,1.58-.29.68-.43,1.47-.43,2.36,0,.81.14,1.55.41,2.21.27.66.68,1.17,1.2,1.51.53.35,1.09.52,1.7.52.55,0,1.05-.14,1.5-.42.45-.28.82-.71,1.12-1.28.23-.45.49-1.22.75-2.33.27-1.11.46-1.82.59-2.15.19-.5.43-.87.71-1.08.28-.22.61-.33.99-.33s.71.11,1.03.34c.32.23.56.58.74,1.04.18.47.27,1,.27,1.61,0,.68-.12,1.3-.36,1.85-.24.55-.55.95-.93,1.22-.39.26-.88.43-1.48.5l.13,1.5c.81-.02,1.52-.24,2.16-.66M80.45,1223.95v-1.55c-.33.19-.68.31-1.05.37-.36.06-1.23.1-2.6.1h-1.97c-.66,0-1.11.03-1.36.08-.4.08-.74.24-1,.46-.27.22-.49.56-.66,1.03-.18.47-.26,1.07-.26,1.82s.1,1.41.31,1.98c.21.57.5,1.01.88,1.31.38.3.88.52,1.5.65l.2-1.45c-.62-.16-1.05-.4-1.29-.74-.25-.33-.36-.84-.36-1.54,0-.74.17-1.31.5-1.69.25-.28.67-.42,1.27-.42.06,0,.18,0,.38.01.2.56.36,1.44.51,2.64.07.59.15,1.02.22,1.32.11.4.27.75.48,1.07.21.31.5.57.85.76.35.2.74.29,1.17.29.73,0,1.32-.26,1.79-.77.47-.52.7-1.25.7-2.21,0-.58-.1-1.13-.29-1.63-.19-.51-.52-1.04-.98-1.59.41-.04.77-.14,1.07-.3M76.62,1224.37c.65,0,1.14.08,1.48.24.43.21.77.54,1.02.98.25.44.37.95.37,1.52s-.13,1.01-.39,1.31c-.26.3-.59.45-.99.45-.25,0-.49-.07-.7-.21-.21-.14-.37-.33-.48-.59-.11-.25-.21-.68-.29-1.29-.15-1.07-.34-1.88-.56-2.42h.54ZM68.42,1220.53h12.03v-1.48h-12.03v1.48ZM71.74,1216.26h1.68v-1.69h-1.68v1.69ZM78.77,1216.26h1.68v-1.69h-1.68v1.69ZM69.17,1200.95c-.53.61-.8,1.39-.8,2.33,0,1.28.46,2.29,1.38,3.04,1.05.86,2.74,1.29,5.07,1.29,2.08,0,3.57-.39,4.48-1.17.9-.78,1.35-1.78,1.35-3.02,0-.73-.17-1.37-.51-1.94-.35-.57-.84-1.02-1.49-1.35-.65-.32-1.35-.49-2.1-.49-1.15,0-2.08.35-2.81,1.04-.72.69-1.09,1.54-1.09,2.52,0,.56.13,1.11.39,1.62.26.52.66.95,1.21,1.31-1.2,0-2.13-.15-2.78-.42-.65-.27-1.15-.64-1.48-1.1-.26-.36-.39-.77-.39-1.24,0-.59.21-1.08.63-1.48.26-.24.68-.43,1.26-.56l-.11-1.47c-.94.12-1.67.49-2.2,1.09M74.67,1205.21c-.48-.47-.72-1.03-.72-1.7s.24-1.24.72-1.68c.48-.45,1.13-.66,1.97-.66s1.55.22,2.05.67.76.99.76,1.61c0,.43-.12.84-.36,1.23-.25.39-.6.69-1.06.91-.46.22-.95.33-1.46.33-.77,0-1.41-.23-1.88-.7M78.77,1197.26h1.68v-1.68h-1.68v1.68ZM80.45,1188.19c0-.77-.07-1.42-.2-1.95-.13-.53-.33-.97-.6-1.32-.26-.35-.63-.64-1.12-.88-.49-.24-1.01-.36-1.57-.36-.7,0-1.31.2-1.82.59-.51.39-.88.96-1.09,1.69-.28-.57-.64-.99-1.1-1.27-.45-.28-.94-.42-1.45-.42-.55,0-1.08.16-1.59.47-.51.31-.88.75-1.13,1.31-.24.56-.36,1.3-.36,2.22v4.53h12.03v-4.6ZM69.84,1191.19v-2.41c0-.87.05-1.48.17-1.83.11-.36.32-.63.62-.82.31-.19.65-.29,1.05-.29.42,0,.77.11,1.05.31.28.2.48.51.6.92.1.31.14.81.14,1.52v2.61h-3.63ZM74.9,1191.19v-2.79c0-.77.07-1.36.2-1.76.13-.41.36-.73.69-.96.33-.23.72-.35,1.17-.35.38,0,.72.08,1.01.24s.52.36.67.61c.15.25.26.56.33.92.04.21.06.57.06,1.09v3h-4.13ZM78.77,1181.17h1.68v-1.68h-1.68v1.68ZM79.72,1176.03c.63-.7.94-1.58.94-2.64,0-1.18-.36-2.15-1.1-2.92-.73-.77-1.62-1.15-2.67-1.15-.78,0-1.42.2-1.94.59-.52.4-.86.95-1.02,1.66-.25-.55-.59-.96-1.02-1.24-.43-.28-.9-.42-1.42-.42-.55,0-1.06.14-1.55.44-.49.29-.87.72-1.15,1.27-.29.56-.42,1.16-.42,1.82,0,.95.27,1.75.81,2.39.55.64,1.31,1.05,2.3,1.23l.26-1.48c-.72-.11-1.26-.36-1.63-.74-.36-.38-.54-.86-.54-1.44s.18-1.06.53-1.42c.36-.37.81-.55,1.35-.55.68,0,1.19.25,1.52.76.33.5.49,1.07.49,1.7,0,.06,0,.14-.01.24l1.3.16c-.11-.42-.16-.76-.16-1.04,0-.68.22-1.25.66-1.69.44-.45,1-.67,1.68-.67s1.31.24,1.79.72c.48.48.72,1.07.72,1.77,0,.59-.19,1.08-.56,1.49-.37.41-.97.7-1.81.87l.2,1.48c1-.1,1.82-.5,2.44-1.2M78.77,1166.95h1.68v-1.69h-1.68v1.69ZM79.74,1161.82c.61-.69.92-1.59.92-2.68,0-1.34-.49-2.4-1.46-3.17-.79-.63-1.73-.95-2.82-.95s-2.08.36-2.8,1.08c-.73.73-1.09,1.61-1.09,2.67,0,.8.25,1.56.76,2.28l-3.23-.65v-4.82h-1.41v6l6.17,1.17.18-1.39c-.34-.22-.62-.52-.84-.9-.22-.38-.33-.82-.33-1.29,0-.77.24-1.39.73-1.86.49-.48,1.15-.71,1.99-.71.89,0,1.6.25,2.13.74.54.49.81,1.09.81,1.81,0,.59-.19,1.1-.57,1.52-.38.42-.95.69-1.7.8l.13,1.55c1.01-.1,1.82-.49,2.43-1.19"/>
    <rect class="st13" x="88.21" y="1154.34" width="18.9" height="102.27"/>
    <path d="M103.74,1249.68h-2.88v-1.63h-1.35v1.63h-7.8v1.21l7.8,5.5h1.35v-5.23h2.88v-1.48ZM99.51,1254.94l-5.43-3.78h5.43v3.78ZM102.06,1245.62h1.68v-1.69h-1.68v1.69ZM102.04,1240.97c.64-.42,1.11-1,1.43-1.74s.48-1.65.48-2.74c0-.86-.16-1.64-.47-2.32-.32-.69-.76-1.22-1.32-1.59-.57-.37-1.17-.55-1.81-.55s-1.22.17-1.71.5c-.49.34-.9.85-1.23,1.56-.22.49-.47,1.37-.77,2.67-.29,1.3-.58,2.1-.86,2.41-.28.31-.63.47-1.06.47-.5,0-.92-.22-1.28-.66-.35-.44-.53-1.15-.53-2.11s.2-1.63.58-2.1c.39-.48.96-.75,1.72-.84l-.11-1.53c-.71.03-1.34.23-1.89.59-.56.37-.98.89-1.27,1.58-.29.68-.43,1.47-.43,2.36,0,.81.14,1.55.41,2.21.27.66.68,1.17,1.2,1.51.53.35,1.09.52,1.7.52.55,0,1.05-.14,1.5-.42.45-.28.82-.71,1.12-1.28.24-.45.49-1.22.75-2.33.27-1.11.46-1.82.59-2.15.19-.5.43-.87.71-1.08.28-.22.61-.33.99-.33s.71.11,1.03.34c.32.23.56.58.74,1.04.18.47.27,1,.27,1.61,0,.68-.12,1.3-.36,1.85-.24.55-.55.95-.93,1.22-.39.26-.88.43-1.48.5l.13,1.5c.81-.02,1.52-.24,2.16-.66M103.74,1223.95v-1.55c-.33.19-.68.31-1.04.37-.36.06-1.23.1-2.6.1h-1.97c-.66,0-1.11.03-1.36.08-.4.08-.74.24-1,.46-.27.22-.49.56-.66,1.03-.18.47-.26,1.07-.26,1.82s.1,1.41.31,1.98c.21.57.5,1.01.88,1.31.38.3.88.52,1.5.65l.2-1.45c-.62-.16-1.05-.4-1.29-.74-.25-.33-.36-.84-.36-1.54,0-.74.16-1.31.5-1.69.25-.28.67-.42,1.27-.42.06,0,.18,0,.38.01.2.56.36,1.44.51,2.64.07.59.15,1.02.22,1.32.11.4.27.75.48,1.07.21.31.5.57.85.76.35.2.74.29,1.17.29.73,0,1.32-.26,1.79-.77.47-.52.7-1.25.7-2.21,0-.58-.1-1.13-.29-1.63-.19-.51-.52-1.04-.99-1.59.41-.04.77-.14,1.07-.3M99.91,1224.37c.65,0,1.14.08,1.48.24.43.21.77.54,1.02.98.25.44.37.95.37,1.52s-.13,1.01-.39,1.31c-.26.3-.59.45-.99.45-.26,0-.49-.07-.7-.21-.21-.14-.37-.33-.48-.59-.11-.25-.21-.68-.29-1.29-.16-1.07-.34-1.88-.56-2.42h.54ZM91.71,1220.53h12.02v-1.48h-12.02v1.48ZM95.03,1216.26h1.68v-1.69h-1.68v1.69ZM102.06,1216.26h1.68v-1.69h-1.68v1.69ZM92.46,1200.95c-.53.61-.8,1.39-.8,2.33,0,1.28.46,2.29,1.38,3.04,1.05.86,2.74,1.29,5.07,1.29,2.08,0,3.57-.39,4.48-1.17.9-.78,1.35-1.78,1.35-3.02,0-.73-.17-1.37-.51-1.94-.35-.57-.84-1.02-1.49-1.35-.65-.32-1.35-.49-2.1-.49-1.15,0-2.08.35-2.81,1.04-.72.69-1.09,1.54-1.09,2.52,0,.56.13,1.11.39,1.62.26.52.66.95,1.21,1.31-1.2,0-2.13-.15-2.78-.42-.65-.27-1.15-.64-1.48-1.1-.26-.36-.39-.77-.39-1.24,0-.59.21-1.08.63-1.48.27-.24.68-.43,1.26-.56l-.11-1.47c-.94.12-1.67.49-2.2,1.09M97.96,1205.21c-.48-.47-.72-1.03-.72-1.7s.24-1.24.72-1.68c.48-.45,1.13-.66,1.97-.66s1.55.22,2.05.67.76.99.76,1.61c0,.43-.12.84-.36,1.23-.25.39-.6.69-1.06.91-.46.22-.95.33-1.46.33-.77,0-1.41-.23-1.88-.7M102.06,1197.26h1.68v-1.68h-1.68v1.68ZM103.74,1188.19c0-.77-.07-1.42-.2-1.95-.13-.53-.33-.97-.6-1.32-.26-.35-.63-.64-1.12-.88-.49-.24-1.01-.36-1.57-.36-.7,0-1.31.2-1.82.59-.51.39-.88.96-1.09,1.69-.28-.57-.64-.99-1.1-1.27-.45-.28-.94-.42-1.45-.42-.55,0-1.08.16-1.59.47-.51.31-.88.75-1.13,1.31-.24.56-.36,1.3-.36,2.22v4.53h12.02v-4.6ZM93.13,1191.19v-2.41c0-.87.05-1.48.17-1.83.11-.36.32-.63.62-.82.31-.19.65-.29,1.05-.29.42,0,.77.11,1.05.31.28.2.48.51.6.92.1.31.14.81.14,1.52v2.61h-3.63ZM98.18,1191.19v-2.79c0-.77.07-1.36.2-1.76.14-.41.37-.73.7-.96.33-.23.72-.35,1.17-.35.38,0,.72.08,1.01.24s.51.36.67.61c.15.25.26.56.33.92.04.21.06.57.06,1.09v3h-4.13ZM102.06,1181.17h1.68v-1.68h-1.68v1.68ZM103.74,1171.01h-2.88v-1.63h-1.35v1.63h-7.8v1.21l7.8,5.5h1.35v-5.23h2.88v-1.48ZM99.51,1176.26l-5.43-3.78h5.43v3.78ZM102.06,1166.95h1.68v-1.69h-1.68v1.69ZM103.02,1161.82c.61-.69.92-1.59.92-2.68,0-1.34-.49-2.4-1.46-3.17-.79-.63-1.73-.95-2.82-.95s-2.08.36-2.81,1.08c-.73.73-1.09,1.61-1.09,2.67,0,.8.25,1.56.76,2.28l-3.23-.65v-4.82h-1.41v6l6.17,1.17.18-1.39c-.34-.22-.62-.52-.84-.9-.22-.38-.33-.82-.33-1.29,0-.77.24-1.39.73-1.86.49-.48,1.15-.71,1.99-.71.89,0,1.6.25,2.13.74.54.49.81,1.09.81,1.81,0,.59-.19,1.1-.57,1.52-.38.42-.95.69-1.7.8l.13,1.55c1.01-.1,1.82-.49,2.43-1.19"/>
    <rect class="st13" x="111.16" y="1154.34" width="18.9" height="102.27"/>
    <path d="M125.98,1254.72c.61-.69.92-1.59.92-2.68,0-1.34-.49-2.4-1.46-3.17-.79-.64-1.73-.96-2.82-.96s-2.08.36-2.81,1.09c-.73.72-1.09,1.61-1.09,2.67,0,.79.25,1.55.76,2.28l-3.23-.65v-4.81h-1.41v6l6.17,1.17.18-1.39c-.34-.22-.62-.52-.84-.9-.22-.38-.33-.81-.33-1.29,0-.77.24-1.39.73-1.86.49-.48,1.15-.71,1.99-.71.89,0,1.6.25,2.13.74.54.49.81,1.1.81,1.81,0,.59-.19,1.09-.57,1.52-.38.42-.95.69-1.7.8l.13,1.56c1.01-.1,1.82-.49,2.43-1.19M125.01,1245.62h1.68v-1.69h-1.68v1.69ZM124.99,1240.97c.64-.42,1.11-1,1.43-1.74s.48-1.65.48-2.74c0-.86-.16-1.64-.47-2.32-.32-.69-.76-1.22-1.32-1.59-.57-.37-1.17-.55-1.81-.55s-1.22.17-1.71.5c-.49.34-.9.85-1.23,1.56-.22.49-.47,1.37-.77,2.67-.29,1.3-.58,2.1-.86,2.41-.28.31-.63.47-1.06.47-.5,0-.92-.22-1.28-.66-.35-.44-.53-1.15-.53-2.11s.2-1.63.58-2.1c.39-.48.96-.75,1.72-.84l-.11-1.53c-.71.03-1.34.23-1.89.59-.56.37-.98.89-1.27,1.58-.29.68-.43,1.47-.43,2.36,0,.81.14,1.55.41,2.21.27.66.68,1.17,1.2,1.51.53.35,1.1.52,1.71.52.55,0,1.05-.14,1.5-.42.45-.28.82-.71,1.12-1.28.24-.45.49-1.22.75-2.33.27-1.11.46-1.82.59-2.15.19-.5.43-.87.71-1.08.28-.22.61-.33.99-.33s.71.11,1.03.34c.32.23.56.58.74,1.04.18.47.27,1,.27,1.61,0,.68-.12,1.3-.36,1.85-.24.55-.55.95-.94,1.22-.38.26-.88.43-1.48.5l.13,1.5c.81-.02,1.52-.24,2.16-.66M126.69,1223.95v-1.55c-.33.19-.68.31-1.04.37-.36.06-1.23.1-2.6.1h-1.97c-.66,0-1.11.03-1.36.08-.4.08-.74.24-1,.46-.27.22-.49.56-.66,1.03-.18.47-.26,1.07-.26,1.82s.1,1.41.31,1.98c.21.57.5,1.01.88,1.31.38.3.88.52,1.5.65l.2-1.45c-.62-.16-1.05-.4-1.29-.74-.25-.33-.36-.84-.36-1.54,0-.74.16-1.31.5-1.69.24-.28.67-.42,1.27-.42.05,0,.18,0,.38.01.2.56.36,1.44.51,2.64.07.59.15,1.02.22,1.32.11.4.27.75.48,1.07.21.31.5.57.85.76.35.2.74.29,1.17.29.72,0,1.32-.26,1.79-.77.47-.52.7-1.25.7-2.21,0-.58-.1-1.13-.29-1.63-.19-.51-.52-1.04-.99-1.59.41-.04.77-.14,1.07-.3M122.86,1224.37c.65,0,1.14.08,1.48.24.43.21.77.54,1.02.98.25.44.37.95.37,1.52s-.13,1.01-.39,1.31c-.26.3-.59.45-.99.45-.26,0-.49-.07-.7-.21-.21-.14-.37-.33-.48-.59-.11-.25-.21-.68-.29-1.29-.16-1.07-.34-1.88-.56-2.42h.54ZM114.66,1220.53h12.03v-1.48h-12.03v1.48ZM117.98,1216.26h1.68v-1.69h-1.68v1.69ZM125.01,1216.26h1.68v-1.69h-1.68v1.69ZM115.41,1200.95c-.53.61-.8,1.39-.8,2.33,0,1.28.46,2.29,1.38,3.04,1.05.86,2.74,1.29,5.07,1.29,2.08,0,3.57-.39,4.48-1.17.9-.78,1.35-1.78,1.35-3.02,0-.73-.17-1.37-.51-1.94-.35-.57-.84-1.02-1.49-1.35-.65-.32-1.35-.49-2.1-.49-1.15,0-2.09.35-2.81,1.04-.72.69-1.09,1.54-1.09,2.52,0,.56.13,1.11.39,1.62.26.52.66.95,1.21,1.31-1.2,0-2.13-.15-2.78-.42-.65-.27-1.15-.64-1.48-1.1-.26-.36-.39-.77-.39-1.24,0-.59.21-1.08.63-1.48.27-.24.68-.43,1.26-.56l-.11-1.47c-.94.12-1.67.49-2.2,1.09M120.91,1205.21c-.48-.47-.72-1.03-.72-1.7s.24-1.24.72-1.68c.48-.45,1.13-.66,1.97-.66s1.55.22,2.05.67.76.99.76,1.61c0,.43-.12.84-.36,1.23-.25.39-.6.69-1.06.91-.46.22-.95.33-1.46.33-.77,0-1.41-.23-1.88-.7M125.01,1197.26h1.68v-1.68h-1.68v1.68ZM126.69,1188.19c0-.77-.07-1.42-.2-1.95-.14-.53-.33-.97-.6-1.32-.26-.35-.63-.64-1.12-.88-.49-.24-1.01-.36-1.57-.36-.7,0-1.31.2-1.82.59-.51.39-.88.96-1.09,1.69-.28-.57-.64-.99-1.1-1.27-.45-.28-.94-.42-1.45-.42-.55,0-1.08.16-1.59.47-.51.31-.88.75-1.13,1.31-.24.56-.36,1.3-.36,2.22v4.53h12.02v-4.6ZM116.08,1191.19v-2.41c0-.87.05-1.48.16-1.83.12-.36.32-.63.62-.82.31-.19.65-.29,1.05-.29.42,0,.77.11,1.05.31.28.2.48.51.6.92.1.31.14.81.14,1.52v2.61h-3.63ZM121.14,1191.19v-2.79c0-.77.07-1.36.2-1.76.14-.41.37-.73.7-.96.33-.23.72-.35,1.17-.35.38,0,.72.08,1.01.24s.51.36.67.61c.15.25.26.56.33.92.04.21.06.57.06,1.09v3h-4.13ZM125.01,1181.17h1.68v-1.68h-1.68v1.68ZM125.98,1176.05c.61-.69.92-1.59.92-2.69,0-1.34-.49-2.4-1.46-3.17-.79-.63-1.73-.96-2.82-.96s-2.08.36-2.81,1.09c-.73.73-1.09,1.61-1.09,2.67,0,.79.25,1.55.76,2.28l-3.23-.65v-4.81h-1.41v6l6.17,1.17.18-1.39c-.34-.22-.62-.52-.84-.9-.22-.38-.33-.81-.33-1.29,0-.77.24-1.39.73-1.86.49-.47,1.15-.71,1.99-.71.89,0,1.6.25,2.13.74.54.49.81,1.1.81,1.81,0,.59-.19,1.1-.57,1.52-.38.42-.95.69-1.7.8l.13,1.55c1.01-.1,1.82-.49,2.43-1.19M125.01,1166.95h1.68v-1.69h-1.68v1.69ZM125.98,1161.82c.61-.69.92-1.59.92-2.68,0-1.34-.49-2.4-1.46-3.17-.79-.63-1.73-.95-2.82-.95s-2.08.36-2.81,1.08c-.73.73-1.09,1.61-1.09,2.67,0,.8.25,1.56.76,2.28l-3.23-.65v-4.82h-1.41v6l6.17,1.17.18-1.39c-.34-.22-.62-.52-.84-.9-.22-.38-.33-.82-.33-1.29,0-.77.24-1.39.73-1.86.49-.48,1.15-.71,1.99-.71.89,0,1.6.25,2.13.74.54.49.81,1.09.81,1.81,0,.59-.19,1.1-.57,1.52-.38.42-.95.69-1.7.8l.13,1.55c1.01-.1,1.82-.49,2.43-1.19"/>
    <rect class="st13" x="133.1" y="1154.34" width="18.9" height="102.27"/>
    <path d="M137.35,1249.32c-.53.6-.79,1.38-.79,2.33,0,1.27.46,2.28,1.38,3.03,1.05.86,2.75,1.29,5.07,1.29,2.08,0,3.57-.39,4.48-1.17.9-.78,1.35-1.78,1.35-3.02,0-.73-.17-1.37-.51-1.94s-.84-1.02-1.49-1.35c-.65-.32-1.35-.49-2.1-.49-1.15,0-2.09.35-2.81,1.04-.72.69-1.09,1.54-1.09,2.52,0,.56.13,1.1.39,1.62.26.52.66.95,1.2,1.31-1.2,0-2.13-.15-2.78-.42-.65-.27-1.15-.64-1.48-1.1-.26-.36-.39-.77-.39-1.24,0-.59.21-1.08.63-1.48.26-.24.68-.43,1.26-.56l-.11-1.47c-.94.12-1.67.48-2.2,1.09M142.85,1253.57c-.48-.47-.72-1.03-.72-1.7s.24-1.23.72-1.68c.48-.45,1.13-.67,1.97-.67s1.55.22,2.05.67.76.99.76,1.61c0,.43-.12.84-.36,1.23-.25.39-.6.69-1.06.91-.46.22-.95.32-1.46.32-.77,0-1.4-.23-1.88-.7M146.95,1245.62h1.68v-1.69h-1.68v1.69ZM146.93,1240.97c.64-.42,1.11-1,1.43-1.74s.48-1.65.48-2.74c0-.86-.16-1.64-.47-2.32-.32-.69-.76-1.22-1.32-1.59-.57-.37-1.17-.55-1.81-.55s-1.22.17-1.71.5c-.49.34-.9.85-1.23,1.56-.22.49-.48,1.37-.77,2.67s-.58,2.1-.86,2.41c-.28.31-.63.47-1.06.47-.5,0-.92-.22-1.28-.66-.35-.44-.53-1.15-.53-2.11s.19-1.63.58-2.1c.39-.48.96-.75,1.72-.84l-.11-1.53c-.71.03-1.34.23-1.89.59-.56.37-.98.89-1.27,1.58-.29.68-.43,1.47-.43,2.36,0,.81.14,1.55.41,2.21.27.66.68,1.17,1.2,1.51.53.35,1.1.52,1.71.52.55,0,1.05-.14,1.5-.42.45-.28.82-.71,1.12-1.28.23-.45.49-1.22.75-2.33.27-1.11.46-1.82.59-2.15.19-.5.43-.87.71-1.08.28-.22.61-.33.99-.33s.71.11,1.03.34c.32.23.56.58.74,1.04.18.47.27,1,.27,1.61,0,.68-.12,1.3-.36,1.85-.24.55-.55.95-.94,1.22-.38.26-.88.43-1.48.5l.13,1.5c.81-.02,1.52-.24,2.16-.66M148.63,1223.95v-1.55c-.33.19-.68.31-1.04.37-.36.06-1.23.1-2.6.1h-1.97c-.66,0-1.11.03-1.36.08-.4.08-.74.24-1,.46-.27.22-.49.56-.66,1.03-.18.47-.26,1.07-.26,1.82s.1,1.41.31,1.98c.21.57.5,1.01.88,1.31.38.3.88.52,1.5.65l.2-1.45c-.62-.16-1.05-.4-1.29-.74-.25-.33-.36-.84-.36-1.54,0-.74.16-1.31.5-1.69.24-.28.67-.42,1.27-.42.05,0,.18,0,.38.01.2.56.36,1.44.51,2.64.07.59.15,1.02.22,1.32.11.4.27.75.48,1.07.21.31.5.57.85.76.35.2.74.29,1.17.29.72,0,1.32-.26,1.79-.77.47-.52.7-1.25.7-2.21,0-.58-.1-1.13-.29-1.63-.19-.51-.52-1.04-.99-1.59.41-.04.77-.14,1.07-.3M144.8,1224.37c.65,0,1.14.08,1.48.24.43.21.77.54,1.02.98.25.44.37.95.37,1.52s-.13,1.01-.39,1.31c-.26.3-.59.45-.99.45-.26,0-.49-.07-.7-.21-.21-.14-.37-.33-.48-.59-.11-.25-.21-.68-.29-1.29-.16-1.07-.34-1.88-.56-2.42h.54ZM136.6,1220.53h12.03v-1.48h-12.03v1.48ZM139.92,1216.26h1.68v-1.69h-1.68v1.69ZM146.95,1216.26h1.68v-1.69h-1.68v1.69ZM137.35,1200.95c-.53.61-.79,1.39-.79,2.33,0,1.28.46,2.29,1.38,3.04,1.05.86,2.75,1.29,5.07,1.29,2.08,0,3.57-.39,4.48-1.17.9-.78,1.35-1.78,1.35-3.02,0-.73-.17-1.37-.51-1.94-.35-.57-.84-1.02-1.49-1.35-.65-.32-1.35-.49-2.1-.49-1.15,0-2.09.35-2.81,1.04-.72.69-1.09,1.54-1.09,2.52,0,.56.13,1.11.39,1.62.26.52.66.95,1.2,1.31-1.2,0-2.13-.15-2.78-.42-.65-.27-1.15-.64-1.48-1.1-.26-.36-.39-.77-.39-1.24,0-.59.21-1.08.63-1.48.26-.24.68-.43,1.26-.56l-.11-1.47c-.94.12-1.67.49-2.2,1.09M142.85,1205.21c-.48-.47-.72-1.03-.72-1.7s.24-1.24.72-1.68c.48-.45,1.13-.66,1.97-.66s1.55.22,2.05.67.76.99.76,1.61c0,.43-.12.84-.36,1.23-.25.39-.6.69-1.06.91-.46.22-.95.33-1.46.33-.77,0-1.4-.23-1.88-.7M146.95,1197.26h1.68v-1.68h-1.68v1.68ZM148.63,1188.19c0-.77-.07-1.42-.2-1.95-.14-.53-.33-.97-.6-1.32-.26-.35-.63-.64-1.12-.88-.48-.24-1.01-.36-1.57-.36-.7,0-1.31.2-1.82.59-.51.39-.88.96-1.09,1.69-.28-.57-.64-.99-1.1-1.27-.45-.28-.94-.42-1.45-.42-.55,0-1.08.16-1.59.47-.51.31-.88.75-1.13,1.31-.24.56-.36,1.3-.36,2.22v4.53h12.02v-4.6ZM138.02,1191.19v-2.41c0-.87.06-1.48.17-1.83.11-.36.32-.63.62-.82.31-.19.65-.29,1.05-.29.42,0,.77.11,1.05.31.28.2.48.51.6.92.1.31.14.81.14,1.52v2.61h-3.63ZM143.08,1191.19v-2.79c0-.77.07-1.36.2-1.76.14-.41.37-.73.7-.96.33-.23.72-.35,1.17-.35.38,0,.72.08,1.01.24s.51.36.67.61c.16.25.27.56.33.92.04.21.06.57.06,1.09v3h-4.13ZM146.95,1181.17h1.68v-1.68h-1.68v1.68ZM137.35,1170.64c-.53.6-.79,1.38-.79,2.33,0,1.28.46,2.29,1.38,3.04,1.05.86,2.75,1.29,5.07,1.29,2.08,0,3.57-.39,4.48-1.17.9-.78,1.35-1.78,1.35-3.02,0-.73-.17-1.37-.51-1.94-.35-.57-.84-1.02-1.49-1.35-.65-.32-1.35-.49-2.1-.49-1.15,0-2.09.35-2.81,1.04-.72.69-1.09,1.54-1.09,2.52,0,.56.13,1.11.39,1.62.26.52.66.95,1.2,1.31-1.2-.01-2.13-.15-2.78-.42-.65-.27-1.15-.64-1.48-1.1-.26-.36-.39-.77-.39-1.24,0-.59.21-1.08.63-1.48.26-.24.68-.43,1.26-.56l-.11-1.47c-.94.12-1.67.48-2.2,1.09M142.85,1174.9c-.48-.47-.72-1.03-.72-1.7s.24-1.23.72-1.68c.48-.45,1.13-.67,1.97-.67s1.55.22,2.05.67.76.99.76,1.61c0,.43-.12.84-.36,1.23-.25.39-.6.69-1.06.91-.46.22-.95.33-1.46.33-.77,0-1.4-.24-1.88-.7M146.95,1166.95h1.68v-1.69h-1.68v1.69ZM147.92,1161.82c.61-.69.92-1.59.92-2.68,0-1.34-.49-2.4-1.46-3.17-.79-.63-1.73-.95-2.82-.95s-2.08.36-2.81,1.08c-.73.73-1.09,1.61-1.09,2.67,0,.8.25,1.56.76,2.28l-3.23-.65v-4.82h-1.41v6l6.18,1.17.18-1.39c-.34-.22-.62-.52-.84-.9-.21-.38-.32-.82-.32-1.29,0-.77.24-1.39.73-1.86.49-.48,1.15-.71,1.99-.71.89,0,1.6.25,2.13.74.53.49.81,1.09.81,1.81,0,.59-.19,1.1-.57,1.52-.38.42-.95.69-1.7.8l.13,1.55c1.01-.1,1.82-.49,2.43-1.19"/>
    <rect class="st13" x="156.39" y="1154.34" width="18.9" height="102.27"/>
    <path d="M161.47,1249.9c.85.75,1.9,1.46,3.14,2.13,1.25.66,2.54,1.18,3.88,1.53,1.34.36,2.48.55,3.43.56v-1.52c-1.2-.08-2.3-.27-3.31-.57-1.43-.41-2.82-1-4.17-1.75-1.35-.75-2.43-1.51-3.25-2.28h-1.15v7.81h1.42v-5.91ZM170.24,1245.62h1.68v-1.69h-1.68v1.69ZM170.22,1240.97c.64-.42,1.12-1,1.43-1.74.32-.74.48-1.65.48-2.74,0-.86-.16-1.64-.47-2.32-.32-.69-.76-1.22-1.32-1.59-.57-.37-1.17-.55-1.81-.55s-1.22.17-1.71.5c-.49.34-.9.85-1.23,1.56-.22.49-.48,1.37-.77,2.67s-.58,2.1-.85,2.41c-.28.31-.64.47-1.07.47-.5,0-.92-.22-1.28-.66-.36-.44-.53-1.15-.53-2.11s.2-1.63.58-2.1c.39-.48.96-.75,1.72-.84l-.11-1.53c-.71.03-1.33.23-1.89.59-.56.37-.98.89-1.27,1.58-.29.68-.43,1.47-.43,2.36,0,.81.14,1.55.41,2.21.27.66.67,1.17,1.2,1.51.53.35,1.09.52,1.7.52.55,0,1.05-.14,1.5-.42.45-.28.82-.71,1.12-1.28.23-.45.49-1.22.75-2.33.27-1.11.46-1.82.59-2.15.19-.5.43-.87.71-1.08.28-.22.61-.33.99-.33s.71.11,1.03.34c.32.23.56.58.74,1.04.18.47.27,1,.27,1.61,0,.68-.12,1.3-.36,1.85-.24.55-.55.95-.93,1.22-.39.26-.88.43-1.48.5l.13,1.5c.81-.02,1.52-.24,2.16-.66M171.92,1223.95v-1.55c-.34.19-.68.31-1.05.37-.36.06-1.23.1-2.6.1h-1.97c-.66,0-1.11.03-1.36.08-.4.08-.74.24-1,.46-.27.22-.49.56-.66,1.03-.18.47-.26,1.07-.26,1.82s.1,1.41.31,1.98c.21.57.5,1.01.88,1.31.38.3.88.52,1.5.65l.2-1.45c-.62-.16-1.05-.4-1.29-.74-.25-.33-.36-.84-.36-1.54,0-.74.17-1.31.5-1.69.25-.28.67-.42,1.27-.42.06,0,.18,0,.38.01.2.56.37,1.44.51,2.64.07.59.15,1.02.22,1.32.11.4.27.75.48,1.07.21.31.5.57.85.76.35.2.74.29,1.17.29.73,0,1.32-.26,1.79-.77.47-.52.7-1.25.7-2.21,0-.58-.1-1.13-.29-1.63-.19-.51-.52-1.04-.98-1.59.41-.04.77-.14,1.07-.3M168.09,1224.37c.65,0,1.14.08,1.48.24.43.21.77.54,1.02.98.25.44.37.95.37,1.52s-.13,1.01-.39,1.31c-.26.3-.59.45-.99.45-.25,0-.49-.07-.7-.21-.21-.14-.37-.33-.48-.59-.11-.25-.21-.68-.29-1.29-.15-1.07-.34-1.88-.56-2.42h.54ZM159.89,1220.53h12.03v-1.48h-12.03v1.48ZM163.21,1216.26h1.68v-1.69h-1.68v1.69ZM170.24,1216.26h1.68v-1.69h-1.68v1.69ZM160.64,1200.95c-.53.61-.8,1.39-.8,2.33,0,1.28.46,2.29,1.38,3.04,1.06.86,2.75,1.29,5.07,1.29,2.08,0,3.57-.39,4.48-1.17.9-.78,1.35-1.78,1.35-3.02,0-.73-.17-1.37-.51-1.94-.35-.57-.84-1.02-1.49-1.35-.65-.32-1.35-.49-2.1-.49-1.15,0-2.08.35-2.81,1.04-.72.69-1.09,1.54-1.09,2.52,0,.56.13,1.11.39,1.62.26.52.66.95,1.21,1.31-1.2,0-2.13-.15-2.78-.42-.65-.27-1.15-.64-1.48-1.1-.26-.36-.39-.77-.39-1.24,0-.59.21-1.08.63-1.48.26-.24.68-.43,1.26-.56l-.11-1.47c-.94.12-1.67.49-2.2,1.09M166.14,1205.21c-.48-.47-.72-1.03-.72-1.7s.24-1.24.72-1.68c.48-.45,1.13-.66,1.97-.66s1.55.22,2.05.67.76.99.76,1.61c0,.43-.12.84-.36,1.23-.25.39-.6.69-1.06.91-.46.22-.95.33-1.46.33-.78,0-1.41-.23-1.88-.7M170.24,1197.26h1.68v-1.68h-1.68v1.68ZM171.92,1188.19c0-.77-.07-1.42-.2-1.95-.13-.53-.33-.97-.6-1.32-.26-.35-.63-.64-1.12-.88-.49-.24-1.01-.36-1.57-.36-.7,0-1.31.2-1.82.59-.51.39-.88.96-1.09,1.69-.28-.57-.64-.99-1.1-1.27-.45-.28-.94-.42-1.45-.42-.55,0-1.08.16-1.59.47-.51.31-.88.75-1.13,1.31-.24.56-.36,1.3-.36,2.22v4.53h12.03v-4.6ZM161.31,1191.19v-2.41c0-.87.06-1.48.17-1.83.11-.36.32-.63.62-.82.31-.19.65-.29,1.05-.29.42,0,.77.11,1.05.31.28.2.48.51.6.92.1.31.14.81.14,1.52v2.61h-3.63ZM166.36,1191.19v-2.79c0-.77.07-1.36.2-1.76.13-.41.36-.73.69-.96.33-.23.72-.35,1.17-.35.38,0,.72.08,1.01.24s.52.36.67.61c.15.25.26.56.33.92.04.21.06.57.06,1.09v3h-4.13ZM170.24,1181.17h1.68v-1.68h-1.68v1.68ZM161.47,1171.23c.85.75,1.9,1.46,3.14,2.13,1.25.66,2.54,1.18,3.88,1.53,1.34.36,2.48.54,3.43.56v-1.52c-1.2-.08-2.3-.27-3.31-.57-1.43-.41-2.82-.99-4.17-1.75-1.35-.76-2.43-1.52-3.25-2.29h-1.15v7.81h1.42v-5.91ZM170.24,1166.95h1.68v-1.69h-1.68v1.69ZM171.2,1161.82c.61-.69.92-1.59.92-2.68,0-1.34-.49-2.4-1.46-3.17-.79-.63-1.73-.95-2.82-.95s-2.08.36-2.8,1.08c-.73.73-1.09,1.61-1.09,2.67,0,.8.25,1.56.76,2.28l-3.23-.65v-4.82h-1.41v6l6.17,1.17.18-1.39c-.35-.22-.62-.52-.84-.9-.22-.38-.33-.82-.33-1.29,0-.77.24-1.39.73-1.86.49-.48,1.15-.71,1.99-.71.89,0,1.6.25,2.14.74.54.49.8,1.09.8,1.81,0,.59-.19,1.1-.57,1.52-.38.42-.95.69-1.7.8l.13,1.55c1.01-.1,1.82-.49,2.43-1.19"/>
    <line class="st3" x1="548.6" y1="993" x2="429.12" y2="941.36"/>
    <line class="st3" x1="548.6" y1="993" x2="548.6" y2="941.36"/>
  </g>
  <polygon class="st13" points="430.62 772.09 430.62 772.5 502.28 772.5 502.28 910.47 503.19 910.92 503.19 772.09 430.62 772.09"/>
  <polygon class="st13" points="430.62 772.5 430.62 875 446.54 882.88 486.35 902.58 502.28 910.47 502.28 772.5 430.62 772.5"/>
  <g class="st4">
    <path class="st13" d="M430.61,931.74v-56.74l15.92,7.88v28.26c0,1.81,1.47,3.28,3.29,3.28h33.25c1.8,0,3.27-1.47,3.27-3.28v-8.56l15.93,7.88v21.27h-71.66Z"/>
    <path class="st13" d="M446.54,911.14v-28.26l39.81,19.7v8.56c0,1.81-1.47,3.28-3.28,3.28h-33.24c-1.82,0-3.29-1.47-3.29-3.28"/>
  </g>
  <polyline class="st1" points="502.28 910.47 502.28 931.74 430.61 931.74 430.61 875"/>
  <polyline class="st1" points="486.35 902.58 502.28 910.47 503.2 910.92 503.2 772.09 430.62 772.09 430.62 772.5 430.62 875 446.54 882.88"/>
  <line class="st1" x1="483.07" y1="914.42" x2="449.83" y2="914.42"/>
  <g class="st7">
    <path class="st1" d="M449.83,914.42c-1.82,0-3.29-1.47-3.29-3.28"/>
    <path class="st1" d="M486.35,911.14c0,1.81-1.47,3.28-3.28,3.28"/>
  </g>
  <polyline class="st1" points="486.35 911.14 486.35 902.58 446.54 882.88 446.54 911.14"/>
  <g class="st5">
    <path class="st13" d="M536.41,999.4c-.01,7.71-.01,15.41-.02,23.11,0,8.9-6.4,16.1-14.3,16.09-7.9-.01-14.28-7.21-14.28-16.11,0-7.7,0-15.41.02-23.11,9.52,0,19.06,0,28.59.02"/>
  </g>
  <g class="st6">
    <path class="st3" d="M536.41,999.4c-.01,7.71-.01,15.41-.02,23.11,0,8.9-6.4,16.1-14.3,16.09-7.9-.01-14.28-7.21-14.28-16.11,0-7.7,0-15.41.02-23.11,9.52,0,19.06,0,28.59.02Z"/>
  </g>
  <rect class="st13" x="437.21" y="999.41" width="63.89" height="63.21"/>
  <polyline class="st3" points="501.11 999.41 501.11 1062.62 493.54 1062.62"/>
  <line class="st3" x1="501.11" y1="999.41" x2="437.72" y2="999.41"/>
  <line class="st3" x1="437.22" y1="1000.46" x2="437.22" y2="1062.07"/>
  <polyline class="st3" points="437.22 1000.46 437.22 999.41 437.72 999.41"/>
  <polyline class="st3" points="438.15 1062.63 437.22 1062.63 437.22 1062.07"/>
  <line class="st3" x1="438.15" y1="1062.63" x2="493.53" y2="1062.63"/>
  <line class="st3" x1="469.41" y1="999.41" x2="469.41" y2="1016.97"/>
  <g class="st12">
    <path class="st3" d="M473.26,1016.89c0-2.17-1.76-3.93-3.93-3.93s-3.93,1.76-3.93,3.93,1.76,3.93,3.93,3.93,3.93-1.76,3.93-3.93Z"/>
    <path class="st3" d="M473.26,1016.89c0-2.17-1.76-3.93-3.93-3.93s-3.93,1.76-3.93,3.93,1.76,3.93,3.93,3.93,3.93-1.76,3.93-3.93Z"/>
  </g>
  <g class="st9">
    <path class="st13" d="M462.35,1119.44h-15.5c-.58,0-1.06-.35-1.06-.78v-34.13c0-.44.48-.79,1.06-.79h15.5c.6,0,1.06.35,1.06.79v34.13c0,.43-.46.78-1.06.78M454.88,1104.4c1.55,0,2.8-1.25,2.8-2.8s-1.25-2.81-2.8-2.81-2.81,1.26-2.81,2.81,1.26,2.8,2.81,2.8"/>
    <path class="st13" d="M443.17,1101.6c0,1.16-.94,2.1-2.11,2.1s-2.1-.95-2.1-2.1.94-2.11,2.1-2.11,2.11.94,2.11,2.11"/>
    <path class="st13" d="M454.88,1103.1c-.83,0-1.51-.67-1.51-1.5s.68-1.51,1.51-1.51,1.5.67,1.5,1.51-.67,1.5-1.5,1.5"/>
    <path class="st13" d="M454.88,1100.09c-.83,0-1.51.67-1.51,1.51s.68,1.5,1.51,1.5,1.5-.67,1.5-1.5-.67-1.51-1.5-1.51M452.07,1101.6c0-1.55,1.26-2.81,2.81-2.81s2.8,1.26,2.8,2.81-1.25,2.8-2.8,2.8-2.81-1.25-2.81-2.8"/>
    <path class="st13" d="M438.96,1101.6c0,1.15.95,2.1,2.1,2.1s2.11-.95,2.11-2.1-.94-2.11-2.11-2.11-2.1.94-2.1,2.11M462.35,1083.74h-15.51c-.58,0-1.06.35-1.06.79v34.13c0,.43.48.78,1.06.78h15.51c.59,0,1.06-.35,1.06-.78v-34.13c0-.44-.47-.79-1.06-.79M464.47,1083.74v35.7c0,.34-.47.63-1.06.63h-26.45v-37.12h26.45c.59,0,1.06.35,1.06.78"/>
  </g>
  <g class="st8">
    <path class="st3" d="M441.06,1099.49c1.17,0,2.11.95,2.11,2.11s-.94,2.1-2.11,2.1-2.1-.94-2.1-2.1.95-2.11,2.1-2.11Z"/>
    <path class="st3" d="M454.88,1098.79c1.55,0,2.8,1.26,2.8,2.81s-1.25,2.8-2.8,2.8-2.81-1.25-2.81-2.8,1.26-2.81,2.81-2.81Z"/>
    <path class="st3" d="M454.88,1100.09c.83,0,1.5.67,1.5,1.51s-.67,1.5-1.5,1.5-1.51-.67-1.51-1.5.68-1.51,1.51-1.51Z"/>
    <path class="st3" d="M446.84,1119.45h15.51c.59,0,1.06-.35,1.06-.78v-34.13c0-.44-.47-.79-1.06-.79h-15.51c-.58,0-1.06.35-1.06.79v34.13c0,.43.48.78,1.06.78Z"/>
  </g>
  <line class="st3" x1="445.14" y1="1082.96" x2="436.96" y2="1082.96"/>
  <g class="st11">
    <path class="st3" d="M436.96,1120.08h26.45c.59,0,1.06-.29,1.06-.63v-35.7c0-.43-.47-.78-1.06-.78h-8.38"/>
  </g>
  <line class="st3" x1="445.14" y1="1082.96" x2="455.03" y2="1082.96"/>
  <line class="st3" x1="436.96" y1="1082.96" x2="436.96" y2="1120.07"/>
  <polygon class="st13" points="661.34 765.17 653.24 766.52 645.81 770.23 645.81 770.57 646.15 770.57 646.82 770.57 647.16 770.57 647.5 770.57 647.84 770.57 649.52 769.56 651.21 768.88 652.56 769.22 653.57 770.23 653.57 770.91 653.24 771.24 647.84 775.97 644.12 782.05 678.55 782.05 674.84 775.97 669.44 771.24 668.76 770.91 669.1 770.23 670.11 769.22 671.46 768.88 673.15 769.56 674.84 770.57 675.18 770.57 675.51 770.57 675.85 770.57 676.53 770.57 676.86 770.23 669.44 766.52 661.34 765.17"/>
  <polygon class="st13" points="709.27 765.17 700.83 766.52 693.74 770.23 693.74 770.57 694.08 770.57 694.41 770.57 695.09 770.57 695.43 770.57 695.76 770.57 697.45 769.56 699.14 768.88 700.49 769.22 701.5 770.23 701.5 770.91 701.17 771.24 695.43 775.97 692.05 782.05 726.48 782.05 722.77 775.97 717.03 771.24 716.69 770.91 716.69 770.23 717.7 769.22 719.39 768.88 721.08 769.56 722.43 770.57 722.77 770.57 723.44 770.57 723.78 770.57 724.12 770.57 724.45 770.57 724.79 770.23 717.36 766.52 709.27 765.17"/>
  <polygon class="st13" points="726.48 782.04 692.05 782.04 678.55 782.04 644.12 782.04 637.37 782.04 637.37 845.84 644.12 845.84 678.55 845.84 692.05 845.84 726.48 845.84 732.89 845.84 732.89 782.04 726.48 782.04"/>
  <polygon class="st13" points="644.12 845.84 647.84 851.91 653.24 856.64 653.57 856.98 653.57 857.65 652.56 858.66 651.21 859 649.52 858.33 647.84 857.31 647.5 857.31 647.16 857.31 646.82 857.31 646.15 857.31 645.81 857.31 645.81 857.65 653.24 861.36 661.34 862.71 669.44 861.36 676.86 857.65 676.53 857.31 675.85 857.31 675.51 857.31 675.18 857.31 674.84 857.31 673.15 858.33 671.46 859 670.11 858.66 669.1 857.65 668.76 856.98 669.44 856.64 674.84 851.91 678.55 845.84 644.12 845.84"/>
  <polygon class="st13" points="692.05 845.84 695.43 851.91 701.17 856.64 701.5 856.98 701.5 857.65 700.49 858.66 699.14 859 697.45 858.33 695.76 857.31 695.43 857.31 695.09 857.31 694.41 857.31 694.08 857.31 693.74 857.31 693.74 857.65 700.83 861.36 709.27 862.71 717.37 861.36 724.79 857.65 724.46 857.31 724.12 857.31 723.78 857.31 723.44 857.31 722.77 857.31 722.43 857.31 721.08 858.33 719.39 859 717.71 858.66 716.69 857.65 716.69 856.98 717.03 856.64 722.77 851.91 726.48 845.84 692.05 845.84"/>
  <line class="st3" x1="647.84" y1="857.31" x2="647.5" y2="857.31"/>
  <line class="st3" x1="647.5" y1="857.31" x2="647.16" y2="857.31"/>
  <line class="st3" x1="646.15" y1="857.31" x2="646.82" y2="857.31"/>
  <line class="st3" x1="646.82" y1="857.31" x2="647.16" y2="857.31"/>
  <line class="st3" x1="645.81" y1="857.65" x2="645.81" y2="857.31"/>
  <line class="st3" x1="645.81" y1="857.31" x2="646.15" y2="857.31"/>
  <line class="st3" x1="653.57" y1="857.65" x2="652.56" y2="858.66"/>
  <line class="st3" x1="652.56" y1="858.66" x2="651.21" y2="859"/>
  <line class="st3" x1="651.21" y1="859" x2="649.52" y2="858.33"/>
  <line class="st3" x1="649.52" y1="858.33" x2="647.84" y2="857.31"/>
  <line class="st3" x1="653.24" y1="856.64" x2="653.57" y2="856.98"/>
  <line class="st3" x1="653.57" y1="856.98" x2="653.57" y2="857.65"/>
  <line class="st3" x1="653.24" y1="856.64" x2="647.84" y2="851.91"/>
  <line class="st3" x1="647.84" y1="851.91" x2="644.12" y2="845.84"/>
  <line class="st3" x1="674.84" y1="857.31" x2="675.18" y2="857.31"/>
  <line class="st3" x1="675.18" y1="857.31" x2="675.51" y2="857.31"/>
  <line class="st3" x1="676.53" y1="857.31" x2="675.85" y2="857.31"/>
  <line class="st3" x1="675.85" y1="857.31" x2="675.51" y2="857.31"/>
  <line class="st3" x1="676.86" y1="857.65" x2="676.53" y2="857.31"/>
  <line class="st3" x1="669.1" y1="857.65" x2="670.11" y2="858.66"/>
  <line class="st3" x1="670.11" y1="858.66" x2="671.46" y2="859"/>
  <line class="st3" x1="671.46" y1="859" x2="673.15" y2="858.33"/>
  <line class="st3" x1="673.15" y1="858.33" x2="674.84" y2="857.31"/>
  <line class="st3" x1="669.44" y1="856.64" x2="668.76" y2="856.98"/>
  <line class="st3" x1="668.76" y1="856.98" x2="669.1" y2="857.65"/>
  <line class="st3" x1="669.44" y1="856.64" x2="674.84" y2="851.91"/>
  <line class="st3" x1="674.84" y1="851.91" x2="678.55" y2="845.84"/>
  <line class="st3" x1="645.81" y1="857.65" x2="653.24" y2="861.36"/>
  <line class="st3" x1="653.24" y1="861.36" x2="661.34" y2="862.71"/>
  <line class="st3" x1="661.34" y1="862.71" x2="669.44" y2="861.36"/>
  <line class="st3" x1="669.44" y1="861.36" x2="676.86" y2="857.65"/>
  <line class="st3" x1="647.84" y1="770.57" x2="647.5" y2="770.57"/>
  <line class="st3" x1="647.5" y1="770.57" x2="647.16" y2="770.57"/>
  <line class="st3" x1="646.15" y1="770.57" x2="646.82" y2="770.57"/>
  <line class="st3" x1="646.82" y1="770.57" x2="647.16" y2="770.57"/>
  <line class="st3" x1="645.81" y1="770.23" x2="645.81" y2="770.57"/>
  <line class="st3" x1="645.81" y1="770.57" x2="646.15" y2="770.57"/>
  <line class="st3" x1="653.57" y1="770.23" x2="652.56" y2="769.22"/>
  <line class="st3" x1="652.56" y1="769.22" x2="651.21" y2="768.88"/>
  <line class="st3" x1="651.21" y1="768.88" x2="649.52" y2="769.56"/>
  <line class="st3" x1="649.52" y1="769.56" x2="647.84" y2="770.57"/>
  <line class="st3" x1="653.24" y1="771.24" x2="653.57" y2="770.91"/>
  <line class="st3" x1="653.57" y1="770.91" x2="653.57" y2="770.23"/>
  <line class="st3" x1="653.24" y1="771.24" x2="647.84" y2="775.97"/>
  <line class="st3" x1="647.84" y1="775.97" x2="644.12" y2="782.04"/>
  <line class="st3" x1="674.84" y1="770.57" x2="675.18" y2="770.57"/>
  <line class="st3" x1="675.18" y1="770.57" x2="675.51" y2="770.57"/>
  <line class="st3" x1="676.53" y1="770.57" x2="675.85" y2="770.57"/>
  <line class="st3" x1="675.85" y1="770.57" x2="675.51" y2="770.57"/>
  <line class="st3" x1="676.86" y1="770.23" x2="676.53" y2="770.57"/>
  <line class="st3" x1="669.1" y1="770.23" x2="670.11" y2="769.22"/>
  <line class="st3" x1="670.11" y1="769.22" x2="671.46" y2="768.88"/>
  <line class="st3" x1="671.46" y1="768.88" x2="673.15" y2="769.56"/>
  <line class="st3" x1="673.15" y1="769.56" x2="674.84" y2="770.57"/>
  <line class="st3" x1="669.44" y1="771.24" x2="668.76" y2="770.91"/>
  <line class="st3" x1="668.76" y1="770.91" x2="669.1" y2="770.23"/>
  <line class="st3" x1="669.44" y1="771.24" x2="674.84" y2="775.97"/>
  <line class="st3" x1="674.84" y1="775.97" x2="678.55" y2="782.04"/>
  <line class="st3" x1="645.81" y1="770.23" x2="653.24" y2="766.52"/>
  <line class="st3" x1="653.24" y1="766.52" x2="661.34" y2="765.17"/>
  <line class="st3" x1="661.34" y1="765.17" x2="669.44" y2="766.52"/>
  <line class="st3" x1="669.44" y1="766.52" x2="676.86" y2="770.23"/>
  <line class="st3" x1="637.37" y1="782.04" x2="637.37" y2="845.84"/>
  <line class="st3" x1="722.43" y1="857.31" x2="722.77" y2="857.31"/>
  <line class="st3" x1="722.77" y1="857.31" x2="723.44" y2="857.31"/>
  <line class="st3" x1="724.12" y1="857.31" x2="723.78" y2="857.31"/>
  <line class="st3" x1="723.78" y1="857.31" x2="723.44" y2="857.31"/>
  <line class="st3" x1="724.79" y1="857.65" x2="724.46" y2="857.31"/>
  <line class="st3" x1="724.45" y1="857.31" x2="724.12" y2="857.31"/>
  <line class="st3" x1="716.69" y1="857.65" x2="717.7" y2="858.66"/>
  <line class="st3" x1="717.7" y1="858.66" x2="719.39" y2="859"/>
  <line class="st3" x1="719.39" y1="859" x2="721.08" y2="858.33"/>
  <line class="st3" x1="721.08" y1="858.33" x2="722.43" y2="857.31"/>
  <line class="st3" x1="717.03" y1="856.64" x2="716.69" y2="856.98"/>
  <line class="st3" x1="716.69" y1="856.98" x2="716.69" y2="857.65"/>
  <line class="st3" x1="717.03" y1="856.64" x2="722.77" y2="851.91"/>
  <line class="st3" x1="722.77" y1="851.91" x2="726.48" y2="845.84"/>
  <line class="st3" x1="695.76" y1="857.31" x2="695.43" y2="857.31"/>
  <line class="st3" x1="695.43" y1="857.31" x2="695.09" y2="857.31"/>
  <line class="st3" x1="694.08" y1="857.31" x2="694.41" y2="857.31"/>
  <line class="st3" x1="694.41" y1="857.31" x2="695.09" y2="857.31"/>
  <line class="st3" x1="693.74" y1="857.65" x2="693.74" y2="857.31"/>
  <line class="st3" x1="693.74" y1="857.31" x2="694.08" y2="857.31"/>
  <line class="st3" x1="701.5" y1="857.65" x2="700.49" y2="858.66"/>
  <line class="st3" x1="700.49" y1="858.66" x2="699.14" y2="859"/>
  <line class="st3" x1="699.14" y1="859" x2="697.45" y2="858.33"/>
  <line class="st3" x1="697.45" y1="858.33" x2="695.76" y2="857.31"/>
  <line class="st3" x1="701.17" y1="856.64" x2="701.5" y2="856.98"/>
  <line class="st3" x1="701.5" y1="856.98" x2="701.5" y2="857.65"/>
  <line class="st3" x1="701.17" y1="856.64" x2="695.43" y2="851.91"/>
  <line class="st3" x1="695.43" y1="851.91" x2="692.05" y2="845.84"/>
  <line class="st3" x1="724.79" y1="857.65" x2="717.37" y2="861.36"/>
  <line class="st3" x1="717.37" y1="861.36" x2="709.27" y2="862.71"/>
  <line class="st3" x1="709.27" y1="862.71" x2="700.83" y2="861.36"/>
  <line class="st3" x1="700.83" y1="861.36" x2="693.74" y2="857.65"/>
  <line class="st3" x1="722.43" y1="770.57" x2="722.77" y2="770.57"/>
  <line class="st3" x1="722.77" y1="770.57" x2="723.44" y2="770.57"/>
  <line class="st3" x1="724.12" y1="770.57" x2="723.78" y2="770.57"/>
  <line class="st3" x1="723.78" y1="770.57" x2="723.44" y2="770.57"/>
  <line class="st3" x1="724.79" y1="770.23" x2="724.46" y2="770.57"/>
  <line class="st3" x1="724.45" y1="770.57" x2="724.12" y2="770.57"/>
  <line class="st3" x1="716.69" y1="770.23" x2="717.7" y2="769.22"/>
  <line class="st3" x1="717.7" y1="769.22" x2="719.39" y2="768.88"/>
  <line class="st3" x1="719.39" y1="768.88" x2="721.08" y2="769.56"/>
  <line class="st3" x1="721.08" y1="769.56" x2="722.43" y2="770.57"/>
  <line class="st3" x1="717.03" y1="771.24" x2="716.69" y2="770.91"/>
  <line class="st3" x1="716.69" y1="770.91" x2="716.69" y2="770.23"/>
  <line class="st3" x1="717.03" y1="771.24" x2="722.77" y2="775.97"/>
  <line class="st3" x1="722.77" y1="775.97" x2="726.48" y2="782.04"/>
  <line class="st3" x1="695.76" y1="770.57" x2="695.43" y2="770.57"/>
  <line class="st3" x1="695.43" y1="770.57" x2="695.09" y2="770.57"/>
  <line class="st3" x1="694.08" y1="770.57" x2="694.41" y2="770.57"/>
  <line class="st3" x1="694.41" y1="770.57" x2="695.09" y2="770.57"/>
  <line class="st3" x1="693.74" y1="770.23" x2="693.74" y2="770.57"/>
  <line class="st3" x1="693.74" y1="770.57" x2="694.08" y2="770.57"/>
  <line class="st3" x1="701.5" y1="770.23" x2="700.49" y2="769.22"/>
  <line class="st3" x1="700.49" y1="769.22" x2="699.14" y2="768.88"/>
  <line class="st3" x1="699.14" y1="768.88" x2="697.45" y2="769.56"/>
  <line class="st3" x1="697.45" y1="769.56" x2="695.76" y2="770.57"/>
  <line class="st3" x1="701.17" y1="771.24" x2="701.5" y2="770.91"/>
  <line class="st3" x1="701.5" y1="770.91" x2="701.5" y2="770.23"/>
  <line class="st3" x1="701.17" y1="771.24" x2="695.43" y2="775.97"/>
  <line class="st3" x1="695.43" y1="775.97" x2="692.05" y2="782.04"/>
  <line class="st3" x1="724.79" y1="770.23" x2="717.37" y2="766.52"/>
  <line class="st3" x1="717.37" y1="766.52" x2="709.27" y2="765.17"/>
  <line class="st3" x1="709.27" y1="765.17" x2="700.83" y2="766.52"/>
  <line class="st3" x1="700.83" y1="766.52" x2="693.74" y2="770.23"/>
  <line class="st3" x1="732.89" y1="782.04" x2="732.89" y2="845.84"/>
  <polyline class="st3" points="732.89 845.84 726.48 845.84 692.05 845.84 678.55 845.84 644.12 845.84 637.37 845.84"/>
  <polyline class="st3" points="637.37 782.04 644.12 782.04 678.55 782.04 692.05 782.04 726.48 782.04 732.89 782.04"/>
  <line class="st3" x1="715.07" y1="1040.21" x2="725.74" y2="1040.21"/>
  <rect class="st3" x="685.04" y="1016.24" width="47.78" height="117.89"/>
  <line class="st3" x1="717.81" y1="1096.31" x2="717.81" y2="1106.74"/>
  <line class="st3" x1="698.2" y1="1096.31" x2="698.2" y2="1106.74"/>
  <line class="st3" x1="703.35" y1="1101.46" x2="692.92" y2="1101.46"/>
  <line class="st3" x1="723.1" y1="1101.46" x2="712.67" y2="1101.46"/>
  <rect class="st3" x="688.33" y="1090.33" width="39.36" height="22.95"/>
  <rect class="st3" x="695.41" y="1026.87" width="26.54" height="26.54"/>
  <rect class="st3" x="688.81" y="1020.26" width="39.75" height="39.89"/>
  <g class="st10">
    <path class="st13" d="M532.4,885.32c11.74,0,21.27,9.52,21.27,21.27s-9.52,21.27-21.27,21.27-21.27-9.52-21.27-21.27,9.52-21.27,21.27-21.27"/>
    <circle class="st1" cx="532.4" cy="906.59" r="21.27"/>
  </g>
</svg>