<?xml version="1.0" encoding="UTF-8"?>
<svg id="Lag_1" xmlns="http://www.w3.org/2000/svg" version="1.1" viewBox="0 0 1200 1697.14">
  <!-- Generator: Adobe Illustrator 29.6.0, SVG Export Plug-In . SVG Version: 2.1.1 Build 207)  -->
  <defs>
    <style>
      .st0, .st1, .st2, .st3, .st4, .st5, .st6 {
        fill: none;
      }

      .st7 {
        fill: #000016;
      }

      .st8, .st1, .st9, .st2, .st10, .st3, .st11, .st4, .st12, .st13, .st5, .st6 {
        stroke-width: .18px;
      }

      .st8, .st1, .st9, .st2, .st3, .st11, .st4, .st12, .st13, .st5, .st6 {
        stroke-linejoin: round;
      }

      .st8, .st1, .st9, .st2, .st3, .st4, .st12, .st5, .st6 {
        stroke-linecap: round;
      }

      .st8, .st10, .st11, .st12, .st13 {
        fill: #fff;
      }

      .st8, .st11 {
        stroke: #060305;
      }

      .st14 {
        fill: #e8e3e0;
      }

      .st1, .st9, .st2, .st10, .st3, .st4, .st12, .st13, .st5, .st6 {
        stroke: #000;
      }

      .st9 {
        fill: #3f3e3e;
      }

      .st2 {
        stroke-dasharray: .06 .43;
      }

      .st10 {
        stroke-miterlimit: 10;
      }

      .st3 {
        stroke-dasharray: .06 .43;
      }

      .st15 {
        fill: #dbd7d5;
      }

      .st4 {
        stroke-dasharray: .06 .42;
      }

      .st5 {
        stroke-dasharray: .06 .42;
      }

      .st6 {
        stroke-dasharray: .06 .43;
      }
    </style>
  </defs>
  <polygon class="st14" points="539.78 696.1 539.78 1007.48 549.9 1007.48 549.9 946.47 580.1 946.47 580.1 1007.48 656.33 1007.48 656.33 696.1 539.78 696.1"/>
  <rect class="st15" x="554.48" y="888.35" width="98.11" height="56.04"/>
  <path class="st10" d="M560.16,933.29v-10c0-3.85,2.77-6.96,6.18-6.96s6.18,3.11,6.18,6.96v10h-12.36Z"/>
  <polygon class="st12" points="578.13 933.29 554.45 933.29 554.38 943.88 578.13 943.91 578.13 933.29"/>
  <path class="st12" d="M601.49,878.44v9.06c0,.2-.13.36-.29.36h-16.52c-.2,0-.36-.16-.36-.36v-9.06"/>
  <polyline class="st12" points="566.27 694.35 566.27 699.52 564.52 699.52 564.52 694.35 566.27 694.35"/>
  <polyline class="st1" points="615.97 694.35 566.27 694.35 566.27 696.03 615.97 696.03 615.97 694.35"/>
  <polyline class="st12" points="640.86 694.35 617.72 694.35 617.72 696.9 640.86 696.9 640.86 694.35"/>
  <polyline class="st12" points="642.61 694.35 642.61 699.52 640.86 699.52 640.86 694.35 642.61 694.35"/>
  <polyline class="st12" points="617.72 694.35 617.72 699.52 615.97 699.52 615.97 694.35 617.72 694.35"/>
  <line class="st1" x1="564.52" y1="693.34" x2="642.61" y2="693.34"/>
  <polygon class="st9" points="607.9 891.29 607.9 874.12 554.55 874.12 554.55 878.26 603.75 878.26 603.75 891.29 607.9 891.29"/>
  <g>
    <polygon class="st7" points="564.52 714.73 564.52 693.34 532.72 693.34 532.64 728.41 532.57 790.35 532.57 817.86 534.97 817.86 534.83 879.72 532.43 879.72 532.43 907.23 534.83 907.23 534.75 969.09 532.35 969.09 532.28 996.6 534.68 996.6 534.68 1015.74 554.4 1015.82 554.62 714.73 564.52 714.73"/>
    <polygon class="st7" points="582.28 1004.1 582.28 930.16 607.9 930.16 607.9 922.59 603.75 922.59 603.75 926.01 578.13 926.01 578.13 943.91 554.55 943.91 554.55 948.06 578.13 948.06 578.13 1004.1 575.58 1004.1 575.58 1009.27 620.05 1009.27 620.05 1004.1 582.28 1004.1"/>
  </g>
  <path class="st1" d="M649.63,979.64c-15.37,0-27.84,12.46-27.84,27.84"/>
  <line class="st1" x1="649.67" y1="1007.52" x2="649.67" y2="979.64"/>
  <line class="st1" x1="621.8" y1="1007.52" x2="649.67" y2="1007.52"/>
  <path class="st1" d="M648.21,979.68"/>
  <path class="st1" d="M633.66,920.91h-27.87v-27.87h-.04c15.37,0,27.84,12.46,27.84,27.84"/>
  <polyline class="st12" points="602.87 930.88 582.28 930.88 582.28 1003.08 602.87 1003.08 602.87 930.88"/>
  <polyline class="st1" points="599.45 999.66 585.7 999.66 585.7 985.9 599.45 985.9 599.45 999.66"/>
  <polyline class="st1" points="582.28 982.41 582.28 1003.08 602.87 1003.08 602.87 982.41 582.28 982.41"/>
  <polyline class="st1" points="582.28 942.89 602.87 942.89 602.87 930.88 582.28 930.88 582.28 942.89"/>
  <line class="st1" x1="584.68" y1="937.07" x2="590.14" y2="937.07"/>
  <line class="st1" x1="595.01" y1="937.07" x2="600.47" y2="937.07"/>
  <line class="st1" x1="597.71" y1="939.76" x2="597.71" y2="934.3"/>
  <line class="st1" x1="587.45" y1="939.76" x2="587.45" y2="934.3"/>
  <path class="st1" d="M592.25,880.12c0,.34.28.62.62.62s.62-.28.62-.62-.28-.62-.62-.62-.62.28-.62.62"/>
  <path class="st1" d="M592.1,884.49c0,.42.34.76.76.76s.76-.34.76-.76-.34-.76-.76-.76-.76.34-.76.76"/>
  <path class="st1" d="M591.74,884.49c0,.62.51,1.13,1.13,1.13s1.13-.51,1.13-1.13-.5-1.13-1.13-1.13-1.13.51-1.13,1.13"/>
  <path class="st12" d="M570.34,886.16c0-.94-.77-1.71-1.71-1.71s-1.71.77-1.71,1.71.77,1.71,1.71,1.71,1.71-.77,1.71-1.71"/>
  <rect class="st1" x="584.68" y="881.47" width="16.52" height="6.04" rx=".36" ry=".36"/>
  <rect class="st12" x="590.72" y="853.45" width="17.18" height="20.67"/>
  <rect class="st12" x="572.6" y="853.45" width="17.25" height="20.67"/>
  <rect class="st12" x="554.54" y="853.45" width="17.26" height="20.67"/>
  <g>
    <polyline class="st1" points="554.91 906.04 554.91 906.07 554.94 906.07"/>
    <line class="st6" x1="555.37" y1="906.07" x2="582.18" y2="906.07"/>
    <polyline class="st1" points="582.4 906.07 582.42 906.07 582.42 906.04"/>
    <line class="st6" x1="582.42" y1="905.61" x2="582.42" y2="878.8"/>
    <polyline class="st1" points="582.42 878.58 582.42 878.56 582.4 878.56"/>
    <line class="st6" x1="581.97" y1="878.56" x2="555.16" y2="878.56"/>
    <polyline class="st1" points="554.94 878.56 554.91 878.56 554.91 878.58"/>
    <line class="st6" x1="554.91" y1="879.01" x2="554.91" y2="905.82"/>
  </g>
  <g>
    <path class="st8" d="M575.84,778.49c1.21,7.43,1.33,15.05.37,22.53,0,.32-.19.6-.46.67-6.27.02-12.53.05-18.8.07"/>
    <path class="st8" d="M575.84,778.49c-.02-.12-.11-.22-.22-.23h-18.43l-.25,23.51c6.27.02,12.53.05,18.8.07.27.07.46.35.46.67.97,7.48.85,15.09-.37,22.53-.02.12-.11.22-.22.23h-18.68v-23.49"/>
    <path class="st8" d="M556,778.59c.59-.07,1.16-.08,1.75-.01.11.02.2.13.2.26.18,7.52.22,15.03.13,22.54-.02.19-.16.33-.33.34-.64.05-1.28.04-1.92-.03"/>
    <path class="st8" d="M556,824.94c.59.07,1.16.08,1.75.01.11-.02.2-.13.2-.26.18-7.52.22-15.03.13-22.54-.02-.19-.16-.33-.33-.34-.64-.05-1.28-.04-1.92.03"/>
    <path class="st8" d="M555.66,825.23h-.2c-.07,0-.12-.06-.12-.14v-46.64c0-.08.05-.14.12-.14h.2l.14.06v.35s-.14,46.5-.14,46.5Z"/>
    <path class="st8" d="M559.62,779.35c0-.46-1.08-.83-2.42-.83-.11,0-.21,0-.32.01l-.87.06c-.11.02-.2.13-.2.26v22.87h1.95c.63-.01,1.27-.02,1.9-.04.27-.07.46-.35.46-.67,1.02-7.19.85-14.55-.49-21.67Z"/>
    <path class="st8" d="M559.62,824.15c0,.46-1.08.83-2.42.83-.11,0-.21,0-.32-.01l-.87-.06c-.11-.02-.2-.13-.2-.26v-22.87h1.95c.63.01,1.27.02,1.9.04.27.07.46.35.46.67,1.02,7.19.85,14.55-.49,21.67Z"/>
    <path class="st8" d="M557.93,778.75c.26.1.52.19.79.26.3.14.61.26.92.36.43.14.85.28,1.28.42.59.2,1.18.34,1.79.43.37.05.75.09,1.12.12.4.03.8.05,1.2.08.95.05,1.9.05,2.85,0,.96-.05,1.9-.18,2.85-.4.71-.16,1.39-.39,2.07-.69.43-.19.75-.46,1.03-.88.02-.04.03-.07.03-.11v-.41c-.04-.11-.1-.18-.2-.23h-18.15c-.11,0-.2.1-.2.23v.13h0c0,.13.09.23.2.24.25.03.5.07.75.1.33.02.66.07.99.15l.66.2Z"/>
    <path class="st8" d="M557.93,824.79c.26-.1.52-.19.79-.26.3-.14.61-.26.92-.36.43-.14.85-.28,1.28-.42.59-.2,1.18-.34,1.79-.43.37-.05.75-.09,1.12-.12.4-.03.8-.05,1.2-.08.95-.05,1.9-.05,2.85,0,.96.05,1.9.18,2.85.4.71.16,1.39.39,2.07.69.43.19.75.46,1.03.88.02.04.03.07.03.11v.41c-.04.11-.1.18-.2.23h-18.15c-.11,0-.2-.1-.2-.23v-.13h0c0-.13.09-.23.2-.24.25-.03.5-.07.75-.1.33-.02.66-.07.99-.15l.66-.2Z"/>
  </g>
  <polyline class="st0" points="582.28 944.39 652.58 944.39 652.58 888.35 554.5 888.35"/>
  <g>
    <path class="st1" d="M617.72,693.68s0-.02,0-.03"/>
    <path class="st2" d="M617.75,693.23c.28-3.03,3-11.9,3.7-11.9l18.85,12.65.22.15"/>
    <line class="st1" x1="640.7" y1="694.26" x2="640.72" y2="694.27"/>
  </g>
  <line class="st1" x1="578.13" y1="948.06" x2="554.4" y2="1004.1"/>
  <line class="st1" x1="554.55" y1="948.06" x2="578.13" y2="1004.1"/>
  <line class="st1" x1="589.03" y1="992.74" x2="583.49" y2="992.74"/>
  <circle class="st11" cx="591.74" cy="787.25" r="9.43"/>
  <g>
    <g>
      <path class="st12" d="M585.42,745.01c0,4.46,3.85,8.08,8.59,8.08,3.49,0,6.96-2.29,8.15-5.5.16-.44.49-1.36.45-2.58-.15-3.8-3.93-8.08-8.59-8.08s-8.59,3.62-8.59,8.08Z"/>
      <path class="st1" d="M601.48,746.83c0,2.74-3.34,4.96-7.46,4.96"/>
      <path class="st1" d="M586.56,746.83c0,2.74,3.34,4.96,7.46,4.96"/>
      <path class="st1" d="M586.56,746.83c0-.54-.43-.98-.96-.98"/>
      <path class="st1" d="M601.48,746.83c0-.54.43-.98.96-.98"/>
      <g>
        <path class="st12" d="M606.59,745.01c0,4.46,3.85,8.08,8.59,8.08,3.49,0,6.96-2.29,8.15-5.5.16-.44.49-1.36.45-2.58-.15-3.8-3.93-8.08-8.59-8.08s-8.59,3.62-8.59,8.08Z"/>
        <path class="st1" d="M622.65,746.83c0,2.74-3.34,4.96-7.46,4.96"/>
        <path class="st1" d="M607.72,746.83c0,2.74,3.34,4.96,7.46,4.96"/>
        <path class="st1" d="M607.72,746.83c0-.54-.43-.98-.96-.98"/>
        <path class="st1" d="M622.65,746.83c0-.54.46-.98,1.04-.98"/>
      </g>
    </g>
    <g>
      <path class="st12" d="M585.42,718.4c0-4.46,3.85-8.08,8.59-8.08,3.49,0,6.96,2.29,8.15,5.5.16.44.49,1.36.45,2.58-.15,3.8-3.93,8.08-8.59,8.08s-8.59-3.62-8.59-8.08Z"/>
      <path class="st1" d="M601.48,716.59c0-2.74-3.34-4.96-7.46-4.96"/>
      <path class="st1" d="M586.56,716.59c0-2.74,3.34-4.96,7.46-4.96"/>
      <path class="st1" d="M586.56,716.59c0,.54-.43.98-.96.98"/>
      <path class="st1" d="M601.48,716.59c0,.54.43.98.96.98"/>
      <g>
        <path class="st12" d="M606.59,718.4c0-4.46,3.85-8.08,8.59-8.08,3.49,0,6.96,2.29,8.15,5.5.16.44.49,1.36.45,2.58-.15,3.8-3.93,8.08-8.59,8.08s-8.59-3.62-8.59-8.08Z"/>
        <path class="st1" d="M622.65,716.59c0-2.74-3.34-4.96-7.46-4.96"/>
        <path class="st1" d="M607.72,716.59c0-2.74,3.34-4.96,7.46-4.96"/>
        <path class="st1" d="M607.72,716.59c0,.54-.43.98-.96.98"/>
        <path class="st1" d="M622.65,716.59c0,.54.46.98,1.04.98"/>
      </g>
    </g>
    <rect class="st12" x="593.43" y="710.1" width="22.35" height="43.8" transform="translate(1336.6 127.4) rotate(90)"/>
  </g>
  <line class="st1" x1="568.67" y1="878.56" x2="568.67" y2="886.2"/>
  <g>
    <polyline class="st13" points="652.62 717.72 651.31 717.72 651.31 726.13 652.62 726.13"/>
    <polyline class="st13" points="651.31 727.08 651.31 716.77 649.92 716.77 649.92 727.08 651.31 727.08"/>
  </g>
  <polygon class="st7" points="667.72 714.88 667.72 693.34 642.61 693.34 642.61 714.81 652.58 714.83 652.58 1004.1 651.34 1004.1 651.34 1009.27 655.13 1009.27 658.91 1009.27 658.91 1004.1 657.75 1004.1 657.75 714.85 667.72 714.88"/>
  <g>
    <line class="st1" x1="602.96" y1="944.39" x2="602.99" y2="944.39"/>
    <line class="st4" x1="603.41" y1="944.39" x2="653.22" y2="944.39"/>
    <polyline class="st1" points="653.44 944.39 653.46 944.39 653.46 944.36"/>
    <line class="st5" x1="653.46" y1="943.94" x2="653.46" y2="888.48"/>
    <polyline class="st1" points="653.46 888.26 653.46 888.24 653.44 888.24"/>
    <line class="st3" x1="653.01" y1="888.24" x2="554.28" y2="888.24"/>
    <polyline class="st1" points="554.07 888.24 554.04 888.24 554.04 888.26"/>
    <line class="st5" x1="554.04" y1="888.69" x2="554.04" y2="944.15"/>
    <line class="st1" x1="554.04" y1="944.36" x2="554.04" y2="944.39"/>
  </g>
</svg>