<?xml version="1.0" encoding="UTF-8"?>
<svg id="Lag_1" xmlns="http://www.w3.org/2000/svg" version="1.1" viewBox="0 0 1200 1697.14">
  <!-- Generator: Adobe Illustrator 29.6.0, SVG Export Plug-In . SVG Version: 2.1.1 Build 207)  -->
  <defs>
    <style>
      .st0 {
        stroke-dasharray: .06 .43;
      }

      .st0, .st1, .st2, .st3, .st4, .st5, .st6, .st7, .st8, .st9 {
        stroke-width: .18px;
      }

      .st0, .st1, .st2, .st3, .st5, .st7, .st8, .st9 {
        stroke-linejoin: round;
      }

      .st0, .st1, .st2, .st3, .st7, .st8 {
        stroke-linecap: round;
      }

      .st0, .st1, .st3, .st5, .st6, .st7, .st8, .st9 {
        stroke: #000;
      }

      .st0, .st1, .st3, .st5, .st7 {
        fill: none;
      }

      .st10 {
        fill: #000016;
      }

      .st1 {
        stroke-dasharray: .06 .43;
      }

      .st2, .st4 {
        stroke: #060305;
      }

      .st2, .st4, .st6, .st8, .st9 {
        fill: #fff;
      }

      .st11 {
        fill: #e8e3e0;
      }

      .st4, .st6 {
        stroke-miterlimit: 10;
      }

      .st7 {
        stroke-dasharray: .06 .43;
      }
    </style>
  </defs>
  <polygon class="st11" points="632.45 725.62 632.45 694.36 538.42 694.36 538.42 891.57 551.33 891.57 551.33 994.94 660.69 994.94 660.69 725.62 632.45 725.62"/>
  <g>
    <path class="st3" d="M594.26,997.24s0,.02,0,.03"/>
    <path class="st7" d="M594.23,997.69c-.33,2.69-3.09,10.33-3.81,10.33l-19.41-11.04-.22-.13"/>
    <line class="st3" x1="570.6" y1="996.73" x2="570.57" y2="996.72"/>
  </g>
  <g>
    <path class="st3" d="M536.21,842.73s-.02,0-.03,0"/>
    <path class="st0" d="M535.77,842.7c-2.59-.32-9.86-2.94-9.86-3.62l10.56-18.5.12-.2"/>
    <line class="st3" x1="536.69" y1="820.18" x2="536.71" y2="820.16"/>
  </g>
  <rect class="st9" x="641.12" y="798.77" width="17.53" height="21.09"/>
  <rect class="st9" x="622.63" y="798.77" width="17.6" height="21.09"/>
  <rect class="st9" x="604.2" y="798.77" width="17.61" height="21.09"/>
  <polygon class="st9" points="658.71 738.38 634.54 738.38 634.47 727.57 658.71 727.54 658.71 738.38"/>
  <line class="st3" x1="658.65" y1="798.96" x2="657.16" y2="798.96"/>
  <line class="st3" x1="655.23" y1="798.96" x2="653.97" y2="798.96"/>
  <line class="st3" x1="652.11" y1="798.96" x2="650.85" y2="798.96"/>
  <line class="st3" x1="648.92" y1="798.96" x2="647.66" y2="798.96"/>
  <line class="st3" x1="645.8" y1="798.96" x2="644.54" y2="798.96"/>
  <line class="st3" x1="658.65" y1="816.41" x2="658.65" y2="815.15"/>
  <line class="st3" x1="658.65" y1="813.22" x2="658.65" y2="811.95"/>
  <line class="st3" x1="658.65" y1="810.1" x2="658.65" y2="808.83"/>
  <line class="st3" x1="658.65" y1="806.9" x2="658.65" y2="805.64"/>
  <line class="st3" x1="658.65" y1="803.78" x2="658.65" y2="802.52"/>
  <line class="st3" x1="658.65" y1="800.59" x2="658.65" y2="798.96"/>
  <line class="st3" x1="621.81" y1="798.96" x2="620.33" y2="798.96"/>
  <line class="st3" x1="618.4" y1="798.96" x2="617.14" y2="798.96"/>
  <line class="st3" x1="615.28" y1="798.96" x2="614.02" y2="798.96"/>
  <line class="st3" x1="612.09" y1="798.96" x2="610.82" y2="798.96"/>
  <line class="st3" x1="608.89" y1="798.96" x2="607.63" y2="798.96"/>
  <line class="st3" x1="640.23" y1="798.96" x2="638.75" y2="798.96"/>
  <line class="st3" x1="636.82" y1="798.96" x2="635.55" y2="798.96"/>
  <line class="st3" x1="633.7" y1="798.96" x2="632.43" y2="798.96"/>
  <line class="st3" x1="630.5" y1="798.96" x2="629.24" y2="798.96"/>
  <line class="st3" x1="627.38" y1="798.96" x2="626.12" y2="798.96"/>
  <line class="st3" x1="606.37" y1="751.21" x2="577.92" y2="751.21"/>
  <path class="st3" d="M577.92,751.17c0,15.69,12.72,28.41,28.41,28.41"/>
  <line class="st3" x1="606.37" y1="779.65" x2="606.37" y2="751.21"/>
  <line class="st3" x1="561.66" y1="694.4" x2="561.66" y2="722.76"/>
  <path class="st3" d="M561.62,722.76c15.69,0,28.41-12.72,28.41-28.41"/>
  <line class="st3" x1="590.03" y1="694.4" x2="561.66" y2="694.4"/>
  <polyline class="st8" points="609.34 741.03 630.43 741.03 630.43 698.93 609.34 698.93 609.34 741.03"/>
  <polyline class="st3" points="630.43 728.78 609.34 728.78 609.34 741.03 630.43 741.03 630.43 728.78"/>
  <line class="st3" x1="627.98" y1="734.72" x2="622.33" y2="734.72"/>
  <line class="st3" x1="617.43" y1="734.72" x2="611.79" y2="734.72"/>
  <line class="st3" x1="614.61" y1="731.9" x2="614.61" y2="737.54"/>
  <line class="st3" x1="625.16" y1="731.9" x2="625.16" y2="737.54"/>
  <polyline class="st3" points="612.83 702.42 626.86 702.42 626.86 716.45 612.83 716.45 612.83 702.42"/>
  <polyline class="st3" points="630.43 720.02 630.43 698.93 609.34 698.93 609.34 720.02 630.43 720.02"/>
  <line class="st3" x1="628.79" y1="709.47" x2="623.22" y2="709.47"/>
  <polyline class="st8" points="536.71 820.12 536.63 842.92 539.31 842.92 539.31 820.12 536.71 820.12"/>
  <polyline class="st8" points="536.63 844.63 541.91 844.63 541.91 846.41 536.63 846.41 536.63 844.63"/>
  <polyline class="st8" points="536.56 877.97 541.83 877.97 541.83 879.76 536.56 879.76 536.56 877.97"/>
  <polyline class="st8" points="536.63 846.41 536.56 877.97 538.34 877.97 538.42 846.41 536.63 846.41"/>
  <polyline class="st8" points="536.71 818.34 541.91 818.34 541.91 820.12 536.71 820.12 536.71 818.34"/>
  <polyline class="st8" points="536.63 842.92 541.91 842.92 541.91 844.63 536.63 844.63 536.63 842.92"/>
  <line class="st3" x1="535.52" y1="879.76" x2="535.59" y2="818.34"/>
  <polyline class="st8" points="646.69 996.72 646.69 991.45 648.47 991.45 648.47 996.72 646.69 996.72"/>
  <polyline class="st8" points="595.97 996.72 646.69 996.72 646.69 994.94 595.97 994.94 595.97 996.72"/>
  <polyline class="st8" points="570.57 996.72 594.26 996.72 594.26 994.05 570.57 994.05 570.57 996.72"/>
  <polyline class="st8" points="568.79 996.72 568.79 991.45 570.57 991.45 570.57 996.72 568.79 996.72"/>
  <polyline class="st8" points="594.26 996.72 594.26 991.45 595.97 991.45 595.97 996.72 594.26 996.72"/>
  <line class="st3" x1="648.47" y1="997.76" x2="568.79" y2="997.76"/>
  <path class="st9" d="M642.47,786.5c0,.96.78,1.75,1.75,1.75.96,0,1.75-.78,1.75-1.75,0-.96-.78-1.75-1.75-1.75-.96,0-1.75.78-1.75,1.75"/>
  <path class="st6" d="M640.37,738.38v10.2c0,3.93,2.82,7.1,6.31,7.1s6.31-3.18,6.31-7.1v-10.2s-12.61,0-12.61,0Z"/>
  <path class="st9" d="M628.25,794.5v-9.25c0-.21-.13-.37-.3-.37h-16.86c-.21,0-.37.17-.37.37v9.25"/>
  <path class="st5" d="M618.82,792.79c0-.35.28-.63.63-.63s.63.28.63.63c0,.35-.28.63-.63.63s-.63-.28-.63-.63"/>
  <path class="st5" d="M618.67,788.34c0-.43.35-.78.78-.78s.78.35.78.78-.35.78-.78.78-.78-.35-.78-.78"/>
  <path class="st5" d="M618.3,788.34c0-.64.52-1.15,1.15-1.15s1.15.52,1.15,1.15-.52,1.15-1.15,1.15c-.64,0-1.15-.52-1.15-1.15"/>
  <path class="st5" d="M611.46,785.25h16.04c.2,0,.37.17.37.37v5.42c0,.2-.17.37-.37.37h-16.04c-.2,0-.37-.17-.37-.37v-5.42c0-.2.17-.37.37-.37Z"/>
  <g>
    <polyline class="st3" points="630.14 766.22 630.14 766.19 630.17 766.19"/>
    <line class="st1" x1="630.6" y1="766.19" x2="657.97" y2="766.19"/>
    <polyline class="st3" points="658.18 766.19 658.21 766.19 658.21 766.22"/>
    <line class="st1" x1="658.21" y1="766.64" x2="658.21" y2="794.02"/>
    <polyline class="st3" points="658.21 794.23 658.21 794.26 658.18 794.26"/>
    <line class="st1" x1="657.76" y1="794.26" x2="630.38" y2="794.26"/>
    <polyline class="st3" points="630.17 794.26 630.14 794.26 630.14 794.23"/>
    <line class="st1" x1="630.14" y1="793.8" x2="630.14" y2="766.43"/>
  </g>
  <line class="st5" x1="644.18" y1="794.26" x2="644.18" y2="786.46"/>
  <line class="st5" x1="634.52" y1="723.34" x2="663.78" y2="697.72"/>
  <line class="st5" x1="663.78" y1="723.34" x2="634.52" y2="697.72"/>
  <polygon class="st10" points="558.39 692.61 558.39 689.12 538.27 689.12 538.27 697.29 535.82 697.29 535.74 725.36 538.19 725.36 538.12 788.49 535.67 788.49 535.59 818.34 558.32 818.34 558.39 697.42 558.62 697.89 559.88 697.89 559.88 692.61 558.39 692.61"/>
  <path class="st10" d="M544.28,909.02v83.1h2.67-.05c-.26,1.14-.58,2.26-.95,3.35h.04s4.75,2.29,4.75,2.29h18.05v-23.47h-10.62l.07-94.54h-22.72v17.3l-.06-.03c3.84,3.21,6.84,7.3,8.76,11.92"/>
  <g>
    <g>
      <path class="st8" d="M654.16,862.49c0-4.55-3.93-8.24-8.77-8.24-3.57,0-7.1,2.33-8.31,5.62-.17.45-.5,1.39-.46,2.63.15,3.87,4.01,8.24,8.77,8.24s8.77-3.69,8.77-8.24Z"/>
      <path class="st3" d="M637.78,860.64c0-2.8,3.41-5.06,7.61-5.06"/>
      <path class="st3" d="M653.01,860.64c0-2.8-3.41-5.06-7.61-5.06"/>
      <path class="st3" d="M653.01,860.64c0,.55.44,1,.98,1"/>
      <path class="st3" d="M637.78,860.64c0,.55-.44,1-.98,1"/>
      <g>
        <path class="st8" d="M632.56,862.49c0-4.55-3.93-8.24-8.77-8.24-3.57,0-7.1,2.33-8.31,5.62-.17.45-.5,1.39-.46,2.63.15,3.87,4.01,8.24,8.77,8.24s8.77-3.69,8.77-8.24Z"/>
        <path class="st3" d="M616.18,860.64c0-2.8,3.41-5.06,7.61-5.06"/>
        <path class="st3" d="M631.41,860.64c0-2.8-3.41-5.06-7.61-5.06"/>
        <path class="st3" d="M631.41,860.64c0,.55.44,1,.98,1"/>
        <path class="st3" d="M616.18,860.64c0,.55-.47,1-1.06,1"/>
      </g>
    </g>
    <g>
      <path class="st8" d="M654.16,889.64c0,4.55-3.93,8.24-8.77,8.24-3.57,0-7.1-2.33-8.31-5.62-.17-.45-.5-1.39-.46-2.63.15-3.87,4.01-8.24,8.77-8.24s8.77,3.69,8.77,8.24Z"/>
      <path class="st3" d="M637.78,891.49c0,2.8,3.41,5.06,7.61,5.06"/>
      <path class="st3" d="M653.01,891.49c0,2.8-3.41,5.06-7.61,5.06"/>
      <path class="st3" d="M653.01,891.49c0-.55.44-1,.98-1"/>
      <path class="st3" d="M637.78,891.49c0-.55-.44-1-.98-1"/>
      <g>
        <path class="st8" d="M632.56,889.64c0,4.55-3.93,8.24-8.77,8.24-3.57,0-7.1-2.33-8.31-5.62-.17-.45-.5-1.39-.46-2.63.15-3.87,4.01-8.24,8.77-8.24s8.77,3.69,8.77,8.24Z"/>
        <path class="st3" d="M616.18,891.49c0,2.8,3.41,5.06,7.61,5.06"/>
        <path class="st3" d="M631.41,891.49c0,2.8-3.41,5.06-7.61,5.06"/>
        <path class="st3" d="M631.41,891.49c0-.55.44-1,.98-1"/>
        <path class="st3" d="M616.18,891.49c0-.55-.47-1-1.06-1"/>
      </g>
    </g>
    <rect class="st8" x="623.19" y="853.42" width="22.81" height="44.7" transform="translate(-241.17 1510.36) rotate(-90)"/>
  </g>
  <g>
    <rect class="st2" x="541.38" y="921.08" width="70.16" height="31.57" transform="translate(1513.33 360.41) rotate(90)"/>
    <rect class="st2" x="567.69" y="946.78" width="17.54" height="17.54" rx="1.42" ry="1.42" transform="translate(1152.92 1911.1) rotate(-180)"/>
    <polygon class="st2" points="560.27 962.77 560.27 901.6 592.25 901.6 592.25 946.95 560.27 962.77"/>
  </g>
  <g>
    <path class="st2" d="M648.76,965.58c-5.24-3.67-10.47-7.33-15.71-11-.27-.1-.59.02-.78.29-5.21,5.66-9.59,12.09-12.95,18.99-.06.11-.04.24.05.32l1.46,1.03,14.11,9.95,13.82-19.58"/>
    <path class="st2" d="M649.79,966.54c-.45-.4-.93-.75-1.45-1.04-.1-.05-.24,0-.32.1-4.57,6.16-9.02,12.4-13.37,18.72-.09.17-.06.37.07.47.5.42,1.04.79,1.62,1.1"/>
    <path class="st2" d="M646.32,965.04c.27-.38,1.39-.05,2.51.74.09.07.17.13.26.2l.7.56c.08.08.09.22,0,.33l-13.45,19.06-1.62-1.14c-.52-.38-1.04-.77-1.57-1.15-.18-.22-.18-.56.01-.83,3.38-6.6,7.85-12.63,13.16-17.77Z"/>
    <path class="st2" d="M647.42,965.64c-.28-.07-.55-.15-.81-.25-.33-.06-.66-.15-.98-.25-.44-.14-.88-.27-1.32-.4-.61-.18-1.19-.41-1.75-.7-.34-.17-.68-.36-1.01-.56-.35-.21-.7-.42-1.04-.64-.82-.52-1.61-1.07-2.37-1.68-.77-.61-1.48-1.27-2.14-2.01-.5-.55-.93-1.14-1.32-1.79-.24-.41-.35-.83-.34-1.34,0-.04.01-.08.04-.12l.24-.34c.1-.07.19-.09.3-.07,5.04,3.56,10.09,7.12,15.13,10.68.09.06.1.2.03.3l-.07.11h0c-.08.1-.21.14-.3.08-.23-.12-.46-.24-.69-.36-.29-.18-.59-.33-.91-.46l-.67-.22Z"/>
    <path class="st2" d="M634.47,983.99c-.16-.24-.33-.47-.51-.68-.17-.29-.36-.57-.56-.84-.27-.37-.55-.74-.82-1.11-.37-.51-.79-.98-1.24-1.41-.28-.26-.57-.52-.87-.76-.32-.26-.63-.51-.95-.77-.76-.6-1.55-1.16-2.37-1.68-.83-.52-1.7-.97-2.61-1.34-.69-.28-1.39-.5-2.13-.64-.47-.09-.9-.05-1.38.12-.04.02-.07.04-.1.08l-.24.34c-.03.12-.02.21.03.3,5.04,3.56,10.09,7.12,15.13,10.68.09.06.22.03.3-.07l.07-.11h0c.07-.11.06-.24-.02-.31-.19-.18-.38-.35-.57-.53-.27-.21-.51-.45-.74-.71l-.43-.56Z"/>
  </g>
  <circle class="st4" cx="646.91" cy="951.98" r="6.97"/>
  <g>
    <polyline class="st9" points="658.61 962.69 657.28 962.69 657.28 946.98 658.61 946.98"/>
    <polyline class="st9" points="657.28 946.09 657.28 963.65 655.87 963.65 655.87 946.09 657.28 946.09"/>
  </g>
  <polygon class="st10" points="663.92 974.29 663.92 723.51 658.65 723.51 634.59 723.51 634.59 697.89 650.78 697.89 650.78 692.61 591.81 692.61 591.81 697.89 630.43 697.89 630.43 741.7 604.29 741.7 604.29 749.42 608.45 749.42 608.45 745.93 634.59 745.93 634.59 727.74 658.65 727.74 658.65 794.72 608.45 794.72 608.45 781.36 604.29 781.36 604.29 798.96 658.65 798.96 658.65 974.29 648.47 974.29 648.47 997.76 674.1 997.76 674.1 974.29 663.92 974.29"/>
</svg>