<?xml version="1.0" encoding="UTF-8"?>
<svg id="Lag_1" xmlns="http://www.w3.org/2000/svg" version="1.1" viewBox="0 0 1200 1697.14">
  <!-- Generator: Adobe Illustrator 29.6.0, SVG Export Plug-In . SVG Version: 2.1.1 Build 207)  -->
  <defs>
    <style>
      .st0 {
        fill: #000016;
      }

      .st1, .st2, .st3, .st4, .st5, .st6, .st7, .st8, .st9, .st10, .st11, .st12, .st13 {
        stroke-width: .18px;
      }

      .st1, .st2, .st3, .st4, .st6, .st7, .st9, .st10, .st11, .st13 {
        stroke-linecap: round;
      }

      .st1, .st2, .st4, .st6, .st7, .st8, .st9, .st10, .st11, .st12, .st13 {
        stroke-linejoin: round;
      }

      .st1, .st5, .st8, .st10, .st12 {
        fill: #fff;
      }

      .st1, .st8 {
        stroke: #060305;
      }

      .st14 {
        fill: #e8e3e0;
      }

      .st2, .st3, .st4, .st6, .st7, .st9, .st11, .st13 {
        fill: none;
      }

      .st2, .st4, .st5, .st7, .st9, .st10, .st12, .st13 {
        stroke: #000;
      }

      .st3 {
        stroke: #979899;
      }

      .st3, .st5 {
        stroke-miterlimit: 10;
      }

      .st15 {
        fill: #979899;
      }

      .st4 {
        stroke-dasharray: .06 .43;
      }

      .st6 {
        stroke: #767676;
      }

      .st16 {
        fill: #dbd7d5;
      }

      .st7 {
        stroke-dasharray: .06 .42;
      }

      .st9 {
        stroke-dasharray: .06 .43;
      }

      .st11 {
        stroke: #747675;
      }

      .st13 {
        stroke-dasharray: .06 .43;
      }
    </style>
  </defs>
  <polygon class="st14" points="548.34 696.88 548.34 952.63 574.5 952.63 574.5 1014.04 653.82 1014.04 653.82 696.88 548.34 696.88"/>
  <rect class="st16" x="549.66" y="878.18" width="100.52" height="57.07" transform="translate(1199.85 1813.43) rotate(-180)"/>
  <polyline class="st10" points="639.84 695.1 639.84 700.37 638.06 700.37 638.06 695.1 639.84 695.1"/>
  <path class="st5" d="M555.81,938.47v-10.18c0-3.92,2.82-7.09,6.3-7.09s6.29,3.17,6.29,7.09v10.18h-12.59Z"/>
  <polygon class="st10" points="574.11 938.47 549.99 938.47 549.92 949.26 574.11 949.29 574.11 938.47"/>
  <polygon class="st15" points="534.74 694.07 560.31 694.07 534.74 703.7 534.74 694.07"/>
  <polygon class="st3" points="534.74 694.07 560.31 694.07 534.74 703.7 534.74 694.07"/>
  <path class="st15" d="M534.74,716.08l25.57-9.71v9.71h-25.57ZM534.74,703.7v12.38l25.57-9.71-25.57-2.67Z"/>
  <path class="st3" d="M534.74,716.08l25.57-9.71v9.71h-25.57ZM534.74,703.7v12.38l25.57-9.71-25.57-2.67Z"/>
  <polygon class="st15" points="534.74 703.7 560.31 694.07 560.31 706.37 534.74 703.7"/>
  <polygon class="st3" points="534.74 703.7 560.31 694.07 560.31 706.37 534.74 703.7"/>
  <line class="st11" x1="560.31" y1="802.43" x2="560.31" y2="802.35"/>
  <polygon class="st15" points="642.21 692.14 644.88 692.14 642.21 693.1 642.21 692.14"/>
  <polygon class="st3" points="642.21 692.14 644.88 692.14 642.21 693.1 642.21 692.14"/>
  <polygon class="st15" points="639.84 694.07 642.21 694.07 639.84 694.96 639.84 694.07"/>
  <polygon class="st3" points="639.84 694.07 642.21 694.07 639.84 694.96 639.84 694.07"/>
  <path class="st15" d="M642.21,693.1l5.11-.96-5.11,1.93v-.96ZM644.88,692.14l-2.67.96,5.11-.96h-2.45Z"/>
  <path class="st3" d="M642.21,693.1l5.11-.96-5.11,1.93v-.96ZM644.88,692.14l-2.67.96,5.11-.96h-2.45Z"/>
  <path class="st15" d="M639.84,694.96l25.42-2.82-25.42,9.64v-6.82ZM647.32,692.14l-7.49,2.82,25.42-2.82h-17.94Z"/>
  <path class="st3" d="M639.84,694.96l25.42-2.82-25.42,9.64v-6.82ZM647.32,692.14l-7.49,2.82,25.42-2.82h-17.94Z"/>
  <path class="st15" d="M639.84,716.15l25.42-9.64v9.64h-25.42ZM639.84,701.78v14.38l25.42-9.64-25.42-4.74Z"/>
  <path class="st3" d="M639.84,716.15l25.42-9.64v9.64h-25.42ZM639.84,701.78v14.38l25.42-9.64-25.42-4.74Z"/>
  <polygon class="st15" points="639.84 701.78 665.26 692.14 665.26 706.52 639.84 701.78"/>
  <polygon class="st3" points="639.84 701.78 665.26 692.14 665.26 706.52 639.84 701.78"/>
  <polyline class="st10" points="562.09 695.1 562.09 700.37 560.31 700.37 560.31 695.1 562.09 695.1"/>
  <polyline class="st2" points="612.71 695.1 562.09 695.1 562.09 696.88 612.71 696.88 612.71 695.1"/>
  <line class="st2" x1="614.49" y1="693.92" x2="614.49" y2="695.1"/>
  <polyline class="st10" points="638.06 695.1 614.49 695.1 614.49 697.7 638.06 697.7 638.06 695.1"/>
  <polyline class="st10" points="614.49 695.1 614.49 700.37 612.71 700.37 612.71 695.1 614.49 695.1"/>
  <line class="st2" x1="560.31" y1="694.07" x2="639.84" y2="694.07"/>
  <line class="st2" x1="590.33" y1="878.18" x2="591.59" y2="878.18"/>
  <line class="st2" x1="593.51" y1="878.18" x2="594.77" y2="878.18"/>
  <line class="st2" x1="596.63" y1="878.18" x2="597.89" y2="878.18"/>
  <line class="st2" x1="599.81" y1="878.18" x2="601.07" y2="878.18"/>
  <line class="st2" x1="550.16" y1="860.76" x2="550.16" y2="862.02"/>
  <line class="st2" x1="550.16" y1="863.87" x2="550.16" y2="865.13"/>
  <line class="st2" x1="550.16" y1="867.06" x2="550.16" y2="868.32"/>
  <line class="st2" x1="550.16" y1="870.17" x2="550.16" y2="871.43"/>
  <line class="st2" x1="550.16" y1="873.36" x2="550.16" y2="874.62"/>
  <polyline class="st2" points="550.16 876.47 550.16 878.18 551.71 878.18"/>
  <line class="st2" x1="553.56" y1="878.18" x2="554.82" y2="878.18"/>
  <line class="st2" x1="556.75" y1="878.18" x2="558.01" y2="878.18"/>
  <line class="st2" x1="559.86" y1="878.18" x2="561.12" y2="878.18"/>
  <line class="st2" x1="563.05" y1="878.18" x2="564.31" y2="878.18"/>
  <line class="st2" x1="571.95" y1="878.18" x2="573.21" y2="878.18"/>
  <line class="st2" x1="575.13" y1="878.18" x2="576.39" y2="878.18"/>
  <line class="st2" x1="578.25" y1="878.18" x2="579.51" y2="878.18"/>
  <line class="st2" x1="581.43" y1="878.18" x2="582.69" y2="878.18"/>
  <line class="st2" x1="564.53" y1="882.7" x2="564.53" y2="890.48"/>
  <path class="st2" d="M566.24,890.44c0-.96-.78-1.74-1.74-1.74s-1.74.78-1.74,1.74.78,1.74,1.74,1.74,1.74-.78,1.74-1.74"/>
  <line class="st2" x1="602.33" y1="925.84" x2="630.72" y2="925.84"/>
  <path class="st2" d="M630.65,925.8c0-15.66-12.69-28.35-28.35-28.35"/>
  <line class="st2" x1="602.33" y1="897.45" x2="602.33" y2="925.84"/>
  <polyline class="st2" points="550.16 882.4 550.16 878.18 604.48 878.18 604.48 895.67 600.26 895.67 600.26 882.4 550.16 882.4"/>
  <polyline class="st2" points="604.48 935.25 604.48 927.54 600.26 927.54 600.26 931.02 574.17 931.02 574.17 949.26 550.16 949.26 550.16 953.48 574.17 953.48 574.17 1010.55 558.09 1010.55 558.09 1015.82 616.86 1015.82 616.86 1010.55 578.39 1010.55 578.39 935.25 604.48 935.25"/>
  <line class="st2" x1="647.03" y1="1014.04" x2="647.03" y2="985.65"/>
  <path class="st2" d="M646.99,985.65c-15.66,0-28.35,12.69-28.35,28.35"/>
  <line class="st2" x1="618.64" y1="1014.04" x2="647.03" y2="1014.04"/>
  <polyline class="st2" points="599.37 935.99 578.39 935.99 578.39 1009.52 599.37 1009.52 599.37 935.99"/>
  <polyline class="st2" points="578.39 948.22 599.37 948.22 599.37 935.99 578.39 935.99 578.39 948.22"/>
  <line class="st2" x1="580.84" y1="942.29" x2="586.4" y2="942.29"/>
  <line class="st2" x1="591.29" y1="942.29" x2="596.92" y2="942.29"/>
  <line class="st2" x1="594.11" y1="945.03" x2="594.11" y2="939.47"/>
  <line class="st2" x1="583.58" y1="945.03" x2="583.58" y2="939.47"/>
  <polyline class="st2" points="595.89 1005.96 581.88 1005.96 581.88 991.95 595.89 991.95 595.89 1005.96"/>
  <polyline class="st2" points="578.39 988.47 578.39 1009.52 599.37 1009.52 599.37 988.47 578.39 988.47"/>
  <line class="st2" x1="579.95" y1="998.99" x2="585.51" y2="998.99"/>
  <polyline class="st2" points="649.99 1010.55 648.73 1010.55 648.73 1015.82 652.59 1015.82"/>
  <line class="st2" x1="590.33" y1="878.18" x2="591.59" y2="878.18"/>
  <line class="st2" x1="593.51" y1="878.18" x2="594.77" y2="878.18"/>
  <line class="st2" x1="596.63" y1="878.18" x2="597.89" y2="878.18"/>
  <line class="st2" x1="599.81" y1="878.18" x2="601.07" y2="878.18"/>
  <line class="st2" x1="550.16" y1="860.76" x2="550.16" y2="862.02"/>
  <line class="st2" x1="550.16" y1="863.87" x2="550.16" y2="865.13"/>
  <line class="st2" x1="550.16" y1="867.06" x2="550.16" y2="868.32"/>
  <line class="st2" x1="550.16" y1="870.17" x2="550.16" y2="871.43"/>
  <line class="st2" x1="550.16" y1="873.36" x2="550.16" y2="874.62"/>
  <polyline class="st2" points="550.16 876.47 550.16 878.18 551.71 878.18"/>
  <line class="st2" x1="553.56" y1="878.18" x2="554.82" y2="878.18"/>
  <line class="st2" x1="556.75" y1="878.18" x2="558.01" y2="878.18"/>
  <line class="st2" x1="559.86" y1="878.18" x2="561.12" y2="878.18"/>
  <line class="st2" x1="563.05" y1="878.18" x2="564.31" y2="878.18"/>
  <line class="st2" x1="571.95" y1="878.18" x2="573.21" y2="878.18"/>
  <line class="st2" x1="575.13" y1="878.18" x2="576.39" y2="878.18"/>
  <line class="st2" x1="578.25" y1="878.18" x2="579.51" y2="878.18"/>
  <line class="st2" x1="581.43" y1="878.18" x2="582.69" y2="878.18"/>
  <path class="st10" d="M566.24,890.44c0-.96-.78-1.74-1.74-1.74s-1.74.78-1.74,1.74.78,1.74,1.74,1.74,1.74-.78,1.74-1.74"/>
  <line class="st2" x1="564.53" y1="882.7" x2="564.53" y2="890.48"/>
  <line class="st2" x1="602.33" y1="925.84" x2="630.72" y2="925.84"/>
  <path class="st2" d="M630.65,925.8c0-15.66-12.69-28.35-28.35-28.35"/>
  <line class="st2" x1="602.33" y1="897.45" x2="602.33" y2="925.84"/>
  <line class="st2" x1="647.03" y1="1014.04" x2="647.03" y2="985.65"/>
  <path class="st2" d="M646.99,985.65c-15.66,0-28.35,12.69-28.35,28.35"/>
  <line class="st2" x1="618.64" y1="1014.04" x2="647.03" y2="1014.04"/>
  <polyline class="st10" points="599.37 935.99 578.39 935.99 578.39 1009.52 599.37 1009.52 599.37 935.99"/>
  <polyline class="st2" points="578.39 948.22 599.37 948.22 599.37 935.99 578.39 935.99 578.39 948.22"/>
  <line class="st2" x1="580.84" y1="942.29" x2="586.4" y2="942.29"/>
  <line class="st2" x1="591.29" y1="942.29" x2="596.92" y2="942.29"/>
  <line class="st2" x1="594.11" y1="945.03" x2="594.11" y2="939.47"/>
  <line class="st2" x1="583.58" y1="945.03" x2="583.58" y2="939.47"/>
  <polyline class="st10" points="595.89 1005.96 581.88 1005.96 581.88 991.95 595.89 991.95 595.89 1005.96"/>
  <polyline class="st2" points="578.39 988.47 578.39 1009.52 599.37 1009.52 599.37 988.47 578.39 988.47"/>
  <line class="st10" x1="579.95" y1="998.99" x2="585.51" y2="998.99"/>
  <line class="st2" x1="544.89" y1="860.76" x2="544.89" y2="862.02"/>
  <line class="st2" x1="544.89" y1="863.87" x2="544.89" y2="865.13"/>
  <line class="st2" x1="544.89" y1="867.06" x2="544.89" y2="868.32"/>
  <line class="st2" x1="544.89" y1="870.17" x2="544.89" y2="871.43"/>
  <line class="st2" x1="544.89" y1="873.36" x2="544.89" y2="874.62"/>
  <path class="st10" d="M597.96,882.46v9.23c0,.2-.13.37-.3.37h-16.82c-.2,0-.37-.17-.37-.37v-9.23"/>
  <path class="st2" d="M588.55,884.16c0,.35.28.63.63.63s.63-.28.63-.63-.28-.63-.63-.63-.63.28-.63.63"/>
  <path class="st2" d="M588.4,888.61c0,.43.35.78.78.78s.78-.35.78-.78-.35-.78-.78-.78-.78.35-.78.78"/>
  <path class="st2" d="M588.03,888.61c0,.63.51,1.15,1.15,1.15s1.15-.51,1.15-1.15-.51-1.15-1.15-1.15-1.15.51-1.15,1.15"/>
  <path class="st2" d="M581.21,885.53h16.01c.2,0,.37.17.37.37v5.41c0,.2-.17.37-.37.37h-16.01c-.2,0-.37-.17-.37-.37v-5.41c0-.2.17-.37.37-.37Z"/>
  <rect class="st10" x="587" y="857.28" width="17.49" height="21.05"/>
  <rect class="st10" x="568.54" y="857.28" width="17.57" height="21.05"/>
  <rect class="st10" x="550.15" y="857.28" width="17.58" height="21.05"/>
  <line class="st2" x1="574.1" y1="953.5" x2="550.16" y2="1010.57"/>
  <line class="st2" x1="550.16" y1="953.5" x2="574.1" y2="1010.57"/>
  <rect class="st9" x="549.58" y="878.18" width="100.52" height="57.06" transform="translate(1199.68 1813.41) rotate(-180)"/>
  <g>
    <polyline class="st2" points="578.54 910.67 578.54 910.7 578.51 910.7"/>
    <line class="st13" x1="578.09" y1="910.7" x2="550.77" y2="910.7"/>
    <polyline class="st2" points="550.55 910.7 550.53 910.7 550.53 910.67"/>
    <line class="st4" x1="550.53" y1="910.25" x2="550.53" y2="882.94"/>
    <polyline class="st2" points="550.53 882.73 550.53 882.7 550.55 882.7"/>
    <line class="st13" x1="550.98" y1="882.7" x2="578.3" y2="882.7"/>
    <polyline class="st2" points="578.51 882.7 578.54 882.7 578.54 882.73"/>
    <line class="st4" x1="578.54" y1="883.15" x2="578.54" y2="910.46"/>
  </g>
  <g>
    <path class="st2" d="M614.56,693.91s0-.02,0-.03"/>
    <path class="st7" d="M614.59,693.46c.28-3.07,3.05-12.14,3.77-12.14l19.19,12.88.23.16"/>
    <line class="st2" x1="637.96" y1="694.5" x2="637.99" y2="694.51"/>
  </g>
  <g>
    <path class="st1" d="M573.61,720.22c1.23,7.57,1.36,15.32.37,22.94,0,.33-.19.61-.47.68-6.38.02-12.76.05-19.15.07"/>
    <path class="st1" d="M573.61,720.22c-.02-.13-.11-.22-.22-.23h-18.76l-.26,23.94c6.38.02,12.76.05,19.15.07.27.07.47.36.47.68.99,7.62.86,15.37-.37,22.94-.02.13-.11.22-.22.23h-19.02v-23.93"/>
    <path class="st1" d="M553.4,720.33c.6-.07,1.18-.08,1.78-.01.11.02.2.13.2.27.18,7.65.22,15.3.13,22.96-.02.19-.16.34-.33.34-.65.06-1.3.04-1.95-.03"/>
    <path class="st1" d="M553.4,767.53c.6.07,1.18.08,1.78.01.11-.02.2-.13.2-.27.18-7.65.22-15.3.13-22.96-.02-.19-.16-.34-.33-.34-.65-.06-1.3-.04-1.95.03"/>
    <path class="st1" d="M553.06,767.82h-.21c-.07,0-.12-.06-.12-.14v-47.5c0-.08.06-.14.12-.14h.21l.14.06v.36s-.14,47.36-.14,47.36Z"/>
    <path class="st1" d="M557.09,721.1c0-.47-1.1-.84-2.47-.84-.11,0-.22,0-.33.01l-.89.06c-.11.02-.2.13-.2.27v23.29h1.98c.65-.01,1.29-.02,1.94-.04.27-.07.47-.36.47-.68,1.04-7.33.87-14.81-.5-22.06Z"/>
    <path class="st1" d="M557.09,766.72c0,.47-1.1.84-2.47.84-.11,0-.22,0-.33-.01l-.89-.06c-.11-.02-.2-.13-.2-.27v-23.29h1.98c.65.01,1.29.02,1.94.04.27.07.47.36.47.68,1.04,7.33.87,14.81-.5,22.06Z"/>
    <path class="st1" d="M555.37,720.48c.27.11.53.19.81.26.31.14.62.26.94.36.44.14.87.29,1.3.43.6.2,1.21.35,1.83.44.38.05.76.1,1.14.12.41.03.81.06,1.22.08.97.05,1.93.05,2.9,0,.98-.05,1.94-.19,2.9-.41.72-.16,1.42-.39,2.11-.7.43-.19.76-.47,1.05-.9.02-.04.03-.07.03-.12v-.42c-.04-.11-.1-.18-.2-.23h-18.48c-.11,0-.2.1-.2.23v.13h0c0,.13.09.23.2.24.26.04.51.07.77.11.34.02.67.07,1.01.15l.67.21Z"/>
    <path class="st1" d="M555.37,767.37c.27-.11.53-.19.81-.26.31-.14.62-.26.94-.36.44-.14.87-.29,1.3-.43.6-.2,1.21-.35,1.83-.44.38-.05.76-.1,1.14-.12.41-.03.81-.06,1.22-.08.97-.05,1.93-.05,2.9,0,.98.05,1.94.19,2.9.41.72.16,1.42.39,2.11.7.43.19.76.47,1.05.9.02.04.03.07.03.12v.42c-.04.11-.1.18-.2.23h-18.48c-.11,0-.2-.1-.2-.23v-.13h0c0-.13.09-.23.2-.24.26-.04.51-.07.77-.11.34-.02.67-.07,1.01-.15l.67-.21Z"/>
  </g>
  <g>
    <g>
      <path class="st10" d="M645.33,788.88c0-4.54-3.92-8.23-8.75-8.23-3.56,0-7.08,2.33-8.3,5.61-.17.45-.5,1.39-.45,2.62.15,3.87,4,8.23,8.75,8.23s8.75-3.68,8.75-8.23Z"/>
      <path class="st2" d="M628.98,787.03c0-2.79,3.4-5.05,7.6-5.05"/>
      <path class="st2" d="M644.18,787.03c0-2.79-3.4-5.05-7.6-5.05"/>
      <path class="st2" d="M644.18,787.03c0,.55.44,1,.98,1"/>
      <path class="st2" d="M628.98,787.03c0,.55-.44,1-.98,1"/>
      <g>
        <path class="st10" d="M623.78,788.88c0-4.54-3.92-8.23-8.75-8.23-3.56,0-7.08,2.33-8.3,5.61-.17.45-.5,1.39-.45,2.62.15,3.87,4,8.23,8.75,8.23s8.75-3.68,8.75-8.23Z"/>
        <path class="st2" d="M607.42,787.03c0-2.79,3.4-5.05,7.6-5.05"/>
        <path class="st2" d="M622.62,787.03c0-2.79-3.4-5.05-7.6-5.05"/>
        <path class="st2" d="M622.62,787.03c0,.55.44,1,.98,1"/>
        <path class="st2" d="M607.42,787.03c0,.55-.47,1-1.06,1"/>
      </g>
    </g>
    <g>
      <path class="st10" d="M645.33,815.98c0,4.54-3.92,8.23-8.75,8.23-3.56,0-7.08-2.33-8.3-5.61-.17-.45-.5-1.39-.45-2.62.15-3.87,4-8.23,8.75-8.23s8.75,3.68,8.75,8.23Z"/>
      <path class="st2" d="M628.98,817.83c0,2.79,3.4,5.05,7.6,5.05"/>
      <path class="st2" d="M644.18,817.83c0,2.79-3.4,5.05-7.6,5.05"/>
      <path class="st2" d="M644.18,817.83c0-.55.44-1,.98-1"/>
      <path class="st2" d="M628.98,817.83c0-.55-.44-1-.98-1"/>
      <g>
        <path class="st10" d="M623.78,815.98c0,4.54-3.92,8.23-8.75,8.23-3.56,0-7.08-2.33-8.3-5.61-.17-.45-.5-1.39-.45-2.62.15-3.87,4-8.23,8.75-8.23s8.75,3.68,8.75,8.23Z"/>
        <path class="st2" d="M607.42,817.83c0,2.79,3.4,5.05,7.6,5.05"/>
        <path class="st2" d="M622.62,817.83c0,2.79-3.4,5.05-7.6,5.05"/>
        <path class="st2" d="M622.62,817.83c0-.55.44-1,.98-1"/>
        <path class="st2" d="M607.42,817.83c0-.55-.47-1-1.06-1"/>
      </g>
    </g>
    <rect class="st10" x="614.42" y="779.82" width="22.76" height="44.61" transform="translate(-176.33 1427.93) rotate(-90)"/>
  </g>
  <circle class="st8" cx="585.57" cy="726.5" r="7.21"/>
  <polygon class="st0" points="578.39 1010.55 578.39 935.25 604.48 935.25 604.48 927.54 600.26 927.54 600.26 931.02 574.17 931.02 574.17 949.26 550.16 949.26 550.16 882.4 600.26 882.4 600.26 895.67 604.48 895.67 604.48 878.18 550.16 878.18 550.16 815.42 550.16 813.99 550.16 802.43 550.16 716.08 560.31 716.08 560.31 694.07 534.74 694.07 534.74 716.08 544.89 716.08 544.89 802.43 544.89 813.99 544.89 815.42 544.89 953.78 550.16 953.78 550.16 953.48 574.17 953.48 574.17 1010.55 558.09 1010.55 558.09 1015.82 616.86 1015.82 616.86 1010.55 578.39 1010.55"/>
  <g>
    <polyline class="st10" points="542.52 803.14 552.53 803.88 552.3 814.03 543.11 813 542.37 812.18 542.52 803.14"/>
    <line class="st6" x1="542.45" y1="807.07" x2="546.15" y2="803.36"/>
    <line class="st6" x1="542.37" y1="811.88" x2="550.6" y2="803.73"/>
    <line class="st6" x1="545.71" y1="813.29" x2="552.45" y2="806.55"/>
    <line class="st6" x1="549.93" y1="813.74" x2="552.3" y2="811.37"/>
    <line class="st6" x1="548.23" y1="813.59" x2="542.45" y2="807.81"/>
    <line class="st6" x1="552.3" y1="812.92" x2="542.52" y2="803.14"/>
    <line class="st6" x1="552.45" y1="808.33" x2="547.56" y2="803.51"/>
  </g>
  <g>
    <polyline class="st12" points="650.14 719.29 648.81 719.29 648.81 727.86 650.14 727.86"/>
    <polyline class="st12" points="648.81 728.83 648.81 718.32 647.4 718.32 647.4 728.83 648.81 728.83"/>
  </g>
  <polygon class="st0" points="665.26 716.15 665.26 692.14 642.21 692.14 642.21 694.07 639.84 694.07 639.84 716.15 649.99 716.15 649.99 1010.55 648.73 1010.55 648.73 1015.82 652.59 1015.82 656.44 1015.82 656.44 1010.55 655.26 1010.55 655.26 716.15 665.26 716.15"/>
</svg>