<?xml version="1.0" encoding="UTF-8"?>
<svg id="Lag_1" xmlns="http://www.w3.org/2000/svg" version="1.1" viewBox="0 0 1200 1697.14">
  <!-- Generator: Adobe Illustrator 29.6.0, SVG Export Plug-In . SVG Version: 2.1.1 Build 207)  -->
  <defs>
    <style>
      .st0, .st1, .st2, .st3, .st4, .st5, .st6, .st7, .st8, .st9 {
        fill: none;
      }

      .st1 {
        stroke-dasharray: .06 .43;
      }

      .st1, .st2, .st10, .st3, .st4, .st5, .st11, .st6, .st7, .st8, .st12, .st13, .st14, .st9 {
        stroke-width: .18px;
      }

      .st1, .st2, .st10, .st3, .st4, .st5, .st6, .st7, .st8, .st12, .st13, .st14, .st9 {
        stroke-linejoin: round;
      }

      .st1, .st2, .st10, .st3, .st5, .st6, .st7, .st8, .st13, .st9 {
        stroke-linecap: round;
      }

      .st1, .st2, .st3, .st4, .st5, .st11, .st7, .st8, .st13, .st14, .st9 {
        stroke: #000;
      }

      .st15 {
        fill: #000016;
      }

      .st2 {
        stroke-dasharray: .06 .43;
      }

      .st10, .st11, .st12, .st13, .st14 {
        fill: #fff;
      }

      .st10, .st12 {
        stroke: #060305;
      }

      .st16 {
        fill: #e8e3e0;
      }

      .st5 {
        stroke-dasharray: .06 .43;
      }

      .st11 {
        stroke-miterlimit: 10;
      }

      .st6 {
        stroke: #767676;
      }

      .st7 {
        stroke-dasharray: .06 .43;
      }

      .st8 {
        stroke-dasharray: .06 .42;
      }

      .st17 {
        fill: #dbd7d5;
      }

      .st9 {
        stroke-dasharray: .06 .42;
      }
    </style>
  </defs>
  <polygon class="st16" points="575.96 693.08 575.96 722.38 547.62 722.38 547.62 992.86 651.3 992.86 651.3 693.08 575.96 693.08"/>
  <rect class="st17" x="547.47" y="797.39" width="104.9" height="60.96"/>
  <g>
    <path class="st3" d="M585.74,995.14s0,.02,0,.03"/>
    <path class="st5" d="M585.71,995.59c-.33,2.69-3.08,10.31-3.8,10.31l-19.36-11.01-.22-.13"/>
    <line class="st3" x1="562.14" y1="994.64" x2="562.11" y2="994.62"/>
  </g>
  <rect class="st14" x="550.19" y="797.2" width="17.48" height="21.03" transform="translate(1117.85 1615.43) rotate(-180)"/>
  <rect class="st14" x="568.55" y="797.2" width="17.55" height="21.03" transform="translate(1154.66 1615.43) rotate(-180)"/>
  <rect class="st14" x="586.92" y="797.2" width="17.57" height="21.03" transform="translate(1191.41 1615.43) rotate(-180)"/>
  <polygon class="st14" points="550.13 736.97 574.23 736.97 574.3 726.19 550.13 726.16 550.13 736.97"/>
  <line class="st3" x1="550.19" y1="797.39" x2="551.67" y2="797.39"/>
  <line class="st3" x1="553.59" y1="797.39" x2="554.85" y2="797.39"/>
  <line class="st3" x1="556.7" y1="797.39" x2="557.96" y2="797.39"/>
  <line class="st3" x1="559.89" y1="797.39" x2="561.15" y2="797.39"/>
  <line class="st3" x1="563" y1="797.39" x2="564.26" y2="797.39"/>
  <line class="st3" x1="550.19" y1="814.79" x2="550.19" y2="813.53"/>
  <line class="st3" x1="550.19" y1="811.61" x2="550.19" y2="810.35"/>
  <line class="st3" x1="550.19" y1="808.5" x2="550.19" y2="807.24"/>
  <line class="st3" x1="550.19" y1="805.31" x2="550.19" y2="804.05"/>
  <line class="st3" x1="550.19" y1="802.2" x2="550.19" y2="800.94"/>
  <line class="st3" x1="550.19" y1="799.02" x2="550.19" y2="797.39"/>
  <line class="st3" x1="586.92" y1="797.39" x2="588.4" y2="797.39"/>
  <line class="st3" x1="590.33" y1="797.39" x2="591.59" y2="797.39"/>
  <line class="st3" x1="593.44" y1="797.39" x2="594.7" y2="797.39"/>
  <line class="st3" x1="596.63" y1="797.39" x2="597.88" y2="797.39"/>
  <line class="st3" x1="599.81" y1="797.39" x2="601.07" y2="797.39"/>
  <line class="st3" x1="568.55" y1="797.39" x2="570.04" y2="797.39"/>
  <line class="st3" x1="571.96" y1="797.39" x2="573.22" y2="797.39"/>
  <line class="st3" x1="575.07" y1="797.39" x2="576.33" y2="797.39"/>
  <line class="st3" x1="578.26" y1="797.39" x2="579.52" y2="797.39"/>
  <line class="st3" x1="581.37" y1="797.39" x2="582.63" y2="797.39"/>
  <line class="st3" x1="602.33" y1="749.76" x2="630.7" y2="749.76"/>
  <path class="st3" d="M630.7,749.73c0,15.65-12.68,28.33-28.33,28.33"/>
  <line class="st3" x1="602.33" y1="778.13" x2="602.33" y2="749.76"/>
  <path class="st3" d="M618.62,693.1h28.29s.04,28.29.04,28.29c-15.65,0-28.33-12.68-28.33-28.33"/>
  <polyline class="st13" points="599.37 739.62 578.33 739.62 578.33 697.62 599.37 697.62 599.37 739.62"/>
  <polyline class="st3" points="578.33 727.39 599.37 727.39 599.37 739.62 578.33 739.62 578.33 727.39"/>
  <line class="st3" x1="580.78" y1="733.32" x2="586.4" y2="733.32"/>
  <line class="st3" x1="591.29" y1="733.32" x2="596.92" y2="733.32"/>
  <line class="st3" x1="594.11" y1="730.51" x2="594.11" y2="736.13"/>
  <line class="st3" x1="583.59" y1="730.51" x2="583.59" y2="736.13"/>
  <polyline class="st3" points="595.88 701.1 581.89 701.1 581.89 715.1 595.88 715.1 595.88 701.1"/>
  <polyline class="st3" points="578.33 718.65 578.33 697.62 599.37 697.62 599.37 718.65 578.33 718.65"/>
  <line class="st3" x1="579.96" y1="708.14" x2="585.52" y2="708.14"/>
  <polyline class="st13" points="638.03 994.62 638.03 989.36 639.81 989.36 639.81 994.62 638.03 994.62"/>
  <polyline class="st13" points="587.44 994.62 638.03 994.62 638.03 992.85 587.44 992.85 587.44 994.62"/>
  <polyline class="st13" points="560.33 994.62 560.33 989.36 562.11 989.36 562.11 994.62 560.33 994.62"/>
  <polyline class="st13" points="585.74 994.62 585.74 989.36 587.44 989.36 587.44 994.62 585.74 994.62"/>
  <line class="st3" x1="639.81" y1="995.66" x2="560.33" y2="995.66"/>
  <path class="st14" d="M566.32,784.96c0,.96-.78,1.74-1.74,1.74s-1.74-.78-1.74-1.74c0-.96.78-1.74,1.74-1.74s1.74.78,1.74,1.74"/>
  <path class="st11" d="M568.42,736.97v10.17c0,3.92-2.81,7.08-6.29,7.08s-6.29-3.17-6.29-7.08v-10.17h12.58Z"/>
  <path class="st14" d="M580.51,792.94v-9.22c0-.2.13-.37.3-.37h16.81c.2,0,.37.17.37.37v9.22"/>
  <path class="st4" d="M589.91,791.24c0-.35-.28-.63-.63-.63s-.63.28-.63.63.28.63.63.63.63-.28.63-.63"/>
  <path class="st4" d="M590.06,786.79c0-.43-.35-.78-.78-.78s-.78.35-.78.78c0,.43.35.78.78.78s.78-.35.78-.78"/>
  <path class="st4" d="M590.43,786.79c0-.63-.51-1.15-1.15-1.15s-1.15.51-1.15,1.15c0,.63.51,1.15,1.15,1.15s1.15-.51,1.15-1.15"/>
  <path class="st4" d="M581.24,783.72h16c.2,0,.37.17.37.37v5.41c0,.2-.17.37-.37.37h-16c-.2,0-.37-.17-.37-.37v-5.41c0-.2.17-.37.37-.37Z"/>
  <g>
    <polyline class="st3" points="578.62 764.73 578.62 764.7 578.59 764.7"/>
    <line class="st1" x1="578.16" y1="764.7" x2="550.86" y2="764.7"/>
    <polyline class="st3" points="550.65 764.7 550.62 764.7 550.62 764.73"/>
    <line class="st1" x1="550.62" y1="765.16" x2="550.62" y2="792.46"/>
    <polyline class="st3" points="550.62 792.67 550.62 792.7 550.65 792.7"/>
    <line class="st1" x1="551.07" y1="792.7" x2="578.38" y2="792.7"/>
    <polyline class="st3" points="578.59 792.7 578.62 792.7 578.62 792.67"/>
    <line class="st1" x1="578.62" y1="792.25" x2="578.62" y2="764.95"/>
  </g>
  <line class="st4" x1="564.62" y1="792.7" x2="564.62" y2="784.92"/>
  <line class="st4" x1="574.25" y1="721.97" x2="545.07" y2="696.42"/>
  <line class="st4" x1="544.93" y1="722.14" x2="574.25" y2="696.42"/>
  <polyline class="st13" points="562.11 994.62 585.74 994.62 585.74 991.96 562.11 991.96 562.11 994.62"/>
  <polygon class="st15" points="656.33 691.25 652.48 691.25 648.63 691.25 648.63 696.51 649.81 696.51 649.81 789.43 649.81 789.61 649.81 791.3 649.81 795.09 655.15 795.09 655.15 791.3 655.15 789.43 655.15 789.43 655.07 696.51 656.33 696.51 656.33 691.25"/>
  <polygon class="st15" points="655.07 972.11 655.07 808.2 655.07 806.41 655.07 801.13 649.81 801.13 649.81 806.41 649.81 808.2 649.81 972.11 639.67 972.11 639.67 995.66 665.22 995.66 665.22 972.11 655.07 972.11"/>
  <g>
    <polyline class="st13" points="647.89 794.09 657 793.95 657.07 803.06 647.96 803.13 647.89 794.09"/>
    <line class="st6" x1="647.89" y1="796.17" x2="650.04" y2="794.02"/>
    <line class="st6" x1="647.96" y1="800.83" x2="654.78" y2="794.02"/>
    <line class="st6" x1="650.41" y1="803.13" x2="657" y2="796.46"/>
    <line class="st6" x1="655.15" y1="803.06" x2="657.07" y2="801.13"/>
    <line class="st6" x1="650.04" y1="803.13" x2="647.96" y2="801.06"/>
    <line class="st6" x1="654.7" y1="803.13" x2="647.89" y2="796.32"/>
    <line class="st6" x1="657.07" y1="800.76" x2="650.33" y2="794.02"/>
    <line class="st6" x1="657" y1="796.02" x2="655" y2="794.02"/>
  </g>
  <g>
    <path class="st10" d="M627.48,969.27c-1.23-7.56-1.36-15.31-.37-22.93,0-.33.19-.61.47-.68,6.38-.02,12.75-.05,19.13-.07"/>
    <path class="st10" d="M627.48,969.27c.02.13.11.22.22.23h18.75l.26-23.93c-6.38-.02-12.75-.05-19.13-.07-.27-.07-.47-.36-.47-.68-.99-7.61-.86-15.36.37-22.93.02-.13.11-.22.22-.23h19.01v23.91"/>
    <path class="st10" d="M647.68,969.17c-.6.07-1.18.08-1.78.01-.11-.02-.2-.13-.2-.27-.18-7.65-.22-15.29-.13-22.94.02-.19.16-.34.33-.34.65-.06,1.3-.04,1.95.03"/>
    <path class="st10" d="M647.68,922c-.6-.07-1.18-.08-1.78-.01-.11.02-.2.13-.2.27-.18,7.65-.22,15.29-.13,22.94.02.19.16.34.33.34.65.06,1.3.04,1.95-.03"/>
    <path class="st10" d="M648.02,921.71h.21c.07,0,.12.06.12.14v47.46c0,.08-.06.14-.12.14h-.21l-.14-.06v-.36s.14-47.33.14-47.33Z"/>
    <path class="st10" d="M644,968.39c0,.47,1.1.84,2.47.84.11,0,.22,0,.33-.01l.89-.06c.11-.02.2-.13.2-.27v-23.27h-1.98c-.65.01-1.29.02-1.94.04-.27.07-.47.36-.47.68-1.04,7.32-.87,14.8.5,22.05Z"/>
    <path class="st10" d="M644,922.81c0-.47,1.1-.84,2.47-.84.11,0,.22,0,.33.01l.89.06c.11.02.2.13.2.27v23.27h-1.98c-.65-.01-1.29-.02-1.94-.04-.27-.07-.47-.36-.47-.68-1.04-7.32-.87-14.8.5-22.05Z"/>
    <path class="st10" d="M645.71,969.01c-.27-.11-.53-.19-.81-.26-.31-.14-.62-.26-.94-.36-.44-.14-.87-.29-1.3-.43-.6-.2-1.2-.35-1.82-.44-.38-.05-.76-.1-1.14-.12-.41-.03-.81-.06-1.22-.08-.97-.05-1.93-.05-2.9,0-.98.05-1.94.19-2.9.4-.72.16-1.42.39-2.11.7-.43.19-.76.47-1.05.89-.02.04-.03.07-.03.12v.42c.04.11.1.18.2.23h18.47c.11,0,.2-.1.2-.23v-.13h0c0-.13-.09-.23-.2-.24-.26-.04-.51-.07-.77-.11-.34-.02-.67-.07-1.01-.15l-.67-.21Z"/>
    <path class="st10" d="M645.71,922.16c-.27.11-.53.19-.81.26-.31.14-.62.26-.94.36-.44.14-.87.29-1.3.43-.6.2-1.2.35-1.82.44-.38.05-.76.1-1.14.12-.41.03-.81.06-1.22.08-.97.05-1.93.05-2.9,0-.98-.05-1.94-.19-2.9-.4-.72-.16-1.42-.39-2.11-.7-.43-.19-.76-.47-1.05-.89-.02-.04-.03-.07-.03-.12v-.42c.04-.11.1-.18.2-.23h18.47c.11,0,.2.1.2.23v.13h0c0,.13-.09.23-.2.24-.26.04-.51.07-.77.11-.34.02-.67.07-1.01.15l-.67.21Z"/>
  </g>
  <circle class="st12" cx="614.91" cy="971.27" r="9.6"/>
  <g>
    <polyline class="st14" points="550.04 960.33 551.38 960.33 551.38 968.92 550.04 968.92"/>
    <polyline class="st14" points="551.38 969.89 551.38 959.36 552.79 959.36 552.79 969.89 551.38 969.89"/>
  </g>
  <g>
    <g>
      <path class="st13" d="M592.81,880c0-4.54-3.92-8.22-8.75-8.22-3.56,0-7.08,2.33-8.29,5.6-.17.45-.5,1.39-.45,2.62.15,3.86,4,8.22,8.75,8.22s8.75-3.68,8.75-8.22Z"/>
      <path class="st3" d="M576.47,878.16c0-2.79,3.4-5.05,7.59-5.05"/>
      <path class="st3" d="M591.65,878.16c0-2.79-3.4-5.05-7.59-5.05"/>
      <path class="st3" d="M591.65,878.16c0,.55.44,1,.98,1"/>
      <path class="st3" d="M576.47,878.16c0,.55-.44,1-.98,1"/>
      <g>
        <path class="st13" d="M571.27,880c0-4.54-3.92-8.22-8.75-8.22-3.56,0-7.08,2.33-8.29,5.6-.17.45-.5,1.39-.45,2.62.15,3.86,4,8.22,8.75,8.22s8.75-3.68,8.75-8.22Z"/>
        <path class="st3" d="M554.93,878.16c0-2.79,3.4-5.05,7.59-5.05"/>
        <path class="st3" d="M570.11,878.16c0-2.79-3.4-5.05-7.59-5.05"/>
        <path class="st3" d="M570.11,878.16c0,.55.44,1,.98,1"/>
        <path class="st3" d="M554.93,878.16c0,.55-.47,1-1.06,1"/>
      </g>
    </g>
    <g>
      <path class="st13" d="M592.81,907.09c0,4.54-3.92,8.22-8.75,8.22-3.56,0-7.08-2.33-8.29-5.6-.17-.45-.5-1.39-.45-2.62.15-3.86,4-8.22,8.75-8.22s8.75,3.68,8.75,8.22Z"/>
      <path class="st3" d="M576.47,908.93c0,2.79,3.4,5.05,7.59,5.05"/>
      <path class="st3" d="M591.65,908.93c0,2.79-3.4,5.05-7.59,5.05"/>
      <path class="st3" d="M591.65,908.93c0-.55.44-1,.98-1"/>
      <path class="st3" d="M576.47,908.93c0-.55-.44-1-.98-1"/>
      <g>
        <path class="st13" d="M571.27,907.09c0,4.54-3.92,8.22-8.75,8.22-3.56,0-7.08-2.33-8.29-5.6-.17-.45-.5-1.39-.45-2.62.15-3.86,4-8.22,8.75-8.22s8.75,3.68,8.75,8.22Z"/>
        <path class="st3" d="M554.93,908.93c0,2.79,3.4,5.05,7.59,5.05"/>
        <path class="st3" d="M570.11,908.93c0,2.79-3.4,5.05-7.59,5.05"/>
        <path class="st3" d="M570.11,908.93c0-.55.44-1,.98-1"/>
        <path class="st3" d="M554.93,908.93c0-.55-.47-1-1.06-1"/>
      </g>
    </g>
    <rect class="st13" x="561.92" y="870.95" width="22.74" height="44.58" transform="translate(-319.96 1466.53) rotate(-90)"/>
  </g>
  <polygon class="st15" points="544.93 972.26 544.93 722.14 550.19 722.14 574.18 722.14 574.18 696.58 558.04 696.58 558.04 691.32 616.85 691.32 616.85 696.58 578.33 696.58 578.33 740.28 604.4 740.28 604.4 747.98 600.25 747.98 600.25 744.5 574.18 744.5 574.18 726.36 550.19 726.36 550.19 793.17 600.25 793.17 600.25 779.83 604.4 779.83 604.4 797.39 550.19 797.39 550.19 972.26 560.33 972.26 560.33 995.66 534.78 995.66 534.78 972.26 544.93 972.26"/>
  <path class="st0" d="M652.44,797.39"/>
  <g>
    <line class="st3" x1="647.89" y1="797.39" x2="647.86" y2="797.39"/>
    <line class="st7" x1="647.43" y1="797.39" x2="547.71" y2="797.39"/>
    <polyline class="st3" points="547.5 797.39 547.47 797.39 547.47 797.42"/>
    <line class="st2" x1="547.47" y1="797.84" x2="547.47" y2="858.1"/>
    <polyline class="st3" points="547.47 858.31 547.47 858.34 547.5 858.34"/>
    <line class="st9" x1="547.92" y1="858.34" x2="652.2" y2="858.34"/>
    <polyline class="st3" points="652.41 858.34 652.44 858.34 652.44 858.31"/>
    <line class="st8" x1="652.44" y1="857.89" x2="652.44" y2="803.33"/>
    <line class="st3" x1="652.44" y1="803.12" x2="652.44" y2="803.09"/>
  </g>
</svg>