<?xml version="1.0" encoding="UTF-8"?>
<svg id="Lag_1" xmlns="http://www.w3.org/2000/svg" version="1.1" viewBox="0 0 1200 1697.14">
  <!-- Generator: Adobe Illustrator 29.6.0, SVG Export Plug-In . SVG Version: 2.1.1 Build 207)  -->
  <defs>
    <style>
      .st0, .st1, .st2, .st3, .st4, .st5, .st6, .st7, .st8, .st9 {
        fill: none;
      }

      .st1 {
        stroke-dasharray: .06 .43;
      }

      .st1, .st2, .st10, .st3, .st4, .st5, .st6, .st7, .st11, .st8, .st12, .st13, .st14, .st9 {
        stroke-width: .18px;
      }

      .st1, .st2, .st10, .st3, .st4, .st5, .st6, .st7, .st8, .st12, .st13, .st14, .st9 {
        stroke-linejoin: round;
      }

      .st1, .st2, .st10, .st3, .st4, .st5, .st7, .st8, .st13, .st9 {
        stroke-linecap: round;
      }

      .st1, .st2, .st3, .st4, .st5, .st6, .st7, .st11, .st13, .st14, .st9 {
        stroke: #000;
      }

      .st2 {
        stroke-dasharray: .06 .43;
      }

      .st15 {
        fill: #000016;
      }

      .st10, .st11, .st12, .st13, .st14 {
        fill: #fff;
      }

      .st10, .st12 {
        stroke: #060305;
      }

      .st16 {
        fill: #e8e3e0;
      }

      .st4 {
        stroke-dasharray: .06 .43;
      }

      .st5 {
        stroke-dasharray: .06 .43;
      }

      .st7 {
        stroke-dasharray: .06 .43;
      }

      .st11 {
        stroke-miterlimit: 10;
      }

      .st8 {
        stroke: #767676;
      }

      .st17 {
        fill: #dbd7d5;
      }

      .st9 {
        stroke-dasharray: .06 .42;
      }
    </style>
  </defs>
  <polygon class="st16" points="624.26 693.06 624.26 722.36 652.6 722.36 652.6 992.85 548.92 992.85 548.92 693.06 624.26 693.06"/>
  <rect class="st17" x="547.7" y="797.39" width="104.9" height="60.96" transform="translate(1200.3 1655.73) rotate(-180)"/>
  <g>
    <path class="st3" d="M585.67,995.14s0,.02,0,.03"/>
    <path class="st4" d="M585.64,995.59c-.33,2.69-3.08,10.31-3.8,10.31l-19.36-11.01-.22-.13"/>
    <line class="st3" x1="562.07" y1="994.64" x2="562.04" y2="994.62"/>
  </g>
  <rect class="st14" x="632.4" y="797.2" width="17.48" height="21.03"/>
  <rect class="st14" x="613.96" y="797.2" width="17.55" height="21.03"/>
  <rect class="st14" x="595.58" y="797.2" width="17.57" height="21.03"/>
  <polygon class="st14" points="649.94 736.97 625.84 736.97 625.77 726.19 649.94 726.16 649.94 736.97"/>
  <line class="st3" x1="649.88" y1="797.39" x2="648.4" y2="797.39"/>
  <line class="st3" x1="646.48" y1="797.39" x2="645.22" y2="797.39"/>
  <line class="st3" x1="643.37" y1="797.39" x2="642.11" y2="797.39"/>
  <line class="st3" x1="640.18" y1="797.39" x2="638.92" y2="797.39"/>
  <line class="st3" x1="637.07" y1="797.39" x2="635.81" y2="797.39"/>
  <line class="st3" x1="649.88" y1="814.79" x2="649.88" y2="813.53"/>
  <line class="st3" x1="649.88" y1="811.61" x2="649.88" y2="810.35"/>
  <line class="st3" x1="649.88" y1="808.5" x2="649.88" y2="807.24"/>
  <line class="st3" x1="649.88" y1="805.31" x2="649.88" y2="804.05"/>
  <line class="st3" x1="649.88" y1="802.2" x2="649.88" y2="800.94"/>
  <line class="st3" x1="649.88" y1="799.01" x2="649.88" y2="797.39"/>
  <line class="st3" x1="613.15" y1="797.39" x2="611.67" y2="797.39"/>
  <line class="st3" x1="609.74" y1="797.39" x2="608.48" y2="797.39"/>
  <line class="st3" x1="606.63" y1="797.39" x2="605.37" y2="797.39"/>
  <line class="st3" x1="603.44" y1="797.39" x2="602.18" y2="797.39"/>
  <line class="st3" x1="600.26" y1="797.39" x2="599" y2="797.39"/>
  <line class="st3" x1="631.52" y1="797.39" x2="630.03" y2="797.39"/>
  <line class="st3" x1="628.11" y1="797.39" x2="626.85" y2="797.39"/>
  <line class="st3" x1="625" y1="797.39" x2="623.74" y2="797.39"/>
  <line class="st3" x1="621.81" y1="797.39" x2="620.55" y2="797.39"/>
  <line class="st3" x1="618.7" y1="797.39" x2="617.44" y2="797.39"/>
  <line class="st3" x1="597.74" y1="749.76" x2="569.37" y2="749.76"/>
  <path class="st3" d="M569.37,749.72c0,15.65,12.68,28.33,28.33,28.33"/>
  <line class="st3" x1="597.74" y1="778.13" x2="597.74" y2="749.76"/>
  <path class="st3" d="M581.45,693.1h-28.29l-.04,28.29c15.65,0,28.33-12.68,28.33-28.33"/>
  <polyline class="st13" points="600.7 739.61 621.74 739.61 621.74 697.62 600.7 697.62 600.7 739.61"/>
  <polyline class="st3" points="621.74 727.39 600.7 727.39 600.7 739.61 621.74 739.61 621.74 727.39"/>
  <line class="st3" x1="619.29" y1="733.32" x2="613.67" y2="733.32"/>
  <line class="st3" x1="608.78" y1="733.32" x2="603.15" y2="733.32"/>
  <line class="st3" x1="605.96" y1="730.5" x2="605.96" y2="736.13"/>
  <line class="st3" x1="616.48" y1="730.5" x2="616.48" y2="736.13"/>
  <polyline class="st3" points="604.18 701.1 618.18 701.1 618.18 715.1 604.18 715.1 604.18 701.1"/>
  <polyline class="st3" points="621.74 718.65 621.74 697.62 600.7 697.62 600.7 718.65 621.74 718.65"/>
  <line class="st3" x1="620.11" y1="708.14" x2="614.55" y2="708.14"/>
  <polyline class="st13" points="637.96 994.62 637.96 989.36 639.74 989.36 639.74 994.62 637.96 994.62"/>
  <polyline class="st13" points="587.37 994.62 637.96 994.62 637.96 992.85 587.37 992.85 587.37 994.62"/>
  <polyline class="st13" points="560.26 994.62 560.26 989.36 562.04 989.36 562.04 994.62 560.26 994.62"/>
  <polyline class="st13" points="585.67 994.62 585.67 989.36 587.37 989.36 587.37 994.62 585.67 994.62"/>
  <line class="st3" x1="639.74" y1="995.66" x2="560.26" y2="995.66"/>
  <path class="st14" d="M633.75,784.96c0,.96.78,1.74,1.74,1.74.96,0,1.74-.78,1.74-1.74,0-.96-.78-1.74-1.74-1.74s-1.74.78-1.74,1.74"/>
  <path class="st11" d="M631.65,736.97v10.17c0,3.92,2.81,7.08,6.29,7.08,3.48,0,6.29-3.17,6.29-7.08v-10.17s-12.58,0-12.58,0Z"/>
  <path class="st14" d="M619.56,792.94v-9.22c0-.2-.13-.37-.3-.37h-16.81c-.2,0-.37.17-.37.37v9.22"/>
  <path class="st6" d="M610.16,791.24c0-.35.28-.63.63-.63s.63.28.63.63c0,.35-.28.63-.63.63s-.63-.28-.63-.63"/>
  <path class="st6" d="M610.01,786.79c0-.43.35-.78.78-.78s.78.35.78.78-.35.78-.78.78c-.43,0-.78-.35-.78-.78"/>
  <path class="st6" d="M609.64,786.79c0-.63.51-1.15,1.15-1.15s1.15.51,1.15,1.15-.51,1.15-1.15,1.15-1.15-.51-1.15-1.15"/>
  <path class="st6" d="M602.82,783.72h16c.2,0,.37.17.37.37v5.41c0,.2-.17.37-.37.37h-16c-.2,0-.37-.17-.37-.37v-5.41c0-.2.17-.37.37-.37Z"/>
  <g>
    <polyline class="st3" points="621.45 764.73 621.45 764.7 621.48 764.7"/>
    <line class="st1" x1="621.91" y1="764.7" x2="649.21" y2="764.7"/>
    <polyline class="st3" points="649.42 764.7 649.45 764.7 649.45 764.73"/>
    <line class="st1" x1="649.45" y1="765.16" x2="649.45" y2="792.46"/>
    <polyline class="st3" points="649.45 792.67 649.45 792.7 649.42 792.7"/>
    <line class="st1" x1="649" y1="792.7" x2="621.69" y2="792.7"/>
    <polyline class="st3" points="621.48 792.7 621.45 792.7 621.45 792.67"/>
    <line class="st1" x1="621.45" y1="792.25" x2="621.45" y2="764.94"/>
  </g>
  <line class="st6" x1="635.45" y1="792.7" x2="635.45" y2="784.92"/>
  <line class="st6" x1="625.82" y1="721.97" x2="655" y2="696.41"/>
  <line class="st6" x1="655.14" y1="722.13" x2="625.82" y2="696.41"/>
  <polyline class="st13" points="562.04 994.62 585.67 994.62 585.67 991.96 562.04 991.96 562.04 994.62"/>
  <polygon class="st15" points="551.38 691.25 547.52 691.25 543.67 691.25 543.67 696.51 544.86 696.51 544.86 789.43 544.86 789.61 544.86 791.3 544.86 795.09 550.19 795.09 550.19 791.3 550.19 789.43 550.19 789.43 550.12 696.51 551.38 696.51 551.38 691.25"/>
  <polygon class="st15" points="550.12 972.11 550.12 808.2 550.12 806.41 550.12 801.13 544.86 801.13 544.86 806.41 544.86 808.2 544.86 972.11 534.71 972.11 534.71 995.66 560.26 995.66 560.26 972.11 550.12 972.11"/>
  <g>
    <polyline class="st13" points="542.93 794.09 552.04 793.95 552.12 803.06 543.01 803.13 542.93 794.09"/>
    <line class="st8" x1="542.93" y1="796.17" x2="545.08" y2="794.02"/>
    <line class="st8" x1="543.01" y1="800.83" x2="549.82" y2="794.02"/>
    <line class="st8" x1="545.45" y1="803.13" x2="552.04" y2="796.46"/>
    <line class="st8" x1="550.19" y1="803.06" x2="552.12" y2="801.13"/>
    <line class="st8" x1="545.08" y1="803.13" x2="543.01" y2="801.06"/>
    <line class="st8" x1="549.75" y1="803.13" x2="542.93" y2="796.32"/>
    <line class="st8" x1="552.12" y1="800.76" x2="545.38" y2="794.02"/>
    <line class="st8" x1="552.04" y1="796.02" x2="550.04" y2="794.02"/>
  </g>
  <g>
    <g>
      <path class="st13" d="M606.23,872.65c0-4.59,3.96-8.32,8.85-8.32,3.6,0,7.16,2.35,8.39,5.67.17.45.51,1.4.46,2.65-.16,3.91-4.05,8.32-8.85,8.32s-8.85-3.72-8.85-8.32Z"/>
      <path class="st3" d="M622.76,870.78c0-2.82-3.44-5.11-7.68-5.11"/>
      <path class="st3" d="M607.4,870.78c0-2.82,3.44-5.11,7.68-5.11"/>
      <path class="st3" d="M607.4,870.78c0,.56-.44,1.01-.99,1.01"/>
      <path class="st3" d="M622.76,870.78c0,.56.44,1.01.99,1.01"/>
      <g>
        <path class="st13" d="M628.02,872.65c0-4.59,3.96-8.32,8.85-8.32,3.6,0,7.16,2.35,8.39,5.67.17.45.51,1.4.46,2.65-.16,3.91-4.05,8.32-8.85,8.32-4.89,0-8.85-3.72-8.85-8.32Z"/>
        <path class="st3" d="M644.56,870.78c0-2.82-3.44-5.11-7.68-5.11"/>
        <path class="st3" d="M629.19,870.78c0-2.82,3.44-5.11,7.68-5.11"/>
        <path class="st3" d="M629.19,870.78c0,.56-.44,1.01-.99,1.01"/>
        <path class="st3" d="M644.56,870.78c0,.56.48,1.01,1.07,1.01"/>
      </g>
    </g>
    <g>
      <path class="st13" d="M606.23,900.05c0,4.59,3.96,8.32,8.85,8.32,3.6,0,7.16-2.35,8.39-5.67.17-.45.51-1.4.46-2.65-.16-3.91-4.05-8.32-8.85-8.32s-8.85,3.72-8.85,8.32Z"/>
      <path class="st3" d="M622.76,901.92c0,2.82-3.44,5.11-7.68,5.11"/>
      <path class="st3" d="M607.4,901.92c0,2.82,3.44,5.11,7.68,5.11"/>
      <path class="st3" d="M607.4,901.92c0-.56-.44-1.01-.99-1.01"/>
      <path class="st3" d="M622.76,901.92c0-.56.44-1.01.99-1.01"/>
      <g>
        <path class="st13" d="M628.02,900.05c0,4.59,3.96,8.32,8.85,8.32,3.6,0,7.16-2.35,8.39-5.67.17-.45.51-1.4.46-2.65-.16-3.91-4.05-8.32-8.85-8.32-4.89,0-8.85,3.72-8.85,8.32Z"/>
        <path class="st3" d="M644.56,901.92c0,2.82-3.44,5.11-7.68,5.11"/>
        <path class="st3" d="M629.19,901.92c0,2.82,3.44,5.11,7.68,5.11"/>
        <path class="st3" d="M629.19,901.92c0-.56-.44-1.01-.99-1.01"/>
        <path class="st3" d="M644.56,901.92c0-.56.48-1.01,1.07-1.01"/>
      </g>
    </g>
    <rect class="st13" x="614.47" y="863.5" width="23.01" height="45.1" transform="translate(-260.07 1512.03) rotate(-90)"/>
  </g>
  <g>
    <path class="st10" d="M572.57,969.25c1.25-7.65,1.37-15.49.38-23.19,0-.33-.2-.62-.47-.69-6.45-.02-12.9-.05-19.36-.07"/>
    <path class="st10" d="M572.57,969.25c-.02.13-.11.22-.22.23h-1.81s-17.16,0-17.16,0l-.26-24.21c6.45-.02,12.9-.05,19.36-.07.28-.07.47-.36.47-.69,1-7.7.87-15.54-.38-23.19-.02-.13-.11-.22-.22-.23h-1.81s-17.42,0-17.42,0v24.19"/>
    <path class="st10" d="M552.13,969.14c.6.07,1.2.08,1.8.01.12-.02.2-.13.2-.27.18-7.74.22-15.47.13-23.21-.02-.19-.17-.34-.33-.35-.66-.06-1.31-.05-1.97.03"/>
    <path class="st10" d="M552.13,921.42c.6-.07,1.2-.08,1.8-.01.12.02.2.13.2.27.18,7.74.22,15.47.13,23.21-.02.19-.17.34-.33.35-.66.06-1.31.05-1.97-.03"/>
    <path class="st10" d="M551.78,921.13h-.21c-.07,0-.13.07-.13.15,0,16.01,0,32.01,0,48.02,0,.08.06.15.13.15h.21s.15-.06.15-.06v-.36s-.15-47.88-.15-47.88Z"/>
    <path class="st10" d="M555.86,968.36c0,.47-1.12.85-2.49.85-.11,0-.22,0-.33-.01l-.9-.06c-.12-.02-.2-.13-.2-.27v-23.55h2c.65.01,1.31.02,1.96.04.28.07.47.36.47.69,1.05,7.41.88,14.98-.51,22.31Z"/>
    <path class="st10" d="M555.86,922.24c0-.47-1.12-.85-2.49-.85-.11,0-.22,0-.33.01l-.9.06c-.12.02-.2.13-.2.27v23.55h2c.65-.01,1.31-.02,1.96-.04.28-.07.47-.36.47-.69,1.05-7.41.88-14.98-.51-22.31Z"/>
    <path class="st10" d="M554.12,968.98c.27-.11.54-.2.82-.27.31-.14.63-.26.95-.37.44-.14.88-.29,1.32-.44.61-.21,1.22-.35,1.85-.44.38-.06.77-.1,1.16-.13.41-.03.82-.06,1.23-.08.98-.05,1.95-.05,2.93,0,.99.05,1.96.19,2.93.41.73.16,1.44.4,2.13.71.44.19.77.48,1.06.9.02.04.04.07.04.12v.42c-.04.12-.1.18-.2.23-6.23,0-12.46,0-18.69,0-.11,0-.2-.1-.2-.23v-.13h0c0-.13.09-.23.2-.24.26-.04.52-.07.77-.11.34-.02.68-.07,1.02-.16l.68-.21Z"/>
    <path class="st10" d="M554.12,921.58c.27.11.54.2.82.27.31.14.63.26.95.37.44.14.88.29,1.32.44.61.21,1.22.35,1.85.44.38.06.77.1,1.16.13.41.03.82.06,1.23.08.98.05,1.95.05,2.93,0,.99-.05,1.96-.19,2.93-.41.73-.16,1.44-.4,2.13-.71.44-.19.77-.48,1.06-.9.02-.04.04-.07.04-.12v-.42c-.04-.12-.1-.18-.2-.23-6.23,0-12.46,0-18.69,0-.11,0-.2.1-.2.23v.13h0c0,.13.09.23.2.24.26.04.52.07.77.11.34.02.68.07,1.02.16l.68.21Z"/>
  </g>
  <circle class="st12" cx="586.34" cy="958.25" r="9.71"/>
  <g>
    <polyline class="st14" points="649.96 960.67 648.63 960.67 648.63 944.96 649.96 944.96"/>
    <polyline class="st14" points="648.63 944.07 648.63 961.63 647.22 961.63 647.22 944.07 648.63 944.07"/>
  </g>
  <polygon class="st15" points="655.14 972.26 655.14 722.13 649.88 722.13 625.89 722.13 625.89 696.58 642.03 696.58 642.03 691.32 583.22 691.32 583.22 696.58 621.74 696.58 621.74 740.28 595.67 740.28 595.67 747.98 599.81 747.98 599.81 744.5 625.89 744.5 625.89 726.36 649.88 726.36 649.88 793.16 599.81 793.16 599.81 779.83 595.67 779.83 595.67 797.39 649.88 797.39 649.88 972.26 639.74 972.26 639.74 995.66 665.29 995.66 665.29 972.26 655.14 972.26"/>
  <path class="st0" d="M547.52,797.39"/>
  <g>
    <line class="st3" x1="547.52" y1="803.13" x2="547.52" y2="803.16"/>
    <line class="st9" x1="547.52" y1="803.58" x2="547.52" y2="858.08"/>
    <polyline class="st3" points="547.52 858.29 547.52 858.32 547.55 858.32"/>
    <line class="st7" x1="547.98" y1="858.32" x2="651.07" y2="858.32"/>
    <polyline class="st3" points="651.28 858.32 651.31 858.32 651.31 858.29"/>
    <line class="st5" x1="651.31" y1="857.87" x2="651.31" y2="797.63"/>
    <polyline class="st3" points="651.31 797.41 651.31 797.39 651.28 797.39"/>
    <line class="st2" x1="650.86" y1="797.39" x2="552.31" y2="797.39"/>
    <line class="st3" x1="552.1" y1="797.39" x2="552.07" y2="797.39"/>
  </g>
</svg>