<?xml version="1.0" encoding="UTF-8"?>
<svg id="Lag_1" xmlns="http://www.w3.org/2000/svg" version="1.1" viewBox="0 0 1200 1697.14">
  <!-- Generator: Adobe Illustrator 29.6.0, SVG Export Plug-In . SVG Version: 2.1.1 Build 207)  -->
  <defs>
    <style>
      .st0, .st1, .st2, .st3, .st4, .st5, .st6, .st7, .st8, .st9 {
        fill: none;
      }

      .st1 {
        stroke-dasharray: .06 .43;
      }

      .st1, .st10, .st2, .st3, .st4, .st5, .st6, .st11, .st7, .st12, .st13, .st8, .st14, .st9 {
        stroke-width: .18px;
      }

      .st1, .st10, .st2, .st3, .st4, .st5, .st6, .st7, .st12, .st13, .st8, .st14, .st9 {
        stroke-linejoin: round;
      }

      .st1, .st10, .st2, .st3, .st4, .st5, .st7, .st13, .st8, .st9 {
        stroke-linecap: round;
      }

      .st1, .st2, .st3, .st4, .st5, .st6, .st11, .st13, .st8, .st14, .st9 {
        stroke: #000;
      }

      .st15 {
        fill: #000016;
      }

      .st10, .st11, .st12, .st13, .st14 {
        fill: #fff;
      }

      .st10, .st12 {
        stroke: #060305;
      }

      .st2 {
        stroke-dasharray: .06 .42;
      }

      .st16 {
        fill: #e8e3e0;
      }

      .st3 {
        stroke-dasharray: .06 .42;
      }

      .st5 {
        stroke-dasharray: .06 .43;
      }

      .st11 {
        stroke-miterlimit: 10;
      }

      .st7 {
        stroke: #767676;
      }

      .st17 {
        fill: #dbd7d5;
      }

      .st8 {
        stroke-dasharray: .06 .42;
      }

      .st9 {
        stroke-dasharray: .06 .42;
      }
    </style>
  </defs>
  <polygon class="st16" points="624.26 693.06 624.26 722.36 652.6 722.36 652.6 992.85 548.92 992.85 548.92 693.06 624.26 693.06"/>
  <rect class="st17" x="547.7" y="797.39" width="104.9" height="60.96" transform="translate(1200.3 1655.73) rotate(-180)"/>
  <g>
    <path class="st4" d="M585.67,995.14s0,.02,0,.03"/>
    <path class="st5" d="M585.64,995.59c-.33,2.69-3.08,10.31-3.8,10.31l-19.36-11.01-.22-.13"/>
    <line class="st4" x1="562.07" y1="994.64" x2="562.04" y2="994.62"/>
  </g>
  <rect class="st14" x="632.4" y="797.2" width="17.48" height="21.03"/>
  <rect class="st14" x="613.96" y="797.2" width="17.55" height="21.03"/>
  <rect class="st14" x="595.58" y="797.2" width="17.57" height="21.03"/>
  <polygon class="st14" points="649.94 736.97 625.84 736.97 625.77 726.19 649.94 726.16 649.94 736.97"/>
  <line class="st4" x1="649.88" y1="797.39" x2="648.4" y2="797.39"/>
  <line class="st4" x1="646.48" y1="797.39" x2="645.22" y2="797.39"/>
  <line class="st4" x1="643.37" y1="797.39" x2="642.11" y2="797.39"/>
  <line class="st4" x1="640.18" y1="797.39" x2="638.92" y2="797.39"/>
  <line class="st4" x1="637.07" y1="797.39" x2="635.81" y2="797.39"/>
  <line class="st4" x1="649.88" y1="814.79" x2="649.88" y2="813.53"/>
  <line class="st4" x1="649.88" y1="811.61" x2="649.88" y2="810.35"/>
  <line class="st4" x1="649.88" y1="808.5" x2="649.88" y2="807.24"/>
  <line class="st4" x1="649.88" y1="805.31" x2="649.88" y2="804.05"/>
  <line class="st4" x1="649.88" y1="802.2" x2="649.88" y2="800.94"/>
  <line class="st4" x1="649.88" y1="799.01" x2="649.88" y2="797.39"/>
  <line class="st4" x1="613.15" y1="797.39" x2="611.67" y2="797.39"/>
  <line class="st4" x1="609.74" y1="797.39" x2="608.48" y2="797.39"/>
  <line class="st4" x1="606.63" y1="797.39" x2="605.37" y2="797.39"/>
  <line class="st4" x1="603.44" y1="797.39" x2="602.18" y2="797.39"/>
  <line class="st4" x1="600.26" y1="797.39" x2="599" y2="797.39"/>
  <line class="st4" x1="631.52" y1="797.39" x2="630.03" y2="797.39"/>
  <line class="st4" x1="628.11" y1="797.39" x2="626.85" y2="797.39"/>
  <line class="st4" x1="625" y1="797.39" x2="623.74" y2="797.39"/>
  <line class="st4" x1="621.81" y1="797.39" x2="620.55" y2="797.39"/>
  <line class="st4" x1="618.7" y1="797.39" x2="617.44" y2="797.39"/>
  <line class="st4" x1="597.74" y1="749.76" x2="569.37" y2="749.76"/>
  <path class="st4" d="M569.37,749.72c0,15.65,12.68,28.33,28.33,28.33"/>
  <line class="st4" x1="597.74" y1="778.13" x2="597.74" y2="749.76"/>
  <path class="st4" d="M581.45,693.1h-28.29l-.04,28.29c15.65,0,28.33-12.68,28.33-28.33"/>
  <polyline class="st13" points="600.7 739.61 621.74 739.61 621.74 697.62 600.7 697.62 600.7 739.61"/>
  <polyline class="st4" points="621.74 727.39 600.7 727.39 600.7 739.61 621.74 739.61 621.74 727.39"/>
  <line class="st4" x1="619.29" y1="733.32" x2="613.67" y2="733.32"/>
  <line class="st4" x1="608.78" y1="733.32" x2="603.15" y2="733.32"/>
  <line class="st4" x1="605.96" y1="730.5" x2="605.96" y2="736.13"/>
  <line class="st4" x1="616.48" y1="730.5" x2="616.48" y2="736.13"/>
  <polyline class="st4" points="604.18 701.1 618.18 701.1 618.18 715.1 604.18 715.1 604.18 701.1"/>
  <polyline class="st4" points="621.74 718.65 621.74 697.62 600.7 697.62 600.7 718.65 621.74 718.65"/>
  <line class="st4" x1="620.11" y1="708.14" x2="614.55" y2="708.14"/>
  <polyline class="st13" points="637.96 994.62 637.96 989.36 639.74 989.36 639.74 994.62 637.96 994.62"/>
  <polyline class="st13" points="587.37 994.62 637.96 994.62 637.96 992.85 587.37 992.85 587.37 994.62"/>
  <polyline class="st13" points="560.26 994.62 560.26 989.36 562.04 989.36 562.04 994.62 560.26 994.62"/>
  <polyline class="st13" points="585.67 994.62 585.67 989.36 587.37 989.36 587.37 994.62 585.67 994.62"/>
  <line class="st4" x1="639.74" y1="995.66" x2="560.26" y2="995.66"/>
  <path class="st14" d="M633.75,784.96c0,.96.78,1.74,1.74,1.74s1.74-.78,1.74-1.74c0-.96-.78-1.74-1.74-1.74-.96,0-1.74.78-1.74,1.74"/>
  <path class="st11" d="M631.65,736.97v10.17c0,3.92,2.81,7.08,6.29,7.08,3.48,0,6.29-3.17,6.29-7.08v-10.17s-12.58,0-12.58,0Z"/>
  <path class="st14" d="M619.56,792.94v-9.22c0-.2-.13-.37-.3-.37h-16.81c-.2,0-.37.17-.37.37v9.22"/>
  <path class="st6" d="M610.16,791.24c0-.35.28-.63.63-.63s.63.28.63.63c0,.35-.28.63-.63.63s-.63-.28-.63-.63"/>
  <path class="st6" d="M610.01,786.79c0-.43.35-.78.78-.78s.78.35.78.78-.35.78-.78.78c-.43,0-.78-.35-.78-.78"/>
  <path class="st6" d="M609.64,786.79c0-.63.51-1.15,1.15-1.15s1.15.51,1.15,1.15-.51,1.15-1.15,1.15-1.15-.51-1.15-1.15"/>
  <path class="st6" d="M602.82,783.72h16c.2,0,.37.17.37.37v5.41c0,.2-.17.37-.37.37h-16c-.2,0-.37-.17-.37-.37v-5.41c0-.2.17-.37.37-.37Z"/>
  <g>
    <polyline class="st4" points="621.45 764.73 621.45 764.7 621.48 764.7"/>
    <line class="st1" x1="621.91" y1="764.7" x2="649.21" y2="764.7"/>
    <polyline class="st4" points="649.42 764.7 649.45 764.7 649.45 764.73"/>
    <line class="st1" x1="649.45" y1="765.16" x2="649.45" y2="792.46"/>
    <polyline class="st4" points="649.45 792.67 649.45 792.7 649.42 792.7"/>
    <line class="st1" x1="649" y1="792.7" x2="621.69" y2="792.7"/>
    <polyline class="st4" points="621.48 792.7 621.45 792.7 621.45 792.67"/>
    <line class="st1" x1="621.45" y1="792.25" x2="621.45" y2="764.94"/>
  </g>
  <line class="st6" x1="635.45" y1="792.7" x2="635.45" y2="784.92"/>
  <line class="st6" x1="625.82" y1="721.97" x2="655" y2="696.41"/>
  <line class="st6" x1="655.14" y1="722.13" x2="625.82" y2="696.41"/>
  <polyline class="st13" points="562.04 994.62 585.67 994.62 585.67 991.96 562.04 991.96 562.04 994.62"/>
  <polygon class="st15" points="551.38 691.25 547.52 691.25 543.67 691.25 543.67 696.51 544.86 696.51 544.86 789.43 544.86 789.61 544.86 791.3 544.86 795.09 550.19 795.09 550.19 791.3 550.19 789.43 550.19 789.43 550.12 696.51 551.38 696.51 551.38 691.25"/>
  <polygon class="st15" points="550.12 972.11 550.12 808.2 550.12 806.41 550.12 801.13 544.86 801.13 544.86 806.41 544.86 808.2 544.86 972.11 534.71 972.11 534.71 995.66 560.26 995.66 560.26 972.11 550.12 972.11"/>
  <g>
    <polyline class="st13" points="542.93 794.09 552.04 793.95 552.12 803.06 543.01 803.13 542.93 794.09"/>
    <line class="st7" x1="542.93" y1="796.17" x2="545.08" y2="794.02"/>
    <line class="st7" x1="543.01" y1="800.83" x2="549.82" y2="794.02"/>
    <line class="st7" x1="545.45" y1="803.13" x2="552.04" y2="796.46"/>
    <line class="st7" x1="550.19" y1="803.06" x2="552.12" y2="801.13"/>
    <line class="st7" x1="545.08" y1="803.13" x2="543.01" y2="801.06"/>
    <line class="st7" x1="549.75" y1="803.13" x2="542.93" y2="796.32"/>
    <line class="st7" x1="552.12" y1="800.76" x2="545.38" y2="794.02"/>
    <line class="st7" x1="552.04" y1="796.02" x2="550.04" y2="794.02"/>
  </g>
  <g>
    <path class="st10" d="M572.48,969.57c1.23-7.56,1.36-15.31.37-22.93,0-.33-.19-.61-.47-.68-6.38-.02-12.75-.05-19.13-.07"/>
    <path class="st10" d="M572.48,969.57c-.02.13-.11.22-.22.23h-1.79s-16.96,0-16.96,0l-.26-23.93c6.38-.02,12.75-.05,19.13-.07.27-.07.47-.36.47-.68.99-7.61.86-15.36-.37-22.93-.02-.13-.11-.22-.22-.23h-1.79s-17.22,0-17.22,0v23.91"/>
    <path class="st10" d="M552.28,969.47c.6.07,1.18.08,1.78.01.11-.02.2-.13.2-.27.18-7.65.22-15.29.13-22.94-.02-.19-.16-.34-.33-.34-.65-.06-1.3-.04-1.95.03"/>
    <path class="st10" d="M552.28,922.3c.6-.07,1.18-.08,1.78-.01.11.02.2.13.2.27.18,7.65.22,15.29.13,22.94-.02.19-.16.34-.33.34-.65.06-1.3.04-1.95-.03"/>
    <path class="st10" d="M551.94,922.01h-.21c-.07,0-.12.06-.12.14,0,15.82,0,31.64,0,47.46,0,.08.06.14.12.14h.21s.14-.06.14-.06v-.36s-.14-47.33-.14-47.33Z"/>
    <path class="st10" d="M555.97,968.7c0,.47-1.1.84-2.47.84-.11,0-.22,0-.33-.01l-.89-.06c-.11-.02-.2-.13-.2-.27v-23.27h1.98c.65.01,1.29.02,1.94.04.27.07.47.36.47.68,1.04,7.32.87,14.8-.5,22.05Z"/>
    <path class="st10" d="M555.97,923.11c0-.47-1.1-.84-2.47-.84-.11,0-.22,0-.33.01l-.89.06c-.11.02-.2.13-.2.27v23.27h1.98c.65-.01,1.29-.02,1.94-.04.27-.07.47-.36.47-.68,1.04-7.32.87-14.8-.5-22.05Z"/>
    <path class="st10" d="M554.25,969.31c.27-.11.53-.19.81-.26.31-.14.62-.26.94-.36.44-.14.87-.29,1.3-.43.6-.2,1.2-.35,1.82-.44.38-.05.76-.1,1.14-.12.41-.03.81-.06,1.22-.08.97-.05,1.93-.05,2.9,0,.98.05,1.94.19,2.9.4.72.16,1.42.39,2.11.7.43.19.76.47,1.05.89.02.04.03.07.03.12v.42c-.04.11-.1.18-.2.23h-18.47c-.11,0-.2-.1-.2-.23v-.13h0c0-.13.09-.23.2-.24.26-.04.51-.07.77-.11.34-.02.67-.07,1.01-.15l.67-.21Z"/>
    <path class="st10" d="M554.25,922.46c.27.11.53.19.81.26.31.14.62.26.94.36.44.14.87.29,1.3.43.6.2,1.2.35,1.82.44.38.05.76.1,1.14.12.41.03.81.06,1.22.08.97.05,1.93.05,2.9,0,.98-.05,1.94-.19,2.9-.4.72-.16,1.42-.39,2.11-.7.43-.19.76-.47,1.05-.89.02-.04.03-.07.03-.12v-.42c-.04-.11-.1-.18-.2-.23h-18.47c-.11,0-.2.1-.2.23v.13h0c0,.13.09.23.2.24.26.04.51.07.77.11.34.02.67.07,1.01.15l.67.21Z"/>
  </g>
  <circle class="st12" cx="585.05" cy="971.57" r="9.6"/>
  <g>
    <g>
      <path class="st13" d="M607.15,880.3c0-4.54,3.92-8.22,8.75-8.22,3.56,0,7.08,2.33,8.29,5.6.17.45.5,1.39.45,2.62-.15,3.86-4,8.22-8.75,8.22s-8.75-3.68-8.75-8.22Z"/>
      <path class="st4" d="M623.49,878.46c0-2.79-3.4-5.05-7.59-5.05"/>
      <path class="st4" d="M608.31,878.46c0-2.79,3.4-5.05,7.59-5.05"/>
      <path class="st4" d="M608.31,878.46c0,.55-.44,1-.98,1"/>
      <path class="st4" d="M623.49,878.46c0,.55.44,1,.98,1"/>
      <g>
        <path class="st13" d="M628.69,880.3c0-4.54,3.92-8.22,8.75-8.22,3.56,0,7.08,2.33,8.29,5.6.17.45.5,1.39.45,2.62-.15,3.86-4,8.22-8.75,8.22s-8.75-3.68-8.75-8.22Z"/>
        <path class="st4" d="M645.03,878.46c0-2.79-3.4-5.05-7.59-5.05"/>
        <path class="st4" d="M629.85,878.46c0-2.79,3.4-5.05,7.59-5.05"/>
        <path class="st4" d="M629.85,878.46c0,.55-.44,1-.98,1"/>
        <path class="st4" d="M645.03,878.46c0,.55.47,1,1.06,1"/>
      </g>
    </g>
    <g>
      <path class="st13" d="M607.15,907.39c0,4.54,3.92,8.22,8.75,8.22,3.56,0,7.08-2.33,8.29-5.6.17-.45.5-1.39.45-2.62-.15-3.86-4-8.22-8.75-8.22s-8.75,3.68-8.75,8.22Z"/>
      <path class="st4" d="M623.49,909.23c0,2.79-3.4,5.05-7.59,5.05"/>
      <path class="st4" d="M608.31,909.23c0,2.79,3.4,5.05,7.59,5.05"/>
      <path class="st4" d="M608.31,909.23c0-.55-.44-1-.98-1"/>
      <path class="st4" d="M623.49,909.23c0-.55.44-1,.98-1"/>
      <g>
        <path class="st13" d="M628.69,907.39c0,4.54,3.92,8.22,8.75,8.22,3.56,0,7.08-2.33,8.29-5.6.17-.45.5-1.39.45-2.62-.15-3.86-4-8.22-8.75-8.22s-8.75,3.68-8.75,8.22Z"/>
        <path class="st4" d="M645.03,909.23c0,2.79-3.4,5.05-7.59,5.05"/>
        <path class="st4" d="M629.85,909.23c0,2.79,3.4,5.05,7.59,5.05"/>
        <path class="st4" d="M629.85,909.23c0-.55-.44-1-.98-1"/>
        <path class="st4" d="M645.03,909.23c0-.55.47-1,1.06-1"/>
      </g>
    </g>
    <rect class="st13" x="615.3" y="871.26" width="22.74" height="44.58" transform="translate(-266.88 1520.22) rotate(-90)"/>
  </g>
  <polyline class="st13" points="650.17 948.76 648.75 948.76 648.75 964.5 650.17 964.5"/>
  <polyline class="st13" points="648.96 965.4 648.96 947.87 647.55 947.87 647.55 965.4 648.96 965.4"/>
  <polygon class="st15" points="655.14 972.26 655.14 722.13 649.88 722.13 625.89 722.13 625.89 696.58 642.03 696.58 642.03 691.32 583.22 691.32 583.22 696.58 621.74 696.58 621.74 740.28 595.67 740.28 595.67 747.98 599.81 747.98 599.81 744.5 625.89 744.5 625.89 726.36 649.88 726.36 649.88 793.16 599.81 793.16 599.81 779.83 595.67 779.83 595.67 797.39 649.88 797.39 649.88 972.26 639.74 972.26 639.74 995.66 665.29 995.66 665.29 972.26 655.14 972.26"/>
  <path class="st0" d="M548.27,797.31"/>
  <g>
    <line class="st4" x1="548.27" y1="803.06" x2="548.27" y2="803.08"/>
    <line class="st9" x1="548.27" y1="803.51" x2="548.27" y2="858.1"/>
    <polyline class="st4" points="548.27 858.31 548.27 858.34 548.29 858.34"/>
    <line class="st2" x1="548.72" y1="858.34" x2="651.45" y2="858.34"/>
    <polyline class="st4" points="651.66 858.34 651.69 858.34 651.69 858.31"/>
    <line class="st3" x1="651.69" y1="857.89" x2="651.69" y2="797.55"/>
    <polyline class="st4" points="651.69 797.34 651.69 797.31 651.66 797.31"/>
    <line class="st8" x1="651.24" y1="797.31" x2="552.36" y2="797.31"/>
    <line class="st4" x1="552.14" y1="797.31" x2="552.12" y2="797.31"/>
  </g>
</svg>