<?xml version="1.0" encoding="UTF-8"?>
<svg xmlns="http://www.w3.org/2000/svg" version="1.1" viewBox="0 0 1200 1697.14">
  <!-- Generator: Adobe Illustrator 29.6.0, SVG Export Plug-In . SVG Version: 2.1.1 Build 207)  -->
  <defs>
    <style>
      .st0, .st1, .st2, .st3, .st4 {
        stroke-linecap: round;
        stroke-linejoin: round;
      }

      .st0, .st1, .st2, .st3, .st4, .st5 {
        stroke-width: .15px;
      }

      .st0, .st1, .st5 {
        stroke: #0d101f;
      }

      .st0, .st6 {
        fill: #fff;
      }

      .st1, .st2, .st3, .st4, .st5 {
        fill: none;
      }

      .st2 {
        stroke: #010101;
      }

      .st7 {
        fill: #383037;
      }

      .st3 {
        stroke: #11100e;
      }

      .st4 {
        stroke: #0d1020;
      }

      .st5 {
        stroke-miterlimit: 10;
      }

      .st8 {
        fill: #f2efed;
      }
    </style>
  </defs>
  <g id="sfondo">
    <g>
      <polygon class="st8" points="774.72 585.17 774.72 1163.81 556.77 1163.81 556.77 1146.69 558.12 1146.69 636.48 1146.69 636.48 1094.91 636.48 1093.56 642.78 1093.56 642.78 1094.91 642.78 1134.54 642.78 1146.69 766.16 1146.69 766.16 1008.45 642.78 1008.45 642.78 1009.35 642.78 1017.46 642.78 1018.36 636.48 1018.36 636.48 1017.46 636.48 1003.5 766.16 1003.5 766.16 969.28 642.78 969.28 636.48 969.28 636.48 964.32 642.78 964.32 766.16 964.32 766.16 625.7 695.92 625.7 695.92 585.17 721.13 585.17 774.72 585.17"/>
      <polygon class="st8" points="766.16 1008.45 766.16 1146.69 642.78 1146.69 642.78 1134.54 642.78 1094.91 642.78 1093.56 636.48 1093.56 636.48 1094.91 636.48 1146.69 558.12 1146.69 556.77 1146.69 556.77 1163.81 473.02 1163.81 473.02 1146.69 472.12 1146.69 463.56 1146.69 463.56 625.7 511.29 625.7 511.29 594.63 511.29 585.17 486.53 585.17 486.53 496.91 721.13 496.91 721.13 585.17 695.92 585.17 695.92 625.7 766.16 625.7 766.16 964.32 642.78 964.32 636.48 964.32 636.48 969.28 642.78 969.28 766.16 969.28 766.16 1003.5 636.48 1003.5 636.48 1017.46 636.48 1018.36 642.78 1018.36 642.78 1017.46 642.78 1009.35 642.78 1008.45 766.16 1008.45"/>
      <polygon class="st8" points="511.29 594.63 511.29 625.7 463.56 625.7 463.56 1146.69 472.12 1146.69 473.02 1146.69 473.02 1163.81 463.56 1163.81 455.01 1155.25 455.01 652.09 430.69 652.09 430.69 585.17 486.53 585.17 511.29 585.17 511.29 594.63"/>
    </g>
    <rect class="st6" x="481.1" y="494.33" width="243.77" height="90.84"/>
    <rect class="st6" x="511.27" y="583.82" width="184.78" height="10"/>
  </g>
  <g id="letto">
    <g>
      <g id="POLYLINE">
        <line class="st1" x1="708.86" y1="985.37" x2="708.98" y2="985.37"/>
      </g>
      <g id="POLYLINE1" data-name="POLYLINE">
        <line class="st1" x1="708.86" y1="985.37" x2="708.98" y2="985.37"/>
      </g>
      <g>
        <g>
          <polygon class="st6" points="686.11 791.49 686.11 791.05 763.62 791.05 763.62 939.33 762.64 938.84 762.64 791.49 686.11 791.49"/>
          <path class="st6" d="M686.11,900.97v-109.48h76.53v147.35l-17.01-8.41c-7.31-3.62-13.36-6.61-18.37-9.09l-2.63-1.3c-5.59-2.77-9.73-4.82-12.79-6.34l-1.16-.57-7.56-3.74-17.01-8.42Z"/>
          <path class="st6" d="M686.11,961.57v-60.6l17.01,8.42v30.18c0,1.94,1.56,3.51,3.5,3.51h35.51c1.94,0,3.5-1.57,3.5-3.51v-9.14l17.01,8.41v22.73h-76.53Z"/>
          <path class="st6" d="M703.12,939.57v-30.18l7.56,3.74c.37.19.75.38,1.16.57,3.06,1.52,7.2,3.57,12.79,6.34.85.41,1.72.85,2.63,1.3,5.01,2.48,11.06,5.47,18.37,9.09v9.14c0,1.94-1.56,3.51-3.5,3.51h-35.51c-1.94,0-3.5-1.57-3.5-3.51Z"/>
        </g>
        <g>
          <polyline class="st1" points="762.64 938.84 762.64 961.57 686.11 961.57 686.11 900.97"/>
          <polyline class="st1" points="745.63 930.43 762.64 938.84 763.62 939.33 763.62 791.05 686.11 791.05 686.11 791.49 686.11 900.97 703.12 909.39"/>
          <line class="st1" x1="724.63" y1="920.04" x2="727.26" y2="921.34"/>
          <line class="st1" x1="710.68" y1="913.13" x2="711.84" y2="913.7"/>
          <line class="st1" x1="742.13" y1="943.08" x2="706.62" y2="943.08"/>
          <path class="st1" d="M706.62,943.08c-1.94,0-3.5-1.57-3.5-3.51"/>
          <path class="st1" d="M745.63,939.57c0,1.94-1.56,3.51-3.5,3.51"/>
          <path class="st1" d="M745.63,939.57v-9.14c-7.31-3.62-13.36-6.61-18.37-9.09-.91-.45-1.78-.89-2.63-1.3-5.59-2.77-9.73-4.82-12.79-6.34-.41-.19-.79-.38-1.16-.57l-7.56-3.74v30.18"/>
        </g>
      </g>
      <g id="POLYLINE2" data-name="POLYLINE">
        <polygon class="st1" points="763.62 939.33 763.62 791.06 686.11 791.06 686.11 900.97 763.62 939.33"/>
      </g>
      <g id="POLYLINE3" data-name="POLYLINE">
        <polygon class="st1" points="763.62 939.33 763.62 791.06 686.11 791.06 686.11 900.97 763.62 939.33"/>
      </g>
      <g id="LINE">
        <line class="st1" x1="742.13" y1="943.08" x2="706.62" y2="943.08"/>
      </g>
      <g id="SPLINE">
        <path class="st1" d="M706.62,943.08c-1.94,0-3.5-1.57-3.5-3.5"/>
      </g>
      <g id="SPLINE1" data-name="SPLINE">
        <path class="st1" d="M745.64,939.58c0,1.93-1.57,3.5-3.5,3.5"/>
      </g>
      <g id="LINE1" data-name="LINE">
        <line class="st1" x1="742.13" y1="943.08" x2="706.62" y2="943.08"/>
      </g>
      <g id="SPLINE2" data-name="SPLINE">
        <path class="st1" d="M706.62,943.08c-1.94,0-3.5-1.57-3.5-3.5"/>
      </g>
      <g id="SPLINE3" data-name="SPLINE">
        <path class="st1" d="M745.64,939.58c0,1.93-1.57,3.5-3.5,3.5"/>
      </g>
      <line class="st1" x1="745.64" y1="939.58" x2="745.64" y2="930.43"/>
      <line class="st1" x1="703.12" y1="939.58" x2="703.12" y2="909.39"/>
    </g>
    <g>
      <rect class="st6" x="581.66" y="1095" width="55.54" height="55.15"/>
      <line class="st3" x1="637.2" y1="1095" x2="635.64" y2="1095"/>
      <line class="st3" x1="632.9" y1="1095" x2="630.16" y2="1095"/>
      <line class="st3" x1="627.43" y1="1095" x2="624.69" y2="1095"/>
      <line class="st3" x1="621.95" y1="1095" x2="619.21" y2="1095"/>
      <line class="st3" x1="616.47" y1="1095" x2="613.74" y2="1095"/>
      <line class="st3" x1="611" y1="1095" x2="607.87" y2="1095"/>
      <line class="st3" x1="605.13" y1="1095" x2="602.39" y2="1095"/>
      <line class="st3" x1="599.65" y1="1095" x2="596.92" y2="1095"/>
      <line class="st3" x1="594.18" y1="1095" x2="591.44" y2="1095"/>
      <line class="st3" x1="588.7" y1="1095" x2="585.96" y2="1095"/>
      <line class="st3" x1="583.23" y1="1095" x2="581.66" y2="1095"/>
      <line class="st3" x1="581.66" y1="1095" x2="581.66" y2="1096.17"/>
      <line class="st3" x1="581.66" y1="1098.91" x2="581.66" y2="1101.65"/>
      <line class="st3" x1="581.66" y1="1104.78" x2="581.66" y2="1107.52"/>
      <line class="st3" x1="581.66" y1="1110.25" x2="581.66" y2="1112.99"/>
      <line class="st3" x1="581.66" y1="1115.73" x2="581.66" y2="1118.47"/>
      <line class="st3" x1="581.66" y1="1121.21" x2="581.66" y2="1123.94"/>
      <line class="st3" x1="581.66" y1="1126.68" x2="581.66" y2="1129.42"/>
      <line class="st3" x1="581.66" y1="1132.16" x2="581.66" y2="1135.29"/>
      <line class="st3" x1="581.66" y1="1138.03" x2="581.66" y2="1140.76"/>
      <line class="st3" x1="581.66" y1="1143.5" x2="581.66" y2="1146.24"/>
      <line class="st3" x1="581.66" y1="1148.98" x2="581.66" y2="1150.15"/>
      <path class="st3" d="M637.2,1095"/>
    </g>
  </g>
  <g id="bianchi">
    <g>
      <polygon class="st6" points="765.69 1145.66 765.69 1146.78 765.09 1146.78 765.69 1145.66"/>
      <polygon class="st6" points="765.69 1079.34 765.69 1145.66 765.09 1146.78 698.77 1146.78 697.65 1146.19 697.65 1079.87 698.25 1078.74 764.57 1078.74 765.69 1079.34"/>
      <polygon class="st6" points="765.69 1078.74 765.69 1079.34 764.57 1078.74 765.69 1078.74"/>
      <polygon class="st6" points="698.77 1146.78 697.65 1146.78 697.65 1146.19 698.77 1146.78"/>
      <polygon class="st6" points="698.25 1078.74 697.65 1079.87 697.65 1078.74 698.25 1078.74"/>
    </g>
    <path class="st6" d="M650.8,1146.78v-27.68c0-.61.29-1.11.66-1.11h37.37c.45,0,.82.5.82,1.11v27.68h-38.85Z"/>
    <g id="LINE2" data-name="LINE">
      <path class="st6" d="M742.25,1008.55v24.72c0,9.52-6.83,17.21-15.29,17.21s-15.28-7.69-15.28-17.21v-24.72h30.57Z"/>
    </g>
    <rect class="st6" x="663.92" y="1008.54" width="27.47" height="1.95"/>
    <rect class="st6" x="658.97" y="1010.34" width="37.37" height="1.35"/>
    <rect class="st6" x="510.59" y="593.82" width="186.08" height="12.61"/>
    <rect class="st6" x="473.02" y="1146.69" width="98.95" height="45.71"/>
  </g>
  <g id="Livello_1">
    <line class="st2" x1="746.77" y1="998.22" x2="746.77" y2="998.19"/>
    <circle class="st2" cx="670.22" cy="1142.49" r="2.2" transform="translate(-595.69 1532.3) rotate(-76.72)"/>
    <circle class="st2" cx="670.22" cy="1128.04" r="2.93" transform="translate(-550.61 1608.92) rotate(-80.78)"/>
    <path class="st2" d="M668.65,1128.04c0-.87.71-1.58,1.58-1.58s1.58.71,1.58,1.58-.71,1.58-1.58,1.58-1.58-.71-1.58-1.58Z"/>
    <path class="st2" d="M688.91,1136.44v-16.22c0-.62-.37-1.11-.82-1.11h-35.72c-.45,0-.82.5-.82,1.11v16.22c0,.61.37,1.11.82,1.11h35.72c.45,0,.82-.5.82-1.11Z"/>
    <path class="st2" d="M689.57,1146.78v-27.68c0-.62-.29-1.11-.66-1.11h-37.37c-.45,0-.82.49-.82,1.11v27.68"/>
    <line class="st2" x1="650.72" y1="1127.88" x2="650.72" y2="1138.23"/>
    <line class="st2" x1="679.08" y1="1117.97" x2="660.62" y2="1117.97"/>
    <line class="st2" x1="650.72" y1="1127.88" x2="650.72" y2="1138.23"/>
    <line class="st2" x1="679.08" y1="1117.97" x2="660.62" y2="1117.97"/>
    <line class="st2" x1="650.72" y1="1138.23" x2="650.72" y2="1127.88"/>
    <line class="st2" x1="660.62" y1="1117.97" x2="679.08" y2="1117.97"/>
    <line class="st2" x1="650.72" y1="1127.88" x2="650.72" y2="1138.23"/>
    <line class="st2" x1="679.08" y1="1117.97" x2="660.62" y2="1117.97"/>
    <line class="st2" x1="650.72" y1="1127.88" x2="650.72" y2="1138.23"/>
    <line class="st2" x1="679.08" y1="1117.97" x2="660.62" y2="1117.97"/>
    <line class="st2" x1="650.72" y1="1138.23" x2="650.72" y2="1127.88"/>
    <line class="st2" x1="660.62" y1="1117.97" x2="679.08" y2="1117.97"/>
    <polyline class="st2" points="697.37 1146.78 697.37 1078.74 705.52 1078.74"/>
    <line class="st2" x1="697.37" y1="1146.78" x2="765.6" y2="1146.78"/>
    <line class="st2" x1="766.14" y1="1145.66" x2="766.14" y2="1079.34"/>
    <polyline class="st2" points="766.14 1145.66 766.14 1146.78 765.6 1146.78"/>
    <polyline class="st2" points="765.13 1078.74 766.14 1078.74 766.14 1079.34"/>
    <line class="st2" x1="765.13" y1="1078.74" x2="705.52" y2="1078.74"/>
    <line class="st2" x1="731.48" y1="1146.78" x2="731.48" y2="1127.88"/>
    <circle class="st2" cx="731.57" cy="1127.97" r="4.23"/>
    <circle class="st2" cx="731.57" cy="1127.97" r="4.23"/>
    <line class="st2" x1="478.85" y1="1146.78" x2="554.5" y2="1146.78"/>
    <line class="st2" x1="695.89" y1="606.43" x2="694.99" y2="606.43"/>
    <line class="st2" x1="512.62" y1="606.43" x2="511.27" y2="606.43"/>
    <path class="st2" d="M554.5,1146.78c0-20.71-8.56-40.98-23.42-55.84-14.41-14.41-34.67-22.97-55.39-22.97"/>
    <line class="st2" x1="478.85" y1="1146.78" x2="475.69" y2="1146.78"/>
    <line class="st2" x1="475.69" y1="1146.78" x2="475.69" y2="1067.98"/>
    <line class="st2" x1="478.85" y1="1146.78" x2="554.5" y2="1146.78"/>
    <path class="st2" d="M636.45,1021.15c-18.46,0-36.47,7.2-49.53,20.26-13.51,13.51-20.71,31.07-20.71,49.98"/>
    <line class="st2" x1="636.45" y1="1087.8" x2="636.45" y2="1091.4"/>
    <line class="st2" x1="636.45" y1="1091.4" x2="566.2" y2="1091.4"/>
    <line class="st2" x1="638.7" y1="1002.24" x2="638.7" y2="970.27"/>
    <line class="st2" x1="638.7" y1="970.27" x2="636.45" y2="970.27"/>
    <line class="st2" x1="636.45" y1="970.27" x2="636.45" y2="1002.24"/>
    <line class="st2" x1="636.45" y1="1002.24" x2="638.7" y2="1002.24"/>
    <line class="st2" x1="642.76" y1="969.37" x2="642.76" y2="1003.59"/>
    <line class="st2" x1="636.45" y1="1003.59" x2="636.45" y2="1002.24"/>
    <line class="st2" x1="636.45" y1="970.27" x2="636.45" y2="969.37"/>
    <polyline class="st2" points="475.69 1067.98 475.69 1146.78 478.85 1146.78"/>
    <line class="st2" x1="636.45" y1="970.27" x2="638.7" y2="970.27"/>
    <line class="st2" x1="636.45" y1="1087.8" x2="636.45" y2="1021.15"/>
    <line class="st2" x1="636.45" y1="1087.8" x2="636.45" y2="1021.15"/>
    <path class="st2" d="M742.25,1008.54v24.72c0,9.52-6.84,17.22-15.29,17.22s-15.29-7.7-15.29-17.22v-24.72h30.58Z"/>
    <line class="st2" x1="664.39" y1="964.41" x2="766.14" y2="964.41"/>
    <line class="st2" x1="766.14" y1="964.41" x2="766.14" y2="913.08"/>
    <g>
      <rect class="st6" x="438.52" y="956.8" width="101.78" height="51.33" transform="translate(1471.88 493.06) rotate(90)"/>
      <line class="st2" x1="515.08" y1="931.58" x2="463.74" y2="931.58"/>
      <rect class="st2" x="466.19" y="936.1" width="46.44" height="46.6"/>
      <rect class="st2" x="473.9" y="943.81" width="31.01" height="31.01"/>
      <rect class="st2" x="466.19" y="1003.63" width="45.99" height="26.81"/>
      <line class="st2" x1="506.82" y1="1016.63" x2="494.63" y2="1016.63"/>
      <line class="st2" x1="483.74" y1="1016.63" x2="471.55" y2="1016.63"/>
      <line class="st2" x1="477.73" y1="1010.62" x2="477.73" y2="1022.81"/>
      <line class="st2" x1="500.64" y1="1010.62" x2="500.64" y2="1022.81"/>
      <line class="st2" x1="468.95" y1="959.4" x2="481.42" y2="959.4"/>
      <line class="st2" x1="515.08" y1="1033.33" x2="515.08" y2="931.58"/>
    </g>
    <line class="st2" x1="658.97" y1="1011.7" x2="696.34" y2="1011.7"/>
    <line class="st2" x1="696.34" y1="1011.7" x2="696.34" y2="1010.34"/>
    <line class="st2" x1="696.34" y1="1010.34" x2="658.97" y2="1010.34"/>
    <line class="st2" x1="658.97" y1="1010.34" x2="658.97" y2="1011.7"/>
    <line class="st2" x1="663.92" y1="1010.34" x2="663.92" y2="1008.54"/>
    <line class="st2" x1="691.39" y1="1008.54" x2="691.39" y2="1010.34"/>
    <line class="st2" x1="520.27" y1="598.77" x2="598.18" y2="598.77"/>
    <line class="st2" x1="598.18" y1="598.77" x2="598.18" y2="594.72"/>
    <line class="st2" x1="598.18" y1="594.72" x2="520.27" y2="594.72"/>
    <line class="st2" x1="520.27" y1="594.72" x2="520.27" y2="598.77"/>
    <line class="st2" x1="609.43" y1="598.77" x2="687.33" y2="598.77"/>
    <line class="st2" x1="687.33" y1="598.77" x2="687.33" y2="594.72"/>
    <line class="st2" x1="687.33" y1="594.72" x2="609.43" y2="594.72"/>
    <line class="st2" x1="609.43" y1="594.72" x2="609.43" y2="598.77"/>
    <line class="st2" x1="690.94" y1="606.43" x2="516.67" y2="606.43"/>
    <line class="st2" x1="520.27" y1="593.82" x2="598.18" y2="593.82"/>
    <line class="st2" x1="609.43" y1="593.82" x2="687.33" y2="593.82"/>
    <line class="st2" x1="520.27" y1="600.57" x2="598.18" y2="600.57"/>
    <line class="st2" x1="609.43" y1="600.57" x2="687.33" y2="600.57"/>
    <line class="st2" x1="512.62" y1="606.43" x2="516.67" y2="606.43"/>
    <line class="st2" x1="516.67" y1="606.43" x2="516.67" y2="600.57"/>
    <line class="st2" x1="516.67" y1="600.57" x2="520.27" y2="600.57"/>
    <line class="st2" x1="520.27" y1="600.57" x2="520.27" y2="593.82"/>
    <line class="st2" x1="520.27" y1="593.82" x2="512.62" y2="593.82"/>
    <line class="st2" x1="512.62" y1="593.82" x2="512.62" y2="606.43"/>
    <line class="st2" x1="609.43" y1="593.82" x2="598.18" y2="593.82"/>
    <line class="st2" x1="598.18" y1="593.82" x2="598.18" y2="600.57"/>
    <line class="st2" x1="598.18" y1="600.57" x2="609.43" y2="600.57"/>
    <line class="st2" x1="609.43" y1="600.57" x2="609.43" y2="593.82"/>
    <line class="st2" x1="690.94" y1="606.43" x2="694.99" y2="606.43"/>
    <line class="st2" x1="694.99" y1="606.43" x2="694.99" y2="593.82"/>
    <line class="st2" x1="694.99" y1="593.82" x2="687.33" y2="593.82"/>
    <line class="st2" x1="687.33" y1="593.82" x2="687.33" y2="600.57"/>
    <line class="st2" x1="687.33" y1="600.57" x2="690.94" y2="600.57"/>
    <line class="st2" x1="690.94" y1="600.57" x2="690.94" y2="606.43"/>
    <line class="st2" x1="766.14" y1="1003.59" x2="642.76" y2="969.37"/>
    <line class="st2" x1="766.14" y1="969.37" x2="642.76" y2="1003.59"/>
    <g>
      <path class="st6" d="M694.24,657.54c-.45,1.8-.45,3.6.45,4.95,6.31,12.16,17.12,22.06,30.17,27.02,1.36.45,3.16.45,4.96,0,.9-.45,2.25-1.35,3.15-2.25l14.86-12.16c0-.45.45-.9.9-.9,1.35-1.35,1.8-3.16,2.25-4.96,0-5.4-.45-10.35-1.35-15.31-.9-5.4-3.6-9.9-7.65-13.51-4.06-3.6-9.01-5.85-14.41-6.3-4.96-.45-10.36-.45-15.31,0-1.81.45-3.16,1.8-4.51,3.15l-.9.9-10.8,16.21c-.45.9-1.36,1.81-1.81,3.16Z"/>
      <path class="st2" d="M724.87,689.5c-13.06-4.95-23.87-14.86-30.17-27.02"/>
      <path class="st2" d="M705.05,650.77c2.7-3.15,5.4-5.85,8.56-8.11"/>
      <path class="st2" d="M713.61,642.67c6.3-4.05,14.41-4.05,20.71,0"/>
      <path class="st2" d="M734.32,642.67c.9.9,2.25,1.8,3.15,2.7"/>
      <path class="st2" d="M727.57,634.11c5.4.45,10.36,2.7,14.41,6.3"/>
      <path class="st2" d="M694.7,662.48c-.9-1.35-.9-3.15-.45-4.95"/>
      <path class="st2" d="M694.25,657.53c.45-1.35,1.35-2.25,1.8-3.15"/>
      <line class="st2" x1="706.85" y1="638.17" x2="696.05" y2="654.38"/>
      <path class="st2" d="M706.85,638.17l.9-.9"/>
      <path class="st2" d="M707.75,637.26c1.35-1.35,2.7-2.7,4.5-3.15"/>
      <path class="st2" d="M712.26,634.11c4.95-.45,10.36-.45,15.31,0"/>
      <path class="st2" d="M742.43,668.79c-1.8,3.15-4.5,6.3-7.2,9.46"/>
      <path class="st2" d="M740.18,648.07c4.95,5.85,5.85,13.96,2.25,20.71"/>
      <line class="st2" x1="737.47" y1="645.37" x2="740.18" y2="648.07"/>
      <path class="st2" d="M741.98,640.42c4.05,3.6,6.75,8.11,7.66,13.51"/>
      <path class="st2" d="M729.82,689.5c-1.8.45-3.6.45-4.95,0"/>
      <path class="st2" d="M732.97,687.25c-.9.9-2.25,1.8-3.15,2.25"/>
      <line class="st2" x1="747.83" y1="675.09" x2="732.97" y2="687.25"/>
      <path class="st2" d="M748.73,674.19c-.45,0-.9.45-.9.9"/>
      <path class="st2" d="M750.98,669.24c-.45,1.8-.9,3.6-2.25,4.95"/>
      <path class="st2" d="M749.63,653.93c.9,4.95,1.35,9.91,1.35,15.31"/>
    </g>
    <polyline class="st4" points="766.14 1003.59 671.57 1003.59 642.76 1003.59"/>
    <line class="st4" x1="430.66" y1="585.26" x2="430.66" y2="656.86"/>
    <line class="st4" x1="430.66" y1="656.86" x2="430.66" y2="585.26"/>
    <rect class="st0" x="649.29" y="627.59" width="32.87" height="32.87"/>
    <g>
      <g>
        <g>
          <polygon class="st6" points="520.07 725.37 520.07 793.36 512.86 793.36 476.39 793.36 469.18 793.36 469.18 725.37 476.39 725.37 512.86 725.37 520.07 725.37"/>
          <path class="st6" d="M512.86,725.37h-36.47c1.8-4.96,5.4-9.01,9.91-11.26.45-.45.45-.9,0-1.35-.45-.9-1.36-1.35-2.26-1.35-1.35.45-2.7,1.35-3.6,1.8h-1.8q-.45,0-.45-.45c9.91-7.21,22.97-7.21,32.87,0q0,.45-.45.45h-1.8c-.9-.45-2.25-1.35-3.15-1.8-1.35,0-2.25.45-2.7,1.35-.45.45-.45.9,0,1.35,4.95,2.25,8.1,6.3,9.9,11.26Z"/>
          <path class="st6" d="M476.39,793.36h36.47c-1.8,4.95-4.95,9.01-9.9,11.71-.45,0-.45.9,0,1.35.45.9,1.35,1.35,2.7,1.35.9-.9,2.25-1.35,3.15-2.25h1.8q.45.45.45.9c-9.9,6.75-22.96,6.75-32.87,0q0-.45.45-.9h1.8c.9.9,2.25,1.35,3.6,2.25.9,0,1.81-.45,2.26-1.35.45-.45.45-1.35,0-1.35-4.51-2.7-8.11-6.76-9.91-11.71Z"/>
        </g>
        <path class="st2" d="M502.96,712.81c-.45.45-.45.9,0,1.35"/>
        <path class="st2" d="M512.87,725.42c-1.8-4.95-4.95-9.01-9.91-11.26"/>
        <path class="st2" d="M511.06,712.81c-9.91-7.2-22.97-7.2-32.87,0"/>
        <path class="st2" d="M480.44,805.57h-.9"/>
        <path class="st2" d="M479.54,805.57h-.9"/>
        <path class="st2" d="M478.64,805.57q-.45.45-.45.9"/>
        <path class="st2" d="M484.05,807.82c.9,0,1.8-.45,2.25-1.35"/>
        <path class="st2" d="M480.44,805.57c.9.9,2.25,1.35,3.6,2.25"/>
        <path class="st2" d="M486.3,806.47c.45-.45.45-1.35,0-1.35"/>
        <path class="st2" d="M476.39,793.41c1.8,4.95,5.4,9.01,9.91,11.71"/>
        <path class="st2" d="M509.71,805.57h-.9"/>
        <path class="st2" d="M510.61,805.57h-.9"/>
        <path class="st2" d="M511.06,806.47q0-.45-.45-.9"/>
        <path class="st2" d="M502.96,806.47c.45.9,1.35,1.35,2.7,1.35"/>
        <path class="st2" d="M505.66,807.82c.9-.9,2.25-1.35,3.15-2.25"/>
        <path class="st2" d="M502.96,805.12c-.45,0-.45.9,0,1.35"/>
        <path class="st2" d="M502.96,805.12c4.95-2.7,8.11-6.75,9.91-11.71"/>
        <path class="st2" d="M478.19,806.47c9.91,6.75,22.97,6.75,32.87,0"/>
        <line class="st2" x1="469.19" y1="725.42" x2="520.07" y2="725.42"/>
        <line class="st2" x1="520.07" y1="793.41" x2="469.19" y2="793.41"/>
        <line class="st2" x1="520.07" y1="793.41" x2="520.07" y2="725.42"/>
        <path class="st2" d="M479.54,713.26h.9"/>
        <path class="st2" d="M478.64,713.26h.9"/>
        <path class="st2" d="M478.19,712.81q0,.45.45.45"/>
        <path class="st2" d="M486.3,712.81c-.45-.9-1.35-1.35-2.25-1.35"/>
        <path class="st2" d="M484.05,711.46c-1.35.45-2.7,1.35-3.6,1.8"/>
        <path class="st2" d="M486.3,714.16c.45-.45.45-.9,0-1.35"/>
        <path class="st2" d="M486.3,714.16c-4.5,2.25-8.11,6.3-9.91,11.26"/>
        <path class="st2" d="M508.81,713.26h.9"/>
        <path class="st2" d="M509.71,713.26h.9"/>
        <path class="st2" d="M510.61,713.26q.45,0,.45-.45"/>
        <path class="st2" d="M505.66,711.46c-1.35,0-2.25.45-2.7,1.35"/>
        <path class="st2" d="M508.81,713.26c-.9-.45-2.25-1.35-3.15-1.8"/>
      </g>
      <line class="st5" x1="469.19" y1="725.36" x2="469.19" y2="793.36"/>
    </g>
    <g>
      <g>
        <g>
          <polygon class="st6" points="570.96 725.37 570.96 793.36 563.75 793.36 527.28 793.36 520.07 793.36 520.07 725.37 527.28 725.37 563.75 725.37 570.96 725.37"/>
          <path class="st6" d="M563.75,725.37h-36.47c1.8-4.96,5.4-9.01,9.91-11.26.45-.45.45-.9,0-1.35-.45-.9-1.36-1.35-2.26-1.35-1.35.45-2.7,1.35-3.6,1.8h-1.8q-.45,0-.45-.45c9.91-7.21,22.97-7.21,32.87,0q0,.45-.45.45h-1.8c-.9-.45-2.25-1.35-3.15-1.8-1.35,0-2.25.45-2.7,1.35-.45.45-.45.9,0,1.35,4.95,2.25,8.1,6.3,9.9,11.26Z"/>
          <path class="st6" d="M527.28,793.36h36.47c-1.8,4.95-4.95,9.01-9.9,11.71-.45,0-.45.9,0,1.35.45.9,1.35,1.35,2.7,1.35.9-.9,2.25-1.35,3.15-2.25h1.8q.45.45.45.9c-9.9,6.75-22.96,6.75-32.87,0q0-.45.45-.9h1.8c.9.9,2.25,1.35,3.6,2.25.9,0,1.81-.45,2.26-1.35.45-.45.45-1.35,0-1.35-4.51-2.7-8.11-6.76-9.91-11.71Z"/>
        </g>
        <path class="st2" d="M553.84,712.81c-.45.45-.45.9,0,1.35"/>
        <path class="st2" d="M563.75,725.42c-1.8-4.95-4.95-9.01-9.91-11.26"/>
        <path class="st2" d="M561.95,712.81c-9.91-7.2-22.97-7.2-32.87,0"/>
        <path class="st2" d="M531.33,805.57h-.9"/>
        <path class="st2" d="M530.43,805.57h-.9"/>
        <path class="st2" d="M529.53,805.57q-.45.45-.45.9"/>
        <path class="st2" d="M534.93,807.82c.9,0,1.8-.45,2.25-1.35"/>
        <path class="st2" d="M531.33,805.57c.9.9,2.25,1.35,3.6,2.25"/>
        <path class="st2" d="M537.18,806.47c.45-.45.45-1.35,0-1.35"/>
        <path class="st2" d="M527.28,793.41c1.8,4.95,5.4,9.01,9.91,11.71"/>
        <path class="st2" d="M560.6,805.57h-.9"/>
        <path class="st2" d="M561.5,805.57h-.9"/>
        <path class="st2" d="M561.95,806.47q0-.45-.45-.9"/>
        <path class="st2" d="M553.84,806.47c.45.9,1.35,1.35,2.7,1.35"/>
        <path class="st2" d="M556.55,807.82c.9-.9,2.25-1.35,3.15-2.25"/>
        <path class="st2" d="M553.84,805.12c-.45,0-.45.9,0,1.35"/>
        <path class="st2" d="M553.84,805.12c4.95-2.7,8.11-6.75,9.91-11.71"/>
        <path class="st2" d="M529.08,806.47c9.91,6.75,22.97,6.75,32.87,0"/>
        <line class="st2" x1="520.07" y1="725.42" x2="570.95" y2="725.42"/>
        <line class="st2" x1="570.95" y1="793.41" x2="520.07" y2="793.41"/>
        <line class="st2" x1="570.95" y1="793.41" x2="570.95" y2="725.42"/>
        <path class="st2" d="M530.43,713.26h.9"/>
        <path class="st2" d="M529.53,713.26h.9"/>
        <path class="st2" d="M529.08,712.81q0,.45.45.45"/>
        <path class="st2" d="M537.18,712.81c-.45-.9-1.35-1.35-2.25-1.35"/>
        <path class="st2" d="M534.93,711.46c-1.35.45-2.7,1.35-3.6,1.8"/>
        <path class="st2" d="M537.18,714.16c.45-.45.45-.9,0-1.35"/>
        <path class="st2" d="M537.18,714.16c-4.5,2.25-8.11,6.3-9.91,11.26"/>
        <path class="st2" d="M559.7,713.26h.9"/>
        <path class="st2" d="M560.6,713.26h.9"/>
        <path class="st2" d="M561.5,713.26q.45,0,.45-.45"/>
        <path class="st2" d="M556.55,711.46c-1.35,0-2.25.45-2.7,1.35"/>
        <path class="st2" d="M559.7,713.26c-.9-.45-2.25-1.35-3.15-1.8"/>
      </g>
      <line class="st5" x1="520.07" y1="725.36" x2="520.07" y2="793.36"/>
    </g>
    <rect class="st0" x="469.19" y="725.36" width="101.77" height="67.99"/>
  </g>
  <g id="pareti">
    <g>
      <polygon class="st7" points="774.69 585.27 774.69 1163.9 556.75 1163.9 556.75 1146.79 558.1 1146.79 636.45 1146.79 636.45 1095 636.45 1093.65 642.75 1093.65 642.75 1095 642.75 1134.63 642.75 1146.79 766.13 1146.79 766.13 1008.55 642.75 1008.55 642.75 1009.45 642.75 1017.55 642.75 1018.45 636.45 1018.45 636.45 1017.55 636.45 1003.59 642.75 1003.59 766.13 1003.59 766.13 969.37 642.75 969.37 636.45 969.37 636.45 964.42 642.75 964.42 766.13 964.42 766.13 625.79 695.89 625.79 695.89 585.27 774.69 585.27"/>
      <polygon class="st7" points="511.27 594.72 511.27 625.79 463.53 625.79 463.53 1146.79 472.09 1146.79 472.99 1146.79 472.99 1163.9 463.53 1163.9 454.98 1155.34 454.98 656.86 430.66 656.86 430.66 585.27 511.27 585.27 511.27 594.72"/>
    </g>
  </g>
</svg>