<?xml version="1.0" encoding="UTF-8"?>
<svg xmlns="http://www.w3.org/2000/svg" version="1.1" viewBox="0 0 1200 1697.14">
  <!-- Generator: Adobe Illustrator 29.6.0, SVG Export Plug-In . SVG Version: 2.1.1 Build 207)  -->
  <defs>
    <style>
      .st0 {
        stroke: #0d101f;
      }

      .st0, .st1, .st2, .st3, .st4 {
        stroke-linecap: round;
        stroke-linejoin: round;
        stroke-width: .15px;
      }

      .st0, .st1, .st3, .st4 {
        fill: none;
      }

      .st1 {
        stroke: #010101;
      }

      .st5 {
        fill: #383037;
      }

      .st6, .st7 {
        fill: #fff;
      }

      .st2 {
        fill: #3f3f3e;
      }

      .st2, .st3, .st7 {
        stroke: #1d1d1b;
      }

      .st8 {
        fill: #ede9e5;
      }

      .st7 {
        stroke-miterlimit: 10;
        stroke-width: .25px;
      }

      .st4 {
        stroke: #11100e;
      }
    </style>
  </defs>
  <g id="sfondo">
    <g>
      <polygon class="st8" points="771.09 575.12 771.09 1153.76 753.98 1153.76 753.08 1153.76 753.08 1136.65 753.98 1136.65 762.54 1136.65 762.54 615.65 692.74 615.65 692.74 575.12 713.46 575.12 713.46 573.77 728.77 573.77 728.77 575.12 771.09 575.12"/>
      <polygon class="st8" points="762.54 615.65 762.54 1136.65 753.98 1136.65 753.08 1136.65 753.08 1153.76 669.33 1153.76 669.33 1136.65 668.43 1136.65 603.58 1136.65 603.58 1084.86 603.58 1083.51 596.83 1083.51 596.83 1084.86 596.83 1136.65 473.9 1136.65 473.9 998.4 596.83 998.4 596.83 999.3 596.83 1007.41 596.83 1008.31 603.58 1008.31 603.58 1007.41 603.58 993.45 596.83 993.45 473.9 993.45 473.9 959.23 596.83 959.23 603.58 959.23 603.58 954.28 596.83 954.28 473.9 954.28 473.9 615.65 508.12 615.65 508.12 575.12 692.74 575.12 692.74 615.65 762.54 615.65"/>
      <polygon class="st8" points="669.33 1136.65 669.33 1153.76 668.43 1153.76 465.34 1153.76 465.34 575.12 508.12 575.12 508.12 615.65 473.9 615.65 473.9 954.28 596.83 954.28 603.58 954.28 603.58 959.23 596.83 959.23 473.9 959.23 473.9 993.45 596.83 993.45 603.58 993.45 603.58 1007.41 603.58 1008.31 596.83 1008.31 596.83 1007.41 596.83 999.3 596.83 998.4 473.9 998.4 473.9 1136.65 596.83 1136.65 596.83 1084.86 596.83 1083.51 603.58 1083.51 603.58 1084.86 603.58 1136.65 668.43 1136.65 669.33 1136.65"/>
    </g>
  </g>
  <g id="letto">
    <g>
      <g id="POLYLINE">
        <line class="st0" x1="498.31" y1="976.34" x2="498.44" y2="976.34"/>
      </g>
      <g id="POLYLINE1" data-name="POLYLINE">
        <line class="st0" x1="498.31" y1="976.34" x2="498.44" y2="976.34"/>
      </g>
      <g>
        <g>
          <polygon class="st6" points="475.57 782.45 475.57 782.01 553.08 782.01 553.08 930.29 552.1 929.8 552.1 782.45 475.57 782.45"/>
          <path class="st6" d="M475.57,891.93v-109.48h76.53v147.35l-17.01-8.41c-7.31-3.62-13.36-6.61-18.37-9.09l-2.63-1.3c-5.59-2.77-9.73-4.82-12.79-6.34l-1.16-.57-7.56-3.74-17.01-8.42Z"/>
          <path class="st6" d="M475.57,952.53v-60.6l17.01,8.42v30.18c0,1.94,1.56,3.51,3.5,3.51h35.51c1.94,0,3.5-1.57,3.5-3.51v-9.14l17.01,8.41v22.73h-76.53Z"/>
          <path class="st6" d="M492.58,930.53v-30.18l7.56,3.74c.37.19.75.38,1.16.57,3.06,1.52,7.2,3.57,12.79,6.34.85.41,1.72.85,2.63,1.3,5.01,2.48,11.06,5.47,18.37,9.09v9.14c0,1.94-1.56,3.51-3.5,3.51h-35.51c-1.94,0-3.5-1.57-3.5-3.51Z"/>
        </g>
        <g>
          <polyline class="st0" points="552.1 929.8 552.1 952.53 475.57 952.53 475.57 891.93"/>
          <polyline class="st0" points="535.09 921.39 552.1 929.8 553.08 930.29 553.08 782.01 475.57 782.01 475.57 782.45 475.57 891.93 492.58 900.35"/>
          <line class="st0" x1="514.09" y1="911" x2="516.72" y2="912.3"/>
          <line class="st0" x1="500.14" y1="904.09" x2="501.3" y2="904.66"/>
          <line class="st0" x1="531.59" y1="934.04" x2="496.08" y2="934.04"/>
          <path class="st0" d="M496.08,934.04c-1.94,0-3.5-1.57-3.5-3.51"/>
          <path class="st0" d="M535.09,930.53c0,1.94-1.56,3.51-3.5,3.51"/>
          <path class="st0" d="M535.09,930.53v-9.14c-7.31-3.62-13.36-6.61-18.37-9.09-.91-.45-1.78-.89-2.63-1.3-5.59-2.77-9.73-4.82-12.79-6.34-.41-.19-.79-.38-1.16-.57l-7.56-3.74v30.18"/>
        </g>
      </g>
      <g id="POLYLINE2" data-name="POLYLINE">
        <polygon class="st0" points="553.08 930.29 553.08 782.02 475.57 782.02 475.57 891.94 553.08 930.29"/>
      </g>
      <g id="POLYLINE3" data-name="POLYLINE">
        <polygon class="st0" points="553.08 930.29 553.08 782.02 475.57 782.02 475.57 891.94 553.08 930.29"/>
      </g>
      <g id="LINE">
        <line class="st0" x1="531.59" y1="934.04" x2="496.08" y2="934.04"/>
      </g>
      <g id="SPLINE">
        <path class="st0" d="M496.08,934.04c-1.94,0-3.5-1.57-3.5-3.5"/>
      </g>
      <g id="SPLINE1" data-name="SPLINE">
        <path class="st0" d="M535.09,930.54c0,1.93-1.57,3.5-3.5,3.5"/>
      </g>
      <g id="LINE1" data-name="LINE">
        <line class="st0" x1="531.59" y1="934.04" x2="496.08" y2="934.04"/>
      </g>
      <g id="SPLINE2" data-name="SPLINE">
        <path class="st0" d="M496.08,934.04c-1.94,0-3.5-1.57-3.5-3.5"/>
      </g>
      <g id="SPLINE3" data-name="SPLINE">
        <path class="st0" d="M535.09,930.54c0,1.93-1.57,3.5-3.5,3.5"/>
      </g>
      <line class="st0" x1="535.09" y1="930.54" x2="535.09" y2="921.39"/>
      <line class="st0" x1="492.57" y1="930.54" x2="492.57" y2="900.35"/>
    </g>
    <g>
      <rect class="st6" x="603.39" y="1084.11" width="55.54" height="55.15" transform="translate(1742.84 480.53) rotate(90)"/>
      <line class="st4" x1="658.73" y1="1139.46" x2="658.73" y2="1137.89"/>
      <line class="st4" x1="658.73" y1="1135.16" x2="658.73" y2="1132.42"/>
      <line class="st4" x1="658.73" y1="1129.68" x2="658.73" y2="1126.94"/>
      <line class="st4" x1="658.73" y1="1124.2" x2="658.73" y2="1121.47"/>
      <line class="st4" x1="658.73" y1="1118.73" x2="658.73" y2="1115.99"/>
      <line class="st4" x1="658.73" y1="1113.25" x2="658.73" y2="1110.12"/>
      <line class="st4" x1="658.73" y1="1107.38" x2="658.73" y2="1104.65"/>
      <line class="st4" x1="658.73" y1="1101.91" x2="658.73" y2="1099.17"/>
      <line class="st4" x1="658.73" y1="1096.43" x2="658.73" y2="1093.69"/>
      <line class="st4" x1="658.73" y1="1090.96" x2="658.73" y2="1088.22"/>
      <line class="st4" x1="658.73" y1="1085.48" x2="658.73" y2="1083.92"/>
      <line class="st4" x1="658.73" y1="1083.92" x2="657.56" y2="1083.92"/>
      <line class="st4" x1="654.82" y1="1083.92" x2="652.08" y2="1083.92"/>
      <line class="st4" x1="648.95" y1="1083.92" x2="646.22" y2="1083.92"/>
      <line class="st4" x1="643.48" y1="1083.92" x2="640.74" y2="1083.92"/>
      <line class="st4" x1="638" y1="1083.92" x2="635.26" y2="1083.92"/>
      <line class="st4" x1="632.53" y1="1083.92" x2="629.79" y2="1083.92"/>
      <line class="st4" x1="627.05" y1="1083.92" x2="624.31" y2="1083.92"/>
      <line class="st4" x1="621.57" y1="1083.92" x2="618.44" y2="1083.92"/>
      <line class="st4" x1="615.71" y1="1083.92" x2="612.97" y2="1083.92"/>
      <line class="st4" x1="610.23" y1="1083.92" x2="607.49" y2="1083.92"/>
      <line class="st4" x1="604.75" y1="1083.92" x2="603.58" y2="1083.92"/>
      <path class="st4" d="M658.73,1139.46"/>
    </g>
    <circle class="st7" cx="580.61" cy="932.29" r="17.44"/>
  </g>
  <g id="bianchi">
    <path class="st6" d="M550.16,1136.67v-27.68c0-.61.29-1.11.66-1.11h37.37c.45,0,.82.5.82,1.11v27.68h-38.85Z"/>
    <g id="LINE2" data-name="LINE">
      <path class="st6" d="M528.38,998.44v24.72c0,9.52-6.83,17.21-15.29,17.21s-15.28-7.69-15.28-17.21v-24.72h30.57Z"/>
    </g>
    <rect class="st6" x="508.12" y="575.15" width="184.62" height="21.16"/>
    <rect class="st6" x="548.64" y="998.43" width="27.02" height="2.03"/>
    <rect class="st6" x="543.24" y="1000.23" width="37.37" height="1.35"/>
    <rect class="st6" x="473.89" y="1068.63" width="68.77" height="68.04"/>
    <rect class="st6" x="669.32" y="1136.65" width="96.41" height="45.51"/>
  </g>
  <g id="Livello_1">
    <line class="st3" x1="603.58" y1="1011.04" x2="603.58" y2="1077.69"/>
    <polyline class="st3" points="473.89 1136.67 473.89 1068.63 482.04 1068.63"/>
    <line class="st3" x1="473.89" y1="1136.67" x2="542.12" y2="1136.67"/>
    <line class="st3" x1="542.66" y1="1135.55" x2="542.66" y2="1069.23"/>
    <polyline class="st3" points="542.66 1135.55 542.66 1136.67 542.12 1136.67"/>
    <polyline class="st3" points="541.65 1068.63 542.66 1068.63 542.66 1069.23"/>
    <line class="st3" x1="541.65" y1="1068.63" x2="482.04" y2="1068.63"/>
    <line class="st3" x1="508.01" y1="1136.67" x2="508.01" y2="1117.77"/>
    <circle class="st3" cx="508.1" cy="1117.86" r="4.23"/>
    <circle class="st3" cx="508.1" cy="1117.86" r="4.23"/>
    <circle class="st3" cx="569.58" cy="1132.38" r="2.2"/>
    <circle class="st3" cx="569.58" cy="1117.93" r="2.93" transform="translate(-384.46 303.07) rotate(-22.5)"/>
    <path class="st3" d="M568,1117.93c0-.87.71-1.58,1.58-1.58s1.58.71,1.58,1.58-.71,1.58-1.58,1.58-1.58-.71-1.58-1.58Z"/>
    <path class="st3" d="M588.27,1126.33v-16.22c0-.62-.37-1.11-.82-1.11h-35.72c-.45,0-.82.5-.82,1.11v16.22c0,.61.37,1.11.82,1.11h35.72c.45,0,.82-.5.82-1.11Z"/>
    <path class="st3" d="M588.92,1136.67v-27.68c0-.62-.29-1.11-.66-1.11h-37.37c-.45,0-.82.49-.82,1.11v27.68"/>
    <line class="st3" x1="550.07" y1="1117.77" x2="550.07" y2="1128.12"/>
    <line class="st3" x1="578.44" y1="1107.86" x2="559.98" y2="1107.86"/>
    <line class="st3" x1="550.07" y1="1117.77" x2="550.07" y2="1128.12"/>
    <line class="st3" x1="578.44" y1="1107.86" x2="559.98" y2="1107.86"/>
    <line class="st3" x1="550.07" y1="1128.12" x2="550.07" y2="1117.77"/>
    <line class="st3" x1="559.98" y1="1107.86" x2="578.44" y2="1107.86"/>
    <line class="st3" x1="550.07" y1="1117.77" x2="550.07" y2="1128.12"/>
    <line class="st3" x1="578.44" y1="1107.86" x2="559.98" y2="1107.86"/>
    <line class="st3" x1="550.07" y1="1117.77" x2="550.07" y2="1128.12"/>
    <line class="st3" x1="578.44" y1="1107.86" x2="559.98" y2="1107.86"/>
    <line class="st3" x1="550.07" y1="1128.12" x2="550.07" y2="1117.77"/>
    <line class="st3" x1="559.98" y1="1107.86" x2="578.44" y2="1107.86"/>
    <line class="st3" x1="548.64" y1="998.43" x2="548.64" y2="1000.23"/>
    <line class="st3" x1="575.66" y1="1000.23" x2="575.66" y2="998.43"/>
    <line class="st3" x1="580.61" y1="1000.23" x2="580.61" y2="1001.58"/>
    <line class="st3" x1="543.24" y1="1000.23" x2="580.61" y2="1000.23"/>
    <line class="st3" x1="543.24" y1="1001.58" x2="543.24" y2="1000.23"/>
    <line class="st3" x1="580.61" y1="1001.58" x2="543.24" y2="1001.58"/>
    <rect class="st6" x="686.01" y="948.6" width="101.77" height="51.33" transform="translate(-237.37 1711.17) rotate(-90)"/>
    <line class="st3" x1="711.23" y1="923.39" x2="762.56" y2="923.39"/>
    <line class="st3" x1="711.23" y1="1025.14" x2="762.56" y2="1025.14"/>
    <rect class="st3" x="713.68" y="974.02" width="46.44" height="46.6"/>
    <rect class="st3" x="721.39" y="981.89" width="31.01" height="31.01"/>
    <rect class="st3" x="714.13" y="926.27" width="45.99" height="26.81"/>
    <line class="st3" x1="719.49" y1="940.08" x2="731.68" y2="940.08"/>
    <line class="st3" x1="742.57" y1="940.08" x2="754.75" y2="940.08"/>
    <line class="st3" x1="748.58" y1="946.1" x2="748.58" y2="933.91"/>
    <line class="st3" x1="725.67" y1="946.1" x2="725.67" y2="933.91"/>
    <line class="st3" x1="757.36" y1="997.32" x2="744.89" y2="997.32"/>
    <line class="st3" x1="711.23" y1="923.39" x2="711.23" y2="1025.14"/>
    <line class="st3" x1="473.89" y1="959.26" x2="596.82" y2="993.48"/>
    <line class="st3" x1="473.89" y1="993.48" x2="596.82" y2="959.26"/>
    <line class="st3" x1="687.78" y1="583.71" x2="687.78" y2="596.32"/>
    <line class="st3" x1="691.84" y1="583.71" x2="687.78" y2="583.71"/>
    <line class="st3" x1="691.84" y1="596.32" x2="691.84" y2="583.71"/>
    <line class="st3" x1="687.78" y1="596.32" x2="691.84" y2="596.32"/>
    <line class="st3" x1="601.33" y1="583.71" x2="601.33" y2="596.32"/>
    <line class="st3" x1="605.38" y1="583.71" x2="601.33" y2="583.71"/>
    <line class="st3" x1="605.38" y1="596.32" x2="605.38" y2="583.71"/>
    <line class="st3" x1="601.33" y1="596.32" x2="605.38" y2="596.32"/>
    <line class="st3" x1="605.38" y1="583.71" x2="687.78" y2="583.71"/>
    <line class="st3" x1="687.78" y1="596.32" x2="605.38" y2="596.32"/>
    <line class="st3" x1="605.38" y1="584.61" x2="605.38" y2="588.66"/>
    <line class="st3" x1="687.78" y1="584.61" x2="605.38" y2="584.61"/>
    <line class="st3" x1="687.78" y1="588.66" x2="687.78" y2="584.61"/>
    <line class="st3" x1="605.38" y1="588.66" x2="687.78" y2="588.66"/>
    <line class="st3" x1="517.12" y1="583.71" x2="592.32" y2="583.71"/>
    <line class="st3" x1="592.32" y1="583.71" x2="517.12" y2="583.71"/>
    <line class="st3" x1="511.72" y1="583.71" x2="597.28" y2="583.71"/>
    <line class="st3" x1="511.27" y1="583.71" x2="597.73" y2="583.71"/>
    <line class="st3" x1="599.98" y1="583.71" x2="509.02" y2="583.71"/>
    <line class="st3" x1="509.02" y1="583.71" x2="509.02" y2="596.32"/>
    <line class="st3" x1="517.12" y1="583.71" x2="509.02" y2="583.71"/>
    <line class="st3" x1="517.12" y1="590.46" x2="517.12" y2="583.71"/>
    <line class="st3" x1="513.52" y1="590.46" x2="517.12" y2="590.46"/>
    <line class="st3" x1="513.52" y1="596.32" x2="513.52" y2="590.46"/>
    <line class="st3" x1="509.02" y1="596.32" x2="513.52" y2="596.32"/>
    <line class="st3" x1="595.92" y1="590.46" x2="595.92" y2="596.32"/>
    <line class="st3" x1="592.32" y1="590.46" x2="595.92" y2="590.46"/>
    <line class="st3" x1="592.32" y1="583.71" x2="592.32" y2="590.46"/>
    <line class="st3" x1="599.98" y1="583.71" x2="592.32" y2="583.71"/>
    <line class="st3" x1="599.98" y1="596.32" x2="599.98" y2="583.71"/>
    <line class="st3" x1="595.92" y1="596.32" x2="599.98" y2="596.32"/>
    <line class="st3" x1="517.12" y1="590.46" x2="592.32" y2="590.46"/>
    <line class="st3" x1="517.12" y1="583.71" x2="592.32" y2="583.71"/>
    <line class="st3" x1="595.92" y1="596.32" x2="513.52" y2="596.32"/>
    <line class="st3" x1="517.12" y1="584.61" x2="517.12" y2="588.66"/>
    <line class="st3" x1="592.32" y1="584.61" x2="517.12" y2="584.61"/>
    <line class="st3" x1="592.32" y1="588.66" x2="592.32" y2="584.61"/>
    <line class="st3" x1="517.12" y1="588.66" x2="592.32" y2="588.66"/>
    <line class="st3" x1="603.58" y1="960.16" x2="601.33" y2="960.16"/>
    <polyline class="st3" points="603.58 1077.69 603.58 1081.29 673.38 1081.29"/>
    <line class="st3" x1="603.58" y1="1077.69" x2="603.58" y2="1011.04"/>
    <path class="st3" d="M528.39,998.43v24.72c0,9.52-6.84,17.22-15.29,17.22s-15.29-7.7-15.29-17.22v-24.72h30.58Z"/>
    <line class="st3" x1="473.89" y1="1136.67" x2="474.79" y2="1136.67"/>
    <line class="st3" x1="596.82" y1="993.48" x2="596.82" y2="959.26"/>
    <line class="st3" x1="603.58" y1="992.13" x2="603.58" y2="993.48"/>
    <line class="st3" x1="603.58" y1="959.26" x2="603.58" y2="960.16"/>
    <line class="st3" x1="601.33" y1="992.13" x2="601.33" y2="960.16"/>
    <line class="st3" x1="601.33" y1="960.16" x2="603.58" y2="960.16"/>
    <line class="st3" x1="603.58" y1="960.16" x2="603.58" y2="992.13"/>
    <line class="st3" x1="603.58" y1="992.13" x2="601.33" y2="992.13"/>
    <line class="st3" x1="603.58" y1="1077.69" x2="603.58" y2="1081.29"/>
    <line class="st3" x1="603.58" y1="1081.29" x2="673.38" y2="1081.29"/>
    <path class="st3" d="M673.38,1081.29c0-18.91-7.2-36.47-20.26-49.98-13.06-13.06-31.07-20.26-49.53-20.26"/>
    <line class="st3" x1="747.22" y1="1136.67" x2="671.57" y2="1136.67"/>
    <line class="st3" x1="747.22" y1="1136.67" x2="750.38" y2="1136.67"/>
    <line class="st3" x1="750.38" y1="1136.67" x2="750.38" y2="1057.87"/>
    <path class="st3" d="M750.38,1057.87c-20.71,0-40.98,8.56-55.39,22.97-14.86,14.86-23.42,35.12-23.42,55.84"/>
    <line class="st3" x1="509.02" y1="596.32" x2="508.12" y2="596.32"/>
    <line class="st3" x1="601.33" y1="596.32" x2="599.98" y2="596.32"/>
    <line class="st3" x1="692.74" y1="596.32" x2="691.84" y2="596.32"/>
    <line class="st3" x1="671.57" y1="1136.67" x2="747.22" y2="1136.67"/>
    <g>
      <path class="st6" d="M481.96,644.16c-.9,4.95-1.8,9.91-1.35,15.31,0,1.8.9,3.6,2.26,4.95.45,0,.9.45.9.9l14.86,12.16c.9.9,2.25,1.8,3.15,2.25,1.8.45,3.15.45,4.95,0,13.06-4.95,23.87-14.86,30.17-27.01.45-1.35.9-3.16.45-4.96-.45-1.35-1.35-2.25-1.8-3.15l-10.81-16.21-.9-.9c-1.35-1.35-2.7-2.7-4.5-3.15-5.4-.45-10.36-.45-15.31,0-5.4.45-10.36,2.7-14.41,6.3-4.05,3.6-6.75,8.11-7.66,13.51Z"/>
      <path class="st3" d="M504.03,624.35c4.95-.45,9.91-.45,15.31,0"/>
      <path class="st3" d="M519.34,624.35c1.8.45,3.15,1.8,4.5,3.15"/>
      <path class="st3" d="M523.84,627.5q.45.45.9.9"/>
      <line class="st3" x1="524.74" y1="628.4" x2="535.55" y2="644.61"/>
      <path class="st3" d="M535.55,644.61c.45.9,1.35,1.8,1.8,3.15"/>
      <path class="st3" d="M537.35,647.76c.45,1.8,0,3.6-.45,4.95"/>
      <path class="st3" d="M489.62,630.65c4.05-3.6,9.01-5.85,14.41-6.3"/>
      <path class="st3" d="M494.12,635.6c.9-.9,1.8-1.8,3.15-2.7"/>
      <path class="st3" d="M497.28,632.9c6.3-4.05,14.41-4.05,20.71,0"/>
      <path class="st3" d="M517.99,632.9c3.15,2.25,5.85,4.95,8.56,8.11"/>
      <path class="st3" d="M536.9,652.71c-6.3,12.16-17.11,22.06-30.17,27.02"/>
      <path class="st3" d="M480.61,659.47c-.45-5.4.45-10.36,1.35-15.31"/>
      <path class="st3" d="M482.87,664.42c-1.35-1.35-2.25-3.15-2.25-4.95"/>
      <path class="st3" d="M483.77,665.32c0-.45-.45-.9-.9-.9"/>
      <line class="st3" x1="483.77" y1="665.32" x2="498.63" y2="677.48"/>
      <path class="st3" d="M501.78,679.73c-.9-.45-2.25-1.35-3.15-2.25"/>
      <path class="st3" d="M506.73,679.73c-1.8.45-3.15.45-4.95,0"/>
      <path class="st3" d="M481.97,644.16c.9-5.4,3.6-9.91,7.66-13.51"/>
      <line class="st3" x1="491.42" y1="638.31" x2="494.12" y2="635.6"/>
      <path class="st3" d="M488.72,659.02c-3.15-6.75-2.25-14.86,2.7-20.71"/>
      <path class="st3" d="M495.92,668.48c-2.7-3.15-4.95-6.3-7.2-9.46"/>
    </g>
    <g>
      <g>
        <g>
          <polygon class="st6" points="708.56 718.32 708.56 786.76 701.36 786.76 664.88 786.76 657.68 786.76 657.68 718.32 664.88 718.32 701.36 718.32 708.56 718.32"/>
          <path class="st6" d="M701.36,718.32h-36.48c1.8-4.51,5.4-8.56,9.91-11.26.45-.45.45-.9,0-1.35-.45-.9-1.35-1.35-2.25-1.35-1.35.45-2.71,1.35-3.61,1.8q-.45.45-.9.45t-.9-.45q-.45,0-.45-.45c9.91-6.76,22.97-6.76,32.87,0q0,.45-.45.45c0,.45-.45.45-.9.45s-.45,0-.9-.45c-.9-.45-2.25-1.35-3.6-1.8-.9,0-1.8.45-2.25,1.35-.45.45-.45.9,0,1.35,4.95,2.7,8.1,6.75,9.91,11.26Z"/>
          <path class="st6" d="M664.88,786.76h36.48c-1.81,4.51-4.96,8.56-9.91,11.26-.45.45-.45.9,0,1.35.45.9,1.35,1.35,2.25,1.35,1.35-.45,2.7-1.35,3.6-1.8q.45-.45.9-.45c.45,0,.9.45.9.45q.45,0,.45.45c-9.9,7.21-22.96,7.21-32.87,0q0-.45.45-.45c.45,0,.45-.45.9-.45s.45,0,.9.45c.9.45,2.26,1.35,3.61,1.8.9,0,1.8-.45,2.25-1.35.45-.45.45-.9,0-1.35-4.51-2.7-8.11-6.75-9.91-11.26Z"/>
        </g>
        <line class="st3" x1="657.67" y1="786.76" x2="708.56" y2="786.76"/>
        <line class="st3" x1="708.56" y1="718.32" x2="657.67" y2="718.32"/>
        <path class="st3" d="M666.68,799.37c9.91,7.2,22.97,7.2,32.87,0"/>
        <path class="st3" d="M664.88,786.76c1.8,4.5,5.4,8.56,9.91,11.26"/>
        <path class="st3" d="M674.78,799.37c.45-.45.45-.9,0-1.35"/>
        <path class="st3" d="M668.93,798.92c.9.45,2.25,1.35,3.6,1.8"/>
        <path class="st3" d="M672.53,800.72c.9,0,1.8-.45,2.25-1.35"/>
        <path class="st3" d="M667.13,798.92q-.45,0-.45.45"/>
        <path class="st3" d="M668.03,798.47c-.45,0-.45.45-.9.45"/>
        <path class="st3" d="M668.93,798.92q-.45-.45-.9-.45"/>
        <path class="st3" d="M691.45,798.02c4.95-2.7,8.11-6.75,9.91-11.26"/>
        <path class="st3" d="M691.45,798.02c-.45.45-.45.9,0,1.35"/>
        <path class="st3" d="M693.7,800.72c1.35-.45,2.7-1.35,3.6-1.8"/>
        <path class="st3" d="M691.45,799.37c.45.9,1.35,1.35,2.25,1.35"/>
        <path class="st3" d="M699.55,799.37q0-.45-.45-.45"/>
        <path class="st3" d="M699.1,798.92s-.45-.45-.9-.45"/>
        <path class="st3" d="M698.2,798.47q-.45,0-.9.45"/>
        <path class="st3" d="M699.55,705.71c-9.91-6.75-22.97-6.75-32.87,0"/>
        <path class="st3" d="M674.78,707.06c-4.5,2.7-8.11,6.75-9.91,11.26"/>
        <path class="st3" d="M674.78,707.06c.45-.45.45-.9,0-1.35"/>
        <path class="st3" d="M672.53,704.36c-1.35.45-2.7,1.35-3.6,1.8"/>
        <path class="st3" d="M674.78,705.71c-.45-.9-1.35-1.35-2.25-1.35"/>
        <path class="st3" d="M666.68,705.71q0,.45.45.45"/>
        <path class="st3" d="M667.13,706.16q.45.45.9.45"/>
        <path class="st3" d="M668.03,706.61q.45,0,.9-.45"/>
        <path class="st3" d="M701.35,718.32c-1.8-4.5-4.95-8.56-9.91-11.26"/>
        <path class="st3" d="M691.45,705.71c-.45.45-.45.9,0,1.35"/>
        <path class="st3" d="M697.3,706.16c-.9-.45-2.25-1.35-3.6-1.8"/>
        <path class="st3" d="M693.7,704.36c-.9,0-1.8.45-2.25,1.35"/>
        <path class="st3" d="M699.1,706.16q.45,0,.45-.45"/>
        <path class="st3" d="M698.2,706.61c.45,0,.9,0,.9-.45"/>
        <path class="st3" d="M697.3,706.16q.45.45.9.45"/>
        <line class="st3" x1="657.67" y1="786.76" x2="657.67" y2="718.32"/>
      </g>
      <g>
        <polygon class="st6" points="759.44 718.32 759.44 786.76 752.24 786.76 715.76 786.76 708.56 786.76 708.56 718.32 715.76 718.32 752.24 718.32 759.44 718.32"/>
        <path class="st6" d="M752.24,718.32h-36.48c1.8-4.51,5.4-8.56,9.91-11.26.45-.45.45-.9,0-1.35-.45-.9-1.35-1.35-2.25-1.35-1.35.45-2.71,1.35-3.61,1.8q-.45.45-.9.45t-.9-.45q-.45,0-.45-.45c9.91-6.76,22.97-6.76,32.87,0q0,.45-.45.45c0,.45-.45.45-.9.45s-.45,0-.9-.45c-.9-.45-2.25-1.35-3.6-1.8-.9,0-1.8.45-2.25,1.35-.45.45-.45.9,0,1.35,4.95,2.7,8.1,6.75,9.91,11.26Z"/>
        <path class="st6" d="M715.76,786.76h36.48c-1.81,4.51-4.96,8.56-9.91,11.26-.45.45-.45.9,0,1.35.45.9,1.35,1.35,2.25,1.35,1.35-.45,2.7-1.35,3.6-1.8q.45-.45.9-.45c.45,0,.9.45.9.45q.45,0,.45.45c-9.9,7.21-22.96,7.21-32.87,0q0-.45.45-.45c.45,0,.45-.45.9-.45s.45,0,.9.45c.9.45,2.26,1.35,3.61,1.8.9,0,1.8-.45,2.25-1.35.45-.45.45-.9,0-1.35-4.51-2.7-8.11-6.75-9.91-11.26Z"/>
      </g>
      <line class="st3" x1="708.56" y1="786.76" x2="759.44" y2="786.76"/>
      <line class="st3" x1="759.44" y1="718.32" x2="708.56" y2="718.32"/>
      <path class="st3" d="M717.56,799.37c9.91,7.2,22.97,7.2,32.87,0"/>
      <path class="st3" d="M715.76,786.76c1.8,4.5,5.4,8.56,9.91,11.26"/>
      <path class="st3" d="M725.67,799.37c.45-.45.45-.9,0-1.35"/>
      <path class="st3" d="M719.81,798.92c.9.45,2.25,1.35,3.6,1.8"/>
      <path class="st3" d="M723.42,800.72c.9,0,1.8-.45,2.25-1.35"/>
      <path class="st3" d="M718.01,798.92q-.45,0-.45.45"/>
      <path class="st3" d="M718.91,798.47c-.45,0-.45.45-.9.45"/>
      <path class="st3" d="M719.81,798.92q-.45-.45-.9-.45"/>
      <path class="st3" d="M742.33,798.02c4.95-2.7,8.11-6.75,9.91-11.26"/>
      <path class="st3" d="M742.33,798.02c-.45.45-.45.9,0,1.35"/>
      <path class="st3" d="M744.58,800.72c1.35-.45,2.7-1.35,3.6-1.8"/>
      <path class="st3" d="M742.33,799.37c.45.9,1.35,1.35,2.25,1.35"/>
      <path class="st3" d="M750.43,799.37q0-.45-.45-.45"/>
      <path class="st3" d="M749.98,798.92s-.45-.45-.9-.45"/>
      <path class="st3" d="M749.08,798.47q-.45,0-.9.45"/>
      <path class="st3" d="M750.43,705.71c-9.91-6.75-22.97-6.75-32.87,0"/>
      <path class="st3" d="M725.67,707.06c-4.5,2.7-8.11,6.75-9.91,11.26"/>
      <path class="st3" d="M725.67,707.06c.45-.45.45-.9,0-1.35"/>
      <path class="st3" d="M723.42,704.36c-1.35.45-2.7,1.35-3.6,1.8"/>
      <path class="st3" d="M725.67,705.71c-.45-.9-1.35-1.35-2.25-1.35"/>
      <path class="st3" d="M717.56,705.71q0,.45.45.45"/>
      <path class="st3" d="M718.01,706.16q.45.45.9.45"/>
      <path class="st3" d="M718.91,706.61q.45,0,.9-.45"/>
      <path class="st3" d="M752.24,718.32c-1.8-4.5-4.95-8.56-9.91-11.26"/>
      <path class="st3" d="M742.33,705.71c-.45.45-.45.9,0,1.35"/>
      <path class="st3" d="M748.18,706.16c-.9-.45-2.25-1.35-3.6-1.8"/>
      <path class="st3" d="M744.58,704.36c-.9,0-1.8.45-2.25,1.35"/>
      <path class="st3" d="M749.98,706.16q.45,0,.45-.45"/>
      <path class="st3" d="M749.08,706.61c.45,0,.9,0,.9-.45"/>
      <path class="st3" d="M748.18,706.16q.45.45.9.45"/>
      <line class="st0" x1="759.44" y1="718.32" x2="759.44" y2="786.76"/>
    </g>
  </g>
  <g id="pareti">
    <rect class="st8" x="484.02" y="487.32" width="234.55" height="96.39"/>
    <g>
      <polygon class="st5" points="771.09 575.16 771.09 1153.79 753.98 1153.79 753.08 1153.79 753.08 1136.68 753.98 1136.68 762.53 1136.68 762.53 615.68 692.74 615.68 692.74 575.16 713.45 575.16 713.45 573.81 728.76 573.81 728.76 575.16 771.09 575.16"/>
      <polygon class="st5" points="669.32 1136.68 669.32 1153.79 668.42 1153.79 465.34 1153.79 465.34 575.16 508.11 575.16 508.11 615.68 473.89 615.68 473.89 954.31 596.82 954.31 603.58 954.31 603.58 959.26 596.82 959.26 473.89 959.26 473.89 993.48 596.82 993.48 603.58 993.48 603.58 1007.44 603.58 1008.34 596.82 1008.34 596.82 1007.44 596.82 999.34 596.82 998.44 473.89 998.44 473.89 1136.68 596.82 1136.68 596.82 1084.89 596.82 1083.54 603.58 1083.54 603.58 1084.89 603.58 1136.68 668.42 1136.68 669.32 1136.68"/>
    </g>
    <g>
      <path class="st1" d="M601.04,583.61c0-23.42-9.46-45.93-26.12-62.14-16.66-16.66-38.73-26.12-62.59-26.12"/>
      <path class="st1" d="M689.75,495.35c-23.42,0-45.93,9.46-62.59,26.12-16.21,16.21-25.67,38.73-25.67,62.14"/>
      <line class="st1" x1="689.75" y1="583.61" x2="689.75" y2="495.35"/>
      <line class="st1" x1="512.34" y1="583.61" x2="512.34" y2="495.35"/>
      <polygon class="st2" points="718.69 481.84 484.02 481.84 478.54 481.84 478.54 487.32 478.54 575.02 484.02 575.02 484.02 487.32 718.69 487.32 718.69 575.02 724.17 575.02 724.17 487.32 724.17 481.84 718.69 481.84"/>
    </g>
    <rect class="st5" x="478.54" y="481.84" width="5.5" height="99.01"/>
    <rect class="st5" x="717.97" y="481.84" width="5.5" height="99.01"/>
    <rect class="st5" x="598.6" y="361.78" width="5.5" height="245.63" transform="translate(116.76 1085.95) rotate(-90)"/>
  </g>
</svg>