<?xml version="1.0" encoding="UTF-8"?>
<svg xmlns="http://www.w3.org/2000/svg" version="1.1" viewBox="0 0 1200 1697.14">
  <!-- Generator: Adobe Illustrator 29.6.0, SVG Export Plug-In . SVG Version: 2.1.1 Build 207)  -->
  <defs>
    <style>
      .st0 {
        fill: #302c35;
      }

      .st1 {
        fill: #ece8e5;
      }

      .st2, .st3, .st4, .st5 {
        stroke-linecap: round;
        stroke-linejoin: round;
        stroke-width: .15px;
      }

      .st2, .st3, .st5 {
        fill: none;
      }

      .st2, .st4 {
        stroke: #0c1020;
      }

      .st3 {
        stroke: #000;
      }

      .st6, .st4, .st7 {
        fill: #fff;
      }

      .st8 {
        fill: #e9e9e9;
      }

      .st7 {
        stroke: #1d1d1b;
        stroke-miterlimit: 10;
        stroke-width: .15px;
      }

      .st5 {
        stroke: #11100d;
      }
    </style>
  </defs>
  <g id="sfondo">
    <g>
      <polygon class="st1" points="510.48 532.92 783.37 532.92 783.37 604.07 814.89 604.07 814.89 696.83 783.37 696.83 783.37 700.88 783.37 783.29 783.37 787.34 783.37 788.69 783.37 814.36 783.37 881.45 783.37 889.56 813.99 889.56 823.44 889.56 823.44 1074.18 813.99 1074.18 783.37 1074.18 783.37 1137.22 659.53 1137.22 659.53 947.64 653.23 947.64 604.6 947.64 603.7 947.64 603.7 954.4 604.6 954.4 653.23 954.4 653.23 1137.22 452.4 1137.22 452.4 1136.32 452.4 1128.66 451.05 1128.66 446.99 1128.66 446.99 1137.22 413.22 1137.22 413.22 994.93 446.99 994.93 446.99 1094.44 451.05 1094.44 452.4 1094.44 452.4 990.42 493.37 990.42 510.48 990.42 510.48 954.4 519.04 954.4 519.94 954.4 519.94 947.64 519.04 947.64 510.48 947.64 510.48 762.57 510.48 761.22 493.37 761.22 493.37 677.47 510.48 677.47 510.48 676.57 510.48 532.92"/>
      <polygon class="st1" points="814.89 788.69 823.44 788.69 823.44 838.67 823.44 889.56 813.99 889.56 783.37 889.56 783.37 881.45 783.37 814.36 783.37 788.69 783.37 787.34 783.37 783.29 783.37 700.88 783.37 696.83 814.89 696.83 814.89 700.88 814.89 783.29 814.89 787.34 814.89 788.69"/>
      <polygon class="st1" points="493.37 984.12 493.37 761.22 510.48 761.22 510.48 762.57 510.48 947.64 519.04 947.64 519.94 947.64 519.94 954.4 519.04 954.4 510.48 954.4 510.48 990.42 493.37 990.42 493.37 984.12"/>
    </g>
  </g>
  <g id="numeri">
    <g>
      <g>
        <g>
          <polygon class="st6" points="683.9 535.53 684.34 535.53 684.34 613.04 536.07 613.04 536.55 612.06 683.9 612.06 683.9 535.53"/>
          <path class="st6" d="M574.42,535.53h109.48v76.53h-147.35l8.42-17.01c7.56-15.28,12.4-25.06,15.5-31.33l.77-1.56c1.1-2.22,1.94-3.93,2.59-5.24l.41-.82c.25-.51.47-.94.65-1.32l.24-.47c.63-1.29.81-1.64.85-1.73l.02-.04,8.42-17.01Z"/>
          <path class="st6" d="M513.82,535.53h60.6l-8.42,17.01h-30.18c-1.93,0-3.5,1.56-3.5,3.5v35.51c0,1.94,1.57,3.5,3.5,3.5h9.15l-8.42,17.01h-22.73v-76.53Z"/>
          <path class="st6" d="M535.82,552.54h30.18l-.02.04c-.04.09-.22.44-.85,1.73-.08.14-.15.3-.24.47-.18.38-.4.81-.65,1.32-.13.25-.26.52-.41.82-.65,1.31-1.49,3.02-2.59,5.24-.24.49-.5,1.01-.77,1.56-3.1,6.27-7.94,16.05-15.5,31.33h-9.15c-1.93,0-3.5-1.56-3.5-3.5v-35.51c0-1.94,1.57-3.5,3.5-3.5Z"/>
        </g>
        <g>
          <polyline class="st2" points="536.55 612.06 513.82 612.06 513.82 535.53 574.42 535.53"/>
          <polyline class="st2" points="544.97 595.05 536.55 612.06 536.07 613.04 684.34 613.04 684.34 535.53 683.9 535.53 574.42 535.53 566 552.54 565.98 552.58"/>
          <line class="st2" x1="561.24" y1="562.16" x2="560.47" y2="563.72"/>
          <line class="st2" x1="564.24" y1="556.1" x2="563.83" y2="556.92"/>
          <line class="st2" x1="565.13" y1="554.31" x2="564.89" y2="554.78"/>
          <line class="st2" x1="532.32" y1="591.55" x2="532.32" y2="556.04"/>
          <path class="st2" d="M532.32,556.04c0-1.94,1.57-3.5,3.5-3.5"/>
          <path class="st2" d="M535.82,595.05c-1.93,0-3.5-1.56-3.5-3.5"/>
          <path class="st2" d="M535.82,595.05h9.15c7.56-15.28,12.4-25.06,15.5-31.33.27-.55.53-1.07.77-1.56,1.1-2.22,1.94-3.93,2.59-5.24.15-.3.28-.57.41-.82.25-.51.47-.94.65-1.32.09-.17.16-.33.24-.47.63-1.29.81-1.64.85-1.73l.02-.04h-30.18"/>
        </g>
      </g>
      <g id="POLYLINE">
        <polygon class="st2" points="536.07 613.04 684.34 613.04 684.34 535.53 574.42 535.53 536.07 613.04"/>
      </g>
      <g id="POLYLINE1" data-name="POLYLINE">
        <polygon class="st2" points="536.07 613.04 684.34 613.04 684.34 535.53 574.42 535.53 536.07 613.04"/>
      </g>
      <line class="st2" x1="535.82" y1="595.06" x2="544.97" y2="595.06"/>
      <line class="st2" x1="535.82" y1="552.54" x2="566.01" y2="552.54"/>
    </g>
    <g>
      <rect class="st6" x="513.05" y="761.67" width="50.68" height="55.15" transform="translate(1327.63 250.85) rotate(90)"/>
      <line class="st5" x1="510.82" y1="814.58" x2="511.99" y2="814.58"/>
      <line class="st5" x1="514.73" y1="814.58" x2="517.47" y2="814.58"/>
      <line class="st5" x1="520.21" y1="814.58" x2="522.94" y2="814.58"/>
      <line class="st5" x1="525.68" y1="814.58" x2="528.81" y2="814.58"/>
      <line class="st5" x1="531.55" y1="814.58" x2="534.29" y2="814.58"/>
      <line class="st5" x1="537.03" y1="814.58" x2="539.76" y2="814.58"/>
      <line class="st5" x1="542.5" y1="814.58" x2="545.24" y2="814.58"/>
      <line class="st5" x1="547.98" y1="814.58" x2="550.72" y2="814.58"/>
      <line class="st5" x1="553.45" y1="814.58" x2="556.19" y2="814.58"/>
      <line class="st5" x1="559.32" y1="814.58" x2="562.06" y2="814.58"/>
      <line class="st5" x1="564.8" y1="814.58" x2="565.97" y2="814.58"/>
      <line class="st5" x1="565.97" y1="814.58" x2="565.97" y2="813.15"/>
      <line class="st5" x1="565.97" y1="810.65" x2="565.97" y2="808.16"/>
      <line class="st5" x1="565.97" y1="805.66" x2="565.97" y2="803.16"/>
      <line class="st5" x1="565.97" y1="800.66" x2="565.97" y2="798.16"/>
      <line class="st5" x1="565.97" y1="795.66" x2="565.97" y2="793.17"/>
      <line class="st5" x1="565.97" y1="790.67" x2="565.97" y2="787.81"/>
      <line class="st5" x1="565.97" y1="785.31" x2="565.97" y2="782.82"/>
      <line class="st5" x1="565.97" y1="780.32" x2="565.97" y2="777.82"/>
      <line class="st5" x1="565.97" y1="775.32" x2="565.97" y2="772.82"/>
      <line class="st5" x1="565.97" y1="770.32" x2="565.97" y2="767.83"/>
      <line class="st5" x1="565.97" y1="765.33" x2="565.97" y2="763.9"/>
      <line class="st5" x1="565.97" y1="763.9" x2="564.8" y2="763.9"/>
      <line class="st5" x1="562.06" y1="763.9" x2="559.32" y2="763.9"/>
      <line class="st5" x1="556.19" y1="763.9" x2="553.45" y2="763.9"/>
      <line class="st5" x1="550.72" y1="763.9" x2="547.98" y2="763.9"/>
      <line class="st5" x1="545.24" y1="763.9" x2="542.5" y2="763.9"/>
      <line class="st5" x1="539.76" y1="763.9" x2="537.03" y2="763.9"/>
      <line class="st5" x1="534.29" y1="763.9" x2="531.55" y2="763.9"/>
      <line class="st5" x1="528.81" y1="763.9" x2="525.68" y2="763.9"/>
      <line class="st5" x1="522.94" y1="763.9" x2="520.21" y2="763.9"/>
      <line class="st5" x1="517.47" y1="763.9" x2="514.73" y2="763.9"/>
      <line class="st5" x1="511.99" y1="763.9" x2="510.82" y2="763.9"/>
      <path class="st5" d="M565.97,814.58"/>
      <line class="st5" x1="565.97" y1="814.58" x2="564.8" y2="814.58"/>
      <line class="st5" x1="562.06" y1="814.58" x2="559.32" y2="814.58"/>
      <line class="st5" x1="556.19" y1="814.58" x2="553.45" y2="814.58"/>
      <line class="st5" x1="550.72" y1="814.58" x2="547.98" y2="814.58"/>
      <line class="st5" x1="545.24" y1="814.58" x2="542.5" y2="814.58"/>
      <line class="st5" x1="539.76" y1="814.58" x2="537.03" y2="814.58"/>
      <line class="st5" x1="534.29" y1="814.58" x2="531.55" y2="814.58"/>
      <line class="st5" x1="528.81" y1="814.58" x2="525.68" y2="814.58"/>
      <line class="st5" x1="522.94" y1="814.58" x2="520.21" y2="814.58"/>
      <line class="st5" x1="517.47" y1="814.58" x2="514.73" y2="814.58"/>
      <line class="st5" x1="511.99" y1="814.58" x2="510.82" y2="814.58"/>
    </g>
    <g>
      <rect class="st6" x="513.05" y="812.93" width="50.68" height="55.15" transform="translate(1378.9 302.11) rotate(90)"/>
      <line class="st5" x1="510.82" y1="865.84" x2="511.99" y2="865.84"/>
      <line class="st5" x1="514.73" y1="865.84" x2="517.47" y2="865.84"/>
      <line class="st5" x1="520.21" y1="865.84" x2="522.94" y2="865.84"/>
      <line class="st5" x1="525.68" y1="865.84" x2="528.81" y2="865.84"/>
      <line class="st5" x1="531.55" y1="865.84" x2="534.29" y2="865.84"/>
      <line class="st5" x1="537.03" y1="865.84" x2="539.76" y2="865.84"/>
      <line class="st5" x1="542.5" y1="865.84" x2="545.24" y2="865.84"/>
      <line class="st5" x1="547.98" y1="865.84" x2="550.72" y2="865.84"/>
      <line class="st5" x1="553.45" y1="865.84" x2="556.19" y2="865.84"/>
      <line class="st5" x1="559.32" y1="865.84" x2="562.06" y2="865.84"/>
      <line class="st5" x1="564.8" y1="865.84" x2="565.97" y2="865.84"/>
      <line class="st5" x1="565.97" y1="865.84" x2="565.97" y2="864.41"/>
      <line class="st5" x1="565.97" y1="861.92" x2="565.97" y2="859.42"/>
      <line class="st5" x1="565.97" y1="856.92" x2="565.97" y2="854.42"/>
      <line class="st5" x1="565.97" y1="851.92" x2="565.97" y2="849.42"/>
      <line class="st5" x1="565.97" y1="846.93" x2="565.97" y2="844.43"/>
      <line class="st5" x1="565.97" y1="841.93" x2="565.97" y2="839.07"/>
      <line class="st5" x1="565.97" y1="836.58" x2="565.97" y2="834.08"/>
      <line class="st5" x1="565.97" y1="831.58" x2="565.97" y2="829.08"/>
      <line class="st5" x1="565.97" y1="826.58" x2="565.97" y2="824.08"/>
      <line class="st5" x1="565.97" y1="821.59" x2="565.97" y2="819.09"/>
      <line class="st5" x1="565.97" y1="816.59" x2="565.97" y2="815.16"/>
      <line class="st5" x1="565.97" y1="815.16" x2="564.8" y2="815.16"/>
      <line class="st5" x1="562.06" y1="815.16" x2="559.32" y2="815.16"/>
      <line class="st5" x1="556.19" y1="815.16" x2="553.45" y2="815.16"/>
      <line class="st5" x1="550.72" y1="815.16" x2="547.98" y2="815.16"/>
      <line class="st5" x1="545.24" y1="815.16" x2="542.5" y2="815.16"/>
      <line class="st5" x1="539.76" y1="815.16" x2="537.03" y2="815.16"/>
      <line class="st5" x1="534.29" y1="815.16" x2="531.55" y2="815.16"/>
      <line class="st5" x1="528.81" y1="815.16" x2="525.68" y2="815.16"/>
      <line class="st5" x1="522.94" y1="815.16" x2="520.21" y2="815.16"/>
      <line class="st5" x1="517.47" y1="815.16" x2="514.73" y2="815.16"/>
      <line class="st5" x1="511.99" y1="815.16" x2="510.82" y2="815.16"/>
      <path class="st5" d="M565.97,865.84"/>
      <line class="st5" x1="565.97" y1="865.84" x2="564.8" y2="865.84"/>
      <line class="st5" x1="562.06" y1="865.84" x2="559.32" y2="865.84"/>
      <line class="st5" x1="556.19" y1="865.84" x2="553.45" y2="865.84"/>
      <line class="st5" x1="550.72" y1="865.84" x2="547.98" y2="865.84"/>
      <line class="st5" x1="545.24" y1="865.84" x2="542.5" y2="865.84"/>
      <line class="st5" x1="539.76" y1="865.84" x2="537.03" y2="865.84"/>
      <line class="st5" x1="534.29" y1="865.84" x2="531.55" y2="865.84"/>
      <line class="st5" x1="528.81" y1="865.84" x2="525.68" y2="865.84"/>
      <line class="st5" x1="522.94" y1="865.84" x2="520.21" y2="865.84"/>
      <line class="st5" x1="517.47" y1="865.84" x2="514.73" y2="865.84"/>
      <line class="st5" x1="511.99" y1="865.84" x2="510.82" y2="865.84"/>
    </g>
  </g>
  <g id="bianchi">
    <g id="LINE">
      <path class="st6" d="M518.81,1116.83v-24.72c0-9.52,6.83-17.22,15.29-17.22s15.28,7.7,15.28,17.22v24.72h-30.57Z"/>
    </g>
    <rect class="st6" x="400.92" y="881.27" width="197.54" height="12.62" transform="translate(-387.9 1387.27) rotate(-90)"/>
    <rect class="st6" x="722.48" y="969.17" width="184.82" height="25.21" transform="translate(-166.89 1796.66) rotate(-90)"/>
    <rect class="st6" x="762.64" y="637.67" width="99.74" height="20.45" transform="translate(164.61 1460.4) rotate(-90)"/>
    <rect class="st6" x="578.8" y="1066.91" width="72.36" height="76.51" transform="translate(-490.19 1720.14) rotate(-90)"/>
    <rect class="st6" x="632.29" y="978.75" width="37.37" height="1.8" transform="translate(-328.67 1630.63) rotate(-90)"/>
    <rect class="st6" x="638.93" y="978.72" width="27.47" height="1.85" transform="translate(-326.98 1632.31) rotate(-90)"/>
    <g>
      <polygon class="st6" points="558.22 1067.68 561.37 1067.68 561.37 1114.06 561.37 1134.32 561.37 1135.22 558.22 1135.22 558.22 1134.32 558.22 1114.06 558.22 1067.68"/>
      <path class="st6" d="M561.37,1114.06h.45c1.35,0,2.26.9,2.26,1.8v16.21c0,1.35-.91,2.25-2.26,2.25h-.45v-20.26Z"/>
      <path class="st6" d="M557.77,1114.06h.45v20.26h-.45c-1.35,0-2.25-.9-2.25-2.25v-16.21c0-.9.9-1.8,2.25-1.8Z"/>
      <polygon class="st6" points="561.37 1135.22 564.08 1135.22 564.08 1136.12 555.52 1136.12 555.52 1135.22 558.22 1135.22 561.37 1135.22"/>
    </g>
    <g>
      <polygon class="st6" points="507.33 1067.68 510.48 1067.68 510.48 1114.06 510.48 1134.32 510.48 1135.22 507.33 1135.22 507.33 1134.32 507.33 1114.06 507.33 1067.68"/>
      <path class="st6" d="M510.48,1114.06h.45c1.35,0,2.26.9,2.26,1.8v16.21c0,1.35-.91,2.25-2.26,2.25h-.45v-20.26Z"/>
      <path class="st6" d="M506.88,1114.06h.45v20.26h-.45c-1.35,0-2.25-.9-2.25-2.25v-16.21c0-.9.9-1.8,2.25-1.8Z"/>
      <polygon class="st6" points="510.48 1135.22 513.19 1135.22 513.19 1136.12 504.63 1136.12 504.63 1135.22 507.33 1135.22 510.48 1135.22"/>
    </g>
    <g>
      <path class="st6" d="M452.42,1007.35h39.37c.88,0,1.59.42,1.59.94v53.16c0,.64-.71,1.17-1.59,1.17h-39.37v-55.27ZM490.21,1008.29h-23.08c-.87,0-1.58.52-1.58,1.17v50.81c0,.65.71,1.18,1.58,1.18h23.08c.88,0,1.59-.53,1.59-1.18v-50.81c0-.65-.71-1.17-1.59-1.17ZM459.44,1032.66c-1.22,0-2.21.99-2.21,2.21s.99,2.2,2.21,2.2,2.2-.99,2.2-2.2-.99-2.21-2.2-2.21Z"/>
      <path class="st6" d="M467.13,1008.29h23.08c.88,0,1.59.52,1.59,1.17v50.81c0,.65-.71,1.18-1.59,1.18h-23.08c-.87,0-1.58-.53-1.58-1.18v-50.81c0-.65.71-1.17,1.58-1.17ZM478.67,1031.93c-1.62,0-2.93,1.32-2.93,2.94s1.31,2.93,2.93,2.93,2.94-1.31,2.94-2.93-1.32-2.94-2.94-2.94Z"/>
      <path class="st6" d="M475.74,1034.87c0-1.62,1.31-2.94,2.93-2.94s2.94,1.32,2.94,2.94-1.32,2.93-2.94,2.93-2.93-1.31-2.93-2.93ZM478.67,1033.29c-.87,0-1.58.71-1.58,1.58s.71,1.57,1.58,1.57,1.58-.7,1.58-1.57-.71-1.58-1.58-1.58Z"/>
      <path class="st6" d="M457.23,1034.87c0-1.22.99-2.21,2.21-2.21s2.2.99,2.2,2.21-.99,2.2-2.2,2.2-2.21-.99-2.21-2.2Z"/>
      <path class="st6" d="M477.09,1034.87c0-.87.71-1.58,1.58-1.58s1.58.71,1.58,1.58-.71,1.57-1.58,1.57-1.58-.7-1.58-1.57Z"/>
    </g>
    <rect class="st6" x="460.05" y="710.6" width="83.76" height="17.11" transform="translate(-217.22 1221.08) rotate(-90)"/>
  </g>
  <g id="pareti">
    <g>
      <polygon class="st0" points="493.37 515.62 823.44 515.62 823.44 562.9 824.79 562.9 824.79 578.21 823.44 578.21 823.44 603.88 783.37 603.88 783.37 532.73 510.48 532.73 510.48 676.38 510.48 677.28 493.37 677.28 493.37 676.38 493.37 515.62"/>
      <polygon class="st0" points="814.89 788.5 823.44 788.5 823.44 838.48 823.44 889.37 813.99 889.37 783.37 889.37 783.37 814.17 783.37 788.5 783.37 787.15 783.37 783.1 783.37 700.69 783.37 696.64 814.89 696.64 814.89 700.69 814.89 783.1 814.89 787.15 814.89 788.5"/>
      <polygon class="st0" points="493.37 761.03 510.48 761.03 510.48 762.38 510.48 947.45 519.04 947.45 519.94 947.45 519.94 954.21 519.04 954.21 510.48 954.21 510.48 990.23 452.4 990.23 452.4 1094.25 451.05 1094.25 446.99 1094.25 446.99 994.74 413.22 994.74 413.22 1137.03 446.99 1137.03 446.99 1128.47 451.05 1128.47 452.4 1128.47 452.4 1136.13 452.4 1137.03 653.23 1137.03 653.23 954.21 604.6 954.21 603.7 954.21 603.7 947.45 604.6 947.45 653.23 947.45 659.53 947.45 659.53 1137.03 783.37 1137.03 783.37 1073.99 813.99 1073.99 823.44 1073.99 823.44 1154.59 782.91 1154.59 782.91 1153.69 406.92 1153.69 406.92 983.93 504.18 983.93 504.18 816.42 493.37 805.61 493.37 761.03"/>
    </g>
  </g>
  <g id="Default">
    <g>
      <rect class="st6" x="684.39" y="1058.83" width="53.93" height="101.75" transform="translate(-398.34 1821.06) rotate(-90)"/>
      <rect class="st2" x="660.48" y="1082.74" width="101.75" height="51.32"/>
      <line class="st2" x1="739.52" y1="1119.85" x2="751.71" y2="1119.85"/>
      <line class="st2" x1="739.52" y1="1096.94" x2="751.71" y2="1096.94"/>
      <line class="st2" x1="745.53" y1="1102.95" x2="745.53" y2="1090.77"/>
      <line class="st2" x1="745.53" y1="1126.03" x2="745.53" y2="1113.84"/>
      <rect class="st2" x="732.53" y="1085.4" width="26.81" height="45.99"/>
      <rect class="st2" x="672.71" y="1092.89" width="31.01" height="31.01"/>
      <rect class="st2" x="665" y="1085.18" width="46.6" height="46.44"/>
      <line class="st2" x1="688.3" y1="1116.4" x2="688.3" y2="1128.87"/>
    </g>
    <circle class="st2" cx="478.68" cy="1034.87" r="2.93" transform="translate(-224.96 137.66) rotate(-13.28)"/>
    <path class="st2" d="M478.68,1036.44c.87,0,1.58-.71,1.58-1.58s-.71-1.58-1.58-1.58-1.58.71-1.58,1.58.71,1.58,1.58,1.58Z"/>
    <circle class="st2" cx="459.44" cy="1034.87" r="2.2" transform="translate(-225.47 133.24) rotate(-13.28)"/>
    <path class="st2" d="M467.14,1008.29h23.08c.88,0,1.59.52,1.59,1.17v50.81c0,.65-.71,1.17-1.59,1.17h-23.08c-.87,0-1.58-.52-1.58-1.17v-50.81c0-.65.71-1.17,1.58-1.17Z"/>
    <path class="st2" d="M452.42,1007.35h39.38c.88,0,1.58.42,1.58.94v53.16c0,.65-.7,1.17-1.58,1.17h-39.38"/>
    <path class="st2" d="M518.8,1116.53c0-8.24.01-16.48.02-24.72,0-9.52,6.85-17.21,15.3-17.21,8.45,0,15.28,7.71,15.28,17.23,0,8.24-.01,16.48-.02,24.72-10.19,0-20.38-.01-30.58-.02Z"/>
    <line class="st2" x1="652.11" y1="1068.99" x2="585.79" y2="1068.99"/>
    <polyline class="st2" points="652.11 1068.99 653.23 1068.99 653.23 1069.59"/>
    <polyline class="st2" points="653.23 1135.91 653.23 1137.03 652.63 1137.03"/>
    <line class="st2" x1="653.23" y1="1135.91" x2="653.23" y2="1069.59"/>
    <line class="st2" x1="576.72" y1="1137.03" x2="652.63" y2="1137.03"/>
    <polyline class="st2" points="576.72 1137.03 576.72 1068.99 585.79 1068.99"/>
    <circle class="st2" cx="614.77" cy="1118.22" r="4.23" transform="translate(-240.47 171.16) rotate(-13.28)"/>
    <circle class="st2" cx="614.77" cy="1118.22" r="4.23" transform="translate(-240.47 171.16) rotate(-13.28)"/>
    <line class="st2" x1="614.68" y1="1137.03" x2="614.68" y2="1118.13"/>
    <line class="st2" x1="504.63" y1="1135.23" x2="507.33" y2="1135.23"/>
    <line class="st2" x1="555.52" y1="1136.13" x2="555.52" y2="1135.23"/>
    <line class="st2" x1="564.07" y1="1135.23" x2="564.07" y2="1136.13"/>
    <line class="st2" x1="561.37" y1="1135.23" x2="564.07" y2="1135.23"/>
    <line class="st2" x1="561.37" y1="1134.33" x2="561.37" y2="1135.23"/>
    <line class="st2" x1="561.82" y1="1134.33" x2="561.37" y2="1134.33"/>
    <path class="st2" d="M561.82,1134.33c1.35,0,2.25-.9,2.25-2.25"/>
    <line class="st2" x1="564.07" y1="1115.86" x2="564.07" y2="1132.08"/>
    <path class="st2" d="M564.07,1115.86c0-.9-.9-1.8-2.25-1.8"/>
    <line class="st2" x1="561.37" y1="1114.06" x2="561.82" y2="1114.06"/>
    <line class="st2" x1="561.37" y1="1067.68" x2="561.37" y2="1114.06"/>
    <line class="st2" x1="558.22" y1="1067.68" x2="561.37" y2="1067.68"/>
    <line class="st2" x1="558.22" y1="1114.06" x2="558.22" y2="1067.68"/>
    <line class="st2" x1="557.77" y1="1114.06" x2="558.22" y2="1114.06"/>
    <path class="st2" d="M557.77,1114.06c-1.35,0-2.25.9-2.25,1.8"/>
    <line class="st2" x1="555.52" y1="1132.08" x2="555.52" y2="1115.86"/>
    <path class="st2" d="M555.52,1132.08c0,1.35.9,2.25,2.25,2.25"/>
    <line class="st2" x1="558.22" y1="1134.33" x2="557.77" y2="1134.33"/>
    <line class="st2" x1="558.22" y1="1135.23" x2="558.22" y2="1134.33"/>
    <line class="st2" x1="555.52" y1="1135.23" x2="558.22" y2="1135.23"/>
    <line class="st2" x1="564.07" y1="1135.23" x2="564.07" y2="1136.13"/>
    <line class="st2" x1="555.52" y1="1135.23" x2="564.07" y2="1135.23"/>
    <line class="st2" x1="555.52" y1="1136.13" x2="555.52" y2="1135.23"/>
    <line class="st2" x1="513.19" y1="1135.23" x2="513.19" y2="1136.13"/>
    <line class="st2" x1="504.63" y1="1135.23" x2="513.19" y2="1135.23"/>
    <line class="st2" x1="504.63" y1="1136.13" x2="504.63" y2="1135.23"/>
    <line class="st2" x1="558.22" y1="1067.68" x2="561.37" y2="1067.68"/>
    <line class="st2" x1="561.37" y1="1135.23" x2="561.37" y2="1067.68"/>
    <line class="st2" x1="558.22" y1="1067.68" x2="558.22" y2="1135.23"/>
    <line class="st2" x1="507.33" y1="1135.23" x2="507.33" y2="1067.68"/>
    <line class="st2" x1="510.49" y1="1067.68" x2="510.49" y2="1135.23"/>
    <line class="st2" x1="507.33" y1="1067.68" x2="510.49" y2="1067.68"/>
    <line class="st2" x1="525.8" y1="947.45" x2="522.64" y2="947.45"/>
    <line class="st2" x1="522.64" y1="869.1" x2="525.8" y2="869.1"/>
    <line class="st2" x1="522.64" y1="947.45" x2="522.64" y2="869.1"/>
    <line class="st2" x1="653.23" y1="993.38" x2="651.88" y2="993.38"/>
    <line class="st2" x1="651.88" y1="965.92" x2="653.23" y2="965.92"/>
    <line class="st2" x1="651.88" y1="960.96" x2="650.08" y2="960.96"/>
    <line class="st2" x1="651.88" y1="998.34" x2="651.88" y2="960.96"/>
    <line class="st2" x1="650.08" y1="998.34" x2="651.88" y2="998.34"/>
    <line class="st2" x1="650.08" y1="960.96" x2="650.08" y2="998.34"/>
    <line class="st2" x1="510.49" y1="679.98" x2="510.49" y2="755.18"/>
    <line class="st2" x1="802.28" y1="1073.99" x2="802.28" y2="1073.09"/>
    <line class="st2" x1="802.28" y1="982.13" x2="802.28" y2="981.23"/>
    <line class="st2" x1="802.28" y1="890.27" x2="802.28" y2="889.36"/>
    <line class="st2" x1="802.28" y1="696.64" x2="802.28" y2="695.74"/>
    <line class="st2" x1="802.28" y1="604.78" x2="802.28" y2="603.88"/>
    <line class="st2" x1="446.99" y1="994.73" x2="413.22" y2="1137.03"/>
    <line class="st2" x1="413.22" y1="994.73" x2="446.99" y2="1137.03"/>
    <line class="st2" x1="452.4" y1="1094.25" x2="452.4" y2="1095.6"/>
    <line class="st2" x1="452.4" y1="1127.57" x2="452.4" y2="1128.47"/>
    <line class="st2" x1="446.99" y1="1128.47" x2="446.99" y2="1094.25"/>
    <path class="st2" d="M588.84,758.78c0-21.16-8.11-40.98-22.97-55.84-14.86-14.86-34.67-22.97-55.39-22.97"/>
    <line class="st2" x1="510.49" y1="758.78" x2="588.84" y2="758.78"/>
    <line class="st2" x1="510.49" y1="755.18" x2="510.49" y2="758.78"/>
    <line class="st2" x1="510.49" y1="755.18" x2="510.49" y2="679.98"/>
    <g>
      <path class="st6" d="M725,565.33c5.4-.45,10.36-.45,15.31,0,5.4.46,10.36,2.71,14.41,6.31,4.05,3.15,6.75,8.1,7.65,13.51.9,4.95,1.8,9.9,1.35,14.86,0,2.25-.9,4.05-2.25,5.4-.45,0-.45.45-.9.45l-14.86,12.61c-.9.9-1.8,1.35-3.15,2.25-1.35.45-3.15.45-4.95,0-13.06-4.95-23.87-14.86-30.17-27.02-.45-1.8-.9-3.15-.45-4.95.45-1.35,1.35-2.25,1.8-3.6l10.81-15.76c.45-.45.45-.9.9-.9,1.35-1.35,2.7-2.7,4.5-3.16Z"/>
      <path class="st2" d="M707.37,593.76c6.3,12.16,17.11,22.06,30.17,27.02"/>
      <path class="st2" d="M726.28,573.95c-3.15,2.25-5.85,4.95-8.56,8.11"/>
      <path class="st2" d="M747,573.95c-6.3-4.05-14.41-4.05-20.71,0"/>
      <path class="st2" d="M750.15,576.65c-.9-.9-1.8-1.8-3.15-2.7"/>
      <path class="st2" d="M754.65,571.69c-4.05-3.6-9.01-5.85-14.41-6.3"/>
      <path class="st2" d="M706.92,588.81c-.45,1.8,0,3.15.45,4.95"/>
      <path class="st2" d="M708.72,585.2c-.45,1.35-1.35,2.25-1.8,3.6"/>
      <line class="st2" x1="719.53" y1="569.44" x2="708.72" y2="585.2"/>
      <path class="st2" d="M720.43,568.54c-.45,0-.45.45-.9.9"/>
      <path class="st2" d="M724.93,565.39c-1.8.45-3.15,1.8-4.5,3.15"/>
      <path class="st2" d="M740.24,565.39c-4.95-.45-9.91-.45-15.31,0"/>
      <path class="st2" d="M748.35,609.52c2.7-3.15,4.95-6.3,7.2-9.46"/>
      <path class="st2" d="M755.55,600.06c3.15-6.75,2.25-14.86-2.7-20.71"/>
      <line class="st2" x1="752.85" y1="579.35" x2="750.15" y2="576.65"/>
      <path class="st2" d="M762.31,585.2c-.9-5.4-3.6-10.36-7.66-13.51"/>
      <path class="st2" d="M737.54,620.78c1.8.45,3.6.45,4.95,0"/>
      <path class="st2" d="M742.49,620.78c1.35-.9,2.25-1.35,3.15-2.25"/>
      <line class="st2" x1="760.5" y1="605.92" x2="745.64" y2="618.53"/>
      <path class="st2" d="M760.5,605.92c.45,0,.45-.45.9-.45"/>
      <path class="st2" d="M761.4,605.47c1.35-1.35,2.25-3.15,2.25-5.4"/>
      <path class="st2" d="M763.66,600.06c.45-4.95-.45-9.91-1.35-14.86"/>
    </g>
    <line class="st2" x1="450.15" y1="1095.6" x2="450.15" y2="1127.57"/>
    <line class="st2" x1="450.15" y1="1127.57" x2="452.4" y2="1127.57"/>
    <line class="st2" x1="452.4" y1="1127.57" x2="452.4" y2="1095.6"/>
    <line class="st2" x1="452.4" y1="1095.6" x2="450.15" y2="1095.6"/>
    <polyline class="st2" points="525.8 869.16 525.8 869.1 522.64 869.1 522.64 947.45 525.8 947.45"/>
    <line class="st2" x1="525.8" y1="869.1" x2="525.8" y2="869.16"/>
    <line class="st2" x1="513.19" y1="1136.13" x2="504.63" y2="1136.13"/>
    <line class="st2" x1="564.07" y1="1136.13" x2="555.52" y2="1136.13"/>
    <line class="st2" x1="452.4" y1="1127.57" x2="450.15" y2="1127.57"/>
    <polyline class="st2" points="510.49 755.18 510.49 758.78 588.84 758.78"/>
    <line class="st2" x1="525.8" y1="947.45" x2="601" y2="947.45"/>
    <line class="st2" x1="525.8" y1="947.45" x2="601" y2="947.45"/>
    <path class="st2" d="M601,947.45c0-20.71-8.11-40.53-22.97-55.39-14.86-14.86-34.67-22.97-55.39-22.97"/>
    <line class="st2" x1="823.44" y1="889.36" x2="823.44" y2="838.48"/>
    <line class="st2" x1="813.99" y1="1064.98" x2="809.93" y2="1064.98"/>
    <line class="st2" x1="809.93" y1="990.23" x2="813.99" y2="990.23"/>
    <line class="st2" x1="802.28" y1="986.63" x2="802.28" y2="1068.58"/>
    <line class="st2" x1="814.89" y1="1064.98" x2="814.89" y2="990.23"/>
    <line class="st2" x1="814.89" y1="1064.98" x2="814.89" y2="1073.09"/>
    <line class="st2" x1="802.28" y1="1073.09" x2="802.28" y2="1068.58"/>
    <line class="st2" x1="802.28" y1="986.63" x2="802.28" y2="982.13"/>
    <line class="st2" x1="814.89" y1="982.13" x2="814.89" y2="1073.09"/>
    <line class="st2" x1="814.89" y1="1070.83" x2="814.89" y2="984.38"/>
    <line class="st2" x1="814.89" y1="990.23" x2="814.89" y2="1064.98"/>
    <line class="st2" x1="814.89" y1="1064.98" x2="814.89" y2="990.23"/>
    <line class="st2" x1="809.93" y1="894.77" x2="813.99" y2="894.77"/>
    <line class="st2" x1="802.28" y1="894.77" x2="802.28" y2="976.72"/>
    <line class="st2" x1="802.28" y1="981.23" x2="802.28" y2="976.72"/>
    <line class="st2" x1="814.89" y1="890.27" x2="814.89" y2="894.77"/>
    <g>
      <line class="st2" x1="813.99" y1="990.23" x2="813.99" y2="1064.98"/>
      <line class="st2" x1="809.93" y1="1064.98" x2="809.93" y2="990.23"/>
      <line class="st2" x1="808.13" y1="1064.98" x2="808.13" y2="990.23"/>
      <line class="st2" x1="814.89" y1="1073.09" x2="802.28" y2="1073.09"/>
      <line class="st2" x1="808.13" y1="1064.98" x2="814.89" y2="1064.98"/>
      <line class="st2" x1="808.13" y1="1068.58" x2="808.13" y2="1064.98"/>
      <line class="st2" x1="802.28" y1="1068.58" x2="808.13" y2="1068.58"/>
      <line class="st2" x1="808.13" y1="986.63" x2="802.28" y2="986.63"/>
      <line class="st2" x1="808.13" y1="990.23" x2="808.13" y2="986.63"/>
      <line class="st2" x1="814.89" y1="990.23" x2="808.13" y2="990.23"/>
      <line class="st2" x1="814.89" y1="982.13" x2="814.89" y2="990.23"/>
      <line class="st2" x1="802.28" y1="982.13" x2="814.89" y2="982.13"/>
      <line class="st2" x1="814.89" y1="1070.38" x2="814.89" y2="984.83"/>
      <line class="st2" x1="813.99" y1="976.72" x2="809.93" y2="976.72"/>
      <line class="st2" x1="813.99" y1="894.77" x2="813.99" y2="976.72"/>
      <line class="st2" x1="809.93" y1="976.72" x2="809.93" y2="894.77"/>
      <line class="st2" x1="814.89" y1="976.72" x2="814.89" y2="894.77"/>
      <line class="st2" x1="814.89" y1="981.23" x2="802.28" y2="981.23"/>
      <line class="st2" x1="814.89" y1="976.72" x2="814.89" y2="981.23"/>
      <line class="st2" x1="802.28" y1="976.72" x2="814.89" y2="976.72"/>
      <line class="st2" x1="814.89" y1="894.77" x2="802.28" y2="894.77"/>
      <line class="st2" x1="802.28" y1="890.27" x2="814.89" y2="890.27"/>
    </g>
    <line class="st2" x1="802.28" y1="894.77" x2="802.28" y2="890.27"/>
    <line class="st2" x1="809.93" y1="612.43" x2="809.93" y2="687.63"/>
    <line class="st2" x1="809.93" y1="687.63" x2="813.99" y2="687.63"/>
    <line class="st2" x1="813.99" y1="687.63" x2="813.99" y2="612.43"/>
    <line class="st2" x1="813.99" y1="612.43" x2="809.93" y2="612.43"/>
    <line class="st2" x1="802.28" y1="691.23" x2="802.28" y2="608.83"/>
    <line class="st2" x1="814.89" y1="612.43" x2="814.89" y2="687.63"/>
    <line class="st2" x1="808.13" y1="612.43" x2="808.13" y2="687.63"/>
    <line class="st2" x1="802.28" y1="691.23" x2="802.28" y2="695.74"/>
    <line class="st2" x1="802.28" y1="695.74" x2="814.89" y2="695.74"/>
    <line class="st2" x1="814.89" y1="695.74" x2="814.89" y2="687.63"/>
    <line class="st2" x1="814.89" y1="687.63" x2="808.13" y2="687.63"/>
    <line class="st2" x1="808.13" y1="687.63" x2="808.13" y2="691.23"/>
    <line class="st2" x1="808.13" y1="691.23" x2="802.28" y2="691.23"/>
    <line class="st2" x1="802.28" y1="604.78" x2="802.28" y2="608.83"/>
    <line class="st2" x1="802.28" y1="608.83" x2="808.13" y2="608.83"/>
    <line class="st2" x1="808.13" y1="608.83" x2="808.13" y2="612.43"/>
    <line class="st2" x1="808.13" y1="612.43" x2="814.89" y2="612.43"/>
    <line class="st2" x1="814.89" y1="612.43" x2="814.89" y2="604.78"/>
    <line class="st2" x1="814.89" y1="604.78" x2="802.28" y2="604.78"/>
    <line class="st2" x1="814.89" y1="695.74" x2="814.89" y2="604.78"/>
    <line class="st2" x1="814.89" y1="607.03" x2="814.89" y2="693.49"/>
    <line class="st2" x1="814.89" y1="607.48" x2="814.89" y2="693.03"/>
    <line class="st2" x1="814.89" y1="687.63" x2="814.89" y2="612.43"/>
    <line class="st2" x1="814.89" y1="612.43" x2="814.89" y2="687.63"/>
    <line class="st2" x1="504.63" y1="1136.13" x2="504.63" y2="1135.23"/>
    <line class="st2" x1="513.19" y1="1135.23" x2="513.19" y2="1136.13"/>
    <line class="st2" x1="510.49" y1="1135.23" x2="513.19" y2="1135.23"/>
    <line class="st2" x1="510.49" y1="1134.33" x2="510.49" y2="1135.23"/>
    <line class="st2" x1="510.94" y1="1134.33" x2="510.49" y2="1134.33"/>
    <path class="st2" d="M510.94,1134.33c1.35,0,2.25-.9,2.25-2.25"/>
    <line class="st2" x1="513.19" y1="1115.86" x2="513.19" y2="1132.08"/>
    <path class="st2" d="M513.19,1115.86c0-.9-.9-1.8-2.25-1.8"/>
    <line class="st2" x1="510.49" y1="1114.06" x2="510.94" y2="1114.06"/>
    <line class="st2" x1="510.49" y1="1067.68" x2="510.49" y2="1114.06"/>
    <line class="st2" x1="507.33" y1="1067.68" x2="510.49" y2="1067.68"/>
    <line class="st2" x1="507.33" y1="1114.06" x2="507.33" y2="1067.68"/>
    <line class="st2" x1="506.88" y1="1114.06" x2="507.33" y2="1114.06"/>
    <path class="st2" d="M506.88,1114.06c-1.35,0-2.25.9-2.25,1.8"/>
    <line class="st2" x1="504.63" y1="1132.08" x2="504.63" y2="1115.86"/>
    <path class="st2" d="M504.63,1132.08c0,1.35.9,2.25,2.25,2.25"/>
    <line class="st2" x1="507.33" y1="1134.33" x2="506.88" y2="1134.33"/>
    <line class="st2" x1="507.33" y1="1135.23" x2="507.33" y2="1134.33"/>
    <line class="st2" x1="792.37" y1="515.62" x2="493.38" y2="515.62"/>
    <line class="st2" x1="493.38" y1="515.62" x2="823.44" y2="515.62"/>
    <line class="st2" x1="493.38" y1="805.61" x2="493.38" y2="761.03"/>
    <line class="st2" x1="493.38" y1="762.38" x2="493.38" y2="761.03"/>
    <line class="st2" x1="493.38" y1="762.38" x2="493.38" y2="805.61"/>
    <line class="st2" x1="504.18" y1="816.42" x2="493.38" y2="805.61"/>
    <line class="st2" x1="493.38" y1="762.38" x2="493.38" y2="761.03"/>
    <line class="st2" x1="504.18" y1="816.42" x2="504.18" y2="983.93"/>
    <rect class="st4" x="514.16" y="621.18" width="32.87" height="32.87" transform="translate(-107.03 1168.21) rotate(-90)"/>
    <rect class="st4" x="735.07" y="635.62" width="32.87" height="32.87" transform="translate(99.45 1403.55) rotate(-90)"/>
    <g>
      <g>
        <polygon class="st6" points="775.94 761.11 775.94 829.11 768.73 829.11 732.26 829.11 725.06 829.11 725.06 761.11 732.26 761.11 768.73 761.11 775.94 761.11"/>
        <path class="st6" d="M768.73,761.11h-36.47c1.8-4.95,5.4-9,9.91-11.26.45-.45.45-.9,0-1.35-.45-.9-1.35-1.35-2.26-1.35-1.35.45-2.7,1.35-3.6,1.8h-.9q-.45,0-.9,0t-.45-.45c9.91-7.2,22.97-7.2,32.87,0q0,.45-.45.45h-.9q-.45,0-.9,0c-.9-.45-2.25-1.35-3.15-1.8-1.35,0-2.25.45-2.7,1.35-.45.45-.45.9,0,1.35,4.95,2.26,8.1,6.31,9.9,11.26Z"/>
        <path class="st6" d="M732.26,829.11h36.47c-1.8,4.95-4.95,9-9.9,11.7-.45,0-.45.9,0,1.36.45.9,1.35,1.35,2.7,1.35l.55,1.32c-9.05,3.92-19.66,3.03-28.02-2.67q0-.46.45-.91h.9q.45,0,.9,0c.9.91,2.25,1.36,3.6,2.26.91,0,1.81-.45,2.26-1.35.45-.46.45-1.36,0-1.36-4.51-2.7-8.11-6.75-9.91-11.7Z"/>
        <path class="st6" d="M766.48,841.26q.45.45.45.91c-1.55,1.06-3.17,1.95-4.85,2.67l-.55-1.32c.9-.9,2.25-1.35,3.15-2.26h.9c.45,0,.9,0,.9,0Z"/>
      </g>
      <path class="st3" d="M758.82,748.56c-.45.45-.45.9,0,1.35"/>
      <path class="st3" d="M768.73,761.16c-1.8-4.95-4.95-9.01-9.91-11.26"/>
      <path class="st3" d="M766.93,748.56c-9.91-7.2-22.97-7.2-32.87,0"/>
      <path class="st3" d="M736.31,841.32h-.9"/>
      <path class="st3" d="M735.41,841.32h-.9"/>
      <path class="st3" d="M734.51,841.32q-.45.45-.45.9"/>
      <path class="st3" d="M739.91,843.57c.9,0,1.8-.45,2.25-1.35"/>
      <path class="st3" d="M736.31,841.32c.9.9,2.25,1.35,3.6,2.25"/>
      <path class="st3" d="M742.16,842.22c.45-.45.45-1.35,0-1.35"/>
      <path class="st3" d="M732.26,829.16c1.8,4.95,5.4,9.01,9.91,11.71"/>
      <path class="st3" d="M765.58,841.32h-.9"/>
      <path class="st3" d="M766.48,841.32h-.9"/>
      <path class="st3" d="M766.93,842.22q0-.45-.45-.9"/>
      <path class="st3" d="M758.82,842.22c.45.9,1.35,1.35,2.7,1.35"/>
      <path class="st3" d="M761.52,843.57c.9-.9,2.25-1.35,3.15-2.25"/>
      <path class="st3" d="M758.82,840.87c-.45,0-.45.9,0,1.35"/>
      <path class="st3" d="M758.82,840.87c4.95-2.7,8.11-6.75,9.91-11.71"/>
      <path class="st3" d="M734.06,842.22c9.91,6.75,22.97,6.75,32.87,0"/>
      <line class="st3" x1="725.05" y1="761.16" x2="775.93" y2="761.16"/>
      <line class="st3" x1="775.93" y1="829.16" x2="725.05" y2="829.16"/>
      <line class="st3" x1="775.93" y1="829.16" x2="775.93" y2="761.16"/>
      <path class="st3" d="M735.41,749.01h.9"/>
      <path class="st3" d="M734.51,749.01h.9"/>
      <path class="st3" d="M734.06,748.56q0,.45.45.45"/>
      <path class="st3" d="M742.16,748.56c-.45-.9-1.35-1.35-2.25-1.35"/>
      <path class="st3" d="M739.91,747.21c-1.35.45-2.7,1.35-3.6,1.8"/>
      <path class="st3" d="M742.16,749.91c.45-.45.45-.9,0-1.35"/>
      <path class="st3" d="M742.16,749.91c-4.5,2.25-8.11,6.3-9.91,11.26"/>
      <path class="st3" d="M764.68,749.01h.9"/>
      <path class="st3" d="M765.58,749.01h.9"/>
      <path class="st3" d="M766.48,749.01q.45,0,.45-.45"/>
      <path class="st3" d="M761.52,747.21c-1.35,0-2.25.45-2.7,1.35"/>
      <path class="st3" d="M764.68,749.01c-.9-.45-2.25-1.35-3.15-1.8"/>
    </g>
    <g>
      <g>
        <polygon class="st6" points="725.47 761.11 725.47 829.11 718.26 829.11 681.79 829.11 674.59 829.11 674.59 761.11 681.79 761.11 718.26 761.11 725.47 761.11"/>
        <path class="st6" d="M718.26,761.11h-36.47c1.8-4.95,5.4-9,9.91-11.26.45-.45.45-.9,0-1.35-.45-.9-1.35-1.35-2.26-1.35-1.35.45-2.7,1.35-3.6,1.8h-.9q-.45,0-.9,0t-.45-.45c9.91-7.2,22.97-7.2,32.87,0q0,.45-.45.45h-.9q-.45,0-.9,0c-.9-.45-2.25-1.35-3.15-1.8-1.35,0-2.25.45-2.7,1.35-.45.45-.45.9,0,1.35,4.95,2.26,8.1,6.31,9.9,11.26Z"/>
        <path class="st6" d="M681.79,829.11h36.47c-1.8,4.95-4.95,9-9.9,11.7-.45,0-.45.9,0,1.36.45.9,1.35,1.35,2.7,1.35l.55,1.32c-9.05,3.92-19.66,3.03-28.02-2.67q0-.46.45-.91h.9q.45,0,.9,0c.9.91,2.25,1.36,3.6,2.26.91,0,1.81-.45,2.26-1.35.45-.46.45-1.36,0-1.36-4.51-2.7-8.11-6.75-9.91-11.7Z"/>
        <path class="st6" d="M716.01,841.26q.45.45.45.91c-1.55,1.06-3.17,1.95-4.85,2.67l-.55-1.32c.9-.9,2.25-1.35,3.15-2.26h.9c.45,0,.9,0,.9,0Z"/>
      </g>
      <path class="st3" d="M708.36,748.56c-.45.45-.45.9,0,1.35"/>
      <path class="st3" d="M718.26,761.16c-1.8-4.95-4.95-9.01-9.91-11.26"/>
      <path class="st3" d="M716.46,748.56c-9.91-7.2-22.97-7.2-32.87,0"/>
      <path class="st3" d="M685.84,841.32h-.9"/>
      <path class="st3" d="M684.94,841.32h-.9"/>
      <path class="st3" d="M684.04,841.32q-.45.45-.45.9"/>
      <path class="st3" d="M689.45,843.57c.9,0,1.8-.45,2.25-1.35"/>
      <path class="st3" d="M685.84,841.32c.9.9,2.25,1.35,3.6,2.25"/>
      <path class="st3" d="M691.7,842.22c.45-.45.45-1.35,0-1.35"/>
      <path class="st3" d="M681.79,829.16c1.8,4.95,5.4,9.01,9.91,11.71"/>
      <path class="st3" d="M715.11,841.32h-.9"/>
      <path class="st3" d="M716.01,841.32h-.9"/>
      <path class="st3" d="M716.46,842.22q0-.45-.45-.9"/>
      <path class="st3" d="M708.36,842.22c.45.9,1.35,1.35,2.7,1.35"/>
      <path class="st3" d="M711.06,843.57c.9-.9,2.25-1.35,3.15-2.25"/>
      <path class="st3" d="M708.36,840.87c-.45,0-.45.9,0,1.35"/>
      <path class="st3" d="M708.36,840.87c4.95-2.7,8.11-6.75,9.91-11.71"/>
      <path class="st3" d="M683.59,842.22c9.91,6.75,22.97,6.75,32.87,0"/>
      <line class="st3" x1="674.59" y1="761.16" x2="725.47" y2="761.16"/>
      <line class="st3" x1="725.47" y1="829.16" x2="674.59" y2="829.16"/>
      <line class="st3" x1="725.47" y1="829.16" x2="725.47" y2="761.16"/>
      <path class="st3" d="M684.94,749.01h.9"/>
      <path class="st3" d="M684.04,749.01h.9"/>
      <path class="st3" d="M683.59,748.56q0,.45.45.45"/>
      <path class="st3" d="M691.7,748.56c-.45-.9-1.35-1.35-2.25-1.35"/>
      <path class="st3" d="M689.45,747.21c-1.35.45-2.7,1.35-3.6,1.8"/>
      <path class="st3" d="M691.7,749.91c.45-.45.45-.9,0-1.35"/>
      <path class="st3" d="M691.7,749.91c-4.5,2.25-8.11,6.3-9.91,11.26"/>
      <path class="st3" d="M714.21,749.01h.9"/>
      <path class="st3" d="M715.11,749.01h.9"/>
      <path class="st3" d="M716.01,749.01q.45,0,.45-.45"/>
      <path class="st3" d="M711.06,747.21c-1.35,0-2.25.45-2.7,1.35"/>
      <path class="st3" d="M714.21,749.01c-.9-.45-2.25-1.35-3.15-1.8"/>
    </g>
    <rect class="st7" x="691.26" y="744.49" width="67.99" height="101.35" transform="translate(-69.9 1520.42) rotate(-90)"/>
    <rect class="st0" x="752.88" y="1012.17" width="92.5" height="31.52" transform="translate(-228.8 1827.06) rotate(-90)"/>
    <rect class="st8" x="752.24" y="725.85" width="92.31" height="32.98" transform="translate(56.06 1540.74) rotate(-90)"/>
    <rect class="st6" x="716.3" y="688.86" width="184.62" height="14.65" transform="translate(112.42 1504.79) rotate(-90)"/>
    <g>
      <line class="st2" x1="812.89" y1="704.29" x2="812.89" y2="779.04"/>
      <line class="st2" x1="808.84" y1="779.04" x2="808.84" y2="704.29"/>
      <line class="st2" x1="807.03" y1="779.04" x2="807.03" y2="704.29"/>
      <line class="st2" x1="813.79" y1="787.15" x2="801.18" y2="787.15"/>
      <line class="st2" x1="807.03" y1="779.04" x2="813.79" y2="779.04"/>
      <line class="st2" x1="807.03" y1="782.64" x2="807.03" y2="779.04"/>
      <line class="st2" x1="801.18" y1="782.64" x2="807.03" y2="782.64"/>
      <line class="st2" x1="807.03" y1="700.69" x2="801.18" y2="700.69"/>
      <line class="st2" x1="807.03" y1="704.29" x2="807.03" y2="700.69"/>
      <line class="st2" x1="813.79" y1="704.29" x2="807.03" y2="704.29"/>
      <line class="st2" x1="813.79" y1="696.19" x2="813.79" y2="704.29"/>
      <line class="st2" x1="801.18" y1="696.19" x2="813.79" y2="696.19"/>
      <line class="st2" x1="813.79" y1="787.15" x2="813.79" y2="698.89"/>
      <line class="st2" x1="812.89" y1="690.78" x2="808.84" y2="690.78"/>
      <line class="st2" x1="812.89" y1="608.83" x2="812.89" y2="690.78"/>
      <line class="st2" x1="808.84" y1="690.78" x2="808.84" y2="608.83"/>
      <line class="st2" x1="813.79" y1="690.78" x2="813.79" y2="604.33"/>
      <line class="st2" x1="813.79" y1="695.29" x2="801.18" y2="695.29"/>
      <line class="st2" x1="813.79" y1="690.78" x2="813.79" y2="695.29"/>
      <line class="st2" x1="801.18" y1="690.78" x2="813.79" y2="690.78"/>
      <line class="st2" x1="813.79" y1="608.83" x2="801.18" y2="608.83"/>
      <line class="st2" x1="801.18" y1="604.33" x2="813.79" y2="604.33"/>
    </g>
  </g>
</svg>