<?xml version="1.0" encoding="UTF-8"?>
<svg xmlns="http://www.w3.org/2000/svg" version="1.1" viewBox="0 0 1200 1697.14">
  <!-- Generator: Adobe Illustrator 29.6.0, SVG Export Plug-In . SVG Version: 2.1.1 Build 207)  -->
  <defs>
    <style>
      .st0 {
        fill: #302c35;
      }

      .st1 {
        fill: #ece8e5;
      }

      .st2, .st3 {
        fill: none;
      }

      .st2, .st3, .st4 {
        stroke-linecap: round;
        stroke-linejoin: round;
        stroke-width: .15px;
      }

      .st2, .st4 {
        stroke: #0c1020;
      }

      .st5 {
        fill: #3f3f3e;
        stroke: #000;
        stroke-miterlimit: 10;
        stroke-width: .15px;
      }

      .st6, .st4 {
        fill: #fff;
      }

      .st3 {
        stroke: #100f0d;
      }

      .st7 {
        fill: #e9e9e9;
      }
    </style>
  </defs>
  <g id="sfondo">
    <g>
      <polygon class="st1" points="474.59 591.23 786.65 549.36 786.65 554.76 796.11 554.76 796.11 625.01 786.65 625.01 756.03 625.01 756.03 570.52 612.84 589.71 612.84 609.7 606.53 609.7 606.53 590.55 483.15 607.08 483.15 646.17 606.53 646.17 606.53 643.47 612.84 643.47 612.84 646.17 612.84 660.13 612.84 661.03 606.53 661.03 606.53 660.13 606.53 651.12 606.53 649.77 483.15 649.77 483.15 652.02 483.15 789.36 606.53 789.36 606.53 737.58 606.53 736.68 612.84 736.68 612.84 737.58 612.84 799.72 606.53 799.72 483.15 799.72 483.15 965.88 483.15 966.78 466.04 966.78 466.04 965.88 466.04 950.57 474.14 942.02 474.59 591.23"/>
      <polygon class="st1" points="796.11 1095.57 796.11 1196.43 796.11 1233.81 765.04 1233.81 647.51 1233.81 466.04 1233.81 466.04 1050.54 466.04 966.78 483.15 966.78 483.15 965.88 483.15 799.72 606.53 799.72 612.84 799.72 612.84 737.58 612.84 736.68 606.53 736.68 606.53 737.58 606.53 789.36 483.15 789.36 483.15 652.02 483.15 649.77 606.53 649.77 606.53 651.12 606.53 660.13 606.53 661.03 612.84 661.03 612.84 660.13 612.84 646.17 612.84 643.47 606.53 643.47 606.53 646.17 483.15 646.17 483.15 607.08 606.53 590.55 606.53 609.7 612.84 609.7 612.84 589.71 756.03 570.52 756.03 625.01 786.65 625.01 787.55 718.22 756.03 718.22 756.03 722.27 756.03 804.67 756.03 808.73 756.03 809.63 756.03 819.08 756.03 910.94 786.65 910.94 796.11 910.94 796.11 1095.57"/>
      <polygon class="st1" points="787.55 809.63 796.11 809.63 796.11 890.68 796.11 905.54 796.11 910.94 786.65 910.94 756.03 910.94 756.03 819.08 756.03 809.63 756.03 808.73 756.03 804.67 756.03 722.27 756.03 718.22 787.55 718.22 787.55 722.27 787.55 804.67 787.55 808.73 787.55 809.63"/>
    </g>
  </g>
  <g id="numeri">
    <g>
      <g>
        <g>
          <g>
            <polygon class="st6" points="655.01 1136.95 655.45 1136.95 655.45 1214.46 507.18 1214.46 507.66 1213.48 655.01 1213.48 655.01 1136.95"/>
            <path class="st6" d="M545.53,1136.95h109.48v76.53h-147.35l8.42-17.01c7.56-15.28,12.4-25.06,15.5-31.33l.77-1.56c1.1-2.22,1.94-3.93,2.59-5.24l.41-.82c.25-.51.47-.94.65-1.32l.24-.47c.63-1.29.81-1.64.85-1.73l.02-.04,8.42-17.01Z"/>
            <path class="st6" d="M484.93,1136.95h60.6l-8.42,17.01h-30.18c-1.93,0-3.5,1.56-3.5,3.5v35.51c0,1.94,1.57,3.5,3.5,3.5h9.15l-8.42,17.01h-22.73v-76.53Z"/>
            <path class="st6" d="M506.93,1153.96h30.18l-.02.04c-.04.09-.22.44-.85,1.73-.08.14-.15.3-.24.47-.18.38-.4.81-.65,1.32-.13.25-.26.52-.41.82-.65,1.31-1.49,3.02-2.59,5.24-.24.49-.5,1.01-.77,1.56-3.1,6.27-7.94,16.05-15.5,31.33h-9.15c-1.93,0-3.5-1.56-3.5-3.5v-35.51c0-1.94,1.57-3.5,3.5-3.5Z"/>
          </g>
          <g>
            <polyline class="st2" points="507.66 1213.48 484.93 1213.48 484.93 1136.95 545.53 1136.95"/>
            <polyline class="st2" points="516.08 1196.47 507.66 1213.48 507.18 1214.46 655.45 1214.46 655.45 1136.95 655.01 1136.95 545.53 1136.95 537.11 1153.96 537.09 1154"/>
            <line class="st2" x1="532.35" y1="1163.58" x2="531.58" y2="1165.14"/>
            <line class="st2" x1="535.35" y1="1157.52" x2="534.94" y2="1158.34"/>
            <line class="st2" x1="536.24" y1="1155.73" x2="536" y2="1156.2"/>
            <line class="st2" x1="503.43" y1="1192.97" x2="503.43" y2="1157.46"/>
            <path class="st2" d="M503.43,1157.46c0-1.94,1.57-3.5,3.5-3.5"/>
            <path class="st2" d="M506.93,1196.47c-1.93,0-3.5-1.56-3.5-3.5"/>
            <path class="st2" d="M506.93,1196.47h9.15c7.56-15.28,12.4-25.06,15.5-31.33.27-.55.53-1.07.77-1.56,1.1-2.22,1.94-3.93,2.59-5.24.15-.3.28-.57.41-.82.25-.51.47-.94.65-1.32.09-.17.16-.33.24-.47.63-1.29.81-1.64.85-1.73l.02-.04h-30.18"/>
          </g>
        </g>
        <g id="POLYLINE">
          <polygon class="st2" points="507.17 1214.46 655.45 1214.46 655.45 1136.95 545.53 1136.95 507.17 1214.46"/>
        </g>
        <g id="POLYLINE1" data-name="POLYLINE">
          <polygon class="st2" points="507.17 1214.46 655.45 1214.46 655.45 1136.95 545.53 1136.95 507.17 1214.46"/>
        </g>
      </g>
      <line class="st2" x1="506.93" y1="1153.96" x2="537.11" y2="1153.96"/>
    </g>
    <g>
      <rect class="st6" x="483.26" y="800.42" width="55.54" height="55.15" transform="translate(1022.07 1656) rotate(180)"/>
      <line class="st3" x1="483.26" y1="800.42" x2="483.26" y2="801.6"/>
      <line class="st3" x1="483.26" y1="804.33" x2="483.26" y2="807.07"/>
      <line class="st3" x1="483.26" y1="809.81" x2="483.26" y2="812.55"/>
      <line class="st3" x1="483.26" y1="815.29" x2="483.26" y2="818.42"/>
      <line class="st3" x1="483.26" y1="821.15" x2="483.26" y2="823.89"/>
      <line class="st3" x1="483.26" y1="826.63" x2="483.26" y2="829.37"/>
      <line class="st3" x1="483.26" y1="832.11" x2="483.26" y2="834.84"/>
      <line class="st3" x1="483.26" y1="837.58" x2="483.26" y2="840.32"/>
      <line class="st3" x1="483.26" y1="843.06" x2="483.26" y2="845.79"/>
      <line class="st3" x1="483.26" y1="848.92" x2="483.26" y2="851.66"/>
      <line class="st3" x1="483.26" y1="854.4" x2="483.26" y2="855.57"/>
      <line class="st3" x1="483.26" y1="855.57" x2="484.83" y2="855.57"/>
      <line class="st3" x1="487.57" y1="855.57" x2="490.3" y2="855.57"/>
      <line class="st3" x1="493.04" y1="855.57" x2="495.78" y2="855.57"/>
      <line class="st3" x1="498.52" y1="855.57" x2="501.25" y2="855.57"/>
      <line class="st3" x1="503.99" y1="855.57" x2="506.73" y2="855.57"/>
      <line class="st3" x1="509.47" y1="855.57" x2="512.6" y2="855.57"/>
      <line class="st3" x1="515.34" y1="855.57" x2="518.07" y2="855.57"/>
      <line class="st3" x1="520.81" y1="855.57" x2="523.55" y2="855.57"/>
      <line class="st3" x1="526.29" y1="855.57" x2="529.03" y2="855.57"/>
      <line class="st3" x1="531.76" y1="855.57" x2="534.5" y2="855.57"/>
      <line class="st3" x1="537.24" y1="855.57" x2="538.8" y2="855.57"/>
      <line class="st3" x1="538.8" y1="855.57" x2="538.8" y2="854.4"/>
      <line class="st3" x1="538.8" y1="851.66" x2="538.8" y2="848.92"/>
      <line class="st3" x1="538.8" y1="845.79" x2="538.8" y2="843.06"/>
      <line class="st3" x1="538.8" y1="840.32" x2="538.8" y2="837.58"/>
      <line class="st3" x1="538.8" y1="834.84" x2="538.8" y2="832.11"/>
      <line class="st3" x1="538.8" y1="829.37" x2="538.8" y2="826.63"/>
      <line class="st3" x1="538.8" y1="823.89" x2="538.8" y2="821.15"/>
      <line class="st3" x1="538.8" y1="818.42" x2="538.8" y2="815.29"/>
      <line class="st3" x1="538.8" y1="812.55" x2="538.8" y2="809.81"/>
      <line class="st3" x1="538.8" y1="807.07" x2="538.8" y2="804.33"/>
      <line class="st3" x1="538.8" y1="801.6" x2="538.8" y2="800.42"/>
      <path class="st3" d="M483.26,855.57"/>
      <line class="st3" x1="483.26" y1="855.57" x2="483.26" y2="854.4"/>
      <line class="st3" x1="483.26" y1="851.66" x2="483.26" y2="848.92"/>
      <line class="st3" x1="483.26" y1="845.79" x2="483.26" y2="843.06"/>
      <line class="st3" x1="483.26" y1="840.32" x2="483.26" y2="837.58"/>
      <line class="st3" x1="483.26" y1="834.84" x2="483.26" y2="832.11"/>
      <line class="st3" x1="483.26" y1="829.37" x2="483.26" y2="826.63"/>
      <line class="st3" x1="483.26" y1="823.89" x2="483.26" y2="821.15"/>
      <line class="st3" x1="483.26" y1="818.42" x2="483.26" y2="815.29"/>
      <line class="st3" x1="483.26" y1="812.55" x2="483.26" y2="809.81"/>
      <line class="st3" x1="483.26" y1="807.07" x2="483.26" y2="804.33"/>
      <line class="st3" x1="483.26" y1="801.6" x2="483.26" y2="800.42"/>
    </g>
  </g>
  <g id="bianchi">
    <g id="LINE">
      <path class="st6" d="M537.88,649.77v24.72c0,9.52-6.83,17.22-15.29,17.22s-15.28-7.7-15.28-17.22v-24.72h30.57Z"/>
    </g>
    <rect class="st6" x="700.26" y="985.63" width="184.62" height="35.24" transform="translate(-210.69 1795.82) rotate(-90)"/>
    <rect class="st6" x="741.62" y="657.88" width="93.66" height="27.02" transform="translate(117.07 1459.84) rotate(-90)"/>
    <rect class="st6" x="480.06" y="720.08" width="69.89" height="72.38" transform="translate(-241.27 1271.27) rotate(-90)"/>
    <rect class="st6" x="570.29" y="633.79" width="1.8" height="37.37" transform="translate(-81.29 1223.66) rotate(-90)"/>
    <rect class="st6" x="569.65" y="636.31" width="3.52" height="27.02" transform="translate(-78.41 1221.23) rotate(-90)"/>
    <g>
      <polygon class="st6" points="661.55 626.96 629.05 631.31 623.2 588.98 724.52 575.47 729.92 617.8 697.92 622.09 661.55 626.96"/>
      <path class="st6" d="M661.55,626.96l36.37-4.87.03.21c-1.35,4.96-4.05,9.46-8.56,12.61-.45,0-.45.9,0,1.35.45.9,1.81.9,2.71.9,1.35-.9,2.25-1.35,3.15-2.25q.45-.45.9-.45h.9c.45,0,.45.45.45.45-8.56,8.56-22.06,10.36-32.87,4.5,0-.45.45-.45.45-.45.45-.45.9-.45.9-.45h.9l4.05,1.35c.9,0,1.8-.45,2.25-1.8,0-.45,0-.9-.45-.9-4.9-1.78-8.92-5.33-11.18-10.2Z"/>
    </g>
    <g>
      <path class="st6" d="M560.15,760.58h37.37c.36,0,.66.49.66,1.11v27.68h-38.85v-27.68c0-.62.36-1.11.82-1.11ZM596.69,761.69h-35.72c-.45,0-.82.5-.82,1.11v16.23c0,.61.37,1.11.82,1.11h35.72c.46,0,.83-.5.83-1.11v-16.23c0-.61-.37-1.11-.83-1.11ZM578.83,782.87c-1.21,0-2.2.99-2.2,2.21s.99,2.2,2.2,2.2,2.21-.98,2.21-2.2-.99-2.21-2.21-2.21Z"/>
      <path class="st6" d="M560.97,761.69h35.72c.46,0,.83.5.83,1.11v16.23c0,.61-.37,1.11-.83,1.11h-35.72c-.45,0-.82-.5-.82-1.11v-16.23c0-.61.37-1.11.82-1.11ZM578.83,767.69c-1.62,0-2.93,1.32-2.93,2.94s1.31,2.93,2.93,2.93,2.94-1.31,2.94-2.93-1.32-2.94-2.94-2.94Z"/>
      <path class="st6" d="M575.9,770.63c0-1.62,1.31-2.94,2.93-2.94s2.94,1.32,2.94,2.94-1.32,2.93-2.94,2.93-2.93-1.31-2.93-2.93ZM578.83,769.05c-.87,0-1.57.7-1.57,1.58s.7,1.57,1.57,1.57,1.58-.7,1.58-1.57-.71-1.58-1.58-1.58Z"/>
      <path class="st6" d="M577.26,770.63c0-.88.7-1.58,1.57-1.58s1.58.7,1.58,1.58-.71,1.57-1.58,1.57-1.57-.7-1.57-1.57Z"/>
      <path class="st6" d="M576.63,785.08c0-1.22.99-2.21,2.2-2.21s2.21.99,2.21,2.21-.99,2.2-2.21,2.2-2.2-.98-2.2-2.2Z"/>
    </g>
    <rect class="st6" x="430.97" y="999.36" width="87.25" height="17.11" transform="translate(-533.31 1482.51) rotate(-90)"/>
  </g>
  <g id="Default">
    <polyline class="st2" points="483.15 1044.68 483.15 1048.29 561.51 1048.29"/>
    <path class="st2" d="M561.51,1048.29c0-21.16-8.11-40.98-22.97-55.84-14.86-14.86-34.67-22.97-55.39-22.97"/>
    <line class="st2" x1="483.15" y1="1048.29" x2="561.51" y2="1048.29"/>
    <line class="st2" x1="483.15" y1="1044.68" x2="483.15" y2="1048.29"/>
    <line class="st2" x1="483.15" y1="1044.68" x2="483.15" y2="969.48"/>
    <line class="st2" x1="612.84" y1="642.57" x2="610.59" y2="642.57"/>
    <line class="st2" x1="612.84" y1="610.6" x2="612.84" y2="642.57"/>
    <line class="st2" x1="610.59" y1="610.6" x2="612.84" y2="610.6"/>
    <line class="st2" x1="610.59" y1="642.57" x2="610.59" y2="610.6"/>
    <path class="st2" d="M612.84,733.98c18.46,0,36.47-7.2,49.53-20.71,13.06-13.06,20.26-30.62,20.26-49.53"/>
    <line class="st2" x1="612.84" y1="667.33" x2="612.84" y2="663.73"/>
    <line class="st2" x1="612.84" y1="663.73" x2="682.64" y2="663.73"/>
    <line class="st2" x1="612.84" y1="667.33" x2="612.84" y2="733.98"/>
    <g>
      <rect class="st6" x="560.28" y="775.75" width="59.19" height="101.77" transform="translate(-236.75 1416.5) rotate(-90)"/>
      <line class="st2" x1="618.03" y1="817.46" x2="630.22" y2="817.46"/>
      <line class="st2" x1="618.03" y1="840.38" x2="630.22" y2="840.38"/>
      <line class="st2" x1="624.04" y1="834.36" x2="624.04" y2="846.55"/>
      <line class="st2" x1="624.04" y1="811.29" x2="624.04" y2="823.48"/>
      <rect class="st2" x="611.04" y="805.93" width="26.81" height="45.99"/>
      <rect class="st2" x="551.22" y="813.19" width="31.01" height="31.01"/>
      <rect class="st2" x="543.51" y="805.48" width="46.6" height="46.44"/>
      <line class="st2" x1="566.81" y1="820.69" x2="566.81" y2="808.22"/>
      <rect class="st2" x="538.99" y="800.97" width="101.75" height="55.25"/>
    </g>
    <line class="st2" x1="606.54" y1="646.17" x2="483.15" y2="607.08"/>
    <line class="st2" x1="517.17" y1="789.36" x2="517.17" y2="770.46"/>
    <circle class="st2" cx="517.26" cy="770.55" r="4.23" transform="translate(-163.2 139.46) rotate(-13.28)"/>
    <circle class="st2" cx="517.26" cy="770.55" r="4.23" transform="translate(-163.2 139.46) rotate(-13.28)"/>
    <line class="st2" x1="550.07" y1="721.32" x2="483.75" y2="721.32"/>
    <line class="st2" x1="483.15" y1="722.45" x2="483.15" y2="788.77"/>
    <line class="st2" x1="484.28" y1="789.36" x2="550.6" y2="789.36"/>
    <line class="st2" x1="551.19" y1="788.24" x2="551.19" y2="721.92"/>
    <polyline class="st2" points="550.07 721.32 551.19 721.32 551.19 721.92"/>
    <polyline class="st2" points="551.19 788.24 551.19 789.36 550.6 789.36"/>
    <polyline class="st2" points="484.28 789.36 483.15 789.36 483.15 788.77"/>
    <polyline class="st2" points="483.15 722.45 483.15 721.32 483.75 721.32"/>
    <line class="st2" x1="569.14" y1="760.55" x2="587.6" y2="760.55"/>
    <line class="st2" x1="559.24" y1="780.81" x2="559.24" y2="770.46"/>
    <line class="st2" x1="587.6" y1="760.55" x2="569.14" y2="760.55"/>
    <line class="st2" x1="559.24" y1="770.46" x2="559.24" y2="780.81"/>
    <line class="st2" x1="587.6" y1="760.55" x2="569.14" y2="760.55"/>
    <line class="st2" x1="559.24" y1="770.46" x2="559.24" y2="780.81"/>
    <line class="st2" x1="569.14" y1="760.55" x2="587.6" y2="760.55"/>
    <line class="st2" x1="559.24" y1="780.81" x2="559.24" y2="770.46"/>
    <line class="st2" x1="587.6" y1="760.55" x2="569.14" y2="760.55"/>
    <line class="st2" x1="559.24" y1="770.46" x2="559.24" y2="780.81"/>
    <line class="st2" x1="587.6" y1="760.55" x2="569.14" y2="760.55"/>
    <line class="st2" x1="559.24" y1="770.46" x2="559.24" y2="780.81"/>
    <path class="st2" d="M598.09,789.36v-27.68c0-.62-.29-1.11-.66-1.11h-37.37c-.45,0-.82.49-.82,1.11v27.68"/>
    <path class="st2" d="M597.43,779.02v-16.22c0-.62-.37-1.11-.82-1.11h-35.72c-.45,0-.82.5-.82,1.11v16.22c0,.61.37,1.11.82,1.11h35.72c.45,0,.82-.5.82-1.11Z"/>
    <path class="st2" d="M577.17,770.62c0-.87.71-1.58,1.58-1.58s1.58.71,1.58,1.58-.71,1.58-1.58,1.58-1.58-.71-1.58-1.58Z"/>
    <circle class="st2" cx="578.75" cy="770.62" r="2.93" transform="translate(-304.23 1156.83) rotate(-76.72)"/>
    <circle class="st2" cx="578.75" cy="785.07" r="2.2"/>
    <line class="st2" x1="483.15" y1="646.17" x2="606.54" y2="590.55"/>
    <line class="st2" x1="589.87" y1="653.37" x2="552.5" y2="653.37"/>
    <line class="st2" x1="552.5" y1="653.37" x2="552.5" y2="651.57"/>
    <line class="st2" x1="552.5" y1="651.57" x2="589.87" y2="651.57"/>
    <line class="st2" x1="589.87" y1="651.57" x2="589.87" y2="653.37"/>
    <line class="st2" x1="584.92" y1="651.57" x2="584.92" y2="649.77"/>
    <line class="st2" x1="557.9" y1="649.77" x2="557.9" y2="651.57"/>
    <path class="st2" d="M537.59,649.77v24.72c0,9.52-6.84,17.22-15.29,17.22s-15.29-7.7-15.29-17.22v-24.72h30.58Z"/>
    <line class="st2" x1="502.07" y1="637.65" x2="502.07" y2="637.61"/>
    <polyline class="st2" points="682.64 663.73 612.84 663.73 612.84 667.33"/>
    <line class="st2" x1="787.55" y1="911.85" x2="787.55" y2="916.35"/>
    <line class="st2" x1="786.65" y1="1086.56" x2="782.6" y2="1086.56"/>
    <line class="st2" x1="782.6" y1="1011.81" x2="786.65" y2="1011.81"/>
    <line class="st2" x1="774.95" y1="1007.76" x2="774.95" y2="1090.16"/>
    <line class="st2" x1="787.55" y1="1086.56" x2="787.55" y2="1011.81"/>
    <line class="st2" x1="787.55" y1="1094.67" x2="774.95" y2="1094.67"/>
    <line class="st2" x1="787.55" y1="1086.56" x2="787.55" y2="1094.67"/>
    <line class="st2" x1="787.55" y1="1003.71" x2="787.55" y2="1011.81"/>
    <line class="st2" x1="774.95" y1="1007.76" x2="774.95" y2="1003.71"/>
    <line class="st2" x1="787.55" y1="1003.71" x2="787.55" y2="1094.67"/>
    <line class="st2" x1="787.55" y1="1092.41" x2="787.55" y2="1005.96"/>
    <line class="st2" x1="787.55" y1="1011.81" x2="787.55" y2="1086.56"/>
    <line class="st2" x1="787.55" y1="1086.56" x2="787.55" y2="1011.81"/>
    <line class="st2" x1="786.65" y1="998.3" x2="782.6" y2="998.3"/>
    <line class="st2" x1="782.6" y1="916.35" x2="786.65" y2="916.35"/>
    <line class="st2" x1="774.95" y1="916.35" x2="774.95" y2="998.3"/>
    <line class="st2" x1="787.55" y1="998.3" x2="787.55" y2="916.35"/>
    <line class="st2" x1="787.55" y1="998.3" x2="787.55" y2="1002.81"/>
    <line class="st2" x1="774.95" y1="1002.81" x2="774.95" y2="998.3"/>
    <g>
      <line class="st2" x1="774.95" y1="911.85" x2="787.55" y2="911.85"/>
      <line class="st2" x1="786.65" y1="1011.81" x2="786.65" y2="1086.56"/>
      <line class="st2" x1="782.6" y1="1086.56" x2="782.6" y2="1011.81"/>
      <line class="st2" x1="780.8" y1="1086.56" x2="780.8" y2="1011.81"/>
      <line class="st2" x1="780.8" y1="1086.56" x2="787.55" y2="1086.56"/>
      <line class="st2" x1="780.8" y1="1090.16" x2="780.8" y2="1086.56"/>
      <line class="st2" x1="774.95" y1="1090.16" x2="780.8" y2="1090.16"/>
      <line class="st2" x1="774.95" y1="1094.67" x2="774.95" y2="1090.16"/>
      <line class="st2" x1="780.8" y1="1007.76" x2="774.95" y2="1007.76"/>
      <line class="st2" x1="780.8" y1="1011.81" x2="780.8" y2="1007.76"/>
      <line class="st2" x1="787.55" y1="1011.81" x2="780.8" y2="1011.81"/>
      <line class="st2" x1="774.95" y1="1003.71" x2="787.55" y2="1003.71"/>
      <line class="st2" x1="787.55" y1="1091.96" x2="787.55" y2="1006.41"/>
      <line class="st2" x1="786.65" y1="916.35" x2="786.65" y2="998.3"/>
      <line class="st2" x1="782.6" y1="998.3" x2="782.6" y2="916.35"/>
      <line class="st2" x1="787.55" y1="1002.81" x2="774.95" y2="1002.81"/>
      <line class="st2" x1="774.95" y1="998.3" x2="787.55" y2="998.3"/>
      <line class="st2" x1="787.55" y1="916.35" x2="774.95" y2="916.35"/>
    </g>
    <line class="st2" x1="774.95" y1="916.35" x2="774.95" y2="911.85"/>
    <line class="st2" x1="782.6" y1="634.01" x2="782.6" y2="709.21"/>
    <line class="st2" x1="782.6" y1="709.21" x2="786.65" y2="709.21"/>
    <line class="st2" x1="786.65" y1="709.21" x2="786.65" y2="634.01"/>
    <line class="st2" x1="786.65" y1="634.01" x2="782.6" y2="634.01"/>
    <line class="st2" x1="774.95" y1="712.81" x2="774.95" y2="630.41"/>
    <line class="st2" x1="787.55" y1="634.01" x2="787.55" y2="709.21"/>
    <line class="st2" x1="780.8" y1="634.01" x2="780.8" y2="709.21"/>
    <line class="st2" x1="774.95" y1="712.81" x2="774.95" y2="716.87"/>
    <line class="st2" x1="774.95" y1="716.87" x2="787.55" y2="716.87"/>
    <line class="st2" x1="787.55" y1="716.87" x2="787.55" y2="709.21"/>
    <line class="st2" x1="787.55" y1="709.21" x2="780.8" y2="709.21"/>
    <line class="st2" x1="780.8" y1="709.21" x2="780.8" y2="712.81"/>
    <line class="st2" x1="780.8" y1="712.81" x2="774.95" y2="712.81"/>
    <line class="st2" x1="774.95" y1="626.36" x2="774.95" y2="630.41"/>
    <line class="st2" x1="774.95" y1="630.41" x2="780.8" y2="630.41"/>
    <line class="st2" x1="780.8" y1="630.41" x2="780.8" y2="634.01"/>
    <line class="st2" x1="780.8" y1="634.01" x2="787.55" y2="634.01"/>
    <line class="st2" x1="787.55" y1="634.01" x2="787.55" y2="626.36"/>
    <line class="st2" x1="787.55" y1="626.36" x2="774.95" y2="626.36"/>
    <line class="st2" x1="787.55" y1="716.87" x2="787.55" y2="626.36"/>
    <line class="st2" x1="787.55" y1="628.16" x2="787.55" y2="715.07"/>
    <line class="st2" x1="787.55" y1="628.61" x2="787.55" y2="714.16"/>
    <line class="st2" x1="787.55" y1="709.21" x2="787.55" y2="634.01"/>
    <line class="st2" x1="787.55" y1="634.01" x2="787.55" y2="709.21"/>
    <line class="st2" x1="774.95" y1="718.22" x2="774.95" y2="716.87"/>
    <line class="st2" x1="774.95" y1="626.36" x2="774.95" y2="625.01"/>
    <line class="st2" x1="612.84" y1="667.33" x2="612.84" y2="733.98"/>
    <line class="st2" x1="483.15" y1="969.48" x2="483.15" y2="1044.68"/>
    <line class="st2" x1="774.95" y1="1095.57" x2="774.95" y2="1094.67"/>
    <line class="st2" x1="774.95" y1="1003.71" x2="774.95" y2="1002.81"/>
    <line class="st2" x1="774.95" y1="911.85" x2="774.95" y2="910.94"/>
    <line class="st2" x1="612.84" y1="609.7" x2="612.84" y2="610.6"/>
    <line class="st2" x1="612.84" y1="642.57" x2="612.84" y2="643.47"/>
    <line class="st2" x1="606.54" y1="643.47" x2="606.54" y2="609.7"/>
    <path class="st2" d="M696.14,634.46q-.45,0-.9.45"/>
    <path class="st2" d="M697.05,634.46h-.9"/>
    <path class="st2" d="M697.5,634.91s0-.45-.45-.45"/>
    <path class="st2" d="M689.39,636.26c.45.9,1.8.9,2.7.9"/>
    <path class="st2" d="M692.09,637.16c1.35-.9,2.25-1.35,3.15-2.25"/>
    <path class="st2" d="M689.39,634.91c-.45,0-.45.9,0,1.35"/>
    <path class="st2" d="M689.39,634.91c4.5-3.15,7.2-7.66,8.56-12.61"/>
    <path class="st2" d="M666.88,638.51h-.9"/>
    <path class="st2" d="M665.97,638.51s-.45,0-.9.45"/>
    <path class="st2" d="M665.07,638.96s-.45,0-.45.45"/>
    <path class="st2" d="M670.93,639.87c.9,0,1.8-.45,2.25-1.8"/>
    <line class="st2" x1="666.88" y1="638.51" x2="670.93" y2="639.87"/>
    <path class="st2" d="M673.18,638.06c0-.45,0-.9-.45-.9"/>
    <path class="st2" d="M661.47,626.81c2.25,4.95,6.3,8.56,11.26,10.36"/>
    <path class="st2" d="M664.62,639.42c10.81,5.85,24.32,4.05,32.87-4.5"/>
    <line class="st2" x1="729.92" y1="617.8" x2="724.51" y2="575.47"/>
    <line class="st2" x1="724.51" y1="575.47" x2="623.2" y2="588.98"/>
    <line class="st2" x1="623.2" y1="588.98" x2="629.05" y2="631.31"/>
    <line class="st2" x1="629.05" y1="631.31" x2="729.92" y2="617.8"/>
    <g>
      <g>
        <path class="st6" d="M654.95,912.97v.45l-.9.9-.45.45c-1.36.45-2.71.45-4.06.9-.45.9-.9,1.8-.9,3.16.45.45.9.45,1.35.45,4.87-1.34,10.17-.93,15.05,1.24-5.67,2.37-10.93,5.9-15.5,10.46-4.45,4.46-7.93,9.9-10.24,15.8l-.11-.04c-2.26-4.95-2.71-10.35-1.35-15.31.45-.45,0-.9-.45-1.35-.91,0-2.26,0-2.71.9l-1.35,4.06-.45.45-.9.9s-.45,0-.45-.45c1.8-11.71,11.26-21.17,23.42-22.97Z"/>
        <path class="st6" d="M710.33,913.42v-.45c12.16,1.8,21.62,11.26,23.42,22.97,0,.45-.45.45-.45.45l-.9-.9-.45-.45-1.35-4.06c-.45-.9-1.8-.9-2.71-.9-.45.45-.9.9-.45,1.35,1.36,4.96.91,10.36-1.35,15.31l-.11.04c-2.31-5.9-5.79-11.34-10.24-15.8-4.56-4.56-9.81-8.08-15.53-10.45,4.89-2.17,10.2-2.59,15.08-1.25.45,0,.9,0,1.35-.45,0-1.36-.45-2.26-.9-3.16-1.35-.45-2.7-.45-4.06-.9l-.45-.45-.9-.9Z"/>
        <path class="st6" d="M670.11,1008.99c-7.59-2.14-14.66-6.2-20.57-11.81-3.47-3.65-6.34-7.74-8.53-12.17-3.23-6.48-4.98-13.66-4.98-21.16,0-5.82,1.14-11.64,3.27-17.07,2.31-5.9,5.79-11.34,10.24-15.8,4.57-4.56,9.83-8.09,15.5-10.46,5.5-2.3,11.39-3.5,17.37-3.5s12.24,1.21,17.8,3.51c5.72,2.37,10.97,5.89,15.53,10.45,4.45,4.46,7.93,9.9,10.24,15.8,2.13,5.43,3.27,11.25,3.27,17.07,0,7.5-1.75,14.68-4.98,21.16-2.19,4.43-5.06,8.52-8.53,12.17-5.88,5.58-12.92,9.64-20.61,11.78-4.08,1.13-8.34,1.73-12.72,1.73s-8.31-.59-12.3-1.7Z"/>
        <path class="st6" d="M724.27,985.01h.02c2.25,4.51,2.7,9.92,1.35,15.32,0,.45,0,.9.45.9,1.35.45,2.26,0,3.16-.9.45-1.35.45-2.7.9-3.6,0-.45.45-.45.45-.9.45,0,.45-.45.9-.45h.45c-1.8,12.15-11.26,21.16-22.97,23.41q-.45-.45-.45-.9c.45,0,.45-.45.9-.45,0-.45.45-.45.45-.9,1.35,0,2.7-.45,4.06-.9.9-.9.9-1.8.9-2.7-.45-.45-.9-.9-1.35-.9-6.27,1.79-12.97.91-18.36-3.08,7.69-2.14,14.73-6.2,20.61-11.78,3.47-3.65,6.34-7.74,8.53-12.17Z"/>
        <path class="st6" d="M640.99,985.02h.02c2.19,4.42,5.06,8.51,8.53,12.16,5.91,5.61,12.98,9.67,20.57,11.81-5.38,3.97-12.07,4.83-18.32,3.05-.45,0-.9.45-1.35.9,0,.9,0,1.8.9,2.7,1.36.45,2.71.9,4.06.9,0,.45.45.45.45.9.45,0,.45.45.9.45q0,.45-.45.9c-11.71-2.25-21.17-11.26-22.97-23.41h.45c.45,0,.45.45.9.45,0,.45.45.45.45.9.45.9.45,2.25.9,3.6.9.9,1.81,1.35,3.16.9.45,0,.45-.45.45-.9-1.35-5.4-.9-10.81,1.35-15.31Z"/>
      </g>
      <path class="st2" d="M726.09,1001.23c1.35.45,2.25,0,3.15-.9"/>
      <path class="st2" d="M729.24,1000.33c.45-1.35.45-2.7.9-3.6"/>
      <path class="st2" d="M725.64,1000.33c0,.45,0,.9.45.9"/>
      <path class="st2" d="M709.88,1016.54c0,.45-.45.45-.45.9"/>
      <path class="st2" d="M709.43,1017.44c-.45,0-.45.45-.9.45"/>
      <path class="st2" d="M708.53,1017.89q0,.45.45.9"/>
      <path class="st2" d="M713.93,1015.64c.9-.9.9-1.8.9-2.7"/>
      <path class="st2" d="M709.88,1016.54c1.35,0,2.7-.45,4.05-.9"/>
      <path class="st2" d="M714.83,1012.94c-.45-.45-.9-.9-1.35-.9"/>
      <path class="st2" d="M695.02,1008.88c5.4,4.05,12.16,4.95,18.46,3.15"/>
      <path class="st2" d="M708.98,1018.79c11.71-2.25,21.16-11.26,22.97-23.42"/>
      <path class="st2" d="M726.09,946.74c2.25-4.95,2.7-10.36,1.35-15.31"/>
      <line class="st2" x1="731.94" y1="935.04" x2="732.39" y2="935.49"/>
      <path class="st2" d="M732.39,935.49l.9.9"/>
      <path class="st2" d="M733.29,936.39s.45,0,.45-.45"/>
      <path class="st2" d="M730.59,930.98c-.45-.9-1.8-.9-2.7-.9"/>
      <line class="st2" x1="731.94" y1="935.04" x2="730.59" y2="930.98"/>
      <path class="st2" d="M727.89,930.08c-.45.45-.9.9-.45,1.35"/>
      <line class="st2" x1="711.23" y1="914.32" x2="711.68" y2="914.77"/>
      <path class="st2" d="M710.33,913.42l.9.9"/>
      <line class="st2" x1="710.33" y1="912.97" x2="710.33" y2="913.42"/>
      <path class="st2" d="M716.63,918.83c0-1.35-.45-2.25-.9-3.15"/>
      <path class="st2" d="M715.73,915.67c-1.35-.45-2.7-.45-4.05-.9"/>
      <path class="st2" d="M715.28,919.28c.45,0,.9,0,1.35-.45"/>
      <path class="st2" d="M715.28,919.28c-4.95-1.35-10.36-.9-15.31,1.35"/>
      <path class="st2" d="M733.74,935.94c-1.8-11.71-11.26-21.16-23.42-22.97"/>
      <path class="st2" d="M640.98,985.02c-2.25,4.5-2.7,9.91-1.35,15.31"/>
      <path class="st2" d="M635.13,996.73c0-.45-.45-.45-.45-.9"/>
      <path class="st2" d="M634.68,995.83c-.45,0-.45-.45-.9-.45"/>
      <line class="st2" x1="633.78" y1="995.38" x2="633.33" y2="995.38"/>
      <path class="st2" d="M636.03,1000.33c.9.9,1.8,1.35,3.15.9"/>
      <path class="st2" d="M635.13,996.73c.45.9.45,2.25.9,3.6"/>
      <path class="st2" d="M639.18,1001.23c.45,0,.45-.45.45-.9"/>
      <path class="st2" d="M655.84,1017.44c0-.45-.45-.45-.45-.9"/>
      <path class="st2" d="M656.74,1017.89c-.45,0-.45-.45-.9-.45"/>
      <path class="st2" d="M656.29,1018.79q.45-.45.45-.9"/>
      <path class="st2" d="M650.44,1012.94c0,.9,0,1.8.9,2.7"/>
      <path class="st2" d="M651.34,1015.64c1.35.45,2.7.9,4.05.9"/>
      <path class="st2" d="M651.79,1012.04c-.45,0-.9.45-1.35.9"/>
      <path class="st2" d="M651.79,1012.04c6.3,1.8,13.06.9,18.46-3.15"/>
      <path class="st2" d="M633.33,995.38c1.8,12.16,11.26,21.16,22.97,23.42"/>
      <path class="st2" d="M637.83,931.43c-1.35,4.95-.9,10.36,1.35,15.31"/>
      <line class="st2" x1="632.88" y1="935.49" x2="633.33" y2="935.04"/>
      <path class="st2" d="M631.98,936.39l.9-.9"/>
      <path class="st2" d="M631.53,935.94c0,.45.45.45.45.45"/>
      <path class="st2" d="M637.38,930.08c-.9,0-2.25,0-2.7.9"/>
      <line class="st2" x1="634.68" y1="930.98" x2="633.33" y2="935.04"/>
      <path class="st2" d="M637.83,931.43c.45-.45,0-.9-.45-1.35"/>
      <line class="st2" x1="653.59" y1="914.77" x2="654.04" y2="914.32"/>
      <path class="st2" d="M654.04,914.32l.9-.9"/>
      <line class="st2" x1="654.94" y1="913.42" x2="654.94" y2="912.97"/>
      <path class="st2" d="M649.54,915.67c-.45.9-.9,1.8-.9,3.15"/>
      <path class="st2" d="M653.59,914.77c-1.35.45-2.7.45-4.05.9"/>
      <path class="st2" d="M648.64,918.83c.45.45.9.45,1.35.45"/>
      <path class="st2" d="M665.3,920.63c-4.95-2.25-10.36-2.7-15.31-1.35"/>
      <path class="st2" d="M654.94,912.97c-12.16,1.8-21.61,11.26-23.42,22.97"/>
      <path class="st2" d="M682.41,917.02c-12.16,0-23.87,4.95-32.87,13.96-8.56,8.56-13.51,20.71-13.51,32.87s4.95,24.32,13.51,33.32c9.01,8.56,20.71,13.51,32.87,13.51s24.32-4.95,33.32-13.51c8.56-9.01,13.51-20.71,13.51-33.32s-4.95-24.32-13.51-32.87c-9.01-9.01-20.71-13.96-33.32-13.96Z"/>
      <path class="st2" d="M725.64,1000.33c1.35-5.4.9-10.81-1.35-15.31"/>
      <path class="st2" d="M730.59,995.83c0,.45-.45.45-.45.9"/>
      <path class="st2" d="M731.49,995.38c-.45,0-.45.45-.9.45"/>
      <line class="st2" x1="731.94" y1="995.38" x2="731.49" y2="995.38"/>
    </g>
    <line class="st2" x1="483.15" y1="649.77" x2="483.15" y2="651.12"/>
    <line class="st2" x1="483.15" y1="651.12" x2="483.15" y2="652.02"/>
    <rect class="st4" x="487.56" y="1095.57" width="32.87" height="32.87" transform="translate(-608.01 1615.99) rotate(-90)"/>
    <g id="pareti">
      <g>
        <polygon class="st0" points="756.03 553.46 786.65 549.35 786.65 554.76 796.11 554.76 796.11 625 786.65 625 756.03 625 756.03 570.52 612.84 589.7 612.84 609.69 606.53 609.69 606.53 590.55 483.15 607.08 483.15 646.17 606.53 646.17 606.53 643.47 612.84 643.47 612.84 646.17 612.84 660.13 612.84 661.03 606.53 661.03 606.53 660.13 606.53 651.12 606.53 649.77 483.15 649.77 483.15 651.12 483.15 652.02 483.15 789.36 606.53 789.36 606.53 737.58 606.53 736.68 612.84 736.68 612.84 737.58 612.84 799.72 606.53 799.72 483.15 799.72 483.15 965.88 483.15 966.78 466.04 966.78 466.04 965.88 466.04 950.57 474.14 942.01 474.59 591.23 756.03 553.46"/>
        <polygon class="st0" points="756.03 718.21 787.55 718.21 787.55 722.27 787.55 804.67 787.69 804.67 787.69 809.62 796.11 809.62 796.11 890.68 796.11 905.54 796.11 910.94 786.65 910.94 756.03 910.94 756.03 819.08 756.03 809.62 756.03 808.72 756.03 804.67 756.03 722.27 756.03 718.21"/>
        <polygon class="st0" points="466.04 1050.53 483.15 1050.53 483.15 1051.89 483.15 1216.69 756.03 1216.69 756.03 1095.56 774.94 1095.56 796.11 1095.56 796.11 1196.43 796.11 1233.81 765.04 1233.81 647.51 1233.81 466.04 1233.81 466.04 1050.53"/>
      </g>
      <rect class="st5" x="621.62" y="780.6" width="10.35" height="27.9" transform="translate(-167.76 1421.34) rotate(-90)"/>
    </g>
    <polygon class="st4" points="612.84 589.71 612.84 634.46 756.03 614.15 756.03 570.52 612.84 589.71"/>
    <rect class="st0" x="725.86" y="1033.88" width="91.86" height="31.52" transform="translate(-277.84 1821.43) rotate(-90)"/>
    <rect class="st7" x="722.82" y="736.33" width="92.09" height="54.5" transform="translate(5.27 1532.44) rotate(-90)"/>
    <rect class="st6" x="693.22" y="706.73" width="184.62" height="21.16" transform="translate(68.21 1502.85) rotate(-90)"/>
    <g>
      <line class="st2" x1="786.65" y1="725.87" x2="786.65" y2="800.62"/>
      <line class="st2" x1="782.6" y1="800.62" x2="782.6" y2="725.87"/>
      <line class="st2" x1="780.8" y1="800.62" x2="780.8" y2="725.87"/>
      <line class="st2" x1="787.55" y1="808.73" x2="774.95" y2="808.73"/>
      <line class="st2" x1="780.8" y1="800.62" x2="787.55" y2="800.62"/>
      <line class="st2" x1="780.8" y1="804.22" x2="780.8" y2="800.62"/>
      <line class="st2" x1="774.95" y1="804.22" x2="780.8" y2="804.22"/>
      <line class="st2" x1="780.8" y1="722.27" x2="774.95" y2="722.27"/>
      <line class="st2" x1="780.8" y1="725.87" x2="780.8" y2="722.27"/>
      <line class="st2" x1="787.55" y1="725.87" x2="780.8" y2="725.87"/>
      <line class="st2" x1="787.55" y1="717.77" x2="787.55" y2="725.87"/>
      <line class="st2" x1="774.95" y1="717.77" x2="787.55" y2="717.77"/>
      <line class="st2" x1="787.55" y1="808.73" x2="787.55" y2="720.47"/>
      <line class="st2" x1="786.65" y1="712.36" x2="782.6" y2="712.36"/>
      <line class="st2" x1="786.65" y1="630.41" x2="786.65" y2="712.36"/>
      <line class="st2" x1="782.6" y1="712.36" x2="782.6" y2="630.41"/>
      <line class="st2" x1="787.55" y1="712.36" x2="787.55" y2="625.91"/>
      <line class="st2" x1="787.55" y1="716.87" x2="774.95" y2="716.87"/>
      <line class="st2" x1="787.55" y1="712.36" x2="787.55" y2="716.87"/>
      <line class="st2" x1="774.95" y1="712.36" x2="787.55" y2="712.36"/>
      <line class="st2" x1="787.55" y1="630.41" x2="774.95" y2="630.41"/>
      <line class="st2" x1="774.95" y1="625.91" x2="787.55" y2="625.91"/>
    </g>
  </g>
</svg>