<?xml version="1.0" encoding="UTF-8"?>
<svg xmlns="http://www.w3.org/2000/svg" version="1.1" viewBox="0 0 1200 1697.14">
  <!-- Generator: Adobe Illustrator 29.6.0, SVG Export Plug-In . SVG Version: 2.1.1 Build 207)  -->
  <defs>
    <style>
      .st0, .st1 {
        stroke: #0d101f;
      }

      .st0, .st1, .st2, .st3 {
        stroke-linecap: round;
        stroke-linejoin: round;
        stroke-width: .15px;
      }

      .st0, .st4 {
        fill: #fff;
      }

      .st1, .st2, .st3 {
        fill: none;
      }

      .st5 {
        fill: #383037;
      }

      .st2 {
        stroke: #1d1d1b;
      }

      .st3 {
        stroke: #11100e;
      }

      .st6 {
        fill: #f2efed;
      }
    </style>
  </defs>
  <g id="sfondo">
    <g>
      <polygon class="st6" points="730.58 625.45 800.82 1152.75 450.04 1152.3 441.49 1144.19 441.49 1127.08 441.49 1126.18 453.64 1126.18 453.64 1127.08 453.64 1144.19 568.92 1144.19 568.92 1134.73 568.92 1133.83 575.22 1133.83 575.22 1134.73 575.22 1144.19 714.82 1144.19 714.82 1004.15 575.22 1004.15 575.22 1005.05 575.22 1057.28 575.22 1058.63 568.92 1058.63 568.92 1057.28 568.92 994.24 575.22 994.24 722.02 994.24 722.02 1004.15 718.87 1004.15 718.87 1144.19 782.81 1144.19 763.9 1004.15 756.24 1004.15 756.24 994.24 762.55 994.24 717.97 656.97 700.86 656.97 688.7 565.11 664.83 565.11 664.83 534.04 664.83 525.03 719.77 525.03 733.28 625 730.58 625.45"/>
      <polygon class="st6" points="763.9 1004.15 782.81 1144.19 718.87 1144.19 718.87 1004.15 722.02 1004.15 722.02 994.24 575.22 994.24 568.92 994.24 568.92 1057.28 568.92 1058.63 575.22 1058.63 575.22 1057.28 575.22 1005.05 575.22 1004.15 714.82 1004.15 714.82 1144.19 575.22 1144.19 575.22 1134.73 575.22 1133.83 568.92 1133.83 568.92 1134.73 568.92 1144.19 453.64 1144.19 453.64 1127.08 453.64 1126.18 441.49 1126.18 441.49 1042.42 453.64 1042.42 453.64 1041.07 453.64 1032.07 453.64 565.11 480.21 565.11 480.21 525.03 664.83 525.03 664.83 534.04 664.83 565.11 688.7 565.11 700.86 656.97 717.97 656.97 762.55 994.24 756.24 994.24 756.24 1004.15 763.9 1004.15"/>
      <polygon class="st6" points="480.21 525.03 480.21 565.11 453.64 565.11 453.64 1032.07 453.64 1041.07 453.64 1042.42 441.49 1042.42 441.49 1032.07 447.79 1025.76 447.79 525.03 480.21 525.03"/>
    </g>
  </g>
  <g id="letto">
    <g>
      <g>
        <polygon class="st4" points="532.92 761.76 532.92 762.2 455.41 762.2 455.41 613.92 456.39 614.41 456.39 761.76 532.92 761.76"/>
        <path class="st4" d="M532.92,652.28v109.48h-76.53v-147.35l17.01,8.41c7.31,3.62,13.36,6.61,18.37,9.09l2.63,1.3c5.59,2.77,9.73,4.82,12.79,6.34l1.16.57,7.56,3.74,17.01,8.42Z"/>
        <path class="st4" d="M532.92,591.68v60.6l-17.01-8.42v-30.18c0-1.94-1.56-3.51-3.5-3.51h-35.51c-1.94,0-3.5,1.57-3.5,3.51v9.14l-17.01-8.41v-22.73h76.53Z"/>
        <path class="st4" d="M515.91,613.68v30.18l-7.56-3.74c-.37-.19-.75-.38-1.16-.57-3.06-1.52-7.2-3.57-12.79-6.34-.85-.41-1.72-.85-2.63-1.3-5.01-2.48-11.06-5.47-18.37-9.09v-9.14c0-1.94,1.56-3.51,3.5-3.51h35.51c1.94,0,3.5,1.57,3.5,3.51Z"/>
      </g>
      <g>
        <polyline class="st1" points="456.39 614.41 456.39 591.68 532.92 591.68 532.92 652.28"/>
        <polyline class="st1" points="473.4 622.82 456.39 614.41 455.41 613.92 455.41 762.2 532.92 762.2 532.92 761.76 532.92 652.28 515.91 643.86"/>
        <line class="st1" x1="494.4" y1="633.21" x2="491.77" y2="631.91"/>
        <line class="st1" x1="508.35" y1="640.12" x2="507.19" y2="639.55"/>
        <line class="st1" x1="476.9" y1="610.17" x2="512.41" y2="610.17"/>
        <path class="st1" d="M512.41,610.17c1.94,0,3.5,1.57,3.5,3.51"/>
        <path class="st1" d="M473.4,613.68c0-1.94,1.56-3.51,3.5-3.51"/>
        <path class="st1" d="M473.4,613.68v9.14c7.31,3.62,13.36,6.61,18.37,9.09.91.45,1.78.89,2.63,1.3,5.59,2.77,9.73,4.82,12.79,6.34.41.19.79.38,1.16.57l7.56,3.74v-30.18"/>
      </g>
    </g>
    <g>
      <rect class="st4" x="699.45" y="943.48" width="55.54" height="50.76"/>
      <line class="st3" x1="754.99" y1="943.48" x2="753.42" y2="943.48"/>
      <line class="st3" x1="750.69" y1="943.48" x2="747.95" y2="943.48"/>
      <line class="st3" x1="745.21" y1="943.48" x2="742.47" y2="943.48"/>
      <line class="st3" x1="739.73" y1="943.48" x2="737" y2="943.48"/>
      <line class="st3" x1="734.26" y1="943.48" x2="731.52" y2="943.48"/>
      <line class="st3" x1="728.78" y1="943.48" x2="725.65" y2="943.48"/>
      <line class="st3" x1="722.91" y1="943.48" x2="720.18" y2="943.48"/>
      <line class="st3" x1="717.44" y1="943.48" x2="714.7" y2="943.48"/>
      <line class="st3" x1="711.96" y1="943.48" x2="709.22" y2="943.48"/>
      <line class="st3" x1="706.49" y1="943.48" x2="703.75" y2="943.48"/>
      <line class="st3" x1="701.01" y1="943.48" x2="699.45" y2="943.48"/>
      <line class="st3" x1="699.45" y1="943.48" x2="699.45" y2="944.56"/>
      <line class="st3" x1="699.45" y1="947.08" x2="699.45" y2="949.6"/>
      <line class="st3" x1="699.45" y1="952.48" x2="699.45" y2="955"/>
      <line class="st3" x1="699.45" y1="957.52" x2="699.45" y2="960.04"/>
      <line class="st3" x1="699.45" y1="962.56" x2="699.45" y2="965.08"/>
      <line class="st3" x1="699.45" y1="967.6" x2="699.45" y2="970.12"/>
      <line class="st3" x1="699.45" y1="972.64" x2="699.45" y2="975.16"/>
      <line class="st3" x1="699.45" y1="977.68" x2="699.45" y2="980.56"/>
      <line class="st3" x1="699.45" y1="983.08" x2="699.45" y2="985.6"/>
      <line class="st3" x1="699.45" y1="988.12" x2="699.45" y2="990.64"/>
      <line class="st3" x1="699.45" y1="993.16" x2="699.45" y2="994.24"/>
      <path class="st3" d="M754.99,943.48"/>
    </g>
  </g>
  <g id="bianchi">
    <rect class="st4" x="480.21" y="524.44" width="185.62" height="21.76"/>
    <path class="st4" d="M630.08,1004.15v27.68c0,.61-.29,1.11-.66,1.11h-37.37c-.45,0-.82-.5-.82-1.11v-27.68h38.85Z"/>
    <g id="LINE">
      <path class="st4" d="M714.81,1119.87h-24.72c-9.52,0-17.21-6.83-17.21-15.29s7.69-15.28,17.21-15.28h24.72v30.57Z"/>
    </g>
    <rect class="st4" x="646.77" y="1004.15" width="70.45" height="68.04"/>
    <rect class="st4" x="591.43" y="1140.59" width="37.37" height="1.8"/>
    <rect class="st4" x="596.9" y="1142.44" width="26.95" height="2.62"/>
    <rect class="st4" x="440.92" y="1042.42" width="12.72" height="85.65"/>
  </g>
  <g id="Livello_1">
    <g>
      <path class="st4" d="M631.29,598.88c-.9,1.35-.45,3.15.45,4.51,6.31,12.6,16.66,22.06,29.72,27.01,1.8.9,3.6.9,4.96,0,1.35-.45,2.25-1.35,3.15-1.8l14.86-12.61.9-.9c1.35-1.35,2.25-3.15,2.7-4.95,0-4.95-.45-9.91-1.8-14.86-.9-5.4-3.6-10.36-7.66-13.96-4.05-3.6-9-5.85-14.41-5.85-4.95-.9-9.9-.9-14.86,0-1.8.45-3.6,1.35-4.95,2.7,0,.45-.45.9-.45,1.35l-10.81,15.76c-.9.9-1.35,2.25-1.8,3.6Z"/>
      <path class="st2" d="M661.49,630.4c-13.06-4.95-23.42-14.41-29.72-27.02"/>
      <path class="st2" d="M641.67,591.67c2.7-2.7,5.4-5.4,8.56-8.11"/>
      <path class="st2" d="M650.23,583.57c6.3-4.05,14.86-4.05,20.71.45"/>
      <path class="st2" d="M670.94,584.02c1.35.45,2.25,1.35,3.15,2.25"/>
      <path class="st2" d="M664.19,575.46c5.4,0,10.36,2.25,14.41,5.85"/>
      <path class="st2" d="M631.77,603.38c-.9-1.35-1.35-3.15-.45-4.5"/>
      <path class="st2" d="M631.32,598.88c.45-1.35.9-2.7,1.8-3.6"/>
      <line class="st2" x1="643.93" y1="579.52" x2="633.12" y2="595.28"/>
      <path class="st2" d="M643.93,579.52c0-.45.45-.9.45-1.35"/>
      <path class="st2" d="M644.38,578.17c1.35-1.35,3.15-2.25,4.95-2.7"/>
      <path class="st2" d="M649.33,575.46c4.95-.9,9.91-.9,14.86,0"/>
      <path class="st2" d="M679.5,609.69c-2.25,3.6-4.5,6.75-7.2,9.46"/>
      <path class="st2" d="M677.25,589.42c4.5,5.4,5.4,13.51,2.25,20.26"/>
      <path class="st2" d="M674.1,586.27c.9.9,2.25,1.8,3.15,3.15"/>
      <path class="st2" d="M678.6,581.32c4.05,3.6,6.75,8.56,7.66,13.96"/>
      <path class="st2" d="M666.44,630.4c-1.35.9-3.15.9-4.95,0"/>
      <path class="st2" d="M669.59,628.6c-.9.45-1.8,1.35-3.15,1.8"/>
      <line class="st2" x1="684.45" y1="615.99" x2="669.59" y2="628.6"/>
      <path class="st2" d="M685.35,615.09q-.45.45-.9.9"/>
      <path class="st2" d="M688.05,610.14c-.45,1.8-1.35,3.6-2.7,4.95"/>
      <path class="st2" d="M686.25,595.28c1.35,4.95,1.8,9.91,1.8,14.86"/>
    </g>
    <line class="st2" x1="664.83" y1="546.19" x2="663.93" y2="546.19"/>
    <line class="st2" x1="572.97" y1="546.19" x2="572.07" y2="546.19"/>
    <line class="st2" x1="481.11" y1="546.19" x2="480.21" y2="546.19"/>
    <line class="st2" x1="453.64" y1="1044.67" x2="453.64" y2="1119.87"/>
    <line class="st2" x1="568.92" y1="1127.53" x2="568.92" y2="1060.88"/>
    <path class="st2" d="M568.92,1060.88c-18.46,0-36.47,7.66-49.53,20.71-13.06,13.06-20.71,31.07-20.71,49.53"/>
    <line class="st2" x1="568.92" y1="1127.53" x2="568.92" y2="1131.13"/>
    <line class="st2" x1="568.92" y1="1131.13" x2="498.67" y2="1131.13"/>
    <line class="st2" x1="568.92" y1="1127.53" x2="568.92" y2="1060.88"/>
    <line class="st2" x1="718.87" y1="1004.15" x2="782.81" y2="1144.19"/>
    <line class="st2" x1="763.9" y1="1004.15" x2="718.87" y2="1144.19"/>
    <line class="st2" x1="756.24" y1="1004.15" x2="722.02" y2="1004.15"/>
    <line class="st2" x1="722.02" y1="994.24" x2="722.92" y2="994.24"/>
    <line class="st2" x1="754.89" y1="994.24" x2="756.24" y2="994.24"/>
    <line class="st2" x1="722.92" y1="996.04" x2="754.89" y2="996.04"/>
    <line class="st2" x1="754.89" y1="996.04" x2="754.89" y2="994.24"/>
    <line class="st2" x1="754.89" y1="994.24" x2="722.92" y2="994.24"/>
    <line class="st2" x1="722.92" y1="994.24" x2="722.92" y2="996.04"/>
    <path class="st2" d="M532.45,1123.48c0-20.71-8.11-40.98-22.97-55.84-14.86-14.41-34.67-22.97-55.84-22.97"/>
    <line class="st2" x1="453.64" y1="1123.48" x2="532.45" y2="1123.48"/>
    <line class="st2" x1="453.64" y1="1119.87" x2="453.64" y2="1123.48"/>
    <line class="st2" x1="453.64" y1="1119.87" x2="453.64" y2="1044.67"/>
    <line class="st2" x1="722.02" y1="1004.15" x2="722.02" y2="994.24"/>
    <line class="st2" x1="714.82" y1="1038.17" x2="695.92" y2="1038.17"/>
    <circle class="st2" cx="696.01" cy="1038.08" r="4.23"/>
    <circle class="st2" cx="696.01" cy="1038.08" r="4.23"/>
    <line class="st2" x1="646.77" y1="1005.27" x2="646.77" y2="1071.59"/>
    <line class="st2" x1="647.9" y1="1072.19" x2="714.22" y2="1072.19"/>
    <line class="st2" x1="714.82" y1="1071.06" x2="714.82" y2="1004.75"/>
    <line class="st2" x1="713.69" y1="1004.15" x2="647.37" y2="1004.15"/>
    <polyline class="st2" points="646.77 1005.27 646.77 1004.15 647.37 1004.15"/>
    <polyline class="st2" points="713.69 1004.15 714.82 1004.15 714.82 1004.75"/>
    <polyline class="st2" points="714.82 1071.06 714.82 1072.19 714.22 1072.19"/>
    <polyline class="st2" points="647.9 1072.19 646.77 1072.19 646.77 1071.59"/>
    <circle class="st2" cx="610.57" cy="1008.44" r="2.2"/>
    <circle class="st2" cx="610.57" cy="1022.89" r="2.93"/>
    <path class="st2" d="M612.15,1022.89c0,.87-.71,1.58-1.58,1.58s-1.58-.71-1.58-1.58.71-1.58,1.58-1.58,1.58.71,1.58,1.58Z"/>
    <path class="st2" d="M591.89,1014.49v16.22c0,.62.37,1.11.82,1.11h35.72c.45,0,.82-.5.82-1.11v-16.22c0-.61-.37-1.11-.82-1.11h-35.72c-.45,0-.82.5-.82,1.11Z"/>
    <path class="st2" d="M591.23,1004.15v27.68c0,.62.29,1.11.66,1.11h37.37c.45,0,.82-.49.82-1.11v-27.68"/>
    <line class="st2" x1="630.08" y1="1023.06" x2="630.08" y2="1012.7"/>
    <line class="st2" x1="601.72" y1="1032.96" x2="620.17" y2="1032.96"/>
    <line class="st2" x1="630.08" y1="1023.06" x2="630.08" y2="1012.7"/>
    <line class="st2" x1="601.72" y1="1032.96" x2="620.17" y2="1032.96"/>
    <line class="st2" x1="630.08" y1="1012.7" x2="630.08" y2="1023.06"/>
    <line class="st2" x1="620.17" y1="1032.96" x2="601.72" y2="1032.96"/>
    <line class="st2" x1="630.08" y1="1023.06" x2="630.08" y2="1012.7"/>
    <line class="st2" x1="601.72" y1="1032.96" x2="620.17" y2="1032.96"/>
    <line class="st2" x1="630.08" y1="1023.06" x2="630.08" y2="1012.7"/>
    <line class="st2" x1="601.72" y1="1032.96" x2="620.17" y2="1032.96"/>
    <line class="st2" x1="630.08" y1="1012.7" x2="630.08" y2="1023.06"/>
    <line class="st2" x1="620.17" y1="1032.96" x2="601.72" y2="1032.96"/>
    <path class="st2" d="M714.82,1119.87h-24.72c-9.52,0-17.22-6.84-17.22-15.29s7.7-15.29,17.22-15.29h24.72v30.58Z"/>
    <g>
      <rect class="st4" x="597.64" y="942.92" width="101.75" height="56.28"/>
      <rect class="st2" x="656.14" y="953.07" width="31.01" height="31.01"/>
      <rect class="st2" x="648.27" y="945.36" width="46.6" height="46.44"/>
      <line class="st2" x1="671.57" y1="976.59" x2="671.57" y2="989.06"/>
      <line class="st2" x1="620.35" y1="980.03" x2="608.16" y2="980.03"/>
      <line class="st2" x1="620.35" y1="957.12" x2="608.16" y2="957.12"/>
      <line class="st2" x1="614.34" y1="963.13" x2="614.34" y2="950.95"/>
      <line class="st2" x1="614.34" y1="986.21" x2="614.34" y2="974.02"/>
      <rect class="st2" x="600.53" y="945.59" width="26.81" height="45.99"/>
      <rect class="st2" x="597.64" y="942.92" width="101.75" height="51.32"/>
    </g>
    <line class="st2" x1="591.43" y1="1140.59" x2="628.81" y2="1140.59"/>
    <line class="st2" x1="628.81" y1="1140.59" x2="628.81" y2="1142.39"/>
    <line class="st2" x1="628.81" y1="1142.39" x2="591.43" y2="1142.39"/>
    <line class="st2" x1="591.43" y1="1142.39" x2="591.43" y2="1140.59"/>
    <line class="st2" x1="596.84" y1="1142.39" x2="596.84" y2="1144.19"/>
    <line class="st2" x1="623.86" y1="1144.19" x2="623.86" y2="1142.39"/>
    <polyline class="st2" points="453.64 1119.87 453.64 1123.48 532.45 1123.48"/>
    <polyline class="st2" points="498.67 1131.13 568.92 1131.13 568.92 1127.53"/>
    <line class="st2" x1="754.89" y1="994.24" x2="754.89" y2="996.04"/>
    <line class="st2" x1="728.28" y1="588.04" x2="728.32" y2="588.07"/>
    <line class="st2" x1="725.9" y1="570.37" x2="726.07" y2="570.51"/>
    <line class="st2" x1="655.83" y1="534.04" x2="655.83" y2="538.09"/>
    <line class="st2" x1="581.08" y1="534.04" x2="655.83" y2="534.04"/>
    <line class="st2" x1="581.08" y1="538.09" x2="581.08" y2="534.04"/>
    <line class="st2" x1="655.83" y1="538.09" x2="581.08" y2="538.09"/>
    <line class="st2" x1="577.02" y1="546.19" x2="659.43" y2="546.19"/>
    <line class="st2" x1="655.83" y1="533.59" x2="581.08" y2="533.59"/>
    <line class="st2" x1="655.83" y1="540.34" x2="581.08" y2="540.34"/>
    <line class="st2" x1="663.93" y1="533.59" x2="663.93" y2="546.19"/>
    <line class="st2" x1="655.83" y1="533.59" x2="663.93" y2="533.59"/>
    <line class="st2" x1="655.83" y1="540.34" x2="655.83" y2="533.59"/>
    <line class="st2" x1="659.43" y1="540.34" x2="655.83" y2="540.34"/>
    <line class="st2" x1="659.43" y1="546.19" x2="659.43" y2="540.34"/>
    <line class="st2" x1="663.93" y1="546.19" x2="659.43" y2="546.19"/>
    <line class="st2" x1="577.02" y1="540.34" x2="577.02" y2="546.19"/>
    <line class="st2" x1="581.08" y1="540.34" x2="577.02" y2="540.34"/>
    <line class="st2" x1="581.08" y1="533.59" x2="581.08" y2="540.34"/>
    <line class="st2" x1="572.97" y1="533.59" x2="581.08" y2="533.59"/>
    <line class="st2" x1="572.97" y1="546.19" x2="572.97" y2="533.59"/>
    <line class="st2" x1="577.02" y1="546.19" x2="572.97" y2="546.19"/>
    <line class="st2" x1="572.97" y1="533.59" x2="663.93" y2="533.59"/>
    <line class="st2" x1="661.68" y1="533.59" x2="575.22" y2="533.59"/>
    <line class="st2" x1="661.23" y1="533.59" x2="575.67" y2="533.59"/>
    <line class="st2" x1="581.08" y1="533.59" x2="655.83" y2="533.59"/>
    <line class="st2" x1="655.83" y1="533.59" x2="581.08" y2="533.59"/>
    <line class="st2" x1="567.57" y1="534.04" x2="567.57" y2="538.09"/>
    <line class="st2" x1="485.61" y1="534.04" x2="567.57" y2="534.04"/>
    <line class="st2" x1="485.61" y1="538.09" x2="485.61" y2="534.04"/>
    <line class="st2" x1="567.57" y1="538.09" x2="485.61" y2="538.09"/>
    <line class="st2" x1="485.61" y1="546.19" x2="567.57" y2="546.19"/>
    <line class="st2" x1="567.57" y1="533.59" x2="485.61" y2="533.59"/>
    <line class="st2" x1="485.61" y1="533.59" x2="485.61" y2="546.19"/>
    <line class="st2" x1="481.11" y1="533.59" x2="485.61" y2="533.59"/>
    <line class="st2" x1="481.11" y1="546.19" x2="481.11" y2="533.59"/>
    <line class="st2" x1="485.61" y1="546.19" x2="481.11" y2="546.19"/>
    <line class="st2" x1="572.07" y1="533.59" x2="572.07" y2="546.19"/>
    <line class="st2" x1="567.57" y1="533.59" x2="572.07" y2="533.59"/>
    <line class="st2" x1="567.57" y1="546.19" x2="567.57" y2="533.59"/>
    <line class="st2" x1="572.07" y1="546.19" x2="567.57" y2="546.19"/>
    <rect class="st0" x="594.7" y="558.36" width="32.87" height="32.87"/>
    <g>
      <g>
        <path class="st4" d="M691.41,797.82h-.45l-.9-.9-.45-.45c-.45-1.35-.45-2.7-.9-4.05-.9-.45-1.8-.9-3.16-.9-.45.45-.45.9-.45,1.35,1.34,4.86.93,10.17-1.24,15.05-2.37-5.67-5.89-10.93-10.46-15.5s-9.9-7.94-15.81-10.24l.05-.12c4.95-2.25,10.35-2.7,15.31-1.35.45.45.9,0,1.35-.45,0-.9,0-2.25-.9-2.7l-4.06-1.35-.45-.45-.9-.9s0-.45.45-.45c11.71,1.8,21.17,11.25,22.97,23.41Z"/>
        <path class="st4" d="M690.96,853.21h.45c-1.8,12.16-11.26,21.61-22.97,23.41-.45,0-.45-.45-.45-.45l.9-.9.45-.45,4.06-1.35c.9-.45.9-1.8.9-2.7-.45-.45-.9-.9-1.35-.45-4.96,1.35-10.36.9-15.31-1.35l-.04-.11c5.9-2.31,11.34-5.79,15.8-10.25,4.56-4.56,8.08-9.81,10.45-15.53,2.17,4.9,2.59,10.21,1.25,15.08,0,.45,0,.9.45,1.35,1.36,0,2.26-.45,3.16-.9.45-1.35.45-2.7.9-4.05l.45-.45.9-.9Z"/>
        <path class="st4" d="M683.86,807.92c2.3,5.5,3.5,11.38,3.5,17.37s-1.21,12.23-3.51,17.79c-2.37,5.72-5.89,10.97-10.45,15.53-4.46,4.46-9.9,7.94-15.8,10.25-5.43,2.12-11.25,3.26-17.07,3.26-7.5,0-14.68-1.75-21.16-4.97-4.43-2.19-8.52-5.07-12.17-8.54-5.58-5.88-9.64-12.91-11.78-20.6-1.13-4.08-1.73-8.34-1.73-12.72s.59-8.32,1.7-12.31c2.14-7.59,6.2-14.66,11.81-20.56,3.65-3.47,7.74-6.35,12.17-8.54,6.48-3.22,13.66-4.97,21.16-4.97,5.81,0,11.63,1.14,17.06,3.27,5.91,2.3,11.35,5.78,15.81,10.24s8.09,9.83,10.46,15.5Z"/>
        <path class="st4" d="M619.36,783.86v.02c-4.42,2.19-8.51,5.07-12.16,8.54-5.61,5.9-9.67,12.97-11.81,20.56-3.97-5.37-4.83-12.07-3.05-18.31,0-.45-.45-.9-.9-1.35-.9,0-1.8,0-2.7.9-.45,1.35-.9,2.7-.9,4.05-.45,0-.45.45-.9.45,0,.45-.45.45-.45.9q-.45,0-.9-.45c2.25-11.7,11.26-21.16,23.41-22.96v.45c0,.45-.45.45-.45.9-.45,0-.45.45-.9.45-.9.45-2.25.45-3.6.9-.9.9-1.35,1.8-.9,3.15,0,.45.45.45.9.45,5.4-1.35,10.81-.9,15.31,1.35Z"/>
        <path class="st4" d="M619.37,867.15v.02c-4.51,2.25-9.92,2.7-15.32,1.35-.45,0-.9,0-.9.45-.45,1.35,0,2.25.9,3.15,1.35.45,2.7.45,3.6.9.45,0,.45.45.9.45,0,.45.45.45.45.9v.45c-12.15-1.8-21.16-11.25-23.41-22.96q.45-.45.9-.45c0,.45.45.45.45.9.45,0,.45.45.9.45,0,1.35.45,2.7.9,4.05.9.9,1.8.9,2.7.9.45-.45.9-.9.9-1.35-1.79-6.26-.91-12.97,3.08-18.35,2.14,7.69,6.2,14.72,11.78,20.6,3.65,3.47,7.74,6.35,12.17,8.54Z"/>
      </g>
      <path class="st1" d="M603.15,868.97c-.45,1.35,0,2.25.9,3.15"/>
      <path class="st1" d="M604.05,872.12c1.35.45,2.7.45,3.6.9"/>
      <path class="st1" d="M604.05,868.52c-.45,0-.9,0-.9.45"/>
      <path class="st1" d="M587.84,852.76c-.45,0-.45-.45-.9-.45"/>
      <path class="st1" d="M586.94,852.31c0-.45-.45-.45-.45-.9"/>
      <path class="st1" d="M586.49,851.41q-.45,0-.9.45"/>
      <path class="st1" d="M588.74,856.81c.9.9,1.8.9,2.7.9"/>
      <path class="st1" d="M587.84,852.76c0,1.35.45,2.7.9,4.05"/>
      <path class="st1" d="M591.44,857.71c.45-.45.9-.9.9-1.35"/>
      <path class="st1" d="M595.5,837.9c-4.05,5.4-4.95,12.16-3.15,18.46"/>
      <path class="st1" d="M585.59,851.86c2.25,11.71,11.26,21.16,23.42,22.97"/>
      <path class="st1" d="M657.64,868.97c4.95,2.25,10.36,2.7,15.31,1.35"/>
      <line class="st1" x1="669.34" y1="874.83" x2="668.89" y2="875.28"/>
      <path class="st1" d="M668.89,875.28l-.9.9"/>
      <path class="st1" d="M667.99,876.18s0,.45.45.45"/>
      <path class="st1" d="M673.4,873.47c.9-.45.9-1.8.9-2.7"/>
      <line class="st1" x1="669.34" y1="874.83" x2="673.4" y2="873.47"/>
      <path class="st1" d="M674.3,870.77c-.45-.45-.9-.9-1.35-.45"/>
      <line class="st1" x1="690.06" y1="854.11" x2="689.61" y2="854.56"/>
      <path class="st1" d="M690.96,853.21l-.9.9"/>
      <line class="st1" x1="691.41" y1="853.21" x2="690.96" y2="853.21"/>
      <path class="st1" d="M685.56,859.51c1.35,0,2.25-.45,3.15-.9"/>
      <path class="st1" d="M688.71,858.61c.45-1.35.45-2.7.9-4.05"/>
      <path class="st1" d="M685.11,858.16c0,.45,0,.9.45,1.35"/>
      <path class="st1" d="M685.11,858.16c1.35-4.95.9-10.36-1.35-15.31"/>
      <path class="st1" d="M668.44,876.63c11.71-1.8,21.16-11.26,22.97-23.42"/>
      <path class="st1" d="M619.36,783.86c-4.5-2.25-9.91-2.7-15.31-1.35"/>
      <path class="st1" d="M607.65,778.01c.45,0,.45-.45.9-.45"/>
      <path class="st1" d="M608.55,777.56c0-.45.45-.45.45-.9"/>
      <line class="st1" x1="609.01" y1="776.66" x2="609.01" y2="776.21"/>
      <path class="st1" d="M604.05,778.91c-.9.9-1.35,1.8-.9,3.15"/>
      <path class="st1" d="M607.65,778.01c-.9.45-2.25.45-3.6.9"/>
      <path class="st1" d="M603.15,782.06c0,.45.45.45.9.45"/>
      <path class="st1" d="M586.94,798.72c.45,0,.45-.45.9-.45"/>
      <path class="st1" d="M586.49,799.63c0-.45.45-.45.45-.9"/>
      <path class="st1" d="M585.59,799.18q.45.45.9.45"/>
      <path class="st1" d="M591.44,793.32c-.9,0-1.8,0-2.7.9"/>
      <path class="st1" d="M588.74,794.22c-.45,1.35-.9,2.7-.9,4.05"/>
      <path class="st1" d="M592.34,794.67c0-.45-.45-.9-.9-1.35"/>
      <path class="st1" d="M592.34,794.67c-1.8,6.3-.9,13.06,3.15,18.46"/>
      <path class="st1" d="M609.01,776.21c-12.16,1.8-21.16,11.26-23.42,22.97"/>
      <path class="st1" d="M672.95,780.71c-4.95-1.35-10.36-.9-15.31,1.35"/>
      <line class="st1" x1="668.89" y1="775.76" x2="669.34" y2="776.21"/>
      <path class="st1" d="M667.99,774.86l.9.9"/>
      <path class="st1" d="M668.44,774.41c-.45,0-.45.45-.45.45"/>
      <path class="st1" d="M674.3,780.26c0-.9,0-2.25-.9-2.7"/>
      <line class="st1" x1="673.4" y1="777.56" x2="669.34" y2="776.21"/>
      <path class="st1" d="M672.95,780.71c.45.45.9,0,1.35-.45"/>
      <line class="st1" x1="689.61" y1="796.47" x2="690.06" y2="796.92"/>
      <path class="st1" d="M690.06,796.92l.9.9"/>
      <line class="st1" x1="690.96" y1="797.82" x2="691.41" y2="797.82"/>
      <path class="st1" d="M688.71,792.42c-.9-.45-1.8-.9-3.15-.9"/>
      <path class="st1" d="M689.61,796.47c-.45-1.35-.45-2.7-.9-4.05"/>
      <path class="st1" d="M685.56,791.52c-.45.45-.45.9-.45,1.35"/>
      <path class="st1" d="M683.75,808.18c2.25-4.95,2.7-10.36,1.35-15.31"/>
      <path class="st1" d="M691.41,797.82c-1.8-12.16-11.26-21.61-22.97-23.42"/>
      <path class="st1" d="M687.36,825.29c0-12.16-4.95-23.87-13.96-32.87-8.56-8.56-20.71-13.51-32.87-13.51s-24.32,4.95-33.32,13.51c-8.56,9.01-13.51,20.71-13.51,32.87s4.95,24.32,13.51,33.32c9.01,8.56,20.71,13.51,33.32,13.51s24.32-4.95,32.87-13.51c9.01-9.01,13.96-20.71,13.96-33.32Z"/>
      <path class="st1" d="M604.05,868.52c5.4,1.35,10.81.9,15.31-1.35"/>
      <path class="st1" d="M608.55,873.47c-.45,0-.45-.45-.9-.45"/>
      <path class="st1" d="M609.01,874.37c0-.45-.45-.45-.45-.9"/>
      <line class="st1" x1="609.01" y1="874.83" x2="609.01" y2="874.37"/>
    </g>
  </g>
  <g id="pareti">
    <g>
      <polygon class="st5" points="730.57 625.45 800.82 1152.75 450.04 1152.3 441.48 1144.19 441.48 1127.08 441.48 1126.18 453.64 1126.18 453.64 1127.08 453.64 1144.19 568.92 1144.19 568.92 1134.74 568.92 1133.84 575.22 1133.84 575.22 1134.74 575.22 1144.19 714.81 1144.19 714.81 1004.15 575.22 1004.15 575.22 1005.05 575.22 1057.29 575.22 1058.64 568.92 1058.64 568.92 1057.29 568.92 994.24 575.22 994.24 722.02 994.24 722.02 1004.15 718.87 1004.15 718.87 1144.19 782.81 1144.19 763.9 1004.15 756.24 1004.15 756.24 994.24 762.55 994.24 717.97 656.97 700.85 656.97 688.7 565.11 664.83 565.11 664.83 534.04 664.83 525.03 719.77 525.03 733.28 625 730.57 625.45"/>
      <polygon class="st5" points="480.21 525.03 480.21 565.11 453.64 565.11 453.64 1032.07 453.64 1041.08 453.64 1042.43 441.48 1042.43 441.48 1032.07 447.79 1025.77 447.79 525.03 480.21 525.03"/>
    </g>
  </g>
</svg>