<?xml version="1.0" encoding="UTF-8"?>
<svg xmlns="http://www.w3.org/2000/svg" version="1.1" viewBox="0 0 1200 1697.14">
  <!-- Generator: Adobe Illustrator 29.6.0, SVG Export Plug-In . SVG Version: 2.1.1 Build 207)  -->
  <defs>
    <style>
      .st0, .st1 {
        stroke: #0d101f;
      }

      .st0, .st1, .st2, .st3 {
        stroke-linecap: round;
        stroke-linejoin: round;
        stroke-width: .15px;
      }

      .st0, .st4 {
        fill: #fff;
      }

      .st1, .st2, .st3 {
        fill: none;
      }

      .st5 {
        fill: #383037;
      }

      .st2 {
        stroke: #1d1d1b;
      }

      .st3 {
        stroke: #11100e;
      }

      .st6 {
        fill: #f2efed;
      }
    </style>
  </defs>
  <g id="sfondo">
    <g>
      <path class="st6" d="M790.2,1113.15v17.11l-10.81,10.81h-167.51v-97.27h-169.76v-431.83h-.9v-100.87h90.51v40.08h-50.44v91.86h-22.51v211.19h158.95v54.48h-6.3v-10.35h-152.65v139.14h152.65v-53.59h6.3v150.85h155.35v-22.51h17.12v.9ZM611.43,892.95v-33.77h-152.65v33.77h152.65Z"/>
      <polygon class="st6" points="790.2 1028.49 790.2 1112.25 773.08 1112.25 773.08 1134.76 617.73 1134.76 617.73 1037.5 617.73 984.82 617.73 983.91 611.43 983.91 611.43 984.82 611.43 1037.5 458.78 1037.5 458.78 898.36 611.43 898.36 611.43 907.36 611.43 908.71 617.73 908.71 617.73 907.36 617.73 892.95 617.73 892.05 617.73 860.08 617.73 859.18 617.73 854.23 611.43 854.23 458.78 854.23 458.78 643.04 481.29 643.04 481.29 551.18 531.73 551.18 531.73 520.11 531.73 511.1 716.8 511.1 716.8 520.11 716.8 551.18 773.08 551.18 773.08 1028.49 790.2 1028.49"/>
      <polygon class="st6" points="790.2 1027.14 790.2 1028.49 773.08 1028.49 773.08 551.18 716.8 551.18 716.8 520.11 716.8 511.1 781.64 511.1 781.64 1009.58 790.2 1018.14 790.2 1027.14"/>
      <rect class="st6" x="458.78" y="859.18" width="152.65" height="33.77"/>
    </g>
  </g>
  <g id="bianchi">
    <g>
      <polygon class="st4" points="527.55 1036.38 527.55 1037.5 526.93 1037.5 527.55 1036.38"/>
      <polygon class="st4" points="527.55 970.06 527.55 1036.38 526.93 1037.5 458.1 1037.5 456.94 1036.91 456.94 970.59 457.56 969.46 526.39 969.46 527.55 970.06"/>
      <polygon class="st4" points="527.55 969.46 527.55 970.06 526.39 969.46 527.55 969.46"/>
      <polygon class="st4" points="458.1 1037.5 456.94 1037.5 456.94 1036.91 458.1 1037.5"/>
      <polygon class="st4" points="457.56 969.46 456.94 970.59 456.94 969.46 457.56 969.46"/>
    </g>
    <path class="st4" d="M550.05,1037.5v-27.68c0-.61.29-1.11.66-1.11h37.37c.45,0,.82.5.82,1.11v27.68h-38.85Z"/>
    <g id="LINE">
      <path class="st4" d="M513.13,898.36v24.72c0,9.52-6.83,17.21-15.29,17.21s-15.28-7.69-15.28-17.21v-24.72h30.57Z"/>
    </g>
    <rect class="st4" x="531.73" y="511.11" width="186.84" height="21.16"/>
    <path class="st4" d="M547.04,588.63c.45,1.8.45,3.6-.45,4.95-6.31,12.61-17.12,22.07-30.17,27.02-1.36.9-3.16.9-4.96,0-.9-.45-2.25-1.35-3.15-2.25l-14.86-12.16c0-.45-.45-.45-.9-.9-.9-1.35-1.8-3.15-2.25-4.95,0-4.96.45-10.36,1.35-15.31.9-4.96,3.6-9.91,7.65-13.51,4.06-3.6,9.01-5.86,14.41-6.31,4.96-.45,10.36-.45,15.31.45,1.81.46,3.61,1.36,4.51,2.71.45.45.45.9.9.9l10.8,16.21c.45.9,1.36,2.25,1.81,3.15Z"/>
    <rect class="st4" x="558.75" y="899.61" width="37.37" height="1.8"/>
    <rect class="st4" x="564.15" y="898.36" width="27.02" height="1.56"/>
    <rect class="st4" x="773.09" y="1028.5" width="28.87" height="84.66"/>
  </g>
  <g id="Livello_1">
    <line class="st2" x1="611.43" y1="892.96" x2="458.78" y2="859.19"/>
    <line class="st2" x1="716.8" y1="532.27" x2="715.45" y2="532.27"/>
    <line class="st2" x1="624.94" y1="532.27" x2="623.59" y2="532.27"/>
    <line class="st2" x1="533.08" y1="532.27" x2="531.73" y2="532.27"/>
    <line class="st2" x1="617.73" y1="910.97" x2="617.73" y2="978.06"/>
    <line class="st2" x1="773.09" y1="1105.95" x2="773.09" y2="1030.75"/>
    <path class="st2" d="M687.98,981.22c0-18.46-7.2-36.47-20.26-49.53-13.51-13.06-31.07-20.71-49.98-20.71"/>
    <line class="st2" x1="617.73" y1="981.22" x2="687.98" y2="981.22"/>
    <line class="st2" x1="617.73" y1="978.06" x2="617.73" y2="981.22"/>
    <line class="st2" x1="617.73" y1="978.06" x2="617.73" y2="910.97"/>
    <line class="st2" x1="564.15" y1="898.26" x2="564.15" y2="899.61"/>
    <line class="st2" x1="591.17" y1="899.61" x2="591.17" y2="898.26"/>
    <line class="st2" x1="596.12" y1="899.61" x2="596.12" y2="901.41"/>
    <line class="st2" x1="558.75" y1="899.61" x2="596.12" y2="899.61"/>
    <line class="st2" x1="558.75" y1="901.41" x2="558.75" y2="899.61"/>
    <line class="st2" x1="596.12" y1="901.41" x2="558.75" y2="901.41"/>
    <g>
      <rect class="st4" x="693.02" y="874.7" width="101.75" height="57.63" transform="translate(-159.62 1647.4) rotate(-90)"/>
      <g>
        <line class="st2" x1="763.26" y1="926.57" x2="750.79" y2="926.57"/>
        <rect class="st2" x="715.08" y="852.64" width="55.25" height="101.75"/>
        <line class="st2" x1="731.57" y1="875.35" x2="731.57" y2="863.16"/>
        <line class="st2" x1="754.48" y1="875.35" x2="754.48" y2="863.16"/>
        <line class="st2" x1="748.47" y1="869.34" x2="760.66" y2="869.34"/>
        <line class="st2" x1="725.39" y1="869.34" x2="737.58" y2="869.34"/>
        <rect class="st2" x="720.03" y="855.52" width="45.99" height="26.81"/>
        <rect class="st2" x="727.29" y="911.14" width="31.01" height="31.01"/>
        <rect class="st2" x="719.58" y="903.27" width="46.44" height="46.6"/>
      </g>
    </g>
    <circle class="st2" cx="569.55" cy="1033.21" r="2.2" transform="translate(-566.87 1350.15) rotate(-76.72)"/>
    <circle class="st2" cx="569.55" cy="1018.76" r="2.93" transform="translate(-552.81 1339.01) rotate(-76.72)"/>
    <path class="st2" d="M567.98,1018.76c0-.87.71-1.58,1.58-1.58s1.58.71,1.58,1.58-.71,1.58-1.58,1.58-1.58-.71-1.58-1.58Z"/>
    <path class="st2" d="M588.24,1027.16v-16.22c0-.62-.37-1.11-.82-1.11h-35.72c-.45,0-.82.5-.82,1.11v16.22c0,.61.37,1.11.82,1.11h35.72c.45,0,.82-.5.82-1.11Z"/>
    <path class="st2" d="M588.9,1037.5v-27.68c0-.62-.29-1.11-.66-1.11h-37.37c-.45,0-.82.49-.82,1.11v27.68"/>
    <line class="st2" x1="550.05" y1="1018.59" x2="550.05" y2="1028.95"/>
    <line class="st2" x1="578.41" y1="1008.69" x2="559.95" y2="1008.69"/>
    <line class="st2" x1="550.05" y1="1018.59" x2="550.05" y2="1028.95"/>
    <line class="st2" x1="578.41" y1="1008.69" x2="559.95" y2="1008.69"/>
    <line class="st2" x1="550.05" y1="1028.95" x2="550.05" y2="1018.59"/>
    <line class="st2" x1="559.95" y1="1008.69" x2="578.41" y2="1008.69"/>
    <line class="st2" x1="550.05" y1="1018.59" x2="550.05" y2="1028.95"/>
    <line class="st2" x1="578.41" y1="1008.69" x2="559.95" y2="1008.69"/>
    <line class="st2" x1="550.05" y1="1018.59" x2="550.05" y2="1028.95"/>
    <line class="st2" x1="578.41" y1="1008.69" x2="559.95" y2="1008.69"/>
    <line class="st2" x1="550.05" y1="1028.95" x2="550.05" y2="1018.59"/>
    <line class="st2" x1="559.95" y1="1008.69" x2="578.41" y2="1008.69"/>
    <polyline class="st2" points="458.78 1037.5 458.78 969.46 466.93 969.46"/>
    <line class="st2" x1="458.78" y1="1037.5" x2="527.01" y2="1037.5"/>
    <line class="st2" x1="527.55" y1="1036.38" x2="527.55" y2="970.06"/>
    <polyline class="st2" points="527.55 1036.38 527.55 1037.5 527.01 1037.5"/>
    <polyline class="st2" points="526.54 969.46 527.55 969.46 527.55 970.06"/>
    <line class="st2" x1="526.54" y1="969.46" x2="466.93" y2="969.46"/>
    <line class="st2" x1="492.9" y1="1037.5" x2="492.9" y2="1018.6"/>
    <circle class="st2" cx="492.98" cy="1018.69" r="4.23" transform="translate(-220.86 140.52) rotate(-13.28)"/>
    <circle class="st2" cx="492.98" cy="1018.69" r="4.23" transform="translate(-220.86 140.52) rotate(-13.28)"/>
    <path class="st2" d="M513.14,898.37c0,8.24-.01,16.48-.02,24.72,0,9.52-6.85,17.21-15.3,17.21-8.45,0-15.28-7.71-15.28-17.23,0-8.24.01-16.48.02-24.72,10.19,0,20.38.01,30.58.02Z"/>
    <line class="st2" x1="611.43" y1="859.19" x2="458.78" y2="892.96"/>
    <line class="st2" x1="694.29" y1="1105.95" x2="694.37" y2="1105.95"/>
    <polyline class="st2" points="694.37 1105.95 694.29 1105.95 694.29 1109.55 773.09 1109.55"/>
    <line class="st2" x1="564.15" y1="898.26" x2="591.17" y2="898.26"/>
    <line class="st2" x1="611.43" y1="854.23" x2="458.78" y2="854.23"/>
    <polyline class="st2" points="617.73 978.06 617.73 981.22 687.98 981.22"/>
    <line class="st2" x1="540.73" y1="524.16" x2="615.93" y2="524.16"/>
    <line class="st2" x1="615.93" y1="524.16" x2="615.93" y2="520.11"/>
    <line class="st2" x1="615.93" y1="520.11" x2="540.73" y2="520.11"/>
    <line class="st2" x1="540.73" y1="520.11" x2="540.73" y2="524.16"/>
    <line class="st2" x1="619.54" y1="532.27" x2="537.13" y2="532.27"/>
    <line class="st2" x1="540.73" y1="519.66" x2="615.93" y2="519.66"/>
    <line class="st2" x1="540.73" y1="526.42" x2="615.93" y2="526.42"/>
    <line class="st2" x1="619.54" y1="532.27" x2="623.59" y2="532.27"/>
    <line class="st2" x1="623.59" y1="532.27" x2="623.59" y2="519.66"/>
    <line class="st2" x1="623.59" y1="519.66" x2="615.93" y2="519.66"/>
    <line class="st2" x1="615.93" y1="519.66" x2="615.93" y2="526.42"/>
    <line class="st2" x1="615.93" y1="526.42" x2="619.54" y2="526.42"/>
    <line class="st2" x1="619.54" y1="526.42" x2="619.54" y2="532.27"/>
    <line class="st2" x1="533.08" y1="532.27" x2="537.13" y2="532.27"/>
    <line class="st2" x1="537.13" y1="532.27" x2="537.13" y2="526.42"/>
    <line class="st2" x1="537.13" y1="526.42" x2="540.73" y2="526.42"/>
    <line class="st2" x1="540.73" y1="526.42" x2="540.73" y2="519.66"/>
    <line class="st2" x1="540.73" y1="519.66" x2="533.08" y2="519.66"/>
    <line class="st2" x1="533.08" y1="519.66" x2="533.08" y2="532.27"/>
    <line class="st2" x1="623.59" y1="519.66" x2="533.08" y2="519.66"/>
    <line class="st2" x1="534.88" y1="519.66" x2="621.79" y2="519.66"/>
    <line class="st2" x1="535.78" y1="519.66" x2="621.34" y2="519.66"/>
    <line class="st2" x1="615.93" y1="519.66" x2="540.73" y2="519.66"/>
    <line class="st2" x1="540.73" y1="519.66" x2="615.93" y2="519.66"/>
    <line class="st2" x1="628.99" y1="524.16" x2="711.4" y2="524.16"/>
    <line class="st2" x1="711.4" y1="524.16" x2="711.4" y2="520.11"/>
    <line class="st2" x1="711.4" y1="520.11" x2="628.99" y2="520.11"/>
    <line class="st2" x1="628.99" y1="520.11" x2="628.99" y2="524.16"/>
    <line class="st2" x1="711.4" y1="532.27" x2="628.99" y2="532.27"/>
    <line class="st2" x1="628.99" y1="519.66" x2="711.4" y2="519.66"/>
    <line class="st2" x1="624.94" y1="532.27" x2="628.99" y2="532.27"/>
    <line class="st2" x1="628.99" y1="532.27" x2="628.99" y2="519.66"/>
    <line class="st2" x1="628.99" y1="519.66" x2="624.94" y2="519.66"/>
    <line class="st2" x1="624.94" y1="519.66" x2="624.94" y2="532.27"/>
    <line class="st2" x1="711.4" y1="532.27" x2="715.45" y2="532.27"/>
    <line class="st2" x1="715.45" y1="532.27" x2="715.45" y2="519.66"/>
    <line class="st2" x1="715.45" y1="519.66" x2="711.4" y2="519.66"/>
    <line class="st2" x1="711.4" y1="519.66" x2="711.4" y2="532.27"/>
    <path class="st2" d="M773.09,1030.75c-20.71,0-40.98,8.56-55.39,22.97-14.86,14.86-23.42,35.12-23.42,55.84"/>
    <line class="st2" x1="694.29" y1="1109.55" x2="694.29" y2="1105.95"/>
    <line class="st2" x1="773.09" y1="1109.55" x2="694.29" y2="1109.55"/>
    <line class="st2" x1="773.09" y1="1109.55" x2="773.09" y2="1030.75"/>
    <line class="st2" x1="611.43" y1="908.72" x2="611.43" y2="907.37"/>
    <line class="st2" x1="506.51" y1="511.11" x2="491.2" y2="511.11"/>
    <line class="st2" x1="790.2" y1="1113.15" x2="790.2" y2="1112.25"/>
    <line class="st2" x1="790.2" y1="1112.25" x2="790.2" y2="1113.15"/>
    <line class="st2" x1="617.73" y1="859.19" x2="617.73" y2="860.09"/>
    <line class="st2" x1="458.78" y1="859.19" x2="611.43" y2="859.19"/>
    <line class="st2" x1="611.43" y1="908.72" x2="611.43" y2="907.37"/>
    <g>
      <path class="st2" d="M516.42,620.53c13.06-4.95,23.87-14.41,30.17-27.02"/>
      <path class="st2" d="M536.23,581.8c-2.7-2.7-5.4-5.85-8.56-8.11"/>
      <path class="st2" d="M527.68,573.7c-6.3-4.05-14.41-4.05-20.71,0"/>
      <path class="st2" d="M506.96,573.7c-.9.9-2.25,1.8-3.15,2.7"/>
      <path class="st2" d="M513.72,565.14c-5.4.45-10.36,2.7-14.41,6.3"/>
      <path class="st2" d="M546.59,593.51c.9-1.35.9-3.15.45-4.95"/>
      <path class="st2" d="M547.04,588.56c-.45-.9-1.35-2.25-1.8-3.15"/>
      <line class="st2" x1="534.43" y1="569.19" x2="545.24" y2="585.4"/>
      <path class="st2" d="M534.43,569.19c-.45,0-.45-.45-.9-.9"/>
      <path class="st2" d="M533.53,568.29c-.9-1.35-2.7-2.25-4.5-2.7"/>
      <path class="st2" d="M529.03,565.59c-4.95-.9-10.36-.9-15.31-.45"/>
      <path class="st2" d="M498.86,599.81c1.8,3.15,4.5,6.3,7.2,9.46"/>
      <path class="st2" d="M501.11,579.1c-4.95,5.85-5.85,13.96-2.25,20.71"/>
      <line class="st2" x1="503.81" y1="576.4" x2="501.11" y2="579.1"/>
      <path class="st2" d="M499.31,571.45c-4.05,3.6-6.75,8.56-7.66,13.51"/>
      <path class="st2" d="M511.46,620.53c1.8.9,3.6.9,4.95,0"/>
      <path class="st2" d="M508.31,618.28c.9.9,2.25,1.8,3.15,2.25"/>
      <line class="st2" x1="493.45" y1="606.12" x2="508.31" y2="618.28"/>
      <path class="st2" d="M492.55,605.22c.45.45.9.45.9.9"/>
      <path class="st2" d="M490.3,600.26c.45,1.8,1.35,3.6,2.25,4.95"/>
      <path class="st2" d="M491.65,584.95c-.9,4.95-1.35,10.36-1.35,15.31"/>
      <rect class="st0" x="546.82" y="543.98" width="32.87" height="32.87"/>
    </g>
    <g>
      <g>
        <g>
          <polygon class="st4" points="719.51 713.15 719.51 644.71 726.71 644.71 763.18 644.71 770.39 644.71 770.39 713.15 763.18 713.15 726.71 713.15 719.51 713.15"/>
          <path class="st4" d="M726.71,713.15h36.47c-1.8,4.51-5.4,8.56-9.9,11.26-.45.45-.45.9-.45,1.35.9.9,1.8,1.35,2.7,1.35,1.35-.45,2.7-1.35,3.6-1.8q.45-.45.9-.45t.9.45q.45,0,.45.45c-9.9,6.76-22.96,6.76-32.87,0q0-.45.45-.45c0-.45.45-.45.9-.45,0,0,.45,0,.9.45.9.45,2.25,1.35,3.15,1.8,1.36,0,2.26-.45,2.71-1.35.45-.45,0-.9-.45-1.35-4.51-2.7-7.66-6.75-9.46-11.26Z"/>
          <path class="st4" d="M763.18,644.71h-36.47c1.8-4.5,4.95-8.56,9.46-11.26.45-.45.9-.9.45-1.35-.45-.9-1.35-1.35-2.71-1.35-.9.45-2.25,1.35-3.15,1.8-.45.45-.9.45-.9.45-.45,0-.9-.45-.9-.45q-.45,0-.45-.45c9.91-7.2,22.97-7.2,32.87,0q0,.45-.45.45c-.45,0-.45.45-.9.45s-.45,0-.9-.45c-.9-.45-2.25-1.35-3.6-1.8-.9,0-1.8.45-2.7,1.35,0,.45,0,.9.45,1.35,4.5,2.7,8.1,6.76,9.9,11.26Z"/>
        </g>
        <path class="st2" d="M728.51,725.93c9.91,6.75,22.97,6.75,32.87,0"/>
        <path class="st2" d="M759.13,632.72q.45.45.9.45"/>
        <path class="st2" d="M760.03,633.17c.45,0,.45-.45.9-.45"/>
        <path class="st2" d="M760.93,632.72q.45,0,.45-.45"/>
        <path class="st2" d="M755.53,630.92c-.9,0-1.8.45-2.7,1.35"/>
        <path class="st2" d="M759.13,632.72c-.9-.45-2.25-1.35-3.6-1.8"/>
        <path class="st2" d="M752.82,632.27c0,.45,0,.9.45,1.35"/>
        <path class="st2" d="M763.18,644.88c-1.8-4.5-5.4-8.56-9.91-11.26"/>
        <path class="st2" d="M729.86,633.17s.45,0,.9-.45"/>
        <path class="st2" d="M728.96,632.72s.45.45.9.45"/>
        <path class="st2" d="M728.51,632.27q0,.45.45.45"/>
        <path class="st2" d="M736.61,632.27c-.45-.9-1.35-1.35-2.7-1.35"/>
        <path class="st2" d="M733.91,630.92c-.9.45-2.25,1.35-3.15,1.8"/>
        <path class="st2" d="M736.16,633.62c.45-.45.9-.9.45-1.35"/>
        <path class="st2" d="M736.16,633.62c-4.5,2.7-7.66,6.75-9.46,11.26"/>
        <path class="st2" d="M761.38,632.27c-9.91-7.2-22.97-7.2-32.87,0"/>
        <line class="st2" x1="770.39" y1="713.32" x2="719.5" y2="713.32"/>
        <line class="st2" x1="719.5" y1="644.88" x2="770.39" y2="644.88"/>
        <line class="st2" x1="719.5" y1="644.88" x2="719.5" y2="713.32"/>
        <path class="st2" d="M760.03,725.03q-.45,0-.9.45"/>
        <path class="st2" d="M760.93,725.48q-.45-.45-.9-.45"/>
        <path class="st2" d="M761.38,725.93q0-.45-.45-.45"/>
        <path class="st2" d="M752.82,725.93c.9.9,1.8,1.35,2.7,1.35"/>
        <path class="st2" d="M755.53,727.28c1.35-.45,2.7-1.35,3.6-1.8"/>
        <path class="st2" d="M753.27,724.58c-.45.45-.45.9-.45,1.35"/>
        <path class="st2" d="M753.27,724.58c4.5-2.7,8.11-6.75,9.91-11.26"/>
        <path class="st2" d="M730.76,725.48c-.45-.45-.9-.45-.9-.45"/>
        <path class="st2" d="M729.86,725.03c-.45,0-.9,0-.9.45"/>
        <path class="st2" d="M728.96,725.48q-.45,0-.45.45"/>
        <path class="st2" d="M733.91,727.28c1.35,0,2.25-.45,2.7-1.35"/>
        <path class="st2" d="M730.76,725.48c.9.45,2.25,1.35,3.15,1.8"/>
        <path class="st2" d="M736.61,725.93c.45-.45,0-.9-.45-1.35"/>
        <path class="st2" d="M726.71,713.32c1.8,4.5,4.95,8.56,9.46,11.26"/>
      </g>
      <line class="st1" x1="770.39" y1="713.15" x2="770.39" y2="644.88"/>
    </g>
    <g>
      <g>
        <g>
          <polygon class="st4" points="669.2 713.15 669.2 644.71 676.4 644.71 712.87 644.71 720.08 644.71 720.08 713.15 712.87 713.15 676.4 713.15 669.2 713.15"/>
          <path class="st4" d="M676.4,713.15h36.47c-1.8,4.51-5.4,8.56-9.9,11.26-.45.45-.45.9-.45,1.35.9.9,1.8,1.35,2.7,1.35,1.35-.45,2.7-1.35,3.6-1.8q.45-.45.9-.45t.9.45q.45,0,.45.45c-9.9,6.76-22.96,6.76-32.87,0q0-.45.45-.45c0-.45.45-.45.9-.45,0,0,.45,0,.9.45.9.45,2.25,1.35,3.15,1.8,1.36,0,2.26-.45,2.71-1.35.45-.45,0-.9-.45-1.35-4.51-2.7-7.66-6.75-9.46-11.26Z"/>
          <path class="st4" d="M712.87,644.71h-36.47c1.8-4.5,4.95-8.56,9.46-11.26.45-.45.9-.9.45-1.35-.45-.9-1.35-1.35-2.71-1.35-.9.45-2.25,1.35-3.15,1.8-.45.45-.9.45-.9.45-.45,0-.9-.45-.9-.45q-.45,0-.45-.45c9.91-7.2,22.97-7.2,32.87,0q0,.45-.45.45c-.45,0-.45.45-.9.45s-.45,0-.9-.45c-.9-.45-2.25-1.35-3.6-1.8-.9,0-1.8.45-2.7,1.35,0,.45,0,.9.45,1.35,4.5,2.7,8.1,6.76,9.9,11.26Z"/>
        </g>
        <path class="st2" d="M678.2,725.93c9.91,6.75,22.97,6.75,32.87,0"/>
        <path class="st2" d="M708.82,632.72q.45.45.9.45"/>
        <path class="st2" d="M709.72,633.17c.45,0,.45-.45.9-.45"/>
        <path class="st2" d="M710.62,632.72q.45,0,.45-.45"/>
        <path class="st2" d="M705.22,630.92c-.9,0-1.8.45-2.7,1.35"/>
        <path class="st2" d="M708.82,632.72c-.9-.45-2.25-1.35-3.6-1.8"/>
        <path class="st2" d="M702.52,632.27c0,.45,0,.9.45,1.35"/>
        <path class="st2" d="M712.87,644.88c-1.8-4.5-5.4-8.56-9.91-11.26"/>
        <path class="st2" d="M679.55,633.17s.45,0,.9-.45"/>
        <path class="st2" d="M678.65,632.72s.45.45.9.45"/>
        <path class="st2" d="M678.2,632.27q0,.45.45.45"/>
        <path class="st2" d="M686.31,632.27c-.45-.9-1.35-1.35-2.7-1.35"/>
        <path class="st2" d="M683.6,630.92c-.9.45-2.25,1.35-3.15,1.8"/>
        <path class="st2" d="M685.86,633.62c.45-.45.9-.9.45-1.35"/>
        <path class="st2" d="M685.86,633.62c-4.5,2.7-7.66,6.75-9.46,11.26"/>
        <path class="st2" d="M711.07,632.27c-9.91-7.2-22.97-7.2-32.87,0"/>
        <line class="st2" x1="720.08" y1="713.32" x2="669.19" y2="713.32"/>
        <line class="st2" x1="669.19" y1="644.88" x2="720.08" y2="644.88"/>
        <line class="st2" x1="669.19" y1="644.88" x2="669.19" y2="713.32"/>
        <path class="st2" d="M709.72,725.03q-.45,0-.9.45"/>
        <path class="st2" d="M710.62,725.48q-.45-.45-.9-.45"/>
        <path class="st2" d="M711.07,725.93q0-.45-.45-.45"/>
        <path class="st2" d="M702.52,725.93c.9.9,1.8,1.35,2.7,1.35"/>
        <path class="st2" d="M705.22,727.28c1.35-.45,2.7-1.35,3.6-1.8"/>
        <path class="st2" d="M702.97,724.58c-.45.45-.45.9-.45,1.35"/>
        <path class="st2" d="M702.97,724.58c4.5-2.7,8.11-6.75,9.91-11.26"/>
        <path class="st2" d="M680.45,725.48c-.45-.45-.9-.45-.9-.45"/>
        <path class="st2" d="M679.55,725.03c-.45,0-.9,0-.9.45"/>
        <path class="st2" d="M678.65,725.48q-.45,0-.45.45"/>
        <path class="st2" d="M683.6,727.28c1.35,0,2.25-.45,2.7-1.35"/>
        <path class="st2" d="M680.45,725.48c.9.45,2.25,1.35,3.15,1.8"/>
        <path class="st2" d="M686.31,725.93c.45-.45,0-.9-.45-1.35"/>
        <path class="st2" d="M676.4,713.32c1.8,4.5,4.95,8.56,9.46,11.26"/>
      </g>
      <line class="st1" x1="720.08" y1="713.15" x2="720.08" y2="644.88"/>
    </g>
    <rect class="st0" x="669.19" y="644.88" width="101.19" height="69.36"/>
  </g>
  <g id="pareti">
    <g>
      <path class="st5" d="M790.2,1113.16v17.11l-10.81,10.81h-167.51v-97.27h-169.76v-431.83h-.9v-100.87h90.51v40.08h-50.44v91.86h-22.51v211.19h158.95v54.48h-6.3v-10.36h-152.65v139.15h152.65v-53.59h6.3v150.85h155.36v-22.51h17.11v.9ZM611.43,892.96v-33.77h-152.65v33.77h152.65Z"/>
      <polygon class="st5" points="790.2 1027.15 790.2 1028.5 773.09 1028.5 773.09 551.19 716.8 551.19 716.8 520.11 716.8 511.11 781.64 511.11 781.64 1009.59 790.2 1018.14 790.2 1027.15"/>
      <rect class="st5" x="458.78" y="859.19" width="152.65" height="33.77"/>
    </g>
  </g>
  <g id="letto">
    <g>
      <g>
        <polygon class="st4" points="460.09 683.55 460.09 683.11 537.6 683.11 537.6 831.39 536.62 830.9 536.62 683.55 460.09 683.55"/>
        <path class="st4" d="M460.09,793.03v-109.48h76.53v147.35l-17.01-8.41c-7.31-3.62-13.36-6.61-18.37-9.09l-2.63-1.3c-5.59-2.77-9.73-4.82-12.79-6.34l-1.16-.57-7.56-3.74-17.01-8.42Z"/>
        <path class="st4" d="M460.09,853.63v-60.6l17.01,8.42v30.18c0,1.94,1.56,3.51,3.5,3.51h35.51c1.94,0,3.5-1.57,3.5-3.51v-9.14l17.01,8.41v22.73h-76.53Z"/>
        <path class="st4" d="M477.1,831.63v-30.18l7.56,3.74c.37.19.75.38,1.16.57,3.06,1.52,7.2,3.57,12.79,6.34.85.41,1.72.85,2.63,1.3,5.01,2.48,11.06,5.47,18.37,9.09v9.14c0,1.94-1.56,3.51-3.5,3.51h-35.51c-1.94,0-3.5-1.57-3.5-3.51Z"/>
      </g>
      <g>
        <polyline class="st1" points="536.62 830.9 536.62 853.63 460.09 853.63 460.09 793.03"/>
        <polyline class="st1" points="519.61 822.49 536.62 830.9 537.6 831.39 537.6 683.11 460.09 683.11 460.09 683.55 460.09 793.03 477.1 801.45"/>
        <line class="st1" x1="498.61" y1="812.1" x2="501.24" y2="813.4"/>
        <line class="st1" x1="484.66" y1="805.19" x2="485.82" y2="805.76"/>
        <line class="st1" x1="516.11" y1="835.14" x2="480.6" y2="835.14"/>
        <path class="st1" d="M480.6,835.14c-1.94,0-3.5-1.57-3.5-3.51"/>
        <path class="st1" d="M519.61,831.63c0,1.94-1.56,3.51-3.5,3.51"/>
        <path class="st1" d="M519.61,831.63v-9.14c-7.31-3.62-13.36-6.61-18.37-9.09-.91-.45-1.78-.89-2.63-1.3-5.59-2.77-9.73-4.82-12.79-6.34-.41-.19-.79-.38-1.16-.57l-7.56-3.74v30.18"/>
      </g>
    </g>
    <g>
      <g>
        <rect class="st4" x="617.55" y="1023.89" width="55.54" height="55.15" transform="translate(1696.78 406.14) rotate(90)"/>
        <line class="st3" x1="672.89" y1="1079.23" x2="672.89" y2="1077.67"/>
        <line class="st3" x1="672.89" y1="1074.93" x2="672.89" y2="1072.19"/>
        <line class="st3" x1="672.89" y1="1069.46" x2="672.89" y2="1066.72"/>
        <line class="st3" x1="672.89" y1="1063.98" x2="672.89" y2="1061.24"/>
        <line class="st3" x1="672.89" y1="1058.5" x2="672.89" y2="1055.77"/>
        <line class="st3" x1="672.89" y1="1053.03" x2="672.89" y2="1049.9"/>
        <line class="st3" x1="672.89" y1="1047.16" x2="672.89" y2="1044.42"/>
        <line class="st3" x1="672.89" y1="1041.68" x2="672.89" y2="1038.95"/>
        <line class="st3" x1="672.89" y1="1036.21" x2="672.89" y2="1033.47"/>
        <line class="st3" x1="672.89" y1="1030.73" x2="672.89" y2="1027.99"/>
        <line class="st3" x1="672.89" y1="1025.26" x2="672.89" y2="1023.69"/>
        <line class="st3" x1="672.89" y1="1023.69" x2="671.72" y2="1023.69"/>
        <line class="st3" x1="668.98" y1="1023.69" x2="666.24" y2="1023.69"/>
        <line class="st3" x1="663.12" y1="1023.69" x2="660.38" y2="1023.69"/>
        <line class="st3" x1="657.64" y1="1023.69" x2="654.9" y2="1023.69"/>
        <line class="st3" x1="652.16" y1="1023.69" x2="649.43" y2="1023.69"/>
        <line class="st3" x1="646.69" y1="1023.69" x2="643.95" y2="1023.69"/>
        <line class="st3" x1="641.21" y1="1023.69" x2="638.47" y2="1023.69"/>
        <line class="st3" x1="635.74" y1="1023.69" x2="632.61" y2="1023.69"/>
        <line class="st3" x1="629.87" y1="1023.69" x2="627.13" y2="1023.69"/>
        <line class="st3" x1="624.39" y1="1023.69" x2="621.65" y2="1023.69"/>
        <line class="st3" x1="618.92" y1="1023.69" x2="617.74" y2="1023.69"/>
        <path class="st3" d="M672.89,1079.23"/>
      </g>
      <g>
        <rect class="st4" x="617.55" y="1079.43" width="55.54" height="55.15" transform="translate(1752.32 461.69) rotate(90)"/>
        <line class="st3" x1="617.74" y1="1134.78" x2="618.92" y2="1134.78"/>
        <line class="st3" x1="621.65" y1="1134.78" x2="624.39" y2="1134.78"/>
        <line class="st3" x1="627.13" y1="1134.78" x2="629.87" y2="1134.78"/>
        <line class="st3" x1="632.61" y1="1134.78" x2="635.74" y2="1134.78"/>
        <line class="st3" x1="638.47" y1="1134.78" x2="641.21" y2="1134.78"/>
        <line class="st3" x1="643.95" y1="1134.78" x2="646.69" y2="1134.78"/>
        <line class="st3" x1="649.43" y1="1134.78" x2="652.16" y2="1134.78"/>
        <line class="st3" x1="654.9" y1="1134.78" x2="657.64" y2="1134.78"/>
        <line class="st3" x1="660.38" y1="1134.78" x2="663.12" y2="1134.78"/>
        <line class="st3" x1="666.24" y1="1134.78" x2="668.98" y2="1134.78"/>
        <line class="st3" x1="671.72" y1="1134.78" x2="672.89" y2="1134.78"/>
        <line class="st3" x1="672.89" y1="1134.78" x2="672.89" y2="1133.21"/>
        <line class="st3" x1="672.89" y1="1130.47" x2="672.89" y2="1127.74"/>
        <line class="st3" x1="672.89" y1="1125" x2="672.89" y2="1122.26"/>
        <line class="st3" x1="672.89" y1="1119.52" x2="672.89" y2="1116.78"/>
        <line class="st3" x1="672.89" y1="1114.05" x2="672.89" y2="1111.31"/>
        <line class="st3" x1="672.89" y1="1108.57" x2="672.89" y2="1105.44"/>
        <line class="st3" x1="672.89" y1="1102.7" x2="672.89" y2="1099.96"/>
        <line class="st3" x1="672.89" y1="1097.23" x2="672.89" y2="1094.49"/>
        <line class="st3" x1="672.89" y1="1091.75" x2="672.89" y2="1089.01"/>
        <line class="st3" x1="672.89" y1="1086.27" x2="672.89" y2="1083.54"/>
        <line class="st3" x1="672.89" y1="1080.8" x2="672.89" y2="1079.23"/>
        <line class="st3" x1="672.89" y1="1079.23" x2="671.72" y2="1079.23"/>
        <line class="st3" x1="668.98" y1="1079.23" x2="666.24" y2="1079.23"/>
        <line class="st3" x1="663.12" y1="1079.23" x2="660.38" y2="1079.23"/>
        <line class="st3" x1="657.64" y1="1079.23" x2="654.9" y2="1079.23"/>
        <line class="st3" x1="652.16" y1="1079.23" x2="649.43" y2="1079.23"/>
        <line class="st3" x1="646.69" y1="1079.23" x2="643.95" y2="1079.23"/>
        <line class="st3" x1="641.21" y1="1079.23" x2="638.47" y2="1079.23"/>
        <line class="st3" x1="635.74" y1="1079.23" x2="632.61" y2="1079.23"/>
        <line class="st3" x1="629.87" y1="1079.23" x2="627.13" y2="1079.23"/>
        <line class="st3" x1="624.39" y1="1079.23" x2="621.65" y2="1079.23"/>
        <line class="st3" x1="618.92" y1="1079.23" x2="617.74" y2="1079.23"/>
        <path class="st3" d="M672.89,1134.78"/>
        <line class="st3" x1="672.89" y1="1134.78" x2="671.72" y2="1134.78"/>
        <line class="st3" x1="668.98" y1="1134.78" x2="666.24" y2="1134.78"/>
        <line class="st3" x1="663.12" y1="1134.78" x2="660.38" y2="1134.78"/>
        <line class="st3" x1="657.64" y1="1134.78" x2="654.9" y2="1134.78"/>
        <line class="st3" x1="652.16" y1="1134.78" x2="649.43" y2="1134.78"/>
        <line class="st3" x1="646.69" y1="1134.78" x2="643.95" y2="1134.78"/>
        <line class="st3" x1="641.21" y1="1134.78" x2="638.47" y2="1134.78"/>
        <line class="st3" x1="635.74" y1="1134.78" x2="632.61" y2="1134.78"/>
        <line class="st3" x1="629.87" y1="1134.78" x2="627.13" y2="1134.78"/>
        <line class="st3" x1="624.39" y1="1134.78" x2="621.65" y2="1134.78"/>
        <line class="st3" x1="618.92" y1="1134.78" x2="617.74" y2="1134.78"/>
      </g>
    </g>
    <circle class="st0" cx="564.48" cy="834.08" r="15.2"/>
  </g>
</svg>