<?xml version="1.0" encoding="UTF-8"?>
<svg xmlns="http://www.w3.org/2000/svg" version="1.1" viewBox="0 0 1200 1697.14">
  <!-- Generator: Adobe Illustrator 29.6.0, SVG Export Plug-In . SVG Version: 2.1.1 Build 207)  -->
  <defs>
    <style>
      .st0, .st1 {
        stroke: #0d101f;
      }

      .st0, .st1, .st2, .st3, .st4 {
        stroke-linecap: round;
        stroke-linejoin: round;
        stroke-width: .15px;
      }

      .st0, .st2, .st5 {
        fill: #fff;
      }

      .st1, .st3, .st4 {
        fill: none;
      }

      .st2, .st3 {
        stroke: #1d1d1b;
      }

      .st6 {
        fill: #383037;
      }

      .st4 {
        stroke: #11100e;
      }

      .st7 {
        fill: #f2efed;
      }
    </style>
  </defs>
  <g id="sfondo">
    <g>
      <polygon class="st7" points="723.95 641.27 682.98 641.27 682.98 610.21 682.98 600.75 708.19 600.75 713.14 600.75 718.55 600.75 763.57 600.75 763.57 672.34 772.12 672.34 772.12 1172.97 765.82 1179.27 556.92 1179.27 556.92 1162.16 557.82 1162.16 635.71 1162.16 635.71 1110.39 635.71 1109.04 642.01 1109.04 642.01 1110.39 642.01 1150.01 642.01 1162.16 765.37 1162.16 765.37 1023.95 642.01 1023.95 642.01 1024.85 642.01 1032.95 642.01 1033.85 635.71 1033.85 635.71 1032.95 635.71 1019 642.01 1019 765.82 1019 765.82 984.78 642.01 984.78 635.71 984.78 635.71 979.83 642.01 979.83 765.82 979.83 765.82 712.41 723.95 712.41 723.95 641.27"/>
      <polygon class="st7" points="765.82 984.78 765.82 1019 642.01 1019 635.71 1019 635.71 1032.95 635.71 1033.85 642.01 1033.85 642.01 1032.95 642.01 1024.85 642.01 1023.95 765.37 1023.95 765.37 1162.16 642.01 1162.16 642.01 1150.01 642.01 1110.39 642.01 1109.04 635.71 1109.04 635.71 1110.39 635.71 1162.16 557.82 1162.16 556.92 1162.16 556.92 1179.27 473.18 1179.27 473.18 1162.16 472.28 1162.16 471.83 1162.16 463.73 1162.16 463.73 641.27 498.39 641.27 498.39 600.75 473.18 600.75 473.18 512.51 708.19 512.51 708.19 600.75 682.98 600.75 682.98 610.21 682.98 641.27 723.95 641.27 723.95 712.41 765.82 712.41 765.82 979.83 642.01 979.83 635.71 979.83 635.71 984.78 642.01 984.78 765.82 984.78"/>
      <polygon class="st7" points="713.14 599.4 713.14 600.75 708.19 600.75 708.19 512.51 473.18 512.51 473.18 600.75 468.23 600.75 468.23 507.56 713.14 507.56 713.14 599.4"/>
      <polygon class="st7" points="498.39 600.75 498.39 641.27 463.73 641.27 463.73 1162.16 471.83 1162.16 472.28 1162.16 473.18 1162.16 473.18 1179.27 472.28 1179.27 455.17 1179.27 455.17 600.75 468.23 600.75 473.18 600.75 498.39 600.75"/>
    </g>
  </g>
  <g id="letto">
    <g>
      <g>
        <polygon class="st5" points="687.18 807.96 687.18 807.52 764.69 807.52 764.69 955.8 763.71 955.31 763.71 807.96 687.18 807.96"/>
        <path class="st5" d="M687.18,917.44v-109.48h76.53v147.35l-17.01-8.41c-7.31-3.62-13.36-6.61-18.37-9.09l-2.63-1.3c-5.59-2.77-9.73-4.82-12.79-6.34l-1.16-.57-7.56-3.74-17.01-8.42Z"/>
        <path class="st5" d="M687.18,978.04v-60.6l17.01,8.42v30.18c0,1.94,1.56,3.51,3.5,3.51h35.51c1.94,0,3.5-1.57,3.5-3.51v-9.14l17.01,8.41v22.73h-76.53Z"/>
        <path class="st5" d="M704.19,956.04v-30.18l7.56,3.74c.37.19.75.38,1.16.57,3.06,1.52,7.2,3.57,12.79,6.34.85.41,1.72.85,2.63,1.3,5.01,2.48,11.06,5.47,18.37,9.09v9.14c0,1.94-1.56,3.51-3.5,3.51h-35.51c-1.94,0-3.5-1.57-3.5-3.51Z"/>
      </g>
      <g>
        <polyline class="st1" points="763.71 955.31 763.71 978.04 687.18 978.04 687.18 917.44"/>
        <polyline class="st1" points="746.7 946.9 763.71 955.31 764.69 955.8 764.69 807.52 687.18 807.52 687.18 807.96 687.18 917.44 704.19 925.86"/>
        <line class="st1" x1="725.7" y1="936.51" x2="728.33" y2="937.81"/>
        <line class="st1" x1="711.75" y1="929.6" x2="712.91" y2="930.17"/>
        <line class="st1" x1="743.2" y1="959.55" x2="707.69" y2="959.55"/>
        <path class="st1" d="M707.69,959.55c-1.94,0-3.5-1.57-3.5-3.51"/>
        <path class="st1" d="M746.7,956.04c0,1.94-1.56,3.51-3.5,3.51"/>
        <path class="st1" d="M746.7,956.04v-9.14c-7.31-3.62-13.36-6.61-18.37-9.09-.91-.45-1.78-.89-2.63-1.3-5.59-2.77-9.73-4.82-12.79-6.34-.41-.19-.79-.38-1.16-.57l-7.56-3.74v30.18"/>
      </g>
    </g>
    <rect class="st0" x="625.33" y="633.63" width="32.87" height="32.87"/>
    <g>
      <rect class="st5" x="579.5" y="1109.9" width="55.54" height="55.15"/>
      <line class="st4" x1="635.04" y1="1109.9" x2="633.47" y2="1109.9"/>
      <line class="st4" x1="630.73" y1="1109.9" x2="628" y2="1109.9"/>
      <line class="st4" x1="625.26" y1="1109.9" x2="622.52" y2="1109.9"/>
      <line class="st4" x1="619.78" y1="1109.9" x2="617.04" y2="1109.9"/>
      <line class="st4" x1="614.31" y1="1109.9" x2="611.57" y2="1109.9"/>
      <line class="st4" x1="608.83" y1="1109.9" x2="605.7" y2="1109.9"/>
      <line class="st4" x1="602.96" y1="1109.9" x2="600.23" y2="1109.9"/>
      <line class="st4" x1="597.49" y1="1109.9" x2="594.75" y2="1109.9"/>
      <line class="st4" x1="592.01" y1="1109.9" x2="589.27" y2="1109.9"/>
      <line class="st4" x1="586.54" y1="1109.9" x2="583.8" y2="1109.9"/>
      <line class="st4" x1="581.06" y1="1109.9" x2="579.5" y2="1109.9"/>
      <line class="st4" x1="579.5" y1="1109.9" x2="579.5" y2="1111.08"/>
      <line class="st4" x1="579.5" y1="1113.81" x2="579.5" y2="1116.55"/>
      <line class="st4" x1="579.5" y1="1119.68" x2="579.5" y2="1122.42"/>
      <line class="st4" x1="579.5" y1="1125.16" x2="579.5" y2="1127.9"/>
      <line class="st4" x1="579.5" y1="1130.63" x2="579.5" y2="1133.37"/>
      <line class="st4" x1="579.5" y1="1136.11" x2="579.5" y2="1138.85"/>
      <line class="st4" x1="579.5" y1="1141.59" x2="579.5" y2="1144.32"/>
      <line class="st4" x1="579.5" y1="1147.06" x2="579.5" y2="1150.19"/>
      <line class="st4" x1="579.5" y1="1152.93" x2="579.5" y2="1155.67"/>
      <line class="st4" x1="579.5" y1="1158.4" x2="579.5" y2="1161.14"/>
      <line class="st4" x1="579.5" y1="1163.88" x2="579.5" y2="1165.05"/>
      <path class="st4" d="M635.04,1109.9"/>
    </g>
  </g>
  <g id="bianchi">
    <rect class="st5" x="663.61" y="1023.81" width="27.01" height="2.18"/>
    <rect class="st5" x="658.21" y="1025.76" width="37.82" height="1.35"/>
    <rect class="st5" x="696.59" y="1094.14" width="71.63" height="71.63"/>
    <rect class="st5" x="473.17" y="1162.18" width="85.4" height="28.08"/>
    <rect class="st2" x="496.13" y="609.32" width="194.46" height="12.61"/>
  </g>
  <g id="pareti">
    <g>
      <polygon class="st6" points="723.94 641.29 682.97 641.29 682.97 610.23 682.97 600.77 708.18 600.77 713.13 600.77 718.53 600.77 763.55 600.77 763.55 672.35 772.11 672.35 772.11 1172.99 765.81 1179.29 556.91 1179.29 556.91 1162.18 557.81 1162.18 635.7 1162.18 635.7 1110.41 635.7 1109.06 642 1109.06 642 1110.41 642 1150.03 642 1162.18 765.36 1162.18 765.36 1023.97 642 1023.97 642 1024.87 642 1032.97 642 1033.87 635.7 1033.87 635.7 1032.97 635.7 1019.01 642 1019.01 765.81 1019.01 765.81 984.8 642 984.8 635.7 984.8 635.7 979.85 642 979.85 765.81 979.85 765.81 712.42 723.94 712.42 723.94 641.29"/>
      <polygon class="st6" points="713.13 599.42 713.13 600.77 708.18 600.77 708.18 512.53 473.17 512.53 473.17 600.77 468.22 600.77 468.22 507.58 713.13 507.58 713.13 599.42"/>
      <polygon class="st6" points="498.38 600.77 498.38 641.29 463.72 641.29 463.72 1162.18 471.82 1162.18 472.27 1162.18 473.17 1162.18 473.17 1179.29 472.27 1179.29 455.16 1179.29 455.16 600.77 468.22 600.77 473.17 600.77 498.38 600.77"/>
    </g>
  </g>
  <g id="Livello_1">
    <circle class="st3" cx="730.79" cy="1143.37" r="4.23" transform="translate(-243.14 198.49) rotate(-13.28)"/>
    <circle class="st3" cx="730.79" cy="1143.37" r="4.23" transform="translate(-243.14 198.49) rotate(-13.28)"/>
    <line class="st3" x1="730.7" y1="1162.18" x2="730.7" y2="1143.28"/>
    <line class="st3" x1="764.35" y1="1094.14" x2="704.74" y2="1094.14"/>
    <polyline class="st3" points="764.35 1094.14 765.36 1094.14 765.36 1094.74"/>
    <polyline class="st3" points="765.36 1161.05 765.36 1162.18 764.82 1162.18"/>
    <line class="st3" x1="765.36" y1="1161.05" x2="765.36" y2="1094.74"/>
    <line class="st3" x1="696.59" y1="1162.18" x2="764.82" y2="1162.18"/>
    <polyline class="st3" points="696.59 1162.18 696.59 1094.14 704.74 1094.14"/>
    <g>
      <path class="st5" d="M741.52,1023.94v24.72c0,9.52-6.84,17.22-15.29,17.22s-15.29-7.7-15.29-17.22v-24.72h30.58Z"/>
      <path class="st3" d="M741.52,1023.94v24.72c0,9.52-6.84,17.22-15.29,17.22s-15.29-7.7-15.29-17.22v-24.72h30.58Z"/>
    </g>
    <line class="st3" x1="658.21" y1="1027.11" x2="696.03" y2="1027.11"/>
    <line class="st3" x1="696.03" y1="1027.11" x2="696.03" y2="1025.76"/>
    <line class="st3" x1="696.03" y1="1025.76" x2="658.21" y2="1025.76"/>
    <line class="st3" x1="658.21" y1="1025.76" x2="658.21" y2="1027.11"/>
    <line class="st3" x1="663.61" y1="1025.76" x2="663.61" y2="1023.96"/>
    <line class="st3" x1="690.62" y1="1023.96" x2="690.62" y2="1025.76"/>
    <g>
      <rect class="st5" x="438.25" y="961.87" width="103.54" height="52.59" transform="translate(1478.18 498.15) rotate(90)"/>
      <line class="st3" x1="516.31" y1="936.39" x2="464.98" y2="936.39"/>
      <line class="st3" x1="516.31" y1="1038.14" x2="516.31" y2="936.39"/>
      <line class="st3" x1="470.18" y1="964.21" x2="482.65" y2="964.21"/>
      <line class="st3" x1="501.88" y1="1015.43" x2="501.88" y2="1027.62"/>
      <line class="st3" x1="478.96" y1="1015.43" x2="478.96" y2="1027.62"/>
      <line class="st3" x1="484.98" y1="1021.44" x2="472.79" y2="1021.44"/>
      <line class="st3" x1="508.05" y1="1021.44" x2="495.86" y2="1021.44"/>
      <rect class="st3" x="467.43" y="1008.44" width="45.99" height="26.81"/>
      <rect class="st3" x="475.14" y="948.62" width="31.01" height="31.01"/>
      <rect class="st3" x="467.43" y="940.91" width="46.44" height="46.6"/>
    </g>
    <path class="st3" d="M554.21,1162.18c0-20.71-8.1-40.97-22.96-55.83-14.41-14.41-34.67-22.96-55.38-22.96"/>
    <line class="st3" x1="479.02" y1="1162.18" x2="475.87" y2="1162.18"/>
    <line class="st3" x1="475.87" y1="1162.18" x2="475.87" y2="1083.39"/>
    <path class="st3" d="M635.7,1036.57c-18.46,0-36.47,7.2-49.52,20.26-13.06,13.51-20.71,31.06-20.71,49.97"/>
    <line class="st3" x1="635.7" y1="1103.2" x2="635.7" y2="1106.8"/>
    <line class="st3" x1="635.7" y1="1106.8" x2="565.46" y2="1106.8"/>
    <line class="st3" x1="637.95" y1="1017.66" x2="637.95" y2="985.7"/>
    <line class="st3" x1="637.95" y1="985.7" x2="635.7" y2="985.7"/>
    <line class="st3" x1="635.7" y1="985.7" x2="635.7" y2="1017.66"/>
    <line class="st3" x1="635.7" y1="1017.66" x2="637.95" y2="1017.66"/>
    <line class="st3" x1="635.7" y1="1019.01" x2="635.7" y2="1017.66"/>
    <line class="st3" x1="635.7" y1="985.7" x2="635.7" y2="984.8"/>
    <polyline class="st3" points="475.87 1083.39 475.87 1162.18 479.02 1162.18"/>
    <polyline class="st3" points="565.46 1106.8 635.7 1106.8 635.7 1103.2"/>
    <line class="st3" x1="635.7" y1="1103.2" x2="635.7" y2="1036.57"/>
    <line class="st3" x1="635.7" y1="1103.2" x2="635.7" y2="1036.57"/>
    <line class="st3" x1="642" y1="1023.96" x2="642" y2="1024.86"/>
    <line class="st3" x1="746" y1="1013.61" x2="746" y2="1013.52"/>
    <path class="st3" d="M746,1013.61s0-.06,0-.09"/>
    <line class="st3" x1="723.94" y1="641.29" x2="723.94" y2="640.84"/>
    <line class="st3" x1="479.02" y1="1162.18" x2="554.21" y2="1162.18"/>
    <line class="st3" x1="479.02" y1="1162.18" x2="554.21" y2="1162.18"/>
    <path class="st3" d="M590.23,609.32c0-23.41-9-45.92-25.66-62.13-16.66-16.66-39.17-26.11-62.58-26.11"/>
    <path class="st3" d="M679.37,521.08c-23.41,0-45.92,9.45-62.58,26.11-16.66,16.21-25.66,38.72-25.66,62.13"/>
    <line class="st3" x1="679.37" y1="609.32" x2="679.37" y2="521.08"/>
    <line class="st3" x1="501.99" y1="609.32" x2="501.99" y2="521.08"/>
    <line class="st3" x1="507.39" y1="614.27" x2="585.27" y2="614.27"/>
    <line class="st3" x1="585.27" y1="614.27" x2="585.27" y2="610.22"/>
    <line class="st3" x1="585.27" y1="610.22" x2="507.39" y2="610.22"/>
    <line class="st3" x1="507.39" y1="610.22" x2="507.39" y2="614.27"/>
    <line class="st3" x1="596.08" y1="614.27" x2="673.97" y2="614.27"/>
    <line class="st3" x1="673.97" y1="614.27" x2="673.97" y2="610.22"/>
    <line class="st3" x1="673.97" y1="610.22" x2="596.08" y2="610.22"/>
    <line class="st3" x1="596.08" y1="610.22" x2="596.08" y2="614.27"/>
    <line class="st3" x1="677.57" y1="621.93" x2="503.79" y2="621.93"/>
    <line class="st3" x1="507.39" y1="609.32" x2="585.27" y2="609.32"/>
    <line class="st3" x1="596.08" y1="609.32" x2="673.97" y2="609.32"/>
    <line class="st3" x1="507.39" y1="616.07" x2="585.27" y2="616.07"/>
    <line class="st3" x1="596.08" y1="616.07" x2="673.97" y2="616.07"/>
    <line class="st3" x1="499.28" y1="621.93" x2="503.79" y2="621.93"/>
    <line class="st3" x1="503.79" y1="621.93" x2="503.79" y2="616.07"/>
    <line class="st3" x1="503.79" y1="616.07" x2="507.39" y2="616.07"/>
    <line class="st3" x1="507.39" y1="616.07" x2="507.39" y2="609.32"/>
    <line class="st3" x1="507.39" y1="609.32" x2="499.28" y2="609.32"/>
    <line class="st3" x1="499.28" y1="609.32" x2="499.28" y2="621.93"/>
    <line class="st3" x1="596.08" y1="609.32" x2="585.27" y2="609.32"/>
    <line class="st3" x1="585.27" y1="609.32" x2="585.27" y2="616.07"/>
    <line class="st3" x1="585.27" y1="616.07" x2="596.08" y2="616.07"/>
    <line class="st3" x1="596.08" y1="616.07" x2="596.08" y2="609.32"/>
    <line class="st3" x1="677.57" y1="621.93" x2="682.07" y2="621.93"/>
    <line class="st3" x1="682.07" y1="621.93" x2="682.07" y2="609.32"/>
    <line class="st3" x1="682.07" y1="609.32" x2="673.97" y2="609.32"/>
    <line class="st3" x1="673.97" y1="609.32" x2="673.97" y2="616.07"/>
    <line class="st3" x1="673.97" y1="616.07" x2="677.57" y2="616.07"/>
    <line class="st3" x1="677.57" y1="616.07" x2="677.57" y2="621.93"/>
    <line class="st3" x1="642.45" y1="1019.01" x2="642.45" y2="984.8"/>
    <line class="st3" x1="682.97" y1="621.93" x2="682.07" y2="621.93"/>
    <line class="st3" x1="499.28" y1="621.93" x2="498.38" y2="621.93"/>
    <line class="st3" x1="642.45" y1="984.8" x2="642.45" y2="1019.01"/>
    <line class="st3" x1="642.45" y1="1019.01" x2="765.81" y2="984.8"/>
    <line class="st3" x1="642.45" y1="984.8" x2="765.81" y2="1019.01"/>
    <g>
      <path class="st5" d="M659.98,675.06c-.45,1.8,0,3.6.45,4.95,6.3,12.15,17.1,22.06,30.16,27.01,1.8.45,3.6.45,4.95,0s2.25-1.35,3.15-2.25l14.86-12.16c.45-.45.45-.9.9-.9,1.35-1.35,2.25-3.15,2.25-4.95.45-5.4-.45-10.35-1.35-15.31-.9-5.4-3.6-9.9-7.65-13.5s-9.01-5.86-14.41-6.31c-4.95-.45-9.9-.45-15.31,0-1.8.45-3.15,1.81-4.5,3.16l-.9.9-10.8,16.2c-.45.9-1.35,2.25-1.8,3.16Z"/>
      <g>
        <path class="st3" d="M716.7,686.76c0,1.8-.9,3.6-2.25,4.95"/>
        <path class="st3" d="M715.35,671.45c.9,4.96,1.8,9.91,1.35,15.31"/>
        <path class="st3" d="M690.59,707.02c-13.06-4.95-23.86-14.86-30.16-27.01"/>
        <path class="st3" d="M670.78,668.3c2.7-3.15,5.4-5.85,8.55-8.1"/>
        <path class="st3" d="M679.33,660.2c6.31-4.05,14.41-4.05,20.71,0"/>
        <path class="st3" d="M700.04,660.2c1.35.9,2.26,1.8,3.16,2.7"/>
        <path class="st3" d="M693.29,651.64c5.4.45,10.36,2.71,14.41,6.31"/>
        <path class="st3" d="M660.43,680.01c-.45-1.35-.9-3.15-.45-4.95"/>
        <path class="st3" d="M659.98,675.06c.45-.91,1.35-2.26,1.8-3.16"/>
        <line class="st3" x1="672.58" y1="655.7" x2="661.78" y2="671.9"/>
        <path class="st3" d="M672.58,655.7l.9-.9"/>
        <path class="st3" d="M673.48,654.8c1.35-1.35,2.7-2.71,4.5-3.16"/>
        <path class="st3" d="M677.98,651.64c5.41-.45,10.36-.45,15.31,0"/>
        <path class="st3" d="M708.6,686.31c-2.25,3.15-4.5,6.3-7.21,9.45"/>
        <path class="st3" d="M705.9,665.6c4.95,5.85,5.85,13.96,2.7,20.71"/>
        <line class="st3" x1="703.2" y1="662.9" x2="705.9" y2="665.6"/>
        <path class="st3" d="M707.7,657.95c4.05,3.6,6.75,8.1,7.65,13.5"/>
        <path class="st3" d="M695.54,707.02c-1.35.45-3.15.45-4.95,0"/>
        <path class="st3" d="M698.69,704.77c-.9.9-1.8,1.8-3.15,2.25"/>
        <line class="st3" x1="713.55" y1="692.61" x2="698.69" y2="704.77"/>
        <path class="st3" d="M714.45,691.71c-.45,0-.45.45-.9.9"/>
      </g>
    </g>
    <g>
      <g>
        <polygon class="st5" points="516.32 729.08 516.32 797.06 509.11 797.06 472.65 797.06 465.44 797.06 465.44 729.08 472.65 729.08 509.11 729.08 516.32 729.08"/>
        <path class="st5" d="M509.11,729.08h-36.46c1.8-4.95,4.95-9,9.45-11.7.45,0,.9-.9.45-1.36-.45-.9-1.35-1.35-2.7-1.35-.9.9-2.25,1.35-3.15,2.26h-.9c-.45,0-.9,0-.9-.45q-.45,0-.45-.46c9.9-6.75,22.96-6.75,32.86,0q0,.46-.45.46-.45.45-.9.45h-.9c-.9-.91-2.25-1.36-3.6-2.26-.9,0-1.8.45-2.7,1.35,0,.46,0,1.36.45,1.36,4.5,2.7,8.1,6.75,9.9,11.7Z"/>
        <path class="st5" d="M472.65,797.06h36.46c-1.8,4.5-5.4,8.56-9.9,11.26-.45.45-.45.9-.45,1.35.9.9,1.8,1.35,2.7,1.35,1.35-.45,2.7-1.35,3.6-1.8h1.8q.45,0,.45.45c-9.9,7.2-22.96,7.2-32.86,0q0-.45.45-.45h1.8c.9.45,2.25,1.35,3.15,1.8,1.35,0,2.25-.45,2.7-1.35.45-.45,0-.9-.45-1.35-4.5-2.7-7.65-6.76-9.45-11.26Z"/>
      </g>
      <g>
        <path class="st3" d="M507.31,809.67q0-.45-.45-.45"/>
        <line class="st3" x1="516.32" y1="797.06" x2="516.32" y2="729.08"/>
        <path class="st3" d="M475.8,716.93h.9"/>
        <path class="st3" d="M474.9,716.48c0,.45.45.45.9.45"/>
        <path class="st3" d="M474.45,716.02q0,.46.45.46"/>
        <path class="st3" d="M482.55,716.02c-.45-.9-1.35-1.35-2.7-1.35"/>
        <path class="st3" d="M479.85,714.67c-.9.9-2.25,1.35-3.15,2.26"/>
        <path class="st3" d="M482.1,717.38c.45,0,.9-.9.45-1.36"/>
        <path class="st3" d="M482.1,717.38c-4.5,2.7-7.65,6.75-9.45,11.7"/>
        <path class="st3" d="M505.06,716.93h.9"/>
        <path class="st3" d="M505.96,716.93q.45,0,.9-.45"/>
        <path class="st3" d="M506.86,716.48q.45,0,.45-.46"/>
        <path class="st3" d="M501.46,714.67c-.9,0-1.8.45-2.7,1.35"/>
        <path class="st3" d="M505.06,716.93c-.9-.91-2.25-1.36-3.6-2.26"/>
        <path class="st3" d="M498.76,716.02c0,.46,0,1.36.45,1.36"/>
        <path class="st3" d="M509.11,729.08c-1.8-4.95-5.4-9-9.9-11.7"/>
        <path class="st3" d="M507.31,716.02c-9.9-6.75-22.96-6.75-32.86,0"/>
        <path class="st3" d="M476.7,809.22h-.9"/>
        <path class="st3" d="M475.8,809.22h-.9"/>
        <path class="st3" d="M474.9,809.22q-.45,0-.45.45"/>
        <path class="st3" d="M479.85,811.02c1.35,0,2.25-.45,2.7-1.35"/>
        <path class="st3" d="M476.7,809.22c.9.45,2.25,1.35,3.15,1.8"/>
        <path class="st3" d="M482.55,809.67c.45-.45,0-.9-.45-1.35"/>
        <path class="st3" d="M472.65,797.06c1.8,4.5,4.95,8.56,9.45,11.26"/>
        <path class="st3" d="M505.96,809.22h-.9"/>
        <path class="st3" d="M506.86,809.22h-.9"/>
        <path class="st3" d="M498.76,809.67c.9.9,1.8,1.35,2.7,1.35"/>
        <path class="st3" d="M501.46,811.02c1.35-.45,2.7-1.35,3.6-1.8"/>
        <path class="st3" d="M499.21,808.32c-.45.45-.45.9-.45,1.35"/>
        <path class="st3" d="M499.21,808.32c4.5-2.7,8.1-6.76,9.9-11.26"/>
        <path class="st3" d="M474.45,809.67c9.9,7.2,22.96,7.2,32.86,0"/>
        <polyline class="st3" points="465.44 729.08 472.65 729.08 509.11 729.08 516.32 729.08"/>
        <polyline class="st3" points="516.32 797.06 509.11 797.06 472.65 797.06 465.44 797.06"/>
        <line class="st3" x1="465.44" y1="729.08" x2="465.44" y2="797.06"/>
      </g>
    </g>
    <g>
      <g>
        <polygon class="st5" points="565.92 729.08 565.92 797.06 558.71 797.06 522.25 797.06 515.04 797.06 515.04 729.08 522.25 729.08 558.71 729.08 565.92 729.08"/>
        <path class="st5" d="M558.71,729.08h-36.46c1.8-4.95,4.95-9,9.45-11.7.45,0,.9-.9.45-1.36-.45-.9-1.35-1.35-2.7-1.35-.9.9-2.25,1.35-3.15,2.26h-.9c-.45,0-.9,0-.9-.45q-.45,0-.45-.46c9.9-6.75,22.96-6.75,32.86,0q0,.46-.45.46-.45.45-.9.45h-.9c-.9-.91-2.25-1.36-3.6-2.26-.9,0-1.8.45-2.7,1.35,0,.46,0,1.36.45,1.36,4.5,2.7,8.1,6.75,9.9,11.7Z"/>
        <path class="st5" d="M522.25,797.06h36.46c-1.8,4.5-5.4,8.56-9.9,11.26-.45.45-.45.9-.45,1.35.9.9,1.8,1.35,2.7,1.35,1.35-.45,2.7-1.35,3.6-1.8h1.8q.45,0,.45.45c-9.9,7.2-22.96,7.2-32.86,0q0-.45.45-.45h1.8c.9.45,2.25,1.35,3.15,1.8,1.35,0,2.25-.45,2.7-1.35.45-.45,0-.9-.45-1.35-4.5-2.7-7.65-6.76-9.45-11.26Z"/>
      </g>
      <g>
        <path class="st3" d="M556.91,809.67q0-.45-.45-.45"/>
        <line class="st3" x1="565.92" y1="797.06" x2="565.92" y2="729.08"/>
        <path class="st3" d="M525.4,716.93h.9"/>
        <path class="st3" d="M524.5,716.48c0,.45.45.45.9.45"/>
        <path class="st3" d="M524.05,716.02q0,.46.45.46"/>
        <path class="st3" d="M532.15,716.02c-.45-.9-1.35-1.35-2.7-1.35"/>
        <path class="st3" d="M529.45,714.67c-.9.9-2.25,1.35-3.15,2.26"/>
        <path class="st3" d="M531.7,717.38c.45,0,.9-.9.45-1.36"/>
        <path class="st3" d="M531.7,717.38c-4.5,2.7-7.65,6.75-9.45,11.7"/>
        <path class="st3" d="M554.66,716.93h.9"/>
        <path class="st3" d="M555.56,716.93q.45,0,.9-.45"/>
        <path class="st3" d="M556.46,716.48q.45,0,.45-.46"/>
        <path class="st3" d="M551.06,714.67c-.9,0-1.8.45-2.7,1.35"/>
        <path class="st3" d="M554.66,716.93c-.9-.91-2.25-1.36-3.6-2.26"/>
        <path class="st3" d="M548.36,716.02c0,.46,0,1.36.45,1.36"/>
        <path class="st3" d="M558.71,729.08c-1.8-4.95-5.4-9-9.9-11.7"/>
        <path class="st3" d="M556.91,716.02c-9.9-6.75-22.96-6.75-32.86,0"/>
        <path class="st3" d="M526.3,809.22h-.9"/>
        <path class="st3" d="M525.4,809.22h-.9"/>
        <path class="st3" d="M524.5,809.22q-.45,0-.45.45"/>
        <path class="st3" d="M529.45,811.02c1.35,0,2.25-.45,2.7-1.35"/>
        <path class="st3" d="M526.3,809.22c.9.45,2.25,1.35,3.15,1.8"/>
        <path class="st3" d="M532.15,809.67c.45-.45,0-.9-.45-1.35"/>
        <path class="st3" d="M522.25,797.06c1.8,4.5,4.95,8.56,9.45,11.26"/>
        <path class="st3" d="M555.56,809.22h-.9"/>
        <path class="st3" d="M556.46,809.22h-.9"/>
        <path class="st3" d="M548.36,809.67c.9.9,1.8,1.35,2.7,1.35"/>
        <path class="st3" d="M551.06,811.02c1.35-.45,2.7-1.35,3.6-1.8"/>
        <path class="st3" d="M548.81,808.32c-.45.45-.45.9-.45,1.35"/>
        <path class="st3" d="M548.81,808.32c4.5-2.7,8.1-6.76,9.9-11.26"/>
        <path class="st3" d="M524.05,809.67c9.9,7.2,22.96,7.2,32.86,0"/>
        <polyline class="st3" points="515.04 729.08 522.25 729.08 558.71 729.08 565.92 729.08"/>
        <polyline class="st3" points="565.92 797.06 558.71 797.06 522.25 797.06 515.04 797.06"/>
        <line class="st3" x1="515.04" y1="729.08" x2="515.04" y2="797.06"/>
      </g>
    </g>
    <g>
      <g>
        <path class="st5" d="M688.3,1135.61v16.23c0,.61-.37,1.11-.82,1.11h-35.73c-.45,0-.82-.5-.82-1.11v-16.23c0-.61.37-1.11.82-1.11h35.73c.45,0,.82.5.82,1.11ZM672.55,1143.44c0-1.63-1.31-2.94-2.94-2.94s-2.93,1.31-2.93,2.94,1.31,2.93,2.93,2.93,2.94-1.31,2.94-2.93Z"/>
        <path class="st5" d="M669.61,1155.68c1.22,0,2.21.99,2.21,2.21s-.99,2.2-2.21,2.2-2.2-.99-2.2-2.2.99-2.21,2.2-2.21Z"/>
        <path class="st5" d="M671.19,1143.44c0,.87-.7,1.57-1.58,1.57s-1.57-.7-1.57-1.57.7-1.58,1.57-1.58,1.58.7,1.58,1.58Z"/>
        <path class="st5" d="M672.55,1143.44c0,1.62-1.31,2.93-2.94,2.93s-2.93-1.31-2.93-2.93,1.31-2.94,2.93-2.94,2.94,1.31,2.94,2.94ZM669.61,1145.01c.88,0,1.58-.7,1.58-1.57s-.7-1.58-1.58-1.58-1.57.7-1.57,1.58.7,1.57,1.57,1.57Z"/>
        <path class="st5" d="M651.75,1152.95h35.73c.45,0,.82-.5.82-1.11v-16.23c0-.61-.37-1.11-.82-1.11h-35.73c-.45,0-.82.5-.82,1.11v16.23c0,.61.37,1.11.82,1.11ZM688.96,1162.18h-38.85v-27.68c0-.62.37-1.11.82-1.11h37.37c.36,0,.66.49.66,1.11v27.68ZM669.61,1160.09c1.22,0,2.21-.99,2.21-2.2s-.99-2.21-2.21-2.21-2.2.99-2.2,2.21.99,2.2,2.2,2.2Z"/>
      </g>
      <g>
        <line class="st3" x1="678.47" y1="1133.37" x2="660.01" y2="1133.37"/>
        <path class="st3" d="M688.96,1162.18v-27.68c0-.62-.3-1.11-.66-1.11h-37.37c-.45,0-.82.49-.82,1.11v27.68"/>
        <path class="st3" d="M688.3,1151.84v-16.23c0-.61-.37-1.11-.82-1.11h-35.73c-.45,0-.82.5-.82,1.11v16.23c0,.61.37,1.11.82,1.11h35.73c.45,0,.82-.5.82-1.11Z"/>
        <path class="st3" d="M668.04,1143.44c0-.88.7-1.58,1.57-1.58s1.58.7,1.58,1.58-.7,1.57-1.58,1.57-1.57-.7-1.57-1.57Z"/>
        <path class="st3" d="M666.68,1143.44c0-1.63,1.31-2.94,2.93-2.94s2.94,1.31,2.94,2.94-1.31,2.93-2.94,2.93-2.93-1.31-2.93-2.93Z"/>
        <path class="st3" d="M667.41,1157.89c0-1.22.99-2.21,2.2-2.21s2.21.99,2.21,2.21-.99,2.2-2.21,2.2-2.2-.99-2.2-2.2Z"/>
        <line class="st3" x1="650.11" y1="1162.18" x2="688.96" y2="1162.18"/>
      </g>
    </g>
    <rect class="st2" x="465.44" y="729.08" width="100.48" height="67.98"/>
  </g>
</svg>