<?xml version="1.0" encoding="UTF-8"?>
<svg xmlns="http://www.w3.org/2000/svg" version="1.1" viewBox="0 0 1200 1697.14">
  <!-- Generator: Adobe Illustrator 29.6.0, SVG Export Plug-In . SVG Version: 2.1.1 Build 207)  -->
  <defs>
    <style>
      .st0, .st1 {
        stroke: #0d101f;
      }

      .st0, .st1, .st2, .st3 {
        stroke-linecap: round;
        stroke-linejoin: round;
        stroke-width: .15px;
      }

      .st0, .st4 {
        fill: #fff;
      }

      .st1, .st2, .st3 {
        fill: none;
      }

      .st5 {
        fill: #383037;
      }

      .st2 {
        stroke: #1d1d1b;
      }

      .st3 {
        stroke: #11100e;
      }

      .st6 {
        fill: #f2efed;
      }
    </style>
  </defs>
  <g id="sfondo">
    <g>
      <polygon class="st6" points="811.26 1087.53 811.26 1102.83 804.96 1109.14 595.61 1109.14 595.61 1016.39 425.43 1016.39 425.43 584.64 424.53 584.64 424.53 575.64 515.47 575.64 515.47 615.71 459.65 615.71 459.65 826.85 595.16 826.85 601.46 826.85 601.46 831.81 595.16 831.81 442.54 831.81 442.54 865.57 449.74 865.57 595.16 865.57 601.46 865.57 601.46 881.33 595.16 881.33 595.16 880.43 595.16 870.98 594.26 870.98 442.54 870.98 442.54 1010.09 595.16 1010.09 595.16 957.42 595.16 956.51 601.46 956.51 601.46 957.42 601.46 1010.09 601.46 1102.83 798.65 1102.83 798.65 1087.53 798.65 1086.62 811.26 1086.62 811.26 1087.53"/>
      <polygon class="st6" points="811.26 1001.54 811.26 1002.44 798.65 1002.44 798.65 1001.54 798.65 810.2 756.78 810.2 756.78 615.71 700.06 615.71 700.06 584.64 700.06 575.64 765.34 575.64 765.34 803.89 804.96 803.89 804.96 984.43 811.26 990.73 811.26 1001.54"/>
      <polygon class="st6" points="798.65 1087.53 798.65 1102.83 601.46 1102.83 601.46 1010.09 601.46 957.42 601.46 956.51 595.16 956.51 595.16 957.42 595.16 1010.09 442.54 1010.09 442.54 870.98 594.26 870.98 595.16 870.98 595.16 880.43 595.16 881.33 601.46 881.33 601.46 865.57 595.16 865.57 449.74 865.57 442.54 865.57 442.54 831.81 595.16 831.81 601.46 831.81 601.46 826.85 595.16 826.85 459.65 826.85 459.65 615.71 515.47 615.71 515.47 575.64 700.06 575.64 700.06 584.64 700.06 615.71 756.78 615.71 756.78 810.2 798.65 810.2 798.65 1001.54 798.65 1002.44 798.65 1086.62 798.65 1087.53"/>
    </g>
  </g>
  <g id="letto">
    <g>
      <g>
        <polygon class="st4" points="460.26 655.78 460.26 655.34 537.77 655.34 537.77 803.62 536.79 803.13 536.79 655.78 460.26 655.78"/>
        <path class="st4" d="M460.26,765.26v-109.48h76.53v147.35l-17.01-8.41c-7.31-3.62-13.36-6.61-18.37-9.09l-2.63-1.3c-5.59-2.77-9.73-4.82-12.79-6.34l-1.16-.57-7.56-3.74-17.01-8.42Z"/>
        <path class="st4" d="M460.26,825.86v-60.6l17.01,8.42v30.18c0,1.94,1.56,3.51,3.5,3.51h35.51c1.94,0,3.5-1.57,3.5-3.51v-9.14l17.01,8.41v22.73h-76.53Z"/>
        <path class="st4" d="M477.27,803.86v-30.18l7.56,3.74c.37.19.75.38,1.16.57,3.06,1.52,7.2,3.57,12.79,6.34.85.41,1.72.85,2.63,1.3,5.01,2.48,11.06,5.47,18.37,9.09v9.14c0,1.94-1.56,3.51-3.5,3.51h-35.51c-1.94,0-3.5-1.57-3.5-3.51Z"/>
      </g>
      <g>
        <polyline class="st1" points="536.79 803.13 536.79 825.86 460.26 825.86 460.26 765.26"/>
        <polyline class="st1" points="519.78 794.72 536.79 803.13 537.77 803.62 537.77 655.34 460.26 655.34 460.26 655.78 460.26 765.26 477.27 773.68"/>
        <line class="st1" x1="498.78" y1="784.33" x2="501.41" y2="785.63"/>
        <line class="st1" x1="484.83" y1="777.42" x2="485.99" y2="777.99"/>
        <line class="st1" x1="516.28" y1="807.37" x2="480.77" y2="807.37"/>
        <path class="st1" d="M480.77,807.37c-1.94,0-3.5-1.57-3.5-3.51"/>
        <path class="st1" d="M519.78,803.86c0,1.94-1.56,3.51-3.5,3.51"/>
        <path class="st1" d="M519.78,803.86v-9.14c-7.31-3.62-13.36-6.61-18.37-9.09-.91-.45-1.78-.89-2.63-1.3-5.59-2.77-9.73-4.82-12.79-6.34-.41-.19-.79-.38-1.16-.57l-7.56-3.74v30.18"/>
      </g>
    </g>
    <rect class="st0" x="555.57" y="779.58" width="32.87" height="32.87"/>
    <g>
      <rect class="st4" x="748.25" y="865.77" width="55.54" height="55.15" transform="translate(-117.32 1669.37) rotate(-90)"/>
      <line class="st3" x1="748.45" y1="865.57" x2="748.45" y2="867.14"/>
      <line class="st3" x1="748.45" y1="869.87" x2="748.45" y2="872.61"/>
      <line class="st3" x1="748.45" y1="875.35" x2="748.45" y2="878.09"/>
      <line class="st3" x1="748.45" y1="880.83" x2="748.45" y2="883.56"/>
      <line class="st3" x1="748.45" y1="886.3" x2="748.45" y2="889.04"/>
      <line class="st3" x1="748.45" y1="891.78" x2="748.45" y2="894.91"/>
      <line class="st3" x1="748.45" y1="897.65" x2="748.45" y2="900.38"/>
      <line class="st3" x1="748.45" y1="903.12" x2="748.45" y2="905.86"/>
      <line class="st3" x1="748.45" y1="908.6" x2="748.45" y2="911.34"/>
      <line class="st3" x1="748.45" y1="914.07" x2="748.45" y2="916.81"/>
      <line class="st3" x1="748.45" y1="919.55" x2="748.45" y2="921.11"/>
      <line class="st3" x1="748.45" y1="921.11" x2="749.62" y2="921.11"/>
      <line class="st3" x1="752.36" y1="921.11" x2="755.1" y2="921.11"/>
      <line class="st3" x1="758.23" y1="921.11" x2="760.96" y2="921.11"/>
      <line class="st3" x1="763.7" y1="921.11" x2="766.44" y2="921.11"/>
      <line class="st3" x1="769.18" y1="921.11" x2="771.92" y2="921.11"/>
      <line class="st3" x1="774.65" y1="921.11" x2="777.39" y2="921.11"/>
      <line class="st3" x1="780.13" y1="921.11" x2="782.87" y2="921.11"/>
      <line class="st3" x1="785.61" y1="921.11" x2="788.73" y2="921.11"/>
      <line class="st3" x1="791.47" y1="921.11" x2="794.21" y2="921.11"/>
      <line class="st3" x1="796.95" y1="921.11" x2="799.69" y2="921.11"/>
      <line class="st3" x1="802.42" y1="921.11" x2="803.6" y2="921.11"/>
      <path class="st3" d="M748.45,865.57"/>
    </g>
    <g>
      <rect class="st4" x="748.25" y="922.09" width="55.54" height="55.15" transform="translate(-173.64 1725.68) rotate(-90)"/>
      <line class="st3" x1="748.45" y1="921.89" x2="748.45" y2="923.46"/>
      <line class="st3" x1="748.45" y1="926.19" x2="748.45" y2="928.93"/>
      <line class="st3" x1="748.45" y1="931.67" x2="748.45" y2="934.41"/>
      <line class="st3" x1="748.45" y1="937.15" x2="748.45" y2="939.88"/>
      <line class="st3" x1="748.45" y1="942.62" x2="748.45" y2="945.36"/>
      <line class="st3" x1="748.45" y1="948.1" x2="748.45" y2="951.23"/>
      <line class="st3" x1="748.45" y1="953.96" x2="748.45" y2="956.7"/>
      <line class="st3" x1="748.45" y1="959.44" x2="748.45" y2="962.18"/>
      <line class="st3" x1="748.45" y1="964.92" x2="748.45" y2="967.65"/>
      <line class="st3" x1="748.45" y1="970.39" x2="748.45" y2="973.13"/>
      <line class="st3" x1="748.45" y1="975.87" x2="748.45" y2="977.43"/>
      <line class="st3" x1="748.45" y1="977.43" x2="749.62" y2="977.43"/>
      <line class="st3" x1="752.36" y1="977.43" x2="755.1" y2="977.43"/>
      <line class="st3" x1="758.23" y1="977.43" x2="760.96" y2="977.43"/>
      <line class="st3" x1="763.7" y1="977.43" x2="766.44" y2="977.43"/>
      <line class="st3" x1="769.18" y1="977.43" x2="771.92" y2="977.43"/>
      <line class="st3" x1="774.65" y1="977.43" x2="777.39" y2="977.43"/>
      <line class="st3" x1="780.13" y1="977.43" x2="782.87" y2="977.43"/>
      <line class="st3" x1="785.61" y1="977.43" x2="788.73" y2="977.43"/>
      <line class="st3" x1="791.47" y1="977.43" x2="794.21" y2="977.43"/>
      <line class="st3" x1="796.95" y1="977.43" x2="799.69" y2="977.43"/>
      <line class="st3" x1="802.42" y1="977.43" x2="803.6" y2="977.43"/>
      <path class="st3" d="M748.45,921.89"/>
    </g>
    <g>
      <rect class="st4" x="748.25" y="810.23" width="55.54" height="55.15" transform="translate(-61.78 1613.82) rotate(-90)"/>
      <line class="st3" x1="803.6" y1="810.03" x2="802.42" y2="810.03"/>
      <line class="st3" x1="799.69" y1="810.03" x2="796.95" y2="810.03"/>
      <line class="st3" x1="794.21" y1="810.03" x2="791.47" y2="810.03"/>
      <line class="st3" x1="788.73" y1="810.03" x2="785.61" y2="810.03"/>
      <line class="st3" x1="782.87" y1="810.03" x2="780.13" y2="810.03"/>
      <line class="st3" x1="777.39" y1="810.03" x2="774.65" y2="810.03"/>
      <line class="st3" x1="771.92" y1="810.03" x2="769.18" y2="810.03"/>
      <line class="st3" x1="766.44" y1="810.03" x2="763.7" y2="810.03"/>
      <line class="st3" x1="760.96" y1="810.03" x2="758.23" y2="810.03"/>
      <line class="st3" x1="755.1" y1="810.03" x2="752.36" y2="810.03"/>
      <line class="st3" x1="749.62" y1="810.03" x2="748.45" y2="810.03"/>
      <line class="st3" x1="748.45" y1="810.03" x2="748.45" y2="811.59"/>
      <line class="st3" x1="748.45" y1="814.33" x2="748.45" y2="817.07"/>
      <line class="st3" x1="748.45" y1="819.81" x2="748.45" y2="822.55"/>
      <line class="st3" x1="748.45" y1="825.28" x2="748.45" y2="828.02"/>
      <line class="st3" x1="748.45" y1="830.76" x2="748.45" y2="833.5"/>
      <line class="st3" x1="748.45" y1="836.24" x2="748.45" y2="839.37"/>
      <line class="st3" x1="748.45" y1="842.1" x2="748.45" y2="844.84"/>
      <line class="st3" x1="748.45" y1="847.58" x2="748.45" y2="850.32"/>
      <line class="st3" x1="748.45" y1="853.06" x2="748.45" y2="855.79"/>
      <line class="st3" x1="748.45" y1="858.53" x2="748.45" y2="861.27"/>
      <line class="st3" x1="748.45" y1="864.01" x2="748.45" y2="865.57"/>
      <line class="st3" x1="748.45" y1="865.57" x2="749.62" y2="865.57"/>
      <line class="st3" x1="752.36" y1="865.57" x2="755.1" y2="865.57"/>
      <line class="st3" x1="758.23" y1="865.57" x2="760.96" y2="865.57"/>
      <line class="st3" x1="763.7" y1="865.57" x2="766.44" y2="865.57"/>
      <line class="st3" x1="769.18" y1="865.57" x2="771.92" y2="865.57"/>
      <line class="st3" x1="774.65" y1="865.57" x2="777.39" y2="865.57"/>
      <line class="st3" x1="780.13" y1="865.57" x2="782.87" y2="865.57"/>
      <line class="st3" x1="785.61" y1="865.57" x2="788.73" y2="865.57"/>
      <line class="st3" x1="791.47" y1="865.57" x2="794.21" y2="865.57"/>
      <line class="st3" x1="796.95" y1="865.57" x2="799.69" y2="865.57"/>
      <line class="st3" x1="802.42" y1="865.57" x2="803.6" y2="865.57"/>
      <path class="st3" d="M748.45,810.03"/>
      <line class="st3" x1="748.45" y1="810.03" x2="749.62" y2="810.03"/>
      <line class="st3" x1="752.36" y1="810.03" x2="755.1" y2="810.03"/>
      <line class="st3" x1="758.23" y1="810.03" x2="760.96" y2="810.03"/>
      <line class="st3" x1="763.7" y1="810.03" x2="766.44" y2="810.03"/>
      <line class="st3" x1="769.18" y1="810.03" x2="771.92" y2="810.03"/>
      <line class="st3" x1="774.65" y1="810.03" x2="777.39" y2="810.03"/>
      <line class="st3" x1="780.13" y1="810.03" x2="782.87" y2="810.03"/>
      <line class="st3" x1="785.61" y1="810.03" x2="788.73" y2="810.03"/>
      <line class="st3" x1="791.47" y1="810.03" x2="794.21" y2="810.03"/>
      <line class="st3" x1="796.95" y1="810.03" x2="799.69" y2="810.03"/>
      <line class="st3" x1="802.42" y1="810.03" x2="803.6" y2="810.03"/>
    </g>
  </g>
  <g id="bianchi">
    <rect class="st4" x="514.19" y="575.64" width="187.09" height="21.16"/>
    <rect class="st4" x="439.3" y="942.08" width="72.01" height="72.01"/>
    <rect class="st4" x="547.44" y="870.97" width="27.46" height="1.35"/>
    <rect class="st4" x="542.49" y="872.33" width="37.37" height="1.8"/>
  </g>
  <g id="pareti">
    <g>
      <polygon class="st5" points="811.26 1087.53 811.26 1102.84 804.96 1109.14 595.61 1109.14 595.61 1016.4 425.43 1016.4 425.43 584.65 424.53 584.65 424.53 575.64 515.47 575.64 515.47 584.65 515.47 615.71 459.65 615.71 459.65 826.86 595.16 826.86 601.46 826.86 601.46 831.81 595.16 831.81 442.54 831.81 442.54 865.58 449.74 865.58 595.16 865.58 601.46 865.58 601.46 881.33 595.16 881.33 595.16 880.43 595.16 870.98 594.26 870.98 442.54 870.98 442.54 1010.09 595.16 1010.09 595.16 957.42 595.16 956.52 601.46 956.52 601.46 957.42 601.46 1010.09 601.46 1102.84 798.66 1102.84 798.66 1087.53 798.66 1086.63 811.26 1086.63 811.26 1087.53"/>
      <polygon class="st5" points="811.26 1001.54 811.26 1002.44 798.66 1002.44 798.66 1001.54 798.66 810.2 756.79 810.2 756.79 615.71 700.06 615.71 700.06 584.65 700.06 575.64 741.03 575.64 765.34 575.64 765.34 803.9 804.96 803.9 804.96 984.43 811.26 990.73 811.26 1001.54"/>
    </g>
  </g>
  <g id="Livello_1">
    <line class="st2" x1="520.88" y1="590.95" x2="524.48" y2="590.95"/>
    <line class="st2" x1="520.88" y1="596.8" x2="520.88" y2="590.95"/>
    <line class="st2" x1="516.38" y1="596.8" x2="520.88" y2="596.8"/>
    <line class="st2" x1="603.27" y1="590.95" x2="603.27" y2="596.8"/>
    <line class="st2" x1="599.67" y1="590.95" x2="603.27" y2="590.95"/>
    <line class="st2" x1="599.67" y1="584.19" x2="599.67" y2="590.95"/>
    <line class="st2" x1="607.32" y1="584.19" x2="599.67" y2="584.19"/>
    <line class="st2" x1="607.32" y1="596.8" x2="607.32" y2="584.19"/>
    <line class="st2" x1="603.27" y1="596.8" x2="607.32" y2="596.8"/>
    <line class="st2" x1="524.48" y1="590.95" x2="599.67" y2="590.95"/>
    <line class="st2" x1="524.48" y1="584.19" x2="599.67" y2="584.19"/>
    <line class="st2" x1="603.27" y1="596.8" x2="520.88" y2="596.8"/>
    <line class="st2" x1="524.48" y1="584.64" x2="524.48" y2="589.14"/>
    <line class="st2" x1="599.67" y1="584.64" x2="524.48" y2="584.64"/>
    <line class="st2" x1="599.67" y1="589.14" x2="599.67" y2="584.64"/>
    <line class="st2" x1="524.48" y1="589.14" x2="599.67" y2="589.14"/>
    <line class="st2" x1="516.38" y1="584.64" x2="515.48" y2="584.64"/>
    <line class="st2" x1="608.67" y1="584.64" x2="607.32" y2="584.64"/>
    <line class="st2" x1="700.06" y1="584.64" x2="699.16" y2="584.64"/>
    <line class="st2" x1="515.32" y1="584.85" x2="515.53" y2="584.63"/>
    <polyline class="st2" points="601.47 950.66 601.47 953.81 671.7 953.81"/>
    <polyline class="st2" points="720.32 1083.92 798.66 1083.92 798.66 1080.32"/>
    <polyline class="st2" points="442.54 1010.12 442.54 942.08 450.69 942.08"/>
    <line class="st2" x1="442.54" y1="1010.12" x2="510.77" y2="1010.12"/>
    <line class="st2" x1="511.31" y1="1008.99" x2="511.31" y2="942.68"/>
    <polyline class="st2" points="511.31 1008.99 511.31 1010.12 510.77 1010.12"/>
    <polyline class="st2" points="510.3 942.08 511.31 942.08 511.31 942.68"/>
    <line class="st2" x1="510.3" y1="942.08" x2="450.69" y2="942.08"/>
    <line class="st2" x1="476.66" y1="1010.12" x2="476.66" y2="991.22"/>
    <circle class="st2" cx="476.75" cy="991.31" r="4.23" transform="translate(-215 136.05) rotate(-13.28)"/>
    <circle class="st2" cx="476.75" cy="991.31" r="4.23" transform="translate(-215 136.05) rotate(-13.28)"/>
    <g>
      <path class="st4" d="M496.9,870.99c-.01,8.24-.01,16.48-.02,24.72,0,9.52-6.85,17.21-15.3,17.21-8.45-.01-15.28-7.71-15.27-17.23,0-8.24.01-16.48.01-24.72,10.2,0,20.39.01,30.58.02Z"/>
      <path class="st2" d="M496.9,870.99c-.01,8.24-.01,16.48-.02,24.72,0,9.52-6.85,17.21-15.3,17.21-8.45-.01-15.28-7.71-15.27-17.23,0-8.24.01-16.48.01-24.72,10.2,0,20.39.01,30.58.02Z"/>
    </g>
    <line class="st2" x1="547.44" y1="870.97" x2="547.44" y2="872.33"/>
    <line class="st2" x1="574.9" y1="872.33" x2="574.9" y2="870.97"/>
    <line class="st2" x1="579.86" y1="872.33" x2="579.86" y2="874.13"/>
    <line class="st2" x1="542.49" y1="872.33" x2="579.86" y2="872.33"/>
    <line class="st2" x1="542.49" y1="874.13" x2="542.49" y2="872.33"/>
    <line class="st2" x1="579.86" y1="874.13" x2="542.49" y2="874.13"/>
    <g>
      <rect class="st4" x="579.73" y="1019.45" width="101.75" height="58.27" transform="translate(1679.19 417.99) rotate(90)"/>
      <g>
        <line class="st2" x1="611.55" y1="1025.53" x2="624.02" y2="1025.53"/>
        <rect class="st2" x="604.49" y="997.72" width="55.25" height="101.75"/>
        <line class="st2" x1="643.25" y1="1076.75" x2="643.25" y2="1088.94"/>
        <line class="st2" x1="620.34" y1="1076.75" x2="620.34" y2="1088.94"/>
        <line class="st2" x1="626.35" y1="1082.77" x2="614.16" y2="1082.77"/>
        <line class="st2" x1="649.42" y1="1082.77" x2="637.24" y2="1082.77"/>
        <rect class="st2" x="608.8" y="1069.77" width="45.99" height="26.81"/>
        <rect class="st2" x="616.51" y="1009.95" width="31.01" height="31.01"/>
        <rect class="st2" x="608.8" y="1002.23" width="46.44" height="46.6"/>
      </g>
    </g>
    <line class="st2" x1="599.67" y1="864.67" x2="599.67" y2="832.71"/>
    <line class="st2" x1="599.67" y1="832.71" x2="601.47" y2="832.71"/>
    <line class="st2" x1="601.47" y1="832.71" x2="601.47" y2="864.67"/>
    <line class="st2" x1="601.47" y1="864.67" x2="599.67" y2="864.67"/>
    <line class="st2" x1="466.4" y1="865.57" x2="497.02" y2="865.57"/>
    <line class="st2" x1="601.47" y1="950.66" x2="601.47" y2="883.58"/>
    <line class="st2" x1="601.47" y1="950.66" x2="601.47" y2="953.81"/>
    <line class="st2" x1="601.47" y1="953.81" x2="671.7" y2="953.81"/>
    <path class="st2" d="M671.7,953.81c0-18.46-7.2-36.47-20.71-49.52-13.06-13.06-30.61-20.71-49.52-20.71"/>
    <line class="st2" x1="595.16" y1="865.57" x2="595.16" y2="831.81"/>
    <line class="st2" x1="601.47" y1="864.67" x2="601.47" y2="865.57"/>
    <line class="st2" x1="601.47" y1="831.81" x2="601.47" y2="832.71"/>
    <line class="st2" x1="798.66" y1="1080.32" x2="798.66" y2="1005.14"/>
    <line class="st2" x1="798.66" y1="1083.92" x2="720.32" y2="1083.92"/>
    <line class="st2" x1="798.66" y1="1080.32" x2="798.66" y2="1083.92"/>
    <path class="st2" d="M798.66,1005.14c-20.71,0-40.52,8.55-55.38,22.96-14.86,14.86-22.96,35.12-22.96,55.83"/>
    <line class="st2" x1="595.16" y1="831.81" x2="442.54" y2="865.57"/>
    <line class="st2" x1="595.16" y1="865.57" x2="442.54" y2="831.81"/>
    <g>
      <g>
        <path class="st4" d="M736.76,748.64c-9.91,7.2-22.96,7.2-32.87,0q0-.45.45-.45h1.8c.9.45,2.25,1.35,3.6,1.8.9,0,1.81-.45,2.71-1.35,0-.45,0-.9-.45-1.35-4.51-2.25-8.11-6.3-9.91-11.26h36.47c-1.8,4.96-4.95,9.01-9.46,11.26-.45.45-.9.9-.45,1.35.45.9,1.35,1.35,2.7,1.35.9-.45,2.26-1.35,3.16-1.8h1.8q.45,0,.45.45Z"/>
        <polygon class="st4" points="702.09 736.03 694.89 736.03 694.89 668.05 702.09 668.05 738.56 668.05 745.76 668.05 745.76 736.03 738.56 736.03 702.09 736.03"/>
        <path class="st4" d="M738.56,668.05h-36.47c1.8-4.95,5.4-9,9.91-11.7.45,0,.45-.9.45-1.35-.9-.9-1.81-1.35-2.71-1.35-1.35.9-2.7,1.35-3.6,2.25h-1.8q-.45-.45-.45-.9c9.91-6.76,22.96-6.76,32.87,0q0,.45-.45.9h-1.8c-.9-.9-2.26-1.35-3.16-2.25-1.35,0-2.25.45-2.7,1.35-.45.45,0,1.35.45,1.35,4.51,2.7,7.66,6.75,9.46,11.7Z"/>
      </g>
      <g>
        <path class="st2" d="M736.31,748.19h-.9"/>
        <polyline class="st2" points="694.89 736.03 702.09 736.03 738.56 736.03 745.76 736.03"/>
        <polyline class="st2" points="745.76 668.05 738.56 668.05 702.09 668.05 694.89 668.05"/>
        <line class="st2" x1="745.76" y1="736.03" x2="745.76" y2="668.05"/>
        <path class="st2" d="M703.89,748.64c9.91,7.2,22.96,7.2,32.87,0"/>
        <path class="st2" d="M702.09,736.03c1.8,4.96,5.4,9.01,9.91,11.26"/>
        <path class="st2" d="M712.45,748.64c0-.45,0-.9-.45-1.35"/>
        <path class="st2" d="M706.14,748.19c.9.45,2.25,1.35,3.6,1.8"/>
        <path class="st2" d="M709.74,749.99c.9,0,1.81-.45,2.71-1.35"/>
        <path class="st2" d="M704.34,748.19q-.45,0-.45.45"/>
        <path class="st2" d="M705.24,748.19h-.9"/>
        <path class="st2" d="M706.14,748.19h-.9"/>
        <path class="st2" d="M729.1,747.29c4.51-2.25,7.66-6.3,9.46-11.26"/>
        <path class="st2" d="M729.1,747.29c-.45.45-.9.9-.45,1.35"/>
        <path class="st2" d="M731.35,749.99c.9-.45,2.26-1.35,3.16-1.8"/>
        <path class="st2" d="M728.65,748.64c.45.9,1.35,1.35,2.7,1.35"/>
        <path class="st2" d="M736.76,748.64q0-.45-.45-.45"/>
        <path class="st2" d="M735.41,748.19h-.9"/>
        <path class="st2" d="M736.76,655c-9.91-6.76-22.96-6.76-32.87,0"/>
        <path class="st2" d="M712,656.35c-4.51,2.7-8.11,6.75-9.91,11.7"/>
        <path class="st2" d="M712,656.35c.45,0,.45-.9.45-1.35"/>
        <path class="st2" d="M709.74,653.65c-1.35.9-2.7,1.35-3.6,2.25"/>
        <path class="st2" d="M712.45,655c-.9-.9-1.81-1.35-2.71-1.35"/>
        <path class="st2" d="M703.89,655q0,.45.45.9"/>
        <path class="st2" d="M704.34,655.9h.9"/>
        <path class="st2" d="M705.24,655.9h.9"/>
        <path class="st2" d="M738.56,668.05c-1.8-4.95-4.95-9-9.46-11.7"/>
        <path class="st2" d="M728.65,655c-.45.45,0,1.35.45,1.35"/>
        <path class="st2" d="M734.51,655.9c-.9-.9-2.26-1.35-3.16-2.25"/>
        <path class="st2" d="M731.35,653.65c-1.35,0-2.25.45-2.7,1.35"/>
        <path class="st2" d="M736.31,655.9q.45-.45.45-.9"/>
        <path class="st2" d="M735.41,655.9h.9"/>
        <path class="st2" d="M734.51,655.9h.9"/>
        <line class="st2" x1="694.89" y1="736.03" x2="694.89" y2="668.05"/>
      </g>
    </g>
    <line class="st2" x1="798.66" y1="1080.32" x2="798.66" y2="1005.14"/>
    <line class="st2" x1="601.47" y1="883.58" x2="601.47" y2="950.66"/>
    <line class="st2" x1="608.67" y1="584.19" x2="608.67" y2="596.8"/>
    <line class="st2" x1="612.72" y1="584.19" x2="608.67" y2="584.19"/>
    <line class="st2" x1="612.72" y1="596.8" x2="612.72" y2="584.19"/>
    <line class="st2" x1="608.67" y1="596.8" x2="612.72" y2="596.8"/>
    <line class="st2" x1="695.11" y1="584.19" x2="695.11" y2="596.8"/>
    <line class="st2" x1="699.16" y1="584.19" x2="695.11" y2="584.19"/>
    <line class="st2" x1="699.16" y1="596.8" x2="699.16" y2="584.19"/>
    <line class="st2" x1="695.11" y1="596.8" x2="699.16" y2="596.8"/>
    <line class="st2" x1="612.72" y1="584.19" x2="695.11" y2="584.19"/>
    <line class="st2" x1="695.11" y1="596.8" x2="612.72" y2="596.8"/>
    <line class="st2" x1="612.72" y1="584.64" x2="612.72" y2="589.14"/>
    <line class="st2" x1="695.11" y1="584.64" x2="612.72" y2="584.64"/>
    <line class="st2" x1="695.11" y1="589.14" x2="695.11" y2="584.64"/>
    <line class="st2" x1="612.72" y1="589.14" x2="695.11" y2="589.14"/>
    <line class="st2" x1="524.48" y1="584.19" x2="599.67" y2="584.19"/>
    <line class="st2" x1="599.67" y1="584.19" x2="524.48" y2="584.19"/>
    <line class="st2" x1="519.08" y1="584.19" x2="604.62" y2="584.19"/>
    <line class="st2" x1="518.63" y1="584.19" x2="605.07" y2="584.19"/>
    <line class="st2" x1="607.32" y1="584.19" x2="516.38" y2="584.19"/>
    <line class="st2" x1="516.38" y1="584.19" x2="516.38" y2="596.8"/>
    <line class="st2" x1="524.48" y1="584.19" x2="516.38" y2="584.19"/>
    <line class="st2" x1="524.48" y1="590.95" x2="524.48" y2="584.19"/>
    <line class="st2" x1="601.47" y1="865.57" x2="595.16" y2="865.57"/>
    <g>
      <g>
        <path class="st4" d="M572,983.55v16.23c0,.61-.37,1.11-.83,1.11h-35.72c-.45,0-.82-.5-.82-1.11v-16.23c0-.61.37-1.11.82-1.11h35.72c.46,0,.83.5.83,1.11ZM556.25,991.37c0-1.62-1.32-2.93-2.94-2.93s-2.93,1.31-2.93,2.93,1.31,2.94,2.93,2.94,2.94-1.32,2.94-2.94Z"/>
        <path class="st4" d="M553.31,1003.62c1.22,0,2.21.99,2.21,2.21s-.99,2.2-2.21,2.2-2.2-.99-2.2-2.2.99-2.21,2.2-2.21Z"/>
        <path class="st4" d="M554.89,991.37c0,.88-.71,1.58-1.58,1.58s-1.57-.7-1.57-1.58.7-1.57,1.57-1.57,1.58.7,1.58,1.57Z"/>
        <path class="st4" d="M553.31,992.95c.87,0,1.58-.7,1.58-1.58s-.71-1.57-1.58-1.57-1.57.7-1.57,1.57.7,1.58,1.57,1.58ZM556.25,991.37c0,1.62-1.32,2.94-2.94,2.94s-2.93-1.32-2.93-2.94,1.31-2.93,2.93-2.93,2.94,1.31,2.94,2.93Z"/>
        <path class="st4" d="M535.45,1000.89h35.72c.46,0,.83-.5.83-1.11v-16.23c0-.61-.37-1.11-.83-1.11h-35.72c-.45,0-.82.5-.82,1.11v16.23c0,.61.37,1.11.82,1.11ZM553.31,1008.03c1.22,0,2.21-.99,2.21-2.2s-.99-2.21-2.21-2.21-2.2.99-2.2,2.21.99,2.2,2.2,2.2ZM572.66,1010.12h-38.85v-27.68c0-.62.36-1.11.82-1.11h37.37c.36,0,.66.49.66,1.11v27.68Z"/>
      </g>
      <g>
        <path class="st2" d="M551.11,1005.83c0-1.22.99-2.21,2.2-2.21s2.21.99,2.21,2.21-.99,2.2-2.21,2.2-2.2-.99-2.2-2.2Z"/>
        <path class="st2" d="M550.38,991.37c0-1.62,1.31-2.93,2.93-2.93s2.94,1.31,2.94,2.93-1.32,2.94-2.94,2.94-2.93-1.32-2.93-2.94Z"/>
        <path class="st2" d="M551.74,991.37c0-.87.7-1.57,1.57-1.57s1.58.7,1.58,1.57-.71,1.58-1.58,1.58-1.57-.7-1.57-1.58Z"/>
        <path class="st2" d="M572,999.78v-16.23c0-.61-.37-1.11-.83-1.11h-35.72c-.45,0-.82.5-.82,1.11v16.23c0,.61.37,1.11.82,1.11h35.72c.46,0,.83-.5.83-1.11Z"/>
        <path class="st2" d="M533.81,1001.57v8.55"/>
        <path class="st2" d="M572.66,1010.12v-27.68c0-.62-.3-1.11-.66-1.11h-37.37c-.46,0-.82.49-.82,1.11v8.77"/>
        <line class="st2" x1="533.81" y1="1001.57" x2="533.81" y2="991.21"/>
        <line class="st2" x1="533.81" y1="1010.12" x2="572.66" y2="1010.12"/>
      </g>
    </g>
  </g>
</svg>