<?xml version="1.0" encoding="UTF-8"?>
<svg xmlns="http://www.w3.org/2000/svg" version="1.1" viewBox="0 0 1200 1697.14">
  <!-- Generator: Adobe Illustrator 29.6.0, SVG Export Plug-In . SVG Version: 2.1.1 Build 207)  -->
  <defs>
    <style>
      .st0, .st1 {
        stroke: #0d101f;
      }

      .st0, .st1, .st2, .st3 {
        stroke-linecap: round;
        stroke-linejoin: round;
        stroke-width: .15px;
      }

      .st0, .st4 {
        fill: #fff;
      }

      .st1, .st2, .st3 {
        fill: none;
      }

      .st5 {
        fill: #383037;
      }

      .st2 {
        stroke: #1d1d1b;
      }

      .st6 {
        fill: #ede9e5;
      }

      .st3 {
        stroke: #11100e;
      }
    </style>
  </defs>
  <g id="sfondo">
    <g>
      <polygon class="st6" points="756.78 677.78 823.41 1177.87 472.69 1177.87 464.14 1169.32 464.14 1151.31 476.29 1151.31 476.29 1152.21 476.29 1169.32 591.55 1169.32 591.55 1159.86 591.55 1158.96 597.85 1158.96 597.85 1159.86 597.85 1168.42 597.85 1169.32 736.06 1169.32 736.06 1029.3 597.85 1029.3 597.85 1030.2 597.85 1082.43 597.85 1083.78 591.55 1083.78 591.55 1082.43 591.55 1019.4 597.85 1019.4 744.62 1019.4 744.62 1029.3 741.02 1029.3 741.02 1169.32 805.4 1169.32 786.49 1029.3 778.83 1029.3 778.83 1019.4 785.14 1019.4 763.57 856.37 761.73 842.46 744.62 844.72 723.01 682.19 710.85 590.35 687.44 590.35 687.44 559.28 687.44 550.28 742.37 550.28 750.88 613.28 755.87 650.23 753.17 650.68 756.77 677.69 756.78 677.78"/>
      <polygon class="st6" points="763.57 856.37 785.14 1019.4 778.83 1019.4 778.83 1029.3 786.49 1029.3 805.4 1169.32 741.02 1169.32 741.02 1029.3 744.62 1029.3 744.62 1019.4 597.85 1019.4 591.55 1019.4 591.55 1082.43 591.55 1083.78 597.85 1083.78 597.85 1082.43 597.85 1030.2 597.85 1029.3 736.06 1029.3 736.06 1169.32 597.85 1169.32 597.85 1168.42 597.85 1159.86 597.85 1158.96 591.55 1158.96 591.55 1159.86 591.55 1169.32 476.29 1169.32 476.29 1152.21 476.29 1151.31 464.14 1151.31 464.14 1067.57 476.29 1067.57 476.29 1066.22 476.29 1057.21 476.29 590.35 502.86 590.35 502.86 550.28 687.44 550.28 687.44 559.28 687.44 590.35 710.85 590.35 723.01 682.19 744.62 844.72 761.73 842.46 763.57 856.37"/>
      <polygon class="st6" points="502.86 550.28 502.86 590.35 476.29 590.35 476.29 1057.21 476.29 1066.22 476.29 1067.57 464.14 1067.57 464.14 1057.21 470.44 1050.91 470.44 550.28 502.86 550.28"/>
    </g>
  </g>
  <g id="letto">
    <g>
      <g>
        <polygon class="st4" points="553.81 803.61 553.81 804.05 476.3 804.05 476.3 655.77 477.28 656.26 477.28 803.61 553.81 803.61"/>
        <path class="st4" d="M553.81,694.13v109.48h-76.53v-147.35l17.01,8.41c7.31,3.62,13.36,6.61,18.37,9.09l2.63,1.3c5.59,2.77,9.73,4.82,12.79,6.34l1.16.57,7.56,3.74,17.01,8.42Z"/>
        <path class="st4" d="M553.81,633.53v60.6l-17.01-8.42v-30.18c0-1.94-1.56-3.51-3.5-3.51h-35.51c-1.94,0-3.5,1.57-3.5,3.51v9.14l-17.01-8.41v-22.73h76.53Z"/>
        <path class="st4" d="M536.8,655.53v30.18l-7.56-3.74c-.37-.19-.75-.38-1.16-.57-3.06-1.52-7.2-3.57-12.79-6.34-.85-.41-1.72-.85-2.63-1.3-5.01-2.48-11.06-5.47-18.37-9.09v-9.14c0-1.94,1.56-3.51,3.5-3.51h35.51c1.94,0,3.5,1.57,3.5,3.51Z"/>
      </g>
      <g>
        <polyline class="st1" points="477.28 656.26 477.28 633.53 553.81 633.53 553.81 694.13"/>
        <polyline class="st1" points="494.29 664.67 477.28 656.26 476.3 655.77 476.3 804.05 553.81 804.05 553.81 803.61 553.81 694.13 536.8 685.71"/>
        <line class="st1" x1="515.29" y1="675.06" x2="512.66" y2="673.76"/>
        <line class="st1" x1="529.24" y1="681.97" x2="528.08" y2="681.4"/>
        <line class="st1" x1="497.79" y1="652.02" x2="533.3" y2="652.02"/>
        <path class="st1" d="M533.3,652.02c1.94,0,3.5,1.57,3.5,3.51"/>
        <path class="st1" d="M494.29,655.53c0-1.94,1.56-3.51,3.5-3.51"/>
        <path class="st1" d="M494.29,655.53v9.14c7.31,3.62,13.36,6.61,18.37,9.09.91.45,1.78.89,2.63,1.3,5.59,2.77,9.73,4.82,12.79,6.34.41.19.79.38,1.16.57l7.56,3.74v-30.18"/>
      </g>
    </g>
    <rect class="st0" x="618.25" y="581.87" width="32.87" height="32.87"/>
    <g>
      <rect class="st4" x="721.38" y="965.01" width="55.54" height="53.98"/>
      <line class="st3" x1="776.92" y1="965.01" x2="775.35" y2="965.01"/>
      <line class="st3" x1="772.61" y1="965.01" x2="769.88" y2="965.01"/>
      <line class="st3" x1="767.14" y1="965.01" x2="764.4" y2="965.01"/>
      <line class="st3" x1="761.66" y1="965.01" x2="758.92" y2="965.01"/>
      <line class="st3" x1="756.19" y1="965.01" x2="753.45" y2="965.01"/>
      <line class="st3" x1="750.71" y1="965.01" x2="747.58" y2="965.01"/>
      <line class="st3" x1="744.84" y1="965.01" x2="742.11" y2="965.01"/>
      <line class="st3" x1="739.37" y1="965.01" x2="736.63" y2="965.01"/>
      <line class="st3" x1="733.89" y1="965.01" x2="731.15" y2="965.01"/>
      <line class="st3" x1="728.42" y1="965.01" x2="725.68" y2="965.01"/>
      <line class="st3" x1="722.94" y1="965.01" x2="721.38" y2="965.01"/>
      <line class="st3" x1="721.38" y1="965.01" x2="721.38" y2="966.16"/>
      <line class="st3" x1="721.38" y1="968.84" x2="721.38" y2="971.52"/>
      <line class="st3" x1="721.38" y1="974.58" x2="721.38" y2="977.26"/>
      <line class="st3" x1="721.38" y1="979.94" x2="721.38" y2="982.62"/>
      <line class="st3" x1="721.38" y1="985.3" x2="721.38" y2="987.98"/>
      <line class="st3" x1="721.38" y1="990.66" x2="721.38" y2="993.34"/>
      <line class="st3" x1="721.38" y1="996.02" x2="721.38" y2="998.7"/>
      <line class="st3" x1="721.38" y1="1001.38" x2="721.38" y2="1004.44"/>
      <line class="st3" x1="721.38" y1="1007.12" x2="721.38" y2="1009.8"/>
      <line class="st3" x1="721.38" y1="1012.48" x2="721.38" y2="1015.16"/>
      <line class="st3" x1="721.38" y1="1017.84" x2="721.38" y2="1018.99"/>
      <path class="st3" d="M776.92,965.01"/>
    </g>
  </g>
  <g id="bianchi">
    <rect class="st4" x="668.03" y="1026.06" width="70.49" height="71.26"/>
    <rect class="st4" x="453.05" y="1061.72" width="23.25" height="91.39"/>
    <rect class="st4" x="502.86" y="550.28" width="188.75" height="21.16"/>
  </g>
  <g id="Livello_1">
    <g>
      <path class="st4" d="M652.89,623.3c-.45,1.8,0,3.6.45,4.95,6.3,12.15,17.1,22.06,30.16,27.01,1.8.45,3.6.45,4.95,0s2.25-1.35,3.15-2.25l14.86-12.16c.45-.45.45-.9.9-.9,1.35-1.35,2.25-3.15,2.25-4.95.45-5.4-.45-10.35-1.35-15.31-.9-5.4-3.6-9.9-7.65-13.5-4.05-3.6-9.01-5.86-14.41-6.31-4.95-.45-9.9-.45-15.31,0-1.8.45-3.15,1.81-4.5,3.16l-.9.9-10.8,16.2c-.45.9-1.35,2.25-1.8,3.16Z"/>
      <g>
        <path class="st2" d="M709.61,635c0,1.8-.9,3.6-2.25,4.95"/>
        <path class="st2" d="M708.26,619.69c.9,4.96,1.8,9.91,1.35,15.31"/>
        <path class="st2" d="M683.5,655.26c-13.06-4.95-23.86-14.86-30.16-27.01"/>
        <path class="st2" d="M663.69,616.54c2.7-3.15,5.4-5.85,8.55-8.1"/>
        <path class="st2" d="M672.24,608.44c6.31-4.05,14.41-4.05,20.71,0"/>
        <path class="st2" d="M692.95,608.44c1.35.9,2.26,1.8,3.16,2.7"/>
        <path class="st2" d="M686.2,599.88c5.4.45,10.36,2.71,14.41,6.31"/>
        <path class="st2" d="M653.34,628.25c-.45-1.35-.9-3.15-.45-4.95"/>
        <path class="st2" d="M652.89,623.3c.45-.91,1.35-2.26,1.8-3.16"/>
        <line class="st2" x1="665.49" y1="603.94" x2="654.69" y2="620.14"/>
        <path class="st2" d="M665.49,603.94l.9-.9"/>
        <path class="st2" d="M666.39,603.04c1.35-1.35,2.7-2.71,4.5-3.16"/>
        <path class="st2" d="M670.89,599.88c5.41-.45,10.36-.45,15.31,0"/>
        <path class="st2" d="M701.51,634.55c-2.25,3.15-4.5,6.3-7.21,9.45"/>
        <path class="st2" d="M698.81,613.84c4.95,5.85,5.85,13.96,2.7,20.71"/>
        <line class="st2" x1="696.11" y1="611.14" x2="698.81" y2="613.84"/>
        <path class="st2" d="M700.61,606.19c4.05,3.6,6.75,8.1,7.65,13.5"/>
        <path class="st2" d="M688.45,655.26c-1.35.45-3.15.45-4.95,0"/>
        <path class="st2" d="M691.6,653.01c-.9.9-1.8,1.8-3.15,2.25"/>
        <line class="st2" x1="706.46" y1="640.85" x2="691.6" y2="653.01"/>
        <path class="st2" d="M707.36,639.95c-.45,0-.45.45-.9.9"/>
      </g>
    </g>
    <line class="st2" x1="507.81" y1="571.44" x2="590.2" y2="571.44"/>
    <line class="st2" x1="590.2" y1="558.83" x2="507.81" y2="558.83"/>
    <line class="st2" x1="507.81" y1="558.83" x2="507.81" y2="571.44"/>
    <line class="st2" x1="503.76" y1="558.83" x2="507.81" y2="558.83"/>
    <line class="st2" x1="503.76" y1="571.44" x2="503.76" y2="558.83"/>
    <line class="st2" x1="507.81" y1="571.44" x2="503.76" y2="571.44"/>
    <line class="st2" x1="594.25" y1="558.83" x2="594.25" y2="571.44"/>
    <line class="st2" x1="590.2" y1="558.83" x2="594.25" y2="558.83"/>
    <line class="st2" x1="590.2" y1="571.44" x2="590.2" y2="558.83"/>
    <line class="st2" x1="594.25" y1="571.44" x2="590.2" y2="571.44"/>
    <line class="st2" x1="476.3" y1="1069.82" x2="476.3" y2="1145.46"/>
    <line class="st2" x1="687.45" y1="571.44" x2="686.55" y2="571.44"/>
    <line class="st2" x1="595.6" y1="571.44" x2="594.25" y2="571.44"/>
    <line class="st2" x1="503.76" y1="571.44" x2="502.86" y2="571.44"/>
    <path class="st2" d="M555.08,1148.61c0-20.71-8.55-40.97-22.96-55.38-14.86-14.86-35.12-23.41-55.83-23.41"/>
    <line class="st2" x1="476.3" y1="1148.61" x2="555.08" y2="1148.61"/>
    <line class="st2" x1="476.3" y1="1145.46" x2="476.3" y2="1148.61"/>
    <line class="st2" x1="476.3" y1="1145.46" x2="476.3" y2="1069.82"/>
    <line class="st2" x1="741.02" y1="1029.3" x2="805.4" y2="1169.32"/>
    <line class="st2" x1="786.49" y1="1029.3" x2="741.02" y2="1169.32"/>
    <line class="st2" x1="591.55" y1="1153.11" x2="591.55" y2="1156.26"/>
    <line class="st2" x1="591.55" y1="1156.26" x2="521.32" y2="1156.26"/>
    <line class="st2" x1="778.84" y1="1029.3" x2="744.62" y2="1029.3"/>
    <line class="st2" x1="744.62" y1="1019.4" x2="745.52" y2="1019.4"/>
    <line class="st2" x1="777.49" y1="1019.4" x2="778.84" y2="1019.4"/>
    <line class="st2" x1="745.52" y1="1021.2" x2="777.49" y2="1021.2"/>
    <line class="st2" x1="777.49" y1="1021.2" x2="777.49" y2="1019.4"/>
    <line class="st2" x1="777.49" y1="1019.4" x2="745.52" y2="1019.4"/>
    <line class="st2" x1="745.52" y1="1019.4" x2="745.52" y2="1021.2"/>
    <g>
      <rect class="st4" x="619.36" y="964.85" width="101.75" height="55.47"/>
      <rect class="st2" x="619.36" y="964.85" width="101.75" height="51.32"/>
      <rect class="st2" x="622.25" y="967.52" width="26.81" height="45.99"/>
      <line class="st2" x1="636.06" y1="1008.15" x2="636.06" y2="995.96"/>
      <line class="st2" x1="636.06" y1="985.07" x2="636.06" y2="972.88"/>
      <line class="st2" x1="642.08" y1="979.06" x2="629.89" y2="979.06"/>
      <line class="st2" x1="642.08" y1="1001.97" x2="629.89" y2="1001.97"/>
      <line class="st2" x1="693.29" y1="998.52" x2="693.29" y2="1010.99"/>
      <rect class="st2" x="669.99" y="967.3" width="46.6" height="46.44"/>
      <rect class="st2" x="677.87" y="975.01" width="31.01" height="31.01"/>
    </g>
    <g>
      <path class="st4" d="M736.07,1114.43v30.57h-24.73c-9.51,0-17.21-6.83-17.21-15.29s7.7-15.28,17.21-15.28h24.73Z"/>
      <path class="st2" d="M736.07,1145h-24.73c-9.51,0-17.21-6.83-17.21-15.29s7.7-15.28,17.21-15.28h24.73v30.57Z"/>
    </g>
    <polyline class="st2" points="669.15 1097.31 668.03 1097.31 668.03 1096.72"/>
    <polyline class="st2" points="736.07 1096.19 736.07 1097.31 735.47 1097.31"/>
    <polyline class="st2" points="734.95 1029.27 736.07 1029.27 736.07 1029.87"/>
    <polyline class="st2" points="668.03 1030.4 668.03 1029.27 668.63 1029.27"/>
    <line class="st2" x1="734.95" y1="1029.27" x2="668.63" y2="1029.27"/>
    <line class="st2" x1="736.07" y1="1096.19" x2="736.07" y2="1029.87"/>
    <line class="st2" x1="669.15" y1="1097.31" x2="735.47" y2="1097.31"/>
    <line class="st2" x1="668.03" y1="1030.4" x2="668.03" y2="1096.72"/>
    <circle class="st2" cx="717.26" cy="1063.21" r="4.23" transform="translate(-225.09 193.23) rotate(-13.28)"/>
    <circle class="st2" cx="717.26" cy="1063.21" r="4.23" transform="translate(-225.09 193.23) rotate(-13.28)"/>
    <line class="st2" x1="736.07" y1="1063.3" x2="717.17" y2="1063.3"/>
    <line class="st2" x1="614.06" y1="1166.17" x2="651.43" y2="1166.17"/>
    <line class="st2" x1="651.43" y1="1166.17" x2="651.43" y2="1167.52"/>
    <line class="st2" x1="651.43" y1="1167.52" x2="614.06" y2="1167.52"/>
    <line class="st2" x1="614.06" y1="1167.52" x2="614.06" y2="1166.17"/>
    <line class="st2" x1="619.01" y1="1167.52" x2="619.01" y2="1169.32"/>
    <line class="st2" x1="646.48" y1="1169.32" x2="646.48" y2="1167.52"/>
    <line class="st2" x1="777.49" y1="1019.4" x2="777.49" y2="1021.2"/>
    <line class="st2" x1="591.55" y1="1153.11" x2="591.55" y2="1086.03"/>
    <path class="st2" d="M591.55,1086.03c-18.46,0-36.47,7.65-49.52,20.71-13.06,13.06-20.71,31.06-20.71,49.52"/>
    <line class="st2" x1="591.55" y1="1153.11" x2="591.55" y2="1086.03"/>
    <polyline class="st2" points="521.32 1156.26 591.55 1156.26 591.55 1153.11"/>
    <polyline class="st2" points="476.3 1145.46 476.3 1148.61 555.08 1148.61"/>
    <line class="st2" x1="769.88" y1="904.08" x2="769.83" y2="904.14"/>
    <line class="st2" x1="768.59" y1="894.32" x2="768.48" y2="894.24"/>
    <line class="st2" x1="678.44" y1="559.28" x2="678.44" y2="563.79"/>
    <line class="st2" x1="603.26" y1="559.28" x2="678.44" y2="559.28"/>
    <line class="st2" x1="603.26" y1="563.79" x2="603.26" y2="559.28"/>
    <line class="st2" x1="678.44" y1="563.79" x2="603.26" y2="563.79"/>
    <line class="st2" x1="599.66" y1="571.44" x2="682.04" y2="571.44"/>
    <line class="st2" x1="678.44" y1="558.83" x2="603.26" y2="558.83"/>
    <line class="st2" x1="678.44" y1="565.59" x2="603.26" y2="565.59"/>
    <line class="st2" x1="686.55" y1="558.83" x2="686.55" y2="571.44"/>
    <line class="st2" x1="678.44" y1="558.83" x2="686.55" y2="558.83"/>
    <line class="st2" x1="678.44" y1="565.59" x2="678.44" y2="558.83"/>
    <line class="st2" x1="682.04" y1="565.59" x2="678.44" y2="565.59"/>
    <line class="st2" x1="682.04" y1="571.44" x2="682.04" y2="565.59"/>
    <line class="st2" x1="686.55" y1="571.44" x2="682.04" y2="571.44"/>
    <line class="st2" x1="599.66" y1="565.59" x2="599.66" y2="571.44"/>
    <line class="st2" x1="603.26" y1="565.59" x2="599.66" y2="565.59"/>
    <line class="st2" x1="603.26" y1="558.83" x2="603.26" y2="565.59"/>
    <line class="st2" x1="595.6" y1="558.83" x2="603.26" y2="558.83"/>
    <line class="st2" x1="595.6" y1="571.44" x2="595.6" y2="558.83"/>
    <line class="st2" x1="599.66" y1="571.44" x2="595.6" y2="571.44"/>
    <line class="st2" x1="595.6" y1="558.83" x2="686.55" y2="558.83"/>
    <line class="st2" x1="684.29" y1="558.83" x2="597.85" y2="558.83"/>
    <line class="st2" x1="683.84" y1="558.83" x2="598.3" y2="558.83"/>
    <line class="st2" x1="603.26" y1="558.83" x2="678.44" y2="558.83"/>
    <line class="st2" x1="678.44" y1="558.83" x2="603.26" y2="558.83"/>
    <line class="st2" x1="590.2" y1="559.28" x2="590.2" y2="563.79"/>
    <line class="st2" x1="507.81" y1="559.28" x2="590.2" y2="559.28"/>
    <line class="st2" x1="507.81" y1="563.79" x2="507.81" y2="559.28"/>
    <line class="st2" x1="590.2" y1="563.79" x2="507.81" y2="563.79"/>
    <line class="st2" x1="766.73" y1="880.23" x2="766.68" y2="880.28"/>
    <line class="st2" x1="765.43" y1="870.46" x2="765.33" y2="870.38"/>
    <line class="st2" x1="723.24" y1="682.27" x2="723.14" y2="682.28"/>
    <g>
      <g>
        <path class="st4" d="M650.51,1039.62v16.23c0,.61-.37,1.11-.83,1.11h-35.72c-.45,0-.82-.5-.82-1.11v-16.23c0-.61.37-1.11.82-1.11h35.72c.46,0,.83.5.83,1.11ZM634.76,1048.02c0-1.62-1.32-2.93-2.94-2.93s-2.93,1.31-2.93,2.93,1.31,2.94,2.93,2.94,2.94-1.32,2.94-2.94Z"/>
        <path class="st4" d="M631.82,1031.37c1.22,0,2.21.98,2.21,2.2s-.99,2.21-2.21,2.21-2.2-.99-2.2-2.21.99-2.2,2.2-2.2Z"/>
        <path class="st4" d="M633.4,1048.02c0,.88-.71,1.58-1.58,1.58s-1.58-.7-1.58-1.58.71-1.57,1.58-1.57,1.58.7,1.58,1.57Z"/>
        <path class="st4" d="M631.82,1049.6c.87,0,1.58-.7,1.58-1.58s-.71-1.57-1.58-1.57-1.58.7-1.58,1.57.71,1.58,1.58,1.58ZM634.76,1048.02c0,1.62-1.32,2.94-2.94,2.94s-2.93-1.32-2.93-2.94,1.31-2.93,2.93-2.93,2.94,1.31,2.94,2.93Z"/>
        <path class="st4" d="M631.82,1035.78c1.22,0,2.21-.99,2.21-2.21s-.99-2.2-2.21-2.2-2.2.98-2.2,2.2.99,2.21,2.2,2.21ZM613.14,1055.85c0,.61.37,1.11.82,1.11h35.72c.46,0,.83-.5.83-1.11v-16.23c0-.61-.37-1.11-.83-1.11h-35.72c-.45,0-.82.5-.82,1.11v16.23ZM650.51,1058.07h-37.37c-.37,0-.66-.49-.66-1.11v-27.68h38.85v27.68c0,.62-.37,1.11-.82,1.11Z"/>
      </g>
      <g>
        <line class="st2" x1="622.97" y1="1058.09" x2="641.43" y2="1058.09"/>
        <path class="st2" d="M612.48,1029.28v27.68c0,.62.29,1.11.66,1.11h37.37c.45,0,.82-.49.82-1.11v-27.68"/>
        <path class="st2" d="M613.14,1039.62v16.23c0,.61.37,1.11.82,1.11h35.72c.46,0,.83-.5.83-1.11v-16.23c0-.61-.37-1.11-.83-1.11h-35.72c-.45,0-.82.5-.82,1.11Z"/>
        <path class="st2" d="M633.4,1048.02c0,.88-.71,1.58-1.58,1.58s-1.58-.7-1.58-1.58.71-1.57,1.58-1.57,1.58.7,1.58,1.57Z"/>
        <path class="st2" d="M634.76,1048.02c0,1.62-1.32,2.94-2.94,2.94s-2.93-1.32-2.93-2.94,1.31-2.93,2.93-2.93,2.94,1.31,2.94,2.93Z"/>
        <path class="st2" d="M634.03,1033.57c0,1.22-.99,2.21-2.21,2.21s-2.2-.99-2.2-2.21.99-2.2,2.2-2.2,2.21.98,2.21,2.2Z"/>
        <line class="st2" x1="612.48" y1="1029.28" x2="651.33" y2="1029.28"/>
      </g>
    </g>
    <g>
      <g>
        <path class="st4" d="M707.58,879.1c-1.8,12.15-11.25,21.61-23.41,23.41v-.45c0-.45.45-.45.45-.9.45,0,.45-.45.9-.45,1.36-.45,2.26-.9,3.61-1.35.9-.45,1.35-1.8.9-2.7,0-.45-.45-.9-.9-.45-4.96,1.35-10.36.9-15.31-1.35l-.07-.18c5.83-2.32,11.19-5.77,15.83-10.18,4.42-4.65,7.88-10.03,10.19-15.82l.16.06c2.25,4.96,2.7,10.36.9,15.31,0,.45.45.9.9,1.35.9,0,2.25-.45,2.7-.9l1.35-4.05s0-.45.45-.45c0-.45.45-.45.9-.9h.45Z"/>
        <path class="st4" d="M707.58,823.72h-.45c-.45-.45-.9-.45-.9-.9-.45,0-.45-.45-.45-.45l-1.35-4.05c-.45-.45-1.8-.9-2.7-.9-.45.45-.9.9-.9,1.35,1.8,4.95,1.35,10.36-.9,15.31l-.18.07c-2.31-5.83-5.76-11.19-10.17-15.83-4.64-4.41-10-7.86-15.83-10.17l.07-.18c4.95-2.25,10.35-2.7,15.31-1.35.45.45.9,0,.9-.45.45-.9,0-2.26-.9-2.71-1.35-.45-2.25-.9-3.61-1.35-.45,0-.45-.45-.9-.45,0-.45-.45-.45-.45-.9v-.45c12.16,1.8,21.61,11.26,23.41,23.41Z"/>
        <path class="st4" d="M635.45,893.1c-4.46-2.2-8.56-5.1-12.05-8.6-5.67-5.96-9.75-13.11-11.87-20.79-1.07-3.92-1.64-7.97-1.64-12.07,0-4.34.59-8.56,1.7-12.61,2.13-7.73,6.19-14.8,11.81-20.71,3.49-3.49,7.59-6.39,12.05-8.59,6.44-3.19,13.63-4.92,20.81-4.92,6.12,0,12.01,1.17,17.49,3.34,5.83,2.31,11.19,5.76,15.83,10.17,4.41,4.64,7.86,10,10.17,15.83,2.16,5.48,3.33,11.37,3.33,17.49s-1.16,11.63-3.31,17.04c-2.31,5.79-5.77,11.17-10.19,15.82-4.64,4.41-10,7.86-15.83,10.18-5.48,2.16-11.37,3.33-17.49,3.33-7.18,0-14.37-1.73-20.81-4.91Z"/>
        <path class="st4" d="M620.24,808.42c4.93-1.34,10.29-.91,15.21,1.31-4.46,2.2-8.56,5.1-12.05,8.59-5.62,5.91-9.68,12.98-11.81,20.71h-.35c-3.6-5.4-4.95-12.15-3.15-18.46.45-.45,0-.9-.45-1.35-.9,0-2.25,0-2.7.9l-1.35,4.05-.45.45-.9.9s-.45,0-.45-.45c1.8-11.7,11.25-21.16,23.41-22.96v.45l-.9.9-.45.45c-1.35.45-2.71.45-4.06.9-.45.91-.9,1.81-.9,3.16.45.45.9.45,1.35.45Z"/>
        <path class="st4" d="M635.45,893.1c-4.92,2.22-10.28,2.65-15.21,1.31-.45,0-.9,0-1.35.45,0,1.35.45,2.25.9,3.15,1.35.45,2.71.45,4.06.9l.45.45.9.9v.45c-12.16-1.8-21.61-11.26-23.41-22.96,0-.45.45-.45.45-.45l.9.9.45.45,1.35,4.05c.45.9,1.8.9,2.7.9.45-.45.9-.9.45-1.35-1.8-6.3-.45-13.06,3.15-18.46l.29-.08c2.12,7.68,6.2,14.83,11.87,20.79,3.49,3.5,7.59,6.4,12.05,8.6Z"/>
      </g>
      <path class="st1" d="M703.09,851.7c0-12.61-4.95-24.31-13.51-33.32-9-8.55-20.71-13.51-33.32-13.51s-24.31,4.95-32.87,13.51c-8.55,9-13.51,20.71-13.51,33.32s4.95,23.86,13.51,32.87c8.55,8.55,20.71,13.51,32.87,13.51s24.31-4.95,33.32-13.51c8.55-9,13.51-20.71,13.51-32.87Z"/>
      <path class="st1" d="M707.59,823.78c-1.8-12.16-11.26-21.61-23.41-23.41"/>
      <path class="st1" d="M699.94,834.14c2.25-4.95,2.7-10.35.9-15.31"/>
      <path class="st1" d="M701.74,817.48c-.45.45-.9.9-.9,1.35"/>
      <line class="st1" x1="705.79" y1="822.43" x2="704.44" y2="818.38"/>
      <path class="st1" d="M704.44,818.38c-.45-.45-1.8-.9-2.7-.9"/>
      <line class="st1" x1="707.14" y1="823.78" x2="707.59" y2="823.78"/>
      <path class="st1" d="M706.24,822.88c0,.45.45.45.9.9"/>
      <path class="st1" d="M705.79,822.43s0,.45.45.45"/>
      <path class="st1" d="M689.13,806.67c.45.45.9,0,.9-.45"/>
      <path class="st1" d="M689.13,803.52c-1.35-.45-2.25-.9-3.6-1.35"/>
      <path class="st1" d="M690.03,806.22c.45-.9,0-2.25-.9-2.7"/>
      <line class="st1" x1="684.18" y1="800.37" x2="684.18" y2="800.82"/>
      <path class="st1" d="M684.18,800.82c0,.45.45.45.45.9"/>
      <path class="st1" d="M684.63,801.72c.45,0,.45.45.9.45"/>
      <path class="st1" d="M689.13,806.67c-4.95-1.35-10.35-.9-15.31,1.35"/>
      <path class="st1" d="M625.2,802.17c-12.16,1.8-21.61,11.26-23.41,22.96"/>
      <path class="st1" d="M608.09,820.63c-1.8,6.3-.45,13.06,3.15,18.46"/>
      <path class="st1" d="M608.09,820.63c.45-.45,0-.9-.45-1.35"/>
      <line class="st1" x1="604.94" y1="820.18" x2="603.59" y2="824.23"/>
      <path class="st1" d="M607.64,819.28c-.9,0-2.25,0-2.7.9"/>
      <path class="st1" d="M601.79,825.13c0,.45.45.45.45.45"/>
      <path class="st1" d="M602.24,825.58l.9-.9"/>
      <line class="st1" x1="603.14" y1="824.68" x2="603.59" y2="824.23"/>
      <path class="st1" d="M618.9,808.03c.45.45.9.45,1.35.45"/>
      <path class="st1" d="M623.85,803.97c-1.35.45-2.7.45-4.05.9"/>
      <path class="st1" d="M619.8,804.87c-.45.9-.9,1.8-.9,3.15"/>
      <line class="st1" x1="625.2" y1="802.62" x2="625.2" y2="802.17"/>
      <path class="st1" d="M624.3,803.52l.9-.9"/>
      <line class="st1" x1="623.85" y1="803.97" x2="624.3" y2="803.52"/>
      <path class="st1" d="M635.56,809.83c-4.95-2.25-10.35-2.7-15.31-1.35"/>
      <path class="st1" d="M684.18,902.57c12.16-1.8,21.61-11.26,23.41-23.41"/>
      <path class="st1" d="M700.84,884.11c1.8-4.95,1.35-10.35-.9-15.31"/>
      <path class="st1" d="M700.84,884.11c0,.45.45.9.9,1.35"/>
      <line class="st1" x1="704.44" y1="884.56" x2="705.79" y2="880.51"/>
      <path class="st1" d="M701.74,885.46c.9,0,2.25-.45,2.7-.9"/>
      <line class="st1" x1="707.59" y1="879.16" x2="707.14" y2="879.16"/>
      <path class="st1" d="M707.14,879.16c-.45.45-.9.45-.9.9"/>
      <path class="st1" d="M706.24,880.06c-.45,0-.45.45-.45.45"/>
      <path class="st1" d="M690.03,896.72c0-.45-.45-.9-.9-.45"/>
      <path class="st1" d="M685.53,900.77c1.35-.45,2.25-.9,3.6-1.35"/>
      <path class="st1" d="M689.13,899.42c.9-.45,1.35-1.8.9-2.7"/>
      <line class="st1" x1="684.18" y1="902.12" x2="684.18" y2="902.57"/>
      <path class="st1" d="M684.63,901.22c0,.45-.45.45-.45.9"/>
      <path class="st1" d="M685.53,900.77c-.45,0-.45.45-.9.45"/>
      <path class="st1" d="M673.82,894.92c4.95,2.25,10.35,2.7,15.31,1.35"/>
      <path class="st1" d="M601.79,877.81c1.8,11.71,11.26,21.16,23.41,22.96"/>
      <path class="st1" d="M611.25,863.85c-3.6,5.4-4.95,12.16-3.15,18.46"/>
      <path class="st1" d="M607.64,883.66c.45-.45.9-.9.45-1.35"/>
      <line class="st1" x1="603.59" y1="878.71" x2="604.94" y2="882.76"/>
      <path class="st1" d="M604.94,882.76c.45.9,1.8.9,2.7.9"/>
      <path class="st1" d="M602.24,877.36s-.45,0-.45.45"/>
      <path class="st1" d="M603.14,878.26l-.9-.9"/>
      <line class="st1" x1="603.59" y1="878.71" x2="603.14" y2="878.26"/>
      <path class="st1" d="M620.25,894.47c-.45,0-.9,0-1.35.45"/>
      <path class="st1" d="M619.8,898.07c1.35.45,2.7.45,4.05.9"/>
      <path class="st1" d="M618.9,894.92c0,1.35.45,2.25.9,3.15"/>
      <line class="st1" x1="625.2" y1="900.77" x2="625.2" y2="900.32"/>
      <path class="st1" d="M625.2,900.32q-.45-.45-.9-.9"/>
      <line class="st1" x1="624.3" y1="899.42" x2="623.85" y2="898.97"/>
      <path class="st1" d="M620.25,894.47c4.95,1.35,10.35.9,15.31-1.35"/>
      <path class="st1" d="M703.09,851.7c0-12.61-4.95-24.31-13.51-33.32-9-8.55-20.71-13.51-33.32-13.51s-24.31,4.95-32.87,13.51c-8.55,9-13.51,20.71-13.51,33.32s4.95,23.86,13.51,32.87c8.55,8.55,20.71,13.51,32.87,13.51s24.31-4.95,33.32-13.51c8.55-9,13.51-20.71,13.51-32.87Z"/>
      <path class="st1" d="M707.59,823.78c-1.8-12.16-11.26-21.61-23.41-23.41"/>
      <path class="st1" d="M699.94,834.14c2.25-4.95,2.7-10.35.9-15.31"/>
      <path class="st1" d="M701.74,817.48c-.45.45-.9.9-.9,1.35"/>
      <line class="st1" x1="705.79" y1="822.43" x2="704.44" y2="818.38"/>
      <path class="st1" d="M704.44,818.38c-.45-.45-1.8-.9-2.7-.9"/>
      <line class="st1" x1="707.14" y1="823.78" x2="707.59" y2="823.78"/>
      <path class="st1" d="M706.24,822.88c0,.45.45.45.9.9"/>
      <path class="st1" d="M705.79,822.43s0,.45.45.45"/>
      <path class="st1" d="M689.13,806.67c.45.45.9,0,.9-.45"/>
      <path class="st1" d="M689.13,803.52c-1.35-.45-2.25-.9-3.6-1.35"/>
      <path class="st1" d="M690.03,806.22c.45-.9,0-2.25-.9-2.7"/>
      <line class="st1" x1="684.18" y1="800.37" x2="684.18" y2="800.82"/>
      <path class="st1" d="M684.18,800.82c0,.45.45.45.45.9"/>
      <path class="st1" d="M684.63,801.72c.45,0,.45.45.9.45"/>
      <path class="st1" d="M689.13,806.67c-4.95-1.35-10.35-.9-15.31,1.35"/>
      <path class="st1" d="M625.2,802.17c-12.16,1.8-21.61,11.26-23.41,22.96"/>
      <path class="st1" d="M608.09,820.63c-1.8,6.3-.45,13.06,3.15,18.46"/>
      <path class="st1" d="M608.09,820.63c.45-.45,0-.9-.45-1.35"/>
      <line class="st1" x1="604.94" y1="820.18" x2="603.59" y2="824.23"/>
      <path class="st1" d="M607.64,819.28c-.9,0-2.25,0-2.7.9"/>
      <path class="st1" d="M601.79,825.13c0,.45.45.45.45.45"/>
      <path class="st1" d="M602.24,825.58l.9-.9"/>
      <line class="st1" x1="603.14" y1="824.68" x2="603.59" y2="824.23"/>
      <path class="st1" d="M618.9,808.03c.45.45.9.45,1.35.45"/>
      <path class="st1" d="M623.85,803.97c-1.35.45-2.7.45-4.05.9"/>
      <path class="st1" d="M619.8,804.87c-.45.9-.9,1.8-.9,3.15"/>
      <line class="st1" x1="625.2" y1="802.62" x2="625.2" y2="802.17"/>
      <path class="st1" d="M624.3,803.52l.9-.9"/>
      <line class="st1" x1="623.85" y1="803.97" x2="624.3" y2="803.52"/>
      <path class="st1" d="M635.56,809.83c-4.95-2.25-10.35-2.7-15.31-1.35"/>
      <path class="st1" d="M684.18,902.57c12.16-1.8,21.61-11.26,23.41-23.41"/>
      <path class="st1" d="M700.84,884.11c1.8-4.95,1.35-10.35-.9-15.31"/>
      <path class="st1" d="M700.84,884.11c0,.45.45.9.9,1.35"/>
      <line class="st1" x1="704.44" y1="884.56" x2="705.79" y2="880.51"/>
      <path class="st1" d="M701.74,885.46c.9,0,2.25-.45,2.7-.9"/>
      <line class="st1" x1="707.59" y1="879.16" x2="707.14" y2="879.16"/>
      <path class="st1" d="M707.14,879.16c-.45.45-.9.45-.9.9"/>
      <path class="st1" d="M706.24,880.06c-.45,0-.45.45-.45.45"/>
      <path class="st1" d="M690.03,896.72c0-.45-.45-.9-.9-.45"/>
      <path class="st1" d="M685.53,900.77c1.35-.45,2.25-.9,3.6-1.35"/>
      <path class="st1" d="M689.13,899.42c.9-.45,1.35-1.8.9-2.7"/>
      <line class="st1" x1="684.18" y1="902.12" x2="684.18" y2="902.57"/>
      <path class="st1" d="M684.63,901.22c0,.45-.45.45-.45.9"/>
      <path class="st1" d="M685.53,900.77c-.45,0-.45.45-.9.45"/>
      <path class="st1" d="M673.82,894.92c4.95,2.25,10.35,2.7,15.31,1.35"/>
      <path class="st1" d="M601.79,877.81c1.8,11.71,11.26,21.16,23.41,22.96"/>
      <path class="st1" d="M611.25,863.85c-3.6,5.4-4.95,12.16-3.15,18.46"/>
      <path class="st1" d="M607.64,883.66c.45-.45.9-.9.45-1.35"/>
      <line class="st1" x1="603.59" y1="878.71" x2="604.94" y2="882.76"/>
      <path class="st1" d="M604.94,882.76c.45.9,1.8.9,2.7.9"/>
      <path class="st1" d="M602.24,877.36s-.45,0-.45.45"/>
      <path class="st1" d="M603.14,878.26l-.9-.9"/>
      <line class="st1" x1="603.59" y1="878.71" x2="603.14" y2="878.26"/>
      <path class="st1" d="M620.25,894.47c-.45,0-.9,0-1.35.45"/>
      <path class="st1" d="M619.8,898.07c1.35.45,2.7.45,4.05.9"/>
      <path class="st1" d="M618.9,894.92c0,1.35.45,2.25.9,3.15"/>
      <line class="st1" x1="625.2" y1="900.77" x2="625.2" y2="900.32"/>
      <path class="st1" d="M625.2,900.32q-.45-.45-.9-.9"/>
      <line class="st1" x1="624.3" y1="899.42" x2="623.85" y2="898.97"/>
      <path class="st1" d="M620.25,894.47c4.95,1.35,10.35.9,15.31-1.35"/>
    </g>
    <g>
      <polygon class="st5" points="756.77 677.69 823.41 1177.87 472.69 1177.87 464.14 1169.32 464.14 1151.31 476.3 1151.31 476.3 1152.21 476.3 1169.32 591.55 1169.32 591.55 1159.87 591.55 1158.97 597.85 1158.97 597.85 1159.87 597.85 1168.42 597.85 1169.32 736.07 1169.32 736.07 1029.31 597.85 1029.31 597.85 1030.21 597.85 1082.43 597.85 1083.78 591.55 1083.78 591.55 1082.43 591.55 1019.4 597.85 1019.4 744.62 1019.4 744.62 1029.31 741.02 1029.31 741.02 1169.32 805.4 1169.32 786.49 1029.31 778.84 1029.31 778.84 1019.4 785.14 1019.4 763.57 856.37 761.73 842.47 744.62 844.72 723.01 682.2 710.85 590.35 687.44 590.35 687.44 559.29 687.44 550.28 742.37 550.28 750.88 613.28 750.89 613.28 755.88 650.23 753.17 650.68 756.77 677.69"/>
      <polygon class="st5" points="502.86 550.28 502.86 590.35 476.3 590.35 476.3 1057.22 476.3 1066.22 476.3 1067.57 464.14 1067.57 464.14 1057.22 470.44 1050.92 470.44 550.28 502.86 550.28"/>
    </g>
  </g>
</svg>