<?xml version="1.0" encoding="UTF-8"?>
<svg xmlns="http://www.w3.org/2000/svg" version="1.1" viewBox="0 0 1200 1697.14">
  <!-- Generator: Adobe Illustrator 29.6.0, SVG Export Plug-In . SVG Version: 2.1.1 Build 207)  -->
  <defs>
    <style>
      .st0, .st1 {
        stroke: #0d101f;
      }

      .st0, .st1, .st2, .st3 {
        stroke-linecap: round;
        stroke-linejoin: round;
        stroke-width: .15px;
      }

      .st0, .st4 {
        fill: #fff;
      }

      .st1, .st2, .st3 {
        fill: none;
      }

      .st5 {
        fill: #383037;
      }

      .st2 {
        stroke: #1d1d1b;
      }

      .st3 {
        stroke: #11100e;
      }

      .st6 {
        fill: #f2efed;
      }
    </style>
  </defs>
  <g id="sfondo">
    <g>
      <polygon class="st6" points="797.82 588.63 797.82 1167.15 615.93 1167.15 614.58 1167.15 614.58 1150.04 615.93 1150.04 659.6 1150.04 659.6 1098.26 659.6 1096.91 665.9 1096.91 665.9 1098.26 665.9 1109.07 665.9 1150.04 789.26 1150.04 789.26 1011.82 665.9 1011.82 665.9 1020.83 665.9 1021.73 659.6 1021.73 659.6 1020.83 659.6 1006.87 665.9 1006.87 694.72 1006.87 789.26 1006.87 789.26 972.66 665.9 972.66 659.6 972.66 659.6 967.7 665.9 967.7 789.26 967.7 789.26 629.15 719.03 629.15 719.03 598.08 719.03 588.63 797.82 588.63"/>
      <polygon class="st6" points="789.26 1011.82 789.26 1150.04 665.9 1150.04 665.9 1109.07 665.9 1098.26 665.9 1096.91 659.6 1096.91 659.6 1098.26 659.6 1150.04 615.93 1150.04 614.58 1150.04 614.58 1167.15 530.84 1167.15 530.84 1150.04 529.94 1150.04 524.09 1150.04 524.09 974.46 486.72 974.46 486.72 629.15 534.44 629.15 534.44 588.63 719.03 588.63 719.03 598.08 719.03 629.15 789.26 629.15 789.26 967.7 665.9 967.7 659.6 967.7 659.6 972.66 665.9 972.66 789.26 972.66 789.26 1006.87 694.72 1006.87 665.9 1006.87 659.6 1006.87 659.6 1020.83 659.6 1021.73 665.9 1021.73 665.9 1020.83 665.9 1011.82 789.26 1011.82"/>
      <polygon class="st6" points="534.44 588.63 534.44 629.15 486.72 629.15 486.72 974.46 524.09 974.46 524.09 1150.04 529.94 1150.04 530.84 1150.04 530.84 1167.15 524.09 1167.15 517.79 1160.84 517.79 980.31 478.17 980.31 478.17 752.05 453.86 752.05 453.86 588.63 534.44 588.63"/>
    </g>
    <rect class="st6" x="504.28" y="495.43" width="244.91" height="96.26"/>
    <rect class="st5" x="504.38" y="495.43" width="5.5" height="99.01"/>
    <rect class="st5" x="743.8" y="495.43" width="5.5" height="99.01"/>
    <rect class="st5" x="624.1" y="375.71" width="5.5" height="244.95" transform="translate(128.67 1125.04) rotate(-90)"/>
  </g>
  <g id="letto">
    <g>
      <g>
        <polygon class="st4" points="565.81 842.03 565.81 842.47 488.3 842.47 488.3 694.19 489.28 694.68 489.28 842.03 565.81 842.03"/>
        <path class="st4" d="M565.81,732.55v109.48h-76.53v-147.35l17.01,8.41c7.31,3.62,13.36,6.61,18.37,9.09l2.63,1.3c5.59,2.77,9.73,4.82,12.79,6.34l1.16.57,7.56,3.74,17.01,8.42Z"/>
        <path class="st4" d="M565.81,671.95v60.6l-17.01-8.42v-30.18c0-1.94-1.56-3.51-3.5-3.51h-35.51c-1.94,0-3.5,1.57-3.5,3.51v9.14l-17.01-8.41v-22.73h76.53Z"/>
        <path class="st4" d="M548.8,693.95v30.18l-7.56-3.74c-.37-.19-.75-.38-1.16-.57-3.06-1.52-7.2-3.57-12.79-6.34-.85-.41-1.72-.85-2.63-1.3-5.01-2.48-11.06-5.47-18.37-9.09v-9.14c0-1.94,1.56-3.51,3.5-3.51h35.51c1.94,0,3.5,1.57,3.5,3.51Z"/>
      </g>
      <g>
        <polyline class="st1" points="489.28 694.68 489.28 671.95 565.81 671.95 565.81 732.55"/>
        <polyline class="st1" points="506.29 703.09 489.28 694.68 488.3 694.19 488.3 842.47 565.81 842.47 565.81 842.03 565.81 732.55 548.8 724.13"/>
        <line class="st1" x1="527.29" y1="713.48" x2="524.66" y2="712.18"/>
        <line class="st1" x1="541.24" y1="720.39" x2="540.08" y2="719.82"/>
        <line class="st1" x1="509.79" y1="690.44" x2="545.3" y2="690.44"/>
        <path class="st1" d="M545.3,690.44c1.94,0,3.5,1.57,3.5,3.51"/>
        <path class="st1" d="M506.29,693.95c0-1.94,1.56-3.51,3.5-3.51"/>
        <path class="st1" d="M506.29,693.95v9.14c7.31,3.62,13.36,6.61,18.37,9.09.91.45,1.78.89,2.63,1.3,5.59,2.77,9.73,4.82,12.79,6.34.41.19.79.38,1.16.57l7.56,3.74v-30.18"/>
      </g>
    </g>
    <rect class="st0" x="679.85" y="635.4" width="32.87" height="32.87"/>
    <g>
      <rect class="st4" x="737.64" y="913.79" width="55.54" height="55.15"/>
      <line class="st3" x1="793.18" y1="913.79" x2="791.61" y2="913.79"/>
      <line class="st3" x1="788.88" y1="913.79" x2="786.14" y2="913.79"/>
      <line class="st3" x1="783.4" y1="913.79" x2="780.66" y2="913.79"/>
      <line class="st3" x1="777.92" y1="913.79" x2="775.19" y2="913.79"/>
      <line class="st3" x1="772.45" y1="913.79" x2="769.71" y2="913.79"/>
      <line class="st3" x1="766.97" y1="913.79" x2="763.84" y2="913.79"/>
      <line class="st3" x1="761.1" y1="913.79" x2="758.37" y2="913.79"/>
      <line class="st3" x1="755.63" y1="913.79" x2="752.89" y2="913.79"/>
      <line class="st3" x1="750.15" y1="913.79" x2="747.41" y2="913.79"/>
      <line class="st3" x1="744.68" y1="913.79" x2="741.94" y2="913.79"/>
      <line class="st3" x1="739.2" y1="913.79" x2="737.64" y2="913.79"/>
      <line class="st3" x1="737.64" y1="913.79" x2="737.64" y2="914.96"/>
      <line class="st3" x1="737.64" y1="917.7" x2="737.64" y2="920.44"/>
      <line class="st3" x1="737.64" y1="923.57" x2="737.64" y2="926.31"/>
      <line class="st3" x1="737.64" y1="929.04" x2="737.64" y2="931.78"/>
      <line class="st3" x1="737.64" y1="934.52" x2="737.64" y2="937.26"/>
      <line class="st3" x1="737.64" y1="940" x2="737.64" y2="942.73"/>
      <line class="st3" x1="737.64" y1="945.47" x2="737.64" y2="948.21"/>
      <line class="st3" x1="737.64" y1="950.95" x2="737.64" y2="954.08"/>
      <line class="st3" x1="737.64" y1="956.82" x2="737.64" y2="959.55"/>
      <line class="st3" x1="737.64" y1="962.29" x2="737.64" y2="965.03"/>
      <line class="st3" x1="737.64" y1="967.77" x2="737.64" y2="968.94"/>
      <path class="st3" d="M793.18,913.79"/>
    </g>
  </g>
  <g id="bianchi">
    <rect class="st4" x="533.32" y="597.18" width="189.89" height="12.61"/>
    <rect class="st4" x="530.85" y="1150.04" width="90.76" height="42.71"/>
    <rect class="st4" x="687.07" y="1011.82" width="27.46" height="2.23"/>
    <rect class="st4" x="682.12" y="1013.62" width="37.37" height="1.35"/>
    <rect class="st4" x="720.5" y="1081.99" width="70.49" height="74.96"/>
  </g>
  <g id="pareti">
    <g>
      <polygon class="st5" points="797.82 588.63 797.82 1167.15 615.93 1167.15 614.58 1167.15 614.58 1150.04 615.93 1150.04 659.6 1150.04 659.6 1098.27 659.6 1096.91 665.91 1096.91 665.91 1098.27 665.91 1109.07 665.91 1150.04 789.26 1150.04 789.26 1011.83 665.91 1011.83 665.91 1020.83 665.91 1021.73 659.6 1021.73 659.6 1020.83 659.6 1006.87 665.91 1006.87 694.72 1006.87 789.26 1006.87 789.26 972.66 788.48 972.66 665.91 972.66 633.4 972.66 633.4 967.7 659.6 967.7 665.91 967.7 789.26 967.7 789.26 629.15 719.03 629.15 719.03 598.08 719.03 588.63 797.82 588.63"/>
      <polygon class="st5" points="534.45 588.63 534.45 629.15 486.72 629.15 486.72 974.46 524.09 974.46 524.09 1150.04 529.94 1150.04 530.84 1150.04 530.84 1167.15 524.09 1167.15 517.79 1160.84 517.79 980.31 478.17 980.31 478.17 752.05 453.86 752.05 453.86 588.63 534.45 588.63"/>
    </g>
  </g>
  <g id="Livello_1">
    <g>
      <path class="st4" d="M765.4,1011.83v24.72c0,9.52-6.83,17.21-15.28,17.21s-15.29-7.69-15.29-17.21v-24.72h30.57Z"/>
      <path class="st2" d="M765.4,1011.83v24.72c0,9.52-6.83,17.21-15.28,17.21s-15.29-7.69-15.29-17.21v-24.72h30.57Z"/>
    </g>
    <polyline class="st2" points="533.55 1071.25 533.55 1150.04 537.15 1150.04"/>
    <polyline class="st2" points="589.37 1094.21 589.37 1094.66 659.61 1094.66 659.61 1091.06"/>
    <line class="st2" x1="589.37" y1="1094.66" x2="589.37" y2="1094.21"/>
    <line class="st2" x1="714.53" y1="1011.82" x2="714.53" y2="1013.62"/>
    <line class="st2" x1="687.07" y1="1013.62" x2="687.07" y2="1011.82"/>
    <line class="st2" x1="682.12" y1="1013.62" x2="682.12" y2="1014.97"/>
    <line class="st2" x1="719.48" y1="1013.62" x2="682.12" y2="1013.62"/>
    <line class="st2" x1="719.48" y1="1014.97" x2="719.48" y2="1013.62"/>
    <line class="st2" x1="682.12" y1="1014.97" x2="719.48" y2="1014.97"/>
    <circle class="st2" cx="754.7" cy="1131.23" r="4.23"/>
    <circle class="st2" cx="754.7" cy="1131.23" r="4.23"/>
    <line class="st2" x1="754.61" y1="1150.04" x2="754.61" y2="1131.13"/>
    <line class="st2" x1="788.26" y1="1081.99" x2="728.65" y2="1081.99"/>
    <polyline class="st2" points="788.26 1081.99 789.27 1081.99 789.27 1082.59"/>
    <polyline class="st2" points="789.27 1148.91 789.27 1150.04 788.73 1150.04"/>
    <line class="st2" x1="789.27" y1="1148.91" x2="789.27" y2="1082.59"/>
    <line class="st2" x1="720.5" y1="1150.04" x2="788.73" y2="1150.04"/>
    <polyline class="st2" points="720.5 1150.04 720.5 1081.99 728.65 1081.99"/>
    <g>
      <rect class="st4" x="633.4" y="913.89" width="103.33" height="53.81"/>
      <line class="st2" x1="633.4" y1="913.89" x2="633.4" y2="965.23"/>
      <rect class="st2" x="637.92" y="916.34" width="46.6" height="46.44"/>
      <rect class="st2" x="645.63" y="924.05" width="31.01" height="31.01"/>
      <rect class="st2" x="705.45" y="916.79" width="26.81" height="45.99"/>
      <line class="st2" x1="718.45" y1="922.15" x2="718.45" y2="934.34"/>
      <line class="st2" x1="718.45" y1="945.23" x2="718.45" y2="957.41"/>
      <line class="st2" x1="712.44" y1="951.24" x2="724.63" y2="951.24"/>
      <line class="st2" x1="712.44" y1="928.33" x2="724.63" y2="928.33"/>
      <line class="st2" x1="661.22" y1="960.02" x2="661.22" y2="947.55"/>
      <line class="st2" x1="735.15" y1="913.89" x2="633.4" y2="913.89"/>
    </g>
    <line class="st2" x1="659.61" y1="973.55" x2="659.61" y2="972.65"/>
    <line class="st2" x1="659.61" y1="1006.87" x2="659.61" y2="1005.52"/>
    <line class="st2" x1="665.91" y1="972.65" x2="665.91" y2="1006.87"/>
    <line class="st2" x1="659.61" y1="1005.52" x2="661.41" y2="1005.52"/>
    <line class="st2" x1="659.61" y1="973.55" x2="659.61" y2="1005.52"/>
    <line class="st2" x1="661.41" y1="973.55" x2="659.61" y2="973.55"/>
    <line class="st2" x1="661.41" y1="1005.52" x2="661.41" y2="973.55"/>
    <line class="st2" x1="659.61" y1="1094.66" x2="589.37" y2="1094.66"/>
    <line class="st2" x1="659.61" y1="1091.06" x2="659.61" y2="1094.66"/>
    <path class="st2" d="M659.61,1024.43c-18.91,0-36.47,7.2-49.97,20.26-13.06,13.51-20.26,31.06-20.26,49.97"/>
    <line class="st2" x1="504.28" y1="495.43" x2="504.28" y2="588.63"/>
    <line class="st2" x1="590.27" y1="495.43" x2="504.28" y2="495.43"/>
    <line class="st2" x1="749.2" y1="495.43" x2="625.39" y2="495.43"/>
    <g>
      <path class="st4" d="M755.5,698.17c-1.8.45-3.61,0-4.96-.45-12.15-6.75-22.06-17.11-27.01-30.16-.45-1.8-.45-3.6,0-4.95s1.35-2.25,2.25-3.16l12.16-14.85c.45-.45.9-.45.9-.9,1.35-1.35,3.15-2.25,4.95-2.25,5.4-.45,10.36.45,15.31,1.35,5.4.9,9.9,3.6,13.5,7.65,3.61,4.05,5.86,9,6.31,14.41.45,4.95.45,9.9,0,14.85-.45,2.26-1.8,3.61-3.15,4.96l-.9.9-16.21,10.8c-.9.45-2.25,1.35-3.15,1.8Z"/>
      <g>
        <path class="st2" d="M759.1,642.8c-4.95-.9-9.91-1.8-15.31-1.35"/>
        <path class="st2" d="M743.79,641.45c-1.8,0-3.6.9-4.95,2.25"/>
        <path class="st2" d="M738.84,643.7c0,.45-.45.45-.9.9"/>
        <line class="st2" x1="737.94" y1="644.6" x2="725.78" y2="659.45"/>
        <path class="st2" d="M725.78,659.45c-.9.91-1.8,1.81-2.25,3.16"/>
        <path class="st2" d="M723.53,662.61c-.45,1.35-.45,3.15,0,4.95"/>
        <path class="st2" d="M772.6,650.45c-3.6-4.05-8.1-6.75-13.5-7.65"/>
        <line class="st2" x1="767.65" y1="654.95" x2="764.95" y2="652.25"/>
        <path class="st2" d="M764.95,652.25c-5.85-4.95-13.96-5.85-20.71-2.7"/>
        <path class="st2" d="M744.24,649.55c-3.15,2.25-6.3,4.5-9.45,7.2"/>
        <path class="st2" d="M778.91,679.71c.45-4.95.45-9.9,0-14.85"/>
        <path class="st2" d="M775.76,684.67c1.35-1.35,2.7-2.7,3.15-4.96"/>
        <path class="st2" d="M774.86,685.57l.9-.9"/>
        <line class="st2" x1="774.86" y1="685.57" x2="758.65" y2="696.37"/>
        <path class="st2" d="M755.5,698.17c.9-.45,2.25-1.35,3.15-1.8"/>
        <path class="st2" d="M750.54,697.72c1.35.45,3.16.9,4.96.45"/>
        <path class="st2" d="M778.91,664.86c-.45-5.41-2.7-10.36-6.31-14.41"/>
        <path class="st2" d="M770.35,658.1c-.9-1.35-1.8-2.25-2.7-3.15"/>
        <path class="st2" d="M770.35,678.81c4.06-6.3,4.06-14.4,0-20.71"/>
        <path class="st2" d="M762.25,687.37c3.15-2.7,5.85-5.4,8.1-8.56"/>
        <path class="st2" d="M723.53,667.56c4.95,13.05,14.86,23.41,27.01,30.16"/>
      </g>
    </g>
    <line class="st2" x1="537.15" y1="1150.04" x2="612.33" y2="1150.04"/>
    <line class="st2" x1="533.55" y1="1150.04" x2="533.55" y2="1071.25"/>
    <line class="st2" x1="537.15" y1="1150.04" x2="533.55" y2="1150.04"/>
    <path class="st2" d="M612.33,1150.04c0-20.71-8.55-40.97-22.96-55.83-14.86-14.41-35.12-22.96-55.83-22.96"/>
    <line class="st2" x1="789.27" y1="972.65" x2="665.91" y2="1006.87"/>
    <line class="st2" x1="789.27" y1="1006.87" x2="665.91" y2="972.65"/>
    <line class="st2" x1="535.35" y1="609.79" x2="534.45" y2="609.79"/>
    <line class="st2" x1="719.03" y1="609.79" x2="718.13" y2="609.79"/>
    <line class="st2" x1="537.15" y1="1150.04" x2="612.33" y2="1150.04"/>
    <line class="st2" x1="713.63" y1="603.93" x2="713.63" y2="609.79"/>
    <line class="st2" x1="710.03" y1="603.93" x2="713.63" y2="603.93"/>
    <line class="st2" x1="710.03" y1="597.18" x2="710.03" y2="603.93"/>
    <line class="st2" x1="718.13" y1="597.18" x2="710.03" y2="597.18"/>
    <line class="st2" x1="718.13" y1="609.79" x2="718.13" y2="597.18"/>
    <line class="st2" x1="713.63" y1="609.79" x2="718.13" y2="609.79"/>
    <line class="st2" x1="632.14" y1="603.93" x2="632.14" y2="597.18"/>
    <line class="st2" x1="621.34" y1="603.93" x2="632.14" y2="603.93"/>
    <line class="st2" x1="621.34" y1="597.18" x2="621.34" y2="603.93"/>
    <line class="st2" x1="632.14" y1="597.18" x2="621.34" y2="597.18"/>
    <line class="st2" x1="535.35" y1="597.18" x2="535.35" y2="609.79"/>
    <line class="st2" x1="543.45" y1="597.18" x2="535.35" y2="597.18"/>
    <line class="st2" x1="543.45" y1="603.93" x2="543.45" y2="597.18"/>
    <line class="st2" x1="539.85" y1="603.93" x2="543.45" y2="603.93"/>
    <line class="st2" x1="539.85" y1="609.79" x2="539.85" y2="603.93"/>
    <line class="st2" x1="535.35" y1="609.79" x2="539.85" y2="609.79"/>
    <line class="st2" x1="632.14" y1="603.93" x2="710.03" y2="603.93"/>
    <line class="st2" x1="543.45" y1="603.93" x2="621.34" y2="603.93"/>
    <line class="st2" x1="632.14" y1="597.18" x2="710.03" y2="597.18"/>
    <line class="st2" x1="543.45" y1="597.18" x2="621.34" y2="597.18"/>
    <line class="st2" x1="713.63" y1="609.79" x2="539.85" y2="609.79"/>
    <line class="st2" x1="632.14" y1="598.08" x2="632.14" y2="602.13"/>
    <line class="st2" x1="710.03" y1="598.08" x2="632.14" y2="598.08"/>
    <line class="st2" x1="710.03" y1="602.13" x2="710.03" y2="598.08"/>
    <line class="st2" x1="632.14" y1="602.13" x2="710.03" y2="602.13"/>
    <line class="st2" x1="543.45" y1="598.08" x2="543.45" y2="602.13"/>
    <line class="st2" x1="621.34" y1="598.08" x2="543.45" y2="598.08"/>
    <line class="st2" x1="621.34" y1="602.13" x2="621.34" y2="598.08"/>
    <line class="st2" x1="543.45" y1="602.13" x2="621.34" y2="602.13"/>
    <line class="st2" x1="538.05" y1="597.18" x2="538.05" y2="508.94"/>
    <line class="st2" x1="715.43" y1="597.18" x2="715.43" y2="508.94"/>
    <path class="st2" d="M715.43,508.94c-23.41,0-45.92,9.45-62.58,26.11-16.66,16.21-25.66,38.72-25.66,62.13"/>
    <path class="st2" d="M626.29,597.18c0-23.41-9-45.92-25.66-62.13-16.66-16.66-39.17-26.11-62.58-26.11"/>
    <line class="st2" x1="659.61" y1="973.55" x2="661.41" y2="973.55"/>
    <line class="st2" x1="769.91" y1="1001.5" x2="769.91" y2="1001.47"/>
    <line class="st2" x1="659.61" y1="1091.06" x2="659.61" y2="1024.43"/>
    <line class="st2" x1="659.61" y1="1091.06" x2="659.61" y2="1024.43"/>
    <line class="st2" x1="517.79" y1="980.31" x2="517.79" y2="1160.84"/>
    <line class="st2" x1="478.17" y1="980.31" x2="517.79" y2="980.31"/>
    <line class="st2" x1="665.91" y1="1011.82" x2="665.91" y2="1012.72"/>
    <line class="st2" x1="529.95" y1="1167.14" x2="530.85" y2="1167.14"/>
    <line class="st2" x1="530.85" y1="1167.14" x2="529.95" y2="1167.14"/>
    <line class="st2" x1="517.79" y1="1160.84" x2="524.09" y2="1167.14"/>
    <g>
      <g>
        <polygon class="st4" points="789.27 762.53 789.27 830.51 782.07 830.51 745.6 830.51 738.39 830.51 738.39 762.53 745.6 762.53 782.07 762.53 789.27 762.53"/>
        <path class="st4" d="M782.07,762.53h-36.47c1.8-4.95,4.95-9,9.45-11.25.45-.45.9-.9.45-1.35-.45-.9-1.35-1.35-2.7-1.35-.9.45-2.25,1.35-3.15,1.8h-1.8q-.45,0-.45-.45c9.9-7.21,22.96-7.21,32.86,0q0,.45-.45.45h-1.8c-.9-.45-2.25-1.35-3.6-1.8-.9,0-1.8.45-2.7,1.35,0,.45,0,.9.45,1.35,4.5,2.25,8.1,6.3,9.91,11.25Z"/>
        <path class="st4" d="M745.6,830.51h36.47c-1.81,4.96-5.41,9.01-9.91,11.71-.45,0-.45.9-.45,1.35.9.9,1.8,1.35,2.7,1.35,1.35-.9,2.7-1.35,3.6-2.25h.9q.45,0,.9.45.45,0,.45.45c-9.9,6.75-22.96,6.75-32.86,0q0-.45.45-.45c0-.45.45-.45.9-.45h.9c.9.9,2.25,1.35,3.15,2.25,1.35,0,2.25-.45,2.7-1.35.45-.45,0-1.35-.45-1.35-4.5-2.7-7.65-6.75-9.45-11.71Z"/>
      </g>
      <g>
        <polyline class="st2" points="789.27 830.51 782.07 830.51 745.6 830.51 738.39 830.51"/>
        <polyline class="st2" points="738.39 762.53 745.6 762.53 782.07 762.53 789.27 762.53"/>
        <path class="st2" d="M747.4,843.57c9.9,6.75,22.96,6.75,32.86,0"/>
        <path class="st2" d="M772.16,842.22c4.5-2.7,8.1-6.75,9.91-11.71"/>
        <path class="st2" d="M772.16,842.22c-.45,0-.45.9-.45,1.35"/>
        <path class="st2" d="M774.41,844.92c1.35-.9,2.7-1.35,3.6-2.25"/>
        <path class="st2" d="M771.71,843.57c.9.9,1.8,1.35,2.7,1.35"/>
        <path class="st2" d="M780.26,843.57q0-.45-.45-.45"/>
        <path class="st2" d="M779.81,843.12q-.45-.45-.9-.45"/>
        <path class="st2" d="M778.91,842.67h-.9"/>
        <path class="st2" d="M745.6,830.51c1.8,4.96,4.95,9.01,9.45,11.71"/>
        <path class="st2" d="M755.5,843.57c.45-.45,0-1.35-.45-1.35"/>
        <path class="st2" d="M749.65,842.67c.9.9,2.25,1.35,3.15,2.25"/>
        <path class="st2" d="M752.8,844.92c1.35,0,2.25-.45,2.7-1.35"/>
        <path class="st2" d="M747.85,843.12q-.45,0-.45.45"/>
        <path class="st2" d="M748.75,842.67c-.45,0-.9,0-.9.45"/>
        <path class="st2" d="M749.65,842.67h-.9"/>
        <path class="st2" d="M780.26,749.93c-9.9-7.21-22.96-7.21-32.86,0"/>
        <path class="st2" d="M782.07,762.53c-1.81-4.95-5.41-9-9.91-11.25"/>
        <path class="st2" d="M771.71,749.93c0,.45,0,.9.45,1.35"/>
        <path class="st2" d="M778.01,750.38c-.9-.45-2.25-1.35-3.6-1.8"/>
        <path class="st2" d="M774.41,748.58c-.9,0-1.8.45-2.7,1.35"/>
        <path class="st2" d="M779.81,750.38q.45,0,.45-.45"/>
        <path class="st2" d="M778.91,750.38h.9"/>
        <path class="st2" d="M778.01,750.38h.9"/>
        <path class="st2" d="M755.05,751.28c-4.5,2.25-7.65,6.3-9.45,11.25"/>
        <path class="st2" d="M755.05,751.28c.45-.45.9-.9.45-1.35"/>
        <path class="st2" d="M752.8,748.58c-.9.45-2.25,1.35-3.15,1.8"/>
        <path class="st2" d="M755.5,749.93c-.45-.9-1.35-1.35-2.7-1.35"/>
        <path class="st2" d="M747.4,749.93q0,.45.45.45"/>
        <path class="st2" d="M747.85,750.38h.9"/>
        <path class="st2" d="M748.75,750.38h.9"/>
        <line class="st2" x1="789.27" y1="830.51" x2="789.27" y2="762.53"/>
        <line class="st2" x1="738.39" y1="762.53" x2="738.39" y2="830.51"/>
      </g>
    </g>
    <g>
      <g>
        <path class="st4" d="M712.03,1123.47v16.23c0,.61-.36,1.11-.82,1.11h-35.72c-.46,0-.82-.5-.82-1.11v-16.23c0-.62.36-1.11.82-1.11h35.72c.46,0,.82.49.82,1.11ZM696.28,1131.29c0-1.62-1.31-2.93-2.93-2.93s-2.93,1.31-2.93,2.93,1.31,2.94,2.93,2.94,2.93-1.32,2.93-2.94Z"/>
        <path class="st4" d="M693.35,1143.54c1.22,0,2.2.99,2.2,2.21s-.98,2.2-2.2,2.2-2.2-.99-2.2-2.2.98-2.21,2.2-2.21Z"/>
        <path class="st4" d="M693.35,1129.72c.87,0,1.58.7,1.58,1.57s-.71,1.58-1.58,1.58-1.58-.71-1.58-1.58.71-1.57,1.58-1.57Z"/>
        <path class="st4" d="M693.35,1128.36c1.62,0,2.93,1.31,2.93,2.93s-1.31,2.94-2.93,2.94-2.93-1.32-2.93-2.94,1.31-2.93,2.93-2.93ZM694.93,1131.29c0-.87-.71-1.57-1.58-1.57s-1.58.7-1.58,1.57.71,1.58,1.58,1.58,1.58-.71,1.58-1.58Z"/>
        <path class="st4" d="M693.35,1147.95c1.22,0,2.2-.99,2.2-2.2s-.98-2.21-2.2-2.21-2.2.99-2.2,2.21.98,2.2,2.2,2.2ZM712.69,1122.36v27.68h-38.85v-27.68c0-.62.37-1.11.83-1.11h37.36c.37,0,.66.49.66,1.11ZM712.03,1139.7v-16.23c0-.62-.36-1.11-.82-1.11h-35.72c-.46,0-.82.49-.82,1.11v16.23c0,.61.36,1.11.82,1.11h35.72c.46,0,.82-.5.82-1.11Z"/>
      </g>
      <g>
        <line class="st2" x1="702.21" y1="1121.23" x2="683.75" y2="1121.23"/>
        <path class="st2" d="M712.69,1150.04v-27.68c0-.62-.29-1.11-.66-1.11h-37.36c-.46,0-.83.49-.83,1.11v27.68"/>
        <path class="st2" d="M712.03,1139.7v-16.23c0-.62-.36-1.11-.82-1.11h-35.72c-.46,0-.82.49-.82,1.11v16.23c0,.61.36,1.11.82,1.11h35.72c.46,0,.82-.5.82-1.11Z"/>
        <path class="st2" d="M691.77,1131.29c0-.87.71-1.57,1.58-1.57s1.58.7,1.58,1.57-.71,1.58-1.58,1.58-1.58-.71-1.58-1.58Z"/>
        <path class="st2" d="M690.42,1131.29c0-1.62,1.31-2.93,2.93-2.93s2.93,1.31,2.93,2.93-1.31,2.94-2.93,2.94-2.93-1.32-2.93-2.94Z"/>
        <path class="st2" d="M691.15,1145.75c0-1.22.98-2.21,2.2-2.21s2.2.99,2.2,2.21-.98,2.2-2.2,2.2-2.2-.99-2.2-2.2Z"/>
        <line class="st2" x1="673.84" y1="1150.04" x2="712.69" y2="1150.04"/>
      </g>
    </g>
  </g>
</svg>