<?xml version="1.0" encoding="UTF-8"?>
<svg xmlns="http://www.w3.org/2000/svg" version="1.1" viewBox="0 0 1200 1697.14">
  <!-- Generator: Adobe Illustrator 29.6.0, SVG Export Plug-In . SVG Version: 2.1.1 Build 207)  -->
  <defs>
    <style>
      .st0 {
        fill: #302c35;
      }

      .st1 {
        fill: #ece8e5;
      }

      .st2, .st3, .st4, .st5 {
        stroke-linecap: round;
        stroke-linejoin: round;
        stroke-width: .15px;
      }

      .st2, .st3, .st5 {
        fill: none;
      }

      .st2, .st4 {
        stroke: #0c1020;
      }

      .st6, .st4 {
        fill: #fff;
      }

      .st3 {
        stroke: #1d1d1b;
      }

      .st5 {
        stroke: #11100d;
      }
    </style>
  </defs>
  <g id="sfondo">
    <g>
      <polygon class="st1" points="532.9 518.97 811.58 518.97 811.58 566.24 813.38 566.24 813.38 581.54 811.58 581.54 811.58 607.21 802.58 607.21 771.51 607.21 771.51 536.07 550.01 536.07 550.01 679.69 550.01 681.04 532.9 681.04 532.9 518.97"/>
      <polygon class="st1" points="550.01 536.07 771.51 536.07 771.51 607.21 802.58 607.21 811.58 607.21 811.58 791.79 803.48 791.79 803.48 699.95 771.51 699.95 771.51 892.64 802.58 892.64 811.58 892.64 811.58 1077.67 802.58 1077.67 771.51 1077.67 771.51 1123.15 648.16 1123.15 648.16 987.18 641.85 987.18 635.55 987.18 634.65 987.18 634.65 993.49 635.55 993.49 641.85 993.49 641.85 1140.25 491.93 1140.25 491.93 1032.65 490.58 1032.65 486.53 1032.65 486.53 1140.25 452.77 1140.25 452.77 998.44 486.53 998.44 490.58 998.44 491.93 998.44 491.93 993.49 545.06 993.49 550.01 993.49 558.57 993.49 559.47 993.49 559.47 987.18 558.57 987.18 550.01 987.18 545.06 987.18 545.06 826.01 550.01 826.01 550.01 765.68 550.01 764.78 532.9 764.78 532.9 681.04 550.01 681.04 550.01 679.69 550.01 536.07"/>
      <polygon class="st1" points="771.51 699.95 803.48 699.95 803.48 791.79 811.58 791.79 811.58 892.64 802.58 892.64 771.51 892.64 771.51 699.95"/>
      <polygon class="st1" points="532.9 764.78 550.01 764.78 550.01 765.68 550.01 826.01 545.06 826.01 545.06 987.18 550.01 987.18 558.57 987.18 559.47 987.18 559.47 993.49 558.57 993.49 550.01 993.49 545.06 993.49 491.93 993.49 491.93 998.44 490.58 998.44 486.53 998.44 452.77 998.44 452.77 1140.25 486.53 1140.25 486.53 1032.65 490.58 1032.65 491.93 1032.65 491.93 1140.25 641.85 1140.25 641.85 993.49 635.55 993.49 634.65 993.49 634.65 987.18 635.55 987.18 641.85 987.18 648.16 987.18 648.16 1123.15 771.51 1123.15 771.51 1077.67 802.58 1077.67 811.58 1077.67 811.58 1158.26 802.58 1158.26 802.58 1157.36 446.46 1157.36 446.46 987.18 539.21 987.18 539.21 777.84 532.9 771.53 532.9 764.78"/>
    </g>
  </g>
  <g id="numeri">
    <g>
      <rect class="st6" x="550.1" y="767.23" width="55.54" height="55.15" transform="translate(1372.68 216.94) rotate(90)"/>
      <line class="st5" x1="550.29" y1="822.58" x2="551.47" y2="822.58"/>
      <line class="st5" x1="554.2" y1="822.58" x2="556.94" y2="822.58"/>
      <line class="st5" x1="559.68" y1="822.58" x2="562.42" y2="822.58"/>
      <line class="st5" x1="565.16" y1="822.58" x2="568.29" y2="822.58"/>
      <line class="st5" x1="571.02" y1="822.58" x2="573.76" y2="822.58"/>
      <line class="st5" x1="576.5" y1="822.58" x2="579.24" y2="822.58"/>
      <line class="st5" x1="581.98" y1="822.58" x2="584.71" y2="822.58"/>
      <line class="st5" x1="587.45" y1="822.58" x2="590.19" y2="822.58"/>
      <line class="st5" x1="592.93" y1="822.58" x2="595.67" y2="822.58"/>
      <line class="st5" x1="598.79" y1="822.58" x2="601.53" y2="822.58"/>
      <line class="st5" x1="604.27" y1="822.58" x2="605.44" y2="822.58"/>
      <line class="st5" x1="605.44" y1="822.58" x2="605.44" y2="821.02"/>
      <line class="st5" x1="605.44" y1="818.28" x2="605.44" y2="815.54"/>
      <line class="st5" x1="605.44" y1="812.8" x2="605.44" y2="810.06"/>
      <line class="st5" x1="605.44" y1="807.33" x2="605.44" y2="804.59"/>
      <line class="st5" x1="605.44" y1="801.85" x2="605.44" y2="799.11"/>
      <line class="st5" x1="605.44" y1="796.37" x2="605.44" y2="793.25"/>
      <line class="st5" x1="605.44" y1="790.51" x2="605.44" y2="787.77"/>
      <line class="st5" x1="605.44" y1="785.03" x2="605.44" y2="782.29"/>
      <line class="st5" x1="605.44" y1="779.56" x2="605.44" y2="776.82"/>
      <line class="st5" x1="605.44" y1="774.08" x2="605.44" y2="771.34"/>
      <line class="st5" x1="605.44" y1="768.6" x2="605.44" y2="767.04"/>
      <line class="st5" x1="605.44" y1="767.04" x2="604.27" y2="767.04"/>
      <line class="st5" x1="601.53" y1="767.04" x2="598.79" y2="767.04"/>
      <line class="st5" x1="595.67" y1="767.04" x2="592.93" y2="767.04"/>
      <line class="st5" x1="590.19" y1="767.04" x2="587.45" y2="767.04"/>
      <line class="st5" x1="584.71" y1="767.04" x2="581.98" y2="767.04"/>
      <line class="st5" x1="579.24" y1="767.04" x2="576.5" y2="767.04"/>
      <line class="st5" x1="573.76" y1="767.04" x2="571.02" y2="767.04"/>
      <line class="st5" x1="568.29" y1="767.04" x2="565.16" y2="767.04"/>
      <line class="st5" x1="562.42" y1="767.04" x2="559.68" y2="767.04"/>
      <line class="st5" x1="556.94" y1="767.04" x2="554.2" y2="767.04"/>
      <line class="st5" x1="551.47" y1="767.04" x2="550.29" y2="767.04"/>
      <path class="st5" d="M605.44,822.58"/>
      <line class="st5" x1="605.44" y1="822.58" x2="604.27" y2="822.58"/>
      <line class="st5" x1="601.53" y1="822.58" x2="598.79" y2="822.58"/>
      <line class="st5" x1="595.67" y1="822.58" x2="592.93" y2="822.58"/>
      <line class="st5" x1="590.19" y1="822.58" x2="587.45" y2="822.58"/>
      <line class="st5" x1="584.71" y1="822.58" x2="581.98" y2="822.58"/>
      <line class="st5" x1="579.24" y1="822.58" x2="576.5" y2="822.58"/>
      <line class="st5" x1="573.76" y1="822.58" x2="571.02" y2="822.58"/>
      <line class="st5" x1="568.29" y1="822.58" x2="565.16" y2="822.58"/>
      <line class="st5" x1="562.42" y1="822.58" x2="559.68" y2="822.58"/>
      <line class="st5" x1="556.94" y1="822.58" x2="554.2" y2="822.58"/>
      <line class="st5" x1="551.47" y1="822.58" x2="550.29" y2="822.58"/>
    </g>
    <rect class="st6" x="550.1" y="822.9" width="55.54" height="55.15" transform="translate(1428.34 272.61) rotate(90)"/>
    <line class="st5" x1="550.29" y1="878.25" x2="551.47" y2="878.25"/>
    <line class="st5" x1="554.2" y1="878.25" x2="556.94" y2="878.25"/>
    <line class="st5" x1="559.68" y1="878.25" x2="562.42" y2="878.25"/>
    <line class="st5" x1="565.16" y1="878.25" x2="568.29" y2="878.25"/>
    <line class="st5" x1="571.02" y1="878.25" x2="573.76" y2="878.25"/>
    <line class="st5" x1="576.5" y1="878.25" x2="579.24" y2="878.25"/>
    <line class="st5" x1="581.98" y1="878.25" x2="584.71" y2="878.25"/>
    <line class="st5" x1="587.45" y1="878.25" x2="590.19" y2="878.25"/>
    <line class="st5" x1="592.93" y1="878.25" x2="595.67" y2="878.25"/>
    <line class="st5" x1="598.79" y1="878.25" x2="601.53" y2="878.25"/>
    <line class="st5" x1="604.27" y1="878.25" x2="605.44" y2="878.25"/>
    <line class="st5" x1="605.44" y1="878.25" x2="605.44" y2="876.68"/>
    <line class="st5" x1="605.44" y1="873.94" x2="605.44" y2="871.21"/>
    <line class="st5" x1="605.44" y1="868.47" x2="605.44" y2="865.73"/>
    <line class="st5" x1="605.44" y1="862.99" x2="605.44" y2="860.25"/>
    <line class="st5" x1="605.44" y1="857.52" x2="605.44" y2="854.78"/>
    <line class="st5" x1="605.44" y1="852.04" x2="605.44" y2="848.91"/>
    <line class="st5" x1="605.44" y1="846.17" x2="605.44" y2="843.44"/>
    <line class="st5" x1="605.44" y1="840.7" x2="605.44" y2="837.96"/>
    <line class="st5" x1="605.44" y1="835.22" x2="605.44" y2="832.48"/>
    <line class="st5" x1="605.44" y1="829.75" x2="605.44" y2="827.01"/>
    <line class="st5" x1="605.44" y1="824.27" x2="605.44" y2="822.71"/>
    <line class="st5" x1="605.44" y1="822.71" x2="604.27" y2="822.71"/>
    <line class="st5" x1="601.53" y1="822.71" x2="598.79" y2="822.71"/>
    <line class="st5" x1="595.67" y1="822.71" x2="592.93" y2="822.71"/>
    <line class="st5" x1="590.19" y1="822.71" x2="587.45" y2="822.71"/>
    <line class="st5" x1="584.71" y1="822.71" x2="581.98" y2="822.71"/>
    <line class="st5" x1="579.24" y1="822.71" x2="576.5" y2="822.71"/>
    <line class="st5" x1="573.76" y1="822.71" x2="571.02" y2="822.71"/>
    <line class="st5" x1="568.29" y1="822.71" x2="565.16" y2="822.71"/>
    <line class="st5" x1="562.42" y1="822.71" x2="559.68" y2="822.71"/>
    <line class="st5" x1="556.94" y1="822.71" x2="554.2" y2="822.71"/>
    <line class="st5" x1="551.47" y1="822.71" x2="550.29" y2="822.71"/>
    <path class="st5" d="M605.44,878.25"/>
    <line class="st5" x1="605.44" y1="878.25" x2="604.27" y2="878.25"/>
    <line class="st5" x1="601.53" y1="878.25" x2="598.79" y2="878.25"/>
    <line class="st5" x1="595.67" y1="878.25" x2="592.93" y2="878.25"/>
    <line class="st5" x1="590.19" y1="878.25" x2="587.45" y2="878.25"/>
    <line class="st5" x1="584.71" y1="878.25" x2="581.98" y2="878.25"/>
    <line class="st5" x1="579.24" y1="878.25" x2="576.5" y2="878.25"/>
    <line class="st5" x1="573.76" y1="878.25" x2="571.02" y2="878.25"/>
    <line class="st5" x1="568.29" y1="878.25" x2="565.16" y2="878.25"/>
    <line class="st5" x1="562.42" y1="878.25" x2="559.68" y2="878.25"/>
    <line class="st5" x1="556.94" y1="878.25" x2="554.2" y2="878.25"/>
  </g>
  <g id="bianchi">
    <g id="LINE">
      <path class="st6" d="M491.94,1092.02h24.72c9.52,0,17.22,6.83,17.22,15.29s-7.7,15.28-17.22,15.28h-24.72v-30.57Z"/>
    </g>
    <rect class="st6" x="709.22" y="974.3" width="185.04" height="21.72" transform="translate(-183.43 1786.9) rotate(-90)"/>
    <rect class="st6" x="708.76" y="682.12" width="196.29" height="32.06" transform="translate(108.75 1505.06) rotate(-90)"/>
    <rect class="st6" x="573.81" y="1072.22" width="68.04" height="68.04" transform="translate(-498.4 1714.07) rotate(-90)"/>
    <rect class="st6" x="620.7" y="1032.66" width="37.37" height="1.35" transform="translate(-393.95 1672.71) rotate(-90)"/>
    <rect class="st6" x="627.8" y="1031.81" width="27.46" height="3.04" transform="translate(-391.8 1674.86) rotate(-90)"/>
  </g>
  <g id="pareti">
    <g>
      <polygon class="st0" points="532.9 518.97 811.58 518.97 811.58 566.24 813.38 566.24 813.38 581.55 811.58 581.55 811.58 607.21 802.58 607.21 771.51 607.21 771.51 536.07 550.01 536.07 550.01 679.69 550.01 681.04 532.9 681.04 532.9 518.97"/>
      <polygon class="st0" points="771.51 699.95 803.48 699.95 803.48 791.79 811.58 791.79 811.58 892.64 802.58 892.64 771.51 892.64 771.51 699.95"/>
      <polygon class="st0" points="532.9 764.78 550.01 764.78 550.01 765.68 550.01 826.01 545.06 826.01 545.06 987.18 550.01 987.18 558.57 987.18 559.47 987.18 559.47 993.49 558.57 993.49 550.01 993.49 545.06 993.49 491.93 993.49 491.93 998.44 490.58 998.44 486.53 998.44 452.77 998.44 452.77 1140.25 486.53 1140.25 486.53 1032.65 490.58 1032.65 491.93 1032.65 491.93 1140.25 641.85 1140.25 641.85 993.49 635.55 993.49 634.65 993.49 634.65 987.18 635.55 987.18 641.85 987.18 648.16 987.18 648.16 1123.15 771.51 1123.15 771.51 1077.68 802.58 1077.68 811.58 1077.68 811.58 1158.26 802.58 1158.26 802.58 1157.36 446.46 1157.36 446.46 987.18 539.21 987.18 539.21 777.84 532.9 771.53 532.9 764.78"/>
    </g>
  </g>
  <g id="Default">
    <rect class="st6" x="522.65" y="848.19" width="52.24" height="7.88" transform="translate(-303.36 1400.9) rotate(-90)"/>
    <g>
      <rect class="st6" x="673.37" y="1046.26" width="51.32" height="101.75" transform="translate(-398.1 1796.17) rotate(-90)"/>
      <g>
        <line class="st2" x1="727.2" y1="1108.59" x2="739.38" y2="1108.59"/>
        <g>
          <rect class="st2" x="648.16" y="1071.47" width="101.75" height="51.32"/>
          <line class="st2" x1="727.2" y1="1085.68" x2="739.38" y2="1085.68"/>
          <line class="st2" x1="733.21" y1="1091.69" x2="733.21" y2="1079.51"/>
          <line class="st2" x1="733.21" y1="1114.77" x2="733.21" y2="1102.58"/>
          <rect class="st2" x="720.21" y="1074.14" width="26.81" height="45.99"/>
          <rect class="st2" x="660.39" y="1081.63" width="31.01" height="31.01"/>
          <rect class="st2" x="652.68" y="1073.92" width="46.6" height="46.44"/>
          <line class="st2" x1="675.98" y1="1105.14" x2="675.98" y2="1117.61"/>
        </g>
      </g>
    </g>
    <line class="st2" x1="641.86" y1="1019.6" x2="640.06" y2="1019.6"/>
    <line class="st2" x1="640.06" y1="1047.06" x2="641.86" y2="1047.06"/>
    <line class="st2" x1="640.06" y1="1052.02" x2="638.7" y2="1052.02"/>
    <line class="st2" x1="640.06" y1="1014.65" x2="640.06" y2="1052.02"/>
    <line class="st2" x1="638.7" y1="1014.65" x2="640.06" y2="1014.65"/>
    <line class="st2" x1="638.7" y1="1052.02" x2="638.7" y2="1014.65"/>
    <polyline class="st2" points="574.94 1140.26 573.81 1140.26 573.81 1139.66"/>
    <polyline class="st2" points="641.86 1139.13 641.86 1140.26 641.26 1140.26"/>
    <polyline class="st2" points="640.73 1072.22 641.86 1072.22 641.86 1072.82"/>
    <polyline class="st2" points="573.81 1073.34 573.81 1072.22 574.41 1072.22"/>
    <line class="st2" x1="640.73" y1="1072.22" x2="574.41" y2="1072.22"/>
    <line class="st2" x1="641.86" y1="1139.13" x2="641.86" y2="1072.82"/>
    <line class="st2" x1="574.94" y1="1140.26" x2="641.26" y2="1140.26"/>
    <line class="st2" x1="573.81" y1="1073.34" x2="573.81" y2="1139.66"/>
    <circle class="st2" cx="623.05" cy="1106.15" r="4.23"/>
    <circle class="st2" cx="623.05" cy="1106.15" r="4.23"/>
    <line class="st2" x1="641.86" y1="1106.24" x2="622.96" y2="1106.24"/>
    <path class="st2" d="M491.94,1092.1h24.72c9.52,0,17.22,6.84,17.22,15.29s-7.7,15.29-17.22,15.29h-24.72v-30.58Z"/>
    <line class="st2" x1="565.32" y1="987.19" x2="632.4" y2="987.19"/>
    <line class="st2" x1="550.01" y1="683.3" x2="550.01" y2="758.48"/>
    <line class="st2" x1="803.48" y1="616.21" x2="803.48" y2="690.95"/>
    <line class="st2" x1="803.48" y1="690.95" x2="803.48" y2="616.21"/>
    <line class="st2" x1="803.48" y1="610.81" x2="803.48" y2="696.35"/>
    <line class="st2" x1="803.48" y1="610.36" x2="803.48" y2="696.8"/>
    <line class="st2" x1="803.48" y1="699.05" x2="803.48" y2="608.11"/>
    <line class="st2" x1="803.48" y1="608.11" x2="790.87" y2="608.11"/>
    <line class="st2" x1="803.48" y1="616.21" x2="803.48" y2="608.11"/>
    <line class="st2" x1="796.28" y1="616.21" x2="803.48" y2="616.21"/>
    <line class="st2" x1="796.28" y1="612.61" x2="796.28" y2="616.21"/>
    <line class="st2" x1="790.87" y1="612.61" x2="796.28" y2="612.61"/>
    <line class="st2" x1="790.87" y1="608.11" x2="790.87" y2="612.61"/>
    <line class="st2" x1="796.28" y1="694.55" x2="790.87" y2="694.55"/>
    <line class="st2" x1="796.28" y1="690.95" x2="796.28" y2="694.55"/>
    <line class="st2" x1="803.48" y1="690.95" x2="796.28" y2="690.95"/>
    <line class="st2" x1="803.48" y1="699.05" x2="803.48" y2="690.95"/>
    <line class="st2" x1="790.87" y1="699.05" x2="803.48" y2="699.05"/>
    <line class="st2" x1="790.87" y1="694.55" x2="790.87" y2="699.05"/>
    <line class="st2" x1="796.28" y1="616.21" x2="796.28" y2="690.95"/>
    <line class="st2" x1="803.48" y1="616.21" x2="803.48" y2="690.95"/>
    <line class="st2" x1="790.87" y1="694.55" x2="790.87" y2="612.61"/>
    <line class="st2" x1="802.58" y1="616.21" x2="798.53" y2="616.21"/>
    <line class="st2" x1="802.58" y1="690.95" x2="802.58" y2="616.21"/>
    <line class="st2" x1="798.53" y1="690.95" x2="802.58" y2="690.95"/>
    <line class="st2" x1="798.53" y1="616.21" x2="798.53" y2="690.95"/>
    <line class="st2" x1="790.87" y1="984.49" x2="790.87" y2="980.43"/>
    <line class="st2" x1="790.87" y1="980.43" x2="803.48" y2="980.43"/>
    <line class="st2" x1="803.48" y1="980.43" x2="803.48" y2="984.49"/>
    <line class="st2" x1="803.48" y1="984.49" x2="790.87" y2="984.49"/>
    <line class="st2" x1="790.87" y1="898.05" x2="790.87" y2="893.99"/>
    <line class="st2" x1="790.87" y1="893.99" x2="803.48" y2="893.99"/>
    <line class="st2" x1="803.48" y1="893.99" x2="803.48" y2="898.05"/>
    <line class="st2" x1="803.48" y1="898.05" x2="790.87" y2="898.05"/>
    <line class="st2" x1="803.48" y1="980.43" x2="803.48" y2="898.05"/>
    <line class="st2" x1="790.87" y1="898.05" x2="790.87" y2="980.43"/>
    <line class="st2" x1="798.53" y1="980.43" x2="798.53" y2="898.05"/>
    <line class="st2" x1="798.53" y1="898.05" x2="802.58" y2="898.05"/>
    <line class="st2" x1="802.58" y1="898.05" x2="802.58" y2="980.43"/>
    <line class="st2" x1="802.58" y1="980.43" x2="798.53" y2="980.43"/>
    <line class="st2" x1="803.48" y1="1068.67" x2="803.48" y2="993.49"/>
    <line class="st2" x1="803.48" y1="993.49" x2="803.48" y2="1068.67"/>
    <line class="st2" x1="803.48" y1="1073.63" x2="803.48" y2="988.09"/>
    <line class="st2" x1="803.48" y1="1074.08" x2="803.48" y2="987.64"/>
    <line class="st2" x1="803.48" y1="985.39" x2="803.48" y2="1076.33"/>
    <line class="st2" x1="790.87" y1="989.89" x2="790.87" y2="985.39"/>
    <line class="st2" x1="790.87" y1="985.39" x2="803.48" y2="985.39"/>
    <line class="st2" x1="803.48" y1="985.39" x2="803.48" y2="993.49"/>
    <line class="st2" x1="803.48" y1="993.49" x2="796.28" y2="993.49"/>
    <line class="st2" x1="796.28" y1="993.49" x2="796.28" y2="989.89"/>
    <line class="st2" x1="796.28" y1="989.89" x2="790.87" y2="989.89"/>
    <line class="st2" x1="790.87" y1="1076.33" x2="790.87" y2="1072.28"/>
    <line class="st2" x1="790.87" y1="1072.28" x2="796.28" y2="1072.28"/>
    <line class="st2" x1="796.28" y1="1072.28" x2="796.28" y2="1068.67"/>
    <line class="st2" x1="796.28" y1="1068.67" x2="803.48" y2="1068.67"/>
    <line class="st2" x1="803.48" y1="1068.67" x2="803.48" y2="1076.33"/>
    <line class="st2" x1="803.48" y1="1076.33" x2="790.87" y2="1076.33"/>
    <line class="st2" x1="796.28" y1="1068.67" x2="796.28" y2="993.49"/>
    <line class="st2" x1="803.48" y1="1068.67" x2="803.48" y2="993.49"/>
    <line class="st2" x1="790.87" y1="989.89" x2="790.87" y2="1072.28"/>
    <line class="st2" x1="798.53" y1="1068.67" x2="798.53" y2="993.49"/>
    <line class="st2" x1="798.53" y1="993.49" x2="802.58" y2="993.49"/>
    <line class="st2" x1="802.58" y1="993.49" x2="802.58" y2="1068.67"/>
    <line class="st2" x1="802.58" y1="1068.67" x2="798.53" y2="1068.67"/>
    <line class="st2" x1="802.58" y1="893.99" x2="802.58" y2="892.64"/>
    <line class="st2" x1="802.58" y1="985.39" x2="802.58" y2="984.49"/>
    <line class="st2" x1="802.58" y1="1077.68" x2="802.58" y2="1076.33"/>
    <line class="st2" x1="802.58" y1="608.11" x2="802.58" y2="607.21"/>
    <line class="st2" x1="802.58" y1="699.95" x2="802.58" y2="699.05"/>
    <line class="st2" x1="491.94" y1="1120.9" x2="491.94" y2="1094.34"/>
    <line class="st2" x1="491.94" y1="1120.9" x2="491.94" y2="1094.34"/>
    <g>
      <g>
        <path class="st6" d="M491.93,1037.02h27.68c.62,0,1.12.3,1.12.66v37.37c0,.46-.5.82-1.12.82h-27.74v-38.85h.06ZM518.5,1037.68h-16.22c-.62,0-1.11.37-1.11.83v35.72c0,.45.49.82,1.11.82h16.22c.62,0,1.12-.37,1.12-.82v-35.72c0-.46-.5-.83-1.12-.83ZM496.23,1054.16c-1.22,0-2.21.99-2.21,2.21s.99,2.2,2.21,2.2,2.2-.99,2.2-2.2-.99-2.21-2.2-2.21Z"/>
        <path class="st6" d="M502.28,1037.68h16.22c.62,0,1.12.37,1.12.83v35.72c0,.45-.5.82-1.12.82h-16.22c-.62,0-1.11-.37-1.11-.82v-35.72c0-.46.49-.83,1.11-.83ZM510.68,1053.43c-1.62,0-2.93,1.32-2.93,2.94s1.31,2.93,2.93,2.93,2.93-1.31,2.93-2.93-1.31-2.94-2.93-2.94Z"/>
        <path class="st6" d="M507.75,1056.37c0-1.62,1.31-2.94,2.93-2.94s2.93,1.32,2.93,2.94-1.31,2.93-2.93,2.93-2.93-1.31-2.93-2.93ZM510.68,1054.79c-.87,0-1.58.71-1.58,1.58s.71,1.57,1.58,1.57,1.58-.7,1.58-1.57-.71-1.58-1.58-1.58Z"/>
        <path class="st6" d="M494.02,1056.37c0-1.22.99-2.21,2.21-2.21s2.2.99,2.2,2.21-.99,2.2-2.2,2.2-2.21-.99-2.21-2.2Z"/>
        <path class="st6" d="M509.1,1056.37c0-.87.71-1.58,1.58-1.58s1.58.71,1.58,1.58-.71,1.57-1.58,1.57-1.58-.7-1.58-1.57Z"/>
      </g>
      <g>
        <path class="st2" d="M500.49,1075.87h-8.56"/>
        <path class="st2" d="M491.93,1037.02h27.68c.62,0,1.12.3,1.12.66v37.37c0,.46-.5.82-1.12.82h-8.77"/>
        <line class="st2" x1="520.75" y1="1047.51" x2="520.75" y2="1065.97"/>
        <line class="st2" x1="510.84" y1="1075.87" x2="500.49" y2="1075.87"/>
        <path class="st2" d="M502.28,1037.68h16.22c.62,0,1.12.37,1.12.83v35.72c0,.45-.5.82-1.12.82h-16.22c-.62,0-1.11-.37-1.11-.82v-35.72c0-.46.49-.83,1.11-.83Z"/>
        <path class="st2" d="M510.68,1057.94c.87,0,1.58-.7,1.58-1.57s-.71-1.58-1.58-1.58-1.58.71-1.58,1.58.71,1.57,1.58,1.57Z"/>
        <path class="st2" d="M510.68,1059.3c1.62,0,2.93-1.31,2.93-2.93s-1.31-2.94-2.93-2.94-2.93,1.32-2.93,2.94,1.31,2.93,2.93,2.93Z"/>
        <path class="st2" d="M496.23,1058.57c1.21,0,2.2-.99,2.2-2.2s-.99-2.21-2.2-2.21-2.21.99-2.21,2.21.99,2.2,2.21,2.2Z"/>
        <line class="st2" x1="491.87" y1="1075.87" x2="491.87" y2="1037.02"/>
      </g>
    </g>
    <line class="st2" x1="491.94" y1="999.79" x2="489.69" y2="999.79"/>
    <polyline class="st2" points="562.17 916.95 562.17 987.19 565.32 987.19"/>
    <line class="st2" x1="549.9" y1="762.28" x2="549.9" y2="762.28"/>
    <polyline class="st2" points="550.01 758.48 550.01 762.08 628.35 762.08"/>
    <line class="st2" x1="535" y1="560.18" x2="535" y2="560.3"/>
    <line class="st2" x1="489.69" y1="1031.76" x2="489.69" y2="999.79"/>
    <line class="st2" x1="489.69" y1="999.79" x2="491.94" y2="999.79"/>
    <line class="st2" x1="491.94" y1="999.79" x2="491.94" y2="1031.76"/>
    <line class="st2" x1="491.94" y1="1031.76" x2="489.69" y2="1031.76"/>
    <line class="st2" x1="565.32" y1="987.19" x2="632.4" y2="987.19"/>
    <line class="st2" x1="562.17" y1="987.19" x2="562.17" y2="916.95"/>
    <line class="st2" x1="565.32" y1="987.19" x2="562.17" y2="987.19"/>
    <path class="st2" d="M632.4,987.19c0-18.46-7.65-36.47-20.71-49.52s-31.06-20.71-49.52-20.71"/>
    <line class="st2" x1="486.53" y1="1032.66" x2="486.53" y2="998.44"/>
    <line class="st2" x1="491.94" y1="1031.76" x2="491.94" y2="1032.66"/>
    <line class="st2" x1="491.94" y1="998.44" x2="491.94" y2="999.79"/>
    <line class="st2" x1="452.77" y1="998.44" x2="486.53" y2="1140.26"/>
    <line class="st2" x1="486.53" y1="998.44" x2="452.77" y2="1140.26"/>
    <line class="st2" x1="550.01" y1="758.48" x2="550.01" y2="683.3"/>
    <line class="st2" x1="550.01" y1="758.48" x2="550.01" y2="762.08"/>
    <line class="st2" x1="550.01" y1="762.08" x2="628.35" y2="762.08"/>
    <path class="st2" d="M628.35,762.08c0-20.71-8.1-40.97-22.96-55.83-14.41-14.41-34.67-22.96-55.38-22.96"/>
    <g>
      <path class="st6" d="M711.03,717.04c-.69-1.26-1.01-3.03-.89-4.88,2.52-13.73,10.4-25.7,21.22-34.09,1.17-1.13,2.87-1.9,4.72-1.78,1.05.72,2.46.92,3.5,1.65l17.81,7.26c.52.36.6.8,1.05.72,1.57,1.09,3.14,2.18,3.99,4.31,1.33,4.79,2.23,9.66,2.67,14.61.53,5.4-.79,10.68-3.61,15.31-2.81,4.63-6.75,8.1-11.9,9.96-4.63,2.22-9.42,3.57-14.82,4.09-1.77.32-3.7-.24-5.27-1.32-.08-.44-.52-.36-1.05-.72l-14.64-12.42c-1.05-.72-2.09-1.45-2.78-2.69Z"/>
      <g>
        <path class="st2" d="M734.77,734.2c5.39-.52,10.19-1.87,14.82-4.09"/>
        <path class="st2" d="M729.49,732.87c1.57,1.08,3.5,1.65,5.27,1.32"/>
        <path class="st2" d="M728.45,732.15c.52.36.97.28,1.05.72"/>
        <line class="st2" x1="728.45" y1="732.15" x2="713.81" y2="719.73"/>
        <path class="st2" d="M711.03,717.04c.69,1.25,1.73,1.97,2.78,2.69"/>
        <path class="st2" d="M710.14,712.16c-.12,1.85.21,3.62.89,4.88"/>
        <path class="st2" d="M749.58,730.11c5.15-1.86,9.09-5.32,11.9-9.96"/>
        <path class="st2" d="M753.72,720.2c.72-1.05,1.37-2.54,2.09-3.58"/>
        <path class="st2" d="M733.75,726.15c7.21,1.88,15.02-.46,19.97-5.94"/>
        <path class="st2" d="M723.16,720.77c3.58,2.09,7.09,3.73,10.59,5.38"/>
        <path class="st2" d="M765.1,704.84c-.45-4.95-1.34-9.82-2.67-14.61"/>
        <path class="st2" d="M762.42,690.24c-.85-2.13-2.42-3.22-3.99-4.31"/>
        <path class="st2" d="M758.43,685.92c-.44.08-.52-.36-1.05-.72"/>
        <line class="st2" x1="757.38" y1="685.2" x2="739.57" y2="677.94"/>
        <path class="st2" d="M739.57,677.94c-1.05-.72-2.46-.92-3.5-1.65"/>
        <path class="st2" d="M736.07,676.29c-1.85-.12-3.55.65-4.72,1.78"/>
        <path class="st2" d="M761.49,720.15c2.82-4.63,4.14-9.91,3.61-15.31"/>
        <path class="st2" d="M755.81,716.62c.72-1.05,1.45-2.09,2.09-3.58"/>
        <path class="st2" d="M757.89,713.03c2.85-6.94,1.39-14.9-3.73-20.37"/>
        <path class="st2" d="M754.17,692.66c-2.78-2.69-5.92-4.87-9.51-6.96"/>
        <path class="st2" d="M731.35,678.07c-10.82,8.39-18.7,20.36-21.22,34.09"/>
      </g>
    </g>
    <line class="st2" x1="539.21" y1="777.84" x2="532.91" y2="771.54"/>
    <line class="st2" x1="532.91" y1="681.04" x2="532.91" y2="679.69"/>
    <line class="st2" x1="532.91" y1="765.68" x2="532.91" y2="764.78"/>
    <line class="st2" x1="550.01" y1="765.68" x2="550.01" y2="764.78"/>
    <line class="st2" x1="491.94" y1="1032.66" x2="490.59" y2="1032.66"/>
    <line class="st2" x1="532.91" y1="765.68" x2="532.91" y2="771.54"/>
    <line class="st2" x1="532.91" y1="518.97" x2="532.91" y2="679.69"/>
    <line class="st2" x1="532.91" y1="771.54" x2="532.91" y2="764.78"/>
    <line class="st2" x1="532.91" y1="681.04" x2="532.91" y2="679.69"/>
    <line class="st2" x1="532.91" y1="765.68" x2="532.91" y2="764.78"/>
    <line class="st2" x1="550.01" y1="764.78" x2="550.01" y2="765.68"/>
    <line class="st2" x1="532.91" y1="681.04" x2="532.91" y2="518.97"/>
    <g>
      <g>
        <polygon class="st6" points="720.37 538.7 720.81 538.7 720.81 616.21 572.54 616.21 573.02 615.23 720.37 615.23 720.37 538.7"/>
        <path class="st6" d="M610.89,538.7h109.48v76.53h-147.35l8.42-17.01c7.56-15.28,12.4-25.06,15.5-31.33l.77-1.56c1.1-2.22,1.94-3.93,2.59-5.24l.41-.82c.25-.51.47-.94.65-1.32l.24-.47c.63-1.29.81-1.64.85-1.73l.02-.04,8.42-17.01Z"/>
        <path class="st6" d="M550.29,538.7h60.6l-8.42,17.01h-30.18c-1.93,0-3.5,1.56-3.5,3.5v35.51c0,1.94,1.57,3.5,3.5,3.5h9.15l-8.42,17.01h-22.73v-76.53Z"/>
        <path class="st6" d="M572.29,555.71h30.18l-.02.04c-.04.09-.22.44-.85,1.73-.08.14-.15.3-.24.47-.18.38-.4.81-.65,1.32-.13.25-.26.52-.41.82-.65,1.31-1.49,3.02-2.59,5.24-.24.49-.5,1.01-.77,1.56-3.1,6.27-7.94,16.05-15.5,31.33h-9.15c-1.93,0-3.5-1.56-3.5-3.5v-35.51c0-1.94,1.57-3.5,3.5-3.5Z"/>
      </g>
      <g>
        <polyline class="st2" points="573.02 615.23 550.29 615.23 550.29 538.7 610.89 538.7"/>
        <polyline class="st2" points="581.44 598.22 573.02 615.23 572.54 616.21 720.81 616.21 720.81 538.7 720.37 538.7 610.89 538.7 602.47 555.71 602.45 555.75"/>
        <line class="st2" x1="597.71" y1="565.33" x2="596.94" y2="566.89"/>
        <line class="st2" x1="600.71" y1="559.27" x2="600.3" y2="560.09"/>
        <line class="st2" x1="601.6" y1="557.48" x2="601.36" y2="557.95"/>
        <line class="st2" x1="568.79" y1="594.72" x2="568.79" y2="559.21"/>
        <path class="st2" d="M568.79,559.21c0-1.94,1.57-3.5,3.5-3.5"/>
        <path class="st2" d="M572.29,598.22c-1.93,0-3.5-1.56-3.5-3.5"/>
        <path class="st2" d="M572.29,598.22h9.15c7.56-15.28,12.4-25.06,15.5-31.33.27-.55.53-1.07.77-1.56,1.1-2.22,1.94-3.93,2.59-5.24.15-.3.28-.57.41-.82.25-.51.47-.94.65-1.32.09-.17.16-.33.24-.47.63-1.29.81-1.64.85-1.73l.02-.04h-30.18"/>
      </g>
    </g>
    <rect class="st4" x="750.36" y="630.4" width="32.87" height="32.87" transform="translate(1413.62 -119.96) rotate(90)"/>
    <rect class="st4" x="552.36" y="621.84" width="32.87" height="32.87" transform="translate(-69.49 1207.06) rotate(-90)"/>
    <g>
      <g>
        <g>
          <polygon class="st6" points="716.73 891.82 716.73 823.38 723.93 823.38 760.41 823.38 767.61 823.38 767.61 891.82 760.41 891.82 723.93 891.82 716.73 891.82"/>
          <path class="st6" d="M723.93,891.82h36.48c-1.8,4.51-5.4,8.56-9.91,11.26-.45.45-.45.9-.45,1.35.9.9,1.8,1.35,2.7,1.35,1.35-.45,2.71-1.35,3.61-1.8q.45-.45.9-.45t.9.45q.45,0,.45.45c-9.91,6.76-22.97,6.76-32.87,0q0-.45.45-.45c0-.45.45-.45.9-.45,0,0,.45,0,.9.45.9.45,2.25,1.35,3.15,1.8,1.35,0,2.25-.45,2.7-1.35.45-.45,0-.9-.45-1.35-4.5-2.7-7.65-6.75-9.46-11.26Z"/>
          <path class="st6" d="M760.41,823.38h-36.48c1.81-4.5,4.96-8.56,9.46-11.26.45-.45.9-.9.45-1.35-.45-.9-1.35-1.35-2.7-1.35-.9.45-2.25,1.35-3.15,1.8-.45.45-.9.45-.9.45-.45,0-.9-.45-.9-.45q-.45,0-.45-.45c9.9-7.2,22.96-7.2,32.87,0q0,.45-.45.45c-.45,0-.45.45-.9.45s-.45,0-.9-.45c-.9-.45-2.26-1.35-3.61-1.8-.9,0-1.8.45-2.7,1.35,0,.45,0,.9.45,1.35,4.51,2.7,8.11,6.76,9.91,11.26Z"/>
        </g>
        <path class="st3" d="M725.74,904.6c9.91,6.75,22.97,6.75,32.87,0"/>
        <path class="st3" d="M756.36,811.39q.45.45.9.45"/>
        <path class="st3" d="M757.26,811.84c.45,0,.45-.45.9-.45"/>
        <path class="st3" d="M758.16,811.39q.45,0,.45-.45"/>
        <path class="st3" d="M752.76,809.59c-.9,0-1.8.45-2.7,1.35"/>
        <path class="st3" d="M756.36,811.39c-.9-.45-2.25-1.35-3.6-1.8"/>
        <path class="st3" d="M750.06,810.94c0,.45,0,.9.45,1.35"/>
        <path class="st3" d="M760.41,823.55c-1.8-4.5-5.4-8.56-9.91-11.26"/>
        <path class="st3" d="M727.09,811.84s.45,0,.9-.45"/>
        <path class="st3" d="M726.19,811.39s.45.45.9.45"/>
        <path class="st3" d="M725.74,810.94q0,.45.45.45"/>
        <path class="st3" d="M733.85,810.94c-.45-.9-1.35-1.35-2.7-1.35"/>
        <path class="st3" d="M731.14,809.59c-.9.45-2.25,1.35-3.15,1.8"/>
        <path class="st3" d="M733.4,812.29c.45-.45.9-.9.45-1.35"/>
        <path class="st3" d="M733.4,812.29c-4.5,2.7-7.66,6.75-9.46,11.26"/>
        <path class="st3" d="M758.61,810.94c-9.91-7.2-22.97-7.2-32.87,0"/>
        <line class="st3" x1="767.62" y1="891.99" x2="716.73" y2="891.99"/>
        <line class="st3" x1="716.73" y1="823.55" x2="767.62" y2="823.55"/>
        <line class="st3" x1="716.73" y1="823.55" x2="716.73" y2="891.99"/>
        <path class="st3" d="M757.26,903.7q-.45,0-.9.45"/>
        <path class="st3" d="M758.16,904.15q-.45-.45-.9-.45"/>
        <path class="st3" d="M758.61,904.6q0-.45-.45-.45"/>
        <path class="st3" d="M750.06,904.6c.9.9,1.8,1.35,2.7,1.35"/>
        <path class="st3" d="M752.76,905.95c1.35-.45,2.7-1.35,3.6-1.8"/>
        <path class="st3" d="M750.51,903.25c-.45.45-.45.9-.45,1.35"/>
        <path class="st3" d="M750.51,903.25c4.5-2.7,8.11-6.75,9.91-11.26"/>
        <path class="st3" d="M727.99,904.15c-.45-.45-.9-.45-.9-.45"/>
        <path class="st3" d="M727.09,903.7c-.45,0-.9,0-.9.45"/>
        <path class="st3" d="M726.19,904.15q-.45,0-.45.45"/>
        <path class="st3" d="M731.14,905.95c1.35,0,2.25-.45,2.7-1.35"/>
        <path class="st3" d="M727.99,904.15c.9.45,2.25,1.35,3.15,1.8"/>
        <path class="st3" d="M733.85,904.6c.45-.45,0-.9-.45-1.35"/>
        <path class="st3" d="M723.94,891.99c1.8,4.5,4.95,8.56,9.46,11.26"/>
      </g>
      <line class="st2" x1="767.62" y1="891.82" x2="767.62" y2="823.55"/>
    </g>
    <line class="st5" x1="551.47" y1="878.25" x2="548.77" y2="878.25"/>
    <line class="st5" x1="547.83" y1="878.25" x2="545.13" y2="878.25"/>
  </g>
</svg>