<?xml version="1.0" encoding="UTF-8"?>
<svg xmlns="http://www.w3.org/2000/svg" version="1.1" viewBox="0 0 1200 1697.14">
  <!-- Generator: Adobe Illustrator 29.6.0, SVG Export Plug-In . SVG Version: 2.1.1 Build 207)  -->
  <defs>
    <style>
      .st0, .st1 {
        stroke: #0d101f;
      }

      .st0, .st1, .st2, .st3, .st4 {
        stroke-linecap: round;
        stroke-linejoin: round;
        stroke-width: .15px;
      }

      .st0, .st2, .st5 {
        fill: #fff;
      }

      .st1, .st3, .st4 {
        fill: none;
      }

      .st2, .st3 {
        stroke: #1d1d1b;
      }

      .st6 {
        fill: #383037;
      }

      .st4 {
        stroke: #11100e;
      }

      .st7 {
        fill: #f2efed;
      }
    </style>
  </defs>
  <g id="sfondo">
    <g>
      <polygon class="st7" points="766.29 558.34 766.29 1136.86 749.18 1136.86 748.28 1136.86 748.28 1119.75 749.18 1119.75 757.73 1119.75 757.73 598.86 687.95 598.86 687.95 558.34 708.21 558.34 708.21 556.99 723.52 556.99 723.52 558.34 766.29 558.34"/>
      <polygon class="st7" points="664.54 1136.86 663.19 1136.86 460.59 1136.86 460.59 558.34 503.36 558.34 687.95 558.34 687.95 598.86 757.73 598.86 757.73 1119.75 749.18 1119.75 748.28 1119.75 748.28 1136.86 664.54 1136.86"/>
    </g>
  </g>
  <g id="letto">
    <g>
      <g>
        <polygon class="st5" points="471.82 764.22 471.82 763.78 549.33 763.78 549.33 912.06 548.35 911.57 548.35 764.22 471.82 764.22"/>
        <path class="st5" d="M471.82,873.7v-109.48h76.53v147.35l-17.01-8.41c-7.31-3.62-13.36-6.61-18.37-9.09l-2.63-1.3c-5.59-2.77-9.73-4.82-12.79-6.34l-1.16-.57-7.56-3.74-17.01-8.42Z"/>
        <path class="st5" d="M471.82,934.3v-60.6l17.01,8.42v30.18c0,1.94,1.56,3.51,3.5,3.51h35.51c1.94,0,3.5-1.57,3.5-3.51v-9.14l17.01,8.41v22.73h-76.53Z"/>
        <path class="st5" d="M488.83,912.3v-30.18l7.56,3.74c.37.19.75.38,1.16.57,3.06,1.52,7.2,3.57,12.79,6.34.85.41,1.72.85,2.63,1.3,5.01,2.48,11.06,5.47,18.37,9.09v9.14c0,1.94-1.56,3.51-3.5,3.51h-35.51c-1.94,0-3.5-1.57-3.5-3.51Z"/>
      </g>
      <g>
        <polyline class="st1" points="548.35 911.57 548.35 934.3 471.82 934.3 471.82 873.7"/>
        <polyline class="st1" points="531.34 903.16 548.35 911.57 549.33 912.06 549.33 763.78 471.82 763.78 471.82 764.22 471.82 873.7 488.83 882.12"/>
        <line class="st1" x1="510.34" y1="892.77" x2="512.97" y2="894.07"/>
        <line class="st1" x1="496.39" y1="885.86" x2="497.55" y2="886.43"/>
        <line class="st1" x1="527.84" y1="915.81" x2="492.33" y2="915.81"/>
        <path class="st1" d="M492.33,915.81c-1.94,0-3.5-1.57-3.5-3.51"/>
        <path class="st1" d="M531.34,912.3c0,1.94-1.56,3.51-3.5,3.51"/>
        <path class="st1" d="M531.34,912.3v-9.14c-7.31-3.62-13.36-6.61-18.37-9.09-.91-.45-1.78-.89-2.63-1.3-5.59-2.77-9.73-4.82-12.79-6.34-.41-.19-.79-.38-1.16-.57l-7.56-3.74v30.18"/>
      </g>
    </g>
    <rect class="st0" x="533.31" y="592.08" width="32.87" height="32.87"/>
    <g>
      <rect class="st5" x="598.87" y="1067.83" width="55.54" height="55.15" transform="translate(1722.04 468.76) rotate(90)"/>
      <line class="st4" x1="654.22" y1="1123.18" x2="654.22" y2="1121.61"/>
      <line class="st4" x1="654.22" y1="1118.87" x2="654.22" y2="1116.14"/>
      <line class="st4" x1="654.22" y1="1113.4" x2="654.22" y2="1110.66"/>
      <line class="st4" x1="654.22" y1="1107.92" x2="654.22" y2="1105.18"/>
      <line class="st4" x1="654.22" y1="1102.45" x2="654.22" y2="1099.71"/>
      <line class="st4" x1="654.22" y1="1096.97" x2="654.22" y2="1093.84"/>
      <line class="st4" x1="654.22" y1="1091.1" x2="654.22" y2="1088.36"/>
      <line class="st4" x1="654.22" y1="1085.63" x2="654.22" y2="1082.89"/>
      <line class="st4" x1="654.22" y1="1080.15" x2="654.22" y2="1077.41"/>
      <line class="st4" x1="654.22" y1="1074.67" x2="654.22" y2="1071.94"/>
      <line class="st4" x1="654.22" y1="1069.2" x2="654.22" y2="1067.63"/>
      <line class="st4" x1="654.22" y1="1067.63" x2="653.04" y2="1067.63"/>
      <line class="st4" x1="650.3" y1="1067.63" x2="647.57" y2="1067.63"/>
      <line class="st4" x1="644.44" y1="1067.63" x2="641.7" y2="1067.63"/>
      <line class="st4" x1="638.96" y1="1067.63" x2="636.22" y2="1067.63"/>
      <line class="st4" x1="633.48" y1="1067.63" x2="630.75" y2="1067.63"/>
      <line class="st4" x1="628.01" y1="1067.63" x2="625.27" y2="1067.63"/>
      <line class="st4" x1="622.53" y1="1067.63" x2="619.79" y2="1067.63"/>
      <line class="st4" x1="617.06" y1="1067.63" x2="613.93" y2="1067.63"/>
      <line class="st4" x1="611.19" y1="1067.63" x2="608.45" y2="1067.63"/>
      <line class="st4" x1="605.71" y1="1067.63" x2="602.98" y2="1067.63"/>
      <line class="st4" x1="600.24" y1="1067.63" x2="599.06" y2="1067.63"/>
      <path class="st4" d="M654.22,1123.18"/>
    </g>
  </g>
  <g id="bianchi">
    <rect class="st5" x="664.54" y="1119.74" width="87.5" height="20.79"/>
    <rect class="st5" x="543.44" y="981.51" width="27.46" height="1.8"/>
    <rect class="st5" x="538.48" y="983.31" width="37.37" height="1.35"/>
    <rect class="st5" x="467.22" y="1051.69" width="70.25" height="70.25"/>
    <rect class="st5" x="500.56" y="552.46" width="196.4" height="27.01"/>
  </g>
  <g id="pareti">
    <g>
      <polygon class="st6" points="766.29 558.32 766.29 1136.84 749.18 1136.84 748.28 1136.84 748.28 1119.73 749.18 1119.73 757.73 1119.73 757.73 598.84 687.95 598.84 687.95 558.32 708.21 558.32 708.21 556.97 723.52 556.97 723.52 558.32 766.29 558.32"/>
      <polygon class="st6" points="664.54 1119.73 664.54 1136.84 663.19 1136.84 460.6 1136.84 460.6 558.32 503.37 558.32 503.37 598.84 468.7 598.84 468.7 937.4 598.36 937.4 598.36 942.35 468.7 942.35 468.7 976.56 592.06 976.56 598.36 976.56 598.36 990.52 598.36 991.42 592.06 991.42 592.06 990.52 592.06 982.42 592.06 981.52 468.7 981.52 468.7 1119.73 592.06 1119.73 592.06 1067.96 592.06 1066.61 598.36 1066.61 598.36 1067.96 598.36 1119.73 663.19 1119.73 664.54 1119.73"/>
    </g>
  </g>
  <g id="Livello_1">
    <path class="st3" d="M745.58,1040.94c-20.71,0-40.97,8.55-55.83,22.96-14.41,14.86-22.96,35.12-22.96,55.83"/>
    <line class="st3" x1="745.58" y1="1119.73" x2="745.58" y2="1040.94"/>
    <line class="st3" x1="745.58" y1="1040.94" x2="741.98" y2="1040.94"/>
    <line class="st3" x1="741.98" y1="1119.73" x2="745.58" y2="1119.73"/>
    <line class="st3" x1="741.98" y1="1119.73" x2="666.79" y2="1119.73"/>
    <path class="st3" d="M668.59,1064.35c0-18.91-7.2-36.47-20.26-49.97-13.51-13.06-31.06-20.26-49.97-20.26"/>
    <line class="st3" x1="598.36" y1="1064.35" x2="668.59" y2="1064.35"/>
    <line class="st3" x1="598.36" y1="1060.75" x2="598.36" y2="1064.35"/>
    <line class="st3" x1="598.36" y1="975.21" x2="596.56" y2="975.21"/>
    <line class="st3" x1="598.36" y1="943.25" x2="598.36" y2="975.21"/>
    <line class="st3" x1="596.56" y1="943.25" x2="598.36" y2="943.25"/>
    <line class="st3" x1="596.56" y1="975.21" x2="596.56" y2="943.25"/>
    <line class="st3" x1="598.36" y1="942.35" x2="598.36" y2="943.25"/>
    <line class="st3" x1="598.36" y1="975.21" x2="598.36" y2="976.56"/>
    <line class="st3" x1="592.06" y1="976.56" x2="592.06" y2="942.35"/>
    <g>
      <rect class="st5" x="679.42" y="927.19" width="101.75" height="53.83" transform="translate(-223.8 1684.4) rotate(-90)"/>
      <line class="st3" x1="703.39" y1="903.23" x2="703.39" y2="1004.98"/>
      <line class="st3" x1="749.52" y1="977.16" x2="737.05" y2="977.16"/>
      <line class="st3" x1="717.82" y1="925.94" x2="717.82" y2="913.75"/>
      <line class="st3" x1="740.74" y1="925.94" x2="740.74" y2="913.75"/>
      <line class="st3" x1="734.72" y1="919.93" x2="746.91" y2="919.93"/>
      <line class="st3" x1="711.65" y1="919.93" x2="723.83" y2="919.93"/>
      <rect class="st3" x="706.28" y="906.12" width="45.99" height="26.81"/>
      <rect class="st3" x="713.55" y="961.73" width="31.01" height="31.01"/>
      <rect class="st3" x="705.83" y="953.86" width="46.44" height="46.6"/>
      <line class="st3" x1="703.39" y1="903.23" x2="754.72" y2="903.23"/>
      <line class="st3" x1="703.39" y1="1004.98" x2="754.72" y2="1004.98"/>
    </g>
    <g>
      <path class="st5" d="M523.19,981.52v24.72c0,9.52-6.84,17.22-15.29,17.22s-15.28-7.7-15.28-17.22v-24.72h30.57Z"/>
      <path class="st3" d="M523.19,981.52v24.72c0,9.52-6.84,17.22-15.29,17.22s-15.28-7.7-15.28-17.22v-24.72h30.57Z"/>
    </g>
    <polyline class="st3" points="468.7 1119.73 468.7 1051.69 476.85 1051.69"/>
    <line class="st3" x1="468.7" y1="1119.73" x2="536.93" y2="1119.73"/>
    <line class="st3" x1="537.47" y1="1118.6" x2="537.47" y2="1052.29"/>
    <polyline class="st3" points="537.47 1118.6 537.47 1119.73 536.93 1119.73"/>
    <polyline class="st3" points="536.46 1051.69 537.47 1051.69 537.47 1052.29"/>
    <line class="st3" x1="536.46" y1="1051.69" x2="476.85" y2="1051.69"/>
    <line class="st3" x1="502.82" y1="1119.73" x2="502.82" y2="1100.83"/>
    <circle class="st3" cx="502.91" cy="1100.92" r="4.23" transform="translate(-239.49 145) rotate(-13.28)"/>
    <circle class="st3" cx="502.91" cy="1100.92" r="4.23" transform="translate(-239.49 145) rotate(-13.28)"/>
    <line class="st3" x1="575.85" y1="984.66" x2="538.48" y2="984.66"/>
    <line class="st3" x1="538.48" y1="984.66" x2="538.48" y2="983.31"/>
    <line class="st3" x1="538.48" y1="983.31" x2="575.85" y2="983.31"/>
    <line class="st3" x1="575.85" y1="983.31" x2="575.85" y2="984.66"/>
    <line class="st3" x1="570.9" y1="983.31" x2="570.9" y2="981.51"/>
    <line class="st3" x1="543.44" y1="981.51" x2="543.44" y2="983.31"/>
    <line class="st3" x1="598.36" y1="943.25" x2="596.56" y2="943.25"/>
    <line class="st3" x1="488.06" y1="971.19" x2="488.06" y2="971.16"/>
    <polyline class="st3" points="598.36 1060.75 598.36 1064.35 668.59 1064.35"/>
    <line class="st3" x1="598.36" y1="994.12" x2="598.36" y2="1060.75"/>
    <line class="st3" x1="598.36" y1="1060.75" x2="598.36" y2="994.12"/>
    <polyline class="st3" points="741.98 1119.73 745.58 1119.73 745.58 1040.94 741.98 1040.94 741.98 1041.03"/>
    <line class="st3" x1="741.98" y1="1040.94" x2="741.98" y2="1041.03"/>
    <line class="st3" x1="512.37" y1="571.82" x2="587.11" y2="571.82"/>
    <line class="st3" x1="587.11" y1="571.82" x2="587.11" y2="567.77"/>
    <line class="st3" x1="587.11" y1="567.77" x2="512.37" y2="567.77"/>
    <line class="st3" x1="512.37" y1="567.77" x2="512.37" y2="571.82"/>
    <line class="st3" x1="591.16" y1="579.48" x2="508.77" y2="579.48"/>
    <line class="st3" x1="512.37" y1="566.87" x2="587.11" y2="566.87"/>
    <line class="st3" x1="512.37" y1="573.62" x2="587.11" y2="573.62"/>
    <line class="st3" x1="591.16" y1="579.48" x2="595.21" y2="579.48"/>
    <line class="st3" x1="595.21" y1="579.48" x2="595.21" y2="566.87"/>
    <line class="st3" x1="595.21" y1="566.87" x2="587.11" y2="566.87"/>
    <line class="st3" x1="587.11" y1="566.87" x2="587.11" y2="573.62"/>
    <line class="st3" x1="587.11" y1="573.62" x2="591.16" y2="573.62"/>
    <line class="st3" x1="591.16" y1="573.62" x2="591.16" y2="579.48"/>
    <line class="st3" x1="504.27" y1="579.48" x2="508.77" y2="579.48"/>
    <line class="st3" x1="508.77" y1="579.48" x2="508.77" y2="573.62"/>
    <line class="st3" x1="508.77" y1="573.62" x2="512.37" y2="573.62"/>
    <line class="st3" x1="512.37" y1="573.62" x2="512.37" y2="566.87"/>
    <line class="st3" x1="512.37" y1="566.87" x2="504.27" y2="566.87"/>
    <line class="st3" x1="504.27" y1="566.87" x2="504.27" y2="579.48"/>
    <line class="st3" x1="595.21" y1="566.87" x2="504.27" y2="566.87"/>
    <line class="st3" x1="506.52" y1="566.87" x2="592.96" y2="566.87"/>
    <line class="st3" x1="506.97" y1="566.87" x2="592.51" y2="566.87"/>
    <line class="st3" x1="587.11" y1="566.87" x2="512.37" y2="566.87"/>
    <line class="st3" x1="512.37" y1="566.87" x2="587.11" y2="566.87"/>
    <line class="st3" x1="600.61" y1="571.82" x2="682.55" y2="571.82"/>
    <line class="st3" x1="682.55" y1="571.82" x2="682.55" y2="567.77"/>
    <line class="st3" x1="682.55" y1="567.77" x2="600.61" y2="567.77"/>
    <line class="st3" x1="600.61" y1="567.77" x2="600.61" y2="571.82"/>
    <line class="st3" x1="682.55" y1="579.48" x2="600.61" y2="579.48"/>
    <line class="st3" x1="600.61" y1="566.87" x2="682.55" y2="566.87"/>
    <line class="st3" x1="596.11" y1="579.48" x2="600.61" y2="579.48"/>
    <line class="st3" x1="600.61" y1="579.48" x2="600.61" y2="566.87"/>
    <line class="st3" x1="600.61" y1="566.87" x2="596.11" y2="566.87"/>
    <line class="st3" x1="596.11" y1="566.87" x2="596.11" y2="579.48"/>
    <line class="st3" x1="682.55" y1="579.48" x2="687.05" y2="579.48"/>
    <line class="st3" x1="687.05" y1="579.48" x2="687.05" y2="566.87"/>
    <line class="st3" x1="687.05" y1="566.87" x2="682.55" y2="566.87"/>
    <line class="st3" x1="682.55" y1="566.87" x2="682.55" y2="579.48"/>
    <line class="st3" x1="687.95" y1="579.48" x2="687.05" y2="579.48"/>
    <line class="st3" x1="596.11" y1="579.48" x2="595.21" y2="579.48"/>
    <line class="st3" x1="504.27" y1="579.48" x2="503.37" y2="579.48"/>
    <line class="st3" x1="666.79" y1="1119.73" x2="741.98" y2="1119.73"/>
    <line class="st3" x1="468.7" y1="976.56" x2="592.06" y2="942.35"/>
    <line class="st3" x1="468.7" y1="942.35" x2="592.06" y2="976.56"/>
    <g>
      <path class="st5" d="M492.68,609.72c4.96-.9,9.91-1.35,15.31-1.35,1.8.45,3.6,1.35,4.95,2.7,0,0,.45.45.9.45l12.16,14.86c.9.9,1.8,2.25,2.25,3.15.45,1.8.45,3.6,0,4.95-4.95,13.06-14.86,23.86-27.01,30.17-1.35.9-3.15.9-4.95.45-.91-.45-2.26-.9-3.16-1.81l-16.2-10.8-.9-.9c-1.35-.9-2.71-2.7-3.16-4.5-.45-4.96-.45-10.36,0-15.31.45-5.4,2.71-10.35,6.31-14.41,3.6-4.05,8.1-6.75,13.5-7.65Z"/>
      <g>
        <line class="st3" x1="513.84" y1="611.52" x2="526" y2="626.38"/>
        <path class="st3" d="M513.84,611.52c-.45,0-.9-.45-.9-.45"/>
        <path class="st3" d="M512.94,611.07c-1.35-1.35-3.15-2.25-4.95-2.7"/>
        <path class="st3" d="M507.99,608.37c-5.4,0-10.35.45-15.31,1.35"/>
        <path class="st3" d="M501.24,664.65c12.15-6.31,22.06-17.11,27.01-30.17"/>
        <path class="st3" d="M481.43,645.74c2.25,3.15,4.95,5.85,8.1,8.55"/>
        <path class="st3" d="M481.43,625.03c-4.05,6.3-4.05,14.4,0,20.71"/>
        <path class="st3" d="M484.13,621.88c-.9.9-1.8,2.25-2.7,3.15"/>
        <path class="st3" d="M479.18,617.37c-3.6,4.06-5.86,9.01-6.31,14.41"/>
        <path class="st3" d="M496.29,665.1c1.8.45,3.6.45,4.95-.45"/>
        <path class="st3" d="M493.13,663.29c.9.91,2.25,1.36,3.16,1.81"/>
        <line class="st3" x1="476.93" y1="652.49" x2="493.13" y2="663.29"/>
        <path class="st3" d="M476.03,651.59l.9.9"/>
        <path class="st3" d="M472.87,647.09c.45,1.8,1.81,3.6,3.16,4.5"/>
        <path class="st3" d="M472.87,631.78c-.45,4.95-.45,10.35,0,15.31"/>
        <path class="st3" d="M516.99,624.13c-3.15-2.7-6.3-5.41-9.45-7.21"/>
        <path class="st3" d="M507.54,616.92c-6.75-3.6-14.86-2.7-20.71,2.25"/>
        <line class="st3" x1="486.83" y1="619.17" x2="484.13" y2="621.88"/>
        <path class="st3" d="M492.68,609.72c-5.4.9-9.9,3.6-13.5,7.65"/>
        <path class="st3" d="M528.25,634.48c.45-1.35.45-3.15,0-4.95"/>
        <path class="st3" d="M528.25,629.53c-.45-.9-1.35-2.25-2.25-3.15"/>
      </g>
    </g>
    <g>
      <g>
        <path class="st5" d="M583.5,1093.16v16.23c0,.61-.37,1.11-.83,1.11h-35.72c-.45,0-.82-.5-.82-1.11v-16.23c0-.61.37-1.11.82-1.11h35.72c.46,0,.83.5.83,1.11ZM567.75,1100.98c0-1.62-1.32-2.93-2.94-2.93s-2.93,1.31-2.93,2.93,1.31,2.94,2.93,2.94,2.94-1.31,2.94-2.94Z"/>
        <path class="st5" d="M564.81,1113.23c1.22,0,2.21.99,2.21,2.21s-.99,2.2-2.21,2.2-2.2-.99-2.2-2.2.99-2.21,2.2-2.21Z"/>
        <path class="st5" d="M566.39,1100.98c0,.88-.7,1.58-1.58,1.58s-1.57-.7-1.57-1.58.7-1.57,1.57-1.57,1.58.7,1.58,1.57Z"/>
        <path class="st5" d="M564.81,1102.56c.88,0,1.58-.7,1.58-1.58s-.7-1.57-1.58-1.57-1.57.7-1.57,1.57.7,1.58,1.57,1.58ZM567.75,1100.98c0,1.63-1.32,2.94-2.94,2.94s-2.93-1.31-2.93-2.94,1.31-2.93,2.93-2.93,2.94,1.31,2.94,2.93Z"/>
        <path class="st5" d="M564.81,1117.64c1.22,0,2.21-.99,2.21-2.2s-.99-2.21-2.21-2.21-2.2.99-2.2,2.21.99,2.2,2.2,2.2ZM582.67,1092.05h-35.72c-.45,0-.82.5-.82,1.11v16.23c0,.61.37,1.11.82,1.11h35.72c.46,0,.83-.5.83-1.11v-16.23c0-.61-.37-1.11-.83-1.11ZM584.16,1119.73h-38.85v-27.68c0-.62.37-1.11.82-1.11h37.37c.36,0,.66.49.66,1.11v27.68Z"/>
      </g>
      <g>
        <line class="st3" x1="573.67" y1="1090.92" x2="555.21" y2="1090.92"/>
        <path class="st3" d="M584.16,1119.73v-27.68c0-.62-.3-1.11-.66-1.11h-37.37c-.45,0-.82.49-.82,1.11v27.68"/>
        <path class="st3" d="M583.5,1109.39v-16.23c0-.61-.37-1.11-.83-1.11h-35.72c-.45,0-.82.5-.82,1.11v16.23c0,.61.37,1.11.82,1.11h35.72c.46,0,.83-.5.83-1.11Z"/>
        <path class="st3" d="M563.24,1100.98c0-.87.7-1.57,1.57-1.57s1.58.7,1.58,1.57-.7,1.58-1.58,1.58-1.57-.7-1.57-1.58Z"/>
        <path class="st3" d="M561.88,1100.98c0-1.62,1.31-2.93,2.93-2.93s2.94,1.31,2.94,2.93-1.32,2.94-2.94,2.94-2.93-1.31-2.93-2.94Z"/>
        <path class="st3" d="M562.61,1115.44c0-1.22.99-2.21,2.2-2.21s2.21.99,2.21,2.21-.99,2.2-2.21,2.2-2.2-.99-2.2-2.2Z"/>
        <line class="st3" x1="545.31" y1="1119.73" x2="584.16" y2="1119.73"/>
      </g>
    </g>
    <g>
      <g>
        <polygon class="st5" points="755.73 676.01 755.73 743.99 750.33 743.99 713.41 743.99 706.21 743.99 706.21 676.01 713.41 676.01 750.33 676.01 755.73 676.01"/>
        <path class="st5" d="M750.33,676.01h-36.92c1.8-4.95,5.4-9,9.91-11.7.45,0,.9-.91.45-1.36-.45-.9-1.35-1.35-2.7-1.35-1.36.9-2.26,1.35-3.61,2.25h-.45c-.45,0-.9,0-1.35-.45,0,0-.45,0-.45-.45,9.91-6.75,23.41-6.75,33.32,0,0,.45-.45.45-.45.45-.45.45-.9.45-.9.45h-.9c-1.35-.9-2.25-1.35-3.6-2.25-.91,0-2.26.45-2.71,1.35,0,.45,0,1.36.45,1.36,4.51,2.7,8.11,6.75,9.91,11.7Z"/>
        <path class="st5" d="M713.41,743.99h36.92c-1.8,4.5-5.4,8.56-9.91,11.26-.45.45-.45.9-.45,1.35.45.9,1.8,1.35,2.71,1.35,1.35-.45,2.25-1.35,3.6-1.8h1.8s.45,0,.45.45c-9.91,7.2-23.41,7.2-33.32,0,0-.45.45-.45.45-.45h1.8c1.35.45,2.25,1.35,3.61,1.8,1.35,0,2.25-.45,2.7-1.35.45-.45,0-.9-.45-1.35-4.51-2.7-8.11-6.76-9.91-11.26Z"/>
      </g>
      <g>
        <path class="st3" d="M742.68,757.95c1.35-.45,2.25-1.35,3.6-1.8"/>
        <line class="st3" x1="706.21" y1="743.99" x2="706.21" y2="676.01"/>
        <path class="st3" d="M746.28,663.85h.9"/>
        <path class="st3" d="M747.18,663.85s.45,0,.9-.45"/>
        <path class="st3" d="M748.08,663.4s.45,0,.45-.45"/>
        <path class="st3" d="M742.68,661.6c-.91,0-2.26.45-2.71,1.35"/>
        <path class="st3" d="M746.28,663.85c-1.35-.9-2.25-1.35-3.6-2.25"/>
        <path class="st3" d="M739.97,662.95c0,.45,0,1.36.45,1.36"/>
        <path class="st3" d="M750.33,676.01c-1.8-4.95-5.4-9-9.91-11.7"/>
        <line class="st3" x1="717.01" y1="663.85" x2="717.46" y2="663.85"/>
        <path class="st3" d="M715.66,663.4c.45.45.9.45,1.35.45"/>
        <path class="st3" d="M715.21,662.95c0,.45.45.45.45.45"/>
        <path class="st3" d="M723.77,662.95c-.45-.9-1.35-1.35-2.7-1.35"/>
        <path class="st3" d="M721.07,661.6c-1.36.9-2.26,1.35-3.61,2.25"/>
        <path class="st3" d="M723.32,664.31c.45,0,.9-.91.45-1.36"/>
        <path class="st3" d="M723.32,664.31c-4.51,2.7-8.11,6.75-9.91,11.7"/>
        <path class="st3" d="M748.53,662.95c-9.91-6.75-23.41-6.75-33.32,0"/>
        <path class="st3" d="M747.18,756.15h-.9"/>
        <path class="st3" d="M748.08,756.15h-.9"/>
        <path class="st3" d="M748.53,756.6c0-.45-.45-.45-.45-.45"/>
        <path class="st3" d="M739.97,756.6c.45.9,1.8,1.35,2.71,1.35"/>
        <path class="st3" d="M740.42,755.25c-.45.45-.45.9-.45,1.35"/>
        <path class="st3" d="M740.42,755.25c4.51-2.7,8.11-6.76,9.91-11.26"/>
        <line class="st3" x1="717.46" y1="756.15" x2="717.01" y2="756.15"/>
        <line class="st3" x1="717.01" y1="756.15" x2="715.66" y2="756.15"/>
        <path class="st3" d="M715.66,756.15s-.45,0-.45.45"/>
        <path class="st3" d="M721.07,757.95c1.35,0,2.25-.45,2.7-1.35"/>
        <path class="st3" d="M717.46,756.15c1.35.45,2.25,1.35,3.61,1.8"/>
        <path class="st3" d="M723.77,756.6c.45-.45,0-.9-.45-1.35"/>
        <path class="st3" d="M713.41,743.99c1.8,4.5,5.4,8.56,9.91,11.26"/>
        <path class="st3" d="M715.21,756.6c9.91,7.2,23.41,7.2,33.32,0"/>
        <polyline class="st3" points="755.73 676.01 750.33 676.01 713.41 676.01 706.21 676.01"/>
        <polyline class="st3" points="706.21 743.99 713.41 743.99 750.33 743.99 755.73 743.99"/>
        <line class="st3" x1="755.73" y1="676.01" x2="755.73" y2="743.99"/>
      </g>
    </g>
    <g>
      <g>
        <polygon class="st5" points="707.31 676.01 707.31 743.99 701.91 743.99 664.99 743.99 657.79 743.99 657.79 676.01 664.99 676.01 701.91 676.01 707.31 676.01"/>
        <path class="st5" d="M701.91,676.01h-36.92c1.8-4.95,5.4-9,9.91-11.7.45,0,.9-.91.45-1.36-.45-.9-1.35-1.35-2.7-1.35-1.36.9-2.26,1.35-3.61,2.25h-.45c-.45,0-.9,0-1.35-.45,0,0-.45,0-.45-.45,9.91-6.75,23.41-6.75,33.32,0,0,.45-.45.45-.45.45-.45.45-.9.45-.9.45h-.9c-1.35-.9-2.25-1.35-3.6-2.25-.91,0-2.26.45-2.71,1.35,0,.45,0,1.36.45,1.36,4.51,2.7,8.11,6.75,9.91,11.7Z"/>
        <path class="st5" d="M664.99,743.99h36.92c-1.8,4.5-5.4,8.56-9.91,11.26-.45.45-.45.9-.45,1.35.45.9,1.8,1.35,2.71,1.35,1.35-.45,2.25-1.35,3.6-1.8h1.8s.45,0,.45.45c-9.91,7.2-23.41,7.2-33.32,0,0-.45.45-.45.45-.45h1.8c1.35.45,2.25,1.35,3.61,1.8,1.35,0,2.25-.45,2.7-1.35.45-.45,0-.9-.45-1.35-4.51-2.7-8.11-6.76-9.91-11.26Z"/>
      </g>
      <g>
        <path class="st3" d="M694.26,757.95c1.35-.45,2.25-1.35,3.6-1.8"/>
        <line class="st3" x1="657.79" y1="743.99" x2="657.79" y2="676.01"/>
        <path class="st3" d="M697.86,663.85h.9"/>
        <path class="st3" d="M698.76,663.85s.45,0,.9-.45"/>
        <path class="st3" d="M699.66,663.4s.45,0,.45-.45"/>
        <path class="st3" d="M694.26,661.6c-.91,0-2.26.45-2.71,1.35"/>
        <path class="st3" d="M697.86,663.85c-1.35-.9-2.25-1.35-3.6-2.25"/>
        <path class="st3" d="M691.55,662.95c0,.45,0,1.36.45,1.36"/>
        <path class="st3" d="M701.91,676.01c-1.8-4.95-5.4-9-9.91-11.7"/>
        <line class="st3" x1="668.59" y1="663.85" x2="669.04" y2="663.85"/>
        <path class="st3" d="M667.24,663.4c.45.45.9.45,1.35.45"/>
        <path class="st3" d="M666.79,662.95c0,.45.45.45.45.45"/>
        <path class="st3" d="M675.35,662.95c-.45-.9-1.35-1.35-2.7-1.35"/>
        <path class="st3" d="M672.65,661.6c-1.36.9-2.26,1.35-3.61,2.25"/>
        <path class="st3" d="M674.9,664.31c.45,0,.9-.91.45-1.36"/>
        <path class="st3" d="M674.9,664.31c-4.51,2.7-8.11,6.75-9.91,11.7"/>
        <path class="st3" d="M700.11,662.95c-9.91-6.75-23.41-6.75-33.32,0"/>
        <path class="st3" d="M698.76,756.15h-.9"/>
        <path class="st3" d="M699.66,756.15h-.9"/>
        <path class="st3" d="M700.11,756.6c0-.45-.45-.45-.45-.45"/>
        <path class="st3" d="M691.55,756.6c.45.9,1.8,1.35,2.71,1.35"/>
        <path class="st3" d="M692,755.25c-.45.45-.45.9-.45,1.35"/>
        <path class="st3" d="M692,755.25c4.51-2.7,8.11-6.76,9.91-11.26"/>
        <line class="st3" x1="669.04" y1="756.15" x2="668.59" y2="756.15"/>
        <line class="st3" x1="668.59" y1="756.15" x2="667.24" y2="756.15"/>
        <path class="st3" d="M667.24,756.15s-.45,0-.45.45"/>
        <path class="st3" d="M672.65,757.95c1.35,0,2.25-.45,2.7-1.35"/>
        <path class="st3" d="M669.04,756.15c1.35.45,2.25,1.35,3.61,1.8"/>
        <path class="st3" d="M675.35,756.6c.45-.45,0-.9-.45-1.35"/>
        <path class="st3" d="M664.99,743.99c1.8,4.5,5.4,8.56,9.91,11.26"/>
        <path class="st3" d="M666.79,756.6c9.91,7.2,23.41,7.2,33.32,0"/>
        <polyline class="st3" points="707.31 676.01 701.91 676.01 664.99 676.01 657.79 676.01"/>
        <polyline class="st3" points="657.79 743.99 664.99 743.99 701.91 743.99 707.31 743.99"/>
        <line class="st3" x1="707.31" y1="676.01" x2="707.31" y2="743.99"/>
      </g>
    </g>
    <rect class="st2" x="657.79" y="676.01" width="97.95" height="67.98"/>
  </g>
</svg>