<?xml version="1.0" encoding="UTF-8"?>
<svg xmlns="http://www.w3.org/2000/svg" version="1.1" viewBox="0 0 1200 1697.14">
  <!-- Generator: Adobe Illustrator 29.6.0, SVG Export Plug-In . SVG Version: 2.1.1 Build 207)  -->
  <defs>
    <style>
      .st0, .st1, .st2, .st3 {
        fill: none;
      }

      .st4 {
        fill: #302c35;
      }

      .st5 {
        fill: #ece8e5;
      }

      .st1 {
        stroke: #0c1020;
      }

      .st1, .st2, .st3 {
        stroke-linecap: round;
        stroke-linejoin: round;
        stroke-width: .15px;
      }

      .st6 {
        fill: #3f3f3e;
      }

      .st7, .st8 {
        fill: #fff;
      }

      .st2 {
        stroke: #100f0d;
      }

      .st3, .st8 {
        stroke: #1d1d1b;
      }

      .st8 {
        stroke-miterlimit: 10;
        stroke-width: .25px;
      }
    </style>
  </defs>
  <g id="sfondo">
    <g>
      <polygon class="st5" points="440.53 561.22 752.52 519.35 752.52 524.75 761.98 524.75 761.98 595.43 721.91 595.43 721.91 558.06 578.74 576.97 578.74 579.67 572.44 579.67 572.44 560.85 449.08 576.97 449.08 616.14 572.44 616.14 572.44 613.44 578.74 613.44 578.74 616.14 578.74 630.1 578.74 631.45 572.44 631.45 572.44 630.1 572.44 621.99 572.44 621.09 449.08 621.09 449.08 621.99 449.08 759.31 572.44 759.31 572.44 758.41 572.44 707.53 572.44 706.63 578.74 706.63 578.74 707.53 578.74 769.66 572.44 769.66 449.08 769.66 449.08 935.79 449.08 937.14 431.97 937.14 431.97 935.79 431.97 920.48 440.53 911.93 440.53 561.22"/>
      <polygon class="st5" points="761.98 780.02 761.98 860.6 761.98 880.86 761.98 1065.45 721.91 1065.45 721.91 1125.33 449.08 1125.33 449.08 1021.78 449.08 1020.88 431.97 1020.88 431.97 937.14 449.08 937.14 449.08 935.79 449.08 769.66 572.44 769.66 578.74 769.66 578.74 707.53 578.74 706.63 572.44 706.63 572.44 707.53 572.44 758.41 572.44 759.31 449.08 759.31 449.08 621.99 449.08 621.09 572.44 621.09 572.44 621.99 572.44 630.1 572.44 631.45 578.74 631.45 578.74 630.1 578.74 616.14 578.74 613.44 572.44 613.44 572.44 616.14 449.08 616.14 449.08 576.97 572.44 560.85 572.44 579.67 578.74 579.67 578.74 576.97 721.91 558.06 721.91 595.43 761.98 595.43 761.98 780.02"/>
      <path class="st5" d="M431.97,1020.88h17.11v104.45h272.83v-59.88h40.07v138.21h-330.01v-182.78ZM721.91,1133.88h-272.83v52.68h272.83v-52.68Z"/>
      <rect class="st5" x="449.08" y="1133.88" width="272.83" height="52.68"/>
    </g>
  </g>
  <g id="numeri">
    <g>
      <g>
        <g>
          <polygon class="st7" points="619.89 1046.5 620.33 1046.5 620.33 1124.01 472.06 1124.01 472.54 1123.03 619.89 1123.03 619.89 1046.5"/>
          <path class="st7" d="M510.41,1046.5h109.48v76.53h-147.35l8.42-17.01c7.56-15.28,12.4-25.06,15.5-31.33l.77-1.56c1.1-2.22,1.94-3.93,2.59-5.24l.41-.82c.25-.51.47-.94.65-1.32l.24-.47c.63-1.29.81-1.64.85-1.73l.02-.04,8.42-17.01Z"/>
          <path class="st7" d="M449.81,1046.5h60.6l-8.42,17.01h-30.18c-1.93,0-3.5,1.56-3.5,3.5v35.51c0,1.94,1.57,3.5,3.5,3.5h9.15l-8.42,17.01h-22.73v-76.53Z"/>
          <path class="st7" d="M471.81,1063.51h30.18l-.02.04c-.04.09-.22.44-.85,1.73-.08.14-.15.3-.24.47-.18.38-.4.81-.65,1.32-.13.25-.26.52-.41.82-.65,1.31-1.49,3.02-2.59,5.24-.24.49-.5,1.01-.77,1.56-3.1,6.27-7.94,16.05-15.5,31.33h-9.15c-1.93,0-3.5-1.56-3.5-3.5v-35.51c0-1.94,1.57-3.5,3.5-3.5Z"/>
        </g>
        <g>
          <polyline class="st1" points="472.54 1123.03 449.81 1123.03 449.81 1046.5 510.41 1046.5"/>
          <polyline class="st1" points="480.96 1106.02 472.54 1123.03 472.06 1124.01 620.33 1124.01 620.33 1046.5 619.89 1046.5 510.41 1046.5 501.99 1063.51 501.97 1063.55"/>
          <line class="st1" x1="497.23" y1="1073.13" x2="496.46" y2="1074.69"/>
          <line class="st1" x1="500.23" y1="1067.07" x2="499.82" y2="1067.89"/>
          <line class="st1" x1="501.12" y1="1065.28" x2="500.88" y2="1065.75"/>
          <line class="st1" x1="468.31" y1="1102.52" x2="468.31" y2="1067.01"/>
          <path class="st1" d="M468.31,1067.01c0-1.94,1.57-3.5,3.5-3.5"/>
          <path class="st1" d="M471.81,1106.02c-1.93,0-3.5-1.56-3.5-3.5"/>
          <path class="st1" d="M471.81,1106.02h9.15c7.56-15.28,12.4-25.06,15.5-31.33.27-.55.53-1.07.77-1.56,1.1-2.22,1.94-3.93,2.59-5.24.15-.3.28-.57.41-.82.25-.51.47-.94.65-1.32.09-.17.16-.33.24-.47.63-1.29.81-1.64.85-1.73l.02-.04h-30.18"/>
        </g>
      </g>
      <g id="POLYLINE">
        <polygon class="st1" points="472.05 1124.01 620.33 1124.01 620.33 1046.5 510.41 1046.5 472.05 1124.01"/>
      </g>
      <g id="POLYLINE1" data-name="POLYLINE">
        <polygon class="st1" points="472.05 1124.01 620.33 1124.01 620.33 1046.5 510.41 1046.5 472.05 1124.01"/>
      </g>
      <line class="st1" x1="471.81" y1="1063.51" x2="501.99" y2="1063.51"/>
    </g>
  </g>
  <g id="bianchi">
    <rect class="st7" x="396.77" y="968.57" width="87.51" height="17.11" transform="translate(-536.6 1417.65) rotate(-90)"/>
    <rect class="st7" x="665.83" y="949.05" width="191.38" height="41.42" transform="translate(-208.24 1731.28) rotate(-90)"/>
    <rect class="st7" x="670.04" y="674.28" width="189.11" height="22.36" transform="translate(79.13 1450.06) rotate(-90)"/>
    <rect class="st7" x="700.85" y="630.87" width="97.99" height="18.07" transform="translate(109.94 1389.75) rotate(-90)"/>
    <rect class="st7" x="447.12" y="693.22" width="71.95" height="68.04" transform="translate(-244.14 1210.34) rotate(-90)"/>
    <rect class="st7" x="536.42" y="608.49" width="1.8" height="27.01" transform="translate(-84.67 1159.31) rotate(-90)"/>
    <rect class="st7" x="536.19" y="605.11" width="1.8" height="37.37" transform="translate(-86.7 1160.89) rotate(-90)"/>
  </g>
  <g id="pareti">
    <g>
      <polygon class="st4" points="440.53 561.22 752.52 519.35 752.52 524.75 761.98 524.75 761.98 595.43 721.91 595.43 721.91 558.06 578.74 576.97 578.74 579.67 572.44 579.67 572.44 560.84 449.08 576.97 449.08 616.14 572.44 616.14 572.44 613.44 578.74 613.44 578.74 616.14 578.74 630.1 578.74 631.45 572.44 631.45 572.44 630.1 572.44 621.99 572.44 621.09 449.08 621.09 449.08 621.99 449.08 759.31 572.44 759.31 572.44 758.41 572.44 707.53 572.44 706.63 578.74 706.63 578.74 707.53 578.74 769.66 572.44 769.66 449.08 769.66 449.08 935.79 449.08 937.14 431.97 937.14 431.97 935.79 431.97 920.48 440.53 911.93 440.53 561.22"/>
      <polygon class="st4" points="721.91 688.17 753.42 688.17 753.42 780.02 761.98 780.02 761.98 860.6 761.98 880.86 752.52 880.86 721.91 880.86 721.91 789.02 721.91 780.02 721.91 692.23 721.91 688.17"/>
      <path class="st4" d="M431.97,1020.88h17.11v104.45h272.83v-59.88h40.07v138.21h-330.01v-182.78ZM721.91,1133.88h-272.83v52.68h272.83v-52.68Z"/>
      <rect class="st4" x="449.08" y="1133.88" width="272.83" height="52.68"/>
    </g>
    <path class="st0" d="M721.9,595.43"/>
    <rect class="st6" x="583.89" y="746.9" width="10.35" height="35.17" transform="translate(-175.42 1353.55) rotate(-90)"/>
  </g>
  <g id="Default">
    <rect class="st5" x="559.38" y="1024.03" width="52.22" height="272.83" transform="translate(-574.95 1745.93) rotate(-90)"/>
    <line class="st1" x1="740.81" y1="682.77" x2="740.81" y2="600.38"/>
    <g>
      <rect class="st7" x="528.15" y="746.41" width="55.25" height="101.75" transform="translate(-241.51 1353.06) rotate(-90)"/>
      <line class="st1" x1="583.94" y1="786.15" x2="596.13" y2="786.15"/>
      <g>
        <rect class="st1" x="504.9" y="769.66" width="101.75" height="55.25"/>
        <line class="st1" x1="583.94" y1="809.07" x2="596.13" y2="809.07"/>
        <line class="st1" x1="589.95" y1="803.05" x2="589.95" y2="815.24"/>
        <line class="st1" x1="589.95" y1="779.98" x2="589.95" y2="792.16"/>
        <rect class="st1" x="576.95" y="774.61" width="26.81" height="45.99"/>
        <rect class="st1" x="517.13" y="781.88" width="31.01" height="31.01"/>
        <rect class="st1" x="509.42" y="774.16" width="46.6" height="46.44"/>
        <line class="st1" x1="532.72" y1="789.38" x2="532.72" y2="776.9"/>
      </g>
    </g>
    <line class="st1" x1="753.42" y1="598.58" x2="753.42" y2="685.02"/>
    <line class="st1" x1="753.42" y1="687.27" x2="753.42" y2="596.33"/>
    <line class="st1" x1="753.42" y1="596.33" x2="740.81" y2="596.33"/>
    <line class="st1" x1="753.42" y1="603.98" x2="753.42" y2="596.33"/>
    <line class="st1" x1="746.67" y1="603.98" x2="753.42" y2="603.98"/>
    <line class="st1" x1="746.67" y1="600.38" x2="746.67" y2="603.98"/>
    <line class="st1" x1="740.81" y1="600.38" x2="746.67" y2="600.38"/>
    <line class="st1" x1="740.81" y1="596.33" x2="740.81" y2="600.38"/>
    <line class="st1" x1="746.67" y1="682.77" x2="740.81" y2="682.77"/>
    <line class="st1" x1="746.67" y1="679.17" x2="746.67" y2="682.77"/>
    <line class="st1" x1="753.42" y1="679.17" x2="746.67" y2="679.17"/>
    <line class="st1" x1="753.42" y1="687.27" x2="753.42" y2="679.17"/>
    <line class="st1" x1="740.81" y1="687.27" x2="753.42" y2="687.27"/>
    <line class="st1" x1="740.81" y1="682.77" x2="740.81" y2="687.27"/>
    <line class="st1" x1="746.67" y1="603.98" x2="746.67" y2="679.17"/>
    <line class="st1" x1="753.42" y1="603.98" x2="753.42" y2="679.17"/>
    <g>
      <path class="st7" d="M472.94,621.09h30.58v24.73c0,9.51-6.84,17.21-15.29,17.21s-15.29-7.7-15.29-17.21v-24.73Z"/>
      <path class="st1" d="M503.52,621.09v24.73c0,9.51-6.84,17.21-15.29,17.21s-15.29-7.7-15.29-17.21v-24.73h30.58Z"/>
    </g>
    <line class="st1" x1="752.52" y1="603.98" x2="748.47" y2="603.98"/>
    <line class="st1" x1="752.52" y1="679.17" x2="752.52" y2="603.98"/>
    <line class="st1" x1="748.47" y1="679.17" x2="752.52" y2="679.17"/>
    <line class="st1" x1="748.47" y1="603.98" x2="748.47" y2="679.17"/>
    <line class="st1" x1="740.81" y1="886.27" x2="740.81" y2="881.76"/>
    <line class="st1" x1="740.81" y1="881.76" x2="753.42" y2="881.76"/>
    <line class="st1" x1="753.42" y1="881.76" x2="753.42" y2="886.27"/>
    <line class="st1" x1="753.42" y1="886.27" x2="740.81" y2="886.27"/>
    <line class="st1" x1="740.81" y1="972.71" x2="740.81" y2="968.2"/>
    <line class="st1" x1="740.81" y1="968.2" x2="753.42" y2="968.2"/>
    <line class="st1" x1="753.42" y1="968.2" x2="753.42" y2="972.71"/>
    <line class="st1" x1="753.42" y1="972.71" x2="740.81" y2="972.71"/>
    <line class="st1" x1="753.42" y1="968.2" x2="753.42" y2="886.27"/>
    <line class="st1" x1="740.81" y1="886.27" x2="740.81" y2="968.2"/>
    <line class="st1" x1="748.47" y1="968.2" x2="748.47" y2="886.27"/>
    <line class="st1" x1="748.47" y1="886.27" x2="752.52" y2="886.27"/>
    <line class="st1" x1="752.52" y1="886.27" x2="752.52" y2="968.2"/>
    <line class="st1" x1="752.52" y1="968.2" x2="748.47" y2="968.2"/>
    <line class="st1" x1="753.42" y1="1056.44" x2="753.42" y2="981.71"/>
    <line class="st1" x1="753.42" y1="981.71" x2="753.42" y2="1056.44"/>
    <line class="st1" x1="753.42" y1="1061.85" x2="753.42" y2="976.31"/>
    <line class="st1" x1="753.42" y1="1062.3" x2="753.42" y2="975.86"/>
    <line class="st1" x1="753.42" y1="973.61" x2="753.42" y2="1064.55"/>
    <line class="st1" x1="740.81" y1="978.11" x2="740.81" y2="973.61"/>
    <line class="st1" x1="740.81" y1="973.61" x2="753.42" y2="973.61"/>
    <line class="st1" x1="753.42" y1="973.61" x2="753.42" y2="981.71"/>
    <line class="st1" x1="753.42" y1="981.71" x2="746.67" y2="981.71"/>
    <line class="st1" x1="746.67" y1="981.71" x2="746.67" y2="978.11"/>
    <line class="st1" x1="746.67" y1="978.11" x2="740.81" y2="978.11"/>
    <line class="st1" x1="740.81" y1="1064.55" x2="740.81" y2="1060.05"/>
    <line class="st1" x1="740.81" y1="1060.05" x2="746.67" y2="1060.05"/>
    <line class="st1" x1="746.67" y1="1060.05" x2="746.67" y2="1056.44"/>
    <line class="st1" x1="746.67" y1="1056.44" x2="753.42" y2="1056.44"/>
    <line class="st1" x1="753.42" y1="1056.44" x2="753.42" y2="1064.55"/>
    <line class="st1" x1="753.42" y1="1064.55" x2="740.81" y2="1064.55"/>
    <line class="st1" x1="746.67" y1="1056.44" x2="746.67" y2="981.71"/>
    <line class="st1" x1="753.42" y1="1056.44" x2="753.42" y2="981.71"/>
    <line class="st1" x1="740.81" y1="978.11" x2="740.81" y2="1060.05"/>
    <line class="st1" x1="748.47" y1="1056.44" x2="748.47" y2="981.71"/>
    <line class="st1" x1="748.47" y1="981.71" x2="752.52" y2="981.71"/>
    <line class="st1" x1="752.52" y1="981.71" x2="752.52" y2="1056.44"/>
    <line class="st1" x1="752.52" y1="1056.44" x2="748.47" y2="1056.44"/>
    <line class="st1" x1="449.08" y1="939.39" x2="449.08" y2="1014.57"/>
    <line class="st1" x1="740.81" y1="596.33" x2="740.81" y2="595.43"/>
    <line class="st1" x1="740.81" y1="688.17" x2="740.81" y2="687.27"/>
    <line class="st1" x1="740.81" y1="881.76" x2="740.81" y2="880.86"/>
    <line class="st1" x1="740.81" y1="973.61" x2="740.81" y2="972.71"/>
    <line class="st1" x1="740.81" y1="1065.45" x2="740.81" y2="1064.55"/>
    <line class="st1" x1="449.08" y1="616.14" x2="572.43" y2="560.84"/>
    <line class="st1" x1="523.81" y1="621.09" x2="523.81" y2="622.89"/>
    <line class="st1" x1="550.82" y1="622.89" x2="550.82" y2="621.09"/>
    <line class="st1" x1="555.78" y1="622.89" x2="555.78" y2="624.69"/>
    <line class="st1" x1="518.41" y1="622.89" x2="555.78" y2="622.89"/>
    <line class="st1" x1="518.41" y1="624.69" x2="518.41" y2="622.89"/>
    <line class="st1" x1="555.78" y1="624.69" x2="518.41" y2="624.69"/>
    <polyline class="st1" points="449.08 692.39 449.08 691.27 449.68 691.27"/>
    <polyline class="st1" points="450.2 759.31 449.08 759.31 449.08 758.71"/>
    <polyline class="st1" points="517.12 758.18 517.12 759.31 516.52 759.31"/>
    <polyline class="st1" points="515.99 691.27 517.12 691.27 517.12 691.87"/>
    <line class="st1" x1="517.12" y1="758.18" x2="517.12" y2="691.87"/>
    <line class="st1" x1="450.2" y1="759.31" x2="516.52" y2="759.31"/>
    <line class="st1" x1="449.08" y1="692.39" x2="449.08" y2="758.71"/>
    <line class="st1" x1="515.99" y1="691.27" x2="449.68" y2="691.27"/>
    <circle class="st1" cx="483.19" cy="740.5" r="4.23" transform="translate(-157.21 130.82) rotate(-13.28)"/>
    <circle class="st1" cx="483.19" cy="740.5" r="4.23" transform="translate(-157.21 130.82) rotate(-13.28)"/>
    <line class="st1" x1="483.1" y1="759.31" x2="483.1" y2="740.41"/>
    <line class="st1" x1="578.74" y1="637.3" x2="578.74" y2="703.93"/>
    <line class="st1" x1="578.74" y1="637.3" x2="578.74" y2="703.93"/>
    <line class="st1" x1="648.97" y1="637.3" x2="648.88" y2="637.3"/>
    <polyline class="st1" points="648.88 637.3 648.97 637.3 648.97 633.7 578.74 633.7 578.74 637.3"/>
    <line class="st1" x1="578.74" y1="580.57" x2="576.49" y2="580.57"/>
    <polyline class="st1" points="449.08 1014.57 449.08 1018.18 527.41 1018.18"/>
    <line class="st1" x1="578.74" y1="633.7" x2="648.97" y2="633.7"/>
    <line class="st1" x1="648.97" y1="633.7" x2="648.97" y2="637.3"/>
    <line class="st1" x1="578.74" y1="637.3" x2="578.74" y2="633.7"/>
    <path class="st1" d="M578.74,703.93c18.46,0,36.47-7.2,49.52-20.26,13.06-13.51,20.71-31.06,20.71-49.97"/>
    <line class="st1" x1="576.49" y1="612.54" x2="576.49" y2="580.57"/>
    <line class="st1" x1="576.49" y1="580.57" x2="578.74" y2="580.57"/>
    <line class="st1" x1="578.74" y1="580.57" x2="578.74" y2="612.54"/>
    <line class="st1" x1="578.74" y1="612.54" x2="576.49" y2="612.54"/>
    <line class="st1" x1="572.43" y1="613.44" x2="572.43" y2="579.67"/>
    <line class="st1" x1="578.74" y1="612.54" x2="578.74" y2="613.44"/>
    <line class="st1" x1="578.74" y1="579.67" x2="578.74" y2="580.57"/>
    <line class="st1" x1="449.08" y1="1014.57" x2="449.08" y2="939.39"/>
    <line class="st1" x1="449.08" y1="1014.57" x2="449.08" y2="1018.18"/>
    <line class="st1" x1="449.08" y1="1018.18" x2="527.41" y2="1018.18"/>
    <path class="st1" d="M527.41,1018.18c0-20.71-8.1-40.97-22.96-55.83-14.41-14.41-34.67-22.96-55.38-22.96"/>
    <line class="st1" x1="449.08" y1="1186.55" x2="721.9" y2="1134.33"/>
    <line class="st1" x1="721.9" y1="1186.1" x2="449.08" y2="1133.88"/>
    <line class="st1" x1="572.43" y1="616.14" x2="449.08" y2="576.97"/>
    <line class="st1" x1="753.42" y1="603.98" x2="753.42" y2="679.17"/>
    <line class="st1" x1="753.42" y1="679.17" x2="753.42" y2="603.98"/>
    <line class="st1" x1="753.42" y1="599.03" x2="753.42" y2="684.57"/>
    <g>
      <g>
        <path class="st7" d="M525.99,730.52h37.37c.36,0,.66.49.66,1.11v27.68h-38.85v-27.68c0-.62.37-1.11.82-1.11ZM562.54,731.63h-35.73c-.45,0-.82.49-.82,1.11v16.22c0,.62.37,1.12.82,1.12h35.73c.45,0,.82-.5.82-1.12v-16.22c0-.62-.37-1.11-.82-1.11ZM544.67,752.81c-1.21,0-2.2.99-2.2,2.2s.99,2.21,2.2,2.21,2.21-.99,2.21-2.21-.99-2.2-2.21-2.2Z"/>
        <path class="st7" d="M526.81,731.63h35.73c.45,0,.82.49.82,1.11v16.22c0,.62-.37,1.12-.82,1.12h-35.73c-.45,0-.82-.5-.82-1.12v-16.22c0-.62.37-1.11.82-1.11ZM544.67,737.63c-1.62,0-2.93,1.31-2.93,2.93s1.31,2.94,2.93,2.94,2.94-1.32,2.94-2.94-1.32-2.93-2.94-2.93Z"/>
        <path class="st7" d="M541.74,740.56c0-1.62,1.31-2.93,2.93-2.93s2.94,1.31,2.94,2.93-1.32,2.94-2.94,2.94-2.93-1.32-2.93-2.94ZM544.67,738.98c-.87,0-1.57.71-1.57,1.58s.7,1.58,1.57,1.58,1.58-.71,1.58-1.58-.7-1.58-1.58-1.58Z"/>
        <path class="st7" d="M543.1,740.56c0-.87.7-1.58,1.57-1.58s1.58.71,1.58,1.58-.7,1.58-1.58,1.58-1.57-.71-1.57-1.58Z"/>
        <path class="st7" d="M542.47,755.01c0-1.21.99-2.2,2.2-2.2s2.21.99,2.21,2.2-.99,2.21-2.21,2.21-2.2-.99-2.2-2.21Z"/>
      </g>
      <g>
        <path class="st1" d="M542.47,755.01c0-1.21.99-2.2,2.2-2.2s2.21.99,2.21,2.2-.99,2.21-2.21,2.21-2.2-.99-2.2-2.21Z"/>
        <path class="st1" d="M541.74,740.56c0-1.62,1.31-2.93,2.93-2.93s2.94,1.31,2.94,2.93-1.32,2.94-2.94,2.94-2.93-1.32-2.93-2.94Z"/>
        <path class="st1" d="M543.1,740.56c0-.87.7-1.58,1.57-1.58s1.58.71,1.58,1.58-.7,1.58-1.58,1.58-1.57-.71-1.57-1.58Z"/>
        <path class="st1" d="M563.36,748.96v-16.22c0-.62-.37-1.11-.82-1.11h-35.73c-.45,0-.82.49-.82,1.11v16.22c0,.62.37,1.12.82,1.12h35.73c.45,0,.82-.5.82-1.12Z"/>
        <path class="st1" d="M525.17,750.75v8.56"/>
        <path class="st1" d="M564.02,759.31v-27.68c0-.62-.3-1.11-.66-1.11h-37.37c-.45,0-.82.49-.82,1.11v8.77"/>
        <line class="st1" x1="525.17" y1="750.75" x2="525.17" y2="740.4"/>
        <line class="st1" x1="535.07" y1="730.49" x2="553.53" y2="730.49"/>
      </g>
    </g>
    <g>
      <path class="st7" d="M631.73,606.86l36.46-5.07.02.18c-1.32,4.96-4.01,9.47-8.04,12.65-.45.45-.44.9-.44,1.35.91.89,1.81,1.34,2.71.88,1.34-.91,2.24-1.36,3.6-2.27l.45-.45h1.35s.45.44.45.44c-8.96,8.61-22,10.48-32.84,4.69q0-.45.45-.45s.45-.45.9-.46h.9c.9.44,2.26.88,3.61,1.33.9,0,1.8-.47,2.24-1.37.46-.45,0-1.35-.46-1.35-4.96-1.77-8.58-5.35-11.31-9.84l-.04-.27Z"/>
      <g>
        <polyline class="st1" points="599.37 611.36 631.73 606.86 668.19 601.79 700.6 597.28"/>
        <line class="st1" x1="596.71" y1="591.55" x2="599.37" y2="611.36"/>
        <line class="st1" x1="700.6" y1="597.28" x2="697.43" y2="575.52"/>
        <path class="st1" d="M635.44,619.26c10.84,5.8,23.88,3.93,32.84-4.69"/>
        <path class="st1" d="M631.77,607.13c2.73,4.48,6.35,8.06,11.31,9.84"/>
        <path class="st1" d="M643.53,618.31c.46-.45,0-1.35-.46-1.35"/>
        <path class="st1" d="M637.68,618.34c.9.44,2.26.89,3.61,1.34"/>
        <path class="st1" d="M641.29,619.68c.9,0,1.8-.47,2.24-1.37"/>
        <path class="st1" d="M635.89,618.8q-.45,0-.45.45"/>
        <path class="st1" d="M636.78,618.35c-.45,0-.9.46-.9.46"/>
        <path class="st1" d="M637.68,618.34h-.9"/>
        <path class="st1" d="M660.17,614.62c4.03-3.17,6.72-7.69,8.04-12.65"/>
        <path class="st1" d="M660.17,614.62c-.45.45-.44.9-.44,1.35"/>
        <path class="st1" d="M662.44,616.85c1.34-.91,2.24-1.36,3.6-2.27"/>
        <path class="st1" d="M659.73,615.97c.91.89,1.81,1.34,2.71.88"/>
        <line class="st1" x1="668.28" y1="614.57" x2="667.83" y2="614.12"/>
        <line class="st1" x1="667.83" y1="614.12" x2="666.48" y2="614.13"/>
        <line class="st1" x1="666.48" y1="614.13" x2="666.03" y2="614.58"/>
        <line class="st1" x1="593.74" y1="569.52" x2="694.51" y2="555.45"/>
      </g>
    </g>
    <g>
      <path class="st7" d="M694.14,872.29c-1.36.45-3.16.46-4.96.01-13.06-4.91-23.45-14.79-29.78-26.93-.9-1.35-1.36-3.16-.91-4.96.9-.9,1.34-2.25,2.24-3.16l10.3-16.24c.45-.45.9-.45.9-.9,1.36-1.35,2.7-2.71,4.95-3.16,4.95-.46,9.9-.48,14.85-.04,5.41.43,10.37,2.67,14.43,6.27,4.06,3.59,6.77,8.08,7.69,13.48,1.36,4.95,1.84,9.9,1.39,15.31,0,1.8-.89,3.6-2.24,4.96-.45,0-.45.45-.9.9l-14.82,12.2c-.9.9-1.79,1.8-3.14,2.26Z"/>
      <g>
        <path class="st1" d="M715.23,851.97c.45-5.4-.03-10.36-1.39-15.31"/>
        <path class="st1" d="M712.99,856.93c1.35-1.35,2.24-3.16,2.24-4.96"/>
        <path class="st1" d="M712.1,857.83c.45-.45.45-.9.9-.9"/>
        <line class="st1" x1="712.1" y1="857.83" x2="697.28" y2="870.03"/>
        <path class="st1" d="M694.14,872.29c1.35-.45,2.25-1.36,3.14-2.26"/>
        <path class="st1" d="M689.18,872.3c1.8.45,3.6.44,4.96-.01"/>
        <path class="st1" d="M713.84,836.66c-.91-5.4-3.63-9.89-7.69-13.48"/>
        <path class="st1" d="M704.82,830.84c-.9-.9-2.25-1.79-3.16-2.69"/>
        <path class="st1" d="M707.13,851.54c3.13-6.76,2.21-14.87-2.31-20.7"/>
        <path class="st1" d="M699.95,861.01c2.69-3.16,4.93-6.31,7.17-9.47"/>
        <path class="st1" d="M691.72,816.91c-4.95-.44-9.9-.42-14.85.04"/>
        <path class="st1" d="M676.87,816.96c-2.25.46-3.59,1.81-4.95,3.16"/>
        <path class="st1" d="M671.92,820.12c0,.45-.45.45-.9.9"/>
        <line class="st1" x1="671.02" y1="821.02" x2="660.72" y2="837.26"/>
        <path class="st1" d="M660.72,837.26c-.9.9-1.34,2.25-2.24,3.16"/>
        <path class="st1" d="M658.48,840.42c-.45,1.8.01,3.61.91,4.96"/>
        <path class="st1" d="M706.15,823.18c-4.06-3.6-9.02-5.83-14.43-6.27"/>
        <path class="st1" d="M701.66,828.15c-.9-.9-1.8-1.79-3.16-2.69"/>
        <path class="st1" d="M698.51,825.46c-6.32-4.03-14.42-4.01-20.71.06"/>
        <path class="st1" d="M677.8,825.51c-3.14,2.26-5.85,4.97-8.54,8.12"/>
        <path class="st1" d="M659.39,845.37c6.33,12.13,16.72,22.01,29.78,26.93"/>
      </g>
    </g>
    <g>
      <g>
        <path class="st7" d="M702.67,1028.5c-8.87,3.86-19.72,2.94-28.03-2.73q0-.45.45-.9h1.8c1.35.9,2.25,1.35,3.6,2.26.9,0,2.25-.46,2.7-1.36,0-.45,0-1.35-.45-1.35-4.5-2.7-8.1-6.75-9.9-11.7h36.92c-1.81,4.95-5.41,9-9.91,11.7-.45,0-.9.9-.45,1.35.45.9,1.35,1.36,2.7,1.36l.57,1.37Z"/>
        <path class="st7" d="M702.67,1028.5l-.57-1.37c.9-.91,2.25-1.36,3.6-2.26h1.8v.9c-1.52,1.09-3.14,2-4.83,2.73Z"/>
        <polygon class="st7" points="672.84 1012.72 665.63 1012.72 665.63 944.74 672.84 944.74 709.76 944.74 716.51 944.74 716.51 1012.72 709.76 1012.72 672.84 1012.72"/>
        <path class="st7" d="M709.76,944.74h-36.92c1.8-4.96,5.4-9.01,9.9-11.26.45-.45.45-.9.45-1.35-.45-.9-1.8-1.35-2.7-1.35-1.35.45-2.25,1.35-3.6,1.8h-1.8q-.45,0-.45-.45c9.9-7.2,23.41-7.2,32.86,0v.45h-1.8c-1.35-.45-2.7-1.35-3.6-1.8-1.35,0-2.25.45-2.7,1.35-.45.45,0,.9.45,1.35,4.5,2.25,8.1,6.3,9.91,11.26Z"/>
      </g>
      <g>
        <path class="st3" d="M707.5,932.13c-9.45-7.2-22.96-7.2-32.86,0"/>
        <path class="st3" d="M682.74,933.48c-4.5,2.25-8.1,6.3-9.9,11.26"/>
        <path class="st3" d="M682.74,933.48c.45-.45.45-.9.45-1.35"/>
        <path class="st3" d="M680.49,930.78c-1.35.45-2.25,1.35-3.6,1.8"/>
        <path class="st3" d="M683.19,932.13c-.45-.9-1.8-1.35-2.7-1.35"/>
        <path class="st3" d="M674.64,932.13q0,.45.45.45"/>
        <path class="st3" d="M675.09,932.58h.9"/>
        <path class="st3" d="M675.99,932.58h.9"/>
        <path class="st3" d="M709.76,944.74c-1.81-4.96-5.41-9.01-9.91-11.26"/>
        <path class="st3" d="M699.4,932.13c-.45.45,0,.9.45,1.35"/>
        <path class="st3" d="M705.7,932.58c-1.35-.45-2.7-1.35-3.6-1.8"/>
        <path class="st3" d="M702.1,930.78c-1.35,0-2.25.45-2.7,1.35"/>
        <path class="st3" d="M707.5,932.58v-.45"/>
        <line class="st3" x1="706.15" y1="932.58" x2="707.5" y2="932.58"/>
        <line class="st3" x1="705.7" y1="932.58" x2="706.15" y2="932.58"/>
        <line class="st3" x1="665.63" y1="1012.72" x2="665.63" y2="944.74"/>
        <polyline class="st3" points="665.63 1012.72 672.84 1012.72 709.76 1012.72 716.51 1012.72"/>
        <polyline class="st3" points="716.51 944.74 709.76 944.74 672.84 944.74 665.63 944.74"/>
        <line class="st3" x1="716.51" y1="1012.72" x2="716.51" y2="944.74"/>
        <path class="st3" d="M674.64,1025.77c8.31,5.67,19.16,6.59,28.03,2.73,1.69-.73,3.31-1.64,4.83-2.73"/>
        <path class="st3" d="M672.84,1012.72c1.8,4.95,5.4,9,9.9,11.7"/>
        <path class="st3" d="M683.19,1025.77c0-.45,0-1.35-.45-1.35"/>
        <path class="st3" d="M676.89,1024.87c1.35.9,2.25,1.35,3.6,2.26"/>
        <path class="st3" d="M680.49,1027.13c.9,0,2.25-.46,2.7-1.36"/>
        <path class="st3" d="M675.09,1024.87q-.45.45-.45.9"/>
        <path class="st3" d="M675.99,1024.87h-.9"/>
        <path class="st3" d="M676.89,1024.87h-.9"/>
        <path class="st3" d="M699.85,1024.42c4.5-2.7,8.1-6.75,9.91-11.7"/>
        <path class="st3" d="M699.85,1024.42c-.45,0-.9.9-.45,1.35"/>
        <path class="st3" d="M702.1,1027.13c.9-.91,2.25-1.36,3.6-2.26"/>
        <path class="st3" d="M699.4,1025.77c.45.9,1.35,1.36,2.7,1.36"/>
        <path class="st3" d="M707.5,1025.77v-.9"/>
        <line class="st3" x1="707.5" y1="1024.87" x2="706.15" y2="1024.87"/>
        <line class="st3" x1="706.15" y1="1024.87" x2="705.7" y2="1024.87"/>
      </g>
    </g>
    <polygon class="st8" points="578.74 576.97 578.74 615.67 721.9 595.43 721.9 558.06 578.74 576.97"/>
    <g>
      <rect class="st7" x="449.08" y="770.62" width="55.54" height="53.98" transform="translate(953.7 1595.21) rotate(180)"/>
      <line class="st2" x1="449.08" y1="824.6" x2="450.64" y2="824.6"/>
      <line class="st2" x1="453.38" y1="824.6" x2="456.12" y2="824.6"/>
      <line class="st2" x1="458.86" y1="824.6" x2="461.59" y2="824.6"/>
      <line class="st2" x1="464.33" y1="824.6" x2="467.07" y2="824.6"/>
      <line class="st2" x1="469.81" y1="824.6" x2="472.55" y2="824.6"/>
      <line class="st2" x1="475.28" y1="824.6" x2="478.41" y2="824.6"/>
      <line class="st2" x1="481.15" y1="824.6" x2="483.89" y2="824.6"/>
      <line class="st2" x1="486.63" y1="824.6" x2="489.36" y2="824.6"/>
      <line class="st2" x1="492.1" y1="824.6" x2="494.84" y2="824.6"/>
      <line class="st2" x1="497.58" y1="824.6" x2="500.32" y2="824.6"/>
      <line class="st2" x1="503.05" y1="824.6" x2="504.62" y2="824.6"/>
      <line class="st2" x1="504.62" y1="824.6" x2="504.62" y2="823.45"/>
      <line class="st2" x1="504.62" y1="820.77" x2="504.62" y2="818.09"/>
      <line class="st2" x1="504.62" y1="815.03" x2="504.62" y2="812.35"/>
      <line class="st2" x1="504.62" y1="809.67" x2="504.62" y2="806.99"/>
      <line class="st2" x1="504.62" y1="804.31" x2="504.62" y2="801.63"/>
      <line class="st2" x1="504.62" y1="798.95" x2="504.62" y2="796.27"/>
      <line class="st2" x1="504.62" y1="793.59" x2="504.62" y2="790.91"/>
      <line class="st2" x1="504.62" y1="788.23" x2="504.62" y2="785.17"/>
      <line class="st2" x1="504.62" y1="782.49" x2="504.62" y2="779.81"/>
      <line class="st2" x1="504.62" y1="777.13" x2="504.62" y2="774.45"/>
      <line class="st2" x1="504.62" y1="771.77" x2="504.62" y2="770.62"/>
      <path class="st2" d="M449.08,824.6"/>
    </g>
  </g>
</svg>