<?xml version="1.0" encoding="UTF-8"?>
<svg id="Lag_1" xmlns="http://www.w3.org/2000/svg" version="1.1" viewBox="0 0 1200 1697.14">
  <!-- Generator: Adobe Illustrator 29.6.0, SVG Export Plug-In . SVG Version: 2.1.1 Build 207)  -->
  <defs>
    <style>
      .st0 {
        stroke-dasharray: .06 .43;
      }

      .st0, .st1, .st2, .st3, .st4, .st5, .st6, .st7, .st8, .st9 {
        stroke-width: .18px;
      }

      .st0, .st1, .st2, .st3, .st4, .st6, .st8, .st9 {
        stroke-linecap: round;
      }

      .st0, .st1, .st2, .st4, .st6, .st7, .st8, .st9 {
        stroke-linejoin: round;
      }

      .st0, .st2, .st3, .st4, .st6, .st8 {
        fill: none;
      }

      .st0, .st2, .st4, .st5, .st8, .st9 {
        stroke: #000;
      }

      .st10 {
        fill: #000016;
      }

      .st1, .st5, .st7, .st9 {
        fill: #fff;
      }

      .st1, .st7 {
        stroke: #060305;
      }

      .st11 {
        fill: #e8e3e0;
      }

      .st3 {
        stroke: #979899;
      }

      .st3, .st5 {
        stroke-miterlimit: 10;
      }

      .st12 {
        fill: #979899;
      }

      .st4 {
        stroke-dasharray: .06 .42;
      }

      .st6 {
        stroke: #767676;
      }

      .st13 {
        fill: #dbd7d5;
      }

      .st8 {
        stroke-dasharray: .06 .43;
      }
    </style>
  </defs>
  <polygon class="st11" points="546.53 696.24 546.53 1014.03 625.99 1014.03 625.99 953.37 652.19 953.37 652.19 696.24 546.53 696.24"/>
  <rect class="st13" x="550.03" y="877.93" width="100.7" height="57.17"/>
  <rect class="st9" x="632.57" y="856.88" width="17.52" height="21.09"/>
  <rect class="st9" x="614.08" y="856.88" width="17.6" height="21.09"/>
  <rect class="st9" x="595.65" y="856.88" width="17.61" height="21.09"/>
  <polyline class="st9" points="561.91 694.54 561.91 699.81 560.2 699.81 560.2 694.54 561.91 694.54"/>
  <path class="st9" d="M633.86,890.22c0,.96.78,1.74,1.74,1.74s1.74-.78,1.74-1.74-.78-1.74-1.74-1.74-1.74.78-1.74,1.74"/>
  <polygon class="st12" points="639.8 693.5 665.41 693.5 639.8 703.15 639.8 693.5"/>
  <polygon class="st3" points="639.8 693.5 665.41 693.5 639.8 703.15 639.8 693.5"/>
  <path class="st12" d="M639.8,715.55l25.62-9.73v9.73h-25.62ZM639.8,703.15v12.4l25.62-9.73-25.62-2.67Z"/>
  <path class="st3" d="M639.8,715.55l25.62-9.73v9.73h-25.62ZM639.8,703.15v12.4l25.62-9.73-25.62-2.67Z"/>
  <polygon class="st12" points="639.8 703.15 665.41 693.5 665.41 705.82 639.8 703.15"/>
  <polygon class="st3" points="639.8 703.15 665.41 693.5 665.41 705.82 639.8 703.15"/>
  <polygon class="st12" points="534.59 693.5 560.2 693.5 534.59 703.15 534.59 693.5"/>
  <polygon class="st3" points="534.59 693.5 560.2 693.5 534.59 703.15 534.59 693.5"/>
  <path class="st12" d="M534.59,715.4l25.62-9.73v9.8l-25.62-.07ZM534.59,703.15v12.25l25.62-9.73-25.62-2.52Z"/>
  <path class="st3" d="M534.59,715.4l25.62-9.73v9.8l-25.62-.07ZM534.59,703.15v12.25l25.62-9.73-25.62-2.52Z"/>
  <polygon class="st12" points="534.59 703.15 560.2 693.5 560.2 705.67 534.59 703.15"/>
  <polygon class="st3" points="534.59 703.15 560.2 693.5 560.2 705.67 534.59 703.15"/>
  <polyline class="st2" points="612.7 694.54 561.91 694.54 561.91 696.24 612.7 696.24 612.7 694.54"/>
  <polyline class="st9" points="638.09 694.54 614.4 694.54 614.4 697.13 638.09 697.13 638.09 694.54"/>
  <polyline class="st9" points="639.8 694.54 639.8 699.81 638.09 699.81 638.09 694.54 639.8 694.54"/>
  <polyline class="st9" points="614.4 694.54 614.4 699.81 612.7 699.81 612.7 694.54 614.4 694.54"/>
  <line class="st2" x1="560.2" y1="693.5" x2="639.8" y2="693.5"/>
  <line class="st2" x1="655.24" y1="860.48" x2="655.24" y2="861.75"/>
  <line class="st2" x1="655.24" y1="863.6" x2="655.24" y2="864.87"/>
  <line class="st2" x1="655.24" y1="866.8" x2="655.24" y2="868.06"/>
  <line class="st2" x1="655.24" y1="869.91" x2="655.24" y2="871.18"/>
  <line class="st2" x1="655.24" y1="873.11" x2="655.24" y2="874.37"/>
  <line class="st2" x1="655.24" y1="860.48" x2="655.24" y2="861.75"/>
  <line class="st2" x1="655.24" y1="863.6" x2="655.24" y2="864.87"/>
  <line class="st2" x1="655.24" y1="866.8" x2="655.24" y2="868.06"/>
  <line class="st2" x1="655.24" y1="869.91" x2="655.24" y2="871.18"/>
  <line class="st2" x1="655.24" y1="873.11" x2="655.24" y2="874.37"/>
  <line class="st2" x1="609.73" y1="877.93" x2="608.46" y2="877.93"/>
  <line class="st2" x1="606.61" y1="877.93" x2="605.35" y2="877.93"/>
  <line class="st2" x1="603.42" y1="877.93" x2="602.15" y2="877.93"/>
  <line class="st2" x1="600.3" y1="877.93" x2="599.03" y2="877.93"/>
  <line class="st2" x1="649.97" y1="860.48" x2="649.97" y2="861.75"/>
  <line class="st2" x1="649.97" y1="863.6" x2="649.97" y2="864.87"/>
  <line class="st2" x1="649.97" y1="866.8" x2="649.97" y2="868.06"/>
  <line class="st2" x1="649.97" y1="869.91" x2="649.97" y2="871.18"/>
  <line class="st2" x1="649.97" y1="873.11" x2="649.97" y2="874.37"/>
  <polyline class="st2" points="649.97 876.23 649.97 877.93 648.49 877.93"/>
  <line class="st2" x1="646.63" y1="877.93" x2="645.29" y2="877.93"/>
  <line class="st2" x1="643.44" y1="877.93" x2="642.17" y2="877.93"/>
  <line class="st2" x1="640.24" y1="877.93" x2="638.98" y2="877.93"/>
  <line class="st2" x1="637.13" y1="877.93" x2="635.86" y2="877.93"/>
  <line class="st2" x1="628.14" y1="877.93" x2="626.88" y2="877.93"/>
  <line class="st2" x1="625.02" y1="877.93" x2="623.76" y2="877.93"/>
  <line class="st2" x1="621.83" y1="877.93" x2="620.57" y2="877.93"/>
  <line class="st2" x1="618.71" y1="877.93" x2="617.45" y2="877.93"/>
  <line class="st2" x1="635.64" y1="882.46" x2="635.64" y2="890.26"/>
  <line class="st2" x1="597.7" y1="925.68" x2="569.33" y2="925.68"/>
  <path class="st2" d="M597.66,897.24c-15.69,0-28.4,12.72-28.4,28.4"/>
  <line class="st2" x1="597.7" y1="897.24" x2="597.7" y2="925.68"/>
  <line class="st2" x1="553" y1="1014.03" x2="553" y2="985.6"/>
  <path class="st2" d="M581.36,1014c0-15.69-12.72-28.4-28.4-28.4"/>
  <line class="st2" x1="581.44" y1="1014.03" x2="553" y2="1014.03"/>
  <polyline class="st9" points="600.74 935.85 621.76 935.85 621.76 1009.5 600.74 1009.5 600.74 935.85"/>
  <polyline class="st9" points="621.76 948.1 600.74 948.1 600.74 935.85 621.76 935.85 621.76 948.1"/>
  <line class="st2" x1="619.31" y1="942.16" x2="613.66" y2="942.16"/>
  <line class="st2" x1="608.76" y1="942.16" x2="603.19" y2="942.16"/>
  <line class="st2" x1="605.94" y1="944.91" x2="605.94" y2="939.34"/>
  <line class="st2" x1="616.48" y1="944.91" x2="616.48" y2="939.34"/>
  <polyline class="st9" points="604.23 1005.94 618.27 1005.94 618.27 991.91 604.23 991.91 604.23 1005.94"/>
  <polyline class="st2" points="621.76 988.42 621.76 1009.5 600.74 1009.5 600.74 988.42 621.76 988.42"/>
  <line class="st2" x1="620.2" y1="998.96" x2="614.55" y2="998.96"/>
  <polygon class="st10" points="560.2 715.47 560.2 693.5 534.59 693.5 534.59 715.4 544.76 715.43 544.76 1010.54 543.5 1010.54 543.5 1015.82 547.36 1015.82 551.22 1015.82 551.22 1010.54 550.03 1010.54 550.03 715.44 560.2 715.47"/>
  <polyline class="st9" points="550.24 720.75 551.65 720.75 551.65 736.49 550.24 736.49"/>
  <polyline class="st9" points="551.44 737.38 551.44 719.85 552.85 719.85 552.85 737.38 551.44 737.38"/>
  <path class="st9" d="M619.64,882.34v9.25c0,.21-.13.37-.3.37h-16.85c-.21,0-.37-.17-.37-.37v-9.25"/>
  <path class="st2" d="M610.21,884.05c0,.35.28.63.63.63s.63-.28.63-.63-.28-.63-.63-.63-.63.28-.63.63"/>
  <path class="st2" d="M610.06,888.51c0,.43.35.78.78.78s.78-.35.78-.78-.35-.78-.78-.78-.78.35-.78.78"/>
  <path class="st2" d="M609.69,888.51c0,.64.52,1.15,1.15,1.15s1.15-.52,1.15-1.15-.52-1.15-1.15-1.15-1.15.52-1.15,1.15"/>
  <path class="st2" d="M602.86,885.43h16.01c.2,0,.37.17.37.37v5.42c0,.2-.17.37-.37.37h-16.01c-.2,0-.37-.17-.37-.37v-5.42c0-.2.17-.37.37-.37Z"/>
  <line class="st2" x1="599.79" y1="932" x2="601.87" y2="932"/>
  <g>
    <path class="st1" d="M611.05,718.26c-7.58,1.24-15.35,1.36-22.98.37-.33,0-.61-.19-.68-.47-.02-6.39-.05-12.79-.07-19.18"/>
    <path class="st1" d="M611.05,718.26c.13-.02.22-.11.23-.22v-18.8l-23.99-.26c-.02,6.39-.05,12.79-.07,19.18-.07.27-.36.47-.68.47-7.63.99-15.4.86-22.98-.37-.13-.02-.22-.11-.23-.22v-19.05h23.97"/>
    <path class="st1" d="M610.95,698.01c.07.6.08,1.19.01,1.78-.02.12-.13.2-.27.2-7.67.18-15.33.22-23,.13-.19-.02-.34-.16-.34-.33-.06-.66-.04-1.3.03-1.96"/>
    <path class="st1" d="M563.66,698.01c-.07.6-.08,1.19-.01,1.78.02.12.13.2.27.2,7.67.18,15.33.22,23,.13.19-.02.34-.16.34-.33.06-.66.04-1.3-.03-1.96"/>
    <path class="st1" d="M563.37,697.67v-.21c0-.07.06-.12.14-.12h47.58c.08,0,.14.06.14.12v.21l-.06.14h-.36s-47.45-.14-47.45-.14Z"/>
    <path class="st1" d="M610.17,701.71c.47,0,.84-1.11.84-2.47,0-.11,0-.22-.01-.33l-.06-.89c-.02-.12-.13-.2-.27-.2h-23.33v1.99c.01.65.02,1.3.04,1.94.07.27.36.47.68.47,7.34,1.04,14.84.87,22.1-.5Z"/>
    <path class="st1" d="M564.47,701.71c-.47,0-.84-1.11-.84-2.47,0-.11,0-.22.01-.33l.06-.89c.02-.12.13-.2.27-.2h23.33v1.99c-.01.65-.02,1.3-.04,1.94-.07.27-.36.47-.68.47-7.34,1.04-14.84.87-22.1-.5Z"/>
    <path class="st1" d="M610.79,699.98c-.11.27-.19.53-.26.81-.14.31-.26.62-.37.94-.14.44-.29.87-.43,1.31-.2.6-.35,1.21-.44,1.83-.05.38-.1.76-.12,1.15-.03.41-.06.81-.08,1.22-.05.97-.05,1.94,0,2.91.05.98.19,1.94.41,2.9.16.72.4,1.42.7,2.11.19.44.47.76.9,1.05.04.02.07.04.12.04h.42c.12-.04.18-.1.23-.2v-18.52c0-.11-.1-.2-.23-.2h-.13c-.13,0-.23.09-.24.2-.04.26-.07.51-.11.77-.02.34-.07.68-.15,1.01l-.21.67Z"/>
    <path class="st1" d="M563.82,699.98c.11.27.19.53.26.81.14.31.26.62.37.94.14.44.29.87.43,1.31.2.6.35,1.21.44,1.83.05.38.1.76.12,1.15.03.41.06.81.08,1.22.05.97.05,1.94,0,2.91-.05.98-.19,1.94-.41,2.9-.16.72-.4,1.42-.7,2.11-.19.44-.47.76-.9,1.05-.04.02-.07.04-.12.04h-.42c-.12-.04-.18-.1-.23-.2v-18.52c0-.11.1-.2.23-.2h.13c.13,0,.23.09.24.2.04.26.07.51.11.77.02.34.07.68.15,1.01l.21.67Z"/>
  </g>
  <path class="st5" d="M632.02,938.3v-10.2c0-3.93,2.82-7.1,6.31-7.1s6.31,3.18,6.31,7.1v10.2h-12.61Z"/>
  <polygon class="st9" points="650.35 938.3 626.19 938.3 626.12 949.11 650.35 949.14 650.35 938.3"/>
  <rect class="st8" x="549.92" y="877.93" width="100.7" height="57.17"/>
  <g>
    <polyline class="st2" points="621.61 910.5 621.61 910.53 621.64 910.53"/>
    <line class="st0" x1="622.06" y1="910.53" x2="649.43" y2="910.53"/>
    <polyline class="st2" points="649.64 910.53 649.67 910.53 649.67 910.5"/>
    <line class="st0" x1="649.67" y1="910.07" x2="649.67" y2="882.7"/>
    <polyline class="st2" points="649.67 882.49 649.67 882.46 649.64 882.46"/>
    <line class="st0" x1="649.22" y1="882.46" x2="621.85" y2="882.46"/>
    <polyline class="st2" points="621.64 882.46 621.61 882.46 621.61 882.49"/>
    <line class="st0" x1="621.61" y1="882.92" x2="621.61" y2="910.29"/>
  </g>
  <line class="st2" x1="649.97" y1="953.37" x2="625.99" y2="1010.54"/>
  <line class="st2" x1="625.99" y1="953.37" x2="649.97" y2="1010.54"/>
  <g>
    <path class="st2" d="M614.63,693.93s0-.02,0-.03"/>
    <path class="st4" d="M614.65,693.48c.28-3.08,3.06-12.16,3.78-12.16l19.23,12.9.23.16"/>
    <line class="st2" x1="638.07" y1="694.52" x2="638.09" y2="694.54"/>
  </g>
  <g>
    <g>
      <path class="st9" d="M587.08,821.38c0,4.55,3.93,8.24,8.77,8.24,3.56,0,7.1-2.33,8.31-5.62.17-.45.5-1.39.45-2.63-.15-3.87-4.01-8.24-8.77-8.24s-8.77,3.69-8.77,8.24Z"/>
      <path class="st2" d="M603.47,823.23c0,2.8-3.4,5.06-7.61,5.06"/>
      <path class="st2" d="M588.24,823.23c0,2.8,3.4,5.06,7.61,5.06"/>
      <path class="st2" d="M588.24,823.23c0-.55-.44-1-.98-1"/>
      <path class="st2" d="M603.47,823.23c0-.55.44-1,.98-1"/>
      <g>
        <path class="st9" d="M608.68,821.38c0,4.55,3.93,8.24,8.77,8.24,3.56,0,7.1-2.33,8.31-5.62.17-.45.5-1.39.45-2.63-.15-3.87-4.01-8.24-8.77-8.24s-8.77,3.69-8.77,8.24Z"/>
        <path class="st2" d="M625.06,823.23c0,2.8-3.4,5.06-7.61,5.06"/>
        <path class="st2" d="M609.84,823.23c0,2.8,3.4,5.06,7.61,5.06"/>
        <path class="st2" d="M609.84,823.23c0-.55-.44-1-.98-1"/>
        <path class="st2" d="M625.06,823.23c0-.55.47-1,1.06-1"/>
      </g>
    </g>
    <g>
      <path class="st9" d="M587.08,794.23c0-4.55,3.93-8.24,8.77-8.24,3.56,0,7.1,2.33,8.31,5.62.17.45.5,1.39.45,2.63-.15,3.87-4.01,8.24-8.77,8.24s-8.77-3.69-8.77-8.24Z"/>
      <path class="st2" d="M603.47,792.38c0-2.8-3.4-5.06-7.61-5.06"/>
      <path class="st2" d="M588.24,792.38c0-2.8,3.4-5.06,7.61-5.06"/>
      <path class="st2" d="M588.24,792.38c0,.55-.44,1-.98,1"/>
      <path class="st2" d="M603.47,792.38c0,.55.44,1,.98,1"/>
      <g>
        <path class="st9" d="M608.68,794.23c0-4.55,3.93-8.24,8.77-8.24,3.56,0,7.1,2.33,8.31,5.62.17.45.5,1.39.45,2.63-.15,3.87-4.01,8.24-8.77,8.24s-8.77-3.69-8.77-8.24Z"/>
        <path class="st2" d="M625.06,792.38c0-2.8-3.4-5.06-7.61-5.06"/>
        <path class="st2" d="M609.84,792.38c0-2.8,3.4-5.06,7.61-5.06"/>
        <path class="st2" d="M609.84,792.38c0,.55-.44,1-.98,1"/>
        <path class="st2" d="M625.06,792.38c0,.55.47,1,1.06,1"/>
      </g>
    </g>
    <rect class="st9" x="595.25" y="785.76" width="22.8" height="44.69" transform="translate(1414.75 201.45) rotate(90)"/>
  </g>
  <circle class="st7" cx="605.19" cy="732.46" r="9.62"/>
  <polygon class="st10" points="639.8 693.5 639.8 715.55 649.97 715.55 649.97 801.31 649.97 802.05 649.97 813.63 649.97 814.34 649.97 877.93 595.62 877.93 595.62 895.46 599.85 895.46 599.85 882.17 649.97 882.17 649.97 949.14 625.99 949.14 625.99 930.87 599.85 930.87 599.85 927.38 595.62 927.38 595.62 935.11 621.76 935.11 621.76 1010.54 583.15 1010.54 583.15 1015.82 642.1 1015.82 642.1 1010.54 625.99 1010.54 625.99 953.37 649.97 953.37 649.97 953.67 655.24 953.67 655.24 814.34 655.24 813.63 655.24 802.05 655.24 801.31 655.24 715.55 665.41 715.55 665.41 693.5 639.8 693.5"/>
  <g>
    <polyline class="st9" points="647.67 802.24 657.69 802.98 657.47 813.16 648.26 812.12 647.52 811.3 647.67 802.24"/>
    <line class="st6" x1="647.59" y1="806.18" x2="651.31" y2="802.46"/>
    <line class="st6" x1="647.52" y1="811" x2="655.76" y2="802.83"/>
    <line class="st6" x1="650.86" y1="812.41" x2="657.62" y2="805.66"/>
    <line class="st6" x1="655.09" y1="812.86" x2="657.47" y2="810.48"/>
    <line class="st6" x1="653.39" y1="812.71" x2="647.59" y2="806.92"/>
    <line class="st6" x1="657.47" y1="812.04" x2="647.67" y2="802.24"/>
    <line class="st6" x1="657.62" y1="807.44" x2="652.72" y2="802.61"/>
  </g>
</svg>