<?xml version="1.0" encoding="UTF-8"?>
<svg id="Lag_1" xmlns="http://www.w3.org/2000/svg" version="1.1" viewBox="0 0 1200 1697.14">
  <!-- Generator: Adobe Illustrator 29.6.0, SVG Export Plug-In . SVG Version: 2.1.1 Build 207)  -->
  <defs>
    <style>
      .st0 {
        fill: #000016;
      }

      .st1, .st2, .st3, .st4, .st5, .st6, .st7, .st8, .st9, .st10 {
        stroke-width: .18px;
      }

      .st1, .st2, .st3, .st6, .st7, .st8, .st9, .st10 {
        stroke-linecap: round;
      }

      .st1, .st2, .st5, .st6, .st7, .st8, .st9, .st10 {
        stroke-linejoin: round;
      }

      .st1, .st4, .st5, .st7 {
        fill: #fff;
      }

      .st1, .st5 {
        stroke: #060305;
      }

      .st11 {
        fill: #e8e3e0;
      }

      .st2, .st3, .st6, .st8, .st9, .st10 {
        fill: none;
      }

      .st2, .st4, .st6, .st7, .st9, .st10 {
        stroke: #000;
      }

      .st3 {
        stroke: #979899;
      }

      .st3, .st4 {
        stroke-miterlimit: 10;
      }

      .st12 {
        fill: #979899;
      }

      .st13 {
        fill: #dbd7d5;
      }

      .st6 {
        stroke-dasharray: .06 .43;
      }

      .st8 {
        stroke: #747675;
      }

      .st9 {
        stroke-dasharray: .06 .42;
      }

      .st10 {
        stroke-dasharray: .06 .43;
      }
    </style>
  </defs>
  <polygon class="st11" points="629.72 951.77 658.14 951.77 658.14 714.37 627.98 714.37 627.98 694.94 555.19 694.94 555.19 1014 629.72 1014 629.72 951.77"/>
  <line class="st2" x1="654.98" y1="953.49" x2="631.04" y2="1010.56"/>
  <line class="st2" x1="631.04" y1="953.49" x2="654.98" y2="1010.56"/>
  <rect class="st13" x="555.12" y="878.17" width="100.53" height="57.07"/>
  <rect class="st7" x="637.48" y="857.16" width="17.49" height="21.05"/>
  <rect class="st7" x="619.02" y="857.16" width="17.57" height="21.05"/>
  <rect class="st7" x="600.62" y="857.16" width="17.58" height="21.05"/>
  <polyline class="st7" points="589.73 693.16 589.73 698.42 591.44 698.42 591.44 693.16 589.73 693.16"/>
  <polyline class="st7" points="601.96 693.16 601.96 698.42 603.74 698.42 603.74 693.16 601.96 693.16"/>
  <polyline class="st7" points="591.44 693.16 601.96 693.16 601.96 694.94 591.44 694.94 591.44 693.16"/>
  <polyline class="st7" points="565.2 693.16 565.2 698.42 566.98 698.42 566.98 693.16 565.2 693.16"/>
  <polyline class="st7" points="587.96 693.16 587.96 698.42 589.73 698.42 589.73 693.16 587.96 693.16"/>
  <polyline class="st7" points="587.96 693.16 566.98 693.16 566.98 694.94 587.96 694.94 587.96 693.16"/>
  <path class="st7" d="M624.68,882.45v9.23c0,.2-.13.37-.3.37h-16.83c-.2,0-.37-.17-.37-.37v-9.23"/>
  <path class="st2" d="M615.27,884.16c0,.35.28.63.63.63s.63-.28.63-.63-.28-.63-.63-.63-.63.28-.63.63"/>
  <path class="st2" d="M615.12,888.6c0,.43.35.78.78.78s.78-.35.78-.78-.35-.78-.78-.78-.78.35-.78.78"/>
  <path class="st2" d="M614.75,888.6c0,.63.51,1.15,1.15,1.15s1.15-.51,1.15-1.15-.51-1.15-1.15-1.15-1.15.51-1.15,1.15"/>
  <path class="st2" d="M607.93,885.53h16.01c.2,0,.37.17.37.37v5.41c0,.2-.17.37-.37.37h-16.02c-.2,0-.37-.17-.37-.37v-5.41c0-.2.17-.37.37-.37Z"/>
  <path class="st4" d="M636.78,938.46v-10.18c0-3.92,2.82-7.09,6.3-7.09s6.29,3.17,6.29,7.09v10.18h-12.59Z"/>
  <polygon class="st7" points="655.08 938.46 630.96 938.46 630.9 949.26 655.08 949.28 655.08 938.46"/>
  <path class="st7" d="M638.8,890.44c0,.96.78,1.74,1.74,1.74s1.74-.78,1.74-1.74-.78-1.74-1.74-1.74-1.74.78-1.74,1.74"/>
  <path class="st12" d="M539.78,694.94l25.42-2.82-25.42,9.64v-6.82ZM547.26,692.12l-7.49,2.82,25.42-2.82h-17.94Z"/>
  <path class="st3" d="M539.78,694.94l25.42-2.82-25.42,9.64v-6.82ZM547.26,692.12l-7.49,2.82,25.42-2.82h-17.94Z"/>
  <path class="st12" d="M539.78,716.14l25.42-9.64v9.64h-25.42ZM539.78,701.76v14.38l25.42-9.64-25.42-4.74Z"/>
  <path class="st3" d="M539.78,716.14l25.42-9.64v9.64h-25.42ZM539.78,701.76v14.38l25.42-9.64-25.42-4.74Z"/>
  <polygon class="st12" points="539.78 701.76 565.2 692.12 565.2 706.5 539.78 701.76"/>
  <polygon class="st3" points="539.78 701.76 565.2 692.12 565.2 706.5 539.78 701.76"/>
  <line class="st2" x1="614.79" y1="878.17" x2="613.53" y2="878.17"/>
  <line class="st2" x1="611.67" y1="878.17" x2="610.41" y2="878.17"/>
  <line class="st2" x1="608.49" y1="878.17" x2="607.23" y2="878.17"/>
  <line class="st2" x1="605.37" y1="878.17" x2="604.11" y2="878.17"/>
  <line class="st2" x1="654.96" y1="860.75" x2="654.96" y2="862.01"/>
  <line class="st2" x1="654.96" y1="863.87" x2="654.96" y2="865.13"/>
  <line class="st2" x1="654.96" y1="867.05" x2="654.96" y2="868.31"/>
  <line class="st2" x1="654.96" y1="870.17" x2="654.96" y2="871.43"/>
  <line class="st2" x1="654.96" y1="873.35" x2="654.96" y2="874.61"/>
  <polyline class="st2" points="654.96 876.47 654.96 878.17 653.48 878.17"/>
  <line class="st2" x1="651.55" y1="878.17" x2="650.29" y2="878.17"/>
  <line class="st2" x1="648.44" y1="878.17" x2="647.18" y2="878.17"/>
  <line class="st2" x1="645.25" y1="878.17" x2="643.99" y2="878.17"/>
  <line class="st2" x1="642.14" y1="878.17" x2="640.88" y2="878.17"/>
  <line class="st2" x1="633.17" y1="878.17" x2="631.91" y2="878.17"/>
  <line class="st2" x1="630.06" y1="878.17" x2="628.8" y2="878.17"/>
  <line class="st2" x1="626.87" y1="878.17" x2="625.61" y2="878.17"/>
  <line class="st2" x1="623.76" y1="878.17" x2="622.5" y2="878.17"/>
  <line class="st2" x1="640.58" y1="882.69" x2="640.58" y2="890.47"/>
  <line class="st2" x1="602.78" y1="925.83" x2="574.39" y2="925.83"/>
  <path class="st2" d="M602.74,897.44c-15.66,0-28.35,12.69-28.35,28.35"/>
  <line class="st2" x1="602.78" y1="897.44" x2="602.78" y2="925.83"/>
  <line class="st2" x1="558.16" y1="1014.04" x2="558.16" y2="985.65"/>
  <path class="st2" d="M586.47,1014c0-15.66-12.69-28.35-28.35-28.35"/>
  <line class="st2" x1="586.47" y1="1014.04" x2="558.16" y2="1014.04"/>
  <polyline class="st7" points="605.74 935.99 626.8 935.99 626.8 1009.52 605.74 1009.52 605.74 935.99"/>
  <polyline class="st2" points="626.8 948.22 605.74 948.22 605.74 935.99 626.8 935.99 626.8 948.22"/>
  <line class="st2" x1="624.35" y1="942.29" x2="618.72" y2="942.29"/>
  <line class="st2" x1="613.82" y1="942.29" x2="608.19" y2="942.29"/>
  <line class="st2" x1="611.01" y1="945.03" x2="611.01" y2="939.47"/>
  <line class="st2" x1="621.53" y1="945.03" x2="621.53" y2="939.47"/>
  <polyline class="st2" points="609.23 1005.96 623.24 1005.96 623.24 991.95 609.23 991.95 609.23 1005.96"/>
  <polyline class="st2" points="626.8 988.46 626.8 1009.52 605.74 1009.52 605.74 988.46 626.8 988.46"/>
  <line class="st2" x1="625.16" y1="998.99" x2="619.61" y2="998.99"/>
  <polyline class="st2" points="549.93 1010.55 548.67 1010.55 548.67 1015.82 552.52 1015.82"/>
  <polyline class="st7" points="625.91 804.05 614.12 804.05 614.12 813.02 615.23 814.05 625.02 814.13 625.98 813.09 625.91 804.05"/>
  <line class="st2" x1="603.74" y1="692.12" x2="565.2" y2="692.12"/>
  <line class="st8" x1="614.12" y1="811.31" x2="621.31" y2="804.05"/>
  <line class="st8" x1="616.05" y1="814.05" x2="625.91" y2="804.2"/>
  <line class="st8" x1="620.72" y1="814.05" x2="625.91" y2="808.87"/>
  <line class="st8" x1="618.2" y1="814.05" x2="614.12" y2="809.98"/>
  <line class="st8" x1="622.94" y1="814.13" x2="614.12" y2="805.31"/>
  <line class="st8" x1="625.98" y1="812.42" x2="617.6" y2="804.05"/>
  <line class="st8" x1="625.91" y1="807.68" x2="622.35" y2="804.05"/>
  <rect class="st6" x="555.01" y="878.17" width="100.53" height="57.07"/>
  <g>
    <path class="st2" d="M587.96,692.62s0-.02,0-.03"/>
    <path class="st9" d="M587.93,692.17c-.28-2.8-2.73-10.85-3.37-10.85l-17.19,11.56-.19.13"/>
    <line class="st2" x1="567" y1="693.15" x2="566.98" y2="693.16"/>
  </g>
  <g>
    <polyline class="st2" points="626.57 910.68 626.57 910.71 626.6 910.71"/>
    <line class="st10" x1="627.03" y1="910.71" x2="654.35" y2="910.71"/>
    <polyline class="st2" points="654.56 910.71 654.59 910.71 654.59 910.68"/>
    <line class="st10" x1="654.59" y1="910.26" x2="654.59" y2="882.93"/>
    <polyline class="st2" points="654.59 882.72 654.59 882.69 654.56 882.69"/>
    <line class="st10" x1="654.14" y1="882.69" x2="626.81" y2="882.69"/>
    <polyline class="st2" points="626.6 882.69 626.57 882.69 626.57 882.72"/>
    <line class="st10" x1="626.57" y1="883.15" x2="626.57" y2="910.47"/>
  </g>
  <g>
    <path class="st1" d="M652.5,738.86c-7.57,1.23-15.33,1.36-22.94.37-.33,0-.61-.19-.68-.47-.02-6.38-.05-12.76-.07-19.15"/>
    <path class="st1" d="M652.5,738.86c.13-.02.22-.11.23-.22v-18.77l-23.95-.26c-.02,6.38-.05,12.76-.07,19.15-.07.27-.36.47-.68.47-7.62.99-15.37.86-22.94-.37-.13-.02-.22-.11-.23-.22v-19.02h23.93"/>
    <path class="st1" d="M652.4,718.65c.07.6.08,1.18.01,1.78-.02.11-.13.2-.27.2-7.65.18-15.3.22-22.96.13-.19-.02-.34-.16-.34-.33-.06-.65-.04-1.3.03-1.95"/>
    <path class="st1" d="M605.19,718.65c-.07.6-.08,1.18-.01,1.78.02.11.13.2.27.2,7.65.18,15.3.22,22.96.13.19-.02.34-.16.34-.33.06-.65.04-1.3-.03-1.95"/>
    <path class="st1" d="M604.9,718.31v-.21c0-.07.06-.12.14-.12h47.5c.08,0,.14.06.14.12v.21l-.06.14h-.36s-47.36-.14-47.36-.14Z"/>
    <path class="st1" d="M651.62,722.34c.47,0,.84-1.1.84-2.47,0-.11,0-.22-.01-.33l-.06-.89c-.02-.11-.13-.2-.27-.2h-23.29v1.98c.01.65.02,1.29.04,1.94.07.27.36.47.68.47,7.33,1.04,14.81.87,22.07-.5Z"/>
    <path class="st1" d="M606,722.34c-.47,0-.84-1.1-.84-2.47,0-.11,0-.22.01-.33l.06-.89c.02-.11.13-.2.27-.2h23.29v1.98c-.01.65-.02,1.29-.04,1.94-.07.27-.36.47-.68.47-7.33,1.04-14.81.87-22.07-.5Z"/>
    <path class="st1" d="M652.24,720.62c-.11.27-.19.53-.26.81-.14.31-.26.62-.36.94-.14.44-.29.87-.43,1.3-.2.6-.35,1.21-.44,1.83-.05.38-.1.76-.12,1.14-.03.41-.06.81-.08,1.22-.05.97-.05,1.93,0,2.9.05.98.19,1.94.41,2.9.16.72.39,1.42.7,2.11.19.43.47.76.9,1.05.04.02.07.03.12.03h.42c.11-.04.18-.1.23-.2v-18.48c0-.11-.1-.2-.23-.2h-.13c-.13,0-.23.09-.24.2-.04.26-.07.51-.11.77-.02.34-.07.67-.15,1.01l-.21.67Z"/>
    <path class="st1" d="M605.35,720.62c.11.27.19.53.26.81.14.31.26.62.36.94.14.44.29.87.43,1.3.2.6.35,1.21.44,1.83.05.38.1.76.12,1.14.03.41.06.81.08,1.22.05.97.05,1.93,0,2.9-.05.98-.19,1.94-.41,2.9-.16.72-.39,1.42-.7,2.11-.19.43-.47.76-.9,1.05-.04.02-.07.03-.12.03h-.42c-.11-.04-.18-.1-.23-.2v-18.48c0-.11.1-.2.23-.2h.13c.13,0,.23.09.24.2.04.26.07.51.11.77.02.34.07.67.15,1.01l.21.67Z"/>
  </g>
  <g>
    <g>
      <path class="st7" d="M591.19,824.51c0,4.54,3.92,8.23,8.75,8.23,3.56,0,7.08-2.33,8.3-5.61.17-.45.5-1.39.45-2.62-.15-3.87-4-8.23-8.75-8.23s-8.75,3.68-8.75,8.23Z"/>
      <path class="st2" d="M607.54,826.35c0,2.79-3.4,5.05-7.6,5.05"/>
      <path class="st2" d="M592.34,826.35c0,2.79,3.4,5.05,7.6,5.05"/>
      <path class="st2" d="M592.34,826.35c0-.55-.44-1-.98-1"/>
      <path class="st2" d="M607.54,826.35c0-.55.47-1,1.06-1"/>
    </g>
    <g>
      <path class="st7" d="M591.19,796.26c0-4.54,3.92-8.23,8.75-8.23,3.56,0,7.08,2.33,8.3,5.61.17.45.5,1.39.45,2.62-.15,3.87-4,8.23-8.75,8.23s-8.75-3.68-8.75-8.23Z"/>
      <path class="st2" d="M607.54,794.42c0-2.79-3.4-5.05-7.6-5.05"/>
      <path class="st2" d="M592.34,794.42c0-2.79,3.4-5.05,7.6-5.05"/>
      <path class="st2" d="M592.34,794.42c0,.55-.44,1-.98,1"/>
      <path class="st2" d="M607.54,794.42c0,.55.47,1,1.06,1"/>
    </g>
    <rect class="st7" x="588.56" y="796.82" width="22.76" height="25.8" transform="translate(1409.66 209.78) rotate(90)"/>
  </g>
  <polyline class="st7" points="556.52 737.14 556.52 719.65 557.93 719.65 557.93 737.14 556.52 737.14"/>
  <polyline class="st7" points="555.19 720.54 556.52 720.54 556.52 736.25 555.19 736.25"/>
  <polygon class="st0" points="565.2 716.14 565.2 692.12 542.15 692.12 542.15 694.05 539.78 694.05 539.78 716.14 549.93 716.14 549.93 1010.55 548.67 1010.55 548.67 1015.82 552.52 1015.82 556.38 1015.82 556.38 1010.55 555.19 1010.55 555.19 716.14 565.2 716.14"/>
  <circle class="st5" cx="641.51" cy="754.54" r="9.61"/>
  <polygon class="st0" points="629.09 705.31 629.09 687.75 607.82 687.75 607.82 692.12 603.74 692.12 603.74 716.21 629.09 716.21 654.96 716.21 654.96 878.17 600.7 878.17 600.7 895.66 604.86 895.66 604.86 882.4 654.96 882.4 654.96 949.25 630.95 949.25 630.95 931.02 604.86 931.02 604.86 927.54 600.7 927.54 600.7 935.24 626.8 935.24 626.8 1010.55 588.25 1010.55 588.25 1015.82 647.1 1015.82 647.1 1010.55 630.95 1010.55 630.95 953.48 654.96 953.48 654.96 953.78 660.22 953.78 660.22 730.35 660.22 716.21 660.22 714.57 660.22 712.75 660.22 705.31 629.09 705.31"/>
</svg>