<?xml version="1.0" encoding="UTF-8"?>
<svg id="Lag_1" xmlns="http://www.w3.org/2000/svg" version="1.1" viewBox="0 0 1200 1697.14">
  <!-- Generator: Adobe Illustrator 29.6.0, SVG Export Plug-In . SVG Version: 2.1.1 Build 207)  -->
  <defs>
    <style>
      .st0 {
        fill: #000016;
      }

      .st1, .st2, .st3, .st4, .st5, .st6, .st7, .st8, .st9, .st10, .st11 {
        stroke-width: .18px;
      }

      .st1, .st2, .st3, .st4, .st6, .st8, .st9, .st10, .st11 {
        stroke-linecap: round;
      }

      .st1, .st2, .st5, .st7, .st10 {
        fill: #fff;
      }

      .st1, .st2, .st7 {
        stroke: #060305;
      }

      .st1, .st3, .st4, .st6, .st7, .st8, .st9, .st10, .st11 {
        stroke-linejoin: round;
      }

      .st12 {
        fill: #e8e3e0;
      }

      .st2, .st5 {
        stroke-miterlimit: 10;
      }

      .st3, .st4, .st5, .st6, .st8, .st9, .st10 {
        stroke: #000;
      }

      .st3, .st4, .st8, .st9, .st11 {
        fill: none;
      }

      .st4 {
        stroke-dasharray: .06 .42;
      }

      .st13 {
        fill: #dbd7d5;
      }

      .st6 {
        fill: #373736;
      }

      .st8 {
        stroke-dasharray: .06 .43;
      }

      .st9 {
        stroke-dasharray: .06 .43;
      }

      .st11 {
        stroke: #747675;
      }
    </style>
  </defs>
  <polygon class="st12" points="634.32 835.34 634.32 693.18 573.28 693.18 573.28 707.8 547.73 707.8 547.73 951.01 575.42 951.01 575.42 1014 651.67 1014 651.67 835.34 634.32 835.34"/>
  <polyline class="st10" points="648.54 856.24 648.54 838.75 647.13 838.75 647.13 856.24 648.54 856.24"/>
  <polyline class="st10" points="649.95 839.64 648.54 839.64 648.54 855.35 649.95 855.35"/>
  <rect class="st13" x="549.88" y="878.31" width="100.52" height="57.07" transform="translate(1200.27 1813.68) rotate(-180)"/>
  <rect class="st2" x="544.89" y="709.26" width="25.24" height="3.5"/>
  <polyline class="st10" points="571.98 805.99 584.58 805.99 584.58 814.43 573.09 814.43 572.06 813.32 571.98 805.99"/>
  <line class="st3" x1="602.3" y1="925.84" x2="630.69" y2="925.84"/>
  <path class="st3" d="M630.61,925.8c0-15.66-12.69-28.35-28.35-28.35"/>
  <line class="st3" x1="602.3" y1="897.45" x2="602.3" y2="925.84"/>
  <line class="st3" x1="646.92" y1="1014.04" x2="646.92" y2="985.65"/>
  <path class="st3" d="M646.88,985.65c-15.66,0-28.35,12.69-28.35,28.35"/>
  <line class="st3" x1="618.6" y1="1014.04" x2="646.92" y2="1014.04"/>
  <polyline class="st10" points="599.33 935.99 578.28 935.99 578.28 1009.52 599.33 1009.52 599.33 935.99"/>
  <polyline class="st3" points="578.28 948.22 599.33 948.22 599.33 935.99 578.28 935.99 578.28 948.22"/>
  <line class="st3" x1="580.73" y1="942.29" x2="586.36" y2="942.29"/>
  <line class="st3" x1="591.25" y1="942.29" x2="596.89" y2="942.29"/>
  <line class="st3" x1="594.07" y1="945.03" x2="594.07" y2="939.47"/>
  <line class="st3" x1="583.55" y1="945.03" x2="583.55" y2="939.47"/>
  <polyline class="st3" points="595.85 1006.03 581.84 1006.03 581.84 992.02 595.85 992.02 595.85 1006.03"/>
  <line class="st3" x1="579.91" y1="998.99" x2="585.47" y2="998.99"/>
  <line class="st11" x1="571.98" y1="809.32" x2="575.32" y2="805.99"/>
  <line class="st11" x1="572.35" y1="813.69" x2="580.06" y2="805.99"/>
  <line class="st11" x1="576.28" y1="814.43" x2="584.58" y2="806.13"/>
  <line class="st11" x1="581.03" y1="814.43" x2="584.58" y2="810.88"/>
  <line class="st11" x1="574.5" y1="814.43" x2="572.06" y2="811.99"/>
  <line class="st11" x1="579.25" y1="814.43" x2="571.98" y2="807.25"/>
  <line class="st11" x1="583.92" y1="814.43" x2="575.47" y2="805.99"/>
  <line class="st11" x1="584.58" y1="810.43" x2="580.14" y2="805.99"/>
  <polyline class="st10" points="609.56 693.18 609.56 698.44 607.78 698.44 607.78 693.18 609.56 693.18"/>
  <polyline class="st10" points="597.26 693.18 597.26 698.44 595.55 698.44 595.55 693.18 597.26 693.18"/>
  <polyline class="st10" points="607.78 693.18 597.26 693.18 597.26 694.96 607.78 694.96 607.78 693.18"/>
  <polyline class="st10" points="634.02 693.18 634.02 698.44 632.32 698.44 632.32 693.18 634.02 693.18"/>
  <polyline class="st10" points="611.27 693.18 611.27 698.44 609.56 698.44 609.56 693.18 611.27 693.18"/>
  <line class="st3" x1="595.55" y1="692.14" x2="634.02" y2="692.14"/>
  <polyline class="st10" points="611.27 693.18 632.32 693.18 632.32 694.96 611.27 694.96 611.27 693.18"/>
  <path class="st5" d="M556.02,938.6v-10.18c0-3.92,2.82-7.09,6.3-7.09s6.29,3.17,6.29,7.09v10.18h-12.59Z"/>
  <polygon class="st10" points="574.32 938.6 550.2 938.6 550.13 949.39 574.32 949.42 574.32 938.6"/>
  <path class="st10" d="M566.45,890.57c0-.96-.78-1.74-1.74-1.74s-1.74.78-1.74,1.74.78,1.74,1.74,1.74,1.74-.78,1.74-1.74"/>
  <line class="st3" x1="564.75" y1="882.83" x2="564.75" y2="890.61"/>
  <path class="st10" d="M598.17,882.59v9.23c0,.2-.13.37-.3.37h-16.82c-.2,0-.37-.17-.37-.37v-9.23"/>
  <path class="st3" d="M588.76,884.29c0,.35.28.63.63.63s.63-.28.63-.63-.28-.63-.63-.63-.63.28-.63.63"/>
  <path class="st3" d="M588.61,888.74c0,.43.35.78.78.78s.78-.35.78-.78-.35-.78-.78-.78-.78.35-.78.78"/>
  <path class="st3" d="M588.24,888.74c0,.63.51,1.15,1.15,1.15s1.15-.51,1.15-1.15-.51-1.15-1.15-1.15-1.15.51-1.15,1.15"/>
  <path class="st3" d="M581.42,885.66h16.01c.2,0,.37.17.37.37v5.41c0,.2-.17.37-.37.37h-16.01c-.2,0-.37-.17-.37-.37v-5.41c0-.2.17-.37.37-.37Z"/>
  <g>
    <polyline class="st3" points="578.76 910.8 578.76 910.83 578.73 910.83"/>
    <line class="st9" x1="578.3" y1="910.83" x2="550.98" y2="910.83"/>
    <polyline class="st3" points="550.77 910.83 550.74 910.83 550.74 910.8"/>
    <line class="st9" x1="550.74" y1="910.38" x2="550.74" y2="883.05"/>
    <polyline class="st3" points="550.74 882.84 550.74 882.81 550.77 882.81"/>
    <line class="st9" x1="551.19" y1="882.81" x2="578.51" y2="882.81"/>
    <polyline class="st3" points="578.73 882.81 578.76 882.81 578.76 882.84"/>
    <line class="st9" x1="578.76" y1="883.27" x2="578.76" y2="910.59"/>
  </g>
  <rect class="st8" x="549.88" y="878.31" width="100.52" height="56.93" transform="translate(1200.27 1813.56) rotate(-180)"/>
  <g>
    <path class="st3" d="M611.27,692.63s0-.02,0-.03"/>
    <path class="st4" d="M611.29,692.19c.28-2.8,2.74-10.86,3.38-10.86l17.25,11.58.19.13"/>
    <line class="st3" x1="632.29" y1="693.16" x2="632.32" y2="693.18"/>
  </g>
  <line class="st3" x1="574.13" y1="953.48" x2="550.37" y2="1010.57"/>
  <line class="st3" x1="550.39" y1="953.6" x2="574.13" y2="1010.55"/>
  <rect class="st10" x="586.94" y="857.36" width="17.49" height="21.05"/>
  <rect class="st10" x="568.48" y="857.36" width="17.57" height="21.05"/>
  <rect class="st10" x="550.09" y="857.36" width="17.58" height="21.05"/>
  <path class="st10" d="M613.44,720.48c0-4.54,3.92-8.23,8.75-8.23,3.56,0,7.08,2.33,8.3,5.61.17.45.5,1.39.45,2.62-.15,3.87-4,8.23-8.75,8.23-4.83,0-8.75-3.68-8.75-8.23Z"/>
  <path class="st3" d="M629.8,718.63c0-2.79-3.4-5.05-7.6-5.05"/>
  <path class="st3" d="M614.6,718.63c0-2.79,3.4-5.05,7.6-5.05"/>
  <path class="st3" d="M614.6,718.63c0,.55-.44,1-.98,1"/>
  <path class="st3" d="M629.8,718.63c0,.55.44,1,.98,1"/>
  <g>
    <path class="st10" d="M613.44,746.75c0,4.54,3.92,8.23,8.75,8.23,3.56,0,7.08-2.33,8.3-5.61.17-.45.5-1.39.45-2.62-.15-3.87-4-8.23-8.75-8.23s-8.75,3.68-8.75,8.23Z"/>
    <path class="st3" d="M629.8,748.59c0,2.79-3.4,5.05-7.6,5.05"/>
    <path class="st3" d="M614.6,748.59c0,2.79,3.4,5.05,7.6,5.05"/>
    <path class="st3" d="M614.6,748.59c0-.55-.44-1-.98-1"/>
    <path class="st3" d="M629.8,748.59c0-.55.47-1,1.06-1"/>
  </g>
  <rect class="st10" x="610.82" y="722.11" width="22.76" height="22.76" transform="translate(1355.69 111.29) rotate(90)"/>
  <g>
    <path class="st1" d="M572.24,753.45c1.23,7.57,1.36,15.32.37,22.94,0,.33-.19.61-.47.68-6.38.02-12.76.05-19.15.07"/>
    <path class="st1" d="M572.24,753.45c-.02-.13-.11-.22-.22-.23h-18.76l-.26,23.94c6.38.02,12.76.05,19.15.07.27.07.47.36.47.68.99,7.62.86,15.37-.37,22.94-.02.13-.11.22-.22.23h-19.02v-23.93"/>
    <path class="st1" d="M552.03,753.56c.6-.07,1.18-.08,1.78-.01.11.02.2.13.2.27.18,7.65.22,15.3.13,22.96-.02.19-.16.34-.33.34-.65.06-1.3.04-1.95-.03"/>
    <path class="st1" d="M552.03,800.76c.6.07,1.18.08,1.78.01.11-.02.2-.13.2-.27.18-7.65.22-15.3.13-22.96-.02-.19-.16-.34-.33-.34-.65-.06-1.3-.04-1.95.03"/>
    <path class="st1" d="M551.69,801.05h-.21c-.07,0-.12-.06-.12-.14v-47.5c0-.08.06-.14.12-.14h.21l.14.06v.36s-.14,47.36-.14,47.36Z"/>
    <path class="st1" d="M555.72,754.33c0-.47-1.1-.84-2.47-.84-.11,0-.22,0-.33.01l-.89.06c-.11.02-.2.13-.2.27v23.29h1.98c.65-.01,1.29-.02,1.94-.04.27-.07.47-.36.47-.68,1.04-7.33.87-14.81-.5-22.06Z"/>
    <path class="st1" d="M555.72,799.95c0,.47-1.1.84-2.47.84-.11,0-.22,0-.33-.01l-.89-.06c-.11-.02-.2-.13-.2-.27v-23.29h1.98c.65.01,1.29.02,1.94.04.27.07.47.36.47.68,1.04,7.33.87,14.81-.5,22.06Z"/>
    <path class="st1" d="M554,753.71c.27.11.53.19.81.26.31.14.62.26.94.36.44.14.87.29,1.3.43.6.2,1.21.35,1.83.44.38.05.76.1,1.14.12.41.03.81.06,1.22.08.97.05,1.93.05,2.9,0,.98-.05,1.94-.19,2.9-.41.72-.16,1.42-.39,2.11-.7.43-.19.76-.47,1.05-.9.02-.04.03-.07.03-.12v-.42c-.04-.11-.1-.18-.2-.23h-18.48c-.11,0-.2.1-.2.23v.13h0c0,.13.09.23.2.24.26.04.51.07.77.11.34.02.67.07,1.01.15l.67.21Z"/>
    <path class="st1" d="M554,800.6c.27-.11.53-.19.81-.26.31-.14.62-.26.94-.36.44-.14.87-.29,1.3-.43.6-.2,1.21-.35,1.83-.44.38-.05.76-.1,1.14-.12.41-.03.81-.06,1.22-.08.97-.05,1.93-.05,2.9,0,.98.05,1.94.19,2.9.41.72.16,1.42.39,2.11.7.43.19.76.47,1.05.9.02.04.03.07.03.12v.42c-.04.11-.1.18-.2.23h-18.48c-.11,0-.2-.1-.2-.23v-.13h0c0-.13.09-.23.2-.24.26-.04.51-.07.77-.11.34-.02.67-.07,1.01-.15l.67-.21Z"/>
  </g>
  <polygon class="st0" points="591.4 692.14 591.4 687.77 570.13 687.77 570.13 705.7 544.86 705.7 544.86 716.23 544.86 878.18 544.86 882.4 544.86 949.26 544.86 953.48 544.86 953.78 550.12 953.78 550.12 716.23 570.13 716.23 595.55 716.3 595.55 692.14 591.4 692.14"/>
  <polygon class="st0" points="639.58 831.93 639.58 797.05 639.58 791.09 639.58 692.14 634.32 692.14 634.32 791.09 634.32 797.03 634.32 837.19 649.88 837.19 649.88 1010.55 648.7 1010.55 648.7 1015.82 652.55 1015.82 655.14 1015.82 655.14 831.93 639.58 831.93"/>
  <polyline class="st0" points="604.37 935.25 604.37 927.54 600.22 927.54 600.22 931.02 574.13 931.02 574.13 949.26 550.12 949.26 550.12 953.48 574.13 953.48 574.13 1010.55 557.97 1010.55 557.97 1015.82 616.82 1015.82 616.82 1010.55 578.28 1010.55 578.28 935.25 604.37 935.25"/>
  <polyline class="st6" points="550.12 882.4 550.12 878.18 604.37 878.18 604.37 895.67 600.22 895.67 600.22 882.4 550.12 882.4"/>
  <circle class="st7" cx="586.94" cy="790.51" r="9.61"/>
</svg>