<?xml version="1.0" encoding="UTF-8"?>
<svg id="Lag_1" xmlns="http://www.w3.org/2000/svg" version="1.1" viewBox="0 0 1200 1697.14">
  <!-- Generator: Adobe Illustrator 29.6.0, SVG Export Plug-In . SVG Version: 2.1.1 Build 207)  -->
  <defs>
    <style>
      .st0 {
        stroke-dasharray: .06 .43;
      }

      .st0, .st1, .st2, .st3, .st4, .st5, .st6, .st7, .st8 {
        stroke-width: .18px;
      }

      .st0, .st1, .st2, .st4, .st5, .st7, .st8 {
        stroke-linecap: round;
      }

      .st0, .st1, .st2, .st5, .st7, .st8 {
        stroke-linejoin: round;
      }

      .st0, .st2, .st4, .st5, .st8 {
        fill: none;
      }

      .st0, .st2, .st5, .st6, .st7 {
        stroke: #000;
      }

      .st9 {
        fill: #000016;
      }

      .st1, .st3 {
        stroke: #060305;
      }

      .st1, .st3, .st6, .st7 {
        fill: #fff;
      }

      .st10 {
        fill: #e8e3e0;
      }

      .st3, .st4, .st6 {
        stroke-miterlimit: 10;
      }

      .st4 {
        stroke: #979899;
      }

      .st11 {
        fill: #979899;
      }

      .st5 {
        stroke-dasharray: .06 .42;
      }

      .st8 {
        stroke: #747675;
      }
    </style>
  </defs>
  <polygon class="st10" points="546.53 696.24 546.53 1014.03 625.99 1014.03 625.99 953.37 652.19 953.37 652.19 696.24 546.53 696.24"/>
  <g>
    <polyline class="st2" points="621.61 910.5 621.61 910.53 621.64 910.53"/>
    <line class="st0" x1="622.06" y1="910.53" x2="649.43" y2="910.53"/>
    <polyline class="st2" points="649.64 910.53 649.67 910.53 649.67 910.5"/>
    <line class="st0" x1="649.67" y1="910.07" x2="649.67" y2="882.7"/>
    <polyline class="st2" points="649.67 882.49 649.67 882.46 649.64 882.46"/>
    <line class="st0" x1="649.22" y1="882.46" x2="621.85" y2="882.46"/>
    <polyline class="st2" points="621.64 882.46 621.61 882.46 621.61 882.49"/>
    <line class="st0" x1="621.61" y1="882.92" x2="621.61" y2="910.29"/>
  </g>
  <rect class="st7" x="632.57" y="856.88" width="17.52" height="21.09"/>
  <rect class="st7" x="614.08" y="856.88" width="17.6" height="21.09"/>
  <rect class="st7" x="595.65" y="856.88" width="17.61" height="21.09"/>
  <polyline class="st7" points="641.06 813.63 641.21 802.05 665.41 801.98 665.27 813.56 641.06 813.63"/>
  <polyline class="st7" points="561.91 694.54 561.91 699.81 560.2 699.81 560.2 694.54 561.91 694.54"/>
  <path class="st7" d="M633.86,890.22c0,.96.78,1.74,1.74,1.74s1.74-.78,1.74-1.74-.78-1.74-1.74-1.74-1.74.78-1.74,1.74"/>
  <polygon class="st11" points="639.8 693.5 665.41 693.5 639.8 703.15 639.8 693.5"/>
  <polygon class="st4" points="639.8 693.5 665.41 693.5 639.8 703.15 639.8 693.5"/>
  <path class="st11" d="M639.8,715.55l25.62-9.73v9.73h-25.62ZM639.8,703.15v12.4l25.62-9.73-25.62-2.67Z"/>
  <path class="st4" d="M639.8,715.55l25.62-9.73v9.73h-25.62ZM639.8,703.15v12.4l25.62-9.73-25.62-2.67Z"/>
  <polygon class="st11" points="639.8 703.15 665.41 693.5 665.41 705.82 639.8 703.15"/>
  <polygon class="st4" points="639.8 703.15 665.41 693.5 665.41 705.82 639.8 703.15"/>
  <polygon class="st11" points="534.59 693.5 560.2 693.5 534.59 703.15 534.59 693.5"/>
  <polygon class="st4" points="534.59 693.5 560.2 693.5 534.59 703.15 534.59 693.5"/>
  <path class="st11" d="M534.59,715.4l25.62-9.73v9.8l-25.62-.07ZM534.59,703.15v12.25l25.62-9.73-25.62-2.52Z"/>
  <path class="st4" d="M534.59,715.4l25.62-9.73v9.8l-25.62-.07ZM534.59,703.15v12.25l25.62-9.73-25.62-2.52Z"/>
  <polygon class="st11" points="534.59 703.15 560.2 693.5 560.2 705.67 534.59 703.15"/>
  <polygon class="st4" points="534.59 703.15 560.2 693.5 560.2 705.67 534.59 703.15"/>
  <line class="st8" x1="641.21" y1="805.02" x2="644.1" y2="802.05"/>
  <line class="st8" x1="641.13" y1="809.77" x2="648.86" y2="802.05"/>
  <line class="st8" x1="641.95" y1="813.63" x2="653.61" y2="802.05"/>
  <line class="st8" x1="646.7" y1="813.63" x2="658.36" y2="801.98"/>
  <line class="st8" x1="651.46" y1="813.63" x2="663.11" y2="801.98"/>
  <line class="st8" x1="656.21" y1="813.56" x2="665.41" y2="804.43"/>
  <line class="st8" x1="660.96" y1="813.56" x2="665.34" y2="809.18"/>
  <line class="st8" x1="643.96" y1="813.63" x2="641.13" y2="810.81"/>
  <line class="st8" x1="648.71" y1="813.63" x2="641.13" y2="806.13"/>
  <line class="st8" x1="653.39" y1="813.63" x2="641.88" y2="802.05"/>
  <line class="st8" x1="658.06" y1="813.56" x2="646.55" y2="802.05"/>
  <line class="st8" x1="662.82" y1="813.56" x2="651.23" y2="802.05"/>
  <line class="st8" x1="665.34" y1="811.33" x2="655.98" y2="802.05"/>
  <line class="st8" x1="665.34" y1="806.65" x2="660.66" y2="801.98"/>
  <line class="st8" x1="665.41" y1="802.05" x2="665.41" y2="801.98"/>
  <polyline class="st2" points="612.7 694.54 561.91 694.54 561.91 696.24 612.7 696.24 612.7 694.54"/>
  <polyline class="st7" points="638.09 694.54 614.4 694.54 614.4 697.13 638.09 697.13 638.09 694.54"/>
  <polyline class="st7" points="639.8 694.54 639.8 699.81 638.09 699.81 638.09 694.54 639.8 694.54"/>
  <polyline class="st7" points="614.4 694.54 614.4 699.81 612.7 699.81 612.7 694.54 614.4 694.54"/>
  <line class="st2" x1="560.2" y1="693.5" x2="639.8" y2="693.5"/>
  <line class="st2" x1="655.24" y1="860.48" x2="655.24" y2="861.75"/>
  <line class="st2" x1="655.24" y1="863.6" x2="655.24" y2="864.87"/>
  <line class="st2" x1="655.24" y1="866.8" x2="655.24" y2="868.06"/>
  <line class="st2" x1="655.24" y1="869.91" x2="655.24" y2="871.18"/>
  <line class="st2" x1="655.24" y1="873.11" x2="655.24" y2="874.37"/>
  <line class="st2" x1="655.24" y1="860.48" x2="655.24" y2="861.75"/>
  <line class="st2" x1="655.24" y1="863.6" x2="655.24" y2="864.87"/>
  <line class="st2" x1="655.24" y1="866.8" x2="655.24" y2="868.06"/>
  <line class="st2" x1="655.24" y1="869.91" x2="655.24" y2="871.18"/>
  <line class="st2" x1="655.24" y1="873.11" x2="655.24" y2="874.37"/>
  <line class="st2" x1="609.73" y1="877.93" x2="608.46" y2="877.93"/>
  <line class="st2" x1="606.61" y1="877.93" x2="605.35" y2="877.93"/>
  <line class="st2" x1="603.42" y1="877.93" x2="602.15" y2="877.93"/>
  <line class="st2" x1="600.3" y1="877.93" x2="599.03" y2="877.93"/>
  <line class="st2" x1="649.97" y1="860.48" x2="649.97" y2="861.75"/>
  <line class="st2" x1="649.97" y1="863.6" x2="649.97" y2="864.87"/>
  <line class="st2" x1="649.97" y1="866.8" x2="649.97" y2="868.06"/>
  <line class="st2" x1="649.97" y1="869.91" x2="649.97" y2="871.18"/>
  <line class="st2" x1="649.97" y1="873.11" x2="649.97" y2="874.37"/>
  <polyline class="st2" points="649.97 876.23 649.97 877.93 648.49 877.93"/>
  <line class="st2" x1="646.63" y1="877.93" x2="645.29" y2="877.93"/>
  <line class="st2" x1="643.44" y1="877.93" x2="642.17" y2="877.93"/>
  <line class="st2" x1="640.24" y1="877.93" x2="638.98" y2="877.93"/>
  <line class="st2" x1="637.13" y1="877.93" x2="635.86" y2="877.93"/>
  <line class="st2" x1="628.14" y1="877.93" x2="626.88" y2="877.93"/>
  <line class="st2" x1="625.02" y1="877.93" x2="623.76" y2="877.93"/>
  <line class="st2" x1="621.83" y1="877.93" x2="620.57" y2="877.93"/>
  <line class="st2" x1="618.71" y1="877.93" x2="617.45" y2="877.93"/>
  <line class="st2" x1="635.64" y1="882.46" x2="635.64" y2="890.26"/>
  <line class="st2" x1="597.7" y1="925.68" x2="569.33" y2="925.68"/>
  <path class="st2" d="M597.66,897.24c-15.69,0-28.4,12.72-28.4,28.4"/>
  <line class="st2" x1="597.7" y1="897.24" x2="597.7" y2="925.68"/>
  <line class="st2" x1="553" y1="1014.03" x2="553" y2="985.6"/>
  <path class="st2" d="M581.36,1014c0-15.69-12.72-28.4-28.4-28.4"/>
  <line class="st2" x1="581.44" y1="1014.03" x2="553" y2="1014.03"/>
  <polyline class="st7" points="600.74 935.85 621.76 935.85 621.76 1009.5 600.74 1009.5 600.74 935.85"/>
  <polyline class="st7" points="621.76 948.1 600.74 948.1 600.74 935.85 621.76 935.85 621.76 948.1"/>
  <line class="st2" x1="619.31" y1="942.16" x2="613.66" y2="942.16"/>
  <line class="st2" x1="608.76" y1="942.16" x2="603.19" y2="942.16"/>
  <line class="st2" x1="605.94" y1="944.91" x2="605.94" y2="939.34"/>
  <line class="st2" x1="616.48" y1="944.91" x2="616.48" y2="939.34"/>
  <polyline class="st7" points="604.23 1005.94 618.27 1005.94 618.27 991.91 604.23 991.91 604.23 1005.94"/>
  <polyline class="st2" points="621.76 988.42 621.76 1009.5 600.74 1009.5 600.74 988.42 621.76 988.42"/>
  <line class="st2" x1="620.2" y1="998.96" x2="614.55" y2="998.96"/>
  <polygon class="st9" points="639.8 693.5 639.8 715.55 649.97 715.55 649.97 802.05 655.24 802.05 655.24 715.55 665.41 715.55 665.41 693.5 639.8 693.5"/>
  <polyline class="st7" points="550.24 720.75 551.65 720.75 551.65 736.49 550.24 736.49"/>
  <polyline class="st7" points="551.44 737.38 551.44 719.85 552.85 719.85 552.85 737.38 551.44 737.38"/>
  <path class="st7" d="M619.64,882.34v9.25c0,.21-.13.37-.3.37h-16.85c-.21,0-.37-.17-.37-.37v-9.25"/>
  <path class="st2" d="M610.21,884.05c0,.35.28.63.63.63s.63-.28.63-.63-.28-.63-.63-.63-.63.28-.63.63"/>
  <path class="st2" d="M610.06,888.51c0,.43.35.78.78.78s.78-.35.78-.78-.35-.78-.78-.78-.78.35-.78.78"/>
  <path class="st2" d="M609.69,888.51c0,.64.52,1.15,1.15,1.15s1.15-.52,1.15-1.15-.52-1.15-1.15-1.15-1.15.52-1.15,1.15"/>
  <path class="st2" d="M602.86,885.43h16.01c.2,0,.37.17.37.37v5.42c0,.2-.17.37-.37.37h-16.01c-.2,0-.37-.17-.37-.37v-5.42c0-.2.17-.37.37-.37Z"/>
  <line class="st2" x1="599.79" y1="932" x2="601.87" y2="932"/>
  <path class="st6" d="M632.02,938.3v-10.2c0-3.93,2.82-7.1,6.31-7.1s6.31,3.18,6.31,7.1v10.2h-12.61Z"/>
  <polygon class="st7" points="650.35 938.3 626.19 938.3 626.12 949.11 650.35 949.14 650.35 938.3"/>
  <line class="st2" x1="649.97" y1="953.37" x2="625.99" y2="1010.54"/>
  <line class="st2" x1="625.99" y1="953.37" x2="649.97" y2="1010.54"/>
  <g>
    <path class="st2" d="M614.63,693.93s0-.02,0-.03"/>
    <path class="st5" d="M614.65,693.48c.28-3.08,3.06-12.16,3.78-12.16l19.23,12.9.23.16"/>
    <line class="st2" x1="638.07" y1="694.52" x2="638.09" y2="694.54"/>
  </g>
  <g>
    <rect class="st1" x="598.62" y="736.22" width="70.16" height="31.57" transform="translate(-118.31 1385.7) rotate(-90)"/>
    <rect class="st1" x="624.93" y="724.56" width="17.54" height="17.54" rx="1.42" ry="1.42" transform="translate(1267.39 1466.66) rotate(180)"/>
    <polygon class="st1" points="617.51 726.11 617.51 787.27 649.48 787.27 649.48 741.93 617.51 726.11"/>
  </g>
  <g>
    <g>
      <path class="st7" d="M572.29,827.81c0,4.55-3.93,8.24-8.77,8.24-3.56,0-7.1-2.33-8.31-5.62-.17-.45-.5-1.39-.45-2.63.15-3.87,4.01-8.24,8.77-8.24s8.77,3.69,8.77,8.24Z"/>
      <path class="st2" d="M555.91,829.65c0,2.8,3.4,5.06,7.61,5.06"/>
      <path class="st2" d="M571.13,829.65c0,2.8-3.4,5.06-7.61,5.06"/>
      <path class="st2" d="M571.13,829.65c0-.55.44-1,.98-1"/>
      <path class="st2" d="M555.91,829.65c0-.55-.47-1-1.06-1"/>
    </g>
    <g>
      <path class="st7" d="M572.29,799.51c0-4.55-3.93-8.24-8.77-8.24-3.56,0-7.1,2.33-8.31,5.62-.17.45-.5,1.39-.45,2.63.15,3.87,4.01,8.24,8.77,8.24s8.77-3.69,8.77-8.24Z"/>
      <path class="st2" d="M555.91,797.66c0-2.8,3.4-5.06,7.61-5.06"/>
      <path class="st2" d="M571.13,797.66c0-2.8-3.4-5.06-7.61-5.06"/>
      <path class="st2" d="M571.13,797.66c0,.55.44,1,.98,1"/>
      <path class="st2" d="M555.91,797.66c0,.55-.47,1-1.06,1"/>
    </g>
    <rect class="st7" x="552.12" y="800.07" width="22.8" height="25.84" transform="translate(1376.51 249.47) rotate(90)"/>
  </g>
  <g>
    <path class="st1" d="M563.3,718.84c4.94,4.06,9.87,8.13,14.81,12.19.26.12.59.02.8-.23,5.63-5.24,10.5-11.3,14.38-17.93.07-.11.06-.24-.02-.32l-1.38-1.14-13.29-11.02-15.3,18.45"/>
    <path class="st1" d="M562.36,717.8c.41.44.86.82,1.37,1.15.1.06.24.03.32-.08,5.03-5.79,9.96-11.66,14.78-17.62.11-.16.09-.36-.04-.48-.47-.46-.97-.87-1.53-1.22"/>
    <path class="st1" d="M565.69,719.56c-.3.36-1.39-.06-2.44-.93-.08-.07-.16-.14-.24-.22l-.65-.61c-.08-.09-.07-.23.02-.33l14.89-17.96,1.53,1.27c.49.42.98.85,1.47,1.27.16.23.13.57-.08.82-3.88,6.31-8.8,11.98-14.5,16.69Z"/>
    <path class="st1" d="M564.64,718.88c.27.09.54.19.79.31.33.09.65.2.96.32.43.17.85.34,1.28.5.59.23,1.15.5,1.69.83.33.2.65.41.96.64.33.24.66.48.99.72.78.58,1.52,1.2,2.24,1.86.72.67,1.37,1.39,1.98,2.17.45.59.84,1.21,1.18,1.89.21.43.29.85.24,1.36,0,.04-.02.08-.05.11l-.27.32c-.11.06-.19.08-.3.05-4.75-3.94-9.5-7.88-14.25-11.82-.08-.07-.09-.21,0-.3l.08-.1h0c.08-.1.22-.12.31-.06.22.14.44.27.66.41.28.2.57.38.88.53l.65.27Z"/>
    <path class="st1" d="M578.98,701.6c.14.25.29.49.46.72.15.31.31.6.49.88.25.39.49.78.73,1.17.33.54.71,1.04,1.13,1.5.26.29.53.56.8.83.29.28.59.56.89.84.71.66,1.46,1.28,2.24,1.86.79.58,1.62,1.09,2.49,1.54.66.34,1.35.6,2.07.81.46.13.89.12,1.38-.02.04-.01.07-.03.1-.07l.27-.32c.04-.11.04-.2,0-.3-4.75-3.94-9.5-7.88-14.25-11.82-.08-.07-.22-.05-.3.05l-.08.1h0c-.08.1-.08.24,0,.31.17.19.35.38.52.57.25.23.47.49.68.76l.38.59Z"/>
  </g>
  <circle class="st3" cx="564.83" cy="735.36" r="8.32"/>
  <polygon class="st9" points="560.2 715.47 560.2 693.5 534.59 693.5 534.59 715.4 544.76 715.43 544.76 1010.54 543.5 1010.54 543.5 1015.82 547.36 1015.82 551.22 1015.82 551.22 1010.54 550.03 1010.54 550.03 715.44 560.2 715.47"/>
  <polygon class="st9" points="649.97 813.63 649.97 877.93 595.62 877.93 595.62 895.46 599.85 895.46 599.85 882.17 649.97 882.17 649.97 949.14 625.99 949.14 625.99 930.87 599.85 930.87 599.85 927.38 595.62 927.38 595.62 935.11 621.76 935.11 621.76 1010.54 583.15 1010.54 583.15 1015.82 642.1 1015.82 642.1 1010.54 625.99 1010.54 625.99 953.37 649.97 953.37 649.97 953.67 655.24 953.67 655.24 813.63 649.97 813.63"/>
</svg>