<?xml version="1.0" encoding="UTF-8"?>
<svg id="Lag_1" xmlns="http://www.w3.org/2000/svg" version="1.1" viewBox="0 0 1200 1697.14">
  <!-- Generator: Adobe Illustrator 29.6.0, SVG Export Plug-In . SVG Version: 2.1.1 Build 207)  -->
  <defs>
    <style>
      .st0 {
        fill: #000016;
      }

      .st1 {
        fill: #dddcdc;
      }

      .st1, .st2, .st3, .st4, .st5, .st6, .st7, .st8, .st9, .st10 {
        stroke-width: .18px;
      }

      .st1, .st2, .st3, .st5, .st7, .st8, .st9, .st10 {
        stroke-linejoin: round;
      }

      .st1, .st2, .st3, .st5, .st7, .st8, .st10 {
        stroke-linecap: round;
      }

      .st1, .st3, .st5, .st6, .st8, .st9, .st10 {
        stroke: #000;
      }

      .st2, .st4 {
        stroke: #060305;
      }

      .st2, .st4, .st6, .st8, .st9 {
        fill: #fff;
      }

      .st11 {
        fill: #e8e3e0;
      }

      .st3, .st5, .st7, .st10 {
        fill: none;
      }

      .st4, .st6 {
        stroke-miterlimit: 10;
      }

      .st5 {
        stroke-dasharray: .06 .43;
      }

      .st7 {
        stroke: #767676;
      }

      .st10 {
        stroke-dasharray: .06 .42;
      }
    </style>
  </defs>
  <polygon class="st11" points="623.7 956.39 652 956.39 652 721.57 545.91 721.57 545.91 987.12 623.7 987.12 623.7 956.39"/>
  <g>
    <polyline class="st3" points="620.47 914.2 620.47 914.23 620.5 914.23"/>
    <line class="st5" x1="620.92" y1="914.23" x2="648.69" y2="914.23"/>
    <polyline class="st3" points="648.9 914.23 648.93 914.23 648.93 914.2"/>
    <line class="st5" x1="648.93" y1="913.77" x2="648.93" y2="886.01"/>
    <polyline class="st3" points="648.93 885.8 648.93 885.77 648.9 885.77"/>
    <line class="st5" x1="648.47" y1="885.77" x2="620.71" y2="885.77"/>
    <polyline class="st3" points="620.5 885.77 620.47 885.77 620.47 885.8"/>
    <line class="st5" x1="620.47" y1="886.23" x2="620.47" y2="913.99"/>
  </g>
  <path class="st6" d="M630.84,942.41v-10.34c0-3.98,2.86-7.2,6.39-7.2s6.39,3.22,6.39,7.2v10.34h-12.79Z"/>
  <polygon class="st8" points="649.43 942.41 624.93 942.41 624.86 953.37 649.43 953.4 649.43 942.41"/>
  <rect class="st8" x="631.6" y="859.82" width="17.77" height="21.38"/>
  <rect class="st8" x="612.86" y="859.82" width="17.84" height="21.38"/>
  <rect class="st8" x="594.17" y="859.82" width="17.86" height="21.38"/>
  <polyline class="st8" points="571.96 721.65 571.96 726.99 570.15 726.99 570.15 721.65 571.96 721.65"/>
  <polyline class="st8" points="614.87 721.65 571.96 721.65 571.96 723.45 614.87 723.38 614.87 721.65"/>
  <polyline class="st8" points="640.61 721.57 616.6 721.65 616.6 724.28 640.61 724.28 640.61 721.57"/>
  <polyline class="st8" points="642.42 721.57 642.42 726.92 640.61 726.92 640.61 721.57 642.42 721.57"/>
  <polyline class="st8" points="616.6 721.65 616.67 726.92 614.87 726.92 614.87 721.65 616.6 721.65"/>
  <line class="st3" x1="642.42" y1="720.52" x2="570.15" y2="720.59"/>
  <line class="st3" x1="649.35" y1="881.16" x2="647.76" y2="881.16"/>
  <line class="st3" x1="645.88" y1="881.16" x2="644.6" y2="881.16"/>
  <line class="st3" x1="642.65" y1="881.16" x2="641.37" y2="881.16"/>
  <line class="st3" x1="639.48" y1="881.16" x2="638.2" y2="881.16"/>
  <line class="st3" x1="636.25" y1="881.16" x2="634.97" y2="881.16"/>
  <line class="st3" x1="649.35" y1="863.47" x2="649.35" y2="864.75"/>
  <line class="st3" x1="649.35" y1="866.63" x2="649.35" y2="867.91"/>
  <line class="st3" x1="649.35" y1="869.87" x2="649.35" y2="871.15"/>
  <line class="st3" x1="649.35" y1="873.03" x2="649.35" y2="874.31"/>
  <line class="st3" x1="649.35" y1="876.27" x2="649.35" y2="877.55"/>
  <line class="st3" x1="649.35" y1="879.43" x2="649.35" y2="881.16"/>
  <line class="st3" x1="612.01" y1="881.16" x2="610.43" y2="881.16"/>
  <line class="st3" x1="608.54" y1="881.16" x2="607.26" y2="881.16"/>
  <line class="st3" x1="605.31" y1="881.16" x2="604.03" y2="881.16"/>
  <line class="st3" x1="602.15" y1="881.16" x2="600.87" y2="881.16"/>
  <line class="st3" x1="598.91" y1="881.16" x2="597.63" y2="881.16"/>
  <line class="st3" x1="630.68" y1="881.16" x2="629.1" y2="881.16"/>
  <line class="st3" x1="627.21" y1="881.16" x2="625.93" y2="881.16"/>
  <line class="st3" x1="623.98" y1="881.16" x2="622.7" y2="881.16"/>
  <line class="st3" x1="620.81" y1="881.16" x2="619.53" y2="881.16"/>
  <line class="st3" x1="617.58" y1="881.16" x2="616.3" y2="881.16"/>
  <path class="st8" d="M632.93,893.62c0,.98.79,1.77,1.77,1.77s1.77-.79,1.77-1.77-.79-1.77-1.77-1.77-1.77.79-1.77,1.77"/>
  <line class="st3" x1="596.35" y1="929.49" x2="567.52" y2="929.49"/>
  <path class="st3" d="M596.31,900.66c-15.9,0-28.79,12.89-28.79,28.79"/>
  <line class="st3" x1="596.35" y1="900.74" x2="596.35" y2="929.49"/>
  <line class="st3" x1="550.96" y1="987.15" x2="550.96" y2="958.32"/>
  <path class="st3" d="M579.71,987.12c0-15.9-12.89-28.79-28.79-28.79"/>
  <line class="st3" x1="579.79" y1="987.15" x2="550.96" y2="987.15"/>
  <polyline class="st8" points="599.36 939.8 620.66 939.8 620.66 982.49 599.36 982.49 599.36 939.8"/>
  <polyline class="st3" points="620.66 952.3 599.36 952.3 599.36 939.8 620.66 939.8 620.66 952.3"/>
  <line class="st3" x1="618.18" y1="946.28" x2="612.53" y2="946.28"/>
  <line class="st3" x1="607.57" y1="946.28" x2="601.84" y2="946.28"/>
  <line class="st3" x1="604.7" y1="949.06" x2="604.7" y2="943.42"/>
  <line class="st3" x1="615.32" y1="949.06" x2="615.32" y2="943.42"/>
  <polyline class="st3" points="602.9 978.95 617.13 978.95 617.13 964.72 602.9 964.72 602.9 978.95"/>
  <polyline class="st3" points="620.66 961.18 620.66 982.49 599.36 982.49 599.36 961.18 620.66 961.18"/>
  <line class="st3" x1="619.08" y1="971.87" x2="613.44" y2="971.87"/>
  <polyline class="st8" points="536.8 909.92 554.95 910.14 554.87 928.96 536.28 928.74 536.8 909.92"/>
  <line class="st7" x1="536.73" y1="912.85" x2="539.66" y2="909.92"/>
  <line class="st7" x1="536.58" y1="917.82" x2="544.41" y2="909.99"/>
  <line class="st7" x1="536.5" y1="922.72" x2="549.07" y2="910.07"/>
  <line class="st7" x1="536.35" y1="927.68" x2="553.82" y2="910.14"/>
  <line class="st7" x1="539.97" y1="928.81" x2="554.87" y2="913.83"/>
  <line class="st7" x1="544.71" y1="928.89" x2="554.87" y2="918.65"/>
  <line class="st7" x1="549.45" y1="928.96" x2="554.87" y2="923.47"/>
  <line class="st7" x1="539.81" y1="928.81" x2="536.43" y2="925.35"/>
  <line class="st7" x1="544.71" y1="928.89" x2="536.5" y2="920.68"/>
  <line class="st7" x1="549.53" y1="928.96" x2="536.65" y2="916.02"/>
  <line class="st7" x1="554.42" y1="928.96" x2="536.8" y2="911.42"/>
  <line class="st7" x1="554.87" y1="924.67" x2="540.12" y2="909.99"/>
  <line class="st7" x1="554.87" y1="919.93" x2="545.01" y2="909.99"/>
  <line class="st7" x1="554.87" y1="915.11" x2="549.83" y2="910.07"/>
  <path class="st8" d="M618.55,885.53v9.37c0,.21-.13.38-.3.38h-17.09c-.21,0-.38-.17-.38-.38v-9.37"/>
  <path class="st3" d="M608.99,887.26c0,.35.29.64.64.64s.64-.29.64-.64-.29-.64-.64-.64-.64.29-.64.64"/>
  <path class="st3" d="M608.84,891.78c0,.44.35.79.79.79s.79-.35.79-.79-.35-.79-.79-.79-.79.35-.79.79"/>
  <path class="st3" d="M608.46,891.78c0,.64.52,1.17,1.17,1.17s1.17-.52,1.17-1.17-.52-1.17-1.17-1.17-1.17.52-1.17,1.17"/>
  <path class="st3" d="M601.54,888.65h16.26c.21,0,.38.17.38.38v5.5c0,.21-.17.37-.37.37h-16.26c-.21,0-.38-.17-.38-.38v-5.5c0-.21.17-.37.37-.37Z"/>
  <line class="st3" x1="634.74" y1="885.75" x2="634.74" y2="893.66"/>
  <g>
    <path class="st3" d="M616.82,721.03s0-.02,0-.03"/>
    <path class="st10" d="M616.85,720.59c.28-3.11,3.1-12.33,3.83-12.33l19.49,13.08.24.17"/>
    <line class="st3" x1="640.59" y1="721.63" x2="640.61" y2="721.65"/>
  </g>
  <line class="st1" x1="654.69" y1="957.65" x2="624.95" y2="983.62"/>
  <line class="st1" x1="624.95" y1="957.65" x2="654.69" y2="983.62"/>
  <polygon class="st0" points="570.15 720.59 566.31 720.59 543.27 720.59 543.13 738.04 543.13 738.04 543.13 738.05 543.13 738.59 543.13 738.59 543.13 909.99 548.57 910.07 548.57 738.62 570.15 738.74 570.15 720.59"/>
  <polygon class="st0" points="547.94 983.62 547.94 928.89 542.6 928.81 542.6 931.93 542.6 942.29 542.6 948.01 542.6 971.8 542.6 988.89 545.31 988.89 549.22 988.89 549.22 983.62 547.94 983.62"/>
  <g>
    <polyline class="st9" points="649.34 741.84 647.99 741.84 647.99 750.54 649.34 750.54"/>
    <polyline class="st9" points="647.99 751.53 647.99 740.86 646.56 740.86 646.56 751.53 647.99 751.53"/>
  </g>
  <g>
    <rect class="st2" x="596.23" y="776.02" width="71.13" height="32.01" transform="translate(-160.23 1423.83) rotate(-90)"/>
    <rect class="st2" x="622.91" y="764.2" width="17.78" height="17.78" rx="1.42" ry="1.42"/>
    <polygon class="st2" points="648.21 765.77 648.21 827.78 615.79 827.78 615.79 781.81 648.21 765.77"/>
  </g>
  <g>
    <g>
      <path class="st8" d="M570.88,834.97c0,4.62-3.98,8.36-8.89,8.36-3.61,0-7.2-2.36-8.43-5.69-.17-.45-.51-1.41-.46-2.66.16-3.93,4.07-8.36,8.89-8.36s8.89,3.74,8.89,8.36Z"/>
      <path class="st3" d="M554.28,836.84c0,2.84,3.45,5.13,7.72,5.13"/>
      <path class="st3" d="M569.71,836.84c0,2.84-3.45,5.13-7.72,5.13"/>
      <path class="st3" d="M569.71,836.84c0-.56.44-1.01.99-1.01"/>
      <path class="st3" d="M554.28,836.84c0-.56-.48-1.01-1.07-1.01"/>
    </g>
    <g>
      <path class="st8" d="M570.88,806.28c0-4.62-3.98-8.36-8.89-8.36-3.61,0-7.2,2.36-8.43,5.69-.17.45-.51,1.41-.46,2.66.16,3.93,4.07,8.36,8.89,8.36s8.89-3.74,8.89-8.36Z"/>
      <path class="st3" d="M554.28,804.4c0-2.84,3.45-5.13,7.72-5.13"/>
      <path class="st3" d="M569.71,804.4c0-2.84-3.45-5.13-7.72-5.13"/>
      <path class="st3" d="M569.71,804.4c0,.56.44,1.01.99,1.01"/>
      <path class="st3" d="M554.28,804.4c0,.56-.48,1.01-1.07,1.01"/>
    </g>
    <rect class="st8" x="550.43" y="806.85" width="23.12" height="26.2" transform="translate(1381.94 257.95) rotate(90)"/>
  </g>
  <g>
    <path class="st2" d="M553.52,761.38c5.31,3.72,10.62,7.44,15.93,11.15.27.1.6-.02.79-.29,5.28-5.74,9.72-12.25,13.13-19.25.06-.12.04-.25-.05-.32l-1.48-1.05-14.3-10.09-14.01,19.85"/>
    <path class="st2" d="M552.49,760.4c.45.41.94.76,1.47,1.05.11.05.24,0,.32-.1,4.63-6.25,9.15-12.57,13.55-18.98.09-.17.06-.38-.07-.48-.51-.43-1.05-.8-1.64-1.12"/>
    <path class="st2" d="M556,761.92c-.27.39-1.41.05-2.54-.75-.09-.07-.18-.13-.26-.2l-.71-.57c-.08-.08-.09-.23,0-.34l13.64-19.33,1.64,1.16c.53.39,1.06.78,1.59,1.17.18.22.18.57-.01.84-3.43,6.69-7.95,12.8-13.34,18.01Z"/>
    <path class="st2" d="M554.88,761.31c.28.07.56.15.82.26.34.07.67.15.99.25.44.14.89.27,1.34.41.62.18,1.2.42,1.77.71.35.18.69.37,1.02.57.35.21.71.43,1.06.65.83.52,1.64,1.09,2.41,1.7.78.62,1.5,1.29,2.17,2.03.5.56.95,1.16,1.34,1.81.25.41.36.84.35,1.36,0,.04-.01.08-.04.12l-.25.35c-.1.07-.19.09-.3.07-5.11-3.61-10.23-7.22-15.34-10.82-.09-.06-.1-.2-.03-.31l.08-.11h0c.08-.1.21-.14.31-.08.23.12.47.24.7.36.3.18.6.33.93.46l.68.22Z"/>
    <path class="st2" d="M568.01,742.71c.16.24.33.47.52.69.17.3.36.58.57.85.28.37.55.75.83,1.12.38.52.8.99,1.26,1.43.28.27.58.53.88.77.32.26.64.52.97.78.77.61,1.57,1.18,2.41,1.7.84.53,1.72.98,2.64,1.36.7.29,1.41.5,2.16.65.47.09.91.05,1.4-.13.04-.02.07-.04.1-.08l.25-.35c.03-.12.02-.21-.03-.31-5.11-3.61-10.23-7.22-15.34-10.82-.09-.06-.23-.03-.3.08l-.08.11h0c-.07.11-.06.24.02.32.19.18.38.36.57.54.27.22.52.46.75.72l.44.56Z"/>
  </g>
  <circle class="st4" cx="558.85" cy="776.42" r="7.06"/>
  <polygon class="st0" points="642.42 720.52 642.42 738.74 649.35 738.74 649.35 881.16 594.17 881.16 594.17 898.93 598.46 898.93 598.46 885.45 649.35 885.45 649.35 953.35 624.95 953.35 624.95 934.84 598.46 934.84 598.46 931.3 594.17 931.3 594.17 939.13 620.66 939.13 620.66 983.62 581.59 983.62 581.59 988.89 641.29 988.89 641.29 983.62 624.95 983.62 624.95 957.65 649.35 957.65 654.69 957.65 654.69 738.74 663.72 738.74 663.72 720.52 642.42 720.52"/>
</svg>