<?xml version="1.0" encoding="UTF-8"?>
<svg id="Lag_1" xmlns="http://www.w3.org/2000/svg" version="1.1" viewBox="0 0 1200 1697.14">
  <!-- Generator: Adobe Illustrator 29.6.0, SVG Export Plug-In . SVG Version: 2.1.1 Build 207)  -->
  <defs>
    <style>
      .st0 {
        fill: #000016;
      }

      .st1 {
        stroke-dasharray: .06 .43;
      }

      .st1, .st2, .st3, .st4, .st5, .st6, .st7, .st8, .st9 {
        stroke-width: .18px;
      }

      .st1, .st2, .st3, .st4, .st5, .st7, .st8, .st9 {
        stroke-linejoin: round;
      }

      .st1, .st2, .st3, .st4, .st7, .st8 {
        stroke-linecap: round;
      }

      .st1, .st2, .st4, .st5, .st6, .st7, .st8, .st9 {
        stroke: #000;
      }

      .st1, .st2, .st4, .st5, .st7 {
        fill: none;
      }

      .st2 {
        stroke-dasharray: .06 .42;
      }

      .st3 {
        stroke: #060305;
      }

      .st3, .st6, .st8, .st9 {
        fill: #fff;
      }

      .st10 {
        fill: #e8e3e0;
      }

      .st6 {
        stroke-miterlimit: 10;
      }

      .st7 {
        stroke-dasharray: .06 .43;
      }
    </style>
  </defs>
  <polygon class="st10" points="607.68 694.79 607.69 695.48 523.91 695.75 528.07 772.26 581.89 773.28 581.89 773.24 610.08 773.02 610.34 806.17 582.82 806.39 581.95 851.93 550.26 851.33 551.18 968.72 553.88 968.58 555.15 992.06 657.45 992.06 666.71 991.56 666.71 694.79 607.68 694.79"/>
  <path class="st6" d="M536.77,763.45l10.24-.08c3.94-.03,7.11-2.89,7.09-6.39-.03-3.5-3.24-6.31-7.18-6.28l-10.24.08.09,12.67Z"/>
  <polygon class="st9" points="536.62 743.23 536.82 770.13 525.96 770.28 525.73 743.31 536.62 743.23"/>
  <polyline class="st0" points="610.77 778.72 606.59 778.73 606.58 774.47 585.45 774.43 585.44 770.25 606.58 770.29 606.6 761.1 610.86 761.1 610.77 778.72"/>
  <polyline class="st0" points="610.73 799.86 610.73 808.15 585.34 808.11 585.41 803.85 606.54 803.89 606.55 799.86 610.73 799.86"/>
  <polyline class="st8" points="610.77 778.72 610.73 799.86 609.01 799.88 609.05 778.74 610.77 778.72"/>
  <polyline class="st0" points="585.28 856.35 610.59 856.39 610.66 852.21 585.27 852.1 585.28 856.35"/>
  <polyline class="st8" points="606.52 809.05 585.39 809 585.3 851.27 606.43 851.32 606.52 809.05"/>
  <polyline class="st4" points="585.31 821.33 606.45 821.37 606.52 809.05 585.39 809 585.31 821.33"/>
  <line class="st4" x1="587.82" y1="815.29" x2="593.42" y2="815.36"/>
  <line class="st4" x1="598.35" y1="815.32" x2="604.03" y2="815.38"/>
  <line class="st4" x1="601.19" y1="818.15" x2="601.19" y2="812.55"/>
  <line class="st4" x1="590.66" y1="818.13" x2="590.66" y2="812.53"/>
  <polyline class="st4" points="602.88 847.78 588.84 847.72 588.82 833.61 602.93 833.66 602.88 847.78"/>
  <polyline class="st4" points="585.34 830.14 585.3 851.27 606.43 851.32 606.48 830.18 585.34 830.14"/>
  <line class="st4" x1="586.89" y1="840.66" x2="592.49" y2="840.73"/>
  <polyline class="st8" points="621.24 993.05 621.25 987.75 623.05 987.76 623.03 993.06 621.24 993.05"/>
  <polyline class="st8" points="654.74 993.17 654.76 987.87 656.48 987.88 656.46 993.18 654.74 993.17"/>
  <polyline class="st8" points="623.03 993.06 654.74 993.17 654.75 991.38 623.03 991.27 623.03 993.06"/>
  <polyline class="st8" points="594.82 992.96 594.84 987.66 596.63 987.66 596.61 992.96 594.82 992.96"/>
  <polyline class="st8" points="619.44 993.05 619.46 987.75 621.25 987.75 621.24 993.05 619.44 993.05"/>
  <polyline class="st8" points="619.51 993.03 596.67 992.89 596.68 991.1 619.52 991.24 619.51 993.03"/>
  <g>
    <line class="st4" x1="608" y1="759.38" x2="640.11" y2="759.43"/>
    <path class="st4" d="M608.02,727.32c17.69.03,32,14.4,31.96,32.09"/>
    <line class="st4" x1="608.04" y1="727.27" x2="608" y2="759.38"/>
  </g>
  <line class="st4" x1="656.5" y1="994.22" x2="594.86" y2="994"/>
  <rect class="st9" x="593.5" y="856.19" width="17.17" height="21.18" transform="translate(-6.78 4.75) rotate(-.45)"/>
  <rect class="st9" x="575.38" y="856.33" width="17.25" height="21.18" transform="translate(-6.78 4.6) rotate(-.45)"/>
  <rect class="st9" x="557.32" y="856.47" width="17.26" height="21.18" transform="translate(-6.78 4.46) rotate(-.45)"/>
  <rect class="st7" x="529.91" y="700.18" width="31.26" height="38.34" transform="translate(1093.42 1436.92) rotate(179.81)"/>
  <path class="st8" d="M535.93,719.34c0-.97.79-1.75,1.76-1.75.97,0,1.75.79,1.75,1.76s-.79,1.75-1.76,1.75c-.97,0-1.75-.79-1.75-1.76"/>
  <polyline class="st8" points="585.8 768.45 602.33 768.35 602.32 770.24 585.78 770.35 585.8 768.45"/>
  <polyline class="st8" points="583.64 766.55 604.77 766.6 604.78 769.43 583.64 769.39 583.64 766.55"/>
  <polyline class="st8" points="589.52 709.49 605.35 709.52 605.43 699.96 589.52 699.93 589.52 709.49"/>
  <path class="st9" d="M571.44,699.67l-.04,9.29c0,.21.13.37.3.37l16.93.07c.21,0,.37-.17.37-.37l.04-9.29"/>
  <path class="st5" d="M580.9,701.42c0,.35-.29.63-.64.63s-.63-.29-.63-.64.29-.63.64-.63.63.29.63.64"/>
  <path class="st5" d="M581.03,705.9c0,.43-.35.78-.79.78s-.78-.35-.78-.79.35-.78.79-.78.78.35.78.79"/>
  <path class="st5" d="M581.4,705.9c0,.64-.52,1.15-1.16,1.15s-1.15-.52-1.15-1.16.52-1.15,1.16-1.15,1.15.52,1.15,1.16"/>
  <path class="st5" d="M577.48,697.47h5.44c.21,0,.37.17.37.37v16.11c0,.2-.17.37-.37.37h-5.44c-.21,0-.37-.17-.37-.37v-16.11c0-.2.17-.37.37-.37Z" transform="translate(-128.18 1283.05) rotate(-89.75)"/>
  <path class="st4" d="M588.83,709.13c0,.19-.15.34-.34.33"/>
  <line class="st4" x1="588.83" y1="709.08" x2="588.87" y2="700.26"/>
  <line class="st4" x1="588.51" y1="708.72" x2="588.51" y2="703.27"/>
  <path class="st4" d="M588.18,702.99c.19,0,.34.15.33.34"/>
  <line class="st4" x1="529.88" y1="719.36" x2="537.72" y2="719.38"/>
  <g>
    <path class="st4" d="M619.5,992.97s0,.02,0,.03"/>
    <path class="st2" d="M619.52,993.42c-.01,3.1-1.93,12.42-2.63,12.48l-19.77-11.32-.24-.14"/>
    <line class="st4" x1="596.69" y1="994.33" x2="596.67" y2="994.31"/>
  </g>
  <g>
    <path class="st4" d="M611.23,778.71s.02,0,.03,0"/>
    <path class="st1" d="M611.67,778.74c2.89.26,11.26,2.72,11.26,3.36l-11.93,17.35-.14.19"/>
    <line class="st4" x1="610.74" y1="799.83" x2="610.73" y2="799.85"/>
  </g>
  <line class="st4" x1="585.45" y1="774.43" x2="606.54" y2="803.89"/>
  <line class="st4" x1="606.58" y1="774.47" x2="585.41" y2="803.85"/>
  <g>
    <line class="st4" x1="658.76" y1="694.6" x2="658.86" y2="725.08"/>
    <path class="st4" d="M629.21,694.77c.06,16.79,13.33,30.31,29.63,30.19"/>
    <line class="st4" x1="629.16" y1="694.79" x2="658.76" y2="694.6"/>
  </g>
  <g>
    <rect class="st3" x="612" y="919.41" width="70.45" height="31.7" transform="translate(1574.73 276.96) rotate(89.32)"/>
    <rect class="st3" x="638.64" y="945.21" width="17.61" height="17.61" rx="1.42" ry="1.42" transform="translate(1306.2 1900.28) rotate(179.32)"/>
    <polygon class="st3" points="631.28 961.47 630.55 900.05 662.65 899.67 663.2 945.2 631.28 961.47"/>
  </g>
  <g>
    <g>
      <path class="st8" d="M580.51,939.38c.06,4.57-3.82,8.33-8.69,8.4-3.58.05-7.16-2.24-8.43-5.52-.17-.45-.53-1.39-.49-2.63.1-3.89,3.91-8.33,8.69-8.4,4.86-.07,8.86,3.58,8.92,8.15Z"/>
      <path class="st4" d="M564.09,941.47c.04,2.81,3.49,5.03,7.71,4.97"/>
      <path class="st4" d="M579.37,941.25c.04,2.81-3.35,5.13-7.57,5.19"/>
      <path class="st4" d="M579.37,941.25c0-.55.43-1.01.97-1.02"/>
      <path class="st4" d="M564.09,941.47c0-.55-.49-1-1.08-.99"/>
    </g>
    <g>
      <path class="st8" d="M580.11,910.97c-.06-4.57-4.06-8.22-8.92-8.15-3.58.05-7.09,2.44-8.27,5.76-.16.45-.49,1.4-.42,2.65.21,3.89,4.14,8.22,8.92,8.15,4.86-.07,8.75-3.83,8.69-8.4Z"/>
      <path class="st4" d="M563.63,909.34c-.04-2.81,3.35-5.13,7.57-5.19"/>
      <path class="st4" d="M578.92,909.13c-.04-2.81-3.49-5.03-7.71-4.97"/>
      <path class="st4" d="M578.92,909.13c0,.55.45,1,1,.99"/>
      <path class="st4" d="M563.63,909.34c0,.55-.46,1.01-1.05,1.02"/>
    </g>
    <rect class="st8" x="560.05" y="911.65" width="22.9" height="25.95" transform="translate(1487.96 340.14) rotate(89.19)"/>
  </g>
  <polyline class="st4" points="666.32 696.58 669.46 696.55 669.37 691.25 663.1 691.38"/>
  <polygon class="st0" points="676.78 971.6 671.07 971.66 666.31 696.58 669.37 696.58 669.37 691.25 659.22 691.25 659.22 696.58 659.96 696.58 664.72 971.72 656.48 971.8 656.49 994.22 676.95 994.03 676.78 971.6"/>
  <polygon class="st0" points="628.37 698.69 628.35 693.39 523.15 693.98 523.15 699.78 523.16 699.78 523.05 776.4 579.07 776.57 578.96 849.98 550.88 849.94 550.6 972.27 550.6 993.83 594.77 993.91 594.82 972.26 556.94 972.26 557.2 856.31 585.28 856.35 585.44 770.25 529.43 770.08 529.52 727.32 529.52 699.21 606.57 698.84 606.62 707.95 610.8 707.94 610.75 698.83 628.37 698.69"/>
</svg>