<?xml version="1.0" encoding="UTF-8"?>
<svg id="Lag_1" xmlns="http://www.w3.org/2000/svg" version="1.1" viewBox="0 0 1200 1697.14">
  <!-- Generator: Adobe Illustrator 29.6.0, SVG Export Plug-In . SVG Version: 2.1.1 Build 207)  -->
  <defs>
    <style>
      .st0 {
        fill: #000016;
      }

      .st1 {
        stroke-dasharray: .06 .43;
      }

      .st1, .st2, .st3, .st4, .st5, .st6, .st7, .st8, .st9, .st10 {
        stroke-width: .18px;
      }

      .st1, .st2, .st3, .st5, .st6, .st7, .st9, .st10 {
        stroke-linejoin: round;
      }

      .st1, .st2, .st3, .st6, .st9 {
        stroke-linecap: round;
      }

      .st1, .st3, .st5, .st6, .st7 {
        fill: none;
      }

      .st1, .st3, .st5, .st6, .st8, .st9, .st10 {
        stroke: #000;
      }

      .st2, .st4 {
        stroke: #060305;
      }

      .st2, .st4, .st8, .st9, .st10 {
        fill: #fff;
      }

      .st11 {
        fill: #e8e3e0;
      }

      .st4, .st8 {
        stroke-miterlimit: 10;
      }

      .st6 {
        stroke-dasharray: .06 .42;
      }

      .st7 {
        stroke: #767676;
      }
    </style>
  </defs>
  <polygon class="st11" points="573.7 957.64 546.6 957.64 546.6 723.32 653.37 723.32 653.37 987.12 573.7 987.12 573.7 957.64"/>
  <g>
    <polyline class="st3" points="578.15 914.16 578.15 914.19 578.12 914.19"/>
    <line class="st1" x1="577.69" y1="914.19" x2="549.92" y2="914.19"/>
    <polyline class="st3" points="549.71 914.19 549.68 914.19 549.68 914.16"/>
    <line class="st1" x1="549.68" y1="913.74" x2="549.68" y2="885.97"/>
    <polyline class="st3" points="549.68 885.76 549.68 885.73 549.71 885.73"/>
    <line class="st1" x1="550.14" y1="885.73" x2="577.9" y2="885.73"/>
    <polyline class="st3" points="578.12 885.73 578.15 885.73 578.15 885.76"/>
    <line class="st1" x1="578.15" y1="886.19" x2="578.15" y2="913.95"/>
  </g>
  <polyline class="st10" points="549.38 748.39 550.74 748.39 550.74 764.35 549.38 764.35"/>
  <polyline class="st10" points="561.5 721.65 561.5 727 559.69 727 559.69 721.65 561.5 721.65"/>
  <polyline class="st5" points="612.83 721.65 561.5 721.65 561.5 723.46 612.83 723.38 612.83 721.65"/>
  <polyline class="st10" points="638.65 721.58 614.57 721.65 614.57 724.29 638.65 724.29 638.65 721.58"/>
  <polyline class="st10" points="640.39 721.58 640.46 726.92 638.65 726.92 638.65 721.58 640.39 721.58"/>
  <polyline class="st10" points="614.57 721.65 614.57 727 612.83 727 612.83 721.65 614.57 721.65"/>
  <line class="st5" x1="559.58" y1="720.52" x2="641.49" y2="720.45"/>
  <path class="st10" d="M565.65,893.6c0-.98-.79-1.77-1.77-1.77s-1.77.79-1.77,1.77.79,1.77,1.77,1.77,1.77-.79,1.77-1.77"/>
  <line class="st5" x1="602.32" y1="929.48" x2="631.15" y2="929.48"/>
  <path class="st5" d="M631.08,929.44c0-15.91-12.89-28.8-28.8-28.8"/>
  <line class="st5" x1="602.32" y1="900.71" x2="602.32" y2="929.48"/>
  <line class="st5" x1="647.72" y1="987.15" x2="647.72" y2="958.32"/>
  <path class="st5" d="M647.68,958.32c-15.91,0-28.8,12.89-28.8,28.8"/>
  <line class="st5" x1="618.88" y1="987.15" x2="647.72" y2="987.15"/>
  <polyline class="st10" points="599.3 939.79 577.99 939.79 577.99 982.49 599.3 982.49 599.3 939.79"/>
  <polyline class="st5" points="577.99 952.29 599.3 952.29 599.3 939.79 577.99 939.79 577.99 952.29"/>
  <line class="st5" x1="580.48" y1="946.27" x2="586.13" y2="946.27"/>
  <line class="st5" x1="591.17" y1="946.27" x2="596.82" y2="946.27"/>
  <line class="st5" x1="593.96" y1="949.05" x2="593.96" y2="943.41"/>
  <line class="st5" x1="583.34" y1="949.05" x2="583.34" y2="943.41"/>
  <polyline class="st5" points="595.76 978.95 581.53 978.95 581.53 964.72 595.76 964.72 595.76 978.95"/>
  <polyline class="st5" points="577.99 961.18 577.99 982.49 599.3 982.49 599.3 961.18 577.99 961.18"/>
  <line class="st5" x1="579.58" y1="971.87" x2="585.3" y2="971.87"/>
  <polyline class="st10" points="647.19 913.14 658.86 913.21 658.94 924.96 647.19 924.88 647.19 913.14"/>
  <line class="st7" x1="647.19" y1="917.51" x2="651.48" y2="913.14"/>
  <line class="st7" x1="647.19" y1="922.25" x2="656.3" y2="913.21"/>
  <line class="st7" x1="649.38" y1="924.88" x2="658.94" y2="915.32"/>
  <line class="st7" x1="654.12" y1="924.96" x2="658.94" y2="920.14"/>
  <line class="st7" x1="651.03" y1="924.88" x2="647.19" y2="921.04"/>
  <line class="st7" x1="655.85" y1="924.96" x2="647.19" y2="916.23"/>
  <line class="st7" x1="658.94" y1="923.23" x2="648.85" y2="913.14"/>
  <line class="st7" x1="658.94" y1="918.41" x2="653.67" y2="913.21"/>
  <polyline class="st10" points="550.74 765.26 550.74 747.41 552.17 747.41 552.17 765.26 550.74 765.26"/>
  <path class="st8" d="M567.77,942.39v-10.34c0-3.98-2.86-7.2-6.4-7.2-3.53,0-6.39,3.22-6.39,7.2v10.34s12.79,0,12.79,0Z"/>
  <polygon class="st10" points="549.18 942.39 573.69 942.39 573.75 953.35 549.18 953.38 549.18 942.39"/>
  <rect class="st10" x="549.24" y="859.77" width="17.77" height="21.38" transform="translate(1116.25 1740.93) rotate(-180)"/>
  <rect class="st10" x="567.92" y="859.77" width="17.85" height="21.38" transform="translate(1153.68 1740.93) rotate(-180)"/>
  <rect class="st10" x="586.59" y="859.77" width="17.86" height="21.38" transform="translate(1191.04 1740.93) rotate(-180)"/>
  <path class="st10" d="M580.07,885.49v9.38c0,.21.13.38.3.38h17.09c.21,0,.38-.17.38-.38v-9.38"/>
  <path class="st5" d="M589.63,887.22c0,.35-.29.64-.64.64s-.64-.29-.64-.64c0-.35.29-.64.64-.64s.64.29.64.64"/>
  <path class="st5" d="M589.78,891.74c0,.44-.35.79-.79.79s-.79-.35-.79-.79c0-.44.35-.79.79-.79s.79.35.79.79"/>
  <path class="st5" d="M590.16,891.74c0,.64-.52,1.17-1.17,1.17s-1.17-.52-1.17-1.17c0-.64.52-1.17,1.17-1.17s1.17.52,1.17,1.17"/>
  <path class="st5" d="M580.82,888.61h16.27c.21,0,.38.17.38.38v5.5c0,.21-.17.37-.37.37h-16.27c-.21,0-.37-.17-.37-.37v-5.5c0-.21.17-.38.38-.38Z"/>
  <line class="st5" x1="563.91" y1="885.73" x2="563.91" y2="893.64"/>
  <g>
    <path class="st3" d="M614.26,721.04s0-.02,0-.03"/>
    <path class="st6" d="M614.29,720.59c.29-3.11,3.11-12.33,3.84-12.33l19.55,13.09.24.17"/>
    <line class="st3" x1="638.1" y1="721.63" x2="638.12" y2="721.65"/>
  </g>
  <polygon class="st0" points="653.37 988.89 657.28 988.89 657.28 983.62 656.08 983.62 656.08 924.96 650.73 924.88 650.73 983.62 649.45 983.62 649.45 988.89 653.37 988.89"/>
  <line class="st5" x1="573.7" y1="957.64" x2="544.04" y2="983.62"/>
  <line class="st5" x1="544.04" y1="957.64" x2="573.7" y2="983.62"/>
  <g>
    <rect class="st2" x="597.8" y="763.21" width="71.15" height="32.02" transform="translate(-145.84 1412.6) rotate(-90)"/>
    <rect class="st2" x="624.48" y="751.38" width="17.79" height="17.79" rx="1.42" ry="1.42"/>
    <polygon class="st2" points="649.79 752.95 649.79 814.98 617.37 814.98 617.37 769 649.79 752.95"/>
  </g>
  <g>
    <g>
      <path class="st9" d="M572.17,831.49c0,4.62-3.98,8.36-8.89,8.36-3.62,0-7.2-2.36-8.43-5.69-.17-.45-.51-1.41-.46-2.67.16-3.93,4.07-8.36,8.89-8.36s8.89,3.74,8.89,8.36Z"/>
      <path class="st3" d="M555.55,833.36c0,2.84,3.45,5.13,7.72,5.13"/>
      <path class="st3" d="M570.99,833.36c0,2.84-3.45,5.13-7.72,5.13"/>
      <path class="st3" d="M570.99,833.36c0-.56.44-1.01.99-1.01"/>
      <path class="st3" d="M555.55,833.36c0-.56-.48-1.01-1.07-1.01"/>
    </g>
    <g>
      <path class="st9" d="M572.17,802.79c0-4.62-3.98-8.36-8.89-8.36-3.62,0-7.2,2.36-8.43,5.69-.17.45-.51,1.41-.46,2.67.16,3.93,4.07,8.36,8.89,8.36,4.91,0,8.89-3.74,8.89-8.36Z"/>
      <path class="st3" d="M555.55,800.92c0-2.84,3.45-5.13,7.72-5.13"/>
      <path class="st3" d="M570.99,800.92c0-2.84-3.45-5.13-7.72-5.13"/>
      <path class="st3" d="M570.99,800.92c0,.56.44,1.01.99,1.01"/>
      <path class="st3" d="M555.55,800.92c0,.56-.48,1.01-1.07,1.01"/>
    </g>
    <rect class="st9" x="551.71" y="803.36" width="23.12" height="26.21" transform="translate(1379.74 253.19) rotate(90)"/>
  </g>
  <g>
    <path class="st2" d="M561.91,746.88c5.31,3.72,10.62,7.44,15.93,11.16.27.1.6-.02.79-.29,5.28-5.74,9.72-12.26,13.13-19.26.06-.12.04-.25-.05-.32l-1.48-1.05-14.3-10.09-14.01,19.86"/>
    <path class="st2" d="M560.87,745.9c.45.41.94.76,1.47,1.05.11.05.24,0,.32-.1,4.63-6.25,9.15-12.57,13.56-18.98.09-.17.06-.38-.07-.48-.51-.43-1.05-.8-1.64-1.12"/>
    <path class="st2" d="M564.38,747.42c-.27.39-1.41.05-2.54-.75-.09-.07-.18-.13-.26-.2l-.71-.57c-.08-.08-.09-.23,0-.34l13.64-19.33,1.64,1.16c.53.39,1.06.78,1.59,1.17.18.22.18.57-.01.84-3.43,6.69-7.96,12.8-13.34,18.02Z"/>
    <path class="st2" d="M563.27,746.81c.28.07.56.15.82.26.34.07.67.15.99.25.44.14.89.27,1.34.41.62.18,1.2.42,1.77.71.35.18.69.37,1.02.57.35.21.71.43,1.06.65.83.52,1.64,1.09,2.41,1.7.78.62,1.5,1.29,2.17,2.03.5.56.95,1.16,1.34,1.82.25.41.36.84.35,1.36,0,.04-.01.08-.04.12l-.25.35c-.1.07-.19.09-.3.07-5.11-3.61-10.23-7.22-15.34-10.83-.09-.06-.1-.2-.03-.31l.08-.11h0c.08-.1.21-.14.31-.08.23.12.47.24.7.36.3.18.6.33.93.46l.68.22Z"/>
    <path class="st2" d="M576.4,728.21c.16.24.33.47.52.69.17.3.36.58.57.85.28.37.55.75.83,1.12.38.52.8.99,1.26,1.43.28.27.58.53.88.77.32.26.64.52.97.78.77.61,1.57,1.18,2.41,1.7.84.53,1.72.98,2.64,1.36.7.29,1.41.5,2.16.65.47.09.91.05,1.4-.13.04-.02.07-.04.1-.08l.25-.35c.03-.12.02-.21-.03-.31-5.11-3.61-10.23-7.22-15.34-10.83-.09-.06-.23-.03-.3.08l-.08.11h0c-.07.11-.06.24.02.32.19.18.38.36.57.54.27.22.52.46.75.72l.44.56Z"/>
  </g>
  <circle class="st4" cx="562.11" cy="761" r="7.06"/>
  <polygon class="st0" points="666.39 720.38 640.42 720.46 640.42 744.1 647.64 744.17 647.64 762.47 650.73 762.45 650.73 913.14 656.08 913.21 656.08 762.42 659.24 762.4 659.16 744.02 666.39 744.02 666.39 720.38"/>
  <polygon class="st0" points="577.99 983.62 577.99 939.12 604.5 939.12 604.5 931.29 600.21 931.29 600.21 934.82 573.7 934.82 573.7 953.35 549.38 953.35 549.38 885.43 600.21 885.43 600.21 898.91 604.5 898.91 604.5 881.14 549.38 881.14 549.38 742.7 559.58 742.7 559.58 720.52 533.61 720.52 533.61 742.7 544.04 742.7 544.04 957.64 549.38 957.64 573.7 957.64 573.7 983.62 557.36 983.62 557.36 988.89 617.15 988.89 617.15 983.62 577.99 983.62"/>
</svg>