<?xml version="1.0" encoding="UTF-8"?>
<svg id="Lag_1" xmlns="http://www.w3.org/2000/svg" version="1.1" viewBox="0 0 1200 1697.14">
  <!-- Generator: Adobe Illustrator 29.6.0, SVG Export Plug-In . SVG Version: 2.1.1 Build 207)  -->
  <defs>
    <style>
      .st0 {
        fill: #000016;
      }

      .st1, .st2, .st3, .st4, .st5, .st6, .st7, .st8, .st9, .st10 {
        stroke-width: .18px;
      }

      .st1, .st2, .st3, .st5, .st7, .st8, .st9, .st10 {
        stroke-linejoin: round;
      }

      .st1, .st2, .st3, .st7, .st8, .st9 {
        stroke-linecap: round;
      }

      .st1, .st4 {
        stroke: #060305;
      }

      .st1, .st4, .st6, .st9, .st10 {
        fill: #fff;
      }

      .st11 {
        fill: #e8e3e0;
      }

      .st2 {
        stroke-dasharray: .06 .42;
      }

      .st2, .st3, .st5, .st6, .st8, .st9, .st10 {
        stroke: #000;
      }

      .st2, .st3, .st5, .st7, .st8 {
        fill: none;
      }

      .st4, .st6 {
        stroke-miterlimit: 10;
      }

      .st7 {
        stroke: #767676;
      }

      .st8 {
        stroke-dasharray: .06 .43;
      }
    </style>
  </defs>
  <polygon class="st11" points="652.25 900.77 642.45 721.31 540.88 721.31 540.88 952.18 567.39 952.18 567.39 982.13 658.61 982.13 658.61 900.43 652.25 900.77"/>
  <g>
    <polyline class="st3" points="570.46 910.16 570.46 910.19 570.43 910.19"/>
    <line class="st8" x1="570" y1="910.19" x2="542.63" y2="910.19"/>
    <polyline class="st3" points="542.41 910.19 542.38 910.19 542.38 910.16"/>
    <line class="st8" x1="542.38" y1="909.74" x2="542.38" y2="882.36"/>
    <polyline class="st3" points="542.38 882.14 542.38 882.12 542.41 882.12"/>
    <line class="st8" x1="542.84" y1="882.12" x2="570.22" y2="882.12"/>
    <polyline class="st3" points="570.43 882.12 570.46 882.12 570.46 882.14"/>
    <line class="st8" x1="570.46" y1="882.57" x2="570.46" y2="909.95"/>
  </g>
  <polyline class="st10" points="542.09 746.63 543.42 746.63 543.42 762.38 542.09 762.38"/>
  <polyline class="st10" points="601.83 720.05 551.1 720.05 551.1 721.83 601.83 721.76 601.83 720.05"/>
  <polyline class="st10" points="627.23 719.98 603.54 720.05 603.54 722.65 627.23 722.65 627.23 719.98"/>
  <polyline class="st10" points="628.94 719.98 629.01 725.25 627.23 725.25 627.23 719.98 628.94 719.98"/>
  <polyline class="st10" points="603.54 720.05 603.54 725.33 601.83 725.33 601.83 720.05 603.54 720.05"/>
  <line class="st5" x1="549.31" y1="718.94" x2="628.94" y2="718.86"/>
  <path class="st10" d="M558.13,889.88c0-.96-.78-1.75-1.75-1.75s-1.75.78-1.75,1.75.78,1.75,1.75,1.75,1.75-.78,1.75-1.75"/>
  <line class="st5" x1="594.3" y1="925.27" x2="622.75" y2="925.27"/>
  <path class="st5" d="M622.68,925.23c0-15.69-12.72-28.41-28.41-28.41"/>
  <line class="st5" x1="594.3" y1="896.9" x2="594.3" y2="925.27"/>
  <path class="st5" d="M639.05,953.72c-15.69,0-28.41,12.72-28.41,28.41h28.41v-28.41Z"/>
  <polyline class="st10" points="591.33 935.45 570.31 935.45 570.31 977.56 591.33 977.56 591.33 935.45"/>
  <polyline class="st5" points="570.31 947.78 591.33 947.78 591.33 935.45 570.31 935.45 570.31 947.78"/>
  <line class="st5" x1="572.76" y1="941.83" x2="578.33" y2="941.83"/>
  <line class="st5" x1="583.31" y1="941.83" x2="588.88" y2="941.83"/>
  <line class="st5" x1="586.06" y1="944.58" x2="586.06" y2="939.01"/>
  <line class="st5" x1="575.59" y1="944.58" x2="575.59" y2="939.01"/>
  <polyline class="st5" points="587.84 974.07 573.8 974.07 573.8 960.03 587.84 960.03 587.84 974.07"/>
  <polyline class="st5" points="570.31 956.54 570.31 977.56 591.33 977.56 591.33 956.54 570.31 956.54"/>
  <line class="st5" x1="571.87" y1="967.09" x2="577.52" y2="967.09"/>
  <polyline class="st10" points="543.42 763.27 543.42 745.67 544.83 745.67 544.83 763.27 543.42 763.27"/>
  <path class="st6" d="M560.23,938v-10.2c0-3.93-2.82-7.1-6.31-7.1-3.49,0-6.31,3.18-6.31,7.1v10.2s12.62,0,12.62,0Z"/>
  <polygon class="st10" points="541.89 938 566.06 938 566.13 948.82 541.89 948.85 541.89 938"/>
  <rect class="st10" x="541.95" y="856.51" width="17.53" height="21.09" transform="translate(1101.43 1734.11) rotate(-180)"/>
  <rect class="st10" x="560.37" y="856.51" width="17.6" height="21.09" transform="translate(1138.34 1734.11) rotate(-180)"/>
  <rect class="st10" x="578.79" y="856.51" width="17.62" height="21.09" transform="translate(1175.2 1734.11) rotate(-180)"/>
  <path class="st10" d="M572.35,881.87v9.25c0,.21.13.37.3.37h16.86c.21,0,.37-.17.37-.37v-9.25"/>
  <path class="st5" d="M581.79,883.58c0,.35-.28.63-.63.63s-.63-.28-.63-.63c0-.35.28-.63.63-.63s.63.28.63.63"/>
  <path class="st5" d="M581.94,888.04c0,.43-.35.78-.78.78s-.78-.35-.78-.78c0-.43.35-.78.78-.78s.78.35.78.78"/>
  <path class="st5" d="M582.31,888.04c0,.64-.52,1.15-1.15,1.15s-1.15-.52-1.15-1.15c0-.64.52-1.15,1.15-1.15s1.15.52,1.15,1.15"/>
  <path class="st5" d="M573.09,884.96h16.05c.2,0,.37.17.37.37v5.43c0,.2-.17.37-.37.37h-16.05c-.2,0-.37-.17-.37-.37v-5.42c0-.2.17-.37.37-.37Z"/>
  <line class="st5" x1="556.42" y1="882.12" x2="556.42" y2="889.91"/>
  <g>
    <path class="st3" d="M603.65,719.45s0-.02,0-.03"/>
    <path class="st2" d="M603.67,719c.28-3.08,3.06-12.16,3.78-12.16l19.24,12.91.23.16"/>
    <line class="st3" x1="627.09" y1="720.04" x2="627.12" y2="720.05"/>
  </g>
  <line class="st5" x1="566.08" y1="953.05" x2="536.81" y2="978.68"/>
  <line class="st5" x1="536.81" y1="953.05" x2="566.08" y2="978.68"/>
  <polygon class="st0" points="530.8 718.93 551 718.93 551 737.28 542.09 737.31 542.09 877.58 596.46 877.58 596.46 895.11 592.22 895.11 592.22 881.82 542.09 881.82 542.09 948.82 566.08 948.82 566.08 930.54 592.22 930.54 592.22 927.05 596.46 927.05 596.46 934.78 570.31 934.78 570.31 978.68 608.94 978.68 608.94 983.87 549.96 983.87 549.96 978.68 566.08 978.68 566.08 953.05 542.09 953.05 536.81 953.05 536.81 737.33 530.8 737.35 530.8 718.93"/>
  <g>
    <g>
      <path class="st9" d="M564.66,824.27c0,4.55-3.93,8.25-8.77,8.25-3.57,0-7.1-2.33-8.32-5.62-.17-.45-.5-1.39-.46-2.63.15-3.87,4.01-8.25,8.77-8.25s8.77,3.69,8.77,8.25Z"/>
      <path class="st3" d="M548.27,826.12c0,2.8,3.41,5.06,7.61,5.06"/>
      <path class="st3" d="M563.5,826.12c0,2.8-3.41,5.06-7.61,5.06"/>
      <path class="st3" d="M563.5,826.12c0-.55.44-1,.98-1"/>
      <path class="st3" d="M548.27,826.12c0-.55-.47-1-1.06-1"/>
    </g>
    <g>
      <path class="st9" d="M564.66,795.96c0-4.55-3.93-8.25-8.77-8.25-3.57,0-7.1,2.33-8.32,5.62-.17.45-.5,1.39-.46,2.63.15,3.87,4.01,8.25,8.77,8.25,4.84,0,8.77-3.69,8.77-8.25Z"/>
      <path class="st3" d="M548.27,794.11c0-2.8,3.41-5.06,7.61-5.06"/>
      <path class="st3" d="M563.5,794.11c0-2.8-3.41-5.06-7.61-5.06"/>
      <path class="st3" d="M563.5,794.11c0,.55.44,1,.98,1"/>
      <path class="st3" d="M548.27,794.11c0,.55-.47,1-1.06,1"/>
    </g>
    <rect class="st9" x="544.48" y="796.52" width="22.81" height="25.85" transform="translate(1365.33 253.56) rotate(90)"/>
  </g>
  <g>
    <path class="st1" d="M554.54,745.76c5.24,3.67,10.48,7.34,15.72,11,.27.1.59-.02.78-.29,5.21-5.67,9.59-12.09,12.95-19,.06-.11.04-.24-.05-.32l-1.46-1.03-14.11-9.96-13.82,19.59"/>
    <path class="st1" d="M553.52,744.79c.45.4.93.75,1.45,1.04.1.05.24,0,.32-.1,4.57-6.16,9.03-12.4,13.37-18.72.09-.17.06-.37-.07-.47-.5-.42-1.04-.79-1.62-1.1"/>
    <path class="st1" d="M556.98,746.29c-.27.38-1.39.05-2.51-.74-.09-.07-.17-.13-.26-.2l-.7-.56c-.08-.08-.09-.22,0-.33l13.46-19.07,1.62,1.15c.52.38,1.04.77,1.57,1.15.18.22.18.56-.01.83-3.38,6.6-7.85,12.63-13.16,17.77Z"/>
    <path class="st1" d="M555.88,745.69c.28.07.55.15.81.25.33.06.66.15.98.25.44.14.88.27,1.32.4.61.18,1.19.41,1.75.7.34.18.68.36,1.01.56.35.21.7.42,1.04.64.82.52,1.61,1.07,2.38,1.68.77.61,1.48,1.27,2.14,2.01.5.55.93,1.14,1.32,1.79.24.41.35.83.34,1.34,0,.04-.01.08-.04.12l-.24.34c-.1.07-.19.09-.3.07-5.04-3.56-10.09-7.12-15.13-10.68-.09-.06-.1-.2-.03-.3l.07-.11h0c.08-.1.21-.14.3-.08.23.12.46.24.69.36.29.18.59.33.91.46l.67.22Z"/>
    <path class="st1" d="M568.83,727.34c.16.24.33.47.51.68.17.29.36.57.56.84.27.37.55.74.82,1.11.37.51.79.98,1.24,1.41.28.26.57.52.87.76.32.26.63.51.95.77.76.6,1.55,1.16,2.38,1.68.83.52,1.7.97,2.61,1.34.69.28,1.39.5,2.13.65.47.09.9.05,1.38-.13.04-.02.07-.04.1-.08l.24-.34c.03-.12.02-.21-.03-.3-5.04-3.56-10.09-7.12-15.13-10.68-.09-.06-.22-.03-.3.07l-.07.11h0c-.07.11-.06.24.02.31.19.18.38.35.57.53.27.21.51.45.74.71l.43.56Z"/>
  </g>
  <circle class="st4" cx="554.74" cy="759.69" r="6.97"/>
  <polygon class="st0" points="661.06 989.92 657.72 933.92 652.67 934.23 651.76 922.34 650.72 922.35 654.04 978.35 643.98 978.36 643.96 978.35 642.61 978.35 642.6 983.55 646.74 983.55 643.99 983.56 654.35 983.55 654.75 990.3 661.06 989.92"/>
  <g>
    <polyline class="st9" points="642.16 911.83 651.07 912.06 650.55 895.64 663.18 895.2 664.59 922.83 668.6 922.61 669.2 933.97 652.71 934.94 651.82 923.05 642.16 922.75 642.16 911.83"/>
    <line class="st7" x1="650.63" y1="898.02" x2="653.15" y2="895.57"/>
    <line class="st7" x1="650.78" y1="902.62" x2="658.05" y2="895.35"/>
    <line class="st7" x1="642.16" y1="915.92" x2="646.17" y2="911.98"/>
    <line class="st7" x1="650.92" y1="907.23" x2="662.96" y2="895.2"/>
    <line class="st7" x1="642.16" y1="920.67" x2="650.78" y2="912.06"/>
    <line class="st7" x1="651.07" y1="911.83" x2="663.4" y2="899.43"/>
    <line class="st7" x1="644.76" y1="922.83" x2="663.63" y2="903.96"/>
    <line class="st7" x1="649.29" y1="922.98" x2="663.85" y2="908.42"/>
    <line class="st7" x1="651.96" y1="925.06" x2="664.07" y2="912.95"/>
    <line class="st7" x1="652.26" y1="929.51" x2="664.37" y2="917.41"/>
    <line class="st7" x1="652.63" y1="933.9" x2="664.59" y2="921.94"/>
    <line class="st7" x1="656.49" y1="934.71" x2="668.6" y2="922.61"/>
    <line class="st7" x1="661.47" y1="934.42" x2="668.82" y2="927.14"/>
    <line class="st7" x1="666.52" y1="934.12" x2="669.05" y2="931.59"/>
    <line class="st7" x1="656.94" y1="934.71" x2="652.34" y2="930.11"/>
    <line class="st7" x1="645.06" y1="922.83" x2="642.16" y2="919.93"/>
    <line class="st7" x1="661.4" y1="934.42" x2="651.96" y2="924.98"/>
    <line class="st7" x1="649.96" y1="922.98" x2="642.16" y2="915.25"/>
    <line class="st7" x1="665.85" y1="934.19" x2="643.57" y2="911.91"/>
    <line class="st7" x1="669.12" y1="932.71" x2="648.4" y2="911.98"/>
    <line class="st7" x1="668.82" y1="927.73" x2="651" y2="909.83"/>
    <line class="st7" x1="664.37" y1="918.52" x2="650.85" y2="905"/>
    <line class="st7" x1="664.15" y1="913.54" x2="650.7" y2="900.1"/>
    <line class="st7" x1="663.85" y1="908.57" x2="650.92" y2="895.64"/>
    <line class="st7" x1="663.63" y1="903.59" x2="655.53" y2="895.49"/>
    <line class="st7" x1="663.33" y1="898.61" x2="660.06" y2="895.27"/>
  </g>
  <polygon class="st0" points="655.53 895.49 647.51 755.63 646.94 755.64 647.47 755.62 646.79 738.61 649.29 738.55 654.79 738.4 653.81 718.86 630.5 718.86 628.94 718.86 628.94 742.48 640.45 742.56 650.18 912.06 651.07 912.06 650.55 895.64 655.53 895.49"/>
  <g>
    <rect class="st1" x="590.97" y="763.47" width="70.18" height="31.58" transform="translate(-115.14 1449.95) rotate(-93.36)"/>
    <rect class="st1" x="616.19" y="751.83" width="17.55" height="17.55" rx="1.42" ry="1.42" transform="translate(1293.46 1483.25) rotate(176.64)"/>
    <polygon class="st1" points="608.37 754.34 611.96 815.42 643.89 813.55 641.23 768.27 608.37 754.34"/>
  </g>
</svg>