<?xml version="1.0" encoding="UTF-8"?>
<svg id="Lag_1" xmlns="http://www.w3.org/2000/svg" version="1.1" viewBox="0 0 1200 1697.14">
  <!-- Generator: Adobe Illustrator 29.6.0, SVG Export Plug-In . SVG Version: 2.1.1 Build 207)  -->
  <defs>
    <style>
      .st0 {
        fill: #000016;
      }

      .st1, .st2, .st3, .st4, .st5, .st6, .st7, .st8, .st9, .st10, .st11, .st12, .st13, .st14, .st15 {
        stroke-linejoin: round;
      }

      .st1, .st2, .st3, .st4, .st5, .st7, .st8, .st9, .st10, .st11, .st13, .st14, .st15 {
        stroke-linecap: round;
      }

      .st1, .st2, .st16, .st6, .st7, .st17, .st9, .st12, .st15 {
        stroke-width: .18px;
      }

      .st1, .st16 {
        stroke: #060305;
      }

      .st1, .st16, .st5, .st17, .st9, .st10, .st11, .st12 {
        fill: #fff;
      }

      .st18 {
        fill: #e8e3e0;
      }

      .st2, .st3, .st4, .st5, .st6, .st7, .st17, .st8, .st9, .st10, .st11, .st12, .st13, .st14, .st15 {
        stroke: #000;
      }

      .st2, .st3, .st4, .st6, .st7, .st8, .st13, .st14, .st15 {
        fill: none;
      }

      .st3, .st8, .st10 {
        stroke-width: .24px;
      }

      .st4, .st11 {
        stroke-width: .24px;
      }

      .st16, .st17 {
        stroke-miterlimit: 10;
      }

      .st5, .st13 {
        stroke-width: .12px;
      }

      .st7 {
        stroke-dasharray: .06 .42;
      }

      .st8 {
        stroke-dasharray: .06 .43;
      }

      .st14 {
        stroke-width: .12px;
      }

      .st15 {
        stroke-dasharray: .06 .43;
      }
    </style>
  </defs>
  <polygon class="st18" points="683.76 722.93 599.98 724.28 599.03 664.75 534.98 662.5 522.42 1020.62 623.43 1024.16 623.48 1022.86 651.2 1023.83 651.16 1025.13 658.04 1025.38 659.06 996.31 661.75 996.41 660.41 879 628.73 880.22 626.99 834.69 599.47 835.01 599.09 801.86 627.27 801.54 627.27 801.57 681.07 799.51 683.76 722.93"/>
  <path class="st17" d="M672.2,790.87l-10.24.12c-3.94.05-7.17-2.75-7.21-6.25-.04-3.5,3.11-6.37,7.06-6.42l10.24-.12.15,12.67Z"/>
  <polygon class="st12" points="671.96 770.66 672.28 797.55 683.14 797.5 682.85 770.53 671.96 770.66"/>
  <polygon class="st0" points="605.25 666.42 605.1 660.07 542.22 661.44 542.2 662.04 541.68 674.85 556.15 674.84 555.99 667.52 595.49 666.63 595.78 681.01 601.01 680.88 600.79 666.51 605.25 666.42"/>
  <polyline class="st0" points="598.5 807.57 602.68 807.5 602.61 803.24 623.74 802.79 623.66 798.61 602.53 799.06 602.33 789.88 598.08 789.95 598.5 807.57"/>
  <polyline class="st0" points="598.95 828.71 599.11 836.99 624.5 836.47 624.35 832.21 603.22 832.66 603.14 828.63 598.95 828.71"/>
  <polyline class="st5" points="598.5 807.57 598.95 828.71 600.67 828.69 600.22 807.56 598.5 807.57"/>
  <polyline class="st0" points="625.49 884.7 600.18 885.23 600.03 881.05 625.42 880.45 625.49 884.7"/>
  <polyline class="st10" points="603.34 837.81 624.47 837.36 625.37 879.63 604.24 880.08 603.34 837.81"/>
  <polyline class="st3" points="624.78 849.68 603.65 850.14 603.34 837.81 624.47 837.36 624.78 849.68"/>
  <line class="st3" x1="622.16" y1="843.7" x2="616.55" y2="843.87"/>
  <line class="st3" x1="611.63" y1="843.92" x2="605.95" y2="844.1"/>
  <line class="st3" x1="608.84" y1="846.81" x2="608.74" y2="841.21"/>
  <line class="st3" x1="619.37" y1="846.58" x2="619.27" y2="840.98"/>
  <polyline class="st3" points="607.73 876.47 621.76 876.14 621.51 862.03 607.4 862.36 607.73 876.47"/>
  <polyline class="st3" points="624.92 858.49 625.37 879.63 604.24 880.08 603.79 858.95 624.92 858.49"/>
  <line class="st3" x1="623.58" y1="869.04" x2="617.98" y2="869.22"/>
  <polyline class="st5" points="621.64 1024.25 621.6 1018.95 619.81 1018.96 619.85 1024.26 621.64 1024.25"/>
  <polyline class="st5" points="588.13 1024.49 588.09 1019.19 586.38 1019.2 586.41 1024.5 588.13 1024.49"/>
  <polyline class="st5" points="619.85 1024.26 588.13 1024.49 588.12 1022.7 619.84 1022.47 619.85 1024.26"/>
  <polyline class="st5" points="648.06 1024.06 648.02 1018.76 646.23 1018.77 646.27 1024.07 648.06 1024.06"/>
  <polyline class="st5" points="623.43 1024.24 623.39 1018.94 621.6 1018.95 621.64 1024.25 623.43 1024.24"/>
  <polyline class="st5" points="623.43 1024.24 646.27 1024.07 646.26 1022.28 623.42 1022.44 623.43 1024.24"/>
  <g>
    <line class="st13" x1="600.9" y1="788.18" x2="568.79" y2="788.85"/>
    <path class="st14" d="M600.26,756.13c-17.68.38-31.72,15.02-31.34,32.7"/>
    <line class="st13" x1="600.24" y1="756.08" x2="600.9" y2="788.18"/>
  </g>
  <line class="st3" x1="586.38" y1="1025.55" x2="648.02" y2="1025.1"/>
  <rect class="st12" x="600.3" y="884.86" width="17.17" height="21.18" transform="translate(1227.99 1783.87) rotate(179.34)"/>
  <rect class="st12" x="618.34" y="884.66" width="17.25" height="21.18" transform="translate(1264.16 1783.24) rotate(179.34)"/>
  <rect class="st12" x="636.39" y="884.45" width="17.26" height="21.18" transform="translate(1300.26 1782.62) rotate(179.34)"/>
  <rect class="st8" x="646.95" y="727.77" width="31.26" height="38.35" transform="translate(-11.9 10.73) rotate(-.92)"/>
  <path class="st11" d="M672.19,746.75c-.02-.97-.82-1.74-1.79-1.71-.97.02-1.74.82-1.71,1.79s.82,1.74,1.79,1.71c.97-.02,1.74-.82,1.71-1.79"/>
  <polyline class="st5" points="623.27 796.82 606.74 797.04 606.79 798.93 623.32 798.71 623.27 796.82"/>
  <polyline class="st5" points="625.4 794.88 604.27 795.33 604.32 798.17 625.45 797.72 625.4 794.88"/>
  <polyline class="st10" points="618.41 737.94 602.58 738.28 602.32 728.72 618.23 728.38 618.41 737.94"/>
  <path class="st12" d="M636.31,727.76l.22,9.28c0,.21-.12.38-.29.38l-16.92.4c-.21,0-.38-.16-.38-.36l-.22-9.28"/>
  <path class="st6" d="M626.88,729.7c0,.35.3.63.65.62s.63-.3.62-.65-.3-.63-.65-.62-.63.3-.62.65"/>
  <path class="st6" d="M626.84,734.18c.01.43.37.77.8.76s.77-.37.76-.8-.37-.77-.8-.76-.77.37-.76.8"/>
  <path class="st6" d="M626.46,734.19c.02.64.54,1.14,1.18,1.13s1.14-.54,1.13-1.18-.54-1.14-1.18-1.13-1.14.54-1.13,1.18"/>
  <path class="st6" d="M619.6,731.07h16.11c.21,0,.37.17.37.37v5.44c0,.21-.17.37-.37.37h-16.11c-.2,0-.37-.17-.37-.37v-5.45c0-.21.17-.37.37-.37Z" transform="translate(-17.16 15.03) rotate(-1.35)"/>
  <path class="st4" d="M619.1,737.57c0,.19.16.33.34.33"/>
  <line class="st3" x1="619.1" y1="737.51" x2="618.89" y2="728.7"/>
  <line class="st3" x1="619.41" y1="737.15" x2="619.3" y2="731.7"/>
  <path class="st4" d="M619.63,731.41c-.19,0-.33.16-.33.34"/>
  <line class="st3" x1="678.24" y1="746.65" x2="670.4" y2="746.82"/>
  <g>
    <path class="st2" d="M623.37,1024.16s0,.02,0,.03"/>
    <path class="st7" d="M623.36,1024.61c.02,3.1,1.98,12.41,2.67,12.47l19.73-11.39.24-.14"/>
    <line class="st2" x1="646.19" y1="1025.43" x2="646.21" y2="1025.42"/>
  </g>
  <g>
    <line class="st13" x1="599.33" y1="682.64" x2="567.22" y2="683.11"/>
    <path class="st14" d="M599.82,714.7c-17.69.25-32.22-13.89-32.47-31.58"/>
    <line class="st13" x1="599.8" y1="714.75" x2="599.33" y2="682.64"/>
  </g>
  <g>
    <path class="st2" d="M598.05,807.57s-.02,0-.03,0"/>
    <path class="st15" d="M597.6,807.6c-2.88.32-11.2,2.94-11.19,3.58l12.26,17.12.14.19"/>
    <line class="st2" x1="598.94" y1="828.67" x2="598.96" y2="828.7"/>
  </g>
  <line class="st2" x1="623.74" y1="802.79" x2="603.22" y2="832.66"/>
  <line class="st2" x1="602.61" y1="803.24" x2="624.35" y2="832.21"/>
  <polygon class="st0" points="586.27 1001 528.42 1001.73 542.18 660.98 528.58 661.2 528.48 663.87 513.83 1026.06 586.38 1025.55 586.27 1001"/>
  <g>
    <rect class="st1" x="512.09" y="948.22" width="70.46" height="31.71" transform="translate(1533.97 458.6) rotate(92.46)"/>
    <rect class="st1" x="537.71" y="974" width="17.61" height="17.61" rx="1.42" ry="1.42" transform="translate(42.65 -22.53) rotate(2.46)"/>
    <polygon class="st1" points="562.45 990.76 565.08 929.39 533 928.01 531.05 973.5 562.45 990.76"/>
  </g>
  <g>
    <g>
      <path class="st9" d="M631.69,971.84c.08,4.57,4.09,8.21,8.95,8.12,3.58-.06,7.09-2.47,8.25-5.79.16-.45.48-1.41.41-2.65-.22-3.89-4.17-8.21-8.95-8.12-4.86.09-8.74,3.86-8.66,8.43Z"/>
      <path class="st2" d="M648.17,973.4c.05,2.81-3.33,5.14-7.55,5.22"/>
      <path class="st2" d="M632.88,973.67c.05,2.81,3.51,5.02,7.73,4.95"/>
      <path class="st2" d="M632.88,973.67c0-.55-.46-1-1-.99"/>
      <path class="st2" d="M648.17,973.4c0-.55.46-1.01,1.05-1.02"/>
    </g>
    <g>
      <path class="st9" d="M631.19,943.42c-.08-4.57,3.8-8.35,8.66-8.43,3.58-.06,7.17,2.22,8.45,5.49.17.45.53,1.39.5,2.63-.09,3.89-3.88,8.35-8.66,8.43-4.86.09-8.87-3.55-8.95-8.12Z"/>
      <path class="st2" d="M647.6,941.28c-.05-2.81-3.51-5.02-7.73-4.95"/>
      <path class="st2" d="M632.32,941.55c-.05-2.81,3.33-5.14,7.55-5.22"/>
      <path class="st2" d="M632.32,941.55c0,.55-.42,1.01-.96,1.02"/>
      <path class="st2" d="M647.6,941.28c0,.55.49,1,1.08.98"/>
    </g>
    <rect class="st9" x="628.78" y="943.83" width="22.9" height="25.95" transform="translate(1585.64 299.86) rotate(88.99)"/>
  </g>
  <circle class="st16" cx="572.08" cy="991.83" r="7"/>
  <polyline class="st12" points="655.82 987.52 654.82 987.52 654.82 996.14 655.82 996.14"/>
  <polyline class="st12" points="654.83 997.11 654.83 986.54 653.41 986.54 653.41 997.11 654.83 997.11"/>
  <polygon class="st0" points="662.43 1000.08 662.41 1000.08 659.77 877.62 631.69 878.21 630.16 804.81 686.17 803.56 684.58 726.95 684.97 726.94 684.84 721.67 601.98 723.46 601.78 716.43 596.55 716.55 597.31 754.41 601.56 754.33 601.04 728.79 678.16 727.1 679.67 797.36 623.66 798.61 625.49 884.7 653.57 884.12 656.06 1000.15 647.93 1000.25 648.02 1025.1 662.95 1024.99 662.43 1000.08"/>
</svg>