<?xml version="1.0" encoding="UTF-8"?>
<svg id="Lag_1" xmlns="http://www.w3.org/2000/svg" version="1.1" viewBox="0 0 1200 1697.14">
  <!-- Generator: Adobe Illustrator 29.6.0, SVG Export Plug-In . SVG Version: 2.1.1 Build 207)  -->
  <defs>
    <style>
      .st0 {
        stroke-dasharray: .06 .43;
      }

      .st0, .st1, .st2, .st3, .st4, .st5, .st6, .st7, .st8, .st9, .st10 {
        stroke-width: .18px;
      }

      .st0, .st1, .st2, .st3, .st5, .st7, .st8, .st9, .st10 {
        stroke-linejoin: round;
      }

      .st0, .st1, .st2, .st5, .st7, .st8, .st9 {
        stroke-linecap: round;
      }

      .st0, .st2, .st3, .st4, .st6, .st7, .st8, .st9, .st10 {
        stroke: #000;
      }

      .st0, .st2, .st3, .st5, .st6, .st7, .st8 {
        fill: none;
      }

      .st11 {
        fill: #000016;
      }

      .st1 {
        stroke: #060305;
      }

      .st1, .st4, .st9, .st10 {
        fill: #fff;
      }

      .st12 {
        fill: #e8e3e0;
      }

      .st4, .st6 {
        stroke-miterlimit: 10;
      }

      .st5 {
        stroke: #767676;
      }

      .st7 {
        stroke-dasharray: .06 .43;
      }

      .st8 {
        stroke-dasharray: .06 .43;
      }
    </style>
  </defs>
  <path class="st12" d="M668.03,694.22l-84.8.42-3.53,76.38-52.62-2.43.41,82.36,25.82-.27,1.49,143.02,114.71-.57-1.47-298.91ZM608.36,773.94l-25.91-1.2,1.37-29.57,25.91,1.2-1.37,29.57Z"/>
  <polyline class="st11" points="610.16 748.01 610.04 740.82 584.66 741.07 584.69 745.34 605.88 745.12 605.89 748.11 610.16 748.01"/>
  <polyline class="st11" points="606.18 772.44 585 772.66 585.03 776.92 606.21 776.71 606.31 785.84 610.5 785.81 610.37 769.19 606.11 769.29 606.18 772.44"/>
  <polyline class="st11" points="585.03 776.92 584.95 773.7 528.81 774.33 528.81 777.47 585.03 776.92"/>
  <polyline class="st11" points="595.35 995.5 595.32 970.36 544.44 970.4 544.26 995.31 595.35 995.5"/>
  <polyline class="st9" points="589.86 837.38 605.73 837.21 605.89 846.8 589.95 846.96 589.86 837.38"/>
  <line class="st2" x1="529.75" y1="828.31" x2="537.61" y2="828.23"/>
  <path class="st9" d="M535.9,828.21c.01.97.8,1.75,1.77,1.74.97-.01,1.75-.8,1.74-1.77s-.8-1.75-1.77-1.74c-.97.01-1.75.8-1.74,1.77"/>
  <polyline class="st9" points="630.71 994.59 630.73 989.28 628.93 989.27 628.91 994.58 630.71 994.59"/>
  <polyline class="st9" points="597.12 994.46 597.14 989.15 595.42 989.14 595.4 994.45 597.12 994.46"/>
  <polyline class="st9" points="628.91 994.58 597.12 994.46 597.13 992.66 628.92 992.79 628.91 994.58"/>
  <polyline class="st9" points="657.19 994.69 657.21 989.38 655.41 989.37 655.39 994.68 657.19 994.69"/>
  <polyline class="st9" points="632.43 994.59 632.45 989.28 630.73 989.28 630.71 994.59 632.43 994.59"/>
  <polyline class="st9" points="632.43 994.59 655.39 994.68 655.4 992.89 632.44 992.8 632.43 994.59"/>
  <g>
    <line class="st2" x1="607.73" y1="787.63" x2="639.84" y2="787.31"/>
    <path class="st2" d="M608.09,819.69c17.73-.18,31.95-14.7,31.78-32.42"/>
    <line class="st2" x1="608.04" y1="819.74" x2="607.73" y2="787.63"/>
  </g>
  <line class="st2" x1="595.35" y1="995.5" x2="657.14" y2="995.74"/>
  <line class="st5" x1="667.08" y1="893.92" x2="666.97" y2="880.15"/>
  <polygon class="st11" points="677.62 970.35 670.98 970.36 668.18 693.75 661.82 693.76 664.62 970.36 657.12 970.37 657.14 995.74 677.63 995.86 677.62 970.35"/>
  <polyline class="st9" points="605.81 740.1 584.62 740.39 584.19 697.95 605.37 697.73 605.81 740.1"/>
  <polyline class="st2" points="584.52 727.97 605.71 727.75 605.81 740.1 584.62 740.39 584.52 727.97"/>
  <line class="st2" x1="587.01" y1="733.99" x2="592.7" y2="733.88"/>
  <line class="st2" x1="597.64" y1="733.89" x2="603.26" y2="733.77"/>
  <line class="st2" x1="600.39" y1="731.02" x2="600.51" y2="736.64"/>
  <line class="st2" x1="589.84" y1="731.13" x2="589.88" y2="736.75"/>
  <polyline class="st2" points="601.92 701.31 587.77 701.48 587.94 715.63 602.01 715.46 601.92 701.31"/>
  <polyline class="st2" points="584.41 719.14 584.19 697.95 605.37 697.73 605.59 718.92 584.41 719.14"/>
  <line class="st2" x1="585.87" y1="708.58" x2="591.56" y2="708.54"/>
  <rect class="st7" x="529.72" y="809.27" width="31.62" height="38.41" transform="translate(-4.08 2.7) rotate(-.28)"/>
  <rect class="st10" x="558.15" y="851.86" width="17.11" height="21.23" transform="translate(1142.37 1719) rotate(179.4)"/>
  <rect class="st10" x="576.13" y="851.68" width="17.18" height="21.23" transform="translate(1178.39 1718.43) rotate(179.4)"/>
  <rect class="st10" x="594.1" y="851.49" width="17.19" height="21.23" transform="translate(1214.36 1717.87) rotate(179.4)"/>
  <path class="st10" d="M571.82,847.37l-.12-9.31c0-.21.13-.38.29-.38l16.96-.21c.21,0,.38.16.38.37l.12,9.31"/>
  <path class="st3" d="M581.29,845.53c0-.35-.29-.63-.64-.63s-.63.29-.63.64.29.63.64.63.63-.29.63-.64"/>
  <path class="st3" d="M581.38,841.05c0-.43-.36-.78-.79-.77s-.78.36-.77.79.36.78.79.77.78-.36.77-.79"/>
  <path class="st3" d="M581.76,841.04c0-.64-.53-1.15-1.17-1.14s-1.15.53-1.14,1.17.53,1.15,1.17,1.14,1.15-.53,1.14-1.17"/>
  <path class="st3" d="M572.48,837.96h16.15c.21,0,.37.17.37.37v5.46c0,.21-.17.37-.37.37h-16.15c-.21,0-.37-.17-.37-.37v-5.46c0-.21.17-.37.37-.37Z" transform="translate(-10.47 7.32) rotate(-.72)"/>
  <polyline class="st11" points="610.87 821.51 611.22 851.31 557.69 851.9 557.67 847.64 606.92 847.14 606.68 821.54 610.87 821.51"/>
  <path class="st4" d="M536.4,784.32h10.27c3.95-.01,7.15,2.83,7.15,6.33,0,3.51-3.19,6.35-7.14,6.35h-10.27s-.01-12.69-.01-12.69Z"/>
  <polygon class="st10" points="536.42 804.58 536.4 777.63 525.51 777.56 525.51 804.59 536.42 804.58"/>
  <polyline class="st11" points="529.23 808.91 536.27 808.86 536.24 804.6 529.13 804.64"/>
  <polyline class="st9" points="585.05 778.87 601.63 778.84 601.6 776.94 585.03 776.97 585.05 778.87"/>
  <polyline class="st9" points="582.9 780.79 604.09 780.57 604.07 777.73 582.89 777.95 582.9 780.79"/>
  <polygon class="st11" points="584.22 696.93 622.96 696.56 622.9 691.25 577.67 691.71 577.7 697 577.78 697 578.51 767.42 522.37 768.04 523.24 854.35 551.38 854.08 552.59 970.4 558.95 970.4 557.67 847.64 529.52 847.91 528.81 774.33 584.95 773.7 584.22 696.93"/>
  <g>
    <path class="st2" d="M609.48,769.22s.02,0,.03,0"/>
    <path class="st8" d="M609.93,769.24c2.91.02,11.5-1.6,11.56-2.25l-10.19-18.49-.12-.2"/>
    <line class="st2" x1="611.08" y1="748.11" x2="611.06" y2="748.09"/>
  </g>
  <g>
    <path class="st2" d="M632.39,993.85s0,.02,0,.03"/>
    <path class="st0" d="M632.37,994.3c0,2.91,1.85,11.52,2.55,11.59l20.02-10.03.23-.12"/>
    <line class="st2" x1="655.37" y1="995.64" x2="655.39" y2="995.63"/>
  </g>
  <line class="st6" x1="605.88" y1="745.12" x2="584.95" y2="773.7"/>
  <line class="st6" x1="584.69" y1="745.34" x2="606.18" y2="772.44"/>
  <g>
    <rect class="st1" x="540.77" y="917.49" width="70.62" height="31.78" transform="translate(1502.54 346.24) rotate(89.32)"/>
    <rect class="st1" x="567.47" y="943.35" width="17.66" height="17.66" rx="1.42" ry="1.42" transform="translate(1163.89 1897.44) rotate(179.32)"/>
    <polygon class="st1" points="560.09 959.64 559.36 898.08 591.54 897.7 592.09 943.34 560.09 959.64"/>
  </g>
  <g>
    <g>
      <path class="st9" d="M657.54,939.5c.09,4.58-3.79,8.37-8.66,8.47-3.59.07-7.19-2.21-8.47-5.49-.18-.45-.53-1.39-.51-2.64.08-3.9,3.88-8.37,8.66-8.47,4.87-.09,8.89,3.54,8.98,8.13Z"/>
      <path class="st2" d="M641.09,941.67c.05,2.82,3.52,5.03,7.76,4.95"/>
      <path class="st2" d="M656.41,941.38c.05,2.82-3.33,5.16-7.56,5.24"/>
      <path class="st2" d="M656.41,941.38c-.01-.56.42-1.01.96-1.02"/>
      <path class="st2" d="M641.09,941.67c-.01-.56-.5-1-1.08-.99"/>
    </g>
    <g>
      <path class="st9" d="M656.99,911.02c-.09-4.58-4.11-8.22-8.98-8.13-3.59.07-7.1,2.48-8.26,5.81-.16.45-.48,1.41-.41,2.65.23,3.89,4.2,8.22,8.98,8.13,4.87-.09,8.75-3.88,8.66-8.47Z"/>
      <path class="st2" d="M640.47,909.48c-.05-2.82,3.33-5.16,7.56-5.24"/>
      <path class="st2" d="M655.79,909.18c-.05-2.82-3.52-5.03-7.76-4.95"/>
      <path class="st2" d="M655.79,909.18c.01.56.46,1,1,.99"/>
      <path class="st2" d="M640.47,909.48c.01.56-.46,1.01-1.05,1.03"/>
    </g>
    <rect class="st9" x="636.95" y="911.75" width="22.95" height="26.01" transform="translate(1560.54 258.66) rotate(88.9)"/>
  </g>
  <polyline class="st9" points="610.41 769.17 610.19 747.99 608.4 748.06 608.61 769.24 610.41 769.17"/>
  <line class="st2" x1="657.93" y1="694.03" x2="658.32" y2="726.15"/>
  <path class="st2" d="M625.87,694.33c.18,17.73,14.7,31.95,32.43,31.77"/>
  <line class="st2" x1="625.82" y1="694.35" x2="657.93" y2="694.03"/>
</svg>