<?xml version="1.0" encoding="UTF-8"?>
<svg id="Lag_1" xmlns="http://www.w3.org/2000/svg" version="1.1" viewBox="0 0 1200 1697.14">
  <!-- Generator: Adobe Illustrator 29.6.0, SVG Export Plug-In . SVG Version: 2.1.1 Build 207)  -->
  <defs>
    <style>
      .st0 {
        stroke-dasharray: .06 .42;
      }

      .st0, .st1, .st2, .st3, .st4, .st5, .st6, .st7, .st8, .st9 {
        stroke-width: .18px;
      }

      .st0, .st1, .st2, .st4, .st5, .st6, .st8, .st9 {
        stroke-linejoin: round;
      }

      .st0, .st1, .st2, .st6, .st8 {
        stroke-linecap: round;
      }

      .st0, .st2, .st4, .st5, .st6 {
        fill: none;
      }

      .st0, .st2, .st4, .st6, .st7, .st8, .st9 {
        stroke: #000;
      }

      .st10 {
        fill: #000016;
      }

      .st1, .st3 {
        stroke: #060305;
      }

      .st1, .st3, .st7, .st8, .st9 {
        fill: #fff;
      }

      .st11 {
        fill: #e8e3e0;
      }

      .st3, .st7 {
        stroke-miterlimit: 10;
      }

      .st5 {
        stroke: #767676;
      }

      .st6 {
        stroke-dasharray: .06 .43;
      }
    </style>
  </defs>
  <polygon class="st11" points="573.12 957.65 546.03 957.65 546.03 723.45 652.74 723.45 652.74 987.12 573.12 987.12 573.12 957.65"/>
  <g>
    <polyline class="st2" points="577.56 914.2 577.56 914.23 577.53 914.23"/>
    <line class="st6" x1="577.1" y1="914.23" x2="549.35" y2="914.23"/>
    <polyline class="st2" points="549.14 914.23 549.11 914.23 549.11 914.2"/>
    <line class="st6" x1="549.11" y1="913.78" x2="549.11" y2="886.02"/>
    <polyline class="st2" points="549.11 885.81 549.11 885.78 549.14 885.78"/>
    <line class="st6" x1="549.56" y1="885.78" x2="577.32" y2="885.78"/>
    <polyline class="st2" points="577.53 885.78 577.56 885.78 577.56 885.81"/>
    <line class="st6" x1="577.56" y1="886.24" x2="577.56" y2="913.99"/>
  </g>
  <polyline class="st9" points="548.81 748.51 550.16 748.51 550.16 764.47 548.81 764.47"/>
  <polyline class="st9" points="560.77 721.64 560.77 726.99 558.96 726.99 558.96 721.64 560.77 721.64"/>
  <polyline class="st4" points="611.93 721.64 560.77 721.64 560.77 723.45 611.93 723.37 611.93 721.64"/>
  <polyline class="st9" points="637.66 721.57 613.66 721.64 613.66 724.28 637.66 724.28 637.66 721.57"/>
  <polyline class="st9" points="639.4 721.57 639.47 726.91 637.66 726.91 637.66 721.57 639.4 721.57"/>
  <polyline class="st9" points="613.66 721.64 613.66 726.99 611.93 726.99 611.93 721.64 613.66 721.64"/>
  <line class="st4" x1="558.96" y1="720.51" x2="640.5" y2="720.44"/>
  <path class="st9" d="M565.07,893.65c0-.98-.79-1.77-1.77-1.77s-1.77.79-1.77,1.77.79,1.77,1.77,1.77,1.77-.79,1.77-1.77"/>
  <line class="st4" x1="601.72" y1="929.51" x2="630.54" y2="929.51"/>
  <path class="st4" d="M630.47,929.47c0-15.9-12.89-28.79-28.79-28.79"/>
  <line class="st4" x1="601.72" y1="900.76" x2="601.72" y2="929.51"/>
  <line class="st4" x1="647.1" y1="987.16" x2="647.1" y2="958.33"/>
  <path class="st4" d="M647.06,958.33c-15.9,0-28.79,12.89-28.79,28.79"/>
  <line class="st4" x1="618.27" y1="987.16" x2="647.1" y2="987.16"/>
  <polyline class="st9" points="598.71 939.82 577.41 939.82 577.41 982.49 598.71 982.49 598.71 939.82"/>
  <polyline class="st4" points="577.41 952.31 598.71 952.31 598.71 939.82 577.41 939.82 577.41 952.31"/>
  <line class="st4" x1="579.89" y1="946.29" x2="585.54" y2="946.29"/>
  <line class="st4" x1="590.58" y1="946.29" x2="596.22" y2="946.29"/>
  <line class="st4" x1="593.36" y1="949.07" x2="593.36" y2="943.43"/>
  <line class="st4" x1="582.75" y1="949.07" x2="582.75" y2="943.43"/>
  <polyline class="st4" points="595.17 978.95 580.95 978.95 580.95 964.73 595.17 964.73 595.17 978.95"/>
  <polyline class="st4" points="577.41 961.19 577.41 982.49 598.71 982.49 598.71 961.19 577.41 961.19"/>
  <line class="st4" x1="578.99" y1="971.88" x2="584.71" y2="971.88"/>
  <polyline class="st9" points="646.57 913.18 658.24 913.25 658.31 924.99 646.57 924.92 646.57 913.18"/>
  <line class="st5" x1="646.57" y1="917.54" x2="650.86" y2="913.18"/>
  <line class="st5" x1="646.57" y1="922.28" x2="655.68" y2="913.25"/>
  <line class="st5" x1="648.75" y1="924.92" x2="658.31" y2="915.36"/>
  <line class="st5" x1="653.49" y1="924.99" x2="658.31" y2="920.18"/>
  <line class="st5" x1="650.41" y1="924.92" x2="646.57" y2="921.08"/>
  <line class="st5" x1="655.23" y1="924.99" x2="646.57" y2="916.26"/>
  <line class="st5" x1="658.31" y1="923.26" x2="648.23" y2="913.18"/>
  <line class="st5" x1="658.31" y1="918.44" x2="653.04" y2="913.25"/>
  <polyline class="st9" points="550.16 765.37 550.16 747.53 551.59 747.53 551.59 765.37 550.16 765.37"/>
  <path class="st7" d="M567.19,942.41v-10.34c0-3.98-2.86-7.2-6.39-7.2s-6.39,3.22-6.39,7.2v10.34s12.78,0,12.78,0Z"/>
  <polygon class="st9" points="548.61 942.41 573.1 942.41 573.17 953.37 548.61 953.4 548.61 942.41"/>
  <rect class="st9" x="548.67" y="859.84" width="17.76" height="21.37" transform="translate(1115.1 1741.05) rotate(-180)"/>
  <rect class="st9" x="567.33" y="859.84" width="17.84" height="21.37" transform="translate(1152.5 1741.05) rotate(-180)"/>
  <rect class="st9" x="586" y="859.84" width="17.85" height="21.37" transform="translate(1189.85 1741.05) rotate(-180)"/>
  <path class="st9" d="M579.48,885.54v9.37c0,.21.13.38.3.38h17.08c.21,0,.38-.17.38-.38v-9.37"/>
  <path class="st4" d="M589.04,887.27c0,.35-.29.64-.64.64s-.64-.29-.64-.64c0-.35.29-.64.64-.64s.64.29.64.64"/>
  <path class="st4" d="M589.19,891.79c0,.44-.35.79-.79.79s-.79-.35-.79-.79c0-.44.35-.79.79-.79s.79.35.79.79"/>
  <path class="st4" d="M589.56,891.79c0,.64-.52,1.17-1.17,1.17s-1.17-.52-1.17-1.17c0-.64.52-1.17,1.17-1.17s1.17.52,1.17,1.17"/>
  <path class="st4" d="M580.23,888.66h16.26c.21,0,.37.17.37.37v5.5c0,.21-.17.37-.37.37h-16.26c-.21,0-.37-.17-.37-.37v-5.5c0-.21.17-.38.38-.38Z"/>
  <line class="st4" x1="563.33" y1="885.78" x2="563.33" y2="893.68"/>
  <g>
    <path class="st2" d="M613.36,721.03s0-.02,0-.03"/>
    <path class="st0" d="M613.38,720.58c.28-3.11,3.1-12.33,3.83-12.33l19.49,13.08.24.17"/>
    <line class="st2" x1="637.11" y1="721.63" x2="637.14" y2="721.64"/>
  </g>
  <polygon class="st10" points="652.74 988.89 656.66 988.89 656.66 983.62 655.45 983.62 655.45 924.99 650.11 924.92 650.11 983.62 648.83 983.62 648.83 988.89 652.74 988.89"/>
  <line class="st4" x1="573.12" y1="957.65" x2="543.47" y2="983.62"/>
  <line class="st4" x1="543.47" y1="957.65" x2="573.12" y2="983.62"/>
  <polygon class="st10" points="639.45 720.51 666.96 720.51 666.96 742.79 655.44 742.82 655.44 743.24 655.45 743.24 655.45 913.25 650.11 913.18 650.11 744.83 650.1 744.83 650.1 742.84 639.45 742.87 639.45 720.51"/>
  <polygon class="st10" points="533.04 720.25 559.01 720.25 559.01 742.82 548.81 742.82 548.81 881.19 603.9 881.19 603.9 898.95 599.61 898.95 599.61 885.48 548.81 885.48 548.81 953.36 573.12 953.36 573.12 934.85 599.61 934.85 599.61 931.31 603.9 931.31 603.9 939.14 577.41 939.14 577.41 983.62 616.54 983.62 616.54 988.89 556.79 988.89 556.79 983.62 573.12 983.62 573.12 957.65 548.81 957.65 543.47 957.65 543.47 742.82 533.04 742.82 533.04 720.25"/>
  <g>
    <rect class="st1" x="597.21" y="763.32" width="71.11" height="32" transform="translate(-146.56 1412.09) rotate(-90)"/>
    <rect class="st1" x="623.87" y="751.5" width="17.78" height="17.78" rx="1.42" ry="1.42"/>
    <polygon class="st1" points="649.17 753.07 649.17 815.06 616.76 815.06 616.76 769.11 649.17 753.07"/>
  </g>
  <g>
    <g>
      <path class="st8" d="M571.58,831.57c0,4.61-3.98,8.36-8.89,8.36-3.61,0-7.19-2.36-8.43-5.69-.17-.45-.51-1.41-.46-2.66.16-3.92,4.07-8.36,8.89-8.36,4.91,0,8.89,3.74,8.89,8.36Z"/>
      <path class="st2" d="M554.98,833.44c0,2.84,3.45,5.13,7.72,5.13"/>
      <path class="st2" d="M570.41,833.44c0,2.84-3.45,5.13-7.72,5.13"/>
      <path class="st2" d="M570.41,833.44c0-.56.44-1.01.99-1.01"/>
      <path class="st2" d="M554.98,833.44c0-.56-.48-1.01-1.07-1.01"/>
    </g>
    <g>
      <path class="st8" d="M571.58,802.89c0-4.61-3.98-8.36-8.89-8.36-3.61,0-7.19,2.36-8.43,5.69-.17.45-.51,1.41-.46,2.66.16,3.92,4.07,8.36,8.89,8.36,4.91,0,8.89-3.74,8.89-8.36Z"/>
      <path class="st2" d="M554.98,801.01c0-2.84,3.45-5.13,7.72-5.13"/>
      <path class="st2" d="M570.41,801.01c0-2.84-3.45-5.13-7.72-5.13"/>
      <path class="st2" d="M570.41,801.01c0,.56.44,1.01.99,1.01"/>
      <path class="st2" d="M554.98,801.01c0,.56-.48,1.01-1.07,1.01"/>
    </g>
    <rect class="st8" x="551.14" y="803.45" width="23.11" height="26.19" transform="translate(1379.24 253.86) rotate(90)"/>
  </g>
  <g>
    <path class="st1" d="M561.33,747c5.31,3.72,10.62,7.43,15.92,11.15.27.1.6-.02.79-.29,5.28-5.74,9.71-12.25,13.12-19.25.06-.12.04-.25-.05-.32-.49-.35-.99-.7-1.48-1.05l-14.3-10.09-14.01,19.85"/>
    <path class="st1" d="M560.29,746.02c.45.41.94.76,1.47,1.05.11.05.24,0,.32-.1,4.63-6.25,9.14-12.57,13.55-18.97.09-.17.06-.38-.07-.48-.51-.43-1.05-.8-1.64-1.11"/>
    <path class="st1" d="M563.8,747.54c-.27.39-1.41.05-2.54-.75-.09-.07-.18-.13-.26-.2l-.71-.57c-.08-.08-.09-.23,0-.34l13.64-19.32,1.64,1.16c.53.39,1.06.78,1.59,1.17.18.22.18.57-.01.84-3.43,6.69-7.95,12.8-13.34,18.01Z"/>
    <path class="st1" d="M562.69,746.93c.28.07.56.15.82.26.34.07.67.15.99.25.44.14.89.27,1.33.41.62.18,1.2.42,1.77.71.35.18.69.37,1.02.57.35.21.71.43,1.06.65.83.52,1.64,1.09,2.41,1.7.78.62,1.5,1.29,2.17,2.03.5.56.95,1.16,1.34,1.81.25.41.36.84.35,1.36,0,.04-.01.08-.04.12l-.25.35c-.1.07-.19.09-.3.07-5.11-3.61-10.22-7.21-15.33-10.82-.09-.06-.1-.2-.03-.31l.08-.11h0c.08-.1.21-.14.31-.08.23.12.47.24.7.36.3.18.6.33.93.46l.68.22Z"/>
    <path class="st1" d="M575.81,728.34c.16.24.33.47.52.69.17.3.36.58.57.85.28.37.55.75.83,1.12.38.52.8.99,1.26,1.43.28.27.58.53.88.77.32.26.64.52.97.78.77.61,1.57,1.18,2.41,1.7.84.53,1.72.98,2.64,1.36.69.29,1.41.5,2.16.65.47.09.91.05,1.4-.13.04-.02.07-.04.1-.08l.25-.35c.03-.12.02-.21-.03-.31-5.11-3.61-10.22-7.21-15.33-10.82-.09-.06-.23-.03-.3.08l-.08.11h0c-.07.11-.06.24.02.32.19.18.38.36.57.54.27.22.52.46.75.72l.43.56Z"/>
  </g>
  <circle class="st3" cx="561.53" cy="761.11" r="7.06"/>
</svg>