<?xml version="1.0" encoding="UTF-8"?>
<svg id="Lag_1" xmlns="http://www.w3.org/2000/svg" version="1.1" viewBox="0 0 1200 1697.14">
  <!-- Generator: Adobe Illustrator 29.6.0, SVG Export Plug-In . SVG Version: 2.1.1 Build 207)  -->
  <defs>
    <style>
      .st0 {
        fill: #000016;
      }

      .st1, .st2, .st3, .st4, .st5, .st6, .st7, .st8, .st9, .st10 {
        stroke-width: .18px;
      }

      .st1, .st2, .st4, .st5, .st7, .st8, .st9, .st10 {
        stroke-linejoin: round;
      }

      .st1, .st2, .st7, .st8, .st10 {
        stroke-linecap: round;
      }

      .st1, .st3 {
        stroke: #060305;
      }

      .st1, .st3, .st6, .st8, .st9 {
        fill: #fff;
      }

      .st11 {
        fill: #e8e3e0;
      }

      .st2, .st4, .st5, .st7, .st10 {
        fill: none;
      }

      .st2, .st4, .st6, .st7, .st8, .st9, .st10 {
        stroke: #000;
      }

      .st3, .st6 {
        stroke-miterlimit: 10;
      }

      .st5 {
        stroke: #767676;
      }

      .st7 {
        stroke-dasharray: .06 .43;
      }

      .st10 {
        stroke-dasharray: .06 .42;
      }
    </style>
  </defs>
  <polygon class="st11" points="573.53 741.14 546.84 741.14 546.84 971.8 651.94 971.8 651.94 712.12 573.53 712.12 573.53 741.14"/>
  <g>
    <polyline class="st2" points="577.9 783.94 577.9 783.91 577.87 783.91"/>
    <line class="st7" x1="577.44" y1="783.91" x2="550.12" y2="783.91"/>
    <polyline class="st2" points="549.91 783.91 549.88 783.91 549.88 783.94"/>
    <line class="st7" x1="549.88" y1="784.36" x2="549.88" y2="811.68"/>
    <polyline class="st2" points="549.88 811.9 549.88 811.92 549.91 811.92"/>
    <line class="st7" x1="550.34" y1="811.92" x2="577.66" y2="811.92"/>
    <polyline class="st2" points="577.87 811.92 577.9 811.92 577.9 811.9"/>
    <line class="st7" x1="577.9" y1="811.47" x2="577.9" y2="784.15"/>
  </g>
  <polyline class="st9" points="637.07 973.58 637.07 968.31 638.85 968.31 638.85 973.58 637.07 973.58"/>
  <polyline class="st4" points="586.69 973.58 637.07 973.58 637.07 971.8 586.69 971.87 586.69 973.58"/>
  <polyline class="st9" points="561.34 973.65 584.99 973.58 584.99 970.98 561.34 970.98 561.34 973.65"/>
  <polyline class="st9" points="559.64 973.65 559.56 968.39 561.34 968.39 561.34 973.65 559.64 973.65"/>
  <polyline class="st9" points="584.99 973.58 584.99 968.31 586.69 968.31 586.69 973.58 584.99 973.58"/>
  <path class="st9" d="M565.59,804.18c0,.96-.78,1.74-1.74,1.74s-1.74-.78-1.74-1.74c0-.96.78-1.74,1.74-1.74.96,0,1.74.78,1.74,1.74"/>
  <line class="st4" x1="601.69" y1="768.86" x2="630.08" y2="768.86"/>
  <path class="st4" d="M630,768.9c0,15.66-12.69,28.35-28.35,28.35"/>
  <line class="st4" x1="601.69" y1="797.17" x2="601.69" y2="768.86"/>
  <line class="st4" x1="646.38" y1="712.09" x2="646.38" y2="740.47"/>
  <path class="st4" d="M646.35,740.47c-15.66,0-28.35-12.69-28.35-28.35"/>
  <line class="st4" x1="618" y1="712.09" x2="646.38" y2="712.09"/>
  <polyline class="st9" points="598.73 758.71 577.75 758.71 577.75 716.68 598.73 716.68 598.73 758.71"/>
  <polyline class="st4" points="577.75 746.4 598.73 746.4 598.73 758.71 577.75 758.71 577.75 746.4"/>
  <line class="st4" x1="580.2" y1="752.33" x2="585.75" y2="752.33"/>
  <line class="st4" x1="590.72" y1="752.33" x2="596.28" y2="752.33"/>
  <line class="st4" x1="593.46" y1="749.59" x2="593.46" y2="755.15"/>
  <line class="st4" x1="583.01" y1="749.59" x2="583.01" y2="755.15"/>
  <polyline class="st4" points="595.24 720.17 581.23 720.17 581.23 734.17 595.24 734.17 595.24 720.17"/>
  <polyline class="st4" points="577.75 737.66 577.75 716.68 598.73 716.68 598.73 737.66 577.75 737.66"/>
  <line class="st4" x1="579.31" y1="727.13" x2="584.94" y2="727.13"/>
  <polyline class="st9" points="645.86 784.95 657.35 784.87 657.43 773.31 645.86 773.38 645.86 784.95"/>
  <line class="st5" x1="645.86" y1="780.65" x2="650.09" y2="784.95"/>
  <line class="st5" x1="645.86" y1="775.98" x2="654.83" y2="784.87"/>
  <line class="st5" x1="648.01" y1="773.38" x2="657.43" y2="782.8"/>
  <line class="st5" x1="652.68" y1="773.31" x2="657.43" y2="778.05"/>
  <line class="st5" x1="649.64" y1="773.38" x2="645.86" y2="777.16"/>
  <line class="st5" x1="654.39" y1="773.31" x2="645.86" y2="781.91"/>
  <line class="st5" x1="657.43" y1="775.01" x2="647.5" y2="784.95"/>
  <line class="st5" x1="657.43" y1="779.76" x2="652.24" y2="784.87"/>
  <path class="st6" d="M567.69,756.16v10.18c0,3.92-2.82,7.09-6.3,7.09-3.48,0-6.29-3.17-6.29-7.09v-10.18h12.59Z"/>
  <polygon class="st9" points="549.39 756.16 573.51 756.16 573.57 745.36 549.39 745.34 549.39 756.16"/>
  <rect class="st9" x="549.45" y="816.43" width="17.49" height="21.05" transform="translate(1116.39 1653.9) rotate(-180)"/>
  <rect class="st9" x="567.83" y="816.43" width="17.57" height="21.05" transform="translate(1153.22 1653.9) rotate(-180)"/>
  <rect class="st9" x="586.21" y="816.43" width="17.58" height="21.05" transform="translate(1190 1653.9) rotate(-180)"/>
  <path class="st9" d="M579.79,812.17v-9.23c0-.2.13-.37.3-.37h16.82c.2,0,.37.17.37.37v9.23"/>
  <path class="st4" d="M589.2,810.46c0-.35-.28-.63-.63-.63s-.63.28-.63.63c0,.35.28.63.63.63s.63-.28.63-.63"/>
  <path class="st4" d="M589.35,806.01c0-.43-.35-.78-.78-.78s-.78.35-.78.78c0,.43.35.78.78.78s.78-.35.78-.78"/>
  <path class="st4" d="M589.72,806.01c0-.63-.51-1.15-1.15-1.15s-1.15.51-1.15,1.15.51,1.15,1.15,1.15c.63,0,1.15-.51,1.15-1.15"/>
  <path class="st4" d="M580.53,802.94h16.01c.2,0,.37.17.37.37v5.41c0,.2-.17.37-.37.37h-16.01c-.2,0-.37-.17-.37-.37v-5.41c0-.2.17-.37.37-.37Z"/>
  <line class="st4" x1="563.89" y1="811.92" x2="563.89" y2="804.14"/>
  <g>
    <path class="st2" d="M585.28,974.18s0,.02,0,.03"/>
    <path class="st10" d="M585.26,974.63c-.28,3.07-3.05,12.14-3.77,12.14l-19.19-12.88-.23-.16"/>
    <line class="st2" x1="561.88" y1="973.59" x2="561.86" y2="973.58"/>
  </g>
  <polygon class="st0" points="651.94 710.38 655.8 710.38 655.8 715.57 654.61 715.57 654.61 773.31 649.35 773.38 649.35 715.57 648.09 715.57 648.09 710.38 651.94 710.38"/>
  <line class="st4" x1="573.53" y1="741.14" x2="544.32" y2="715.57"/>
  <line class="st4" x1="544.32" y1="741.14" x2="573.53" y2="715.57"/>
  <polygon class="st0" points="638.85 974.69 665.94 974.69 665.94 952.75 654.6 952.72 654.6 952.31 654.61 952.31 654.61 784.87 649.35 784.95 649.35 950.74 649.34 950.74 649.34 952.7 638.85 952.67 638.85 974.69"/>
  <line class="st4" x1="638.85" y1="974.69" x2="559.63" y2="974.95"/>
  <g>
    <rect class="st1" x="531.83" y="885.6" width="69.98" height="31.49" transform="translate(1468.17 334.53) rotate(90)"/>
    <rect class="st1" x="558.07" y="911.23" width="17.5" height="17.5" rx="1.42" ry="1.42"/>
    <polygon class="st1" points="582.97 927.19 582.97 866.17 551.07 866.17 551.07 911.4 582.97 927.19"/>
  </g>
  <g>
    <path class="st1" d="M636.2,944.33c-5.71-2.84-11.42-5.69-17.13-8.53-.28-.06-.58.11-.72.4-4.3,6.36-7.67,13.34-9.96,20.65-.04.12,0,.25.09.3.53.27,1.06.53,1.6.8l15.39,7.73,10.74-21.36"/>
    <path class="st1" d="M637.35,945.12c-.5-.33-1.02-.6-1.59-.81-.11-.04-.24.03-.3.15-3.59,6.75-7.07,13.56-10.42,20.44-.07.18,0,.37.14.45.56.34,1.14.62,1.76.85"/>
    <path class="st1" d="M633.71,944.16c.21-.42,1.36-.26,2.58.36.1.05.19.1.29.16l.77.45c.09.07.12.21.06.33l-10.45,20.79-1.77-.89c-.57-.3-1.14-.6-1.72-.9-.21-.19-.26-.53-.11-.82,2.36-7.01,5.87-13.62,10.35-19.47Z"/>
    <path class="st1" d="M634.88,944.59c-.28-.02-.56-.07-.84-.13-.34-.01-.67-.05-1-.1-.45-.07-.9-.14-1.36-.2-.63-.09-1.23-.23-1.83-.43-.36-.12-.72-.26-1.08-.4-.38-.16-.75-.31-1.12-.48-.89-.39-1.75-.82-2.59-1.3-.85-.49-1.65-1.04-2.41-1.66-.57-.47-1.09-.99-1.57-1.57-.3-.37-.47-.76-.54-1.27,0-.04,0-.08.02-.12l.19-.37c.09-.08.17-.12.28-.12,5.5,2.77,11,5.53,16.5,8.3.1.05.13.18.07.3l-.06.11h0c-.06.11-.18.17-.29.13-.24-.08-.49-.17-.73-.25-.31-.13-.64-.24-.97-.32l-.69-.12Z"/>
    <path class="st1" d="M624.82,964.6c-.19-.21-.39-.41-.6-.6-.21-.26-.44-.51-.68-.75-.33-.32-.65-.65-.97-.97-.44-.45-.92-.85-1.43-1.21-.32-.22-.64-.43-.97-.62-.35-.21-.7-.41-1.05-.62-.84-.48-1.7-.92-2.59-1.3-.9-.39-1.82-.7-2.77-.94-.72-.18-1.44-.29-2.2-.32-.47-.02-.89.08-1.34.33-.04.02-.06.05-.08.09l-.19.37c-.01.12,0,.21.07.29,5.5,2.77,11,5.53,16.5,8.3.1.05.22,0,.28-.12l.06-.11h0c.05-.12.02-.25-.07-.31-.21-.15-.42-.29-.64-.44-.29-.17-.57-.37-.83-.59l-.51-.49Z"/>
  </g>
  <g>
    <g>
      <path class="st8" d="M643.01,900.2c0,4.54-3.92,8.22-8.75,8.22-3.56,0-7.08-2.33-8.29-5.6-.17-.45-.5-1.39-.45-2.62.15-3.86,4-8.22,8.75-8.22,4.83,0,8.75,3.68,8.75,8.22Z"/>
      <path class="st2" d="M626.67,902.04c0,2.79,3.4,5.05,7.59,5.05"/>
      <path class="st2" d="M641.86,902.04c0,2.79-3.4,5.05-7.59,5.05"/>
      <path class="st2" d="M641.86,902.04c0-.55.44-1,.98-1"/>
      <path class="st2" d="M626.67,902.04c0-.55-.47-1-1.06-1"/>
    </g>
    <g>
      <path class="st8" d="M643.01,871.97c0-4.54-3.92-8.22-8.75-8.22-3.56,0-7.08,2.33-8.29,5.6-.17.45-.5,1.39-.45,2.62.15,3.86,4,8.22,8.75,8.22,4.83,0,8.75-3.68,8.75-8.22Z"/>
      <path class="st2" d="M626.67,870.13c0-2.79,3.4-5.05,7.59-5.05"/>
      <path class="st2" d="M641.86,870.13c0-2.79-3.4-5.05-7.59-5.05"/>
      <path class="st2" d="M641.86,870.13c0,.55.44,1,.98,1"/>
      <path class="st2" d="M626.67,870.13c0,.55-.47,1-1.06,1"/>
    </g>
    <rect class="st8" x="622.89" y="872.53" width="22.74" height="25.78" transform="translate(1519.68 251.16) rotate(90)"/>
  </g>
  <circle class="st3" cx="637.3" cy="931.53" r="6.97"/>
  <g>
    <polyline class="st9" points="549.26 940.83 550.6 940.83 550.6 949.41 549.26 949.41"/>
    <polyline class="st9" points="550.6 950.39 550.6 939.86 552.01 939.86 552.01 950.39 550.6 950.39"/>
  </g>
  <polygon class="st0" points="534.06 974.95 559.63 974.95 559.63 952.72 549.59 952.72 549.59 816.45 603.84 816.45 603.84 798.95 599.62 798.95 599.62 812.22 549.59 812.22 549.59 745.37 573.53 745.37 573.53 763.6 599.62 763.6 599.62 767.08 603.84 767.08 603.84 759.37 577.75 759.37 577.75 715.57 616.29 715.57 616.29 710.38 557.44 710.38 557.44 715.57 573.53 715.57 573.53 741.14 549.59 741.14 544.32 741.14 544.32 952.72 534.06 952.72 534.06 974.95"/>
</svg>