<?xml version="1.0" encoding="UTF-8"?>
<svg id="Lag_1" xmlns="http://www.w3.org/2000/svg" version="1.1" viewBox="0 0 1200 1697.14">
  <!-- Generator: Adobe Illustrator 29.6.0, SVG Export Plug-In . SVG Version: 2.1.1 Build 207)  -->
  <defs>
    <style>
      .st0 {
        fill: #000016;
      }

      .st1, .st2, .st3, .st4, .st5, .st6, .st7, .st8, .st9, .st10 {
        stroke-width: .18px;
      }

      .st1, .st2, .st4, .st6, .st7, .st8, .st9, .st10 {
        stroke-linejoin: round;
      }

      .st1, .st2, .st4, .st6, .st7, .st9, .st10 {
        stroke-linecap: round;
      }

      .st1, .st3 {
        stroke: #060305;
      }

      .st1, .st3, .st5, .st6, .st8 {
        fill: #fff;
      }

      .st11 {
        fill: #e8e3e0;
      }

      .st2, .st4, .st5, .st6, .st8, .st9, .st10 {
        stroke: #000;
      }

      .st2, .st4, .st7, .st10 {
        fill: none;
      }

      .st3, .st5 {
        stroke-miterlimit: 10;
      }

      .st4 {
        stroke-dasharray: .06 .43;
      }

      .st7 {
        stroke: #747675;
      }

      .st9 {
        fill: #dcdbdb;
      }

      .st10 {
        stroke-dasharray: .06 .42;
      }
    </style>
  </defs>
  <polygon class="st11" points="624.41 742.18 652.32 742.18 652.32 971.84 547.68 971.84 547.68 712.13 624.41 712.13 624.41 742.18"/>
  <g>
    <polyline class="st2" points="621.22 784.05 621.22 784.03 621.25 784.03"/>
    <line class="st4" x1="621.68" y1="784.03" x2="649.05" y2="784.03"/>
    <polyline class="st2" points="649.26 784.03 649.29 784.03 649.29 784.05"/>
    <line class="st4" x1="649.29" y1="784.48" x2="649.29" y2="811.85"/>
    <polyline class="st2" points="649.29 812.07 649.29 812.09 649.26 812.09"/>
    <line class="st4" x1="648.84" y1="812.09" x2="621.46" y2="812.09"/>
    <polyline class="st2" points="621.25 812.09 621.22 812.09 621.22 812.07"/>
    <line class="st4" x1="621.22" y1="811.64" x2="621.22" y2="784.27"/>
  </g>
  <polyline class="st6" points="638.06 973.63 638.06 968.35 639.84 968.35 639.84 973.63 638.06 973.63"/>
  <polyline class="st6" points="587.34 973.63 638.06 973.63 638.06 971.84 587.34 971.84 587.34 973.63"/>
  <polyline class="st6" points="561.94 973.55 585.56 973.63 585.56 970.95 561.94 970.95 561.94 973.55"/>
  <polyline class="st6" points="560.16 973.55 560.16 968.35 561.94 968.35 561.94 973.55 560.16 973.55"/>
  <polyline class="st6" points="585.56 973.63 585.56 968.35 587.34 968.35 587.34 973.63 585.56 973.63"/>
  <path class="st5" d="M631.45,756.22v10.2c0,3.93,2.82,7.1,6.31,7.1s6.31-3.18,6.31-7.1v-10.2h-12.61Z"/>
  <polygon class="st6" points="649.79 756.22 625.62 756.22 625.55 745.41 649.79 745.38 649.79 756.22"/>
  <rect class="st6" x="632.2" y="816.6" width="17.52" height="21.09"/>
  <rect class="st6" x="613.71" y="816.6" width="17.6" height="21.09"/>
  <rect class="st6" x="595.28" y="816.6" width="17.61" height="21.09"/>
  <line class="st2" x1="649.7" y1="816.64" x2="648.14" y2="816.64"/>
  <line class="st2" x1="646.29" y1="816.64" x2="645.03" y2="816.64"/>
  <line class="st2" x1="643.1" y1="816.64" x2="641.83" y2="816.64"/>
  <line class="st2" x1="639.98" y1="816.64" x2="638.71" y2="816.64"/>
  <line class="st2" x1="636.78" y1="816.64" x2="635.52" y2="816.64"/>
  <line class="st2" x1="649.7" y1="834.09" x2="649.7" y2="832.83"/>
  <line class="st2" x1="649.7" y1="830.97" x2="649.7" y2="829.71"/>
  <line class="st2" x1="649.7" y1="827.78" x2="649.7" y2="826.52"/>
  <line class="st2" x1="649.7" y1="824.66" x2="649.7" y2="823.4"/>
  <line class="st2" x1="649.7" y1="821.47" x2="649.7" y2="820.2"/>
  <line class="st2" x1="649.7" y1="818.35" x2="649.7" y2="816.64"/>
  <line class="st2" x1="612.87" y1="816.64" x2="611.31" y2="816.64"/>
  <line class="st2" x1="609.46" y1="816.64" x2="608.2" y2="816.64"/>
  <line class="st2" x1="606.27" y1="816.64" x2="605" y2="816.64"/>
  <line class="st2" x1="603.15" y1="816.64" x2="601.88" y2="816.64"/>
  <line class="st2" x1="599.95" y1="816.64" x2="598.69" y2="816.64"/>
  <line class="st2" x1="631.29" y1="816.64" x2="629.73" y2="816.64"/>
  <line class="st2" x1="627.87" y1="816.64" x2="626.61" y2="816.64"/>
  <line class="st2" x1="624.68" y1="816.64" x2="623.42" y2="816.64"/>
  <line class="st2" x1="621.56" y1="816.64" x2="620.3" y2="816.64"/>
  <line class="st2" x1="618.37" y1="816.64" x2="617.11" y2="816.64"/>
  <path class="st6" d="M633.52,804.35c0-.96.78-1.74,1.75-1.74s1.75.78,1.75,1.74-.78,1.75-1.75,1.75-1.75-.78-1.75-1.75"/>
  <line class="st2" x1="597.43" y1="768.97" x2="568.99" y2="768.97"/>
  <path class="st2" d="M597.39,797.41c-15.69,0-28.4-12.72-28.4-28.4"/>
  <line class="st2" x1="597.43" y1="797.33" x2="597.43" y2="768.97"/>
  <line class="st2" x1="552.65" y1="712.09" x2="552.65" y2="740.53"/>
  <path class="st2" d="M581.02,712.13c0,15.69-12.72,28.4-28.4,28.4"/>
  <line class="st2" x1="581.09" y1="712.09" x2="552.65" y2="712.09"/>
  <polyline class="st6" points="600.4 758.8 621.41 758.8 621.41 716.69 600.4 716.69 600.4 758.8"/>
  <polyline class="st2" points="621.41 746.47 600.4 746.47 600.4 758.8 621.41 758.8 621.41 746.47"/>
  <line class="st2" x1="618.96" y1="752.41" x2="613.39" y2="752.41"/>
  <line class="st2" x1="608.49" y1="752.41" x2="602.85" y2="752.41"/>
  <line class="st2" x1="605.67" y1="749.66" x2="605.67" y2="755.23"/>
  <line class="st2" x1="616.14" y1="749.66" x2="616.14" y2="755.23"/>
  <polyline class="st2" points="603.89 720.18 617.92 720.18 617.92 734.22 603.89 734.22 603.89 720.18"/>
  <polyline class="st2" points="621.41 737.71 621.41 716.69 600.4 716.69 600.4 737.71 621.41 737.71"/>
  <line class="st2" x1="619.85" y1="727.16" x2="614.28" y2="727.16"/>
  <polyline class="st6" points="538.69 788.28 556.59 788.05 556.51 769.49 538.17 769.71 538.69 788.28"/>
  <line class="st7" x1="538.62" y1="785.38" x2="541.52" y2="788.28"/>
  <line class="st7" x1="538.47" y1="780.48" x2="546.19" y2="788.2"/>
  <line class="st7" x1="538.4" y1="775.65" x2="550.8" y2="788.13"/>
  <line class="st7" x1="538.25" y1="770.75" x2="555.48" y2="788.05"/>
  <line class="st7" x1="541.81" y1="769.64" x2="556.51" y2="784.41"/>
  <line class="st7" x1="546.49" y1="769.56" x2="556.51" y2="779.66"/>
  <line class="st7" x1="551.17" y1="769.49" x2="556.51" y2="774.91"/>
  <line class="st7" x1="541.66" y1="769.64" x2="538.32" y2="773.05"/>
  <line class="st7" x1="546.49" y1="769.56" x2="538.4" y2="777.66"/>
  <line class="st7" x1="551.24" y1="769.49" x2="538.55" y2="782.26"/>
  <line class="st7" x1="556.07" y1="769.49" x2="538.69" y2="786.79"/>
  <line class="st7" x1="556.51" y1="773.72" x2="541.96" y2="788.2"/>
  <line class="st7" x1="556.51" y1="778.4" x2="546.79" y2="788.2"/>
  <line class="st7" x1="556.51" y1="783.15" x2="551.54" y2="788.13"/>
  <path class="st6" d="M619.33,812.34v-9.25c0-.21-.13-.37-.3-.37h-16.86c-.21,0-.37.17-.37.37v9.25"/>
  <path class="st2" d="M609.9,810.63c0-.35.28-.63.63-.63s.63.28.63.63-.28.63-.63.63-.63-.28-.63-.63"/>
  <path class="st2" d="M609.75,806.17c0-.43.35-.78.78-.78s.78.35.78.78-.35.78-.78.78-.78-.35-.78-.78"/>
  <path class="st2" d="M609.38,806.17c0-.64.52-1.15,1.15-1.15s1.15.52,1.15,1.15-.52,1.15-1.15,1.15-1.15-.52-1.15-1.15"/>
  <path class="st2" d="M602.55,803.09h16.04c.2,0,.37.17.37.37v5.42c0,.2-.17.37-.37.37h-16.04c-.2,0-.37-.17-.37-.37v-5.42c0-.2.17-.37.37-.37Z"/>
  <line class="st2" x1="635.3" y1="812.11" x2="635.3" y2="804.31"/>
  <line class="st9" x1="654.98" y1="741.2" x2="625.65" y2="715.58"/>
  <line class="st9" x1="625.65" y1="741.2" x2="654.98" y2="715.58"/>
  <polygon class="st0" points="547.08 710.38 546.82 710.38 544.41 710.38 543.15 710.38 543.15 715.58 544.41 715.58 544.41 727.24 544.41 750.7 544.41 756.35 544.41 766.56 544.41 769.64 549.68 769.56 549.68 715.58 550.95 715.58 550.95 710.38 547.08 710.38"/>
  <line class="st2" x1="639.51" y1="974.72" x2="560.49" y2="974.72"/>
  <g>
    <path class="st2" d="M585.41,974.16s0,.02,0,.03"/>
    <path class="st10" d="M585.39,974.6c-.28,3.08-3.06,12.16-3.78,12.16l-19.23-12.91-.23-.16"/>
    <line class="st2" x1="561.97" y1="973.57" x2="561.94" y2="973.55"/>
  </g>
  <polygon class="st0" points="558.63 955.94 558.63 950.89 550.3 950.89 550.3 788.13 544.94 788.2 544.94 950.89 536.73 950.89 536.73 955.94 534.87 955.94 534.87 974.65 560.49 974.72 560.49 955.94 558.63 955.94"/>
  <g>
    <rect class="st1" x="532.53" y="898.59" width="70.16" height="31.57" transform="translate(1481.99 346.77) rotate(90)"/>
    <rect class="st1" x="558.84" y="924.29" width="17.54" height="17.54" rx="1.42" ry="1.42" transform="translate(1135.22 1866.12) rotate(-180)"/>
    <polygon class="st1" points="551.42 940.28 551.42 879.12 583.4 879.12 583.4 924.46 551.42 940.28"/>
  </g>
  <g>
    <path class="st1" d="M639.91,947.59c-5.24-3.67-10.47-7.33-15.71-11-.27-.1-.59.02-.78.29-5.21,5.66-9.59,12.09-12.95,18.99-.06.11-.04.24.05.32l1.46,1.03,14.11,9.95,13.82-19.58"/>
    <path class="st1" d="M640.93,948.55c-.45-.4-.93-.75-1.45-1.04-.1-.05-.24,0-.32.1-4.57,6.16-9.02,12.4-13.37,18.72-.09.17-.06.37.07.47.5.42,1.04.79,1.62,1.1"/>
    <path class="st1" d="M637.47,947.06c.27-.38,1.39-.05,2.51.74.09.07.17.13.26.2l.7.56c.08.08.09.22,0,.33l-13.45,19.06-1.62-1.14c-.52-.38-1.04-.77-1.57-1.15-.18-.22-.18-.56.01-.83,3.38-6.6,7.85-12.63,13.16-17.77Z"/>
    <path class="st1" d="M638.57,947.66c-.28-.07-.55-.15-.81-.25-.33-.06-.66-.15-.98-.25-.44-.14-.88-.27-1.32-.4-.61-.18-1.19-.41-1.75-.7-.34-.17-.68-.36-1.01-.56-.35-.21-.7-.42-1.04-.64-.82-.52-1.61-1.07-2.37-1.68-.77-.61-1.48-1.27-2.14-2.01-.5-.55-.93-1.14-1.32-1.79-.24-.41-.35-.83-.34-1.34,0-.04.01-.08.04-.12l.24-.34c.1-.07.19-.09.3-.07,5.04,3.56,10.09,7.12,15.13,10.68.09.06.1.2.03.3l-.07.11h0c-.08.1-.21.14-.3.08-.23-.12-.46-.24-.69-.36-.29-.18-.59-.33-.91-.46l-.67-.22Z"/>
    <path class="st1" d="M625.62,966.01c-.16-.24-.33-.47-.51-.68-.17-.29-.36-.57-.56-.84-.27-.37-.55-.74-.82-1.11-.37-.51-.79-.98-1.24-1.41-.28-.26-.57-.52-.87-.76-.32-.26-.63-.51-.95-.77-.76-.6-1.55-1.16-2.37-1.68-.83-.52-1.7-.97-2.61-1.34-.69-.28-1.39-.5-2.13-.64-.47-.09-.9-.05-1.38.12-.04.02-.07.04-.1.08l-.24.34c-.03.12-.02.21.03.3,5.04,3.56,10.09,7.12,15.13,10.68.09.06.22.03.3-.07l.07-.11h0c.07-.11.06-.24-.02-.31-.19-.18-.38-.35-.57-.53-.27-.21-.51-.45-.74-.71l-.43-.56Z"/>
  </g>
  <circle class="st3" cx="638.06" cy="930.58" r="6.97"/>
  <g>
    <g>
      <path class="st6" d="M627.41,873.46c0-4.55,3.93-8.24,8.77-8.24,3.57,0,7.1,2.33,8.31,5.62.17.45.5,1.39.46,2.63-.15,3.87-4.01,8.24-8.77,8.24-4.84,0-8.77-3.69-8.77-8.24Z"/>
      <path class="st2" d="M643.79,871.61c0-2.8-3.4-5.06-7.61-5.06"/>
      <path class="st2" d="M628.57,871.61c0-2.8,3.4-5.06,7.61-5.06"/>
      <path class="st2" d="M628.57,871.61c0,.55-.44,1-.98,1"/>
      <path class="st2" d="M643.79,871.61c0,.55.47,1,1.06,1"/>
    </g>
    <g>
      <path class="st6" d="M627.41,901.76c0,4.55,3.93,8.24,8.77,8.24,3.57,0,7.1-2.33,8.31-5.62.17-.45.5-1.39.46-2.63-.15-3.87-4.01-8.24-8.77-8.24s-8.77,3.69-8.77,8.24Z"/>
      <path class="st2" d="M643.79,903.61c0,2.8-3.4,5.06-7.61,5.06"/>
      <path class="st2" d="M628.57,903.61c0,2.8,3.4,5.06,7.61,5.06"/>
      <path class="st2" d="M628.57,903.61c0-.55-.44-1-.98-1"/>
      <path class="st2" d="M643.79,903.61c0-.55.47-1,1.06-1"/>
    </g>
    <rect class="st6" x="624.78" y="875.35" width="22.8" height="25.84" transform="translate(-252.1 1524.46) rotate(-90)"/>
  </g>
  <g>
    <polyline class="st8" points="649.76 944.71 648.43 944.71 648.43 929 649.76 929"/>
    <polyline class="st8" points="648.43 928.11 648.43 945.67 647.02 945.67 647.02 928.11 648.43 928.11"/>
  </g>
  <polygon class="st0" points="595.28 799.12 595.28 816.64 649.7 816.64 649.7 956.64 639.51 956.61 639.51 974.72 665.13 974.72 665.13 956.68 654.98 956.65 654.98 741.2 649.7 741.2 625.65 741.2 625.65 715.58 641.76 715.58 641.76 710.38 582.88 710.38 582.88 715.58 621.41 715.58 621.41 759.46 595.28 759.46 595.28 767.19 599.51 767.19 599.51 763.7 625.65 763.7 625.65 745.43 649.7 745.43 649.7 812.41 599.51 812.41 599.51 799.12 595.28 799.12"/>
</svg>