<?xml version="1.0" encoding="UTF-8"?>
<svg id="Lag_1" xmlns="http://www.w3.org/2000/svg" version="1.1" viewBox="0 0 1200 1697.14">
  <!-- Generator: Adobe Illustrator 29.6.0, SVG Export Plug-In . SVG Version: 2.1.1 Build 207)  -->
  <defs>
    <style>
      .st0 {
        fill: #000016;
      }

      .st1 {
        stroke: #060305;
      }

      .st1, .st2, .st3, .st4, .st5, .st6, .st7, .st8, .st9 {
        stroke-width: .18px;
      }

      .st1, .st2, .st3, .st4, .st5, .st7, .st8, .st9 {
        stroke-linejoin: round;
      }

      .st1, .st2, .st4, .st5, .st7, .st8 {
        stroke-linecap: round;
      }

      .st1, .st6, .st8, .st9 {
        fill: #fff;
      }

      .st10 {
        fill: #e8e3e0;
      }

      .st2, .st3, .st4, .st5, .st6, .st7, .st8, .st9 {
        stroke: #000;
      }

      .st2, .st3, .st4, .st5, .st7 {
        fill: none;
      }

      .st4 {
        stroke-dasharray: .06 .43;
      }

      .st5 {
        stroke-dasharray: .06 .43;
      }

      .st6 {
        stroke-miterlimit: 10;
      }

      .st7 {
        stroke-dasharray: .06 .43;
      }
    </style>
  </defs>
  <polygon class="st10" points="676.03 860.89 677.87 860.9 675.65 703.06 676.79 703.04 675.31 667.62 609.98 670.28 609.35 729.92 523.86 729.1 527.06 805.8 581.96 807.53 581.96 807.49 610.72 807.64 610.53 840.84 582.45 840.7 580.94 886.32 548.61 885.3 547.93 1002.92 550.68 1002.81 551.9 1031.92 558.91 1031.64 558.86 1030.33 587.14 1029.18 587.2 1030.49 675.13 1026.91 676.03 860.89"/>
  <path class="st6" d="M535.85,797.09l10.26.06c3.95.02,7.16-2.8,7.18-6.3.02-3.51-3.16-6.36-7.11-6.39l-10.26-.06-.07,12.69Z"/>
  <polygon class="st9" points="535.96 776.84 535.81 803.78 524.93 803.79 525.06 776.78 535.96 776.84"/>
  <polyline class="st0" points="609.78 813.38 605.59 813.32 605.64 809.06 584.47 808.74 584.52 804.55 605.69 804.87 605.84 795.67 610.1 795.72 609.78 813.38"/>
  <polyline class="st0" points="609.46 834.55 609.35 842.85 583.91 842.48 584.04 838.21 605.21 838.54 605.27 834.5 609.46 834.55"/>
  <polyline class="st8" points="609.78 813.38 609.46 834.55 607.74 834.55 608.06 813.37 609.78 813.38"/>
  <polyline class="st0" points="583.21 890.81 608.57 891.18 608.7 886.99 583.26 886.54 583.21 890.81"/>
  <polyline class="st8" points="605.12 843.7 583.95 843.37 583.3 885.72 604.47 886.04 605.12 843.7"/>
  <polyline class="st2" points="583.71 855.72 604.88 856.05 605.12 843.7 583.95 843.37 583.71 855.72"/>
  <line class="st2" x1="586.3" y1="849.71" x2="591.92" y2="849.85"/>
  <line class="st2" x1="596.85" y1="849.87" x2="602.54" y2="850.01"/>
  <line class="st2" x1="599.66" y1="852.75" x2="599.73" y2="847.14"/>
  <line class="st2" x1="589.11" y1="852.58" x2="589.18" y2="846.97"/>
  <polyline class="st2" points="600.96 882.45 586.89 882.21 587.06 868.07 601.2 868.31 600.96 882.45"/>
  <polyline class="st2" points="583.62 864.55 583.3 885.72 604.47 886.04 604.8 864.87 583.62 864.55"/>
  <line class="st2" x1="585.03" y1="875.11" x2="590.64" y2="875.25"/>
  <polyline class="st8" points="587.92 1030.58 587.92 1025.27 589.72 1025.27 589.71 1030.58 587.92 1030.58"/>
  <polyline class="st8" points="621.49 1030.62 621.49 1025.31 623.21 1025.31 623.21 1030.62 621.49 1030.62"/>
  <polyline class="st8" points="589.71 1030.58 621.49 1030.62 621.49 1028.82 589.71 1028.78 589.71 1030.58"/>
  <polyline class="st8" points="561.45 1030.54 561.45 1025.24 563.25 1025.24 563.24 1030.54 561.45 1030.54"/>
  <polyline class="st8" points="586.12 1030.58 586.13 1025.27 587.92 1025.27 587.92 1030.58 586.12 1030.58"/>
  <polyline class="st8" points="586.12 1030.58 563.24 1030.54 563.24 1028.75 586.12 1028.78 586.12 1030.58"/>
  <g>
    <line class="st2" x1="607.26" y1="793.97" x2="639.43" y2="794.44"/>
    <path class="st2" d="M607.71,761.85c17.72.27,31.86,14.85,31.6,32.57"/>
    <line class="st2" x1="607.73" y1="761.8" x2="607.26" y2="793.97"/>
  </g>
  <line class="st2" x1="623.25" y1="1031.66" x2="561.49" y2="1031.59"/>
  <rect class="st9" x="591.31" y="890.87" width="17.2" height="21.22" transform="translate(4.89 -3.23) rotate(.31)"/>
  <rect class="st9" x="573.16" y="890.77" width="17.28" height="21.22" transform="translate(4.88 -3.13) rotate(.31)"/>
  <rect class="st9" x="555.06" y="890.67" width="17.29" height="21.22" transform="translate(4.88 -3.04) rotate(.31)"/>
  <rect class="st7" x="529.56" y="733.82" width="31.32" height="38.42" transform="translate(1082.89 1511.47) rotate(-179.43)"/>
  <path class="st8" d="M535.59,752.89c.01-.97.81-1.74,1.78-1.73.97.01,1.74.81,1.73,1.78s-.81,1.74-1.78,1.73c-.97-.01-1.74-.81-1.73-1.78"/>
  <polyline class="st8" points="584.9 802.75 601.46 802.87 601.42 804.77 584.86 804.65 584.9 802.75"/>
  <polyline class="st8" points="582.76 800.82 603.93 801.15 603.9 803.99 582.73 803.67 582.76 800.82"/>
  <polyline class="st8" points="589.41 743.74 605.27 743.98 605.48 734.4 589.54 734.16 589.41 743.74"/>
  <path class="st9" d="M571.43,733.65l-.16,9.3c0,.21.13.38.29.38l16.96.3c.21,0,.38-.16.38-.37l.16-9.3"/>
  <path class="st3" d="M580.88,735.54c0,.35-.3.63-.65.62s-.63-.3-.62-.65.3-.63.65-.62.63.3.62.65"/>
  <path class="st3" d="M580.95,740.02c0,.43-.36.78-.8.77s-.78-.36-.77-.8.36-.78.8-.77.78.36.77.8"/>
  <path class="st3" d="M581.33,740.03c-.01.64-.54,1.15-1.18,1.14s-1.15-.54-1.14-1.18.54-1.15,1.18-1.14,1.15.54,1.14,1.18"/>
  <path class="st3" d="M577.4,731.57h5.46c.21,0,.37.17.37.37v16.14c0,.21-.17.37-.37.37h-5.45c-.21,0-.37-.17-.37-.37v-16.14c0-.21.17-.37.37-.37Z" transform="translate(-169.96 1307.05) rotate(-88.99)"/>
  <path class="st2" d="M588.72,743.37c0,.19-.16.33-.34.33"/>
  <line class="st2" x1="588.72" y1="743.31" x2="588.88" y2="734.49"/>
  <line class="st2" x1="588.41" y1="742.95" x2="588.48" y2="737.49"/>
  <path class="st2" d="M588.15,737.21c.19,0,.33.16.33.34"/>
  <line class="st2" x1="529.53" y1="752.83" x2="537.39" y2="752.95"/>
  <g>
    <path class="st2" d="M586.18,1030.5s0,.02,0,.03"/>
    <path class="st4" d="M586.2,1030.95c0,3.11-1.9,12.45-2.6,12.51l-19.84-11.29-.24-.14"/>
    <line class="st2" x1="563.33" y1="1031.91" x2="563.31" y2="1031.9"/>
  </g>
  <g>
    <line class="st2" x1="608.04" y1="686.54" x2="640.21" y2="686.81"/>
    <path class="st2" d="M607.75,718.66c17.72.14,32.2-14.11,32.34-31.83"/>
    <line class="st2" x1="607.77" y1="718.71" x2="608.04" y2="686.54"/>
  </g>
  <g>
    <path class="st2" d="M610.24,813.37s.02,0,.03,0"/>
    <path class="st5" d="M610.69,813.4c2.89.3,11.24,2.88,11.23,3.52l-12.18,17.23-.14.19"/>
    <line class="st2" x1="609.47" y1="834.52" x2="609.46" y2="834.54"/>
  </g>
  <line class="st2" x1="584.47" y1="808.74" x2="605.21" y2="838.54"/>
  <line class="st2" x1="605.64" y1="809.06" x2="584.04" y2="838.21"/>
  <polygon class="st0" points="546.91 1006.61 546.93 1006.61 548.83 883.92 576.96 884.33 578.05 810.79 521.94 809.89 523.06 733.13 522.67 733.12 522.77 727.84 605.79 729.13 605.95 722.09 611.19 722.18 610.65 760.11 606.39 760.06 606.76 734.47 529.49 733.24 528.41 803.64 584.52 804.55 583.21 890.81 555.08 890.39 553.29 1006.65 561.44 1006.69 561.49 1031.59 546.54 1031.57 546.91 1006.61"/>
  <polyline class="st8" points="676.09 934.03 676.03 932.23 670.79 932.27 670.78 933.99 676.09 934.03 676 977.1 674.21 977.09 674.3 934.02 676.09 934.03"/>
  <polyline class="st8" points="676 978.82 670.68 978.86 670.7 977.07 676 977.1 676 978.82"/>
  <line class="st2" x1="677.04" y1="978.8" x2="677.15" y2="932.29"/>
  <polyline class="st0" points="623.53 1009.78 655.61 1009.96 655.67 978.85 677.21 978.93 676.98 1032.03 623.36 1031.69 623.53 1009.78"/>
  <polyline class="st8" points="676.7 862.75 676.64 860.95 671.4 860.99 671.39 862.71 676.7 862.75 676.61 905.83 674.82 905.81 674.91 862.74 676.7 862.75"/>
  <polyline class="st8" points="676.6 907.55 671.29 907.58 671.3 905.79 676.61 905.83 676.6 907.55"/>
  <line class="st2" x1="677.65" y1="907.52" x2="677.76" y2="861.01"/>
  <polyline class="st0" points="677.47 932.41 655.71 932.25 655.73 907.56 677.57 907.66 677.47 932.41"/>
  <polyline class="st8" points="677.15 778.25 677.08 776.45 671.85 776.5 671.84 778.22 677.15 778.25 677.06 821.33 675.26 821.31 675.35 778.24 677.15 778.25"/>
  <polyline class="st8" points="677.05 823.05 671.74 823.09 671.75 821.29 677.06 821.33 677.05 823.05"/>
  <line class="st2" x1="678.1" y1="823.02" x2="678.2" y2="776.51"/>
  <polyline class="st0" points="677.83 861.07 655.77 860.96 655.81 822.89 677.95 823 677.83 861.07"/>
  <polyline class="st8" points="677.57 706.77 677.51 704.97 672.27 705.01 672.27 706.73 677.57 706.77 677.49 749.84 675.69 749.83 675.78 706.76 677.57 706.77"/>
  <polyline class="st8" points="677.48 751.56 672.16 751.6 672.18 749.81 677.49 749.84 677.48 751.56"/>
  <line class="st2" x1="678.52" y1="751.54" x2="678.63" y2="705.03"/>
  <polyline class="st0" points="678.21 776.41 655.85 776.29 655.95 751.53 678.31 751.65 678.21 776.41"/>
  <polygon class="st0" points="520.94 653.69 520.53 676.94 608.58 677.41 608.49 683.79 613.81 683.8 613.9 677.44 656.41 677.67 656.11 705.2 678.7 705.49 679.47 654.94 520.94 653.69"/>
  <g>
    <g>
      <path class="st8" d="M632.29,971.72c-.06,4.58,3.83,8.35,8.7,8.42,3.59.05,7.17-2.25,8.44-5.53.17-.45.53-1.39.5-2.64-.1-3.9-3.92-8.35-8.7-8.42-4.87-.07-8.87,3.59-8.94,8.17Z"/>
      <path class="st2" d="M648.74,973.81c-.04,2.81-3.5,5.04-7.73,4.98"/>
      <path class="st2" d="M633.43,973.6c-.04,2.81,3.35,5.14,7.59,5.2"/>
      <path class="st2" d="M633.43,973.6c0-.56-.43-1.01-.97-1.02"/>
      <path class="st2" d="M648.74,973.81c0-.56.49-1,1.08-.99"/>
    </g>
    <g>
      <path class="st8" d="M632.69,943.25c.06-4.58,4.07-8.24,8.94-8.17,3.59.05,7.11,2.45,8.28,5.77.16.45.49,1.41.42,2.65-.21,3.89-4.15,8.24-8.94,8.17-4.87-.07-8.77-3.84-8.7-8.42Z"/>
      <path class="st2" d="M649.2,941.63c.04-2.81-3.35-5.14-7.59-5.2"/>
      <path class="st2" d="M633.88,941.41c.04-2.81,3.5-5.04,7.73-4.98"/>
      <path class="st2" d="M633.88,941.41c0,.56-.45,1-1,.99"/>
      <path class="st2" d="M649.2,941.63c0,.56.46,1.01,1.05,1.02"/>
    </g>
    <rect class="st8" x="629.85" y="943.94" width="22.94" height="26" transform="translate(1607.22 329.19) rotate(90.81)"/>
  </g>
  <g>
    <rect class="st1" x="535.54" y="954.08" width="70.59" height="31.76" transform="translate(1547.51 410.7) rotate(90.68)"/>
    <rect class="st1" x="561.79" y="979.93" width="17.65" height="17.65" rx="1.42" ry="1.42" transform="translate(11.8 -6.72) rotate(.68)"/>
    <polygon class="st1" points="586.81 996.21 587.54 934.68 555.38 934.29 554.84 979.91 586.81 996.21"/>
  </g>
</svg>