<?xml version="1.0" encoding="UTF-8"?>
<svg id="Lag_1" xmlns="http://www.w3.org/2000/svg" version="1.1" viewBox="0 0 1200 1697.14">
  <!-- Generator: Adobe Illustrator 29.6.0, SVG Export Plug-In . SVG Version: 2.1.1 Build 207)  -->
  <defs>
    <style>
      .st0 {
        fill: #000016;
      }

      .st1 {
        stroke-dasharray: .06 .43;
      }

      .st1, .st2, .st3, .st4, .st5, .st6, .st7, .st8, .st9, .st10, .st11 {
        stroke-width: .18px;
      }

      .st1, .st2, .st3, .st4, .st6, .st8, .st9, .st10, .st11 {
        stroke-linejoin: round;
      }

      .st1, .st2, .st3, .st6, .st8, .st9, .st10 {
        stroke-linecap: round;
      }

      .st1, .st3, .st4, .st5, .st7, .st8, .st9, .st10, .st11 {
        stroke: #000;
      }

      .st1, .st3, .st4, .st6, .st7, .st8, .st9 {
        fill: none;
      }

      .st2 {
        stroke: #060305;
      }

      .st2, .st5, .st10, .st11 {
        fill: #fff;
      }

      .st12 {
        fill: #e8e3e0;
      }

      .st5, .st7 {
        stroke-miterlimit: 10;
      }

      .st6 {
        stroke: #767676;
      }

      .st8 {
        stroke-dasharray: .06 .43;
      }

      .st9 {
        stroke-dasharray: .06 .43;
      }
    </style>
  </defs>
  <path class="st12" d="M530.78,993.21l114.7.3,1.16-143.01,25.82.21.22-82.36-52.61,2.55-3.71-76.36-84.79-.22-.78,298.89ZM589.98,744.34l25.9-1.26,1.43,29.56-25.9,1.26-1.43-29.56Z"/>
  <polyline class="st0" points="589.56 747.97 589.66 740.79 615.03 740.98 615.01 745.24 593.83 745.07 593.83 748.07 589.56 747.97"/>
  <polyline class="st0" points="593.58 772.39 614.77 772.56 614.75 776.83 593.57 776.66 593.49 785.79 589.3 785.77 589.39 769.16 593.66 769.25 593.58 772.39"/>
  <polyline class="st0" points="614.75 776.83 614.82 773.61 670.96 774.1 670.96 777.24 614.75 776.83"/>
  <polyline class="st0" points="604.93 995.41 604.91 970.27 655.78 970.2 656.02 995.1 604.93 995.41"/>
  <polyline class="st10" points="610.05 837.29 594.18 837.16 594.05 846.74 609.99 846.87 610.05 837.29"/>
  <line class="st3" x1="670.14" y1="828.09" x2="662.28" y2="828.02"/>
  <path class="st10" d="M663.99,828c0,.97-.8,1.75-1.77,1.74-.97,0-1.75-.8-1.74-1.77s.8-1.75,1.77-1.74c.97,0,1.75.8,1.74,1.77"/>
  <polyline class="st10" points="569.58 994.58 569.54 989.27 571.34 989.26 571.37 994.57 569.58 994.58"/>
  <polyline class="st10" points="603.16 994.37 603.13 989.06 604.85 989.05 604.88 994.36 603.16 994.37"/>
  <polyline class="st10" points="571.37 994.57 603.16 994.37 603.15 992.58 571.36 992.77 571.37 994.57"/>
  <polyline class="st10" points="543.1 994.74 543.06 989.43 544.86 989.42 544.89 994.73 543.1 994.74"/>
  <polyline class="st10" points="567.86 994.59 567.82 989.28 569.54 989.27 569.58 994.58 567.86 994.59"/>
  <polyline class="st10" points="567.86 994.59 544.89 994.73 544.88 992.94 567.84 992.8 567.86 994.59"/>
  <g>
    <line class="st3" x1="592.08" y1="787.58" x2="559.97" y2="787.34"/>
    <path class="st3" d="M591.79,819.64c-17.73-.14-31.99-14.62-31.85-32.35"/>
    <line class="st3" x1="591.84" y1="819.69" x2="592.08" y2="787.58"/>
  </g>
  <line class="st3" x1="604.93" y1="995.41" x2="543.15" y2="995.79"/>
  <line class="st6" x1="532.97" y1="894" x2="533.05" y2="880.23"/>
  <polygon class="st0" points="522.61 970.45 529.25 970.44 531.41 693.86 537.77 693.85 535.61 970.43 543.11 970.43 543.15 995.79 522.66 995.96 522.61 970.45"/>
  <polyline class="st10" points="593.89 740.06 615.07 740.3 615.41 697.86 594.22 697.69 593.89 740.06"/>
  <polyline class="st3" points="615.14 727.88 593.96 727.71 593.89 740.06 615.07 740.3 615.14 727.88"/>
  <line class="st3" x1="612.67" y1="733.91" x2="606.98" y2="733.81"/>
  <line class="st3" x1="602.04" y1="733.83" x2="596.42" y2="733.72"/>
  <line class="st3" x1="599.28" y1="730.97" x2="599.18" y2="736.58"/>
  <line class="st3" x1="609.83" y1="731.05" x2="609.81" y2="736.67"/>
  <polyline class="st3" points="597.69 701.27 611.84 701.4 611.7 715.55 597.63 715.41 597.69 701.27"/>
  <polyline class="st3" points="615.24 719.04 615.41 697.86 594.22 697.69 594.05 718.87 615.24 719.04"/>
  <line class="st3" x1="613.75" y1="708.49" x2="608.06" y2="708.47"/>
  <rect class="st8" x="638.56" y="809.08" width="31.62" height="38.4" transform="translate(1306.56 1658.28) rotate(-179.85)"/>
  <rect class="st11" x="624.71" y="851.72" width="17.1" height="21.22" transform="translate(7.03 -5.12) rotate(.47)"/>
  <rect class="st11" x="606.67" y="851.57" width="17.18" height="21.22" transform="translate(7.02 -4.97) rotate(.47)"/>
  <rect class="st11" x="588.68" y="851.43" width="17.19" height="21.22" transform="translate(7.02 -4.82) rotate(.47)"/>
  <path class="st11" d="M628.12,847.24l.09-9.31c0-.21-.13-.37-.3-.38l-16.96-.17c-.21,0-.38.16-.38.37l-.09,9.31"/>
  <path class="st4" d="M618.65,845.42c0-.35.29-.63.64-.63s.63.29.63.64-.29.63-.64.63-.63-.29-.63-.64"/>
  <path class="st4" d="M618.54,840.94c0-.43.36-.78.79-.78s.78.36.78.79-.36.78-.79.78-.78-.36-.78-.79"/>
  <path class="st4" d="M618.17,840.93c0-.64.53-1.15,1.17-1.15s1.15.53,1.15,1.17-.53,1.15-1.17,1.15-1.15-.53-1.15-1.17"/>
  <path class="st4" d="M616.64,832.5h5.46c.21,0,.37.17.37.37v16.15c0,.21-.17.37-.37.37h-5.46c-.21,0-.37-.17-.37-.37v-16.15c0-.21.17-.37.37-.37Z" transform="translate(-227.85 1451.7) rotate(-89.42)"/>
  <polyline class="st0" points="589.01 821.48 588.73 851.27 642.25 851.74 642.27 847.47 593.02 847.09 593.2 821.5 589.01 821.48"/>
  <path class="st5" d="M663.39,784.11l-10.26.02c-3.95,0-7.14,2.85-7.14,6.36,0,3.51,3.21,6.34,7.16,6.34l10.26-.02-.02-12.69Z"/>
  <polygon class="st11" points="663.42 804.37 663.38 777.42 674.26 777.33 674.33 804.36 663.42 804.37"/>
  <polyline class="st0" points="670.62 808.69 663.58 808.65 663.6 804.39 670.71 804.42"/>
  <polyline class="st10" points="614.73 778.78 598.16 778.78 598.18 776.88 614.75 776.88 614.73 778.78"/>
  <polyline class="st10" points="616.88 780.69 595.7 780.52 595.71 777.68 616.89 777.85 616.88 780.69"/>
  <polygon class="st0" points="615.38 696.84 576.64 696.56 576.68 691.25 621.91 691.6 621.9 696.9 621.81 696.9 621.25 767.31 677.39 767.8 676.71 854.11 648.57 853.9 647.63 970.22 641.27 970.23 642.27 847.47 670.41 847.68 670.96 774.1 614.82 773.61 615.38 696.84"/>
  <g>
    <path class="st3" d="M590.29,769.18s-.02,0-.03,0"/>
    <path class="st9" d="M589.84,769.2c-2.91.03-11.5-1.58-11.57-2.22l10.14-18.51.12-.2"/>
    <line class="st3" x1="588.64" y1="748.08" x2="588.65" y2="748.05"/>
  </g>
  <g>
    <path class="st3" d="M567.89,993.85s0,.02,0,.03"/>
    <path class="st1" d="M567.91,994.3c0,2.91-1.82,11.53-2.52,11.6l-20.04-9.98-.23-.12"/>
    <line class="st3" x1="544.92" y1="995.69" x2="544.9" y2="995.68"/>
  </g>
  <line class="st7" x1="593.83" y1="745.07" x2="614.82" y2="773.61"/>
  <line class="st7" x1="615.01" y1="745.24" x2="593.58" y2="772.39"/>
  <polyline class="st10" points="589.35 769.14 589.52 747.96 591.32 748.02 591.15 769.2 589.35 769.14"/>
  <line class="st3" x1="541.66" y1="694.11" x2="541.35" y2="726.23"/>
  <path class="st3" d="M573.72,694.34c-.14,17.73-14.63,31.98-32.36,31.84"/>
  <line class="st3" x1="573.77" y1="694.35" x2="541.66" y2="694.11"/>
  <g>
    <rect class="st2" x="588.4" y="917.59" width="70.61" height="31.78" transform="translate(1564.53 320.92) rotate(90.68)"/>
    <rect class="st2" x="614.65" y="943.45" width="17.65" height="17.65" rx="1.42" ry="1.42" transform="translate(11.37 -7.35) rotate(.68)"/>
    <polygon class="st2" points="639.69 959.74 640.42 898.18 608.24 897.8 607.7 943.43 639.69 959.74"/>
  </g>
  <g>
    <g>
      <path class="st10" d="M541.25,940.63c-.06,4.58,3.83,8.35,8.71,8.42,3.59.05,7.18-2.25,8.45-5.53.17-.45.53-1.39.5-2.64-.1-3.9-3.92-8.35-8.71-8.42-4.87-.07-8.88,3.59-8.94,8.17Z"/>
      <path class="st3" d="M557.71,942.72c-.04,2.82-3.5,5.05-7.73,4.99"/>
      <path class="st3" d="M542.39,942.51c-.04,2.82,3.35,5.14,7.59,5.2"/>
      <path class="st3" d="M542.39,942.51c0-.56-.43-1.01-.97-1.02"/>
      <path class="st3" d="M557.71,942.72c0-.56.49-1,1.08-.99"/>
    </g>
    <g>
      <path class="st10" d="M541.65,912.15c.06-4.58,4.07-8.24,8.94-8.17,3.59.05,7.11,2.45,8.29,5.77.16.45.49,1.41.42,2.65-.21,3.89-4.15,8.24-8.94,8.17-4.87-.07-8.77-3.84-8.71-8.42Z"/>
      <path class="st3" d="M558.16,910.53c.04-2.82-3.35-5.14-7.59-5.2"/>
      <path class="st3" d="M542.84,910.31c.04-2.82,3.5-5.05,7.73-4.99"/>
      <path class="st3" d="M542.84,910.31c0,.56-.45,1-1,.99"/>
      <path class="st3" d="M558.16,910.53c0,.56.46,1.01,1.05,1.02"/>
    </g>
    <rect class="st10" x="538.81" y="912.84" width="22.95" height="26.01" transform="translate(1483.81 388.68) rotate(90.81)"/>
  </g>
</svg>