<?xml version="1.0" encoding="UTF-8"?>
<svg id="Lag_1" xmlns="http://www.w3.org/2000/svg" version="1.1" viewBox="0 0 1200 1697.14">
  <!-- Generator: Adobe Illustrator 29.6.0, SVG Export Plug-In . SVG Version: 2.1.1 Build 207)  -->
  <defs>
    <style>
      .st0 {
        stroke-dasharray: .06 .42;
      }

      .st0, .st1, .st2, .st3, .st4, .st5, .st6, .st7, .st8, .st9 {
        stroke-width: .18px;
      }

      .st0, .st1, .st2, .st4, .st5, .st6, .st8, .st9 {
        stroke-linejoin: round;
      }

      .st0, .st1, .st2, .st6, .st8 {
        stroke-linecap: round;
      }

      .st0, .st2, .st4, .st5, .st6 {
        fill: none;
      }

      .st0, .st2, .st4, .st6, .st7, .st8, .st9 {
        stroke: #000;
      }

      .st10 {
        fill: #000016;
      }

      .st1, .st3 {
        stroke: #060305;
      }

      .st1, .st3, .st7, .st8, .st9 {
        fill: #fff;
      }

      .st11 {
        fill: #e8e3e0;
      }

      .st3, .st7 {
        stroke-miterlimit: 10;
      }

      .st5 {
        stroke: #767676;
      }

      .st6 {
        stroke-dasharray: .06 .43;
      }
    </style>
  </defs>
  <polygon class="st11" points="626.28 957.65 653.38 957.65 653.38 723.45 546.66 723.45 546.66 987.12 626.28 987.12 626.28 957.65"/>
  <g>
    <polyline class="st2" points="621.84 914.2 621.84 914.23 621.87 914.23"/>
    <line class="st6" x1="622.3" y1="914.23" x2="650.05" y2="914.23"/>
    <polyline class="st2" points="650.26 914.23 650.29 914.23 650.29 914.2"/>
    <line class="st6" x1="650.29" y1="913.78" x2="650.29" y2="886.02"/>
    <polyline class="st2" points="650.29 885.81 650.29 885.78 650.26 885.78"/>
    <line class="st6" x1="649.84" y1="885.78" x2="622.08" y2="885.78"/>
    <polyline class="st2" points="621.87 885.78 621.84 885.78 621.84 885.81"/>
    <line class="st6" x1="621.84" y1="886.24" x2="621.84" y2="913.99"/>
  </g>
  <polyline class="st9" points="561.76 721.64 561.76 726.99 559.95 726.99 559.95 721.64 561.76 721.64"/>
  <polyline class="st4" points="612.92 721.64 561.76 721.64 561.76 723.45 612.92 723.37 612.92 721.64"/>
  <polyline class="st9" points="638.66 721.57 614.65 721.64 614.65 724.28 638.66 724.28 638.66 721.57"/>
  <polyline class="st9" points="640.39 721.57 640.46 726.91 638.66 726.91 638.66 721.57 640.39 721.57"/>
  <polyline class="st9" points="614.65 721.64 614.65 726.99 612.92 726.99 612.92 721.64 614.65 721.64"/>
  <line class="st4" x1="559.95" y1="720.51" x2="641.49" y2="720.44"/>
  <path class="st9" d="M634.34,893.65c0-.98.79-1.77,1.77-1.77s1.77.79,1.77,1.77c0,.98-.79,1.77-1.77,1.77s-1.77-.79-1.77-1.77"/>
  <line class="st4" x1="597.69" y1="929.51" x2="568.86" y2="929.51"/>
  <path class="st4" d="M568.94,929.47c0-15.9,12.89-28.79,28.79-28.79"/>
  <line class="st4" x1="597.69" y1="900.76" x2="597.69" y2="929.51"/>
  <line class="st4" x1="552.31" y1="987.16" x2="552.31" y2="958.33"/>
  <path class="st4" d="M552.34,958.33c15.9,0,28.79,12.89,28.79,28.79"/>
  <line class="st4" x1="581.13" y1="987.16" x2="552.31" y2="987.16"/>
  <polyline class="st9" points="600.7 939.82 621.99 939.82 621.99 982.49 600.7 982.49 600.7 939.82"/>
  <polyline class="st4" points="621.99 952.31 600.7 952.31 600.7 939.82 621.99 939.82 621.99 952.31"/>
  <line class="st4" x1="619.51" y1="946.29" x2="613.87" y2="946.29"/>
  <line class="st4" x1="608.82" y1="946.29" x2="603.18" y2="946.29"/>
  <line class="st4" x1="606.04" y1="949.07" x2="606.04" y2="943.43"/>
  <line class="st4" x1="616.65" y1="949.07" x2="616.65" y2="943.43"/>
  <polyline class="st4" points="604.23 978.95 618.46 978.95 618.46 964.73 604.23 964.73 604.23 978.95"/>
  <polyline class="st4" points="621.99 961.19 621.99 982.49 600.7 982.49 600.7 961.19 621.99 961.19"/>
  <line class="st4" x1="620.41" y1="971.88" x2="614.69" y2="971.88"/>
  <polyline class="st9" points="552.83 913.18 541.17 913.25 541.09 924.99 552.83 924.92 552.83 913.18"/>
  <line class="st5" x1="552.83" y1="917.54" x2="548.54" y2="913.18"/>
  <line class="st5" x1="552.83" y1="922.28" x2="543.73" y2="913.25"/>
  <line class="st5" x1="550.65" y1="924.92" x2="541.09" y2="915.36"/>
  <line class="st5" x1="545.91" y1="924.99" x2="541.09" y2="920.18"/>
  <line class="st5" x1="548.99" y1="924.92" x2="552.83" y2="921.08"/>
  <line class="st5" x1="544.18" y1="924.99" x2="552.83" y2="916.26"/>
  <line class="st5" x1="541.09" y1="923.26" x2="551.18" y2="913.18"/>
  <line class="st5" x1="541.09" y1="918.44" x2="546.36" y2="913.25"/>
  <path class="st7" d="M632.21,942.41v-10.34c0-3.98,2.86-7.2,6.39-7.2s6.39,3.22,6.39,7.2v10.34h-12.78Z"/>
  <polygon class="st9" points="650.79 942.41 626.3 942.41 626.23 953.37 650.79 953.4 650.79 942.41"/>
  <rect class="st9" x="632.97" y="859.84" width="17.76" height="21.37"/>
  <rect class="st9" x="614.23" y="859.84" width="17.84" height="21.37"/>
  <rect class="st9" x="595.55" y="859.84" width="17.85" height="21.37"/>
  <path class="st9" d="M619.92,885.54v9.37c0,.21-.13.38-.3.38h-17.08c-.21,0-.38-.17-.38-.38v-9.37"/>
  <path class="st4" d="M610.37,887.27c0,.35.29.64.64.64s.64-.29.64-.64-.29-.64-.64-.64-.64.29-.64.64"/>
  <path class="st4" d="M610.22,891.79c0,.44.35.79.79.79s.79-.35.79-.79-.35-.79-.79-.79-.79.35-.79.79"/>
  <path class="st4" d="M609.84,891.79c0,.64.52,1.17,1.17,1.17s1.17-.52,1.17-1.17-.52-1.17-1.17-1.17-1.17.52-1.17,1.17"/>
  <path class="st4" d="M602.91,888.66h16.26c.21,0,.38.17.38.38v5.5c0,.21-.17.37-.37.37h-16.26c-.21,0-.38-.17-.38-.38v-5.5c0-.21.17-.37.37-.37Z"/>
  <line class="st4" x1="636.07" y1="885.78" x2="636.07" y2="893.68"/>
  <g>
    <path class="st2" d="M614.35,721.03s0-.02,0-.03"/>
    <path class="st0" d="M614.37,720.58c.28-3.11,3.1-12.33,3.83-12.33l19.49,13.08.24.17"/>
    <line class="st2" x1="638.11" y1="721.63" x2="638.13" y2="721.64"/>
  </g>
  <polygon class="st10" points="546.66 988.89 542.75 988.89 542.75 983.62 543.95 983.62 543.95 924.99 549.29 924.92 549.29 983.62 550.57 983.62 550.57 988.89 546.66 988.89"/>
  <line class="st4" x1="626.28" y1="957.65" x2="655.94" y2="983.62"/>
  <line class="st4" x1="655.94" y1="957.65" x2="626.28" y2="983.62"/>
  <g>
    <rect class="st1" x="598.52" y="776.86" width="71.11" height="32" transform="translate(-158.79 1426.93) rotate(-90)"/>
    <rect class="st1" x="625.18" y="765.03" width="17.78" height="17.78" rx="1.42" ry="1.42" transform="translate(1268.14 1547.84) rotate(180)"/>
    <polygon class="st1" points="617.66 766.6 617.66 828.6 650.07 828.6 650.07 782.64 617.66 766.6"/>
  </g>
  <g>
    <g>
      <path class="st8" d="M572.56,831.57c0,4.61-3.98,8.36-8.89,8.36-3.61,0-7.19-2.36-8.43-5.69-.17-.45-.51-1.41-.46-2.66.16-3.92,4.07-8.36,8.89-8.36s8.89,3.74,8.89,8.36Z"/>
      <path class="st2" d="M555.96,833.44c0,2.84,3.45,5.13,7.72,5.13"/>
      <path class="st2" d="M571.39,833.44c0,2.84-3.45,5.13-7.72,5.13"/>
      <path class="st2" d="M571.39,833.44c0-.56.44-1.01.99-1.01"/>
      <path class="st2" d="M555.96,833.44c0-.56-.48-1.01-1.07-1.01"/>
    </g>
    <g>
      <path class="st8" d="M572.56,802.89c0-4.61-3.98-8.36-8.89-8.36-3.61,0-7.19,2.36-8.43,5.69-.17.45-.51,1.41-.46,2.66.16,3.92,4.07,8.36,8.89,8.36s8.89-3.74,8.89-8.36Z"/>
      <path class="st2" d="M555.96,801.01c0-2.84,3.45-5.13,7.72-5.13"/>
      <path class="st2" d="M571.39,801.01c0-2.84-3.45-5.13-7.72-5.13"/>
      <path class="st2" d="M571.39,801.01c0,.56.44,1.01.99,1.01"/>
      <path class="st2" d="M555.96,801.01c0,.56-.48,1.01-1.07,1.01"/>
    </g>
    <rect class="st8" x="552.12" y="803.45" width="23.11" height="26.19" transform="translate(1380.22 252.88) rotate(90)"/>
  </g>
  <g>
    <path class="st1" d="M562.3,747c5.31,3.72,10.62,7.43,15.92,11.15.27.1.6-.02.79-.29,5.28-5.74,9.71-12.25,13.12-19.25.06-.12.04-.25-.05-.32l-1.48-1.05-14.3-10.09-14.01,19.85"/>
    <path class="st1" d="M561.27,746.02c.45.41.94.76,1.47,1.05.11.05.24,0,.32-.1,4.63-6.25,9.14-12.57,13.55-18.97.09-.17.06-.38-.07-.48-.51-.43-1.05-.8-1.64-1.11"/>
    <path class="st1" d="M564.78,747.54c-.27.39-1.41.05-2.54-.75-.09-.07-.18-.13-.26-.2l-.71-.57c-.08-.08-.09-.23,0-.34l13.64-19.32,1.64,1.16c.53.39,1.06.78,1.59,1.17.18.22.18.57-.01.84-3.43,6.69-7.95,12.8-13.34,18.01Z"/>
    <path class="st1" d="M563.67,746.93c.28.07.56.15.82.26.34.07.67.15.99.25.44.14.89.27,1.33.41.62.18,1.2.42,1.77.71.35.18.69.37,1.02.57.35.21.71.43,1.06.65.83.52,1.64,1.09,2.41,1.7.78.62,1.5,1.29,2.17,2.03.5.56.95,1.16,1.34,1.81.25.41.36.84.35,1.36,0,.04-.01.08-.04.12l-.25.35c-.1.07-.19.09-.3.07-5.11-3.61-10.22-7.21-15.33-10.82-.09-.06-.1-.2-.03-.31l.08-.11h0c.08-.1.21-.14.31-.08.23.12.47.24.7.36.3.18.6.33.93.46l.68.22Z"/>
    <path class="st1" d="M576.79,728.34c.16.24.33.47.52.69.17.3.36.58.57.85.28.37.55.75.83,1.12.38.52.8.99,1.26,1.43.28.27.58.53.88.77.32.26.64.52.97.78.77.61,1.57,1.18,2.41,1.7.84.53,1.72.98,2.64,1.36.69.29,1.41.5,2.16.65.47.09.91.05,1.4-.13.04-.02.07-.04.1-.08l.25-.35c.03-.12.02-.21-.03-.31-5.11-3.61-10.22-7.21-15.33-10.82-.09-.06-.23-.03-.3.08l-.08.11h0c-.07.11-.06.24.02.32.19.18.38.36.57.54.27.22.52.46.75.72l.43.56Z"/>
  </g>
  <circle class="st3" cx="562.51" cy="761.11" r="7.06"/>
  <polygon class="st10" points="533.64 720.51 559.61 720.59 559.61 744.22 552.38 744.3 552.38 762.58 549.29 762.56 549.29 913.18 543.95 913.25 543.95 762.53 540.79 762.51 540.87 744.15 533.64 744.15 533.64 720.51"/>
  <g>
    <polyline class="st9" points="650.61 745.93 649.26 745.93 649.26 754.63 650.61 754.63"/>
    <polyline class="st9" points="649.26 755.62 649.26 744.95 647.83 744.95 647.83 755.62 649.26 755.62"/>
  </g>
  <polygon class="st10" points="666.36 720.25 640.39 720.25 640.39 742.82 650.59 742.82 650.59 881.19 595.5 881.19 595.5 898.95 599.79 898.95 599.79 885.48 650.59 885.48 650.59 953.36 626.28 953.36 626.28 934.85 599.79 934.85 599.79 931.31 595.5 931.31 595.5 939.14 621.99 939.14 621.99 983.62 582.86 983.62 582.86 988.89 642.62 988.89 642.62 983.62 626.28 983.62 626.28 957.65 650.59 957.65 655.94 957.65 655.94 742.82 666.36 742.82 666.36 720.25"/>
</svg>