<?xml version="1.0" encoding="UTF-8"?>
<svg id="Lag_1" xmlns="http://www.w3.org/2000/svg" version="1.1" viewBox="0 0 1200 1697.14">
  <!-- Generator: Adobe Illustrator 29.6.0, SVG Export Plug-In . SVG Version: 2.1.1 Build 207)  -->
  <defs>
    <style>
      .st0 {
        stroke: #767676;
      }

      .st0, .st1, .st2, .st3, .st4, .st5, .st6, .st7, .st8, .st9, .st10, .st11 {
        stroke-linecap: round;
      }

      .st0, .st1, .st2, .st3, .st5, .st6, .st7, .st8, .st9, .st10, .st11 {
        stroke-linejoin: round;
      }

      .st0, .st2, .st3, .st4, .st8, .st9, .st10, .st11 {
        fill: none;
      }

      .st0, .st9 {
        stroke-width: .12px;
      }

      .st12 {
        fill: #000016;
      }

      .st1, .st3, .st13, .st4, .st14, .st6, .st8, .st10, .st11 {
        stroke-width: .18px;
      }

      .st1, .st13 {
        stroke: #060305;
      }

      .st1, .st13, .st14, .st6, .st7 {
        fill: #fff;
      }

      .st15 {
        fill: #e8e3e0;
      }

      .st2, .st3, .st14, .st5, .st6, .st7, .st9, .st10, .st11 {
        stroke: #000;
      }

      .st2, .st7 {
        stroke-width: .18px;
      }

      .st13, .st4, .st14 {
        stroke-miterlimit: 10;
      }

      .st4 {
        stroke: #979899;
      }

      .st16 {
        fill: #979899;
      }

      .st5 {
        fill: #373736;
        stroke-width: .36px;
      }

      .st8 {
        stroke: #747675;
      }

      .st10 {
        stroke-dasharray: .06 .42;
      }

      .st11 {
        stroke-dasharray: .06 .43;
      }
    </style>
  </defs>
  <polygon class="st15" points="635.56 817.35 666.55 817.35 666.55 696.31 665.69 696.31 665.69 709.5 600.53 709.5 600.53 696.31 529.78 696.31 529.78 1014.04 606.09 1014.04 606.09 952.01 635.56 952.01 635.56 842.68 635.56 837.53 635.56 817.35"/>
  <g>
    <polyline class="st3" points="603.87 910.77 603.87 910.8 603.9 910.8"/>
    <line class="st11" x1="604.32" y1="910.8" x2="631.65" y2="910.8"/>
    <polyline class="st3" points="631.86 910.8 631.89 910.8 631.89 910.77"/>
    <line class="st11" x1="631.89" y1="910.34" x2="631.89" y2="883.02"/>
    <polyline class="st3" points="631.89 882.81 631.89 882.78 631.86 882.78"/>
    <line class="st11" x1="631.43" y1="882.78" x2="604.11" y2="882.78"/>
    <polyline class="st3" points="603.9 882.78 603.87 882.78 603.87 882.81"/>
    <line class="st11" x1="603.87" y1="883.23" x2="603.87" y2="910.55"/>
  </g>
  <line class="st3" x1="632.28" y1="953.49" x2="608.34" y2="1010.56"/>
  <line class="st3" x1="608.34" y1="953.49" x2="632.28" y2="1010.56"/>
  <rect class="st6" x="614.77" y="857.16" width="17.49" height="21.05"/>
  <rect class="st6" x="596.32" y="857.16" width="17.57" height="21.05"/>
  <rect class="st6" x="577.92" y="857.16" width="17.58" height="21.05"/>
  <polyline class="st6" points="567.03 693.16 567.03 698.42 568.74 698.42 568.74 693.16 567.03 693.16"/>
  <polyline class="st6" points="579.26 693.16 579.26 698.42 581.04 698.42 581.04 693.16 579.26 693.16"/>
  <polyline class="st6" points="568.74 693.16 579.26 693.16 579.26 694.94 568.74 694.94 568.74 693.16"/>
  <polyline class="st6" points="542.5 693.16 542.5 698.42 544.27 698.42 544.27 693.16 542.5 693.16"/>
  <polyline class="st6" points="565.25 693.16 565.25 698.42 567.03 698.42 567.03 693.16 565.25 693.16"/>
  <polyline class="st6" points="565.25 693.16 544.27 693.16 544.27 694.94 565.25 694.94 565.25 693.16"/>
  <path class="st6" d="M601.98,882.45v9.23c0,.2-.13.37-.3.37h-16.83c-.2,0-.37-.17-.37-.37v-9.23"/>
  <path class="st3" d="M592.57,884.16c0,.35.28.63.63.63s.63-.28.63-.63-.28-.63-.63-.63-.63.28-.63.63"/>
  <path class="st3" d="M592.42,888.6c0,.43.35.78.78.78s.78-.35.78-.78-.35-.78-.78-.78-.78.35-.78.78"/>
  <path class="st3" d="M592.05,888.6c0,.63.51,1.15,1.15,1.15s1.15-.51,1.15-1.15-.51-1.15-1.15-1.15-1.15.51-1.15,1.15"/>
  <path class="st3" d="M585.23,885.53h16.02c.2,0,.37.17.37.37v5.41c0,.2-.17.37-.37.37h-16.01c-.2,0-.37-.17-.37-.37v-5.41c0-.2.17-.37.37-.37Z"/>
  <path class="st14" d="M614.08,938.46v-10.18c0-3.92,2.82-7.09,6.3-7.09s6.29,3.17,6.29,7.09v10.18h-12.59Z"/>
  <polygon class="st6" points="632.38 938.46 608.26 938.46 608.19 949.26 632.38 949.28 632.38 938.46"/>
  <path class="st6" d="M616.1,890.52c0,.96.78,1.74,1.74,1.74s1.74-.78,1.74-1.74-.78-1.74-1.74-1.74-1.74.78-1.74,1.74"/>
  <path class="st16" d="M517.07,694.94l25.42-2.82-25.42,9.64v-6.82ZM524.56,692.12l-7.49,2.82,25.42-2.82h-17.94Z"/>
  <path class="st4" d="M517.07,694.94l25.42-2.82-25.42,9.64v-6.82ZM524.56,692.12l-7.49,2.82,25.42-2.82h-17.94Z"/>
  <path class="st16" d="M517.07,716.14l25.42-9.64v9.64h-25.42ZM517.07,701.76v14.38l25.42-9.64-25.42-4.74Z"/>
  <path class="st4" d="M517.07,716.14l25.42-9.64v9.64h-25.42ZM517.07,701.76v14.38l25.42-9.64-25.42-4.74Z"/>
  <polygon class="st16" points="517.07 701.76 542.5 692.12 542.5 706.5 517.07 701.76"/>
  <polygon class="st4" points="517.07 701.76 542.5 692.12 542.5 706.5 517.07 701.76"/>
  <line class="st3" x1="592.08" y1="878.17" x2="590.82" y2="878.17"/>
  <line class="st3" x1="588.97" y1="878.17" x2="587.71" y2="878.17"/>
  <line class="st3" x1="585.78" y1="878.17" x2="584.52" y2="878.17"/>
  <line class="st3" x1="582.67" y1="878.17" x2="581.41" y2="878.17"/>
  <line class="st3" x1="632.26" y1="860.75" x2="632.26" y2="862.01"/>
  <line class="st3" x1="632.26" y1="863.87" x2="632.26" y2="865.13"/>
  <line class="st3" x1="632.26" y1="867.05" x2="632.26" y2="868.31"/>
  <line class="st3" x1="632.26" y1="870.17" x2="632.26" y2="871.43"/>
  <line class="st3" x1="632.26" y1="873.35" x2="632.26" y2="874.61"/>
  <polyline class="st3" points="632.26 876.47 632.26 878.17 630.78 878.17"/>
  <line class="st3" x1="628.85" y1="878.17" x2="627.59" y2="878.17"/>
  <line class="st3" x1="625.74" y1="878.17" x2="624.47" y2="878.17"/>
  <line class="st3" x1="622.55" y1="878.17" x2="621.29" y2="878.17"/>
  <line class="st3" x1="619.43" y1="878.17" x2="618.17" y2="878.17"/>
  <line class="st3" x1="610.47" y1="878.17" x2="609.21" y2="878.17"/>
  <line class="st3" x1="607.35" y1="878.17" x2="606.09" y2="878.17"/>
  <line class="st3" x1="604.17" y1="878.17" x2="602.91" y2="878.17"/>
  <line class="st3" x1="601.05" y1="878.17" x2="599.79" y2="878.17"/>
  <line class="st3" x1="617.88" y1="882.78" x2="617.88" y2="890.56"/>
  <line class="st3" x1="580.08" y1="925.83" x2="551.69" y2="925.83"/>
  <path class="st3" d="M580.04,897.44c-15.66,0-28.35,12.69-28.35,28.35"/>
  <line class="st3" x1="580.08" y1="897.44" x2="580.08" y2="925.83"/>
  <line class="st3" x1="535.45" y1="1014.04" x2="535.45" y2="985.65"/>
  <path class="st3" d="M563.77,1014c0-15.66-12.69-28.35-28.35-28.35"/>
  <line class="st3" x1="563.77" y1="1014.04" x2="535.45" y2="1014.04"/>
  <polyline class="st6" points="583.04 935.99 604.09 935.99 604.09 1009.52 583.04 1009.52 583.04 935.99"/>
  <polyline class="st3" points="604.09 948.22 583.04 948.22 583.04 935.99 604.09 935.99 604.09 948.22"/>
  <line class="st3" x1="601.65" y1="942.29" x2="596.01" y2="942.29"/>
  <line class="st3" x1="591.12" y1="942.29" x2="585.49" y2="942.29"/>
  <line class="st3" x1="588.3" y1="945.03" x2="588.3" y2="939.47"/>
  <line class="st3" x1="598.83" y1="945.03" x2="598.83" y2="939.47"/>
  <polyline class="st3" points="586.52 1005.96 600.53 1005.96 600.53 991.95 586.52 991.95 586.52 1005.96"/>
  <polyline class="st3" points="604.09 988.46 604.09 1009.52 583.04 1009.52 583.04 988.46 604.09 988.46"/>
  <line class="st3" x1="602.46" y1="998.99" x2="596.9" y2="998.99"/>
  <polyline class="st3" points="527.23 1010.55 525.97 1010.55 525.97 1015.82 529.82 1015.82"/>
  <polyline class="st6" points="603.2 804.05 591.42 804.05 591.42 813.02 592.53 814.05 602.31 814.13 603.28 813.09 603.2 804.05"/>
  <line class="st3" x1="581.04" y1="692.12" x2="542.5" y2="692.12"/>
  <line class="st8" x1="591.42" y1="811.31" x2="598.61" y2="804.05"/>
  <line class="st8" x1="593.34" y1="814.05" x2="603.2" y2="804.2"/>
  <line class="st8" x1="598.01" y1="814.05" x2="603.2" y2="808.87"/>
  <line class="st8" x1="595.49" y1="814.05" x2="591.42" y2="809.98"/>
  <line class="st8" x1="600.24" y1="814.13" x2="591.42" y2="805.31"/>
  <line class="st8" x1="603.28" y1="812.42" x2="594.9" y2="804.05"/>
  <line class="st8" x1="603.2" y1="807.68" x2="599.64" y2="804.05"/>
  <g>
    <path class="st3" d="M565.25,692.62s0-.02,0-.03"/>
    <path class="st10" d="M565.23,692.17c-.28-2.8-2.73-10.85-3.37-10.85l-17.19,11.56-.19.13"/>
    <line class="st3" x1="544.3" y1="693.15" x2="544.27" y2="693.16"/>
  </g>
  <g>
    <g>
      <path class="st6" d="M568.48,824.51c0,4.54,3.92,8.23,8.75,8.23,3.56,0,7.08-2.33,8.3-5.61.17-.45.5-1.39.45-2.62-.15-3.87-4-8.23-8.75-8.23s-8.75,3.68-8.75,8.23Z"/>
      <path class="st3" d="M584.84,826.35c0,2.79-3.4,5.05-7.6,5.05"/>
      <path class="st3" d="M569.64,826.35c0,2.79,3.4,5.05,7.6,5.05"/>
      <path class="st3" d="M569.64,826.35c0-.55-.44-1-.98-1"/>
      <path class="st3" d="M584.84,826.35c0-.55.47-1,1.06-1"/>
    </g>
    <g>
      <path class="st6" d="M568.48,796.26c0-4.54,3.92-8.23,8.75-8.23,3.56,0,7.08,2.33,8.3,5.61.17.45.5,1.39.45,2.62-.15,3.87-4,8.23-8.75,8.23s-8.75-3.68-8.75-8.23Z"/>
      <path class="st3" d="M584.84,794.42c0-2.79-3.4-5.05-7.6-5.05"/>
      <path class="st3" d="M569.64,794.42c0-2.79,3.4-5.05,7.6-5.05"/>
      <path class="st3" d="M569.64,794.42c0,.55-.44,1-.98,1"/>
      <path class="st3" d="M584.84,794.42c0,.55.47,1,1.06,1"/>
    </g>
    <rect class="st6" x="565.86" y="796.82" width="22.76" height="25.8" transform="translate(1386.96 232.48) rotate(90)"/>
  </g>
  <polyline class="st6" points="533.82 737.14 533.82 719.65 535.23 719.65 535.23 737.14 533.82 737.14"/>
  <polyline class="st6" points="532.49 720.54 533.82 720.54 533.82 736.25 532.49 736.25"/>
  <polygon class="st12" points="542.5 716.14 542.5 692.12 519.44 692.12 519.44 694.05 517.07 694.05 517.07 716.14 527.23 716.14 527.23 1010.55 525.97 1010.55 525.97 1015.82 529.82 1015.82 533.68 1015.82 533.68 1010.55 532.49 1010.55 532.49 716.14 542.5 716.14"/>
  <line class="st9" x1="580.08" y1="925.83" x2="551.69" y2="925.83"/>
  <path class="st9" d="M580.04,897.44c-15.66,0-28.35,12.69-28.35,28.35"/>
  <line class="st9" x1="580.08" y1="897.44" x2="580.08" y2="925.83"/>
  <polyline class="st5" points="632.26 882.4 632.26 878.17 578 878.17 578 895.66 582.15 895.66 582.15 882.4 632.26 882.4"/>
  <polyline class="st5" points="578 935.24 578 927.54 582.15 927.54 582.15 931.02 608.24 931.02 608.24 949.25 632.26 949.25 632.26 953.48 608.24 953.48 608.24 1010.55 624.4 1010.55 624.4 1015.82 565.55 1015.82 565.55 1010.55 604.09 1010.55 604.09 935.24 578 935.24"/>
  <path class="st9" d="M535.45,985.65v28.39l28.31-.04c0-15.66-12.69-28.35-28.35-28.35"/>
  <line class="st0" x1="591.42" y1="806.57" x2="593.86" y2="804.05"/>
  <line class="st0" x1="591.42" y1="811.31" x2="598.61" y2="804.05"/>
  <line class="st0" x1="593.34" y1="814.05" x2="603.2" y2="804.2"/>
  <line class="st0" x1="598.01" y1="814.05" x2="603.2" y2="808.87"/>
  <line class="st0" x1="595.49" y1="814.05" x2="591.42" y2="809.98"/>
  <line class="st0" x1="600.24" y1="814.13" x2="591.42" y2="805.31"/>
  <line class="st0" x1="603.28" y1="812.42" x2="594.9" y2="804.05"/>
  <line class="st0" x1="603.2" y1="807.68" x2="599.64" y2="804.05"/>
  <polyline class="st2" points="603.2 804.05 591.42 804.05 591.42 813.02 592.53 814.05 602.31 814.13 603.28 813.09 603.2 804.05"/>
  <polygon class="st12" points="678.78 692.04 678.78 687.66 657.5 687.66 657.5 705.45 606.41 705.45 606.36 687.66 585.01 687.66 585.01 692.04 581.01 692.04 581.01 716.13 605.67 716.13 606.43 716.13 657.5 716.13 682.93 716.2 682.93 692.04 678.78 692.04"/>
  <polygon class="st12" points="663.39 819.69 668.65 819.69 668.65 716.07 663.39 716.07 663.39 814.43 637.52 814.43 632.26 814.43 632.26 819.69 632.26 834.73 632.26 835.88 632.26 953.78 637.52 953.78 637.52 948.59 637.52 928.03 637.52 841.52 637.52 840 637.52 835.88 637.52 834.73 637.52 819.69 657.62 819.69 663.39 819.69"/>
  <g>
    <polyline class="st7" points="659.39 805.98 671.99 805.98 671.99 814.43 660.5 814.43 659.46 813.31 659.39 805.98"/>
    <line class="st0" x1="659.39" y1="809.31" x2="662.72" y2="805.98"/>
    <line class="st0" x1="659.76" y1="813.68" x2="667.47" y2="805.98"/>
    <line class="st0" x1="663.69" y1="814.43" x2="671.99" y2="806.12"/>
    <line class="st0" x1="668.43" y1="814.43" x2="671.99" y2="810.87"/>
    <line class="st0" x1="661.91" y1="814.43" x2="659.46" y2="811.98"/>
    <line class="st0" x1="666.65" y1="814.43" x2="659.39" y2="807.24"/>
    <line class="st0" x1="671.32" y1="814.43" x2="662.87" y2="805.98"/>
    <line class="st0" x1="671.99" y1="810.42" x2="667.54" y2="805.98"/>
  </g>
  <g>
    <rect class="st1" x="592.66" y="717.3" width="70.04" height="31.52"/>
    <rect class="st1" x="637.57" y="724.3" width="17.51" height="17.51" rx="1.42" ry="1.42" transform="translate(-86.73 1379.38) rotate(-90)"/>
    <polygon class="st1" points="653.54 716.89 592.48 716.89 592.48 748.81 637.74 748.81 653.54 716.89"/>
  </g>
  <g>
    <path class="st1" d="M645.23,810.84c-4.85-4.15-9.7-8.3-14.55-12.44-.16-.23-.13-.57.09-.82,4.18-6.45,9.29-12.28,15.13-17.25.1-.08.23-.1.32-.03l1.36,1.16,13.14,11.15-15.48,18.24"/>
    <path class="st1" d="M646.41,811.59c-.5-.33-.95-.71-1.37-1.14-.08-.09-.07-.23.02-.33,4.82-5.95,9.73-11.81,14.76-17.59.14-.13.34-.15.47-.05.53.38,1.02.81,1.47,1.29"/>
    <path class="st1" d="M644.1,808.62c-.3.35.3,1.36,1.34,2.24.08.07.17.14.26.2l.72.53c.1.06.24.03.33-.07l15.07-17.76-1.51-1.28c-.5-.41-1-.82-1.5-1.23-.26-.12-.59-.03-.8.22-5.53,4.91-10.25,10.73-13.89,17.15Z"/>
    <path class="st1" d="M644.95,809.53c-.13-.25-.28-.49-.45-.72-.15-.31-.31-.6-.48-.89-.24-.39-.48-.78-.71-1.17-.33-.54-.69-1.04-1.11-1.51-.25-.29-.52-.57-.79-.84-.29-.29-.58-.57-.88-.85-.7-.67-1.44-1.29-2.21-1.88-.78-.59-1.6-1.11-2.47-1.57-.66-.34-1.34-.62-2.06-.83-.46-.13-.89-.13-1.38,0-.04.01-.07.03-.1.07l-.27.32c-.04.11-.04.2,0,.3,4.7,3.99,9.4,7.97,14.09,11.96.08.07.22.05.3-.05l.08-.1h0c.08-.1.08-.23,0-.31-.17-.19-.34-.38-.52-.58-.25-.24-.47-.49-.67-.77l-.38-.59Z"/>
    <path class="st1" d="M659.46,792.44c-.27-.09-.53-.2-.79-.32-.33-.09-.64-.2-.95-.33-.42-.17-.85-.35-1.27-.51-.59-.23-1.14-.51-1.67-.85-.33-.2-.64-.42-.95-.65-.33-.24-.66-.48-.98-.73-.77-.59-1.51-1.21-2.21-1.88-.71-.67-1.36-1.4-1.95-2.19-.45-.59-.83-1.22-1.15-1.9-.21-.43-.28-.85-.22-1.36,0-.04.02-.08.05-.11l.27-.32c.11-.06.19-.07.3-.05,4.7,3.99,9.4,7.97,14.09,11.96.08.07.08.21,0,.3l-.08.1h0c-.09.09-.22.12-.31.06-.22-.14-.44-.28-.65-.41-.27-.2-.56-.38-.87-.54l-.64-.28Z"/>
  </g>
  <circle class="st13" cx="652.09" cy="762.13" r="8.31"/>
</svg>