<?xml version="1.0" encoding="UTF-8"?>
<svg id="Lag_1" xmlns="http://www.w3.org/2000/svg" version="1.1" viewBox="0 0 1200 1697.14">
  <!-- Generator: Adobe Illustrator 29.6.0, SVG Export Plug-In . SVG Version: 2.1.1 Build 207)  -->
  <defs>
    <style>
      .st0 {
        stroke-dasharray: .06 .43;
      }

      .st0, .st1, .st2, .st3, .st4, .st5, .st6, .st7, .st8, .st9 {
        stroke-width: .18px;
      }

      .st0, .st1, .st2, .st3, .st5, .st7, .st8, .st9 {
        stroke-linejoin: round;
      }

      .st0, .st1, .st2, .st3, .st7, .st8 {
        stroke-linecap: round;
      }

      .st0, .st1, .st3, .st5, .st6, .st7, .st8, .st9 {
        stroke: #000;
      }

      .st0, .st1, .st3, .st5, .st7 {
        fill: none;
      }

      .st10 {
        fill: #000016;
      }

      .st1 {
        stroke-dasharray: .06 .43;
      }

      .st2, .st4 {
        stroke: #060305;
      }

      .st2, .st4, .st6, .st8, .st9 {
        fill: #fff;
      }

      .st11 {
        fill: #e8e3e0;
      }

      .st4, .st6 {
        stroke-miterlimit: 10;
      }

      .st7 {
        stroke-dasharray: .06 .43;
      }
    </style>
  </defs>
  <polygon class="st11" points="632.45 725.62 632.45 694.36 538.42 694.36 538.42 891.57 551.33 891.57 551.33 994.94 660.69 994.94 660.69 725.62 632.45 725.62"/>
  <g>
    <path class="st3" d="M594.26,997.24s0,.02,0,.03"/>
    <path class="st7" d="M594.23,997.69c-.33,2.69-3.09,10.33-3.81,10.33l-19.41-11.04-.22-.13"/>
    <line class="st3" x1="570.6" y1="996.73" x2="570.57" y2="996.72"/>
  </g>
  <g>
    <path class="st3" d="M536.21,842.73s-.02,0-.03,0"/>
    <path class="st0" d="M535.77,842.7c-2.59-.32-9.86-2.94-9.86-3.62l10.56-18.5.12-.2"/>
    <line class="st3" x1="536.69" y1="820.18" x2="536.71" y2="820.16"/>
  </g>
  <g>
    <path class="st2" d="M561.01,943.89c6.06-2.05,12.11-4.1,18.17-6.16.28-.02.56.19.66.49,3.41,6.9,5.81,14.29,7.11,21.86.02.13-.03.25-.13.29l-1.69.58-16.33,5.6-7.78-22.68"/>
    <path class="st2" d="M559.76,944.53c.54-.26,1.1-.46,1.68-.59.11-.02.23.06.28.19,2.66,7.2,5.19,14.43,7.59,21.72.04.19-.05.37-.2.43-.6.27-1.22.46-1.86.6"/>
    <path class="st2" d="M563.5,944.06c-.15-.44-1.32-.44-2.61,0-.1.04-.2.08-.31.12l-.83.34c-.1.05-.15.19-.1.32l7.57,22.07,1.88-.64c.61-.22,1.22-.44,1.83-.66.24-.16.33-.49.22-.8-1.39-7.28-3.99-14.32-7.65-20.75Z"/>
    <path class="st2" d="M562.28,944.33c.29.01.57,0,.85-.01.34.03.67.05,1.01.04.46,0,.92-.01,1.38-.01.63,0,1.26-.06,1.87-.18.38-.07.75-.16,1.12-.25.39-.1.79-.21,1.18-.32.94-.26,1.85-.58,2.75-.94.91-.37,1.78-.81,2.62-1.33.63-.39,1.22-.84,1.77-1.35.35-.32.57-.7.71-1.19.01-.04.01-.08,0-.12l-.14-.4c-.08-.1-.15-.14-.26-.15-5.84,2-11.68,4.01-17.52,6.01-.1.04-.15.16-.11.28l.04.12h0c.04.12.16.19.27.16.25-.05.51-.1.76-.15.33-.09.66-.15,1.01-.18l.7-.02Z"/>
    <path class="st2" d="M569.57,965.57c.22-.19.44-.36.68-.51.25-.23.5-.45.77-.65.37-.28.73-.55,1.1-.83.5-.39,1.03-.72,1.59-1.01.34-.18.69-.34,1.04-.49.38-.16.75-.32,1.13-.47.9-.37,1.81-.68,2.75-.94.94-.27,1.9-.45,2.88-.56.74-.08,1.47-.09,2.22-.02.47.04.88.2,1.29.51.03.03.06.06.07.1l.14.4c0,.12-.04.21-.11.28-5.84,2-11.68,4.01-17.52,6.01-.1.04-.22-.03-.26-.15l-.04-.12h0c-.04-.12,0-.25.11-.29.23-.12.46-.23.69-.35.32-.13.62-.29.91-.47l.57-.41Z"/>
  </g>
  <circle class="st4" cx="580.22" cy="975.22" r="6.99"/>
  <rect class="st9" x="641.12" y="798.77" width="17.53" height="21.09"/>
  <rect class="st9" x="622.63" y="798.77" width="17.6" height="21.09"/>
  <rect class="st9" x="604.2" y="798.77" width="17.61" height="21.09"/>
  <polygon class="st9" points="658.71 738.38 634.54 738.38 634.47 727.57 658.71 727.54 658.71 738.38"/>
  <line class="st3" x1="658.65" y1="798.96" x2="657.16" y2="798.96"/>
  <line class="st3" x1="655.23" y1="798.96" x2="653.97" y2="798.96"/>
  <line class="st3" x1="652.11" y1="798.96" x2="650.85" y2="798.96"/>
  <line class="st3" x1="648.92" y1="798.96" x2="647.66" y2="798.96"/>
  <line class="st3" x1="645.8" y1="798.96" x2="644.54" y2="798.96"/>
  <line class="st3" x1="658.65" y1="816.41" x2="658.65" y2="815.15"/>
  <line class="st3" x1="658.65" y1="813.22" x2="658.65" y2="811.95"/>
  <line class="st3" x1="658.65" y1="810.1" x2="658.65" y2="808.83"/>
  <line class="st3" x1="658.65" y1="806.9" x2="658.65" y2="805.64"/>
  <line class="st3" x1="658.65" y1="803.78" x2="658.65" y2="802.52"/>
  <line class="st3" x1="658.65" y1="800.59" x2="658.65" y2="798.96"/>
  <line class="st3" x1="621.81" y1="798.96" x2="620.33" y2="798.96"/>
  <line class="st3" x1="618.4" y1="798.96" x2="617.14" y2="798.96"/>
  <line class="st3" x1="615.28" y1="798.96" x2="614.02" y2="798.96"/>
  <line class="st3" x1="612.09" y1="798.96" x2="610.82" y2="798.96"/>
  <line class="st3" x1="608.89" y1="798.96" x2="607.63" y2="798.96"/>
  <line class="st3" x1="640.23" y1="798.96" x2="638.75" y2="798.96"/>
  <line class="st3" x1="636.82" y1="798.96" x2="635.55" y2="798.96"/>
  <line class="st3" x1="633.7" y1="798.96" x2="632.43" y2="798.96"/>
  <line class="st3" x1="630.5" y1="798.96" x2="629.24" y2="798.96"/>
  <line class="st3" x1="627.38" y1="798.96" x2="626.12" y2="798.96"/>
  <line class="st3" x1="606.37" y1="751.21" x2="577.92" y2="751.21"/>
  <path class="st3" d="M577.92,751.17c0,15.69,12.72,28.41,28.41,28.41"/>
  <line class="st3" x1="606.37" y1="779.65" x2="606.37" y2="751.21"/>
  <line class="st3" x1="561.66" y1="694.4" x2="561.66" y2="722.76"/>
  <path class="st3" d="M561.62,722.76c15.69,0,28.41-12.72,28.41-28.41"/>
  <line class="st3" x1="590.03" y1="694.4" x2="561.66" y2="694.4"/>
  <polyline class="st8" points="609.34 741.03 630.43 741.03 630.43 698.93 609.34 698.93 609.34 741.03"/>
  <polyline class="st3" points="630.43 728.78 609.34 728.78 609.34 741.03 630.43 741.03 630.43 728.78"/>
  <line class="st3" x1="627.98" y1="734.72" x2="622.33" y2="734.72"/>
  <line class="st3" x1="617.43" y1="734.72" x2="611.79" y2="734.72"/>
  <line class="st3" x1="614.61" y1="731.9" x2="614.61" y2="737.54"/>
  <line class="st3" x1="625.16" y1="731.9" x2="625.16" y2="737.54"/>
  <polyline class="st3" points="612.83 702.42 626.86 702.42 626.86 716.45 612.83 716.45 612.83 702.42"/>
  <polyline class="st3" points="630.43 720.02 630.43 698.93 609.34 698.93 609.34 720.02 630.43 720.02"/>
  <line class="st3" x1="628.79" y1="709.47" x2="623.22" y2="709.47"/>
  <polyline class="st8" points="536.71 820.12 536.63 842.92 539.31 842.92 539.31 820.12 536.71 820.12"/>
  <polyline class="st8" points="536.63 844.63 541.91 844.63 541.91 846.41 536.63 846.41 536.63 844.63"/>
  <polyline class="st8" points="536.56 877.97 541.83 877.97 541.83 879.76 536.56 879.76 536.56 877.97"/>
  <polyline class="st8" points="536.63 846.41 536.56 877.97 538.34 877.97 538.42 846.41 536.63 846.41"/>
  <polyline class="st8" points="536.71 818.34 541.91 818.34 541.91 820.12 536.71 820.12 536.71 818.34"/>
  <polyline class="st8" points="536.63 842.92 541.91 842.92 541.91 844.63 536.63 844.63 536.63 842.92"/>
  <line class="st3" x1="535.52" y1="879.76" x2="535.59" y2="818.34"/>
  <polyline class="st8" points="646.69 996.72 646.69 991.45 648.47 991.45 648.47 996.72 646.69 996.72"/>
  <polyline class="st8" points="595.97 996.72 646.69 996.72 646.69 994.94 595.97 994.94 595.97 996.72"/>
  <polyline class="st8" points="570.57 996.72 594.26 996.72 594.26 994.05 570.57 994.05 570.57 996.72"/>
  <polyline class="st8" points="568.79 996.72 568.79 991.45 570.57 991.45 570.57 996.72 568.79 996.72"/>
  <polyline class="st8" points="594.26 996.72 594.26 991.45 595.97 991.45 595.97 996.72 594.26 996.72"/>
  <line class="st3" x1="648.47" y1="997.76" x2="568.79" y2="997.76"/>
  <path class="st9" d="M642.47,786.5c0,.96.78,1.75,1.75,1.75s1.75-.78,1.75-1.75c0-.96-.78-1.75-1.75-1.75-.96,0-1.75.78-1.75,1.75"/>
  <path class="st6" d="M640.37,738.38v10.2c0,3.93,2.82,7.1,6.31,7.1s6.31-3.18,6.31-7.1v-10.2h-12.61Z"/>
  <path class="st9" d="M628.25,794.5v-9.25c0-.21-.13-.37-.3-.37h-16.86c-.21,0-.37.17-.37.37v9.25"/>
  <path class="st5" d="M618.82,792.79c0-.35.28-.63.63-.63s.63.28.63.63-.28.63-.63.63-.63-.28-.63-.63"/>
  <path class="st5" d="M618.67,788.34c0-.43.35-.78.78-.78s.78.35.78.78c0,.43-.35.78-.78.78s-.78-.35-.78-.78"/>
  <path class="st5" d="M618.3,788.34c0-.64.52-1.15,1.15-1.15.64,0,1.15.52,1.15,1.15s-.52,1.15-1.15,1.15-1.15-.52-1.15-1.15"/>
  <path class="st5" d="M611.46,785.25h16.04c.2,0,.37.17.37.37v5.42c0,.2-.17.37-.37.37h-16.04c-.2,0-.37-.17-.37-.37v-5.42c0-.2.17-.37.37-.37Z"/>
  <g>
    <polyline class="st3" points="630.14 766.22 630.14 766.19 630.17 766.19"/>
    <line class="st1" x1="630.6" y1="766.19" x2="657.97" y2="766.19"/>
    <polyline class="st3" points="658.18 766.19 658.21 766.19 658.21 766.22"/>
    <line class="st1" x1="658.21" y1="766.64" x2="658.21" y2="794.02"/>
    <polyline class="st3" points="658.21 794.23 658.21 794.26 658.18 794.26"/>
    <line class="st1" x1="657.76" y1="794.26" x2="630.38" y2="794.26"/>
    <polyline class="st3" points="630.17 794.26 630.14 794.26 630.14 794.23"/>
    <line class="st1" x1="630.14" y1="793.8" x2="630.14" y2="766.43"/>
  </g>
  <line class="st5" x1="644.18" y1="794.26" x2="644.18" y2="786.46"/>
  <line class="st5" x1="634.52" y1="723.34" x2="663.78" y2="697.72"/>
  <line class="st5" x1="663.78" y1="723.34" x2="634.52" y2="697.72"/>
  <polygon class="st10" points="558.39 692.61 558.39 689.12 538.27 689.12 538.27 697.29 535.82 697.29 535.74 725.36 538.19 725.36 538.12 788.49 535.67 788.49 535.59 818.34 558.32 818.34 558.39 697.42 558.62 697.89 559.88 697.89 559.88 692.61 558.39 692.61"/>
  <path class="st10" d="M544.28,909.02v83.1h2.67-.05c-.26,1.14-.58,2.26-.95,3.35h.04s4.75,2.29,4.75,2.29h18.05v-23.47h-10.62l.07-94.54h-22.72v17.3l-.06-.03c3.84,3.21,6.84,7.3,8.76,11.92"/>
  <g>
    <g>
      <path class="st8" d="M586.78,836.71c0-4.55-3.93-8.24-8.77-8.24-3.57,0-7.1,2.33-8.31,5.62-.17.45-.5,1.39-.46,2.63.15,3.87,4.01,8.24,8.77,8.24s8.77-3.69,8.77-8.24Z"/>
      <path class="st3" d="M570.39,834.86c0-2.8,3.41-5.06,7.61-5.06"/>
      <path class="st3" d="M585.62,834.86c0-2.8-3.41-5.06-7.61-5.06"/>
      <path class="st3" d="M585.62,834.86c0,.55.44,1,.98,1"/>
      <path class="st3" d="M570.39,834.86c0,.55-.44,1-.98,1"/>
      <g>
        <path class="st8" d="M565.18,836.71c0-4.55-3.93-8.24-8.77-8.24-3.57,0-7.1,2.33-8.31,5.62-.17.45-.5,1.39-.46,2.63.15,3.87,4.01,8.24,8.77,8.24s8.77-3.69,8.77-8.24Z"/>
        <path class="st3" d="M548.79,834.86c0-2.8,3.41-5.06,7.61-5.06"/>
        <path class="st3" d="M564.02,834.86c0-2.8-3.41-5.06-7.61-5.06"/>
        <path class="st3" d="M564.02,834.86c0,.55.44,1,.98,1"/>
        <path class="st3" d="M548.79,834.86c0,.55-.47,1-1.06,1"/>
      </g>
    </g>
    <g>
      <path class="st8" d="M586.78,863.87c0,4.55-3.93,8.24-8.77,8.24-3.57,0-7.1-2.33-8.31-5.62-.17-.45-.5-1.39-.46-2.63.15-3.87,4.01-8.24,8.77-8.24s8.77,3.69,8.77,8.24Z"/>
      <path class="st3" d="M570.39,865.71c0,2.8,3.41,5.06,7.61,5.06"/>
      <path class="st3" d="M585.62,865.71c0,2.8-3.41,5.06-7.61,5.06"/>
      <path class="st3" d="M585.62,865.71c0-.55.44-1,.98-1"/>
      <path class="st3" d="M570.39,865.71c0-.55-.44-1-.98-1"/>
      <g>
        <path class="st8" d="M565.18,863.87c0,4.55-3.93,8.24-8.77,8.24-3.57,0-7.1-2.33-8.31-5.62-.17-.45-.5-1.39-.46-2.63.15-3.87,4.01-8.24,8.77-8.24s8.77,3.69,8.77,8.24Z"/>
        <path class="st3" d="M548.79,865.71c0,2.8,3.41,5.06,7.61,5.06"/>
        <path class="st3" d="M564.02,865.71c0,2.8-3.41,5.06-7.61,5.06"/>
        <path class="st3" d="M564.02,865.71c0-.55.44-1,.98-1"/>
        <path class="st3" d="M548.79,865.71c0-.55-.47-1-1.06-1"/>
      </g>
    </g>
    <rect class="st8" x="555.8" y="827.64" width="22.81" height="44.7" transform="translate(-282.78 1417.19) rotate(-90)"/>
  </g>
  <g>
    <rect class="st2" x="607.18" y="905.41" width="70.17" height="31.58" transform="translate(1563.46 278.93) rotate(90)"/>
    <rect class="st2" x="633.5" y="931.11" width="17.54" height="17.54" rx=".78" ry=".78"/>
    <polygon class="st2" points="658.46 947.1 658.46 885.93 626.48 885.93 626.48 931.28 658.46 947.1"/>
  </g>
  <g>
    <polyline class="st9" points="658.9 962.6 657.57 962.6 657.57 971.19 658.9 971.19"/>
    <polyline class="st9" points="657.57 972.16 657.57 961.63 656.15 961.63 656.15 972.16 657.57 972.16"/>
  </g>
  <polygon class="st10" points="663.92 974.29 663.92 723.51 658.65 723.51 634.59 723.51 634.59 697.89 650.78 697.89 650.78 692.61 591.81 692.61 591.81 697.89 630.43 697.89 630.43 741.7 604.29 741.7 604.29 749.42 608.45 749.42 608.45 745.93 634.59 745.93 634.59 727.74 658.65 727.74 658.65 794.72 608.45 794.72 608.45 781.36 604.29 781.36 604.29 798.96 658.65 798.96 658.65 974.29 648.47 974.29 648.47 997.76 674.1 997.76 674.1 974.29 663.92 974.29"/>
</svg>