<?xml version="1.0" encoding="UTF-8"?>
<svg id="Lag_1" xmlns="http://www.w3.org/2000/svg" version="1.1" viewBox="0 0 1200 1697.14">
  <!-- Generator: Adobe Illustrator 29.6.0, SVG Export Plug-In . SVG Version: 2.1.1 Build 207)  -->
  <defs>
    <style>
      .st0 {
        fill: #000016;
      }

      .st1 {
        stroke-dasharray: .06 .42;
      }

      .st1, .st2, .st3, .st4, .st5, .st6, .st7, .st8, .st9, .st10 {
        stroke-width: .18px;
      }

      .st1, .st2, .st3, .st4, .st6, .st8, .st9, .st10 {
        stroke-linejoin: round;
      }

      .st1, .st2, .st3, .st4, .st8, .st9 {
        stroke-linecap: round;
      }

      .st1, .st2, .st4, .st6, .st7, .st9, .st10 {
        stroke: #000;
      }

      .st1, .st2, .st4, .st6, .st8 {
        fill: none;
      }

      .st2 {
        stroke-dasharray: .06 .43;
      }

      .st3, .st5 {
        stroke: #060305;
      }

      .st3, .st5, .st7, .st9, .st10 {
        fill: #fff;
      }

      .st11 {
        fill: #e8e3e0;
      }

      .st5, .st7 {
        stroke-miterlimit: 10;
      }

      .st8 {
        stroke: #767676;
      }
    </style>
  </defs>
  <polygon class="st11" points="659.94 759.54 659.94 712.52 568.31 712.52 568.31 743.38 539.67 743.38 539.67 975.2 648.69 975.2 648.69 779.26 666.38 779.26 666.38 759.54 659.94 759.54"/>
  <line class="st4" x1="542.29" y1="817.89" x2="543.86" y2="817.89"/>
  <line class="st4" x1="545.73" y1="817.89" x2="547" y2="817.89"/>
  <line class="st4" x1="548.94" y1="817.89" x2="550.22" y2="817.89"/>
  <line class="st4" x1="552.09" y1="817.89" x2="553.36" y2="817.89"/>
  <line class="st4" x1="555.3" y1="817.89" x2="556.57" y2="817.89"/>
  <line class="st4" x1="542.29" y1="835.47" x2="542.29" y2="834.2"/>
  <line class="st4" x1="542.29" y1="832.33" x2="542.29" y2="831.05"/>
  <line class="st4" x1="542.29" y1="829.11" x2="542.29" y2="827.84"/>
  <line class="st4" x1="542.29" y1="825.97" x2="542.29" y2="824.7"/>
  <line class="st4" x1="542.29" y1="822.75" x2="542.29" y2="821.48"/>
  <line class="st4" x1="542.29" y1="819.61" x2="542.29" y2="817.89"/>
  <line class="st4" x1="579.39" y1="817.89" x2="580.96" y2="817.89"/>
  <line class="st4" x1="582.83" y1="817.89" x2="584.1" y2="817.89"/>
  <line class="st4" x1="586.05" y1="817.89" x2="587.32" y2="817.89"/>
  <line class="st4" x1="589.19" y1="817.89" x2="590.46" y2="817.89"/>
  <line class="st4" x1="592.41" y1="817.89" x2="593.68" y2="817.89"/>
  <line class="st4" x1="560.84" y1="817.89" x2="562.41" y2="817.89"/>
  <line class="st4" x1="564.28" y1="817.89" x2="565.55" y2="817.89"/>
  <line class="st4" x1="567.5" y1="817.89" x2="568.77" y2="817.89"/>
  <line class="st4" x1="570.64" y1="817.89" x2="571.91" y2="817.89"/>
  <line class="st4" x1="573.85" y1="817.89" x2="575.13" y2="817.89"/>
  <line class="st4" x1="594.95" y1="769.79" x2="623.6" y2="769.79"/>
  <path class="st4" d="M594.91,798.36c15.8,0,28.61-12.81,28.61-28.61"/>
  <line class="st4" x1="594.95" y1="798.44" x2="594.95" y2="769.79"/>
  <line class="st4" x1="640.06" y1="712.56" x2="640.06" y2="741.21"/>
  <path class="st4" d="M611.41,712.52c0,15.8,12.81,28.61,28.61,28.61"/>
  <line class="st4" x1="611.41" y1="712.56" x2="640.06" y2="712.56"/>
  <polyline class="st9" points="591.96 759.54 570.79 759.54 570.79 717.2 591.96 717.2 591.96 759.54"/>
  <polyline class="st4" points="570.79 747.2 591.96 747.2 591.96 759.54 570.79 759.54 570.79 747.2"/>
  <line class="st4" x1="573.26" y1="753.18" x2="578.87" y2="753.18"/>
  <line class="st4" x1="583.88" y1="753.18" x2="589.49" y2="753.18"/>
  <line class="st4" x1="586.65" y1="750.41" x2="586.65" y2="756.02"/>
  <line class="st4" x1="576.1" y1="750.41" x2="576.1" y2="756.02"/>
  <polyline class="st4" points="588.44 720.72 574.3 720.72 574.3 734.85 588.44 734.85 588.44 720.72"/>
  <polyline class="st4" points="570.79 738.37 570.79 717.2 591.96 717.2 591.96 738.37 570.79 738.37"/>
  <line class="st4" x1="572.36" y1="727.75" x2="577.97" y2="727.75"/>
  <line class="st4" x1="541.76" y1="785.8" x2="537.57" y2="785.8"/>
  <line class="st4" x1="540.24" y1="785.8" x2="542.34" y2="785.8"/>
  <polyline class="st10" points="630.99 977 630.99 971.69 632.79 971.69 632.79 977 630.99 977"/>
  <polyline class="st10" points="579.9 977 630.99 977 630.99 975.2 579.9 975.28 579.9 977"/>
  <polyline class="st10" points="554.32 977.07 578.18 977 578.18 974.38 554.32 974.38 554.32 977.07"/>
  <polyline class="st10" points="552.6 977.07 552.52 971.76 554.32 971.76 554.32 977.07 552.6 977.07"/>
  <polyline class="st10" points="578.18 977 578.18 971.69 579.9 971.69 579.9 977 578.18 977"/>
  <g>
    <path class="st4" d="M578.07,977.61s0,.02,0,.03"/>
    <path class="st2" d="M578.04,978.06c-.29,3.1-3.08,12.25-3.8,12.25l-19.37-13-.23-.16"/>
    <line class="st4" x1="554.45" y1="977.01" x2="554.43" y2="977"/>
  </g>
  <line class="st6" x1="552.53" y1="978.2" x2="632.8" y2="978.27"/>
  <line class="st6" x1="537.05" y1="741.89" x2="566.29" y2="716.01"/>
  <line class="st6" x1="566.29" y1="741.82" x2="536.81" y2="716.01"/>
  <path class="st10" d="M558.59,805.38c0,.97-.79,1.76-1.76,1.76s-1.76-.79-1.76-1.76.79-1.76,1.76-1.76,1.76.79,1.76,1.76"/>
  <path class="st7" d="M560.71,756.91v10.27c0,3.95-2.84,7.16-6.35,7.16-3.51,0-6.35-3.2-6.35-7.16v-10.27s12.71,0,12.71,0Z"/>
  <polygon class="st10" points="542.23 756.91 566.58 756.91 566.65 746.02 542.23 745.99 542.23 756.91"/>
  <rect class="st10" x="542.29" y="817.74" width="17.65" height="21.24" transform="translate(1102.24 1656.72) rotate(180)"/>
  <rect class="st10" x="560.85" y="817.74" width="17.73" height="21.24" transform="translate(1139.42 1656.72) rotate(180)"/>
  <rect class="st10" x="579.4" y="817.74" width="17.74" height="21.24" transform="translate(1176.54 1656.72) rotate(180)"/>
  <path class="st10" d="M572.92,813.44v-9.32c0-.21.13-.37.3-.37h16.98c.21,0,.37.17.37.37v9.32"/>
  <path class="st6" d="M582.42,811.72c0-.35-.28-.64-.64-.64s-.64.28-.64.64c0,.35.28.64.64.64s.64-.28.64-.64"/>
  <path class="st6" d="M582.57,807.23c0-.43-.35-.79-.79-.79s-.79.35-.79.79c0,.43.35.79.79.79s.79-.35.79-.79"/>
  <path class="st6" d="M582.94,807.23c0-.64-.52-1.16-1.16-1.16s-1.16.52-1.16,1.16c0,.64.52,1.16,1.16,1.16.64,0,1.16-.52,1.16-1.16"/>
  <path class="st6" d="M573.66,804.12h16.16c.21,0,.37.17.37.37v5.46c0,.21-.17.37-.37.37h-16.16c-.21,0-.37-.17-.37-.37v-5.46c0-.21.17-.37.37-.37Z"/>
  <g>
    <polyline class="st4" points="571.01 784.95 571.01 784.92 570.98 784.92"/>
    <line class="st1" x1="570.56" y1="784.92" x2="542.97" y2="784.92"/>
    <polyline class="st4" points="542.76 784.92 542.73 784.92 542.73 784.95"/>
    <line class="st1" x1="542.73" y1="785.37" x2="542.73" y2="812.96"/>
    <polyline class="st4" points="542.73 813.17 542.73 813.2 542.76 813.2"/>
    <line class="st1" x1="543.18" y1="813.2" x2="570.77" y2="813.2"/>
    <polyline class="st4" points="570.98 813.2 571.01 813.2 571.01 813.17"/>
    <line class="st1" x1="571.01" y1="812.74" x2="571.01" y2="785.16"/>
  </g>
  <line class="st6" x1="556.87" y1="813.2" x2="556.87" y2="805.34"/>
  <polyline class="st9" points="659.57 755.86 672.58 755.02 673.2 769.61 660.26 769.55 659.57 755.86"/>
  <line class="st8" x1="659.72" y1="759.88" x2="661.5" y2="755.79"/>
  <line class="st8" x1="659.94" y1="767.36" x2="665.32" y2="755.49"/>
  <line class="st8" x1="662.64" y1="769.61" x2="669.11" y2="755.25"/>
  <line class="st8" x1="666.34" y1="769.61" x2="672.61" y2="755.79"/>
  <line class="st8" x1="670.04" y1="769.61" x2="672.94" y2="763.37"/>
  <line class="st8" x1="667.75" y1="769.58" x2="659.94" y2="766.09"/>
  <line class="st8" x1="672.96" y1="768.25" x2="659.72" y2="762.27"/>
  <line class="st8" x1="672.81" y1="764.51" x2="659.65" y2="758.6"/>
  <line class="st8" x1="672.66" y1="760.77" x2="661.83" y2="755.72"/>
  <line class="st8" x1="672.51" y1="756.96" x2="668.64" y2="755.25"/>
  <g>
    <polyline class="st9" points="648.66 769.27 642.15 769.13 641.8 782.14 648.01 782.51 648.66 769.27"/>
    <line class="st8" x1="641.98" y1="775.34" x2="646.85" y2="769.9"/>
    <line class="st8" x1="641.84" y1="780.65" x2="648.27" y2="773.34"/>
    <line class="st8" x1="644.77" y1="782.32" x2="648.05" y2="778.73"/>
    <line class="st8" x1="645.32" y1="782.25" x2="641.88" y2="779.19"/>
    <line class="st8" x1="647.97" y1="780.07" x2="642" y2="774.76"/>
    <line class="st8" x1="648.2" y1="775.81" x2="642.07" y2="770.34"/>
    <line class="st8" x1="648.42" y1="771.47" x2="645.83" y2="769.2"/>
  </g>
  <line class="st4" x1="597.16" y1="821.75" x2="646.08" y2="821.68"/>
  <line class="st4" x1="597.15" y1="813.97" x2="646.45" y2="813.9"/>
  <line class="st4" x1="597.14" y1="806.19" x2="646.81" y2="806.12"/>
  <polygon class="st0" points="673.2 770.32 660.09 770.26 659.42 756.59 665.18 756.21 662.34 706.84 655.98 707.21 656.14 710.01 641.85 710.03 641.86 715.34 656.44 715.32 659.57 770.25 648.5 770.2 639 953.32 632.79 953.32 632.79 978.23 650.74 978.23 662.48 783.89 673.2 783.96 673.2 770.32"/>
  <g>
    <rect class="st3" x="524.55" y="892.18" width="69.98" height="31.49" transform="translate(1467.47 348.39) rotate(90)"/>
    <rect class="st3" x="550.79" y="917.82" width="17.5" height="17.5" rx="1.42" ry="1.42"/>
    <polygon class="st3" points="575.69 933.77 575.69 872.76 543.79 872.76 543.79 917.99 575.69 933.77"/>
  </g>
  <g>
    <path class="st3" d="M628.92,950.91c-5.71-2.84-11.42-5.69-17.13-8.53-.28-.06-.58.11-.72.4-4.3,6.36-7.67,13.34-9.96,20.65-.04.12,0,.25.09.3.53.27,1.06.53,1.6.8l15.39,7.73,10.74-21.36"/>
    <path class="st3" d="M630.07,951.71c-.5-.33-1.02-.6-1.59-.81-.11-.04-.24.03-.3.15-3.59,6.75-7.07,13.56-10.42,20.44-.07.18,0,.37.14.45.56.34,1.14.62,1.76.85"/>
    <path class="st3" d="M626.43,950.74c.21-.42,1.36-.26,2.58.36.1.05.19.1.29.16l.77.45c.09.07.12.21.06.33l-10.45,20.79-1.77-.89c-.57-.3-1.14-.6-1.72-.9-.21-.19-.26-.53-.11-.82,2.36-7.01,5.87-13.62,10.35-19.47Z"/>
    <path class="st3" d="M627.6,951.17c-.28-.02-.56-.07-.84-.13-.34-.01-.67-.05-1-.1-.45-.07-.9-.14-1.36-.2-.63-.09-1.23-.23-1.83-.43-.36-.12-.72-.26-1.08-.4-.38-.16-.75-.31-1.12-.48-.89-.39-1.75-.82-2.59-1.3-.85-.49-1.65-1.04-2.41-1.66-.57-.47-1.09-.99-1.57-1.57-.3-.37-.47-.76-.54-1.27,0-.04,0-.08.02-.12l.19-.37c.09-.08.17-.12.28-.12,5.5,2.77,11,5.53,16.5,8.3.1.05.13.18.07.3l-.06.11h0c-.06.11-.18.17-.29.13-.24-.08-.49-.17-.73-.25-.31-.13-.64-.24-.97-.32l-.69-.12Z"/>
    <path class="st3" d="M617.54,971.19c-.19-.21-.39-.41-.6-.6-.21-.26-.44-.51-.68-.75-.33-.32-.65-.65-.97-.97-.44-.45-.92-.85-1.43-1.21-.32-.22-.64-.43-.97-.62-.35-.21-.7-.41-1.05-.62-.84-.48-1.7-.92-2.59-1.3-.9-.39-1.82-.7-2.77-.94-.72-.18-1.44-.29-2.2-.32-.47-.02-.89.08-1.34.33-.04.02-.06.05-.08.09l-.19.37c-.01.12,0,.21.07.29,5.5,2.77,11,5.53,16.5,8.3.1.05.22,0,.28-.12l.06-.11h0c.05-.12.02-.25-.07-.31-.21-.15-.42-.29-.64-.44-.29-.17-.57-.37-.83-.59l-.51-.49Z"/>
  </g>
  <g>
    <g>
      <path class="st9" d="M635.73,906.78c0,4.54-3.92,8.22-8.75,8.22-3.56,0-7.08-2.33-8.29-5.6-.17-.45-.5-1.39-.45-2.62.15-3.86,4-8.22,8.75-8.22,4.83,0,8.75,3.68,8.75,8.22Z"/>
      <path class="st4" d="M619.39,908.62c0,2.79,3.4,5.05,7.59,5.05"/>
      <path class="st4" d="M634.58,908.62c0,2.79-3.4,5.05-7.59,5.05"/>
      <path class="st4" d="M634.58,908.62c0-.55.44-1,.98-1"/>
      <path class="st4" d="M619.39,908.62c0-.55-.47-1-1.06-1"/>
    </g>
    <g>
      <path class="st9" d="M635.73,878.55c0-4.54-3.92-8.22-8.75-8.22-3.56,0-7.08,2.33-8.29,5.6-.17.45-.5,1.39-.45,2.62.15,3.86,4,8.22,8.75,8.22,4.83,0,8.75-3.68,8.75-8.22Z"/>
      <path class="st4" d="M619.39,876.71c0-2.79,3.4-5.05,7.59-5.05"/>
      <path class="st4" d="M634.58,876.71c0-2.79-3.4-5.05-7.59-5.05"/>
      <path class="st4" d="M634.58,876.71c0,.55.44,1,.98,1"/>
      <path class="st4" d="M619.39,876.71c0,.55-.47,1-1.06,1"/>
    </g>
    <rect class="st9" x="615.61" y="879.11" width="22.74" height="25.78" transform="translate(1518.99 265.02) rotate(90)"/>
  </g>
  <circle class="st5" cx="630.02" cy="938.12" r="6.97"/>
  <g>
    <polyline class="st10" points="541.98 947.42 543.32 947.42 543.32 956 541.98 956"/>
    <polyline class="st10" points="543.32 956.97 543.32 946.44 544.73 946.44 544.73 956.97 543.32 956.97"/>
  </g>
  <polygon class="st0" points="609.61 716.08 609.61 710.77 550.29 710.77 550.29 716.08 566.52 716.08 566.52 741.89 542.29 741.89 537.05 741.89 537.05 746.15 537.05 813.62 537.05 817.89 537.05 824.7 537.05 959.2 526.8 959.2 526.8 978.2 552.53 978.2 552.53 959.2 542.29 959.2 542.29 817.89 597.12 817.89 597.12 800.23 592.85 800.23 592.85 813.62 542.29 813.62 542.29 746.15 566.52 746.15 566.52 764.55 592.85 764.55 592.85 768.07 597.12 768.07 597.12 760.29 570.79 760.29 570.79 716.08 609.61 716.08"/>
</svg>