<?xml version="1.0" encoding="UTF-8"?>
<svg id="Lag_1" xmlns="http://www.w3.org/2000/svg" version="1.1" viewBox="0 0 1200 1697.14">
  <!-- Generator: Adobe Illustrator 29.6.0, SVG Export Plug-In . SVG Version: 2.1.1 Build 207)  -->
  <defs>
    <style>
      .st0 {
        fill: #000016;
      }

      .st1, .st2, .st3, .st4, .st5, .st6, .st7, .st8, .st9, .st10 {
        stroke-width: .18px;
      }

      .st1, .st2, .st4, .st5, .st7, .st8, .st9, .st10 {
        stroke-linejoin: round;
      }

      .st1, .st2, .st5, .st7, .st8, .st9 {
        stroke-linecap: round;
      }

      .st1, .st3 {
        stroke: #060305;
      }

      .st1, .st3, .st6, .st9, .st10 {
        fill: #fff;
      }

      .st11 {
        fill: #e8e3e0;
      }

      .st2, .st4, .st5, .st6, .st8, .st9, .st10 {
        stroke: #000;
      }

      .st2, .st4, .st5, .st7, .st8 {
        fill: none;
      }

      .st3, .st6 {
        stroke-miterlimit: 10;
      }

      .st5 {
        stroke-dasharray: .06 .42;
      }

      .st7 {
        stroke: #767676;
      }

      .st8 {
        stroke-dasharray: .06 .43;
      }
    </style>
  </defs>
  <polygon class="st11" points="575.54 712.1 575.54 742.09 547.22 742.09 547.22 712.1 544.44 712.1 544.44 973.62 652.91 973.62 652.91 712.1 575.54 712.1"/>
  <g>
    <path class="st2" d="M585.5,975.93s0,.02,0,.03"/>
    <path class="st5" d="M585.46,976.38c-.32,2.7-3.1,10.38-3.82,10.38l-19.5-11.09-.23-.13"/>
    <line class="st2" x1="561.73" y1="975.43" x2="561.71" y2="975.41"/>
  </g>
  <polyline class="st9" points="643.62 768.77 662.34 769.07 662.19 787.71 643.48 787.49 643.62 768.77"/>
  <line class="st7" x1="643.62" y1="770.26" x2="645.12" y2="768.85"/>
  <line class="st7" x1="643.62" y1="775.04" x2="649.74" y2="768.85"/>
  <line class="st7" x1="643.55" y1="779.81" x2="654.44" y2="768.92"/>
  <line class="st7" x1="643.55" y1="784.58" x2="659.14" y2="769"/>
  <line class="st7" x1="645.41" y1="787.49" x2="662.34" y2="770.56"/>
  <line class="st7" x1="650.04" y1="787.56" x2="662.27" y2="775.33"/>
  <line class="st7" x1="644.82" y1="787.49" x2="643.55" y2="786.22"/>
  <line class="st7" x1="649.59" y1="787.56" x2="643.55" y2="781.52"/>
  <line class="st7" x1="654.44" y1="787.64" x2="643.55" y2="776.75"/>
  <line class="st7" x1="659.21" y1="787.71" x2="643.62" y2="772.05"/>
  <line class="st7" x1="662.19" y1="785.92" x2="645.12" y2="768.85"/>
  <line class="st7" x1="662.19" y1="781.23" x2="649.89" y2="768.85"/>
  <polyline class="st9" points="599.25 759 578.15 759 578.15 716.72 599.25 716.72 599.25 759"/>
  <polyline class="st2" points="578.15 746.62 599.25 746.62 599.25 759 578.15 759 578.15 746.62"/>
  <line class="st2" x1="591.13" y1="752.66" x2="596.79" y2="752.66"/>
  <line class="st2" x1="593.96" y1="749.83" x2="593.96" y2="755.42"/>
  <polyline class="st2" points="595.75 720.23 581.66 720.23 581.66 734.32 595.75 734.32 595.75 720.23"/>
  <polyline class="st2" points="578.15 737.83 578.15 716.72 599.25 716.72 599.25 737.83 578.15 737.83"/>
  <line class="st2" x1="580.61" y1="752.66" x2="586.2" y2="752.66"/>
  <line class="st2" x1="583.44" y1="749.83" x2="583.44" y2="755.42"/>
  <line class="st2" x1="579.72" y1="727.24" x2="585.31" y2="727.24"/>
  <polyline class="st9" points="638.18 975.41 638.18 970.12 639.97 970.12 639.97 975.41 638.18 975.41"/>
  <polyline class="st9" points="587.25 975.41 638.18 975.41 638.18 973.7 587.25 973.62 587.25 975.41"/>
  <polyline class="st9" points="561.74 975.41 585.46 975.41 585.46 972.73 561.74 972.73 561.74 975.41"/>
  <polyline class="st9" points="559.95 975.41 559.95 970.12 561.74 970.12 561.74 975.41 559.95 975.41"/>
  <polyline class="st9" points="585.46 975.41 585.46 970.12 587.25 970.12 587.25 975.41 585.46 975.41"/>
  <line class="st2" x1="639.97" y1="976.46" x2="559.95" y2="976.46"/>
  <line class="st2" x1="602.24" y1="769.22" x2="630.8" y2="769.22"/>
  <path class="st2" d="M602.2,797.71c15.75,0,28.52-12.77,28.52-28.52"/>
  <line class="st2" x1="602.24" y1="797.71" x2="602.24" y2="769.22"/>
  <line class="st2" x1="647.2" y1="712.1" x2="647.2" y2="740.66"/>
  <path class="st2" d="M618.64,712.06c0,15.75,12.77,28.52,28.52,28.52"/>
  <line class="st2" x1="618.64" y1="712.1" x2="647.2" y2="712.1"/>
  <path class="st10" d="M565.96,804.75c0,.97-.78,1.75-1.75,1.75s-1.75-.78-1.75-1.75.78-1.75,1.75-1.75,1.75.78,1.75,1.75"/>
  <path class="st6" d="M568.07,756.43v10.24c0,3.94-2.83,7.13-6.33,7.13-3.5,0-6.33-3.19-6.33-7.13v-10.24s12.67,0,12.67,0Z"/>
  <polygon class="st10" points="549.65 756.43 573.92 756.43 573.99 745.57 549.65 745.54 549.65 756.43"/>
  <rect class="st10" x="549.71" y="817.07" width="17.6" height="21.18" transform="translate(1117.03 1655.32) rotate(180)"/>
  <rect class="st10" x="568.21" y="817.07" width="17.67" height="21.18" transform="translate(1154.09 1655.32) rotate(180)"/>
  <rect class="st10" x="586.7" y="817.07" width="17.69" height="21.18" transform="translate(1191.09 1655.32) rotate(180)"/>
  <path class="st10" d="M580.24,812.79v-9.29c0-.21.13-.37.3-.37h16.93c.21,0,.37.17.37.37v9.29"/>
  <path class="st4" d="M589.71,811.07c0-.35-.28-.63-.63-.63s-.63.28-.63.63c0,.35.28.63.63.63s.63-.28.63-.63"/>
  <path class="st4" d="M589.86,806.59c0-.43-.35-.78-.78-.78s-.78.35-.78.78c0,.43.35.78.78.78s.78-.35.78-.78"/>
  <path class="st4" d="M590.23,806.59c0-.64-.52-1.16-1.16-1.16s-1.16.52-1.16,1.16c0,.64.52,1.16,1.16,1.16s1.16-.52,1.16-1.16"/>
  <path class="st4" d="M580.98,803.5h16.11c.21,0,.37.17.37.37v5.45c0,.2-.17.37-.37.37h-16.11c-.21,0-.37-.17-.37-.37v-5.44c0-.21.17-.37.37-.37Z"/>
  <g>
    <polyline class="st2" points="578.34 784.38 578.34 784.35 578.31 784.35"/>
    <line class="st8" x1="577.88" y1="784.35" x2="550.39" y2="784.35"/>
    <polyline class="st2" points="550.18 784.35 550.15 784.35 550.15 784.38"/>
    <line class="st8" x1="550.15" y1="784.81" x2="550.15" y2="812.3"/>
    <polyline class="st2" points="550.15 812.51 550.15 812.54 550.18 812.54"/>
    <line class="st8" x1="550.61" y1="812.54" x2="578.1" y2="812.54"/>
    <polyline class="st2" points="578.31 812.54 578.34 812.54 578.34 812.51"/>
    <line class="st8" x1="578.34" y1="812.08" x2="578.34" y2="784.6"/>
  </g>
  <line class="st4" x1="564.25" y1="812.41" x2="564.25" y2="804.58"/>
  <line class="st2" x1="573.9" y1="710.38" x2="549.74" y2="741.33"/>
  <line class="st2" x1="549.74" y1="710.38" x2="573.9" y2="741.33"/>
  <line class="st7" x1="654.44" y1="787.64" x2="661.9" y2="780.18"/>
  <line class="st7" x1="658.66" y1="787.64" x2="662.39" y2="783.91"/>
  <line class="st7" x1="654.44" y1="769" x2="662.19" y2="776.75"/>
  <line class="st7" x1="659.14" y1="769" x2="662.27" y2="772.13"/>
  <polygon class="st0" points="650.19 710.38 648.92 710.38 648.92 715.6 650.19 715.6 650.19 768.92 655.48 768.92 655.48 715.6 656.68 715.6 656.68 710.38 650.19 710.38"/>
  <polygon class="st0" points="662.93 952.05 663 947.2 662.18 946.53 655.44 946.48 655.44 787.64 650.12 787.56 650.12 946.43 643.3 946.38 642.55 947.05 642.18 953.17 639.93 953.17 639.93 976.44 665.77 976.52 665.77 952.05 662.93 952.05"/>
  <g>
    <rect class="st1" x="532" y="885.43" width="69.98" height="31.49" transform="translate(1468.16 334.18) rotate(90)"/>
    <rect class="st1" x="558.24" y="911.06" width="17.5" height="17.5" rx="1.42" ry="1.42"/>
    <polygon class="st1" points="583.14 927.01 583.14 866 551.25 866 551.25 911.23 583.14 927.01"/>
  </g>
  <g>
    <path class="st1" d="M636.37,944.15c-5.71-2.84-11.42-5.69-17.13-8.53-.28-.06-.58.11-.72.4-4.3,6.36-7.67,13.34-9.96,20.65-.04.12,0,.25.09.3.53.27,1.06.53,1.6.8l15.39,7.73,10.74-21.36"/>
    <path class="st1" d="M637.52,944.95c-.5-.33-1.02-.6-1.59-.81-.11-.04-.24.03-.3.15-3.59,6.75-7.07,13.56-10.42,20.44-.07.18,0,.37.14.45.56.34,1.14.62,1.76.85"/>
    <path class="st1" d="M633.88,943.98c.21-.42,1.36-.26,2.58.36.1.05.19.1.29.16l.77.45c.09.07.12.21.06.33l-10.45,20.79-1.77-.89c-.57-.3-1.14-.6-1.72-.9-.21-.19-.26-.53-.11-.82,2.36-7.01,5.87-13.62,10.35-19.47Z"/>
    <path class="st1" d="M635.06,944.41c-.28-.02-.56-.07-.84-.13-.34-.01-.67-.05-1-.1-.45-.07-.9-.14-1.36-.2-.63-.09-1.23-.23-1.83-.43-.36-.12-.72-.26-1.08-.4-.38-.16-.75-.31-1.12-.48-.89-.39-1.75-.82-2.59-1.3-.85-.49-1.65-1.04-2.41-1.66-.57-.47-1.09-.99-1.57-1.57-.3-.37-.47-.76-.54-1.27,0-.04,0-.08.02-.12l.19-.37c.09-.08.17-.12.28-.12,5.5,2.77,11,5.53,16.5,8.3.1.05.13.18.07.3l-.06.11h0c-.06.11-.18.17-.29.13-.24-.08-.49-.17-.73-.25-.31-.13-.64-.24-.97-.32l-.69-.12Z"/>
    <path class="st1" d="M625,964.43c-.19-.21-.39-.41-.6-.6-.21-.26-.44-.51-.68-.75-.33-.32-.65-.65-.97-.97-.44-.45-.92-.85-1.43-1.21-.32-.22-.64-.43-.97-.62-.35-.21-.7-.41-1.05-.62-.84-.48-1.7-.92-2.59-1.3-.9-.39-1.82-.7-2.77-.94-.72-.18-1.44-.29-2.2-.32-.47-.02-.89.08-1.34.33-.04.02-.06.05-.08.09l-.19.37c-.01.12,0,.21.07.29,5.5,2.77,11,5.53,16.5,8.3.1.05.22,0,.28-.12l.06-.11h0c.05-.12.02-.25-.07-.31-.21-.15-.42-.29-.64-.44-.29-.17-.57-.37-.83-.59l-.51-.49Z"/>
  </g>
  <g>
    <g>
      <path class="st9" d="M643.18,900.02c0,4.54-3.92,8.22-8.75,8.22-3.56,0-7.08-2.33-8.29-5.6-.17-.45-.5-1.39-.45-2.62.15-3.86,4-8.22,8.75-8.22,4.83,0,8.75,3.68,8.75,8.22Z"/>
      <path class="st2" d="M626.84,901.87c0,2.79,3.4,5.05,7.59,5.05"/>
      <path class="st2" d="M642.03,901.87c0,2.79-3.4,5.05-7.59,5.05"/>
      <path class="st2" d="M642.03,901.87c0-.55.44-1,.98-1"/>
      <path class="st2" d="M626.84,901.87c0-.55-.47-1-1.06-1"/>
    </g>
    <g>
      <path class="st9" d="M643.18,871.8c0-4.54-3.92-8.22-8.75-8.22-3.56,0-7.08,2.33-8.29,5.6-.17.45-.5,1.39-.45,2.62.15,3.86,4,8.22,8.75,8.22,4.83,0,8.75-3.68,8.75-8.22Z"/>
      <path class="st2" d="M626.84,869.95c0-2.79,3.4-5.05,7.59-5.05"/>
      <path class="st2" d="M642.03,869.95c0-2.79-3.4-5.05-7.59-5.05"/>
      <path class="st2" d="M642.03,869.95c0,.55.44,1,.98,1"/>
      <path class="st2" d="M626.84,869.95c0,.55-.47,1-1.06,1"/>
    </g>
    <rect class="st9" x="623.06" y="872.35" width="22.74" height="25.78" transform="translate(1519.68 250.81) rotate(90)"/>
  </g>
  <circle class="st3" cx="637.48" cy="931.36" r="6.97"/>
  <g>
    <polyline class="st10" points="549.43 940.66 550.77 940.66 550.77 949.24 549.43 949.24"/>
    <polyline class="st10" points="550.77 950.21 550.77 939.69 552.18 939.69 552.18 950.21 550.77 950.21"/>
  </g>
  <polygon class="st0" points="616.85 715.6 616.85 710.38 582.7 710.38 579.19 710.38 573.9 710.38 573.9 741.33 549.74 741.33 549.74 710.38 544.44 710.38 544.44 952.59 534.23 952.59 534.23 976.46 559.95 976.46 559.95 952.59 549.74 952.59 549.74 817.1 604.4 817.1 604.4 799.5 600.15 799.5 600.15 812.92 549.74 812.92 549.74 745.58 573.9 745.58 573.9 763.93 600.15 763.93 600.15 767.43 604.4 767.43 604.4 759.67 578.15 759.67 578.15 715.6 616.85 715.6"/>
</svg>