<?xml version="1.0" encoding="UTF-8"?>
<svg id="Lag_1" xmlns="http://www.w3.org/2000/svg" version="1.1" viewBox="0 0 1200 1697.14">
  <!-- Generator: Adobe Illustrator 29.6.0, SVG Export Plug-In . SVG Version: 2.1.1 Build 207)  -->
  <defs>
    <style>
      .st0 {
        stroke-dasharray: .06 .42;
      }

      .st0, .st1, .st2, .st3, .st4, .st5, .st6, .st7, .st8, .st9 {
        stroke-width: .18px;
      }

      .st0, .st1, .st2, .st4, .st5, .st6, .st8, .st9 {
        stroke-linejoin: round;
      }

      .st0, .st1, .st2, .st6, .st8 {
        stroke-linecap: round;
      }

      .st0, .st2, .st4, .st5, .st6 {
        fill: none;
      }

      .st0, .st2, .st4, .st6, .st7, .st8, .st9 {
        stroke: #000;
      }

      .st10 {
        fill: #000016;
      }

      .st1, .st3 {
        stroke: #060305;
      }

      .st1, .st3, .st7, .st8, .st9 {
        fill: #fff;
      }

      .st11 {
        fill: #e8e3e0;
      }

      .st3, .st7 {
        stroke-miterlimit: 10;
      }

      .st5 {
        stroke: #767676;
      }

      .st6 {
        stroke-dasharray: .06 .43;
      }
    </style>
  </defs>
  <polygon class="st11" points="544.7 723.45 544.7 956.9 573.1 956.9 573.1 987.12 651.42 987.12 651.42 723.45 544.7 723.45"/>
  <g>
    <polyline class="st2" points="576.24 914.2 576.24 914.23 576.21 914.23"/>
    <line class="st6" x1="575.78" y1="914.23" x2="548.03" y2="914.23"/>
    <polyline class="st2" points="547.82 914.23 547.79 914.23 547.79 914.2"/>
    <line class="st6" x1="547.79" y1="913.78" x2="547.79" y2="886.02"/>
    <polyline class="st2" points="547.79 885.81 547.79 885.78 547.82 885.78"/>
    <line class="st6" x1="548.24" y1="885.78" x2="576" y2="885.78"/>
    <polyline class="st2" points="576.21 885.78 576.24 885.78 576.24 885.81"/>
    <line class="st6" x1="576.24" y1="886.24" x2="576.24" y2="913.99"/>
  </g>
  <polyline class="st9" points="547.49 748.51 548.84 748.51 548.84 764.47 547.49 764.47"/>
  <polyline class="st9" points="558.33 721.64 558.33 726.99 556.52 726.99 556.52 721.64 558.33 721.64"/>
  <polyline class="st4" points="609.73 721.64 558.33 721.64 558.33 723.45 609.73 723.37 609.73 721.64"/>
  <polyline class="st9" points="635.46 721.57 611.46 721.64 611.46 724.28 635.46 724.28 635.46 721.57"/>
  <polyline class="st9" points="637.2 721.57 637.27 726.91 635.46 726.91 635.46 721.57 637.2 721.57"/>
  <polyline class="st9" points="611.46 721.64 611.46 726.99 609.73 726.99 609.73 721.64 611.46 721.64"/>
  <line class="st4" x1="556.52" y1="720.59" x2="637.2" y2="720.51"/>
  <path class="st9" d="M563.74,893.65c0-.98-.79-1.77-1.77-1.77s-1.77.79-1.77,1.77.79,1.77,1.77,1.77,1.77-.79,1.77-1.77"/>
  <line class="st4" x1="600.39" y1="929.51" x2="629.22" y2="929.51"/>
  <path class="st4" d="M629.14,929.47c0-15.9-12.89-28.79-28.79-28.79"/>
  <line class="st4" x1="600.39" y1="900.76" x2="600.39" y2="929.51"/>
  <line class="st4" x1="645.78" y1="987.16" x2="645.78" y2="958.33"/>
  <path class="st4" d="M645.74,958.33c-15.9,0-28.79,12.89-28.79,28.79"/>
  <line class="st4" x1="616.95" y1="987.16" x2="645.78" y2="987.16"/>
  <polyline class="st9" points="597.38 939.82 576.09 939.82 576.09 982.49 597.38 982.49 597.38 939.82"/>
  <polyline class="st4" points="576.09 952.31 597.38 952.31 597.38 939.82 576.09 939.82 576.09 952.31"/>
  <line class="st4" x1="578.57" y1="946.29" x2="584.21" y2="946.29"/>
  <line class="st4" x1="589.26" y1="946.29" x2="594.9" y2="946.29"/>
  <line class="st4" x1="592.04" y1="949.07" x2="592.04" y2="943.43"/>
  <line class="st4" x1="581.43" y1="949.07" x2="581.43" y2="943.43"/>
  <polyline class="st4" points="593.85 978.95 579.62 978.95 579.62 964.73 593.85 964.73 593.85 978.95"/>
  <polyline class="st4" points="576.09 961.19 576.09 982.49 597.38 982.49 597.38 961.19 576.09 961.19"/>
  <line class="st4" x1="577.67" y1="971.88" x2="583.39" y2="971.88"/>
  <polyline class="st9" points="645.25 913.18 656.91 913.25 656.99 924.99 645.25 924.92 645.25 913.18"/>
  <line class="st5" x1="645.25" y1="917.54" x2="649.54" y2="913.18"/>
  <line class="st5" x1="645.25" y1="922.28" x2="654.35" y2="913.25"/>
  <line class="st5" x1="647.43" y1="924.92" x2="656.99" y2="915.36"/>
  <line class="st5" x1="652.17" y1="924.99" x2="656.99" y2="920.18"/>
  <line class="st5" x1="649.09" y1="924.92" x2="645.25" y2="921.08"/>
  <line class="st5" x1="653.9" y1="924.99" x2="645.25" y2="916.26"/>
  <line class="st5" x1="656.99" y1="923.26" x2="646.9" y2="913.18"/>
  <line class="st5" x1="656.99" y1="918.44" x2="651.72" y2="913.25"/>
  <polyline class="st9" points="548.84 765.37 548.84 747.53 550.27 747.53 550.27 765.37 548.84 765.37"/>
  <path class="st7" d="M565.87,942.41v-10.34c0-3.98-2.86-7.2-6.39-7.2-3.53,0-6.39,3.22-6.39,7.2v10.34s12.78,0,12.78,0Z"/>
  <polygon class="st9" points="547.29 942.41 571.78 942.41 571.85 953.37 547.29 953.4 547.29 942.41"/>
  <rect class="st9" x="547.35" y="859.84" width="17.76" height="21.37" transform="translate(1112.46 1741.05) rotate(-180)"/>
  <rect class="st9" x="566.01" y="859.84" width="17.84" height="21.37" transform="translate(1149.86 1741.05) rotate(-180)"/>
  <rect class="st9" x="584.68" y="859.84" width="17.85" height="21.37" transform="translate(1187.2 1741.05) rotate(-180)"/>
  <path class="st9" d="M578.16,885.54v9.37c0,.21.13.38.3.38h17.08c.21,0,.38-.17.38-.38v-9.37"/>
  <path class="st4" d="M587.71,887.27c0,.35-.29.64-.64.64s-.64-.29-.64-.64c0-.35.29-.64.64-.64s.64.29.64.64"/>
  <path class="st4" d="M587.86,891.79c0,.44-.35.79-.79.79s-.79-.35-.79-.79.35-.79.79-.79.79.35.79.79"/>
  <path class="st4" d="M588.24,891.79c0,.64-.52,1.17-1.17,1.17s-1.17-.52-1.17-1.17.52-1.17,1.17-1.17,1.17.52,1.17,1.17"/>
  <path class="st4" d="M578.9,888.66h16.26c.21,0,.38.17.38.38v5.5c0,.21-.17.37-.37.37h-16.26c-.21,0-.38-.17-.38-.38v-5.5c0-.21.17-.37.37-.37Z"/>
  <line class="st4" x1="562.01" y1="885.78" x2="562.01" y2="893.68"/>
  <g>
    <path class="st2" d="M611.57,721.03s0-.02,0-.03"/>
    <path class="st0" d="M611.59,720.58c.28-3.11,3.1-12.33,3.83-12.33l19.49,13.08.24.17"/>
    <line class="st2" x1="635.33" y1="721.63" x2="635.35" y2="721.64"/>
  </g>
  <line class="st4" x1="571.8" y1="957.65" x2="542.14" y2="983.62"/>
  <line class="st4" x1="542.14" y1="957.65" x2="571.8" y2="983.62"/>
  <polygon class="st10" points="576.09 983.62 576.09 939.14 602.58 939.14 602.58 931.31 598.29 931.31 598.29 934.85 571.8 934.85 571.8 953.36 547.49 953.36 547.49 885.48 598.29 885.48 598.29 898.95 602.58 898.95 602.58 881.19 547.49 881.19 547.49 738.8 556.52 738.8 556.52 720.59 535.22 720.59 535.22 738.8 542.14 738.8 542.14 957.65 547.49 957.65 571.8 957.65 571.8 983.62 555.47 983.62 555.47 988.89 615.22 988.89 615.22 983.62 576.09 983.62"/>
  <polygon class="st10" points="651.42 988.89 655.33 988.89 655.33 983.62 654.13 983.62 654.13 924.99 648.79 924.92 648.79 983.62 647.51 983.62 647.51 988.89 651.42 988.89"/>
  <g>
    <rect class="st1" x="596.02" y="764.39" width="71.11" height="32" transform="translate(-148.81 1411.97) rotate(-90)"/>
    <rect class="st1" x="622.69" y="752.57" width="17.78" height="17.78" rx="1.42" ry="1.42"/>
    <polygon class="st1" points="647.99 754.13 647.99 816.13 615.58 816.13 615.58 770.17 647.99 754.13"/>
  </g>
  <g>
    <g>
      <path class="st8" d="M570.4,831.38c0,4.61-3.98,8.36-8.89,8.36-3.61,0-7.19-2.36-8.43-5.69-.17-.45-.51-1.41-.46-2.66.16-3.92,4.07-8.36,8.89-8.36s8.89,3.74,8.89,8.36Z"/>
      <path class="st2" d="M553.79,833.25c0,2.84,3.45,5.13,7.72,5.13"/>
      <path class="st2" d="M569.22,833.25c0,2.84-3.45,5.13-7.72,5.13"/>
      <path class="st2" d="M569.22,833.25c0-.56.44-1.01.99-1.01"/>
      <path class="st2" d="M553.79,833.25c0-.56-.48-1.01-1.07-1.01"/>
    </g>
    <g>
      <path class="st8" d="M570.4,802.7c0-4.61-3.98-8.36-8.89-8.36-3.61,0-7.19,2.36-8.43,5.69-.17.45-.51,1.41-.46,2.66.16,3.92,4.07,8.36,8.89,8.36,4.91,0,8.89-3.74,8.89-8.36Z"/>
      <path class="st2" d="M553.79,800.82c0-2.84,3.45-5.13,7.72-5.13"/>
      <path class="st2" d="M569.22,800.82c0-2.84-3.45-5.13-7.72-5.13"/>
      <path class="st2" d="M569.22,800.82c0,.56.44,1.01.99,1.01"/>
      <path class="st2" d="M553.79,800.82c0,.56-.48,1.01-1.07,1.01"/>
    </g>
    <rect class="st8" x="549.95" y="803.26" width="23.11" height="26.19" transform="translate(1377.87 254.85) rotate(90)"/>
  </g>
  <g>
    <path class="st1" d="M553.87,748.06c5.31,3.72,10.62,7.43,15.92,11.15.27.1.6-.02.79-.29,5.28-5.74,9.71-12.25,13.12-19.25.06-.12.04-.25-.05-.32l-1.48-1.05-14.3-10.09-14.01,19.85"/>
    <path class="st1" d="M552.84,747.09c.45.41.94.76,1.47,1.05.11.05.24,0,.32-.1,4.63-6.25,9.14-12.57,13.55-18.97.09-.17.06-.38-.07-.48-.51-.43-1.05-.8-1.64-1.11"/>
    <path class="st1" d="M556.35,748.6c-.27.39-1.41.05-2.54-.75-.09-.07-.18-.13-.26-.2l-.71-.57c-.08-.08-.09-.23,0-.34l13.64-19.32,1.64,1.16c.53.39,1.06.78,1.59,1.17.18.22.18.57-.01.84-3.43,6.69-7.95,12.8-13.34,18.01Z"/>
    <path class="st1" d="M555.23,748c.28.07.56.15.82.26.34.07.67.15.99.25.44.14.89.27,1.33.41.62.18,1.2.42,1.77.71.35.18.69.37,1.02.57.35.21.71.43,1.06.65.83.52,1.64,1.09,2.41,1.7.78.62,1.5,1.29,2.17,2.03.5.56.95,1.16,1.34,1.81.25.41.36.84.35,1.36,0,.04-.01.08-.04.12l-.25.35c-.1.07-.19.09-.3.07-5.11-3.61-10.22-7.21-15.33-10.82-.09-.06-.1-.2-.03-.31l.08-.11h0c.08-.1.21-.14.31-.08.23.12.47.24.7.36.3.18.6.33.93.46l.68.22Z"/>
    <path class="st1" d="M568.36,729.4c.16.24.33.47.52.69.17.3.36.58.57.85.28.37.55.75.83,1.12.38.52.8.99,1.26,1.43.28.27.58.53.88.77.32.26.64.52.97.78.77.61,1.57,1.18,2.41,1.7.84.53,1.72.98,2.64,1.36.69.29,1.41.5,2.16.65.47.09.91.05,1.4-.13.04-.02.07-.04.1-.08l.25-.35c.03-.12.02-.21-.03-.31-5.11-3.61-10.22-7.21-15.33-10.82-.09-.06-.23-.03-.3.08l-.08.11h0c-.07.11-.06.24.02.32.19.18.38.36.57.54.27.22.52.46.75.72l.43.56Z"/>
  </g>
  <circle class="st3" cx="559.24" cy="765.12" r="7.06"/>
  <polygon class="st10" points="664.78 720.51 637.27 720.51 637.27 742.79 648.79 742.82 648.79 743.58 648.79 744.83 648.79 913.18 654.13 913.25 654.13 744.83 654.13 743.58 654.13 742.84 664.78 742.87 664.78 720.51"/>
</svg>