<?xml version="1.0" encoding="UTF-8"?>
<svg id="Lag_1" xmlns="http://www.w3.org/2000/svg" version="1.1" viewBox="0 0 1200 1697.14">
  <!-- Generator: Adobe Illustrator 29.6.0, SVG Export Plug-In . SVG Version: 2.1.1 Build 207)  -->
  <defs>
    <style>
      .st0, .st1, .st2, .st3 {
        fill: none;
      }

      .st4 {
        fill: #000016;
      }

      .st5, .st1, .st6, .st7, .st2, .st8, .st9, .st10, .st3 {
        stroke-width: .18px;
      }

      .st5, .st1, .st7, .st2, .st9, .st10, .st3 {
        stroke-linejoin: round;
      }

      .st5, .st1, .st7, .st2, .st9, .st3 {
        stroke-linecap: round;
      }

      .st5, .st6 {
        stroke: #060305;
      }

      .st5, .st6, .st8, .st9, .st10 {
        fill: #fff;
      }

      .st11 {
        fill: #e8e3e0;
      }

      .st1, .st7, .st2, .st8, .st9, .st10, .st3 {
        stroke: #000;
      }

      .st6, .st8 {
        stroke-miterlimit: 10;
      }

      .st7 {
        fill: #3f3e3e;
      }

      .st2 {
        stroke-dasharray: .06 .43;
      }

      .st3 {
        stroke-dasharray: .06 .43;
      }
    </style>
  </defs>
  <polygon class="st11" points="539.78 696.1 539.78 1007.48 549.9 1007.48 549.9 946.47 580.1 946.47 580.1 1007.48 656.33 1007.48 656.33 696.1 539.78 696.1"/>
  <path class="st8" d="M560.16,933.29v-10c0-3.85,2.77-6.96,6.18-6.96s6.18,3.11,6.18,6.96v10h-12.36Z"/>
  <polygon class="st9" points="578.13 933.29 554.45 933.29 554.38 943.88 578.13 943.91 578.13 933.29"/>
  <path class="st9" d="M601.49,878.44v9.06c0,.2-.13.36-.29.36h-16.52c-.2,0-.36-.16-.36-.36v-9.06"/>
  <polyline class="st9" points="566.27 694.35 566.27 699.52 564.52 699.52 564.52 694.35 566.27 694.35"/>
  <polyline class="st1" points="615.97 694.35 566.27 694.35 566.27 696.03 615.97 696.03 615.97 694.35"/>
  <polyline class="st9" points="640.86 694.35 617.72 694.35 617.72 696.9 640.86 696.9 640.86 694.35"/>
  <polyline class="st9" points="642.61 694.35 642.61 699.52 640.86 699.52 640.86 694.35 642.61 694.35"/>
  <polyline class="st9" points="617.72 694.35 617.72 699.52 615.97 699.52 615.97 694.35 617.72 694.35"/>
  <line class="st1" x1="564.52" y1="693.34" x2="642.61" y2="693.34"/>
  <polygon class="st7" points="607.9 891.29 607.9 874.12 554.55 874.12 554.55 878.26 603.75 878.26 603.75 891.29 607.9 891.29"/>
  <path class="st1" d="M649.63,979.64c-15.37,0-27.84,12.46-27.84,27.84"/>
  <line class="st1" x1="649.67" y1="1007.52" x2="649.67" y2="979.64"/>
  <line class="st1" x1="621.8" y1="1007.52" x2="649.67" y2="1007.52"/>
  <path class="st1" d="M648.21,979.68"/>
  <path class="st1" d="M633.66,920.91h-27.87v-27.87h-.04c15.37,0,27.84,12.46,27.84,27.84"/>
  <polyline class="st9" points="602.87 930.88 582.28 930.88 582.28 1003.08 602.87 1003.08 602.87 930.88"/>
  <polyline class="st1" points="599.45 999.66 585.7 999.66 585.7 985.9 599.45 985.9 599.45 999.66"/>
  <polyline class="st1" points="582.28 982.41 582.28 1003.08 602.87 1003.08 602.87 982.41 582.28 982.41"/>
  <polyline class="st1" points="582.28 942.89 602.87 942.89 602.87 930.88 582.28 930.88 582.28 942.89"/>
  <line class="st1" x1="584.68" y1="937.07" x2="590.14" y2="937.07"/>
  <line class="st1" x1="595.01" y1="937.07" x2="600.47" y2="937.07"/>
  <line class="st1" x1="597.71" y1="939.76" x2="597.71" y2="934.3"/>
  <line class="st1" x1="587.45" y1="939.76" x2="587.45" y2="934.3"/>
  <path class="st1" d="M592.25,880.12c0,.34.28.62.62.62s.62-.28.62-.62-.28-.62-.62-.62-.62.28-.62.62"/>
  <path class="st1" d="M592.1,884.49c0,.42.34.76.76.76s.76-.34.76-.76-.34-.76-.76-.76-.76.34-.76.76"/>
  <path class="st1" d="M591.74,884.49c0,.62.51,1.13,1.13,1.13s1.13-.51,1.13-1.13-.5-1.13-1.13-1.13-1.13.51-1.13,1.13"/>
  <line class="st1" x1="568.67" y1="878.56" x2="568.67" y2="886.2"/>
  <path class="st9" d="M570.34,886.16c0-.94-.77-1.71-1.71-1.71s-1.71.77-1.71,1.71.77,1.71,1.71,1.71,1.71-.77,1.71-1.71"/>
  <rect class="st1" x="584.68" y="881.47" width="16.52" height="6.04" rx=".36" ry=".36"/>
  <rect class="st9" x="590.72" y="853.45" width="17.18" height="20.67"/>
  <rect class="st9" x="572.6" y="853.45" width="17.25" height="20.67"/>
  <rect class="st9" x="554.54" y="853.45" width="17.26" height="20.67"/>
  <g>
    <polyline class="st1" points="554.91 906.04 554.91 906.07 554.94 906.07"/>
    <line class="st3" x1="555.37" y1="906.07" x2="582.18" y2="906.07"/>
    <polyline class="st1" points="582.4 906.07 582.42 906.07 582.42 906.04"/>
    <line class="st3" x1="582.42" y1="905.61" x2="582.42" y2="878.8"/>
    <polyline class="st1" points="582.42 878.58 582.42 878.56 582.4 878.56"/>
    <line class="st3" x1="581.97" y1="878.56" x2="555.16" y2="878.56"/>
    <polyline class="st1" points="554.94 878.56 554.91 878.56 554.91 878.58"/>
    <line class="st3" x1="554.91" y1="879.01" x2="554.91" y2="905.82"/>
  </g>
  <polyline class="st0" points="582.28 944.39 652.58 944.39 652.58 888.35 554.5 888.35"/>
  <g>
    <path class="st1" d="M617.72,693.68s0-.02,0-.03"/>
    <path class="st2" d="M617.75,693.23c.28-3.03,3-11.9,3.7-11.9l18.85,12.65.22.15"/>
    <line class="st1" x1="640.7" y1="694.26" x2="640.72" y2="694.27"/>
  </g>
  <line class="st1" x1="578.13" y1="948.06" x2="554.4" y2="1004.1"/>
  <line class="st1" x1="554.55" y1="948.06" x2="578.13" y2="1004.1"/>
  <line class="st1" x1="589.03" y1="992.74" x2="583.49" y2="992.74"/>
  <g>
    <rect class="st5" x="536.78" y="734.81" width="68.77" height="30.95" transform="translate(-179.11 1321.45) rotate(-90)"/>
    <rect class="st5" x="562.57" y="723.37" width="17.19" height="17.19" rx="1.42" ry="1.42" transform="translate(1142.33 1463.94) rotate(180)"/>
    <polygon class="st5" points="555.3 724.89 555.3 784.84 586.64 784.84 586.64 740.4 555.3 724.89"/>
  </g>
  <g>
    <g>
      <path class="st9" d="M630.74,825.74c0,4.46,3.85,8.08,8.59,8.08,3.49,0,6.96-2.29,8.15-5.5.16-.44.49-1.36.45-2.58-.15-3.8-3.93-8.08-8.59-8.08s-8.59,3.62-8.59,8.08Z"/>
      <path class="st1" d="M646.8,827.56c0,2.74-3.34,4.96-7.46,4.96"/>
      <path class="st1" d="M631.87,827.56c0,2.74,3.34,4.96,7.46,4.96"/>
      <path class="st1" d="M631.87,827.56c0-.54-.43-.98-.96-.98"/>
      <path class="st1" d="M646.8,827.56c0-.54.46-.98,1.04-.98"/>
    </g>
    <g>
      <path class="st9" d="M630.74,798.01c0-4.46,3.85-8.08,8.59-8.08,3.49,0,6.96,2.29,8.15,5.5.16.44.49,1.36.45,2.58-.15,3.8-3.93,8.08-8.59,8.08s-8.59-3.62-8.59-8.08Z"/>
      <path class="st1" d="M646.8,796.2c0-2.74-3.34-4.96-7.46-4.96"/>
      <path class="st1" d="M631.87,796.2c0-2.74,3.34-4.96,7.46-4.96"/>
      <path class="st1" d="M631.87,796.2c0,.54-.43.98-.96.98"/>
      <path class="st1" d="M646.8,796.2c0,.54.46.98,1.04.98"/>
    </g>
    <rect class="st9" x="628.16" y="798.56" width="22.35" height="25.33" transform="translate(1450.56 171.89) rotate(90)"/>
  </g>
  <g>
    <path class="st5" d="M639.55,718.94c-4.84,3.98-9.68,7.97-14.51,11.95-.25.12-.58.02-.78-.22-5.52-5.14-10.29-11.08-14.1-17.57-.07-.11-.06-.24.02-.31l1.35-1.12,13.02-10.8,15,18.08"/>
    <path class="st5" d="M640.48,717.92c-.4.43-.85.8-1.34,1.13-.1.06-.23.03-.32-.08-4.93-5.67-9.76-11.43-14.49-17.27-.1-.16-.09-.36.04-.47.46-.45.95-.85,1.5-1.2"/>
    <path class="st5" d="M637.21,719.65c.29.35,1.36-.06,2.39-.91.08-.07.16-.14.24-.21l.64-.6c.08-.09.07-.23-.02-.33l-14.6-17.6-1.5,1.24c-.48.41-.96.83-1.44,1.24-.16.23-.13.56.07.81,3.81,6.19,8.63,11.74,14.21,16.36Z"/>
    <path class="st5" d="M638.23,718.98c-.27.09-.52.19-.78.31-.32.09-.63.19-.94.31-.42.17-.84.33-1.26.49-.58.22-1.13.49-1.65.81-.32.2-.64.4-.94.62-.33.23-.65.47-.97.7-.77.57-1.49,1.17-2.19,1.82-.7.65-1.35,1.36-1.94,2.12-.44.58-.83,1.19-1.15,1.85-.21.42-.28.83-.23,1.34,0,.04.02.08.05.11l.26.32c.1.06.19.08.29.05,4.66-3.86,9.31-7.72,13.97-11.59.08-.07.09-.2,0-.3l-.08-.1h0c-.08-.09-.21-.12-.3-.06-.22.13-.43.27-.65.4-.27.2-.56.37-.86.52l-.64.26Z"/>
    <path class="st5" d="M624.18,702.04c-.13.25-.28.48-.45.7-.15.3-.31.59-.48.87-.24.38-.48.76-.71,1.14-.33.53-.69,1.02-1.11,1.47-.25.28-.52.55-.79.81-.29.28-.58.55-.87.82-.7.65-1.43,1.25-2.19,1.82-.77.57-1.58,1.07-2.45,1.51-.65.33-1.32.59-2.03.79-.45.13-.87.12-1.36-.02-.04-.01-.07-.03-.1-.07l-.26-.32c-.04-.11-.04-.2,0-.3,4.66-3.86,9.31-7.72,13.97-11.59.08-.07.21-.05.29.05l.08.1h0c.08.1.08.23,0,.31-.17.19-.34.37-.51.56-.24.23-.46.48-.67.75l-.38.58Z"/>
  </g>
  <circle class="st6" cx="640.48" cy="732.81" r="8.16"/>
  <g>
    <polyline class="st10" points="652.87 717.91 651.56 717.91 651.56 726.32 652.87 726.32"/>
    <polyline class="st10" points="651.56 727.27 651.56 716.96 650.17 716.96 650.17 727.27 651.56 727.27"/>
  </g>
  <polygon class="st4" points="667.72 714.88 667.72 693.34 642.61 693.34 642.61 714.81 652.58 714.83 652.58 1004.1 651.34 1004.1 651.34 1009.27 655.13 1009.27 658.91 1009.27 658.91 1004.1 657.75 1004.1 657.75 714.85 667.72 714.88"/>
  <polygon class="st4" points="582.28 1004.1 582.28 930.16 607.9 930.16 607.9 922.59 603.75 922.59 603.75 926.01 578.13 926.01 578.13 943.91 556.07 943.91 556.07 943.88 554.46 943.88 554.62 714.73 564.52 714.73 564.52 693.34 532.72 693.34 532.64 728.41 532.57 790.35 532.57 817.86 534.97 817.86 534.83 879.72 532.43 879.72 532.43 907.23 534.83 907.23 534.75 969.09 532.35 969.09 532.28 996.6 534.68 996.6 534.68 1015.74 554.4 1015.82 554.45 948.06 554.55 948.06 556.07 948.06 578.13 948.06 578.13 1004.1 575.58 1004.1 575.58 1009.27 620.05 1009.27 620.05 1004.1 582.28 1004.1"/>
</svg>