<?xml version="1.0" encoding="UTF-8"?>
<svg id="Lag_1" xmlns="http://www.w3.org/2000/svg" version="1.1" viewBox="0 0 1200 1697.14">
  <!-- Generator: Adobe Illustrator 29.6.0, SVG Export Plug-In . SVG Version: 2.1.1 Build 207)  -->
  <defs>
    <style>
      .st0 {
        stroke-dasharray: .06 .43;
      }

      .st0, .st1, .st2, .st3, .st4, .st5, .st6, .st7, .st8, .st9 {
        stroke-width: .18px;
      }

      .st0, .st1, .st2, .st4, .st5, .st7, .st8, .st9 {
        stroke-linejoin: round;
      }

      .st0, .st1, .st2, .st5, .st7, .st8 {
        stroke-linecap: round;
      }

      .st0, .st2, .st4, .st5, .st6, .st8, .st9 {
        stroke: #000;
      }

      .st0, .st2, .st4, .st5, .st7 {
        fill: none;
      }

      .st10 {
        fill: #000016;
      }

      .st1, .st3 {
        stroke: #060305;
      }

      .st1, .st3, .st6, .st8, .st9 {
        fill: #fff;
      }

      .st11 {
        fill: #e8e3e0;
      }

      .st3, .st6 {
        stroke-miterlimit: 10;
      }

      .st5 {
        stroke-dasharray: .06 .43;
      }

      .st7 {
        stroke: #767676;
      }
    </style>
  </defs>
  <polygon class="st11" points="575.81 693.07 575.81 722.37 547.47 722.37 547.47 992.85 651.15 992.85 651.15 693.07 575.81 693.07"/>
  <g>
    <path class="st2" d="M585.74,995.14s0,.02,0,.03"/>
    <path class="st5" d="M585.71,995.59c-.33,2.69-3.08,10.31-3.8,10.31l-19.36-11.01-.22-.13"/>
    <line class="st2" x1="562.14" y1="994.64" x2="562.11" y2="994.62"/>
  </g>
  <polyline class="st8" points="643.22 789.61 661.52 789.68 661.52 808.2 643.22 808.12 643.22 789.61"/>
  <line class="st7" x1="643.22" y1="791.53" x2="645.15" y2="789.61"/>
  <line class="st7" x1="643.22" y1="796.27" x2="649.89" y2="789.61"/>
  <line class="st7" x1="643.22" y1="801.01" x2="654.55" y2="789.61"/>
  <line class="st7" x1="643.22" y1="805.68" x2="659.29" y2="789.61"/>
  <line class="st7" x1="645.44" y1="808.12" x2="661.52" y2="792.05"/>
  <line class="st7" x1="650.18" y1="808.2" x2="661.52" y2="796.79"/>
  <line class="st7" x1="654.85" y1="808.2" x2="661.52" y2="801.53"/>
  <line class="st7" x1="659.59" y1="808.2" x2="661.52" y2="806.2"/>
  <line class="st7" x1="644.93" y1="808.12" x2="643.22" y2="806.42"/>
  <line class="st7" x1="649.67" y1="808.2" x2="643.22" y2="801.68"/>
  <line class="st7" x1="654.41" y1="808.2" x2="643.22" y2="797.01"/>
  <line class="st7" x1="659.07" y1="808.2" x2="643.22" y2="792.27"/>
  <line class="st7" x1="661.52" y1="805.9" x2="645.22" y2="789.61"/>
  <line class="st7" x1="661.52" y1="801.24" x2="649.96" y2="789.61"/>
  <line class="st7" x1="661.52" y1="796.5" x2="654.7" y2="789.61"/>
  <line class="st7" x1="661.52" y1="791.76" x2="659.44" y2="789.61"/>
  <polygon class="st10" points="652.48 691.25 656.33 691.25 656.33 696.51 655.07 696.51 655.15 789.61 649.81 789.61 649.81 696.51 648.63 696.51 648.63 691.25 652.48 691.25"/>
  <rect class="st9" x="550.19" y="797.2" width="17.48" height="21.03" transform="translate(1117.85 1615.43) rotate(-180)"/>
  <rect class="st9" x="568.55" y="797.2" width="17.55" height="21.03" transform="translate(1154.66 1615.43) rotate(-180)"/>
  <rect class="st9" x="586.92" y="797.2" width="17.57" height="21.03" transform="translate(1191.41 1615.43) rotate(-180)"/>
  <polygon class="st9" points="550.13 736.97 574.23 736.97 574.3 726.19 550.13 726.16 550.13 736.97"/>
  <line class="st2" x1="550.19" y1="797.39" x2="551.67" y2="797.39"/>
  <line class="st2" x1="553.59" y1="797.39" x2="554.85" y2="797.39"/>
  <line class="st2" x1="556.7" y1="797.39" x2="557.96" y2="797.39"/>
  <line class="st2" x1="559.89" y1="797.39" x2="561.15" y2="797.39"/>
  <line class="st2" x1="563" y1="797.39" x2="564.26" y2="797.39"/>
  <line class="st2" x1="550.19" y1="814.79" x2="550.19" y2="813.53"/>
  <line class="st2" x1="550.19" y1="811.61" x2="550.19" y2="810.35"/>
  <line class="st2" x1="550.19" y1="808.5" x2="550.19" y2="807.24"/>
  <line class="st2" x1="550.19" y1="805.31" x2="550.19" y2="804.05"/>
  <line class="st2" x1="550.19" y1="802.2" x2="550.19" y2="800.94"/>
  <line class="st2" x1="550.19" y1="799.02" x2="550.19" y2="797.39"/>
  <line class="st2" x1="586.92" y1="797.39" x2="588.4" y2="797.39"/>
  <line class="st2" x1="590.33" y1="797.39" x2="591.59" y2="797.39"/>
  <line class="st2" x1="593.44" y1="797.39" x2="594.7" y2="797.39"/>
  <line class="st2" x1="596.63" y1="797.39" x2="597.88" y2="797.39"/>
  <line class="st2" x1="599.81" y1="797.39" x2="601.07" y2="797.39"/>
  <line class="st2" x1="568.55" y1="797.39" x2="570.04" y2="797.39"/>
  <line class="st2" x1="571.96" y1="797.39" x2="573.22" y2="797.39"/>
  <line class="st2" x1="575.07" y1="797.39" x2="576.33" y2="797.39"/>
  <line class="st2" x1="578.26" y1="797.39" x2="579.52" y2="797.39"/>
  <line class="st2" x1="581.37" y1="797.39" x2="582.63" y2="797.39"/>
  <line class="st2" x1="602.33" y1="749.76" x2="630.7" y2="749.76"/>
  <path class="st2" d="M630.7,749.73c0,15.65-12.68,28.33-28.33,28.33"/>
  <line class="st2" x1="602.33" y1="778.13" x2="602.33" y2="749.76"/>
  <path class="st2" d="M618.62,693.1h28.29s.04,28.29.04,28.29c-15.65,0-28.33-12.68-28.33-28.33"/>
  <polyline class="st8" points="599.37 739.62 578.33 739.62 578.33 697.62 599.37 697.62 599.37 739.62"/>
  <polyline class="st2" points="578.33 727.39 599.37 727.39 599.37 739.62 578.33 739.62 578.33 727.39"/>
  <line class="st2" x1="580.78" y1="733.32" x2="586.4" y2="733.32"/>
  <line class="st2" x1="591.29" y1="733.32" x2="596.92" y2="733.32"/>
  <line class="st2" x1="594.11" y1="730.51" x2="594.11" y2="736.13"/>
  <line class="st2" x1="583.59" y1="730.51" x2="583.59" y2="736.13"/>
  <polyline class="st2" points="595.88 701.1 581.89 701.1 581.89 715.1 595.88 715.1 595.88 701.1"/>
  <polyline class="st2" points="578.33 718.65 578.33 697.62 599.37 697.62 599.37 718.65 578.33 718.65"/>
  <line class="st2" x1="579.96" y1="708.14" x2="585.52" y2="708.14"/>
  <polyline class="st8" points="638.03 994.62 638.03 989.36 639.81 989.36 639.81 994.62 638.03 994.62"/>
  <polyline class="st8" points="587.44 994.62 638.03 994.62 638.03 992.85 587.44 992.85 587.44 994.62"/>
  <polyline class="st8" points="560.33 994.62 560.33 989.36 562.11 989.36 562.11 994.62 560.33 994.62"/>
  <polyline class="st8" points="585.74 994.62 585.74 989.36 587.44 989.36 587.44 994.62 585.74 994.62"/>
  <line class="st2" x1="639.81" y1="995.66" x2="560.33" y2="995.66"/>
  <path class="st9" d="M566.32,784.96c0,.96-.78,1.74-1.74,1.74-.96,0-1.74-.78-1.74-1.74,0-.96.78-1.74,1.74-1.74s1.74.78,1.74,1.74"/>
  <path class="st6" d="M568.42,736.97v10.17c0,3.92-2.81,7.08-6.29,7.08-3.48,0-6.29-3.17-6.29-7.08v-10.17h12.58Z"/>
  <path class="st9" d="M580.51,792.94v-9.22c0-.2.13-.37.3-.37h16.81c.2,0,.37.17.37.37v9.22"/>
  <path class="st4" d="M589.91,791.24c0-.35-.28-.63-.63-.63s-.63.28-.63.63c0,.35.28.63.63.63s.63-.28.63-.63"/>
  <path class="st4" d="M590.06,786.79c0-.43-.35-.78-.78-.78s-.78.35-.78.78c0,.43.35.78.78.78s.78-.35.78-.78"/>
  <path class="st4" d="M590.43,786.79c0-.63-.51-1.15-1.15-1.15s-1.15.51-1.15,1.15c0,.63.51,1.15,1.15,1.15s1.15-.51,1.15-1.15"/>
  <path class="st4" d="M581.24,783.72h16c.2,0,.37.17.37.37v5.41c0,.2-.17.37-.37.37h-16c-.2,0-.37-.17-.37-.37v-5.41c0-.2.17-.37.37-.37Z"/>
  <g>
    <polyline class="st2" points="578.62 764.73 578.62 764.7 578.59 764.7"/>
    <line class="st0" x1="578.16" y1="764.7" x2="550.86" y2="764.7"/>
    <polyline class="st2" points="550.65 764.7 550.62 764.7 550.62 764.73"/>
    <line class="st0" x1="550.62" y1="765.16" x2="550.62" y2="792.46"/>
    <polyline class="st2" points="550.62 792.67 550.62 792.7 550.65 792.7"/>
    <line class="st0" x1="551.07" y1="792.7" x2="578.38" y2="792.7"/>
    <polyline class="st2" points="578.59 792.7 578.62 792.7 578.62 792.67"/>
    <line class="st0" x1="578.62" y1="792.25" x2="578.62" y2="764.95"/>
  </g>
  <line class="st4" x1="564.62" y1="792.7" x2="564.62" y2="784.92"/>
  <line class="st4" x1="574.25" y1="721.97" x2="545.07" y2="696.42"/>
  <line class="st4" x1="544.93" y1="722.14" x2="574.25" y2="696.42"/>
  <polyline class="st8" points="562.11 994.62 585.74 994.62 585.74 991.96 562.11 991.96 562.11 994.62"/>
  <polygon class="st10" points="662.7 966.63 661.96 965.96 655.07 965.93 655.07 808.2 649.81 808.2 649.81 965.91 642.78 965.89 641.89 966.77 641.74 972.77 639.67 972.77 639.67 995.66 665.22 995.66 665.22 972.77 662.7 972.77 662.7 966.63"/>
  <g>
    <rect class="st1" x="532.63" y="905.13" width="69.98" height="31.49" transform="translate(1488.5 353.25) rotate(90)"/>
    <rect class="st1" x="558.88" y="930.76" width="17.5" height="17.5" rx="1.42" ry="1.42"/>
    <polygon class="st1" points="583.77 946.71 583.77 885.7 551.88 885.7 551.88 930.93 583.77 946.71"/>
  </g>
  <g>
    <path class="st1" d="M637,963.85c-5.71-2.84-11.42-5.69-17.13-8.53-.28-.06-.58.11-.72.4-4.3,6.36-7.67,13.34-9.96,20.65-.04.12,0,.25.09.3.53.27,1.06.53,1.6.8l15.39,7.73,10.74-21.36"/>
    <path class="st1" d="M638.15,964.65c-.5-.33-1.02-.6-1.59-.81-.11-.04-.24.03-.3.15-3.59,6.75-7.07,13.56-10.42,20.44-.07.18,0,.37.14.45.56.34,1.14.62,1.76.85"/>
    <path class="st1" d="M634.52,963.69c.21-.42,1.36-.26,2.58.36.1.05.19.1.29.16l.77.45c.09.07.12.21.06.33l-10.45,20.79-1.77-.89c-.57-.3-1.14-.6-1.72-.9-.21-.19-.26-.53-.11-.82,2.36-7.01,5.87-13.62,10.35-19.47Z"/>
    <path class="st1" d="M635.69,964.11c-.28-.02-.56-.07-.84-.13-.34-.01-.67-.05-1-.1-.45-.07-.9-.14-1.36-.2-.63-.09-1.23-.23-1.83-.43-.36-.12-.72-.26-1.08-.4-.38-.16-.75-.31-1.12-.48-.89-.39-1.75-.82-2.59-1.3-.85-.49-1.65-1.04-2.41-1.66-.57-.47-1.09-.99-1.57-1.57-.3-.37-.47-.76-.54-1.27,0-.04,0-.08.02-.12l.19-.37c.09-.08.17-.12.28-.12,5.5,2.77,11,5.53,16.5,8.3.1.05.13.18.07.3l-.06.11h0c-.06.11-.18.17-.29.13-.24-.08-.49-.17-.73-.25-.31-.13-.64-.24-.97-.32l-.69-.12Z"/>
    <path class="st1" d="M625.63,984.13c-.19-.21-.39-.41-.6-.6-.21-.26-.44-.51-.68-.75-.33-.32-.65-.65-.97-.97-.44-.45-.92-.85-1.43-1.21-.32-.22-.64-.43-.97-.62-.35-.21-.7-.41-1.05-.62-.84-.48-1.7-.92-2.59-1.3-.9-.39-1.82-.7-2.77-.94-.72-.18-1.44-.29-2.2-.32-.47-.02-.89.08-1.34.33-.04.02-.06.05-.08.09l-.19.37c-.01.12,0,.21.07.29,5.5,2.77,11,5.53,16.5,8.3.1.05.22,0,.28-.12l.06-.11h0c.05-.12.02-.25-.07-.31-.21-.15-.42-.29-.64-.44-.29-.17-.57-.37-.83-.59l-.51-.49Z"/>
  </g>
  <g>
    <g>
      <path class="st8" d="M643.82,886.68c0,4.54-3.92,8.22-8.75,8.22-3.56,0-7.08-2.33-8.29-5.6-.17-.45-.5-1.39-.45-2.62.15-3.86,4-8.22,8.75-8.22s8.75,3.68,8.75,8.22Z"/>
      <path class="st2" d="M627.48,888.52c0,2.79,3.4,5.05,7.59,5.05"/>
      <path class="st2" d="M642.66,888.52c0,2.79-3.4,5.05-7.59,5.05"/>
      <path class="st2" d="M642.66,888.52c0-.55.44-1,.98-1"/>
      <path class="st2" d="M627.48,888.52c0-.55-.47-1-1.06-1"/>
    </g>
    <g>
      <path class="st8" d="M643.82,858.45c0-4.54-3.92-8.22-8.75-8.22-3.56,0-7.08,2.33-8.29,5.6-.17.45-.5,1.39-.45,2.62.15,3.86,4,8.22,8.75,8.22s8.75-3.68,8.75-8.22Z"/>
      <path class="st2" d="M627.48,856.61c0-2.79,3.4-5.05,7.59-5.05"/>
      <path class="st2" d="M642.66,856.61c0-2.79-3.4-5.05-7.59-5.05"/>
      <path class="st2" d="M642.66,856.61c0,.55.44,1,.98,1"/>
      <path class="st2" d="M627.48,856.61c0,.55-.47,1-1.06,1"/>
    </g>
    <rect class="st8" x="623.7" y="859.01" width="22.74" height="25.78" transform="translate(1506.97 236.83) rotate(90)"/>
  </g>
  <circle class="st3" cx="638.11" cy="951.06" r="6.97"/>
  <g>
    <polyline class="st9" points="550.07 960.36 551.4 960.36 551.4 968.94 550.07 968.94"/>
    <polyline class="st9" points="551.4 969.91 551.4 959.39 552.81 959.39 552.81 969.91 551.4 969.91"/>
  </g>
  <polygon class="st10" points="544.93 972.26 544.93 722.14 550.19 722.14 574.18 722.14 574.18 696.58 558.04 696.58 558.04 691.32 616.85 691.32 616.85 696.58 578.33 696.58 578.33 740.28 604.4 740.28 604.4 747.98 600.25 747.98 600.25 744.5 574.18 744.5 574.18 726.36 550.19 726.36 550.19 793.16 600.25 793.16 600.25 779.83 604.4 779.83 604.4 797.39 550.19 797.39 550.19 972.26 560.33 972.26 560.33 995.66 534.78 995.66 534.78 972.26 544.93 972.26"/>
</svg>