<?xml version="1.0" encoding="UTF-8"?>
<svg id="Lag_1" xmlns="http://www.w3.org/2000/svg" version="1.1" viewBox="0 0 1200 1697.14">
  <!-- Generator: Adobe Illustrator 29.6.0, SVG Export Plug-In . SVG Version: 2.1.1 Build 207)  -->
  <defs>
    <style>
      .st0 {
        stroke-dasharray: .06 .43;
      }

      .st0, .st1, .st2, .st3, .st4, .st5, .st6, .st7, .st8, .st9 {
        stroke-width: .18px;
      }

      .st0, .st1, .st2, .st4, .st5, .st7, .st8, .st9 {
        stroke-linejoin: round;
      }

      .st0, .st1, .st2, .st5, .st7, .st8 {
        stroke-linecap: round;
      }

      .st0, .st2, .st4, .st5, .st6, .st8, .st9 {
        stroke: #000;
      }

      .st0, .st2, .st4, .st5, .st7 {
        fill: none;
      }

      .st10 {
        fill: #000016;
      }

      .st1, .st3 {
        stroke: #060305;
      }

      .st1, .st3, .st6, .st8, .st9 {
        fill: #fff;
      }

      .st11 {
        fill: #e8e3e0;
      }

      .st3, .st6 {
        stroke-miterlimit: 10;
      }

      .st5 {
        stroke-dasharray: .06 .43;
      }

      .st7 {
        stroke: #767676;
      }
    </style>
  </defs>
  <polygon class="st11" points="624.26 693.07 624.26 722.37 652.6 722.37 652.6 992.85 548.92 992.85 548.92 693.07 624.26 693.07"/>
  <g>
    <path class="st2" d="M585.67,995.14s0,.02,0,.03"/>
    <path class="st5" d="M585.64,995.59c-.33,2.69-3.08,10.31-3.8,10.31l-19.36-11.01-.22-.13"/>
    <line class="st2" x1="562.07" y1="994.64" x2="562.04" y2="994.62"/>
  </g>
  <polyline class="st8" points="556.85 789.61 538.55 789.68 538.55 808.2 556.85 808.12 556.85 789.61"/>
  <line class="st7" x1="556.85" y1="791.53" x2="554.92" y2="789.61"/>
  <line class="st7" x1="556.85" y1="796.27" x2="550.18" y2="789.61"/>
  <line class="st7" x1="556.85" y1="801.01" x2="545.52" y2="789.61"/>
  <line class="st7" x1="556.85" y1="805.68" x2="540.78" y2="789.61"/>
  <line class="st7" x1="554.63" y1="808.12" x2="538.55" y2="792.05"/>
  <line class="st7" x1="549.89" y1="808.2" x2="538.55" y2="796.79"/>
  <line class="st7" x1="545.22" y1="808.2" x2="538.55" y2="801.53"/>
  <line class="st7" x1="540.48" y1="808.2" x2="538.55" y2="806.2"/>
  <line class="st7" x1="555.14" y1="808.12" x2="556.85" y2="806.42"/>
  <line class="st7" x1="550.4" y1="808.2" x2="556.85" y2="801.68"/>
  <line class="st7" x1="545.66" y1="808.2" x2="556.85" y2="797.01"/>
  <line class="st7" x1="541" y1="808.2" x2="556.85" y2="792.27"/>
  <line class="st7" x1="538.55" y1="805.9" x2="554.85" y2="789.61"/>
  <line class="st7" x1="538.55" y1="801.24" x2="550.11" y2="789.61"/>
  <line class="st7" x1="538.55" y1="796.5" x2="545.37" y2="789.61"/>
  <line class="st7" x1="538.55" y1="791.76" x2="540.63" y2="789.61"/>
  <polygon class="st10" points="547.59 691.25 543.74 691.25 543.74 696.51 545 696.51 544.92 789.61 550.26 789.61 550.26 696.51 551.44 696.51 551.44 691.25 547.59 691.25"/>
  <rect class="st9" x="632.4" y="797.2" width="17.48" height="21.03"/>
  <rect class="st9" x="613.96" y="797.2" width="17.55" height="21.03"/>
  <rect class="st9" x="595.58" y="797.2" width="17.57" height="21.03"/>
  <polygon class="st9" points="649.94 736.97 625.84 736.97 625.77 726.19 649.94 726.16 649.94 736.97"/>
  <line class="st2" x1="649.88" y1="797.39" x2="648.4" y2="797.39"/>
  <line class="st2" x1="646.48" y1="797.39" x2="645.22" y2="797.39"/>
  <line class="st2" x1="643.37" y1="797.39" x2="642.11" y2="797.39"/>
  <line class="st2" x1="640.18" y1="797.39" x2="638.92" y2="797.39"/>
  <line class="st2" x1="637.07" y1="797.39" x2="635.81" y2="797.39"/>
  <line class="st2" x1="649.88" y1="814.79" x2="649.88" y2="813.53"/>
  <line class="st2" x1="649.88" y1="811.61" x2="649.88" y2="810.35"/>
  <line class="st2" x1="649.88" y1="808.5" x2="649.88" y2="807.24"/>
  <line class="st2" x1="649.88" y1="805.31" x2="649.88" y2="804.05"/>
  <line class="st2" x1="649.88" y1="802.2" x2="649.88" y2="800.94"/>
  <line class="st2" x1="649.88" y1="799.02" x2="649.88" y2="797.39"/>
  <line class="st2" x1="613.15" y1="797.39" x2="611.67" y2="797.39"/>
  <line class="st2" x1="609.74" y1="797.39" x2="608.48" y2="797.39"/>
  <line class="st2" x1="606.63" y1="797.39" x2="605.37" y2="797.39"/>
  <line class="st2" x1="603.44" y1="797.39" x2="602.18" y2="797.39"/>
  <line class="st2" x1="600.26" y1="797.39" x2="599" y2="797.39"/>
  <line class="st2" x1="631.51" y1="797.39" x2="630.03" y2="797.39"/>
  <line class="st2" x1="628.11" y1="797.39" x2="626.85" y2="797.39"/>
  <line class="st2" x1="625" y1="797.39" x2="623.74" y2="797.39"/>
  <line class="st2" x1="621.81" y1="797.39" x2="620.55" y2="797.39"/>
  <line class="st2" x1="618.7" y1="797.39" x2="617.44" y2="797.39"/>
  <line class="st2" x1="597.74" y1="749.76" x2="569.37" y2="749.76"/>
  <path class="st2" d="M569.37,749.73c0,15.65,12.68,28.33,28.33,28.33"/>
  <line class="st2" x1="597.74" y1="778.13" x2="597.74" y2="749.76"/>
  <path class="st2" d="M581.45,693.1h-28.29l-.04,28.29c15.65,0,28.33-12.68,28.33-28.33"/>
  <polyline class="st8" points="600.7 739.62 621.74 739.62 621.74 697.62 600.7 697.62 600.7 739.62"/>
  <polyline class="st2" points="621.74 727.39 600.7 727.39 600.7 739.62 621.74 739.62 621.74 727.39"/>
  <line class="st2" x1="619.29" y1="733.32" x2="613.67" y2="733.32"/>
  <line class="st2" x1="608.78" y1="733.32" x2="603.15" y2="733.32"/>
  <line class="st2" x1="605.96" y1="730.51" x2="605.96" y2="736.13"/>
  <line class="st2" x1="616.48" y1="730.51" x2="616.48" y2="736.13"/>
  <polyline class="st2" points="604.18 701.1 618.18 701.1 618.18 715.1 604.18 715.1 604.18 701.1"/>
  <polyline class="st2" points="621.74 718.65 621.74 697.62 600.7 697.62 600.7 718.65 621.74 718.65"/>
  <line class="st2" x1="620.11" y1="708.14" x2="614.55" y2="708.14"/>
  <polyline class="st8" points="637.96 994.62 637.96 989.36 639.74 989.36 639.74 994.62 637.96 994.62"/>
  <polyline class="st8" points="587.37 994.62 637.96 994.62 637.96 992.85 587.37 992.85 587.37 994.62"/>
  <polyline class="st8" points="560.26 994.62 560.26 989.36 562.04 989.36 562.04 994.62 560.26 994.62"/>
  <polyline class="st8" points="585.67 994.62 585.67 989.36 587.37 989.36 587.37 994.62 585.67 994.62"/>
  <line class="st2" x1="639.74" y1="995.66" x2="560.26" y2="995.66"/>
  <path class="st9" d="M633.75,784.96c0,.96.78,1.74,1.74,1.74s1.74-.78,1.74-1.74c0-.96-.78-1.74-1.74-1.74-.96,0-1.74.78-1.74,1.74"/>
  <path class="st6" d="M631.65,736.97v10.17c0,3.92,2.81,7.08,6.29,7.08s6.29-3.17,6.29-7.08v-10.17s-12.58,0-12.58,0Z"/>
  <path class="st9" d="M619.56,792.94v-9.22c0-.2-.13-.37-.3-.37h-16.81c-.2,0-.37.17-.37.37v9.22"/>
  <path class="st4" d="M610.16,791.24c0-.35.28-.63.63-.63s.63.28.63.63c0,.35-.28.63-.63.63s-.63-.28-.63-.63"/>
  <path class="st4" d="M610.01,786.79c0-.43.35-.78.78-.78s.78.35.78.78-.35.78-.78.78-.78-.35-.78-.78"/>
  <path class="st4" d="M609.64,786.79c0-.63.51-1.15,1.15-1.15.63,0,1.15.51,1.15,1.15s-.51,1.15-1.15,1.15c-.63,0-1.15-.51-1.15-1.15"/>
  <path class="st4" d="M602.82,783.72h16c.2,0,.37.17.37.37v5.41c0,.2-.17.37-.37.37h-16c-.2,0-.37-.17-.37-.37v-5.41c0-.2.17-.37.37-.37Z"/>
  <g>
    <polyline class="st2" points="621.45 764.73 621.45 764.7 621.48 764.7"/>
    <line class="st0" x1="621.91" y1="764.7" x2="649.21" y2="764.7"/>
    <polyline class="st2" points="649.42 764.7 649.45 764.7 649.45 764.73"/>
    <line class="st0" x1="649.45" y1="765.16" x2="649.45" y2="792.46"/>
    <polyline class="st2" points="649.45 792.67 649.45 792.7 649.42 792.7"/>
    <line class="st0" x1="648.99" y1="792.7" x2="621.69" y2="792.7"/>
    <polyline class="st2" points="621.48 792.7 621.45 792.7 621.45 792.67"/>
    <line class="st0" x1="621.45" y1="792.25" x2="621.45" y2="764.95"/>
  </g>
  <line class="st4" x1="635.45" y1="792.7" x2="635.45" y2="784.92"/>
  <line class="st4" x1="625.82" y1="721.97" x2="655" y2="696.42"/>
  <line class="st4" x1="655.14" y1="722.14" x2="625.82" y2="696.42"/>
  <polyline class="st8" points="562.04 994.62 585.67 994.62 585.67 991.96 562.04 991.96 562.04 994.62"/>
  <g>
    <path class="st1" d="M564.81,971.69c5.72-2.82,11.44-5.65,17.15-8.47.21-.19.26-.53.12-.82-2.46-7.27-5.98-14.18-10.41-20.43-.07-.11-.2-.15-.3-.11-.53.26-1.07.52-1.6.79l-15.47,7.57,10.51,21.48"/>
    <path class="st1" d="M563.48,972.12c.57-.2,1.1-.45,1.6-.77.1-.07.12-.21.06-.33-3.2-6.95-6.52-13.83-9.96-20.67-.11-.16-.29-.23-.45-.16-.61.24-1.19.53-1.74.89"/>
    <path class="st1" d="M566.45,969.81c.2.42-.62,1.24-1.85,1.84-.1.05-.2.09-.3.13l-.82.34c-.11.03-.24-.03-.3-.15l-10.23-20.91,1.78-.87c.59-.27,1.17-.55,1.76-.82.28-.05.58.11.72.41,4.15,6.12,7.29,12.92,9.24,20.03Z"/>
    <path class="st1" d="M565.4,970.48c.19-.21.39-.41.61-.59.22-.26.44-.51.68-.74.33-.32.66-.64.98-.96.45-.45.93-.84,1.45-1.19.32-.22.64-.42.97-.61.35-.2.7-.41,1.06-.61.85-.47,1.71-.9,2.6-1.27.9-.38,1.82-.68,2.78-.91.72-.17,1.45-.27,2.2-.3.47-.02.89.09,1.34.34.04.02.06.05.08.09l.18.38c.01.12,0,.21-.08.29-5.53,2.71-11.06,5.41-16.59,8.12-.1.05-.22,0-.28-.12l-.06-.12h0c-.05-.12-.02-.25.07-.3.21-.14.43-.29.64-.43.3-.17.57-.36.84-.58l.51-.48Z"/>
    <path class="st1" d="M555.55,950.36c.28-.02.56-.06.84-.12.34-.01.67-.04,1-.09.45-.06.91-.13,1.36-.18.63-.08,1.23-.22,1.83-.41.37-.12.73-.25,1.08-.39.38-.15.75-.31,1.13-.47.89-.38,1.76-.8,2.6-1.27.85-.48,1.66-1.02,2.43-1.64.58-.46,1.1-.98,1.58-1.55.31-.36.48-.76.55-1.27,0-.04,0-.08-.02-.12l-.18-.38c-.09-.09-.17-.12-.28-.12-5.53,2.71-11.06,5.41-16.59,8.12-.1.05-.13.18-.08.29l.06.12h0c.06.11.18.17.28.13.24-.08.49-.16.73-.24.32-.13.64-.23.97-.3l.69-.11Z"/>
  </g>
  <circle class="st3" cx="559.76" cy="932.55" r="6.97"/>
  <g>
    <rect class="st1" x="597.49" y="888.55" width="69.98" height="31.49" transform="translate(1536.78 271.82) rotate(90)"/>
    <rect class="st1" x="623.73" y="914.18" width="17.5" height="17.5" rx="1.42" ry="1.42"/>
    <polygon class="st1" points="648.63 930.14 648.63 869.12 616.73 869.12 616.73 914.35 648.63 930.14"/>
  </g>
  <g>
    <g>
      <path class="st8" d="M573.02,887.14c0,4.54-3.92,8.22-8.75,8.22-3.56,0-7.08-2.33-8.29-5.6-.17-.45-.5-1.39-.45-2.62.15-3.86,4-8.22,8.75-8.22,4.83,0,8.75,3.68,8.75,8.22Z"/>
      <path class="st2" d="M556.68,888.98c0,2.79,3.4,5.05,7.59,5.05"/>
      <path class="st2" d="M571.87,888.98c0,2.79-3.4,5.05-7.59,5.05"/>
      <path class="st2" d="M571.87,888.98c0-.55.44-1,.98-1"/>
      <path class="st2" d="M556.68,888.98c0-.55-.47-1-1.06-1"/>
    </g>
    <g>
      <path class="st8" d="M573.02,858.91c0-4.54-3.92-8.22-8.75-8.22-3.56,0-7.08,2.33-8.29,5.6-.17.45-.5,1.39-.45,2.62.15,3.86,4,8.22,8.75,8.22s8.75-3.68,8.75-8.22Z"/>
      <path class="st2" d="M556.68,857.07c0-2.79,3.4-5.05,7.59-5.05"/>
      <path class="st2" d="M571.87,857.07c0-2.79-3.4-5.05-7.59-5.05"/>
      <path class="st2" d="M571.87,857.07c0,.55.44,1,.98,1"/>
      <path class="st2" d="M556.68,857.07c0,.55-.47,1-1.06,1"/>
    </g>
    <rect class="st8" x="552.9" y="859.47" width="22.74" height="25.78" transform="translate(1436.64 308.09) rotate(90)"/>
  </g>
  <polyline class="st9" points="649.95 960.52 648.61 960.52 648.61 944.8 649.95 944.8"/>
  <polyline class="st9" points="648.61 943.91 648.61 961.48 647.2 961.48 647.2 943.91 648.61 943.91"/>
  <polygon class="st10" points="557.75 972.77 557.75 966.63 557 965.96 550.26 965.93 550.26 808.2 545 808.2 545 965.91 537.82 965.89 536.93 966.77 536.78 972.77 534.71 972.77 534.71 995.66 560.26 995.66 560.26 972.77 557.75 972.77"/>
  <polygon class="st10" points="655.14 972.26 655.14 722.14 649.88 722.14 625.89 722.14 625.89 696.58 642.03 696.58 642.03 691.32 583.22 691.32 583.22 696.58 621.74 696.58 621.74 740.28 595.67 740.28 595.67 747.98 599.81 747.98 599.81 744.5 625.89 744.5 625.89 726.36 649.88 726.36 649.88 793.16 599.81 793.16 599.81 779.83 595.67 779.83 595.67 797.39 649.88 797.39 649.88 972.26 639.74 972.26 639.74 995.66 665.29 995.66 665.29 972.26 655.14 972.26"/>
</svg>