<?xml version="1.0" encoding="UTF-8"?>
<svg id="Lag_1" xmlns="http://www.w3.org/2000/svg" version="1.1" viewBox="0 0 1200 1697.14">
  <!-- Generator: Adobe Illustrator 29.6.0, SVG Export Plug-In . SVG Version: 2.1.1 Build 207)  -->
  <defs>
    <style>
      .st0 {
        fill: #000016;
      }

      .st1, .st2, .st3, .st4, .st5, .st6, .st7, .st8, .st9, .st10 {
        stroke-width: .18px;
      }

      .st1, .st2, .st4, .st5, .st7, .st8, .st9, .st10 {
        stroke-linejoin: round;
      }

      .st1, .st2, .st7, .st8, .st10 {
        stroke-linecap: round;
      }

      .st1, .st3 {
        stroke: #060305;
      }

      .st1, .st3, .st6, .st8, .st9 {
        fill: #fff;
      }

      .st11 {
        fill: #e8e3e0;
      }

      .st2, .st4, .st5, .st7, .st10 {
        fill: none;
      }

      .st2, .st4, .st6, .st7, .st8, .st9, .st10 {
        stroke: #000;
      }

      .st3, .st6 {
        stroke-miterlimit: 10;
      }

      .st5 {
        stroke: #767676;
      }

      .st7 {
        stroke-dasharray: .06 .43;
      }

      .st10 {
        stroke-dasharray: .06 .42;
      }
    </style>
  </defs>
  <polygon class="st11" points="574.85 742.56 548.17 742.56 548.17 973.22 653.27 973.22 653.27 713.54 574.85 713.54 574.85 742.56"/>
  <g>
    <polyline class="st2" points="579.23 785.35 579.23 785.33 579.2 785.33"/>
    <line class="st7" x1="578.77" y1="785.33" x2="551.45" y2="785.33"/>
    <polyline class="st2" points="551.24 785.33 551.21 785.33 551.21 785.35"/>
    <line class="st7" x1="551.21" y1="785.78" x2="551.21" y2="813.1"/>
    <polyline class="st2" points="551.21 813.31 551.21 813.34 551.24 813.34"/>
    <line class="st7" x1="551.67" y1="813.34" x2="578.99" y2="813.34"/>
    <polyline class="st2" points="579.2 813.34 579.23 813.34 579.23 813.31"/>
    <line class="st7" x1="579.23" y1="812.89" x2="579.23" y2="785.57"/>
  </g>
  <polyline class="st9" points="638.4 974.99 638.4 969.73 640.18 969.73 640.18 974.99 638.4 974.99"/>
  <polyline class="st4" points="588.02 974.99 638.4 974.99 638.4 973.22 588.02 973.29 588.02 974.99"/>
  <polyline class="st9" points="562.67 975.07 586.31 974.99 586.31 972.4 562.67 972.4 562.67 975.07"/>
  <polyline class="st9" points="560.97 975.07 560.89 969.81 562.67 969.81 562.67 975.07 560.97 975.07"/>
  <polyline class="st9" points="586.31 974.99 586.31 969.73 588.02 969.73 588.02 974.99 586.31 974.99"/>
  <path class="st9" d="M566.92,805.6c0,.96-.78,1.74-1.74,1.74s-1.74-.78-1.74-1.74c0-.96.78-1.74,1.74-1.74.96,0,1.74.78,1.74,1.74"/>
  <line class="st4" x1="603.02" y1="770.28" x2="631.41" y2="770.28"/>
  <path class="st4" d="M631.33,770.32c0,15.66-12.69,28.35-28.35,28.35"/>
  <line class="st4" x1="603.02" y1="798.59" x2="603.02" y2="770.28"/>
  <line class="st4" x1="647.71" y1="713.51" x2="647.71" y2="741.89"/>
  <path class="st4" d="M647.68,741.89c-15.66,0-28.35-12.69-28.35-28.35"/>
  <line class="st4" x1="619.33" y1="713.51" x2="647.71" y2="713.51"/>
  <polyline class="st9" points="600.05 760.13 579.08 760.13 579.08 718.1 600.05 718.1 600.05 760.13"/>
  <polyline class="st4" points="579.08 747.82 600.05 747.82 600.05 760.13 579.08 760.13 579.08 747.82"/>
  <line class="st4" x1="581.52" y1="753.75" x2="587.08" y2="753.75"/>
  <line class="st4" x1="592.05" y1="753.75" x2="597.61" y2="753.75"/>
  <line class="st4" x1="594.79" y1="751.01" x2="594.79" y2="756.57"/>
  <line class="st4" x1="584.34" y1="751.01" x2="584.34" y2="756.57"/>
  <polyline class="st4" points="596.57 721.58 582.56 721.58 582.56 735.59 596.57 735.59 596.57 721.58"/>
  <polyline class="st4" points="579.08 739.08 579.08 718.1 600.05 718.1 600.05 739.08 579.08 739.08"/>
  <line class="st4" x1="580.64" y1="728.55" x2="586.27" y2="728.55"/>
  <polyline class="st9" points="647.19 786.36 658.68 786.29 658.76 774.73 647.19 774.8 647.19 786.36"/>
  <line class="st5" x1="647.19" y1="782.07" x2="651.42" y2="786.36"/>
  <line class="st5" x1="647.19" y1="777.4" x2="656.16" y2="786.29"/>
  <line class="st5" x1="649.34" y1="774.8" x2="658.76" y2="784.21"/>
  <line class="st5" x1="654.01" y1="774.73" x2="658.76" y2="779.47"/>
  <line class="st5" x1="650.97" y1="774.8" x2="647.19" y2="778.58"/>
  <line class="st5" x1="655.72" y1="774.73" x2="647.19" y2="783.33"/>
  <line class="st5" x1="658.76" y1="776.43" x2="648.82" y2="786.36"/>
  <line class="st5" x1="658.76" y1="781.18" x2="653.57" y2="786.29"/>
  <path class="st6" d="M569.02,757.57v10.18c0,3.92-2.82,7.09-6.3,7.09-3.48,0-6.29-3.17-6.29-7.09v-10.18h12.59Z"/>
  <polygon class="st9" points="550.72 757.57 574.84 757.57 574.9 746.78 550.72 746.75 550.72 757.57"/>
  <rect class="st9" x="550.78" y="817.84" width="17.49" height="21.05" transform="translate(1119.04 1656.74) rotate(-180)"/>
  <rect class="st9" x="569.16" y="817.84" width="17.57" height="21.05" transform="translate(1155.88 1656.74) rotate(-180)"/>
  <rect class="st9" x="587.54" y="817.84" width="17.58" height="21.05" transform="translate(1192.66 1656.74) rotate(-180)"/>
  <path class="st9" d="M581.12,813.58v-9.23c0-.2.13-.37.3-.37h16.82c.2,0,.37.17.37.37v9.23"/>
  <path class="st4" d="M590.53,811.88c0-.35-.28-.63-.63-.63s-.63.28-.63.63c0,.35.28.63.63.63s.63-.28.63-.63"/>
  <path class="st4" d="M590.68,807.43c0-.43-.35-.78-.78-.78s-.78.35-.78.78.35.78.78.78.78-.35.78-.78"/>
  <path class="st4" d="M591.05,807.43c0-.63-.51-1.15-1.15-1.15s-1.15.51-1.15,1.15c0,.63.51,1.15,1.15,1.15s1.15-.51,1.15-1.15"/>
  <path class="st4" d="M581.86,804.35h16.01c.2,0,.37.17.37.37v5.41c0,.2-.17.37-.37.37h-16.01c-.2,0-.37-.17-.37-.37v-5.41c0-.2.17-.37.37-.37Z"/>
  <line class="st4" x1="565.22" y1="813.34" x2="565.22" y2="805.56"/>
  <g>
    <path class="st2" d="M586.61,975.6s0,.02,0,.03"/>
    <path class="st10" d="M586.59,976.04c-.28,3.07-3.05,12.14-3.77,12.14l-19.19-12.88-.23-.16"/>
    <line class="st2" x1="563.21" y1="975.01" x2="563.19" y2="974.99"/>
  </g>
  <polygon class="st0" points="653.27 711.8 657.13 711.8 657.13 716.99 655.94 716.99 655.94 774.73 650.68 774.8 650.68 716.99 649.42 716.99 649.42 711.8 653.27 711.8"/>
  <line class="st4" x1="574.85" y1="742.56" x2="545.65" y2="716.99"/>
  <line class="st4" x1="545.65" y1="742.56" x2="574.85" y2="716.99"/>
  <polygon class="st0" points="640.18 976.11 667.27 976.11 667.27 954.17 655.93 954.14 655.93 953.73 655.94 953.73 655.94 786.29 650.68 786.36 650.68 952.16 650.67 952.16 650.67 954.12 640.18 954.09 640.18 976.11"/>
  <line class="st4" x1="640.18" y1="976.11" x2="560.96" y2="976.37"/>
  <g>
    <rect class="st1" x="533.35" y="887.03" width="69.98" height="31.49" transform="translate(1471.12 334.43) rotate(90)"/>
    <rect class="st1" x="559.6" y="912.66" width="17.5" height="17.5" rx="1.42" ry="1.42"/>
    <polygon class="st1" points="584.49 928.61 584.49 867.6 552.6 867.6 552.6 912.83 584.49 928.61"/>
  </g>
  <g>
    <path class="st1" d="M637.72,945.75c-5.71-2.84-11.42-5.69-17.13-8.53-.28-.06-.58.11-.72.4-4.3,6.36-7.67,13.34-9.96,20.65-.04.12,0,.25.09.3.53.27,1.06.53,1.6.8l15.39,7.73,10.74-21.36"/>
    <path class="st1" d="M638.87,946.55c-.5-.33-1.02-.6-1.59-.81-.11-.04-.24.03-.3.15-3.59,6.75-7.07,13.56-10.42,20.44-.07.18,0,.37.14.45.56.34,1.14.62,1.76.85"/>
    <path class="st1" d="M635.23,945.59c.21-.42,1.36-.26,2.58.36.1.05.19.1.29.16l.77.45c.09.07.12.21.06.33l-10.45,20.79-1.77-.89c-.57-.3-1.14-.6-1.72-.9-.21-.19-.26-.53-.11-.82,2.36-7.01,5.87-13.62,10.35-19.47Z"/>
    <path class="st1" d="M636.41,946.02c-.28-.02-.56-.07-.84-.13-.34-.01-.67-.05-1-.1-.45-.07-.9-.14-1.36-.2-.63-.09-1.23-.23-1.83-.43-.36-.12-.72-.26-1.08-.4-.38-.16-.75-.31-1.12-.48-.89-.39-1.75-.82-2.59-1.3-.85-.49-1.65-1.04-2.41-1.66-.57-.47-1.09-.99-1.57-1.57-.3-.37-.47-.76-.54-1.27,0-.04,0-.08.02-.12l.19-.37c.09-.08.17-.12.28-.12,5.5,2.77,11,5.53,16.5,8.3.1.05.13.18.07.3l-.06.11h0c-.06.11-.18.17-.29.13-.24-.08-.49-.17-.73-.25-.31-.13-.64-.24-.97-.32l-.69-.12Z"/>
    <path class="st1" d="M626.35,966.03c-.19-.21-.39-.41-.6-.6-.21-.26-.44-.51-.68-.75-.33-.32-.65-.65-.97-.97-.44-.45-.92-.85-1.43-1.21-.32-.22-.64-.43-.97-.62-.35-.21-.7-.41-1.05-.62-.84-.48-1.7-.92-2.59-1.3-.9-.39-1.82-.7-2.77-.94-.72-.18-1.44-.29-2.2-.32-.47-.02-.89.08-1.34.33-.04.02-.06.05-.08.09l-.19.37c-.01.12,0,.21.07.29,5.5,2.77,11,5.53,16.5,8.3.1.05.22,0,.28-.12l.06-.11h0c.05-.12.02-.25-.07-.31-.21-.15-.42-.29-.64-.44-.29-.17-.57-.37-.83-.59l-.51-.49Z"/>
  </g>
  <g>
    <g>
      <path class="st8" d="M644.54,901.63c0,4.54-3.92,8.22-8.75,8.22-3.56,0-7.08-2.33-8.29-5.6-.17-.45-.5-1.39-.45-2.62.15-3.86,4-8.22,8.75-8.22s8.75,3.68,8.75,8.22Z"/>
      <path class="st2" d="M628.19,903.47c0,2.79,3.4,5.05,7.59,5.05"/>
      <path class="st2" d="M643.38,903.47c0,2.79-3.4,5.05-7.59,5.05"/>
      <path class="st2" d="M643.38,903.47c0-.55.44-1,.98-1"/>
      <path class="st2" d="M628.19,903.47c0-.55-.47-1-1.06-1"/>
    </g>
    <g>
      <path class="st8" d="M644.54,873.4c0-4.54-3.92-8.22-8.75-8.22-3.56,0-7.08,2.33-8.29,5.6-.17.45-.5,1.39-.45,2.62.15,3.86,4,8.22,8.75,8.22s8.75-3.68,8.75-8.22Z"/>
      <path class="st2" d="M628.19,871.56c0-2.79,3.4-5.05,7.59-5.05"/>
      <path class="st2" d="M643.38,871.56c0-2.79-3.4-5.05-7.59-5.05"/>
      <path class="st2" d="M643.38,871.56c0,.55.44,1,.98,1"/>
      <path class="st2" d="M628.19,871.56c0,.55-.47,1-1.06,1"/>
    </g>
    <rect class="st8" x="624.42" y="873.96" width="22.74" height="25.78" transform="translate(1522.64 251.06) rotate(90)"/>
  </g>
  <circle class="st3" cx="638.83" cy="932.96" r="6.97"/>
  <g>
    <polyline class="st9" points="550.79 942.26 552.12 942.26 552.12 950.84 550.79 950.84"/>
    <polyline class="st9" points="552.12 951.81 552.12 941.29 553.53 941.29 553.53 951.81 552.12 951.81"/>
  </g>
  <polygon class="st0" points="535.39 976.37 560.96 976.37 560.96 954.13 550.91 954.13 550.91 817.86 605.17 817.86 605.17 800.37 600.94 800.37 600.94 813.64 550.91 813.64 550.91 746.79 574.85 746.79 574.85 765.02 600.94 765.02 600.94 768.5 605.17 768.5 605.17 760.79 579.08 760.79 579.08 716.99 617.62 716.99 617.62 711.8 558.77 711.8 558.77 716.99 574.85 716.99 574.85 742.56 550.91 742.56 545.65 742.56 545.65 954.13 535.39 954.13 535.39 976.37"/>
</svg>