<?xml version="1.0" encoding="UTF-8"?>
<svg id="Lag_1" xmlns="http://www.w3.org/2000/svg" version="1.1" viewBox="0 0 1200 1697.14">
  <!-- Generator: Adobe Illustrator 29.6.0, SVG Export Plug-In . SVG Version: 2.1.1 Build 207)  -->
  <defs>
    <style>
      .st0 {
        stroke-dasharray: .06 .43;
      }

      .st0, .st1, .st2, .st3, .st4, .st5, .st6, .st7, .st8, .st9 {
        stroke-width: .18px;
      }

      .st0, .st1, .st2, .st4, .st5, .st7, .st8, .st9 {
        stroke-linejoin: round;
      }

      .st0, .st1, .st2, .st5, .st7, .st8 {
        stroke-linecap: round;
      }

      .st0, .st2, .st4, .st5, .st6, .st8, .st9 {
        stroke: #000;
      }

      .st0, .st2, .st4, .st5, .st7 {
        fill: none;
      }

      .st10 {
        fill: #000016;
      }

      .st1, .st3 {
        stroke: #060305;
      }

      .st1, .st3, .st6, .st8, .st9 {
        fill: #fff;
      }

      .st11 {
        fill: #e8e3e0;
      }

      .st3, .st6 {
        stroke-miterlimit: 10;
      }

      .st5 {
        stroke-dasharray: .06 .43;
      }

      .st7 {
        stroke: #767676;
      }
    </style>
  </defs>
  <polygon class="st11" points="575.74 693.07 575.74 722.37 547.4 722.37 547.4 992.85 651.08 992.85 651.08 693.07 575.74 693.07"/>
  <g>
    <path class="st2" d="M585.67,995.14s0,.02,0,.03"/>
    <path class="st5" d="M585.64,995.59c-.33,2.69-3.08,10.31-3.8,10.31l-19.36-11.01-.22-.13"/>
    <line class="st2" x1="562.07" y1="994.64" x2="562.04" y2="994.62"/>
  </g>
  <polyline class="st8" points="643.15 789.61 661.45 789.68 661.45 808.2 643.15 808.12 643.15 789.61"/>
  <line class="st7" x1="643.15" y1="791.53" x2="645.08" y2="789.61"/>
  <line class="st7" x1="643.15" y1="796.27" x2="649.82" y2="789.61"/>
  <line class="st7" x1="643.15" y1="801.01" x2="654.48" y2="789.61"/>
  <line class="st7" x1="643.15" y1="805.68" x2="659.22" y2="789.61"/>
  <line class="st7" x1="645.37" y1="808.12" x2="661.45" y2="792.05"/>
  <line class="st7" x1="650.11" y1="808.2" x2="661.45" y2="796.79"/>
  <line class="st7" x1="654.78" y1="808.2" x2="661.45" y2="801.53"/>
  <line class="st7" x1="659.52" y1="808.2" x2="661.45" y2="806.2"/>
  <line class="st7" x1="644.86" y1="808.12" x2="643.15" y2="806.42"/>
  <line class="st7" x1="649.6" y1="808.2" x2="643.15" y2="801.68"/>
  <line class="st7" x1="654.34" y1="808.2" x2="643.15" y2="797.01"/>
  <line class="st7" x1="659" y1="808.2" x2="643.15" y2="792.27"/>
  <line class="st7" x1="661.45" y1="805.9" x2="645.15" y2="789.61"/>
  <line class="st7" x1="661.45" y1="801.24" x2="649.89" y2="789.61"/>
  <line class="st7" x1="661.45" y1="796.5" x2="654.63" y2="789.61"/>
  <line class="st7" x1="661.45" y1="791.76" x2="659.37" y2="789.61"/>
  <polygon class="st10" points="652.41 691.25 656.26 691.25 656.26 696.51 655 696.51 655.08 789.61 649.74 789.61 649.74 696.51 648.56 696.51 648.56 691.25 652.41 691.25"/>
  <rect class="st9" x="550.12" y="797.2" width="17.48" height="21.03" transform="translate(1117.71 1615.43) rotate(-180)"/>
  <rect class="st9" x="568.49" y="797.2" width="17.55" height="21.03" transform="translate(1154.52 1615.43) rotate(-180)"/>
  <rect class="st9" x="586.85" y="797.2" width="17.57" height="21.03" transform="translate(1191.27 1615.43) rotate(-180)"/>
  <polygon class="st9" points="550.06 736.97 574.16 736.97 574.23 726.19 550.06 726.16 550.06 736.97"/>
  <line class="st2" x1="550.12" y1="797.39" x2="551.6" y2="797.39"/>
  <line class="st2" x1="553.52" y1="797.39" x2="554.78" y2="797.39"/>
  <line class="st2" x1="556.63" y1="797.39" x2="557.89" y2="797.39"/>
  <line class="st2" x1="559.82" y1="797.39" x2="561.08" y2="797.39"/>
  <line class="st2" x1="562.93" y1="797.39" x2="564.19" y2="797.39"/>
  <line class="st2" x1="550.12" y1="814.79" x2="550.12" y2="813.53"/>
  <line class="st2" x1="550.12" y1="811.61" x2="550.12" y2="810.35"/>
  <line class="st2" x1="550.12" y1="808.5" x2="550.12" y2="807.24"/>
  <line class="st2" x1="550.12" y1="805.31" x2="550.12" y2="804.05"/>
  <line class="st2" x1="550.12" y1="802.2" x2="550.12" y2="800.94"/>
  <line class="st2" x1="550.12" y1="799.02" x2="550.12" y2="797.39"/>
  <line class="st2" x1="586.85" y1="797.39" x2="588.33" y2="797.39"/>
  <line class="st2" x1="590.26" y1="797.39" x2="591.52" y2="797.39"/>
  <line class="st2" x1="593.37" y1="797.39" x2="594.63" y2="797.39"/>
  <line class="st2" x1="596.56" y1="797.39" x2="597.82" y2="797.39"/>
  <line class="st2" x1="599.74" y1="797.39" x2="601" y2="797.39"/>
  <line class="st2" x1="568.49" y1="797.39" x2="569.97" y2="797.39"/>
  <line class="st2" x1="571.89" y1="797.39" x2="573.15" y2="797.39"/>
  <line class="st2" x1="575" y1="797.39" x2="576.26" y2="797.39"/>
  <line class="st2" x1="578.19" y1="797.39" x2="579.45" y2="797.39"/>
  <line class="st2" x1="581.3" y1="797.39" x2="582.56" y2="797.39"/>
  <line class="st2" x1="602.26" y1="749.76" x2="630.63" y2="749.76"/>
  <path class="st2" d="M630.63,749.73c0,15.65-12.68,28.33-28.33,28.33"/>
  <line class="st2" x1="602.26" y1="778.13" x2="602.26" y2="749.76"/>
  <polyline class="st8" points="599.3 739.62 578.26 739.62 578.26 697.62 599.3 697.62 599.3 739.62"/>
  <polyline class="st2" points="578.26 727.39 599.3 727.39 599.3 739.62 578.26 739.62 578.26 727.39"/>
  <line class="st2" x1="580.71" y1="733.32" x2="586.33" y2="733.32"/>
  <line class="st2" x1="591.22" y1="733.32" x2="596.85" y2="733.32"/>
  <line class="st2" x1="594.04" y1="730.51" x2="594.04" y2="736.13"/>
  <line class="st2" x1="583.52" y1="730.51" x2="583.52" y2="736.13"/>
  <polyline class="st2" points="595.82 701.1 581.82 701.1 581.82 715.1 595.82 715.1 595.82 701.1"/>
  <polyline class="st2" points="578.26 718.65 578.26 697.62 599.3 697.62 599.3 718.65 578.26 718.65"/>
  <line class="st2" x1="579.89" y1="708.14" x2="585.45" y2="708.14"/>
  <polyline class="st8" points="637.96 994.62 637.96 989.36 639.74 989.36 639.74 994.62 637.96 994.62"/>
  <polyline class="st8" points="587.37 994.62 637.96 994.62 637.96 992.85 587.37 992.85 587.37 994.62"/>
  <polyline class="st8" points="560.26 994.62 560.26 989.36 562.04 989.36 562.04 994.62 560.26 994.62"/>
  <polyline class="st8" points="585.67 994.62 585.67 989.36 587.37 989.36 587.37 994.62 585.67 994.62"/>
  <line class="st2" x1="639.74" y1="995.66" x2="560.26" y2="995.66"/>
  <path class="st9" d="M566.25,784.96c0,.96-.78,1.74-1.74,1.74-.96,0-1.74-.78-1.74-1.74s.78-1.74,1.74-1.74,1.74.78,1.74,1.74"/>
  <path class="st6" d="M568.35,736.97v10.17c0,3.92-2.81,7.08-6.29,7.08-3.48,0-6.29-3.17-6.29-7.08v-10.17h12.58Z"/>
  <path class="st9" d="M580.44,792.94v-9.22c0-.2.13-.37.3-.37h16.81c.2,0,.37.17.37.37v9.22"/>
  <path class="st4" d="M589.84,791.24c0-.35-.28-.63-.63-.63s-.63.28-.63.63c0,.35.28.63.63.63s.63-.28.63-.63"/>
  <path class="st4" d="M589.99,786.79c0-.43-.35-.78-.78-.78s-.78.35-.78.78c0,.43.35.78.78.78s.78-.35.78-.78"/>
  <path class="st4" d="M590.36,786.79c0-.63-.51-1.15-1.15-1.15s-1.15.51-1.15,1.15c0,.63.51,1.15,1.15,1.15s1.15-.51,1.15-1.15"/>
  <path class="st4" d="M581.17,783.72h16c.2,0,.37.17.37.37v5.41c0,.2-.17.37-.37.37h-16c-.2,0-.37-.17-.37-.37v-5.41c0-.2.17-.37.37-.37Z"/>
  <g>
    <polyline class="st2" points="578.55 764.73 578.55 764.7 578.52 764.7"/>
    <line class="st0" x1="578.09" y1="764.7" x2="550.79" y2="764.7"/>
    <polyline class="st2" points="550.58 764.7 550.55 764.7 550.55 764.73"/>
    <line class="st0" x1="550.55" y1="765.16" x2="550.55" y2="792.46"/>
    <polyline class="st2" points="550.55 792.67 550.55 792.7 550.58 792.7"/>
    <line class="st0" x1="551.01" y1="792.7" x2="578.31" y2="792.7"/>
    <polyline class="st2" points="578.52 792.7 578.55 792.7 578.55 792.67"/>
    <line class="st0" x1="578.55" y1="792.25" x2="578.55" y2="764.95"/>
  </g>
  <line class="st4" x1="564.55" y1="792.7" x2="564.55" y2="784.92"/>
  <line class="st4" x1="574.18" y1="721.97" x2="545" y2="696.42"/>
  <line class="st4" x1="544.86" y1="722.14" x2="574.18" y2="696.42"/>
  <polyline class="st8" points="562.04 994.62 585.67 994.62 585.67 991.96 562.04 991.96 562.04 994.62"/>
  <polygon class="st10" points="662.77 972.77 662.77 966.63 662.03 965.96 655 965.93 655 808.2 649.74 808.2 649.74 965.91 642.85 965.89 641.96 966.77 641.81 972.77 639.74 972.77 639.74 995.66 665.29 995.66 665.29 972.77 662.77 972.77"/>
  <g>
    <rect class="st1" x="532.48" y="905.09" width="69.98" height="31.49" transform="translate(1488.31 353.36) rotate(90)"/>
    <rect class="st1" x="558.73" y="930.72" width="17.5" height="17.5" rx="1.42" ry="1.42"/>
    <polygon class="st1" points="583.62 946.67 583.62 885.66 551.73 885.66 551.73 930.89 583.62 946.67"/>
  </g>
  <g>
    <path class="st1" d="M636.85,963.82c-5.71-2.84-11.42-5.69-17.13-8.53-.28-.06-.58.11-.72.4-4.3,6.36-7.67,13.34-9.96,20.65-.04.12,0,.25.09.3.53.27,1.06.53,1.6.8l15.39,7.73,10.74-21.36"/>
    <path class="st1" d="M638,964.61c-.5-.33-1.02-.6-1.59-.81-.11-.04-.24.03-.3.15-3.59,6.75-7.07,13.56-10.42,20.44-.07.18,0,.37.14.45.56.34,1.14.62,1.76.85"/>
    <path class="st1" d="M634.37,963.65c.21-.42,1.36-.26,2.58.36.1.05.19.1.29.16l.77.45c.09.07.12.21.06.33l-10.45,20.79-1.77-.89c-.57-.3-1.14-.6-1.72-.9-.21-.19-.26-.53-.11-.82,2.36-7.01,5.87-13.62,10.35-19.47Z"/>
    <path class="st1" d="M635.54,964.08c-.28-.02-.56-.07-.84-.13-.34-.01-.67-.05-1-.1-.45-.07-.9-.14-1.36-.2-.63-.09-1.23-.23-1.83-.43-.36-.12-.72-.26-1.08-.4-.38-.16-.75-.31-1.12-.48-.89-.39-1.75-.82-2.59-1.3-.85-.49-1.65-1.04-2.41-1.66-.57-.47-1.09-.99-1.57-1.57-.3-.37-.47-.76-.54-1.27,0-.04,0-.08.02-.12l.19-.37c.09-.08.17-.12.28-.12,5.5,2.77,11,5.53,16.5,8.3.1.05.13.18.07.3l-.06.11h0c-.06.11-.18.17-.29.13-.24-.08-.49-.17-.73-.25-.31-.13-.64-.24-.97-.32l-.69-.12Z"/>
    <path class="st1" d="M625.48,984.09c-.19-.21-.39-.41-.6-.6-.21-.26-.44-.51-.68-.75-.33-.32-.65-.65-.97-.97-.44-.45-.92-.85-1.43-1.21-.32-.22-.64-.43-.97-.62-.35-.21-.7-.41-1.05-.62-.84-.48-1.7-.92-2.59-1.3-.9-.39-1.82-.7-2.77-.94-.72-.18-1.44-.29-2.2-.32-.47-.02-.89.08-1.34.33-.04.02-.06.05-.08.09l-.19.37c-.01.12,0,.21.07.29,5.5,2.77,11,5.53,16.5,8.3.1.05.22,0,.28-.12l.06-.11h0c.05-.12.02-.25-.07-.31-.21-.15-.42-.29-.64-.44-.29-.17-.57-.37-.83-.59l-.51-.49Z"/>
  </g>
  <g>
    <g>
      <path class="st8" d="M643.67,886.64c0,4.54-3.92,8.22-8.75,8.22-3.56,0-7.08-2.33-8.29-5.6-.17-.45-.5-1.39-.45-2.62.15-3.86,4-8.22,8.75-8.22s8.75,3.68,8.75,8.22Z"/>
      <path class="st2" d="M627.33,888.49c0,2.79,3.4,5.05,7.59,5.05"/>
      <path class="st2" d="M642.51,888.49c0,2.79-3.4,5.05-7.59,5.05"/>
      <path class="st2" d="M642.51,888.49c0-.55.44-1,.98-1"/>
      <path class="st2" d="M627.33,888.49c0-.55-.47-1-1.06-1"/>
    </g>
    <g>
      <path class="st8" d="M643.67,858.42c0-4.54-3.92-8.22-8.75-8.22-3.56,0-7.08,2.33-8.29,5.6-.17.45-.5,1.39-.45,2.62.15,3.86,4,8.22,8.75,8.22s8.75-3.68,8.75-8.22Z"/>
      <path class="st2" d="M627.33,856.57c0-2.79,3.4-5.05,7.59-5.05"/>
      <path class="st2" d="M642.51,856.57c0-2.79-3.4-5.05-7.59-5.05"/>
      <path class="st2" d="M642.51,856.57c0,.55.44,1,.98,1"/>
      <path class="st2" d="M627.33,856.57c0,.55-.47,1-1.06,1"/>
    </g>
    <rect class="st8" x="623.55" y="858.98" width="22.74" height="25.78" transform="translate(1506.78 236.95) rotate(90)"/>
  </g>
  <circle class="st3" cx="637.96" cy="951.02" r="6.97"/>
  <path class="st2" d="M618.55,693.1h28.29s.04,28.29.04,28.29c-15.65,0-28.33-12.68-28.33-28.33"/>
  <g>
    <polyline class="st9" points="549.92 960.32 551.25 960.32 551.25 968.9 549.92 968.9"/>
    <polyline class="st9" points="551.25 969.87 551.25 959.35 552.66 959.35 552.66 969.87 551.25 969.87"/>
  </g>
  <polygon class="st10" points="544.86 972.26 544.86 722.14 550.12 722.14 574.11 722.14 574.11 696.58 557.97 696.58 557.97 691.32 616.78 691.32 616.78 696.58 578.26 696.58 578.26 740.28 604.33 740.28 604.33 747.98 600.19 747.98 600.19 744.5 574.11 744.5 574.11 726.36 550.12 726.36 550.12 793.16 600.19 793.16 600.19 779.83 604.33 779.83 604.33 797.39 550.12 797.39 550.12 972.26 560.26 972.26 560.26 995.66 534.71 995.66 534.71 972.26 544.86 972.26"/>
</svg>