<?xml version="1.0" encoding="UTF-8"?>
<svg id="Lag_1" xmlns="http://www.w3.org/2000/svg" version="1.1" viewBox="0 0 1200 1697.14">
  <!-- Generator: Adobe Illustrator 29.6.0, SVG Export Plug-In . SVG Version: 2.1.1 Build 207)  -->
  <defs>
    <style>
      .st0 {
        stroke-dasharray: .06 .42;
      }

      .st0, .st1, .st2, .st3, .st4, .st5, .st6, .st7, .st8, .st9 {
        stroke-width: .18px;
      }

      .st0, .st1, .st2, .st4, .st5, .st6, .st8, .st9 {
        stroke-linejoin: round;
      }

      .st0, .st1, .st2, .st6, .st8 {
        stroke-linecap: round;
      }

      .st0, .st2, .st4, .st5, .st6 {
        fill: none;
      }

      .st0, .st2, .st4, .st6, .st7, .st8, .st9 {
        stroke: #000;
      }

      .st10 {
        fill: #000016;
      }

      .st1, .st3 {
        stroke: #060305;
      }

      .st1, .st3, .st7, .st8, .st9 {
        fill: #fff;
      }

      .st11 {
        fill: #e8e3e0;
      }

      .st3, .st7 {
        stroke-miterlimit: 10;
      }

      .st5 {
        stroke: #767676;
      }

      .st6 {
        stroke-dasharray: .06 .43;
      }
    </style>
  </defs>
  <polygon class="st11" points="626.88 957.65 653.97 957.65 653.97 723.45 547.26 723.45 547.26 987.12 626.88 987.12 626.88 957.65"/>
  <g>
    <polyline class="st2" points="622.44 914.2 622.44 914.23 622.47 914.23"/>
    <line class="st6" x1="622.9" y1="914.23" x2="650.65" y2="914.23"/>
    <polyline class="st2" points="650.86 914.23 650.89 914.23 650.89 914.2"/>
    <line class="st6" x1="650.89" y1="913.78" x2="650.89" y2="886.02"/>
    <polyline class="st2" points="650.89 885.81 650.89 885.78 650.86 885.78"/>
    <line class="st6" x1="650.44" y1="885.78" x2="622.68" y2="885.78"/>
    <polyline class="st2" points="622.47 885.78 622.44 885.78 622.44 885.81"/>
    <line class="st6" x1="622.44" y1="886.24" x2="622.44" y2="913.99"/>
  </g>
  <polyline class="st9" points="562.36 721.64 562.36 726.99 560.55 726.99 560.55 721.64 562.36 721.64"/>
  <polyline class="st4" points="613.51 721.64 562.36 721.64 562.36 723.45 613.51 723.37 613.51 721.64"/>
  <polyline class="st9" points="639.25 721.57 615.25 721.64 615.25 724.28 639.25 724.28 639.25 721.57"/>
  <polyline class="st9" points="640.98 721.57 641.06 726.91 639.25 726.91 639.25 721.57 640.98 721.57"/>
  <polyline class="st9" points="615.25 721.64 615.25 726.99 613.51 726.99 613.51 721.64 615.25 721.64"/>
  <line class="st4" x1="560.55" y1="720.51" x2="642.08" y2="720.44"/>
  <path class="st9" d="M634.93,893.65c0-.98.79-1.77,1.77-1.77s1.77.79,1.77,1.77c0,.98-.79,1.77-1.77,1.77s-1.77-.79-1.77-1.77"/>
  <line class="st4" x1="598.28" y1="929.51" x2="569.46" y2="929.51"/>
  <path class="st4" d="M569.53,929.47c0-15.9,12.89-28.79,28.79-28.79"/>
  <line class="st4" x1="598.28" y1="900.76" x2="598.28" y2="929.51"/>
  <line class="st4" x1="552.9" y1="987.16" x2="552.9" y2="958.33"/>
  <path class="st4" d="M552.94,958.33c15.9,0,28.79,12.89,28.79,28.79"/>
  <line class="st4" x1="581.73" y1="987.16" x2="552.9" y2="987.16"/>
  <polyline class="st9" points="601.29 939.82 622.59 939.82 622.59 982.49 601.29 982.49 601.29 939.82"/>
  <polyline class="st4" points="622.59 952.31 601.29 952.31 601.29 939.82 622.59 939.82 622.59 952.31"/>
  <line class="st4" x1="620.11" y1="946.29" x2="614.46" y2="946.29"/>
  <line class="st4" x1="609.42" y1="946.29" x2="603.78" y2="946.29"/>
  <line class="st4" x1="606.64" y1="949.07" x2="606.64" y2="943.43"/>
  <line class="st4" x1="617.25" y1="949.07" x2="617.25" y2="943.43"/>
  <polyline class="st4" points="604.83 978.95 619.05 978.95 619.05 964.73 604.83 964.73 604.83 978.95"/>
  <polyline class="st4" points="622.59 961.19 622.59 982.49 601.29 982.49 601.29 961.19 622.59 961.19"/>
  <line class="st4" x1="621.01" y1="971.88" x2="615.29" y2="971.88"/>
  <polyline class="st9" points="553.43 913.18 541.76 913.25 541.69 924.99 553.43 924.92 553.43 913.18"/>
  <line class="st5" x1="553.43" y1="917.54" x2="549.14" y2="913.18"/>
  <line class="st5" x1="553.43" y1="922.28" x2="544.32" y2="913.25"/>
  <line class="st5" x1="551.25" y1="924.92" x2="541.69" y2="915.36"/>
  <line class="st5" x1="546.51" y1="924.99" x2="541.69" y2="920.18"/>
  <line class="st5" x1="549.59" y1="924.92" x2="553.43" y2="921.08"/>
  <line class="st5" x1="544.77" y1="924.99" x2="553.43" y2="916.26"/>
  <line class="st5" x1="541.69" y1="923.26" x2="551.77" y2="913.18"/>
  <line class="st5" x1="541.69" y1="918.44" x2="546.96" y2="913.25"/>
  <path class="st7" d="M632.81,942.41v-10.34c0-3.98,2.86-7.2,6.39-7.2s6.39,3.22,6.39,7.2v10.34h-12.78Z"/>
  <polygon class="st9" points="651.39 942.41 626.9 942.41 626.83 953.37 651.39 953.4 651.39 942.41"/>
  <rect class="st9" x="633.57" y="859.84" width="17.76" height="21.37"/>
  <rect class="st9" x="614.83" y="859.84" width="17.84" height="21.37"/>
  <rect class="st9" x="596.15" y="859.84" width="17.85" height="21.37"/>
  <path class="st9" d="M620.52,885.54v9.37c0,.21-.13.38-.3.38h-17.08c-.21,0-.38-.17-.38-.38v-9.37"/>
  <path class="st4" d="M610.96,887.27c0,.35.29.64.64.64s.64-.29.64-.64-.29-.64-.64-.64-.64.29-.64.64"/>
  <path class="st4" d="M610.81,891.79c0,.44.35.79.79.79s.79-.35.79-.79-.35-.79-.79-.79-.79.35-.79.79"/>
  <path class="st4" d="M610.44,891.79c0,.64.52,1.17,1.17,1.17s1.17-.52,1.17-1.17-.52-1.17-1.17-1.17-1.17.52-1.17,1.17"/>
  <path class="st4" d="M603.51,888.66h16.26c.21,0,.38.17.38.38v5.49c0,.21-.17.38-.38.38h-16.26c-.21,0-.37-.17-.37-.37v-5.5c0-.21.17-.37.37-.37Z"/>
  <line class="st4" x1="636.67" y1="885.78" x2="636.67" y2="893.68"/>
  <g>
    <path class="st2" d="M614.94,721.03s0-.02,0-.03"/>
    <path class="st0" d="M614.97,720.58c.28-3.11,3.1-12.33,3.83-12.33l19.49,13.08.24.17"/>
    <line class="st2" x1="638.7" y1="721.63" x2="638.73" y2="721.64"/>
  </g>
  <polygon class="st10" points="547.26 988.89 543.34 988.89 543.34 983.62 544.55 983.62 544.55 924.99 549.89 924.92 549.89 983.62 551.17 983.62 551.17 988.89 547.26 988.89"/>
  <line class="st4" x1="626.88" y1="957.65" x2="656.53" y2="983.62"/>
  <line class="st4" x1="656.53" y1="957.65" x2="626.88" y2="983.62"/>
  <polygon class="st10" points="560.55 720.51 533.04 720.51 533.04 742.79 544.56 742.82 544.56 743.24 544.55 743.24 544.55 913.25 549.89 913.18 549.89 744.83 549.9 744.83 549.9 742.84 560.55 742.87 560.55 720.51"/>
  <g>
    <rect class="st1" x="531.68" y="763.32" width="71.11" height="32" transform="translate(-212.09 1346.56) rotate(-90)"/>
    <rect class="st1" x="558.35" y="751.5" width="17.78" height="17.78" rx="1.42" ry="1.42" transform="translate(1134.48 1520.78) rotate(180)"/>
    <polygon class="st1" points="550.83 753.07 550.83 815.06 583.24 815.06 583.24 769.11 550.83 753.07"/>
  </g>
  <g>
    <g>
      <path class="st8" d="M628.42,831.57c0,4.61,3.98,8.36,8.89,8.36,3.61,0,7.19-2.36,8.43-5.69.17-.45.51-1.41.46-2.66-.16-3.92-4.07-8.36-8.89-8.36s-8.89,3.74-8.89,8.36Z"/>
      <path class="st2" d="M645.02,833.44c0,2.84-3.45,5.13-7.72,5.13"/>
      <path class="st2" d="M629.59,833.44c0,2.84,3.45,5.13,7.72,5.13"/>
      <path class="st2" d="M629.59,833.44c0-.56-.44-1.01-.99-1.01"/>
      <path class="st2" d="M645.02,833.44c0-.56.48-1.01,1.07-1.01"/>
    </g>
    <g>
      <path class="st8" d="M628.42,802.89c0-4.61,3.98-8.36,8.89-8.36,3.61,0,7.19,2.36,8.43,5.69.17.45.51,1.41.46,2.66-.16,3.92-4.07,8.36-8.89,8.36s-8.89-3.74-8.89-8.36Z"/>
      <path class="st2" d="M645.02,801.01c0-2.84-3.45-5.13-7.72-5.13"/>
      <path class="st2" d="M629.59,801.01c0-2.84,3.45-5.13,7.72-5.13"/>
      <path class="st2" d="M629.59,801.01c0,.56-.44,1.01-.99,1.01"/>
      <path class="st2" d="M645.02,801.01c0,.56.48,1.01,1.07,1.01"/>
    </g>
    <rect class="st8" x="625.75" y="803.45" width="23.11" height="26.19" transform="translate(1453.86 179.24) rotate(90)"/>
  </g>
  <g>
    <path class="st1" d="M638.67,747c-5.31,3.72-10.62,7.43-15.92,11.15-.27.1-.6-.02-.79-.29-5.28-5.74-9.71-12.25-13.12-19.25-.06-.12-.04-.25.05-.32l1.48-1.05,14.3-10.09,14.01,19.85"/>
    <path class="st1" d="M639.71,746.02c-.45.41-.94.76-1.47,1.05-.11.05-.24,0-.32-.1-4.63-6.25-9.14-12.57-13.55-18.97-.09-.17-.06-.38.07-.48.51-.43,1.05-.8,1.64-1.11"/>
    <path class="st1" d="M636.2,747.54c.27.39,1.41.05,2.54-.75.09-.07.18-.13.26-.2l.71-.57c.08-.08.09-.23,0-.34l-13.64-19.32-1.64,1.16c-.53.39-1.06.78-1.59,1.17-.18.22-.18.57.01.84,3.43,6.69,7.95,12.8,13.34,18.01Z"/>
    <path class="st1" d="M637.31,746.93c-.28.07-.56.15-.82.26-.34.07-.67.15-.99.25-.44.14-.89.27-1.33.41-.62.18-1.2.42-1.77.71-.35.18-.69.37-1.02.57-.35.21-.71.43-1.06.65-.83.52-1.64,1.09-2.41,1.7-.78.62-1.5,1.29-2.17,2.03-.5.56-.95,1.16-1.34,1.81-.25.41-.36.84-.35,1.36,0,.04.01.08.04.12l.25.35c.1.07.19.09.3.07,5.11-3.61,10.22-7.21,15.33-10.82.09-.06.1-.2.03-.31l-.08-.11h0c-.08-.1-.21-.14-.31-.08-.23.12-.47.24-.7.36-.3.18-.6.33-.93.46l-.68.22Z"/>
    <path class="st1" d="M624.19,728.34c-.16.24-.33.47-.52.69-.17.3-.36.58-.57.85-.28.37-.55.75-.83,1.12-.38.52-.8.99-1.26,1.43-.28.27-.58.53-.88.77-.32.26-.64.52-.97.78-.77.61-1.57,1.18-2.41,1.7-.84.53-1.72.98-2.64,1.36-.69.29-1.41.5-2.16.65-.47.09-.91.05-1.4-.13-.04-.02-.07-.04-.1-.08l-.25-.35c-.03-.12-.02-.21.03-.31,5.11-3.61,10.22-7.21,15.33-10.82.09-.06.23-.03.3.08l.08.11h0c.07.11.06.24-.02.32-.19.18-.38.36-.57.54-.27.22-.52.46-.75.72l-.43.56Z"/>
  </g>
  <circle class="st3" cx="638.47" cy="761.11" r="7.06"/>
  <g>
    <polyline class="st9" points="651.19 745.81 649.84 745.81 649.84 754.51 651.19 754.51"/>
    <polyline class="st9" points="649.84 755.49 649.84 744.82 648.41 744.82 648.41 755.49 649.84 755.49"/>
  </g>
  <polygon class="st10" points="666.96 720.25 640.99 720.25 640.99 742.82 651.19 742.82 651.19 881.19 596.1 881.19 596.1 898.95 600.39 898.95 600.39 885.48 651.19 885.48 651.19 953.36 626.88 953.36 626.88 934.85 600.39 934.85 600.39 931.31 596.1 931.31 596.1 939.14 622.59 939.14 622.59 983.62 583.46 983.62 583.46 988.89 643.21 988.89 643.21 983.62 626.88 983.62 626.88 957.65 651.19 957.65 656.53 957.65 656.53 742.82 666.96 742.82 666.96 720.25"/>
</svg>