<?xml version="1.0" encoding="UTF-8"?>
<svg id="Layer_1" xmlns="http://www.w3.org/2000/svg" xmlns:xlink="http://www.w3.org/1999/xlink" version="1.1" viewBox="0 0 1200 1697.14">
  <!-- Generator: Adobe Illustrator 29.6.0, SVG Export Plug-In . SVG Version: 2.1.1 Build 207)  -->
  <defs>
    <style>
      .st0, .st1, .st2, .st3 {
        fill: none;
      }

      .st1 {
        stroke: #0d0e1c;
      }

      .st1, .st2, .st3 {
        stroke-linecap: round;
        stroke-linejoin: round;
      }

      .st1, .st3 {
        stroke-width: .08px;
      }

      .st2 {
        stroke-width: .14px;
      }

      .st2, .st3 {
        stroke: #000;
      }

      .st4 {
        clip-path: url(#clippath-11);
      }

      .st5 {
        clip-path: url(#clippath-16);
      }

      .st6 {
        clip-path: url(#clippath-10);
      }

      .st7 {
        clip-path: url(#clippath-15);
      }

      .st8 {
        clip-path: url(#clippath-13);
      }

      .st9 {
        clip-path: url(#clippath-14);
      }

      .st10 {
        clip-path: url(#clippath-12);
      }

      .st11 {
        clip-path: url(#clippath-1);
      }

      .st12 {
        clip-path: url(#clippath-3);
      }

      .st13 {
        clip-path: url(#clippath-4);
      }

      .st14 {
        clip-path: url(#clippath-2);
      }

      .st15 {
        clip-path: url(#clippath-7);
      }

      .st16 {
        clip-path: url(#clippath-6);
      }

      .st17 {
        clip-path: url(#clippath-9);
      }

      .st18 {
        clip-path: url(#clippath-8);
      }

      .st19 {
        clip-path: url(#clippath-5);
      }

      .st20 {
        fill: #fff;
      }

      .st21 {
        fill: #ece9e5;
      }

      .st22 {
        fill: #302c35;
      }

      .st23 {
        clip-path: url(#clippath);
      }
    </style>
    <clipPath id="clippath">
      <rect class="st0" x="401.08" y="665.42" width="72.58" height="159.65"/>
    </clipPath>
    <clipPath id="clippath-1">
      <rect class="st0" x="256.74" y="441.48" width="686.53" height="814.19"/>
    </clipPath>
    <clipPath id="clippath-2">
      <rect class="st0" x="477.41" y="946.22" width="28.6" height="39.22"/>
    </clipPath>
    <clipPath id="clippath-3">
      <rect class="st0" x="256.74" y="441.48" width="686.53" height="814.19"/>
    </clipPath>
    <clipPath id="clippath-4">
      <rect class="st0" x="256.74" y="441.48" width="686.53" height="814.19"/>
    </clipPath>
    <clipPath id="clippath-5">
      <rect class="st0" x="407.08" y="1029.12" width="27.51" height="37.12"/>
    </clipPath>
    <clipPath id="clippath-6">
      <rect class="st0" x="256.74" y="441.48" width="686.53" height="814.19"/>
    </clipPath>
    <clipPath id="clippath-7">
      <rect class="st0" x="256.74" y="441.48" width="686.53" height="814.19"/>
    </clipPath>
    <clipPath id="clippath-8">
      <rect class="st0" x="597.53" y="807.92" width="95.75" height="98.7"/>
    </clipPath>
    <clipPath id="clippath-9">
      <rect class="st0" x="256.74" y="441.48" width="686.53" height="814.19"/>
    </clipPath>
    <clipPath id="clippath-10">
      <rect class="st0" x="256.74" y="441.48" width="686.53" height="814.19"/>
    </clipPath>
    <clipPath id="clippath-11">
      <rect class="st0" x="256.74" y="441.48" width="686.53" height="814.19"/>
    </clipPath>
    <clipPath id="clippath-12">
      <rect class="st0" x="256.74" y="441.48" width="686.53" height="814.19"/>
    </clipPath>
    <clipPath id="clippath-13">
      <rect class="st0" x="256.74" y="441.48" width="686.53" height="814.19"/>
    </clipPath>
    <clipPath id="clippath-14">
      <rect class="st0" x="256.74" y="441.48" width="686.53" height="814.19"/>
    </clipPath>
    <clipPath id="clippath-15">
      <rect class="st0" x="256.74" y="441.48" width="686.53" height="814.19"/>
    </clipPath>
    <clipPath id="clippath-16">
      <rect class="st0" x="256.74" y="441.48" width="686.53" height="814.19"/>
    </clipPath>
  </defs>
  <rect class="st21" x="381.68" y="614.63" width="363.52" height="481.99"/>
  <rect class="st21" x="724.27" y="735.13" width="132.84" height="249.43"/>
  <rect class="st20" x="437.54" y="603.23" width="203.25" height="27.6"/>
  <rect class="st20" x="728.99" y="756.16" width="11.81" height="202.12"/>
  <rect class="st20" x="650.93" y="959.75" width="53.76" height="122.42"/>
  <rect class="st20" x="648.91" y="661.54" width="49.71" height="49.71"/>
  <rect class="st22" x="853.06" y="734.96" width="4.05" height="249.43"/>
  <rect class="st22" x="716.55" y="980.51" width="140.55" height="4.05"/>
  <rect class="st22" x="716.55" y="734.96" width="140.1" height="4.05"/>
  <rect class="st22" x="381.68" y="1080.76" width="17.55" height="15.87"/>
  <rect class="st22" x="381.68" y="614.63" width="62.11" height="46.91"/>
  <rect class="st22" x="381.68" y="661.54" width="17.55" height="419.21"/>
  <rect class="st22" x="399.23" y="879.93" width="119.82" height="7.76"/>
  <rect class="st22" x="519.05" y="879.93" width="7.76" height="59.74"/>
  <rect class="st22" x="606.13" y="1080.76" width="92.48" height="15.87"/>
  <rect class="st22" x="396.88" y="1080.76" width="137.7" height="15.87"/>
  <rect class="st22" x="698.62" y="614.63" width="46.58" height="144.12"/>
  <rect class="st22" x="642.92" y="956.88" width="55.69" height="5.74"/>
  <rect class="st22" x="393.62" y="1074.01" width="133.19" height="6.75"/>
  <rect class="st22" x="520.4" y="1065.9" width="6.41" height="8.1"/>
  <rect class="st22" x="400.92" y="939.67" width="120.84" height="5.06"/>
  <rect class="st22" x="393.62" y="939.67" width="12.36" height="134.34"/>
  <rect class="st22" x="405.98" y="944.73" width="115.77" height="1.35"/>
  <rect class="st22" x="520.4" y="935.49" width="6.41" height="58.86"/>
  <rect class="st22" x="405.98" y="1072.66" width="115.77" height="1.35"/>
  <rect class="st22" x="405.98" y="944.73" width="1.35" height="127.92"/>
  <rect class="st22" x="698.62" y="955.87" width="46.58" height="140.75"/>
  <rect class="st22" x="640.9" y="614.63" width="73.58" height="46.91"/>
  <polygon class="st20" points="401.08 665.42 401.08 665.83 472.74 665.83 472.74 803.79 473.66 804.23 473.66 665.42 401.08 665.42"/>
  <polygon class="st20" points="401.08 665.83 401.08 768.33 417.01 776.2 456.82 795.9 472.74 803.79 472.74 665.83 401.08 665.83"/>
  <g class="st23">
    <path class="st20" d="M401.08,825.07v-56.74l15.92,7.87h0v28.26c0,1.81,1.47,3.28,3.29,3.28h33.25c1.8,0,3.27-1.47,3.27-3.28v-8.57l15.93,7.89v21.28h-71.66Z"/>
    <polygon class="st20" points="417.01 776.21 417.01 776.2 456.82 795.9 417.01 776.21"/>
    <path class="st20" d="M417.01,804.47v-28.26l39.81,19.69v8.57c0,1.81-1.47,3.28-3.28,3.28h-33.25c-1.81,0-3.28-1.47-3.28-3.28"/>
  </g>
  <polyline class="st1" points="472.74 803.79 472.74 825.07 401.08 825.07 401.08 768.33"/>
  <polyline class="st1" points="417.01 776.21 456.82 795.9 472.74 803.79 473.66 804.24 473.66 665.42 401.08 665.42 401.08 665.83 401.08 768.33 417.01 776.2"/>
  <line class="st1" x1="453.54" y1="807.75" x2="420.29" y2="807.75"/>
  <g class="st11">
    <path class="st1" d="M420.29,807.75c-1.82,0-3.28-1.47-3.28-3.28"/>
    <path class="st1" d="M456.82,804.47c0,1.81-1.47,3.28-3.28,3.28"/>
  </g>
  <polyline class="st1" points="456.82 804.47 456.82 795.9 417.01 776.2 417.01 776.21 417.01 804.47"/>
  <g class="st14">
    <path class="st20" d="M506.01,946.23c0,7.71,0,15.42,0,23.12,0,8.89-6.41,16.09-14.3,16.08-7.9,0-14.29-7.21-14.28-16.1,0-7.7,0-15.41.02-23.12,9.53,0,19.05.02,28.58.02"/>
  </g>
  <g class="st12">
    <path class="st3" d="M506.01,946.23c0,7.71,0,15.42,0,23.12,0,8.89-6.41,16.09-14.3,16.08-7.9,0-14.29-7.21-14.28-16.1,0-7.7,0-15.41.02-23.12,9.53,0,19.05.02,28.58.02Z"/>
  </g>
  <rect class="st20" x="406.97" y="945.94" width="62.49" height="63.21"/>
  <polyline class="st3" points="469.46 945.94 469.46 1009.15 463.29 1009.15"/>
  <line class="st3" x1="469.46" y1="945.94" x2="407.47" y2="945.94"/>
  <line class="st3" x1="406.97" y1="946.98" x2="406.97" y2="1008.6"/>
  <polyline class="st3" points="406.97 946.98 406.97 945.94 407.47 945.94"/>
  <polyline class="st3" points="407.91 1009.15 406.97 1009.15 406.97 1008.6"/>
  <line class="st3" x1="407.91" y1="1009.15" x2="463.29" y2="1009.15"/>
  <line class="st3" x1="439.16" y1="945.94" x2="439.16" y2="963.5"/>
  <g class="st13">
    <path class="st3" d="M443.01,963.42c0-2.17-1.76-3.93-3.93-3.93s-3.93,1.76-3.93,3.93,1.76,3.93,3.93,3.93,3.93-1.76,3.93-3.93Z"/>
    <path class="st3" d="M443.01,963.42c0-2.17-1.76-3.93-3.93-3.93s-3.93,1.76-3.93,3.93,1.76,3.93,3.93,3.93,3.93-1.76,3.93-3.93Z"/>
  </g>
  <g class="st19">
    <path class="st20" d="M432.46,1065.61h-15.49c-.59,0-1.06-.35-1.06-.78v-34.13c0-.44.47-.79,1.06-.79h15.49c.6,0,1.07.35,1.07.79v34.13c0,.43-.48.78-1.07.78M424.99,1050.56c1.55,0,2.8-1.25,2.8-2.8s-1.25-2.81-2.8-2.81-2.8,1.26-2.8,2.81,1.25,2.8,2.8,2.8"/>
    <path class="st20" d="M413.28,1047.76c0,1.16-.94,2.1-2.1,2.1s-2.11-.95-2.11-2.1.94-2.11,2.11-2.11,2.1.94,2.1,2.11"/>
    <path class="st20" d="M426.5,1047.76c0,.83-.68,1.51-1.51,1.51s-1.51-.68-1.51-1.51.68-1.51,1.51-1.51,1.51.68,1.51,1.51"/>
    <path class="st20" d="M424.99,1049.27c.83,0,1.51-.68,1.51-1.51s-.68-1.51-1.51-1.51-1.51.68-1.51,1.51.68,1.51,1.51,1.51M427.79,1047.76c0,1.55-1.25,2.8-2.8,2.8s-2.8-1.25-2.8-2.8,1.25-2.81,2.8-2.81,2.8,1.26,2.8,2.81"/>
    <path class="st20" d="M409.07,1047.76c0,1.16.95,2.1,2.11,2.1s2.1-.95,2.1-2.1-.94-2.11-2.1-2.11-2.11.95-2.11,2.11M416.96,1065.61h15.5c.59,0,1.07-.35,1.07-.78v-34.13c0-.44-.48-.79-1.07-.79h-15.5c-.59,0-1.06.35-1.06.79v34.13c0,.43.47.78,1.06.78M433.53,1066.24h-26.45v-37.12h26.45c.58,0,1.06.35,1.06.78v35.7c0,.35-.48.63-1.06.63"/>
  </g>
  <g class="st16">
    <path class="st3" d="M411.18,1045.65c1.17,0,2.1.95,2.1,2.11s-.94,2.1-2.1,2.1-2.11-.94-2.11-2.1.94-2.11,2.11-2.11Z"/>
    <path class="st3" d="M424.99,1044.95c1.55,0,2.8,1.26,2.8,2.81s-1.25,2.8-2.8,2.8-2.8-1.25-2.8-2.8,1.25-2.81,2.8-2.81Z"/>
    <path class="st3" d="M424.99,1046.25c.83,0,1.51.68,1.51,1.51s-.68,1.51-1.51,1.51-1.51-.68-1.51-1.51.68-1.51,1.51-1.51Z"/>
    <path class="st3" d="M416.96,1065.61h15.5c.59,0,1.07-.35,1.07-.78v-34.13c0-.44-.48-.79-1.07-.79h-15.5c-.59,0-1.06.35-1.06.79v34.13c0,.43.47.78,1.06.78Z"/>
  </g>
  <line class="st3" x1="415.25" y1="1029.12" x2="407.08" y2="1029.12"/>
  <g class="st15">
    <path class="st3" d="M407.08,1066.24h26.45c.58,0,1.06-.28,1.06-.63v-35.7c0-.43-.48-.78-1.06-.78h-8.39"/>
  </g>
  <line class="st3" x1="415.25" y1="1029.12" x2="425.14" y2="1029.12"/>
  <line class="st3" x1="407.08" y1="1029.12" x2="407.08" y2="1066.24"/>
  <line class="st3" x1="680.96" y1="984.8" x2="691.63" y2="984.8"/>
  <rect class="st3" x="650.93" y="962.62" width="47.69" height="118.13"/>
  <line class="st3" x1="683.71" y1="1045.12" x2="683.71" y2="1055.55"/>
  <line class="st3" x1="664.09" y1="1045.12" x2="664.09" y2="1055.55"/>
  <line class="st3" x1="669.24" y1="1050.27" x2="658.81" y2="1050.27"/>
  <line class="st3" x1="688.99" y1="1050.27" x2="678.56" y2="1050.27"/>
  <rect class="st3" x="654.22" y="1039.14" width="39.36" height="22.95"/>
  <rect class="st3" x="661.3" y="971.45" width="26.55" height="26.54"/>
  <rect class="st3" x="654.7" y="964.85" width="39.75" height="39.89"/>
  <g class="st18">
    <path class="st20" d="M619.37,807.91c.42,0,.42.42,0,.42,0,.42-.42.42-.42.84-.42,0-.42.42-.84.42-.84.42-2.1.84-3.37,1.26-.84.42-1.26,1.68-.84,2.52,0,.42.42.84.84.42,4.98-1.24,9.96-.85,14.12,1.18-5.28,2.21-10.07,5.49-14.12,9.75-4.38,4.16-7.73,9.24-9.93,14.75l-.14-.06c-1.68-4.62-2.1-9.66-.84-14.27,0-.42-.42-.84-.84-.84-.84-.42-1.68,0-2.52.84-.42.84-.84,2.1-.84,3.36q-.42.42-.84.42c0,.42-.42.42-.42.84h-.84c2.1-11.34,10.5-20.16,21.84-21.84"/>
    <path class="st20" d="M671.44,808.33c-.42,0,0-.42,0-.42,11.34,1.68,19.74,10.49,21.84,21.84h-.84c0-.42-.42-.42-.42-.84q-.42,0-.84-.42c0-1.26-.42-2.52-.84-3.36-.84-.84-1.68-1.26-2.52-.84-.42,0-.84.42-.84.84,1.26,4.62,1.26,9.66-.84,14.28l-.14.05c-2.2-5.51-5.56-10.59-9.93-14.75-4.04-4.25-8.84-7.54-14.12-9.75,4.16-2.02,9.13-2.42,14.12-1.18.42.42.84,0,.84-.42.42-.84,0-2.1-.84-2.52-1.27-.42-2.53-.84-3.37-1.26-.42,0-.42-.42-.84-.42,0-.42-.42-.42-.42-.84"/>
    <path class="st20" d="M628.86,814.97c5.14-2.15,10.75-3.27,16.55-3.27s11.41,1.13,16.55,3.27c5.28,2.21,10.07,5.49,14.11,9.75,4.38,4.16,7.73,9.24,9.94,14.75,2.01,5.06,3.08,10.48,3.08,15.9,0,6.98-1.62,13.66-4.7,19.7-2.11,4.14-4.9,7.98-8.31,11.39-5.35,5.35-12.01,9.18-19.38,11.13-3.62.96-7.41,1.46-11.29,1.46s-7.67-.5-11.29-1.46c-7.36-1.95-14.02-5.78-19.38-11.13-3.41-3.41-6.2-7.25-8.31-11.39-3.08-6.04-4.7-12.71-4.7-19.7,0-5.43,1.06-10.85,3.08-15.9,2.2-5.51,5.56-10.59,9.93-14.75,4.04-4.25,8.83-7.54,14.11-9.75"/>
    <path class="st20" d="M606.35,875.11l.08-.05c2.11,4.14,4.9,7.98,8.31,11.39,5.36,5.35,12.02,9.18,19.38,11.13l-.06.21c-5.04,3.36-11.75,4.61-17.63,2.94-.42-.42-.84,0-.84.42-.43.84,0,2.1.84,2.52,1.26.43,2.1.85,3.36,1.27q.42,0,.84.42s.42.42.42.84v.42c-11.35-1.68-20.16-10.51-21.84-21.84h.84l.42.42q.42.42.42.84c.42,1.26.84,2.52,1.26,3.36.42.84,1.68,1.26,2.52.84.42,0,.84-.42.84-.84-1.68-4.62-1.26-9.66.84-14.28"/>
    <path class="st20" d="M684.38,875.06l.08.05c2.1,4.62,2.52,9.66.84,14.28,0,.42.42.84.84.84.84.42,2.1,0,2.52-.84s.84-2.1,1.26-3.36q0-.42.42-.84s.42-.42.84-.42h.42c-1.68,11.34-10.5,20.16-21.84,21.84v-.42c0-.42.42-.84.42-.84q.42-.42.84-.42c1.26-.42,2.1-.84,3.36-1.27.84-.42,1.26-1.68.84-2.52,0-.42-.42-.84-.84-.42-5.88,1.68-12.59.42-17.63-2.94l-.06-.21c7.36-1.95,14.02-5.78,19.38-11.13,3.41-3.42,6.21-7.25,8.31-11.39"/>
  </g>
  <g class="st17">
    <path class="st3" d="M691.18,828.49q.42.42.84.42"/>
    <path class="st3" d="M661.96,814.97c-5.14-2.15-10.75-3.27-16.55-3.27s-11.41,1.13-16.55,3.27c-5.28,2.21-10.07,5.49-14.11,9.75-4.38,4.16-7.73,9.24-9.94,14.75-2.01,5.06-3.08,10.48-3.08,15.9,0,6.98,1.62,13.66,4.7,19.7,2.11,4.14,4.9,7.98,8.31,11.39,5.35,5.35,12.01,9.18,19.38,11.13,3.62.96,7.41,1.46,11.29,1.46s7.67-.5,11.29-1.46c7.36-1.95,14.02-5.78,19.38-11.13,3.41-3.41,6.2-7.25,8.31-11.39,3.08-6.04,4.7-12.71,4.7-19.7,0-5.43-1.06-10.85-3.08-15.9-2.2-5.51-5.56-10.59-9.93-14.75-4.04-4.25-8.83-7.54-14.11-9.75Z"/>
    <path class="st3" d="M619.37,807.91c-11.34,1.68-19.74,10.49-21.84,21.84"/>
    <path class="st3" d="M629.03,815.05c-.06-.03-.11-.06-.17-.08-4.16-2.02-9.13-2.42-14.12-1.18"/>
    <path class="st3" d="M613.9,813.37c0,.42.42.84.84.42"/>
    <path class="st3" d="M618.11,809.59c-.84.42-2.1.84-3.37,1.26"/>
    <path class="st3" d="M614.74,810.85c-.84.42-1.26,1.68-.84,2.52"/>
    <path class="st3" d="M619.37,808.33c.42,0,.42-.42,0-.42"/>
    <path class="st3" d="M618.95,809.17c0-.42.42-.42.42-.84"/>
    <path class="st3" d="M618.11,809.59c.42,0,.42-.42.84-.42"/>
    <path class="st3" d="M603.83,825.13c0-.42-.42-.84-.84-.84"/>
    <path class="st3" d="M600.47,825.13c-.42.84-.84,2.1-.84,3.36"/>
    <path class="st3" d="M602.99,824.3c-.84-.42-1.68,0-2.52.84"/>
  </g>
  <line class="st3" x1="597.53" y1="829.75" x2="598.37" y2="829.75"/>
  <g class="st6">
    <path class="st3" d="M598.37,829.75c0-.42.42-.42.42-.84"/>
    <path class="st3" d="M598.79,828.91q.42,0,.84-.42"/>
    <path class="st3" d="M603.83,825.13c-1.26,4.62-.84,9.65.84,14.27"/>
    <path class="st3" d="M599.21,884.77c1.68,11.33,10.49,20.16,21.84,21.84"/>
    <path class="st3" d="M616.43,900.73c5.88,1.68,12.59.42,17.63-2.94"/>
    <path class="st3" d="M616.43,900.73c-.42-.42-.84,0-.84.42"/>
    <path class="st3" d="M616.43,903.67c1.26.43,2.1.85,3.36,1.27"/>
    <path class="st3" d="M615.59,901.15c-.43.84,0,2.1.84,2.52"/>
  </g>
  <line class="st3" x1="621.05" y1="906.61" x2="621.05" y2="906.19"/>
  <g class="st4">
    <path class="st3" d="M621.05,906.19c0-.42-.42-.84-.42-.84"/>
    <path class="st3" d="M620.63,905.35q-.42-.42-.84-.42"/>
    <path class="st3" d="M604.67,890.23c.42,0,.84-.42.84-.84"/>
    <path class="st3" d="M600.89,886.03c.42,1.26.84,2.52,1.26,3.36"/>
    <path class="st3" d="M602.15,889.39c.42.84,1.68,1.26,2.52.84"/>
  </g>
  <line class="st3" x1="600.05" y1="884.77" x2="599.21" y2="884.77"/>
  <line class="st3" x1="600.47" y1="885.19" x2="600.05" y2="884.77"/>
  <g class="st10">
    <path class="st3" d="M600.89,886.03q0-.42-.42-.84"/>
    <path class="st3" d="M606.35,875.11c-2.1,4.62-2.52,9.66-.84,14.28"/>
    <path class="st3" d="M693.28,829.75c-2.1-11.34-10.49-20.16-21.84-21.84"/>
    <path class="st3" d="M676.07,813.79c-4.98-1.24-9.95-.85-14.11,1.18-.06.03-.11.06-.17.08"/>
    <path class="st3" d="M676.07,813.79c.42.42.84,0,.84-.42"/>
    <path class="st3" d="M676.07,810.85c-1.27-.42-2.53-.84-3.37-1.26"/>
    <path class="st3" d="M676.91,813.37c.42-.84,0-2.1-.84-2.52"/>
    <path class="st3" d="M671.44,807.91s-.42.42,0,.42"/>
    <path class="st3" d="M671.44,808.33c0,.42.42.42.42.84"/>
    <path class="st3" d="M671.86,809.17c.42,0,.42.42.84.42"/>
    <path class="st3" d="M687.83,824.3c-.42,0-.84.42-.84.84"/>
    <path class="st3" d="M691.18,828.49c0-1.26-.42-2.52-.84-3.36"/>
    <path class="st3" d="M690.35,825.13c-.84-.84-1.68-1.26-2.52-.84"/>
  </g>
  <line class="st3" x1="692.44" y1="829.75" x2="693.28" y2="829.75"/>
  <g class="st8">
    <path class="st3" d="M692.02,828.91c0,.42.42.42.42.84"/>
    <path class="st3" d="M686.15,839.41c2.1-4.62,2.1-9.65.84-14.27"/>
    <path class="st3" d="M669.77,906.61c11.34-1.68,20.16-10.5,21.84-21.84"/>
    <path class="st3" d="M656.75,897.79c5.04,3.36,11.75,4.62,17.63,2.94"/>
    <path class="st3" d="M675.22,901.15c0-.42-.42-.84-.84-.42"/>
    <path class="st3" d="M671.02,904.93c1.26-.42,2.1-.84,3.36-1.27"/>
    <path class="st3" d="M674.38,903.67c.84-.42,1.26-1.68.84-2.52"/>
  </g>
  <line class="st3" x1="669.77" y1="906.19" x2="669.77" y2="906.61"/>
  <g class="st9">
    <path class="st3" d="M670.19,905.35s-.42.42-.42.84"/>
    <path class="st3" d="M671.02,904.93q-.42,0-.84.42"/>
    <path class="st3" d="M685.31,889.39c0,.42.42.84.84.84"/>
    <path class="st3" d="M688.67,889.39c.42-.84.84-2.1,1.26-3.36"/>
    <path class="st3" d="M686.15,890.23c.84.42,2.1,0,2.52-.84"/>
  </g>
  <line class="st3" x1="691.6" y1="884.77" x2="691.18" y2="884.77"/>
  <g class="st7">
    <path class="st3" d="M691.18,884.77c-.42,0-.84.42-.84.42"/>
    <path class="st3" d="M690.35,885.19q-.42.42-.42.84"/>
    <path class="st3" d="M685.31,889.39c1.68-4.62,1.26-9.66-.84-14.28"/>
  </g>
  <line class="st3" x1="696.84" y1="711.25" x2="695.49" y2="711.25"/>
  <line class="st3" x1="693.13" y1="711.25" x2="690.76" y2="711.25"/>
  <line class="st3" x1="688.4" y1="711.25" x2="686.04" y2="711.25"/>
  <line class="st3" x1="683.67" y1="711.25" x2="681.31" y2="711.25"/>
  <line class="st3" x1="678.95" y1="711.25" x2="676.25" y2="711.25"/>
  <line class="st3" x1="673.89" y1="711.25" x2="671.52" y2="711.25"/>
  <line class="st3" x1="669.16" y1="711.25" x2="666.8" y2="711.25"/>
  <line class="st3" x1="664.44" y1="711.25" x2="662.07" y2="711.25"/>
  <line class="st3" x1="659.71" y1="711.25" x2="657.35" y2="711.25"/>
  <line class="st3" x1="654.99" y1="711.25" x2="652.62" y2="711.25"/>
  <line class="st3" x1="649.92" y1="711.25" x2="648.91" y2="711.25"/>
  <line class="st3" x1="648.91" y1="711.25" x2="648.91" y2="710.24"/>
  <line class="st3" x1="648.91" y1="707.88" x2="648.91" y2="705.18"/>
  <line class="st3" x1="648.91" y1="702.82" x2="648.91" y2="700.45"/>
  <line class="st3" x1="648.91" y1="698.09" x2="648.91" y2="695.73"/>
  <line class="st3" x1="648.91" y1="693.36" x2="648.91" y2="691"/>
  <line class="st3" x1="648.91" y1="688.64" x2="648.91" y2="686.28"/>
  <line class="st3" x1="648.91" y1="683.91" x2="648.91" y2="681.55"/>
  <line class="st3" x1="648.91" y1="678.85" x2="648.91" y2="676.49"/>
  <line class="st3" x1="648.91" y1="674.12" x2="648.91" y2="671.76"/>
  <line class="st3" x1="648.91" y1="669.4" x2="648.91" y2="667.04"/>
  <line class="st3" x1="648.91" y1="664.67" x2="648.91" y2="663.32"/>
  <rect class="st20" x="400.62" y="830.47" width="49.65" height="47.59"/>
  <line class="st3" x1="450.27" y1="878.06" x2="446.9" y2="878.06"/>
  <line class="st3" x1="444.53" y1="878.06" x2="442.17" y2="878.06"/>
  <line class="st3" x1="439.81" y1="878.06" x2="437.45" y2="878.06"/>
  <line class="st3" x1="435.08" y1="878.06" x2="432.38" y2="878.06"/>
  <line class="st3" x1="430.02" y1="878.06" x2="427.66" y2="878.06"/>
  <line class="st3" x1="425.3" y1="878.06" x2="422.93" y2="878.06"/>
  <line class="st3" x1="420.57" y1="878.06" x2="418.21" y2="878.06"/>
  <line class="st3" x1="415.85" y1="878.06" x2="413.48" y2="878.06"/>
  <line class="st3" x1="411.12" y1="878.06" x2="408.76" y2="878.06"/>
  <line class="st3" x1="406.39" y1="878.06" x2="402.68" y2="878.06"/>
  <line class="st3" x1="402.68" y1="830.47" x2="406.39" y2="830.47"/>
  <line class="st3" x1="408.76" y1="830.47" x2="411.12" y2="830.47"/>
  <line class="st3" x1="413.48" y1="830.47" x2="415.84" y2="830.47"/>
  <line class="st3" x1="418.21" y1="830.47" x2="420.57" y2="830.47"/>
  <line class="st3" x1="422.93" y1="830.47" x2="425.3" y2="830.47"/>
  <line class="st3" x1="427.66" y1="830.47" x2="430.02" y2="830.47"/>
  <line class="st3" x1="432.38" y1="830.47" x2="435.08" y2="830.47"/>
  <line class="st3" x1="437.45" y1="830.47" x2="439.81" y2="830.47"/>
  <line class="st3" x1="442.17" y1="830.47" x2="444.53" y2="830.47"/>
  <line class="st3" x1="446.9" y1="830.47" x2="450.27" y2="830.47"/>
  <line class="st3" x1="450.27" y1="830.47" x2="450.27" y2="831.49"/>
  <line class="st3" x1="450.27" y1="833.85" x2="450.27" y2="836.21"/>
  <line class="st3" x1="450.27" y1="838.57" x2="450.27" y2="840.94"/>
  <line class="st3" x1="450.27" y1="843.64" x2="450.27" y2="846"/>
  <line class="st3" x1="450.27" y1="848.36" x2="450.27" y2="850.72"/>
  <line class="st3" x1="450.27" y1="853.09" x2="450.27" y2="855.45"/>
  <line class="st3" x1="450.27" y1="857.81" x2="450.27" y2="860.17"/>
  <line class="st3" x1="450.27" y1="862.54" x2="450.27" y2="864.9"/>
  <line class="st3" x1="450.27" y1="867.26" x2="450.27" y2="869.63"/>
  <line class="st3" x1="450.27" y1="872.33" x2="450.27" y2="874.69"/>
  <line class="st3" x1="450.27" y1="877.05" x2="450.27" y2="878.06"/>
  <line class="st3" x1="450.27" y1="878.06" x2="446.9" y2="878.06"/>
  <line class="st3" x1="444.53" y1="878.06" x2="442.17" y2="878.06"/>
  <line class="st3" x1="439.81" y1="878.06" x2="437.45" y2="878.06"/>
  <line class="st3" x1="435.08" y1="878.06" x2="432.38" y2="878.06"/>
  <line class="st3" x1="430.02" y1="878.06" x2="427.66" y2="878.06"/>
  <line class="st3" x1="425.3" y1="878.06" x2="422.93" y2="878.06"/>
  <line class="st3" x1="420.57" y1="878.06" x2="418.21" y2="878.06"/>
  <line class="st3" x1="415.85" y1="878.06" x2="413.48" y2="878.06"/>
  <line class="st3" x1="411.12" y1="878.06" x2="408.76" y2="878.06"/>
  <line class="st3" x1="406.39" y1="878.06" x2="402.68" y2="878.06"/>
  <polygon class="st20" points="597.48 641.63 595.74 641.67 593.69 643.02 586.65 651 626.43 686.11 633.47 678.13 634.67 676.04 634.37 674.2 597.48 641.63"/>
  <polygon class="st20" points="563.57 677.14 562.48 679.34 562.86 680.85 599.75 713.42 601.42 713.71 603.34 712.25 626.42 686.1 586.65 650.99 563.57 677.14"/>
  <line class="st3" x1="626.43" y1="686.1" x2="586.65" y2="650.99"/>
  <line class="st3" x1="593.69" y1="643.02" x2="595.74" y2="641.67"/>
  <line class="st3" x1="595.74" y1="641.67" x2="597.48" y2="641.63"/>
  <line class="st3" x1="633.47" y1="678.13" x2="634.67" y2="676.04"/>
  <line class="st3" x1="634.67" y1="676.04" x2="634.37" y2="674.2"/>
  <line class="st3" x1="563.57" y1="677.14" x2="562.48" y2="679.34"/>
  <line class="st3" x1="562.48" y1="679.34" x2="562.86" y2="680.85"/>
  <line class="st3" x1="603.34" y1="712.25" x2="601.42" y2="713.71"/>
  <line class="st3" x1="601.42" y1="713.71" x2="599.75" y2="713.42"/>
  <polyline class="st3" points="603.34 712.25 626.43 686.11 633.47 678.13"/>
  <line class="st3" x1="634.37" y1="674.2" x2="597.48" y2="641.63"/>
  <polyline class="st3" points="593.69 643.02 586.65 650.99 563.57 677.14"/>
  <line class="st3" x1="562.86" y1="680.85" x2="599.75" y2="713.42"/>
  <path class="st3" d="M828.9,738.84h-83.71M745.2,980.51h83.71M745.2,980.51v4.05M745.2,984.56h111.91M857.11,984.39v-249.43M857.11,735.13h-111.91M745.2,735.13v3.72M745.2,738.84h107.86M853.06,739.01v241.5M853.06,980.51h-107.86M519.05,939.67h-119.82M399.23,887.69h119.82M519.05,889.15v50.52M381.68,1096.62h17.55M640.9,645.34v16.2M640.9,661.55h57.72M399.23,661.55h44.55M443.78,661.55v-16.2M698.62,758.75v-97.21M698.62,661.55h-57.72M640.9,661.55v-32.74M640.9,628.81h-1.02M444.8,628.81h-1.01M443.78,628.81v32.74M399.23,661.55v218.38M399.23,879.93h127.58M526.82,1080.76h7.76M606.14,1080.76h92.48M698.62,1080.76v-118.13M698.62,956.88v-1.01M698.62,955.87h32.4M731.02,955.87v-1.02M731.02,841.11v-1.01M731.02,759.77v-1.02M731.02,758.75h-32.4M636.18,619.69h-109.7M526.48,619.69v4.05M526.48,623.74h109.7M636.18,623.74v-4.05M452.22,623.74h65.48M517.7,623.74v-4.05M517.7,619.69h-65.48M452.22,619.69v4.05M636.18,630.83h-109.7M521.08,630.83h-72.23M521.08,630.83h-72.23M448.85,619.02h72.23M526.48,619.02h109.7M452.22,619.02h65.48M521.08,625.43v5.4M448.85,625.43v5.4M452.22,625.43h65.48M448.85,625.43h72.23M636.18,630.83h3.71M639.89,630.83v-11.81M639.89,619.02h-3.71M636.18,619.02v11.81M521.08,630.83h5.4M526.48,630.83v-11.81M526.48,619.02h-8.77M517.7,619.02v6.41M517.7,625.43h3.37M521.08,625.43v5.4M444.8,630.83h4.05M448.85,630.83v-5.4M448.85,625.43h3.38M452.22,625.43v-6.41M452.22,619.02h-7.43M444.8,619.02v11.81M522.77,619.02h-75.27M446.82,619.02h76.28M447.5,619.02h75.27M448.85,619.02h72.23M521.08,619.02h-72.23M523.1,619.02h-76.28M517.7,619.02h-65.48M452.22,619.02h65.48M399.23,879.93v-218.38M381.68,661.55v419.21M399.23,887.69h8.1M407.33,887.69v-7.76M407.33,879.93h-8.1M455.26,887.69h63.79M519.05,879.93h-63.79M455.26,879.93v7.76M455.26,887.69h-47.93M407.33,879.93h47.93M407.33,887.69v-7.76M455.26,879.93v7.76M526.82,939.67v-59.74M526.82,879.93h-7.76"/>
  <path class="st3" d="M447.16,879.93h-1.01M443.45,879.93h-2.36M438.72,879.93h-2.36M434,879.93h-2.36M429.27,879.93h-2.36M424.54,879.93h-2.36M419.82,879.93h-2.7M414.76,879.93h-2.36M410.03,879.93h-2.36M405.31,879.93h-2.36M400.58,879.93h-1.35M399.23,879.93v-1.35M399.23,876.21v-2.36M399.23,871.49v-2.36M399.23,866.76v-2.36M399.23,861.7v-2.36M399.23,856.98v-2.36M399.23,852.25v-2.36M399.23,847.52v-2.36M399.23,842.8v-2.36M399.23,838.07v-2.7M399.23,833.01v-1.01M399.23,1096.62h134.67M607.15,1096.62h91.47M698.62,1080.75h-91.47M533.9,1080.75h.67M606.13,1080.75h1.01M537.28,1014.26l12.82,1.01M550.1,1015.27l12.49,4.05M562.59,1019.32l11.47,6.08M574.07,1025.4l10.13,8.1M584.2,1033.5l8.44,10.13M592.63,1043.63l6.07,11.47M598.71,1055.1l3.71,12.49M602.42,1067.59l1.35,13.16M534.58,1096.62v-15.86M606.13,1080.75v15.86M603.77,1080.75h-66.49M537.28,1080.75v-66.49M533.9,1080.75h.67M606.13,1080.75h1.01M519.05,939.67l-119.82-51.98M399.23,939.67h119.82M519.05,939.67v-51.98M519.05,887.69h-119.82M698.62,661.54v97.21M698.62,758.75h15.86M714.48,955.87h-15.86M698.62,956.88h-55.69M642.92,956.88v5.74M642.92,962.62h55.69M816.41,762.47l-1.35,13.16M815.06,775.63l-3.38,12.49M811.69,788.12l-5.4,11.81M806.29,799.93l-7.76,10.8M798.53,810.73l-9.11,9.45M789.41,820.18l-10.8,7.43M778.61,827.61l-11.81,5.74"/>
  <path class="st3" d="M766.8,833.35l-12.83,3.37M753.97,836.72l-13.16,1.01M740.81,762.47h75.61M736.42,767.19v65.48M736.42,832.67h3.71M740.13,832.67v-65.48M740.13,767.19h-3.71M729,836.05v-72.23M740.81,767.19v65.48M734.4,767.19v65.48M734.4,836.05h-5.4M734.4,763.82h-5.4M734.4,763.82v72.23M729,836.05v4.05M729,840.1h11.81M740.81,840.1v-7.43M740.81,832.67h-6.41M734.4,832.67v3.37M734.4,836.05h-5.4M729,759.77v4.05M729,763.82h5.4M734.4,763.82v3.37M734.4,767.19h6.41M740.81,767.19v-7.43M740.81,759.77h-11.81M740.13,951.15h-3.71M740.13,845.16v105.98M736.42,845.16h3.71M736.42,951.15v-105.98M729,845.16v105.98M740.81,951.15v-105.98M740.81,954.86h-11.81M740.81,951.15v3.71M729,951.15h11.81M729,954.86v-3.71M740.81,845.16h-11.81M740.81,841.11v4.05M729,841.11h11.81M729,845.16v-4.05M692.2,1096.62h-86.07M607.15,1080.76h-1.01M534.58,1080.76h-.68M534.58,1096.62h-152.9M698.62,1011.9v47.59M698.62,963.97v95.52M381.68,887.69v-7.76M526.82,1080.76v-6.75M526.82,1074.01v-8.1M526.82,1065.9h-5.06M526.82,994.35v-54.68"/>
  <path class="st3" d="M521.75,1059.49v-62.78M526.81,1065.9h-5.06M519.05,939.67h-118.14M455.93,1062.53l1.35-12.82M457.29,1049.7l3.71-12.49M461,1037.21l6.07-11.14M467.07,1026.08l8.1-10.13M475.17,1015.95l10.13-8.1M485.3,1007.85l11.14-6.08M496.44,1001.77l12.49-3.71M508.93,998.06l12.83-1.35M520.4,994.35h6.41M521.75,1059.49v3.04M521.75,1062.53h-65.82M521.75,1059.49v-62.78"/>
  <path class="st3" d="M440.41,946.08h-1.69M437.37,946.08h-1.69M440.41,946.08h-4.72M440.41,946.08h-1.69M437.37,946.08h-1.69"/>
  <path class="st3" d="M407.33,946.08h113.07M520.4,946.08v48.26M520.4,1065.91v6.75M521.75,1065.91h-1.35M520.4,1072.66h-113.07M407.33,1072.66v-126.57"/>
  <path class="st3" d="M745.2,1096.62v-140.75M745.2,955.87h-30.72M745.2,758.75v-144.13M745.2,614.63h-30.72M714.48,758.75h30.72M745.2,758.75h-8.78M736.42,758.75v1.01M736.42,840.1v1.01M736.42,954.86v1.01M736.42,955.87h8.78M736.42,955.87v-1.01M736.42,841.11v-1.01M736.42,759.77v-1.01M731.02,758.75h5.4M736.42,955.87h-5.4M443.79,645.34v-30.72M443.79,614.63h-62.11M714.48,614.63h-73.58M640.9,614.63v30.72M640.9,623.41h-1.01M444.79,623.41h-1.01M443.79,628.8v-5.4M640.9,623.41v5.4M640.9,623.41v-8.78M443.79,614.63v8.78M443.79,623.41h1.01M639.89,623.41h1.01M381.68,1096.62v-481.99M745.2,1096.62h-52.99"/>
  <g class="st5">
    <path class="st2" d="M1147.87,579.19h-6.07M1124.24,499.87l-16.2,7.09M1112.43,524.51l-4.39-17.55M1084.75,495.82l27.68,28.69M1084.75,495.82l39.49,4.05M1084.75,495.82l23.29,11.14M1147.87,818.5h-6.07M1147.87,658.84h-6.07M1147.87,738.5h-6.07M1147.87,818.5v-239.31M21.54,1278.21h1183.71"/>
    <path d="M1126.47,1227.3c.43-.28.75-.67.96-1.17.21-.5.32-1.12.32-1.85,0-.58-.11-1.1-.32-1.57-.21-.47-.5-.82-.89-1.07-.38-.25-.78-.37-1.21-.37s-.81.11-1.15.34c-.33.23-.61.58-.82,1.05-.14.33-.32.93-.51,1.8-.19.87-.38,1.42-.57,1.62-.19.21-.42.32-.72.32-.33,0-.62-.15-.85-.45-.23-.3-.36-.77-.36-1.42s.13-1.1.39-1.42c.26-.32.64-.51,1.16-.56l-.08-1.03c-.47.02-.9.15-1.27.4-.37.25-.66.6-.85,1.06-.19.46-.29.99-.29,1.6,0,.55.09,1.05.27,1.49.18.45.45.79.81,1.02.35.23.74.35,1.14.35.37,0,.71-.1,1-.28.3-.19.55-.48.75-.87.16-.3.33-.82.5-1.57.18-.75.31-1.23.39-1.45.13-.34.29-.59.48-.73.19-.15.41-.22.66-.22s.48.08.69.23c.21.15.38.39.49.7.12.31.18.68.18,1.09,0,.46-.08.88-.24,1.25-.16.37-.37.65-.62.82-.26.17-.59.29-.99.34l.09,1.01c.54-.02,1.02-.16,1.45-.45M1127.62,1218.58h-2.79l-1.28-1.33,4.08-2.9v-1.42l-4.8,3.57-3.26-3.41v1.46l4,4.04h-4v1.08h8.06v-1.08Z"/>
    <path d="M1121.95,1209.06h.92v-5.37h-.92v5.37ZM1124.4,1209.06h.92v-5.37h-.92v5.37Z"/>
    <path d="M1126.48,1198.95c.43-.28.75-.67.96-1.17.21-.5.32-1.11.32-1.85,0-.58-.1-1.1-.31-1.57-.21-.47-.51-.82-.89-1.07-.38-.25-.78-.37-1.22-.37s-.81.11-1.14.34c-.33.23-.61.58-.82,1.05-.15.33-.32.93-.51,1.8-.2.88-.39,1.42-.57,1.63-.19.21-.42.31-.71.31-.34,0-.62-.15-.86-.45-.23-.3-.36-.77-.36-1.42s.13-1.1.39-1.42c.26-.32.64-.51,1.15-.56l-.08-1.03c-.47.02-.9.15-1.27.4-.38.25-.66.6-.85,1.07-.19.46-.29.99-.29,1.59,0,.55.09,1.05.28,1.49.18.45.45.79.8,1.02.35.23.73.35,1.14.35.37,0,.71-.1,1-.29.3-.19.55-.48.75-.87.16-.3.32-.83.5-1.57.18-.74.31-1.23.39-1.45.13-.34.29-.59.48-.73.19-.15.41-.22.66-.22s.48.07.69.23c.21.15.38.39.5.7.12.31.18.68.18,1.09,0,.46-.08.88-.24,1.25-.16.37-.37.64-.63.82-.26.17-.59.29-.99.34l.09,1.01c.54-.01,1.02-.16,1.45-.45"/>
    <path d="M1127.62,1190.73h-2.31l-.67-.71,2.98-1.95v-1.23l-3.67,2.48-2.16-2.26v1.29l2.38,2.37h-4.6v1h8.06v-1ZM1127.62,1181.6v-1.04c-.22.12-.46.21-.7.25-.25.04-.83.07-1.75.07h-1.32c-.44,0-.74.02-.91.05-.27.06-.49.16-.67.31-.18.15-.33.38-.44.69-.12.31-.18.72-.18,1.23s.07.95.21,1.33c.14.38.33.68.59.88.26.2.59.35,1,.44l.13-.98c-.42-.11-.7-.27-.87-.5-.16-.22-.25-.57-.25-1.04,0-.5.11-.88.34-1.14.16-.19.45-.28.85-.28.03,0,.12,0,.26,0,.13.38.25.97.34,1.78.05.4.09.69.15.89.07.27.18.5.32.72.14.21.33.38.57.52.24.13.5.2.78.2.49,0,.89-.17,1.2-.52.31-.35.47-.84.47-1.49,0-.39-.07-.76-.19-1.1-.13-.34-.35-.7-.66-1.07.27-.03.51-.1.72-.2M1125.05,1181.89c.44,0,.77.05.99.16.29.14.52.36.68.66.17.3.25.64.25,1.02s-.09.69-.27.89c-.18.2-.4.3-.66.3-.18,0-.33-.05-.47-.14-.14-.09-.25-.22-.33-.39-.07-.17-.14-.46-.2-.87-.1-.73-.23-1.27-.38-1.63h.36Z"/>
    <path d="M1127.62,1178.57h-2.31l-.67-.71,2.99-1.95v-1.23l-3.67,2.48-2.16-2.25v1.29l2.37,2.37h-4.6v1h8.06v-1ZM1126.77,1172.1c0,.15-.03.26-.07.34-.05.08-.11.14-.19.17-.08.03-.26.05-.55.05h-3.42v-1.01h-.77v1.01h-2.04l.59.99h1.45v.73h.77v-.73h3.36c.59,0,.98-.04,1.17-.12.18-.08.33-.22.45-.42.11-.2.17-.48.17-.84,0-.22-.03-.47-.09-.76l-.88.14c.03.18.04.33.04.44"/>
    <path d="M1140.78,1226.25h-3.66v-3.82h-.95v3.82h-2.5v-4.41h-.95v5.49h8.06v-1.08ZM1139.64,1220.55c.43-.28.74-.67.96-1.17.21-.5.32-1.11.32-1.85,0-.58-.1-1.11-.31-1.57-.21-.46-.51-.82-.89-1.07-.38-.25-.79-.37-1.22-.37s-.81.11-1.14.34c-.33.23-.61.58-.83,1.05-.14.33-.32.93-.51,1.8-.2.88-.39,1.42-.57,1.63-.19.21-.43.31-.72.31-.33,0-.62-.15-.85-.45-.23-.3-.35-.77-.35-1.42s.13-1.1.39-1.42c.26-.32.64-.51,1.15-.56l-.08-1.03c-.47.02-.9.15-1.27.4-.38.25-.66.6-.85,1.07-.19.46-.29.99-.29,1.59,0,.55.09,1.05.27,1.49.19.45.45.79.81,1.02.35.24.73.35,1.14.35.37,0,.7-.1,1-.29.3-.19.55-.48.75-.87.16-.3.32-.83.5-1.57.18-.74.31-1.23.39-1.45.13-.34.29-.59.48-.73.19-.15.41-.22.66-.22s.48.07.69.23c.21.15.38.39.5.7.12.31.18.68.18,1.09,0,.46-.08.88-.24,1.25-.16.37-.37.64-.63.82-.26.17-.59.29-.99.34l.09,1.01c.54-.01,1.02-.16,1.45-.45"/>
    <path d="M1135.12,1210.08h.92v-5.37h-.92v5.37ZM1137.57,1210.08h.92v-5.37h-.92v5.37Z"/>
    <polygon points="1140.78 1198.91 1137.12 1198.91 1137.12 1195.09 1136.17 1195.09 1136.17 1198.91 1133.67 1198.91 1133.67 1194.5 1132.72 1194.5 1132.72 1199.99 1140.78 1199.99 1140.78 1198.91"/>
    <path d="M1140.12,1192.69c.53-.51.79-1.18.79-2,0-.51-.12-.99-.36-1.42-.24-.43-.57-.76-1-.99-.43-.23-1.02-.34-1.77-.34-.93,0-1.65.26-2.18.77-.53.52-.79,1.18-.79,1.99,0,.73.22,1.35.65,1.85.52.61,1.32.91,2.4.91.98,0,1.74-.25,2.26-.76M1136.18,1191.93c-.37-.33-.55-.74-.55-1.24s.18-.9.56-1.23c.37-.33.92-.5,1.64-.5.77,0,1.34.16,1.71.49.38.33.56.74.56,1.24s-.19.91-.56,1.24c-.37.33-.93.49-1.68.49s-1.31-.16-1.68-.49M1140.78,1186.02h-3.05c-.42,0-.81-.06-1.16-.17-.23-.07-.41-.2-.54-.37-.13-.18-.2-.37-.2-.59,0-.24.07-.49.21-.73l-.92-.34c-.21.35-.32.69-.32,1.03,0,.23.07.45.2.64.13.19.41.4.82.63h-.89v.9h5.84v-1Z"/>
    <path d="M1139.81,1179.87c.19.26.29.57.29.94,0,.49-.17.9-.51,1.23-.34.33-.83.51-1.48.55v-4.39c-.11,0-.2,0-.26,0-.96,0-1.71.25-2.24.75-.53.5-.8,1.14-.8,1.93s.27,1.47.81,1.98c.54.51,1.31.77,2.29.77s1.69-.25,2.21-.76c.53-.5.79-1.19.79-2.05,0-.68-.16-1.25-.49-1.69-.33-.44-.79-.74-1.39-.9l-.13,1.03c.42.15.72.36.91.62M1136.08,1182.02c-.31-.31-.46-.7-.46-1.16,0-.51.19-.92.57-1.24.25-.21.61-.33,1.1-.38v3.29c-.51-.03-.91-.21-1.22-.52M1140.44,1176.51c.31-.4.47-.98.47-1.75,0-.46-.08-.88-.24-1.24-.16-.37-.38-.65-.67-.84-.29-.19-.6-.29-.93-.29s-.62.08-.84.24c-.23.16-.4.38-.52.66-.12.28-.27.77-.46,1.48-.13.49-.22.78-.25.88-.07.17-.16.3-.26.38-.1.08-.22.12-.35.12-.2,0-.38-.1-.53-.3-.15-.19-.23-.52-.23-.98,0-.39.08-.69.25-.9.17-.21.4-.34.7-.38l-.13-.97c-.38.06-.68.18-.9.34-.23.17-.4.42-.54.77-.13.35-.2.76-.2,1.22,0,.31.04.59.12.87.08.27.18.48.29.63.14.21.33.37.55.49.22.12.46.18.72.18.29,0,.55-.07.79-.22.23-.15.42-.36.55-.64s.29-.79.48-1.52c.14-.55.25-.89.33-1.02.13-.2.31-.29.53-.29.25,0,.47.11.65.33.19.22.28.56.28,1.02s-.1.81-.31,1.06c-.21.25-.51.41-.9.46l.16.99c.62-.11,1.09-.37,1.4-.77M1132.72,1171.13h8.06v-1h-8.06v1ZM1140.78,1164.44v-1.04c-.22.13-.46.21-.7.25-.24.04-.82.06-1.74.06h-1.32c-.44,0-.75.02-.91.05-.27.06-.5.17-.67.31-.18.15-.33.38-.44.69-.12.31-.18.72-.18,1.23s.07.95.2,1.34c.14.38.33.68.59.88.25.21.59.35,1,.44l.13-.98c-.41-.11-.7-.27-.86-.5-.17-.22-.25-.57-.25-1.04,0-.5.11-.88.33-1.14.17-.19.45-.28.85-.28.04,0,.12,0,.26,0,.13.38.24.97.34,1.78.05.4.1.69.15.89.07.26.18.5.32.72.14.21.33.38.57.52.23.13.5.2.78.2.49,0,.89-.17,1.2-.52s.47-.84.47-1.49c0-.39-.06-.76-.19-1.1-.13-.34-.35-.7-.66-1.07.28-.03.51-.1.72-.2M1138.21,1164.73c.44,0,.77.06.99.16.29.14.52.36.68.66.16.3.25.64.25,1.03s-.09.69-.26.89c-.18.2-.4.3-.66.3-.17,0-.33-.04-.47-.14-.14-.09-.25-.22-.32-.39-.08-.17-.14-.46-.2-.87-.1-.72-.22-1.27-.37-1.63h.36ZM1134.16,1166.82c.2-.19.29-.43.29-.71s-.1-.5-.29-.7c-.19-.2-.43-.3-.71-.3s-.52.1-.71.3c-.2.2-.29.43-.29.7s.1.5.29.7.42.3.69.3c.29,0,.54-.1.74-.3M1133.01,1166.52c-.11-.12-.18-.26-.18-.41s.06-.3.18-.42c.12-.11.26-.17.42-.17s.31.06.42.17c.12.12.18.25.18.42s-.06.29-.18.41c-.12.12-.26.17-.44.17-.16,0-.3-.06-.42-.17M1139.81,1158.66c.19.26.29.57.29.94,0,.49-.17.9-.51,1.23-.34.33-.83.51-1.48.55v-4.4c-.11,0-.2,0-.26,0-.96,0-1.71.25-2.24.75-.53.5-.8,1.15-.8,1.93s.27,1.48.81,1.98c.54.51,1.31.76,2.29.76s1.69-.25,2.21-.76c.53-.5.79-1.19.79-2.05,0-.68-.16-1.25-.49-1.69-.33-.44-.79-.74-1.39-.9l-.13,1.03c.42.15.72.36.91.61M1136.08,1160.8c-.31-.31-.46-.7-.46-1.16,0-.51.19-.92.57-1.24.25-.21.61-.33,1.1-.38v3.29c-.51-.03-.91-.21-1.22-.52"/>
    <path d="M1139.93,1153.87c0,.15-.02.26-.07.34-.05.08-.11.14-.19.17-.08.03-.26.05-.55.05h-3.41v-1.01h-.77v1.01h-2.04l.59,1h1.45v.73h.77v-.73h3.36c.59,0,.98-.04,1.17-.12.19-.08.33-.22.45-.42.12-.2.17-.48.17-.84,0-.22-.03-.47-.09-.75l-.88.14c.03.18.04.33.04.44M1140.44,1149.18c.32-.4.47-.98.47-1.75,0-.46-.08-.88-.24-1.25-.16-.37-.38-.65-.68-.84-.29-.2-.6-.29-.93-.29s-.62.08-.85.24c-.23.16-.4.38-.52.66-.12.28-.27.77-.46,1.48-.14.49-.22.78-.25.88-.07.17-.16.3-.27.38-.1.08-.21.12-.35.12-.2,0-.38-.1-.53-.3s-.23-.52-.23-.98c0-.39.08-.69.25-.9.17-.21.4-.34.7-.38l-.13-.98c-.38.06-.68.18-.9.34-.22.17-.4.43-.54.78-.13.35-.2.76-.2,1.22,0,.31.04.59.12.86.08.27.18.48.29.63.15.21.33.37.55.49.22.12.46.18.72.18.28,0,.55-.07.78-.22.23-.14.42-.36.55-.65.13-.28.29-.79.48-1.52.14-.54.25-.88.34-1.02.13-.19.31-.29.53-.29.25,0,.47.11.65.33.19.22.28.56.28,1.02s-.1.81-.32,1.06c-.21.25-.51.41-.9.46l.15.99c.62-.11,1.09-.36,1.4-.77"/>
    <path d="M1140.78,1142.46h-2.31l-.67-.71,2.98-1.95v-1.23l-3.67,2.48-2.16-2.25v1.29l2.38,2.36h-4.6v1h8.06v-1ZM1140.78,1133.68v-1.04c-.22.12-.46.21-.7.25-.25.04-.83.07-1.75.07h-1.32c-.44,0-.74.02-.91.05-.27.06-.5.16-.67.31-.18.15-.33.38-.45.69-.12.31-.18.72-.18,1.23s.07.95.21,1.33.33.68.59.88c.25.2.59.35,1,.44l.13-.98c-.41-.11-.7-.27-.86-.5-.16-.22-.25-.57-.25-1.04,0-.5.11-.88.33-1.14.17-.19.45-.28.85-.28.04,0,.13,0,.26,0,.14.38.25.97.35,1.78.05.4.09.69.15.89.07.27.18.5.32.72.14.21.33.38.57.52.23.13.49.2.78.2.49,0,.89-.17,1.2-.52.31-.35.47-.84.47-1.49,0-.39-.07-.76-.2-1.1-.13-.34-.35-.7-.66-1.07.27-.03.51-.1.72-.2M1138.21,1133.96c.44,0,.77.05.99.16.29.14.51.36.68.66.17.3.25.64.25,1.02s-.09.69-.27.89c-.18.2-.4.3-.66.3-.17,0-.33-.05-.47-.14-.14-.09-.25-.22-.32-.39-.07-.17-.14-.46-.2-.87-.1-.73-.23-1.27-.38-1.63h.36Z"/>
    <path d="M1140.05,1130.73c.58-.39.86-.94.86-1.64s-.27-1.3-.82-1.8c-.55-.5-1.32-.75-2.32-.75-.42,0-.82.06-1.19.18-.37.12-.68.28-.95.49-.26.21-.47.48-.61.8-.14.32-.22.67-.22,1.03,0,.65.26,1.19.79,1.61h-2.88v1h8.06v-.93h-.73ZM1136.19,1130.26c-.38-.32-.56-.69-.56-1.13s.18-.8.54-1.11c.36-.3.93-.46,1.69-.46s1.3.16,1.68.48c.38.32.56.69.56,1.13,0,.53-.25.96-.76,1.27-.31.19-.82.29-1.52.29s-1.25-.16-1.63-.48"/>
    <path d="M1139.74,819.92c.56-.45.83-1.06.83-1.85,0-.6-.16-1.09-.48-1.48-.31-.39-.76-.68-1.35-.88-.58-.2-1.34-.29-2.29-.29-.8,0-1.44.06-1.91.18-.47.12-.87.29-1.2.5-.33.21-.58.49-.76.81-.18.33-.26.71-.26,1.15,0,.59.16,1.08.47,1.47.31.39.76.69,1.34.88.58.2,1.35.29,2.3.29,1.51,0,2.6-.27,3.27-.8M1133.75,819.18c-.39-.28-.58-.64-.58-1.1s.22-.85.65-1.17c.44-.31,1.32-.47,2.65-.47s2.2.16,2.64.47c.44.31.66.7.66,1.16s-.22.84-.65,1.16c-.44.31-1.32.47-2.64.47s-2.23-.17-2.72-.52M1139.49,666.23c-.18-.11-.36-.25-.53-.42-.18-.17-.52-.55-1.02-1.15-.6-.72-1.07-1.23-1.42-1.54-.35-.31-.67-.53-.98-.66-.31-.13-.63-.2-.95-.2-.64,0-1.17.23-1.6.68-.43.46-.64,1.07-.64,1.86s.2,1.39.6,1.85c.4.46.97.73,1.73.8l.1-1.03c-.5,0-.9-.15-1.19-.44-.29-.29-.43-.68-.43-1.16,0-.46.14-.83.4-1.11.27-.28.6-.43.99-.43s.77.16,1.19.47c.42.31.99.91,1.71,1.79.46.57.87,1.01,1.22,1.31.35.3.71.52,1.07.66.22.08.45.12.69.11v-5.38h-.95v3.99Z"/>
    <path d="M1140.44,660.14h-3.03c-.53,0-.94-.05-1.22-.16-.29-.11-.5-.28-.64-.52-.15-.24-.22-.5-.22-.78,0-.37.11-.64.33-.8.22-.16.55-.24.99-.24h3.79v-1h-3.39c-.6,0-1.04-.14-1.31-.41-.27-.28-.41-.62-.41-1.04,0-.23.05-.43.16-.6.11-.17.25-.29.42-.35.18-.07.46-.1.85-.1h3.68v-1h-4.01c-.66,0-1.16.16-1.48.47-.32.31-.48.76-.48,1.35,0,.75.34,1.35,1.02,1.82-.32.11-.57.31-.75.59-.18.28-.27.64-.27,1.07,0,.39.08.74.26,1.05.17.31.41.55.69.74h-.82v.9h5.84v-1Z"/>
    <path d="M1132.35,741.02v.64c.35.17.71.47,1.08.89.37.42.68.9.94,1.46h.96c-.11-.31-.29-.66-.51-1.05-.23-.39-.46-.7-.68-.95h6.3v-1h-8.09ZM1140.44,737.1h-3.03c-.53,0-.94-.05-1.22-.16-.29-.11-.5-.28-.64-.52-.15-.24-.22-.5-.22-.78,0-.37.11-.63.33-.8.22-.16.55-.24.99-.24h3.79v-1h-3.39c-.6,0-1.04-.14-1.31-.41-.27-.27-.41-.62-.41-1.03,0-.23.05-.43.16-.6.11-.17.25-.29.42-.35.18-.07.46-.1.85-.1h3.68v-.99h-4.01c-.66,0-1.16.16-1.48.47-.32.31-.48.76-.48,1.35,0,.75.34,1.35,1.02,1.82-.32.11-.57.31-.75.59-.18.28-.27.64-.27,1.07,0,.39.08.74.26,1.05.17.31.41.55.69.74h-.82v.89h5.84v-1Z"/>
    <path d="M1140.44,915.85h-6.86l6.86-2.35v-.97l-6.74-2.36h6.74v-1.04h-8.06v1.45l5.61,1.94c.57.2,1,.34,1.29.44-.27.08-.66.21-1.19.39l-5.71,1.92v1.62h8.06v-1.04ZM1140.44,903.82v-1.04c-.23.13-.46.21-.7.25-.24.04-.83.06-1.74.06h-1.32c-.44,0-.74.02-.91.05-.27.06-.49.16-.67.31-.18.15-.33.38-.44.69-.12.31-.18.72-.18,1.23s.07.95.2,1.34c.14.39.34.68.59.88.25.21.59.35,1,.44l.13-.98c-.42-.11-.7-.27-.87-.49-.16-.22-.25-.57-.25-1.04,0-.5.11-.88.34-1.14.16-.19.45-.28.85-.28.03,0,.12,0,.26,0,.13.38.24.97.34,1.78.05.4.1.69.15.89.08.26.18.5.33.72.14.21.33.38.57.51.24.13.5.2.78.2.49,0,.89-.18,1.2-.52.32-.35.47-.85.47-1.49,0-.39-.07-.76-.19-1.1-.13-.34-.35-.7-.66-1.07.27-.03.51-.1.72-.2M1137.88,904.1c.44,0,.77.06.99.16.29.14.52.36.69.66.16.3.25.64.25,1.03s-.09.68-.26.88c-.18.2-.39.3-.66.3-.17,0-.33-.05-.47-.14-.14-.09-.25-.22-.32-.39-.07-.17-.14-.46-.2-.87-.1-.72-.23-1.27-.37-1.63h.36ZM1133.82,906.2c.2-.2.29-.43.29-.71s-.09-.5-.29-.7c-.19-.2-.43-.29-.71-.29s-.52.1-.71.29c-.2.2-.29.43-.29.7s.1.5.29.7c.2.2.42.3.69.3.29,0,.54-.1.73-.29M1132.68,905.89c-.12-.12-.17-.26-.17-.41s.06-.3.17-.42c.12-.11.26-.17.42-.17s.31.06.43.18c.11.12.17.25.17.42s-.06.29-.17.41c-.12.12-.26.18-.44.18-.16,0-.3-.06-.42-.18"/>
    <rect x="1132.38" y="900.48" width="8.06" height="1"/>
    <path d="M1132.35,892.23v.64c.35.17.71.47,1.08.89.37.42.68.9.94,1.46h.96c-.11-.31-.28-.66-.51-1.05s-.46-.7-.68-.95h6.3v-1h-8.09ZM1134.6,889.03h1.13v-1.14h-1.13v1.14ZM1139.32,889.03h1.13v-1.14h-1.13v1.14Z"/>
    <path d="M1139.96,885.74c.41-.47.61-1.07.61-1.81,0-.9-.32-1.61-.98-2.14-.53-.43-1.16-.64-1.89-.64s-1.39.24-1.88.73c-.49.49-.73,1.09-.73,1.8,0,.54.17,1.05.5,1.54l-2.16-.44v-3.25h-.94v4.05l4.14.79.12-.94c-.23-.15-.42-.35-.57-.61-.14-.26-.21-.55-.21-.87,0-.52.16-.94.49-1.26.33-.32.77-.48,1.33-.48.59,0,1.07.17,1.43.5.36.33.54.74.54,1.22,0,.4-.13.74-.38,1.03-.25.28-.63.46-1.14.54l.09,1.05c.68-.07,1.22-.34,1.63-.8M1139.74,879.33c.56-.45.83-1.06.83-1.85,0-.6-.16-1.09-.47-1.48-.32-.39-.77-.68-1.35-.88-.58-.2-1.34-.3-2.29-.3-.8,0-1.43.06-1.9.18-.47.12-.87.29-1.2.51-.33.21-.58.49-.76.82-.18.33-.26.71-.26,1.15,0,.59.16,1.08.47,1.47.31.39.76.68,1.34.88.58.2,1.35.3,2.3.3,1.51,0,2.6-.27,3.27-.81M1133.75,878.59c-.38-.27-.58-.64-.58-1.1s.22-.86.66-1.17,1.32-.47,2.64-.47,2.2.15,2.64.47c.44.31.66.7.66,1.16s-.22.84-.66,1.16c-.44.31-1.32.47-2.64.47s-2.23-.17-2.72-.51"/>
    <polygon class="st20" points="1140.44 528.9 1117.83 517.76 1124.58 503.25 1147.53 514.39 1140.44 528.9"/>
    <polygon points="1137.69 523.15 1126.34 517.66 1141.38 515.54 1142.33 513.57 1127.89 506.58 1127 508.42 1138.34 513.91 1123.31 516.03 1122.36 518 1136.8 524.99 1137.69 523.15"/>
    <path d="M1139.95,587.02c.42-.47.63-1.07.63-1.78,0-.79-.25-1.45-.74-1.97-.49-.52-1.08-.77-1.79-.77-.52,0-.95.13-1.3.4-.35.27-.58.64-.68,1.12-.17-.37-.4-.65-.68-.84-.29-.19-.61-.28-.95-.28-.36,0-.71.1-1.04.3-.32.2-.58.49-.77.86-.19.37-.28.78-.28,1.22,0,.64.18,1.18.55,1.62.36.43.88.71,1.54.83l.18-1c-.48-.07-.85-.24-1.09-.5s-.36-.58-.36-.97.12-.71.36-.96c.24-.25.54-.37.9-.37.46,0,.79.17,1.02.51.22.34.33.72.33,1.15,0,.04,0,.09,0,.16l.87.11c-.07-.28-.11-.52-.11-.7,0-.47.15-.85.44-1.15s.67-.45,1.13-.45.87.16,1.2.48c.32.33.48.72.48,1.19,0,.4-.12.73-.37,1.01-.25.27-.65.47-1.21.58l.13,1c.67-.07,1.22-.34,1.64-.8M1140.44,580.48h-3.03c-.53,0-.94-.05-1.22-.16-.29-.1-.5-.28-.64-.52-.15-.24-.22-.5-.22-.78,0-.37.11-.63.33-.8.22-.16.55-.24.99-.24h3.79v-1h-3.39c-.6,0-1.04-.14-1.31-.41-.27-.27-.41-.62-.41-1.03,0-.23.05-.43.16-.6.11-.17.25-.29.42-.35.18-.07.46-.1.85-.1h3.68v-.99h-4.01c-.66,0-1.16.16-1.48.47-.32.31-.48.76-.48,1.35,0,.75.34,1.35,1.02,1.82-.32.11-.57.31-.75.59-.18.28-.27.64-.27,1.07,0,.39.08.74.26,1.05.17.31.41.55.69.74h-.82v.89h5.84v-1Z"/>
    <rect class="st20" x="57.99" y="1154.34" width="18.9" height="102.27"/>
    <path d="M62.23,1249.31c-.53.61-.79,1.38-.79,2.33,0,1.27.46,2.29,1.38,3.04,1.06.86,2.75,1.29,5.07,1.29,2.08,0,3.57-.39,4.48-1.17.91-.78,1.36-1.79,1.36-3.02,0-.73-.17-1.37-.52-1.94s-.84-1.02-1.49-1.34c-.65-.33-1.35-.49-2.1-.49-1.15,0-2.08.35-2.81,1.04-.72.69-1.08,1.54-1.08,2.52,0,.56.13,1.1.39,1.62.26.52.66.95,1.21,1.31-1.21-.01-2.13-.15-2.78-.42-.65-.27-1.14-.63-1.48-1.1-.26-.36-.39-.77-.39-1.24,0-.59.21-1.08.63-1.48.26-.24.68-.43,1.26-.56l-.12-1.47c-.93.12-1.67.49-2.2,1.09M67.74,1253.57c-.48-.47-.72-1.04-.72-1.7s.24-1.23.72-1.68c.48-.45,1.13-.66,1.96-.66s1.55.22,2.05.67c.5.45.76.99.76,1.61,0,.43-.12.84-.37,1.23-.24.39-.59.69-1.06.91-.47.22-.95.32-1.46.32-.77,0-1.4-.23-1.88-.7M71.84,1245.62h1.68v-1.69h-1.68v1.69ZM71.81,1240.96c.64-.42,1.11-1,1.43-1.74s.48-1.65.48-2.74c0-.86-.15-1.63-.47-2.33-.31-.69-.76-1.22-1.32-1.58-.57-.37-1.17-.55-1.81-.55s-1.21.17-1.71.5c-.49.34-.9.85-1.23,1.56-.22.48-.48,1.37-.77,2.67-.29,1.3-.58,2.1-.86,2.41-.28.31-.63.47-1.07.47-.5,0-.92-.22-1.27-.66-.35-.44-.53-1.15-.53-2.11s.19-1.63.58-2.1c.39-.47.96-.75,1.72-.83l-.12-1.53c-.71.03-1.34.23-1.89.59-.56.37-.98.89-1.27,1.58-.29.68-.43,1.47-.43,2.37,0,.81.14,1.55.41,2.21.27.66.67,1.17,1.2,1.51.53.35,1.1.52,1.7.52.56,0,1.05-.14,1.5-.42.44-.28.82-.71,1.12-1.29.24-.44.49-1.22.75-2.33.27-1.11.46-1.83.59-2.15.19-.5.43-.87.71-1.09.28-.22.61-.33.99-.33s.71.12,1.03.34c.31.23.56.58.74,1.04.18.47.27,1.01.27,1.61,0,.69-.12,1.31-.36,1.85-.24.55-.55.96-.93,1.22-.39.26-.88.43-1.48.5l.13,1.5c.8-.02,1.53-.24,2.16-.66M73.52,1223.95v-1.55c-.33.19-.68.31-1.04.37-.36.06-1.23.1-2.61.1h-1.97c-.66,0-1.11.03-1.36.07-.4.09-.74.24-1,.46-.27.22-.49.56-.66,1.03-.17.47-.26,1.07-.26,1.82s.1,1.41.31,1.98c.21.57.5,1.01.88,1.31.38.3.88.52,1.5.65l.2-1.45c-.62-.16-1.05-.41-1.29-.74-.24-.33-.36-.84-.36-1.54,0-.75.17-1.31.5-1.69.25-.28.67-.42,1.27-.42.05,0,.18,0,.39,0,.2.57.37,1.45.51,2.64.07.59.14,1.03.22,1.32.11.4.27.75.48,1.07.21.31.5.57.85.76.35.2.74.29,1.17.29.73,0,1.32-.26,1.8-.77.47-.52.7-1.25.7-2.22,0-.58-.09-1.12-.29-1.63-.19-.51-.52-1.04-.99-1.58.41-.04.77-.14,1.08-.3M69.69,1224.36c.65,0,1.14.08,1.47.24.43.21.77.54,1.02.98.25.45.37.95.37,1.53s-.13,1.01-.39,1.31c-.26.3-.59.45-.98.45-.26,0-.49-.07-.7-.21-.21-.14-.37-.33-.48-.59-.11-.25-.21-.68-.3-1.29-.15-1.08-.34-1.88-.56-2.42h.54ZM61.49,1220.52h12.02v-1.48h-12.02v1.48ZM64.8,1216.25h1.68v-1.69h-1.68v1.69ZM71.84,1216.25h1.68v-1.69h-1.68v1.69ZM62.23,1200.94c-.53.6-.79,1.38-.79,2.33,0,1.27.46,2.29,1.38,3.04,1.06.86,2.75,1.29,5.07,1.29,2.08,0,3.57-.39,4.48-1.17.91-.78,1.36-1.79,1.36-3.02,0-.73-.17-1.37-.52-1.94s-.84-1.02-1.49-1.35c-.65-.33-1.35-.49-2.1-.49-1.15,0-2.08.35-2.81,1.04-.72.69-1.08,1.53-1.08,2.52,0,.57.13,1.11.39,1.62.26.52.66.95,1.21,1.31-1.21,0-2.13-.15-2.78-.42-.65-.27-1.14-.64-1.48-1.11-.26-.35-.39-.77-.39-1.24,0-.59.21-1.08.63-1.48.26-.24.68-.43,1.26-.56l-.12-1.48c-.93.12-1.67.49-2.2,1.09M67.74,1205.2c-.48-.46-.72-1.03-.72-1.7s.24-1.23.72-1.68c.48-.44,1.13-.66,1.96-.66s1.55.22,2.05.67c.5.45.76.99.76,1.61,0,.43-.12.84-.37,1.23-.24.39-.59.69-1.06.91-.47.22-.95.32-1.46.32-.77,0-1.4-.23-1.88-.7M71.84,1197.24h1.68v-1.69h-1.68v1.69ZM73.52,1188.17c0-.77-.07-1.42-.2-1.95-.14-.53-.33-.97-.6-1.32-.26-.35-.64-.65-1.12-.89-.49-.24-1.01-.36-1.57-.36-.7,0-1.31.2-1.82.59-.51.39-.88.95-1.09,1.68-.28-.56-.64-.99-1.1-1.27-.45-.28-.94-.42-1.45-.42-.55,0-1.08.16-1.59.48-.51.31-.88.75-1.13,1.31-.24.56-.36,1.29-.36,2.22v4.53h12.02v-4.6ZM62.91,1191.18v-2.41c0-.87.06-1.48.17-1.84.11-.35.32-.63.62-.82.3-.19.65-.29,1.05-.29.42,0,.77.1,1.05.31.28.21.48.51.6.92.09.31.14.81.14,1.52v2.61h-3.63ZM67.96,1191.18v-2.79c0-.77.07-1.36.2-1.77.13-.41.37-.73.7-.96.33-.23.72-.35,1.17-.35.38,0,.72.08,1.01.24.29.16.51.36.67.61.15.25.27.56.33.92.04.21.05.57.05,1.09v3h-4.13ZM71.84,1181.15h1.68v-1.69h-1.68v1.69ZM62.23,1170.62c-.53.61-.79,1.39-.79,2.33,0,1.27.46,2.28,1.38,3.04,1.06.86,2.75,1.29,5.07,1.29,2.08,0,3.57-.39,4.48-1.17.91-.78,1.36-1.79,1.36-3.02,0-.73-.17-1.37-.52-1.94-.35-.57-.84-1.02-1.49-1.35-.65-.33-1.35-.49-2.1-.49-1.15,0-2.08.35-2.81,1.04-.72.69-1.08,1.53-1.08,2.52,0,.57.13,1.11.39,1.62.26.52.66.95,1.21,1.31-1.21-.01-2.13-.15-2.78-.42-.65-.27-1.14-.64-1.48-1.1-.26-.36-.39-.77-.39-1.25,0-.59.21-1.08.63-1.48.26-.24.68-.43,1.26-.56l-.12-1.47c-.93.12-1.67.49-2.2,1.09M67.74,1174.88c-.48-.46-.72-1.03-.72-1.7s.24-1.24.72-1.68c.48-.44,1.13-.66,1.96-.66s1.55.22,2.05.67c.5.45.76.99.76,1.61,0,.43-.12.84-.37,1.23-.24.39-.59.69-1.06.91-.47.21-.95.32-1.46.32-.77,0-1.4-.23-1.88-.7M71.84,1166.93h1.68v-1.69h-1.68v1.69ZM61.44,1157.41v.96c.52.26,1.05.69,1.61,1.32.55.62,1.02,1.34,1.41,2.17h1.43c-.17-.46-.43-.98-.76-1.56-.34-.58-.68-1.05-1.02-1.4h9.41v-1.48h-12.08Z"/>
    <rect class="st20" x="79.93" y="1154.34" width="18.9" height="102.27"/>
    <path d="M85,1249.9c.85.75,1.9,1.46,3.15,2.13,1.25.66,2.53,1.18,3.88,1.54,1.34.36,2.48.54,3.43.56v-1.52c-1.2-.09-2.3-.27-3.31-.57-1.43-.41-2.82-.99-4.17-1.75-1.35-.76-2.43-1.52-3.25-2.29h-1.15v7.81h1.42v-5.91ZM93.77,1245.62h1.68v-1.69h-1.68v1.69ZM93.75,1240.96c.64-.42,1.11-1,1.43-1.74s.48-1.65.48-2.74c0-.86-.15-1.63-.47-2.33-.31-.69-.76-1.22-1.32-1.58-.57-.37-1.17-.55-1.81-.55s-1.21.17-1.71.5c-.49.34-.9.85-1.23,1.56-.22.48-.48,1.37-.77,2.67-.29,1.3-.58,2.1-.86,2.41-.28.31-.63.47-1.07.47-.5,0-.92-.22-1.27-.66-.35-.44-.53-1.15-.53-2.11s.2-1.63.58-2.1c.39-.47.96-.75,1.72-.83l-.12-1.53c-.71.03-1.34.23-1.89.59-.56.37-.98.89-1.27,1.58-.29.68-.43,1.47-.43,2.37,0,.81.14,1.55.41,2.21.27.66.67,1.17,1.2,1.51.53.35,1.1.52,1.7.52.56,0,1.05-.14,1.5-.42.44-.28.82-.71,1.12-1.29.24-.44.49-1.22.75-2.33.27-1.11.46-1.83.59-2.15.19-.5.43-.87.71-1.09.28-.22.61-.33.99-.33s.71.12,1.03.34c.31.23.56.58.74,1.04.18.47.27,1.01.27,1.61,0,.69-.12,1.31-.36,1.85-.24.55-.55.96-.93,1.22-.39.26-.88.43-1.48.5l.13,1.5c.8-.02,1.53-.24,2.16-.66M95.45,1223.95v-1.55c-.33.19-.68.31-1.04.37-.36.06-1.23.1-2.61.1h-1.97c-.66,0-1.11.03-1.36.07-.4.09-.74.24-1,.46-.27.22-.49.56-.66,1.03-.17.47-.26,1.07-.26,1.82s.1,1.41.31,1.98c.21.57.5,1.01.88,1.31.38.3.88.52,1.5.65l.2-1.45c-.62-.16-1.05-.41-1.29-.74-.24-.33-.36-.84-.36-1.54,0-.75.17-1.31.5-1.69.25-.28.67-.42,1.27-.42.05,0,.18,0,.39,0,.2.57.37,1.45.51,2.64.07.59.14,1.03.22,1.32.11.4.27.75.48,1.07.21.31.5.57.85.76.35.2.74.29,1.17.29.73,0,1.32-.26,1.8-.77.47-.52.7-1.25.7-2.22,0-.58-.09-1.12-.29-1.63-.19-.51-.52-1.04-.99-1.58.41-.04.77-.14,1.08-.3M91.62,1224.36c.65,0,1.14.08,1.47.24.43.21.77.54,1.02.98.25.45.37.95.37,1.53s-.13,1.01-.39,1.31c-.26.3-.59.45-.98.45-.26,0-.49-.07-.7-.21-.21-.14-.37-.33-.48-.59-.11-.25-.21-.68-.3-1.29-.15-1.08-.34-1.88-.56-2.42h.54ZM83.43,1220.52h12.03v-1.48h-12.03v1.48ZM86.74,1216.25h1.68v-1.69h-1.68v1.69ZM93.77,1216.25h1.68v-1.69h-1.68v1.69ZM84.17,1200.94c-.53.6-.79,1.38-.79,2.33,0,1.27.46,2.29,1.38,3.04,1.06.86,2.75,1.29,5.07,1.29,2.08,0,3.57-.39,4.48-1.17.91-.78,1.36-1.79,1.36-3.02,0-.73-.17-1.37-.52-1.94s-.84-1.02-1.49-1.35c-.65-.33-1.35-.49-2.1-.49-1.15,0-2.08.35-2.81,1.04-.72.69-1.08,1.53-1.08,2.52,0,.57.13,1.11.39,1.62.26.52.66.95,1.2,1.31-1.2,0-2.13-.15-2.78-.42-.65-.27-1.14-.64-1.48-1.11-.26-.35-.39-.77-.39-1.24,0-.59.21-1.08.63-1.48.26-.24.68-.43,1.26-.56l-.11-1.48c-.93.12-1.67.49-2.2,1.09M89.68,1205.2c-.48-.46-.72-1.03-.72-1.7s.24-1.23.72-1.68c.48-.44,1.13-.66,1.96-.66s1.55.22,2.05.67c.5.45.76.99.76,1.61,0,.43-.12.84-.37,1.23-.24.39-.6.69-1.06.91-.47.22-.95.32-1.46.32-.78,0-1.4-.23-1.88-.7M93.77,1197.24h1.68v-1.69h-1.68v1.69ZM95.45,1188.17c0-.77-.07-1.42-.2-1.95-.14-.53-.33-.97-.6-1.32-.26-.35-.64-.65-1.12-.89-.49-.24-1.01-.36-1.57-.36-.7,0-1.31.2-1.82.59-.51.39-.88.95-1.09,1.68-.28-.56-.64-.99-1.1-1.27-.45-.28-.94-.42-1.45-.42-.55,0-1.08.16-1.59.48-.51.31-.88.75-1.13,1.31-.24.56-.36,1.29-.36,2.22v4.53h12.02v-4.6ZM84.85,1191.18v-2.41c0-.87.06-1.48.17-1.84.11-.35.32-.63.62-.82.3-.19.65-.29,1.05-.29.42,0,.77.1,1.05.31.28.21.48.51.6.92.09.31.14.81.14,1.52v2.61h-3.63ZM89.9,1191.18v-2.79c0-.77.07-1.36.2-1.77.13-.41.37-.73.7-.96.33-.23.72-.35,1.17-.35.38,0,.72.08,1.01.24.29.16.51.36.67.61.15.25.27.56.33.92.04.21.05.57.05,1.09v3h-4.13ZM93.77,1181.15h1.68v-1.69h-1.68v1.69ZM85,1171.21c.85.75,1.9,1.46,3.15,2.13,1.25.67,2.53,1.18,3.88,1.53,1.34.36,2.48.54,3.43.56v-1.52c-1.2-.08-2.3-.27-3.31-.57-1.43-.41-2.82-1-4.17-1.75-1.35-.75-2.43-1.51-3.25-2.28h-1.15v7.81h1.42v-5.91ZM93.77,1166.93h1.68v-1.69h-1.68v1.69ZM83.38,1157.41v.96c.52.26,1.05.69,1.61,1.32.55.62,1.02,1.34,1.41,2.17h1.43c-.17-.46-.43-.98-.76-1.56-.34-.58-.68-1.05-1.02-1.4h9.41v-1.48h-12.08Z"/>
    <line class="st3" x1="399.23" y1="887.69" x2="399.23" y2="939.67"/>
    <line class="st3" x1="519.05" y1="887.69" x2="399.23" y2="939.67"/>
  </g>
</svg>