<?xml version="1.0" encoding="UTF-8"?>
<svg id="Layer_1" xmlns="http://www.w3.org/2000/svg" xmlns:xlink="http://www.w3.org/1999/xlink" version="1.1" viewBox="0 0 1200 1697.14">
  <!-- Generator: Adobe Illustrator 29.6.0, SVG Export Plug-In . SVG Version: 2.1.1 Build 207)  -->
  <defs>
    <style>
      .st0, .st1, .st2 {
        fill: none;
      }

      .st1 {
        stroke-width: .14px;
      }

      .st1, .st2 {
        stroke: #000;
        stroke-linecap: round;
        stroke-linejoin: round;
      }

      .st3 {
        clip-path: url(#clippath-11);
      }

      .st4 {
        clip-path: url(#clippath-16);
      }

      .st5 {
        clip-path: url(#clippath-10);
      }

      .st6 {
        clip-path: url(#clippath-15);
      }

      .st7 {
        clip-path: url(#clippath-13);
      }

      .st8 {
        clip-path: url(#clippath-14);
      }

      .st9 {
        clip-path: url(#clippath-12);
      }

      .st10 {
        clip-path: url(#clippath-1);
      }

      .st11 {
        clip-path: url(#clippath-3);
      }

      .st12 {
        clip-path: url(#clippath-4);
      }

      .st13 {
        clip-path: url(#clippath-2);
      }

      .st14 {
        clip-path: url(#clippath-7);
      }

      .st15 {
        clip-path: url(#clippath-6);
      }

      .st16 {
        clip-path: url(#clippath-9);
      }

      .st17 {
        clip-path: url(#clippath-8);
      }

      .st18 {
        clip-path: url(#clippath-5);
      }

      .st19 {
        fill: #fff;
      }

      .st20 {
        fill: #ece9e5;
      }

      .st2 {
        stroke-width: .08px;
      }

      .st21 {
        fill: #302c35;
      }

      .st22 {
        clip-path: url(#clippath);
      }
    </style>
    <clipPath id="clippath">
      <rect class="st0" x="752.79" y="906.77" width="39.98" height="29.16"/>
    </clipPath>
    <clipPath id="clippath-1">
      <rect class="st0" x="212" y="456.14" width="776.01" height="784.87"/>
    </clipPath>
    <clipPath id="clippath-2">
      <rect class="st0" x="212" y="456.14" width="776.01" height="784.87"/>
    </clipPath>
    <clipPath id="clippath-3">
      <rect class="st0" x="837.13" y="835.92" width="37.84" height="28.04"/>
    </clipPath>
    <clipPath id="clippath-4">
      <rect class="st0" x="212" y="456.14" width="776.01" height="784.87"/>
    </clipPath>
    <clipPath id="clippath-5">
      <rect class="st0" x="212" y="456.14" width="776.01" height="784.87"/>
    </clipPath>
    <clipPath id="clippath-6">
      <rect class="st0" x="519.99" y="884.7" width="98.69" height="95.76"/>
    </clipPath>
    <clipPath id="clippath-7">
      <rect class="st0" x="212" y="456.14" width="776.01" height="784.87"/>
    </clipPath>
    <clipPath id="clippath-8">
      <rect class="st0" x="212" y="456.14" width="776.01" height="784.87"/>
    </clipPath>
    <clipPath id="clippath-9">
      <rect class="st0" x="212" y="456.14" width="776.01" height="784.87"/>
    </clipPath>
    <clipPath id="clippath-10">
      <rect class="st0" x="212" y="456.14" width="776.01" height="784.87"/>
    </clipPath>
    <clipPath id="clippath-11">
      <rect class="st0" x="212" y="456.14" width="776.01" height="784.87"/>
    </clipPath>
    <clipPath id="clippath-12">
      <rect class="st0" x="212" y="456.14" width="776.01" height="784.87"/>
    </clipPath>
    <clipPath id="clippath-13">
      <rect class="st0" x="212" y="456.14" width="776.01" height="784.87"/>
    </clipPath>
    <clipPath id="clippath-14">
      <rect class="st0" x="212" y="456.14" width="776.01" height="784.87"/>
    </clipPath>
    <clipPath id="clippath-15">
      <rect class="st0" x="669.08" y="1222.72" width="5.74" height="1.01"/>
    </clipPath>
    <clipPath id="clippath-16">
      <rect class="st0" x="212" y="456.14" width="776.01" height="784.87"/>
    </clipPath>
  </defs>
  <rect class="st20" x="572.43" y="811.95" width="330.89" height="280.15"/>
  <rect class="st20" x="421.67" y="811.8" width="272.72" height="389.65"/>
  <rect class="st20" x="317.71" y="490.96" width="150.54" height="574.14"/>
  <rect class="st19" x="426.06" y="866.73" width="11.48" height="181.47"/>
  <rect class="st19" x="686.77" y="1044.97" width="99.02" height="56.37"/>
  <g class="st22">
    <path class="st19" d="M752.81,906.77c7.85,0,15.71,0,23.56,0,9.08,0,16.4,6.53,16.4,14.58-.01,8.06-7.35,14.57-16.42,14.56-7.85,0-15.7,0-23.56-.02,0-9.71.01-19.43.02-29.14"/>
  </g>
  <g class="st10">
    <path class="st2" d="M752.81,906.77c7.85,0,15.71,0,23.56,0,9.08,0,16.4,6.53,16.4,14.58-.01,8.06-7.35,14.57-16.42,14.56-7.85,0-15.7,0-23.56-.02,0-9.71.01-19.43.02-29.14Z"/>
  </g>
  <rect class="st19" x="752.82" y="835.91" width="64.44" height="63.71"/>
  <polyline class="st2" points="752.82 835.91 817.26 835.91 817.26 842.21"/>
  <line class="st2" x1="752.82" y1="835.91" x2="752.82" y2="899.11"/>
  <line class="st2" x1="753.88" y1="899.62" x2="816.69" y2="899.62"/>
  <polyline class="st2" points="753.88 899.62 752.82 899.62 752.82 899.11"/>
  <polyline class="st2" points="817.26 898.67 817.26 899.62 816.7 899.62"/>
  <line class="st2" x1="817.26" y1="898.67" x2="817.26" y2="842.21"/>
  <line class="st2" x1="752.82" y1="866.8" x2="770.72" y2="866.8"/>
  <g class="st13">
    <path class="st2" d="M770.63,862.88c-2.21,0-4.01,1.79-4.01,4.01s1.8,4.01,4.01,4.01,4.01-1.79,4.01-4.01-1.8-4.01-4.01-4.01Z"/>
    <path class="st2" d="M770.63,862.88c-2.21,0-4.01,1.79-4.01,4.01s1.8,4.01,4.01,4.01,4.01-1.79,4.01-4.01-1.8-4.01-4.01-4.01Z"/>
  </g>
  <g class="st11">
    <path class="st19" d="M837.13,862.88v-26.96h37.84v26.96c0,.61-.36,1.08-.81,1.08h-36.4c-.35,0-.63-.48-.63-1.08M837.77,845.99v15.81c0,.6.36,1.08.81,1.08h34.79c.44,0,.8-.49.8-1.08v-15.81c0-.59-.36-1.08-.8-1.08h-34.79c-.45,0-.81.49-.81,1.08M853.82,840.09c0,1.19.96,2.15,2.15,2.15s2.14-.96,2.14-2.15-.96-2.14-2.14-2.14-2.15.95-2.15,2.14"/>
    <path class="st19" d="M837.77,861.8v-15.81c0-.59.36-1.08.81-1.08h34.79c.44,0,.8.49.8,1.08v15.81c0,.6-.36,1.08-.8,1.08h-34.79c-.45,0-.81-.49-.81-1.08M853.11,854.17c0,1.58,1.29,2.86,2.86,2.86s2.85-1.28,2.85-2.86-1.28-2.85-2.85-2.85-2.86,1.27-2.86,2.85"/>
    <path class="st19" d="M855.97,857.03c-1.58,0-2.86-1.28-2.86-2.86s1.29-2.85,2.86-2.85,2.85,1.27,2.85,2.85-1.28,2.86-2.85,2.86M854.43,854.17c0,.86.69,1.54,1.54,1.54s1.54-.68,1.54-1.54-.69-1.53-1.54-1.53-1.54.68-1.54,1.53"/>
    <path class="st19" d="M855.97,842.25c-1.19,0-2.15-.96-2.15-2.15s.96-2.15,2.15-2.15,2.14.95,2.14,2.15-.97,2.15-2.14,2.15"/>
    <path class="st19" d="M855.97,855.71c-.85,0-1.54-.68-1.54-1.54s.69-1.53,1.54-1.53,1.54.68,1.54,1.53-.69,1.54-1.54,1.54"/>
  </g>
  <g class="st12">
    <path class="st2" d="M858.11,840.09c0,1.19-.96,2.15-2.14,2.15s-2.15-.96-2.15-2.15.96-2.14,2.15-2.14,2.14.95,2.14,2.14Z"/>
    <path class="st2" d="M858.83,854.17c0,1.58-1.28,2.86-2.85,2.86s-2.86-1.28-2.86-2.86,1.29-2.85,2.86-2.85,2.85,1.27,2.85,2.85Z"/>
    <path class="st2" d="M857.51,854.17c0,.86-.69,1.54-1.54,1.54s-1.54-.68-1.54-1.54.69-1.53,1.54-1.53,1.54.68,1.54,1.53Z"/>
    <path class="st2" d="M837.77,845.99v15.81c0,.6.36,1.08.81,1.08h34.79c.44,0,.8-.49.8-1.08v-15.81c0-.59-.36-1.08-.8-1.08h-34.79c-.45,0-.81.49-.81,1.08Z"/>
  </g>
  <line class="st2" x1="874.98" y1="844.24" x2="874.98" y2="835.92"/>
  <g class="st18">
    <path class="st2" d="M837.13,835.92v26.96c0,.6.28,1.08.63,1.08h36.4c.45,0,.81-.48.81-1.08v-8.54"/>
  </g>
  <line class="st2" x1="874.98" y1="844.24" x2="874.98" y2="854.33"/>
  <line class="st2" x1="874.98" y1="835.92" x2="837.14" y2="835.92"/>
  <line class="st2" x1="763.8" y1="1073.93" x2="763.8" y2="1083.74"/>
  <rect class="st2" x="688.65" y="1045" width="97.08" height="47.1"/>
  <line class="st2" x1="707" y1="1076.45" x2="697.41" y2="1076.45"/>
  <line class="st2" x1="707" y1="1058.42" x2="697.41" y2="1058.42"/>
  <line class="st2" x1="702.27" y1="1063.15" x2="702.27" y2="1053.56"/>
  <line class="st2" x1="702.27" y1="1081.31" x2="702.27" y2="1071.72"/>
  <rect class="st2" x="691.4" y="1049.34" width="21.1" height="36.19"/>
  <rect class="st2" x="751.66" y="1055.85" width="24.41" height="24.41"/>
  <rect class="st2" x="745.46" y="1049.78" width="36.68" height="36.54"/>
  <polygon class="st19" points="650.36 1078.52 652.01 1094.63 670.5 1094.63 673.86 1095.98 675.2 1098.66 682.59 1098.66 682.59 1078.52 650.36 1078.52"/>
  <polygon class="st19" points="524.13 1078.52 524.13 1189.3 661.77 1189.3 660.18 1173.89 652.01 1094.63 650.36 1078.52 524.13 1078.52"/>
  <polygon class="st19" points="652.01 1094.63 670.5 1094.63 673.86 1095.98 675.2 1098.66 675.2 1169.16 673.86 1172.52 670.5 1173.86 660.43 1173.86 660.18 1173.89 652.01 1094.63"/>
  <polygon class="st19" points="675.2 1098.66 675.2 1169.17 673.86 1172.52 670.5 1173.86 660.43 1173.86 660.17 1173.89 661.77 1189.31 682.58 1189.31 682.58 1098.66 675.2 1098.66"/>
  <line class="st2" x1="670.5" y1="1094.63" x2="673.86" y2="1095.98"/>
  <line class="st2" x1="673.86" y1="1095.98" x2="675.2" y2="1098.66"/>
  <polyline class="st2" points="670.5 1094.63 652.01 1094.63 651.7 1094.63"/>
  <line class="st2" x1="670.5" y1="1173.86" x2="673.86" y2="1172.52"/>
  <line class="st2" x1="673.86" y1="1172.52" x2="675.2" y2="1169.16"/>
  <line class="st2" x1="670.5" y1="1173.86" x2="660.43" y2="1173.86"/>
  <line class="st2" x1="675.2" y1="1098.66" x2="675.2" y2="1169.16"/>
  <polyline class="st2" points="661.77 1189.31 660.18 1173.89 652.01 1094.63 650.36 1078.52"/>
  <polyline class="st2" points="524.12 1189.31 661.77 1189.31 682.58 1189.31"/>
  <line class="st2" x1="524.12" y1="1078.52" x2="524.12" y2="1189.31"/>
  <polyline class="st2" points="524.12 1078.52 650.36 1078.52 682.58 1078.52"/>
  <polyline class="st2" points="682.58 1189.31 682.58 1098.66 682.58 1078.52"/>
  <g class="st15">
    <path class="st19" d="M618.68,906.54c0,.42-.42.42-.42,0-.42,0-.42-.42-.84-.42,0-.42-.42-.42-.42-.84-.42-.84-.84-2.1-1.26-3.36-.42-.84-1.68-1.26-2.52-.84-.42,0-.84.42-.42.84,1.24,4.97.85,9.94-1.18,14.1-2.21-5.27-5.48-10.07-9.74-14.1-4.17-4.38-9.24-7.74-14.76-9.94l.05-.14c4.62-1.68,9.66-2.1,14.28-.84.42,0,.84-.42.84-.84.42-.84,0-1.68-.84-2.52-.84-.42-2.11-.84-3.37-.84q-.42-.42-.42-.84c-.42,0-.42-.42-.84-.42v-.84c11.34,2.1,20.16,10.49,21.84,21.84"/>
    <path class="st19" d="M618.26,958.63c0-.43.42,0,.42,0-1.68,11.33-10.49,19.73-21.84,21.84v-.84c.42,0,.42-.42.84-.42q0-.42.42-.85c1.26,0,2.53-.42,3.37-.84.84-.84,1.26-1.68.84-2.52,0-.42-.42-.84-.84-.84-4.63,1.26-9.67,1.26-14.28-.84l-.06-.14c5.51-2.2,10.59-5.55,14.76-9.93,4.25-4.04,7.53-8.83,9.74-14.11,2.02,4.16,2.41,9.13,1.17,14.11-.42.42,0,.84.42.84.84.42,2.1,0,2.52-.84.42-1.26.84-2.52,1.26-3.36,0-.42.42-.42.42-.84.42,0,.42-.42.84-.42"/>
    <path class="st19" d="M611.63,916.03c2.15,5.14,3.28,10.75,3.28,16.55s-1.13,11.41-3.28,16.55c-2.21,5.28-5.48,10.07-9.74,14.11-4.17,4.39-9.24,7.74-14.76,9.94-5.06,2.02-10.49,3.07-15.91,3.07-6.99,0-13.67-1.63-19.7-4.71-4.13-2.1-7.96-4.89-11.37-8.31-5.35-5.35-9.19-12.01-11.14-19.38-.96-3.62-1.46-7.41-1.46-11.29s.5-7.66,1.46-11.28c1.95-7.36,5.79-14.03,11.14-19.38,3.41-3.41,7.24-6.2,11.37-8.31,6.04-3.08,12.72-4.71,19.7-4.71,5.42,0,10.85,1.06,15.91,3.08,5.51,2.2,10.59,5.56,14.76,9.94,4.26,4.04,7.53,8.83,9.74,14.1"/>
    <path class="st19" d="M551.49,893.52l.04.09c-4.13,2.11-7.96,4.9-11.37,8.32-5.36,5.35-9.19,12.01-11.14,19.38l-.2-.06c-3.36-5.05-4.62-11.77-2.94-17.64.42-.42,0-.84-.42-.84-.84-.42-2.1,0-2.52.84-.42,1.26-.84,2.1-1.26,3.36q0,.42-.42.84s-.42.42-.84.42h-.42c1.68-11.34,10.49-20.16,21.84-21.84v.84l-.42.42q-.42.42-.84.42c-1.27.42-2.53.84-3.37,1.26-.84.42-1.26,1.68-.84,2.52,0,.42.42.84.84.84,4.63-1.68,9.67-1.26,14.28.84"/>
    <path class="st19" d="M551.52,971.55l-.04.09c-4.62,2.1-9.65,2.52-14.28.84-.42,0-.84.42-.84.84-.42.84,0,2.1.84,2.52s2.1.84,3.37,1.26q.42,0,.84.42s.42.42.42.84v.43c-11.34-1.69-20.16-10.5-21.84-21.85h.42c.42,0,.84.42.84.42q.42.42.42.84c.42,1.27.84,2.11,1.26,3.37.42.84,1.68,1.26,2.52.84.42,0,.84-.42.42-.84-1.68-5.89-.42-12.61,2.94-17.64l.2-.06c1.95,7.36,5.78,14.02,11.14,19.38,3.42,3.41,7.24,6.2,11.37,8.3"/>
  </g>
  <g class="st14">
    <path class="st2" d="M598.1,978.36q-.42.43-.42.85"/>
    <path class="st2" d="M611.63,949.13c2.15-5.14,3.28-10.74,3.28-16.55s-1.13-11.41-3.28-16.55c-2.21-5.27-5.48-10.07-9.74-14.1-4.17-4.39-9.24-7.75-14.76-9.95-5.06-2.02-10.49-3.08-15.91-3.08-6.99,0-13.67,1.63-19.7,4.71-4.13,2.11-7.96,4.9-11.37,8.32-5.35,5.34-9.19,12.01-11.14,19.38-.96,3.62-1.46,7.4-1.46,11.28s.5,7.67,1.46,11.29c1.95,7.36,5.79,14.02,11.14,19.38,3.41,3.41,7.24,6.2,11.37,8.3,6.04,3.08,12.72,4.71,19.7,4.71,5.42,0,10.85-1.05,15.91-3.08,5.51-2.2,10.59-5.55,14.76-9.93,4.26-4.04,7.53-8.83,9.74-14.11Z"/>
    <path class="st2" d="M618.68,906.54c-1.68-11.34-10.49-19.74-21.84-21.84"/>
    <path class="st2" d="M611.55,916.2c.03-.06.06-.11.09-.17,2.02-4.16,2.41-9.13,1.17-14.1"/>
    <path class="st2" d="M613.22,901.09c-.42,0-.84.42-.42.84"/>
    <path class="st2" d="M617,905.29c-.42-.84-.84-2.1-1.26-3.36"/>
    <path class="st2" d="M615.74,901.93c-.42-.84-1.68-1.26-2.52-.84"/>
    <path class="st2" d="M618.26,906.54c0,.42.42.42.42,0"/>
    <path class="st2" d="M617.42,906.12c.42,0,.42.42.84.42"/>
    <path class="st2" d="M617,905.29c0,.42.42.42.42.84"/>
    <path class="st2" d="M601.47,891c.42,0,.84-.42.84-.84"/>
    <path class="st2" d="M601.47,887.64c-.84-.42-2.11-.84-3.37-.84"/>
    <path class="st2" d="M602.31,890.16c.42-.84,0-1.68-.84-2.52"/>
  </g>
  <line class="st2" x1="596.84" y1="884.71" x2="596.84" y2="885.55"/>
  <g class="st17">
    <path class="st2" d="M596.84,885.55c.42,0,.42.42.84.42"/>
    <path class="st2" d="M597.68,885.97q0,.42.42.84"/>
    <path class="st2" d="M601.47,891c-4.63-1.26-9.66-.84-14.28.84"/>
    <path class="st2" d="M541.83,886.38c-11.35,1.68-20.16,10.49-21.84,21.84"/>
    <path class="st2" d="M525.87,903.61c-1.68,5.88-.42,12.59,2.94,17.64"/>
    <path class="st2" d="M525.87,903.61c.42-.42,0-.84-.42-.84"/>
    <path class="st2" d="M522.93,903.61c-.42,1.26-.84,2.1-1.26,3.36"/>
    <path class="st2" d="M525.45,902.77c-.84-.42-2.1,0-2.52.84"/>
  </g>
  <line class="st2" x1="519.99" y1="908.22" x2="520.41" y2="908.22"/>
  <g class="st16">
    <path class="st2" d="M520.41,908.22c.42,0,.84-.42.84-.42"/>
    <path class="st2" d="M521.25,907.8q.42-.42.42-.84"/>
    <path class="st2" d="M536.36,891.84c0,.42.42.84.84.84"/>
    <path class="st2" d="M540.57,888.06c-1.27.42-2.53.84-3.37,1.26"/>
    <path class="st2" d="M537.2,889.32c-.84.42-1.26,1.68-.84,2.52"/>
  </g>
  <line class="st2" x1="541.83" y1="887.22" x2="541.83" y2="886.38"/>
  <line class="st2" x1="541.41" y1="887.64" x2="541.83" y2="887.22"/>
  <g class="st5">
    <path class="st2" d="M540.57,888.06q.42,0,.84-.42"/>
    <path class="st2" d="M551.49,893.52c-4.62-2.1-9.65-2.52-14.28-.84"/>
    <path class="st2" d="M596.84,980.47c11.34-2.11,20.16-10.5,21.84-21.84"/>
    <path class="st2" d="M612.8,963.25c1.24-4.98.85-9.95-1.17-14.11-.03-.06-.06-.11-.09-.17"/>
    <path class="st2" d="M612.8,963.25c-.42.42,0,.84.42.84"/>
    <path class="st2" d="M615.74,963.25c.42-1.26.84-2.52,1.26-3.36"/>
    <path class="st2" d="M613.22,964.08c.84.42,2.1,0,2.52-.84"/>
    <path class="st2" d="M618.68,958.63s-.42-.43-.42,0"/>
    <path class="st2" d="M618.26,958.63c-.42,0-.42.42-.84.42"/>
    <path class="st2" d="M617.42,959.05c0,.42-.42.42-.42.84"/>
    <path class="st2" d="M602.31,975c0-.42-.42-.84-.84-.84"/>
    <path class="st2" d="M598.1,978.36c1.26,0,2.53-.42,3.37-.84"/>
    <path class="st2" d="M601.47,977.52c.84-.84,1.26-1.68.84-2.52"/>
  </g>
  <line class="st2" x1="596.84" y1="979.63" x2="596.84" y2="980.47"/>
  <g class="st3">
    <path class="st2" d="M597.68,979.21c-.42,0-.42.42-.84.42"/>
    <path class="st2" d="M587.19,973.32c4.62,2.1,9.66,2.1,14.28.84"/>
    <path class="st2" d="M519.99,956.94c1.68,11.34,10.49,20.16,21.84,21.85"/>
    <path class="st2" d="M528.81,943.93c-3.36,5.04-4.62,11.75-2.94,17.64"/>
    <path class="st2" d="M525.45,962.41c.42,0,.84-.42.42-.84"/>
    <path class="st2" d="M521.67,958.2c.42,1.27.84,2.11,1.26,3.37"/>
    <path class="st2" d="M522.93,961.57c.42.84,1.68,1.26,2.52.84"/>
  </g>
  <line class="st2" x1="520.41" y1="956.94" x2="519.99" y2="956.94"/>
  <g class="st9">
    <path class="st2" d="M521.25,957.36s-.42-.42-.84-.42"/>
    <path class="st2" d="M521.67,958.2q0-.42-.42-.84"/>
    <path class="st2" d="M537.2,972.48c-.42,0-.84.42-.84.84"/>
    <path class="st2" d="M537.2,975.84c.84.42,2.1.84,3.37,1.26"/>
    <path class="st2" d="M536.36,973.32c-.42.84,0,2.1.84,2.52"/>
  </g>
  <line class="st2" x1="541.83" y1="978.79" x2="541.83" y2="978.36"/>
  <g class="st7">
    <path class="st2" d="M541.83,978.36c0-.42-.42-.84-.42-.84"/>
    <path class="st2" d="M541.41,977.52q-.42-.42-.84-.42"/>
    <path class="st2" d="M537.2,972.48c4.63,1.68,9.67,1.26,14.28-.84"/>
  </g>
  <rect class="st19" x="791.13" y="1044.63" width="98.62" height="50.39"/>
  <line class="st2" x1="791.13" y1="1092.22" x2="791.13" y2="1091.21"/>
  <line class="st2" x1="791.13" y1="1088.85" x2="791.13" y2="1086.48"/>
  <line class="st2" x1="791.13" y1="1083.78" x2="791.13" y2="1081.42"/>
  <line class="st2" x1="791.13" y1="1079.06" x2="791.13" y2="1076.7"/>
  <line class="st2" x1="791.13" y1="1074.33" x2="791.13" y2="1071.97"/>
  <line class="st2" x1="791.13" y1="1069.61" x2="791.13" y2="1067.24"/>
  <line class="st2" x1="791.13" y1="1064.88" x2="791.13" y2="1062.52"/>
  <line class="st2" x1="791.13" y1="1060.16" x2="791.13" y2="1057.79"/>
  <line class="st2" x1="791.13" y1="1055.09" x2="791.13" y2="1052.73"/>
  <line class="st2" x1="791.13" y1="1050.37" x2="791.13" y2="1048.01"/>
  <line class="st2" x1="791.13" y1="1045.64" x2="791.13" y2="1044.63"/>
  <line class="st2" x1="791.13" y1="1044.63" x2="792.48" y2="1044.63"/>
  <line class="st2" x1="794.84" y1="1044.63" x2="797.21" y2="1044.63"/>
  <line class="st2" x1="799.57" y1="1044.63" x2="801.93" y2="1044.63"/>
  <line class="st2" x1="804.29" y1="1044.63" x2="806.66" y2="1044.63"/>
  <line class="st2" x1="809.02" y1="1044.63" x2="811.38" y2="1044.63"/>
  <line class="st2" x1="813.74" y1="1044.63" x2="816.44" y2="1044.63"/>
  <line class="st2" x1="818.81" y1="1044.63" x2="821.17" y2="1044.63"/>
  <line class="st2" x1="823.53" y1="1044.63" x2="825.9" y2="1044.63"/>
  <line class="st2" x1="828.26" y1="1044.63" x2="830.62" y2="1044.63"/>
  <line class="st2" x1="832.98" y1="1044.63" x2="835.35" y2="1044.63"/>
  <line class="st2" x1="837.71" y1="1044.63" x2="839.06" y2="1044.63"/>
  <line class="st2" x1="839.06" y1="1044.63" x2="839.06" y2="1045.64"/>
  <line class="st2" x1="839.06" y1="1048.01" x2="839.06" y2="1050.37"/>
  <line class="st2" x1="839.06" y1="1052.73" x2="839.06" y2="1055.09"/>
  <line class="st2" x1="839.06" y1="1057.79" x2="839.06" y2="1060.16"/>
  <line class="st2" x1="839.06" y1="1062.52" x2="839.06" y2="1064.88"/>
  <line class="st2" x1="839.06" y1="1067.24" x2="839.06" y2="1069.61"/>
  <line class="st2" x1="839.06" y1="1071.97" x2="839.06" y2="1074.33"/>
  <line class="st2" x1="839.06" y1="1076.7" x2="839.06" y2="1079.06"/>
  <line class="st2" x1="839.06" y1="1081.42" x2="839.06" y2="1083.78"/>
  <line class="st2" x1="839.06" y1="1086.48" x2="839.06" y2="1088.85"/>
  <line class="st2" x1="839.06" y1="1091.21" x2="839.06" y2="1092.22"/>
  <line class="st2" x1="886.99" y1="1044.63" x2="885.64" y2="1044.63"/>
  <line class="st2" x1="883.27" y1="1044.63" x2="880.91" y2="1044.63"/>
  <line class="st2" x1="878.55" y1="1044.63" x2="876.19" y2="1044.63"/>
  <line class="st2" x1="873.82" y1="1044.63" x2="871.46" y2="1044.63"/>
  <line class="st2" x1="868.76" y1="1044.63" x2="866.4" y2="1044.63"/>
  <line class="st2" x1="864.04" y1="1044.63" x2="861.67" y2="1044.63"/>
  <line class="st2" x1="859.31" y1="1044.63" x2="856.95" y2="1044.63"/>
  <line class="st2" x1="854.59" y1="1044.63" x2="852.22" y2="1044.63"/>
  <line class="st2" x1="849.86" y1="1044.63" x2="847.5" y2="1044.63"/>
  <line class="st2" x1="845.14" y1="1044.63" x2="842.77" y2="1044.63"/>
  <line class="st2" x1="840.07" y1="1044.63" x2="839.06" y2="1044.63"/>
  <line class="st2" x1="839.06" y1="1044.63" x2="839.06" y2="1045.64"/>
  <line class="st2" x1="839.06" y1="1048.01" x2="839.06" y2="1050.37"/>
  <line class="st2" x1="839.06" y1="1052.73" x2="839.06" y2="1055.09"/>
  <line class="st2" x1="839.06" y1="1057.79" x2="839.06" y2="1060.16"/>
  <line class="st2" x1="839.06" y1="1062.52" x2="839.06" y2="1064.88"/>
  <line class="st2" x1="839.06" y1="1067.24" x2="839.06" y2="1069.61"/>
  <line class="st2" x1="839.06" y1="1071.97" x2="839.06" y2="1074.33"/>
  <line class="st2" x1="839.06" y1="1076.7" x2="839.06" y2="1079.06"/>
  <line class="st2" x1="839.06" y1="1081.42" x2="839.06" y2="1083.78"/>
  <line class="st2" x1="839.06" y1="1086.48" x2="839.06" y2="1088.85"/>
  <line class="st2" x1="839.06" y1="1091.21" x2="839.06" y2="1092.22"/>
  <g class="st8">
    <path class="st19" d="M673.61,1054.42c0,9.7-7.86,17.55-17.55,17.55s-17.55-7.86-17.55-17.55,7.86-17.55,17.55-17.55,17.55,7.85,17.55,17.55"/>
    <path class="st2" d="M673.61,1054.42c0,9.7-7.86,17.55-17.55,17.55s-17.55-7.86-17.55-17.55,7.86-17.55,17.55-17.55,17.55,7.85,17.55,17.55Z"/>
  </g>
  <rect class="st21" x="887.46" y="811.95" width="15.86" height="152.56"/>
  <rect class="st21" x="887.46" y="1035.73" width="15.86" height="68.18"/>
  <rect class="st21" x="468.25" y="811.95" width="419.21" height="15.87"/>
  <rect class="st21" x="421.67" y="490.96" width="46.58" height="381.74"/>
  <rect class="st21" x="317.71" y="490.96" width="4.08" height="574.14"/>
  <rect class="st21" x="320.97" y="490.94" width="131.07" height="4.09"/>
  <rect class="st21" x="320.97" y="1061.03" width="131.07" height="4.09"/>
  <rect class="st21" x="421.67" y="1036.41" width="46.58" height="165.05"/>
  <rect class="st21" x="468.25" y="1189.31" width="226.15" height="12.15"/>
  <rect class="st21" x="682.58" y="1092.1" width="11.81" height="97.21"/>
  <rect class="st21" x="694.39" y="1092.1" width="193.06" height="11.81"/>
  <rect class="st21" x="880.71" y="829.5" width="14.68" height="125.9"/>
  <rect class="st21" x="746.37" y="948.98" width="54.68" height="6.41"/>
  <rect class="st21" x="746.37" y="829.5" width="5.06" height="120.83"/>
  <rect class="st21" x="746.37" y="819.88" width="144.09" height="14.68"/>
  <rect class="st21" x="676.17" y="947.63" width="70.21" height="7.77"/>
  <rect class="st21" x="676.17" y="827.82" width="8.1" height="119.82"/>
  <rect class="st21" x="682.58" y="1029.99" width="6.08" height="62.1"/>
  <rect class="st21" x="751.43" y="834.56" width="1.35" height="115.77"/>
  <rect class="st21" x="871.93" y="948.98" width="19.29" height="6.41"/>
  <rect class="st21" x="879.36" y="834.56" width="1.35" height="115.77"/>
  <rect class="st21" x="751.43" y="834.57" width="127.92" height="1.35"/>
  <rect class="st19" x="669.08" y="1222.72" width="5.4" height="1.01"/>
  <g class="st6">
    <path d="M672.13,1226.35c.1.16.25.28.44.36.18.08.41.12.69.12.22,0,.41-.04.58-.12.17-.08.31-.19.4-.33.09-.14.14-.29.14-.45s-.04-.31-.13-.43c-.09-.13-.21-.23-.39-.31-.12-.05-.35-.12-.67-.19-.33-.07-.53-.14-.6-.21s-.12-.16-.12-.27c0-.12.05-.23.17-.32.11-.09.29-.13.53-.13s.41.05.53.14c.12.1.19.24.21.43l.38-.03c0-.18-.06-.34-.15-.48-.09-.14-.22-.24-.39-.32-.17-.07-.37-.11-.6-.11-.2,0-.39.03-.56.1-.16.07-.29.17-.38.3-.09.13-.13.28-.13.43,0,.14.04.26.1.37.07.11.18.21.33.28.11.06.31.12.59.19.28.07.46.12.54.15.13.05.22.11.27.18.06.07.08.15.08.25s-.03.18-.09.26c-.06.08-.14.14-.26.19-.12.04-.25.07-.4.07-.17,0-.33-.03-.47-.09-.14-.06-.24-.14-.3-.24-.06-.1-.1-.22-.13-.37l-.38.03c0,.2.06.38.17.54"/>
  </g>
  <path class="st2" d="M435.85,1036.4h32.4M468.25,1036.4v152.91M468.25,1189.31h214.33M682.58,1189.31v-97.21M694.39,1092.1h193.07M887.46,1092.1v-56.37M887.46,1033.37v-63.12M887.46,964.51v-9.11M676.17,955.4v-127.58M676.17,827.81h-207.92M468.25,872.7h-32.4M435.85,872.7v1.02M435.85,954.05v1.01M435.85,1035.39v1.01M903.32,963.5v-151.55M887.46,1036.74v55.35M903.32,1103.91v-68.18M887.46,964.51v-1.01M887.46,811.95h-173.15M698.44,811.95h-138.39M544.19,811.95h-75.94M684.27,947.63l62.11-119.82M746.37,827.81h-62.11M452.05,1036.4h-30.38M421.67,1036.4v165.05M421.67,490.96v381.74M421.67,872.7h30.38M430.45,872.7v1.02M430.45,954.05v1.01M430.45,1035.39v1.01M435.85,1036.4h-5.4M430.45,872.7h5.4M421.67,1036.4h8.78M430.45,1036.4v-1.01M430.45,955.06v-1.01M430.45,873.72v-1.02M820.96,966.88l1.35,13.16M822.31,980.04l3.72,12.49M826.03,992.53l6.07,11.47M832.1,1004l8.44,10.13M840.54,1014.13l9.79,8.1M850.33,1022.23l11.81,6.08M862.14,1028.31l12.49,4.05M874.63,1032.35l12.83,1.01M887.46,1035.73h15.86M903.32,964.51h-15.86M887.46,966.88h-66.5M887.46,970.25v-3.37M887.46,963.5v1.01M321.76,495.01v566.04M321.76,1061.05h99.91M421.67,495.01h-99.91M421.67,495.01v-4.05M421.67,490.96h-103.96M317.71,490.96v574.14M317.71,1065.1h103.96M421.67,1065.1v-4.05M421.67,1061.05h-99.91M321.76,1061.05V495.01M321.76,495.01h99.91M452.05,872.7h16.2M468.25,872.7v-44.89M468.25,811.95v-320.99M468.25,1189.31v-152.91M468.25,1036.4h-16.2M421.67,1201.46v-1.69M350.45,1033.03l1.35-13.17M351.8,1019.87l3.37-12.83M355.18,1007.04l5.4-11.81M360.58,995.23l7.76-10.8M368.34,984.43l9.11-9.11M377.45,975.31l10.8-7.43M388.25,967.89l11.82-5.74M400.07,962.15l12.83-3.38M412.89,958.77l13.16-1.01M426.06,1033.03h-75.61M430.45,1027.97v-65.48M430.45,962.49h-4.05M426.39,962.49v65.48M426.39,1027.97h4.05M437.53,959.11v72.23M426.06,1027.97v-65.48M432.13,1027.97v-65.48M432.13,959.11h5.4M432.13,1031.34h5.4M432.13,1031.34v-72.23M437.53,1035.39v-4.05M437.53,1031.34h-5.4M432.13,1031.34v-3.38M432.13,1027.97h-6.08M426.06,1027.97v7.43M426.06,1035.39h11.48M437.53,959.11v-4.05M437.53,955.06h-11.48M426.06,955.06v7.43M426.06,962.49h6.08M432.13,962.49v-3.38M432.13,959.11h5.4M426.39,877.77h4.05M426.39,950v-72.23M430.45,950h-4.05M430.45,877.77v72.23M437.53,950v-72.23M426.06,877.77v72.23M426.06,873.72h11.48M426.06,877.77v-4.05M437.53,877.77h-11.48M437.53,873.72v4.05M426.06,950h11.48M426.06,954.05v-4.05M437.53,954.05h-11.48M437.53,950v4.05M468.25,1201.46h226.14M694.39,1201.46v-12.15M682.58,1189.31h-214.33M682.58,1092.1v97.21M694.39,1189.31v-85.4M694.39,1092.1h-5.74M694.39,1103.91h193.07M887.46,1092.1h-193.07M880.71,955.4h6.75M871.93,955.4h8.78M746.37,955.4h54.68M803.41,950.34h62.78M746.37,827.81v119.82"/>
  <path class="st2" d="M746.37,947.64h-62.11M676.17,947.64v7.77M676.17,955.4h70.21M676.17,827.82v8.1M676.17,835.92h8.1M684.27,835.92v-8.1M676.17,883.84v63.79M684.27,947.64v-63.79M684.27,883.84h-8.1M676.17,883.84v-47.93M684.27,835.92v47.93M676.17,835.92h8.1M684.27,883.84h-8.1M570.86,1189.31h111.72M682.58,1189.31v-159.31M676.17,875.74v1.35M676.17,879.46v2.36M676.17,884.18v2.36M676.17,888.91v2.36M676.17,893.63v2.36M676.17,898.36v2.7M676.17,903.42v2.36M676.17,908.15v2.36M676.17,912.87v2.36M676.17,917.6v2.36M676.17,922.32v1.35M676.17,875.74v-1.01M676.17,872.03v-2.36M676.17,867.3v-2.36M676.17,862.58v-2.36M676.17,857.85v-2.36M676.17,853.13v-2.36M676.17,848.4v-2.36M676.17,843.34v-2.37M676.17,838.62v-2.36M676.17,833.89v-2.36M676.17,829.17v-1.35M676.17,827.82h-1.01M672.79,827.82h-2.36M667.73,827.82h-2.36M663,827.82h-2.36M658.28,827.82h-2.37M653.55,827.82h-2.36M648.82,827.82h-2.36M644.1,827.82h-2.36M639.04,827.82h-2.36M634.31,827.82h-2.36M629.59,827.82h-1.01M869.23,884.52l-12.83,1.35M856.41,885.87l-12.15,3.72M844.25,889.58l-11.47,6.07M832.78,895.66l-10.13,8.1M822.65,903.76l-8.1,10.13M814.55,913.88l-6.08,11.14M808.48,925.02l-3.71,12.49M804.76,937.51l-1.35,12.83M801.05,948.99v6.41M871.93,955.4v-6.41M869.23,950.34v-65.82M866.19,950.34h3.04"/>
  <line class="st2" x1="866.19" y1="950.34" x2="803.41" y2="950.34"/>
  <path class="st2" d="M737.6,1092.1h-47.93M785.52,1092.1h-95.86M688.65,1092.1v-62.11M688.65,1029.99h-6.08M682.58,1029.99v62.11"/>
  <line class="st2" x1="512.47" y1="827.81" x2="576.26" y2="827.81"/>
  <path class="st2" d="M903.32,811.95v152.56M887.46,963.5v1.01M752.78,948.98v-113.07M801.05,948.98h-48.27M879.36,948.98h-7.42M879.36,835.91v113.07M752.78,835.91h126.57"/>
  <path class="st2" d="M468.25,1149.48v39.83M468.25,1189.31h95.52M903.32,1103.91h-208.93M694.39,1103.91v97.55M694.39,1201.46h-272.72M421.67,1201.46v-26.67M468.25,490.96v320.99M468.25,811.95h435.07M413.91,490.96h54.34"/>
  <g class="st4">
    <path class="st1" d="M888.47,1347.27v-6.07M967.79,1323.64l-7.09-16.2M943.15,1311.83l17.55-4.38M971.84,1284.15l-28.69,27.68M971.84,1284.15l-4.05,39.49M971.84,1284.15l-11.14,23.29M649.16,1347.27v-6.07M808.82,1347.27v-6.07M729.16,1347.27v-6.07M649.16,1347.27h239.31M189.45,220.94v1183.71"/>
    <path d="M240.36,1325.86c.28.43.67.75,1.17.97.5.21,1.12.32,1.85.32.58,0,1.1-.11,1.57-.32.46-.21.82-.51,1.07-.9.25-.38.37-.79.37-1.23s-.11-.83-.34-1.16c-.22-.34-.57-.61-1.05-.83-.33-.15-.92-.32-1.8-.52-.88-.2-1.42-.39-1.62-.58-.21-.19-.32-.43-.32-.72,0-.34.15-.63.45-.87.3-.24.77-.36,1.42-.36s1.1.13,1.42.4c.32.26.51.65.56,1.17l1.03-.08c-.02-.48-.15-.91-.4-1.28-.25-.38-.6-.67-1.06-.86-.46-.19-.99-.29-1.6-.29-.55,0-1.04.09-1.49.28-.45.18-.79.46-1.02.82-.23.36-.35.74-.35,1.15,0,.38.09.71.29,1.02.19.3.48.56.87.76.3.16.83.33,1.57.51.75.18,1.23.31,1.45.4.34.13.59.29.73.48.15.19.22.42.22.67s-.08.49-.23.7c-.16.21-.39.38-.7.5-.32.12-.68.18-1.09.18-.46,0-.88-.08-1.25-.24-.37-.16-.64-.37-.82-.63-.18-.26-.29-.59-.34-1.01l-1.02.09c.01.55.16,1.04.45,1.47M249.08,1327.02v-2.83l1.33-1.31,2.9,4.13h1.42l-3.56-4.86,3.41-3.3h-1.46l-4.04,4.04v-4.04h-1.07v8.16h1.07Z"/>
    <path d="M263.96,1321.28h-5.37v.94h5.37v-.94ZM263.96,1323.76h-5.37v.94h5.37v-.94Z"/>
    <path d="M268.71,1325.86c.28.43.67.76,1.17.97.5.21,1.11.32,1.85.32.58,0,1.1-.11,1.56-.32.47-.21.82-.51,1.07-.9s.37-.79.37-1.23-.11-.83-.34-1.16c-.22-.33-.57-.61-1.05-.83-.33-.15-.92-.32-1.8-.52-.87-.2-1.41-.39-1.62-.58-.21-.19-.31-.43-.31-.72,0-.34.15-.63.44-.87.3-.24.77-.36,1.42-.36s1.1.13,1.42.39c.32.26.51.65.56,1.17l1.03-.08c-.02-.48-.15-.91-.4-1.29-.25-.37-.6-.66-1.06-.86-.46-.2-.99-.29-1.6-.29-.55,0-1.05.09-1.49.28-.45.19-.79.46-1.02.82-.23.36-.35.74-.35,1.16,0,.37.1.71.29,1.01.19.31.48.56.87.76.3.16.82.33,1.57.51.75.18,1.23.31,1.45.4.34.13.58.29.73.48.15.19.22.41.22.67s-.08.49-.23.7c-.15.21-.39.38-.7.5-.31.12-.68.18-1.09.18-.46,0-.88-.08-1.24-.24-.37-.16-.64-.37-.82-.63-.18-.26-.29-.59-.34-1l-1.01.09c.01.55.16,1.04.44,1.47"/>
    <path d="M276.94,1327.02v-2.35l.71-.68,1.95,3.02h1.23l-2.48-3.72,2.25-2.19h-1.29l-2.36,2.4v-4.65h-1v8.16h1ZM286.05,1327.02h1.04c-.13-.23-.21-.46-.25-.71-.04-.25-.06-.84-.06-1.77v-1.34c0-.45-.02-.75-.05-.93-.06-.27-.16-.5-.31-.68-.15-.18-.38-.33-.69-.45-.31-.12-.72-.18-1.23-.18s-.95.07-1.33.21c-.38.14-.68.34-.88.59-.2.26-.35.6-.44,1.02l.98.13c.11-.42.27-.71.49-.88.22-.17.57-.24,1.04-.24.5,0,.88.11,1.13.34.19.17.28.46.28.86,0,.04,0,.13,0,.26-.38.13-.97.25-1.78.35-.4.05-.69.1-.89.15-.26.07-.5.18-.72.33-.21.14-.38.33-.51.57-.13.24-.2.5-.2.79,0,.49.17.9.52,1.22.35.32.85.48,1.49.48.39,0,.76-.07,1.1-.2.34-.13.7-.35,1.07-.67.03.28.09.52.2.73M285.77,1324.42c0,.44-.05.77-.16,1-.14.29-.36.52-.66.69-.3.17-.64.25-1.03.25s-.68-.09-.88-.27c-.2-.18-.3-.4-.3-.67,0-.17.05-.33.14-.48.09-.14.23-.25.4-.33.17-.07.46-.14.87-.2.72-.1,1.27-.23,1.63-.38v.37Z"/>
    <path d="M289.09,1327.02v-2.35l.7-.68,1.95,3.02h1.23l-2.48-3.72,2.25-2.2h-1.29l-2.36,2.41v-4.65h-1v8.16h1ZM295.56,1326.16c-.15,0-.26-.03-.34-.07-.08-.05-.14-.11-.17-.19-.03-.08-.05-.27-.05-.55v-3.46h1.01v-.78h-1.01v-2.06l-.99.6v1.46h-.73v.78h.73v3.4c0,.6.04,1,.12,1.18.08.19.22.34.42.45.2.11.48.17.84.17.22,0,.47-.03.75-.09l-.14-.88c-.18.03-.33.04-.44.04"/>
    <path d="M241.41,1340.18v-3.7h3.82v-.97h-3.82v-2.53h4.41v-.96h-5.49v8.16h1.08ZM247.11,1339.03c.28.43.67.76,1.17.97.5.22,1.11.32,1.85.32.58,0,1.1-.11,1.56-.32.47-.21.82-.51,1.07-.89.25-.39.37-.8.37-1.23s-.11-.82-.34-1.16c-.23-.33-.58-.61-1.05-.83-.33-.15-.92-.32-1.8-.52-.87-.2-1.41-.39-1.62-.58-.21-.19-.31-.43-.31-.72,0-.34.15-.63.44-.87.3-.24.77-.36,1.42-.36s1.1.13,1.42.39c.32.26.51.65.56,1.17l1.03-.08c-.02-.48-.15-.91-.4-1.28-.25-.38-.6-.66-1.06-.86-.46-.2-.99-.29-1.6-.29-.55,0-1.05.09-1.49.28-.44.19-.79.46-1.02.82-.23.36-.35.74-.35,1.16,0,.37.1.71.29,1.01.19.3.48.56.87.76.3.16.82.33,1.57.51.75.18,1.23.31,1.45.4.34.13.58.29.73.48.15.19.22.41.22.67s-.08.49-.23.7c-.15.21-.39.38-.7.5-.31.12-.68.18-1.09.18-.46,0-.88-.08-1.25-.24-.37-.16-.64-.37-.82-.64-.18-.26-.29-.59-.34-1l-1.01.09c.01.55.16,1.04.44,1.47"/>
    <path d="M262.96,1334.45h-5.37v.94h5.37v-.94ZM262.96,1336.93h-5.37v.94h5.37v-.94Z"/>
    <polygon points="268.76 1340.18 268.76 1336.47 272.57 1336.47 272.57 1335.51 268.76 1335.51 268.76 1332.98 273.17 1332.98 273.17 1332.02 267.68 1332.02 267.68 1340.18 268.76 1340.18"/>
    <path d="M274.97,1339.52c.51.53,1.17.8,2,.8.51,0,.99-.12,1.42-.36.44-.24.77-.58,1-1.02.23-.43.34-1.03.34-1.8,0-.94-.26-1.67-.77-2.2-.51-.53-1.18-.8-1.99-.8-.73,0-1.35.22-1.85.66-.61.52-.91,1.34-.91,2.43,0,1,.25,1.76.76,2.29M275.73,1335.53c.33-.38.74-.56,1.24-.56s.9.19,1.24.56c.33.38.49.93.49,1.66,0,.77-.16,1.35-.49,1.73s-.74.57-1.24.57-.91-.19-1.24-.56c-.33-.38-.49-.94-.49-1.7s.17-1.32.49-1.7M281.65,1340.18v-3.09c0-.42.06-.81.17-1.17.07-.23.2-.42.37-.55.17-.13.37-.2.59-.2.24,0,.49.07.73.22l.34-.93c-.35-.21-.69-.32-1.03-.32-.23,0-.44.07-.64.2-.19.13-.4.41-.63.83v-.9h-.9v5.91h1Z"/>
    <path d="M287.79,1339.2c-.26.19-.57.29-.94.29-.49,0-.9-.17-1.23-.52-.33-.35-.51-.84-.55-1.49h4.39c0-.12,0-.21,0-.27,0-.98-.25-1.73-.75-2.27-.5-.54-1.14-.81-1.93-.81s-1.48.28-1.99.83c-.51.55-.77,1.32-.77,2.31s.25,1.71.76,2.24c.5.53,1.18.8,2.05.8.69,0,1.25-.17,1.69-.5.44-.33.74-.8.9-1.41l-1.03-.13c-.15.42-.36.73-.62.93M285.64,1335.42c.31-.31.7-.46,1.16-.46.51,0,.92.19,1.24.58.21.25.33.62.37,1.12h-3.29c.04-.52.21-.93.52-1.24M291.16,1339.84c.4.32.98.48,1.75.48.46,0,.88-.08,1.24-.24.37-.16.65-.39.84-.69.19-.29.29-.61.29-.94s-.08-.63-.24-.86c-.16-.23-.38-.4-.66-.53-.28-.12-.77-.27-1.48-.46-.49-.14-.78-.22-.88-.26-.18-.07-.3-.16-.38-.27-.08-.1-.12-.22-.12-.35,0-.21.1-.38.29-.54.2-.15.52-.23.98-.23.39,0,.69.08.9.26.21.17.34.41.39.71l.97-.14c-.06-.38-.18-.69-.35-.92-.16-.23-.42-.41-.77-.54-.35-.14-.76-.2-1.22-.2-.31,0-.6.04-.86.12-.27.08-.48.18-.63.29-.21.15-.37.33-.49.56-.12.22-.18.47-.18.73,0,.29.07.55.22.79s.36.43.64.56c.28.14.79.3,1.52.48.54.14.89.25,1.02.34.2.13.29.31.29.53,0,.25-.11.47-.33.66-.22.19-.56.28-1.02.28s-.81-.11-1.06-.32c-.25-.21-.41-.52-.46-.91l-.99.15c.11.63.37,1.1.77,1.42M297.55,1332.02h-1v8.16h1v-8.16ZM303.24,1340.18h1.05c-.12-.23-.21-.46-.25-.71-.04-.25-.06-.84-.06-1.77v-1.34c0-.45-.02-.75-.05-.92-.06-.28-.16-.5-.31-.68-.15-.18-.38-.33-.69-.45-.31-.12-.72-.18-1.23-.18s-.95.07-1.33.21-.68.34-.88.59c-.2.26-.35.6-.44,1.02l.98.13c.11-.42.27-.71.49-.87.22-.17.57-.25,1.04-.25.5,0,.88.11,1.13.34.19.17.28.45.28.86,0,.04,0,.13,0,.26-.38.14-.97.25-1.78.35-.4.05-.69.1-.89.15-.27.07-.51.18-.72.33s-.38.34-.51.58c-.13.24-.2.5-.2.79,0,.49.17.9.52,1.22.35.32.85.48,1.49.48.39,0,.76-.07,1.1-.2.35-.13.7-.35,1.07-.67.03.28.1.52.2.73M302.96,1337.58c0,.44-.05.78-.16,1-.14.29-.36.52-.66.69-.3.17-.64.25-1.03.25s-.68-.09-.88-.27c-.2-.18-.3-.4-.3-.67,0-.17.05-.33.14-.48.1-.14.23-.25.4-.33.17-.07.46-.14.87-.2.72-.1,1.27-.23,1.63-.38v.37ZM300.86,1333.48c.2.2.43.3.71.3s.5-.1.7-.3c.2-.2.29-.44.29-.73s-.1-.52-.29-.72c-.2-.2-.43-.3-.7-.3s-.5.1-.7.29c-.2.2-.29.43-.29.7,0,.3.1.55.29.74M301.17,1332.32c.12-.12.25-.17.42-.17s.3.06.41.18c.12.12.17.26.17.43s-.06.31-.18.43c-.12.12-.25.18-.41.18s-.3-.06-.42-.18c-.12-.12-.17-.26-.17-.44s.06-.31.17-.42M309.03,1339.2c-.26.19-.57.29-.94.29-.49,0-.9-.17-1.23-.52-.33-.35-.51-.84-.55-1.49h4.39c0-.12,0-.21,0-.27,0-.98-.25-1.73-.75-2.27-.5-.54-1.14-.81-1.93-.81s-1.48.28-1.99.83-.77,1.32-.77,2.31.25,1.71.76,2.24c.51.53,1.19.8,2.05.8.69,0,1.25-.17,1.69-.5.44-.33.74-.8.9-1.41l-1.03-.13c-.15.42-.36.73-.62.93M306.89,1335.42c.31-.31.7-.46,1.15-.46.51,0,.92.19,1.24.58.21.25.33.62.38,1.12h-3.29c.04-.52.21-.93.52-1.24"/>
    <path d="M313.79,1339.32c-.15,0-.26-.02-.34-.07-.08-.05-.14-.11-.17-.19-.04-.08-.06-.27-.06-.55v-3.46h1.01v-.78h-1.01v-2.07l-.99.6v1.46h-.73v.78h.73v3.4c0,.6.04,1,.12,1.18.08.19.22.34.42.45.2.12.48.17.84.17.22,0,.47-.03.75-.09l-.14-.89c-.18.03-.33.04-.44.04M318.5,1339.84c.4.32.98.48,1.75.48.46,0,.87-.08,1.24-.24.36-.16.64-.39.84-.68.2-.29.29-.61.29-.94s-.08-.63-.24-.86c-.16-.23-.38-.4-.66-.52-.28-.12-.77-.28-1.48-.46-.49-.13-.78-.22-.88-.26-.17-.07-.3-.16-.38-.27-.08-.1-.12-.22-.12-.35,0-.21.1-.38.29-.54.2-.15.52-.23.98-.23.39,0,.69.08.9.26.21.17.34.41.38.71l.98-.13c-.06-.38-.18-.69-.34-.91-.17-.23-.42-.41-.77-.54-.35-.14-.76-.2-1.21-.2-.31,0-.6.04-.86.12-.27.08-.48.18-.63.29-.21.15-.37.34-.49.56-.12.22-.18.47-.18.73,0,.29.07.56.22.8.15.24.36.42.64.56.28.14.79.29,1.52.48.54.14.89.25,1.02.34.2.13.3.31.3.53,0,.25-.11.47-.33.66-.22.18-.56.28-1.02.28s-.81-.1-1.06-.32c-.25-.21-.41-.52-.46-.91l-.99.15c.11.63.37,1.1.77,1.42"/>
    <path d="M325.2,1340.18v-2.34l.7-.68,1.95,3.02h1.23l-2.48-3.72,2.25-2.19h-1.29l-2.36,2.4v-4.65h-1v8.16h1ZM333.98,1340.18h1.04c-.13-.23-.21-.46-.25-.71-.04-.24-.06-.83-.06-1.76v-1.34c0-.45-.02-.75-.05-.93-.06-.27-.16-.5-.31-.68-.15-.18-.38-.33-.69-.45-.31-.12-.72-.18-1.22-.18s-.95.07-1.34.21c-.38.14-.68.34-.88.6-.2.26-.35.59-.44,1.01l.98.13c.11-.42.27-.71.49-.87.22-.17.57-.25,1.04-.25.5,0,.88.11,1.13.34.19.17.28.46.28.86,0,.03,0,.12,0,.26-.38.14-.98.25-1.78.35-.4.05-.69.1-.89.15-.26.07-.5.18-.72.33-.21.14-.38.33-.51.58-.13.24-.2.5-.2.79,0,.49.17.9.52,1.22.35.32.85.48,1.49.48.39,0,.76-.07,1.1-.19.34-.13.7-.35,1.07-.67.03.28.09.52.2.73M333.69,1337.58c0,.44-.05.78-.16,1-.14.29-.36.52-.66.69-.3.17-.64.25-1.03.25s-.68-.09-.88-.27c-.2-.18-.3-.4-.3-.66,0-.17.05-.33.14-.48.09-.14.23-.25.4-.33.17-.07.46-.14.87-.2.72-.1,1.27-.23,1.63-.38v.37Z"/>
    <path d="M336.93,1339.44c.4.58.94.87,1.64.87s1.3-.28,1.79-.83c.5-.55.75-1.34.75-2.35,0-.43-.06-.83-.18-1.2-.12-.37-.28-.69-.49-.96-.21-.27-.48-.47-.8-.62-.33-.14-.67-.22-1.03-.22-.65,0-1.19.26-1.61.8v-2.91h-1v8.16h.92v-.74ZM337.4,1335.53c.32-.38.7-.57,1.13-.57s.8.18,1.11.55c.31.37.46.94.46,1.71s-.16,1.32-.48,1.7c-.32.38-.7.57-1.13.57-.53,0-.96-.26-1.28-.77-.19-.31-.29-.83-.29-1.54s.16-1.27.48-1.65"/>
    <path d="M647.74,1339.14c.44.56,1.06.85,1.85.85.59,0,1.09-.16,1.48-.48.39-.32.68-.77.88-1.36.2-.59.29-1.36.29-2.32,0-.81-.06-1.45-.18-1.93-.12-.48-.29-.88-.51-1.21-.21-.33-.48-.59-.81-.76-.33-.18-.71-.27-1.15-.27-.59,0-1.08.16-1.47.48-.39.32-.69.77-.88,1.36-.2.59-.3,1.36-.3,2.33,0,1.53.27,2.64.81,3.32M648.48,1333.06c.27-.39.64-.58,1.1-.58s.86.22,1.17.66c.31.44.47,1.33.47,2.68s-.16,2.23-.47,2.67c-.31.45-.7.66-1.15.66s-.84-.22-1.16-.66c-.31-.45-.47-1.34-.47-2.68s.17-2.26.51-2.76M801.43,1338.88c.11-.18.25-.36.42-.54.17-.18.56-.52,1.15-1.03.72-.61,1.23-1.09,1.54-1.44.31-.35.53-.68.66-1,.13-.31.2-.64.2-.96,0-.64-.22-1.18-.68-1.61-.46-.43-1.07-.65-1.85-.65s-1.39.2-1.85.6c-.46.4-.72.99-.79,1.76l1.03.1c0-.51.15-.91.44-1.2.29-.29.68-.43,1.16-.43.46,0,.82.14,1.11.41.28.28.43.61.43,1.01s-.16.78-.47,1.21-.91,1-1.79,1.73c-.57.46-1,.88-1.3,1.23-.3.36-.52.72-.66,1.09-.08.22-.12.45-.11.69h5.37v-.96h-3.99Z"/>
    <path d="M807.52,1339.84v-3.07c0-.54.05-.95.16-1.24.11-.29.28-.5.52-.65.24-.15.5-.22.78-.22.37,0,.64.11.8.34.17.22.25.56.25,1v3.84h1v-3.43c0-.61.13-1.05.41-1.33.28-.28.62-.42,1.04-.42.23,0,.43.05.6.17.17.1.29.25.35.42.06.18.1.46.1.87v3.72h.99v-4.06c0-.67-.16-1.18-.47-1.5s-.76-.49-1.35-.49c-.75,0-1.35.35-1.82,1.04-.12-.33-.31-.58-.59-.76-.28-.18-.63-.27-1.07-.27-.39,0-.74.09-1.05.27-.31.18-.55.41-.74.7v-.83h-.89v5.91h1Z"/>
    <path d="M726.64,1331.65h-.65c-.17.35-.47.72-.89,1.09-.42.38-.9.69-1.46.96v.97c.31-.11.66-.28,1.05-.52.39-.23.7-.46.94-.69v6.39h1v-8.19ZM730.57,1339.84v-3.07c0-.54.05-.95.16-1.24.11-.29.28-.5.52-.65.24-.15.5-.22.78-.22.37,0,.64.11.8.34.16.22.24.56.24,1v3.84h1v-3.43c0-.61.14-1.05.41-1.33.27-.28.62-.42,1.03-.42.23,0,.43.05.6.17.17.1.29.25.35.42.07.18.1.46.1.87v3.72h.99v-4.06c0-.67-.16-1.18-.47-1.5-.31-.32-.77-.49-1.35-.49-.75,0-1.35.35-1.82,1.04-.12-.33-.31-.58-.59-.76-.28-.18-.63-.27-1.07-.27-.39,0-.74.09-1.05.27-.31.18-.55.41-.74.7v-.83h-.89v5.91h1Z"/>
    <path d="M551.81,1339.84v-6.95l2.35,6.95h.97l2.36-6.83v6.83h1.04v-8.16h-1.45l-1.95,5.68c-.2.57-.34,1.01-.44,1.31-.08-.27-.21-.67-.39-1.21l-1.93-5.78h-1.62v8.16h1.04ZM563.83,1339.84h1.04c-.12-.22-.21-.46-.25-.71-.04-.25-.06-.84-.06-1.77v-1.34c0-.45-.02-.75-.05-.92-.06-.28-.16-.5-.31-.68-.15-.18-.38-.33-.69-.45-.31-.12-.72-.18-1.22-.18s-.95.07-1.34.21c-.38.14-.68.34-.88.6-.2.26-.35.6-.44,1.01l.97.14c.11-.42.27-.71.5-.88.22-.16.57-.25,1.04-.25.5,0,.88.11,1.14.34.19.17.28.45.28.86,0,.04,0,.12,0,.26-.38.13-.98.25-1.78.35-.4.05-.69.1-.89.15-.27.07-.51.18-.72.33-.21.14-.39.34-.52.58-.13.24-.2.5-.2.79,0,.49.18.9.52,1.22.35.32.85.48,1.49.48.39,0,.76-.07,1.1-.19.34-.13.7-.35,1.07-.67.03.28.09.52.2.73M563.55,1337.25c0,.44-.06.77-.16,1-.14.3-.36.53-.66.69-.3.17-.64.26-1.03.26s-.68-.09-.89-.27c-.2-.18-.3-.4-.3-.67,0-.17.05-.33.14-.48.09-.14.22-.25.39-.32.17-.07.46-.14.87-.2.72-.1,1.26-.23,1.63-.38v.37ZM561.46,1333.14c.2.2.43.3.71.3s.5-.1.7-.3c.2-.19.29-.43.29-.72s-.1-.52-.29-.72c-.2-.2-.43-.3-.7-.3s-.51.1-.7.3c-.2.2-.3.43-.3.7,0,.3.1.55.3.74M561.76,1331.98c.12-.12.25-.17.41-.17s.3.06.42.18c.11.12.17.26.17.43s-.06.31-.18.43c-.12.12-.25.18-.42.18s-.29-.06-.41-.18c-.12-.12-.18-.27-.18-.44,0-.16.06-.3.18-.42"/>
    <rect x="566.19" y="1331.68" width="1" height="8.16"/>
    <path d="M575.43,1331.65h-.64c-.17.35-.47.72-.89,1.09-.42.37-.91.69-1.47.96v.97c.31-.11.66-.29,1.05-.52.39-.23.71-.46.95-.69v6.39h1v-8.19ZM579.78,1333.93h-1.14v1.14h1.14v-1.14ZM579.78,1338.7h-1.14v1.14h1.14v-1.14Z"/>
    <path d="M581.92,1339.36c.47.41,1.07.62,1.81.62.9,0,1.61-.33,2.14-.99.43-.54.64-1.18.64-1.91,0-.78-.25-1.41-.73-1.91-.49-.49-1.09-.74-1.79-.74-.54,0-1.05.17-1.54.51l.44-2.19h3.24v-.96h-4.04l-.79,4.19.94.12c.15-.23.35-.43.61-.57.26-.15.55-.22.87-.22.52,0,.94.17,1.26.49.32.33.48.78.48,1.35,0,.6-.16,1.08-.5,1.45-.33.36-.74.55-1.22.55-.4,0-.74-.13-1.02-.39-.28-.26-.47-.64-.54-1.15l-1.05.09c.07.69.33,1.24.8,1.65M588.34,1339.14c.45.56,1.06.85,1.85.85.6,0,1.09-.16,1.48-.48.39-.32.68-.78.88-1.36.2-.59.3-1.36.3-2.32,0-.81-.06-1.45-.18-1.93-.12-.48-.29-.88-.51-1.22-.22-.33-.48-.59-.82-.76-.33-.17-.71-.27-1.15-.27-.59,0-1.08.16-1.47.48-.39.32-.68.77-.88,1.36-.2.59-.3,1.37-.3,2.33,0,1.53.27,2.64.8,3.32M589.08,1333.07c.27-.39.64-.59,1.1-.59s.86.22,1.17.66.47,1.34.47,2.68-.16,2.23-.47,2.67c-.31.45-.7.67-1.16.67s-.85-.22-1.16-.67c-.31-.44-.47-1.33-.47-2.67s.17-2.26.52-2.75"/>
    <polygon class="st19" points="938.76 1339.84 949.9 1317.23 964.42 1323.98 953.28 1346.93 938.76 1339.84"/>
    <polygon points="944.51 1337.09 950 1325.75 952.12 1340.78 954.09 1341.73 961.08 1327.29 959.24 1326.4 953.75 1337.74 951.63 1322.72 949.66 1321.76 942.67 1336.2 944.51 1337.09"/>
    <path d="M880.64,1339.35c.47.43,1.06.64,1.77.64.79,0,1.45-.25,1.97-.74.52-.49.77-1.1.77-1.81,0-.53-.13-.97-.4-1.32-.27-.35-.64-.58-1.12-.69.37-.17.65-.4.84-.69.19-.29.28-.61.28-.96,0-.37-.1-.72-.3-1.05-.2-.33-.48-.59-.86-.78-.38-.19-.78-.28-1.22-.28-.64,0-1.18.18-1.61.55-.43.37-.71.89-.83,1.56l1,.18c.07-.49.24-.86.5-1.1.26-.24.58-.37.97-.37s.71.12.96.36c.25.24.37.55.37.91,0,.47-.17.81-.51,1.03-.34.22-.72.34-1.15.34-.04,0-.1,0-.16-.01l-.11.88c.28-.07.52-.11.7-.11.46,0,.84.15,1.14.45.3.3.45.68.45,1.14,0,.48-.16.89-.49,1.21-.32.33-.72.49-1.19.49-.39,0-.73-.12-1-.38-.27-.25-.47-.66-.59-1.23l-1,.14c.07.68.33,1.23.81,1.66M887.18,1339.84v-3.07c0-.54.05-.95.16-1.24.11-.29.28-.5.52-.65.24-.15.5-.22.78-.22.37,0,.64.11.8.34.17.22.25.56.25,1v3.84h1v-3.43c0-.61.13-1.05.41-1.33.27-.28.62-.42,1.03-.42.23,0,.43.05.6.17.17.1.29.25.35.42.07.18.1.46.1.87v3.72h.99v-4.06c0-.67-.16-1.18-.47-1.5s-.76-.49-1.35-.49c-.75,0-1.35.35-1.82,1.04-.11-.33-.31-.58-.59-.76-.28-.18-.63-.27-1.07-.27-.39,0-.74.09-1.05.27-.3.18-.55.41-.73.7v-.83h-.89v5.91h1Z"/>
    <rect class="st19" x="211.05" y="257.39" width="102.27" height="18.9"/>
    <path d="M217.76,262.47c-.75.86-1.46,1.9-2.13,3.15-.67,1.25-1.18,2.54-1.53,3.88-.36,1.34-.54,2.48-.56,3.43h1.52c.08-1.2.27-2.3.57-3.3.41-1.43.99-2.82,1.75-4.17.76-1.35,1.52-2.43,2.29-3.25v-1.15h-7.81v1.42h5.91ZM223.73,271.24h-1.69v1.68h1.69v-1.68ZM226.7,271.22c.42.64,1,1.12,1.74,1.43.74.32,1.65.48,2.75.48.86,0,1.63-.16,2.32-.47.69-.31,1.21-.75,1.58-1.32.37-.57.55-1.17.55-1.81s-.17-1.22-.5-1.71c-.33-.49-.85-.9-1.55-1.22-.48-.22-1.37-.48-2.67-.77-1.3-.29-2.1-.58-2.41-.86-.31-.28-.47-.63-.47-1.07,0-.5.22-.92.66-1.28s1.15-.53,2.11-.53,1.63.19,2.1.58c.48.39.76.96.84,1.72l1.53-.11c-.03-.71-.23-1.34-.59-1.89-.37-.56-.89-.98-1.58-1.27-.68-.29-1.47-.43-2.37-.43-.81,0-1.55.14-2.21.41-.66.27-1.17.67-1.51,1.2s-.52,1.09-.52,1.7c0,.55.14,1.05.42,1.5.28.45.71.82,1.29,1.12.44.23,1.22.49,2.33.75,1.11.27,1.82.46,2.15.59.5.2.87.43,1.09.71.22.28.33.61.33.99s-.11.72-.34,1.03c-.23.31-.57.56-1.04.74-.47.18-1,.27-1.61.27-.68,0-1.3-.12-1.85-.35-.55-.24-.95-.55-1.21-.94-.26-.39-.43-.88-.5-1.48l-1.51.13c.02.8.24,1.52.66,2.16M243.72,272.92h1.55c-.19-.34-.31-.68-.37-1.04-.07-.36-.1-1.23-.1-2.6v-1.97c0-.65-.02-1.11-.07-1.36-.09-.4-.24-.74-.46-1-.22-.26-.57-.49-1.03-.66-.46-.18-1.07-.26-1.82-.26s-1.41.1-1.98.31c-.57.21-1.01.5-1.31.88-.3.38-.52.88-.65,1.5l1.45.2c.16-.62.4-1.05.74-1.29.33-.25.85-.37,1.54-.37.75,0,1.31.17,1.69.5.28.24.42.67.42,1.27,0,.06,0,.18-.01.38-.56.2-1.45.37-2.64.51-.59.07-1.03.15-1.32.22-.4.11-.75.27-1.07.49-.32.21-.57.49-.77.85-.19.35-.29.74-.29,1.17,0,.73.26,1.32.77,1.79s1.25.7,2.21.7c.58,0,1.13-.09,1.63-.29.51-.19,1.04-.52,1.59-.99.04.41.14.77.29,1.07M243.3,269.09c0,.65-.08,1.14-.24,1.47-.21.43-.53.77-.98,1.02-.44.25-.95.37-1.52.37s-1.01-.13-1.31-.39c-.3-.26-.45-.59-.45-.99,0-.26.07-.49.21-.7.14-.21.33-.37.59-.48.25-.11.68-.21,1.29-.3,1.07-.15,1.88-.34,2.42-.56v.54ZM248.62,260.89h-1.48v12.02h1.48v-12.02ZM253.1,264.21h-1.69v1.68h1.69v-1.68ZM253.1,271.24h-1.69v1.68h1.69v-1.68ZM266.72,261.64c-.61-.53-1.38-.79-2.33-.79-1.27,0-2.29.46-3.04,1.38-.86,1.05-1.29,2.74-1.29,5.07,0,2.08.39,3.57,1.17,4.48.78.9,1.79,1.36,3.02,1.36.72,0,1.37-.17,1.94-.52.57-.34,1.02-.84,1.35-1.49.33-.65.49-1.35.49-2.1,0-1.15-.35-2.09-1.04-2.81-.69-.72-1.53-1.09-2.52-1.09-.57,0-1.11.13-1.62.4-.51.26-.95.66-1.31,1.2.01-1.2.15-2.13.42-2.78.27-.65.64-1.15,1.11-1.48.35-.26.77-.39,1.24-.39.59,0,1.08.21,1.48.63.24.26.43.68.56,1.26l1.47-.11c-.12-.93-.48-1.67-1.09-2.2M262.46,267.14c.47-.48,1.04-.72,1.7-.72s1.24.24,1.68.72c.44.48.67,1.13.67,1.96s-.23,1.55-.68,2.05c-.45.5-.99.76-1.61.76-.43,0-.84-.12-1.23-.36-.39-.25-.69-.6-.91-1.07-.21-.46-.32-.95-.32-1.46,0-.77.23-1.4.7-1.88M272.1,271.24h-1.69v1.68h1.69v-1.68ZM279.49,272.92c.77,0,1.42-.07,1.95-.2.53-.14.97-.34,1.32-.6.35-.26.65-.63.89-1.12.24-.48.36-1.01.36-1.57,0-.7-.2-1.31-.59-1.82s-.96-.88-1.69-1.09c.57-.28.99-.65,1.27-1.1.28-.46.42-.94.42-1.45,0-.55-.16-1.08-.47-1.59s-.75-.88-1.31-1.12c-.56-.24-1.3-.37-2.22-.37h-4.52v12.03h4.6ZM276.48,262.31h2.41c.86,0,1.48.05,1.83.17.36.11.63.32.82.62.19.3.29.65.29,1.05,0,.42-.1.77-.31,1.05-.21.28-.51.48-.92.6-.31.09-.81.14-1.52.14h-2.61v-3.63ZM276.48,267.37h2.79c.77,0,1.36.07,1.76.2.41.13.73.36.96.7.23.33.35.72.35,1.17,0,.38-.08.72-.24,1.01-.16.29-.36.51-.61.67-.25.15-.55.26-.92.33-.21.04-.57.06-1.09.06h-3.01v-4.13ZM288.2,271.24h-1.69v1.68h1.69v-1.68ZM296.45,262.47c-.75.86-1.46,1.9-2.12,3.15-.67,1.25-1.18,2.54-1.54,3.88-.36,1.34-.54,2.48-.56,3.43h1.52c.08-1.2.27-2.3.57-3.3.41-1.43,1-2.82,1.75-4.17.76-1.35,1.52-2.43,2.29-3.25v-1.15h-7.81v1.42h5.91ZM302.42,271.24h-1.69v1.68h1.69v-1.68ZM310.9,272.92v-2.88h1.63v-1.35h-1.63v-7.8h-1.21l-5.51,7.8v1.35h5.23v2.88h1.48ZM305.64,268.69l3.78-5.42v5.42h-3.78Z"/>
    <line class="st2" x1="684.27" y1="827.81" x2="746.37" y2="947.63"/>
  </g>
</svg>