<?xml version="1.0" encoding="UTF-8"?>
<svg id="Layer_1" xmlns="http://www.w3.org/2000/svg" xmlns:xlink="http://www.w3.org/1999/xlink" version="1.1" viewBox="0 0 1200 1697.14">
  <!-- Generator: Adobe Illustrator 29.6.0, SVG Export Plug-In . SVG Version: 2.1.1 Build 207)  -->
  <defs>
    <style>
      .st0, .st1, .st2 {
        fill: none;
      }

      .st1 {
        stroke-width: .14px;
      }

      .st1, .st2 {
        stroke: #000;
        stroke-linecap: round;
        stroke-linejoin: round;
      }

      .st3 {
        clip-path: url(#clippath-17);
      }

      .st4 {
        clip-path: url(#clippath-11);
      }

      .st5 {
        clip-path: url(#clippath-16);
      }

      .st6 {
        clip-path: url(#clippath-10);
      }

      .st7 {
        clip-path: url(#clippath-15);
      }

      .st8 {
        clip-path: url(#clippath-13);
      }

      .st9 {
        clip-path: url(#clippath-14);
      }

      .st10 {
        clip-path: url(#clippath-12);
      }

      .st11 {
        clip-path: url(#clippath-1);
      }

      .st12 {
        clip-path: url(#clippath-3);
      }

      .st13 {
        clip-path: url(#clippath-4);
      }

      .st14 {
        clip-path: url(#clippath-2);
      }

      .st15 {
        clip-path: url(#clippath-7);
      }

      .st16 {
        clip-path: url(#clippath-6);
      }

      .st17 {
        clip-path: url(#clippath-9);
      }

      .st18 {
        clip-path: url(#clippath-8);
      }

      .st19 {
        clip-path: url(#clippath-5);
      }

      .st20 {
        fill: #fff;
      }

      .st21 {
        fill: #ece9e5;
      }

      .st2 {
        stroke-width: .08px;
      }

      .st22 {
        fill: #302c35;
      }

      .st23 {
        clip-path: url(#clippath);
      }
    </style>
    <clipPath id="clippath">
      <rect class="st0" x="751.57" y="1016.64" width="28.61" height="39.22"/>
    </clipPath>
    <clipPath id="clippath-1">
      <rect class="st0" x="150.57" y="441.48" width="784.87" height="814.19"/>
    </clipPath>
    <clipPath id="clippath-2">
      <rect class="st0" x="150.57" y="441.48" width="784.87" height="814.19"/>
    </clipPath>
    <clipPath id="clippath-3">
      <rect class="st0" x="822.99" y="935.17" width="27.51" height="37.12"/>
    </clipPath>
    <clipPath id="clippath-4">
      <rect class="st0" x="150.57" y="441.48" width="784.87" height="814.19"/>
    </clipPath>
    <clipPath id="clippath-5">
      <rect class="st0" x="150.57" y="441.48" width="784.87" height="814.19"/>
    </clipPath>
    <clipPath id="clippath-6">
      <rect class="st0" x="427.93" y="843.58" width="95.76" height="98.7"/>
    </clipPath>
    <clipPath id="clippath-7">
      <rect class="st0" x="150.57" y="441.48" width="784.87" height="814.19"/>
    </clipPath>
    <clipPath id="clippath-8">
      <rect class="st0" x="150.57" y="441.48" width="784.87" height="814.19"/>
    </clipPath>
    <clipPath id="clippath-9">
      <rect class="st0" x="150.57" y="441.48" width="784.87" height="814.19"/>
    </clipPath>
    <clipPath id="clippath-10">
      <rect class="st0" x="150.57" y="441.48" width="784.87" height="814.19"/>
    </clipPath>
    <clipPath id="clippath-11">
      <rect class="st0" x="150.57" y="441.48" width="784.87" height="814.19"/>
    </clipPath>
    <clipPath id="clippath-12">
      <rect class="st0" x="150.57" y="441.48" width="784.87" height="814.19"/>
    </clipPath>
    <clipPath id="clippath-13">
      <rect class="st0" x="150.57" y="441.48" width="784.87" height="814.19"/>
    </clipPath>
    <clipPath id="clippath-14">
      <rect class="st0" x="648.96" y="695.03" width="112.44" height="139.85"/>
    </clipPath>
    <clipPath id="clippath-15">
      <rect class="st0" x="150.57" y="441.48" width="784.87" height="814.19"/>
    </clipPath>
    <clipPath id="clippath-16">
      <rect class="st0" x="150.57" y="441.48" width="784.87" height="814.19"/>
    </clipPath>
    <clipPath id="clippath-17">
      <rect class="st0" x="150.57" y="441.48" width="784.87" height="814.19"/>
    </clipPath>
  </defs>
  <rect class="st21" x="496.25" y="908.52" width="373.98" height="221.59"/>
  <rect class="st21" x="377.11" y="731.49" width="395.92" height="335.84"/>
  <rect class="st21" x="496.25" y="648.12" width="276.77" height="100.81"/>
  <rect class="st21" x="549.1" y="546.4" width="213.46" height="156.03"/>
  <rect class="st20" x="713.28" y="874.94" width="47.59" height="50.97"/>
  <rect class="st20" x="536.68" y="995.77" width="54.08" height="99.75"/>
  <rect class="st20" x="431.11" y="995.43" width="95.86" height="52.22"/>
  <rect class="st20" x="562.58" y="652.51" width="91.27" height="11.81"/>
  <rect class="st20" x="350.95" y="797.6" width="40.33" height="205.36"/>
  <g class="st23">
    <path class="st20" d="M751.57,1055.83c0-7.71,0-15.41.02-23.11,0-8.9,6.4-16.1,14.3-16.09,7.9,0,14.28,7.21,14.28,16.1,0,7.71-.02,15.42-.02,23.12-9.52,0-19.06-.02-28.59-.02"/>
  </g>
  <g class="st11">
    <path class="st2" d="M751.57,1055.83c0-7.71,0-15.41.02-23.11,0-8.9,6.4-16.1,14.3-16.09,7.9,0,14.28,7.21,14.28,16.1,0,7.71-.02,15.42-.02,23.12-9.52,0-19.06-.02-28.59-.02Z"/>
  </g>
  <rect class="st20" x="787.77" y="992.6" width="62.49" height="63.21"/>
  <polyline class="st2" points="787.76 1055.82 787.76 992.61 793.94 992.61"/>
  <line class="st2" x1="787.76" y1="1055.82" x2="849.76" y2="1055.82"/>
  <line class="st2" x1="849.32" y1="992.6" x2="793.94" y2="992.6"/>
  <line class="st2" x1="818.06" y1="1055.82" x2="818.06" y2="1038.26"/>
  <g class="st14">
    <path class="st2" d="M814.21,1038.34c0,2.17,1.76,3.93,3.93,3.93s3.93-1.76,3.93-3.93-1.76-3.93-3.93-3.93-3.93,1.76-3.93,3.93Z"/>
    <path class="st2" d="M814.21,1038.34c0,2.17,1.76,3.93,3.93,3.93s3.93-1.76,3.93-3.93-1.76-3.93-3.93-3.93-3.93,1.76-3.93,3.93Z"/>
  </g>
  <g class="st12">
    <path class="st20" d="M825.13,935.8h15.49c.59,0,1.06.35,1.06.78v34.13c0,.43-.47.78-1.06.78h-15.49c-.6,0-1.07-.35-1.07-.78v-34.13c0-.44.48-.78,1.07-.78M832.6,950.85c-1.55,0-2.8,1.25-2.8,2.8s1.25,2.8,2.8,2.8,2.81-1.25,2.81-2.8-1.26-2.8-2.81-2.8"/>
    <path class="st20" d="M844.3,953.65c0-1.17.94-2.1,2.1-2.1s2.11.94,2.11,2.1-.94,2.1-2.11,2.1-2.1-.93-2.1-2.1"/>
    <path class="st20" d="M831.09,953.65c0-.83.68-1.51,1.51-1.51s1.51.68,1.51,1.51-.67,1.51-1.51,1.51-1.51-.68-1.51-1.51"/>
    <path class="st20" d="M832.6,952.14c-.83,0-1.51.68-1.51,1.51s.68,1.51,1.51,1.51,1.51-.68,1.51-1.51-.68-1.51-1.51-1.51M829.8,953.65c0-1.55,1.25-2.8,2.8-2.8s2.81,1.25,2.81,2.8-1.26,2.8-2.81,2.8-2.8-1.25-2.8-2.8"/>
    <path class="st20" d="M848.51,953.65c0-1.17-.95-2.1-2.11-2.1s-2.1.94-2.1,2.1.95,2.1,2.1,2.1,2.11-.93,2.11-2.1M840.62,935.8h-15.5c-.59,0-1.07.34-1.07.78v34.13c0,.43.48.79,1.07.79h15.5c.59,0,1.06-.36,1.06-.79v-34.13c0-.44-.47-.78-1.06-.78M824.06,935.17h26.45v37.12h-26.45c-.59,0-1.07-.35-1.07-.79v-35.69c0-.36.48-.63,1.07-.63"/>
  </g>
  <g class="st13">
    <path class="st2" d="M846.4,955.75c-1.15,0-2.1-.94-2.1-2.1s.95-2.1,2.1-2.1,2.11.93,2.11,2.1-.94,2.1-2.11,2.1Z"/>
    <path class="st2" d="M832.6,956.45c-1.55,0-2.8-1.25-2.8-2.8s1.25-2.8,2.8-2.8,2.81,1.25,2.81,2.8-1.26,2.8-2.81,2.8Z"/>
    <path class="st2" d="M832.6,955.16c-.83,0-1.51-.68-1.51-1.51s.68-1.51,1.51-1.51,1.51.68,1.51,1.51-.68,1.51-1.51,1.51Z"/>
    <path class="st2" d="M840.62,935.8h-15.5c-.59,0-1.07.34-1.07.78v34.13c0,.43.48.78,1.07.78h15.5c.59,0,1.06-.35,1.06-.78v-34.13c0-.44-.47-.78-1.06-.78Z"/>
  </g>
  <g class="st19">
    <path class="st2" d="M850.51,935.17h-26.45c-.59,0-1.07.28-1.07.63v35.69c0,.44.48.79,1.07.79h8.38"/>
  </g>
  <line class="st2" x1="842.33" y1="972.29" x2="832.44" y2="972.29"/>
  <line class="st2" x1="549.52" y1="1073.53" x2="560.19" y2="1073.53"/>
  <rect class="st2" x="542.98" y="995.77" width="47.78" height="98.56"/>
  <line class="st2" x1="576.17" y1="1010.1" x2="576.17" y2="1020.53"/>
  <line class="st2" x1="556.56" y1="1010.1" x2="556.56" y2="1020.53"/>
  <line class="st2" x1="561.71" y1="1015.24" x2="551.28" y2="1015.24"/>
  <line class="st2" x1="581.46" y1="1015.24" x2="571.03" y2="1015.24"/>
  <rect class="st2" x="546.68" y="1004.12" width="39.36" height="22.95"/>
  <rect class="st2" x="553.77" y="1060.19" width="26.54" height="26.54"/>
  <rect class="st2" x="547.17" y="1053.59" width="39.75" height="39.89"/>
  <g class="st16">
    <path class="st20" d="M492.37,935.21c-5.14,2.15-10.75,3.27-16.55,3.27s-11.41-1.13-16.55-3.27c-5.28-2.21-10.08-5.49-14.11-9.74-4.38-4.17-7.73-9.24-9.94-14.76-2.02-5.06-3.08-10.49-3.08-15.9,0-6.98,1.63-13.67,4.71-19.7,2.1-4.13,4.89-7.96,8.31-11.37,5.35-5.35,12.02-9.19,19.38-11.14,3.62-.96,7.41-1.46,11.29-1.46s7.66.5,11.28,1.46c7.36,1.95,14.03,5.78,19.38,11.14,3.41,3.41,6.2,7.24,8.31,11.37,3.08,6.04,4.71,12.73,4.71,19.7,0,5.42-1.05,10.85-3.08,15.9-2.2,5.51-5.56,10.59-9.94,14.76-4.04,4.25-8.84,7.53-14.11,9.74"/>
    <path class="st20" d="M523.69,920.44c-2.1,11.33-10.49,20.16-21.84,21.84-.42,0-.42-.42,0-.42,0-.42.42-.42.42-.84.42,0,.42-.42.84-.42.84-.42,2.1-.84,3.36-1.26.84-.42,1.26-1.69.84-2.53,0-.42-.42-.84-.84-.42-4.97,1.24-9.95.85-14.11-1.18,5.27-2.21,10.07-5.49,14.11-9.74,4.38-4.17,7.74-9.24,9.94-14.76l.14.06c1.68,4.62,2.1,9.66.84,14.28,0,.42.42.84.84.84.84.42,1.68,0,2.52-.84.42-.84.84-2.1.84-3.36q.42-.42.84-.42c0-.42.42-.42.42-.84h.84Z"/>
    <path class="st20" d="M449.77,942.28c-11.33-1.68-19.74-10.5-21.84-21.84h.84c0,.42.42.42.42.84q.42,0,.84.42c0,1.26.43,2.52.85,3.36.84.84,1.68,1.26,2.52.84.42,0,.84-.42.84-.84-1.26-4.62-1.26-9.66.84-14.29l.14-.05c2.2,5.51,5.55,10.59,9.94,14.76,4.04,4.25,8.83,7.53,14.11,9.74-4.16,2.02-9.14,2.42-14.11,1.18-.42-.42-.84,0-.84.42-.42.84,0,2.11.84,2.53,1.26.42,2.52.84,3.36,1.26.42,0,.42.42.84.42,0,.42.42.42.42.84.42,0,0,.42,0,.42"/>
    <path class="st20" d="M520.33,864.16c-.42-1.26-.84-2.52-1.26-3.36-.42-.84-1.68-1.26-2.52-.84-.42,0-.84.42-.84.84,1.68,4.62,1.26,9.65-.84,14.27l-.09.04c-2.11-4.13-4.9-7.96-8.31-11.37-5.35-5.35-12.02-9.19-19.38-11.14l.06-.2c5.05-3.36,11.76-4.62,17.64-2.94.42.42.84,0,.84-.42.42-.84,0-2.1-.84-2.52-1.26-.42-2.1-.84-3.36-1.26q-.42,0-.84-.42s-.42-.42-.42-.84v-.42c11.34,1.68,20.16,10.49,21.84,21.84h-.84l-.42-.42q-.42-.42-.42-.84"/>
    <path class="st20" d="M435.08,859.96c-.84-.42-2.1,0-2.52.84-.42.84-.84,2.1-1.26,3.36q0,.42-.42.84s-.42.42-.85.42h-.42c1.69-11.34,10.51-20.16,21.85-21.84v.42c0,.42-.42.84-.42.84q-.42.42-.85.42c-1.26.42-2.1.84-3.36,1.26-.84.42-1.26,1.68-.84,2.52,0,.42.42.84.84.42,5.89-1.68,12.6-.42,17.64,2.94l.06.21c-7.36,1.95-14.02,5.78-19.38,11.14-3.42,3.41-6.2,7.24-8.3,11.37l-.09-.04c-2.1-4.62-2.52-9.65-.84-14.27,0-.42-.42-.84-.84-.84"/>
  </g>
  <g class="st15">
    <path class="st2" d="M430.03,921.7q-.42-.42-.84-.42"/>
    <path class="st2" d="M459.27,935.21c5.14,2.15,10.75,3.27,16.55,3.27s11.41-1.13,16.55-3.27c5.27-2.21,10.07-5.49,14.11-9.74,4.38-4.17,7.74-9.24,9.94-14.76,2.02-5.06,3.08-10.49,3.08-15.9,0-6.98-1.63-13.67-4.71-19.7-2.11-4.13-4.9-7.96-8.31-11.37-5.35-5.35-12.02-9.19-19.38-11.14-3.62-.96-7.4-1.46-11.28-1.46s-7.67.5-11.29,1.46c-7.36,1.95-14.02,5.78-19.38,11.14-3.42,3.41-6.2,7.24-8.3,11.37-3.08,6.04-4.71,12.73-4.71,19.7,0,5.42,1.05,10.85,3.08,15.9,2.2,5.51,5.55,10.59,9.93,14.76,4.04,4.25,8.83,7.53,14.11,9.74Z"/>
    <path class="st2" d="M501.85,942.28c11.34-1.68,19.74-10.5,21.84-21.84"/>
    <path class="st2" d="M492.2,935.13c.06.03.11.06.17.08,4.16,2.02,9.13,2.42,14.1,1.18"/>
    <path class="st2" d="M507.31,936.81c0-.42-.42-.84-.84-.42"/>
    <path class="st2" d="M503.11,940.6c.84-.42,2.1-.84,3.36-1.26"/>
    <path class="st2" d="M506.47,939.34c.84-.42,1.26-1.69.84-2.53"/>
    <path class="st2" d="M501.85,941.86c-.42,0-.42.42,0,.42"/>
    <path class="st2" d="M502.27,941.02c0,.42-.42.42-.42.84"/>
    <path class="st2" d="M503.11,940.6c-.42,0-.42.42-.84.42"/>
    <path class="st2" d="M517.4,925.06c0,.42.42.84.84.84"/>
    <path class="st2" d="M520.75,925.06c.42-.84.84-2.1.84-3.36"/>
    <path class="st2" d="M518.24,925.9c.84.42,1.68,0,2.52-.84"/>
  </g>
  <line class="st2" x1="523.69" y1="920.44" x2="522.85" y2="920.44"/>
  <g class="st18">
    <path class="st2" d="M522.85,920.44c0,.42-.42.42-.42.84"/>
    <path class="st2" d="M522.43,921.28q-.42,0-.84.42"/>
    <path class="st2" d="M517.4,925.06c1.26-4.62.84-9.66-.84-14.28"/>
    <path class="st2" d="M522.01,865.42c-1.68-11.34-10.49-20.16-21.84-21.84"/>
    <path class="st2" d="M504.79,849.45c-5.88-1.68-12.6-.42-17.64,2.94"/>
    <path class="st2" d="M504.79,849.45c.42.42.84,0,.84-.42"/>
    <path class="st2" d="M504.79,846.51c-1.26-.42-2.1-.84-3.36-1.26"/>
    <path class="st2" d="M505.63,849.03c.42-.84,0-2.1-.84-2.52"/>
  </g>
  <line class="st2" x1="500.18" y1="843.58" x2="500.18" y2="844"/>
  <g class="st17">
    <path class="st2" d="M500.18,844c0,.42.42.84.42.84"/>
    <path class="st2" d="M500.59,844.84q.42.42.84.42"/>
    <path class="st2" d="M516.56,859.96c-.42,0-.84.42-.84.84"/>
    <path class="st2" d="M520.33,864.16c-.42-1.26-.84-2.52-1.26-3.36"/>
    <path class="st2" d="M519.08,860.8c-.42-.84-1.68-1.26-2.52-.84"/>
  </g>
  <line class="st2" x1="521.18" y1="865.42" x2="522.02" y2="865.42"/>
  <line class="st2" x1="520.75" y1="865" x2="521.18" y2="865.42"/>
  <g class="st6">
    <path class="st2" d="M520.33,864.16q0,.42.42.84"/>
    <path class="st2" d="M514.88,875.07c2.1-4.62,2.52-9.65.84-14.27"/>
    <path class="st2" d="M427.93,920.44c2.1,11.33,10.51,20.16,21.84,21.84"/>
    <path class="st2" d="M445.15,936.39c4.97,1.24,9.95.85,14.11-1.18.06-.03.11-.06.17-.08"/>
    <path class="st2" d="M445.15,936.39c-.42-.42-.84,0-.84.42"/>
    <path class="st2" d="M445.15,939.34c1.26.42,2.52.84,3.36,1.26"/>
    <path class="st2" d="M444.31,936.81c-.42.84,0,2.11.84,2.53"/>
    <path class="st2" d="M449.77,942.28s.42-.42,0-.42"/>
    <path class="st2" d="M449.77,941.86c0-.42-.42-.42-.42-.84"/>
    <path class="st2" d="M449.35,941.02c-.42,0-.42-.42-.84-.42"/>
    <path class="st2" d="M433.4,925.9c.42,0,.84-.42.84-.84"/>
    <path class="st2" d="M430.03,921.7c0,1.26.43,2.52.85,3.36"/>
    <path class="st2" d="M430.88,925.06c.84.84,1.68,1.26,2.52.84"/>
  </g>
  <line class="st2" x1="428.77" y1="920.44" x2="427.93" y2="920.44"/>
  <g class="st4">
    <path class="st2" d="M429.19,921.28c0-.42-.42-.42-.42-.84"/>
    <path class="st2" d="M435.08,910.77c-2.1,4.62-2.1,9.66-.84,14.28"/>
    <path class="st2" d="M451.46,843.58c-11.34,1.68-20.16,10.49-21.85,21.84"/>
    <path class="st2" d="M464.47,852.39c-5.04-3.36-11.76-4.62-17.64-2.94"/>
    <path class="st2" d="M445.99,849.03c0,.42.42.84.84.42"/>
    <path class="st2" d="M450.19,845.26c-1.26.42-2.1.84-3.36,1.26"/>
    <path class="st2" d="M446.83,846.51c-.84.42-1.26,1.68-.84,2.52"/>
  </g>
  <line class="st2" x1="451.46" y1="844" x2="451.46" y2="843.58"/>
  <g class="st10">
    <path class="st2" d="M451.04,844.84s.42-.42.42-.84"/>
    <path class="st2" d="M450.19,845.26q.43,0,.85-.42"/>
    <path class="st2" d="M435.92,860.8c0-.42-.42-.84-.84-.84"/>
    <path class="st2" d="M432.56,860.8c-.42.84-.84,2.1-1.26,3.36"/>
    <path class="st2" d="M435.08,859.96c-.84-.42-2.1,0-2.52.84"/>
  </g>
  <line class="st2" x1="429.61" y1="865.42" x2="430.03" y2="865.42"/>
  <g class="st8">
    <path class="st2" d="M430.03,865.42c.43,0,.85-.42.85-.42"/>
    <path class="st2" d="M430.88,865q.42-.42.42-.84"/>
    <path class="st2" d="M435.92,860.8c-1.68,4.62-1.26,9.65.84,14.27"/>
  </g>
  <g class="st9">
    <path class="st20" d="M648.96,695.26l111.65-.23.16,28.65h-.11s-13.96-1.41-13.96-1.41l-.14-16.38c-.08-2.25-1.73-3.95-3.97-3.86l-75.95.33c-1.88.13-3.57,1.77-3.85,3.97l.16,7.46-13.91-1.41-.09-17.13Z"/>
    <path class="st20" d="M742.61,702.03c2.24-.08,3.89,1.61,3.97,3.86l.14,16.38-83.74-8.48-.16-7.46c.28-2.2,1.98-3.84,3.86-3.97l75.94-.33Z"/>
    <polygon class="st20" points="760.67 723.69 760.78 723.68 761.4 834.3 649.7 834.88 649.06 712.39 662.97 713.8 746.71 722.27 760.67 723.69"/>
  </g>
  <line class="st2" x1="761.4" y1="834.3" x2="649.7" y2="834.88"/>
  <polyline class="st2" points="760.62 695.03 760.78 723.68 761.4 834.29"/>
  <line class="st2" x1="648.96" y1="695.26" x2="760.62" y2="695.03"/>
  <polyline class="st2" points="649.7 834.88 649.06 712.39 648.97 695.26"/>
  <polyline class="st2" points="649.01 712.38 649.06 712.39 662.97 713.79 746.71 722.27 760.67 723.69"/>
  <line class="st2" x1="742.61" y1="702.03" x2="666.66" y2="702.36"/>
  <line class="st2" x1="662.81" y1="706.33" x2="662.97" y2="713.8"/>
  <g class="st7">
    <path class="st2" d="M666.66,702.36c-1.88.13-3.57,1.77-3.85,3.97"/>
  </g>
  <line class="st2" x1="746.57" y1="705.89" x2="746.71" y2="722.27"/>
  <g class="st5">
    <path class="st2" d="M746.57,705.89c-.08-2.25-1.73-3.95-3.97-3.86"/>
  </g>
  <rect class="st22" x="721.72" y="1114.24" width="148.51" height="15.86"/>
  <rect class="st22" x="523.25" y="1114.24" width="126.91" height="15.86"/>
  <rect class="st22" x="649.49" y="648.12" width="123.54" height="30.72"/>
  <rect class="st22" x="730.83" y="1062.26" width="7.76" height="51.98"/>
  <rect class="st22" x="377.1" y="731.49" width="28.01" height="67.18"/>
  <rect class="st22" x="377.1" y="995.77" width="28.01" height="71.55"/>
  <rect class="st22" x="649.49" y="678.83" width="123.54" height="16.2"/>
  <rect class="st22" x="512.12" y="648.12" width="55.01" height="30.72"/>
  <rect class="st22" x="512.12" y="678.83" width="55.01" height="16.2"/>
  <rect class="st22" x="526.97" y="695.03" width="15.86" height="64.47"/>
  <rect class="st22" x="546.33" y="544.5" width="216.24" height="4"/>
  <rect class="st22" x="758.54" y="544.49" width="4" height="109.13"/>
  <rect class="st22" x="546.34" y="544.95" width="4" height="109.13"/>
  <rect class="st22" x="760.87" y="695.03" width="12.15" height="226.14"/>
  <rect class="st22" x="773.03" y="909.36" width="97.21" height="11.81"/>
  <rect class="st22" x="730.83" y="922.87" width="125.9" height="5.06"/>
  <rect class="st22" x="760.87" y="918.65" width="104.75" height="5.06"/>
  <rect class="st22" x="730.83" y="927.93" width="6.41" height="9.11"/>
  <rect class="st22" x="735.9" y="1057.2" width="120.83" height="5.07"/>
  <rect class="st22" x="582.66" y="1094.33" width="8.1" height="19.92"/>
  <rect class="st22" x="542.83" y="1094.33" width="39.83" height="7.76"/>
  <rect class="st22" x="542.83" y="989.7" width="56.03" height="6.07"/>
  <rect class="st22" x="665.36" y="922.86" width="65.48" height="6.07"/>
  <rect class="st22" x="735.9" y="1055.85" width="115.44" height="1.35"/>
  <rect class="st22" x="730.83" y="1007.58" width="6.41" height="57.14"/>
  <rect class="st22" x="735.9" y="927.93" width="115.44" height="1.35"/>
  <rect class="st22" x="405.12" y="1039.31" width="121.85" height="28.01"/>
  <rect class="st22" x="405.12" y="731.49" width="121.85" height="28.01"/>
  <rect class="st22" x="496.25" y="648.12" width="30.72" height="111.39"/>
  <rect class="st22" x="526.97" y="989.69" width="15.86" height="140.41"/>
  <rect class="st22" x="496.25" y="1039.31" width="30.72" height="90.79"/>
  <path class="st2" d="M542.83,695.03v62.44M403.1,798.65h-11.82M391.28,798.65v197.11M391.28,995.77h11.82M542.83,1041.33v52.99M542.83,1102.09h39.83M590.76,1114.24h59.4M652.53,1114.24h63.46M719.36,1114.24h0M721.72,1114.24h1.01M730.83,1114.24v-102.27M730.83,1008.6v-1.02M730.83,937.04v-1.01M730.83,922.86h30.04M760.88,922.86v-227.83M760.88,695.03h-111.39M649.49,695.03v-32.74M649.49,662.29h-1.02M568.15,662.29h-1.01M567.13,662.29v32.74M738.6,1062.26h119.49M858.08,1062.26v51.98M858.08,1114.24h-119.49M582.66,1114.24h-39.83M542.83,1114.24v-12.15M542.83,1102.09h39.83M858.08,1114.24h-119.49M730.83,1114.24h-8.1M722.73,1130.11h147.5M649.49,1114.24h-106.66M496.25,1130.11h153.91M649.49,1114.24h.67M652.53,1114.24h63.46M719.36,1114.24h0M721.72,1114.24h1.01M738.6,1062.26l119.49,51.98M858.08,1062.26h-119.49M738.6,1114.24h119.49M858.08,1113.23v-50.96M567.13,678.83v-30.71M567.13,648.12h-40.16M773.02,648.12h-123.53M649.49,648.12v30.71M649.49,656.89v-8.77M649.49,656.89h-1.02M568.15,656.89h-1.01M567.13,662.29v-5.4M649.49,656.89v5.4M567.13,648.12v8.77M567.13,656.89h1.01M648.48,656.89h1.02M738.6,1114.24v-51.98M730.83,1062.26v51.98M377.1,731.49v67.17M377.1,798.65h28.01M405.12,798.65v-39.15M405.12,731.49h-28.01M377.1,995.77v71.56M377.1,1067.33h28.01M405.12,1039.31v-43.54M405.12,995.77h-28.01M377.1,995.77h8.78M385.88,995.77v-1.01M385.88,799.67v-1.01M385.88,798.65h-8.78M391.28,995.77h-5.4M385.88,798.65h5.4M649.49,678.83v16.2M649.49,695.03h111.39M542.83,695.03h24.3M567.13,695.03v-16.2M542.83,989.69h-15.86M526.97,989.69v49.62M542.83,759.5v-64.47M526.97,759.5h15.86M758.51,548.55h-201.84M758.51,648.12v-99.57M758.51,648.12h4.05M762.56,648.12v-103.62M762.56,544.49h-216.22M546.34,544.49v103.62M552.62,648.12h4.05M550.34,648.12v-99.57M550.34,548.55h208.18M758.51,548.55v99.57M570.51,577.23l13.16,1.35M583.67,578.59l12.49,3.38M596.16,581.96l12.15,5.4M608.31,587.36l10.8,7.43M619.11,594.79l9.11,9.45M628.23,604.24l7.43,10.8M635.65,615.04l5.74,11.81M641.39,626.85l3.38,12.83M644.77,639.68l1.01,12.83M570.51,652.5v-75.27M575.57,657.23h65.48M641.05,657.23v-4.05M641.05,653.18h-65.48M575.57,653.18v4.05M644.43,664.32h-72.23M575.57,652.5h65.48M575.57,658.92h65.48M644.43,658.92v5.4M572.2,658.92v5.4M572.2,658.92h72.23M644.43,664.32h4.05M648.48,664.32v-11.81M648.48,652.5h-7.42M641.05,652.5v6.41M641.05,658.92h3.37M644.43,658.92v5.4M568.15,664.32h4.05M572.2,664.32v-5.4M572.2,658.92h3.37M575.57,658.92v-6.41M575.57,652.5h-7.42M568.15,652.5v11.81M542.83,1102.09l39.83,12.15M542.83,1114.24h39.83M582.66,1102.09h-39.83M542.83,1102.09v12.15M719.36,1047.75l-13.16,1.01M706.19,1048.76l-12.49,4.05M693.71,1052.81l-11.48,6.07M682.23,1058.89l-10.12,8.1M672.11,1066.99l-8.1,10.13M664,1077.11l-6.41,11.47M657.59,1088.59l-3.71,12.49M653.88,1101.08l-1.35,13.16M650.16,1114.24v15.87M721.72,1130.11v-15.87M719.36,1114.24v-66.49M715.98,1114.24h3.37M722.73,1114.24h-1.01M719.36,1114.24h0M715.98,1114.24h-63.46M650.16,1114.24h-.67M379.47,802.37l-1.35,2.36M376.77,806.75l-1.35,2.36M374.4,811.14l-1.35,2.02M372.04,815.19l-1.35,2.02M369.68,819.24l-1.35,2.03M367.32,823.63l-1.35,2.02M364.96,827.68l-1.35,2.02M362.25,831.73l-1.01,2.03M359.89,835.78l-1.01,2.36M357.53,840.17l-1.01,2.03M355.17,844.22l-1.01,2.02M352.8,848.27l-1.01,2.03M350.44,852.32l-1.35,2.36M348.08,856.71l-1.35,2.02M345.72,860.76l-1.35,2.02M343.35,864.81l-1.69,2.7M379.47,877.63l-1.69-.34M375.42,877.3l-2.36-.34M370.69,876.96l-2.7-.34M365.63,876.28l-2.02-.68M361.24,874.93l-2.36-.34M356.52,873.92l-2.36-.68M352.13,872.23l-2.36-1.01M347.74,870.21l-2.36-1.01M343.35,868.18l-1.69-.68M383.86,991.04h-3.72M383.86,881.35v109.7M380.14,881.35h3.72M380.14,991.04v-109.7M380.14,807.09h3.72M380.14,872.57v-65.48M383.86,872.57h-3.72M383.86,807.09v65.48M391.28,875.95v-72.23M391.28,875.95v-72.23M391.28,991.04v-109.7M379.47,803.72v72.23"/>
  <path class="st2" d="M379.47,807.09v65.48M379.47,881.35v109.7M385.88,875.95h5.4M385.88,803.72h5.4M385.88,807.09v65.48M385.88,803.72v72.23M379.47,991.04h11.81M379.47,994.76v-3.72M391.28,994.76h-11.81M391.28,991.04v3.72M385.88,875.95h5.4M385.88,872.57v3.38M379.47,872.57h6.41M379.47,881.35v-8.78M391.28,881.35h-11.81M391.28,875.95v5.4M379.47,799.67h11.81M379.47,807.09v-7.43M385.88,807.09h-6.41M385.88,803.72v3.38M391.28,803.72h-5.4M391.28,799.67v4.05M379.47,877.64v-75.27M379.47,801.69v76.28M379.47,802.37v75.27M379.47,803.72v72.23M379.47,875.95v-72.23M379.47,877.97v-76.28M379.47,872.57v-65.48M379.47,807.09v65.48M760.88,695.03v226.14M773.03,909.36v-214.33M870.23,909.36h-97.21M870.23,921.18v-5.74M870.23,1114.24v-193.07M730.84,928.94v7.09M730.84,1008.6v53.67M738.6,1062.26h118.14"/>
  <path class="st2" d="M582.66,1102.09v12.15M582.66,1114.24h8.1M590.76,1114.24v-19.91M590.76,1094.33h-8.1M542.83,1102.09h39.83M582.66,1094.33h-39.83M526.97,995.43v1.69M526.97,999.48v2.36M526.97,1004.21v2.36M526.97,1008.93v2.36M526.97,1013.66v2.36M526.97,1018.38v2.7M526.97,1023.45v2.36M526.97,1028.17v2.36M526.97,1032.9v2.36M526.97,1037.62v1.69M479.04,1039.31v-1.69M479.04,1035.26v-2.36M479.04,1030.53v-2.36M479.04,1025.81v-2.36M479.04,1021.08v-2.7M479.04,1016.02v-2.36M479.04,1011.3v-2.36M479.04,1006.57v-2.36M479.04,1001.85v-2.36M479.04,997.12v-1.69M479.04,995.43h1.35M482.75,995.43h2.36M487.48,995.43h2.36M492.2,995.43h2.36M496.93,995.43h2.36M501.99,995.43h2.36M506.72,995.43h2.36M511.44,995.43h2.36M516.17,995.43h2.37M520.89,995.43h2.36M525.62,995.43h1.35M760.88,854.34v-159.31M760.88,695.03h-111.39M542.83,995.77h56.03M598.86,995.77v-6.07M598.86,989.69h-56.03M542.83,1045.39v-47.93"/>
  <path class="st2" d="M542.83,1092.98v-97.21M801.72,939.4l-1.35,12.83M800.36,952.23l-3.71,12.49M796.65,964.72l-6.07,11.14M790.58,975.86l-8.1,10.13M782.48,985.98l-10.13,8.1M772.35,994.08l-11.47,6.08M760.88,1000.16l-12.15,3.71M748.72,1003.87l-12.83,1.35M737.25,1007.58h-6.41M730.83,937.04h6.41M735.9,942.78v-3.38M735.9,939.4h65.82M735.9,942.78v62.44"/>
  <path class="st2" d="M665.35,928.94h65.48M730.83,922.86h-65.48M665.35,922.86v6.07M760.87,922.86h-1.01M757.5,922.86h-2.36M752.44,922.86h-2.36M747.71,922.86h-2.36M742.99,922.86h-2.36M738.26,922.86h-2.36M733.54,922.86h-2.37M728.81,922.86h-2.36M723.75,922.86h-2.36M719.02,922.86h-2.36M714.3,922.86h-1.01M713.28,922.86v-1.35M713.28,919.15v-2.36M713.28,914.42v-2.36M713.28,909.7v-2.36M713.28,904.97v-2.36M713.28,900.25v-2.36M713.28,895.52v-2.7M713.28,890.46v-2.36M713.28,885.73v-2.36M713.28,881.01v-2.36M713.28,876.28v-1.35M713.28,874.93h1.01M716.66,874.93h2.36M721.38,874.93h2.36M726.45,874.93h2.36M731.17,874.93h2.37M735.9,874.93h2.36M740.62,874.93h2.36M745.35,874.93h2.36"/>
  <path class="st2" d="M750.07,874.93h2.36M755.14,874.93h2.36M759.86,874.93h1.01M760.87,874.93v1.35M760.87,878.65v2.36M760.87,883.37v2.36M760.87,888.1v2.36M760.87,892.82v2.7M760.87,897.89v2.36M760.87,902.61v2.36M760.87,907.34v2.36M760.87,912.06v2.36M760.87,916.79v2.36M760.87,921.51v1.35M817.24,1055.85h1.69M820.28,1055.85h1.69M817.24,1055.85h4.73"/>
  <path class="st2" d="M817.24,1055.85h1.69M820.28,1055.85h1.69M870.23,1130.11h-148.51M722.73,1114.24h-1.01M719.36,1114.24h0M715.98,1114.24h-63.46M650.16,1114.24h-.67M850.32,1055.85h-113.07M737.25,1055.85v-48.26M737.25,937.04v-7.77M737.25,929.28h113.07M850.32,929.28v126.57"/>
  <path class="st2" d="M790.24,1055.85h20.93M815.89,1055.85h3.04M820.28,1055.85h3.04M828.04,1055.85h20.92M405.12,1067.32h91.13M526.97,1039.31h-121.85M496.25,731.49h-91.13M405.12,759.5h121.85M496.25,648.11v83.37M526.97,648.11h-30.72M496.25,1067.32v62.78M479.04,995.43v1.69M479.04,999.48v2.36M479.04,1004.21v2.36M479.04,1008.93v2.36M479.04,1013.66v2.36M479.04,1018.38v2.7M479.04,1023.45v2.36M479.04,1028.17v2.36M479.04,1032.9v2.36"/>
  <path class="st2" d="M479.04,1037.62v1.69M431.11,1039.31v-1.69M431.11,1035.26v-2.36M431.11,1030.53v-2.36M431.11,1025.81v-2.36M431.11,1021.08v-2.7M431.11,1016.02v-2.36M431.11,1011.29v-2.36M431.11,1006.57v-2.36M431.11,1001.85v-2.36M431.11,997.12v-1.69M431.11,995.43h1.35M434.82,995.43h2.36M439.55,995.43h2.36M444.27,995.43h2.7M449.34,995.43h2.36M454.06,995.43h2.36M458.79,995.43h2.36M463.51,995.43h2.37M468.24,995.43h2.36M472.96,995.43h2.7M478.03,995.43h1.01M773.03,648.11v261.25M773.03,909.36h97.21M870.23,909.36v220.74"/>
  <g class="st3">
    <path class="st1" d="M44.3,1117.95h6.07M67.93,1197.27l16.2-7.09M79.74,1172.63l4.38,17.55M107.42,1201.32l-27.68-28.69M107.42,1201.32l-39.49-4.05M107.42,1201.32l-23.29-11.14M44.3,878.65h6.07M44.3,1038.3h6.07M44.3,958.64h6.07M44.3,878.65v239.31M1170.63,418.93H-13.08"/>
    <path d="M65.71,469.84c-.43.28-.76.68-.97,1.17-.21.5-.33,1.11-.33,1.85,0,.58.11,1.1.32,1.57.21.46.51.82.9,1.07.38.25.79.37,1.23.37s.83-.11,1.16-.34c.33-.22.61-.57.83-1.05.15-.33.32-.93.52-1.8.2-.88.39-1.42.58-1.62.19-.21.43-.32.72-.32.34,0,.63.15.87.45.24.3.36.77.36,1.42s-.13,1.1-.4,1.42c-.26.32-.65.51-1.17.56l.08,1.03c.48-.02.91-.15,1.29-.4.38-.25.66-.6.86-1.06.2-.46.29-.99.29-1.6,0-.54-.09-1.04-.28-1.49-.18-.45-.46-.79-.81-1.02-.36-.23-.74-.35-1.15-.35-.38,0-.72.09-1.02.28-.3.19-.55.48-.76.87-.16.3-.33.82-.51,1.57-.18.75-.31,1.23-.39,1.45-.13.34-.29.58-.48.73-.19.15-.42.22-.67.22s-.49-.08-.7-.23c-.21-.15-.38-.39-.5-.7-.12-.32-.19-.68-.19-1.09,0-.46.08-.88.24-1.25.16-.37.37-.64.63-.82.26-.18.6-.29,1.01-.34l-.09-1.01c-.55.01-1.04.16-1.47.44M64.55,478.56h2.83l1.31,1.33-4.13,2.89v1.42l4.86-3.56,3.3,3.41v-1.46l-4.04-4.04h4.04v-1.07h-8.16v1.07Z"/>
    <path d="M70.29,488.08h-.94v5.37h.94v-5.37ZM67.81,488.08h-.94v5.37h.94v-5.37Z"/>
    <path d="M65.71,498.19c-.43.28-.76.67-.97,1.17-.21.5-.33,1.12-.33,1.85,0,.58.11,1.1.32,1.57.21.46.51.82.89,1.07s.79.37,1.23.37.82-.11,1.16-.34c.34-.22.61-.57.83-1.05.15-.33.32-.92.52-1.8.2-.87.39-1.41.58-1.62.19-.21.43-.32.72-.32.34,0,.63.15.87.45.24.3.36.77.36,1.42s-.13,1.1-.4,1.42c-.26.32-.65.51-1.17.56l.08,1.03c.48-.02.91-.15,1.29-.4.37-.25.66-.6.86-1.06.19-.46.29-.99.29-1.6,0-.55-.09-1.04-.28-1.49-.19-.45-.46-.79-.81-1.02-.36-.23-.75-.35-1.16-.35-.37,0-.71.1-1.01.29-.3.19-.56.48-.76.87-.16.3-.33.82-.51,1.57-.18.75-.31,1.23-.4,1.45-.13.34-.29.58-.48.73-.19.15-.41.22-.67.22s-.49-.08-.7-.23c-.21-.15-.38-.39-.51-.7-.12-.31-.18-.68-.18-1.09,0-.46.08-.88.24-1.25.16-.37.37-.64.64-.82.26-.18.59-.29,1-.34l-.09-1.01c-.55.01-1.04.16-1.47.45"/>
    <path d="M64.55,506.42h2.34l.68.7-3.02,1.95v1.23l3.72-2.48,2.19,2.25v-1.29l-2.41-2.36h4.65v-1h-8.16v1ZM64.55,515.53v1.04c.23-.12.46-.21.71-.25.25-.04.84-.06,1.77-.06h1.33c.45,0,.75-.02.93-.05.27-.06.5-.17.68-.31.18-.15.33-.38.45-.69.12-.32.18-.73.18-1.23s-.07-.95-.21-1.33c-.14-.39-.34-.68-.59-.88-.26-.21-.6-.35-1.02-.44l-.13.98c.42.11.71.27.88.49.16.22.25.57.25,1.04,0,.5-.11.88-.34,1.14-.17.19-.46.28-.86.28-.04,0-.12,0-.26,0-.13-.38-.25-.97-.35-1.78-.05-.39-.1-.69-.15-.89-.08-.27-.18-.51-.33-.72-.14-.21-.33-.38-.57-.51-.24-.13-.5-.2-.79-.2-.49,0-.9.17-1.21.52-.32.35-.48.85-.48,1.49,0,.39.07.76.2,1.1.13.34.35.7.67,1.07-.28.03-.52.1-.73.2M67.15,515.25c-.44,0-.77-.05-1-.16-.29-.14-.52-.36-.69-.66-.17-.3-.25-.64-.25-1.03s.09-.68.27-.88c.18-.2.4-.3.67-.3.18,0,.33.05.48.14.14.09.25.22.33.39.07.17.14.46.2.87.1.73.23,1.27.38,1.63h-.37Z"/>
    <path d="M64.55,518.57h2.34l.68.7-3.02,1.95v1.23l3.72-2.48,2.19,2.25v-1.29l-2.4-2.36h4.65v-1h-8.16v1ZM65.41,525.04c0-.15.03-.26.07-.34.05-.08.11-.14.19-.17.08-.04.27-.05.55-.05h3.46v1.01h.78v-1.01h2.07l-.6-.99h-1.46v-.73h-.78v.73h-3.4c-.6,0-1,.04-1.18.12-.19.08-.34.22-.45.42-.12.2-.17.48-.17.84,0,.22.03.47.09.76l.89-.14c-.03-.18-.04-.33-.04-.44"/>
    <path d="M51.39,470.9h3.7v3.82h.96v-3.82h2.53v4.41h.96v-5.49h-8.16v1.08ZM52.54,476.59c-.43.28-.76.67-.97,1.17-.22.5-.33,1.12-.33,1.85,0,.58.11,1.1.32,1.57.21.46.51.82.89,1.07s.79.37,1.23.37.82-.11,1.16-.34c.33-.23.61-.57.83-1.05.15-.33.32-.92.52-1.8.2-.87.39-1.41.58-1.62.19-.21.43-.32.72-.32.34,0,.63.15.87.45.24.3.36.77.36,1.42s-.13,1.1-.4,1.42c-.26.32-.65.51-1.17.56l.08,1.03c.48-.02.91-.15,1.28-.4.38-.25.67-.6.86-1.06.19-.46.29-.99.29-1.6,0-.55-.09-1.04-.28-1.49-.19-.45-.46-.79-.81-1.02-.36-.23-.75-.35-1.16-.35-.37,0-.71.1-1.02.29s-.56.48-.76.87c-.16.3-.33.82-.51,1.57-.18.75-.31,1.23-.4,1.45-.13.34-.29.58-.48.73-.19.15-.41.22-.67.22s-.49-.08-.7-.23c-.21-.15-.38-.39-.51-.7-.12-.31-.18-.68-.18-1.09,0-.46.08-.88.24-1.25.16-.37.38-.64.64-.82.26-.18.59-.29,1-.34l-.09-1.01c-.55.01-1.04.16-1.47.45"/>
    <path d="M57.12,487.08h-.94v5.37h.94v-5.37ZM54.65,487.08h-.94v5.37h.94v-5.37Z"/>
    <polygon points="51.39 498.24 55.1 498.24 55.1 502.05 56.06 502.05 56.06 498.24 58.59 498.24 58.59 502.65 59.55 502.65 59.55 497.16 51.39 497.16 51.39 498.24"/>
    <path d="M52.05,504.45c-.53.51-.79,1.18-.79,2,0,.51.12.99.36,1.42.24.43.58.76,1.02.99.44.23,1.03.34,1.8.34.94,0,1.67-.26,2.21-.77.53-.51.8-1.18.8-1.99,0-.73-.22-1.34-.66-1.85-.53-.61-1.34-.91-2.43-.91-1,0-1.76.26-2.29.76M56.04,505.21c.37.33.56.74.56,1.24s-.19.9-.57,1.23c-.37.33-.93.49-1.66.49-.77,0-1.35-.16-1.73-.49s-.57-.74-.57-1.24.19-.91.57-1.24c.38-.33.94-.49,1.7-.49s1.32.17,1.7.49M51.39,511.13h3.09c.42,0,.81.06,1.17.17.23.07.42.2.55.37.13.18.2.37.2.59,0,.24-.07.49-.22.73l.93.34c.21-.35.32-.69.32-1.03,0-.23-.07-.45-.2-.64-.13-.19-.41-.4-.83-.63h.9v-.9h-5.91v1Z"/>
    <path d="M52.37,517.27c-.19-.26-.29-.57-.29-.94,0-.49.17-.9.52-1.23.35-.33.84-.51,1.49-.55v4.39c.12,0,.21,0,.27,0,.98,0,1.73-.25,2.27-.75.54-.5.81-1.14.81-1.93s-.27-1.47-.83-1.99c-.55-.51-1.32-.76-2.32-.76s-1.71.26-2.24.76c-.53.5-.8,1.18-.8,2.05,0,.68.17,1.24.5,1.69.34.44.8.74,1.41.9l.13-1.03c-.42-.15-.73-.35-.92-.62M56.15,515.13c.31.31.46.7.46,1.16,0,.51-.2.92-.58,1.24-.25.21-.62.33-1.12.37v-3.29c.51.03.93.21,1.24.52M51.73,520.64c-.32.4-.48.98-.48,1.75,0,.46.08.88.24,1.24.16.37.39.65.68.84.29.2.61.29.94.29s.63-.08.86-.24c.23-.16.41-.38.53-.65.12-.28.27-.77.46-1.48.13-.49.22-.78.26-.88.07-.18.16-.3.27-.38.1-.08.22-.12.35-.12.2,0,.38.1.53.29.15.2.23.52.23.98,0,.39-.08.69-.26.9-.17.21-.41.34-.71.39l.14.98c.38-.06.69-.18.91-.35.23-.17.41-.42.54-.77.13-.35.2-.76.2-1.22,0-.31-.04-.59-.12-.86-.08-.27-.18-.48-.29-.63-.15-.21-.33-.37-.56-.49-.22-.12-.47-.18-.73-.18-.29,0-.55.07-.79.22-.24.15-.43.36-.56.64-.14.28-.3.79-.48,1.52-.14.55-.25.89-.34,1.02-.13.2-.31.29-.53.29-.25,0-.47-.11-.66-.33-.19-.22-.28-.56-.28-1.02s.11-.81.32-1.06c.21-.25.52-.41.91-.46l-.16-.99c-.63.11-1.1.37-1.42.77M59.55,526.03h-8.16v1h8.16v-1ZM51.39,532.72v1.04c.23-.13.46-.21.71-.26.25-.04.84-.06,1.77-.06h1.33c.45,0,.76-.02.93-.05.27-.06.5-.16.68-.31.18-.15.33-.38.45-.69.12-.32.18-.72.18-1.23s-.07-.95-.21-1.33c-.14-.39-.34-.68-.6-.88-.26-.2-.6-.35-1.02-.44l-.13.98c.42.11.71.27.88.49.17.22.25.57.25,1.04,0,.5-.11.88-.34,1.14-.17.19-.46.28-.86.28-.04,0-.13,0-.26,0-.13-.38-.25-.98-.35-1.78-.05-.39-.1-.69-.15-.89-.07-.27-.18-.51-.33-.72s-.34-.38-.58-.51c-.24-.13-.5-.2-.79-.2-.49,0-.9.18-1.22.52-.31.35-.47.84-.47,1.49,0,.39.06.76.19,1.1.13.35.35.7.67,1.07-.28.03-.52.09-.73.2M53.99,532.44c-.44,0-.77-.06-1-.16-.29-.14-.52-.36-.69-.66-.17-.3-.25-.64-.25-1.03s.09-.68.27-.89.4-.3.67-.3c.18,0,.33.05.48.14.14.09.25.22.33.39.07.17.14.46.2.87.1.73.23,1.27.38,1.63h-.37ZM58.1,530.35c-.2.2-.3.43-.3.71s.1.5.29.7c.2.2.44.3.73.3s.52-.1.72-.3c.2-.2.3-.43.3-.7s-.1-.5-.29-.7c-.2-.2-.43-.3-.7-.3-.3,0-.55.1-.74.29M59.25,530.65c.12.12.18.25.18.41s-.06.3-.18.41c-.12.12-.26.18-.43.18s-.31-.06-.43-.18c-.12-.11-.18-.25-.18-.41s.06-.3.18-.41c.12-.12.27-.18.44-.18s.31.06.42.18M52.37,538.51c-.19-.26-.29-.57-.29-.94,0-.49.17-.9.52-1.23.35-.33.84-.51,1.49-.55v4.39c.12,0,.21,0,.27,0,.98,0,1.73-.25,2.27-.75.54-.5.81-1.14.81-1.93s-.27-1.47-.83-1.99c-.55-.51-1.32-.76-2.32-.76s-1.71.25-2.24.76c-.53.5-.8,1.19-.8,2.05,0,.68.17,1.24.5,1.68.34.44.8.74,1.41.9l.13-1.03c-.42-.15-.73-.35-.92-.62M56.15,536.37c.31.31.46.7.46,1.16,0,.51-.2.92-.58,1.24-.25.21-.62.33-1.12.38v-3.29c.51.04.93.21,1.24.52"/>
    <path d="M52.25,543.27c0-.15.03-.26.07-.34.05-.08.11-.14.2-.17.08-.04.27-.06.55-.06h3.46v1h.78v-1h2.06l-.6-.99h-1.46v-.73h-.78v.73h-3.4c-.6,0-1,.04-1.18.12-.19.08-.34.22-.45.42-.12.2-.17.48-.17.84,0,.22.03.47.09.75l.88-.14c-.02-.18-.04-.33-.04-.44M51.73,547.98c-.32.4-.48.99-.48,1.75,0,.46.08.87.24,1.24.16.36.39.64.68.84.29.2.61.29.94.29s.63-.08.86-.24c.23-.16.4-.38.52-.66.12-.28.27-.77.47-1.48.13-.49.22-.78.25-.88.07-.17.16-.3.27-.38s.22-.12.35-.12c.2,0,.38.1.54.3.15.2.23.52.23.98,0,.39-.08.69-.26.9-.17.21-.41.34-.71.39l.14.98c.38-.07.68-.18.91-.35.23-.17.41-.43.55-.77.14-.35.2-.76.2-1.21,0-.31-.04-.6-.12-.86-.08-.27-.18-.48-.29-.63-.15-.21-.34-.37-.56-.49-.22-.12-.47-.18-.73-.18-.29,0-.55.07-.79.22-.24.15-.42.36-.56.65-.14.28-.3.79-.48,1.52-.14.54-.25.88-.34,1.02-.13.2-.31.3-.54.3-.25,0-.47-.11-.66-.33-.19-.22-.28-.56-.28-1.02s.1-.81.32-1.06c.21-.25.51-.41.91-.46l-.16-.99c-.63.11-1.1.37-1.42.77"/>
    <path d="M51.39,554.68h2.34l.68.71-3.02,1.95v1.23l3.72-2.48,2.19,2.25v-1.29l-2.4-2.36h4.65v-1h-8.16v1ZM51.39,563.46v1.04c.23-.12.46-.21.71-.25.24-.04.83-.06,1.77-.06h1.33c.45,0,.75-.02.92-.05.28-.06.5-.17.68-.31.18-.15.33-.38.45-.69.12-.31.18-.72.18-1.22s-.07-.95-.21-1.34c-.14-.38-.34-.68-.6-.88-.26-.21-.6-.35-1.02-.44l-.13.98c.42.11.71.27.88.49.17.22.25.57.25,1.04,0,.5-.11.88-.34,1.14-.16.19-.45.28-.86.28-.03,0-.12,0-.26,0-.14-.38-.25-.98-.35-1.78-.05-.39-.1-.69-.15-.89-.08-.27-.18-.51-.33-.72-.14-.21-.33-.38-.58-.51-.24-.13-.5-.2-.79-.2-.49,0-.9.17-1.22.52s-.48.85-.48,1.49c0,.39.07.76.19,1.1.13.34.35.7.67,1.07-.28.03-.52.1-.73.2M53.99,563.18c-.44,0-.78-.05-1-.16-.29-.14-.53-.36-.69-.66-.17-.3-.26-.64-.26-1.03s.09-.68.27-.88c.18-.2.4-.3.66-.3.18,0,.34.05.48.14.14.09.25.22.33.39.07.17.14.46.2.87.1.73.23,1.27.38,1.63h-.37Z"/>
    <path d="M52.13,566.41c-.58.4-.87.94-.87,1.64s.28,1.3.83,1.8c.55.5,1.34.75,2.35.75.43,0,.83-.06,1.2-.18.37-.12.69-.28.96-.49.26-.21.47-.48.62-.8.15-.33.22-.67.22-1.03,0-.65-.26-1.19-.79-1.61h2.91v-1h-8.16v.92h.74ZM56.04,566.88c.38.32.57.7.57,1.13s-.18.8-.55,1.11c-.37.31-.94.46-1.71.46s-1.32-.16-1.7-.48c-.38-.32-.57-.69-.57-1.13,0-.53.26-.96.77-1.28.32-.19.83-.29,1.54-.29s1.27.16,1.65.48"/>
    <path d="M52.43,877.22c-.56.45-.84,1.06-.84,1.85,0,.6.16,1.09.48,1.48.32.39.77.68,1.36.88.59.2,1.36.29,2.32.29.81,0,1.45-.06,1.93-.18.48-.12.88-.29,1.21-.5.33-.21.59-.49.76-.81.18-.33.27-.71.27-1.15,0-.59-.16-1.08-.48-1.47-.32-.39-.77-.69-1.36-.88-.59-.2-1.36-.3-2.33-.3-1.53,0-2.64.27-3.32.81M58.51,877.96c.39.27.58.64.58,1.1s-.22.86-.66,1.17c-.44.31-1.33.47-2.68.47s-2.23-.15-2.67-.47c-.45-.31-.67-.7-.67-1.16s.22-.84.66-1.16c.44-.31,1.34-.47,2.68-.47s2.26.17,2.76.51M52.69,1030.91c.18.11.36.25.54.42.18.17.52.55,1.03,1.15.61.72,1.09,1.23,1.44,1.54.35.31.68.53,1,.67.31.13.63.2.96.2.64,0,1.18-.22,1.61-.68.43-.45.65-1.07.65-1.85s-.2-1.39-.61-1.85-.99-.72-1.76-.79l-.1,1.03c.51,0,.91.15,1.2.44.29.29.43.68.43,1.15,0,.46-.14.82-.41,1.11-.27.28-.61.42-1,.42s-.78-.15-1.2-.46c-.42-.31-1-.91-1.73-1.79-.46-.57-.88-1-1.23-1.3-.36-.3-.72-.52-1.09-.66-.22-.09-.46-.12-.7-.12v5.37h.96v-3.99Z"/>
    <path d="M51.73,1037.01h3.07c.54,0,.95.05,1.24.16.29.11.5.28.65.52.15.24.22.5.22.78,0,.37-.11.64-.33.8-.22.17-.55.25-1,.25h-3.84v1h3.43c.61,0,1.05.14,1.33.41.27.28.41.62.41,1.04,0,.23-.05.43-.16.6-.1.17-.25.29-.42.35-.18.06-.46.1-.87.1h-3.72v.99h4.06c.68,0,1.18-.16,1.5-.47.33-.32.49-.76.49-1.35,0-.75-.35-1.35-1.04-1.82.32-.11.58-.31.76-.59.18-.28.27-.63.27-1.07,0-.39-.09-.74-.27-1.05-.18-.31-.41-.55-.7-.74h.83v-.89h-5.91v1Z"/>
    <path d="M59.92,956.12v-.64c-.35-.17-.71-.47-1.09-.89-.38-.42-.69-.9-.96-1.46h-.97c.12.31.29.66.52,1.05.23.39.46.7.69.94h-6.39v1h8.19ZM51.73,960.06h3.07c.54,0,.95.05,1.24.16.29.11.5.28.65.52.15.24.22.5.22.78,0,.37-.11.64-.33.8s-.55.24-1,.24h-3.84v1h3.43c.61,0,1.05.14,1.33.41.27.28.41.62.41,1.03,0,.23-.05.43-.16.6-.1.17-.25.29-.42.35-.18.07-.46.1-.87.1h-3.72v.99h4.06c.68,0,1.18-.16,1.5-.47.33-.31.49-.76.49-1.35,0-.75-.35-1.35-1.04-1.82.32-.11.58-.31.76-.59.18-.28.27-.63.27-1.07,0-.39-.09-.74-.27-1.05-.18-.31-.41-.55-.7-.74h.83v-.89h-5.91v1Z"/>
    <path d="M51.73,781.3h6.95l-6.95,2.35v.97l6.83,2.36h-6.83v1.04h8.16v-1.45l-5.68-1.95c-.58-.2-1.01-.34-1.31-.43.27-.08.67-.21,1.21-.39l5.78-1.93v-1.62h-8.16v1.04ZM51.73,793.32v1.04c.23-.12.46-.21.71-.25.25-.04.84-.07,1.77-.07h1.34c.44,0,.75-.01.92-.05.28-.06.5-.16.68-.31.18-.15.33-.38.45-.69.12-.32.18-.72.18-1.22s-.07-.95-.21-1.34c-.14-.38-.34-.68-.6-.88-.26-.2-.6-.35-1.02-.44l-.13.98c.42.11.71.27.88.5.17.22.25.57.25,1.04,0,.5-.11.88-.34,1.14-.16.19-.46.28-.86.28-.04,0-.13,0-.26,0-.13-.38-.25-.98-.35-1.78-.05-.39-.1-.69-.15-.89-.08-.27-.19-.5-.33-.72-.14-.21-.34-.39-.58-.52-.24-.13-.5-.2-.79-.2-.49,0-.9.18-1.22.52s-.48.84-.48,1.49c0,.39.07.76.2,1.1.13.34.35.7.67,1.07-.28.03-.52.09-.73.2M54.33,793.03c-.44,0-.77-.06-1-.16-.3-.14-.53-.36-.69-.66-.17-.3-.25-.64-.25-1.03s.09-.68.27-.89c.18-.2.4-.3.67-.3.18,0,.33.05.48.14.14.09.25.22.32.39.07.17.14.46.2.87.1.72.23,1.27.38,1.63h-.37ZM58.43,790.94c-.2.2-.3.43-.3.71s.1.5.29.7c.2.2.44.29.72.29s.52-.1.72-.29c.2-.2.3-.43.3-.7s-.1-.5-.29-.7c-.2-.2-.43-.3-.7-.3-.3,0-.54.1-.74.3M59.59,791.24c.12.12.18.25.18.41s-.06.3-.18.42c-.12.11-.26.17-.43.17s-.31-.06-.43-.18c-.12-.12-.18-.25-.18-.41s.06-.3.18-.41c.12-.12.27-.18.44-.18.16,0,.3.06.42.18"/>
    <rect x="51.73" y="795.67" width="8.16" height="1"/>
    <path d="M59.92,804.91v-.65c-.35-.17-.72-.47-1.09-.89-.37-.42-.69-.9-.96-1.46h-.97c.11.31.28.66.52,1.05.23.39.46.7.69.94h-6.39v1h8.2ZM57.64,808.12h-1.14v1.14h1.14v-1.14ZM52.87,808.12h-1.14v1.14h1.14v-1.14Z"/>
    <path d="M52.21,811.4c-.42.47-.62,1.07-.62,1.81,0,.9.33,1.61.99,2.13.54.43,1.17.64,1.91.64.78,0,1.41-.25,1.91-.73.49-.49.74-1.09.74-1.8,0-.54-.17-1.05-.51-1.54l2.19.44v3.25h.96v-4.04l-4.19-.79-.12.94c.23.15.43.35.57.61.15.26.22.55.22.87,0,.52-.17.94-.49,1.26-.33.32-.78.48-1.35.48-.6,0-1.09-.17-1.45-.5-.37-.33-.55-.74-.55-1.22,0-.4.13-.74.39-1.02.26-.28.64-.46,1.16-.54l-.09-1.05c-.69.07-1.24.33-1.65.8M52.43,817.82c-.57.45-.85,1.06-.85,1.85,0,.6.16,1.09.48,1.48.32.39.78.68,1.37.88.59.2,1.36.29,2.32.29.81,0,1.45-.06,1.93-.18.48-.12.88-.29,1.22-.5.33-.21.58-.49.76-.82.18-.33.26-.71.26-1.15,0-.59-.16-1.08-.48-1.47-.32-.39-.77-.69-1.36-.88-.59-.2-1.37-.3-2.33-.3-1.53,0-2.64.27-3.32.81M58.51,818.56c.39.27.59.64.59,1.1s-.22.86-.66,1.17-1.33.47-2.68.47-2.23-.16-2.67-.47c-.44-.31-.67-.7-.67-1.16s.22-.84.66-1.16c.44-.31,1.33-.47,2.68-.47s2.26.17,2.75.51"/>
    <polygon class="st20" points="51.73 1168.25 74.34 1179.38 67.59 1193.9 44.64 1182.76 51.73 1168.25"/>
    <polygon points="54.48 1173.99 65.83 1179.48 50.79 1181.6 49.84 1183.57 64.28 1190.56 65.17 1188.72 53.83 1183.23 68.86 1181.11 69.81 1179.14 55.37 1172.15 54.48 1173.99"/>
    <path d="M52.22,1110.13c-.43.47-.64,1.06-.64,1.77,0,.79.25,1.45.74,1.97.49.51,1.1.77,1.81.77.53,0,.96-.13,1.32-.4.35-.27.58-.64.7-1.12.17.37.4.65.69.84.29.19.61.28.96.28.37,0,.72-.1,1.05-.3.33-.2.59-.48.78-.85.19-.37.28-.78.28-1.23,0-.64-.18-1.18-.55-1.61-.37-.44-.89-.71-1.56-.83l-.18,1c.49.07.86.24,1.1.5.24.26.37.58.37.97s-.12.71-.36.96c-.24.25-.54.37-.91.37-.46,0-.81-.17-1.03-.51s-.33-.72-.33-1.15c0-.04,0-.09.01-.16l-.88-.11c.08.28.11.52.11.7,0,.46-.15.84-.45,1.14-.3.3-.68.45-1.14.45-.48,0-.89-.16-1.21-.49-.33-.32-.49-.72-.49-1.19,0-.39.12-.73.38-1,.25-.28.66-.47,1.23-.58l-.13-1c-.68.07-1.23.34-1.66.81M51.73,1116.67h3.07c.54,0,.95.05,1.24.16.29.11.5.28.65.52.15.24.22.5.22.78,0,.37-.11.64-.33.8-.22.17-.55.24-1,.24h-3.84v1h3.43c.61,0,1.05.14,1.33.41.27.27.41.62.41,1.03,0,.23-.05.43-.16.6-.1.17-.25.29-.42.36-.18.06-.46.1-.87.1h-3.72v.99h4.06c.68,0,1.18-.15,1.5-.47.33-.32.49-.76.49-1.35,0-.75-.35-1.35-1.04-1.82.32-.11.58-.31.76-.59.18-.28.27-.63.27-1.07,0-.39-.09-.74-.27-1.05-.18-.31-.41-.55-.7-.74h.83v-.89h-5.91v1Z"/>
    <rect class="st20" x="1115.28" y="440.54" width="18.9" height="102.27"/>
    <path d="M1129.11,447.24c-.85-.75-1.9-1.46-3.15-2.13s-2.53-1.18-3.87-1.53-2.48-.54-3.43-.56v1.52c1.2.08,2.3.27,3.31.57,1.43.41,2.81.99,4.17,1.75,1.35.76,2.43,1.52,3.25,2.29h1.15v-7.81h-1.42v5.91ZM1120.34,451.53h-1.68v1.69h1.68v-1.69ZM1120.36,456.18c-.64.42-1.11,1-1.43,1.74-.31.74-.48,1.66-.48,2.75,0,.86.16,1.64.47,2.32.31.69.76,1.22,1.32,1.59.57.37,1.17.55,1.81.55s1.21-.17,1.71-.5.9-.85,1.23-1.56c.22-.48.47-1.37.77-2.67.29-1.3.58-2.1.85-2.41.28-.31.64-.47,1.07-.47.5,0,.92.22,1.28.66s.53,1.14.53,2.11-.19,1.63-.58,2.1c-.39.48-.96.76-1.73.84l.12,1.53c.7-.03,1.34-.22,1.89-.59.56-.37.98-.89,1.27-1.58.29-.68.43-1.47.43-2.37,0-.81-.14-1.55-.41-2.21-.27-.66-.68-1.17-1.2-1.51s-1.09-.52-1.7-.52c-.55,0-1.05.14-1.5.43-.45.28-.82.71-1.12,1.29-.24.45-.49,1.22-.75,2.33-.26,1.11-.46,1.82-.58,2.15-.19.5-.43.87-.71,1.09-.28.22-.61.33-.99.33s-.71-.11-1.03-.34c-.31-.23-.56-.58-.74-1.04-.18-.47-.27-1-.27-1.61,0-.68.12-1.3.36-1.85.24-.55.55-.95.93-1.21s.88-.43,1.48-.5l-.13-1.51c-.81.02-1.53.24-2.16.66M1118.65,473.2v1.55c.33-.19.68-.31,1.04-.37.36-.07,1.23-.1,2.61-.1h1.97c.66,0,1.11-.02,1.36-.07.41-.09.74-.24,1.01-.46.26-.22.48-.56.66-1.03.18-.47.26-1.07.26-1.82s-.1-1.41-.31-1.98c-.2-.57-.5-1.01-.88-1.31-.38-.3-.88-.52-1.5-.65l-.2,1.45c.62.16,1.05.41,1.29.74.24.33.36.85.36,1.55,0,.75-.17,1.31-.5,1.68-.25.28-.67.42-1.27.42-.05,0-.18,0-.38,0-.2-.56-.37-1.45-.51-2.64-.07-.58-.14-1.03-.22-1.32-.11-.39-.27-.75-.48-1.06-.21-.32-.49-.57-.85-.77-.35-.19-.74-.29-1.17-.29-.73,0-1.33.26-1.79.77-.47.51-.7,1.25-.7,2.21,0,.58.1,1.13.29,1.63.19.51.52,1.04.98,1.59-.41.04-.77.14-1.07.29M1122.49,472.78c-.65,0-1.15-.08-1.48-.24-.43-.21-.77-.53-1.02-.98-.25-.45-.37-.95-.37-1.52s.13-1.01.4-1.31c.26-.3.59-.45.98-.45.26,0,.49.07.7.21s.37.33.48.58c.11.25.21.68.29,1.29.15,1.07.34,1.88.56,2.42h-.54ZM1130.68,476.62h-12.02v1.48h12.02v-1.48ZM1127.37,480.9h-1.68v1.69h1.68v-1.69ZM1120.34,480.9h-1.68v1.69h1.68v-1.69ZM1129.93,496.21c.53-.61.8-1.38.8-2.33,0-1.27-.46-2.29-1.38-3.04-1.05-.86-2.75-1.29-5.07-1.29-2.08,0-3.57.39-4.47,1.17-.91.78-1.36,1.79-1.36,3.02,0,.72.17,1.37.52,1.94.35.57.84,1.02,1.49,1.34.65.33,1.35.49,2.11.49,1.15,0,2.08-.35,2.81-1.04.73-.7,1.09-1.53,1.09-2.52,0-.57-.13-1.11-.39-1.62-.26-.51-.66-.95-1.2-1.31,1.2.01,2.13.15,2.78.42.65.27,1.15.64,1.48,1.1.26.35.39.77.39,1.24,0,.59-.21,1.08-.63,1.48-.26.24-.68.43-1.26.56l.12,1.47c.94-.12,1.67-.48,2.2-1.09M1124.43,491.95c.48.47.72,1.04.72,1.71s-.24,1.24-.72,1.68c-.48.45-1.14.67-1.97.67s-1.55-.23-2.05-.68c-.51-.45-.76-.99-.76-1.61,0-.43.12-.84.36-1.23.24-.39.6-.69,1.06-.91.47-.22.95-.33,1.46-.33.77,0,1.4.23,1.88.7M1120.34,499.9h-1.68v1.69h1.68v-1.69ZM1118.65,508.97c0,.77.07,1.42.2,1.95.13.53.33.97.59,1.32.26.35.64.64,1.12.89.48.24,1.01.36,1.57.36.7,0,1.31-.2,1.82-.59.51-.39.88-.95,1.09-1.68.28.57.64.99,1.1,1.27.45.28.94.42,1.45.42.55,0,1.08-.16,1.59-.47.51-.32.88-.75,1.13-1.31.24-.56.36-1.3.36-2.22v-4.52h-12.03v4.6ZM1129.26,505.97v2.41c0,.87-.05,1.48-.17,1.84-.11.35-.32.63-.62.82-.3.19-.65.29-1.05.29-.42,0-.77-.1-1.05-.31-.28-.21-.48-.51-.6-.92-.09-.31-.14-.82-.14-1.52v-2.61h3.63ZM1124.21,505.97v2.79c0,.77-.07,1.36-.2,1.77-.13.41-.36.73-.7.96-.33.23-.72.35-1.17.35-.38,0-.72-.08-1.01-.24-.29-.16-.52-.36-.67-.61-.15-.24-.26-.55-.33-.92-.04-.21-.06-.57-.06-1.09v-3h4.13ZM1120.34,515.99h-1.68v1.69h1.68v-1.69ZM1129.11,525.94c-.85-.75-1.9-1.46-3.15-2.13-1.24-.67-2.53-1.18-3.87-1.53-1.34-.36-2.48-.55-3.43-.56v1.52c1.2.08,2.3.27,3.31.57,1.43.41,2.81.99,4.17,1.75,1.35.76,2.43,1.52,3.25,2.29h1.15v-7.81h-1.42v5.91ZM1120.34,530.22h-1.68v1.69h1.68v-1.69ZM1120.07,536.02c.27.17.53.37.8.62s.77.82,1.51,1.71c.9,1.06,1.6,1.83,2.12,2.29.51.46,1,.78,1.47.98.46.2.94.29,1.42.29.94,0,1.74-.34,2.38-1.01.64-.67.96-1.59.96-2.75s-.3-2.06-.89-2.74c-.59-.68-1.46-1.07-2.59-1.18l-.15,1.52c.76,0,1.34.22,1.77.65.43.43.64,1,.64,1.71,0,.68-.2,1.22-.61,1.64-.4.42-.89.63-1.48.63s-1.15-.23-1.78-.69c-.62-.46-1.47-1.35-2.55-2.66-.69-.85-1.3-1.49-1.82-1.94-.53-.45-1.06-.77-1.6-.97-.33-.12-.67-.19-1.02-.17v7.98h1.42v-5.92Z"/>
    <line class="st2" x1="858.08" y1="1062.26" x2="738.6" y2="1114.24"/>
    <line class="st2" x1="582.66" y1="1102.09" x2="542.83" y2="1114.24"/>
  </g>
</svg>