<?xml version="1.0" encoding="UTF-8"?>
<svg id="Layer_1" xmlns="http://www.w3.org/2000/svg" xmlns:xlink="http://www.w3.org/1999/xlink" version="1.1" viewBox="0 0 1200 1697.14">
  <!-- Generator: Adobe Illustrator 29.6.0, SVG Export Plug-In . SVG Version: 2.1.1 Build 207)  -->
  <defs>
    <style>
      .st0, .st1, .st2, .st3 {
        fill: none;
      }

      .st1 {
        stroke: #0d0e1c;
      }

      .st1, .st2, .st3 {
        stroke-linecap: round;
        stroke-linejoin: round;
      }

      .st1, .st3 {
        stroke-width: .09px;
      }

      .st2 {
        stroke-width: .14px;
      }

      .st2, .st3 {
        stroke: #000;
      }

      .st4 {
        clip-path: url(#clippath-10);
      }

      .st5 {
        clip-path: url(#clippath-1);
      }

      .st6 {
        clip-path: url(#clippath-3);
      }

      .st7 {
        clip-path: url(#clippath-4);
      }

      .st8 {
        clip-path: url(#clippath-2);
      }

      .st9 {
        clip-path: url(#clippath-7);
      }

      .st10 {
        clip-path: url(#clippath-6);
      }

      .st11 {
        clip-path: url(#clippath-9);
      }

      .st12 {
        clip-path: url(#clippath-8);
      }

      .st13 {
        clip-path: url(#clippath-5);
      }

      .st14 {
        fill: #fff;
      }

      .st15 {
        fill: #36393c;
      }

      .st16 {
        fill: #ece9e5;
      }

      .st17 {
        fill: #302c35;
      }

      .st18 {
        clip-path: url(#clippath);
      }
    </style>
    <clipPath id="clippath">
      <rect class="st0" x="411.58" y="712.18" width="74.73" height="164.39"/>
    </clipPath>
    <clipPath id="clippath-1">
      <rect class="st0" x="221.74" y="441.48" width="756.52" height="814.19"/>
    </clipPath>
    <clipPath id="clippath-2">
      <rect class="st0" x="488.65" y="948.42" width="29.45" height="40.38"/>
    </clipPath>
    <clipPath id="clippath-3">
      <rect class="st0" x="221.74" y="441.48" width="756.52" height="814.19"/>
    </clipPath>
    <clipPath id="clippath-4">
      <rect class="st0" x="221.74" y="441.48" width="756.52" height="814.19"/>
    </clipPath>
    <clipPath id="clippath-5">
      <rect class="st0" x="416.62" y="1034.41" width="27.67" height="37.34"/>
    </clipPath>
    <clipPath id="clippath-6">
      <rect class="st0" x="221.74" y="441.48" width="756.52" height="814.19"/>
    </clipPath>
    <clipPath id="clippath-7">
      <rect class="st0" x="221.74" y="441.48" width="756.52" height="814.19"/>
    </clipPath>
    <clipPath id="clippath-8">
      <rect class="st0" x="221.74" y="441.48" width="756.52" height="814.19"/>
    </clipPath>
    <clipPath id="clippath-9">
      <rect class="st0" x="622.72" y="707.18" width="98.36" height="100.45"/>
    </clipPath>
    <clipPath id="clippath-10">
      <rect class="st0" x="221.74" y="441.48" width="756.52" height="814.19"/>
    </clipPath>
  </defs>
  <rect class="st16" x="396.11" y="611.95" width="343.04" height="622.82"/>
  <rect class="st16" x="428.78" y="443.04" width="243.98" height="168.91"/>
  <rect class="st14" x="456.24" y="611.95" width="202.97" height="12.34"/>
  <rect class="st14" x="622.72" y="724.56" width="98.36" height="65.69"/>
  <rect class="st14" x="672.07" y="966.42" width="48.69" height="120.63"/>
  <rect class="st14" x="672.07" y="1101.49" width="52.34" height="100.61"/>
  <rect class="st17" x="396.1" y="606.04" width="53.88" height="3.94"/>
  <rect class="st15" x="672.76" y="607.43" width="66.39" height=".7"/>
  <rect class="st17" x="669.63" y="606.04" width="69.52" height="7.97"/>
  <rect class="st17" x="396.11" y="1087.05" width="143.89" height="16.33"/>
  <rect class="st17" x="396.11" y="1218.43" width="343.04" height="16.33"/>
  <rect class="st17" x="396.11" y="1103.39" width="12.17" height="37.88"/>
  <rect class="st17" x="396.11" y="1214.96" width="12.17" height="3.47"/>
  <rect class="st17" x="465.62" y="880.26" width="65.69" height="7.99"/>
  <rect class="st17" x="406.36" y="880.26" width="60.3" height="7.99"/>
  <rect class="st17" x="663.73" y="1087.05" width="75.42" height="16.33"/>
  <rect class="st17" x="407.62" y="1080.1" width="132.03" height="9.28"/>
  <rect class="st17" x="534.44" y="1071.07" width="5.21" height="9.04"/>
  <rect class="st17" x="534.44" y="939.87" width="5.21" height="58.21"/>
  <rect class="st17" x="407.28" y="941.78" width="127.15" height="5.21"/>
  <rect class="st17" x="406.34" y="946.99" width="8.89" height="133.11"/>
  <rect class="st17" x="415.23" y="946.99" width="119.21" height="1.43"/>
  <rect class="st17" x="415.23" y="1078.71" width="119.21" height="1.39"/>
  <rect class="st17" x="415.23" y="946.99" width="1.39" height="131.73"/>
  <rect class="st17" x="531.31" y="880.26" width="8.34" height="61.52"/>
  <rect class="st17" x="659.21" y="639.06" width="79.94" height="16.33"/>
  <rect class="st17" x="659.21" y="609.52" width="79.94" height="29.54"/>
  <rect class="st17" x="721.07" y="655.39" width="18.07" height="563.04"/>
  <rect class="st17" x="396.11" y="655.39" width="12.17" height="431.66"/>
  <rect class="st17" x="396.11" y="639.06" width="60.13" height="16.33"/>
  <rect class="st17" x="396.11" y="609.52" width="60.13" height="29.54"/>
  <line class="st2" x1="531.31" y1="941.78" x2="408.27" y2="941.78"/>
  <line class="st2" x1="531.31" y1="941.78" x2="527.83" y2="941.78"/>
  <line class="st2" x1="525.4" y1="941.78" x2="522.97" y2="941.78"/>
  <line class="st2" x1="520.19" y1="941.78" x2="517.75" y2="941.78"/>
  <line class="st2" x1="515.32" y1="941.78" x2="512.89" y2="941.78"/>
  <line class="st2" x1="510.45" y1="941.78" x2="508.02" y2="941.78"/>
  <line class="st2" x1="505.59" y1="941.78" x2="503.16" y2="941.78"/>
  <line class="st2" x1="500.72" y1="941.78" x2="498.29" y2="941.78"/>
  <line class="st2" x1="495.86" y1="941.78" x2="493.08" y2="941.78"/>
  <line class="st2" x1="490.64" y1="941.78" x2="488.21" y2="941.78"/>
  <line class="st2" x1="485.78" y1="941.78" x2="483.35" y2="941.78"/>
  <line class="st2" x1="480.91" y1="941.78" x2="478.48" y2="941.78"/>
  <line class="st2" x1="476.05" y1="941.78" x2="473.61" y2="941.78"/>
  <line class="st2" x1="471.18" y1="941.78" x2="468.75" y2="941.78"/>
  <line class="st2" x1="466.32" y1="941.78" x2="463.54" y2="941.78"/>
  <line class="st2" x1="461.1" y1="941.78" x2="458.67" y2="941.78"/>
  <line class="st2" x1="456.24" y1="941.78" x2="453.8" y2="941.78"/>
  <line class="st2" x1="451.37" y1="941.78" x2="448.94" y2="941.78"/>
  <line class="st2" x1="446.51" y1="941.78" x2="444.07" y2="941.78"/>
  <line class="st2" x1="441.64" y1="941.78" x2="439.21" y2="941.78"/>
  <line class="st2" x1="436.43" y1="941.78" x2="433.99" y2="941.78"/>
  <line class="st2" x1="431.56" y1="941.78" x2="429.13" y2="941.78"/>
  <line class="st2" x1="426.69" y1="941.78" x2="424.26" y2="941.78"/>
  <line class="st2" x1="421.83" y1="941.78" x2="419.4" y2="941.78"/>
  <line class="st2" x1="416.96" y1="941.78" x2="414.53" y2="941.78"/>
  <line class="st2" x1="412.1" y1="941.78" x2="408.27" y2="941.78"/>
  <line class="st2" x1="408.27" y1="941.78" x2="408.27" y2="888.25"/>
  <line class="st2" x1="408.27" y1="888.25" x2="412.1" y2="888.25"/>
  <line class="st2" x1="465.62" y1="888.25" x2="531.31" y2="888.25"/>
  <line class="st2" x1="465.62" y1="880.26" x2="539.65" y2="880.26"/>
  <line class="st2" x1="408.27" y1="888.25" x2="416.62" y2="888.25"/>
  <line class="st2" x1="416.62" y1="888.25" x2="416.62" y2="880.26"/>
  <line class="st2" x1="416.62" y1="880.26" x2="408.28" y2="880.26"/>
  <line class="st2" x1="465.62" y1="880.26" x2="465.62" y2="888.25"/>
  <line class="st2" x1="416.62" y1="888.25" x2="416.62" y2="880.26"/>
  <line class="st2" x1="465.62" y1="880.26" x2="465.62" y2="888.25"/>
  <line class="st2" x1="531.31" y1="941.78" x2="410.01" y2="941.78"/>
  <line class="st2" x1="531.31" y1="888.25" x2="531.31" y2="941.77"/>
  <line class="st2" x1="456.24" y1="639.05" x2="456.24" y2="609.51"/>
  <line class="st2" x1="456.24" y1="609.51" x2="449.98" y2="609.51"/>
  <line class="st2" x1="449.98" y1="606.04" x2="446.85" y2="606.04"/>
  <line class="st2" x1="449.98" y1="609.51" x2="449.98" y2="606.04"/>
  <line class="st2" x1="672.76" y1="606.04" x2="669.64" y2="606.04"/>
  <line class="st2" x1="669.64" y1="606.04" x2="669.64" y2="609.51"/>
  <line class="st2" x1="669.64" y1="609.51" x2="659.21" y2="609.51"/>
  <line class="st2" x1="659.21" y1="655.39" x2="721.07" y2="655.39"/>
  <line class="st2" x1="663.73" y1="1087.05" x2="721.07" y2="1087.05"/>
  <line class="st2" x1="663.73" y1="1103.39" x2="721.07" y2="1103.39"/>
  <line class="st2" x1="539.65" y1="1103.39" x2="408.27" y2="1103.39"/>
  <line class="st2" x1="408.27" y1="1218.43" x2="721.07" y2="1218.43"/>
  <line class="st2" x1="721.07" y1="1218.43" x2="721.07" y2="1103.39"/>
  <line class="st2" x1="663.73" y1="1103.39" x2="663.73" y2="1087.05"/>
  <line class="st2" x1="721.07" y1="1087.05" x2="721.07" y2="655.39"/>
  <line class="st2" x1="408.27" y1="1103.39" x2="539.65" y2="1103.39"/>
  <line class="st2" x1="721.07" y1="1218.43" x2="408.27" y2="1218.43"/>
  <line class="st2" x1="396.11" y1="1234.76" x2="739.15" y2="1234.76"/>
  <line class="st2" x1="739.15" y1="1234.76" x2="396.11" y2="1234.76"/>
  <line class="st2" x1="408.27" y1="1141.27" x2="408.27" y2="1103.39"/>
  <line class="st2" x1="396.11" y1="1103.39" x2="396.11" y2="1140.23"/>
  <line class="st2" x1="721.07" y1="1103.39" x2="721.07" y2="1218.43"/>
  <line class="st2" x1="739.15" y1="1234.76" x2="739.15" y2="606.04"/>
  <line class="st2" x1="721.07" y1="655.39" x2="721.07" y2="1087.05"/>
  <line class="st2" x1="396.11" y1="1214.95" x2="396.11" y2="1234.76"/>
  <line class="st2" x1="408.27" y1="1218.43" x2="408.27" y2="1214.95"/>
  <line class="st2" x1="396.11" y1="1214.95" x2="408.27" y2="1214.95"/>
  <line class="st2" x1="408.27" y1="1141.27" x2="396.11" y2="1141.27"/>
  <line class="st2" x1="539.65" y1="1103.39" x2="539.65" y2="1080.1"/>
  <line class="st2" x1="539.65" y1="1080.1" x2="539.65" y2="1071.07"/>
  <line class="st2" x1="534.44" y1="1071.76" x2="534.44" y2="1078.71"/>
  <line class="st2" x1="534.44" y1="1071.76" x2="534.44" y2="1071.07"/>
  <line class="st2" x1="539.65" y1="1071.07" x2="534.44" y2="1071.07"/>
  <line class="st2" x1="534.44" y1="1071.76" x2="534.44" y2="1071.07"/>
  <line class="st2" x1="672.76" y1="606.04" x2="739.15" y2="606.04"/>
  <line class="st2" x1="408.27" y1="655.39" x2="456.24" y2="655.39"/>
  <line class="st2" x1="456.24" y1="655.39" x2="456.24" y2="639.06"/>
  <line class="st2" x1="456.24" y1="622.02" x2="456.24" y2="655.39"/>
  <line class="st2" x1="659.21" y1="639.05" x2="659.21" y2="609.51"/>
  <line class="st2" x1="659.21" y1="622.02" x2="659.21" y2="655.39"/>
  <line class="st2" x1="408.27" y1="655.39" x2="408.27" y2="880.26"/>
  <line class="st17" x1="396.11" y1="606.04" x2="446.85" y2="606.04"/>
  <line class="st2" x1="396.11" y1="1141.27" x2="396.11" y2="606.04"/>
  <line class="st2" x1="539.65" y1="998.08" x2="539.65" y2="880.26"/>
  <line class="st2" x1="534.44" y1="948.38" x2="534.44" y2="997.04"/>
  <line class="st2" x1="534.44" y1="998.08" x2="534.44" y2="997.04"/>
  <line class="st2" x1="534.44" y1="998.08" x2="539.65" y2="998.08"/>
  <line class="st2" x1="534.44" y1="998.08" x2="534.44" y2="997.04"/>
  <line class="st2" x1="416.62" y1="948.38" x2="534.44" y2="948.38"/>
  <line class="st2" x1="534.44" y1="948.38" x2="534.44" y2="948.38"/>
  <line class="st2" x1="534.44" y1="997.04" x2="534.44" y2="948.38"/>
  <line class="st2" x1="534.44" y1="1078.71" x2="534.44" y2="1071.76"/>
  <line class="st2" x1="534.44" y1="1078.71" x2="416.62" y2="1078.71"/>
  <line class="st2" x1="416.62" y1="1078.71" x2="416.62" y2="948.38"/>
  <g class="st18">
    <path class="st14" d="M427.98,855.36c0,1.87,1.51,3.39,3.37,3.39h34.23c1.87,0,3.38-1.52,3.38-3.39v-8.81l16.39,8.11h0v21.91h-73.78v-58.42l16.4,8.12v29.1Z"/>
    <path class="st14" d="M434.12,829.3l-.52-.26c.17.08.35.17.52.26"/>
    <path class="st14" d="M427.98,826.27l5.62,2.77.52.26,1.51.75c.09.04.17.09.27.13l12.82,6.34c.4.2.82.41,1.24.62l19,9.4v8.81c0,1.87-1.51,3.39-3.38,3.39h-34.23c-1.86,0-3.37-1.52-3.37-3.39v-29.1Z"/>
    <path class="st14" d="M411.58,818.15v-105.55h73.78v142.06l-16.39-8.11-19-9.4-1.24-.62-12.83-6.34-.27-.13-1.51-.76c-.17-.08-.35-.17-.52-.26l-5.62-2.77-16.4-8.12Z"/>
    <polygon class="st14" points="411.58 712.6 411.58 712.18 486.31 712.18 486.31 855.13 485.36 854.67 485.36 854.66 485.36 712.6 411.58 712.6"/>
  </g>
  <polyline class="st1" points="485.36 854.67 485.36 876.57 411.58 876.57 411.58 818.15"/>
  <polyline class="st1" points="468.97 846.55 485.36 854.66 485.36 854.67 486.31 855.13 486.31 712.18 411.58 712.18 411.58 712.6 411.58 818.15 427.98 826.27"/>
  <line class="st1" x1="448.73" y1="836.54" x2="449.97" y2="837.15"/>
  <line class="st1" x1="435.64" y1="830.06" x2="435.91" y2="830.19"/>
  <line class="st1" x1="433.6" y1="829.04" x2="434.12" y2="829.3"/>
  <line class="st1" x1="465.59" y1="858.75" x2="431.35" y2="858.75"/>
  <g class="st5">
    <path class="st1" d="M431.35,858.75c-1.86,0-3.37-1.51-3.37-3.39"/>
    <path class="st1" d="M468.97,855.36c0,1.87-1.51,3.39-3.38,3.39"/>
    <path class="st1" d="M468.97,855.36v-8.81l-19-9.4c-.43-.21-.84-.41-1.25-.62l-12.82-6.34c-.1-.05-.18-.09-.27-.13l-1.51-.76c-.18-.08-.35-.17-.52-.26l-5.62-2.78v29.1"/>
  </g>
  <g class="st8">
    <path class="st14" d="M518.1,948.44c0,7.93,0,15.86-.02,23.8,0,9.17-6.59,16.57-14.73,16.57-8.14,0-14.71-7.42-14.7-16.59,0-7.93,0-15.87,0-23.8,9.82,0,19.63,0,29.44.02"/>
  </g>
  <g class="st6">
    <path class="st3" d="M518.1,948.44c0,7.93,0,15.86-.02,23.8,0,9.17-6.59,16.57-14.73,16.57-8.14,0-14.71-7.42-14.7-16.59,0-7.93,0-15.87,0-23.8,9.82,0,19.63,0,29.44.02Z"/>
  </g>
  <rect class="st14" x="416.74" y="948.29" width="64.35" height="63.67"/>
  <polyline class="st3" points="481.09 948.29 481.09 1011.96 473.46 1011.96"/>
  <line class="st3" x1="481.09" y1="948.29" x2="417.24" y2="948.29"/>
  <line class="st3" x1="416.74" y1="949.34" x2="416.74" y2="1011.4"/>
  <polyline class="st3" points="416.74 949.34 416.74 948.29 417.24 948.29"/>
  <polyline class="st3" points="417.68 1011.96 416.74 1011.96 416.74 1011.4"/>
  <line class="st3" x1="417.68" y1="1011.96" x2="473.46" y2="1011.96"/>
  <line class="st3" x1="449.16" y1="948.29" x2="449.16" y2="965.98"/>
  <g class="st7">
    <circle class="st3" cx="449.08" cy="965.89" r="3.96"/>
    <circle class="st3" cx="449.08" cy="965.89" r="3.96"/>
  </g>
  <g class="st13">
    <path class="st14" d="M442.16,1071.11h-15.6c-.59,0-1.07-.36-1.07-.8v-34.33c0-.43.48-.79,1.07-.79h15.6c.59,0,1.07.35,1.07.79v34.33c0,.44-.48.8-1.07.8M434.64,1055.97c1.56,0,2.82-1.27,2.82-2.83s-1.26-2.82-2.82-2.82-2.83,1.26-2.83,2.82,1.27,2.83,2.83,2.83"/>
    <path class="st14" d="M422.87,1053.15c0,1.17-.95,2.13-2.12,2.13s-2.11-.95-2.11-2.13.95-2.11,2.11-2.11,2.12.95,2.12,2.11"/>
    <path class="st14" d="M434.64,1054.66c-.85,0-1.52-.68-1.52-1.52s.67-1.51,1.52-1.51,1.51.67,1.51,1.51-.67,1.52-1.51,1.52"/>
    <path class="st14" d="M434.64,1055.97c-1.56,0-2.82-1.27-2.82-2.83s1.27-2.82,2.82-2.82,2.82,1.26,2.82,2.82-1.26,2.83-2.82,2.83M433.12,1053.15c0,.83.67,1.52,1.52,1.52s1.51-.68,1.51-1.52-.67-1.51-1.51-1.51-1.52.67-1.52,1.51"/>
    <path class="st14" d="M418.63,1053.15c0,1.17.95,2.12,2.12,2.12s2.12-.95,2.12-2.12-.95-2.12-2.12-2.12-2.12.95-2.12,2.12M442.16,1071.11c.59,0,1.07-.35,1.07-.8v-34.33c0-.43-.48-.79-1.07-.79h-15.6c-.59,0-1.07.35-1.07.79v34.33c0,.44.48.8,1.07.8h15.6ZM444.29,1035.19v35.92c0,.35-.47.63-1.07.63h-26.6v-37.34h26.6c.6,0,1.07.35,1.07.79"/>
  </g>
  <g class="st10">
    <path class="st3" d="M420.74,1051.03c1.17,0,2.12.95,2.12,2.11s-.95,2.12-2.12,2.12-2.12-.95-2.12-2.12.95-2.11,2.12-2.11Z"/>
    <path class="st3" d="M434.64,1050.33c1.56,0,2.82,1.26,2.82,2.82s-1.26,2.83-2.82,2.83-2.83-1.27-2.83-2.83,1.27-2.82,2.83-2.82Z"/>
    <path class="st3" d="M434.64,1051.64c.84,0,1.51.67,1.51,1.51s-.67,1.52-1.51,1.52-1.52-.68-1.52-1.52.67-1.51,1.52-1.51Z"/>
    <path class="st3" d="M426.56,1071.11h15.6c.59,0,1.07-.35,1.07-.8v-34.33c0-.43-.48-.79-1.07-.79h-15.6c-.59,0-1.07.35-1.07.79v34.33c0,.44.48.8,1.07.8Z"/>
  </g>
  <line class="st3" x1="424.84" y1="1034.4" x2="416.62" y2="1034.4"/>
  <g class="st9">
    <path class="st3" d="M416.62,1071.74h26.61c.59,0,1.06-.29,1.06-.63v-35.92c0-.44-.47-.79-1.06-.79h-8.43"/>
  </g>
  <line class="st3" x1="424.84" y1="1034.4" x2="434.8" y2="1034.4"/>
  <line class="st3" x1="416.62" y1="1034.4" x2="416.62" y2="1071.74"/>
  <line class="st3" x1="714.54" y1="990.92" x2="703.54" y2="990.92"/>
  <rect class="st3" x="672.07" y="966.42" width="48.69" height="120.63"/>
  <line class="st3" x1="686.6" y1="1058.27" x2="686.6" y2="1047.53"/>
  <line class="st3" x1="706.8" y1="1058.27" x2="706.8" y2="1047.53"/>
  <line class="st3" x1="701.5" y1="1052.97" x2="712.24" y2="1052.97"/>
  <line class="st3" x1="681.16" y1="1052.97" x2="691.9" y2="1052.97"/>
  <rect class="st3" x="676.43" y="1040.8" width="40.53" height="23.63"/>
  <rect class="st3" x="682.84" y="977.33" width="27.33" height="27.34"/>
  <rect class="st3" x="676.04" y="970.39" width="40.93" height="41.07"/>
  <line class="st3" x1="659.21" y1="622.02" x2="658.17" y2="622.02"/>
  <line class="st3" x1="575.45" y1="622.02" x2="574.41" y2="622.02"/>
  <line class="st3" x1="457.28" y1="622.02" x2="456.24" y2="622.02"/>
  <line class="st3" x1="449.98" y1="607.43" x2="669.64" y2="607.43"/>
  <line class="st3" x1="659.21" y1="619.59" x2="658.17" y2="619.59"/>
  <line class="st3" x1="575.45" y1="619.59" x2="574.41" y2="619.59"/>
  <line class="st3" x1="457.28" y1="619.59" x2="456.24" y2="619.59"/>
  <line class="st3" x1="428.43" y1="603.26" x2="672.41" y2="603.26"/>
  <line class="st3" x1="428.43" y1="590.75" x2="672.41" y2="590.75"/>
  <line class="st3" x1="428.43" y1="578.58" x2="672.41" y2="578.58"/>
  <line class="st3" x1="428.43" y1="566.07" x2="672.41" y2="566.07"/>
  <line class="st3" x1="428.43" y1="553.9" x2="672.41" y2="553.9"/>
  <line class="st3" x1="428.43" y1="541.74" x2="672.41" y2="541.74"/>
  <line class="st3" x1="428.43" y1="529.23" x2="672.41" y2="529.23"/>
  <line class="st3" x1="428.43" y1="517.06" x2="672.41" y2="517.06"/>
  <line class="st3" x1="428.43" y1="504.55" x2="672.41" y2="504.55"/>
  <line class="st3" x1="428.43" y1="492.39" x2="672.41" y2="492.39"/>
  <line class="st3" x1="428.43" y1="479.87" x2="672.41" y2="479.87"/>
  <line class="st3" x1="428.43" y1="467.71" x2="672.41" y2="467.71"/>
  <line class="st3" x1="428.43" y1="455.55" x2="672.41" y2="455.55"/>
  <line class="st3" x1="428.78" y1="443.03" x2="428.78" y2="606.04"/>
  <line class="st3" x1="449.98" y1="607.43" x2="669.64" y2="607.43"/>
  <line class="st3" x1="672.76" y1="606.04" x2="672.76" y2="443.03"/>
  <line class="st3" x1="672.76" y1="443.03" x2="428.78" y2="443.03"/>
  <line class="st3" x1="655.39" y1="534.09" x2="642.18" y2="535.48"/>
  <line class="st3" x1="642.18" y1="535.48" x2="628.97" y2="538.96"/>
  <line class="st3" x1="628.97" y1="538.96" x2="616.81" y2="544.52"/>
  <line class="st3" x1="616.81" y1="544.52" x2="605.68" y2="552.52"/>
  <line class="st3" x1="605.69" y1="552.51" x2="595.95" y2="561.9"/>
  <line class="st3" x1="595.95" y1="561.9" x2="588.31" y2="573.02"/>
  <line class="st3" x1="588.31" y1="573.02" x2="582.75" y2="585.18"/>
  <line class="st3" x1="582.75" y1="585.18" x2="579.27" y2="598.39"/>
  <line class="st3" x1="579.27" y1="598.39" x2="577.88" y2="611.95"/>
  <line class="st3" x1="655.39" y1="611.95" x2="655.39" y2="534.09"/>
  <line class="st3" x1="650.52" y1="612.29" x2="650.52" y2="616.46"/>
  <line class="st3" x1="583.09" y1="612.29" x2="650.52" y2="612.29"/>
  <line class="st3" x1="583.09" y1="616.46" x2="583.09" y2="612.29"/>
  <line class="st3" x1="650.52" y1="616.46" x2="583.09" y2="616.46"/>
  <line class="st3" x1="579.62" y1="624.11" x2="654" y2="624.11"/>
  <line class="st3" x1="650.52" y1="611.95" x2="583.09" y2="611.95"/>
  <line class="st3" x1="650.52" y1="618.2" x2="583.09" y2="618.2"/>
  <line class="st3" x1="579.62" y1="618.2" x2="579.62" y2="624.11"/>
  <line class="st3" x1="654" y1="618.2" x2="654" y2="624.11"/>
  <line class="st3" x1="654" y1="618.2" x2="579.62" y2="618.2"/>
  <line class="st3" x1="579.62" y1="618.2" x2="579.62" y2="624.11"/>
  <line class="st3" x1="583.09" y1="618.2" x2="579.62" y2="618.2"/>
  <line class="st3" x1="583.09" y1="611.95" x2="583.09" y2="618.2"/>
  <line class="st3" x1="575.45" y1="611.95" x2="583.1" y2="611.95"/>
  <line class="st3" x1="575.45" y1="624.11" x2="575.45" y2="611.95"/>
  <line class="st3" x1="579.62" y1="624.11" x2="575.45" y2="624.11"/>
  <line class="st3" x1="658.17" y1="611.95" x2="658.17" y2="624.11"/>
  <line class="st3" x1="650.52" y1="611.95" x2="658.16" y2="611.95"/>
  <line class="st3" x1="650.52" y1="618.2" x2="650.52" y2="611.95"/>
  <line class="st3" x1="654" y1="618.2" x2="650.52" y2="618.2"/>
  <line class="st3" x1="654" y1="624.11" x2="654" y2="618.2"/>
  <line class="st3" x1="658.17" y1="624.11" x2="654" y2="624.11"/>
  <line class="st3" x1="461.1" y1="616.46" x2="570.23" y2="616.46"/>
  <line class="st3" x1="570.23" y1="616.46" x2="570.23" y2="612.29"/>
  <line class="st3" x1="570.23" y1="612.29" x2="461.1" y2="612.29"/>
  <line class="st3" x1="461.1" y1="612.29" x2="461.1" y2="616.46"/>
  <line class="st3" x1="570.23" y1="624.11" x2="461.1" y2="624.11"/>
  <line class="st3" x1="461.1" y1="611.95" x2="570.23" y2="611.95"/>
  <line class="st3" x1="457.28" y1="624.11" x2="461.1" y2="624.11"/>
  <line class="st3" x1="461.1" y1="624.11" x2="461.1" y2="611.95"/>
  <line class="st3" x1="461.1" y1="611.95" x2="457.28" y2="611.95"/>
  <line class="st3" x1="457.28" y1="611.95" x2="457.28" y2="624.11"/>
  <line class="st3" x1="570.23" y1="624.11" x2="574.41" y2="624.11"/>
  <line class="st3" x1="574.41" y1="624.11" x2="574.41" y2="611.95"/>
  <line class="st3" x1="574.41" y1="611.95" x2="570.23" y2="611.95"/>
  <line class="st3" x1="570.23" y1="611.95" x2="570.23" y2="624.11"/>
  <line class="st3" x1="476.74" y1="1212.17" x2="475.35" y2="1198.97"/>
  <line class="st3" x1="475.35" y1="1198.97" x2="471.53" y2="1186.11"/>
  <line class="st3" x1="471.53" y1="1186.11" x2="465.27" y2="1174.29"/>
  <line class="st3" x1="465.27" y1="1174.29" x2="456.58" y2="1163.86"/>
  <line class="st3" x1="456.58" y1="1163.86" x2="446.5" y2="1155.17"/>
  <line class="st3" x1="446.51" y1="1155.17" x2="434.34" y2="1148.92"/>
  <line class="st3" x1="434.34" y1="1148.92" x2="421.48" y2="1145.1"/>
  <line class="st3" x1="421.48" y1="1145.1" x2="408.27" y2="1143.71"/>
  <line class="st3" x1="408.27" y1="1212.17" x2="476.74" y2="1212.17"/>
  <line class="st3" x1="408.27" y1="1209.05" x2="408.27" y2="1212.17"/>
  <line class="st3" x1="408.27" y1="1212.17" x2="408.27" y2="1143.71"/>
  <line class="st3" x1="466.66" y1="1068.29" x2="467.71" y2="1055.08"/>
  <line class="st3" x1="467.71" y1="1055.08" x2="471.88" y2="1042.57"/>
  <line class="st3" x1="471.88" y1="1042.57" x2="478.13" y2="1030.75"/>
  <line class="st3" x1="478.13" y1="1030.75" x2="486.47" y2="1020.32"/>
  <line class="st3" x1="486.47" y1="1020.32" x2="496.55" y2="1011.98"/>
  <line class="st3" x1="496.55" y1="1011.98" x2="508.37" y2="1005.73"/>
  <line class="st3" x1="508.37" y1="1005.73" x2="521.23" y2="1001.9"/>
  <line class="st3" x1="521.23" y1="1001.9" x2="534.44" y2="1000.51"/>
  <line class="st3" x1="534.44" y1="1065.16" x2="534.44" y2="1068.29"/>
  <line class="st3" x1="534.44" y1="1068.29" x2="466.66" y2="1068.29"/>
  <line class="st3" x1="534.44" y1="1068.29" x2="534.44" y2="1000.51"/>
  <g class="st12">
    <path class="st3" d="M1117.98,558.42h-6.26M1093.66,476.75l-16.68,7.3M1081.49,502.12l-4.52-18.07M1052.99,472.58l28.5,29.54M1052.99,472.58l40.67,4.17M1052.99,472.58l23.98,11.47M1117.98,804.84h-6.26M1117.98,640.45h-6.26M1117.98,722.47h-6.26M1117.98,804.84v-246.42M-41.81,1278.21h1218.87"/>
    <path d="M1095.96,1225.78c.44-.29.77-.69.99-1.2.22-.51.33-1.15.33-1.91,0-.6-.11-1.14-.33-1.62-.21-.48-.52-.84-.91-1.1-.39-.26-.81-.38-1.25-.38s-.84.11-1.18.35c-.34.23-.62.59-.85,1.08-.15.33-.33.95-.53,1.85-.2.9-.4,1.46-.59,1.67-.19.22-.43.33-.74.33-.34,0-.64-.16-.88-.46-.24-.31-.36-.79-.36-1.47s.14-1.13.4-1.46c.27-.33.66-.52,1.19-.58l-.08-1.06c-.49.02-.93.15-1.31.41-.38.25-.67.62-.87,1.09-.2.47-.3,1.02-.3,1.64,0,.56.09,1.07.28,1.53.19.46.46.81.83,1.05.36.24.76.36,1.18.36.38,0,.72-.1,1.03-.29.31-.2.56-.49.77-.9.16-.31.34-.85.52-1.62.18-.77.32-1.27.4-1.49.13-.35.29-.6.49-.76s.42-.23.68-.23.49.08.71.24c.21.16.39.4.51.72.12.32.18.7.18,1.12,0,.48-.08.9-.24,1.28-.17.38-.38.66-.64.85-.27.18-.61.29-1.02.35l.09,1.04c.56-.02,1.05-.17,1.49-.46M1097.13,1216.81h-2.88l-1.32-1.37,4.2-2.98v-1.46l-4.94,3.67-3.36-3.52v1.5l4.11,4.16h-4.11v1.11h8.3v-1.11Z"/>
    <path d="M1091.3,1207.01h.95v-5.53h-.95v5.53ZM1093.82,1207.01h.95v-5.53h-.95v5.53Z"/>
    <path d="M1095.96,1196.59c.44-.29.77-.69.99-1.21.22-.51.33-1.14.33-1.9,0-.6-.11-1.14-.33-1.61-.22-.48-.52-.84-.91-1.1-.39-.26-.81-.38-1.25-.38s-.84.12-1.18.35c-.34.23-.62.59-.85,1.08-.15.34-.33.95-.53,1.85-.2.9-.4,1.46-.59,1.67-.19.22-.44.33-.74.33-.34,0-.64-.15-.88-.46-.25-.31-.36-.8-.36-1.47s.13-1.13.4-1.46c.27-.33.66-.52,1.19-.58l-.08-1.06c-.49.02-.92.15-1.31.41-.38.26-.68.62-.87,1.09-.2.48-.3,1.02-.3,1.65,0,.56.09,1.08.28,1.53.19.46.47.81.83,1.05.36.24.76.36,1.17.36.38,0,.73-.1,1.04-.29.31-.2.57-.5.77-.9.16-.31.33-.85.52-1.62.18-.77.32-1.27.4-1.49.13-.35.3-.6.49-.76.2-.15.42-.23.68-.23s.49.08.71.24c.22.16.39.4.51.72s.19.7.19,1.12c0,.48-.08.9-.25,1.28-.16.38-.38.66-.64.84s-.61.3-1.02.35l.09,1.05c.56-.02,1.05-.17,1.49-.46"/>
    <path d="M1097.13,1188.13h-2.38l-.69-.73,3.07-2.01v-1.27l-3.78,2.56-2.23-2.32v1.33l2.44,2.43h-4.73v1.03h8.3v-1.03ZM1097.13,1178.73v-1.08c-.23.13-.47.22-.72.26-.25.04-.85.07-1.8.07h-1.36c-.45,0-.77.02-.94.05-.28.06-.51.17-.69.32s-.34.39-.46.71c-.12.32-.18.74-.18,1.26s.07.98.21,1.38c.14.4.34.7.61.91.26.21.61.36,1.03.45l.14-1c-.43-.11-.72-.28-.89-.51s-.25-.59-.25-1.07c0-.52.12-.91.35-1.17.17-.2.46-.29.88-.29.04,0,.13,0,.27,0,.14.39.25,1,.35,1.83.05.41.1.71.15.91.08.28.19.52.34.74.14.22.34.4.59.53.24.14.51.2.8.2.5,0,.92-.18,1.24-.54.32-.36.48-.87.48-1.53,0-.41-.07-.78-.2-1.13-.13-.35-.36-.72-.68-1.1.28-.03.53-.1.74-.21M1094.49,1179.02c.45,0,.79.06,1.02.17.3.14.53.37.7.68.17.31.26.66.26,1.06s-.09.7-.27.91c-.18.21-.41.32-.68.32-.18,0-.34-.05-.48-.15-.15-.09-.26-.23-.33-.4-.07-.18-.14-.48-.2-.9-.1-.75-.23-1.31-.38-1.68h.37Z"/>
    <path d="M1097.13,1175.61h-2.38l-.69-.73,3.07-2.01v-1.27l-3.78,2.55-2.23-2.32v1.33l2.45,2.43h-4.73v1.03h8.3v-1.03ZM1096.26,1168.94c0,.15-.03.27-.08.35-.05.08-.11.14-.19.17-.09.04-.27.06-.56.06h-3.52v-1.04h-.79v1.04h-2.1l.61,1.02h1.49v.76h.79v-.76h3.46c.61,0,1.01-.04,1.2-.13.19-.08.35-.23.46-.43.12-.21.18-.49.18-.87,0-.23-.03-.49-.09-.78l-.9.15c.03.19.04.34.04.45"/>
    <path d="M1110.69,1224.7h-3.77v-3.93h-.98v3.93h-2.57v-4.55h-.98v5.65h8.3v-1.11ZM1109.51,1218.84c.44-.29.77-.69.99-1.21.22-.51.33-1.14.33-1.9,0-.6-.11-1.14-.33-1.61s-.52-.84-.91-1.1c-.39-.26-.81-.38-1.25-.38s-.84.12-1.18.35c-.34.23-.62.59-.85,1.08-.15.34-.33.95-.53,1.85-.2.9-.4,1.46-.59,1.67-.19.22-.44.33-.74.33-.34,0-.64-.15-.88-.46-.25-.3-.36-.79-.36-1.46s.13-1.13.4-1.46c.26-.33.66-.52,1.19-.58l-.08-1.06c-.49.02-.92.16-1.31.41-.38.26-.68.62-.87,1.09-.2.48-.3,1.02-.3,1.65,0,.56.1,1.08.28,1.53.19.46.47.81.83,1.05.36.24.76.36,1.17.36.38,0,.72-.1,1.03-.29.31-.2.56-.5.77-.9.16-.31.33-.85.52-1.62.18-.77.32-1.27.4-1.49.13-.35.29-.6.49-.76.19-.15.42-.23.68-.23s.49.08.71.24c.22.16.39.4.51.72s.19.7.19,1.12c0,.48-.08.9-.25,1.28-.16.38-.38.66-.65.85-.27.18-.61.29-1.02.34l.09,1.05c.55-.01,1.05-.17,1.49-.46"/>
    <path d="M1104.86,1208.05h.95v-5.53h-.95v5.53ZM1107.37,1208.05h.95v-5.53h-.95v5.53Z"/>
    <polygon points="1110.68 1196.56 1106.91 1196.56 1106.91 1192.62 1105.94 1192.62 1105.94 1196.56 1103.36 1196.56 1103.36 1192.01 1102.39 1192.01 1102.39 1197.67 1110.68 1197.67 1110.68 1196.56"/>
    <path d="M1110.01,1190.15c.54-.52.81-1.21.81-2.06,0-.53-.12-1.02-.37-1.46-.24-.45-.59-.79-1.03-1.02-.45-.24-1.05-.35-1.83-.35-.95,0-1.7.27-2.24.8-.54.53-.81,1.21-.81,2.04,0,.75.22,1.39.67,1.91.53.63,1.36.94,2.47.94,1.02,0,1.79-.26,2.33-.79M1105.95,1189.37c-.38-.34-.57-.76-.57-1.28s.19-.93.57-1.27c.39-.34.95-.51,1.69-.51.79,0,1.37.17,1.76.51.38.34.58.76.58,1.27s-.19.94-.57,1.28c-.38.34-.96.51-1.73.51s-1.34-.17-1.73-.51M1110.68,1183.28h-3.15c-.43,0-.83-.06-1.19-.17-.24-.08-.42-.21-.56-.38-.14-.18-.2-.38-.2-.61,0-.25.08-.5.22-.76l-.95-.35c-.22.36-.33.71-.33,1.06,0,.24.07.46.2.66.14.2.42.42.84.65h-.91v.92h6.01v-1.03Z"/>
    <path d="M1109.69,1176.95c.2.27.3.59.3.97,0,.51-.18.93-.53,1.27-.35.34-.86.53-1.52.57v-4.52c-.12,0-.21,0-.27,0-.99,0-1.76.26-2.31.77-.55.51-.82,1.18-.82,1.99s.28,1.52.84,2.05c.56.53,1.34.79,2.36.79s1.74-.26,2.28-.78c.54-.52.81-1.23.81-2.11,0-.7-.17-1.28-.51-1.74-.34-.45-.81-.76-1.43-.93l-.13,1.06c.43.15.74.37.94.63M1105.84,1179.16c-.31-.32-.47-.72-.47-1.19,0-.52.2-.95.59-1.27.25-.22.64-.34,1.14-.39v3.39c-.52-.04-.94-.21-1.26-.54M1110.33,1173.49c.32-.42.48-1.01.48-1.81,0-.47-.08-.9-.24-1.28-.17-.38-.4-.67-.7-.86-.3-.2-.62-.3-.96-.3s-.64.08-.87.24c-.23.17-.41.39-.53.68-.12.29-.28.79-.47,1.52-.14.51-.22.81-.26.91-.07.18-.16.31-.27.4-.1.08-.23.13-.36.13-.21,0-.39-.1-.54-.3-.16-.2-.23-.54-.23-1.01,0-.4.08-.71.26-.93s.41-.35.72-.4l-.14-1.01c-.39.07-.7.18-.93.35-.23.17-.42.44-.55.8-.13.36-.2.78-.2,1.25,0,.32.04.61.12.89.08.28.18.49.3.65.15.21.34.38.57.5.23.13.48.19.74.19.29,0,.56-.07.81-.22.24-.15.43-.37.57-.67.14-.29.3-.81.49-1.57.14-.56.25-.91.35-1.05.13-.21.31-.3.54-.3.26,0,.48.12.67.35.19.23.29.58.29,1.05s-.11.83-.32,1.1c-.21.26-.53.42-.93.48l.16,1.02c.64-.11,1.12-.38,1.45-.79M1102.38,1167.95h8.3v-1.03h-8.3v1.03ZM1110.68,1161.06v-1.07c-.23.13-.47.22-.72.26-.25.04-.85.07-1.79.07h-1.36c-.45,0-.77.02-.94.05-.28.06-.51.17-.69.32-.18.15-.33.39-.46.71-.12.32-.18.75-.18,1.26s.07.98.21,1.38c.15.4.35.7.61.91.26.21.61.36,1.03.45l.14-1c-.43-.11-.72-.28-.89-.51-.17-.23-.25-.59-.25-1.07,0-.51.11-.91.34-1.17.17-.19.46-.29.88-.29.04,0,.13,0,.27,0,.14.39.25,1,.35,1.83.05.41.1.71.16.91.07.27.18.52.33.74.15.22.34.4.59.53s.51.2.81.2c.5,0,.92-.18,1.24-.54.32-.36.48-.87.48-1.54,0-.4-.07-.78-.2-1.13-.13-.35-.36-.72-.68-1.1.28-.03.53-.1.74-.21M1108.04,1161.36c.45,0,.79.06,1.02.17.3.14.53.37.7.68.17.31.26.66.26,1.06s-.09.7-.27.91c-.18.21-.41.31-.68.31-.18,0-.34-.05-.49-.14-.14-.1-.25-.23-.33-.41-.07-.18-.14-.48-.2-.9-.11-.75-.23-1.31-.38-1.68h.38ZM1103.87,1163.51c.2-.2.3-.45.3-.73s-.1-.52-.3-.72c-.2-.2-.45-.3-.74-.3s-.53.1-.74.3c-.2.21-.3.45-.3.73s.1.52.3.72c.2.21.44.31.71.31.3,0,.55-.1.76-.3M1102.69,1163.2c-.12-.12-.18-.26-.18-.42s.06-.31.18-.43c.12-.12.27-.18.44-.18s.32.06.44.18c.12.12.18.26.18.43s-.06.3-.18.42c-.12.12-.27.18-.45.18s-.31-.06-.43-.18M1109.69,1155.11c.2.27.3.59.3.97,0,.51-.18.93-.53,1.27-.35.34-.86.53-1.52.56v-4.52c-.12,0-.21,0-.27,0-.99,0-1.76.26-2.31.77-.55.51-.82,1.18-.82,1.99s.28,1.52.84,2.04c.56.53,1.34.79,2.36.79s1.74-.26,2.28-.78c.54-.52.81-1.23.81-2.11,0-.7-.17-1.28-.51-1.74-.34-.45-.81-.76-1.43-.93l-.13,1.06c.43.15.74.37.94.63M1105.84,1157.32c-.31-.32-.47-.72-.47-1.19,0-.52.2-.95.59-1.27.25-.22.64-.34,1.14-.39v3.39c-.52-.04-.94-.21-1.26-.54"/>
    <path d="M1109.81,1150.17c0,.15-.03.27-.07.35-.05.08-.12.14-.2.18-.08.04-.27.06-.56.06h-3.51v-1.04h-.79v1.04h-2.1l.61,1.02h1.49v.76h.79v-.76h3.46c.61,0,1.01-.04,1.2-.13.19-.08.35-.23.46-.43.12-.21.18-.49.18-.87,0-.23-.03-.49-.09-.78l-.9.15c.03.19.04.34.04.45M1110.33,1145.34c.33-.41.49-1.01.49-1.8,0-.48-.08-.9-.25-1.28-.16-.38-.4-.66-.7-.87-.3-.2-.62-.3-.96-.3s-.63.08-.87.25c-.23.16-.41.39-.53.68-.12.29-.28.79-.47,1.52-.14.5-.22.8-.26.91-.07.18-.16.31-.27.4-.1.08-.22.13-.36.13-.2,0-.39-.1-.54-.3-.15-.2-.23-.54-.23-1.01,0-.4.08-.71.26-.93.17-.22.42-.35.72-.4l-.13-1.01c-.39.07-.7.18-.93.35-.23.17-.42.44-.55.8-.14.36-.2.78-.2,1.25,0,.32.04.61.12.89.08.28.18.49.3.65.15.21.34.38.57.5.23.12.48.19.74.19.29,0,.56-.07.81-.22.24-.15.43-.37.57-.67.13-.29.3-.81.49-1.57.14-.56.26-.91.35-1.05.13-.2.31-.3.54-.3.25,0,.48.11.67.34.19.23.29.58.29,1.05s-.11.83-.32,1.09c-.21.26-.53.42-.93.48l.16,1.01c.64-.11,1.12-.37,1.45-.79"/>
    <path d="M1110.68,1138.42h-2.38l-.69-.72,3.07-2.01v-1.27l-3.78,2.56-2.23-2.32v1.33l2.44,2.43h-4.73v1.03h8.3v-1.03ZM1110.68,1129.38v-1.08c-.23.13-.47.22-.72.26-.25.04-.85.07-1.8.07h-1.36c-.45,0-.76.02-.94.05-.28.06-.51.17-.69.32-.18.15-.34.39-.46.71-.12.32-.18.74-.18,1.26s.07.98.21,1.38c.14.4.35.7.61.91.26.21.61.36,1.03.45l.14-1c-.42-.11-.72-.28-.89-.51-.17-.23-.25-.59-.25-1.07,0-.52.12-.91.35-1.17.17-.2.46-.29.88-.29.04,0,.13,0,.27,0,.14.39.25,1,.35,1.83.05.41.1.71.15.91.08.28.19.52.34.74.14.22.34.4.59.53.24.14.51.2.8.2.5,0,.92-.18,1.24-.54.32-.36.48-.87.48-1.53,0-.41-.07-.78-.2-1.13-.13-.35-.36-.72-.68-1.1.28-.03.53-.1.74-.21M1108.04,1129.67c.45,0,.79.06,1.02.16.3.14.53.37.71.68.17.31.26.66.26,1.06s-.09.7-.27.91c-.18.21-.41.31-.68.31-.18,0-.34-.05-.48-.15-.15-.09-.25-.23-.33-.4-.07-.18-.14-.48-.2-.9-.11-.75-.23-1.31-.38-1.68h.37Z"/>
    <path d="M1109.93,1126.35c.59-.41.89-.97.89-1.69s-.28-1.33-.84-1.85c-.56-.51-1.36-.77-2.39-.77-.43,0-.84.06-1.22.18-.38.12-.7.29-.98.51-.27.21-.48.49-.63.82-.15.33-.22.69-.22,1.06,0,.68.27,1.23.81,1.66h-2.96v1.03h8.3v-.95h-.75ZM1105.95,1125.87c-.39-.33-.58-.72-.58-1.17s.19-.83.56-1.14c.37-.32.96-.47,1.74-.47s1.34.16,1.73.49c.38.33.58.72.58,1.17,0,.55-.26.99-.79,1.32-.32.2-.84.29-1.56.29s-1.29-.16-1.68-.49"/>
    <path d="M1109.62,806.31c.57-.46.86-1.1.86-1.9,0-.61-.16-1.12-.49-1.52-.33-.4-.79-.7-1.39-.9-.6-.2-1.39-.3-2.36-.3-.82,0-1.48.06-1.96.19-.48.12-.89.3-1.23.52-.34.22-.6.5-.78.84-.18.34-.27.73-.27,1.18,0,.61.16,1.12.49,1.52.32.4.78.71,1.38.91s1.39.31,2.37.31c1.56,0,2.68-.28,3.37-.83M1103.44,805.55c-.39-.28-.59-.66-.59-1.13s.23-.88.68-1.2c.45-.32,1.35-.48,2.72-.48s2.27.16,2.72.48c.45.32.68.72.68,1.19s-.22.87-.67,1.19c-.45.32-1.36.48-2.72.48s-2.3-.18-2.8-.53M1109.36,648.05c-.18-.11-.37-.26-.55-.44-.18-.17-.53-.57-1.04-1.19-.62-.74-1.11-1.27-1.46-1.59-.36-.32-.7-.55-1.02-.68s-.65-.21-.98-.21c-.66,0-1.2.23-1.64.7-.44.47-.66,1.11-.66,1.91s.2,1.43.61,1.9c.41.47,1,.75,1.78.82l.11-1.06c-.52,0-.93-.15-1.22-.45-.29-.3-.44-.69-.44-1.19,0-.47.14-.85.42-1.14.28-.29.62-.44,1.02-.44s.79.16,1.22.48c.44.32,1.02.94,1.76,1.84.48.59.89,1.04,1.26,1.35.36.31.73.54,1.1.68.23.09.47.13.71.12v-5.54h-.98v4.11Z"/>
    <path d="M1110.34,641.78h-3.12c-.55,0-.97-.06-1.26-.17-.29-.11-.51-.29-.66-.53-.15-.24-.23-.51-.23-.8,0-.38.12-.65.34-.82.22-.17.56-.25,1.02-.25h3.91v-1.03h-3.49c-.62,0-1.07-.14-1.35-.42-.28-.28-.42-.64-.42-1.06,0-.24.06-.44.17-.62.11-.18.25-.3.43-.36.18-.07.47-.1.88-.1h3.78v-1.03h-4.13c-.69,0-1.2.16-1.52.49-.33.33-.49.79-.49,1.39,0,.77.35,1.39,1.05,1.88-.33.12-.59.32-.77.61-.18.29-.27.66-.27,1.11,0,.4.09.76.27,1.08.18.32.42.57.71.76h-.84v.92h6.01v-1.03Z"/>
    <path d="M1102,725.06v.66c.36.18.73.48,1.11.91.38.43.7.93.97,1.51h.98c-.12-.32-.29-.68-.52-1.08-.23-.4-.47-.73-.7-.97h6.49v-1.03h-8.33ZM1110.34,721.02h-3.12c-.55,0-.97-.06-1.26-.17-.29-.11-.51-.29-.66-.53-.15-.24-.23-.51-.23-.8,0-.38.12-.65.34-.82.22-.17.56-.25,1.02-.25h3.91v-1.03h-3.49c-.62,0-1.07-.14-1.35-.43-.28-.28-.42-.63-.42-1.06,0-.24.06-.44.17-.62.11-.18.25-.3.43-.36.18-.07.47-.1.88-.1h3.78v-1.02h-4.13c-.69,0-1.2.16-1.52.49-.33.33-.49.79-.49,1.39,0,.77.35,1.39,1.05,1.87-.33.12-.59.32-.77.61-.18.29-.27.66-.27,1.11,0,.4.09.76.27,1.08.18.32.42.57.71.76h-.84v.92h6.01v-1.03Z"/>
    <path d="M1110.34,905.08h-7.06l7.06-2.43v-1l-6.95-2.43h6.95v-1.07h-8.3v1.49l5.77,2.01c.59.2,1.03.35,1.33.45-.27.08-.68.21-1.23.4l-5.87,1.98v1.67h8.3v-1.07ZM1110.34,892.7v-1.07c-.23.13-.47.21-.72.26-.25.04-.85.06-1.8.06h-1.36c-.45,0-.77.02-.94.05-.28.06-.51.17-.69.32-.18.15-.34.39-.46.71-.12.33-.18.75-.18,1.26s.07.98.21,1.38c.14.4.35.7.61.91.26.21.61.36,1.04.45l.14-1.01c-.42-.11-.72-.28-.89-.51-.17-.23-.25-.59-.25-1.07,0-.52.12-.91.35-1.17.17-.19.46-.29.88-.29.04,0,.13,0,.27,0,.14.39.25,1.01.35,1.84.05.41.1.71.15.91.08.27.19.52.34.74.15.22.34.39.59.53.24.13.51.2.81.2.5,0,.91-.18,1.23-.54.33-.36.49-.87.49-1.54,0-.4-.07-.78-.2-1.13-.13-.35-.36-.72-.68-1.1.28-.03.53-.1.74-.21M1107.69,892.99c.45,0,.79.06,1.02.17.3.14.54.37.71.68.17.31.26.66.26,1.06s-.09.71-.27.91c-.18.21-.4.31-.68.31-.18,0-.34-.05-.48-.14s-.25-.23-.33-.4c-.07-.18-.14-.48-.2-.9-.1-.75-.23-1.31-.38-1.68h.37ZM1103.52,895.14c.2-.2.3-.45.3-.73s-.1-.52-.3-.72c-.2-.2-.44-.3-.73-.3s-.53.1-.73.3-.3.44-.3.73.1.52.3.72c.2.21.44.31.71.31.3,0,.55-.1.75-.3M1102.34,894.83c-.12-.12-.18-.26-.18-.43s.06-.31.18-.43c.12-.12.27-.17.44-.17s.31.06.43.18c.12.12.18.26.18.43s-.06.31-.18.43c-.12.12-.27.18-.45.18-.17,0-.31-.06-.43-.18"/>
    <rect x="1102.04" y="889.26" width="8.3" height="1.03"/>
    <path d="M1102.01,880.76v.67c.36.18.73.48,1.11.91.38.43.71.93.98,1.51h.98c-.12-.32-.29-.68-.53-1.08-.24-.4-.47-.73-.7-.97h6.5v-1.03h-8.33ZM1104.33,877.47h1.16v-1.17h-1.16v1.17ZM1109.18,877.47h1.16v-1.17h-1.16v1.17Z"/>
    <path d="M1109.84,874.08c.42-.48.64-1.1.64-1.87,0-.93-.34-1.66-1.01-2.2-.55-.44-1.2-.66-1.95-.66s-1.43.25-1.94.75c-.5.51-.75,1.12-.75,1.85,0,.55.18,1.08.52,1.58l-2.23-.45v-3.34h-.97v4.17l4.26.81.12-.97c-.24-.15-.43-.36-.58-.63-.15-.27-.22-.57-.22-.9,0-.53.17-.96.51-1.3.33-.33.79-.49,1.37-.49s1.1.17,1.47.51c.37.34.55.76.55,1.26,0,.41-.13.76-.39,1.05-.26.29-.65.48-1.18.56l.09,1.08c.7-.07,1.26-.34,1.68-.82M1109.62,867.48c.57-.46.86-1.09.86-1.9,0-.62-.16-1.12-.49-1.52-.33-.4-.79-.7-1.39-.9-.6-.2-1.39-.3-2.36-.3-.82,0-1.47.06-1.96.19-.48.12-.9.3-1.23.52-.34.22-.6.5-.77.84-.18.34-.27.73-.27,1.18,0,.61.16,1.12.49,1.52.32.4.79.71,1.38.91.6.21,1.39.31,2.37.31,1.56,0,2.68-.28,3.38-.83M1103.44,866.72c-.4-.28-.59-.66-.59-1.13s.22-.88.67-1.2c.45-.32,1.36-.48,2.72-.48s2.27.16,2.72.48c.45.32.68.72.68,1.19s-.23.87-.68,1.19c-.45.32-1.36.48-2.72.48s-2.29-.18-2.8-.53"/>
    <polygon class="st14" points="1110.34 506.64 1087.05 495.17 1094 480.22 1117.63 491.69 1110.34 506.64"/>
    <polygon points="1107.5 500.72 1095.82 495.07 1111.3 492.89 1112.28 490.86 1097.41 483.66 1096.49 485.55 1108.17 491.21 1092.7 493.39 1091.72 495.42 1106.59 502.62 1107.5 500.72"/>
    <path d="M1109.83,566.48c.44-.49.66-1.1.66-1.83,0-.82-.25-1.49-.76-2.02-.51-.53-1.12-.8-1.84-.8-.54,0-.98.14-1.34.41-.36.28-.59.66-.71,1.16-.17-.38-.41-.67-.7-.87-.29-.19-.62-.29-.98-.29-.38,0-.74.1-1.07.31-.33.2-.6.5-.79.88-.2.39-.29.81-.29,1.26,0,.66.19,1.22.57,1.67.38.44.9.73,1.59.85l.18-1.03c-.5-.08-.87-.25-1.12-.52-.25-.26-.37-.6-.37-1s.12-.73.37-.99c.25-.26.55-.39.93-.39.47,0,.82.18,1.05.53.23.35.34.74.34,1.18,0,.04,0,.1-.01.16l.9.12c-.08-.29-.11-.53-.11-.73,0-.48.15-.87.46-1.18.3-.31.69-.46,1.16-.46s.9.17,1.24.5c.33.33.5.74.5,1.22,0,.41-.13.75-.38,1.04-.25.28-.67.49-1.25.6l.14,1.03c.69-.07,1.25-.35,1.68-.83M1110.34,559.76h-3.12c-.55,0-.97-.06-1.26-.17-.29-.11-.51-.29-.66-.53-.15-.24-.23-.51-.23-.8,0-.38.12-.65.34-.82.22-.17.56-.25,1.02-.25h3.91v-1.03h-3.49c-.62,0-1.07-.14-1.35-.43-.28-.28-.42-.63-.42-1.06,0-.24.06-.44.17-.62.11-.18.25-.3.43-.36.18-.07.47-.1.88-.1h3.78v-1.02h-4.13c-.69,0-1.2.16-1.52.49-.33.33-.49.79-.49,1.39,0,.77.35,1.39,1.05,1.87-.33.12-.59.32-.77.61-.18.29-.27.66-.27,1.11,0,.4.09.76.27,1.08.18.32.42.57.71.76h-.84v.92h6.01v-1.03Z"/>
    <rect class="st14" x="-4.27" y="1150.66" width="19.46" height="101.49"/>
    <path d="M9.96,1250.68c.66-.43,1.15-1.03,1.48-1.79.33-.76.49-1.7.49-2.82,0-.89-.16-1.68-.48-2.4-.33-.71-.78-1.25-1.36-1.63-.59-.38-1.2-.57-1.87-.57s-1.25.17-1.76.52c-.51.34-.93.88-1.26,1.6-.22.5-.49,1.42-.79,2.75-.3,1.34-.6,2.16-.88,2.48-.29.32-.65.48-1.1.48-.51,0-.95-.23-1.32-.68-.36-.45-.55-1.18-.55-2.18s.2-1.68.6-2.16c.4-.49.99-.78,1.78-.86l-.12-1.58c-.72.03-1.38.23-1.95.61-.57.38-1.01.92-1.31,1.62-.29.7-.44,1.52-.44,2.44,0,.84.14,1.6.42,2.28.28.68.69,1.2,1.24,1.56.55.35,1.13.53,1.76.53.57,0,1.08-.14,1.54-.44.46-.29.85-.73,1.15-1.32.24-.46.5-1.26.77-2.4.27-1.15.48-1.88.61-2.22.2-.52.44-.89.73-1.12.29-.23.63-.34,1.02-.34s.73.12,1.06.35c.32.23.58.59.77,1.07.18.48.28,1.04.28,1.66,0,.71-.12,1.34-.37,1.91-.25.57-.57.98-.96,1.25-.4.27-.9.44-1.52.52l.14,1.55c.83-.02,1.57-.25,2.22-.68M10.41,1236.51c0,.22-.03.4-.11.52-.07.12-.17.21-.29.26-.12.05-.4.08-.83.08H3.93v-1.53h-1.18v1.53H-.39l.91,1.52h2.22v1.12h1.18v-1.12h5.16c.91,0,1.51-.06,1.8-.19.28-.12.51-.34.69-.64.18-.31.26-.73.26-1.29,0-.34-.05-.72-.14-1.15l-1.34.22c.04.28.06.5.06.67"/>
    <path d="M11.71,1227.05H2.74v1.53h4.8c.77,0,1.35.09,1.75.25.4.17.72.45.96.85.23.4.35.83.35,1.29s-.11.84-.34,1.15c-.22.31-.54.52-.94.61-.27.06-.81.09-1.6.09H2.74v1.53h5.56c.65,0,1.12-.03,1.42-.09.44-.09.82-.25,1.13-.47.31-.22.56-.56.76-1.02s.31-.96.31-1.49c0-1.21-.51-2.16-1.52-2.86h1.32v-1.37ZM10.23,1219.4c.29.39.44.87.44,1.43,0,.75-.26,1.38-.79,1.88-.52.5-1.28.78-2.26.84v-6.72c-.18,0-.32,0-.41,0-1.48,0-2.63.38-3.45,1.14-.81.76-1.22,1.74-1.22,2.95s.42,2.26,1.25,3.03c.83.78,2,1.17,3.51,1.17s2.59-.38,3.4-1.16c.81-.77,1.21-1.81,1.21-3.13,0-1.05-.25-1.91-.76-2.58-.51-.67-1.22-1.13-2.14-1.38l-.2,1.57c.64.23,1.11.55,1.4.94M4.49,1222.68c-.47-.48-.7-1.07-.7-1.77,0-.77.29-1.4.88-1.89.38-.32.94-.51,1.7-.58v5.03c-.78-.05-1.41-.31-1.88-.79M2.74,1214.51h1.73v-1.74h-1.73v1.74ZM9.98,1214.51h1.73v-1.74h-1.73v1.74ZM.1,1198.84c-.55.62-.82,1.43-.82,2.4,0,1.31.48,2.36,1.42,3.13,1.09.89,2.83,1.33,5.22,1.33,2.14,0,3.67-.4,4.61-1.2.93-.8,1.4-1.84,1.4-3.11,0-.75-.18-1.41-.53-2-.36-.59-.87-1.05-1.54-1.39-.67-.34-1.39-.5-2.17-.5-1.18,0-2.14.36-2.89,1.07-.75.71-1.12,1.58-1.12,2.6,0,.58.13,1.14.4,1.67.27.53.68.98,1.24,1.35-1.24-.01-2.19-.16-2.86-.43-.67-.28-1.18-.66-1.53-1.13-.27-.37-.4-.79-.4-1.28,0-.61.22-1.12.65-1.53.27-.25.7-.44,1.3-.57l-.12-1.52c-.96.12-1.72.5-2.26,1.12M5.76,1203.23c-.49-.48-.74-1.07-.74-1.76s.25-1.27.74-1.73c.49-.46,1.17-.69,2.02-.69s1.6.23,2.11.69c.52.47.78,1.02.78,1.66,0,.44-.12.86-.37,1.26-.25.4-.62.72-1.1.94-.48.22-.98.34-1.5.34-.8,0-1.45-.24-1.94-.72M9.98,1195.09h1.73v-1.74h-1.73v1.74ZM11.71,1185.8c0-.79-.07-1.46-.21-2.01-.14-.55-.34-1-.61-1.36-.27-.36-.66-.66-1.15-.91-.5-.25-1.04-.37-1.62-.37-.72,0-1.34.2-1.88.61-.53.41-.9.98-1.12,1.73-.29-.58-.66-1.01-1.13-1.3-.47-.29-.97-.43-1.5-.43-.57,0-1.11.16-1.63.49-.52.33-.91.78-1.16,1.35-.25.58-.37,1.34-.37,2.29v4.66h12.38v-4.74ZM.79,1188.89v-2.48c0-.89.06-1.52.17-1.89.11-.36.33-.65.64-.84.31-.2.68-.3,1.09-.3.44,0,.79.11,1.08.32.29.21.49.53.62.95.1.32.14.84.14,1.57v2.69H.79ZM5.99,1188.89v-2.87c0-.79.07-1.4.21-1.82.14-.42.38-.75.72-.99.34-.24.74-.36,1.2-.36.39,0,.74.08,1.04.25.3.16.53.37.69.63.16.26.27.57.34.95.04.21.06.59.06,1.12v3.09h-4.26ZM9.98,1178.62h1.73v-1.74h-1.73v1.74ZM10.64,1173.38c.85-.68,1.28-1.62,1.28-2.82,0-.91-.24-1.66-.73-2.26-.48-.6-1.18-1.04-2.07-1.34s-2.06-.45-3.52-.45c-1.23,0-2.2.09-2.93.28-.72.19-1.34.44-1.84.77-.5.33-.89.74-1.15,1.25-.27.5-.4,1.09-.4,1.75,0,.9.24,1.66.72,2.25.49.6,1.18,1.05,2.07,1.35s2.07.45,3.54.45c2.32,0,4-.41,5.03-1.23M1.42,1172.26c-.59-.42-.89-.98-.89-1.68s.33-1.31,1.01-1.79c.67-.48,2.02-.71,4.06-.71s3.38.24,4.06.71c.67.48,1.01,1.07,1.01,1.77s-.33,1.29-1.01,1.77c-.67.48-2.03.72-4.06.72s-3.43-.26-4.18-.79M9.98,1164.07h1.73v-1.74h-1.73v1.74ZM10.98,1158.84c.63-.71.94-1.64.94-2.77,0-1.38-.5-2.47-1.5-3.26-.82-.66-1.78-.98-2.91-.98-1.18,0-2.14.37-2.89,1.12-.75.75-1.13,1.66-1.13,2.75,0,.82.26,1.6.78,2.35l-3.33-.67v-4.96H-.5v6.18l6.36,1.21.18-1.44c-.35-.22-.64-.54-.87-.93-.22-.4-.33-.84-.33-1.33,0-.79.25-1.43.75-1.92.5-.49,1.18-.73,2.05-.73.91,0,1.64.26,2.19.76s.83,1.13.83,1.87c0,.61-.2,1.13-.59,1.56-.39.43-.98.71-1.75.83l.14,1.6c1.04-.1,1.88-.51,2.51-1.23"/>
    <path class="st3" d="M721.07,1152.74h-1.04M717.6,1152.74h-2.43M712.73,1152.74h-2.43M707.87,1152.74h-2.78M702.65,1152.74h-2.43M697.79,1152.74h-2.43M692.92,1152.74h-2.43M688.06,1152.74h-2.43M683.19,1152.74h-2.43M677.98,1152.74h-2.43M673.11,1152.74h-1.04M672.07,1152.74v1.39M672.07,1156.56v2.43M672.07,1161.43v2.43M672.07,1166.3v2.43M672.07,1171.16v2.43M672.07,1176.03v2.78M672.07,1181.24v2.43M672.07,1186.11v2.43M672.07,1190.97v2.43M672.07,1195.84v2.43M672.07,1200.7v1.39M672.07,1202.09h1.04M675.55,1202.09h2.43M680.76,1202.09h2.43M685.62,1202.09h2.43M690.49,1202.09h2.43M695.35,1202.09h2.43M700.22,1202.09h2.43M705.09,1202.09h2.78M710.3,1202.09h2.43M715.17,1202.09h2.43M720.03,1202.09h1.04M721.07,1202.09v-1.39M721.07,1198.27v-2.43M721.07,1193.41v-2.43M721.07,1188.54v-2.43M721.07,1183.67v-2.43M721.07,1178.81v-2.78M721.07,1173.59v-2.43M721.07,1168.73v-2.43M721.07,1163.86v-2.43M721.07,1159v-2.43M721.07,1154.13v-1.39M672.07,1103.39v1.39M672.07,1107.21v2.43M672.07,1112.08v2.43M672.07,1116.94v2.43M672.07,1122.16v2.43M672.07,1127.02v2.43M672.07,1131.89v2.43M672.07,1136.75v2.43M672.07,1141.62v2.43M672.07,1146.49v2.43M672.07,1151.7v1.04M672.07,1152.74h1.04M675.55,1152.74h2.43M680.76,1152.74h2.43M685.62,1152.74h2.43M690.49,1152.74h2.43M695.35,1152.74h2.43M700.22,1152.74h2.43M705.09,1152.74h2.78M710.3,1152.74h2.43M715.17,1152.74h2.43M720.03,1152.74h1.04M721.07,1152.74v-1.04M721.07,1148.92v-2.43M721.07,1144.05v-2.43M721.07,1139.19v-2.43M721.07,1134.32v-2.43M721.07,1129.46v-2.43M721.07,1124.59v-2.43M721.07,1119.38v-2.43M721.07,1114.51v-2.43M721.07,1109.64v-2.43M721.07,1104.78v-1.39"/>
  </g>
  <g class="st11">
    <polygon class="st14" points="639.05 708.57 647.4 707.18 655.74 708.57 663.38 712.39 663.04 712.74 662.34 712.74 661.99 712.74 661.64 712.74 661.3 712.74 659.56 711.69 657.82 711 656.43 711.35 655.39 712.39 655.04 713.08 655.74 713.43 661.3 718.3 665.12 724.55 629.67 724.55 633.49 718.3 639.05 713.43 639.4 713.08 639.4 712.39 638.36 711.35 636.97 711 635.23 711.69 633.49 712.74 633.15 712.74 632.8 712.74 632.45 712.74 631.76 712.74 631.41 712.74 631.41 712.39 639.05 708.57"/>
    <polygon class="st14" points="688.06 708.57 696.75 707.18 705.09 708.57 712.74 712.39 712.39 712.74 712.04 712.74 711.69 712.74 711.35 712.74 710.65 712.74 710.3 712.74 708.91 711.69 707.17 711 705.44 711.35 704.39 712.39 704.39 713.08 704.74 713.43 710.65 718.3 714.47 724.55 679.02 724.55 682.5 718.3 688.41 713.43 688.75 713.08 688.75 712.39 687.71 711.35 686.32 711 684.58 711.69 682.85 712.74 682.5 712.74 682.15 712.74 681.46 712.74 681.11 712.74 680.76 712.74 680.76 712.39 688.06 708.57"/>
    <polygon class="st14" points="714.47 724.55 721.08 724.55 721.08 790.24 714.47 790.24 679.02 790.24 665.12 790.24 629.67 790.24 622.72 790.24 622.72 724.55 629.67 724.55 665.12 724.55 679.02 724.55 714.47 724.55"/>
    <polygon class="st14" points="639.4 801.71 639.05 801.36 633.49 796.5 629.67 790.24 665.12 790.24 661.3 796.5 655.73 801.36 655.04 801.71 655.39 802.41 656.43 803.45 657.82 803.8 659.56 803.1 661.3 802.06 661.64 802.06 661.99 802.06 662.34 802.06 663.03 802.06 663.38 802.41 655.73 806.23 647.4 807.62 639.05 806.23 631.41 802.41 631.41 802.06 631.76 802.06 632.45 802.06 632.8 802.06 633.15 802.06 633.49 802.06 635.23 803.1 636.97 803.8 638.36 803.45 639.4 802.41 639.4 801.71"/>
    <polygon class="st14" points="688.75 801.71 688.41 801.36 682.5 796.5 679.02 790.24 714.47 790.24 710.65 796.5 704.74 801.36 704.39 801.71 704.39 802.41 705.44 803.45 707.17 803.8 708.91 803.1 710.3 802.06 710.65 802.06 711.34 802.06 711.69 802.06 712.04 802.06 712.39 802.06 712.74 802.41 705.09 806.23 696.75 807.62 688.06 806.23 680.76 802.41 680.76 802.06 681.11 802.06 681.46 802.06 682.15 802.06 682.5 802.06 682.85 802.06 684.58 803.1 686.32 803.8 687.71 803.45 688.75 802.41 688.75 801.71"/>
  </g>
  <g class="st4">
    <line class="st3" x1="633.49" y1="802.06" x2="633.15" y2="802.06"/>
    <line class="st3" x1="633.14" y1="802.06" x2="632.8" y2="802.06"/>
    <line class="st3" x1="631.75" y1="802.06" x2="632.45" y2="802.06"/>
    <line class="st3" x1="632.45" y1="802.06" x2="632.8" y2="802.06"/>
    <line class="st3" x1="631.41" y1="802.41" x2="631.41" y2="802.06"/>
    <line class="st3" x1="631.41" y1="802.06" x2="631.75" y2="802.06"/>
    <line class="st3" x1="639.4" y1="802.41" x2="638.36" y2="803.45"/>
    <line class="st3" x1="638.36" y1="803.45" x2="636.97" y2="803.8"/>
    <line class="st3" x1="636.97" y1="803.8" x2="635.23" y2="803.1"/>
    <line class="st3" x1="635.23" y1="803.1" x2="633.49" y2="802.06"/>
    <line class="st3" x1="639.05" y1="801.36" x2="639.4" y2="801.71"/>
    <line class="st3" x1="639.4" y1="801.71" x2="639.4" y2="802.41"/>
    <line class="st3" x1="639.05" y1="801.36" x2="633.49" y2="796.5"/>
    <line class="st3" x1="633.49" y1="796.5" x2="629.67" y2="790.24"/>
    <line class="st3" x1="661.3" y1="802.06" x2="661.64" y2="802.06"/>
    <line class="st3" x1="661.64" y1="802.06" x2="661.99" y2="802.06"/>
    <line class="st3" x1="663.03" y1="802.06" x2="662.34" y2="802.06"/>
    <line class="st3" x1="662.34" y1="802.06" x2="661.99" y2="802.06"/>
    <line class="st3" x1="663.38" y1="802.41" x2="663.03" y2="802.06"/>
    <line class="st3" x1="655.39" y1="802.41" x2="656.43" y2="803.45"/>
    <line class="st3" x1="656.43" y1="803.45" x2="657.82" y2="803.8"/>
    <line class="st3" x1="657.82" y1="803.8" x2="659.56" y2="803.1"/>
    <line class="st3" x1="659.56" y1="803.1" x2="661.3" y2="802.06"/>
    <line class="st3" x1="655.74" y1="801.36" x2="655.04" y2="801.71"/>
    <line class="st3" x1="655.04" y1="801.71" x2="655.39" y2="802.41"/>
    <line class="st3" x1="655.74" y1="801.36" x2="661.3" y2="796.5"/>
    <line class="st3" x1="661.3" y1="796.5" x2="665.12" y2="790.24"/>
    <line class="st3" x1="631.41" y1="802.41" x2="639.05" y2="806.23"/>
    <line class="st3" x1="639.05" y1="806.23" x2="647.4" y2="807.62"/>
    <line class="st3" x1="647.39" y1="807.62" x2="655.74" y2="806.23"/>
    <line class="st3" x1="655.74" y1="806.23" x2="663.38" y2="802.41"/>
    <line class="st3" x1="633.49" y1="712.74" x2="633.15" y2="712.74"/>
    <line class="st3" x1="633.14" y1="712.74" x2="632.8" y2="712.74"/>
    <line class="st3" x1="631.75" y1="712.74" x2="632.45" y2="712.74"/>
    <line class="st3" x1="632.45" y1="712.74" x2="632.8" y2="712.74"/>
    <line class="st3" x1="631.41" y1="712.39" x2="631.41" y2="712.73"/>
    <line class="st3" x1="631.41" y1="712.74" x2="631.75" y2="712.74"/>
    <line class="st3" x1="639.4" y1="712.39" x2="638.36" y2="711.34"/>
    <line class="st3" x1="638.36" y1="711.35" x2="636.97" y2="711"/>
    <line class="st3" x1="636.97" y1="711" x2="635.23" y2="711.69"/>
    <line class="st3" x1="635.23" y1="711.69" x2="633.49" y2="712.74"/>
    <line class="st3" x1="639.05" y1="713.43" x2="639.4" y2="713.08"/>
    <line class="st3" x1="639.4" y1="713.08" x2="639.4" y2="712.39"/>
    <line class="st3" x1="639.05" y1="713.43" x2="633.49" y2="718.3"/>
    <line class="st3" x1="633.49" y1="718.3" x2="629.67" y2="724.55"/>
    <line class="st3" x1="661.3" y1="712.74" x2="661.64" y2="712.74"/>
    <line class="st3" x1="661.64" y1="712.74" x2="661.99" y2="712.74"/>
    <line class="st3" x1="663.03" y1="712.74" x2="662.34" y2="712.74"/>
    <line class="st3" x1="662.34" y1="712.74" x2="661.99" y2="712.74"/>
    <line class="st3" x1="663.38" y1="712.39" x2="663.03" y2="712.73"/>
    <line class="st3" x1="655.39" y1="712.39" x2="656.43" y2="711.34"/>
    <line class="st3" x1="656.43" y1="711.35" x2="657.82" y2="711"/>
    <line class="st3" x1="657.82" y1="711" x2="659.56" y2="711.69"/>
    <line class="st3" x1="659.56" y1="711.69" x2="661.3" y2="712.74"/>
    <line class="st3" x1="655.74" y1="713.43" x2="655.04" y2="713.08"/>
    <line class="st3" x1="655.04" y1="713.08" x2="655.39" y2="712.39"/>
    <line class="st3" x1="655.74" y1="713.43" x2="661.3" y2="718.3"/>
    <line class="st3" x1="661.3" y1="718.3" x2="665.12" y2="724.55"/>
    <line class="st3" x1="631.41" y1="712.39" x2="639.05" y2="708.56"/>
    <line class="st3" x1="639.05" y1="708.57" x2="647.4" y2="707.18"/>
    <line class="st3" x1="647.39" y1="707.18" x2="655.74" y2="708.57"/>
    <line class="st3" x1="655.74" y1="708.57" x2="663.38" y2="712.39"/>
    <line class="st3" x1="622.72" y1="724.55" x2="622.72" y2="790.24"/>
    <line class="st3" x1="710.3" y1="802.06" x2="710.65" y2="802.06"/>
    <line class="st3" x1="710.65" y1="802.06" x2="711.34" y2="802.06"/>
    <line class="st3" x1="712.04" y1="802.06" x2="711.69" y2="802.06"/>
    <line class="st3" x1="711.69" y1="802.06" x2="711.35" y2="802.06"/>
    <line class="st3" x1="712.74" y1="802.41" x2="712.39" y2="802.06"/>
    <line class="st3" x1="712.39" y1="802.06" x2="712.04" y2="802.06"/>
    <line class="st3" x1="704.39" y1="802.41" x2="705.44" y2="803.45"/>
    <line class="st3" x1="705.44" y1="803.45" x2="707.17" y2="803.8"/>
    <line class="st3" x1="707.17" y1="803.8" x2="708.91" y2="803.1"/>
    <line class="st3" x1="708.91" y1="803.1" x2="710.3" y2="802.06"/>
    <line class="st3" x1="704.74" y1="801.36" x2="704.39" y2="801.71"/>
    <line class="st3" x1="704.39" y1="801.71" x2="704.39" y2="802.41"/>
    <line class="st3" x1="704.74" y1="801.36" x2="710.65" y2="796.5"/>
    <line class="st3" x1="710.65" y1="796.5" x2="714.47" y2="790.24"/>
    <line class="st3" x1="682.85" y1="802.06" x2="682.5" y2="802.06"/>
    <line class="st3" x1="682.5" y1="802.06" x2="682.15" y2="802.06"/>
    <line class="st3" x1="681.11" y1="802.06" x2="681.46" y2="802.06"/>
    <line class="st3" x1="681.46" y1="802.06" x2="682.15" y2="802.06"/>
    <line class="st3" x1="680.76" y1="802.41" x2="680.76" y2="802.06"/>
    <line class="st3" x1="680.76" y1="802.06" x2="681.11" y2="802.06"/>
    <line class="st3" x1="688.75" y1="802.41" x2="687.71" y2="803.45"/>
    <line class="st3" x1="687.71" y1="803.45" x2="686.32" y2="803.8"/>
    <line class="st3" x1="686.32" y1="803.8" x2="684.58" y2="803.1"/>
    <line class="st3" x1="684.58" y1="803.1" x2="682.84" y2="802.06"/>
    <line class="st3" x1="688.41" y1="801.36" x2="688.75" y2="801.71"/>
    <line class="st3" x1="688.75" y1="801.71" x2="688.75" y2="802.41"/>
    <line class="st3" x1="688.41" y1="801.36" x2="682.5" y2="796.5"/>
    <line class="st3" x1="682.5" y1="796.5" x2="679.02" y2="790.24"/>
    <line class="st3" x1="712.74" y1="802.41" x2="705.09" y2="806.23"/>
    <line class="st3" x1="705.09" y1="806.23" x2="696.75" y2="807.62"/>
    <line class="st3" x1="696.75" y1="807.62" x2="688.06" y2="806.23"/>
    <line class="st3" x1="688.06" y1="806.23" x2="680.76" y2="802.41"/>
    <line class="st3" x1="710.3" y1="712.74" x2="710.65" y2="712.74"/>
    <line class="st3" x1="710.65" y1="712.74" x2="711.34" y2="712.74"/>
    <line class="st3" x1="712.04" y1="712.74" x2="711.69" y2="712.74"/>
    <line class="st3" x1="711.69" y1="712.74" x2="711.35" y2="712.74"/>
    <line class="st3" x1="712.74" y1="712.39" x2="712.39" y2="712.73"/>
    <line class="st3" x1="712.39" y1="712.74" x2="712.04" y2="712.74"/>
    <line class="st3" x1="704.39" y1="712.39" x2="705.44" y2="711.34"/>
    <line class="st3" x1="705.44" y1="711.35" x2="707.17" y2="711"/>
    <line class="st3" x1="707.17" y1="711" x2="708.91" y2="711.69"/>
    <line class="st3" x1="708.91" y1="711.69" x2="710.3" y2="712.74"/>
    <line class="st3" x1="704.74" y1="713.43" x2="704.39" y2="713.08"/>
    <line class="st3" x1="704.39" y1="713.08" x2="704.39" y2="712.39"/>
    <line class="st3" x1="704.74" y1="713.43" x2="710.65" y2="718.3"/>
    <line class="st3" x1="710.65" y1="718.3" x2="714.47" y2="724.55"/>
    <line class="st3" x1="682.85" y1="712.74" x2="682.5" y2="712.74"/>
    <line class="st3" x1="682.5" y1="712.74" x2="682.15" y2="712.74"/>
    <line class="st3" x1="681.11" y1="712.74" x2="681.46" y2="712.74"/>
    <line class="st3" x1="681.46" y1="712.74" x2="682.15" y2="712.74"/>
    <line class="st3" x1="680.76" y1="712.39" x2="680.76" y2="712.73"/>
    <line class="st3" x1="680.76" y1="712.74" x2="681.11" y2="712.74"/>
    <line class="st3" x1="688.75" y1="712.39" x2="687.71" y2="711.34"/>
    <line class="st3" x1="687.71" y1="711.35" x2="686.32" y2="711"/>
    <line class="st3" x1="686.32" y1="711" x2="684.58" y2="711.69"/>
    <line class="st3" x1="684.58" y1="711.69" x2="682.84" y2="712.74"/>
    <line class="st3" x1="688.41" y1="713.43" x2="688.75" y2="713.08"/>
    <line class="st3" x1="688.75" y1="713.08" x2="688.75" y2="712.39"/>
    <line class="st3" x1="688.41" y1="713.43" x2="682.5" y2="718.3"/>
    <line class="st3" x1="682.5" y1="718.3" x2="679.02" y2="724.55"/>
    <line class="st3" x1="712.74" y1="712.39" x2="705.09" y2="708.56"/>
    <line class="st3" x1="705.09" y1="708.57" x2="696.75" y2="707.18"/>
    <line class="st3" x1="696.75" y1="707.18" x2="688.06" y2="708.57"/>
    <line class="st3" x1="688.06" y1="708.57" x2="680.76" y2="712.39"/>
    <line class="st3" x1="721.08" y1="724.55" x2="721.08" y2="790.24"/>
    <polyline class="st3" points="721.08 790.24 714.47 790.24 679.02 790.24 665.12 790.24 629.67 790.24 622.72 790.24"/>
    <polyline class="st3" points="622.72 724.55 629.67 724.55 665.12 724.55 679.02 724.55 714.47 724.55 721.08 724.55"/>
    <line class="st3" x1="465.62" y1="888.25" x2="416.62" y2="888.25"/>
    <line class="st3" x1="416.62" y1="880.26" x2="465.62" y2="880.26"/>
    <line class="st3" x1="408.27" y1="941.78" x2="531.31" y2="888.25"/>
    <line class="st3" x1="531.31" y1="941.78" x2="408.27" y2="888.25"/>
    <path class="st14" d="M514.34,839.13c9.88,0,17.9,8.01,17.9,17.9s-8.01,17.9-17.9,17.9-17.9-8.01-17.9-17.9,8.01-17.9,17.9-17.9"/>
    <path class="st1" d="M514.34,839.13c9.88,0,17.9,8.01,17.9,17.9s-8.01,17.9-17.9,17.9-17.9-8.01-17.9-17.9,8.01-17.9,17.9-17.9Z"/>
  </g>
</svg>