<?xml version="1.0" encoding="UTF-8"?>
<svg id="Layer_1" xmlns="http://www.w3.org/2000/svg" xmlns:xlink="http://www.w3.org/1999/xlink" version="1.1" viewBox="0 0 1200 1697.14">
  <!-- Generator: Adobe Illustrator 29.6.0, SVG Export Plug-In . SVG Version: 2.1.1 Build 207)  -->
  <defs>
    <style>
      .st0, .st1, .st2, .st3 {
        fill: none;
      }

      .st1, .st2 {
        stroke: #0d0e1c;
      }

      .st1, .st2, .st3 {
        stroke-width: .09px;
      }

      .st1, .st3 {
        stroke-linecap: round;
        stroke-linejoin: round;
      }

      .st2 {
        stroke-miterlimit: 10;
      }

      .st4 {
        clip-path: url(#clippath-1);
      }

      .st5 {
        clip-path: url(#clippath-3);
      }

      .st6 {
        clip-path: url(#clippath-4);
      }

      .st7 {
        clip-path: url(#clippath-2);
      }

      .st8 {
        clip-path: url(#clippath-7);
      }

      .st9 {
        clip-path: url(#clippath-6);
      }

      .st10 {
        clip-path: url(#clippath-8);
      }

      .st11 {
        clip-path: url(#clippath-5);
      }

      .st12 {
        fill: #fff;
      }

      .st13 {
        fill: #ece9e5;
      }

      .st14 {
        fill: #373a3b;
      }

      .st15 {
        fill: #302c35;
      }

      .st3 {
        stroke: #000;
      }

      .st16 {
        clip-path: url(#clippath);
      }
    </style>
    <clipPath id="clippath">
      <rect class="st0" x="443.98" y="778.07" width="77.47" height="170.41"/>
    </clipPath>
    <clipPath id="clippath-1">
      <rect class="st0" x="221.74" y="441.48" width="756.52" height="814.19"/>
    </clipPath>
    <clipPath id="clippath-2">
      <rect class="st0" x="524.37" y="1021.28" width="30.53" height="41.85"/>
    </clipPath>
    <clipPath id="clippath-3">
      <rect class="st0" x="221.74" y="441.48" width="756.52" height="814.19"/>
    </clipPath>
    <clipPath id="clippath-4">
      <rect class="st0" x="221.74" y="441.48" width="756.52" height="814.19"/>
    </clipPath>
    <clipPath id="clippath-5">
      <rect class="st0" x="449.64" y="1110.4" width="28.68" height="38.71"/>
    </clipPath>
    <clipPath id="clippath-6">
      <rect class="st0" x="221.74" y="441.48" width="756.52" height="814.19"/>
    </clipPath>
    <clipPath id="clippath-7">
      <rect class="st0" x="221.74" y="441.48" width="756.52" height="814.19"/>
    </clipPath>
    <clipPath id="clippath-8">
      <rect class="st0" x="221.74" y="441.48" width="756.52" height="814.19"/>
    </clipPath>
  </defs>
  <rect class="st13" x="422.55" y="666.08" width="359.92" height="515.91"/>
  <rect class="st13" x="483.44" y="522.69" width="253.27" height="194.55"/>
  <rect class="st12" x="714.37" y="930.52" width="56.01" height="104.11"/>
  <rect class="st12" x="714.37" y="1040.21" width="61.04" height="128.23"/>
  <rect class="st12" x="493.35" y="672.21" width="221.03" height="12.61"/>
  <rect class="st15" x="765.53" y="700.31" width="16.93" height="481.69"/>
  <rect class="st15" x="422.55" y="669.69" width="77.82" height="30.62"/>
  <rect class="st15" x="422.55" y="700.31" width="77.82" height="16.93"/>
  <rect class="st15" x="710.77" y="669.69" width="94.03" height="30.62"/>
  <rect class="st15" x="710.77" y="700.31" width="82.14" height="16.93"/>
  <rect class="st15" x="422.55" y="1165.06" width="164.28" height="16.93"/>
  <rect class="st15" x="663.21" y="1165.06" width="112.2" height="16.93"/>
  <rect class="st15" x="422.55" y="717.24" width="18.37" height="447.82"/>
  <rect class="st15" x="706.09" y="1032.48" width="59.44" height="6.48"/>
  <rect class="st15" x="442.73" y="1157.5" width="134.38" height="18.29"/>
  <rect class="st15" x="570.26" y="1014.11" width="6.85" height="58.72"/>
  <rect class="st15" x="570.26" y="1148.13" width="6.85" height="29.37"/>
  <rect class="st15" x="442.73" y="1014.11" width="128.98" height="5.76"/>
  <rect class="st15" x="435.63" y="1014.11" width="12.86" height="152.53"/>
  <rect class="st15" x="448.49" y="1019.87" width="123.22" height="1.44"/>
  <rect class="st15" x="448.49" y="1156.42" width="123.22" height="1.08"/>
  <rect class="st15" x="448.49" y="1019.87" width="1.08" height="136.54"/>
  <rect class="st15" x="440.92" y="950.34" width="127.9" height="8.65"/>
  <rect class="st15" x="568.82" y="950.34" width="8.29" height="63.77"/>
  <rect class="st15" x="422.55" y="666.08" width="72.42" height="3.6"/>
  <rect class="st14" x="714.37" y="667.88" width="86.83" height="1.08"/>
  <rect class="st15" x="714.37" y="666.08" width="90.43" height="3.6"/>
  <polygon class="st12" points="443.98 778.07 443.98 778.51 520.47 778.51 520.47 925.77 521.45 926.25 521.45 778.07 443.98 778.07"/>
  <g class="st16">
    <path class="st12" d="M443.98,887.92v-109.41h76.49v147.27l-17-8.41c-38.51-19.06-42.13-20.84-42.45-21.01l-.04-.02-17-8.41Z"/>
    <path class="st12" d="M443.98,948.48v-60.56l17,8.41v30.16c0,1.93,1.57,3.5,3.51,3.5h35.49c1.93,0,3.5-1.57,3.5-3.5v-9.13l17,8.41v22.71h-76.49Z"/>
    <path class="st12" d="M460.98,926.49v-30.16l.04.02c.33.16,3.95,1.95,42.45,21v9.14c0,1.93-1.57,3.5-3.5,3.5h-35.49c-1.94,0-3.51-1.57-3.51-3.5"/>
  </g>
  <polyline class="st1" points="520.47 925.77 520.47 948.48 443.98 948.48 443.98 887.92"/>
  <polyline class="st1" points="503.47 917.36 520.47 925.77 521.45 926.25 521.45 778.07 443.98 778.07 443.98 778.5 443.98 887.92 460.98 896.33 461.02 896.35"/>
  <line class="st1" x1="499.97" y1="929.99" x2="464.49" y2="929.99"/>
  <g class="st4">
    <path class="st1" d="M464.49,929.99c-1.94,0-3.51-1.57-3.51-3.5"/>
    <path class="st1" d="M503.47,926.49c0,1.93-1.57,3.5-3.5,3.5"/>
    <path class="st1" d="M503.47,926.49v-9.14c-38.51-19.06-42.12-20.84-42.45-21l-.04-.02v30.16"/>
  </g>
  <g class="st7">
    <path class="st12" d="M554.9,1021.29c0,8.23,0,16.46-.02,24.68,0,9.49-6.84,17.17-15.27,17.16-8.43,0-15.25-7.69-15.25-17.18,0-8.22.02-16.45.02-24.67,10.17,0,20.35,0,30.51,0"/>
  </g>
  <g class="st5">
    <path class="st3" d="M554.9,1021.29c0,8.23,0,16.46-.02,24.68,0,9.49-6.84,17.17-15.27,17.16-8.43,0-15.25-7.69-15.25-17.18,0-8.22.02-16.45.02-24.67,10.17,0,20.35,0,30.51,0Z"/>
  </g>
  <rect class="st12" x="449.57" y="1021.29" width="66.7" height="66"/>
  <polyline class="st3" points="516.27 1021.28 516.27 1087.28 508.37 1087.28"/>
  <line class="st3" x1="516.27" y1="1021.28" x2="450.09" y2="1021.28"/>
  <line class="st3" x1="449.57" y1="1022.37" x2="449.57" y2="1086.7"/>
  <polyline class="st3" points="449.57 1022.37 449.57 1021.28 450.09 1021.28"/>
  <polyline class="st3" points="450.55 1087.28 449.57 1087.28 449.57 1086.7"/>
  <line class="st3" x1="450.55" y1="1087.28" x2="508.37" y2="1087.28"/>
  <line class="st3" x1="483.18" y1="1021.28" x2="483.18" y2="1039.62"/>
  <g class="st6">
    <path class="st3" d="M487.2,1039.53c0-2.27-1.84-4.1-4.1-4.1s-4.1,1.84-4.1,4.1,1.84,4.1,4.1,4.1,4.1-1.84,4.1-4.1Z"/>
    <path class="st3" d="M487.2,1039.53c0-2.27-1.84-4.1-4.1-4.1s-4.1,1.84-4.1,4.1,1.84,4.1,4.1,4.1,4.1-1.84,4.1-4.1Z"/>
  </g>
  <g class="st11">
    <path class="st12" d="M476.11,1148.46h-16.16c-.62,0-1.12-.37-1.12-.83v-35.59c0-.45.5-.82,1.12-.82h16.16c.62,0,1.11.37,1.11.82v35.59c0,.46-.49.83-1.11.83M468.32,1132.77c1.61,0,2.92-1.32,2.92-2.93s-1.31-2.92-2.92-2.92-2.93,1.3-2.93,2.92,1.32,2.93,2.93,2.93"/>
    <path class="st12" d="M456.11,1129.84c0,1.22-.99,2.2-2.2,2.2s-2.19-.98-2.19-2.2.98-2.19,2.19-2.19,2.2.98,2.2,2.19"/>
    <path class="st12" d="M468.32,1131.41c-.87,0-1.58-.71-1.58-1.58s.71-1.57,1.58-1.57,1.57.71,1.57,1.57-.7,1.58-1.57,1.58"/>
    <path class="st12" d="M466.74,1129.83c0,.87.71,1.57,1.58,1.57s1.57-.71,1.57-1.57-.7-1.57-1.57-1.57-1.58.71-1.58,1.57M468.32,1126.92c1.61,0,2.92,1.31,2.92,2.92s-1.31,2.93-2.92,2.93-2.93-1.32-2.93-2.93,1.32-2.92,2.93-2.92"/>
    <path class="st12" d="M459.95,1111.23c-.62,0-1.12.37-1.12.82v35.59c0,.46.5.83,1.12.83h16.16c.62,0,1.1-.37,1.1-.83v-35.59c0-.45-.49-.82-1.1-.82h-16.16ZM453.91,1127.64c-1.21,0-2.19.98-2.19,2.19s.99,2.2,2.19,2.2,2.2-.99,2.2-2.2-.99-2.19-2.2-2.19M468.48,1110.4h8.74c.62,0,1.11.37,1.11.83v37.23c0,.36-.49.65-1.11.65h-27.58v-38.71h18.84Z"/>
  </g>
  <g class="st9">
    <path class="st3" d="M453.91,1127.64c1.21,0,2.2.97,2.2,2.19s-.99,2.2-2.2,2.2-2.19-.98-2.19-2.2.99-2.19,2.19-2.19Z"/>
    <path class="st3" d="M468.32,1126.92c1.61,0,2.92,1.31,2.92,2.92s-1.31,2.93-2.92,2.93-2.93-1.32-2.93-2.93,1.32-2.92,2.93-2.92Z"/>
    <path class="st3" d="M468.32,1128.26c.87,0,1.57.71,1.57,1.57s-.7,1.58-1.57,1.58-1.58-.71-1.58-1.58.71-1.57,1.58-1.57Z"/>
    <path class="st3" d="M459.95,1148.46h16.16c.62,0,1.1-.37,1.1-.83v-35.59c0-.45-.49-.82-1.1-.82h-16.16c-.62,0-1.12.37-1.12.82v35.59c0,.46.5.83,1.12.83Z"/>
  </g>
  <line class="st3" x1="458.16" y1="1110.4" x2="449.63" y2="1110.4"/>
  <g class="st8">
    <path class="st3" d="M449.64,1149.11h27.58c.62,0,1.11-.29,1.11-.65v-37.23c0-.46-.49-.83-1.11-.83h-8.74"/>
  </g>
  <line class="st3" x1="458.16" y1="1110.4" x2="468.48" y2="1110.4"/>
  <line class="st3" x1="449.64" y1="1110.4" x2="449.64" y2="1149.11"/>
  <line class="st3" x1="758.83" y1="1065.88" x2="747.44" y2="1065.88"/>
  <rect class="st3" x="714.37" y="1040.21" width="51" height="125.05"/>
  <line class="st3" x1="730.39" y1="1135.26" x2="730.39" y2="1124.12"/>
  <line class="st3" x1="751.32" y1="1135.26" x2="751.32" y2="1124.12"/>
  <line class="st3" x1="745.83" y1="1129.77" x2="756.96" y2="1129.77"/>
  <line class="st3" x1="724.75" y1="1129.77" x2="735.88" y2="1129.77"/>
  <rect class="st3" x="719.84" y="1117.15" width="42.01" height="24.5"/>
  <rect class="st3" x="725.97" y="1051.79" width="28.33" height="28.33"/>
  <rect class="st3" x="718.92" y="1044.59" width="42.43" height="42.57"/>
  <polygon class="st12" points="721.57 857.03 725.54 863.51 731.3 868.56 732.02 868.92 731.66 869.64 730.58 870.72 729.14 871.08 727.34 870.36 725.54 869.28 725.18 869.28 724.82 869.28 724.46 869.28 723.74 869.28 723.38 869.64 731.3 873.6 739.95 875.04 748.6 873.6 756.52 869.64 756.52 869.28 756.16 869.28 755.44 869.28 755.08 869.28 754.72 869.28 754.36 869.28 752.56 870.36 750.76 871.08 749.32 870.72 748.24 869.64 748.24 868.92 748.6 868.56 754.36 863.51 758.32 857.03 721.57 857.03"/>
  <polygon class="st12" points="670.41 857.03 674.38 863.51 680.5 868.56 680.86 868.92 680.86 869.64 679.78 870.72 677.98 871.08 676.18 870.36 674.74 869.28 674.38 869.28 673.66 869.28 673.3 869.28 672.94 869.28 672.58 869.28 672.22 869.64 680.14 873.6 688.79 875.04 697.79 873.6 705.36 869.64 705.36 869.28 705 869.28 704.64 869.28 703.92 869.28 703.56 869.28 703.2 869.28 701.4 870.36 699.6 871.08 698.16 870.72 697.07 869.64 697.07 868.92 697.43 868.56 703.56 863.51 707.16 857.03 670.41 857.03"/>
  <polygon class="st12" points="758.32 788.94 721.57 788.94 707.16 788.94 670.41 788.94 663.57 788.94 663.57 857.03 670.41 857.03 707.16 857.03 721.57 857.03 758.32 857.03 765.53 857.03 765.53 788.94 758.32 788.94"/>
  <polygon class="st12" points="739.95 770.92 731.3 772.36 723.38 776.32 723.74 776.69 724.46 776.69 724.82 776.69 725.18 776.69 725.54 776.69 727.34 775.6 729.14 774.88 730.58 775.24 731.66 776.32 732.02 777.05 731.3 777.41 725.54 782.45 721.57 788.93 758.32 788.93 754.36 782.45 748.6 777.41 748.23 777.05 748.23 776.32 749.32 775.24 750.76 774.88 752.56 775.6 754.36 776.69 754.72 776.69 755.08 776.69 755.44 776.69 756.16 776.69 756.52 776.69 756.52 776.32 748.6 772.36 739.95 770.92"/>
  <polygon class="st12" points="688.79 770.92 680.14 772.36 672.22 776.32 672.58 776.69 672.94 776.69 673.3 776.69 673.66 776.69 674.38 776.69 674.74 776.69 676.18 775.6 677.98 774.88 679.78 775.24 680.86 776.32 680.86 777.05 680.5 777.41 674.38 782.45 670.42 788.93 707.16 788.93 703.56 782.45 697.44 777.41 697.08 777.05 697.08 776.32 698.16 775.24 699.6 774.88 701.4 775.6 703.2 776.69 703.56 776.69 703.92 776.69 704.64 776.69 705 776.69 705.36 776.69 705.36 776.32 697.8 772.36 688.79 770.92"/>
  <line class="st3" x1="754.36" y1="776.69" x2="754.72" y2="776.69"/>
  <line class="st3" x1="754.72" y1="776.69" x2="755.08" y2="776.69"/>
  <line class="st3" x1="756.16" y1="776.69" x2="755.44" y2="776.69"/>
  <line class="st3" x1="755.44" y1="776.69" x2="755.08" y2="776.69"/>
  <line class="st3" x1="756.52" y1="776.33" x2="756.52" y2="776.69"/>
  <line class="st3" x1="756.52" y1="776.69" x2="756.16" y2="776.69"/>
  <line class="st3" x1="748.23" y1="776.33" x2="749.31" y2="775.25"/>
  <line class="st3" x1="749.32" y1="775.24" x2="750.76" y2="774.88"/>
  <line class="st3" x1="750.76" y1="774.88" x2="752.56" y2="775.6"/>
  <line class="st3" x1="752.56" y1="775.61" x2="754.36" y2="776.69"/>
  <line class="st3" x1="748.59" y1="777.41" x2="748.23" y2="777.05"/>
  <line class="st3" x1="748.23" y1="777.05" x2="748.23" y2="776.33"/>
  <line class="st3" x1="748.59" y1="777.41" x2="754.36" y2="782.45"/>
  <line class="st3" x1="754.36" y1="782.45" x2="758.32" y2="788.94"/>
  <line class="st3" x1="725.54" y1="776.69" x2="725.18" y2="776.69"/>
  <line class="st3" x1="725.18" y1="776.69" x2="724.82" y2="776.69"/>
  <line class="st3" x1="723.74" y1="776.69" x2="724.46" y2="776.69"/>
  <line class="st3" x1="724.46" y1="776.69" x2="724.82" y2="776.69"/>
  <line class="st3" x1="723.38" y1="776.33" x2="723.74" y2="776.69"/>
  <line class="st3" x1="731.66" y1="776.33" x2="730.58" y2="775.25"/>
  <line class="st3" x1="730.58" y1="775.24" x2="729.14" y2="774.88"/>
  <line class="st3" x1="729.14" y1="774.88" x2="727.34" y2="775.6"/>
  <line class="st3" x1="727.34" y1="775.61" x2="725.54" y2="776.69"/>
  <line class="st3" x1="731.3" y1="777.41" x2="732.02" y2="777.05"/>
  <line class="st3" x1="732.02" y1="777.05" x2="731.66" y2="776.33"/>
  <line class="st3" x1="731.3" y1="777.41" x2="725.54" y2="782.45"/>
  <line class="st3" x1="725.54" y1="782.45" x2="721.58" y2="788.94"/>
  <line class="st3" x1="756.52" y1="776.33" x2="748.6" y2="772.36"/>
  <line class="st3" x1="748.59" y1="772.36" x2="739.95" y2="770.92"/>
  <line class="st3" x1="739.95" y1="770.92" x2="731.3" y2="772.36"/>
  <line class="st3" x1="731.3" y1="772.36" x2="723.38" y2="776.32"/>
  <line class="st3" x1="754.36" y1="869.28" x2="754.72" y2="869.28"/>
  <line class="st3" x1="754.72" y1="869.28" x2="755.08" y2="869.28"/>
  <line class="st3" x1="756.16" y1="869.28" x2="755.44" y2="869.28"/>
  <line class="st3" x1="755.44" y1="869.28" x2="755.08" y2="869.28"/>
  <line class="st3" x1="756.52" y1="869.64" x2="756.52" y2="869.28"/>
  <line class="st3" x1="756.52" y1="869.28" x2="756.16" y2="869.28"/>
  <line class="st3" x1="748.23" y1="869.64" x2="749.31" y2="870.72"/>
  <line class="st3" x1="749.32" y1="870.72" x2="750.76" y2="871.08"/>
  <line class="st3" x1="750.76" y1="871.08" x2="752.56" y2="870.36"/>
  <line class="st3" x1="752.56" y1="870.36" x2="754.36" y2="869.28"/>
  <line class="st3" x1="748.59" y1="868.56" x2="748.23" y2="868.92"/>
  <line class="st3" x1="748.23" y1="868.92" x2="748.23" y2="869.64"/>
  <line class="st3" x1="748.59" y1="868.56" x2="754.36" y2="863.51"/>
  <line class="st3" x1="754.36" y1="863.51" x2="758.32" y2="857.03"/>
  <line class="st3" x1="725.54" y1="869.28" x2="725.18" y2="869.28"/>
  <line class="st3" x1="725.18" y1="869.28" x2="724.82" y2="869.28"/>
  <line class="st3" x1="723.74" y1="869.28" x2="724.46" y2="869.28"/>
  <line class="st3" x1="724.46" y1="869.28" x2="724.82" y2="869.28"/>
  <line class="st3" x1="723.38" y1="869.64" x2="723.74" y2="869.28"/>
  <line class="st3" x1="731.66" y1="869.64" x2="730.58" y2="870.72"/>
  <line class="st3" x1="730.58" y1="870.72" x2="729.14" y2="871.08"/>
  <line class="st3" x1="729.14" y1="871.08" x2="727.34" y2="870.36"/>
  <line class="st3" x1="727.34" y1="870.36" x2="725.54" y2="869.28"/>
  <line class="st3" x1="731.3" y1="868.56" x2="732.02" y2="868.92"/>
  <line class="st3" x1="732.02" y1="868.92" x2="731.66" y2="869.64"/>
  <line class="st3" x1="731.3" y1="868.56" x2="725.54" y2="863.51"/>
  <line class="st3" x1="725.54" y1="863.51" x2="721.58" y2="857.03"/>
  <line class="st3" x1="756.52" y1="869.64" x2="748.6" y2="873.6"/>
  <line class="st3" x1="748.59" y1="873.6" x2="739.95" y2="875.04"/>
  <line class="st3" x1="739.95" y1="875.04" x2="731.3" y2="873.6"/>
  <line class="st3" x1="731.3" y1="873.6" x2="723.38" y2="869.64"/>
  <line class="st3" x1="765.53" y1="857.03" x2="765.53" y2="788.93"/>
  <line class="st3" x1="674.74" y1="776.69" x2="674.38" y2="776.69"/>
  <line class="st3" x1="674.38" y1="776.69" x2="673.66" y2="776.69"/>
  <line class="st3" x1="672.94" y1="776.69" x2="673.3" y2="776.69"/>
  <line class="st3" x1="673.3" y1="776.69" x2="673.66" y2="776.69"/>
  <line class="st3" x1="672.22" y1="776.33" x2="672.58" y2="776.69"/>
  <line class="st3" x1="672.58" y1="776.69" x2="672.94" y2="776.69"/>
  <line class="st3" x1="680.86" y1="776.33" x2="679.78" y2="775.25"/>
  <line class="st3" x1="679.78" y1="775.24" x2="677.98" y2="774.88"/>
  <line class="st3" x1="677.98" y1="774.88" x2="676.18" y2="775.6"/>
  <line class="st3" x1="676.18" y1="775.61" x2="674.74" y2="776.69"/>
  <line class="st3" x1="680.5" y1="777.41" x2="680.86" y2="777.05"/>
  <line class="st3" x1="680.86" y1="777.05" x2="680.86" y2="776.33"/>
  <line class="st3" x1="680.5" y1="777.41" x2="674.38" y2="782.45"/>
  <line class="st3" x1="674.38" y1="782.45" x2="670.42" y2="788.94"/>
  <line class="st3" x1="703.2" y1="776.69" x2="703.56" y2="776.69"/>
  <line class="st3" x1="703.56" y1="776.69" x2="703.92" y2="776.69"/>
  <line class="st3" x1="705" y1="776.69" x2="704.64" y2="776.69"/>
  <line class="st3" x1="704.64" y1="776.69" x2="703.92" y2="776.69"/>
  <line class="st3" x1="705.36" y1="776.33" x2="705.36" y2="776.69"/>
  <line class="st3" x1="705.36" y1="776.69" x2="705" y2="776.69"/>
  <line class="st3" x1="697.08" y1="776.33" x2="698.16" y2="775.25"/>
  <line class="st3" x1="698.16" y1="775.24" x2="699.6" y2="774.88"/>
  <line class="st3" x1="699.6" y1="774.88" x2="701.4" y2="775.6"/>
  <line class="st3" x1="701.4" y1="775.61" x2="703.2" y2="776.69"/>
  <line class="st3" x1="697.44" y1="777.41" x2="697.08" y2="777.05"/>
  <line class="st3" x1="697.08" y1="777.05" x2="697.08" y2="776.33"/>
  <line class="st3" x1="697.44" y1="777.41" x2="703.56" y2="782.45"/>
  <line class="st3" x1="703.56" y1="782.45" x2="707.16" y2="788.94"/>
  <line class="st3" x1="672.22" y1="776.33" x2="680.14" y2="772.36"/>
  <line class="st3" x1="680.14" y1="772.36" x2="688.79" y2="770.92"/>
  <line class="st3" x1="688.79" y1="770.92" x2="697.8" y2="772.36"/>
  <line class="st3" x1="697.8" y1="772.36" x2="705.36" y2="776.32"/>
  <line class="st3" x1="674.74" y1="869.28" x2="674.38" y2="869.28"/>
  <line class="st3" x1="674.38" y1="869.28" x2="673.66" y2="869.28"/>
  <line class="st3" x1="672.94" y1="869.28" x2="673.3" y2="869.28"/>
  <line class="st3" x1="673.3" y1="869.28" x2="673.66" y2="869.28"/>
  <line class="st3" x1="672.22" y1="869.64" x2="672.58" y2="869.28"/>
  <line class="st3" x1="672.58" y1="869.28" x2="672.94" y2="869.28"/>
  <line class="st3" x1="680.86" y1="869.64" x2="679.78" y2="870.72"/>
  <line class="st3" x1="679.78" y1="870.72" x2="677.98" y2="871.08"/>
  <line class="st3" x1="677.98" y1="871.08" x2="676.18" y2="870.36"/>
  <line class="st3" x1="676.18" y1="870.36" x2="674.74" y2="869.28"/>
  <line class="st3" x1="680.5" y1="868.56" x2="680.86" y2="868.92"/>
  <line class="st3" x1="680.86" y1="868.92" x2="680.86" y2="869.64"/>
  <line class="st3" x1="680.5" y1="868.56" x2="674.38" y2="863.51"/>
  <line class="st3" x1="674.38" y1="863.51" x2="670.42" y2="857.03"/>
  <line class="st3" x1="703.2" y1="869.28" x2="703.56" y2="869.28"/>
  <line class="st3" x1="703.56" y1="869.28" x2="703.92" y2="869.28"/>
  <line class="st3" x1="705" y1="869.28" x2="704.64" y2="869.28"/>
  <line class="st3" x1="704.64" y1="869.28" x2="703.92" y2="869.28"/>
  <line class="st3" x1="705.36" y1="869.64" x2="705.36" y2="869.28"/>
  <line class="st3" x1="705.36" y1="869.28" x2="705" y2="869.28"/>
  <line class="st3" x1="697.08" y1="869.64" x2="698.16" y2="870.72"/>
  <line class="st3" x1="698.16" y1="870.72" x2="699.6" y2="871.08"/>
  <line class="st3" x1="699.6" y1="871.08" x2="701.4" y2="870.36"/>
  <line class="st3" x1="701.4" y1="870.36" x2="703.2" y2="869.28"/>
  <line class="st3" x1="697.44" y1="868.56" x2="697.08" y2="868.92"/>
  <line class="st3" x1="697.08" y1="868.92" x2="697.08" y2="869.64"/>
  <line class="st3" x1="697.44" y1="868.56" x2="703.56" y2="863.51"/>
  <line class="st3" x1="703.56" y1="863.51" x2="707.16" y2="857.03"/>
  <line class="st3" x1="672.22" y1="869.64" x2="680.14" y2="873.6"/>
  <line class="st3" x1="680.14" y1="873.6" x2="688.79" y2="875.04"/>
  <line class="st3" x1="688.79" y1="875.04" x2="697.8" y2="873.6"/>
  <line class="st3" x1="697.8" y1="873.6" x2="705.36" y2="869.64"/>
  <line class="st3" x1="663.57" y1="857.03" x2="663.57" y2="788.93"/>
  <polyline class="st3" points="663.57 788.94 670.41 788.94 707.16 788.94 721.57 788.94 758.32 788.94 765.53 788.94"/>
  <polyline class="st3" points="765.53 857.03 758.32 857.03 721.58 857.03 707.16 857.03 670.42 857.03 663.57 857.03"/>
  <path class="st3" d="M765.53,1165.06v-126.1M765.53,1032.48v-315.24M765.53,717.24h-54.76M710.77,717.24v-34.58M710.77,682.66h-1.08M588.27,682.66h-1.08M501.45,682.66h-1.08M500.37,682.66v34.58M440.92,717.24v233.1M440.92,950.34h136.18M577.11,1165.06h8.65M585.75,1165.06h1.08M589.36,1165.06h0M663.93,1165.06h101.6M440.92,958.99h127.9M568.82,1014.11h-127.9M440.92,1014.11v-55.12M500.37,700.31v-30.62M710.77,669.69v30.62M710.77,700.31v16.93M710.77,717.24h54.76M440.92,717.24h59.45M500.37,717.24v-16.93M619.26,669.69h91.51M710.77,682.29h-1.08M588.27,682.29h-1.08M501.45,682.29h-1.08M568.82,958.99h-127.9M440.92,958.99v55.12M440.92,1014.11h127.9"/>
  <path class="st3" d="M765.53,857.03v-68.09M765.53,981.32h-1.44M761.57,981.32h-2.52M756.52,981.32h-2.52M751.48,981.32h-2.52M746.44,981.32h-2.52M741.39,981.32h-2.52M735.99,981.32h-2.52M730.94,981.32h-2.52M725.9,981.32h-2.52M720.86,981.32h-2.52M715.81,981.32h-1.44M714.37,981.32v-1.08M714.37,977.72v-2.52M714.37,972.68v-2.52M714.37,967.27v-2.52M714.37,962.23v-2.52M714.37,957.18v-2.52M714.37,952.14v-2.52M714.37,947.1v-2.52M714.37,942.05v-2.52M714.37,936.65v-2.52M714.37,931.6v-1.08M714.37,930.52h1.44M718.34,930.52h2.52M723.38,930.52h2.52M728.42,930.52h2.52M733.47,930.52h2.52M738.87,930.52h2.52M743.91,930.52h2.52M748.96,930.52h2.52M754,930.52h2.52M759.05,930.52h2.52M764.09,930.52h1.44M765.53,930.52v1.08M765.53,934.13v2.52M765.53,939.53v2.52M765.53,944.57v2.52M765.53,949.62v2.52M765.53,954.66v2.52M765.53,959.71v2.52M765.53,964.75v2.52M765.53,970.15v2.52M765.53,975.2v2.52M765.53,980.24v1.08M765.53,1032.48h-1.44M761.57,1032.48h-2.52M756.52,1032.48h-2.52M751.48,1032.48h-2.52M746.44,1032.48h-2.52M741.39,1032.48h-2.52M735.99,1032.48h-2.52M730.94,1032.48h-2.52M725.9,1032.48h-2.52M720.86,1032.48h-2.52M715.81,1032.48h-1.44M714.37,1032.48v-1.08M714.37,1028.88v-2.88M714.37,1023.47v-2.52M714.37,1018.43v-2.53M714.37,1013.39v-2.52M714.37,1008.34v-2.52M714.37,1003.3v-2.52M714.37,998.26v-2.88M714.37,992.85v-2.52M714.37,987.81v-2.52M714.37,982.76v-1.44M714.37,981.32h1.44M718.34,981.32h2.52M723.38,981.32h2.52M728.42,981.32h2.52M733.47,981.32h2.52M738.87,981.32h2.52M743.91,981.32h2.52M748.96,981.32h2.52M754,981.32h2.52M759.05,981.32h2.52M764.09,981.32h1.44M765.53,981.32v1.44M765.53,985.29v2.52M765.53,990.33v2.52M765.53,995.37v2.88M765.53,1000.78v2.52M765.53,1005.82v2.52M765.53,1010.86v2.52M765.53,1015.91v2.53M765.53,1020.95v2.52M765.53,1026v2.88M765.53,1031.4v1.08M765.53,1165.06h-102.32M663.21,1182h102.32M422.55,1182h164.28M585.75,1165.06h1.08M589.36,1165.06h0M422.55,717.24v447.82M804.8,925.12v185.54M736.71,663.2h-253.27M736.71,650.59h-253.27M736.71,637.62h-253.27M736.71,625.01h-253.27M736.71,612.04h-253.27M736.71,599.43h-253.27M736.71,586.82h-253.27M736.71,573.85h-253.27M736.71,561.24h-253.27M736.71,548.27h-253.27M736.71,535.66h-253.27M736.71,666.08v-143.39M736.71,522.69h-253.27M483.44,522.69v143.39M494.96,669.68h216.16M589.36,1093.73l14.05,1.44M603.41,1095.17l13.33,3.96M616.74,1099.13l12.25,6.84M628.99,1105.98l10.81,8.65M639.8,1114.62l8.65,10.81M648.44,1125.43l6.48,12.25M654.93,1137.68l4.33,13.33M659.25,1151.01l1.08,14.05M660.33,1165.06h-70.96M586.83,1182v-16.93M663.21,1165.06v16.93M589.36,1165.06v-71.34M585.75,1165.06h1.08M589.36,1165.06h0M765.53,1032.48h-59.45M706.09,1032.48v6.48M706.09,1038.97h59.45M503.97,591.86l14.05,1.08M518.02,592.95l13.69,3.6M531.71,596.55l12.61,6.13M544.32,602.67l11.53,7.92M555.85,610.6l9.73,9.73M565.58,620.33l8.29,11.53M573.87,631.86l5.76,12.97M579.63,644.83l3.6,13.33M583.23,658.16l1.44,14.05M503.97,672.21v-80.34M509.38,676.89h69.89M579.27,676.89v-3.96M579.27,672.93h-69.89M509.38,672.93v3.96M582.87,684.82h-77.1M509.38,672.21h69.89M509.38,679.05h69.89M582.87,679.05v5.76M505.77,679.05v5.76M505.77,679.05h77.1M582.87,684.82h4.32M587.2,684.82v-12.61M587.2,672.21h-7.93M579.27,672.21v6.85M579.27,679.05h3.6M582.87,679.05v5.76M501.45,684.82h4.32M505.77,684.82v-5.76M505.77,679.05h3.6M509.38,679.05v-6.85M509.38,672.21h-7.93M501.45,672.21v12.61M705.37,672.93v3.96M592.6,672.93h112.77M592.6,676.89v-3.96M705.37,676.89h-112.77M592.6,684.82h112.77M705.37,672.21h-112.77M709.69,672.21v12.61"/>
  <path class="st3" d="M501.45,1145.61l1.44-13.69M502.89,1131.92l3.96-13.33M506.85,1118.59l6.48-12.25M513.34,1106.34l8.65-10.45M521.98,1095.89l10.81-8.65M532.79,1087.24l12.25-6.48M545.04,1080.76l12.97-3.96M558.01,1076.8l13.69-1.44M570.26,1072.83h6.84M577.11,1148.13h-6.84M571.7,1145.61h-70.25"/>
  <path class="st15" d="M484.88,1021.31h-1.8M481.63,1021.31h-1.8M484.88,1021.31h-5.04M484.88,1021.31h-1.8M481.63,1021.31h-1.8M449.57,1021.31h120.69M570.26,1021.31v51.52M571.7,1075.35v70.26M570.26,1148.13v8.29M570.26,1156.42h-120.69M449.57,1156.42v-135.1"/>
  <path class="st15" d="M513.7,1021.31h-22.34M486.32,1021.31h-3.24M481.63,1021.31h-3.24M474.43,1021.31h-22.34M440.92,958.98h8.65M449.57,958.98v-8.64M449.57,950.34h-8.65M440.92,950.34v8.64M500.73,958.98h68.09M568.82,958.98v-8.64M568.82,950.34h-68.09M500.73,950.34v8.64M500.73,958.98h-51.16M449.57,950.34h51.16M449.57,958.98v-8.64M500.73,950.34v8.64M568.82,950.34v63.77M577.11,1014.11v-63.77M577.11,950.34h-8.29M805.52,921.52h.72M808.04,921.52h-3.24M804.8,921.52v3.61M808.04,672.93v-3.24M808.04,669.69h-3.24M808.04,672.93v248.59M808.04,1114.26v-3.6M808.04,1110.66h-3.24M808.04,1114.26v67.73M494.96,666.08h-3.24M494.96,669.69v-3.6M422.55,666.08h69.17M714.37,667.88v1.08M804.8,666.08h-3.6M804.8,669.69v-3.6M711.13,669.69h3.24M714.37,669.69v-3.6M714.37,666.08h86.83M808.04,1182h-58M422.55,1182v-515.91"/>
  <g class="st10">
    <path class="st3" d="M39.58,1165.06h6.48M64.79,1249.73l17.29-7.57M77.4,1223.43l4.68,18.73M106.95,1254.05l-29.54-30.62M106.95,1254.05l-42.15-4.32M106.95,1254.05l-24.86-11.89M39.58,909.63h6.48M39.58,1080.04h6.48M39.58,995.01h6.48M39.58,909.63v255.43M1241.81,418.93H-21.67"/>
    <path d="M62.41,473.28c-.46.3-.8.72-1.03,1.25-.23.53-.34,1.19-.34,1.98,0,.62.12,1.18.34,1.68.22.49.54.87.95,1.14.4.26.83.4,1.29.4s.87-.12,1.23-.36c.35-.24.64-.62.87-1.12.16-.35.34-.99.55-1.92.21-.93.41-1.51.61-1.73.2-.23.45-.34.76-.34.35,0,.66.16.91.48.25.32.38.82.38,1.52s-.14,1.17-.42,1.51c-.28.34-.69.54-1.23.6l.08,1.1c.51-.02.96-.16,1.36-.42.4-.27.7-.64.9-1.14.21-.49.31-1.06.31-1.7,0-.59-.09-1.12-.29-1.59-.2-.48-.48-.84-.86-1.09-.38-.25-.78-.37-1.22-.37-.39,0-.75.1-1.07.3-.32.21-.58.51-.8.93-.17.32-.35.88-.54,1.68-.19.8-.33,1.31-.42,1.54-.14.36-.3.62-.51.78-.2.16-.44.24-.71.24s-.51-.08-.74-.25c-.22-.16-.4-.41-.53-.75-.13-.34-.19-.72-.19-1.16,0-.49.08-.94.25-1.33.17-.4.39-.69.67-.87.28-.19.63-.31,1.06-.36l-.09-1.08c-.58.02-1.09.18-1.54.48M61.19,482.58h2.98l1.37,1.42-4.35,3.09v1.51l5.12-3.8,3.48,3.64v-1.56l-4.26-4.31h4.26v-1.15h-8.6v1.15Z"/>
    <path d="M67.24,492.74h-.98v5.74h.98v-5.74ZM64.63,492.74h-.98v5.74h.98v-5.74Z"/>
    <path d="M62.41,503.54c-.46.3-.8.72-1.03,1.25-.22.53-.34,1.19-.34,1.98,0,.62.11,1.18.34,1.67.22.5.54.88.94,1.14.41.26.83.4,1.3.4s.87-.12,1.22-.36c.35-.24.65-.62.88-1.12.16-.35.34-.99.55-1.92.21-.94.42-1.51.61-1.74.2-.22.45-.34.76-.34.36,0,.66.16.92.48.25.32.38.82.38,1.52s-.14,1.17-.42,1.51c-.28.34-.69.54-1.23.6l.08,1.1c.51-.02.96-.16,1.36-.43.4-.27.7-.64.91-1.13.2-.49.31-1.06.31-1.71,0-.58-.1-1.12-.29-1.59-.2-.48-.48-.84-.86-1.09-.38-.25-.78-.37-1.22-.37-.39,0-.75.1-1.07.31s-.59.51-.8.93c-.17.32-.35.88-.54,1.68-.19.8-.33,1.31-.42,1.55-.14.36-.3.62-.51.78-.2.16-.44.24-.71.24s-.51-.08-.74-.25c-.23-.16-.4-.41-.53-.75-.13-.34-.2-.73-.2-1.16,0-.49.09-.94.26-1.33.17-.39.39-.69.67-.87.28-.19.63-.31,1.06-.36l-.1-1.08c-.57.02-1.09.17-1.54.48"/>
    <path d="M61.19,512.31h2.47l.71.75-3.18,2.08v1.32l3.92-2.65,2.31,2.41v-1.38l-2.53-2.52h4.9v-1.07h-8.6v1.07ZM61.19,522.05v1.11c.24-.13.49-.22.75-.27.26-.05.88-.07,1.86-.07h1.41c.47,0,.79-.02.97-.05.29-.06.53-.18.72-.33.19-.16.35-.41.47-.74.13-.34.19-.77.19-1.31s-.07-1.02-.22-1.43c-.14-.41-.35-.73-.63-.94-.27-.22-.63-.37-1.07-.47l-.14,1.04c.44.11.75.29.92.53.17.24.26.61.26,1.11,0,.54-.12.94-.36,1.21-.18.2-.48.3-.91.3-.04,0-.13,0-.28,0-.14-.41-.26-1.04-.36-1.9-.05-.42-.1-.74-.16-.95-.08-.28-.19-.54-.35-.77s-.35-.41-.61-.55c-.25-.14-.53-.21-.84-.21-.52,0-.95.19-1.28.56-.34.37-.5.9-.5,1.59,0,.42.07.81.21,1.18.14.37.37.75.71,1.14-.3.03-.55.1-.77.21M63.93,521.75c-.47,0-.82-.06-1.06-.17-.31-.15-.55-.38-.73-.71-.18-.32-.27-.68-.27-1.09s.09-.73.28-.94.42-.32.7-.32c.18,0,.35.05.5.15.15.1.27.24.35.42.08.18.15.49.21.93.11.77.24,1.35.4,1.74h-.39Z"/>
    <path d="M61.19,525.29h2.47l.71.75-3.19,2.08v1.32l3.92-2.65,2.31,2.4v-1.38l-2.53-2.52h4.9v-1.07h-8.6v1.07ZM62.1,532.2c0-.16.02-.28.08-.36.05-.08.12-.15.2-.18.09-.04.28-.06.58-.06h3.64v1.07h.82v-1.07h2.18l-.63-1.06h-1.54v-.78h-.82v.78h-3.59c-.63,0-1.05.04-1.25.13-.2.09-.36.24-.48.45-.12.21-.18.51-.18.9,0,.24.03.5.1.8l.93-.15c-.03-.19-.04-.35-.04-.47"/>
    <path d="M47.14,474.4h3.91v4.08h1.02v-4.08h2.66v4.71h1.01v-5.86h-8.6v1.15ZM48.36,480.48c-.46.3-.79.72-1.03,1.25-.22.53-.34,1.19-.34,1.98,0,.62.11,1.18.34,1.67.22.49.54.88.94,1.14.41.26.84.4,1.3.4s.87-.12,1.22-.36c.35-.24.65-.62.88-1.12.16-.35.34-.99.55-1.92.21-.94.42-1.51.61-1.74.2-.22.45-.34.76-.34.35,0,.66.16.91.48.25.32.38.82.38,1.52s-.14,1.17-.42,1.51c-.28.34-.69.54-1.23.6l.08,1.1c.5-.02.96-.16,1.35-.43.4-.27.7-.64.9-1.13.21-.49.31-1.06.31-1.71,0-.58-.1-1.12-.29-1.59-.2-.48-.48-.84-.86-1.09-.37-.25-.78-.37-1.22-.37-.39,0-.75.1-1.07.31-.32.2-.59.51-.8.93-.17.32-.35.88-.54,1.68-.19.8-.33,1.31-.42,1.55-.14.36-.3.62-.51.78-.2.16-.44.24-.71.24s-.51-.08-.74-.25c-.23-.16-.4-.41-.53-.75-.13-.34-.19-.73-.19-1.16,0-.49.08-.94.25-1.33.17-.39.39-.69.67-.88.28-.18.63-.31,1.06-.36l-.1-1.08c-.57.02-1.09.17-1.54.48"/>
    <path d="M53.19,491.66h-.98v5.73h.98v-5.73ZM50.57,491.66h-.98v5.73h.98v-5.73Z"/>
    <polygon points="47.14 503.57 51.05 503.57 51.05 507.65 52.06 507.65 52.06 503.57 54.73 503.57 54.73 508.28 55.74 508.28 55.74 502.42 47.14 502.42 47.14 503.57"/>
    <path d="M47.84,510.22c-.56.54-.84,1.25-.84,2.14,0,.55.13,1.05.38,1.52.26.47.61.82,1.07,1.06.46.24,1.09.36,1.89.36.99,0,1.77-.27,2.33-.82.56-.55.84-1.25.84-2.12,0-.78-.23-1.44-.69-1.98-.56-.65-1.41-.97-2.57-.97-1.05,0-1.86.27-2.42.82M52.05,511.03c.39.35.59.79.59,1.33s-.2.96-.6,1.32c-.4.35-.98.53-1.75.53-.82,0-1.42-.18-1.82-.53-.4-.35-.6-.79-.6-1.32s.2-.98.6-1.33c.4-.35.99-.53,1.79-.53s1.39.18,1.79.53M47.14,517.34h3.26c.45,0,.86.06,1.23.18.24.08.44.21.58.39.14.19.21.4.21.63,0,.26-.07.52-.23.78l.98.36c.23-.37.34-.74.34-1.09,0-.25-.07-.48-.21-.69-.14-.21-.43-.43-.88-.68h.95v-.96h-6.23v1.06Z"/>
    <path d="M48.17,523.9c-.2-.28-.31-.61-.31-1,0-.53.18-.96.55-1.32.36-.35.89-.55,1.58-.59v4.69c.13,0,.22,0,.28,0,1.03,0,1.83-.27,2.39-.8.57-.53.85-1.22.85-2.06s-.29-1.58-.87-2.12c-.58-.55-1.4-.82-2.44-.82s-1.8.27-2.36.81c-.56.54-.84,1.27-.84,2.19,0,.73.18,1.33.53,1.8.35.47.85.79,1.49.96l.14-1.1c-.45-.16-.77-.38-.97-.66M52.16,521.61c.33.34.49.75.49,1.24,0,.54-.21.98-.61,1.32-.26.22-.66.36-1.18.41v-3.51c.54.03.98.22,1.3.55M47.51,527.49c-.34.43-.51,1.05-.51,1.87,0,.49.08.93.26,1.32.17.39.41.69.72.9.31.21.64.31.99.31s.66-.08.9-.25c.24-.17.43-.4.56-.7.13-.3.29-.82.49-1.58.14-.52.23-.83.27-.94.07-.19.17-.32.28-.41.11-.09.23-.13.37-.13.22,0,.41.1.56.31.16.21.24.56.24,1.05,0,.42-.09.73-.27.96-.18.22-.43.36-.75.41l.14,1.04c.4-.07.72-.19.97-.37.24-.18.43-.45.57-.82.14-.37.21-.81.21-1.3,0-.33-.04-.63-.13-.92-.09-.29-.19-.51-.31-.68-.15-.22-.35-.4-.59-.52-.24-.13-.49-.2-.77-.2-.31,0-.59.08-.84.24-.25.15-.45.38-.59.69-.14.3-.31.84-.51,1.62-.14.58-.26.94-.35,1.09-.14.21-.33.31-.56.31-.27,0-.5-.11-.69-.35-.2-.23-.3-.6-.3-1.09s.11-.86.34-1.13.55-.44.96-.49l-.16-1.05c-.66.12-1.16.39-1.49.82M55.74,533.23h-8.6v1.07h8.6v-1.07ZM47.14,540.37v1.11c.24-.13.49-.23.75-.27.26-.04.88-.07,1.86-.07h1.41c.47,0,.79-.02.97-.05.29-.06.53-.17.72-.33.19-.16.35-.4.47-.74.13-.34.19-.77.19-1.31s-.07-1.02-.22-1.43c-.15-.41-.36-.72-.63-.94-.27-.22-.63-.37-1.07-.47l-.14,1.04c.44.12.75.29.92.53.18.24.26.61.26,1.11,0,.54-.12.94-.36,1.21-.17.2-.48.3-.91.3-.04,0-.13,0-.28,0-.14-.41-.26-1.04-.36-1.9-.05-.42-.1-.74-.16-.95-.08-.29-.2-.54-.35-.77-.15-.23-.35-.41-.61-.55s-.53-.21-.83-.21c-.52,0-.95.19-1.29.56-.33.37-.5.9-.5,1.59,0,.42.07.81.21,1.18.14.36.37.75.7,1.14-.29.03-.55.1-.77.21M49.88,540.06c-.47,0-.82-.06-1.05-.17-.31-.15-.55-.38-.73-.7-.18-.32-.27-.69-.27-1.1s.09-.73.28-.94c.19-.22.42-.33.7-.33.18,0,.35.05.5.15.15.1.26.24.34.42.08.18.15.49.21.93.11.77.24,1.35.4,1.74h-.39ZM54.21,537.83c-.21.21-.31.46-.31.76s.1.54.31.75c.21.21.46.32.76.32s.55-.1.76-.32c.21-.21.32-.46.32-.75s-.1-.54-.31-.75c-.21-.21-.45-.32-.74-.32-.31,0-.57.1-.78.32M55.43,538.15c.13.12.19.27.19.44s-.06.32-.19.45c-.13.12-.28.18-.45.18s-.33-.06-.45-.19-.19-.27-.19-.44.06-.32.19-.44c.13-.13.28-.19.46-.19.17,0,.32.06.44.19M48.17,546.54c-.2-.28-.31-.61-.31-1,0-.53.18-.96.55-1.32.36-.35.89-.55,1.58-.59v4.69c.13,0,.22,0,.28,0,1.03,0,1.83-.27,2.39-.8.57-.53.85-1.22.85-2.06s-.29-1.58-.87-2.12c-.58-.54-1.4-.82-2.44-.82s-1.8.27-2.36.81c-.56.54-.84,1.27-.84,2.19,0,.73.18,1.33.53,1.8.35.47.85.79,1.49.96l.14-1.1c-.45-.16-.77-.38-.97-.66M52.16,544.25c.33.33.49.75.49,1.23,0,.54-.21.98-.61,1.32-.26.22-.66.35-1.18.4v-3.51c.54.04.98.22,1.3.55"/>
    <path d="M48.04,551.65c0-.16.02-.28.07-.36.05-.09.12-.15.21-.18.09-.04.28-.06.58-.06h3.64v1.07h.82v-1.07h2.17l-.63-1.06h-1.54v-.78h-.82v.78h-3.58c-.64,0-1.05.04-1.25.13s-.36.24-.48.45c-.12.21-.18.52-.18.9,0,.23.03.5.09.8l.93-.15c-.03-.19-.04-.35-.04-.47M47.5,556.66c-.34.43-.5,1.05-.5,1.87,0,.49.08.94.25,1.33.17.39.41.69.72.9.31.21.64.31,1,.31s.66-.08.9-.25.43-.41.56-.7.29-.82.49-1.58c.14-.52.23-.84.27-.94.07-.19.17-.32.28-.41.11-.09.23-.13.37-.13.21,0,.4.1.56.32.16.21.24.56.24,1.05,0,.41-.09.73-.27.96-.18.23-.43.36-.75.41l.14,1.04c.4-.07.73-.19.97-.37.24-.18.43-.45.57-.83.14-.37.21-.81.21-1.3,0-.33-.04-.63-.13-.92-.08-.28-.19-.51-.31-.68-.15-.22-.35-.39-.59-.52s-.49-.19-.77-.19c-.3,0-.58.08-.84.23-.25.15-.45.38-.59.69-.14.3-.31.84-.51,1.62-.14.58-.27.94-.36,1.09-.14.21-.32.31-.56.31-.27,0-.5-.12-.69-.35-.2-.24-.3-.6-.3-1.09s.11-.86.34-1.14c.22-.27.54-.43.96-.49l-.16-1.05c-.66.12-1.16.39-1.5.82"/>
    <path d="M47.14,563.83h2.47l.71.75-3.18,2.08v1.32l3.92-2.65,2.31,2.41v-1.38l-2.54-2.52h4.91v-1.06h-8.6v1.06ZM47.14,573.21v1.11c.24-.13.49-.22.75-.27.26-.05.88-.07,1.86-.07h1.41c.47,0,.79-.02.97-.05.29-.06.53-.18.72-.33.19-.16.35-.41.48-.74.12-.34.19-.77.19-1.31s-.07-1.02-.22-1.43c-.15-.41-.35-.73-.63-.94-.27-.22-.63-.37-1.07-.47l-.14,1.04c.44.11.75.29.92.53.17.24.26.61.26,1.11,0,.54-.12.94-.36,1.21-.18.2-.48.3-.91.3-.04,0-.13,0-.28,0-.14-.41-.26-1.04-.36-1.9-.05-.42-.1-.74-.16-.95-.08-.28-.19-.54-.35-.77s-.35-.41-.61-.55c-.25-.14-.53-.21-.83-.21-.52,0-.95.19-1.28.56-.34.37-.5.9-.5,1.59,0,.42.07.81.2,1.18.14.37.37.75.71,1.14-.3.03-.55.1-.77.21M49.88,572.9c-.47,0-.82-.06-1.05-.17-.31-.15-.55-.39-.73-.71-.18-.32-.27-.68-.27-1.09s.09-.73.28-.94.42-.32.7-.32c.18,0,.35.05.5.15.15.1.26.24.34.42.08.18.15.49.21.93.11.77.24,1.35.4,1.74h-.39Z"/>
    <path d="M47.92,576.35c-.61.42-.92,1.01-.92,1.75s.29,1.38.87,1.92c.58.53,1.41.8,2.48.8.45,0,.87-.07,1.27-.19.39-.12.73-.3,1.01-.52.28-.22.5-.51.65-.85.16-.35.23-.71.23-1.1,0-.7-.28-1.27-.84-1.72h3.07v-1.06h-8.6v.99h.78ZM52.04,576.85c.4.34.6.74.6,1.21s-.19.86-.58,1.18c-.39.33-.99.49-1.8.49s-1.39-.17-1.79-.51c-.4-.34-.6-.74-.6-1.21,0-.57.27-1.03.82-1.36.33-.21.87-.31,1.62-.31s1.34.17,1.74.51"/>
    <path d="M48.25,908.11c-.59.48-.89,1.14-.89,1.97,0,.64.17,1.16.51,1.58.34.42.82.73,1.44.94s1.43.31,2.44.31c.86,0,1.53-.06,2.04-.2.5-.13.93-.31,1.28-.54s.62-.52.8-.87c.19-.35.28-.76.28-1.22,0-.63-.17-1.16-.5-1.57-.34-.42-.82-.73-1.44-.94-.62-.21-1.44-.31-2.46-.31-1.61,0-2.78.28-3.49.86M54.65,908.89c.41.29.62.68.62,1.17s-.23.91-.7,1.25c-.47.33-1.41.5-2.83.5s-2.34-.17-2.81-.5c-.47-.33-.7-.75-.7-1.24s.23-.9.7-1.23c.47-.34,1.41-.5,2.82-.5s2.38.18,2.91.55M48.52,1072.16c.19.12.38.27.57.45.19.18.55.59,1.08,1.23.64.76,1.14,1.31,1.51,1.64s.72.56,1.05.71c.33.14.67.21,1.01.21.68,0,1.25-.25,1.7-.73s.69-1.14.69-1.98-.21-1.48-.64-1.97c-.42-.49-1.04-.77-1.85-.85l-.11,1.09c.54,0,.96.16,1.27.47.3.31.46.72.46,1.23,0,.49-.14.88-.43,1.18-.29.3-.64.45-1.06.45s-.82-.16-1.27-.49c-.45-.33-1.05-.97-1.82-1.91-.49-.61-.93-1.07-1.3-1.39-.37-.32-.76-.56-1.14-.7-.24-.09-.48-.13-.74-.13v5.74h1.02v-4.26Z"/>
    <path d="M47.5,1078.66h3.23c.57,0,1,.06,1.3.17.3.12.53.3.69.56.15.25.23.53.23.83,0,.4-.12.68-.35.85-.24.17-.59.26-1.06.26h-4.05v1.07h3.62c.64,0,1.11.14,1.4.44.29.29.44.66.44,1.1,0,.25-.06.46-.17.64-.11.18-.26.31-.45.38-.19.07-.49.11-.91.11h-3.93v1.06h4.28c.71,0,1.24-.17,1.58-.5.34-.34.51-.82.51-1.44,0-.8-.36-1.44-1.09-1.94.35-.12.61-.33.81-.63.19-.3.28-.68.28-1.14,0-.42-.09-.79-.28-1.12-.18-.33-.43-.59-.74-.79h.88v-.96h-6.23v1.07Z"/>
    <path d="M56.14,992.32v-.69c-.37-.18-.76-.5-1.15-.95-.39-.45-.73-.97-1.01-1.56h-1.02c.12.33.3.7.55,1.12.24.42.49.75.73,1.01h-6.73v1.07h8.63ZM47.5,996.51h3.23c.57,0,1,.06,1.3.17.3.12.53.3.69.56.15.26.23.53.23.83,0,.4-.12.68-.35.85-.24.17-.59.26-1.06.26h-4.05v1.06h3.62c.64,0,1.11.15,1.4.44.29.29.44.66.44,1.11,0,.24-.06.46-.17.64-.11.18-.26.31-.45.37-.19.07-.49.11-.91.11h-3.93v1.06h4.28c.71,0,1.24-.17,1.58-.5.34-.34.51-.82.51-1.44,0-.8-.36-1.44-1.09-1.94.35-.12.61-.33.81-.63.19-.3.28-.68.28-1.14,0-.42-.09-.79-.28-1.12-.18-.33-.43-.59-.74-.79h.88v-.95h-6.23v1.06Z"/>
    <path d="M47.5,805.71h7.32l-7.32,2.51v1.04l7.2,2.52h-7.2v1.11h8.6v-1.55l-5.98-2.08c-.61-.21-1.06-.36-1.38-.46.28-.09.71-.22,1.27-.41l6.09-2.06v-1.73h-8.6v1.11ZM47.5,818.55v1.11c.24-.13.49-.22.75-.27.26-.05.88-.07,1.87-.07h1.41c.47,0,.8-.02.98-.06.29-.06.53-.18.72-.33.19-.16.35-.4.47-.74s.19-.77.19-1.31-.07-1.02-.22-1.43c-.15-.41-.36-.73-.63-.94-.27-.22-.63-.37-1.07-.47l-.14,1.04c.44.12.75.29.92.53.18.24.26.61.26,1.11,0,.54-.12.94-.36,1.21-.17.2-.48.3-.91.3-.04,0-.13,0-.28,0-.14-.41-.26-1.04-.36-1.9-.05-.42-.1-.74-.16-.95-.08-.29-.19-.54-.35-.77-.15-.22-.35-.41-.61-.55-.25-.14-.53-.21-.84-.21-.52,0-.95.19-1.28.56-.34.37-.5.9-.5,1.59,0,.42.07.81.21,1.18.14.37.37.75.7,1.14-.29.03-.55.1-.77.21M50.24,818.25c-.47,0-.82-.06-1.06-.17-.31-.15-.56-.39-.73-.71s-.26-.68-.26-1.09.09-.73.28-.95c.19-.21.42-.32.7-.32.18,0,.35.05.5.15s.27.24.35.42c.08.18.15.49.21.93.11.78.24,1.36.4,1.74h-.39ZM54.57,816.02c-.21.21-.31.46-.31.76s.1.53.31.75c.21.21.46.31.76.31s.55-.1.76-.31c.21-.21.31-.46.31-.75s-.1-.54-.31-.75c-.21-.21-.46-.32-.74-.32-.31,0-.57.1-.78.32M55.79,816.34c.12.12.19.27.19.44s-.06.32-.19.44c-.12.12-.28.19-.45.19s-.33-.07-.45-.19c-.12-.12-.19-.27-.19-.44s.06-.32.19-.44c.13-.12.28-.19.47-.19.17,0,.32.06.44.19"/>
    <rect x="47.5" y="821.06" width="8.6" height="1.06"/>
    <path d="M56.14,830.92v-.69c-.37-.19-.76-.5-1.15-.95-.39-.45-.73-.97-1.01-1.56h-1.02c.12.33.3.7.55,1.12.25.42.49.76.73,1.01h-6.73v1.07h8.64ZM53.73,834.34h-1.2v1.21h1.2v-1.21ZM48.7,834.34h-1.2v1.21h1.2v-1.21Z"/>
    <path d="M48.01,837.85c-.44.5-.66,1.14-.66,1.93,0,.96.35,1.72,1.04,2.28.57.46,1.24.69,2.02.69s1.48-.26,2.01-.78c.52-.52.78-1.16.78-1.92,0-.57-.18-1.12-.54-1.64l2.31.47v3.47h1.01v-4.32l-4.42-.84-.13,1c.24.16.45.38.6.65.15.27.23.59.23.93,0,.55-.17,1-.52,1.34-.35.34-.82.51-1.42.51-.63,0-1.14-.18-1.53-.53s-.58-.79-.58-1.3c0-.43.14-.79.41-1.09s.68-.49,1.22-.58l-.09-1.12c-.72.07-1.31.35-1.74.86M48.25,844.7c-.59.48-.89,1.14-.89,1.97,0,.63.17,1.16.51,1.58.34.42.82.73,1.44.94.62.21,1.44.31,2.44.31.85,0,1.53-.07,2.03-.2s.93-.31,1.28-.54c.35-.23.62-.52.81-.87.19-.35.28-.76.28-1.23,0-.63-.17-1.16-.5-1.58-.34-.41-.82-.73-1.43-.94-.62-.21-1.44-.32-2.46-.32-1.62,0-2.78.29-3.5.86M54.65,845.49c.41.29.62.68.62,1.17s-.23.92-.7,1.25c-.46.33-1.41.5-2.82.5s-2.35-.17-2.82-.5c-.47-.33-.7-.74-.7-1.24s.23-.9.7-1.23c.47-.34,1.41-.5,2.82-.5s2.38.18,2.91.55"/>
    <polygon class="st12" points="47.5 1218.74 71.64 1230.63 64.43 1246.12 39.94 1234.24 47.5 1218.74"/>
    <polygon points="50.44 1224.87 62.55 1230.74 46.51 1233 45.49 1235.1 60.9 1242.56 61.85 1240.6 49.75 1234.74 65.79 1232.47 66.8 1230.37 51.39 1222.91 50.44 1224.87"/>
    <path d="M48.02,1156.7c-.45.5-.68,1.14-.68,1.9,0,.84.26,1.54.78,2.1.52.55,1.16.83,1.91.83.56,0,1.02-.14,1.39-.42s.61-.69.73-1.2c.18.4.42.69.73.9.3.2.64.3,1.01.3.39,0,.76-.11,1.11-.32.35-.21.62-.52.83-.91.2-.4.3-.83.3-1.31,0-.69-.19-1.26-.58-1.73-.39-.46-.94-.76-1.64-.89l-.19,1.07c.51.08.9.25,1.16.53.26.28.39.62.39,1.04s-.13.76-.38,1.03c-.26.26-.57.4-.97.4-.49,0-.85-.18-1.08-.55-.23-.36-.35-.77-.35-1.23,0-.04,0-.1.01-.17l-.93-.12c.08.3.12.55.12.75,0,.49-.15.9-.47,1.22-.32.32-.72.48-1.2.48-.51,0-.94-.17-1.28-.51-.35-.35-.52-.77-.52-1.27,0-.42.13-.78.4-1.07.26-.29.69-.5,1.29-.62l-.14-1.07c-.72.07-1.3.36-1.75.86M47.5,1163.68h3.23c.57,0,1,.06,1.3.17s.53.3.69.55c.15.26.23.53.23.83,0,.4-.12.68-.35.85-.24.18-.59.26-1.06.26h-4.05v1.07h3.62c.64,0,1.11.15,1.4.44.29.3.44.66.44,1.11,0,.24-.06.45-.17.64-.11.18-.26.31-.45.38-.19.07-.49.1-.91.1h-3.93v1.06h4.28c.71,0,1.24-.17,1.58-.51.34-.34.51-.81.51-1.44,0-.8-.36-1.45-1.09-1.94.35-.12.61-.33.81-.63.19-.3.28-.68.28-1.15,0-.42-.09-.79-.28-1.12-.18-.33-.43-.59-.74-.79h.88v-.95h-6.23v1.06Z"/>
    <rect class="st12" x="1182.73" y="445.95" width="20.18" height="115.29"/>
    <path d="M1188.15,447.47c-.68.45-1.19,1.07-1.53,1.85-.34.79-.51,1.76-.51,2.93,0,.92.17,1.75.5,2.48.34.74.81,1.3,1.41,1.69.61.4,1.25.59,1.93.59s1.3-.18,1.82-.54c.53-.36.96-.91,1.31-1.66.23-.52.51-1.46.82-2.85.31-1.39.62-2.24.91-2.57.3-.33.68-.5,1.14-.5.53,0,.98.23,1.36.71.38.47.57,1.22.57,2.25s-.21,1.74-.62,2.25c-.42.5-1.03.8-1.84.89l.12,1.63c.75-.03,1.43-.24,2.02-.63.59-.39,1.05-.95,1.35-1.68.31-.73.46-1.57.46-2.53,0-.87-.14-1.65-.44-2.36-.29-.71-.72-1.25-1.28-1.62-.57-.37-1.17-.55-1.82-.55-.59,0-1.12.15-1.6.45-.48.3-.88.76-1.2,1.37-.25.47-.52,1.3-.8,2.49-.28,1.18-.49,1.95-.62,2.29-.21.54-.46.92-.76,1.16-.3.23-.65.35-1.06.35s-.76-.12-1.1-.36c-.34-.25-.6-.62-.79-1.11-.19-.5-.29-1.07-.29-1.72,0-.73.13-1.39.38-1.98s.59-1.02,1-1.3c.41-.28.94-.46,1.58-.53l-.14-1.61c-.86.02-1.63.26-2.31.71M1187.68,462.15c0-.23.04-.41.12-.54.07-.13.18-.22.31-.27.13-.05.42-.08.87-.08h5.44v1.59h1.22v-1.59h3.25l-.94-1.57h-2.3v-1.16h-1.22v1.16h-5.35c-.94,0-1.56.07-1.86.19-.29.13-.53.35-.71.67-.18.32-.27.76-.27,1.33,0,.35.05.75.14,1.19l1.4-.23c-.04-.29-.06-.52-.06-.69"/>
    <path d="M1186.33,471.96h9.3v-1.58h-4.98c-.79,0-1.4-.09-1.82-.26-.42-.17-.75-.47-.99-.88-.24-.42-.36-.86-.36-1.33s.12-.87.36-1.19c.23-.32.56-.53.98-.63.29-.07.84-.1,1.66-.1h5.16v-1.58h-5.76c-.67,0-1.17.03-1.47.1-.46.09-.85.25-1.17.49-.32.23-.58.58-.79,1.06-.21.48-.31.99-.31,1.54,0,1.25.53,2.23,1.58,2.96h-1.37v1.41ZM1187.87,479.9c-.31-.41-.46-.9-.46-1.48,0-.78.27-1.43.81-1.95.54-.52,1.32-.81,2.35-.87v6.96c.19,0,.32,0,.42,0,1.54,0,2.73-.39,3.57-1.18.85-.79,1.27-1.81,1.27-3.06s-.43-2.34-1.3-3.14c-.87-.81-2.08-1.21-3.65-1.21s-2.68.4-3.52,1.2c-.84.8-1.26,1.88-1.26,3.25,0,1.08.26,1.97.79,2.67.52.7,1.26,1.17,2.21,1.43l.2-1.63c-.66-.24-1.15-.57-1.45-.97M1193.82,476.51c.49.49.73,1.1.73,1.83,0,.8-.31,1.46-.91,1.96-.39.33-.98.53-1.76.6v-5.21c.81.06,1.46.33,1.95.82M1195.63,484.99h-1.8v1.8h1.8v-1.8ZM1188.13,484.99h-1.8v1.8h1.8v-1.8ZM1198.37,501.25c.57-.65.85-1.48.85-2.49,0-1.36-.49-2.44-1.47-3.24-1.13-.92-2.93-1.38-5.41-1.38-2.22,0-3.81.42-4.78,1.25-.96.83-1.45,1.9-1.45,3.22,0,.77.18,1.46.55,2.07.37.61.9,1.08,1.59,1.44.69.35,1.44.52,2.25.52,1.23,0,2.23-.37,3-1.11.77-.74,1.16-1.64,1.16-2.69,0-.61-.14-1.18-.42-1.73-.28-.55-.71-1.02-1.29-1.39,1.28.01,2.27.16,2.97.45.7.28,1.22.68,1.59,1.18.28.38.42.82.42,1.32,0,.63-.22,1.16-.68,1.58-.28.26-.73.46-1.35.6l.12,1.57c1-.13,1.78-.52,2.35-1.16M1192.5,496.71c.51.5.77,1.11.77,1.82s-.26,1.32-.77,1.79c-.51.48-1.21.71-2.1.71s-1.65-.24-2.19-.72c-.54-.48-.8-1.05-.8-1.72,0-.46.13-.89.39-1.31.26-.42.64-.74,1.13-.97.5-.23,1.02-.35,1.56-.35.83,0,1.5.25,2.01.75M1188.13,505.16h-1.8v1.8h1.8v-1.8ZM1186.33,514.8c0,.82.07,1.51.21,2.08.14.56.36,1.03.64,1.41.28.38.68.69,1.19.94.52.25,1.07.38,1.68.38.75,0,1.39-.21,1.95-.63.55-.42.93-1.02,1.16-1.8.3.6.69,1.05,1.18,1.35.48.3,1,.45,1.55.45.59,0,1.15-.17,1.69-.5.54-.34.94-.8,1.2-1.4.26-.6.39-1.38.39-2.37v-4.83h-12.84v4.91ZM1197.65,511.6v2.57c0,.92-.06,1.58-.18,1.96-.12.38-.34.68-.67.88-.32.21-.7.31-1.12.31-.45,0-.82-.11-1.12-.33-.3-.22-.51-.55-.64-.98-.1-.33-.15-.87-.15-1.63v-2.78h3.88ZM1192.26,511.6v2.97c0,.82-.07,1.45-.21,1.89-.14.44-.39.78-.75,1.02-.35.25-.77.37-1.25.37-.41,0-.77-.08-1.08-.25s-.55-.38-.71-.65c-.16-.26-.28-.59-.35-.98-.04-.22-.06-.61-.06-1.16v-3.2h4.41ZM1188.13,522.26h-1.8v1.8h1.8v-1.8ZM1187.44,527.7c-.89.71-1.33,1.68-1.33,2.92,0,.94.25,1.72.76,2.34.51.62,1.22,1.08,2.15,1.39.92.31,2.14.47,3.65.47,1.27,0,2.28-.1,3.03-.29.75-.19,1.39-.46,1.91-.8.52-.34.92-.77,1.2-1.29.28-.52.42-1.12.42-1.82,0-.94-.25-1.71-.75-2.33-.5-.62-1.22-1.08-2.14-1.4-.92-.32-2.14-.47-3.66-.47-2.41,0-4.15.42-5.22,1.27M1197,528.86c.61.44.92,1.02.92,1.74s-.35,1.35-1.04,1.85c-.69.49-2.1.74-4.21.74s-3.5-.25-4.21-.74c-.7-.49-1.05-1.1-1.05-1.83s.35-1.34,1.04-1.83c.7-.49,2.1-.74,4.21-.74s3.55.27,4.34.81M1188.13,537.37h-1.8v1.8h1.8v-1.8ZM1199.22,547.49v-1.02c-.55-.28-1.13-.74-1.71-1.41-.59-.66-1.09-1.43-1.51-2.32h-1.52c.18.49.46,1.05.81,1.67.36.62.72,1.11,1.09,1.5h-10.04v1.58h12.89Z"/>
    <path d="M1198.37,558.94c.57-.65.85-1.48.85-2.49,0-1.36-.49-2.44-1.47-3.24-1.13-.92-2.93-1.38-5.41-1.38-2.22,0-3.81.42-4.78,1.25-.96.83-1.45,1.9-1.45,3.23,0,.77.18,1.46.55,2.07.37.61.9,1.09,1.59,1.44.69.35,1.44.52,2.25.52,1.22,0,2.23-.37,3-1.11.77-.74,1.16-1.64,1.16-2.69,0-.6-.14-1.18-.42-1.73-.28-.55-.71-1.02-1.28-1.4,1.28.01,2.27.16,2.97.45.7.29,1.22.68,1.59,1.18.28.38.42.82.42,1.33,0,.62-.22,1.15-.67,1.58-.28.26-.73.46-1.35.6l.12,1.58c1-.13,1.78-.52,2.35-1.17M1192.5,554.4c.51.5.77,1.1.77,1.82s-.26,1.32-.77,1.79c-.51.48-1.21.71-2.1.71s-1.65-.24-2.19-.72c-.54-.48-.81-1.05-.81-1.72,0-.46.13-.89.39-1.31.26-.41.64-.74,1.13-.97.49-.23,1.02-.35,1.56-.35.82,0,1.5.25,2.01.75"/>
    <line class="st2" x1="568.82" y1="958.98" x2="440.92" y2="1014.11"/>
    <line class="st2" x1="568.82" y1="1014.11" x2="440.92" y2="958.99"/>
    <path class="st12" d="M550.09,940.07c-10.25,0-18.55-8.31-18.55-18.55s8.31-18.55,18.55-18.55,18.55,8.31,18.55,18.55-8.3,18.55-18.55,18.55"/>
    <path class="st1" d="M550.09,940.07c-10.25,0-18.55-8.31-18.55-18.55s8.31-18.55,18.55-18.55,18.55,8.31,18.55,18.55-8.3,18.55-18.55,18.55Z"/>
  </g>
  <rect class="st12" x="782.46" y="717.24" width="88" height="513.33"/>
  <rect class="st12" x="806.42" y="459.66" width="88" height="513.33"/>
</svg>