<?xml version="1.0" encoding="UTF-8"?>
<svg id="Layer_1" xmlns="http://www.w3.org/2000/svg" xmlns:xlink="http://www.w3.org/1999/xlink" version="1.1" viewBox="0 0 1200 1697.14">
  <!-- Generator: Adobe Illustrator 29.6.0, SVG Export Plug-In . SVG Version: 2.1.1 Build 207)  -->
  <defs>
    <style>
      .st0, .st1, .st2, .st3 {
        fill: none;
      }

      .st1 {
        stroke: #0d0e1c;
      }

      .st1, .st2, .st3 {
        stroke-linecap: round;
        stroke-linejoin: round;
      }

      .st1, .st3 {
        stroke-width: .08px;
      }

      .st2 {
        stroke-width: .14px;
      }

      .st2, .st3 {
        stroke: #000;
      }

      .st4 {
        clip-path: url(#clippath-1);
      }

      .st5 {
        clip-path: url(#clippath-3);
      }

      .st6 {
        clip-path: url(#clippath-4);
      }

      .st7 {
        clip-path: url(#clippath-2);
      }

      .st8 {
        clip-path: url(#clippath-7);
      }

      .st9 {
        clip-path: url(#clippath-6);
      }

      .st10 {
        clip-path: url(#clippath-8);
      }

      .st11 {
        clip-path: url(#clippath-5);
      }

      .st12 {
        fill: #fff;
      }

      .st13 {
        fill: #ece9e5;
      }

      .st14 {
        fill: #373a3b;
      }

      .st15 {
        fill: #302c35;
      }

      .st16 {
        clip-path: url(#clippath);
      }
    </style>
    <clipPath id="clippath">
      <rect class="st0" x="242.13" y="441.48" width="715.75" height="814.19"/>
    </clipPath>
    <clipPath id="clippath-1">
      <rect class="st0" x="677.15" y="765.81" width="72.53" height="159.57"/>
    </clipPath>
    <clipPath id="clippath-2">
      <rect class="st0" x="242.13" y="441.48" width="715.75" height="814.19"/>
    </clipPath>
    <clipPath id="clippath-3">
      <rect class="st0" x="643.51" y="992.73" width="28.59" height="39.2"/>
    </clipPath>
    <clipPath id="clippath-4">
      <rect class="st0" x="242.13" y="441.48" width="715.75" height="814.19"/>
    </clipPath>
    <clipPath id="clippath-5">
      <rect class="st0" x="242.13" y="441.48" width="715.75" height="814.19"/>
    </clipPath>
    <clipPath id="clippath-6">
      <rect class="st0" x="715.29" y="1076.91" width="26.86" height="36.25"/>
    </clipPath>
    <clipPath id="clippath-7">
      <rect class="st0" x="242.13" y="441.48" width="715.75" height="814.19"/>
    </clipPath>
    <clipPath id="clippath-8">
      <rect class="st0" x="242.13" y="441.48" width="715.75" height="814.19"/>
    </clipPath>
  </defs>
  <rect class="st13" x="428.75" y="660.48" width="339.03" height="482.74"/>
  <rect class="st13" x="505.66" y="526.21" width="245.93" height="135.78"/>
  <rect class="st12" x="511.96" y="666.21" width="204.54" height="11.47"/>
  <rect class="st12" x="444.15" y="1010.28" width="49.4" height="120.12"/>
  <rect class="st12" x="438.99" y="907.75" width="55.21" height="98.68"/>
  <rect class="st15" x="428.75" y="663.41" width="85.69" height="28.95"/>
  <rect class="st15" x="711.45" y="663.41" width="56.34" height="28.95"/>
  <rect class="st15" x="428.75" y="692.36" width="85.69" height="16.19"/>
  <rect class="st15" x="711.45" y="692.36" width="56.34" height="16.19"/>
  <rect class="st15" x="613.47" y="1127.37" width="154.48" height="16.02"/>
  <rect class="st15" x="428.75" y="1127.37" width="113.7" height="15.85"/>
  <rect class="st15" x="428.75" y="708.55" width="17.71" height="418.99"/>
  <rect class="st15" x="750.24" y="708.55" width="17.71" height="418.99"/>
  <rect class="st14" x="446.46" y="1003.73" width="56" height="5.74"/>
  <rect class="st15" x="622.72" y="1120.79" width="126" height="10.1"/>
  <rect class="st15" x="622.72" y="1111.85" width="6.41" height="9.21"/>
  <rect class="st15" x="622.72" y="991.41" width="6.41" height="49.59"/>
  <rect class="st15" x="627.95" y="986.36" width="122.63" height="5.74"/>
  <rect class="st15" x="743.66" y="991.58" width="7.95" height="137.24"/>
  <rect class="st15" x="627.95" y="991.42" width="114.36" height="1.35"/>
  <rect class="st15" x="627.95" y="1119.27" width="115.71" height="1.52"/>
  <rect class="st14" x="742.15" y="991.58" width="1.52" height="127.85"/>
  <rect class="st15" x="630.65" y="926.64" width="63.59" height="7.76"/>
  <rect class="st15" x="684.46" y="926.64" width="71.1" height="7.76"/>
  <rect class="st15" x="622.72" y="926.81" width="7.93" height="65.95"/>
  <rect class="st15" x="716.51" y="660.48" width="51.28" height="3.03"/>
  <rect class="st15" x="428.75" y="660.48" width="80.63" height="3.32"/>
  <path class="st3" d="M514.44,692.19v-28.68M711.45,663.51v28.68M711.45,708.38v-32.39M711.45,675.99h-1.01M630.15,675.99h-1.01M515.45,675.99h-1.01M514.44,675.99v32.39M514.44,708.38h-68.15M446.29,708.38v295.18M446.29,1009.29v118.07M613.62,1127.37h1.01M614.63,1127.37h8.09M622.72,926.64h127.52M750.24,926.64v-218.26M630.48,986.36v-51.95M630.48,934.4h119.76M750.24,934.4v51.95M750.24,986.36h-119.76M707.74,590.64l-12.82,1.35M694.92,591.99l-12.82,3.38M682.1,595.37l-11.81,5.4M670.29,600.77l-10.8,7.76M659.5,608.52l-9.45,9.11M650.05,617.63l-7.42,10.79M642.63,628.43l-5.4,11.81M637.23,640.24l-3.71,12.82M633.52,653.05l-1.01,13.16M707.74,666.21v-75.57M703.01,666.55v4.05M637.57,666.55h65.44M637.57,670.6v-4.05M703.01,670.6h-65.44M634.19,677.68h72.19M703.01,666.21h-65.44M703.01,672.28h-65.44M634.19,672.28v5.4M706.39,672.28v5.4M706.39,672.28h-72.19M634.19,672.28v5.4M637.57,672.28h-3.38M637.57,666.21v6.07M630.15,666.21h7.42M630.15,677.68v-11.47M634.19,677.68h-4.05M710.44,666.21v11.47M703.01,666.21h7.42M703.01,672.28v-6.07M706.39,672.28h-3.37M706.39,677.68v-5.4M710.44,677.68h-4.05M519.16,670.6h105.93M625.09,670.6v-4.05M625.09,666.55h-105.93M519.16,666.55v4.05M625.09,677.68h-105.93M519.16,666.21h105.93M515.45,677.68h3.71M519.16,677.68v-11.47M519.16,666.21h-3.71M515.45,666.21v11.47M625.09,677.68h4.05M629.13,677.68v-11.47M629.13,666.21h-4.05M625.09,666.21v11.47M711.45,692.19v16.19M711.45,708.38h38.8M446.29,708.38h68.15M514.44,708.38v-16.19M514.44,663.51h197.01M711.45,675.66h-1.01M630.15,675.66h-1.01M515.45,675.66h-1.01M630.48,934.4h3.71M636.56,934.4h2.36M641.28,934.4h2.36M646,934.4h2.36M651.06,934.4h2.36M655.78,934.4h2.36M660.51,934.4h2.36M665.23,934.4h2.36M669.95,934.4h2.36M674.68,934.4h2.7M679.74,934.4h2.36M684.46,934.4h2.36M689.18,934.4h2.36M693.91,934.4h2.36M698.63,934.4h2.36M703.35,934.4h2.7M708.41,934.4h2.36M713.13,934.4h2.36M717.86,934.4h2.36M722.58,934.4h2.36M727.3,934.4h2.36M732.36,934.4h2.36M737.09,934.4h2.36M741.81,934.4h2.36M746.53,934.4h3.71M750.24,934.4v3.37M750.24,940.14v2.36M750.24,944.86v2.36M750.24,949.58v2.36M750.24,954.31v2.7M750.24,959.37v2.36M750.24,964.09v2.36M750.24,968.81v2.36M750.24,973.54v2.36M750.24,978.26v2.36M750.24,982.98v3.38M750.24,986.36h-3.71M744.17,986.36h-2.36M739.45,986.36h-2.36M734.72,986.36h-2.36M729.66,986.36h-2.36M724.94,986.36h-2.36M720.22,986.36h-2.36M715.5,986.36h-2.36M710.77,986.36h-2.36M706.05,986.36h-2.7M700.99,986.36h-2.36M696.27,986.36h-2.36M691.54,986.36h-2.36M686.82,986.36h-2.36M682.1,986.36h-2.36M677.38,986.36h-2.7M672.31,986.36h-2.36M667.59,986.36h-2.36M662.87,986.36h-2.36M658.15,986.36h-2.36M653.42,986.36h-2.36M648.36,986.36h-2.36M643.64,986.36h-2.36M638.92,986.36h-2.36M634.19,986.36h-3.71M630.48,986.36v-2.02M630.48,981.97v-2.36M630.48,972.52v-2.02"/>
  <path class="st3" d="M613.76,1143.22h154.02M767.78,1143.22v-15.86M542.43,1127.37h-96.14M428.75,1127.37v15.86M428.75,1143.22h112.67M613.61,1127.37h1.01M428.75,708.38v45.21M428.75,761.68v164.96M428.75,934.4v51.95M428.75,994.45v132.91M767.78,1127.37v-418.99M751.59,657.78h-245.93M751.59,538.02h-245.93M751.59,550.16h-245.93M751.59,561.97h-245.93M751.59,574.12h-245.93M751.59,585.92h-245.93M751.59,598.07h-245.93M751.59,609.87h-245.93M751.59,621.68h-245.93M751.59,633.83h-245.93M751.59,645.63h-245.93M751.59,526.21h-245.93M505.66,526.21v134.26M509.38,663.51h207.13M751.59,660.48v-134.26M446.29,839.27v-63.76"/>
  <path class="st3" d="M446.29,955.66h1.35M450,955.66h2.36M454.72,955.66h2.36M459.45,955.66h2.36M464.17,955.66h2.36M468.89,955.66h2.7M473.95,955.66h2.36M478.68,955.66h2.36M483.4,955.66h2.36M488.12,955.66h2.36M492.84,955.66h1.35M494.19,955.66v-1.35M494.19,951.95v-2.36M494.19,947.22v-2.36M494.19,942.5v-2.36M494.19,937.78v-2.36M494.19,933.06v-2.36M494.19,927.99v-2.36M494.19,923.27v-2.36M494.19,918.55v-2.36M494.19,913.83v-2.36M494.19,909.1v-1.35M494.19,907.75h-1.35M490.48,907.75h-2.36M485.76,907.75h-2.36M481.04,907.75h-2.36M476.31,907.75h-2.36M471.59,907.75h-2.7M466.53,907.75h-2.36M461.81,907.75h-2.36M457.09,907.75h-2.36M452.36,907.75h-2.36M447.64,907.75h-1.35M446.29,907.75v1.35M446.29,911.46v2.36M446.29,916.19v2.36M446.29,920.91v2.36M446.29,925.63v2.36M446.29,930.69v2.36M446.29,935.42v2.36M446.29,940.14v2.36M446.29,944.86v2.36M446.29,949.58v2.36M446.29,954.31v1.35M446.29,1003.56h1.35M450,1003.56h2.36M454.72,1003.56h2.36M459.45,1003.56h2.36M464.17,1003.56h2.36M468.89,1003.56h2.7M473.95,1003.56h2.36M478.68,1003.56h2.36M483.4,1003.56h2.36M488.12,1003.56h2.36M492.84,1003.56h1.35M494.19,1003.56v-1.35M494.19,999.85v-2.36M494.19,995.13v-2.36M494.19,990.4v-2.36M494.19,985.68v-2.7M494.19,980.62v-2.36M494.19,975.9v-2.36M494.19,971.18v-2.36M494.19,966.45v-2.36M494.19,961.73v-2.36M494.19,957.01v-1.35M494.19,955.66h-1.35M490.48,955.66h-2.36M485.76,955.66h-2.36M481.04,955.66h-2.36M476.31,955.66h-2.36M471.59,955.66h-2.7M466.53,955.66h-2.36M461.81,955.66h-2.36M457.09,955.66h-2.36M452.36,955.66h-2.36M447.64,955.66h-1.35M446.29,955.66v1.35M446.29,959.37v2.36M446.29,964.09v2.36M446.29,968.81v2.36M446.29,973.54v2.36M446.29,978.26v2.36M446.29,982.98v2.7M446.29,988.04v2.36M446.29,992.77v2.36M446.29,997.49v2.36M446.29,1002.21v1.35M446.29,1009.3h56M502.29,1009.3v-5.73M502.29,1003.56h-56M611.25,1060.91l-13.16,1.35M598.1,1062.26l-12.48,3.71M585.61,1065.97l-11.47,6.07M574.15,1072.04l-10.12,8.43M564.03,1080.48l-8.1,9.78M555.93,1090.26l-6.07,11.81M549.86,1102.07l-4.05,12.48M545.81,1114.55l-1.01,12.82M542.43,1127.37v15.85M613.61,1143.22v-15.85M611.25,1127.37v-66.46M544.8,1127.37h66.46M614.63,1127.37h-1.01M629.62,1143.22h-6.89M446.29,1058.55v47.57"/>
  <path class="st3" d="M446.29,1010.64v95.47M622.72,1111.85v15.52M622.72,986.35v54.65M627.78,1043.37v62.75M627.78,1106.45v2.7M748.55,986.35h-118.07M693.57,1109.15l-1.35-12.82M692.22,1096.33l-3.71-12.15M688.51,1084.19l-6.07-11.47M682.43,1072.72l-8.1-10.12M674.34,1062.6l-10.12-8.1M664.22,1054.5l-11.13-6.07M653.08,1048.43l-12.48-3.71M640.6,1044.72l-12.82-1.35M629.13,1041.01h-6.41M622.72,1111.85h6.41M627.78,1109.15h65.78M627.78,1106.11v3.04M627.78,1109.15v-2.7M627.78,1106.11v-62.75"/>
  <path class="st15" d="M629.13,1041.01v-48.24M742.15,1119.27v-126.51M629.13,1119.27v-7.42M742.15,1119.27h-113.01M742.15,992.77h-113.01"/>
  <path class="st0" d="M750.24,926.65h-8.09M742.15,926.65v7.76M742.15,934.4h8.09M694.24,926.65h-63.76M630.48,934.4h63.76M694.24,934.4v-7.76M694.24,926.65h47.91M742.15,934.4h-47.91M742.15,926.65v7.76M694.24,934.4v-7.76M622.72,926.65v59.71M630.48,926.65h-7.76M719.54,660.48h-3.04M716.51,660.48v3.04M719.54,660.48h48.24M509.38,660.48h-3.37M509.38,663.51v-3.04M428.75,660.48h77.25M767.78,716.48v426.75M767.78,1143.22h-73.88M542.44,1143.22h-113.69M428.75,926.65v-173.06M767.78,660.48v56M428.75,1143.22v-482.75"/>
  <g class="st16">
    <path class="st2" d="M94.44,1117.58h6.07M118.05,1196.86l16.19-7.08M129.86,1172.23l4.38,17.54M157.52,1200.91l-27.66-28.68M157.52,1200.91l-39.47-4.05M157.52,1200.91l-23.28-11.13M94.44,878.4h6.07M94.44,1037.97h6.07M94.44,958.35h6.07M94.44,878.4v239.18M1220.17,418.93H37.09"/>
    <path d="M115.82,469.82c-.43.28-.75.67-.96,1.17-.21.5-.32,1.11-.32,1.85,0,.58.11,1.1.32,1.57.21.46.5.82.89,1.07.38.25.78.37,1.21.37s.82-.11,1.15-.34c.33-.22.6-.57.82-1.05.15-.33.32-.92.52-1.8.19-.88.38-1.42.57-1.62.19-.21.43-.31.71-.31.33,0,.62.15.85.45.24.3.35.77.35,1.42s-.13,1.09-.39,1.42c-.26.32-.64.51-1.15.56l.07,1.03c.47-.02.9-.15,1.27-.4.37-.25.66-.6.85-1.06.19-.46.29-.99.29-1.59,0-.55-.09-1.04-.28-1.49-.18-.45-.45-.79-.8-1.02-.36-.23-.74-.35-1.14-.35-.37,0-.71.09-1,.28-.3.19-.55.48-.75.87-.16.3-.33.82-.5,1.57-.18.75-.31,1.23-.39,1.45-.13.34-.29.59-.48.73-.19.15-.41.22-.66.22s-.48-.08-.69-.23c-.21-.16-.37-.39-.5-.7-.12-.32-.18-.68-.18-1.09,0-.46.08-.88.24-1.25.16-.37.37-.64.63-.82.26-.17.59-.29.99-.34l-.09-1.01c-.54.01-1.02.16-1.45.44M114.68,478.53h2.79l1.28,1.33-4.08,2.9v1.42l4.79-3.56,3.26,3.41v-1.46l-3.99-4.04h3.99v-1.08h-8.06v1.08Z"/>
    <path d="M120.34,488.05h-.92v5.37h.92v-5.37ZM117.89,488.05h-.92v5.37h.92v-5.37Z"/>
    <path d="M115.82,498.15c-.43.28-.75.67-.96,1.17-.21.5-.32,1.12-.32,1.85,0,.58.1,1.1.32,1.57.21.47.51.82.89,1.07.38.25.78.37,1.21.37s.82-.12,1.15-.34c.33-.22.61-.57.82-1.05.15-.32.32-.92.51-1.8.19-.87.39-1.41.57-1.62.19-.21.43-.32.71-.32.34,0,.62.15.86.45.23.3.35.77.35,1.42s-.13,1.1-.39,1.42c-.26.32-.65.51-1.16.56l.08,1.03c.47-.02.89-.15,1.27-.4.37-.25.66-.6.85-1.06.19-.46.29-.99.29-1.6,0-.55-.09-1.04-.28-1.49-.18-.45-.45-.79-.8-1.02-.35-.23-.73-.35-1.14-.35-.37,0-.7.1-1,.29-.3.19-.55.48-.75.87-.16.3-.32.82-.5,1.57-.18.75-.31,1.23-.39,1.45-.13.34-.29.58-.48.73-.19.15-.41.22-.66.22s-.48-.07-.69-.23c-.21-.15-.38-.39-.5-.7-.12-.31-.18-.68-.18-1.09,0-.46.08-.88.24-1.25s.37-.64.63-.82c.26-.18.59-.29.99-.34l-.09-1.02c-.54.01-1.02.16-1.45.45"/>
    <path d="M114.67,506.37h2.31l.67.7-2.99,1.95v1.23l3.67-2.48,2.16,2.25v-1.29l-2.37-2.36h4.59v-1h-8.06v1ZM114.67,515.49v1.04c.23-.12.46-.21.7-.25.24-.05.82-.07,1.74-.07h1.32c.44,0,.74-.02.91-.05.27-.06.49-.16.67-.31.18-.15.33-.38.44-.69.12-.31.17-.72.17-1.22s-.07-.95-.21-1.33c-.14-.39-.33-.68-.59-.89-.25-.2-.59-.35-1-.44l-.13.98c.42.11.7.27.87.49.16.22.24.57.24,1.04,0,.5-.11.88-.34,1.14-.16.19-.45.28-.85.28-.03,0-.12,0-.26,0-.13-.38-.25-.98-.34-1.78-.05-.39-.1-.69-.15-.89-.07-.27-.18-.51-.32-.72-.14-.21-.33-.39-.57-.52-.24-.13-.5-.2-.78-.2-.49,0-.89.18-1.2.52-.31.35-.47.85-.47,1.49,0,.39.07.76.2,1.1.13.34.35.7.66,1.07-.28.03-.52.1-.72.2M117.24,515.21c-.44,0-.76-.05-.99-.16-.29-.14-.52-.36-.68-.66-.17-.3-.25-.64-.25-1.03s.09-.68.26-.88c.17-.2.4-.3.66-.3.17,0,.33.05.47.14.14.09.25.22.33.39.07.17.14.46.19.87.1.72.23,1.27.38,1.63h-.36Z"/>
    <path d="M114.67,518.52h2.32l.67.7-2.99,1.95v1.23l3.67-2.48,2.16,2.25v-1.29l-2.37-2.36h4.59v-1h-8.06v1ZM115.52,524.99c0-.15.02-.26.07-.34.05-.08.11-.14.19-.17.08-.04.26-.05.55-.05h3.41v1h.77v-1h2.04l-.6-.99h-1.44v-.73h-.77v.73h-3.36c-.6,0-.98.04-1.17.12-.18.08-.33.22-.45.42-.11.2-.17.48-.17.84,0,.22.03.47.09.76l.87-.15c-.02-.18-.04-.33-.04-.44"/>
    <path d="M101.52,470.87h3.66v3.82h.95v-3.82h2.5v4.41h.95v-5.49h-8.06v1.07ZM102.66,476.56c-.43.28-.75.67-.96,1.17-.21.5-.32,1.12-.32,1.85,0,.58.1,1.1.32,1.57.21.46.51.82.89,1.07.38.25.78.37,1.21.37s.82-.11,1.15-.34c.33-.22.61-.57.82-1.05.14-.32.32-.92.51-1.8.2-.87.39-1.41.57-1.62.19-.21.43-.32.72-.32.33,0,.62.15.85.45.23.3.35.77.35,1.42s-.13,1.1-.39,1.42c-.26.32-.65.51-1.16.56l.08,1.03c.47-.02.89-.15,1.27-.4.37-.25.66-.6.85-1.06s.29-.99.29-1.6c0-.55-.09-1.04-.28-1.49-.18-.45-.45-.79-.8-1.02-.35-.23-.73-.35-1.14-.35-.37,0-.7.1-1,.29-.3.19-.55.48-.75.87-.16.3-.32.82-.5,1.57-.18.75-.31,1.23-.39,1.45-.13.34-.29.58-.47.73-.19.15-.41.22-.66.22s-.48-.07-.69-.23c-.21-.15-.38-.39-.5-.7-.12-.31-.18-.68-.18-1.09,0-.46.08-.88.24-1.25s.37-.64.63-.82c.26-.18.59-.29.99-.34l-.09-1.02c-.54.01-1.02.16-1.45.45"/>
    <path d="M107.18,487.03h-.92v5.37h.92v-5.37ZM104.73,487.03h-.92v5.37h.92v-5.37Z"/>
    <polygon points="101.52 498.19 105.18 498.19 105.18 502.01 106.13 502.01 106.13 498.19 108.62 498.19 108.62 502.6 109.57 502.6 109.57 497.11 101.52 497.11 101.52 498.19"/>
    <path d="M102.17,504.41c-.52.51-.79,1.17-.79,2,0,.51.12.99.36,1.42.24.44.57.76,1,.99.43.23,1.02.34,1.77.34.92,0,1.65-.26,2.18-.77.53-.51.79-1.18.79-1.99,0-.73-.22-1.34-.65-1.85-.52-.61-1.32-.91-2.4-.91-.99,0-1.74.26-2.26.76M106.11,505.17c.37.33.55.74.55,1.24s-.18.9-.56,1.23c-.37.33-.92.5-1.64.5-.76,0-1.34-.17-1.71-.49-.37-.33-.56-.74-.56-1.24s.19-.91.56-1.24c.37-.33.93-.49,1.68-.49s1.3.16,1.68.49M101.52,511.08h3.06c.42,0,.8.06,1.15.17.23.07.41.2.54.37.13.17.19.37.19.59,0,.24-.07.49-.22.73l.92.34c.21-.35.32-.69.32-1.03,0-.23-.07-.45-.2-.64-.13-.19-.4-.4-.82-.63h.89v-.9h-5.83v1Z"/>
    <path d="M102.49,517.22c-.19-.26-.28-.57-.28-.94,0-.49.17-.9.51-1.23.34-.33.83-.51,1.47-.55v4.39c.12,0,.21,0,.26,0,.97,0,1.71-.25,2.24-.75.53-.5.8-1.14.8-1.93s-.27-1.47-.82-1.98c-.54-.51-1.3-.76-2.28-.76s-1.68.25-2.21.76c-.53.5-.79,1.19-.79,2.05,0,.68.16,1.24.49,1.69.33.44.79.74,1.39.9l.13-1.03c-.42-.15-.72-.36-.91-.61M106.22,515.08c.3.31.45.7.45,1.16,0,.51-.19.92-.57,1.24-.25.21-.61.33-1.1.38v-3.29c.51.03.91.21,1.22.52M101.86,520.58c-.31.4-.47.98-.47,1.75,0,.46.08.88.24,1.24.16.37.38.64.67.84.29.2.6.29.93.29s.62-.08.85-.24c.23-.16.4-.38.52-.66s.27-.77.46-1.48c.14-.49.22-.78.25-.88.07-.17.16-.3.26-.38.1-.08.22-.12.35-.12.2,0,.38.1.53.3.15.2.23.52.23.98,0,.39-.08.69-.25.9-.17.21-.41.34-.71.38l.13.98c.38-.07.68-.18.9-.35.23-.17.4-.42.54-.77.13-.35.2-.76.2-1.22,0-.31-.04-.6-.12-.86-.08-.27-.17-.48-.29-.63-.15-.21-.33-.37-.55-.49-.22-.12-.46-.18-.72-.18-.28,0-.54.07-.78.22-.24.15-.42.36-.56.64-.13.28-.29.79-.47,1.52-.14.55-.25.89-.33,1.02-.13.2-.31.29-.53.29-.25,0-.47-.11-.65-.33-.19-.22-.28-.56-.28-1.02s.1-.81.31-1.06c.21-.25.51-.41.9-.46l-.15-.99c-.62.11-1.09.37-1.4.77M109.57,525.96h-8.06v1h8.06v-1ZM101.52,532.64v1.04c.22-.13.46-.21.7-.25.24-.04.82-.06,1.74-.06h1.32c.44,0,.74-.02.91-.05.27-.06.49-.17.67-.31.18-.15.33-.38.44-.69.12-.31.18-.72.18-1.22s-.07-.95-.21-1.34c-.14-.39-.33-.68-.59-.88-.25-.2-.59-.35-1-.44l-.13.98c.42.11.7.27.87.5.16.22.24.57.24,1.04,0,.5-.11.88-.33,1.14-.17.19-.45.28-.85.28-.04,0-.13,0-.26,0-.13-.38-.24-.98-.34-1.78-.05-.39-.1-.69-.15-.89-.07-.27-.18-.51-.32-.72s-.33-.38-.57-.51c-.24-.13-.5-.2-.78-.2-.49,0-.89.18-1.2.52s-.47.84-.47,1.49c0,.39.06.76.19,1.1.13.34.35.7.66,1.07-.28.03-.52.09-.72.2M104.08,532.36c-.43,0-.76-.06-.99-.16-.29-.14-.52-.36-.68-.66-.17-.3-.25-.64-.25-1.03s.09-.68.27-.89c.17-.2.39-.3.66-.3.17,0,.33.05.47.14.14.09.25.22.32.39.07.17.14.46.2.87.1.72.23,1.27.37,1.63h-.36ZM108.14,530.27c-.2.2-.29.43-.29.71s.09.5.29.7c.19.2.43.3.72.3s.51-.1.71-.3c.19-.2.29-.43.29-.7s-.1-.5-.29-.7c-.19-.2-.43-.3-.69-.3-.29,0-.54.1-.73.29M109.28,530.57c.12.12.17.25.17.41s-.06.3-.18.42c-.12.11-.26.17-.42.17s-.31-.06-.42-.17c-.12-.12-.18-.25-.18-.41s.06-.3.18-.41c.11-.12.26-.18.43-.18s.3.06.42.18M102.49,538.42c-.19-.26-.28-.57-.28-.94,0-.49.17-.9.51-1.23.34-.33.83-.51,1.47-.55v4.39c.12,0,.21,0,.26,0,.97,0,1.71-.25,2.24-.75.53-.5.8-1.14.8-1.93s-.27-1.47-.82-1.99-1.3-.76-2.28-.76-1.68.25-2.21.76c-.53.5-.79,1.19-.79,2.05,0,.68.16,1.25.49,1.69s.79.74,1.39.9l.13-1.03c-.42-.15-.72-.36-.91-.62M106.22,536.28c.3.31.45.7.45,1.16,0,.5-.19.92-.57,1.24-.25.21-.61.33-1.1.37v-3.29c.51.03.91.21,1.22.52"/>
    <path d="M102.36,543.21c0-.15.02-.26.07-.34.05-.08.11-.14.19-.17.08-.04.26-.05.55-.05h3.41v1h.77v-1h2.04l-.59-.99h-1.45v-.73h-.77v.73h-3.35c-.59,0-.99.04-1.17.12-.19.08-.33.22-.45.42-.12.2-.17.48-.17.85,0,.22.03.47.09.75l.87-.14c-.03-.18-.04-.33-.04-.44M101.86,547.9c-.32.4-.47.99-.47,1.75,0,.46.08.87.24,1.24.16.36.38.64.67.84.29.2.6.29.93.29s.62-.08.85-.24c.23-.16.4-.38.52-.66.12-.28.27-.77.46-1.48.13-.49.22-.78.25-.88.07-.17.16-.3.26-.38.1-.08.22-.12.35-.12.2,0,.38.1.53.3.15.2.23.52.23.98,0,.39-.09.69-.25.9-.17.21-.4.34-.7.39l.13.98c.37-.07.68-.18.9-.35.23-.17.4-.43.54-.77.13-.35.2-.76.2-1.22,0-.31-.04-.6-.12-.86-.08-.27-.17-.48-.29-.63-.15-.21-.33-.37-.55-.49-.22-.12-.46-.18-.72-.18-.28,0-.54.07-.78.22-.24.15-.42.36-.56.65-.13.28-.29.79-.47,1.52-.14.54-.25.88-.33,1.02-.13.2-.31.29-.53.29-.25,0-.47-.11-.65-.33-.19-.22-.28-.56-.28-1.02s.1-.81.31-1.06c.21-.26.51-.41.9-.46l-.15-.99c-.62.11-1.09.36-1.4.77"/>
    <path d="M101.52,554.61h2.31l.67.71-2.98,1.94v1.23l3.67-2.48,2.16,2.25v-1.29l-2.37-2.36h4.59v-1h-8.06v1ZM101.52,563.39v1.04c.22-.12.46-.21.7-.25.24-.05.82-.07,1.74-.07h1.32c.44,0,.74-.02.91-.05.27-.06.49-.16.67-.31.18-.15.33-.38.44-.69.12-.31.18-.72.18-1.22s-.07-.95-.21-1.33c-.14-.39-.33-.68-.59-.88-.25-.21-.59-.35-1-.44l-.13.98c.42.11.7.27.87.49.16.22.24.57.24,1.04,0,.5-.11.88-.34,1.14-.16.19-.45.28-.85.28-.03,0-.12,0-.26,0-.13-.38-.25-.98-.34-1.78-.05-.39-.1-.69-.15-.89-.07-.27-.18-.51-.32-.72-.14-.21-.33-.39-.57-.52-.24-.13-.5-.2-.78-.2-.49,0-.89.17-1.2.52-.31.35-.47.85-.47,1.49,0,.39.06.76.19,1.1.13.34.35.7.66,1.07-.28.03-.52.1-.72.2M104.09,563.11c-.44,0-.76-.05-.99-.16-.29-.14-.52-.36-.68-.66-.17-.3-.25-.64-.25-1.03s.09-.68.26-.88c.17-.2.4-.3.66-.3.17,0,.33.05.47.14.14.09.25.22.32.39.07.17.14.46.19.87.1.72.23,1.27.38,1.63h-.36Z"/>
    <path d="M102.25,566.34c-.57.39-.86.94-.86,1.63s.27,1.3.82,1.8c.55.5,1.32.75,2.32.75.42,0,.82-.06,1.19-.18.37-.12.69-.28.95-.49.26-.21.46-.48.61-.8.14-.33.21-.67.21-1.03,0-.65-.26-1.19-.78-1.61h2.88v-1h-8.06v.93h.73ZM106.11,566.8c.38.32.56.7.56,1.13s-.18.8-.54,1.1c-.36.31-.93.46-1.69.46s-1.3-.16-1.68-.48c-.37-.32-.56-.7-.56-1.13,0-.54.25-.96.76-1.28.31-.19.82-.29,1.51-.29s1.25.16,1.63.48"/>
    <path d="M102.55,876.98c-.56.45-.83,1.06-.83,1.85,0,.59.16,1.09.48,1.48.31.39.76.68,1.34.88.58.2,1.35.3,2.29.3.8,0,1.44-.06,1.91-.18.47-.12.87-.29,1.2-.51.33-.21.58-.49.75-.82.17-.33.26-.71.26-1.15,0-.59-.16-1.08-.47-1.48-.31-.39-.76-.68-1.34-.88-.58-.2-1.35-.29-2.3-.29-1.51,0-2.6.26-3.27.8M108.55,877.72c.38.27.57.64.57,1.1s-.22.85-.65,1.17-1.32.47-2.64.47-2.2-.16-2.64-.47c-.44-.31-.66-.7-.66-1.15s.22-.85.66-1.16c.44-.31,1.32-.47,2.64-.47s2.23.17,2.72.52M102.81,1030.59c.18.11.36.25.54.42.18.17.52.55,1.01,1.15.6.72,1.07,1.23,1.42,1.54.35.31.68.53.99.67.31.13.63.2.95.2.64,0,1.16-.23,1.6-.68.43-.45.64-1.07.64-1.85s-.2-1.39-.6-1.85c-.4-.46-.97-.72-1.73-.79l-.1,1.03c.5,0,.9.15,1.19.44.29.29.43.68.43,1.15,0,.45-.14.82-.4,1.11-.27.28-.6.42-.99.42s-.77-.15-1.19-.46c-.42-.31-.99-.91-1.7-1.79-.46-.57-.87-1-1.22-1.31-.35-.3-.71-.52-1.07-.65-.22-.09-.45-.13-.69-.12v5.37h.95v-3.99Z"/>
    <path d="M101.86,1036.68h3.03c.53,0,.94.05,1.22.16.28.11.49.28.64.52.15.24.22.5.22.78,0,.37-.11.64-.33.8-.22.17-.55.25-.99.25h-3.79v1h3.39c.6,0,1.04.14,1.31.41.27.28.41.62.41,1.03,0,.23-.05.43-.16.6-.11.17-.25.29-.42.35-.17.07-.46.1-.85.1h-3.68v.99h4.01c.66,0,1.16-.16,1.48-.47.32-.32.48-.76.48-1.35,0-.75-.34-1.35-1.02-1.82.32-.11.57-.31.75-.59.18-.28.27-.63.27-1.07,0-.39-.09-.74-.26-1.05-.17-.3-.41-.55-.69-.74h.82v-.89h-5.83v1Z"/>
    <path d="M109.94,955.84v-.64c-.35-.17-.71-.47-1.08-.89-.37-.42-.69-.9-.95-1.46h-.95c.11.31.28.66.51,1.05s.45.7.68.95h-6.3v1h8.09ZM101.86,959.76h3.03c.53,0,.94.05,1.22.16.28.11.49.28.64.52.15.24.22.5.22.78,0,.37-.11.63-.33.8-.22.16-.55.25-.99.25h-3.79v1h3.39c.6,0,1.04.14,1.31.41.27.28.41.62.41,1.03,0,.23-.05.43-.16.6-.11.17-.25.29-.42.35-.17.07-.46.1-.85.1h-3.68v.99h4.01c.66,0,1.16-.16,1.48-.47.32-.31.48-.76.48-1.35,0-.75-.34-1.35-1.02-1.82.32-.11.57-.31.75-.59.18-.28.27-.63.27-1.07,0-.39-.09-.74-.26-1.05s-.41-.55-.69-.74h.82v-.89h-5.83v1Z"/>
    <path d="M101.86,781.1h6.86l-6.86,2.35v.97l6.74,2.36h-6.74v1.04h8.06v-1.45l-5.61-1.94c-.57-.2-1-.34-1.29-.43.26-.08.66-.21,1.19-.39l5.71-1.93v-1.62h-8.06v1.04ZM101.86,793.13v1.04c.22-.12.46-.21.7-.25s.83-.07,1.75-.07h1.32c.44,0,.75-.01.91-.05.27-.06.5-.16.67-.31.18-.15.33-.38.44-.69.12-.32.18-.72.18-1.23s-.07-.95-.21-1.33c-.14-.38-.33-.68-.59-.88s-.59-.35-1.01-.44l-.13.98c.41.11.7.27.87.49.16.22.24.57.24,1.04,0,.5-.11.88-.34,1.14-.16.19-.45.28-.85.28-.03,0-.12,0-.26,0-.13-.38-.25-.97-.34-1.78-.05-.39-.1-.69-.15-.89-.07-.27-.18-.51-.32-.72-.14-.21-.33-.38-.57-.51-.24-.13-.5-.2-.78-.2-.49,0-.89.17-1.2.52-.31.35-.47.85-.47,1.49,0,.39.07.76.19,1.1.13.34.35.7.66,1.07-.27.03-.51.09-.72.2M104.42,792.84c-.43,0-.76-.05-.99-.16-.29-.14-.52-.36-.69-.66-.16-.3-.25-.64-.25-1.03s.09-.68.26-.88c.18-.2.4-.3.66-.3.17,0,.33.04.47.14.14.09.25.22.32.39.07.17.14.46.2.87.1.73.23,1.27.37,1.63h-.36ZM108.47,790.75c-.19.2-.29.43-.29.71s.1.5.29.7c.19.2.43.3.71.3s.52-.1.71-.3c.2-.19.29-.43.29-.7s-.09-.5-.29-.7c-.19-.2-.42-.3-.69-.3-.29,0-.54.1-.73.29M109.62,791.05c.12.12.17.25.17.41s-.06.3-.17.42c-.12.11-.26.17-.42.17s-.31-.06-.43-.17c-.12-.12-.17-.25-.17-.41s.06-.3.17-.41c.12-.12.26-.18.43-.18.16,0,.3.06.42.18"/>
    <rect x="101.86" y="795.47" width="8.05" height="1"/>
    <path d="M109.94,804.71v-.64c-.35-.17-.71-.47-1.08-.89-.37-.42-.69-.9-.95-1.46h-.95c.11.31.28.66.51,1.05.23.39.45.7.68.94h-6.3v1h8.09ZM107.69,807.91h-1.13v1.14h1.13v-1.14ZM102.98,807.91h-1.13v1.14h1.13v-1.14Z"/>
    <path d="M102.33,811.19c-.41.47-.61,1.07-.61,1.81,0,.9.32,1.61.98,2.13.53.43,1.16.64,1.89.64s1.39-.24,1.88-.73c.49-.49.73-1.09.73-1.8,0-.54-.17-1.05-.5-1.54l2.17.44v3.24h.94v-4.04l-4.14-.79-.12.94c.23.15.42.35.56.61.15.26.22.55.22.87,0,.52-.16.94-.49,1.25-.33.32-.77.48-1.34.48s-1.07-.17-1.43-.5c-.36-.33-.54-.74-.54-1.22,0-.4.13-.74.38-1.02.26-.28.64-.46,1.14-.54l-.09-1.05c-.68.06-1.22.33-1.63.8M102.55,817.61c-.56.45-.83,1.06-.83,1.85,0,.6.16,1.09.47,1.48.32.39.76.68,1.35.88.58.2,1.34.29,2.28.29.8,0,1.44-.06,1.91-.18.47-.12.87-.29,1.2-.5.33-.21.58-.49.75-.82.17-.33.26-.71.26-1.15,0-.59-.16-1.08-.47-1.47-.31-.39-.76-.68-1.34-.88-.58-.2-1.35-.3-2.3-.3-1.51,0-2.6.27-3.27.81M108.55,818.34c.38.27.58.64.58,1.1s-.22.86-.65,1.17c-.44.31-1.32.47-2.65.47s-2.19-.16-2.64-.47c-.44-.31-.66-.7-.66-1.16s.22-.84.65-1.16,1.32-.47,2.64-.47,2.23.17,2.72.51"/>
    <polygon points="104.61 1173.59 115.95 1179.08 100.92 1181.2 99.97 1183.16 114.4 1190.15 115.29 1188.31 103.96 1182.83 118.98 1180.7 119.93 1178.74 105.5 1171.75 104.61 1173.59"/>
    <path d="M102.35,1109.76c-.42.47-.63,1.06-.63,1.78,0,.79.24,1.45.73,1.96s1.08.78,1.79.78c.52,0,.95-.13,1.3-.4.35-.27.57-.64.68-1.12.17.37.4.65.68.84.29.19.61.28.95.28.37,0,.71-.1,1.04-.29.33-.2.58-.49.77-.86.19-.38.28-.78.28-1.23,0-.64-.18-1.18-.55-1.61s-.88-.71-1.54-.83l-.18,1c.49.07.85.24,1.09.5.24.26.36.58.36.97s-.12.71-.36.96c-.24.25-.54.37-.9.37-.46,0-.79-.17-1.01-.51s-.33-.72-.33-1.15c0-.04,0-.09.01-.16l-.87-.11c.07.28.11.52.11.7,0,.46-.15.84-.44,1.14-.3.3-.67.45-1.12.45-.48,0-.88-.16-1.2-.49-.32-.32-.48-.72-.48-1.19,0-.4.12-.73.37-1s.65-.47,1.21-.59l-.13-1c-.67.07-1.22.34-1.64.81M101.86,1116.29h3.03c.53,0,.94.05,1.22.16.28.1.49.28.64.52.15.24.22.5.22.78,0,.37-.11.63-.33.8-.22.16-.55.25-.99.25h-3.79v1h3.39c.6,0,1.04.14,1.31.41.27.28.41.62.41,1.03,0,.23-.05.43-.16.6-.11.17-.25.29-.42.35-.17.07-.46.1-.85.1h-3.68v1h4.01c.66,0,1.16-.16,1.48-.47.32-.31.48-.76.48-1.35,0-.75-.34-1.35-1.02-1.82.32-.11.57-.31.75-.59.18-.28.27-.64.27-1.08,0-.39-.09-.74-.26-1.05s-.41-.55-.69-.74h.82v-.89h-5.83v1Z"/>
    <path d="M1169.92,445.66c-.63.42-1.11,1-1.43,1.74-.32.74-.48,1.65-.48,2.74,0,.86.16,1.64.47,2.33.31.69.75,1.21,1.32,1.58.57.37,1.17.55,1.81.55s1.21-.17,1.71-.5c.49-.34.9-.85,1.23-1.55.22-.48.47-1.37.76-2.67.29-1.3.58-2.1.86-2.41.28-.31.63-.47,1.07-.47.49,0,.92.22,1.28.66.35.44.53,1.15.53,2.11s-.19,1.63-.58,2.11c-.39.48-.97.75-1.72.83l.11,1.53c.71-.03,1.34-.22,1.89-.59s.98-.89,1.27-1.58c.29-.68.43-1.47.43-2.37,0-.81-.14-1.55-.41-2.21-.27-.66-.68-1.17-1.2-1.51-.53-.35-1.09-.52-1.7-.52-.55,0-1.05.14-1.49.43-.45.28-.82.71-1.12,1.29-.23.45-.49,1.22-.75,2.33-.27,1.11-.46,1.83-.59,2.15-.19.5-.43.87-.71,1.09-.28.22-.61.33-.99.33s-.72-.11-1.03-.34c-.31-.23-.56-.58-.74-1.04-.18-.47-.27-1.01-.27-1.62,0-.68.12-1.3.35-1.85.24-.55.55-.95.93-1.21.38-.26.88-.43,1.48-.5l-.13-1.51c-.8.02-1.53.24-2.16.66M1169.48,459.41c0-.22.04-.39.11-.5.07-.12.17-.21.29-.26.12-.05.39-.08.81-.08h5.09v1.49h1.15v-1.49h3.04l-.89-1.47h-2.16v-1.09h-1.15v1.09h-5.01c-.89,0-1.47.06-1.74.18-.27.12-.5.33-.67.62-.17.3-.25.72-.25,1.25,0,.33.04.7.13,1.12l1.3-.21c-.04-.27-.06-.49-.06-.65"/>
    <path d="M1168.22,468.59h8.71v-1.48h-4.67c-.74,0-1.31-.08-1.7-.24-.39-.16-.7-.44-.92-.83-.23-.39-.34-.81-.34-1.25s.11-.82.33-1.12c.22-.3.53-.5.91-.59.27-.06.79-.09,1.56-.09h4.83v-1.48h-5.4c-.63,0-1.09.03-1.38.09-.43.09-.8.24-1.09.46-.3.22-.55.55-.74,1-.2.45-.3.93-.3,1.45,0,1.17.49,2.09,1.47,2.77h-1.28v1.33ZM1169.66,476.02c-.29-.38-.43-.85-.43-1.39,0-.73.25-1.34.76-1.83.51-.49,1.24-.76,2.2-.82v6.52c.17,0,.3,0,.39,0,1.44,0,2.55-.37,3.35-1.11.79-.74,1.19-1.7,1.19-2.86s-.41-2.19-1.21-2.95-1.95-1.14-3.41-1.14-2.52.38-3.3,1.12c-.78.75-1.18,1.76-1.18,3.04,0,1.02.24,1.85.74,2.51.49.65,1.18,1.1,2.07,1.34l.19-1.53c-.62-.22-1.08-.53-1.36-.91M1175.23,472.84c.46.46.68,1.04.68,1.72,0,.75-.28,1.36-.85,1.83-.36.31-.91.49-1.65.56v-4.88c.76.05,1.37.31,1.82.77M1176.93,480.77h-1.68v1.69h1.68v-1.69ZM1169.9,480.77h-1.68v1.69h1.68v-1.69ZM1179.49,495.97c.53-.61.8-1.38.8-2.33,0-1.28-.46-2.29-1.38-3.04-1.05-.86-2.74-1.29-5.07-1.29-2.08,0-3.57.39-4.47,1.17-.9.78-1.36,1.78-1.36,3.02,0,.72.17,1.37.51,1.94.35.57.84,1.02,1.49,1.35.65.33,1.35.49,2.1.49,1.15,0,2.09-.35,2.81-1.04.73-.69,1.09-1.54,1.09-2.52,0-.57-.13-1.11-.39-1.62-.26-.51-.66-.95-1.2-1.31,1.2.01,2.13.15,2.78.42.65.27,1.14.64,1.48,1.1.26.36.39.77.39,1.24,0,.59-.21,1.08-.63,1.48-.26.24-.69.43-1.26.56l.11,1.47c.93-.12,1.67-.49,2.2-1.09M1173.99,491.71c.48.47.72,1.03.72,1.7s-.24,1.24-.72,1.68c-.48.44-1.13.67-1.96.67s-1.55-.23-2.05-.68-.76-.99-.76-1.61c0-.43.12-.84.36-1.23.25-.39.6-.69,1.06-.91.47-.21.95-.32,1.46-.32.77,0,1.4.23,1.88.7M1169.9,499.62h-1.68v1.69h1.68v-1.69ZM1168.22,508.64c0,.77.07,1.42.2,1.94.13.53.33.97.59,1.32.26.35.63.64,1.12.88.49.24,1.01.36,1.57.36.7,0,1.31-.2,1.82-.59.51-.4.88-.96,1.09-1.69.28.57.64.99,1.1,1.27.45.28.94.42,1.45.42.55,0,1.08-.16,1.59-.47.5-.32.88-.75,1.12-1.31.24-.56.36-1.3.36-2.22v-4.53h-12.02v4.6ZM1178.82,505.63v2.41c0,.87-.06,1.48-.17,1.84-.11.35-.32.63-.62.82-.3.19-.65.29-1.05.29-.42,0-.77-.1-1.05-.31-.28-.21-.48-.51-.6-.92-.09-.3-.14-.81-.14-1.52v-2.61h3.63ZM1173.77,505.63v2.79c0,.77-.07,1.36-.2,1.76-.13.41-.37.73-.7.96-.33.23-.72.35-1.17.35-.38,0-.72-.08-1.01-.24-.29-.16-.51-.36-.67-.61-.15-.25-.26-.56-.33-.92-.04-.21-.06-.57-.06-1.08v-3h4.13ZM1169.9,515.61h-1.68v1.69h1.68v-1.69ZM1169.26,520.69c-.83.66-1.24,1.58-1.24,2.74,0,.89.24,1.61.71,2.2.47.58,1.14,1.01,2.01,1.3.87.29,2.01.44,3.42.44,1.19,0,2.14-.09,2.84-.27.71-.18,1.3-.43,1.79-.75.49-.32.86-.72,1.12-1.21.26-.49.39-1.05.39-1.7,0-.88-.24-1.61-.71-2.18s-1.14-1.02-2.01-1.31c-.87-.29-2.01-.44-3.43-.44-2.26,0-3.89.4-4.89,1.19M1178.21,521.78c.57.4.86.95.86,1.63s-.33,1.27-.98,1.73c-.65.46-1.96.69-3.94.69s-3.28-.23-3.94-.69c-.66-.47-.99-1.04-.99-1.72s.33-1.25.98-1.72c.65-.46,1.97-.69,3.94-.69s3.32.25,4.06.76M1169.9,529.73h-1.68v1.69h1.68v-1.69ZM1173.66,534.2c-.53-.4-1.18-.6-1.96-.6-1.05,0-1.93.36-2.63,1.09-.7.73-1.05,1.69-1.05,2.88s.35,2.15,1.05,2.88,1.56,1.09,2.59,1.09c.74,0,1.38-.19,1.92-.58.53-.39.92-.95,1.16-1.69.22.6.54,1.04.96,1.33.41.3.9.44,1.46.44.87,0,1.61-.32,2.22-.96.61-.64.92-1.49.92-2.54s-.3-1.89-.9-2.52c-.6-.63-1.33-.95-2.21-.95-.58,0-1.08.15-1.49.45-.42.29-.74.75-.96,1.36-.19-.74-.55-1.3-1.08-1.7M1178.53,536.16c.36.37.54.84.54,1.41s-.19,1.03-.55,1.4c-.37.38-.83.56-1.37.56s-.96-.18-1.32-.55c-.36-.36-.54-.83-.54-1.4s.18-1.07.54-1.43c.36-.37.82-.55,1.4-.55.5,0,.93.19,1.29.56M1173.41,535.81c.46.46.69,1.04.69,1.73s-.23,1.31-.69,1.78c-.47.47-1.05.71-1.76.71s-1.28-.23-1.73-.69c-.45-.46-.68-1.04-.68-1.75,0-.46.11-.88.33-1.28s.52-.69.91-.89c.39-.2.8-.3,1.22-.3.69,0,1.26.23,1.72.69"/>
    <line class="st3" x1="750.24" y1="934.4" x2="630.48" y2="986.36"/>
    <line class="st3" x1="750.24" y1="986.35" x2="630.48" y2="934.4"/>
  </g>
  <polygon class="st12" points="677.15 765.81 677.15 766.23 748.76 766.23 748.76 904.11 749.68 904.57 749.68 765.81 677.15 765.81"/>
  <g class="st4">
    <path class="st12" d="M677.15,868.67v-102.45h71.61v137.88l-15.91-7.87c-6.84-3.39-12.5-6.18-17.19-8.5l-2.46-1.22c-5.23-2.59-9.1-4.51-11.97-5.93l-1.08-.53-7.08-3.5-15.92-7.88Z"/>
    <path class="st12" d="M677.15,925.38v-56.71l15.92,7.88v28.24c0,1.81,1.46,3.27,3.27,3.27h33.23c1.81,0,3.28-1.47,3.28-3.27v-8.55l15.91,7.87v21.27h-71.61Z"/>
    <path class="st12" d="M693.07,904.79v-28.24l7.08,3.5c.35.18.7.36,1.08.53,2.86,1.43,6.74,3.34,11.97,5.94.8.38,1.61.79,2.46,1.22,4.69,2.32,10.35,5.12,17.19,8.5v8.55c0,1.81-1.46,3.27-3.27,3.27h-33.23c-1.81,0-3.27-1.47-3.27-3.27"/>
  </g>
  <polyline class="st1" points="748.77 904.11 748.77 925.38 677.15 925.38 677.15 868.67"/>
  <polyline class="st1" points="732.85 896.24 748.77 904.11 749.68 904.57 749.68 765.82 677.15 765.82 677.15 766.23 677.15 868.67 693.07 876.55"/>
  <line class="st1" x1="713.2" y1="886.52" x2="715.66" y2="887.73"/>
  <line class="st1" x1="700.14" y1="880.05" x2="701.23" y2="880.58"/>
  <line class="st1" x1="729.57" y1="908.07" x2="696.34" y2="908.07"/>
  <g class="st7">
    <path class="st1" d="M696.34,908.07c-1.81,0-3.27-1.47-3.27-3.27"/>
    <path class="st1" d="M732.85,904.79c0,1.81-1.46,3.27-3.27,3.27"/>
    <path class="st1" d="M732.85,904.79v-8.55c-6.84-3.39-12.5-6.18-17.19-8.5-.85-.42-1.67-.83-2.46-1.22-5.23-2.59-9.1-4.51-11.97-5.94-.38-.17-.74-.35-1.09-.53l-7.08-3.5v28.24"/>
  </g>
  <g class="st5">
    <path class="st12" d="M672.1,992.75c0,7.7,0,15.4,0,23.1,0,8.89-6.4,16.09-14.3,16.08-7.9,0-14.29-7.21-14.28-16.09,0-7.71,0-15.41.02-23.11,9.52,0,19.04.02,28.56.02"/>
  </g>
  <g class="st6">
    <path class="st3" d="M672.1,992.75c0,7.7,0,15.4,0,23.1,0,8.89-6.4,16.09-14.3,16.08-7.9,0-14.29-7.21-14.28-16.09,0-7.71,0-15.41.02-23.11,9.52,0,19.04.02,28.56.02Z"/>
  </g>
  <rect class="st12" x="679.62" y="992.77" width="62.46" height="61.8"/>
  <polyline class="st3" points="742.08 992.77 742.08 1054.56 734.68 1054.56"/>
  <line class="st3" x1="742.08" y1="992.77" x2="680.11" y2="992.77"/>
  <line class="st3" x1="679.62" y1="993.79" x2="679.62" y2="1054.02"/>
  <polyline class="st3" points="679.62 993.79 679.62 992.77 680.11 992.77"/>
  <polyline class="st3" points="680.54 1054.56 679.62 1054.56 679.62 1054.02"/>
  <line class="st3" x1="680.54" y1="1054.56" x2="734.68" y2="1054.56"/>
  <line class="st3" x1="711.09" y1="992.77" x2="711.09" y2="1009.93"/>
  <g class="st11">
    <path class="st3" d="M714.85,1009.85c0-2.12-1.72-3.84-3.84-3.84s-3.84,1.72-3.84,3.84,1.72,3.84,3.84,3.84,3.84-1.72,3.84-3.84Z"/>
    <path class="st3" d="M714.85,1009.85c0-2.12-1.72-3.84-3.84-3.84s-3.84,1.72-3.84,3.84,1.72,3.84,3.84,3.84,3.84-1.72,3.84-3.84Z"/>
  </g>
  <g class="st9">
    <path class="st12" d="M717.36,1077.53h15.14c.57,0,1.04.35,1.04.77v33.32c0,.42-.47.76-1.04.76h-15.14c-.57,0-1.04-.35-1.04-.76v-33.32c0-.43.47-.77,1.04-.77M724.66,1092.22c-1.51,0-2.74,1.23-2.74,2.74s1.23,2.73,2.74,2.73,2.73-1.22,2.73-2.73-1.22-2.74-2.73-2.74"/>
    <path class="st12" d="M736.08,1094.97c0-1.14.92-2.06,2.06-2.06s2.05.92,2.05,2.06-.91,2.05-2.05,2.05-2.06-.92-2.06-2.05"/>
    <path class="st12" d="M724.66,1093.49c.81,0,1.46.66,1.46,1.47s-.65,1.46-1.46,1.46-1.47-.65-1.47-1.46.65-1.47,1.47-1.47"/>
    <path class="st12" d="M724.66,1092.22c1.51,0,2.73,1.23,2.73,2.74s-1.22,2.73-2.73,2.73-2.74-1.22-2.74-2.73,1.23-2.74,2.74-2.74M726.13,1094.97c0-.81-.65-1.47-1.46-1.47s-1.47.66-1.47,1.47.65,1.46,1.47,1.46,1.46-.65,1.46-1.46"/>
    <path class="st12" d="M717.36,1077.53c-.57,0-1.04.35-1.04.77v33.32c0,.42.46.76,1.04.76h15.14c.57,0,1.04-.35,1.04-.76v-33.32c0-.43-.47-.77-1.04-.77h-15.14ZM715.28,1112.39v-34.86c0-.34.46-.62,1.04-.62h25.82v36.24h-25.82c-.58,0-1.04-.34-1.04-.76M740.19,1094.97c0-1.14-.91-2.06-2.05-2.06s-2.06.92-2.06,2.06.92,2.05,2.06,2.05,2.05-.92,2.05-2.05"/>
  </g>
  <g class="st8">
    <path class="st3" d="M738.14,1097.02c-1.14,0-2.06-.92-2.06-2.05s.92-2.06,2.06-2.06,2.05.92,2.05,2.06-.91,2.05-2.05,2.05Z"/>
    <path class="st3" d="M724.66,1097.7c-1.51,0-2.74-1.22-2.74-2.73s1.23-2.74,2.74-2.74,2.73,1.23,2.73,2.74-1.22,2.73-2.73,2.73Z"/>
    <path class="st3" d="M724.66,1096.43c-.82,0-1.47-.65-1.47-1.46s.65-1.47,1.47-1.47,1.46.66,1.46,1.47-.65,1.46-1.46,1.46Z"/>
    <path class="st3" d="M732.5,1077.53h-15.14c-.57,0-1.03.35-1.03.77v33.32c0,.42.47.76,1.03.76h15.14c.57,0,1.04-.35,1.04-.76v-33.32c0-.43-.47-.77-1.04-.77Z"/>
  </g>
  <line class="st3" x1="734.17" y1="1113.16" x2="742.15" y2="1113.16"/>
  <g class="st10">
    <path class="st3" d="M742.14,1076.91h-25.83c-.58,0-1.03.28-1.03.62v34.86c0,.43.45.76,1.03.76h8.18"/>
  </g>
  <line class="st3" x1="734.17" y1="1113.16" x2="724.5" y2="1113.16"/>
  <line class="st3" x1="742.14" y1="1113.16" x2="742.14" y2="1076.91"/>
  <line class="st3" x1="451.76" y1="1033.25" x2="462.43" y2="1033.25"/>
  <rect class="st3" x="446.29" y="1010.28" width="47.26" height="117.09"/>
  <line class="st3" x1="481.22" y1="1088.82" x2="481.22" y2="1099.24"/>
  <line class="st3" x1="461.62" y1="1088.82" x2="461.62" y2="1099.24"/>
  <line class="st3" x1="466.77" y1="1093.96" x2="456.34" y2="1093.96"/>
  <line class="st3" x1="486.51" y1="1093.96" x2="476.08" y2="1093.96"/>
  <rect class="st3" x="451.75" y="1082.84" width="39.34" height="22.93"/>
  <rect class="st3" x="456" y="1019.91" width="26.53" height="26.53"/>
  <rect class="st3" x="449.41" y="1013.31" width="39.72" height="39.86"/>
  <polygon class="st12" points="500.6 839.27 504.31 845.34 509.71 850.07 510.38 850.4 510.05 851.08 509.03 852.09 507.69 852.43 506 851.75 504.31 850.74 503.97 850.74 503.64 850.74 503.3 850.74 502.63 850.74 502.29 851.08 509.71 854.79 517.81 856.14 525.9 854.79 533.32 851.08 533.32 850.74 532.99 850.74 532.31 850.74 531.98 850.74 531.64 850.74 531.3 850.74 529.61 851.75 527.93 852.43 526.58 852.09 525.57 851.08 525.57 850.4 525.9 850.07 531.3 845.34 535.01 839.27 500.6 839.27"/>
  <polygon class="st12" points="452.7 839.27 456.41 845.34 462.14 850.07 462.48 850.4 462.48 851.08 461.47 852.09 459.78 852.43 458.09 851.75 456.74 850.74 456.41 850.74 455.73 850.74 455.4 850.74 455.06 850.74 454.72 850.74 454.39 851.08 461.8 854.79 469.9 856.14 478.34 854.79 485.42 851.08 485.42 850.74 485.08 850.74 484.75 850.74 484.07 850.74 483.73 850.74 483.4 850.74 481.71 851.75 480.02 852.43 478.67 852.09 477.66 851.08 477.66 850.4 478 850.07 483.73 845.34 487.11 839.27 452.7 839.27"/>
  <polygon class="st12" points="535.01 775.51 500.6 775.51 487.11 775.51 452.7 775.51 446.29 775.51 446.29 839.27 452.7 839.27 487.11 839.27 500.6 839.27 535.01 839.27 541.76 839.27 541.76 775.51 535.01 775.51"/>
  <polygon class="st12" points="517.81 758.64 509.71 759.99 502.29 763.7 502.62 764.04 503.3 764.04 503.64 764.04 503.97 764.04 504.31 764.04 506 763.03 507.69 762.36 509.03 762.69 510.05 763.7 510.38 764.38 509.71 764.72 504.31 769.44 500.6 775.51 535.01 775.51 531.3 769.44 525.9 764.72 525.56 764.38 525.56 763.7 526.57 762.69 527.92 762.36 529.61 763.03 531.3 764.04 531.64 764.04 531.97 764.04 532.31 764.04 532.99 764.04 533.32 764.04 533.32 763.7 525.9 759.99 517.81 758.64"/>
  <polygon class="st12" points="469.9 758.64 461.81 759.99 454.39 763.7 454.72 764.04 455.06 764.04 455.4 764.04 455.74 764.04 456.41 764.04 456.75 764.04 458.1 763.03 459.78 762.35 461.47 762.69 462.48 763.7 462.48 764.38 462.15 764.72 456.41 769.44 452.7 775.51 487.11 775.51 483.73 769.44 478 764.72 477.66 764.38 477.66 763.7 478.67 762.69 480.02 762.35 481.71 763.03 483.4 764.04 483.73 764.04 484.07 764.04 484.75 764.04 485.08 764.04 485.42 764.04 485.42 763.7 478.34 759.99 469.9 758.64"/>
  <line class="st3" x1="531.3" y1="764.04" x2="531.64" y2="764.04"/>
  <line class="st3" x1="531.64" y1="764.04" x2="531.98" y2="764.04"/>
  <line class="st3" x1="532.99" y1="764.04" x2="532.31" y2="764.04"/>
  <line class="st3" x1="532.31" y1="764.04" x2="531.98" y2="764.04"/>
  <line class="st3" x1="533.32" y1="763.7" x2="533.32" y2="764.04"/>
  <line class="st3" x1="533.32" y1="764.04" x2="532.99" y2="764.04"/>
  <line class="st3" x1="525.57" y1="763.7" x2="526.58" y2="762.69"/>
  <line class="st3" x1="526.58" y1="762.69" x2="527.93" y2="762.36"/>
  <line class="st3" x1="527.93" y1="762.36" x2="529.61" y2="763.03"/>
  <line class="st3" x1="529.61" y1="763.03" x2="531.3" y2="764.04"/>
  <line class="st3" x1="525.9" y1="764.72" x2="525.57" y2="764.38"/>
  <line class="st3" x1="525.57" y1="764.38" x2="525.57" y2="763.7"/>
  <line class="st3" x1="525.9" y1="764.72" x2="531.3" y2="769.44"/>
  <line class="st3" x1="531.3" y1="769.44" x2="535.01" y2="775.51"/>
  <line class="st3" x1="504.31" y1="764.04" x2="503.97" y2="764.04"/>
  <line class="st3" x1="503.97" y1="764.04" x2="503.64" y2="764.04"/>
  <line class="st3" x1="502.63" y1="764.04" x2="503.3" y2="764.04"/>
  <line class="st3" x1="503.3" y1="764.04" x2="503.64" y2="764.04"/>
  <line class="st3" x1="502.29" y1="763.7" x2="502.62" y2="764.04"/>
  <line class="st3" x1="510.05" y1="763.7" x2="509.03" y2="762.69"/>
  <line class="st3" x1="509.04" y1="762.69" x2="507.69" y2="762.36"/>
  <line class="st3" x1="507.69" y1="762.36" x2="506" y2="763.03"/>
  <line class="st3" x1="506" y1="763.03" x2="504.31" y2="764.04"/>
  <line class="st3" x1="509.71" y1="764.72" x2="510.38" y2="764.38"/>
  <line class="st3" x1="510.38" y1="764.38" x2="510.05" y2="763.7"/>
  <line class="st3" x1="509.71" y1="764.72" x2="504.31" y2="769.44"/>
  <line class="st3" x1="504.31" y1="769.44" x2="500.6" y2="775.51"/>
  <line class="st3" x1="533.32" y1="763.7" x2="525.9" y2="759.99"/>
  <line class="st3" x1="525.9" y1="759.99" x2="517.81" y2="758.64"/>
  <line class="st3" x1="517.81" y1="758.65" x2="509.71" y2="760"/>
  <line class="st3" x1="509.71" y1="759.99" x2="502.29" y2="763.7"/>
  <line class="st3" x1="531.3" y1="850.74" x2="531.64" y2="850.74"/>
  <line class="st3" x1="531.64" y1="850.74" x2="531.98" y2="850.74"/>
  <line class="st3" x1="532.99" y1="850.74" x2="532.31" y2="850.74"/>
  <line class="st3" x1="532.31" y1="850.74" x2="531.98" y2="850.74"/>
  <line class="st3" x1="533.32" y1="851.08" x2="533.32" y2="850.74"/>
  <line class="st3" x1="533.32" y1="850.74" x2="532.99" y2="850.74"/>
  <line class="st3" x1="525.57" y1="851.08" x2="526.58" y2="852.09"/>
  <line class="st3" x1="526.58" y1="852.09" x2="527.93" y2="852.43"/>
  <line class="st3" x1="527.93" y1="852.43" x2="529.61" y2="851.75"/>
  <line class="st3" x1="529.61" y1="851.75" x2="531.3" y2="850.74"/>
  <line class="st3" x1="525.9" y1="850.07" x2="525.57" y2="850.4"/>
  <line class="st3" x1="525.57" y1="850.4" x2="525.57" y2="851.08"/>
  <line class="st3" x1="525.9" y1="850.07" x2="531.3" y2="845.34"/>
  <line class="st3" x1="531.3" y1="845.34" x2="535.01" y2="839.27"/>
  <line class="st3" x1="504.31" y1="850.74" x2="503.97" y2="850.74"/>
  <line class="st3" x1="503.97" y1="850.74" x2="503.64" y2="850.74"/>
  <line class="st3" x1="502.63" y1="850.74" x2="503.3" y2="850.74"/>
  <line class="st3" x1="503.3" y1="850.74" x2="503.64" y2="850.74"/>
  <line class="st3" x1="502.29" y1="851.08" x2="502.62" y2="850.74"/>
  <line class="st3" x1="510.05" y1="851.08" x2="509.03" y2="852.09"/>
  <line class="st3" x1="509.04" y1="852.09" x2="507.69" y2="852.43"/>
  <line class="st3" x1="507.69" y1="852.43" x2="506" y2="851.75"/>
  <line class="st3" x1="506" y1="851.75" x2="504.31" y2="850.74"/>
  <line class="st3" x1="509.71" y1="850.07" x2="510.38" y2="850.4"/>
  <line class="st3" x1="510.38" y1="850.4" x2="510.05" y2="851.08"/>
  <line class="st3" x1="509.71" y1="850.07" x2="504.31" y2="845.34"/>
  <line class="st3" x1="504.31" y1="845.34" x2="500.6" y2="839.27"/>
  <line class="st3" x1="533.32" y1="851.08" x2="525.9" y2="854.79"/>
  <line class="st3" x1="525.9" y1="854.79" x2="517.81" y2="856.14"/>
  <line class="st3" x1="517.81" y1="856.14" x2="509.71" y2="854.79"/>
  <line class="st3" x1="509.71" y1="854.79" x2="502.29" y2="851.08"/>
  <line class="st3" x1="541.76" y1="839.27" x2="541.76" y2="775.51"/>
  <line class="st3" x1="456.75" y1="764.04" x2="456.41" y2="764.04"/>
  <line class="st3" x1="456.41" y1="764.04" x2="455.74" y2="764.04"/>
  <line class="st3" x1="455.06" y1="764.04" x2="455.4" y2="764.04"/>
  <line class="st3" x1="455.4" y1="764.04" x2="455.73" y2="764.04"/>
  <line class="st3" x1="454.39" y1="763.7" x2="454.72" y2="764.04"/>
  <line class="st3" x1="454.72" y1="764.04" x2="455.06" y2="764.04"/>
  <line class="st3" x1="462.48" y1="763.7" x2="461.47" y2="762.69"/>
  <line class="st3" x1="461.47" y1="762.69" x2="459.78" y2="762.36"/>
  <line class="st3" x1="459.78" y1="762.36" x2="458.09" y2="763.03"/>
  <line class="st3" x1="458.1" y1="763.03" x2="456.75" y2="764.04"/>
  <line class="st3" x1="462.14" y1="764.72" x2="462.48" y2="764.38"/>
  <line class="st3" x1="462.48" y1="764.38" x2="462.48" y2="763.7"/>
  <line class="st3" x1="462.14" y1="764.72" x2="456.41" y2="769.44"/>
  <line class="st3" x1="456.41" y1="769.44" x2="452.7" y2="775.51"/>
  <line class="st3" x1="483.4" y1="764.04" x2="483.73" y2="764.04"/>
  <line class="st3" x1="483.73" y1="764.04" x2="484.07" y2="764.04"/>
  <line class="st3" x1="485.08" y1="764.04" x2="484.75" y2="764.04"/>
  <line class="st3" x1="484.75" y1="764.04" x2="484.07" y2="764.04"/>
  <line class="st3" x1="485.42" y1="763.7" x2="485.42" y2="764.04"/>
  <line class="st3" x1="485.42" y1="764.04" x2="485.08" y2="764.04"/>
  <line class="st3" x1="477.66" y1="763.7" x2="478.67" y2="762.69"/>
  <line class="st3" x1="478.67" y1="762.69" x2="480.02" y2="762.36"/>
  <line class="st3" x1="480.02" y1="762.36" x2="481.71" y2="763.03"/>
  <line class="st3" x1="481.71" y1="763.03" x2="483.4" y2="764.04"/>
  <line class="st3" x1="478" y1="764.72" x2="477.66" y2="764.38"/>
  <line class="st3" x1="477.66" y1="764.38" x2="477.66" y2="763.7"/>
  <line class="st3" x1="478" y1="764.72" x2="483.73" y2="769.44"/>
  <line class="st3" x1="483.73" y1="769.44" x2="487.11" y2="775.51"/>
  <line class="st3" x1="454.39" y1="763.7" x2="461.81" y2="759.99"/>
  <line class="st3" x1="461.81" y1="759.99" x2="469.9" y2="758.64"/>
  <line class="st3" x1="469.9" y1="758.65" x2="478.34" y2="760"/>
  <line class="st3" x1="478.34" y1="759.99" x2="485.42" y2="763.7"/>
  <line class="st3" x1="456.75" y1="850.74" x2="456.41" y2="850.74"/>
  <line class="st3" x1="456.41" y1="850.74" x2="455.74" y2="850.74"/>
  <line class="st3" x1="455.06" y1="850.74" x2="455.4" y2="850.74"/>
  <line class="st3" x1="455.4" y1="850.74" x2="455.73" y2="850.74"/>
  <line class="st3" x1="454.39" y1="851.08" x2="454.72" y2="850.74"/>
  <line class="st3" x1="454.72" y1="850.74" x2="455.06" y2="850.74"/>
  <line class="st3" x1="462.48" y1="851.08" x2="461.47" y2="852.09"/>
  <line class="st3" x1="461.47" y1="852.09" x2="459.78" y2="852.43"/>
  <line class="st3" x1="459.78" y1="852.43" x2="458.09" y2="851.75"/>
  <line class="st3" x1="458.1" y1="851.75" x2="456.75" y2="850.74"/>
  <line class="st3" x1="462.14" y1="850.07" x2="462.48" y2="850.4"/>
  <line class="st3" x1="462.48" y1="850.4" x2="462.48" y2="851.08"/>
  <line class="st3" x1="462.14" y1="850.07" x2="456.41" y2="845.34"/>
  <line class="st3" x1="456.41" y1="845.34" x2="452.7" y2="839.27"/>
  <line class="st3" x1="483.4" y1="850.74" x2="483.73" y2="850.74"/>
  <line class="st3" x1="483.73" y1="850.74" x2="484.07" y2="850.74"/>
  <line class="st3" x1="485.08" y1="850.74" x2="484.75" y2="850.74"/>
  <line class="st3" x1="484.75" y1="850.74" x2="484.07" y2="850.74"/>
  <line class="st3" x1="485.42" y1="851.08" x2="485.42" y2="850.74"/>
  <line class="st3" x1="485.42" y1="850.74" x2="485.08" y2="850.74"/>
  <line class="st3" x1="477.66" y1="851.08" x2="478.67" y2="852.09"/>
  <line class="st3" x1="478.67" y1="852.09" x2="480.02" y2="852.43"/>
  <line class="st3" x1="480.02" y1="852.43" x2="481.71" y2="851.75"/>
  <line class="st3" x1="481.71" y1="851.75" x2="483.4" y2="850.74"/>
  <line class="st3" x1="478" y1="850.07" x2="477.66" y2="850.4"/>
  <line class="st3" x1="477.66" y1="850.4" x2="477.66" y2="851.08"/>
  <line class="st3" x1="478" y1="850.07" x2="483.73" y2="845.34"/>
  <line class="st3" x1="483.73" y1="845.34" x2="487.11" y2="839.27"/>
  <line class="st3" x1="454.39" y1="851.08" x2="461.81" y2="854.79"/>
  <line class="st3" x1="461.81" y1="854.79" x2="469.9" y2="856.14"/>
  <line class="st3" x1="469.9" y1="856.14" x2="478.34" y2="854.79"/>
  <line class="st3" x1="478.34" y1="854.79" x2="485.42" y2="851.08"/>
  <line class="st3" x1="446.29" y1="839.27" x2="446.29" y2="775.51"/>
  <polyline class="st3" points="446.29 775.51 452.7 775.51 487.11 775.51 500.6 775.51 535.01 775.51 541.76 775.51"/>
  <polyline class="st3" points="541.76 839.27 535.01 839.27 500.6 839.27 487.11 839.27 452.7 839.27 446.29 839.27"/>
</svg>