<?xml version="1.0" encoding="UTF-8"?>
<svg id="Layer_1" xmlns="http://www.w3.org/2000/svg" xmlns:xlink="http://www.w3.org/1999/xlink" version="1.1" viewBox="0 0 1200 1697.14">
  <!-- Generator: Adobe Illustrator 29.6.0, SVG Export Plug-In . SVG Version: 2.1.1 Build 207)  -->
  <defs>
    <style>
      .st0, .st1, .st2, .st3 {
        fill: none;
      }

      .st1 {
        stroke: #0d0e1c;
      }

      .st1, .st2, .st3 {
        stroke-linecap: round;
        stroke-linejoin: round;
      }

      .st1, .st3 {
        stroke-width: .08px;
      }

      .st2 {
        stroke-width: .14px;
      }

      .st2, .st3 {
        stroke: #000;
      }

      .st4 {
        clip-path: url(#clippath-1);
      }

      .st5 {
        clip-path: url(#clippath-3);
      }

      .st6 {
        clip-path: url(#clippath-4);
      }

      .st7 {
        clip-path: url(#clippath-2);
      }

      .st8 {
        clip-path: url(#clippath-7);
      }

      .st9 {
        clip-path: url(#clippath-6);
      }

      .st10 {
        clip-path: url(#clippath-8);
      }

      .st11 {
        clip-path: url(#clippath-5);
      }

      .st12 {
        fill: #fff;
      }

      .st13 {
        fill: #ece9e5;
      }

      .st14 {
        fill: #373a3b;
      }

      .st15 {
        fill: #302c35;
      }

      .st16 {
        clip-path: url(#clippath);
      }
    </style>
    <clipPath id="clippath">
      <rect class="st0" x="675.61" y="790.52" width="72.57" height="159.65"/>
    </clipPath>
    <clipPath id="clippath-1">
      <rect class="st0" x="262.74" y="441.48" width="756.52" height="814.19"/>
    </clipPath>
    <clipPath id="clippath-2">
      <rect class="st0" x="642.23" y="1020.3" width="28.6" height="39.22"/>
    </clipPath>
    <clipPath id="clippath-3">
      <rect class="st0" x="262.74" y="441.48" width="756.52" height="814.19"/>
    </clipPath>
    <clipPath id="clippath-4">
      <rect class="st0" x="262.74" y="441.48" width="756.52" height="814.19"/>
    </clipPath>
    <clipPath id="clippath-5">
      <rect class="st0" x="714.58" y="1103.97" width="26.88" height="36.26"/>
    </clipPath>
    <clipPath id="clippath-6">
      <rect class="st0" x="262.74" y="441.48" width="756.52" height="814.19"/>
    </clipPath>
    <clipPath id="clippath-7">
      <rect class="st0" x="262.74" y="441.48" width="756.52" height="814.19"/>
    </clipPath>
    <clipPath id="clippath-8">
      <rect class="st0" x="262.74" y="441.48" width="756.52" height="814.19"/>
    </clipPath>
  </defs>
  <rect class="st13" x="408.62" y="687.87" width="358.46" height="483.34"/>
  <rect class="st3" x="408.62" y="687.87" width="358.46" height="483.34"/>
  <rect class="st13" x="472.41" y="529.57" width="237.62" height="173.15"/>
  <rect class="st3" x="472.41" y="529.57" width="237.62" height="173.15"/>
  <rect class="st12" x="437.47" y="1037.86" width="55.22" height="122.27"/>
  <rect class="st12" x="435.51" y="935.62" width="57.83" height="98.56"/>
  <rect class="st12" x="408.61" y="760.44" width="14.18" height="168.09"/>
  <rect class="st12" x="484.73" y="693.61" width="216.52" height="11.81"/>
  <rect class="st15" x="429.54" y="928.53" width="15.87" height="242.68"/>
  <rect class="st15" x="445.41" y="719.94" width="51.32" height="15.87"/>
  <rect class="st15" x="408.62" y="691.25" width="88.11" height="28.69"/>
  <rect class="st15" x="693.83" y="719.94" width="73.24" height="15.87"/>
  <rect class="st15" x="693.83" y="691.25" width="73.24" height="28.69"/>
  <rect class="st15" x="408.62" y="928.53" width="20.93" height="242.68"/>
  <rect class="st15" x="429.54" y="699.18" width="15.87" height="65.65"/>
  <rect class="st15" x="408.62" y="699.18" width="20.93" height="65.65"/>
  <rect class="st15" x="612.82" y="1155.01" width="154.25" height="16.2"/>
  <rect class="st15" x="430.22" y="1155.01" width="111.05" height="16.2"/>
  <rect class="st15" x="749.52" y="735.8" width="17.55" height="419.21"/>
  <rect class="st15" x="445.41" y="1031.14" width="55.69" height="6.07"/>
  <rect class="st15" x="621.93" y="1148.26" width="130.5" height="10.72"/>
  <rect class="st15" x="621.93" y="1013.93" width="5.07" height="134.33"/>
  <rect class="st15" x="627" y="1013.93" width="122.52" height="5.4"/>
  <rect class="st15" x="742.43" y="1019.33" width="14.77" height="128.94"/>
  <rect class="st15" x="627" y="1019.33" width="115.44" height="1.01"/>
  <rect class="st15" x="627" y="1020.34" width="1.35" height="126.91"/>
  <rect class="st14" x="627" y="1147.25" width="115.44" height="1.01"/>
  <rect class="st15" x="741.42" y="1019.33" width="1.02" height="127.92"/>
  <rect class="st15" x="629.7" y="954.18" width="119.82" height="8.1"/>
  <rect class="st15" x="621.93" y="954.18" width="7.77" height="59.74"/>
  <rect class="st14" x="407.27" y="997.72" width=".68" height="118.81"/>
  <rect class="st15" x="405.58" y="994.35" width="3.04" height="125.56"/>
  <rect class="st15" x="699.57" y="687.88" width="67.51" height="3.38"/>
  <rect class="st14" x="411.99" y="689.56" width="81.34" height=".67"/>
  <rect class="st15" x="408.62" y="687.88" width="84.72" height="3.38"/>
  <rect class="st14" x="407.27" y="694.29" width=".68" height="65.48"/>
  <rect class="st15" x="405.58" y="691.25" width="3.04" height="71.56"/>
  <g class="st16">
    <path class="st12" d="M691.54,901.32s0,0,0,0h0Z"/>
    <path class="st12" d="M691.87,901.48l.17.08c-.07-.03-.12-.06-.17-.08"/>
    <path class="st12" d="M693.15,902.11l.74.37c-.28-.13-.53-.26-.74-.37"/>
    <path class="st12" d="M694.2,902.63l.66.33c-.23-.11-.46-.22-.66-.33"/>
    <path class="st12" d="M694.89,902.98l.74.36c-.27-.13-.51-.25-.74-.36"/>
    <path class="st12" d="M696.04,903.55l.93.46c-.32-.16-.64-.31-.93-.46"/>
    <path class="st12" d="M698.6,904.81l.97.48c-.34-.16-.66-.32-.97-.48"/>
    <path class="st12" d="M707.3,909.11l1.03.51c-.36-.17-.69-.34-1.03-.51"/>
    <path class="st12" d="M691.52,929.57c0,1.82,1.47,3.29,3.29,3.29h33.24c1.81,0,3.28-1.47,3.28-3.29v-8.56l15.92,7.88v21.28h-71.65v-56.74l15.92,7.88v28.26Z"/>
    <path class="st12" d="M694.81,932.86c-1.82,0-3.29-1.47-3.29-3.29v-28.26h.01s0,0,0,0l.13.07s.11.06.2.09c.05.03.1.06.17.08.04.02.08.04.11.06.24.12.56.28,1,.49.21.11.46.24.74.37.1.06.21.1.31.15.2.1.42.22.66.33.01.01.02.01.04.02.23.11.47.24.74.37.13.07.27.14.41.21.29.15.61.3.93.46.51.25,1.05.51,1.63.8.31.16.63.32.97.48.31.16.63.32.96.47.46.24.94.47,1.46.72.5.25,1.04.52,1.6.8,1.13.56,2.36,1.17,3.71,1.83.34.18.67.35,1.03.51,1.05.52,2.15,1.07,3.34,1.66.79.38,1.61.8,2.46,1.22,4.69,2.32,10.36,5.12,17.2,8.51v8.55c0,1.82-1.47,3.29-3.27,3.29h-33.25Z"/>
    <path class="st12" d="M675.6,893.43v-102.5h71.65v137.96l-15.93-7.87c-6.84-3.39-12.51-6.19-17.2-8.51l-2.46-1.22c-1.19-.59-2.3-1.14-3.34-1.66l-1.03-.52c-1.35-.65-2.58-1.26-3.71-1.82l-1.6-.8-1.46-.72c-.33-.16-.64-.32-.96-.48l-.97-.48c-.58-.29-1.12-.55-1.63-.81l-.93-.46c-.14-.07-.28-.14-.41-.21l-.74-.36s-.03-.01-.04-.02l-.66-.33c-.1-.05-.21-.09-.31-.15l-.74-.38c-.44-.2-.77-.36-1-.49l-.11-.06-.17-.08-.2-.09-.13-.07h-.01s0,0,0,0l-15.92-7.88Z"/>
    <polygon class="st12" points="675.6 790.93 675.6 790.52 748.17 790.52 748.17 929.34 747.26 928.89 747.26 790.93 675.6 790.93"/>
  </g>
  <polyline class="st1" points="747.26 928.89 747.26 950.17 675.6 950.17 675.6 893.43"/>
  <polyline class="st1" points="731.33 921.01 747.26 928.89 748.18 929.34 748.18 790.52 675.61 790.52 675.61 790.93 675.61 893.43 691.52 901.31"/>
  <line class="st1" x1="711.67" y1="911.28" x2="714.13" y2="912.5"/>
  <line class="st1" x1="707.3" y1="909.11" x2="708.33" y2="909.63"/>
  <polyline class="st1" points="700.53 905.77 701.99 906.49 703.59 907.29"/>
  <line class="st1" x1="698.6" y1="904.81" x2="699.57" y2="905.29"/>
  <line class="st1" x1="696.04" y1="903.55" x2="696.97" y2="904.01"/>
  <line class="st1" x1="694.89" y1="902.98" x2="695.63" y2="903.34"/>
  <line class="st1" x1="694.2" y1="902.63" x2="694.85" y2="902.96"/>
  <line class="st1" x1="693.15" y1="902.11" x2="693.89" y2="902.48"/>
  <polyline class="st1" points="691.67 901.39 691.87 901.48 692.04 901.57 692.15 901.62"/>
  <line class="st1" x1="691.53" y1="901.31" x2="691.54" y2="901.32"/>
  <line class="st1" x1="728.05" y1="932.86" x2="694.81" y2="932.86"/>
  <g class="st4">
    <path class="st1" d="M694.81,932.86c-1.82,0-3.29-1.47-3.29-3.29"/>
    <path class="st1" d="M731.33,929.57c0,1.82-1.47,3.29-3.28,3.29"/>
    <path class="st1" d="M731.33,929.57v-8.56c-6.84-3.39-12.51-6.19-17.2-8.51-.85-.42-1.68-.83-2.46-1.22-1.19-.59-2.29-1.14-3.35-1.66-.35-.17-.69-.33-1.03-.51-1.35-.66-2.58-1.26-3.71-1.82-.56-.28-1.09-.54-1.6-.8-.51-.26-1-.49-1.46-.72-.33-.16-.65-.32-.96-.48-.34-.16-.66-.32-.97-.48-.58-.29-1.13-.55-1.63-.8-.31-.16-.64-.31-.92-.46-.14-.07-.28-.14-.41-.21-.27-.13-.51-.25-.74-.36-.02,0-.03,0-.04-.02-.23-.11-.46-.22-.65-.33-.1-.05-.21-.09-.31-.15-.28-.13-.52-.26-.74-.37-.44-.21-.77-.37-1-.49-.04-.02-.08-.04-.11-.06-.07-.03-.12-.06-.17-.08-.08-.04-.15-.07-.2-.09l-.13-.07s0,0,0,0h-.01v28.26"/>
  </g>
  <g class="st7">
    <path class="st12" d="M670.83,1020.32c0,7.71-.01,15.42-.01,23.12,0,8.89-6.4,16.09-14.3,16.08-7.9,0-14.3-7.21-14.29-16.1,0-7.7.01-15.41.02-23.12,9.53,0,19.05.02,28.58.02"/>
  </g>
  <g class="st5">
    <path class="st3" d="M670.83,1020.32c0,7.71-.01,15.42-.01,23.12,0,8.89-6.4,16.09-14.3,16.08-7.9,0-14.3-7.21-14.29-16.1,0-7.7.01-15.41.02-23.12,9.53,0,19.05.02,28.58.02Z"/>
  </g>
  <rect class="st12" x="678.61" y="1020.61" width="62.49" height="61.83"/>
  <polyline class="st3" points="741.11 1020.61 741.11 1082.44 733.7 1082.44"/>
  <line class="st3" x1="741.11" y1="1020.61" x2="679.1" y2="1020.61"/>
  <line class="st3" x1="678.62" y1="1021.63" x2="678.62" y2="1081.9"/>
  <polyline class="st3" points="678.62 1021.63 678.62 1020.61 679.11 1020.61"/>
  <polyline class="st3" points="679.53 1082.44 678.62 1082.44 678.62 1081.9"/>
  <line class="st3" x1="679.53" y1="1082.44" x2="733.7" y2="1082.44"/>
  <line class="st3" x1="710.11" y1="1020.61" x2="710.11" y2="1037.79"/>
  <g class="st6">
    <path class="st3" d="M713.87,1037.71c0-2.12-1.72-3.84-3.84-3.84s-3.85,1.72-3.85,3.84,1.72,3.84,3.85,3.84,3.84-1.72,3.84-3.84Z"/>
    <path class="st3" d="M713.87,1037.71c0-2.12-1.72-3.84-3.84-3.84s-3.85,1.72-3.85,3.84,1.72,3.84,3.85,3.84,3.84-1.72,3.84-3.84Z"/>
  </g>
  <g class="st11">
    <path class="st12" d="M716.65,1104.59h15.15c.57,0,1.04.34,1.04.76v33.34c0,.43-.47.76-1.04.76h-15.15c-.57,0-1.04-.34-1.04-.76v-33.34c0-.43.47-.76,1.04-.76M723.95,1119.29c-1.51,0-2.73,1.22-2.73,2.73s1.22,2.74,2.73,2.74,2.75-1.22,2.75-2.74-1.23-2.73-2.75-2.73"/>
    <path class="st12" d="M735.38,1122.03c0-1.14.92-2.05,2.06-2.05s2.05.91,2.05,2.05-.92,2.05-2.05,2.05-2.06-.91-2.06-2.05"/>
    <path class="st12" d="M722.48,1122.03c0-.81.66-1.47,1.46-1.47s1.48.66,1.48,1.47-.65,1.47-1.48,1.47-1.46-.66-1.46-1.47"/>
    <path class="st12" d="M723.95,1124.76c-1.51,0-2.73-1.22-2.73-2.73s1.22-2.73,2.73-2.73,2.75,1.22,2.75,2.73-1.23,2.73-2.75,2.73M722.48,1122.03c0,.81.66,1.47,1.46,1.47s1.48-.66,1.48-1.47-.65-1.47-1.48-1.47-1.46.66-1.46,1.47"/>
    <path class="st12" d="M735.39,1122.03c0,1.14.92,2.05,2.06,2.05s2.06-.91,2.06-2.05-.93-2.06-2.06-2.06-2.06.92-2.06,2.06M733.47,1140.24h-17.86c-.58,0-1.04-.35-1.04-.77v-34.87c0-.35.46-.62,1.04-.62h25.83v36.26h-7.98ZM731.8,1139.46c.57,0,1.04-.34,1.04-.76v-33.34c0-.43-.47-.76-1.04-.76h-15.15c-.57,0-1.04.34-1.04.76v33.34c0,.43.46.76,1.04.76h15.15Z"/>
  </g>
  <g class="st9">
    <path class="st3" d="M737.45,1124.08c-1.14,0-2.06-.91-2.06-2.05s.92-2.06,2.06-2.06,2.06.92,2.06,2.06-.92,2.05-2.06,2.05Z"/>
    <path class="st3" d="M723.95,1124.76c-1.51,0-2.73-1.22-2.73-2.73s1.22-2.74,2.73-2.74,2.75,1.22,2.75,2.74-1.23,2.73-2.75,2.73Z"/>
    <path class="st3" d="M723.95,1123.5c-.81,0-1.46-.66-1.46-1.47s.65-1.47,1.46-1.47,1.48.66,1.48,1.47-.65,1.47-1.48,1.47Z"/>
    <path class="st3" d="M731.8,1104.59h-15.15c-.57,0-1.04.34-1.04.76v33.34c0,.43.46.76,1.04.76h15.15c.57,0,1.04-.34,1.04-.76v-33.34c0-.43-.47-.76-1.04-.76Z"/>
  </g>
  <line class="st3" x1="733.47" y1="1140.24" x2="741.45" y2="1140.24"/>
  <g class="st8">
    <path class="st3" d="M741.45,1103.97h-25.83c-.58,0-1.04.27-1.04.62v34.87c0,.43.46.78,1.04.78h8.18"/>
  </g>
  <line class="st3" x1="733.47" y1="1140.24" x2="723.8" y2="1140.24"/>
  <line class="st3" x1="741.45" y1="1140.24" x2="741.45" y2="1103.97"/>
  <line class="st3" x1="450.88" y1="1060.84" x2="461.56" y2="1060.84"/>
  <rect class="st3" x="445.41" y="1037.86" width="47.29" height="117.15"/>
  <line class="st3" x1="480.36" y1="1116.44" x2="480.36" y2="1126.87"/>
  <line class="st3" x1="460.75" y1="1116.44" x2="460.75" y2="1126.87"/>
  <line class="st3" x1="465.89" y1="1121.59" x2="455.46" y2="1121.59"/>
  <line class="st3" x1="485.65" y1="1121.59" x2="475.22" y2="1121.59"/>
  <rect class="st3" x="450.87" y="1110.46" width="39.36" height="22.95"/>
  <rect class="st3" x="455.13" y="1047.5" width="26.54" height="26.54"/>
  <rect class="st3" x="448.53" y="1040.9" width="39.75" height="39.89"/>
  <polygon class="st12" points="469.54 786.09 461.44 787.44 454.02 791.16 454.02 791.49 454.36 791.49 455.03 791.49 455.37 791.49 455.71 791.49 456.04 791.49 457.73 790.48 459.42 789.81 460.77 790.14 461.78 791.16 461.78 791.83 461.44 792.17 456.04 796.89 452.33 802.97 486.76 802.97 483.05 796.89 477.65 792.17 476.97 791.83 477.31 791.16 478.32 790.14 479.67 789.81 481.36 790.48 483.05 791.49 483.38 791.49 483.72 791.49 484.06 791.49 484.73 791.49 485.07 791.16 477.65 787.44 469.54 786.09"/>
  <polygon class="st12" points="517.47 786.09 509.04 787.44 501.95 791.16 501.95 791.49 502.29 791.49 502.62 791.49 503.3 791.49 503.64 791.49 503.97 791.49 505.66 790.48 507.35 789.81 508.7 790.14 509.71 791.16 509.71 791.83 509.37 792.17 503.64 796.89 500.26 802.97 534.69 802.97 530.98 796.89 525.24 792.17 524.9 791.83 524.9 791.16 525.91 790.14 527.6 789.81 529.29 790.48 530.64 791.49 530.98 791.49 531.65 791.49 531.99 791.49 532.33 791.49 532.66 791.49 533 791.16 525.57 787.44 517.47 786.09"/>
  <polygon class="st12" points="534.69 802.97 500.26 802.97 486.76 802.97 452.33 802.97 445.58 802.97 445.58 866.76 452.33 866.76 486.76 866.76 500.26 866.76 534.69 866.76 541.1 866.76 541.1 802.97 534.69 802.97"/>
  <polygon class="st12" points="452.33 866.76 456.04 872.84 461.44 877.56 461.78 877.9 461.78 878.58 460.77 879.59 459.42 879.93 457.73 879.25 456.04 878.24 455.71 878.24 455.37 878.24 455.03 878.24 454.36 878.24 454.02 878.24 454.02 878.58 461.44 882.29 469.54 883.64 477.65 882.29 485.07 878.58 484.73 878.24 484.06 878.24 483.72 878.24 483.38 878.24 483.05 878.24 481.36 879.25 479.67 879.93 478.32 879.59 477.31 878.58 476.97 877.9 477.65 877.56 483.05 872.84 486.76 866.76 452.33 866.76"/>
  <polygon class="st12" points="500.26 866.76 503.64 872.84 509.37 877.56 509.71 877.9 509.71 878.58 508.7 879.59 507.35 879.93 505.66 879.25 503.97 878.24 503.64 878.24 503.3 878.24 502.62 878.24 502.29 878.24 501.95 878.24 501.95 878.58 509.04 882.29 517.47 883.64 525.57 882.29 533 878.58 532.66 878.24 532.33 878.24 531.99 878.24 531.65 878.24 530.98 878.24 530.64 878.24 529.29 879.25 527.6 879.93 525.91 879.59 524.9 878.58 524.9 877.9 525.24 877.56 530.98 872.84 534.69 866.76 500.26 866.76"/>
  <line class="st3" x1="456.04" y1="878.24" x2="455.71" y2="878.24"/>
  <line class="st3" x1="455.71" y1="878.24" x2="455.37" y2="878.24"/>
  <line class="st3" x1="454.36" y1="878.24" x2="455.03" y2="878.24"/>
  <line class="st3" x1="455.03" y1="878.24" x2="455.37" y2="878.24"/>
  <line class="st3" x1="454.02" y1="878.58" x2="454.02" y2="878.24"/>
  <line class="st3" x1="454.02" y1="878.24" x2="454.36" y2="878.24"/>
  <line class="st3" x1="461.78" y1="878.58" x2="460.77" y2="879.59"/>
  <line class="st3" x1="460.77" y1="879.59" x2="459.42" y2="879.93"/>
  <line class="st3" x1="459.42" y1="879.93" x2="457.73" y2="879.25"/>
  <line class="st3" x1="457.73" y1="879.25" x2="456.04" y2="878.24"/>
  <line class="st3" x1="461.44" y1="877.56" x2="461.78" y2="877.9"/>
  <line class="st3" x1="461.78" y1="877.9" x2="461.78" y2="878.58"/>
  <line class="st3" x1="461.44" y1="877.56" x2="456.04" y2="872.84"/>
  <line class="st3" x1="456.04" y1="872.84" x2="452.33" y2="866.76"/>
  <line class="st3" x1="483.04" y1="878.24" x2="483.38" y2="878.24"/>
  <line class="st3" x1="483.38" y1="878.24" x2="483.72" y2="878.24"/>
  <line class="st3" x1="484.73" y1="878.24" x2="484.06" y2="878.24"/>
  <line class="st3" x1="484.06" y1="878.24" x2="483.72" y2="878.24"/>
  <line class="st3" x1="485.07" y1="878.58" x2="484.73" y2="878.24"/>
  <line class="st3" x1="477.31" y1="878.58" x2="478.32" y2="879.59"/>
  <line class="st3" x1="478.32" y1="879.59" x2="479.67" y2="879.93"/>
  <line class="st3" x1="479.67" y1="879.93" x2="481.36" y2="879.25"/>
  <line class="st3" x1="481.36" y1="879.25" x2="483.05" y2="878.24"/>
  <line class="st3" x1="477.64" y1="877.56" x2="476.97" y2="877.9"/>
  <line class="st3" x1="476.97" y1="877.9" x2="477.31" y2="878.58"/>
  <line class="st3" x1="477.64" y1="877.56" x2="483.04" y2="872.84"/>
  <line class="st3" x1="483.04" y1="872.84" x2="486.76" y2="866.76"/>
  <line class="st3" x1="454.02" y1="878.58" x2="461.44" y2="882.29"/>
  <line class="st3" x1="461.44" y1="882.29" x2="469.54" y2="883.64"/>
  <line class="st3" x1="469.54" y1="883.64" x2="477.64" y2="882.29"/>
  <line class="st3" x1="477.64" y1="882.29" x2="485.07" y2="878.58"/>
  <line class="st3" x1="456.04" y1="791.49" x2="455.71" y2="791.49"/>
  <line class="st3" x1="455.71" y1="791.49" x2="455.37" y2="791.49"/>
  <line class="st3" x1="454.36" y1="791.49" x2="455.03" y2="791.49"/>
  <line class="st3" x1="455.03" y1="791.49" x2="455.37" y2="791.49"/>
  <line class="st3" x1="454.02" y1="791.16" x2="454.02" y2="791.49"/>
  <line class="st3" x1="454.02" y1="791.49" x2="454.36" y2="791.49"/>
  <line class="st3" x1="461.78" y1="791.16" x2="460.77" y2="790.14"/>
  <line class="st3" x1="460.77" y1="790.14" x2="459.42" y2="789.81"/>
  <line class="st3" x1="459.42" y1="789.81" x2="457.73" y2="790.48"/>
  <line class="st3" x1="457.73" y1="790.48" x2="456.04" y2="791.49"/>
  <line class="st3" x1="461.44" y1="792.17" x2="461.78" y2="791.83"/>
  <line class="st3" x1="461.78" y1="791.83" x2="461.78" y2="791.16"/>
  <line class="st3" x1="461.44" y1="792.17" x2="456.04" y2="796.89"/>
  <line class="st3" x1="456.04" y1="796.89" x2="452.33" y2="802.97"/>
  <line class="st3" x1="483.04" y1="791.49" x2="483.38" y2="791.49"/>
  <line class="st3" x1="483.38" y1="791.49" x2="483.72" y2="791.49"/>
  <line class="st3" x1="484.73" y1="791.49" x2="484.06" y2="791.49"/>
  <line class="st3" x1="484.06" y1="791.49" x2="483.72" y2="791.49"/>
  <line class="st3" x1="485.07" y1="791.16" x2="484.73" y2="791.49"/>
  <line class="st3" x1="477.31" y1="791.16" x2="478.32" y2="790.14"/>
  <line class="st3" x1="478.32" y1="790.14" x2="479.67" y2="789.81"/>
  <line class="st3" x1="479.67" y1="789.81" x2="481.36" y2="790.48"/>
  <line class="st3" x1="481.36" y1="790.48" x2="483.05" y2="791.49"/>
  <line class="st3" x1="477.64" y1="792.17" x2="476.97" y2="791.83"/>
  <line class="st3" x1="476.97" y1="791.83" x2="477.31" y2="791.16"/>
  <line class="st3" x1="477.64" y1="792.17" x2="483.04" y2="796.89"/>
  <line class="st3" x1="483.04" y1="796.89" x2="486.76" y2="802.97"/>
  <line class="st3" x1="454.02" y1="791.16" x2="461.44" y2="787.44"/>
  <line class="st3" x1="461.44" y1="787.44" x2="469.54" y2="786.09"/>
  <line class="st3" x1="469.54" y1="786.09" x2="477.64" y2="787.44"/>
  <line class="st3" x1="477.64" y1="787.44" x2="485.07" y2="791.16"/>
  <line class="st3" x1="445.58" y1="802.97" x2="445.58" y2="866.76"/>
  <line class="st3" x1="530.64" y1="878.24" x2="530.97" y2="878.24"/>
  <line class="st3" x1="530.97" y1="878.24" x2="531.65" y2="878.24"/>
  <line class="st3" x1="532.32" y1="878.24" x2="531.99" y2="878.24"/>
  <line class="st3" x1="531.99" y1="878.24" x2="531.65" y2="878.24"/>
  <line class="st3" x1="533" y1="878.58" x2="532.66" y2="878.24"/>
  <line class="st3" x1="532.66" y1="878.24" x2="532.32" y2="878.24"/>
  <line class="st3" x1="524.9" y1="878.58" x2="525.91" y2="879.59"/>
  <line class="st3" x1="525.91" y1="879.59" x2="527.6" y2="879.93"/>
  <line class="st3" x1="527.6" y1="879.93" x2="529.29" y2="879.25"/>
  <line class="st3" x1="529.29" y1="879.25" x2="530.64" y2="878.24"/>
  <line class="st3" x1="525.24" y1="877.56" x2="524.9" y2="877.9"/>
  <line class="st3" x1="524.9" y1="877.9" x2="524.9" y2="878.58"/>
  <line class="st3" x1="525.24" y1="877.56" x2="530.97" y2="872.84"/>
  <line class="st3" x1="530.97" y1="872.84" x2="534.69" y2="866.76"/>
  <line class="st3" x1="503.97" y1="878.24" x2="503.63" y2="878.24"/>
  <line class="st3" x1="503.63" y1="878.24" x2="503.3" y2="878.24"/>
  <line class="st3" x1="502.28" y1="878.24" x2="502.62" y2="878.24"/>
  <line class="st3" x1="502.62" y1="878.24" x2="503.3" y2="878.24"/>
  <line class="st3" x1="501.95" y1="878.58" x2="501.95" y2="878.24"/>
  <line class="st3" x1="501.95" y1="878.24" x2="502.28" y2="878.24"/>
  <line class="st3" x1="509.71" y1="878.58" x2="508.7" y2="879.59"/>
  <line class="st3" x1="508.7" y1="879.59" x2="507.35" y2="879.93"/>
  <line class="st3" x1="507.35" y1="879.93" x2="505.66" y2="879.25"/>
  <line class="st3" x1="505.66" y1="879.25" x2="503.97" y2="878.24"/>
  <line class="st3" x1="509.37" y1="877.56" x2="509.71" y2="877.9"/>
  <line class="st3" x1="509.71" y1="877.9" x2="509.71" y2="878.58"/>
  <line class="st3" x1="509.37" y1="877.56" x2="503.63" y2="872.84"/>
  <line class="st3" x1="503.63" y1="872.84" x2="500.26" y2="866.76"/>
  <line class="st3" x1="533" y1="878.58" x2="525.57" y2="882.29"/>
  <line class="st3" x1="525.57" y1="882.29" x2="517.47" y2="883.64"/>
  <line class="st3" x1="517.47" y1="883.64" x2="509.04" y2="882.29"/>
  <line class="st3" x1="509.03" y1="882.29" x2="501.95" y2="878.58"/>
  <line class="st3" x1="530.64" y1="791.49" x2="530.97" y2="791.49"/>
  <line class="st3" x1="530.97" y1="791.49" x2="531.65" y2="791.49"/>
  <line class="st3" x1="532.32" y1="791.49" x2="531.99" y2="791.49"/>
  <line class="st3" x1="531.99" y1="791.49" x2="531.65" y2="791.49"/>
  <line class="st3" x1="533" y1="791.16" x2="532.66" y2="791.49"/>
  <line class="st3" x1="532.66" y1="791.49" x2="532.32" y2="791.49"/>
  <line class="st3" x1="524.9" y1="791.16" x2="525.91" y2="790.14"/>
  <line class="st3" x1="525.91" y1="790.14" x2="527.6" y2="789.81"/>
  <line class="st3" x1="527.6" y1="789.81" x2="529.29" y2="790.48"/>
  <line class="st3" x1="529.29" y1="790.48" x2="530.64" y2="791.49"/>
  <line class="st3" x1="525.24" y1="792.17" x2="524.9" y2="791.83"/>
  <line class="st3" x1="524.9" y1="791.83" x2="524.9" y2="791.16"/>
  <line class="st3" x1="525.24" y1="792.17" x2="530.97" y2="796.89"/>
  <line class="st3" x1="530.97" y1="796.89" x2="534.69" y2="802.97"/>
  <line class="st3" x1="503.97" y1="791.49" x2="503.63" y2="791.49"/>
  <line class="st3" x1="503.63" y1="791.49" x2="503.3" y2="791.49"/>
  <line class="st3" x1="502.28" y1="791.49" x2="502.62" y2="791.49"/>
  <line class="st3" x1="502.62" y1="791.49" x2="503.3" y2="791.49"/>
  <line class="st3" x1="501.95" y1="791.16" x2="501.95" y2="791.49"/>
  <line class="st3" x1="501.95" y1="791.49" x2="502.28" y2="791.49"/>
  <line class="st3" x1="509.71" y1="791.16" x2="508.7" y2="790.14"/>
  <line class="st3" x1="508.7" y1="790.14" x2="507.35" y2="789.81"/>
  <line class="st3" x1="507.35" y1="789.81" x2="505.66" y2="790.48"/>
  <line class="st3" x1="505.66" y1="790.48" x2="503.97" y2="791.49"/>
  <line class="st3" x1="509.37" y1="792.17" x2="509.71" y2="791.83"/>
  <line class="st3" x1="509.71" y1="791.83" x2="509.71" y2="791.16"/>
  <line class="st3" x1="509.37" y1="792.17" x2="503.63" y2="796.89"/>
  <line class="st3" x1="503.63" y1="796.89" x2="500.26" y2="802.97"/>
  <line class="st3" x1="533" y1="791.16" x2="525.57" y2="787.44"/>
  <line class="st3" x1="525.57" y1="787.44" x2="517.47" y2="786.09"/>
  <line class="st3" x1="517.47" y1="786.09" x2="509.04" y2="787.44"/>
  <line class="st3" x1="509.03" y1="787.44" x2="501.95" y2="791.16"/>
  <line class="st3" x1="541.1" y1="802.97" x2="541.1" y2="866.76"/>
  <polyline class="st3" points="541.1 866.76 534.69 866.76 500.26 866.76 486.76 866.76 452.33 866.76 445.58 866.76"/>
  <polyline class="st3" points="445.58 802.97 452.33 802.97 486.76 802.97 500.26 802.97 534.69 802.97 541.1 802.97"/>
  <path class="st3" d="M445.41,928.53h-15.86M445.41,764.83v-29.03M429.55,764.83h15.86M693.83,719.94v15.87M693.83,735.8h55.69M445.41,735.8h51.3M496.71,735.8v-15.87M496.71,719.94v-28.69M693.83,691.25v28.69M408.62,764.83h20.93M429.55,928.53h-20.93M496.71,735.8h-51.3M445.41,760.44v4.39M445.41,764.83h-24.3M421.11,764.83v1.01M421.11,927.52v1.01M421.11,928.53h24.3M445.41,928.53v102.61M445.41,1037.22v117.79M445.41,1155.01h95.18M543.97,1155.01h63.12M610.46,1155.01h0M612.82,1155.01h1.01M613.84,1155.01h8.1M621.94,954.18h127.59M749.52,954.18v-218.38M693.83,735.8v-32.4M693.83,703.4h-1.01M612.49,703.4h-1.01M497.73,703.4h-1.01M496.71,703.4v32.4M629.7,962.28h119.82M749.52,962.28v51.64M749.52,1013.93h-119.82M629.7,962.28h3.71M635.77,962.28h2.36M640.5,962.28h2.36M645.23,962.28h2.36M649.95,962.28h2.7M655.01,962.28h2.36M659.74,962.28h2.36M664.46,962.28h2.36M669.19,962.28h2.36M673.92,962.28h2.36M678.64,962.28h2.7M683.7,962.28h2.36M688.43,962.28h2.36M693.15,962.28h2.36M697.88,962.28h2.36M702.61,962.28h2.36M707.67,962.28h2.36M712.39,962.28h2.36M717.12,962.28h2.36M721.84,962.28h2.36M726.57,962.28h2.36M731.29,962.28h2.36M736.36,962.28h2.36M741.08,962.28h2.36M745.81,962.28h3.71M749.52,962.28v3.04M749.52,967.68v2.36M749.52,972.41v2.7M749.52,977.47v2.36M749.52,982.2v2.36M749.52,986.92v2.36M749.52,991.65v2.36M749.52,996.37v2.36M749.52,1001.1v2.7M749.52,1006.16v2.36M749.52,1010.89v3.04M749.52,1013.93h-3.71M743.45,1013.93h-2.36M738.72,1013.93h-2.36M733.66,1013.93h-2.36M728.93,1013.93h-2.36M724.21,1013.93h-2.36M719.48,1013.93h-2.36M714.76,1013.93h-2.36M710.03,1013.93h-2.36M704.97,1013.93h-2.36M700.24,1013.93h-2.36M695.52,1013.93h-2.36M690.79,1013.93h-2.36M686.07,1013.93h-2.36M681.34,1013.93h-2.7M676.28,1013.93h-2.36M671.55,1013.93h-2.36M666.83,1013.93h-2.36M662.1,1013.93h-2.36M657.38,1013.93h-2.36M652.65,1013.93h-2.7M647.59,1013.93h-2.36M642.86,1013.93h-2.36M638.14,1013.93h-2.36M633.41,1013.93h-3.71M496.38,689.22h203.19M693.83,701.04h-1.01M612.49,701.04h-1.01M497.73,701.04h-1.01M445.41,1171.21h95.86M541.27,1155.01h-95.86M612.82,1171.21h154.25M543.97,1155.01h63.12M610.46,1155.01h0M612.82,1155.01h1.01M408.62,1171.21v-51.31M408.62,994.35v-231.54M416.72,764.83v1.01M416.72,927.52v1.01M472.41,685.17h237.28M472.41,673.36h237.28M472.41,661.21h237.28M472.41,649.4h237.28M472.41,637.24h237.28M472.41,625.43h237.28M472.41,613.28h237.28M472.41,601.47h237.28M472.41,589.65h237.28M472.41,577.5h237.28M472.41,565.69h237.28M472.41,553.54h237.28M472.41,541.72h237.28M472.41,529.57v158.3M493.34,689.22h206.23M709.69,687.87v-158.3"/>
  <path class="st3" d="M709.69,529.57h-237.28M690.45,618.34l-13.17,1.01M677.29,619.35l-12.82,3.37M664.46,622.73l-11.82,5.74M652.65,628.47l-10.8,7.42M641.85,635.89l-9.11,9.11M632.74,645.01l-7.77,10.8M624.97,655.81l-5.4,12.15M619.57,667.96l-3.37,12.49M616.2,680.45l-1.35,13.17M690.45,693.61v-75.27M685.39,694.29v3.71M619.91,694.29h65.48M619.91,698v-3.71M685.39,698h-65.48M616.53,705.42h72.23M685.39,693.61h-65.48M685.39,700.02h-65.48M616.53,700.02v5.4M688.76,700.02v5.4M688.76,700.02h-72.23M616.53,700.02v5.4M619.91,700.02h-3.38M619.91,693.61v6.41M612.48,693.61h7.43M612.48,705.42v-11.81M616.53,705.42h-4.05M692.81,693.61v11.81M685.39,693.61h7.42M685.39,700.02v-6.41M688.76,700.02h-3.37M688.76,705.42v-5.4M692.81,705.42h-4.05M501.77,698h105.65M607.42,698v-3.71M607.42,694.29h-105.65M501.77,694.29v3.71M607.42,705.42h-105.65M501.77,693.61h105.65M497.72,705.42h4.05M501.77,705.42v-11.81M501.77,693.61h-4.05M497.72,693.61v11.81M607.42,705.42h4.05M611.47,705.42v-11.81M611.47,693.61h-4.05M607.42,693.61v11.81M410.98,768.2l-1.35,2.7M408.28,772.93l-1.01,2.02M405.92,776.98l-1.01,2.03M403.55,781.03l-1.01,2.36M401.19,785.42l-1.01,2.03M398.83,789.47l-1.01,2.02M396.47,793.52l-1.35,2.02M394.1,797.91l-1.35,2.02M391.74,801.96l-1.35,2.02M389.38,806.01l-1.35,2.02M387.01,810.06l-1.35,2.36M384.65,814.45l-1.35,2.02M382.29,818.5l-1.35,2.02M379.59,822.55l-1.01,2.03M377.23,826.6l-1.01,2.36M374.86,830.98l-1.35,2.36M410.98,843.47h-1.69M406.93,843.14h-2.36M402.2,842.8l-2.36-.34M397.48,842.46l-2.36-.67M392.75,841.11l-2.36-.68M388.36,839.76l-2.36-.68M383.64,838.41l-2.02-1.01M379.25,836.38l-2.02-1.01M375.2,834.36l-1.69-1.01M415.7,923.47h-4.05M415.7,847.52v75.94M411.65,847.52h4.05M411.65,923.47v-75.94M411.65,773.27h4.05M411.65,838.75v-65.48M415.7,838.75h-4.05M415.7,773.27v65.48M422.79,842.12v-72.23M422.79,842.12v-72.23M422.79,923.47v-75.94M410.98,769.89v72.23M410.98,773.27v65.48M410.98,847.52v75.94M417.39,842.12h5.4M417.39,769.89h5.4M417.39,773.27v65.48M417.39,769.89v72.23M410.98,923.47h11.82M410.98,927.52v-4.05M422.79,927.52h-11.82M422.79,923.47v4.05M417.39,842.12h5.4M417.39,838.75v3.37M410.98,838.75h6.41M410.98,847.52v-8.77M422.79,847.52h-11.82M422.79,842.12v5.4M410.98,765.84h11.82M410.98,773.27v-7.43M417.39,773.27h-6.41M417.39,769.89v3.38M422.79,769.89h-5.4M422.79,765.84v4.05M410.98,843.47v-75.27M410.98,767.87v76.28M410.98,768.2v75.27M410.98,769.89v72.23M410.98,842.12v-72.23M410.98,844.15v-76.28M410.98,838.75v-65.48M410.98,773.27v65.48M767.07,1155.01v-419.21"/>
  <path class="st3" d="M445.41,983.21h1.35M449.12,983.21h2.36M453.85,983.21h2.36M458.57,983.21h2.36M463.3,983.21h2.36M468.02,983.21h2.36M473.09,983.21h2.36M477.81,983.21h2.36M482.54,983.21h2.36M487.26,983.21h2.36M491.99,983.21h1.35M493.34,983.21v-1.01M493.34,979.83v-2.36M493.34,975.11v-2.7M493.34,970.05v-2.36M493.34,965.32v-2.36M493.34,960.6v-2.36M493.34,955.87v-2.36M493.34,951.14v-2.36M493.34,946.08v-2.36M493.34,941.36v-2.36M493.34,936.63v-1.01M493.34,935.62h-1.35M489.62,935.62h-2.36M484.9,935.62h-2.36M480.17,935.62h-2.36M475.45,935.62h-2.36M470.38,935.62h-2.36M465.66,935.62h-2.36M460.93,935.62h-2.36M456.21,935.62h-2.36M451.48,935.62h-2.36M446.76,935.62h-1.35M445.41,935.62v1.01M445.41,938.99v2.36M445.41,943.72v2.36M445.41,948.78v2.36M445.41,953.51v2.36M445.41,958.23v2.36M445.41,962.96v2.36M445.41,967.68v2.36M445.41,972.41v2.7M445.41,977.47v2.36M445.41,982.2v1.01M445.41,1031.14h1.35M449.12,1031.14h2.36M453.85,1031.14h2.36M458.57,1031.14h2.36M463.3,1031.14h2.36M468.02,1031.14h2.36M473.09,1031.14h2.36M477.81,1031.14h2.36M482.54,1031.14h2.36M487.26,1031.14h2.36M491.99,1031.14h1.35M493.34,1031.14v-1.01M493.34,1027.43v-2.36M493.34,1022.7v-2.36M493.34,1017.97v-2.36M493.34,1013.25v-2.36M493.34,1008.52v-2.36M493.34,1003.8v-2.7M493.34,998.74v-2.36M493.34,994.01v-2.36M493.34,989.29v-2.37M493.34,984.56v-1.35M493.34,983.21h-1.35M489.62,983.21h-2.36M484.9,983.21h-2.36M480.17,983.21h-2.36M475.45,983.21h-2.36M470.38,983.21h-2.36M465.66,983.21h-2.36M460.93,983.21h-2.36M456.21,983.21h-2.36M451.48,983.21h-2.36M446.76,983.21h-1.35M445.41,983.21v1.35M445.41,986.92v2.37M445.41,991.65v2.36M445.41,996.37v2.36M445.41,1001.1v2.7M445.41,1006.16v2.36M445.41,1010.89v2.36M445.41,1015.61v2.36M445.41,1020.34v2.36M445.41,1025.06v2.36M445.41,1030.13v1.01M445.41,1037.21h55.69M501.1,1037.21v-6.07M501.1,1031.14h-55.69M610.46,1088.52l-13.16,1.35M597.3,1089.87l-12.49,3.71M584.81,1093.58l-11.47,6.08M573.33,1099.66l-10.13,8.44M563.21,1108.09l-8.1,10.13M555.1,1118.22l-6.07,11.47M549.03,1129.7l-4.05,12.49M544.98,1142.19l-1.01,12.83M541.27,1155.01v16.2M612.82,1171.21v-16.2M610.46,1155.01v-66.49M607.08,1155.01h3.37"/>
  <path class="st3" d="M613.84,1155.01h-1.01M610.46,1155.01h0M445.41,1086.16v47.93M445.41,1038.23v95.86M767.07,954.18v8.1M621.93,1148.26v6.75M621.93,1139.49v8.78M621.93,1013.93v55.02M627,1071.64v65.48M747.83,1013.93h-118.14"/>
  <path class="st3" d="M692.82,1137.12l-1.35-12.83M691.47,1124.3l-3.71-12.49M687.75,1111.81l-6.07-11.47M681.68,1100.33l-8.1-9.79M673.58,1090.54l-10.13-8.1M663.45,1082.44l-11.14-6.41M652.31,1076.03l-12.49-3.71M639.82,1072.32l-12.83-1.01M628.35,1068.94h-6.41M621.93,1139.49h6.41M627,1137.12h65.82M627,1133.41v3.37M627,1136.45v-65.48"/>
  <path class="st15" d="M628.35,1020.34h113.07M628.35,1068.94v-48.61M629.7,1013.93v-51.64M628.35,1147.25v-7.76M741.42,1147.25h-113.07M741.42,1020.34v126.91"/>
  <path class="st15" d="M749.52,954.18h-8.1M741.42,954.18v8.1M741.42,962.28h8.1M693.49,954.18h-63.79M629.7,962.28h63.79M693.49,962.28v-8.1M693.49,954.18h47.93M741.42,962.28h-47.93M741.42,954.18v8.1M693.49,962.28v-8.1M621.94,954.18v59.74M629.7,954.18h-7.76M405.58,994.35v3.38M408.62,994.35h-3.04M405.58,1116.53v3.37M405.58,1119.91h3.04M405.58,1116.53v-118.81M702.94,687.87h-3.37M699.57,691.25h-5.74M699.57,687.87v3.38M702.94,687.87h64.13M493.34,690.24v-.67M493.34,687.87v3.38M493.34,691.25h3.37M411.99,687.87h-3.38M408.62,687.87v3.38M411.99,687.87h81.34M405.58,691.25v3.04M408.62,691.25h-3.04M405.58,759.77v3.04M405.58,762.8h3.04M405.58,759.77v-65.48M767.07,687.87v483.34M456.55,1171.21h-47.93"/>
  <g class="st10">
    <path class="st2" d="M1125.53,579.19h-6.07M1101.9,499.87l-16.2,7.09M1090.09,524.51l-4.39-17.55M1062.41,495.82l27.68,28.69M1062.41,495.82l39.49,4.05M1062.41,495.82l23.29,11.14M1125.53,818.5h-6.07M1125.53,658.84h-6.07M1125.53,738.5h-6.07M1125.53,818.5v-239.31M-.8,1278.21h1183.71"/>
    <path d="M1104.13,1227.3c.43-.28.75-.67.96-1.17.21-.5.32-1.12.32-1.85,0-.58-.11-1.1-.32-1.57-.21-.47-.5-.82-.89-1.07-.38-.25-.78-.37-1.21-.37s-.81.11-1.15.34c-.33.23-.61.58-.82,1.05-.14.33-.32.93-.51,1.8-.19.87-.38,1.42-.57,1.62-.19.21-.42.32-.72.32-.33,0-.62-.15-.85-.45-.23-.3-.36-.77-.36-1.42s.13-1.1.39-1.42c.26-.32.64-.51,1.16-.56l-.08-1.03c-.47.02-.9.15-1.27.4-.37.25-.66.6-.85,1.06-.19.46-.29.99-.29,1.6,0,.55.09,1.05.27,1.49.18.45.45.79.81,1.02.35.23.74.35,1.14.35.37,0,.71-.1,1-.28.3-.19.55-.48.75-.87.16-.3.33-.82.5-1.57.18-.75.31-1.23.39-1.45.13-.34.29-.59.48-.73.19-.15.41-.22.66-.22s.48.08.69.23c.21.15.38.39.49.7.12.31.18.68.18,1.09,0,.46-.08.88-.24,1.25-.16.37-.37.65-.62.82-.26.17-.59.29-.99.34l.09,1.01c.54-.02,1.02-.16,1.45-.45M1105.28,1218.58h-2.79l-1.28-1.33,4.08-2.9v-1.42l-4.8,3.57-3.26-3.41v1.46l4,4.04h-4v1.08h8.06v-1.08Z"/>
    <path d="M1099.62,1209.06h.92v-5.37h-.92v5.37ZM1102.06,1209.06h.92v-5.37h-.92v5.37Z"/>
    <path d="M1104.14,1198.95c.43-.28.75-.67.96-1.17.21-.5.32-1.11.32-1.85,0-.58-.1-1.1-.31-1.57-.21-.47-.51-.82-.89-1.07-.38-.25-.78-.37-1.22-.37s-.81.11-1.14.34c-.33.23-.61.58-.82,1.05-.15.33-.32.93-.51,1.8-.2.88-.39,1.42-.57,1.63-.19.21-.42.31-.71.31-.34,0-.62-.15-.86-.45-.23-.3-.36-.77-.36-1.42s.13-1.1.39-1.42c.26-.32.64-.51,1.15-.56l-.08-1.03c-.47.02-.9.15-1.27.4-.38.25-.66.6-.85,1.07-.19.46-.29.99-.29,1.59,0,.55.09,1.05.28,1.49.18.45.45.79.8,1.02.35.23.73.35,1.14.35.37,0,.71-.1,1-.29.3-.19.55-.48.75-.87.16-.3.32-.83.5-1.57.18-.74.31-1.23.39-1.45.13-.34.29-.59.48-.73.19-.15.41-.22.66-.22s.48.07.69.23c.21.15.38.39.5.7.12.31.18.68.18,1.09,0,.46-.08.88-.24,1.25-.16.37-.37.64-.63.82-.26.17-.59.29-.99.34l.09,1.01c.54-.01,1.02-.16,1.45-.45"/>
    <path d="M1105.28,1190.73h-2.31l-.67-.71,2.98-1.95v-1.23l-3.67,2.48-2.16-2.26v1.29l2.38,2.37h-4.6v1h8.06v-1ZM1105.28,1181.6v-1.04c-.22.12-.46.21-.7.25-.25.04-.83.07-1.75.07h-1.32c-.44,0-.74.02-.91.05-.27.06-.49.16-.67.31-.18.15-.33.38-.44.69-.12.31-.18.72-.18,1.23s.07.95.21,1.33c.14.38.33.68.59.88.26.2.59.35,1,.44l.13-.98c-.42-.11-.7-.27-.87-.5-.16-.22-.25-.57-.25-1.04,0-.5.11-.88.34-1.14.16-.19.45-.28.85-.28.03,0,.12,0,.26,0,.13.38.25.97.34,1.78.05.4.09.69.15.89.07.27.18.5.32.72.14.21.33.38.57.52.24.13.5.2.78.2.49,0,.89-.17,1.2-.52.31-.35.47-.84.47-1.49,0-.39-.07-.76-.19-1.1-.13-.34-.35-.7-.66-1.07.27-.03.51-.1.72-.2M1102.71,1181.89c.44,0,.77.05.99.16.29.14.52.36.68.66.17.3.25.64.25,1.02s-.09.69-.27.89c-.18.2-.4.3-.66.3-.18,0-.33-.05-.47-.14-.14-.09-.25-.22-.33-.39-.07-.17-.14-.46-.2-.87-.1-.73-.23-1.27-.38-1.63h.36Z"/>
    <path d="M1105.28,1178.57h-2.31l-.67-.71,2.99-1.95v-1.23l-3.67,2.48-2.16-2.25v1.29l2.37,2.37h-4.6v1h8.06v-1ZM1104.43,1172.1c0,.15-.03.26-.07.34-.05.08-.11.14-.19.17-.08.03-.26.05-.55.05h-3.42v-1.01h-.77v1.01h-2.04l.59.99h1.45v.73h.77v-.73h3.36c.59,0,.98-.04,1.17-.12.18-.08.33-.22.45-.42.11-.2.17-.48.17-.84,0-.22-.03-.47-.09-.76l-.88.14c.03.18.04.33.04.44"/>
    <path d="M1118.44,1226.25h-3.66v-3.82h-.95v3.82h-2.5v-4.41h-.95v5.49h8.06v-1.08ZM1117.3,1220.55c.43-.28.74-.67.96-1.17.21-.5.32-1.11.32-1.85,0-.58-.1-1.11-.31-1.57-.21-.46-.51-.82-.89-1.07-.38-.25-.79-.37-1.22-.37s-.81.11-1.14.34c-.33.23-.61.58-.83,1.05-.14.33-.32.93-.51,1.8-.2.88-.39,1.42-.57,1.63-.19.21-.43.31-.72.31-.33,0-.62-.15-.85-.45-.23-.3-.35-.77-.35-1.42s.13-1.1.39-1.42c.26-.32.64-.51,1.15-.56l-.08-1.03c-.47.02-.9.15-1.27.4-.38.25-.66.6-.85,1.07-.19.46-.29.99-.29,1.59,0,.55.09,1.05.27,1.49.19.45.45.79.81,1.02.35.24.73.35,1.14.35.37,0,.7-.1,1-.29.3-.19.55-.48.75-.87.16-.3.32-.83.5-1.57.18-.74.31-1.23.39-1.45.13-.34.29-.59.48-.73.19-.15.41-.22.66-.22s.48.07.69.23c.21.15.38.39.5.7.12.31.18.68.18,1.09,0,.46-.08.88-.24,1.25-.16.37-.37.64-.63.82-.26.17-.59.29-.99.34l.09,1.01c.54-.01,1.02-.16,1.45-.45"/>
    <path d="M1112.78,1210.08h.92v-5.37h-.92v5.37ZM1115.22,1210.08h.92v-5.37h-.92v5.37Z"/>
    <polygon points="1118.44 1198.91 1114.78 1198.91 1114.78 1195.09 1113.83 1195.09 1113.83 1198.91 1111.33 1198.91 1111.33 1194.5 1110.38 1194.5 1110.38 1199.99 1118.44 1199.99 1118.44 1198.91"/>
    <path d="M1117.78,1192.69c.53-.51.79-1.18.79-2,0-.51-.12-.99-.36-1.42-.24-.43-.57-.76-1-.99-.43-.23-1.02-.34-1.77-.34-.92,0-1.65.26-2.18.77-.53.52-.79,1.18-.79,1.99,0,.73.22,1.35.65,1.85.52.61,1.32.91,2.4.91.98,0,1.74-.25,2.26-.76M1113.84,1191.93c-.37-.33-.55-.74-.55-1.24s.18-.9.56-1.23c.37-.33.92-.5,1.64-.5.77,0,1.34.16,1.71.49.38.33.56.74.56,1.24s-.19.91-.56,1.24c-.37.33-.93.49-1.68.49s-1.31-.16-1.68-.49M1118.44,1186.02h-3.05c-.42,0-.81-.06-1.16-.17-.23-.07-.41-.2-.54-.37-.13-.18-.2-.37-.2-.59,0-.24.07-.49.21-.73l-.92-.34c-.21.35-.32.69-.32,1.03,0,.23.07.45.2.64.13.19.41.4.82.63h-.89v.9h5.84v-1Z"/>
    <path d="M1117.47,1179.87c.19.26.29.57.29.94,0,.49-.17.9-.51,1.23-.34.33-.83.51-1.48.55v-4.39c-.11,0-.2,0-.26,0-.96,0-1.71.25-2.24.75-.53.5-.8,1.14-.8,1.93s.27,1.47.81,1.98c.54.51,1.31.77,2.29.77s1.69-.25,2.21-.76c.53-.5.79-1.19.79-2.05,0-.68-.16-1.25-.49-1.69-.33-.44-.79-.74-1.39-.9l-.13,1.03c.42.15.72.36.91.62M1113.74,1182.02c-.31-.31-.46-.7-.46-1.16,0-.51.19-.92.57-1.24.25-.21.61-.33,1.1-.38v3.29c-.51-.03-.91-.21-1.22-.52M1118.1,1176.51c.31-.4.47-.98.47-1.75,0-.46-.08-.88-.24-1.24-.16-.37-.38-.65-.67-.84-.29-.19-.6-.29-.93-.29s-.62.08-.84.24c-.23.16-.4.38-.52.66-.12.28-.27.77-.46,1.48-.13.49-.22.78-.25.88-.07.17-.16.3-.26.38-.1.08-.22.12-.35.12-.2,0-.38-.1-.53-.3-.15-.19-.23-.52-.23-.98,0-.39.08-.69.25-.9.17-.21.4-.34.7-.38l-.13-.97c-.38.06-.68.18-.9.34-.23.17-.4.42-.54.77-.13.35-.2.76-.2,1.22,0,.31.04.59.12.87.08.27.18.48.29.63.14.21.33.37.55.49.22.12.46.18.72.18.29,0,.55-.07.79-.22.23-.15.42-.36.55-.64s.29-.79.48-1.52c.14-.55.25-.89.33-1.02.13-.2.31-.29.53-.29.25,0,.47.11.65.33.19.22.28.56.28,1.02s-.1.81-.31,1.06c-.21.25-.51.41-.9.46l.16.99c.62-.11,1.09-.37,1.4-.77M1110.38,1171.13h8.06v-1h-8.06v1ZM1118.44,1164.44v-1.04c-.22.13-.46.21-.7.25-.24.04-.82.06-1.74.06h-1.32c-.44,0-.75.02-.91.05-.27.06-.5.17-.67.31-.18.15-.33.38-.44.69-.12.31-.18.72-.18,1.23s.07.95.2,1.34c.14.38.33.68.59.88.25.21.59.35,1,.44l.13-.98c-.41-.11-.7-.27-.86-.5-.17-.22-.25-.57-.25-1.04,0-.5.11-.88.33-1.14.17-.19.45-.28.85-.28.04,0,.12,0,.26,0,.13.38.24.97.34,1.78.05.4.1.69.15.89.07.26.18.5.32.72.14.21.33.38.57.52.23.13.5.2.78.2.49,0,.89-.17,1.2-.52s.47-.84.47-1.49c0-.39-.06-.76-.19-1.1-.13-.34-.35-.7-.66-1.07.28-.03.51-.1.72-.2M1115.87,1164.73c.44,0,.77.06.99.16.29.14.52.36.68.66.16.3.25.64.25,1.03s-.09.69-.26.89c-.18.2-.4.3-.66.3-.17,0-.33-.04-.47-.14-.14-.09-.25-.22-.32-.39-.08-.17-.14-.46-.2-.87-.1-.72-.22-1.27-.37-1.63h.36ZM1111.82,1166.82c.2-.19.29-.43.29-.71s-.1-.5-.29-.7c-.19-.2-.43-.3-.71-.3s-.52.1-.71.3c-.2.2-.29.43-.29.7s.1.5.29.7.42.3.69.3c.29,0,.54-.1.74-.3M1110.68,1166.52c-.11-.12-.18-.26-.18-.41s.06-.3.18-.42c.12-.11.26-.17.42-.17s.31.06.42.17c.12.12.18.25.18.42s-.06.29-.18.41c-.12.12-.26.17-.44.17-.16,0-.3-.06-.42-.17M1117.47,1158.66c.19.26.29.57.29.94,0,.49-.17.9-.51,1.23-.34.33-.83.51-1.48.55v-4.4c-.11,0-.2,0-.26,0-.96,0-1.71.25-2.24.75-.53.5-.8,1.15-.8,1.93s.27,1.48.81,1.98c.54.51,1.31.76,2.29.76s1.69-.25,2.21-.76c.53-.5.79-1.19.79-2.05,0-.68-.16-1.25-.49-1.69-.33-.44-.79-.74-1.39-.9l-.13,1.03c.42.15.72.36.91.61M1113.74,1160.8c-.31-.31-.46-.7-.46-1.16,0-.51.19-.92.57-1.24.25-.21.61-.33,1.1-.38v3.29c-.51-.03-.91-.21-1.22-.52"/>
    <path d="M1117.59,1153.87c0,.15-.02.26-.07.34-.05.08-.11.14-.19.17-.08.03-.26.05-.55.05h-3.41v-1h-.77v1h-2.04l.59,1h1.45v.73h.77v-.73h3.36c.59,0,.98-.04,1.17-.12.19-.08.33-.22.45-.42s.17-.48.17-.84c0-.22-.03-.47-.09-.75l-.88.14c.03.18.04.33.04.44M1118.1,1149.18c.32-.4.47-.98.47-1.75,0-.46-.08-.88-.24-1.25-.16-.36-.38-.64-.68-.84-.29-.2-.6-.29-.93-.29s-.62.08-.85.24c-.23.16-.4.38-.52.66-.12.28-.27.77-.46,1.48-.14.49-.22.78-.25.88-.07.18-.16.3-.27.39-.1.08-.21.12-.35.12-.2,0-.38-.1-.53-.29s-.23-.53-.23-.98c0-.39.08-.69.25-.9.17-.21.4-.34.7-.39l-.13-.98c-.38.07-.68.18-.9.35-.22.17-.4.42-.54.77-.13.35-.2.76-.2,1.22,0,.31.04.59.12.86.08.27.18.48.29.63.15.21.33.37.55.49.22.12.46.18.72.18.28,0,.55-.07.78-.22.23-.14.42-.36.55-.64.13-.28.29-.79.48-1.52.14-.54.25-.88.34-1.02.13-.2.31-.3.53-.3.25,0,.47.11.65.33.19.22.28.56.28,1.02s-.1.81-.32,1.06c-.21.25-.51.41-.9.46l.15.99c.62-.11,1.09-.37,1.4-.77"/>
    <path d="M1118.44,1142.46h-2.31l-.67-.7,2.98-1.95v-1.23l-3.67,2.48-2.16-2.25v1.29l2.38,2.36h-4.6v1h8.06v-1ZM1118.44,1133.68v-1.04c-.22.13-.46.21-.7.25-.25.04-.83.06-1.75.06h-1.32c-.44,0-.74.02-.91.05-.27.06-.5.16-.67.31-.18.15-.33.38-.45.69-.12.31-.18.72-.18,1.23s.07.95.21,1.33c.14.39.33.68.59.88.25.21.59.35,1,.44l.13-.98c-.41-.11-.7-.27-.86-.5-.16-.22-.25-.57-.25-1.04,0-.5.11-.88.33-1.14.17-.19.45-.28.85-.28.04,0,.13,0,.26,0,.14.38.25.97.35,1.78.05.4.09.69.15.89.07.27.18.51.32.72.14.21.33.39.57.52.23.13.49.2.78.2.49,0,.89-.17,1.2-.52.31-.35.47-.85.47-1.49,0-.39-.07-.76-.2-1.1-.13-.34-.35-.7-.66-1.07.27-.03.51-.09.72-.2M1115.87,1133.96c.44,0,.77.05.99.16.29.14.52.36.68.66.17.3.25.64.25,1.03s-.09.69-.27.89c-.18.2-.4.3-.66.3-.17,0-.33-.05-.47-.14-.14-.09-.25-.22-.32-.39-.07-.17-.14-.46-.2-.87-.1-.72-.23-1.27-.38-1.63h.36Z"/>
    <path d="M1117.71,1130.73c.58-.4.86-.94.86-1.64s-.27-1.3-.82-1.8c-.55-.5-1.32-.75-2.32-.75-.42,0-.82.06-1.19.18-.37.12-.68.28-.95.49-.26.21-.47.48-.61.8-.14.32-.22.67-.22,1.03,0,.65.26,1.19.79,1.62h-2.88v1h8.06v-.93h-.73ZM1113.85,1130.26c-.38-.32-.56-.69-.56-1.13s.18-.8.54-1.11c.36-.31.93-.46,1.69-.46s1.3.16,1.68.48c.38.32.56.69.56,1.13,0,.54-.25.96-.76,1.27-.31.19-.82.29-1.52.29s-1.25-.16-1.63-.48"/>
    <path d="M1117.4,819.92c.56-.45.83-1.06.83-1.85,0-.6-.16-1.09-.48-1.48-.31-.39-.76-.68-1.35-.88-.58-.2-1.34-.29-2.29-.29-.8,0-1.44.06-1.91.18-.47.12-.87.29-1.2.5-.33.21-.58.49-.76.81-.18.33-.26.71-.26,1.15,0,.59.16,1.08.47,1.47.31.39.76.68,1.34.88.58.2,1.35.3,2.3.3,1.51,0,2.6-.27,3.27-.8M1111.41,819.18c-.39-.28-.58-.64-.58-1.1s.22-.86.65-1.17c.44-.31,1.32-.47,2.65-.47s2.2.16,2.64.47c.44.31.66.7.66,1.16s-.22.84-.65,1.16c-.44.31-1.32.47-2.64.47s-2.23-.17-2.72-.51M1117.15,666.23c-.18-.11-.36-.25-.53-.42-.18-.17-.52-.55-1.02-1.15-.6-.72-1.07-1.23-1.42-1.54-.35-.31-.67-.53-.98-.66-.31-.13-.63-.2-.95-.2-.64,0-1.17.23-1.6.68-.43.46-.64,1.07-.64,1.86s.2,1.39.6,1.85c.4.46.97.73,1.73.8l.1-1.03c-.5,0-.9-.15-1.19-.44-.29-.29-.43-.68-.43-1.16,0-.46.14-.83.4-1.11.27-.28.6-.43.99-.43s.77.16,1.19.47c.42.31.99.91,1.71,1.79.46.57.87,1.01,1.22,1.31.35.3.71.52,1.07.66.22.08.45.12.69.11v-5.38h-.95v3.99Z"/>
    <path d="M1118.1,660.14h-3.03c-.53,0-.94-.05-1.22-.16-.29-.11-.5-.28-.64-.52-.15-.24-.22-.5-.22-.78,0-.37.11-.64.33-.8.22-.16.55-.24.99-.24h3.79v-1h-3.39c-.6,0-1.04-.14-1.31-.41-.27-.28-.41-.62-.41-1.04,0-.23.05-.43.16-.6.11-.17.25-.29.42-.35.18-.07.46-.1.85-.1h3.68v-1h-4.01c-.66,0-1.16.16-1.48.47-.32.31-.48.76-.48,1.35,0,.75.34,1.35,1.02,1.82-.32.11-.57.31-.75.59-.18.28-.27.64-.27,1.07,0,.39.08.74.26,1.05.17.31.41.55.69.74h-.82v.9h5.84v-1Z"/>
    <path d="M1110.01,741.02v.64c.35.17.71.47,1.08.89.37.42.68.9.94,1.46h.96c-.11-.31-.29-.66-.51-1.05-.23-.39-.46-.7-.68-.95h6.3v-1h-8.09ZM1118.1,737.09h-3.03c-.53,0-.94-.05-1.22-.16-.29-.11-.5-.28-.64-.52-.15-.24-.22-.5-.22-.78,0-.37.11-.63.33-.8.22-.16.55-.24.99-.24h3.79v-1h-3.39c-.6,0-1.04-.14-1.31-.41-.27-.27-.41-.62-.41-1.03,0-.23.05-.43.16-.6.11-.17.25-.29.42-.35.18-.07.46-.1.85-.1h3.68v-.99h-4.01c-.66,0-1.16.16-1.48.47-.32.31-.48.76-.48,1.35,0,.75.34,1.35,1.02,1.82-.32.11-.57.31-.75.59-.18.28-.27.64-.27,1.07,0,.39.08.74.26,1.05.17.31.41.55.69.74h-.82v.89h5.84v-1Z"/>
    <path d="M1118.1,915.85h-6.86l6.86-2.35v-.97l-6.74-2.36h6.74v-1.04h-8.06v1.45l5.61,1.94c.57.2,1,.34,1.29.44-.27.08-.66.21-1.19.39l-5.71,1.92v1.62h8.06v-1.04ZM1118.1,903.82v-1.04c-.23.13-.46.21-.7.25-.24.04-.83.06-1.74.06h-1.32c-.44,0-.74.02-.91.05-.27.06-.49.16-.67.31-.18.15-.33.38-.44.69-.12.31-.18.72-.18,1.23s.07.95.2,1.34c.14.39.34.68.59.88.25.21.59.35,1,.44l.13-.98c-.42-.11-.7-.27-.87-.49-.16-.22-.25-.57-.25-1.04,0-.5.11-.88.34-1.14.16-.19.45-.28.85-.28.03,0,.12,0,.26,0,.13.38.24.97.34,1.78.05.4.1.69.15.89.08.26.18.5.33.72.14.21.33.38.57.51.24.13.5.2.78.2.49,0,.89-.18,1.2-.52.32-.35.47-.85.47-1.49,0-.39-.07-.76-.19-1.1-.13-.34-.35-.7-.66-1.07.27-.03.51-.1.72-.2M1115.54,904.1c.44,0,.77.06.99.16.29.14.52.36.69.66.16.3.25.64.25,1.03s-.09.68-.26.88c-.18.2-.39.3-.66.3-.17,0-.33-.05-.47-.14-.14-.09-.25-.22-.32-.39-.07-.17-.14-.46-.2-.87-.1-.72-.23-1.27-.37-1.63h.36ZM1111.48,906.2c.2-.2.29-.43.29-.71s-.09-.5-.29-.7c-.19-.2-.43-.29-.71-.29s-.52.1-.71.29c-.2.2-.29.43-.29.7s.1.5.29.7c.2.2.42.3.69.3.29,0,.54-.1.73-.29M1110.34,905.89c-.12-.12-.17-.26-.17-.41s.06-.3.17-.42c.12-.11.26-.17.42-.17s.31.06.43.18c.11.12.17.25.17.42s-.06.29-.17.41c-.12.12-.26.18-.44.18-.16,0-.3-.06-.42-.18"/>
    <rect x="1110.05" y="900.48" width="8.06" height="1"/>
    <path d="M1110.01,892.23v.64c.35.18.71.47,1.07.89.37.42.69.91.95,1.46h.96c-.11-.31-.28-.66-.51-1.05-.23-.39-.46-.71-.68-.95h6.3v-1h-8.09ZM1112.27,889.03h1.13v-1.14h-1.13v1.14ZM1116.97,889.03h1.13v-1.14h-1.13v1.14Z"/>
    <path d="M1117.62,885.74c.41-.47.61-1.07.61-1.81,0-.9-.32-1.61-.98-2.14-.53-.43-1.16-.64-1.89-.64s-1.39.24-1.88.73c-.49.49-.73,1.09-.73,1.8,0,.54.17,1.05.5,1.54l-2.16-.44v-3.25h-.94v4.05l4.14.79.12-.94c-.23-.15-.42-.35-.57-.61-.14-.26-.21-.55-.21-.87,0-.52.16-.94.49-1.26.33-.32.77-.48,1.33-.48.59,0,1.07.17,1.43.5.36.33.54.74.54,1.22,0,.4-.13.74-.38,1.03-.25.28-.63.46-1.14.54l.09,1.05c.68-.07,1.22-.34,1.63-.8M1117.4,879.33c.56-.45.83-1.06.83-1.85,0-.6-.16-1.09-.47-1.48-.32-.39-.77-.68-1.35-.88-.58-.2-1.34-.3-2.29-.3-.8,0-1.43.06-1.9.18-.47.12-.87.29-1.2.51-.33.21-.58.49-.76.82-.18.33-.26.71-.26,1.15,0,.59.16,1.08.47,1.47.31.39.76.68,1.34.88.58.2,1.35.3,2.3.3,1.51,0,2.6-.27,3.27-.81M1111.41,878.59c-.38-.27-.58-.64-.58-1.1s.22-.86.66-1.17,1.32-.47,2.64-.47,2.2.15,2.64.47c.44.31.66.7.66,1.16s-.22.84-.66,1.16c-.44.31-1.32.47-2.64.47s-2.23-.17-2.72-.51"/>
    <polygon class="st12" points="1118.1 528.9 1095.49 517.76 1102.24 503.25 1125.19 514.39 1118.1 528.9"/>
    <polygon points="1115.35 523.15 1104 517.66 1119.04 515.54 1119.99 513.57 1105.55 506.58 1104.66 508.42 1116 513.91 1100.97 516.03 1100.02 518 1114.46 524.99 1115.35 523.15"/>
    <path d="M1117.61,587.02c.42-.47.63-1.07.63-1.78,0-.79-.25-1.45-.74-1.97-.49-.52-1.08-.77-1.79-.77-.52,0-.95.13-1.3.4-.35.27-.58.64-.68,1.12-.17-.37-.4-.65-.68-.84-.29-.19-.61-.28-.95-.28-.36,0-.71.1-1.04.3-.32.2-.58.49-.77.86-.19.37-.28.78-.28,1.22,0,.64.18,1.18.55,1.62.36.43.88.71,1.54.83l.18-1c-.48-.07-.85-.24-1.09-.5s-.36-.58-.36-.97.12-.71.36-.96c.24-.25.54-.37.9-.37.46,0,.79.17,1.02.51.22.34.33.72.33,1.15,0,.04,0,.09,0,.16l.87.11c-.07-.28-.11-.52-.11-.7,0-.47.15-.85.44-1.15s.67-.45,1.13-.45.87.16,1.2.48c.32.33.48.72.48,1.19,0,.4-.12.73-.37,1.01-.25.27-.65.47-1.21.58l.13,1c.67-.07,1.22-.34,1.64-.8M1118.1,580.48h-3.03c-.53,0-.94-.05-1.22-.16-.29-.1-.5-.28-.64-.52-.15-.24-.22-.5-.22-.78,0-.37.11-.63.33-.8.22-.16.55-.24.99-.24h3.79v-1h-3.39c-.6,0-1.04-.14-1.31-.41-.27-.27-.41-.62-.41-1.03,0-.23.05-.43.16-.6.11-.17.25-.29.42-.35.18-.07.46-.1.85-.1h3.68v-.99h-4.01c-.66,0-1.16.16-1.48.47-.32.31-.48.76-.48,1.35,0,.75.34,1.35,1.02,1.82-.32.11-.57.31-.75.59-.18.28-.27.64-.27,1.07,0,.39.08.74.26,1.05.17.31.41.55.69.74h-.82v.89h5.84v-1Z"/>
    <rect class="st12" x="35.65" y="1144.89" width="18.9" height="108.01"/>
    <path d="M49.47,1251.48c.63-.42,1.11-1,1.43-1.74.32-.74.48-1.65.48-2.74,0-.86-.16-1.64-.47-2.33-.31-.69-.76-1.22-1.32-1.58-.57-.37-1.17-.55-1.81-.55s-1.21.17-1.71.5-.9.85-1.23,1.56c-.22.48-.48,1.37-.77,2.67-.29,1.3-.58,2.1-.86,2.41-.28.31-.63.47-1.07.47-.5,0-.92-.22-1.28-.67-.35-.44-.53-1.14-.53-2.11s.19-1.63.58-2.1c.39-.47.96-.75,1.72-.83l-.12-1.53c-.7.03-1.34.22-1.89.59s-.98.89-1.27,1.57c-.29.68-.43,1.47-.43,2.37,0,.81.14,1.55.41,2.21.27.66.67,1.17,1.2,1.51.53.35,1.1.52,1.71.52.55,0,1.05-.14,1.49-.42.45-.29.82-.72,1.12-1.29.23-.44.49-1.22.75-2.33.27-1.11.46-1.82.59-2.15.19-.51.43-.87.71-1.09.28-.22.61-.33.99-.33s.71.11,1.03.34c.31.23.56.57.74,1.04.18.46.27,1,.27,1.61,0,.69-.12,1.3-.36,1.85-.24.55-.55.96-.93,1.22-.39.26-.88.43-1.48.5l.13,1.51c.8-.02,1.52-.24,2.16-.66M49.91,1237.73c0,.22-.03.39-.11.51-.07.12-.16.2-.29.25-.12.05-.39.08-.81.08h-5.1v-1.49h-1.15v1.49h-3.05l.89,1.47h2.16v1.08h1.15v-1.08h5.01c.89,0,1.46-.06,1.74-.18.28-.12.5-.33.67-.62.17-.29.26-.71.26-1.25,0-.33-.04-.7-.13-1.12l-1.31.21c.04.27.06.49.06.65"/>
    <path d="M51.17,1228.53h-8.71v1.48h4.66c.75,0,1.31.08,1.7.25.39.16.7.43.93.82.23.39.34.81.34,1.25s-.11.82-.33,1.12c-.22.3-.53.5-.92.59-.27.06-.79.09-1.56.09h-4.83v1.48h5.4c.63,0,1.09-.03,1.38-.09.43-.08.79-.24,1.09-.45.3-.22.54-.55.74-1,.2-.45.29-.93.29-1.44,0-1.17-.49-2.09-1.48-2.77h1.28v-1.32ZM49.73,1221.09c.29.38.42.85.42,1.39,0,.73-.25,1.34-.76,1.83-.51.49-1.24.76-2.2.82v-6.52c-.18,0-.31,0-.4,0-1.44,0-2.55.37-3.35,1.11-.79.74-1.19,1.69-1.19,2.86s.4,2.19,1.22,2.95c.81.76,1.95,1.14,3.41,1.14s2.52-.38,3.3-1.12c.79-.75,1.18-1.76,1.18-3.04,0-1.01-.25-1.85-.74-2.5-.49-.65-1.18-1.1-2.08-1.34l-.19,1.53c.62.23,1.08.53,1.36.91M44.16,1224.27c-.46-.46-.68-1.04-.68-1.71,0-.75.29-1.36.85-1.84.36-.31.92-.49,1.65-.56v4.88c-.76-.05-1.37-.31-1.82-.77M42.46,1216.33h1.68v-1.69h-1.68v1.69ZM49.49,1216.33h1.68v-1.69h-1.68v1.69ZM39.89,1201.09c-.53.61-.79,1.39-.79,2.33,0,1.27.46,2.28,1.38,3.04,1.05.86,2.74,1.29,5.07,1.29,2.08,0,3.57-.39,4.48-1.17.91-.78,1.36-1.79,1.36-3.02,0-.72-.17-1.37-.51-1.94-.35-.57-.84-1.02-1.49-1.35-.65-.33-1.35-.49-2.1-.49-1.15,0-2.08.35-2.81,1.04-.72.69-1.08,1.53-1.08,2.52,0,.56.13,1.11.39,1.62.26.51.66.95,1.2,1.31-1.2-.01-2.13-.15-2.78-.42-.65-.27-1.15-.64-1.48-1.1-.26-.35-.39-.77-.39-1.24,0-.59.21-1.08.63-1.48.26-.24.68-.43,1.26-.56l-.11-1.47c-.94.12-1.67.49-2.2,1.09M45.4,1205.35c-.48-.47-.72-1.04-.72-1.7s.24-1.23.72-1.68c.48-.45,1.13-.67,1.96-.67s1.55.23,2.05.68.76.99.76,1.61c0,.43-.12.83-.37,1.22-.24.39-.6.69-1.06.91-.47.22-.95.32-1.46.32-.77,0-1.4-.23-1.88-.7M49.49,1197.43h1.68v-1.68h-1.68v1.68ZM51.17,1188.39c0-.76-.07-1.42-.2-1.94-.14-.53-.33-.97-.59-1.32-.26-.35-.64-.65-1.12-.89-.49-.24-1.01-.36-1.57-.36-.7,0-1.31.2-1.82.59-.51.39-.88.95-1.09,1.68-.28-.56-.64-.99-1.1-1.27-.46-.28-.94-.42-1.45-.42-.55,0-1.08.16-1.59.47-.5.31-.88.75-1.13,1.31-.24.56-.36,1.29-.36,2.22v4.52h12.02v-4.6ZM40.57,1191.4v-2.41c0-.87.06-1.48.17-1.84.11-.36.32-.63.62-.82.31-.19.66-.29,1.05-.29.42,0,.77.1,1.05.31.28.21.48.51.6.92.09.31.14.81.14,1.52v2.61h-3.64ZM45.62,1191.4v-2.79c0-.77.07-1.35.2-1.77.13-.41.37-.73.7-.96.33-.23.72-.35,1.17-.35.38,0,.72.08,1.01.24.29.16.51.36.67.61.16.24.27.55.33.92.04.21.06.57.06,1.08v3h-4.13ZM49.49,1181.41h1.68v-1.69h-1.68v1.69ZM50.13,1176.31c.83-.66,1.24-1.58,1.24-2.74,0-.88-.23-1.61-.71-2.19-.48-.58-1.15-1.01-2.01-1.31-.86-.29-2.01-.43-3.41-.43-1.19,0-2.14.09-2.84.27-.7.18-1.3.43-1.79.75-.49.32-.86.72-1.12,1.21s-.39,1.05-.39,1.7c0,.88.23,1.6.7,2.19s1.14,1.01,2.01,1.31c.87.29,2.01.44,3.43.44,2.26,0,3.89-.4,4.89-1.19M41.18,1175.22c-.57-.4-.86-.95-.86-1.63s.33-1.27.98-1.73c.65-.46,1.97-.69,3.95-.69s3.28.23,3.94.69c.66.46.98,1.03.98,1.71s-.33,1.25-.98,1.72c-.65.46-1.97.69-3.94.69s-3.33-.25-4.06-.76M49.49,1167.25h1.68v-1.69h-1.68v1.69ZM39.1,1157.77v.96c.52.26,1.05.69,1.61,1.32.55.62,1.02,1.34,1.41,2.17h1.43c-.17-.46-.42-.98-.76-1.56-.34-.58-.68-1.04-1.02-1.4h9.41v-1.48h-12.08Z"/>
    <path d="M50.46,1152.45c.61-.69.92-1.59.92-2.69,0-1.34-.49-2.39-1.46-3.17-.79-.63-1.73-.95-2.82-.95s-2.08.36-2.81,1.09c-.73.73-1.09,1.61-1.09,2.67,0,.79.25,1.55.76,2.28l-3.23-.65v-4.81h-1.41v6l6.18,1.17.18-1.39c-.34-.22-.62-.52-.84-.9-.21-.38-.32-.81-.32-1.29,0-.77.24-1.39.73-1.86.49-.48,1.15-.71,1.99-.71.89,0,1.6.25,2.13.74.53.49.81,1.1.81,1.81,0,.59-.19,1.1-.57,1.52-.38.42-.95.69-1.7.8l.13,1.55c1.01-.1,1.82-.49,2.43-1.19"/>
    <line class="st3" x1="629.7" y1="1013.93" x2="749.52" y2="962.28"/>
    <line class="st3" x1="629.7" y1="962.28" x2="749.52" y2="1013.93"/>
    <path class="st12" d="M646.07,912.84c9.6,0,17.38,7.78,17.38,17.38s-7.78,17.38-17.38,17.38-17.38-7.78-17.38-17.38,7.78-17.38,17.38-17.38"/>
    <circle class="st1" cx="646.07" cy="930.22" r="17.38"/>
  </g>
</svg>