<?xml version="1.0" encoding="UTF-8"?>
<svg id="Layer_1" xmlns="http://www.w3.org/2000/svg" xmlns:xlink="http://www.w3.org/1999/xlink" version="1.1" viewBox="0 0 1200 1697.14">
  <!-- Generator: Adobe Illustrator 29.6.0, SVG Export Plug-In . SVG Version: 2.1.1 Build 207)  -->
  <defs>
    <style>
      .st0, .st1, .st2 {
        fill: none;
      }

      .st1 {
        stroke: #0d0e1c;
      }

      .st1, .st2 {
        stroke-linecap: round;
        stroke-linejoin: round;
        stroke-width: .09px;
      }

      .st3 {
        clip-path: url(#clippath-1);
      }

      .st4 {
        clip-path: url(#clippath-3);
      }

      .st5 {
        clip-path: url(#clippath-4);
      }

      .st6 {
        clip-path: url(#clippath-2);
      }

      .st7 {
        clip-path: url(#clippath-7);
      }

      .st8 {
        clip-path: url(#clippath-6);
      }

      .st9 {
        clip-path: url(#clippath-8);
      }

      .st10 {
        clip-path: url(#clippath-5);
      }

      .st11 {
        fill: #fff;
      }

      .st12 {
        fill: #ece9e5;
      }

      .st13 {
        fill: #302c35;
      }

      .st2 {
        stroke: #000;
      }

      .st14 {
        clip-path: url(#clippath);
      }
    </style>
    <clipPath id="clippath">
      <rect class="st0" x="522.25" y="1002.96" width="30.52" height="41.86"/>
    </clipPath>
    <clipPath id="clippath-1">
      <rect class="st0" x="221.74" y="441.48" width="756.52" height="814.19"/>
    </clipPath>
    <clipPath id="clippath-2">
      <rect class="st0" x="221.74" y="441.48" width="756.52" height="814.19"/>
    </clipPath>
    <clipPath id="clippath-3">
      <rect class="st0" x="446.79" y="1091.69" width="28.69" height="38.71"/>
    </clipPath>
    <clipPath id="clippath-4">
      <rect class="st0" x="221.74" y="441.48" width="756.52" height="814.19"/>
    </clipPath>
    <clipPath id="clippath-5">
      <rect class="st0" x="221.74" y="441.48" width="756.52" height="814.19"/>
    </clipPath>
    <clipPath id="clippath-6">
      <rect class="st0" x="439.33" y="760.58" width="77.47" height="170.41"/>
    </clipPath>
    <clipPath id="clippath-7">
      <rect class="st0" x="221.74" y="441.48" width="756.52" height="814.19"/>
    </clipPath>
    <clipPath id="clippath-8">
      <rect class="st0" x="221.74" y="441.48" width="756.52" height="814.19"/>
    </clipPath>
  </defs>
  <rect class="st12" x="419.88" y="648.09" width="362.08" height="515.91"/>
  <rect class="st12" x="463.29" y="479.12" width="253.27" height="178.52"/>
  <rect class="st11" x="489.23" y="654.22" width="210.4" height="12.61"/>
  <rect class="st11" x="712.57" y="1020.98" width="50.65" height="125.39"/>
  <rect class="st11" x="711.88" y="912.53" width="53.67" height="101.96"/>
  <rect class="st13" x="419.88" y="671.8" width="69.35" height="27.45"/>
  <rect class="st13" x="419.88" y="651.69" width="69.35" height="30.62"/>
  <rect class="st13" x="699.63" y="671.8" width="82.14" height="27.45"/>
  <rect class="st13" x="699.63" y="651.69" width="82.14" height="30.62"/>
  <rect class="st13" x="705.76" y="648.09" width="76.2" height="30.62"/>
  <rect class="st13" x="419.79" y="648.09" width="62.96" height="30.62"/>
  <rect class="st13" x="419.88" y="1146.71" width="164.47" height="17.29"/>
  <rect class="st13" x="660.41" y="1146.71" width="121.36" height="17.29"/>
  <rect class="st13" x="763.04" y="699.25" width="18.92" height="447.46"/>
  <rect class="st13" x="419.88" y="699.25" width="18.73" height="447.46"/>
  <rect class="st13" x="703.78" y="1014.49" width="59.45" height="6.48"/>
  <rect class="st13" x="433.08" y="1139.51" width="141.72" height="11.61"/>
  <rect class="st13" x="569.21" y="1130.14" width="5.4" height="9.37"/>
  <rect class="st13" x="568.64" y="994.32" width="6.16" height="60.52"/>
  <rect class="st13" x="440.42" y="996.12" width="128.98" height="5.76"/>
  <rect class="st13" x="434.94" y="996.12" width="10.88" height="143.39"/>
  <rect class="st13" x="445.82" y="1001.88" width="123.57" height="1.08"/>
  <rect class="st13" x="567.9" y="1002.96" width="1.48" height="51.88"/>
  <rect class="st13" x="445.82" y="1138.43" width="123.57" height="1.08"/>
  <rect class="st13" x="445.82" y="1001.88" width="1.44" height="136.54"/>
  <rect class="st13" x="442.4" y="932.35" width="124.11" height="8.65"/>
  <rect class="st13" x="432.04" y="932.35" width="15.04" height="8.65"/>
  <rect class="st13" x="566.33" y="932.35" width="8.47" height="63.77"/>
  <rect class="st13" x="419.88" y="649.89" width="59.8" height=".72"/>
  <rect class="st13" x="479.69" y="648.09" width="3.24" height="3.6"/>
  <rect class="st13" x="709.54" y="649.89" width="72.42" height=".72"/>
  <rect class="st13" x="705.94" y="648.09" width="3.6" height="3.6"/>
  <g class="st14">
    <path class="st11" d="M552.77,1002.98c0,8.22,0,16.45,0,24.67,0,9.5-6.84,17.17-15.27,17.17-8.43-.01-15.26-7.7-15.25-17.2,0-8.22,0-16.44.02-24.67,10.17,0,20.34,0,30.5.02"/>
  </g>
  <g class="st3">
    <path class="st2" d="M552.77,1002.98c0,8.22,0,16.45,0,24.67,0,9.5-6.84,17.17-15.27,17.17-8.43-.01-15.26-7.7-15.25-17.2,0-8.22,0-16.44.02-24.67,10.17,0,20.34,0,30.5.02Z"/>
  </g>
  <rect class="st11" x="447.23" y="1002.96" width="66.71" height="66"/>
  <polyline class="st2" points="513.94 1002.96 513.94 1068.96 506.04 1068.96"/>
  <line class="st2" x1="513.94" y1="1002.96" x2="447.76" y2="1002.96"/>
  <line class="st2" x1="447.23" y1="1004.05" x2="447.23" y2="1068.38"/>
  <polyline class="st2" points="447.23 1004.05 447.23 1002.96 447.76 1002.96"/>
  <polyline class="st2" points="448.21 1068.96 447.23 1068.96 447.23 1068.38"/>
  <line class="st2" x1="448.21" y1="1068.96" x2="506.03" y2="1068.96"/>
  <line class="st2" x1="480.85" y1="1002.96" x2="480.85" y2="1021.29"/>
  <g class="st6">
    <path class="st2" d="M484.86,1021.21c0-2.27-1.84-4.1-4.1-4.1s-4.1,1.84-4.1,4.1,1.84,4.1,4.1,4.1,4.1-1.83,4.1-4.1Z"/>
    <path class="st2" d="M484.86,1021.21c0-2.27-1.84-4.1-4.1-4.1s-4.1,1.84-4.1,4.1,1.84,4.1,4.1,4.1,4.1-1.83,4.1-4.1Z"/>
  </g>
  <g class="st4">
    <path class="st11" d="M473.25,1129.74h-16.16c-.62,0-1.11-.37-1.11-.83v-35.59c0-.45.49-.82,1.11-.82h16.16c.62,0,1.12.37,1.12.82v35.59c0,.46-.5.83-1.12.83M465.46,1114.05c1.61,0,2.92-1.32,2.92-2.93s-1.31-2.92-2.92-2.92-2.92,1.31-2.92,2.92,1.31,2.93,2.92,2.93"/>
    <path class="st11" d="M453.26,1111.12c0,1.21-.99,2.2-2.19,2.2s-2.2-.99-2.2-2.2.99-2.19,2.2-2.19,2.19.99,2.19,2.19"/>
    <path class="st11" d="M465.46,1112.7c-.87,0-1.57-.71-1.57-1.58s.71-1.56,1.57-1.56,1.58.7,1.58,1.56-.71,1.58-1.58,1.58"/>
    <path class="st11" d="M465.46,1108.2c1.61,0,2.92,1.31,2.92,2.92s-1.31,2.93-2.92,2.93-2.92-1.32-2.92-2.93,1.31-2.92,2.92-2.92M465.46,1109.56c-.87,0-1.57.7-1.57,1.57s.71,1.57,1.57,1.57,1.58-.71,1.58-1.57-.71-1.57-1.58-1.57"/>
    <path class="st11" d="M448.87,1111.12c0,1.22.99,2.2,2.2,2.2s2.19-.98,2.19-2.2-.98-2.19-2.19-2.19-2.2.99-2.2,2.19M475.48,1092.51v37.23c0,.36-.5.66-1.12.66h-27.58v-38.71h27.58c.62,0,1.12.36,1.12.82M474.37,1128.92v-35.59c0-.45-.5-.82-1.12-.82h-16.16c-.62,0-1.1.37-1.1.82v35.59c0,.46.49.83,1.1.83h16.16c.62,0,1.12-.37,1.12-.83"/>
  </g>
  <g class="st5">
    <path class="st2" d="M451.07,1108.93c1.2,0,2.19.99,2.19,2.19s-.99,2.2-2.19,2.2-2.2-.99-2.2-2.2.99-2.19,2.2-2.19Z"/>
    <path class="st2" d="M465.46,1108.2c1.61,0,2.92,1.31,2.92,2.92s-1.31,2.93-2.92,2.93-2.92-1.32-2.92-2.93,1.31-2.92,2.92-2.92Z"/>
    <path class="st2" d="M465.46,1109.56c.87,0,1.58.7,1.58,1.57s-.71,1.57-1.58,1.57-1.57-.71-1.57-1.57.71-1.57,1.57-1.57Z"/>
    <path class="st2" d="M457.1,1129.74h16.16c.62,0,1.12-.37,1.12-.83v-35.59c0-.45-.5-.82-1.12-.82h-16.16c-.62,0-1.1.37-1.1.82v35.59c0,.46.49.83,1.1.83Z"/>
  </g>
  <line class="st2" x1="455.31" y1="1091.69" x2="446.78" y2="1091.69"/>
  <g class="st10">
    <path class="st2" d="M446.78,1130.4h27.58c.61,0,1.11-.3,1.11-.66v-37.23c0-.46-.5-.82-1.11-.82h-8.74"/>
  </g>
  <line class="st2" x1="455.31" y1="1091.69" x2="465.62" y2="1091.69"/>
  <line class="st2" x1="446.78" y1="1091.69" x2="446.78" y2="1130.4"/>
  <g class="st8">
    <path class="st11" d="M439.33,930.99v-169.97h0v109.41l16.99,8.41v30.16c0,1.94,1.57,3.51,3.51,3.51h35.49c1.93,0,3.5-1.57,3.5-3.51v-9.13l17,8.4v22.71h-76.49Z"/>
    <polygon class="st11" points="439.34 761.02 439.34 760.58 516.8 760.58 516.8 908.77 515.82 908.28 515.82 761.02 439.34 761.02"/>
    <path class="st11" d="M439.34,870.43v-109.41h76.48v147.26l-17-8.4c-7.31-3.62-13.35-6.6-18.36-9.08l-2.63-1.3c-.85-.42-1.66-.82-2.44-1.21l-2.24-1.11c-1.43-.71-2.74-1.36-3.95-1.95l-1.71-.85-1.56-.77c-.25-.12-.49-.24-.72-.36l-1.34-.66c-.62-.31-1.2-.59-1.74-.86l-.99-.49-1.27-.63-.71-.35c-.11-.05-.22-.11-.32-.16l-.8-.4c-.4-.19-.7-.34-.93-.46l-.25-.12-.39-.19c-.06-.03-.1-.05-.12-.06l-.04-.02-16.99-8.41Z"/>
    <path class="st11" d="M456.33,909.01v-30.16l.04.02s.06.03.12.06c.08.04.2.1.39.19.07.04.15.08.25.12.23.12.53.27.93.46.23.12.5.25.8.4.1.05.21.11.32.16.22.11.45.23.71.35.38.19.8.4,1.27.63.31.16.65.32.99.49.54.27,1.12.55,1.74.86.42.21.87.43,1.34.66.23.12.47.24.72.36.49.25,1.01.5,1.56.77.54.27,1.11.55,1.71.85,1.21.59,2.52,1.24,3.94,1.95.72.36,1.46.73,2.24,1.11.78.39,1.59.79,2.44,1.21.84.41,1.72.85,2.63,1.3,5.01,2.48,11.05,5.47,18.36,9.08v9.14c0,1.94-1.57,3.51-3.5,3.51h-35.49c-1.94,0-3.51-1.57-3.51-3.51"/>
  </g>
  <polyline class="st1" points="515.82 908.28 515.82 930.99 439.33 930.99 439.33 761.02 439.34 761.02"/>
  <polyline class="st1" points="498.82 899.87 515.82 908.28 516.8 908.77 516.8 760.58 439.34 760.58 439.34 761.02 439.34 870.43 456.33 878.85 456.37 878.87"/>
  <line class="st1" x1="477.83" y1="889.49" x2="480.46" y2="890.79"/>
  <line class="st1" x1="473.16" y1="887.17" x2="475.4" y2="888.28"/>
  <polyline class="st1" points="465.94 883.6 467.5 884.37 469.21 885.22"/>
  <line class="st1" x1="463.88" y1="882.59" x2="465.22" y2="883.25"/>
  <polyline class="st1" points="459.17 880.26 459.88 880.61 461.15 881.24 462.14 881.73"/>
  <line class="st1" x1="458.06" y1="879.7" x2="458.86" y2="880.1"/>
  <polyline class="st1" points="456.49 878.93 456.88 879.12 457.13 879.24"/>
  <line class="st1" x1="495.32" y1="912.52" x2="459.83" y2="912.52"/>
  <g class="st7">
    <path class="st1" d="M459.83,912.52c-1.94,0-3.51-1.57-3.51-3.51"/>
    <path class="st1" d="M498.82,909.01c0,1.94-1.57,3.51-3.5,3.51"/>
    <path class="st1" d="M498.82,909.01v-9.14c-7.3-3.62-13.35-6.6-18.36-9.08-.91-.45-1.79-.89-2.63-1.3-.85-.42-1.66-.82-2.44-1.21-.78-.38-1.52-.75-2.24-1.11-1.43-.71-2.74-1.36-3.95-1.95-.6-.3-1.17-.58-1.71-.85-.55-.27-1.07-.52-1.56-.77-.25-.12-.49-.24-.72-.36-.47-.23-.92-.45-1.34-.66-.62-.31-1.2-.59-1.74-.86-.34-.17-.68-.33-.99-.49-.47-.23-.89-.44-1.27-.63-.26-.12-.49-.24-.71-.35-.11-.05-.22-.11-.32-.16-.3-.15-.57-.28-.8-.4-.4-.19-.7-.34-.93-.46-.1-.04-.18-.08-.25-.12-.19-.09-.31-.15-.39-.19-.06-.03-.1-.05-.12-.06l-.04-.02v30.16"/>
  </g>
  <polygon class="st11" points="686.49 752.93 677.84 754.37 669.91 758.33 669.91 758.7 670.27 758.7 670.99 758.7 671.35 758.7 671.71 758.7 672.08 758.7 673.88 757.62 675.68 756.89 677.12 757.25 678.2 758.33 678.2 759.06 677.84 759.42 672.08 764.46 668.11 770.94 704.86 770.94 700.9 764.46 695.13 759.42 694.41 759.06 694.77 758.33 695.85 757.25 697.29 756.89 699.1 757.62 700.9 758.7 701.26 758.7 701.62 758.7 701.98 758.7 702.7 758.7 703.06 758.33 695.13 754.37 686.49 752.93"/>
  <polygon class="st11" points="737.65 752.93 728.64 754.37 721.07 758.33 721.07 758.7 721.44 758.7 721.79 758.7 722.52 758.7 722.87 758.7 723.24 758.7 725.04 757.62 726.84 756.89 728.28 757.25 729.36 758.33 729.36 759.06 729 759.42 722.87 764.46 719.27 770.94 756.02 770.94 752.06 764.46 745.93 759.42 745.57 759.06 745.57 758.33 746.65 757.25 748.46 756.89 750.26 757.62 751.7 758.7 752.06 758.7 752.78 758.7 753.14 758.7 753.5 758.7 753.86 758.7 754.22 758.33 746.29 754.37 737.65 752.93"/>
  <polygon class="st11" points="756.02 770.94 719.27 770.94 704.86 770.94 668.11 770.94 660.91 770.94 660.91 839.04 668.11 839.04 704.86 839.04 719.27 839.04 756.02 839.04 762.86 839.04 762.86 770.94 756.02 770.94"/>
  <polygon class="st11" points="668.11 839.04 672.08 845.52 677.84 850.57 678.2 850.93 678.2 851.65 677.12 852.73 675.68 853.09 673.88 852.37 672.08 851.29 671.72 851.29 671.36 851.29 670.99 851.29 670.27 851.29 669.91 851.29 669.91 851.65 677.84 855.61 686.49 857.05 695.13 855.61 703.06 851.65 702.7 851.29 701.98 851.29 701.62 851.29 701.26 851.29 700.9 851.29 699.1 852.37 697.29 853.09 695.85 852.73 694.77 851.65 694.41 850.93 695.13 850.57 700.9 845.52 704.86 839.04 668.11 839.04"/>
  <polygon class="st11" points="719.27 839.04 722.87 845.52 729 850.57 729.36 850.93 729.36 851.65 728.28 852.73 726.84 853.09 725.04 852.37 723.23 851.29 722.87 851.29 722.51 851.29 721.79 851.29 721.43 851.29 721.07 851.29 721.07 851.65 728.64 855.61 737.64 857.05 746.29 855.61 754.22 851.65 753.86 851.29 753.5 851.29 753.14 851.29 752.78 851.29 752.06 851.29 751.7 851.29 750.25 852.37 748.45 853.09 746.65 852.73 745.57 851.65 745.57 850.93 745.93 850.57 752.06 845.52 756.02 839.04 719.27 839.04"/>
  <line class="st2" x1="672.08" y1="851.29" x2="671.72" y2="851.29"/>
  <line class="st2" x1="671.71" y1="851.29" x2="671.35" y2="851.29"/>
  <line class="st2" x1="670.27" y1="851.29" x2="670.99" y2="851.29"/>
  <line class="st2" x1="670.99" y1="851.29" x2="671.35" y2="851.29"/>
  <line class="st2" x1="669.91" y1="851.65" x2="669.91" y2="851.29"/>
  <line class="st2" x1="669.91" y1="851.29" x2="670.27" y2="851.29"/>
  <line class="st2" x1="678.2" y1="851.65" x2="677.12" y2="852.73"/>
  <line class="st2" x1="677.12" y1="852.73" x2="675.68" y2="853.09"/>
  <line class="st2" x1="675.68" y1="853.09" x2="673.87" y2="852.37"/>
  <line class="st2" x1="673.88" y1="852.37" x2="672.08" y2="851.29"/>
  <line class="st2" x1="677.84" y1="850.56" x2="678.2" y2="850.92"/>
  <line class="st2" x1="678.2" y1="850.92" x2="678.2" y2="851.64"/>
  <line class="st2" x1="677.84" y1="850.56" x2="672.07" y2="845.52"/>
  <line class="st2" x1="672.08" y1="845.52" x2="668.11" y2="839.04"/>
  <line class="st2" x1="700.9" y1="851.29" x2="701.26" y2="851.29"/>
  <line class="st2" x1="701.26" y1="851.29" x2="701.62" y2="851.29"/>
  <line class="st2" x1="702.7" y1="851.29" x2="701.98" y2="851.29"/>
  <line class="st2" x1="701.98" y1="851.29" x2="701.62" y2="851.29"/>
  <line class="st2" x1="703.06" y1="851.65" x2="702.7" y2="851.29"/>
  <line class="st2" x1="694.77" y1="851.65" x2="695.85" y2="852.73"/>
  <line class="st2" x1="695.85" y1="852.73" x2="697.29" y2="853.09"/>
  <line class="st2" x1="697.29" y1="853.09" x2="699.1" y2="852.37"/>
  <line class="st2" x1="699.1" y1="852.37" x2="700.9" y2="851.29"/>
  <line class="st2" x1="695.13" y1="850.56" x2="694.41" y2="850.92"/>
  <line class="st2" x1="694.41" y1="850.92" x2="694.77" y2="851.64"/>
  <line class="st2" x1="695.13" y1="850.56" x2="700.9" y2="845.52"/>
  <line class="st2" x1="700.9" y1="845.52" x2="704.86" y2="839.04"/>
  <line class="st2" x1="669.91" y1="851.65" x2="677.84" y2="855.61"/>
  <line class="st2" x1="677.84" y1="855.61" x2="686.49" y2="857.05"/>
  <line class="st2" x1="686.49" y1="857.05" x2="695.13" y2="855.61"/>
  <line class="st2" x1="695.13" y1="855.61" x2="703.06" y2="851.65"/>
  <line class="st2" x1="672.08" y1="758.69" x2="671.72" y2="758.69"/>
  <line class="st2" x1="671.71" y1="758.69" x2="671.35" y2="758.69"/>
  <line class="st2" x1="670.27" y1="758.69" x2="670.99" y2="758.69"/>
  <line class="st2" x1="670.99" y1="758.69" x2="671.35" y2="758.69"/>
  <line class="st2" x1="669.91" y1="758.33" x2="669.91" y2="758.69"/>
  <line class="st2" x1="669.91" y1="758.69" x2="670.27" y2="758.69"/>
  <line class="st2" x1="678.2" y1="758.33" x2="677.12" y2="757.25"/>
  <line class="st2" x1="677.12" y1="757.25" x2="675.68" y2="756.89"/>
  <line class="st2" x1="675.68" y1="756.89" x2="673.87" y2="757.61"/>
  <line class="st2" x1="673.88" y1="757.61" x2="672.08" y2="758.69"/>
  <line class="st2" x1="677.84" y1="759.42" x2="678.2" y2="759.06"/>
  <line class="st2" x1="678.2" y1="759.06" x2="678.2" y2="758.34"/>
  <line class="st2" x1="677.84" y1="759.42" x2="672.07" y2="764.46"/>
  <line class="st2" x1="672.08" y1="764.46" x2="668.11" y2="770.94"/>
  <line class="st2" x1="700.9" y1="758.69" x2="701.26" y2="758.69"/>
  <line class="st2" x1="701.26" y1="758.69" x2="701.62" y2="758.69"/>
  <line class="st2" x1="702.7" y1="758.69" x2="701.98" y2="758.69"/>
  <line class="st2" x1="701.98" y1="758.69" x2="701.62" y2="758.69"/>
  <line class="st2" x1="703.06" y1="758.33" x2="702.7" y2="758.69"/>
  <line class="st2" x1="694.77" y1="758.33" x2="695.85" y2="757.25"/>
  <line class="st2" x1="695.85" y1="757.25" x2="697.29" y2="756.89"/>
  <line class="st2" x1="697.29" y1="756.89" x2="699.1" y2="757.61"/>
  <line class="st2" x1="699.1" y1="757.61" x2="700.9" y2="758.69"/>
  <line class="st2" x1="695.13" y1="759.42" x2="694.41" y2="759.06"/>
  <line class="st2" x1="694.41" y1="759.06" x2="694.77" y2="758.34"/>
  <line class="st2" x1="695.13" y1="759.42" x2="700.9" y2="764.46"/>
  <line class="st2" x1="700.9" y1="764.46" x2="704.86" y2="770.94"/>
  <line class="st2" x1="669.91" y1="758.33" x2="677.84" y2="754.37"/>
  <line class="st2" x1="677.84" y1="754.37" x2="686.49" y2="752.93"/>
  <line class="st2" x1="686.49" y1="752.93" x2="695.13" y2="754.37"/>
  <line class="st2" x1="695.13" y1="754.37" x2="703.06" y2="758.33"/>
  <line class="st2" x1="660.91" y1="770.94" x2="660.91" y2="839.04"/>
  <line class="st2" x1="751.7" y1="851.29" x2="752.06" y2="851.29"/>
  <line class="st2" x1="752.06" y1="851.29" x2="752.78" y2="851.29"/>
  <line class="st2" x1="753.5" y1="851.29" x2="753.14" y2="851.29"/>
  <line class="st2" x1="753.14" y1="851.29" x2="752.78" y2="851.29"/>
  <line class="st2" x1="754.22" y1="851.65" x2="753.86" y2="851.29"/>
  <line class="st2" x1="753.86" y1="851.29" x2="753.5" y2="851.29"/>
  <line class="st2" x1="745.57" y1="851.65" x2="746.65" y2="852.73"/>
  <line class="st2" x1="746.65" y1="852.73" x2="748.45" y2="853.09"/>
  <line class="st2" x1="748.45" y1="853.09" x2="750.25" y2="852.37"/>
  <line class="st2" x1="750.25" y1="852.37" x2="751.7" y2="851.29"/>
  <line class="st2" x1="745.93" y1="850.56" x2="745.57" y2="850.92"/>
  <line class="st2" x1="745.57" y1="850.92" x2="745.57" y2="851.64"/>
  <line class="st2" x1="745.93" y1="850.56" x2="752.06" y2="845.52"/>
  <line class="st2" x1="752.06" y1="845.52" x2="756.02" y2="839.04"/>
  <line class="st2" x1="723.23" y1="851.29" x2="722.88" y2="851.29"/>
  <line class="st2" x1="722.87" y1="851.29" x2="722.51" y2="851.29"/>
  <line class="st2" x1="721.43" y1="851.29" x2="721.79" y2="851.29"/>
  <line class="st2" x1="721.79" y1="851.29" x2="722.51" y2="851.29"/>
  <line class="st2" x1="721.07" y1="851.65" x2="721.07" y2="851.29"/>
  <line class="st2" x1="721.07" y1="851.29" x2="721.43" y2="851.29"/>
  <line class="st2" x1="729.36" y1="851.65" x2="728.28" y2="852.73"/>
  <line class="st2" x1="728.28" y1="852.73" x2="726.84" y2="853.09"/>
  <line class="st2" x1="726.84" y1="853.09" x2="725.03" y2="852.37"/>
  <line class="st2" x1="725.03" y1="852.37" x2="723.23" y2="851.29"/>
  <line class="st2" x1="729" y1="850.56" x2="729.36" y2="850.92"/>
  <line class="st2" x1="729.36" y1="850.92" x2="729.36" y2="851.64"/>
  <line class="st2" x1="729" y1="850.56" x2="722.87" y2="845.52"/>
  <line class="st2" x1="722.87" y1="845.52" x2="719.27" y2="839.04"/>
  <line class="st2" x1="754.22" y1="851.65" x2="746.29" y2="855.61"/>
  <line class="st2" x1="746.29" y1="855.61" x2="737.64" y2="857.05"/>
  <line class="st2" x1="737.65" y1="857.05" x2="728.64" y2="855.61"/>
  <line class="st2" x1="728.64" y1="855.61" x2="721.07" y2="851.65"/>
  <line class="st2" x1="751.7" y1="758.69" x2="752.06" y2="758.69"/>
  <line class="st2" x1="752.06" y1="758.69" x2="752.78" y2="758.69"/>
  <line class="st2" x1="753.5" y1="758.69" x2="753.14" y2="758.69"/>
  <line class="st2" x1="753.14" y1="758.69" x2="752.78" y2="758.69"/>
  <line class="st2" x1="754.22" y1="758.33" x2="753.86" y2="758.69"/>
  <line class="st2" x1="753.86" y1="758.69" x2="753.5" y2="758.69"/>
  <line class="st2" x1="745.57" y1="758.33" x2="746.65" y2="757.25"/>
  <line class="st2" x1="746.65" y1="757.25" x2="748.45" y2="756.89"/>
  <line class="st2" x1="748.45" y1="756.89" x2="750.25" y2="757.61"/>
  <line class="st2" x1="750.25" y1="757.61" x2="751.7" y2="758.69"/>
  <line class="st2" x1="745.93" y1="759.42" x2="745.57" y2="759.06"/>
  <line class="st2" x1="745.57" y1="759.06" x2="745.57" y2="758.34"/>
  <line class="st2" x1="745.93" y1="759.42" x2="752.06" y2="764.46"/>
  <line class="st2" x1="752.06" y1="764.46" x2="756.02" y2="770.94"/>
  <line class="st2" x1="723.23" y1="758.69" x2="722.88" y2="758.69"/>
  <line class="st2" x1="722.87" y1="758.69" x2="722.51" y2="758.69"/>
  <line class="st2" x1="721.43" y1="758.69" x2="721.79" y2="758.69"/>
  <line class="st2" x1="721.79" y1="758.69" x2="722.51" y2="758.69"/>
  <line class="st2" x1="721.07" y1="758.33" x2="721.07" y2="758.69"/>
  <line class="st2" x1="721.07" y1="758.69" x2="721.43" y2="758.69"/>
  <line class="st2" x1="729.36" y1="758.33" x2="728.28" y2="757.25"/>
  <line class="st2" x1="728.28" y1="757.25" x2="726.84" y2="756.89"/>
  <line class="st2" x1="726.84" y1="756.89" x2="725.03" y2="757.61"/>
  <line class="st2" x1="725.03" y1="757.61" x2="723.23" y2="758.69"/>
  <line class="st2" x1="729" y1="759.42" x2="729.36" y2="759.06"/>
  <line class="st2" x1="729.36" y1="759.06" x2="729.36" y2="758.34"/>
  <line class="st2" x1="729" y1="759.42" x2="722.87" y2="764.46"/>
  <line class="st2" x1="722.87" y1="764.46" x2="719.27" y2="770.94"/>
  <line class="st2" x1="754.22" y1="758.33" x2="746.29" y2="754.37"/>
  <line class="st2" x1="746.29" y1="754.37" x2="737.64" y2="752.93"/>
  <line class="st2" x1="737.65" y1="752.93" x2="728.64" y2="754.37"/>
  <line class="st2" x1="728.64" y1="754.37" x2="721.07" y2="758.33"/>
  <line class="st2" x1="762.86" y1="770.94" x2="762.86" y2="839.04"/>
  <polyline class="st2" points="762.86 839.04 756.02 839.04 719.27 839.04 704.86 839.04 668.11 839.04 660.91 839.04"/>
  <polyline class="st2" points="660.91 770.94 668.11 770.94 704.86 770.94 719.27 770.94 756.02 770.94 762.86 770.94"/>
  <line class="st2" x1="756.59" y1="1046.72" x2="745.2" y2="1046.72"/>
  <rect class="st2" x="712.57" y="1021.32" width="50.48" height="125.05"/>
  <line class="st2" x1="727.63" y1="1116.53" x2="727.63" y2="1105.4"/>
  <line class="st2" x1="748.57" y1="1116.53" x2="748.57" y2="1105.4"/>
  <line class="st2" x1="743.07" y1="1111.04" x2="754.21" y2="1111.04"/>
  <line class="st2" x1="721.99" y1="1111.04" x2="733.13" y2="1111.04"/>
  <rect class="st2" x="717.09" y="1098.42" width="42.01" height="24.5"/>
  <rect class="st2" x="723.73" y="1032.62" width="28.34" height="28.33"/>
  <rect class="st2" x="716.68" y="1025.43" width="42.43" height="42.57"/>
  <path class="st2" d="M699.63,682.31v16.94M699.63,699.25h63.41M438.43,699.25h50.8M489.23,699.25v-16.94M699.63,664.66h-1.08M577.14,664.66h-1.08M490.31,664.66h-1.08M489.23,664.66v34.59M438.43,699.25v233.1M438.43,932.35h136.19M574.62,1146.71h8.65M583.26,1146.71h1.08M763.04,1146.71v-125.74M763.04,1014.49v-315.24M699.63,699.25v-34.59M566.33,996.11h-127.9M438.43,996.11v-55.12M438.43,940.99h127.9M489.23,682.31v-30.62M699.63,651.69v30.62M705.76,651.69h-6.03M438.43,940.99h3.97M444.92,940.99h2.52M449.96,940.99h2.52M455.01,940.99h2.88M460.41,940.99h2.52M465.45,940.99h2.52M470.5,940.99h2.52M475.54,940.99h2.52M480.58,940.99h2.52M485.63,940.99h2.88M491.03,940.99h2.52M496.08,940.99h2.52M501.12,940.99h2.52M506.16,940.99h2.52M511.21,940.99h2.52M516.61,940.99h2.52M521.66,940.99h2.52M526.7,940.99h2.52M531.74,940.99h2.52M536.79,940.99h2.52M541.83,940.99h2.52M547.24,940.99h2.52M552.28,940.99h2.52M557.32,940.99h2.52M562.37,940.99h3.96M566.33,996.11h-3.96M559.85,996.11h-2.52M554.8,996.11h-2.52M549.76,996.11h-2.52M544.35,996.11h-2.52M539.31,996.11h-2.52M534.27,996.11h-2.52M529.22,996.11h-2.52M524.18,996.11h-2.52M519.13,996.11h-2.52M513.73,996.11h-2.52M508.69,996.11h-2.52M503.64,996.11h-2.52M498.6,996.11h-2.52M493.55,996.11h-2.52M488.51,996.11h-2.88M483.11,996.11h-2.52M478.06,996.11h-2.52M473.02,996.11h-2.52M467.97,996.11h-2.52M462.93,996.11h-2.52M457.89,996.11h-2.88M452.48,996.11h-2.52M447.44,996.11h-2.52M442.4,996.11h-3.97M438.43,996.11v-3.24M438.43,990.35v-2.52M438.43,985.31v-2.88M438.43,979.9v-2.52M438.43,974.86v-2.52M438.43,969.81v-2.52M438.43,964.77v-2.52M438.43,959.73v-2.52M438.43,954.68v-2.88M438.43,949.28v-2.52M438.43,944.23v-3.24M482.75,649.53h223.01M699.63,662.14h-1.08M577.14,662.14h-1.08M490.31,662.14h-1.08M419.7,1164h163.56M661.44,1164h107.36M763.04,1146.71h-102.68M583.26,1146.71h1.08M463.29,645.21h253.27M463.29,632.6h253.27M463.29,619.63h253.27M463.29,607.02h253.27M463.29,594.05h253.27M463.29,581.44h253.27M463.29,568.47h253.27M463.29,555.86h253.27M463.29,543.25h253.27M463.29,530.28h253.27M463.29,517.67h253.27M463.29,504.7h253.27M463.29,492.09h253.27M463.29,479.12v168.97M482.75,649.53h223.01M716.56,648.09v-168.97M716.56,479.12h-253.27M781.77,1146.71v-447.46M492.83,573.87l14.05,1.08M506.88,574.95l13.69,3.6M520.58,578.56l12.61,6.13M533.18,584.68l11.53,7.93M544.71,592.61l9.73,9.72M554.44,602.33l8.28,11.53M562.73,613.86l5.76,12.97M568.49,626.83l3.6,13.33M572.09,640.16l1.08,14.05M492.83,654.21v-80.34M498.24,658.9h69.89M568.13,658.9v-3.96M568.13,654.93h-69.89M498.24,654.93v3.96M571.73,666.82h-77.1M498.24,654.21h69.89M498.24,661.06h69.89M571.73,661.06v5.76M494.64,661.06v5.76M494.64,661.06h77.1M571.73,666.82h4.32M576.06,666.82v-12.61M482.75,651.69h6.48"/>
  <path class="st2" d="M576.06,654.22h-7.92M568.13,654.22v6.85M568.13,661.06h3.6M571.74,661.06v5.76M490.31,666.82h4.32M494.64,666.82v-5.76M494.64,661.06h3.6M498.24,661.06v-6.85M498.24,654.22h-7.93M490.31,654.22v12.61M694.23,654.94v3.96M581.46,654.94h112.77M581.46,658.9v-3.96M694.23,658.9h-112.77M581.46,666.82h112.77M694.23,654.22h-112.77M698.55,654.22v12.61M694.23,654.22h4.32M694.23,666.82v-12.61M698.55,666.82h-4.32M581.46,654.22v12.61M577.14,654.22h4.32M577.14,666.82v-12.61M581.46,666.82h-4.32M419.7,699.25v447.46M419.7,1020.98v-6.48M781.78,932.35v8.65M763.04,839.04v-68.09M763.04,963.33h-1.44M759.08,963.33h-2.53M754.04,963.33h-2.52M748.99,963.33h-2.52"/>
  <path class="st2" d="M743.95,963.33h-2.52M738.9,963.33h-2.88M733.5,963.33h-2.52M728.45,963.33h-2.52M723.41,963.33h-2.52M718.37,963.33h-2.52M713.32,963.33h-1.44M711.88,963.33v-1.08M711.88,959.73v-2.52M711.88,954.68v-2.88M711.88,949.28v-2.52M711.88,944.24v-2.52M711.88,939.19v-2.52M711.88,934.15v-2.52M711.88,929.1v-2.52M711.88,923.7v-2.52M711.88,918.66v-2.52M711.88,913.61v-1.08M711.88,912.53h1.44M715.85,912.53h2.52M720.89,912.53h2.52M725.93,912.53h2.52M730.98,912.53h2.52M736.02,912.53h2.88M741.42,912.53h2.52M746.47,912.53h2.52M751.51,912.53h2.52M756.56,912.53h2.52M761.6,912.53h1.44M763.04,912.53v1.08M763.04,916.13v2.52M763.04,921.18v2.52M763.04,926.58v2.52M763.04,931.63v2.52M763.04,936.67v2.52M763.04,941.71v2.52M763.04,946.76v2.52M763.04,951.8v2.88M763.04,957.21v2.52M763.04,962.25v1.08M586.87,1075.74l14.05,1.44M600.92,1077.18l13.33,3.96M614.25,1081.14l12.25,6.48M626.5,1087.62l10.81,9.01M637.31,1096.63l8.65,10.81M645.95,1107.44l6.48,12.25M652.44,1119.69l4.33,13.33M656.76,1133.02l1.08,13.69M584.34,1164v-17.3M660.36,1146.71v17.3M657.84,1146.71h-70.97M586.87,1146.71v-70.97M583.26,1146.71h1.08M763.04,1014.49h-1.44M759.08,1014.49h-2.52M754.03,1014.49h-2.52M748.99,1014.49h-2.52M743.95,1014.49h-2.52M738.9,1014.49h-2.88M733.5,1014.49h-2.52M728.45,1014.49h-2.52M723.41,1014.49h-2.52M718.37,1014.49h-2.52M713.32,1014.49h-1.44M711.88,1014.49v-1.08M711.88,1010.53v-2.52M711.88,1005.48v-2.52M711.88,1000.44v-2.52M711.88,995.39v-2.52M711.88,990.35v-2.52M711.88,985.31v-2.88M711.88,979.9v-2.52M711.88,974.86v-2.52M711.88,969.81v-2.52M711.88,964.77v-1.44M711.88,963.33h1.44M715.85,963.33h2.52M720.89,963.33h2.52M725.93,963.33h2.52M730.98,963.33h2.52M736.02,963.33h2.88M741.42,963.33h2.52M746.47,963.33h2.52M751.51,963.33h2.52M756.56,963.33h2.52M761.6,963.33h1.44M763.04,963.33v1.44M763.04,967.29v2.52M763.04,972.34v2.52M763.04,977.38v2.52M763.04,982.42v2.88M763.04,987.83v2.52M763.04,992.87v2.52M763.04,997.92v2.52M763.04,1002.96v2.52M763.04,1008v2.52M763.04,1013.41v1.08M763.04,1014.49h-59.45M703.6,1014.49v6.49M703.6,1020.97h59.45M763.04,1073.21v51.16"/>
  <path class="st2" d="M763.04,1022.06v102.32M574.62,1146.71v-7.21M574.62,1139.51v-9.37M569.21,1131.22v7.21M574.62,1054.84v-58.73M569.21,1131.22v-1.08M566.33,996.12h-126.09M498.96,1127.62l1.44-13.69M500.4,1113.93l3.96-13.33M504.36,1100.6l6.48-12.25M510.85,1088.35l8.65-10.45M519.5,1077.9l10.81-8.65M530.3,1069.25l11.89-6.84M542.19,1062.41l13.33-3.96M555.52,1058.44l13.69-1.08M567.77,1054.84h6.84M574.62,1130.14h-5.4M569.21,1057.36v70.26M569.21,1127.62h-70.25M569.21,1131.22v-1.08"/>
  <path class="st2" d="M447.08,1002.96h120.69M567.77,1002.96v51.88M569.21,1138.42v-7.21M569.21,1138.42h-122.13M447.08,1138.42v-135.46"/>
  <path class="st2" d="M438.43,940.99h8.65M447.08,940.99v-8.65M447.08,932.35h-8.65M498.24,940.99h68.09M566.33,940.99v-8.65"/>
  <path class="st13" d="M566.33,932.35h-68.09M498.24,932.35v8.65M498.24,940.99h-51.16M447.08,932.35h51.16M447.08,940.99v-8.65M498.24,932.35v8.65M566.33,932.35v63.77M574.62,996.12v-63.77M574.62,932.35h-8.29M482.75,648.09h-3.24M482.75,651.69v-3.61M419.7,648.09h59.81M709.36,648.09h-3.6M705.76,648.09v3.61M709.36,648.09h72.42M758,1164h-97.64M584.34,1164h-164.65M419.7,1164v-515.92M781.77,648.09v515.92M781.77,1164h-23.78"/>
  <g class="st9">
    <path class="st2" d="M1160.42,532.08h-6.48M1135.21,447.42l-17.29,7.57M1122.6,473.72l-4.68-18.73M1093.05,443.09l29.54,30.62M1093.05,443.09l42.15,4.32M1093.05,443.09l24.86,11.89M1160.42,787.52h-6.48M1160.42,617.11h-6.48M1160.42,702.13h-6.48M1160.42,787.52v-255.43M-41.81,1278.21h1263.48"/>
    <path d="M1137.59,1223.87c.46-.3.8-.72,1.02-1.25.23-.53.34-1.19.34-1.98,0-.62-.12-1.18-.34-1.67-.22-.49-.54-.87-.94-1.14-.4-.27-.83-.4-1.29-.4s-.87.12-1.22.36c-.36.24-.65.62-.88,1.12-.16.35-.34.99-.55,1.92-.21.93-.41,1.51-.61,1.73-.2.23-.45.34-.76.34-.36,0-.66-.16-.91-.48-.25-.32-.38-.82-.38-1.52s.14-1.17.42-1.51c.28-.34.69-.54,1.23-.6l-.08-1.1c-.5.02-.96.16-1.36.42-.4.27-.7.64-.9,1.14-.21.49-.31,1.06-.31,1.7,0,.59.1,1.11.29,1.59.2.48.48.84.86,1.09.38.25.79.38,1.22.38.4,0,.75-.1,1.07-.31.32-.21.59-.51.8-.93.17-.32.35-.88.54-1.68.19-.8.33-1.31.42-1.54.14-.37.31-.62.51-.78.2-.16.44-.24.71-.24s.51.08.74.25c.22.16.4.41.53.75.13.34.19.72.19,1.16,0,.49-.08.94-.26,1.33-.17.39-.39.69-.67.87-.28.19-.63.31-1.06.36l.09,1.08c.58-.02,1.09-.17,1.55-.48M1138.81,1214.57h-2.98l-1.37-1.42,4.35-3.09v-1.52l-5.12,3.81-3.48-3.65v1.56l4.26,4.31h-4.26v1.15h8.6v-1.15Z"/>
    <path d="M1132.77,1204.4h.98v-5.73h-.98v5.73ZM1135.38,1204.4h.98v-5.73h-.98v5.73Z"/>
    <path d="M1137.59,1193.61c.46-.3.8-.72,1.02-1.25.23-.53.34-1.19.34-1.98,0-.62-.11-1.18-.34-1.67-.23-.5-.54-.88-.94-1.14-.41-.26-.84-.4-1.3-.4s-.87.12-1.22.36c-.36.24-.65.62-.88,1.12-.16.35-.34.99-.55,1.92-.21.94-.42,1.51-.61,1.74-.2.22-.46.34-.76.34-.36,0-.66-.16-.92-.48-.25-.32-.38-.83-.38-1.52s.14-1.17.42-1.51c.28-.34.69-.54,1.23-.6l-.08-1.1c-.5.02-.96.16-1.35.42-.4.27-.7.65-.9,1.14-.21.49-.31,1.06-.31,1.7,0,.58.1,1.11.29,1.59.2.48.48.84.86,1.09.38.25.78.37,1.22.37.4,0,.75-.1,1.07-.31.32-.2.59-.51.8-.93.17-.32.35-.88.53-1.68.19-.8.33-1.31.42-1.55.14-.36.31-.62.51-.78.2-.16.44-.23.71-.23s.51.08.74.24c.23.16.4.42.53.75.13.34.2.73.2,1.16,0,.49-.09.94-.26,1.33-.17.39-.39.69-.67.87-.27.19-.63.31-1.06.36l.1,1.08c.57-.02,1.09-.17,1.54-.48"/>
    <path d="M1138.81,1184.83h-2.47l-.71-.75,3.18-2.08v-1.32l-3.92,2.65-2.31-2.41v1.38l2.53,2.52h-4.9v1.06h8.6v-1.06ZM1138.81,1175.09v-1.11c-.24.13-.49.23-.75.27-.26.05-.88.07-1.86.07h-1.41c-.47,0-.79.02-.97.05-.29.06-.53.18-.72.33-.19.16-.35.41-.47.74-.13.34-.19.77-.19,1.31s.08,1.01.22,1.42c.14.41.36.73.63.94.27.22.63.37,1.07.47l.14-1.04c-.44-.11-.75-.29-.92-.53-.17-.24-.26-.61-.26-1.11,0-.54.12-.94.36-1.22.18-.2.48-.3.91-.3.04,0,.13,0,.27,0,.14.41.26,1.04.36,1.9.05.42.11.74.16.95.08.28.2.54.35.77.15.23.36.41.61.55.25.14.53.21.84.21.52,0,.95-.19,1.28-.56.33-.37.5-.9.5-1.59,0-.42-.07-.81-.21-1.18-.14-.37-.37-.75-.71-1.14.29-.03.55-.1.77-.21M1136.07,1175.4c.47,0,.82.06,1.06.17.31.15.55.38.73.7.18.32.26.69.26,1.1s-.09.73-.28.94-.42.32-.7.32c-.18,0-.35-.05-.5-.15-.15-.1-.27-.24-.35-.42-.08-.18-.15-.49-.21-.93-.11-.77-.24-1.35-.4-1.74h.39Z"/>
    <path d="M1138.81,1171.86h-2.47l-.72-.75,3.19-2.08v-1.32l-3.92,2.65-2.31-2.4v1.38l2.53,2.52h-4.9v1.07h8.6v-1.07ZM1137.91,1164.95c0,.16-.03.28-.08.37-.05.08-.12.14-.2.18-.09.04-.28.05-.58.05h-3.65v-1.07h-.82v1.07h-2.18l.64,1.06h1.54v.78h.82v-.78h3.59c.63,0,1.05-.04,1.24-.13.2-.09.36-.24.48-.45.12-.21.18-.52.18-.9,0-.24-.03-.5-.09-.8l-.93.16c.03.19.04.35.04.47"/>
    <path d="M1152.86,1222.75h-3.91v-4.07h-1.01v4.07h-2.66v-4.71h-1.02v5.86h8.6v-1.15ZM1151.64,1216.67c.46-.3.79-.72,1.02-1.25.23-.53.34-1.19.34-1.98,0-.62-.11-1.18-.33-1.67-.23-.49-.54-.88-.94-1.14-.41-.26-.84-.39-1.3-.39s-.87.12-1.22.36c-.36.24-.65.62-.88,1.12-.16.35-.34.99-.55,1.92-.21.94-.42,1.51-.61,1.74-.2.22-.46.34-.76.34-.36,0-.66-.16-.91-.48-.25-.32-.38-.82-.38-1.52s.14-1.17.42-1.51c.27-.34.69-.54,1.23-.6l-.08-1.1c-.51.02-.96.16-1.35.42-.4.27-.7.65-.9,1.14-.21.49-.31,1.06-.31,1.7,0,.58.1,1.11.29,1.59s.48.84.86,1.09c.38.25.78.37,1.22.37.4,0,.75-.1,1.07-.31.32-.2.59-.51.8-.93.17-.32.35-.88.54-1.68.19-.8.33-1.31.42-1.55.14-.36.31-.62.51-.78.2-.16.44-.23.71-.23s.51.08.74.24c.22.16.4.42.53.75.13.34.2.73.2,1.16,0,.49-.09.94-.26,1.33-.17.39-.39.69-.67.87-.28.19-.63.31-1.06.36l.1,1.08c.57-.02,1.09-.17,1.54-.48"/>
    <path d="M1146.82,1205.49h.98v-5.73h-.98v5.73ZM1149.43,1205.49h.98v-5.73h-.98v5.73Z"/>
    <polygon points="1152.86 1193.57 1148.95 1193.57 1148.95 1189.49 1147.94 1189.49 1147.94 1193.57 1145.27 1193.57 1145.27 1188.86 1144.26 1188.86 1144.26 1194.72 1152.86 1194.72 1152.86 1193.57"/>
    <path d="M1152.16,1186.93c.56-.55.84-1.25.84-2.14,0-.55-.13-1.05-.38-1.52-.25-.47-.61-.82-1.07-1.06-.46-.24-1.09-.36-1.89-.36-.99,0-1.76.28-2.33.82-.56.55-.84,1.26-.84,2.12,0,.78.23,1.44.69,1.98.56.65,1.41.97,2.57.97,1.05,0,1.86-.27,2.42-.81M1147.96,1186.12c-.4-.35-.59-.79-.59-1.33s.2-.96.59-1.32c.4-.35.98-.53,1.75-.53.82,0,1.43.18,1.82.53.4.35.6.79.6,1.32s-.2.98-.59,1.33c-.4.35-1,.53-1.79.53s-1.4-.17-1.79-.53M1152.86,1179.81h-3.26c-.44,0-.86-.06-1.23-.18-.25-.08-.44-.21-.58-.39-.14-.19-.21-.4-.21-.63,0-.26.08-.52.23-.78l-.98-.37c-.22.37-.34.73-.34,1.1,0,.25.07.48.21.69.14.2.43.43.87.68h-.94v.96h6.23v-1.07Z"/>
    <path d="M1151.83,1173.25c.2.28.31.61.31,1,0,.52-.18.96-.55,1.32-.36.35-.89.55-1.57.59v-4.69c-.12,0-.22,0-.28,0-1.03,0-1.83.27-2.4.8-.57.53-.85,1.22-.85,2.06s.29,1.57.87,2.12c.58.55,1.39.82,2.44.82s1.8-.27,2.36-.81c.56-.54.84-1.27.84-2.19,0-.73-.18-1.33-.53-1.8-.35-.47-.85-.79-1.48-.97l-.14,1.1c.45.16.77.38.98.66M1147.84,1175.54c-.33-.34-.49-.74-.49-1.24,0-.54.21-.98.61-1.32.26-.22.66-.36,1.18-.4v3.51c-.54-.03-.98-.22-1.3-.55M1152.5,1169.66c.34-.43.5-1.05.5-1.87,0-.49-.08-.94-.25-1.32-.17-.39-.41-.69-.72-.9-.31-.21-.64-.31-1-.31s-.66.08-.9.25c-.24.17-.43.4-.56.7-.13.3-.29.82-.49,1.58-.14.52-.23.83-.27.94-.07.18-.17.32-.28.41-.11.09-.23.13-.37.13-.22,0-.4-.1-.57-.31-.16-.21-.24-.56-.24-1.05,0-.42.09-.73.27-.96.18-.23.43-.36.75-.41l-.14-1.04c-.4.07-.72.19-.96.37-.24.17-.43.45-.57.83-.14.37-.21.81-.21,1.3,0,.33.04.63.12.92.08.28.19.51.31.68.15.22.35.39.59.52.24.13.49.19.77.19.3,0,.58-.08.84-.23.25-.16.45-.38.59-.69.14-.3.31-.84.51-1.63.14-.58.26-.94.36-1.09.14-.21.33-.31.56-.31.27,0,.5.11.7.35.2.24.3.6.3,1.09s-.11.86-.34,1.13c-.22.27-.54.43-.96.49l.16,1.05c.66-.12,1.16-.39,1.5-.82M1144.26,1163.91h8.6v-1.06h-8.6v1.06ZM1152.86,1156.78v-1.11c-.24.14-.49.23-.75.27-.26.04-.88.07-1.86.07h-1.41c-.47,0-.79.02-.97.05-.29.06-.53.17-.72.33-.19.16-.35.4-.47.74-.13.34-.19.77-.19,1.31s.07,1.02.22,1.43c.15.41.36.72.63.94s.63.38,1.07.47l.14-1.04c-.44-.12-.75-.29-.92-.53-.18-.24-.26-.61-.26-1.11,0-.54.12-.94.36-1.22.18-.2.48-.3.91-.3.04,0,.13,0,.27,0,.14.4.27,1.04.36,1.9.05.42.1.74.16.95.08.28.2.54.35.77.15.23.36.41.61.55s.53.21.83.21c.52,0,.95-.19,1.28-.56.33-.37.5-.9.5-1.59,0-.42-.07-.81-.2-1.18-.14-.37-.37-.75-.71-1.14.29-.03.55-.1.77-.21M1150.12,1157.08c.46,0,.82.06,1.05.17.31.15.55.38.73.7s.27.69.27,1.1-.1.73-.28.94c-.19.22-.42.32-.7.32-.19,0-.35-.05-.5-.15-.15-.1-.26-.24-.34-.42-.08-.18-.15-.49-.21-.93-.11-.77-.24-1.35-.4-1.74h.39ZM1145.79,1159.31c.21-.21.31-.46.31-.76s-.1-.54-.31-.75c-.21-.21-.46-.32-.76-.32s-.55.1-.76.32c-.21.21-.31.46-.31.75s.1.54.31.75c.21.21.46.32.74.32.31,0,.57-.1.78-.31M1144.57,1158.99c-.12-.13-.19-.27-.19-.44s.06-.32.19-.45c.12-.12.27-.18.45-.18s.33.06.45.18c.12.13.19.27.19.44s-.06.31-.19.44c-.12.12-.28.19-.46.19-.17,0-.32-.06-.44-.19M1151.83,1150.6c.2.28.31.61.31,1,0,.52-.18.96-.55,1.32-.36.35-.89.54-1.57.59v-4.69c-.12,0-.22,0-.28,0-1.03,0-1.83.27-2.4.8-.57.53-.85,1.22-.85,2.06s.29,1.57.87,2.12c.58.55,1.39.82,2.44.82s1.8-.27,2.36-.81c.56-.54.84-1.27.84-2.19,0-.73-.18-1.33-.53-1.8-.35-.47-.85-.79-1.48-.97l-.14,1.1c.45.16.77.38.98.66M1147.84,1152.89c-.33-.33-.49-.74-.49-1.24,0-.54.21-.98.61-1.32.26-.22.66-.35,1.18-.4v3.51c-.54-.04-.98-.22-1.3-.56"/>
    <path d="M1151.96,1145.49c0,.16-.03.28-.07.36-.05.08-.12.14-.21.18-.09.04-.28.06-.58.06h-3.64v-1.07h-.82v1.07h-2.17l.63,1.06h1.54v.78h.82v-.78h3.58c.64,0,1.05-.04,1.25-.13.2-.09.36-.24.48-.45.12-.21.18-.51.18-.9,0-.24-.03-.5-.09-.8l-.93.15c.03.19.04.35.04.47M1152.5,1140.48c.34-.43.51-1.05.51-1.87,0-.49-.08-.93-.26-1.32-.17-.39-.41-.69-.72-.9-.31-.21-.64-.31-.99-.31s-.66.08-.9.25c-.24.17-.43.41-.55.7-.13.3-.29.82-.49,1.58-.14.52-.23.84-.27.94-.08.19-.17.32-.28.41-.11.09-.23.13-.37.13-.21,0-.4-.11-.56-.32-.16-.21-.24-.56-.24-1.05,0-.42.09-.74.27-.96.18-.23.43-.36.75-.41l-.14-1.04c-.4.07-.73.19-.97.37-.24.18-.43.46-.57.83-.14.38-.21.81-.21,1.3,0,.33.04.63.13.92.09.28.19.51.31.68.16.22.35.39.59.52.24.13.49.19.77.19.3,0,.58-.08.84-.24.25-.15.45-.38.59-.69.14-.3.31-.84.5-1.62.14-.58.27-.94.36-1.09.14-.21.32-.31.56-.31.27,0,.5.12.7.35.2.24.3.6.3,1.09s-.11.86-.33,1.13c-.22.27-.55.43-.96.49l.16,1.05c.66-.12,1.16-.39,1.5-.82"/>
    <path d="M1152.86,1133.31h-2.47l-.71-.75,3.18-2.08v-1.32l-3.92,2.65-2.31-2.41v1.38l2.53,2.52h-4.9v1.06h8.6v-1.06ZM1152.86,1123.94v-1.11c-.24.13-.49.22-.75.27-.26.05-.88.07-1.86.07h-1.41c-.47,0-.79.02-.97.05-.29.06-.53.18-.72.33-.19.16-.35.4-.48.74s-.19.77-.19,1.31.07,1.02.22,1.43c.15.41.35.72.63.94.27.22.63.37,1.07.47l.14-1.04c-.44-.11-.75-.29-.92-.53-.17-.24-.26-.61-.26-1.11,0-.54.12-.94.36-1.22.18-.2.48-.3.91-.3.04,0,.13,0,.27,0,.14.41.26,1.04.36,1.9.05.42.1.74.16.95.08.28.2.54.35.77.15.23.36.41.61.55.25.14.53.21.83.21.52,0,.95-.19,1.29-.56.33-.37.5-.9.5-1.59,0-.42-.07-.81-.2-1.18-.14-.37-.37-.75-.7-1.14.29-.03.55-.1.77-.21M1150.12,1124.24c.47,0,.82.06,1.05.17.31.15.55.39.73.71.18.32.26.69.26,1.1s-.09.73-.28.95c-.19.21-.42.32-.7.32-.18,0-.35-.05-.5-.15-.15-.1-.26-.24-.34-.42-.08-.18-.15-.49-.21-.93-.11-.78-.24-1.36-.4-1.74h.39Z"/>
    <path d="M1152.08,1120.79c.61-.42.92-1.01.92-1.75s-.29-1.39-.88-1.92c-.58-.53-1.41-.8-2.47-.8-.45,0-.87.07-1.27.19-.39.12-.73.3-1.01.52-.28.22-.5.51-.65.85-.16.35-.23.71-.23,1.1,0,.7.28,1.27.84,1.72h-3.07v1.06h8.6v-.99h-.78ZM1147.96,1120.29c-.4-.34-.6-.74-.6-1.21s.19-.86.58-1.18c.39-.33.99-.49,1.8-.49s1.39.17,1.79.51c.4.34.6.74.6,1.21,0,.57-.27,1.03-.81,1.36-.33.21-.87.31-1.62.31s-1.34-.17-1.74-.51"/>
    <path d="M1151.75,789.04c.6-.48.89-1.14.89-1.97,0-.63-.17-1.16-.51-1.58-.34-.42-.82-.73-1.44-.94-.62-.21-1.44-.31-2.44-.31-.86,0-1.53.06-2.04.2-.5.13-.93.31-1.28.54-.35.23-.62.52-.8.87-.19.35-.28.76-.28,1.22,0,.63.17,1.16.51,1.57.33.42.81.73,1.43.94.62.21,1.44.31,2.46.31,1.61,0,2.78-.28,3.49-.86M1145.35,788.25c-.41-.29-.61-.68-.61-1.17s.23-.91.7-1.25c.46-.33,1.41-.5,2.83-.5s2.34.17,2.81.5c.47.33.7.74.7,1.23s-.23.9-.7,1.23c-.47.34-1.41.5-2.82.5s-2.38-.18-2.91-.55M1151.49,624.99c-.19-.12-.38-.27-.57-.45s-.55-.59-1.08-1.23c-.64-.77-1.15-1.32-1.51-1.64-.37-.33-.72-.57-1.05-.71s-.67-.21-1.01-.21c-.68,0-1.24.24-1.7.73s-.69,1.15-.69,1.98.21,1.48.64,1.97c.42.49,1.04.77,1.85.85l.11-1.09c-.54,0-.96-.16-1.27-.47-.31-.31-.46-.72-.46-1.23,0-.49.14-.88.43-1.18.29-.3.64-.45,1.06-.45s.82.17,1.27.49c.45.33,1.05.97,1.82,1.92.49.61.93,1.07,1.3,1.39.37.32.76.56,1.14.7.24.09.48.13.74.12v-5.74h-1.02v4.26Z"/>
    <path d="M1152.5,618.49h-3.23c-.57,0-1-.06-1.3-.17-.3-.12-.53-.3-.69-.56-.16-.25-.23-.53-.23-.83,0-.4.12-.68.35-.85.23-.18.59-.26,1.06-.26h4.05v-1.07h-3.62c-.64,0-1.11-.15-1.4-.44-.29-.29-.44-.66-.44-1.1,0-.25.06-.46.17-.64.11-.18.26-.31.45-.38.18-.07.49-.1.91-.1h3.93v-1.06h-4.28c-.71,0-1.24.17-1.58.5-.34.34-.51.82-.51,1.44,0,.8.36,1.45,1.09,1.94-.35.12-.61.33-.81.63-.19.3-.28.68-.28,1.15,0,.42.09.79.28,1.12.19.33.43.59.74.79h-.87v.95h6.23v-1.07Z"/>
    <path d="M1143.86,704.82v.69c.37.19.76.5,1.15.95.4.45.73.97,1.01,1.57h1.02c-.12-.33-.3-.71-.55-1.12-.24-.42-.48-.75-.73-1.01h6.73v-1.06h-8.63ZM1152.5,700.63h-3.23c-.57,0-1-.06-1.3-.17-.3-.12-.53-.3-.69-.56-.16-.25-.23-.53-.23-.83,0-.4.12-.68.35-.85.23-.18.59-.26,1.06-.26h4.05v-1.06h-3.62c-.64,0-1.11-.15-1.4-.44-.29-.29-.44-.66-.44-1.1,0-.24.06-.46.17-.64.11-.18.26-.31.45-.37.18-.07.49-.1.91-.1h3.93v-1.06h-4.28c-.71,0-1.24.17-1.58.5-.34.34-.51.82-.51,1.44,0,.8.36,1.45,1.09,1.94-.35.12-.61.33-.81.63-.19.3-.28.68-.28,1.15,0,.42.09.79.28,1.12.19.33.43.59.74.79h-.87v.95h6.23v-1.06Z"/>
    <path d="M1152.5,891.43h-7.32l7.32-2.51v-1.04l-7.2-2.52h7.2v-1.11h-8.6v1.55l5.98,2.08c.61.21,1.06.37,1.38.46-.28.09-.7.22-1.27.41l-6.09,2.06v1.73h8.6v-1.11ZM1152.5,878.59v-1.11c-.24.13-.49.22-.75.27-.26.05-.88.07-1.86.07h-1.41c-.47,0-.8.02-.98.06-.29.06-.53.17-.72.33-.19.16-.35.41-.47.74s-.19.77-.19,1.31.08,1.02.22,1.43c.15.41.36.73.63.94.27.22.63.37,1.07.47l.14-1.04c-.44-.12-.75-.29-.93-.53-.17-.24-.26-.61-.26-1.11,0-.54.12-.94.36-1.21.18-.2.48-.3.91-.3.04,0,.13,0,.28,0,.14.41.26,1.04.36,1.9.05.42.1.74.16.95.08.28.19.54.35.77.15.22.35.41.61.55.25.14.53.21.84.21.52,0,.95-.19,1.28-.56.34-.37.51-.9.51-1.59,0-.42-.07-.81-.21-1.18-.14-.36-.37-.75-.7-1.14.29-.03.55-.1.77-.21M1149.76,878.89c.47,0,.82.06,1.05.17.31.15.55.39.73.71.18.32.26.68.26,1.09s-.09.73-.28.95c-.19.21-.42.32-.7.32-.18,0-.35-.05-.5-.15-.15-.1-.27-.24-.35-.42-.08-.18-.15-.49-.21-.93-.11-.77-.24-1.35-.4-1.74h.39ZM1145.43,881.13c.21-.21.31-.46.31-.76s-.1-.54-.31-.75c-.21-.21-.46-.31-.76-.31s-.55.11-.76.31c-.21.21-.31.46-.31.75s.1.54.31.75c.21.21.45.32.74.32.31,0,.58-.11.78-.32M1144.21,880.8c-.12-.13-.18-.27-.18-.44s.06-.32.19-.44c.13-.12.28-.18.45-.18s.33.07.45.19c.12.13.19.27.19.44s-.07.32-.19.44c-.12.13-.28.19-.46.19-.17,0-.32-.06-.44-.19"/>
    <rect x="1143.9" y="875.02" width="8.6" height="1.06"/>
    <path d="M1143.87,866.22v.69c.37.19.75.5,1.15.95.39.44.73.96,1.01,1.56h1.02c-.12-.33-.3-.71-.55-1.12-.25-.42-.49-.75-.73-1.01h6.73v-1.07h-8.63ZM1146.27,862.8h1.2v-1.21h-1.2v1.21ZM1151.3,862.8h1.2v-1.21h-1.2v1.21Z"/>
    <path d="M1151.99,859.29c.44-.5.66-1.15.66-1.94,0-.96-.35-1.72-1.05-2.28-.57-.46-1.24-.69-2.02-.69s-1.48.26-2.01.78c-.52.52-.78,1.16-.78,1.92,0,.57.18,1.12.54,1.64l-2.31-.47v-3.47h-1.01v4.32l4.42.84.13-1c-.25-.16-.45-.37-.6-.65-.15-.28-.23-.58-.23-.93,0-.56.17-1,.52-1.34.35-.34.82-.51,1.43-.51.63,0,1.14.18,1.53.53.38.35.57.79.57,1.3,0,.43-.14.79-.41,1.09-.27.3-.68.49-1.22.58l.09,1.12c.73-.07,1.31-.35,1.75-.85M1151.76,852.45c.6-.48.89-1.14.89-1.97,0-.63-.17-1.16-.51-1.58-.34-.42-.82-.73-1.44-.94-.62-.21-1.43-.31-2.44-.31-.85,0-1.53.07-2.03.2s-.93.31-1.28.54c-.35.23-.62.52-.8.87-.19.35-.28.76-.28,1.23,0,.63.17,1.16.51,1.58.33.42.81.73,1.43.94.62.21,1.44.32,2.45.32,1.62,0,2.78-.29,3.5-.86M1145.35,851.66c-.41-.29-.61-.68-.61-1.17s.23-.92.7-1.25c.46-.33,1.41-.5,2.82-.5s2.35.17,2.82.5c.47.33.7.75.7,1.24s-.23.9-.7,1.24c-.47.34-1.41.5-2.82.5s-2.38-.18-2.9-.55"/>
    <polygon class="st11" points="1152.5 478.4 1128.36 466.51 1135.57 451.02 1160.06 462.91 1152.5 478.4"/>
    <polygon points="1149.56 472.27 1137.45 466.41 1153.5 464.15 1154.51 462.05 1139.1 454.58 1138.15 456.55 1150.25 462.41 1134.22 464.67 1133.2 466.77 1148.61 474.23 1149.56 472.27"/>
    <path d="M1151.98,540.44c.45-.5.68-1.14.68-1.9,0-.85-.26-1.54-.79-2.1-.52-.55-1.16-.83-1.91-.83-.56,0-1.02.14-1.39.43s-.61.68-.73,1.2c-.18-.39-.42-.69-.72-.9-.31-.2-.64-.3-1.02-.3-.39,0-.76.1-1.11.32-.35.21-.62.52-.82.91-.2.4-.3.83-.3,1.31,0,.69.19,1.26.58,1.73s.94.76,1.65.89l.19-1.06c-.51-.08-.9-.26-1.16-.53-.26-.28-.39-.62-.39-1.04s.13-.76.38-1.02c.25-.26.58-.4.97-.4.49,0,.85.18,1.08.55.23.36.35.77.35,1.22,0,.04,0,.1-.01.17l.93.12c-.08-.3-.12-.55-.12-.75,0-.49.16-.9.47-1.22s.72-.48,1.2-.48c.51,0,.94.17,1.28.52.35.35.52.77.52,1.27,0,.42-.13.78-.4,1.07-.26.29-.69.5-1.29.62l.14,1.06c.72-.07,1.3-.36,1.75-.86M1152.5,533.46h-3.23c-.57,0-1-.06-1.3-.17-.3-.11-.53-.3-.69-.55-.16-.25-.23-.53-.23-.83,0-.4.12-.68.35-.85.23-.18.59-.26,1.06-.26h4.05v-1.06h-3.62c-.64,0-1.11-.15-1.4-.44-.29-.29-.44-.66-.44-1.1,0-.24.06-.46.17-.64.11-.18.26-.31.45-.38.18-.07.49-.1.91-.1h3.93v-1.06h-4.28c-.71,0-1.24.17-1.58.5-.34.34-.51.82-.51,1.44,0,.8.36,1.45,1.09,1.94-.35.12-.61.33-.81.63-.19.3-.28.68-.28,1.15,0,.42.09.79.28,1.12.19.33.43.59.74.78h-.87v.95h6.23v-1.06Z"/>
    <rect class="st11" x="-2.9" y="1000.08" width="20.18" height="251.11"/>
    <path d="M11.85,1249.67c.68-.45,1.19-1.07,1.53-1.85.34-.79.51-1.77.51-2.93,0-.92-.17-1.75-.5-2.48-.34-.73-.81-1.3-1.41-1.69-.61-.39-1.25-.59-1.93-.59s-1.3.18-1.83.54c-.53.36-.96.91-1.31,1.66-.23.52-.51,1.47-.82,2.85-.31,1.39-.62,2.24-.91,2.57-.3.34-.68.5-1.14.5-.53,0-.98-.24-1.36-.71-.38-.47-.56-1.22-.56-2.25s.21-1.74.62-2.25c.42-.51,1.03-.8,1.84-.89l-.12-1.64c-.75.03-1.43.24-2.02.63-.6.39-1.05.95-1.35,1.68-.31.73-.46,1.57-.46,2.53,0,.87.14,1.65.44,2.36.29.71.72,1.25,1.28,1.62.56.37,1.17.56,1.82.56.59,0,1.12-.15,1.6-.45.48-.3.87-.76,1.19-1.37.25-.48.52-1.31.8-2.49.28-1.18.49-1.95.62-2.29.21-.54.46-.93.76-1.16.3-.23.65-.35,1.05-.35s.76.12,1.1.37c.33.24.6.61.79,1.11.19.5.29,1.07.29,1.72,0,.73-.13,1.39-.38,1.98-.26.59-.59,1.02-1,1.3-.41.28-.94.45-1.58.53l.14,1.61c.86-.02,1.63-.26,2.31-.71M12.32,1234.99c0,.24-.04.42-.12.54-.07.13-.18.22-.3.27-.13.06-.42.08-.87.08h-5.44v-1.59h-1.23v1.59H1.12l.94,1.57h2.3v1.16h1.23v-1.16h5.35c.95,0,1.57-.06,1.86-.19.29-.13.53-.35.71-.67.18-.32.27-.76.27-1.34,0-.35-.04-.75-.14-1.2l-1.39.23c.04.28.06.52.06.69"/>
    <path d="M13.67,1225.18H4.37v1.58h4.99c.79,0,1.4.09,1.81.26s.75.47.99.88c.24.42.36.86.36,1.34s-.12.87-.35,1.19c-.24.32-.56.53-.98.63-.28.07-.84.1-1.67.1h-5.16v1.59h5.76c.67,0,1.16-.03,1.47-.1.46-.09.85-.26,1.17-.49.32-.23.58-.59.79-1.06.21-.48.32-.99.32-1.54,0-1.25-.53-2.23-1.58-2.96h1.37v-1.42ZM12.13,1217.25c.3.41.45.9.45,1.48,0,.78-.27,1.43-.81,1.95-.54.52-1.32.81-2.35.87v-6.96c-.19,0-.33,0-.42,0-1.53,0-2.72.39-3.57,1.18-.85.79-1.27,1.81-1.27,3.06s.43,2.34,1.3,3.14c.86.81,2.08,1.21,3.64,1.21s2.69-.4,3.53-1.2c.84-.8,1.25-1.88,1.25-3.25,0-1.08-.26-1.97-.79-2.67-.52-.69-1.26-1.17-2.22-1.43l-.2,1.63c.67.24,1.15.57,1.46.98M6.18,1220.65c-.49-.5-.73-1.11-.73-1.83,0-.8.3-1.46.91-1.96.39-.33.98-.53,1.76-.6v5.21c-.81-.05-1.46-.33-1.94-.82M4.37,1212.18h1.8v-1.8h-1.8v1.8ZM11.87,1212.18h1.8v-1.8h-1.8v1.8ZM1.63,1195.93c-.57.65-.85,1.48-.85,2.49,0,1.36.49,2.44,1.47,3.25,1.12.92,2.93,1.38,5.41,1.38,2.21,0,3.81-.42,4.77-1.25.97-.83,1.45-1.91,1.45-3.23,0-.78-.18-1.47-.55-2.08-.37-.61-.9-1.09-1.59-1.43-.69-.35-1.44-.53-2.25-.53-1.22,0-2.22.37-3,1.11-.77.74-1.16,1.64-1.16,2.69,0,.6.14,1.18.42,1.73.28.55.71,1.02,1.29,1.4-1.28,0-2.27-.16-2.97-.45-.69-.29-1.22-.68-1.58-1.18-.28-.38-.42-.83-.42-1.33,0-.63.22-1.15.67-1.58.28-.26.73-.46,1.35-.6l-.13-1.57c-.99.13-1.78.52-2.34,1.16M7.5,1200.48c-.51-.5-.77-1.1-.77-1.82s.26-1.32.77-1.79c.51-.48,1.21-.71,2.1-.71s1.65.24,2.19.72c.54.48.81,1.05.81,1.72,0,.46-.13.89-.39,1.31-.26.42-.64.74-1.13.97-.5.23-1.02.35-1.56.35-.83,0-1.5-.25-2.01-.75M11.87,1192.05h1.8v-1.8h-1.8v1.8ZM13.67,1182.41c0-.82-.07-1.51-.21-2.08-.14-.56-.35-1.03-.63-1.41s-.68-.69-1.19-.95c-.52-.25-1.08-.38-1.68-.38-.75,0-1.39.21-1.94.63-.55.42-.94,1.02-1.16,1.8-.3-.6-.69-1.05-1.18-1.35-.48-.3-1-.45-1.55-.45-.59,0-1.16.17-1.69.51-.54.34-.94.8-1.2,1.4-.26.59-.39,1.38-.39,2.37v4.84h12.84v-4.91ZM2.35,1185.62v-2.57c0-.92.06-1.58.18-1.96s.34-.67.67-.88c.32-.21.7-.31,1.12-.31.45,0,.82.11,1.12.33.3.22.51.55.64.98.1.33.15.87.15,1.63v2.78h-3.88ZM7.74,1185.62v-2.98c0-.82.07-1.45.21-1.89.14-.44.39-.78.74-1.02.36-.25.77-.37,1.25-.37.41,0,.77.08,1.08.26.31.17.55.38.71.65.16.26.28.59.35.99.04.22.06.61.06,1.16v3.21h-4.41ZM11.87,1174.96h1.8v-1.8h-1.8v1.8ZM12.56,1169.54c.89-.71,1.33-1.68,1.33-2.93,0-.94-.25-1.72-.76-2.34-.5-.62-1.22-1.08-2.15-1.39-.92-.31-2.14-.47-3.64-.47-1.27,0-2.29.1-3.04.29-.75.19-1.39.46-1.91.8-.52.34-.92.77-1.2,1.29-.28.52-.42,1.13-.42,1.82,0,.94.25,1.72.75,2.33.5.62,1.22,1.09,2.14,1.4.92.31,2.15.47,3.67.47,2.41,0,4.15-.42,5.22-1.27M3,1168.37c-.61-.43-.92-1.01-.92-1.74s.35-1.35,1.04-1.85c.69-.49,2.1-.74,4.21-.74s3.5.25,4.2.74c.7.5,1.05,1.11,1.05,1.83s-.35,1.34-1.05,1.83c-.69.49-2.1.74-4.2.74s-3.55-.27-4.34-.82M11.87,1159.88h1.8v-1.8h-1.8v1.8ZM2.51,1149.31c.91.8,2.03,1.56,3.36,2.27,1.33.71,2.71,1.26,4.14,1.64,1.43.38,2.65.58,3.66.6v-1.63c-1.28-.09-2.45-.29-3.53-.61-1.52-.44-3-1.06-4.45-1.87-1.44-.8-2.6-1.62-3.47-2.44H1v8.34h1.51v-6.31ZM13.67,1143.93c.53.02.94.11,1.22.27.28.16.5.4.64.74l.68-.44c-.22-.51-.54-.88-.94-1.12-.41-.23-.94-.35-1.6-.35h-1.8v1.8h1.8v-.9Z"/>
    <path d="M1.63,1127.75c-.57.65-.85,1.48-.85,2.49,0,1.36.49,2.44,1.47,3.24,1.13.92,2.93,1.38,5.41,1.38,2.22,0,3.81-.42,4.78-1.25.96-.83,1.45-1.91,1.45-3.22,0-.77-.18-1.47-.55-2.08-.37-.61-.9-1.09-1.59-1.44-.69-.35-1.44-.53-2.24-.53-1.23,0-2.23.37-3,1.11-.77.74-1.16,1.64-1.16,2.7,0,.6.14,1.18.42,1.73.28.55.71,1.02,1.29,1.4-1.29,0-2.28-.16-2.97-.45-.69-.28-1.22-.68-1.58-1.18-.28-.38-.42-.82-.42-1.33,0-.63.23-1.15.68-1.58.28-.26.73-.46,1.35-.6l-.12-1.57c-1,.13-1.78.52-2.35,1.17M7.5,1132.3c-.51-.5-.76-1.1-.76-1.82s.26-1.32.76-1.79c.51-.48,1.21-.71,2.1-.71s1.65.24,2.19.72c.54.48.8,1.05.8,1.72,0,.46-.13.89-.39,1.31-.26.42-.64.74-1.13.97-.5.23-1.02.35-1.56.35-.83,0-1.5-.25-2.01-.75M11.88,1123.82h1.8v-1.8h-1.8v1.8Z"/>
    <path d="M13.67,1114.18c0-.82-.07-1.51-.21-2.08-.14-.57-.35-1.04-.63-1.41-.28-.37-.68-.69-1.19-.94-.52-.26-1.08-.38-1.68-.38-.75,0-1.39.21-1.94.63-.55.42-.93,1.02-1.16,1.8-.3-.61-.69-1.05-1.17-1.35-.49-.3-1-.45-1.55-.45-.59,0-1.15.17-1.69.5s-.94.8-1.2,1.4c-.26.59-.39,1.39-.39,2.37v4.84h12.84v-4.91ZM2.35,1117.39v-2.57c0-.92.06-1.58.18-1.96.12-.38.34-.67.67-.88.33-.2.7-.31,1.12-.31.45,0,.82.11,1.12.33.3.22.51.55.64.98.1.33.15.87.15,1.62v2.78h-3.88ZM7.74,1117.39v-2.98c0-.82.07-1.45.21-1.88.14-.43.39-.78.75-1.02.35-.25.77-.37,1.25-.37.41,0,.77.08,1.08.25.31.17.55.39.71.65.16.26.28.59.35.98.04.22.06.61.06,1.16v3.21h-4.41ZM11.88,1106.89h1.8v-1.8h-1.8v1.8Z"/>
    <path d="M12.56,1101.46c.89-.71,1.33-1.68,1.33-2.93,0-.94-.25-1.73-.76-2.34-.5-.62-1.22-1.08-2.15-1.39-.92-.31-2.14-.46-3.65-.46-1.27,0-2.28.09-3.03.29-.75.19-1.39.46-1.91.8-.52.34-.92.77-1.2,1.29-.28.52-.42,1.13-.42,1.82,0,.94.25,1.72.75,2.33.5.62,1.22,1.09,2.14,1.4.93.31,2.15.47,3.66.47,2.41,0,4.15-.42,5.22-1.27M3,1100.29c-.61-.44-.92-1.02-.92-1.74s.35-1.36,1.04-1.85,2.1-.74,4.21-.74,3.5.25,4.2.74c.7.49,1.05,1.11,1.05,1.83s-.35,1.34-1.04,1.83c-.7.5-2.1.74-4.21.74s-3.55-.27-4.34-.81M11.88,1091.4h1.8v-1.8h-1.8v1.8Z"/>
    <path d="M13.05,1085.85c.56-.64.84-1.46.84-2.47,0-.95-.26-1.78-.76-2.48-.51-.71-1.25-1.24-2.22-1.6-.97-.36-2.28-.54-3.92-.54s-2.78.18-3.61.54c-.83.36-1.47.89-1.92,1.58-.45.69-.68,1.46-.68,2.3,0,1.16.4,2.12,1.19,2.9.79.77,1.84,1.15,3.14,1.15s2.28-.37,3.05-1.11c.77-.74,1.16-1.64,1.16-2.71,0-.64-.16-1.23-.47-1.78-.31-.55-.72-.98-1.22-1.3.14,0,.25,0,.32,0,.65,0,1.3.08,1.93.24.63.16,1.13.35,1.5.59.37.24.67.54.89.9.22.37.33.79.33,1.28,0,.57-.16,1.04-.48,1.4-.32.36-.84.61-1.55.74l.14,1.52c1.01-.13,1.79-.52,2.35-1.16M7.16,1081.23c.51.47.76,1.08.76,1.81s-.26,1.34-.76,1.83c-.51.49-1.18.74-1.99.74-.91,0-1.65-.26-2.22-.78-.57-.52-.86-1.13-.86-1.84s.27-1.26.8-1.74c.53-.48,1.25-.72,2.15-.72s1.61.23,2.12.71M13.67,1075.44c.53.02.94.11,1.22.27.28.16.5.4.64.74l.67-.44c-.22-.51-.53-.88-.94-1.12-.41-.23-.94-.35-1.6-.35h-1.8v1.8h1.8v-.9ZM1.63,1060.07c-.56.65-.85,1.48-.85,2.49,0,1.36.49,2.44,1.47,3.25,1.12.92,2.93,1.38,5.41,1.38,2.22,0,3.81-.42,4.78-1.25.97-.83,1.45-1.91,1.45-3.23,0-.77-.19-1.46-.55-2.08-.37-.61-.9-1.09-1.59-1.44-.69-.35-1.44-.52-2.25-.52-1.23,0-2.23.37-3,1.11-.77.74-1.16,1.64-1.16,2.69,0,.61.14,1.18.42,1.73.28.55.71,1.02,1.29,1.4-1.28-.01-2.27-.16-2.97-.45s-1.22-.68-1.59-1.18c-.28-.38-.42-.82-.42-1.33,0-.63.22-1.16.67-1.58.28-.26.73-.46,1.35-.6l-.13-1.57c-.99.13-1.78.52-2.35,1.16M7.5,1064.62c-.51-.5-.76-1.11-.76-1.82s.26-1.32.76-1.79c.51-.48,1.21-.71,2.1-.71s1.65.24,2.19.72c.54.48.81,1.05.81,1.72,0,.46-.13.9-.39,1.31-.26.42-.64.74-1.14.97-.5.23-1.01.35-1.56.35-.83,0-1.5-.25-2.01-.75M11.87,1056.18h1.8v-1.8h-1.8v1.8ZM13.67,1046.55c0-.82-.07-1.52-.21-2.08-.14-.56-.35-1.04-.63-1.41-.28-.37-.68-.69-1.2-.95-.51-.25-1.07-.38-1.67-.38-.75,0-1.39.21-1.94.63-.55.42-.94,1.02-1.16,1.79-.3-.6-.69-1.05-1.17-1.35-.49-.3-1-.45-1.55-.45-.59,0-1.16.17-1.7.51-.54.34-.94.8-1.2,1.4-.26.6-.39,1.39-.39,2.37v4.83h12.84v-4.91ZM2.35,1049.75v-2.57c0-.93.06-1.58.18-1.96.12-.38.34-.68.66-.88.33-.21.7-.31,1.13-.31.45,0,.82.11,1.12.33.3.22.51.55.64.98.1.33.15.87.15,1.63v2.78h-3.88ZM7.74,1049.75v-2.98c0-.82.07-1.45.21-1.88.14-.44.39-.78.75-1.03.35-.24.77-.37,1.25-.37.41,0,.77.09,1.08.26.31.17.55.39.71.65.16.26.28.59.35.99.04.22.06.61.06,1.16v3.21h-4.41Z"/>
    <path d="M11.88,1038.79h1.8v-1.8h-1.8v1.8ZM12.56,1033.37c.89-.71,1.33-1.69,1.33-2.93,0-.95-.25-1.73-.76-2.34-.5-.62-1.22-1.08-2.15-1.39-.92-.31-2.14-.47-3.65-.47-1.27,0-2.28.1-3.03.29-.75.2-1.39.46-1.91.8-.52.34-.92.77-1.2,1.29-.28.52-.42,1.13-.42,1.82,0,.94.25,1.72.75,2.33.5.62,1.22,1.09,2.14,1.4.92.31,2.15.47,3.66.47,2.41,0,4.15-.42,5.22-1.27M3,1032.2c-.61-.43-.92-1.01-.92-1.74s.35-1.36,1.04-1.85,2.1-.74,4.21-.74,3.5.25,4.2.74c.7.49,1.05,1.11,1.05,1.83s-.35,1.34-1.04,1.83c-.7.49-2.1.75-4.21.75s-3.55-.28-4.33-.82M11.88,1023.71h1.8v-1.8h-1.8v1.8ZM.78,1013.6v1.02c.56.28,1.12.74,1.72,1.4.59.66,1.09,1.44,1.51,2.32h1.53c-.18-.49-.46-1.05-.82-1.67-.36-.62-.72-1.12-1.08-1.5h10.04v-1.58H.78Z"/>
    <path d="M12.89,1008.13c.67-.75,1.01-1.68,1.01-2.82,0-1.25-.39-2.29-1.17-3.11-.78-.82-1.73-1.23-2.85-1.23-.83,0-1.52.21-2.07.63-.55.43-.91,1.02-1.09,1.78-.27-.59-.63-1.03-1.09-1.33-.45-.3-.96-.45-1.51-.45-.58,0-1.14.16-1.65.47-.52.31-.93.76-1.23,1.36-.3.59-.45,1.24-.45,1.94,0,1.02.29,1.87.87,2.56.58.69,1.4,1.12,2.46,1.32l.28-1.58c-.77-.12-1.35-.38-1.74-.79-.38-.41-.58-.92-.58-1.54s.19-1.13.57-1.52c.38-.39.86-.59,1.44-.59.73,0,1.27.27,1.62.81.35.54.53,1.15.53,1.82,0,.07,0,.15-.02.25l1.39.18c-.12-.44-.17-.82-.17-1.11,0-.73.23-1.33.7-1.81s1.07-.71,1.79-.71c.76,0,1.39.26,1.91.77.51.51.77,1.14.77,1.88,0,.62-.2,1.16-.59,1.6-.4.44-1.04.75-1.93.93l.21,1.58c1.07-.1,1.94-.53,2.61-1.28"/>
    <line class="st2" x1="438.43" y1="996.12" x2="566.33" y2="940.99"/>
    <line class="st2" x1="438.43" y1="940.99" x2="566.33" y2="996.12"/>
  </g>
</svg>