<?xml version="1.0" encoding="UTF-8"?>
<svg id="Layer_1" xmlns="http://www.w3.org/2000/svg" xmlns:xlink="http://www.w3.org/1999/xlink" version="1.1" viewBox="0 0 1200 1697.14">
  <!-- Generator: Adobe Illustrator 29.6.0, SVG Export Plug-In . SVG Version: 2.1.1 Build 207)  -->
  <defs>
    <style>
      .st0, .st1, .st2, .st3 {
        fill: none;
      }

      .st1 {
        stroke: #0d0e1c;
      }

      .st1, .st2, .st3 {
        stroke-linecap: round;
        stroke-linejoin: round;
      }

      .st1, .st3 {
        stroke-width: .08px;
      }

      .st2 {
        stroke-width: .14px;
      }

      .st2, .st3 {
        stroke: #000;
      }

      .st4 {
        clip-path: url(#clippath-1);
      }

      .st5 {
        clip-path: url(#clippath-3);
      }

      .st6 {
        clip-path: url(#clippath-4);
      }

      .st7 {
        clip-path: url(#clippath-2);
      }

      .st8 {
        clip-path: url(#clippath-7);
      }

      .st9 {
        clip-path: url(#clippath-6);
      }

      .st10 {
        clip-path: url(#clippath-9);
      }

      .st11 {
        clip-path: url(#clippath-8);
      }

      .st12 {
        clip-path: url(#clippath-5);
      }

      .st13 {
        fill: #fff;
      }

      .st14 {
        fill: #ece9e5;
      }

      .st15 {
        fill: #302c35;
      }

      .st16 {
        clip-path: url(#clippath);
      }
    </style>
    <clipPath id="clippath">
      <rect class="st0" x="287.3" y="426.02" width="625.4" height="845.1"/>
    </clipPath>
    <clipPath id="clippath-1">
      <rect class="st0" x="721.69" y="619.72" width="72.58" height="159.65"/>
    </clipPath>
    <clipPath id="clippath-2">
      <rect class="st0" x="287.3" y="426.02" width="625.4" height="845.1"/>
    </clipPath>
    <clipPath id="clippath-3">
      <rect class="st0" x="606.4" y="1110.46" width="39.21" height="28.6"/>
    </clipPath>
    <clipPath id="clippath-4">
      <rect class="st0" x="287.3" y="426.02" width="625.4" height="845.1"/>
    </clipPath>
    <clipPath id="clippath-5">
      <rect class="st0" x="287.3" y="426.02" width="625.4" height="845.1"/>
    </clipPath>
    <clipPath id="clippath-6">
      <rect class="st0" x="674.26" y="1159.98" width="56.78" height="42.08"/>
    </clipPath>
    <clipPath id="clippath-7">
      <rect class="st0" x="287.3" y="426.02" width="625.4" height="845.1"/>
    </clipPath>
    <clipPath id="clippath-8">
      <rect class="st0" x="287.3" y="426.02" width="625.4" height="845.1"/>
    </clipPath>
    <clipPath id="clippath-9">
      <rect class="st0" x="287.3" y="426.02" width="625.4" height="845.1"/>
    </clipPath>
  </defs>
  <rect class="st14" x="360.06" y="798.37" width="452.96" height="427.65"/>
  <rect class="st14" x="360.06" y="571.89" width="452.96" height="46.92"/>
  <rect class="st14" x="468.91" y="618.8" width="344.11" height="179.56"/>
  <rect class="st14" x="465.71" y="467.74" width="249.77" height="104.15"/>
  <rect class="st13" x="504.52" y="1034.88" width="95.52" height="47.69"/>
  <rect class="st13" x="375.92" y="1162.22" width="128.6" height="47.93"/>
  <rect class="st13" x="494.4" y="576.28" width="199.07" height="11.81"/>
  <rect class="st15" x="360.06" y="798.37" width="15.86" height="283.53"/>
  <rect class="st15" x="360.06" y="1153.45" width="15.86" height="72.57"/>
  <rect class="st15" x="375.93" y="1210.15" width="419.55" height="15.87"/>
  <rect class="st15" x="711.43" y="464.62" width="4.05" height="107.26"/>
  <rect class="st15" x="465.71" y="464.61" width="4.05" height="107.27"/>
  <rect class="st15" x="691.73" y="602.6" width="121.3" height="16.2"/>
  <rect class="st15" x="467.73" y="618.8" width="15.87" height="195.77"/>
  <rect class="st15" x="375.93" y="798.37" width="91.81" height="16.2"/>
  <rect class="st15" x="375.93" y="934.06" width="43.88" height="8.1"/>
  <rect class="st15" x="399.89" y="814.57" width="19.91" height="119.49"/>
  <rect class="st15" x="504.52" y="1082.57" width="95.52" height="8.1"/>
  <rect class="st15" x="504.52" y="1090.67" width="11.14" height="119.49"/>
  <rect class="st15" x="579.46" y="1090.67" width="20.59" height="119.49"/>
  <rect class="st15" x="795.47" y="618.8" width="17.55" height="607.21"/>
  <rect class="st15" x="779.61" y="1006.96" width="9.11" height="6.41"/>
  <rect class="st15" x="600.05" y="1012.02" width="5.06" height="198.13"/>
  <rect class="st15" x="605.11" y="1202.05" width="183.61" height="13.72"/>
  <rect class="st15" x="787.37" y="1006.96" width="9.57" height="205.05"/>
  <rect class="st15" x="605.1" y="1012.02" width="1.35" height="190.03"/>
  <rect class="st15" x="600.04" y="1006.96" width="101.09" height="6.41"/>
  <rect class="st15" x="691.73" y="571.89" width="121.3" height="30.72"/>
  <rect class="st15" x="360.06" y="602.6" width="134.34" height="16.2"/>
  <rect class="st15" x="360.06" y="571.89" width="134.34" height="30.72"/>
  <rect class="st15" x="469.74" y="464.62" width="241.67" height="3.71"/>
  <path class="st3" d="M399.89,814.57v119.48M399.89,934.06h-23.96M375.93,855.41v-40.84M579.45,1090.67v119.49M579.45,1210.15h-63.79M515.66,1210.15v-119.49M515.66,1090.67h63.79M375.93,1210.15v-55.69M360.06,1153.45v72.57M375.93,1080.88v-138.73M375.93,934.06v-119.48M375.93,798.37h-15.87M360.06,798.37v137.04M360.06,935.41v146.49M504.52,1210.15h-128.6M375.93,1226.02h173.15M564.94,1226.02h138.39M719.19,1226.02h76.28M688.14,501.01l-13.16,1.35M674.98,502.36l-12.83,3.38M662.15,505.73l-11.81,5.4M650.34,511.13l-10.8,7.43M639.53,518.56l-9.11,9.45M630.42,528.01l-7.76,10.8M622.66,538.81l-5.4,11.82M617.26,550.62l-3.38,12.83M613.88,563.45l-1.35,12.83M688.14,576.27v-75.27M683.08,576.95v4.05M617.6,576.95h65.48M617.6,581v-4.05M683.08,581h-65.48M614.22,588.09h72.23M683.08,576.27h-65.48M683.08,582.69h-65.48M614.22,582.69v5.4M686.45,582.69v5.4M686.45,582.69h-72.23M614.22,582.69v5.4M617.6,582.69h-3.37M617.6,576.27v6.41M610.17,576.27h7.43M610.17,588.09v-11.82M614.22,588.09h-4.05M690.5,576.27v11.82M683.08,576.27h7.43M683.08,582.69v-6.41M686.45,582.69h-3.38M686.45,588.09v-5.4M690.5,588.09h-4.05M499.46,581h105.65M605.11,581v-4.05M605.11,576.95h-105.65M499.46,576.95v4.05M605.11,588.09h-105.65M499.46,576.27h105.65M605.11,588.09h4.05M609.16,588.09v-11.82M609.16,576.27h-4.05M605.11,576.27v11.82M495.41,588.09h4.05M499.46,588.09v-11.82M499.46,576.27h-4.05M495.41,576.27v11.82M469.76,488.18v83.71M711.43,571.89v-83.71M465.71,571.89h4.05M469.76,571.89v-103.55M465.71,464.62h249.67M711.43,468.34v103.55M711.43,571.89h4.05M715.48,571.89v-107.26M465.71,464.62v107.26-107.26ZM442.76,1151.09l-1.35-13.16M441.41,1137.92l-3.71-12.49M437.69,1125.43l-6.41-11.48M431.28,1113.96l-8.1-10.13M423.18,1103.83l-10.13-8.44M413.05,1095.39l-11.47-6.07M401.58,1089.32l-12.49-3.71M389.09,1085.61l-13.16-1.35M375.93,1081.89h-15.87M360.06,1153.45h15.87M375.93,1151.09h66.83M375.93,1147.71v3.37M375.93,1154.46v-1.01M375.93,1151.09h0M375.93,1147.71v-63.46M375.93,1081.89v-1.01M579.45,1090.67l-63.79,119.49M579.45,1210.15v-119.49M579.45,1090.67h-63.79M515.66,1090.67v119.49M515.66,1210.15h63.79M360.06,618.8h8.1M375.93,618.8h12.15M395.84,618.8h71.9M483.6,618.8h10.8M494.4,618.8v-16.2M691.51,618.8h103.96M691.51,602.6v16.2M399.89,814.57l-23.96,119.48M399.89,934.06v-119.48M399.89,814.57h-23.96M375.93,814.57v119.48M376.94,934.06h22.95M483.6,814.57v-195.77M467.73,618.8v179.57M467.73,814.57h15.86M467.73,798.37h-91.81M419.8,814.57h47.93M375.93,942.16h43.88M419.8,942.16v-8.1M419.8,934.06v-119.48M600.04,1082.57h-95.52M504.52,1082.57v8.1M504.52,1090.67v119.49"/>
  <path class="st3" d="M552.11,1082.57h-47.59M600.04,1034.64v22.28M600.04,1082.57h-95.52M813.02,1226.02v-607.21M813.02,1121.38v8.1M375.92,1162.22h1.35M379.64,1162.22h2.36M384.36,1162.22h2.36M389.09,1162.22h2.36M394.15,1162.22h2.36M398.88,1162.22h2.36M403.6,1162.22h2.36M408.33,1162.22h2.36M413.05,1162.22h2.36M417.78,1162.22h2.7M422.84,1162.22h1.01M423.85,1162.22v1.35M423.85,1165.94v2.36M423.85,1170.66v2.36M423.85,1175.39v2.36M423.85,1180.11v2.7M423.85,1185.18v2.36M423.85,1189.9v2.36M423.85,1194.63v2.36M423.85,1199.35v2.36M423.85,1204.08v2.36M423.85,1208.8v1.35M423.85,1210.15h-1.01M420.48,1210.15h-2.7M415.42,1210.15h-2.36M410.69,1210.15h-2.36M405.96,1210.15h-2.36M401.24,1210.15h-2.36M396.51,1210.15h-2.36M391.45,1210.15h-2.36M386.73,1210.15h-2.36M382,1210.15h-2.36M377.27,1210.15h-1.35M494.4,586.4v32.41M483.6,618.8v195.77M483.6,814.57h-18.56M399.89,814.57v119.49M399.89,934.06h-23.96M375.92,942.16v139.73M375.92,1084.26v63.46M375.92,1151.09h0M375.92,1153.45v1.01M375.92,1210.15h128.6M504.52,1210.15v-127.59M504.52,1082.57h95.52M600.04,1056.92v-49.95M779.61,1006.96h1.01M793.78,1006.96h1.69M795.47,1006.96v-388.16M691.51,618.8v-32.41M691.51,586.4h-1.01M610.17,586.4h-1.01M495.41,586.4h-1.01M375.92,1154.46v-1.01M375.92,1151.09h0M375.92,1147.71v-63.46M375.92,1081.89v-1.01M788.72,1006.96h-8.1"/>
  <path class="st3" d="M700.97,1006.96h-100.92M600.04,1006.96v5.06M779.61,1006.96h1.01M600.04,1012.02v70.54M793.78,1006.96h-5.06"/>
  <path class="st3" d="M777.25,933.04l-12.83,1.01M764.42,934.05l-12.49,3.37M751.93,937.43l-11.48,5.4M740.45,942.83l-10.8,7.43M729.65,950.26l-8.77,9.11M720.88,959.37l-7.43,10.47M713.45,969.83l-5.4,11.81M708.05,981.65l-3.38,12.49M704.68,994.13l-1.35,12.83M779.61,1013.37v-6.41M700.96,1006.96v6.41M777.25,1006.96v-73.92M773.87,1006.96h3.37M777.58,1006.96h-74.26M787.37,1202.05v-188.68M606.46,1202.05h115.77M722.23,1202.05h65.14M606.46,1202.05v-188.68M606.46,1013.37h94.51M787.37,1013.37h-7.76"/>
  <path class="st3" d="M607.47,1013.37h4.05M813.02,571.89h-121.51M691.51,571.89v30.72M494.4,571.89h-134.33M494.4,602.6v-30.72M494.4,571.89v8.78M494.4,580.66h1.01M609.16,580.66h1.01M690.5,580.66h1.01M691.51,580.66v-8.78M691.51,580.66h-1.01M610.17,580.66h-1.01M495.41,580.66h-1.01M494.4,586.4v-5.74M691.51,580.66v5.74"/>
  <path class="st3" d="M813.02,1226.02h-452.96M813.02,571.89v654.13M360.06,798.37h107.67M467.73,798.37v-179.56M467.73,618.8h-107.67M360.06,618.8v-46.92"/>
  <g class="st16">
    <path class="st2" d="M310.45,319.76v6.07M231.13,343.38l7.09,16.2M255.77,355.2l-17.55,4.38M227.08,382.87l28.69-27.68M227.08,382.87l4.05-39.49M227.08,382.87l11.14-23.29M549.75,319.76v6.07M390.1,319.76v6.07M469.76,319.76v6.07M549.75,319.76h-239.31M1009.47,1446.09V262.38"/>
    <path d="M958.55,341.15c-.28-.43-.67-.75-1.17-.96-.5-.21-1.11-.32-1.85-.32-.58,0-1.1.11-1.57.32-.47.21-.82.5-1.07.89-.25.38-.37.78-.37,1.21s.11.81.34,1.14c.22.33.58.61,1.05.82.33.15.92.32,1.8.51.88.19,1.42.39,1.62.57.21.19.32.43.32.72,0,.33-.15.62-.45.85-.3.24-.77.36-1.42.36s-1.1-.13-1.42-.39c-.32-.26-.51-.64-.56-1.16l-1.03.07c.02.47.15.9.4,1.27.25.37.6.65,1.06.85.46.19.99.29,1.6.29.55,0,1.04-.09,1.49-.27.45-.18.79-.45,1.02-.81.23-.35.35-.73.35-1.14,0-.37-.09-.71-.29-1-.19-.3-.48-.55-.87-.75-.3-.16-.82-.33-1.57-.5-.75-.18-1.23-.31-1.45-.4-.34-.13-.59-.28-.73-.47-.15-.19-.22-.41-.22-.66s.08-.48.23-.69c.16-.21.39-.37.7-.49.32-.12.68-.18,1.09-.18.46,0,.88.08,1.25.24.37.16.64.37.82.62.18.26.29.59.34.99l1.02-.09c-.02-.54-.16-1.02-.45-1.45M949.84,340v2.79l-1.33,1.29-2.9-4.08h-1.42l3.56,4.79-3.41,3.26h1.46l4.04-3.99v3.99h1.08v-8.06h-1.08Z"/>
    <path d="M934.94,345.67h5.37v-.92h-5.37v.92ZM934.94,343.22h5.37v-.92h-5.37v.92Z"/>
    <path d="M930.2,341.15c-.28-.43-.67-.75-1.17-.96-.5-.21-1.11-.32-1.85-.32-.58,0-1.1.1-1.57.31-.47.21-.82.51-1.07.89-.25.38-.37.78-.37,1.21s.11.81.34,1.14c.23.33.58.61,1.05.82.33.15.92.32,1.8.51.88.2,1.42.39,1.62.57.21.19.32.43.32.72,0,.34-.15.62-.45.86-.3.23-.77.35-1.43.35s-1.1-.13-1.42-.39-.51-.64-.56-1.16l-1.03.08c.02.47.15.9.4,1.27.25.37.61.66,1.06.85.46.19.99.29,1.6.29.55,0,1.04-.09,1.49-.27.45-.18.79-.45,1.02-.8.23-.36.35-.73.35-1.14,0-.37-.1-.7-.29-1-.19-.3-.48-.55-.87-.75-.3-.15-.82-.32-1.57-.5-.75-.18-1.23-.31-1.45-.39-.34-.13-.59-.29-.73-.48-.15-.19-.22-.41-.22-.66s.07-.48.23-.69c.16-.21.39-.38.7-.5.32-.12.68-.18,1.09-.18.46,0,.88.08,1.25.24s.64.37.82.63c.18.26.29.59.34.99l1.02-.09c-.01-.54-.16-1.02-.45-1.45"/>
    <path d="M921.98,340.01v2.31l-.71.67-1.95-2.99h-1.23l2.48,3.67-2.26,2.17h1.3l2.37-2.38v4.6h1v-8.06h-1ZM912.86,340.01h-1.04c.12.22.21.46.25.7.05.24.07.83.07,1.74v1.32c0,.44.02.75.05.91.06.27.16.49.31.67.15.18.38.33.69.44.31.12.72.18,1.23.18s.95-.07,1.33-.21c.38-.14.68-.33.88-.59.21-.25.35-.59.44-1l-.98-.13c-.11.42-.27.7-.5.87-.22.16-.57.24-1.04.24-.5,0-.88-.11-1.14-.33-.19-.17-.28-.45-.28-.85,0-.04,0-.12,0-.26.38-.13.98-.24,1.78-.34.39-.05.69-.09.89-.15.27-.07.5-.18.72-.33.21-.14.38-.33.52-.57.13-.24.2-.5.2-.78,0-.49-.17-.89-.52-1.2s-.85-.47-1.49-.47c-.39,0-.76.07-1.1.19-.34.13-.7.35-1.07.66-.03-.27-.1-.51-.2-.72M913.14,342.57c0-.44.05-.77.16-.99.14-.29.36-.52.66-.68.3-.17.64-.25,1.03-.25s.68.09.88.26c.2.18.31.39.31.66,0,.18-.05.33-.14.47-.09.14-.22.25-.39.33-.17.07-.46.14-.87.2-.73.1-1.27.22-1.63.37v-.36Z"/>
    <path d="M909.83,340v2.31l-.71.67-1.95-2.99h-1.23l2.48,3.67-2.25,2.16h1.29l2.37-2.38v4.6h1v-8.06h-1ZM903.35,340.85c.15,0,.26.03.34.07.08.05.14.11.17.19.04.08.05.26.05.54v3.41h-1.01v.77h1.01v2.04l.99-.59v-1.45h.73v-.77h-.73v-3.36c0-.6-.04-.98-.12-1.17-.08-.19-.22-.34-.42-.45-.2-.11-.48-.17-.84-.17-.22,0-.47.03-.76.09l.14.88c.18-.03.33-.04.44-.04"/>
    <path d="M957.5,326.84v3.66h-3.82v.95h3.82v2.49h-4.41v.95h5.49v-8.06h-1.08ZM951.81,327.98c-.28-.43-.67-.75-1.17-.96-.5-.21-1.11-.32-1.85-.32-.58,0-1.1.1-1.57.31-.46.21-.82.51-1.07.89-.25.38-.37.78-.37,1.21s.11.81.34,1.14c.23.33.58.61,1.05.83.33.14.92.32,1.8.51.88.2,1.42.39,1.62.57.21.19.32.43.32.72,0,.33-.15.62-.45.85-.3.23-.77.35-1.43.35s-1.1-.13-1.42-.39c-.32-.26-.51-.64-.56-1.16l-1.03.08c.02.47.15.9.4,1.27.25.37.61.66,1.06.85s.99.29,1.6.29c.55,0,1.04-.09,1.49-.27.45-.19.79-.45,1.02-.81.23-.35.35-.73.35-1.14,0-.37-.1-.7-.29-1-.19-.3-.48-.55-.87-.75-.3-.16-.82-.33-1.57-.5-.75-.18-1.23-.31-1.45-.4-.34-.13-.59-.28-.73-.48-.15-.19-.22-.41-.22-.66s.07-.48.23-.69c.16-.21.39-.38.7-.5.32-.12.68-.18,1.09-.18.46,0,.88.08,1.25.24s.64.37.82.63c.18.26.29.59.34.99l1.02-.09c-.01-.54-.16-1.02-.45-1.45"/>
    <path d="M935.96,332.5h5.37v-.92h-5.37v.92ZM935.96,330.06h5.37v-.92h-5.37v.92Z"/>
    <polygon points="930.17 326.84 930.17 330.5 926.35 330.5 926.35 331.45 930.17 331.45 930.17 333.95 925.75 333.95 925.75 334.9 931.25 334.9 931.25 326.84 930.17 326.84"/>
    <path d="M923.94,327.5c-.51-.52-1.18-.79-2-.79-.51,0-.99.12-1.43.36-.44.24-.76.57-.99,1-.23.43-.34,1.02-.34,1.77,0,.93.26,1.65.77,2.18.52.53,1.18.79,1.99.79.73,0,1.34-.22,1.85-.65.61-.52.91-1.32.91-2.4,0-.98-.25-1.74-.76-2.26M923.19,331.44c-.33.37-.74.55-1.24.55s-.9-.19-1.24-.56c-.33-.37-.5-.92-.5-1.64,0-.77.16-1.34.49-1.71.33-.38.75-.56,1.24-.56s.91.19,1.24.56c.33.37.49.93.49,1.68s-.17,1.31-.49,1.68M917.28,326.84v3.05c0,.42-.06.81-.17,1.16-.07.23-.2.41-.37.54-.18.13-.37.2-.59.2-.24,0-.49-.07-.73-.21l-.34.92c.35.21.69.32,1.03.32.23,0,.45-.07.64-.2.19-.13.4-.4.63-.82v.89h.9v-5.84h-1Z"/>
    <path d="M911.13,327.81c.26-.19.57-.28.94-.28.49,0,.9.17,1.23.51.33.34.51.83.55,1.48h-4.39c0,.11,0,.2,0,.26,0,.97.25,1.71.75,2.24.5.53,1.14.8,1.93.8s1.47-.27,1.99-.81c.51-.54.77-1.31.77-2.29s-.25-1.69-.76-2.21c-.51-.53-1.19-.79-2.05-.79-.68,0-1.24.17-1.69.5-.44.33-.74.79-.9,1.39l1.03.13c.15-.42.35-.72.62-.91M913.27,331.54c-.31.31-.7.46-1.16.46-.51,0-.92-.19-1.24-.57-.21-.25-.33-.62-.38-1.11h3.29c-.03.51-.21.91-.52,1.22M907.76,327.18c-.4-.32-.99-.47-1.75-.47-.46,0-.88.08-1.24.24-.37.16-.65.38-.84.68-.19.29-.29.6-.29.93s.08.62.24.85c.16.23.38.4.66.52.28.12.77.27,1.48.46.49.13.78.22.88.25.18.07.3.16.38.27.08.1.12.22.12.35,0,.2-.1.38-.29.53-.2.15-.52.22-.98.22-.39,0-.69-.08-.9-.25-.21-.17-.34-.4-.39-.71l-.97.13c.06.38.18.68.34.9.17.22.43.41.77.54.35.13.76.2,1.22.2.31,0,.6-.04.87-.12.27-.08.48-.18.63-.29.21-.15.37-.33.49-.55.12-.22.18-.46.18-.72,0-.28-.07-.55-.22-.78-.15-.23-.36-.42-.64-.55-.28-.13-.79-.29-1.52-.48-.54-.14-.89-.25-1.02-.33-.2-.13-.29-.31-.29-.53,0-.25.11-.47.33-.65.22-.19.56-.28,1.02-.28s.81.1,1.06.31c.25.21.41.51.47.9l.99-.16c-.11-.62-.37-1.09-.77-1.4M901.38,334.9h1v-8.06h-1v8.06ZM895.7,326.84h-1.04c.13.22.21.46.26.7.04.24.06.83.06,1.74v1.32c0,.44.02.74.05.91.06.27.17.5.31.67.15.18.38.33.69.44.31.12.72.18,1.22.18s.95-.07,1.34-.21c.38-.14.68-.33.88-.59.21-.25.35-.59.44-1l-.98-.13c-.11.42-.27.7-.5.87-.22.17-.57.24-1.04.24-.5,0-.88-.11-1.14-.34-.19-.16-.28-.45-.28-.85,0-.04,0-.12,0-.26.38-.13.98-.24,1.78-.34.39-.05.69-.1.89-.15.27-.07.5-.18.72-.32.21-.15.38-.33.52-.57.13-.24.2-.5.2-.78,0-.49-.17-.89-.52-1.2s-.85-.47-1.49-.47c-.39,0-.76.06-1.1.19-.34.13-.7.35-1.07.66-.03-.27-.1-.51-.2-.72M895.98,329.41c0-.44.06-.77.16-.99.14-.29.36-.52.66-.69.3-.16.64-.25,1.03-.25s.68.09.88.26c.2.18.3.39.3.66,0,.17-.04.33-.14.47-.09.14-.22.25-.39.32-.17.07-.46.14-.87.2-.72.1-1.27.22-1.63.37v-.36ZM898.07,333.46c-.2-.2-.43-.29-.71-.29s-.5.1-.7.29c-.2.2-.3.44-.3.72s.1.52.3.71.43.29.7.29.5-.1.7-.29.3-.42.3-.69c0-.29-.1-.54-.29-.74M897.77,334.61c-.12.11-.25.17-.41.17s-.3-.06-.42-.18c-.11-.12-.17-.26-.17-.43s.06-.3.17-.42c.12-.12.25-.17.41-.17s.3.06.41.17c.12.12.18.26.18.44,0,.16-.06.3-.18.42M889.91,327.81c.26-.19.57-.28.94-.28.49,0,.9.17,1.23.51.33.34.51.83.55,1.48h-4.4c0,.11,0,.2,0,.26,0,.97.25,1.71.75,2.24.5.53,1.14.8,1.93.8s1.47-.27,1.99-.81c.51-.54.76-1.31.76-2.29s-.25-1.69-.76-2.21c-.5-.53-1.19-.79-2.05-.79-.68,0-1.25.17-1.69.5-.44.33-.74.79-.9,1.39l1.03.13c.15-.42.36-.72.62-.91M892.06,331.54c-.31.31-.7.46-1.16.46-.5,0-.92-.19-1.24-.57-.21-.25-.33-.62-.38-1.11h3.29c-.04.51-.21.91-.52,1.22"/>
    <path d="M885.13,327.69c.15,0,.26.03.34.07.08.05.14.11.17.19.03.08.05.26.05.54v3.41h-1v.77h1v2.04l.99-.59v-1.45h.73v-.77h-.73v-3.36c0-.6-.04-.99-.12-1.17-.08-.18-.22-.33-.42-.45s-.48-.17-.84-.17c-.22,0-.47.03-.75.09l.14.87c.18-.03.33-.04.44-.04M880.43,327.18c-.4-.32-.98-.47-1.75-.47-.46,0-.88.08-1.25.24-.36.16-.64.38-.84.67-.2.29-.29.6-.29.93s.08.62.24.85c.16.23.38.4.66.52.28.12.77.27,1.48.46.49.14.78.22.88.26.18.07.3.15.39.26.08.1.12.21.12.35,0,.2-.1.38-.29.53s-.53.22-.98.22c-.39,0-.69-.08-.9-.25-.21-.17-.34-.4-.39-.7l-.98.13c.07.38.18.68.35.9s.42.4.77.54c.35.13.76.2,1.22.2.31,0,.59-.04.86-.12.27-.08.48-.18.63-.29.21-.15.37-.33.49-.55.12-.22.18-.46.18-.72,0-.29-.07-.55-.22-.78-.14-.24-.36-.42-.64-.56-.28-.13-.79-.29-1.52-.48-.54-.13-.88-.25-1.02-.34-.2-.13-.3-.31-.3-.53,0-.25.11-.47.33-.65.22-.19.56-.28,1.02-.28s.81.11,1.06.32c.25.21.41.51.46.9l.99-.15c-.11-.62-.37-1.09-.77-1.4"/>
    <path d="M873.71,326.84v2.31l-.7.67-1.95-2.99h-1.23l2.48,3.67-2.25,2.17h1.29l2.36-2.38v4.6h1v-8.06h-1ZM864.93,326.84h-1.04c.13.22.21.46.25.7.04.25.06.83.06,1.75v1.32c0,.44.02.74.05.91.06.27.16.5.31.67.15.18.38.33.69.44.31.12.72.18,1.23.18s.95-.07,1.33-.21c.39-.14.68-.34.88-.59.21-.25.35-.59.44-1l-.98-.13c-.11.41-.27.7-.5.87-.22.16-.57.24-1.04.24-.5,0-.88-.11-1.14-.33-.19-.17-.28-.45-.28-.85,0-.04,0-.12,0-.26.38-.13.97-.25,1.78-.35.4-.05.69-.09.89-.15.27-.07.51-.18.72-.33.21-.14.39-.33.52-.57.13-.23.2-.49.2-.78,0-.49-.17-.89-.52-1.2-.35-.31-.85-.47-1.49-.47-.39,0-.76.07-1.1.19-.34.13-.7.35-1.07.66-.03-.27-.09-.51-.2-.72M865.22,329.41c0-.44.05-.77.16-.99.14-.29.36-.52.66-.69.3-.17.64-.25,1.03-.25s.69.09.89.26c.2.18.3.39.3.66,0,.17-.05.33-.14.47-.09.14-.22.25-.39.32-.17.07-.46.14-.87.2-.72.1-1.27.23-1.63.37v-.36Z"/>
    <path d="M861.98,327.57c-.4-.57-.94-.86-1.64-.86s-1.3.27-1.8.82c-.5.55-.75,1.32-.75,2.32,0,.42.06.82.18,1.19.12.37.28.68.49.95.21.26.48.47.8.61.32.15.67.22,1.03.22.65,0,1.19-.26,1.62-.79v2.88h1v-8.06h-.93v.73ZM861.52,331.43c-.32.37-.69.56-1.13.56s-.8-.18-1.11-.54c-.31-.36-.46-.93-.46-1.69s.16-1.3.48-1.68c.32-.38.69-.56,1.13-.56.54,0,.96.25,1.27.76.19.31.29.82.29,1.52s-.16,1.25-.48,1.63"/>
    <path d="M551.18,327.88c-.45-.56-1.06-.83-1.85-.83-.6,0-1.09.16-1.48.48-.39.32-.68.76-.88,1.34-.2.58-.29,1.34-.29,2.29,0,.8.06,1.43.18,1.9.12.47.29.87.51,1.2.21.33.49.58.81.76.33.17.71.26,1.15.26.59,0,1.08-.15,1.47-.47.39-.31.69-.76.88-1.34.2-.58.29-1.35.29-2.3,0-1.51-.27-2.61-.8-3.28M550.44,333.88c-.28.38-.64.58-1.1.58s-.85-.22-1.17-.65-.47-1.32-.47-2.64.16-2.2.47-2.64.7-.66,1.16-.66.84.22,1.16.65c.31.44.47,1.32.47,2.64s-.17,2.23-.52,2.72M397.48,328.13c-.11.18-.25.36-.42.53-.17.18-.55.52-1.15,1.02-.72.6-1.23,1.07-1.54,1.42-.31.35-.53.67-.67.98-.13.31-.2.63-.2.95,0,.63.23,1.17.68,1.6.46.43,1.08.64,1.86.64s1.39-.2,1.85-.59c.46-.4.73-.98.8-1.74l-1.03-.11c0,.51-.15.9-.44,1.19-.29.29-.68.43-1.16.43-.45,0-.82-.13-1.11-.4-.28-.27-.42-.6-.42-.99s.16-.77.47-1.19c.31-.42.91-.99,1.79-1.71.57-.46,1.01-.87,1.31-1.22.3-.35.52-.71.66-1.07.09-.22.12-.45.12-.69h-5.38v.95h3.99Z"/>
    <path d="M391.39,327.18v3.03c0,.53-.05.94-.16,1.22-.11.28-.28.5-.52.64-.24.15-.5.22-.78.22-.37,0-.64-.11-.8-.33-.17-.22-.24-.55-.24-.99v-3.79h-1v3.39c0,.6-.14,1.04-.41,1.31-.28.27-.62.41-1.04.41-.23,0-.43-.06-.6-.16-.17-.11-.29-.25-.35-.42-.06-.17-.1-.46-.1-.86v-3.68h-1v4.01c0,.66.16,1.16.47,1.48.31.32.76.48,1.35.48.74,0,1.35-.34,1.82-1.02.11.32.31.57.59.75.28.18.64.27,1.08.27.39,0,.74-.08,1.05-.26.31-.17.55-.4.74-.69v.82h.9v-5.84h-1Z"/>
    <path d="M472.28,335.27h.65c.17-.35.47-.71.89-1.08.42-.37.9-.68,1.46-.94v-.95c-.31.11-.66.28-1.05.51s-.7.46-.95.68v-6.31h-1v8.09ZM468.35,327.18v3.03c0,.53-.05.94-.16,1.22-.11.28-.28.5-.52.64-.24.15-.5.22-.78.22-.37,0-.63-.11-.8-.33-.17-.22-.24-.55-.24-.99v-3.79h-1v3.39c0,.6-.14,1.04-.41,1.31-.28.27-.62.41-1.03.41-.23,0-.43-.06-.6-.16-.17-.11-.28-.25-.35-.42-.07-.17-.1-.46-.1-.86v-3.68h-.99v4.01c0,.66.16,1.16.47,1.48.31.32.76.48,1.35.48.75,0,1.35-.34,1.82-1.02.11.32.31.57.59.75.28.18.64.27,1.07.27.39,0,.74-.08,1.05-.26.31-.17.55-.4.74-.69v.82h.89v-5.84h-1Z"/>
    <path d="M647.1,327.18v6.86l-2.35-6.86h-.97l-2.36,6.74v-6.74h-1.04v8.06h1.45l1.94-5.61c.2-.57.34-1,.44-1.29.08.26.21.66.39,1.19l1.92,5.71h1.62v-8.06h-1.04ZM635.08,327.18h-1.04c.13.22.21.46.25.7.04.24.06.83.06,1.74v1.32c0,.44.02.75.05.91.06.27.16.49.31.67.15.18.38.33.69.44.31.12.72.18,1.23.18s.95-.07,1.34-.21c.39-.14.68-.33.88-.59.21-.25.35-.59.44-1l-.98-.13c-.11.41-.27.7-.49.87-.22.16-.57.24-1.04.24-.5,0-.88-.11-1.14-.34-.19-.16-.28-.45-.28-.85,0-.04,0-.12,0-.26.38-.13.97-.25,1.78-.34.4-.05.69-.1.89-.15.26-.07.5-.18.72-.33.21-.14.38-.33.51-.57.13-.23.2-.5.2-.78,0-.49-.18-.89-.52-1.2-.35-.32-.85-.47-1.49-.47-.39,0-.76.07-1.1.19-.34.13-.7.35-1.07.66-.03-.27-.1-.51-.2-.72M635.36,329.75c0-.44.06-.76.16-.99.14-.29.36-.52.66-.68.3-.17.64-.25,1.03-.25s.68.09.88.26c.2.18.3.4.3.66,0,.17-.05.33-.14.47-.09.14-.22.25-.39.32-.17.07-.46.14-.87.2-.72.1-1.27.22-1.63.37v-.36ZM637.45,333.8c-.2-.2-.43-.29-.71-.29s-.5.09-.7.29c-.2.19-.29.43-.29.71s.1.52.29.71c.2.2.43.3.7.3s.5-.1.7-.29c.2-.2.3-.43.3-.69,0-.29-.1-.54-.29-.73M637.15,334.94c-.12.11-.26.17-.41.17s-.3-.06-.42-.18c-.11-.12-.17-.26-.17-.42s.06-.31.18-.42c.12-.11.25-.18.42-.18s.29.06.41.18c.12.12.18.26.18.44,0,.16-.06.3-.18.41"/>
    <rect x="631.73" y="327.18" width="1" height="8.06"/>
    <path d="M623.49,335.27h.64c.18-.35.47-.71.89-1.07.42-.37.9-.69,1.46-.95v-.96c-.31.11-.66.29-1.05.51-.39.23-.7.46-.94.69v-6.31h-1v8.09ZM619.14,333.02h1.14v-1.13h-1.14v1.13ZM619.14,328.31h1.14v-1.13h-1.14v1.13Z"/>
    <path d="M617,327.66c-.47-.41-1.07-.62-1.81-.62-.9,0-1.61.33-2.14.98-.43.53-.64,1.16-.64,1.89s.24,1.39.73,1.88c.49.49,1.09.73,1.8.73.54,0,1.05-.17,1.54-.51l-.44,2.16h-3.25v.95h4.05l.79-4.14-.94-.12c-.15.23-.35.42-.61.57-.26.14-.55.21-.87.21-.52,0-.94-.16-1.26-.49-.32-.33-.48-.77-.48-1.33s.17-1.07.5-1.43c.33-.36.74-.54,1.22-.54.4,0,.74.13,1.03.38.28.25.46.63.54,1.14l1.05-.09c-.07-.68-.34-1.22-.8-1.63M610.58,327.88c-.45-.56-1.06-.84-1.85-.84-.6,0-1.09.16-1.48.48-.39.32-.68.76-.88,1.35-.2.58-.3,1.34-.3,2.29,0,.8.06,1.43.18,1.9.12.47.29.87.51,1.2.21.33.49.58.82.76.33.17.71.26,1.15.26.59,0,1.08-.16,1.47-.47.39-.31.68-.76.88-1.34.2-.58.3-1.35.3-2.3,0-1.51-.27-2.61-.81-3.27M609.84,333.88c-.27.38-.64.58-1.1.58s-.86-.22-1.17-.65c-.31-.43-.47-1.32-.47-2.64s.15-2.2.47-2.64c.31-.44.7-.66,1.16-.66s.84.22,1.16.66c.31.44.47,1.32.47,2.64s-.17,2.23-.51,2.72"/>
    <polygon class="st13" points="260.15 327.18 249.02 349.79 234.5 343.04 245.64 320.09 260.15 327.18"/>
    <polygon points="254.41 329.93 248.92 341.28 246.8 326.25 244.83 325.29 237.84 339.74 239.68 340.63 245.17 329.29 247.29 344.31 249.26 345.26 256.25 330.82 254.41 329.93"/>
    <path d="M318.27,327.67c-.47-.42-1.07-.64-1.78-.64-.79,0-1.45.25-1.97.74-.52.49-.77,1.09-.77,1.79,0,.52.13.95.4,1.3.27.35.64.58,1.12.69-.37.17-.65.39-.84.68-.19.29-.28.61-.28.95,0,.37.1.71.3,1.04s.49.59.86.77c.37.19.78.28,1.22.28.64,0,1.18-.18,1.62-.55.43-.36.71-.88.83-1.54l-1-.18c-.07.48-.24.85-.5,1.09-.26.24-.58.36-.97.36s-.71-.12-.96-.36c-.25-.24-.37-.54-.37-.9,0-.46.17-.8.51-1.02.34-.22.72-.33,1.15-.33.04,0,.09,0,.16,0l.11-.87c-.28.07-.52.11-.7.11-.47,0-.85-.15-1.15-.44-.3-.3-.45-.67-.45-1.13s.16-.88.48-1.2c.32-.32.72-.49,1.19-.49.4,0,.73.13,1.01.37.28.25.47.65.59,1.21l1-.13c-.07-.67-.34-1.22-.81-1.64M311.74,327.18v3.03c0,.53-.05.94-.16,1.22-.1.28-.28.5-.52.64-.24.15-.5.22-.78.22-.37,0-.63-.11-.8-.33-.16-.22-.24-.55-.24-.99v-3.79h-1v3.39c0,.6-.14,1.04-.41,1.31-.27.27-.62.41-1.03.41-.23,0-.43-.06-.6-.16-.17-.11-.29-.25-.35-.42-.07-.17-.1-.46-.1-.86v-3.68h-.99v4.01c0,.66.16,1.16.47,1.48.32.32.76.48,1.35.48.75,0,1.35-.34,1.82-1.02.12.32.31.57.59.75.28.18.64.27,1.08.27.39,0,.74-.08,1.05-.26.31-.17.55-.4.74-.69v.82h.89v-5.84h-1Z"/>
    <rect class="st13" x="885.59" y="1390.73" width="102.27" height="18.9"/>
    <path d="M981.58,1406.18h.95c.26-.52.7-1.06,1.32-1.61.62-.55,1.34-1.02,2.17-1.41v-1.43c-.46.17-.98.42-1.56.76-.58.34-1.04.68-1.4,1.02v-9.41h-1.48v12.08ZM975.19,1395.79h1.69v-1.68h-1.69v1.68ZM972.22,1395.81c-.42-.64-1-1.11-1.74-1.43-.74-.31-1.65-.48-2.74-.48-.86,0-1.63.16-2.32.47-.69.31-1.21.75-1.59,1.32-.36.56-.55,1.17-.55,1.81s.17,1.22.5,1.71c.33.5.85.91,1.55,1.23.48.22,1.37.47,2.67.77,1.3.29,2.1.58,2.41.86.31.28.47.63.47,1.07,0,.5-.22.92-.66,1.27-.44.35-1.15.53-2.11.53s-1.63-.19-2.1-.58c-.47-.39-.75-.96-.84-1.72l-1.53.12c.03.71.23,1.34.59,1.89.37.56.89.98,1.58,1.27.68.29,1.47.43,2.37.43.81,0,1.55-.14,2.21-.41.67-.28,1.17-.68,1.51-1.2.35-.53.52-1.09.52-1.7,0-.55-.14-1.05-.42-1.5-.28-.45-.71-.82-1.29-1.12-.44-.23-1.22-.49-2.33-.75-1.11-.26-1.83-.46-2.15-.59-.5-.19-.87-.43-1.09-.71-.22-.28-.33-.61-.33-.99s.11-.71.34-1.03c.23-.31.57-.56,1.04-.74.47-.18,1-.27,1.61-.27.69,0,1.3.12,1.85.36.55.24.95.55,1.21.94s.42.88.5,1.48l1.5-.13c-.02-.81-.24-1.53-.66-2.16M955.21,1394.11h-1.55c.19.34.31.68.37,1.04.06.36.09,1.23.09,2.6v1.97c0,.66.03,1.11.07,1.36.09.41.24.74.46,1.01.22.27.56.49,1.03.66.47.17,1.07.26,1.82.26s1.41-.1,1.98-.31c.57-.21,1.01-.5,1.31-.88.3-.38.52-.88.65-1.5l-1.45-.2c-.16.62-.4,1.05-.74,1.29-.33.24-.85.36-1.54.36-.75,0-1.31-.17-1.69-.5-.28-.24-.42-.67-.42-1.27,0-.05,0-.18,0-.38.57-.2,1.45-.37,2.64-.51.59-.07,1.03-.14,1.32-.22.39-.11.75-.27,1.06-.49.32-.21.57-.5.76-.85.2-.35.29-.74.29-1.17,0-.73-.26-1.33-.77-1.79s-1.25-.7-2.21-.7c-.58,0-1.12.09-1.63.28-.51.19-1.04.52-1.59.99-.04-.41-.14-.77-.3-1.08M955.63,1397.94c0-.65.08-1.15.24-1.48.21-.43.54-.77.98-1.02.44-.25.95-.37,1.52-.37s1.02.13,1.31.39c.3.26.45.59.45.98,0,.26-.07.49-.21.7-.14.21-.33.37-.59.48-.25.11-.68.21-1.29.3-1.07.15-1.88.34-2.42.56v-.54ZM950.3,1406.13h1.48v-12.03h-1.48v12.03ZM945.82,1402.82h1.69v-1.68h-1.69v1.68ZM945.82,1395.79h1.69v-1.68h-1.69v1.68ZM932.21,1405.39c.61.53,1.38.79,2.33.79,1.27,0,2.29-.46,3.04-1.38.86-1.05,1.29-2.74,1.29-5.07,0-2.08-.39-3.57-1.17-4.47-.78-.91-1.78-1.36-3.02-1.36-.72,0-1.37.17-1.94.52-.57.35-1.02.84-1.35,1.49-.32.65-.49,1.35-.49,2.11,0,1.15.35,2.08,1.04,2.81.69.73,1.53,1.09,2.52,1.09.57,0,1.11-.13,1.62-.4s.95-.66,1.31-1.21c0,1.2-.15,2.13-.42,2.78-.27.65-.64,1.15-1.1,1.48-.35.26-.77.4-1.24.4-.59,0-1.08-.21-1.48-.63-.24-.26-.43-.68-.56-1.26l-1.47.11c.12.94.49,1.67,1.09,2.2M936.46,1399.89c-.47.48-1.03.72-1.7.72s-1.24-.24-1.68-.72c-.44-.48-.67-1.13-.67-1.96s.22-1.55.68-2.05c.45-.5.99-.76,1.61-.76.43,0,.84.12,1.23.36.39.24.69.6.91,1.06.22.46.33.95.33,1.46,0,.77-.23,1.41-.7,1.88M926.83,1395.79h1.69v-1.68h-1.69v1.68ZM919.44,1394.11c-.77,0-1.41.07-1.94.2-.53.13-.97.33-1.32.59-.35.26-.65.64-.89,1.12-.24.48-.36,1.01-.36,1.57,0,.7.2,1.31.59,1.82.39.52.95.88,1.68,1.09-.57.28-.99.64-1.27,1.1-.28.45-.42.94-.42,1.45,0,.56.16,1.08.48,1.59.32.5.75.88,1.31,1.13s1.3.36,2.22.36h4.52v-12.03h-4.6ZM922.45,1404.71h-2.41c-.87,0-1.48-.05-1.83-.17-.36-.11-.63-.32-.82-.62-.2-.3-.29-.66-.29-1.05,0-.42.1-.77.31-1.05.21-.28.51-.48.92-.6.3-.09.81-.14,1.52-.14h2.61v3.63ZM922.45,1399.66h-2.79c-.77,0-1.35-.07-1.76-.2-.41-.13-.73-.37-.96-.7-.23-.33-.35-.72-.35-1.17,0-.38.08-.72.24-1.01s.36-.52.61-.67c.25-.15.55-.26.92-.33.21-.04.57-.06,1.08-.06h3v4.13ZM910.74,1395.79h1.69v-1.68h-1.69v1.68ZM902.91,1406.18h.95c.26-.52.7-1.06,1.32-1.61.62-.55,1.34-1.02,2.17-1.41v-1.43c-.46.17-.98.42-1.56.76-.58.34-1.04.68-1.4,1.02v-9.41h-1.48v12.08ZM896.52,1395.79h1.69v-1.68h-1.69v1.68ZM892.4,1395.53c-.17.27-.37.54-.62.8s-.82.77-1.71,1.51c-1.06.9-1.83,1.6-2.28,2.12-.46.52-.78,1-.98,1.47s-.3.94-.3,1.42c0,.95.34,1.74,1.01,2.38.67.64,1.59.96,2.75.96s2.06-.3,2.74-.89c.68-.59,1.07-1.45,1.18-2.59l-1.52-.15c0,.75-.22,1.34-.65,1.77-.43.43-1,.64-1.71.64-.68,0-1.22-.2-1.64-.6-.42-.4-.63-.9-.63-1.48s.23-1.15.69-1.77c.46-.62,1.34-1.48,2.66-2.55.85-.69,1.49-1.3,1.94-1.82.45-.52.77-1.06.98-1.6.12-.33.19-.67.17-1.02h-7.98v1.42h5.92Z"/>
    <rect class="st13" x="885.59" y="1366.43" width="102.27" height="18.9"/>
    <path d="M985.3,1371.22c-.17.27-.37.54-.62.8s-.82.77-1.71,1.51c-1.06.9-1.83,1.61-2.28,2.12-.46.52-.78,1.01-.99,1.47-.2.47-.29.94-.29,1.42,0,.95.34,1.74,1.01,2.38.67.64,1.59.96,2.75.96s2.06-.3,2.74-.89c.68-.6,1.07-1.46,1.18-2.59l-1.52-.16c0,.76-.22,1.35-.65,1.77-.43.43-1,.64-1.71.64-.68,0-1.22-.2-1.64-.6-.42-.4-.63-.9-.63-1.48s.23-1.15.69-1.77c.46-.62,1.34-1.48,2.66-2.55.84-.69,1.49-1.3,1.94-1.82.45-.53.77-1.06.98-1.6.13-.33.18-.67.17-1.03h-7.98v1.42h5.92ZM975.19,1371.49h1.69v-1.68h-1.69v1.68ZM972.22,1371.51c-.42-.64-1-1.11-1.74-1.43-.74-.32-1.65-.48-2.74-.48-.86,0-1.63.16-2.32.47-.69.31-1.21.76-1.59,1.32-.36.56-.55,1.17-.55,1.81s.17,1.22.5,1.71c.33.5.85.91,1.55,1.23.48.22,1.37.47,2.67.77,1.3.29,2.1.58,2.41.86.31.28.47.64.47,1.07,0,.5-.22.92-.66,1.28-.44.35-1.15.53-2.11.53s-1.63-.19-2.1-.58c-.47-.39-.75-.96-.84-1.72l-1.53.12c.03.7.23,1.34.59,1.89.37.56.89.98,1.58,1.27.68.28,1.47.43,2.37.43.81,0,1.55-.14,2.21-.41.67-.28,1.17-.68,1.51-1.2.35-.53.52-1.09.52-1.7,0-.55-.14-1.05-.42-1.5-.28-.45-.71-.82-1.29-1.12-.44-.23-1.22-.49-2.33-.75-1.11-.27-1.83-.46-2.15-.59-.5-.19-.87-.43-1.09-.71-.22-.28-.33-.61-.33-.99s.11-.71.34-1.03c.23-.31.57-.56,1.04-.74.47-.18,1-.27,1.61-.27.69,0,1.3.12,1.85.36.55.24.95.55,1.21.93s.42.88.5,1.48l1.5-.13c-.02-.81-.24-1.53-.66-2.16M955.21,1369.8h-1.55c.19.34.31.68.37,1.05.06.36.09,1.23.09,2.61v1.97c0,.66.03,1.11.07,1.36.09.41.24.74.46,1.01.22.27.56.49,1.03.66.47.17,1.07.26,1.82.26s1.41-.1,1.98-.31c.57-.21,1.01-.5,1.31-.88s.52-.88.65-1.5l-1.45-.2c-.16.62-.4,1.05-.74,1.29-.33.24-.85.36-1.54.36-.75,0-1.31-.17-1.69-.5-.28-.24-.42-.67-.42-1.27,0-.05,0-.18,0-.38.57-.19,1.45-.37,2.64-.51.59-.07,1.03-.15,1.32-.22.39-.11.75-.27,1.06-.48.32-.22.57-.5.76-.85s.29-.74.29-1.17c0-.73-.26-1.33-.77-1.79-.51-.47-1.25-.7-2.21-.7-.58,0-1.12.1-1.63.29-.51.19-1.04.52-1.59.98-.04-.41-.14-.77-.3-1.08M955.63,1373.64c0-.65.08-1.15.24-1.48.21-.43.54-.77.98-1.02.44-.25.95-.37,1.52-.37s1.02.13,1.31.39c.3.26.45.59.45.98,0,.26-.07.49-.21.7-.14.21-.33.37-.59.48-.25.11-.68.21-1.29.3-1.07.15-1.88.34-2.42.56v-.54ZM950.3,1381.83h1.48v-12.03h-1.48v12.03ZM945.82,1378.52h1.69v-1.68h-1.69v1.68ZM945.82,1371.49h1.69v-1.68h-1.69v1.68ZM932.21,1381.09c.61.53,1.38.8,2.33.8,1.27,0,2.29-.46,3.04-1.38.86-1.06,1.29-2.74,1.29-5.07,0-2.08-.39-3.57-1.17-4.48-.78-.91-1.78-1.36-3.02-1.36-.72,0-1.37.17-1.94.52-.57.35-1.02.84-1.35,1.49-.32.65-.49,1.35-.49,2.11,0,1.15.35,2.08,1.04,2.81.69.72,1.53,1.09,2.52,1.09.57,0,1.11-.13,1.62-.39.51-.26.95-.66,1.31-1.21,0,1.2-.15,2.13-.42,2.78-.27.65-.64,1.15-1.1,1.49-.35.26-.77.39-1.24.39-.59,0-1.08-.21-1.48-.63-.24-.26-.43-.68-.56-1.26l-1.47.11c.12.94.49,1.67,1.09,2.2M936.46,1375.58c-.47.48-1.03.72-1.7.72s-1.24-.24-1.68-.72c-.44-.48-.67-1.13-.67-1.96s.22-1.55.68-2.05c.45-.51.99-.76,1.61-.76.43,0,.84.12,1.23.37.39.24.69.6.91,1.06.22.46.33.95.33,1.46,0,.78-.23,1.41-.7,1.88M926.83,1371.49h1.69v-1.68h-1.69v1.68ZM919.44,1369.8c-.77,0-1.41.07-1.94.2-.53.13-.97.33-1.32.59-.35.26-.65.63-.89,1.12-.24.48-.36,1.01-.36,1.57,0,.7.2,1.31.59,1.82.39.52.95.88,1.68,1.09-.57.28-.99.64-1.27,1.1-.28.45-.42.94-.42,1.45,0,.56.16,1.08.48,1.59.32.5.75.88,1.31,1.12s1.3.36,2.22.36h4.52v-12.03h-4.6ZM922.45,1380.41h-2.41c-.87,0-1.48-.05-1.83-.17-.36-.11-.63-.32-.82-.62-.2-.31-.29-.66-.29-1.06,0-.42.1-.77.31-1.05.21-.28.51-.48.92-.6.3-.09.81-.14,1.52-.14h2.61v3.63ZM922.45,1375.36h-2.79c-.77,0-1.35-.07-1.76-.2-.41-.13-.73-.36-.96-.7-.23-.33-.35-.72-.35-1.17,0-.38.08-.72.24-1.01s.36-.52.61-.67c.25-.15.55-.26.92-.33.21-.04.57-.06,1.08-.06h3v4.13ZM910.74,1371.49h1.69v-1.68h-1.69v1.68ZM906.62,1371.22c-.17.27-.37.54-.62.8-.25.26-.82.77-1.71,1.51-1.06.9-1.83,1.61-2.28,2.12-.46.52-.78,1.01-.99,1.47-.2.47-.29.94-.29,1.42,0,.95.34,1.74,1.01,2.38.67.64,1.59.96,2.75.96s2.06-.3,2.74-.89c.68-.6,1.07-1.46,1.18-2.59l-1.52-.16c0,.76-.22,1.35-.65,1.77-.43.43-1,.64-1.71.64-.68,0-1.22-.2-1.64-.6-.42-.4-.63-.9-.63-1.48s.23-1.15.69-1.77c.46-.62,1.34-1.48,2.66-2.55.84-.69,1.49-1.3,1.94-1.82.45-.53.77-1.06.98-1.6.13-.33.18-.67.17-1.03h-7.98v1.42h5.92ZM896.52,1371.49h1.69v-1.68h-1.69v1.68ZM892.4,1371.22c-.17.27-.37.54-.62.8s-.82.77-1.71,1.51c-1.06.9-1.83,1.61-2.28,2.12-.46.52-.78,1.01-.98,1.47-.2.47-.3.94-.3,1.42,0,.95.34,1.74,1.01,2.38.67.64,1.59.96,2.75.96s2.06-.3,2.74-.89c.68-.6,1.07-1.46,1.18-2.59l-1.52-.16c0,.76-.22,1.35-.65,1.77-.43.43-1,.64-1.71.64-.68,0-1.22-.2-1.64-.6-.42-.4-.63-.9-.63-1.48s.23-1.15.69-1.77c.46-.62,1.34-1.48,2.66-2.55.85-.69,1.49-1.3,1.94-1.82.45-.53.77-1.06.98-1.6.12-.33.19-.67.17-1.03h-7.98v1.42h5.92Z"/>
    <rect class="st13" x="885.59" y="1339.09" width="102.27" height="18.9"/>
    <path d="M985.96,1343.19c-.7-.63-1.58-.94-2.64-.94-1.17,0-2.15.36-2.91,1.1-.77.73-1.15,1.62-1.15,2.67,0,.78.2,1.42.59,1.94.39.52.95.86,1.66,1.02-.55.25-.96.59-1.24,1.02-.28.42-.42.9-.42,1.42,0,.55.15,1.07.44,1.55.29.49.72.87,1.27,1.15.55.28,1.16.42,1.82.42.95,0,1.75-.27,2.4-.82.64-.54,1.05-1.31,1.23-2.3l-1.48-.26c-.11.72-.36,1.26-.74,1.62-.39.36-.87.54-1.44.54s-1.06-.18-1.43-.53c-.36-.36-.55-.81-.55-1.35,0-.68.25-1.19.76-1.52.5-.33,1.07-.49,1.7-.49.06,0,.14,0,.24.02l.17-1.29c-.42.11-.76.16-1.04.16-.69,0-1.25-.22-1.7-.66-.44-.44-.66-1-.66-1.68s.24-1.31.72-1.79c.48-.48,1.07-.72,1.76-.72.59,0,1.08.18,1.49.55.41.37.7.97.87,1.81l1.48-.19c-.1-1-.5-1.82-1.2-2.45M975.19,1344.15h1.69v-1.68h-1.69v1.68ZM972.22,1344.17c-.42-.64-1-1.11-1.74-1.43-.74-.32-1.65-.48-2.74-.48-.86,0-1.63.16-2.32.47-.69.31-1.21.76-1.59,1.32-.36.56-.55,1.17-.55,1.81s.17,1.22.5,1.71c.33.49.85.9,1.55,1.23.48.22,1.37.47,2.67.77,1.3.29,2.1.58,2.41.85.31.28.47.64.47,1.07,0,.5-.22.92-.66,1.28s-1.15.53-2.11.53-1.63-.2-2.1-.58c-.47-.39-.75-.96-.84-1.72l-1.53.11c.03.7.23,1.34.59,1.9.37.56.89.98,1.58,1.27.68.28,1.47.43,2.37.43.81,0,1.55-.14,2.21-.41.67-.28,1.17-.68,1.51-1.2.35-.53.52-1.1.52-1.7,0-.55-.14-1.05-.42-1.5-.28-.45-.71-.82-1.29-1.12-.44-.24-1.22-.49-2.33-.75-1.11-.27-1.83-.46-2.15-.59-.5-.19-.87-.43-1.09-.71-.22-.28-.33-.61-.33-.99s.11-.71.34-1.03c.23-.32.57-.56,1.04-.74.47-.18,1-.27,1.61-.27.69,0,1.3.12,1.85.36.55.24.95.55,1.21.94.26.38.42.88.5,1.48l1.5-.13c-.02-.8-.24-1.53-.66-2.16M955.21,1342.46h-1.55c.19.34.31.68.37,1.05.06.36.09,1.23.09,2.6v1.97c0,.66.03,1.11.07,1.36.09.41.24.74.46,1,.22.27.56.49,1.03.66.47.17,1.07.26,1.82.26s1.41-.1,1.98-.31c.57-.21,1.01-.5,1.31-.88.3-.38.52-.88.65-1.5l-1.45-.2c-.16.62-.4,1.05-.74,1.29-.33.24-.85.36-1.54.36-.75,0-1.31-.17-1.69-.5-.28-.24-.42-.67-.42-1.27,0-.05,0-.18,0-.38.57-.19,1.45-.37,2.64-.51.59-.07,1.03-.14,1.32-.22.39-.11.75-.27,1.06-.49.32-.21.57-.49.76-.85s.29-.74.29-1.17c0-.73-.26-1.32-.77-1.79-.51-.47-1.25-.7-2.21-.7-.58,0-1.12.1-1.63.29-.51.19-1.04.52-1.59.98-.04-.41-.14-.77-.3-1.08M955.63,1346.3c0-.65.08-1.14.24-1.48.21-.43.54-.77.98-1.02.44-.25.95-.38,1.52-.38s1.02.13,1.31.39c.3.26.45.59.45.98,0,.26-.07.49-.21.7-.14.21-.33.37-.59.48-.25.11-.68.21-1.29.3-1.07.15-1.88.34-2.42.56v-.54ZM950.3,1354.49h1.48v-12.03h-1.48v12.03ZM945.82,1351.18h1.69v-1.68h-1.69v1.68ZM945.82,1344.15h1.69v-1.68h-1.69v1.68ZM932.21,1353.75c.61.53,1.38.8,2.33.8,1.27,0,2.29-.46,3.04-1.38.86-1.06,1.29-2.75,1.29-5.07,0-2.08-.39-3.57-1.17-4.48-.78-.91-1.78-1.36-3.02-1.36-.72,0-1.37.17-1.94.52-.57.35-1.02.84-1.35,1.49-.32.65-.49,1.35-.49,2.11,0,1.15.35,2.08,1.04,2.81.69.72,1.53,1.09,2.52,1.09.57,0,1.11-.13,1.62-.4.51-.26.95-.66,1.31-1.2,0,1.2-.15,2.13-.42,2.78-.27.65-.64,1.15-1.1,1.49-.35.26-.77.39-1.24.39-.59,0-1.08-.21-1.48-.63-.24-.26-.43-.68-.56-1.26l-1.47.12c.12.94.49,1.67,1.09,2.2M936.46,1348.24c-.47.48-1.03.72-1.7.72s-1.24-.24-1.68-.72c-.44-.48-.67-1.14-.67-1.96s.22-1.55.68-2.05c.45-.51.99-.76,1.61-.76.43,0,.84.12,1.23.37.39.24.69.6.91,1.06.22.47.33.95.33,1.46,0,.78-.23,1.41-.7,1.88M926.83,1344.15h1.69v-1.68h-1.69v1.68ZM919.44,1342.46c-.77,0-1.41.07-1.94.2-.53.13-.97.33-1.32.59-.35.26-.65.63-.89,1.12-.24.48-.36,1.01-.36,1.57,0,.7.2,1.31.59,1.82.39.52.95.88,1.68,1.09-.57.28-.99.65-1.27,1.1-.28.45-.42.94-.42,1.45,0,.56.16,1.08.48,1.59.32.5.75.88,1.31,1.12s1.3.37,2.22.37h4.52v-12.03h-4.6ZM922.45,1353.07h-2.41c-.87,0-1.48-.06-1.83-.17-.36-.11-.63-.32-.82-.62-.2-.3-.29-.66-.29-1.05,0-.42.1-.77.31-1.05.21-.28.51-.48.92-.6.3-.09.81-.14,1.52-.14h2.61v3.64ZM922.45,1348.02h-2.79c-.77,0-1.35-.07-1.76-.2-.41-.13-.73-.36-.96-.7-.23-.33-.35-.72-.35-1.17,0-.38.08-.72.24-1.01.16-.29.36-.52.61-.67.25-.15.55-.26.92-.33.21-.04.57-.06,1.08-.06h3v4.13ZM910.74,1344.15h1.69v-1.68h-1.69v1.68ZM907.28,1343.19c-.7-.63-1.58-.94-2.64-.94-1.17,0-2.15.36-2.91,1.1-.77.73-1.15,1.62-1.15,2.67,0,.78.2,1.42.59,1.94.39.52.95.86,1.66,1.02-.55.25-.96.59-1.24,1.02-.28.42-.42.9-.42,1.42,0,.55.15,1.07.44,1.55s.72.87,1.27,1.15c.55.28,1.16.42,1.82.42.95,0,1.75-.27,2.4-.82.64-.54,1.05-1.31,1.23-2.3l-1.48-.26c-.11.72-.36,1.26-.74,1.62-.38.36-.86.54-1.44.54s-1.05-.18-1.42-.53c-.37-.36-.55-.81-.55-1.35,0-.68.25-1.19.76-1.52.5-.33,1.07-.49,1.7-.49.06,0,.14,0,.24.02l.16-1.29c-.42.11-.76.16-1.04.16-.69,0-1.25-.22-1.7-.66-.44-.44-.66-1-.66-1.68s.24-1.31.72-1.79c.48-.48,1.07-.72,1.76-.72.59,0,1.08.18,1.49.55.41.37.7.97.87,1.81l1.48-.19c-.1-1-.5-1.82-1.2-2.45M896.52,1344.15h1.69v-1.68h-1.69v1.68ZM892.4,1343.88c-.17.27-.37.53-.62.8s-.82.77-1.71,1.51c-1.06.9-1.83,1.6-2.28,2.12-.46.51-.78,1.01-.98,1.47-.2.47-.3.94-.3,1.42,0,.95.34,1.74,1.01,2.38.67.64,1.59.96,2.75.96s2.06-.3,2.74-.89c.68-.59,1.07-1.46,1.18-2.59l-1.52-.16c0,.76-.22,1.35-.65,1.77-.43.43-1,.64-1.71.64-.68,0-1.22-.2-1.64-.6-.42-.4-.63-.9-.63-1.48s.23-1.15.69-1.77c.46-.62,1.34-1.48,2.66-2.55.85-.69,1.49-1.3,1.94-1.82.45-.52.77-1.06.98-1.6.12-.33.19-.67.17-1.03h-7.98v1.42h5.92Z"/>
    <rect class="st13" x="885.59" y="1313.44" width="102.27" height="18.9"/>
    <path d="M980.94,1316.81v2.88h-1.63v1.35h1.63v7.8h1.21l5.5-7.8v-1.35h-5.23v-2.88h-1.48ZM986.19,1321.04l-3.78,5.42v-5.42h3.78ZM975.19,1318.49h1.69v-1.68h-1.69v1.68ZM972.22,1318.51c-.42-.64-1-1.11-1.74-1.43-.74-.31-1.65-.48-2.74-.48-.86,0-1.63.16-2.32.47-.69.31-1.21.76-1.59,1.32-.36.57-.55,1.17-.55,1.81s.17,1.22.5,1.71c.33.49.85.9,1.55,1.23.48.22,1.37.47,2.67.76,1.3.29,2.1.58,2.41.86.31.28.47.64.47,1.07,0,.5-.22.92-.66,1.28s-1.15.53-2.11.53-1.63-.19-2.1-.58c-.47-.39-.75-.96-.84-1.72l-1.53.12c.03.7.23,1.34.59,1.89.37.56.89.98,1.58,1.27.68.28,1.47.43,2.37.43.81,0,1.55-.14,2.21-.41.67-.28,1.17-.68,1.51-1.2.35-.53.52-1.1.52-1.7,0-.55-.14-1.05-.42-1.5-.28-.45-.71-.82-1.29-1.12-.44-.24-1.22-.49-2.33-.75-1.11-.27-1.83-.46-2.15-.59-.5-.19-.87-.43-1.09-.71-.22-.28-.33-.61-.33-.99s.11-.71.34-1.03c.23-.31.57-.56,1.04-.74.47-.18,1-.27,1.61-.27.69,0,1.3.12,1.85.36.55.24.95.55,1.21.94.26.38.42.88.5,1.48l1.5-.13c-.02-.8-.24-1.53-.66-2.16M955.21,1316.81h-1.55c.19.34.31.68.37,1.04.06.37.09,1.23.09,2.6v1.97c0,.66.03,1.11.07,1.36.09.41.24.74.46,1,.22.27.56.49,1.03.66.47.17,1.07.26,1.82.26s1.41-.1,1.98-.31c.57-.21,1.01-.5,1.31-.88.3-.38.52-.88.65-1.5l-1.45-.2c-.16.62-.4,1.05-.74,1.29-.33.24-.85.36-1.54.36-.75,0-1.31-.17-1.69-.5-.28-.24-.42-.67-.42-1.27,0-.05,0-.18,0-.38.57-.2,1.45-.37,2.64-.51.59-.07,1.03-.14,1.32-.22.39-.11.75-.27,1.06-.49.32-.21.57-.49.76-.85.2-.35.29-.74.29-1.17,0-.73-.26-1.32-.77-1.79-.51-.47-1.25-.7-2.21-.7-.58,0-1.12.1-1.63.29-.51.19-1.04.52-1.59.98-.04-.41-.14-.77-.3-1.08M955.63,1320.64c0-.65.08-1.14.24-1.48.21-.43.54-.77.98-1.02.44-.25.95-.37,1.52-.37s1.02.13,1.31.39c.3.26.45.59.45.98,0,.26-.07.49-.21.7-.14.21-.33.37-.59.48-.25.11-.68.21-1.29.3-1.07.15-1.88.34-2.42.56v-.54ZM950.3,1328.84h1.48v-12.03h-1.48v12.03ZM945.82,1325.52h1.69v-1.68h-1.69v1.68ZM945.82,1318.49h1.69v-1.68h-1.69v1.68ZM932.21,1328.09c.61.53,1.38.8,2.33.8,1.27,0,2.29-.46,3.04-1.38.86-1.05,1.29-2.74,1.29-5.07,0-2.08-.39-3.57-1.17-4.48-.78-.9-1.78-1.36-3.02-1.36-.72,0-1.37.17-1.94.52-.57.35-1.02.84-1.35,1.49-.32.65-.49,1.35-.49,2.11,0,1.15.35,2.08,1.04,2.81.69.72,1.53,1.09,2.52,1.09.57,0,1.11-.13,1.62-.4.51-.26.95-.66,1.31-1.2,0,1.2-.15,2.13-.42,2.78-.27.65-.64,1.15-1.1,1.49-.35.26-.77.39-1.24.39-.59,0-1.08-.21-1.48-.63-.24-.26-.43-.69-.56-1.26l-1.47.12c.12.94.49,1.67,1.09,2.2M936.46,1322.59c-.47.48-1.03.72-1.7.72s-1.24-.24-1.68-.72c-.44-.48-.67-1.14-.67-1.97s.22-1.55.68-2.05c.45-.51.99-.76,1.61-.76.43,0,.84.12,1.23.37.39.24.69.6.91,1.06.22.47.33.95.33,1.46,0,.78-.23,1.41-.7,1.88M926.83,1318.49h1.69v-1.68h-1.69v1.68ZM919.44,1316.81c-.77,0-1.41.07-1.94.2-.53.13-.97.33-1.32.59-.35.26-.65.63-.89,1.12-.24.48-.36,1.01-.36,1.57,0,.7.2,1.31.59,1.82.39.52.95.88,1.68,1.09-.57.28-.99.65-1.27,1.1-.28.45-.42.94-.42,1.45,0,.56.16,1.08.48,1.59.32.5.75.88,1.31,1.12.56.24,1.3.37,2.22.37h4.52v-12.03h-4.6ZM922.45,1327.42h-2.41c-.87,0-1.48-.06-1.83-.17-.36-.11-.63-.32-.82-.62-.2-.3-.29-.66-.29-1.05,0-.42.1-.77.31-1.05.21-.28.51-.48.92-.6.3-.09.81-.14,1.52-.14h2.61v3.64ZM922.45,1322.37h-2.79c-.77,0-1.35-.07-1.76-.2-.41-.13-.73-.36-.96-.7-.23-.33-.35-.72-.35-1.17,0-.39.08-.72.24-1.01.16-.29.36-.52.61-.67.25-.15.55-.26.92-.33.21-.04.57-.06,1.08-.06h3v4.13ZM910.74,1318.49h1.69v-1.68h-1.69v1.68ZM902.26,1316.81v2.88h-1.63v1.35h1.63v7.8h1.21l5.5-7.8v-1.35h-5.23v-2.88h-1.48ZM907.52,1321.04l-3.78,5.42v-5.42h3.78ZM896.52,1318.49h1.69v-1.68h-1.69v1.68ZM892.4,1318.23c-.17.27-.37.53-.62.8s-.82.77-1.71,1.51c-1.06.9-1.83,1.6-2.28,2.12-.46.51-.78,1-.98,1.47-.2.46-.3.94-.3,1.42,0,.95.34,1.74,1.01,2.38.67.64,1.59.96,2.75.96s2.06-.3,2.74-.89c.68-.59,1.07-1.46,1.18-2.59l-1.52-.16c0,.76-.22,1.35-.65,1.77-.43.43-1,.64-1.71.64-.68,0-1.22-.2-1.64-.61-.42-.4-.63-.89-.63-1.48s.23-1.15.69-1.78c.46-.62,1.34-1.47,2.66-2.54.85-.69,1.49-1.3,1.94-1.82.45-.52.77-1.06.98-1.6.12-.33.19-.67.17-1.03h-7.98v1.42h5.92Z"/>
    <rect class="st13" x="885.59" y="1290.49" width="102.27" height="18.9"/>
    <path d="M985.98,1294.57c-.69-.61-1.59-.92-2.69-.92-1.34,0-2.39.49-3.17,1.46-.64.79-.95,1.74-.95,2.82,0,1.15.36,2.08,1.08,2.8.73.73,1.61,1.09,2.67,1.09.79,0,1.56-.25,2.28-.76l-.65,3.23h-4.81v1.41h6l1.17-6.18-1.39-.18c-.22.35-.52.62-.91.84-.38.21-.81.32-1.29.32-.77,0-1.39-.24-1.87-.73s-.71-1.15-.71-1.99c0-.89.25-1.6.74-2.13.49-.54,1.1-.8,1.81-.8.59,0,1.1.19,1.52.57.42.38.69.95.8,1.7l1.56-.13c-.1-1.01-.49-1.82-1.19-2.43M975.19,1295.54h1.69v-1.68h-1.69v1.68ZM972.22,1295.56c-.42-.63-1-1.11-1.74-1.43-.74-.32-1.65-.48-2.74-.48-.86,0-1.63.16-2.32.47-.69.31-1.21.76-1.59,1.32-.36.56-.55,1.17-.55,1.81s.17,1.22.5,1.71c.33.49.85.9,1.55,1.23.48.22,1.37.47,2.67.77,1.3.29,2.1.58,2.41.85.31.28.47.64.47,1.07,0,.5-.22.92-.66,1.28s-1.15.53-2.11.53-1.63-.2-2.1-.58c-.47-.39-.75-.96-.84-1.72l-1.53.11c.03.7.23,1.34.59,1.9.37.56.89.98,1.58,1.27.68.28,1.47.43,2.37.43.81,0,1.55-.14,2.21-.41.67-.28,1.17-.68,1.51-1.2.35-.53.52-1.1.52-1.7,0-.55-.14-1.05-.42-1.5-.28-.45-.71-.82-1.29-1.12-.44-.24-1.22-.49-2.33-.75-1.11-.27-1.83-.46-2.15-.59-.5-.19-.87-.43-1.09-.71-.22-.28-.33-.61-.33-.99s.11-.71.34-1.03c.23-.32.57-.56,1.04-.74.47-.18,1-.27,1.61-.27.69,0,1.3.12,1.85.36.55.24.95.55,1.21.94.26.38.42.88.5,1.48l1.5-.13c-.02-.8-.24-1.53-.66-2.16M955.21,1293.86h-1.55c.19.34.31.68.37,1.05.06.36.09,1.23.09,2.6v1.97c0,.66.03,1.11.07,1.36.09.41.24.74.46,1,.22.27.56.49,1.03.66.47.17,1.07.26,1.82.26s1.41-.1,1.98-.31c.57-.21,1.01-.5,1.31-.88.3-.38.52-.88.65-1.5l-1.45-.2c-.16.62-.4,1.05-.74,1.29-.33.24-.85.36-1.54.36-.75,0-1.31-.17-1.69-.5-.28-.24-.42-.67-.42-1.27,0-.05,0-.18,0-.38.57-.19,1.45-.37,2.64-.51.59-.07,1.03-.14,1.32-.22.39-.11.75-.27,1.06-.49.32-.21.57-.49.76-.85s.29-.74.29-1.17c0-.73-.26-1.33-.77-1.79-.51-.47-1.25-.7-2.21-.7-.58,0-1.12.1-1.63.29-.51.19-1.04.52-1.59.98-.04-.41-.14-.77-.3-1.08M955.63,1297.69c0-.65.08-1.14.24-1.48.21-.43.54-.77.98-1.02.44-.25.95-.38,1.52-.38s1.02.13,1.31.39c.3.26.45.59.45.98,0,.26-.07.49-.21.7-.14.21-.33.37-.59.48-.25.11-.68.21-1.29.3-1.07.15-1.88.34-2.42.56v-.54ZM950.3,1305.89h1.48v-12.03h-1.48v12.03ZM945.82,1302.57h1.69v-1.68h-1.69v1.68ZM945.82,1295.54h1.69v-1.68h-1.69v1.68ZM932.21,1305.14c.61.53,1.38.8,2.33.8,1.27,0,2.29-.46,3.04-1.38.86-1.06,1.29-2.75,1.29-5.07,0-2.08-.39-3.57-1.17-4.48-.78-.91-1.78-1.36-3.02-1.36-.72,0-1.37.17-1.94.52-.57.35-1.02.84-1.35,1.49-.32.65-.49,1.35-.49,2.11,0,1.15.35,2.08,1.04,2.81.69.72,1.53,1.08,2.52,1.08.57,0,1.11-.13,1.62-.4.51-.26.95-.66,1.31-1.2,0,1.2-.15,2.13-.42,2.78-.27.65-.64,1.15-1.1,1.49-.35.26-.77.39-1.24.39-.59,0-1.08-.21-1.48-.63-.24-.26-.43-.68-.56-1.26l-1.47.12c.12.94.49,1.67,1.09,2.2M936.46,1299.64c-.47.48-1.03.72-1.7.72s-1.24-.24-1.68-.72c-.44-.48-.67-1.14-.67-1.96s.22-1.55.68-2.05c.45-.51.99-.76,1.61-.76.43,0,.84.12,1.23.37.39.24.69.6.91,1.06.22.47.33.95.33,1.46,0,.78-.23,1.41-.7,1.88M926.83,1295.54h1.69v-1.68h-1.69v1.68ZM919.44,1293.86c-.77,0-1.41.07-1.94.2-.53.13-.97.33-1.32.59-.35.26-.65.63-.89,1.12-.24.48-.36,1.01-.36,1.57,0,.7.2,1.31.59,1.82.39.52.95.88,1.68,1.09-.57.28-.99.65-1.27,1.1-.28.45-.42.94-.42,1.45,0,.56.16,1.08.48,1.59.32.5.75.88,1.31,1.12s1.3.37,2.22.37h4.52v-12.03h-4.6ZM922.45,1304.47h-2.41c-.87,0-1.48-.06-1.83-.17-.36-.11-.63-.32-.82-.62-.2-.3-.29-.65-.29-1.05,0-.42.1-.77.31-1.05.21-.28.51-.48.92-.6.3-.09.81-.14,1.52-.14h2.61v3.64ZM922.45,1299.41h-2.79c-.77,0-1.35-.07-1.76-.2-.41-.13-.73-.36-.96-.7-.23-.33-.35-.72-.35-1.17,0-.38.08-.72.24-1.01.16-.29.36-.52.61-.67.25-.15.55-.26.92-.33.21-.04.57-.06,1.08-.06h3v4.13ZM910.74,1295.54h1.69v-1.68h-1.69v1.68ZM907.3,1294.57c-.69-.61-1.59-.92-2.69-.92-1.34,0-2.39.49-3.17,1.46-.64.79-.95,1.74-.95,2.82,0,1.15.36,2.08,1.08,2.8.73.73,1.61,1.09,2.67,1.09.79,0,1.55-.25,2.28-.76l-.65,3.23h-4.82v1.41h6l1.17-6.18-1.39-.18c-.22.35-.52.62-.9.84-.38.21-.81.32-1.29.32-.77,0-1.39-.24-1.87-.73-.47-.49-.71-1.15-.71-1.99,0-.89.24-1.6.74-2.13.49-.54,1.1-.8,1.81-.8.59,0,1.1.19,1.52.57s.69.95.8,1.7l1.56-.13c-.1-1.01-.49-1.82-1.19-2.43M896.52,1295.54h1.69v-1.68h-1.69v1.68ZM892.4,1295.28c-.17.27-.37.53-.62.8s-.82.77-1.71,1.51c-1.06.9-1.83,1.6-2.28,2.12-.46.51-.78,1.01-.98,1.47-.2.47-.3.94-.3,1.42,0,.95.34,1.74,1.01,2.38.67.64,1.59.96,2.75.96s2.06-.3,2.74-.89c.68-.59,1.07-1.46,1.18-2.59l-1.52-.16c0,.76-.22,1.35-.65,1.77-.43.43-1,.64-1.71.64-.68,0-1.22-.2-1.64-.6-.42-.4-.63-.9-.63-1.48s.23-1.15.69-1.77c.46-.62,1.34-1.48,2.66-2.55.85-.69,1.49-1.3,1.94-1.82.45-.52.77-1.06.98-1.6.12-.33.19-.67.17-1.03h-7.98v1.42h5.92Z"/>
    <line class="st3" x1="579.46" y1="1210.15" x2="515.66" y2="1090.67"/>
    <line class="st3" x1="399.89" y1="934.06" x2="375.92" y2="814.57"/>
  </g>
  <path class="st3" d="M419.8,854.4v63.79M423.85,1210.15v-1.35M423.85,1206.44v-2.36M423.85,1201.72v-2.36M423.85,1196.99v-2.36M423.85,1192.26v-2.36M423.85,1187.54v-2.36M423.85,1182.81v-2.7M423.85,1177.75v-2.36M423.85,1173.03v-2.36M423.85,1168.3v-2.36M423.85,1163.57v-1.35M423.85,1162.22h3.37M429.59,1162.22h2.36M434.32,1162.22h2.36M439.04,1162.22h2.36M443.77,1162.22h2.36M448.49,1162.22h2.36M453.22,1162.22h2.7M458.28,1162.22h2.36M463.01,1162.22h2.36M467.73,1162.22h2.36M472.46,1162.22h2.37M477.18,1162.22h2.36M481.91,1162.22h2.7M486.97,1162.22h2.36M491.7,1162.22h2.36M496.42,1162.22h2.36M501.15,1162.22h3.38M504.52,1210.15h-3.38M498.78,1210.15h-2.36M494.06,1210.15h-2.36M489.33,1210.15h-2.36M484.61,1210.15h-2.7M479.55,1210.15h-2.36M474.82,1210.15h-2.37M470.09,1210.15h-2.36M465.37,1210.15h-2.36M460.64,1210.15h-2.36M455.92,1210.15h-2.7M450.86,1210.15h-2.36M446.13,1210.15h-2.36M441.4,1210.15h-2.36M436.68,1210.15h-2.36M431.95,1210.15h-2.36M427.23,1210.15h-3.37"/>
  <polygon class="st13" points="749.23 842.58 744.84 848.32 744.17 848.66 743.49 848.66 742.48 847.31 742.48 845.96 743.15 844.27 744.17 842.58 744.17 842.25 744.17 841.91 744.17 841.57 744.17 840.89 743.83 840.89 743.49 840.56 739.78 847.98 738.77 856.08 739.78 864.18 743.49 871.61 743.83 871.61 744.17 871.27 744.17 870.94 744.17 870.26 744.17 869.92 744.17 869.59 743.15 867.9 742.48 866.21 742.48 864.86 743.49 863.85 744.17 863.85 744.84 864.18 749.23 869.59 755.64 873.3 755.64 838.87 749.23 842.58"/>
  <polygon class="st13" points="755.64 808.16 755.64 838.87 755.64 873.3 755.64 904.01 795.47 904.01 795.47 808.16 755.64 808.16"/>
  <line class="st3" x1="744.17" y1="869.59" x2="744.17" y2="869.92"/>
  <line class="st3" x1="744.17" y1="869.92" x2="744.17" y2="870.26"/>
  <line class="st3" x1="744.17" y1="871.27" x2="744.17" y2="870.94"/>
  <line class="st3" x1="744.17" y1="870.94" x2="744.17" y2="870.26"/>
  <line class="st3" x1="743.49" y1="871.61" x2="743.83" y2="871.61"/>
  <line class="st3" x1="743.83" y1="871.61" x2="744.17" y2="871.27"/>
  <line class="st3" x1="743.49" y1="863.85" x2="742.48" y2="864.86"/>
  <line class="st3" x1="742.48" y1="864.86" x2="742.48" y2="866.21"/>
  <line class="st3" x1="742.48" y1="866.21" x2="743.16" y2="867.9"/>
  <line class="st3" x1="743.16" y1="867.9" x2="744.17" y2="869.58"/>
  <line class="st3" x1="744.84" y1="864.18" x2="744.17" y2="863.85"/>
  <line class="st3" x1="744.17" y1="863.85" x2="743.49" y2="863.85"/>
  <line class="st3" x1="744.84" y1="864.18" x2="749.23" y2="869.58"/>
  <line class="st3" x1="749.23" y1="869.59" x2="755.64" y2="873.3"/>
  <line class="st3" x1="744.17" y1="842.58" x2="744.17" y2="842.25"/>
  <line class="st3" x1="744.17" y1="842.24" x2="744.17" y2="841.91"/>
  <line class="st3" x1="744.17" y1="840.89" x2="744.17" y2="841.57"/>
  <line class="st3" x1="744.17" y1="841.57" x2="744.17" y2="841.91"/>
  <line class="st3" x1="743.49" y1="840.56" x2="743.83" y2="840.89"/>
  <line class="st3" x1="743.83" y1="840.89" x2="744.17" y2="840.89"/>
  <line class="st3" x1="743.49" y1="848.66" x2="742.48" y2="847.31"/>
  <line class="st3" x1="742.48" y1="847.31" x2="742.48" y2="845.96"/>
  <line class="st3" x1="742.48" y1="845.96" x2="743.16" y2="844.27"/>
  <line class="st3" x1="743.16" y1="844.27" x2="744.17" y2="842.58"/>
  <line class="st3" x1="744.84" y1="848.32" x2="744.17" y2="848.66"/>
  <line class="st3" x1="744.17" y1="848.66" x2="743.49" y2="848.66"/>
  <line class="st3" x1="744.84" y1="848.32" x2="749.23" y2="842.58"/>
  <line class="st3" x1="749.23" y1="842.58" x2="755.64" y2="838.87"/>
  <line class="st3" x1="743.49" y1="871.61" x2="739.78" y2="864.19"/>
  <line class="st3" x1="739.78" y1="864.18" x2="738.77" y2="856.08"/>
  <line class="st3" x1="738.77" y1="856.08" x2="739.78" y2="847.98"/>
  <line class="st3" x1="739.78" y1="847.98" x2="743.49" y2="840.56"/>
  <line class="st3" x1="755.64" y1="904.01" x2="795.47" y2="904.01"/>
  <line class="st3" x1="795.47" y1="904.01" x2="795.47" y2="808.16"/>
  <line class="st3" x1="795.47" y1="808.16" x2="755.64" y2="808.16"/>
  <polyline class="st3" points="755.64 808.16 755.64 838.87 755.64 873.3 755.64 904.01"/>
  <polygon class="st13" points="721.69 779.37 794.26 779.37 794.26 778.96 722.6 778.96 722.6 641 721.69 640.55 721.69 779.37"/>
  <g class="st4">
    <path class="st13" d="M794.27,676.45v102.5h-71.66v-137.96l24.55,12.14c1.06.52,2.08,1.02,3.06,1.52l2.85,1.41,6.29,3.11c.37.19.75.36,1.11.55l2.1,1.04c.67.33,1.31.64,1.93.95l3.37,1.67,1.46.72c.23.11.46.22.67.34l1.25.62c.58.29,1.12.55,1.63.8l.93.46,1.19.59c.48.24.88.44,1.24.61l.46.23c.39.19.68.33.9.45l.22.1c.31.15.43.21.48.23l.04.02,15.92,7.88Z"/>
    <path class="st13" d="M794.27,619.72v56.74l-15.92-7.88v-28.26c0-1.81-1.47-3.28-3.29-3.28h-33.24c-1.81,0-3.29,1.47-3.29,3.28v8.56c3.11,1.54,5.97,2.96,8.62,4.27l-24.55-12.15v-21.28h71.66Z"/>
    <path class="st13" d="M778.34,640.31v28.26l-.04-.02s-.17-.08-.48-.24c-.07-.04-.14-.07-.23-.1-.22-.12-.51-.26-.9-.45-.14-.07-.29-.15-.46-.23-.36-.17-.76-.37-1.23-.61-.36-.18-.75-.37-1.19-.59-.29-.15-.61-.3-.93-.46-.51-.25-1.05-.51-1.63-.8-.39-.2-.82-.41-1.25-.62-.22-.11-.44-.22-.68-.34-.46-.23-.95-.47-1.46-.72-1.02-.5-2.15-1.06-3.37-1.66-.62-.31-1.25-.63-1.93-.95-.67-.34-1.37-.69-2.09-1.04-.37-.19-.74-.36-1.12-.55-1.9-.95-3.99-1.97-6.29-3.11-.92-.46-1.86-.93-2.85-1.42-.98-.49-2-1-3.06-1.52-2.65-1.31-5.51-2.73-8.62-4.27v-8.56c0-1.81,1.47-3.28,3.29-3.28h33.23c1.82,0,3.29,1.47,3.29,3.28"/>
    <path class="st13" d="M778.34,668.57l-.04-.02.04.02Z"/>
    <path class="st13" d="M777.83,668.32l-.22-.1c.08.03.16.06.22.1"/>
    <path class="st13" d="M776.7,667.76l-.46-.23c.17.08.32.16.46.23"/>
    <path class="st13" d="M775.01,666.92l-1.19-.59c.44.21.83.41,1.19.59"/>
    <path class="st13" d="M773.82,666.33l-.93-.46c.32.16.64.31.93.46"/>
    <path class="st13" d="M771.26,665.07l-1.25-.62c.44.21.86.42,1.25.62"/>
    <path class="st13" d="M769.33,664.11l-1.46-.72c.51.25,1,.49,1.46.72"/>
    <path class="st13" d="M767.87,663.39l-3.37-1.67c1.23.61,2.35,1.16,3.37,1.67"/>
    <path class="st13" d="M762.57,660.77l-2.1-1.04c.73.36,1.43.7,2.1,1.04"/>
    <path class="st13" d="M759.36,659.18l-6.29-3.11c2.3,1.13,4.39,2.16,6.29,3.11"/>
    <path class="st13" d="M753.07,656.07l-2.85-1.42c.99.49,1.94.96,2.85,1.42"/>
  </g>
  <polyline class="st1" points="722.61 641 722.61 619.72 794.27 619.72 794.27 676.45"/>
  <polyline class="st1" points="747.15 653.14 722.61 641 721.69 640.55 721.69 779.37 794.27 779.37 794.27 778.96 794.27 676.45 778.34 668.57 778.3 668.55"/>
  <polyline class="st1" points="759.36 659.18 753.07 656.07 750.22 654.66"/>
  <line class="st1" x1="762.57" y1="660.77" x2="760.48" y2="659.73"/>
  <polyline class="st1" points="769.33 664.11 767.87 663.39 764.5 661.73"/>
  <line class="st1" x1="771.26" y1="665.07" x2="770.01" y2="664.45"/>
  <polyline class="st1" points="775.01 666.92 773.82 666.33 772.89 665.87"/>
  <line class="st1" x1="776.7" y1="667.76" x2="776.25" y2="667.53"/>
  <line class="st1" x1="777.83" y1="668.32" x2="777.6" y2="668.21"/>
  <line class="st1" x1="741.82" y1="637.04" x2="775.05" y2="637.04"/>
  <g class="st7">
    <path class="st1" d="M775.05,637.04c1.82,0,3.29,1.47,3.29,3.28"/>
    <path class="st1" d="M738.53,640.31c0-1.81,1.47-3.28,3.29-3.28"/>
    <path class="st1" d="M738.53,640.31v8.56c3.11,1.53,5.97,2.96,8.62,4.27,1.06.51,2.08,1.02,3.06,1.52.99.49,1.94.95,2.85,1.42,2.31,1.13,4.39,2.16,6.29,3.11.37.19.75.36,1.11.55.73.35,1.42.7,2.09,1.04.67.32,1.31.64,1.93.95,1.22.61,2.35,1.16,3.37,1.66.51.26,1,.49,1.46.72.23.11.46.22.68.34.44.21.86.42,1.25.62.58.29,1.12.55,1.63.8.32.16.63.31.93.46.44.21.83.41,1.19.59.48.23.88.44,1.24.61.17.08.32.16.46.23.38.19.67.33.9.45.08.03.16.07.22.1.31.15.43.21.48.24l.04.02v-28.26"/>
  </g>
  <g class="st5">
    <path class="st13" d="M606.42,1110.46c7.7,0,15.41,0,23.11,0,8.9,0,16.09,6.4,16.08,14.3,0,7.9-7.2,14.29-16.1,14.28-7.7,0-15.41,0-23.11-.02,0-9.53,0-19.05.02-28.58"/>
  </g>
  <g class="st6">
    <path class="st3" d="M606.42,1110.46c7.7,0,15.41,0,23.11,0,8.9,0,16.09,6.4,16.08,14.3,0,7.9-7.2,14.29-16.1,14.28-7.7,0-15.41,0-23.11-.02,0-9.53,0-19.05.02-28.58Z"/>
  </g>
  <rect class="st13" x="606.46" y="1013.37" width="69.65" height="70.4"/>
  <polyline class="st3" points="606.46 1013.37 676.11 1013.37 676.11 1021.72"/>
  <line class="st3" x1="606.46" y1="1013.37" x2="606.46" y2="1083.22"/>
  <line class="st3" x1="607.61" y1="1083.77" x2="675.5" y2="1083.77"/>
  <polyline class="st3" points="607.61 1083.77 606.46 1083.77 606.46 1083.22"/>
  <polyline class="st3" points="676.11 1082.74 676.11 1083.77 675.5 1083.77"/>
  <line class="st3" x1="676.11" y1="1082.74" x2="676.11" y2="1021.72"/>
  <line class="st3" x1="606.46" y1="1048.3" x2="625.81" y2="1048.3"/>
  <g class="st12">
    <path class="st3" d="M625.71,1044.06c-2.39,0-4.33,1.94-4.33,4.33s1.94,4.33,4.33,4.33,4.33-1.94,4.33-4.33-1.94-4.33-4.33-4.33Z"/>
    <path class="st3" d="M625.71,1044.06c-2.39,0-4.33,1.94-4.33,4.33s1.94,4.33,4.33,4.33,4.33-1.94,4.33-4.33-1.94-4.33-4.33-4.33Z"/>
  </g>
  <g class="st9">
    <path class="st13" d="M731.03,1161.6v40.45h-56.78v-40.45c0-.9.54-1.62,1.21-1.62h54.62c.53,0,.95.72.95,1.62M730.08,1186.93v-23.7c0-.9-.54-1.62-1.21-1.62h-52.21c-.66,0-1.2.72-1.2,1.62v23.7c0,.91.54,1.64,1.2,1.64h52.21c.67,0,1.21-.73,1.21-1.64M706,1195.77c0-1.77-1.45-3.21-3.23-3.21s-3.21,1.45-3.21,3.21,1.45,3.23,3.21,3.23,3.23-1.45,3.23-3.23"/>
    <path class="st13" d="M730.08,1163.23v23.7c0,.91-.54,1.64-1.21,1.64h-52.2c-.66,0-1.2-.73-1.2-1.64v-23.7c0-.91.54-1.62,1.2-1.62h52.2c.67,0,1.21.71,1.21,1.62M707.07,1174.65c0-2.37-1.93-4.28-4.3-4.28s-4.28,1.91-4.28,4.28,1.92,4.3,4.28,4.3,4.3-1.93,4.3-4.3"/>
    <path class="st13" d="M702.77,1170.37c2.37,0,4.3,1.91,4.3,4.28s-1.93,4.3-4.3,4.3-4.28-1.93-4.28-4.3,1.91-4.28,4.28-4.28M705.08,1174.65c0-1.27-1.04-2.31-2.31-2.31s-2.31,1.04-2.31,2.31,1.04,2.31,2.31,2.31,2.31-1.04,2.31-2.31"/>
    <path class="st13" d="M702.77,1192.56c1.78,0,3.23,1.45,3.23,3.21s-1.45,3.23-3.23,3.23-3.21-1.45-3.21-3.23,1.45-3.21,3.21-3.21"/>
    <path class="st13" d="M702.77,1172.34c1.27,0,2.31,1.04,2.31,2.31s-1.04,2.31-2.31,2.31-2.31-1.04-2.31-2.31,1.04-2.31,2.31-2.31"/>
  </g>
  <g class="st8">
    <path class="st3" d="M699.55,1195.77c0-1.77,1.45-3.21,3.21-3.21s3.23,1.45,3.23,3.21-1.45,3.23-3.23,3.23-3.21-1.45-3.21-3.23Z"/>
    <path class="st3" d="M698.49,1174.65c0-2.37,1.92-4.28,4.28-4.28s4.3,1.91,4.3,4.28-1.93,4.3-4.3,4.3-4.28-1.93-4.28-4.3Z"/>
    <path class="st3" d="M700.46,1174.65c0-1.27,1.04-2.31,2.31-2.31s2.31,1.04,2.31,2.31-1.04,2.31-2.31,2.31-2.31-1.04-2.31-2.31Z"/>
    <path class="st3" d="M730.08,1186.93v-23.7c0-.91-.54-1.62-1.21-1.62h-52.21c-.66,0-1.2.71-1.2,1.62v23.7c0,.91.54,1.64,1.2,1.64h52.21c.67,0,1.21-.73,1.21-1.64Z"/>
  </g>
  <line class="st3" x1="674.26" y1="1189.55" x2="674.26" y2="1202.06"/>
  <g class="st11">
    <path class="st3" d="M731.04,1202.06v-40.45c0-.91-.42-1.62-.95-1.62h-54.61c-.67,0-1.22.71-1.22,1.62v12.82"/>
  </g>
  <line class="st3" x1="674.26" y1="1189.55" x2="674.26" y2="1174.42"/>
  <line class="st3" x1="674.26" y1="1202.06" x2="731.04" y2="1202.06"/>
  <polygon class="st13" points="443.54 837.52 435.44 838.87 428.02 842.59 428.02 842.92 428.36 842.92 429.03 842.92 429.37 842.92 429.71 842.92 430.04 842.92 431.73 841.91 433.42 841.24 434.77 841.57 435.78 842.59 435.78 843.26 435.44 843.6 430.04 848.32 426.33 854.4 460.76 854.4 457.05 848.32 451.65 843.6 450.97 843.26 451.31 842.59 452.32 841.57 453.67 841.24 455.36 841.91 457.05 842.92 457.38 842.92 457.72 842.92 458.06 842.92 458.73 842.92 459.07 842.59 451.65 838.87 443.54 837.52"/>
  <polygon class="st13" points="491.47 837.52 483.04 838.87 475.95 842.59 475.95 842.92 476.29 842.92 476.62 842.92 477.3 842.92 477.64 842.92 477.97 842.92 479.66 841.91 481.35 841.24 482.7 841.57 483.71 842.59 483.71 843.26 483.37 843.6 477.64 848.32 474.26 854.4 508.69 854.4 504.98 848.32 499.24 843.6 498.9 843.26 498.9 842.59 499.91 841.57 501.6 841.24 503.29 841.91 504.64 842.92 504.98 842.92 505.65 842.92 505.99 842.92 506.33 842.92 506.66 842.92 507 842.59 499.58 838.87 491.47 837.52"/>
  <polygon class="st13" points="508.69 854.4 474.26 854.4 460.76 854.4 426.33 854.4 419.58 854.4 419.58 918.19 426.33 918.19 460.76 918.19 474.26 918.19 508.69 918.19 515.1 918.19 515.1 854.4 508.69 854.4"/>
  <polygon class="st13" points="426.33 918.19 430.04 924.27 435.44 928.99 435.78 929.33 435.78 930.01 434.77 931.02 433.42 931.36 431.73 930.68 430.04 929.67 429.71 929.67 429.37 929.67 429.03 929.67 428.36 929.67 428.02 929.67 428.02 930.01 435.44 933.72 443.55 935.07 451.65 933.72 459.07 930.01 458.74 929.67 458.06 929.67 457.72 929.67 457.39 929.67 457.05 929.67 455.36 930.68 453.67 931.36 452.32 931.02 451.31 930.01 450.97 929.33 451.65 928.99 457.05 924.27 460.76 918.19 426.33 918.19"/>
  <polygon class="st13" points="474.26 918.19 477.64 924.27 483.37 928.99 483.71 929.33 483.71 930.01 482.7 931.02 481.35 931.36 479.66 930.68 477.97 929.67 477.64 929.67 477.3 929.67 476.62 929.67 476.29 929.67 475.95 929.67 475.95 930.01 483.04 933.72 491.47 935.07 499.58 933.72 507 930.01 506.66 929.67 506.33 929.67 505.99 929.67 505.65 929.67 504.98 929.67 504.64 929.67 503.29 930.68 501.6 931.36 499.91 931.02 498.9 930.01 498.9 929.33 499.24 928.99 504.98 924.27 508.69 918.19 474.26 918.19"/>
  <line class="st3" x1="430.05" y1="929.67" x2="429.71" y2="929.67"/>
  <line class="st3" x1="429.71" y1="929.67" x2="429.37" y2="929.67"/>
  <line class="st3" x1="428.36" y1="929.67" x2="429.03" y2="929.67"/>
  <line class="st3" x1="429.03" y1="929.67" x2="429.37" y2="929.67"/>
  <line class="st3" x1="428.02" y1="930.01" x2="428.02" y2="929.67"/>
  <line class="st3" x1="428.02" y1="929.67" x2="428.36" y2="929.67"/>
  <line class="st3" x1="435.78" y1="930.01" x2="434.77" y2="931.02"/>
  <line class="st3" x1="434.77" y1="931.02" x2="433.42" y2="931.36"/>
  <line class="st3" x1="433.42" y1="931.36" x2="431.73" y2="930.68"/>
  <line class="st3" x1="431.73" y1="930.68" x2="430.05" y2="929.67"/>
  <line class="st3" x1="435.45" y1="928.99" x2="435.78" y2="929.33"/>
  <line class="st3" x1="435.78" y1="929.33" x2="435.78" y2="930.01"/>
  <line class="st3" x1="435.45" y1="928.99" x2="430.05" y2="924.27"/>
  <line class="st3" x1="430.05" y1="924.27" x2="426.33" y2="918.19"/>
  <line class="st3" x1="457.05" y1="929.67" x2="457.39" y2="929.67"/>
  <line class="st3" x1="457.39" y1="929.67" x2="457.72" y2="929.67"/>
  <line class="st3" x1="458.74" y1="929.67" x2="458.06" y2="929.67"/>
  <line class="st3" x1="458.06" y1="929.67" x2="457.72" y2="929.67"/>
  <line class="st3" x1="459.07" y1="930.01" x2="458.74" y2="929.67"/>
  <line class="st3" x1="451.31" y1="930.01" x2="452.32" y2="931.02"/>
  <line class="st3" x1="452.32" y1="931.02" x2="453.67" y2="931.36"/>
  <line class="st3" x1="453.67" y1="931.36" x2="455.36" y2="930.68"/>
  <line class="st3" x1="455.36" y1="930.68" x2="457.05" y2="929.67"/>
  <line class="st3" x1="451.65" y1="928.99" x2="450.97" y2="929.33"/>
  <line class="st3" x1="450.97" y1="929.33" x2="451.31" y2="930.01"/>
  <line class="st3" x1="451.65" y1="928.99" x2="457.05" y2="924.27"/>
  <line class="st3" x1="457.05" y1="924.27" x2="460.76" y2="918.19"/>
  <line class="st3" x1="428.02" y1="930.01" x2="435.44" y2="933.72"/>
  <line class="st3" x1="435.45" y1="933.72" x2="443.55" y2="935.07"/>
  <line class="st3" x1="443.55" y1="935.07" x2="451.65" y2="933.72"/>
  <line class="st3" x1="451.65" y1="933.72" x2="459.07" y2="930.01"/>
  <line class="st3" x1="430.05" y1="842.92" x2="429.71" y2="842.92"/>
  <line class="st3" x1="429.71" y1="842.92" x2="429.37" y2="842.92"/>
  <line class="st3" x1="428.36" y1="842.92" x2="429.03" y2="842.92"/>
  <line class="st3" x1="429.03" y1="842.92" x2="429.37" y2="842.92"/>
  <line class="st3" x1="428.02" y1="842.59" x2="428.02" y2="842.92"/>
  <line class="st3" x1="428.02" y1="842.92" x2="428.36" y2="842.92"/>
  <line class="st3" x1="435.78" y1="842.59" x2="434.77" y2="841.57"/>
  <line class="st3" x1="434.77" y1="841.57" x2="433.42" y2="841.24"/>
  <line class="st3" x1="433.42" y1="841.24" x2="431.73" y2="841.91"/>
  <line class="st3" x1="431.73" y1="841.91" x2="430.05" y2="842.92"/>
  <line class="st3" x1="435.45" y1="843.6" x2="435.78" y2="843.26"/>
  <line class="st3" x1="435.78" y1="843.26" x2="435.78" y2="842.59"/>
  <line class="st3" x1="435.45" y1="843.6" x2="430.05" y2="848.32"/>
  <line class="st3" x1="430.05" y1="848.32" x2="426.33" y2="854.4"/>
  <line class="st3" x1="457.05" y1="842.92" x2="457.39" y2="842.92"/>
  <line class="st3" x1="457.39" y1="842.92" x2="457.72" y2="842.92"/>
  <line class="st3" x1="458.74" y1="842.92" x2="458.06" y2="842.92"/>
  <line class="st3" x1="458.06" y1="842.92" x2="457.72" y2="842.92"/>
  <line class="st3" x1="459.07" y1="842.59" x2="458.74" y2="842.92"/>
  <line class="st3" x1="451.31" y1="842.59" x2="452.32" y2="841.57"/>
  <line class="st3" x1="452.32" y1="841.57" x2="453.67" y2="841.24"/>
  <line class="st3" x1="453.67" y1="841.24" x2="455.36" y2="841.91"/>
  <line class="st3" x1="455.36" y1="841.91" x2="457.05" y2="842.92"/>
  <line class="st3" x1="451.65" y1="843.6" x2="450.97" y2="843.26"/>
  <line class="st3" x1="450.97" y1="843.26" x2="451.31" y2="842.59"/>
  <line class="st3" x1="451.65" y1="843.6" x2="457.05" y2="848.32"/>
  <line class="st3" x1="457.05" y1="848.32" x2="460.76" y2="854.4"/>
  <line class="st3" x1="428.02" y1="842.59" x2="435.44" y2="838.87"/>
  <line class="st3" x1="435.45" y1="838.87" x2="443.55" y2="837.52"/>
  <line class="st3" x1="443.55" y1="837.52" x2="451.65" y2="838.87"/>
  <line class="st3" x1="451.65" y1="838.87" x2="459.07" y2="842.59"/>
  <line class="st3" x1="419.58" y1="854.4" x2="419.58" y2="918.19"/>
  <line class="st3" x1="504.64" y1="929.67" x2="504.98" y2="929.67"/>
  <line class="st3" x1="504.98" y1="929.67" x2="505.65" y2="929.67"/>
  <line class="st3" x1="506.33" y1="929.67" x2="505.99" y2="929.67"/>
  <line class="st3" x1="505.99" y1="929.67" x2="505.65" y2="929.67"/>
  <line class="st3" x1="507" y1="930.01" x2="506.67" y2="929.67"/>
  <line class="st3" x1="506.66" y1="929.67" x2="506.33" y2="929.67"/>
  <line class="st3" x1="498.9" y1="930.01" x2="499.91" y2="931.02"/>
  <line class="st3" x1="499.91" y1="931.02" x2="501.6" y2="931.36"/>
  <line class="st3" x1="501.6" y1="931.36" x2="503.29" y2="930.68"/>
  <line class="st3" x1="503.29" y1="930.68" x2="504.64" y2="929.67"/>
  <line class="st3" x1="499.24" y1="928.99" x2="498.9" y2="929.33"/>
  <line class="st3" x1="498.9" y1="929.33" x2="498.9" y2="930.01"/>
  <line class="st3" x1="499.24" y1="928.99" x2="504.98" y2="924.27"/>
  <line class="st3" x1="504.98" y1="924.27" x2="508.69" y2="918.19"/>
  <line class="st3" x1="477.97" y1="929.67" x2="477.64" y2="929.67"/>
  <line class="st3" x1="477.64" y1="929.67" x2="477.3" y2="929.67"/>
  <line class="st3" x1="476.29" y1="929.67" x2="476.62" y2="929.67"/>
  <line class="st3" x1="476.62" y1="929.67" x2="477.3" y2="929.67"/>
  <line class="st3" x1="475.95" y1="930.01" x2="475.95" y2="929.67"/>
  <line class="st3" x1="475.95" y1="929.67" x2="476.29" y2="929.67"/>
  <line class="st3" x1="483.71" y1="930.01" x2="482.7" y2="931.02"/>
  <line class="st3" x1="482.7" y1="931.02" x2="481.35" y2="931.36"/>
  <line class="st3" x1="481.35" y1="931.36" x2="479.66" y2="930.68"/>
  <line class="st3" x1="479.66" y1="930.68" x2="477.97" y2="929.67"/>
  <line class="st3" x1="483.37" y1="928.99" x2="483.71" y2="929.33"/>
  <line class="st3" x1="483.71" y1="929.33" x2="483.71" y2="930.01"/>
  <line class="st3" x1="483.37" y1="928.99" x2="477.64" y2="924.27"/>
  <line class="st3" x1="477.64" y1="924.27" x2="474.26" y2="918.19"/>
  <line class="st3" x1="507" y1="930.01" x2="499.58" y2="933.72"/>
  <line class="st3" x1="499.58" y1="933.72" x2="491.47" y2="935.07"/>
  <line class="st3" x1="491.47" y1="935.07" x2="483.04" y2="933.72"/>
  <line class="st3" x1="483.04" y1="933.72" x2="475.95" y2="930.01"/>
  <line class="st3" x1="504.64" y1="842.92" x2="504.98" y2="842.92"/>
  <line class="st3" x1="504.98" y1="842.92" x2="505.65" y2="842.92"/>
  <line class="st3" x1="506.33" y1="842.92" x2="505.99" y2="842.92"/>
  <line class="st3" x1="505.99" y1="842.92" x2="505.65" y2="842.92"/>
  <line class="st3" x1="507" y1="842.59" x2="506.67" y2="842.92"/>
  <line class="st3" x1="506.66" y1="842.92" x2="506.33" y2="842.92"/>
  <line class="st3" x1="498.9" y1="842.59" x2="499.91" y2="841.57"/>
  <line class="st3" x1="499.91" y1="841.57" x2="501.6" y2="841.24"/>
  <line class="st3" x1="501.6" y1="841.24" x2="503.29" y2="841.91"/>
  <line class="st3" x1="503.29" y1="841.91" x2="504.64" y2="842.92"/>
  <line class="st3" x1="499.24" y1="843.6" x2="498.9" y2="843.26"/>
  <line class="st3" x1="498.9" y1="843.26" x2="498.9" y2="842.59"/>
  <line class="st3" x1="499.24" y1="843.6" x2="504.98" y2="848.32"/>
  <line class="st3" x1="504.98" y1="848.32" x2="508.69" y2="854.4"/>
  <line class="st3" x1="477.97" y1="842.92" x2="477.64" y2="842.92"/>
  <line class="st3" x1="477.64" y1="842.92" x2="477.3" y2="842.92"/>
  <line class="st3" x1="476.29" y1="842.92" x2="476.62" y2="842.92"/>
  <line class="st3" x1="476.62" y1="842.92" x2="477.3" y2="842.92"/>
  <line class="st3" x1="475.95" y1="842.59" x2="475.95" y2="842.92"/>
  <line class="st3" x1="475.95" y1="842.92" x2="476.29" y2="842.92"/>
  <line class="st3" x1="483.71" y1="842.59" x2="482.7" y2="841.57"/>
  <line class="st3" x1="482.7" y1="841.57" x2="481.35" y2="841.24"/>
  <line class="st3" x1="481.35" y1="841.24" x2="479.66" y2="841.91"/>
  <line class="st3" x1="479.66" y1="841.91" x2="477.97" y2="842.92"/>
  <line class="st3" x1="483.37" y1="843.6" x2="483.71" y2="843.26"/>
  <line class="st3" x1="483.71" y1="843.26" x2="483.71" y2="842.59"/>
  <line class="st3" x1="483.37" y1="843.6" x2="477.64" y2="848.32"/>
  <line class="st3" x1="477.64" y1="848.32" x2="474.26" y2="854.4"/>
  <line class="st3" x1="507" y1="842.59" x2="499.58" y2="838.87"/>
  <line class="st3" x1="499.58" y1="838.87" x2="491.47" y2="837.52"/>
  <line class="st3" x1="491.47" y1="837.52" x2="483.04" y2="838.87"/>
  <line class="st3" x1="483.04" y1="838.87" x2="475.95" y2="842.59"/>
  <line class="st3" x1="515.1" y1="854.4" x2="515.1" y2="918.19"/>
  <polyline class="st3" points="515.1 918.19 508.69 918.19 474.26 918.19 460.76 918.19 426.33 918.19 419.58 918.19"/>
  <polyline class="st3" points="419.58 854.4 426.33 854.4 460.76 854.4 474.26 854.4 508.69 854.4 515.1 854.4"/>
  <line class="st3" x1="575.84" y1="1076.53" x2="575.84" y2="1065.86"/>
  <rect class="st3" x="504.52" y="1034.88" width="95.37" height="47.78"/>
  <line class="st3" x1="513.65" y1="1049.89" x2="524.09" y2="1049.89"/>
  <line class="st3" x1="513.65" y1="1069.5" x2="524.09" y2="1069.5"/>
  <line class="st3" x1="518.8" y1="1064.35" x2="518.8" y2="1074.78"/>
  <line class="st3" x1="518.8" y1="1044.6" x2="518.8" y2="1055.03"/>
  <rect class="st3" x="507.67" y="1040.01" width="22.95" height="39.36"/>
  <rect class="st3" x="562.5" y="1045.75" width="26.55" height="26.54"/>
  <rect class="st3" x="555.9" y="1039.14" width="39.89" height="39.75"/>
  <polygon class="st13" points="485.23 722.48 485.23 774.46 486.58 777.16 489.28 778.51 501.43 778.51 501.43 722.48 485.23 722.48"/>
  <polygon class="st13" points="501.43 722.48 501.43 778.51 541.26 778.51 543.96 777.16 544.97 774.46 544.97 722.48 501.43 722.48"/>
  <polygon class="st13" points="489.28 666.79 486.58 667.8 485.23 670.84 485.23 722.48 501.43 722.48 501.43 666.79 489.28 666.79"/>
  <polygon class="st13" points="501.43 666.79 501.43 722.48 544.97 722.48 544.97 670.84 543.96 667.8 541.26 666.79 501.43 666.79"/>
  <polyline class="st3" points="501.43 666.79 501.43 722.48 501.43 778.51"/>
  <polyline class="st3" points="544.97 722.48 501.43 722.48 485.23 722.48"/>
  <line class="st3" x1="489.28" y1="778.51" x2="486.58" y2="777.16"/>
  <line class="st3" x1="486.58" y1="777.16" x2="485.23" y2="774.46"/>
  <line class="st3" x1="489.28" y1="666.79" x2="486.58" y2="667.8"/>
  <line class="st3" x1="486.58" y1="667.8" x2="485.23" y2="670.84"/>
  <line class="st3" x1="541.25" y1="778.51" x2="543.95" y2="777.16"/>
  <line class="st3" x1="543.95" y1="777.16" x2="544.97" y2="774.46"/>
  <line class="st3" x1="541.25" y1="666.79" x2="543.95" y2="667.8"/>
  <line class="st3" x1="543.95" y1="667.8" x2="544.97" y2="670.84"/>
  <polyline class="st3" points="541.25 666.79 501.43 666.79 489.27 666.79"/>
  <polyline class="st3" points="485.23 670.84 485.23 722.48 485.23 774.46"/>
  <polyline class="st3" points="489.28 778.51 501.43 778.51 541.26 778.51"/>
  <polyline class="st3" points="544.97 774.46 544.97 722.48 544.97 670.84"/>
  <g class="st10">
    <path class="st13" d="M562.65,708.36c4.5-14.35,19.79-22.33,34.14-17.83,14.35,4.5,22.33,19.79,17.82,34.13-4.51,14.35-19.79,22.33-34.13,17.83-14.35-4.51-22.33-19.79-17.83-34.13"/>
    <path class="st3" d="M562.65,708.36c4.5-14.35,19.79-22.33,34.14-17.83,14.35,4.5,22.33,19.79,17.82,34.13-4.51,14.35-19.79,22.33-34.13,17.83-14.35-4.51-22.33-19.79-17.83-34.13Z"/>
  </g>
</svg>