<?xml version="1.0" encoding="UTF-8"?>
<svg id="Layer_1" xmlns="http://www.w3.org/2000/svg" xmlns:xlink="http://www.w3.org/1999/xlink" version="1.1" viewBox="0 0 1200 1697.14">
  <!-- Generator: Adobe Illustrator 29.6.0, SVG Export Plug-In . SVG Version: 2.1.1 Build 207)  -->
  <defs>
    <style>
      .st0, .st1, .st2, .st3 {
        fill: none;
      }

      .st1 {
        stroke: #0d0e1c;
      }

      .st1, .st2, .st3 {
        stroke-linecap: round;
        stroke-linejoin: round;
      }

      .st1, .st3 {
        stroke-width: .08px;
      }

      .st2 {
        stroke-width: .14px;
      }

      .st2, .st3 {
        stroke: #000;
      }

      .st4 {
        clip-path: url(#clippath-1);
      }

      .st5 {
        clip-path: url(#clippath-3);
      }

      .st6 {
        clip-path: url(#clippath-4);
      }

      .st7 {
        clip-path: url(#clippath-2);
      }

      .st8 {
        clip-path: url(#clippath-7);
      }

      .st9 {
        clip-path: url(#clippath-6);
      }

      .st10 {
        clip-path: url(#clippath-9);
      }

      .st11 {
        clip-path: url(#clippath-8);
      }

      .st12 {
        clip-path: url(#clippath-5);
      }

      .st13 {
        fill: #fff;
      }

      .st14 {
        fill: #ece9e5;
      }

      .st15 {
        fill: #302c35;
      }

      .st16 {
        clip-path: url(#clippath);
      }
    </style>
    <clipPath id="clippath">
      <rect class="st0" x="333.07" y="458.57" width="533.86" height="780"/>
    </clipPath>
    <clipPath id="clippath-1">
      <rect class="st0" x="695.7" y="745" width="72.57" height="159.65"/>
    </clipPath>
    <clipPath id="clippath-2">
      <rect class="st0" x="333.07" y="458.57" width="533.86" height="780"/>
    </clipPath>
    <clipPath id="clippath-3">
      <rect class="st0" x="662.41" y="973" width="28.6" height="39.22"/>
    </clipPath>
    <clipPath id="clippath-4">
      <rect class="st0" x="333.07" y="458.57" width="533.86" height="780"/>
    </clipPath>
    <clipPath id="clippath-5">
      <rect class="st0" x="333.07" y="458.57" width="533.86" height="780"/>
    </clipPath>
    <clipPath id="clippath-6">
      <rect class="st0" x="734.03" y="1056.45" width="27.51" height="37.12"/>
    </clipPath>
    <clipPath id="clippath-7">
      <rect class="st0" x="333.07" y="458.57" width="533.86" height="780"/>
    </clipPath>
    <clipPath id="clippath-8">
      <rect class="st0" x="333.07" y="458.57" width="533.86" height="780"/>
    </clipPath>
    <clipPath id="clippath-9">
      <rect class="st0" x="333.07" y="458.57" width="533.86" height="780"/>
    </clipPath>
  </defs>
  <rect class="st14" x="448.2" y="641.75" width="338.88" height="481.65"/>
  <rect class="st14" x="484.65" y="536.33" width="249.43" height="135.79"/>
  <rect class="st13" x="465.82" y="989.4" width="47.78" height="117.89"/>
  <rect class="st13" x="465.41" y="887.81" width="47.93" height="95.86"/>
  <rect class="st13" x="510.94" y="646.14" width="198.63" height="11.47"/>
  <rect class="st15" x="708.09" y="672.13" width="78.98" height="16.2"/>
  <rect class="st15" x="632.83" y="1107.54" width="136.7" height="15.87"/>
  <rect class="st15" x="448.2" y="1107.54" width="113.07" height="15.87"/>
  <rect class="st15" x="769.52" y="688.33" width="17.55" height="435.07"/>
  <rect class="st15" x="730.03" y="534.48" width="4.05" height="107.27"/>
  <rect class="st15" x="484.65" y="534.48" width="4.05" height="107.27"/>
  <rect class="st15" x="488.36" y="534.48" width="245.72" height="3.71"/>
  <rect class="st15" x="448.2" y="688.33" width="17.55" height="419.21"/>
  <rect class="st15" x="465.41" y="983.67" width="55.69" height="5.74"/>
  <rect class="st15" x="641.6" y="1100.79" width="130.4" height="7.99"/>
  <rect class="st15" x="641.6" y="1092.01" width="5.4" height="8.77"/>
  <rect class="st15" x="647" y="966.45" width="125" height="5.06"/>
  <rect class="st15" x="762.43" y="971.51" width="8.4" height="129.27"/>
  <rect class="st15" x="647" y="971.51" width="115.44" height="1.35"/>
  <rect class="st15" x="647" y="1092.01" width="1.35" height="7.43"/>
  <rect class="st15" x="641.6" y="966.45" width="5.4" height="54.68"/>
  <rect class="st15" x="647" y="967.13" width="1.35" height="54.01"/>
  <rect class="st15" x="647" y="1099.44" width="115.44" height="1.35"/>
  <rect class="st15" x="761.42" y="971.52" width="1.01" height="127.92"/>
  <rect class="st15" x="649.7" y="906.71" width="121.14" height="7.76"/>
  <rect class="st15" x="641.6" y="906.71" width="8.44" height="59.74"/>
  <rect class="st15" x="708.09" y="641.75" width="78.98" height="30.38"/>
  <rect class="st15" x="448.23" y="672.13" width="62.72" height="16.2"/>
  <rect class="st15" x="448.23" y="641.75" width="62.72" height="30.38"/>
  <path class="st3" d="M769.52,914.47v51.98M769.52,966.45h-119.49M650.04,966.45v-51.98M650.04,914.47h119.49M708.09,672.13v16.2M708.09,688.33h61.43M465.75,688.33h45.23M510.98,688.33v-16.2M448.2,1123.4h112.4M560.59,1107.54h-94.84M633.84,1123.4h135.68M630.46,1107.54h0M632.83,1107.54h1.01M787.08,1123.4v-208.93M787.08,906.71v-218.38M630.46,1041.05l-13.16,1.35M617.3,1042.4l-12.49,3.71M604.81,1046.11l-11.48,6.08M593.33,1052.19l-10.12,8.44M583.21,1060.62l-8.1,9.79M575.11,1070.41l-6.42,11.81M568.69,1082.23l-3.71,12.49M564.98,1094.71l-1.35,12.83M561.27,1107.54v15.87M632.83,1123.4v-15.87M630.46,1107.54v-66.49M627.09,1107.54h3.37M633.84,1107.54h-1.01M630.46,1107.54h0M704.72,570.53l-13.16,1.35M691.56,571.88l-12.49,3.38M679.07,575.26l-11.82,5.4M667.25,580.66l-10.8,7.76M656.45,588.42l-9.45,9.11M647,597.53l-7.43,10.8M639.58,608.34l-5.74,11.81M633.84,620.15l-3.38,12.83M630.46,632.98l-1.01,13.16M704.72,646.14v-75.61M699.99,646.48v4.05M634.51,646.48h65.48M634.51,650.53v-4.05M699.99,650.53h-65.48M630.8,657.61h72.57M699.99,646.14h-65.48M699.99,652.21h-65.48M630.8,652.21v5.4M703.37,652.21v5.4M703.37,652.21h-72.57M707.08,646.14v11.47M699.99,646.14h7.09M699.99,652.21v-6.07M703.37,652.21h-3.38M703.37,657.61v-5.4M707.08,657.61h-3.71M630.8,652.21v5.4M634.51,652.21h-3.71M634.51,646.14v6.07M627.09,646.14h7.42M627.09,657.61v-11.47M630.8,657.61h-3.71M516.04,650.53h105.98M622.02,650.53v-4.05M622.02,646.48h-105.98M516.04,646.48v4.05M622.02,657.61h-105.98M516.04,646.14h105.98M622.02,657.61h4.05M626.07,657.61v-11.47M626.07,646.14h-4.05M622.02,646.14v11.47M511.99,657.61h4.05M516.04,657.61v-11.47M516.04,646.14h-4.05M511.99,646.14v11.47M488.7,557.71v84.04M730.03,641.75v-84.04M730.03,641.75h4.05M734.08,641.75v-107.27M734,534.48h-249.43M484.65,534.48v107.27M484.65,641.75h4.05M488.7,641.75v-103.56M488.68,538.19h241.33M730.03,538.19v103.56M769.52,966.45l-119.49-51.98M769.52,966.45h-119.49M650.04,966.45v-51.98M650.04,914.47h119.49M769.52,914.47v51.98"/>
  <path class="st3" d="M465.75,935.74h3.38M471.49,935.74h2.36M476.21,935.74h2.36M480.94,935.74h2.36M485.66,935.74h2.7M490.73,935.74h2.36M495.45,935.74h2.36M500.18,935.74h2.36M504.9,935.74h2.36M509.63,935.74h3.71M513.34,935.74v-1.35M513.34,932.03v-2.36M513.34,927.3v-2.36M513.34,922.57v-2.36M513.34,917.85v-2.36M513.34,913.12v-2.36M513.34,908.06v-2.36M513.34,903.34v-2.36M513.34,898.61v-2.37M513.34,893.88v-2.36M513.34,889.16v-1.35M513.34,887.81h-3.71M507.27,887.81h-2.36M502.54,887.81h-2.36M497.81,887.81h-2.36M493.09,887.81h-2.36M488.37,887.81h-2.7M483.3,887.81h-2.36M478.57,887.81h-2.36M473.85,887.81h-2.36M469.13,887.81h-3.38M448.2,688.33v419.21M465.75,983.67h3.38M471.49,983.67h2.36M476.21,983.67h2.36M480.94,983.67h2.36M485.66,983.67h2.7M490.73,983.67h2.36M495.45,983.67h2.36M500.18,983.67h2.36M504.9,983.67h2.36M509.63,983.67h3.71M513.34,983.67v-1.35M513.34,979.95v-2.36M513.34,975.23v-2.36M513.34,970.5v-2.36M513.34,965.78v-2.7M513.34,960.72v-2.36M513.34,955.99v-2.36M513.34,951.26v-2.36M513.34,946.54v-2.36M513.34,941.81v-2.36M513.34,937.09v-1.35M513.34,935.74h-3.71M507.27,935.74h-2.36M502.54,935.74h-2.36M497.81,935.74h-2.36M493.09,935.74h-2.36M488.37,935.74h-2.7M483.3,935.74h-2.36M478.57,935.74h-2.36M473.85,935.74h-2.36M469.13,935.74h-3.38M465.75,989.41h55.36M521.11,989.41v-5.74M521.11,983.67h-55.36M448.2,989.41v-5.74M510.98,655.93v32.41M465.75,688.33v295.33M465.75,989.41v118.13M560.59,1107.54h.68M563.63,1107.54h63.46M630.46,1107.54h0M632.83,1107.54h8.78M641.6,906.71h127.92M769.52,906.71v-218.38M708.09,688.33v-32.41M708.09,655.93h-1.01M627.09,655.93h-1.01M511.99,655.93h-1.01M762.44,1123.4h-129.61M633.84,1107.54h-1.01M630.46,1107.54h0M561.27,1123.4h-113.07"/>
  <path class="st3" d="M641.6,1100.79v6.75M641.6,1092.01v8.78M641.6,966.45v54.68M767.84,966.45h-117.8"/>
  <path class="st3" d="M712.82,1089.31l-1.35-12.82M711.47,1076.49l-3.72-12.15M707.76,1064.33l-6.07-11.47M701.68,1052.86l-8.1-10.13M693.58,1042.73l-10.13-8.1M683.46,1034.63l-11.48-6.08M671.98,1028.56l-12.15-3.71M659.83,1024.84l-12.83-1.35M648.35,1021.13h-6.75M641.6,1092.01h6.75M647,1089.31h65.82M647,1023.49v65.82"/>
  <path class="st3" d="M648.35,972.87h113.07M648.35,1021.13v-48.27M648.35,1099.44v-7.43M761.42,1099.44h-113.07M761.42,972.87v126.57"/>
  <path class="st3" d="M769.19,906.71h-7.76M761.42,906.71v7.76M761.42,914.47h7.76M713.5,906.71h-63.8M650.04,914.47h63.46M713.5,914.47v-7.76M713.5,906.71h47.93M761.42,914.47h-47.93M761.42,906.71v7.76M713.5,914.47v-7.76M641.6,906.71v59.74M649.7,906.71h-8.1M510.98,672.13v-30.38M510.98,641.75h-62.78M787.08,641.75h-78.98M708.09,641.75v30.38M708.09,650.52h-1.01M627.09,650.52h-1.01M511.99,650.52h-1.01M510.98,655.93v-5.4M708.09,650.52v5.4M708.09,650.52v-8.78M510.98,641.75v8.78M510.98,650.52h1.01M626.08,650.52h1.01M707.08,650.52h1.01M448.2,1123.4v-481.65M787.08,1123.4h-24.64M787.08,641.75v481.65"/>
  <g class="st16">
    <path class="st2" d="M1143.84,562.09h-6.07M1120.22,482.77l-16.2,7.09M1108.4,507.41l-4.38-17.55M1080.73,478.72l27.68,28.69M1080.73,478.72l39.49,4.05M1080.73,478.72l23.29,11.14M1143.84,801.4h-6.07M1143.84,641.75h-6.07M1143.84,721.41h-6.07M1143.84,801.4v-239.31M17.51,1261.11h1183.71"/>
    <path d="M1122.45,1210.2c.43-.28.75-.67.96-1.17.21-.5.32-1.12.32-1.85,0-.58-.11-1.1-.32-1.57-.21-.47-.5-.82-.89-1.07-.38-.25-.78-.37-1.21-.37s-.81.11-1.15.34c-.33.23-.61.58-.82,1.05-.14.33-.32.93-.51,1.8-.19.87-.38,1.42-.57,1.62-.19.21-.42.32-.72.32-.33,0-.62-.15-.85-.45-.23-.3-.36-.77-.36-1.42s.13-1.1.39-1.42c.26-.32.64-.51,1.16-.56l-.08-1.03c-.47.02-.9.15-1.27.4-.37.25-.66.6-.85,1.06-.19.46-.29.99-.29,1.6,0,.55.09,1.05.27,1.49.18.45.45.79.81,1.02.35.23.74.35,1.14.35.37,0,.71-.1,1-.28.3-.19.55-.48.75-.87.16-.3.33-.82.5-1.57.18-.75.31-1.23.39-1.45.13-.34.29-.59.48-.73.19-.15.41-.22.66-.22s.48.08.69.23c.21.15.38.39.49.7.12.31.18.68.18,1.09,0,.46-.08.88-.24,1.25-.16.37-.37.65-.62.82-.26.17-.59.29-.99.34l.09,1.01c.54-.02,1.02-.16,1.45-.45M1123.59,1201.49h-2.79l-1.28-1.33,4.08-2.9v-1.42l-4.8,3.57-3.26-3.41v1.46l4,4.04h-4v1.08h8.06v-1.08Z"/>
    <path d="M1117.93,1191.97h.92v-5.37h-.92v5.37ZM1120.38,1191.97h.92v-5.37h-.92v5.37Z"/>
    <path d="M1122.45,1181.85c.43-.28.75-.67.96-1.17.21-.5.32-1.11.32-1.85,0-.58-.1-1.1-.31-1.57-.21-.47-.51-.82-.89-1.07-.38-.25-.78-.37-1.22-.37s-.81.11-1.14.34c-.33.23-.61.58-.82,1.05-.15.33-.32.93-.51,1.8-.2.88-.39,1.42-.57,1.63-.19.21-.42.31-.71.31-.34,0-.62-.15-.86-.45-.23-.3-.36-.77-.36-1.42s.13-1.1.39-1.42c.26-.32.64-.51,1.15-.56l-.08-1.03c-.47.02-.9.15-1.27.4-.38.25-.66.6-.85,1.07-.19.46-.29.99-.29,1.59,0,.55.09,1.05.28,1.49.18.45.45.79.8,1.02.35.23.73.35,1.14.35.37,0,.71-.1,1-.29.3-.19.55-.48.75-.87.16-.3.32-.83.5-1.57.18-.74.31-1.23.39-1.45.13-.34.29-.59.48-.73.19-.15.41-.22.66-.22s.48.07.69.23c.21.15.38.39.5.7.12.31.18.68.18,1.09,0,.46-.08.88-.24,1.25-.16.37-.37.64-.63.82-.26.17-.59.29-.99.34l.09,1.01c.54-.01,1.02-.16,1.45-.45"/>
    <path d="M1123.59,1173.63h-2.31l-.67-.71,2.98-1.95v-1.23l-3.67,2.48-2.16-2.26v1.29l2.38,2.37h-4.6v1h8.06v-1ZM1123.59,1164.51v-1.04c-.22.12-.46.21-.7.25-.25.04-.83.07-1.75.07h-1.32c-.44,0-.74.02-.91.05-.27.06-.49.16-.67.31-.18.15-.33.38-.44.69-.12.31-.18.72-.18,1.23s.07.95.21,1.33c.14.38.33.68.59.88.26.2.59.35,1,.44l.13-.98c-.42-.11-.7-.27-.87-.5-.16-.22-.25-.57-.25-1.04,0-.5.11-.88.34-1.14.16-.19.45-.28.85-.28.03,0,.12,0,.26,0,.13.38.25.97.34,1.78.05.4.09.69.15.89.07.27.18.5.32.72.14.21.33.38.57.52.24.13.5.2.78.2.49,0,.89-.17,1.2-.52.31-.35.47-.84.47-1.49,0-.39-.07-.76-.19-1.1-.13-.34-.35-.7-.66-1.07.27-.03.51-.1.72-.2M1121.03,1164.79c.44,0,.77.05.99.16.29.14.52.36.68.66.17.3.25.64.25,1.02s-.09.69-.27.89c-.18.2-.4.3-.66.3-.18,0-.33-.05-.47-.14-.14-.09-.25-.22-.33-.39-.07-.17-.14-.46-.2-.87-.1-.73-.23-1.27-.38-1.63h.36Z"/>
    <path d="M1123.59,1161.48h-2.31l-.67-.71,2.99-1.95v-1.23l-3.67,2.48-2.16-2.25v1.29l2.37,2.37h-4.6v1h8.06v-1ZM1122.75,1155c0,.15-.03.26-.07.34-.05.08-.11.14-.19.17-.08.03-.26.05-.55.05h-3.42v-1.01h-.77v1.01h-2.04l.59.99h1.45v.73h.77v-.73h3.36c.59,0,.98-.04,1.17-.12.18-.08.33-.22.45-.42.11-.2.17-.48.17-.84,0-.22-.03-.47-.09-.76l-.88.14c.03.18.04.33.04.44"/>
    <path d="M1136.76,1209.15h-3.66v-3.82h-.95v3.82h-2.5v-4.41h-.95v5.49h8.06v-1.08ZM1135.62,1203.45c.43-.28.74-.67.96-1.17.21-.5.32-1.11.32-1.85,0-.58-.1-1.11-.31-1.57-.21-.46-.51-.82-.89-1.07-.38-.25-.79-.37-1.22-.37s-.81.11-1.14.34c-.33.23-.61.58-.83,1.05-.14.33-.32.93-.51,1.8-.2.88-.39,1.42-.57,1.63-.19.21-.43.31-.72.31-.33,0-.62-.15-.85-.45-.23-.3-.35-.77-.35-1.42s.13-1.1.39-1.42c.26-.32.64-.51,1.15-.56l-.08-1.03c-.47.02-.9.15-1.27.4-.38.25-.66.6-.85,1.07-.19.46-.29.99-.29,1.59,0,.55.09,1.05.27,1.49.19.45.45.79.81,1.02.35.24.73.35,1.14.35.37,0,.7-.1,1-.29.3-.19.55-.48.75-.87.16-.3.32-.83.5-1.57.18-.74.31-1.23.39-1.45.13-.34.29-.59.48-.73.19-.15.41-.22.66-.22s.48.07.69.23c.21.15.38.39.5.7.12.31.18.68.18,1.09,0,.46-.08.88-.24,1.25-.16.37-.37.64-.63.82-.26.17-.59.29-.99.34l.09,1.01c.54-.01,1.02-.16,1.45-.45"/>
    <path d="M1131.09,1192.98h.92v-5.37h-.92v5.37ZM1133.54,1192.98h.92v-5.37h-.92v5.37Z"/>
    <polygon points="1136.76 1181.82 1133.09 1181.82 1133.09 1178 1132.14 1178 1132.14 1181.82 1129.65 1181.82 1129.65 1177.4 1128.7 1177.4 1128.7 1182.89 1136.76 1182.89 1136.76 1181.82"/>
    <path d="M1136.1,1175.59c.53-.51.79-1.18.79-2,0-.51-.12-.99-.36-1.42-.24-.43-.57-.76-1-.99-.43-.23-1.02-.34-1.77-.34-.92,0-1.65.26-2.18.77-.53.52-.79,1.18-.79,1.99,0,.73.22,1.35.65,1.85.52.61,1.32.91,2.4.91.98,0,1.74-.25,2.26-.76M1132.16,1174.83c-.37-.33-.55-.74-.55-1.24s.18-.9.56-1.23c.37-.33.92-.5,1.64-.5.77,0,1.34.16,1.71.49.38.33.56.74.56,1.24s-.19.91-.56,1.24c-.37.33-.93.49-1.68.49s-1.31-.16-1.68-.49M1136.76,1168.92h-3.05c-.42,0-.81-.06-1.16-.17-.23-.07-.41-.2-.54-.37-.13-.18-.2-.37-.2-.59,0-.24.07-.49.21-.73l-.92-.34c-.21.35-.32.69-.32,1.03,0,.23.07.45.2.64.13.19.41.4.82.63h-.89v.9h5.84v-1Z"/>
    <path d="M1135.79,1162.78c.19.26.29.57.29.94,0,.49-.17.9-.51,1.23-.34.33-.83.51-1.48.55v-4.39c-.11,0-.2,0-.26,0-.96,0-1.71.25-2.24.75-.53.5-.8,1.14-.8,1.93s.27,1.47.81,1.98c.54.51,1.31.77,2.29.77s1.69-.25,2.21-.76c.53-.5.79-1.19.79-2.05,0-.68-.16-1.25-.49-1.69-.33-.44-.79-.74-1.39-.9l-.13,1.03c.42.15.72.36.91.62M1132.06,1164.92c-.31-.31-.46-.7-.46-1.16,0-.51.19-.92.57-1.24.25-.21.61-.33,1.1-.38v3.29c-.51-.03-.91-.21-1.22-.52M1136.42,1159.41c.31-.4.47-.98.47-1.75,0-.46-.08-.88-.24-1.24-.16-.37-.38-.65-.67-.84-.29-.19-.6-.29-.93-.29s-.62.08-.84.24c-.23.16-.4.38-.52.66-.12.28-.27.77-.46,1.48-.13.49-.22.78-.25.88-.07.17-.16.3-.26.38-.1.08-.22.12-.35.12-.2,0-.38-.1-.53-.3-.15-.19-.23-.52-.23-.98,0-.39.08-.69.25-.9.17-.21.4-.34.7-.38l-.13-.97c-.38.06-.68.18-.9.34-.23.17-.4.42-.54.77-.13.35-.2.76-.2,1.22,0,.31.04.59.12.87.08.27.18.48.29.63.14.21.33.37.55.49.22.12.46.18.72.18.29,0,.55-.07.79-.22.23-.15.42-.36.55-.64s.29-.79.48-1.52c.14-.55.25-.89.33-1.02.13-.2.31-.29.53-.29.25,0,.47.11.65.33.19.22.28.56.28,1.02s-.1.81-.31,1.06c-.21.25-.51.41-.9.46l.16.99c.62-.11,1.09-.37,1.4-.77M1128.7,1154.03h8.06v-1h-8.06v1ZM1136.76,1147.35v-1.04c-.22.13-.46.21-.7.25-.24.04-.82.06-1.74.06h-1.32c-.44,0-.75.02-.91.05-.27.06-.5.17-.67.31-.18.15-.33.38-.44.69-.12.31-.18.72-.18,1.23s.07.95.2,1.34c.14.38.33.68.59.88.25.21.59.35,1,.44l.13-.98c-.41-.11-.7-.27-.86-.5-.17-.22-.25-.57-.25-1.04,0-.5.11-.88.33-1.14.17-.19.45-.28.85-.28.04,0,.12,0,.26,0,.13.38.24.97.34,1.78.05.4.1.69.15.89.07.26.18.5.32.72.14.21.33.38.57.52.23.13.5.2.78.2.49,0,.89-.17,1.2-.52s.47-.84.47-1.49c0-.39-.06-.76-.19-1.1-.13-.34-.35-.7-.66-1.07.28-.03.51-.1.72-.2M1134.19,1147.63c.44,0,.77.06.99.16.29.14.52.36.68.66.16.3.25.64.25,1.03s-.09.69-.26.89c-.18.2-.4.3-.66.3-.17,0-.33-.04-.47-.14-.14-.09-.25-.22-.32-.39-.08-.17-.14-.46-.2-.87-.1-.72-.22-1.27-.37-1.63h.36ZM1130.14,1149.72c.2-.19.29-.43.29-.71s-.1-.5-.29-.7c-.19-.2-.43-.3-.71-.3s-.52.1-.71.3c-.2.2-.29.43-.29.7s.1.5.29.7.42.3.69.3c.29,0,.54-.1.74-.3M1128.99,1149.42c-.11-.12-.18-.26-.18-.41s.06-.3.18-.42c.12-.11.26-.17.42-.17s.31.06.42.17c.12.12.18.25.18.42s-.06.29-.18.41c-.12.12-.26.17-.44.17-.16,0-.3-.06-.42-.17M1135.79,1141.56c.19.26.29.57.29.94,0,.49-.17.9-.51,1.23-.34.33-.83.51-1.48.55v-4.4c-.11,0-.2,0-.26,0-.96,0-1.71.25-2.24.75-.53.5-.8,1.15-.8,1.93s.27,1.48.81,1.98c.54.51,1.31.76,2.29.76s1.69-.25,2.21-.76c.53-.5.79-1.19.79-2.05,0-.68-.16-1.25-.49-1.69-.33-.44-.79-.74-1.39-.9l-.13,1.03c.42.15.72.36.91.61M1132.06,1143.71c-.31-.31-.46-.7-.46-1.16,0-.51.19-.92.57-1.24.25-.21.61-.33,1.1-.38v3.29c-.51-.03-.91-.21-1.22-.52"/>
    <path d="M1135.91,1136.78c0,.15-.02.26-.07.34-.05.08-.11.14-.19.17-.08.03-.26.05-.55.05h-3.41v-1.01h-.77v1.01h-2.04l.59,1h1.45v.73h.77v-.73h3.36c.59,0,.98-.04,1.17-.12.19-.08.33-.22.45-.42.12-.2.17-.48.17-.84,0-.22-.03-.47-.09-.75l-.88.14c.03.18.04.33.04.44M1136.42,1132.08c.32-.4.47-.98.47-1.75,0-.46-.08-.88-.24-1.25-.16-.37-.38-.65-.68-.84-.29-.2-.6-.29-.93-.29s-.62.08-.85.24c-.23.16-.4.38-.52.66-.12.28-.27.77-.46,1.48-.14.49-.22.78-.25.88-.07.17-.16.3-.27.38-.1.08-.21.12-.35.12-.2,0-.38-.1-.53-.3s-.23-.52-.23-.98c0-.39.08-.69.25-.9.17-.21.4-.34.7-.38l-.13-.98c-.38.06-.68.18-.9.34-.22.17-.4.43-.54.78-.13.35-.2.76-.2,1.22,0,.31.04.59.12.86.08.27.18.48.29.63.15.21.33.37.55.49.22.12.46.18.72.18.28,0,.55-.07.78-.22.23-.14.42-.36.55-.65.13-.28.29-.79.48-1.52.14-.54.25-.88.34-1.02.13-.19.31-.29.53-.29.25,0,.47.11.65.33.19.22.28.56.28,1.02s-.1.81-.32,1.06c-.21.25-.51.41-.9.46l.15.99c.62-.11,1.09-.36,1.4-.77"/>
    <path d="M1136.76,1125.36h-2.31l-.67-.71,2.98-1.95v-1.23l-3.67,2.48-2.16-2.25v1.29l2.38,2.36h-4.6v1h8.06v-1ZM1136.76,1116.58v-1.04c-.22.12-.46.21-.7.25-.25.04-.83.07-1.75.07h-1.32c-.44,0-.74.02-.91.05-.27.06-.5.16-.67.31-.18.15-.33.38-.45.69-.12.31-.18.72-.18,1.23s.07.95.21,1.33.33.68.59.88c.25.2.59.35,1,.44l.13-.98c-.41-.11-.7-.27-.86-.5-.16-.22-.25-.57-.25-1.04,0-.5.11-.88.33-1.14.17-.19.45-.28.85-.28.04,0,.13,0,.26,0,.14.38.25.97.35,1.78.05.4.09.69.15.89.07.27.18.5.32.72.14.21.33.38.57.52.23.13.49.2.78.2.49,0,.89-.17,1.2-.52.31-.35.47-.84.47-1.49,0-.39-.07-.76-.2-1.1-.13-.34-.35-.7-.66-1.07.27-.03.51-.1.72-.2M1134.19,1116.86c.44,0,.77.05.99.16.29.14.52.36.68.66.17.3.25.64.25,1.02s-.09.69-.27.89c-.18.2-.4.3-.66.3-.17,0-.33-.05-.47-.14-.14-.09-.25-.22-.32-.39-.07-.17-.14-.46-.2-.87-.1-.73-.23-1.27-.38-1.63h.36Z"/>
    <path d="M1136.03,1113.63c.58-.39.86-.94.86-1.64s-.27-1.3-.82-1.8c-.55-.5-1.32-.75-2.32-.75-.42,0-.82.06-1.19.18-.37.12-.68.28-.95.49-.26.21-.47.48-.61.8-.14.32-.22.67-.22,1.03,0,.65.26,1.19.79,1.61h-2.88v1h8.06v-.93h-.73ZM1132.16,1113.17c-.38-.32-.56-.69-.56-1.13s.18-.8.54-1.11c.36-.3.93-.46,1.69-.46s1.3.16,1.68.48c.38.32.56.69.56,1.13,0,.53-.25.96-.76,1.27-.31.19-.82.29-1.52.29s-1.25-.16-1.63-.48"/>
    <path d="M1135.72,802.83c.56-.45.83-1.06.83-1.85,0-.6-.16-1.09-.48-1.48-.31-.39-.76-.68-1.35-.88-.58-.2-1.34-.29-2.29-.29-.8,0-1.44.06-1.91.18-.47.12-.87.29-1.2.5-.33.21-.58.49-.76.81-.18.33-.26.71-.26,1.15,0,.59.16,1.08.47,1.47.31.39.76.69,1.34.88.58.2,1.35.29,2.3.29,1.51,0,2.6-.27,3.27-.8M1129.72,802.09c-.39-.28-.58-.64-.58-1.1s.22-.85.65-1.17c.44-.31,1.32-.47,2.65-.47s2.2.16,2.64.47c.44.31.66.7.66,1.16s-.22.84-.65,1.16c-.44.31-1.32.47-2.64.47s-2.23-.17-2.72-.52M1135.47,649.13c-.18-.11-.36-.25-.53-.42-.18-.17-.52-.55-1.02-1.15-.6-.72-1.07-1.23-1.42-1.54-.35-.31-.67-.53-.98-.66-.31-.13-.63-.2-.95-.2-.64,0-1.17.23-1.6.68-.43.46-.64,1.07-.64,1.86s.2,1.39.6,1.85c.4.46.97.73,1.73.8l.1-1.03c-.5,0-.9-.15-1.19-.44-.29-.29-.43-.68-.43-1.16,0-.46.14-.83.4-1.11.27-.28.6-.43.99-.43s.77.16,1.19.47c.42.31.99.91,1.71,1.79.46.57.87,1.01,1.22,1.31.35.3.71.52,1.07.66.22.08.45.12.69.11v-5.38h-.95v3.99Z"/>
    <path d="M1136.42,643.04h-3.03c-.53,0-.94-.05-1.22-.16-.29-.11-.5-.28-.64-.52-.15-.24-.22-.5-.22-.78,0-.37.11-.64.33-.8.22-.16.55-.24.99-.24h3.79v-1h-3.39c-.6,0-1.04-.14-1.31-.41-.27-.28-.41-.62-.41-1.04,0-.23.05-.43.16-.6.11-.17.25-.29.42-.35.18-.07.46-.1.85-.1h3.68v-1h-4.01c-.66,0-1.16.16-1.48.47-.32.31-.48.76-.48,1.35,0,.75.34,1.35,1.02,1.82-.32.11-.57.31-.75.59-.18.28-.27.64-.27,1.07,0,.39.08.74.26,1.05.17.31.41.55.69.74h-.82v.9h5.84v-1Z"/>
    <path d="M1128.33,723.92v.64c.35.17.71.47,1.08.89.37.42.68.9.94,1.46h.96c-.11-.31-.29-.66-.51-1.05-.23-.39-.46-.7-.68-.95h6.3v-1h-8.09ZM1136.42,720h-3.03c-.53,0-.94-.05-1.22-.16-.29-.11-.5-.28-.64-.52-.15-.24-.22-.5-.22-.78,0-.37.11-.63.33-.8.22-.16.55-.24.99-.24h3.79v-1h-3.39c-.6,0-1.04-.14-1.31-.41-.27-.27-.41-.62-.41-1.03,0-.23.05-.43.16-.6.11-.17.25-.29.42-.35.18-.07.46-.1.85-.1h3.68v-.99h-4.01c-.66,0-1.16.16-1.48.47-.32.31-.48.76-.48,1.35,0,.75.34,1.35,1.02,1.82-.32.11-.57.31-.75.59-.18.28-.27.64-.27,1.07,0,.39.08.74.26,1.05.17.31.41.55.69.74h-.82v.89h5.84v-1Z"/>
    <path d="M1136.42,898.75h-6.86l6.86-2.35v-.97l-6.74-2.36h6.74v-1.04h-8.06v1.45l5.61,1.94c.57.2,1,.34,1.29.44-.27.08-.66.21-1.19.39l-5.71,1.92v1.62h8.06v-1.04ZM1136.42,886.72v-1.04c-.23.13-.46.21-.7.25-.24.04-.83.06-1.74.06h-1.32c-.44,0-.74.02-.91.05-.27.06-.49.16-.67.31-.18.15-.33.38-.44.69-.12.31-.18.72-.18,1.23s.07.95.2,1.34c.14.39.34.68.59.88.25.21.59.35,1,.44l.13-.98c-.42-.11-.7-.27-.87-.49-.16-.22-.25-.57-.25-1.04,0-.5.11-.88.34-1.14.16-.19.45-.28.85-.28.03,0,.12,0,.26,0,.13.38.24.97.34,1.78.05.4.1.69.15.89.08.26.18.5.33.72.14.21.33.38.57.51.24.13.5.2.78.2.49,0,.89-.18,1.2-.52.32-.35.47-.85.47-1.49,0-.39-.07-.76-.19-1.1-.13-.34-.35-.7-.66-1.07.27-.03.51-.1.72-.2M1133.85,887.01c.44,0,.77.06.99.16.29.14.52.36.69.66.16.3.25.64.25,1.03s-.09.68-.26.88c-.18.2-.39.3-.66.3-.17,0-.33-.05-.47-.14-.14-.09-.25-.22-.32-.39-.07-.17-.14-.46-.2-.87-.1-.72-.23-1.27-.37-1.63h.36ZM1129.8,889.1c.2-.2.29-.43.29-.71s-.09-.5-.29-.7c-.19-.2-.43-.29-.71-.29s-.52.1-.71.29c-.2.2-.29.43-.29.7s.1.5.29.7c.2.2.42.3.69.3.29,0,.54-.1.73-.29M1128.65,888.8c-.12-.12-.17-.26-.17-.41s.06-.3.17-.42c.12-.11.26-.17.42-.17s.31.06.43.18c.11.12.17.25.17.42s-.06.29-.17.41c-.12.12-.26.18-.44.18-.16,0-.3-.06-.42-.18"/>
    <rect x="1128.36" y="883.38" width="8.06" height="1"/>
    <path d="M1128.33,875.14v.64c.35.18.71.47,1.07.89.37.42.69.9.95,1.46h.96c-.11-.31-.28-.66-.51-1.05-.23-.39-.46-.7-.68-.95h6.3v-1h-8.09ZM1130.58,871.93h1.13v-1.14h-1.13v1.14ZM1135.29,871.93h1.13v-1.14h-1.13v1.14Z"/>
    <path d="M1135.94,868.65c.41-.47.61-1.07.61-1.81,0-.9-.32-1.61-.98-2.14-.53-.43-1.16-.64-1.89-.64s-1.39.24-1.88.73c-.49.49-.73,1.09-.73,1.8,0,.54.17,1.05.5,1.54l-2.16-.44v-3.25h-.94v4.05l4.14.79.12-.94c-.23-.15-.42-.35-.57-.61-.14-.26-.21-.55-.21-.87,0-.52.16-.94.49-1.26.33-.32.77-.48,1.34-.48.59,0,1.07.17,1.43.5.36.33.54.74.54,1.22,0,.4-.13.74-.38,1.03-.25.28-.63.46-1.14.54l.09,1.05c.68-.07,1.22-.34,1.63-.8M1135.72,862.23c.56-.45.83-1.06.83-1.85,0-.6-.16-1.09-.47-1.48-.32-.39-.77-.68-1.35-.88-.58-.2-1.34-.3-2.29-.3-.8,0-1.43.06-1.9.18-.47.12-.87.29-1.2.51-.33.21-.58.49-.76.82-.18.33-.26.71-.26,1.15,0,.59.16,1.08.47,1.47.31.39.76.68,1.34.88.58.2,1.35.3,2.3.3,1.51,0,2.6-.27,3.27-.81M1129.72,861.49c-.38-.27-.58-.64-.58-1.1s.22-.86.66-1.17,1.32-.47,2.64-.47,2.2.15,2.64.47c.44.31.66.7.66,1.16s-.22.84-.66,1.16c-.44.31-1.32.47-2.64.47s-2.23-.17-2.72-.51"/>
    <polygon class="st13" points="1136.42 511.8 1113.81 500.66 1120.56 486.15 1143.51 497.29 1136.42 511.8"/>
    <polygon points="1133.67 506.06 1122.32 500.57 1137.35 498.45 1138.31 496.48 1123.86 489.49 1122.97 491.33 1134.31 496.82 1119.29 498.94 1118.34 500.91 1132.78 507.9 1133.67 506.06"/>
    <path d="M1135.93,569.92c.42-.47.63-1.07.63-1.78,0-.79-.25-1.45-.74-1.97-.49-.52-1.08-.77-1.79-.77-.52,0-.95.13-1.3.4-.35.27-.58.64-.68,1.12-.17-.37-.4-.65-.68-.84-.29-.19-.61-.28-.95-.28-.36,0-.71.1-1.04.3-.32.2-.58.49-.77.86-.19.37-.28.78-.28,1.22,0,.64.18,1.18.55,1.62.36.43.88.71,1.54.83l.18-1c-.48-.07-.85-.24-1.09-.5s-.36-.58-.36-.97.12-.71.36-.96c.24-.25.54-.37.9-.37.46,0,.79.17,1.02.51.22.34.33.72.33,1.15,0,.04,0,.09,0,.16l.87.11c-.07-.28-.11-.52-.11-.7,0-.47.15-.85.44-1.15s.67-.45,1.13-.45.87.16,1.2.48c.32.33.48.72.48,1.19,0,.4-.12.73-.37,1.01-.25.27-.65.47-1.21.58l.13,1c.67-.07,1.22-.34,1.64-.81M1136.42,563.39h-3.03c-.53,0-.94-.05-1.22-.16-.29-.1-.5-.28-.64-.52-.15-.24-.22-.5-.22-.78,0-.37.11-.63.33-.8.22-.16.55-.24.99-.24h3.79v-1h-3.39c-.6,0-1.04-.14-1.31-.41-.27-.27-.41-.62-.41-1.03,0-.23.05-.43.16-.6.11-.17.25-.29.42-.35.18-.07.46-.1.85-.1h3.68v-.99h-4.01c-.66,0-1.16.16-1.48.47-.32.31-.48.76-.48,1.35,0,.75.34,1.35,1.02,1.82-.32.11-.57.31-.75.59-.18.28-.27.64-.27,1.07,0,.39.08.74.26,1.05.17.31.41.55.69.74h-.82v.89h5.84v-1Z"/>
    <rect class="st13" x="53.96" y="1137.24" width="18.9" height="102.27"/>
    <path d="M57.42,1233.24v.95c.52.26,1.05.7,1.61,1.32s1.02,1.35,1.41,2.17h1.43c-.17-.46-.42-.98-.76-1.56-.34-.58-.68-1.05-1.02-1.4h9.41v-1.48h-12.08ZM67.81,1228.53h1.68v-1.69h-1.68v1.69ZM67.79,1223.87c.64-.42,1.11-1,1.43-1.74.32-.74.48-1.66.48-2.74,0-.86-.16-1.63-.47-2.33-.31-.69-.76-1.22-1.32-1.59-.56-.36-1.17-.55-1.81-.55s-1.21.17-1.71.5-.9.85-1.23,1.55c-.22.48-.48,1.37-.77,2.67-.29,1.3-.58,2.1-.86,2.41-.28.31-.64.47-1.07.47-.5,0-.92-.22-1.28-.66s-.53-1.15-.53-2.11.2-1.63.58-2.1c.39-.47.96-.75,1.72-.83l-.12-1.53c-.7.03-1.33.22-1.89.59-.56.37-.98.89-1.26,1.57-.29.68-.43,1.47-.43,2.37,0,.81.14,1.55.41,2.21.27.66.68,1.17,1.2,1.51.53.35,1.09.52,1.7.52.55,0,1.05-.14,1.5-.43.45-.28.82-.71,1.12-1.29.24-.44.49-1.22.75-2.33.26-1.11.46-1.82.59-2.15.19-.51.43-.87.71-1.09.28-.22.61-.33.99-.33s.71.11,1.03.34c.31.23.56.58.74,1.04.18.47.27,1.01.27,1.62,0,.69-.12,1.3-.36,1.85-.24.55-.55.95-.93,1.21-.38.26-.88.43-1.48.5l.13,1.51c.81-.02,1.53-.24,2.16-.66M69.49,1206.86v-1.55c-.33.18-.68.31-1.05.37-.36.07-1.23.1-2.6.1h-1.97c-.66,0-1.11.02-1.36.07-.41.09-.74.24-1.01.46-.26.22-.48.56-.66,1.03-.18.46-.26,1.07-.26,1.82s.1,1.41.31,1.98c.21.57.5,1.01.88,1.31.38.3.88.52,1.5.65l.2-1.45c-.62-.16-1.05-.4-1.29-.73-.24-.33-.36-.85-.36-1.55,0-.74.17-1.31.5-1.68.25-.28.67-.42,1.27-.42.05,0,.18,0,.38,0,.2.56.37,1.44.51,2.64.07.59.14,1.02.22,1.32.11.39.27.75.48,1.06.21.32.5.57.85.76.35.2.74.29,1.17.29.73,0,1.33-.26,1.79-.77.47-.52.7-1.25.7-2.21,0-.58-.1-1.13-.29-1.63-.19-.51-.52-1.04-.98-1.59.41-.04.77-.14,1.07-.3M65.66,1207.28c.65,0,1.14.08,1.47.24.43.21.77.53,1.02.98.25.44.37.95.37,1.52s-.13,1.01-.39,1.31c-.26.3-.59.45-.99.45-.25,0-.49-.07-.7-.2-.21-.14-.37-.33-.48-.59-.11-.25-.21-.68-.29-1.29-.15-1.08-.34-1.88-.56-2.42h.54ZM57.46,1203.43h12.03v-1.48h-12.03v1.48ZM60.78,1199.16h1.68v-1.69h-1.68v1.69ZM67.81,1199.16h1.68v-1.69h-1.68v1.69ZM58.21,1183.86c-.53.61-.8,1.38-.8,2.33,0,1.27.46,2.28,1.38,3.04,1.05.86,2.75,1.29,5.07,1.29,2.08,0,3.57-.39,4.47-1.17.9-.78,1.36-1.78,1.36-3.02,0-.73-.17-1.37-.52-1.94-.35-.57-.84-1.02-1.49-1.35-.65-.33-1.35-.49-2.11-.49-1.15,0-2.08.35-2.81,1.04-.73.69-1.09,1.53-1.09,2.52,0,.57.13,1.11.39,1.62.27.52.67.95,1.21,1.31-1.2,0-2.13-.15-2.78-.42-.65-.27-1.15-.64-1.48-1.11-.26-.35-.39-.77-.39-1.24,0-.59.21-1.08.63-1.48.26-.24.68-.43,1.26-.56l-.11-1.47c-.94.12-1.67.48-2.2,1.09M63.71,1188.11c-.48-.46-.72-1.04-.72-1.7s.24-1.23.72-1.68c.48-.44,1.13-.66,1.97-.66s1.55.23,2.05.68c.5.45.76.99.76,1.61,0,.43-.12.84-.37,1.23-.24.39-.6.69-1.06.91-.47.22-.95.32-1.46.32-.77,0-1.4-.23-1.88-.7M67.81,1180.16h1.68v-1.68h-1.68v1.68ZM69.49,1171.09c0-.77-.07-1.42-.2-1.94-.13-.53-.33-.97-.59-1.32-.26-.35-.64-.65-1.12-.89-.49-.24-1.01-.36-1.57-.36-.7,0-1.31.2-1.82.59-.51.39-.88.95-1.09,1.68-.28-.56-.64-.99-1.1-1.26-.46-.28-.94-.42-1.45-.42-.55,0-1.08.16-1.59.48-.51.31-.88.75-1.13,1.31-.24.56-.36,1.29-.36,2.22v4.52h12.03v-4.6ZM58.88,1174.1v-2.41c0-.87.06-1.48.17-1.84.11-.35.32-.63.62-.82.3-.19.65-.29,1.05-.29.42,0,.77.1,1.05.31.28.21.48.51.6.92.09.31.14.82.14,1.52v2.61h-3.63ZM63.94,1174.1v-2.79c0-.77.07-1.35.2-1.77.13-.41.37-.73.7-.96.33-.23.72-.35,1.17-.35.38,0,.72.08,1.01.24.29.16.52.37.67.61.16.25.26.56.33.92.04.21.06.57.06,1.08v3h-4.13ZM67.81,1164.07h1.68v-1.69h-1.68v1.69ZM57.42,1154.56v.95c.52.26,1.05.7,1.61,1.32s1.02,1.35,1.41,2.17h1.43c-.17-.46-.42-.98-.76-1.56-.34-.58-.68-1.04-1.02-1.4h9.41v-1.48h-12.08ZM67.81,1149.85h1.68v-1.69h-1.68v1.69ZM68.76,1144.71c.63-.7.94-1.58.94-2.64,0-1.17-.36-2.15-1.09-2.91-.73-.77-1.62-1.15-2.67-1.15-.78,0-1.42.2-1.94.59-.52.39-.86.95-1.02,1.66-.25-.55-.59-.96-1.01-1.24-.43-.28-.9-.42-1.42-.42-.55,0-1.06.15-1.55.44-.49.29-.87.72-1.15,1.27-.28.56-.42,1.16-.42,1.82,0,.95.27,1.75.82,2.4.54.64,1.31,1.05,2.3,1.23l.26-1.48c-.72-.11-1.26-.36-1.63-.74-.36-.38-.54-.87-.54-1.44s.18-1.06.53-1.42c.35-.37.8-.55,1.34-.55.68,0,1.19.25,1.52.76.33.5.49,1.07.49,1.7,0,.06,0,.14-.02.24l1.3.16c-.11-.42-.17-.76-.17-1.04,0-.69.22-1.25.66-1.7.44-.44,1-.66,1.68-.66.71,0,1.31.24,1.79.72.48.48.72,1.07.72,1.77,0,.59-.19,1.08-.55,1.49-.37.41-.97.7-1.81.87l.2,1.48c1-.1,1.82-.5,2.45-1.2"/>
    <rect class="st13" x="78.27" y="1137.24" width="18.9" height="102.27"/>
    <path d="M92.37,1236.95c-.27-.16-.53-.37-.8-.62-.27-.25-.77-.82-1.51-1.71-.9-1.06-1.6-1.82-2.12-2.28-.51-.46-1-.79-1.47-.99-.46-.19-.94-.3-1.42-.3-.94,0-1.74.34-2.38,1.01-.64.68-.96,1.59-.96,2.75s.3,2.06.89,2.74c.59.68,1.46,1.07,2.59,1.18l.16-1.52c-.76,0-1.35-.22-1.77-.65-.43-.43-.64-1-.64-1.71,0-.67.2-1.22.6-1.64.4-.42.89-.63,1.48-.63.56,0,1.15.23,1.77.69.63.46,1.48,1.35,2.55,2.66.69.84,1.3,1.49,1.82,1.94.53.45,1.06.77,1.6.97.33.13.67.18,1.02.17v-7.97h-1.42v5.92ZM92.11,1228.53h1.68v-1.69h-1.68v1.69ZM92.09,1223.87c.64-.42,1.11-1,1.43-1.74.32-.74.48-1.66.48-2.74,0-.86-.16-1.63-.47-2.33-.31-.69-.76-1.22-1.32-1.59-.56-.36-1.17-.55-1.81-.55s-1.21.17-1.71.5-.9.85-1.23,1.55c-.22.48-.48,1.37-.77,2.67-.29,1.3-.58,2.1-.86,2.41-.28.31-.64.47-1.07.47-.5,0-.92-.22-1.28-.66s-.53-1.15-.53-2.11.2-1.63.58-2.1c.39-.47.96-.75,1.72-.83l-.11-1.53c-.71.03-1.34.22-1.9.59-.55.37-.98.89-1.26,1.57-.29.68-.43,1.47-.43,2.37,0,.81.13,1.55.41,2.21.27.66.68,1.17,1.2,1.51.53.35,1.09.52,1.7.52.55,0,1.05-.14,1.5-.43.45-.28.82-.71,1.12-1.29.24-.44.49-1.22.75-2.33.26-1.11.46-1.82.59-2.15.19-.51.43-.87.71-1.09.28-.22.61-.33.99-.33s.71.11,1.03.34c.31.23.56.58.74,1.04.18.47.27,1.01.27,1.62,0,.69-.12,1.3-.36,1.85-.24.55-.55.95-.93,1.21-.38.26-.88.43-1.48.5l.13,1.51c.8-.02,1.52-.24,2.16-.66M93.79,1206.86v-1.55c-.33.18-.68.31-1.05.37-.36.07-1.23.1-2.6.1h-1.97c-.66,0-1.11.02-1.36.07-.4.09-.74.24-1.01.46-.26.22-.48.56-.66,1.03-.17.46-.26,1.07-.26,1.82s.1,1.41.31,1.98c.21.57.5,1.01.88,1.31.38.3.88.52,1.5.65l.2-1.45c-.62-.16-1.05-.4-1.29-.73-.24-.33-.36-.85-.36-1.55,0-.74.17-1.31.5-1.68.25-.28.67-.42,1.27-.42.05,0,.18,0,.38,0,.2.56.37,1.44.51,2.64.07.59.14,1.02.22,1.32.11.39.27.75.48,1.06.21.32.5.57.85.76.35.2.74.29,1.17.29.73,0,1.33-.26,1.8-.77.46-.52.7-1.25.7-2.21,0-.58-.1-1.13-.29-1.63-.19-.51-.52-1.04-.98-1.59.41-.04.77-.14,1.07-.3M89.96,1207.28c.65,0,1.14.08,1.47.24.43.21.77.53,1.02.98.25.44.37.95.37,1.52s-.13,1.01-.39,1.31c-.26.3-.59.45-.98.45-.26,0-.49-.07-.7-.2-.21-.14-.37-.33-.48-.59-.11-.25-.21-.68-.3-1.29-.15-1.08-.34-1.88-.56-2.42h.54ZM81.77,1203.43h12.02v-1.48h-12.02v1.48ZM85.08,1199.16h1.68v-1.69h-1.68v1.69ZM92.11,1199.16h1.68v-1.69h-1.68v1.69ZM82.51,1183.86c-.53.61-.8,1.38-.8,2.33,0,1.27.46,2.28,1.38,3.04,1.05.86,2.75,1.29,5.07,1.29,2.08,0,3.57-.39,4.47-1.17.9-.78,1.36-1.78,1.36-3.02,0-.73-.17-1.37-.52-1.94-.35-.57-.84-1.02-1.49-1.35-.65-.33-1.35-.49-2.11-.49-1.15,0-2.08.35-2.81,1.04-.73.69-1.09,1.53-1.09,2.52,0,.57.13,1.11.39,1.62.27.52.67.95,1.21,1.31-1.2,0-2.13-.15-2.78-.42-.65-.27-1.15-.64-1.48-1.11-.26-.35-.39-.77-.39-1.24,0-.59.21-1.08.63-1.48.26-.24.68-.43,1.26-.56l-.12-1.47c-.93.12-1.67.48-2.2,1.09M88.01,1188.11c-.48-.46-.72-1.04-.72-1.7s.24-1.23.72-1.68c.48-.44,1.14-.66,1.97-.66s1.55.23,2.05.68c.5.45.76.99.76,1.61,0,.43-.12.84-.37,1.23-.24.39-.6.69-1.06.91-.47.22-.95.32-1.46.32-.78,0-1.41-.23-1.89-.7M92.11,1180.16h1.68v-1.68h-1.68v1.68ZM93.79,1171.09c0-.77-.07-1.42-.2-1.94-.13-.53-.33-.97-.59-1.32-.26-.35-.64-.65-1.12-.89-.49-.24-1.01-.36-1.57-.36-.7,0-1.3.2-1.82.59s-.88.95-1.09,1.68c-.28-.56-.64-.99-1.1-1.26-.46-.28-.94-.42-1.45-.42-.55,0-1.08.16-1.59.48-.51.31-.88.75-1.13,1.31-.24.56-.36,1.29-.36,2.22v4.52h12.02v-4.6ZM83.19,1174.1v-2.41c0-.87.06-1.48.17-1.84.11-.35.32-.63.62-.82.3-.19.65-.29,1.05-.29.42,0,.77.1,1.05.31.28.21.48.51.6.92.09.31.14.82.14,1.52v2.61h-3.63ZM88.24,1174.1v-2.79c0-.77.07-1.35.2-1.77.13-.41.37-.73.7-.96.33-.23.72-.35,1.17-.35.38,0,.72.08,1.01.24.29.16.52.37.67.61.16.25.26.56.33.92.04.21.06.57.06,1.08v3h-4.13ZM92.11,1164.07h1.68v-1.69h-1.68v1.69ZM92.37,1158.27c-.27-.16-.53-.37-.8-.62-.27-.25-.77-.82-1.51-1.71-.9-1.06-1.6-1.82-2.12-2.28-.51-.46-1-.78-1.47-.98-.46-.19-.94-.29-1.42-.29-.94,0-1.74.34-2.38,1.01-.64.67-.96,1.59-.96,2.75s.3,2.06.89,2.74c.59.68,1.46,1.08,2.59,1.18l.16-1.52c-.76,0-1.35-.22-1.77-.65-.43-.43-.64-1-.64-1.71,0-.68.2-1.22.6-1.64.4-.42.89-.63,1.48-.63.56,0,1.15.23,1.77.69.63.46,1.48,1.35,2.55,2.66.69.84,1.3,1.49,1.82,1.94.53.45,1.06.77,1.6.97.33.13.67.18,1.02.17v-7.98h-1.42v5.92ZM92.11,1149.85h1.68v-1.69h-1.68v1.69ZM93.06,1144.71c.63-.7.94-1.58.94-2.64,0-1.17-.36-2.15-1.09-2.91-.73-.77-1.62-1.15-2.67-1.15-.78,0-1.43.2-1.94.59-.51.39-.86.95-1.02,1.66-.25-.55-.59-.96-1.02-1.24-.43-.28-.9-.42-1.42-.42-.55,0-1.06.15-1.55.44-.49.29-.87.72-1.15,1.27-.28.56-.42,1.16-.42,1.82,0,.95.27,1.75.82,2.4.54.64,1.31,1.05,2.3,1.23l.26-1.48c-.72-.11-1.26-.36-1.63-.74-.36-.38-.54-.87-.54-1.44s.18-1.06.53-1.42c.35-.37.8-.55,1.34-.55.68,0,1.19.25,1.52.76.33.5.49,1.07.49,1.7,0,.06,0,.14-.02.24l1.3.16c-.11-.42-.17-.76-.17-1.04,0-.69.22-1.25.66-1.7.44-.44,1-.66,1.68-.66s1.3.24,1.79.72c.48.48.72,1.07.72,1.77,0,.59-.19,1.08-.55,1.49-.37.41-.97.7-1.81.87l.2,1.48c1-.1,1.82-.5,2.45-1.2"/>
    <rect class="st13" x="101.89" y="1137.24" width="18.9" height="102.27"/>
    <path d="M116.69,1237.61c.63-.7.94-1.58.94-2.64,0-1.17-.36-2.15-1.09-2.91-.73-.77-1.62-1.15-2.67-1.15-.78,0-1.43.2-1.94.59-.51.4-.86.95-1.02,1.66-.25-.55-.59-.96-1.02-1.24-.43-.28-.9-.42-1.42-.42s-1.06.15-1.55.44-.87.72-1.15,1.27c-.28.56-.42,1.16-.42,1.82,0,.96.27,1.75.82,2.4.54.64,1.31,1.05,2.3,1.23l.26-1.48c-.72-.11-1.26-.36-1.63-.74-.36-.39-.54-.87-.54-1.44s.18-1.06.53-1.42c.35-.37.8-.55,1.34-.55.68,0,1.19.25,1.52.76.33.5.49,1.07.49,1.7,0,.06,0,.14-.02.24l1.3.16c-.11-.42-.17-.77-.17-1.05,0-.68.22-1.25.66-1.69.44-.45,1-.67,1.68-.67s1.3.24,1.79.72c.48.48.72,1.07.72,1.77,0,.59-.19,1.09-.55,1.49-.37.41-.97.7-1.81.87l.2,1.48c1-.1,1.82-.5,2.45-1.2M115.74,1228.53h1.68v-1.69h-1.68v1.69ZM115.72,1223.87c.64-.42,1.11-1,1.43-1.74.32-.74.48-1.66.48-2.74,0-.86-.16-1.63-.47-2.33-.31-.69-.76-1.22-1.32-1.59-.56-.36-1.17-.55-1.81-.55s-1.21.17-1.71.5-.9.85-1.23,1.55c-.22.48-.48,1.37-.77,2.67-.29,1.3-.58,2.1-.86,2.41-.28.31-.64.47-1.07.47-.5,0-.92-.22-1.28-.66-.35-.44-.53-1.15-.53-2.11s.2-1.63.58-2.1c.39-.47.96-.75,1.72-.83l-.11-1.53c-.71.03-1.34.22-1.9.59-.55.37-.98.89-1.26,1.57-.29.68-.43,1.47-.43,2.37,0,.81.13,1.55.41,2.21.27.66.67,1.17,1.2,1.51.53.35,1.09.52,1.7.52.55,0,1.05-.14,1.5-.43.45-.28.82-.71,1.12-1.29.24-.44.49-1.22.75-2.33.26-1.11.46-1.82.59-2.15.19-.51.43-.87.71-1.09.28-.22.61-.33.99-.33s.71.11,1.03.34c.31.23.56.58.74,1.04.18.47.27,1.01.27,1.62,0,.69-.12,1.3-.36,1.85-.24.55-.55.95-.93,1.21-.38.26-.88.43-1.48.5l.13,1.51c.8-.02,1.52-.24,2.16-.66M117.42,1206.86v-1.55c-.34.18-.69.31-1.05.37-.36.07-1.23.1-2.61.1h-1.97c-.66,0-1.11.02-1.36.07-.4.09-.74.24-1,.46-.27.22-.49.56-.66,1.03-.17.46-.26,1.07-.26,1.82s.1,1.41.31,1.98c.21.57.5,1.01.88,1.31.38.3.88.52,1.5.65l.2-1.45c-.62-.16-1.05-.4-1.29-.73-.24-.33-.36-.85-.36-1.55,0-.74.16-1.31.5-1.68.24-.28.67-.42,1.27-.42.05,0,.18,0,.39,0,.2.56.36,1.44.51,2.64.07.59.14,1.02.22,1.32.11.39.27.75.48,1.06.21.32.5.57.85.76.35.2.74.29,1.17.29.73,0,1.33-.26,1.8-.77.46-.52.7-1.25.7-2.21,0-.58-.1-1.13-.29-1.63-.19-.51-.52-1.04-.98-1.59.41-.04.77-.14,1.08-.3M113.59,1207.28c.65,0,1.14.08,1.47.24.43.21.77.53,1.02.98.25.44.37.95.37,1.52s-.13,1.01-.39,1.31c-.26.3-.59.45-.98.45-.26,0-.49-.07-.7-.2-.21-.14-.37-.33-.48-.59-.11-.25-.21-.68-.3-1.29-.15-1.08-.34-1.88-.56-2.42h.54ZM105.4,1203.43h12.03v-1.48h-12.03v1.48ZM108.71,1199.16h1.68v-1.69h-1.68v1.69ZM115.74,1199.16h1.68v-1.69h-1.68v1.69ZM106.14,1183.86c-.53.61-.8,1.38-.8,2.33,0,1.27.46,2.28,1.38,3.04,1.06.86,2.75,1.29,5.07,1.29,2.08,0,3.57-.39,4.47-1.17.9-.78,1.36-1.78,1.36-3.02,0-.73-.17-1.37-.51-1.94-.35-.57-.84-1.02-1.49-1.35-.65-.33-1.35-.49-2.11-.49-1.15,0-2.08.35-2.81,1.04-.73.69-1.09,1.53-1.09,2.52,0,.57.13,1.11.39,1.62.26.52.66.95,1.2,1.31-1.2,0-2.13-.15-2.78-.42-.65-.27-1.15-.64-1.48-1.11-.26-.35-.39-.77-.39-1.24,0-.59.21-1.08.63-1.48.26-.24.68-.43,1.26-.56l-.12-1.47c-.93.12-1.67.48-2.2,1.09M111.64,1188.11c-.48-.46-.72-1.04-.72-1.7s.24-1.23.72-1.68c.48-.44,1.14-.66,1.97-.66s1.55.23,2.05.68c.5.45.76.99.76,1.61,0,.43-.12.84-.37,1.23-.24.39-.59.69-1.06.91-.46.22-.95.32-1.46.32-.78,0-1.41-.23-1.89-.7M115.74,1180.16h1.68v-1.68h-1.68v1.68ZM117.42,1171.09c0-.77-.07-1.42-.2-1.94-.13-.53-.33-.97-.59-1.32-.26-.35-.64-.65-1.12-.89-.49-.24-1.01-.36-1.57-.36-.7,0-1.3.2-1.82.59-.51.39-.88.95-1.09,1.68-.28-.56-.64-.99-1.1-1.26-.46-.28-.94-.42-1.45-.42-.55,0-1.08.16-1.59.48-.51.31-.88.75-1.12,1.31-.24.56-.36,1.29-.36,2.22v4.52h12.03v-4.6ZM106.81,1174.1v-2.41c0-.87.06-1.48.17-1.84.11-.35.32-.63.62-.82.3-.19.65-.29,1.05-.29.42,0,.77.1,1.05.31.28.21.48.51.6.92.09.31.14.82.14,1.52v2.61h-3.63ZM111.87,1174.1v-2.79c0-.77.07-1.35.2-1.77.14-.41.37-.73.7-.96.33-.23.72-.35,1.17-.35.39,0,.72.08,1.02.24.29.16.51.37.67.61.16.25.26.56.33.92.04.21.06.57.06,1.08v3h-4.13ZM115.74,1164.07h1.68v-1.69h-1.68v1.69ZM116.69,1158.93c.63-.7.94-1.58.94-2.64,0-1.17-.36-2.15-1.09-2.91-.73-.77-1.62-1.15-2.67-1.15-.78,0-1.43.2-1.94.59-.51.39-.86.95-1.02,1.66-.25-.55-.59-.96-1.02-1.24-.43-.28-.9-.42-1.42-.42s-1.06.15-1.55.44c-.49.29-.87.72-1.15,1.27-.28.56-.42,1.16-.42,1.82,0,.96.27,1.75.82,2.4.54.64,1.31,1.05,2.3,1.23l.26-1.48c-.72-.11-1.26-.36-1.63-.74-.36-.38-.54-.87-.54-1.44s.18-1.06.53-1.42c.35-.37.8-.55,1.34-.55.68,0,1.19.25,1.52.76.33.51.49,1.07.49,1.7,0,.06,0,.14-.02.24l1.3.16c-.11-.42-.17-.76-.17-1.04,0-.69.22-1.25.66-1.7.44-.44,1-.66,1.68-.66s1.3.24,1.79.72c.48.48.72,1.07.72,1.76,0,.59-.19,1.09-.55,1.49-.37.41-.97.7-1.81.87l.2,1.48c1-.1,1.82-.5,2.45-1.2M115.74,1149.85h1.68v-1.69h-1.68v1.69ZM116.69,1144.71c.63-.7.94-1.58.94-2.64,0-1.17-.36-2.15-1.09-2.91-.73-.77-1.62-1.15-2.67-1.15-.78,0-1.43.2-1.94.59-.51.39-.86.95-1.02,1.66-.25-.55-.59-.96-1.02-1.24-.43-.28-.9-.42-1.42-.42s-1.06.15-1.55.44c-.49.29-.87.72-1.15,1.27-.28.56-.42,1.16-.42,1.82,0,.95.27,1.75.82,2.4.54.64,1.31,1.05,2.3,1.23l.26-1.48c-.72-.11-1.26-.36-1.63-.74-.36-.38-.54-.87-.54-1.44s.18-1.06.53-1.42c.35-.37.8-.55,1.34-.55.68,0,1.19.25,1.52.76.33.5.49,1.07.49,1.7,0,.06,0,.14-.02.24l1.3.16c-.11-.42-.17-.76-.17-1.04,0-.69.22-1.25.66-1.7.44-.44,1-.66,1.68-.66s1.3.24,1.79.72c.48.48.72,1.07.72,1.77,0,.59-.19,1.08-.55,1.49-.37.41-.97.7-1.81.87l.2,1.48c1-.1,1.82-.5,2.45-1.2"/>
    <rect class="st13" x="125.18" y="1137.24" width="18.9" height="102.27"/>
    <path d="M140.71,1232.59h-2.88v-1.63h-1.35v1.63h-7.79v1.21l7.79,5.51h1.35v-5.23h2.88v-1.48ZM136.48,1237.84l-5.42-3.77h5.42v3.77ZM139.03,1228.53h1.68v-1.69h-1.68v1.69ZM139.01,1223.87c.64-.42,1.11-1,1.43-1.74.32-.74.48-1.66.48-2.74,0-.86-.16-1.63-.47-2.33-.31-.69-.76-1.22-1.32-1.59-.56-.36-1.17-.55-1.81-.55s-1.21.17-1.71.5-.9.85-1.23,1.55c-.22.48-.48,1.37-.77,2.67-.29,1.3-.58,2.1-.86,2.41-.28.31-.64.47-1.07.47-.5,0-.92-.22-1.28-.66s-.53-1.15-.53-2.11.2-1.63.58-2.1c.39-.47.96-.75,1.72-.83l-.12-1.53c-.7.03-1.33.22-1.89.59-.56.37-.98.89-1.26,1.57-.29.68-.43,1.47-.43,2.37,0,.81.13,1.55.41,2.21.27.66.68,1.17,1.2,1.51.53.35,1.09.52,1.7.52.55,0,1.05-.14,1.5-.43.45-.28.82-.71,1.12-1.29.24-.44.49-1.22.75-2.33.26-1.11.46-1.82.59-2.15.19-.51.43-.87.71-1.09.28-.22.61-.33.99-.33s.71.11,1.03.34c.31.23.56.58.74,1.04.18.47.27,1.01.27,1.62,0,.69-.12,1.3-.36,1.85-.24.55-.55.95-.93,1.21-.38.26-.88.43-1.48.5l.13,1.51c.81-.02,1.53-.24,2.16-.66M140.71,1206.86v-1.55c-.33.18-.68.31-1.05.37-.36.07-1.23.1-2.6.1h-1.97c-.66,0-1.11.02-1.36.07-.4.09-.74.24-1.01.46-.26.22-.48.56-.66,1.03-.17.46-.26,1.07-.26,1.82s.1,1.41.31,1.98c.21.57.5,1.01.88,1.31.38.3.88.52,1.5.65l.2-1.45c-.62-.16-1.05-.4-1.29-.73-.24-.33-.36-.85-.36-1.55,0-.74.17-1.31.5-1.68.25-.28.67-.42,1.27-.42.05,0,.18,0,.38,0,.2.56.37,1.44.51,2.64.07.59.14,1.02.22,1.32.11.39.27.75.48,1.06.21.32.5.57.85.76.35.2.74.29,1.17.29.73,0,1.33-.26,1.79-.77.47-.52.7-1.25.7-2.21,0-.58-.1-1.13-.29-1.63-.19-.51-.52-1.04-.98-1.59.41-.04.77-.14,1.07-.3M136.88,1207.28c.65,0,1.14.08,1.47.24.43.21.77.53,1.02.98.25.44.37.95.37,1.52s-.13,1.01-.39,1.31c-.26.3-.59.45-.99.45-.25,0-.49-.07-.7-.2-.21-.14-.37-.33-.48-.59-.11-.25-.21-.68-.3-1.29-.15-1.08-.34-1.88-.56-2.42h.54ZM128.68,1203.43h12.03v-1.48h-12.03v1.48ZM132,1199.16h1.68v-1.69h-1.68v1.69ZM139.03,1199.16h1.68v-1.69h-1.68v1.69ZM129.43,1183.86c-.53.61-.8,1.38-.8,2.33,0,1.27.46,2.28,1.38,3.04,1.05.86,2.75,1.29,5.07,1.29,2.08,0,3.57-.39,4.47-1.17.9-.78,1.36-1.78,1.36-3.02,0-.73-.17-1.37-.52-1.94-.35-.57-.84-1.02-1.49-1.35-.65-.33-1.35-.49-2.11-.49-1.15,0-2.08.35-2.81,1.04-.73.69-1.09,1.53-1.09,2.52,0,.57.13,1.11.39,1.62.27.52.67.95,1.21,1.31-1.2,0-2.13-.15-2.78-.42-.65-.27-1.15-.64-1.48-1.11-.26-.35-.39-.77-.39-1.24,0-.59.21-1.08.63-1.48.26-.24.68-.43,1.26-.56l-.11-1.47c-.94.12-1.67.48-2.2,1.09M134.93,1188.11c-.48-.46-.72-1.04-.72-1.7s.24-1.23.72-1.68c.48-.44,1.13-.66,1.97-.66s1.55.23,2.05.68c.5.45.75.99.75,1.61,0,.43-.12.84-.36,1.23-.24.39-.6.69-1.06.91-.47.22-.95.32-1.46.32-.77,0-1.4-.23-1.88-.7M139.03,1180.16h1.68v-1.68h-1.68v1.68ZM140.71,1171.09c0-.77-.07-1.42-.2-1.94-.13-.53-.33-.97-.59-1.32-.26-.35-.64-.65-1.12-.89-.49-.24-1.01-.36-1.57-.36-.7,0-1.31.2-1.82.59-.51.39-.88.95-1.09,1.68-.28-.56-.64-.99-1.1-1.26-.46-.28-.94-.42-1.45-.42-.55,0-1.08.16-1.59.48-.51.31-.88.75-1.13,1.31-.24.56-.36,1.29-.36,2.22v4.52h12.03v-4.6ZM130.1,1174.1v-2.41c0-.87.06-1.48.17-1.84.11-.35.32-.63.62-.82.3-.19.65-.29,1.05-.29.42,0,.77.1,1.05.31.28.21.48.51.6.92.09.31.14.82.14,1.52v2.61h-3.63ZM135.16,1174.1v-2.79c0-.77.07-1.35.2-1.77.13-.41.36-.73.7-.96.33-.23.72-.35,1.17-.35.38,0,.72.08,1.01.24.29.16.52.37.67.61.16.25.26.56.33.92.04.21.06.57.06,1.08v3h-4.13ZM139.03,1164.07h1.68v-1.69h-1.68v1.69ZM140.71,1153.91h-2.88v-1.63h-1.35v1.63h-7.79v1.21l7.79,5.5h1.35v-5.23h2.88v-1.48ZM136.48,1159.17l-5.42-3.77h5.42v3.77ZM139.03,1149.85h1.68v-1.69h-1.68v1.69ZM139.98,1144.71c.63-.7.94-1.58.94-2.64,0-1.17-.36-2.15-1.09-2.91-.73-.77-1.62-1.15-2.67-1.15-.78,0-1.42.2-1.94.59-.52.39-.86.95-1.02,1.66-.25-.55-.59-.96-1.01-1.24-.43-.28-.9-.42-1.42-.42-.55,0-1.06.15-1.55.44-.49.29-.87.72-1.15,1.27-.28.56-.42,1.16-.42,1.82,0,.95.27,1.75.82,2.4.54.64,1.31,1.05,2.3,1.23l.26-1.48c-.72-.11-1.26-.36-1.63-.74-.36-.38-.54-.87-.54-1.44s.18-1.06.53-1.42c.35-.37.8-.55,1.34-.55.68,0,1.19.25,1.52.76.33.5.49,1.07.49,1.7,0,.06,0,.14-.02.24l1.3.16c-.11-.42-.17-.76-.17-1.04,0-.69.22-1.25.66-1.7.44-.44,1-.66,1.68-.66s1.3.24,1.78.72c.48.48.72,1.07.72,1.77,0,.59-.18,1.08-.55,1.49-.37.41-.97.7-1.81.87l.2,1.48c1-.1,1.82-.5,2.45-1.2"/>
    <rect class="st13" x="148.13" y="1137.24" width="18.9" height="102.27"/>
    <path d="M162.95,1237.62c.61-.69.92-1.59.92-2.68,0-1.34-.49-2.4-1.46-3.17-.79-.64-1.73-.96-2.82-.96s-2.08.36-2.81,1.08c-.73.73-1.09,1.61-1.09,2.67,0,.8.25,1.56.76,2.28l-3.23-.65v-4.81h-1.41v6l6.18,1.17.18-1.39c-.35-.22-.62-.52-.84-.91-.21-.38-.33-.81-.33-1.29,0-.77.24-1.39.73-1.87.49-.47,1.15-.71,1.99-.71.89,0,1.6.25,2.14.74.53.49.8,1.1.8,1.81,0,.59-.19,1.1-.57,1.52-.38.42-.95.69-1.7.8l.13,1.56c1.01-.1,1.83-.49,2.44-1.19M161.98,1228.53h1.68v-1.69h-1.68v1.69ZM161.96,1223.87c.64-.42,1.11-1,1.43-1.74.31-.74.48-1.66.48-2.74,0-.86-.16-1.63-.47-2.33-.31-.69-.76-1.22-1.32-1.59-.56-.36-1.17-.55-1.81-.55s-1.21.17-1.71.5-.9.85-1.23,1.55c-.22.48-.48,1.37-.77,2.67-.29,1.3-.58,2.1-.86,2.41-.28.31-.64.47-1.07.47-.5,0-.92-.22-1.28-.66s-.53-1.15-.53-2.11.2-1.63.58-2.1c.39-.47.96-.75,1.72-.83l-.12-1.53c-.7.03-1.33.22-1.89.59-.56.37-.98.89-1.27,1.57-.29.68-.43,1.47-.43,2.37,0,.81.14,1.55.41,2.21.27.66.68,1.17,1.2,1.51.53.35,1.09.52,1.7.52.55,0,1.05-.14,1.5-.43.45-.28.82-.71,1.12-1.29.24-.44.49-1.22.75-2.33.26-1.11.46-1.82.59-2.15.19-.51.43-.87.71-1.09.28-.22.61-.33.99-.33s.71.11,1.03.34c.31.23.56.58.74,1.04.18.47.27,1.01.27,1.62,0,.69-.12,1.3-.36,1.85-.24.55-.55.95-.93,1.21-.38.26-.88.43-1.48.5l.13,1.51c.81-.02,1.53-.24,2.16-.66M163.66,1206.86v-1.55c-.33.18-.68.31-1.05.37-.36.07-1.23.1-2.6.1h-1.97c-.66,0-1.11.02-1.36.07-.41.09-.74.24-1.01.46-.26.22-.48.56-.66,1.03-.17.46-.26,1.07-.26,1.82s.1,1.41.31,1.98c.21.57.5,1.01.88,1.31.38.3.88.52,1.5.65l.2-1.45c-.62-.16-1.05-.4-1.29-.73-.24-.33-.36-.85-.36-1.55,0-.74.17-1.31.5-1.68.25-.28.67-.42,1.27-.42.05,0,.18,0,.38,0,.2.56.37,1.44.51,2.64.07.59.14,1.02.22,1.32.11.39.27.75.48,1.06.21.32.5.57.85.76.35.2.74.29,1.17.29.73,0,1.33-.26,1.79-.77.47-.52.7-1.25.7-2.21,0-.58-.1-1.13-.29-1.63s-.52-1.04-.98-1.59c.41-.04.77-.14,1.07-.3M159.83,1207.28c.65,0,1.14.08,1.47.24.43.21.77.53,1.02.98.25.44.37.95.37,1.52s-.13,1.01-.39,1.31c-.26.3-.59.45-.99.45-.25,0-.49-.07-.7-.2-.21-.14-.37-.33-.48-.59-.11-.25-.21-.68-.29-1.29-.15-1.08-.34-1.88-.56-2.42h.54ZM151.63,1203.43h12.03v-1.48h-12.03v1.48ZM154.95,1199.16h1.68v-1.69h-1.68v1.69ZM161.98,1199.16h1.68v-1.69h-1.68v1.69ZM152.38,1183.86c-.53.61-.8,1.38-.8,2.33,0,1.27.46,2.28,1.38,3.04,1.05.86,2.75,1.29,5.07,1.29,2.08,0,3.57-.39,4.47-1.17.9-.78,1.36-1.78,1.36-3.02,0-.73-.17-1.37-.52-1.94-.35-.57-.84-1.02-1.49-1.35-.65-.33-1.35-.49-2.11-.49-1.15,0-2.08.35-2.81,1.04-.73.69-1.09,1.53-1.09,2.52,0,.57.13,1.11.39,1.62.27.52.67.95,1.21,1.31-1.2,0-2.13-.15-2.78-.42-.65-.27-1.14-.64-1.48-1.11-.26-.35-.39-.77-.39-1.24,0-.59.21-1.08.63-1.48.26-.24.68-.43,1.26-.56l-.11-1.47c-.94.12-1.67.48-2.2,1.09M157.88,1188.11c-.48-.46-.72-1.04-.72-1.7s.24-1.23.72-1.68c.48-.44,1.13-.66,1.97-.66s1.55.23,2.05.68c.51.45.76.99.76,1.61,0,.43-.12.84-.37,1.23-.24.39-.6.69-1.06.91-.47.22-.95.32-1.46.32-.78,0-1.41-.23-1.89-.7M161.98,1180.16h1.68v-1.68h-1.68v1.68ZM163.66,1171.09c0-.77-.07-1.42-.2-1.94-.13-.53-.33-.97-.59-1.32-.26-.35-.64-.65-1.12-.89-.49-.24-1.01-.36-1.57-.36-.7,0-1.31.2-1.82.59-.51.39-.88.95-1.09,1.68-.28-.56-.64-.99-1.1-1.26-.46-.28-.94-.42-1.45-.42-.55,0-1.08.16-1.59.48-.51.31-.88.75-1.13,1.31-.24.56-.36,1.29-.36,2.22v4.52h12.03v-4.6ZM153.05,1174.1v-2.41c0-.87.06-1.48.17-1.84.11-.35.32-.63.62-.82.3-.19.65-.29,1.05-.29.42,0,.77.1,1.05.31.28.21.48.51.6.92.09.31.14.82.14,1.52v2.61h-3.63ZM158.11,1174.1v-2.79c0-.77.07-1.35.2-1.77.13-.41.37-.73.7-.96.33-.23.72-.35,1.17-.35.38,0,.72.08,1.01.24.29.16.52.37.67.61.16.25.26.56.33.92.04.21.06.57.06,1.08v3h-4.13ZM161.98,1164.07h1.68v-1.69h-1.68v1.69ZM162.95,1158.95c.61-.69.92-1.59.92-2.69,0-1.34-.49-2.4-1.46-3.17-.79-.63-1.73-.95-2.82-.95s-2.08.36-2.81,1.08c-.73.73-1.09,1.61-1.09,2.67,0,.8.25,1.56.76,2.28l-3.23-.65v-4.81h-1.41v6l6.18,1.17.18-1.39c-.35-.22-.62-.52-.84-.91-.21-.38-.33-.81-.33-1.29,0-.76.24-1.39.73-1.86.49-.48,1.15-.72,1.99-.72.89,0,1.6.25,2.14.74.53.49.8,1.1.8,1.81,0,.59-.19,1.1-.57,1.52-.38.42-.95.69-1.7.8l.13,1.56c1.01-.1,1.83-.49,2.44-1.19M161.98,1149.85h1.68v-1.69h-1.68v1.69ZM162.93,1144.71c.63-.7.94-1.58.94-2.64,0-1.17-.37-2.15-1.1-2.91-.73-.77-1.62-1.15-2.67-1.15-.78,0-1.42.2-1.94.59-.52.39-.86.95-1.02,1.66-.25-.55-.59-.96-1.02-1.24-.42-.28-.9-.42-1.42-.42-.55,0-1.06.15-1.55.44-.49.29-.87.72-1.15,1.27-.28.56-.42,1.16-.42,1.82,0,.95.27,1.75.82,2.4.54.64,1.31,1.05,2.3,1.23l.26-1.48c-.72-.11-1.26-.36-1.63-.74-.36-.38-.54-.87-.54-1.44s.18-1.06.53-1.42c.35-.37.8-.55,1.34-.55.68,0,1.19.25,1.52.76.33.5.49,1.07.49,1.7,0,.06,0,.14-.02.24l1.3.16c-.11-.42-.17-.76-.17-1.04,0-.69.22-1.25.66-1.7.44-.44,1-.66,1.68-.66.71,0,1.31.24,1.79.72.48.48.72,1.07.72,1.77,0,.59-.19,1.08-.55,1.49-.37.41-.97.7-1.81.87l.2,1.48c1-.1,1.82-.5,2.45-1.2"/>
    <rect class="st13" x="171.42" y="1137.24" width="18.9" height="102.27"/>
    <path d="M175.67,1232.22c-.53.6-.8,1.39-.8,2.33,0,1.27.46,2.28,1.38,3.04,1.05.86,2.75,1.29,5.07,1.29,2.08,0,3.57-.39,4.47-1.17.9-.78,1.36-1.78,1.36-3.02,0-.72-.17-1.37-.52-1.94-.35-.57-.84-1.02-1.49-1.34-.65-.33-1.35-.49-2.11-.49-1.15,0-2.08.35-2.81,1.04-.73.69-1.09,1.53-1.09,2.52,0,.56.13,1.1.39,1.62.26.52.66.95,1.2,1.31-1.2,0-2.13-.15-2.78-.42-.65-.27-1.15-.64-1.48-1.1-.26-.36-.39-.77-.39-1.24,0-.59.21-1.08.63-1.48.26-.24.68-.43,1.26-.56l-.12-1.47c-.94.12-1.67.49-2.2,1.09M181.17,1236.48c-.48-.47-.72-1.03-.72-1.7s.24-1.23.72-1.68c.48-.45,1.14-.67,1.97-.67s1.55.22,2.05.67c.5.45.76.99.76,1.61,0,.43-.12.84-.37,1.23-.24.39-.6.69-1.06.91-.47.21-.95.32-1.46.32-.77,0-1.4-.23-1.88-.7M185.27,1228.53h1.68v-1.69h-1.68v1.69ZM185.25,1223.87c.64-.42,1.11-1,1.43-1.74.32-.74.48-1.66.48-2.74,0-.86-.16-1.63-.47-2.33-.31-.69-.76-1.22-1.32-1.59-.56-.36-1.17-.55-1.81-.55s-1.21.17-1.71.5-.9.85-1.23,1.55c-.22.48-.48,1.37-.77,2.67-.29,1.3-.58,2.1-.86,2.41-.28.31-.64.47-1.07.47-.5,0-.92-.22-1.28-.66s-.53-1.15-.53-2.11.2-1.63.58-2.1c.39-.47.96-.75,1.72-.83l-.11-1.53c-.71.03-1.34.22-1.9.59-.55.37-.98.89-1.26,1.57-.29.68-.43,1.47-.43,2.37,0,.81.14,1.55.41,2.21.27.66.68,1.17,1.2,1.51.53.35,1.09.52,1.7.52.55,0,1.05-.14,1.5-.43.45-.28.82-.71,1.12-1.29.24-.44.49-1.22.75-2.33.26-1.11.46-1.82.59-2.15.19-.51.43-.87.71-1.09.28-.22.61-.33.99-.33s.71.11,1.03.34c.31.23.56.58.74,1.04.18.47.27,1.01.27,1.62,0,.69-.12,1.3-.36,1.85-.24.55-.55.95-.93,1.21-.38.26-.88.43-1.48.5l.13,1.51c.81-.02,1.53-.24,2.16-.66M186.95,1206.86v-1.55c-.33.18-.68.31-1.05.37-.36.07-1.23.1-2.6.1h-1.97c-.66,0-1.11.02-1.36.07-.41.09-.74.24-1.01.46-.26.22-.48.56-.66,1.03-.17.46-.26,1.07-.26,1.82s.1,1.41.31,1.98c.21.57.5,1.01.88,1.31.38.3.88.52,1.5.65l.2-1.45c-.62-.16-1.05-.4-1.29-.73-.24-.33-.36-.85-.36-1.55,0-.74.17-1.31.5-1.68.25-.28.67-.42,1.27-.42.05,0,.18,0,.38,0,.2.56.37,1.44.51,2.64.07.59.14,1.02.22,1.32.11.39.27.75.48,1.06.21.32.5.57.85.76.35.2.74.29,1.17.29.73,0,1.33-.26,1.79-.77.47-.52.7-1.25.7-2.21,0-.58-.1-1.13-.29-1.63-.19-.51-.52-1.04-.98-1.59.41-.04.77-.14,1.07-.3M183.12,1207.28c.65,0,1.14.08,1.47.24.43.21.77.53,1.02.98.25.44.37.95.37,1.52s-.13,1.01-.39,1.31c-.26.3-.59.45-.99.45-.25,0-.49-.07-.7-.2-.21-.14-.37-.33-.48-.59-.11-.25-.21-.68-.29-1.29-.15-1.08-.34-1.88-.56-2.42h.54ZM174.93,1203.43h12.02v-1.48h-12.02v1.48ZM178.24,1199.16h1.68v-1.69h-1.68v1.69ZM185.27,1199.16h1.68v-1.69h-1.68v1.69ZM175.67,1183.86c-.53.61-.8,1.38-.8,2.33,0,1.27.46,2.28,1.38,3.04,1.05.86,2.75,1.29,5.07,1.29,2.08,0,3.57-.39,4.47-1.17.9-.78,1.36-1.78,1.36-3.02,0-.73-.17-1.37-.52-1.94-.35-.57-.84-1.02-1.49-1.35-.65-.33-1.35-.49-2.11-.49-1.15,0-2.08.35-2.81,1.04-.73.69-1.09,1.53-1.09,2.52,0,.57.13,1.11.39,1.62.26.52.66.95,1.2,1.31-1.2,0-2.13-.15-2.78-.42-.65-.27-1.15-.64-1.48-1.11-.26-.35-.39-.77-.39-1.24,0-.59.21-1.08.63-1.48.26-.24.68-.43,1.26-.56l-.12-1.47c-.94.12-1.67.48-2.2,1.09M181.17,1188.11c-.48-.46-.72-1.04-.72-1.7s.24-1.23.72-1.68c.48-.44,1.14-.66,1.97-.66s1.55.23,2.05.68c.5.45.76.99.76,1.61,0,.43-.12.84-.37,1.23-.24.39-.6.69-1.06.91-.47.22-.95.32-1.46.32-.77,0-1.4-.23-1.88-.7M185.27,1180.16h1.68v-1.68h-1.68v1.68ZM186.95,1171.09c0-.77-.07-1.42-.2-1.94-.13-.53-.33-.97-.59-1.32-.26-.35-.64-.65-1.12-.89-.49-.24-1.01-.36-1.57-.36-.7,0-1.31.2-1.82.59-.51.39-.88.95-1.09,1.68-.28-.56-.64-.99-1.1-1.26-.46-.28-.94-.42-1.45-.42-.55,0-1.08.16-1.59.48-.51.31-.88.75-1.13,1.31-.24.56-.36,1.29-.36,2.22v4.52h12.02v-4.6ZM176.34,1174.1v-2.41c0-.87.06-1.48.17-1.84.11-.35.32-.63.62-.82.3-.19.65-.29,1.05-.29.42,0,.77.1,1.05.31.28.21.48.51.6.92.09.31.14.82.14,1.52v2.61h-3.63ZM181.4,1174.1v-2.79c0-.77.07-1.35.2-1.77.13-.41.37-.73.7-.96.33-.23.72-.35,1.17-.35.39,0,.72.08,1.01.24.29.16.52.37.67.61.16.25.26.56.33.92.04.21.06.57.06,1.08v3h-4.13ZM185.27,1164.07h1.68v-1.69h-1.68v1.69ZM175.67,1153.54c-.53.61-.8,1.38-.8,2.33,0,1.27.46,2.28,1.38,3.04,1.05.86,2.75,1.29,5.07,1.29,2.08,0,3.57-.39,4.47-1.17.9-.78,1.36-1.79,1.36-3.02,0-.72-.17-1.37-.52-1.94-.35-.57-.84-1.02-1.49-1.35-.65-.32-1.35-.49-2.11-.49-1.15,0-2.08.35-2.81,1.04-.73.69-1.09,1.53-1.09,2.52,0,.56.13,1.1.39,1.62.26.52.66.95,1.2,1.31-1.2,0-2.13-.15-2.78-.42-.65-.27-1.15-.64-1.48-1.1-.26-.36-.39-.77-.39-1.24,0-.59.21-1.08.63-1.48.26-.24.68-.43,1.26-.56l-.12-1.47c-.94.12-1.67.49-2.2,1.09M181.17,1157.8c-.48-.46-.72-1.03-.72-1.7s.24-1.23.72-1.68c.48-.45,1.14-.67,1.97-.67s1.55.23,2.05.68c.5.45.76.99.76,1.61,0,.43-.12.84-.37,1.23-.24.39-.6.69-1.06.91-.47.22-.95.32-1.46.32-.77,0-1.4-.23-1.88-.7M185.27,1149.85h1.68v-1.69h-1.68v1.69ZM186.22,1144.71c.63-.7.94-1.58.94-2.64,0-1.17-.36-2.15-1.09-2.91-.73-.77-1.62-1.15-2.67-1.15-.78,0-1.42.2-1.94.59-.52.39-.86.95-1.02,1.66-.25-.55-.59-.96-1.02-1.24-.43-.28-.9-.42-1.42-.42-.55,0-1.06.15-1.55.44-.49.29-.87.72-1.15,1.27-.28.56-.42,1.16-.42,1.82,0,.95.27,1.75.82,2.4.54.64,1.31,1.05,2.3,1.23l.27-1.48c-.72-.11-1.26-.36-1.63-.74-.36-.38-.54-.87-.54-1.44s.18-1.06.53-1.42c.35-.37.8-.55,1.34-.55.68,0,1.19.25,1.52.76.33.5.49,1.07.49,1.7,0,.06,0,.14-.02.24l1.3.16c-.11-.42-.17-.76-.17-1.04,0-.69.22-1.25.66-1.7.44-.44,1-.66,1.68-.66.71,0,1.31.24,1.79.72.48.48.72,1.07.72,1.77,0,.59-.19,1.08-.55,1.49-.37.41-.97.7-1.81.87l.2,1.48c1-.1,1.82-.5,2.45-1.2"/>
    <rect class="st13" x="194.71" y="1137.24" width="18.9" height="102.27"/>
    <path d="M199.79,1232.81c.85.75,1.9,1.46,3.15,2.13,1.24.67,2.53,1.18,3.88,1.53,1.34.36,2.48.54,3.43.56v-1.52c-1.2-.08-2.3-.27-3.31-.57-1.43-.41-2.81-1-4.17-1.75-1.35-.76-2.43-1.52-3.25-2.29h-1.15v7.81h1.42v-5.91ZM208.56,1228.53h1.68v-1.69h-1.68v1.69ZM208.54,1223.87c.64-.42,1.11-1,1.43-1.74.32-.74.48-1.66.48-2.74,0-.86-.16-1.63-.47-2.33-.31-.69-.76-1.22-1.32-1.59-.56-.36-1.17-.55-1.81-.55s-1.21.17-1.71.5-.9.85-1.23,1.55c-.22.48-.48,1.37-.77,2.67-.29,1.3-.58,2.1-.86,2.41-.28.31-.64.47-1.07.47-.5,0-.92-.22-1.28-.66s-.53-1.15-.53-2.11.2-1.63.58-2.1c.39-.47.96-.75,1.72-.83l-.12-1.53c-.7.03-1.33.22-1.89.59-.56.37-.98.89-1.26,1.57-.29.68-.43,1.47-.43,2.37,0,.81.13,1.55.41,2.21.27.66.68,1.17,1.2,1.51.53.35,1.09.52,1.7.52.55,0,1.05-.14,1.5-.43.45-.28.82-.71,1.12-1.29.24-.44.49-1.22.75-2.33.26-1.11.46-1.82.59-2.15.19-.51.43-.87.71-1.09.28-.22.61-.33.99-.33s.71.11,1.03.34c.31.23.56.58.74,1.04.18.47.27,1.01.27,1.62,0,.69-.12,1.3-.36,1.85-.24.55-.55.95-.93,1.21-.38.26-.88.43-1.48.5l.13,1.51c.81-.02,1.53-.24,2.16-.66M210.24,1206.86v-1.55c-.33.18-.68.31-1.05.37-.36.07-1.23.1-2.6.1h-1.97c-.66,0-1.11.02-1.36.07-.4.09-.74.24-1.01.46-.26.22-.48.56-.66,1.03-.17.46-.26,1.07-.26,1.82s.1,1.41.31,1.98c.21.57.5,1.01.88,1.31.38.3.88.52,1.5.65l.2-1.45c-.62-.16-1.05-.4-1.29-.73-.24-.33-.36-.85-.36-1.55,0-.74.17-1.31.5-1.68.25-.28.67-.42,1.27-.42.05,0,.18,0,.38,0,.2.56.37,1.44.51,2.64.07.59.14,1.02.22,1.32.11.39.27.75.48,1.06.21.32.5.57.85.76.35.2.74.29,1.17.29.73,0,1.33-.26,1.79-.77.47-.52.7-1.25.7-2.21,0-.58-.09-1.13-.29-1.63-.19-.51-.52-1.04-.98-1.59.41-.04.77-.14,1.07-.3M206.41,1207.28c.65,0,1.14.08,1.47.24.43.21.77.53,1.02.98.25.44.37.95.37,1.52s-.13,1.01-.39,1.31c-.26.3-.59.45-.99.45-.25,0-.49-.07-.7-.2-.21-.14-.37-.33-.48-.59-.11-.25-.21-.68-.3-1.29-.15-1.08-.34-1.88-.56-2.42h.54ZM198.21,1203.43h12.03v-1.48h-12.03v1.48ZM201.53,1199.16h1.68v-1.69h-1.68v1.69ZM208.56,1199.16h1.68v-1.69h-1.68v1.69ZM198.96,1183.86c-.53.61-.8,1.38-.8,2.33,0,1.27.46,2.28,1.38,3.04,1.05.86,2.75,1.29,5.07,1.29,2.08,0,3.57-.39,4.47-1.17.9-.78,1.36-1.78,1.36-3.02,0-.73-.17-1.37-.52-1.94-.35-.57-.84-1.02-1.49-1.35-.65-.33-1.35-.49-2.11-.49-1.15,0-2.08.35-2.81,1.04-.73.69-1.09,1.53-1.09,2.52,0,.57.13,1.11.39,1.62.27.52.67.95,1.21,1.31-1.2,0-2.13-.15-2.78-.42-.65-.27-1.14-.64-1.48-1.11-.26-.35-.39-.77-.39-1.24,0-.59.21-1.08.63-1.48.26-.24.68-.43,1.26-.56l-.11-1.47c-.94.12-1.67.48-2.2,1.09M204.46,1188.11c-.48-.46-.72-1.04-.72-1.7s.24-1.23.72-1.68c.48-.44,1.13-.66,1.97-.66s1.55.23,2.05.68c.5.45.75.99.75,1.61,0,.43-.12.84-.36,1.23-.24.39-.6.69-1.06.91-.47.22-.95.32-1.46.32-.77,0-1.4-.23-1.88-.7M208.56,1180.16h1.68v-1.68h-1.68v1.68ZM210.24,1171.09c0-.77-.07-1.42-.2-1.94-.13-.53-.33-.97-.59-1.32-.26-.35-.64-.65-1.12-.89-.49-.24-1.01-.36-1.57-.36-.7,0-1.31.2-1.82.59-.51.39-.88.95-1.09,1.68-.28-.56-.64-.99-1.1-1.26-.46-.28-.94-.42-1.45-.42-.55,0-1.08.16-1.59.48-.51.31-.88.75-1.13,1.31-.24.56-.36,1.29-.36,2.22v4.52h12.03v-4.6ZM199.63,1174.1v-2.41c0-.87.06-1.48.17-1.84.11-.35.32-.63.62-.82.3-.19.65-.29,1.05-.29.42,0,.77.1,1.05.31.28.21.48.51.6.92.09.31.14.82.14,1.52v2.61h-3.63ZM204.69,1174.1v-2.79c0-.77.07-1.35.2-1.77.13-.41.36-.73.7-.96.33-.23.72-.35,1.17-.35.38,0,.72.08,1.01.24.29.16.52.37.67.61.16.25.26.56.33.92.04.21.06.57.06,1.08v3h-4.13ZM208.56,1164.07h1.68v-1.69h-1.68v1.69ZM199.79,1154.13c.85.75,1.9,1.46,3.15,2.13,1.24.67,2.53,1.18,3.88,1.53,1.34.36,2.48.54,3.43.56v-1.52c-1.2-.08-2.3-.27-3.31-.57-1.43-.41-2.81-1-4.17-1.75-1.35-.75-2.43-1.51-3.25-2.28h-1.15v7.81h1.42v-5.9ZM208.56,1149.85h1.68v-1.69h-1.68v1.69ZM209.51,1144.71c.63-.7.94-1.58.94-2.64,0-1.17-.36-2.15-1.09-2.91-.73-.77-1.62-1.15-2.67-1.15-.78,0-1.42.2-1.94.59-.52.39-.86.95-1.02,1.66-.25-.55-.59-.96-1.01-1.24-.43-.28-.9-.42-1.42-.42-.55,0-1.06.15-1.55.44-.49.29-.87.72-1.15,1.27-.28.56-.42,1.16-.42,1.82,0,.95.27,1.75.82,2.4.54.64,1.31,1.05,2.3,1.23l.26-1.48c-.72-.11-1.26-.36-1.63-.74-.36-.38-.54-.87-.54-1.44s.18-1.06.53-1.42c.35-.37.8-.55,1.34-.55.68,0,1.19.25,1.52.76.33.5.49,1.07.49,1.7,0,.06,0,.14-.02.24l1.3.16c-.11-.42-.17-.76-.17-1.04,0-.69.22-1.25.66-1.7.44-.44,1-.66,1.68-.66s1.3.24,1.78.72c.48.48.72,1.07.72,1.77,0,.59-.18,1.08-.55,1.49-.37.41-.97.7-1.81.87l.2,1.48c1-.1,1.82-.5,2.45-1.2"/>
    <line class="st3" x1="650.04" y1="966.45" x2="769.19" y2="914.47"/>
  </g>
  <line class="st3" x1="466.31" y1="755.33" x2="466.31" y2="819.12"/>
  <polygon class="st13" points="695.7 745 695.7 745.41 767.36 745.41 767.36 883.37 768.27 883.82 768.27 745 695.7 745"/>
  <g class="st4">
    <path class="st13" d="M695.7,847.91v-102.5h71.66v137.96l-15.93-7.88c-3.74-1.85-7.12-3.52-10.18-5.04-1.02-.5-2.02-.99-2.96-1.46-.95-.48-1.87-.93-2.76-1.37-2.66-1.32-5.02-2.48-7.12-3.52-1.41-.69-2.69-1.33-3.86-1.91-.59-.29-1.15-.57-1.69-.83-.54-.27-1.05-.53-1.54-.76-.24-.12-.48-.24-.71-.36-.43-.21-.83-.41-1.22-.6-.45-.22-.88-.44-1.28-.64-.37-.19-.72-.35-1.06-.53-.66-.33-1.23-.61-1.75-.86-.25-.13-.49-.25-.71-.35-.11-.06-.21-.11-.32-.16-.21-.1-.39-.2-.57-.28-.08-.05-.17-.08-.25-.12-.32-.16-.58-.29-.8-.4-.06-.03-.1-.06-.15-.07-.1-.05-.19-.1-.27-.13-.08-.04-.14-.07-.21-.1-.29-.15-.37-.19-.4-.2h-.01s-15.92-7.88-15.92-7.88Z"/>
    <path class="st13" d="M695.7,904.65v-56.74l15.92,7.87h0v28.26c0,1.81,1.47,3.28,3.29,3.28h33.24c1.82,0,3.29-1.47,3.29-3.28v-8.57l15.93,7.89v21.28h-71.66Z"/>
    <polygon class="st13" points="711.62 855.8 711.62 855.79 711.63 855.8 711.62 855.8"/>
    <path class="st13" d="M711.62,884.05v-28.26h.01s.11.05.4.2l.21.1.27.13s.09.05.15.08l.8.4c.08.04.17.07.25.12l.57.28c.1.05.21.1.32.16l.71.35c.51.25,1.09.53,1.75.86l1.06.52c.4.2.83.41,1.28.64l1.22.6c.23.11.47.23.71.36l1.54.76c.53.26,1.09.54,1.68.83l3.86,1.91c2.1,1.04,4.45,2.2,7.12,3.52l2.76,1.37,2.96,1.46c3.06,1.51,6.44,3.19,10.18,5.04v8.56c0,1.81-1.47,3.28-3.29,3.28h-33.24c-1.82,0-3.29-1.47-3.29-3.28"/>
    <path class="st13" d="M712.24,856.1l-.2-.1c.06.03.13.07.2.1"/>
    <path class="st13" d="M712.51,856.23l-.27-.13c.08.04.17.08.27.13"/>
    <path class="st13" d="M713.47,856.71l-.81-.4c.23.11.49.24.81.4"/>
    <path class="st13" d="M714.29,857.11l-.57-.28c.18.08.37.18.57.28"/>
    <path class="st13" d="M715.32,857.62l-.71-.35c.22.11.46.22.71.35"/>
    <path class="st13" d="M718.13,859.01l-1.06-.53c.34.17.68.34,1.06.53"/>
    <path class="st13" d="M720.63,860.25l-1.22-.6c.38.19.79.4,1.22.6"/>
    <path class="st13" d="M722.88,861.36l-1.54-.76c.49.23.99.49,1.54.76"/>
    <path class="st13" d="M728.42,864.1l-3.86-1.91c1.17.58,2.45,1.22,3.86,1.91"/>
    <path class="st13" d="M738.3,868.99l-2.76-1.37c.89.44,1.8.89,2.76,1.37"/>
    <path class="st13" d="M741.26,870.45l-2.96-1.46c.94.47,1.94.95,2.96,1.46"/>
  </g>
  <polyline class="st1" points="767.36 883.37 767.36 904.65 695.7 904.65 695.7 847.92"/>
  <polyline class="st1" points="751.43 875.49 767.36 883.37 768.27 883.82 768.27 745 695.7 745 695.7 745.41 695.7 847.92 711.62 855.79"/>
  <polyline class="st1" points="735.54 867.62 738.3 868.99 741.26 870.45"/>
  <line class="st1" x1="724.56" y1="862.19" x2="728.42" y2="864.1"/>
  <line class="st1" x1="721.34" y1="860.6" x2="722.88" y2="861.36"/>
  <line class="st1" x1="719.41" y1="859.65" x2="720.63" y2="860.25"/>
  <line class="st1" x1="717.07" y1="858.49" x2="718.13" y2="859.01"/>
  <line class="st1" x1="714.61" y1="857.27" x2="715.32" y2="857.62"/>
  <line class="st1" x1="713.72" y1="856.83" x2="714.29" y2="857.11"/>
  <line class="st1" x1="712.66" y1="856.3" x2="713.47" y2="856.71"/>
  <polyline class="st1" points="712.04 856 712.24 856.1 712.51 856.23"/>
  <line class="st1" x1="711.62" y1="855.8" x2="711.63" y2="855.8"/>
  <line class="st1" x1="748.15" y1="887.33" x2="714.91" y2="887.33"/>
  <g class="st7">
    <path class="st1" d="M714.91,887.33c-1.82,0-3.29-1.47-3.29-3.28"/>
    <path class="st1" d="M751.43,884.05c0,1.81-1.47,3.28-3.29,3.28"/>
    <path class="st1" d="M751.43,884.05v-8.56c-3.74-1.85-7.12-3.52-10.18-5.04-1.02-.51-2.01-1-2.96-1.46-.96-.48-1.88-.93-2.76-1.37-2.66-1.32-5.02-2.48-7.12-3.52-1.41-.69-2.69-1.33-3.86-1.91-.59-.29-1.15-.57-1.69-.83-.54-.27-1.05-.52-1.54-.76-.24-.12-.48-.25-.71-.36-.43-.21-.83-.41-1.22-.6-.45-.22-.88-.44-1.28-.64-.38-.19-.72-.35-1.06-.52-.65-.33-1.24-.61-1.75-.86-.25-.13-.48-.24-.71-.35-.11-.06-.21-.11-.32-.16-.21-.1-.39-.2-.57-.28-.08-.05-.17-.08-.25-.12-.32-.16-.58-.29-.81-.4-.06-.03-.1-.06-.15-.08-.1-.05-.19-.09-.27-.13-.07-.04-.14-.07-.2-.1-.29-.15-.38-.19-.4-.2h-.01s0,0,0,0v28.26"/>
  </g>
  <g class="st5">
    <path class="st13" d="M691.01,973.02c-.01,7.71-.01,15.42-.02,23.12,0,8.89-6.4,16.09-14.3,16.08-7.9,0-14.28-7.21-14.28-16.1,0-7.7.01-15.41.01-23.12,9.52,0,19.06.02,28.59.02"/>
  </g>
  <g class="st6">
    <path class="st3" d="M691.01,973.02c-.01,7.71-.01,15.42-.02,23.12,0,8.89-6.4,16.09-14.3,16.08-7.9,0-14.28-7.21-14.28-16.1,0-7.7.01-15.41.01-23.12,9.52,0,19.06.02,28.59.02Z"/>
  </g>
  <rect class="st13" x="697.63" y="972.99" width="63.89" height="62.69"/>
  <polyline class="st3" points="761.52 972.47 761.52 1035.68 753.95 1035.68"/>
  <line class="st3" x1="697.63" y1="972.99" x2="697.63" y2="1035.12"/>
  <polyline class="st3" points="698.57 1035.68 697.63 1035.68 697.63 1035.12"/>
  <line class="st3" x1="698.57" y1="1035.68" x2="753.95" y2="1035.68"/>
  <line class="st3" x1="729.83" y1="972.74" x2="729.83" y2="990.02"/>
  <g class="st12">
    <path class="st3" d="M733.67,989.94c0-2.17-1.76-3.93-3.93-3.93s-3.93,1.76-3.93,3.93,1.76,3.93,3.93,3.93,3.93-1.76,3.93-3.93Z"/>
    <path class="st3" d="M733.67,989.94c0-2.17-1.76-3.93-3.93-3.93s-3.93,1.76-3.93,3.93,1.76,3.93,3.93,3.93,3.93-1.76,3.93-3.93Z"/>
  </g>
  <g class="st9">
    <path class="st13" d="M735.09,1056.45h26.45v37.12h-26.45c-.58,0-1.06-.35-1.06-.78v-35.7c0-.35.48-.63,1.06-.63M751.65,1057.08h-15.5c-.59,0-1.07.35-1.07.78v34.13c0,.44.48.79,1.07.79h15.5c.58,0,1.06-.35,1.06-.79v-34.13c0-.43-.48-.78-1.06-.78M757.43,1072.83c-1.17,0-2.1.95-2.1,2.1s.94,2.11,2.1,2.11,2.1-.94,2.1-2.11-.94-2.1-2.1-2.1"/>
    <path class="st13" d="M736.16,1057.08h15.49c.58,0,1.06.35,1.06.78v34.13c0,.44-.48.79-1.06.79h-15.49c-.59,0-1.07-.35-1.07-.79v-34.13c0-.43.48-.78,1.07-.78M743.63,1072.13c-1.55,0-2.81,1.25-2.81,2.8s1.26,2.81,2.81,2.81,2.8-1.26,2.8-2.81-1.25-2.8-2.8-2.8"/>
    <path class="st13" d="M740.82,1074.93c0-1.55,1.26-2.8,2.81-2.8s2.8,1.25,2.8,2.8-1.25,2.81-2.8,2.81-2.81-1.26-2.81-2.81M743.63,1073.43c-.83,0-1.51.67-1.51,1.5s.68,1.51,1.51,1.51,1.51-.68,1.51-1.51-.68-1.5-1.51-1.5"/>
    <path class="st13" d="M755.33,1074.93c0-1.16.94-2.1,2.1-2.1s2.1.95,2.1,2.1-.94,2.11-2.1,2.11-2.1-.94-2.1-2.11"/>
    <path class="st13" d="M742.12,1074.93c0-.83.68-1.5,1.51-1.5s1.51.67,1.51,1.5-.68,1.51-1.51,1.51-1.51-.68-1.51-1.51"/>
  </g>
  <g class="st8">
    <path class="st3" d="M757.43,1077.04c-1.17,0-2.1-.95-2.1-2.11s.94-2.1,2.1-2.1,2.1.94,2.1,2.1-.94,2.11-2.1,2.11Z"/>
    <path class="st3" d="M743.63,1077.74c-1.55,0-2.81-1.26-2.81-2.81s1.26-2.8,2.81-2.8,2.8,1.25,2.8,2.8-1.25,2.81-2.8,2.81Z"/>
    <path class="st3" d="M743.63,1076.44c-.83,0-1.51-.68-1.51-1.51s.68-1.5,1.51-1.5,1.51.67,1.51,1.5-.68,1.51-1.51,1.51Z"/>
    <path class="st3" d="M751.65,1057.08h-15.5c-.59,0-1.07.35-1.07.78v34.13c0,.44.48.79,1.07.79h15.5c.58,0,1.06-.35,1.06-.79v-34.13c0-.43-.48-.78-1.06-.78Z"/>
  </g>
  <line class="st3" x1="753.36" y1="1093.57" x2="761.53" y2="1093.57"/>
  <g class="st11">
    <path class="st3" d="M761.53,1056.45h-26.45c-.58,0-1.06.28-1.06.63v35.7c0,.43.48.78,1.06.78h8.38"/>
  </g>
  <line class="st3" x1="753.36" y1="1093.57" x2="743.47" y2="1093.57"/>
  <line class="st3" x1="761.53" y1="1093.57" x2="761.53" y2="1056.45"/>
  <polygon class="st13" points="490.05 738.45 481.95 739.8 474.53 743.51 474.53 743.85 474.87 743.85 475.54 743.85 475.88 743.85 476.22 743.85 476.55 743.85 478.24 742.84 479.93 742.16 481.28 742.5 482.29 743.51 482.29 744.19 481.95 744.53 476.55 749.25 472.84 755.33 507.27 755.33 503.56 749.25 498.15 744.53 497.48 744.19 497.82 743.51 498.83 742.5 500.18 742.16 501.87 742.84 503.56 743.85 503.89 743.85 504.23 743.85 504.57 743.85 505.24 743.85 505.58 743.51 498.15 739.8 490.05 738.45"/>
  <polygon class="st13" points="537.98 738.45 529.54 739.8 522.46 743.51 522.46 743.85 522.79 743.85 523.13 743.85 523.81 743.85 524.14 743.85 524.48 743.85 526.17 742.84 527.86 742.16 529.21 742.5 530.22 743.51 530.22 744.19 529.88 744.53 524.14 749.25 520.77 755.33 555.2 755.33 551.48 749.25 545.75 744.53 545.41 744.19 545.41 743.51 546.42 742.5 548.11 742.16 549.8 742.84 551.15 743.85 551.48 743.85 552.16 743.85 552.5 743.85 552.83 743.85 553.17 743.85 553.51 743.51 546.08 739.8 537.98 738.45"/>
  <polygon class="st13" points="555.2 755.33 520.77 755.33 507.27 755.33 472.84 755.33 466.09 755.33 466.09 819.12 472.84 819.12 507.27 819.12 520.77 819.12 555.2 819.12 561.61 819.12 561.61 755.33 555.2 755.33"/>
  <polygon class="st13" points="472.84 819.12 476.55 825.2 481.95 829.92 482.29 830.26 482.29 830.93 481.28 831.95 479.93 832.28 478.24 831.61 476.55 830.6 476.22 830.6 475.88 830.6 475.54 830.6 474.87 830.6 474.53 830.6 474.53 830.93 481.95 834.65 490.05 836 498.15 834.65 505.58 830.93 505.24 830.6 504.57 830.6 504.23 830.6 503.89 830.6 503.56 830.6 501.87 831.61 500.18 832.28 498.83 831.95 497.82 830.93 497.48 830.26 498.15 829.92 503.56 825.2 507.27 819.12 472.84 819.12"/>
  <polygon class="st13" points="520.77 819.12 524.14 825.2 529.88 829.92 530.22 830.26 530.22 830.93 529.21 831.95 527.86 832.28 526.17 831.61 524.48 830.6 524.14 830.6 523.81 830.6 523.13 830.6 522.79 830.6 522.46 830.6 522.46 830.93 529.55 834.65 537.98 836 546.08 834.65 553.51 830.93 553.17 830.6 552.83 830.6 552.5 830.6 552.16 830.6 551.48 830.6 551.15 830.6 549.8 831.61 548.11 832.28 546.42 831.95 545.41 830.93 545.41 830.26 545.75 829.92 551.48 825.2 555.2 819.12 520.77 819.12"/>
  <line class="st3" x1="476.55" y1="830.6" x2="476.22" y2="830.6"/>
  <line class="st3" x1="476.22" y1="830.6" x2="475.88" y2="830.6"/>
  <line class="st3" x1="474.87" y1="830.6" x2="475.54" y2="830.6"/>
  <line class="st3" x1="475.54" y1="830.6" x2="475.88" y2="830.6"/>
  <line class="st3" x1="474.53" y1="830.93" x2="474.53" y2="830.6"/>
  <line class="st3" x1="474.53" y1="830.6" x2="474.87" y2="830.6"/>
  <line class="st3" x1="482.29" y1="830.93" x2="481.28" y2="831.95"/>
  <line class="st3" x1="481.28" y1="831.95" x2="479.93" y2="832.28"/>
  <line class="st3" x1="479.93" y1="832.28" x2="478.24" y2="831.61"/>
  <line class="st3" x1="478.24" y1="831.61" x2="476.55" y2="830.6"/>
  <line class="st3" x1="481.95" y1="829.92" x2="482.29" y2="830.26"/>
  <line class="st3" x1="482.29" y1="830.26" x2="482.29" y2="830.93"/>
  <line class="st3" x1="481.95" y1="829.92" x2="476.55" y2="825.2"/>
  <line class="st3" x1="476.55" y1="825.2" x2="472.84" y2="819.12"/>
  <line class="st3" x1="503.56" y1="830.6" x2="503.89" y2="830.6"/>
  <line class="st3" x1="503.89" y1="830.6" x2="504.23" y2="830.6"/>
  <line class="st3" x1="505.24" y1="830.6" x2="504.57" y2="830.6"/>
  <line class="st3" x1="504.57" y1="830.6" x2="504.23" y2="830.6"/>
  <line class="st3" x1="505.58" y1="830.93" x2="505.24" y2="830.6"/>
  <line class="st3" x1="497.82" y1="830.93" x2="498.83" y2="831.95"/>
  <line class="st3" x1="498.83" y1="831.95" x2="500.18" y2="832.28"/>
  <line class="st3" x1="500.18" y1="832.28" x2="501.87" y2="831.61"/>
  <line class="st3" x1="501.87" y1="831.61" x2="503.55" y2="830.6"/>
  <line class="st3" x1="498.16" y1="829.92" x2="497.48" y2="830.26"/>
  <line class="st3" x1="497.48" y1="830.26" x2="497.82" y2="830.93"/>
  <line class="st3" x1="498.16" y1="829.92" x2="503.56" y2="825.2"/>
  <line class="st3" x1="503.56" y1="825.2" x2="507.27" y2="819.12"/>
  <line class="st3" x1="474.53" y1="830.93" x2="481.95" y2="834.65"/>
  <line class="st3" x1="481.95" y1="834.65" x2="490.05" y2="836"/>
  <line class="st3" x1="490.05" y1="836" x2="498.15" y2="834.65"/>
  <line class="st3" x1="498.16" y1="834.65" x2="505.58" y2="830.93"/>
  <line class="st3" x1="476.55" y1="743.85" x2="476.22" y2="743.85"/>
  <line class="st3" x1="476.22" y1="743.85" x2="475.88" y2="743.85"/>
  <line class="st3" x1="474.87" y1="743.85" x2="475.54" y2="743.85"/>
  <line class="st3" x1="475.54" y1="743.85" x2="475.88" y2="743.85"/>
  <line class="st3" x1="474.53" y1="743.51" x2="474.53" y2="743.85"/>
  <line class="st3" x1="474.53" y1="743.85" x2="474.87" y2="743.85"/>
  <line class="st3" x1="482.29" y1="743.51" x2="481.28" y2="742.5"/>
  <line class="st3" x1="481.28" y1="742.5" x2="479.93" y2="742.17"/>
  <line class="st3" x1="479.93" y1="742.16" x2="478.24" y2="742.84"/>
  <line class="st3" x1="478.24" y1="742.84" x2="476.55" y2="743.85"/>
  <line class="st3" x1="481.95" y1="744.53" x2="482.29" y2="744.19"/>
  <line class="st3" x1="482.29" y1="744.19" x2="482.29" y2="743.52"/>
  <line class="st3" x1="481.95" y1="744.53" x2="476.55" y2="749.25"/>
  <line class="st3" x1="476.55" y1="749.25" x2="472.84" y2="755.33"/>
  <line class="st3" x1="503.56" y1="743.85" x2="503.89" y2="743.85"/>
  <line class="st3" x1="503.89" y1="743.85" x2="504.23" y2="743.85"/>
  <line class="st3" x1="505.24" y1="743.85" x2="504.57" y2="743.85"/>
  <line class="st3" x1="504.57" y1="743.85" x2="504.23" y2="743.85"/>
  <line class="st3" x1="505.58" y1="743.51" x2="505.24" y2="743.85"/>
  <line class="st3" x1="497.82" y1="743.51" x2="498.83" y2="742.5"/>
  <line class="st3" x1="498.83" y1="742.5" x2="500.18" y2="742.17"/>
  <line class="st3" x1="500.18" y1="742.16" x2="501.87" y2="742.84"/>
  <line class="st3" x1="501.87" y1="742.84" x2="503.55" y2="743.85"/>
  <line class="st3" x1="498.16" y1="744.53" x2="497.48" y2="744.19"/>
  <line class="st3" x1="497.48" y1="744.19" x2="497.82" y2="743.52"/>
  <line class="st3" x1="498.16" y1="744.53" x2="503.56" y2="749.25"/>
  <line class="st3" x1="503.56" y1="749.25" x2="507.27" y2="755.33"/>
  <line class="st3" x1="474.53" y1="743.51" x2="481.95" y2="739.8"/>
  <line class="st3" x1="481.95" y1="739.8" x2="490.05" y2="738.45"/>
  <line class="st3" x1="490.05" y1="738.45" x2="498.15" y2="739.8"/>
  <line class="st3" x1="498.16" y1="739.8" x2="505.58" y2="743.52"/>
  <line class="st3" x1="466.09" y1="755.33" x2="466.09" y2="819.12"/>
  <line class="st3" x1="551.15" y1="830.6" x2="551.48" y2="830.6"/>
  <line class="st3" x1="551.48" y1="830.6" x2="552.16" y2="830.6"/>
  <line class="st3" x1="552.83" y1="830.6" x2="552.5" y2="830.6"/>
  <line class="st3" x1="552.5" y1="830.6" x2="552.16" y2="830.6"/>
  <line class="st3" x1="553.51" y1="830.93" x2="553.17" y2="830.6"/>
  <line class="st3" x1="553.17" y1="830.6" x2="552.83" y2="830.6"/>
  <line class="st3" x1="545.41" y1="830.93" x2="546.42" y2="831.95"/>
  <line class="st3" x1="546.42" y1="831.95" x2="548.11" y2="832.28"/>
  <line class="st3" x1="548.11" y1="832.28" x2="549.8" y2="831.61"/>
  <line class="st3" x1="549.8" y1="831.61" x2="551.15" y2="830.6"/>
  <line class="st3" x1="545.75" y1="829.92" x2="545.41" y2="830.26"/>
  <line class="st3" x1="545.41" y1="830.26" x2="545.41" y2="830.93"/>
  <line class="st3" x1="545.75" y1="829.92" x2="551.48" y2="825.2"/>
  <line class="st3" x1="551.48" y1="825.2" x2="555.2" y2="819.12"/>
  <line class="st3" x1="524.48" y1="830.6" x2="524.14" y2="830.6"/>
  <line class="st3" x1="524.14" y1="830.6" x2="523.81" y2="830.6"/>
  <line class="st3" x1="522.79" y1="830.6" x2="523.13" y2="830.6"/>
  <line class="st3" x1="523.13" y1="830.6" x2="523.81" y2="830.6"/>
  <line class="st3" x1="522.46" y1="830.93" x2="522.46" y2="830.6"/>
  <line class="st3" x1="522.46" y1="830.6" x2="522.79" y2="830.6"/>
  <line class="st3" x1="530.22" y1="830.93" x2="529.21" y2="831.95"/>
  <line class="st3" x1="529.21" y1="831.95" x2="527.86" y2="832.28"/>
  <line class="st3" x1="527.86" y1="832.28" x2="526.17" y2="831.61"/>
  <line class="st3" x1="526.17" y1="831.61" x2="524.48" y2="830.6"/>
  <line class="st3" x1="529.88" y1="829.92" x2="530.22" y2="830.26"/>
  <line class="st3" x1="530.22" y1="830.26" x2="530.22" y2="830.93"/>
  <line class="st3" x1="529.88" y1="829.92" x2="524.15" y2="825.2"/>
  <line class="st3" x1="524.14" y1="825.2" x2="520.77" y2="819.12"/>
  <line class="st3" x1="553.51" y1="830.93" x2="546.08" y2="834.65"/>
  <line class="st3" x1="546.08" y1="834.65" x2="537.98" y2="836"/>
  <line class="st3" x1="537.98" y1="836" x2="529.55" y2="834.65"/>
  <line class="st3" x1="529.54" y1="834.65" x2="522.46" y2="830.93"/>
  <line class="st3" x1="551.15" y1="743.85" x2="551.48" y2="743.85"/>
  <line class="st3" x1="551.48" y1="743.85" x2="552.16" y2="743.85"/>
  <line class="st3" x1="552.83" y1="743.85" x2="552.5" y2="743.85"/>
  <line class="st3" x1="552.5" y1="743.85" x2="552.16" y2="743.85"/>
  <line class="st3" x1="553.51" y1="743.51" x2="553.17" y2="743.85"/>
  <line class="st3" x1="553.17" y1="743.85" x2="552.83" y2="743.85"/>
  <line class="st3" x1="545.41" y1="743.51" x2="546.42" y2="742.5"/>
  <line class="st3" x1="546.42" y1="742.5" x2="548.11" y2="742.17"/>
  <line class="st3" x1="548.11" y1="742.16" x2="549.8" y2="742.84"/>
  <line class="st3" x1="549.8" y1="742.84" x2="551.15" y2="743.85"/>
  <line class="st3" x1="545.75" y1="744.53" x2="545.41" y2="744.19"/>
  <line class="st3" x1="545.41" y1="744.19" x2="545.41" y2="743.52"/>
  <line class="st3" x1="545.75" y1="744.53" x2="551.48" y2="749.25"/>
  <line class="st3" x1="551.48" y1="749.25" x2="555.2" y2="755.33"/>
  <line class="st3" x1="524.48" y1="743.85" x2="524.14" y2="743.85"/>
  <line class="st3" x1="524.14" y1="743.85" x2="523.81" y2="743.85"/>
  <line class="st3" x1="522.79" y1="743.85" x2="523.13" y2="743.85"/>
  <line class="st3" x1="523.13" y1="743.85" x2="523.81" y2="743.85"/>
  <line class="st3" x1="522.46" y1="743.51" x2="522.46" y2="743.85"/>
  <line class="st3" x1="522.46" y1="743.85" x2="522.79" y2="743.85"/>
  <line class="st3" x1="530.22" y1="743.51" x2="529.21" y2="742.5"/>
  <line class="st3" x1="529.21" y1="742.5" x2="527.86" y2="742.17"/>
  <line class="st3" x1="527.86" y1="742.16" x2="526.17" y2="742.84"/>
  <line class="st3" x1="526.17" y1="742.84" x2="524.48" y2="743.85"/>
  <line class="st3" x1="529.88" y1="744.53" x2="530.22" y2="744.19"/>
  <line class="st3" x1="530.22" y1="744.19" x2="530.22" y2="743.52"/>
  <line class="st3" x1="529.88" y1="744.53" x2="524.15" y2="749.25"/>
  <line class="st3" x1="524.14" y1="749.25" x2="520.77" y2="755.33"/>
  <line class="st3" x1="553.51" y1="743.51" x2="546.08" y2="739.8"/>
  <line class="st3" x1="546.08" y1="739.8" x2="537.98" y2="738.45"/>
  <line class="st3" x1="537.98" y1="738.45" x2="529.55" y2="739.8"/>
  <line class="st3" x1="529.54" y1="739.8" x2="522.46" y2="743.52"/>
  <line class="st3" x1="561.61" y1="755.33" x2="561.61" y2="819.12"/>
  <polyline class="st3" points="561.61 819.12 555.2 819.12 520.77 819.12 507.27 819.12 472.84 819.12 466.09 819.12"/>
  <polyline class="st3" points="466.09 755.33 472.84 755.33 507.27 755.33 520.77 755.33 555.2 755.33 561.61 755.33"/>
  <line class="st3" x1="471.95" y1="1013.37" x2="482.62" y2="1013.37"/>
  <rect class="st3" x="465.83" y="989.4" width="47.78" height="117.89"/>
  <line class="st3" x1="498.6" y1="1069.47" x2="498.6" y2="1079.91"/>
  <line class="st3" x1="478.99" y1="1069.47" x2="478.99" y2="1079.91"/>
  <line class="st3" x1="484.13" y1="1074.62" x2="473.7" y2="1074.62"/>
  <line class="st3" x1="503.88" y1="1074.62" x2="493.45" y2="1074.62"/>
  <rect class="st3" x="469.11" y="1063.49" width="39.36" height="22.95"/>
  <rect class="st3" x="476.2" y="1000.03" width="26.54" height="26.54"/>
  <rect class="st3" x="469.6" y="993.42" width="39.75" height="39.89"/>
  <g class="st10">
    <path class="st13" d="M668.27,864.01c10.26,0,18.57,8.32,18.57,18.57s-8.31,18.57-18.57,18.57-18.57-8.31-18.57-18.57,8.31-18.57,18.57-18.57"/>
    <path class="st1" d="M668.27,864.01c10.26,0,18.57,8.32,18.57,18.57s-8.31,18.57-18.57,18.57-18.57-8.31-18.57-18.57,8.31-18.57,18.57-18.57Z"/>
  </g>
</svg>