<?xml version="1.0" encoding="UTF-8"?>
<svg id="Layer_1" xmlns="http://www.w3.org/2000/svg" xmlns:xlink="http://www.w3.org/1999/xlink" version="1.1" viewBox="0 0 1200 1697.14">
  <!-- Generator: Adobe Illustrator 29.6.0, SVG Export Plug-In . SVG Version: 2.1.1 Build 207)  -->
  <defs>
    <style>
      .st0, .st1, .st2, .st3, .st4 {
        fill: none;
      }

      .st1, .st2, .st3, .st4, .st5 {
        stroke: #000;
      }

      .st1, .st2, .st5 {
        stroke-miterlimit: 10;
      }

      .st1, .st5 {
        stroke-width: .09px;
      }

      .st2, .st4 {
        stroke-width: .08px;
      }

      .st3 {
        stroke-width: .14px;
      }

      .st3, .st4 {
        stroke-linecap: round;
        stroke-linejoin: round;
      }

      .st6 {
        clip-path: url(#clippath-17);
      }

      .st7 {
        clip-path: url(#clippath-11);
      }

      .st8 {
        clip-path: url(#clippath-16);
      }

      .st9 {
        clip-path: url(#clippath-10);
      }

      .st10 {
        clip-path: url(#clippath-15);
      }

      .st11 {
        clip-path: url(#clippath-13);
      }

      .st12 {
        clip-path: url(#clippath-14);
      }

      .st13 {
        clip-path: url(#clippath-12);
      }

      .st14 {
        clip-path: url(#clippath-1);
      }

      .st15 {
        clip-path: url(#clippath-3);
      }

      .st16 {
        clip-path: url(#clippath-4);
      }

      .st17 {
        clip-path: url(#clippath-2);
      }

      .st18 {
        clip-path: url(#clippath-7);
      }

      .st19 {
        clip-path: url(#clippath-6);
      }

      .st20 {
        clip-path: url(#clippath-9);
      }

      .st21 {
        clip-path: url(#clippath-8);
      }

      .st22 {
        clip-path: url(#clippath-5);
      }

      .st23 {
        fill: #fff;
      }

      .st24 {
        fill: #ece9e5;
      }

      .st25 {
        fill: #373a3b;
      }

      .st5, .st26 {
        fill: #302c35;
      }

      .st27 {
        clip-path: url(#clippath);
      }
    </style>
    <clipPath id="clippath">
      <rect class="st0" x="628.65" y="805.16" width="150.18" height="120.74"/>
    </clipPath>
    <clipPath id="clippath-1">
      <rect class="st0" x="268.55" y="465.44" width="662.9" height="766.27"/>
    </clipPath>
    <clipPath id="clippath-2">
      <rect class="st0" x="268.55" y="465.44" width="662.9" height="766.27"/>
    </clipPath>
    <clipPath id="clippath-3">
      <rect class="st0" x="406.14" y="877.63" width="115.57" height="115.56"/>
    </clipPath>
    <clipPath id="clippath-4">
      <rect class="st0" x="268.55" y="465.44" width="662.9" height="766.27"/>
    </clipPath>
    <clipPath id="clippath-5">
      <rect class="st0" x="268.55" y="465.44" width="662.9" height="766.27"/>
    </clipPath>
    <clipPath id="clippath-6">
      <rect class="st0" x="268.55" y="465.44" width="662.9" height="766.27"/>
    </clipPath>
    <clipPath id="clippath-7">
      <rect class="st0" x="268.55" y="465.44" width="662.9" height="766.27"/>
    </clipPath>
    <clipPath id="clippath-8">
      <rect class="st0" x="268.55" y="465.44" width="662.9" height="766.27"/>
    </clipPath>
    <clipPath id="clippath-9">
      <rect class="st0" x="268.55" y="465.44" width="662.9" height="766.27"/>
    </clipPath>
    <clipPath id="clippath-10">
      <rect class="st0" x="268.55" y="465.44" width="662.9" height="766.27"/>
    </clipPath>
    <clipPath id="clippath-11">
      <rect class="st0" x="676.61" y="996.18" width="28.6" height="39.22"/>
    </clipPath>
    <clipPath id="clippath-12">
      <rect class="st0" x="268.55" y="465.44" width="662.9" height="766.27"/>
    </clipPath>
    <clipPath id="clippath-13">
      <rect class="st0" x="268.55" y="465.44" width="662.9" height="766.27"/>
    </clipPath>
    <clipPath id="clippath-14">
      <rect class="st0" x="746.94" y="1078.92" width="27.51" height="37.12"/>
    </clipPath>
    <clipPath id="clippath-15">
      <rect class="st0" x="268.55" y="465.44" width="662.9" height="766.27"/>
    </clipPath>
    <clipPath id="clippath-16">
      <rect class="st0" x="268.55" y="465.44" width="662.9" height="766.27"/>
    </clipPath>
    <clipPath id="clippath-17">
      <rect class="st0" x="268.55" y="465.44" width="662.9" height="766.27"/>
    </clipPath>
  </defs>
  <rect class="st24" x="344.77" y="664.99" width="304.45" height="481.65"/>
  <rect class="st24" x="398.44" y="561.29" width="216.48" height="123.28"/>
  <rect class="st24" x="632.34" y="666.68" width="167.75" height="479.96"/>
  <rect class="st23" x="607.45" y="935.99" width="49.05" height="97.35"/>
  <rect class="st23" x="358.13" y="1035.26" width="51.78" height="97.96"/>
  <rect class="st23" x="734.95" y="708.82" width="50.34" height="50.34"/>
  <rect class="st23" x="645.83" y="662.63" width="87.32" height="18.23"/>
  <rect class="st23" x="407.72" y="669.38" width="185.81" height="11.47"/>
  <rect class="st26" x="583.4" y="695.37" width="65.82" height="16.2"/>
  <rect class="st26" x="490.26" y="1130.78" width="309.83" height="15.87"/>
  <rect class="st26" x="344.77" y="1130.78" width="74.26" height="15.87"/>
  <rect class="st25" x="398.44" y="561.03" width="4.05" height="103.96"/>
  <rect class="st26" x="610.94" y="561.03" width="4.05" height="103.96"/>
  <rect class="st5" x="398.44" y="561.03" width="216.55" height="4.05"/>
  <rect class="st26" x="344.77" y="711.57" width="17.21" height="419.21"/>
  <rect class="st26" x="731.58" y="675.45" width="68.52" height="36.12"/>
  <rect class="st26" x="731.58" y="666.68" width="68.52" height="8.78"/>
  <rect class="st26" x="663.06" y="929.95" width="119.49" height="7.76"/>
  <rect class="st26" x="654.96" y="937.71" width="8.1" height="51.98"/>
  <rect class="st26" x="654.96" y="1124.03" width="126.24" height="8.95"/>
  <rect class="st26" x="654.96" y="989.69" width="5.4" height="54.68"/>
  <rect class="st26" x="654.96" y="1115.25" width="6.75" height="18.23"/>
  <rect class="st26" x="660.36" y="989.69" width="120.83" height="5.07"/>
  <rect class="st26" x="593.53" y="790.89" width="7.76" height="139.06"/>
  <rect class="st26" x="593.53" y="694.86" width="7.76" height="25.48"/>
  <rect class="st26" x="660.36" y="994.75" width="115.44" height="1.35"/>
  <rect class="st26" x="660.36" y="996.1" width="1.35" height="48.27"/>
  <rect class="st26" x="660.36" y="1122.68" width="115.44" height="1.35"/>
  <rect class="st26" x="593.53" y="929.95" width="69.53" height="7.76"/>
  <rect class="st26" x="583.4" y="664.99" width="65.82" height="30.38"/>
  <rect class="st26" x="344.77" y="664.99" width="74.93" height="46.58"/>
  <g class="st27">
    <path class="st23" d="M778.58,805.16l.24,119.9-30.77.17v-.12s1.51-14.98,1.51-14.98l17.6-.16c2.41-.09,4.23-1.85,4.14-4.26l-.35-81.55c-.14-2.01-1.91-3.84-4.27-4.14l-8.01.18,1.51-14.94,18.39-.09Z"/>
    <path class="st23" d="M771.3,905.71c.09,2.41-1.73,4.17-4.14,4.26l-17.6.15,9.11-89.93,8.01-.17c2.35.3,4.13,2.12,4.27,4.14l.35,81.55Z"/>
    <polygon class="st23" points="748.05 925.11 748.05 925.23 629.28 925.9 628.64 805.95 760.19 805.26 758.68 820.19 749.56 910.13 748.05 925.11"/>
  </g>
  <line class="st4" x1="629.28" y1="925.9" x2="628.65" y2="805.95"/>
  <polyline class="st4" points="778.82 925.06 748.05 925.23 629.28 925.9"/>
  <polyline class="st4" points="628.65 805.95 760.19 805.26 778.58 805.16"/>
  <polyline class="st4" points="760.2 805.2 760.19 805.26 758.68 820.19 749.56 910.13 748.05 925.11"/>
  <line class="st4" x1="766.69" y1="820.02" x2="758.68" y2="820.19"/>
  <g class="st14">
    <path class="st4" d="M770.96,824.16c-.14-2.01-1.91-3.84-4.27-4.14"/>
  </g>
  <line class="st4" x1="767.17" y1="909.98" x2="749.57" y2="910.13"/>
  <g class="st17">
    <path class="st4" d="M767.17,909.98c2.41-.09,4.23-1.85,4.14-4.26"/>
  </g>
  <g class="st15">
    <path class="st23" d="M446.25,976.49c-5.15-2.12-9.92-5.28-14.02-9.39-4.1-4.1-7.27-8.86-9.39-14.02-2.17-5.29-3.24-11.01-3.09-16.88-.15-6.04,1.06-12,3.4-17.45,2.15-5,5.24-9.59,9.07-13.42,4.93-4.93,10.81-8.51,17.25-10.6,4.41-1.43,9.1-2.17,13.93-2.18,7.57,0,14.99,2.01,21.57,5.83,3.24,1.88,6.27,4.2,9.02,6.94,2.73,2.74,5.06,5.77,6.94,9.01,3.82,6.58,5.83,14.01,5.83,21.57,0,4.84-.74,9.53-2.17,13.94-2.09,6.45-5.66,12.31-10.6,17.25-3.83,3.83-8.42,6.92-13.42,9.07-5.46,2.34-11.42,3.56-17.46,3.4-5.87.15-11.57-.91-16.87-3.08"/>
    <path class="st23" d="M463.12,979.57c6.04.16,12-1.06,17.46-3.4l.06.14c-2.08,4.45-5.35,8.31-9.5,10.68-.3.3-.3.89,0,1.19.3.89,1.19,1.19,2.38,1.19.89-.3,2.08-.89,2.97-1.78q.59,0,.89.3c.3-.3.59,0,.89-.3l.59.6c-9.5,6.53-21.67,6.83-30.89,0-.29-.3,0-.6.3-.3.3-.3.59,0,.89-.3.29.3.59,0,.89.3.89.3,2.08.89,3.26,1.49.89.3,2.09-.29,2.38-1.19.3-.3.3-.89-.29-.89-4.39-2.64-7.63-6.43-9.15-10.8,5.29,2.17,11,3.23,16.87,3.08"/>
    <path class="st23" d="M412.34,928.19c2.38-4.16,5.94-7.72,10.69-9.5l.14.06c-2.34,5.46-3.55,11.42-3.4,17.45-.15,5.86.92,11.58,3.09,16.88-4.37-1.51-8.16-4.75-10.81-9.15,0-.59-.6-.59-.89-.3-.89.3-1.48,1.49-1.18,2.38.59,1.19,1.19,2.38,1.49,3.27.3.3,0,.6.3.89-.3.3,0,.6-.3.89.3.3-.3.3-.3.3-6.83-9.21-6.54-21.38,0-30.89l.59.59c-.3.3,0,.6-.3.89q.3.3.3.89c-.89.89-1.48,2.08-1.78,2.97,0,1.19.3,2.08,1.19,2.37.3.3.89.3,1.19,0"/>
    <path class="st23" d="M516.58,917.2c6.83,9.21,6.83,21.68,0,30.89,0,0-.3-.3-.59-.6v-.59q0-.59.29-.89c.6-1.19,1.19-2.38,1.48-3.27.3-.89-.3-2.08-1.19-2.37-.3-.3-.89-.3-1.19,0-2.08,4.45-5.94,7.72-10.69,9.51l-.09-.03c1.43-4.41,2.16-9.1,2.17-13.94,0-7.56-2.01-14.99-5.83-21.57l.18-.11c5.94,1.19,11.59,5.05,14.55,10.4,0,.59.59.59.89.3.9-.3,1.49-1.49,1.19-2.38-.59-1.19-.89-2.08-1.48-3.26q-.29-.3-.29-.89s0-.6.29-.89l.3-.3Z"/>
    <path class="st23" d="M451.25,882.75c9.2-6.83,21.67-6.83,30.89,0l-.3.3c-.3.29-.89.29-.89.29q-.6,0-.89-.29c-1.18-.6-2.08-.89-3.27-1.49-.89-.29-2.08.3-2.38,1.19-.29.3-.29.89.3.89,5.35,2.97,9.21,8.61,10.4,14.55l-.11.19c-6.58-3.83-14-5.83-21.57-5.83-4.83,0-9.52.74-13.93,2.18l-.03-.09c1.78-4.75,5.05-8.61,9.51-10.69.3-.3.3-.89,0-1.19-.3-.89-1.48-1.48-2.37-1.19-.89.3-2.08.89-3.27,1.49q-.3.29-.89.29s-.59,0-.89-.29l-.3-.3Z"/>
  </g>
  <g class="st16">
    <path class="st4" d="M411.75,922.85q0-.59-.3-.89"/>
    <path class="st4" d="M422.85,953.08c2.12,5.15,5.29,9.92,9.39,14.02,4.1,4.1,8.87,7.27,14.02,9.39,5.29,2.17,11,3.23,16.87,3.08,6.04.16,12-1.06,17.46-3.4,5-2.15,9.59-5.24,13.42-9.07,4.93-4.93,8.51-10.8,10.6-17.25,1.43-4.41,2.17-9.1,2.17-13.94,0-7.56-2.01-14.99-5.83-21.57-1.88-3.24-4.2-6.27-6.94-9.01-2.74-2.74-5.78-5.07-9.02-6.94-6.58-3.82-14-5.83-21.57-5.83-4.84,0-9.52.74-13.93,2.17-6.45,2.09-12.32,5.67-17.25,10.6-3.83,3.83-6.92,8.42-9.07,13.42-2.34,5.46-3.56,11.42-3.4,17.46-.16,5.86.92,11.57,3.09,16.87Z"/>
    <path class="st4" d="M447.97,988.18c9.21,6.83,21.38,6.54,30.89,0"/>
    <path class="st4" d="M446.19,976.31c.02.06.04.12.06.18,1.51,4.37,4.75,8.17,9.14,10.81"/>
    <path class="st4" d="M455.69,988.18c.3-.3.3-.89-.3-.89"/>
    <path class="st4" d="M450.05,987.88c.89.3,2.08.89,3.27,1.48"/>
    <path class="st4" d="M453.32,989.37c.89.3,2.08-.29,2.38-1.19"/>
    <path class="st4" d="M448.27,987.88c-.3-.3-.59,0-.3.3"/>
    <path class="st4" d="M449.16,987.59c-.3.3-.59,0-.89.3"/>
    <path class="st4" d="M450.05,987.88c-.3-.3-.59,0-.89-.3"/>
    <path class="st4" d="M471.14,986.99c-.3.3-.3.89,0,1.19"/>
    <path class="st4" d="M473.52,989.37c.89-.3,2.08-.89,2.97-1.78"/>
    <path class="st4" d="M471.14,988.18c.3.89,1.19,1.19,2.38,1.19"/>
  </g>
  <line class="st4" x1="478.86" y1="988.18" x2="478.27" y2="987.59"/>
  <g class="st22">
    <path class="st4" d="M478.27,987.59c-.3.3-.59,0-.89.3"/>
    <path class="st4" d="M477.37,987.88q-.3-.3-.89-.3"/>
    <path class="st4" d="M471.14,986.99c4.15-2.37,7.42-6.24,9.5-10.69"/>
    <path class="st4" d="M516.58,948.09c6.83-9.2,6.83-21.68,0-30.89"/>
    <path class="st4" d="M515.68,924.63c-2.96-5.35-8.61-9.2-14.55-10.4"/>
    <path class="st4" d="M515.68,924.63c0,.59.59.59.89.3"/>
    <path class="st4" d="M517.77,922.54c-.59-1.19-.89-2.08-1.48-3.26"/>
    <path class="st4" d="M516.57,924.93c.9-.3,1.49-1.49,1.2-2.38"/>
  </g>
  <line class="st4" x1="516.58" y1="917.2" x2="516.28" y2="917.5"/>
  <g class="st19">
    <path class="st4" d="M516.28,917.5c-.3.3-.3.89-.3.89"/>
    <path class="st4" d="M515.99,918.39q0,.59.3.89"/>
    <path class="st4" d="M516.58,940.37c-.3-.3-.89-.3-1.19,0"/>
    <path class="st4" d="M516.28,946.01c.59-1.19,1.19-2.37,1.48-3.26"/>
    <path class="st4" d="M517.77,942.74c.3-.89-.3-2.08-1.19-2.37"/>
    <path class="st4" d="M515.99,947.49c.3.3.59.6.59.6"/>
  </g>
  <line class="st4" x1="515.99" y1="946.9" x2="515.99" y2="947.49"/>
  <g class="st18">
    <path class="st4" d="M516.28,946.01q-.3.3-.3.89"/>
    <path class="st4" d="M504.7,949.87c4.75-1.78,8.61-5.05,10.69-9.51"/>
    <path class="st4" d="M411.15,920.47c-6.54,9.51-6.83,21.68,0,30.89"/>
    <path class="st4" d="M412.04,943.93c2.64,4.4,6.44,7.64,10.81,9.15.06.02.12.04.18.06"/>
    <path class="st4" d="M412.04,943.93c0-.6-.59-.6-.89-.3"/>
    <path class="st4" d="M409.96,946.01c.59,1.19,1.2,2.38,1.49,3.27"/>
    <path class="st4" d="M411.15,943.63c-.89.3-1.48,1.48-1.19,2.37"/>
    <path class="st4" d="M411.15,951.36s.59,0,.3-.3"/>
    <path class="st4" d="M411.45,951.06c.3-.3,0-.6.3-.89"/>
    <path class="st4" d="M411.75,950.17c-.3-.3,0-.59-.3-.89"/>
    <path class="st4" d="M411.15,928.19c.3.3.89.3,1.19,0"/>
    <path class="st4" d="M411.75,922.85c-.89.89-1.48,2.08-1.78,2.97"/>
    <path class="st4" d="M409.97,925.82c0,1.19.3,2.08,1.19,2.37"/>
  </g>
  <line class="st4" x1="411.75" y1="921.07" x2="411.15" y2="920.47"/>
  <g class="st21">
    <path class="st4" d="M411.45,921.96c.3-.3,0-.6.3-.89"/>
    <path class="st4" d="M423.03,918.69c-4.75,1.78-8.31,5.35-10.69,9.5"/>
    <path class="st4" d="M482.13,882.75c-9.21-6.83-21.68-6.83-30.89,0"/>
    <path class="st4" d="M485.09,898.2c-1.19-5.94-5.04-11.58-10.4-14.55"/>
    <path class="st4" d="M474.4,882.75c-.3.3-.3.89.3.89"/>
    <path class="st4" d="M480.05,883.05c-1.19-.59-2.08-.89-3.27-1.49"/>
    <path class="st4" d="M476.78,881.56c-.89-.3-2.08.3-2.38,1.19"/>
  </g>
  <line class="st4" x1="481.83" y1="883.05" x2="482.13" y2="882.75"/>
  <g class="st20">
    <path class="st4" d="M480.94,883.35s.59,0,.89-.3"/>
    <path class="st4" d="M480.05,883.05q.3.3.89.3"/>
    <path class="st4" d="M458.96,883.94c.3-.3.3-.89,0-1.19"/>
    <path class="st4" d="M456.59,881.57c-.89.3-2.08.89-3.27,1.48"/>
    <path class="st4" d="M458.96,882.75c-.3-.89-1.48-1.48-2.38-1.19"/>
  </g>
  <line class="st4" x1="451.25" y1="882.75" x2="451.54" y2="883.05"/>
  <g class="st9">
    <path class="st4" d="M451.54,883.05c.3.3.89.3.89.3"/>
    <path class="st4" d="M452.43,883.35q.59,0,.89-.3"/>
    <path class="st4" d="M458.96,883.94c-4.45,2.08-7.72,5.94-9.51,10.69"/>
  </g>
  <g class="st7">
    <path class="st23" d="M705.21,996.2c0,7.71,0,15.42,0,23.12-.01,8.89-6.41,16.09-14.32,16.08-7.89,0-14.28-7.21-14.28-16.1,0-7.7.01-15.41.01-23.12,9.54,0,19.06.02,28.59.02"/>
  </g>
  <g class="st13">
    <path class="st4" d="M705.21,996.2c0,7.71,0,15.42,0,23.12-.01,8.89-6.41,16.09-14.32,16.08-7.89,0-14.28-7.21-14.28-16.1,0-7.7.01-15.41.01-23.12,9.54,0,19.06.02,28.59.02Z"/>
  </g>
  <rect class="st23" x="711.95" y="996.21" width="62.49" height="63.21"/>
  <line class="st4" x1="774.44" y1="996.22" x2="712.45" y2="996.22"/>
  <line class="st4" x1="711.95" y1="997.26" x2="711.95" y2="1058.87"/>
  <polyline class="st4" points="711.95 997.26 711.95 996.22 712.45 996.22"/>
  <polyline class="st4" points="712.89 1059.43 711.95 1059.43 711.95 1058.87"/>
  <line class="st4" x1="712.89" y1="1059.43" x2="774.44" y2="1059.43"/>
  <line class="st4" x1="744.15" y1="996.22" x2="744.15" y2="1013.77"/>
  <g class="st11">
    <path class="st4" d="M747.99,1013.69c0-2.17-1.76-3.93-3.93-3.93s-3.93,1.76-3.93,3.93,1.76,3.93,3.93,3.93,3.93-1.76,3.93-3.93Z"/>
    <path class="st4" d="M747.99,1013.69c0-2.17-1.76-3.93-3.93-3.93s-3.93,1.76-3.93,3.93,1.76,3.93,3.93,3.93,3.93-1.76,3.93-3.93Z"/>
  </g>
  <g class="st12">
    <path class="st23" d="M749.06,1079.54h15.49c.59,0,1.07.35,1.07.79v34.13c0,.43-.48.78-1.07.78h-15.49c-.6,0-1.06-.35-1.06-.78v-34.13c0-.44.46-.79,1.06-.79M756.53,1094.59c-1.55,0-2.8,1.26-2.8,2.81s1.25,2.8,2.8,2.8,2.81-1.25,2.81-2.8-1.26-2.81-2.81-2.81"/>
    <path class="st23" d="M768.24,1097.4c0-1.17.95-2.11,2.1-2.11s2.11.95,2.11,2.11-.94,2.1-2.11,2.1-2.1-.94-2.1-2.1"/>
    <path class="st23" d="M756.53,1095.89c.83,0,1.51.68,1.51,1.51s-.68,1.51-1.51,1.51-1.51-.68-1.51-1.51.68-1.51,1.51-1.51"/>
    <path class="st23" d="M758.04,1097.4c0-.83-.68-1.51-1.51-1.51s-1.51.68-1.51,1.51.68,1.51,1.51,1.51,1.51-.68,1.51-1.51M756.53,1094.59c1.55,0,2.81,1.26,2.81,2.81s-1.26,2.8-2.81,2.8-2.8-1.25-2.8-2.8,1.25-2.81,2.8-2.81"/>
    <path class="st23" d="M772.45,1097.4c0-1.17-.95-2.11-2.11-2.11s-2.1.95-2.1,2.11.95,2.1,2.1,2.1,2.11-.94,2.11-2.1M764.56,1079.54h-15.5c-.59,0-1.06.35-1.06.79v34.13c0,.43.47.79,1.06.79h15.5c.59,0,1.07-.36,1.07-.79v-34.13c0-.44-.48-.79-1.07-.79M748,1078.92h26.45v37.12h-26.45c-.59,0-1.06-.35-1.06-.79v-35.71c0-.35.47-.62,1.06-.62"/>
  </g>
  <g class="st10">
    <path class="st4" d="M770.34,1099.5c-1.15,0-2.1-.95-2.1-2.1s.95-2.11,2.1-2.11,2.11.94,2.11,2.11-.94,2.1-2.11,2.1Z"/>
    <path class="st4" d="M756.53,1100.2c-1.55,0-2.8-1.25-2.8-2.8s1.25-2.81,2.8-2.81,2.81,1.26,2.81,2.81-1.26,2.8-2.81,2.8Z"/>
    <path class="st4" d="M756.53,1098.91c-.83,0-1.51-.68-1.51-1.51s.68-1.51,1.51-1.51,1.51.68,1.51,1.51-.68,1.51-1.51,1.51Z"/>
    <path class="st4" d="M764.56,1079.54h-15.5c-.59,0-1.06.35-1.06.79v34.13c0,.43.47.78,1.06.78h15.5c.59,0,1.07-.35,1.07-.78v-34.13c0-.44-.48-.79-1.07-.79Z"/>
  </g>
  <g class="st8">
    <path class="st4" d="M774.45,1078.92h-26.45c-.59,0-1.06.28-1.06.62v35.71c0,.44.47.79,1.06.79h8.38"/>
  </g>
  <line class="st4" x1="766.27" y1="1116.04" x2="756.38" y2="1116.04"/>
  <line class="st4" x1="648.5" y1="961.55" x2="637.82" y2="961.55"/>
  <rect class="st4" x="607.44" y="937.94" width="47.78" height="95.4"/>
  <line class="st4" x1="622.45" y1="1022.17" x2="622.45" y2="1011.74"/>
  <line class="st4" x1="642.06" y1="1022.17" x2="642.06" y2="1011.74"/>
  <line class="st4" x1="636.91" y1="1017.03" x2="647.34" y2="1017.03"/>
  <line class="st4" x1="617.16" y1="1017.03" x2="627.59" y2="1017.03"/>
  <rect class="st4" x="612.57" y="1005.2" width="39.36" height="22.95"/>
  <rect class="st4" x="618.31" y="948.35" width="26.54" height="26.54"/>
  <rect class="st4" x="611.7" y="941.61" width="39.75" height="39.88"/>
  <path class="st5" d="M663.06,937.71h119.49M782.55,937.71v51.98M782.55,989.69h-119.49M663.06,989.69v-31.05M731.58,695.37v16.2M731.58,711.57h50.97M583.4,695.37v16.2M649.22,711.57v-16.2M361.99,711.57h57.72M419.7,711.57v-16.2M491.26,1146.64h308.84M418.02,1130.78h-56.03M344.77,1146.64h4.73M349.5,1146.64h69.53M402.49,565.08v99.91M610.94,664.99v-99.91M623.23,664.99h4.05M614.99,664.99v-103.96M614.99,561.03h-216.56M398.44,561.03v103.96M398.44,664.99h4.05M402.49,664.99v-99.91M402.49,565.08h208.46M800.1,1146.64v-479.97M361.99,1130.78v-419.21M344.77,711.57v419.21M782.55,937.71h-119.49M663.06,958.64v31.05M663.06,989.69h119.49M782.55,989.69v-51.98M421.39,1064.28l12.83,1.35M434.22,1065.64l12.49,3.71M446.71,1069.35l11.81,6.07M458.52,1075.42l9.79,8.44M468.31,1083.86l8.44,9.79M476.75,1093.65l6.07,11.82M482.82,1105.46l3.71,12.49M486.53,1117.95l1.35,12.83M419.03,1146.64v-15.87M490.25,1130.78v15.87M487.88,1130.78h-66.49M421.39,1064.28h3.04M421.39,1130.78v-66.49M418.02,1130.78h1.01M731.58,675.45v19.91M731.58,666.68v8.78M800.1,666.68h-68.52M652.6,669.38l2.7-1.69M657.32,666.68l2.02-1.35M661.37,663.98l2.36-1.01M665.76,661.61l2.02-1.01M669.81,659.25l2.02-1.01M673.86,656.89l2.02-1.01M678.25,654.53l2.02-1.01M682.3,652.16l2.02-1.35M686.35,649.8l2.02-1.35M690.4,647.44l2.36-1.35M694.79,645.08l2.02-1.35M698.84,642.71l2.02-1.35M702.89,640.35l2.03-1.35M707.28,637.65l2.03-1.01M711.33,635.29l2.02-1.01M715.38,632.92l2.7-1.35M728.2,669.38l-.34-2.02M727.87,664.99l-.34-2.36M727.19,660.26v-2.36M726.85,655.54l-.68-2.36M725.5,650.81l-.68-2.02M724.15,646.43l-.34-2.36M722.8,641.7l-1.01-2.02M720.78,637.31l-1.01-2.02M718.75,633.26l-.67-1.69M657.66,673.77h65.48M723.14,673.77v-4.05M723.14,669.71h-65.48M657.66,669.71v4.05M726.52,680.85h-72.23M726.52,680.85h-72.23M726.52,675.45v5.4M654.29,675.45v5.4M654.29,669.38h72.23M657.66,669.38h65.48M657.66,675.45h65.48M654.29,675.45h72.23M650.24,680.85h4.05M654.29,680.85v-5.4M654.29,675.45h3.38M657.66,675.45v-6.08M657.66,669.38h-7.43M650.24,669.38v11.48M726.52,680.85h4.05M730.57,680.85v-11.48M730.57,669.38h-7.43M723.14,669.38v6.08M723.14,675.45h3.38M726.52,675.45v5.4M650.24,669.38h80.33M730.57,669.38h-80.33M728.2,669.38h-75.61M652.26,669.38h76.28M652.6,669.38h75.61M654.29,669.38h72.23M726.52,669.38h-72.23M728.54,669.38h-76.28M723.14,669.38h-65.48M657.66,669.38h65.48M423.08,593.77l13.16,1.35M436.24,595.12l12.49,3.37M448.73,598.5l12.15,5.4M460.88,603.9l10.8,7.42M471.68,611.32l9.11,9.45M480.8,620.77l7.43,10.8M488.22,631.57l5.74,11.82M493.96,643.39l3.38,12.82M497.34,656.21l1.01,13.16M423.08,669.38v-75.6M428.14,673.77h65.48M493.62,673.77v-4.05M493.62,669.71h-65.48M428.14,669.71v4.05M497,680.85h-72.23M428.14,669.38h65.48M428.14,675.45h65.48M497,675.45v5.4M424.77,675.45v5.4M424.77,675.45h72.23M420.72,680.85h4.05M424.77,680.85v-5.4M424.77,675.45h3.37M428.14,675.45v-6.08M428.14,669.38h-7.42M420.72,669.38v11.48M497,680.85h4.05M501.05,680.85v-11.48M501.05,669.38h-7.43M493.62,669.38v6.08M493.62,675.45h3.37M497,675.45v5.4M578.34,669.71v4.05M506.11,669.71h72.23M506.11,673.77v-4.05M578.34,673.77h-72.23M506.11,680.85h72.23M578.34,669.38h-72.23M582.39,669.38v11.48M578.34,669.38h4.05M578.34,680.85v-11.48M582.39,680.85h-4.05M506.11,669.38v11.48M502.06,669.38h4.05M502.06,680.85v-11.48M506.11,680.85h-4.05M782.55,929.95h-7.76M774.78,929.95v7.76M774.78,937.71h7.76M726.85,929.95h-63.79M663.06,937.71h63.79M726.85,937.71v-7.76M726.85,929.95h47.93M774.78,937.71h-47.93M774.78,929.95v7.76M726.85,937.71v-7.76M654.96,937.71v51.98M663.06,989.69v-51.98"/>
  <path class="st4" d="M654.96,1124.03v6.75M654.96,1115.25v8.78M654.96,989.69v54.68M660.36,1046.4v66.16M781.2,989.69h-118.14"/>
  <path class="st23" d="M361.99,1082.85h1.35M365.7,1082.85h2.36M370.42,1082.85h2.36M375.15,1082.85h2.7M380.21,1082.85h2.36M384.94,1082.85h2.36M389.66,1082.85h2.36M394.39,1082.85h2.36M399.11,1082.85h2.36M403.84,1082.85h2.7M408.9,1082.85h1.01M409.92,1082.85v1.35M409.92,1086.56v2.36M409.92,1091.29v2.36M409.92,1096.01v2.36M409.92,1100.74v2.7M409.92,1105.8v2.37M409.92,1110.53v2.36M409.92,1115.25v2.36M409.92,1119.98v2.36M409.92,1124.7v2.36M409.92,1129.43v1.35M361.99,1130.78v-1.35M361.99,1127.07v-2.36M361.99,1122.34v-2.36M361.99,1117.61v-2.36M361.99,1112.89v-2.36M361.99,1108.16v-2.37M361.99,1103.44v-2.7M361.99,1098.37v-2.36M361.99,1093.65v-2.36M361.99,1088.92v-2.36M361.99,1084.2v-1.35M361.99,1082.85h1.35M365.7,1082.85h2.36M370.42,1082.85h2.36M375.15,1082.85h2.7M380.21,1082.85h2.36M384.94,1082.85h2.36M389.66,1082.85h2.36M394.39,1082.85h2.36M399.11,1082.85h2.36M403.84,1082.85h2.7M408.9,1082.85h1.01M409.92,1082.85v-1.01M409.92,1079.47v-2.36M409.92,1074.41v-2.36M409.92,1069.68v-2.36M409.92,1064.96v-2.36M409.92,1060.23v-2.36M409.92,1055.51v-2.36M409.92,1050.78v-2.36M409.92,1045.72v-2.36M409.92,1040.99v-2.36M409.92,1036.27v-1.01M409.92,1035.26h-1.01M406.54,1035.26h-2.7M401.48,1035.26h-2.36M396.75,1035.26h-2.36M392.03,1035.26h-2.36M387.3,1035.26h-2.36M382.57,1035.26h-2.36M377.85,1035.26h-2.7M372.79,1035.26h-2.36M368.06,1035.26h-2.36M363.34,1035.26h-1.35M361.99,1035.26v1.01M361.99,1038.63v2.36M361.99,1043.36v2.36M361.99,1048.42v2.36M361.99,1053.15v2.36M361.99,1057.87v2.36M361.99,1062.6v2.36M361.99,1067.32v2.36M361.99,1072.05v2.36M361.99,1077.11v2.36M361.99,1081.84v1.01M593.53,711.57v8.78M601.29,719.33v-7.76M593.53,790.89v139.06M601.29,929.95v-138.05M601.29,719.33v1.01M601.29,722.71h0M601.29,790.89v1.01M667.11,722.71l-1.01,13.16M666.1,735.87l-4.05,12.15M662.05,748.02l-6.07,11.47M655.97,759.5l-8.1,9.79M647.87,769.28l-9.79,8.44M638.08,777.72l-11.48,6.08M626.61,783.8l-12.49,3.71M614.12,787.51l-12.83,1.01M601.29,790.89h-7.76M593.53,720.34h7.76M601.29,726.08v-3.38M601.29,722.71h65.82M601.29,719.33v1.01M601.29,722.71h0M601.29,726.08v62.44M601.29,790.89v1.01"/>
  <path class="st4" d="M361.99,1082.85h1.35M365.7,1082.85h2.36M370.42,1082.85h2.36M375.15,1082.85h2.7M380.21,1082.85h2.36M384.94,1082.85h2.36M389.66,1082.85h2.36M394.39,1082.85h2.36M399.11,1082.85h2.36M403.84,1082.85h2.7M408.9,1082.85h1.01M409.92,1082.85v1.35M409.92,1086.56v2.36M409.92,1091.29v2.36M409.92,1096.01v2.36M409.92,1100.74v2.7M409.92,1105.8v2.37M409.92,1110.53v2.36M409.92,1115.25v2.36M409.92,1119.98v2.36M409.92,1124.7v2.36M409.92,1129.43v1.35M361.99,1130.78v-1.35M361.99,1127.07v-2.36M361.99,1122.34v-2.36M361.99,1117.61v-2.36M361.99,1112.89v-2.36M361.99,1108.16v-2.37M361.99,1103.44v-2.7M361.99,1098.37v-2.36M361.99,1093.65v-2.36M361.99,1088.92v-2.36M361.99,1084.2v-1.35M361.99,1082.85h1.35M365.7,1082.85h2.36M370.42,1082.85h2.36M375.15,1082.85h2.7M380.21,1082.85h2.36M384.94,1082.85h2.36M389.66,1082.85h2.36M394.39,1082.85h2.36M399.11,1082.85h2.36M403.84,1082.85h2.7M408.9,1082.85h1.01M409.92,1082.85v-1.01M409.92,1079.47v-2.36M409.92,1074.41v-2.36M409.92,1069.68v-2.36M409.92,1064.96v-2.36M409.92,1060.23v-2.36M409.92,1055.51v-2.36M409.92,1050.78v-2.36M409.92,1045.72v-2.36M409.92,1040.99v-2.36M409.92,1036.27v-1.01M409.92,1035.26h-1.01M406.54,1035.26h-2.7M401.48,1035.26h-2.36M396.75,1035.26h-2.36M392.03,1035.26h-2.36M387.3,1035.26h-2.36M382.57,1035.26h-2.36M377.85,1035.26h-2.7M372.79,1035.26h-2.36M368.06,1035.26h-2.36M363.34,1035.26h-1.35M361.99,1035.26v1.01M361.99,1038.63v2.36M361.99,1043.36v2.36M361.99,1048.42v2.36M361.99,1053.15v2.36M361.99,1057.87v2.36M361.99,1062.6v2.36M361.99,1067.32v2.36M361.99,1072.05v2.36M361.99,1077.11v2.36M361.99,1081.84v1.01M593.53,711.57v8.78M601.29,719.33v-7.76M593.53,790.89v139.06M601.29,929.95v-138.05M601.29,719.33v1.01M601.29,722.71h0M601.29,790.89v1.01M667.11,722.71l-1.01,13.16M666.1,735.87l-4.05,12.15M662.05,748.02l-6.07,11.47M655.97,759.5l-8.1,9.79M647.87,769.28l-9.79,8.44M638.08,777.72l-11.48,6.08M626.61,783.8l-12.49,3.71M614.12,787.51l-12.83,1.01M601.29,790.89h-7.76M593.53,720.34h7.76M601.29,726.08v-3.38M601.29,722.71h65.82M601.29,719.33v1.01M601.29,722.71h0M601.29,726.08v62.44M601.29,790.89v1.01"/>
  <polygon class="st23" points="366.03 792.24 366.03 844.22 367.38 846.92 370.08 848.27 382.24 848.27 382.24 792.24 366.03 792.24"/>
  <polygon class="st23" points="382.24 792.24 382.24 848.27 422.06 848.27 424.76 846.92 425.78 844.22 425.78 792.24 382.24 792.24"/>
  <polygon class="st23" points="370.08 736.55 367.38 737.56 366.03 740.59 366.03 792.24 382.24 792.24 382.24 736.55 370.08 736.55"/>
  <polygon class="st23" points="382.24 736.55 382.24 792.24 425.78 792.24 425.78 740.6 424.76 737.56 422.06 736.55 382.24 736.55"/>
  <polyline class="st4" points="382.23 736.54 382.23 792.24 382.23 848.27"/>
  <polyline class="st4" points="425.78 792.24 382.24 792.24 366.03 792.24"/>
  <line class="st4" x1="370.08" y1="848.27" x2="367.38" y2="846.92"/>
  <line class="st4" x1="367.38" y1="846.92" x2="366.03" y2="844.22"/>
  <line class="st4" x1="370.08" y1="736.54" x2="367.38" y2="737.56"/>
  <line class="st4" x1="367.38" y1="737.56" x2="366.03" y2="740.59"/>
  <line class="st4" x1="422.06" y1="848.27" x2="424.76" y2="846.92"/>
  <line class="st4" x1="424.76" y1="846.92" x2="425.78" y2="844.22"/>
  <line class="st4" x1="422.06" y1="736.54" x2="424.76" y2="737.56"/>
  <line class="st4" x1="424.76" y1="737.56" x2="425.78" y2="740.59"/>
  <polyline class="st4" points="422.06 736.54 382.23 736.54 370.08 736.54"/>
  <polyline class="st4" points="366.03 740.6 366.03 792.24 366.03 844.22"/>
  <polyline class="st4" points="370.08 848.27 382.24 848.27 422.06 848.27"/>
  <polyline class="st4" points="425.78 844.22 425.78 792.24 425.78 740.6"/>
  <path class="st4" d="M734.96,759.16h1.01M738.33,759.16h2.36M743.06,759.16h2.7M748.12,759.16h2.36M752.84,759.16h2.36M757.57,759.16h2.36M762.29,759.16h2.36M767.02,759.16h2.36M771.75,759.16h2.7M776.81,759.16h2.36M781.53,759.16h1.01M782.55,759.16v-1.01M782.55,755.78v-2.36M782.55,751.06v-2.36M782.55,746v-2.36M782.55,741.27v-2.36M782.55,736.55v-2.37M782.55,731.82v-2.36M782.55,727.09v-2.36M782.55,722.37v-2.36M782.55,717.31v-2.36M782.55,712.58v-1.01M734.96,711.57v1.01M734.96,714.94v2.36M734.96,720.01v2.36M734.96,724.73v2.36M734.96,729.46v2.36M734.96,734.18v2.37M734.96,738.91v2.36M734.96,743.63v2.36M734.96,748.7v2.36M734.96,753.42v2.36M734.96,758.15v1.01M654.96,985.64v47.93M607.37,937.71h47.59M654.96,937.71v95.86M726.18,1112.55l-1.35-12.83M724.83,1099.73l-3.71-12.15M721.12,1087.57l-6.07-11.47M715.04,1076.1l-8.1-10.13M706.94,1065.97l-10.13-8.1M696.81,1057.87l-11.47-6.08M685.34,1051.8l-12.15-3.71M673.19,1048.08l-12.83-1.35M661.71,1044.37h-6.75M654.96,1115.25h6.75M660.36,1112.55h65.82"/>
  <path class="st4" d="M660.36,1109.51v3.04M660.36,1112.55v-65.82"/>
  <path class="st4" d="M419.7,679.16v32.4M361.98,711.57v419.21M418.01,1130.78h1.02M654.96,929.95h127.58M782.54,929.95v-218.38M731.58,711.57v-32.06M731.58,679.5h-1.02M650.23,679.5h-1.01M649.22,679.5v32.06M649.22,711.57h-47.93M593.53,711.57h-10.13M583.4,711.57v-32.4M583.4,679.16h-1.01M502.06,679.16h-1.01M420.71,679.16h-1.01"/>
  <path class="st4" d="M800.1,1146.64h-309.85M419.03,1130.78h-1.01M661.71,996.1h112.73M661.71,1044.37v-48.26M661.71,1122.68v-7.43M774.44,1122.68h-112.73M774.44,996.1v126.57"/>
  <path class="st4" d="M774.45,997.12v2.36M344.77,937.71v-7.76M663.06,929.95h-61.77M593.53,929.95v7.76M593.53,937.71h61.43M419.7,695.37v-30.38M419.7,664.99h-23.96M649.22,695.37v-30.38M649.22,664.99h-65.82M583.4,664.99v30.38M649.22,664.99v8.77M649.22,673.76h1.01M730.57,673.76h1.01M731.58,673.76v21.6M731.58,673.76h-1.01M650.23,673.76h-1.01M649.22,679.5v-5.74M583.4,673.76v-8.77M583.4,673.76h-1.01M502.06,673.76h-1.01M420.72,673.76h-1.02M419.7,664.99v8.77M419.7,673.76h1.02M501.05,673.76h1.01M582.39,673.76h1.01M395.74,664.99h-50.97M344.77,1146.64v-481.65"/>
  <g class="st6">
    <path class="st3" d="M40.32,1141.92h6.07M63.95,1221.24l16.2-7.09M75.76,1196.6l4.39,17.55M103.44,1225.29l-27.68-28.69M103.44,1225.29l-39.49-4.05M103.44,1225.29l-23.29-11.14M40.32,902.61h6.07M40.32,1062.26h6.07M40.32,982.6h6.07M40.32,902.61v239.31M1166.65,442.9H-17.06"/>
    <path d="M61.71,493.81c-.43.28-.75.67-.96,1.17-.21.5-.32,1.11-.32,1.85,0,.58.11,1.1.32,1.57.21.47.5.82.89,1.07.38.25.78.37,1.21.37s.81-.11,1.15-.34c.33-.22.61-.58.82-1.05.14-.33.32-.92.51-1.8.19-.88.38-1.42.57-1.62.19-.21.42-.32.72-.32.33,0,.62.15.85.45.23.3.36.77.36,1.42s-.13,1.1-.39,1.42c-.26.32-.64.51-1.16.56l.08,1.03c.47-.02.9-.15,1.27-.4.37-.25.66-.6.85-1.06.19-.46.29-.99.29-1.6,0-.55-.09-1.04-.27-1.49-.18-.45-.45-.79-.81-1.02-.35-.23-.74-.35-1.14-.35-.37,0-.71.09-1,.29-.3.19-.55.48-.75.87-.16.3-.33.82-.5,1.57-.18.75-.31,1.23-.39,1.45-.13.34-.29.59-.48.73-.19.15-.41.22-.66.22s-.48-.08-.69-.23c-.21-.16-.38-.39-.49-.7-.12-.32-.18-.68-.18-1.09,0-.46.08-.88.24-1.25.16-.37.37-.64.62-.82.26-.18.59-.29.99-.34l-.09-1.02c-.54.02-1.02.16-1.45.45M60.57,502.52h2.79l1.28,1.33-4.08,2.9v1.42l4.8-3.56,3.26,3.41v-1.46l-4-4.04h4v-1.08h-8.06v1.08Z"/>
    <path d="M66.23,512.04h-.92v5.37h.92v-5.37ZM63.79,512.04h-.92v5.37h.92v-5.37Z"/>
    <path d="M61.71,522.16c-.43.28-.75.67-.96,1.17-.21.5-.32,1.11-.32,1.85,0,.58.1,1.1.31,1.57.21.47.51.82.89,1.07.38.25.78.37,1.22.37s.81-.11,1.14-.34c.33-.23.61-.58.82-1.05.15-.33.32-.92.51-1.8.2-.88.39-1.42.57-1.62.19-.21.42-.32.71-.32.34,0,.62.15.86.45.23.3.36.77.36,1.43s-.13,1.1-.39,1.42-.64.51-1.15.56l.08,1.03c.47-.02.9-.15,1.27-.4.38-.25.66-.61.85-1.06.19-.46.29-.99.29-1.6,0-.55-.09-1.04-.28-1.49-.18-.45-.45-.79-.8-1.02-.35-.23-.73-.35-1.14-.35-.37,0-.71.1-1,.29-.3.19-.55.48-.75.87-.16.3-.32.82-.5,1.57-.18.75-.31,1.23-.39,1.45-.13.34-.29.59-.48.73-.19.15-.41.22-.66.22s-.48-.07-.69-.23c-.21-.16-.38-.39-.5-.7-.12-.32-.18-.68-.18-1.09,0-.46.08-.88.24-1.25.16-.37.37-.64.63-.82.26-.18.59-.29.99-.34l-.09-1.02c-.54.01-1.02.16-1.45.45"/>
    <path d="M60.57,530.38h2.31l.67.71-2.98,1.95v1.23l3.67-2.48,2.16,2.26v-1.3l-2.38-2.37h4.6v-1h-8.06v1ZM60.57,539.5v1.04c.22-.12.46-.21.7-.25.25-.05.83-.07,1.75-.07h1.32c.44,0,.74-.02.91-.05.27-.06.49-.16.67-.31.18-.15.33-.38.44-.69.12-.31.18-.72.18-1.23s-.07-.95-.21-1.33c-.14-.38-.33-.68-.59-.88-.26-.21-.59-.35-1-.44l-.13.98c.42.11.7.27.87.5.16.22.25.57.25,1.04,0,.5-.11.88-.34,1.14-.16.19-.45.28-.85.28-.03,0-.12,0-.26,0-.13-.38-.25-.98-.34-1.78-.05-.39-.09-.69-.15-.89-.07-.27-.18-.5-.32-.72-.14-.21-.33-.38-.57-.52-.24-.13-.5-.2-.78-.2-.49,0-.89.17-1.2.52-.31.35-.47.85-.47,1.49,0,.39.07.76.19,1.1.13.34.35.7.66,1.07-.27.03-.51.1-.72.2M63.14,539.22c-.44,0-.77-.05-.99-.16-.29-.14-.52-.36-.68-.66-.17-.3-.25-.64-.25-1.03s.09-.68.27-.88c.18-.2.4-.31.66-.31.18,0,.33.05.47.14.14.09.25.22.33.39.07.17.14.46.2.87.1.73.23,1.27.38,1.63h-.36Z"/>
    <path d="M60.57,542.53h2.31l.67.71-2.99,1.95v1.23l3.67-2.48,2.16,2.25v-1.29l-2.37-2.37h4.6v-1h-8.06v1ZM61.42,549.01c0-.15.03-.26.07-.34.05-.08.11-.14.19-.17.08-.04.26-.05.55-.05h3.42v1.01h.77v-1.01h2.04l-.59-.99h-1.45v-.73h-.77v.73h-3.36c-.59,0-.98.04-1.17.12-.18.08-.33.22-.45.42-.11.2-.17.48-.17.84,0,.22.03.47.09.76l.88-.14c-.03-.18-.04-.33-.04-.44"/>
    <path d="M47.41,494.86h3.66v3.82h.95v-3.82h2.5v4.41h.95v-5.49h-8.06v1.08ZM48.55,500.56c-.43.28-.74.67-.96,1.17-.21.5-.32,1.11-.32,1.85,0,.58.1,1.1.31,1.57.21.46.51.82.89,1.07.38.25.79.37,1.22.37s.81-.11,1.14-.34c.33-.23.61-.58.83-1.05.14-.33.32-.92.51-1.8.2-.88.39-1.42.57-1.62.19-.21.43-.32.72-.32.33,0,.62.15.85.45.23.3.35.77.35,1.43s-.13,1.1-.39,1.42c-.26.32-.64.51-1.15.56l.08,1.03c.47-.02.9-.15,1.27-.4.38-.25.66-.61.85-1.06.19-.46.29-.99.29-1.6,0-.55-.09-1.04-.27-1.49-.19-.45-.45-.79-.81-1.02-.35-.23-.73-.35-1.14-.35-.37,0-.7.1-1,.29-.3.19-.55.48-.75.87-.16.3-.32.82-.5,1.57-.18.75-.31,1.23-.39,1.45-.13.34-.29.59-.48.73-.19.15-.41.22-.66.22s-.48-.07-.69-.23c-.21-.16-.38-.39-.5-.7-.12-.32-.18-.68-.18-1.09,0-.46.08-.88.24-1.25.16-.37.37-.64.63-.82.26-.18.59-.29.99-.34l-.09-1.02c-.54.01-1.02.16-1.45.45"/>
    <path d="M53.07,511.03h-.92v5.37h.92v-5.37ZM50.62,511.03h-.92v5.37h.92v-5.37Z"/>
    <polygon points="47.41 522.19 51.07 522.19 51.07 526.01 52.02 526.01 52.02 522.19 54.52 522.19 54.52 526.61 55.47 526.61 55.47 521.12 47.41 521.12 47.41 522.19"/>
    <path d="M48.06,528.42c-.53.51-.79,1.18-.79,2,0,.51.12.99.36,1.43.24.44.57.76,1,.99.43.23,1.02.34,1.77.34.92,0,1.65-.26,2.18-.77.53-.52.79-1.18.79-1.99,0-.73-.22-1.34-.65-1.85-.52-.61-1.32-.91-2.4-.91-.98,0-1.74.25-2.26.76M52,529.18c.37.33.55.74.55,1.24s-.18.9-.56,1.24c-.37.33-.92.5-1.64.5-.77,0-1.34-.16-1.71-.49-.38-.33-.56-.75-.56-1.24s.19-.91.56-1.24c.37-.33.93-.49,1.68-.49s1.31.17,1.68.49M47.41,535.09h3.05c.42,0,.81.06,1.16.17.23.07.41.2.54.37.13.18.2.37.2.59,0,.24-.07.49-.21.73l.92.34c.21-.35.32-.69.32-1.03,0-.23-.07-.45-.2-.64-.13-.19-.41-.4-.82-.63h.89v-.9h-5.84v1Z"/>
    <path d="M48.38,541.23c-.19-.26-.29-.57-.29-.94,0-.49.17-.9.51-1.23.34-.33.83-.51,1.48-.55v4.39c.11,0,.2,0,.26,0,.96,0,1.71-.25,2.24-.75.53-.5.8-1.14.8-1.93s-.27-1.47-.81-1.99c-.54-.51-1.31-.77-2.29-.77s-1.69.25-2.21.76c-.53.51-.79,1.19-.79,2.05,0,.68.16,1.24.49,1.69.33.44.79.74,1.39.9l.13-1.03c-.42-.15-.72-.35-.91-.62M52.11,539.09c.31.31.46.7.46,1.16,0,.51-.19.92-.57,1.24-.25.21-.61.33-1.1.38v-3.29c.51.03.91.21,1.22.52M47.75,544.6c-.31.4-.47.99-.47,1.75,0,.46.08.88.24,1.24.16.37.38.65.67.84.29.19.6.29.93.29s.62-.08.84-.24c.23-.16.4-.38.52-.66.12-.28.27-.77.46-1.48.13-.49.22-.78.25-.88.07-.18.16-.3.26-.38.1-.08.22-.12.35-.12.2,0,.38.1.53.29.15.2.23.52.23.98,0,.39-.08.69-.25.9-.17.21-.4.34-.7.39l.13.97c.38-.06.68-.18.9-.34.23-.17.4-.43.54-.77.13-.35.2-.76.2-1.22,0-.31-.04-.6-.12-.87-.08-.27-.18-.48-.29-.63-.14-.21-.33-.37-.55-.49-.22-.12-.46-.18-.72-.18-.29,0-.55.07-.79.22-.23.15-.42.36-.55.64-.14.28-.29.79-.48,1.52-.14.54-.25.89-.33,1.02-.13.2-.31.29-.53.29-.25,0-.47-.11-.65-.33-.19-.22-.28-.56-.28-1.02s.1-.81.31-1.06c.21-.25.51-.41.9-.47l-.16-.99c-.62.11-1.09.37-1.4.77M55.47,549.98h-8.06v1h8.06v-1ZM47.41,556.66v1.04c.22-.13.46-.21.7-.26.24-.04.82-.06,1.74-.06h1.32c.44,0,.75-.02.91-.05.27-.06.5-.17.67-.31.18-.15.33-.38.44-.69.12-.31.18-.72.18-1.22s-.07-.95-.2-1.34c-.14-.38-.33-.68-.59-.88-.25-.21-.59-.35-1-.44l-.13.98c.41.11.7.27.86.5.17.22.25.57.25,1.04,0,.5-.11.88-.33,1.14-.17.19-.45.28-.85.28-.04,0-.12,0-.26,0-.13-.38-.24-.98-.34-1.78-.05-.39-.1-.69-.15-.89-.07-.27-.18-.5-.32-.72-.14-.21-.33-.38-.57-.52-.23-.13-.5-.2-.78-.2-.49,0-.89.17-1.2.52s-.47.85-.47,1.49c0,.39.06.76.19,1.1.13.34.35.7.66,1.07-.28.03-.51.1-.72.2M49.98,556.38c-.44,0-.77-.06-.99-.16-.29-.14-.52-.36-.68-.66-.16-.3-.25-.64-.25-1.03s.09-.68.26-.88c.18-.2.4-.3.66-.3.17,0,.33.04.47.14.14.09.25.22.32.39.08.17.14.46.2.87.1.72.22,1.27.37,1.63h-.36ZM54.03,554.29c-.2.2-.29.43-.29.71s.1.5.29.7c.19.2.43.3.71.3s.52-.1.71-.3.29-.43.29-.7-.1-.5-.29-.7-.42-.3-.69-.3c-.29,0-.54.1-.74.29M55.17,554.59c.11.12.18.25.18.41s-.06.3-.18.42c-.12.11-.26.17-.42.17s-.31-.06-.42-.17c-.12-.12-.18-.25-.18-.41s.06-.3.18-.41.26-.18.44-.18c.16,0,.3.06.42.18M48.38,562.45c-.19-.26-.29-.57-.29-.94,0-.49.17-.9.51-1.23.34-.33.83-.51,1.48-.55v4.4c.11,0,.2,0,.26,0,.96,0,1.71-.25,2.24-.75.53-.5.8-1.14.8-1.93s-.27-1.47-.81-1.99c-.54-.51-1.31-.76-2.29-.76s-1.69.25-2.21.76c-.53.5-.79,1.19-.79,2.05,0,.68.16,1.25.49,1.69.33.44.79.74,1.39.9l.13-1.03c-.42-.15-.72-.36-.91-.62M52.11,560.3c.31.31.46.7.46,1.16,0,.5-.19.92-.57,1.24-.25.21-.61.33-1.1.38v-3.29c.51.04.91.21,1.22.52"/>
    <path d="M48.25,567.23c0-.15.02-.26.07-.34.05-.08.11-.14.19-.17.08-.04.26-.05.55-.05h3.41v1.01h.77v-1.01h2.04l-.59-1h-1.45v-.73h-.77v.73h-3.36c-.59,0-.98.04-1.17.12-.19.08-.33.22-.45.42-.12.2-.17.48-.17.84,0,.22.03.47.09.75l.88-.14c-.03-.18-.04-.33-.04-.44M47.75,571.93c-.32.4-.47.99-.47,1.75,0,.46.08.88.24,1.24.16.36.38.64.68.84.29.2.6.29.93.29s.62-.08.85-.24c.23-.16.4-.38.52-.66.12-.28.27-.77.46-1.48.14-.49.22-.78.25-.88.07-.17.16-.3.27-.38.1-.08.21-.12.35-.12.2,0,.38.1.53.3s.23.52.23.98c0,.39-.08.69-.25.9-.17.21-.4.34-.7.38l.13.98c.38-.07.68-.18.9-.35.22-.17.4-.43.54-.77.13-.35.2-.76.2-1.22,0-.31-.04-.6-.12-.86-.08-.27-.18-.48-.29-.63-.15-.21-.33-.37-.55-.49-.22-.12-.46-.18-.72-.18-.28,0-.55.07-.78.22-.23.15-.42.36-.55.65-.13.28-.29.79-.48,1.52-.14.54-.25.88-.34,1.02-.13.2-.31.29-.53.29-.25,0-.47-.11-.65-.33-.19-.22-.28-.56-.28-1.02s.1-.81.32-1.06c.21-.25.51-.41.9-.46l-.15-.99c-.62.11-1.09.36-1.4.77"/>
    <path d="M47.41,578.65h2.31l.67.7-2.98,1.95v1.23l3.67-2.48,2.16,2.25v-1.29l-2.38-2.36h4.6v-1h-8.06v1ZM47.41,587.43v1.04c.22-.12.46-.21.7-.25.25-.05.83-.07,1.75-.07h1.32c.44,0,.74-.02.91-.05.27-.06.5-.16.67-.31.18-.15.33-.38.45-.69.12-.31.18-.72.18-1.23s-.07-.95-.21-1.33-.33-.68-.59-.88c-.25-.21-.59-.35-1-.44l-.13.98c.41.11.7.27.86.5.16.22.25.57.25,1.04,0,.5-.11.88-.33,1.14-.17.19-.45.28-.85.28-.04,0-.13,0-.26,0-.14-.38-.25-.98-.35-1.78-.05-.39-.09-.69-.15-.89-.07-.27-.18-.5-.32-.72-.14-.21-.33-.38-.57-.52-.23-.13-.49-.2-.78-.2-.49,0-.89.17-1.2.52-.31.35-.47.85-.47,1.49,0,.39.07.76.2,1.1.13.34.35.7.66,1.07-.27.03-.51.1-.72.2M49.98,587.14c-.44,0-.77-.05-.99-.16-.29-.14-.52-.36-.68-.66-.17-.3-.25-.64-.25-1.03s.09-.68.27-.88c.18-.2.4-.31.66-.31.17,0,.33.05.47.14.14.09.25.22.32.39.07.17.14.46.2.87.1.73.23,1.27.38,1.63h-.36Z"/>
    <path d="M48.14,590.38c-.58.39-.86.94-.86,1.64s.27,1.3.82,1.8c.55.5,1.32.75,2.32.75.42,0,.82-.06,1.19-.18.37-.12.68-.28.95-.49.26-.21.47-.48.61-.8.14-.32.22-.67.22-1.03,0-.65-.26-1.19-.79-1.61h2.88v-1h-8.06v.93h.73ZM52,590.84c.38.32.56.7.56,1.13s-.18.8-.54,1.11c-.36.31-.93.46-1.69.46s-1.3-.16-1.68-.48c-.38-.32-.56-.7-.56-1.13,0-.53.25-.96.76-1.28.31-.19.82-.29,1.52-.29s1.25.16,1.63.48"/>
    <path d="M48.44,901.18c-.56.45-.83,1.06-.83,1.85,0,.6.16,1.09.48,1.48.31.39.76.68,1.35.88.58.2,1.34.29,2.29.29.8,0,1.44-.06,1.91-.18.47-.12.87-.29,1.2-.5.33-.21.58-.49.76-.81.18-.33.26-.71.26-1.15,0-.59-.16-1.08-.47-1.47-.31-.39-.76-.69-1.34-.88-.58-.2-1.35-.29-2.3-.29-1.51,0-2.6.27-3.27.8M54.44,901.92c.39.28.58.64.58,1.1s-.22.85-.65,1.17c-.44.31-1.32.47-2.65.47s-2.2-.16-2.64-.47c-.44-.31-.66-.7-.66-1.16s.22-.84.65-1.16c.44-.31,1.32-.47,2.64-.47s2.23.17,2.72.52M48.7,1054.88c.18.11.36.25.53.42.18.17.52.55,1.02,1.15.6.72,1.07,1.23,1.42,1.54.35.31.67.53.98.66.31.13.63.2.95.2.64,0,1.17-.23,1.6-.68.43-.46.64-1.07.64-1.86s-.2-1.39-.6-1.85-.97-.72-1.73-.79l-.1,1.03c.5,0,.9.15,1.19.44.29.29.43.68.43,1.15,0,.46-.14.83-.4,1.11-.27.28-.6.42-.99.42s-.77-.16-1.19-.47c-.42-.31-.99-.91-1.71-1.8-.46-.57-.87-1-1.22-1.31-.35-.3-.71-.52-1.07-.66-.22-.08-.45-.12-.69-.11v5.38h.95v-3.99Z"/>
    <path d="M47.75,1060.97h3.03c.53,0,.94.05,1.22.16.29.11.5.28.64.52.15.24.22.5.22.78,0,.37-.11.64-.33.8-.22.16-.55.25-.99.25h-3.79v1h3.39c.6,0,1.04.14,1.31.41.27.28.41.62.41,1.04,0,.23-.05.43-.16.6-.11.17-.25.29-.42.35-.18.07-.46.1-.85.1h-3.68v.99h4.01c.66,0,1.16-.16,1.48-.47.32-.32.48-.76.48-1.35,0-.74-.34-1.35-1.02-1.82.32-.11.57-.31.75-.59.18-.28.27-.64.27-1.08,0-.39-.08-.74-.26-1.05-.17-.31-.41-.55-.69-.74h.82v-.89h-5.84v1Z"/>
    <path d="M55.84,980.09v-.64c-.35-.17-.71-.47-1.08-.89-.37-.42-.68-.9-.94-1.46h-.96c.11.31.29.66.51,1.05.23.39.46.71.68.95h-6.3v1h8.09ZM47.75,984.01h3.03c.53,0,.94.05,1.22.16.29.11.5.28.64.52.15.24.22.5.22.78,0,.37-.11.63-.33.8-.22.16-.55.25-.99.25h-3.79v1h3.39c.6,0,1.04.14,1.31.41.27.28.41.62.41,1.03,0,.23-.05.43-.16.6-.11.17-.25.28-.42.35-.18.07-.46.1-.85.1h-3.68v.99h4.01c.66,0,1.16-.16,1.48-.47.32-.32.48-.76.48-1.35,0-.75-.34-1.36-1.02-1.82.32-.12.57-.31.75-.59.18-.28.27-.64.27-1.07,0-.39-.08-.74-.26-1.05-.17-.31-.41-.55-.69-.74h.82v-.89h-5.84v1Z"/>
    <path d="M47.74,805.26h6.86l-6.86,2.35v.97l6.74,2.36h-6.74v1.04h8.06v-1.45l-5.61-1.95c-.57-.2-1-.34-1.29-.43.27-.08.66-.21,1.19-.39l5.71-1.93v-1.62h-8.06v1.04ZM47.74,817.28v1.04c.23-.13.46-.21.7-.25.24-.04.83-.06,1.74-.06h1.32c.44,0,.74-.02.91-.05.27-.06.49-.16.67-.31.18-.15.33-.38.44-.69.12-.31.18-.72.18-1.23s-.07-.95-.2-1.34c-.14-.39-.34-.68-.59-.88-.25-.21-.59-.35-1-.44l-.13.98c.42.11.7.27.87.49.16.22.25.57.25,1.04,0,.5-.11.88-.34,1.14-.16.19-.45.28-.85.28-.03,0-.12,0-.26,0-.13-.38-.24-.97-.34-1.78-.05-.4-.1-.69-.15-.89-.08-.26-.18-.5-.33-.72-.14-.21-.33-.38-.57-.51-.24-.13-.5-.2-.78-.2-.49,0-.89.18-1.2.52-.32.35-.47.85-.47,1.49,0,.39.07.76.19,1.1.13.34.35.7.66,1.07-.27.03-.51.1-.72.2M50.31,817c-.44,0-.77-.06-.99-.16-.29-.14-.52-.36-.69-.66-.16-.3-.25-.64-.25-1.03s.09-.68.26-.88c.18-.2.39-.3.66-.3.17,0,.33.05.47.14.14.09.25.22.32.39.07.17.14.46.2.87.1.72.23,1.27.37,1.63h-.36ZM54.37,814.91c-.2.2-.29.43-.29.71s.09.5.29.7c.19.2.43.29.71.29s.52-.1.71-.29c.2-.2.29-.43.29-.7s-.1-.5-.29-.7c-.2-.2-.42-.3-.69-.3-.29,0-.54.1-.73.29M55.51,815.21c.12.12.17.26.17.41s-.06.3-.17.42c-.12.11-.26.17-.42.17s-.31-.06-.43-.18c-.11-.12-.17-.25-.17-.42s.06-.29.17-.41c.12-.12.26-.18.44-.18.16,0,.3.06.42.18"/>
    <rect x="47.75" y="819.63" width="8.06" height="1"/>
    <path d="M55.84,828.87v-.64c-.35-.17-.71-.47-1.08-.89-.37-.42-.68-.9-.94-1.47h-.96c.11.31.28.66.51,1.05.23.39.46.7.68.95h-6.31v1h8.09ZM53.58,832.08h-1.13v1.14h1.13v-1.14ZM48.87,832.08h-1.13v1.14h1.13v-1.14Z"/>
    <path d="M48.22,835.36c-.41.47-.61,1.07-.61,1.81,0,.9.32,1.61.98,2.14.53.43,1.16.64,1.89.64s1.39-.24,1.88-.73c.49-.49.73-1.09.73-1.8,0-.54-.17-1.05-.5-1.54l2.16.44v3.25h.94v-4.05l-4.14-.79-.12.94c.23.15.42.35.57.61.14.26.21.55.21.87,0,.52-.16.94-.49,1.26-.33.32-.77.48-1.33.48-.59,0-1.07-.17-1.43-.5-.36-.33-.54-.74-.54-1.22,0-.4.13-.74.38-1.03.25-.28.63-.46,1.14-.54l-.09-1.05c-.68.07-1.22.34-1.63.8M48.44,841.78c-.56.45-.83,1.06-.83,1.85,0,.6.16,1.09.47,1.48.32.39.77.68,1.35.88.58.2,1.34.3,2.29.3.8,0,1.43-.06,1.9-.18.47-.12.87-.29,1.2-.51.33-.21.58-.49.76-.82.18-.33.26-.71.26-1.15,0-.59-.16-1.08-.47-1.47-.31-.39-.76-.68-1.34-.88-.58-.2-1.35-.3-2.3-.3-1.51,0-2.6.27-3.27.81M54.44,842.52c.38.27.58.64.58,1.1s-.22.86-.66,1.17-1.32.47-2.64.47-2.2-.15-2.64-.47c-.44-.31-.66-.7-.66-1.16s.22-.84.66-1.16c.44-.31,1.32-.47,2.64-.47s2.23.17,2.72.51"/>
    <polygon class="st23" points="47.75 1192.21 70.36 1203.34 63.61 1217.86 40.66 1206.72 47.75 1192.21"/>
    <polygon points="50.5 1197.95 61.84 1203.44 46.81 1205.56 45.86 1207.53 60.3 1214.52 61.19 1212.68 49.85 1207.19 64.87 1205.07 65.83 1203.1 51.39 1196.11 50.5 1197.95"/>
    <path d="M48.24,1134.09c-.42.47-.63,1.06-.63,1.78,0,.79.25,1.45.74,1.97.49.52,1.08.77,1.79.77.52,0,.95-.13,1.3-.4.35-.27.58-.64.68-1.12.17.37.4.65.68.84.29.19.61.28.95.28.36,0,.71-.1,1.04-.3.32-.2.58-.49.77-.86.19-.38.28-.78.28-1.22,0-.65-.18-1.18-.55-1.62-.36-.43-.88-.71-1.54-.83l-.18,1c.48.07.85.24,1.09.5.24.26.36.58.36.97s-.12.71-.36.96c-.24.25-.54.38-.9.38-.46,0-.79-.17-1.02-.51-.22-.34-.33-.72-.33-1.15,0-.04,0-.09,0-.16l-.87-.11c.07.28.11.52.11.7,0,.46-.15.84-.44,1.15-.29.3-.67.45-1.13.45s-.87-.16-1.2-.48c-.32-.33-.48-.72-.48-1.19,0-.39.12-.73.37-1.01.25-.28.65-.47,1.21-.59l-.13-1c-.67.06-1.22.33-1.64.8M47.75,1140.62h3.03c.53,0,.94.05,1.22.16.29.1.5.28.64.52.15.24.22.5.22.78,0,.37-.11.63-.33.8-.22.17-.55.24-.99.24h-3.79v1h3.39c.6,0,1.04.14,1.31.41.27.28.41.62.41,1.03,0,.23-.05.43-.16.6-.11.17-.25.28-.42.35-.18.07-.46.1-.85.1h-3.68v.99h4.01c.66,0,1.16-.16,1.48-.47.32-.31.48-.76.48-1.35,0-.75-.34-1.35-1.02-1.82.32-.11.57-.31.75-.59.18-.28.27-.64.27-1.08,0-.39-.08-.74-.26-1.05-.17-.31-.41-.55-.69-.74h.82v-.89h-5.84v1Z"/>
    <rect class="st23" x="1111.3" y="464.5" width="18.9" height="111.72"/>
    <path d="M1126.75,470.78v-.95c-.52-.26-1.05-.7-1.61-1.32-.55-.62-1.02-1.34-1.41-2.17h-1.43c.17.46.42.98.76,1.56.34.58.68,1.05,1.02,1.4h-9.41v1.48h12.08ZM1116.35,475.49h-1.68v1.69h1.68v-1.69ZM1116.38,480.14c-.64.42-1.11,1-1.43,1.74-.32.74-.48,1.65-.48,2.74,0,.86.16,1.63.47,2.32.31.69.76,1.21,1.32,1.59.57.37,1.17.55,1.81.55s1.22-.17,1.71-.5c.49-.33.9-.85,1.22-1.56.22-.48.48-1.37.77-2.67.29-1.3.58-2.1.86-2.41.28-.31.63-.47,1.06-.47.5,0,.92.22,1.28.66.36.44.53,1.14.53,2.11s-.19,1.63-.58,2.1c-.39.47-.96.75-1.72.84l.12,1.53c.7-.03,1.34-.22,1.89-.59s.98-.89,1.27-1.58c.29-.68.43-1.47.43-2.37,0-.81-.14-1.55-.41-2.21-.27-.67-.67-1.17-1.2-1.51-.53-.35-1.1-.52-1.71-.52-.55,0-1.05.14-1.5.42-.44.29-.82.71-1.12,1.29-.23.45-.49,1.22-.75,2.33-.27,1.11-.46,1.82-.59,2.15-.19.5-.43.87-.71,1.09-.28.22-.61.33-.99.33s-.72-.12-1.03-.34c-.32-.23-.56-.58-.74-1.04-.18-.47-.27-1.01-.27-1.61,0-.69.12-1.31.36-1.85.24-.55.55-.96.94-1.22.38-.26.88-.43,1.48-.5l-.13-1.51c-.81.02-1.53.24-2.16.66M1114.67,497.16v1.55c.33-.19.68-.31,1.05-.37.36-.06,1.23-.1,2.6-.1h1.97c.66,0,1.11-.02,1.36-.07.41-.09.74-.24,1.01-.46.26-.22.48-.56.66-1.03.18-.47.27-1.07.27-1.82s-.1-1.41-.31-1.98c-.2-.57-.5-1.01-.88-1.31-.38-.3-.88-.52-1.5-.65l-.2,1.45c.62.16,1.05.4,1.29.74.24.33.36.85.36,1.54,0,.75-.17,1.31-.5,1.69-.25.28-.67.42-1.27.42-.05,0-.18,0-.38,0-.2-.56-.37-1.45-.51-2.64-.07-.59-.14-1.03-.22-1.32-.11-.39-.27-.75-.48-1.06-.21-.32-.5-.57-.85-.76-.35-.2-.74-.29-1.17-.29-.73,0-1.32.26-1.8.77-.46.52-.7,1.26-.7,2.22,0,.58.1,1.12.29,1.63.19.51.52,1.04.98,1.59-.41.05-.77.14-1.07.3M1118.5,496.74c-.65,0-1.14-.08-1.48-.24-.44-.21-.77-.54-1.02-.98-.25-.45-.37-.95-.37-1.52s.13-1.01.39-1.31c.26-.3.59-.45.98-.45.26,0,.49.07.7.21.21.14.37.33.48.59.11.25.21.68.3,1.29.15,1.07.34,1.88.56,2.42h-.54ZM1126.7,500.59h-12.02v1.48h12.02v-1.48ZM1123.38,504.86h-1.68v1.69h1.68v-1.69ZM1116.35,504.86h-1.68v1.69h1.68v-1.69ZM1125.95,520.17c.53-.61.79-1.38.79-2.33,0-1.27-.46-2.29-1.38-3.04-1.05-.86-2.74-1.29-5.07-1.29-2.08,0-3.57.39-4.48,1.17-.91.78-1.36,1.79-1.36,3.02,0,.73.17,1.37.51,1.94s.84,1.02,1.49,1.34c.65.33,1.35.49,2.1.49,1.15,0,2.08-.35,2.81-1.04.72-.69,1.08-1.54,1.08-2.52,0-.57-.13-1.11-.39-1.62-.26-.52-.66-.95-1.21-1.31,1.2,0,2.13.15,2.78.42.65.27,1.15.64,1.48,1.11.26.35.39.77.39,1.24,0,.59-.21,1.08-.63,1.48-.26.24-.68.43-1.27.56l.12,1.47c.94-.12,1.67-.49,2.2-1.09M1120.45,515.91c.48.46.72,1.03.72,1.7s-.24,1.23-.72,1.68c-.48.44-1.13.66-1.96.66s-1.55-.22-2.05-.67c-.5-.45-.76-.99-.76-1.61,0-.43.12-.84.37-1.23.24-.39.6-.69,1.06-.91.47-.22.95-.32,1.46-.32.77,0,1.4.23,1.88.7M1116.35,523.86h-1.68v1.69h1.68v-1.69ZM1114.67,532.93c0,.77.07,1.42.2,1.95.14.53.33.97.59,1.32.26.35.64.65,1.12.89.49.24,1.01.36,1.57.36.7,0,1.31-.19,1.82-.59.51-.39.88-.95,1.09-1.68.28.57.64.99,1.1,1.27s.94.42,1.45.42c.55,0,1.08-.16,1.59-.48.5-.32.88-.75,1.13-1.31.24-.56.36-1.3.36-2.22v-4.52h-12.02v4.6ZM1125.28,529.93v2.41c0,.87-.06,1.48-.17,1.84-.11.35-.32.63-.62.82-.31.19-.66.29-1.05.29-.42,0-.77-.1-1.05-.31-.28-.21-.48-.51-.6-.92-.09-.31-.14-.81-.14-1.52v-2.61h3.64ZM1120.23,529.93v2.79c0,.77-.07,1.36-.2,1.76-.13.41-.37.73-.7.96-.33.23-.72.35-1.17.35-.38,0-.72-.08-1.01-.24-.29-.16-.51-.36-.67-.61-.16-.25-.27-.55-.33-.92-.04-.21-.06-.57-.06-1.09v-3h4.13ZM1116.35,539.95h-1.68v1.69h1.68v-1.69ZM1126.75,549.47v-.95c-.52-.26-1.05-.7-1.61-1.32s-1.02-1.34-1.41-2.17h-1.43c.17.46.42.98.76,1.56.34.58.68,1.05,1.02,1.4h-9.41v1.48h12.08ZM1116.35,554.18h-1.68v1.69h1.68v-1.69ZM1126.75,563.7v-.95c-.52-.26-1.05-.7-1.61-1.32-.55-.62-1.02-1.34-1.41-2.17h-1.43c.17.46.42.98.76,1.56.34.58.68,1.05,1.02,1.4h-9.41v1.48h12.08Z"/>
    <path d="M1116.09,569.34c.27.17.53.37.8.62.27.25.77.82,1.51,1.71.9,1.06,1.6,1.83,2.12,2.29.51.46,1,.78,1.47.98.46.2.94.29,1.42.29.94,0,1.74-.34,2.38-1.01.64-.67.96-1.59.96-2.75s-.3-2.06-.89-2.74c-.59-.68-1.46-1.07-2.59-1.18l-.15,1.52c.76,0,1.34.22,1.77.65.43.43.64,1,.64,1.71,0,.68-.2,1.22-.61,1.64-.4.42-.89.63-1.48.63s-1.15-.23-1.78-.69c-.62-.46-1.47-1.35-2.55-2.66-.69-.84-1.3-1.49-1.82-1.94-.53-.45-1.06-.77-1.6-.98-.33-.12-.67-.18-1.02-.17v7.98h1.42v-5.92Z"/>
    <rect class="st23" x="1086.99" y="464.5" width="18.9" height="111.72"/>
    <path d="M1091.79,467.06c.27.17.53.38.8.62.27.25.77.83,1.51,1.71.9,1.06,1.61,1.83,2.12,2.28.52.46,1.01.79,1.47.98.46.2.94.3,1.42.3.94,0,1.74-.34,2.38-1.01.64-.68.96-1.59.96-2.75s-.3-2.06-.89-2.74c-.59-.68-1.45-1.07-2.59-1.18l-.15,1.52c.76,0,1.35.22,1.77.65.43.43.64,1,.64,1.71,0,.67-.2,1.22-.6,1.64-.4.42-.9.63-1.48.63s-1.15-.23-1.78-.69c-.62-.46-1.47-1.34-2.55-2.66-.69-.85-1.3-1.49-1.82-1.94-.52-.45-1.06-.77-1.6-.97-.33-.13-.67-.19-1.03-.18v7.98h1.42v-5.92ZM1092.05,475.49h-1.68v1.69h1.68v-1.69ZM1092.07,480.14c-.64.42-1.11,1-1.43,1.74-.32.74-.48,1.65-.48,2.74,0,.86.16,1.63.47,2.32.31.69.76,1.21,1.32,1.59.57.37,1.17.55,1.81.55s1.21-.17,1.71-.5c.49-.33.9-.85,1.23-1.56.22-.48.48-1.37.77-2.67.29-1.3.58-2.1.86-2.41.28-.31.63-.47,1.06-.47.5,0,.92.22,1.28.66.36.44.53,1.14.53,2.11s-.2,1.63-.58,2.1c-.39.47-.96.75-1.72.84l.12,1.53c.7-.03,1.34-.22,1.89-.59s.98-.89,1.27-1.58.43-1.47.43-2.37c0-.81-.14-1.55-.41-2.21-.27-.67-.67-1.17-1.2-1.51-.53-.35-1.09-.52-1.7-.52-.55,0-1.05.14-1.5.42-.44.29-.82.71-1.12,1.29-.23.45-.49,1.22-.75,2.33-.26,1.11-.46,1.82-.58,2.15-.19.5-.43.87-.71,1.09-.28.22-.61.33-.99.33s-.72-.12-1.03-.34c-.32-.23-.56-.58-.74-1.04-.18-.47-.27-1.01-.27-1.61,0-.69.12-1.31.36-1.85.24-.55.55-.96.93-1.22s.88-.43,1.48-.5l-.13-1.51c-.81.02-1.53.24-2.16.66M1090.37,497.16v1.55c.33-.19.68-.31,1.05-.37.36-.06,1.23-.1,2.6-.1h1.97c.66,0,1.11-.02,1.36-.07.41-.09.74-.24,1.01-.46.26-.22.48-.56.66-1.03.18-.47.26-1.07.26-1.82s-.1-1.41-.31-1.98c-.2-.57-.5-1.01-.88-1.31-.38-.3-.88-.52-1.5-.65l-.2,1.45c.62.16,1.05.4,1.29.74.24.33.36.85.36,1.54,0,.75-.17,1.31-.5,1.69-.25.28-.67.42-1.27.42-.05,0-.18,0-.38,0-.2-.56-.37-1.45-.51-2.64-.07-.59-.14-1.03-.22-1.32-.11-.39-.27-.75-.48-1.06-.21-.32-.49-.57-.85-.76-.35-.2-.74-.29-1.17-.29-.73,0-1.33.26-1.79.77-.47.52-.7,1.26-.7,2.22,0,.58.1,1.12.29,1.63.19.51.52,1.04.98,1.59-.41.05-.77.14-1.07.3M1094.2,496.74c-.65,0-1.14-.08-1.48-.24-.43-.21-.77-.54-1.02-.98-.25-.45-.37-.95-.37-1.52s.13-1.01.39-1.31c.26-.3.59-.45.98-.45.25,0,.49.07.7.21.21.14.37.33.48.59.11.25.21.68.3,1.29.15,1.07.34,1.88.56,2.42h-.54ZM1102.4,500.59h-12.02v1.48h12.02v-1.48ZM1099.08,504.86h-1.68v1.69h1.68v-1.69ZM1092.05,504.86h-1.68v1.69h1.68v-1.69ZM1101.65,520.17c.53-.61.79-1.38.79-2.33,0-1.27-.46-2.29-1.38-3.04-1.06-.86-2.74-1.29-5.07-1.29-2.08,0-3.57.39-4.48,1.17-.91.78-1.36,1.79-1.36,3.02,0,.73.17,1.37.51,1.94s.84,1.02,1.49,1.34c.65.33,1.35.49,2.1.49,1.15,0,2.08-.35,2.81-1.04.72-.69,1.08-1.54,1.08-2.52,0-.57-.13-1.11-.39-1.62-.26-.52-.66-.95-1.21-1.31,1.2,0,2.13.15,2.78.42.65.27,1.15.64,1.48,1.11.26.35.4.77.4,1.24,0,.59-.21,1.08-.63,1.48-.27.24-.69.43-1.27.56l.12,1.47c.94-.12,1.67-.49,2.2-1.09M1096.15,515.91c.48.46.72,1.03.72,1.7s-.24,1.23-.72,1.68c-.48.44-1.13.66-1.96.66s-1.55-.22-2.05-.67c-.5-.45-.76-.99-.76-1.61,0-.43.12-.84.36-1.23.24-.39.6-.69,1.06-.91.47-.22.95-.32,1.46-.32.78,0,1.4.23,1.88.7M1092.05,523.86h-1.68v1.69h1.68v-1.69ZM1090.37,532.93c0,.77.07,1.42.2,1.95.13.53.33.97.59,1.32.26.35.64.65,1.12.89.49.24,1.01.36,1.57.36.7,0,1.31-.19,1.82-.59.51-.39.88-.95,1.09-1.68.28.57.64.99,1.1,1.27s.94.42,1.45.42c.55,0,1.08-.16,1.59-.48.5-.32.88-.75,1.13-1.31.24-.56.36-1.3.36-2.22v-4.52h-12.02v4.6ZM1100.98,529.93v2.41c0,.87-.06,1.48-.17,1.84-.11.35-.32.63-.62.82-.31.19-.66.29-1.05.29-.42,0-.77-.1-1.05-.31-.28-.21-.48-.51-.6-.92-.09-.31-.14-.81-.14-1.52v-2.61h3.64ZM1095.92,529.93v2.79c0,.77-.07,1.36-.2,1.76-.13.41-.36.73-.7.96-.33.23-.72.35-1.17.35-.38,0-.72-.08-1.01-.24-.29-.16-.51-.36-.67-.61-.16-.25-.27-.55-.33-.92-.04-.21-.06-.57-.06-1.09v-3h4.13ZM1092.05,539.95h-1.68v1.69h1.68v-1.69ZM1091.79,545.76c.27.16.53.37.8.62.27.25.77.82,1.51,1.71.9,1.06,1.61,1.82,2.12,2.28.52.46,1.01.79,1.47.98.46.2.94.3,1.42.3.94,0,1.74-.34,2.38-1.01.64-.68.96-1.59.96-2.75s-.3-2.06-.89-2.74c-.59-.68-1.45-1.07-2.59-1.18l-.15,1.52c.76,0,1.35.22,1.77.65.43.43.64,1,.64,1.71,0,.67-.2,1.22-.6,1.64-.4.42-.9.63-1.48.63s-1.15-.23-1.78-.69c-.62-.46-1.47-1.35-2.55-2.66-.69-.85-1.3-1.49-1.82-1.94-.52-.45-1.06-.77-1.6-.97-.33-.13-.67-.19-1.03-.17v7.97h1.42v-5.92ZM1092.05,554.18h-1.68v1.69h1.68v-1.69ZM1102.45,563.7v-.95c-.52-.26-1.05-.7-1.61-1.32-.55-.62-1.02-1.34-1.41-2.17h-1.43c.17.46.42.98.76,1.56.34.58.68,1.05,1.02,1.4h-9.41v1.48h12.08Z"/>
    <path d="M1091.79,569.34c.27.17.53.37.8.62.27.25.77.82,1.51,1.71.9,1.06,1.61,1.83,2.12,2.29.52.46,1.01.78,1.47.98.47.2.94.29,1.42.29.95,0,1.74-.34,2.38-1.01.64-.67.96-1.59.96-2.75s-.3-2.06-.89-2.74c-.59-.68-1.46-1.07-2.59-1.18l-.15,1.52c.76,0,1.34.22,1.77.65.43.43.64,1,.64,1.71,0,.68-.2,1.22-.6,1.64-.4.42-.9.63-1.48.63s-1.15-.23-1.78-.69-1.47-1.35-2.55-2.66c-.69-.84-1.3-1.49-1.82-1.94-.53-.45-1.06-.77-1.6-.98-.33-.12-.67-.18-1.03-.17v7.98h1.42v-5.92Z"/>
    <rect class="st23" x="1063.37" y="464.5" width="18.9" height="111.72"/>
    <path d="M1067.47,466.4c-.63.7-.94,1.58-.94,2.64,0,1.18.36,2.15,1.1,2.92.73.77,1.62,1.15,2.67,1.15.78,0,1.42-.2,1.94-.59.52-.4.86-.95,1.02-1.66.25.55.59.96,1.02,1.24.43.28.9.42,1.42.42.55,0,1.06-.15,1.55-.44.49-.3.87-.72,1.15-1.27.28-.56.42-1.16.42-1.82,0-.95-.27-1.75-.81-2.4-.55-.64-1.31-1.05-2.3-1.23l-.26,1.48c.72.11,1.26.35,1.62.74.36.38.54.86.54,1.44s-.18,1.05-.53,1.42c-.36.37-.81.55-1.35.55-.68,0-1.19-.25-1.52-.76-.33-.5-.49-1.07-.49-1.7,0-.06,0-.14.02-.24l-1.3-.17c.11.42.16.76.16,1.04,0,.68-.22,1.25-.66,1.7-.44.44-1,.67-1.68.67s-1.31-.24-1.79-.72c-.48-.48-.72-1.07-.72-1.76,0-.59.18-1.08.55-1.49s.97-.7,1.81-.87l-.2-1.48c-1,.1-1.82.5-2.45,1.2M1068.42,475.49h-1.68v1.69h1.68v-1.69ZM1068.45,480.14c-.64.42-1.11,1-1.43,1.74-.32.74-.48,1.65-.48,2.74,0,.86.16,1.63.47,2.32.31.69.75,1.21,1.32,1.59.57.37,1.17.55,1.81.55s1.22-.17,1.71-.5c.49-.33.9-.85,1.22-1.56.22-.48.48-1.37.77-2.67.29-1.3.58-2.1.86-2.41.28-.31.63-.47,1.06-.47.5,0,.92.22,1.28.66.36.44.53,1.14.53,2.11s-.2,1.63-.59,2.1c-.39.47-.96.75-1.72.84l.11,1.53c.7-.03,1.34-.22,1.89-.59s.98-.89,1.27-1.58c.29-.68.43-1.47.43-2.37,0-.81-.14-1.55-.41-2.21-.27-.67-.67-1.17-1.2-1.51-.53-.35-1.1-.52-1.71-.52-.55,0-1.05.14-1.5.42-.44.29-.82.71-1.12,1.29-.23.45-.49,1.22-.75,2.33-.27,1.11-.46,1.82-.59,2.15-.19.5-.43.87-.71,1.09-.28.22-.61.33-.99.33s-.72-.12-1.03-.34c-.32-.23-.56-.58-.74-1.04-.18-.47-.27-1.01-.27-1.61,0-.69.12-1.31.36-1.85.24-.55.55-.96.94-1.22.38-.26.88-.43,1.48-.5l-.13-1.51c-.81.02-1.53.24-2.16.66M1066.74,497.16v1.55c.33-.19.68-.31,1.05-.37.36-.06,1.23-.1,2.6-.1h1.97c.65,0,1.11-.02,1.36-.07.41-.09.74-.24,1.01-.46.26-.22.48-.56.66-1.03.18-.47.27-1.07.27-1.82s-.1-1.41-.31-1.98c-.2-.57-.5-1.01-.88-1.31-.38-.3-.88-.52-1.5-.65l-.2,1.45c.62.16,1.05.4,1.29.74.24.33.36.85.36,1.54,0,.75-.17,1.31-.5,1.69-.25.28-.67.42-1.27.42-.06,0-.19,0-.39,0-.2-.56-.36-1.45-.51-2.64-.07-.59-.14-1.03-.22-1.32-.11-.39-.27-.75-.48-1.06-.21-.32-.5-.57-.85-.76-.35-.2-.74-.29-1.17-.29-.73,0-1.32.26-1.8.77-.46.52-.7,1.26-.7,2.22,0,.58.1,1.12.29,1.63.19.51.52,1.04.98,1.59-.41.05-.77.14-1.07.3M1070.57,496.74c-.65,0-1.14-.08-1.48-.24-.43-.21-.77-.54-1.02-.98-.25-.45-.37-.95-.37-1.52s.13-1.01.39-1.31c.26-.3.59-.45.98-.45.26,0,.49.07.7.21.21.14.37.33.48.59.11.25.21.68.3,1.29.15,1.07.34,1.88.56,2.42h-.54ZM1078.77,500.59h-12.03v1.48h12.03v-1.48ZM1075.45,504.86h-1.68v1.69h1.68v-1.69ZM1068.42,504.86h-1.68v1.69h1.68v-1.69ZM1078.02,520.17c.53-.61.79-1.38.79-2.33,0-1.27-.46-2.29-1.38-3.04-1.05-.86-2.74-1.29-5.07-1.29-2.08,0-3.57.39-4.48,1.17-.9.78-1.36,1.79-1.36,3.02,0,.73.17,1.37.51,1.94.35.57.84,1.02,1.49,1.34.65.33,1.35.49,2.1.49,1.15,0,2.08-.35,2.81-1.04.72-.69,1.08-1.54,1.08-2.52,0-.57-.13-1.11-.39-1.62-.26-.52-.66-.95-1.2-1.31,1.2,0,2.13.15,2.78.42.65.27,1.15.64,1.48,1.11.26.35.39.77.39,1.24,0,.59-.21,1.08-.63,1.48-.26.24-.68.43-1.26.56l.11,1.47c.94-.12,1.67-.49,2.2-1.09M1072.52,515.91c.48.46.72,1.03.72,1.7s-.24,1.23-.72,1.68c-.48.44-1.13.66-1.96.66s-1.55-.22-2.05-.67c-.5-.45-.76-.99-.76-1.61,0-.43.12-.84.37-1.23.24-.39.6-.69,1.06-.91.47-.22.95-.32,1.46-.32.77,0,1.4.23,1.88.7M1068.42,523.86h-1.68v1.69h1.68v-1.69ZM1066.74,532.93c0,.77.07,1.42.2,1.95.14.53.33.97.59,1.32.26.35.64.65,1.12.89.49.24,1.01.36,1.57.36.7,0,1.31-.19,1.82-.59.51-.39.88-.95,1.09-1.68.28.57.64.99,1.1,1.27s.94.42,1.45.42c.55,0,1.08-.16,1.59-.48.5-.32.88-.75,1.13-1.31.24-.56.36-1.3.36-2.22v-4.52h-12.02v4.6ZM1077.35,529.93v2.41c0,.87-.06,1.48-.17,1.84-.11.35-.32.63-.62.82-.31.19-.66.29-1.05.29-.42,0-.77-.1-1.05-.31-.28-.21-.48-.51-.6-.92-.09-.31-.14-.81-.14-1.52v-2.61h3.64ZM1072.3,529.93v2.79c0,.77-.07,1.36-.2,1.76-.13.41-.37.73-.7.96-.33.23-.72.35-1.17.35-.38,0-.72-.08-1.01-.24-.29-.16-.51-.36-.67-.61-.16-.25-.27-.55-.33-.92-.04-.21-.06-.57-.06-1.09v-3h4.13ZM1068.42,539.95h-1.68v1.69h1.68v-1.69ZM1067.47,545.1c-.63.7-.94,1.58-.94,2.64,0,1.18.36,2.15,1.1,2.92.73.77,1.62,1.15,2.67,1.15.78,0,1.42-.2,1.94-.59.52-.4.86-.95,1.02-1.67.25.55.59.96,1.02,1.24s.9.42,1.42.42c.55,0,1.06-.15,1.55-.44.49-.29.87-.72,1.15-1.27.28-.55.42-1.16.42-1.82,0-.96-.27-1.75-.81-2.4-.55-.64-1.31-1.05-2.3-1.23l-.26,1.48c.72.11,1.26.35,1.62.74.36.38.54.87.54,1.44s-.18,1.05-.53,1.42c-.36.37-.81.55-1.35.55-.68,0-1.19-.25-1.52-.76-.33-.5-.49-1.07-.49-1.7,0-.06,0-.14.02-.24l-1.3-.17c.11.42.16.76.16,1.05,0,.68-.22,1.25-.66,1.7-.44.44-1,.66-1.68.66s-1.31-.24-1.79-.72c-.48-.48-.72-1.07-.72-1.76,0-.59.18-1.09.55-1.49.37-.41.97-.7,1.81-.87l-.2-1.48c-1,.1-1.82.5-2.45,1.2M1068.42,554.18h-1.68v1.69h1.68v-1.69ZM1078.82,563.7v-.95c-.52-.26-1.05-.7-1.61-1.32-.55-.62-1.02-1.34-1.41-2.17h-1.43c.17.46.42.98.76,1.56.34.58.68,1.05,1.02,1.4h-9.41v1.48h12.08Z"/>
    <path d="M1068.16,569.34c.27.17.53.37.8.62.27.25.77.82,1.51,1.71.9,1.06,1.6,1.83,2.12,2.29.52.46,1,.78,1.47.98.46.2.94.29,1.42.29.95,0,1.74-.34,2.38-1.01.64-.67.96-1.59.96-2.75s-.3-2.06-.89-2.74c-.59-.68-1.46-1.07-2.59-1.18l-.15,1.52c.76,0,1.34.22,1.77.65.43.43.64,1,.64,1.71,0,.68-.2,1.22-.61,1.64-.4.42-.89.63-1.48.63s-1.15-.23-1.78-.69-1.47-1.35-2.55-2.66c-.69-.84-1.3-1.49-1.82-1.94-.53-.45-1.06-.77-1.6-.98-.33-.12-.67-.18-1.03-.17v7.98h1.42v-5.92Z"/>
    <line class="st2" x1="782.55" y1="937.71" x2="663.06" y2="989.69"/>
    <line class="st2" x1="782.55" y1="989.69" x2="663.06" y2="937.71"/>
    <line class="st4" x1="654.96" y1="1130.78" x2="490.25" y2="1130.78"/>
  </g>
  <rect class="st26" x="782.55" y="711.57" width="17.55" height="421.91"/>
  <line class="st1" x1="770.96" y1="824.16" x2="771.31" y2="905.71"/>
  <line class="st1" x1="778.58" y1="805.16" x2="778.82" y2="925.05"/>
  <rect class="st26" x="774.45" y="989.69" width="12.06" height="149.02"/>
</svg>