<?xml version="1.0" encoding="UTF-8"?>
<svg id="Layer_1" xmlns="http://www.w3.org/2000/svg" xmlns:xlink="http://www.w3.org/1999/xlink" version="1.1" viewBox="0 0 1200 1697.14">
  <!-- Generator: Adobe Illustrator 29.6.0, SVG Export Plug-In . SVG Version: 2.1.1 Build 207)  -->
  <defs>
    <style>
      .st0, .st1, .st2, .st3 {
        fill: none;
      }

      .st1 {
        stroke: #0d0e1c;
      }

      .st1, .st2, .st3 {
        stroke-linecap: round;
        stroke-linejoin: round;
      }

      .st1, .st3 {
        stroke-width: .08px;
      }

      .st2 {
        stroke-width: .14px;
      }

      .st2, .st3 {
        stroke: #000;
      }

      .st4 {
        clip-path: url(#clippath-1);
      }

      .st5 {
        clip-path: url(#clippath-3);
      }

      .st6 {
        clip-path: url(#clippath-4);
      }

      .st7 {
        clip-path: url(#clippath-2);
      }

      .st8 {
        clip-path: url(#clippath-7);
      }

      .st9 {
        clip-path: url(#clippath-6);
      }

      .st10 {
        clip-path: url(#clippath-9);
      }

      .st11 {
        clip-path: url(#clippath-8);
      }

      .st12 {
        clip-path: url(#clippath-5);
      }

      .st13 {
        fill: #fff;
      }

      .st14 {
        fill: #ece9e5;
      }

      .st15 {
        fill: #302c35;
      }

      .st16 {
        clip-path: url(#clippath);
      }
    </style>
    <clipPath id="clippath">
      <rect class="st0" x="448" y="803.57" width="72.5" height="160"/>
    </clipPath>
    <clipPath id="clippath-1">
      <rect class="st0" x="355.5" y="478.57" width="525" height="740"/>
    </clipPath>
    <clipPath id="clippath-2">
      <rect class="st0" x="523" y="1033.57" width="27.5" height="40"/>
    </clipPath>
    <clipPath id="clippath-3">
      <rect class="st0" x="355.5" y="478.57" width="525" height="740"/>
    </clipPath>
    <clipPath id="clippath-4">
      <rect class="st0" x="355.5" y="478.57" width="525" height="740"/>
    </clipPath>
    <clipPath id="clippath-5">
      <rect class="st0" x="453" y="1116.07" width="27.5" height="37.5"/>
    </clipPath>
    <clipPath id="clippath-6">
      <rect class="st0" x="355.5" y="478.57" width="525" height="740"/>
    </clipPath>
    <clipPath id="clippath-7">
      <rect class="st0" x="355.5" y="478.57" width="525" height="740"/>
    </clipPath>
    <clipPath id="clippath-8">
      <rect class="st0" x="355.5" y="478.57" width="525" height="740"/>
    </clipPath>
    <clipPath id="clippath-9">
      <rect class="st0" x="355.5" y="478.57" width="525" height="740"/>
    </clipPath>
  </defs>
  <rect class="st14" x="428" y="701.07" width="340" height="482.5"/>
  <rect class="st14" x="468" y="593.57" width="250" height="165"/>
  <rect class="st13" x="703" y="948.57" width="60" height="227.5"/>
  <rect class="st13" x="488" y="706.07" width="222.5" height="12.5"/>
  <rect class="st15" x="690.5" y="733.57" width="75" height="15"/>
  <rect class="st15" x="428" y="1168.57" width="155" height="15"/>
  <rect class="st15" x="653" y="1168.57" width="112.5" height="15"/>
  <rect class="st15" x="468" y="591.07" width="250" height="5"/>
  <rect class="st15" x="468" y="593.57" width="5" height="112.5"/>
  <rect class="st15" x="713" y="593.57" width="5" height="112.5"/>
  <rect class="st15" x="428" y="748.57" width="17.5" height="420"/>
  <rect class="st15" x="750.5" y="748.57" width="17.5" height="420"/>
  <rect class="st15" x="693" y="1043.57" width="55" height="5"/>
  <rect class="st15" x="448" y="1161.07" width="125" height="10"/>
  <rect class="st15" x="568" y="1151.07" width="5" height="10"/>
  <rect class="st15" x="448" y="1026.07" width="120" height="5"/>
  <rect class="st15" x="440.5" y="1026.07" width="10" height="145"/>
  <rect class="st15" x="453" y="1031.07" width="115" height="2.5"/>
  <rect class="st15" x="565.5" y="1151.07" width="2.5" height="7.5"/>
  <rect class="st15" x="568" y="1026.07" width="5" height="55"/>
  <rect class="st15" x="565.5" y="1026.07" width="2.5" height="55"/>
  <rect class="st15" x="453" y="1158.57" width="115" height="2.5"/>
  <rect class="st15" x="450.5" y="1031.07" width="2.5" height="127.5"/>
  <rect class="st15" x="445.5" y="966.07" width="120" height="7.5"/>
  <rect class="st15" x="565.5" y="966.07" width="7.5" height="60"/>
  <rect class="st15" x="690.5" y="701.07" width="75" height="30"/>
  <rect class="st15" x="428" y="733.57" width="65" height="15"/>
  <rect class="st15" x="428" y="701.07" width="65" height="30"/>
  <polygon class="st13" points="448 803.57 448 806.07 518 806.07 518 942.46 520.5 942.92 520.5 803.57 448 803.57"/>
  <polygon class="st13" points="448 803.57 448 906.07 464.11 913.96 504.38 933.65 520.5 941.53 520.5 803.57 448 803.57"/>
  <g class="st16">
    <path class="st13" d="M448,963.57v-57.36l15,7.97v28.6c0,1.82,1.47,3.29,3.29,3.29h33.44c1.81,0,3.27-1.47,3.27-3.27v-8.7l15,7.96v21.51h-70Z"/>
    <path class="st13" d="M463,943.57v-29.04l40,19.7v8.57c0,1.81-1.47,3.28-3.28,3.28h-33.43c-1.83,0-3.29-1.47-3.29-3.29"/>
  </g>
  <polyline class="st1" points="520.5 941.07 520.5 963.57 448 963.57 448 906.07"/>
  <polyline class="st1" points="503.67 934.07 519.58 941.94 520.5 942.4 520.5 803.57 448 803.57 448 803.98 448 906.49 463.91 914.37"/>
  <line class="st1" x1="500.5" y1="946.07" x2="468" y2="946.07"/>
  <g class="st4">
    <path class="st1" d="M466.81,946.43c-1.82,0-3.28-1.47-3.28-3.29"/>
    <path class="st1" d="M503.33,943.14c0,1.82-1.46,3.29-3.28,3.29"/>
  </g>
  <polyline class="st1" points="503 943.57 503 934.61 463 914.81 463 943.57"/>
  <g class="st7">
    <path class="st13" d="M550.5,1033.57s0,14.76,0,22.46c-.01,8.9-6.41,16.09-14.3,16.09-7.9,0-14.3-7.21-14.29-16.11.01-7.7.01-15.4.02-23.11,9.53,0,19.06,0,28.58.02"/>
  </g>
  <g class="st5">
    <path class="st3" d="M550.5,1032.92c0,7.71,0,15.41,0,23.11-.01,8.9-6.41,16.09-14.3,16.09-7.9,0-14.3-7.21-14.29-16.11.01-7.7.01-15.4.02-23.11,9.53,0,19.06,0,28.58.02Z"/>
  </g>
  <rect class="st13" x="453" y="1033.57" width="62.5" height="62.5"/>
  <polyline class="st3" points="515.5 1033.57 515.5 1096.07 510.5 1096.07"/>
  <line class="st3" x1="515.5" y1="1033.57" x2="453" y2="1033.57"/>
  <line class="st3" x1="453" y1="1033.57" x2="453" y2="1096.07"/>
  <polyline class="st3" points="453 1033.57 453 1033.57 453 1033.57"/>
  <polyline class="st3" points="453 1096.07 453 1096.07 453 1096.07"/>
  <line class="st3" x1="453" y1="1096.07" x2="510.5" y2="1096.07"/>
  <line class="st3" x1="485.5" y1="1033.57" x2="485.5" y2="1051.07"/>
  <g class="st6">
    <path class="st3" d="M489.19,1050.03c0-2.17-1.76-3.93-3.93-3.93s-3.93,1.76-3.93,3.93,1.76,3.93,3.93,3.93,3.93-1.76,3.93-3.93Z"/>
    <path class="st3" d="M489.19,1050.03c0-2.17-1.76-3.93-3.93-3.93s-3.93,1.76-3.93,3.93,1.76,3.93,3.93,3.93,3.93-1.76,3.93-3.93Z"/>
  </g>
  <g class="st12">
    <path class="st13" d="M480.5,1151.07h-16.45c-.59,0-1.05-.35-1.05-.77v-33.45c0-.43.47-.78,1.05-.78h15.38c.59,0,1.06.35,1.06.78v33.45c0,.42-.47.77-1.06.77M471.5,1137.41c1.55,0,2.8-1.25,2.8-2.8s-1.25-2.81-2.8-2.81-2.8,1.26-2.8,2.81,1.25,2.8,2.8,2.8"/>
    <path class="st13" d="M459.8,1134.62c0,1.16-.94,2.1-2.1,2.1s-2.11-.95-2.11-2.1.94-2.11,2.11-2.11,2.1.94,2.1,2.11"/>
    <path class="st13" d="M471.5,1136.12c-.83,0-1.51-.67-1.51-1.5s.68-1.51,1.51-1.51,1.51.68,1.51,1.51-.68,1.5-1.51,1.5"/>
    <path class="st13" d="M471.5,1131.81c1.55,0,2.8,1.26,2.8,2.81s-1.25,2.8-2.8,2.8-2.8-1.25-2.8-2.8,1.25-2.81,2.8-2.81M473.01,1134.62c0-.83-.68-1.51-1.51-1.51s-1.51.68-1.51,1.51.67,1.5,1.51,1.5,1.51-.67,1.51-1.5"/>
    <path class="st13" d="M459.8,1134.62c0-1.17-.94-2.11-2.1-2.11s-2.11.94-2.11,2.11.95,2.1,2.11,2.1,2.1-.95,2.1-2.1M461.17,1116.07h18.26c.59,0,1.07.36,1.07.79v36.07c0,.35-.48.64-1.07.64h-26.43v-37.5h8.17ZM480.5,1116.07h-16.45c-.59,0-1.05.35-1.05.78v33.46c0,.42.47.77,1.05.77h15.39c.59,0,1.06-.35,1.06-.77v-33.46c0-.43-.47-.78-1.06-.78"/>
  </g>
  <g class="st9">
    <path class="st3" d="M457.7,1132.5c1.15,0,2.1.95,2.1,2.11s-.95,2.1-2.1,2.1-2.11-.94-2.11-2.1.94-2.11,2.11-2.11Z"/>
    <path class="st3" d="M471.5,1131.81c1.55,0,2.8,1.26,2.8,2.81s-1.25,2.8-2.8,2.8-2.8-1.25-2.8-2.8,1.25-2.81,2.8-2.81Z"/>
    <path class="st3" d="M471.5,1133.11c.83,0,1.51.68,1.51,1.51s-.68,1.5-1.51,1.5-1.51-.67-1.51-1.5.68-1.51,1.51-1.51Z"/>
    <path class="st3" d="M464.05,1151.07h15.39c.59,0,1.06-.35,1.06-.77v-33.46c0-.43-.47-.78-1.06-.78h-15.39c-.59,0-1.05.35-1.05.78v33.46c0,.42.46.77,1.05.77Z"/>
  </g>
  <line class="st3" x1="463" y1="1116.07" x2="453" y2="1116.07"/>
  <g class="st8">
    <path class="st3" d="M453,1153.57h26.42c.6,0,1.08-.29,1.08-.64v-36.07c0-.43-.48-.79-1.08-.79h-8.92"/>
  </g>
  <line class="st3" x1="463" y1="1116.07" x2="470.5" y2="1116.07"/>
  <line class="st3" x1="453" y1="1116.07" x2="453" y2="1153.57"/>
  <polygon class="st13" points="678 797.69 670.17 799.16 663 803.2 663 803.57 663.33 803.57 663.98 803.57 664.3 803.57 664.63 803.57 664.96 803.57 666.59 802.47 668.22 801.73 669.52 802.1 670.5 803.2 670.5 803.94 670.17 804.3 664.96 809.46 661.37 816.07 694.62 816.07 691.04 809.46 685.82 804.3 685.17 803.94 685.5 803.2 686.48 802.1 687.78 801.73 689.41 802.47 691.04 803.57 691.36 803.57 691.69 803.57 692.02 803.57 692.67 803.57 692.99 803.2 685.82 799.16 678 797.69"/>
  <polygon class="st13" points="725.72 797.69 717.45 799.16 710.5 803.2 710.5 803.57 710.83 803.57 711.15 803.57 711.8 803.57 712.13 803.57 712.46 803.57 714.09 802.47 715.72 801.73 717.02 802.1 718 803.2 718 803.94 717.67 804.31 712.13 809.46 708.87 816.07 742.59 816.07 738.95 809.46 733.33 804.31 733 803.94 733 803.2 733.99 802.1 735.65 801.73 737.3 802.47 738.62 803.57 738.95 803.57 739.61 803.57 739.95 803.57 740.28 803.57 740.61 803.57 740.94 803.2 733.66 799.16 725.72 797.69"/>
  <polygon class="st13" points="741.62 813.57 707.38 813.57 693.95 813.57 659.72 813.57 653 813.57 653 878.57 659.72 878.57 693.95 878.57 707.38 878.57 741.62 878.57 748 878.57 748 813.57 741.62 813.57"/>
  <polygon class="st13" points="661.37 878.57 664.96 885.19 670.17 890.34 670.5 890.7 670.5 891.44 669.52 892.54 668.22 892.91 666.59 892.17 664.96 891.07 664.63 891.07 664.3 891.07 663.98 891.07 663.33 891.07 663 891.07 663 891.44 670.17 895.49 678 896.96 685.83 895.49 693 891.44 692.68 891.07 692.02 891.07 691.7 891.07 691.37 891.07 691.05 891.07 689.42 892.17 687.78 892.91 686.48 892.54 685.5 891.44 685.18 890.7 685.83 890.34 691.05 885.19 694.63 878.57 661.37 878.57"/>
  <polygon class="st13" points="708.66 878.57 712 885.19 717.67 890.33 718 890.7 718 891.41 717.02 892.42 715.72 892.76 714.09 892.08 712.46 891.07 712.13 891.07 711.8 891.07 711.15 891.07 710.83 891.07 710.5 891.07 710.5 891.41 717.35 895.12 725.5 896.47 733.32 895.12 740.49 891.41 740.17 891.07 740.34 891.07 740 891.07 739.67 891.07 739 891.07 738.67 891.07 737.33 892.17 735.67 892.91 734 892.54 733 891.44 733 890.7 733.33 890.33 739 885.19 742.67 878.57 708.66 878.57"/>
  <line class="st3" x1="663" y1="891.07" x2="663" y2="891.07"/>
  <line class="st3" x1="663" y1="891.07" x2="663" y2="891.07"/>
  <line class="st3" x1="663" y1="891.07" x2="663" y2="891.07"/>
  <line class="st3" x1="663" y1="891.07" x2="663" y2="891.07"/>
  <line class="st3" x1="663" y1="891.07" x2="663" y2="891.07"/>
  <line class="st3" x1="663" y1="891.07" x2="663" y2="891.07"/>
  <line class="st3" x1="669.87" y1="890.84" x2="668.86" y2="891.85"/>
  <line class="st3" x1="668.86" y1="891.85" x2="667.5" y2="892.19"/>
  <line class="st3" x1="667.5" y1="892.19" x2="665.82" y2="891.51"/>
  <line class="st3" x1="665.82" y1="891.51" x2="664.13" y2="890.5"/>
  <line class="st3" x1="669.53" y1="889.82" x2="669.87" y2="890.16"/>
  <line class="st3" x1="670.5" y1="891.07" x2="670.5" y2="891.07"/>
  <line class="st3" x1="669.53" y1="889.82" x2="664.13" y2="885.1"/>
  <line class="st3" x1="664.13" y1="885.1" x2="660.42" y2="879.03"/>
  <line class="st3" x1="690.5" y1="891.07" x2="690.5" y2="891.07"/>
  <line class="st3" x1="690.5" y1="891.07" x2="693" y2="891.07"/>
  <line class="st3" x1="693" y1="891.07" x2="693" y2="891.07"/>
  <line class="st3" x1="693" y1="891.07" x2="693" y2="891.07"/>
  <line class="st3" x1="693.16" y1="890.84" x2="692.82" y2="890.5"/>
  <line class="st3" x1="685.39" y1="890.84" x2="686.41" y2="891.85"/>
  <line class="st3" x1="686.41" y1="891.85" x2="687.76" y2="892.19"/>
  <line class="st3" x1="687.76" y1="892.19" x2="689.44" y2="891.51"/>
  <line class="st3" x1="689.44" y1="891.51" x2="691.13" y2="890.5"/>
  <line class="st3" x1="685.73" y1="889.82" x2="685.06" y2="890.16"/>
  <line class="st3" x1="685.06" y1="890.16" x2="685.39" y2="890.84"/>
  <line class="st3" x1="685.73" y1="889.82" x2="691.13" y2="885.1"/>
  <line class="st3" x1="691.13" y1="885.1" x2="694.85" y2="879.03"/>
  <line class="st3" x1="662.1" y1="890.84" x2="669.53" y2="894.55"/>
  <line class="st3" x1="669.53" y1="894.55" x2="677.63" y2="895.9"/>
  <line class="st3" x1="677.63" y1="895.9" x2="685.73" y2="894.55"/>
  <line class="st3" x1="685.73" y1="894.55" x2="693.16" y2="890.84"/>
  <line class="st3" x1="663" y1="803.57" x2="663" y2="803.57"/>
  <line class="st3" x1="663" y1="803.57" x2="663" y2="803.57"/>
  <line class="st3" x1="663" y1="803.57" x2="663" y2="803.57"/>
  <line class="st3" x1="663" y1="803.57" x2="663" y2="803.57"/>
  <line class="st3" x1="663" y1="803.57" x2="663" y2="803.57"/>
  <line class="st3" x1="663" y1="803.57" x2="663" y2="803.57"/>
  <line class="st3" x1="669.87" y1="803.42" x2="668.86" y2="802.41"/>
  <line class="st3" x1="668.86" y1="802.41" x2="667.5" y2="802.07"/>
  <line class="st3" x1="667.5" y1="802.07" x2="665.82" y2="802.74"/>
  <line class="st3" x1="665.82" y1="802.74" x2="664.13" y2="803.76"/>
  <line class="st3" x1="669.53" y1="804.43" x2="669.87" y2="804.09"/>
  <line class="st3" x1="670.5" y1="803.57" x2="670.5" y2="803.57"/>
  <line class="st3" x1="669.53" y1="804.43" x2="664.13" y2="809.16"/>
  <line class="st3" x1="664.13" y1="809.16" x2="660.42" y2="815.23"/>
  <line class="st3" x1="690.5" y1="803.57" x2="690.5" y2="803.57"/>
  <line class="st3" x1="690.5" y1="803.57" x2="693" y2="803.57"/>
  <line class="st3" x1="693" y1="803.57" x2="693" y2="803.57"/>
  <line class="st3" x1="693" y1="803.57" x2="693" y2="803.57"/>
  <line class="st3" x1="693.16" y1="803.42" x2="692.82" y2="803.76"/>
  <line class="st3" x1="685.39" y1="803.42" x2="686.41" y2="802.41"/>
  <line class="st3" x1="686.41" y1="802.41" x2="687.76" y2="802.07"/>
  <line class="st3" x1="687.76" y1="802.07" x2="689.44" y2="802.74"/>
  <line class="st3" x1="689.44" y1="802.74" x2="691.13" y2="803.76"/>
  <line class="st3" x1="685.73" y1="804.43" x2="685.06" y2="804.09"/>
  <line class="st3" x1="685.06" y1="804.09" x2="685.39" y2="803.42"/>
  <line class="st3" x1="685.73" y1="804.43" x2="691.13" y2="809.16"/>
  <line class="st3" x1="691.13" y1="809.16" x2="694.85" y2="815.23"/>
  <line class="st3" x1="662.1" y1="803.42" x2="669.53" y2="799.7"/>
  <line class="st3" x1="669.53" y1="799.7" x2="677.63" y2="798.35"/>
  <line class="st3" x1="677.63" y1="798.35" x2="685.73" y2="799.7"/>
  <line class="st3" x1="685.73" y1="799.7" x2="693.16" y2="803.42"/>
  <line class="st3" x1="653" y1="816.07" x2="653" y2="878.57"/>
  <line class="st3" x1="738" y1="891.07" x2="738" y2="891.07"/>
  <line class="st3" x1="738" y1="891.07" x2="740.5" y2="891.07"/>
  <line class="st3" x1="740.5" y1="891.07" x2="740.5" y2="891.07"/>
  <line class="st3" x1="740.5" y1="891.07" x2="740.5" y2="891.07"/>
  <line class="st3" x1="741.09" y1="890.84" x2="740.75" y2="890.5"/>
  <line class="st3" x1="740.5" y1="891.07" x2="740.5" y2="891.07"/>
  <line class="st3" x1="732.99" y1="890.84" x2="734" y2="891.85"/>
  <line class="st3" x1="734" y1="891.85" x2="735.69" y2="892.19"/>
  <line class="st3" x1="735.69" y1="892.19" x2="737.37" y2="891.51"/>
  <line class="st3" x1="737.37" y1="891.51" x2="738.72" y2="890.5"/>
  <line class="st3" x1="733.32" y1="889.82" x2="732.99" y2="890.16"/>
  <line class="st3" x1="733" y1="891.07" x2="733" y2="891.07"/>
  <line class="st3" x1="733.32" y1="889.82" x2="739.06" y2="885.1"/>
  <line class="st3" x1="739.06" y1="885.1" x2="742.77" y2="879.03"/>
  <line class="st3" x1="713" y1="891.07" x2="710.5" y2="891.07"/>
  <line class="st3" x1="710.5" y1="891.07" x2="710.5" y2="891.07"/>
  <line class="st3" x1="710.5" y1="891.07" x2="710.5" y2="891.07"/>
  <line class="st3" x1="710.5" y1="891.07" x2="710.5" y2="891.07"/>
  <line class="st3" x1="710.5" y1="891.07" x2="710.5" y2="891.07"/>
  <line class="st3" x1="710.5" y1="891.07" x2="710.5" y2="891.07"/>
  <line class="st3" x1="717.8" y1="890.84" x2="716.78" y2="891.85"/>
  <line class="st3" x1="716.78" y1="891.85" x2="715.43" y2="892.19"/>
  <line class="st3" x1="715.43" y1="892.19" x2="713.75" y2="891.51"/>
  <line class="st3" x1="713.75" y1="891.51" x2="712.06" y2="890.5"/>
  <line class="st3" x1="717.46" y1="889.82" x2="717.8" y2="890.16"/>
  <line class="st3" x1="718" y1="891.07" x2="718" y2="891.07"/>
  <line class="st3" x1="717.46" y1="889.82" x2="711.72" y2="885.1"/>
  <line class="st3" x1="711.72" y1="885.1" x2="708.35" y2="879.03"/>
  <line class="st3" x1="741.09" y1="890.84" x2="733.66" y2="894.55"/>
  <line class="st3" x1="733.66" y1="894.55" x2="725.56" y2="895.9"/>
  <line class="st3" x1="725.56" y1="895.9" x2="717.12" y2="894.55"/>
  <line class="st3" x1="717.12" y1="894.55" x2="710.03" y2="890.84"/>
  <line class="st3" x1="738" y1="803.57" x2="738" y2="803.57"/>
  <line class="st3" x1="738" y1="803.57" x2="740.5" y2="803.57"/>
  <line class="st3" x1="740.5" y1="803.57" x2="740.5" y2="803.57"/>
  <line class="st3" x1="740.5" y1="803.57" x2="740.5" y2="803.57"/>
  <line class="st3" x1="741.09" y1="803.42" x2="740.75" y2="803.76"/>
  <line class="st3" x1="740.5" y1="803.57" x2="740.5" y2="803.57"/>
  <line class="st3" x1="732.99" y1="803.42" x2="734" y2="802.41"/>
  <line class="st3" x1="734" y1="802.41" x2="735.69" y2="802.07"/>
  <line class="st3" x1="735.69" y1="802.07" x2="737.37" y2="802.74"/>
  <line class="st3" x1="737.37" y1="802.74" x2="738.72" y2="803.76"/>
  <line class="st3" x1="733.32" y1="804.43" x2="732.99" y2="804.09"/>
  <line class="st3" x1="733" y1="803.57" x2="733" y2="803.57"/>
  <line class="st3" x1="733.32" y1="804.43" x2="739.06" y2="809.16"/>
  <line class="st3" x1="739.06" y1="809.16" x2="742.77" y2="815.23"/>
  <line class="st3" x1="713" y1="803.57" x2="710.5" y2="803.57"/>
  <line class="st3" x1="710.5" y1="803.57" x2="710.5" y2="803.57"/>
  <line class="st3" x1="710.5" y1="803.57" x2="710.5" y2="803.57"/>
  <line class="st3" x1="710.5" y1="803.57" x2="710.5" y2="803.57"/>
  <line class="st3" x1="710.5" y1="803.57" x2="710.5" y2="803.57"/>
  <line class="st3" x1="710.5" y1="803.57" x2="710.5" y2="803.57"/>
  <line class="st3" x1="717.8" y1="803.42" x2="716.78" y2="802.41"/>
  <line class="st3" x1="716.78" y1="802.41" x2="715.43" y2="802.07"/>
  <line class="st3" x1="715.43" y1="802.07" x2="713.75" y2="802.74"/>
  <line class="st3" x1="713.75" y1="802.74" x2="712.06" y2="803.76"/>
  <line class="st3" x1="717.46" y1="804.43" x2="717.8" y2="804.09"/>
  <line class="st3" x1="718" y1="803.57" x2="718" y2="803.57"/>
  <line class="st3" x1="717.46" y1="804.43" x2="711.72" y2="809.16"/>
  <line class="st3" x1="711.72" y1="809.16" x2="708.35" y2="815.23"/>
  <line class="st3" x1="741.09" y1="803.42" x2="733.66" y2="799.7"/>
  <line class="st3" x1="733.66" y1="799.7" x2="725.56" y2="798.35"/>
  <line class="st3" x1="725.56" y1="798.35" x2="717.12" y2="799.7"/>
  <line class="st3" x1="717.12" y1="799.7" x2="710.03" y2="803.42"/>
  <line class="st3" x1="748" y1="816.07" x2="748" y2="878.57"/>
  <polyline class="st3" points="748 878.57 742.77 878.57 708.35 878.57 694.84 878.57 660.42 878.57 653 878.57"/>
  <polyline class="st3" points="653 816.07 660.42 816.07 694.84 816.07 708.35 816.07 742.77 816.07 748 816.07"/>
  <line class="st3" x1="730.5" y1="1076.07" x2="743" y2="1076.07"/>
  <rect class="st3" x="700.5" y="1048.57" width="47.5" height="117.5"/>
  <line class="st3" x1="735.5" y1="1128.57" x2="735.5" y2="1141.07"/>
  <line class="st3" x1="715.5" y1="1128.57" x2="715.5" y2="1141.07"/>
  <line class="st3" x1="720.5" y1="1133.57" x2="710.5" y2="1133.57"/>
  <line class="st3" x1="740.5" y1="1133.57" x2="728" y2="1133.57"/>
  <rect class="st3" x="705.5" y="1123.57" width="40" height="22.5"/>
  <rect class="st3" x="710.5" y="1061.07" width="27.5" height="27.5"/>
  <rect class="st3" x="705.5" y="1056.07" width="40" height="40"/>
  <g class="st11">
    <path class="st13" d="M545.49,920.84c11.43,0,20.69,9.26,20.69,20.69s-9.26,20.69-20.69,20.69-20.69-9.26-20.69-20.69,9.26-20.69,20.69-20.69"/>
    <path class="st1" d="M545.49,920.84c11.43,0,20.69,9.26,20.69,20.69s-9.26,20.69-20.69,20.69-20.69-9.26-20.69-20.69,9.26-20.69,20.69-20.69Z"/>
  </g>
  <path class="st3" d="M445.5,973.57h120M565.5,973.57v45M565.5,1026.07h-120M445.5,1026.07v-52.5M690.5,731.07v17.5M690.5,748.57h60M445.5,748.57h47.5M493,748.57v-17.5M428,1183.57h5M433,1183.57h147.5M653,1183.57h115M750.5,1168.57h-97.5M580.5,1168.57h0M470.5,598.57v102.5M713,701.07v-102.5M713,593.57h-242.5M468,701.07h2.5M470.5,701.07v-107.5M470.5,593.57h242.5M713,593.57v107.5M713,701.07h2.5M715.5,701.49v-110.98,110.98ZM715.5,591.07h-247.5M468,591.07v110M564.73,974.55l-119.49,51.98M565.5,973.57h-120M445.5,973.57v52.5M445.5,1026.07h120M565.5,1026.07v-52.5M428,748.57v420M768,1168.57v-420"/>
  <path class="st3" d="M750.5,878.57v-62.5M750.5,996.07h-2.5M745.5,996.07h-2.5M740.5,996.07h-2.5M735.5,996.07h-2.5M730.5,996.07h-2.5M725.5,996.07h-2.5M720.5,996.07h0M718,996.07h-2.5M713,996.07h-2.5M708,996.07h-2.5M703,996.07h-2.5M700.5,996.07v-2.5M700.5,991.07v-2.5M700.5,988.57v-2.5M700.5,983.57v-2.5M700.5,978.57v-2.5M700.5,973.57v-2.5M700.5,968.57v-2.5M700.5,963.57v-2.5M700.5,958.57v-2.5M700.5,953.57v-2.5M700.5,948.57h0M700.5,948.57h2.5M705.5,948.57h2.5M710.5,948.57h2.5M715.5,948.57h2.5M720.5,948.57h0M723,948.57h2.5M728,948.57h2.5M733,948.57h2.5M738,948.57h2.5M743,948.57h2.5M748,948.57h2.5M750.5,948.57h0M750.5,951.07v2.5M750.5,956.07v2.5M750.5,961.07v2.5M750.5,966.07v2.5M750.5,971.07v2.5M750.5,976.07v2.5M750.5,981.07v2.5M750.5,986.07v2.5M750.5,988.57v2.5M750.5,993.57v2.5M584.3,1100.78l12.83,1.35M597.13,1102.13l12.49,3.71M609.62,1105.84l11.48,6.41M621.09,1112.26l10.13,8.1M631.22,1120.36l8.44,10.13M639.66,1130.48l6.07,11.47M645.73,1141.96l3.71,12.49M649.44,1154.45l1.35,13.16M580.5,1183.57v-15M653,1168.57v15M650.5,1168.57h-65M585.5,1168.57v-67.5M580.5,1168.57h0M750.5,1043.57h-2.5M745.5,1043.57h-2.5M740.5,1043.57h-2.5M735.5,1043.57h-2.5M730.5,1043.57h-2.5M725.5,1043.57h-2.5M720.5,1043.57h0M718,1043.57h-2.5M713,1043.57h-2.5M708,1043.57h-2.5M703,1043.57h-2.5M700.5,1043.57h0M700.5,1041.07v-2.5M700.5,1036.07v-2.5M700.5,1031.07v-2.5M700.5,1026.07v-2.5M700.5,1021.07v-2.5M700.5,1016.07v-2.5M700.5,1011.07v-2.5M700.5,1006.07v-2.5M700.5,1001.07v-2.5M700.5,996.07h0M700.5,996.07h2.5M705.5,996.07h2.5M710.5,996.07h2.5M715.5,996.07h2.5M720.5,996.07h0M723,996.07h2.5M728,996.07h2.5M733,996.07h2.5M738,996.07h2.5M743,996.07h2.5M748,996.07h2.5M750.5,996.07h0M750.5,998.57v2.5M750.5,1003.57v2.5M750.5,1008.57v2.5M750.5,1013.57v2.5M750.5,1018.57v2.5M750.5,1023.57v2.5M750.5,1028.57v2.5M750.5,1033.57v2.5M750.5,1038.57v2.5M750.5,1043.57h0M750.5,1043.57h-57.5M693,1043.57v5M693,1048.57h57.5M428,1048.57v-5M497.22,630.6l13.16,1.01M510.38,631.62l12.49,3.37M522.87,634.99l11.82,5.74M534.69,640.73l10.8,7.43M545.49,648.16l9.45,9.45M554.94,657.61l7.43,10.46M562.36,668.07l5.74,12.15M568.1,680.22l3.38,12.49M571.48,692.71l1.01,13.16M498,706.07v-75M503,711.07h65M568,711.07v-5M568,706.07h-65M503,706.07v5M570.5,718.57h-72.5M503,706.07h65M503,711.07h65M570.5,711.07v7.5M498,711.07v7.5M498,711.07h72.5M495.5,718.57h2.5M498,718.57v-7.5M498,711.07h5M503,711.07v-5M503,706.07h-7.5M495.5,706.07v12.5M570.5,718.57h5M575.5,718.57v-12.5M575.5,706.07h-7.5M568,706.07v5M568,711.07h2.5M570.5,711.07v7.5M685.5,706.07v5M580.5,706.07h105M580.5,711.07v-5M685.5,711.07h-105M580.5,718.57h105M685.5,706.07h-105M580.5,706.07v12.5M575.5,706.07h5M575.5,718.57v-12.5M580.5,718.57h-5M690.5,706.07v12.5M685.5,706.07h5M685.5,718.57v-12.5M690.5,718.57h-5M493,716.07v32.5M445.5,748.57v217.5M445.5,966.07h127.5M573,1168.57h7.5M750.5,1168.57v-120M750.5,1043.57v-295M690.5,748.57v-32.5M690.5,716.07h0M575.5,716.07h0M495.5,716.07h-2.5M580.5,1168.57h0"/>
  <path class="st3" d="M750.5,1098.57v47.5M750.5,1051.07v95M573,1168.57v-7.5M573,1161.07v-10M573,1081.07v-55M567.76,1149.38h0M565.5,1026.07h-117.5"/>
  <path class="st3" d="M501.95,1149.38l1.35-12.83M503.3,1136.56l3.71-12.49M507.01,1124.07l6.07-11.47M513.08,1112.59l8.1-9.79M521.18,1102.81l9.79-8.1M530.97,1094.7l11.48-6.07M542.45,1088.63l12.49-3.71M554.94,1084.92l12.83-1.35M565.5,1081.07h7.5M573,1151.07h-7.5M568,1146.07v2.5M568,1148.57h-65M567.76,1149.38h0M568,1146.07v-62.5"/>
  <path class="st3" d="M485.5,1033.57h0M483,1033.57h-2.5M485.5,1033.57h-5M485.5,1033.57h0M483,1033.57h-2.5M453,1033.57h112.5M565.5,1033.57v47.5M565.5,1151.07v7.5M565.5,1158.57h-112.5M453,1158.57v-125"/>
  <path class="st3" d="M513,1033.57h-20M488,1033.57h-2.5M483,1033.57h-2.5M475.5,1033.57h-20M514.1,1033.27l-.67-.34M768,966.07v7.5M445.5,973.57h7.5M453,973.57v-7.5M453,966.07h-7.5M500.5,973.57h65M565.5,966.07h-65M500.5,966.07v7.5M500.5,973.57h-47.5M453,966.07h47.5M453,973.57v-7.5M500.5,966.07v7.5M573,1026.07v-60M573,966.07h-7.5M493,731.07v-30M493,701.07h-65M768,701.07h-77.5M690.5,701.07v30M690.5,711.07h0M575.5,711.07h0M495.5,711.07h-2.5M493,716.07v-5M690.5,711.07v5M690.5,711.07v-10M493,701.07v10M493,711.07h2.5M575.5,711.07h0M690.5,711.07h0M768,701.07v482.5M428,1183.57v-482.5"/>
  <g class="st10">
    <path class="st2" d="M1125.5,618.57h-5M1102.75,538.12l-16.2,7.09M1090.93,562.76l-4.38-17.55M1063.25,534.07l27.68,28.69M1063.25,534.07l39.49,4.05M1063.25,534.07l23.29,11.14M1125.5,856.07h-5M1125.5,696.07h-5M1125.5,776.07h-5M1125.5,856.07v-237.5M.5,1316.07h1182.5"/>
    <path d="M1104.98,1265.55c.43-.28.75-.67.96-1.17.21-.5.32-1.12.32-1.85,0-.58-.11-1.1-.32-1.57-.21-.47-.5-.82-.89-1.07-.38-.25-.78-.37-1.21-.37s-.81.11-1.15.34c-.33.23-.61.58-.82,1.05-.14.33-.32.93-.51,1.8-.19.87-.38,1.42-.57,1.62-.19.21-.42.32-.72.32-.33,0-.62-.15-.85-.45-.23-.3-.36-.77-.36-1.42s.13-1.1.39-1.42c.26-.32.64-.51,1.16-.56l-.08-1.03c-.47.02-.9.15-1.27.4-.37.25-.66.6-.85,1.06-.19.46-.29.99-.29,1.59,0,.55.09,1.05.27,1.49.18.45.45.79.81,1.02.35.23.74.35,1.14.35.37,0,.71-.1,1-.28.3-.19.55-.48.75-.87.16-.3.33-.82.5-1.57.18-.75.31-1.23.39-1.45.13-.34.29-.59.48-.73.19-.15.41-.22.66-.22s.48.08.69.23c.21.15.38.39.49.7.12.31.18.68.18,1.09,0,.46-.08.88-.24,1.25-.16.37-.37.65-.62.82-.26.17-.59.29-.99.34l.09,1.01c.54-.02,1.02-.16,1.45-.45M1105.5,1258.57h-2.17l-1.28-3.07,3.46-2.9v-1.42l-4.17,3.57-3.33-3.41v1.46l4.06,5.78h-4.06,7.5Z"/>
    <path d="M1103,1246.07h-2.5v-5h2.5v5ZM1105.5,1246.07h-2.5v-5h2.5v5Z"/>
    <path d="M1104.98,1237.2c.43-.28.75-.67.96-1.17.21-.5.32-1.11.32-1.85,0-.58-.1-1.1-.31-1.57-.21-.47-.51-.82-.89-1.07-.38-.25-.78-.37-1.22-.37s-.81.11-1.14.34c-.33.23-.61.58-.82,1.05-.15.33-.32.93-.51,1.8-.2.88-.39,1.42-.57,1.63-.19.21-.42.31-.71.31-.34,0-.62-.15-.86-.45-.23-.3-.36-.77-.36-1.42s.13-1.1.39-1.42c.26-.32.64-.51,1.15-.56l-.08-1.03c-.47.02-.9.15-1.27.4-.38.25-.66.6-.85,1.07-.19.46-.29.99-.29,1.59,0,.55.09,1.05.28,1.49.18.45.45.79.8,1.02.35.23.73.35,1.14.35.37,0,.71-.1,1-.29.3-.19.55-.48.75-.87.16-.3.32-.83.5-1.57.18-.74.31-1.23.39-1.45.13-.34.29-.59.48-.73.19-.15.41-.22.66-.22s.48.07.69.23c.21.15.38.39.5.7.12.31.18.68.18,1.09,0,.46-.08.88-.24,1.25-.16.37-.37.64-.63.82-.26.17-.59.29-.99.34l.09,1.01c.54-.01,1.02-.16,1.45-.45"/>
    <path d="M1105.5,1228.57h-1.69l-.67-.3,2.36-1.95v-1.23l-3.05,2.48-1.95-2.26v1.29l2.16,1.96h-4.66,7.5ZM1105.5,1218.57v-.31c-.22.12-.46.21-.7.25-.25.04-.83.07-1.75.07h-1.32c-.44,0-.74.02-.91.05-.27.06-.49.16-.67.31-.18.15-.33.38-.44.69-.12.31-.18.72-.18,1.23s.07.95.21,1.33c.14.38.33.68.59.88.26.2.59.35,1,.44l.13-.98c-.42-.11-.7-.27-.87-.5-.16-.22-.25-.57-.25-1.04,0-.5.11-.88.34-1.14.16-.19.45-.28.85-.28.03,0,.12,0,.26,0,.13.38.25.97.34,1.78.05.4.09.69.15.89.07.27.18.5.32.72.14.21.33.38.57.52.24.13.5.2.78.2.49,0,.89-.17,1.2-.52.31-.35.47-.84.47-1.49,0-.39-.07-.76-.19-1.1-.13-.34-.35-.7-.66-1.07.27-.03.51-.1.72-.2M1103.55,1221.07c.44,0,.77.05.99.16.29.14.52.36.68.66.17.3.25.64.25,1.02s-.09.69-.27.89c-.18.2-.4.3-.66.3-.18,0-.33-.05-.47-.14-.14-.09-.25-.22-.33-.39-.07-.17-.14-.46-.2-.87-.1-.73-.23-1.27-.38-1.63h.36Z"/>
    <path d="M1105.5,1218.57h-1.69l-.67-2.45,2.37-1.95v-1.23l-3.05,2.48-1.95-2.25v1.29l2.16,4.11h-4.66,7.5ZM1105.27,1208.01c0,.15-.03.26-.07.34-.05.08-.11.14-.19.17-.08.03-.26.05-.55.05h-3.97v2.5h2.5-4.76l.59,2.5h5.58c.59,0,.98-.04,1.17-.12.18-.08.33-.22.45-.42.11-.2.17-.48.17-.84,0-.22-.03-.47-.09-.76l-.88.14c.03.18.04.33.04.44"/>
    <path d="M1118,1266.07h-5v-5h2.5v5h-5v-5h0v5h7.5ZM1118.14,1258.8c.43-.28.74-.67.96-1.17.21-.5.32-1.11.32-1.85,0-.58-.1-1.11-.31-1.57-.21-.46-.51-.82-.89-1.07-.38-.25-.79-.37-1.22-.37s-.81.11-1.14.34c-.33.23-.61.58-.83,1.05-.14.33-.32.93-.51,1.8-.2.88-.39,1.42-.57,1.63-.19.21-.43.31-.72.31-.33,0-.62-.15-.85-.45-.23-.3-.35-.77-.35-1.42s.13-1.1.39-1.42c.26-.32.64-.51,1.15-.56l-.08-1.03c-.47.02-.9.15-1.27.4-.38.25-.66.6-.85,1.07-.19.46-.29.99-.29,1.59,0,.55.09,1.05.27,1.49.19.45.45.79.81,1.02.35.24.73.35,1.14.35.37,0,.7-.1,1-.29.3-.19.55-.48.75-.87.16-.3.32-.83.5-1.57.18-.74.31-1.23.39-1.45.13-.34.29-.59.48-.73.19-.15.41-.22.66-.22s.48.07.69.23c.21.15.38.39.5.7.12.31.18.68.18,1.09,0,.46-.08.88-.24,1.25-.16.37-.37.64-.63.82-.26.17-.59.29-.99.34l.09,1.01c.54-.01,1.02-.16,1.45-.45"/>
    <path d="M1113,1248.57h0v-5h0v5ZM1115.5,1248.57h0v-5h0v5Z"/>
    <polygon points="1118 1238.57 1113 1238.57 1113 1233.57 1115.5 1233.57 1115.5 1238.57 1110.5 1238.57 1110.5 1233.57 1110.5 1233.57 1110.5 1238.57 1118 1238.57 1118 1238.57"/>
    <path d="M1118.63,1230.94c.53-.51.79-1.18.79-2,0-.51-.12-.99-.36-1.42-.24-.43-.57-.76-1-.99-.43-.23-1.02-.34-1.77-.34-.92,0-1.65.26-2.18.77-.53.52-.79,1.18-.79,1.99,0,.73.22,1.35.65,1.85.52.61,1.32.91,2.4.91.98,0,1.74-.25,2.26-.76M1114.69,1230.18c-.37-.33-.55-.74-.55-1.24s.18-.9.56-1.23c.37-.33.92-.5,1.64-.5.77,0,1.34.16,1.71.49.38.33.56.74.56,1.24s-.19.91-.56,1.24c-.37.33-.93.49-1.68.49s-1.31-.16-1.68-.49M1118,1223.57h-1.77s-.81.64-1.16.53c-.23-.07-.41-.2-.54-.37-.13-.18-.2-.37-.2-.59,0-.24.07-.49.21-.73l-.92-.34c-.21.35-.32.69-.32,1.03,0,.23.07.45.2.64.13.19.41.4.82,2.34h-1.33v-2.5h5Z"/>
    <path d="M1117.2,1218.12c.19.26.29.57.29.94,0,.49-.17.9-.51,1.23-.34.33-.83.51-1.48.55v-4.4c-.11,0-.2,0-.26,0-.96,0-1.71.25-2.24.75-.53.5-.8,1.14-.8,1.93s.27,1.47.81,1.98c.54.51,1.31.77,2.29.77s1.69-.25,2.21-.76c.53-.5.79-1.19.79-2.05,0-.68-.16-1.25-.49-1.69-.33-.44-.79-.74-1.39-.9l-.13,1.03c.42.15.72.36.91.62M1114.28,1220.27c-.31-.31-.46-.7-.46-1.16,0-.51.19-.92.57-1.24.25-.21.61-.33,1.1-.38v3.29c-.51-.03-.91-.21-1.22-.52M1118.95,1214.76c.31-.4.47-.98.47-1.75,0-.46-.08-.88-.24-1.24-.16-.37-.38-.65-.67-.84-.29-.19-.6-.29-.93-.29s-.62.08-.84.24c-.23.16-.4.38-.52.66-.12.28-.27.77-.46,1.48-.13.49-.22.78-.25.88-.07.17-.16.3-.26.38-.1.08-.22.12-.35.12-.2,0-.38-.1-.53-.3-.15-.19-.23-.52-.23-.98,0-.39.08-.69.25-.9.17-.21.4-.34.7-.38l-.13-.97c-.38.06-.68.18-.9.34-.23.17-.4.42-.54.77-.13.35-.2.76-.2,1.22,0,.31.04.59.12.87.08.27.18.48.29.63.14.21.33.37.55.49.22.12.46.18.72.18.29,0,.55-.07.79-.22.23-.15.42-.36.55-.64s.29-.79.48-1.52c.14-.55.25-.88.33-1.02.13-.2.31-.29.53-.29.25,0,.47.11.65.33.19.22.28.56.28,1.02s-.1.81-.31,1.06c-.21.25-.51.41-.9.46l.16.99c.62-.11,1.09-.37,1.4-.77M1110.5,1208.57h7.5v2.5h-7.5v-2.5ZM1120.5,1201.07v-.32c-.22.13-.46.21-.7.25-.24.04-.82.06-1.74.06h-1.32c-.44,0-.75.02-.91.05-.27.06-.5.17-.67.31-.18.15-.33.38-.44.69-.12.31-.18.72-.18,1.23s.07.95.2,1.34c.14.38.33.68.59.88.25.21.59.35,1,.44l.13-.98c-.41-.11-.7-.27-.86-.5-.17-.22-.25-.57-.25-1.04,0-.5.11-.88.33-1.14.17-.19.45-.28.85-.28.04,0,.12,0,.26,0,.13.38.24.97.34,1.78.05.4.1.69.15.89.07.27.18.5.32.72.14.21.33.38.57.52.23.13.5.2.78.2.49,0,.89-.17,1.2-.52s.47-.84.47-1.49c0-.39-.06-.76-.19-1.1-.13-.34-.35-.7-.66-1.07.28-.03.51-.1.72-.2M1116.72,1203.57c.44,0,.77.06.99.16.29.14.52.36.68.66.16.3.25.64.25,1.03s-.09.69-.26.89c-.18.2-.4.3-.66.3-.17,0-.33-.04-.47-.14-.14-.09-.25-.22-.32-.39-.08-.17-.14-.46-.2-.87-.1-.72-.22-1.27-.37-1.63h.36ZM1112.67,1205.07c.2-.19.29-.43.29-.71s-.1-.5-.29-.7c-.19-.2-.43-.3-.71-.3s-.52.1-.71.3c-.2.2-.29.43-.29.7s.1.5.29.7.42.3.69.3c.29,0,.54-.1.74-.3M1111.52,1204.77c-.11-.12-.18-.26-.18-.41s.06-.3.18-.42c.12-.11.26-.17.42-.17s.31.06.42.17c.12.12.18.25.18.42s-.06.29-.18.41c-.12.12-.26.17-.44.17-.16,0-.3-.06-.42-.17M1117.2,1196.91c.19.26.29.57.29.94,0,.49-.17.9-.51,1.23-.34.33-.83.51-1.48.55v-4.4c-.11,0-.2,0-.26,0-.96,0-1.71.25-2.24.75-.53.5-.8,1.15-.8,1.93s.27,1.48.81,1.98c.54.51,1.31.76,2.29.76s1.69-.25,2.21-.76c.53-.5.79-1.19.79-2.05,0-.68-.16-1.25-.49-1.69-.33-.44-.79-.74-1.39-.9l-.13,1.03c.42.15.72.36.91.61M1114.28,1199.06c-.31-.31-.46-.7-.46-1.16,0-.51.19-.92.57-1.24.25-.21.61-.33,1.1-.38v3.29c-.51-.03-.91-.21-1.22-.52"/>
    <path d="M1118.44,1190.51c0,.15-.02.26-.07.34-.05.08-.11.14-.19.17-.08.03-.26.05-.55.05h-4.63,2.5-4.09l.59,2.5h1v2.5h2.5v-2.5h2.07c.59,0,.98-.04,1.17-.12.19-.08.33-.22.45-.42.12-.2.17-.48.17-.84,0-.22-.03-.47-.09-.75l-.88.14c.03.18.04.33.04.44M1118.94,1187.43c.32-.4.47-.98.47-1.75,0-.46-.08-.88-.24-1.25-.16-.37-.38-.65-.68-.84-.29-.2-.6-.29-.93-.29s-.62.08-.85.24c-.23.16-.4.38-.52.66-.12.28-.27.77-.46,1.48-.14.49-.22.78-.25.88-.07.17-.16.3-.27.38-.1.08-.21.12-.35.12-.2,0-.38-.1-.53-.3s-.23-.52-.23-.98c0-.39.08-.69.25-.9.17-.21.4-.34.7-.38l-.13-.98c-.38.06-.68.18-.9.34-.22.17-.4.43-.54.78-.13.35-.2.76-.2,1.22,0,.31.04.59.12.86.08.27.18.48.29.63.15.21.33.37.55.49.22.12.46.18.72.18.28,0,.55-.07.78-.22.23-.14.42-.36.55-.65.13-.28.29-.79.48-1.52.14-.54.25-.88.34-1.02.13-.19.31-.29.53-.29.25,0,.47.11.65.33.19.22.28.56.28,1.02s-.1.81-.32,1.06c-.21.25-.51.41-.9.46l.15.99c.62-.11,1.09-.36,1.4-.77"/>
    <path d="M1118,1181.07h-1.03l-.67-1.07,1.7-1.95v-1.23l-2.39,2.48-2.61-2.25v1.29l2.82,2.73h-5.32v2.5h7.5v-2.5ZM1120.5,1171.07v-.31c-.22.12-.46.21-.7.25-.25.04-.83.07-1.75.07h-1.32c-.44,0-.74.02-.91.05-.27.06-.5.16-.67.31-.18.15-.33.38-.45.69-.12.31-.18.72-.18,1.23s.07.95.21,1.33.33.68.59.88c.25.2.59.35,1,.44l.13-.98c-.41-.11-.7-.27-.86-.5-.16-.22-.25-.57-.25-1.04,0-.5.11-.88.33-1.14.17-.19.45-.28.85-.28.04,0,.13,0,.26,0,.14.38.25.97.35,1.78.05.4.09.69.15.89.07.27.18.5.32.72.14.21.33.38.57.52.23.13.49.2.78.2.49,0,.89-.17,1.2-.52.31-.35.47-.84.47-1.49,0-.39-.07-.76-.2-1.1-.13-.34-.35-.7-.66-1.07.27-.03.51-.1.72-.2M1116.72,1171.07c.44,0,.77.05.99.16.29.14.52.36.68.66.17.3.25.64.25,1.02s-.09.69-.27.89c-.18.2-.4.3-.66.3-.17,0-.33-.05-.47-.14-.14-.09-.25-.22-.32-.39-.07-.17-.14-.46-.2-.87-.1-.73-.23-1.27-.38-1.63h.36Z"/>
    <path d="M1118.55,1168.57c.58.01.86-.53.86-1.23s-.27-1.3-.82-1.8c-.55-.5-1.32-.75-2.32-.75-.42,0-.82.06-1.19.18-.37.12-.68.28-.95.49-.26.21-.47.48-.61.8-.14.32-.22.67-.22,1.03,0,.65.79,1.28.79,1.28h-3.6,8.05ZM1114.69,1168.51c-.38-.32-.56-.69-.56-1.13s.18-.8.54-1.11c.36-.31.93-.46,1.69-.46s1.3.16,1.68.48c.38.32.56.69.56,1.13,0,.54-.25.96-.76,1.27-.31.19-.82.29-1.52.29s-1.25-.16-1.63-.48"/>
    <path d="M1118.25,858.17c.56-.45.83-1.06.83-1.85,0-.6-.16-1.09-.48-1.48-.31-.39-.76-.68-1.35-.88-.58-.2-1.34-.29-2.29-.29-.8,0-1.44.06-1.91.18-.47.12-.87.29-1.2.5-.33.21-.58.49-.76.81-.18.33-.26.71-.26,1.15,0,.59.16,1.08.47,1.47.31.39.76.69,1.34.88.58.2,1.35.29,2.3.29,1.51,0,2.6-.27,3.27-.8M1112.25,857.44c-.39-.28-.58-.64-.58-1.1s.22-.85.65-1.17c.44-.31,1.32-.47,2.65-.47s2.2.16,2.64.47c.44.31.66.7.66,1.16s-.22.84-.65,1.16c-.44.31-1.32.47-2.64.47s-2.23-.17-2.72-.52M1120.5,704.48c-2.68-.11-2.86-.25-3.04-.42-.18-.17-.52-.55-1.02-1.15-.6-.72-1.07-1.23-1.42-1.54-.35-.31-.67-.53-.98-.66-.31-.13-.63-.2-.95-.2-.64,0-1.17.23-1.6.68-.43.46-.64,1.07-.64,1.86s.2,1.39.6,1.85c.4.46.97.73,1.73.8l.1-1.03c-.5,0-.9-.15-1.19-.44-.29-.29-.43-.68-.43-1.16,0-.46.14-.83.4-1.11.27-.28.6-.43.99-.43s.77.16,1.19.47c.42.31.99.91,1.71,1.79.46.57.87,1.01,1.22,1.31.35.3.71.52,1.07.66.22.08.45.12-.26.11v-4.79h2.5v3.41Z"/>
    <path d="M1118,701.07h-2.08s-.94-2.74-1.22-2.84c-.29-.11-.5-.28-.64-.52-.15-.24-.22-.5-.22-.78,0-.37.11-.64.33-.8.22-.16.55-.24.99-.06h2.85-3.4c-.6,0-1.04-.14-1.32-.41-.27-.28-.41-.62-.41-1.04,0-.23.06-.43.16-.6.11-.17.25-.29.42-.35.18-.07.46-.1.86-.1h3.69v-2.5h-3.06c-.66.33-1.16.49-1.48.8-.32.31-.48.76-.48,1.35,0,.75.34,1.35,1.02,1.82-.32.11-.57.31-.75.59-.18.28-.27.64-.27,1.07,0,.39.08.74.26,1.05.17.31.41.55.69.82h-.93,5v2.5Z"/>
    <path d="M1110.5,778.57v1.34s1.06.47,1.43.89c.37.42.68.9.94.27h.96c-.11.89-.29.53-.51.14-.23-.39-.68,2.36-.68,2.36h5.36v-5h-7.5ZM1118,776.07h-3.02c-.53,0-.94-.05-1.22-.16-.28-.11-.5-.28-.64-.52-.15-.24-.22-.5-.22-.78,0-.37.11-.63.33-.8.22-.16.55-.24.99-.24h3.79v-2.5h-3.4c-.6,0-1.04-.14-1.32-.41-.27-.28-.41-.62-.41-1.04,0-.23.06-.43.16-.6.11-.17.25-.29.42-.35.18-.07.46-.1.86-.1h3.69-3.06c-.66-.21-1.16-.06-1.48.26-.32.31-.48.76-.48,1.35,0,.75.34,1.35,1.02,1.82-.32.11-.57.31-.75.59-.18.28-.27.64-.27,1.07,0,.39.08.74.26,1.05.17.31.41.55.69,1.36h-.93v-2.5h5v2.5Z"/>
    <path d="M1118,953.57h-5.91l5.91-1.83v-.97l-5.8-4.7h5.8v2.5h-7.5v.25l6,1.94c.57.2,1,.34,1.29.44-.27.08-.66.21-1.19.39l-6.1,1.92v.06h7.5ZM1118,941.07v-.32c-.23.13-.46.21-.7.25-.24.04-.83.06-1.74.06h-1.32c-.44,0-.74.02-.91.05-.27.06-.49.16-.67.31-.18.15-.33.38-.44.69-.12.31-.18.72-.18,1.23s.07.95.2,1.34c.14.39.34.68.59.88.25.21.59.35,1,.44l.13-.98c-.42-.11-.7-.27-.87-.49-.16-.22-.25-.57-.25-1.04,0-.5.11-.88.34-1.14.16-.19.45-.28.85-.28.03,0,.12,0,.26,0,.13.38.24.97.34,1.78.05.4.1.69.15.89.08.26.18.5.33.72.14.21.33.38.57.51.24.13.5.2.78.2.49,0,.89-.18,1.2-.52.32-.35.47-.85.47-1.49,0-.39-.07-.76-.19-1.1-.13-.34-.35-.7-.66-1.07.27-.03.51-.1.72-.2M1116.38,943.57c.44,0,.77.06.99.16.29.14.52.36.69.66.16.3.25.64.25,1.03s-.09.68-.26.88c-.18.2-.39.3-.66.3-.17,0-.33-.05-.47-.14-.14-.09-.25-.22-.32-.39-.07-.17-.14-.46-.2-.87-.1-.72-.23-1.27-.37-1.63h.36ZM1112.33,944.45c.2-.2.29-.43.29-.71s-.09-.5-.29-.7c-.19-.2-.43-.29-.71-.29s-.52.1-.71.29c-.2.2-.29.43-.29.7s.1.5.29.7c.2.2.42.3.69.3.29,0,.54-.1.73-.29M1111.18,944.14c-.12-.12-.17-.26-.17-.41s.06-.3.17-.42c.12-.11.26-.17.42-.17s.31.06.43.18c.11.12.17.25.17.42s-.06.29-.17.41c-.12.12-.26.18-.44.18-.16,0-.3-.06-.42-.18"/>
    <rect x="1110.5" y="938.57" width="7.5" height="2.5"/>
    <path d="M1110.5,931.07v.06s1.07.47,1.43.89c.37.42.68.91.95,1.56h.96c-.11-.4-.29-.75-.51-1.14-.23-.39-.68-3.86-.68-3.86h5.36v2.5h-7.5ZM1115.5,926.07h-2.5v2.5h2.5v-2.5ZM1120.5,926.07h-2.5v2.5h2.5v-2.5Z"/>
    <path d="M1118.47,923.99c.41-.47.61-1.07.61-1.81,0-.9-.32-1.61-.98-2.14-.53-.43-1.16-.64-1.89-.64s-1.39.24-1.88.73c-.49.49-.73,1.09-.73,1.8,0,.54.17,1.05.5,1.54l-3.61-.44v-4.46h0v5.26l4.64.79.12-.94c-.23-.15-.42-.35-.57-.61-.14-.26-.21-.55-.21-.87,0-.52.16-.94.49-1.26.33-.32.77-.48,1.33-.48.59,0,1.07.17,1.43.5.36.33.54.74.54,1.22,0,.4-.13.74-.38,1.03-.25.28-.63.46-1.14.54l.09,1.05c.68-.07,1.22-.34,1.63-.8M1118.25,917.58c.56-.45.83-1.06.83-1.85,0-.6-.16-1.09-.47-1.48-.32-.39-.77-.68-1.35-.88-.58-.2-1.34-.3-2.29-.3-.8,0-1.43.06-1.9.18-.47.12-.87.29-1.2.51-.33.21-.58.49-.76.82-.18.33-.26.71-.26,1.15,0,.59.16,1.08.47,1.47.31.39.76.68,1.34.88.58.2,1.35.3,2.3.3,1.51,0,2.6-.27,3.27-.81M1112.25,916.84c-.38-.27-.58-.64-.58-1.1s.22-.86.66-1.17,1.32-.47,2.64-.47,2.2.15,2.64.47c.44.31.66.7.66,1.16s-.22.84-.66,1.16c-.44.31-1.32.47-2.64.47s-2.23-.17-2.72-.51"/>
    <polygon class="st13" points="1118.95 567.15 1096.33 556.01 1103.08 541.5 1126.03 552.64 1118.95 567.15"/>
    <polygon points="1116.2 561.41 1104.85 555.91 1119.88 553.79 1120.83 551.83 1106.39 544.84 1105.5 546.67 1116.84 552.16 1101.82 554.29 1100.87 556.25 1115.31 563.25 1116.2 561.41"/>
    <path d="M1118.46,625.27c.42-.47.63-1.07.63-1.78,0-.79-.25-1.45-.74-1.97-.49-.52-1.08-.77-1.79-.77-.52,0-.95.13-1.3.4-.35.27-.58.64-.68,1.12-.17-.37-.4-.65-.68-.84-.29-.19-.61-.28-.95-.28-.36,0-.71.1-1.04.3-.32.2-.58.49-.77.86-.19.37-.28.78-.28,1.22,0,.64.18,1.18.55,1.62.36.43.88.71,1.54.83l.18-1c-.48-.07-.85-.24-1.09-.5s-.36-.58-.36-.97.12-.71.36-.96c.24-.25.54-.37.9-.37.46,0,.79.17,1.02.51.22.34.33.72.33,1.15,0,.04,0,.09,0,.16l.87.11c-.07-.28-.11-.52-.11-.7,0-.47.15-.85.44-1.15s.67-.45,1.13-.45.87.16,1.2.48c.32.33.48.72.48,1.19,0,.4-.12.73-.37,1.01-.25.28-.65.47-1.21.59l.13,1c.67-.07,1.22-.34,1.64-.8M1118,621.07h-2.08s-.94-2.39-1.22-2.5c-.29-.1-.5-.28-.64-.52-.15-.24-.22-.5-.22-.78,0-.37.11-.63.33-.8.22-.16.55-.24.99-.41h2.85-3.4c-.6,0-1.04-.14-1.32-.41-.27-.28-.41-.62-.41-1.04,0-.23.06-.43.16-.6.11-.17.25-.29.42-.35.18-.07.46-.1.86-.1h3.69v-2.5h-3.06c-.66.68-1.16.83-1.48,1.15-.32.31-.48.76-.48,1.35,0,.75.34,1.35,1.02,1.82-.32.11-.57.31-.75.59-.18.28-.27.64-.27,1.07,0,.39.08.74.26,1.05.17.31.41.55.69.47h-.93,5v2.5Z"/>
    <rect class="st13" x="40.5" y="983.57" width="20" height="312.5"/>
    <path d="M43,1288.57v.96s1.38.7,1.93,1.32c.55.62,1.02,1.35,1.41,2.72h1.43c-.17-1.01-.42-1.53-.76-2.11-.34-.58-1.02-.39-1.02-.39h9.51v-2.5h-12.5ZM53,1283.57h2.5v-2.5h-2.5v2.5ZM53.69,1279.25c.64-.42,1.12-1,1.43-1.74.32-.73.47-1.65.47-2.74,0-.86-.16-1.64-.47-2.33-.31-.69-.76-1.22-1.32-1.59-.57-.37-1.17-.55-1.81-.55s-1.21.17-1.71.5c-.49.33-.9.85-1.22,1.56-.22.48-.48,1.37-.77,2.67-.29,1.3-.58,2.1-.86,2.4-.28.31-.64.47-1.07.47-.5,0-.92-.22-1.28-.66-.35-.44-.53-1.14-.53-2.11s.19-1.63.58-2.1c.39-.48.96-.76,1.72-.84l-.11-1.53c-.71.03-1.34.23-1.89.59-.56.37-.98.89-1.27,1.58-.29.68-.43,1.47-.43,2.36,0,.81.14,1.55.41,2.22.27.66.68,1.17,1.2,1.51.53.35,1.09.52,1.7.52.55,0,1.05-.14,1.5-.42.45-.28.82-.71,1.12-1.29.23-.44.49-1.22.75-2.33.27-1.11.46-1.82.59-2.15.19-.5.43-.87.71-1.08.28-.22.61-.33.99-.33s.72.12,1.03.34c.31.23.56.57.74,1.04.18.47.27,1.01.27,1.61,0,.69-.12,1.31-.36,1.85-.24.55-.55.95-.93,1.22-.38.26-.88.43-1.48.5l.13,1.5c.8-.02,1.52-.24,2.16-.66M55.5,1261.07v-.47c-.33.18-.68.31-1.05.37-.36.07-1.23.1-2.6.1h-1.97c-.66,0-1.11.02-1.36.07-.4.09-.74.24-1.01.46-.26.22-.48.56-.66,1.03-.18.47-.27,1.07-.27,1.82s.1,1.41.31,1.98c.21.57.5,1.01.88,1.31.38.3.88.52,1.5.65l.2-1.45c-.62-.16-1.05-.41-1.29-.74-.24-.33-.36-.85-.36-1.54,0-.75.17-1.31.5-1.69.25-.28.67-.42,1.27-.42.06,0,.19,0,.39,0,.2.56.37,1.45.51,2.64.07.59.14,1.03.22,1.32.11.39.27.75.48,1.06.21.32.5.57.85.76.35.2.74.29,1.17.29.73,0,1.33-.26,1.8-.77.46-.52.7-1.25.7-2.22,0-.58-.09-1.12-.29-1.63-.19-.51-.52-1.03-.98-1.58.41-.04.77-.14,1.07-.3M51.57,1263.57c.65,0,1.14.08,1.47.24.43.21.77.54,1.02.98.25.45.37.95.37,1.53s-.13,1.01-.39,1.31c-.26.3-.59.45-.98.45-.26,0-.49-.07-.7-.21-.21-.14-.37-.33-.48-.58-.11-.25-.21-.68-.3-1.29-.15-1.08-.34-1.88-.56-2.42h.54ZM43,1256.07h12.5v2.5h-12.5v-2.5ZM45.5,1253.57h2.5v2.5h-2.5v-2.5ZM53,1253.57h2.5v2.5h-2.5v-2.5ZM44.12,1239.3c-.53.61-.79,1.38-.79,2.33,0,1.27.46,2.29,1.38,3.04,1.05.86,2.74,1.29,5.07,1.29,2.08,0,3.57-.39,4.47-1.17.9-.78,1.36-1.79,1.36-3.02,0-.72-.17-1.37-.52-1.94-.35-.57-.84-1.02-1.49-1.34-.65-.33-1.35-.49-2.11-.49-1.15,0-2.08.35-2.81,1.04-.73.69-1.09,1.53-1.09,2.52,0,.56.13,1.11.39,1.62.26.52.66.95,1.2,1.31-1.2,0-2.13-.15-2.78-.42-.65-.27-1.15-.63-1.48-1.1-.26-.36-.39-.77-.39-1.24,0-.59.21-1.08.63-1.48.26-.24.68-.43,1.26-.56l-.12-1.47c-.93.12-1.67.49-2.2,1.09M49.62,1243.56c-.48-.47-.72-1.04-.72-1.71s.24-1.23.72-1.68c.48-.45,1.13-.67,1.96-.67s1.55.23,2.05.67c.5.45.76.99.76,1.61,0,.43-.12.84-.37,1.23-.24.39-.6.69-1.06.91-.47.21-.95.33-1.46.33-.77,0-1.4-.24-1.88-.7M53,1236.07h2.5v-2.5h-2.5v2.5ZM55.5,1226.47c0-.77-.07-1.42-.21-1.95-.14-.53-.35-.97-.62-1.32-.27-.35-.66-.64-1.16-.89-.5-.24-1.05-.36-1.63-.36-.73,0-1.36.2-1.89.59s-.91.95-1.14,1.68c-.29-.56-.67-.99-1.14-1.27-.47-.28-.98-.42-1.51-.42-.57,0-1.13.16-1.65.47-.53.32-.91.75-1.17,1.31-.25.56-.38,1.3-.38,2.22v4.53h12.5v-4.6ZM45.5,1228.57v-1.41c-.71-.87-.65-1.48-.54-1.84.11-.36.32-.63.62-.82.3-.19.66-.29,1.05-.29.42,0,.77.1,1.05.31.28.21.48.51.6.92.09.31.14.81-.28,1.52v1.61h-2.5ZM50.5,1228.57v-1.79c-.66-.77-.59-1.36-.46-1.77.13-.41.37-.73.7-.96s.72-.35,1.17-.35c.38,0,.72.08,1.01.24.29.16.52.36.67.61.16.25.26.56.33.92.04.21.06.57,1.58,1.09v2h-5ZM53,1218.57h2.5v2.5h-2.5v-2.5ZM43,1211.07v-.05s1.38.69,1.93,1.32c.55.62,1.02,1.34,1.41,1.23h1.43c-.17.48-.42-.04-.76-.62-.34-.58-1.02-4.38-1.02-4.38h9.51v2.5h-12.5ZM53,1206.07h2.5v-2.5h-2.5v2.5ZM45.5,1195.16c1.01.92,2.3,1.79,3.87,2.59.72.37,1.49.67,2.26.91,1.54.47,2.82.71,3.86.73v-1.39c-1.26-.08-2.42-.26-3.48-.54-1.5-.4-2.96-.96-4.39-1.68-1.42-.72-2.56-1.45-3.42-2.19h-1.21v7.5h2.5v-5.91ZM55.5,1190.37c.39.01.78.1,1.04.25.27.15.47.38.6.69l.63-.41c-.21-.48-.5-.83-.88-1.04-.38-.22-.88-.33-1.5-1.28h-2.4v2.5h2.5v-.7ZM44.12,1175.91c-.53.61-.79,1.39-.79,2.33,0,1.27.46,2.29,1.38,3.04,1.05.86,2.74,1.29,5.07,1.29,2.08,0,3.57-.39,4.47-1.17.9-.78,1.36-1.78,1.36-3.02,0-.73-.17-1.37-.52-1.94-.35-.57-.84-1.02-1.49-1.34-.65-.33-1.35-.49-2.11-.49-1.15,0-2.08.35-2.81,1.04-.73.69-1.09,1.54-1.09,2.52,0,.56.13,1.11.39,1.62.26.52.66.95,1.2,1.31-1.2-.01-2.13-.15-2.78-.42-.65-.27-1.15-.64-1.48-1.1-.26-.36-.39-.77-.39-1.25,0-.59.21-1.08.63-1.48.26-.24.68-.43,1.26-.56l-.12-1.47c-.93.12-1.67.48-2.2,1.09M49.62,1180.17c-.48-.47-.72-1.04-.72-1.7s.24-1.24.72-1.68c.48-.45,1.13-.67,1.96-.67s1.55.23,2.05.68c.5.45.76.99.76,1.61,0,.43-.12.84-.37,1.23-.24.39-.6.69-1.06.91-.47.22-.95.33-1.46.33-.77,0-1.4-.24-1.88-.7M53,1171.07h2.5v2.5h-2.5v-2.5ZM55.5,1163.97c0-.77-.07-1.42-.21-1.95-.14-.53-.35-.97-.62-1.32-.27-.35-.66-.64-1.16-.89-.5-.24-1.05-.36-1.63-.36-.73,0-1.36.2-1.89.59s-.91.96-1.14,1.68c-.29-.56-.67-.99-1.14-1.27-.47-.28-.98-.42-1.51-.42-.57,0-1.13.16-1.65.47-.53.31-.91.75-1.17,1.31-.25.56-.38,1.3-.38,2.22v4.52h12.5v-4.6ZM45.5,1166.07v-2.3c-.71-.87-.65-1.48-.54-1.84.11-.35.32-.63.62-.82.3-.19.66-.29,1.05-.29.42,0,.77.1,1.05.31.28.21.48.51.6.92.09.31.14.82-.28,1.52v2.5h-2.5ZM50.5,1166.07v-2.68c-.66-.77-.59-1.36-.46-1.77.13-.41.37-.73.7-.96.33-.23.72-.35,1.17-.35.38,0,.72.08,1.01.24.29.16.52.36.67.61.16.25.26.56.33.92.04.21.06.57,1.58,1.09v2.89h-5ZM53,1156.07h2.5v-2.5h-2.5v2.5ZM43,1146.07v1.56s1.38.7,1.93,1.32,1.02,1.34,1.41,2.12h1.43c-.17-.41-.42-.93-.76-1.51-.34-.58-1.02-.99-1.02-.99h9.51v-2.5h-12.5ZM53,1141.07h2.5v2.5h-2.5v-2.5ZM54.82,1136.76c.52-.6.78-1.37.78-2.31,0-.89-.24-1.67-.71-2.32-.48-.66-1.17-1.16-2.08-1.5-.91-.34-2.14-.5-3.67-.5s-2.6.17-3.38.51c-.78.34-1.38.83-1.8,1.48-.42.65-.63,1.37-.63,2.15,0,1.09.37,1.99,1.12,2.71.74.72,1.73,1.08,2.94,1.08s2.13-.35,2.85-1.04c.72-.69,1.08-1.54,1.08-2.53,0-.6-.15-1.15-.44-1.67-.29-.51-.67-.92-1.14-1.21.13,0,.23,0,.29,0,.61,0,1.21.07,1.8.22.59.15,1.06.33,1.41.55.35.22.62.5.83.84.21.35.31.74.31,1.2,0,.53-.15.97-.45,1.31-.3.34-.79.57-1.45.69l.13,1.42c.95-.12,1.68-.48,2.2-1.08M49.3,1132.44c.48.44.72,1,.72,1.69s-.24,1.25-.72,1.72c-.48.46-1.1.69-1.86.69-.86,0-1.55-.24-2.09-.73-.53-.49-.8-1.06-.8-1.72s.25-1.18.74-1.63c.5-.45,1.17-.68,2.02-.68s1.51.22,1.99.66M55.5,1126.98c.39.02.78.1,1.04.25.27.15.47.38.6.69l.63-.41c-.21-.48-.5-.83-.88-1.05-.38-.22-.88-.33-1.5-.39h-2.4v2.5h2.5v-1.59Z"/>
    <path d="M44.12,1112.05c-.53.6-.79,1.38-.79,2.33,0,1.27.46,2.28,1.38,3.04,1.05.86,2.75,1.29,5.07,1.29,2.08,0,3.57-.39,4.47-1.17.91-.78,1.36-1.79,1.36-3.02,0-.73-.17-1.37-.51-1.94s-.84-1.02-1.49-1.35c-.65-.32-1.35-.49-2.1-.49-1.15,0-2.08.35-2.81,1.04-.72.69-1.09,1.53-1.09,2.52,0,.56.13,1.1.39,1.62.26.52.66.95,1.21,1.31-1.2,0-2.13-.15-2.78-.42-.65-.27-1.15-.63-1.48-1.1-.26-.36-.39-.77-.39-1.24,0-.59.21-1.08.63-1.48.26-.24.68-.43,1.26-.56l-.11-1.48c-.94.12-1.67.49-2.2,1.09M49.62,1116.31c-.48-.47-.72-1.04-.72-1.71s.24-1.23.72-1.68c.48-.44,1.13-.67,1.96-.67s1.55.22,2.05.68c.5.45.76.99.76,1.61,0,.43-.12.83-.36,1.23-.25.39-.6.69-1.06.91-.46.22-.95.32-1.46.32-.78,0-1.41-.23-1.88-.7M53,1108.57h2.5v-2.5h-2.5v2.5Z"/>
    <path d="M55.5,1098.97c0-.77-.07-1.42-.21-1.95-.14-.53-.35-.97-.62-1.32-.27-.35-.66-.64-1.16-.88-.5-.24-1.05-.36-1.63-.36-.73,0-1.36.2-1.89.59-.53.39-.91.95-1.13,1.68-.29-.56-.67-.99-1.14-1.27s-.97-.42-1.51-.42c-.58,0-1.13.16-1.65.47-.53.32-.91.75-1.17,1.31-.25.56-.38,1.29-.38,2.22v4.53h12.5v-4.6ZM45.5,1103.57v-3.65c-.71-.87-.65-1.48-.54-1.84.12-.36.32-.63.62-.82.31-.19.65-.29,1.05-.29.42,0,.77.1,1.05.31.28.21.48.51.6.92.09.31.14.82-.28,1.53v3.84h-2.5ZM50.5,1103.57v-4.02c-.66-.77-.59-1.36-.46-1.76.14-.41.37-.73.7-.96.33-.23.72-.35,1.17-.35.38,0,.72.08,1.01.24.29.16.51.36.67.61.16.25.27.56.33.92.04.21.06.57,1.58,1.09v4.24h-5ZM53,1093.57h2.5v-2.5h-2.5v2.5Z"/>
    <path d="M43,1086.07v-2.09s1.38.7,1.93,1.32c.55.62,1.02,1.34,1.41.77h1.43c-.17.94-.42.42-.77-.16-.34-.58-1.02-2.34-1.02-2.34h9.51v2.5h-12.5ZM53,1078.57h2.5v-2.5h-2.5v2.5Z"/>
    <path d="M43,1068.57v.9s1.38.69,1.93,1.32,1.02,1.34,1.41,2.79h1.43c-.17-1.08-.42-1.6-.76-2.18-.34-.58-1.02-.32-1.02-.32h9.51v-2.5h-12.5ZM43,1058.57v1.47s1.38.7,1.93,1.32,1.02,1.35,1.41,2.21h1.43c-.17-.5-.42-1.02-.76-1.6-.34-.58-1.02-.9-1.02-.9h9.51v-2.5h-12.5ZM55.5,1053.6c.39.02.78.1,1.04.25.26.15.47.38.6.69l.63-.41c-.21-.48-.5-.83-.88-1.04-.38-.22-.88-.33-1.5.49h-2.4v2.5h2.5v-2.47ZM44.12,1039.18c-.53.61-.79,1.38-.79,2.33,0,1.27.46,2.29,1.38,3.04,1.05.86,2.74,1.29,5.07,1.29,2.08,0,3.57-.39,4.48-1.17.91-.78,1.36-1.79,1.36-3.02,0-.72-.17-1.37-.51-1.94-.35-.57-.84-1.02-1.49-1.35-.65-.33-1.35-.49-2.1-.49-1.15,0-2.08.35-2.81,1.04-.72.69-1.08,1.53-1.08,2.53,0,.56.13,1.1.39,1.62.26.52.66.95,1.21,1.31-1.2,0-2.13-.15-2.78-.42-.65-.27-1.15-.64-1.48-1.1-.26-.36-.4-.77-.4-1.25,0-.59.21-1.08.63-1.48.26-.24.69-.43,1.27-.56l-.12-1.47c-.94.12-1.67.48-2.2,1.09M49.62,1043.43c-.48-.47-.72-1.03-.72-1.7s.24-1.24.72-1.68c.48-.45,1.13-.67,1.96-.67s1.55.23,2.05.68c.5.45.76.99.76,1.61,0,.43-.12.83-.37,1.23-.24.39-.6.69-1.06.91-.47.22-.95.33-1.46.33-.78,0-1.4-.23-1.88-.7M53,1036.07h2.5v-2.5h-2.5v2.5ZM55.5,1026.47c0-.77-.07-1.42-.21-1.94-.14-.53-.35-.97-.62-1.32-.27-.35-.66-.64-1.16-.88-.5-.24-1.05-.36-1.63-.36-.73,0-1.36.2-1.89.59-.53.4-.91.96-1.13,1.68-.29-.56-.67-.99-1.14-1.27s-.97-.42-1.51-.42c-.58,0-1.13.16-1.65.47-.52.31-.91.75-1.17,1.31-.25.56-.38,1.3-.38,2.22v4.53h12.5v-4.6ZM45.5,1028.57v-1.5c-.71-.87-.65-1.48-.54-1.84.11-.35.32-.63.62-.82.31-.19.66-.29,1.05-.29.42,0,.77.1,1.05.31s.48.51.6.92c.09.3.14.81-.28,1.52v1.7h-2.5ZM50.5,1028.57v-1.88c-.66-.77-.59-1.36-.46-1.76.13-.41.37-.73.7-.96.33-.23.72-.35,1.17-.35.38,0,.72.08,1.02.24.29.16.51.36.67.61.16.25.27.56.33.92.04.21.06.57,1.58,1.09v2.09h-5ZM53,1018.57h2.5v2.5h-2.5v-2.5ZM43,1011.07v-.11s1.38.69,1.93,1.32,1.02,1.34,1.41,1.29h1.43c-.17.42-.42-.1-.76-.68-.34-.58-1.02-4.32-1.02-4.32h9.51v2.5h-12.5ZM53,1006.07h2.5v-2.5h-2.5v2.5ZM43,996.07v.73s1.38.69,1.93,1.32c.55.62,1.02,1.34,1.41,2.95h1.43c-.17-1.24-.42-1.76-.76-2.34-.34-.58-1.02-.16-1.02-.16h9.51v-2.5h-12.5Z"/>
    <path d="M54.67,990.53c.63-.7.94-1.58.94-2.64,0-1.18-.37-2.15-1.1-2.91-.73-.77-1.62-1.16-2.67-1.16-.78,0-1.43.2-1.94.6-.51.4-.86.95-1.02,1.66-.25-.55-.59-.96-1.02-1.24-.43-.28-.9-.42-1.42-.42-.55,0-1.06.14-1.55.44-.49.29-.87.72-1.15,1.27-.28.56-.42,1.16-.42,1.82,0,.96.27,1.75.82,2.39.54.64,1.31,1.05,2.3,1.24l.26-1.48c-.72-.11-1.26-.36-1.63-.74-.36-.39-.54-.87-.54-1.44s.18-1.06.53-1.43c.35-.37.8-.55,1.34-.55.68,0,1.19.26,1.52.76.33.5.49,1.07.49,1.7,0,.06,0,.14-.02.24l1.3.16c-.11-.42-.17-.76-.17-1.04,0-.69.22-1.25.66-1.69.44-.45,1-.67,1.68-.67.71,0,1.31.24,1.79.72.48.48.72,1.07.72,1.77,0,.58-.19,1.09-.55,1.49-.37.41-.97.7-1.81.87l.2,1.48c1-.1,1.82-.5,2.45-1.2"/>
    <rect class="st13" x="60.5" y="983.57" width="20" height="312.5"/>
    <path d="M75.5,1292.29c.15-.17-.12-.37-.38-.62-.27-.25-.77-.82-1.51-1.71-.9-1.06-1.6-1.83-2.12-2.29-.51-.46-1-.79-1.47-.98-.46-.2-.94-.3-1.42-.3-.94,0-1.74.34-2.38,1.01-.64.67-.96,1.59-.96,2.75s.3,2.06.89,2.74c.59.68,1.45,1.07,2.59,1.18l.16-1.52c-.76,0-1.35-.22-1.77-.65-.43-.43-.64-1-.64-1.71,0-.67.2-1.22.6-1.64.4-.42.89-.63,1.48-.63s1.15.23,1.78.69c.63.46,1.48,1.35,2.55,2.66.69.85,1.3,1.49,1.82,1.94.52.45,1.06.77,1.6.97.33.13.67.18,1.69.17v-8.28h-2.5v6.22ZM75.5,1283.57h2.5v-2.5h-2.5v2.5ZM75.63,1279.25c.64-.42,1.12-1,1.43-1.74.32-.73.47-1.65.47-2.74,0-.86-.16-1.64-.47-2.33-.31-.69-.76-1.22-1.32-1.59-.57-.37-1.17-.55-1.81-.55s-1.21.17-1.71.5c-.49.33-.9.85-1.22,1.56-.22.48-.48,1.37-.77,2.67-.29,1.3-.58,2.1-.86,2.4-.28.31-.64.47-1.07.47-.5,0-.92-.22-1.28-.66-.35-.44-.53-1.14-.53-2.11s.19-1.63.58-2.1c.39-.48.96-.76,1.72-.84l-.12-1.53c-.7.03-1.33.23-1.89.59-.56.37-.98.89-1.26,1.58-.29.68-.43,1.47-.43,2.36,0,.81.14,1.55.41,2.22.27.66.68,1.17,1.2,1.51.53.35,1.09.52,1.7.52.55,0,1.05-.14,1.5-.42.45-.28.82-.71,1.12-1.29.23-.44.49-1.22.75-2.33.26-1.11.46-1.82.59-2.15.19-.5.43-.87.71-1.08.28-.22.61-.33.99-.33s.72.12,1.03.34c.31.23.56.57.74,1.04.18.47.27,1.01.27,1.61,0,.69-.12,1.31-.36,1.85-.24.55-.55.95-.93,1.22-.38.26-.88.43-1.48.5l.13,1.5c.81-.02,1.53-.24,2.16-.66M78,1261.07v-.47c-.33.18-.68.31-1.05.37-.36.07-1.23.1-2.6.1h-1.97c-.66,0-1.11.02-1.36.07-.4.09-.74.24-1.01.46-.26.22-.48.56-.66,1.03-.18.47-.26,1.07-.26,1.82s.1,1.41.31,1.98c.21.57.5,1.01.88,1.31.38.3.88.52,1.5.65l.2-1.45c-.62-.16-1.05-.41-1.29-.74-.24-.33-.36-.85-.36-1.54,0-.75.17-1.31.5-1.69.25-.28.67-.42,1.27-.42.06,0,.18,0,.39,0,.2.56.37,1.45.51,2.64.07.59.14,1.03.22,1.32.11.39.27.75.48,1.06.21.32.5.57.85.76.35.2.74.29,1.17.29.73,0,1.33-.26,1.79-.77.47-.52.7-1.25.7-2.22,0-.58-.1-1.12-.29-1.63-.19-.51-.52-1.03-.98-1.58.41-.04.77-.14,1.07-.3M73.51,1263.57c.65,0,1.14.08,1.47.24.43.21.77.54,1.02.98.25.45.37.95.37,1.53s-.13,1.01-.39,1.31c-.26.3-.59.45-.99.45-.26,0-.49-.07-.7-.21-.21-.14-.37-.33-.48-.58-.11-.25-.21-.68-.3-1.29-.15-1.08-.34-1.88-.56-2.42h.54ZM65.5,1256.07h12.5v2.5h-12.5v-2.5ZM68,1253.57h2.5v2.5h-2.5v-2.5ZM75.5,1253.57h2.5v2.5h-2.5v-2.5ZM66.06,1239.3c-.53.61-.79,1.38-.79,2.33,0,1.27.46,2.29,1.38,3.04,1.05.86,2.74,1.29,5.07,1.29,2.08,0,3.57-.39,4.47-1.17.9-.78,1.36-1.79,1.36-3.02,0-.72-.17-1.37-.52-1.94-.35-.57-.84-1.02-1.49-1.34-.65-.33-1.35-.49-2.11-.49-1.15,0-2.08.35-2.81,1.04-.73.69-1.09,1.53-1.09,2.52,0,.56.13,1.11.39,1.62.27.52.67.95,1.21,1.31-1.2,0-2.13-.15-2.78-.42-.65-.27-1.15-.63-1.48-1.1-.26-.36-.39-.77-.39-1.24,0-.59.21-1.08.63-1.48.26-.24.68-.43,1.26-.56l-.12-1.47c-.94.12-1.67.49-2.2,1.09M71.56,1243.56c-.48-.47-.72-1.04-.72-1.71s.24-1.23.72-1.68c.48-.45,1.13-.67,1.97-.67s1.55.23,2.05.67c.5.45.76.99.76,1.61,0,.43-.12.84-.37,1.23-.24.39-.6.69-1.06.91-.47.21-.95.33-1.46.33-.77,0-1.4-.24-1.88-.7M75.5,1236.07h2.5v-2.5h-2.5v2.5ZM78,1226.47c0-.77-.07-1.42-.21-1.95-.14-.53-.35-.97-.62-1.32-.27-.35-.66-.64-1.16-.89-.5-.24-1.05-.36-1.63-.36-.73,0-1.36.2-1.89.59-.54.39-.91.95-1.14,1.68-.29-.56-.67-.99-1.14-1.27-.47-.28-.97-.42-1.51-.42-.57,0-1.12.16-1.65.47-.53.32-.91.75-1.17,1.31-.25.56-.38,1.3-.38,2.22v4.53h12.5v-4.6ZM68,1228.57v-1.41c-1.27-.87-1.21-1.48-1.1-1.84.11-.36.32-.63.62-.82.3-.19.66-.29,1.05-.29.42,0,.77.1,1.05.31.28.21.48.51.6.92.09.31.14.81.28,1.52v1.61h-2.5ZM70.5,1228.57v-1.79c1.28-.77,1.35-1.36,1.48-1.77.13-.41.37-.73.7-.96.33-.23.72-.35,1.17-.35.38,0,.72.08,1.01.24.29.16.52.36.67.61.16.25.26.56.33.92.04.21.06.57-.36,1.09v2h-5ZM75.5,1218.57h2.5v2.5h-2.5v-2.5ZM75.5,1213.78c.15-.17-.12-.38-.38-.62-.27-.25-.77-.82-1.51-1.71-.9-1.07-1.6-1.83-2.12-2.29-.51-.46-1-.79-1.47-.98-.46-.2-.94-.29-1.42-.29-.94,0-1.74.34-2.38,1.01-.64.67-.96,1.59-.96,2.75s.3,2.06.89,2.74,1.45,1.08,2.59,1.18l.16-1.52c-.76,0-1.35-.22-1.77-.65-.43-.43-.64-1-.64-1.71,0-.68.2-1.22.6-1.64.4-.42.89-.63,1.48-.63s1.15.23,1.78.69c.63.46,1.48,1.35,2.55,2.66.69.84,1.3,1.49,1.82,1.94.52.44,1.06.77,1.6.97.33.13.67.19,1.69.17v-7.26h-2.5v5.21ZM75.5,1206.07h2.5v-2.5h-2.5v2.5ZM68,1195.16c1.01.92,2.3,1.79,3.87,2.59.72.37,1.49.67,2.26.91,1.54.47,2.82.71,3.86.73v-1.39c-1.26-.08-2.42-.26-3.48-.54-1.5-.4-2.96-.96-4.39-1.68-1.42-.72-2.56-1.45-3.42-2.19h-1.21v7.5h2.5v-5.91ZM78,1190.37c-.17.01.22.1.48.25.27.15.47.38.61.69l.63-.41c-.21-.48-.5-.83-.88-1.04-.38-.22-.88-.33-1.5-1.28h-1.84v2.5h2.5v-.7ZM66.06,1175.91c-.53.61-.79,1.39-.79,2.33,0,1.27.46,2.29,1.38,3.04,1.05.86,2.74,1.29,5.07,1.29,2.08,0,3.57-.39,4.47-1.17.9-.78,1.36-1.78,1.36-3.02,0-.73-.17-1.37-.52-1.94-.35-.57-.84-1.02-1.49-1.34-.65-.33-1.35-.49-2.11-.49-1.15,0-2.08.35-2.81,1.04-.73.69-1.09,1.54-1.09,2.52,0,.56.13,1.11.39,1.62.27.52.67.95,1.21,1.31-1.2-.01-2.13-.15-2.78-.42-.65-.27-1.15-.64-1.48-1.1-.26-.36-.39-.77-.39-1.25,0-.59.21-1.08.63-1.48.26-.24.68-.43,1.26-.56l-.12-1.47c-.94.12-1.67.48-2.2,1.09M71.56,1180.17c-.48-.47-.72-1.04-.72-1.7s.24-1.24.72-1.68c.48-.45,1.13-.67,1.97-.67s1.55.23,2.05.68c.5.45.76.99.76,1.61,0,.43-.12.84-.37,1.23-.24.39-.6.69-1.06.91-.47.22-.95.33-1.46.33-.77,0-1.4-.24-1.88-.7M75.5,1171.07h2.5v2.5h-2.5v-2.5ZM78,1163.97c0-.77-.07-1.42-.21-1.95-.14-.53-.35-.97-.62-1.32-.27-.35-.66-.64-1.16-.89-.5-.24-1.05-.36-1.63-.36-.73,0-1.36.2-1.89.59-.54.39-.91.96-1.14,1.68-.29-.56-.67-.99-1.14-1.27-.47-.28-.97-.42-1.51-.42-.57,0-1.12.16-1.65.47-.53.31-.91.75-1.17,1.31-.25.56-.38,1.3-.38,2.22v4.52h12.5v-4.6ZM68,1166.07v-2.3c-1.27-.87-1.21-1.48-1.1-1.84.11-.35.32-.63.62-.82.3-.19.66-.29,1.05-.29.42,0,.77.1,1.05.31.28.21.48.51.6.92.09.31.14.82.28,1.52v2.5h-2.5ZM70.5,1166.07v-2.68c1.28-.77,1.35-1.36,1.48-1.77.13-.41.37-.73.7-.96.33-.23.72-.35,1.17-.35.38,0,.72.08,1.01.24.29.16.52.36.67.61.16.25.26.56.33.92.04.21.06.57-.36,1.09v2.89h-5ZM75.5,1156.07h2.5v-2.5h-2.5v2.5ZM75.5,1150.39c.15-.16-.12-.37-.38-.62-.27-.25-.77-.83-1.51-1.72-.9-1.06-1.6-1.82-2.12-2.28-.51-.46-1-.78-1.47-.98-.46-.2-.94-.3-1.42-.3-.94,0-1.74.34-2.38,1.01-.64.67-.96,1.59-.96,2.75s.3,2.06.89,2.74c.59.68,1.45,1.07,2.59,1.18l.16-1.52c-.76,0-1.35-.22-1.77-.65-.43-.43-.64-1-.64-1.71,0-.68.2-1.22.6-1.64.4-.42.89-.63,1.48-.63s1.15.23,1.78.69c.63.46,1.48,1.35,2.55,2.66.69.84,1.3,1.49,1.82,1.94.52.45,1.06.77,1.6.97.33.13.67.18,1.69.17v-8.87h-2.5v6.82ZM75.5,1141.07h2.5v2.5h-2.5v-2.5ZM76.76,1136.76c.52-.6.78-1.37.78-2.31,0-.89-.24-1.67-.71-2.32-.48-.66-1.17-1.16-2.08-1.5-.91-.34-2.14-.5-3.67-.5s-2.6.17-3.38.51c-.78.34-1.38.83-1.8,1.48-.42.65-.63,1.37-.63,2.15,0,1.09.37,1.99,1.12,2.71.74.72,1.73,1.08,2.94,1.08s2.13-.35,2.85-1.04c.72-.69,1.08-1.54,1.08-2.53,0-.6-.15-1.15-.44-1.67-.29-.51-.67-.92-1.14-1.21.13,0,.23,0,.29,0,.61,0,1.21.07,1.8.22.59.15,1.06.33,1.41.55.35.22.62.5.83.84.21.35.31.74.31,1.2,0,.53-.15.97-.45,1.31-.3.34-.79.57-1.45.69l.13,1.42c.95-.12,1.68-.48,2.2-1.08M71.24,1132.44c.48.44.72,1,.72,1.69s-.24,1.25-.72,1.72-1.1.69-1.86.69c-.86,0-1.55-.24-2.09-.73-.53-.49-.8-1.06-.8-1.72s.25-1.18.74-1.63c.5-.45,1.17-.68,2.02-.68s1.51.22,1.99.66M78,1126.98c-.17.02.22.1.48.25.27.15.47.38.61.69l.63-.41c-.21-.48-.5-.83-.88-1.05-.38-.22-.88-.33-1.5-.39h-1.84v2.5h2.5v-1.59Z"/>
    <path d="M66.06,1112.05c-.53.6-.79,1.38-.79,2.33,0,1.27.46,2.28,1.38,3.04,1.05.86,2.75,1.29,5.07,1.29,2.08,0,3.57-.39,4.47-1.17s1.36-1.79,1.36-3.02c0-.73-.17-1.37-.52-1.94-.34-.57-.84-1.02-1.49-1.35-.65-.32-1.35-.49-2.1-.49-1.15,0-2.09.35-2.81,1.04-.72.69-1.09,1.53-1.09,2.52,0,.56.13,1.1.4,1.62.26.52.66.95,1.2,1.31-1.2,0-2.13-.15-2.78-.42-.65-.27-1.15-.63-1.48-1.1-.26-.36-.4-.77-.4-1.24,0-.59.21-1.08.63-1.48.26-.24.68-.43,1.26-.56l-.12-1.48c-.93.12-1.67.49-2.2,1.09M71.56,1116.31c-.48-.47-.72-1.04-.72-1.71s.24-1.23.72-1.68c.48-.44,1.13-.67,1.96-.67s1.55.22,2.05.68c.51.45.76.99.76,1.61,0,.43-.12.83-.36,1.23-.24.39-.59.69-1.06.91-.46.22-.95.32-1.46.32-.77,0-1.4-.23-1.88-.7M75.5,1108.57h2.5v-2.5h-2.5v2.5Z"/>
    <path d="M78,1098.97c0-.77-.07-1.42-.21-1.95-.14-.53-.34-.97-.62-1.32-.27-.35-.66-.64-1.16-.88-.5-.24-1.05-.36-1.63-.36-.73,0-1.36.2-1.89.59-.54.39-.91.95-1.13,1.68-.29-.56-.67-.99-1.14-1.27s-.97-.42-1.51-.42c-.57,0-1.13.16-1.65.47-.52.32-.92.75-1.17,1.31-.25.56-.38,1.29-.38,2.22v4.53h12.5v-4.6ZM68,1103.57v-3.65c-1.27-.87-1.21-1.48-1.1-1.84.11-.36.32-.63.62-.82.3-.19.65-.29,1.05-.29.42,0,.77.1,1.05.31.28.21.48.51.6.92.09.31.14.82.28,1.53v3.84h-2.5ZM70.5,1103.57v-4.02c1.28-.77,1.35-1.36,1.48-1.76.13-.41.37-.73.7-.96.33-.23.72-.35,1.17-.35.38,0,.72.08,1.02.24.29.16.51.36.67.61.15.25.26.56.33.92.04.21.06.57-.36,1.09v4.24h-5ZM75.5,1093.57h2.5v-2.5h-2.5v2.5Z"/>
    <path d="M75.5,1086.74c.15-.17-.12-.37-.38-.62-.26-.25-.77-.83-1.51-1.71-.9-1.06-1.6-1.82-2.12-2.29-.51-.46-1-.78-1.47-.98-.46-.2-.94-.3-1.42-.3-.94,0-1.74.34-2.38,1.01-.64.68-.96,1.59-.96,2.75s.29,2.06.89,2.74c.59.68,1.46,1.07,2.59,1.18l.16-1.52c-.76,0-1.35-.22-1.77-.65-.43-.43-.64-1-.64-1.71,0-.68.2-1.22.6-1.64.4-.42.89-.63,1.48-.63s1.15.23,1.78.69c.63.46,1.48,1.35,2.55,2.66.69.84,1.3,1.49,1.82,1.94.53.45,1.06.77,1.6.97.33.12.67.18,1.69.17v-7.72h-2.5v5.67ZM75.5,1078.57h2.5v-2.5h-2.5v2.5Z"/>
    <path d="M65.5,1068.57v.9s.81.69,1.37,1.32,1.02,1.34,1.41,2.79h1.43c-.17-1.08-.42-1.6-.76-2.18-.34-.58-1.02-.32-1.02-.32h10.07v-2.5h-12.5ZM65.5,1058.57v1.47s.81.7,1.37,1.32,1.02,1.35,1.41,2.21h1.43c-.17-.5-.42-1.02-.76-1.6-.34-.58-1.02-.9-1.02-.9h10.07v-2.5h-12.5ZM78,1053.6c-.17.02.21.1.48.25.26.15.46.38.6.69l.63-.41c-.21-.48-.5-.83-.88-1.04-.38-.22-.88-.33-1.5.49h-1.83v2.5h2.5v-2.47ZM66.05,1039.18c-.53.61-.79,1.38-.79,2.33,0,1.27.46,2.29,1.38,3.04,1.05.86,2.74,1.29,5.07,1.29,2.08,0,3.57-.39,4.48-1.17.91-.78,1.36-1.79,1.36-3.02,0-.72-.17-1.37-.51-1.94-.35-.57-.84-1.02-1.49-1.35-.65-.33-1.35-.49-2.1-.49-1.15,0-2.08.35-2.81,1.04-.72.69-1.08,1.53-1.08,2.53,0,.56.13,1.1.39,1.62.26.52.66.95,1.2,1.31-1.2,0-2.13-.15-2.78-.42-.65-.27-1.15-.64-1.48-1.1-.26-.36-.4-.77-.4-1.25,0-.59.21-1.08.63-1.48.26-.24.68-.43,1.26-.56l-.11-1.47c-.94.12-1.67.48-2.2,1.09M71.56,1043.43c-.48-.47-.72-1.03-.72-1.7s.24-1.24.72-1.68c.48-.45,1.13-.67,1.96-.67s1.55.23,2.05.68c.5.45.76.99.76,1.61,0,.43-.12.83-.37,1.23-.24.39-.6.69-1.06.91-.47.22-.95.33-1.46.33-.77,0-1.4-.23-1.88-.7M75.5,1036.07h2.5v-2.5h-2.5v2.5ZM78,1026.47c0-.77-.07-1.42-.21-1.94-.14-.53-.35-.97-.62-1.32-.27-.35-.66-.64-1.16-.88-.5-.24-1.05-.36-1.63-.36-.73,0-1.36.2-1.89.59-.53.4-.91.96-1.13,1.68-.29-.56-.67-.99-1.14-1.27s-.97-.42-1.51-.42c-.57,0-1.13.16-1.65.47-.52.31-.91.75-1.17,1.31-.25.56-.38,1.3-.38,2.22v4.53h12.5v-4.6ZM68,1028.57v-1.5c-1.27-.87-1.22-1.48-1.1-1.84.11-.35.32-.63.62-.82.31-.19.66-.29,1.05-.29.42,0,.77.1,1.05.31.28.21.48.51.6.92.09.3.14.81.28,1.52v1.7h-2.5ZM70.5,1028.57v-1.88c1.28-.77,1.35-1.36,1.48-1.76.13-.41.37-.73.7-.96.33-.23.72-.35,1.17-.35.38,0,.72.08,1.01.24.29.16.51.36.67.61.16.25.27.56.33.92.04.21.06.57-.36,1.09v2.09h-5ZM75.5,1018.57h2.5v2.5h-2.5v-2.5ZM75.5,1013.72c.15-.16-.12-.37-.39-.62-.26-.25-.77-.82-1.51-1.71-.9-1.06-1.6-1.82-2.12-2.28-.51-.46-1-.79-1.47-.98-.46-.2-.94-.3-1.42-.3-.95,0-1.74.34-2.38,1.01-.64.67-.96,1.59-.96,2.75s.3,2.06.89,2.74c.59.68,1.45,1.07,2.59,1.18l.16-1.52c-.76,0-1.35-.23-1.77-.65-.43-.43-.64-1-.64-1.71,0-.68.2-1.22.6-1.64s.9-.63,1.48-.63c.55,0,1.15.23,1.78.69.62.46,1.47,1.35,2.55,2.66.69.84,1.3,1.49,1.82,1.94.52.45,1.06.77,1.6.97.33.13.67.19,1.69.17v-7.2h-2.5v5.15ZM75.5,1006.07h2.5v-2.5h-2.5v2.5ZM65.5,996.07v.73s.81.69,1.37,1.32c.55.62,1.02,1.34,1.41,2.95h1.43c-.17-1.24-.42-1.76-.76-2.34-.34-.58-1.02-.16-1.02-.16h10.07v-2.5h-12.5Z"/>
    <path d="M76.61,990.53c.63-.7.94-1.58.94-2.64,0-1.18-.36-2.15-1.09-2.91-.73-.77-1.62-1.16-2.67-1.16-.78,0-1.42.2-1.94.6-.52.4-.86.95-1.02,1.66-.25-.55-.59-.96-1.02-1.24-.42-.28-.9-.42-1.42-.42-.55,0-1.06.14-1.55.44-.49.29-.87.72-1.15,1.27-.28.56-.42,1.16-.42,1.82,0,.96.27,1.75.82,2.39.54.64,1.31,1.05,2.3,1.24l.27-1.48c-.72-.11-1.26-.36-1.63-.74-.36-.39-.54-.87-.54-1.44s.18-1.06.53-1.43c.35-.37.8-.55,1.34-.55.68,0,1.19.26,1.52.76.33.5.49,1.07.49,1.7,0,.06,0,.14-.02.24l1.3.16c-.11-.42-.17-.76-.17-1.04,0-.69.22-1.25.66-1.69.44-.45,1-.67,1.68-.67.71,0,1.31.24,1.79.72.48.48.72,1.07.72,1.77,0,.58-.19,1.09-.55,1.49-.37.41-.97.7-1.81.87l.2,1.48c1-.1,1.82-.5,2.45-1.2"/>
    <rect class="st13" x="83" y="983.57" width="20" height="312.5"/>
    <path d="M98.21,1292.95c.63-.7.94-1.58.94-2.64,0-1.18-.37-2.15-1.1-2.92-.73-.77-1.62-1.15-2.67-1.15-.78,0-1.43.2-1.94.59-.51.39-.86.95-1.02,1.66-.25-.55-.59-.96-1.02-1.24-.43-.28-.9-.42-1.42-.42-.55,0-1.06.14-1.55.44-.49.29-.87.72-1.15,1.27-.28.55-.42,1.16-.42,1.82,0,.95.27,1.75.81,2.4.55.64,1.31,1.05,2.3,1.23l.26-1.48c-.72-.11-1.26-.36-1.62-.74-.36-.38-.54-.87-.54-1.44s.18-1.06.53-1.42c.35-.37.8-.55,1.34-.55.68,0,1.19.25,1.52.76.33.5.49,1.07.49,1.7,0,.06,0,.14-.02.24l1.3.17c-.11-.42-.17-.77-.17-1.05,0-.69.22-1.25.66-1.7.44-.44,1-.66,1.68-.66s1.3.24,1.79.72c.48.48.72,1.07.72,1.77,0,.59-.19,1.08-.55,1.49-.37.41-.97.7-1.81.87l.2,1.48c1-.1,1.82-.5,2.45-1.2M100.5,1283.57h-2.5v-2.5h2.5v2.5ZM97.23,1279.25c.64-.42,1.12-1,1.43-1.74.32-.73.47-1.65.47-2.74,0-.86-.16-1.64-.47-2.33-.31-.69-.76-1.22-1.32-1.59-.57-.37-1.17-.55-1.81-.55s-1.21.17-1.71.5c-.49.33-.9.85-1.22,1.56-.22.48-.48,1.37-.77,2.67-.29,1.3-.58,2.1-.86,2.4-.28.31-.64.47-1.07.47-.5,0-.92-.22-1.28-.66-.35-.44-.53-1.14-.53-2.11s.19-1.63.58-2.1c.39-.48.96-.76,1.72-.84l-.11-1.53c-.71.03-1.34.23-1.9.59-.55.37-.98.89-1.26,1.58-.29.68-.43,1.47-.43,2.36,0,.81.14,1.55.41,2.22.27.66.68,1.17,1.2,1.51.53.35,1.09.52,1.7.52.55,0,1.05-.14,1.5-.42.45-.28.82-.71,1.12-1.29.23-.44.49-1.22.75-2.33.26-1.11.46-1.82.59-2.15.19-.5.43-.87.71-1.08.28-.22.61-.33.99-.33s.72.12,1.03.34c.31.23.56.57.74,1.04.18.47.27,1.01.27,1.61,0,.69-.12,1.31-.36,1.85-.24.55-.55.95-.93,1.22-.38.26-.88.43-1.48.5l.13,1.5c.8-.02,1.52-.24,2.16-.66M98,1261.07v-.47c-.33.18-.68.31-1.05.37-.36.07-1.23.1-2.6.1h-1.97c-.66,0-1.11.02-1.36.07-.4.09-.74.24-1.01.46-.26.22-.48.56-.66,1.03-.18.47-.27,1.07-.27,1.82s.1,1.41.31,1.98c.21.57.5,1.01.88,1.31.38.3.88.52,1.5.65l.2-1.45c-.62-.16-1.05-.41-1.29-.74-.24-.33-.36-.85-.36-1.54,0-.75.17-1.31.5-1.69.25-.28.67-.42,1.27-.42.06,0,.19,0,.39,0,.2.56.37,1.45.51,2.64.07.59.14,1.03.22,1.32.11.39.27.75.48,1.06.21.32.5.57.85.76.35.2.74.29,1.17.29.73,0,1.33-.26,1.8-.77.46-.52.7-1.25.7-2.22,0-.58-.09-1.12-.29-1.63-.19-.51-.52-1.03-.98-1.58.41-.04.77-.14,1.07-.3M95.11,1263.57c.65,0,1.14.08,1.47.24.43.21.77.54,1.02.98.25.45.37.95.37,1.53s-.13,1.01-.39,1.31c-.26.3-.59.45-.98.45-.26,0-.49-.07-.7-.21-.21-.14-.37-.33-.48-.58-.11-.25-.21-.68-.3-1.29-.15-1.08-.34-1.88-.56-2.42h.54ZM85.5,1256.07h12.5v2.5h-12.5v-2.5ZM90.5,1253.57h2.5v2.5h-2.5v-2.5ZM100.5,1253.57h-2.5v2.5h2.5v-2.5ZM87.66,1239.3c-.53.61-.79,1.38-.79,2.33,0,1.27.46,2.29,1.38,3.04,1.05.86,2.74,1.29,5.07,1.29,2.08,0,3.57-.39,4.47-1.17.9-.78,1.36-1.79,1.36-3.02,0-.72-.17-1.37-.52-1.94-.35-.57-.84-1.02-1.49-1.34-.65-.33-1.35-.49-2.11-.49-1.15,0-2.08.35-2.81,1.04-.73.69-1.09,1.53-1.09,2.52,0,.56.13,1.11.39,1.62.27.52.67.95,1.21,1.31-1.2,0-2.13-.15-2.78-.42-.65-.27-1.15-.63-1.48-1.1-.26-.36-.39-.77-.39-1.24,0-.59.21-1.08.63-1.48.26-.24.68-.43,1.26-.56l-.12-1.47c-.93.12-1.67.49-2.2,1.09M93.16,1243.56c-.48-.47-.72-1.04-.72-1.71s.24-1.23.72-1.68c.48-.45,1.14-.67,1.97-.67s1.55.23,2.05.67c.5.45.76.99.76,1.61,0,.43-.12.84-.37,1.23-.24.39-.6.69-1.06.91-.47.21-.95.33-1.46.33-.77,0-1.4-.24-1.88-.7M100.5,1236.07h-2.5v-2.5h2.5v2.5ZM98,1226.47c0-.77-.07-1.42-.21-1.95-.14-.53-.35-.97-.62-1.32-.27-.35-.66-.64-1.16-.89-.5-.24-1.05-.36-1.63-.36-.73,0-1.36.2-1.89.59s-.91.95-1.14,1.68c-.29-.56-.67-.99-1.14-1.27-.47-.28-.97-.42-1.51-.42-.57,0-1.13.16-1.65.47-.53.32-.91.75-1.17,1.31-.25.56-.38,1.3-.38,2.22v4.53h12.5v-4.6ZM88,1228.57v-1.41c.33-.87.39-1.48.5-1.84.11-.36.32-.63.62-.82.3-.19.66-.29,1.05-.29.42,0,.77.1,1.05.31.28.21.48.51.6.92.09.31.14.81-1.32,1.52v1.61h-2.5ZM93,1228.57v-1.79c.38-.77.45-1.36.58-1.77.13-.41.37-.73.7-.96s.72-.35,1.17-.35c.38,0,.72.08,1.01.24.29.16.52.36.67.61.16.25.26.56.33.92.04.21.06.57.54,1.09v2h-5ZM100.5,1218.57h-2.5v2.5h2.5v-2.5ZM98.21,1214.44c.63-.7.94-1.58.94-2.64,0-1.18-.37-2.15-1.1-2.92-.73-.77-1.62-1.15-2.67-1.15-.78,0-1.43.2-1.94.59-.51.4-.86.95-1.02,1.66-.25-.55-.59-.96-1.02-1.24-.43-.28-.9-.42-1.42-.42-.55,0-1.06.15-1.55.44-.49.29-.87.72-1.15,1.27-.28.56-.42,1.16-.42,1.82,0,.95.27,1.75.81,2.39.55.64,1.31,1.05,2.3,1.24l.26-1.48c-.72-.11-1.26-.36-1.62-.74-.36-.38-.54-.87-.54-1.44s.18-1.06.53-1.43c.35-.37.8-.55,1.34-.55.68,0,1.19.25,1.52.76.33.51.49,1.07.49,1.71,0,.06,0,.14-.02.24l1.3.16c-.11-.42-.17-.76-.17-1.04,0-.69.22-1.25.66-1.7.44-.45,1-.67,1.68-.67s1.3.24,1.79.72c.48.48.72,1.07.72,1.76,0,.59-.19,1.09-.55,1.5-.37.41-.97.7-1.81.87l.2,1.48c1-.1,1.82-.5,2.45-1.2M100.5,1206.07h-2.5v-2.5h2.5v2.5ZM88,1195.45c1.34.75,2.39,1.46,3.63,2.13,1.24.67,2.53,1.18,3.88,1.53,1.34.36,4.99.56,4.99.56v-1.68c-1.26-.08-2.42-.26-3.48-.54-1.5-.4-2.96-.96-4.39-1.68-1.42-.72-2.56-1.45-3.42-2.19h-1.21v7.5h0v-5.63ZM100.5,1190.37c-1.07.01-.68.1-.42.25.27.15.47.38.6.69l.63-.41c-.21-.48-.5-.83-.88-1.04-.38-.22-.88-.33-1.5-1.28h-.94v2.5h2.5v-.7ZM87.66,1175.91c-.53.61-.79,1.39-.79,2.33,0,1.27.46,2.29,1.38,3.04,1.05.86,2.74,1.29,5.07,1.29,2.08,0,3.57-.39,4.47-1.17.9-.78,1.36-1.78,1.36-3.02,0-.73-.17-1.37-.52-1.94-.35-.57-.84-1.02-1.49-1.34-.65-.33-1.35-.49-2.11-.49-1.15,0-2.08.35-2.81,1.04-.73.69-1.09,1.54-1.09,2.52,0,.56.13,1.11.39,1.62.27.52.67.95,1.21,1.31-1.2-.01-2.13-.15-2.78-.42-.65-.27-1.15-.64-1.48-1.1-.26-.36-.39-.77-.39-1.25,0-.59.21-1.08.63-1.48.26-.24.68-.43,1.26-.56l-.12-1.47c-.93.12-1.67.48-2.2,1.09M93.16,1180.17c-.48-.47-.72-1.04-.72-1.7s.24-1.24.72-1.68c.48-.45,1.14-.67,1.97-.67s1.55.23,2.05.68c.5.45.76.99.76,1.61,0,.43-.12.84-.37,1.23-.24.39-.6.69-1.06.91-.47.22-.95.33-1.46.33-.77,0-1.4-.24-1.88-.7M100.5,1171.07h-2.5v2.5h2.5v-2.5ZM98,1163.97c0-.77-.07-1.42-.21-1.95-.14-.53-.35-.97-.62-1.32-.27-.35-.66-.64-1.16-.89-.5-.24-1.05-.36-1.63-.36-.73,0-1.36.2-1.89.59s-.91.96-1.14,1.68c-.29-.56-.67-.99-1.14-1.27-.47-.28-.97-.42-1.51-.42-.57,0-1.13.16-1.65.47-.53.31-.91.75-1.17,1.31-.25.56-.38,1.3-.38,2.22v4.52h12.5v-4.6ZM88,1166.07v-2.3c.33-.87.39-1.48.5-1.84.11-.35.32-.63.62-.82.3-.19.66-.29,1.05-.29.42,0,.77.1,1.05.31.28.21.48.51.6.92.09.31.14.82-1.32,1.52v2.5h-2.5ZM93,1166.07v-2.68c.38-.77.45-1.36.58-1.77.13-.41.37-.73.7-.96.33-.23.72-.35,1.17-.35.38,0,.72.08,1.01.24.29.16.52.36.67.61.16.25.26.56.33.92.04.21.06.57.54,1.09v2.89h-5ZM100.5,1156.07h-2.5v-2.5h2.5v2.5ZM98.21,1151.05c.63-.7.94-1.58.94-2.64,0-1.18-.37-2.15-1.1-2.92-.73-.77-1.62-1.15-2.67-1.15-.78,0-1.43.2-1.94.59-.51.39-.86.95-1.02,1.66-.25-.55-.59-.97-1.02-1.25-.43-.28-.9-.42-1.42-.42-.55,0-1.06.14-1.55.44-.49.29-.87.72-1.15,1.27-.28.56-.42,1.16-.42,1.82,0,.96.27,1.75.81,2.39.55.64,1.31,1.05,2.3,1.24l.26-1.48c-.72-.11-1.26-.36-1.62-.74-.36-.39-.54-.87-.54-1.44s.18-1.06.53-1.43c.35-.37.8-.55,1.34-.55.68,0,1.19.26,1.52.76.33.51.49,1.07.49,1.71,0,.06,0,.14-.02.24l1.3.16c-.11-.42-.17-.76-.17-1.04,0-.69.22-1.25.66-1.69.44-.45,1-.67,1.68-.67s1.3.24,1.79.72c.48.48.72,1.07.72,1.76,0,.59-.19,1.09-.55,1.5-.37.41-.97.7-1.81.87l.2,1.48c1-.1,1.82-.5,2.45-1.2M100.5,1141.07h-2.5v2.5h2.5v-2.5ZM98.36,1136.76c.52-.6.78-1.37.78-2.31,0-.89-.24-1.67-.71-2.32-.48-.66-1.17-1.16-2.08-1.5-.91-.34-2.14-.5-3.67-.5s-2.6.17-3.38.51c-.78.34-1.38.83-1.8,1.48-.42.65-.63,1.37-.63,2.15,0,1.09.37,1.99,1.12,2.71.74.72,1.73,1.08,2.94,1.08s2.13-.35,2.85-1.04c.72-.69,1.08-1.54,1.08-2.53,0-.6-.15-1.15-.44-1.67-.29-.51-.67-.92-1.14-1.21.13,0,.23,0,.29,0,.61,0,1.21.07,1.8.22.59.15,1.06.33,1.41.55.35.22.62.5.83.84.21.35.31.74.31,1.2,0,.53-.15.97-.45,1.31-.3.34-.79.57-1.45.69l.13,1.42c.95-.12,1.68-.48,2.2-1.08M92.84,1132.44c.48.44.72,1,.72,1.69s-.24,1.25-.72,1.72-1.1.69-1.86.69c-.86,0-1.55-.24-2.09-.73-.53-.49-.8-1.06-.8-1.72s.25-1.18.74-1.63c.5-.45,1.17-.68,2.02-.68s1.51.22,1.99.66M100.5,1126.98c-1.07.02-.68.1-.42.25.27.15.47.38.6.69l.63-.41c-.21-.48-.5-.83-.88-1.05-.38-.22-.88-.33-1.5-.39h-.94v2.5h2.5v-1.59Z"/>
    <path d="M87.66,1112.05c-.53.6-.79,1.38-.79,2.33,0,1.27.46,2.28,1.38,3.04,1.05.86,2.75,1.29,5.07,1.29,2.08,0,3.57-.39,4.48-1.17s1.36-1.79,1.36-3.02c0-.73-.17-1.37-.52-1.94s-.84-1.02-1.49-1.35c-.65-.32-1.35-.49-2.1-.49-1.15,0-2.09.35-2.81,1.04s-1.09,1.53-1.09,2.52c0,.56.13,1.1.4,1.62.26.52.66.95,1.2,1.31-1.2,0-2.13-.15-2.78-.42-.65-.27-1.15-.63-1.49-1.1-.26-.36-.39-.77-.39-1.24,0-.59.21-1.08.63-1.48.26-.24.68-.43,1.26-.56l-.12-1.48c-.93.12-1.67.49-2.2,1.09M93.16,1116.31c-.48-.47-.72-1.04-.72-1.71s.24-1.23.72-1.68c.48-.44,1.13-.67,1.97-.67s1.55.22,2.05.68c.5.45.76.99.76,1.61,0,.43-.12.83-.36,1.23-.24.39-.6.69-1.06.91-.46.22-.95.32-1.46.32-.77,0-1.41-.23-1.88-.7M100.5,1108.57h-2.5v-2.5h2.5v2.5Z"/>
    <path d="M98,1098.97c0-.77-.07-1.42-.21-1.95-.14-.53-.35-.97-.62-1.32-.27-.35-.66-.64-1.17-.88-.5-.24-1.04-.36-1.63-.36-.73,0-1.36.2-1.89.59-.53.39-.91.95-1.13,1.68-.29-.56-.67-.99-1.14-1.27-.47-.28-.98-.42-1.51-.42-.58,0-1.12.16-1.65.47-.53.32-.91.75-1.17,1.31-.25.56-.38,1.29-.38,2.22v4.53h12.5v-4.6ZM88,1103.57v-3.65c.33-.87.39-1.48.5-1.84.11-.36.32-.63.62-.82.3-.19.66-.29,1.05-.29.42,0,.77.1,1.05.31.28.21.48.51.6.92.09.31.14.82-1.33,1.53v3.84h-2.5ZM93,1103.57v-4.02c.38-.77.45-1.36.58-1.76.14-.41.37-.73.7-.96.33-.23.72-.35,1.17-.35.38,0,.72.08,1.01.24.3.16.52.36.67.61.15.25.26.56.33.92.04.21.06.57.54,1.09v4.24h-5ZM100.5,1093.57h-2.5v-2.5h2.5v2.5Z"/>
    <path d="M98.21,1087.4c.63-.7.94-1.58.94-2.64,0-1.18-.36-2.15-1.09-2.92-.73-.77-1.62-1.15-2.67-1.15-.77,0-1.42.2-1.94.6-.52.39-.86.95-1.02,1.66-.25-.55-.59-.96-1.02-1.24-.43-.28-.9-.42-1.42-.42-.55,0-1.07.14-1.55.44-.49.29-.87.72-1.16,1.27-.28.56-.42,1.16-.42,1.82,0,.96.27,1.75.81,2.4.54.64,1.31,1.05,2.3,1.23l.26-1.48c-.72-.11-1.26-.36-1.62-.74-.36-.38-.54-.86-.54-1.44s.18-1.06.53-1.42c.35-.37.8-.55,1.35-.55.68,0,1.19.25,1.52.76.33.5.49,1.07.49,1.7,0,.06,0,.14-.01.24l1.3.17c-.11-.42-.16-.76-.16-1.04,0-.69.22-1.25.66-1.7.44-.44,1-.67,1.68-.67.71,0,1.31.24,1.79.72.48.48.72,1.07.72,1.77,0,.59-.18,1.08-.55,1.49-.37.41-.97.7-1.81.87l.2,1.48c1-.1,1.82-.5,2.44-1.2M100.5,1078.57h-2.5v-2.5h2.5v2.5Z"/>
    <path d="M85.5,1068.57v.9s2.42.69,2.97,1.32,1.02,1.34,1.41,2.79h1.43c-.17-1.08-.42-1.6-.76-2.18-.34-.58-1.02-.32-1.02-.32h8.47v-2.5h-12.5ZM85.5,1058.57v1.47s2.42.7,2.97,1.32,1.02,1.35,1.41,2.21h1.43c-.17-.5-.42-1.02-.76-1.6-.34-.58-1.02-.9-1.02-.9h8.47v-2.5h-12.5ZM100.5,1053.6c-1.07.02-.68.1-.42.25.26.15.47.38.6.69l.63-.41c-.21-.48-.5-.83-.88-1.04-.38-.22-.88-.33-1.5.49h-.94v2.5h2.5v-2.47ZM87.66,1039.18c-.53.61-.79,1.38-.79,2.33,0,1.27.46,2.29,1.38,3.04,1.05.86,2.74,1.29,5.07,1.29,2.08,0,3.57-.39,4.48-1.17.91-.78,1.36-1.79,1.36-3.02,0-.72-.17-1.37-.51-1.94-.35-.57-.84-1.02-1.49-1.35-.65-.33-1.35-.49-2.1-.49-1.15,0-2.08.35-2.81,1.04-.72.69-1.08,1.53-1.08,2.53,0,.56.13,1.1.39,1.62.26.52.66.95,1.21,1.31-1.2,0-2.13-.15-2.78-.42-.65-.27-1.15-.64-1.48-1.1-.26-.36-.39-.77-.39-1.25,0-.59.21-1.08.63-1.48.26-.24.69-.43,1.27-.56l-.12-1.47c-.94.12-1.67.48-2.2,1.09M93.16,1043.43c-.48-.47-.72-1.03-.72-1.7s.24-1.24.72-1.68c.48-.45,1.13-.67,1.96-.67s1.55.23,2.05.68c.5.45.76.99.76,1.61,0,.43-.12.83-.37,1.23-.24.39-.6.69-1.06.91-.47.22-.95.33-1.46.33-.78,0-1.4-.23-1.88-.7M100.5,1036.07h-2.5v-2.5h2.5v2.5ZM98,1026.47c0-.77-.07-1.42-.21-1.94-.14-.53-.35-.97-.62-1.32-.27-.35-.66-.64-1.16-.88-.5-.24-1.05-.36-1.63-.36-.73,0-1.36.2-1.89.59-.53.4-.91.96-1.13,1.68-.29-.56-.67-.99-1.14-1.27s-.97-.42-1.51-.42c-.58,0-1.13.16-1.65.47-.52.31-.91.75-1.17,1.31-.25.56-.38,1.3-.38,2.22v4.53h12.5v-4.6ZM88,1028.57v-1.5c.33-.87.39-1.48.5-1.84.11-.35.32-.63.62-.82.31-.19.66-.29,1.05-.29.42,0,.77.1,1.05.31s.48.51.6.92c.09.3.14.81-1.32,1.52v1.7h-2.5ZM93,1028.57v-1.88c.38-.77.45-1.36.58-1.76.13-.41.37-.73.7-.96.33-.23.72-.35,1.17-.35.38,0,.72.08,1.02.24.29.16.51.36.67.61.16.25.27.56.33.92.04.21.06.57.54,1.09v2.09h-5ZM100.5,1018.57h-2.5v2.5h2.5v-2.5ZM98.21,1014.38c.63-.7.94-1.58.94-2.64,0-1.17-.36-2.15-1.1-2.91-.73-.77-1.62-1.15-2.67-1.15-.78,0-1.42.2-1.94.59-.51.4-.85.95-1.02,1.66-.25-.55-.59-.96-1.02-1.24s-.9-.42-1.42-.42c-.55,0-1.06.14-1.55.44-.49.29-.87.72-1.15,1.27-.28.55-.42,1.16-.42,1.82,0,.96.27,1.75.82,2.4.54.64,1.31,1.05,2.3,1.23l.26-1.48c-.72-.11-1.26-.36-1.62-.74-.36-.38-.54-.86-.54-1.44s.18-1.05.53-1.42c.36-.37.8-.55,1.35-.55.68,0,1.19.25,1.52.76.33.5.49,1.07.49,1.71,0,.06,0,.14-.02.24l1.3.16c-.11-.42-.16-.76-.16-1.04,0-.69.22-1.25.66-1.7.44-.44,1-.66,1.68-.66s1.31.24,1.79.72c.48.48.72,1.07.72,1.76,0,.59-.18,1.09-.55,1.5-.37.41-.97.7-1.81.87l.2,1.48c1-.1,1.82-.5,2.45-1.2M100.5,1006.07h-2.5v-2.5h2.5v2.5ZM85.5,996.07v.73s2.42.69,2.97,1.32c.55.62,1.02,1.34,1.41,2.95h1.43c-.17-1.24-.42-1.76-.76-2.34-.34-.58-1.02-.16-1.02-.16h8.47v-2.5h-12.5Z"/>
    <path d="M98.21,990.53c.63-.7.94-1.58.94-2.64,0-1.18-.37-2.15-1.1-2.91-.73-.77-1.62-1.16-2.67-1.16-.78,0-1.43.2-1.94.6-.51.4-.86.95-1.02,1.66-.25-.55-.59-.96-1.02-1.24-.43-.28-.9-.42-1.42-.42-.55,0-1.06.14-1.55.44-.49.29-.87.72-1.15,1.27-.28.56-.42,1.16-.42,1.82,0,.96.27,1.75.82,2.39.54.64,1.31,1.05,2.3,1.24l.26-1.48c-.72-.11-1.26-.36-1.63-.74-.36-.39-.54-.87-.54-1.44s.18-1.06.53-1.43c.35-.37.8-.55,1.34-.55.68,0,1.19.26,1.52.76.33.5.49,1.07.49,1.7,0,.06,0,.14-.02.24l1.3.16c-.11-.42-.17-.76-.17-1.04,0-.69.22-1.25.66-1.69.44-.45,1-.67,1.68-.67.71,0,1.31.24,1.79.72.48.48.72,1.07.72,1.77,0,.58-.19,1.09-.55,1.49-.37.41-.97.7-1.81.87l.2,1.48c1-.1,1.82-.5,2.45-1.2"/>
    <rect class="st13" x="103" y="1128.57" width="20" height="165"/>
    <path d="M118,1291.07h-2.5v-5h2.5v5l-12.5-2.5v.57l9.46,6.93h.54v-7.5h2.5v2.5ZM115.5,1292.35l-5.42-3.78h5.42v3.78ZM120.5,1283.57h-2.5v-2.5h2.5v2.5ZM117.49,1279.25c.64-.42,1.12-1,1.43-1.74.32-.74.47-1.65.47-2.74,0-.86-.16-1.63-.47-2.33-.32-.69-.76-1.22-1.32-1.58-.57-.37-1.17-.55-1.81-.55s-1.22.17-1.71.5-.9.85-1.23,1.56c-.22.48-.48,1.37-.77,2.67-.29,1.3-.58,2.1-.85,2.41-.28.31-.64.47-1.07.47-.5,0-.92-.22-1.28-.66-.36-.44-.53-1.15-.53-2.11s.2-1.63.58-2.1c.39-.47.96-.75,1.72-.83l-.12-1.53c-.7.03-1.33.23-1.89.59-.56.37-.98.9-1.27,1.58-.29.68-.43,1.47-.43,2.36,0,.81.14,1.55.41,2.22.27.67.67,1.17,1.2,1.52.53.35,1.09.52,1.7.52.55,0,1.05-.14,1.5-.42.45-.28.82-.71,1.12-1.29.23-.44.49-1.22.75-2.33.27-1.11.46-1.83.59-2.15.19-.51.43-.87.71-1.09.28-.22.61-.33.99-.33s.71.11,1.03.34c.32.23.56.57.74,1.04.18.47.27,1,.27,1.61,0,.69-.12,1.3-.36,1.85-.24.55-.55.95-.93,1.21-.38.26-.88.42-1.48.5l.13,1.51c.81-.02,1.53-.24,2.16-.66M118,1261.07v-.47c-.33.19-.68.31-1.05.37-.36.07-1.23.1-2.6.1h-1.97c-.66,0-1.11.02-1.36.07-.4.09-.74.24-1,.46-.27.22-.48.56-.66,1.03-.18.47-.26,1.07-.26,1.82s.1,1.42.31,1.98c.2.57.5,1.01.88,1.31.38.3.88.52,1.5.65l.2-1.45c-.62-.16-1.05-.4-1.29-.73-.24-.33-.36-.85-.36-1.55,0-.74.17-1.31.5-1.69.25-.28.67-.42,1.27-.42.06,0,.18,0,.39,0,.2.56.37,1.44.51,2.64.07.59.14,1.03.22,1.32.11.4.27.75.48,1.07.21.32.49.57.85.76s.74.29,1.17.29c.73,0,1.33-.26,1.79-.77.47-.52.7-1.25.7-2.22,0-.58-.1-1.13-.29-1.63-.19-.51-.52-1.04-.98-1.59.41-.04.77-.14,1.07-.3M115.36,1263.57c.65,0,1.14.08,1.48.24.43.21.77.53,1.02.98.25.44.38.95.38,1.52s-.13,1.02-.39,1.31c-.26.3-.59.45-.99.45-.26,0-.49-.07-.7-.21s-.37-.33-.48-.59c-.11-.25-.21-.68-.29-1.29-.15-1.08-.34-1.88-.56-2.42h.54ZM108,1256.07h12.5v2.5h-12.5v-2.5ZM110.5,1253.57h2.5v2.5h-2.5v-2.5ZM120.5,1253.57h-2.5v2.5h2.5v-2.5ZM107.91,1239.3c-.53.61-.8,1.39-.8,2.33,0,1.27.46,2.29,1.38,3.04,1.06.86,2.75,1.29,5.07,1.29,2.08,0,3.57-.39,4.48-1.17.91-.78,1.36-1.79,1.36-3.02,0-.73-.17-1.37-.51-1.94-.35-.57-.84-1.02-1.49-1.34-.65-.33-1.35-.49-2.1-.49-1.15,0-2.08.35-2.81,1.04-.73.69-1.09,1.54-1.09,2.52,0,.56.13,1.1.39,1.62.26.52.66.95,1.21,1.31-1.2,0-2.13-.15-2.78-.42-.65-.27-1.15-.63-1.48-1.1-.26-.36-.4-.77-.4-1.25,0-.58.21-1.08.63-1.48.27-.24.68-.43,1.27-.56l-.12-1.47c-.94.12-1.67.49-2.2,1.09M113.41,1243.56c-.48-.47-.72-1.04-.72-1.7s.24-1.24.72-1.68c.48-.45,1.13-.67,1.97-.67s1.55.22,2.05.67.76.99.76,1.61c0,.43-.12.84-.36,1.23s-.6.69-1.06.91c-.47.22-.95.32-1.46.32-.78,0-1.41-.23-1.88-.7M120.5,1236.07h-2.5v-2.5h2.5v2.5ZM120.5,1226.47c0-.77-.07-1.41-.21-1.94-.14-.53-.34-.97-.62-1.32-.27-.35-.66-.65-1.16-.89-.51-.24-1.05-.36-1.63-.36-.73,0-1.36.2-1.89.59-.53.39-.91.95-1.13,1.68-.29-.56-.67-.99-1.14-1.27-.47-.28-.97-.42-1.51-.42-.57,0-1.12.16-1.65.47-.53.32-.92.75-1.17,1.31-.25.56-.38,1.29-.38,2.22v4.53h12.5v-4.6ZM108,1228.57v-1.41c.58-.87.64-1.48.75-1.84.11-.35.32-.63.62-.82.31-.19.66-.29,1.05-.29.42,0,.77.1,1.05.31.28.21.48.51.6.91.1.31.14.82-1.58,1.53v1.6h-2.5ZM113,1228.57v-1.79c.64-.77.7-1.35.84-1.76.13-.41.36-.73.7-.96.33-.23.72-.35,1.17-.35.38,0,.72.08,1.01.24.29.16.52.36.67.61.15.25.26.56.33.92.04.21.06.57.29,1.08v2h-5ZM120.5,1218.57h-2.5v2.5h2.5v-2.5ZM118,1208.57h-2.5v2.5h2.5v-2.5h-12.5v2.05l9.46,5.45h.54v-5h2.5v-2.5ZM115.5,1214.85l-5.42-3.78h5.42v3.78ZM120.5,1206.07h-2.5v-2.5h2.5v2.5ZM108,1195.44c1.59.75,2.64,1.46,3.88,2.13,1.24.67,2.54,1.18,3.88,1.53,1.34.36,4.74.56,4.74.56v-1.68c-1.26-.08-2.42-.26-3.48-.55-1.5-.39-2.97-.95-4.39-1.68-1.42-.73-2.56-1.46-3.42-2.19h-1.21v7.5h0v-5.63ZM120.5,1190.37c-.81.02-.43.1-.17.25.27.15.47.38.6.69l.63-.41c-.21-.48-.5-.83-.88-1.05-.38-.22-.88-.33-1.5-1.28h-1.19v2.5h2.5v-.7ZM107.91,1175.91c-.53.61-.8,1.39-.8,2.33,0,1.28.46,2.29,1.38,3.04,1.06.86,2.75,1.29,5.07,1.29,2.08,0,3.57-.39,4.48-1.17.91-.78,1.36-1.79,1.36-3.02,0-.73-.17-1.37-.51-1.94-.35-.57-.84-1.02-1.49-1.35-.65-.32-1.35-.49-2.1-.49-1.15,0-2.08.35-2.81,1.04-.73.69-1.09,1.53-1.09,2.52,0,.57.13,1.11.39,1.62.26.52.66.95,1.21,1.31-1.2-.01-2.13-.15-2.78-.42-.65-.27-1.15-.64-1.48-1.1-.26-.36-.4-.77-.4-1.24,0-.59.21-1.08.63-1.48.27-.24.68-.43,1.27-.56l-.12-1.47c-.94.12-1.67.49-2.2,1.09M113.41,1180.17c-.48-.47-.72-1.04-.72-1.7s.24-1.23.72-1.68c.48-.44,1.13-.67,1.97-.67s1.55.22,2.05.68c.5.45.76.99.76,1.61,0,.43-.12.84-.36,1.23-.24.39-.6.69-1.06.91-.47.21-.95.32-1.46.32-.78,0-1.41-.24-1.88-.7M120.5,1171.07h-2.5v2.5h2.5v-2.5ZM120.5,1163.97c0-.77-.07-1.41-.21-1.94-.14-.53-.34-.97-.62-1.32-.27-.35-.66-.65-1.16-.88-.51-.24-1.05-.36-1.63-.36-.73,0-1.36.2-1.89.59-.53.4-.91.96-1.13,1.68-.29-.56-.67-.99-1.14-1.27-.47-.28-.97-.42-1.51-.42-.57,0-1.12.16-1.65.47-.53.32-.92.75-1.17,1.31-.25.56-.38,1.3-.38,2.22v4.53h12.5v-4.6ZM108,1166.07v-2.3c.58-.87.64-1.48.75-1.84.11-.36.32-.63.62-.83.31-.19.66-.29,1.05-.29.42,0,.77.1,1.05.31s.48.51.6.92c.1.3.14.81-1.58,1.52v2.5h-2.5ZM113,1166.07v-2.68c.64-.77.7-1.36.84-1.76.13-.41.36-.73.7-.96.33-.23.72-.35,1.17-.35.38,0,.72.08,1.01.24.29.16.52.36.67.61.15.25.26.56.33.92.04.21.06.57.29,1.08v2.89h-5ZM120.5,1156.07h-2.5v-2.5h2.5v2.5ZM118,1146.07h-2.5v-2.5h2.5v2.5h-12.5v1.16l9.46,6.34h.54v-5h2.5v-2.5ZM115.5,1152.35l-5.42-3.78h5.42v3.78ZM120.5,1141.07h-2.5v2.5h2.5v-2.5ZM118.61,1136.76c.52-.6.78-1.37.78-2.31,0-.89-.24-1.66-.71-2.32s-1.17-1.16-2.08-1.5c-.91-.33-2.14-.5-3.67-.5s-2.6.17-3.39.51c-.78.34-1.38.83-1.8,1.48-.42.65-.63,1.37-.63,2.15,0,1.09.37,1.99,1.11,2.71.75.72,1.73,1.08,2.95,1.08s2.13-.35,2.85-1.04c.72-.69,1.08-1.54,1.08-2.54,0-.6-.14-1.15-.44-1.67-.29-.51-.68-.92-1.15-1.21.13,0,.23,0,.3,0,.61,0,1.21.07,1.8.22.59.15,1.06.33,1.41.55.35.22.62.5.83.84.21.34.31.74.31,1.2,0,.53-.15.97-.45,1.31-.3.34-.78.57-1.45.69l.13,1.42c.95-.12,1.68-.48,2.2-1.08M113.09,1132.44c.48.44.72,1,.72,1.69s-.24,1.25-.72,1.72c-.48.46-1.1.69-1.87.69-.85,0-1.55-.24-2.08-.73-.53-.49-.8-1.06-.8-1.72s.25-1.18.75-1.63c.5-.46,1.17-.68,2.02-.68s1.51.22,1.99.66"/>
    <rect class="st13" x="125.5" y="1193.57" width="20" height="102.5"/>
    <path d="M139.74,1292.97c.61-.69.92-1.59.92-2.69,0-1.34-.49-2.39-1.46-3.17-.79-.64-1.74-.95-2.83-.95s-2.08.36-2.81,1.08c-.73.73-1.09,1.61-1.09,2.67,0,.8.25,1.56.76,2.28l-2.73-.65v-5.47h-2.5v6.66l6.77,1.17.18-1.39c-.34-.22-.62-.52-.84-.9-.21-.39-.32-.82-.32-1.29,0-.77.24-1.39.73-1.87.49-.48,1.15-.71,1.99-.71.89,0,1.6.25,2.13.74.53.49.8,1.1.8,1.81,0,.59-.19,1.1-.57,1.52-.38.42-.95.69-1.7.8l.13,1.55c1.01-.1,1.83-.49,2.44-1.19M138,1283.57h2.5v-2.5h-2.5v2.5ZM138.75,1279.21c.64-.42,1.11-1,1.43-1.74.32-.74.48-1.65.48-2.74,0-.86-.16-1.63-.47-2.33-.31-.69-.76-1.22-1.32-1.59-.57-.37-1.17-.55-1.81-.55s-1.22.17-1.71.51c-.49.33-.9.85-1.23,1.56-.22.48-.47,1.37-.76,2.67-.29,1.3-.58,2.1-.86,2.41-.28.31-.63.47-1.07.47-.5,0-.92-.22-1.28-.66-.35-.44-.53-1.14-.53-2.11s.2-1.63.58-2.1c.39-.48.96-.75,1.72-.83l-.12-1.53c-.7.03-1.34.22-1.89.59-.56.37-.98.89-1.27,1.57-.29.68-.43,1.47-.43,2.37,0,.81.13,1.55.41,2.21.27.66.67,1.17,1.2,1.52.53.35,1.1.52,1.71.52.55,0,1.05-.14,1.49-.42.45-.28.82-.71,1.12-1.29.24-.44.49-1.22.75-2.33.27-1.11.46-1.82.59-2.15.19-.5.43-.87.71-1.08.28-.22.61-.33.99-.33s.71.12,1.03.34c.31.23.56.57.74,1.04.18.47.27,1,.27,1.61,0,.69-.12,1.3-.35,1.85-.24.55-.55.95-.94,1.21-.39.26-.88.43-1.48.5l.13,1.51c.8-.02,1.52-.24,2.16-.66M140.5,1261.07v-.47c-.33.18-.68.31-1.04.37-.36.06-1.23.1-2.61.1h-1.97c-.66,0-1.11.02-1.36.07-.4.09-.74.24-1,.46-.27.22-.49.56-.66,1.03-.18.47-.26,1.07-.26,1.82s.1,1.41.31,1.98c.21.57.5,1.01.88,1.31s.88.52,1.5.65l.2-1.45c-.62-.16-1.05-.41-1.29-.74-.25-.33-.36-.85-.36-1.54,0-.75.16-1.31.5-1.69.25-.28.67-.42,1.27-.42.05,0,.18,0,.38.01.2.56.36,1.44.51,2.64.07.59.14,1.03.22,1.32.11.39.27.75.48,1.06.21.32.5.57.85.77.35.19.74.29,1.17.29.72,0,1.32-.26,1.79-.77s.7-1.26.7-2.22c0-.58-.09-1.13-.29-1.63-.19-.51-.52-1.04-.98-1.58.41-.04.77-.14,1.07-.3M136.62,1263.57c.65,0,1.14.08,1.48.24.43.21.77.53,1.02.98.25.44.38.95.38,1.52s-.13,1.01-.4,1.31c-.26.3-.59.45-.98.45-.26,0-.49-.07-.7-.21-.21-.14-.37-.33-.48-.58s-.21-.68-.29-1.29c-.16-1.08-.34-1.88-.56-2.42h.54ZM128,1258.57h12.5v-2.5h-12.5v2.5ZM130.5,1253.57h2.5v2.5h-2.5v-2.5ZM138,1253.57h2.5v2.5h-2.5v-2.5ZM129.17,1239.19c-.53.61-.8,1.39-.8,2.33,0,1.27.46,2.29,1.38,3.04,1.05.86,2.75,1.29,5.07,1.29,2.08,0,3.57-.39,4.47-1.17.9-.78,1.36-1.78,1.36-3.02,0-.72-.17-1.37-.51-1.94-.35-.57-.84-1.02-1.49-1.35-.65-.33-1.35-.49-2.1-.49-1.15,0-2.09.35-2.81,1.04-.72.69-1.09,1.54-1.09,2.53,0,.57.13,1.11.39,1.62.27.52.66.95,1.21,1.31-1.2-.01-2.13-.15-2.78-.42-.65-.27-1.14-.64-1.48-1.1-.26-.36-.39-.77-.39-1.25,0-.59.21-1.08.63-1.48.26-.24.68-.43,1.26-.56l-.12-1.47c-.93.12-1.67.48-2.2,1.09M134.67,1243.44c-.48-.47-.72-1.03-.72-1.7s.24-1.24.72-1.68c.48-.44,1.13-.67,1.97-.67s1.54.22,2.05.68c.5.45.76.99.76,1.61,0,.43-.12.84-.36,1.23-.24.39-.6.69-1.06.91-.46.21-.95.32-1.46.32-.78,0-1.41-.24-1.88-.7M138,1236.07h2.5v-2.5h-2.5v2.5ZM140.5,1226.47c0-.77-.07-1.42-.21-1.95-.14-.53-.35-.97-.62-1.32-.27-.35-.66-.64-1.16-.88-.5-.24-1.05-.36-1.63-.36-.73,0-1.36.2-1.89.59-.53.39-.91.95-1.13,1.68-.29-.56-.67-.99-1.14-1.27-.47-.28-.97-.42-1.51-.42-.57,0-1.12.16-1.65.48-.53.31-.91.75-1.17,1.31-.25.56-.38,1.3-.38,2.22v4.53h12.5v-4.6ZM130.5,1228.57v-1.56c-.65-.87-.6-1.48-.49-1.83.11-.36.32-.63.62-.83.3-.19.65-.29,1.05-.29.42,0,.77.1,1.05.31.28.2.48.51.6.92.09.31.14.81-.34,1.52v1.76h-2.5ZM135.5,1228.57v-1.94c-.6-.77-.53-1.36-.4-1.77.14-.41.37-.73.7-.96.33-.23.72-.35,1.17-.35.38,0,.72.08,1.01.24s.51.36.67.61c.15.24.26.55.33.92.04.21.06.57,1.52,1.09v2.15h-5ZM138,1216.07h2.5v2.5h-2.5v-2.5ZM139.74,1214.27c.61-.69.92-1.59.92-2.68,0-1.34-.49-2.4-1.46-3.17-.79-.64-1.74-.96-2.83-.96s-2.08.36-2.81,1.09c-.73.72-1.09,1.61-1.09,2.67,0,.79.25,1.56.76,2.28l-2.73-.65v-4.27h-2.5v5.46l6.77,1.17.18-1.39c-.34-.22-.62-.52-.84-.9-.21-.38-.32-.81-.32-1.29,0-.77.24-1.39.73-1.86.49-.48,1.15-.71,1.99-.71.89,0,1.6.25,2.13.74s.8,1.1.8,1.81c0,.59-.19,1.1-.57,1.52-.38.42-.95.69-1.7.8l.13,1.56c1.01-.1,1.83-.5,2.44-1.19M138,1206.07h2.5v-2.5h-2.5v2.5ZM130.5,1195.16c.82.75,1.82,1.46,3.01,2.13,1.19.67,2.43,1.18,3.71,1.53,1.28.36,2.38.55,3.28.56v-1.39c-1.26-.08-2.42-.26-3.48-.54-1.5-.4-2.96-.96-4.39-1.68-1.42-.72-2.56-1.45-3.42-2.19h-1.21v7.5h2.5v-5.91Z"/>
    <line class="st3" x1="564.73" y1="1026.52" x2="445.24" y2="974.54"/>
  </g>
</svg>