<?xml version="1.0" encoding="UTF-8"?>
<svg id="Layer_1" xmlns="http://www.w3.org/2000/svg" xmlns:xlink="http://www.w3.org/1999/xlink" version="1.1" viewBox="0 0 1200 1697.14">
  <!-- Generator: Adobe Illustrator 29.6.0, SVG Export Plug-In . SVG Version: 2.1.1 Build 207)  -->
  <defs>
    <style>
      .st0, .st1, .st2, .st3, .st4 {
        fill: none;
      }

      .st1 {
        stroke: #0d0e1c;
      }

      .st1, .st2, .st4 {
        stroke-width: .08px;
      }

      .st1, .st3, .st4 {
        stroke-linecap: round;
        stroke-linejoin: round;
      }

      .st2 {
        stroke-miterlimit: 10;
      }

      .st2, .st3, .st4 {
        stroke: #000;
      }

      .st3 {
        stroke-width: .14px;
      }

      .st5 {
        clip-path: url(#clippath-11);
      }

      .st6 {
        clip-path: url(#clippath-16);
      }

      .st7 {
        clip-path: url(#clippath-10);
      }

      .st8 {
        clip-path: url(#clippath-15);
      }

      .st9 {
        clip-path: url(#clippath-13);
      }

      .st10 {
        clip-path: url(#clippath-14);
      }

      .st11 {
        clip-path: url(#clippath-12);
      }

      .st12 {
        clip-path: url(#clippath-1);
      }

      .st13 {
        clip-path: url(#clippath-3);
      }

      .st14 {
        clip-path: url(#clippath-4);
      }

      .st15 {
        clip-path: url(#clippath-2);
      }

      .st16 {
        clip-path: url(#clippath-7);
      }

      .st17 {
        clip-path: url(#clippath-6);
      }

      .st18 {
        clip-path: url(#clippath-9);
      }

      .st19 {
        clip-path: url(#clippath-8);
      }

      .st20 {
        clip-path: url(#clippath-5);
      }

      .st21 {
        fill: #fff;
      }

      .st22 {
        fill: #ece9e5;
      }

      .st23 {
        fill: #302c35;
      }

      .st24 {
        clip-path: url(#clippath);
      }
    </style>
    <clipPath id="clippath">
      <rect class="st0" x="677.22" y="799.83" width="72.57" height="159.65"/>
    </clipPath>
    <clipPath id="clippath-1">
      <rect class="st0" x="356.4" y="478.96" width="487.21" height="739.22"/>
    </clipPath>
    <clipPath id="clippath-2">
      <rect class="st0" x="643.92" y="1027.41" width="28.61" height="39.22"/>
    </clipPath>
    <clipPath id="clippath-3">
      <rect class="st0" x="356.4" y="478.96" width="487.21" height="739.22"/>
    </clipPath>
    <clipPath id="clippath-4">
      <rect class="st0" x="356.4" y="478.96" width="487.21" height="739.22"/>
    </clipPath>
    <clipPath id="clippath-5">
      <rect class="st0" x="715.02" y="1111.16" width="27.51" height="37.12"/>
    </clipPath>
    <clipPath id="clippath-6">
      <rect class="st0" x="356.4" y="478.96" width="487.21" height="739.22"/>
    </clipPath>
    <clipPath id="clippath-7">
      <rect class="st0" x="356.4" y="478.96" width="487.21" height="739.22"/>
    </clipPath>
    <clipPath id="clippath-8">
      <rect class="st0" x="457.4" y="792.8" width="115.56" height="115.56"/>
    </clipPath>
    <clipPath id="clippath-9">
      <rect class="st0" x="356.4" y="478.96" width="487.21" height="739.22"/>
    </clipPath>
    <clipPath id="clippath-10">
      <rect class="st0" x="356.4" y="478.96" width="487.21" height="739.22"/>
    </clipPath>
    <clipPath id="clippath-11">
      <rect class="st0" x="356.4" y="478.96" width="487.21" height="739.22"/>
    </clipPath>
    <clipPath id="clippath-12">
      <rect class="st0" x="356.4" y="478.96" width="487.21" height="739.22"/>
    </clipPath>
    <clipPath id="clippath-13">
      <rect class="st0" x="356.4" y="478.96" width="487.21" height="739.22"/>
    </clipPath>
    <clipPath id="clippath-14">
      <rect class="st0" x="356.4" y="478.96" width="487.21" height="739.22"/>
    </clipPath>
    <clipPath id="clippath-15">
      <rect class="st0" x="356.4" y="478.96" width="487.21" height="739.22"/>
    </clipPath>
    <clipPath id="clippath-16">
      <rect class="st0" x="356.4" y="478.96" width="487.21" height="739.22"/>
    </clipPath>
  </defs>
  <rect class="st22" x="407.78" y="696.33" width="360.14" height="481.65"/>
  <rect class="st22" x="472.02" y="587.42" width="248.65" height="139.29"/>
  <rect class="st21" x="443.85" y="942.39" width="50.34" height="221.69"/>
  <rect class="st21" x="403.4" y="770.17" width="20.55" height="165.13"/>
  <rect class="st21" x="494.36" y="700.72" width="200.66" height="11.47"/>
  <rect class="st23" x="695.02" y="696.33" width="72.91" height="46.58"/>
  <rect class="st23" x="446.6" y="1162.12" width="95.86" height="15.87"/>
  <rect class="st23" x="614.01" y="1162.12" width="153.91" height="15.87"/>
  <rect class="st23" x="750.37" y="742.91" width="17.55" height="419.21"/>
  <rect class="st23" x="430.39" y="935.27" width="16.2" height="242.71"/>
  <rect class="st23" x="471.24" y="584.54" width="4.05" height="111.79"/>
  <rect class="st23" x="716.62" y="584.44" width="4.05" height="111.88"/>
  <rect class="st23" x="471.13" y="584.44" width="247.52" height="3.71"/>
  <rect class="st23" x="446.6" y="1038.25" width="55.69" height="5.74"/>
  <rect class="st23" x="622.79" y="1154.69" width="125.9" height="9.97"/>
  <rect class="st23" x="622.79" y="1146.6" width="5.4" height="8.77"/>
  <rect class="st23" x="628.19" y="1021.03" width="120.5" height="5.06"/>
  <rect class="st23" x="743.63" y="1021.03" width="10.21" height="141.09"/>
  <rect class="st23" x="628.19" y="1026.1" width="115.43" height="1.35"/>
  <rect class="st23" x="628.19" y="1146.59" width="1.01" height="7.42"/>
  <rect class="st23" x="622.79" y="1019.18" width="6.41" height="56.53"/>
  <rect class="st23" x="628.19" y="1154.02" width="115.43" height="1.35"/>
  <rect class="st23" x="742.27" y="1026.09" width="1.35" height="127.92"/>
  <rect class="st23" x="630.89" y="961.29" width="119.48" height="7.76"/>
  <rect class="st23" x="622.79" y="961.29" width="8.1" height="59.74"/>
  <rect class="st23" x="407.78" y="935.3" width="22.61" height="242.68"/>
  <rect class="st23" x="407.78" y="696.33" width="90.12" height="46.58"/>
  <rect class="st21" x="401.03" y="935.3" width="8.78" height="81.34"/>
  <rect class="st23" x="407.78" y="696.33" width="38.82" height="75.27"/>
  <polygon class="st21" points="677.22 799.83 677.22 800.24 748.88 800.24 748.88 938.21 749.79 938.66 749.79 799.83 677.22 799.83"/>
  <polygon class="st21" points="677.22 800.24 677.22 902.74 693.14 910.63 732.95 930.33 748.88 938.21 748.88 800.24 677.22 800.24"/>
  <g class="st24">
    <path class="st21" d="M677.22,959.48v-56.74l15.92,7.88v28.26c0,1.82,1.47,3.28,3.27,3.28h33.25c1.81,0,3.29-1.47,3.29-3.28v-8.56l15.92,7.88v21.27h-71.66Z"/>
    <path class="st21" d="M693.14,938.88v-28.26l39.81,19.7v8.56c0,1.82-1.47,3.28-3.29,3.28h-33.25c-1.81,0-3.28-1.47-3.28-3.28"/>
  </g>
  <polyline class="st1" points="748.88 938.21 748.88 959.48 677.22 959.48 677.22 902.75"/>
  <polyline class="st1" points="732.95 930.33 748.88 938.21 749.79 938.66 749.79 799.83 677.22 799.83 677.22 800.24 677.22 902.74 693.14 910.63"/>
  <line class="st1" x1="729.67" y1="942.17" x2="696.42" y2="942.17"/>
  <g class="st12">
    <path class="st1" d="M696.42,942.17c-1.81,0-3.28-1.47-3.28-3.28"/>
    <path class="st1" d="M732.95,938.88c0,1.82-1.47,3.28-3.29,3.28"/>
  </g>
  <polyline class="st1" points="732.95 938.88 732.95 930.33 693.14 910.63 693.14 938.88"/>
  <g class="st15">
    <path class="st21" d="M672.53,1027.43c0,7.71,0,15.42-.02,23.12,0,8.89-6.4,16.09-14.31,16.08-7.9,0-14.28-7.21-14.28-16.1,0-7.7.02-15.41.02-23.12,9.52,0,19.06.02,28.59.02"/>
  </g>
  <g class="st13">
    <path class="st4" d="M672.53,1027.43c0,7.71,0,15.42-.02,23.12,0,8.89-6.4,16.09-14.31,16.08-7.9,0-14.28-7.21-14.28-16.1,0-7.7.02-15.41.02-23.12,9.52,0,19.06.02,28.59.02Z"/>
  </g>
  <rect class="st21" x="679.64" y="1027.23" width="62.49" height="63.21"/>
  <polyline class="st4" points="742.13 1027.23 742.13 1090.44 735.96 1090.44"/>
  <line class="st4" x1="742.13" y1="1027.23" x2="680.14" y2="1027.23"/>
  <line class="st4" x1="679.64" y1="1028.27" x2="679.64" y2="1089.88"/>
  <polyline class="st4" points="679.64 1028.27 679.64 1027.23 680.14 1027.23"/>
  <polyline class="st4" points="680.58 1090.44 679.64 1090.44 679.64 1089.88"/>
  <line class="st4" x1="680.58" y1="1090.44" x2="735.96" y2="1090.44"/>
  <line class="st4" x1="711.83" y1="1027.23" x2="711.83" y2="1044.79"/>
  <g class="st14">
    <path class="st4" d="M715.68,1044.7c0-2.17-1.76-3.93-3.93-3.93s-3.93,1.76-3.93,3.93,1.76,3.93,3.93,3.93,3.93-1.76,3.93-3.93Z"/>
    <path class="st4" d="M715.68,1044.7c0-2.17-1.76-3.93-3.93-3.93s-3.93,1.76-3.93,3.93,1.76,3.93,3.93,3.93,3.93-1.76,3.93-3.93Z"/>
  </g>
  <g class="st20">
    <path class="st21" d="M717.14,1111.79h15.51c.58,0,1.06.35,1.06.78v34.13c0,.44-.48.79-1.06.79h-15.51c-.59,0-1.06-.35-1.06-.79v-34.13c0-.43.47-.78,1.06-.78M724.61,1126.84c-1.55,0-2.8,1.25-2.8,2.8s1.25,2.81,2.8,2.81,2.81-1.26,2.81-2.81-1.26-2.8-2.81-2.8"/>
    <path class="st21" d="M736.32,1129.63c0-1.16.95-2.1,2.11-2.1s2.1.95,2.1,2.1-.94,2.11-2.1,2.11-2.11-.94-2.11-2.11"/>
    <path class="st21" d="M724.61,1128.13c.83,0,1.51.67,1.51,1.5s-.68,1.51-1.51,1.51-1.5-.68-1.5-1.51.67-1.5,1.5-1.5"/>
    <path class="st21" d="M723.11,1129.63c0,.83.67,1.51,1.5,1.51s1.51-.68,1.51-1.51-.68-1.5-1.51-1.5-1.5.67-1.5,1.5M727.42,1129.63c0,1.55-1.26,2.81-2.81,2.81s-2.8-1.26-2.8-2.81,1.25-2.8,2.8-2.8,2.81,1.25,2.81,2.8"/>
    <path class="st21" d="M736.32,1129.63c0,1.17.95,2.11,2.11,2.11s2.1-.95,2.1-2.11-.95-2.1-2.1-2.1-2.11.95-2.11,2.1M742.53,1111.16v37.12h-26.45c-.59,0-1.06-.35-1.06-.78v-35.7c0-.35.47-.63,1.06-.63h26.45ZM716.08,1146.7c0,.44.47.79,1.06.79h15.5c.58,0,1.06-.35,1.06-.79v-34.13c0-.43-.48-.78-1.06-.78h-15.5c-.6,0-1.06.35-1.06.78v34.13Z"/>
  </g>
  <g class="st17">
    <path class="st4" d="M738.43,1131.75c-1.17,0-2.11-.95-2.11-2.11s.94-2.1,2.11-2.1,2.1.94,2.1,2.1-.95,2.11-2.1,2.11Z"/>
    <path class="st4" d="M724.61,1132.44c-1.55,0-2.8-1.26-2.8-2.81s1.25-2.8,2.8-2.8,2.81,1.25,2.81,2.8-1.26,2.81-2.81,2.81Z"/>
    <path class="st4" d="M724.61,1131.14c-.83,0-1.5-.68-1.5-1.51s.67-1.5,1.5-1.5,1.51.67,1.51,1.5-.68,1.51-1.51,1.51Z"/>
    <path class="st4" d="M732.65,1111.79h-15.5c-.59,0-1.06.35-1.06.78v34.13c0,.44.47.79,1.06.79h15.5c.58,0,1.06-.35,1.06-.79v-34.13c0-.43-.48-.78-1.06-.78Z"/>
  </g>
  <line class="st4" x1="734.36" y1="1148.27" x2="742.53" y2="1148.27"/>
  <g class="st16">
    <path class="st4" d="M742.53,1111.16h-26.45c-.59,0-1.06.28-1.06.63v35.7c0,.43.47.78,1.06.78h8.38"/>
  </g>
  <line class="st4" x1="734.36" y1="1148.27" x2="724.46" y2="1148.27"/>
  <line class="st4" x1="742.53" y1="1148.27" x2="742.53" y2="1111.16"/>
  <line class="st4" x1="464.27" y1="1064.9" x2="453.6" y2="1064.9"/>
  <rect class="st4" x="446.52" y="1044.11" width="47.78" height="117.89"/>
  <line class="st4" x1="461.53" y1="1133.96" x2="461.53" y2="1123.53"/>
  <line class="st4" x1="481.14" y1="1133.96" x2="481.14" y2="1123.53"/>
  <line class="st4" x1="475.99" y1="1128.82" x2="486.42" y2="1128.82"/>
  <line class="st4" x1="456.24" y1="1128.82" x2="466.67" y2="1128.82"/>
  <rect class="st4" x="451.65" y="1116.99" width="39.36" height="22.95"/>
  <rect class="st4" x="457.38" y="1051.7" width="26.55" height="26.54"/>
  <rect class="st4" x="450.78" y="1044.96" width="39.75" height="39.89"/>
  <g class="st19">
    <path class="st21" d="M498.51,809.83c5.45-2.34,11.42-3.55,17.47-3.4,5.87-.15,11.56.92,16.86,3.09,5.15,2.12,9.91,5.28,14.02,9.39,4.1,4.1,7.27,8.87,9.39,14.02,2.17,5.3,3.25,11,3.09,16.87.15,6.05-1.07,12.01-3.41,17.46-2.15,5-5.24,9.59-9.07,13.42-4.93,4.93-10.82,8.51-17.26,10.6-4.41,1.44-9.08,2.17-13.91,2.17-7.57,0-14.99-2-21.57-5.83-3.24-1.88-6.28-4.2-9.02-6.94-2.74-2.74-5.06-5.78-6.94-9.02-3.83-6.58-5.82-14.01-5.82-21.57,0-4.83.73-9.51,2.16-13.92,2.09-6.45,5.67-12.33,10.6-17.27,3.83-3.83,8.42-6.93,13.43-9.07"/>
    <path class="st21" d="M500.24,797.81c9.5-6.53,21.68-6.83,30.89,0,.3.3,0,.59-.3.3-.29.3-.59,0-.89.3-.29-.3-.59,0-.89-.3-.89-.3-2.08-.88-3.27-1.48-.9-.3-2.08.29-2.38,1.18-.3.3-.3.89.3.9,4.39,2.64,7.63,6.43,9.14,10.8-5.3-2.17-11-3.24-16.86-3.08-6.05-.15-12.01,1.06-17.47,3.4l-.06-.14c2.08-4.45,5.35-8.32,9.5-10.69.3-.3.3-.89,0-1.19-.29-.89-1.19-1.19-2.37-1.19-.89.3-2.08.89-2.97,1.78q-.59,0-.89-.3c-.3.3-.59,0-.89.3l-.59-.59"/>
    <path class="st21" d="M567.95,834.63c6.83,9.21,6.53,21.39,0,30.89l-.59-.59c.29-.3,0-.6.29-.89q-.29-.3-.29-.89c.89-.89,1.48-2.08,1.78-2.97,0-1.19-.3-2.08-1.19-2.37-.3-.3-.89-.3-1.19,0-2.37,4.16-5.94,7.72-10.69,9.51l-.14-.06c2.34-5.45,3.56-11.41,3.41-17.46.15-5.87-.92-11.57-3.1-16.87,4.38,1.51,8.17,4.75,10.81,9.15,0,.6.59.6.89.3.89-.3,1.48-1.48,1.19-2.37-.6-1.19-1.19-2.39-1.49-3.28-.29-.29,0-.59-.29-.89.29-.3,0-.59.29-.89-.29-.3.3-.3.3-.3"/>
    <path class="st21" d="M462.52,868.79c-6.83-9.21-6.83-21.67,0-30.89l.59.6v.59q0,.6-.29.89c-.6,1.18-1.19,2.38-1.49,3.26-.3.89.3,2.08,1.19,2.37.3.3.89.3,1.19,0,2.08-4.45,5.94-7.72,10.69-9.5l.09.04c-1.43,4.41-2.16,9.09-2.16,13.92,0,7.57,1.99,14.99,5.82,21.57l-.18.11c-5.94-1.19-11.58-5.05-14.55-10.39,0-.59-.59-.59-.89-.3-.89.3-1.49,1.49-1.19,2.38.59,1.19.89,2.08,1.49,3.26q.29.3.29.89s0,.6-.29.89l-.3.3Z"/>
    <path class="st21" d="M527.56,902.94l.3.3c-9.21,6.83-21.68,6.83-30.89,0l.3-.3c.3-.3.89-.3.89-.3q.59,0,.89.3c1.19.59,2.08.89,3.26,1.48.9.3,2.08-.29,2.38-1.18.3-.3.29-.9-.3-.9-5.34-2.97-9.2-8.61-10.39-14.55l.1-.19c6.58,3.83,14,5.83,21.57,5.83,4.83,0,9.51-.73,13.91-2.17l.04.09c-1.78,4.75-5.04,8.61-9.5,10.69-.29.3-.29.89,0,1.19.3.89,1.49,1.48,2.38,1.19.89-.3,2.08-.89,3.26-1.48q.3-.3.89-.3s.59,0,.89.3"/>
  </g>
  <g class="st18">
    <path class="st4" d="M567.35,863.14q0,.59.3.89"/>
    <path class="st4" d="M556.25,832.92c-2.12-5.15-5.28-9.92-9.38-14.02-4.11-4.11-8.87-7.27-14.02-9.39-5.29-2.17-11-3.24-16.86-3.09-6.05-.15-12.01,1.06-17.47,3.41-5.01,2.14-9.59,5.24-13.42,9.07-4.93,4.93-8.51,10.82-10.6,17.26-1.43,4.41-2.16,9.09-2.16,13.92,0,7.57,1.99,14.99,5.82,21.57,1.88,3.24,4.2,6.27,6.94,9.02,2.74,2.74,5.78,5.07,9.02,6.94,6.59,3.82,14.01,5.83,21.58,5.83,4.83,0,9.5-.73,13.91-2.17,6.45-2.09,12.33-5.67,17.27-10.6,3.83-3.83,6.93-8.42,9.07-13.42,2.34-5.46,3.56-11.41,3.41-17.46.15-5.86-.93-11.57-3.1-16.87Z"/>
    <path class="st4" d="M531.13,797.81c-9.21-6.83-21.39-6.53-30.89,0"/>
    <path class="st4" d="M532.9,809.69c-.02-.06-.04-.12-.06-.18-1.51-4.37-4.75-8.17-9.14-10.8"/>
    <path class="st4" d="M523.4,797.81c-.3.3-.3.89.31.9"/>
    <path class="st4" d="M529.05,798.11c-.89-.3-2.08-.89-3.27-1.48"/>
    <path class="st4" d="M525.78,796.63c-.9-.3-2.08.29-2.38,1.18"/>
    <path class="st4" d="M530.83,798.11c.3.3.59,0,.3-.3"/>
    <path class="st4" d="M529.94,798.4c.3-.3.59,0,.89-.3"/>
    <path class="st4" d="M529.05,798.11c.3.3.59,0,.89.3"/>
    <path class="st4" d="M507.96,799c.3-.3.3-.89,0-1.19"/>
    <path class="st4" d="M505.58,796.62c-.89.3-2.08.89-2.97,1.78"/>
    <path class="st4" d="M507.96,797.81c-.3-.89-1.19-1.19-2.37-1.19"/>
  </g>
  <line class="st4" x1="500.24" y1="797.81" x2="500.83" y2="798.4"/>
  <g class="st7">
    <path class="st4" d="M500.83,798.4c.3-.3.59,0,.89-.3"/>
    <path class="st4" d="M501.73,798.11q.3.3.89.3"/>
    <path class="st4" d="M507.96,799c-4.16,2.38-7.43,6.24-9.51,10.7"/>
    <path class="st4" d="M462.52,837.9c-6.83,9.21-6.83,21.67,0,30.89"/>
    <path class="st4" d="M463.41,861.37c2.97,5.35,8.61,9.2,14.55,10.39"/>
    <path class="st4" d="M463.41,861.37c0-.59-.59-.59-.89-.3"/>
    <path class="st4" d="M461.34,863.45c.59,1.19.89,2.08,1.49,3.26"/>
    <path class="st4" d="M462.52,861.07c-.89.3-1.49,1.48-1.19,2.37"/>
  </g>
  <line class="st4" x1="462.52" y1="868.79" x2="462.82" y2="868.49"/>
  <g class="st5">
    <path class="st4" d="M462.82,868.49c.3-.3.3-.89.3-.89"/>
    <path class="st4" d="M463.12,867.6q0-.59-.3-.89"/>
    <path class="st4" d="M462.52,845.62c.3.3.89.3,1.19,0"/>
    <path class="st4" d="M462.82,839.98c-.59,1.19-1.19,2.38-1.48,3.26"/>
    <path class="st4" d="M461.34,843.25c-.3.89.3,2.08,1.19,2.37"/>
  </g>
  <line class="st4" x1="463.12" y1="838.5" x2="462.52" y2="837.91"/>
  <line class="st4" x1="463.12" y1="839.09" x2="463.12" y2="838.5"/>
  <g class="st11">
    <path class="st4" d="M462.82,839.98q.3-.3.3-.89"/>
    <path class="st4" d="M474.4,836.12c-4.75,1.78-8.61,5.05-10.69,9.5"/>
    <path class="st4" d="M567.95,865.52c6.53-9.5,6.83-21.68,0-30.88"/>
    <path class="st4" d="M567.06,842.07c-2.64-4.4-6.44-7.64-10.81-9.15-.06-.02-.12-.04-.18-.06"/>
    <path class="st4" d="M567.06,842.07c0,.6.59.6.89.3"/>
    <path class="st4" d="M569.13,839.99c-.6-1.19-1.19-2.39-1.48-3.28"/>
    <path class="st4" d="M567.95,842.36c.89-.3,1.48-1.48,1.19-2.38"/>
    <path class="st4" d="M567.95,834.63s-.59,0-.3.3"/>
    <path class="st4" d="M567.65,834.93c-.3.3,0,.6-.3.89"/>
    <path class="st4" d="M567.35,835.82c.3.3,0,.59.3.89"/>
    <path class="st4" d="M567.95,857.8c-.3-.3-.89-.3-1.19,0"/>
    <path class="st4" d="M567.35,863.14c.89-.89,1.48-2.08,1.78-2.97"/>
    <path class="st4" d="M569.13,860.17c0-1.19-.3-2.08-1.19-2.37"/>
  </g>
  <line class="st4" x1="567.35" y1="864.92" x2="567.95" y2="865.52"/>
  <g class="st9">
    <path class="st4" d="M567.65,864.03c-.3.3,0,.6-.3.89"/>
    <path class="st4" d="M556.07,867.3c4.75-1.78,8.32-5.35,10.69-9.51"/>
    <path class="st4" d="M496.97,903.24c9.21,6.83,21.68,6.83,30.88,0"/>
    <path class="st4" d="M494,887.8c1.19,5.94,5.04,11.58,10.39,14.54"/>
    <path class="st4" d="M504.69,903.24c.3-.3.29-.9-.3-.9"/>
    <path class="st4" d="M499.05,902.94c1.19.59,2.08.89,3.26,1.48"/>
    <path class="st4" d="M502.31,904.42c.9.3,2.08-.29,2.38-1.18"/>
  </g>
  <line class="st4" x1="497.27" y1="902.94" x2="496.97" y2="903.24"/>
  <g class="st10">
    <path class="st4" d="M498.16,902.64s-.59,0-.89.3"/>
    <path class="st4" d="M499.05,902.94q-.3-.3-.89-.3"/>
    <path class="st4" d="M520.14,902.05c-.3.3-.3.89,0,1.19"/>
    <path class="st4" d="M522.51,904.42c.89-.3,2.08-.89,3.26-1.48"/>
    <path class="st4" d="M520.14,903.24c.3.89,1.49,1.48,2.37,1.19"/>
  </g>
  <line class="st4" x1="527.85" y1="903.24" x2="527.56" y2="902.94"/>
  <g class="st8">
    <path class="st4" d="M527.56,902.94c-.3-.3-.89-.3-.89-.3"/>
    <path class="st4" d="M526.67,902.64q-.59,0-.89.3"/>
    <path class="st4" d="M520.14,902.05c4.45-2.08,7.72-5.94,9.5-10.69"/>
    <path class="st21" d="M652.44,921.16c9.36,0,16.94,7.58,16.94,16.94s-7.58,16.94-16.94,16.94-16.94-7.58-16.94-16.94,7.58-16.94,16.94-16.94"/>
    <circle class="st4" cx="652.44" cy="938.1" r="16.94"/>
  </g>
  <path class="st4" d="M630.89,1021.03v-51.98M630.89,969.05h119.48M750.37,969.05v51.98M750.37,1021.03h-119.48M695.02,726.71v16.2M695.02,742.91h55.35M446.6,742.91h51.31M497.9,742.91v-16.2M446.6,1177.98h94.85M542.46,1162.12h-95.86M615.02,1177.98h152.9M614.01,1162.12h1.01M767.93,1162.12v-419.21M446.6,935.3h-16.2M430.4,935.3v81.34M446.6,771.6v-28.69M430.4,771.6h16.2M691.31,625.11l-13.17,1.35M678.14,626.46l-12.49,3.38M665.65,629.84l-11.81,5.4M653.84,635.24l-10.8,7.76M643.04,643l-9.45,9.11M633.59,652.11l-7.43,10.8M626.16,662.91l-5.74,11.82M620.42,674.73l-3.38,12.83M617.05,687.56l-1.01,13.16M691.31,700.72v-75.61M686.58,701.06v4.05M621.1,701.06h65.48M621.1,705.11v-4.05M686.58,705.11h-65.48M617.39,712.19h72.57M686.58,700.72h-65.48M686.58,706.79h-65.48M617.39,706.79v5.4M689.95,706.79v5.4M689.95,706.79h-72.57M694.01,700.72v11.48M686.58,700.72h7.43M686.58,706.79v-6.07M689.95,706.79h-3.38M689.95,712.19v-5.4M694.01,712.19h-4.05M617.39,706.79v5.4M621.1,706.79h-3.71M621.1,700.72v6.07M613.67,700.72h7.42M613.67,712.19v-11.48M617.39,712.19h-3.71M502.63,705.11h105.98M608.61,705.11v-4.05M608.61,701.06h-105.98M502.63,701.06v4.05M608.61,712.19h-105.98M502.63,700.72h105.98M608.61,712.19h4.05M612.66,712.19v-11.48M612.66,700.72h-4.05M608.61,700.72v11.48M498.58,712.19h4.05M502.63,712.19v-11.48M502.63,700.72h-4.05M498.58,700.72v11.48M475.29,612.29v84.04M716.62,696.33v-84.04M716.62,588.16h-241.33M471.24,696.33h4.05M475.29,696.33v-108.17M716.62,588.16v108.17-108.17ZM716.62,696.33h4.05M720.67,696.33v-111.89M471.24,584.54v111.79M630.89,969.05l119.48,51.98M630.89,969.05h119.48M750.37,969.05v51.98M750.37,1021.03h-119.48M630.89,1021.03v-51.98M611.31,1095.63l-12.83,1.35M598.48,1096.98l-12.49,3.71M586,1100.69l-11.47,6.08M574.52,1106.76l-10.13,8.44M564.39,1115.2l-8.44,9.79M555.96,1124.99l-6.07,11.81M549.88,1136.8l-3.71,12.49M546.17,1149.29l-1.35,12.83M542.46,1162.12v15.87M614.01,1177.98v-15.87M611.31,1162.12v-66.49M608.27,1162.12h3.04M615.02,1162.12h-1.01"/>
  <path class="st4" d="M446.6,990.32h1.01M449.97,990.32h2.36M454.7,990.32h2.7M459.76,990.32h2.36M464.49,990.32h2.36M469.21,990.32h2.36M473.94,990.32h2.36M478.66,990.32h2.36M483.39,990.32h2.7M488.45,990.32h2.36M493.18,990.32h1.01M494.19,990.32v-1.35M494.19,986.61v-2.37M494.19,981.88v-2.36M494.19,977.15v-2.36M494.19,972.43v-2.36M494.19,967.7v-2.36M494.19,962.64v-2.37M494.19,957.92v-2.36M494.19,953.19v-2.36M494.19,948.46v-2.36M494.19,943.74v-1.35M494.19,942.39h-1.01M490.81,942.39h-2.36M486.09,942.39h-2.7M481.03,942.39h-2.36M476.3,942.39h-2.36M471.58,942.39h-2.36M466.85,942.39h-2.36M462.12,942.39h-2.36M457.4,942.39h-2.7M452.34,942.39h-2.36M447.61,942.39h-1.01M446.6,942.39v1.35M446.6,946.1v2.36M446.6,950.83v2.36M446.6,955.55v2.36M446.6,960.28v2.37M446.6,965.34v2.36M446.6,970.07v2.36M446.6,974.79v2.36M446.6,979.52v2.36M446.6,984.24v2.37M446.6,988.97v1.35M446.6,1038.25h1.01M449.97,1038.25h2.36M454.7,1038.25h2.7M459.76,1038.25h2.36M464.49,1038.25h2.36M469.21,1038.25h2.36M473.94,1038.25h2.36M478.66,1038.25h2.36M483.39,1038.25h2.7M488.45,1038.25h2.36M493.18,1038.25h1.01M494.19,1038.25v-1.35M494.19,1034.53v-2.36M494.19,1029.81v-2.36M494.19,1025.08v-2.36M494.19,1020.36v-2.7M494.19,1015.3v-2.36M494.19,1010.57v-2.36M494.19,1005.84v-2.36M494.19,1001.12v-2.36M494.19,996.39v-2.36M494.19,991.67v-1.35M494.19,990.32h-1.01M490.81,990.32h-2.36M486.09,990.32h-2.7M481.03,990.32h-2.36M476.3,990.32h-2.36M471.58,990.32h-2.36M466.85,990.32h-2.36M462.12,990.32h-2.36M457.4,990.32h-2.7M452.34,990.32h-2.36M447.61,990.32h-1.01M446.6,990.32v1.35M446.6,994.03v2.36M446.6,998.76v2.36M446.6,1003.48v2.36M446.6,1008.21v2.36M446.6,1012.93v2.36M446.6,1017.66v2.7M446.6,1022.72v2.36M446.6,1027.45v2.36M446.6,1032.17v2.36M446.6,1036.9v1.35M446.6,1043.98h55.69M502.29,1043.98v-5.74M502.29,1038.25h-55.69M412.17,775.31l-1.35,2.36M409.47,780.04l-1.01,2.02M407.11,784.09l-1.35,2.02M404.74,788.14l-1.35,2.02M402.38,792.19l-1.35,2.36M400.02,796.58l-1.35,2.02M397.66,800.63l-1.35,2.03M395.29,804.68l-1.35,2.03M392.59,808.73l-1.01,2.37M390.23,813.11l-1.01,2.03M387.87,817.16l-1.01,2.03M385.51,821.22l-1.01,2.02M383.14,825.6l-1.01,2.02M380.78,829.65l-1.01,2.02M378.42,833.71l-1.35,2.02M376.05,837.76l-1.69,2.7M412.17,850.58h-1.69M408.12,850.24l-2.36-.34M403.39,849.91l-2.36-.34M398.67,849.23l-2.36-.68M393.94,847.88l-2.36-.34"/>
  <path class="st4" d="M389.22,846.87l-2.36-.68M384.83,845.18l-2.36-1.01M380.44,843.16l-2.03-1.01M376.06,841.13l-1.69-.68M416.56,930.24h-3.71M416.56,854.63v75.61M412.85,854.63h3.71M412.85,930.24v-75.61M412.85,780.04h3.71M412.85,845.52v-65.48M416.56,845.52h-3.71M416.56,780.04v65.48M423.98,848.89v-72.23M423.98,848.89v-72.23M423.98,930.24v-75.61M412.17,776.66v72.23M412.17,780.04v65.48M412.17,854.63v75.61M418.58,848.89h5.4M418.58,776.66h5.4M418.58,780.04v65.48M418.58,776.66v72.23M418.58,848.89h5.4M418.58,845.52v3.38M412.17,845.52h6.41M412.17,854.63v-9.11M423.98,854.63h-11.81M423.98,848.89v5.74M412.17,930.24h11.81M412.17,934.29v-4.05M423.98,934.29h-11.81M423.98,930.24v4.05M412.17,772.61h11.81M412.17,780.04v-7.43M418.58,780.04h-6.41M418.58,776.66v3.38M423.98,776.66h-5.4M423.98,772.61v4.05M412.17,850.58v-75.27M412.17,774.64v76.28M412.17,775.31v75.27M412.17,776.66v72.23M412.17,848.89v-72.23M412.17,850.92v-76.28M412.17,845.52v-65.48M412.17,780.04v65.48M497.9,742.91h-51.31M446.6,742.91v28.69M446.6,771.6h-24.64M421.96,771.6v1.01M421.96,934.29v1.01M421.96,935.3h24.64M446.6,935.3v102.94M446.6,1043.98v118.14M544.82,1162.12h63.46M614.01,1162.12h8.77M622.79,961.29h127.59M750.37,961.29v-218.38M695.02,742.91v-32.4M695.02,710.51h-1.01M613.68,710.51h-1.01M498.58,710.51h-.67M497.9,710.51v32.4M767.93,1177.98h-153.91M615.03,1162.12h-1.01M542.46,1177.98h-91.81M446.6,1093.26v47.59"/>
  <path class="st4" d="M446.6,1045.33v95.52M622.79,1155.37v6.75M622.79,1146.59v8.77M622.79,1021.03v54.68M628.19,1078.07v62.78M748.69,1021.03h-117.8M693.67,1143.89l-1.01-12.82M692.66,1131.07l-3.71-12.15M688.94,1118.91l-6.08-11.47M682.87,1107.44l-8.44-10.13M674.43,1097.31l-9.79-8.1M664.64,1089.21l-11.47-6.08M653.17,1083.14l-12.15-3.71M641.01,1079.42l-12.83-1.35M629.2,1075.71h-6.41M622.79,1146.59h6.41M628.19,1143.89h65.48M628.19,1140.85v3.04M628.19,1140.85v-62.78"/>
  <path class="st4" d="M629.2,1027.45h113.07M629.2,1075.71v-48.27M629.2,1154.02v-7.43M742.27,1154.02h-113.07M742.27,1027.45v126.57"/>
  <path class="st4" d="M767.92,961.29v7.76M750.37,961.29h-7.76M742.61,961.29v7.76M742.61,969.05h7.76M694.68,961.29h-63.79M630.89,969.05h63.79M694.68,969.05v-7.76M694.68,961.29h47.93M742.61,969.05h-47.93M742.61,961.29v7.76M694.68,969.05v-7.76M622.79,961.29v59.74M630.89,961.29h-8.1M407.78,726.71v44.89M407.78,771.6h22.61M407.78,1016.64v161.34M430.4,1016.64h-22.61M407.78,1016.64h2.02M416.56,935.3v-1.01M416.56,772.61v-1.01M416.56,771.6h-8.78M430.4,935.3h-13.84M416.56,771.6v1.01M416.56,934.29v1.01M416.56,771.6h5.4M497.9,726.71v-30.38M497.9,696.33h-90.12M407.78,696.33v30.38M767.92,696.33h-72.91M695.02,696.33v30.38M695.02,705.11v-8.78M695.02,705.11h-1.01M613.67,705.11h-1.01M498.58,705.11h-.68M497.9,710.51v-5.4M695.02,705.11v5.4M497.9,696.33v8.78M497.9,705.11h.68M612.66,705.11h1.01M694.01,705.11h1.01M418.58,1016.64h11.81M430.4,1016.64v-81.34"/>
  <path class="st4" d="M430.4,935.3h-11.81M418.58,935.3v81.34M409.81,1016.65h8.77M418.58,1016.65v-81.34M418.58,935.3h-8.77M409.81,935.3v81.34M767.93,696.33v481.65M450.65,1177.98h-42.86"/>
  <g class="st6">
    <path class="st3" d="M1127.05,616.67h-6.07M1103.43,537.35l-16.2,7.09M1091.61,561.99l-4.38-17.55M1063.94,533.3l27.68,28.69M1063.94,533.3l39.49,4.05M1063.94,533.3l23.29,11.14M1127.05,855.98h-6.07M1127.05,696.33h-6.07M1127.05,775.99h-6.07M1127.05,855.98v-239.31M.72,1315.69h1183.71"/>
    <path d="M1105.66,1264.78c.43-.28.75-.67.96-1.17.21-.5.32-1.12.32-1.85,0-.58-.11-1.1-.32-1.57-.21-.47-.5-.82-.89-1.07-.38-.25-.78-.37-1.21-.37s-.81.11-1.14.34c-.33.23-.61.58-.82,1.05-.15.33-.32.93-.51,1.8-.19.87-.39,1.42-.57,1.62-.19.21-.43.32-.72.32-.33,0-.62-.15-.85-.45-.24-.3-.36-.77-.36-1.42s.13-1.1.39-1.42c.26-.32.64-.51,1.16-.56l-.07-1.03c-.47.02-.9.15-1.27.4-.37.25-.65.6-.85,1.06-.19.46-.29.99-.29,1.6,0,.55.09,1.05.27,1.49.18.45.45.79.81,1.02.35.23.73.35,1.14.35.37,0,.71-.1,1-.28.3-.19.55-.48.75-.87.16-.3.33-.82.5-1.57.18-.75.31-1.23.4-1.45.13-.34.28-.59.47-.73.19-.15.41-.22.66-.22s.48.08.69.23c.21.15.37.39.49.7.12.31.18.68.18,1.09,0,.46-.08.88-.24,1.25-.16.37-.37.65-.62.82s-.59.29-.99.34l.09,1.01c.54-.02,1.02-.16,1.45-.45M1106.81,1256.07h-2.79l-1.29-1.33,4.08-2.9v-1.42l-4.79,3.57-3.26-3.41v1.46l3.99,4.04h-3.99v1.08h8.06v-1.08Z"/>
    <path d="M1101.14,1246.55h.92v-5.37h-.92v5.37ZM1103.59,1246.55h.92v-5.37h-.92v5.37Z"/>
    <path d="M1105.66,1236.43c.43-.28.75-.67.96-1.17.21-.5.32-1.11.32-1.85,0-.58-.1-1.1-.31-1.57-.21-.47-.51-.82-.89-1.07-.38-.25-.78-.37-1.21-.37s-.81.11-1.14.34c-.33.23-.61.58-.82,1.05-.15.33-.32.93-.51,1.8-.2.88-.39,1.42-.57,1.63-.19.21-.43.31-.72.31-.34,0-.62-.15-.86-.45-.23-.3-.35-.77-.35-1.42s.13-1.1.39-1.42c.26-.32.64-.51,1.16-.56l-.08-1.03c-.47.02-.9.15-1.27.4-.37.25-.66.6-.85,1.07-.19.46-.29.99-.29,1.59,0,.55.09,1.05.27,1.49.18.45.45.79.8,1.02.36.23.73.35,1.14.35.37,0,.7-.1,1-.29.3-.19.55-.48.75-.87.15-.3.32-.83.5-1.57.18-.74.31-1.23.39-1.45.13-.34.29-.59.48-.73.19-.15.41-.22.66-.22s.48.07.69.23c.21.15.38.39.5.7.12.31.18.68.18,1.09,0,.46-.08.88-.24,1.25-.16.37-.37.64-.63.82-.26.17-.59.29-.99.34l.09,1.01c.54-.01,1.02-.16,1.45-.45"/>
    <path d="M1106.8,1228.21h-2.31l-.67-.71,2.99-1.95v-1.23l-3.67,2.48-2.17-2.26v1.29l2.38,2.37h-4.6v1h8.06v-1ZM1106.8,1219.09v-1.04c-.22.12-.46.21-.7.25-.24.04-.83.07-1.74.07h-1.32c-.44,0-.75.02-.91.05-.27.06-.49.16-.67.31-.18.15-.33.38-.44.69-.12.31-.18.72-.18,1.23s.07.95.21,1.33c.14.38.33.68.59.88.25.2.59.35,1,.44l.13-.98c-.42-.11-.7-.27-.87-.5-.16-.22-.24-.57-.24-1.04,0-.5.11-.88.33-1.14.17-.19.45-.28.85-.28.04,0,.12,0,.26,0,.13.38.24.97.34,1.78.05.4.09.69.15.89.07.27.18.5.33.72.14.21.33.38.57.52.24.13.5.2.78.2.49,0,.89-.17,1.2-.52s.47-.84.47-1.49c0-.39-.07-.76-.19-1.1-.13-.34-.35-.7-.66-1.07.27-.03.51-.1.72-.2M1104.24,1219.37c.44,0,.77.05.99.16.29.14.52.36.68.66.17.3.25.64.25,1.02s-.09.69-.26.89c-.18.2-.39.3-.66.3-.18,0-.33-.05-.47-.14-.14-.09-.25-.22-.33-.39-.07-.17-.14-.46-.2-.87-.1-.73-.22-1.27-.37-1.63h.36Z"/>
    <path d="M1106.81,1216.06h-2.31l-.67-.71,2.99-1.95v-1.23l-3.67,2.48-2.16-2.25v1.29l2.38,2.37h-4.6v1h8.06v-1ZM1105.96,1209.58c0,.15-.03.26-.07.34-.05.08-.11.14-.19.17-.08.03-.26.05-.54.05h-3.41v-1.01h-.77v1.01h-2.04l.59.99h1.45v.73h.77v-.73h3.36c.6,0,.98-.04,1.17-.12.19-.08.34-.22.45-.42.11-.2.17-.48.17-.84,0-.22-.03-.47-.09-.76l-.88.14c.03.18.04.33.04.44"/>
    <path d="M1119.97,1263.73h-3.66v-3.82h-.95v3.82h-2.49v-4.41h-.95v5.49h8.06v-1.08ZM1118.83,1258.03c.43-.28.75-.67.96-1.17.21-.5.32-1.11.32-1.85,0-.58-.1-1.11-.31-1.57-.21-.46-.51-.82-.89-1.07-.38-.25-.78-.37-1.21-.37s-.81.11-1.14.34c-.33.23-.61.58-.83,1.05-.14.33-.32.93-.51,1.8-.2.88-.39,1.42-.57,1.63-.19.21-.43.31-.72.31-.33,0-.62-.15-.85-.45-.23-.3-.35-.77-.35-1.42s.13-1.1.39-1.42c.26-.32.64-.51,1.16-.56l-.08-1.03c-.47.02-.9.15-1.27.4-.37.25-.66.6-.85,1.07-.19.46-.29.99-.29,1.59,0,.55.09,1.05.27,1.49.19.45.45.79.81,1.02.35.24.73.35,1.14.35.37,0,.7-.1,1-.29.3-.19.55-.48.75-.87.16-.3.33-.83.5-1.57.18-.74.31-1.23.4-1.45.13-.34.28-.59.48-.73.19-.15.41-.22.66-.22s.48.07.69.23c.21.15.38.39.5.7.12.31.18.68.18,1.09,0,.46-.08.88-.24,1.25-.16.37-.37.64-.63.82-.26.17-.59.29-.99.34l.09,1.01c.54-.01,1.02-.16,1.45-.45"/>
    <path d="M1114.31,1247.56h.92v-5.37h-.92v5.37ZM1116.75,1247.56h.92v-5.37h-.92v5.37Z"/>
    <polygon points="1119.97 1236.4 1116.31 1236.4 1116.31 1232.58 1115.36 1232.58 1115.36 1236.4 1112.86 1236.4 1112.86 1231.98 1111.91 1231.98 1111.91 1237.47 1119.97 1237.47 1119.97 1236.4"/>
    <path d="M1119.31,1230.17c.52-.51.79-1.18.79-2,0-.51-.12-.99-.36-1.42-.24-.43-.57-.76-1-.99-.43-.23-1.02-.34-1.77-.34-.93,0-1.65.26-2.18.77-.53.52-.79,1.18-.79,1.99,0,.73.22,1.35.65,1.85.52.61,1.32.91,2.4.91.98,0,1.74-.25,2.26-.76M1115.37,1229.41c-.37-.33-.55-.74-.55-1.24s.19-.9.56-1.23c.37-.33.92-.5,1.64-.5.77,0,1.34.16,1.71.49.38.33.56.74.56,1.24s-.19.91-.56,1.24c-.37.33-.93.49-1.68.49s-1.31-.16-1.68-.49M1119.97,1223.5h-3.05c-.42,0-.81-.06-1.16-.17-.23-.07-.41-.2-.54-.37-.13-.18-.2-.37-.2-.59,0-.24.07-.49.21-.73l-.92-.34c-.21.35-.32.69-.32,1.03,0,.23.07.45.2.64.13.19.4.4.82.63h-.89v.9h5.84v-1Z"/>
    <path d="M1119,1217.36c.19.26.28.57.28.94,0,.49-.17.9-.51,1.23-.34.33-.83.51-1.48.55v-4.39c-.11,0-.2,0-.26,0-.97,0-1.71.25-2.24.75-.53.5-.8,1.14-.8,1.93s.27,1.47.81,1.98c.54.51,1.31.77,2.29.77s1.69-.25,2.21-.76c.53-.5.79-1.19.79-2.05,0-.68-.17-1.25-.5-1.69-.33-.44-.79-.74-1.39-.9l-.13,1.03c.42.15.72.36.91.62M1115.27,1219.5c-.31-.31-.46-.7-.46-1.16,0-.51.19-.92.57-1.24.25-.21.62-.33,1.11-.38v3.29c-.51-.03-.91-.21-1.22-.52M1119.63,1213.99c.32-.4.47-.98.47-1.75,0-.46-.08-.88-.24-1.24-.16-.37-.38-.65-.68-.84-.29-.19-.6-.29-.93-.29s-.62.08-.85.24c-.23.16-.4.38-.52.66-.12.28-.27.77-.46,1.48-.13.49-.22.78-.25.88-.07.17-.16.3-.27.38-.1.08-.22.12-.35.12-.2,0-.38-.1-.53-.3-.15-.19-.22-.52-.22-.98,0-.39.08-.69.25-.9.17-.21.4-.34.71-.38l-.13-.97c-.38.06-.68.18-.9.34-.22.17-.41.42-.54.77-.13.35-.2.76-.2,1.22,0,.31.04.59.12.87.08.27.18.48.29.63.15.21.33.37.55.49.22.12.46.18.72.18.28,0,.55-.07.78-.22.23-.15.42-.36.55-.64.13-.28.29-.79.48-1.52.14-.55.25-.89.33-1.02.13-.2.31-.29.53-.29.25,0,.47.11.65.33.19.22.28.56.28,1.02s-.1.81-.31,1.06c-.21.25-.51.41-.9.46l.16.99c.62-.11,1.09-.37,1.4-.77M1111.91,1208.61h8.06v-1h-8.06v1ZM1119.97,1201.93v-1.04c-.22.13-.46.21-.7.25-.24.04-.83.06-1.74.06h-1.32c-.44,0-.74.02-.91.05-.27.06-.5.17-.67.31-.18.15-.33.38-.44.69-.12.31-.18.72-.18,1.23s.07.95.21,1.34c.14.38.33.68.59.88.25.21.59.35,1,.44l.13-.98c-.42-.11-.7-.27-.87-.5-.17-.22-.24-.57-.24-1.04,0-.5.11-.88.34-1.14.16-.19.45-.28.85-.28.04,0,.12,0,.26,0,.13.38.24.97.34,1.78.05.4.1.69.15.89.07.26.18.5.32.72.15.21.33.38.57.52.24.13.5.2.78.2.49,0,.89-.17,1.2-.52s.47-.84.47-1.49c0-.39-.06-.76-.19-1.1-.13-.34-.35-.7-.66-1.07.27-.03.51-.1.72-.2M1117.4,1202.21c.44,0,.77.06.99.16.29.14.52.36.69.66.16.3.25.64.25,1.03s-.09.69-.26.89c-.18.2-.39.3-.66.3-.17,0-.33-.04-.47-.14-.14-.09-.25-.22-.32-.39-.07-.17-.14-.46-.2-.87-.1-.72-.22-1.27-.37-1.63h.36ZM1113.35,1204.3c.2-.19.29-.43.29-.71s-.1-.5-.29-.7c-.2-.2-.44-.3-.72-.3s-.52.1-.71.3c-.2.2-.29.43-.29.7s.1.5.29.7.42.3.69.3c.29,0,.54-.1.74-.3M1112.2,1204c-.11-.12-.17-.26-.17-.41s.06-.3.18-.42c.12-.11.26-.17.43-.17s.3.06.42.17c.12.12.17.25.17.42s-.06.29-.17.41c-.12.12-.26.17-.44.17-.16,0-.3-.06-.42-.17M1119,1196.14c.19.26.28.57.28.94,0,.49-.17.9-.51,1.23-.34.33-.83.51-1.48.55v-4.4c-.11,0-.2,0-.26,0-.97,0-1.71.25-2.24.75-.53.5-.8,1.15-.8,1.93s.27,1.48.81,1.98c.54.51,1.31.76,2.29.76s1.69-.25,2.21-.76c.53-.5.79-1.19.79-2.05,0-.68-.17-1.25-.5-1.69-.33-.44-.79-.74-1.39-.9l-.13,1.03c.42.15.72.36.91.61M1115.27,1198.29c-.31-.31-.46-.7-.46-1.16,0-.51.19-.92.57-1.24.25-.21.62-.33,1.11-.38v3.29c-.51-.03-.91-.21-1.22-.52"/>
    <path d="M1119.12,1191.36c0,.15-.03.26-.07.34-.05.08-.11.14-.19.17-.08.03-.26.05-.54.05h-3.41v-1.01h-.77v1.01h-2.04l.59,1h1.45v.73h.77v-.73h3.36c.6,0,.99-.04,1.17-.12.18-.08.33-.22.45-.42.11-.2.17-.48.17-.84,0-.22-.03-.47-.09-.75l-.87.14c.03.18.04.33.04.44M1119.63,1186.66c.32-.4.47-.98.47-1.75,0-.46-.08-.88-.24-1.25-.16-.37-.38-.65-.67-.84-.29-.2-.6-.29-.93-.29s-.62.08-.85.24c-.23.16-.4.38-.52.66s-.27.77-.46,1.48c-.14.49-.22.78-.26.88-.07.17-.15.3-.26.38-.1.08-.21.12-.35.12-.2,0-.38-.1-.53-.3s-.22-.52-.22-.98c0-.39.08-.69.25-.9.17-.21.4-.34.7-.38l-.13-.98c-.38.06-.68.18-.9.34-.22.17-.4.43-.54.78-.13.35-.2.76-.2,1.22,0,.31.04.59.12.86.08.27.18.48.29.63.15.21.33.37.55.49.22.12.46.18.72.18.29,0,.55-.07.78-.22.24-.14.42-.36.56-.65.13-.28.29-.79.48-1.52.13-.54.25-.88.34-1.02.13-.19.31-.29.53-.29.25,0,.47.11.65.33.19.22.28.56.28,1.02s-.11.81-.32,1.06c-.21.25-.51.41-.9.46l.15.99c.62-.11,1.09-.36,1.4-.77"/>
    <path d="M1119.97,1179.94h-2.31l-.67-.71,2.99-1.95v-1.23l-3.67,2.48-2.17-2.25v1.29l2.38,2.36h-4.6v1h8.06v-1ZM1119.97,1171.16v-1.04c-.22.12-.46.21-.7.25-.25.04-.83.07-1.75.07h-1.32c-.44,0-.74.02-.91.05-.27.06-.5.16-.67.31-.18.15-.33.38-.44.69-.12.31-.18.72-.18,1.23s.07.95.21,1.33c.14.38.34.68.59.88.25.2.59.35,1,.44l.13-.98c-.41-.11-.7-.27-.87-.5-.16-.22-.24-.57-.24-1.04,0-.5.11-.88.33-1.14.17-.19.45-.28.85-.28.04,0,.12,0,.26,0,.13.38.25.97.35,1.78.05.4.09.69.15.89.07.27.18.5.33.72.14.21.33.38.57.52.23.13.49.2.78.2.49,0,.89-.17,1.2-.52.31-.35.47-.84.47-1.49,0-.39-.07-.76-.19-1.1-.13-.34-.35-.7-.66-1.07.27-.03.51-.1.72-.2M1117.4,1171.44c.44,0,.77.05.99.16.29.14.52.36.69.66.17.3.25.64.25,1.02s-.09.69-.26.89c-.18.2-.39.3-.66.3-.17,0-.33-.05-.47-.14-.14-.09-.25-.22-.32-.39-.07-.17-.14-.46-.2-.87-.1-.73-.23-1.27-.37-1.63h.36Z"/>
    <path d="M1119.24,1168.21c.57-.39.86-.94.86-1.64s-.27-1.3-.82-1.8c-.55-.5-1.32-.75-2.32-.75-.42,0-.82.06-1.19.18-.37.12-.68.28-.95.49-.26.21-.47.47-.61.8-.15.32-.22.67-.22,1.03,0,.65.26,1.19.79,1.61h-2.88v1h8.06v-.93h-.73ZM1115.38,1167.75c-.37-.32-.56-.69-.56-1.13s.18-.8.54-1.11c.36-.3.93-.46,1.69-.46s1.3.16,1.68.48c.38.32.56.69.56,1.13,0,.53-.25.96-.76,1.27-.31.19-.82.29-1.52.29s-1.25-.16-1.63-.48"/>
    <path d="M1118.93,857.41c.56-.45.83-1.06.83-1.85,0-.6-.16-1.09-.48-1.48-.32-.39-.76-.68-1.34-.88-.58-.2-1.34-.29-2.29-.29-.8,0-1.43.06-1.9.18-.47.12-.87.29-1.2.5-.33.21-.58.49-.76.81-.17.33-.26.71-.26,1.15,0,.59.15,1.08.47,1.47.31.39.76.69,1.34.88.58.2,1.35.29,2.3.29,1.51,0,2.61-.27,3.28-.8M1112.93,856.67c-.38-.28-.58-.64-.58-1.1s.22-.85.65-1.17,1.32-.47,2.64-.47,2.2.16,2.64.47.66.7.66,1.16-.22.84-.65,1.16c-.44.31-1.32.47-2.64.47s-2.23-.17-2.72-.52M1118.68,703.71c-.18-.11-.36-.25-.53-.42-.18-.17-.52-.55-1.02-1.15-.6-.72-1.07-1.23-1.42-1.54-.35-.31-.67-.53-.98-.66-.31-.13-.63-.2-.95-.2-.63,0-1.17.23-1.6.68-.43.46-.64,1.07-.64,1.86s.2,1.39.59,1.85c.4.46.98.73,1.74.8l.11-1.03c-.51,0-.9-.15-1.19-.44-.29-.29-.43-.68-.43-1.16,0-.46.13-.83.4-1.11.27-.28.6-.43.99-.43s.77.16,1.19.47c.42.31.99.91,1.71,1.79.46.57.87,1.01,1.22,1.31.35.3.71.52,1.07.66.22.08.45.12.69.11v-5.38h-.95v3.99Z"/>
    <path d="M1119.63,697.62h-3.03c-.53,0-.94-.05-1.22-.16-.28-.11-.5-.28-.64-.52-.15-.24-.22-.5-.22-.78,0-.37.11-.64.33-.8.22-.16.55-.24.99-.24h3.79v-1h-3.39c-.6,0-1.04-.14-1.31-.41-.27-.28-.41-.62-.41-1.04,0-.23.06-.43.16-.6.11-.17.25-.29.42-.35.17-.07.46-.1.86-.1h3.68v-1h-4.01c-.66,0-1.16.16-1.48.47-.32.31-.48.76-.48,1.35,0,.75.34,1.35,1.02,1.82-.32.11-.57.31-.75.59-.18.28-.27.64-.27,1.07,0,.39.08.74.26,1.05.17.31.4.55.69.74h-.82v.9h5.84v-1Z"/>
    <path d="M1111.54,778.5v.64c.35.17.71.47,1.08.89.37.42.68.9.94,1.46h.95c-.11-.31-.28-.66-.51-1.05s-.46-.7-.68-.95h6.31v-1h-8.09ZM1119.63,774.58h-3.03c-.53,0-.94-.05-1.22-.16-.28-.11-.5-.28-.64-.52-.15-.24-.22-.5-.22-.78,0-.37.11-.63.33-.8.22-.16.55-.24.99-.24h3.79v-1h-3.39c-.6,0-1.04-.14-1.31-.41-.27-.27-.41-.62-.41-1.03,0-.23.06-.43.16-.6.11-.17.25-.29.42-.35.17-.07.46-.1.86-.1h3.68v-.99h-4.01c-.66,0-1.16.16-1.48.47-.32.31-.48.76-.48,1.35,0,.75.34,1.35,1.02,1.82-.32.11-.57.31-.75.59-.18.28-.27.64-.27,1.07,0,.39.08.74.26,1.05.17.31.4.55.69.74h-.82v.89h5.84v-1Z"/>
    <path d="M1119.63,953.33h-6.86l6.86-2.35v-.97l-6.74-2.36h6.74v-1.04h-8.06v1.45l5.61,1.94c.57.2,1,.34,1.29.44-.26.08-.66.21-1.19.39l-5.71,1.92v1.62h8.06v-1.04ZM1119.63,941.3v-1.04c-.22.13-.46.21-.7.25-.24.04-.83.06-1.74.06h-1.32c-.44,0-.75.02-.91.05-.27.06-.49.16-.67.31-.18.15-.33.38-.44.69-.12.31-.18.72-.18,1.23s.07.95.21,1.34c.14.39.33.68.59.88.25.21.59.35,1,.44l.13-.98c-.41-.11-.7-.27-.87-.49-.16-.22-.24-.57-.24-1.04,0-.5.11-.88.34-1.14.16-.19.45-.28.85-.28.04,0,.12,0,.26,0,.13.38.25.97.34,1.78.05.4.1.69.15.89.07.26.18.5.33.72.14.21.33.38.57.51.23.13.5.2.78.2.49,0,.89-.18,1.2-.52.32-.35.47-.85.47-1.49,0-.39-.07-.76-.19-1.1-.13-.34-.35-.7-.66-1.07.27-.03.51-.1.72-.2M1117.06,941.59c.44,0,.76.06.99.16.29.14.52.36.68.66.17.3.25.64.25,1.03s-.09.68-.26.88c-.18.2-.4.3-.66.3-.17,0-.33-.05-.47-.14-.14-.09-.25-.22-.32-.39-.07-.17-.14-.46-.2-.87-.1-.72-.22-1.27-.37-1.63h.36ZM1113.01,943.68c.2-.2.29-.43.29-.71s-.09-.5-.29-.7c-.19-.2-.43-.29-.71-.29s-.52.1-.71.29c-.2.2-.3.43-.3.7s.1.5.29.7c.2.2.43.3.69.3.29,0,.54-.1.73-.29M1111.87,943.38c-.11-.12-.17-.26-.17-.41s.06-.3.18-.42c.12-.11.26-.17.42-.17s.31.06.42.18c.11.12.18.25.18.42s-.06.29-.18.41c-.12.12-.26.18-.44.18-.16,0-.3-.06-.41-.18"/>
    <rect x="1111.57" y="937.96" width="8.06" height="1"/>
    <path d="M1111.54,929.72v.64c.35.18.71.47,1.08.89.37.42.69.9.95,1.46h.95c-.11-.31-.28-.66-.51-1.05-.23-.39-.45-.7-.68-.94h6.31v-1h-8.09ZM1113.79,926.51h1.13v-1.14h-1.13v1.14ZM1118.51,926.51h1.13v-1.14h-1.13v1.14Z"/>
    <path d="M1119.15,923.23c.41-.47.62-1.07.62-1.81,0-.9-.33-1.61-.98-2.14-.53-.43-1.16-.64-1.89-.64s-1.39.24-1.88.73c-.49.49-.73,1.09-.73,1.8,0,.54.17,1.05.51,1.54l-2.16-.44v-3.25h-.95v4.05l4.14.79.12-.94c-.23-.15-.42-.35-.57-.61-.14-.26-.21-.55-.21-.87,0-.52.16-.94.49-1.26.33-.32.77-.48,1.33-.48s1.07.17,1.43.5c.36.33.54.74.54,1.22,0,.4-.13.74-.38,1.03-.25.28-.63.46-1.14.54l.09,1.05c.68-.07,1.22-.34,1.63-.8M1118.93,916.81c.56-.45.84-1.06.84-1.85,0-.6-.16-1.09-.48-1.48-.32-.39-.76-.68-1.35-.88-.58-.2-1.34-.3-2.29-.3-.8,0-1.43.06-1.9.18-.47.12-.87.29-1.2.51-.33.21-.58.49-.76.82-.17.33-.26.71-.26,1.15,0,.59.16,1.08.47,1.47.31.39.76.68,1.34.88.58.2,1.35.3,2.3.3,1.51,0,2.61-.27,3.27-.81M1112.93,916.07c-.38-.27-.58-.64-.58-1.1s.22-.86.65-1.17c.43-.31,1.32-.47,2.64-.47s2.2.15,2.64.47c.44.31.66.7.66,1.16s-.22.84-.66,1.16c-.44.31-1.32.47-2.64.47s-2.23-.17-2.72-.51"/>
    <polygon class="st21" points="1119.63 566.38 1097.02 555.24 1103.77 540.73 1126.72 551.87 1119.63 566.38"/>
    <polygon points="1116.88 560.64 1105.53 555.15 1120.56 553.03 1121.52 551.06 1107.07 544.07 1106.18 545.91 1117.52 551.4 1102.5 553.52 1101.55 555.49 1115.99 562.48 1116.88 560.64"/>
    <path d="M1119.14,624.5c.42-.47.64-1.07.64-1.78,0-.79-.25-1.45-.74-1.97-.49-.52-1.09-.77-1.79-.77-.52,0-.95.13-1.3.4-.35.27-.58.64-.69,1.12-.17-.37-.39-.65-.68-.84-.29-.19-.61-.28-.95-.28-.37,0-.71.1-1.04.3-.33.2-.59.49-.77.86-.19.37-.28.78-.28,1.22,0,.64.18,1.18.55,1.62.36.43.88.71,1.54.83l.18-1c-.48-.07-.85-.24-1.09-.5-.24-.26-.36-.58-.36-.97s.12-.71.36-.96.54-.37.9-.37c.46,0,.8.17,1.02.51.22.34.33.72.33,1.15,0,.04,0,.09,0,.16l.87.11c-.07-.28-.11-.52-.11-.7,0-.47.15-.85.44-1.15.3-.3.67-.45,1.13-.45s.88.16,1.2.48c.32.33.49.72.49,1.19,0,.4-.13.73-.37,1.01-.25.27-.65.47-1.21.58l.13,1c.67-.07,1.22-.34,1.64-.81M1119.63,617.97h-3.03c-.53,0-.94-.05-1.22-.16-.28-.1-.5-.28-.64-.52s-.22-.5-.22-.78c0-.37.11-.63.33-.8.22-.16.55-.24.99-.24h3.79v-1h-3.39c-.6,0-1.04-.14-1.31-.41-.27-.27-.41-.62-.41-1.03,0-.23.06-.43.16-.6.11-.17.25-.29.42-.35.17-.07.46-.1.86-.1h3.68v-.99h-4.01c-.66,0-1.16.16-1.48.47-.32.31-.48.76-.48,1.35,0,.75.34,1.35,1.02,1.82-.32.11-.57.31-.75.59-.18.28-.27.64-.27,1.07,0,.39.08.74.26,1.05.17.31.4.55.69.74h-.82v.89h5.84v-1Z"/>
    <rect class="st21" x="39.2" y="1182.37" width="18.9" height="111.72"/>
    <path d="M42.65,1287.81v.95c.52.26,1.05.69,1.61,1.32.55.62,1.03,1.34,1.41,2.17h1.43c-.17-.46-.42-.98-.76-1.56-.34-.58-.68-1.05-1.01-1.4h9.41v-1.48h-12.08ZM53.05,1283.1h1.68v-1.69h-1.68v1.69ZM53.03,1278.45c.64-.42,1.11-1,1.43-1.74s.47-1.65.47-2.74c0-.86-.16-1.63-.47-2.33-.31-.69-.75-1.22-1.32-1.58-.56-.37-1.17-.55-1.81-.55s-1.22.17-1.71.5c-.5.34-.91.85-1.23,1.56-.22.48-.48,1.37-.77,2.67-.29,1.3-.58,2.1-.86,2.41-.28.31-.64.47-1.07.47-.5,0-.92-.22-1.28-.66-.35-.44-.53-1.15-.53-2.11s.2-1.63.58-2.1c.39-.47.96-.75,1.72-.83l-.11-1.53c-.71.03-1.34.23-1.9.59-.56.37-.98.89-1.27,1.58-.29.68-.43,1.47-.43,2.37,0,.81.13,1.55.41,2.21.27.66.67,1.17,1.2,1.51.53.35,1.09.52,1.7.52.55,0,1.05-.14,1.49-.42.45-.28.82-.71,1.12-1.29.23-.44.49-1.22.75-2.33.27-1.11.46-1.83.59-2.15.19-.5.43-.87.71-1.09.28-.22.61-.33.99-.33s.72.12,1.03.34.56.58.74,1.04c.18.47.27,1.01.27,1.61,0,.69-.12,1.31-.36,1.85-.24.55-.55.96-.93,1.22-.39.26-.88.43-1.48.5l.13,1.5c.8-.02,1.53-.24,2.16-.66M54.73,1261.43v-1.55c-.33.19-.68.31-1.05.37-.36.06-1.23.1-2.6.1h-1.97c-.66,0-1.11.03-1.36.07-.41.09-.74.24-1.01.46-.27.22-.49.56-.66,1.03-.17.47-.27,1.07-.27,1.82s.1,1.41.31,1.98c.21.57.5,1.01.88,1.31.38.3.88.52,1.5.65l.19-1.45c-.62-.16-1.05-.41-1.29-.74-.24-.33-.36-.84-.36-1.54,0-.75.17-1.31.5-1.69.24-.28.67-.42,1.27-.42.05,0,.18,0,.38,0,.19.57.37,1.45.51,2.64.07.59.15,1.03.22,1.32.11.4.27.75.48,1.07.21.31.5.57.85.76.35.2.74.29,1.17.29.73,0,1.33-.26,1.8-.77.46-.52.7-1.25.7-2.22,0-.58-.1-1.12-.29-1.63-.19-.51-.52-1.04-.98-1.58.41-.04.77-.14,1.08-.3M50.9,1261.85c.65,0,1.14.08,1.48.24.43.21.77.54,1.02.98.25.45.37.95.37,1.53s-.13,1.01-.39,1.31c-.26.3-.59.45-.99.45-.26,0-.49-.07-.7-.21-.21-.14-.37-.33-.48-.59-.11-.25-.21-.68-.3-1.29-.15-1.08-.34-1.88-.56-2.42h.54ZM42.7,1258h12.03v-1.48h-12.03v1.48ZM46.02,1253.73h1.68v-1.69h-1.68v1.69ZM53.05,1253.73h1.68v-1.69h-1.68v1.69ZM43.45,1238.42c-.53.6-.8,1.38-.8,2.33,0,1.27.46,2.29,1.38,3.04,1.05.86,2.74,1.29,5.07,1.29,2.08,0,3.57-.39,4.48-1.17.91-.78,1.36-1.79,1.36-3.02,0-.73-.17-1.37-.51-1.94s-.84-1.02-1.49-1.35c-.65-.33-1.35-.49-2.1-.49-1.15,0-2.09.35-2.81,1.04-.72.69-1.09,1.53-1.09,2.52,0,.57.13,1.11.39,1.62.26.52.67.95,1.21,1.31-1.2,0-2.13-.15-2.78-.42-.65-.27-1.15-.64-1.49-1.11-.26-.35-.39-.77-.39-1.24,0-.59.21-1.08.63-1.48.26-.24.68-.43,1.27-.56l-.12-1.48c-.94.12-1.67.49-2.2,1.09M48.95,1242.68c-.48-.46-.72-1.03-.72-1.7s.24-1.23.72-1.68c.48-.44,1.13-.66,1.96-.66s1.55.22,2.05.67c.5.45.76.99.76,1.61,0,.43-.12.84-.37,1.23-.24.39-.59.69-1.06.91-.47.22-.95.32-1.46.32-.78,0-1.41-.23-1.88-.7M53.05,1234.73h1.68v-1.69h-1.68v1.69ZM54.73,1225.66c0-.77-.07-1.42-.2-1.95-.14-.53-.33-.97-.59-1.32-.26-.35-.64-.65-1.12-.89-.49-.24-1.01-.36-1.57-.36-.7,0-1.31.2-1.82.59-.51.39-.88.95-1.09,1.68-.28-.56-.64-.99-1.1-1.27s-.94-.42-1.45-.42c-.55,0-1.08.16-1.59.48-.5.31-.88.75-1.12,1.31-.24.56-.36,1.29-.36,2.22v4.53h12.03v-4.6ZM44.12,1228.66v-2.41c0-.87.06-1.48.17-1.84.11-.35.32-.63.62-.82.31-.19.66-.29,1.05-.29.42,0,.77.1,1.05.31.28.21.48.51.6.92.09.31.14.81.14,1.52v2.61h-3.64ZM49.18,1228.66v-2.79c0-.77.07-1.36.2-1.77.13-.41.37-.73.7-.96.33-.23.72-.35,1.17-.35.38,0,.72.08,1.01.24.29.16.52.36.67.61.15.25.26.56.33.92.04.21.06.57.06,1.09v3h-4.13ZM53.05,1218.64h1.68v-1.69h-1.68v1.69ZM42.65,1209.12v.95c.52.26,1.05.7,1.61,1.32s1.03,1.35,1.41,2.17h1.43c-.17-.46-.42-.98-.76-1.56-.34-.58-.68-1.05-1.01-1.4h9.41v-1.48h-12.08ZM53.05,1204.41h1.68v-1.69h-1.68v1.69ZM42.65,1194.89v.96c.52.26,1.05.69,1.61,1.32.55.62,1.03,1.34,1.41,2.17h1.43c-.17-.46-.42-.98-.76-1.56-.34-.58-.68-1.05-1.01-1.4h9.41v-1.48h-12.08Z"/>
    <path d="M54.02,1189.93c.61-.69.92-1.59.92-2.69,0-1.34-.49-2.4-1.46-3.17-.79-.64-1.73-.95-2.82-.95s-2.08.36-2.8,1.08c-.73.73-1.09,1.62-1.09,2.67,0,.8.25,1.56.76,2.28l-3.23-.65v-4.81h-1.41v6l6.18,1.17.18-1.39c-.34-.22-.62-.52-.84-.9-.22-.39-.33-.82-.33-1.29,0-.77.24-1.39.73-1.86.49-.47,1.15-.71,1.99-.71.89,0,1.6.25,2.13.74.54.49.8,1.1.8,1.81,0,.59-.19,1.1-.57,1.52-.38.42-.94.69-1.7.8l.13,1.56c1.01-.1,1.82-.49,2.43-1.19"/>
    <rect class="st21" x="62.49" y="1182.37" width="18.9" height="111.72"/>
    <path d="M76.6,1291.53c-.27-.17-.53-.37-.8-.62-.26-.25-.77-.82-1.51-1.71-.9-1.06-1.6-1.83-2.12-2.28-.51-.46-1-.79-1.47-.98-.47-.2-.94-.3-1.42-.3-.94,0-1.74.34-2.38,1.01s-.96,1.59-.96,2.75.3,2.06.89,2.74c.6.68,1.46,1.07,2.59,1.18l.16-1.52c-.75,0-1.35-.22-1.77-.65-.43-.43-.64-1-.64-1.71,0-.68.2-1.22.6-1.64s.9-.63,1.48-.63,1.15.23,1.78.69c.62.46,1.48,1.35,2.55,2.66.69.84,1.29,1.49,1.82,1.94.53.45,1.06.77,1.6.97.33.13.67.19,1.03.18v-7.98h-1.42v5.92ZM76.34,1283.1h1.68v-1.69h-1.68v1.69ZM76.32,1278.45c.64-.42,1.11-1,1.43-1.74s.47-1.65.47-2.74c0-.86-.16-1.63-.47-2.33-.31-.69-.75-1.22-1.32-1.58-.56-.37-1.17-.55-1.81-.55s-1.22.17-1.71.5c-.49.34-.9.85-1.22,1.56-.22.48-.48,1.37-.77,2.67-.29,1.3-.58,2.1-.86,2.41-.28.31-.63.47-1.06.47-.5,0-.92-.22-1.28-.66-.35-.44-.53-1.15-.53-2.11s.19-1.63.58-2.1c.39-.47.96-.75,1.72-.83l-.11-1.53c-.71.03-1.34.23-1.89.59-.56.37-.98.89-1.27,1.58-.29.68-.43,1.47-.43,2.37,0,.81.14,1.55.41,2.21.27.66.67,1.17,1.2,1.51.53.35,1.09.52,1.7.52.56,0,1.05-.14,1.5-.42.45-.28.82-.71,1.12-1.29.23-.44.49-1.22.75-2.33.27-1.11.46-1.83.59-2.15.19-.5.43-.87.71-1.09.28-.22.61-.33.99-.33s.72.12,1.03.34.56.58.74,1.04c.18.47.27,1.01.27,1.61,0,.69-.12,1.31-.36,1.85-.24.55-.55.96-.93,1.22-.39.26-.88.43-1.48.5l.13,1.5c.8-.02,1.53-.24,2.16-.66M78.02,1261.43v-1.55c-.33.19-.68.31-1.05.37-.36.06-1.23.1-2.6.1h-1.97c-.66,0-1.11.03-1.36.07-.41.09-.74.24-1.01.46-.27.22-.49.56-.66,1.03-.18.47-.27,1.07-.27,1.82s.1,1.41.31,1.98c.21.57.5,1.01.88,1.31.38.3.88.52,1.5.65l.19-1.45c-.62-.16-1.05-.41-1.29-.74-.24-.33-.36-.84-.36-1.54,0-.75.16-1.31.5-1.69.24-.28.67-.42,1.27-.42.05,0,.18,0,.38,0,.19.57.36,1.45.51,2.64.07.59.15,1.03.22,1.32.11.4.27.75.48,1.07.21.31.5.57.85.76.35.2.74.29,1.17.29.73,0,1.33-.26,1.8-.77.46-.52.7-1.25.7-2.22,0-.58-.1-1.12-.29-1.63-.19-.51-.52-1.04-.98-1.58.41-.04.77-.14,1.08-.3M74.19,1261.85c.65,0,1.14.08,1.48.24.43.21.77.54,1.02.98.25.45.37.95.37,1.53s-.13,1.01-.39,1.31c-.26.3-.59.45-.99.45-.26,0-.49-.07-.7-.21-.21-.14-.37-.33-.48-.59-.11-.25-.21-.68-.3-1.29-.15-1.08-.34-1.88-.56-2.42h.54ZM65.99,1258h12.03v-1.48h-12.03v1.48ZM69.31,1253.73h1.68v-1.69h-1.68v1.69ZM76.34,1253.73h1.68v-1.69h-1.68v1.69ZM66.74,1238.42c-.53.6-.8,1.38-.8,2.33,0,1.27.46,2.29,1.38,3.04,1.06.86,2.74,1.29,5.07,1.29,2.08,0,3.57-.39,4.48-1.17.91-.78,1.36-1.79,1.36-3.02,0-.73-.17-1.37-.51-1.94s-.84-1.02-1.49-1.35c-.65-.33-1.35-.49-2.1-.49-1.15,0-2.09.35-2.81,1.04-.72.69-1.09,1.53-1.09,2.52,0,.57.13,1.11.39,1.62.26.52.66.95,1.2,1.31-1.2,0-2.13-.15-2.78-.42-.65-.27-1.15-.64-1.48-1.11-.26-.35-.4-.77-.4-1.24,0-.59.21-1.08.63-1.48.26-.24.68-.43,1.26-.56l-.11-1.48c-.93.12-1.67.49-2.2,1.09M72.24,1242.68c-.48-.46-.72-1.03-.72-1.7s.24-1.23.72-1.68c.48-.44,1.13-.66,1.96-.66s1.55.22,2.05.67c.5.45.76.99.76,1.61,0,.43-.12.84-.37,1.23-.24.39-.59.69-1.06.91-.47.22-.95.32-1.46.32-.78,0-1.4-.23-1.88-.7M76.34,1234.73h1.68v-1.69h-1.68v1.69ZM78.02,1225.66c0-.77-.07-1.42-.2-1.95-.14-.53-.33-.97-.59-1.32-.26-.35-.64-.65-1.12-.89-.49-.24-1.01-.36-1.57-.36-.7,0-1.3.2-1.82.59-.51.39-.88.95-1.09,1.68-.28-.56-.64-.99-1.1-1.27-.46-.28-.94-.42-1.45-.42-.55,0-1.08.16-1.59.48-.51.31-.88.75-1.13,1.31-.24.56-.36,1.29-.36,2.22v4.53h12.03v-4.6ZM67.41,1228.66v-2.41c0-.87.06-1.48.17-1.84.11-.35.32-.63.62-.82.31-.19.66-.29,1.05-.29.42,0,.77.1,1.05.31.28.21.48.51.6.92.09.31.14.81.14,1.52v2.61h-3.63ZM72.47,1228.66v-2.79c0-.77.07-1.36.2-1.77.13-.41.37-.73.7-.96.33-.23.72-.35,1.17-.35.38,0,.72.08,1.01.24.29.16.52.36.67.61.15.25.26.56.33.92.04.21.06.57.06,1.09v3h-4.13ZM76.34,1218.64h1.68v-1.69h-1.68v1.69ZM76.6,1212.83c-.27-.17-.53-.37-.8-.62-.26-.25-.77-.82-1.51-1.71-.9-1.06-1.6-1.82-2.12-2.28-.51-.46-1-.79-1.47-.98-.47-.2-.94-.3-1.42-.3-.94,0-1.74.34-2.38,1.01-.64.67-.96,1.59-.96,2.75s.3,2.06.89,2.74c.6.68,1.46,1.08,2.59,1.18l.16-1.52c-.75,0-1.35-.22-1.77-.65-.43-.43-.64-1-.64-1.71,0-.67.2-1.22.6-1.64.4-.42.9-.63,1.48-.63s1.15.23,1.78.69c.62.46,1.48,1.35,2.55,2.66.69.84,1.29,1.49,1.82,1.94.53.45,1.06.77,1.6.97.33.13.67.18,1.03.17v-7.98h-1.42v5.92ZM76.34,1204.41h1.68v-1.69h-1.68v1.69ZM65.94,1194.89v.96c.52.26,1.06.69,1.61,1.32.55.62,1.02,1.34,1.41,2.17h1.43c-.17-.46-.42-.98-.76-1.56-.34-.58-.68-1.05-1.01-1.4h9.41v-1.48h-12.08Z"/>
    <path d="M77.3,1189.93c.61-.69.92-1.59.92-2.69,0-1.34-.49-2.4-1.46-3.17-.79-.64-1.73-.95-2.82-.95s-2.08.36-2.8,1.08c-.73.73-1.09,1.62-1.09,2.67,0,.8.25,1.56.75,2.28l-3.23-.65v-4.81h-1.41v6l6.18,1.17.18-1.39c-.34-.22-.62-.52-.84-.9-.22-.39-.32-.82-.32-1.29,0-.77.24-1.39.73-1.86.49-.47,1.15-.71,1.99-.71.89,0,1.6.25,2.13.74.53.49.8,1.1.8,1.81,0,.59-.19,1.1-.57,1.52-.38.42-.95.69-1.7.8l.13,1.56c1.01-.1,1.82-.49,2.43-1.19"/>
    <rect class="st21" x="84.77" y="1182.37" width="18.9" height="111.72"/>
    <path d="M99.56,1292.19c.63-.7.95-1.58.95-2.64,0-1.18-.36-2.15-1.1-2.92-.73-.77-1.62-1.15-2.67-1.15-.78,0-1.42.2-1.94.59-.52.4-.85.95-1.02,1.66-.25-.55-.59-.96-1.02-1.24-.43-.28-.9-.42-1.42-.42-.55,0-1.06.15-1.55.44-.49.3-.87.72-1.15,1.27-.28.56-.42,1.16-.42,1.82,0,.95.27,1.75.82,2.4.54.64,1.31,1.05,2.3,1.23l.26-1.48c-.72-.11-1.26-.35-1.62-.74-.36-.38-.54-.86-.54-1.44s.18-1.05.53-1.42c.36-.37.8-.55,1.34-.55.69,0,1.19.25,1.52.76.33.5.49,1.07.49,1.7,0,.06,0,.14-.02.24l1.3.17c-.11-.42-.16-.76-.16-1.04,0-.69.22-1.25.66-1.7.44-.44,1-.67,1.68-.67s1.31.24,1.79.72c.48.48.72,1.07.72,1.77,0,.59-.18,1.08-.55,1.49-.37.41-.98.7-1.81.87l.2,1.48c1-.1,1.82-.5,2.44-1.2M98.61,1283.1h1.68v-1.69h-1.68v1.69ZM98.59,1278.45c.64-.42,1.12-1,1.43-1.74s.47-1.65.47-2.74c0-.86-.16-1.63-.47-2.33-.31-.69-.75-1.22-1.32-1.58-.56-.37-1.17-.55-1.81-.55s-1.22.17-1.71.5c-.49.34-.9.85-1.23,1.56-.22.48-.48,1.37-.77,2.67-.29,1.3-.58,2.1-.86,2.41-.28.31-.63.47-1.06.47-.5,0-.92-.22-1.28-.66-.35-.44-.53-1.15-.53-2.11s.19-1.63.58-2.1c.39-.47.96-.75,1.72-.83l-.12-1.53c-.71.03-1.34.23-1.89.59-.56.37-.98.89-1.27,1.58-.29.68-.43,1.47-.43,2.37,0,.81.14,1.55.41,2.21.27.66.67,1.17,1.2,1.51.53.35,1.09.52,1.7.52.56,0,1.05-.14,1.5-.42.44-.28.82-.71,1.12-1.29.23-.44.49-1.22.75-2.33.26-1.11.46-1.83.59-2.15.19-.5.43-.87.71-1.09.28-.22.61-.33.99-.33s.72.12,1.03.34.56.58.74,1.04c.18.47.27,1.01.27,1.61,0,.69-.12,1.31-.36,1.85-.24.55-.55.96-.94,1.22-.39.26-.88.43-1.48.5l.13,1.5c.8-.02,1.53-.24,2.16-.66M100.3,1261.43v-1.55c-.34.19-.68.31-1.05.37-.36.06-1.23.1-2.6.1h-1.97c-.66,0-1.11.03-1.36.07-.4.09-.74.24-1,.46-.27.22-.49.56-.66,1.03-.18.47-.26,1.07-.26,1.82s.1,1.41.31,1.98c.21.57.5,1.01.88,1.31.38.3.88.52,1.5.65l.19-1.45c-.62-.16-1.05-.41-1.29-.74-.24-.33-.36-.84-.36-1.54,0-.75.17-1.31.5-1.69.24-.28.67-.42,1.27-.42.05,0,.18,0,.38,0,.19.57.36,1.45.51,2.64.07.59.15,1.03.22,1.32.11.4.27.75.49,1.07.21.31.5.57.85.76.35.2.74.29,1.17.29.73,0,1.33-.26,1.8-.77.47-.52.7-1.25.7-2.22,0-.58-.1-1.12-.29-1.63-.19-.51-.52-1.04-.98-1.58.41-.04.77-.14,1.08-.3M96.46,1261.85c.65,0,1.14.08,1.48.24.43.21.77.54,1.02.98.25.45.37.95.37,1.53s-.13,1.01-.39,1.31c-.26.3-.59.45-.99.45-.26,0-.49-.07-.7-.21-.21-.14-.37-.33-.48-.59-.11-.25-.21-.68-.3-1.29-.15-1.08-.34-1.88-.56-2.42h.54ZM88.27,1258h12.03v-1.48h-12.03v1.48ZM91.58,1253.73h1.68v-1.69h-1.68v1.69ZM98.61,1253.73h1.68v-1.69h-1.68v1.69ZM89.01,1238.42c-.53.6-.8,1.38-.8,2.33,0,1.27.46,2.29,1.38,3.04,1.06.86,2.75,1.29,5.07,1.29,2.08,0,3.57-.39,4.48-1.17.91-.78,1.36-1.79,1.36-3.02,0-.73-.17-1.37-.51-1.94-.35-.57-.84-1.02-1.49-1.35-.65-.33-1.35-.49-2.1-.49-1.15,0-2.08.35-2.81,1.04-.72.69-1.09,1.53-1.09,2.52,0,.57.13,1.11.39,1.62.26.52.66.95,1.21,1.31-1.2,0-2.13-.15-2.78-.42-.65-.27-1.15-.64-1.48-1.11-.27-.35-.4-.77-.4-1.24,0-.59.21-1.08.63-1.48.26-.24.69-.43,1.27-.56l-.11-1.48c-.94.12-1.67.49-2.2,1.09M94.52,1242.68c-.48-.46-.72-1.03-.72-1.7s.24-1.23.72-1.68c.48-.44,1.13-.66,1.96-.66s1.55.22,2.05.67c.5.45.75.99.75,1.61,0,.43-.12.84-.37,1.23-.24.39-.59.69-1.06.91-.47.22-.95.32-1.46.32-.78,0-1.41-.23-1.88-.7M98.61,1234.73h1.68v-1.69h-1.68v1.69ZM100.3,1225.66c0-.77-.07-1.42-.2-1.95-.13-.53-.33-.97-.59-1.32-.26-.35-.64-.65-1.12-.89-.49-.24-1.01-.36-1.57-.36-.7,0-1.31.2-1.82.59-.51.39-.88.95-1.09,1.68-.28-.56-.64-.99-1.1-1.27-.45-.28-.94-.42-1.45-.42-.56,0-1.08.16-1.59.48-.51.31-.88.75-1.12,1.31-.24.56-.36,1.29-.36,2.22v4.53h12.03v-4.6ZM89.69,1228.66v-2.41c0-.87.06-1.48.17-1.84.11-.35.32-.63.62-.82.31-.19.66-.29,1.06-.29.42,0,.77.1,1.05.31.28.21.48.51.6.92.09.31.14.81.14,1.52v2.61h-3.63ZM94.74,1228.66v-2.79c0-.77.07-1.36.2-1.77.14-.41.37-.73.7-.96.33-.23.72-.35,1.17-.35.38,0,.72.08,1.01.24.29.16.52.36.67.61.16.25.27.56.33.92.04.21.06.57.06,1.09v3h-4.13ZM98.61,1218.64h1.68v-1.69h-1.68v1.69ZM99.56,1213.49c.63-.7.95-1.58.95-2.64,0-1.18-.36-2.15-1.1-2.92-.73-.77-1.62-1.15-2.67-1.15-.78,0-1.42.2-1.94.59-.52.4-.85.95-1.02,1.67-.25-.55-.59-.96-1.02-1.24-.43-.28-.9-.42-1.42-.42-.55,0-1.06.15-1.55.44-.49.29-.87.72-1.15,1.27-.28.55-.42,1.16-.42,1.82,0,.96.27,1.75.82,2.4.54.64,1.31,1.05,2.3,1.24l.26-1.48c-.72-.11-1.26-.35-1.62-.74-.36-.38-.54-.87-.54-1.44s.18-1.05.53-1.42c.36-.37.8-.55,1.34-.55.69,0,1.19.25,1.52.75.33.51.49,1.08.49,1.7,0,.06,0,.14-.02.24l1.3.17c-.11-.42-.16-.76-.16-1.05,0-.69.22-1.25.66-1.7.44-.45,1-.66,1.68-.66s1.31.24,1.79.72c.48.48.72,1.07.72,1.76,0,.59-.18,1.09-.55,1.49-.37.41-.98.7-1.81.87l.2,1.48c1-.1,1.82-.5,2.44-1.2M98.61,1204.41h1.68v-1.69h-1.68v1.69ZM88.22,1194.89v.96c.52.26,1.06.69,1.61,1.32.55.62,1.02,1.34,1.41,2.17h1.43c-.17-.46-.42-.98-.76-1.56-.34-.58-.68-1.05-1.01-1.4h9.41v-1.48h-12.08Z"/>
    <path d="M99.58,1189.93c.61-.69.92-1.59.92-2.69,0-1.34-.49-2.4-1.46-3.17-.79-.64-1.73-.95-2.82-.95s-2.07.36-2.8,1.08c-.73.73-1.09,1.62-1.09,2.67,0,.8.25,1.56.75,2.28l-3.23-.65v-4.81h-1.41v6l6.18,1.17.18-1.39c-.34-.22-.62-.52-.84-.9-.22-.39-.33-.82-.33-1.29,0-.77.24-1.39.73-1.86.49-.47,1.15-.71,1.99-.71.89,0,1.6.25,2.13.74.54.49.8,1.1.8,1.81,0,.59-.19,1.1-.57,1.52-.38.42-.95.69-1.7.8l.13,1.56c1.01-.1,1.82-.49,2.43-1.19"/>
    <line class="st2" x1="630.89" y1="1021.03" x2="750.37" y2="969.05"/>
  </g>
  <rect class="st23" x="410.08" y="935.3" width="25.69" height="94.51"/>
</svg>