<?xml version="1.0" encoding="UTF-8"?>
<svg id="Layer_1" xmlns="http://www.w3.org/2000/svg" xmlns:xlink="http://www.w3.org/1999/xlink" version="1.1" viewBox="0 0 1200 1697.14">
  <!-- Generator: Adobe Illustrator 29.6.0, SVG Export Plug-In . SVG Version: 2.1.1 Build 207)  -->
  <defs>
    <style>
      .st0, .st1, .st2, .st3 {
        fill: none;
      }

      .st1 {
        stroke: #0d0e1c;
      }

      .st1, .st2, .st3 {
        stroke-linecap: round;
        stroke-linejoin: round;
      }

      .st1, .st3 {
        stroke-width: .08px;
      }

      .st2 {
        stroke-width: .14px;
      }

      .st2, .st3 {
        stroke: #000;
      }

      .st4 {
        clip-path: url(#clippath-1);
      }

      .st5 {
        clip-path: url(#clippath-3);
      }

      .st6 {
        clip-path: url(#clippath-4);
      }

      .st7 {
        clip-path: url(#clippath-2);
      }

      .st8 {
        clip-path: url(#clippath-7);
      }

      .st9 {
        clip-path: url(#clippath-6);
      }

      .st10 {
        clip-path: url(#clippath-9);
      }

      .st11 {
        clip-path: url(#clippath-8);
      }

      .st12 {
        clip-path: url(#clippath-5);
      }

      .st13 {
        fill: #fff;
      }

      .st14 {
        fill: #ece9e5;
      }

      .st15 {
        fill: #302c35;
      }

      .st16 {
        clip-path: url(#clippath);
      }
    </style>
    <clipPath id="clippath">
      <rect class="st0" x="433.67" y="765.84" width="72.57" height="159.65"/>
    </clipPath>
    <clipPath id="clippath-1">
      <rect class="st0" x="221.3" y="441.48" width="757.4" height="814.19"/>
    </clipPath>
    <clipPath id="clippath-2">
      <rect class="st0" x="509.15" y="994.66" width="28.6" height="39.22"/>
    </clipPath>
    <clipPath id="clippath-3">
      <rect class="st0" x="221.3" y="441.48" width="757.4" height="814.19"/>
    </clipPath>
    <clipPath id="clippath-4">
      <rect class="st0" x="221.3" y="441.48" width="757.4" height="814.19"/>
    </clipPath>
    <clipPath id="clippath-5">
      <rect class="st0" x="439.65" y="1077.72" width="27.52" height="37.12"/>
    </clipPath>
    <clipPath id="clippath-6">
      <rect class="st0" x="221.3" y="441.48" width="757.4" height="814.19"/>
    </clipPath>
    <clipPath id="clippath-7">
      <rect class="st0" x="221.3" y="441.48" width="757.4" height="814.19"/>
    </clipPath>
    <clipPath id="clippath-8">
      <rect class="st0" x="221.3" y="441.48" width="757.4" height="814.19"/>
    </clipPath>
    <clipPath id="clippath-9">
      <rect class="st0" x="221.3" y="441.48" width="757.4" height="814.19"/>
    </clipPath>
  </defs>
  <rect class="st14" x="413.75" y="663.23" width="339.22" height="481.99"/>
  <rect class="st14" x="453.24" y="551.51" width="249.77" height="170.31"/>
  <rect class="st13" x="687.49" y="910.64" width="60.67" height="226.65"/>
  <rect class="st13" x="472.94" y="667.62" width="223.15" height="11.81"/>
  <rect class="st15" x="676.74" y="693.95" width="76.22" height="15.87"/>
  <rect class="st15" x="413.75" y="1129.36" width="153.91" height="15.87"/>
  <rect class="st15" x="639.22" y="1129.36" width="113.75" height="15.87"/>
  <rect class="st15" x="453.24" y="551.51" width="249.43" height="4.05"/>
  <rect class="st15" x="453.41" y="551.51" width="4.05" height="116.11"/>
  <rect class="st15" x="698.62" y="551.51" width="4.05" height="116.11"/>
  <rect class="st15" x="413.75" y="709.81" width="17.55" height="419.55"/>
  <rect class="st15" x="735.41" y="709.81" width="17.55" height="419.55"/>
  <rect class="st15" x="679.39" y="1005.15" width="56.03" height="6.07"/>
  <rect class="st15" x="432.99" y="1122.61" width="125.9" height="10.21"/>
  <rect class="st15" x="553.82" y="1113.4" width="5.06" height="9.21"/>
  <rect class="st15" x="432.99" y="988.27" width="120.83" height="5.06"/>
  <rect class="st15" x="427.52" y="988.27" width="10.53" height="144.55"/>
  <rect class="st15" x="438.05" y="993.34" width="115.77" height="1.35"/>
  <rect class="st15" x="552.47" y="1113.4" width="1.35" height="7.86"/>
  <rect class="st15" x="553.82" y="988.27" width="5.06" height="54.68"/>
  <rect class="st15" x="552.47" y="988.27" width="1.35" height="54.68"/>
  <rect class="st15" x="438.05" y="1121.26" width="115.77" height="1.35"/>
  <rect class="st15" x="438.05" y="993.34" width="1.35" height="127.92"/>
  <rect class="st15" x="431.3" y="928.19" width="119.49" height="8.1"/>
  <rect class="st15" x="550.79" y="928.19" width="8.1" height="60.08"/>
  <rect class="st15" x="676.74" y="663.23" width="76.22" height="30.72"/>
  <rect class="st15" x="413.7" y="693.95" width="65.87" height="15.87"/>
  <rect class="st15" x="413.7" y="663.23" width="65.87" height="30.72"/>
  <polygon class="st13" points="433.67 765.84 433.67 766.25 505.32 766.25 505.32 904.21 506.24 904.66 506.24 765.84 433.67 765.84"/>
  <polygon class="st13" points="433.67 766.25 433.67 868.75 449.59 876.64 489.39 896.33 505.32 904.21 505.32 766.25 433.67 766.25"/>
  <g class="st16">
    <path class="st13" d="M433.67,925.49v-56.74l15.92,7.88v28.26c0,1.82,1.46,3.29,3.28,3.29h33.25c1.82,0,3.27-1.47,3.27-3.29v-8.56l15.93,7.88v21.28h-71.65Z"/>
    <path class="st13" d="M449.59,904.89v-28.26l39.8,19.7v8.56c0,1.82-1.46,3.29-3.28,3.29h-33.25c-1.82,0-3.28-1.47-3.28-3.29"/>
  </g>
  <polyline class="st1" points="505.32 904.21 505.32 925.49 433.67 925.49 433.67 868.75"/>
  <polyline class="st1" points="489.39 896.33 505.32 904.21 506.24 904.67 506.24 765.84 433.67 765.84 433.67 766.25 433.67 868.75 449.59 876.63"/>
  <line class="st1" x1="486.12" y1="908.18" x2="452.87" y2="908.18"/>
  <g class="st4">
    <path class="st1" d="M452.87,908.18c-1.82,0-3.28-1.47-3.28-3.29"/>
    <path class="st1" d="M489.39,904.89c0,1.82-1.46,3.29-3.28,3.29"/>
  </g>
  <polyline class="st1" points="489.39 904.89 489.39 896.33 449.59 876.63 449.59 904.89"/>
  <g class="st7">
    <path class="st13" d="M537.74,994.67c0,7.71,0,15.41,0,23.11-.01,8.9-6.41,16.09-14.3,16.09-7.9,0-14.3-7.21-14.29-16.11.01-7.7.01-15.4.02-23.11,9.52,0,19.05,0,28.58.02"/>
  </g>
  <g class="st5">
    <path class="st3" d="M537.74,994.67c0,7.71,0,15.41,0,23.11-.01,8.9-6.41,16.09-14.3,16.09-7.9,0-14.3-7.21-14.29-16.11.01-7.7.01-15.4.02-23.11,9.52,0,19.05,0,28.58.02Z"/>
  </g>
  <rect class="st13" x="439.21" y="994.3" width="62.49" height="63.21"/>
  <polyline class="st3" points="501.7 994.3 501.7 1057.51 495.53 1057.51"/>
  <line class="st3" x1="501.7" y1="994.3" x2="439.71" y2="994.3"/>
  <line class="st3" x1="439.21" y1="995.34" x2="439.21" y2="1056.96"/>
  <polyline class="st3" points="439.21 995.34 439.21 994.3 439.71 994.3"/>
  <polyline class="st3" points="440.15 1057.51 439.21 1057.51 439.21 1056.96"/>
  <line class="st3" x1="440.15" y1="1057.51" x2="495.53" y2="1057.51"/>
  <line class="st3" x1="471.4" y1="994.3" x2="471.4" y2="1011.86"/>
  <g class="st6">
    <path class="st3" d="M475.25,1011.78c0-2.17-1.76-3.93-3.93-3.93s-3.93,1.76-3.93,3.93,1.76,3.93,3.93,3.93,3.93-1.76,3.93-3.93Z"/>
    <path class="st3" d="M475.25,1011.78c0-2.17-1.76-3.93-3.93-3.93s-3.93,1.76-3.93,3.93,1.76,3.93,3.93,3.93,3.93-1.76,3.93-3.93Z"/>
  </g>
  <g class="st12">
    <path class="st13" d="M465.04,1114.21h-15.49c-.59,0-1.06-.35-1.06-.78v-34.13c0-.44.47-.79,1.06-.79h15.49c.6,0,1.07.35,1.07.79v34.13c0,.43-.48.78-1.07.78M457.57,1099.16c1.55,0,2.8-1.25,2.8-2.8s-1.25-2.81-2.8-2.81-2.8,1.26-2.8,2.81,1.25,2.8,2.8,2.8"/>
    <path class="st13" d="M445.86,1096.36c0,1.16-.94,2.1-2.1,2.1s-2.11-.95-2.11-2.1.94-2.11,2.11-2.11,2.1.94,2.1,2.11"/>
    <path class="st13" d="M457.57,1097.86c-.83,0-1.51-.67-1.51-1.5s.68-1.51,1.51-1.51,1.51.68,1.51,1.51-.68,1.5-1.51,1.5"/>
    <path class="st13" d="M457.57,1093.55c1.55,0,2.8,1.26,2.8,2.81s-1.25,2.8-2.8,2.8-2.8-1.25-2.8-2.8,1.25-2.81,2.8-2.81M459.08,1096.36c0-.83-.68-1.51-1.51-1.51s-1.51.68-1.51,1.51.67,1.5,1.51,1.5,1.51-.67,1.51-1.5"/>
    <path class="st13" d="M445.86,1096.37c0-1.17-.94-2.11-2.1-2.11s-2.11.94-2.11,2.11.95,2.1,2.11,2.1,2.1-.95,2.1-2.1M447.83,1077.73h18.27c.59,0,1.07.35,1.07.78v35.7c0,.34-.48.63-1.07.63h-26.45v-37.12h8.18ZM465.04,1078.51h-15.5c-.59,0-1.06.35-1.06.79v34.13c0,.43.47.78,1.06.78h15.5c.59,0,1.07-.35,1.07-.78v-34.13c0-.44-.48-.79-1.07-.79"/>
  </g>
  <g class="st9">
    <path class="st3" d="M443.76,1094.25c1.15,0,2.1.95,2.1,2.11s-.95,2.1-2.1,2.1-2.11-.94-2.11-2.1.94-2.11,2.11-2.11Z"/>
    <path class="st3" d="M457.57,1093.56c1.55,0,2.8,1.26,2.8,2.81s-1.25,2.8-2.8,2.8-2.8-1.25-2.8-2.8,1.25-2.81,2.8-2.81Z"/>
    <path class="st3" d="M457.57,1094.85c.83,0,1.51.68,1.51,1.51s-.68,1.5-1.51,1.5-1.51-.67-1.51-1.5.68-1.51,1.51-1.51Z"/>
    <path class="st3" d="M449.54,1114.21h15.5c.59,0,1.07-.35,1.07-.78v-34.13c0-.44-.48-.79-1.07-.79h-15.5c-.59,0-1.06.35-1.06.79v34.13c0,.43.47.78,1.06.78Z"/>
  </g>
  <line class="st3" x1="447.83" y1="1077.72" x2="439.65" y2="1077.72"/>
  <g class="st8">
    <path class="st3" d="M439.65,1114.84h26.45c.59,0,1.07-.29,1.07-.63v-35.7c0-.43-.48-.78-1.07-.78h-8.38"/>
  </g>
  <line class="st3" x1="447.83" y1="1077.72" x2="457.72" y2="1077.72"/>
  <line class="st3" x1="439.65" y1="1077.72" x2="439.65" y2="1114.84"/>
  <polygon class="st13" points="663.69 760.1 655.59 761.45 648.16 765.17 648.16 765.51 648.5 765.51 649.18 765.51 649.51 765.51 649.85 765.51 650.19 765.51 651.88 764.49 653.56 763.82 654.92 764.16 655.93 765.17 655.93 765.84 655.59 766.18 650.19 770.91 646.48 776.98 680.91 776.98 677.19 770.91 671.79 766.18 671.12 765.84 671.46 765.17 672.47 764.16 673.82 763.82 675.51 764.49 677.19 765.51 677.53 765.51 677.87 765.51 678.21 765.51 678.88 765.51 679.22 765.17 671.79 761.45 663.69 760.1"/>
  <polygon class="st13" points="711.62 760.1 703.18 761.45 696.09 765.17 696.09 765.51 696.43 765.51 696.77 765.51 697.44 765.51 697.78 765.51 698.12 765.51 699.81 764.49 701.49 763.82 702.84 764.16 703.86 765.17 703.86 765.84 703.52 766.18 697.78 770.91 694.41 776.98 728.84 776.98 725.12 770.91 719.38 766.18 719.05 765.84 719.05 765.17 720.06 764.16 721.75 763.82 723.44 764.49 724.79 765.51 725.12 765.51 725.8 765.51 726.14 765.51 726.47 765.51 726.81 765.51 727.15 765.17 719.72 761.45 711.62 760.1"/>
  <polygon class="st13" points="728.84 776.98 694.41 776.98 680.91 776.98 646.48 776.98 639.73 776.98 639.73 840.77 646.48 840.77 680.91 840.77 694.41 840.77 728.84 840.77 735.25 840.77 735.25 776.98 728.84 776.98"/>
  <polygon class="st13" points="646.48 840.77 650.19 846.85 655.59 851.58 655.93 851.91 655.93 852.59 654.92 853.6 653.57 853.94 651.88 853.26 650.19 852.25 649.85 852.25 649.52 852.25 649.18 852.25 648.5 852.25 648.17 852.25 648.17 852.59 655.59 856.3 663.69 857.65 671.79 856.3 679.22 852.59 678.88 852.25 678.21 852.25 677.87 852.25 677.53 852.25 677.19 852.25 675.51 853.26 673.82 853.94 672.47 853.6 671.45 852.59 671.12 851.91 671.79 851.58 677.19 846.85 680.91 840.77 646.48 840.77"/>
  <polygon class="st13" points="694.41 840.77 697.78 846.85 703.52 851.57 703.86 851.91 703.86 852.59 702.84 853.6 701.49 853.94 699.81 853.26 698.12 852.25 697.78 852.25 697.44 852.25 696.77 852.25 696.43 852.25 696.09 852.25 696.09 852.59 703.18 856.3 711.62 857.65 719.72 856.3 727.15 852.59 726.81 852.25 726.47 852.25 726.13 852.25 725.8 852.25 725.12 852.25 724.78 852.25 723.43 853.26 721.75 853.94 720.06 853.6 719.05 852.59 719.05 851.91 719.38 851.57 725.12 846.85 728.83 840.77 694.41 840.77"/>
  <line class="st3" x1="650.19" y1="852.25" x2="649.85" y2="852.25"/>
  <line class="st3" x1="649.85" y1="852.25" x2="649.52" y2="852.25"/>
  <line class="st3" x1="648.5" y1="852.25" x2="649.18" y2="852.25"/>
  <line class="st3" x1="649.18" y1="852.25" x2="649.51" y2="852.25"/>
  <line class="st3" x1="648.17" y1="852.59" x2="648.17" y2="852.25"/>
  <line class="st3" x1="648.17" y1="852.25" x2="648.5" y2="852.25"/>
  <line class="st3" x1="655.93" y1="852.59" x2="654.92" y2="853.6"/>
  <line class="st3" x1="654.92" y1="853.6" x2="653.56" y2="853.94"/>
  <line class="st3" x1="653.57" y1="853.94" x2="651.88" y2="853.26"/>
  <line class="st3" x1="651.88" y1="853.26" x2="650.19" y2="852.25"/>
  <line class="st3" x1="655.59" y1="851.57" x2="655.93" y2="851.91"/>
  <line class="st3" x1="655.93" y1="851.91" x2="655.93" y2="852.59"/>
  <line class="st3" x1="655.59" y1="851.57" x2="650.19" y2="846.85"/>
  <line class="st3" x1="650.19" y1="846.85" x2="646.48" y2="840.77"/>
  <line class="st3" x1="677.19" y1="852.25" x2="677.53" y2="852.25"/>
  <line class="st3" x1="677.53" y1="852.25" x2="677.87" y2="852.25"/>
  <line class="st3" x1="678.88" y1="852.25" x2="678.21" y2="852.25"/>
  <line class="st3" x1="678.21" y1="852.25" x2="677.87" y2="852.25"/>
  <line class="st3" x1="679.22" y1="852.59" x2="678.88" y2="852.25"/>
  <line class="st3" x1="671.46" y1="852.59" x2="672.47" y2="853.6"/>
  <line class="st3" x1="672.47" y1="853.6" x2="673.82" y2="853.94"/>
  <line class="st3" x1="673.82" y1="853.94" x2="675.51" y2="853.26"/>
  <line class="st3" x1="675.51" y1="853.26" x2="677.19" y2="852.25"/>
  <line class="st3" x1="671.79" y1="851.57" x2="671.12" y2="851.91"/>
  <line class="st3" x1="671.12" y1="851.91" x2="671.46" y2="852.59"/>
  <line class="st3" x1="671.79" y1="851.57" x2="677.19" y2="846.85"/>
  <line class="st3" x1="677.19" y1="846.85" x2="680.91" y2="840.77"/>
  <line class="st3" x1="648.17" y1="852.59" x2="655.59" y2="856.3"/>
  <line class="st3" x1="655.59" y1="856.3" x2="663.69" y2="857.65"/>
  <line class="st3" x1="663.69" y1="857.65" x2="671.79" y2="856.3"/>
  <line class="st3" x1="671.79" y1="856.3" x2="679.22" y2="852.59"/>
  <line class="st3" x1="650.19" y1="765.51" x2="649.85" y2="765.51"/>
  <line class="st3" x1="649.85" y1="765.51" x2="649.52" y2="765.51"/>
  <line class="st3" x1="648.5" y1="765.51" x2="649.18" y2="765.51"/>
  <line class="st3" x1="649.18" y1="765.51" x2="649.51" y2="765.51"/>
  <line class="st3" x1="648.17" y1="765.17" x2="648.17" y2="765.5"/>
  <line class="st3" x1="648.17" y1="765.51" x2="648.5" y2="765.51"/>
  <line class="st3" x1="655.93" y1="765.17" x2="654.92" y2="764.15"/>
  <line class="st3" x1="654.92" y1="764.16" x2="653.56" y2="763.82"/>
  <line class="st3" x1="653.57" y1="763.82" x2="651.88" y2="764.49"/>
  <line class="st3" x1="651.88" y1="764.49" x2="650.19" y2="765.51"/>
  <line class="st3" x1="655.59" y1="766.18" x2="655.93" y2="765.84"/>
  <line class="st3" x1="655.93" y1="765.84" x2="655.93" y2="765.17"/>
  <line class="st3" x1="655.59" y1="766.18" x2="650.19" y2="770.9"/>
  <line class="st3" x1="650.19" y1="770.91" x2="646.48" y2="776.98"/>
  <line class="st3" x1="677.19" y1="765.51" x2="677.53" y2="765.51"/>
  <line class="st3" x1="677.53" y1="765.51" x2="677.87" y2="765.51"/>
  <line class="st3" x1="678.88" y1="765.51" x2="678.21" y2="765.51"/>
  <line class="st3" x1="678.21" y1="765.51" x2="677.87" y2="765.51"/>
  <line class="st3" x1="679.22" y1="765.17" x2="678.88" y2="765.5"/>
  <line class="st3" x1="671.46" y1="765.17" x2="672.47" y2="764.15"/>
  <line class="st3" x1="672.47" y1="764.16" x2="673.82" y2="763.82"/>
  <line class="st3" x1="673.82" y1="763.82" x2="675.51" y2="764.49"/>
  <line class="st3" x1="675.51" y1="764.49" x2="677.19" y2="765.51"/>
  <line class="st3" x1="671.79" y1="766.18" x2="671.12" y2="765.84"/>
  <line class="st3" x1="671.12" y1="765.84" x2="671.46" y2="765.17"/>
  <line class="st3" x1="671.79" y1="766.18" x2="677.19" y2="770.9"/>
  <line class="st3" x1="677.19" y1="770.91" x2="680.91" y2="776.98"/>
  <line class="st3" x1="648.17" y1="765.17" x2="655.59" y2="761.45"/>
  <line class="st3" x1="655.59" y1="761.45" x2="663.69" y2="760.1"/>
  <line class="st3" x1="663.69" y1="760.1" x2="671.79" y2="761.45"/>
  <line class="st3" x1="671.79" y1="761.45" x2="679.22" y2="765.17"/>
  <line class="st3" x1="639.73" y1="776.98" x2="639.73" y2="840.77"/>
  <line class="st3" x1="724.78" y1="852.25" x2="725.12" y2="852.25"/>
  <line class="st3" x1="725.12" y1="852.25" x2="725.8" y2="852.25"/>
  <line class="st3" x1="726.47" y1="852.25" x2="726.14" y2="852.25"/>
  <line class="st3" x1="726.13" y1="852.25" x2="725.8" y2="852.25"/>
  <line class="st3" x1="727.15" y1="852.59" x2="726.81" y2="852.25"/>
  <line class="st3" x1="726.81" y1="852.25" x2="726.47" y2="852.25"/>
  <line class="st3" x1="719.05" y1="852.59" x2="720.06" y2="853.6"/>
  <line class="st3" x1="720.06" y1="853.6" x2="721.75" y2="853.94"/>
  <line class="st3" x1="721.75" y1="853.94" x2="723.43" y2="853.26"/>
  <line class="st3" x1="723.43" y1="853.26" x2="724.78" y2="852.25"/>
  <line class="st3" x1="719.38" y1="851.57" x2="719.05" y2="851.91"/>
  <line class="st3" x1="719.05" y1="851.91" x2="719.05" y2="852.59"/>
  <line class="st3" x1="719.38" y1="851.57" x2="725.12" y2="846.85"/>
  <line class="st3" x1="725.12" y1="846.85" x2="728.84" y2="840.77"/>
  <line class="st3" x1="698.12" y1="852.25" x2="697.78" y2="852.25"/>
  <line class="st3" x1="697.78" y1="852.25" x2="697.45" y2="852.25"/>
  <line class="st3" x1="696.43" y1="852.25" x2="696.77" y2="852.25"/>
  <line class="st3" x1="696.77" y1="852.25" x2="697.45" y2="852.25"/>
  <line class="st3" x1="696.09" y1="852.59" x2="696.09" y2="852.25"/>
  <line class="st3" x1="696.09" y1="852.25" x2="696.43" y2="852.25"/>
  <line class="st3" x1="703.86" y1="852.59" x2="702.84" y2="853.6"/>
  <line class="st3" x1="702.84" y1="853.6" x2="701.49" y2="853.94"/>
  <line class="st3" x1="701.49" y1="853.94" x2="699.81" y2="853.26"/>
  <line class="st3" x1="699.81" y1="853.26" x2="698.12" y2="852.25"/>
  <line class="st3" x1="703.52" y1="851.57" x2="703.86" y2="851.91"/>
  <line class="st3" x1="703.86" y1="851.91" x2="703.86" y2="852.59"/>
  <line class="st3" x1="703.52" y1="851.57" x2="697.78" y2="846.85"/>
  <line class="st3" x1="697.78" y1="846.85" x2="694.41" y2="840.77"/>
  <line class="st3" x1="727.15" y1="852.59" x2="719.72" y2="856.3"/>
  <line class="st3" x1="719.72" y1="856.3" x2="711.62" y2="857.65"/>
  <line class="st3" x1="711.62" y1="857.65" x2="703.18" y2="856.3"/>
  <line class="st3" x1="703.18" y1="856.3" x2="696.1" y2="852.59"/>
  <line class="st3" x1="724.78" y1="765.51" x2="725.12" y2="765.51"/>
  <line class="st3" x1="725.12" y1="765.51" x2="725.8" y2="765.51"/>
  <line class="st3" x1="726.47" y1="765.51" x2="726.14" y2="765.51"/>
  <line class="st3" x1="726.13" y1="765.51" x2="725.8" y2="765.51"/>
  <line class="st3" x1="727.15" y1="765.17" x2="726.81" y2="765.5"/>
  <line class="st3" x1="726.81" y1="765.51" x2="726.47" y2="765.51"/>
  <line class="st3" x1="719.05" y1="765.17" x2="720.06" y2="764.15"/>
  <line class="st3" x1="720.06" y1="764.16" x2="721.75" y2="763.82"/>
  <line class="st3" x1="721.75" y1="763.82" x2="723.43" y2="764.49"/>
  <line class="st3" x1="723.43" y1="764.49" x2="724.78" y2="765.51"/>
  <line class="st3" x1="719.38" y1="766.18" x2="719.05" y2="765.84"/>
  <line class="st3" x1="719.05" y1="765.84" x2="719.05" y2="765.17"/>
  <line class="st3" x1="719.38" y1="766.18" x2="725.12" y2="770.9"/>
  <line class="st3" x1="725.12" y1="770.91" x2="728.84" y2="776.98"/>
  <line class="st3" x1="698.12" y1="765.51" x2="697.78" y2="765.51"/>
  <line class="st3" x1="697.78" y1="765.51" x2="697.45" y2="765.51"/>
  <line class="st3" x1="696.43" y1="765.51" x2="696.77" y2="765.51"/>
  <line class="st3" x1="696.77" y1="765.51" x2="697.45" y2="765.51"/>
  <line class="st3" x1="696.09" y1="765.17" x2="696.09" y2="765.5"/>
  <line class="st3" x1="696.09" y1="765.51" x2="696.43" y2="765.51"/>
  <line class="st3" x1="703.86" y1="765.17" x2="702.84" y2="764.15"/>
  <line class="st3" x1="702.84" y1="764.16" x2="701.49" y2="763.82"/>
  <line class="st3" x1="701.49" y1="763.82" x2="699.81" y2="764.49"/>
  <line class="st3" x1="699.81" y1="764.49" x2="698.12" y2="765.51"/>
  <line class="st3" x1="703.52" y1="766.18" x2="703.86" y2="765.84"/>
  <line class="st3" x1="703.86" y1="765.84" x2="703.86" y2="765.17"/>
  <line class="st3" x1="703.52" y1="766.18" x2="697.78" y2="770.9"/>
  <line class="st3" x1="697.78" y1="770.91" x2="694.41" y2="776.98"/>
  <line class="st3" x1="727.15" y1="765.17" x2="719.72" y2="761.45"/>
  <line class="st3" x1="719.72" y1="761.45" x2="711.62" y2="760.1"/>
  <line class="st3" x1="711.62" y1="760.1" x2="703.18" y2="761.45"/>
  <line class="st3" x1="703.18" y1="761.45" x2="696.1" y2="765.17"/>
  <line class="st3" x1="735.25" y1="776.98" x2="735.25" y2="840.77"/>
  <polyline class="st3" points="735.25 840.77 728.84 840.77 694.41 840.77 680.91 840.77 646.48 840.77 639.73 840.77"/>
  <polyline class="st3" points="639.73 776.98 646.48 776.98 680.9 776.98 694.41 776.98 728.83 776.98 735.25 776.98"/>
  <line class="st3" x1="717.59" y1="1036.72" x2="728.26" y2="1036.72"/>
  <rect class="st3" x="687.56" y="1011.35" width="47.78" height="117.89"/>
  <line class="st3" x1="720.34" y1="1091.42" x2="720.34" y2="1101.85"/>
  <line class="st3" x1="700.72" y1="1091.42" x2="700.72" y2="1101.85"/>
  <line class="st3" x1="705.87" y1="1096.56" x2="695.44" y2="1096.56"/>
  <line class="st3" x1="725.62" y1="1096.56" x2="715.19" y2="1096.56"/>
  <rect class="st3" x="690.85" y="1085.44" width="39.36" height="22.95"/>
  <rect class="st3" x="697.93" y="1023.38" width="26.55" height="26.54"/>
  <rect class="st3" x="691.33" y="1016.77" width="39.75" height="39.89"/>
  <g class="st11">
    <path class="st13" d="M531.55,882.59c11.43,0,20.69,9.26,20.69,20.69s-9.26,20.69-20.69,20.69-20.69-9.26-20.69-20.69,9.26-20.69,20.69-20.69"/>
    <path class="st1" d="M531.55,882.59c11.43,0,20.69,9.26,20.69,20.69s-9.26,20.69-20.69,20.69-20.69-9.26-20.69-20.69,9.26-20.69,20.69-20.69Z"/>
  </g>
  <path class="st3" d="M431.3,936.29h119.49M550.79,936.29v45.23M550.79,988.27h-119.49M431.3,988.27v-51.98M676.69,693.95v15.86M676.69,709.81h58.73M431.3,709.81h48.27M479.57,709.81v-15.86M413.75,1145.22h4.73M418.48,1145.22h149.19M639.22,1145.22h113.75M735.41,1129.36h-96.2M566.99,1129.36h.68M457.29,555.56v107.67M698.62,663.23v-107.67M698.62,555.56h-241.33M453.24,663.23h4.05M457.29,663.23v-107.67M457.29,555.56h241.33M698.62,555.56v107.67M698.62,663.23h4.05M702.67,663.23v-111.72M702.67,551.51h-249.43M453.24,551.51v111.72M550.79,936.29l-119.49,51.98M550.79,936.29h-119.49M431.3,936.29v51.98M431.3,988.27h119.49M550.79,988.27v-51.98M413.75,709.81v419.55M752.97,1129.36v-419.55"/>
  <path class="st3" d="M735.42,840.77v-63.79M735.42,957.56h-1.35M731.7,957.56h-2.36M726.98,957.56h-2.36M722.25,957.56h-2.36M717.19,957.56h-2.36M712.46,957.56h-2.36M707.74,957.56h-2.36M703.01,957.56h-2.37M698.29,957.56h-2.36M693.56,957.56h-2.7M688.5,957.56h-1.01M687.49,957.56v-1.35M687.49,953.84v-2.36M687.49,949.12v-2.36M687.49,944.39v-2.7M687.49,939.33v-2.36M687.49,934.61v-2.36M687.49,929.88v-2.36M687.49,925.15v-2.36M687.49,920.43v-2.36M687.49,915.7v-2.7M687.49,910.64v-1.01M687.49,909.63h1.01M690.86,909.63h2.7M695.92,909.63h2.36M700.65,909.63h2.37M705.38,909.63h2.36M710.1,909.63h2.36M714.83,909.63h2.36M719.89,909.63h2.36M724.61,909.63h2.36M729.34,909.63h2.36M734.07,909.63h1.35M735.42,909.63v1.01M735.42,913v2.7M735.42,918.07v2.36M735.42,922.79v2.36M735.42,927.52v2.36M735.42,932.24v2.36M735.42,936.97v2.36M735.42,941.69v2.7M735.42,946.76v2.36M735.42,951.48v2.36M735.42,956.21v1.35M570.36,1062.53l12.83,1.35M583.19,1063.88l12.49,3.71M595.68,1067.59l11.47,6.41M607.15,1074l10.13,8.1M617.28,1082.1l8.44,10.13M625.72,1092.23l6.07,11.47M631.79,1103.71l3.71,12.49M635.51,1116.2l1.35,13.16M567.66,1145.22v-15.87M639.22,1129.36v15.87M636.86,1129.36h-66.49M570.36,1129.36v-66.83M566.99,1129.36h.68M735.42,1005.15h-1.35M731.7,1005.15h-2.36M726.98,1005.15h-2.36M722.25,1005.15h-2.36M717.19,1005.15h-2.36M712.46,1005.15h-2.36M707.74,1005.15h-2.36M703.01,1005.15h-2.37M698.29,1005.15h-2.36M693.56,1005.15h-2.7M688.5,1005.15h-1.01M687.49,1005.15v-1.01M687.49,1001.77v-2.36M687.49,996.71v-2.36M687.49,991.98v-2.36M687.49,987.26v-2.36M687.49,982.53v-2.36M687.49,977.81v-2.36M687.49,973.08v-2.36M687.49,968.02v-2.36M687.49,963.29v-2.36M687.49,958.57v-1.01M687.49,957.56h1.01M690.86,957.56h2.7M695.92,957.56h2.36M700.65,957.56h2.37M705.38,957.56h2.36M710.1,957.56h2.36M714.83,957.56h2.36M719.89,957.56h2.36M724.61,957.56h2.36M729.34,957.56h2.36M734.07,957.56h1.35M735.42,957.56v1.01M735.42,960.93v2.36M735.42,965.66v2.36M735.42,970.72v2.36M735.42,975.45v2.36M735.42,980.17v2.36M735.42,984.9v2.36M735.42,989.62v2.36M735.42,994.35v2.36M735.42,999.41v2.36M735.42,1004.14v1.01M735.42,1005.15h-56.03M679.39,1005.15v6.08M679.39,1011.22h56.03M413.75,1011.22v-6.08M483.28,592.35l13.16,1.01M496.45,593.36l12.49,3.37M508.93,596.74l11.81,5.74M520.75,602.48l10.8,7.43M531.55,609.9l9.45,9.45M541,619.35l7.43,10.46M548.42,629.82l5.74,12.15M554.16,641.97l3.38,12.49M557.54,654.46l1.01,13.16M483.28,667.62v-75.27M488.01,672.01h65.48M553.49,672.01v-3.71M553.49,668.3h-65.48M488.01,668.3v3.71M556.86,679.43h-72.23M488.01,667.62h65.48M488.01,674.03h65.48M556.86,674.03v5.4M484.63,674.03v5.4M484.63,674.03h72.23M480.58,679.43h4.05M484.63,679.43v-5.4M484.63,674.03h3.38M488.01,674.03v-6.41M488.01,667.62h-7.43M480.58,667.62v11.81M556.86,679.43h4.05M560.91,679.43v-11.81M560.91,667.62h-7.42M553.49,667.62v6.41M553.49,674.03h3.37M556.86,674.03v5.4M671.96,668.3v3.71M565.98,668.3h105.98M565.98,672.01v-3.71M671.96,672.01h-105.98M565.98,679.43h105.98M671.96,667.62h-105.98M565.98,667.62v11.81M561.93,667.62h4.05M561.93,679.43v-11.81M565.98,679.43h-4.05M675.67,667.62v11.81M671.96,667.62h3.71M671.96,679.43v-11.81M675.67,679.43h-3.71M479.57,677.41v32.4M431.3,709.81v218.38M431.3,928.19h127.59M558.89,1129.36h8.78M735.42,1129.36v-118.13M735.42,1005.15v-295.34M676.69,709.81v-32.4M676.69,677.41h-1.01M561.93,677.41h-1.01M480.58,677.41h-1.01M567.66,1129.36h-.68"/>
  <path class="st3" d="M735.41,1060.17v47.93M735.41,1012.58v95.52M558.89,1129.36v-6.75M558.89,1122.61v-9.11M558.89,1042.95v-54.68M553.82,1111.13h0M550.79,988.27h-117.8"/>
  <path class="st3" d="M488.01,1111.13l1.35-12.83M489.36,1098.31l3.71-12.49M493.07,1085.82l6.07-11.47M499.14,1074.34l8.1-9.79M507.24,1064.56l9.79-8.1M517.03,1056.45l11.48-6.07M528.51,1050.38l12.49-3.71M541,1046.67l12.83-1.35M552.47,1042.95h6.41M558.89,1113.5h-6.41M553.82,1107.76v3.38M553.82,1111.13h-65.82M553.82,1111.13h0M553.82,1107.76v-62.44"/>
  <path class="st3" d="M472.14,994.69h-1.35M469.1,994.69h-1.35M472.14,994.69h-4.39M472.14,994.69h-1.35M469.1,994.69h-1.35M439.4,994.69h113.07M552.47,994.69v48.26M552.47,1113.5v7.76M552.47,1121.26h-113.07M439.4,1121.26v-126.57"/>
  <path class="st3" d="M499.48,994.69h-21.26M473.49,994.69h-2.7M469.1,994.69h-2.7M461.68,994.69h-21.26M500.16,995.02l-.68-.34M752.96,928.19v8.1M431.3,936.29h8.1M439.4,936.29v-8.1M439.4,928.19h-8.1M486.99,936.29h63.8M550.79,928.19h-63.8M486.99,928.19v8.1M486.99,936.29h-47.59M439.4,928.19h47.59M439.4,936.29v-8.1M486.99,928.19v8.1M558.89,988.27v-60.08M558.89,928.19h-8.1M479.57,693.95v-30.72M479.57,663.23h-65.82M752.96,663.23h-76.28M676.68,663.23v30.72M676.68,672.01h-1.01M561.92,672.01h-1.01M480.58,672.01h-1.01M479.57,677.41v-5.4M676.68,672.01v5.4M676.68,672.01v-8.78M479.57,663.23v8.78M479.57,672.01h1.01M560.91,672.01h1.01M675.67,672.01h1.01M752.96,663.23v481.99M413.75,1145.22v-481.99"/>
  <g class="st10">
    <path class="st2" d="M1112.43,579.19h-6.07M1088.81,499.87l-16.2,7.09M1076.99,524.51l-4.39-17.55M1049.31,495.82l27.68,28.69M1049.31,495.82l39.49,4.05M1049.31,495.82l23.29,11.14M1112.43,818.5h-6.07M1112.43,658.84h-6.07M1112.43,738.5h-6.07M1112.43,818.5v-239.31M-13.9,1278.21h1183.71"/>
    <path d="M1091.04,1227.3c.43-.28.75-.67.96-1.17.21-.5.32-1.12.32-1.85,0-.58-.11-1.1-.32-1.57-.21-.47-.51-.82-.89-1.07-.38-.25-.78-.37-1.21-.37s-.82.11-1.15.34c-.33.23-.6.58-.82,1.05-.14.33-.32.93-.52,1.8-.19.87-.38,1.42-.57,1.62-.19.21-.42.32-.71.32-.33,0-.62-.15-.86-.45-.24-.3-.35-.77-.35-1.42s.13-1.1.39-1.42c.26-.32.64-.51,1.15-.56l-.08-1.03c-.47.02-.89.15-1.27.4-.37.25-.66.6-.85,1.06-.19.46-.29.99-.29,1.59,0,.55.09,1.05.28,1.49.18.45.45.79.8,1.02.36.23.74.35,1.14.35.37,0,.7-.1,1-.28.3-.19.55-.48.75-.87.16-.3.33-.82.5-1.57.18-.75.31-1.23.4-1.45.13-.34.29-.59.47-.73.19-.15.41-.22.66-.22s.48.08.69.23c.21.15.38.39.49.7.12.31.18.68.18,1.09,0,.46-.08.88-.24,1.25-.16.37-.37.65-.62.82-.26.17-.59.29-.99.34l.09,1.01c.54-.02,1.02-.16,1.45-.45M1092.18,1218.58h-2.79l-1.29-1.33,4.08-2.9v-1.42l-4.79,3.57-3.26-3.41v1.46l4,4.04h-4v1.08h8.06v-1.08Z"/>
    <path d="M1086.52,1209.06h.92v-5.37h-.92v5.37ZM1088.97,1209.06h.92v-5.37h-.92v5.37Z"/>
    <path d="M1091.04,1198.95c.43-.28.75-.67.96-1.17.21-.5.32-1.11.32-1.85,0-.58-.1-1.1-.31-1.57-.21-.47-.51-.82-.89-1.07-.38-.25-.78-.37-1.21-.37s-.81.11-1.14.34c-.33.23-.61.58-.82,1.05-.15.33-.32.93-.52,1.8-.2.88-.39,1.42-.57,1.63-.19.21-.42.31-.72.31-.33,0-.62-.15-.86-.45-.23-.3-.35-.77-.35-1.42s.13-1.1.39-1.42c.26-.32.65-.51,1.16-.56l-.08-1.03c-.47.02-.9.15-1.27.4-.38.25-.66.6-.85,1.07-.19.46-.29.99-.29,1.59,0,.55.09,1.05.27,1.49.18.45.45.79.81,1.02.35.23.73.35,1.14.35.37,0,.7-.1,1-.29.3-.19.55-.48.75-.87.16-.3.32-.83.5-1.57.18-.74.31-1.23.39-1.45.13-.34.29-.59.48-.73.19-.15.41-.22.66-.22s.48.07.69.23c.21.15.38.39.5.7.12.31.18.68.18,1.09,0,.46-.08.88-.24,1.25-.16.37-.37.64-.63.82-.26.17-.59.29-.99.34l.09,1.01c.54-.01,1.02-.16,1.45-.45"/>
    <path d="M1092.18,1190.73h-2.32l-.67-.71,2.98-1.95v-1.23l-3.67,2.48-2.16-2.26v1.29l2.37,2.37h-4.6v1h8.06v-1ZM1092.18,1181.6v-1.04c-.22.12-.46.21-.7.25-.24.04-.82.07-1.74.07h-1.32c-.44,0-.74.02-.91.05-.27.06-.49.16-.67.31-.18.15-.33.38-.44.69-.12.31-.17.72-.17,1.23s.07.95.21,1.33c.13.38.33.68.59.88.25.2.59.35,1,.44l.13-.98c-.42-.11-.7-.27-.87-.5-.16-.22-.24-.57-.24-1.04,0-.5.11-.88.33-1.14.17-.19.45-.28.86-.28.04,0,.12,0,.26,0,.13.38.24.97.34,1.78.05.4.09.69.15.89.07.27.18.5.33.72.14.21.33.38.57.52.24.13.5.2.78.2.49,0,.89-.17,1.2-.52s.47-.84.47-1.49c0-.39-.07-.76-.19-1.1-.13-.34-.35-.7-.66-1.07.27-.03.51-.1.72-.2M1089.61,1181.89c.44,0,.77.05.99.16.29.14.52.36.68.66.17.3.25.64.25,1.02s-.09.69-.27.89c-.17.2-.39.3-.66.3-.17,0-.33-.05-.47-.14-.14-.09-.25-.22-.33-.39-.07-.17-.14-.46-.2-.87-.1-.73-.23-1.27-.38-1.63h.36Z"/>
    <path d="M1092.18,1178.57h-2.32l-.67-.71,2.99-1.95v-1.23l-3.67,2.48-2.16-2.25v1.29l2.37,2.37h-4.6v1h8.06v-1ZM1091.34,1172.1c0,.15-.03.26-.07.34-.05.08-.11.14-.19.17-.08.03-.26.05-.55.05h-3.41v-1.01h-.77v1.01h-2.04l.59.99h1.45v.73h.77v-.73h3.36c.59,0,.98-.04,1.17-.12.19-.08.34-.22.45-.42.11-.2.17-.48.17-.84,0-.22-.03-.47-.09-.76l-.87.14c.03.18.04.33.04.44"/>
    <path d="M1105.35,1226.25h-3.66v-3.82h-.95v3.82h-2.49v-4.41h-.95v5.49h8.06v-1.08ZM1104.21,1220.55c.43-.28.74-.67.96-1.17.21-.5.32-1.11.32-1.85,0-.58-.1-1.11-.31-1.57-.21-.46-.51-.82-.89-1.07-.38-.25-.78-.37-1.21-.37s-.81.11-1.14.34c-.33.23-.61.58-.82,1.05-.15.33-.32.93-.51,1.8-.2.88-.39,1.42-.57,1.63-.19.21-.43.31-.72.31-.33,0-.62-.15-.86-.45-.23-.3-.35-.77-.35-1.42s.13-1.1.39-1.42c.26-.32.65-.51,1.16-.56l-.08-1.03c-.47.02-.9.15-1.27.4-.38.25-.66.6-.85,1.07-.19.46-.29.99-.29,1.59,0,.55.09,1.05.27,1.49.18.45.45.79.81,1.02.35.24.73.35,1.14.35.37,0,.7-.1,1-.29.3-.19.55-.48.75-.87.16-.3.33-.83.5-1.57.18-.74.31-1.23.39-1.45.13-.34.29-.59.48-.73.19-.15.41-.22.66-.22s.48.07.69.23c.21.15.38.39.5.7.12.31.18.68.18,1.09,0,.46-.08.88-.24,1.25-.16.37-.37.64-.63.82-.26.17-.59.29-.99.34l.09,1.01c.54-.01,1.02-.16,1.45-.45"/>
    <path d="M1099.69,1210.08h.92v-5.37h-.92v5.37ZM1102.13,1210.08h.92v-5.37h-.92v5.37Z"/>
    <polygon points="1105.35 1198.91 1101.68 1198.91 1101.68 1195.09 1100.73 1195.09 1100.73 1198.91 1098.24 1198.91 1098.24 1194.5 1097.29 1194.5 1097.29 1199.99 1105.35 1199.99 1105.35 1198.91"/>
    <path d="M1104.69,1192.69c.52-.51.79-1.18.79-2,0-.51-.12-.99-.36-1.42-.24-.43-.57-.76-1-.99-.43-.23-1.02-.34-1.77-.34-.93,0-1.66.26-2.18.77-.53.52-.79,1.18-.79,1.99,0,.73.22,1.35.65,1.85.52.61,1.32.91,2.4.91.99,0,1.74-.25,2.26-.76M1100.75,1191.93c-.37-.33-.56-.74-.56-1.24s.19-.9.56-1.23c.37-.33.92-.5,1.64-.5.77,0,1.34.16,1.71.49.37.33.56.74.56,1.24s-.19.91-.56,1.24c-.37.33-.93.49-1.68.49s-1.31-.16-1.68-.49M1105.35,1186.02h-3.06c-.42,0-.8-.06-1.15-.17-.23-.07-.41-.2-.54-.37-.13-.18-.2-.37-.2-.59,0-.24.07-.49.22-.73l-.92-.34c-.21.35-.32.69-.32,1.03,0,.23.06.45.2.64.13.19.4.4.82.63h-.89v.9h5.84v-1Z"/>
    <path d="M1104.38,1179.87c.19.26.29.57.29.94,0,.49-.17.9-.51,1.23-.34.33-.83.51-1.47.55v-4.4c-.12,0-.2,0-.26,0-.96,0-1.71.25-2.24.75-.53.5-.8,1.14-.8,1.93s.27,1.47.82,1.98c.54.51,1.3.77,2.29.77s1.69-.25,2.21-.76c.53-.5.79-1.19.79-2.05,0-.68-.17-1.25-.49-1.69-.33-.44-.79-.74-1.39-.9l-.13,1.03c.42.15.72.36.91.62M1100.65,1182.02c-.3-.31-.46-.7-.46-1.16,0-.51.19-.92.57-1.24.25-.21.61-.33,1.11-.38v3.29c-.51-.03-.92-.21-1.22-.52M1105.01,1176.51c.31-.4.47-.98.47-1.75,0-.46-.08-.88-.24-1.24-.16-.37-.39-.65-.68-.84-.29-.19-.6-.29-.93-.29s-.62.08-.85.24c-.23.16-.4.38-.52.66-.12.28-.27.77-.46,1.48-.13.49-.22.78-.25.88-.07.17-.16.3-.27.38-.1.08-.22.12-.34.12-.2,0-.38-.1-.53-.3-.15-.19-.22-.52-.22-.98,0-.39.08-.69.25-.9.17-.21.4-.34.7-.38l-.13-.97c-.38.06-.68.18-.9.34-.22.17-.4.42-.54.77-.13.35-.2.76-.2,1.22,0,.31.04.59.12.87.08.27.18.48.29.63.14.21.33.37.55.49.22.12.46.18.72.18.29,0,.55-.07.78-.22.23-.15.42-.36.55-.64.14-.28.29-.79.48-1.52.13-.55.25-.88.33-1.02.13-.2.3-.29.53-.29.25,0,.47.11.65.33.19.22.28.56.28,1.02s-.1.81-.31,1.06c-.21.25-.51.41-.9.46l.16.99c.62-.11,1.09-.37,1.4-.77M1097.29,1171.13h8.06v-1h-8.06v1ZM1105.35,1164.44v-1.04c-.22.13-.46.21-.7.25-.25.04-.82.06-1.74.06h-1.32c-.44,0-.74.02-.91.05-.27.06-.5.17-.67.31-.18.15-.33.38-.44.69-.12.31-.18.72-.18,1.23s.07.95.21,1.34c.14.38.34.68.59.88.25.21.59.35,1,.44l.13-.98c-.42-.11-.7-.27-.87-.5-.16-.22-.25-.57-.25-1.04,0-.5.11-.88.34-1.14.17-.19.45-.28.85-.28.04,0,.13,0,.26,0,.13.38.25.97.34,1.78.05.4.1.69.15.89.07.27.18.5.32.72.14.21.33.38.57.52.23.13.5.2.78.2.49,0,.89-.17,1.2-.52s.47-.84.47-1.49c0-.39-.06-.76-.19-1.1-.13-.34-.35-.7-.66-1.07.27-.03.51-.1.72-.2M1102.78,1164.73c.44,0,.77.06.99.16.29.14.52.36.68.66.17.3.25.64.25,1.03s-.09.69-.27.89c-.17.2-.39.3-.66.3-.17,0-.33-.04-.47-.14-.14-.09-.25-.22-.32-.39-.08-.17-.14-.46-.2-.87-.1-.72-.23-1.27-.37-1.63h.36ZM1098.73,1166.82c.2-.19.29-.43.29-.71s-.1-.5-.29-.7c-.2-.2-.44-.3-.72-.3s-.52.1-.71.3c-.2.2-.3.43-.3.7s.1.5.29.7.43.3.69.3c.29,0,.54-.1.74-.3M1097.58,1166.52c-.12-.12-.18-.26-.18-.41s.06-.3.18-.42c.12-.11.26-.17.42-.17s.31.06.42.17c.12.12.17.25.17.42s-.06.29-.17.41c-.12.12-.26.17-.44.17-.16,0-.3-.06-.41-.17M1104.38,1158.66c.19.26.29.57.29.94,0,.49-.17.9-.51,1.23-.34.33-.83.51-1.47.55v-4.4c-.12,0-.2,0-.26,0-.96,0-1.71.25-2.24.75-.53.5-.8,1.15-.8,1.93s.27,1.48.82,1.98c.54.51,1.3.76,2.29.76s1.69-.25,2.21-.76c.53-.5.79-1.19.79-2.05,0-.68-.17-1.25-.49-1.69-.33-.44-.79-.74-1.39-.9l-.13,1.03c.42.15.72.36.91.61M1100.65,1160.8c-.3-.31-.46-.7-.46-1.16,0-.51.19-.92.57-1.24.25-.21.61-.33,1.11-.38v3.29c-.51-.03-.92-.21-1.22-.52"/>
    <path d="M1104.5,1153.87c0,.15-.03.26-.07.34-.05.08-.11.14-.19.17s-.26.05-.55.05h-3.41v-1.01h-.77v1.01h-2.04l.59,1h1.45v.73h.77v-.73h3.36c.59,0,.98-.04,1.17-.12.18-.08.33-.22.45-.42.12-.2.17-.48.17-.84,0-.22-.03-.47-.09-.75l-.87.14c.03.18.04.33.04.44M1105.01,1149.18c.32-.4.47-.98.47-1.75,0-.46-.08-.88-.24-1.25-.16-.37-.38-.65-.68-.84-.29-.2-.6-.29-.93-.29s-.62.08-.84.24c-.23.16-.4.38-.52.66-.12.28-.27.77-.46,1.48-.13.49-.22.78-.25.88-.07.17-.16.3-.27.38-.1.08-.21.12-.34.12-.2,0-.38-.1-.53-.3-.15-.2-.22-.52-.22-.98,0-.39.09-.69.25-.9.17-.21.4-.34.7-.38l-.13-.98c-.38.06-.68.18-.91.34-.22.17-.4.43-.53.78-.13.35-.2.76-.2,1.22,0,.31.04.59.12.86.08.27.18.48.29.63.15.21.33.37.55.49.22.12.46.18.72.18.29,0,.55-.07.78-.22.23-.14.42-.36.56-.65.13-.28.29-.79.47-1.52.14-.54.25-.88.34-1.02.13-.19.3-.29.53-.29.25,0,.47.11.65.33.18.22.28.56.28,1.02s-.1.81-.31,1.06c-.21.25-.51.41-.9.46l.15.99c.62-.11,1.09-.36,1.4-.77"/>
    <path d="M1105.35,1142.46h-2.32l-.67-.71,2.98-1.95v-1.23l-3.67,2.48-2.16-2.25v1.29l2.37,2.36h-4.6v1h8.06v-1ZM1105.35,1133.68v-1.04c-.22.12-.46.21-.7.25-.24.04-.82.07-1.74.07h-1.32c-.44,0-.74.02-.91.05-.27.06-.5.16-.67.31-.18.15-.33.38-.44.69-.12.31-.17.72-.17,1.23s.07.95.2,1.33c.14.38.34.68.59.88.25.2.59.35,1,.44l.13-.98c-.41-.11-.7-.27-.87-.5-.16-.22-.24-.57-.24-1.04,0-.5.11-.88.33-1.14.17-.19.45-.28.85-.28.04,0,.12,0,.26,0,.14.38.25.97.35,1.78.04.4.09.69.15.89.07.27.18.5.33.72.14.21.33.38.57.52.23.13.5.2.78.2.49,0,.89-.17,1.2-.52.31-.35.47-.84.47-1.49,0-.39-.07-.76-.2-1.1-.13-.34-.34-.7-.66-1.07.27-.03.51-.1.72-.2M1102.78,1133.96c.44,0,.77.05.99.16.29.14.52.36.68.66.17.3.25.64.25,1.02s-.09.69-.27.89c-.17.2-.39.3-.66.3-.17,0-.33-.05-.47-.14-.14-.09-.25-.22-.32-.39-.07-.17-.14-.46-.2-.87-.1-.73-.23-1.27-.38-1.63h.36Z"/>
    <path d="M1104.62,1130.73c.57-.4.86-.94.86-1.64s-.27-1.3-.82-1.8c-.55-.5-1.32-.75-2.32-.75-.42,0-.82.06-1.19.18-.37.12-.69.28-.95.49-.26.21-.47.48-.61.8-.14.32-.22.67-.22,1.03,0,.65.26,1.19.79,1.62h-2.88v1h8.06v-.93h-.73ZM1100.75,1130.26c-.38-.32-.56-.69-.56-1.13s.18-.8.54-1.11c.36-.31.93-.46,1.69-.46s1.3.16,1.68.48.56.69.56,1.13c0,.54-.25.96-.76,1.27-.31.19-.82.29-1.52.29s-1.25-.16-1.63-.48"/>
    <path d="M1104.31,819.92c.56-.45.84-1.06.84-1.85,0-.6-.16-1.09-.48-1.48-.31-.39-.77-.68-1.34-.88-.58-.2-1.35-.29-2.29-.29-.8,0-1.43.06-1.9.18-.47.12-.87.29-1.2.5-.33.21-.58.49-.76.81-.18.33-.26.71-.26,1.15,0,.59.16,1.08.47,1.47.31.39.76.69,1.34.88.58.2,1.35.29,2.3.29,1.51,0,2.6-.27,3.27-.8M1098.31,819.18c-.39-.28-.58-.64-.58-1.1s.22-.85.66-1.17c.43-.31,1.32-.47,2.64-.47s2.2.16,2.64.47c.44.31.66.7.66,1.16s-.22.84-.65,1.16c-.44.31-1.32.47-2.64.47s-2.23-.17-2.72-.52M1104.06,666.23c-.18-.11-.36-.25-.53-.42-.18-.17-.52-.55-1.02-1.15-.6-.72-1.08-1.23-1.42-1.54-.34-.31-.67-.53-.99-.66-.31-.13-.63-.2-.95-.2-.63,0-1.16.23-1.59.68-.43.46-.64,1.07-.64,1.86s.2,1.39.59,1.85c.4.46.98.73,1.74.8l.1-1.03c-.51,0-.9-.15-1.19-.44-.29-.29-.43-.68-.43-1.16,0-.46.14-.83.41-1.11.27-.28.6-.43.99-.43s.77.16,1.19.47c.42.31.99.91,1.71,1.79.46.57.87,1.01,1.22,1.31.35.3.71.52,1.07.66.22.08.45.12.69.11v-5.38h-.95v3.99Z"/>
    <path d="M1105.01,660.14h-3.03c-.53,0-.94-.05-1.22-.16-.28-.11-.5-.28-.65-.52-.15-.24-.22-.5-.22-.78,0-.37.11-.64.33-.8.22-.16.55-.24.99-.24h3.79v-1h-3.39c-.6,0-1.04-.14-1.31-.41-.27-.28-.41-.62-.41-1.04,0-.23.06-.43.16-.6.11-.17.25-.29.42-.35.17-.07.46-.1.86-.1h3.67v-1h-4.01c-.66,0-1.16.16-1.48.47-.32.31-.48.76-.48,1.35,0,.75.34,1.35,1.02,1.82-.32.11-.57.31-.75.59-.18.28-.27.64-.27,1.07,0,.39.08.74.26,1.05.17.31.4.55.69.74h-.82v.9h5.83v-1Z"/>
    <path d="M1096.92,741.02v.64c.35.17.71.47,1.08.89.37.42.69.9.95,1.46h.95c-.11-.31-.28-.66-.51-1.05-.23-.39-.46-.7-.68-.95h6.3v-1h-8.09ZM1105.01,737.09h-3.03c-.53,0-.94-.05-1.22-.16-.28-.11-.5-.28-.65-.52-.15-.24-.22-.5-.22-.78,0-.37.11-.63.33-.8.22-.16.55-.24.99-.24h3.79v-1h-3.39c-.6,0-1.04-.14-1.31-.41-.27-.27-.41-.62-.41-1.03,0-.23.06-.43.16-.6.11-.17.25-.29.42-.35.17-.07.46-.1.86-.1h3.67v-.99h-4.01c-.66,0-1.16.16-1.48.47-.32.31-.48.76-.48,1.35,0,.75.34,1.35,1.02,1.82-.32.11-.57.31-.75.59-.18.28-.27.64-.27,1.07,0,.39.08.74.26,1.05.17.31.4.55.69.74h-.82v.89h5.83v-1Z"/>
    <path d="M1105.01,915.85h-6.86l6.86-2.35v-.97l-6.74-2.36h6.74v-1.04h-8.06v1.45l5.61,1.94c.57.2,1,.34,1.29.44-.26.08-.66.21-1.19.39l-5.71,1.92v1.62h8.06v-1.04ZM1105.01,903.82v-1.04c-.22.13-.46.21-.7.25-.24.04-.82.06-1.74.06h-1.32c-.44,0-.74.02-.91.05-.27.06-.49.16-.67.31-.17.15-.33.38-.44.69-.12.31-.17.72-.17,1.23s.07.95.21,1.34c.14.39.33.68.59.88.25.21.59.35,1,.44l.13-.98c-.42-.11-.7-.27-.87-.49-.16-.22-.24-.57-.24-1.04,0-.5.11-.88.34-1.14.16-.19.45-.28.85-.28.04,0,.12,0,.26,0,.13.38.25.97.34,1.78.05.4.1.69.15.89.08.26.18.5.33.72.14.21.33.38.57.51.23.13.5.2.78.2.49,0,.89-.18,1.2-.52.31-.35.47-.85.47-1.49,0-.39-.07-.76-.19-1.1-.13-.34-.35-.7-.66-1.07.27-.03.52-.1.72-.2M1102.44,904.1c.44,0,.77.06.99.16.29.14.52.36.69.66.16.3.25.64.25,1.03s-.09.68-.26.88c-.18.2-.4.3-.66.3-.17,0-.33-.05-.47-.14-.14-.09-.25-.22-.32-.39-.07-.17-.14-.46-.2-.87-.1-.72-.22-1.27-.37-1.63h.36ZM1098.39,906.19c.2-.2.29-.43.29-.71s-.09-.5-.29-.7c-.19-.2-.43-.29-.71-.29s-.52.1-.71.29c-.2.2-.29.43-.29.7s.09.5.29.7c.2.2.43.3.69.3.29,0,.54-.1.73-.29M1097.24,905.89c-.12-.12-.17-.26-.17-.41s.06-.3.17-.42c.12-.11.26-.17.43-.17s.3.06.42.18c.12.12.18.25.18.42s-.06.29-.18.41c-.12.12-.26.18-.43.18-.16,0-.3-.06-.42-.18"/>
    <rect x="1096.95" y="900.48" width="8.06" height="1"/>
    <path d="M1096.92,892.23v.65c.35.17.71.47,1.08.89.37.42.69.91.95,1.46h.96c-.12-.31-.29-.66-.51-1.05-.23-.39-.46-.71-.68-.95h6.31v-1h-8.09ZM1099.17,889.03h1.13v-1.14h-1.13v1.14ZM1103.88,889.03h1.13v-1.14h-1.13v1.14Z"/>
    <path d="M1104.53,885.74c.41-.47.61-1.07.61-1.81,0-.9-.33-1.61-.98-2.14-.53-.43-1.16-.64-1.89-.64s-1.39.24-1.88.73c-.49.49-.73,1.09-.73,1.8,0,.54.17,1.05.51,1.54l-2.17-.44v-3.25h-.94v4.05l4.14.79.12-.94c-.23-.15-.42-.35-.56-.61-.14-.26-.22-.55-.22-.87,0-.52.16-.94.49-1.26.33-.32.77-.48,1.33-.48.59,0,1.07.17,1.43.5.36.33.54.74.54,1.22,0,.4-.13.74-.38,1.03-.26.28-.64.46-1.14.54l.09,1.05c.68-.07,1.22-.34,1.63-.8M1104.31,879.33c.56-.45.83-1.06.83-1.85,0-.6-.16-1.09-.48-1.48-.31-.39-.76-.68-1.35-.88-.58-.2-1.34-.3-2.29-.3-.8,0-1.43.06-1.9.18-.47.12-.87.29-1.2.51-.33.21-.58.49-.76.82-.18.33-.26.71-.26,1.15,0,.59.16,1.08.47,1.47.31.39.76.68,1.34.88.58.2,1.35.3,2.3.3,1.51,0,2.6-.27,3.28-.81M1098.31,878.59c-.39-.27-.58-.64-.58-1.1s.22-.86.65-1.17,1.32-.47,2.64-.47,2.2.15,2.64.47c.44.31.66.7.66,1.16s-.22.84-.66,1.16c-.44.31-1.32.47-2.64.47s-2.23-.17-2.72-.51"/>
    <polygon class="st13" points="1105.01 528.9 1082.4 517.76 1089.15 503.25 1112.1 514.39 1105.01 528.9"/>
    <polygon points="1102.26 523.15 1090.91 517.66 1105.94 515.54 1106.89 513.57 1092.45 506.58 1091.56 508.42 1102.9 513.91 1087.88 516.03 1086.93 518 1101.37 524.99 1102.26 523.15"/>
    <path d="M1104.52,587.02c.42-.47.64-1.07.64-1.78,0-.79-.25-1.45-.73-1.97-.49-.52-1.09-.77-1.79-.77-.52,0-.95.13-1.3.4-.34.27-.57.64-.68,1.12-.17-.37-.4-.65-.68-.84-.29-.19-.61-.28-.95-.28-.36,0-.71.1-1.04.3-.33.2-.59.49-.77.86-.19.37-.28.78-.28,1.22,0,.64.18,1.18.55,1.62.36.43.88.71,1.54.83l.17-1c-.48-.07-.84-.24-1.09-.5s-.36-.58-.36-.97.12-.71.36-.96c.24-.25.54-.37.9-.37.46,0,.79.17,1.02.51.22.34.33.72.33,1.15,0,.04,0,.09-.01.16l.87.11c-.07-.28-.11-.52-.11-.7,0-.47.14-.85.44-1.15.29-.3.67-.45,1.12-.45s.87.16,1.2.48c.32.33.48.72.48,1.19,0,.4-.12.73-.37,1.01-.25.28-.65.47-1.21.59l.13,1c.67-.07,1.22-.34,1.64-.8M1105.01,580.48h-3.03c-.53,0-.94-.05-1.22-.16-.28-.1-.5-.28-.65-.52-.15-.24-.22-.5-.22-.78,0-.37.11-.63.33-.8.22-.16.55-.24.99-.24h3.79v-1h-3.39c-.6,0-1.04-.14-1.31-.41-.27-.27-.41-.62-.41-1.04,0-.23.06-.42.16-.6.11-.17.25-.29.42-.35.17-.07.46-.1.86-.1h3.67v-.99h-4.01c-.66,0-1.16.16-1.48.47-.32.31-.48.76-.48,1.35,0,.75.34,1.35,1.02,1.82-.32.11-.57.31-.75.59-.18.28-.27.64-.27,1.07,0,.39.08.74.26,1.05.17.31.4.55.69.74h-.82v.89h5.83v-1Z"/>
    <rect class="st13" x="25.93" y="944.73" width="18.9" height="311.88"/>
    <path d="M29.38,1250.33v.95c.52.26,1.05.7,1.61,1.32.55.62,1.02,1.35,1.41,2.17h1.43c-.17-.46-.42-.98-.76-1.56-.34-.58-.68-1.05-1.02-1.4h9.41v-1.48h-12.08ZM39.77,1245.63h1.68v-1.69h-1.68v1.69ZM39.75,1240.99c.64-.42,1.12-1,1.43-1.74.32-.73.47-1.65.47-2.74,0-.86-.16-1.64-.47-2.33-.31-.69-.76-1.22-1.32-1.59-.57-.37-1.17-.55-1.81-.55s-1.21.17-1.71.5c-.49.33-.9.85-1.22,1.56-.22.48-.48,1.37-.77,2.67-.29,1.3-.58,2.1-.86,2.4-.28.31-.64.47-1.07.47-.5,0-.92-.22-1.28-.66-.35-.44-.53-1.14-.53-2.11s.19-1.63.58-2.1c.39-.48.96-.76,1.72-.84l-.11-1.53c-.71.03-1.34.23-1.9.59-.55.37-.98.89-1.26,1.58-.29.68-.43,1.47-.43,2.36,0,.81.14,1.55.41,2.22.27.66.68,1.17,1.2,1.51.53.35,1.09.52,1.7.52.55,0,1.05-.14,1.5-.42.45-.28.82-.71,1.12-1.29.23-.44.49-1.22.75-2.33.27-1.11.46-1.82.59-2.15.19-.5.43-.87.71-1.08.28-.22.61-.33.99-.33s.72.12,1.03.34c.31.23.56.57.74,1.04.18.47.27,1.01.27,1.61,0,.69-.12,1.31-.36,1.85-.24.55-.55.95-.93,1.22-.38.26-.88.43-1.48.5l.13,1.5c.8-.02,1.52-.24,2.16-.66M41.46,1223.99v-1.55c-.33.18-.68.31-1.05.37-.36.07-1.23.1-2.6.1h-1.97c-.66,0-1.11.02-1.36.07-.4.09-.74.24-1.01.46-.26.22-.48.56-.66,1.03-.18.47-.27,1.07-.27,1.82s.1,1.41.31,1.98c.21.57.5,1.01.88,1.31.38.3.88.52,1.5.65l.2-1.45c-.62-.16-1.05-.41-1.29-.74-.24-.33-.36-.85-.36-1.54,0-.75.17-1.31.5-1.69.25-.28.67-.42,1.27-.42.06,0,.19,0,.39,0,.2.56.37,1.45.51,2.64.07.59.14,1.03.22,1.32.11.39.27.75.48,1.06.21.32.5.57.85.76.35.2.74.29,1.17.29.73,0,1.33-.26,1.8-.77.46-.52.7-1.25.7-2.22,0-.58-.09-1.12-.29-1.63-.19-.51-.52-1.03-.98-1.58.41-.04.77-.14,1.07-.3M37.63,1224.41c.65,0,1.14.08,1.47.24.43.21.77.54,1.02.98.25.45.37.95.37,1.53s-.13,1.01-.39,1.31c-.26.3-.59.45-.98.45-.26,0-.49-.07-.7-.21-.21-.14-.37-.33-.48-.58-.11-.25-.21-.68-.3-1.29-.15-1.08-.34-1.88-.56-2.42h.54ZM29.43,1220.58h12.02v-1.48h-12.02v1.48ZM32.74,1216.33h1.68v-1.69h-1.68v1.69ZM39.77,1216.33h1.68v-1.69h-1.68v1.69ZM30.18,1201.05c-.53.61-.79,1.38-.79,2.33,0,1.27.46,2.29,1.38,3.04,1.05.86,2.74,1.29,5.07,1.29,2.08,0,3.57-.39,4.47-1.17.9-.78,1.36-1.79,1.36-3.02,0-.72-.17-1.37-.52-1.94-.35-.57-.84-1.02-1.49-1.34-.65-.33-1.35-.49-2.11-.49-1.15,0-2.08.35-2.81,1.04-.73.69-1.09,1.53-1.09,2.52,0,.56.13,1.11.39,1.62.27.52.67.95,1.21,1.31-1.2,0-2.13-.15-2.78-.42-.65-.27-1.15-.63-1.48-1.1-.26-.36-.39-.77-.39-1.24,0-.59.21-1.08.63-1.48.26-.24.68-.43,1.26-.56l-.12-1.47c-.93.12-1.67.49-2.2,1.09M35.68,1205.31c-.48-.47-.72-1.04-.72-1.71s.24-1.23.72-1.68c.48-.45,1.13-.67,1.96-.67s1.55.23,2.05.67c.5.45.76.99.76,1.61,0,.43-.12.84-.37,1.23-.24.39-.6.69-1.06.91-.47.21-.95.33-1.46.33-.77,0-1.4-.24-1.88-.7M39.77,1197.38h1.68v-1.69h-1.68v1.69ZM41.46,1188.32c0-.77-.07-1.42-.2-1.95-.13-.53-.33-.97-.59-1.32-.26-.35-.64-.64-1.12-.89-.49-.24-1.01-.36-1.57-.36-.7,0-1.3.2-1.82.59s-.88.95-1.09,1.68c-.28-.56-.64-.99-1.1-1.27-.45-.28-.94-.42-1.45-.42-.55,0-1.08.16-1.59.47-.51.32-.88.75-1.12,1.31-.24.56-.36,1.3-.36,2.22v4.53h12.02v-4.6ZM30.85,1191.32v-2.41c0-.87.06-1.48.17-1.84.11-.36.32-.63.62-.82.3-.19.66-.29,1.05-.29.42,0,.77.1,1.05.31.28.21.48.51.6.92.09.31.14.81.14,1.52v2.61h-3.63ZM35.9,1191.32v-2.79c0-.77.07-1.36.2-1.77.13-.41.37-.73.7-.96s.72-.35,1.17-.35c.38,0,.72.08,1.01.24.29.16.52.36.67.61.16.25.26.56.33.92.04.21.06.57.06,1.09v3h-4.13ZM39.77,1181.31h1.68v-1.69h-1.68v1.69ZM29.38,1171.81v.96c.52.26,1.05.69,1.61,1.32.55.62,1.02,1.34,1.41,2.17h1.43c-.17-.46-.42-.98-.76-1.56-.34-.58-.68-1.05-1.02-1.41h9.41v-1.48h-12.08ZM39.77,1167.12h1.68v-1.69h-1.68v1.69ZM31,1157.19c.86.75,1.9,1.46,3.15,2.13,1.24.67,2.53,1.18,3.88,1.53,1.34.36,2.48.54,3.43.56v-1.52c-1.2-.08-2.3-.27-3.31-.57-1.43-.41-2.81-1-4.17-1.75-1.35-.76-2.43-1.52-3.25-2.29h-1.15v7.81h1.42v-5.91ZM41.46,1152.12c.5.01.88.1,1.15.25.27.15.47.38.6.69l.63-.41c-.21-.48-.5-.83-.88-1.04-.38-.22-.88-.33-1.5-.33h-1.68v1.69h1.68v-.84ZM30.18,1137.66c-.53.61-.79,1.39-.79,2.33,0,1.27.46,2.29,1.38,3.04,1.05.86,2.74,1.29,5.07,1.29,2.08,0,3.57-.39,4.47-1.17.9-.78,1.36-1.78,1.36-3.02,0-.73-.17-1.37-.52-1.94-.35-.57-.84-1.02-1.49-1.34-.65-.33-1.35-.49-2.11-.49-1.15,0-2.08.35-2.81,1.04-.73.69-1.09,1.54-1.09,2.52,0,.56.13,1.11.39,1.62.27.52.67.95,1.21,1.31-1.2-.01-2.13-.15-2.78-.42-.65-.27-1.15-.64-1.48-1.1-.26-.36-.39-.77-.39-1.25,0-.59.21-1.08.63-1.48.26-.24.68-.43,1.26-.56l-.12-1.47c-.93.12-1.67.48-2.2,1.09M35.68,1141.92c-.48-.47-.72-1.04-.72-1.7s.24-1.24.72-1.68c.48-.45,1.13-.67,1.96-.67s1.55.23,2.05.68c.5.45.76.99.76,1.61,0,.43-.12.84-.37,1.23-.24.39-.6.69-1.06.91-.47.22-.95.33-1.46.33-.77,0-1.4-.24-1.88-.7M39.77,1133.99h1.68v-1.69h-1.68v1.69ZM41.46,1124.93c0-.77-.07-1.42-.2-1.95-.13-.53-.33-.97-.59-1.32-.26-.35-.64-.64-1.12-.89-.49-.24-1.01-.36-1.57-.36-.7,0-1.3.2-1.82.59s-.88.96-1.09,1.68c-.28-.56-.64-.99-1.1-1.27-.45-.28-.94-.42-1.45-.42-.55,0-1.08.16-1.59.47-.51.31-.88.75-1.12,1.31-.24.56-.36,1.3-.36,2.22v4.52h12.02v-4.6ZM30.85,1127.93v-2.41c0-.87.06-1.48.17-1.84.11-.35.32-.63.62-.82.3-.19.66-.29,1.05-.29.42,0,.77.1,1.05.31.28.21.48.51.6.92.09.31.14.82.14,1.52v2.61h-3.63ZM35.9,1127.93v-2.79c0-.77.07-1.36.2-1.77.13-.41.37-.73.7-.96.33-.23.72-.35,1.17-.35.38,0,.72.08,1.01.24.29.16.52.36.67.61.16.25.26.56.33.92.04.21.06.57.06,1.09v3h-4.13ZM39.77,1117.92h1.68v-1.69h-1.68v1.69ZM29.38,1108.42v.96c.52.26,1.05.7,1.61,1.32s1.02,1.34,1.41,2.17h1.43c-.17-.46-.42-.98-.76-1.56-.34-.58-.68-1.04-1.02-1.4h9.41v-1.48h-12.08ZM39.77,1103.73h1.68v-1.69h-1.68v1.69ZM40.88,1098.51c.52-.6.78-1.37.78-2.31,0-.89-.24-1.67-.71-2.32-.48-.66-1.17-1.16-2.08-1.5-.91-.34-2.14-.5-3.67-.5s-2.6.17-3.38.51c-.78.34-1.38.83-1.8,1.48-.42.65-.63,1.37-.63,2.15,0,1.09.37,1.99,1.12,2.71.74.72,1.73,1.08,2.94,1.08s2.13-.35,2.85-1.04c.72-.69,1.08-1.54,1.08-2.53,0-.6-.15-1.15-.44-1.67-.29-.51-.67-.92-1.14-1.21.13,0,.23,0,.29,0,.61,0,1.21.07,1.8.22.59.15,1.06.33,1.41.55.35.22.62.5.83.84.21.35.31.74.31,1.2,0,.53-.15.97-.45,1.31-.3.34-.79.57-1.45.69l.13,1.42c.95-.12,1.68-.48,2.2-1.08M35.36,1094.19c.48.44.72,1,.72,1.69s-.24,1.25-.72,1.72c-.48.46-1.1.69-1.86.69-.86,0-1.55-.24-2.09-.73-.53-.49-.8-1.06-.8-1.72s.25-1.18.74-1.63c.5-.45,1.17-.68,2.02-.68s1.51.22,1.99.66M41.46,1088.73c.5.02.88.1,1.15.25.27.15.47.38.6.69l.63-.41c-.21-.48-.5-.83-.88-1.05-.38-.22-.88-.33-1.5-.33h-1.68v1.69h1.68v-.84Z"/>
    <path d="M30.18,1073.8c-.53.61-.79,1.38-.79,2.33,0,1.27.46,2.28,1.38,3.04,1.05.86,2.74,1.29,5.07,1.29,2.08,0,3.57-.39,4.47-1.17s1.36-1.79,1.36-3.02c0-.72-.17-1.37-.52-1.94s-.84-1.02-1.49-1.35c-.65-.33-1.35-.49-2.1-.49-1.15,0-2.08.35-2.81,1.04-.72.69-1.09,1.53-1.09,2.52,0,.57.13,1.11.4,1.62.26.52.66.95,1.2,1.31-1.2-.01-2.13-.15-2.78-.42-.65-.27-1.15-.64-1.48-1.1-.27-.36-.4-.77-.4-1.24,0-.59.21-1.08.63-1.48.26-.24.68-.43,1.26-.56l-.11-1.47c-.94.12-1.67.49-2.2,1.09M35.68,1078.06c-.48-.47-.72-1.04-.72-1.71s.24-1.24.72-1.68,1.13-.67,1.97-.67,1.55.23,2.05.68c.5.45.76.98.76,1.61,0,.43-.12.84-.36,1.23-.24.39-.6.69-1.06.91-.47.22-.95.32-1.46.32-.77,0-1.41-.23-1.88-.7M39.77,1070.1h1.68v-1.69h-1.68v1.69Z"/>
    <path d="M41.46,1061.08c0-.77-.07-1.42-.2-1.95-.14-.53-.33-.97-.59-1.32-.26-.35-.64-.64-1.12-.88-.49-.24-1.01-.36-1.57-.36-.7,0-1.31.2-1.82.59-.51.39-.88.95-1.09,1.68-.28-.56-.65-.99-1.1-1.27-.46-.28-.94-.42-1.45-.42-.55,0-1.08.16-1.59.47-.51.32-.88.75-1.12,1.31-.24.56-.37,1.3-.37,2.22v4.53h12.03v-4.6ZM30.85,1064.09v-2.41c0-.87.05-1.48.17-1.84.11-.35.32-.63.62-.82.3-.19.66-.29,1.05-.29.42,0,.77.1,1.05.31.28.21.48.51.6.92.09.3.14.81.14,1.52v2.61h-3.63ZM35.9,1064.09v-2.79c0-.77.07-1.36.2-1.77.13-.41.36-.73.7-.96.33-.23.72-.35,1.17-.35.38,0,.72.08,1.02.24.29.16.51.36.67.61.15.25.26.56.33.92.04.21.06.57.06,1.09v3h-4.14ZM39.77,1054.25h1.68v-1.69h-1.68v1.69Z"/>
    <path d="M29.38,1044.77v.96c.52.26,1.05.7,1.61,1.32.55.62,1.02,1.34,1.41,2.17h1.43c-.17-.46-.42-.98-.76-1.56-.34-.58-.68-1.04-1.02-1.4h9.41v-1.48h-12.08ZM39.77,1039.73h1.68v-1.69h-1.68v1.69Z"/>
    <path d="M29.38,1030.26v.96c.52.26,1.05.69,1.61,1.32s1.02,1.34,1.41,2.17h1.43c-.17-.46-.42-.98-.76-1.56-.34-.58-.68-1.04-1.02-1.4h9.41v-1.48h-12.08ZM29.38,1020.83v.96c.52.26,1.05.7,1.61,1.32s1.02,1.35,1.41,2.17h1.43c-.17-.46-.42-.98-.76-1.56-.34-.58-.68-1.04-1.02-1.4h9.41v-1.48h-12.08ZM41.46,1015.35c.5.02.88.1,1.15.25.26.15.47.38.6.69l.63-.41c-.21-.48-.5-.83-.88-1.04-.38-.22-.88-.33-1.5-.33h-1.68v1.69h1.68v-.84ZM30.18,1000.93c-.53.61-.79,1.38-.79,2.33,0,1.27.46,2.29,1.38,3.04,1.05.86,2.74,1.29,5.07,1.29,2.08,0,3.57-.39,4.48-1.17.91-.78,1.36-1.79,1.36-3.02,0-.72-.17-1.37-.51-1.94-.35-.57-.84-1.02-1.49-1.35-.65-.33-1.35-.49-2.1-.49-1.15,0-2.08.35-2.81,1.04-.72.69-1.08,1.53-1.08,2.53,0,.56.13,1.1.39,1.62.26.52.66.95,1.21,1.31-1.2,0-2.13-.15-2.78-.42-.65-.27-1.15-.64-1.48-1.1-.26-.36-.39-.77-.39-1.25,0-.59.21-1.08.63-1.48.26-.24.69-.43,1.27-.56l-.12-1.47c-.94.12-1.67.48-2.2,1.09M35.68,1005.18c-.48-.47-.72-1.03-.72-1.7s.24-1.24.72-1.68c.48-.45,1.13-.67,1.96-.67s1.55.23,2.05.68c.5.45.76.99.76,1.61,0,.43-.12.83-.37,1.23-.24.39-.6.69-1.06.91-.47.22-.95.33-1.46.33-.78,0-1.4-.23-1.88-.7M39.78,997.27h1.68v-1.69h-1.68v1.69ZM41.46,988.23c0-.77-.07-1.42-.2-1.94-.14-.53-.33-.97-.59-1.32-.26-.35-.64-.64-1.12-.88-.49-.24-1.01-.36-1.57-.36-.7,0-1.3.2-1.82.59-.51.4-.88.96-1.09,1.68-.28-.56-.64-.99-1.1-1.27s-.94-.42-1.45-.42c-.55,0-1.08.16-1.59.47-.5.31-.88.75-1.13,1.31-.24.56-.36,1.3-.36,2.22v4.53h12.02v-4.6ZM30.85,991.23v-2.41c0-.87.06-1.48.17-1.84.11-.35.32-.63.62-.82.31-.19.66-.29,1.05-.29.42,0,.77.1,1.05.31.28.21.48.51.6.92.09.3.14.81.14,1.52v2.61h-3.64ZM35.9,991.23v-2.79c0-.77.07-1.36.2-1.76.13-.41.37-.73.7-.96.33-.23.72-.35,1.17-.35.38,0,.72.08,1.02.24.29.16.51.36.67.61.16.25.27.56.33.92.04.21.06.57.06,1.09v3h-4.13ZM39.78,981.24h1.68v-1.69h-1.68v1.69ZM29.38,971.76v.96c.52.26,1.05.69,1.61,1.32s1.02,1.34,1.41,2.17h1.43c-.17-.46-.42-.98-.76-1.56-.34-.58-.68-1.05-1.02-1.4h9.41v-1.48h-12.08ZM39.78,967.08h1.68v-1.69h-1.68v1.69ZM29.38,957.6v.96c.52.26,1.05.69,1.61,1.32.55.62,1.02,1.34,1.41,2.17h1.43c-.17-.46-.42-.98-.76-1.56-.34-.58-.68-1.05-1.02-1.41h9.41v-1.48h-12.08Z"/>
    <path d="M40.73,952.28c.63-.7.94-1.58.94-2.64,0-1.18-.36-2.15-1.09-2.91-.73-.77-1.62-1.16-2.67-1.16-.78,0-1.43.2-1.94.6-.51.4-.86.95-1.02,1.66-.25-.55-.59-.96-1.02-1.24-.43-.28-.9-.42-1.42-.42-.55,0-1.06.14-1.55.44-.49.29-.87.72-1.15,1.27-.28.56-.42,1.16-.42,1.82,0,.96.27,1.75.82,2.39.54.64,1.31,1.05,2.3,1.24l.26-1.48c-.72-.11-1.26-.36-1.63-.74-.36-.39-.54-.87-.54-1.44s.18-1.06.53-1.43c.35-.37.8-.55,1.34-.55.68,0,1.19.26,1.52.76.33.5.49,1.07.49,1.7,0,.06,0,.14-.02.24l1.3.16c-.11-.42-.17-.76-.17-1.04,0-.69.22-1.25.66-1.69.44-.45,1-.67,1.68-.67s1.3.24,1.79.72c.48.48.72,1.07.72,1.77,0,.58-.19,1.09-.55,1.49-.37.41-.97.7-1.81.87l.2,1.48c1-.1,1.82-.5,2.45-1.2"/>
    <rect class="st13" x="47.87" y="944.73" width="18.9" height="311.88"/>
    <path d="M61.98,1254.04c-.27-.17-.53-.37-.8-.62-.27-.25-.77-.82-1.51-1.71-.9-1.06-1.6-1.83-2.12-2.29-.51-.46-1-.79-1.47-.98-.46-.2-.94-.3-1.42-.3-.94,0-1.74.34-2.38,1.01-.64.67-.96,1.59-.96,2.75s.3,2.06.89,2.74c.59.68,1.45,1.07,2.59,1.18l.16-1.52c-.76,0-1.35-.22-1.77-.65-.43-.43-.64-1-.64-1.71,0-.67.2-1.22.6-1.64.4-.42.89-.63,1.48-.63s1.15.23,1.78.69c.62.46,1.48,1.35,2.55,2.66.69.85,1.3,1.49,1.82,1.94.52.45,1.06.77,1.6.97.33.13.67.18,1.02.17v-7.98h-1.42v5.92ZM61.71,1245.63h1.68v-1.69h-1.68v1.69ZM61.69,1240.99c.64-.42,1.12-1,1.43-1.74.32-.73.47-1.65.47-2.74,0-.86-.16-1.64-.47-2.33-.31-.69-.76-1.22-1.32-1.59-.57-.37-1.17-.55-1.81-.55s-1.21.17-1.71.5c-.49.33-.9.85-1.22,1.56-.22.48-.48,1.37-.77,2.67-.29,1.3-.58,2.1-.86,2.4-.28.31-.64.47-1.07.47-.5,0-.92-.22-1.28-.66-.35-.44-.53-1.14-.53-2.11s.19-1.63.58-2.1c.39-.48.96-.76,1.72-.84l-.12-1.53c-.7.03-1.33.23-1.89.59-.56.37-.98.89-1.27,1.58-.29.68-.43,1.47-.43,2.36,0,.81.14,1.55.41,2.22.27.66.68,1.17,1.2,1.51.53.35,1.09.52,1.7.52.55,0,1.05-.14,1.5-.42.45-.28.82-.71,1.12-1.29.23-.44.49-1.22.75-2.33.27-1.11.46-1.82.59-2.15.19-.5.43-.87.71-1.08.28-.22.61-.33.99-.33s.72.12,1.03.34c.31.23.56.57.74,1.04.18.47.27,1.01.27,1.61,0,.69-.12,1.31-.36,1.85-.24.55-.55.95-.93,1.22-.38.26-.88.43-1.48.5l.13,1.5c.81-.02,1.53-.24,2.16-.66M63.4,1223.99v-1.55c-.33.18-.68.31-1.05.37-.36.07-1.23.1-2.6.1h-1.97c-.66,0-1.11.02-1.36.07-.4.09-.74.24-1.01.46-.26.22-.48.56-.66,1.03-.18.47-.27,1.07-.27,1.82s.1,1.41.31,1.98c.21.57.5,1.01.88,1.31.38.3.88.52,1.5.65l.2-1.45c-.62-.16-1.05-.41-1.29-.74-.24-.33-.36-.85-.36-1.54,0-.75.17-1.31.5-1.69.25-.28.67-.42,1.27-.42.06,0,.18,0,.39,0,.2.56.37,1.45.51,2.64.07.59.14,1.03.22,1.32.11.39.27.75.48,1.06.21.32.5.57.85.76.35.2.74.29,1.17.29.73,0,1.33-.26,1.79-.77.47-.52.7-1.25.7-2.22,0-.58-.09-1.12-.29-1.63-.19-.51-.52-1.03-.98-1.58.41-.04.77-.14,1.07-.3M59.57,1224.41c.65,0,1.14.08,1.47.24.43.21.77.54,1.02.98.25.45.37.95.37,1.53s-.13,1.01-.39,1.31c-.26.3-.59.45-.98.45-.26,0-.49-.07-.7-.21-.21-.14-.37-.33-.48-.58-.11-.25-.21-.68-.3-1.29-.15-1.08-.34-1.88-.56-2.42h.54ZM51.37,1220.58h12.03v-1.48h-12.03v1.48ZM54.68,1216.33h1.68v-1.69h-1.68v1.69ZM61.71,1216.33h1.68v-1.69h-1.68v1.69ZM52.12,1201.05c-.53.61-.79,1.38-.79,2.33,0,1.27.46,2.29,1.38,3.04,1.05.86,2.74,1.29,5.07,1.29,2.08,0,3.57-.39,4.47-1.17.9-.78,1.36-1.79,1.36-3.02,0-.72-.17-1.37-.52-1.94-.35-.57-.84-1.02-1.49-1.34-.65-.33-1.35-.49-2.11-.49-1.15,0-2.08.35-2.81,1.04-.73.69-1.09,1.53-1.09,2.52,0,.56.13,1.11.39,1.62.26.52.66.95,1.2,1.31-1.2,0-2.13-.15-2.78-.42-.65-.27-1.15-.63-1.48-1.1-.26-.36-.39-.77-.39-1.24,0-.59.21-1.08.63-1.48.26-.24.68-.43,1.26-.56l-.12-1.47c-.94.12-1.67.49-2.2,1.09M57.62,1205.31c-.48-.47-.72-1.04-.72-1.71s.24-1.23.72-1.68c.48-.45,1.13-.67,1.96-.67s1.55.23,2.05.67c.5.45.76.99.76,1.61,0,.43-.12.84-.37,1.23-.24.39-.6.69-1.06.91-.47.21-.95.33-1.46.33-.77,0-1.4-.24-1.88-.7M61.71,1197.38h1.68v-1.69h-1.68v1.69ZM63.4,1188.32c0-.77-.07-1.42-.2-1.95-.13-.53-.33-.97-.59-1.32-.26-.35-.64-.64-1.12-.89-.49-.24-1.01-.36-1.57-.36-.7,0-1.31.2-1.82.59-.51.39-.88.95-1.09,1.68-.28-.56-.64-.99-1.1-1.27-.46-.28-.94-.42-1.45-.42-.55,0-1.08.16-1.59.47-.51.32-.88.75-1.12,1.31-.24.56-.36,1.3-.36,2.22v4.53h12.03v-4.6ZM52.79,1191.32v-2.41c0-.87.06-1.48.17-1.84.11-.36.32-.63.62-.82.3-.19.66-.29,1.05-.29.42,0,.77.1,1.05.31.28.21.48.51.6.92.09.31.14.81.14,1.52v2.61h-3.63ZM57.84,1191.32v-2.79c0-.77.07-1.36.2-1.77.13-.41.37-.73.7-.96.33-.23.72-.35,1.17-.35.38,0,.72.08,1.01.24.29.16.52.36.67.61.16.25.26.56.33.92.04.21.06.57.06,1.09v3h-4.13ZM61.71,1181.31h1.68v-1.69h-1.68v1.69ZM61.98,1175.53c-.27-.17-.53-.38-.8-.62-.27-.25-.77-.82-1.51-1.71-.9-1.07-1.6-1.83-2.12-2.29-.51-.46-1-.79-1.47-.98-.46-.2-.94-.29-1.42-.29-.94,0-1.74.34-2.38,1.01-.64.67-.96,1.59-.96,2.75s.3,2.06.89,2.74,1.45,1.08,2.59,1.18l.16-1.52c-.76,0-1.35-.22-1.77-.65-.43-.43-.64-1-.64-1.71,0-.68.2-1.22.6-1.64.4-.42.89-.63,1.48-.63s1.15.23,1.78.69c.62.46,1.48,1.35,2.55,2.66.69.84,1.3,1.49,1.82,1.94.52.44,1.06.77,1.6.97.33.13.67.19,1.02.17v-7.98h-1.42v5.92ZM61.71,1167.12h1.68v-1.69h-1.68v1.69ZM52.94,1157.19c.86.75,1.9,1.46,3.15,2.13,1.24.67,2.53,1.18,3.88,1.53,1.34.36,2.48.54,3.43.56v-1.52c-1.2-.08-2.3-.27-3.31-.57-1.43-.41-2.81-1-4.17-1.75-1.35-.76-2.43-1.52-3.25-2.29h-1.15v7.81h1.42v-5.91ZM63.4,1152.12c.5.01.88.1,1.14.25.27.15.47.38.61.69l.63-.41c-.21-.48-.5-.83-.88-1.04-.38-.22-.88-.33-1.5-.33h-1.68v1.69h1.68v-.84ZM52.12,1137.66c-.53.61-.79,1.39-.79,2.33,0,1.27.46,2.29,1.38,3.04,1.05.86,2.74,1.29,5.07,1.29,2.08,0,3.57-.39,4.47-1.17.9-.78,1.36-1.78,1.36-3.02,0-.73-.17-1.37-.52-1.94-.35-.57-.84-1.02-1.49-1.34-.65-.33-1.35-.49-2.11-.49-1.15,0-2.08.35-2.81,1.04-.73.69-1.09,1.54-1.09,2.52,0,.56.13,1.11.39,1.62.26.52.66.95,1.2,1.31-1.2-.01-2.13-.15-2.78-.42-.65-.27-1.15-.64-1.48-1.1-.26-.36-.39-.77-.39-1.25,0-.59.21-1.08.63-1.48.26-.24.68-.43,1.26-.56l-.12-1.47c-.94.12-1.67.48-2.2,1.09M57.62,1141.92c-.48-.47-.72-1.04-.72-1.7s.24-1.24.72-1.68c.48-.45,1.13-.67,1.96-.67s1.55.23,2.05.68c.5.45.76.99.76,1.61,0,.43-.12.84-.37,1.23-.24.39-.6.69-1.06.91-.47.22-.95.33-1.46.33-.77,0-1.4-.24-1.88-.7M61.71,1133.99h1.68v-1.69h-1.68v1.69ZM63.4,1124.93c0-.77-.07-1.42-.2-1.95-.13-.53-.33-.97-.59-1.32-.26-.35-.64-.64-1.12-.89-.49-.24-1.01-.36-1.57-.36-.7,0-1.31.2-1.82.59-.51.39-.88.96-1.09,1.68-.28-.56-.64-.99-1.1-1.27-.46-.28-.94-.42-1.45-.42-.55,0-1.08.16-1.59.47-.51.31-.88.75-1.12,1.31-.24.56-.36,1.3-.36,2.22v4.52h12.03v-4.6ZM52.79,1127.93v-2.41c0-.87.06-1.48.17-1.84.11-.35.32-.63.62-.82.3-.19.66-.29,1.05-.29.42,0,.77.1,1.05.31.28.21.48.51.6.92.09.31.14.82.14,1.52v2.61h-3.63ZM57.84,1127.93v-2.79c0-.77.07-1.36.2-1.77.13-.41.37-.73.7-.96.33-.23.72-.35,1.17-.35.38,0,.72.08,1.01.24.29.16.52.36.67.61.16.25.26.56.33.92.04.21.06.57.06,1.09v3h-4.13ZM61.71,1117.92h1.68v-1.69h-1.68v1.69ZM61.98,1112.14c-.27-.16-.53-.37-.8-.62-.27-.25-.77-.83-1.51-1.72-.9-1.06-1.6-1.82-2.12-2.28-.51-.46-1-.78-1.47-.98-.46-.2-.94-.3-1.42-.3-.94,0-1.74.34-2.38,1.01-.64.67-.96,1.59-.96,2.75s.3,2.06.89,2.74c.59.68,1.45,1.07,2.59,1.18l.16-1.52c-.76,0-1.35-.22-1.77-.65-.43-.43-.64-1-.64-1.71,0-.68.2-1.22.6-1.64.4-.42.89-.63,1.48-.63s1.15.23,1.78.69c.62.46,1.48,1.35,2.55,2.66.69.84,1.3,1.49,1.82,1.94.52.45,1.06.77,1.6.97.33.13.67.18,1.02.17v-7.98h-1.42v5.92ZM61.71,1103.73h1.68v-1.69h-1.68v1.69ZM62.82,1098.51c.52-.6.78-1.37.78-2.31,0-.89-.24-1.67-.71-2.32-.48-.66-1.17-1.16-2.08-1.5-.91-.34-2.14-.5-3.67-.5s-2.6.17-3.38.51c-.78.34-1.38.83-1.8,1.48-.42.65-.63,1.37-.63,2.15,0,1.09.37,1.99,1.12,2.71.74.72,1.73,1.08,2.94,1.08s2.13-.35,2.85-1.04c.72-.69,1.08-1.54,1.08-2.53,0-.6-.15-1.15-.44-1.67-.29-.51-.67-.92-1.14-1.21.13,0,.23,0,.29,0,.61,0,1.21.07,1.8.22.59.15,1.06.33,1.41.55.35.22.62.5.83.84.21.35.31.74.31,1.2,0,.53-.15.97-.45,1.31-.3.34-.79.57-1.45.69l.13,1.42c.95-.12,1.68-.48,2.2-1.08M57.3,1094.19c.48.44.72,1,.72,1.69s-.24,1.25-.72,1.72c-.48.46-1.1.69-1.86.69-.86,0-1.55-.24-2.09-.73-.53-.49-.8-1.06-.8-1.72s.25-1.18.74-1.63c.5-.45,1.17-.68,2.02-.68s1.51.22,1.99.66M63.4,1088.73c.5.02.88.1,1.14.25.27.15.47.38.61.69l.63-.41c-.21-.48-.5-.83-.88-1.05-.38-.22-.88-.33-1.5-.33h-1.68v1.69h1.68v-.84Z"/>
    <path d="M52.12,1073.8c-.53.61-.79,1.38-.79,2.33,0,1.27.46,2.28,1.38,3.04,1.05.86,2.74,1.29,5.07,1.29,2.07,0,3.57-.39,4.47-1.17.9-.78,1.35-1.79,1.35-3.02,0-.72-.17-1.37-.51-1.94s-.84-1.02-1.49-1.35c-.65-.33-1.35-.49-2.1-.49-1.15,0-2.09.35-2.81,1.04-.72.69-1.09,1.53-1.09,2.52,0,.57.13,1.11.39,1.62.26.52.66.95,1.21,1.31-1.2-.01-2.13-.15-2.78-.42-.65-.27-1.15-.64-1.48-1.1-.26-.36-.39-.77-.39-1.24,0-.59.21-1.08.63-1.48.27-.24.68-.43,1.26-.56l-.11-1.47c-.94.12-1.67.49-2.2,1.09M57.62,1078.06c-.48-.47-.72-1.04-.72-1.71s.24-1.24.72-1.68,1.13-.67,1.97-.67,1.55.23,2.05.68c.5.45.76.98.76,1.61,0,.43-.12.84-.36,1.23-.24.39-.6.69-1.06.91-.46.22-.95.32-1.46.32-.77,0-1.4-.23-1.88-.7M61.71,1070.1h1.68v-1.69h-1.68v1.69Z"/>
    <path d="M63.4,1061.08c0-.77-.07-1.42-.2-1.95-.14-.53-.33-.97-.6-1.32-.26-.35-.63-.64-1.12-.88-.48-.24-1.01-.36-1.57-.36-.7,0-1.31.2-1.82.59-.51.39-.88.95-1.09,1.68-.28-.56-.64-.99-1.1-1.27-.45-.28-.94-.42-1.45-.42-.55,0-1.08.16-1.59.47-.51.32-.88.75-1.12,1.31-.24.56-.37,1.3-.37,2.22v4.53h12.03v-4.6ZM52.79,1064.09v-2.41c0-.87.05-1.48.17-1.84.11-.35.32-.63.62-.82.31-.19.66-.29,1.05-.29.42,0,.77.1,1.05.31.28.21.48.51.6.92.1.3.14.81.14,1.52v2.61h-3.63ZM57.84,1064.09v-2.79c0-.77.07-1.36.2-1.77.14-.41.37-.73.7-.96.33-.23.72-.35,1.17-.35.38,0,.72.08,1.01.24.29.16.51.36.67.61.15.25.26.56.33.92.04.21.06.57.06,1.09v3h-4.13ZM61.71,1054.25h1.68v-1.69h-1.68v1.69Z"/>
    <path d="M61.98,1048.49c-.27-.16-.53-.37-.8-.62-.27-.25-.77-.82-1.52-1.71-.9-1.06-1.6-1.82-2.12-2.29-.51-.46-1-.78-1.47-.98-.46-.2-.94-.3-1.42-.3-.95,0-1.74.34-2.38,1.01-.64.67-.96,1.59-.96,2.75s.3,2.06.89,2.74c.6.68,1.46,1.07,2.59,1.18l.16-1.52c-.76,0-1.34-.22-1.77-.65-.42-.43-.64-1-.64-1.71,0-.68.2-1.22.6-1.64.4-.42.9-.63,1.48-.63s1.15.23,1.77.69c.63.46,1.48,1.35,2.55,2.66.69.84,1.3,1.49,1.82,1.94.52.45,1.06.77,1.6.97.33.12.67.18,1.03.17v-7.98h-1.42v5.92ZM61.71,1039.73h1.68v-1.69h-1.68v1.69Z"/>
    <path d="M51.32,1030.26v.96c.52.26,1.05.69,1.61,1.32s1.02,1.34,1.41,2.17h1.43c-.17-.46-.42-.98-.76-1.56-.34-.58-.68-1.04-1.02-1.4h9.41v-1.48h-12.08ZM51.32,1020.83v.96c.52.26,1.05.7,1.61,1.32s1.02,1.35,1.41,2.17h1.43c-.17-.46-.42-.98-.76-1.56-.34-.58-.68-1.04-1.02-1.4h9.41v-1.48h-12.08ZM63.4,1015.35c.5.02.88.1,1.15.25.26.15.46.38.6.69l.63-.41c-.21-.48-.5-.83-.88-1.04-.38-.22-.88-.33-1.5-.33h-1.68v1.69h1.68v-.84ZM52.12,1000.93c-.53.61-.79,1.38-.79,2.33,0,1.27.46,2.29,1.38,3.04,1.05.86,2.74,1.29,5.07,1.29,2.08,0,3.57-.39,4.48-1.17.91-.78,1.36-1.79,1.36-3.02,0-.72-.17-1.37-.51-1.94-.35-.57-.84-1.02-1.49-1.35-.65-.33-1.35-.49-2.1-.49-1.15,0-2.08.35-2.81,1.04-.72.69-1.08,1.53-1.08,2.53,0,.56.13,1.1.39,1.62.26.52.66.95,1.2,1.31-1.2,0-2.13-.15-2.78-.42-.65-.27-1.15-.64-1.48-1.1-.26-.36-.4-.77-.4-1.25,0-.59.21-1.08.63-1.48.26-.24.68-.43,1.26-.56l-.11-1.47c-.94.12-1.67.48-2.2,1.09M57.62,1005.18c-.48-.47-.72-1.03-.72-1.7s.24-1.24.72-1.68c.48-.45,1.13-.67,1.96-.67s1.55.23,2.05.68c.5.45.76.99.76,1.61,0,.43-.12.83-.37,1.23-.24.39-.6.69-1.06.91-.47.22-.95.33-1.46.33-.77,0-1.4-.23-1.88-.7M61.72,997.27h1.68v-1.69h-1.68v1.69ZM63.4,988.23c0-.77-.07-1.42-.2-1.94-.14-.53-.33-.97-.59-1.32-.26-.35-.64-.64-1.12-.88-.49-.24-1.01-.36-1.57-.36-.7,0-1.3.2-1.82.59-.51.4-.88.96-1.09,1.68-.28-.56-.64-.99-1.1-1.27s-.94-.42-1.45-.42c-.55,0-1.08.16-1.59.47-.5.31-.88.75-1.13,1.31-.24.56-.36,1.3-.36,2.22v4.53h12.02v-4.6ZM52.79,991.23v-2.41c0-.87.06-1.48.17-1.84.11-.35.32-.63.62-.82.31-.19.66-.29,1.05-.29.42,0,.77.1,1.05.31.28.21.48.51.6.92.09.3.14.81.14,1.52v2.61h-3.64ZM57.84,991.23v-2.79c0-.77.07-1.36.2-1.76.13-.41.37-.73.7-.96.33-.23.72-.35,1.17-.35.38,0,.72.08,1.02.24.29.16.51.36.67.61.16.25.27.56.33.92.04.21.06.57.06,1.09v3h-4.13ZM61.72,981.24h1.68v-1.69h-1.68v1.69ZM61.98,975.47c-.27-.16-.53-.37-.8-.62-.26-.25-.77-.82-1.51-1.71-.9-1.06-1.6-1.82-2.12-2.28-.51-.46-1-.79-1.47-.98-.47-.2-.94-.3-1.42-.3-.95,0-1.74.34-2.38,1.01-.64.67-.96,1.59-.96,2.75s.3,2.06.89,2.74c.59.68,1.45,1.07,2.59,1.18l.16-1.52c-.76,0-1.35-.23-1.77-.65-.43-.43-.64-1-.64-1.71,0-.68.2-1.22.6-1.64s.9-.63,1.48-.63c.55,0,1.15.23,1.77.69.63.46,1.48,1.35,2.55,2.66.69.84,1.3,1.49,1.82,1.94.52.45,1.06.77,1.6.97.33.13.67.19,1.03.17v-7.97h-1.42v5.92ZM61.72,967.08h1.68v-1.69h-1.68v1.69ZM51.32,957.6v.96c.52.26,1.05.69,1.61,1.32.55.62,1.02,1.34,1.41,2.17h1.43c-.17-.46-.42-.98-.76-1.56-.34-.58-.68-1.05-1.02-1.41h9.41v-1.48h-12.08Z"/>
    <path d="M62.67,952.28c.63-.7.94-1.58.94-2.64,0-1.18-.37-2.15-1.1-2.91-.73-.77-1.62-1.16-2.67-1.16-.78,0-1.42.2-1.94.6-.52.4-.86.95-1.02,1.66-.25-.55-.59-.96-1.01-1.24-.43-.28-.9-.42-1.42-.42-.55,0-1.06.14-1.55.44-.49.29-.87.72-1.15,1.27-.28.56-.42,1.16-.42,1.82,0,.96.27,1.75.82,2.39.54.64,1.31,1.05,2.3,1.24l.26-1.48c-.72-.11-1.26-.36-1.63-.74-.36-.39-.54-.87-.54-1.44s.18-1.06.53-1.43c.35-.37.8-.55,1.34-.55.68,0,1.19.26,1.52.76.33.5.49,1.07.49,1.7,0,.06,0,.14-.02.24l1.3.16c-.11-.42-.17-.76-.17-1.04,0-.69.22-1.25.66-1.69.44-.45,1-.67,1.68-.67s1.3.24,1.78.72c.48.48.72,1.07.72,1.77,0,.58-.19,1.09-.55,1.49-.37.41-.97.7-1.81.87l.2,1.48c1-.1,1.82-.5,2.45-1.2"/>
    <rect class="st13" x="69.47" y="944.73" width="18.9" height="311.88"/>
    <path d="M84.27,1254.7c.63-.7.94-1.58.94-2.64,0-1.18-.37-2.15-1.1-2.92-.73-.77-1.62-1.15-2.67-1.15-.78,0-1.43.2-1.94.59-.51.39-.86.95-1.02,1.66-.25-.55-.59-.96-1.02-1.24-.43-.28-.9-.42-1.42-.42-.55,0-1.06.14-1.55.44-.49.29-.87.72-1.15,1.27-.28.55-.42,1.16-.42,1.82,0,.95.27,1.75.81,2.4.55.64,1.31,1.05,2.3,1.23l.26-1.48c-.72-.11-1.26-.36-1.62-.74-.36-.38-.54-.87-.54-1.44s.18-1.06.53-1.42c.35-.37.8-.55,1.34-.55.68,0,1.19.25,1.52.76.33.5.49,1.07.49,1.7,0,.06,0,.14-.02.24l1.3.17c-.11-.42-.17-.77-.17-1.05,0-.69.22-1.25.66-1.7.44-.44,1-.66,1.68-.66s1.3.24,1.79.72c.48.48.72,1.07.72,1.77,0,.59-.19,1.08-.55,1.49-.37.41-.97.7-1.81.87l.2,1.48c1-.1,1.82-.5,2.45-1.2M83.32,1245.63h1.68v-1.69h-1.68v1.69ZM83.3,1240.99c.64-.42,1.12-1,1.43-1.74.32-.73.47-1.65.47-2.74,0-.86-.16-1.64-.47-2.33-.31-.69-.76-1.22-1.32-1.59-.57-.37-1.17-.55-1.81-.55s-1.21.17-1.71.5c-.49.33-.9.85-1.22,1.56-.22.48-.48,1.37-.77,2.67-.29,1.3-.58,2.1-.86,2.4-.28.31-.64.47-1.07.47-.5,0-.92-.22-1.28-.66-.35-.44-.53-1.14-.53-2.11s.19-1.63.58-2.1c.39-.48.96-.76,1.72-.84l-.11-1.53c-.71.03-1.34.23-1.89.59-.56.37-.98.89-1.27,1.58-.29.68-.43,1.47-.43,2.36,0,.81.14,1.55.41,2.22.27.66.68,1.17,1.2,1.51.53.35,1.09.52,1.7.52.55,0,1.05-.14,1.5-.42.45-.28.82-.71,1.12-1.29.23-.44.49-1.22.75-2.33.27-1.11.46-1.82.59-2.15.19-.5.43-.87.71-1.08.28-.22.61-.33.99-.33s.72.12,1.03.34c.31.23.56.57.74,1.04.18.47.27,1.01.27,1.61,0,.69-.12,1.31-.36,1.85-.24.55-.55.95-.93,1.22-.38.26-.88.43-1.48.5l.13,1.5c.8-.02,1.52-.24,2.16-.66M85,1223.99v-1.55c-.33.18-.68.31-1.05.37-.36.07-1.23.1-2.6.1h-1.97c-.66,0-1.11.02-1.36.07-.4.09-.74.24-1.01.46-.26.22-.48.56-.66,1.03-.18.47-.27,1.07-.27,1.82s.1,1.41.31,1.98c.21.57.5,1.01.88,1.31.38.3.88.52,1.5.65l.2-1.45c-.62-.16-1.05-.41-1.29-.74-.24-.33-.36-.85-.36-1.54,0-.75.17-1.31.5-1.69.25-.28.67-.42,1.27-.42.06,0,.19,0,.39,0,.2.56.37,1.45.51,2.64.07.59.14,1.03.22,1.32.11.39.27.75.48,1.06.21.32.5.57.85.76.35.2.74.29,1.17.29.73,0,1.33-.26,1.8-.77.46-.52.7-1.25.7-2.22,0-.58-.09-1.12-.29-1.63-.19-.51-.52-1.03-.98-1.58.41-.04.77-.14,1.07-.3M81.17,1224.41c.65,0,1.14.08,1.47.24.43.21.77.54,1.02.98.25.45.37.95.37,1.53s-.13,1.01-.39,1.31c-.26.3-.59.45-.98.45-.26,0-.49-.07-.7-.21-.21-.14-.37-.33-.48-.58-.11-.25-.21-.68-.3-1.29-.15-1.08-.34-1.88-.56-2.42h.54ZM72.97,1220.58h12.02v-1.48h-12.02v1.48ZM76.29,1216.33h1.68v-1.69h-1.68v1.69ZM83.32,1216.33h1.68v-1.69h-1.68v1.69ZM73.72,1201.05c-.53.61-.79,1.38-.79,2.33,0,1.27.46,2.29,1.38,3.04,1.05.86,2.74,1.29,5.07,1.29,2.08,0,3.57-.39,4.47-1.17.9-.78,1.36-1.79,1.36-3.02,0-.72-.17-1.37-.52-1.94-.35-.57-.84-1.02-1.49-1.34-.65-.33-1.35-.49-2.11-.49-1.15,0-2.08.35-2.81,1.04-.73.69-1.09,1.53-1.09,2.52,0,.56.13,1.11.39,1.62.26.52.66.95,1.2,1.31-1.2,0-2.13-.15-2.78-.42-.65-.27-1.15-.63-1.48-1.1-.26-.36-.39-.77-.39-1.24,0-.59.21-1.08.63-1.48.26-.24.68-.43,1.26-.56l-.12-1.47c-.93.12-1.67.49-2.2,1.09M79.22,1205.31c-.48-.47-.72-1.04-.72-1.71s.24-1.23.72-1.68c.48-.45,1.13-.67,1.96-.67s1.55.23,2.05.67c.5.45.76.99.76,1.61,0,.43-.12.84-.37,1.23-.24.39-.6.69-1.06.91-.47.21-.95.33-1.46.33-.77,0-1.4-.24-1.88-.7M83.32,1197.38h1.68v-1.69h-1.68v1.69ZM85,1188.32c0-.77-.07-1.42-.2-1.95-.13-.53-.33-.97-.59-1.32-.26-.35-.64-.64-1.12-.89-.49-.24-1.01-.36-1.57-.36-.7,0-1.31.2-1.82.59s-.88.95-1.09,1.68c-.28-.56-.64-.99-1.1-1.27-.46-.28-.94-.42-1.45-.42-.55,0-1.08.16-1.59.47-.51.32-.88.75-1.12,1.31-.24.56-.36,1.3-.36,2.22v4.53h12.02v-4.6ZM74.39,1191.32v-2.41c0-.87.06-1.48.17-1.84.11-.36.32-.63.62-.82.3-.19.66-.29,1.05-.29.42,0,.77.1,1.05.31.28.21.48.51.6.92.09.31.14.81.14,1.52v2.61h-3.63ZM79.45,1191.32v-2.79c0-.77.07-1.36.2-1.77.13-.41.37-.73.7-.96s.72-.35,1.17-.35c.38,0,.72.08,1.01.24.29.16.52.36.67.61.16.25.26.56.33.92.04.21.06.57.06,1.09v3h-4.13ZM83.32,1181.31h1.68v-1.69h-1.68v1.69ZM84.27,1176.19c.63-.7.94-1.58.94-2.64,0-1.18-.37-2.15-1.1-2.92-.73-.77-1.62-1.15-2.67-1.15-.78,0-1.43.2-1.94.59-.51.4-.86.95-1.02,1.66-.25-.55-.59-.96-1.02-1.24-.43-.28-.9-.42-1.42-.42-.55,0-1.06.15-1.55.44-.49.29-.87.72-1.15,1.27-.28.56-.42,1.16-.42,1.82,0,.95.27,1.75.81,2.39.55.64,1.31,1.05,2.3,1.24l.26-1.48c-.72-.11-1.26-.36-1.62-.74-.36-.38-.54-.87-.54-1.44s.18-1.06.53-1.43c.35-.37.8-.55,1.34-.55.68,0,1.19.25,1.52.76.33.51.49,1.07.49,1.71,0,.06,0,.14-.02.24l1.3.16c-.11-.42-.17-.76-.17-1.04,0-.69.22-1.25.66-1.7.44-.45,1-.67,1.68-.67s1.3.24,1.79.72c.48.48.72,1.07.72,1.76,0,.59-.19,1.09-.55,1.5-.37.41-.97.7-1.81.87l.2,1.48c1-.1,1.82-.5,2.45-1.2M83.32,1167.12h1.68v-1.69h-1.68v1.69ZM74.55,1157.19c.86.75,1.9,1.46,3.15,2.13,1.24.67,2.53,1.18,3.88,1.53,1.34.36,2.48.54,3.43.56v-1.52c-1.2-.08-2.3-.27-3.31-.57-1.43-.41-2.81-1-4.17-1.75-1.35-.76-2.43-1.52-3.25-2.29h-1.15v7.81h1.42v-5.91ZM85,1152.12c.5.01.88.1,1.15.25.27.15.47.38.6.69l.63-.41c-.21-.48-.5-.83-.88-1.04-.38-.22-.88-.33-1.5-.33h-1.68v1.69h1.68v-.84ZM73.72,1137.66c-.53.61-.79,1.39-.79,2.33,0,1.27.46,2.29,1.38,3.04,1.05.86,2.74,1.29,5.07,1.29,2.08,0,3.57-.39,4.47-1.17.9-.78,1.36-1.78,1.36-3.02,0-.73-.17-1.37-.52-1.94-.35-.57-.84-1.02-1.49-1.34-.65-.33-1.35-.49-2.11-.49-1.15,0-2.08.35-2.81,1.04-.73.69-1.09,1.54-1.09,2.52,0,.56.13,1.11.39,1.62.26.52.66.95,1.2,1.31-1.2-.01-2.13-.15-2.78-.42-.65-.27-1.15-.64-1.48-1.1-.26-.36-.39-.77-.39-1.25,0-.59.21-1.08.63-1.48.26-.24.68-.43,1.26-.56l-.12-1.47c-.93.12-1.67.48-2.2,1.09M79.22,1141.92c-.48-.47-.72-1.04-.72-1.7s.24-1.24.72-1.68c.48-.45,1.13-.67,1.96-.67s1.55.23,2.05.68c.5.45.76.99.76,1.61,0,.43-.12.84-.37,1.23-.24.39-.6.69-1.06.91-.47.22-.95.33-1.46.33-.77,0-1.4-.24-1.88-.7M83.32,1133.99h1.68v-1.69h-1.68v1.69ZM85,1124.93c0-.77-.07-1.42-.2-1.95-.13-.53-.33-.97-.59-1.32-.26-.35-.64-.64-1.12-.89-.49-.24-1.01-.36-1.57-.36-.7,0-1.31.2-1.82.59s-.88.96-1.09,1.68c-.28-.56-.64-.99-1.1-1.27-.46-.28-.94-.42-1.45-.42-.55,0-1.08.16-1.59.47-.51.31-.88.75-1.12,1.31-.24.56-.36,1.3-.36,2.22v4.52h12.02v-4.6ZM74.39,1127.93v-2.41c0-.87.06-1.48.17-1.84.11-.35.32-.63.62-.82.3-.19.66-.29,1.05-.29.42,0,.77.1,1.05.31.28.21.48.51.6.92.09.31.14.82.14,1.52v2.61h-3.63ZM79.45,1127.93v-2.79c0-.77.07-1.36.2-1.77.13-.41.37-.73.7-.96.33-.23.72-.35,1.17-.35.38,0,.72.08,1.01.24.29.16.52.36.67.61.16.25.26.56.33.92.04.21.06.57.06,1.09v3h-4.13ZM83.32,1117.92h1.68v-1.69h-1.68v1.69ZM84.27,1112.8c.63-.7.94-1.58.94-2.64,0-1.18-.37-2.15-1.1-2.92-.73-.77-1.62-1.15-2.67-1.15-.78,0-1.43.2-1.94.59-.51.39-.86.95-1.02,1.66-.25-.55-.59-.97-1.02-1.25-.43-.28-.9-.42-1.42-.42-.55,0-1.06.14-1.55.44-.49.29-.87.72-1.15,1.27-.28.56-.42,1.16-.42,1.82,0,.96.27,1.75.81,2.39.55.64,1.31,1.05,2.3,1.24l.26-1.48c-.72-.11-1.26-.36-1.62-.74-.36-.39-.54-.87-.54-1.44s.18-1.06.53-1.43c.35-.37.8-.55,1.34-.55.68,0,1.19.26,1.52.76.33.51.49,1.07.49,1.71,0,.06,0,.14-.02.24l1.3.16c-.11-.42-.17-.76-.17-1.04,0-.69.22-1.25.66-1.69.44-.45,1-.67,1.68-.67s1.3.24,1.79.72c.48.48.72,1.07.72,1.76,0,.59-.19,1.09-.55,1.5-.37.41-.97.7-1.81.87l.2,1.48c1-.1,1.82-.5,2.45-1.2M83.32,1103.73h1.68v-1.69h-1.68v1.69ZM84.42,1098.51c.52-.6.78-1.37.78-2.31,0-.89-.24-1.67-.71-2.32-.48-.66-1.17-1.16-2.08-1.5-.91-.34-2.14-.5-3.67-.5s-2.6.17-3.38.51c-.78.34-1.38.83-1.8,1.48-.42.65-.63,1.37-.63,2.15,0,1.09.37,1.99,1.12,2.71.74.72,1.73,1.08,2.94,1.08s2.13-.35,2.85-1.04c.72-.69,1.08-1.54,1.08-2.53,0-.6-.15-1.15-.44-1.67-.29-.51-.67-.92-1.14-1.21.13,0,.23,0,.29,0,.61,0,1.21.07,1.8.22.59.15,1.06.33,1.41.55.35.22.62.5.83.84.21.35.31.74.31,1.2,0,.53-.15.97-.45,1.31-.3.34-.79.57-1.45.69l.13,1.42c.95-.12,1.68-.48,2.2-1.08M78.9,1094.19c.48.44.72,1,.72,1.69s-.24,1.25-.72,1.72c-.48.46-1.1.69-1.86.69-.86,0-1.55-.24-2.09-.73-.53-.49-.8-1.06-.8-1.72s.25-1.18.74-1.63c.5-.45,1.17-.68,2.02-.68s1.51.22,1.99.66M85,1088.73c.5.02.88.1,1.15.25.27.15.47.38.6.69l.63-.41c-.21-.48-.5-.83-.88-1.05-.38-.22-.88-.33-1.5-.33h-1.68v1.69h1.68v-.84Z"/>
    <path d="M73.72,1073.8c-.53.61-.79,1.38-.79,2.33,0,1.27.46,2.28,1.38,3.04,1.05.86,2.74,1.29,5.07,1.29,2.08,0,3.57-.39,4.48-1.17.91-.78,1.36-1.79,1.36-3.02,0-.72-.17-1.37-.51-1.94-.35-.57-.84-1.02-1.49-1.35-.65-.33-1.35-.49-2.1-.49-1.15,0-2.08.35-2.81,1.04-.72.69-1.08,1.53-1.08,2.52,0,.57.13,1.11.39,1.62.26.52.66.95,1.21,1.31-1.2-.01-2.13-.15-2.78-.42-.65-.27-1.15-.64-1.48-1.1-.26-.36-.4-.77-.4-1.24,0-.59.21-1.08.63-1.48.26-.24.69-.43,1.27-.56l-.12-1.47c-.94.12-1.67.49-2.2,1.09M79.22,1078.06c-.48-.47-.72-1.04-.72-1.71s.24-1.24.72-1.68c.48-.44,1.13-.67,1.97-.67s1.55.23,2.05.68c.5.45.76.98.76,1.61,0,.43-.12.84-.37,1.23-.24.39-.6.69-1.06.91-.47.22-.95.32-1.46.32-.78,0-1.4-.23-1.88-.7M83.31,1070.1h1.68v-1.69h-1.68v1.69Z"/>
    <path d="M85,1061.08c0-.77-.07-1.42-.2-1.95-.14-.53-.33-.97-.59-1.32-.26-.35-.64-.64-1.12-.88-.49-.24-1.01-.36-1.57-.36-.7,0-1.3.2-1.82.59-.51.39-.88.95-1.09,1.68-.28-.56-.64-.99-1.1-1.27-.46-.28-.94-.42-1.45-.42-.55,0-1.08.16-1.59.47-.5.32-.88.75-1.13,1.31-.24.56-.36,1.3-.36,2.22v4.53h12.02v-4.6ZM74.39,1064.09v-2.41c0-.87.06-1.48.17-1.84.12-.35.32-.63.62-.82.31-.19.66-.29,1.05-.29.42,0,.77.1,1.05.31.28.21.48.51.6.92.09.3.14.81.14,1.52v2.61h-3.64ZM79.45,1064.09v-2.79c0-.77.07-1.36.2-1.77.13-.41.37-.73.7-.96.33-.23.72-.35,1.17-.35.38,0,.72.08,1.02.24.29.16.51.36.67.61.16.25.26.56.33.92.04.21.06.57.06,1.09v3h-4.13ZM83.31,1054.25h1.68v-1.69h-1.68v1.69Z"/>
    <path d="M84.27,1049.15c.63-.7.94-1.58.94-2.64,0-1.18-.37-2.15-1.1-2.91-.73-.77-1.62-1.16-2.67-1.16-.78,0-1.43.2-1.94.6-.51.39-.85.95-1.02,1.66-.25-.55-.59-.97-1.02-1.25s-.9-.42-1.42-.42c-.55,0-1.06.14-1.55.44-.49.29-.87.72-1.15,1.27-.28.56-.42,1.16-.42,1.82,0,.96.27,1.75.81,2.4.55.64,1.31,1.05,2.3,1.24l.26-1.48c-.72-.11-1.26-.36-1.63-.74-.36-.38-.54-.86-.54-1.44s.18-1.06.53-1.42c.36-.37.8-.55,1.35-.55.68,0,1.19.26,1.52.76.33.51.49,1.07.49,1.7,0,.06,0,.14-.02.24l1.3.17c-.11-.42-.16-.76-.16-1.04,0-.69.22-1.25.66-1.7.44-.44,1-.67,1.68-.67s1.31.24,1.79.72c.48.48.72,1.07.72,1.77,0,.59-.19,1.09-.55,1.49-.37.41-.97.7-1.81.87l.2,1.48c1-.1,1.82-.5,2.45-1.2M83.31,1039.73h1.68v-1.69h-1.68v1.69Z"/>
    <path d="M72.92,1030.26v.96c.52.26,1.05.69,1.61,1.32s1.02,1.34,1.41,2.17h1.43c-.17-.46-.42-.98-.76-1.56-.34-.58-.68-1.04-1.02-1.4h9.41v-1.48h-12.08ZM72.92,1020.83v.96c.52.26,1.05.7,1.61,1.32s1.02,1.35,1.41,2.17h1.43c-.17-.46-.42-.98-.76-1.56-.34-.58-.68-1.04-1.02-1.4h9.41v-1.48h-12.08ZM85,1015.35c.5.02.88.1,1.15.25.26.15.47.38.6.69l.63-.41c-.21-.48-.5-.83-.88-1.04-.38-.22-.88-.33-1.5-.33h-1.68v1.69h1.68v-.84ZM73.72,1000.93c-.53.61-.79,1.38-.79,2.33,0,1.27.46,2.29,1.38,3.04,1.05.86,2.74,1.29,5.07,1.29,2.08,0,3.57-.39,4.48-1.17.91-.78,1.36-1.79,1.36-3.02,0-.72-.17-1.37-.51-1.94-.35-.57-.84-1.02-1.49-1.35-.65-.33-1.35-.49-2.1-.49-1.15,0-2.08.35-2.81,1.04-.72.69-1.08,1.53-1.08,2.53,0,.56.13,1.1.39,1.62.26.52.66.95,1.21,1.31-1.2,0-2.13-.15-2.78-.42-.65-.27-1.15-.64-1.48-1.1-.26-.36-.4-.77-.4-1.25,0-.59.21-1.08.63-1.48.26-.24.69-.43,1.27-.56l-.12-1.47c-.94.12-1.67.48-2.2,1.09M79.22,1005.18c-.48-.47-.72-1.03-.72-1.7s.24-1.24.72-1.68c.48-.45,1.13-.67,1.96-.67s1.55.23,2.05.68c.5.45.76.99.76,1.61,0,.43-.12.83-.37,1.23-.24.39-.6.69-1.06.91-.47.22-.95.33-1.46.33-.78,0-1.4-.23-1.88-.7M83.32,997.27h1.68v-1.69h-1.68v1.69ZM85,988.23c0-.77-.07-1.42-.2-1.94-.14-.53-.33-.97-.59-1.32-.26-.35-.64-.64-1.12-.88-.49-.24-1.01-.36-1.57-.36-.7,0-1.31.2-1.82.59-.51.4-.88.96-1.09,1.68-.28-.56-.64-.99-1.1-1.27s-.94-.42-1.45-.42c-.55,0-1.08.16-1.59.47-.5.31-.88.75-1.13,1.31-.24.56-.36,1.3-.36,2.22v4.53h12.02v-4.6ZM74.39,991.23v-2.41c0-.87.06-1.48.17-1.84.11-.35.32-.63.62-.82.31-.19.66-.29,1.05-.29.42,0,.77.1,1.05.31s.48.51.6.92c.09.3.14.81.14,1.52v2.61h-3.64ZM79.44,991.23v-2.79c0-.77.07-1.36.2-1.76.13-.41.37-.73.7-.96.33-.23.72-.35,1.17-.35.38,0,.72.08,1.01.24.29.16.51.36.67.61.16.25.27.56.33.92.04.21.06.57.06,1.09v3h-4.13ZM83.32,981.24h1.68v-1.69h-1.68v1.69ZM84.27,976.13c.63-.7.94-1.58.94-2.64,0-1.17-.36-2.15-1.1-2.91-.73-.77-1.62-1.15-2.67-1.15-.78,0-1.42.2-1.94.59-.51.4-.85.95-1.02,1.66-.25-.55-.59-.96-1.02-1.24s-.9-.42-1.42-.42c-.55,0-1.06.14-1.55.44-.49.29-.87.72-1.15,1.27-.28.55-.42,1.16-.42,1.82,0,.96.27,1.75.82,2.4.54.64,1.31,1.05,2.3,1.23l.26-1.48c-.72-.11-1.26-.36-1.62-.74-.36-.38-.55-.86-.55-1.44s.18-1.05.53-1.42c.36-.37.81-.55,1.35-.55.68,0,1.19.25,1.52.76.33.5.49,1.07.49,1.71,0,.06,0,.14-.02.24l1.3.16c-.11-.42-.16-.76-.16-1.04,0-.69.22-1.25.66-1.7.44-.44,1-.66,1.68-.66s1.31.24,1.79.72c.48.48.72,1.07.72,1.76,0,.59-.18,1.09-.55,1.5-.37.41-.97.7-1.81.87l.2,1.48c1-.1,1.82-.5,2.45-1.2M83.32,967.08h1.68v-1.69h-1.68v1.69ZM72.92,957.6v.96c.52.26,1.05.69,1.61,1.32.55.62,1.02,1.34,1.41,2.17h1.43c-.17-.46-.42-.98-.76-1.56-.34-.58-.68-1.05-1.02-1.41h9.41v-1.48h-12.08Z"/>
    <path d="M84.27,952.28c.63-.7.94-1.58.94-2.64,0-1.18-.37-2.15-1.1-2.91-.73-.77-1.62-1.16-2.67-1.16-.78,0-1.43.2-1.94.6-.51.4-.86.95-1.02,1.66-.25-.55-.59-.96-1.02-1.24-.43-.28-.9-.42-1.42-.42-.55,0-1.06.14-1.55.44-.49.29-.87.72-1.15,1.27-.28.56-.42,1.16-.42,1.82,0,.96.27,1.75.82,2.39.54.64,1.31,1.05,2.3,1.24l.26-1.48c-.72-.11-1.26-.36-1.63-.74-.36-.39-.54-.87-.54-1.44s.18-1.06.53-1.43c.35-.37.8-.55,1.34-.55.68,0,1.19.26,1.52.76.33.5.49,1.07.49,1.7,0,.06,0,.14-.02.24l1.3.16c-.11-.42-.17-.76-.17-1.04,0-.69.22-1.25.66-1.69.44-.45,1-.67,1.68-.67s1.3.24,1.79.72c.48.48.72,1.07.72,1.77,0,.58-.19,1.09-.55,1.49-.37.41-.97.7-1.81.87l.2,1.48c1-.1,1.82-.5,2.45-1.2"/>
    <rect class="st13" x="89.72" y="1090.88" width="18.9" height="165.73"/>
    <path d="M105.25,1249.68h-2.88v-1.63h-1.35v1.63h-7.79v1.21l7.79,5.51h1.35v-5.24h2.88v-1.48ZM101.02,1254.94l-5.42-3.78h5.42v3.78ZM103.57,1245.64h1.68v-1.69h-1.68v1.69ZM103.55,1241c.64-.42,1.12-1,1.43-1.74.32-.74.47-1.65.47-2.74,0-.86-.16-1.63-.47-2.33-.32-.69-.76-1.22-1.32-1.58-.57-.37-1.17-.55-1.81-.55s-1.22.17-1.71.5-.9.85-1.23,1.56c-.22.48-.48,1.37-.77,2.67-.29,1.3-.58,2.1-.85,2.41-.28.31-.64.47-1.07.47-.5,0-.92-.22-1.28-.66-.36-.44-.53-1.15-.53-2.11s.2-1.63.58-2.1c.39-.47.96-.75,1.72-.83l-.12-1.53c-.7.03-1.33.23-1.89.59-.56.37-.98.9-1.27,1.58-.29.68-.43,1.47-.43,2.36,0,.81.14,1.55.41,2.22.27.67.67,1.17,1.2,1.52.53.35,1.09.52,1.7.52.55,0,1.05-.14,1.5-.42.45-.28.82-.71,1.12-1.29.23-.44.49-1.22.75-2.33.27-1.11.46-1.83.59-2.15.19-.51.43-.87.71-1.09.28-.22.61-.33.99-.33s.71.11,1.03.34c.32.23.56.57.74,1.04.18.47.27,1,.27,1.61,0,.69-.12,1.3-.36,1.85-.24.55-.55.95-.93,1.21-.38.26-.88.42-1.48.5l.13,1.51c.81-.02,1.53-.24,2.16-.66M105.25,1223.99v-1.54c-.33.19-.68.31-1.05.37-.36.07-1.23.1-2.6.1h-1.97c-.66,0-1.11.02-1.36.07-.4.09-.74.24-1,.46-.27.22-.48.56-.66,1.03-.18.47-.26,1.07-.26,1.82s.1,1.42.31,1.98c.2.57.5,1.01.88,1.31.38.3.88.52,1.5.65l.2-1.45c-.62-.16-1.05-.4-1.29-.73-.24-.33-.36-.85-.36-1.55,0-.74.17-1.31.5-1.69.25-.28.67-.42,1.27-.42.06,0,.18,0,.39,0,.2.56.37,1.44.51,2.64.07.59.14,1.03.22,1.32.11.4.27.75.48,1.07.21.32.49.57.85.76s.74.29,1.17.29c.73,0,1.33-.26,1.79-.77.47-.52.7-1.25.7-2.22,0-.58-.1-1.13-.29-1.63-.19-.51-.52-1.04-.98-1.59.41-.04.77-.14,1.07-.3M101.42,1224.41c.65,0,1.14.08,1.48.24.43.21.77.53,1.02.98.25.44.38.95.38,1.52s-.13,1.02-.39,1.31c-.26.3-.59.45-.99.45-.26,0-.49-.07-.7-.21s-.37-.33-.48-.59c-.11-.25-.21-.68-.29-1.29-.15-1.08-.34-1.88-.56-2.42h.54ZM93.22,1220.58h12.03v-1.48h-12.03v1.48ZM96.54,1216.33h1.68v-1.69h-1.68v1.69ZM103.57,1216.33h1.68v-1.69h-1.68v1.69ZM93.97,1201.05c-.53.61-.8,1.39-.8,2.33,0,1.27.46,2.29,1.38,3.04,1.05.86,2.74,1.29,5.07,1.29,2.08,0,3.57-.39,4.48-1.17s1.35-1.79,1.35-3.02c0-.73-.17-1.37-.51-1.94-.35-.57-.84-1.02-1.49-1.34-.65-.33-1.35-.49-2.1-.49-1.15,0-2.08.35-2.81,1.04-.73.69-1.09,1.54-1.09,2.52,0,.56.13,1.1.39,1.62.26.52.66.95,1.21,1.31-1.2,0-2.13-.15-2.78-.42-.65-.27-1.15-.63-1.48-1.1-.26-.36-.4-.77-.4-1.25,0-.58.21-1.08.63-1.48.27-.24.68-.43,1.27-.56l-.12-1.47c-.94.12-1.67.49-2.2,1.09M99.47,1205.31c-.48-.47-.72-1.04-.72-1.7s.24-1.24.72-1.68c.48-.45,1.13-.67,1.97-.67s1.55.22,2.05.67.76.99.76,1.61c0,.43-.12.84-.36,1.23s-.6.69-1.06.91c-.47.22-.95.32-1.46.32-.78,0-1.41-.23-1.88-.7M103.57,1197.38h1.68v-1.69h-1.68v1.69ZM105.25,1188.32c0-.77-.07-1.41-.2-1.94-.13-.53-.33-.97-.6-1.32-.26-.35-.63-.65-1.12-.89-.49-.24-1.01-.36-1.57-.36-.7,0-1.31.2-1.82.59-.51.39-.88.95-1.09,1.68-.28-.56-.64-.99-1.1-1.27-.45-.28-.94-.42-1.45-.42-.55,0-1.08.16-1.59.47-.51.32-.88.75-1.12,1.31-.24.56-.36,1.29-.36,2.22v4.53h12.03v-4.6ZM94.64,1191.32v-2.41c0-.87.06-1.48.17-1.84.11-.35.32-.63.62-.82.31-.19.66-.29,1.05-.29.42,0,.77.1,1.05.31.28.21.48.51.6.91.1.31.14.82.14,1.53v2.61h-3.64ZM99.7,1191.32v-2.79c0-.77.07-1.35.2-1.76.13-.41.36-.73.7-.96.33-.23.72-.35,1.17-.35.38,0,.72.08,1.01.24.29.16.52.36.67.61.15.25.26.56.33.92.04.21.06.57.06,1.08v3h-4.13ZM103.57,1181.31h1.68v-1.69h-1.68v1.69ZM105.25,1171.16h-2.88v-1.63h-1.35v1.63h-7.79v1.21l7.79,5.51h1.35v-5.23h2.88v-1.48ZM101.02,1176.42l-5.42-3.78h5.42v3.78ZM103.57,1167.12h1.68v-1.69h-1.68v1.69ZM94.8,1157.19c.85.75,1.9,1.46,3.15,2.13,1.24.67,2.54,1.18,3.88,1.53,1.34.36,2.48.54,3.43.56v-1.52c-1.2-.08-2.3-.27-3.31-.57-1.43-.41-2.82-.99-4.17-1.75-1.35-.76-2.43-1.52-3.25-2.28h-1.15v7.81h1.42v-5.91ZM105.25,1152.12c.49.02.88.1,1.14.25.27.15.47.38.6.69l.63-.41c-.21-.48-.5-.83-.88-1.05-.38-.22-.88-.33-1.5-.33h-1.68v1.69h1.68v-.84ZM93.97,1137.66c-.53.61-.8,1.39-.8,2.33,0,1.28.46,2.29,1.38,3.04,1.05.86,2.74,1.29,5.07,1.29,2.08,0,3.57-.39,4.48-1.17.9-.78,1.35-1.79,1.35-3.02,0-.73-.17-1.37-.51-1.94-.35-.57-.84-1.02-1.49-1.35-.65-.32-1.35-.49-2.1-.49-1.15,0-2.08.35-2.81,1.04-.73.69-1.09,1.53-1.09,2.52,0,.57.13,1.11.39,1.62.26.52.66.95,1.21,1.31-1.2-.01-2.13-.15-2.78-.42-.65-.27-1.15-.64-1.48-1.1-.26-.36-.4-.77-.4-1.24,0-.59.21-1.08.63-1.48.27-.24.68-.43,1.27-.56l-.12-1.47c-.94.12-1.67.49-2.2,1.09M99.47,1141.92c-.48-.47-.72-1.04-.72-1.7s.24-1.23.72-1.68c.48-.44,1.13-.67,1.97-.67s1.55.22,2.05.68c.5.45.76.99.76,1.61,0,.43-.12.84-.36,1.23-.24.39-.6.69-1.06.91-.47.21-.95.32-1.46.32-.78,0-1.41-.24-1.88-.7M103.57,1133.99h1.68v-1.69h-1.68v1.69ZM105.25,1124.93c0-.77-.07-1.41-.2-1.94-.13-.53-.33-.97-.6-1.32-.26-.35-.63-.65-1.12-.88-.49-.24-1.01-.36-1.57-.36-.7,0-1.31.2-1.82.59-.51.4-.88.96-1.09,1.68-.28-.56-.64-.99-1.1-1.27-.45-.28-.94-.42-1.45-.42-.55,0-1.08.16-1.59.47-.51.32-.88.75-1.12,1.31-.24.56-.36,1.3-.36,2.22v4.53h12.03v-4.6ZM94.64,1127.93v-2.41c0-.87.06-1.48.17-1.84.11-.36.32-.63.62-.83.31-.19.66-.29,1.05-.29.42,0,.77.1,1.05.31s.48.51.6.92c.1.3.14.81.14,1.52v2.61h-3.64ZM99.7,1127.93v-2.79c0-.77.07-1.36.2-1.76.13-.41.36-.73.7-.96.33-.23.72-.35,1.17-.35.38,0,.72.08,1.01.24.29.16.52.36.67.61.15.25.26.56.33.92.04.21.06.57.06,1.08v3h-4.13ZM103.57,1117.92h1.68v-1.69h-1.68v1.69ZM105.25,1107.77h-2.88v-1.63h-1.35v1.63h-7.79v1.21l7.79,5.5h1.35v-5.23h2.88v-1.48ZM101.02,1113.03l-5.42-3.78h5.42v3.78ZM103.57,1103.73h1.68v-1.69h-1.68v1.69ZM104.67,1098.51c.52-.6.78-1.37.78-2.31,0-.89-.24-1.66-.71-2.32s-1.17-1.16-2.08-1.5c-.91-.33-2.14-.5-3.67-.5s-2.6.17-3.39.51c-.78.34-1.38.83-1.8,1.48-.42.65-.63,1.37-.63,2.15,0,1.09.37,1.99,1.11,2.71.75.72,1.73,1.08,2.95,1.08s2.13-.35,2.85-1.04c.72-.69,1.08-1.54,1.08-2.54,0-.6-.14-1.15-.44-1.67-.29-.51-.68-.92-1.14-1.21.13,0,.23,0,.29,0,.61,0,1.21.07,1.8.22.59.15,1.06.33,1.41.55.35.22.62.5.83.84.21.34.31.74.31,1.2,0,.53-.15.97-.45,1.31-.3.34-.78.57-1.45.69l.13,1.42c.95-.12,1.68-.48,2.2-1.08M99.15,1094.19c.48.44.72,1,.72,1.69s-.24,1.25-.72,1.72c-.48.46-1.1.69-1.86.69-.86,0-1.55-.24-2.09-.73-.53-.49-.8-1.06-.8-1.72s.25-1.18.75-1.63c.5-.46,1.17-.68,2.02-.68s1.51.22,1.99.66"/>
    <rect class="st13" x="110.99" y="1154.34" width="18.9" height="102.27"/>
    <path d="M125.8,1254.72c.61-.69.92-1.59.92-2.69,0-1.34-.49-2.4-1.46-3.17-.79-.63-1.73-.95-2.82-.95s-2.08.36-2.81,1.08c-.73.73-1.09,1.61-1.09,2.67,0,.8.25,1.56.76,2.28l-3.23-.65v-4.81h-1.41v6l6.18,1.17.18-1.39c-.35-.22-.62-.52-.84-.9-.21-.38-.32-.81-.32-1.29,0-.77.24-1.39.73-1.87.49-.47,1.15-.71,1.99-.71.89,0,1.6.25,2.13.74.53.49.8,1.09.8,1.81,0,.59-.19,1.1-.57,1.52-.38.42-.95.69-1.7.8l.13,1.56c1.01-.1,1.83-.5,2.44-1.19M124.83,1245.62h1.68v-1.69h-1.68v1.69ZM124.81,1240.96c.64-.42,1.11-1,1.43-1.74.32-.74.48-1.65.48-2.74,0-.86-.16-1.63-.47-2.33-.31-.69-.76-1.22-1.32-1.59-.57-.37-1.17-.55-1.81-.55s-1.22.17-1.71.51c-.49.34-.9.85-1.23,1.55-.22.48-.47,1.37-.76,2.67-.29,1.3-.58,2.1-.86,2.41-.28.31-.63.47-1.07.47-.5,0-.92-.22-1.28-.66-.35-.44-.53-1.15-.53-2.11s.2-1.63.58-2.1c.39-.48.96-.75,1.72-.83l-.12-1.53c-.7.03-1.34.22-1.89.59-.56.37-.98.89-1.27,1.57-.29.68-.43,1.47-.43,2.37,0,.81.13,1.55.41,2.21.27.66.67,1.17,1.2,1.51.53.35,1.1.52,1.71.52.55,0,1.05-.14,1.49-.42.45-.28.82-.71,1.12-1.29.24-.45.49-1.22.75-2.33.27-1.11.46-1.82.59-2.15.19-.5.43-.86.71-1.08.28-.22.61-.33.99-.33s.71.11,1.03.34c.31.23.56.58.74,1.04.18.47.27,1.01.27,1.62,0,.68-.12,1.3-.35,1.85-.24.55-.55.95-.94,1.21-.39.26-.88.43-1.48.5l.13,1.51c.8-.02,1.52-.24,2.16-.66M126.51,1223.94v-1.55c-.33.19-.68.31-1.04.37-.36.06-1.23.1-2.61.1h-1.97c-.66,0-1.11.02-1.36.07-.4.09-.74.24-1,.46-.27.22-.49.56-.66,1.03-.18.47-.26,1.08-.26,1.82s.1,1.41.31,1.98c.21.57.5,1.01.88,1.31.38.3.88.52,1.5.65l.2-1.45c-.62-.16-1.05-.41-1.29-.74-.25-.33-.36-.85-.36-1.54,0-.75.16-1.31.5-1.69.25-.28.67-.42,1.27-.42.05,0,.18,0,.38,0,.2.56.36,1.44.51,2.64.07.59.14,1.03.22,1.32.11.39.27.75.48,1.07.21.32.5.57.85.77.35.19.74.29,1.17.29.72,0,1.32-.26,1.79-.77.47-.52.7-1.25.7-2.22,0-.58-.09-1.12-.29-1.63-.19-.51-.52-1.04-.98-1.58.41-.04.77-.14,1.07-.3M122.68,1224.36c.65,0,1.14.08,1.48.24.43.21.77.53,1.02.98.25.44.38.95.38,1.52s-.13,1.01-.4,1.32c-.26.3-.59.45-.98.45-.26,0-.49-.07-.7-.21-.21-.14-.37-.33-.48-.59-.11-.25-.21-.68-.29-1.29-.16-1.07-.34-1.88-.56-2.42h.54ZM114.49,1220.52h12.02v-1.48h-12.02v1.48ZM117.8,1216.24h1.68v-1.69h-1.68v1.69ZM124.83,1216.24h1.68v-1.69h-1.68v1.69ZM115.24,1200.93c-.53.61-.8,1.39-.8,2.33,0,1.27.46,2.29,1.38,3.04,1.05.86,2.75,1.29,5.07,1.29,2.08,0,3.57-.39,4.47-1.17.9-.78,1.36-1.78,1.36-3.02,0-.73-.17-1.37-.51-1.94-.35-.57-.84-1.02-1.49-1.34-.65-.33-1.35-.49-2.1-.49-1.15,0-2.09.35-2.81,1.04-.72.69-1.09,1.54-1.09,2.52,0,.56.13,1.11.39,1.62.27.52.66.95,1.2,1.31-1.2-.01-2.13-.15-2.78-.42-.65-.27-1.14-.64-1.48-1.1-.26-.36-.39-.77-.39-1.25,0-.59.21-1.08.63-1.48.26-.24.68-.43,1.26-.56l-.12-1.47c-.93.12-1.67.49-2.2,1.09M120.74,1205.19c-.48-.47-.72-1.03-.72-1.7s.24-1.24.72-1.68c.48-.45,1.13-.67,1.97-.67s1.54.23,2.05.67c.5.45.76.99.76,1.61,0,.43-.12.84-.36,1.23-.24.39-.6.69-1.06.91-.46.22-.95.33-1.46.33-.78,0-1.41-.24-1.88-.7M124.83,1197.24h1.68v-1.69h-1.68v1.69ZM126.51,1188.17c0-.77-.07-1.42-.2-1.95-.13-.53-.33-.97-.59-1.32-.26-.35-.64-.64-1.12-.88-.48-.24-1.01-.36-1.57-.36-.7,0-1.31.19-1.82.59-.51.39-.88.95-1.09,1.68-.28-.56-.64-.99-1.1-1.27-.45-.28-.94-.42-1.45-.42-.55,0-1.08.16-1.59.48-.51.31-.88.75-1.12,1.31-.24.56-.36,1.3-.36,2.22v4.53h12.02v-4.6ZM115.91,1191.17v-2.41c0-.87.06-1.48.17-1.84.11-.36.32-.63.62-.83.3-.19.65-.29,1.05-.29.42,0,.77.1,1.05.31.28.21.48.51.6.92.09.31.14.81.14,1.52v2.61h-3.63ZM120.96,1191.17v-2.79c0-.77.07-1.36.2-1.76.14-.41.37-.73.7-.96.33-.23.72-.35,1.17-.35.38,0,.72.08,1.01.24s.51.36.67.61c.16.24.27.55.33.92.04.21.06.57.06,1.09v3h-4.13ZM124.83,1181.14h1.68v-1.69h-1.68v1.69ZM125.8,1176.02c.61-.69.92-1.59.92-2.69,0-1.34-.49-2.4-1.46-3.17-.79-.64-1.73-.96-2.82-.96s-2.08.36-2.81,1.09c-.73.73-1.09,1.61-1.09,2.67,0,.79.25,1.55.76,2.28l-3.23-.65v-4.81h-1.41v6l6.18,1.17.18-1.39c-.35-.22-.62-.52-.84-.9-.21-.38-.32-.81-.32-1.29,0-.77.24-1.39.73-1.86.49-.47,1.15-.71,1.99-.71.89,0,1.6.25,2.13.74s.8,1.1.8,1.81c0,.59-.19,1.1-.57,1.52-.38.42-.95.69-1.7.8l.13,1.56c1.01-.1,1.83-.49,2.44-1.19M124.83,1166.92h1.68v-1.69h-1.68v1.69ZM116.06,1156.97c.85.75,1.9,1.46,3.14,2.13,1.24.67,2.54,1.18,3.88,1.53,1.34.36,2.48.55,3.43.56v-1.52c-1.19-.08-2.3-.27-3.31-.57-1.43-.41-2.81-.99-4.17-1.75-1.35-.76-2.43-1.52-3.25-2.29h-1.15v7.81h1.42v-5.91Z"/>
    <line class="st3" x1="550.79" y1="988.27" x2="431.3" y2="936.29"/>
  </g>
</svg>