<?xml version="1.0" encoding="UTF-8"?>
<svg id="Layer_1" xmlns="http://www.w3.org/2000/svg" xmlns:xlink="http://www.w3.org/1999/xlink" version="1.1" viewBox="0 0 1200 1697.14">
  <!-- Generator: Adobe Illustrator 29.6.0, SVG Export Plug-In . SVG Version: 2.1.1 Build 207)  -->
  <defs>
    <style>
      .st0, .st1, .st2, .st3 {
        fill: none;
      }

      .st1 {
        stroke: #0d0e1c;
      }

      .st1, .st2, .st3 {
        stroke-linecap: round;
        stroke-linejoin: round;
      }

      .st1, .st3 {
        stroke-width: .08px;
      }

      .st2 {
        stroke-width: .14px;
      }

      .st2, .st3 {
        stroke: #000;
      }

      .st4 {
        clip-path: url(#clippath-1);
      }

      .st5 {
        clip-path: url(#clippath-3);
      }

      .st6 {
        clip-path: url(#clippath-4);
      }

      .st7 {
        clip-path: url(#clippath-2);
      }

      .st8 {
        clip-path: url(#clippath-7);
      }

      .st9 {
        clip-path: url(#clippath-6);
      }

      .st10 {
        clip-path: url(#clippath-9);
      }

      .st11 {
        clip-path: url(#clippath-8);
      }

      .st12 {
        clip-path: url(#clippath-5);
      }

      .st13 {
        fill: #fff;
      }

      .st14 {
        fill: #ece9e5;
      }

      .st15 {
        fill: #302c35;
      }

      .st16 {
        clip-path: url(#clippath);
      }
    </style>
    <clipPath id="clippath">
      <rect class="st0" x="323.62" y="484.09" width="552.76" height="728.96"/>
    </clipPath>
    <clipPath id="clippath-1">
      <rect class="st0" x="432.44" y="792.34" width="72.57" height="159.65"/>
    </clipPath>
    <clipPath id="clippath-2">
      <rect class="st0" x="323.62" y="484.09" width="552.76" height="728.96"/>
    </clipPath>
    <clipPath id="clippath-3">
      <rect class="st0" x="509.11" y="1020.29" width="28.59" height="39.22"/>
    </clipPath>
    <clipPath id="clippath-4">
      <rect class="st0" x="323.62" y="484.09" width="552.76" height="728.96"/>
    </clipPath>
    <clipPath id="clippath-5">
      <rect class="st0" x="323.62" y="484.09" width="552.76" height="728.96"/>
    </clipPath>
    <clipPath id="clippath-6">
      <rect class="st0" x="439.28" y="1103.7" width="27.51" height="37.12"/>
    </clipPath>
    <clipPath id="clippath-7">
      <rect class="st0" x="323.62" y="484.09" width="552.76" height="728.96"/>
    </clipPath>
    <clipPath id="clippath-8">
      <rect class="st0" x="323.62" y="484.09" width="552.76" height="728.96"/>
    </clipPath>
    <clipPath id="clippath-9">
      <rect class="st0" x="323.62" y="484.09" width="552.76" height="728.96"/>
    </clipPath>
  </defs>
  <rect class="st14" x="465.08" y="581.24" width="241.77" height="107.46"/>
  <rect class="st14" x="413.37" y="688.71" width="360.14" height="481.99"/>
  <rect class="st13" x="687.11" y="935.1" width="55.69" height="231.42"/>
  <rect class="st13" x="757.32" y="738.21" width="47.93" height="191.49"/>
  <rect class="st13" x="482.13" y="693.09" width="208.82" height="11.81"/>
  <g>
    <rect class="st15" x="413.37" y="688.7" width="73.24" height="46.92"/>
    <rect class="st15" x="413.37" y="1154.83" width="153.91" height="15.86"/>
    <rect class="st15" x="638.84" y="1154.83" width="117.12" height="15.86"/>
    <rect class="st15" x="734.7" y="928.01" width="16.2" height="242.68"/>
    <rect class="st15" x="413.37" y="735.62" width="17.55" height="419.21"/>
    <rect class="st15" x="460.63" y="577.43" width="249.43" height="4.05"/>
    <rect class="st15" x="706.12" y="577.43" width="4.05" height="127.48"/>
    <rect class="st15" x="460.63" y="577.47" width="4.05" height="127.44"/>
    <rect class="st15" x="750.9" y="1104.2" width="11.81" height="66.49"/>
    <rect class="st15" x="762.72" y="1104.2" width="10.8" height="66.49"/>
    <rect class="st15" x="679.01" y="1030.96" width="55.69" height="5.74"/>
    <rect class="st15" x="432.62" y="1148.08" width="125.9" height="13.55"/>
    <rect class="st15" x="552.1" y="1013.74" width="6.42" height="54.68"/>
    <rect class="st15" x="432.62" y="1013.74" width="120.83" height="5.07"/>
    <rect class="st15" x="428" y="1013.75" width="9.68" height="143.37"/>
    <rect class="st15" x="437.68" y="1018.81" width="115.77" height="1.35"/>
    <rect class="st15" x="552.1" y="1138.97" width="6.42" height="10.69"/>
    <rect class="st15" x="437.68" y="1146.73" width="115.77" height="1.35"/>
    <rect class="st15" x="437.68" y="1018.81" width="1.35" height="127.92"/>
    <rect class="st15" x="430.92" y="954" width="119.48" height="7.76"/>
    <rect class="st15" x="550.41" y="954" width="8.1" height="59.74"/>
    <rect class="st15" x="750.9" y="928.01" width="22.62" height="176.19"/>
    <rect class="st15" x="734.7" y="704.91" width="38.82" height="59.4"/>
    <rect class="st15" x="683.74" y="688.7" width="89.78" height="46.92"/>
  </g>
  <path class="st3" d="M430.93,961.77h119.49M550.41,961.77v51.98M550.41,1013.74h-119.49M430.93,1013.74v-51.98M683.73,719.42v16.2M683.73,735.62h50.97M430.93,735.62h55.69M486.62,735.62v-16.2M734.7,1154.83h-95.86M639.85,1170.7h94.85M413.37,1170.7h153.24M734.7,735.62v28.69M734.7,764.31h16.2M750.9,1170.7v-66.49M750.9,928.01h-16.2M413.37,735.62v419.21M569.99,1088.34l12.83,1.35M582.81,1089.69l12.49,3.71M595.3,1093.4l11.48,6.08M606.78,1099.48l10.13,8.44M616.9,1107.91l8.44,9.79M625.34,1117.7l6.08,11.47M631.42,1129.18l3.71,12.83M635.13,1142.01l1.35,12.83M567.29,1170.7v-15.87M638.84,1154.83v15.87M636.48,1154.83h-66.49M569.99,1154.83v-66.49M566.61,1154.83h.68"/>
  <path class="st15" d="M734.7,983.03h-1.01M731.33,983.03h-2.36M726.6,983.03h-2.37M721.54,983.03h-2.36M716.81,983.03h-2.36M712.09,983.03h-2.36M707.36,983.03h-2.36M702.64,983.03h-2.36M697.91,983.03h-2.7M692.85,983.03h-2.36M688.12,983.03h-1.01M687.11,983.03v-1.35M687.11,979.32v-2.36M687.11,974.59v-2.36M687.11,969.87v-2.36M687.11,965.14v-2.36M687.11,960.41v-2.7M687.11,955.35v-2.36M687.11,950.63v-2.36M687.11,945.9v-2.36M687.11,941.18v-2.36M687.11,936.45v-1.35M687.11,935.1h1.01M690.48,935.1h2.36M695.21,935.1h2.7M700.27,935.1h2.36M705,935.1h2.36M709.72,935.1h2.36M714.45,935.1h2.36M719.17,935.1h2.36M724.24,935.1h2.37M728.96,935.1h2.36M733.69,935.1h1.01M734.7,935.1v1.35M734.7,938.81v2.36M734.7,943.54v2.36M734.7,948.26v2.36M734.7,952.99v2.36M734.7,957.71v2.7M734.7,962.78v2.36M734.7,967.5v2.36M734.7,972.23v2.36M734.7,976.95v2.36M734.7,981.68v1.35M734.7,1030.96h-1.01M731.33,1030.96h-2.36M726.6,1030.96h-2.37M721.54,1030.96h-2.36M716.81,1030.96h-2.36M712.09,1030.96h-2.36M707.36,1030.96h-2.36M702.64,1030.96h-2.36M697.91,1030.96h-2.7M692.85,1030.96h-2.36M688.12,1030.96h-1.01M687.11,1030.96v-1.35M687.11,1027.25v-2.36M687.11,1022.52v-2.36M687.11,1017.79v-2.36M687.11,1012.73v-2.36M687.11,1008.01v-2.36M687.11,1003.28v-2.36M687.11,998.56v-2.36M687.11,993.83v-2.36M687.11,989.1v-2.36M687.11,984.04v-1.01M687.11,983.03h1.01M690.48,983.03h2.36M695.21,983.03h2.7M700.27,983.03h2.36M705,983.03h2.36M709.72,983.03h2.36M714.45,983.03h2.36M719.17,983.03h2.36M724.24,983.03h2.37M728.96,983.03h2.36M733.69,983.03h1.01M734.7,983.03v1.01M734.7,986.74v2.36M734.7,991.47v2.36M734.7,996.19v2.36M734.7,1000.92v2.36M734.7,1005.64v2.36M734.7,1010.37v2.36M734.7,1015.43v2.36M734.7,1020.16v2.36M734.7,1024.88v2.36M734.7,1029.61v1.35M550.41,961.76h-119.49M430.93,961.76v51.98M430.93,1013.74h119.49M550.41,1013.74v-51.98M464.68,589.14v99.57M706.01,688.7v-99.57M706.01,688.7h4.05M710.06,688.7v-103.62M460.63,585.08v103.62M460.63,688.7h4.05M464.68,688.7v-99.57M762.72,1104.2h-11.82M750.9,1104.2v66.49M762.72,1170.7v-66.49M771.49,1104.2h-8.77M762.72,1104.2v66.49M771.49,1170.7v-66.49M734.7,1030.96h-55.69M679.01,1030.96v5.74M679.01,1036.7h55.69M769.13,924.64l1.35-2.7M771.83,919.91l1.35-2.02M774.19,915.86l1.35-2.02M776.55,911.81l1.35-2.36M778.92,907.42l1.35-2.02M781.28,903.37l1.35-2.02M783.64,899.32l1.35-2.03M786.34,894.93l1.01-2.02M788.71,890.89l1.01-2.03M791.07,886.83l1.01-2.03M793.43,882.78l1.01-2.36M795.79,878.4l1.01-2.03M798.16,874.34l1.01-2.02M800.52,870.29l1.35-2.02M802.88,865.91l1.35-2.02M805.24,861.86l1.69-2.36M769.13,849.37h1.69M773.18,849.71h2.36M777.9,850.04l2.36.34M782.63,850.38l2.36.68M787.36,851.73l2.36.67M792.08,853.08l2.36.68M796.47,854.43l2.36,1.01M800.86,856.46l2.02,1.01M805.24,858.48l1.69,1.01M764.74,769.37h3.71M764.74,845.32v-75.95M768.45,845.32h-3.71M768.45,769.37v75.95M768.45,919.57h-3.71M768.45,854.09v65.48M764.74,854.09h3.71M764.74,919.57v-65.48M757.32,850.72v72.23M757.32,850.72v72.23M757.32,769.37v75.95M769.13,922.95v-72.23M769.13,919.57v-65.48M769.13,845.32v-75.95M762.72,850.72h-5.4M762.72,922.95h-5.4M762.72,919.57v-65.48M762.72,922.95v-72.23M762.72,850.72h-5.4M762.72,854.09v-3.38M769.13,854.09h-6.41M769.13,845.32v8.77M757.32,845.32h11.81M757.32,850.72v-5.4M769.13,769.37h-11.81M769.13,765.32v4.05M757.32,765.32h11.81M757.32,769.37v-4.05M769.13,927h-11.81M769.13,919.57v7.43M762.72,919.57h6.41M762.72,922.95v-3.38M757.32,922.95h5.4M757.32,927v-4.05M769.13,849.37v75.27M769.13,924.97v-76.28M769.13,924.64v-75.27M769.13,922.95v-72.23M769.13,850.72v72.23M769.13,848.69v76.28M769.13,854.09v65.48M769.13,919.57v-65.48"/>
  <path class="st3" d="M489.99,617.82l13.16,1.35M503.16,619.18l12.49,3.37M515.65,622.55l11.81,5.4M527.46,627.95l10.8,7.43M538.26,635.38l9.45,9.45M547.71,644.83l7.42,10.8M555.14,655.63l5.74,11.81M560.87,667.44l3.37,12.83M564.25,680.27l1.01,12.83M489.99,693.09v-75.27M494.72,697.82h65.48M560.2,697.82v-4.05M560.2,693.77h-65.48M494.72,693.77v4.05M563.91,704.91h-72.57M494.72,693.09h65.48M494.72,699.51h65.48M563.91,699.51v5.4M491.34,699.51v5.4M491.34,699.51h72.57M487.63,704.91h3.71M491.34,704.91v-5.4M491.34,699.51h3.38M494.72,699.51v-6.41M494.72,693.09h-7.09M487.63,693.09v11.81M563.91,704.91h3.71M567.62,704.91v-11.81M567.62,693.09h-7.42M560.2,693.09v6.41M560.2,699.51h3.71M563.91,699.51v5.4M678.67,693.77v4.05M572.69,693.77h105.98M572.69,697.82v-4.05M678.67,697.82h-105.98M572.69,704.91h105.98M678.67,693.09h-105.98M572.69,693.09v11.81M568.64,693.09h4.05M568.64,704.91v-11.81M572.69,704.91h-4.05M682.72,693.09v11.81M678.67,693.09h4.05M678.67,704.91v-11.81M682.72,704.91h-4.05M486.62,703.22v32.4M430.93,735.62v218.38M430.93,954h127.59M558.51,1154.83h8.77M734.7,1154.83v-118.14M734.7,1030.96v-102.94M734.7,928.01h24.64M759.34,928.01v-1.01M759.34,765.32v-1.01M759.34,764.31h-24.64M734.7,764.31v-28.69M734.7,735.62h-50.97M683.73,735.62v-32.4M683.73,703.22h-1.01M568.64,703.22h-1.01M487.63,703.22h-1.01M731.66,1170.7h-92.82M567.29,1154.83h-.67M567.29,1170.7h-153.91M734.7,1085.98v47.59"/>
  <path class="st3" d="M734.7,1038.05v95.52M558.51,1154.83v-6.75M558.51,1148.08v-9.11M558.51,1068.42v-54.68M553.45,1133.57v-62.78M550.41,1013.74h-117.8M487.63,1136.6l1.01-12.82M488.64,1123.78l3.71-12.15M492.36,1111.63l6.08-11.47M498.43,1100.15l8.44-10.13M506.87,1090.03l9.79-8.1M516.66,1081.92l11.48-6.08M528.13,1075.85l12.49-3.71M540.62,1072.14l12.83-1.35M552.1,1068.42h6.42M558.51,1138.97h-6.42M553.45,1133.57v3.04M553.45,1136.6h-65.82M553.45,1133.57v-62.78"/>
  <path class="st3" d="M471.77,1020.16h-1.35M468.73,1020.16h-1.35M471.77,1020.16h-4.39M471.77,1020.16h-1.35M468.73,1020.16h-1.35"/>
  <path class="st3" d="M439.03,1020.16h113.07M552.1,1020.16v48.26M552.1,1138.97v7.77M552.1,1146.73h-113.07M439.03,1146.73v-126.57"/>
  <g class="st16">
    <path class="st2" d="M50.87,1160.57h6.07M74.49,1239.89l16.2-7.09M86.31,1215.25l4.38,17.55M113.99,1243.94l-27.68-28.69M113.99,1243.94l-39.49-4.05M113.99,1243.94l-23.29-11.14M50.87,921.26h6.07M50.87,1080.91h6.07M50.87,1001.26h6.07M50.87,921.26v239.31M1177.2,461.55H-6.51"/>
    <path d="M72.26,512.46c-.43.28-.75.67-.96,1.17-.21.5-.32,1.11-.32,1.85,0,.58.11,1.1.32,1.57.21.47.5.82.89,1.07.38.25.78.37,1.21.37s.81-.11,1.15-.34c.33-.22.61-.58.82-1.05.14-.33.32-.92.51-1.8.19-.88.38-1.42.57-1.62.19-.21.42-.32.72-.32.33,0,.62.15.85.45.23.3.36.77.36,1.42s-.13,1.1-.39,1.42c-.26.32-.64.51-1.16.56l.08,1.03c.47-.02.9-.15,1.27-.4.37-.25.66-.6.85-1.06.19-.46.29-.99.29-1.6,0-.55-.09-1.04-.27-1.49-.18-.45-.45-.79-.81-1.02-.35-.23-.74-.35-1.14-.35-.37,0-.71.09-1,.29-.3.19-.55.48-.75.87-.16.3-.33.82-.5,1.57-.18.75-.31,1.23-.39,1.45-.13.34-.29.59-.48.73-.19.15-.41.22-.66.22s-.48-.08-.69-.23c-.21-.16-.38-.39-.49-.7-.12-.32-.18-.68-.18-1.09,0-.46.08-.88.24-1.25.16-.37.37-.64.62-.82.26-.18.59-.29.99-.34l-.09-1.02c-.54.02-1.02.16-1.45.45M71.12,521.17h2.79l1.28,1.33-4.08,2.9v1.42l4.8-3.56,3.26,3.41v-1.46l-4-4.04h4v-1.08h-8.06v1.08Z"/>
    <path d="M76.78,530.7h-.92v5.37h.92v-5.37ZM74.34,530.7h-.92v5.37h.92v-5.37Z"/>
    <path d="M72.26,540.81c-.43.28-.75.67-.96,1.17-.21.5-.32,1.11-.32,1.85,0,.58.1,1.1.31,1.57.21.47.51.82.89,1.07.38.25.78.37,1.22.37s.81-.11,1.14-.34c.33-.23.61-.58.82-1.05.15-.33.32-.92.51-1.8.2-.88.39-1.42.57-1.62.19-.21.42-.32.71-.32.34,0,.62.15.86.45.23.3.36.77.36,1.43s-.13,1.1-.39,1.42-.64.51-1.15.56l.08,1.03c.47-.02.9-.15,1.27-.4.38-.25.66-.61.85-1.06.19-.46.29-.99.29-1.6,0-.55-.09-1.04-.28-1.49-.18-.45-.45-.79-.8-1.02-.35-.23-.73-.35-1.14-.35-.37,0-.71.1-1,.29-.3.19-.55.48-.75.87-.16.3-.32.82-.5,1.57-.18.75-.31,1.23-.39,1.45-.13.34-.29.59-.48.73-.19.15-.41.22-.66.22s-.48-.07-.69-.23c-.21-.16-.38-.39-.5-.7-.12-.32-.18-.68-.18-1.09,0-.46.08-.88.24-1.25.16-.37.37-.64.63-.82.26-.18.59-.29.99-.34l-.09-1.02c-.54.01-1.02.16-1.45.45"/>
    <path d="M71.12,549.03h2.31l.67.71-2.98,1.95v1.23l3.67-2.48,2.16,2.26v-1.3l-2.38-2.37h4.6v-1h-8.06v1ZM71.12,558.16v1.04c.22-.12.46-.21.7-.25.25-.05.83-.07,1.75-.07h1.32c.44,0,.74-.02.91-.05.27-.06.49-.16.67-.31.18-.15.33-.38.44-.69.12-.31.18-.72.18-1.23s-.07-.95-.21-1.33c-.14-.38-.33-.68-.59-.88-.26-.21-.59-.35-1-.44l-.13.98c.42.11.7.27.87.5.16.22.25.57.25,1.04,0,.5-.11.88-.34,1.14-.16.19-.45.28-.85.28-.03,0-.12,0-.26,0-.13-.38-.25-.98-.34-1.78-.05-.39-.09-.69-.15-.89-.07-.27-.18-.5-.32-.72-.14-.21-.33-.38-.57-.52-.24-.13-.5-.2-.78-.2-.49,0-.89.17-1.2.52-.31.35-.47.85-.47,1.49,0,.39.07.76.19,1.1.13.34.35.7.66,1.07-.27.03-.51.1-.72.2M73.69,557.87c-.44,0-.77-.05-.99-.16-.29-.14-.52-.36-.68-.66-.17-.3-.25-.64-.25-1.03s.09-.68.27-.88c.18-.2.4-.31.66-.31.18,0,.33.05.47.14.14.09.25.22.33.39.07.17.14.46.2.87.1.73.23,1.27.38,1.63h-.36Z"/>
    <path d="M71.12,561.18h2.31l.67.71-2.99,1.95v1.23l3.67-2.48,2.16,2.25v-1.29l-2.37-2.37h4.6v-1h-8.06v1ZM71.97,567.66c0-.15.03-.26.07-.34.05-.08.11-.14.19-.17.08-.04.26-.05.55-.05h3.42v1.01h.77v-1.01h2.04l-.59-.99h-1.45v-.73h-.77v.73h-3.36c-.59,0-.98.04-1.17.12-.18.08-.33.22-.45.42-.11.2-.17.48-.17.84,0,.22.03.47.09.76l.88-.14c-.03-.18-.04-.33-.04-.44"/>
    <path d="M57.96,513.51h3.66v3.82h.95v-3.82h2.5v4.41h.95v-5.49h-8.06v1.08ZM59.1,519.21c-.43.28-.74.67-.96,1.17-.21.5-.32,1.11-.32,1.85,0,.58.1,1.1.31,1.57.21.46.51.82.89,1.07.38.25.79.37,1.22.37s.81-.11,1.14-.34c.33-.23.61-.58.83-1.05.14-.33.32-.92.51-1.8.2-.88.39-1.42.57-1.62.19-.21.43-.32.72-.32.33,0,.62.15.85.45.23.3.35.77.35,1.43s-.13,1.1-.39,1.42c-.26.32-.64.51-1.15.56l.08,1.03c.47-.02.9-.15,1.27-.4.38-.25.66-.61.85-1.06.19-.46.29-.99.29-1.6,0-.55-.09-1.04-.27-1.49-.19-.45-.45-.79-.81-1.02-.35-.23-.73-.35-1.14-.35-.37,0-.7.1-1,.29-.3.19-.55.48-.75.87-.16.3-.32.82-.5,1.57-.18.75-.31,1.23-.39,1.45-.13.34-.29.59-.48.73-.19.15-.41.22-.66.22s-.48-.07-.69-.23c-.21-.16-.38-.39-.5-.7-.12-.32-.18-.68-.18-1.09,0-.46.08-.88.24-1.25.16-.37.37-.64.63-.82.26-.18.59-.29.99-.34l-.09-1.02c-.54.01-1.02.16-1.45.45"/>
    <path d="M63.62,529.68h-.92v5.37h.92v-5.37ZM61.17,529.68h-.92v5.37h.92v-5.37Z"/>
    <polygon points="57.96 540.85 61.62 540.85 61.62 544.66 62.57 544.66 62.57 540.85 65.06 540.85 65.06 545.26 66.01 545.26 66.01 539.77 57.96 539.77 57.96 540.85"/>
    <path d="M58.61,547.07c-.53.51-.79,1.18-.79,2,0,.51.12.99.36,1.43.24.44.57.76,1,.99.43.23,1.02.34,1.77.34.92,0,1.65-.26,2.18-.77.53-.52.79-1.18.79-1.99,0-.73-.22-1.34-.65-1.85-.52-.61-1.32-.91-2.4-.91-.98,0-1.74.25-2.26.76M62.55,547.83c.37.33.55.74.55,1.24s-.18.9-.56,1.24c-.37.33-.92.5-1.64.5-.77,0-1.34-.16-1.71-.49-.38-.33-.56-.75-.56-1.24s.19-.91.56-1.24c.37-.33.93-.49,1.68-.49s1.31.17,1.68.49M57.96,553.74h3.05c.42,0,.81.06,1.16.17.23.07.41.2.54.37.13.18.2.37.2.59,0,.24-.07.49-.21.73l.92.34c.21-.35.32-.69.32-1.03,0-.23-.07-.45-.2-.64-.13-.19-.41-.4-.82-.63h.89v-.9h-5.84v1Z"/>
    <path d="M58.92,559.89c-.19-.26-.29-.57-.29-.94,0-.49.17-.9.51-1.23.34-.33.83-.51,1.48-.55v4.39c.11,0,.2,0,.26,0,.96,0,1.71-.25,2.24-.75.53-.5.8-1.14.8-1.93s-.27-1.47-.81-1.99c-.54-.51-1.31-.77-2.29-.77s-1.69.25-2.21.76c-.53.51-.79,1.19-.79,2.05,0,.68.16,1.24.49,1.69.33.44.79.74,1.39.9l.13-1.03c-.42-.15-.72-.35-.91-.62M62.66,557.74c.31.31.46.7.46,1.16,0,.51-.19.92-.57,1.24-.25.21-.61.33-1.1.38v-3.29c.51.03.91.21,1.22.52M58.3,563.25c-.31.4-.47.99-.47,1.75,0,.46.08.88.24,1.24.16.37.38.65.67.84.29.19.6.29.93.29s.62-.08.84-.24c.23-.16.4-.38.52-.66.12-.28.27-.77.46-1.48.13-.49.22-.78.25-.88.07-.18.16-.3.26-.38.1-.08.22-.12.35-.12.2,0,.38.1.53.29.15.2.23.52.23.98,0,.39-.08.69-.25.9-.17.21-.4.34-.7.39l.13.97c.38-.06.68-.18.9-.34.23-.17.4-.42.54-.77.13-.35.2-.76.2-1.22,0-.31-.04-.6-.12-.87-.08-.27-.18-.48-.29-.63-.14-.21-.33-.37-.55-.49-.22-.12-.46-.18-.72-.18-.29,0-.55.07-.79.22-.23.15-.42.36-.55.64-.14.28-.29.79-.48,1.52-.14.54-.25.89-.33,1.02-.13.2-.31.29-.53.29-.25,0-.47-.11-.65-.33-.19-.22-.28-.56-.28-1.02s.1-.81.31-1.06c.21-.25.51-.41.9-.47l-.16-.99c-.62.11-1.09.37-1.4.77M66.02,568.63h-8.06v1h8.06v-1ZM57.96,575.31v1.04c.22-.13.46-.21.7-.26.24-.04.82-.06,1.74-.06h1.32c.44,0,.75-.02.91-.05.27-.06.5-.17.67-.31.18-.15.33-.38.44-.69.12-.31.18-.72.18-1.22s-.07-.95-.2-1.34c-.14-.38-.33-.68-.59-.88-.25-.21-.59-.35-1-.44l-.13.98c.41.11.7.27.86.5.17.22.25.57.25,1.04,0,.5-.11.88-.33,1.14-.17.19-.45.28-.85.28-.04,0-.12,0-.26,0-.13-.38-.24-.98-.34-1.78-.05-.39-.1-.69-.15-.89-.07-.27-.18-.5-.32-.72-.14-.21-.33-.38-.57-.52-.23-.13-.5-.2-.78-.2-.49,0-.89.17-1.2.52s-.47.85-.47,1.49c0,.39.06.76.19,1.1.13.34.35.7.66,1.07-.28.03-.51.1-.72.2M60.52,575.03c-.44,0-.77-.06-.99-.16-.29-.14-.52-.36-.68-.66-.16-.3-.25-.64-.25-1.03s.09-.68.26-.88c.18-.2.4-.3.66-.3.17,0,.33.04.47.14.14.09.25.22.32.39.08.17.14.46.2.87.1.72.22,1.27.37,1.63h-.36ZM64.58,572.94c-.2.2-.29.43-.29.71s.1.5.29.7c.19.2.43.3.71.3s.52-.1.71-.3.29-.43.29-.7-.1-.5-.29-.7-.42-.3-.69-.3c-.29,0-.54.1-.74.29M65.72,573.24c.11.12.18.25.18.41s-.06.3-.18.42c-.12.11-.26.17-.42.17s-.31-.06-.42-.17c-.12-.12-.18-.25-.18-.41s.06-.3.18-.41.26-.18.44-.18c.16,0,.3.06.42.18M58.92,581.1c-.19-.26-.29-.57-.29-.94,0-.49.17-.9.51-1.23.34-.33.83-.51,1.48-.55v4.4c.11,0,.2,0,.26,0,.96,0,1.71-.25,2.24-.75.53-.5.8-1.14.8-1.93s-.27-1.47-.81-1.99c-.54-.51-1.31-.76-2.29-.76s-1.69.25-2.21.76c-.53.5-.79,1.19-.79,2.05,0,.68.16,1.25.49,1.69.33.44.79.74,1.39.9l.13-1.03c-.42-.15-.72-.36-.91-.62M62.66,578.95c.31.31.46.7.46,1.16,0,.5-.19.92-.57,1.24-.25.21-.61.33-1.1.38v-3.29c.51.04.91.21,1.22.52"/>
    <path d="M58.8,585.89c0-.15.02-.26.07-.34.05-.08.11-.14.19-.17.08-.04.26-.05.55-.05h3.41v1.01h.77v-1.01h2.04l-.59-1h-1.45v-.73h-.77v.73h-3.36c-.59,0-.98.04-1.17.12-.19.08-.33.22-.45.42-.12.2-.17.48-.17.84,0,.22.03.47.09.75l.88-.14c-.03-.18-.04-.33-.04-.44M58.3,590.58c-.32.4-.47.99-.47,1.75,0,.46.08.88.24,1.24.16.36.38.64.68.84.29.2.6.29.93.29s.62-.08.85-.24c.23-.16.4-.38.52-.66.12-.28.27-.77.46-1.48.14-.49.22-.78.25-.88.07-.17.16-.3.27-.38.1-.08.21-.12.35-.12.2,0,.38.1.53.3s.23.52.23.98c0,.39-.08.69-.25.9-.17.21-.4.34-.7.38l.13.98c.38-.07.68-.18.9-.35.22-.17.4-.43.54-.77.13-.35.2-.76.2-1.22,0-.31-.04-.6-.12-.86-.08-.27-.18-.48-.29-.63-.15-.21-.33-.37-.55-.49-.22-.12-.46-.18-.72-.18-.28,0-.55.07-.78.22-.23.15-.42.36-.55.65-.13.28-.29.79-.48,1.52-.14.54-.25.88-.34,1.02-.13.2-.31.29-.53.29-.25,0-.47-.11-.65-.33-.19-.22-.28-.56-.28-1.02s.1-.81.32-1.06c.21-.25.51-.41.9-.46l-.15-.99c-.62.11-1.09.36-1.4.77"/>
    <path d="M57.96,597.3h2.31l.67.7-2.98,1.95v1.23l3.67-2.48,2.16,2.25v-1.29l-2.38-2.36h4.6v-1h-8.06v1ZM57.96,606.08v1.04c.22-.12.46-.21.7-.25.25-.05.83-.07,1.75-.07h1.32c.44,0,.74-.02.91-.05.27-.06.5-.16.67-.31.18-.15.33-.38.45-.69.12-.31.18-.72.18-1.23s-.07-.95-.21-1.33-.33-.68-.59-.88c-.25-.21-.59-.35-1-.44l-.13.98c.41.11.7.27.86.5.16.22.25.57.25,1.04,0,.5-.11.88-.33,1.14-.17.19-.45.28-.85.28-.04,0-.13,0-.26,0-.14-.38-.25-.98-.35-1.78-.05-.39-.09-.69-.15-.89-.07-.27-.18-.5-.32-.72-.14-.21-.33-.38-.57-.52-.23-.13-.49-.2-.78-.2-.49,0-.89.17-1.2.52-.31.35-.47.85-.47,1.49,0,.39.07.76.2,1.1.13.34.35.7.66,1.07-.27.03-.51.1-.72.2M60.52,605.8c-.44,0-.77-.05-.99-.16-.29-.14-.52-.36-.68-.66-.17-.3-.25-.64-.25-1.03s.09-.68.27-.88c.18-.2.4-.31.66-.31.17,0,.33.05.47.14.14.09.25.22.32.39.07.17.14.46.2.87.1.73.23,1.27.38,1.63h-.36Z"/>
    <path d="M58.69,609.03c-.58.39-.86.94-.86,1.64s.27,1.3.82,1.8c.55.5,1.32.75,2.32.75.42,0,.82-.06,1.19-.18.37-.12.68-.28.95-.49.26-.21.47-.48.61-.8.14-.32.22-.67.22-1.03,0-.65-.26-1.19-.79-1.61h2.88v-1h-8.06v.93h.73ZM62.55,609.5c.38.32.56.7.56,1.13s-.18.8-.54,1.11c-.36.31-.93.46-1.69.46s-1.3-.16-1.68-.48c-.38-.32-.56-.7-.56-1.13,0-.53.25-.96.76-1.28.31-.19.82-.29,1.52-.29s1.25.16,1.63.48"/>
    <path d="M58.99,919.84c-.56.45-.83,1.06-.83,1.85,0,.6.16,1.09.48,1.48.31.39.76.68,1.35.88.58.2,1.34.29,2.29.29.8,0,1.44-.06,1.91-.18.47-.12.87-.29,1.2-.5.33-.21.58-.49.76-.81.18-.33.26-.71.26-1.15,0-.59-.16-1.08-.47-1.47-.31-.39-.76-.69-1.34-.88-.58-.2-1.35-.29-2.3-.29-1.51,0-2.6.27-3.27.8M64.99,920.57c.39.28.58.64.58,1.1s-.22.85-.65,1.17c-.44.31-1.32.47-2.65.47s-2.2-.16-2.64-.47c-.44-.31-.66-.7-.66-1.16s.22-.84.65-1.16c.44-.31,1.32-.47,2.64-.47s2.23.17,2.72.52M59.24,1073.53c.18.11.36.25.53.42.18.17.52.55,1.02,1.15.6.72,1.07,1.23,1.42,1.54.35.31.67.53.98.66.31.13.63.2.95.2.64,0,1.17-.23,1.6-.68.43-.46.64-1.07.64-1.86s-.2-1.39-.6-1.85-.97-.72-1.73-.79l-.1,1.03c.5,0,.9.15,1.19.44.29.29.43.68.43,1.15,0,.46-.14.83-.4,1.11-.27.28-.6.42-.99.42s-.77-.16-1.19-.47c-.42-.31-.99-.91-1.71-1.8-.46-.57-.87-1-1.22-1.31-.35-.3-.71-.52-1.07-.66-.22-.08-.45-.12-.69-.11v5.38h.95v-3.99Z"/>
    <path d="M58.29,1079.62h3.03c.53,0,.94.05,1.22.16.29.11.5.28.64.52.15.24.22.5.22.78,0,.37-.11.64-.33.8-.22.16-.55.25-.99.25h-3.79v1h3.39c.6,0,1.04.14,1.31.41.27.28.41.62.41,1.04,0,.23-.05.43-.16.6-.11.17-.25.29-.42.35-.18.07-.46.1-.85.1h-3.68v.99h4.01c.66,0,1.16-.16,1.48-.47.32-.32.48-.76.48-1.35,0-.74-.34-1.35-1.02-1.82.32-.11.57-.31.75-.59.18-.28.27-.64.27-1.08,0-.39-.08-.74-.26-1.05-.17-.31-.41-.55-.69-.74h.82v-.89h-5.84v1Z"/>
    <path d="M66.38,998.74v-.64c-.35-.17-.71-.47-1.08-.89-.37-.42-.68-.9-.94-1.46h-.96c.11.31.29.66.51,1.05.23.39.46.71.68.95h-6.3v1h8.09ZM58.29,1002.66h3.03c.53,0,.94.05,1.22.16.29.11.5.28.64.52.15.24.22.5.22.78,0,.37-.11.63-.33.8-.22.16-.55.25-.99.25h-3.79v1h3.39c.6,0,1.04.14,1.31.41.27.28.41.62.41,1.03,0,.23-.05.43-.16.6-.11.17-.25.28-.42.35-.18.07-.46.1-.85.1h-3.68v.99h4.01c.66,0,1.16-.16,1.48-.47.32-.32.48-.76.48-1.35,0-.75-.34-1.36-1.02-1.82.32-.12.57-.31.75-.59.18-.28.27-.64.27-1.07,0-.39-.08-.74-.26-1.05-.17-.31-.41-.55-.69-.74h.82v-.89h-5.84v1Z"/>
    <path d="M58.29,823.91h6.86l-6.86,2.35v.97l6.74,2.36h-6.74v1.04h8.06v-1.45l-5.61-1.94c-.57-.2-1-.34-1.29-.44.27-.08.66-.21,1.19-.39l5.71-1.92v-1.62h-8.06v1.04ZM58.29,835.94v1.04c.23-.13.46-.21.7-.25.24-.04.83-.06,1.74-.06h1.32c.44,0,.74-.02.91-.05.27-.06.49-.16.67-.31.18-.15.33-.38.44-.69.12-.31.18-.72.18-1.22s-.07-.96-.2-1.34c-.14-.39-.34-.68-.59-.88-.25-.21-.59-.35-1-.44l-.13.98c.42.11.7.27.87.49.16.22.25.57.25,1.04,0,.5-.11.88-.34,1.14-.16.19-.45.28-.85.28-.03,0-.12,0-.26,0-.13-.38-.24-.98-.34-1.78-.05-.39-.1-.69-.15-.89-.08-.27-.18-.5-.33-.72-.14-.21-.33-.38-.57-.51-.24-.13-.5-.2-.78-.2-.49,0-.89.17-1.2.52-.32.35-.47.85-.47,1.49,0,.39.07.76.19,1.1.13.34.35.7.66,1.07-.27.03-.51.1-.72.2M60.86,835.66c-.44,0-.77-.06-.99-.16-.29-.14-.52-.36-.69-.66-.16-.3-.25-.64-.25-1.03s.09-.68.26-.89c.18-.2.39-.3.66-.3.17,0,.33.04.47.14.14.09.25.22.32.39.07.17.14.46.2.87.1.73.23,1.27.37,1.63h-.36ZM64.92,833.56c-.2.2-.29.43-.29.71s.09.5.29.7c.19.2.43.29.71.29s.52-.1.71-.29.29-.43.29-.7-.1-.5-.29-.7-.42-.3-.69-.3c-.29,0-.54.1-.73.3M66.06,833.87c.12.12.17.25.17.41s-.06.3-.17.42c-.12.11-.26.17-.42.17s-.31-.06-.43-.18c-.11-.12-.17-.25-.17-.41s.06-.3.17-.41c.12-.12.26-.18.44-.18.16,0,.3.06.42.18"/>
    <rect x="58.29" y="838.28" width="8.06" height="1"/>
    <path d="M66.39,847.53v-.65c-.35-.17-.71-.47-1.08-.89-.37-.42-.69-.91-.95-1.46h-.96c.12.31.29.66.51,1.05.23.39.45.71.68.95h-6.3v1h8.09ZM64.13,850.73h-1.13v1.14h1.13v-1.14ZM59.42,850.73h-1.13v1.14h1.13v-1.14Z"/>
    <path d="M58.77,854.02c-.41.47-.61,1.07-.61,1.81,0,.9.32,1.61.98,2.14.53.43,1.16.64,1.89.64s1.39-.24,1.88-.73c.49-.49.73-1.09.73-1.8,0-.54-.17-1.05-.5-1.54l2.16.44v3.25h.94v-4.05l-4.14-.79-.12.94c.23.15.42.35.57.61.14.26.21.55.21.87,0,.52-.16.94-.49,1.26-.33.32-.77.48-1.33.48-.59,0-1.07-.17-1.43-.5-.36-.33-.54-.74-.54-1.22,0-.4.13-.74.38-1.03.25-.28.63-.46,1.14-.54l-.09-1.05c-.68.07-1.22.34-1.63.8M58.99,860.43c-.56.45-.83,1.06-.83,1.85,0,.6.16,1.09.47,1.48.32.39.77.68,1.35.88.58.2,1.34.3,2.29.3.8,0,1.43-.06,1.9-.18.47-.12.87-.29,1.2-.51.33-.21.58-.49.76-.82.18-.33.26-.71.26-1.15,0-.59-.16-1.08-.47-1.47-.31-.39-.76-.68-1.34-.88-.58-.2-1.35-.3-2.3-.3-1.51,0-2.6.27-3.27.81M64.99,861.17c.38.27.58.64.58,1.1s-.22.86-.66,1.17-1.32.47-2.64.47-2.2-.15-2.64-.47c-.44-.31-.66-.7-.66-1.16s.22-.84.66-1.16c.44-.31,1.32-.47,2.64-.47s2.23.17,2.72.51"/>
    <polygon class="st13" points="58.29 1210.86 80.91 1222 74.16 1236.51 51.21 1225.37 58.29 1210.86"/>
    <polygon points="61.05 1216.6 72.39 1222.1 57.36 1224.22 56.41 1226.18 70.85 1233.17 71.74 1231.34 60.4 1225.85 75.42 1223.72 76.38 1221.76 61.94 1214.76 61.05 1216.6"/>
    <path d="M58.78,1152.74c-.42.47-.63,1.06-.63,1.78,0,.79.25,1.44.74,1.96.49.52,1.08.77,1.79.77.52,0,.95-.13,1.3-.4.35-.27.58-.64.68-1.12.17.37.4.65.68.84.29.19.61.28.95.28.36,0,.71-.1,1.04-.3.32-.2.58-.49.77-.86.19-.38.28-.78.28-1.23,0-.64-.18-1.18-.55-1.62-.36-.43-.88-.71-1.54-.83l-.18,1c.48.07.85.24,1.09.5s.36.58.36.97-.12.71-.36.96c-.24.25-.54.38-.9.38-.46,0-.79-.17-1.02-.51-.22-.34-.33-.72-.33-1.15,0-.04,0-.09,0-.16l-.87-.11c.07.28.11.51.11.7,0,.47-.15.85-.44,1.15-.29.3-.67.45-1.13.45s-.87-.16-1.2-.48c-.32-.33-.48-.72-.48-1.19,0-.4.12-.73.37-1.01.25-.28.65-.47,1.21-.59l-.13-1c-.67.07-1.22.34-1.64.81M58.29,1159.27h3.03c.53,0,.94.05,1.22.16.29.1.5.28.64.52.15.24.22.5.22.78,0,.37-.11.63-.33.8-.22.17-.55.24-.99.24h-3.79v1h3.39c.6,0,1.04.14,1.31.41.27.28.41.62.41,1.03,0,.23-.05.43-.16.6-.11.17-.25.28-.42.35-.18.07-.46.1-.85.1h-3.68v.99h4.01c.66,0,1.16-.16,1.48-.47.32-.31.48-.76.48-1.35,0-.75-.34-1.35-1.02-1.82.32-.11.57-.31.75-.59.18-.28.27-.64.27-1.08,0-.39-.08-.74-.26-1.05-.17-.31-.41-.55-.69-.74h.82v-.89h-5.84v1Z"/>
    <rect class="st13" x="1119.82" y="483.15" width="18.9" height="111.72"/>
    <path d="M1135.27,489.43v-.95c-.52-.26-1.05-.7-1.61-1.32-.55-.62-1.02-1.34-1.41-2.17h-1.43c.17.46.43.98.77,1.56.34.58.68,1.05,1.02,1.4h-9.41v1.48h12.07ZM1124.88,494.14h-1.68v1.69h1.68v-1.69ZM1124.9,498.8c-.64.42-1.11,1-1.43,1.74-.32.74-.47,1.65-.47,2.74,0,.86.16,1.63.47,2.32.31.69.76,1.21,1.32,1.59.56.37,1.17.55,1.81.55s1.21-.17,1.71-.5c.49-.33.9-.85,1.23-1.56.22-.48.47-1.37.77-2.67.29-1.3.58-2.1.86-2.41.28-.31.64-.47,1.07-.47.5,0,.92.22,1.28.66.35.44.53,1.14.53,2.11s-.2,1.63-.58,2.1c-.39.47-.96.75-1.72.84l.12,1.53c.71-.03,1.34-.22,1.9-.59.56-.37.98-.89,1.27-1.58.29-.68.43-1.47.43-2.37,0-.81-.13-1.55-.41-2.21-.27-.67-.67-1.17-1.2-1.51-.53-.35-1.1-.52-1.7-.52-.56,0-1.05.14-1.5.42-.44.29-.82.71-1.12,1.29-.23.45-.48,1.22-.75,2.33-.27,1.11-.46,1.82-.59,2.15-.19.5-.43.87-.71,1.09-.28.22-.61.33-.99.33s-.72-.12-1.03-.34c-.31-.23-.56-.58-.74-1.04-.18-.47-.27-1.01-.27-1.61,0-.69.12-1.31.36-1.85.24-.55.55-.96.94-1.22.38-.26.88-.43,1.48-.5l-.13-1.51c-.8.02-1.52.24-2.16.66M1123.2,515.81v1.55c.33-.19.68-.31,1.04-.37.36-.06,1.23-.1,2.6-.1h1.97c.66,0,1.11-.02,1.36-.07.41-.09.74-.24,1-.46.26-.22.48-.56.66-1.03.17-.47.26-1.07.26-1.82s-.1-1.41-.31-1.98c-.21-.57-.5-1.01-.87-1.31-.38-.3-.88-.52-1.5-.65l-.2,1.45c.62.16,1.05.4,1.29.74.24.33.36.85.36,1.54,0,.75-.17,1.31-.5,1.69-.24.28-.67.42-1.27.42-.05,0-.18,0-.39,0-.2-.56-.37-1.45-.51-2.64-.07-.59-.14-1.03-.22-1.32-.11-.39-.27-.75-.48-1.06-.21-.32-.5-.57-.85-.76-.35-.2-.74-.29-1.17-.29-.73,0-1.33.26-1.8.77-.46.52-.7,1.26-.7,2.22,0,.58.1,1.12.29,1.63.19.51.52,1.04.98,1.59-.41.05-.77.14-1.07.3M1127.03,515.39c-.65,0-1.14-.08-1.48-.24-.43-.21-.77-.54-1.02-.98-.25-.45-.37-.95-.37-1.52s.13-1.01.39-1.31c.26-.3.59-.45.98-.45.26,0,.49.07.7.21.21.14.37.33.48.59.11.25.21.68.3,1.29.15,1.07.34,1.88.55,2.42h-.54ZM1135.22,519.24h-12.03v1.48h12.03v-1.48ZM1131.91,523.51h-1.68v1.69h1.68v-1.69ZM1124.88,523.51h-1.68v1.69h1.68v-1.69ZM1134.48,538.82c.53-.61.79-1.38.79-2.33,0-1.27-.46-2.29-1.38-3.04-1.05-.86-2.75-1.29-5.07-1.29-2.08,0-3.57.39-4.48,1.17-.91.78-1.36,1.79-1.36,3.02,0,.73.17,1.37.51,1.94.35.57.84,1.02,1.49,1.34.65.33,1.35.49,2.11.49,1.15,0,2.08-.35,2.81-1.04.72-.69,1.09-1.54,1.09-2.52,0-.57-.13-1.11-.39-1.62-.26-.52-.67-.95-1.21-1.31,1.2,0,2.13.15,2.78.42.65.27,1.15.64,1.49,1.11.26.35.39.77.39,1.24,0,.59-.21,1.08-.63,1.48-.26.24-.68.43-1.26.56l.12,1.47c.94-.12,1.67-.49,2.2-1.09M1128.97,534.56c.48.46.72,1.03.72,1.7s-.24,1.23-.72,1.68c-.48.44-1.13.66-1.96.66s-1.55-.22-2.05-.67c-.5-.45-.76-.99-.76-1.61,0-.43.12-.84.37-1.23.24-.39.6-.69,1.06-.91.47-.22.95-.32,1.46-.32.78,0,1.41.23,1.88.7M1124.88,542.51h-1.68v1.69h1.68v-1.69ZM1123.2,551.58c0,.77.07,1.42.2,1.95.13.53.33.97.6,1.32.26.35.63.65,1.12.89.48.24,1.01.36,1.57.36.7,0,1.31-.19,1.82-.59.51-.39.88-.95,1.09-1.68.28.57.65.99,1.1,1.27.46.28.94.42,1.45.42.55,0,1.08-.16,1.59-.48.51-.32.88-.75,1.12-1.31.24-.56.36-1.3.36-2.22v-4.52h-12.02v4.6ZM1133.8,548.58v2.41c0,.87-.06,1.48-.17,1.84-.11.35-.32.63-.62.82-.3.19-.65.29-1.05.29-.42,0-.77-.1-1.05-.31-.28-.21-.48-.51-.6-.92-.09-.31-.14-.81-.14-1.52v-2.61h3.63ZM1128.75,548.58v2.79c0,.77-.07,1.36-.2,1.76-.13.41-.37.73-.7.96-.33.23-.72.35-1.17.35-.38,0-.72-.08-1.01-.24-.29-.16-.52-.36-.67-.61-.16-.25-.26-.55-.33-.92-.04-.21-.05-.57-.05-1.09v-3h4.13ZM1124.88,558.61h-1.68v1.69h1.68v-1.69ZM1135.27,568.12v-.95c-.52-.26-1.05-.7-1.61-1.32-.55-.62-1.02-1.34-1.41-2.17h-1.43c.17.46.43.98.77,1.56.34.58.68,1.05,1.02,1.4h-9.41v1.48h12.07ZM1124.88,572.83h-1.68v1.69h1.68v-1.69ZM1135.27,582.35v-.95c-.52-.26-1.05-.7-1.61-1.32-.55-.62-1.02-1.34-1.41-2.17h-1.43c.17.46.43.98.77,1.56.34.58.68,1.05,1.02,1.4h-9.41v1.48h12.07Z"/>
    <path d="M1134.47,592.72c.53-.61.8-1.39.8-2.33,0-1.28-.46-2.29-1.38-3.04-1.05-.86-2.75-1.29-5.07-1.29-2.08,0-3.57.39-4.47,1.17-.91.78-1.36,1.79-1.36,3.02,0,.73.17,1.37.52,1.94.35.57.84,1.02,1.49,1.35.65.33,1.35.49,2.1.49,1.15,0,2.08-.35,2.81-1.04.72-.69,1.09-1.53,1.09-2.52,0-.56-.13-1.1-.39-1.62-.26-.52-.66-.96-1.21-1.31,1.2.01,2.13.15,2.78.42.65.27,1.15.64,1.48,1.1.26.36.39.77.39,1.24,0,.59-.21,1.08-.63,1.48-.26.24-.69.43-1.26.56l.12,1.48c.93-.12,1.67-.49,2.2-1.09M1128.97,588.46c.48.47.72,1.03.72,1.7s-.24,1.23-.72,1.68-1.13.67-1.97.67-1.55-.22-2.05-.67c-.5-.45-.76-.99-.76-1.61,0-.43.12-.84.36-1.23.24-.39.6-.69,1.06-.91.47-.21.95-.33,1.46-.33.78,0,1.41.23,1.88.7"/>
    <rect class="st13" x="1097.54" y="483.15" width="18.9" height="111.72"/>
    <path d="M1102.34,485.72c.27.17.53.38.8.62.26.25.77.83,1.51,1.71.9,1.06,1.6,1.83,2.12,2.28.51.46,1,.79,1.47.98.46.2.94.3,1.42.3.95,0,1.74-.34,2.38-1.01.64-.68.96-1.59.96-2.75s-.3-2.06-.89-2.74c-.6-.68-1.46-1.07-2.59-1.18l-.16,1.52c.76,0,1.35.22,1.77.65.43.43.64,1,.64,1.71,0,.67-.2,1.22-.6,1.64-.4.42-.9.63-1.48.63s-1.15-.23-1.77-.69c-.62-.46-1.48-1.34-2.55-2.66-.69-.85-1.3-1.49-1.82-1.94-.52-.45-1.06-.77-1.6-.97-.33-.13-.67-.19-1.02-.18v7.98h1.42v-5.92ZM1102.6,494.14h-1.68v1.69h1.68v-1.69ZM1102.62,498.8c-.64.42-1.11,1-1.43,1.74-.32.74-.47,1.65-.47,2.74,0,.86.16,1.63.47,2.32.31.69.76,1.21,1.32,1.59.57.37,1.17.55,1.81.55s1.22-.17,1.71-.5c.49-.33.9-.85,1.23-1.56.22-.48.47-1.37.77-2.67.29-1.3.58-2.1.86-2.41.28-.31.63-.47,1.07-.47.5,0,.92.22,1.28.66.35.44.53,1.14.53,2.11s-.2,1.63-.58,2.1c-.39.47-.96.75-1.72.84l.12,1.53c.7-.03,1.34-.22,1.9-.59.56-.37.98-.89,1.27-1.58s.43-1.47.43-2.37c0-.81-.14-1.55-.41-2.21-.27-.67-.67-1.17-1.2-1.51-.53-.35-1.09-.52-1.7-.52-.55,0-1.05.14-1.5.42-.44.29-.82.71-1.12,1.29-.23.45-.49,1.22-.75,2.33-.27,1.11-.46,1.82-.59,2.15-.19.5-.43.87-.71,1.09-.28.22-.61.33-.99.33s-.72-.12-1.03-.34c-.31-.23-.56-.58-.74-1.04-.18-.47-.27-1.01-.27-1.61,0-.69.12-1.31.35-1.85.24-.55.55-.96.94-1.22.38-.26.88-.43,1.48-.5l-.13-1.51c-.8.02-1.52.24-2.16.66M1100.92,515.81v1.55c.33-.19.68-.31,1.04-.37.36-.06,1.23-.1,2.6-.1h1.97c.65,0,1.11-.02,1.36-.07.4-.09.74-.24,1-.46.26-.22.48-.56.66-1.03.17-.47.26-1.07.26-1.82s-.1-1.41-.31-1.98c-.21-.57-.5-1.01-.88-1.31-.38-.3-.88-.52-1.5-.65l-.2,1.45c.61.16,1.05.4,1.29.74.24.33.36.85.36,1.54,0,.75-.17,1.31-.5,1.69-.24.28-.67.42-1.27.42-.06,0-.18,0-.39,0-.2-.56-.37-1.45-.51-2.64-.07-.59-.14-1.03-.22-1.32-.11-.39-.27-.75-.48-1.06-.21-.32-.49-.57-.85-.76-.35-.2-.74-.29-1.17-.29-.73,0-1.33.26-1.79.77-.47.52-.7,1.26-.7,2.22,0,.58.1,1.12.29,1.63.19.51.52,1.04.98,1.59-.41.05-.77.14-1.07.3M1104.75,515.39c-.65,0-1.14-.08-1.48-.24-.43-.21-.77-.54-1.02-.98-.25-.45-.37-.95-.37-1.52s.13-1.01.39-1.31c.26-.3.59-.45.98-.45.26,0,.49.07.7.21.21.14.37.33.48.59.11.25.21.68.3,1.29.15,1.07.34,1.88.55,2.42h-.54ZM1112.94,519.24h-12.02v1.48h12.02v-1.48ZM1109.63,523.51h-1.68v1.69h1.68v-1.69ZM1102.6,523.51h-1.68v1.69h1.68v-1.69ZM1112.2,538.82c.53-.61.79-1.38.79-2.33,0-1.27-.46-2.29-1.38-3.04-1.06-.86-2.75-1.29-5.07-1.29-2.08,0-3.57.39-4.48,1.17-.91.78-1.36,1.79-1.36,3.02,0,.73.17,1.37.51,1.94.35.57.84,1.02,1.49,1.34.65.33,1.35.49,2.11.49,1.15,0,2.08-.35,2.81-1.04.72-.69,1.09-1.54,1.09-2.52,0-.57-.13-1.11-.39-1.62-.26-.52-.67-.95-1.21-1.31,1.2,0,2.13.15,2.78.42.65.27,1.15.64,1.48,1.11.27.35.4.77.4,1.24,0,.59-.21,1.08-.63,1.48-.26.24-.68.43-1.26.56l.12,1.47c.94-.12,1.67-.49,2.2-1.09M1106.7,534.56c.48.46.72,1.03.72,1.7s-.24,1.23-.72,1.68c-.48.44-1.13.66-1.96.66s-1.55-.22-2.05-.67c-.5-.45-.76-.99-.76-1.61,0-.43.12-.84.36-1.23.24-.39.6-.69,1.06-.91.46-.22.95-.32,1.46-.32.78,0,1.41.23,1.88.7M1102.6,542.51h-1.68v1.69h1.68v-1.69ZM1100.92,551.58c0,.77.07,1.42.2,1.95.13.53.33.97.6,1.32.26.35.63.65,1.12.89.48.24,1.01.36,1.57.36.7,0,1.31-.19,1.82-.59.51-.39.88-.95,1.09-1.68.28.57.65.99,1.1,1.27.46.28.94.42,1.45.42.55,0,1.08-.16,1.59-.48.51-.32.88-.75,1.12-1.31.24-.56.36-1.3.36-2.22v-4.52h-12.02v4.6ZM1111.53,548.58v2.41c0,.87-.06,1.48-.17,1.84-.11.35-.32.63-.62.82-.3.19-.65.29-1.05.29-.42,0-.77-.1-1.05-.31-.28-.21-.48-.51-.6-.92-.09-.31-.14-.81-.14-1.52v-2.61h3.63ZM1106.47,548.58v2.79c0,.77-.07,1.36-.2,1.76-.13.41-.37.73-.7.96-.33.23-.72.35-1.17.35-.38,0-.72-.08-1.01-.24-.29-.16-.52-.36-.67-.61-.16-.25-.26-.55-.33-.92-.04-.21-.06-.57-.06-1.09v-3h4.13ZM1102.6,558.61h-1.68v1.69h1.68v-1.69ZM1102.34,564.41c.27.16.53.37.8.62.26.25.77.82,1.51,1.71.9,1.06,1.6,1.82,2.12,2.28.51.46,1,.79,1.47.98.46.2.94.3,1.42.3.95,0,1.74-.34,2.38-1.01.64-.68.96-1.59.96-2.75s-.3-2.06-.89-2.74c-.6-.68-1.46-1.07-2.59-1.18l-.16,1.52c.76,0,1.35.22,1.77.65.43.43.64,1,.64,1.71,0,.67-.2,1.22-.6,1.64-.4.42-.9.63-1.48.63s-1.15-.23-1.77-.69c-.62-.46-1.48-1.35-2.55-2.66-.69-.85-1.3-1.49-1.82-1.94-.52-.45-1.06-.77-1.6-.97-.33-.13-.67-.19-1.02-.17v7.97h1.42v-5.92ZM1102.6,572.83h-1.68v1.69h1.68v-1.69ZM1112.99,582.35v-.95c-.52-.26-1.05-.7-1.61-1.32-.55-.62-1.02-1.34-1.41-2.17h-1.43c.17.46.43.98.77,1.56.34.58.68,1.05,1.02,1.4h-9.41v1.48h12.07Z"/>
    <path d="M1112.2,592.72c.53-.61.8-1.39.8-2.33,0-1.28-.46-2.29-1.38-3.04-1.05-.86-2.75-1.29-5.07-1.29-2.08,0-3.57.39-4.47,1.17-.91.78-1.36,1.79-1.36,3.02,0,.73.17,1.37.52,1.94.35.57.84,1.02,1.49,1.35.65.33,1.35.49,2.11.49,1.15,0,2.08-.35,2.81-1.04.72-.69,1.09-1.53,1.09-2.52,0-.56-.13-1.1-.39-1.62-.26-.52-.66-.96-1.21-1.31,1.2.01,2.13.15,2.78.42.65.27,1.15.64,1.48,1.1.26.36.39.77.39,1.24,0,.59-.21,1.08-.63,1.48-.26.24-.69.43-1.26.56l.12,1.48c.93-.12,1.67-.49,2.2-1.09M1106.7,588.46c.48.47.72,1.03.72,1.7s-.24,1.23-.72,1.68-1.13.67-1.97.67-1.55-.22-2.05-.67c-.5-.45-.76-.99-.76-1.61,0-.43.12-.84.36-1.23.24-.39.6-.69,1.06-.91.46-.21.95-.33,1.46-.33.78,0,1.41.23,1.88.7"/>
    <rect class="st13" x="1076.28" y="483.15" width="18.9" height="111.72"/>
    <path d="M1080.39,485.05c-.63.7-.95,1.58-.95,2.64,0,1.18.36,2.15,1.1,2.92.73.77,1.62,1.15,2.67,1.15.78,0,1.43-.2,1.94-.59.52-.4.86-.95,1.02-1.66.25.55.59.96,1.02,1.24.43.28.9.42,1.42.42.55,0,1.06-.15,1.55-.44.49-.3.87-.72,1.15-1.27.28-.56.42-1.16.42-1.82,0-.95-.27-1.75-.82-2.4-.54-.64-1.31-1.05-2.3-1.23l-.26,1.48c.72.11,1.26.35,1.62.74.36.38.55.86.55,1.44s-.18,1.05-.53,1.42c-.36.37-.8.55-1.35.55-.68,0-1.19-.25-1.52-.76-.33-.5-.49-1.07-.49-1.7,0-.06,0-.14.01-.24l-1.29-.17c.11.42.16.76.16,1.04,0,.68-.22,1.25-.66,1.7-.44.44-1,.67-1.68.67-.71,0-1.31-.24-1.79-.72-.48-.48-.72-1.07-.72-1.76,0-.59.18-1.08.55-1.49.37-.41.98-.7,1.81-.87l-.2-1.48c-1,.1-1.82.5-2.44,1.2M1081.34,494.14h-1.68v1.69h1.68v-1.69ZM1081.36,498.8c-.64.42-1.11,1-1.43,1.74-.32.74-.47,1.65-.47,2.74,0,.86.16,1.63.47,2.32.31.69.76,1.21,1.32,1.59.56.37,1.17.55,1.81.55s1.22-.17,1.71-.5c.49-.33.9-.85,1.23-1.56.22-.48.47-1.37.77-2.67.29-1.3.58-2.1.86-2.41.28-.31.63-.47,1.07-.47.5,0,.92.22,1.28.66.35.44.53,1.14.53,2.11s-.2,1.63-.58,2.1c-.39.47-.96.75-1.72.84l.12,1.53c.7-.03,1.34-.22,1.9-.59.56-.37.98-.89,1.27-1.58s.43-1.47.43-2.37c0-.81-.14-1.55-.41-2.21-.27-.67-.67-1.17-1.2-1.51-.53-.35-1.09-.52-1.7-.52-.55,0-1.05.14-1.5.42-.44.29-.82.71-1.12,1.29-.23.45-.48,1.22-.75,2.33-.27,1.11-.46,1.82-.59,2.15-.19.5-.43.87-.71,1.09-.28.22-.61.33-.99.33s-.72-.12-1.03-.34c-.31-.23-.56-.58-.74-1.04-.18-.47-.27-1.01-.27-1.61,0-.69.12-1.31.35-1.85.24-.55.55-.96.94-1.22.38-.26.88-.43,1.48-.5l-.13-1.51c-.8.02-1.52.24-2.16.66M1079.66,515.81v1.55c.33-.19.68-.31,1.04-.37.36-.06,1.23-.1,2.6-.1h1.97c.66,0,1.11-.02,1.36-.07.4-.09.74-.24,1-.46.26-.22.48-.56.66-1.03.17-.47.26-1.07.26-1.82s-.1-1.41-.31-1.98c-.21-.57-.5-1.01-.88-1.31-.38-.3-.88-.52-1.5-.65l-.2,1.45c.62.16,1.05.4,1.29.74.24.33.36.85.36,1.54,0,.75-.17,1.31-.5,1.69-.24.28-.67.42-1.27.42-.05,0-.18,0-.39,0-.2-.56-.36-1.45-.51-2.64-.07-.59-.14-1.03-.22-1.32-.11-.39-.27-.75-.48-1.06-.21-.32-.49-.57-.85-.76-.35-.2-.74-.29-1.17-.29-.73,0-1.33.26-1.79.77-.47.52-.7,1.26-.7,2.22,0,.58.1,1.12.29,1.63.19.51.52,1.04.98,1.59-.41.05-.77.14-1.07.3M1083.49,515.39c-.65,0-1.14-.08-1.48-.24-.43-.21-.77-.54-1.02-.98-.25-.45-.37-.95-.37-1.52s.13-1.01.39-1.31c.26-.3.59-.45.98-.45.26,0,.49.07.7.21.21.14.37.33.48.59.11.25.21.68.3,1.29.15,1.07.34,1.88.55,2.42h-.54ZM1091.68,519.24h-12.02v1.48h12.02v-1.48ZM1088.37,523.51h-1.68v1.69h1.68v-1.69ZM1081.34,523.51h-1.68v1.69h1.68v-1.69ZM1090.94,538.82c.53-.61.79-1.38.79-2.33,0-1.27-.46-2.29-1.38-3.04-1.06-.86-2.75-1.29-5.07-1.29-2.08,0-3.57.39-4.48,1.17-.9.78-1.36,1.79-1.36,3.02,0,.73.17,1.37.51,1.94.35.57.84,1.02,1.49,1.34.65.33,1.35.49,2.11.49,1.15,0,2.08-.35,2.81-1.04.72-.69,1.09-1.54,1.09-2.52,0-.57-.13-1.11-.39-1.62-.26-.52-.67-.95-1.21-1.31,1.2,0,2.13.15,2.78.42.65.27,1.15.64,1.48,1.11.27.35.4.77.4,1.24,0,.59-.21,1.08-.63,1.48-.26.24-.68.43-1.26.56l.12,1.47c.94-.12,1.67-.49,2.2-1.09M1085.43,534.56c.48.46.72,1.03.72,1.7s-.24,1.23-.72,1.68c-.48.44-1.13.66-1.96.66s-1.55-.22-2.05-.67c-.5-.45-.76-.99-.76-1.61,0-.43.12-.84.36-1.23.24-.39.6-.69,1.06-.91.46-.22.95-.32,1.46-.32.78,0,1.41.23,1.88.7M1081.34,542.51h-1.68v1.69h1.68v-1.69ZM1079.66,551.58c0,.77.07,1.42.2,1.95.13.53.33.97.6,1.32.26.35.63.65,1.12.89.48.24,1.01.36,1.57.36.7,0,1.31-.19,1.82-.59.51-.39.88-.95,1.09-1.68.28.57.65.99,1.1,1.27.46.28.94.42,1.45.42.55,0,1.08-.16,1.59-.48.51-.32.88-.75,1.12-1.31.24-.56.36-1.3.36-2.22v-4.52h-12.02v4.6ZM1090.26,548.58v2.41c0,.87-.06,1.48-.17,1.84-.11.35-.32.63-.62.82-.3.19-.65.29-1.05.29-.42,0-.77-.1-1.05-.31-.28-.21-.48-.51-.6-.92-.09-.31-.14-.81-.14-1.52v-2.61h3.63ZM1085.21,548.58v2.79c0,.77-.07,1.36-.2,1.76-.14.41-.37.73-.7.96-.33.23-.72.35-1.17.35-.38,0-.72-.08-1.01-.24-.29-.16-.52-.36-.67-.61-.16-.25-.26-.55-.33-.92-.04-.21-.06-.57-.06-1.09v-3h4.13ZM1081.34,558.61h-1.68v1.69h1.68v-1.69ZM1080.39,563.75c-.63.7-.95,1.58-.95,2.64,0,1.18.36,2.15,1.1,2.92.73.77,1.62,1.15,2.67,1.15.78,0,1.43-.2,1.94-.59.52-.4.86-.95,1.02-1.67.25.55.59.96,1.02,1.24s.9.42,1.42.42c.55,0,1.06-.15,1.55-.44.49-.29.87-.72,1.15-1.27.28-.55.42-1.16.42-1.82,0-.96-.27-1.75-.82-2.4-.54-.64-1.31-1.05-2.3-1.23l-.26,1.48c.72.11,1.26.35,1.62.74.36.38.55.87.55,1.44s-.18,1.05-.53,1.42c-.36.37-.8.55-1.35.55-.68,0-1.19-.25-1.52-.76-.33-.5-.49-1.07-.49-1.7,0-.06,0-.14.01-.24l-1.29-.17c.11.42.16.76.16,1.05,0,.68-.22,1.25-.66,1.7-.44.44-1,.66-1.68.66-.71,0-1.31-.24-1.79-.72-.48-.48-.72-1.07-.72-1.76,0-.59.18-1.09.55-1.49.37-.41.98-.7,1.81-.87l-.2-1.48c-1,.1-1.82.5-2.44,1.2M1081.34,572.83h-1.68v1.69h1.68v-1.69ZM1091.73,582.35v-.95c-.52-.26-1.05-.7-1.61-1.32-.55-.62-1.02-1.34-1.41-2.17h-1.43c.17.46.43.98.77,1.56.34.58.68,1.05,1.02,1.4h-9.41v1.48h12.07Z"/>
    <path d="M1090.93,592.72c.53-.61.79-1.39.79-2.33,0-1.28-.46-2.29-1.38-3.04-1.05-.86-2.75-1.29-5.07-1.29-2.08,0-3.57.39-4.47,1.17-.91.78-1.36,1.79-1.36,3.02,0,.73.17,1.37.52,1.94.35.57.84,1.02,1.49,1.35.65.33,1.35.49,2.1.49,1.15,0,2.08-.35,2.81-1.04.72-.69,1.09-1.53,1.09-2.52,0-.56-.13-1.1-.39-1.62-.26-.52-.66-.96-1.21-1.31,1.2.01,2.13.15,2.78.42.65.27,1.15.64,1.48,1.1.26.36.39.77.39,1.24,0,.59-.21,1.08-.63,1.48-.26.24-.69.43-1.26.56l.12,1.48c.93-.12,1.67-.49,2.2-1.09M1085.43,588.46c.48.47.72,1.03.72,1.7s-.24,1.23-.72,1.68-1.13.67-1.97.67-1.55-.22-2.05-.67c-.5-.45-.76-.99-.76-1.61,0-.43.12-.84.36-1.23.24-.39.6-.69,1.06-.91.46-.21.95-.33,1.46-.33.78,0,1.41.23,1.88.7"/>
    <line class="st3" x1="550.41" y1="961.76" x2="430.93" y2="1013.74"/>
    <line class="st3" x1="550.41" y1="1013.74" x2="430.93" y2="961.76"/>
  </g>
  <polygon class="st13" points="432.44 792.33 432.44 792.75 504.1 792.75 504.1 930.71 505.01 931.16 505.01 792.33 432.44 792.33"/>
  <polygon class="st13" points="432.44 792.75 432.44 895.25 448.37 903.13 488.18 922.83 504.1 930.71 504.1 792.75 432.44 792.75"/>
  <g class="st4">
    <path class="st13" d="M432.44,951.99v-56.74l15.92,7.88v28.26c0,1.81,1.47,3.28,3.28,3.28h33.25c1.82,0,3.29-1.48,3.29-3.28v-8.56l15.93,7.88v21.27h-71.66Z"/>
    <path class="st13" d="M448.37,931.39v-28.26l39.81,19.7v8.56c0,1.81-1.47,3.29-3.29,3.29h-33.25c-1.81,0-3.28-1.48-3.28-3.29"/>
  </g>
  <polyline class="st1" points="504.1 930.71 504.1 951.99 432.44 951.99 432.44 895.25"/>
  <polyline class="st1" points="488.18 922.83 504.1 930.71 505.01 931.16 505.01 792.33 432.44 792.33 432.44 792.75 432.44 895.25 448.37 903.13"/>
  <line class="st1" x1="484.89" y1="934.67" x2="451.64" y2="934.67"/>
  <g class="st7">
    <path class="st1" d="M451.65,934.67c-1.81,0-3.28-1.48-3.28-3.29"/>
    <path class="st1" d="M488.18,931.39c0,1.81-1.47,3.29-3.29,3.29"/>
  </g>
  <polyline class="st1" points="488.18 931.39 488.18 922.83 448.37 903.13 448.37 931.39"/>
  <g class="st5">
    <path class="st13" d="M537.71,1020.31c-.01,7.71-.01,15.41-.02,23.11,0,8.9-6.4,16.1-14.3,16.09-7.9,0-14.28-7.21-14.28-16.11,0-7.7.01-15.41.01-23.11,9.54,0,19.06,0,28.59.02"/>
  </g>
  <g class="st6">
    <path class="st3" d="M537.71,1020.31c-.01,7.71-.01,15.41-.02,23.11,0,8.9-6.4,16.1-14.3,16.09-7.9,0-14.28-7.21-14.28-16.11,0-7.7.01-15.41.01-23.11,9.54,0,19.06,0,28.59.02Z"/>
  </g>
  <rect class="st13" x="439.08" y="1020.16" width="62.49" height="63.21"/>
  <polyline class="st3" points="501.57 1020.16 501.57 1083.37 495.4 1083.37"/>
  <line class="st3" x1="501.57" y1="1020.16" x2="439.58" y2="1020.16"/>
  <line class="st3" x1="439.08" y1="1021.2" x2="439.08" y2="1082.81"/>
  <polyline class="st3" points="439.08 1021.2 439.08 1020.16 439.58 1020.16"/>
  <polyline class="st3" points="440.02 1083.37 439.08 1083.37 439.08 1082.81"/>
  <line class="st3" x1="440.02" y1="1083.37" x2="495.4" y2="1083.37"/>
  <line class="st3" x1="471.28" y1="1020.16" x2="471.28" y2="1037.71"/>
  <g class="st12">
    <path class="st3" d="M475.12,1037.63c0-2.17-1.76-3.93-3.93-3.93s-3.93,1.76-3.93,3.93,1.76,3.93,3.93,3.93,3.93-1.76,3.93-3.93Z"/>
    <path class="st3" d="M475.12,1037.63c0-2.17-1.76-3.93-3.93-3.93s-3.93,1.76-3.93,3.93,1.76,3.93,3.93,3.93,3.93-1.76,3.93-3.93Z"/>
  </g>
  <g class="st9">
    <path class="st13" d="M464.66,1140.19h-15.49c-.59,0-1.07-.35-1.07-.78v-34.14c0-.43.48-.78,1.07-.78h15.49c.59,0,1.07.35,1.07.78v34.14c0,.43-.48.78-1.07.78M457.19,1125.14c1.55,0,2.8-1.25,2.8-2.8s-1.25-2.81-2.8-2.81-2.81,1.26-2.81,2.81,1.26,2.8,2.81,2.8"/>
    <path class="st13" d="M445.49,1122.34c0,1.16-.95,2.1-2.1,2.1s-2.11-.94-2.11-2.1.94-2.11,2.11-2.11,2.1.95,2.1,2.11"/>
    <path class="st13" d="M457.19,1123.84c-.83,0-1.51-.67-1.51-1.5s.68-1.51,1.51-1.51,1.51.67,1.51,1.51-.68,1.5-1.51,1.5"/>
    <path class="st13" d="M458.7,1122.34c0-.84-.68-1.51-1.51-1.51s-1.51.67-1.51,1.51.68,1.5,1.51,1.5,1.51-.67,1.51-1.5M457.19,1119.53c1.55,0,2.8,1.26,2.8,2.81s-1.25,2.8-2.8,2.8-2.81-1.25-2.81-2.8,1.26-2.81,2.81-2.81"/>
    <path class="st13" d="M466.78,1104.49v35.71c0,.34-.47.63-1.06.63h-26.45v-37.12h26.45c.59,0,1.06.35,1.06.78M465.73,1139.41v-34.14c0-.43-.48-.78-1.07-.78h-15.5c-.59,0-1.07.35-1.07.78v34.14c0,.43.48.79,1.07.79h15.5c.59,0,1.07-.36,1.07-.79M445.49,1122.34c0-1.17-.95-2.11-2.1-2.11s-2.11.95-2.11,2.11.94,2.1,2.11,2.1,2.1-.94,2.1-2.1"/>
  </g>
  <g class="st8">
    <path class="st3" d="M443.39,1120.23c1.15,0,2.1.95,2.1,2.11s-.95,2.1-2.1,2.1-2.11-.94-2.11-2.1.95-2.11,2.11-2.11Z"/>
    <path class="st3" d="M457.19,1119.53c1.55,0,2.8,1.26,2.8,2.81s-1.25,2.8-2.8,2.8-2.81-1.25-2.81-2.8,1.26-2.81,2.81-2.81Z"/>
    <path class="st3" d="M457.19,1120.83c.83,0,1.51.67,1.51,1.51s-.68,1.5-1.51,1.5-1.51-.67-1.51-1.5.68-1.51,1.51-1.51Z"/>
    <path class="st3" d="M449.17,1140.19h15.5c.59,0,1.07-.35,1.07-.78v-34.14c0-.43-.48-.78-1.07-.78h-15.5c-.59,0-1.07.35-1.07.78v34.14c0,.43.48.78,1.07.78Z"/>
  </g>
  <line class="st3" x1="447.46" y1="1103.7" x2="439.28" y2="1103.7"/>
  <g class="st11">
    <path class="st3" d="M439.28,1140.82h26.45c.59,0,1.06-.29,1.06-.63v-35.7c0-.43-.47-.79-1.06-.79h-8.38"/>
  </g>
  <line class="st3" x1="447.46" y1="1103.7" x2="457.34" y2="1103.7"/>
  <line class="st3" x1="439.28" y1="1103.7" x2="439.28" y2="1140.82"/>
  <polygon class="st13" points="693.69 866.58 697.4 872.66 702.8 877.38 703.48 877.72 703.14 878.4 702.13 879.41 700.78 879.75 699.09 879.07 697.4 878.06 697.06 878.06 696.73 878.06 696.39 878.06 695.71 878.06 695.38 878.4 702.8 882.11 710.9 883.46 719 882.11 726.43 878.4 726.43 878.06 726.09 878.06 725.42 878.06 725.08 878.06 724.74 878.06 724.4 878.06 722.72 879.07 721.03 879.75 719.68 879.41 718.67 878.4 718.67 877.72 719 877.38 724.4 872.66 728.12 866.58 693.69 866.58"/>
  <polygon class="st13" points="645.76 866.58 649.47 872.66 655.21 877.38 655.55 877.72 655.55 878.4 654.54 879.41 652.85 879.75 651.16 879.07 649.81 878.06 649.47 878.06 648.8 878.06 648.46 878.06 648.12 878.06 647.78 878.06 647.45 878.4 654.87 882.11 662.97 883.46 671.41 882.11 678.5 878.4 678.5 878.06 678.16 878.06 677.82 878.06 677.15 878.06 676.81 878.06 676.47 878.06 674.79 879.07 673.1 879.75 671.75 879.41 670.74 878.4 670.74 877.72 671.07 877.38 676.81 872.66 680.19 866.58 645.76 866.58"/>
  <polygon class="st13" points="728.12 802.79 693.69 802.79 680.19 802.79 645.76 802.79 639.35 802.79 639.35 866.58 645.76 866.58 680.19 866.58 693.69 866.58 728.12 866.58 734.87 866.58 734.87 802.79 728.12 802.79"/>
  <polygon class="st13" points="710.9 785.91 702.8 787.26 695.38 790.98 695.71 791.31 696.39 791.31 696.73 791.31 697.06 791.31 697.4 791.31 699.09 790.3 700.78 789.63 702.13 789.96 703.14 790.98 703.48 791.65 702.8 791.99 697.4 796.71 693.69 802.79 728.12 802.79 724.4 796.71 719 791.99 718.67 791.65 718.67 790.98 719.68 789.96 721.03 789.63 722.72 790.3 724.4 791.31 724.74 791.31 725.08 791.31 725.42 791.31 726.09 791.31 726.43 791.31 726.43 790.98 719 787.26 710.9 785.91"/>
  <polygon class="st13" points="662.97 785.91 654.87 787.26 647.45 790.98 647.78 791.31 648.12 791.31 648.46 791.31 648.8 791.31 649.47 791.31 649.81 791.31 651.16 790.3 652.85 789.63 654.53 789.96 655.55 790.98 655.55 791.65 655.21 791.99 649.47 796.71 645.76 802.79 680.19 802.79 676.81 796.71 671.07 791.99 670.74 791.65 670.74 790.98 671.75 789.96 673.1 789.63 674.79 790.3 676.47 791.31 676.81 791.31 677.15 791.31 677.82 791.31 678.16 791.31 678.5 791.31 678.5 790.98 671.41 787.26 662.97 785.91"/>
  <line class="st3" x1="724.4" y1="791.31" x2="724.74" y2="791.31"/>
  <line class="st3" x1="724.74" y1="791.31" x2="725.08" y2="791.31"/>
  <line class="st3" x1="726.09" y1="791.31" x2="725.42" y2="791.31"/>
  <line class="st3" x1="725.42" y1="791.31" x2="725.08" y2="791.31"/>
  <line class="st3" x1="726.43" y1="790.98" x2="726.43" y2="791.31"/>
  <line class="st3" x1="726.43" y1="791.31" x2="726.09" y2="791.31"/>
  <line class="st3" x1="718.67" y1="790.98" x2="719.68" y2="789.96"/>
  <line class="st3" x1="719.68" y1="789.96" x2="721.03" y2="789.63"/>
  <line class="st3" x1="721.03" y1="789.63" x2="722.72" y2="790.3"/>
  <line class="st3" x1="722.72" y1="790.3" x2="724.4" y2="791.31"/>
  <line class="st3" x1="719" y1="791.99" x2="718.67" y2="791.65"/>
  <line class="st3" x1="718.67" y1="791.65" x2="718.67" y2="790.98"/>
  <line class="st3" x1="719" y1="791.99" x2="724.4" y2="796.71"/>
  <line class="st3" x1="724.4" y1="796.71" x2="728.12" y2="802.79"/>
  <line class="st3" x1="697.4" y1="791.31" x2="697.06" y2="791.31"/>
  <line class="st3" x1="697.06" y1="791.31" x2="696.73" y2="791.31"/>
  <line class="st3" x1="695.71" y1="791.31" x2="696.39" y2="791.31"/>
  <line class="st3" x1="696.39" y1="791.31" x2="696.73" y2="791.31"/>
  <line class="st3" x1="695.38" y1="790.98" x2="695.71" y2="791.31"/>
  <line class="st3" x1="703.14" y1="790.98" x2="702.13" y2="789.96"/>
  <line class="st3" x1="702.13" y1="789.96" x2="700.78" y2="789.63"/>
  <line class="st3" x1="700.78" y1="789.63" x2="699.09" y2="790.3"/>
  <line class="st3" x1="699.09" y1="790.3" x2="697.4" y2="791.31"/>
  <line class="st3" x1="702.8" y1="791.99" x2="703.48" y2="791.65"/>
  <line class="st3" x1="703.48" y1="791.65" x2="703.14" y2="790.98"/>
  <line class="st3" x1="702.8" y1="791.99" x2="697.4" y2="796.71"/>
  <line class="st3" x1="697.4" y1="796.71" x2="693.69" y2="802.79"/>
  <line class="st3" x1="726.43" y1="790.98" x2="719" y2="787.26"/>
  <line class="st3" x1="719" y1="787.26" x2="710.9" y2="785.91"/>
  <line class="st3" x1="710.9" y1="785.91" x2="702.8" y2="787.26"/>
  <line class="st3" x1="702.8" y1="787.26" x2="695.38" y2="790.98"/>
  <line class="st3" x1="724.4" y1="878.06" x2="724.74" y2="878.06"/>
  <line class="st3" x1="724.74" y1="878.06" x2="725.08" y2="878.06"/>
  <line class="st3" x1="726.09" y1="878.06" x2="725.42" y2="878.06"/>
  <line class="st3" x1="725.42" y1="878.06" x2="725.08" y2="878.06"/>
  <line class="st3" x1="726.43" y1="878.4" x2="726.43" y2="878.06"/>
  <line class="st3" x1="726.43" y1="878.06" x2="726.09" y2="878.06"/>
  <line class="st3" x1="718.67" y1="878.4" x2="719.68" y2="879.41"/>
  <line class="st3" x1="719.68" y1="879.41" x2="721.03" y2="879.75"/>
  <line class="st3" x1="721.03" y1="879.75" x2="722.72" y2="879.07"/>
  <line class="st3" x1="722.72" y1="879.07" x2="724.4" y2="878.06"/>
  <line class="st3" x1="719" y1="877.38" x2="718.67" y2="877.72"/>
  <line class="st3" x1="718.67" y1="877.72" x2="718.67" y2="878.4"/>
  <line class="st3" x1="719" y1="877.38" x2="724.4" y2="872.66"/>
  <line class="st3" x1="724.4" y1="872.66" x2="728.12" y2="866.58"/>
  <line class="st3" x1="697.4" y1="878.06" x2="697.06" y2="878.06"/>
  <line class="st3" x1="697.06" y1="878.06" x2="696.73" y2="878.06"/>
  <line class="st3" x1="695.71" y1="878.06" x2="696.39" y2="878.06"/>
  <line class="st3" x1="696.39" y1="878.06" x2="696.73" y2="878.06"/>
  <line class="st3" x1="695.38" y1="878.4" x2="695.71" y2="878.06"/>
  <line class="st3" x1="703.14" y1="878.4" x2="702.13" y2="879.41"/>
  <line class="st3" x1="702.13" y1="879.41" x2="700.78" y2="879.75"/>
  <line class="st3" x1="700.78" y1="879.75" x2="699.09" y2="879.07"/>
  <line class="st3" x1="699.09" y1="879.07" x2="697.4" y2="878.06"/>
  <line class="st3" x1="702.8" y1="877.38" x2="703.48" y2="877.72"/>
  <line class="st3" x1="703.48" y1="877.72" x2="703.14" y2="878.4"/>
  <line class="st3" x1="702.8" y1="877.38" x2="697.4" y2="872.66"/>
  <line class="st3" x1="697.4" y1="872.66" x2="693.69" y2="866.58"/>
  <line class="st3" x1="726.43" y1="878.4" x2="719" y2="882.11"/>
  <line class="st3" x1="719" y1="882.11" x2="710.9" y2="883.46"/>
  <line class="st3" x1="710.9" y1="883.46" x2="702.8" y2="882.11"/>
  <line class="st3" x1="702.8" y1="882.11" x2="695.38" y2="878.4"/>
  <line class="st3" x1="734.87" y1="866.58" x2="734.87" y2="802.79"/>
  <line class="st3" x1="649.81" y1="791.31" x2="649.47" y2="791.31"/>
  <line class="st3" x1="649.47" y1="791.31" x2="648.8" y2="791.31"/>
  <line class="st3" x1="648.12" y1="791.31" x2="648.46" y2="791.31"/>
  <line class="st3" x1="648.46" y1="791.31" x2="648.8" y2="791.31"/>
  <line class="st3" x1="647.45" y1="790.98" x2="647.79" y2="791.31"/>
  <line class="st3" x1="647.79" y1="791.31" x2="648.12" y2="791.31"/>
  <line class="st3" x1="655.55" y1="790.98" x2="654.54" y2="789.96"/>
  <line class="st3" x1="654.54" y1="789.96" x2="652.85" y2="789.63"/>
  <line class="st3" x1="652.85" y1="789.63" x2="651.16" y2="790.3"/>
  <line class="st3" x1="651.16" y1="790.3" x2="649.81" y2="791.31"/>
  <line class="st3" x1="655.21" y1="791.99" x2="655.55" y2="791.65"/>
  <line class="st3" x1="655.55" y1="791.65" x2="655.55" y2="790.98"/>
  <line class="st3" x1="655.21" y1="791.99" x2="649.47" y2="796.71"/>
  <line class="st3" x1="649.47" y1="796.71" x2="645.76" y2="802.79"/>
  <line class="st3" x1="676.47" y1="791.31" x2="676.81" y2="791.31"/>
  <line class="st3" x1="676.81" y1="791.31" x2="677.15" y2="791.31"/>
  <line class="st3" x1="678.16" y1="791.31" x2="677.83" y2="791.31"/>
  <line class="st3" x1="677.83" y1="791.31" x2="677.15" y2="791.31"/>
  <line class="st3" x1="678.5" y1="790.98" x2="678.5" y2="791.31"/>
  <line class="st3" x1="678.5" y1="791.31" x2="678.16" y2="791.31"/>
  <line class="st3" x1="670.74" y1="790.98" x2="671.75" y2="789.96"/>
  <line class="st3" x1="671.75" y1="789.96" x2="673.1" y2="789.63"/>
  <line class="st3" x1="673.1" y1="789.63" x2="674.79" y2="790.3"/>
  <line class="st3" x1="674.79" y1="790.3" x2="676.47" y2="791.31"/>
  <line class="st3" x1="671.07" y1="791.99" x2="670.74" y2="791.65"/>
  <line class="st3" x1="670.74" y1="791.65" x2="670.74" y2="790.98"/>
  <line class="st3" x1="671.07" y1="791.99" x2="676.81" y2="796.71"/>
  <line class="st3" x1="676.81" y1="796.71" x2="680.19" y2="802.79"/>
  <line class="st3" x1="647.45" y1="790.98" x2="654.87" y2="787.26"/>
  <line class="st3" x1="654.87" y1="787.26" x2="662.97" y2="785.91"/>
  <line class="st3" x1="662.97" y1="785.91" x2="671.41" y2="787.26"/>
  <line class="st3" x1="671.41" y1="787.26" x2="678.5" y2="790.98"/>
  <line class="st3" x1="649.81" y1="878.06" x2="649.47" y2="878.06"/>
  <line class="st3" x1="649.47" y1="878.06" x2="648.8" y2="878.06"/>
  <line class="st3" x1="648.12" y1="878.06" x2="648.46" y2="878.06"/>
  <line class="st3" x1="648.46" y1="878.06" x2="648.8" y2="878.06"/>
  <line class="st3" x1="647.45" y1="878.4" x2="647.79" y2="878.06"/>
  <line class="st3" x1="647.79" y1="878.06" x2="648.12" y2="878.06"/>
  <line class="st3" x1="655.55" y1="878.4" x2="654.54" y2="879.41"/>
  <line class="st3" x1="654.54" y1="879.41" x2="652.85" y2="879.75"/>
  <line class="st3" x1="652.85" y1="879.75" x2="651.16" y2="879.07"/>
  <line class="st3" x1="651.16" y1="879.07" x2="649.81" y2="878.06"/>
  <line class="st3" x1="655.21" y1="877.38" x2="655.55" y2="877.72"/>
  <line class="st3" x1="655.55" y1="877.72" x2="655.55" y2="878.4"/>
  <line class="st3" x1="655.21" y1="877.38" x2="649.47" y2="872.66"/>
  <line class="st3" x1="649.47" y1="872.66" x2="645.76" y2="866.58"/>
  <line class="st3" x1="676.47" y1="878.06" x2="676.81" y2="878.06"/>
  <line class="st3" x1="676.81" y1="878.06" x2="677.15" y2="878.06"/>
  <line class="st3" x1="678.16" y1="878.06" x2="677.83" y2="878.06"/>
  <line class="st3" x1="677.83" y1="878.06" x2="677.15" y2="878.06"/>
  <line class="st3" x1="678.5" y1="878.4" x2="678.5" y2="878.06"/>
  <line class="st3" x1="678.5" y1="878.06" x2="678.16" y2="878.06"/>
  <line class="st3" x1="670.74" y1="878.4" x2="671.75" y2="879.41"/>
  <line class="st3" x1="671.75" y1="879.41" x2="673.1" y2="879.75"/>
  <line class="st3" x1="673.1" y1="879.75" x2="674.79" y2="879.07"/>
  <line class="st3" x1="674.79" y1="879.07" x2="676.47" y2="878.06"/>
  <line class="st3" x1="671.07" y1="877.38" x2="670.74" y2="877.72"/>
  <line class="st3" x1="670.74" y1="877.72" x2="670.74" y2="878.4"/>
  <line class="st3" x1="671.07" y1="877.38" x2="676.81" y2="872.66"/>
  <line class="st3" x1="676.81" y1="872.66" x2="680.19" y2="866.58"/>
  <line class="st3" x1="647.45" y1="878.4" x2="654.87" y2="882.11"/>
  <line class="st3" x1="654.87" y1="882.11" x2="662.97" y2="883.46"/>
  <line class="st3" x1="662.97" y1="883.46" x2="671.41" y2="882.11"/>
  <line class="st3" x1="671.41" y1="882.11" x2="678.5" y2="878.4"/>
  <line class="st3" x1="639.35" y1="866.58" x2="639.35" y2="802.79"/>
  <polyline class="st3" points="639.35 802.79 645.76 802.79 680.19 802.79 693.69 802.79 728.12 802.79 734.87 802.79"/>
  <polyline class="st3" points="734.87 866.58 728.12 866.58 693.69 866.58 680.19 866.58 645.76 866.58 639.35 866.58"/>
  <line class="st3" x1="728.67" y1="1058.84" x2="718" y2="1058.84"/>
  <rect class="st3" x="687.02" y="1038.05" width="47.78" height="117.89"/>
  <line class="st3" x1="702.02" y1="1127.9" x2="702.02" y2="1117.47"/>
  <line class="st3" x1="721.63" y1="1127.9" x2="721.63" y2="1117.47"/>
  <line class="st3" x1="716.49" y1="1122.75" x2="726.92" y2="1122.75"/>
  <line class="st3" x1="696.74" y1="1122.75" x2="707.17" y2="1122.75"/>
  <rect class="st3" x="692.14" y="1110.93" width="39.36" height="22.95"/>
  <rect class="st3" x="697.88" y="1045.64" width="26.55" height="26.54"/>
  <rect class="st3" x="691.28" y="1038.9" width="39.75" height="39.89"/>
  <g class="st10">
    <path class="st13" d="M530.4,947.01c-9.56,0-17.32-7.75-17.32-17.31s7.75-17.31,17.32-17.31,17.31,7.75,17.31,17.31-7.75,17.31-17.31,17.31"/>
    <path class="st1" d="M530.4,947.01c-9.56,0-17.32-7.75-17.32-17.31s7.75-17.31,17.32-17.31,17.31,7.75,17.31,17.31-7.75,17.31-17.31,17.31Z"/>
  </g>
  <rect class="st15" x="738.24" y="1095.31" width="29.03" height="75.38"/>
  <rect class="st15" x="685.25" y="1155.02" width="56.33" height="6.69"/>
</svg>