<?xml version="1.0" encoding="UTF-8"?>
<svg id="Layer_1" xmlns="http://www.w3.org/2000/svg" xmlns:xlink="http://www.w3.org/1999/xlink" version="1.1" viewBox="0 0 1200 1697.14">
  <!-- Generator: Adobe Illustrator 29.6.0, SVG Export Plug-In . SVG Version: 2.1.1 Build 207)  -->
  <defs>
    <style>
      .st0, .st1, .st2, .st3 {
        fill: none;
      }

      .st1 {
        stroke: #0d0e1c;
      }

      .st1, .st2, .st3 {
        stroke-linecap: round;
        stroke-linejoin: round;
      }

      .st1, .st3 {
        stroke-width: .08px;
      }

      .st2 {
        stroke-width: .14px;
      }

      .st2, .st3 {
        stroke: #000;
      }

      .st4 {
        clip-path: url(#clippath-1);
      }

      .st5 {
        clip-path: url(#clippath-3);
      }

      .st6 {
        clip-path: url(#clippath-4);
      }

      .st7 {
        clip-path: url(#clippath-2);
      }

      .st8 {
        clip-path: url(#clippath-7);
      }

      .st9 {
        clip-path: url(#clippath-6);
      }

      .st10 {
        clip-path: url(#clippath-9);
      }

      .st11 {
        clip-path: url(#clippath-8);
      }

      .st12 {
        clip-path: url(#clippath-5);
      }

      .st13 {
        fill: #fff;
      }

      .st14 {
        fill: #ece9e5;
      }

      .st15 {
        fill: #302c35;
      }

      .st16 {
        clip-path: url(#clippath);
      }
    </style>
    <clipPath id="clippath">
      <rect class="st0" x="734.25" y="928.32" width="72.58" height="159.65"/>
    </clipPath>
    <clipPath id="clippath-1">
      <rect class="st0" x="217.62" y="441.48" width="764.77" height="814.19"/>
    </clipPath>
    <clipPath id="clippath-2">
      <rect class="st0" x="702.75" y="820.22" width="28.6" height="39.22"/>
    </clipPath>
    <clipPath id="clippath-3">
      <rect class="st0" x="217.62" y="441.48" width="764.77" height="814.19"/>
    </clipPath>
    <clipPath id="clippath-4">
      <rect class="st0" x="217.62" y="441.48" width="764.77" height="814.19"/>
    </clipPath>
    <clipPath id="clippath-5">
      <rect class="st0" x="774.99" y="739.01" width="26.88" height="36.26"/>
    </clipPath>
    <clipPath id="clippath-6">
      <rect class="st0" x="217.62" y="441.48" width="764.77" height="814.19"/>
    </clipPath>
    <clipPath id="clippath-7">
      <rect class="st0" x="217.62" y="441.48" width="764.77" height="814.19"/>
    </clipPath>
    <clipPath id="clippath-8">
      <rect class="st0" x="217.62" y="441.48" width="764.77" height="814.19"/>
    </clipPath>
    <clipPath id="clippath-9">
      <rect class="st0" x="217.62" y="441.48" width="764.77" height="814.19"/>
    </clipPath>
  </defs>
  <rect class="st14" x="464.07" y="581.29" width="363.52" height="609.57"/>
  <rect class="st14" x="494.45" y="473.95" width="211.97" height="154.93"/>
  <rect class="st14" x="352.34" y="821.27" width="184.46" height="249.43"/>
  <rect class="st13" x="563.41" y="1174.66" width="210.27" height="16.2"/>
  <rect class="st13" x="464.07" y="815.03" width="16.2" height="231.71"/>
  <rect class="st13" x="464.07" y="615.38" width="16.2" height="82.02"/>
  <rect class="st13" x="487.36" y="481.89" width="203.19" height="55.86"/>
  <rect class="st13" x="498.75" y="513.78" width="59.82" height="47.59"/>
  <rect class="st15" x="765.48" y="1144.28" width="62.11" height="15.86"/>
  <rect class="st15" x="690.55" y="581.29" width="137.03" height="16.2"/>
  <rect class="st15" x="810.04" y="677.82" width="17.55" height="466.46"/>
  <rect class="st15" x="352.34" y="821.27" width="4.05" height="249.43"/>
  <rect class="st15" x="354.37" y="821.1" width="109.7" height="4.05"/>
  <rect class="st15" x="354.37" y="1066.65" width="109.7" height="4.05"/>
  <rect class="st15" x="464.07" y="473.95" width="46.58" height="141.43"/>
  <rect class="st15" x="510.65" y="473.95" width="195.77" height="15.87"/>
  <rect class="st15" x="690.55" y="489.82" width="15.86" height="91.47"/>
  <rect class="st15" x="682.45" y="726.42" width="125.9" height="5.4"/>
  <rect class="st15" x="682.45" y="731.82" width="6.41" height="8.78"/>
  <rect class="st15" x="687.51" y="860.76" width="120.83" height="5.4"/>
  <rect class="st15" x="803.28" y="726.42" width="8.58" height="139.74"/>
  <rect class="st15" x="690.55" y="917.8" width="119.48" height="8.1"/>
  <rect class="st15" x="682.45" y="866.16" width="8.1" height="59.74"/>
  <rect class="st15" x="550.48" y="561.37" width="8.1" height="28.01"/>
  <rect class="st15" x="510.65" y="581.29" width="39.83" height="8.1"/>
  <rect class="st15" x="510.65" y="561.37" width="39.83" height="8.1"/>
  <rect class="st15" x="687.51" y="859.75" width="115.77" height="1.01"/>
  <rect class="st15" x="682.45" y="811.48" width="6.24" height="56.33"/>
  <rect class="st15" x="687.51" y="731.82" width="115.77" height="1.35"/>
  <rect class="st15" x="801.93" y="733.17" width="1.35" height="127.58"/>
  <rect class="st15" x="464.07" y="697.4" width="46.58" height="152.23"/>
  <rect class="st15" x="765.48" y="1160.15" width="62.11" height="30.72"/>
  <rect class="st15" x="464.07" y="1046.74" width="46.58" height="144.12"/>
  <rect class="st15" x="810.04" y="591.8" width="17.55" height="14.46"/>
  <rect class="st15" x="502.71" y="1144.28" width="65.65" height="46.58"/>
  <polygon class="st13" points="734.25 1087.97 806.83 1087.97 806.83 1087.55 735.17 1087.55 735.17 949.59 734.25 949.14 734.25 1087.97"/>
  <g class="st16">
    <path class="st13" d="M806.83,985.05v102.5h-71.66v-137.97l15.93,7.88c36.07,17.85,39.46,19.53,39.77,19.68l.04.02,15.92,7.88Z"/>
    <path class="st13" d="M806.83,928.32v56.74l-15.92-7.88v-28.26c0-1.82-1.47-3.28-3.29-3.28h-33.25c-1.81,0-3.27,1.47-3.27,3.28v8.56l-15.93-7.88v-21.27h71.66Z"/>
    <path class="st13" d="M790.9,948.91v28.26l-.04-.02c-.31-.15-3.7-1.82-39.77-19.68v-8.56c0-1.81,1.47-3.28,3.28-3.28h33.25c1.82,0,3.29,1.47,3.29,3.28"/>
    <path class="st13" d="M790.9,977.17l-.04-.02.04.02Z"/>
  </g>
  <polyline class="st1" points="735.17 949.59 735.17 928.31 806.83 928.31 806.83 985.05"/>
  <polyline class="st1" points="751.09 957.47 735.17 949.59 734.25 949.14 734.25 1087.97 806.83 1087.97 806.83 1087.55 806.83 985.05 790.9 977.17 790.87 977.15"/>
  <line class="st1" x1="754.37" y1="945.63" x2="787.62" y2="945.63"/>
  <g class="st4">
    <path class="st1" d="M787.62,945.63c1.82,0,3.29,1.47,3.29,3.28"/>
    <path class="st1" d="M751.09,948.91c0-1.81,1.47-3.28,3.28-3.28"/>
    <path class="st1" d="M751.09,948.91v8.56c36.08,17.85,39.47,19.53,39.77,19.68l.04.02v-28.26"/>
  </g>
  <g class="st7">
    <path class="st13" d="M702.75,859.42c0-7.7.01-15.41.01-23.11,0-8.9,6.4-16.09,14.3-16.09,7.9,0,14.3,7.21,14.28,16.11,0,7.7,0,15.41-.02,23.11-9.53,0-19.05,0-28.58-.02"/>
  </g>
  <g class="st5">
    <path class="st3" d="M702.75,859.42c0-7.7.01-15.41.01-23.11,0-8.9,6.4-16.09,14.3-16.09,7.9,0,14.3,7.21,14.28,16.11,0,7.7,0,15.41-.02,23.11-9.53,0-19.05,0-28.58-.02Z"/>
  </g>
  <rect class="st13" x="739.47" y="797.44" width="62.49" height="61.83"/>
  <polyline class="st3" points="739.47 859.27 739.47 797.44 746.87 797.44"/>
  <line class="st3" x1="739.47" y1="859.27" x2="801.47" y2="859.27"/>
  <line class="st3" x1="801.96" y1="858.25" x2="801.96" y2="797.99"/>
  <polyline class="st3" points="801.96 858.25 801.96 859.27 801.47 859.27"/>
  <polyline class="st3" points="801.04 797.44 801.96 797.44 801.96 797.99"/>
  <line class="st3" x1="801.04" y1="797.44" x2="746.87" y2="797.44"/>
  <line class="st3" x1="770.47" y1="859.27" x2="770.47" y2="842.1"/>
  <g class="st6">
    <path class="st3" d="M766.71,842.18c0,2.12,1.72,3.84,3.84,3.84s3.84-1.72,3.84-3.84-1.72-3.84-3.84-3.84-3.84,1.72-3.84,3.84Z"/>
    <path class="st3" d="M766.71,842.18c0,2.12,1.72,3.84,3.84,3.84s3.84-1.72,3.84-3.84-1.72-3.84-3.84-3.84-3.84,1.72-3.84,3.84Z"/>
  </g>
  <g class="st12">
    <path class="st13" d="M777.07,739.62h15.14c.58,0,1.04.35,1.04.76v33.35c0,.42-.46.77-1.04.77h-15.14c-.58,0-1.04-.35-1.04-.77v-33.35c0-.42.47-.76,1.04-.76M784.37,754.32c-1.51,0-2.73,1.22-2.73,2.74s1.22,2.73,2.73,2.73,2.75-1.22,2.75-2.73-1.23-2.74-2.75-2.74"/>
    <path class="st13" d="M795.81,757.06c0-1.14.92-2.06,2.05-2.06s2.06.92,2.06,2.06-.92,2.05-2.06,2.05-2.05-.92-2.05-2.05"/>
    <path class="st13" d="M784.37,755.59c.81,0,1.47.65,1.47,1.47s-.66,1.46-1.47,1.46-1.47-.65-1.47-1.46.66-1.47,1.47-1.47"/>
    <path class="st13" d="M784.37,758.53c.81,0,1.47-.65,1.47-1.46s-.66-1.47-1.47-1.47-1.47.65-1.47,1.47.66,1.46,1.47,1.46M787.12,757.06c0,1.51-1.23,2.73-2.75,2.73s-2.73-1.22-2.73-2.73,1.22-2.74,2.73-2.74,2.75,1.22,2.75,2.74"/>
    <path class="st13" d="M795.81,757.07c0,1.13.92,2.05,2.05,2.05s2.07-.92,2.07-2.05-.92-2.06-2.07-2.06-2.05.92-2.05,2.06M776.03,773.74c0,.42.47.76,1.04.76h15.14c.58,0,1.03-.35,1.03-.76v-33.35c0-.42-.46-.76-1.03-.76h-15.14c-.58,0-1.04.35-1.04.76v33.35ZM793.88,775.27h-17.85c-.58,0-1.04-.35-1.04-.76v-34.88c0-.34.47-.62,1.04-.62h25.84v36.26h-7.99Z"/>
  </g>
  <g class="st9">
    <path class="st3" d="M797.86,759.12c-1.13,0-2.05-.92-2.05-2.05s.92-2.06,2.05-2.06,2.06.92,2.06,2.06-.92,2.05-2.06,2.05Z"/>
    <path class="st3" d="M784.37,759.8c-1.51,0-2.73-1.22-2.73-2.73s1.22-2.74,2.73-2.74,2.75,1.22,2.75,2.74-1.23,2.73-2.75,2.73Z"/>
    <path class="st3" d="M784.37,758.53c-.81,0-1.47-.65-1.47-1.46s.66-1.47,1.47-1.47,1.47.65,1.47,1.47-.66,1.46-1.47,1.46Z"/>
    <path class="st3" d="M792.21,739.62h-15.14c-.58,0-1.04.35-1.04.76v33.35c0,.42.47.77,1.04.77h15.14c.58,0,1.03-.35,1.03-.77v-33.35c0-.42-.46-.76-1.03-.76Z"/>
  </g>
  <line class="st3" x1="793.88" y1="775.27" x2="801.87" y2="775.27"/>
  <g class="st8">
    <path class="st3" d="M801.87,739h-25.84c-.58,0-1.05.28-1.05.62v34.88c0,.42.47.76,1.05.76h8.19"/>
  </g>
  <line class="st3" x1="793.88" y1="775.27" x2="784.22" y2="775.27"/>
  <line class="st3" x1="801.87" y1="775.27" x2="801.87" y2="739"/>
  <line class="st3" x1="608.53" y1="497.61" x2="608.53" y2="508.29"/>
  <line class="st3" x1="682.04" y1="523.58" x2="671.6" y2="523.58"/>
  <line class="st3" x1="682.04" y1="503.97" x2="671.6" y2="503.97"/>
  <line class="st3" x1="676.89" y1="509.12" x2="676.89" y2="498.69"/>
  <line class="st3" x1="676.89" y1="528.87" x2="676.89" y2="518.44"/>
  <rect class="st3" x="665.07" y="494.1" width="22.95" height="39.36"/>
  <rect class="st3" x="595.33" y="501.86" width="26.55" height="26.55"/>
  <rect class="st3" x="588.59" y="495.26" width="39.89" height="39.75"/>
  <g class="st11">
    <path class="st13" d="M703.38,970.51c-9.6,0-17.38-7.78-17.38-17.38s7.78-17.38,17.38-17.38,17.38,7.78,17.38,17.38-7.78,17.38-17.38,17.38"/>
    <path class="st1" d="M703.38,970.51c-9.6,0-17.38-7.78-17.38-17.38s7.78-17.38,17.38-17.38,17.38,7.78,17.38,17.38-7.78,17.38-17.38,17.38Z"/>
  </g>
  <rect class="st13" x="510.65" y="1048.76" width="47.59" height="95.52"/>
  <polygon class="st13" points="517.66 805.4 521.37 811.48 527.11 816.2 527.45 816.54 527.45 817.22 526.43 818.23 524.74 818.57 523.05 817.89 521.71 816.88 521.37 816.88 520.7 816.88 520.36 816.88 520.02 816.88 519.68 816.88 519.35 817.22 526.77 820.93 534.87 822.28 543.31 820.93 550.4 817.22 550.4 816.88 550.06 816.88 549.72 816.88 549.05 816.88 548.71 816.88 548.37 816.88 546.69 817.89 545 818.57 543.65 818.23 542.63 817.22 542.63 816.54 542.97 816.2 548.71 811.48 552.08 805.4 517.66 805.4"/>
  <polygon class="st13" points="552.08 741.61 517.65 741.61 511.24 741.61 511.24 805.41 517.65 805.41 552.08 805.41 558.8 805.41 558.8 741.61 552.08 741.61"/>
  <polygon class="st13" points="534.87 724.74 526.77 726.09 519.34 729.8 519.68 730.14 520.02 730.14 520.35 730.14 520.69 730.14 521.37 730.14 521.7 730.14 523.05 729.12 524.74 728.45 526.43 728.79 527.44 729.8 527.44 730.47 527.11 730.81 521.37 735.54 517.66 741.61 552.08 741.61 548.71 735.54 542.97 730.81 542.63 730.47 542.63 729.8 543.65 728.79 545 728.45 546.68 729.12 548.37 730.14 548.71 730.14 549.05 730.14 549.72 730.14 550.06 730.14 550.4 730.14 550.4 729.8 543.31 726.09 534.87 724.74"/>
  <line class="st3" x1="558.81" y1="805.4" x2="558.81" y2="741.61"/>
  <line class="st3" x1="521.71" y1="730.13" x2="521.37" y2="730.13"/>
  <line class="st3" x1="521.37" y1="730.13" x2="520.69" y2="730.13"/>
  <line class="st3" x1="520.02" y1="730.13" x2="520.35" y2="730.13"/>
  <line class="st3" x1="520.36" y1="730.13" x2="520.69" y2="730.13"/>
  <line class="st3" x1="519.34" y1="729.8" x2="519.68" y2="730.14"/>
  <line class="st3" x1="519.68" y1="730.13" x2="520.02" y2="730.13"/>
  <line class="st3" x1="527.44" y1="729.8" x2="526.43" y2="728.79"/>
  <line class="st3" x1="526.43" y1="728.78" x2="524.74" y2="728.45"/>
  <line class="st3" x1="524.74" y1="728.45" x2="523.06" y2="729.12"/>
  <line class="st3" x1="523.06" y1="729.12" x2="521.71" y2="730.14"/>
  <line class="st3" x1="527.11" y1="730.81" x2="527.44" y2="730.47"/>
  <line class="st3" x1="527.44" y1="730.47" x2="527.44" y2="729.8"/>
  <line class="st3" x1="527.11" y1="730.81" x2="521.37" y2="735.53"/>
  <line class="st3" x1="521.37" y1="735.54" x2="517.65" y2="741.61"/>
  <line class="st3" x1="548.37" y1="730.13" x2="548.71" y2="730.13"/>
  <line class="st3" x1="548.71" y1="730.13" x2="549.05" y2="730.13"/>
  <line class="st3" x1="550.06" y1="730.13" x2="549.72" y2="730.13"/>
  <line class="st3" x1="549.72" y1="730.13" x2="549.05" y2="730.13"/>
  <line class="st3" x1="550.4" y1="729.8" x2="550.4" y2="730.14"/>
  <line class="st3" x1="550.4" y1="730.13" x2="550.06" y2="730.13"/>
  <line class="st3" x1="542.63" y1="729.8" x2="543.65" y2="728.79"/>
  <line class="st3" x1="543.65" y1="728.78" x2="545" y2="728.45"/>
  <line class="st3" x1="545" y1="728.45" x2="546.68" y2="729.12"/>
  <line class="st3" x1="546.68" y1="729.12" x2="548.37" y2="730.14"/>
  <line class="st3" x1="542.97" y1="730.81" x2="542.63" y2="730.47"/>
  <line class="st3" x1="542.63" y1="730.47" x2="542.63" y2="729.8"/>
  <line class="st3" x1="542.97" y1="730.81" x2="548.71" y2="735.53"/>
  <line class="st3" x1="548.71" y1="735.54" x2="552.08" y2="741.61"/>
  <line class="st3" x1="519.34" y1="729.8" x2="526.77" y2="726.09"/>
  <line class="st3" x1="526.77" y1="726.08" x2="534.87" y2="724.73"/>
  <line class="st3" x1="534.87" y1="724.73" x2="543.31" y2="726.08"/>
  <line class="st3" x1="543.31" y1="726.08" x2="550.4" y2="729.8"/>
  <line class="st3" x1="521.71" y1="816.88" x2="521.37" y2="816.88"/>
  <line class="st3" x1="521.37" y1="816.88" x2="520.69" y2="816.88"/>
  <line class="st3" x1="520.02" y1="816.88" x2="520.35" y2="816.88"/>
  <line class="st3" x1="520.36" y1="816.88" x2="520.69" y2="816.88"/>
  <line class="st3" x1="519.34" y1="817.22" x2="519.68" y2="816.88"/>
  <line class="st3" x1="519.68" y1="816.88" x2="520.02" y2="816.88"/>
  <line class="st3" x1="527.44" y1="817.22" x2="526.43" y2="818.23"/>
  <line class="st3" x1="526.43" y1="818.23" x2="524.74" y2="818.57"/>
  <line class="st3" x1="524.74" y1="818.57" x2="523.06" y2="817.89"/>
  <line class="st3" x1="523.06" y1="817.89" x2="521.71" y2="816.88"/>
  <line class="st3" x1="527.11" y1="816.2" x2="527.44" y2="816.54"/>
  <line class="st3" x1="527.44" y1="816.54" x2="527.44" y2="817.22"/>
  <line class="st3" x1="527.11" y1="816.2" x2="521.37" y2="811.48"/>
  <line class="st3" x1="521.37" y1="811.48" x2="517.65" y2="805.4"/>
  <line class="st3" x1="548.37" y1="816.88" x2="548.71" y2="816.88"/>
  <line class="st3" x1="548.71" y1="816.88" x2="549.05" y2="816.88"/>
  <line class="st3" x1="550.06" y1="816.88" x2="549.72" y2="816.88"/>
  <line class="st3" x1="549.72" y1="816.88" x2="549.05" y2="816.88"/>
  <line class="st3" x1="550.4" y1="817.22" x2="550.4" y2="816.88"/>
  <line class="st3" x1="550.4" y1="816.88" x2="550.06" y2="816.88"/>
  <line class="st3" x1="542.63" y1="817.22" x2="543.65" y2="818.23"/>
  <line class="st3" x1="543.65" y1="818.23" x2="545" y2="818.57"/>
  <line class="st3" x1="545" y1="818.57" x2="546.68" y2="817.89"/>
  <line class="st3" x1="546.68" y1="817.89" x2="548.37" y2="816.88"/>
  <line class="st3" x1="542.97" y1="816.2" x2="542.63" y2="816.54"/>
  <line class="st3" x1="542.63" y1="816.54" x2="542.63" y2="817.22"/>
  <line class="st3" x1="542.97" y1="816.2" x2="548.71" y2="811.48"/>
  <line class="st3" x1="548.71" y1="811.48" x2="552.08" y2="805.4"/>
  <line class="st3" x1="519.34" y1="817.22" x2="526.77" y2="820.93"/>
  <line class="st3" x1="526.77" y1="820.93" x2="534.87" y2="822.28"/>
  <line class="st3" x1="534.87" y1="822.28" x2="543.31" y2="820.93"/>
  <line class="st3" x1="543.31" y1="820.93" x2="550.4" y2="817.22"/>
  <line class="st3" x1="511.24" y1="805.4" x2="511.24" y2="741.61"/>
  <polyline class="st3" points="511.24 741.61 517.66 741.61 552.08 741.61 558.81 741.61"/>
  <polyline class="st3" points="558.81 805.4 552.09 805.4 517.66 805.4 511.24 805.4"/>
  <polygon class="st13" points="564.07 805.4 567.78 811.48 573.52 816.2 573.86 816.54 573.86 817.22 572.85 818.23 571.16 818.57 569.47 817.89 568.12 816.88 567.78 816.88 567.11 816.88 566.77 816.88 566.44 816.88 566.1 816.88 565.76 817.22 573.19 820.93 581.29 822.28 589.73 820.93 596.81 817.22 596.81 816.88 596.48 816.88 596.14 816.88 595.46 816.88 595.13 816.88 594.79 816.88 593.1 817.89 591.41 818.57 590.06 818.23 589.05 817.22 589.05 816.54 589.39 816.2 595.13 811.48 598.5 805.4 564.07 805.4"/>
  <polygon class="st13" points="598.5 741.61 564.07 741.61 557.66 741.61 557.66 805.41 564.07 805.41 598.5 805.41 605.22 805.41 605.22 741.61 598.5 741.61"/>
  <polygon class="st13" points="581.29 724.74 573.19 726.09 565.76 729.8 566.1 730.14 566.44 730.14 566.77 730.14 567.11 730.14 567.79 730.14 568.12 730.14 569.47 729.12 571.16 728.45 572.85 728.79 573.86 729.8 573.86 730.47 573.52 730.81 567.79 735.54 564.07 741.61 598.5 741.61 595.13 735.54 589.39 730.81 589.05 730.47 589.05 729.8 590.06 728.79 591.41 728.45 593.1 729.12 594.79 730.14 595.13 730.14 595.46 730.14 596.14 730.14 596.48 730.14 596.81 730.14 596.81 729.8 589.73 726.09 581.29 724.74"/>
  <line class="st3" x1="605.22" y1="805.4" x2="605.22" y2="741.61"/>
  <line class="st3" x1="568.12" y1="730.13" x2="567.79" y2="730.13"/>
  <line class="st3" x1="567.79" y1="730.13" x2="567.11" y2="730.13"/>
  <line class="st3" x1="566.44" y1="730.13" x2="566.77" y2="730.13"/>
  <line class="st3" x1="566.77" y1="730.13" x2="567.11" y2="730.13"/>
  <line class="st3" x1="565.76" y1="729.8" x2="566.1" y2="730.14"/>
  <line class="st3" x1="566.1" y1="730.13" x2="566.44" y2="730.13"/>
  <line class="st3" x1="573.86" y1="729.8" x2="572.85" y2="728.79"/>
  <line class="st3" x1="572.85" y1="728.78" x2="571.16" y2="728.45"/>
  <line class="st3" x1="571.16" y1="728.45" x2="569.47" y2="729.12"/>
  <line class="st3" x1="569.47" y1="729.12" x2="568.12" y2="730.14"/>
  <line class="st3" x1="573.52" y1="730.81" x2="573.86" y2="730.47"/>
  <line class="st3" x1="573.86" y1="730.47" x2="573.86" y2="729.8"/>
  <line class="st3" x1="573.52" y1="730.81" x2="567.79" y2="735.53"/>
  <line class="st3" x1="567.79" y1="735.54" x2="564.07" y2="741.61"/>
  <line class="st3" x1="594.79" y1="730.13" x2="595.13" y2="730.13"/>
  <line class="st3" x1="595.13" y1="730.13" x2="595.46" y2="730.13"/>
  <line class="st3" x1="596.48" y1="730.13" x2="596.14" y2="730.13"/>
  <line class="st3" x1="596.14" y1="730.13" x2="595.47" y2="730.13"/>
  <line class="st3" x1="596.81" y1="729.8" x2="596.81" y2="730.14"/>
  <line class="st3" x1="596.81" y1="730.13" x2="596.48" y2="730.13"/>
  <line class="st3" x1="589.05" y1="729.8" x2="590.06" y2="728.79"/>
  <line class="st3" x1="590.06" y1="728.78" x2="591.42" y2="728.45"/>
  <line class="st3" x1="591.41" y1="728.45" x2="593.1" y2="729.12"/>
  <line class="st3" x1="593.1" y1="729.12" x2="594.79" y2="730.14"/>
  <line class="st3" x1="589.39" y1="730.81" x2="589.05" y2="730.47"/>
  <line class="st3" x1="589.05" y1="730.47" x2="589.05" y2="729.8"/>
  <line class="st3" x1="589.39" y1="730.81" x2="595.13" y2="735.53"/>
  <line class="st3" x1="595.13" y1="735.54" x2="598.5" y2="741.61"/>
  <line class="st3" x1="565.76" y1="729.8" x2="573.19" y2="726.09"/>
  <line class="st3" x1="573.19" y1="726.08" x2="581.29" y2="724.73"/>
  <line class="st3" x1="581.29" y1="724.73" x2="589.73" y2="726.08"/>
  <line class="st3" x1="589.73" y1="726.08" x2="596.81" y2="729.8"/>
  <line class="st3" x1="568.12" y1="816.88" x2="567.79" y2="816.88"/>
  <line class="st3" x1="567.79" y1="816.88" x2="567.11" y2="816.88"/>
  <line class="st3" x1="566.44" y1="816.88" x2="566.77" y2="816.88"/>
  <line class="st3" x1="566.77" y1="816.88" x2="567.11" y2="816.88"/>
  <line class="st3" x1="565.76" y1="817.22" x2="566.1" y2="816.88"/>
  <line class="st3" x1="566.1" y1="816.88" x2="566.44" y2="816.88"/>
  <line class="st3" x1="573.86" y1="817.22" x2="572.85" y2="818.23"/>
  <line class="st3" x1="572.85" y1="818.23" x2="571.16" y2="818.57"/>
  <line class="st3" x1="571.16" y1="818.57" x2="569.47" y2="817.89"/>
  <line class="st3" x1="569.47" y1="817.89" x2="568.12" y2="816.88"/>
  <line class="st3" x1="573.52" y1="816.2" x2="573.86" y2="816.54"/>
  <line class="st3" x1="573.86" y1="816.54" x2="573.86" y2="817.22"/>
  <line class="st3" x1="573.52" y1="816.2" x2="567.79" y2="811.48"/>
  <line class="st3" x1="567.79" y1="811.48" x2="564.07" y2="805.4"/>
  <line class="st3" x1="594.79" y1="816.88" x2="595.13" y2="816.88"/>
  <line class="st3" x1="595.13" y1="816.88" x2="595.46" y2="816.88"/>
  <line class="st3" x1="596.48" y1="816.88" x2="596.14" y2="816.88"/>
  <line class="st3" x1="596.14" y1="816.88" x2="595.47" y2="816.88"/>
  <line class="st3" x1="596.81" y1="817.22" x2="596.81" y2="816.88"/>
  <line class="st3" x1="596.81" y1="816.88" x2="596.48" y2="816.88"/>
  <line class="st3" x1="589.05" y1="817.22" x2="590.06" y2="818.23"/>
  <line class="st3" x1="590.06" y1="818.23" x2="591.42" y2="818.57"/>
  <line class="st3" x1="591.41" y1="818.57" x2="593.1" y2="817.89"/>
  <line class="st3" x1="593.1" y1="817.89" x2="594.79" y2="816.88"/>
  <line class="st3" x1="589.39" y1="816.2" x2="589.05" y2="816.54"/>
  <line class="st3" x1="589.05" y1="816.54" x2="589.05" y2="817.22"/>
  <line class="st3" x1="589.39" y1="816.2" x2="595.13" y2="811.48"/>
  <line class="st3" x1="595.13" y1="811.48" x2="598.5" y2="805.4"/>
  <line class="st3" x1="565.76" y1="817.22" x2="573.19" y2="820.93"/>
  <line class="st3" x1="573.19" y1="820.93" x2="581.29" y2="822.28"/>
  <line class="st3" x1="581.29" y1="822.28" x2="589.73" y2="820.93"/>
  <line class="st3" x1="589.73" y1="820.93" x2="596.81" y2="817.22"/>
  <line class="st3" x1="557.66" y1="805.4" x2="557.66" y2="741.61"/>
  <polyline class="st3" points="557.66 741.61 564.07 741.61 598.5 741.61 605.22 741.61"/>
  <polyline class="st3" points="605.22 805.4 598.5 805.4 564.07 805.4 557.66 805.4"/>
  <rect class="st13" x="511.25" y="741.61" width="93.98" height="63.79"/>
  <rect class="st3" x="511.25" y="741.61" width="93.99" height="63.79"/>
  <polygon class="st13" points="505.54 874.95 503.96 875.94 488.45 922.64 489.17 924.23 491.22 925.59 501.31 928.94 518.04 878.59 507.94 875.23 505.54 874.95"/>
  <polygon class="st13" points="501.31 928.94 534.42 939.93 536.86 940.07 538.11 939.13 553.62 892.43 553.23 890.78 551.14 889.58 518.04 878.59 501.31 928.94"/>
  <line class="st3" x1="518.03" y1="878.59" x2="501.31" y2="928.94"/>
  <line class="st3" x1="491.22" y1="925.59" x2="489.17" y2="924.23"/>
  <line class="st3" x1="489.17" y1="924.23" x2="488.46" y2="922.64"/>
  <line class="st3" x1="507.94" y1="875.24" x2="505.54" y2="874.95"/>
  <line class="st3" x1="505.54" y1="874.95" x2="503.96" y2="875.94"/>
  <line class="st3" x1="534.41" y1="939.93" x2="536.86" y2="940.07"/>
  <line class="st3" x1="536.86" y1="940.07" x2="538.11" y2="939.13"/>
  <line class="st3" x1="551.13" y1="889.58" x2="553.23" y2="890.78"/>
  <line class="st3" x1="553.23" y1="890.78" x2="553.61" y2="892.43"/>
  <polyline class="st3" points="551.13 889.58 518.03 878.59 507.93 875.24"/>
  <line class="st3" x1="503.96" y1="875.94" x2="488.46" y2="922.64"/>
  <polyline class="st3" points="491.22 925.59 501.32 928.94 534.42 939.93"/>
  <line class="st3" x1="538.11" y1="939.13" x2="553.61" y2="892.43"/>
  <path class="st3" d="M690.55,866.16h119.48M810.03,917.8h-119.48M550.48,581.28h-39.83M510.65,581.28v-11.81M510.65,569.47h39.83M568.37,1160.15v-15.86M568.37,1144.28h-57.72M810.03,1144.28h-44.55M765.48,1144.28v15.86M825.9,581.28h-119.48M690.55,581.28v16.2M690.55,597.49h119.48M810.03,597.49v7.76M827.59,606.26v-24.98M810.03,925.9v218.38M827.59,1190.86v-481.99M827.59,708.87v-31.05M810.03,606.26v-1.01M464.07,491.5v-3.71M356.4,1066.65h107.67M464.07,1066.65v-241.67M464.07,824.98h-107.67M356.4,824.98v241.67M464.07,1070.7v-4.05M464.07,1066.65h-107.67M356.4,1066.65v-241.67M356.4,824.98h107.67M464.07,824.98v-3.71M464.07,821.27h-111.72M352.35,821.27v249.44M352.35,1070.7h111.72M743.54,608.96l1.35,12.83M744.89,621.79l3.71,12.49M748.6,634.28l6.08,11.48M754.68,645.75l8.44,10.13M763.12,655.88l9.79,8.44M772.91,664.32l11.81,6.07M784.72,670.39l12.49,3.71M797.21,674.1l12.83,1.35M810.03,677.82h17.55M827.59,606.26h-17.55M810.03,608.96h-66.49M810.03,675.46v-66.5M810.03,726.42v-48.6M810.03,605.25v1.01M762.11,1186.47l-2.7,1.69M757.38,1189.17l-2.03,1.35M753.33,1191.54l-2.37,1.35M748.94,1193.9l-2.03,1.35M744.89,1196.26l-2.02,1.35M740.84,1198.96l-2.03,1.01M736.79,1201.32l-2.36,1.01M732.4,1203.69l-2.03,1.01M728.35,1206.05l-2.03,1.01M724.3,1208.41l-2.03,1.01M719.91,1210.77l-2.03,1.35M715.87,1213.14l-2.03,1.35M711.82,1215.5l-2.03,1.35M707.77,1217.86l-2.37,1.35M703.38,1220.23l-2.02,1.35M699.33,1222.59l-2.7,1.69M686.5,1186.47l.34,1.69M687.18,1190.52v2.7M687.51,1195.59v2.36M687.85,1200.31l.68,2.36M689.2,1204.7l.68,2.36M690.55,1209.42l.34,2.36M691.9,1213.81l1.02,2.36M693.93,1218.2l1.01,2.36M695.95,1222.59l.68,1.69M573.43,1185.8h109.36M682.79,1185.8v-3.71M682.79,1182.08h-109.36M573.43,1182.08v3.71M757.04,1182.08h-65.48M691.56,1182.08v3.71M691.56,1185.8h65.48M757.04,1185.8v-3.71M573.43,1174.66h109.36M688.19,1174.66h72.23M688.19,1174.66h72.23M760.42,1186.47h-72.23M682.79,1186.47h-109.36M757.04,1186.47h-65.48M688.19,1180.06v-5.4M760.42,1180.06v-5.4M757.04,1180.06h-65.48M760.42,1180.06h-72.23M688.19,1174.66h-5.4M682.79,1174.66v11.81M682.79,1186.47h8.78M691.56,1186.47v-6.41M691.56,1180.06h-3.38M688.19,1180.06v-5.4M764.47,1174.66h-4.05M760.42,1174.66v5.4M760.42,1180.06h-3.37M757.04,1180.06v6.41M757.04,1186.47h7.42M764.47,1186.47v-11.81M573.43,1174.66h-4.05M569.38,1174.66v11.81M569.38,1186.47h4.05M573.43,1186.47v-11.81M686.5,1186.47h75.61M762.44,1186.47h-76.28M762.11,1186.47h-75.61M760.42,1186.47h-72.23M688.19,1186.47h72.23M686.16,1186.47h76.28M691.56,1186.47h65.48M757.04,1186.47h-65.48M510.65,1144.28v-97.55M510.65,1046.74h-15.87M510.65,849.62v-152.22M510.65,697.39h-15.87M494.78,849.62h15.87M510.65,615.38v-25.99M510.65,581.28v-11.81M510.65,561.37v-71.56M494.78,615.38h15.87M810.03,866.16l-119.48,51.64M810.03,866.16h-119.48M690.55,917.8h119.48M510.65,569.47l39.83,11.81M550.48,569.47l-39.83,11.81M510.65,581.28h39.83M550.48,569.47h-39.83M510.65,569.47v11.81M706.41,473.95h-195.77M510.65,489.81h179.9M706.41,489.81v-15.86M690.55,489.81v91.47M706.41,581.28v-35.78M706.41,537.74v-47.93M393.19,1043.36l1.01-13.16M394.2,1030.2l3.37-12.83M397.58,1017.37l5.74-11.81M403.31,1005.56l7.43-10.8M410.74,994.76l9.45-9.11M420.19,985.64l10.47-7.43M430.65,978.22l12.15-5.74M442.8,972.48l12.49-3.38M455.29,969.1l13.17-1.01M468.46,1043.36h-75.27M472.85,1038.3v-65.48M472.85,972.82h-3.72M469.13,972.82v65.48M469.13,1038.3h3.72M480.27,969.44v72.23M468.46,1038.3v-65.48M474.87,1038.3v-65.48M474.87,969.44h5.4M474.87,1041.67h5.4M474.87,1041.67v-72.23M480.27,969.44v-4.05M480.27,965.39h-11.81M468.46,965.39v7.43M468.46,972.82h6.41M474.87,972.82v-3.37M474.87,969.44h5.4M480.27,1045.72v-4.05M480.27,1041.67h-5.4M474.87,1041.67v-3.37M474.87,1038.3h-6.41M468.46,1038.3v7.43M468.46,1045.72h11.81M469.13,854.68h3.72M469.13,960.33v-105.65M472.85,960.33h-3.72M472.85,854.68v105.65M480.27,960.33v-105.65M468.46,854.68v105.65M468.46,850.63h11.81M468.46,854.68v-4.05M480.27,854.68h-11.81M480.27,850.63v4.05M468.46,960.33h11.81M468.46,964.38v-4.05M480.27,964.38h-11.81M480.27,960.33v4.05"/>
  <path class="st3" d="M468.46,694.02l-1.35-2.7M465.76,689.3l-1.35-2.03M463.39,685.24l-1.35-2.02M461.03,681.19l-1.35-2.03M458.67,677.14l-1.35-2.36M456.3,672.76l-1.35-2.03M453.94,668.71l-1.35-2.02M451.58,664.66l-1.35-2.02M448.88,660.27l-1.01-2.02M446.52,656.22l-1.01-2.02M444.15,652.17l-1.01-2.03M441.79,648.12l-1.01-2.36M439.43,643.73l-1.01-2.03M437.07,639.68l-1.35-2.02M434.7,635.63l-1.35-2.02M432.34,631.58l-1.69-2.7M468.46,618.75h-1.69M464.41,619.09l-2.37.34M459.68,619.43l-2.36.34M454.95,620.1l-2.36.67M450.23,621.11l-2.36.68M445.5,622.46l-2.36.67M441.11,624.15l-2.36,1.01M436.73,626.18l-2.02,1.01M432.34,628.2l-1.69.67M472.84,689.3v-65.48M472.84,623.81h-3.72M469.13,623.81v65.48M469.13,689.3h3.72M480.27,620.1v72.57M480.27,620.1v72.57M474.87,620.1h5.4M474.87,692.67h5.4M468.46,692.67v-72.57M468.46,689.3v-65.48M474.87,689.3v-65.48M474.87,692.67v-72.57M480.27,620.1v-3.71M480.27,616.39h-11.81M468.46,616.39v7.43M468.46,623.81h6.41M474.87,623.81v-3.71M474.87,620.1h5.4M480.27,696.38v-3.71M480.27,692.67h-5.4M474.87,692.67v-3.37M474.87,689.3h-6.41M468.46,689.3v7.09M468.46,696.38h11.81M468.46,696.38v-80M468.46,616.39v80M468.46,618.75v75.27M468.46,694.7v-76.28M468.46,694.02v-75.27M468.46,692.67v-72.57M468.46,620.1v72.57M468.46,618.41v76.28M468.46,623.81v65.48M468.46,689.3v-65.48M510.65,1046.74v97.54M510.65,1144.28h57.72M568.36,1144.28v32.41M568.36,1176.69h1.01M764.47,1176.69h1.01M765.48,1176.69v-32.41M810.03,1144.28v-218.38M810.03,925.9h-127.58M682.45,726.42h127.58M810.03,606.26v-1.01M810.03,597.49h-119.48M690.55,597.49v-107.67M690.55,489.82h-179.9M510.65,541.8v19.57M510.65,569.47h39.83M550.48,581.29h-39.83M510.65,589.39v25.99M510.65,615.38h-32.4M478.24,615.38v1.01M478.24,696.38v1.01M478.24,697.4h32.4M510.65,697.4v152.23M510.65,849.62h-32.4M478.24,849.62v1.01M478.24,964.38v1.01M478.24,1045.72v1.02M478.24,1046.74h32.4M517.06,473.95h189.36M810.03,605.25v1.01M808.35,726.42h-125.9M682.45,726.42v5.4M682.45,731.82v8.78M682.45,811.48v54.68M687.51,746v62.78M690.55,866.16h117.8M810.03,917.8h-8.1M801.93,917.8v8.1"/>
  <path class="st3" d="M801.93,925.9h8.1M754,917.8h-63.45M690.55,917.8v8.1M690.55,925.9h63.45M754,925.9v-8.1M754,917.8h47.93M801.93,925.9h-47.93M801.93,917.8v8.1M754,925.9v-8.1M690.55,925.9v-59.74M682.45,866.16v59.74M682.45,925.9h8.1M510.65,742.62v63.79M558.24,1096.35h-3.38M552.5,1096.35h-2.36M547.77,1096.35h-2.36M543.05,1096.35h-2.7M537.99,1096.35h-2.36M533.26,1096.35h-2.37M528.54,1096.35h-2.36M523.81,1096.35h-2.36M519.08,1096.35h-2.36M514.36,1096.35h-3.71M510.65,1048.76h3.71M516.72,1048.76h2.36M521.45,1048.76h2.36M526.17,1048.76h2.36M530.9,1048.76h2.37M535.63,1048.76h2.36M540.35,1048.76h2.7M545.41,1048.76h2.36M550.14,1048.76h2.36M554.86,1048.76h3.38M558.24,1048.76v1.01M558.24,1052.14v2.36M558.24,1056.86v2.36M558.24,1061.92v2.36M558.24,1066.65v2.36M558.24,1071.38v2.36M558.24,1076.1v2.36M558.24,1080.83v2.36M558.24,1085.55v2.36M558.24,1090.61v2.36M558.24,1095.34v1.02M690.55,537.74v1.01M690.55,541.12v2.36M690.55,545.84v2.7M690.55,550.91v2.36M690.55,555.63v2.36M690.55,560.36v2.36M690.55,565.08v2.36M690.55,569.81v2.36M690.55,574.53v2.7M690.55,579.6v2.36M690.55,584.32v1.01M642.62,489.81h47.93M690.55,489.81v47.93M690.55,537.74h-47.93"/>
  <path class="st3" d="M690.55,489.81v47.93M690.55,537.74h-95.86M594.69,489.81h95.86M558.58,561.37v-23.63M558.58,537.74h36.11M558.24,1096.35h-3.38M552.5,1096.35h-2.36M547.77,1096.35h-2.36M543.05,1096.35h-2.7M537.99,1096.35h-2.36M533.26,1096.35h-2.36M528.54,1096.35h-2.36M523.81,1096.35h-2.37M519.08,1096.35h-2.36M514.36,1096.35h-3.71M510.65,1144.28h3.71M516.72,1144.28h2.36M521.45,1144.28h2.37M526.17,1144.28h2.36M530.9,1144.28h2.36M535.62,1144.28h2.36M540.35,1144.28h2.7M545.41,1144.28h2.36M550.14,1144.28h2.36M554.86,1144.28h3.38M558.24,1144.28v-1.35M558.24,1140.57v-2.36M558.24,1135.84v-2.36M558.24,1131.12v-2.36M558.24,1126.39v-2.36M558.24,1121.67v-2.36M558.24,1116.94v-2.7M558.24,1111.88v-2.36M558.24,1107.16v-2.36M558.24,1102.43v-2.36M558.24,1097.7v-1.35M550.48,569.47v11.82M550.48,589.39h8.1M558.58,589.39v-28.01M558.58,561.37h-8.1M550.48,581.29h-39.83M510.65,589.39h39.83M510.65,569.47h39.83M550.48,561.37h-39.83M753.33,743.3l-1.01,12.83M752.32,756.12l-4.05,12.15M748.27,768.28l-6.08,11.47M742.19,779.75l-8.1,9.79M734.09,789.54l-9.79,8.44M724.3,797.98l-11.47,6.07M712.83,804.05l-12.49,3.71M700.34,807.77l-12.83,1.01M688.86,811.48h-6.41M682.45,740.6h6.41M687.51,746.34v-3.04M687.51,743.3h65.82M687.51,746.34v62.44"/>
  <path class="st3" d="M688.86,859.75v-48.27M801.93,859.75v-126.57M810.03,917.8v-51.64M688.86,740.6v-7.43M688.86,733.17h113.07M688.86,859.75h113.07"/>
  <path class="st3" d="M464.07,473.95v141.42M464.07,615.37h30.72M464.07,697.39v152.22M464.07,849.62h30.72M494.78,697.39h-30.72M464.07,1046.74v144.12M464.07,1190.86h30.72M494.78,1046.74h-30.72M464.07,1046.74v-197.12M464.07,697.39v-82.02M464.07,1046.74h8.78M472.84,1046.74v-1.01M472.84,965.39v-1.01M472.84,850.63v-1.01M472.84,849.62h-8.78M464.07,697.39h8.78M472.84,697.39v-1.01M472.84,616.39v-1.01M472.84,615.37h-8.78M472.84,849.62v1.01M472.84,964.38v1.01M472.84,1045.72v1.01M478.25,1046.74h-5.4M472.84,849.62h5.4M472.84,615.37v1.01M472.84,696.38v1.01M478.25,697.39h-5.4M472.84,615.37h5.4M765.48,1160.14v30.71M765.48,1190.86h62.11M494.78,1190.86h73.58M568.37,1190.86v-30.71M765.48,1190.86h-197.11M568.37,1182.08h1.01M764.47,1182.08h1.01M765.48,1176.68v5.4"/>
  <path class="st3" d="M568.36,1182.09v-5.4M568.36,1182.09v8.78M765.48,1190.86v-8.78M765.48,1182.09h-1.01M569.38,1182.09h-1.01M706.41,473.95v107.33M706.41,581.29h121.17M464.07,473.95h52.99M464.07,499.27v-25.32M827.59,1190.86h-363.52"/>
  <g class="st10">
    <path class="st2" d="M111.35,1117.95h6.07M134.98,1197.27l16.2-7.09M146.79,1172.63l4.38,17.55M174.47,1201.32l-27.68-28.69M174.47,1201.32l-39.49-4.05M174.47,1201.32l-23.29-11.14M111.35,878.65h6.07M111.35,1038.3h6.07M111.35,958.64h6.07M111.35,878.65v239.31M1237.68,418.93H53.97"/>
    <path d="M132.74,469.85c-.43.28-.75.67-.96,1.17-.21.5-.32,1.11-.32,1.85,0,.58.11,1.1.32,1.57.21.47.5.82.89,1.07.38.25.78.37,1.21.37s.81-.11,1.15-.34c.33-.22.61-.58.82-1.05.14-.33.32-.92.51-1.8.19-.88.38-1.42.57-1.62.19-.21.42-.32.72-.32.33,0,.62.15.85.45.23.3.36.77.36,1.42s-.13,1.1-.39,1.42c-.26.32-.64.51-1.16.56l.08,1.03c.47-.02.9-.15,1.27-.4.37-.25.66-.6.85-1.06.19-.46.29-.99.29-1.6,0-.55-.09-1.04-.27-1.49-.18-.45-.45-.79-.81-1.02-.35-.23-.74-.35-1.14-.35-.37,0-.71.09-1,.29-.3.19-.55.48-.75.87-.16.3-.33.82-.5,1.57-.18.75-.31,1.23-.39,1.45-.13.34-.29.59-.48.73-.19.15-.41.22-.66.22s-.48-.08-.69-.23c-.21-.16-.38-.39-.49-.7-.12-.32-.18-.68-.18-1.09,0-.46.08-.88.24-1.25.16-.37.37-.64.62-.82.26-.18.59-.29.99-.34l-.09-1.02c-.54.02-1.02.16-1.45.45M131.6,478.56h2.79l1.28,1.33-4.08,2.9v1.42l4.8-3.56,3.26,3.41v-1.46l-4-4.04h4v-1.08h-8.06v1.08Z"/>
    <path d="M137.27,488.08h-.92v5.37h.92v-5.37ZM134.82,488.08h-.92v5.37h.92v-5.37Z"/>
    <path d="M132.74,498.2c-.43.28-.75.67-.96,1.17-.21.5-.32,1.11-.32,1.85,0,.58.1,1.1.31,1.57.21.47.51.82.89,1.07.38.25.78.37,1.22.37s.81-.11,1.14-.34c.33-.23.61-.58.82-1.05.15-.33.32-.92.51-1.8.2-.88.39-1.42.57-1.62.19-.21.42-.32.71-.32.34,0,.62.15.86.45.23.3.36.77.36,1.43s-.13,1.1-.39,1.42-.64.51-1.15.56l.08,1.03c.47-.02.9-.15,1.27-.4.38-.25.66-.61.85-1.06.19-.46.29-.99.29-1.6,0-.55-.09-1.04-.28-1.49-.18-.45-.45-.79-.8-1.02-.35-.23-.73-.35-1.14-.35-.37,0-.71.1-1,.29-.3.19-.55.48-.75.87-.16.3-.32.82-.5,1.57-.18.75-.31,1.23-.39,1.45-.13.34-.29.59-.48.73-.19.15-.41.22-.66.22s-.48-.07-.69-.23c-.21-.16-.38-.39-.5-.7-.12-.32-.18-.68-.18-1.09,0-.46.08-.88.24-1.25.16-.37.37-.64.63-.82.26-.18.59-.29.99-.34l-.09-1.02c-.54.01-1.02.16-1.45.45"/>
    <path d="M131.6,506.42h2.31l.67.71-2.98,1.95v1.23l3.67-2.48,2.16,2.26v-1.3l-2.38-2.37h4.6v-1h-8.06v1ZM131.6,515.54v1.04c.22-.12.46-.21.7-.25.25-.05.83-.07,1.75-.07h1.32c.44,0,.74-.02.91-.05.27-.06.49-.16.67-.31.18-.15.33-.38.44-.69.12-.31.18-.72.18-1.23s-.07-.95-.21-1.33c-.14-.38-.33-.68-.59-.88-.26-.21-.59-.35-1-.44l-.13.98c.42.11.7.27.87.5.16.22.25.57.25,1.04,0,.5-.11.88-.34,1.14-.16.19-.45.28-.85.28-.03,0-.12,0-.26,0-.13-.38-.25-.98-.34-1.78-.05-.39-.09-.69-.15-.89-.07-.27-.18-.5-.32-.72-.14-.21-.33-.38-.57-.52-.24-.13-.5-.2-.78-.2-.49,0-.89.17-1.2.52-.31.35-.47.85-.47,1.49,0,.39.07.76.19,1.1.13.34.35.7.66,1.07-.27.03-.51.1-.72.2M134.17,515.26c-.44,0-.77-.05-.99-.16-.29-.14-.52-.36-.68-.66-.17-.3-.25-.64-.25-1.03s.09-.68.27-.88c.18-.2.4-.31.66-.31.18,0,.33.05.47.14.14.09.25.22.33.39.07.17.14.46.2.87.1.73.23,1.27.38,1.63h-.36Z"/>
    <path d="M131.6,518.57h2.31l.67.71-2.99,1.95v1.23l3.67-2.48,2.16,2.25v-1.29l-2.37-2.37h4.6v-1h-8.06v1ZM132.45,525.05c0-.15.03-.26.07-.34.05-.08.11-.14.19-.17.08-.04.26-.05.55-.05h3.42v1.01h.77v-1.01h2.04l-.59-.99h-1.45v-.73h-.77v.73h-3.36c-.59,0-.98.04-1.17.12-.18.08-.33.22-.45.42-.11.2-.17.48-.17.84,0,.22.03.47.09.76l.88-.14c-.03-.18-.04-.33-.04-.44"/>
    <path d="M118.44,470.9h3.66v3.82h.95v-3.82h2.5v4.41h.95v-5.49h-8.06v1.08ZM119.58,476.59c-.43.28-.74.67-.96,1.17-.21.5-.32,1.11-.32,1.85,0,.58.1,1.1.31,1.57.21.46.51.82.89,1.07.38.25.79.37,1.22.37s.81-.11,1.14-.34c.33-.23.61-.58.83-1.05.14-.33.32-.92.51-1.8.2-.88.39-1.42.57-1.62.19-.21.43-.32.72-.32.33,0,.62.15.85.45.23.3.35.77.35,1.43s-.13,1.1-.39,1.42c-.26.32-.64.51-1.15.56l.08,1.03c.47-.02.9-.15,1.27-.4.38-.25.66-.61.85-1.06.19-.46.29-.99.29-1.6,0-.55-.09-1.04-.27-1.49-.19-.45-.45-.79-.81-1.02-.35-.23-.73-.35-1.14-.35-.37,0-.7.1-1,.29-.3.19-.55.48-.75.87-.16.3-.32.82-.5,1.57-.18.75-.31,1.23-.39,1.45-.13.34-.29.59-.48.73-.19.15-.41.22-.66.22s-.48-.07-.69-.23c-.21-.16-.38-.39-.5-.7-.12-.32-.18-.68-.18-1.09,0-.46.08-.88.24-1.25.16-.37.37-.64.63-.82.26-.18.59-.29.99-.34l-.09-1.02c-.54.01-1.02.16-1.45.45"/>
    <path d="M124.1,487.07h-.92v5.37h.92v-5.37ZM121.65,487.07h-.92v5.37h.92v-5.37Z"/>
    <polygon points="118.44 498.23 122.1 498.23 122.1 502.05 123.05 502.05 123.05 498.23 125.55 498.23 125.55 502.64 126.5 502.64 126.5 497.15 118.44 497.15 118.44 498.23"/>
    <path d="M119.09,504.46c-.53.51-.79,1.18-.79,2,0,.51.12.99.36,1.43.24.44.57.76,1,.99.43.23,1.02.34,1.77.34.92,0,1.65-.26,2.18-.77.53-.52.79-1.18.79-1.99,0-.73-.22-1.34-.65-1.85-.52-.61-1.32-.91-2.4-.91-.98,0-1.74.25-2.26.76M123.03,505.21c.37.33.55.74.55,1.24s-.18.9-.56,1.24c-.37.33-.92.5-1.64.5-.77,0-1.34-.16-1.71-.49-.38-.33-.56-.75-.56-1.24s.19-.91.56-1.24c.37-.33.93-.49,1.68-.49s1.31.17,1.68.49M118.44,511.12h3.05c.42,0,.81.06,1.16.17.23.07.41.2.54.37.13.18.2.37.2.59,0,.24-.07.49-.21.73l.92.34c.21-.35.32-.69.32-1.03,0-.23-.07-.45-.2-.64-.13-.19-.41-.4-.82-.63h.89v-.9h-5.84v1Z"/>
    <path d="M119.41,517.27c-.19-.26-.29-.57-.29-.94,0-.49.17-.9.51-1.23.34-.33.83-.51,1.48-.55v4.39c.11,0,.2,0,.26,0,.96,0,1.71-.25,2.24-.75.53-.5.8-1.14.8-1.93s-.27-1.47-.81-1.99c-.54-.51-1.31-.77-2.29-.77s-1.69.25-2.21.76c-.53.51-.79,1.19-.79,2.05,0,.68.16,1.24.49,1.69.33.44.79.74,1.39.9l.13-1.03c-.42-.15-.72-.35-.91-.62M123.14,515.13c.31.31.46.7.46,1.16,0,.51-.19.92-.57,1.24-.25.21-.61.33-1.1.38v-3.29c.51.03.91.21,1.22.52M118.78,520.63c-.31.4-.47.99-.47,1.75,0,.46.08.88.24,1.24.16.37.38.65.67.84.29.19.6.29.93.29s.62-.08.84-.24c.23-.16.4-.38.52-.66.12-.28.27-.77.46-1.48.13-.49.22-.78.25-.88.07-.18.16-.3.26-.38.1-.08.22-.12.35-.12.2,0,.38.1.53.29.15.2.23.52.23.98,0,.39-.08.69-.25.9-.17.21-.4.34-.7.39l.13.97c.38-.06.68-.18.9-.34.23-.17.4-.42.54-.77.13-.35.2-.76.2-1.22,0-.31-.04-.6-.12-.87-.08-.27-.18-.48-.29-.63-.14-.21-.33-.37-.55-.49-.22-.12-.46-.18-.72-.18-.29,0-.55.07-.79.22-.23.15-.42.36-.55.64-.14.28-.29.79-.48,1.52-.14.54-.25.89-.33,1.02-.13.2-.31.29-.53.29-.25,0-.47-.11-.65-.33-.19-.22-.28-.56-.28-1.02s.1-.81.31-1.06c.21-.25.51-.41.9-.47l-.16-.99c-.62.11-1.09.37-1.4.77M126.5,526.02h-8.06v1h8.06v-1ZM118.44,532.7v1.04c.22-.13.46-.21.7-.26.24-.04.82-.06,1.74-.06h1.32c.44,0,.75-.02.91-.05.27-.06.5-.17.67-.31.18-.15.33-.38.44-.69.12-.31.18-.72.18-1.22s-.07-.95-.2-1.34c-.14-.38-.33-.68-.59-.88-.25-.21-.59-.35-1-.44l-.13.98c.41.11.7.27.86.5.17.22.25.57.25,1.04,0,.5-.11.88-.33,1.14-.17.19-.45.28-.85.28-.04,0-.12,0-.26,0-.13-.38-.24-.98-.34-1.78-.05-.39-.1-.69-.15-.89-.07-.27-.18-.5-.32-.72-.14-.21-.33-.38-.57-.52-.23-.13-.5-.2-.78-.2-.49,0-.89.17-1.2.52s-.47.85-.47,1.49c0,.39.06.76.19,1.1.13.34.35.7.66,1.07-.28.03-.51.1-.72.2M121.01,532.42c-.44,0-.77-.06-.99-.16-.29-.14-.52-.36-.68-.66-.16-.3-.25-.64-.25-1.03s.09-.68.26-.88c.18-.2.4-.3.66-.3.17,0,.33.04.47.14.14.09.25.22.32.39.08.17.14.46.2.87.1.72.22,1.27.37,1.63h-.36ZM125.06,530.32c-.2.2-.29.43-.29.71s.1.5.29.7c.19.2.43.3.71.3s.52-.1.71-.3.29-.43.29-.7-.1-.5-.29-.7-.42-.3-.69-.3c-.29,0-.54.1-.74.29M126.2,530.63c.11.12.18.25.18.41s-.06.3-.18.42c-.12.11-.26.17-.42.17s-.31-.06-.42-.17c-.12-.12-.18-.25-.18-.41s.06-.3.18-.41.26-.18.44-.18c.16,0,.3.06.42.18M119.41,538.48c-.19-.26-.29-.57-.29-.94,0-.49.17-.9.51-1.23.34-.33.83-.51,1.48-.55v4.4c.11,0,.2,0,.26,0,.96,0,1.71-.25,2.24-.75.53-.5.8-1.14.8-1.93s-.27-1.47-.81-1.99c-.54-.51-1.31-.76-2.29-.76s-1.69.25-2.21.76c-.53.5-.79,1.19-.79,2.05,0,.68.16,1.25.49,1.69.33.44.79.74,1.39.9l.13-1.03c-.42-.15-.72-.36-.91-.62M123.14,536.34c.31.31.46.7.46,1.16,0,.5-.19.92-.57,1.24-.25.21-.61.33-1.1.38v-3.29c.51.04.91.21,1.22.52"/>
    <path d="M119.28,543.27c0-.15.02-.26.07-.34.05-.08.11-.14.19-.17.08-.04.26-.05.55-.05h3.41v1.01h.77v-1.01h2.04l-.59-1h-1.45v-.73h-.77v.73h-3.36c-.59,0-.98.04-1.17.12-.19.08-.33.22-.45.42-.12.2-.17.48-.17.84,0,.22.03.47.09.75l.88-.14c-.03-.18-.04-.33-.04-.44M118.78,547.97c-.32.4-.47.99-.47,1.75,0,.46.08.88.24,1.24.16.36.38.64.68.84.29.2.6.29.93.29s.62-.08.85-.24c.23-.16.4-.38.52-.66.12-.28.27-.77.46-1.48.14-.49.22-.78.25-.88.07-.17.16-.3.27-.38.1-.08.21-.12.35-.12.2,0,.38.1.53.3s.23.52.23.98c0,.39-.08.69-.25.9-.17.21-.4.34-.7.38l.13.98c.38-.07.68-.18.9-.35.22-.17.4-.43.54-.77.13-.35.2-.76.2-1.22,0-.31-.04-.6-.12-.86-.08-.27-.18-.48-.29-.63-.15-.21-.33-.37-.55-.49-.22-.12-.46-.18-.72-.18-.28,0-.55.07-.78.22-.23.15-.42.36-.55.65-.13.28-.29.79-.48,1.52-.14.54-.25.88-.34,1.02-.13.2-.31.29-.53.29-.25,0-.47-.11-.65-.33-.19-.22-.28-.56-.28-1.02s.1-.81.32-1.06c.21-.25.51-.41.9-.46l-.15-.99c-.62.11-1.09.36-1.4.77"/>
    <path d="M118.44,554.69h2.31l.67.7-2.98,1.95v1.23l3.67-2.48,2.16,2.25v-1.29l-2.38-2.36h4.6v-1h-8.06v1ZM118.44,563.47v1.04c.22-.12.46-.21.7-.25.25-.05.83-.07,1.75-.07h1.32c.44,0,.74-.02.91-.05.27-.06.5-.16.67-.31.18-.15.33-.38.45-.69.12-.31.18-.72.18-1.23s-.07-.95-.21-1.33-.33-.68-.59-.88c-.25-.21-.59-.35-1-.44l-.13.98c.41.11.7.27.86.5.16.22.25.57.25,1.04,0,.5-.11.88-.33,1.14-.17.19-.45.28-.85.28-.04,0-.13,0-.26,0-.14-.38-.25-.98-.35-1.78-.05-.39-.09-.69-.15-.89-.07-.27-.18-.5-.32-.72-.14-.21-.33-.38-.57-.52-.23-.13-.49-.2-.78-.2-.49,0-.89.17-1.2.52-.31.35-.47.85-.47,1.49,0,.39.07.76.2,1.1.13.34.35.7.66,1.07-.27.03-.51.1-.72.2M121.01,563.18c-.44,0-.77-.05-.99-.16-.29-.14-.52-.36-.68-.66-.17-.3-.25-.64-.25-1.03s.09-.68.27-.88c.18-.2.4-.31.66-.31.17,0,.33.05.47.14.14.09.25.22.32.39.07.17.14.46.2.87.1.73.23,1.27.38,1.63h-.36Z"/>
    <path d="M119.17,566.42c-.58.39-.86.94-.86,1.64s.27,1.3.82,1.8c.55.5,1.32.75,2.32.75.42,0,.82-.06,1.19-.18.37-.12.68-.28.95-.49.26-.21.47-.48.61-.8.14-.32.22-.67.22-1.03,0-.65-.26-1.19-.79-1.61h2.88v-1h-8.06v.93h.73ZM123.03,566.88c.38.32.56.7.56,1.13s-.18.8-.54,1.11c-.36.31-.93.46-1.69.46s-1.3-.16-1.68-.48c-.38-.32-.56-.7-.56-1.13,0-.53.25-.96.76-1.28.31-.19.82-.29,1.52-.29s1.25.16,1.63.48"/>
    <path d="M119.47,877.22c-.56.45-.83,1.06-.83,1.85,0,.6.16,1.09.48,1.48.31.39.76.68,1.35.88.58.2,1.34.29,2.29.29.8,0,1.44-.06,1.91-.18.47-.12.87-.29,1.2-.5.33-.21.58-.49.76-.81.18-.33.26-.71.26-1.15,0-.59-.16-1.08-.47-1.47-.31-.39-.76-.69-1.34-.88-.58-.2-1.35-.29-2.3-.29-1.51,0-2.6.27-3.27.8M125.47,877.96c.39.28.58.64.58,1.1s-.22.85-.65,1.17c-.44.31-1.32.47-2.65.47s-2.2-.16-2.64-.47c-.44-.31-.66-.7-.66-1.16s.22-.84.65-1.16c.44-.31,1.32-.47,2.64-.47s2.23.17,2.72.52M119.73,1030.92c.18.11.36.25.53.42.18.17.52.55,1.02,1.15.6.72,1.07,1.23,1.42,1.54.35.31.67.53.98.66.31.13.63.2.95.2.64,0,1.17-.23,1.6-.68.43-.46.64-1.07.64-1.86s-.2-1.39-.6-1.85-.97-.72-1.73-.79l-.1,1.03c.5,0,.9.15,1.19.44.29.29.43.68.43,1.15,0,.46-.14.83-.4,1.11-.27.28-.6.42-.99.42s-.77-.16-1.19-.47c-.42-.31-.99-.91-1.71-1.8-.46-.57-.87-1-1.22-1.31-.35-.3-.71-.52-1.07-.66-.22-.08-.45-.12-.69-.11v5.38h.95v-3.99Z"/>
    <path d="M118.78,1037.01h3.03c.53,0,.94.05,1.22.16.29.11.5.28.64.52.15.24.22.5.22.78,0,.37-.11.64-.33.8-.22.16-.55.25-.99.25h-3.79v1h3.39c.6,0,1.04.14,1.31.41.27.28.41.62.41,1.04,0,.23-.05.43-.16.6-.11.17-.25.29-.42.35-.18.07-.46.1-.85.1h-3.68v.99h4.01c.66,0,1.16-.16,1.48-.47.32-.32.48-.76.48-1.35,0-.74-.34-1.35-1.02-1.82.32-.11.57-.31.75-.59.18-.28.27-.64.27-1.08,0-.39-.08-.74-.26-1.05-.17-.31-.41-.55-.69-.74h.82v-.89h-5.84v1Z"/>
    <path d="M126.87,956.12v-.64c-.35-.17-.71-.47-1.08-.89-.37-.42-.68-.9-.94-1.46h-.96c.11.31.29.66.51,1.05.23.39.46.71.68.95h-6.3v1h8.09ZM118.78,960.05h3.03c.53,0,.94.05,1.22.16.29.11.5.28.64.52.15.24.22.5.22.78,0,.37-.11.63-.33.8-.22.16-.55.25-.99.25h-3.79v1h3.39c.6,0,1.04.14,1.31.41.27.28.41.62.41,1.03,0,.23-.05.43-.16.6-.11.17-.25.28-.42.35-.18.07-.46.1-.85.1h-3.68v.99h4.01c.66,0,1.16-.16,1.48-.47.32-.32.48-.76.48-1.35,0-.75-.34-1.36-1.02-1.82.32-.12.57-.31.75-.59.18-.28.27-.64.27-1.07,0-.39-.08-.74-.26-1.05-.17-.31-.41-.55-.69-.74h.82v-.89h-5.84v1Z"/>
    <path d="M118.78,781.3h6.86l-6.86,2.35v.97l6.74,2.36h-6.74v1.04h8.06v-1.45l-5.61-1.94c-.57-.2-1-.34-1.29-.44.27-.08.66-.21,1.19-.39l5.71-1.92v-1.62h-8.06v1.04ZM118.78,793.32v1.04c.23-.12.46-.21.7-.25.24-.04.83-.06,1.74-.06h1.32c.44,0,.74-.02.91-.05.27-.06.49-.17.67-.31.18-.15.33-.38.44-.69s.18-.72.18-1.22-.07-.96-.2-1.34c-.14-.39-.34-.68-.59-.88-.25-.21-.59-.35-1-.44l-.13.98c.42.11.7.27.87.49.16.22.25.57.25,1.04,0,.5-.11.88-.34,1.14-.16.19-.45.28-.85.28-.03,0-.12,0-.26,0-.13-.38-.24-.98-.34-1.78-.05-.39-.1-.69-.15-.89-.08-.27-.18-.5-.33-.72-.14-.21-.33-.38-.57-.51-.24-.13-.5-.2-.78-.2-.49,0-.89.17-1.2.52-.32.35-.47.85-.47,1.49,0,.39.07.76.19,1.1.13.34.35.7.66,1.07-.27.03-.51.1-.72.2M121.34,793.04c-.44,0-.77-.06-.99-.16-.29-.14-.52-.36-.69-.66-.16-.3-.25-.64-.25-1.03s.09-.68.26-.89c.18-.2.39-.3.66-.3.17,0,.33.04.47.14.14.09.25.22.32.39.07.17.14.46.2.87.1.73.23,1.27.37,1.63h-.36ZM125.4,790.95c-.2.2-.29.43-.29.71s.09.5.29.7c.19.2.43.29.71.29s.52-.1.71-.29.29-.43.29-.7-.1-.5-.29-.7-.42-.3-.69-.3c-.29,0-.54.1-.73.3M126.54,791.25c.12.12.17.25.17.41s-.06.3-.17.42c-.12.11-.26.17-.42.17s-.31-.06-.43-.18c-.11-.12-.17-.25-.17-.41s.06-.3.17-.41c.12-.12.26-.18.44-.18.16,0,.3.06.42.18"/>
    <rect x="118.78" y="795.67" width="8.06" height="1"/>
    <path d="M126.87,804.91v-.64c-.35-.18-.71-.47-1.08-.89-.37-.42-.68-.9-.94-1.46h-.96c.12.31.29.66.51,1.05.23.39.46.7.69.94h-6.31v1h8.09ZM124.62,808.12h-1.13v1.14h1.13v-1.14ZM119.9,808.12h-1.13v1.14h1.13v-1.14Z"/>
    <path d="M119.25,811.4c-.41.47-.61,1.07-.61,1.81,0,.9.32,1.61.98,2.14.53.43,1.16.64,1.89.64s1.39-.25,1.88-.73c.49-.49.73-1.09.73-1.8,0-.54-.17-1.05-.5-1.54l2.16.44v3.25h.94v-4.05l-4.14-.79-.12.94c.23.15.42.35.57.61.14.26.21.55.21.87,0,.52-.16.94-.49,1.26-.33.32-.77.48-1.33.48-.59,0-1.07-.17-1.43-.5-.36-.33-.54-.74-.54-1.22,0-.4.13-.74.38-1.03.25-.28.63-.46,1.14-.54l-.09-1.05c-.68.07-1.22.34-1.63.8M119.47,817.82c-.56.45-.83,1.06-.83,1.85,0,.6.16,1.09.47,1.48.32.39.77.68,1.35.88.58.2,1.34.3,2.29.3.8,0,1.43-.06,1.9-.18.47-.12.87-.29,1.2-.5.33-.21.58-.49.76-.82.18-.33.26-.71.26-1.15,0-.59-.16-1.08-.47-1.47-.31-.39-.76-.68-1.34-.88-.58-.2-1.35-.3-2.3-.3-1.51,0-2.6.27-3.27.8M125.47,818.56c.38.27.58.64.58,1.1s-.22.86-.66,1.17-1.32.47-2.64.47-2.2-.15-2.64-.47c-.44-.31-.66-.7-.66-1.16s.22-.85.66-1.16c.44-.31,1.32-.47,2.64-.47s2.23.17,2.72.51"/>
    <polygon class="st13" points="118.78 1168.25 141.39 1179.38 134.64 1193.9 111.69 1182.76 118.78 1168.25"/>
    <polygon points="121.53 1173.99 132.88 1179.48 117.84 1181.6 116.89 1183.57 131.33 1190.56 132.22 1188.72 120.88 1183.23 135.9 1181.11 136.86 1179.14 122.42 1172.15 121.53 1173.99"/>
    <path d="M119.27,1110.12c-.42.47-.63,1.06-.63,1.78,0,.79.25,1.44.74,1.96.49.52,1.08.77,1.79.77.52,0,.95-.13,1.3-.4.35-.27.58-.64.68-1.12.17.37.4.65.68.84.29.19.61.28.95.28.36,0,.71-.1,1.04-.3.32-.2.58-.49.77-.86.19-.37.28-.78.28-1.23,0-.64-.18-1.18-.55-1.62-.36-.43-.88-.71-1.54-.83l-.18,1c.48.07.85.24,1.09.5s.36.58.36.97-.12.71-.36.96c-.24.25-.54.37-.9.37-.46,0-.79-.17-1.02-.51-.22-.34-.33-.72-.33-1.15,0-.04,0-.09,0-.16l-.87-.11c.07.28.11.51.11.7,0,.47-.15.84-.44,1.15-.29.3-.67.45-1.13.45s-.87-.16-1.2-.48c-.32-.32-.48-.72-.48-1.19,0-.4.12-.73.37-1.01.25-.28.65-.47,1.21-.59l-.13-1c-.67.07-1.22.34-1.64.81M118.78,1116.66h3.03c.53,0,.94.05,1.22.16.29.1.5.28.64.52.15.24.22.5.22.78,0,.37-.11.63-.33.8-.22.16-.55.25-.99.25h-3.79v1h3.39c.6,0,1.04.14,1.31.41.27.28.41.62.41,1.03,0,.23-.05.43-.16.6-.11.17-.25.28-.42.35-.18.07-.46.1-.85.1h-3.68v.99h4.01c.66,0,1.16-.16,1.48-.47.32-.32.48-.76.48-1.35,0-.75-.34-1.36-1.02-1.82.32-.12.57-.31.75-.59.18-.28.27-.64.27-1.07,0-.39-.08-.74-.26-1.05-.17-.31-.41-.55-.69-.74h.82v-.89h-5.84v1Z"/>
    <rect class="st13" x="1182.33" y="440.54" width="18.9" height="102.27"/>
    <path d="M1197.78,446.81v-.95c-.52-.26-1.05-.7-1.61-1.32-.55-.62-1.02-1.34-1.41-2.17h-1.43c.17.46.43.98.77,1.56.34.58.68,1.04,1.02,1.4h-9.41v1.48h12.07ZM1187.38,451.52h-1.68v1.69h1.68v-1.69ZM1187.41,456.18c-.64.42-1.11,1-1.43,1.74-.32.74-.47,1.65-.47,2.74,0,.86.16,1.63.47,2.32.31.69.76,1.22,1.32,1.58.57.37,1.17.55,1.81.55s1.22-.17,1.71-.5c.49-.34.9-.85,1.22-1.56.22-.48.47-1.37.77-2.67.29-1.3.58-2.1.86-2.41.28-.31.63-.47,1.07-.47.5,0,.92.22,1.27.66.36.44.53,1.15.53,2.11s-.19,1.63-.58,2.1c-.39.47-.96.75-1.72.83l.11,1.53c.7-.03,1.34-.23,1.9-.59.56-.37.98-.9,1.27-1.58.29-.68.43-1.47.43-2.37,0-.81-.13-1.55-.41-2.21-.27-.66-.67-1.17-1.2-1.51-.53-.35-1.1-.52-1.71-.52-.55,0-1.05.14-1.5.42-.44.28-.82.71-1.12,1.29-.23.44-.49,1.22-.75,2.33-.27,1.11-.46,1.82-.59,2.15-.19.51-.43.87-.71,1.09-.28.22-.61.33-.99.33s-.72-.11-1.03-.34c-.31-.23-.56-.58-.74-1.04-.18-.47-.27-1-.27-1.61,0-.68.12-1.3.36-1.85.24-.55.55-.96.94-1.22.38-.26.88-.43,1.48-.5l-.13-1.51c-.81.02-1.52.25-2.16.66M1185.7,473.19v1.55c.33-.19.68-.31,1.04-.37s1.23-.09,2.6-.09h1.97c.66,0,1.11-.03,1.36-.07.4-.09.74-.24,1-.46.26-.22.48-.56.66-1.03.18-.47.26-1.07.26-1.82s-.1-1.41-.31-1.98c-.21-.57-.5-1.01-.88-1.31s-.88-.52-1.5-.65l-.2,1.45c.62.16,1.05.41,1.29.74.24.33.36.85.36,1.55,0,.75-.17,1.31-.5,1.69-.24.28-.67.42-1.27.42-.05,0-.18,0-.39,0-.2-.57-.37-1.45-.51-2.64-.07-.58-.14-1.03-.22-1.32-.11-.39-.27-.75-.48-1.06-.21-.32-.5-.57-.85-.76s-.74-.29-1.17-.29c-.73,0-1.33.26-1.8.77-.46.51-.7,1.25-.7,2.21,0,.58.1,1.13.29,1.63.19.51.52,1.04.98,1.58-.41.05-.77.14-1.07.3M1189.53,472.77c-.65,0-1.14-.08-1.47-.24-.44-.21-.77-.53-1.02-.98-.25-.44-.37-.95-.37-1.52s.13-1.02.39-1.31c.26-.3.59-.45.98-.45.26,0,.49.07.7.21.21.14.37.33.48.58.11.25.21.68.3,1.29.15,1.08.34,1.88.56,2.42h-.54ZM1197.73,476.62h-12.03v1.48h12.03v-1.48ZM1194.41,480.89h-1.68v1.69h1.68v-1.69ZM1187.38,480.89h-1.68v1.69h1.68v-1.69ZM1196.98,496.19c.53-.61.79-1.38.79-2.33,0-1.27-.46-2.28-1.38-3.03-1.05-.86-2.75-1.29-5.07-1.29-2.08,0-3.57.39-4.48,1.17-.91.78-1.36,1.78-1.36,3.02,0,.72.17,1.37.51,1.94.35.57.84,1.02,1.49,1.34.65.33,1.35.49,2.11.49,1.15,0,2.08-.35,2.81-1.04.73-.69,1.09-1.54,1.09-2.52,0-.56-.13-1.1-.39-1.62-.26-.51-.67-.95-1.21-1.31,1.2.01,2.13.15,2.78.42.65.26,1.15.63,1.49,1.1.26.35.39.77.39,1.24,0,.59-.21,1.08-.63,1.48-.26.24-.68.43-1.26.56l.11,1.47c.94-.12,1.67-.49,2.2-1.09M1191.48,491.93c.48.47.72,1.04.72,1.7s-.24,1.23-.72,1.68c-.48.45-1.13.67-1.96.67s-1.55-.22-2.05-.67c-.5-.45-.76-.99-.76-1.62,0-.43.12-.83.36-1.22.24-.39.6-.69,1.06-.91.46-.22.95-.33,1.46-.33.77,0,1.4.23,1.88.7M1187.38,499.89h-1.68v1.68h1.68v-1.68ZM1185.7,508.95c0,.77.07,1.42.2,1.95.13.53.33.97.6,1.32s.64.64,1.12.89c.48.24,1.01.36,1.57.36.7,0,1.31-.2,1.82-.59.51-.39.88-.95,1.09-1.68.28.57.65.99,1.1,1.27.46.28.94.42,1.45.42.55,0,1.08-.16,1.59-.47s.88-.75,1.12-1.31c.24-.55.36-1.29.36-2.21v-4.52h-12.02v4.6ZM1196.31,505.95v2.41c0,.87-.06,1.48-.17,1.84-.11.36-.32.63-.62.82-.3.19-.65.29-1.05.29-.42,0-.77-.11-1.05-.31-.28-.21-.48-.51-.6-.92-.09-.31-.14-.81-.14-1.52v-2.61h3.63ZM1191.26,505.95v2.79c0,.77-.07,1.35-.2,1.76-.13.41-.37.73-.7.96-.33.23-.72.35-1.17.35-.38,0-.72-.08-1.01-.24-.29-.16-.52-.36-.67-.61-.16-.25-.26-.55-.33-.92-.04-.21-.06-.57-.06-1.09v-3h4.13ZM1187.38,515.98h-1.68v1.68h1.68v-1.68ZM1197.78,525.49v-.96c-.52-.26-1.05-.69-1.61-1.32-.55-.62-1.02-1.34-1.41-2.17h-1.43c.17.46.43.98.77,1.56.34.58.68,1.05,1.02,1.4h-9.41v1.48h12.07ZM1187.38,530.2h-1.68v1.69h1.68v-1.69ZM1197.78,539.71v-.95c-.52-.26-1.05-.7-1.61-1.32-.55-.62-1.02-1.34-1.41-2.17h-1.43c.17.46.43.98.77,1.56.34.58.68,1.05,1.02,1.4h-9.41v1.48h12.07Z"/>
    <rect class="st13" x="1160.39" y="440.54" width="18.9" height="102.27"/>
    <path d="M1165.18,443.1c.26.16.53.37.8.62.26.25.77.82,1.51,1.71.9,1.06,1.6,1.83,2.12,2.29.51.46,1,.78,1.47.98.46.2.94.3,1.42.3.94,0,1.74-.34,2.38-1.01.64-.68.96-1.59.96-2.75s-.3-2.06-.89-2.74c-.6-.68-1.46-1.07-2.59-1.18l-.16,1.52c.76,0,1.35.22,1.77.65.43.43.64,1,.64,1.71,0,.67-.2,1.22-.6,1.64-.4.42-.9.63-1.48.63s-1.15-.23-1.77-.69c-.62-.46-1.48-1.34-2.55-2.66-.69-.85-1.29-1.49-1.82-1.94-.52-.45-1.06-.77-1.6-.98-.33-.12-.67-.19-1.02-.17v7.97h1.42v-5.91ZM1165.44,451.52h-1.68v1.69h1.68v-1.69ZM1165.47,456.18c-.64.42-1.11,1-1.43,1.74-.32.74-.47,1.65-.47,2.74,0,.86.16,1.63.47,2.32.31.69.76,1.22,1.32,1.58.56.37,1.17.55,1.81.55s1.21-.17,1.71-.5.9-.85,1.22-1.56c.22-.48.47-1.37.77-2.67.29-1.3.58-2.1.86-2.41.28-.31.64-.47,1.07-.47.5,0,.92.22,1.28.66.35.44.53,1.15.53,2.11s-.2,1.63-.59,2.1c-.39.47-.96.75-1.72.83l.12,1.53c.71-.03,1.34-.23,1.9-.59.56-.37.98-.9,1.27-1.58.29-.68.43-1.47.43-2.37,0-.81-.13-1.55-.41-2.21-.27-.66-.67-1.17-1.2-1.51-.53-.35-1.09-.52-1.7-.52-.55,0-1.05.14-1.5.42-.44.28-.82.71-1.12,1.29-.23.44-.48,1.22-.75,2.33-.27,1.11-.46,1.82-.59,2.15-.19.51-.43.87-.71,1.09-.28.22-.61.33-.99.33s-.72-.11-1.03-.34c-.31-.23-.56-.58-.74-1.04-.18-.47-.27-1-.27-1.61,0-.68.12-1.3.36-1.85.24-.55.55-.96.94-1.22.38-.26.88-.43,1.48-.5l-.13-1.51c-.8.02-1.52.25-2.16.66M1163.76,473.19v1.55c.33-.19.68-.31,1.04-.37.36-.06,1.23-.09,2.6-.09h1.97c.66,0,1.11-.03,1.36-.07.4-.09.74-.24,1-.46.26-.22.48-.56.66-1.03.17-.47.26-1.07.26-1.82s-.1-1.41-.31-1.98c-.21-.57-.5-1.01-.88-1.31-.38-.3-.88-.52-1.5-.65l-.2,1.45c.62.16,1.05.41,1.29.74.24.33.36.85.36,1.55,0,.75-.17,1.31-.5,1.69-.24.28-.67.42-1.27.42-.05,0-.18,0-.39,0-.2-.57-.36-1.45-.51-2.64-.07-.58-.14-1.03-.22-1.32-.11-.39-.27-.75-.48-1.06-.21-.32-.5-.57-.85-.76s-.74-.29-1.17-.29c-.73,0-1.33.26-1.8.77-.46.51-.7,1.25-.7,2.21,0,.58.1,1.13.29,1.63.19.51.52,1.04.98,1.58-.41.05-.77.14-1.07.3M1167.59,472.77c-.65,0-1.14-.08-1.47-.24-.43-.21-.77-.53-1.02-.98-.25-.44-.37-.95-.37-1.52s.13-1.02.39-1.31c.26-.3.59-.45.98-.45.26,0,.49.07.7.21.21.14.37.33.48.58.11.25.21.68.3,1.29.15,1.08.34,1.88.56,2.42h-.54ZM1175.79,476.62h-12.03v1.48h12.03v-1.48ZM1172.47,480.89h-1.68v1.69h1.68v-1.69ZM1165.44,480.89h-1.68v1.69h1.68v-1.69ZM1175.04,496.19c.53-.61.79-1.38.79-2.33,0-1.27-.46-2.28-1.38-3.03-1.05-.86-2.75-1.29-5.07-1.29-2.08,0-3.57.39-4.48,1.17-.91.78-1.36,1.78-1.36,3.02,0,.72.17,1.37.51,1.94.35.57.84,1.02,1.49,1.34.65.33,1.35.49,2.11.49,1.15,0,2.08-.35,2.81-1.04.73-.69,1.09-1.54,1.09-2.52,0-.56-.13-1.1-.39-1.62-.26-.51-.67-.95-1.21-1.31,1.2.01,2.13.15,2.78.42.65.26,1.15.63,1.49,1.1.26.35.39.77.39,1.24,0,.59-.21,1.08-.63,1.48-.26.24-.68.43-1.26.56l.11,1.47c.94-.12,1.67-.49,2.2-1.09M1169.54,491.93c.48.47.72,1.04.72,1.7s-.24,1.23-.72,1.68c-.48.45-1.13.67-1.96.67s-1.55-.22-2.05-.67c-.5-.45-.76-.99-.76-1.62,0-.43.12-.83.37-1.22.24-.39.6-.69,1.06-.91.47-.22.95-.33,1.46-.33.77,0,1.4.23,1.88.7M1165.44,499.89h-1.68v1.68h1.68v-1.68ZM1163.76,508.95c0,.77.07,1.42.2,1.95.13.53.33.97.6,1.32s.64.64,1.12.89c.48.24,1.01.36,1.57.36.7,0,1.31-.2,1.82-.59.51-.39.88-.95,1.09-1.68.28.57.65.99,1.1,1.27.46.28.94.42,1.45.42.55,0,1.08-.16,1.59-.47s.88-.75,1.12-1.31c.24-.55.36-1.29.36-2.21v-4.52h-12.02v4.6ZM1174.37,505.95v2.41c0,.87-.06,1.48-.17,1.84-.11.36-.32.63-.62.82-.3.19-.65.29-1.05.29-.42,0-.77-.11-1.05-.31-.28-.21-.48-.51-.6-.92-.09-.31-.14-.81-.14-1.52v-2.61h3.63ZM1169.32,505.95v2.79c0,.77-.07,1.35-.2,1.76-.13.41-.37.73-.7.96-.33.23-.72.35-1.17.35-.38,0-.72-.08-1.01-.24-.29-.16-.52-.36-.67-.61-.16-.25-.26-.55-.33-.92-.04-.21-.05-.57-.05-1.09v-3h4.13ZM1165.44,515.98h-1.68v1.68h1.68v-1.68ZM1165.18,521.78c.26.16.53.37.8.62.26.25.77.82,1.51,1.71.9,1.07,1.6,1.83,2.12,2.29.51.46,1,.79,1.47.98.46.2.94.3,1.42.3.94,0,1.74-.34,2.38-1.01.64-.68.96-1.59.96-2.75s-.3-2.06-.89-2.74c-.6-.68-1.46-1.07-2.59-1.18l-.16,1.52c.76,0,1.35.22,1.77.65.43.43.64,1,.64,1.71,0,.67-.2,1.22-.6,1.64-.4.42-.9.63-1.48.63s-1.15-.23-1.77-.69c-.62-.46-1.48-1.35-2.55-2.66-.69-.85-1.29-1.49-1.82-1.94-.52-.45-1.06-.77-1.6-.98-.33-.12-.67-.19-1.02-.17v7.97h1.42v-5.91ZM1165.44,530.2h-1.68v1.69h1.68v-1.69ZM1175.84,539.71v-.95c-.52-.26-1.05-.7-1.61-1.32-.55-.62-1.02-1.34-1.41-2.17h-1.43c.17.46.43.98.77,1.56.34.58.68,1.05,1.02,1.4h-9.41v1.48h12.07Z"/>
    <rect class="st13" x="1135.75" y="440.54" width="18.9" height="102.27"/>
    <path d="M1139.86,442.44c-.63.7-.95,1.58-.95,2.64,0,1.18.36,2.15,1.1,2.92.73.77,1.62,1.15,2.67,1.15.78,0,1.43-.2,1.94-.59.52-.4.86-.95,1.02-1.66.25.55.59.96,1.02,1.24.43.28.9.42,1.42.42.55,0,1.07-.15,1.55-.44.49-.29.87-.72,1.15-1.27.28-.56.42-1.16.42-1.82,0-.95-.27-1.75-.82-2.39-.55-.64-1.31-1.06-2.3-1.24l-.26,1.48c.72.11,1.26.35,1.62.74.36.38.54.87.54,1.44s-.18,1.05-.53,1.42c-.36.37-.81.55-1.35.55-.68,0-1.19-.25-1.52-.76-.33-.5-.49-1.07-.49-1.7,0-.06,0-.14.01-.24l-1.29-.16c.11.42.16.76.16,1.04,0,.69-.22,1.25-.66,1.7-.44.44-1,.67-1.68.67s-1.31-.24-1.79-.72c-.48-.48-.72-1.07-.72-1.76,0-.59.18-1.08.55-1.49.37-.41.98-.7,1.81-.87l-.2-1.48c-1,.1-1.82.5-2.44,1.19M1140.81,451.52h-1.68v1.69h1.68v-1.69ZM1140.83,456.18c-.64.42-1.11,1-1.43,1.74-.32.74-.47,1.65-.47,2.74,0,.86.16,1.63.47,2.32.31.69.76,1.22,1.32,1.58.57.37,1.17.55,1.81.55s1.22-.17,1.71-.5.9-.85,1.23-1.56c.22-.48.47-1.37.77-2.67.29-1.3.58-2.1.86-2.41.28-.31.63-.47,1.07-.47.5,0,.92.22,1.28.66.35.44.53,1.15.53,2.11s-.2,1.63-.58,2.1c-.39.47-.96.75-1.72.83l.12,1.53c.7-.03,1.34-.23,1.9-.59.56-.37.98-.9,1.27-1.58.29-.68.43-1.47.43-2.37,0-.81-.14-1.55-.41-2.21-.27-.66-.67-1.17-1.2-1.51-.53-.35-1.09-.52-1.7-.52-.55,0-1.05.14-1.5.42-.44.28-.82.71-1.12,1.29-.23.44-.49,1.22-.75,2.33-.27,1.11-.46,1.82-.59,2.15-.19.51-.43.87-.71,1.09-.28.22-.61.33-.99.33s-.72-.11-1.03-.34c-.31-.23-.56-.58-.74-1.04-.18-.47-.27-1-.27-1.61,0-.68.12-1.3.36-1.85.24-.55.55-.96.94-1.22.38-.26.88-.43,1.48-.5l-.13-1.51c-.8.02-1.52.25-2.16.66M1139.12,473.19v1.55c.34-.19.68-.31,1.05-.37s1.23-.09,2.6-.09h1.97c.65,0,1.11-.03,1.36-.07.4-.09.74-.24,1-.46.26-.22.48-.56.66-1.03.17-.47.26-1.07.26-1.82s-.1-1.41-.31-1.98-.5-1.01-.88-1.31-.88-.52-1.5-.65l-.2,1.45c.61.16,1.05.41,1.29.74.24.33.36.85.36,1.55,0,.75-.17,1.31-.5,1.69-.24.28-.67.42-1.27.42-.06,0-.18,0-.39,0-.2-.57-.37-1.45-.51-2.64-.07-.58-.14-1.03-.22-1.32-.11-.39-.27-.75-.48-1.06-.21-.32-.49-.57-.85-.76s-.74-.29-1.17-.29c-.73,0-1.33.26-1.79.77-.47.51-.7,1.25-.7,2.21,0,.58.1,1.13.29,1.63.19.51.52,1.04.98,1.58-.41.05-.77.14-1.08.3M1142.96,472.77c-.65,0-1.14-.08-1.48-.24-.43-.21-.77-.53-1.02-.98-.25-.44-.37-.95-.37-1.52s.13-1.02.39-1.31c.26-.3.59-.45.98-.45.26,0,.49.07.7.21.21.14.37.33.48.58.11.25.21.68.29,1.29.15,1.08.34,1.88.56,2.42h-.54ZM1151.15,476.62h-12.03v1.48h12.03v-1.48ZM1147.84,480.89h-1.68v1.69h1.68v-1.69ZM1140.81,480.89h-1.68v1.69h1.68v-1.69ZM1150.41,496.19c.53-.61.79-1.38.79-2.33,0-1.27-.46-2.28-1.38-3.03-1.06-.86-2.75-1.29-5.07-1.29-2.08,0-3.57.39-4.48,1.17-.91.78-1.36,1.78-1.36,3.02,0,.72.17,1.37.51,1.94.35.57.84,1.02,1.49,1.34.65.33,1.35.49,2.11.49,1.15,0,2.08-.35,2.81-1.04.73-.69,1.09-1.54,1.09-2.52,0-.56-.13-1.1-.39-1.62-.26-.51-.67-.95-1.21-1.31,1.2.01,2.13.15,2.78.42.65.26,1.15.63,1.48,1.1.27.35.4.77.4,1.24,0,.59-.21,1.08-.63,1.48-.26.24-.68.43-1.26.56l.12,1.47c.94-.12,1.67-.49,2.2-1.09M1144.9,491.93c.48.47.72,1.04.72,1.7s-.24,1.23-.72,1.68c-.48.45-1.13.67-1.97.67s-1.55-.22-2.05-.67c-.5-.45-.76-.99-.76-1.62,0-.43.12-.83.36-1.22.24-.39.6-.69,1.06-.91.46-.22.95-.33,1.46-.33.78,0,1.41.23,1.88.7M1140.81,499.89h-1.68v1.68h1.68v-1.68ZM1139.12,508.95c0,.77.07,1.42.2,1.95.13.53.33.97.6,1.32s.63.64,1.12.89c.48.24,1.01.36,1.57.36.7,0,1.31-.2,1.82-.59.51-.39.88-.95,1.09-1.68.28.57.65.99,1.1,1.27.46.28.94.42,1.45.42.55,0,1.08-.16,1.59-.47.51-.32.88-.75,1.12-1.31.24-.55.36-1.29.36-2.21v-4.52h-12.03v4.6ZM1149.73,505.95v2.41c0,.87-.06,1.48-.17,1.84-.11.36-.32.63-.62.82-.3.19-.65.29-1.05.29-.42,0-.77-.11-1.05-.31-.28-.21-.48-.51-.6-.92-.09-.31-.14-.81-.14-1.52v-2.61h3.63ZM1144.68,505.95v2.79c0,.77-.07,1.35-.2,1.76-.13.41-.37.73-.7.96-.33.23-.72.35-1.17.35-.38,0-.72-.08-1.01-.24-.29-.16-.52-.36-.67-.61-.16-.25-.26-.55-.33-.92-.04-.21-.06-.57-.06-1.09v-3h4.13ZM1140.81,515.98h-1.68v1.68h1.68v-1.68ZM1139.86,521.11c-.63.7-.95,1.58-.95,2.64,0,1.17.36,2.15,1.1,2.91.73.77,1.62,1.15,2.67,1.15.78,0,1.43-.2,1.94-.59.52-.4.86-.95,1.02-1.66.25.55.59.96,1.02,1.24.43.28.9.42,1.42.42.55,0,1.07-.15,1.55-.44.49-.29.87-.72,1.15-1.27.28-.56.42-1.16.42-1.82,0-.95-.27-1.75-.82-2.4-.55-.64-1.31-1.05-2.3-1.23l-.26,1.48c.72.11,1.26.36,1.62.74.36.38.54.87.54,1.44s-.18,1.05-.53,1.42c-.36.37-.81.55-1.35.55-.68,0-1.19-.25-1.52-.76-.33-.5-.49-1.07-.49-1.7,0-.06,0-.14.01-.24l-1.29-.16c.11.42.16.76.16,1.04,0,.69-.22,1.25-.66,1.7-.44.44-1,.67-1.68.67s-1.31-.24-1.79-.72c-.48-.48-.72-1.07-.72-1.76,0-.59.18-1.08.55-1.49.37-.41.98-.7,1.81-.87l-.2-1.48c-1,.1-1.82.5-2.44,1.19M1140.81,530.2h-1.68v1.69h1.68v-1.69ZM1151.2,539.71v-.95c-.52-.26-1.05-.7-1.61-1.32-.55-.62-1.02-1.34-1.41-2.17h-1.43c.17.46.43.98.77,1.56.34.58.68,1.05,1.02,1.4h-9.41v1.48h12.08Z"/>
    <rect class="st13" x="1112.46" y="440.54" width="18.9" height="102.27"/>
    <path d="M1115.84,447.46h2.88v1.63h1.35v-1.63h7.79v-1.21l-7.79-5.5h-1.35v5.23h-2.88v1.48ZM1120.07,442.21l5.42,3.78h-5.42v-3.78ZM1117.52,451.52h-1.68v1.69h1.68v-1.69ZM1117.54,456.18c-.64.42-1.11,1-1.43,1.74-.32.74-.47,1.65-.47,2.74,0,.86.16,1.63.47,2.32.31.69.76,1.22,1.32,1.58.57.37,1.17.55,1.81.55s1.22-.17,1.71-.5.9-.85,1.23-1.56c.22-.48.47-1.37.77-2.67.29-1.3.58-2.1.86-2.41.28-.31.63-.47,1.07-.47.5,0,.92.22,1.27.66.36.44.53,1.15.53,2.11s-.2,1.63-.58,2.1c-.39.47-.96.75-1.72.83l.12,1.53c.7-.03,1.34-.23,1.9-.59.56-.37.98-.9,1.27-1.58.29-.68.43-1.47.43-2.37,0-.81-.13-1.55-.41-2.21-.27-.66-.67-1.17-1.2-1.51-.53-.35-1.09-.52-1.7-.52-.55,0-1.05.14-1.5.42-.44.28-.82.71-1.12,1.29-.23.44-.49,1.22-.75,2.33-.27,1.11-.46,1.82-.59,2.15-.19.51-.43.87-.71,1.09-.28.22-.61.33-.99.33s-.72-.11-1.03-.34c-.31-.23-.56-.58-.74-1.04-.18-.47-.27-1-.27-1.61,0-.68.12-1.3.35-1.85.24-.55.55-.96.94-1.22.39-.26.88-.43,1.48-.5l-.13-1.51c-.81.02-1.52.25-2.16.66M1115.84,473.19v1.55c.33-.19.68-.31,1.04-.37s1.23-.09,2.6-.09h1.97c.66,0,1.11-.03,1.36-.07.4-.09.74-.24,1-.46.26-.22.48-.56.66-1.03.17-.47.26-1.07.26-1.82s-.1-1.41-.31-1.98-.5-1.01-.88-1.31-.88-.52-1.5-.65l-.2,1.45c.61.16,1.05.41,1.29.74.24.33.36.85.36,1.55,0,.75-.17,1.31-.5,1.69-.24.28-.67.42-1.27.42-.05,0-.18,0-.39,0-.2-.57-.37-1.45-.51-2.64-.07-.58-.14-1.03-.22-1.32-.11-.39-.27-.75-.48-1.06-.21-.32-.49-.57-.85-.76s-.74-.29-1.17-.29c-.73,0-1.33.26-1.8.77-.47.51-.7,1.25-.7,2.21,0,.58.1,1.13.29,1.63.19.51.52,1.04.98,1.58-.41.05-.77.14-1.07.3M1119.67,472.77c-.65,0-1.14-.08-1.48-.24-.43-.21-.77-.53-1.02-.98-.25-.44-.37-.95-.37-1.52s.13-1.02.39-1.31c.26-.3.59-.45.98-.45.26,0,.49.07.7.21.21.14.37.33.48.58.11.25.21.68.3,1.29.15,1.08.34,1.88.55,2.42h-.54ZM1127.86,476.62h-12.02v1.48h12.02v-1.48ZM1124.55,480.89h-1.68v1.69h1.68v-1.69ZM1117.52,480.89h-1.68v1.69h1.68v-1.69ZM1127.12,496.19c.53-.61.79-1.38.79-2.33,0-1.27-.46-2.28-1.38-3.03-1.05-.86-2.75-1.29-5.07-1.29-2.08,0-3.57.39-4.48,1.17-.91.78-1.36,1.78-1.36,3.02,0,.72.17,1.37.51,1.94.35.57.84,1.02,1.49,1.34.65.33,1.35.49,2.11.49,1.15,0,2.08-.35,2.81-1.04.72-.69,1.09-1.54,1.09-2.52,0-.56-.13-1.1-.39-1.62-.26-.51-.67-.95-1.21-1.31,1.2.01,2.13.15,2.78.42.65.26,1.15.63,1.48,1.1.27.35.4.77.4,1.24,0,.59-.21,1.08-.63,1.48-.26.24-.68.43-1.26.56l.12,1.47c.94-.12,1.67-.49,2.2-1.09M1121.61,491.93c.48.47.72,1.04.72,1.7s-.24,1.23-.72,1.68c-.48.45-1.13.67-1.96.67s-1.55-.22-2.05-.67c-.5-.45-.76-.99-.76-1.62,0-.43.12-.83.37-1.22.24-.39.6-.69,1.06-.91.46-.22.95-.33,1.46-.33.78,0,1.41.23,1.88.7M1117.52,499.89h-1.68v1.68h1.68v-1.68ZM1115.84,508.95c0,.77.07,1.42.2,1.95.13.53.33.97.6,1.32s.63.64,1.12.89c.48.24,1.01.36,1.57.36.7,0,1.31-.2,1.82-.59.51-.39.88-.95,1.09-1.68.28.57.65.99,1.1,1.27.46.28.94.42,1.45.42.55,0,1.08-.16,1.59-.47.51-.32.88-.75,1.12-1.31.24-.55.36-1.29.36-2.21v-4.52h-12.02v4.6ZM1126.44,505.95v2.41c0,.87-.06,1.48-.17,1.84-.11.36-.32.63-.62.82-.3.19-.65.29-1.05.29-.42,0-.77-.11-1.05-.31-.28-.21-.48-.51-.6-.92-.09-.31-.14-.81-.14-1.52v-2.61h3.63ZM1121.39,505.95v2.79c0,.77-.07,1.35-.2,1.76-.14.41-.37.73-.7.96-.33.23-.72.35-1.17.35-.38,0-.72-.08-1.01-.24-.29-.16-.52-.36-.67-.61-.16-.25-.26-.55-.33-.92-.04-.21-.06-.57-.06-1.09v-3h4.13ZM1117.52,515.98h-1.68v1.68h1.68v-1.68ZM1115.84,526.14h2.88v1.63h1.35v-1.63h7.79v-1.21l-7.79-5.5h-1.35v5.23h-2.88v1.48ZM1120.07,520.88l5.42,3.78h-5.42v-3.78ZM1117.52,530.2h-1.68v1.69h1.68v-1.69ZM1127.91,539.71v-.95c-.52-.26-1.05-.7-1.61-1.32-.55-.62-1.02-1.34-1.41-2.17h-1.43c.17.46.43.98.77,1.56.34.58.68,1.05,1.02,1.4h-9.41v1.48h12.07Z"/>
    <rect class="st13" x="1089.51" y="440.54" width="18.9" height="102.27"/>
    <path d="M1093.6,442.42c-.61.7-.92,1.59-.92,2.69,0,1.34.48,2.4,1.46,3.17.79.63,1.73.95,2.82.95s2.08-.36,2.8-1.09c.73-.72,1.09-1.61,1.09-2.67,0-.79-.25-1.55-.76-2.28l3.23.65v4.81h1.41v-6l-6.17-1.17-.18,1.39c.35.22.62.52.84.9.21.38.33.81.33,1.29,0,.77-.25,1.39-.73,1.87-.49.47-1.15.71-1.99.71-.89,0-1.6-.25-2.13-.74-.54-.49-.81-1.1-.81-1.81,0-.59.19-1.1.57-1.52.38-.42.95-.69,1.7-.8l-.13-1.56c-1.01.1-1.82.49-2.43,1.19M1094.56,451.52h-1.68v1.69h1.68v-1.69ZM1094.59,456.18c-.64.42-1.11,1-1.43,1.74-.32.74-.47,1.65-.47,2.74,0,.86.16,1.63.47,2.32.31.69.76,1.22,1.32,1.58.56.37,1.17.55,1.81.55s1.22-.17,1.71-.5c.49-.34.9-.85,1.23-1.56.22-.48.47-1.37.77-2.67.29-1.3.58-2.1.86-2.41.28-.31.64-.47,1.07-.47.5,0,.92.22,1.27.66.36.44.53,1.15.53,2.11s-.2,1.63-.58,2.1c-.39.47-.96.75-1.72.83l.12,1.53c.7-.03,1.34-.23,1.9-.59.56-.37.98-.9,1.27-1.58.29-.68.43-1.47.43-2.37,0-.81-.13-1.55-.41-2.21-.27-.66-.67-1.17-1.2-1.51-.53-.35-1.1-.52-1.71-.52-.55,0-1.05.14-1.5.42-.44.28-.82.71-1.12,1.29-.23.44-.49,1.22-.75,2.33-.27,1.11-.46,1.82-.59,2.15-.19.51-.43.87-.71,1.09-.28.22-.61.33-.99.33s-.72-.11-1.03-.34c-.31-.23-.56-.58-.74-1.04-.18-.47-.27-1-.27-1.61,0-.68.12-1.3.36-1.85.24-.55.55-.96.94-1.22.38-.26.88-.43,1.48-.5l-.13-1.51c-.81.02-1.52.25-2.16.66M1092.88,473.19v1.55c.33-.19.68-.31,1.04-.37s1.23-.09,2.6-.09h1.97c.66,0,1.11-.03,1.36-.07.4-.09.74-.24,1-.46.26-.22.48-.56.66-1.03.17-.47.26-1.07.26-1.82s-.1-1.41-.31-1.98-.5-1.01-.88-1.31-.88-.52-1.5-.65l-.2,1.45c.61.16,1.05.41,1.29.74.24.33.36.85.36,1.55,0,.75-.17,1.31-.5,1.69-.24.28-.67.42-1.27.42-.05,0-.18,0-.39,0-.2-.57-.37-1.45-.51-2.64-.07-.58-.14-1.03-.22-1.32-.11-.39-.27-.75-.48-1.06-.21-.32-.5-.57-.85-.76s-.74-.29-1.17-.29c-.73,0-1.33.26-1.8.77-.46.51-.7,1.25-.7,2.21,0,.58.1,1.13.29,1.63.19.51.52,1.04.98,1.58-.41.05-.77.14-1.07.3M1096.71,472.77c-.65,0-1.14-.08-1.48-.24-.43-.21-.77-.53-1.02-.98-.25-.44-.37-.95-.37-1.52s.13-1.02.39-1.31c.26-.3.59-.45.98-.45.26,0,.49.07.7.21.21.14.37.33.48.58.11.25.21.68.3,1.29.15,1.08.34,1.88.55,2.42h-.54ZM1104.91,476.62h-12.03v1.48h12.03v-1.48ZM1101.59,480.89h-1.68v1.69h1.68v-1.69ZM1094.56,480.89h-1.68v1.69h1.68v-1.69ZM1104.16,496.19c.53-.61.79-1.38.79-2.33,0-1.27-.46-2.28-1.38-3.03-1.05-.86-2.75-1.29-5.07-1.29-2.08,0-3.57.39-4.48,1.17-.91.78-1.36,1.78-1.36,3.02,0,.72.17,1.37.51,1.94.35.57.84,1.02,1.49,1.34.65.33,1.35.49,2.11.49,1.15,0,2.08-.35,2.81-1.04.72-.69,1.09-1.54,1.09-2.52,0-.56-.13-1.1-.39-1.62-.26-.51-.67-.95-1.21-1.31,1.2.01,2.13.15,2.78.42.65.26,1.15.63,1.49,1.1.26.35.39.77.39,1.24,0,.59-.21,1.08-.63,1.48-.26.24-.68.43-1.26.56l.12,1.47c.94-.12,1.67-.49,2.2-1.09M1098.66,491.93c.48.47.72,1.04.72,1.7s-.24,1.23-.72,1.68c-.48.45-1.13.67-1.96.67s-1.55-.22-2.05-.67c-.5-.45-.76-.99-.76-1.62,0-.43.12-.83.37-1.22.24-.39.6-.69,1.06-.91.46-.22.95-.33,1.46-.33.78,0,1.41.23,1.88.7M1094.56,499.89h-1.68v1.68h1.68v-1.68ZM1092.88,508.95c0,.77.07,1.42.2,1.95.13.53.33.97.6,1.32s.63.64,1.12.89c.48.24,1.01.36,1.57.36.7,0,1.31-.2,1.82-.59.51-.39.88-.95,1.09-1.68.28.57.65.99,1.1,1.27.46.28.94.42,1.45.42.55,0,1.08-.16,1.59-.47.51-.32.88-.75,1.12-1.31.24-.55.36-1.29.36-2.21v-4.52h-12.02v4.6ZM1103.49,505.95v2.41c0,.87-.06,1.48-.17,1.84-.11.36-.32.63-.62.82-.3.19-.65.29-1.05.29-.42,0-.77-.11-1.05-.31-.28-.21-.48-.51-.6-.92-.09-.31-.14-.81-.14-1.52v-2.61h3.63ZM1098.44,505.95v2.79c0,.77-.07,1.35-.2,1.76-.13.41-.37.73-.7.96-.33.23-.72.35-1.17.35-.38,0-.72-.08-1.01-.24-.29-.16-.52-.36-.67-.61-.16-.25-.26-.55-.33-.92-.04-.21-.05-.57-.05-1.09v-3h4.13ZM1094.56,515.98h-1.68v1.68h1.68v-1.68ZM1093.6,521.1c-.61.7-.92,1.59-.92,2.69,0,1.34.48,2.39,1.46,3.17.79.63,1.73.95,2.82.95s2.08-.36,2.8-1.09c.73-.72,1.09-1.61,1.09-2.66,0-.8-.25-1.56-.76-2.28l3.23.65v4.81h1.41v-6l-6.17-1.17-.18,1.39c.35.22.62.52.84.9.21.38.33.81.33,1.29,0,.77-.25,1.39-.73,1.86-.49.48-1.15.71-1.99.71-.89,0-1.6-.25-2.13-.74-.54-.49-.81-1.1-.81-1.81,0-.59.19-1.1.57-1.52.38-.42.95-.69,1.7-.8l-.13-1.56c-1.01.1-1.82.49-2.43,1.19M1094.56,530.2h-1.68v1.69h1.68v-1.69ZM1104.96,539.71v-.95c-.52-.26-1.05-.7-1.61-1.32-.55-.62-1.03-1.34-1.41-2.17h-1.43c.17.46.43.98.77,1.56.34.58.68,1.05,1.02,1.4h-9.41v1.48h12.07Z"/>
    <line class="st3" x1="690.55" y1="866.16" x2="810.03" y2="917.8"/>
  </g>
</svg>