<?xml version="1.0" encoding="UTF-8"?>
<svg id="Lag_1" xmlns="http://www.w3.org/2000/svg" version="1.1" viewBox="0 0 1200 1697.14">
  <!-- Generator: Adobe Illustrator 29.6.0, SVG Export Plug-In . SVG Version: 2.1.1 Build 207)  -->
  <defs>
    <style>
      .st0 {
        fill: #000016;
      }

      .st1 {
        stroke-dasharray: .06 .43;
      }

      .st1, .st2, .st3, .st4, .st5, .st6, .st7, .st8, .st9, .st10, .st11 {
        stroke-width: .18px;
      }

      .st1, .st2, .st3, .st4, .st6, .st7, .st8, .st9, .st10, .st11 {
        stroke-linejoin: round;
      }

      .st1, .st2, .st3, .st6, .st7, .st8, .st9, .st11 {
        stroke-linecap: round;
      }

      .st1, .st3, .st4, .st5, .st7, .st8, .st9, .st10, .st11 {
        stroke: #000;
      }

      .st1, .st3, .st4, .st6, .st7, .st8, .st11 {
        fill: none;
      }

      .st2 {
        stroke: #060305;
      }

      .st2, .st5, .st9, .st10 {
        fill: #fff;
      }

      .st12 {
        fill: #e8e3e0;
      }

      .st5 {
        stroke-miterlimit: 10;
      }

      .st6 {
        stroke: #767676;
      }

      .st13 {
        fill: #dbd7d5;
      }

      .st7 {
        stroke-dasharray: .06 .43;
      }

      .st8 {
        stroke-dasharray: .06 .42;
      }

      .st11 {
        stroke-dasharray: .06 .42;
      }
    </style>
  </defs>
  <polygon class="st12" points="627.84 956.55 654.66 956.55 654.66 724.71 549.02 724.71 549.02 985.72 627.84 985.72 627.84 956.55"/>
  <rect class="st13" x="548.5" y="858.74" width="105.21" height="52.82" transform="translate(1202.2 1770.29) rotate(-180)"/>
  <polyline class="st10" points="564.81 722.93 564.81 728.22 563.02 728.22 563.02 722.93 564.81 722.93"/>
  <polyline class="st4" points="615.69 722.93 564.81 722.93 564.81 724.71 615.69 724.64 615.69 722.93"/>
  <polyline class="st10" points="641.17 722.85 617.41 722.93 617.41 725.53 641.17 725.53 641.17 722.85"/>
  <polyline class="st10" points="642.89 722.85 642.96 728.14 641.17 728.14 641.17 722.85 642.89 722.85"/>
  <polyline class="st10" points="617.41 722.93 617.41 728.22 615.69 728.22 615.69 722.93 617.41 722.93"/>
  <line class="st4" x1="563.02" y1="721.81" x2="642.89" y2="721.73"/>
  <path class="st10" d="M635.81,893.19c0-.97.78-1.75,1.75-1.75s1.75.78,1.75,1.75c0,.97-.78,1.75-1.75,1.75s-1.75-.78-1.75-1.75"/>
  <line class="st4" x1="599.53" y1="928.69" x2="570.99" y2="928.69"/>
  <path class="st4" d="M571.07,928.65c0-15.74,12.76-28.5,28.5-28.5"/>
  <line class="st4" x1="599.53" y1="900.23" x2="599.53" y2="928.69"/>
  <line class="st4" x1="554.6" y1="985.76" x2="554.6" y2="957.22"/>
  <path class="st4" d="M554.64,957.22c15.74,0,28.5,12.76,28.5,28.5"/>
  <line class="st4" x1="583.14" y1="985.76" x2="554.6" y2="985.76"/>
  <polyline class="st10" points="602.51 938.9 623.59 938.9 623.59 981.14 602.51 981.14 602.51 938.9"/>
  <polyline class="st4" points="623.59 951.26 602.51 951.26 602.51 938.9 623.59 938.9 623.59 951.26"/>
  <line class="st4" x1="621.13" y1="945.3" x2="615.54" y2="945.3"/>
  <line class="st4" x1="610.55" y1="945.3" x2="604.97" y2="945.3"/>
  <line class="st4" x1="607.8" y1="948.06" x2="607.8" y2="942.47"/>
  <line class="st4" x1="618.3" y1="948.06" x2="618.3" y2="942.47"/>
  <polyline class="st4" points="606.01 977.64 620.09 977.64 620.09 963.56 606.01 963.56 606.01 977.64"/>
  <polyline class="st4" points="623.59 960.05 623.59 981.14 602.51 981.14 602.51 960.05 623.59 960.05"/>
  <line class="st4" x1="622.03" y1="970.63" x2="616.36" y2="970.63"/>
  <path class="st5" d="M633.7,941.46v-10.23c0-3.94,2.83-7.13,6.33-7.13,3.5,0,6.33,3.19,6.33,7.13v10.23h-12.65Z"/>
  <polygon class="st10" points="652.1 941.46 627.85 941.46 627.79 952.31 652.1 952.34 652.1 941.46"/>
  <rect class="st10" x="634.46" y="859.72" width="17.58" height="21.16"/>
  <rect class="st10" x="615.91" y="859.72" width="17.66" height="21.16"/>
  <rect class="st10" x="597.42" y="859.72" width="17.67" height="21.16"/>
  <path class="st10" d="M621.54,885.16v9.28c0,.21-.13.37-.3.37h-16.91c-.21,0-.37-.17-.37-.37v-9.28"/>
  <path class="st4" d="M612.08,886.88c0,.35.28.63.63.63s.63-.28.63-.63c0-.35-.28-.63-.63-.63s-.63.28-.63.63"/>
  <path class="st4" d="M611.93,891.35c0,.43.35.78.78.78s.78-.35.78-.78-.35-.78-.78-.78-.78.35-.78.78"/>
  <path class="st4" d="M611.56,891.35c0,.64.52,1.15,1.15,1.15s1.15-.52,1.15-1.15-.52-1.15-1.15-1.15-1.15.52-1.15,1.15"/>
  <path class="st4" d="M604.7,888.26h16.1c.21,0,.37.17.37.37v5.44c0,.2-.17.37-.37.37h-16.1c-.21,0-.37-.17-.37-.37v-5.44c0-.2.17-.37.37-.37Z"/>
  <g>
    <polyline class="st3" points="623.44 913.54 623.44 913.57 623.47 913.57"/>
    <line class="st1" x1="623.9" y1="913.57" x2="651.36" y2="913.57"/>
    <polyline class="st3" points="651.57 913.57 651.6 913.57 651.6 913.54"/>
    <line class="st1" x1="651.6" y1="913.11" x2="651.6" y2="885.65"/>
    <polyline class="st3" points="651.6 885.43 651.6 885.41 651.57 885.41"/>
    <line class="st1" x1="651.14" y1="885.41" x2="623.68" y2="885.41"/>
    <polyline class="st3" points="623.47 885.41 623.44 885.41 623.44 885.43"/>
    <line class="st1" x1="623.44" y1="885.86" x2="623.44" y2="913.32"/>
  </g>
  <line class="st4" x1="637.52" y1="885.41" x2="637.52" y2="893.23"/>
  <g>
    <path class="st3" d="M617.52,722.32s0-.02,0-.03"/>
    <path class="st8" d="M617.54,721.87c.28-3.09,3.07-12.2,3.79-12.2l19.29,12.95.23.16"/>
    <line class="st3" x1="641.04" y1="722.91" x2="641.06" y2="722.93"/>
  </g>
  <line class="st4" x1="627.84" y1="956.55" x2="657.19" y2="982.25"/>
  <line class="st4" x1="657.19" y1="956.55" x2="627.84" y2="982.25"/>
  <g>
    <g>
      <path class="st9" d="M555.57,783.87c0,4.57,3.94,8.27,8.8,8.27,3.58,0,7.12-2.34,8.34-5.63.17-.45.51-1.4.46-2.64-.16-3.89-4.02-8.27-8.8-8.27s-8.8,3.7-8.8,8.27Z"/>
      <path class="st3" d="M572.01,785.72c0,2.81-3.42,5.08-7.64,5.08"/>
      <path class="st3" d="M556.74,785.72c0,2.81,3.42,5.08,7.64,5.08"/>
      <path class="st3" d="M556.74,785.72c0-.55-.44-1-.98-1"/>
      <path class="st3" d="M572.01,785.72c0-.55.44-1,.98-1"/>
      <g>
        <path class="st9" d="M577.24,783.87c0,4.57,3.94,8.27,8.8,8.27,3.58,0,7.12-2.34,8.34-5.63.17-.45.51-1.4.46-2.64-.16-3.89-4.02-8.27-8.8-8.27s-8.8,3.7-8.8,8.27Z"/>
        <path class="st3" d="M593.68,785.72c0,2.81-3.42,5.08-7.64,5.08"/>
        <path class="st3" d="M578.4,785.72c0,2.81,3.42,5.08,7.64,5.08"/>
        <path class="st3" d="M578.4,785.72c0-.55-.44-1-.98-1"/>
        <path class="st3" d="M593.68,785.72c0-.55.48-1,1.06-1"/>
      </g>
    </g>
    <g>
      <path class="st9" d="M555.57,756.62c0-4.57,3.94-8.27,8.8-8.27,3.58,0,7.12,2.34,8.34,5.63.17.45.51,1.4.46,2.64-.16,3.89-4.02,8.27-8.8,8.27s-8.8-3.7-8.8-8.27Z"/>
      <path class="st3" d="M572.01,754.77c0-2.81-3.42-5.08-7.64-5.08"/>
      <path class="st3" d="M556.74,754.77c0-2.81,3.42-5.08,7.64-5.08"/>
      <path class="st3" d="M556.74,754.77c0,.55-.44,1-.98,1"/>
      <path class="st3" d="M572.01,754.77c0,.55.44,1,.98,1"/>
      <g>
        <path class="st9" d="M577.24,756.62c0-4.57,3.94-8.27,8.8-8.27,3.58,0,7.12,2.34,8.34,5.63.17.45.51,1.4.46,2.64-.16,3.89-4.02,8.27-8.8,8.27s-8.8-3.7-8.8-8.27Z"/>
        <path class="st3" d="M593.68,754.77c0-2.81-3.42-5.08-7.64-5.08"/>
        <path class="st3" d="M578.4,754.77c0-2.81,3.42-5.08,7.64-5.08"/>
        <path class="st3" d="M578.4,754.77c0,.55-.44,1-.98,1"/>
        <path class="st3" d="M593.68,754.77c0,.55.48,1,1.06,1"/>
      </g>
    </g>
    <rect class="st9" x="563.77" y="748.12" width="22.88" height="44.84" transform="translate(1345.75 195.34) rotate(90)"/>
  </g>
  <circle class="st2" cx="616.37" cy="827.25" r="9.65"/>
  <g>
    <path class="st2" d="M630.27,837.29c-1.24-7.61-1.37-15.4-.37-23.06,0-.33.19-.61.47-.69,6.41-.02,12.83-.05,19.24-.07"/>
    <path class="st2" d="M630.27,837.29c.02.13.11.22.22.23h18.86l.26-24.07c-6.41-.02-12.83-.05-19.24-.07-.27-.07-.47-.36-.47-.69-.99-7.66-.87-15.45.37-23.06.02-.13.11-.22.22-.23h19.12v24.05"/>
    <path class="st2" d="M650.59,837.19c-.6.07-1.19.08-1.79.01-.12-.02-.2-.13-.2-.27-.18-7.69-.22-15.38-.13-23.08.02-.19.16-.34.33-.34.66-.06,1.31-.04,1.96.03"/>
    <path class="st2" d="M650.59,789.74c-.6-.07-1.19-.08-1.79-.01-.12.02-.2.13-.2.27-.18,7.69-.22,15.38-.13,23.08.02.19.16.34.33.34.66.06,1.31.04,1.96-.03"/>
    <path class="st2" d="M650.93,789.45h.21c.07,0,.12.06.12.14v47.74c0,.08-.06.14-.12.14h-.21l-.15-.06v-.36s.15-47.6.15-47.6Z"/>
    <path class="st2" d="M646.88,836.41c0,.47,1.11.85,2.48.85.11,0,.22,0,.33-.01l.9-.06c.12-.02.2-.13.2-.27v-23.41h-1.99c-.65.01-1.3.02-1.95.04-.27.07-.47.36-.47.69-1.05,7.36-.87,14.89.51,22.18Z"/>
    <path class="st2" d="M646.88,790.56c0-.47,1.11-.85,2.48-.85.11,0,.22,0,.33.01l.9.06c.12.02.2.13.2.27v23.41h-1.99c-.65-.01-1.3-.02-1.95-.04-.27-.07-.47-.36-.47-.69-1.05-7.36-.87-14.89.51-22.18Z"/>
    <path class="st2" d="M648.61,837.03c-.27-.11-.54-.19-.81-.26-.31-.14-.63-.26-.95-.37-.44-.14-.87-.29-1.31-.43-.6-.2-1.21-.35-1.83-.44-.38-.06-.77-.1-1.15-.12-.41-.03-.82-.06-1.23-.08-.97-.05-1.94-.05-2.92,0-.98.05-1.95.19-2.91.41-.73.16-1.43.4-2.12.7-.44.19-.77.47-1.06.9-.02.04-.04.07-.04.12v.42c.04.12.1.18.2.23h18.58c.11,0,.2-.1.2-.23v-.13h0c0-.13-.09-.23-.2-.24-.26-.04-.51-.07-.77-.11-.34-.02-.68-.07-1.01-.15l-.67-.21Z"/>
    <path class="st2" d="M648.61,789.9c-.27.11-.54.19-.81.26-.31.14-.63.26-.95.37-.44.14-.87.29-1.31.43-.6.2-1.21.35-1.83.44-.38.06-.77.1-1.15.12-.41.03-.82.06-1.23.08-.97.05-1.94.05-2.92,0-.98-.05-1.95-.19-2.91-.41-.73-.16-1.43-.4-2.12-.7-.44-.19-.77-.47-1.06-.9-.02-.04-.04-.07-.04-.12v-.42c.04-.12.1-.18.2-.23h18.58c.11,0,.2.1.2.23v.13h0c0,.13-.09.23-.2.24-.26.04-.51.07-.77.11-.34.02-.68.07-1.01.15l-.67.21Z"/>
  </g>
  <polygon class="st0" points="537.4 721.81 537.4 739.99 544.17 739.99 544.03 744.16 546.34 744.16 546.34 912.52 546.33 912.52 546.33 924.77 546.34 924.77 546.34 982.25 545.14 982.25 545.14 987.47 549.02 987.47 552.89 987.47 552.89 982.25 551.62 982.25 551.62 924.15 551.62 924.15 551.62 912.52 551.62 744.16 561.91 744.16 562.13 739.99 563.1 739.99 563.1 721.81 537.4 721.81"/>
  <g>
    <polyline class="st9" points="544.29 913.79 553.6 913.86 553.75 922.95 544.44 922.88 544.29 913.79"/>
    <line class="st6" x1="544.29" y1="915.58" x2="546.15" y2="913.79"/>
    <line class="st6" x1="544.36" y1="920.27" x2="550.84" y2="913.79"/>
    <line class="st6" x1="546.52" y1="922.88" x2="553.67" y2="915.73"/>
    <line class="st6" x1="551.21" y1="922.95" x2="553.67" y2="920.42"/>
    <line class="st6" x1="546.97" y1="922.88" x2="544.36" y2="920.35"/>
    <line class="st6" x1="551.74" y1="922.95" x2="544.29" y2="915.5"/>
    <line class="st6" x1="553.67" y1="920.12" x2="547.34" y2="913.79"/>
    <line class="st6" x1="553.6" y1="915.35" x2="552.11" y2="913.79"/>
  </g>
  <polyline class="st10" points="651.77 742.93 650.68 742.93 650.68 751.54 651.77 751.54"/>
  <polyline class="st10" points="650.68 752.52 650.68 741.96 649.27 741.96 649.27 752.52 650.68 752.52"/>
  <polygon class="st0" points="662.6 721.73 642.96 721.73 642.96 740.13 651.9 740.16 651.9 880.86 597.37 880.86 597.37 898.44 601.61 898.44 601.61 885.11 651.9 885.11 651.9 952.31 627.84 952.31 627.84 933.98 601.61 933.98 601.61 930.48 597.37 930.48 597.37 938.23 623.59 938.23 623.59 982.25 584.85 982.25 584.85 987.47 644 987.47 644 982.25 627.84 982.25 627.84 956.55 651.9 956.55 657.19 956.55 657.19 740.18 662.6 740.19 662.6 721.73"/>
  <g>
    <polyline class="st3" points="653.7 858.76 653.7 858.74 653.67 858.74"/>
    <line class="st7" x1="653.25" y1="858.74" x2="551.08" y2="858.74"/>
    <polyline class="st3" points="550.87 858.74 550.84 858.74 550.84 858.76"/>
    <line class="st11" x1="550.84" y1="859.19" x2="550.84" y2="911.32"/>
    <polyline class="st3" points="550.84 911.53 550.84 911.56 550.87 911.56"/>
    <line class="st7" x1="551.3" y1="911.56" x2="653.46" y2="911.56"/>
    <polyline class="st3" points="653.67 911.56 653.7 911.56 653.7 911.53"/>
    <line class="st11" x1="653.7" y1="911.1" x2="653.7" y2="858.98"/>
  </g>
</svg>