<?xml version="1.0" encoding="UTF-8"?>
<svg id="Lag_1" xmlns="http://www.w3.org/2000/svg" version="1.1" viewBox="0 0 1200 1697.14">
  <!-- Generator: Adobe Illustrator 29.6.0, SVG Export Plug-In . SVG Version: 2.1.1 Build 207)  -->
  <defs>
    <style>
      .st0 {
        fill: #000016;
      }

      .st1 {
        stroke-dasharray: .06 .43;
      }

      .st1, .st2, .st3, .st4, .st5, .st6, .st7, .st8, .st9, .st10, .st11 {
        stroke-width: .18px;
      }

      .st1, .st2, .st3, .st4, .st5, .st6, .st8, .st9, .st10, .st11 {
        stroke-linejoin: round;
      }

      .st1, .st2, .st3, .st5, .st6, .st8, .st9, .st10 {
        stroke-linecap: round;
      }

      .st1, .st3, .st4, .st5, .st6, .st7, .st9, .st10, .st11 {
        stroke: #000;
      }

      .st1, .st3, .st4, .st5, .st6, .st8, .st9 {
        fill: none;
      }

      .st2 {
        stroke: #060305;
      }

      .st2, .st7, .st10, .st11 {
        fill: #fff;
      }

      .st12 {
        fill: #e8e3e0;
      }

      .st5 {
        stroke-dasharray: .06 .42;
      }

      .st6 {
        stroke-dasharray: .06 .43;
      }

      .st7 {
        stroke-miterlimit: 10;
      }

      .st8 {
        stroke: #767676;
      }

      .st13 {
        fill: #dbd7d5;
      }

      .st9 {
        stroke-dasharray: .06 .42;
      }
    </style>
  </defs>
  <polygon class="st12" points="546.06 724.71 546.06 955.81 574.17 955.81 574.17 985.72 651.7 985.72 651.7 724.71 546.06 724.71"/>
  <rect class="st13" x="547.02" y="858.74" width="105.21" height="52.82"/>
  <polyline class="st11" points="548.82 749.52 550.16 749.52 550.16 765.32 548.82 765.32"/>
  <polyline class="st11" points="559.55 722.93 559.55 728.22 557.76 728.22 557.76 722.93 559.55 722.93"/>
  <polyline class="st4" points="610.43 722.93 559.55 722.93 559.55 724.71 610.43 724.64 610.43 722.93"/>
  <polyline class="st11" points="635.91 722.85 612.14 722.93 612.14 725.53 635.91 725.53 635.91 722.85"/>
  <polyline class="st11" points="637.62 722.85 637.7 728.14 635.91 728.14 635.91 722.85 637.62 722.85"/>
  <polyline class="st11" points="612.14 722.93 612.14 728.22 610.43 728.22 610.43 722.93 612.14 722.93"/>
  <line class="st4" x1="557.76" y1="721.88" x2="637.62" y2="721.81"/>
  <path class="st11" d="M564.91,893.19c0-.97-.78-1.75-1.75-1.75s-1.75.78-1.75,1.75.78,1.75,1.75,1.75,1.75-.78,1.75-1.75"/>
  <line class="st4" x1="601.19" y1="928.69" x2="629.72" y2="928.69"/>
  <path class="st4" d="M629.65,928.65c0-15.74-12.76-28.5-28.5-28.5"/>
  <line class="st4" x1="601.19" y1="900.23" x2="601.19" y2="928.69"/>
  <line class="st4" x1="646.11" y1="985.76" x2="646.11" y2="957.22"/>
  <path class="st4" d="M646.08,957.22c-15.74,0-28.5,12.76-28.5,28.5"/>
  <line class="st4" x1="617.58" y1="985.76" x2="646.11" y2="985.76"/>
  <polyline class="st11" points="598.21 938.9 577.13 938.9 577.13 981.14 598.21 981.14 598.21 938.9"/>
  <polyline class="st4" points="577.13 951.26 598.21 951.26 598.21 938.9 577.13 938.9 577.13 951.26"/>
  <line class="st4" x1="579.59" y1="945.3" x2="585.17" y2="945.3"/>
  <line class="st4" x1="590.17" y1="945.3" x2="595.75" y2="945.3"/>
  <line class="st4" x1="592.92" y1="948.06" x2="592.92" y2="942.47"/>
  <line class="st4" x1="582.42" y1="948.06" x2="582.42" y2="942.47"/>
  <polyline class="st4" points="594.71 977.64 580.63 977.64 580.63 963.56 594.71 963.56 594.71 977.64"/>
  <polyline class="st4" points="577.13 960.05 577.13 981.14 598.21 981.14 598.21 960.05 577.13 960.05"/>
  <line class="st4" x1="578.69" y1="970.63" x2="584.36" y2="970.63"/>
  <polyline class="st11" points="550.16 766.21 550.16 748.55 551.58 748.55 551.58 766.21 550.16 766.21"/>
  <path class="st7" d="M567.02,941.46v-10.23c0-3.94-2.83-7.13-6.33-7.13s-6.33,3.19-6.33,7.13v10.23s12.65,0,12.65,0Z"/>
  <polygon class="st11" points="548.62 941.46 572.87 941.46 572.93 952.31 548.62 952.34 548.62 941.46"/>
  <rect class="st11" x="548.68" y="859.72" width="17.58" height="21.16" transform="translate(1114.94 1740.61) rotate(-180)"/>
  <rect class="st11" x="567.16" y="859.72" width="17.66" height="21.16" transform="translate(1151.97 1740.61) rotate(-180)"/>
  <rect class="st11" x="585.63" y="859.72" width="17.67" height="21.16" transform="translate(1188.94 1740.61) rotate(-180)"/>
  <path class="st11" d="M579.18,885.16v9.28c0,.21.13.37.3.37h16.91c.21,0,.37-.17.37-.37v-9.28"/>
  <path class="st4" d="M588.64,886.88c0,.35-.28.63-.63.63s-.63-.28-.63-.63c0-.35.28-.63.63-.63s.63.28.63.63"/>
  <path class="st4" d="M588.79,891.35c0,.43-.35.78-.78.78s-.78-.35-.78-.78c0-.43.35-.78.78-.78s.78.35.78.78"/>
  <path class="st4" d="M589.16,891.35c0,.64-.52,1.15-1.15,1.15s-1.15-.52-1.15-1.15c0-.64.52-1.15,1.15-1.15s1.15.52,1.15,1.15"/>
  <path class="st4" d="M579.92,888.26h16.09c.21,0,.37.17.37.37v5.44c0,.2-.17.37-.37.37h-16.1c-.21,0-.37-.17-.37-.37v-5.44c0-.21.17-.37.37-.37Z"/>
  <g>
    <polyline class="st3" points="577.28 913.54 577.28 913.57 577.25 913.57"/>
    <line class="st1" x1="576.82" y1="913.57" x2="549.36" y2="913.57"/>
    <polyline class="st3" points="549.15 913.57 549.12 913.57 549.12 913.54"/>
    <line class="st1" x1="549.12" y1="913.11" x2="549.12" y2="885.65"/>
    <polyline class="st3" points="549.12 885.43 549.12 885.41 549.15 885.41"/>
    <line class="st1" x1="549.57" y1="885.41" x2="577.04" y2="885.41"/>
    <polyline class="st3" points="577.25 885.41 577.28 885.41 577.28 885.43"/>
    <line class="st1" x1="577.28" y1="885.86" x2="577.28" y2="913.32"/>
  </g>
  <line class="st4" x1="563.2" y1="885.41" x2="563.2" y2="893.23"/>
  <g>
    <path class="st3" d="M612.25,722.32s0-.02,0-.03"/>
    <path class="st9" d="M612.28,721.87c.28-3.09,3.07-12.2,3.79-12.2l19.29,12.95.23.16"/>
    <line class="st3" x1="635.77" y1="722.91" x2="635.8" y2="722.93"/>
  </g>
  <line class="st4" x1="572.88" y1="956.55" x2="543.53" y2="982.25"/>
  <line class="st4" x1="543.53" y1="956.55" x2="572.88" y2="982.25"/>
  <g>
    <g>
      <path class="st10" d="M645.25,785.9c0,4.57-3.94,8.27-8.8,8.27-3.58,0-7.12-2.34-8.34-5.63-.17-.45-.51-1.4-.46-2.64.16-3.89,4.02-8.27,8.8-8.27s8.8,3.7,8.8,8.27Z"/>
      <path class="st3" d="M628.81,787.76c0,2.81,3.42,5.08,7.64,5.08"/>
      <path class="st3" d="M644.08,787.76c0,2.81-3.42,5.08-7.64,5.08"/>
      <path class="st3" d="M644.08,787.76c0-.55.44-1,.98-1"/>
      <path class="st3" d="M628.81,787.76c0-.55-.44-1-.98-1"/>
      <g>
        <path class="st10" d="M623.58,785.9c0,4.57-3.94,8.27-8.8,8.27-3.58,0-7.12-2.34-8.34-5.63-.17-.45-.51-1.4-.46-2.64.16-3.89,4.02-8.27,8.8-8.27s8.8,3.7,8.8,8.27Z"/>
        <path class="st3" d="M607.14,787.76c0,2.81,3.42,5.08,7.64,5.08"/>
        <path class="st3" d="M622.42,787.76c0,2.81-3.42,5.08-7.64,5.08"/>
        <path class="st3" d="M622.42,787.76c0-.55.44-1,.98-1"/>
        <path class="st3" d="M607.14,787.76c0-.55-.48-1-1.06-1"/>
      </g>
    </g>
    <g>
      <path class="st10" d="M645.25,758.66c0-4.57-3.94-8.27-8.8-8.27-3.58,0-7.12,2.34-8.34,5.63-.17.45-.51,1.4-.46,2.64.16,3.89,4.02,8.27,8.8,8.27s8.8-3.7,8.8-8.27Z"/>
      <path class="st3" d="M628.81,756.8c0-2.81,3.42-5.08,7.64-5.08"/>
      <path class="st3" d="M644.08,756.8c0-2.81-3.42-5.08-7.64-5.08"/>
      <path class="st3" d="M644.08,756.8c0,.55.44,1,.98,1"/>
      <path class="st3" d="M628.81,756.8c0,.55-.44,1-.98,1"/>
      <g>
        <path class="st10" d="M623.58,758.66c0-4.57-3.94-8.27-8.8-8.27-3.58,0-7.12,2.34-8.34,5.63-.17.45-.51,1.4-.46,2.64.16,3.89,4.02,8.27,8.8,8.27s8.8-3.7,8.8-8.27Z"/>
        <path class="st3" d="M607.14,756.8c0-2.81,3.42-5.08,7.64-5.08"/>
        <path class="st3" d="M622.42,756.8c0-2.81-3.42-5.08-7.64-5.08"/>
        <path class="st3" d="M622.42,756.8c0,.55.44,1,.98,1"/>
        <path class="st3" d="M607.14,756.8c0,.55-.48,1-1.06,1"/>
      </g>
    </g>
    <rect class="st10" x="614.17" y="750.16" width="22.88" height="44.84" transform="translate(1398.19 146.97) rotate(90)"/>
  </g>
  <circle class="st2" cx="584.85" cy="827.15" r="9.65"/>
  <g>
    <path class="st2" d="M570.7,837.14c1.24-7.61,1.37-15.4.37-23.06,0-.33-.19-.61-.47-.69-6.41-.02-12.83-.05-19.24-.07"/>
    <path class="st2" d="M570.7,837.14c-.02.13-.11.22-.22.23h-1.8s-17.06,0-17.06,0l-.26-24.07c6.41-.02,12.83-.05,19.24-.07.27-.07.47-.36.47-.69.99-7.66.87-15.45-.37-23.06-.02-.13-.11-.22-.22-.23h-1.8s-17.32,0-17.32,0v24.05"/>
    <path class="st2" d="M550.39,837.04c.6.07,1.19.08,1.79.01.12-.02.2-.13.2-.27.18-7.69.22-15.38.13-23.08-.02-.19-.16-.34-.33-.34-.66-.06-1.31-.04-1.96.03"/>
    <path class="st2" d="M550.39,789.6c.6-.07,1.19-.08,1.79-.01.12.02.2.13.2.27.18,7.69.22,15.38.13,23.08-.02.19-.16.34-.33.34-.66.06-1.31.04-1.96-.03"/>
    <path class="st2" d="M550.04,789.3h-.21c-.07,0-.12.06-.12.14,0,15.91,0,31.83,0,47.74,0,.08.06.14.12.14h.21s.15-.06.15-.06v-.36s-.15-47.6-.15-47.6Z"/>
    <path class="st2" d="M554.09,836.26c0,.47-1.11.85-2.48.85-.11,0-.22,0-.33-.01l-.9-.06c-.12-.02-.2-.13-.2-.27v-23.41h1.99c.65.01,1.3.02,1.95.04.27.07.47.36.47.69,1.05,7.36.87,14.89-.51,22.18Z"/>
    <path class="st2" d="M554.09,790.41c0-.47-1.11-.85-2.48-.85-.11,0-.22,0-.33.01l-.9.06c-.12.02-.2.13-.2.27v23.41h1.99c.65-.01,1.3-.02,1.95-.04.27-.07.47-.36.47-.69,1.05-7.36.87-14.89-.51-22.18Z"/>
    <path class="st2" d="M552.37,836.88c.27-.11.54-.19.81-.26.31-.14.63-.26.95-.37.44-.14.87-.29,1.31-.43.6-.2,1.21-.35,1.83-.44.38-.06.77-.1,1.15-.12.41-.03.82-.06,1.23-.08.97-.05,1.94-.05,2.92,0,.98.05,1.95.19,2.91.41.73.16,1.43.4,2.12.7.44.19.77.47,1.06.9.02.04.04.07.04.12v.42c-.04.12-.1.18-.2.23h-18.58c-.11,0-.2-.1-.2-.23v-.13h0c0-.13.09-.23.2-.24.26-.04.51-.07.77-.11.34-.02.68-.07,1.01-.15l.67-.21Z"/>
    <path class="st2" d="M552.37,789.75c.27.11.54.19.81.26.31.14.63.26.95.37.44.14.87.29,1.31.43.6.2,1.21.35,1.83.44.38.06.77.1,1.15.12.41.03.82.06,1.23.08.97.05,1.94.05,2.92,0,.98-.05,1.95-.19,2.91-.41.73-.16,1.43-.4,2.12-.7.44-.19.77-.47,1.06-.9.02-.04.04-.07.04-.12v-.42c-.04-.12-.1-.18-.2-.23-6.19,0-12.39,0-18.58,0-.11,0-.2.1-.2.23v.13h0c0,.13.09.23.2.24.26.04.51.07.77.11.34.02.68.07,1.01.15l.67.21Z"/>
  </g>
  <polygon class="st0" points="577.13 982.25 577.13 938.23 603.35 938.23 603.35 930.48 599.11 930.48 599.11 933.98 572.88 933.98 572.88 952.31 548.82 952.31 548.82 885.11 599.11 885.11 599.11 898.44 603.35 898.44 603.35 880.86 548.82 880.86 548.82 739.91 557.76 739.91 557.76 721.88 536.68 721.88 536.68 739.91 543.53 739.91 543.53 956.55 548.82 956.55 572.88 956.55 572.88 982.25 556.72 982.25 556.72 987.47 615.87 987.47 615.87 982.25 577.13 982.25"/>
  <polygon class="st0" points="663.32 721.75 637.53 721.82 637.53 739.51 640.45 739.51 640.82 744.66 649.04 744.5 649.04 912.24 649.04 912.51 649.04 924.13 649.04 925.45 649.04 982.25 647.77 982.25 647.77 987.47 651.66 987.47 655.55 987.47 655.55 982.25 654.35 982.25 654.35 925.45 654.35 924.21 654.35 912.58 654.35 912.24 654.35 744.39 659.81 744.29 659.73 739.21 663.32 739.21 663.32 721.75"/>
  <g>
    <polyline class="st10" points="646.97 914.13 656.28 914.2 656.43 923.29 647.12 923.22 646.97 914.13"/>
    <line class="st8" x1="646.97" y1="915.92" x2="648.83" y2="914.13"/>
    <line class="st8" x1="647.05" y1="920.61" x2="653.53" y2="914.13"/>
    <line class="st8" x1="649.21" y1="923.22" x2="656.36" y2="916.07"/>
    <line class="st8" x1="653.9" y1="923.29" x2="656.36" y2="920.76"/>
    <line class="st8" x1="649.65" y1="923.22" x2="647.05" y2="920.69"/>
    <line class="st8" x1="654.42" y1="923.29" x2="646.97" y2="915.84"/>
    <line class="st8" x1="656.36" y1="920.46" x2="650.03" y2="914.13"/>
    <line class="st8" x1="656.28" y1="915.69" x2="654.79" y2="914.13"/>
  </g>
  <g>
    <polyline class="st3" points="652.79 858.75 652.79 858.72 652.77 858.72"/>
    <line class="st6" x1="652.34" y1="858.72" x2="545.36" y2="858.72"/>
    <polyline class="st3" points="545.14 858.72 545.12 858.72 545.12 858.75"/>
    <line class="st5" x1="545.12" y1="859.17" x2="545.12" y2="911.32"/>
    <polyline class="st3" points="545.12 911.53 545.12 911.56 545.14 911.56"/>
    <line class="st6" x1="545.57" y1="911.56" x2="652.55" y2="911.56"/>
    <polyline class="st3" points="652.77 911.56 652.79 911.56 652.79 911.53"/>
    <line class="st5" x1="652.79" y1="911.1" x2="652.79" y2="858.96"/>
  </g>
</svg>