<?xml version="1.0" encoding="UTF-8"?>
<svg id="Lag_1" xmlns="http://www.w3.org/2000/svg" version="1.1" viewBox="0 0 1200 1697.14">
  <!-- Generator: Adobe Illustrator 29.6.0, SVG Export Plug-In . SVG Version: 2.1.1 Build 207)  -->
  <defs>
    <style>
      .st0 {
        stroke-dasharray: .06 .42;
      }

      .st0, .st1, .st2, .st3, .st4, .st5, .st6, .st7, .st8, .st9, .st10, .st11 {
        stroke-width: .18px;
      }

      .st0, .st1, .st2, .st3, .st4, .st6, .st7, .st8, .st9, .st10, .st11 {
        stroke-linejoin: round;
      }

      .st0, .st1, .st2, .st3, .st6, .st7, .st9, .st11 {
        stroke-linecap: round;
      }

      .st0, .st1, .st3, .st4, .st5, .st7, .st9, .st10, .st11 {
        stroke: #000;
      }

      .st0, .st1, .st3, .st4, .st6, .st7, .st11 {
        fill: none;
      }

      .st12 {
        fill: #000016;
      }

      .st1 {
        stroke-dasharray: .06 .43;
      }

      .st2, .st5, .st8, .st9, .st10 {
        fill: #fff;
      }

      .st2, .st8 {
        stroke: #060305;
      }

      .st13 {
        fill: #e8e3e0;
      }

      .st5 {
        stroke-miterlimit: 10;
      }

      .st6 {
        stroke: #767676;
      }

      .st14 {
        fill: #dbd7d5;
      }

      .st7 {
        stroke-dasharray: .06 .42;
      }

      .st11 {
        stroke-dasharray: .06 .43;
      }
    </style>
  </defs>
  <polygon class="st13" points="625.38 742.07 653.71 742.07 652.32 972.84 546.68 972.2 548.27 710.25 625.38 710.72 625.38 742.07"/>
  <rect class="st14" x="546.95" y="785.59" width="106.34" height="52.82" transform="translate(1200.23 1623.99) rotate(180)"/>
  <polyline class="st10" points="639.62 974.22 639.62 968.93 641.41 968.93 641.41 974.22 639.62 974.22"/>
  <polyline class="st10" points="588.74 974.22 639.62 974.22 639.62 972.43 588.74 972.5 588.74 974.22"/>
  <polyline class="st10" points="563.26 974.29 587.03 974.22 587.03 971.61 563.26 971.61 563.26 974.29"/>
  <polyline class="st10" points="561.55 974.29 561.47 969 563.26 969 563.26 974.29 561.55 974.29"/>
  <polyline class="st10" points="587.03 974.22 587.03 968.93 588.74 968.93 588.74 974.22 587.03 974.22"/>
  <line class="st4" x1="641.41" y1="975.33" x2="561.55" y2="975.41"/>
  <path class="st10" d="M634.26,803.95c0,.97.78,1.75,1.75,1.75s1.75-.78,1.75-1.75c0-.97-.78-1.75-1.75-1.75s-1.75.78-1.75,1.75"/>
  <line class="st4" x1="597.98" y1="768.45" x2="569.45" y2="768.45"/>
  <path class="st4" d="M569.52,768.49c0,15.74,12.76,28.5,28.5,28.5"/>
  <line class="st4" x1="597.98" y1="796.91" x2="597.98" y2="768.45"/>
  <line class="st4" x1="553.06" y1="711.39" x2="553.06" y2="739.92"/>
  <path class="st4" d="M553.09,739.92c15.74,0,28.5-12.76,28.5-28.5"/>
  <line class="st4" x1="581.59" y1="711.39" x2="553.06" y2="711.39"/>
  <polyline class="st10" points="600.96 758.25 622.04 758.25 622.04 716.01 600.96 716.01 600.96 758.25"/>
  <polyline class="st4" points="622.04 745.88 600.96 745.88 600.96 758.25 622.04 758.25 622.04 745.88"/>
  <line class="st4" x1="619.58" y1="751.84" x2="613.99" y2="751.84"/>
  <line class="st4" x1="609" y1="751.84" x2="603.42" y2="751.84"/>
  <line class="st4" x1="606.25" y1="749.08" x2="606.25" y2="754.67"/>
  <line class="st4" x1="616.75" y1="749.08" x2="616.75" y2="754.67"/>
  <polyline class="st4" points="604.46 719.51 618.54 719.51 618.54 733.59 604.46 733.59 604.46 719.51"/>
  <polyline class="st4" points="622.04 737.09 622.04 716.01 600.96 716.01 600.96 737.09 622.04 737.09"/>
  <line class="st4" x1="620.48" y1="726.51" x2="614.81" y2="726.51"/>
  <path class="st5" d="M632.15,755.68v10.23c0,3.94,2.83,7.13,6.33,7.13,3.5,0,6.33-3.19,6.33-7.13v-10.23h-12.65Z"/>
  <polygon class="st10" points="650.55 755.68 626.3 755.68 626.24 744.84 650.55 744.81 650.55 755.68"/>
  <rect class="st10" x="632.91" y="816.26" width="17.58" height="21.16"/>
  <rect class="st10" x="614.36" y="816.26" width="17.66" height="21.16"/>
  <rect class="st10" x="595.87" y="816.26" width="17.67" height="21.16"/>
  <path class="st10" d="M619.99,811.98v-9.28c0-.21-.13-.37-.3-.37h-16.91c-.21,0-.37.17-.37.37v9.28"/>
  <path class="st4" d="M610.53,810.26c0-.35.28-.63.63-.63s.63.28.63.63-.28.63-.63.63-.63-.28-.63-.63"/>
  <path class="st4" d="M610.38,805.79c0-.43.35-.78.78-.78s.78.35.78.78-.35.78-.78.78-.78-.35-.78-.78"/>
  <path class="st4" d="M610.01,805.79c0-.64.52-1.15,1.15-1.15s1.15.52,1.15,1.15c0,.64-.52,1.15-1.15,1.15s-1.15-.52-1.15-1.15"/>
  <path class="st4" d="M603.15,802.7h16.1c.21,0,.37.17.37.37v5.44c0,.2-.17.37-.37.37h-16.1c-.21,0-.37-.17-.37-.37v-5.44c0-.2.17-.37.37-.37Z"/>
  <g>
    <polyline class="st3" points="621.89 783.6 621.89 783.58 621.92 783.58"/>
    <line class="st1" x1="622.35" y1="783.58" x2="649.81" y2="783.58"/>
    <polyline class="st3" points="650.02 783.58 650.05 783.58 650.05 783.6"/>
    <line class="st1" x1="650.05" y1="784.03" x2="650.05" y2="811.49"/>
    <polyline class="st3" points="650.05 811.71 650.05 811.74 650.02 811.74"/>
    <line class="st1" x1="649.6" y1="811.74" x2="622.13" y2="811.74"/>
    <polyline class="st3" points="621.92 811.74 621.89 811.74 621.89 811.71"/>
    <line class="st1" x1="621.89" y1="811.28" x2="621.89" y2="783.82"/>
  </g>
  <line class="st4" x1="635.97" y1="811.74" x2="635.97" y2="803.91"/>
  <g>
    <path class="st3" d="M586.91,974.83s0,.02,0,.03"/>
    <path class="st7" d="M586.89,975.27c-.28,3.09-3.07,12.2-3.79,12.2l-19.29-12.95-.23-.16"/>
    <line class="st3" x1="563.4" y1="974.23" x2="563.37" y2="974.22"/>
  </g>
  <line class="st4" x1="626.29" y1="740.59" x2="655.64" y2="714.89"/>
  <line class="st4" x1="655.64" y1="740.59" x2="626.29" y2="714.89"/>
  <polygon class="st12" points="558.72 956.41 558.49 952.69 550.08 952.69 550.08 785.59 550.08 784.62 550.08 773 550.08 771.75 550.08 714.89 551.34 714.89 551.34 709.67 547.47 709.67 543.59 709.67 543.59 714.89 544.79 714.89 544.79 771.75 544.79 772.92 544.79 784.54 544.79 785.59 544.79 952.69 539.35 952.69 539.35 956.49 535.77 956.49 535.77 975.26 561.47 975.33 561.47 956.41 558.72 956.41"/>
  <g>
    <polyline class="st9" points="543.08 774.23 552.24 774.23 552.24 783.4 543.08 783.32 543.08 774.23"/>
    <line class="st6" x1="543.08" y1="778.33" x2="547.18" y2="774.23"/>
    <line class="st6" x1="543.08" y1="783.03" x2="551.87" y2="774.23"/>
    <line class="st6" x1="547.48" y1="783.4" x2="552.24" y2="778.63"/>
    <line class="st6" x1="547.4" y1="783.4" x2="543.08" y2="779.08"/>
    <line class="st6" x1="552.17" y1="783.4" x2="543.08" y2="774.31"/>
    <line class="st6" x1="552.24" y1="778.7" x2="547.77" y2="774.23"/>
  </g>
  <g>
    <g>
      <path class="st9" d="M606.72,886.64c0-4.59,3.96-8.32,8.85-8.32,3.6,0,7.16,2.35,8.39,5.67.17.45.51,1.4.46,2.65-.16,3.91-4.05,8.32-8.85,8.32s-8.85-3.72-8.85-8.32Z"/>
      <path class="st3" d="M623.25,884.78c0-2.82-3.44-5.11-7.68-5.11"/>
      <path class="st3" d="M607.89,884.78c0-2.82,3.44-5.11,7.68-5.11"/>
      <path class="st3" d="M607.89,884.78c0,.56-.44,1.01-.99,1.01"/>
      <path class="st3" d="M623.25,884.78c0,.56.44,1.01.99,1.01"/>
      <g>
        <path class="st9" d="M628.51,886.64c0-4.59,3.96-8.32,8.85-8.32,3.6,0,7.16,2.35,8.39,5.67.17.45.51,1.4.46,2.65-.16,3.91-4.05,8.32-8.85,8.32-4.89,0-8.85-3.72-8.85-8.32Z"/>
        <path class="st3" d="M645.05,884.78c0-2.82-3.44-5.11-7.68-5.11"/>
        <path class="st3" d="M629.68,884.78c0-2.82,3.44-5.11,7.68-5.11"/>
        <path class="st3" d="M629.68,884.78c0,.56-.44,1.01-.99,1.01"/>
        <path class="st3" d="M645.05,884.78c0,.56.48,1.01,1.07,1.01"/>
      </g>
    </g>
    <g>
      <path class="st9" d="M606.72,914.05c0,4.59,3.96,8.32,8.85,8.32,3.6,0,7.16-2.35,8.39-5.67.17-.45.51-1.4.46-2.65-.16-3.91-4.05-8.32-8.85-8.32s-8.85,3.72-8.85,8.32Z"/>
      <path class="st3" d="M623.25,915.91c0,2.82-3.44,5.11-7.68,5.11"/>
      <path class="st3" d="M607.89,915.91c0,2.82,3.44,5.11,7.68,5.11"/>
      <path class="st3" d="M607.89,915.91c0-.56-.44-1.01-.99-1.01"/>
      <path class="st3" d="M623.25,915.91c0-.56.44-1.01.99-1.01"/>
      <g>
        <path class="st9" d="M628.51,914.05c0,4.59,3.96,8.32,8.85,8.32,3.6,0,7.16-2.35,8.39-5.67.17-.45.51-1.4.46-2.65-.16-3.91-4.05-8.32-8.85-8.32-4.89,0-8.85,3.72-8.85,8.32Z"/>
        <path class="st3" d="M645.05,915.91c0,2.82-3.44,5.11-7.68,5.11"/>
        <path class="st3" d="M629.68,915.91c0,2.82,3.44,5.11,7.68,5.11"/>
        <path class="st3" d="M629.68,915.91c0-.56-.44-1.01-.99-1.01"/>
        <path class="st3" d="M645.05,915.91c0-.56.48-1.01,1.07-1.01"/>
      </g>
    </g>
    <rect class="st9" x="614.96" y="877.5" width="23.01" height="45.1" transform="translate(-273.58 1526.51) rotate(-90)"/>
  </g>
  <g>
    <path class="st2" d="M573.06,948.51c1.25-7.65,1.37-15.49.38-23.19,0-.33-.2-.62-.47-.69-6.45-.02-12.9-.05-19.36-.07"/>
    <path class="st2" d="M573.06,948.51c-.02.13-.11.22-.22.23h-1.81s-17.16,0-17.16,0l-.26-24.21c6.45-.02,12.9-.05,19.36-.07.28-.07.47-.36.47-.69,1-7.7.87-15.54-.38-23.19-.02-.13-.11-.22-.22-.23h-1.81s-17.42,0-17.42,0v24.19"/>
    <path class="st2" d="M552.62,948.41c.6.07,1.2.08,1.8.01.12-.02.2-.13.2-.27.18-7.74.22-15.47.13-23.21-.02-.19-.17-.34-.33-.35-.66-.06-1.31-.05-1.97.03"/>
    <path class="st2" d="M552.62,900.68c.6-.07,1.2-.08,1.8-.01.12.02.2.13.2.27.18,7.74.22,15.47.13,23.21-.02.19-.17.34-.33.35-.66.06-1.31.05-1.97-.03"/>
    <path class="st2" d="M552.27,900.39h-.21c-.07,0-.13.07-.13.15,0,16.01,0,32.01,0,48.02,0,.08.06.15.13.15h.21s.15-.06.15-.06v-.36s-.15-47.88-.15-47.88Z"/>
    <path class="st2" d="M556.35,947.62c0,.47-1.12.85-2.49.85-.11,0-.22,0-.33-.01l-.9-.06c-.12-.02-.2-.13-.2-.27v-23.55h2c.65.01,1.31.02,1.96.04.28.07.47.36.47.69,1.05,7.41.88,14.98-.51,22.31Z"/>
    <path class="st2" d="M556.35,901.5c0-.47-1.12-.85-2.49-.85-.11,0-.22,0-.33.01l-.9.06c-.12.02-.2.13-.2.27v23.55h2c.65-.01,1.31-.02,1.96-.04.28-.07.47-.36.47-.69,1.05-7.41.88-14.98-.51-22.31Z"/>
    <path class="st2" d="M554.61,948.25c.27-.11.54-.2.82-.27.31-.14.63-.26.95-.37.44-.14.88-.29,1.32-.44.61-.21,1.22-.35,1.85-.44.38-.06.77-.1,1.16-.13.41-.03.82-.06,1.23-.08.98-.05,1.95-.05,2.93,0,.99.05,1.96.19,2.93.41.73.16,1.44.4,2.13.71.44.19.77.48,1.06.9.02.04.04.07.04.12v.42c-.04.12-.1.18-.2.23-6.23,0-12.46,0-18.69,0-.11,0-.2-.1-.2-.23v-.13h0c0-.13.09-.23.2-.24.26-.04.52-.07.77-.11.34-.02.68-.07,1.02-.16l.68-.21Z"/>
    <path class="st2" d="M554.61,900.84c.27.11.54.2.82.27.31.14.63.26.95.37.44.14.88.29,1.32.44.61.21,1.22.35,1.85.44.38.06.77.1,1.16.13.41.03.82.06,1.23.08.98.05,1.95.05,2.93,0,.99-.05,1.96-.19,2.93-.41.73-.16,1.44-.4,2.13-.71.44-.19.77-.48,1.06-.9.02-.04.04-.07.04-.12v-.42c-.04-.12-.1-.18-.2-.23-6.23,0-12.46,0-18.69,0-.11,0-.2.1-.2.23v.13h0c0,.13.09.23.2.24.26.04.52.07.77.11.34.02.68.07,1.02.16l.68.21Z"/>
  </g>
  <circle class="st8" cx="581.9" cy="956.55" r="7.95"/>
  <g>
    <polyline class="st10" points="650.45 945.08 649.12 945.08 649.12 929.37 650.45 929.37"/>
    <polyline class="st10" points="649.12 928.48 649.12 946.04 647.71 946.04 647.71 928.48 649.12 928.48"/>
  </g>
  <polygon class="st12" points="664.23 975.41 641.41 975.41 641.41 957.01 650.35 956.98 650.35 816.28 595.82 816.28 595.82 798.7 600.06 798.7 600.06 812.03 650.35 812.03 650.35 744.84 626.29 744.84 626.29 763.16 600.06 763.16 600.06 766.66 595.82 766.66 595.82 758.92 622.04 758.92 622.04 714.89 583.3 714.89 583.3 709.67 642.45 709.67 642.45 714.89 626.29 714.89 626.29 740.59 650.35 740.59 655.64 740.59 655.64 956.96 664.23 956.93 664.23 975.41"/>
  <g>
    <polyline class="st3" points="652.16 785.62 652.16 785.59 652.14 785.59"/>
    <line class="st11" x1="651.71" y1="785.59" x2="548.29" y2="785.59"/>
    <polyline class="st3" points="548.07 785.59 548.05 785.59 548.05 785.62"/>
    <line class="st0" x1="548.05" y1="786.04" x2="548.05" y2="838.17"/>
    <polyline class="st3" points="548.05 838.38 548.05 838.41 548.07 838.41"/>
    <line class="st11" x1="548.5" y1="838.41" x2="651.92" y2="838.41"/>
    <polyline class="st3" points="652.14 838.41 652.16 838.41 652.16 838.38"/>
    <line class="st0" x1="652.16" y1="837.95" x2="652.16" y2="785.83"/>
  </g>
</svg>