<?xml version="1.0" encoding="UTF-8"?>
<svg id="Lag_1" xmlns="http://www.w3.org/2000/svg" version="1.1" viewBox="0 0 1200 1697.14">
  <!-- Generator: Adobe Illustrator 29.6.0, SVG Export Plug-In . SVG Version: 2.1.1 Build 207)  -->
  <defs>
    <style>
      .st0 {
        fill: #000016;
      }

      .st1 {
        stroke-dasharray: .06 .43;
      }

      .st1, .st2, .st3, .st4, .st5, .st6, .st7, .st8, .st9, .st10, .st11 {
        stroke-width: .18px;
      }

      .st1, .st2, .st3, .st4, .st6, .st7, .st8, .st9, .st10, .st11 {
        stroke-linejoin: round;
      }

      .st1, .st2, .st3, .st6, .st7, .st8, .st9, .st11 {
        stroke-linecap: round;
      }

      .st1, .st3, .st4, .st5, .st6, .st7, .st8, .st9, .st10, .st11 {
        stroke: #000;
      }

      .st1, .st3, .st4, .st7, .st8, .st11 {
        fill: none;
      }

      .st2 {
        stroke: #060305;
      }

      .st2, .st5, .st9, .st10 {
        fill: #fff;
      }

      .st12 {
        fill: #e8e3e0;
      }

      .st5 {
        stroke-miterlimit: 10;
      }

      .st6 {
        fill: #2a2b29;
      }

      .st13 {
        fill: #dbd7d5;
      }

      .st7 {
        stroke-dasharray: .06 .42;
      }

      .st8 {
        stroke-dasharray: .06 .43;
      }

      .st11 {
        stroke-dasharray: .06 .43;
      }
    </style>
  </defs>
  <polygon class="st12" points="539.35 724.67 539.35 953.67 568.25 953.67 568.25 985.63 653.57 985.63 653.57 724.67 539.35 724.67"/>
  <rect class="st13" x="539.35" y="859.07" width="114.22" height="52.68"/>
  <polyline class="st9" points="548.25 722.97 548.25 728.24 546.54 728.24 546.54 722.97 548.25 722.97"/>
  <polyline class="st3" points="599 722.89 548.25 722.97 548.25 724.67 599 724.67 599 722.89"/>
  <polyline class="st3" points="624.48 722.89 600.78 722.89 600.78 725.57 624.41 725.49 624.48 722.89"/>
  <polyline class="st9" points="626.19 722.89 626.19 728.17 624.48 728.17 624.48 722.89 626.19 722.89"/>
  <polyline class="st9" points="600.78 722.89 600.78 728.17 599 728.17 599 722.89 600.78 722.89"/>
  <line class="st3" x1="546.54" y1="721.93" x2="626.19" y2="721.85"/>
  <line class="st3" x1="593.35" y1="928.71" x2="621.81" y2="928.71"/>
  <path class="st3" d="M621.73,928.68c0-15.7-12.72-28.42-28.42-28.42"/>
  <line class="st3" x1="593.35" y1="900.33" x2="593.35" y2="928.71"/>
  <polyline class="st6" points="595.5 938.22 595.5 930.5 591.27 930.5 591.27 933.99 565.11 933.99 565.11 952.27 541.04 952.27 541.04 956.5 565.11 956.5 565.11 982.14 548.99 982.14 548.99 987.34 607.91 987.34 607.91 982.14 569.35 982.14 569.35 938.22 595.5 938.22"/>
  <line class="st3" x1="638.15" y1="985.63" x2="638.15" y2="957.17"/>
  <path class="st3" d="M638.12,957.17c-15.7,0-28.42,12.72-28.42,28.42"/>
  <line class="st3" x1="609.7" y1="985.63" x2="638.15" y2="985.63"/>
  <polyline class="st3" points="590.38 938.89 569.35 938.89 569.35 981.02 590.38 981.02 590.38 938.89"/>
  <polyline class="st3" points="569.35 951.23 590.38 951.23 590.38 938.89 569.35 938.89 569.35 951.23"/>
  <line class="st3" x1="571.8" y1="945.28" x2="577.37" y2="945.28"/>
  <line class="st3" x1="582.35" y1="945.28" x2="587.93" y2="945.28"/>
  <line class="st3" x1="585.1" y1="948.03" x2="585.1" y2="942.46"/>
  <line class="st3" x1="574.62" y1="948.03" x2="574.62" y2="942.46"/>
  <polyline class="st3" points="586.89 977.53 572.84 977.53 572.84 963.49 586.89 963.49 586.89 977.53"/>
  <polyline class="st3" points="569.35 960 569.35 981.02 590.38 981.02 590.38 960 569.35 960"/>
  <line class="st3" x1="570.91" y1="970.55" x2="576.48" y2="970.55"/>
  <path class="st10" d="M557.24,893.46c0-.96-.78-1.75-1.75-1.75s-1.75.78-1.75,1.75.78,1.75,1.75,1.75,1.75-.78,1.75-1.75"/>
  <line class="st4" x1="555.53" y1="885.69" x2="555.53" y2="893.49"/>
  <g>
    <path class="st3" d="M601,722.28s0-.02,0-.03"/>
    <path class="st7" d="M601.03,721.84c.28-3.08,3.06-12.17,3.78-12.17l19.24,12.91.23.16"/>
    <line class="st3" x1="624.46" y1="722.88" x2="624.48" y2="722.89"/>
  </g>
  <circle class="st2" cx="575.05" cy="823.89" r="7.3"/>
  <g>
    <path class="st2" d="M562.94,830.21c1.24-7.59,1.36-15.36.37-23,0-.33-.19-.61-.47-.68-6.4-.02-12.8-.05-19.19-.07"/>
    <path class="st2" d="M562.94,830.21c-.02.13-.11.22-.22.23-.6,0-1.19,0-1.79,0h-17.02s-.26-24-.26-24c6.4-.02,12.8-.05,19.19-.07.27-.07.47-.36.47-.68.99-7.64.86-15.41-.37-23-.02-.13-.11-.22-.22-.23h-1.79s-17.28,0-17.28,0v23.99"/>
    <path class="st2" d="M542.68,830.1c.6.07,1.19.08,1.79.01.12-.02.2-.13.2-.27.18-7.67.22-15.34.13-23.02-.02-.19-.16-.34-.33-.34-.66-.06-1.3-.04-1.96.03"/>
    <path class="st2" d="M542.68,782.78c.6-.07,1.19-.08,1.79-.01.12.02.2.13.2.27.18,7.67.22,15.34.13,23.02-.02.19-.16.34-.33.34-.66.06-1.3.04-1.96-.03"/>
    <path class="st2" d="M542.34,782.49h-.21c-.07,0-.12.06-.12.14,0,15.87,0,31.74,0,47.62,0,.08.06.14.12.14h.21s.14-.06.14-.06v-.36s-.14-47.48-.14-47.48Z"/>
    <path class="st2" d="M546.38,829.33c0,.47-1.11.84-2.47.84-.11,0-.22,0-.33-.01l-.89-.06c-.12-.02-.2-.13-.2-.27v-23.35h1.99c.65.01,1.3.02,1.94.04.27.07.47.36.47.68,1.04,7.34.87,14.85-.51,22.12Z"/>
    <path class="st2" d="M546.38,783.59c0-.47-1.11-.84-2.47-.84-.11,0-.22,0-.33.01l-.89.06c-.12.02-.2.13-.2.27v23.35h1.99c.65-.01,1.3-.02,1.94-.04.27-.07.47-.36.47-.68,1.04-7.34.87-14.85-.51-22.12Z"/>
    <path class="st2" d="M544.65,829.95c.27-.11.54-.19.81-.26.31-.14.62-.26.94-.37.44-.14.87-.29,1.31-.43.6-.2,1.21-.35,1.83-.44.38-.05.76-.1,1.15-.12.41-.03.81-.06,1.22-.08.97-.05,1.94-.05,2.91,0,.98.05,1.94.19,2.91.41.72.16,1.42.4,2.11.7.44.19.76.47,1.05.9.02.04.04.07.04.12v.42c-.04.12-.1.18-.2.23-6.18,0-12.35,0-18.53,0-.11,0-.2-.1-.2-.23v-.13h0c0-.13.09-.23.2-.24.26-.04.51-.07.77-.11.34-.02.68-.07,1.01-.15l.67-.21Z"/>
    <path class="st2" d="M544.65,782.94c.27.11.54.19.81.26.31.14.62.26.94.37.44.14.87.29,1.31.43.6.2,1.21.35,1.83.44.38.05.76.1,1.15.12.41.03.81.06,1.22.08.97.05,1.94.05,2.91,0,.98-.05,1.94-.19,2.91-.41.72-.16,1.42-.4,2.11-.7.44-.19.76-.47,1.05-.9.02-.04.04-.07.04-.12v-.42c-.04-.12-.1-.18-.2-.23-6.18,0-12.35,0-18.53,0-.11,0-.2.1-.2.23v.13h0c0,.13.09.23.2.24.26.04.51.07.77.11.34.02.68.07,1.01.15l.67.21Z"/>
  </g>
  <line class="st4" x1="535.88" y1="956.63" x2="565.15" y2="982.27"/>
  <line class="st4" x1="565.15" y1="956.63" x2="535.88" y2="982.27"/>
  <path class="st5" d="M559.3,941.58v-10.21c0-3.93-2.82-7.11-6.31-7.11-3.49,0-6.31,3.18-6.31,7.11v10.21s12.62,0,12.62,0Z"/>
  <polygon class="st10" points="540.95 941.58 565.13 941.58 565.2 952.4 540.95 952.43 540.95 941.58"/>
  <rect class="st10" x="541.01" y="860.06" width="17.54" height="21.1" transform="translate(1099.56 1741.22) rotate(-180)"/>
  <rect class="st10" x="559.44" y="860.06" width="17.61" height="21.1" transform="translate(1136.49 1741.22) rotate(-180)"/>
  <rect class="st10" x="577.87" y="860.06" width="17.62" height="21.1" transform="translate(1173.36 1741.22) rotate(-180)"/>
  <path class="st10" d="M571.43,885.43v9.25c0,.21.13.37.3.37h16.87c.21,0,.37-.17.37-.37v-9.25"/>
  <path class="st4" d="M580.87,887.14c0,.35-.28.63-.63.63s-.63-.28-.63-.63c0-.35.28-.63.63-.63s.63.28.63.63"/>
  <path class="st4" d="M581.01,891.6c0,.43-.35.78-.78.78s-.78-.35-.78-.78c0-.43.35-.78.78-.78s.78.35.78.78"/>
  <path class="st4" d="M581.39,891.6c0,.64-.52,1.15-1.15,1.15s-1.15-.52-1.15-1.15c0-.64.52-1.15,1.15-1.15s1.15.52,1.15,1.15"/>
  <path class="st4" d="M572.17,888.52h16.05c.21,0,.37.17.37.37v5.42c0,.21-.17.37-.37.37h-16.05c-.21,0-.37-.17-.37-.37v-5.43c0-.2.17-.37.37-.37Z"/>
  <g>
    <polyline class="st3" points="569.53 913.73 569.53 913.76 569.51 913.76"/>
    <line class="st11" x1="569.08" y1="913.76" x2="541.69" y2="913.76"/>
    <polyline class="st3" points="541.48 913.76 541.45 913.76 541.45 913.73"/>
    <line class="st11" x1="541.45" y1="913.3" x2="541.45" y2="885.91"/>
    <polyline class="st3" points="541.45 885.7 541.45 885.67 541.48 885.67"/>
    <line class="st11" x1="541.9" y1="885.67" x2="569.29" y2="885.67"/>
    <polyline class="st3" points="569.51 885.67 569.53 885.67 569.53 885.7"/>
    <line class="st11" x1="569.53" y1="886.13" x2="569.53" y2="913.52"/>
  </g>
  <polyline class="st9" points="542.45 766.66 542.45 749.05 543.86 749.05 543.86 766.66 542.45 766.66"/>
  <polyline class="st9" points="541.04 750.01 542.45 750.01 542.45 765.76 541.04 765.76"/>
  <polygon class="st0" points="652.53 987.3 673.15 986.15 658.07 721.85 626.19 721.85 626.19 741.17 627.75 741.17 628.2 744.89 637.71 745.48 647.89 913.04 639.79 913.78 639.86 925.44 648.33 924.63 651.54 982.14 641.2 982.14 639.86 982.14 639.86 987.34 643.96 987.34 651.83 987.34 651.83 987.34 651.83 987.34 652.53 987.34 652.53 987.3"/>
  <polygon class="st0" points="569.39 982.27 569.39 938.35 595.54 938.35 595.54 930.63 591.31 930.63 591.31 934.12 565.15 934.12 565.15 952.4 541.15 952.4 541.15 885.38 591.31 885.38 591.31 898.68 595.54 898.68 595.54 881.14 541.15 881.14 541.15 740.81 546.54 740.79 546.54 723.69 546.54 722.43 546.54 721.93 534.3 721.93 529.86 721.93 526.85 721.93 526.85 740.84 529.86 740.84 529.86 740.85 535.88 740.83 535.88 956.63 541.15 956.63 565.15 956.63 565.15 982.27 549.03 982.27 549.03 987.47 608.02 987.47 608.02 982.27 569.39 982.27"/>
  <g>
    <g>
      <path class="st9" d="M615.15,797.4c0,4.54,3.92,8.23,8.75,8.23,3.56,0,7.08-2.33,8.3-5.61.17-.45.5-1.39.45-2.62-.15-3.87-4-8.23-8.75-8.23s-8.75,3.68-8.75,8.23Z"/>
      <path class="st3" d="M631.51,799.24c0,2.79-3.4,5.05-7.6,5.05"/>
      <path class="st3" d="M616.31,799.24c0,2.79,3.4,5.05,7.6,5.05"/>
      <path class="st3" d="M616.31,799.24c0-.55-.44-1-.98-1"/>
      <path class="st3" d="M631.51,799.24c0-.55.47-1,1.06-1"/>
    </g>
    <g>
      <path class="st9" d="M615.15,769.15c0-4.54,3.92-8.23,8.75-8.23,3.56,0,7.08,2.33,8.3,5.61.17.45.5,1.39.45,2.62-.15,3.87-4,8.23-8.75,8.23s-8.75-3.68-8.75-8.23Z"/>
      <path class="st3" d="M631.51,767.31c0-2.79-3.4-5.05-7.6-5.05"/>
      <path class="st3" d="M616.31,767.31c0-2.79,3.4-5.05,7.6-5.05"/>
      <path class="st3" d="M616.31,767.31c0,.55-.44,1-.98,1"/>
      <path class="st3" d="M631.51,767.31c0,.55.47,1,1.06,1"/>
    </g>
    <rect class="st9" x="612.53" y="769.71" width="22.76" height="25.8" transform="translate(1406.52 158.7) rotate(90)"/>
  </g>
  <g>
    <polyline class="st3" points="652.77 859.16 652.77 859.13 652.74 859.13"/>
    <line class="st1" x1="652.31" y1="859.13" x2="538.6" y2="859.13"/>
    <polyline class="st3" points="538.39 859.13 538.36 859.13 538.36 859.16"/>
    <line class="st8" x1="538.36" y1="859.58" x2="538.36" y2="911.42"/>
    <polyline class="st3" points="538.36 911.63 538.36 911.66 538.39 911.66"/>
    <line class="st1" x1="538.81" y1="911.66" x2="652.52" y2="911.66"/>
    <polyline class="st3" points="652.74 911.66 652.77 911.66 652.77 911.63"/>
    <line class="st8" x1="652.77" y1="911.21" x2="652.77" y2="859.37"/>
  </g>
</svg>