<?xml version="1.0" encoding="UTF-8"?>
<svg id="Lag_1" xmlns="http://www.w3.org/2000/svg" version="1.1" viewBox="0 0 1200 1697.14">
  <!-- Generator: Adobe Illustrator 29.6.0, SVG Export Plug-In . SVG Version: 2.1.1 Build 207)  -->
  <defs>
    <style>
      .st0 {
        fill: #000016;
      }

      .st1 {
        stroke-dasharray: .06 .43;
      }

      .st1, .st2, .st3, .st4, .st5, .st6, .st7, .st8, .st9, .st10, .st11 {
        stroke-width: .18px;
      }

      .st1, .st2, .st3, .st4, .st6, .st7, .st8, .st9, .st10, .st11 {
        stroke-linejoin: round;
      }

      .st1, .st2, .st3, .st6, .st7, .st8, .st10, .st11 {
        stroke-linecap: round;
      }

      .st1, .st3, .st4, .st5, .st7, .st8, .st9, .st10, .st11 {
        stroke: #000;
      }

      .st1, .st3, .st4, .st6, .st7, .st10, .st11 {
        fill: none;
      }

      .st2 {
        stroke: #060305;
      }

      .st2, .st5, .st8, .st9 {
        fill: #fff;
      }

      .st12 {
        fill: #e8e3e0;
      }

      .st5 {
        stroke-miterlimit: 10;
      }

      .st6 {
        stroke: #767676;
      }

      .st13 {
        fill: #dbd7d5;
      }

      .st7 {
        stroke-dasharray: .06 .42;
      }

      .st10 {
        stroke-dasharray: .06 .43;
      }

      .st11 {
        stroke-dasharray: .06 .42;
      }
    </style>
  </defs>
  <polygon class="st12" points="624.81 956.55 651.63 956.55 651.63 724.71 545.99 724.71 545.99 985.72 624.81 985.72 624.81 956.55"/>
  <rect class="st13" x="545.47" y="858.74" width="105.21" height="52.82" transform="translate(1196.14 1770.29) rotate(-180)"/>
  <polyline class="st9" points="561.78 722.93 561.78 728.22 559.99 728.22 559.99 722.93 561.78 722.93"/>
  <polyline class="st4" points="612.66 722.93 561.78 722.93 561.78 724.71 612.66 724.64 612.66 722.93"/>
  <polyline class="st9" points="638.14 722.85 614.38 722.93 614.38 725.53 638.14 725.53 638.14 722.85"/>
  <polyline class="st9" points="639.86 722.85 639.93 728.14 638.14 728.14 638.14 722.85 639.86 722.85"/>
  <polyline class="st9" points="614.38 722.93 614.38 728.22 612.66 728.22 612.66 722.93 614.38 722.93"/>
  <line class="st4" x1="559.99" y1="721.81" x2="639.86" y2="721.73"/>
  <path class="st9" d="M632.78,893.19c0-.97.78-1.75,1.75-1.75s1.75.78,1.75,1.75c0,.97-.78,1.75-1.75,1.75s-1.75-.78-1.75-1.75"/>
  <line class="st4" x1="596.5" y1="928.69" x2="567.97" y2="928.69"/>
  <path class="st4" d="M568.04,928.65c0-15.74,12.76-28.5,28.5-28.5"/>
  <line class="st4" x1="596.5" y1="900.23" x2="596.5" y2="928.69"/>
  <line class="st4" x1="551.58" y1="985.76" x2="551.58" y2="957.22"/>
  <path class="st4" d="M551.61,957.22c15.74,0,28.5,12.76,28.5,28.5"/>
  <line class="st4" x1="580.11" y1="985.76" x2="551.58" y2="985.76"/>
  <polyline class="st9" points="599.48 938.9 620.56 938.9 620.56 981.14 599.48 981.14 599.48 938.9"/>
  <polyline class="st4" points="620.56 951.26 599.48 951.26 599.48 938.9 620.56 938.9 620.56 951.26"/>
  <line class="st4" x1="618.1" y1="945.3" x2="612.52" y2="945.3"/>
  <line class="st4" x1="607.52" y1="945.3" x2="601.94" y2="945.3"/>
  <line class="st4" x1="604.77" y1="948.06" x2="604.77" y2="942.47"/>
  <line class="st4" x1="615.27" y1="948.06" x2="615.27" y2="942.47"/>
  <polyline class="st4" points="602.98 977.64 617.06 977.64 617.06 963.56 602.98 963.56 602.98 977.64"/>
  <polyline class="st4" points="620.56 960.05 620.56 981.14 599.48 981.14 599.48 960.05 620.56 960.05"/>
  <line class="st4" x1="619" y1="970.63" x2="613.34" y2="970.63"/>
  <path class="st5" d="M630.67,941.46v-10.23c0-3.94,2.83-7.13,6.33-7.13,3.5,0,6.33,3.19,6.33,7.13v10.23h-12.65Z"/>
  <polygon class="st9" points="649.07 941.46 624.82 941.46 624.76 952.31 649.07 952.34 649.07 941.46"/>
  <rect class="st9" x="631.43" y="859.72" width="17.58" height="21.16"/>
  <rect class="st9" x="612.88" y="859.72" width="17.66" height="21.16"/>
  <rect class="st9" x="594.39" y="859.72" width="17.67" height="21.16"/>
  <path class="st9" d="M618.51,885.16v9.28c0,.21-.13.37-.3.37h-16.91c-.21,0-.37-.17-.37-.37v-9.28"/>
  <path class="st4" d="M609.05,886.88c0,.35.28.63.63.63s.63-.28.63-.63-.28-.63-.63-.63-.63.28-.63.63"/>
  <path class="st4" d="M608.9,891.35c0,.43.35.78.78.78s.78-.35.78-.78-.35-.78-.78-.78-.78.35-.78.78"/>
  <path class="st4" d="M608.53,891.35c0,.64.52,1.15,1.15,1.15s1.15-.52,1.15-1.15c0-.64-.52-1.15-1.15-1.15s-1.15.52-1.15,1.15"/>
  <path class="st4" d="M601.67,888.26h16.1c.21,0,.37.17.37.37v5.44c0,.2-.17.37-.37.37h-16.1c-.21,0-.37-.17-.37-.37v-5.44c0-.2.17-.37.37-.37Z"/>
  <g>
    <polyline class="st3" points="620.41 913.54 620.41 913.57 620.44 913.57"/>
    <line class="st1" x1="620.87" y1="913.57" x2="648.33" y2="913.57"/>
    <polyline class="st3" points="648.54 913.57 648.57 913.57 648.57 913.54"/>
    <line class="st1" x1="648.57" y1="913.11" x2="648.57" y2="885.65"/>
    <polyline class="st3" points="648.57 885.43 648.57 885.41 648.54 885.41"/>
    <line class="st1" x1="648.12" y1="885.41" x2="620.66" y2="885.41"/>
    <polyline class="st3" points="620.44 885.41 620.41 885.41 620.41 885.43"/>
    <line class="st1" x1="620.41" y1="885.86" x2="620.41" y2="913.32"/>
  </g>
  <line class="st4" x1="634.49" y1="885.41" x2="634.49" y2="893.23"/>
  <g>
    <path class="st3" d="M614.49,722.32s0-.02,0-.03"/>
    <path class="st7" d="M614.51,721.87c.28-3.09,3.07-12.2,3.79-12.2l19.29,12.95.23.16"/>
    <line class="st3" x1="638.01" y1="722.91" x2="638.03" y2="722.93"/>
  </g>
  <line class="st4" x1="624.81" y1="956.55" x2="654.16" y2="982.25"/>
  <line class="st4" x1="654.16" y1="956.55" x2="624.81" y2="982.25"/>
  <g>
    <g>
      <path class="st8" d="M552.54,783.87c0,4.57,3.94,8.27,8.8,8.27,3.58,0,7.12-2.34,8.34-5.63.17-.45.51-1.4.46-2.64-.16-3.89-4.02-8.27-8.8-8.27s-8.8,3.7-8.8,8.27Z"/>
      <path class="st3" d="M568.98,785.72c0,2.81-3.42,5.08-7.64,5.08"/>
      <path class="st3" d="M553.71,785.72c0,2.81,3.42,5.08,7.64,5.08"/>
      <path class="st3" d="M553.71,785.72c0-.55-.44-1-.98-1"/>
      <path class="st3" d="M568.98,785.72c0-.55.44-1,.98-1"/>
      <g>
        <path class="st8" d="M574.21,783.87c0,4.57,3.94,8.27,8.8,8.27,3.58,0,7.12-2.34,8.34-5.63.17-.45.51-1.4.46-2.64-.16-3.89-4.02-8.27-8.8-8.27s-8.8,3.7-8.8,8.27Z"/>
        <path class="st3" d="M590.65,785.72c0,2.81-3.42,5.08-7.64,5.08"/>
        <path class="st3" d="M575.37,785.72c0,2.81,3.42,5.08,7.64,5.08"/>
        <path class="st3" d="M575.37,785.72c0-.55-.44-1-.98-1"/>
        <path class="st3" d="M590.65,785.72c0-.55.48-1,1.06-1"/>
      </g>
    </g>
    <g>
      <path class="st8" d="M552.54,756.62c0-4.57,3.94-8.27,8.8-8.27,3.58,0,7.12,2.34,8.34,5.63.17.45.51,1.4.46,2.64-.16,3.89-4.02,8.27-8.8,8.27s-8.8-3.7-8.8-8.27Z"/>
      <path class="st3" d="M568.98,754.77c0-2.81-3.42-5.08-7.64-5.08"/>
      <path class="st3" d="M553.71,754.77c0-2.81,3.42-5.08,7.64-5.08"/>
      <path class="st3" d="M553.71,754.77c0,.55-.44,1-.98,1"/>
      <path class="st3" d="M568.98,754.77c0,.55.44,1,.98,1"/>
      <g>
        <path class="st8" d="M574.21,756.62c0-4.57,3.94-8.27,8.8-8.27,3.58,0,7.12,2.34,8.34,5.63.17.45.51,1.4.46,2.64-.16,3.89-4.02,8.27-8.8,8.27s-8.8-3.7-8.8-8.27Z"/>
        <path class="st3" d="M590.65,754.77c0-2.81-3.42-5.08-7.64-5.08"/>
        <path class="st3" d="M575.37,754.77c0-2.81,3.42-5.08,7.64-5.08"/>
        <path class="st3" d="M575.37,754.77c0,.55-.44,1-.98,1"/>
        <path class="st3" d="M590.65,754.77c0,.55.48,1,1.06,1"/>
      </g>
    </g>
    <rect class="st8" x="560.74" y="748.12" width="22.88" height="44.84" transform="translate(1342.72 198.37) rotate(90)"/>
  </g>
  <circle class="st2" cx="613.34" cy="827.25" r="9.65"/>
  <g>
    <path class="st2" d="M627.24,837.29c-1.24-7.61-1.37-15.4-.37-23.06,0-.33.19-.61.47-.69,6.41-.02,12.83-.05,19.24-.07"/>
    <path class="st2" d="M627.24,837.29c.02.13.11.22.22.23h18.86l.26-24.07c-6.41-.02-12.83-.05-19.24-.07-.27-.07-.47-.36-.47-.69-.99-7.66-.87-15.45.37-23.06.02-.13.11-.22.22-.23h19.12v24.05"/>
    <path class="st2" d="M647.56,837.19c-.6.07-1.19.08-1.79.01-.12-.02-.2-.13-.2-.27-.18-7.69-.22-15.38-.13-23.08.02-.19.16-.34.33-.34.66-.06,1.31-.04,1.96.03"/>
    <path class="st2" d="M647.56,789.74c-.6-.07-1.19-.08-1.79-.01-.12.02-.2.13-.2.27-.18,7.69-.22,15.38-.13,23.08.02.19.16.34.33.34.66.06,1.31.04,1.96-.03"/>
    <path class="st2" d="M647.9,789.45h.21c.07,0,.12.06.12.14v47.74c0,.08-.06.14-.12.14h-.21l-.15-.06v-.36s.15-47.6.15-47.6Z"/>
    <path class="st2" d="M643.85,836.41c0,.47,1.11.85,2.48.85.11,0,.22,0,.33-.01l.9-.06c.12-.02.2-.13.2-.27v-23.41h-1.99c-.65.01-1.3.02-1.95.04-.27.07-.47.36-.47.69-1.05,7.36-.87,14.89.51,22.18Z"/>
    <path class="st2" d="M643.85,790.56c0-.47,1.11-.85,2.48-.85.11,0,.22,0,.33.01l.9.06c.12.02.2.13.2.27v23.41h-1.99c-.65-.01-1.3-.02-1.95-.04-.27-.07-.47-.36-.47-.69-1.05-7.36-.87-14.89.51-22.18Z"/>
    <path class="st2" d="M645.58,837.03c-.27-.11-.54-.19-.81-.26-.31-.14-.63-.26-.95-.37-.44-.14-.87-.29-1.31-.43-.6-.2-1.21-.35-1.83-.44-.38-.06-.77-.1-1.15-.12-.41-.03-.82-.06-1.23-.08-.97-.05-1.94-.05-2.92,0-.98.05-1.95.19-2.91.41-.73.16-1.43.4-2.12.7-.44.19-.77.47-1.06.9-.02.04-.04.07-.04.12v.42c.04.12.1.18.2.23h18.58c.11,0,.2-.1.2-.23v-.13h0c0-.13-.09-.23-.2-.24-.26-.04-.51-.07-.77-.11-.34-.02-.68-.07-1.01-.15l-.67-.21Z"/>
    <path class="st2" d="M645.58,789.9c-.27.11-.54.19-.81.26-.31.14-.63.26-.95.37-.44.14-.87.29-1.31.43-.6.2-1.21.35-1.83.44-.38.06-.77.1-1.15.12-.41.03-.82.06-1.23.08-.97.05-1.94.05-2.92,0-.98-.05-1.95-.19-2.91-.41-.73-.16-1.43-.4-2.12-.7-.44-.19-.77-.47-1.06-.9-.02-.04-.04-.07-.04-.12v-.42c.04-.12.1-.18.2-.23h18.58c.11,0,.2.1.2.23v.13h0c0,.13-.09.23-.2.24-.26.04-.51.07-.77.11-.34.02-.68.07-1.01.15l-.67.21Z"/>
  </g>
  <polygon class="st0" points="534.37 721.81 534.37 739.99 541.15 739.99 541 744.16 543.31 744.16 543.31 912.52 543.3 912.52 543.3 924.77 543.31 924.77 543.31 982.25 542.11 982.25 542.11 987.47 545.99 987.47 549.86 987.47 549.86 982.25 548.6 982.25 548.6 924.15 548.6 924.15 548.6 912.52 548.6 744.16 558.88 744.16 559.1 739.99 560.07 739.99 560.07 721.81 534.37 721.81"/>
  <g>
    <polyline class="st8" points="541.26 913.79 550.57 913.86 550.72 922.95 541.41 922.88 541.26 913.79"/>
    <line class="st6" x1="541.26" y1="915.58" x2="543.12" y2="913.79"/>
    <line class="st6" x1="541.33" y1="920.27" x2="547.81" y2="913.79"/>
    <line class="st6" x1="543.49" y1="922.88" x2="550.64" y2="915.73"/>
    <line class="st6" x1="548.19" y1="922.95" x2="550.64" y2="920.42"/>
    <line class="st6" x1="543.94" y1="922.88" x2="541.33" y2="920.35"/>
    <line class="st6" x1="548.71" y1="922.95" x2="541.26" y2="915.5"/>
    <line class="st6" x1="550.64" y1="920.12" x2="544.31" y2="913.79"/>
    <line class="st6" x1="550.57" y1="915.35" x2="549.08" y2="913.79"/>
  </g>
  <polyline class="st9" points="648.77 743.04 647.68 743.04 647.68 751.65 648.77 751.65"/>
  <polyline class="st9" points="647.68 752.62 647.68 742.06 646.27 742.06 646.27 752.62 647.68 752.62"/>
  <polygon class="st0" points="639.93 721.73 639.93 740.13 648.87 740.16 648.87 880.86 594.34 880.86 594.34 898.44 598.58 898.44 598.58 885.11 648.87 885.11 648.87 952.31 624.81 952.31 624.81 933.98 598.58 933.98 598.58 930.48 594.34 930.48 594.34 938.23 620.56 938.23 620.56 982.25 581.82 982.25 581.82 987.47 640.97 987.47 640.97 982.25 624.81 982.25 624.81 956.55 648.87 956.55 654.16 956.55 654.16 740.18 665.63 740.21 665.63 721.73 639.93 721.73"/>
  <g>
    <polyline class="st3" points="650.67 858.76 650.67 858.74 650.65 858.74"/>
    <line class="st10" x1="650.22" y1="858.74" x2="546.81" y2="858.74"/>
    <polyline class="st3" points="546.59 858.74 546.57 858.74 546.57 858.76"/>
    <line class="st11" x1="546.57" y1="859.19" x2="546.57" y2="911.32"/>
    <polyline class="st3" points="546.57 911.53 546.57 911.56 546.59 911.56"/>
    <line class="st10" x1="547.02" y1="911.56" x2="650.43" y2="911.56"/>
    <polyline class="st3" points="650.65 911.56 650.67 911.56 650.67 911.53"/>
    <line class="st11" x1="650.67" y1="911.1" x2="650.67" y2="858.98"/>
  </g>
</svg>