<?xml version="1.0" encoding="UTF-8"?>
<svg id="Lag_1" xmlns="http://www.w3.org/2000/svg" version="1.1" viewBox="0 0 1200 1697.14">
  <!-- Generator: Adobe Illustrator 29.6.0, SVG Export Plug-In . SVG Version: 2.1.1 Build 207)  -->
  <defs>
    <style>
      .st0, .st1, .st2, .st3, .st4, .st5, .st6, .st7, .st8, .st9, .st10, .st11, .st12 {
        stroke-width: .18px;
      }

      .st0, .st1, .st2, .st3, .st4, .st6, .st7, .st8, .st9, .st10, .st12 {
        stroke-linecap: round;
      }

      .st0, .st1, .st2, .st4, .st5, .st7, .st8, .st9, .st10, .st11, .st12 {
        stroke: #000;
      }

      .st0, .st1, .st4, .st6, .st7, .st8, .st10, .st12 {
        fill: none;
      }

      .st0, .st1, .st5, .st8 {
        stroke-miterlimit: 10;
      }

      .st1 {
        stroke-dasharray: .06 .42;
      }

      .st13 {
        fill: #000016;
      }

      .st2 {
        fill: #dddcdc;
      }

      .st2, .st3, .st4, .st6, .st7, .st9, .st10, .st11, .st12 {
        stroke-linejoin: round;
      }

      .st3 {
        stroke: #060305;
      }

      .st3, .st5, .st9, .st11 {
        fill: #fff;
      }

      .st14 {
        fill: #e8e3e0;
      }

      .st6 {
        stroke: #767676;
      }

      .st7 {
        stroke-dasharray: .06 .43;
      }

      .st15 {
        fill: #dbd7d5;
      }

      .st8 {
        stroke-dasharray: .06 .43;
      }

      .st10 {
        stroke-dasharray: .06 .43;
      }

      .st12 {
        stroke-dasharray: .06 .43;
      }
    </style>
  </defs>
  <polygon class="st14" points="622.64 955.3 650.65 955.3 650.65 722.85 545.64 722.85 545.64 985.72 622.64 985.72 622.64 955.3"/>
  <path class="st5" d="M629.71,941.47v-10.23c0-3.94,2.83-7.13,6.33-7.13s6.33,3.19,6.33,7.13v10.23h-12.66Z"/>
  <polygon class="st9" points="648.11 941.47 623.86 941.47 623.79 952.32 648.11 952.35 648.11 941.47"/>
  <rect class="st15" x="548.01" y="858.78" width="101.07" height="53.17"/>
  <g>
    <polyline class="st0" points="548.01 911.92 548.01 911.94 548.04 911.94"/>
    <line class="st1" x1="548.47" y1="911.94" x2="648.84" y2="911.94"/>
    <polyline class="st0" points="649.05 911.94 649.08 911.94 649.08 911.92"/>
    <line class="st8" x1="649.08" y1="911.49" x2="649.08" y2="859.02"/>
    <polyline class="st0" points="649.08 858.8 649.08 858.78 649.05 858.78"/>
    <line class="st1" x1="648.63" y1="858.78" x2="548.25" y2="858.78"/>
    <polyline class="st0" points="548.04 858.78 548.01 858.78 548.01 858.8"/>
    <line class="st8" x1="548.01" y1="859.23" x2="548.01" y2="911.7"/>
  </g>
  <rect class="st9" x="630.46" y="859.71" width="17.59" height="21.16"/>
  <rect class="st9" x="611.91" y="859.71" width="17.66" height="21.16"/>
  <rect class="st9" x="593.41" y="859.71" width="17.68" height="21.16"/>
  <polyline class="st9" points="571.42 722.93 571.42 728.22 569.63 728.22 569.63 722.93 571.42 722.93"/>
  <polyline class="st9" points="613.9 722.93 571.42 722.93 571.42 724.72 613.9 724.64 613.9 722.93"/>
  <polyline class="st9" points="639.38 722.85 615.61 722.93 615.61 725.54 639.38 725.54 639.38 722.85"/>
  <polyline class="st9" points="641.17 722.85 641.17 728.15 639.38 728.15 639.38 722.85 641.17 722.85"/>
  <polyline class="st9" points="615.61 722.93 615.69 728.15 613.9 728.15 613.9 722.93 615.61 722.93"/>
  <line class="st4" x1="641.17" y1="721.81" x2="569.63" y2="721.89"/>
  <line class="st4" x1="648.03" y1="880.83" x2="646.46" y2="880.83"/>
  <line class="st4" x1="644.6" y1="880.83" x2="643.33" y2="880.83"/>
  <line class="st4" x1="641.39" y1="880.83" x2="640.13" y2="880.83"/>
  <line class="st4" x1="638.27" y1="880.83" x2="637" y2="880.83"/>
  <line class="st4" x1="635.06" y1="880.83" x2="633.79" y2="880.83"/>
  <line class="st4" x1="648.03" y1="863.32" x2="648.03" y2="864.59"/>
  <line class="st4" x1="648.03" y1="866.45" x2="648.03" y2="867.72"/>
  <line class="st4" x1="648.03" y1="869.66" x2="648.03" y2="870.92"/>
  <line class="st4" x1="648.03" y1="872.79" x2="648.03" y2="874.05"/>
  <line class="st4" x1="648.03" y1="875.99" x2="648.03" y2="877.26"/>
  <line class="st4" x1="648.03" y1="879.12" x2="648.03" y2="880.83"/>
  <line class="st4" x1="611.07" y1="880.83" x2="609.5" y2="880.83"/>
  <line class="st4" x1="607.64" y1="880.83" x2="606.37" y2="880.83"/>
  <line class="st4" x1="604.43" y1="880.83" x2="603.17" y2="880.83"/>
  <line class="st4" x1="601.3" y1="880.83" x2="600.04" y2="880.83"/>
  <line class="st4" x1="598.1" y1="880.83" x2="596.83" y2="880.83"/>
  <line class="st4" x1="629.55" y1="880.83" x2="627.98" y2="880.83"/>
  <line class="st4" x1="626.12" y1="880.83" x2="624.85" y2="880.83"/>
  <line class="st4" x1="622.91" y1="880.83" x2="621.65" y2="880.83"/>
  <line class="st4" x1="619.78" y1="880.83" x2="618.52" y2="880.83"/>
  <line class="st4" x1="616.58" y1="880.83" x2="615.31" y2="880.83"/>
  <path class="st9" d="M631.78,893.17c0,.97.78,1.75,1.75,1.75s1.75-.78,1.75-1.75-.78-1.75-1.75-1.75-1.75.78-1.75,1.75"/>
  <line class="st4" x1="595.57" y1="928.67" x2="567.03" y2="928.67"/>
  <path class="st4" d="M595.53,900.13c-15.74,0-28.5,12.76-28.5,28.5"/>
  <line class="st4" x1="595.57" y1="900.21" x2="595.57" y2="928.67"/>
  <line class="st4" x1="550.63" y1="985.76" x2="550.63" y2="957.21"/>
  <path class="st4" d="M579.1,985.72c0-15.74-12.76-28.5-28.5-28.5"/>
  <line class="st4" x1="579.17" y1="985.76" x2="550.63" y2="985.76"/>
  <polyline class="st9" points="598.55 938.88 619.64 938.88 619.64 981.14 598.55 981.14 598.55 938.88"/>
  <polyline class="st4" points="619.64 951.25 598.55 951.25 598.55 938.88 619.64 938.88 619.64 951.25"/>
  <line class="st4" x1="617.18" y1="945.29" x2="611.59" y2="945.29"/>
  <line class="st4" x1="606.67" y1="945.29" x2="601.01" y2="945.29"/>
  <line class="st4" x1="603.84" y1="948.05" x2="603.84" y2="942.46"/>
  <line class="st4" x1="614.34" y1="948.05" x2="614.34" y2="942.46"/>
  <polyline class="st4" points="602.05 977.63 616.13 977.63 616.13 963.55 602.05 963.55 602.05 977.63"/>
  <polyline class="st4" points="619.64 960.05 619.64 981.14 598.55 981.14 598.55 960.05 619.64 960.05"/>
  <line class="st4" x1="618.07" y1="970.63" x2="612.48" y2="970.63"/>
  <path class="st9" d="M617.54,885.15v9.28c0,.21-.13.37-.3.37h-16.92c-.21,0-.37-.17-.37-.37v-9.28"/>
  <path class="st4" d="M608.08,886.87c0,.35.28.63.63.63s.63-.28.63-.63-.28-.63-.63-.63-.63.28-.63.63"/>
  <path class="st4" d="M607.93,891.34c0,.43.35.78.78.78s.78-.35.78-.78-.35-.78-.78-.78-.78.35-.78.78"/>
  <path class="st4" d="M607.56,891.34c0,.64.52,1.16,1.16,1.16s1.16-.52,1.16-1.16-.52-1.16-1.16-1.16-1.16.52-1.16,1.16"/>
  <path class="st4" d="M600.7,888.25h16.1c.21,0,.37.17.37.37v5.44c0,.2-.17.37-.37.37h-16.1c-.21,0-.37-.17-.37-.37v-5.44c0-.2.17-.37.37-.37Z"/>
  <g>
    <polyline class="st4" points="619.44 913.54 619.44 913.56 619.47 913.56"/>
    <line class="st12" x1="619.9" y1="913.56" x2="647.37" y2="913.56"/>
    <polyline class="st4" points="647.58 913.56 647.61 913.56 647.61 913.54"/>
    <line class="st7" x1="647.61" y1="913.11" x2="647.61" y2="885.62"/>
    <polyline class="st4" points="647.61 885.41 647.61 885.38 647.58 885.38"/>
    <line class="st12" x1="647.16" y1="885.38" x2="619.69" y2="885.38"/>
    <polyline class="st4" points="619.47 885.38 619.44 885.38 619.44 885.41"/>
    <line class="st7" x1="619.44" y1="885.84" x2="619.44" y2="913.32"/>
  </g>
  <line class="st4" x1="633.57" y1="885.38" x2="633.57" y2="893.2"/>
  <g>
    <path class="st4" d="M615.84,722.32s0-.02,0-.03"/>
    <path class="st10" d="M615.86,721.87c.28-3.09,3.07-12.2,3.79-12.2l19.3,12.95.23.16"/>
    <line class="st4" x1="639.36" y1="722.91" x2="639.38" y2="722.93"/>
  </g>
  <line class="st2" x1="653.32" y1="956.54" x2="623.88" y2="982.25"/>
  <line class="st2" x1="623.88" y1="956.54" x2="653.32" y2="982.25"/>
  <g>
    <g>
      <path class="st9" d="M551.75,784.27c0,4.57,3.94,8.27,8.8,8.27,3.58,0,7.12-2.34,8.34-5.64.17-.45.51-1.4.46-2.64-.16-3.89-4.03-8.27-8.8-8.27s-8.8,3.7-8.8,8.27Z"/>
      <path class="st4" d="M568.2,786.12c0,2.81-3.42,5.08-7.64,5.08"/>
      <path class="st4" d="M552.92,786.12c0,2.81,3.42,5.08,7.64,5.08"/>
      <path class="st4" d="M552.92,786.12c0-.55-.44-1-.98-1"/>
      <path class="st4" d="M568.2,786.12c0-.55.44-1,.98-1"/>
      <g>
        <path class="st9" d="M573.43,784.27c0,4.57,3.94,8.27,8.8,8.27,3.58,0,7.12-2.34,8.34-5.64.17-.45.51-1.4.46-2.64-.16-3.89-4.03-8.27-8.8-8.27s-8.8,3.7-8.8,8.27Z"/>
        <path class="st4" d="M589.87,786.12c0,2.81-3.42,5.08-7.64,5.08"/>
        <path class="st4" d="M574.59,786.12c0,2.81,3.42,5.08,7.64,5.08"/>
        <path class="st4" d="M574.59,786.12c0-.55-.44-1-.98-1"/>
        <path class="st4" d="M589.87,786.12c0-.55.48-1,1.06-1"/>
      </g>
    </g>
    <g>
      <path class="st9" d="M551.75,757.02c0-4.57,3.94-8.27,8.8-8.27,3.58,0,7.12,2.34,8.34,5.64.17.45.51,1.4.46,2.64-.16,3.89-4.03,8.27-8.8,8.27s-8.8-3.7-8.8-8.27Z"/>
      <path class="st4" d="M568.2,755.16c0-2.81-3.42-5.08-7.64-5.08"/>
      <path class="st4" d="M552.92,755.16c0-2.81,3.42-5.08,7.64-5.08"/>
      <path class="st4" d="M552.92,755.16c0,.55-.44,1-.98,1"/>
      <path class="st4" d="M568.2,755.16c0,.55.44,1,.98,1"/>
      <g>
        <path class="st9" d="M573.43,757.02c0-4.57,3.94-8.27,8.8-8.27,3.58,0,7.12,2.34,8.34,5.64.17.45.51,1.4.46,2.64-.16,3.89-4.03,8.27-8.8,8.27s-8.8-3.7-8.8-8.27Z"/>
        <path class="st4" d="M589.87,755.16c0-2.81-3.42-5.08-7.64-5.08"/>
        <path class="st4" d="M574.59,755.16c0-2.81,3.42-5.08,7.64-5.08"/>
        <path class="st4" d="M574.59,755.16c0,.55-.44,1-.98,1"/>
        <path class="st4" d="M589.87,755.16c0,.55.48,1,1.06,1"/>
      </g>
    </g>
    <rect class="st9" x="559.95" y="748.52" width="22.88" height="44.85" transform="translate(1342.33 199.55) rotate(90)"/>
  </g>
  <circle class="st3" cx="612.18" cy="828.44" r="9.66"/>
  <g>
    <path class="st3" d="M626.33,838.44c-1.24-7.61-1.37-15.41-.37-23.07,0-.33.19-.61.47-.69,6.42-.02,12.83-.05,19.25-.07"/>
    <path class="st3" d="M626.33,838.44c.02.13.11.22.22.23h18.87l.26-24.07c-6.42-.02-12.83-.05-19.25-.07-.28-.07-.47-.36-.47-.69-.99-7.66-.87-15.46.37-23.07.02-.13.11-.22.22-.23h19.12v24.05"/>
    <path class="st3" d="M646.64,838.34c-.6.07-1.19.08-1.79.01-.12-.02-.2-.13-.2-.27-.18-7.7-.22-15.39-.13-23.08.02-.19.16-.34.33-.34.66-.06,1.31-.04,1.96.03"/>
    <path class="st3" d="M646.64,790.88c-.6-.07-1.19-.08-1.79-.01-.12.02-.2.13-.2.27-.18,7.7-.22,15.39-.13,23.08.02.19.16.34.33.34.66.06,1.31.04,1.96-.03"/>
    <path class="st3" d="M646.99,790.59h.21c.07,0,.12.06.12.14v47.75c0,.08-.06.14-.12.14h-.21l-.15-.06v-.36s.15-47.62.15-47.62Z"/>
    <path class="st3" d="M642.94,837.56c0,.47,1.11.85,2.48.85.11,0,.22,0,.33-.01l.9-.06c.12-.02.2-.13.2-.27v-23.42h-1.99c-.65.01-1.3.02-1.95.04-.28.07-.47.36-.47.69-1.05,7.36-.87,14.89.51,22.18Z"/>
    <path class="st3" d="M642.94,791.69c0-.47,1.11-.85,2.48-.85.11,0,.22,0,.33.01l.9.06c.12.02.2.13.2.27v23.42h-1.99c-.65-.01-1.3-.02-1.95-.04-.28-.07-.47-.36-.47-.69-1.05-7.36-.87-14.89.51-22.18Z"/>
    <path class="st3" d="M644.67,838.18c-.27-.11-.54-.19-.81-.26-.31-.14-.63-.26-.95-.37-.44-.14-.87-.29-1.31-.43-.6-.2-1.21-.35-1.84-.44-.38-.06-.77-.1-1.15-.12-.41-.03-.82-.06-1.23-.08-.97-.05-1.94-.05-2.92,0-.98.05-1.95.19-2.92.41-.73.16-1.43.4-2.12.7-.44.19-.77.47-1.06.9-.02.04-.04.07-.04.12v.42c.04.12.1.18.2.23h18.58c.11,0,.2-.1.2-.23v-.13h0c0-.13-.09-.23-.2-.24-.26-.04-.51-.07-.77-.11-.34-.02-.68-.07-1.01-.15l-.67-.21Z"/>
    <path class="st3" d="M644.67,791.04c-.27.11-.54.19-.81.26-.31.14-.63.26-.95.37-.44.14-.87.29-1.31.43-.6.2-1.21.35-1.84.44-.38.06-.77.1-1.15.12-.41.03-.82.06-1.23.08-.97.05-1.94.05-2.92,0-.98-.05-1.95-.19-2.92-.41-.73-.16-1.43-.4-2.12-.7-.44-.19-.77-.47-1.06-.9-.02-.04-.04-.07-.04-.12v-.42c.04-.12.1-.18.2-.23h18.58c.11,0,.2.1.2.23v.13h0c0,.13-.09.23-.2.24-.26.04-.51.07-.77.11-.34.02-.68.07-1.01.15l-.67.21Z"/>
  </g>
  <polygon class="st13" points="548.32 982.25 548.32 928.42 548.32 928.08 548.32 923.53 543.03 923.53 543.03 928 543.03 928.42 543.03 931.09 543.03 941.34 543.03 947.01 543.03 970.55 543.03 987.47 545.71 987.47 549.59 987.47 549.59 982.25 548.32 982.25"/>
  <polygon class="st13" points="565.83 721.89 543.02 721.89 542.89 739.16 542.89 739.16 542.88 739.7 542.89 739.7 542.89 909.37 542.89 917.97 548.27 917.97 548.27 909.45 548.27 909.37 548.27 739.73 569.63 739.85 569.63 721.89 565.83 721.89"/>
  <g>
    <polyline class="st9" points="537.74 910.94 553.31 911.09 553.54 926.51 538.04 926.36 537.74 910.94"/>
    <line class="st6" x1="537.81" y1="916.01" x2="542.81" y2="911.01"/>
    <line class="st6" x1="537.89" y1="920.63" x2="547.5" y2="911.01"/>
    <line class="st6" x1="537.96" y1="925.32" x2="552.2" y2="911.09"/>
    <line class="st6" x1="541.61" y1="926.36" x2="553.31" y2="914.66"/>
    <line class="st6" x1="546.31" y1="926.44" x2="553.46" y2="919.36"/>
    <line class="st6" x1="551.08" y1="926.44" x2="553.54" y2="923.98"/>
    <line class="st6" x1="543.63" y1="926.44" x2="537.89" y2="920.63"/>
    <line class="st6" x1="548.47" y1="926.44" x2="537.81" y2="915.86"/>
    <line class="st6" x1="553.24" y1="926.51" x2="537.74" y2="911.01"/>
    <line class="st6" x1="553.46" y1="921.97" x2="542.51" y2="911.01"/>
    <line class="st6" x1="553.39" y1="917.2" x2="547.28" y2="911.01"/>
    <line class="st6" x1="553.31" y1="912.35" x2="552.05" y2="911.09"/>
  </g>
  <polyline class="st11" points="647.93 742.63 646.84 742.63 646.84 751.24 647.93 751.24"/>
  <polyline class="st11" points="646.84 752.22 646.84 741.66 645.43 741.66 645.43 752.22 646.84 752.22"/>
  <polygon class="st13" points="641.17 721.81 641.17 739.85 648.03 739.85 648.03 880.83 593.41 880.83 593.41 898.42 597.65 898.42 597.65 885.08 648.03 885.08 648.03 952.3 623.88 952.3 623.88 933.96 597.65 933.96 597.65 930.46 593.41 930.46 593.41 938.21 619.64 938.21 619.64 982.25 580.96 982.25 580.96 987.47 640.05 987.47 640.05 982.25 623.88 982.25 623.88 956.54 648.03 956.54 653.32 956.54 653.32 739.85 662.26 739.85 662.26 721.81 641.17 721.81"/>
</svg>