<?xml version="1.0" encoding="UTF-8"?>
<svg id="Lag_1" xmlns="http://www.w3.org/2000/svg" version="1.1" viewBox="0 0 1200 1697.14">
  <!-- Generator: Adobe Illustrator 29.6.0, SVG Export Plug-In . SVG Version: 2.1.1 Build 207)  -->
  <defs>
    <style>
      .st0 {
        fill: #000016;
      }

      .st1, .st2, .st3, .st4, .st5, .st6, .st7, .st8, .st9, .st10, .st11, .st12, .st13, .st14, .st15, .st16 {
        stroke-width: .18px;
      }

      .st1, .st2, .st3, .st4, .st5, .st6, .st7, .st8, .st10, .st11, .st12, .st13, .st14, .st15, .st16 {
        stroke-linejoin: round;
      }

      .st1, .st2, .st3, .st5, .st6, .st7, .st8, .st10, .st12, .st13, .st14, .st15 {
        stroke-linecap: round;
      }

      .st1, .st9, .st11, .st15, .st16 {
        fill: #fff;
      }

      .st1, .st11 {
        stroke: #060305;
      }

      .st17 {
        fill: #e8e3e0;
      }

      .st2 {
        stroke-dasharray: .06 .43;
      }

      .st2, .st3, .st4, .st5, .st6, .st7, .st8, .st9, .st12, .st13, .st14, .st15, .st16 {
        stroke: #000;
      }

      .st2, .st3, .st4, .st5, .st6, .st7, .st8, .st10, .st12, .st13, .st14 {
        fill: none;
      }

      .st5 {
        stroke-dasharray: .06 .42;
      }

      .st6 {
        stroke-dasharray: .06 .44;
      }

      .st7 {
        stroke-dasharray: .06 .42;
      }

      .st8 {
        stroke-dasharray: .06 .42;
      }

      .st9 {
        stroke-miterlimit: 10;
      }

      .st10 {
        stroke: #767676;
      }

      .st18 {
        fill: #dbd7d5;
      }

      .st12 {
        stroke-dasharray: .06 .43;
      }

      .st13 {
        stroke-dasharray: .05 .35;
      }

      .st14 {
        stroke-dasharray: .06 .43;
      }
    </style>
  </defs>
  <line class="st3" x1="616.03" y1="713.89" x2="616.03" y2="719.93"/>
  <polygon class="st17" points="575.58 712.1 575.58 742.09 547.26 742.09 547.26 712.1 544.48 712.1 544.48 973.62 652.95 973.62 652.95 712.1 575.58 712.1"/>
  <rect class="st18" x="548.58" y="785.1" width="102.87" height="53.94"/>
  <g>
    <path class="st3" d="M585.53,975.93s0,.02,0,.03"/>
    <path class="st7" d="M585.5,976.38c-.32,2.7-3.1,10.38-3.82,10.38l-19.5-11.09-.23-.13"/>
    <line class="st3" x1="561.77" y1="975.43" x2="561.74" y2="975.41"/>
  </g>
  <polyline class="st15" points="599.29 759 578.19 759 578.19 716.72 599.29 716.72 599.29 759"/>
  <polyline class="st3" points="578.19 746.62 599.29 746.62 599.29 759 578.19 759 578.19 746.62"/>
  <line class="st3" x1="591.16" y1="752.66" x2="596.83" y2="752.66"/>
  <line class="st3" x1="594" y1="749.83" x2="594" y2="755.42"/>
  <polyline class="st3" points="595.79 720.23 581.69 720.23 581.69 734.32 595.79 734.32 595.79 720.23"/>
  <polyline class="st3" points="578.19 737.83 578.19 716.72 599.29 716.72 599.29 737.83 578.19 737.83"/>
  <line class="st3" x1="580.65" y1="752.66" x2="586.24" y2="752.66"/>
  <line class="st3" x1="583.48" y1="749.83" x2="583.48" y2="755.42"/>
  <line class="st3" x1="579.75" y1="727.24" x2="585.35" y2="727.24"/>
  <polyline class="st15" points="638.22 975.41 638.22 970.12 640.01 970.12 640.01 975.41 638.22 975.41"/>
  <polyline class="st15" points="587.29 975.41 638.22 975.41 638.22 973.7 587.29 973.62 587.29 975.41"/>
  <polyline class="st15" points="561.78 975.41 585.5 975.41 585.5 972.73 561.78 972.73 561.78 975.41"/>
  <polyline class="st15" points="559.99 975.41 559.99 970.12 561.78 970.12 561.78 975.41 559.99 975.41"/>
  <polyline class="st15" points="585.5 975.41 585.5 970.12 587.29 970.12 587.29 975.41 585.5 975.41"/>
  <line class="st3" x1="640.01" y1="976.46" x2="559.99" y2="976.46"/>
  <line class="st3" x1="602.27" y1="769.22" x2="630.84" y2="769.22"/>
  <path class="st3" d="M602.24,797.71c15.75,0,28.52-12.77,28.52-28.52"/>
  <line class="st3" x1="602.27" y1="797.71" x2="602.27" y2="769.22"/>
  <line class="st3" x1="647.24" y1="712.1" x2="647.24" y2="740.66"/>
  <path class="st3" d="M618.68,712.06c0,15.75,12.77,28.52,28.52,28.52"/>
  <line class="st3" x1="618.68" y1="712.1" x2="647.24" y2="712.1"/>
  <path class="st16" d="M566,804.75c0,.97-.78,1.75-1.75,1.75s-1.75-.78-1.75-1.75.78-1.75,1.75-1.75,1.75.78,1.75,1.75"/>
  <path class="st9" d="M568.11,756.43v10.24c0,3.94-2.83,7.13-6.33,7.13s-6.33-3.19-6.33-7.13v-10.24s12.67,0,12.67,0Z"/>
  <polygon class="st16" points="549.69 756.43 573.96 756.43 574.03 745.57 549.69 745.54 549.69 756.43"/>
  <rect class="st16" x="549.75" y="817.07" width="17.6" height="21.18" transform="translate(1117.1 1655.32) rotate(180)"/>
  <rect class="st16" x="568.25" y="817.07" width="17.67" height="21.18" transform="translate(1154.16 1655.32) rotate(180)"/>
  <rect class="st16" x="586.74" y="817.07" width="17.69" height="21.18" transform="translate(1191.17 1655.32) rotate(180)"/>
  <path class="st16" d="M580.28,812.79v-9.29c0-.21.13-.37.3-.37h16.93c.21,0,.37.17.37.37v9.29"/>
  <path class="st4" d="M589.75,811.07c0-.35-.28-.63-.63-.63s-.63.28-.63.63.28.63.63.63.63-.28.63-.63"/>
  <path class="st4" d="M589.9,806.59c0-.43-.35-.78-.78-.78s-.78.35-.78.78c0,.43.35.78.78.78s.78-.35.78-.78"/>
  <path class="st4" d="M590.27,806.59c0-.64-.52-1.16-1.16-1.16s-1.16.52-1.16,1.16c0,.64.52,1.16,1.16,1.16s1.16-.52,1.16-1.16"/>
  <path class="st4" d="M581.02,803.5h16.11c.21,0,.37.17.37.37v5.44c0,.21-.17.37-.37.37h-16.11c-.21,0-.37-.17-.37-.37v-5.45c0-.2.17-.37.37-.37Z"/>
  <g>
    <polyline class="st3" points="578.38 784.38 578.38 784.35 578.35 784.35"/>
    <line class="st12" x1="577.92" y1="784.35" x2="550.43" y2="784.35"/>
    <polyline class="st3" points="550.22 784.35 550.19 784.35 550.19 784.38"/>
    <line class="st12" x1="550.19" y1="784.81" x2="550.19" y2="812.3"/>
    <polyline class="st3" points="550.19 812.51 550.19 812.54 550.22 812.54"/>
    <line class="st12" x1="550.65" y1="812.54" x2="578.13" y2="812.54"/>
    <polyline class="st3" points="578.35 812.54 578.38 812.54 578.38 812.51"/>
    <line class="st12" x1="578.38" y1="812.08" x2="578.38" y2="784.6"/>
  </g>
  <line class="st4" x1="564.28" y1="812.41" x2="564.28" y2="804.58"/>
  <line class="st3" x1="573.94" y1="710.38" x2="549.78" y2="741.33"/>
  <line class="st3" x1="549.78" y1="710.38" x2="573.94" y2="741.33"/>
  <polygon class="st0" points="663.87 957.66 663.87 952.59 655.52 952.59 655.52 787.85 655.52 787.85 655.52 768.92 655.52 768.77 655.52 715.6 656.71 715.6 656.71 710.38 650.22 710.38 648.96 710.38 648.96 715.6 650.22 715.6 650.22 768.77 650.22 768.92 650.22 787.56 650.22 787.56 650.22 952.59 640.01 952.59 640.01 976.46 665.74 976.53 665.74 957.66 663.87 957.66"/>
  <g>
    <polyline class="st15" points="645.23 770.42 661.12 770.57 661.12 786.38 645.31 786.31 645.23 770.42"/>
    <line class="st10" x1="645.23" y1="774.38" x2="649.11" y2="770.42"/>
    <line class="st10" x1="645.23" y1="779.08" x2="653.81" y2="770.5"/>
    <line class="st10" x1="645.23" y1="783.85" x2="658.51" y2="770.57"/>
    <line class="st10" x1="647.54" y1="786.31" x2="661.12" y2="772.74"/>
    <line class="st10" x1="652.24" y1="786.31" x2="661.12" y2="777.43"/>
    <line class="st10" x1="656.94" y1="786.38" x2="661.12" y2="782.21"/>
    <line class="st10" x1="649.71" y1="786.31" x2="645.23" y2="781.83"/>
    <line class="st10" x1="654.55" y1="786.38" x2="645.23" y2="777.06"/>
    <line class="st10" x1="659.33" y1="786.38" x2="645.23" y2="772.36"/>
    <line class="st10" x1="661.12" y1="783.48" x2="648.07" y2="770.42"/>
    <line class="st10" x1="661.12" y1="778.7" x2="652.91" y2="770.5"/>
    <line class="st10" x1="661.12" y1="773.93" x2="657.69" y2="770.5"/>
  </g>
  <g>
    <path class="st1" d="M627.09,949.61c-1.23-7.56-1.36-15.31-.37-22.93,0-.33.19-.61.47-.68,6.38-.02,12.75-.05,19.13-.07"/>
    <path class="st1" d="M627.09,949.61c.02.13.11.22.22.23h18.75l.26-23.93c-6.38-.02-12.75-.05-19.13-.07-.27-.07-.47-.36-.47-.68-.99-7.61-.86-15.36.37-22.93.02-.13.11-.22.22-.23h19.01v23.91"/>
    <path class="st1" d="M647.29,949.5c-.6.07-1.18.08-1.78.01-.11-.02-.2-.13-.2-.27-.18-7.65-.22-15.29-.13-22.94.02-.19.16-.34.33-.34.65-.06,1.3-.04,1.95.03"/>
    <path class="st1" d="M647.29,902.34c-.6-.07-1.18-.08-1.78-.01-.11.02-.2.13-.2.27-.18,7.65-.22,15.29-.13,22.94.02.19.16.34.33.34.65.06,1.3.04,1.95-.03"/>
    <path class="st1" d="M647.64,902.04h.21c.07,0,.12.06.12.14v47.46c0,.08-.06.14-.12.14h-.21l-.14-.06v-.36s.14-47.33.14-47.33Z"/>
    <path class="st1" d="M643.61,948.73c0,.47,1.1.84,2.47.84.11,0,.22,0,.33-.01l.89-.06c.11-.02.2-.13.2-.27v-23.27h-1.98c-.65.01-1.29.02-1.94.04-.27.07-.47.36-.47.68-1.04,7.32-.87,14.8.5,22.05Z"/>
    <path class="st1" d="M643.61,903.14c0-.47,1.1-.84,2.47-.84.11,0,.22,0,.33.01l.89.06c.11.02.2.13.2.27v23.27h-1.98c-.65-.01-1.29-.02-1.94-.04-.27-.07-.47-.36-.47-.68-1.04-7.32-.87-14.8.5-22.05Z"/>
    <path class="st1" d="M645.33,949.35c-.27-.11-.53-.19-.81-.26-.31-.14-.62-.26-.94-.36-.44-.14-.87-.29-1.3-.43-.6-.2-1.2-.35-1.82-.44-.38-.05-.76-.1-1.14-.12-.41-.03-.81-.06-1.22-.08-.97-.05-1.93-.05-2.9,0-.98.05-1.94.19-2.9.4-.72.16-1.42.39-2.11.7-.43.19-.76.47-1.05.89-.02.04-.03.07-.03.12v.42c.04.11.1.18.2.23h18.47c.11,0,.2-.1.2-.23v-.13h0c0-.13-.09-.23-.2-.24-.26-.04-.51-.07-.77-.11-.34-.02-.67-.07-1.01-.15l-.67-.21Z"/>
    <path class="st1" d="M645.33,902.49c-.27.11-.53.19-.81.26-.31.14-.62.26-.94.36-.44.14-.87.29-1.3.43-.6.2-1.2.35-1.82.44-.38.05-.76.1-1.14.12-.41.03-.81.06-1.22.08-.97.05-1.93.05-2.9,0-.98-.05-1.94-.19-2.9-.4-.72-.16-1.42-.39-2.11-.7-.43-.19-.76-.47-1.05-.89-.02-.04-.03-.07-.03-.12v-.42c.04-.11.1-.18.2-.23h18.47c.11,0,.2.1.2.23v.13h0c0,.13-.09.23-.2.24-.26.04-.51.07-.77.11-.34.02-.67.07-1.01.15l-.67.21Z"/>
  </g>
  <circle class="st11" cx="614.53" cy="951.6" r="9.6"/>
  <g>
    <polyline class="st16" points="549.66 940.67 550.99 940.67 550.99 949.25 549.66 949.25"/>
    <polyline class="st16" points="550.99 950.22 550.99 939.7 552.4 939.7 552.4 950.22 550.99 950.22"/>
  </g>
  <g>
    <g>
      <path class="st15" d="M592.42,860.34c0-4.54-3.92-8.22-8.75-8.22-3.56,0-7.08,2.33-8.29,5.6-.17.45-.5,1.39-.45,2.62.15,3.86,4,8.22,8.75,8.22s8.75-3.68,8.75-8.22Z"/>
      <path class="st3" d="M576.08,858.49c0-2.79,3.4-5.05,7.59-5.05"/>
      <path class="st3" d="M591.27,858.49c0-2.79-3.4-5.05-7.59-5.05"/>
      <path class="st3" d="M591.27,858.49c0,.55.44,1,.98,1"/>
      <path class="st3" d="M576.08,858.49c0,.55-.44,1-.98,1"/>
      <g>
        <path class="st15" d="M570.88,860.34c0-4.54-3.92-8.22-8.75-8.22-3.56,0-7.08,2.33-8.29,5.6-.17.45-.5,1.39-.45,2.62.15,3.86,4,8.22,8.75,8.22s8.75-3.68,8.75-8.22Z"/>
        <path class="st3" d="M554.54,858.49c0-2.79,3.4-5.05,7.59-5.05"/>
        <path class="st3" d="M569.73,858.49c0-2.79-3.4-5.05-7.59-5.05"/>
        <path class="st3" d="M569.73,858.49c0,.55.44,1,.98,1"/>
        <path class="st3" d="M554.54,858.49c0,.55-.47,1-1.06,1"/>
      </g>
    </g>
    <g>
      <path class="st15" d="M592.42,887.42c0,4.54-3.92,8.22-8.75,8.22-3.56,0-7.08-2.33-8.29-5.6-.17-.45-.5-1.39-.45-2.62.15-3.86,4-8.22,8.75-8.22s8.75,3.68,8.75,8.22Z"/>
      <path class="st3" d="M576.08,889.27c0,2.79,3.4,5.05,7.59,5.05"/>
      <path class="st3" d="M591.27,889.27c0,2.79-3.4,5.05-7.59,5.05"/>
      <path class="st3" d="M591.27,889.27c0-.55.44-1,.98-1"/>
      <path class="st3" d="M576.08,889.27c0-.55-.44-1-.98-1"/>
      <g>
        <path class="st15" d="M570.88,887.42c0,4.54-3.92,8.22-8.75,8.22-3.56,0-7.08-2.33-8.29-5.6-.17-.45-.5-1.39-.45-2.62.15-3.86,4-8.22,8.75-8.22s8.75,3.68,8.75,8.22Z"/>
        <path class="st3" d="M554.54,889.27c0,2.79,3.4,5.05,7.59,5.05"/>
        <path class="st3" d="M569.73,889.27c0,2.79-3.4,5.05-7.59,5.05"/>
        <path class="st3" d="M569.73,889.27c0-.55.44-1,.98-1"/>
        <path class="st3" d="M554.54,889.27c0-.55-.47-1-1.06-1"/>
      </g>
    </g>
    <rect class="st15" x="561.53" y="851.29" width="22.74" height="44.58" transform="translate(-300.68 1446.48) rotate(-90)"/>
  </g>
  <polygon class="st0" points="616.89 715.6 616.89 710.38 582.74 710.38 579.23 710.38 573.94 710.38 573.94 741.33 549.78 741.33 549.78 710.38 544.48 710.38 544.48 952.59 534.26 952.59 534.26 976.46 559.99 976.46 559.99 952.59 549.78 952.59 549.78 817.1 604.44 817.1 604.44 799.5 600.19 799.5 600.19 812.92 549.78 812.92 549.78 745.58 573.94 745.58 573.94 763.93 600.19 763.93 600.19 767.43 604.44 767.43 604.44 759.67 578.19 759.67 578.19 715.6 616.89 715.6"/>
  <g>
    <polyline class="st3" points="645.33 786.31 645.31 786.31 645.31 786.28"/>
    <line class="st13" x1="645.3" y1="785.93" x2="645.3" y2="785.31"/>
    <polyline class="st3" points="645.3 785.13 645.3 785.1 645.27 785.1"/>
    <line class="st14" x1="644.85" y1="785.1" x2="544.72" y2="785.1"/>
    <polyline class="st3" points="544.51 785.1 544.48 785.1 544.48 785.13"/>
    <line class="st5" x1="544.48" y1="785.56" x2="544.48" y2="838.8"/>
    <polyline class="st3" points="544.48 839.01 544.48 839.04 544.51 839.04"/>
    <line class="st8" x1="544.93" y1="839.04" x2="652" y2="839.04"/>
    <polyline class="st3" points="652.21 839.04 652.24 839.04 652.24 839.01"/>
    <line class="st2" x1="652.24" y1="838.58" x2="652.24" y2="786.58"/>
    <polyline class="st3" points="652.24 786.37 652.24 786.34 652.21 786.34"/>
    <line class="st6" x1="651.78" y1="786.34" x2="645.55" y2="786.31"/>
  </g>
</svg>