<?xml version="1.0" encoding="UTF-8"?>
<svg id="Lag_1" xmlns="http://www.w3.org/2000/svg" version="1.1" viewBox="0 0 1200 1697.14">
  <!-- Generator: Adobe Illustrator 29.6.0, SVG Export Plug-In . SVG Version: 2.1.1 Build 207)  -->
  <defs>
    <style>
      .st0, .st1, .st2, .st3, .st4, .st5, .st6, .st7, .st8, .st9, .st10, .st11, .st12, .st13 {
        stroke-width: .18px;
      }

      .st0, .st1, .st2, .st3, .st4, .st6, .st7, .st8, .st10, .st12, .st13 {
        stroke-linecap: round;
      }

      .st0, .st1, .st3, .st4, .st5, .st7, .st8, .st10, .st11, .st12, .st13 {
        stroke: #000;
      }

      .st0, .st1, .st3, .st4, .st6, .st7, .st8, .st13 {
        fill: none;
      }

      .st0, .st1, .st5, .st13 {
        stroke-miterlimit: 10;
      }

      .st1 {
        stroke-dasharray: .06 .42;
      }

      .st14 {
        fill: #000016;
      }

      .st2, .st3, .st4, .st6, .st7, .st8, .st9, .st10, .st11, .st12 {
        stroke-linejoin: round;
      }

      .st2, .st5, .st9, .st10, .st11 {
        fill: #fff;
      }

      .st2, .st9 {
        stroke: #060305;
      }

      .st15 {
        fill: #e8e3e0;
      }

      .st4 {
        stroke-dasharray: .06 .42;
      }

      .st6 {
        stroke: #767676;
      }

      .st16 {
        fill: #dbd7d5;
      }

      .st7 {
        stroke-dasharray: .06 .42;
      }

      .st8 {
        stroke-dasharray: .06 .43;
      }

      .st12 {
        fill: #dcdbdb;
      }

      .st13 {
        stroke-dasharray: .06 .43;
      }
    </style>
  </defs>
  <polygon class="st15" points="624.53 741.63 652.59 741.63 652.59 972.48 547.41 972.48 547.41 711.43 624.53 711.43 624.53 741.63"/>
  <rect class="st16" x="549.79" y="785.32" width="101.22" height="53.25"/>
  <polyline class="st10" points="638.25 974.27 638.25 968.97 640.04 968.97 640.04 974.27 638.25 974.27"/>
  <polyline class="st10" points="587.27 974.27 638.25 974.27 638.25 972.48 587.27 972.48 587.27 974.27"/>
  <polyline class="st10" points="561.75 974.19 585.48 974.27 585.48 971.58 561.75 971.58 561.75 974.19"/>
  <polyline class="st10" points="559.96 974.19 559.96 968.97 561.75 968.97 561.75 974.19 559.96 974.19"/>
  <polyline class="st10" points="585.48 974.27 585.48 968.97 587.27 968.97 587.27 974.27 585.48 974.27"/>
  <path class="st5" d="M631.61,755.75v10.25c0,3.95,2.84,7.14,6.34,7.14s6.34-3.19,6.34-7.14v-10.25h-12.68Z"/>
  <polygon class="st10" points="650.04 755.75 625.75 755.75 625.69 744.88 650.04 744.85 650.04 755.75"/>
  <g>
    <polyline class="st0" points="549.79 785.34 549.79 785.32 549.82 785.32"/>
    <line class="st13" x1="550.24" y1="785.32" x2="650.77" y2="785.32"/>
    <polyline class="st0" points="650.99 785.32 651.01 785.32 651.01 785.34"/>
    <line class="st1" x1="651.01" y1="785.77" x2="651.01" y2="838.33"/>
    <polyline class="st0" points="651.01 838.54 651.01 838.57 650.99 838.57"/>
    <line class="st13" x1="650.56" y1="838.57" x2="550.03" y2="838.57"/>
    <polyline class="st0" points="549.82 838.57 549.79 838.57 549.79 838.54"/>
    <line class="st1" x1="549.79" y1="838.12" x2="549.79" y2="785.56"/>
  </g>
  <rect class="st10" x="632.37" y="816.44" width="17.61" height="21.2"/>
  <rect class="st10" x="613.78" y="816.44" width="17.69" height="21.2"/>
  <rect class="st10" x="595.26" y="816.44" width="17.7" height="21.2"/>
  <line class="st3" x1="649.96" y1="816.48" x2="648.39" y2="816.48"/>
  <line class="st3" x1="646.53" y1="816.48" x2="645.26" y2="816.48"/>
  <line class="st3" x1="643.32" y1="816.48" x2="642.05" y2="816.48"/>
  <line class="st3" x1="640.18" y1="816.48" x2="638.91" y2="816.48"/>
  <line class="st3" x1="636.97" y1="816.48" x2="635.7" y2="816.48"/>
  <line class="st3" x1="649.96" y1="834.02" x2="649.96" y2="832.75"/>
  <line class="st3" x1="649.96" y1="830.88" x2="649.96" y2="829.61"/>
  <line class="st3" x1="649.96" y1="827.67" x2="649.96" y2="826.4"/>
  <line class="st3" x1="649.96" y1="824.54" x2="649.96" y2="823.27"/>
  <line class="st3" x1="649.96" y1="821.33" x2="649.96" y2="820.06"/>
  <line class="st3" x1="649.96" y1="818.19" x2="649.96" y2="816.48"/>
  <line class="st3" x1="612.94" y1="816.48" x2="611.37" y2="816.48"/>
  <line class="st3" x1="609.51" y1="816.48" x2="608.24" y2="816.48"/>
  <line class="st3" x1="606.3" y1="816.48" x2="605.03" y2="816.48"/>
  <line class="st3" x1="603.16" y1="816.48" x2="601.89" y2="816.48"/>
  <line class="st3" x1="599.95" y1="816.48" x2="598.68" y2="816.48"/>
  <line class="st3" x1="631.45" y1="816.48" x2="629.88" y2="816.48"/>
  <line class="st3" x1="628.02" y1="816.48" x2="626.75" y2="816.48"/>
  <line class="st3" x1="624.81" y1="816.48" x2="623.54" y2="816.48"/>
  <line class="st3" x1="621.67" y1="816.48" x2="620.4" y2="816.48"/>
  <line class="st3" x1="618.46" y1="816.48" x2="617.19" y2="816.48"/>
  <path class="st10" d="M633.69,804.12c0-.97.79-1.75,1.75-1.75s1.75.79,1.75,1.75-.79,1.75-1.75,1.75-1.75-.79-1.75-1.75"/>
  <line class="st3" x1="597.42" y1="768.56" x2="568.83" y2="768.56"/>
  <path class="st3" d="M597.38,797.15c-15.77,0-28.55-12.78-28.55-28.55"/>
  <line class="st3" x1="597.42" y1="797.07" x2="597.42" y2="768.56"/>
  <line class="st3" x1="552.41" y1="711.39" x2="552.41" y2="739.98"/>
  <path class="st3" d="M580.92,711.43c0,15.77-12.78,28.55-28.55,28.55"/>
  <line class="st3" x1="581" y1="711.39" x2="552.41" y2="711.39"/>
  <polyline class="st10" points="600.4 758.34 621.52 758.34 621.52 716.02 600.4 716.02 600.4 758.34"/>
  <polyline class="st3" points="621.52 745.95 600.4 745.95 600.4 758.34 621.52 758.34 621.52 745.95"/>
  <line class="st3" x1="619.06" y1="751.92" x2="613.46" y2="751.92"/>
  <line class="st3" x1="608.54" y1="751.92" x2="602.86" y2="751.92"/>
  <line class="st3" x1="605.7" y1="749.16" x2="605.7" y2="754.75"/>
  <line class="st3" x1="616.22" y1="749.16" x2="616.22" y2="754.75"/>
  <polyline class="st3" points="603.91 719.53 618.02 719.53 618.02 733.63 603.91 733.63 603.91 719.53"/>
  <polyline class="st3" points="621.52 737.14 621.52 716.02 600.4 716.02 600.4 737.14 621.52 737.14"/>
  <line class="st3" x1="619.96" y1="726.54" x2="614.36" y2="726.54"/>
  <path class="st10" d="M619.43,812.15v-9.29c0-.21-.13-.37-.3-.37h-16.94c-.21,0-.37.17-.37.37v9.29"/>
  <path class="st3" d="M609.95,810.43c0-.35.28-.63.63-.63s.63.28.63.63-.28.63-.63.63-.63-.28-.63-.63"/>
  <path class="st3" d="M609.8,805.95c0-.43.35-.78.78-.78s.78.35.78.78-.35.78-.78.78-.78-.35-.78-.78"/>
  <path class="st3" d="M609.43,805.95c0-.64.52-1.16,1.16-1.16s1.16.52,1.16,1.16-.52,1.16-1.16,1.16-1.16-.52-1.16-1.16"/>
  <path class="st3" d="M602.56,802.86h16.12c.21,0,.37.17.37.37v5.45c0,.21-.17.37-.37.37h-16.12c-.21,0-.37-.17-.37-.37v-5.45c0-.21.17-.37.37-.37Z"/>
  <g>
    <polyline class="st3" points="621.33 783.72 621.33 783.69 621.36 783.69"/>
    <line class="st4" x1="621.78" y1="783.69" x2="649.3" y2="783.69"/>
    <polyline class="st3" points="649.52 783.69 649.54 783.69 649.54 783.72"/>
    <line class="st7" x1="649.54" y1="784.14" x2="649.54" y2="811.68"/>
    <polyline class="st3" points="649.54 811.9 649.54 811.92 649.52 811.92"/>
    <line class="st4" x1="649.09" y1="811.92" x2="621.57" y2="811.92"/>
    <polyline class="st3" points="621.36 811.92 621.33 811.92 621.33 811.9"/>
    <line class="st7" x1="621.33" y1="811.47" x2="621.33" y2="783.93"/>
  </g>
  <line class="st3" x1="635.48" y1="811.92" x2="635.48" y2="804.09"/>
  <line class="st12" x1="655.26" y1="740.65" x2="625.78" y2="714.9"/>
  <line class="st12" x1="625.78" y1="740.65" x2="655.26" y2="714.9"/>
  <line class="st3" x1="639.72" y1="975.37" x2="560.29" y2="975.37"/>
  <g>
    <path class="st3" d="M585.33,974.8s0,.02,0,.03"/>
    <path class="st8" d="M585.31,975.25c-.29,3.09-3.08,12.22-3.8,12.22l-19.33-12.97-.23-.16"/>
    <line class="st3" x1="561.77" y1="974.21" x2="561.75" y2="974.19"/>
  </g>
  <polygon class="st14" points="546.81 709.67 546.55 709.67 544.13 709.67 542.86 709.67 542.86 714.9 544.13 714.9 544.13 726.62 544.13 750.2 544.13 755.87 544.13 766.14 544.13 767.76 544.13 769.23 544.13 772.08 549.43 772.08 549.43 769.16 549.43 767.76 549.43 714.9 550.69 714.9 550.69 709.67 546.81 709.67"/>
  <polygon class="st14" points="558.42 956.49 558.42 951.41 550.05 951.41 550.05 788.17 550.05 787.82 550.05 785.56 544.65 785.56 544.65 787.89 544.65 788.17 544.65 951.41 534.54 951.41 534.54 975.3 560.29 975.37 560.29 956.49 558.42 956.49"/>
  <g>
    <polyline class="st10" points="539.5 770.96 555.4 770.81 555.32 786.63 539.42 786.86 539.5 770.96"/>
    <line class="st6" x1="539.5" y1="773.65" x2="542.26" y2="770.96"/>
    <line class="st6" x1="539.5" y1="778.42" x2="547.04" y2="770.89"/>
    <line class="st6" x1="539.5" y1="783.2" x2="551.81" y2="770.81"/>
    <line class="st6" x1="540.62" y1="786.86" x2="555.32" y2="772.08"/>
    <line class="st6" x1="545.4" y1="786.78" x2="555.32" y2="776.78"/>
    <line class="st6" x1="550.17" y1="786.71" x2="555.32" y2="781.56"/>
    <line class="st6" x1="543.45" y1="786.78" x2="539.5" y2="782.83"/>
    <line class="st6" x1="548.16" y1="786.71" x2="539.5" y2="778.05"/>
    <line class="st6" x1="552.86" y1="786.71" x2="539.5" y2="773.35"/>
    <line class="st6" x1="555.32" y1="784.4" x2="541.81" y2="770.96"/>
    <line class="st6" x1="555.32" y1="779.69" x2="546.51" y2="770.89"/>
    <line class="st6" x1="555.32" y1="774.92" x2="551.22" y2="770.81"/>
  </g>
  <g>
    <g>
      <path class="st10" d="M606.19,886.84c0-4.59,3.96-8.32,8.85-8.32,3.6,0,7.16,2.35,8.39,5.67.17.45.51,1.4.46,2.65-.16,3.91-4.05,8.32-8.85,8.32s-8.85-3.72-8.85-8.32Z"/>
      <path class="st3" d="M622.72,884.97c0-2.82-3.44-5.11-7.68-5.11"/>
      <path class="st3" d="M607.35,884.97c0-2.82,3.44-5.11,7.68-5.11"/>
      <path class="st3" d="M607.35,884.97c0,.56-.44,1.01-.99,1.01"/>
      <path class="st3" d="M622.72,884.97c0,.56.44,1.01.99,1.01"/>
      <g>
        <path class="st10" d="M627.98,886.84c0-4.59,3.96-8.32,8.85-8.32,3.6,0,7.16,2.35,8.39,5.67.17.45.51,1.4.46,2.65-.16,3.91-4.05,8.32-8.85,8.32-4.89,0-8.85-3.72-8.85-8.32Z"/>
        <path class="st3" d="M644.51,884.97c0-2.82-3.44-5.11-7.68-5.11"/>
        <path class="st3" d="M629.15,884.97c0-2.82,3.44-5.11,7.68-5.11"/>
        <path class="st3" d="M629.15,884.97c0,.56-.44,1.01-.99,1.01"/>
        <path class="st3" d="M644.51,884.97c0,.56.48,1.01,1.07,1.01"/>
      </g>
    </g>
    <g>
      <path class="st10" d="M606.19,914.24c0,4.59,3.96,8.32,8.85,8.32,3.6,0,7.16-2.35,8.39-5.67.17-.45.51-1.4.46-2.65-.16-3.91-4.05-8.32-8.85-8.32s-8.85,3.72-8.85,8.32Z"/>
      <path class="st3" d="M622.72,916.11c0,2.82-3.44,5.11-7.68,5.11"/>
      <path class="st3" d="M607.35,916.11c0,2.82,3.44,5.11,7.68,5.11"/>
      <path class="st3" d="M607.35,916.11c0-.56-.44-1.01-.99-1.01"/>
      <path class="st3" d="M622.72,916.11c0-.56.44-1.01.99-1.01"/>
      <g>
        <path class="st10" d="M627.98,914.24c0,4.59,3.96,8.32,8.85,8.32,3.6,0,7.16-2.35,8.39-5.67.17-.45.51-1.4.46-2.65-.16-3.91-4.05-8.32-8.85-8.32-4.89,0-8.85,3.72-8.85,8.32Z"/>
        <path class="st3" d="M644.51,916.11c0,2.82-3.44,5.11-7.68,5.11"/>
        <path class="st3" d="M629.15,916.11c0,2.82,3.44,5.11,7.68,5.11"/>
        <path class="st3" d="M629.15,916.11c0-.56-.44-1.01-.99-1.01"/>
        <path class="st3" d="M644.51,916.11c0-.56.48-1.01,1.07-1.01"/>
      </g>
    </g>
    <rect class="st10" x="614.43" y="877.69" width="23.01" height="45.1" transform="translate(-274.31 1526.17) rotate(-90)"/>
  </g>
  <g>
    <path class="st2" d="M572.52,948.7c1.25-7.65,1.37-15.49.38-23.19,0-.33-.2-.62-.47-.69-6.45-.02-12.9-.05-19.36-.07"/>
    <path class="st2" d="M572.52,948.7c-.02.13-.11.22-.22.23h-1.81s-17.16,0-17.16,0l-.26-24.21c6.45-.02,12.9-.05,19.36-.07.28-.07.47-.36.47-.69,1-7.7.87-15.54-.38-23.19-.02-.13-.11-.22-.22-.23h-1.81s-17.42,0-17.42,0v24.19"/>
    <path class="st2" d="M552.09,948.6c.6.07,1.2.08,1.8.01.12-.02.2-.13.2-.27.18-7.74.22-15.47.13-23.21-.02-.19-.17-.34-.33-.35-.66-.06-1.31-.05-1.97.03"/>
    <path class="st2" d="M552.09,900.88c.6-.07,1.2-.08,1.8-.01.12.02.2.13.2.27.18,7.74.22,15.47.13,23.21-.02.19-.17.34-.33.35-.66.06-1.31.05-1.97-.03"/>
    <path class="st2" d="M551.74,900.58h-.21c-.07,0-.13.07-.13.15,0,16.01,0,32.01,0,48.02,0,.08.06.15.13.15h.21s.15-.06.15-.06v-.36s-.15-47.88-.15-47.88Z"/>
    <path class="st2" d="M555.81,947.82c0,.47-1.12.85-2.49.85-.11,0-.22,0-.33-.01l-.9-.06c-.12-.02-.2-.13-.2-.27v-23.55h2c.65.01,1.31.02,1.96.04.28.07.47.36.47.69,1.05,7.41.88,14.98-.51,22.31Z"/>
    <path class="st2" d="M555.81,901.7c0-.47-1.12-.85-2.49-.85-.11,0-.22,0-.33.01l-.9.06c-.12.02-.2.13-.2.27v23.55h2c.65-.01,1.31-.02,1.96-.04.28-.07.47-.36.47-.69,1.05-7.41.88-14.98-.51-22.31Z"/>
    <path class="st2" d="M554.08,948.44c.27-.11.54-.2.82-.27.31-.14.63-.26.95-.37.44-.14.88-.29,1.32-.44.61-.21,1.22-.35,1.85-.44.38-.06.77-.1,1.16-.13.41-.03.82-.06,1.23-.08.98-.05,1.95-.05,2.93,0,.99.05,1.96.19,2.93.41.73.16,1.44.4,2.13.71.44.19.77.48,1.06.9.02.04.04.07.04.12v.42c-.04.12-.1.18-.2.23-6.23,0-12.46,0-18.69,0-.11,0-.2-.1-.2-.23v-.13h0c0-.13.09-.23.2-.24.26-.04.52-.07.77-.11.34-.02.68-.07,1.02-.16l.68-.21Z"/>
    <path class="st2" d="M554.08,901.04c.27.11.54.2.82.27.31.14.63.26.95.37.44.14.88.29,1.32.44.61.21,1.22.35,1.85.44.38.06.77.1,1.16.13.41.03.82.06,1.23.08.98.05,1.95.05,2.93,0,.99-.05,1.96-.19,2.93-.41.73-.16,1.44-.4,2.13-.71.44-.19.77-.48,1.06-.9.02-.04.04-.07.04-.12v-.42c-.04-.12-.1-.18-.2-.23-6.23,0-12.46,0-18.69,0-.11,0-.2.1-.2.23v.13h0c0,.13.09.23.2.24.26.04.52.07.77.11.34.02.68.07,1.02.16l.68.21Z"/>
  </g>
  <circle class="st9" cx="581.36" cy="956.74" r="7.95"/>
  <g>
    <polyline class="st11" points="649.92 945.27 648.58 945.27 648.58 929.56 649.92 929.56"/>
    <polyline class="st11" points="648.58 928.67 648.58 946.24 647.17 946.24 647.17 928.67 648.58 928.67"/>
  </g>
  <polygon class="st14" points="595.25 798.86 595.25 816.48 649.96 816.48 649.96 957.19 639.72 957.16 639.72 975.37 665.46 975.37 665.46 957.24 655.26 957.21 655.26 740.65 649.96 740.65 625.78 740.65 625.78 714.9 641.97 714.9 641.97 709.67 582.79 709.67 582.79 714.9 621.52 714.9 621.52 759.01 595.25 759.01 595.25 766.77 599.51 766.77 599.51 763.26 625.78 763.26 625.78 744.9 649.96 744.9 649.96 812.22 599.51 812.22 599.51 798.86 595.25 798.86"/>
</svg>