<?xml version="1.0" encoding="UTF-8"?>
<svg id="Lag_1" xmlns="http://www.w3.org/2000/svg" version="1.1" viewBox="0 0 1200 1697.14">
  <!-- Generator: Adobe Illustrator 29.6.0, SVG Export Plug-In . SVG Version: 2.1.1 Build 207)  -->
  <defs>
    <style>
      .st0 {
        stroke-dasharray: .06 .42;
      }

      .st0, .st1, .st2, .st3, .st4, .st5, .st6, .st7, .st8, .st9, .st10 {
        stroke-width: .18px;
      }

      .st0, .st1, .st2, .st3, .st4, .st6, .st7, .st8, .st9, .st10 {
        stroke-linejoin: round;
      }

      .st0, .st1, .st2, .st3, .st7, .st8, .st10 {
        stroke-linecap: round;
      }

      .st0, .st1, .st3, .st4, .st5, .st7, .st8, .st9, .st10 {
        stroke: #000;
      }

      .st0, .st1, .st3, .st4, .st7, .st10 {
        fill: none;
      }

      .st11 {
        fill: #000016;
      }

      .st1 {
        stroke-dasharray: .06 .43;
      }

      .st2, .st5, .st6, .st8, .st9 {
        fill: #fff;
      }

      .st2, .st6 {
        stroke: #060305;
      }

      .st12 {
        fill: #e8e3e0;
      }

      .st5 {
        stroke-miterlimit: 10;
      }

      .st13 {
        fill: #dbd7d5;
      }

      .st7 {
        stroke-dasharray: .06 .42;
      }

      .st10 {
        stroke-dasharray: .06 .43;
      }
    </style>
  </defs>
  <polygon class="st12" points="645.48 778.63 663.26 778.63 663.26 712.6 564.69 712.6 564.69 743.13 535.9 743.13 535.9 972.53 645.48 972.53 645.48 778.63"/>
  <rect class="st13" x="536.84" y="786.23" width="108.64" height="52.48"/>
  <line class="st3" x1="538.49" y1="816.86" x2="540.04" y2="816.86"/>
  <line class="st3" x1="541.89" y1="816.86" x2="543.15" y2="816.86"/>
  <line class="st3" x1="545.08" y1="816.86" x2="546.33" y2="816.86"/>
  <line class="st3" x1="548.18" y1="816.86" x2="549.44" y2="816.86"/>
  <line class="st3" x1="551.37" y1="816.86" x2="552.63" y2="816.86"/>
  <line class="st3" x1="538.49" y1="834.25" x2="538.49" y2="833"/>
  <line class="st3" x1="538.49" y1="831.14" x2="538.49" y2="829.89"/>
  <line class="st3" x1="538.49" y1="827.96" x2="538.49" y2="826.7"/>
  <line class="st3" x1="538.49" y1="824.85" x2="538.49" y2="823.59"/>
  <line class="st3" x1="538.49" y1="821.67" x2="538.49" y2="820.41"/>
  <line class="st3" x1="538.49" y1="818.56" x2="538.49" y2="816.86"/>
  <line class="st3" x1="575.2" y1="816.86" x2="576.76" y2="816.86"/>
  <line class="st3" x1="578.61" y1="816.86" x2="579.87" y2="816.86"/>
  <line class="st3" x1="581.79" y1="816.86" x2="583.05" y2="816.86"/>
  <line class="st3" x1="584.9" y1="816.86" x2="586.16" y2="816.86"/>
  <line class="st3" x1="588.08" y1="816.86" x2="589.34" y2="816.86"/>
  <line class="st3" x1="556.84" y1="816.86" x2="558.4" y2="816.86"/>
  <line class="st3" x1="560.25" y1="816.86" x2="561.51" y2="816.86"/>
  <line class="st3" x1="563.43" y1="816.86" x2="564.69" y2="816.86"/>
  <line class="st3" x1="566.54" y1="816.86" x2="567.8" y2="816.86"/>
  <line class="st3" x1="569.72" y1="816.86" x2="570.98" y2="816.86"/>
  <line class="st3" x1="590.6" y1="769.26" x2="618.95" y2="769.26"/>
  <path class="st3" d="M590.56,797.54c15.64,0,28.31-12.68,28.31-28.31"/>
  <line class="st3" x1="590.6" y1="797.61" x2="590.6" y2="769.26"/>
  <line class="st3" x1="635.23" y1="712.63" x2="635.23" y2="740.99"/>
  <path class="st3" d="M606.88,712.6c0,15.64,12.68,28.31,28.31,28.31"/>
  <line class="st3" x1="606.88" y1="712.63" x2="635.23" y2="712.63"/>
  <polyline class="st8" points="587.64 759.12 566.69 759.12 566.69 717.22 587.64 717.22 587.64 759.12"/>
  <polyline class="st3" points="566.69 746.91 587.64 746.91 587.64 759.12 566.69 759.12 566.69 746.91"/>
  <line class="st3" x1="569.13" y1="752.83" x2="574.68" y2="752.83"/>
  <line class="st3" x1="579.64" y1="752.83" x2="585.2" y2="752.83"/>
  <line class="st3" x1="582.38" y1="750.09" x2="582.38" y2="755.64"/>
  <line class="st3" x1="571.95" y1="750.09" x2="571.95" y2="755.64"/>
  <polyline class="st3" points="584.16 720.7 570.17 720.7 570.17 734.69 584.16 734.69 584.16 720.7"/>
  <polyline class="st3" points="566.69 738.17 566.69 717.22 587.64 717.22 587.64 738.17 566.69 738.17"/>
  <line class="st3" x1="568.24" y1="727.66" x2="573.8" y2="727.66"/>
  <line class="st3" x1="537.97" y1="785.1" x2="533.82" y2="785.1"/>
  <line class="st3" x1="536.46" y1="785.1" x2="538.54" y2="785.1"/>
  <polyline class="st9" points="626.26 974.3 626.26 969.05 628.04 969.05 628.04 974.3 626.26 974.3"/>
  <polyline class="st9" points="575.71 974.3 626.26 974.3 626.26 972.53 575.71 972.6 575.71 974.3"/>
  <polyline class="st9" points="550.39 974.38 574.01 974.3 574.01 971.71 550.39 971.71 550.39 974.38"/>
  <polyline class="st9" points="548.69 974.38 548.62 969.12 550.39 969.12 550.39 974.38 548.69 974.38"/>
  <polyline class="st9" points="574.01 974.3 574.01 969.05 575.71 969.05 575.71 974.3 574.01 974.3"/>
  <g>
    <path class="st3" d="M573.89,974.91s0,.02,0,.03"/>
    <path class="st10" d="M573.87,975.36c-.29,3.07-3.05,12.11-3.76,12.11l-19.17-12.87-.23-.16"/>
    <line class="st3" x1="550.53" y1="974.32" x2="550.5" y2="974.3"/>
  </g>
  <line class="st4" x1="548.63" y1="975.49" x2="628.05" y2="975.56"/>
  <line class="st4" x1="533.31" y1="741.65" x2="562.24" y2="716.05"/>
  <line class="st4" x1="562.24" y1="741.59" x2="533.07" y2="716.05"/>
  <polygon class="st11" points="672.69 709.67 651.3 710.86 651.3 710.93 640.88 710.86 636.94 710.86 636.94 716.11 638.23 716.11 651.59 716.11 654.78 773.33 636.86 771.7 636.72 783.25 642.86 783.84 633.61 950.39 628.94 951.06 628.57 956.69 628.05 956.69 628.05 975.56 645.82 975.56 657.44 783.25 676.84 783.4 672.69 709.67"/>
  <path class="st9" d="M554.62,804.48c0,.96-.78,1.74-1.74,1.74s-1.74-.78-1.74-1.74.78-1.74,1.74-1.74,1.74.78,1.74,1.74"/>
  <path class="st5" d="M556.72,756.52v10.17c0,3.91-2.81,7.08-6.29,7.08s-6.29-3.17-6.29-7.08v-10.17s12.57,0,12.57,0Z"/>
  <polygon class="st9" points="538.44 756.52 562.53 756.52 562.59 745.74 538.44 745.71 538.44 756.52"/>
  <rect class="st9" x="538.5" y="816.71" width="17.47" height="21.02" transform="translate(1094.46 1654.44) rotate(180)"/>
  <rect class="st9" x="556.85" y="816.71" width="17.54" height="21.02" transform="translate(1131.25 1654.44) rotate(180)"/>
  <rect class="st9" x="575.21" y="816.71" width="17.56" height="21.02" transform="translate(1167.98 1654.44) rotate(180)"/>
  <path class="st9" d="M568.8,812.46v-9.22c0-.2.13-.37.3-.37h16.8c.2,0,.37.17.37.37v9.22"/>
  <path class="st4" d="M578.2,810.75c0-.35-.28-.63-.63-.63s-.63.28-.63.63.28.63.63.63.63-.28.63-.63"/>
  <path class="st4" d="M578.35,806.31c0-.43-.35-.78-.78-.78s-.78.35-.78.78c0,.43.35.78.78.78s.78-.35.78-.78"/>
  <path class="st4" d="M578.72,806.31c0-.63-.51-1.15-1.15-1.15s-1.15.51-1.15,1.15c0,.63.51,1.15,1.15,1.15s1.15-.51,1.15-1.15"/>
  <path class="st4" d="M569.54,803.24h15.99c.2,0,.37.17.37.37v5.41c0,.2-.17.37-.37.37h-15.99c-.2,0-.37-.17-.37-.37v-5.4c0-.2.17-.37.37-.37Z"/>
  <g>
    <polyline class="st3" points="566.91 784.26 566.91 784.23 566.88 784.23"/>
    <line class="st1" x1="566.46" y1="784.23" x2="539.17" y2="784.23"/>
    <polyline class="st3" points="538.96 784.23 538.93 784.23 538.93 784.26"/>
    <line class="st1" x1="538.93" y1="784.69" x2="538.93" y2="811.97"/>
    <polyline class="st3" points="538.93 812.19 538.93 812.21 538.96 812.21"/>
    <line class="st1" x1="539.38" y1="812.21" x2="566.67" y2="812.21"/>
    <polyline class="st3" points="566.88 812.21 566.91 812.21 566.91 812.19"/>
    <line class="st1" x1="566.91" y1="811.76" x2="566.91" y2="784.48"/>
  </g>
  <line class="st4" x1="552.92" y1="812.21" x2="552.92" y2="804.44"/>
  <g>
    <path class="st2" d="M561.01,889.1c1.23,7.56,1.36,15.31.37,22.93,0,.33-.19.61-.47.68-6.38.02-12.75.05-19.13.07"/>
    <path class="st2" d="M561.01,889.1c-.02-.13-.11-.22-.22-.23h-18.75l-.26,23.93c6.38.02,12.75.05,19.13.07.27.07.47.36.47.68.99,7.61.86,15.36-.37,22.93-.02.13-.11.22-.22.23h-19.01v-23.91"/>
    <path class="st2" d="M540.82,889.2c.6-.07,1.18-.08,1.78-.01.11.02.2.13.2.27.18,7.65.22,15.29.13,22.94-.02.19-.16.34-.33.34-.65.06-1.3.04-1.95-.03"/>
    <path class="st2" d="M540.82,936.37c.6.07,1.18.08,1.78.01.11-.02.2-.13.2-.27.18-7.65.22-15.29.13-22.94-.02-.19-.16-.34-.33-.34-.65-.06-1.3-.04-1.95.03"/>
    <path class="st2" d="M540.47,936.66h-.21c-.07,0-.12-.06-.12-.14v-47.46c0-.08.06-.14.12-.14h.21l.14.06v.36s-.14,47.33-.14,47.33Z"/>
    <path class="st2" d="M544.5,889.97c0-.47-1.1-.84-2.47-.84-.11,0-.22,0-.33.01l-.89.06c-.11.02-.2.13-.2.27v23.27h1.98c.65-.01,1.29-.02,1.94-.04.27-.07.47-.36.47-.68,1.04-7.32.87-14.8-.5-22.05Z"/>
    <path class="st2" d="M544.5,935.56c0,.47-1.1.84-2.47.84-.11,0-.22,0-.33-.01l-.89-.06c-.11-.02-.2-.13-.2-.27v-23.27h1.98c.65.01,1.29.02,1.94.04.27.07.47.36.47.68,1.04,7.32.87,14.8-.5,22.05Z"/>
    <path class="st2" d="M542.78,889.36c.27.11.53.19.81.26.31.14.62.26.94.36.44.14.87.29,1.3.43.6.2,1.2.35,1.82.44.38.05.76.1,1.14.12.41.03.81.06,1.22.08.97.05,1.93.05,2.9,0,.98-.05,1.94-.19,2.9-.4.72-.16,1.42-.39,2.11-.7.43-.19.76-.47,1.05-.89.02-.04.03-.07.03-.12v-.42c-.04-.11-.1-.18-.2-.23h-18.47c-.11,0-.2.1-.2.23v.13h0c0,.13.09.23.2.24.26.04.51.07.77.11.34.02.67.07,1.01.15l.67.21Z"/>
    <path class="st2" d="M542.78,936.21c.27-.11.53-.19.81-.26.31-.14.62-.26.94-.36.44-.14.87-.29,1.3-.43.6-.2,1.2-.35,1.82-.44.38-.05.76-.1,1.14-.12.41-.03.81-.06,1.22-.08.97-.05,1.93-.05,2.9,0,.98.05,1.94.19,2.9.4.72.16,1.42.39,2.11.7.43.19.76.47,1.05.89.02.04.03.07.03.12v.42c-.04.11-.1.18-.2.23h-18.47c-.11,0-.2-.1-.2-.23v-.13h0c0-.13.09-.23.2-.24.26-.04.51-.07.77-.11.34-.02.67-.07,1.01-.15l.67-.21Z"/>
  </g>
  <circle class="st6" cx="550.5" cy="947.6" r="6.56"/>
  <g>
    <polyline class="st9" points="538.42 943.31 539.76 943.31 539.76 951.89 538.42 951.89"/>
    <polyline class="st9" points="539.76 952.86 539.76 942.34 541.17 942.34 541.17 952.86 539.76 952.86"/>
  </g>
  <g>
    <g>
      <path class="st8" d="M630.58,883.97c0-4.54-3.92-8.22-8.75-8.22-3.56,0-7.08,2.33-8.29,5.6-.17.45-.5,1.39-.45,2.62.15,3.86,4,8.22,8.75,8.22s8.75-3.68,8.75-8.22Z"/>
      <path class="st3" d="M614.24,882.12c0-2.79,3.4-5.05,7.59-5.05"/>
      <path class="st3" d="M629.43,882.12c0-2.79-3.4-5.05-7.59-5.05"/>
      <path class="st3" d="M629.43,882.12c0,.55.44,1,.98,1"/>
      <path class="st3" d="M614.24,882.12c0,.55-.44,1-.98,1"/>
      <g>
        <path class="st8" d="M609.04,883.97c0-4.54-3.92-8.22-8.75-8.22-3.56,0-7.08,2.33-8.29,5.6-.17.45-.5,1.39-.45,2.62.15,3.86,4,8.22,8.75,8.22s8.75-3.68,8.75-8.22Z"/>
        <path class="st3" d="M592.7,882.12c0-2.79,3.4-5.05,7.59-5.05"/>
        <path class="st3" d="M607.89,882.12c0-2.79-3.4-5.05-7.59-5.05"/>
        <path class="st3" d="M607.89,882.12c0,.55.44,1,.98,1"/>
        <path class="st3" d="M592.7,882.12c0,.55-.47,1-1.06,1"/>
      </g>
    </g>
    <g>
      <path class="st8" d="M630.58,911.06c0,4.54-3.92,8.22-8.75,8.22-3.56,0-7.08-2.33-8.29-5.6-.17-.45-.5-1.39-.45-2.62.15-3.86,4-8.22,8.75-8.22s8.75,3.68,8.75,8.22Z"/>
      <path class="st3" d="M614.24,912.9c0,2.79,3.4,5.05,7.59,5.05"/>
      <path class="st3" d="M629.43,912.9c0,2.79-3.4,5.05-7.59,5.05"/>
      <path class="st3" d="M629.43,912.9c0-.55.44-1,.98-1"/>
      <path class="st3" d="M614.24,912.9c0-.55-.44-1-.98-1"/>
      <g>
        <path class="st8" d="M609.04,911.06c0,4.54-3.92,8.22-8.75,8.22-3.56,0-7.08-2.33-8.29-5.6-.17-.45-.5-1.39-.45-2.62.15-3.86,4-8.22,8.75-8.22s8.75,3.68,8.75,8.22Z"/>
        <path class="st3" d="M592.7,912.9c0,2.79,3.4,5.05,7.59,5.05"/>
        <path class="st3" d="M607.89,912.9c0,2.79-3.4,5.05-7.59,5.05"/>
        <path class="st3" d="M607.89,912.9c0-.55.44-1,.98-1"/>
        <path class="st3" d="M592.7,912.9c0-.55-.47-1-1.06-1"/>
      </g>
    </g>
    <rect class="st8" x="599.69" y="874.92" width="22.74" height="44.58" transform="translate(-286.15 1508.28) rotate(-90)"/>
  </g>
  <polygon class="st11" points="605.11 716.11 605.11 710.86 546.41 710.86 546.41 716.11 562.47 716.11 562.47 741.65 538.49 741.65 533.31 741.65 533.31 745.87 533.31 812.64 533.31 816.86 533.31 823.59 533.31 956.69 523.16 956.69 523.16 975.49 548.63 975.49 548.63 956.69 538.49 956.69 538.49 816.86 592.75 816.86 592.75 799.39 588.53 799.39 588.53 812.64 538.49 812.64 538.49 745.87 562.47 745.87 562.47 764.08 588.53 764.08 588.53 767.56 592.75 767.56 592.75 759.86 566.69 759.86 566.69 716.11 605.11 716.11"/>
  <g>
    <polyline class="st3" points="645.48 786.29 645.48 786.27 645.45 786.27"/>
    <line class="st0" x1="645.03" y1="786.27" x2="534.57" y2="786.27"/>
    <polyline class="st3" points="534.35 786.27 534.33 786.27 534.33 786.29"/>
    <line class="st7" x1="534.33" y1="786.72" x2="534.33" y2="838.47"/>
    <polyline class="st3" points="534.33 838.69 534.33 838.71 534.35 838.71"/>
    <line class="st0" x1="534.78" y1="838.71" x2="645.24" y2="838.71"/>
    <polyline class="st3" points="645.45 838.71 645.48 838.71 645.48 838.69"/>
    <line class="st7" x1="645.48" y1="838.26" x2="645.48" y2="786.51"/>
  </g>
</svg>