<?xml version="1.0" encoding="UTF-8"?>
<svg id="Lag_1" xmlns="http://www.w3.org/2000/svg" version="1.1" viewBox="0 0 1200 1697.14">
  <!-- Generator: Adobe Illustrator 29.6.0, SVG Export Plug-In . SVG Version: 2.1.1 Build 207)  -->
  <defs>
    <style>
      .st0 {
        stroke-dasharray: .06 .42;
      }

      .st0, .st1, .st2, .st3, .st4, .st5, .st6, .st7, .st8, .st9, .st10, .st11 {
        stroke-width: .18px;
      }

      .st0, .st1, .st2, .st3, .st4, .st5, .st7, .st8, .st9, .st10, .st11 {
        stroke-linejoin: round;
      }

      .st0, .st1, .st2, .st3, .st4, .st7, .st8, .st10 {
        stroke-linecap: round;
      }

      .st0, .st1, .st3, .st4, .st5, .st6, .st8, .st10, .st11 {
        stroke: #000;
      }

      .st0, .st1, .st3, .st4, .st5, .st7, .st8 {
        fill: none;
      }

      .st12 {
        fill: #000016;
      }

      .st1 {
        stroke-dasharray: .06 .43;
      }

      .st2, .st6, .st9, .st10, .st11 {
        fill: #fff;
      }

      .st2, .st9 {
        stroke: #060305;
      }

      .st13 {
        fill: #e8e3e0;
      }

      .st4 {
        stroke-dasharray: .06 .43;
      }

      .st6 {
        stroke-miterlimit: 10;
      }

      .st7 {
        stroke: #767676;
      }

      .st14 {
        fill: #dbd7d5;
      }

      .st8 {
        stroke-dasharray: .06 .42;
      }
    </style>
  </defs>
  <polygon class="st13" points="546.97 972.43 546.97 741.34 576.89 741.34 576.89 711.42 652.61 711.42 652.61 972.43 546.97 972.43"/>
  <rect class="st14" x="547.92" y="785.59" width="105.21" height="52.82"/>
  <polyline class="st11" points="636.82 974.22 636.82 968.93 638.61 968.93 638.61 974.22 636.82 974.22"/>
  <polyline class="st11" points="585.93 974.22 636.82 974.22 636.82 972.43 585.93 972.5 585.93 974.22"/>
  <polyline class="st11" points="560.46 974.29 584.22 974.22 584.22 971.61 560.46 971.61 560.46 974.29"/>
  <polyline class="st11" points="558.74 974.29 558.67 969 560.46 969 560.46 974.29 558.74 974.29"/>
  <polyline class="st11" points="584.22 974.22 584.22 968.93 585.93 968.93 585.93 974.22 584.22 974.22"/>
  <line class="st5" x1="638.61" y1="975.26" x2="558.74" y2="975.33"/>
  <path class="st11" d="M565.82,803.95c0,.97-.78,1.75-1.75,1.75s-1.75-.78-1.75-1.75.78-1.75,1.75-1.75,1.75.78,1.75,1.75"/>
  <line class="st5" x1="602.1" y1="768.45" x2="630.63" y2="768.45"/>
  <path class="st5" d="M630.56,768.49c0,15.74-12.76,28.5-28.5,28.5"/>
  <line class="st5" x1="602.1" y1="796.91" x2="602.1" y2="768.45"/>
  <line class="st5" x1="647.02" y1="711.39" x2="647.02" y2="739.92"/>
  <path class="st5" d="M646.99,739.92c-15.74,0-28.5-12.76-28.5-28.5"/>
  <line class="st5" x1="618.49" y1="711.39" x2="647.02" y2="711.39"/>
  <polyline class="st11" points="599.12 758.25 578.04 758.25 578.04 716.01 599.12 716.01 599.12 758.25"/>
  <polyline class="st5" points="578.04 745.88 599.12 745.88 599.12 758.25 578.04 758.25 578.04 745.88"/>
  <line class="st5" x1="580.5" y1="751.84" x2="586.08" y2="751.84"/>
  <line class="st5" x1="591.08" y1="751.84" x2="596.66" y2="751.84"/>
  <line class="st5" x1="593.83" y1="749.08" x2="593.83" y2="754.67"/>
  <line class="st5" x1="583.33" y1="749.08" x2="583.33" y2="754.67"/>
  <polyline class="st5" points="595.62 719.51 581.54 719.51 581.54 733.59 595.62 733.59 595.62 719.51"/>
  <polyline class="st5" points="578.04 737.09 578.04 716.01 599.12 716.01 599.12 737.09 578.04 737.09"/>
  <line class="st5" x1="579.6" y1="726.51" x2="585.26" y2="726.51"/>
  <path class="st6" d="M567.93,755.68v10.23c0,3.94-2.83,7.13-6.33,7.13s-6.33-3.19-6.33-7.13v-10.23s12.65,0,12.65,0Z"/>
  <polygon class="st11" points="549.53 755.68 573.77 755.68 573.84 744.84 549.53 744.81 549.53 755.68"/>
  <rect class="st11" x="549.59" y="816.26" width="17.58" height="21.16" transform="translate(1116.76 1653.68) rotate(180)"/>
  <rect class="st11" x="568.07" y="816.26" width="17.66" height="21.16" transform="translate(1153.79 1653.68) rotate(180)"/>
  <rect class="st11" x="586.54" y="816.26" width="17.67" height="21.16" transform="translate(1190.75 1653.68) rotate(180)"/>
  <path class="st11" d="M580.09,811.98v-9.28c0-.21.13-.37.3-.37h16.91c.21,0,.37.17.37.37v9.28"/>
  <path class="st5" d="M589.55,810.26c0-.35-.28-.63-.63-.63s-.63.28-.63.63c0,.35.28.63.63.63s.63-.28.63-.63"/>
  <path class="st5" d="M589.7,805.79c0-.43-.35-.78-.78-.78s-.78.35-.78.78c0,.43.35.78.78.78s.78-.35.78-.78"/>
  <path class="st5" d="M590.07,805.79c0-.64-.52-1.15-1.15-1.15s-1.15.52-1.15,1.15c0,.64.52,1.15,1.15,1.15s1.15-.52,1.15-1.15"/>
  <path class="st5" d="M580.83,802.7h16.1c.21,0,.37.17.37.37v5.44c0,.2-.17.37-.37.37h-16.1c-.21,0-.37-.17-.37-.37v-5.44c0-.2.17-.37.37-.37Z"/>
  <g>
    <polyline class="st3" points="578.19 783.6 578.19 783.58 578.16 783.58"/>
    <line class="st1" x1="577.73" y1="783.58" x2="550.27" y2="783.58"/>
    <polyline class="st3" points="550.06 783.58 550.03 783.58 550.03 783.6"/>
    <line class="st1" x1="550.03" y1="784.03" x2="550.03" y2="811.49"/>
    <polyline class="st3" points="550.03 811.71 550.03 811.74 550.06 811.74"/>
    <line class="st1" x1="550.48" y1="811.74" x2="577.94" y2="811.74"/>
    <polyline class="st3" points="578.16 811.74 578.19 811.74 578.19 811.71"/>
    <line class="st1" x1="578.19" y1="811.28" x2="578.19" y2="783.82"/>
  </g>
  <line class="st5" x1="564.11" y1="811.74" x2="564.11" y2="803.91"/>
  <g>
    <path class="st3" d="M584.11,974.83s0,.02,0,.03"/>
    <path class="st8" d="M584.09,975.27c-.28,3.09-3.07,12.2-3.79,12.2l-19.29-12.95-.23-.16"/>
    <line class="st3" x1="560.59" y1="974.23" x2="560.57" y2="974.22"/>
  </g>
  <line class="st5" x1="573.79" y1="740.59" x2="544.44" y2="714.89"/>
  <line class="st5" x1="544.44" y1="740.59" x2="573.79" y2="714.89"/>
  <polygon class="st12" points="663.04 956.56 662.52 950.97 655.29 950.97 655.29 785.43 655.29 784.54 655.29 772.92 655.29 772.92 655.29 714.89 656.48 714.89 656.48 709.67 652.61 709.67 648.74 709.67 648.74 714.89 650 714.89 650 771.97 650 773 650 784.62 650 784.62 650 950.97 640.47 950.97 640.47 956.93 638.61 956.93 638.61 975.33 664.31 975.33 664.31 956.56 663.04 956.56"/>
  <g>
    <polyline class="st10" points="648.14 774.24 657.3 774.24 657.3 783.4 648.14 783.32 648.14 774.24"/>
    <line class="st7" x1="648.14" y1="778.33" x2="652.24" y2="774.24"/>
    <line class="st7" x1="648.14" y1="783.03" x2="656.93" y2="774.24"/>
    <line class="st7" x1="652.54" y1="783.4" x2="657.3" y2="778.63"/>
    <line class="st7" x1="652.46" y1="783.4" x2="648.14" y2="779.08"/>
    <line class="st7" x1="657.23" y1="783.4" x2="648.14" y2="774.31"/>
    <line class="st7" x1="657.3" y1="778.71" x2="652.83" y2="774.24"/>
  </g>
  <g>
    <path class="st2" d="M627.25,948.2c-1.23-7.56-1.36-15.31-.37-22.93,0-.33.19-.61.47-.68,6.38-.02,12.75-.05,19.13-.07"/>
    <path class="st2" d="M627.25,948.2c.02.13.11.22.22.23h18.75l.26-23.93c-6.38-.02-12.75-.05-19.13-.07-.27-.07-.47-.36-.47-.68-.99-7.61-.86-15.36.37-22.93.02-.13.11-.22.22-.23h19.01v23.91"/>
    <path class="st2" d="M647.45,948.1c-.6.07-1.18.08-1.78.01-.11-.02-.2-.13-.2-.27-.18-7.65-.22-15.29-.13-22.94.02-.19.16-.34.33-.34.65-.06,1.3-.04,1.95.03"/>
    <path class="st2" d="M647.45,900.93c-.6-.07-1.18-.08-1.78-.01-.11.02-.2.13-.2.27-.18,7.65-.22,15.29-.13,22.94.02.19.16.34.33.34.65.06,1.3.04,1.95-.03"/>
    <path class="st2" d="M647.79,900.64h.21c.07,0,.12.06.12.14v47.46c0,.08-.06.14-.12.14h-.21l-.14-.06v-.36s.14-47.33.14-47.33Z"/>
    <path class="st2" d="M643.77,947.32c0,.47,1.1.84,2.47.84.11,0,.22,0,.33-.01l.89-.06c.11-.02.2-.13.2-.27v-23.27h-1.98c-.65.01-1.29.02-1.94.04-.27.07-.47.36-.47.68-1.04,7.32-.87,14.8.5,22.05Z"/>
    <path class="st2" d="M643.77,901.74c0-.47,1.1-.84,2.47-.84.11,0,.22,0,.33.01l.89.06c.11.02.2.13.2.27v23.27h-1.98c-.65-.01-1.29-.02-1.94-.04-.27-.07-.47-.36-.47-.68-1.04-7.32-.87-14.8.5-22.05Z"/>
    <path class="st2" d="M645.49,947.94c-.27-.11-.53-.19-.81-.26-.31-.14-.62-.26-.94-.36-.44-.14-.87-.29-1.3-.43-.6-.2-1.2-.35-1.82-.44-.38-.05-.76-.1-1.14-.12-.41-.03-.81-.06-1.22-.08-.97-.05-1.93-.05-2.9,0-.98.05-1.94.19-2.9.4-.72.16-1.42.39-2.11.7-.43.19-.76.47-1.05.89-.02.04-.03.07-.03.12v.42c.04.11.1.18.2.23h18.47c.11,0,.2-.1.2-.23v-.13h0c0-.13-.09-.23-.2-.24-.26-.04-.51-.07-.77-.11-.34-.02-.67-.07-1.01-.15l-.67-.21Z"/>
    <path class="st2" d="M645.49,901.08c-.27.11-.53.19-.81.26-.31.14-.62.26-.94.36-.44.14-.87.29-1.3.43-.6.2-1.2.35-1.82.44-.38.05-.76.1-1.14.12-.41.03-.81.06-1.22.08-.97.05-1.93.05-2.9,0-.98-.05-1.94-.19-2.9-.4-.72-.16-1.42-.39-2.11-.7-.43-.19-.76-.47-1.05-.89-.02-.04-.03-.07-.03-.12v-.42c.04-.11.1-.18.2-.23h18.47c.11,0,.2.1.2.23v.13h0c0,.13-.09.23-.2.24-.26.04-.51.07-.77.11-.34.02-.67.07-1.01.15l-.67.21Z"/>
  </g>
  <circle class="st9" cx="614.69" cy="950.2" r="9.6"/>
  <g>
    <polyline class="st11" points="549.62 944.71 550.96 944.71 550.96 953.3 549.62 953.3"/>
    <polyline class="st11" points="550.96 954.27 550.96 943.74 552.37 943.74 552.37 954.27 550.96 954.27"/>
  </g>
  <g>
    <g>
      <path class="st10" d="M592.58,872.77c0-4.54-3.92-8.22-8.75-8.22-3.56,0-7.08,2.33-8.29,5.6-.17.45-.5,1.39-.45,2.62.15,3.86,4,8.22,8.75,8.22s8.75-3.68,8.75-8.22Z"/>
      <path class="st3" d="M576.24,870.92c0-2.79,3.4-5.05,7.59-5.05"/>
      <path class="st3" d="M591.43,870.92c0-2.79-3.4-5.05-7.59-5.05"/>
      <path class="st3" d="M591.43,870.92c0,.55.44,1,.98,1"/>
      <path class="st3" d="M576.24,870.92c0,.55-.44,1-.98,1"/>
      <g>
        <path class="st10" d="M571.04,872.77c0-4.54-3.92-8.22-8.75-8.22-3.56,0-7.08,2.33-8.29,5.6-.17.45-.5,1.39-.45,2.62.15,3.86,4,8.22,8.75,8.22s8.75-3.68,8.75-8.22Z"/>
        <path class="st3" d="M554.7,870.92c0-2.79,3.4-5.05,7.59-5.05"/>
        <path class="st3" d="M569.88,870.92c0-2.79-3.4-5.05-7.59-5.05"/>
        <path class="st3" d="M569.88,870.92c0,.55.44,1,.98,1"/>
        <path class="st3" d="M554.7,870.92c0,.55-.47,1-1.06,1"/>
      </g>
    </g>
    <g>
      <path class="st10" d="M592.58,899.86c0,4.54-3.92,8.22-8.75,8.22-3.56,0-7.08-2.33-8.29-5.6-.17-.45-.5-1.39-.45-2.62.15-3.86,4-8.22,8.75-8.22s8.75,3.68,8.75,8.22Z"/>
      <path class="st3" d="M576.24,901.7c0,2.79,3.4,5.05,7.59,5.05"/>
      <path class="st3" d="M591.43,901.7c0,2.79-3.4,5.05-7.59,5.05"/>
      <path class="st3" d="M591.43,901.7c0-.55.44-1,.98-1"/>
      <path class="st3" d="M576.24,901.7c0-.55-.44-1-.98-1"/>
      <g>
        <path class="st10" d="M571.04,899.86c0,4.54-3.92,8.22-8.75,8.22-3.56,0-7.08-2.33-8.29-5.6-.17-.45-.5-1.39-.45-2.62.15-3.86,4-8.22,8.75-8.22s8.75,3.68,8.75,8.22Z"/>
        <path class="st3" d="M554.7,901.7c0,2.79,3.4,5.05,7.59,5.05"/>
        <path class="st3" d="M569.88,901.7c0,2.79-3.4,5.05-7.59,5.05"/>
        <path class="st3" d="M569.88,901.7c0-.55.44-1,.98-1"/>
        <path class="st3" d="M554.7,901.7c0-.55-.47-1-1.06-1"/>
      </g>
    </g>
    <rect class="st10" x="561.69" y="863.72" width="22.74" height="44.58" transform="translate(-312.95 1459.08) rotate(-90)"/>
  </g>
  <polygon class="st12" points="616.78 714.89 616.78 709.67 557.63 709.67 557.63 714.89 573.79 714.89 573.79 740.59 549.73 740.59 544.44 740.59 544.44 956.83 535.69 956.85 535.69 975.26 558.67 975.26 558.67 956.78 549.73 956.81 549.73 816.28 604.26 816.28 604.26 798.7 600.02 798.7 600.02 812.03 549.73 812.03 549.73 744.84 573.79 744.84 573.79 763.16 600.02 763.16 600.02 766.67 604.26 766.67 604.26 758.92 578.04 758.92 578.04 714.89 616.78 714.89"/>
  <g>
    <polyline class="st3" points="651.47 785.62 651.47 785.59 651.44 785.59"/>
    <line class="st4" x1="651.01" y1="785.59" x2="544.68" y2="785.59"/>
    <polyline class="st3" points="544.47 785.59 544.44 785.59 544.44 785.62"/>
    <line class="st0" x1="544.44" y1="786.04" x2="544.44" y2="838.17"/>
    <polyline class="st3" points="544.44 838.38 544.44 838.41 544.47 838.41"/>
    <line class="st4" x1="544.89" y1="838.41" x2="651.23" y2="838.41"/>
    <polyline class="st3" points="651.44 838.41 651.47 838.41 651.47 838.38"/>
    <line class="st0" x1="651.47" y1="837.95" x2="651.47" y2="785.83"/>
  </g>
</svg>