<?xml version="1.0" encoding="UTF-8"?>
<svg id="Lag_1" xmlns="http://www.w3.org/2000/svg" version="1.1" viewBox="0 0 1200 1697.14">
  <!-- Generator: Adobe Illustrator 29.6.0, SVG Export Plug-In . SVG Version: 2.1.1 Build 207)  -->
  <defs>
    <style>
      .st0 {
        stroke-dasharray: .06 .43;
      }

      .st0, .st1, .st2, .st3, .st4, .st5, .st6, .st7, .st8, .st9, .st10, .st11 {
        stroke-width: .18px;
      }

      .st0, .st1, .st2, .st3, .st4, .st5, .st7, .st8, .st9, .st10, .st11 {
        stroke-linejoin: round;
      }

      .st0, .st1, .st2, .st3, .st5, .st7, .st8, .st10 {
        stroke-linecap: round;
      }

      .st0, .st2, .st3, .st4, .st5, .st6, .st8, .st10, .st11 {
        stroke: #000;
      }

      .st0, .st2, .st3, .st4, .st5, .st7, .st8 {
        fill: none;
      }

      .st12 {
        fill: #000016;
      }

      .st1, .st6, .st9, .st10, .st11 {
        fill: #fff;
      }

      .st1, .st9 {
        stroke: #060305;
      }

      .st13 {
        fill: #e8e3e0;
      }

      .st3 {
        stroke-dasharray: .06 .42;
      }

      .st5 {
        stroke-dasharray: .06 .42;
      }

      .st6 {
        stroke-miterlimit: 10;
      }

      .st7 {
        stroke: #767676;
      }

      .st8 {
        stroke-dasharray: .06 .42;
      }

      .st14 {
        fill: #dbd7d5;
      }
    </style>
  </defs>
  <polygon class="st13" points="624.38 744.44 651.69 744.44 651.69 972.36 546.08 972.36 546.08 711.42 624.38 711.42 624.38 744.44"/>
  <rect class="st14" x="545.56" y="785.57" width="105.18" height="52.81" transform="translate(1196.29 1623.94) rotate(180)"/>
  <path class="st11" d="M632.85,803.93c0,.97.78,1.75,1.75,1.75s1.75-.78,1.75-1.75c0-.97-.78-1.75-1.75-1.75s-1.75.78-1.75,1.75"/>
  <line class="st4" x1="596.57" y1="768.44" x2="568.05" y2="768.44"/>
  <path class="st4" d="M568.12,768.48c0,15.73,12.75,28.49,28.49,28.49"/>
  <line class="st4" x1="596.57" y1="796.89" x2="596.57" y2="768.44"/>
  <line class="st4" x1="551.66" y1="711.39" x2="551.66" y2="739.91"/>
  <path class="st4" d="M551.7,739.91c15.73,0,28.49-12.75,28.49-28.49"/>
  <line class="st4" x1="580.19" y1="711.39" x2="551.66" y2="711.39"/>
  <polyline class="st11" points="599.55 758.23 620.63 758.23 620.63 716 599.55 716 599.55 758.23"/>
  <polyline class="st4" points="620.63 745.87 599.55 745.87 599.55 758.23 620.63 758.23 620.63 745.87"/>
  <line class="st4" x1="618.17" y1="751.83" x2="612.59" y2="751.83"/>
  <line class="st4" x1="607.6" y1="751.83" x2="602.01" y2="751.83"/>
  <line class="st4" x1="604.84" y1="749.07" x2="604.84" y2="754.66"/>
  <line class="st4" x1="615.34" y1="749.07" x2="615.34" y2="754.66"/>
  <polyline class="st4" points="603.05 719.51 617.13 719.51 617.13 733.58 603.05 733.58 603.05 719.51"/>
  <polyline class="st4" points="620.63 737.08 620.63 716 599.55 716 599.55 737.08 620.63 737.08"/>
  <line class="st4" x1="619.07" y1="726.51" x2="613.41" y2="726.51"/>
  <path class="st6" d="M630.74,755.67v10.23c0,3.94,2.83,7.12,6.33,7.12,3.5,0,6.32-3.19,6.32-7.12v-10.23s-12.65,0-12.65,0Z"/>
  <polygon class="st11" points="649.13 755.67 624.89 755.67 624.83 744.83 649.13 744.8 649.13 755.67"/>
  <rect class="st11" x="631.49" y="816.23" width="17.58" height="21.15"/>
  <rect class="st11" x="612.95" y="816.23" width="17.65" height="21.15"/>
  <rect class="st11" x="594.46" y="816.23" width="17.67" height="21.15"/>
  <path class="st11" d="M618.58,811.95v-9.27c0-.21-.13-.37-.3-.37h-16.91c-.21,0-.37.17-.37.37v9.27"/>
  <path class="st4" d="M609.12,810.24c0-.35.28-.63.63-.63s.63.28.63.63c0,.35-.28.63-.63.63s-.63-.28-.63-.63"/>
  <path class="st4" d="M608.97,805.77c0-.43.35-.78.78-.78s.78.35.78.78-.35.78-.78.78-.78-.35-.78-.78"/>
  <path class="st4" d="M608.6,805.77c0-.64.52-1.15,1.15-1.15s1.15.52,1.15,1.15-.52,1.15-1.15,1.15-1.15-.52-1.15-1.15"/>
  <path class="st4" d="M601.75,802.68h16.09c.21,0,.37.17.37.37v5.44c0,.2-.17.37-.37.37h-16.09c-.21,0-.37-.17-.37-.37v-5.44c0-.2.17-.37.37-.37Z"/>
  <g>
    <polyline class="st2" points="620.48 783.59 620.48 783.56 620.51 783.56"/>
    <line class="st0" x1="620.94" y1="783.56" x2="648.39" y2="783.56"/>
    <polyline class="st2" points="648.61 783.56 648.64 783.56 648.64 783.59"/>
    <line class="st0" x1="648.64" y1="784.01" x2="648.64" y2="811.47"/>
    <polyline class="st2" points="648.64 811.68 648.64 811.71 648.61 811.71"/>
    <line class="st0" x1="648.18" y1="811.71" x2="620.72" y2="811.71"/>
    <polyline class="st2" points="620.51 811.71 620.48 811.71 620.48 811.68"/>
    <line class="st0" x1="620.48" y1="811.25" x2="620.48" y2="783.8"/>
  </g>
  <line class="st4" x1="634.56" y1="811.71" x2="634.56" y2="803.89"/>
  <line class="st4" x1="624.88" y1="740.58" x2="654.22" y2="714.89"/>
  <line class="st4" x1="654.22" y1="740.58" x2="624.88" y2="714.89"/>
  <polyline class="st11" points="638.21 974.22 638.21 968.93 640 968.93 640 974.22 638.21 974.22"/>
  <polyline class="st11" points="587.34 974.22 638.21 974.22 638.21 972.43 587.34 972.43 587.34 974.22"/>
  <line class="st4" x1="585.55" y1="975.41" x2="585.55" y2="974.22"/>
  <polyline class="st11" points="561.87 974.22 585.55 974.22 585.63 971.61 561.87 971.61 561.87 974.22"/>
  <polyline class="st11" points="560.08 974.22 560.08 968.93 561.87 968.93 561.87 974.22 560.08 974.22"/>
  <polyline class="st11" points="585.55 974.22 585.55 968.93 587.34 968.93 587.34 974.22 585.55 974.22"/>
  <line class="st4" x1="640" y1="975.26" x2="560.08" y2="975.34"/>
  <g>
    <path class="st2" d="M585.4,974.83s0,.02,0,.03"/>
    <path class="st5" d="M585.38,975.27c-.28,3.08-3.07,12.19-3.79,12.19l-19.29-12.94-.23-.16"/>
    <line class="st2" x1="561.89" y1="974.24" x2="561.87" y2="974.22"/>
  </g>
  <polygon class="st12" points="558.81 956.49 558.29 950.91 548.68 950.91 548.68 786.06 548.68 784.6 548.68 772.98 548.68 771.21 548.68 714.89 549.95 714.89 549.95 709.67 546.08 709.67 542.2 709.67 542.2 714.89 543.4 714.89 543.4 771.21 543.4 772.91 543.4 784.53 543.4 786.06 543.4 950.91 536.25 950.91 536.25 956.87 534.38 956.87 534.38 975.26 560.08 975.26 560.08 956.49 558.81 956.49"/>
  <g>
    <polyline class="st10" points="541.5 774.17 550.66 774.17 550.66 783.33 541.5 783.26 541.5 774.17"/>
    <line class="st7" x1="541.5" y1="778.27" x2="545.59" y2="774.17"/>
    <line class="st7" x1="541.5" y1="782.96" x2="550.28" y2="774.17"/>
    <line class="st7" x1="545.89" y1="783.33" x2="550.66" y2="778.57"/>
    <line class="st7" x1="545.82" y1="783.33" x2="541.5" y2="779.01"/>
    <line class="st7" x1="550.58" y1="783.33" x2="541.5" y2="774.25"/>
    <line class="st7" x1="550.66" y1="778.64" x2="546.19" y2="774.17"/>
  </g>
  <g>
    <g>
      <path class="st10" d="M605.26,886.45c0-4.59,3.96-8.32,8.85-8.32,3.6,0,7.16,2.35,8.39,5.67.17.45.51,1.4.46,2.65-.16,3.91-4.05,8.32-8.85,8.32s-8.85-3.72-8.85-8.32Z"/>
      <path class="st2" d="M621.79,884.58c0-2.82-3.44-5.11-7.68-5.11"/>
      <path class="st2" d="M606.43,884.58c0-2.82,3.44-5.11,7.68-5.11"/>
      <path class="st2" d="M606.43,884.58c0,.56-.44,1.01-.99,1.01"/>
      <path class="st2" d="M621.79,884.58c0,.56.44,1.01.99,1.01"/>
      <g>
        <path class="st10" d="M627.05,886.45c0-4.59,3.96-8.32,8.85-8.32,3.6,0,7.16,2.35,8.39,5.67.17.45.51,1.4.46,2.65-.16,3.91-4.05,8.32-8.85,8.32-4.89,0-8.85-3.72-8.85-8.32Z"/>
        <path class="st2" d="M643.59,884.58c0-2.82-3.44-5.11-7.68-5.11"/>
        <path class="st2" d="M628.22,884.58c0-2.82,3.44-5.11,7.68-5.11"/>
        <path class="st2" d="M628.22,884.58c0,.56-.44,1.01-.99,1.01"/>
        <path class="st2" d="M643.59,884.58c0,.56.48,1.01,1.07,1.01"/>
      </g>
    </g>
    <g>
      <path class="st10" d="M605.26,913.85c0,4.59,3.96,8.32,8.85,8.32,3.6,0,7.16-2.35,8.39-5.67.17-.45.51-1.4.46-2.65-.16-3.91-4.05-8.32-8.85-8.32s-8.85,3.72-8.85,8.32Z"/>
      <path class="st2" d="M621.79,915.72c0,2.82-3.44,5.11-7.68,5.11"/>
      <path class="st2" d="M606.43,915.72c0,2.82,3.44,5.11,7.68,5.11"/>
      <path class="st2" d="M606.43,915.72c0-.56-.44-1.01-.99-1.01"/>
      <path class="st2" d="M621.79,915.72c0-.56.44-1.01.99-1.01"/>
      <g>
        <path class="st10" d="M627.05,913.85c0,4.59,3.96,8.32,8.85,8.32,3.6,0,7.16-2.35,8.39-5.67.17-.45.51-1.4.46-2.65-.16-3.91-4.05-8.32-8.85-8.32-4.89,0-8.85,3.72-8.85,8.32Z"/>
        <path class="st2" d="M643.59,915.72c0,2.82-3.44,5.11-7.68,5.11"/>
        <path class="st2" d="M628.22,915.72c0,2.82,3.44,5.11,7.68,5.11"/>
        <path class="st2" d="M628.22,915.72c0-.56-.44-1.01-.99-1.01"/>
        <path class="st2" d="M643.59,915.72c0-.56.48-1.01,1.07-1.01"/>
      </g>
    </g>
    <rect class="st10" x="613.5" y="877.3" width="23.01" height="45.1" transform="translate(-274.84 1524.85) rotate(-90)"/>
  </g>
  <g>
    <path class="st1" d="M571.6,948.31c1.25-7.65,1.37-15.49.38-23.19,0-.33-.2-.62-.47-.69-6.45-.02-12.9-.05-19.36-.07"/>
    <path class="st1" d="M571.6,948.31c-.02.13-.11.22-.22.23h-1.81s-17.16,0-17.16,0l-.26-24.21c6.45-.02,12.9-.05,19.36-.07.28-.07.47-.36.47-.69,1-7.7.87-15.54-.38-23.19-.02-.13-.11-.22-.22-.23h-1.81s-17.42,0-17.42,0v24.19"/>
    <path class="st1" d="M551.16,948.21c.6.07,1.2.08,1.8.01.12-.02.2-.13.2-.27.18-7.74.22-15.47.13-23.21-.02-.19-.17-.34-.33-.35-.66-.06-1.31-.05-1.97.03"/>
    <path class="st1" d="M551.16,900.49c.6-.07,1.2-.08,1.8-.01.12.02.2.13.2.27.18,7.74.22,15.47.13,23.21-.02.19-.17.34-.33.35-.66.06-1.31.05-1.97-.03"/>
    <path class="st1" d="M550.81,900.19h-.21c-.07,0-.13.07-.13.15,0,16.01,0,32.01,0,48.02,0,.08.06.15.13.15h.21s.15-.06.15-.06v-.36s-.15-47.88-.15-47.88Z"/>
    <path class="st1" d="M554.89,947.42c0,.47-1.12.85-2.49.85-.11,0-.22,0-.33-.01l-.9-.06c-.12-.02-.2-.13-.2-.27v-23.55h2c.65.01,1.31.02,1.96.04.28.07.47.36.47.69,1.05,7.41.88,14.98-.51,22.31Z"/>
    <path class="st1" d="M554.89,901.3c0-.47-1.12-.85-2.49-.85-.11,0-.22,0-.33.01l-.9.06c-.12.02-.2.13-.2.27v23.55h2c.65-.01,1.31-.02,1.96-.04.28-.07.47-.36.47-.69,1.05-7.41.88-14.98-.51-22.31Z"/>
    <path class="st1" d="M553.15,948.05c.27-.11.54-.2.82-.27.31-.14.63-.26.95-.37.44-.14.88-.29,1.32-.44.61-.21,1.22-.35,1.85-.44.38-.06.77-.1,1.16-.13.41-.03.82-.06,1.23-.08.98-.05,1.95-.05,2.93,0,.99.05,1.96.19,2.93.41.73.16,1.44.4,2.13.71.44.19.77.48,1.06.9.02.04.04.07.04.12v.42c-.04.12-.1.18-.2.23-6.23,0-12.46,0-18.69,0-.11,0-.2-.1-.2-.23v-.13h0c0-.13.09-.23.2-.24.26-.04.52-.07.77-.11.34-.02.68-.07,1.02-.16l.68-.21Z"/>
    <path class="st1" d="M553.15,900.65c.27.11.54.2.82.27.31.14.63.26.95.37.44.14.88.29,1.32.44.61.21,1.22.35,1.85.44.38.06.77.1,1.16.13.41.03.82.06,1.23.08.98.05,1.95.05,2.93,0,.99-.05,1.96-.19,2.93-.41.73-.16,1.44-.4,2.13-.71.44-.19.77-.48,1.06-.9.02-.04.04-.07.04-.12v-.42c-.04-.12-.1-.18-.2-.23-6.23,0-12.46,0-18.69,0-.11,0-.2.1-.2.23v.13h0c0,.13.09.23.2.24.26.04.52.07.77.11.34.02.68.07,1.02.16l.68.21Z"/>
  </g>
  <circle class="st9" cx="580.44" cy="956.35" r="7.95"/>
  <g>
    <polyline class="st11" points="648.99 944.88 647.66 944.88 647.66 929.17 648.99 929.17"/>
    <polyline class="st11" points="647.66 928.28 647.66 945.84 646.25 945.84 646.25 928.28 647.66 928.28"/>
  </g>
  <polygon class="st12" points="665.62 975.34 640 975.34 640 956.72 648.93 956.72 648.93 816.25 594.41 816.25 594.41 798.68 598.66 798.68 598.66 812.01 648.93 812.01 648.93 744.83 624.88 744.83 624.88 763.15 598.66 763.15 598.66 766.65 594.41 766.65 594.41 758.9 620.63 758.9 620.63 714.89 581.9 714.89 581.9 709.67 641.04 709.67 641.04 714.89 624.88 714.89 624.88 740.58 648.93 740.58 654.22 740.58 654.22 956.72 665.62 956.72 665.62 975.34"/>
  <g>
    <polyline class="st2" points="650.14 785.6 650.14 785.57 650.11 785.57"/>
    <line class="st3" x1="649.69" y1="785.57" x2="547.47" y2="785.57"/>
    <polyline class="st2" points="547.26 785.57 547.23 785.57 547.23 785.6"/>
    <line class="st8" x1="547.23" y1="786.02" x2="547.23" y2="838.13"/>
    <polyline class="st2" points="547.23 838.35 547.23 838.37 547.26 838.37"/>
    <line class="st3" x1="547.68" y1="838.37" x2="649.9" y2="838.37"/>
    <polyline class="st2" points="650.11 838.37 650.14 838.37 650.14 838.35"/>
    <line class="st8" x1="650.14" y1="837.92" x2="650.14" y2="785.81"/>
  </g>
</svg>