<?xml version="1.0" encoding="UTF-8"?>
<svg id="Lag_1" xmlns="http://www.w3.org/2000/svg" version="1.1" viewBox="0 0 1200 1697.14">
  <!-- Generator: Adobe Illustrator 29.6.0, SVG Export Plug-In . SVG Version: 2.1.1 Build 207)  -->
  <defs>
    <style>
      .st0 {
        fill: #000016;
      }

      .st1 {
        stroke-dasharray: .06 .43;
      }

      .st1, .st2, .st3, .st4, .st5, .st6, .st7, .st8, .st9, .st10, .st11, .st12 {
        stroke-width: .18px;
      }

      .st1, .st2, .st3, .st4, .st5, .st7, .st8, .st9, .st10, .st11, .st12 {
        stroke-linejoin: round;
      }

      .st1, .st2, .st3, .st5, .st7, .st8, .st10, .st12 {
        stroke-linecap: round;
      }

      .st1, .st3, .st4, .st5, .st6, .st8, .st10, .st11, .st12 {
        stroke: #000;
      }

      .st1, .st3, .st4, .st5, .st7, .st8, .st12 {
        fill: none;
      }

      .st2, .st6, .st9, .st10, .st11 {
        fill: #fff;
      }

      .st2, .st9 {
        stroke: #060305;
      }

      .st13 {
        fill: #e8e3e0;
      }

      .st5 {
        stroke-dasharray: .06 .42;
      }

      .st6 {
        stroke-miterlimit: 10;
      }

      .st7 {
        stroke: #767676;
      }

      .st14 {
        fill: #dbd7d5;
      }

      .st8 {
        stroke-dasharray: .06 .42;
      }

      .st12 {
        stroke-dasharray: .06 .42;
      }
    </style>
  </defs>
  <polygon class="st13" points="576.87 741.68 576.87 711.28 653.38 711.74 651.8 972.74 546.16 972.1 547.56 741.68 576.87 741.68"/>
  <rect class="st14" x="547.9" y="785.59" width="105.21" height="52.82"/>
  <polyline class="st11" points="636.79 974.22 636.79 968.93 638.58 968.93 638.58 974.22 636.79 974.22"/>
  <polyline class="st11" points="585.91 974.22 636.79 974.22 636.79 972.43 585.91 972.5 585.91 974.22"/>
  <polyline class="st11" points="560.43 974.29 584.2 974.22 584.2 971.61 560.43 971.61 560.43 974.29"/>
  <polyline class="st11" points="558.72 974.29 558.65 969 560.43 969 560.43 974.29 558.72 974.29"/>
  <polyline class="st11" points="584.2 974.22 584.2 968.93 585.91 968.93 585.91 974.22 584.2 974.22"/>
  <line class="st4" x1="638.58" y1="975.26" x2="558.72" y2="975.33"/>
  <path class="st11" d="M565.8,803.95c0,.97-.78,1.75-1.75,1.75s-1.75-.78-1.75-1.75.78-1.75,1.75-1.75,1.75.78,1.75,1.75"/>
  <line class="st4" x1="602.08" y1="768.45" x2="630.61" y2="768.45"/>
  <path class="st4" d="M630.54,768.49c0,15.74-12.76,28.5-28.5,28.5"/>
  <line class="st4" x1="602.08" y1="796.91" x2="602.08" y2="768.45"/>
  <line class="st4" x1="647" y1="711.39" x2="647" y2="739.92"/>
  <path class="st4" d="M646.96,739.92c-15.74,0-28.5-12.76-28.5-28.5"/>
  <line class="st4" x1="618.47" y1="711.39" x2="647" y2="711.39"/>
  <polyline class="st11" points="599.1 758.25 578.02 758.25 578.02 716.01 599.1 716.01 599.1 758.25"/>
  <polyline class="st4" points="578.02 745.88 599.1 745.88 599.1 758.25 578.02 758.25 578.02 745.88"/>
  <line class="st4" x1="580.47" y1="751.84" x2="586.06" y2="751.84"/>
  <line class="st4" x1="591.05" y1="751.84" x2="596.64" y2="751.84"/>
  <line class="st4" x1="593.81" y1="749.08" x2="593.81" y2="754.67"/>
  <line class="st4" x1="583.3" y1="749.08" x2="583.3" y2="754.67"/>
  <polyline class="st4" points="595.6 719.51 581.52 719.51 581.52 733.59 595.6 733.59 595.6 719.51"/>
  <polyline class="st4" points="578.02 737.09 578.02 716.01 599.1 716.01 599.1 737.09 578.02 737.09"/>
  <line class="st4" x1="579.58" y1="726.51" x2="585.24" y2="726.51"/>
  <path class="st6" d="M567.9,755.68v10.23c0,3.94-2.83,7.13-6.33,7.13s-6.33-3.19-6.33-7.13v-10.23s12.65,0,12.65,0Z"/>
  <polygon class="st11" points="549.51 755.68 573.75 755.68 573.82 744.84 549.51 744.81 549.51 755.68"/>
  <rect class="st11" x="549.57" y="816.26" width="17.58" height="21.16" transform="translate(1116.72 1653.68) rotate(180)"/>
  <rect class="st11" x="568.04" y="816.26" width="17.66" height="21.16" transform="translate(1153.74 1653.68) rotate(180)"/>
  <rect class="st11" x="586.52" y="816.26" width="17.67" height="21.16" transform="translate(1190.71 1653.68) rotate(180)"/>
  <path class="st11" d="M580.06,811.98v-9.28c0-.21.13-.37.3-.37h16.91c.21,0,.37.17.37.37v9.28"/>
  <path class="st4" d="M589.53,810.26c0-.35-.28-.63-.63-.63s-.63.28-.63.63c0,.35.28.63.63.63s.63-.28.63-.63"/>
  <path class="st4" d="M589.67,805.79c0-.43-.35-.78-.78-.78s-.78.35-.78.78c0,.43.35.78.78.78s.78-.35.78-.78"/>
  <path class="st4" d="M590.05,805.79c0-.64-.52-1.15-1.15-1.15s-1.15.52-1.15,1.15c0,.64.52,1.15,1.15,1.15s1.15-.52,1.15-1.15"/>
  <path class="st4" d="M580.81,802.7h16.09c.21,0,.37.17.37.37v5.44c0,.2-.17.37-.37.37h-16.1c-.21,0-.37-.17-.37-.37v-5.44c0-.21.17-.37.37-.37Z"/>
  <g>
    <polyline class="st3" points="578.16 783.6 578.16 783.58 578.14 783.58"/>
    <line class="st1" x1="577.71" y1="783.58" x2="550.25" y2="783.58"/>
    <polyline class="st3" points="550.03 783.58 550 783.58 550 783.6"/>
    <line class="st1" x1="550" y1="784.03" x2="550" y2="811.49"/>
    <polyline class="st3" points="550 811.71 550 811.74 550.03 811.74"/>
    <line class="st1" x1="550.46" y1="811.74" x2="577.92" y2="811.74"/>
    <polyline class="st3" points="578.14 811.74 578.16 811.74 578.16 811.71"/>
    <line class="st1" x1="578.16" y1="811.28" x2="578.16" y2="783.82"/>
  </g>
  <line class="st4" x1="564.08" y1="811.74" x2="564.08" y2="803.91"/>
  <g>
    <path class="st3" d="M584.09,974.83s0,.02,0,.03"/>
    <path class="st8" d="M584.06,975.27c-.28,3.09-3.07,12.2-3.79,12.2l-19.29-12.95-.23-.16"/>
    <line class="st3" x1="560.57" y1="974.23" x2="560.55" y2="974.22"/>
  </g>
  <line class="st4" x1="573.77" y1="740.59" x2="544.42" y2="714.89"/>
  <line class="st4" x1="544.42" y1="740.59" x2="573.77" y2="714.89"/>
  <polygon class="st0" points="660.67 956.41 660.6 952.31 655.27 952.31 655.27 785.46 655.27 784.54 655.27 772.92 655.27 772.29 655.27 714.89 656.46 714.89 656.46 709.67 652.59 709.67 648.71 709.67 648.71 714.89 649.98 714.89 649.98 772.29 649.98 773 649.98 784.62 649.98 785.46 649.98 952.31 640.18 952.31 639.81 956.19 638.4 956.19 638.47 975.33 664.17 975.41 664.17 956.41 660.67 956.41"/>
  <g>
    <polyline class="st10" points="648.01 774.3 657.17 774.3 657.17 783.47 648.01 783.39 648.01 774.3"/>
    <line class="st7" x1="648.01" y1="778.4" x2="652.1" y2="774.3"/>
    <line class="st7" x1="648.01" y1="783.09" x2="656.8" y2="774.3"/>
    <line class="st7" x1="652.4" y1="783.47" x2="657.17" y2="778.7"/>
    <line class="st7" x1="652.33" y1="783.47" x2="648.01" y2="779.15"/>
    <line class="st7" x1="657.1" y1="783.47" x2="648.01" y2="774.38"/>
    <line class="st7" x1="657.17" y1="778.77" x2="652.7" y2="774.3"/>
  </g>
  <g>
    <path class="st2" d="M627.03,949.26c-1.23-7.56-1.36-15.31-.37-22.93,0-.33.19-.61.47-.68,6.38-.02,12.75-.05,19.13-.07"/>
    <path class="st2" d="M627.03,949.26c.02.13.11.22.22.23h18.75l.26-23.93c-6.38-.02-12.75-.05-19.13-.07-.27-.07-.47-.36-.47-.68-.99-7.61-.86-15.36.37-22.93.02-.13.11-.22.22-.23h19.01v23.91"/>
    <path class="st2" d="M647.23,949.16c-.6.07-1.18.08-1.78.01-.11-.02-.2-.13-.2-.27-.18-7.65-.22-15.29-.13-22.94.02-.19.16-.34.33-.34.65-.06,1.3-.04,1.95.03"/>
    <path class="st2" d="M647.23,901.99c-.6-.07-1.18-.08-1.78-.01-.11.02-.2.13-.2.27-.18,7.65-.22,15.29-.13,22.94.02.19.16.34.33.34.65.06,1.3.04,1.95-.03"/>
    <path class="st2" d="M647.57,901.7h.21c.07,0,.12.06.12.14v47.46c0,.08-.06.14-.12.14h-.21l-.14-.06v-.36s.14-47.33.14-47.33Z"/>
    <path class="st2" d="M643.55,948.39c0,.47,1.1.84,2.47.84.11,0,.22,0,.33-.01l.89-.06c.11-.02.2-.13.2-.27v-23.27h-1.98c-.65.01-1.29.02-1.94.04-.27.07-.47.36-.47.68-1.04,7.32-.87,14.8.5,22.05Z"/>
    <path class="st2" d="M643.55,902.8c0-.47,1.1-.84,2.47-.84.11,0,.22,0,.33.01l.89.06c.11.02.2.13.2.27v23.27h-1.98c-.65-.01-1.29-.02-1.94-.04-.27-.07-.47-.36-.47-.68-1.04-7.32-.87-14.8.5-22.05Z"/>
    <path class="st2" d="M645.26,949c-.27-.11-.53-.19-.81-.26-.31-.14-.62-.26-.94-.36-.44-.14-.87-.29-1.3-.43-.6-.2-1.2-.35-1.82-.44-.38-.05-.76-.1-1.14-.12-.41-.03-.81-.06-1.22-.08-.97-.05-1.93-.05-2.9,0-.98.05-1.94.19-2.9.4-.72.16-1.42.39-2.11.7-.43.19-.76.47-1.05.89-.02.04-.03.07-.03.12v.42c.04.11.1.18.2.23h18.47c.11,0,.2-.1.2-.23v-.13h0c0-.13-.09-.23-.2-.24-.26-.04-.51-.07-.77-.11-.34-.02-.67-.07-1.01-.15l-.67-.21Z"/>
    <path class="st2" d="M645.26,902.15c-.27.11-.53.19-.81.26-.31.14-.62.26-.94.36-.44.14-.87.29-1.3.43-.6.2-1.2.35-1.82.44-.38.05-.76.1-1.14.12-.41.03-.81.06-1.22.08-.97.05-1.93.05-2.9,0-.98-.05-1.94-.19-2.9-.4-.72-.16-1.42-.39-2.11-.7-.43-.19-.76-.47-1.05-.89-.02-.04-.03-.07-.03-.12v-.42c.04-.11.1-.18.2-.23h18.47c.11,0,.2.1.2.23v.13h0c0,.13-.09.23-.2.24-.26.04-.51.07-.77.11-.34.02-.67.07-1.01.15l-.67.21Z"/>
  </g>
  <circle class="st9" cx="614.46" cy="951.26" r="9.6"/>
  <g>
    <polyline class="st11" points="549.36 944.81 550.7 944.81 550.7 953.39 549.36 953.39"/>
    <polyline class="st11" points="550.7 954.36 550.7 943.84 552.11 943.84 552.11 954.36 550.7 954.36"/>
  </g>
  <g>
    <g>
      <path class="st10" d="M592.36,873.83c0-4.54-3.92-8.22-8.75-8.22-3.56,0-7.08,2.33-8.29,5.6-.17.45-.5,1.39-.45,2.62.15,3.86,4,8.22,8.75,8.22s8.75-3.68,8.75-8.22Z"/>
      <path class="st3" d="M576.02,871.99c0-2.79,3.4-5.05,7.59-5.05"/>
      <path class="st3" d="M591.2,871.99c0-2.79-3.4-5.05-7.59-5.05"/>
      <path class="st3" d="M591.2,871.99c0,.55.44,1,.98,1"/>
      <path class="st3" d="M576.02,871.99c0,.55-.44,1-.98,1"/>
      <g>
        <path class="st10" d="M570.82,873.83c0-4.54-3.92-8.22-8.75-8.22-3.56,0-7.08,2.33-8.29,5.6-.17.45-.5,1.39-.45,2.62.15,3.86,4,8.22,8.75,8.22s8.75-3.68,8.75-8.22Z"/>
        <path class="st3" d="M554.48,871.99c0-2.79,3.4-5.05,7.59-5.05"/>
        <path class="st3" d="M569.66,871.99c0-2.79-3.4-5.05-7.59-5.05"/>
        <path class="st3" d="M569.66,871.99c0,.55.44,1,.98,1"/>
        <path class="st3" d="M554.48,871.99c0,.55-.47,1-1.06,1"/>
      </g>
    </g>
    <g>
      <path class="st10" d="M592.36,900.92c0,4.54-3.92,8.22-8.75,8.22-3.56,0-7.08-2.33-8.29-5.6-.17-.45-.5-1.39-.45-2.62.15-3.86,4-8.22,8.75-8.22s8.75,3.68,8.75,8.22Z"/>
      <path class="st3" d="M576.02,902.76c0,2.79,3.4,5.05,7.59,5.05"/>
      <path class="st3" d="M591.2,902.76c0,2.79-3.4,5.05-7.59,5.05"/>
      <path class="st3" d="M591.2,902.76c0-.55.44-1,.98-1"/>
      <path class="st3" d="M576.02,902.76c0-.55-.44-1-.98-1"/>
      <g>
        <path class="st10" d="M570.82,900.92c0,4.54-3.92,8.22-8.75,8.22-3.56,0-7.08-2.33-8.29-5.6-.17-.45-.5-1.39-.45-2.62.15-3.86,4-8.22,8.75-8.22s8.75,3.68,8.75,8.22Z"/>
        <path class="st3" d="M554.48,902.76c0,2.79,3.4,5.05,7.59,5.05"/>
        <path class="st3" d="M569.66,902.76c0,2.79-3.4,5.05-7.59,5.05"/>
        <path class="st3" d="M569.66,902.76c0-.55.44-1,.98-1"/>
        <path class="st3" d="M554.48,902.76c0-.55-.47-1-1.06-1"/>
      </g>
    </g>
    <rect class="st10" x="561.47" y="864.79" width="22.74" height="44.58" transform="translate(-314.24 1459.92) rotate(-90)"/>
  </g>
  <polygon class="st0" points="578.02 714.89 578.02 758.92 604.24 758.92 604.24 766.67 599.99 766.67 599.99 763.16 573.77 763.16 573.77 744.84 549.71 744.84 549.71 812.03 599.99 812.03 599.99 798.7 604.24 798.7 604.24 816.28 549.71 816.28 549.71 956.81 558.65 956.78 558.65 975.26 535.83 975.26 535.83 956.86 544.42 956.83 544.42 740.59 549.71 740.59 573.77 740.59 573.77 714.89 557.6 714.89 557.6 709.67 616.75 709.67 616.75 714.89 578.02 714.89"/>
  <g>
    <polyline class="st3" points="653.38 785.62 653.38 785.59 653.35 785.59"/>
    <line class="st5" x1="652.93" y1="785.59" x2="547.33" y2="785.59"/>
    <polyline class="st3" points="547.11 785.59 547.09 785.59 547.09 785.62"/>
    <line class="st12" x1="547.09" y1="786.04" x2="547.09" y2="838.22"/>
    <polyline class="st3" points="547.09 838.43 547.09 838.46 547.11 838.46"/>
    <line class="st5" x1="547.54" y1="838.46" x2="653.14" y2="838.46"/>
    <polyline class="st3" points="653.35 838.46 653.38 838.46 653.38 838.43"/>
    <line class="st12" x1="653.38" y1="838.01" x2="653.38" y2="785.83"/>
  </g>
</svg>