<?xml version="1.0" encoding="UTF-8"?>
<svg id="Lag_1" xmlns="http://www.w3.org/2000/svg" version="1.1" viewBox="0 0 1200 1697.14">
  <!-- Generator: Adobe Illustrator 29.6.0, SVG Export Plug-In . SVG Version: 2.1.1 Build 207)  -->
  <defs>
    <style>
      .st0, .st1, .st2, .st3, .st4, .st5, .st6, .st7, .st8, .st9 {
        fill: none;
      }

      .st1 {
        stroke-dasharray: .06 .43;
      }

      .st1, .st2, .st3, .st10, .st4, .st5, .st6, .st11, .st7, .st12, .st13, .st14, .st8, .st9 {
        stroke-width: .18px;
      }

      .st1, .st2, .st3, .st10, .st4, .st5, .st6, .st7, .st12, .st13, .st14, .st8, .st9 {
        stroke-linejoin: round;
      }

      .st1, .st2, .st3, .st10, .st4, .st5, .st7, .st13, .st8, .st9 {
        stroke-linecap: round;
      }

      .st1, .st2, .st3, .st4, .st5, .st6, .st11, .st13, .st14, .st8, .st9 {
        stroke: #000;
      }

      .st15 {
        fill: #000016;
      }

      .st2 {
        stroke-dasharray: .06 .43;
      }

      .st3 {
        stroke-dasharray: .06 .43;
      }

      .st10, .st11, .st12, .st13, .st14 {
        fill: #fff;
      }

      .st10, .st12 {
        stroke: #060305;
      }

      .st16 {
        fill: #e8e3e0;
      }

      .st5 {
        stroke-dasharray: .06 .43;
      }

      .st11 {
        stroke-miterlimit: 10;
      }

      .st7 {
        stroke: #767676;
      }

      .st17 {
        fill: #dbd7d5;
      }

      .st8 {
        stroke-dasharray: .06 .42;
      }

      .st9 {
        stroke-dasharray: .06 .43;
      }
    </style>
  </defs>
  <polygon class="st16" points="624.19 693.07 624.19 722.37 652.53 722.37 652.53 992.85 548.85 992.85 548.85 693.07 624.19 693.07"/>
  <rect class="st17" x="547.63" y="797.39" width="104.9" height="60.96" transform="translate(1200.16 1655.73) rotate(-180)"/>
  <g>
    <path class="st4" d="M585.6,995.14s0,.02,0,.03"/>
    <path class="st5" d="M585.57,995.59c-.33,2.69-3.08,10.31-3.8,10.31l-19.36-11.01-.22-.13"/>
    <line class="st4" x1="562" y1="994.64" x2="561.97" y2="994.62"/>
  </g>
  <rect class="st14" x="632.33" y="797.2" width="17.48" height="21.03"/>
  <rect class="st14" x="613.89" y="797.2" width="17.55" height="21.03"/>
  <rect class="st14" x="595.51" y="797.2" width="17.57" height="21.03"/>
  <polygon class="st14" points="649.87 736.97 625.77 736.97 625.7 726.19 649.87 726.16 649.87 736.97"/>
  <line class="st4" x1="649.81" y1="797.39" x2="648.33" y2="797.39"/>
  <line class="st4" x1="646.41" y1="797.39" x2="645.15" y2="797.39"/>
  <line class="st4" x1="643.3" y1="797.39" x2="642.04" y2="797.39"/>
  <line class="st4" x1="640.11" y1="797.39" x2="638.85" y2="797.39"/>
  <line class="st4" x1="637" y1="797.39" x2="635.74" y2="797.39"/>
  <line class="st4" x1="649.81" y1="814.79" x2="649.81" y2="813.53"/>
  <line class="st4" x1="649.81" y1="811.61" x2="649.81" y2="810.35"/>
  <line class="st4" x1="649.81" y1="808.5" x2="649.81" y2="807.24"/>
  <line class="st4" x1="649.81" y1="805.31" x2="649.81" y2="804.05"/>
  <line class="st4" x1="649.81" y1="802.2" x2="649.81" y2="800.94"/>
  <line class="st4" x1="649.81" y1="799.02" x2="649.81" y2="797.39"/>
  <line class="st4" x1="613.08" y1="797.39" x2="611.6" y2="797.39"/>
  <line class="st4" x1="609.67" y1="797.39" x2="608.41" y2="797.39"/>
  <line class="st4" x1="606.56" y1="797.39" x2="605.3" y2="797.39"/>
  <line class="st4" x1="603.37" y1="797.39" x2="602.12" y2="797.39"/>
  <line class="st4" x1="600.19" y1="797.39" x2="598.93" y2="797.39"/>
  <line class="st4" x1="631.45" y1="797.39" x2="629.96" y2="797.39"/>
  <line class="st4" x1="628.04" y1="797.39" x2="626.78" y2="797.39"/>
  <line class="st4" x1="624.93" y1="797.39" x2="623.67" y2="797.39"/>
  <line class="st4" x1="621.74" y1="797.39" x2="620.48" y2="797.39"/>
  <line class="st4" x1="618.63" y1="797.39" x2="617.37" y2="797.39"/>
  <line class="st4" x1="597.67" y1="749.76" x2="569.3" y2="749.76"/>
  <path class="st4" d="M569.3,749.73c0,15.65,12.68,28.33,28.33,28.33"/>
  <line class="st4" x1="597.67" y1="778.13" x2="597.67" y2="749.76"/>
  <path class="st4" d="M581.38,693.1h-28.29l-.04,28.29c15.65,0,28.33-12.68,28.33-28.33"/>
  <polyline class="st13" points="600.63 739.62 621.67 739.62 621.67 697.62 600.63 697.62 600.63 739.62"/>
  <polyline class="st4" points="621.67 727.39 600.63 727.39 600.63 739.62 621.67 739.62 621.67 727.39"/>
  <line class="st4" x1="619.22" y1="733.32" x2="613.6" y2="733.32"/>
  <line class="st4" x1="608.71" y1="733.32" x2="603.08" y2="733.32"/>
  <line class="st4" x1="605.89" y1="730.51" x2="605.89" y2="736.13"/>
  <line class="st4" x1="616.41" y1="730.51" x2="616.41" y2="736.13"/>
  <polyline class="st4" points="604.12 701.1 618.11 701.1 618.11 715.1 604.12 715.1 604.12 701.1"/>
  <polyline class="st4" points="621.67 718.65 621.67 697.62 600.63 697.62 600.63 718.65 621.67 718.65"/>
  <line class="st4" x1="620.04" y1="708.14" x2="614.48" y2="708.14"/>
  <polyline class="st13" points="637.89 994.62 637.89 989.36 639.67 989.36 639.67 994.62 637.89 994.62"/>
  <polyline class="st13" points="587.3 994.62 637.89 994.62 637.89 992.85 587.3 992.85 587.3 994.62"/>
  <polyline class="st13" points="560.19 994.62 560.19 989.36 561.97 989.36 561.97 994.62 560.19 994.62"/>
  <polyline class="st13" points="585.6 994.62 585.6 989.36 587.3 989.36 587.3 994.62 585.6 994.62"/>
  <line class="st4" x1="639.67" y1="995.66" x2="560.19" y2="995.66"/>
  <path class="st14" d="M633.68,784.96c0,.96.78,1.74,1.74,1.74s1.74-.78,1.74-1.74c0-.96-.78-1.74-1.74-1.74s-1.74.78-1.74,1.74"/>
  <path class="st11" d="M631.58,736.97v10.17c0,3.92,2.81,7.08,6.29,7.08,3.48,0,6.29-3.17,6.29-7.08v-10.17s-12.58,0-12.58,0Z"/>
  <path class="st14" d="M619.49,792.94v-9.22c0-.2-.13-.37-.3-.37h-16.81c-.2,0-.37.17-.37.37v9.22"/>
  <path class="st6" d="M610.09,791.24c0-.35.28-.63.63-.63s.63.28.63.63c0,.35-.28.63-.63.63s-.63-.28-.63-.63"/>
  <path class="st6" d="M609.94,786.79c0-.43.35-.78.78-.78s.78.35.78.78c0,.43-.35.78-.78.78s-.78-.35-.78-.78"/>
  <path class="st6" d="M609.57,786.79c0-.63.51-1.15,1.15-1.15s1.15.51,1.15,1.15-.51,1.15-1.15,1.15-1.15-.51-1.15-1.15"/>
  <path class="st6" d="M602.76,783.72h16c.2,0,.37.17.37.37v5.41c0,.2-.17.37-.37.37h-16c-.2,0-.37-.17-.37-.37v-5.41c0-.2.17-.37.37-.37Z"/>
  <g>
    <polyline class="st4" points="621.38 764.73 621.38 764.7 621.41 764.7"/>
    <line class="st1" x1="621.84" y1="764.7" x2="649.14" y2="764.7"/>
    <polyline class="st4" points="649.35 764.7 649.38 764.7 649.38 764.73"/>
    <line class="st1" x1="649.38" y1="765.16" x2="649.38" y2="792.46"/>
    <polyline class="st4" points="649.38 792.67 649.38 792.7 649.35 792.7"/>
    <line class="st1" x1="648.93" y1="792.7" x2="621.62" y2="792.7"/>
    <polyline class="st4" points="621.41 792.7 621.38 792.7 621.38 792.67"/>
    <line class="st1" x1="621.38" y1="792.25" x2="621.38" y2="764.95"/>
  </g>
  <line class="st6" x1="635.38" y1="792.7" x2="635.38" y2="784.92"/>
  <line class="st6" x1="625.75" y1="721.97" x2="654.93" y2="696.42"/>
  <line class="st6" x1="655.07" y1="722.14" x2="625.75" y2="696.42"/>
  <polyline class="st13" points="561.97 994.62 585.6 994.62 585.6 991.96 561.97 991.96 561.97 994.62"/>
  <polygon class="st15" points="550.19 972.11 550.19 808.2 550.19 789.61 550.19 696.51 551.37 696.51 551.37 691.25 547.52 691.25 543.67 691.25 543.67 696.51 544.93 696.51 544.85 789.61 544.93 789.61 544.93 808.2 544.93 972.11 534.78 972.11 534.78 995.66 560.33 995.66 560.33 972.11 550.19 972.11"/>
  <g>
    <polyline class="st13" points="539.63 790.98 555.41 791.13 555.41 806.83 539.71 806.75 539.63 790.98"/>
    <line class="st7" x1="539.63" y1="794.9" x2="543.48" y2="790.98"/>
    <line class="st7" x1="539.63" y1="799.57" x2="548.15" y2="791.05"/>
    <line class="st7" x1="539.63" y1="804.31" x2="552.82" y2="791.13"/>
    <line class="st7" x1="541.93" y1="806.75" x2="555.41" y2="793.27"/>
    <line class="st7" x1="546.59" y1="806.75" x2="555.41" y2="797.94"/>
    <line class="st7" x1="551.26" y1="806.83" x2="555.41" y2="802.68"/>
    <line class="st7" x1="544.08" y1="806.75" x2="539.63" y2="802.31"/>
    <line class="st7" x1="548.89" y1="806.83" x2="539.63" y2="797.57"/>
    <line class="st7" x1="553.63" y1="806.83" x2="539.63" y2="792.9"/>
    <line class="st7" x1="555.41" y1="803.94" x2="542.45" y2="790.98"/>
    <line class="st7" x1="555.41" y1="799.2" x2="547.26" y2="791.05"/>
    <line class="st7" x1="555.41" y1="794.46" x2="552" y2="791.05"/>
  </g>
  <g>
    <g>
      <path class="st13" d="M606.21,872.54c0-4.59,3.96-8.32,8.85-8.32,3.6,0,7.16,2.35,8.39,5.67.17.45.51,1.4.46,2.65-.16,3.91-4.05,8.32-8.85,8.32s-8.85-3.72-8.85-8.32Z"/>
      <path class="st4" d="M622.74,870.68c0-2.82-3.44-5.11-7.68-5.11"/>
      <path class="st4" d="M607.38,870.68c0-2.82,3.44-5.11,7.68-5.11"/>
      <path class="st4" d="M607.38,870.68c0,.56-.44,1.01-.99,1.01"/>
      <path class="st4" d="M622.74,870.68c0,.56.44,1.01.99,1.01"/>
      <g>
        <path class="st13" d="M628,872.54c0-4.59,3.96-8.32,8.85-8.32,3.6,0,7.16,2.35,8.39,5.67.17.45.51,1.4.46,2.65-.16,3.91-4.05,8.32-8.85,8.32-4.89,0-8.85-3.72-8.85-8.32Z"/>
        <path class="st4" d="M644.53,870.68c0-2.82-3.44-5.11-7.68-5.11"/>
        <path class="st4" d="M629.17,870.68c0-2.82,3.44-5.11,7.68-5.11"/>
        <path class="st4" d="M629.17,870.68c0,.56-.44,1.01-.99,1.01"/>
        <path class="st4" d="M644.53,870.68c0,.56.48,1.01,1.07,1.01"/>
      </g>
    </g>
    <g>
      <path class="st13" d="M606.21,899.95c0,4.59,3.96,8.32,8.85,8.32,3.6,0,7.16-2.35,8.39-5.67.17-.45.51-1.4.46-2.65-.16-3.91-4.05-8.32-8.85-8.32s-8.85,3.72-8.85,8.32Z"/>
      <path class="st4" d="M622.74,901.81c0,2.82-3.44,5.11-7.68,5.11"/>
      <path class="st4" d="M607.38,901.81c0,2.82,3.44,5.11,7.68,5.11"/>
      <path class="st4" d="M607.38,901.81c0-.56-.44-1.01-.99-1.01"/>
      <path class="st4" d="M622.74,901.81c0-.56.44-1.01.99-1.01"/>
      <g>
        <path class="st13" d="M628,899.95c0,4.59,3.96,8.32,8.85,8.32,3.6,0,7.16-2.35,8.39-5.67.17-.45.51-1.4.46-2.65-.16-3.91-4.05-8.32-8.85-8.32-4.89,0-8.85,3.72-8.85,8.32Z"/>
        <path class="st4" d="M644.53,901.81c0,2.82-3.44,5.11-7.68,5.11"/>
        <path class="st4" d="M629.17,901.81c0,2.82,3.44,5.11,7.68,5.11"/>
        <path class="st4" d="M629.17,901.81c0-.56-.44-1.01-.99-1.01"/>
        <path class="st4" d="M644.53,901.81c0-.56.48-1.01,1.07-1.01"/>
      </g>
    </g>
    <rect class="st13" x="614.45" y="863.39" width="23.01" height="45.1" transform="translate(-259.99 1511.9) rotate(-90)"/>
  </g>
  <g>
    <path class="st10" d="M572.54,969.14c1.25-7.65,1.37-15.49.38-23.19,0-.33-.2-.62-.47-.69-6.45-.02-12.9-.05-19.36-.07"/>
    <path class="st10" d="M572.54,969.14c-.02.13-.11.22-.22.23h-1.81s-17.16,0-17.16,0l-.26-24.21c6.45-.02,12.9-.05,19.36-.07.28-.07.47-.36.47-.69,1-7.7.87-15.54-.38-23.19-.02-.13-.11-.22-.22-.23h-1.81s-17.42,0-17.42,0v24.19"/>
    <path class="st10" d="M552.11,969.04c.6.07,1.2.08,1.8.01.12-.02.2-.13.2-.27.18-7.74.22-15.47.13-23.21-.02-.19-.17-.34-.33-.35-.66-.06-1.31-.05-1.97.03"/>
    <path class="st10" d="M552.11,921.32c.6-.07,1.2-.08,1.8-.01.12.02.2.13.2.27.18,7.74.22,15.47.13,23.21-.02.19-.17.34-.33.35-.66.06-1.31.05-1.97-.03"/>
    <path class="st10" d="M551.76,921.02h-.21c-.07,0-.13.07-.13.15,0,16.01,0,32.01,0,48.02,0,.08.06.15.13.15h.21s.15-.06.15-.06v-.36s-.15-47.88-.15-47.88Z"/>
    <path class="st10" d="M555.83,968.25c0,.47-1.12.85-2.49.85-.11,0-.22,0-.33-.01l-.9-.06c-.12-.02-.2-.13-.2-.27v-23.55h2c.65.01,1.31.02,1.96.04.28.07.47.36.47.69,1.05,7.41.88,14.98-.51,22.31Z"/>
    <path class="st10" d="M555.83,922.13c0-.47-1.12-.85-2.49-.85-.11,0-.22,0-.33.01l-.9.06c-.12.02-.2.13-.2.27v23.55h2c.65-.01,1.31-.02,1.96-.04.28-.07.47-.36.47-.69,1.05-7.41.88-14.98-.51-22.31Z"/>
    <path class="st10" d="M554.1,968.88c.27-.11.54-.2.82-.27.31-.14.63-.26.95-.37.44-.14.88-.29,1.32-.44.61-.21,1.22-.35,1.85-.44.38-.06.77-.1,1.16-.13.41-.03.82-.06,1.23-.08.98-.05,1.95-.05,2.93,0,.99.05,1.96.19,2.93.41.73.16,1.44.4,2.13.71.44.19.77.48,1.06.9.02.04.04.07.04.12v.42c-.04.12-.1.18-.2.23-6.23,0-12.46,0-18.69,0-.11,0-.2-.1-.2-.23v-.13h0c0-.13.09-.23.2-.24.26-.04.52-.07.77-.11.34-.02.68-.07,1.02-.16l.68-.21Z"/>
    <path class="st10" d="M554.1,921.48c.27.11.54.2.82.27.31.14.63.26.95.37.44.14.88.29,1.32.44.61.21,1.22.35,1.85.44.38.06.77.1,1.16.13.41.03.82.06,1.23.08.98.05,1.95.05,2.93,0,.99-.05,1.96-.19,2.93-.41.73-.16,1.44-.4,2.13-.71.44-.19.77-.48,1.06-.9.02-.04.04-.07.04-.12v-.42c-.04-.12-.1-.18-.2-.23h-18.69c-.11,0-.2.1-.2.23v.13h0c0,.13.09.23.2.24.26.04.52.07.77.11.34.02.68.07,1.02.16l.68.21Z"/>
  </g>
  <circle class="st12" cx="586.32" cy="958.14" r="9.71"/>
  <g>
    <polyline class="st14" points="649.94 960.56 648.6 960.56 648.6 944.85 649.94 944.85"/>
    <polyline class="st14" points="648.6 943.96 648.6 961.53 647.19 961.53 647.19 943.96 648.6 943.96"/>
  </g>
  <polygon class="st15" points="655.07 972.26 655.07 722.14 649.81 722.14 625.82 722.14 625.82 696.58 641.96 696.58 641.96 691.32 583.15 691.32 583.15 696.58 621.67 696.58 621.67 740.28 595.6 740.28 595.6 747.98 599.75 747.98 599.75 744.5 625.82 744.5 625.82 726.36 649.81 726.36 649.81 793.16 599.75 793.16 599.75 779.83 595.6 779.83 595.6 797.39 649.81 797.39 649.81 972.26 639.67 972.26 639.67 995.66 665.22 995.66 665.22 972.26 655.07 972.26"/>
  <g>
    <line class="st4" x1="547.75" y1="806.75" x2="547.75" y2="806.78"/>
    <line class="st3" x1="547.75" y1="807.21" x2="547.75" y2="858.1"/>
    <polyline class="st4" points="547.75 858.31 547.75 858.34 547.78 858.34"/>
    <line class="st9" x1="548.2" y1="858.34" x2="652.29" y2="858.34"/>
    <polyline class="st4" points="652.5 858.34 652.53 858.34 652.53 858.31"/>
    <line class="st2" x1="652.53" y1="857.89" x2="652.53" y2="797.63"/>
    <polyline class="st4" points="652.53 797.42 652.53 797.39 652.5 797.39"/>
    <line class="st8" x1="652.08" y1="797.39" x2="555.65" y2="797.39"/>
    <line class="st4" x1="555.44" y1="797.39" x2="555.41" y2="797.39"/>
  </g>
  <path class="st0" d="M547.75,797.39"/>
</svg>