<?xml version="1.0" encoding="UTF-8"?>
<svg id="Lag_1" xmlns="http://www.w3.org/2000/svg" version="1.1" viewBox="0 0 1400 1980">
  <!-- Generator: Adobe Illustrator 29.6.0, SVG Export Plug-In . SVG Version: 2.1.1 Build 207)  -->
  <defs>
    <style>
      .st0 {
        stroke-dasharray: .06 .43;
      }

      .st0, .st1, .st2, .st3, .st4, .st5, .st6, .st7, .st8, .st9 {
        stroke-width: .18px;
      }

      .st0, .st1, .st2, .st3, .st5, .st7, .st8, .st9 {
        stroke-linejoin: round;
      }

      .st0, .st1, .st2, .st3, .st7, .st8 {
        stroke-linecap: round;
      }

      .st0, .st1, .st3, .st5, .st6, .st7, .st8, .st9 {
        stroke: #000;
      }

      .st0, .st1, .st3, .st5, .st7 {
        fill: none;
      }

      .st10 {
        fill: #000016;
      }

      .st1 {
        stroke-dasharray: .06 .43;
      }

      .st2, .st4 {
        stroke: #060305;
      }

      .st2, .st4, .st6, .st8, .st9 {
        fill: #fff;
      }

      .st11 {
        fill: #e8e3e0;
      }

      .st4, .st6 {
        stroke-miterlimit: 10;
      }

      .st7 {
        stroke-dasharray: .06 .43;
      }
    </style>
  </defs>
  <polygon class="st11" points="732.45 867.05 732.45 835.79 638.42 835.79 638.42 1033 651.33 1033 651.33 1136.37 760.69 1136.37 760.69 867.05 732.45 867.05"/>
  <g>
    <path class="st3" d="M694.26,1138.67s0,.02,0,.03"/>
    <path class="st7" d="M694.23,1139.12c-.33,2.69-3.09,10.33-3.81,10.33l-19.41-11.04-.22-.13"/>
    <line class="st3" x1="670.6" y1="1138.16" x2="670.57" y2="1138.15"/>
  </g>
  <g>
    <path class="st3" d="M636.21,984.16s-.02,0-.03,0"/>
    <path class="st0" d="M635.77,984.13c-2.59-.32-9.86-2.94-9.86-3.62l10.56-18.5.12-.2"/>
    <line class="st3" x1="636.69" y1="961.61" x2="636.71" y2="961.59"/>
  </g>
  <rect class="st9" x="741.12" y="940.2" width="17.53" height="21.09"/>
  <rect class="st9" x="722.63" y="940.2" width="17.6" height="21.09"/>
  <rect class="st9" x="704.2" y="940.2" width="17.61" height="21.09"/>
  <polygon class="st9" points="758.71 879.81 734.54 879.81 734.47 869 758.71 868.97 758.71 879.81"/>
  <line class="st3" x1="758.65" y1="940.39" x2="757.16" y2="940.39"/>
  <line class="st3" x1="755.23" y1="940.39" x2="753.97" y2="940.39"/>
  <line class="st3" x1="752.11" y1="940.39" x2="750.85" y2="940.39"/>
  <line class="st3" x1="748.92" y1="940.39" x2="747.66" y2="940.39"/>
  <line class="st3" x1="745.8" y1="940.39" x2="744.54" y2="940.39"/>
  <line class="st3" x1="758.65" y1="957.84" x2="758.65" y2="956.58"/>
  <line class="st3" x1="758.65" y1="954.64" x2="758.65" y2="953.38"/>
  <line class="st3" x1="758.65" y1="951.53" x2="758.65" y2="950.26"/>
  <line class="st3" x1="758.65" y1="948.33" x2="758.65" y2="947.07"/>
  <line class="st3" x1="758.65" y1="945.21" x2="758.65" y2="943.95"/>
  <line class="st3" x1="758.65" y1="942.02" x2="758.65" y2="940.39"/>
  <line class="st3" x1="721.81" y1="940.39" x2="720.33" y2="940.39"/>
  <line class="st3" x1="718.4" y1="940.39" x2="717.14" y2="940.39"/>
  <line class="st3" x1="715.28" y1="940.39" x2="714.02" y2="940.39"/>
  <line class="st3" x1="712.09" y1="940.39" x2="710.82" y2="940.39"/>
  <line class="st3" x1="708.89" y1="940.39" x2="707.63" y2="940.39"/>
  <line class="st3" x1="740.23" y1="940.39" x2="738.75" y2="940.39"/>
  <line class="st3" x1="736.82" y1="940.39" x2="735.55" y2="940.39"/>
  <line class="st3" x1="733.7" y1="940.39" x2="732.43" y2="940.39"/>
  <line class="st3" x1="730.5" y1="940.39" x2="729.24" y2="940.39"/>
  <line class="st3" x1="727.38" y1="940.39" x2="726.12" y2="940.39"/>
  <line class="st3" x1="706.37" y1="892.63" x2="677.92" y2="892.63"/>
  <path class="st3" d="M677.92,892.6c0,15.69,12.72,28.41,28.41,28.41"/>
  <line class="st3" x1="706.37" y1="921.08" x2="706.37" y2="892.63"/>
  <line class="st3" x1="661.66" y1="835.82" x2="661.66" y2="864.19"/>
  <path class="st3" d="M661.62,864.19c15.69,0,28.41-12.72,28.41-28.41"/>
  <line class="st3" x1="690.03" y1="835.82" x2="661.66" y2="835.82"/>
  <polyline class="st8" points="709.34 882.46 730.43 882.46 730.43 840.35 709.34 840.35 709.34 882.46"/>
  <polyline class="st3" points="730.43 870.21 709.34 870.21 709.34 882.46 730.43 882.46 730.43 870.21"/>
  <line class="st3" x1="727.98" y1="876.15" x2="722.33" y2="876.15"/>
  <line class="st3" x1="717.43" y1="876.15" x2="711.79" y2="876.15"/>
  <line class="st3" x1="714.61" y1="873.33" x2="714.61" y2="878.97"/>
  <line class="st3" x1="725.16" y1="873.33" x2="725.16" y2="878.97"/>
  <polyline class="st3" points="712.83 843.84 726.86 843.84 726.86 857.88 712.83 857.88 712.83 843.84"/>
  <polyline class="st3" points="730.43 861.44 730.43 840.35 709.34 840.35 709.34 861.44 730.43 861.44"/>
  <line class="st3" x1="728.79" y1="850.9" x2="723.22" y2="850.9"/>
  <polyline class="st8" points="636.71 961.55 636.63 984.35 639.31 984.35 639.31 961.55 636.71 961.55"/>
  <polyline class="st8" points="636.63 986.06 641.91 986.06 641.91 987.84 636.63 987.84 636.63 986.06"/>
  <polyline class="st8" points="636.56 1019.4 641.83 1019.4 641.83 1021.18 636.56 1021.18 636.56 1019.4"/>
  <polyline class="st8" points="636.63 987.84 636.56 1019.4 638.34 1019.4 638.42 987.84 636.63 987.84"/>
  <polyline class="st8" points="636.71 959.77 641.91 959.77 641.91 961.55 636.71 961.55 636.71 959.77"/>
  <polyline class="st8" points="636.63 984.35 641.91 984.35 641.91 986.06 636.63 986.06 636.63 984.35"/>
  <line class="st3" x1="635.52" y1="1021.18" x2="635.59" y2="959.77"/>
  <polyline class="st8" points="746.69 1138.15 746.69 1132.88 748.47 1132.88 748.47 1138.15 746.69 1138.15"/>
  <polyline class="st8" points="695.97 1138.15 746.69 1138.15 746.69 1136.37 695.97 1136.37 695.97 1138.15"/>
  <polyline class="st8" points="670.57 1138.15 694.26 1138.15 694.26 1135.47 670.57 1135.47 670.57 1138.15"/>
  <polyline class="st8" points="668.79 1138.15 668.79 1132.88 670.57 1132.88 670.57 1138.15 668.79 1138.15"/>
  <polyline class="st8" points="694.26 1138.15 694.26 1132.88 695.97 1132.88 695.97 1138.15 694.26 1138.15"/>
  <line class="st3" x1="748.47" y1="1139.19" x2="668.79" y2="1139.19"/>
  <path class="st9" d="M742.47,927.93c0,.96.78,1.75,1.75,1.75s1.75-.78,1.75-1.75c0-.96-.78-1.75-1.75-1.75s-1.75.78-1.75,1.75"/>
  <path class="st6" d="M740.37,879.81v10.2c0,3.93,2.82,7.1,6.31,7.1,3.49,0,6.31-3.18,6.31-7.1v-10.2s-12.61,0-12.61,0Z"/>
  <path class="st9" d="M728.25,935.93v-9.25c0-.21-.13-.37-.3-.37h-16.86c-.21,0-.37.17-.37.37v9.25"/>
  <path class="st5" d="M718.82,934.22c0-.35.28-.63.63-.63s.63.28.63.63c0,.35-.28.63-.63.63s-.63-.28-.63-.63"/>
  <path class="st5" d="M718.67,929.76c0-.43.35-.78.78-.78s.78.35.78.78c0,.43-.35.78-.78.78s-.78-.35-.78-.78"/>
  <path class="st5" d="M718.3,929.76c0-.64.52-1.15,1.15-1.15s1.15.52,1.15,1.15-.52,1.15-1.15,1.15-1.15-.52-1.15-1.15"/>
  <path class="st5" d="M711.46,926.68h16.04c.2,0,.37.17.37.37v5.42c0,.2-.17.37-.37.37h-16.04c-.2,0-.37-.17-.37-.37v-5.42c0-.2.17-.37.37-.37Z"/>
  <g>
    <polyline class="st3" points="730.14 907.64 730.14 907.62 730.17 907.62"/>
    <line class="st1" x1="730.6" y1="907.62" x2="757.97" y2="907.62"/>
    <polyline class="st3" points="758.18 907.62 758.21 907.62 758.21 907.64"/>
    <line class="st1" x1="758.21" y1="908.07" x2="758.21" y2="935.45"/>
    <polyline class="st3" points="758.21 935.66 758.21 935.69 758.18 935.69"/>
    <line class="st1" x1="757.76" y1="935.69" x2="730.38" y2="935.69"/>
    <polyline class="st3" points="730.17 935.69 730.14 935.69 730.14 935.66"/>
    <line class="st1" x1="730.14" y1="935.23" x2="730.14" y2="907.86"/>
  </g>
  <line class="st5" x1="744.18" y1="935.69" x2="744.18" y2="927.89"/>
  <line class="st5" x1="734.52" y1="864.77" x2="763.78" y2="839.15"/>
  <line class="st5" x1="763.78" y1="864.77" x2="734.52" y2="839.15"/>
  <polygon class="st10" points="658.39 834.04 658.39 830.55 638.27 830.55 638.27 838.72 635.82 838.72 635.74 866.79 638.19 866.79 638.12 929.91 635.67 929.91 635.59 959.77 658.32 959.77 658.39 838.85 658.62 839.31 659.88 839.31 659.88 834.04 658.39 834.04"/>
  <path class="st10" d="M644.28,1050.44v83.1h2.67-.05c-.26,1.14-.58,2.26-.95,3.35h.04s4.75,2.29,4.75,2.29h18.05v-23.47h-10.62l.07-94.54h-22.72v17.3l-.06-.03c3.84,3.21,6.84,7.3,8.76,11.92"/>
  <g>
    <g>
      <path class="st8" d="M753.38,1004.81c0-4.55-3.93-8.24-8.77-8.24-3.57,0-7.1,2.33-8.31,5.62-.17.45-.5,1.39-.46,2.63.15,3.87,4.01,8.24,8.77,8.24s8.77-3.69,8.77-8.24Z"/>
      <path class="st3" d="M737,1002.96c0-2.8,3.41-5.06,7.61-5.06"/>
      <path class="st3" d="M752.23,1002.96c0-2.8-3.41-5.06-7.61-5.06"/>
      <path class="st3" d="M752.23,1002.96c0,.55.44,1,.98,1"/>
      <path class="st3" d="M737,1002.96c0,.55-.44,1-.98,1"/>
      <g>
        <path class="st8" d="M731.79,1004.81c0-4.55-3.93-8.24-8.77-8.24-3.57,0-7.1,2.33-8.31,5.62-.17.45-.5,1.39-.46,2.63.15,3.87,4.01,8.24,8.77,8.24s8.77-3.69,8.77-8.24Z"/>
        <path class="st3" d="M715.4,1002.96c0-2.8,3.41-5.06,7.61-5.06"/>
        <path class="st3" d="M730.63,1002.96c0-2.8-3.41-5.06-7.61-5.06"/>
        <path class="st3" d="M730.63,1002.96c0,.55.44,1,.98,1"/>
        <path class="st3" d="M715.4,1002.96c0,.55-.47,1-1.06,1"/>
      </g>
    </g>
    <g>
      <path class="st8" d="M753.38,1031.97c0,4.55-3.93,8.24-8.77,8.24-3.57,0-7.1-2.33-8.31-5.62-.17-.45-.5-1.39-.46-2.63.15-3.87,4.01-8.24,8.77-8.24s8.77,3.69,8.77,8.24Z"/>
      <path class="st3" d="M737,1033.81c0,2.8,3.41,5.06,7.61,5.06"/>
      <path class="st3" d="M752.23,1033.81c0,2.8-3.41,5.06-7.61,5.06"/>
      <path class="st3" d="M752.23,1033.81c0-.55.44-1,.98-1"/>
      <path class="st3" d="M737,1033.81c0-.55-.44-1-.98-1"/>
      <g>
        <path class="st8" d="M731.79,1031.97c0,4.55-3.93,8.24-8.77,8.24-3.57,0-7.1-2.33-8.31-5.62-.17-.45-.5-1.39-.46-2.63.15-3.87,4.01-8.24,8.77-8.24s8.77,3.69,8.77,8.24Z"/>
        <path class="st3" d="M715.4,1033.81c0,2.8,3.41,5.06,7.61,5.06"/>
        <path class="st3" d="M730.63,1033.81c0,2.8-3.41,5.06-7.61,5.06"/>
        <path class="st3" d="M730.63,1033.81c0-.55.44-1,.98-1"/>
        <path class="st3" d="M715.4,1033.81c0-.55-.47-1-1.06-1"/>
      </g>
    </g>
    <rect class="st8" x="722.41" y="995.74" width="22.81" height="44.7" transform="translate(-284.27 1751.9) rotate(-90)"/>
  </g>
  <g>
    <rect class="st2" x="640.6" y="1063.4" width="70.16" height="31.57" transform="translate(1754.87 403.51) rotate(90)"/>
    <rect class="st2" x="666.91" y="1089.1" width="17.54" height="17.54" rx="1.42" ry="1.42" transform="translate(1351.36 2195.74) rotate(-180)"/>
    <polygon class="st2" points="659.49 1105.09 659.49 1043.93 691.47 1043.93 691.47 1089.27 659.49 1105.09"/>
  </g>
  <g>
    <path class="st2" d="M747.99,1107.9c-5.24-3.67-10.47-7.33-15.71-11-.27-.1-.59.02-.78.29-5.21,5.66-9.59,12.09-12.95,18.99-.06.11-.04.24.05.32l1.46,1.03,14.11,9.95,13.82-19.58"/>
    <path class="st2" d="M749.01,1108.86c-.45-.4-.93-.75-1.45-1.04-.1-.05-.24,0-.32.1-4.57,6.16-9.02,12.4-13.37,18.72-.09.17-.06.37.07.47.5.42,1.04.79,1.62,1.1"/>
    <path class="st2" d="M745.54,1107.36c.27-.38,1.39-.05,2.51.74.09.07.17.13.26.2l.7.56c.08.08.09.22,0,.33l-13.45,19.06-1.62-1.14c-.52-.38-1.04-.77-1.57-1.15-.18-.22-.18-.56.01-.83,3.38-6.6,7.85-12.63,13.16-17.77Z"/>
    <path class="st2" d="M746.64,1107.96c-.28-.07-.55-.15-.81-.25-.33-.06-.66-.15-.98-.25-.44-.14-.88-.27-1.32-.4-.61-.18-1.19-.41-1.75-.7-.34-.17-.68-.36-1.01-.56-.35-.21-.7-.42-1.04-.64-.82-.52-1.61-1.07-2.37-1.68-.77-.61-1.48-1.27-2.14-2.01-.5-.55-.93-1.14-1.32-1.79-.24-.41-.35-.83-.34-1.34,0-.04.01-.08.04-.12l.24-.34c.1-.07.19-.09.3-.07,5.04,3.56,10.09,7.12,15.13,10.68.09.06.1.2.03.3l-.07.11h0c-.08.1-.21.14-.3.08-.23-.12-.46-.24-.69-.36-.29-.18-.59-.33-.91-.46l-.67-.22Z"/>
    <path class="st2" d="M733.69,1126.31c-.16-.24-.33-.47-.51-.68-.17-.29-.36-.57-.56-.84-.27-.37-.55-.74-.82-1.11-.37-.51-.79-.98-1.24-1.41-.28-.26-.57-.52-.87-.76-.32-.26-.63-.51-.95-.77-.76-.6-1.55-1.16-2.37-1.68-.83-.52-1.7-.97-2.61-1.34-.69-.28-1.39-.5-2.13-.64-.47-.09-.9-.05-1.38.12-.04.02-.07.04-.1.08l-.24.34c-.03.12-.02.21.03.3,5.04,3.56,10.09,7.12,15.13,10.68.09.06.22.03.3-.07l.07-.11h0c.07-.11.06-.24-.02-.31-.19-.18-.38-.35-.57-.53-.27-.21-.51-.45-.74-.71l-.43-.56Z"/>
  </g>
  <circle class="st4" cx="746.13" cy="1094.3" r="6.97"/>
  <g>
    <polyline class="st9" points="758.54 1105.01 757.2 1105.01 757.2 1089.3 758.54 1089.3"/>
    <polyline class="st9" points="757.2 1088.41 757.2 1105.98 755.8 1105.98 755.8 1088.41 757.2 1088.41"/>
  </g>
  <polygon class="st10" points="763.92 1115.72 763.92 864.93 758.65 864.93 734.59 864.93 734.59 839.31 750.78 839.31 750.78 834.04 691.81 834.04 691.81 839.31 730.43 839.31 730.43 883.13 704.29 883.13 704.29 890.85 708.45 890.85 708.45 887.36 734.59 887.36 734.59 869.17 758.65 869.17 758.65 936.15 708.45 936.15 708.45 922.79 704.29 922.79 704.29 940.39 758.65 940.39 758.65 1115.72 748.47 1115.72 748.47 1139.19 774.1 1139.19 774.1 1115.72 763.92 1115.72"/>
</svg>