<?xml version="1.0" encoding="UTF-8"?>
<svg id="Lag_1" xmlns="http://www.w3.org/2000/svg" version="1.1" viewBox="0 0 1200 1697.14">
  <!-- Generator: Adobe Illustrator 29.6.0, SVG Export Plug-In . SVG Version: 2.1.1 Build 207)  -->
  <defs>
    <style>
      .st0 {
        fill: #000016;
      }

      .st1 {
        stroke-dasharray: .06 .43;
      }

      .st1, .st2, .st3, .st4, .st5, .st6, .st7, .st8, .st9, .st10, .st11 {
        stroke-width: .18px;
      }

      .st1, .st2, .st3, .st4, .st6, .st7, .st8, .st9, .st10, .st11 {
        stroke-linejoin: round;
      }

      .st1, .st2, .st3, .st6, .st7, .st8, .st9, .st11 {
        stroke-linecap: round;
      }

      .st1, .st3, .st4, .st5, .st7, .st8, .st9, .st10, .st11 {
        stroke: #000;
      }

      .st1, .st3, .st4, .st6, .st7, .st8, .st11 {
        fill: none;
      }

      .st2 {
        stroke: #060305;
      }

      .st2, .st5, .st9, .st10 {
        fill: #fff;
      }

      .st12 {
        fill: #e8e3e0;
      }

      .st5 {
        stroke-miterlimit: 10;
      }

      .st6 {
        stroke: #767676;
      }

      .st7 {
        stroke-dasharray: .06 .42;
      }

      .st13 {
        fill: #dbd7d5;
      }

      .st8 {
        stroke-dasharray: .06 .42;
      }

      .st11 {
        stroke-dasharray: .06 .43;
      }
    </style>
  </defs>
  <polygon class="st12" points="624.88 956.55 651.7 956.55 651.7 724.71 546.06 724.71 546.06 985.72 624.88 985.72 624.88 956.55"/>
  <rect class="st13" x="545.54" y="858.74" width="105.21" height="52.82" transform="translate(1196.29 1770.29) rotate(-180)"/>
  <polyline class="st10" points="561.86 722.93 561.86 728.22 560.07 728.22 560.07 722.93 561.86 722.93"/>
  <polyline class="st4" points="612.74 722.93 561.86 722.93 561.86 724.71 612.74 724.64 612.74 722.93"/>
  <polyline class="st10" points="638.22 722.85 614.45 722.93 614.45 725.53 638.22 725.53 638.22 722.85"/>
  <polyline class="st10" points="639.93 722.85 640 728.14 638.22 728.14 638.22 722.85 639.93 722.85"/>
  <polyline class="st10" points="614.45 722.93 614.45 728.22 612.74 728.22 612.74 722.93 614.45 722.93"/>
  <line class="st4" x1="560.07" y1="721.81" x2="639.93" y2="721.73"/>
  <path class="st10" d="M632.85,893.19c0-.97.78-1.75,1.75-1.75s1.75.78,1.75,1.75c0,.97-.78,1.75-1.75,1.75s-1.75-.78-1.75-1.75"/>
  <line class="st4" x1="596.57" y1="928.69" x2="568.04" y2="928.69"/>
  <path class="st4" d="M568.11,928.65c0-15.74,12.76-28.5,28.5-28.5"/>
  <line class="st4" x1="596.57" y1="900.23" x2="596.57" y2="928.69"/>
  <line class="st4" x1="551.65" y1="985.76" x2="551.65" y2="957.22"/>
  <path class="st4" d="M551.69,957.22c15.74,0,28.5,12.76,28.5,28.5"/>
  <line class="st4" x1="580.18" y1="985.76" x2="551.65" y2="985.76"/>
  <polyline class="st10" points="599.55 938.9 620.63 938.9 620.63 981.14 599.55 981.14 599.55 938.9"/>
  <polyline class="st4" points="620.63 951.26 599.55 951.26 599.55 938.9 620.63 938.9 620.63 951.26"/>
  <line class="st4" x1="618.18" y1="945.3" x2="612.59" y2="945.3"/>
  <line class="st4" x1="607.6" y1="945.3" x2="602.01" y2="945.3"/>
  <line class="st4" x1="604.84" y1="948.06" x2="604.84" y2="942.47"/>
  <line class="st4" x1="615.35" y1="948.06" x2="615.35" y2="942.47"/>
  <polyline class="st4" points="603.05 977.64 617.13 977.64 617.13 963.56 603.05 963.56 603.05 977.64"/>
  <polyline class="st4" points="620.63 960.05 620.63 981.14 599.55 981.14 599.55 960.05 620.63 960.05"/>
  <line class="st4" x1="619.07" y1="970.63" x2="613.41" y2="970.63"/>
  <path class="st5" d="M630.75,941.46v-10.23c0-3.94,2.83-7.13,6.33-7.13s6.33,3.19,6.33,7.13v10.23h-12.65Z"/>
  <polygon class="st10" points="649.14 941.46 624.9 941.46 624.83 952.31 649.14 952.34 649.14 941.46"/>
  <rect class="st10" x="631.5" y="859.72" width="17.58" height="21.16"/>
  <rect class="st10" x="612.95" y="859.72" width="17.66" height="21.16"/>
  <rect class="st10" x="594.46" y="859.72" width="17.67" height="21.16"/>
  <path class="st10" d="M618.59,885.16v9.28c0,.21-.13.37-.3.37h-16.91c-.21,0-.37-.17-.37-.37v-9.28"/>
  <path class="st4" d="M609.12,886.88c0,.35.28.63.63.63s.63-.28.63-.63-.28-.63-.63-.63-.63.28-.63.63"/>
  <path class="st4" d="M608.98,891.35c0,.43.35.78.78.78s.78-.35.78-.78-.35-.78-.78-.78-.78.35-.78.78"/>
  <path class="st4" d="M608.6,891.35c0,.64.52,1.15,1.15,1.15s1.15-.52,1.15-1.15-.52-1.15-1.15-1.15-1.15.52-1.15,1.15"/>
  <path class="st4" d="M601.75,888.26h16.1c.21,0,.37.17.37.37v5.44c0,.2-.17.37-.37.37h-16.1c-.21,0-.37-.17-.37-.37v-5.44c0-.2.17-.37.37-.37Z"/>
  <g>
    <polyline class="st3" points="620.49 913.54 620.49 913.57 620.51 913.57"/>
    <line class="st1" x1="620.94" y1="913.57" x2="648.4" y2="913.57"/>
    <polyline class="st3" points="648.62 913.57 648.65 913.57 648.65 913.54"/>
    <line class="st1" x1="648.65" y1="913.11" x2="648.65" y2="885.65"/>
    <polyline class="st3" points="648.65 885.43 648.65 885.41 648.62 885.41"/>
    <line class="st1" x1="648.19" y1="885.41" x2="620.73" y2="885.41"/>
    <polyline class="st3" points="620.51 885.41 620.49 885.41 620.49 885.43"/>
    <line class="st1" x1="620.49" y1="885.86" x2="620.49" y2="913.32"/>
  </g>
  <line class="st4" x1="634.57" y1="885.41" x2="634.57" y2="893.23"/>
  <g>
    <path class="st3" d="M614.56,722.32s0-.02,0-.03"/>
    <path class="st8" d="M614.59,721.87c.28-3.09,3.07-12.2,3.79-12.2l19.29,12.95.23.16"/>
    <line class="st3" x1="638.08" y1="722.91" x2="638.1" y2="722.93"/>
  </g>
  <line class="st4" x1="624.88" y1="956.55" x2="654.23" y2="982.25"/>
  <line class="st4" x1="654.23" y1="956.55" x2="624.88" y2="982.25"/>
  <g>
    <g>
      <path class="st9" d="M552.62,783.87c0,4.57,3.94,8.27,8.8,8.27,3.58,0,7.12-2.34,8.34-5.63.17-.45.51-1.4.46-2.64-.16-3.89-4.02-8.27-8.8-8.27s-8.8,3.7-8.8,8.27Z"/>
      <path class="st3" d="M569.05,785.72c0,2.81-3.42,5.08-7.64,5.08"/>
      <path class="st3" d="M553.78,785.72c0,2.81,3.42,5.08,7.64,5.08"/>
      <path class="st3" d="M553.78,785.72c0-.55-.44-1-.98-1"/>
      <path class="st3" d="M569.05,785.72c0-.55.44-1,.98-1"/>
      <g>
        <path class="st9" d="M574.29,783.87c0,4.57,3.94,8.27,8.8,8.27,3.58,0,7.12-2.34,8.34-5.63.17-.45.51-1.4.46-2.64-.16-3.89-4.02-8.27-8.8-8.27s-8.8,3.7-8.8,8.27Z"/>
        <path class="st3" d="M590.72,785.72c0,2.81-3.42,5.08-7.64,5.08"/>
        <path class="st3" d="M575.45,785.72c0,2.81,3.42,5.08,7.64,5.08"/>
        <path class="st3" d="M575.45,785.72c0-.55-.44-1-.98-1"/>
        <path class="st3" d="M590.72,785.72c0-.55.48-1,1.06-1"/>
      </g>
    </g>
    <g>
      <path class="st9" d="M552.62,756.62c0-4.57,3.94-8.27,8.8-8.27,3.58,0,7.12,2.34,8.34,5.63.17.45.51,1.4.46,2.64-.16,3.89-4.02,8.27-8.8,8.27s-8.8-3.7-8.8-8.27Z"/>
      <path class="st3" d="M569.05,754.77c0-2.81-3.42-5.08-7.64-5.08"/>
      <path class="st3" d="M553.78,754.77c0-2.81,3.42-5.08,7.64-5.08"/>
      <path class="st3" d="M553.78,754.77c0,.55-.44,1-.98,1"/>
      <path class="st3" d="M569.05,754.77c0,.55.44,1,.98,1"/>
      <g>
        <path class="st9" d="M574.29,756.62c0-4.57,3.94-8.27,8.8-8.27,3.58,0,7.12,2.34,8.34,5.63.17.45.51,1.4.46,2.64-.16,3.89-4.02,8.27-8.8,8.27s-8.8-3.7-8.8-8.27Z"/>
        <path class="st3" d="M590.72,754.77c0-2.81-3.42-5.08-7.64-5.08"/>
        <path class="st3" d="M575.45,754.77c0-2.81,3.42-5.08,7.64-5.08"/>
        <path class="st3" d="M575.45,754.77c0,.55-.44,1-.98,1"/>
        <path class="st3" d="M590.72,754.77c0,.55.48,1,1.06,1"/>
      </g>
    </g>
    <rect class="st9" x="560.81" y="748.12" width="22.88" height="44.84" transform="translate(1342.8 198.29) rotate(90)"/>
  </g>
  <circle class="st2" cx="613.41" cy="827.25" r="9.65"/>
  <g>
    <path class="st2" d="M627.32,837.29c-1.24-7.61-1.37-15.4-.37-23.06,0-.33.19-.61.47-.69,6.41-.02,12.83-.05,19.24-.07"/>
    <path class="st2" d="M627.32,837.29c.02.13.11.22.22.23h18.86l.26-24.07c-6.41-.02-12.83-.05-19.24-.07-.27-.07-.47-.36-.47-.69-.99-7.66-.87-15.45.37-23.06.02-.13.11-.22.22-.23h19.12v24.05"/>
    <path class="st2" d="M647.63,837.19c-.6.07-1.19.08-1.79.01-.12-.02-.2-.13-.2-.27-.18-7.69-.22-15.38-.13-23.08.02-.19.16-.34.33-.34.66-.06,1.31-.04,1.96.03"/>
    <path class="st2" d="M647.63,789.74c-.6-.07-1.19-.08-1.79-.01-.12.02-.2.13-.2.27-.18,7.69-.22,15.38-.13,23.08.02.19.16.34.33.34.66.06,1.31.04,1.96-.03"/>
    <path class="st2" d="M647.98,789.45h.21c.07,0,.12.06.12.14v47.74c0,.08-.06.14-.12.14h-.21l-.15-.06v-.36s.15-47.6.15-47.6Z"/>
    <path class="st2" d="M643.93,836.41c0,.47,1.11.85,2.48.85.11,0,.22,0,.33-.01l.9-.06c.12-.02.2-.13.2-.27v-23.41h-1.99c-.65.01-1.3.02-1.95.04-.27.07-.47.36-.47.69-1.05,7.36-.87,14.89.51,22.18Z"/>
    <path class="st2" d="M643.93,790.56c0-.47,1.11-.85,2.48-.85.11,0,.22,0,.33.01l.9.06c.12.02.2.13.2.27v23.41h-1.99c-.65-.01-1.3-.02-1.95-.04-.27-.07-.47-.36-.47-.69-1.05-7.36-.87-14.89.51-22.18Z"/>
    <path class="st2" d="M645.66,837.03c-.27-.11-.54-.19-.81-.26-.31-.14-.63-.26-.95-.37-.44-.14-.87-.29-1.31-.43-.6-.2-1.21-.35-1.83-.44-.38-.06-.77-.1-1.15-.12-.41-.03-.82-.06-1.23-.08-.97-.05-1.94-.05-2.92,0-.98.05-1.95.19-2.91.41-.73.16-1.43.4-2.12.7-.44.19-.77.47-1.06.9-.02.04-.04.07-.04.12v.42c.04.12.1.18.2.23h18.58c.11,0,.2-.1.2-.23v-.13h0c0-.13-.09-.23-.2-.24-.26-.04-.51-.07-.77-.11-.34-.02-.68-.07-1.01-.15l-.67-.21Z"/>
    <path class="st2" d="M645.66,789.9c-.27.11-.54.19-.81.26-.31.14-.63.26-.95.37-.44.14-.87.29-1.31.43-.6.2-1.21.35-1.83.44-.38.06-.77.1-1.15.12-.41.03-.82.06-1.23.08-.97.05-1.94.05-2.92,0-.98-.05-1.95-.19-2.91-.41-.73-.16-1.43-.4-2.12-.7-.44-.19-.77-.47-1.06-.9-.02-.04-.04-.07-.04-.12v-.42c.04-.12.1-.18.2-.23h18.58c.11,0,.2.1.2.23v.13h0c0,.13-.09.23-.2.24-.26.04-.51.07-.77.11-.34.02-.68.07-1.01.15l-.67.21Z"/>
  </g>
  <polygon class="st0" points="560 721.81 534.29 721.88 534.29 739.54 537.2 739.54 537.57 744.68 543.44 744.56 543.44 912.52 543.43 912.52 543.43 924.77 543.44 924.77 543.44 982.25 542.25 982.25 542.25 987.47 546.12 987.47 549.99 987.47 549.99 982.25 548.73 982.25 548.73 924.15 548.73 924.15 548.73 912.52 548.73 744.46 556.49 744.31 556.42 739.24 560 739.24 560 721.81"/>
  <g>
    <polyline class="st9" points="541.33 913.79 550.64 913.86 550.79 922.95 541.48 922.88 541.33 913.79"/>
    <line class="st6" x1="541.33" y1="915.58" x2="543.19" y2="913.79"/>
    <line class="st6" x1="541.41" y1="920.27" x2="547.89" y2="913.79"/>
    <line class="st6" x1="543.57" y1="922.88" x2="550.72" y2="915.73"/>
    <line class="st6" x1="548.26" y1="922.95" x2="550.72" y2="920.42"/>
    <line class="st6" x1="544.01" y1="922.88" x2="541.41" y2="920.35"/>
    <line class="st6" x1="548.78" y1="922.95" x2="541.33" y2="915.5"/>
    <line class="st6" x1="550.72" y1="920.12" x2="544.39" y2="913.79"/>
    <line class="st6" x1="550.64" y1="915.35" x2="549.15" y2="913.79"/>
  </g>
  <polyline class="st10" points="648.84 743.22 647.85 743.22 647.85 751.83 648.84 751.83"/>
  <polyline class="st10" points="647.85 752.8 647.85 742.25 646.43 742.25 646.43 752.8 647.85 752.8"/>
  <polygon class="st0" points="640 721.73 640 740.13 648.94 740.16 648.94 880.86 594.41 880.86 594.41 898.44 598.66 898.44 598.66 885.11 648.94 885.11 648.94 952.31 624.88 952.31 624.88 933.98 598.66 933.98 598.66 930.48 594.41 930.48 594.41 938.23 620.63 938.23 620.63 982.25 581.9 982.25 581.9 987.47 641.05 987.47 641.05 982.25 624.88 982.25 624.88 956.55 648.94 956.55 654.23 956.55 654.23 740.18 665.71 740.21 665.71 721.73 640 721.73"/>
  <g>
    <polyline class="st3" points="651.7 858.93 651.7 858.9 651.67 858.9"/>
    <line class="st7" x1="651.25" y1="858.9" x2="548.51" y2="858.9"/>
    <polyline class="st3" points="548.29 858.9 548.27 858.9 548.27 858.93"/>
    <line class="st11" x1="548.27" y1="859.35" x2="548.27" y2="911.31"/>
    <polyline class="st3" points="548.27 911.53 548.27 911.56 548.29 911.56"/>
    <line class="st7" x1="548.72" y1="911.56" x2="651.46" y2="911.56"/>
    <polyline class="st3" points="651.67 911.56 651.7 911.56 651.7 911.53"/>
    <line class="st11" x1="651.7" y1="911.1" x2="651.7" y2="859.14"/>
  </g>
</svg>