<?xml version="1.0" encoding="UTF-8"?>
<svg id="Lag_1" xmlns="http://www.w3.org/2000/svg" version="1.1" viewBox="0 0 1200 1697.14">
  <!-- Generator: Adobe Illustrator 29.6.0, SVG Export Plug-In . SVG Version: 2.1.1 Build 207)  -->
  <defs>
    <style>
      .st0 {
        stroke-dasharray: .06 .42;
      }

      .st0, .st1, .st2, .st3, .st4, .st5, .st6, .st7, .st8, .st9, .st10, .st11, .st12 {
        stroke-width: .18px;
      }

      .st0, .st1, .st2, .st3, .st4, .st5, .st6, .st8, .st9, .st10, .st11, .st12 {
        stroke-linejoin: round;
      }

      .st0, .st1, .st2, .st3, .st4, .st5, .st8, .st9, .st11 {
        stroke-linecap: round;
      }

      .st0, .st1, .st2, .st4, .st5, .st6, .st7, .st9, .st11, .st12 {
        stroke: #000;
      }

      .st0, .st1, .st2, .st4, .st5, .st6, .st8, .st9 {
        fill: none;
      }

      .st13 {
        fill: #000016;
      }

      .st1 {
        stroke-dasharray: .06 .42;
      }

      .st2 {
        stroke-dasharray: .06 .43;
      }

      .st3, .st7, .st10, .st11, .st12 {
        fill: #fff;
      }

      .st3, .st10 {
        stroke: #060305;
      }

      .st14 {
        fill: #e8e3e0;
      }

      .st4 {
        stroke-dasharray: .06 .43;
      }

      .st7 {
        stroke-miterlimit: 10;
      }

      .st8 {
        stroke: #767676;
      }

      .st15 {
        fill: #dbd7d5;
      }

      .st9 {
        stroke-dasharray: .06 .42;
      }
    </style>
  </defs>
  <polygon class="st14" points="625.81 740.59 652.63 740.59 652.63 972.43 546.99 972.43 546.99 711.42 625.81 711.42 625.81 740.59"/>
  <rect class="st15" x="546.47" y="785.59" width="105.21" height="52.82" transform="translate(1198.14 1623.99) rotate(180)"/>
  <polyline class="st12" points="639.14 974.22 639.14 968.93 640.93 968.93 640.93 974.22 639.14 974.22"/>
  <polyline class="st12" points="588.26 974.22 639.14 974.22 639.14 972.43 588.26 972.5 588.26 974.22"/>
  <polyline class="st12" points="562.78 974.29 586.55 974.22 586.55 971.61 562.78 971.61 562.78 974.29"/>
  <polyline class="st12" points="561.07 974.29 561 969 562.78 969 562.78 974.29 561.07 974.29"/>
  <polyline class="st12" points="586.55 974.22 586.55 968.93 588.26 968.93 588.26 974.22 586.55 974.22"/>
  <line class="st6" x1="640.93" y1="975.33" x2="561.07" y2="975.41"/>
  <line class="st6" x1="649.57" y1="807.79" x2="649.57" y2="806.52"/>
  <path class="st12" d="M633.78,803.95c0,.97.78,1.75,1.75,1.75s1.75-.78,1.75-1.75c0-.97-.78-1.75-1.75-1.75s-1.75.78-1.75,1.75"/>
  <line class="st6" x1="597.5" y1="768.45" x2="568.97" y2="768.45"/>
  <path class="st6" d="M569.04,768.49c0,15.74,12.76,28.5,28.5,28.5"/>
  <line class="st6" x1="597.5" y1="796.91" x2="597.5" y2="768.45"/>
  <line class="st6" x1="552.58" y1="711.39" x2="552.58" y2="739.92"/>
  <path class="st6" d="M552.61,739.92c15.74,0,28.5-12.76,28.5-28.5"/>
  <line class="st6" x1="581.11" y1="711.39" x2="552.58" y2="711.39"/>
  <polyline class="st12" points="600.48 758.25 621.56 758.25 621.56 716.01 600.48 716.01 600.48 758.25"/>
  <polyline class="st6" points="621.56 745.88 600.48 745.88 600.48 758.25 621.56 758.25 621.56 745.88"/>
  <line class="st6" x1="619.1" y1="751.84" x2="613.52" y2="751.84"/>
  <line class="st6" x1="608.53" y1="751.84" x2="602.94" y2="751.84"/>
  <line class="st6" x1="605.77" y1="749.08" x2="605.77" y2="754.67"/>
  <line class="st6" x1="616.27" y1="749.08" x2="616.27" y2="754.67"/>
  <polyline class="st6" points="603.98 719.51 618.06 719.51 618.06 733.59 603.98 733.59 603.98 719.51"/>
  <polyline class="st6" points="621.56 737.09 621.56 716.01 600.48 716.01 600.48 737.09 621.56 737.09"/>
  <line class="st6" x1="620" y1="726.51" x2="614.34" y2="726.51"/>
  <path class="st7" d="M631.67,755.68v10.23c0,3.94,2.83,7.13,6.33,7.13,3.5,0,6.33-3.19,6.33-7.13v-10.23h-12.65Z"/>
  <polygon class="st12" points="650.07 755.68 625.83 755.68 625.76 744.84 650.07 744.81 650.07 755.68"/>
  <rect class="st12" x="632.43" y="816.26" width="17.58" height="21.16"/>
  <rect class="st12" x="613.88" y="816.26" width="17.66" height="21.16"/>
  <rect class="st12" x="595.39" y="816.26" width="17.67" height="21.16"/>
  <path class="st12" d="M619.51,811.98v-9.28c0-.21-.13-.37-.3-.37h-16.91c-.21,0-.37.17-.37.37v9.28"/>
  <path class="st6" d="M610.05,810.26c0-.35.28-.63.63-.63s.63.28.63.63-.28.63-.63.63-.63-.28-.63-.63"/>
  <path class="st6" d="M609.9,805.79c0-.43.35-.78.78-.78s.78.35.78.78-.35.78-.78.78-.78-.35-.78-.78"/>
  <path class="st6" d="M609.53,805.79c0-.64.52-1.15,1.15-1.15s1.15.52,1.15,1.15-.52,1.15-1.15,1.15-1.15-.52-1.15-1.15"/>
  <path class="st6" d="M602.68,802.7h16.1c.2,0,.37.17.37.37v5.44c0,.2-.17.37-.37.37h-16.1c-.21,0-.37-.17-.37-.37v-5.44c0-.21.17-.37.37-.37Z"/>
  <g>
    <polyline class="st5" points="621.41 783.6 621.41 783.58 621.44 783.58"/>
    <line class="st1" x1="621.87" y1="783.58" x2="649" y2="783.58"/>
    <polyline class="st5" points="649.21 783.58 649.24 783.58 649.24 783.6"/>
    <line class="st2" x1="649.24" y1="784.03" x2="649.24" y2="811.49"/>
    <polyline class="st5" points="649.24 811.71 649.24 811.74 649.21 811.74"/>
    <line class="st1" x1="648.79" y1="811.74" x2="621.65" y2="811.74"/>
    <polyline class="st5" points="621.44 811.74 621.41 811.74 621.41 811.71"/>
    <line class="st2" x1="621.41" y1="811.28" x2="621.41" y2="783.82"/>
  </g>
  <line class="st6" x1="635.49" y1="811.74" x2="635.49" y2="803.91"/>
  <g>
    <path class="st5" d="M586.44,974.83s0,.02,0,.03"/>
    <path class="st9" d="M586.41,975.27c-.28,3.09-3.07,12.2-3.79,12.2l-19.29-12.95-.23-.16"/>
    <line class="st5" x1="562.92" y1="974.23" x2="562.9" y2="974.22"/>
  </g>
  <line class="st6" x1="625.81" y1="740.59" x2="655.16" y2="714.89"/>
  <line class="st6" x1="655.16" y1="740.59" x2="625.81" y2="714.89"/>
  <polygon class="st13" points="560.1 956.78 559.51 951.05 549.6 951.12 549.6 785.59 549.6 784.62 549.6 773 549.6 770.68 549.6 714.89 550.86 714.89 550.86 709.67 546.99 709.67 543.12 709.67 543.12 714.89 544.31 714.89 544.31 770.68 544.31 772.92 544.31 784.54 544.31 785.59 544.31 951.16 538.35 951.2 538.42 957.08 535.29 957.08 535.29 975.41 561 975.41 561 956.78 560.1 956.78"/>
  <g>
    <polyline class="st11" points="542.37 774 551.53 774 551.53 783.17 542.37 783.09 542.37 774"/>
    <line class="st8" x1="542.37" y1="778.1" x2="546.47" y2="774"/>
    <line class="st8" x1="542.37" y1="782.79" x2="551.16" y2="774"/>
    <line class="st8" x1="546.77" y1="783.17" x2="551.53" y2="778.4"/>
    <line class="st8" x1="546.69" y1="783.17" x2="542.37" y2="778.85"/>
    <line class="st8" x1="551.46" y1="783.17" x2="542.37" y2="774.08"/>
    <line class="st8" x1="551.53" y1="778.47" x2="547.06" y2="774"/>
  </g>
  <g>
    <g>
      <path class="st11" d="M605.96,886.64c0-4.59,3.96-8.32,8.85-8.32,3.6,0,7.16,2.35,8.39,5.67.17.45.51,1.4.46,2.65-.16,3.91-4.05,8.32-8.85,8.32s-8.85-3.72-8.85-8.32Z"/>
      <path class="st5" d="M622.5,884.77c0-2.82-3.44-5.11-7.68-5.11"/>
      <path class="st5" d="M607.13,884.77c0-2.82,3.44-5.11,7.68-5.11"/>
      <path class="st5" d="M607.13,884.77c0,.56-.44,1.01-.99,1.01"/>
      <path class="st5" d="M622.5,884.77c0,.56.44,1.01.99,1.01"/>
      <g>
        <path class="st11" d="M627.76,886.64c0-4.59,3.96-8.32,8.85-8.32,3.6,0,7.16,2.35,8.39,5.67.17.45.51,1.4.46,2.65-.16,3.91-4.05,8.32-8.85,8.32-4.89,0-8.85-3.72-8.85-8.32Z"/>
        <path class="st5" d="M644.29,884.77c0-2.82-3.44-5.11-7.68-5.11"/>
        <path class="st5" d="M628.93,884.77c0-2.82,3.44-5.11,7.68-5.11"/>
        <path class="st5" d="M628.93,884.77c0,.56-.44,1.01-.99,1.01"/>
        <path class="st5" d="M644.29,884.77c0,.56.48,1.01,1.07,1.01"/>
      </g>
    </g>
    <g>
      <path class="st11" d="M605.96,914.04c0,4.59,3.96,8.32,8.85,8.32,3.6,0,7.16-2.35,8.39-5.67.17-.45.51-1.4.46-2.65-.16-3.91-4.05-8.32-8.85-8.32s-8.85,3.72-8.85,8.32Z"/>
      <path class="st5" d="M622.5,915.91c0,2.82-3.44,5.11-7.68,5.11"/>
      <path class="st5" d="M607.13,915.91c0,2.82,3.44,5.11,7.68,5.11"/>
      <path class="st5" d="M607.13,915.91c0-.56-.44-1.01-.99-1.01"/>
      <path class="st5" d="M622.5,915.91c0-.56.44-1.01.99-1.01"/>
      <g>
        <path class="st11" d="M627.76,914.04c0,4.59,3.96,8.32,8.85,8.32,3.6,0,7.16-2.35,8.39-5.67.17-.45.51-1.4.46-2.65-.16-3.91-4.05-8.32-8.85-8.32-4.89,0-8.85,3.72-8.85,8.32Z"/>
        <path class="st5" d="M644.29,915.91c0,2.82-3.44,5.11-7.68,5.11"/>
        <path class="st5" d="M628.93,915.91c0,2.82,3.44,5.11,7.68,5.11"/>
        <path class="st5" d="M628.93,915.91c0-.56-.44-1.01-.99-1.01"/>
        <path class="st5" d="M644.29,915.91c0-.56.48-1.01,1.07-1.01"/>
      </g>
    </g>
    <rect class="st11" x="614.21" y="877.49" width="23.01" height="45.1" transform="translate(-274.33 1525.75) rotate(-90)"/>
  </g>
  <g>
    <path class="st3" d="M572.3,948.5c1.25-7.65,1.37-15.49.38-23.19,0-.33-.2-.62-.47-.69-6.45-.02-12.9-.05-19.36-.07"/>
    <path class="st3" d="M572.3,948.5c-.02.13-.11.22-.22.23h-1.81s-17.16,0-17.16,0l-.26-24.21c6.45-.02,12.9-.05,19.36-.07.28-.07.47-.36.47-.69,1-7.7.87-15.54-.38-23.19-.02-.13-.11-.22-.22-.23h-1.81s-17.42,0-17.42,0v24.19"/>
    <path class="st3" d="M551.87,948.4c.6.07,1.2.08,1.8.01.12-.02.2-.13.2-.27.18-7.74.22-15.47.13-23.21-.02-.19-.17-.34-.33-.35-.66-.06-1.31-.05-1.97.03"/>
    <path class="st3" d="M551.87,900.68c.6-.07,1.2-.08,1.8-.01.12.02.2.13.2.27.18,7.74.22,15.47.13,23.21-.02.19-.17.34-.33.35-.66.06-1.31.05-1.97-.03"/>
    <path class="st3" d="M551.52,900.38h-.21c-.07,0-.13.07-.13.15,0,16.01,0,32.01,0,48.02,0,.08.06.15.13.15h.21s.15-.06.15-.06v-.36s-.15-47.88-.15-47.88Z"/>
    <path class="st3" d="M555.59,947.62c0,.47-1.12.85-2.49.85-.11,0-.22,0-.33-.01l-.9-.06c-.12-.02-.2-.13-.2-.27v-23.55h2c.65.01,1.31.02,1.96.04.28.07.47.36.47.69,1.05,7.41.88,14.98-.51,22.31Z"/>
    <path class="st3" d="M555.59,901.49c0-.47-1.12-.85-2.49-.85-.11,0-.22,0-.33.01l-.9.06c-.12.02-.2.13-.2.27v23.55h2c.65-.01,1.31-.02,1.96-.04.28-.07.47-.36.47-.69,1.05-7.41.88-14.98-.51-22.31Z"/>
    <path class="st3" d="M553.85,948.24c.27-.11.54-.2.82-.27.31-.14.63-.26.95-.37.44-.14.88-.29,1.32-.44.61-.21,1.22-.35,1.85-.44.38-.06.77-.1,1.16-.13.41-.03.82-.06,1.23-.08.98-.05,1.95-.05,2.93,0,.99.05,1.96.19,2.93.41.73.16,1.44.4,2.13.71.44.19.77.48,1.06.9.02.04.04.07.04.12v.42c-.04.12-.1.18-.2.23-6.23,0-12.46,0-18.69,0-.11,0-.2-.1-.2-.23v-.13h0c0-.13.09-.23.2-.24.26-.04.52-.07.77-.11.34-.02.68-.07,1.02-.16l.68-.21Z"/>
    <path class="st3" d="M553.85,900.84c.27.11.54.2.82.27.31.14.63.26.95.37.44.14.88.29,1.32.44.61.21,1.22.35,1.85.44.38.06.77.1,1.16.13.41.03.82.06,1.23.08.98.05,1.95.05,2.93,0,.99-.05,1.96-.19,2.93-.41.73-.16,1.44-.4,2.13-.71.44-.19.77-.48,1.06-.9.02-.04.04-.07.04-.12v-.42c-.04-.12-.1-.18-.2-.23-6.23,0-12.46,0-18.69,0-.11,0-.2.1-.2.23v.13h0c0,.13.09.23.2.24.26.04.52.07.77.11.34.02.68.07,1.02.16l.68.21Z"/>
  </g>
  <circle class="st10" cx="581.14" cy="956.54" r="7.95"/>
  <g>
    <polyline class="st12" points="649.69 945.07 648.36 945.07 648.36 929.36 649.69 929.36"/>
    <polyline class="st12" points="648.36 928.47 648.36 946.03 646.95 946.03 646.95 928.47 648.36 928.47"/>
  </g>
  <polygon class="st13" points="640.68 956.94 640.68 975.33 664.71 975.33 664.71 956.87 654.84 956.9 654.84 740.58 649.58 740.58 625.62 740.58 625.62 714.89 641.71 714.89 641.71 709.67 582.82 709.67 582.82 714.89 621.39 714.89 621.39 758.9 595.28 758.9 595.28 766.65 599.51 766.65 599.51 763.15 625.62 763.15 625.62 744.83 649.58 744.83 649.58 812.01 599.51 812.01 599.51 798.67 595.28 798.67 595.28 816.25 649.58 816.25 649.58 956.91 640.68 956.94"/>
  <g>
    <polyline class="st5" points="652.89 785.62 652.89 785.59 652.87 785.59"/>
    <line class="st4" x1="652.44" y1="785.59" x2="549.39" y2="785.59"/>
    <polyline class="st5" points="549.18 785.59 549.15 785.59 549.15 785.62"/>
    <line class="st0" x1="549.15" y1="786.04" x2="549.15" y2="838.17"/>
    <polyline class="st5" points="549.15 838.38 549.15 838.41 549.18 838.41"/>
    <line class="st4" x1="549.6" y1="838.41" x2="652.65" y2="838.41"/>
    <polyline class="st5" points="652.87 838.41 652.89 838.41 652.89 838.38"/>
    <line class="st0" x1="652.89" y1="837.95" x2="652.89" y2="785.83"/>
  </g>
</svg>