<?xml version="1.0" encoding="UTF-8"?>
<svg id="Lag_1" xmlns="http://www.w3.org/2000/svg" version="1.1" viewBox="0 0 1200 1697.14">
  <!-- Generator: Adobe Illustrator 29.6.0, SVG Export Plug-In . SVG Version: 2.1.1 Build 207)  -->
  <defs>
    <style>
      .st0 {
        stroke-dasharray: .06 .43;
      }

      .st0, .st1, .st2, .st3, .st4, .st5, .st6, .st7, .st8, .st9 {
        stroke-width: .18px;
      }

      .st0, .st1, .st2, .st3, .st4, .st6, .st8, .st9 {
        stroke-linecap: round;
      }

      .st0, .st1, .st2, .st4, .st6, .st7, .st8, .st9 {
        stroke-linejoin: round;
      }

      .st0, .st2, .st3, .st4, .st6, .st8 {
        fill: none;
      }

      .st0, .st2, .st4, .st5, .st8, .st9 {
        stroke: #000;
      }

      .st10 {
        fill: #000016;
      }

      .st1, .st5, .st7, .st9 {
        fill: #fff;
      }

      .st1, .st7 {
        stroke: #060305;
      }

      .st11 {
        fill: #e8e3e0;
      }

      .st3 {
        stroke: #979899;
      }

      .st3, .st5 {
        stroke-miterlimit: 10;
      }

      .st12 {
        fill: #979899;
      }

      .st4 {
        stroke-dasharray: .06 .42;
      }

      .st6 {
        stroke: #767676;
      }

      .st13 {
        fill: #dbd7d5;
      }

      .st8 {
        stroke-dasharray: .06 .43;
      }
    </style>
  </defs>
  <polygon class="st11" points="546.53 696.24 546.53 1014.03 625.99 1014.03 625.99 953.37 652.19 953.37 652.19 696.24 546.53 696.24"/>
  <rect class="st13" x="550.03" y="877.93" width="100.7" height="57.17"/>
  <rect class="st9" x="632.57" y="856.88" width="17.52" height="21.09"/>
  <rect class="st9" x="614.08" y="856.88" width="17.6" height="21.09"/>
  <rect class="st9" x="595.65" y="856.88" width="17.61" height="21.09"/>
  <polyline class="st9" points="561.91 694.54 561.91 699.81 560.2 699.81 560.2 694.54 561.91 694.54"/>
  <path class="st9" d="M633.86,890.22c0,.96.78,1.74,1.74,1.74s1.74-.78,1.74-1.74-.78-1.74-1.74-1.74-1.74.78-1.74,1.74"/>
  <polygon class="st12" points="639.8 693.5 665.41 693.5 639.8 703.15 639.8 693.5"/>
  <polygon class="st3" points="639.8 693.5 665.41 693.5 639.8 703.15 639.8 693.5"/>
  <path class="st12" d="M639.8,715.55l25.62-9.73v9.73h-25.62ZM639.8,703.15v12.4l25.62-9.73-25.62-2.67Z"/>
  <path class="st3" d="M639.8,715.55l25.62-9.73v9.73h-25.62ZM639.8,703.15v12.4l25.62-9.73-25.62-2.67Z"/>
  <polygon class="st12" points="639.8 703.15 665.41 693.5 665.41 705.82 639.8 703.15"/>
  <polygon class="st3" points="639.8 703.15 665.41 693.5 665.41 705.82 639.8 703.15"/>
  <polygon class="st12" points="534.59 693.5 560.2 693.5 534.59 703.15 534.59 693.5"/>
  <polygon class="st3" points="534.59 693.5 560.2 693.5 534.59 703.15 534.59 693.5"/>
  <path class="st12" d="M534.59,715.4l25.62-9.73v9.8l-25.62-.07ZM534.59,703.15v12.25l25.62-9.73-25.62-2.52Z"/>
  <path class="st3" d="M534.59,715.4l25.62-9.73v9.8l-25.62-.07ZM534.59,703.15v12.25l25.62-9.73-25.62-2.52Z"/>
  <polygon class="st12" points="534.59 703.15 560.2 693.5 560.2 705.67 534.59 703.15"/>
  <polygon class="st3" points="534.59 703.15 560.2 693.5 560.2 705.67 534.59 703.15"/>
  <polyline class="st2" points="612.7 694.54 561.91 694.54 561.91 696.24 612.7 696.24 612.7 694.54"/>
  <polyline class="st9" points="638.09 694.54 614.4 694.54 614.4 697.13 638.09 697.13 638.09 694.54"/>
  <polyline class="st9" points="639.8 694.54 639.8 699.81 638.09 699.81 638.09 694.54 639.8 694.54"/>
  <polyline class="st9" points="614.4 694.54 614.4 699.81 612.7 699.81 612.7 694.54 614.4 694.54"/>
  <line class="st2" x1="560.2" y1="693.5" x2="639.8" y2="693.5"/>
  <line class="st2" x1="655.24" y1="860.48" x2="655.24" y2="861.75"/>
  <line class="st2" x1="655.24" y1="863.6" x2="655.24" y2="864.87"/>
  <line class="st2" x1="655.24" y1="866.8" x2="655.24" y2="868.06"/>
  <line class="st2" x1="655.24" y1="869.91" x2="655.24" y2="871.18"/>
  <line class="st2" x1="655.24" y1="873.11" x2="655.24" y2="874.37"/>
  <line class="st2" x1="655.24" y1="860.48" x2="655.24" y2="861.75"/>
  <line class="st2" x1="655.24" y1="863.6" x2="655.24" y2="864.87"/>
  <line class="st2" x1="655.24" y1="866.8" x2="655.24" y2="868.06"/>
  <line class="st2" x1="655.24" y1="869.91" x2="655.24" y2="871.18"/>
  <line class="st2" x1="655.24" y1="873.11" x2="655.24" y2="874.37"/>
  <line class="st2" x1="609.73" y1="877.93" x2="608.46" y2="877.93"/>
  <line class="st2" x1="606.61" y1="877.93" x2="605.35" y2="877.93"/>
  <line class="st2" x1="603.42" y1="877.93" x2="602.15" y2="877.93"/>
  <line class="st2" x1="600.3" y1="877.93" x2="599.03" y2="877.93"/>
  <line class="st2" x1="649.97" y1="860.48" x2="649.97" y2="861.75"/>
  <line class="st2" x1="649.97" y1="863.6" x2="649.97" y2="864.87"/>
  <line class="st2" x1="649.97" y1="866.8" x2="649.97" y2="868.06"/>
  <line class="st2" x1="649.97" y1="869.91" x2="649.97" y2="871.18"/>
  <line class="st2" x1="649.97" y1="873.11" x2="649.97" y2="874.37"/>
  <polyline class="st2" points="649.97 876.23 649.97 877.93 648.49 877.93"/>
  <line class="st2" x1="646.63" y1="877.93" x2="645.29" y2="877.93"/>
  <line class="st2" x1="643.44" y1="877.93" x2="642.17" y2="877.93"/>
  <line class="st2" x1="640.24" y1="877.93" x2="638.98" y2="877.93"/>
  <line class="st2" x1="637.13" y1="877.93" x2="635.86" y2="877.93"/>
  <line class="st2" x1="628.14" y1="877.93" x2="626.88" y2="877.93"/>
  <line class="st2" x1="625.02" y1="877.93" x2="623.76" y2="877.93"/>
  <line class="st2" x1="621.83" y1="877.93" x2="620.57" y2="877.93"/>
  <line class="st2" x1="618.71" y1="877.93" x2="617.45" y2="877.93"/>
  <line class="st2" x1="635.64" y1="882.46" x2="635.64" y2="890.26"/>
  <line class="st2" x1="597.7" y1="925.68" x2="569.33" y2="925.68"/>
  <path class="st2" d="M597.66,897.24c-15.69,0-28.4,12.72-28.4,28.4"/>
  <line class="st2" x1="597.7" y1="897.24" x2="597.7" y2="925.68"/>
  <line class="st2" x1="553" y1="1014.03" x2="553" y2="985.6"/>
  <path class="st2" d="M581.36,1014c0-15.69-12.72-28.4-28.4-28.4"/>
  <line class="st2" x1="581.44" y1="1014.03" x2="553" y2="1014.03"/>
  <polyline class="st9" points="600.74 935.85 621.76 935.85 621.76 1009.5 600.74 1009.5 600.74 935.85"/>
  <polyline class="st9" points="621.76 948.1 600.74 948.1 600.74 935.85 621.76 935.85 621.76 948.1"/>
  <line class="st2" x1="619.31" y1="942.16" x2="613.66" y2="942.16"/>
  <line class="st2" x1="608.76" y1="942.16" x2="603.19" y2="942.16"/>
  <line class="st2" x1="605.94" y1="944.91" x2="605.94" y2="939.34"/>
  <line class="st2" x1="616.48" y1="944.91" x2="616.48" y2="939.34"/>
  <polyline class="st9" points="604.23 1005.94 618.27 1005.94 618.27 991.91 604.23 991.91 604.23 1005.94"/>
  <polyline class="st2" points="621.76 988.42 621.76 1009.5 600.74 1009.5 600.74 988.42 621.76 988.42"/>
  <line class="st2" x1="620.2" y1="998.96" x2="614.55" y2="998.96"/>
  <polygon class="st10" points="560.2 715.47 560.2 693.5 534.59 693.5 534.59 715.4 544.76 715.43 544.76 1010.54 543.5 1010.54 543.5 1015.82 547.36 1015.82 551.22 1015.82 551.22 1010.54 550.03 1010.54 550.03 715.44 560.2 715.47"/>
  <polygon class="st10" points="639.8 693.5 639.8 715.55 649.97 715.55 649.97 802.05 655.24 802.05 655.24 715.55 665.41 715.55 665.41 693.5 639.8 693.5"/>
  <polyline class="st9" points="550.24 720.75 551.65 720.75 551.65 736.49 550.24 736.49"/>
  <polyline class="st9" points="551.44 737.38 551.44 719.85 552.85 719.85 552.85 737.38 551.44 737.38"/>
  <path class="st9" d="M619.64,882.34v9.25c0,.21-.13.37-.3.37h-16.85c-.21,0-.37-.17-.37-.37v-9.25"/>
  <path class="st2" d="M610.21,884.05c0,.35.28.63.63.63s.63-.28.63-.63-.28-.63-.63-.63-.63.28-.63.63"/>
  <path class="st2" d="M610.06,888.51c0,.43.35.78.78.78s.78-.35.78-.78-.35-.78-.78-.78-.78.35-.78.78"/>
  <path class="st2" d="M609.69,888.51c0,.64.52,1.15,1.15,1.15s1.15-.52,1.15-1.15-.52-1.15-1.15-1.15-1.15.52-1.15,1.15"/>
  <path class="st2" d="M602.86,885.43h16.01c.2,0,.37.17.37.37v5.42c0,.2-.17.37-.37.37h-16.01c-.2,0-.37-.17-.37-.37v-5.42c0-.2.17-.37.37-.37Z"/>
  <line class="st2" x1="599.79" y1="932" x2="601.87" y2="932"/>
  <g>
    <path class="st1" d="M627.4,765.65c-1.24-7.58-1.36-15.35-.37-22.98,0-.33.19-.61.47-.68,6.39-.02,12.79-.05,19.18-.07"/>
    <path class="st1" d="M627.4,765.65c.02.13.11.22.22.23h18.8l.26-23.99c-6.39-.02-12.79-.05-19.18-.07-.27-.07-.47-.36-.47-.68-.99-7.63-.86-15.4.37-22.98.02-.13.11-.22.22-.23h19.05v23.97"/>
    <path class="st1" d="M647.65,765.55c-.6.07-1.19.08-1.78.01-.12-.02-.2-.13-.2-.27-.18-7.67-.22-15.33-.13-23,.02-.19.16-.34.33-.34.66-.06,1.3-.04,1.96.03"/>
    <path class="st1" d="M647.65,718.26c-.6-.07-1.19-.08-1.78-.01-.12.02-.2.13-.2.27-.18,7.67-.22,15.33-.13,23,.02.19.16.34.33.34.66.06,1.3.04,1.96-.03"/>
    <path class="st1" d="M647.99,717.97h.21c.07,0,.12.06.12.14v47.58c0,.08-.06.14-.12.14h-.21l-.14-.06v-.36s.14-47.45.14-47.45Z"/>
    <path class="st1" d="M643.96,764.77c0,.47,1.11.84,2.47.84.11,0,.22,0,.33-.01l.89-.06c.12-.02.2-.13.2-.27v-23.33h-1.99c-.65.01-1.3.02-1.94.04-.27.07-.47.36-.47.68-1.04,7.34-.87,14.84.5,22.1Z"/>
    <path class="st1" d="M643.96,719.07c0-.47,1.11-.84,2.47-.84.11,0,.22,0,.33.01l.89.06c.12.02.2.13.2.27v23.33h-1.99c-.65-.01-1.3-.02-1.94-.04-.27-.07-.47-.36-.47-.68-1.04-7.34-.87-14.84.5-22.1Z"/>
    <path class="st1" d="M645.68,765.39c-.27-.11-.53-.19-.81-.26-.31-.14-.62-.26-.94-.37-.44-.14-.87-.29-1.31-.43-.6-.2-1.21-.35-1.83-.44-.38-.05-.76-.1-1.15-.12-.41-.03-.81-.06-1.22-.08-.97-.05-1.94-.05-2.91,0-.98.05-1.94.19-2.9.41-.72.16-1.42.4-2.11.7-.44.19-.76.47-1.05.9-.02.04-.04.07-.04.12v.42c.04.12.1.18.2.23h18.52c.11,0,.2-.1.2-.23v-.13h0c0-.13-.09-.23-.2-.24-.26-.04-.51-.07-.77-.11-.34-.02-.68-.07-1.01-.15l-.67-.21Z"/>
    <path class="st1" d="M645.68,718.42c-.27.11-.53.19-.81.26-.31.14-.62.26-.94.37-.44.14-.87.29-1.31.43-.6.2-1.21.35-1.83.44-.38.05-.76.1-1.15.12-.41.03-.81.06-1.22.08-.97.05-1.94.05-2.91,0-.98-.05-1.94-.19-2.9-.41-.72-.16-1.42-.4-2.11-.7-.44-.19-.76-.47-1.05-.9-.02-.04-.04-.07-.04-.12v-.42c.04-.12.1-.18.2-.23h18.52c.11,0,.2.1.2.23v.13h0c0,.13-.09.23-.2.24-.26.04-.51.07-.77.11-.34.02-.68.07-1.01.15l-.67.21Z"/>
  </g>
  <path class="st5" d="M632.02,938.3v-10.2c0-3.93,2.82-7.1,6.31-7.1s6.31,3.18,6.31,7.1v10.2h-12.61Z"/>
  <polygon class="st9" points="650.35 938.3 626.19 938.3 626.12 949.11 650.35 949.14 650.35 938.3"/>
  <rect class="st8" x="549.92" y="877.93" width="100.7" height="57.17"/>
  <g>
    <polyline class="st2" points="621.61 910.5 621.61 910.53 621.64 910.53"/>
    <line class="st0" x1="622.06" y1="910.53" x2="649.43" y2="910.53"/>
    <polyline class="st2" points="649.64 910.53 649.67 910.53 649.67 910.5"/>
    <line class="st0" x1="649.67" y1="910.07" x2="649.67" y2="882.7"/>
    <polyline class="st2" points="649.67 882.49 649.67 882.46 649.64 882.46"/>
    <line class="st0" x1="649.22" y1="882.46" x2="621.85" y2="882.46"/>
    <polyline class="st2" points="621.64 882.46 621.61 882.46 621.61 882.49"/>
    <line class="st0" x1="621.61" y1="882.92" x2="621.61" y2="910.29"/>
  </g>
  <polygon class="st10" points="649.97 813.63 649.97 877.93 595.62 877.93 595.62 895.46 599.85 895.46 599.85 882.17 649.97 882.17 649.97 949.14 625.99 949.14 625.99 930.87 599.85 930.87 599.85 927.38 595.62 927.38 595.62 935.11 621.76 935.11 621.76 1010.54 583.15 1010.54 583.15 1015.82 642.1 1015.82 642.1 1010.54 625.99 1010.54 625.99 953.37 649.97 953.37 649.97 953.67 655.24 953.67 655.24 813.63 649.97 813.63"/>
  <line class="st2" x1="649.97" y1="953.37" x2="625.99" y2="1010.54"/>
  <line class="st2" x1="625.99" y1="953.37" x2="649.97" y2="1010.54"/>
  <g>
    <path class="st2" d="M614.63,693.93s0-.02,0-.03"/>
    <path class="st4" d="M614.65,693.48c.28-3.08,3.06-12.16,3.78-12.16l19.23,12.9.23.16"/>
    <line class="st2" x1="638.07" y1="694.52" x2="638.09" y2="694.54"/>
  </g>
  <g>
    <g>
      <path class="st9" d="M554.42,810.25c0,4.55,3.93,8.24,8.77,8.24,3.56,0,7.1-2.33,8.31-5.62.17-.45.5-1.39.45-2.63-.15-3.87-4.01-8.24-8.77-8.24s-8.77,3.69-8.77,8.24Z"/>
      <path class="st2" d="M570.81,812.1c0,2.8-3.4,5.06-7.61,5.06"/>
      <path class="st2" d="M555.58,812.1c0,2.8,3.4,5.06,7.61,5.06"/>
      <path class="st2" d="M555.58,812.1c0-.55-.44-1-.98-1"/>
      <path class="st2" d="M570.81,812.1c0-.55.44-1,.98-1"/>
      <g>
        <path class="st9" d="M576.02,810.25c0,4.55,3.93,8.24,8.77,8.24,3.56,0,7.1-2.33,8.31-5.62.17-.45.5-1.39.45-2.63-.15-3.87-4.01-8.24-8.77-8.24s-8.77,3.69-8.77,8.24Z"/>
        <path class="st2" d="M592.4,812.1c0,2.8-3.4,5.06-7.61,5.06"/>
        <path class="st2" d="M577.18,812.1c0,2.8,3.4,5.06,7.61,5.06"/>
        <path class="st2" d="M577.18,812.1c0-.55-.44-1-.98-1"/>
        <path class="st2" d="M592.4,812.1c0-.55.47-1,1.06-1"/>
      </g>
    </g>
    <g>
      <path class="st9" d="M554.42,783.1c0-4.55,3.93-8.24,8.77-8.24,3.56,0,7.1,2.33,8.31,5.62.17.45.5,1.39.45,2.63-.15,3.87-4.01,8.24-8.77,8.24s-8.77-3.69-8.77-8.24Z"/>
      <path class="st2" d="M570.81,781.25c0-2.8-3.4-5.06-7.61-5.06"/>
      <path class="st2" d="M555.58,781.25c0-2.8,3.4-5.06,7.61-5.06"/>
      <path class="st2" d="M555.58,781.25c0,.55-.44,1-.98,1"/>
      <path class="st2" d="M570.81,781.25c0,.55.44,1,.98,1"/>
      <g>
        <path class="st9" d="M576.02,783.1c0-4.55,3.93-8.24,8.77-8.24,3.56,0,7.1,2.33,8.31,5.62.17.45.5,1.39.45,2.63-.15,3.87-4.01,8.24-8.77,8.24s-8.77-3.69-8.77-8.24Z"/>
        <path class="st2" d="M592.4,781.25c0-2.8-3.4-5.06-7.61-5.06"/>
        <path class="st2" d="M577.18,781.25c0-2.8,3.4-5.06,7.61-5.06"/>
        <path class="st2" d="M577.18,781.25c0,.55-.44,1-.98,1"/>
        <path class="st2" d="M592.4,781.25c0,.55.47,1,1.06,1"/>
      </g>
    </g>
    <rect class="st9" x="562.59" y="774.63" width="22.8" height="44.69" transform="translate(1370.97 222.98) rotate(90)"/>
  </g>
  <circle class="st7" cx="612.7" cy="718.21" r="9.62"/>
  <polyline class="st9" points="644.47 813.59 644.47 802.01 659.91 802.01 659.91 813.59 644.47 813.59"/>
  <line class="st6" x1="644.47" y1="806.02" x2="648.48" y2="802.01"/>
  <line class="st6" x1="644.47" y1="810.77" x2="653.23" y2="802.01"/>
  <line class="st6" x1="646.32" y1="813.59" x2="657.91" y2="802.01"/>
  <line class="st6" x1="651.08" y1="813.59" x2="659.91" y2="804.76"/>
  <line class="st6" x1="655.75" y1="813.59" x2="659.91" y2="809.51"/>
  <line class="st6" x1="648.63" y1="813.59" x2="644.47" y2="809.44"/>
  <line class="st6" x1="653.38" y1="813.59" x2="644.47" y2="804.68"/>
  <line class="st6" x1="658.06" y1="813.59" x2="646.47" y2="802.01"/>
  <line class="st6" x1="659.91" y1="810.7" x2="651.15" y2="802.01"/>
  <line class="st6" x1="659.91" y1="806.02" x2="655.9" y2="802.01"/>
</svg>