<?xml version="1.0" encoding="UTF-8"?>
<svg id="Lag_1" xmlns="http://www.w3.org/2000/svg" version="1.1" viewBox="0 0 1200 1697.14">
  <!-- Generator: Adobe Illustrator 29.6.0, SVG Export Plug-In . SVG Version: 2.1.1 Build 207)  -->
  <defs>
    <style>
      .st0 {
        fill: #000016;
      }

      .st1 {
        stroke-dasharray: .06 .43;
      }

      .st1, .st2, .st3, .st4, .st5, .st6, .st7, .st8, .st9, .st10, .st11, .st12 {
        stroke-width: .18px;
      }

      .st1, .st2, .st3, .st4, .st5, .st7, .st8, .st9, .st10, .st11, .st12 {
        stroke-linejoin: round;
      }

      .st1, .st2, .st3, .st5, .st7, .st8, .st10, .st11 {
        stroke-linecap: round;
      }

      .st1, .st3, .st4, .st5, .st6, .st8, .st10, .st11, .st12 {
        stroke: #000;
      }

      .st1, .st3, .st4, .st5, .st7, .st8, .st10 {
        fill: none;
      }

      .st2, .st6, .st9, .st11, .st12 {
        fill: #fff;
      }

      .st2, .st9 {
        stroke: #060305;
      }

      .st13 {
        fill: #e8e3e0;
      }

      .st5 {
        stroke-dasharray: .06 .43;
      }

      .st6 {
        stroke-miterlimit: 10;
      }

      .st7 {
        stroke: #767676;
      }

      .st14 {
        fill: #dbd7d5;
      }

      .st8 {
        stroke-dasharray: .06 .42;
      }

      .st10 {
        stroke-dasharray: .06 .42;
      }
    </style>
  </defs>
  <polygon class="st13" points="624.93 742.88 653.64 742.88 652.24 972.82 546.61 972.18 548.19 711.97 624.93 712.43 624.93 742.88"/>
  <rect class="st14" x="546.88" y="785.59" width="105.21" height="52.82" transform="translate(1198.97 1623.99) rotate(180)"/>
  <polyline class="st12" points="639.56 974.22 639.56 968.93 641.35 968.93 641.35 974.22 639.56 974.22"/>
  <polyline class="st12" points="588.67 974.22 639.56 974.22 639.56 972.43 588.67 972.5 588.67 974.22"/>
  <polyline class="st12" points="563.2 974.29 586.96 974.22 586.96 971.61 563.2 971.61 563.2 974.29"/>
  <polyline class="st12" points="561.48 974.29 561.41 969 563.2 969 563.2 974.29 561.48 974.29"/>
  <polyline class="st12" points="586.96 974.22 586.96 968.93 588.67 968.93 588.67 974.22 586.96 974.22"/>
  <line class="st4" x1="641.35" y1="975.33" x2="561.48" y2="975.41"/>
  <path class="st12" d="M634.19,803.95c0,.97.78,1.75,1.75,1.75s1.75-.78,1.75-1.75c0-.97-.78-1.75-1.75-1.75s-1.75.78-1.75,1.75"/>
  <line class="st4" x1="597.91" y1="768.45" x2="569.38" y2="768.45"/>
  <path class="st4" d="M569.45,768.49c0,15.74,12.76,28.5,28.5,28.5"/>
  <line class="st4" x1="597.91" y1="796.91" x2="597.91" y2="768.45"/>
  <line class="st4" x1="552.99" y1="711.39" x2="552.99" y2="739.92"/>
  <path class="st4" d="M553.03,739.92c15.74,0,28.5-12.76,28.5-28.5"/>
  <line class="st4" x1="581.52" y1="711.39" x2="552.99" y2="711.39"/>
  <polyline class="st12" points="600.89 758.25 621.98 758.25 621.98 716.01 600.89 716.01 600.89 758.25"/>
  <polyline class="st4" points="621.98 745.88 600.89 745.88 600.89 758.25 621.98 758.25 621.98 745.88"/>
  <line class="st4" x1="619.52" y1="751.84" x2="613.93" y2="751.84"/>
  <line class="st4" x1="608.94" y1="751.84" x2="603.35" y2="751.84"/>
  <line class="st4" x1="606.18" y1="749.08" x2="606.18" y2="754.67"/>
  <line class="st4" x1="616.69" y1="749.08" x2="616.69" y2="754.67"/>
  <polyline class="st4" points="604.39 719.51 618.47 719.51 618.47 733.59 604.39 733.59 604.39 719.51"/>
  <polyline class="st4" points="621.98 737.09 621.98 716.01 600.89 716.01 600.89 737.09 621.98 737.09"/>
  <line class="st4" x1="620.41" y1="726.51" x2="614.75" y2="726.51"/>
  <path class="st6" d="M632.09,755.68v10.23c0,3.94,2.83,7.13,6.33,7.13,3.5,0,6.33-3.19,6.33-7.13v-10.23h-12.65Z"/>
  <polygon class="st12" points="650.48 755.68 626.24 755.68 626.17 744.84 650.48 744.81 650.48 755.68"/>
  <rect class="st12" x="632.84" y="816.26" width="17.58" height="21.16"/>
  <rect class="st12" x="614.29" y="816.26" width="17.66" height="21.16"/>
  <rect class="st12" x="595.8" y="816.26" width="17.67" height="21.16"/>
  <path class="st12" d="M619.93,811.98v-9.28c0-.21-.13-.37-.3-.37h-16.91c-.21,0-.37.17-.37.37v9.28"/>
  <path class="st4" d="M610.47,810.26c0-.35.28-.63.63-.63s.63.28.63.63-.28.63-.63.63-.63-.28-.63-.63"/>
  <path class="st4" d="M610.32,805.79c0-.43.35-.78.78-.78s.78.35.78.78-.35.78-.78.78-.78-.35-.78-.78"/>
  <path class="st4" d="M609.94,805.79c0-.64.52-1.15,1.15-1.15s1.15.52,1.15,1.15-.52,1.15-1.15,1.15-1.15-.52-1.15-1.15"/>
  <path class="st4" d="M603.09,802.7h16.1c.21,0,.37.17.37.37v5.44c0,.2-.17.37-.37.37h-16.1c-.21,0-.37-.17-.37-.37v-5.44c0-.2.17-.37.37-.37Z"/>
  <g>
    <polyline class="st3" points="621.83 783.6 621.83 783.58 621.85 783.58"/>
    <line class="st1" x1="622.28" y1="783.58" x2="649.74" y2="783.58"/>
    <polyline class="st3" points="649.96 783.58 649.99 783.58 649.99 783.6"/>
    <line class="st1" x1="649.99" y1="784.03" x2="649.99" y2="811.49"/>
    <polyline class="st3" points="649.99 811.71 649.99 811.74 649.96 811.74"/>
    <line class="st1" x1="649.53" y1="811.74" x2="622.07" y2="811.74"/>
    <polyline class="st3" points="621.85 811.74 621.83 811.74 621.83 811.71"/>
    <line class="st1" x1="621.83" y1="811.28" x2="621.83" y2="783.82"/>
  </g>
  <line class="st4" x1="635.91" y1="811.74" x2="635.91" y2="803.91"/>
  <g>
    <path class="st3" d="M586.85,974.83s0,.02,0,.03"/>
    <path class="st8" d="M586.83,975.27c-.28,3.09-3.07,12.2-3.79,12.2l-19.29-12.95-.23-.16"/>
    <line class="st3" x1="563.33" y1="974.23" x2="563.31" y2="974.22"/>
  </g>
  <line class="st4" x1="626.22" y1="740.59" x2="655.57" y2="714.89"/>
  <line class="st4" x1="655.57" y1="740.59" x2="626.22" y2="714.89"/>
  <polygon class="st0" points="557.91 956.34 557.83 952.24 550.01 952.24 550.01 785.19 550.01 784.62 550.01 773 550.01 772.14 550.01 714.89 551.28 714.89 551.28 709.67 547.4 709.67 543.53 709.67 543.53 714.89 544.72 714.89 544.72 772.14 544.72 772.92 544.72 784.54 544.72 785.19 544.72 952.24 537.42 952.24 537.05 956.11 535.63 956.11 535.71 975.26 561.41 975.33 561.41 956.34 557.91 956.34"/>
  <g>
    <polyline class="st11" points="542.82 774.19 551.98 774.19 551.98 783.35 542.82 783.28 542.82 774.19"/>
    <line class="st7" x1="542.82" y1="778.29" x2="546.92" y2="774.19"/>
    <line class="st7" x1="542.82" y1="782.98" x2="551.61" y2="774.19"/>
    <line class="st7" x1="547.22" y1="783.35" x2="551.98" y2="778.58"/>
    <line class="st7" x1="547.14" y1="783.35" x2="542.82" y2="779.03"/>
    <line class="st7" x1="551.91" y1="783.35" x2="542.82" y2="774.26"/>
    <line class="st7" x1="551.98" y1="778.66" x2="547.51" y2="774.19"/>
  </g>
  <g>
    <g>
      <path class="st11" d="M606.6,886.57c0-4.59,3.96-8.32,8.85-8.32,3.6,0,7.16,2.35,8.39,5.67.17.45.51,1.4.46,2.65-.16,3.91-4.05,8.32-8.85,8.32s-8.85-3.72-8.85-8.32Z"/>
      <path class="st3" d="M623.13,884.71c0-2.82-3.44-5.11-7.68-5.11"/>
      <path class="st3" d="M607.77,884.71c0-2.82,3.44-5.11,7.68-5.11"/>
      <path class="st3" d="M607.77,884.71c0,.56-.44,1.01-.99,1.01"/>
      <path class="st3" d="M623.13,884.71c0,.56.44,1.01.99,1.01"/>
      <g>
        <path class="st11" d="M628.4,886.57c0-4.59,3.96-8.32,8.85-8.32,3.6,0,7.16,2.35,8.39,5.67.17.45.51,1.4.46,2.65-.16,3.91-4.05,8.32-8.85,8.32-4.89,0-8.85-3.72-8.85-8.32Z"/>
        <path class="st3" d="M644.93,884.71c0-2.82-3.44-5.11-7.68-5.11"/>
        <path class="st3" d="M629.56,884.71c0-2.82,3.44-5.11,7.68-5.11"/>
        <path class="st3" d="M629.56,884.71c0,.56-.44,1.01-.99,1.01"/>
        <path class="st3" d="M644.93,884.71c0,.56.48,1.01,1.07,1.01"/>
      </g>
    </g>
    <g>
      <path class="st11" d="M606.6,913.98c0,4.59,3.96,8.32,8.85,8.32,3.6,0,7.16-2.35,8.39-5.67.17-.45.51-1.4.46-2.65-.16-3.91-4.05-8.32-8.85-8.32s-8.85,3.72-8.85,8.32Z"/>
      <path class="st3" d="M623.13,915.84c0,2.82-3.44,5.11-7.68,5.11"/>
      <path class="st3" d="M607.77,915.84c0,2.82,3.44,5.11,7.68,5.11"/>
      <path class="st3" d="M607.77,915.84c0-.56-.44-1.01-.99-1.01"/>
      <path class="st3" d="M623.13,915.84c0-.56.44-1.01.99-1.01"/>
      <g>
        <path class="st11" d="M628.4,913.98c0,4.59,3.96,8.32,8.85,8.32,3.6,0,7.16-2.35,8.39-5.67.17-.45.51-1.4.46-2.65-.16-3.91-4.05-8.32-8.85-8.32-4.89,0-8.85,3.72-8.85,8.32Z"/>
        <path class="st3" d="M644.93,915.84c0,2.82-3.44,5.11-7.68,5.11"/>
        <path class="st3" d="M629.56,915.84c0,2.82,3.44,5.11,7.68,5.11"/>
        <path class="st3" d="M629.56,915.84c0-.56-.44-1.01-.99-1.01"/>
        <path class="st3" d="M644.93,915.84c0-.56.48-1.01,1.07-1.01"/>
      </g>
    </g>
    <rect class="st11" x="614.84" y="877.42" width="23.01" height="45.1" transform="translate(-273.62 1526.32) rotate(-90)"/>
  </g>
  <g>
    <path class="st2" d="M572.94,948.44c1.25-7.65,1.37-15.49.38-23.19,0-.33-.2-.62-.47-.69-6.45-.02-12.9-.05-19.36-.07"/>
    <path class="st2" d="M572.94,948.44c-.02.13-.11.22-.22.23h-1.81s-17.16,0-17.16,0l-.26-24.21c6.45-.02,12.9-.05,19.36-.07.28-.07.47-.36.47-.69,1-7.7.87-15.54-.38-23.19-.02-.13-.11-.22-.22-.23h-1.81s-17.42,0-17.42,0v24.19"/>
    <path class="st2" d="M552.5,948.33c.6.07,1.2.08,1.8.01.12-.02.2-.13.2-.27.18-7.74.22-15.47.13-23.21-.02-.19-.17-.34-.33-.35-.66-.06-1.31-.05-1.97.03"/>
    <path class="st2" d="M552.5,900.61c.6-.07,1.2-.08,1.8-.01.12.02.2.13.2.27.18,7.74.22,15.47.13,23.21-.02.19-.17.34-.33.35-.66.06-1.31.05-1.97-.03"/>
    <path class="st2" d="M552.16,900.32h-.21c-.07,0-.13.07-.13.15,0,16.01,0,32.01,0,48.02,0,.08.06.15.13.15h.21s.15-.06.15-.06v-.36s-.15-47.88-.15-47.88Z"/>
    <path class="st2" d="M556.23,947.55c0,.47-1.12.85-2.49.85-.11,0-.22,0-.33-.01l-.9-.06c-.12-.02-.2-.13-.2-.27v-23.55h2c.65.01,1.31.02,1.96.04.28.07.47.36.47.69,1.05,7.41.88,14.98-.51,22.31Z"/>
    <path class="st2" d="M556.23,901.43c0-.47-1.12-.85-2.49-.85-.11,0-.22,0-.33.01l-.9.06c-.12.02-.2.13-.2.27v23.55h2c.65-.01,1.31-.02,1.96-.04.28-.07.47-.36.47-.69,1.05-7.41.88-14.98-.51-22.31Z"/>
    <path class="st2" d="M554.49,948.17c.27-.11.54-.2.82-.27.31-.14.63-.26.95-.37.44-.14.88-.29,1.32-.44.61-.21,1.22-.35,1.85-.44.38-.06.77-.1,1.16-.13.41-.03.82-.06,1.23-.08.98-.05,1.95-.05,2.93,0,.99.05,1.96.19,2.93.41.73.16,1.44.4,2.13.71.44.19.77.48,1.06.9.02.04.04.07.04.12v.42c-.04.12-.1.18-.2.23-6.23,0-12.46,0-18.69,0-.11,0-.2-.1-.2-.23v-.13h0c0-.13.09-.23.2-.24.26-.04.52-.07.77-.11.34-.02.68-.07,1.02-.16l.68-.21Z"/>
    <path class="st2" d="M554.49,900.77c.27.11.54.2.82.27.31.14.63.26.95.37.44.14.88.29,1.32.44.61.21,1.22.35,1.85.44.38.06.77.1,1.16.13.41.03.82.06,1.23.08.98.05,1.95.05,2.93,0,.99-.05,1.96-.19,2.93-.41.73-.16,1.44-.4,2.13-.71.44-.19.77-.48,1.06-.9.02-.04.04-.07.04-.12v-.42c-.04-.12-.1-.18-.2-.23-6.23,0-12.46,0-18.69,0-.11,0-.2.1-.2.23v.13h0c0,.13.09.23.2.24.26.04.52.07.77.11.34.02.68.07,1.02.16l.68.21Z"/>
  </g>
  <circle class="st9" cx="581.78" cy="956.48" r="7.95"/>
  <g>
    <polyline class="st12" points="650.33 945.01 649 945.01 649 929.29 650.33 929.29"/>
    <polyline class="st12" points="649 928.4 649 945.97 647.59 945.97 647.59 928.4 649 928.4"/>
  </g>
  <polygon class="st0" points="655.57 956.89 655.57 740.59 650.28 740.59 626.22 740.59 626.22 714.89 642.39 714.89 642.39 709.67 583.24 709.67 583.24 714.89 621.98 714.89 621.98 758.92 595.75 758.92 595.75 766.66 600 766.66 600 763.16 626.22 763.16 626.22 744.84 650.28 744.84 650.28 812.03 600 812.03 600 798.7 595.75 798.7 595.75 816.28 650.28 816.28 650.28 956.89 641.35 956.89 641.35 957.01 641.35 975.41 661.6 975.41 664.37 975.41 664.37 956.89 655.57 956.89"/>
  <g>
    <polyline class="st3" points="655.57 785.5 655.57 785.48 655.55 785.48"/>
    <line class="st5" x1="655.12" y1="785.48" x2="543.97" y2="785.48"/>
    <polyline class="st3" points="543.75 785.48 543.73 785.48 543.73 785.5"/>
    <line class="st10" x1="543.73" y1="785.93" x2="543.73" y2="838.17"/>
    <polyline class="st3" points="543.73 838.38 543.73 838.41 543.75 838.41"/>
    <line class="st5" x1="544.18" y1="838.41" x2="655.33" y2="838.41"/>
    <polyline class="st3" points="655.55 838.41 655.57 838.41 655.57 838.38"/>
    <line class="st10" x1="655.57" y1="837.95" x2="655.57" y2="785.72"/>
  </g>
</svg>