<?xml version="1.0" encoding="UTF-8"?>
<svg xmlns="http://www.w3.org/2000/svg" version="1.1" viewBox="0 0 1200 1697.14">
  <!-- Generator: Adobe Illustrator 29.6.0, SVG Export Plug-In . SVG Version: 2.1.1 Build 207)  -->
  <defs>
    <style>
      .st0, .st1 {
        stroke: #0d101f;
      }

      .st0, .st1, .st2, .st3 {
        stroke-linecap: round;
        stroke-linejoin: round;
        stroke-width: .15px;
      }

      .st0, .st4 {
        fill: #fff;
      }

      .st1, .st2, .st3 {
        fill: none;
      }

      .st5 {
        fill: #383037;
      }

      .st2 {
        stroke: #1d1d1b;
      }

      .st3 {
        stroke: #12100e;
      }

      .st6 {
        fill: #f2efed;
      }
    </style>
  </defs>
  <g id="sfondo">
    <polygon class="st6" points="785.94 714.55 785.94 1123.34 780.09 1129.64 487.45 1129.64 469.44 1129.64 469.44 551.12 512.66 551.12 512.66 572.28 697.25 572.28 697.25 551.12 717.51 551.12 717.51 549.77 732.82 549.77 732.82 551.12 777.84 551.12 777.84 714.55 785.94 714.55"/>
  </g>
  <g id="letto">
    <g>
      <g id="POLYLINE">
        <line class="st1" x1="725.29" y1="951.48" x2="725.42" y2="951.48"/>
      </g>
      <g id="POLYLINE1" data-name="POLYLINE">
        <line class="st1" x1="725.29" y1="951.48" x2="725.42" y2="951.48"/>
      </g>
      <g>
        <g>
          <polygon class="st4" points="702.55 757.6 702.55 757.16 780.06 757.16 780.06 905.44 779.08 904.95 779.08 757.6 702.55 757.6"/>
          <path class="st4" d="M702.55,867.08v-109.48h76.53v147.35l-17.01-8.41c-7.31-3.62-13.36-6.61-18.37-9.09l-2.63-1.3c-5.59-2.77-9.73-4.82-12.79-6.34l-1.16-.57-7.56-3.74-17.01-8.42Z"/>
          <path class="st4" d="M702.55,927.68v-60.6l17.01,8.42v30.18c0,1.94,1.56,3.51,3.5,3.51h35.51c1.94,0,3.5-1.57,3.5-3.51v-9.14l17.01,8.41v22.73h-76.53Z"/>
          <path class="st4" d="M719.56,905.68v-30.18l7.56,3.74c.37.19.75.38,1.16.57,3.06,1.52,7.2,3.57,12.79,6.34.85.41,1.72.85,2.63,1.3,5.01,2.48,11.06,5.47,18.37,9.09v9.14c0,1.94-1.56,3.51-3.5,3.51h-35.51c-1.94,0-3.5-1.57-3.5-3.51Z"/>
        </g>
        <g>
          <polyline class="st1" points="779.08 904.95 779.08 927.68 702.55 927.68 702.55 867.08"/>
          <polyline class="st1" points="762.07 896.54 779.08 904.95 780.06 905.44 780.06 757.16 702.55 757.16 702.55 757.6 702.55 867.08 719.56 875.5"/>
          <line class="st1" x1="741.07" y1="886.15" x2="743.7" y2="887.45"/>
          <line class="st1" x1="727.12" y1="879.24" x2="728.28" y2="879.81"/>
          <line class="st1" x1="758.57" y1="909.19" x2="723.06" y2="909.19"/>
          <path class="st1" d="M723.06,909.19c-1.94,0-3.5-1.57-3.5-3.51"/>
          <path class="st1" d="M762.07,905.68c0,1.94-1.56,3.51-3.5,3.51"/>
          <path class="st1" d="M762.07,905.68v-9.14c-7.31-3.62-13.36-6.61-18.37-9.09-.91-.45-1.78-.89-2.63-1.3-5.59-2.77-9.73-4.82-12.79-6.34-.41-.19-.79-.38-1.16-.57l-7.56-3.74v30.18"/>
        </g>
      </g>
      <g id="POLYLINE2" data-name="POLYLINE">
        <polygon class="st1" points="780.06 905.44 780.06 757.16 702.55 757.16 702.55 867.08 780.06 905.44"/>
      </g>
      <g id="POLYLINE3" data-name="POLYLINE">
        <polygon class="st1" points="780.06 905.44 780.06 757.16 702.55 757.16 702.55 867.08 780.06 905.44"/>
      </g>
      <g id="LINE">
        <line class="st1" x1="758.57" y1="909.19" x2="723.06" y2="909.19"/>
      </g>
      <g id="SPLINE">
        <path class="st1" d="M723.06,909.19c-1.94,0-3.5-1.57-3.5-3.5"/>
      </g>
      <g id="SPLINE1" data-name="SPLINE">
        <path class="st1" d="M762.07,905.68c0,1.93-1.57,3.5-3.5,3.5"/>
      </g>
      <g id="LINE1" data-name="LINE">
        <line class="st1" x1="758.57" y1="909.19" x2="723.06" y2="909.19"/>
      </g>
      <g id="SPLINE2" data-name="SPLINE">
        <path class="st1" d="M723.06,909.19c-1.94,0-3.5-1.57-3.5-3.5"/>
      </g>
      <g id="SPLINE3" data-name="SPLINE">
        <path class="st1" d="M762.07,905.68c0,1.93-1.57,3.5-3.5,3.5"/>
      </g>
      <line class="st1" x1="762.07" y1="905.68" x2="762.07" y2="896.54"/>
      <line class="st1" x1="719.55" y1="905.68" x2="719.55" y2="875.5"/>
    </g>
    <g>
      <rect class="st4" x="593.67" y="1061.16" width="55.54" height="55.15"/>
      <line class="st3" x1="649.21" y1="1116.31" x2="649.21" y2="1115.13"/>
      <line class="st3" x1="649.21" y1="1112.4" x2="649.21" y2="1109.66"/>
      <line class="st3" x1="649.21" y1="1106.92" x2="649.21" y2="1104.18"/>
      <line class="st3" x1="649.21" y1="1101.44" x2="649.21" y2="1098.31"/>
      <line class="st3" x1="649.21" y1="1095.58" x2="649.21" y2="1092.84"/>
      <line class="st3" x1="649.21" y1="1090.1" x2="649.21" y2="1087.36"/>
      <line class="st3" x1="649.21" y1="1084.63" x2="649.21" y2="1081.89"/>
      <line class="st3" x1="649.21" y1="1079.15" x2="649.21" y2="1076.41"/>
      <line class="st3" x1="649.21" y1="1073.67" x2="649.21" y2="1070.94"/>
      <line class="st3" x1="649.21" y1="1067.81" x2="649.21" y2="1065.07"/>
      <line class="st3" x1="649.21" y1="1062.33" x2="649.21" y2="1061.16"/>
      <line class="st3" x1="649.21" y1="1061.16" x2="647.65" y2="1061.16"/>
      <line class="st3" x1="644.91" y1="1061.16" x2="642.17" y2="1061.16"/>
      <line class="st3" x1="639.44" y1="1061.16" x2="636.7" y2="1061.16"/>
      <line class="st3" x1="633.96" y1="1061.16" x2="631.22" y2="1061.16"/>
      <line class="st3" x1="628.48" y1="1061.16" x2="625.75" y2="1061.16"/>
      <line class="st3" x1="623.01" y1="1061.16" x2="619.88" y2="1061.16"/>
      <line class="st3" x1="617.14" y1="1061.16" x2="614.4" y2="1061.16"/>
      <line class="st3" x1="611.66" y1="1061.16" x2="608.93" y2="1061.16"/>
      <line class="st3" x1="606.19" y1="1061.16" x2="603.45" y2="1061.16"/>
      <line class="st3" x1="600.71" y1="1061.16" x2="597.97" y2="1061.16"/>
      <line class="st3" x1="595.24" y1="1061.16" x2="593.67" y2="1061.16"/>
      <line class="st3" x1="593.67" y1="1061.16" x2="593.67" y2="1062.33"/>
      <line class="st3" x1="593.67" y1="1065.07" x2="593.67" y2="1067.81"/>
      <line class="st3" x1="593.67" y1="1070.94" x2="593.67" y2="1073.67"/>
      <line class="st3" x1="593.67" y1="1076.41" x2="593.67" y2="1079.15"/>
      <line class="st3" x1="593.67" y1="1081.89" x2="593.67" y2="1084.63"/>
      <line class="st3" x1="593.67" y1="1087.36" x2="593.67" y2="1090.1"/>
      <line class="st3" x1="593.67" y1="1092.84" x2="593.67" y2="1095.58"/>
      <line class="st3" x1="593.67" y1="1098.31" x2="593.67" y2="1101.44"/>
      <line class="st3" x1="593.67" y1="1104.18" x2="593.67" y2="1106.92"/>
      <line class="st3" x1="593.67" y1="1109.66" x2="593.67" y2="1112.4"/>
      <line class="st3" x1="593.67" y1="1115.13" x2="593.67" y2="1116.31"/>
      <path class="st3" d="M649.21,1061.16"/>
      <line class="st3" x1="649.21" y1="1061.16" x2="649.21" y2="1062.33"/>
      <line class="st3" x1="649.21" y1="1065.07" x2="649.21" y2="1067.81"/>
      <line class="st3" x1="649.21" y1="1070.94" x2="649.21" y2="1073.67"/>
      <line class="st3" x1="649.21" y1="1076.41" x2="649.21" y2="1079.15"/>
      <line class="st3" x1="649.21" y1="1081.89" x2="649.21" y2="1084.63"/>
      <line class="st3" x1="649.21" y1="1087.36" x2="649.21" y2="1090.1"/>
      <line class="st3" x1="649.21" y1="1092.84" x2="649.21" y2="1095.58"/>
      <line class="st3" x1="649.21" y1="1098.31" x2="649.21" y2="1101.44"/>
      <line class="st3" x1="649.21" y1="1104.18" x2="649.21" y2="1106.92"/>
      <line class="st3" x1="649.21" y1="1109.66" x2="649.21" y2="1112.4"/>
      <line class="st3" x1="649.21" y1="1115.13" x2="649.21" y2="1116.31"/>
    </g>
  </g>
  <g id="bianchi">
    <g>
      <polygon class="st4" points="779.64 1111.52 779.64 1112.64 779.04 1112.64 779.64 1111.52"/>
      <polygon class="st4" points="779.64 1045.2 779.64 1111.52 779.04 1112.64 712.72 1112.64 711.6 1112.05 711.6 1045.73 712.2 1044.6 778.52 1044.6 779.64 1045.2"/>
      <polygon class="st4" points="779.64 1044.6 779.64 1045.2 778.52 1044.6 779.64 1044.6"/>
      <polygon class="st4" points="712.72 1112.64 711.6 1112.64 711.6 1112.05 712.72 1112.64"/>
      <polygon class="st4" points="712.2 1044.6 711.6 1045.73 711.6 1044.6 712.2 1044.6"/>
    </g>
    <path class="st4" d="M664.25,1112.64v-27.68c0-.61.29-1.11.66-1.11h37.37c.45,0,.82.5.82,1.11v27.68h-38.85Z"/>
    <g id="LINE2" data-name="LINE">
      <path class="st4" d="M756.85,974.43v24.72c0,9.52-6.83,17.21-15.29,17.21s-15.28-7.69-15.28-17.21v-24.72h30.57Z"/>
    </g>
    <rect class="st4" x="672.49" y="976.23" width="37.37" height="1.35"/>
    <rect class="st4" x="677.89" y="974.43" width="27.01" height="2.48"/>
    <rect class="st4" x="487.45" y="1112.64" width="87.18" height="31.4"/>
  </g>
  <g id="Livello_1">
    <polyline class="st2" points="779.64 1045.72 779.64 1044.6 779.04 1044.6"/>
    <polyline class="st2" points="778.52 1112.64 779.64 1112.64 779.64 1112.04"/>
    <polyline class="st2" points="711.6 1111.52 711.6 1112.64 712.2 1112.64"/>
    <polyline class="st2" points="712.72 1044.6 711.6 1044.6 711.6 1045.2"/>
    <line class="st2" x1="711.6" y1="1111.52" x2="711.6" y2="1045.2"/>
    <line class="st2" x1="778.52" y1="1112.64" x2="712.2" y2="1112.64"/>
    <line class="st2" x1="779.64" y1="1045.72" x2="779.64" y2="1112.04"/>
    <line class="st2" x1="712.72" y1="1044.6" x2="779.04" y2="1044.6"/>
    <circle class="st2" cx="745.53" cy="1093.83" r="4.23" transform="translate(-490.33 1568.11) rotate(-76.72)"/>
    <circle class="st2" cx="745.53" cy="1093.83" r="4.23" transform="translate(-490.33 1568.11) rotate(-76.72)"/>
    <line class="st2" x1="745.62" y1="1112.64" x2="745.62" y2="1093.74"/>
    <circle class="st2" cx="683.6" cy="1108.35" r="2.2" transform="translate(-236.36 186.71) rotate(-13.28)"/>
    <circle class="st2" cx="683.6" cy="1093.89" r="2.93"/>
    <path class="st2" d="M685.17,1093.89c0-.87-.71-1.58-1.58-1.58s-1.58.71-1.58,1.58.71,1.58,1.58,1.58,1.58-.71,1.58-1.58Z"/>
    <path class="st2" d="M664.91,1102.3v-16.22c0-.62.37-1.11.82-1.11h35.72c.45,0,.82.5.82,1.11v16.22c0,.61-.37,1.11-.82,1.11h-35.72c-.45,0-.82-.5-.82-1.11Z"/>
    <path class="st2" d="M664.25,1112.64v-27.68c0-.62.29-1.11.66-1.11h37.37c.45,0,.82.49.82,1.11v27.68"/>
    <line class="st2" x1="703.1" y1="1093.73" x2="703.1" y2="1104.09"/>
    <line class="st2" x1="674.74" y1="1083.83" x2="693.2" y2="1083.83"/>
    <line class="st2" x1="703.1" y1="1093.73" x2="703.1" y2="1104.09"/>
    <line class="st2" x1="674.74" y1="1083.83" x2="693.2" y2="1083.83"/>
    <line class="st2" x1="703.1" y1="1104.09" x2="703.1" y2="1093.73"/>
    <line class="st2" x1="693.2" y1="1083.83" x2="674.74" y2="1083.83"/>
    <line class="st2" x1="703.1" y1="1093.73" x2="703.1" y2="1104.09"/>
    <line class="st2" x1="674.74" y1="1083.83" x2="693.2" y2="1083.83"/>
    <line class="st2" x1="703.1" y1="1093.73" x2="703.1" y2="1104.09"/>
    <line class="st2" x1="674.74" y1="1083.83" x2="693.2" y2="1083.83"/>
    <line class="st2" x1="703.1" y1="1104.09" x2="703.1" y2="1093.73"/>
    <line class="st2" x1="693.2" y1="1083.83" x2="674.74" y2="1083.83"/>
    <path class="st2" d="M756.86,974.43v24.72c0,9.52-6.84,17.22-15.29,17.22s-15.29-7.7-15.29-17.22v-24.72h30.58Z"/>
    <line class="st2" x1="704.91" y1="974.43" x2="704.91" y2="976.23"/>
    <line class="st2" x1="677.89" y1="976.23" x2="677.89" y2="974.43"/>
    <line class="st2" x1="672.49" y1="976.23" x2="672.49" y2="977.58"/>
    <line class="st2" x1="709.86" y1="976.23" x2="672.49" y2="976.23"/>
    <line class="st2" x1="709.86" y1="977.58" x2="709.86" y2="976.23"/>
    <line class="st2" x1="672.49" y1="977.58" x2="709.86" y2="977.58"/>
    <line class="st2" x1="704.91" y1="974.43" x2="704.91" y2="976.23"/>
    <line class="st2" x1="677.89" y1="976.23" x2="677.89" y2="974.43"/>
    <line class="st2" x1="672.49" y1="976.23" x2="672.49" y2="977.58"/>
    <line class="st2" x1="709.86" y1="976.23" x2="672.49" y2="976.23"/>
    <line class="st2" x1="709.86" y1="977.58" x2="709.86" y2="976.23"/>
    <line class="st2" x1="672.49" y1="977.58" x2="709.86" y2="977.58"/>
    <g>
      <g id="POLYLINE4" data-name="POLYLINE">
        <rect class="st4" x="480.56" y="893.88" width="51.43" height="101.75"/>
      </g>
      <line class="st2" x1="498.26" y1="967.81" x2="485.79" y2="967.81"/>
      <rect class="st2" x="483.05" y="944.51" width="46.44" height="46.6"/>
      <rect class="st2" x="490.76" y="952.38" width="31.01" height="31.01"/>
      <rect class="st2" x="483.28" y="896.77" width="45.99" height="26.81"/>
      <line class="st2" x1="488.64" y1="910.58" x2="500.83" y2="910.58"/>
      <line class="st2" x1="511.71" y1="910.58" x2="523.9" y2="910.58"/>
      <line class="st2" x1="517.73" y1="916.59" x2="517.73" y2="904.4"/>
      <line class="st2" x1="494.81" y1="916.59" x2="494.81" y2="904.4"/>
      <rect class="st2" x="480.61" y="893.88" width="51.32" height="101.75"/>
    </g>
    <line class="st2" x1="656.73" y1="935.26" x2="780.09" y2="969.47"/>
    <line class="st2" x1="656.73" y1="969.47" x2="780.09" y2="935.26"/>
    <line class="st2" x1="656.73" y1="935.26" x2="656.73" y2="969.47"/>
    <line class="st2" x1="490.16" y1="1112.64" x2="490.16" y2="1033.85"/>
    <line class="st2" x1="493.31" y1="1112.64" x2="490.16" y2="1112.64"/>
    <path class="st2" d="M568.49,1112.64c0-20.71-8.1-40.97-22.96-55.83-14.86-14.41-34.67-22.96-55.38-22.96"/>
    <line class="st2" x1="513.57" y1="572.39" x2="512.67" y2="572.39"/>
    <line class="st2" x1="605.41" y1="572.39" x2="604.06" y2="572.39"/>
    <line class="st2" x1="697.25" y1="572.39" x2="695.9" y2="572.39"/>
    <line class="st2" x1="656.73" y1="969.47" x2="656.73" y2="935.26"/>
    <line class="st2" x1="604.06" y1="572.39" x2="600.01" y2="572.39"/>
    <line class="st2" x1="600.01" y1="572.39" x2="600.01" y2="559.78"/>
    <line class="st2" x1="600.01" y1="559.78" x2="604.06" y2="559.78"/>
    <line class="st2" x1="604.06" y1="559.78" x2="604.06" y2="572.39"/>
    <line class="st2" x1="517.62" y1="572.39" x2="513.57" y2="572.39"/>
    <line class="st2" x1="513.57" y1="572.39" x2="513.57" y2="559.78"/>
    <line class="st2" x1="513.57" y1="559.78" x2="517.62" y2="559.78"/>
    <line class="st2" x1="517.62" y1="559.78" x2="517.62" y2="572.39"/>
    <line class="st2" x1="600.01" y1="559.78" x2="517.62" y2="559.78"/>
    <line class="st2" x1="600.01" y1="564.74" x2="517.62" y2="564.74"/>
    <line class="st2" x1="517.62" y1="564.74" x2="517.62" y2="560.69"/>
    <line class="st2" x1="517.62" y1="560.69" x2="600.01" y2="560.69"/>
    <line class="st2" x1="600.01" y1="560.69" x2="600.01" y2="564.74"/>
    <line class="st2" x1="688.25" y1="559.78" x2="613.06" y2="559.78"/>
    <line class="st2" x1="613.06" y1="559.78" x2="688.25" y2="559.78"/>
    <line class="st2" x1="693.65" y1="559.78" x2="608.11" y2="559.78"/>
    <line class="st2" x1="694.1" y1="559.78" x2="607.21" y2="559.78"/>
    <line class="st2" x1="605.41" y1="559.78" x2="695.9" y2="559.78"/>
    <line class="st2" x1="609.46" y1="572.39" x2="605.41" y2="572.39"/>
    <line class="st2" x1="605.41" y1="572.39" x2="605.41" y2="559.78"/>
    <line class="st2" x1="605.41" y1="559.78" x2="613.06" y2="559.78"/>
    <line class="st2" x1="613.06" y1="559.78" x2="613.06" y2="566.54"/>
    <line class="st2" x1="613.06" y1="566.54" x2="609.46" y2="566.54"/>
    <line class="st2" x1="609.46" y1="566.54" x2="609.46" y2="572.39"/>
    <line class="st2" x1="695.9" y1="572.39" x2="691.85" y2="572.39"/>
    <line class="st2" x1="691.85" y1="572.39" x2="691.85" y2="566.54"/>
    <line class="st2" x1="691.85" y1="566.54" x2="688.25" y2="566.54"/>
    <line class="st2" x1="688.25" y1="566.54" x2="688.25" y2="559.78"/>
    <line class="st2" x1="688.25" y1="559.78" x2="695.9" y2="559.78"/>
    <line class="st2" x1="695.9" y1="559.78" x2="695.9" y2="572.39"/>
    <line class="st2" x1="688.25" y1="566.54" x2="613.06" y2="566.54"/>
    <line class="st2" x1="688.25" y1="559.78" x2="613.06" y2="559.78"/>
    <line class="st2" x1="609.46" y1="572.39" x2="691.85" y2="572.39"/>
    <line class="st2" x1="688.25" y1="564.74" x2="613.06" y2="564.74"/>
    <line class="st2" x1="613.06" y1="564.74" x2="613.06" y2="560.69"/>
    <line class="st2" x1="613.06" y1="560.69" x2="688.25" y2="560.69"/>
    <line class="st2" x1="688.25" y1="560.69" x2="688.25" y2="564.74"/>
    <polyline class="st2" points="579.75 1057.27 649.98 1057.27 649.98 1053.66"/>
    <polyline class="st2" points="579.75 1057.27 649.98 1057.27 649.98 1053.66"/>
    <line class="st2" x1="649.98" y1="1053.66" x2="649.98" y2="987.03"/>
    <line class="st2" x1="649.98" y1="1053.66" x2="649.98" y2="987.03"/>
    <line class="st2" x1="649.98" y1="1053.66" x2="649.98" y2="987.03"/>
    <line class="st2" x1="649.98" y1="1053.66" x2="649.98" y2="987.03"/>
    <line class="st2" x1="493.31" y1="1112.64" x2="568.49" y2="1112.64"/>
    <line class="st2" x1="493.31" y1="1112.64" x2="568.49" y2="1112.64"/>
    <line class="st2" x1="493.31" y1="1112.64" x2="568.49" y2="1112.64"/>
    <line class="st2" x1="493.31" y1="1112.64" x2="568.49" y2="1112.64"/>
    <polyline class="st2" points="490.16 1033.85 490.16 1112.64 493.31 1112.64"/>
    <polyline class="st2" points="490.16 1033.85 490.16 1112.64 493.31 1112.64"/>
    <line class="st2" x1="649.98" y1="936.16" x2="649.98" y2="935.26"/>
    <line class="st2" x1="649.98" y1="969.47" x2="649.98" y2="968.12"/>
    <line class="st2" x1="649.98" y1="968.12" x2="652.23" y2="968.12"/>
    <line class="st2" x1="649.98" y1="936.16" x2="649.98" y2="968.12"/>
    <line class="st2" x1="652.23" y1="936.16" x2="649.98" y2="936.16"/>
    <line class="st2" x1="652.23" y1="968.12" x2="652.23" y2="936.16"/>
    <line class="st2" x1="649.98" y1="1057.27" x2="579.75" y2="1057.27"/>
    <line class="st2" x1="649.98" y1="1053.66" x2="649.98" y2="1057.27"/>
    <path class="st2" d="M649.98,987.03c-18.46,0-36.47,7.2-49.52,20.26-13.06,13.51-20.71,31.06-20.71,49.97"/>
    <g>
      <g>
        <g>
          <polygon class="st4" points="538.11 704.3 538.11 772.28 530.9 772.28 493.99 772.28 487.23 772.28 487.23 704.3 493.99 704.3 530.9 704.3 538.11 704.3"/>
          <path class="st4" d="M530.9,704.3h-36.91c1.8-4.95,5.4-9.01,9.9-11.71.45,0,.9-.45.45-.9-.45-.9-1.35-1.8-2.7-1.35-.9.45-2.25.9-3.6,1.8h-1.8v-.45c9.45-7.2,22.96-7.2,32.86,0,0,0,0,.45-.45.45h-1.8c-1.35-.9-2.25-1.35-3.6-1.8-.9-.45-2.25.45-2.7,1.35,0,.45,0,.9.45.9,4.5,2.7,8.1,6.76,9.9,11.71Z"/>
          <path class="st4" d="M493.99,772.28h36.91c-1.8,4.95-5.4,9-9.9,11.26-.45.45-.45.9-.45,1.35.45.9,1.8,1.35,2.7,1.35,1.35-.45,2.25-.9,3.6-1.8h1.8c.45,0,.45.45.45.45-9.9,7.2-23.41,7.2-32.86,0v-.45h1.8c1.35.9,2.7,1.35,3.6,1.8,1.35,0,2.25-.45,2.7-1.35.45-.45,0-.9-.45-1.35-4.5-2.26-8.1-6.31-9.9-11.26Z"/>
        </g>
        <line class="st2" x1="538.1" y1="772.28" x2="487.23" y2="772.28"/>
        <line class="st2" x1="487.23" y1="704.3" x2="538.1" y2="704.3"/>
        <line class="st2" x1="487.23" y1="772.28" x2="487.23" y2="704.3"/>
        <path class="st2" d="M496.23,784.89c9.45,7.2,22.96,7.2,32.87,0"/>
        <path class="st2" d="M521,783.54c4.5-2.25,8.1-6.3,9.9-11.26"/>
        <path class="st2" d="M521,783.54c-.45.45-.45.9-.45,1.35"/>
        <path class="st2" d="M523.25,786.24c1.35-.45,2.25-.9,3.6-1.8"/>
        <path class="st2" d="M520.55,784.89c.45.9,1.8,1.35,2.7,1.35"/>
        <path class="st2" d="M529.1,784.89s0-.45-.45-.45"/>
        <path class="st2" d="M528.65,784.44h-.9"/>
        <path class="st2" d="M527.75,784.44h-.9"/>
        <path class="st2" d="M493.98,772.28c1.8,4.95,5.4,9,9.9,11.26"/>
        <path class="st2" d="M504.34,784.89c.45-.45,0-.9-.45-1.35"/>
        <path class="st2" d="M498.03,784.44c1.35.9,2.7,1.35,3.6,1.8"/>
        <path class="st2" d="M501.64,786.24c1.35,0,2.25-.45,2.7-1.35"/>
        <line class="st2" x1="496.23" y1="784.44" x2="496.23" y2="784.89"/>
        <line class="st2" x1="497.58" y1="784.44" x2="496.23" y2="784.44"/>
        <line class="st2" x1="498.03" y1="784.44" x2="497.58" y2="784.44"/>
        <path class="st2" d="M529.1,691.7c-9.9-7.2-23.41-7.2-32.87,0"/>
        <path class="st2" d="M530.9,704.3c-1.8-4.95-5.4-9-9.9-11.71"/>
        <path class="st2" d="M520.55,691.7c0,.45,0,.9.45.9"/>
        <path class="st2" d="M526.85,692.15c-1.35-.9-2.25-1.35-3.6-1.8"/>
        <path class="st2" d="M523.25,690.35c-.9-.45-2.25.45-2.7,1.35"/>
        <path class="st2" d="M528.65,692.15c.45,0,.45-.45.45-.45"/>
        <path class="st2" d="M527.75,692.15h.9"/>
        <path class="st2" d="M526.85,692.15h.9"/>
        <path class="st2" d="M503.89,692.6c-4.5,2.7-8.1,6.75-9.9,11.71"/>
        <path class="st2" d="M503.89,692.6c.45,0,.9-.45.45-.9"/>
        <path class="st2" d="M501.64,690.35c-.9.45-2.25.9-3.6,1.8"/>
        <path class="st2" d="M504.34,691.7c-.45-.9-1.35-1.8-2.7-1.35"/>
        <line class="st2" x1="496.23" y1="691.7" x2="496.23" y2="692.15"/>
        <line class="st2" x1="496.23" y1="692.15" x2="497.58" y2="692.15"/>
        <line class="st2" x1="497.58" y1="692.15" x2="498.03" y2="692.15"/>
        <line class="st2" x1="538.1" y1="772.28" x2="487.23" y2="772.28"/>
        <line class="st2" x1="487.23" y1="704.3" x2="538.1" y2="704.3"/>
        <line class="st2" x1="487.23" y1="772.28" x2="487.23" y2="704.3"/>
        <path class="st2" d="M496.23,784.89c9.45,7.2,22.96,7.2,32.87,0"/>
        <path class="st2" d="M521,783.54c4.5-2.25,8.1-6.3,9.9-11.26"/>
        <path class="st2" d="M521,783.54c-.45.45-.45.9-.45,1.35"/>
        <path class="st2" d="M523.25,786.24c1.35-.45,2.25-.9,3.6-1.8"/>
        <path class="st2" d="M520.55,784.89c.45.9,1.8,1.35,2.7,1.35"/>
        <path class="st2" d="M529.1,784.89s0-.45-.45-.45"/>
        <path class="st2" d="M528.65,784.44h-.9"/>
        <path class="st2" d="M527.75,784.44h-.9"/>
        <path class="st2" d="M493.98,772.28c1.8,4.95,5.4,9,9.9,11.26"/>
        <path class="st2" d="M504.34,784.89c.45-.45,0-.9-.45-1.35"/>
        <path class="st2" d="M498.03,784.44c1.35.9,2.7,1.35,3.6,1.8"/>
        <path class="st2" d="M501.64,786.24c1.35,0,2.25-.45,2.7-1.35"/>
        <line class="st2" x1="496.23" y1="784.44" x2="496.23" y2="784.89"/>
        <line class="st2" x1="497.58" y1="784.44" x2="496.23" y2="784.44"/>
        <line class="st2" x1="498.03" y1="784.44" x2="497.58" y2="784.44"/>
        <path class="st2" d="M529.1,691.7c-9.9-7.2-23.41-7.2-32.87,0"/>
        <path class="st2" d="M530.9,704.3c-1.8-4.95-5.4-9-9.9-11.71"/>
        <path class="st2" d="M520.55,691.7c0,.45,0,.9.45.9"/>
        <path class="st2" d="M526.85,692.15c-1.35-.9-2.25-1.35-3.6-1.8"/>
        <path class="st2" d="M523.25,690.35c-.9-.45-2.25.45-2.7,1.35"/>
        <path class="st2" d="M528.65,692.15c.45,0,.45-.45.45-.45"/>
        <path class="st2" d="M527.75,692.15h.9"/>
        <path class="st2" d="M526.85,692.15h.9"/>
        <path class="st2" d="M503.89,692.6c-4.5,2.7-8.1,6.75-9.9,11.71"/>
        <path class="st2" d="M503.89,692.6c.45,0,.9-.45.45-.9"/>
        <path class="st2" d="M501.64,690.35c-.9.45-2.25.9-3.6,1.8"/>
        <path class="st2" d="M504.34,691.7c-.45-.9-1.35-1.8-2.7-1.35"/>
        <line class="st2" x1="496.23" y1="691.7" x2="496.23" y2="692.15"/>
        <line class="st2" x1="496.23" y1="692.15" x2="497.58" y2="692.15"/>
        <line class="st2" x1="497.58" y1="692.15" x2="498.03" y2="692.15"/>
      </g>
      <g>
        <g>
          <polygon class="st4" points="588.98 704.3 588.98 772.28 581.77 772.28 544.86 772.28 538.1 772.28 538.1 704.3 544.86 704.3 581.77 704.3 588.98 704.3"/>
          <path class="st4" d="M581.77,704.3h-36.91c1.8-4.95,5.4-9.01,9.9-11.71.45,0,.9-.45.45-.9-.45-.9-1.35-1.8-2.7-1.35-.9.45-2.25.9-3.6,1.8h-1.8v-.45c9.45-7.2,22.96-7.2,32.86,0,0,0,0,.45-.45.45h-1.8c-1.35-.9-2.25-1.35-3.6-1.8-.9-.45-2.25.45-2.7,1.35,0,.45,0,.9.45.9,4.5,2.7,8.1,6.76,9.9,11.71Z"/>
          <path class="st4" d="M544.86,772.28h36.91c-1.8,4.95-5.4,9-9.9,11.26-.45.45-.45.9-.45,1.35.45.9,1.8,1.35,2.7,1.35,1.35-.45,2.25-.9,3.6-1.8h1.8c.45,0,.45.45.45.45-9.9,7.2-23.41,7.2-32.86,0v-.45h1.8c1.35.9,2.7,1.35,3.6,1.8,1.35,0,2.25-.45,2.7-1.35.45-.45,0-.9-.45-1.35-4.5-2.26-8.1-6.31-9.9-11.26Z"/>
        </g>
        <line class="st2" x1="588.98" y1="772.28" x2="538.1" y2="772.28"/>
        <line class="st2" x1="538.1" y1="704.3" x2="588.98" y2="704.3"/>
        <line class="st2" x1="538.1" y1="772.28" x2="538.1" y2="704.3"/>
        <path class="st2" d="M547.11,784.89c9.45,7.2,22.96,7.2,32.87,0"/>
        <path class="st2" d="M571.87,783.54c4.5-2.25,8.1-6.3,9.9-11.26"/>
        <path class="st2" d="M571.87,783.54c-.45.45-.45.9-.45,1.35"/>
        <path class="st2" d="M574.12,786.24c1.35-.45,2.25-.9,3.6-1.8"/>
        <path class="st2" d="M571.42,784.89c.45.9,1.8,1.35,2.7,1.35"/>
        <path class="st2" d="M579.97,784.89s0-.45-.45-.45"/>
        <path class="st2" d="M579.52,784.44h-.9"/>
        <path class="st2" d="M578.62,784.44h-.9"/>
        <path class="st2" d="M544.86,772.28c1.8,4.95,5.4,9,9.9,11.26"/>
        <path class="st2" d="M555.21,784.89c.45-.45,0-.9-.45-1.35"/>
        <path class="st2" d="M548.91,784.44c1.35.9,2.7,1.35,3.6,1.8"/>
        <path class="st2" d="M552.51,786.24c1.35,0,2.25-.45,2.7-1.35"/>
        <line class="st2" x1="547.11" y1="784.44" x2="547.11" y2="784.89"/>
        <line class="st2" x1="548.46" y1="784.44" x2="547.11" y2="784.44"/>
        <line class="st2" x1="548.91" y1="784.44" x2="548.46" y2="784.44"/>
        <path class="st2" d="M579.97,691.7c-9.9-7.2-23.41-7.2-32.87,0"/>
        <path class="st2" d="M581.77,704.3c-1.8-4.95-5.4-9-9.9-11.71"/>
        <path class="st2" d="M571.42,691.7c0,.45,0,.9.45.9"/>
        <path class="st2" d="M577.72,692.15c-1.35-.9-2.25-1.35-3.6-1.8"/>
        <path class="st2" d="M574.12,690.35c-.9-.45-2.25.45-2.7,1.35"/>
        <path class="st2" d="M579.52,692.15c.45,0,.45-.45.45-.45"/>
        <path class="st2" d="M578.62,692.15h.9"/>
        <path class="st2" d="M577.72,692.15h.9"/>
        <path class="st2" d="M554.76,692.6c-4.5,2.7-8.1,6.75-9.9,11.71"/>
        <path class="st2" d="M554.76,692.6c.45,0,.9-.45.45-.9"/>
        <path class="st2" d="M552.51,690.35c-.9.45-2.25.9-3.6,1.8"/>
        <path class="st2" d="M555.21,691.7c-.45-.9-1.35-1.8-2.7-1.35"/>
        <line class="st2" x1="547.11" y1="691.7" x2="547.11" y2="692.15"/>
        <line class="st2" x1="547.11" y1="692.15" x2="548.46" y2="692.15"/>
        <line class="st2" x1="548.46" y1="692.15" x2="548.91" y2="692.15"/>
        <line class="st2" x1="588.98" y1="772.28" x2="538.1" y2="772.28"/>
        <line class="st2" x1="538.1" y1="704.3" x2="588.98" y2="704.3"/>
        <line class="st2" x1="538.1" y1="772.28" x2="538.1" y2="704.3"/>
        <path class="st2" d="M547.11,784.89c9.45,7.2,22.96,7.2,32.87,0"/>
        <path class="st2" d="M571.87,783.54c4.5-2.25,8.1-6.3,9.9-11.26"/>
        <path class="st2" d="M571.87,783.54c-.45.45-.45.9-.45,1.35"/>
        <path class="st2" d="M574.12,786.24c1.35-.45,2.25-.9,3.6-1.8"/>
        <path class="st2" d="M571.42,784.89c.45.9,1.8,1.35,2.7,1.35"/>
        <path class="st2" d="M579.97,784.89s0-.45-.45-.45"/>
        <path class="st2" d="M579.52,784.44h-.9"/>
        <path class="st2" d="M578.62,784.44h-.9"/>
        <path class="st2" d="M544.86,772.28c1.8,4.95,5.4,9,9.9,11.26"/>
        <path class="st2" d="M555.21,784.89c.45-.45,0-.9-.45-1.35"/>
        <path class="st2" d="M548.91,784.44c1.35.9,2.7,1.35,3.6,1.8"/>
        <path class="st2" d="M552.51,786.24c1.35,0,2.25-.45,2.7-1.35"/>
        <line class="st2" x1="547.11" y1="784.44" x2="547.11" y2="784.89"/>
        <line class="st2" x1="548.46" y1="784.44" x2="547.11" y2="784.44"/>
        <line class="st2" x1="548.91" y1="784.44" x2="548.46" y2="784.44"/>
        <path class="st2" d="M579.97,691.7c-9.9-7.2-23.41-7.2-32.87,0"/>
        <path class="st2" d="M581.77,704.3c-1.8-4.95-5.4-9-9.9-11.71"/>
        <path class="st2" d="M571.42,691.7c0,.45,0,.9.45.9"/>
        <path class="st2" d="M577.72,692.15c-1.35-.9-2.25-1.35-3.6-1.8"/>
        <path class="st2" d="M574.12,690.35c-.9-.45-2.25.45-2.7,1.35"/>
        <path class="st2" d="M579.52,692.15c.45,0,.45-.45.45-.45"/>
        <path class="st2" d="M578.62,692.15h.9"/>
        <path class="st2" d="M577.72,692.15h.9"/>
        <path class="st2" d="M554.76,692.6c-4.5,2.7-8.1,6.75-9.9,11.71"/>
        <path class="st2" d="M554.76,692.6c.45,0,.9-.45.45-.9"/>
        <path class="st2" d="M552.51,690.35c-.9.45-2.25.9-3.6,1.8"/>
        <path class="st2" d="M555.21,691.7c-.45-.9-1.35-1.8-2.7-1.35"/>
        <line class="st2" x1="547.11" y1="691.7" x2="547.11" y2="692.15"/>
        <line class="st2" x1="547.11" y1="692.15" x2="548.46" y2="692.15"/>
        <line class="st2" x1="548.46" y1="692.15" x2="548.91" y2="692.15"/>
      </g>
    </g>
    <g>
      <rect class="st0" x="693.52" y="653.43" width="32.87" height="32.87" transform="translate(40.09 1379.82) rotate(-90)"/>
      <g>
        <path class="st4" d="M650.41,622.59c-.45,1.8-.45,3.6.45,4.95,6.3,12.15,16.66,22.06,29.71,27.01,1.8.45,3.6.45,4.95,0s2.25-1.35,3.16-2.25l14.85-12.16c.45-.45.45-.9.9-.9,1.35-1.35,2.25-3.15,2.7-4.95,0-5.4-.45-10.35-1.8-15.31-.9-5.4-3.6-9.9-7.65-13.5-3.6-3.6-9-5.85-14.41-6.3-4.95-.45-9.9-.45-14.85,0-1.81.45-3.61,1.8-4.96,3.15,0,.45-.45.45-.45.9l-10.8,16.21c-.9.9-1.35,1.8-1.8,3.15Z"/>
        <path class="st2" d="M705.33,618.99c1.35,4.95,1.8,9.9,1.8,15.31"/>
        <path class="st2" d="M707.13,634.3c-.45,1.8-1.35,3.6-2.7,4.95"/>
        <path class="st2" d="M704.43,639.25c-.45,0-.45.45-.9.9"/>
        <line class="st2" x1="703.53" y1="640.15" x2="688.67" y2="652.3"/>
        <path class="st2" d="M688.67,652.3c-.9.9-1.8,1.8-3.15,2.25"/>
        <path class="st2" d="M685.52,654.56c-1.35.45-3.15.45-4.95,0"/>
        <path class="st2" d="M697.68,605.48c4.05,3.6,6.75,8.1,7.65,13.51"/>
        <path class="st2" d="M693.17,610.43c1.35.9,2.25,1.8,3.15,2.7"/>
        <path class="st2" d="M696.33,613.14c4.5,5.85,5.4,13.96,2.25,20.71"/>
        <path class="st2" d="M698.58,633.85c-2.25,3.15-4.5,6.3-7.2,9.45"/>
        <path class="st2" d="M668.41,599.18c4.95-.45,9.9-.45,14.86,0"/>
        <path class="st2" d="M663.46,602.33c1.35-1.35,3.15-2.7,4.95-3.15"/>
        <path class="st2" d="M663.01,603.23c0-.45.45-.45.45-.9"/>
        <line class="st2" x1="663.01" y1="603.23" x2="652.2" y2="619.44"/>
        <path class="st2" d="M650.4,622.59c.45-1.35.9-2.25,1.8-3.15"/>
        <path class="st2" d="M650.85,627.54c-.9-1.35-.9-3.15-.45-4.95"/>
        <path class="st2" d="M683.27,599.18c5.4.45,10.81,2.7,14.41,6.3"/>
        <path class="st2" d="M690.02,607.73c1.35.9,2.25,1.8,3.15,2.7"/>
        <path class="st2" d="M669.76,607.73c6.3-4.05,14.41-4.05,20.26,0"/>
        <path class="st2" d="M660.76,615.84c2.7-3.15,5.85-5.85,9-8.1"/>
        <path class="st2" d="M680.57,654.56c-13.06-4.95-23.41-14.86-29.71-27.01"/>
        <path class="st2" d="M705.33,618.99c1.35,4.95,1.8,9.9,1.8,15.31"/>
        <path class="st2" d="M707.13,634.3c-.45,1.8-1.35,3.6-2.7,4.95"/>
        <path class="st2" d="M704.43,639.25c-.45,0-.45.45-.9.9"/>
        <line class="st2" x1="703.53" y1="640.15" x2="688.67" y2="652.3"/>
        <path class="st2" d="M688.67,652.3c-.9.9-1.8,1.8-3.15,2.25"/>
        <path class="st2" d="M685.52,654.56c-1.35.45-3.15.45-4.95,0"/>
        <path class="st2" d="M697.68,605.48c4.05,3.6,6.75,8.1,7.65,13.51"/>
        <path class="st2" d="M693.17,610.43c1.35.9,2.25,1.8,3.15,2.7"/>
        <path class="st2" d="M696.33,613.14c4.5,5.85,5.4,13.96,2.25,20.71"/>
        <path class="st2" d="M698.58,633.85c-2.25,3.15-4.5,6.3-7.2,9.45"/>
        <path class="st2" d="M668.41,599.18c4.95-.45,9.9-.45,14.86,0"/>
        <path class="st2" d="M663.46,602.33c1.35-1.35,3.15-2.7,4.95-3.15"/>
        <path class="st2" d="M663.01,603.23c0-.45.45-.45.45-.9"/>
        <line class="st2" x1="663.01" y1="603.23" x2="652.2" y2="619.44"/>
        <path class="st2" d="M650.4,622.59c.45-1.35.9-2.25,1.8-3.15"/>
        <path class="st2" d="M650.85,627.54c-.9-1.35-.9-3.15-.45-4.95"/>
        <path class="st2" d="M683.27,599.18c5.4.45,10.81,2.7,14.41,6.3"/>
        <path class="st2" d="M690.02,607.73c1.35.9,2.25,1.8,3.15,2.7"/>
        <path class="st2" d="M669.76,607.73c6.3-4.05,14.41-4.05,20.26,0"/>
        <path class="st2" d="M660.76,615.84c2.7-3.15,5.85-5.85,9-8.1"/>
        <path class="st2" d="M680.57,654.56c-13.06-4.95-23.41-14.86-29.71-27.01"/>
      </g>
    </g>
    <line class="st2" x1="656.73" y1="935.26" x2="780.09" y2="969.47"/>
    <line class="st2" x1="656.73" y1="969.47" x2="780.09" y2="935.26"/>
    <line class="st2" x1="656.73" y1="935.26" x2="656.73" y2="969.47"/>
    <line class="st2" x1="490.16" y1="1112.64" x2="490.16" y2="1033.85"/>
    <line class="st2" x1="493.31" y1="1112.64" x2="490.16" y2="1112.64"/>
    <path class="st2" d="M568.49,1112.64c0-20.71-8.1-40.97-22.96-55.83-14.86-14.41-34.67-22.96-55.38-22.96"/>
    <line class="st2" x1="513.57" y1="572.39" x2="512.67" y2="572.39"/>
    <line class="st2" x1="605.41" y1="572.39" x2="604.06" y2="572.39"/>
    <line class="st2" x1="697.25" y1="572.39" x2="695.9" y2="572.39"/>
    <line class="st2" x1="656.73" y1="969.47" x2="656.73" y2="935.26"/>
    <line class="st2" x1="604.06" y1="572.39" x2="600.01" y2="572.39"/>
    <line class="st2" x1="600.01" y1="572.39" x2="600.01" y2="559.78"/>
    <line class="st2" x1="600.01" y1="559.78" x2="604.06" y2="559.78"/>
    <line class="st2" x1="604.06" y1="559.78" x2="604.06" y2="572.39"/>
    <line class="st2" x1="517.62" y1="572.39" x2="513.57" y2="572.39"/>
    <line class="st2" x1="513.57" y1="572.39" x2="513.57" y2="559.78"/>
    <line class="st2" x1="513.57" y1="559.78" x2="517.62" y2="559.78"/>
    <line class="st2" x1="517.62" y1="559.78" x2="517.62" y2="572.39"/>
    <line class="st2" x1="600.01" y1="559.78" x2="517.62" y2="559.78"/>
    <line class="st2" x1="600.01" y1="564.74" x2="517.62" y2="564.74"/>
    <line class="st2" x1="517.62" y1="564.74" x2="517.62" y2="560.69"/>
    <line class="st2" x1="517.62" y1="560.69" x2="600.01" y2="560.69"/>
    <line class="st2" x1="600.01" y1="560.69" x2="600.01" y2="564.74"/>
    <line class="st2" x1="688.25" y1="559.78" x2="613.06" y2="559.78"/>
    <line class="st2" x1="613.06" y1="559.78" x2="688.25" y2="559.78"/>
    <line class="st2" x1="693.65" y1="559.78" x2="608.11" y2="559.78"/>
    <line class="st2" x1="694.1" y1="559.78" x2="607.21" y2="559.78"/>
    <line class="st2" x1="605.41" y1="559.78" x2="695.9" y2="559.78"/>
    <line class="st2" x1="609.46" y1="572.39" x2="605.41" y2="572.39"/>
    <line class="st2" x1="605.41" y1="572.39" x2="605.41" y2="559.78"/>
    <line class="st2" x1="605.41" y1="559.78" x2="613.06" y2="559.78"/>
    <line class="st2" x1="613.06" y1="559.78" x2="613.06" y2="566.54"/>
    <line class="st2" x1="613.06" y1="566.54" x2="609.46" y2="566.54"/>
    <line class="st2" x1="609.46" y1="566.54" x2="609.46" y2="572.39"/>
    <line class="st2" x1="695.9" y1="572.39" x2="691.85" y2="572.39"/>
    <line class="st2" x1="691.85" y1="572.39" x2="691.85" y2="566.54"/>
    <line class="st2" x1="691.85" y1="566.54" x2="688.25" y2="566.54"/>
    <line class="st2" x1="688.25" y1="566.54" x2="688.25" y2="559.78"/>
    <line class="st2" x1="688.25" y1="559.78" x2="695.9" y2="559.78"/>
    <line class="st2" x1="695.9" y1="559.78" x2="695.9" y2="572.39"/>
    <line class="st2" x1="688.25" y1="566.54" x2="613.06" y2="566.54"/>
    <line class="st2" x1="688.25" y1="559.78" x2="613.06" y2="559.78"/>
    <line class="st2" x1="609.46" y1="572.39" x2="691.85" y2="572.39"/>
    <line class="st2" x1="688.25" y1="564.74" x2="613.06" y2="564.74"/>
    <line class="st2" x1="613.06" y1="564.74" x2="613.06" y2="560.69"/>
    <line class="st2" x1="613.06" y1="560.69" x2="688.25" y2="560.69"/>
    <line class="st2" x1="688.25" y1="560.69" x2="688.25" y2="564.74"/>
    <line class="st2" x1="649.98" y1="936.16" x2="649.98" y2="935.26"/>
    <line class="st2" x1="649.98" y1="969.47" x2="649.98" y2="968.12"/>
    <line class="st2" x1="649.98" y1="968.12" x2="652.23" y2="968.12"/>
    <line class="st2" x1="649.98" y1="936.16" x2="649.98" y2="968.12"/>
    <line class="st2" x1="652.23" y1="936.16" x2="649.98" y2="936.16"/>
    <line class="st2" x1="652.23" y1="968.12" x2="652.23" y2="936.16"/>
    <line class="st2" x1="649.98" y1="1057.27" x2="579.75" y2="1057.27"/>
    <line class="st2" x1="649.98" y1="1053.66" x2="649.98" y2="1057.27"/>
    <path class="st2" d="M649.98,987.03c-18.46,0-36.47,7.2-49.52,20.26-13.06,13.51-20.71,31.06-20.71,49.97"/>
    <line class="st2" x1="656.28" y1="974.43" x2="656.28" y2="975.33"/>
    <line class="st2" x1="656.28" y1="974.43" x2="656.28" y2="975.33"/>
    <line class="st2" x1="517.62" y1="572.39" x2="600.01" y2="572.39"/>
    <line class="st2" x1="517.62" y1="572.39" x2="600.01" y2="572.39"/>
    <circle class="st0" cx="679.89" cy="909.96" r="15.09"/>
    <rect class="st0" x="487.23" y="704.3" width="101.75" height="67.98"/>
  </g>
  <g id="pareti">
    <g>
      <polygon class="st5" points="785.94 714.66 785.94 1123.45 780.09 1129.75 571.19 1129.75 571.19 1112.64 572.09 1112.64 649.98 1112.64 649.98 1060.87 649.98 1059.52 656.28 1059.52 656.28 1060.87 656.28 1112.64 779.64 1112.64 779.64 974.43 656.28 974.43 656.28 975.33 656.28 983.43 656.28 984.33 649.98 984.33 649.98 983.43 649.98 969.48 780.09 969.48 780.09 935.26 649.98 935.26 649.98 930.31 780.09 930.31 780.09 754.73 738.22 754.73 738.22 591.75 697.25 591.75 697.25 560.69 697.25 551.23 717.51 551.23 717.51 549.88 732.82 549.88 732.82 551.23 777.84 551.23 777.84 714.66 785.94 714.66"/>
      <polygon class="st5" points="512.66 551.23 512.66 591.75 478 591.75 478 1112.64 486.1 1112.64 487.45 1112.64 487.45 1129.75 469.44 1129.75 469.44 551.23 512.66 551.23"/>
    </g>
    <rect class="st6" x="-108.2" y="792.55" width="56.69" height="56.69"/>
    <rect class="st5" x="-108.2" y="731.35" width="56.69" height="56.69"/>
  </g>
</svg>