<?xml version="1.0" encoding="UTF-8"?>
<svg xmlns="http://www.w3.org/2000/svg" version="1.1" viewBox="0 0 1200 1697.14">
  <!-- Generator: Adobe Illustrator 29.6.0, SVG Export Plug-In . SVG Version: 2.1.1 Build 207)  -->
  <defs>
    <style>
      .st0, .st1 {
        stroke: #0d101f;
      }

      .st0, .st1, .st2, .st3, .st4 {
        stroke-linecap: round;
        stroke-linejoin: round;
        stroke-width: .15px;
      }

      .st0, .st5 {
        fill: #fff;
      }

      .st1, .st2, .st6, .st3, .st4 {
        fill: none;
      }

      .st2, .st6 {
        stroke: #fff;
      }

      .st7 {
        fill: #383037;
      }

      .st6 {
        stroke-miterlimit: 10;
        stroke-width: .25px;
      }

      .st3 {
        stroke: #1d1d1b;
      }

      .st4 {
        stroke: #12100e;
      }

      .st8 {
        fill: #f2efed;
      }
    </style>
  </defs>
  <g id="sfondo">
    <polygon class="st8" points="771.24 569.2 771.24 1147.72 553.79 1147.72 470.05 1147.72 460.15 1147.72 452.04 1139.16 451.59 640.78 427.73 640.78 427.73 569.2 508.32 569.2 508.32 590.36 692.91 590.36 692.91 569.2 713.16 569.2 713.16 567.85 728.47 567.85 728.47 569.2 771.24 569.2"/>
  </g>
  <g id="letto">
    <g>
      <g id="POLYLINE">
        <line class="st1" x1="706.72" y1="970.32" x2="706.84" y2="970.32"/>
      </g>
      <g id="POLYLINE1" data-name="POLYLINE">
        <line class="st1" x1="706.72" y1="970.32" x2="706.84" y2="970.32"/>
      </g>
      <g>
        <g>
          <polygon class="st5" points="683.97 776.44 683.97 776 761.48 776 761.48 924.28 760.5 923.79 760.5 776.44 683.97 776.44"/>
          <path class="st5" d="M683.97,885.92v-109.48h76.53v147.35l-17.01-8.41c-7.31-3.62-13.36-6.61-18.37-9.09l-2.63-1.3c-5.59-2.77-9.73-4.82-12.79-6.34l-1.16-.57-7.56-3.74-17.01-8.42Z"/>
          <path class="st5" d="M683.97,946.52v-60.6l17.01,8.42v30.18c0,1.94,1.56,3.51,3.5,3.51h35.51c1.94,0,3.5-1.57,3.5-3.51v-9.14l17.01,8.41v22.73h-76.53Z"/>
          <path class="st5" d="M700.98,924.52v-30.18l7.56,3.74c.37.19.75.38,1.16.57,3.06,1.52,7.2,3.57,12.79,6.34.85.41,1.72.85,2.63,1.3,5.01,2.48,11.06,5.47,18.37,9.09v9.14c0,1.94-1.56,3.51-3.5,3.51h-35.51c-1.94,0-3.5-1.57-3.5-3.51Z"/>
        </g>
        <g>
          <polyline class="st1" points="760.5 923.79 760.5 946.52 683.97 946.52 683.97 885.92"/>
          <polyline class="st1" points="743.49 915.38 760.5 923.79 761.48 924.28 761.48 776 683.97 776 683.97 776.44 683.97 885.92 700.98 894.34"/>
          <line class="st1" x1="722.49" y1="904.99" x2="725.12" y2="906.29"/>
          <line class="st1" x1="708.54" y1="898.08" x2="709.7" y2="898.65"/>
          <line class="st1" x1="739.99" y1="928.03" x2="704.48" y2="928.03"/>
          <path class="st1" d="M704.48,928.03c-1.94,0-3.5-1.57-3.5-3.51"/>
          <path class="st1" d="M743.49,924.52c0,1.94-1.56,3.51-3.5,3.51"/>
          <path class="st1" d="M743.49,924.52v-9.14c-7.31-3.62-13.36-6.61-18.37-9.09-.91-.45-1.78-.89-2.63-1.3-5.59-2.77-9.73-4.82-12.79-6.34-.41-.19-.79-.38-1.16-.57l-7.56-3.74v30.18"/>
        </g>
      </g>
      <g id="POLYLINE2" data-name="POLYLINE">
        <polygon class="st1" points="761.48 924.27 761.48 776 683.97 776 683.97 885.92 761.48 924.27"/>
      </g>
      <g id="POLYLINE3" data-name="POLYLINE">
        <polygon class="st1" points="761.48 924.27 761.48 776 683.97 776 683.97 885.92 761.48 924.27"/>
      </g>
      <g id="LINE">
        <line class="st1" x1="739.99" y1="928.02" x2="704.48" y2="928.02"/>
      </g>
      <g id="SPLINE">
        <path class="st1" d="M704.48,928.02c-1.94,0-3.5-1.57-3.5-3.5"/>
      </g>
      <g id="SPLINE1" data-name="SPLINE">
        <path class="st1" d="M743.5,924.52c0,1.93-1.57,3.5-3.5,3.5"/>
      </g>
      <g id="LINE1" data-name="LINE">
        <line class="st1" x1="739.99" y1="928.02" x2="704.48" y2="928.02"/>
      </g>
      <g id="SPLINE2" data-name="SPLINE">
        <path class="st1" d="M704.48,928.02c-1.94,0-3.5-1.57-3.5-3.5"/>
      </g>
      <g id="SPLINE3" data-name="SPLINE">
        <path class="st1" d="M743.5,924.52c0,1.93-1.57,3.5-3.5,3.5"/>
      </g>
      <line class="st1" x1="743.5" y1="924.52" x2="743.5" y2="915.37"/>
      <line class="st1" x1="700.98" y1="924.52" x2="700.98" y2="894.34"/>
    </g>
    <g>
      <rect class="st5" x="575.55" y="1079.22" width="55.54" height="55.15"/>
      <line class="st4" x1="631.09" y1="1134.37" x2="631.09" y2="1133.19"/>
      <line class="st4" x1="631.09" y1="1130.46" x2="631.09" y2="1127.72"/>
      <line class="st4" x1="631.09" y1="1124.98" x2="631.09" y2="1122.24"/>
      <line class="st4" x1="631.09" y1="1119.5" x2="631.09" y2="1116.37"/>
      <line class="st4" x1="631.09" y1="1113.64" x2="631.09" y2="1110.9"/>
      <line class="st4" x1="631.09" y1="1108.16" x2="631.09" y2="1105.42"/>
      <line class="st4" x1="631.09" y1="1102.68" x2="631.09" y2="1099.95"/>
      <line class="st4" x1="631.09" y1="1097.21" x2="631.09" y2="1094.47"/>
      <line class="st4" x1="631.09" y1="1091.73" x2="631.09" y2="1088.99"/>
      <line class="st4" x1="631.09" y1="1085.87" x2="631.09" y2="1083.13"/>
      <line class="st4" x1="631.09" y1="1080.39" x2="631.09" y2="1079.22"/>
      <line class="st4" x1="631.09" y1="1079.22" x2="629.52" y2="1079.22"/>
      <line class="st4" x1="626.78" y1="1079.22" x2="624.05" y2="1079.22"/>
      <line class="st4" x1="621.31" y1="1079.22" x2="618.57" y2="1079.22"/>
      <line class="st4" x1="615.83" y1="1079.22" x2="613.09" y2="1079.22"/>
      <line class="st4" x1="610.36" y1="1079.22" x2="607.62" y2="1079.22"/>
      <line class="st4" x1="604.88" y1="1079.22" x2="601.75" y2="1079.22"/>
      <line class="st4" x1="599.01" y1="1079.22" x2="596.28" y2="1079.22"/>
      <line class="st4" x1="593.54" y1="1079.22" x2="590.8" y2="1079.22"/>
      <line class="st4" x1="588.06" y1="1079.22" x2="585.32" y2="1079.22"/>
      <line class="st4" x1="582.59" y1="1079.22" x2="579.85" y2="1079.22"/>
      <line class="st4" x1="577.11" y1="1079.22" x2="575.55" y2="1079.22"/>
      <line class="st4" x1="575.55" y1="1079.22" x2="575.55" y2="1080.39"/>
      <line class="st4" x1="575.55" y1="1083.13" x2="575.55" y2="1085.87"/>
      <line class="st4" x1="575.55" y1="1088.99" x2="575.55" y2="1091.73"/>
      <line class="st4" x1="575.55" y1="1094.47" x2="575.55" y2="1097.21"/>
      <line class="st4" x1="575.55" y1="1099.95" x2="575.55" y2="1102.68"/>
      <line class="st4" x1="575.55" y1="1105.42" x2="575.55" y2="1108.16"/>
      <line class="st4" x1="575.55" y1="1110.9" x2="575.55" y2="1113.64"/>
      <line class="st4" x1="575.55" y1="1116.37" x2="575.55" y2="1119.5"/>
      <line class="st4" x1="575.55" y1="1122.24" x2="575.55" y2="1124.98"/>
      <line class="st4" x1="575.55" y1="1127.72" x2="575.55" y2="1130.46"/>
      <line class="st4" x1="575.55" y1="1133.19" x2="575.55" y2="1134.37"/>
      <path class="st4" d="M631.09,1079.22"/>
      <line class="st4" x1="631.09" y1="1079.22" x2="631.09" y2="1080.39"/>
      <line class="st4" x1="631.09" y1="1083.13" x2="631.09" y2="1085.87"/>
      <line class="st4" x1="631.09" y1="1088.99" x2="631.09" y2="1091.73"/>
      <line class="st4" x1="631.09" y1="1094.47" x2="631.09" y2="1097.21"/>
      <line class="st4" x1="631.09" y1="1099.95" x2="631.09" y2="1102.68"/>
      <line class="st4" x1="631.09" y1="1105.42" x2="631.09" y2="1108.16"/>
      <line class="st4" x1="631.09" y1="1110.9" x2="631.09" y2="1113.64"/>
      <line class="st4" x1="631.09" y1="1116.37" x2="631.09" y2="1119.5"/>
      <line class="st4" x1="631.09" y1="1122.24" x2="631.09" y2="1124.98"/>
      <line class="st4" x1="631.09" y1="1127.72" x2="631.09" y2="1130.46"/>
      <line class="st4" x1="631.09" y1="1133.19" x2="631.09" y2="1134.37"/>
    </g>
  </g>
  <g id="bianchi">
    <g>
      <polygon class="st5" points="762.78 1129.48 762.78 1130.6 762.18 1130.6 762.78 1129.48"/>
      <polygon class="st5" points="762.78 1063.16 762.78 1129.48 762.18 1130.6 695.86 1130.6 694.74 1130.01 694.74 1063.69 695.34 1062.56 761.66 1062.56 762.78 1063.16"/>
      <polygon class="st5" points="762.78 1063.16 761.66 1062.56 762.78 1062.56 762.78 1063.16"/>
      <polygon class="st5" points="695.86 1130.6 694.74 1130.6 694.74 1130.01 695.86 1130.6"/>
      <polygon class="st5" points="695.34 1062.56 694.74 1063.69 694.74 1062.56 695.34 1062.56"/>
    </g>
    <g id="LINE2" data-name="LINE">
      <path class="st5" d="M739.76,992.39v24.72c0,9.52-6.83,17.21-15.29,17.21s-15.28-7.69-15.28-17.21v-24.72h30.57Z"/>
    </g>
    <path class="st5" d="M647.97,1130.6v-27.68c0-.61.29-1.11.66-1.11h37.37c.45,0,.82.5.82,1.11v27.68h-38.85Z"/>
    <g>
      <polygon class="st5" points="693.36 994.09 693.36 995.45 655.99 995.45 655.99 994.09 660.94 994.09 687.95 994.09 693.36 994.09"/>
      <rect class="st5" x="660.94" y="992.29" width="27.01" height="1.8"/>
    </g>
    <rect class="st5" x="470.05" y="1130.6" width="83.74" height="38.39"/>
  </g>
  <g id="Livello_1">
    <circle class="st3" cx="728.76" cy="1111.79" r="4.23"/>
    <circle class="st3" cx="728.76" cy="1111.79" r="4.23"/>
    <line class="st3" x1="761.57" y1="1062.56" x2="695.25" y2="1062.56"/>
    <line class="st3" x1="694.65" y1="1063.69" x2="694.65" y2="1130.01"/>
    <line class="st3" x1="695.77" y1="1130.6" x2="762.09" y2="1130.6"/>
    <line class="st3" x1="762.69" y1="1129.48" x2="762.69" y2="1063.16"/>
    <polyline class="st3" points="761.57 1062.56 762.69 1062.56 762.69 1063.16"/>
    <polyline class="st3" points="762.69 1129.48 762.69 1130.6 762.09 1130.6"/>
    <polyline class="st3" points="695.77 1130.6 694.65 1130.6 694.65 1130.01"/>
    <polyline class="st3" points="694.65 1063.69 694.65 1062.56 695.25 1062.56"/>
    <circle class="st3" cx="667.39" cy="1126.31" r="2.2" transform="translate(-539.1 618.01) rotate(-36.51)"/>
    <circle class="st3" cx="667.39" cy="1111.86" r="2.93" transform="translate(-568.06 1505.95) rotate(-76.72)"/>
    <path class="st3" d="M665.82,1111.86c0-.87.71-1.58,1.58-1.58s1.58.71,1.58,1.58-.71,1.58-1.58,1.58-1.58-.71-1.58-1.58Z"/>
    <path class="st3" d="M686.08,1120.26v-16.22c0-.62-.37-1.11-.82-1.11h-35.72c-.45,0-.82.5-.82,1.11v16.22c0,.61.37,1.11.82,1.11h35.72c.45,0,.82-.5.82-1.11Z"/>
    <path class="st3" d="M686.74,1130.6v-27.68c0-.62-.29-1.11-.66-1.11h-37.37c-.45,0-.82.49-.82,1.11v27.68"/>
    <line class="st3" x1="647.89" y1="1111.7" x2="647.89" y2="1122.05"/>
    <line class="st3" x1="676.25" y1="1101.79" x2="657.79" y2="1101.79"/>
    <line class="st3" x1="647.89" y1="1111.7" x2="647.89" y2="1122.05"/>
    <line class="st3" x1="676.25" y1="1101.79" x2="657.79" y2="1101.79"/>
    <line class="st3" x1="647.89" y1="1122.05" x2="647.89" y2="1111.7"/>
    <line class="st3" x1="657.79" y1="1101.79" x2="676.25" y2="1101.79"/>
    <line class="st3" x1="647.89" y1="1111.7" x2="647.89" y2="1122.05"/>
    <line class="st3" x1="676.25" y1="1101.79" x2="657.79" y2="1101.79"/>
    <line class="st3" x1="647.89" y1="1111.7" x2="647.89" y2="1122.05"/>
    <line class="st3" x1="676.25" y1="1101.79" x2="657.79" y2="1101.79"/>
    <line class="st3" x1="647.89" y1="1122.05" x2="647.89" y2="1111.7"/>
    <line class="st3" x1="657.79" y1="1101.79" x2="676.25" y2="1101.79"/>
    <path class="st3" d="M739.76,992.39v24.72c0,9.52-6.84,17.22-15.29,17.22s-15.29-7.7-15.29-17.22v-24.72h30.58Z"/>
    <line class="st3" x1="655.99" y1="995.54" x2="693.36" y2="995.54"/>
    <line class="st3" x1="693.36" y1="995.54" x2="693.36" y2="994.19"/>
    <line class="st3" x1="693.36" y1="994.19" x2="655.99" y2="994.19"/>
    <line class="st3" x1="655.99" y1="994.19" x2="655.99" y2="995.54"/>
    <line class="st3" x1="660.94" y1="994.19" x2="660.94" y2="992.39"/>
    <line class="st3" x1="687.96" y1="992.39" x2="687.96" y2="994.19"/>
    <line class="st3" x1="655.99" y1="995.54" x2="693.36" y2="995.54"/>
    <line class="st3" x1="693.36" y1="995.54" x2="693.36" y2="994.19"/>
    <line class="st3" x1="693.36" y1="994.19" x2="655.99" y2="994.19"/>
    <line class="st3" x1="655.99" y1="994.19" x2="655.99" y2="995.54"/>
    <line class="st3" x1="660.94" y1="994.19" x2="660.94" y2="992.39"/>
    <line class="st3" x1="687.96" y1="992.39" x2="687.96" y2="994.19"/>
    <path class="st3" d="M633.03,1005c-18.46,0-36.47,7.2-49.52,20.26-13.06,13.51-20.26,31.06-20.26,49.97"/>
    <line class="st3" x1="635.28" y1="986.09" x2="635.28" y2="954.12"/>
    <line class="st3" x1="635.28" y1="954.12" x2="633.03" y2="954.12"/>
    <line class="st3" x1="633.03" y1="954.12" x2="633.03" y2="986.09"/>
    <line class="st3" x1="633.03" y1="986.09" x2="635.28" y2="986.09"/>
    <line class="st3" x1="639.78" y1="953.22" x2="639.78" y2="987.44"/>
    <line class="st3" x1="633.03" y1="987.44" x2="633.03" y2="986.09"/>
    <line class="st3" x1="633.03" y1="954.12" x2="633.03" y2="953.22"/>
    <g>
      <g id="POLYLINE4" data-name="POLYLINE">
        <rect class="st5" x="461.51" y="920.06" width="51.43" height="101.75"/>
      </g>
      <line class="st3" x1="479.27" y1="993.99" x2="466.8" y2="993.99"/>
      <rect class="st3" x="464.06" y="970.69" width="46.44" height="46.6"/>
      <rect class="st3" x="471.77" y="978.56" width="31.01" height="31.01"/>
      <rect class="st3" x="464.28" y="922.95" width="45.99" height="26.81"/>
      <line class="st3" x1="469.65" y1="936.76" x2="481.83" y2="936.76"/>
      <line class="st3" x1="492.72" y1="936.76" x2="504.91" y2="936.76"/>
      <line class="st3" x1="498.73" y1="942.77" x2="498.73" y2="930.58"/>
      <line class="st3" x1="475.82" y1="942.77" x2="475.82" y2="930.58"/>
      <rect class="st3" x="461.61" y="920.06" width="51.32" height="101.75"/>
    </g>
    <line class="st3" x1="633.03" y1="1005" x2="633.03" y2="1075.23"/>
    <line class="st3" x1="633.03" y1="1075.23" x2="563.25" y2="1075.23"/>
    <line class="st3" x1="517.33" y1="582.7" x2="592.06" y2="582.7"/>
    <line class="st3" x1="592.06" y1="582.7" x2="592.06" y2="578.65"/>
    <line class="st3" x1="592.06" y1="578.65" x2="517.33" y2="578.65"/>
    <line class="st3" x1="517.33" y1="578.65" x2="517.33" y2="582.7"/>
    <line class="st3" x1="595.66" y1="590.35" x2="513.72" y2="590.35"/>
    <line class="st3" x1="517.33" y1="577.75" x2="592.06" y2="577.75"/>
    <line class="st3" x1="517.33" y1="584.5" x2="592.06" y2="584.5"/>
    <line class="st3" x1="595.66" y1="590.35" x2="600.16" y2="590.35"/>
    <line class="st3" x1="600.16" y1="590.35" x2="600.16" y2="577.75"/>
    <line class="st3" x1="600.16" y1="577.75" x2="592.06" y2="577.75"/>
    <line class="st3" x1="592.06" y1="577.75" x2="592.06" y2="584.5"/>
    <line class="st3" x1="592.06" y1="584.5" x2="595.66" y2="584.5"/>
    <line class="st3" x1="595.66" y1="584.5" x2="595.66" y2="590.35"/>
    <line class="st3" x1="509.22" y1="590.35" x2="513.72" y2="590.35"/>
    <line class="st3" x1="513.72" y1="590.35" x2="513.72" y2="584.5"/>
    <line class="st3" x1="513.72" y1="584.5" x2="517.33" y2="584.5"/>
    <line class="st3" x1="517.33" y1="584.5" x2="517.33" y2="577.75"/>
    <line class="st3" x1="517.33" y1="577.75" x2="509.22" y2="577.75"/>
    <line class="st3" x1="509.22" y1="577.75" x2="509.22" y2="590.35"/>
    <line class="st3" x1="600.16" y1="577.75" x2="509.22" y2="577.75"/>
    <line class="st3" x1="511.47" y1="577.75" x2="597.91" y2="577.75"/>
    <line class="st3" x1="511.92" y1="577.75" x2="597.46" y2="577.75"/>
    <line class="st3" x1="592.06" y1="577.75" x2="517.33" y2="577.75"/>
    <line class="st3" x1="517.33" y1="577.75" x2="592.06" y2="577.75"/>
    <line class="st3" x1="605.57" y1="582.7" x2="687.51" y2="582.7"/>
    <line class="st3" x1="687.51" y1="582.7" x2="687.51" y2="578.65"/>
    <line class="st3" x1="687.51" y1="578.65" x2="605.57" y2="578.65"/>
    <line class="st3" x1="605.57" y1="578.65" x2="605.57" y2="582.7"/>
    <line class="st3" x1="687.51" y1="590.35" x2="605.57" y2="590.35"/>
    <line class="st3" x1="605.57" y1="577.75" x2="687.51" y2="577.75"/>
    <line class="st3" x1="601.07" y1="590.35" x2="605.57" y2="590.35"/>
    <line class="st3" x1="605.57" y1="590.35" x2="605.57" y2="577.75"/>
    <line class="st3" x1="605.57" y1="577.75" x2="601.07" y2="577.75"/>
    <line class="st3" x1="601.07" y1="577.75" x2="601.07" y2="590.35"/>
    <line class="st3" x1="687.51" y1="590.35" x2="692.01" y2="590.35"/>
    <line class="st3" x1="692.01" y1="590.35" x2="692.01" y2="577.75"/>
    <line class="st3" x1="692.01" y1="577.75" x2="687.51" y2="577.75"/>
    <line class="st3" x1="687.51" y1="577.75" x2="687.51" y2="590.35"/>
    <line class="st3" x1="692.91" y1="590.35" x2="692.01" y2="590.35"/>
    <line class="st3" x1="601.07" y1="590.35" x2="600.16" y2="590.35"/>
    <line class="st3" x1="509.22" y1="590.35" x2="508.32" y2="590.35"/>
    <line class="st3" x1="472.27" y1="1130.54" x2="472.52" y2="1130.54"/>
    <path class="st3" d="M551.09,1130.6c0-20.71-8.1-40.97-22.96-55.83-14.86-14.41-34.67-22.96-55.83-22.96"/>
    <line class="st3" x1="475.91" y1="1130.6" x2="472.31" y2="1130.6"/>
    <line class="st3" x1="472.31" y1="1130.6" x2="472.31" y2="1051.82"/>
    <line class="st3" x1="472.27" y1="1130.54" x2="472.52" y2="1130.54"/>
    <line class="st3" x1="762.69" y1="987.44" x2="639.78" y2="953.22"/>
    <line class="st3" x1="762.69" y1="953.22" x2="639.78" y2="987.44"/>
    <path class="st3" d="M633.03,1005c-18.46,0-36.47,7.2-49.52,20.26-13.06,13.51-20.26,31.06-20.26,49.97"/>
    <line class="st3" x1="635.28" y1="986.09" x2="635.28" y2="954.12"/>
    <line class="st3" x1="635.28" y1="954.12" x2="633.03" y2="954.12"/>
    <line class="st3" x1="633.03" y1="954.12" x2="633.03" y2="986.09"/>
    <line class="st3" x1="633.03" y1="986.09" x2="635.28" y2="986.09"/>
    <line class="st3" x1="639.78" y1="953.22" x2="639.78" y2="987.44"/>
    <line class="st3" x1="633.03" y1="987.44" x2="633.03" y2="986.09"/>
    <line class="st3" x1="633.03" y1="954.12" x2="633.03" y2="953.22"/>
    <line class="st3" x1="517.33" y1="582.7" x2="592.06" y2="582.7"/>
    <line class="st3" x1="592.06" y1="582.7" x2="592.06" y2="578.65"/>
    <line class="st3" x1="592.06" y1="578.65" x2="517.33" y2="578.65"/>
    <line class="st3" x1="517.33" y1="578.65" x2="517.33" y2="582.7"/>
    <line class="st3" x1="595.66" y1="590.35" x2="513.72" y2="590.35"/>
    <line class="st3" x1="517.33" y1="577.75" x2="592.06" y2="577.75"/>
    <line class="st3" x1="517.33" y1="584.5" x2="592.06" y2="584.5"/>
    <line class="st3" x1="595.66" y1="590.35" x2="600.16" y2="590.35"/>
    <line class="st3" x1="600.16" y1="590.35" x2="600.16" y2="577.75"/>
    <line class="st3" x1="600.16" y1="577.75" x2="592.06" y2="577.75"/>
    <line class="st3" x1="592.06" y1="577.75" x2="592.06" y2="584.5"/>
    <line class="st3" x1="592.06" y1="584.5" x2="595.66" y2="584.5"/>
    <line class="st3" x1="595.66" y1="584.5" x2="595.66" y2="590.35"/>
    <line class="st3" x1="509.22" y1="590.35" x2="513.72" y2="590.35"/>
    <line class="st3" x1="513.72" y1="590.35" x2="513.72" y2="584.5"/>
    <line class="st3" x1="513.72" y1="584.5" x2="517.33" y2="584.5"/>
    <line class="st3" x1="517.33" y1="584.5" x2="517.33" y2="577.75"/>
    <line class="st3" x1="517.33" y1="577.75" x2="509.22" y2="577.75"/>
    <line class="st3" x1="509.22" y1="577.75" x2="509.22" y2="590.35"/>
    <line class="st3" x1="600.16" y1="577.75" x2="509.22" y2="577.75"/>
    <line class="st3" x1="511.47" y1="577.75" x2="597.91" y2="577.75"/>
    <line class="st3" x1="511.92" y1="577.75" x2="597.46" y2="577.75"/>
    <line class="st3" x1="592.06" y1="577.75" x2="517.33" y2="577.75"/>
    <line class="st3" x1="517.33" y1="577.75" x2="592.06" y2="577.75"/>
    <line class="st3" x1="605.57" y1="582.7" x2="687.51" y2="582.7"/>
    <line class="st3" x1="687.51" y1="582.7" x2="687.51" y2="578.65"/>
    <line class="st3" x1="687.51" y1="578.65" x2="605.57" y2="578.65"/>
    <line class="st3" x1="605.57" y1="578.65" x2="605.57" y2="582.7"/>
    <line class="st3" x1="687.51" y1="590.35" x2="605.57" y2="590.35"/>
    <line class="st3" x1="605.57" y1="577.75" x2="687.51" y2="577.75"/>
    <line class="st3" x1="601.07" y1="590.35" x2="605.57" y2="590.35"/>
    <line class="st3" x1="605.57" y1="590.35" x2="605.57" y2="577.75"/>
    <line class="st3" x1="605.57" y1="577.75" x2="601.07" y2="577.75"/>
    <line class="st3" x1="601.07" y1="577.75" x2="601.07" y2="590.35"/>
    <line class="st3" x1="687.51" y1="590.35" x2="692.01" y2="590.35"/>
    <line class="st3" x1="692.01" y1="590.35" x2="692.01" y2="577.75"/>
    <line class="st3" x1="692.01" y1="577.75" x2="687.51" y2="577.75"/>
    <line class="st3" x1="687.51" y1="577.75" x2="687.51" y2="590.35"/>
    <line class="st3" x1="692.91" y1="590.35" x2="692.01" y2="590.35"/>
    <line class="st3" x1="601.07" y1="590.35" x2="600.16" y2="590.35"/>
    <line class="st3" x1="509.22" y1="590.35" x2="508.32" y2="590.35"/>
    <line class="st3" x1="472.27" y1="1130.54" x2="472.52" y2="1130.54"/>
    <path class="st3" d="M551.09,1130.6c0-20.71-8.1-40.97-22.96-55.83-14.86-14.41-34.67-22.96-55.83-22.96"/>
    <line class="st3" x1="475.91" y1="1130.6" x2="472.31" y2="1130.6"/>
    <line class="st3" x1="472.31" y1="1130.6" x2="472.31" y2="1051.82"/>
    <line class="st3" x1="472.27" y1="1130.54" x2="472.52" y2="1130.54"/>
    <line class="st3" x1="475.91" y1="1130.61" x2="551.09" y2="1130.61"/>
    <line class="st3" x1="762.69" y1="987.44" x2="639.78" y2="953.22"/>
    <line class="st3" x1="762.69" y1="953.22" x2="639.78" y2="987.44"/>
    <line class="st3" x1="728.67" y1="1130.6" x2="728.67" y2="1111.7"/>
    <g>
      <path class="st3" d="M709.17,629.61c-4.95-1.35-9.9-1.8-15.31-1.8"/>
      <g>
        <rect class="st0" x="720.2" y="681.76" width="32.87" height="32.87" transform="translate(1434.83 -38.44) rotate(90)"/>
        <g>
          <path class="st5" d="M705.57,684.43c-1.8.45-3.6.45-4.95-.45-12.16-6.31-22.06-17.11-27.01-29.72-.46-1.8-.46-3.6,0-4.95.45-1.35,1.35-2.25,2.25-3.15l12.15-14.86c.45-.45.9-.45.9-.9,1.35-1.35,3.15-2.25,4.95-2.7,5.41,0,10.36.45,15.31,1.8,5.4.9,9.91,3.6,13.51,7.65,3.6,3.61,5.85,9.01,6.3,14.41.45,4.95.45,9.91,0,14.86-.45,1.8-1.8,3.6-3.15,4.95-.45,0-.45.45-.9.45l-16.21,10.8c-.9.91-1.8,1.36-3.15,1.81Z"/>
          <g>
            <line class="st2" x1="688.01" y1="631.3" x2="675.86" y2="646.16"/>
            <path class="st2" d="M673.61,654.26c4.95,12.61,14.85,23.41,27.01,29.72"/>
            <path class="st2" d="M728.98,651.56c-.45-5.4-2.7-10.8-6.3-14.41"/>
            <path class="st2" d="M700.62,683.98c1.35.9,3.15.9,4.95.45"/>
            <path class="st2" d="M705.57,684.43c1.35-.45,2.25-.9,3.15-1.81"/>
            <line class="st2" x1="724.93" y1="671.82" x2="708.72" y2="682.62"/>
            <path class="st2" d="M724.93,671.82c.45,0,.45-.45.9-.45"/>
            <path class="st2" d="M725.83,671.37c1.35-1.35,2.7-3.15,3.15-4.95"/>
            <path class="st2" d="M728.98,666.42c.45-4.95.45-9.91,0-14.86"/>
            <path class="st2" d="M722.68,637.15c-3.6-4.05-8.11-6.75-13.51-7.65"/>
            <path class="st2" d="M673.61,649.31c-.46,1.35-.46,3.15,0,4.95"/>
            <path class="st2" d="M675.86,646.16c-.9.9-1.8,1.8-2.25,3.15"/>
            <path class="st2" d="M688.91,630.4c0,.45-.45.45-.9.9"/>
            <path class="st2" d="M693.86,627.7c-1.8.45-3.6,1.35-4.95,2.7"/>
            <path class="st2" d="M709.17,629.5c-4.95-1.35-9.9-1.8-15.31-1.8"/>
          </g>
        </g>
        <line class="st3" x1="688.01" y1="631.41" x2="675.86" y2="646.27"/>
        <path class="st3" d="M673.6,654.37c4.95,12.61,14.86,23.41,27.01,29.71"/>
        <path class="st3" d="M712.32,674.18c3.15-2.7,5.85-5.85,8.1-9"/>
        <path class="st3" d="M720.43,665.18c4.05-6.3,4.05-14.41,0-20.26"/>
        <path class="st3" d="M720.43,644.92c-.9-1.35-1.8-2.25-2.7-3.15"/>
        <path class="st3" d="M728.98,651.67c-.45-5.4-2.7-10.81-6.3-14.41"/>
        <path class="st3" d="M700.62,684.08c1.35.9,3.15.9,4.95.45"/>
        <path class="st3" d="M705.57,684.53c1.35-.45,2.25-.9,3.15-1.8"/>
        <line class="st3" x1="724.93" y1="671.93" x2="708.72" y2="682.73"/>
        <path class="st3" d="M724.93,671.93c.45,0,.45-.45.9-.45"/>
        <path class="st3" d="M725.83,671.48c1.35-1.35,2.7-3.15,3.15-4.95"/>
        <path class="st3" d="M728.98,666.53c.45-4.95.45-9.9,0-14.86"/>
        <path class="st3" d="M694.31,636.36c-3.15,2.25-6.3,4.5-9.45,7.2"/>
        <path class="st3" d="M715.02,638.61c-5.85-4.5-13.96-5.85-20.71-2.25"/>
        <path class="st3" d="M717.73,641.76c-.9-1.35-1.8-2.25-2.7-3.15"/>
        <path class="st3" d="M722.68,637.26c-3.6-4.05-8.1-6.75-13.51-7.65"/>
        <path class="st3" d="M673.6,649.42c-.45,1.35-.45,3.15,0,4.95"/>
        <path class="st3" d="M675.86,646.27c-.9.9-1.8,1.8-2.25,3.15"/>
        <line class="st3" x1="688.01" y1="631.41" x2="675.86" y2="646.27"/>
        <path class="st3" d="M688.91,630.51c0,.45-.45.45-.9.9"/>
        <path class="st3" d="M693.86,627.81c-1.8.45-3.6,1.35-4.95,2.7"/>
        <path class="st3" d="M673.6,654.37c4.95,12.61,14.86,23.41,27.01,29.71"/>
        <path class="st3" d="M712.32,674.18c3.15-2.7,5.85-5.85,8.1-9"/>
        <path class="st3" d="M720.43,665.18c4.05-6.3,4.05-14.41,0-20.26"/>
        <path class="st3" d="M720.43,644.92c-.9-1.35-1.8-2.25-2.7-3.15"/>
        <path class="st3" d="M728.98,651.67c-.45-5.4-2.7-10.81-6.3-14.41"/>
        <path class="st3" d="M700.62,684.08c1.35.9,3.15.9,4.95.45"/>
        <path class="st3" d="M705.57,684.53c1.35-.45,2.25-.9,3.15-1.8"/>
        <line class="st3" x1="724.93" y1="671.93" x2="708.72" y2="682.73"/>
        <path class="st3" d="M724.93,671.93c.45,0,.45-.45.9-.45"/>
        <path class="st3" d="M725.83,671.48c1.35-1.35,2.7-3.15,3.15-4.95"/>
        <path class="st3" d="M728.98,666.53c.45-4.95.45-9.9,0-14.86"/>
        <path class="st3" d="M694.31,636.36c-3.15,2.25-6.3,4.5-9.45,7.2"/>
        <path class="st3" d="M715.02,638.61c-5.85-4.5-13.96-5.85-20.71-2.25"/>
        <path class="st3" d="M717.73,641.76c-.9-1.35-1.8-2.25-2.7-3.15"/>
        <path class="st3" d="M722.68,637.26c-3.6-4.05-8.1-6.75-13.51-7.65"/>
        <path class="st3" d="M673.6,649.42c-.45,1.35-.45,3.15,0,4.95"/>
        <path class="st3" d="M675.86,646.27c-.9.9-1.8,1.8-2.25,3.15"/>
        <path class="st3" d="M688.91,630.51c0,.45-.45.45-.9.9"/>
        <path class="st3" d="M693.86,627.81c-1.8.45-3.6,1.35-4.95,2.7"/>
      </g>
      <path class="st3" d="M709.17,629.61c-4.95-1.35-9.9-1.8-15.31-1.8"/>
    </g>
    <circle class="st0" cx="654.79" cy="922.95" r="18.57" transform="translate(-470.1 799.66) rotate(-48.39)"/>
    <g>
      <g>
        <g>
          <g>
            <polygon class="st5" points="473.4 776.45 473.4 708.47 480.6 708.47 517.52 708.47 524.72 708.47 524.72 776.45 517.52 776.45 480.6 776.45 473.4 776.45"/>
            <path class="st5" d="M480.6,776.45h36.92c-1.8,4.95-5.4,9-9.91,11.25-.45.45-.9.9-.45,1.35.45.9,1.35,1.35,2.7,1.35,1.36-.45,2.26-1.35,3.61-1.8h1.8s.45,0,.45.45c-9.91,7.21-23.41,7.21-33.32,0,0-.45.45-.45.45-.45h1.8c1.35.45,2.25,1.35,3.6,1.8.9,0,2.26-.45,2.71-1.35,0-.45,0-.9-.45-1.35-4.51-2.25-8.11-6.3-9.91-11.25Z"/>
            <path class="st5" d="M517.52,708.47h-36.92c1.8-4.96,5.4-9.01,9.91-11.71.45,0,.45-.9.45-1.35-.45-.9-1.81-1.35-2.71-1.35-1.35.9-2.25,1.35-3.6,2.25h-1.8c0-.45-.45-.45-.45-.9,9.91-6.75,23.41-6.75,33.32,0,0,.45-.45.45-.45.9h-1.8c-1.35-.9-2.25-1.35-3.61-2.25-1.35,0-2.25.45-2.7,1.35-.45.45,0,1.35.45,1.35,4.51,2.7,8.11,6.75,9.91,11.71Z"/>
          </g>
          <g>
            <path class="st6" d="M507.61,787.7c4.51-2.25,8.11-6.3,9.91-11.25"/>
            <path class="st6" d="M484.65,788.6h-.9"/>
            <path class="st6" d="M483.75,788.6h-.9"/>
            <path class="st6" d="M482.85,788.6s-.45,0-.45.45"/>
            <path class="st6" d="M488.25,790.4c.9,0,2.26-.45,2.71-1.35"/>
            <path class="st6" d="M484.65,788.6c1.35.45,2.25,1.35,3.6,1.8"/>
            <path class="st6" d="M490.96,789.05c0-.45,0-.9-.45-1.35"/>
            <path class="st6" d="M480.6,776.45c1.8,4.95,5.4,9,9.91,11.25"/>
            <path class="st6" d="M482.4,789.05c9.91,7.21,23.41,7.21,33.32,0"/>
            <line class="st6" x1="513.47" y1="696.31" x2="513.92" y2="696.31"/>
            <line class="st6" x1="513.92" y1="696.31" x2="515.27" y2="696.31"/>
            <path class="st6" d="M515.27,696.31c0-.45.45-.45.45-.9"/>
            <path class="st6" d="M509.86,694.06c-1.35,0-2.25.45-2.7,1.35"/>
            <path class="st6" d="M513.47,696.31c-1.35-.9-2.25-1.35-3.61-2.25"/>
            <path class="st6" d="M507.16,695.41c-.45.45,0,1.35.45,1.35"/>
            <path class="st6" d="M517.52,708.47c-1.8-4.96-5.4-9.01-9.91-11.71"/>
            <path class="st6" d="M483.75,696.31h.9"/>
            <path class="st6" d="M482.85,696.31h.9"/>
            <path class="st6" d="M482.4,695.41c0,.45.45.45.45.9"/>
            <path class="st6" d="M490.96,695.41c-.45-.9-1.81-1.35-2.71-1.35"/>
            <path class="st6" d="M488.25,694.06c-1.35.9-2.25,1.35-3.6,2.25"/>
            <path class="st6" d="M490.51,696.76c.45,0,.45-.9.45-1.35"/>
            <path class="st6" d="M490.51,696.76c-4.51,2.7-8.11,6.75-9.91,11.71"/>
            <path class="st6" d="M515.72,695.41c-9.91-6.75-23.41-6.75-33.32,0"/>
            <polyline class="st6" points="524.72 776.45 517.52 776.45 480.6 776.45 473.4 776.45"/>
            <polyline class="st6" points="473.4 708.47 480.6 708.47 517.52 708.47 524.72 708.47"/>
            <line class="st6" x1="473.4" y1="708.47" x2="473.4" y2="776.45"/>
            <line class="st6" x1="513.92" y1="788.6" x2="513.47" y2="788.6"/>
            <line class="st6" x1="515.27" y1="788.6" x2="513.92" y2="788.6"/>
            <path class="st6" d="M515.72,789.05c0-.45-.45-.45-.45-.45"/>
            <path class="st6" d="M507.16,789.05c.45.9,1.35,1.35,2.7,1.35"/>
            <path class="st6" d="M509.86,790.4c1.36-.45,2.26-1.35,3.61-1.8"/>
            <path class="st6" d="M507.61,787.7c-.45.45-.9.9-.45,1.35"/>
            <line class="st6" x1="524.72" y1="776.45" x2="524.72" y2="708.47"/>
          </g>
        </g>
        <path class="st3" d="M507.61,787.65c4.5-2.25,8.1-6.3,9.9-11.26"/>
        <path class="st3" d="M484.65,788.55h-.9"/>
        <path class="st3" d="M483.75,788.55h-.9"/>
        <path class="st3" d="M482.85,788.55s-.45,0-.45.45"/>
        <path class="st3" d="M488.25,790.35c.9,0,2.25-.45,2.7-1.35"/>
        <path class="st3" d="M484.65,788.55c1.35.45,2.25,1.35,3.6,1.8"/>
        <path class="st3" d="M490.95,789c0-.45,0-.9-.45-1.35"/>
        <path class="st3" d="M480.6,776.39c1.8,4.95,5.4,9,9.9,11.26"/>
        <path class="st3" d="M482.4,789c9.9,7.2,23.41,7.2,33.32,0"/>
        <line class="st3" x1="513.46" y1="696.26" x2="513.91" y2="696.26"/>
        <line class="st3" x1="513.91" y1="696.26" x2="515.26" y2="696.26"/>
        <path class="st3" d="M515.26,696.26c0-.45.45-.45.45-.9"/>
        <path class="st3" d="M509.86,694c-1.35,0-2.25.45-2.7,1.35"/>
        <path class="st3" d="M513.46,696.26c-1.35-.9-2.25-1.35-3.6-2.25"/>
        <path class="st3" d="M507.16,695.36c-.45.45,0,1.35.45,1.35"/>
        <path class="st3" d="M517.51,708.41c-1.8-4.95-5.4-9-9.9-11.71"/>
        <path class="st3" d="M483.75,696.26h.9"/>
        <path class="st3" d="M482.85,696.26h.9"/>
        <path class="st3" d="M482.4,695.36c0,.45.45.45.45.9"/>
        <path class="st3" d="M490.95,695.36c-.45-.9-1.8-1.35-2.7-1.35"/>
        <path class="st3" d="M488.25,694c-1.35.9-2.25,1.35-3.6,2.25"/>
        <path class="st3" d="M490.5,696.71c.45,0,.45-.9.45-1.35"/>
        <path class="st3" d="M490.5,696.71c-4.5,2.7-8.1,6.75-9.9,11.71"/>
        <path class="st3" d="M515.71,695.36c-9.9-6.75-23.41-6.75-33.32,0"/>
        <line class="st3" x1="524.72" y1="776.39" x2="473.39" y2="776.39"/>
        <line class="st3" x1="473.39" y1="708.41" x2="524.72" y2="708.41"/>
        <line class="st3" x1="473.39" y1="708.41" x2="473.39" y2="776.39"/>
        <line class="st3" x1="513.91" y1="788.55" x2="513.46" y2="788.55"/>
        <line class="st3" x1="515.26" y1="788.55" x2="513.91" y2="788.55"/>
        <path class="st3" d="M515.71,789c0-.45-.45-.45-.45-.45"/>
        <path class="st3" d="M507.16,789c.45.9,1.35,1.35,2.7,1.35"/>
        <path class="st3" d="M509.86,790.35c1.35-.45,2.25-1.35,3.6-1.8"/>
        <path class="st3" d="M507.61,787.65c-.45.45-.9.9-.45,1.35"/>
        <path class="st3" d="M507.61,787.65c4.5-2.25,8.1-6.3,9.9-11.26"/>
        <path class="st3" d="M484.65,788.55h-.9"/>
        <path class="st3" d="M483.75,788.55h-.9"/>
        <path class="st3" d="M482.85,788.55s-.45,0-.45.45"/>
        <path class="st3" d="M488.25,790.35c.9,0,2.25-.45,2.7-1.35"/>
        <path class="st3" d="M484.65,788.55c1.35.45,2.25,1.35,3.6,1.8"/>
        <path class="st3" d="M490.95,789c0-.45,0-.9-.45-1.35"/>
        <path class="st3" d="M480.6,776.39c1.8,4.95,5.4,9,9.9,11.26"/>
        <path class="st3" d="M482.4,789c9.9,7.2,23.41,7.2,33.32,0"/>
        <line class="st3" x1="513.46" y1="696.26" x2="513.91" y2="696.26"/>
        <line class="st3" x1="513.91" y1="696.26" x2="515.26" y2="696.26"/>
        <path class="st3" d="M515.26,696.26c0-.45.45-.45.45-.9"/>
        <path class="st3" d="M509.86,694c-1.35,0-2.25.45-2.7,1.35"/>
        <path class="st3" d="M513.46,696.26c-1.35-.9-2.25-1.35-3.6-2.25"/>
        <path class="st3" d="M507.16,695.36c-.45.45,0,1.35.45,1.35"/>
        <path class="st3" d="M517.51,708.41c-1.8-4.95-5.4-9-9.9-11.71"/>
        <path class="st3" d="M483.75,696.26h.9"/>
        <path class="st3" d="M482.85,696.26h.9"/>
        <path class="st3" d="M482.4,695.36c0,.45.45.45.45.9"/>
        <path class="st3" d="M490.95,695.36c-.45-.9-1.8-1.35-2.7-1.35"/>
        <path class="st3" d="M488.25,694c-1.35.9-2.25,1.35-3.6,2.25"/>
        <path class="st3" d="M490.5,696.71c.45,0,.45-.9.45-1.35"/>
        <path class="st3" d="M490.5,696.71c-4.5,2.7-8.1,6.75-9.9,11.71"/>
        <path class="st3" d="M515.71,695.36c-9.9-6.75-23.41-6.75-33.32,0"/>
        <line class="st3" x1="524.72" y1="776.39" x2="473.39" y2="776.39"/>
        <line class="st3" x1="473.39" y1="708.41" x2="524.72" y2="708.41"/>
        <line class="st3" x1="473.39" y1="708.41" x2="473.39" y2="776.39"/>
        <line class="st3" x1="513.91" y1="788.55" x2="513.46" y2="788.55"/>
        <line class="st3" x1="515.26" y1="788.55" x2="513.91" y2="788.55"/>
        <path class="st3" d="M515.71,789c0-.45-.45-.45-.45-.45"/>
        <path class="st3" d="M507.16,789c.45.9,1.35,1.35,2.7,1.35"/>
        <path class="st3" d="M509.86,790.35c1.35-.45,2.25-1.35,3.6-1.8"/>
        <path class="st3" d="M507.61,787.65c-.45.45-.9.9-.45,1.35"/>
      </g>
      <g>
        <g>
          <g>
            <polygon class="st5" points="525.16 776.45 525.16 708.47 532.36 708.47 569.28 708.47 576.48 708.47 576.48 776.45 569.28 776.45 532.36 776.45 525.16 776.45"/>
            <path class="st5" d="M532.36,776.45h36.92c-1.8,4.95-5.4,9-9.91,11.25-.45.45-.9.9-.45,1.35.45.9,1.35,1.35,2.7,1.35,1.36-.45,2.26-1.35,3.61-1.8h1.8s.45,0,.45.45c-9.91,7.21-23.41,7.21-33.32,0,0-.45.45-.45.45-.45h1.8c1.35.45,2.25,1.35,3.6,1.8.9,0,2.26-.45,2.71-1.35,0-.45,0-.9-.45-1.35-4.51-2.25-8.11-6.3-9.91-11.25Z"/>
            <path class="st5" d="M569.28,708.47h-36.92c1.8-4.96,5.4-9.01,9.91-11.71.45,0,.45-.9.45-1.35-.45-.9-1.81-1.35-2.71-1.35-1.35.9-2.25,1.35-3.6,2.25h-1.8c0-.45-.45-.45-.45-.9,9.91-6.75,23.41-6.75,33.32,0,0,.45-.45.45-.45.9h-1.8c-1.35-.9-2.25-1.35-3.61-2.25-1.35,0-2.25.45-2.7,1.35-.45.45,0,1.35.45,1.35,4.51,2.7,8.11,6.75,9.91,11.71Z"/>
          </g>
          <g>
            <path class="st6" d="M559.37,787.7c4.51-2.25,8.11-6.3,9.91-11.25"/>
            <path class="st6" d="M536.41,788.6h-.9"/>
            <path class="st6" d="M535.51,788.6h-.9"/>
            <path class="st6" d="M534.61,788.6s-.45,0-.45.45"/>
            <path class="st6" d="M540.01,790.4c.9,0,2.26-.45,2.71-1.35"/>
            <path class="st6" d="M536.41,788.6c1.35.45,2.25,1.35,3.6,1.8"/>
            <path class="st6" d="M542.72,789.05c0-.45,0-.9-.45-1.35"/>
            <path class="st6" d="M532.36,776.45c1.8,4.95,5.4,9,9.91,11.25"/>
            <path class="st6" d="M534.16,789.05c9.91,7.21,23.41,7.21,33.32,0"/>
            <line class="st6" x1="565.23" y1="696.31" x2="565.68" y2="696.31"/>
            <line class="st6" x1="565.68" y1="696.31" x2="567.03" y2="696.31"/>
            <path class="st6" d="M567.03,696.31c0-.45.45-.45.45-.9"/>
            <path class="st6" d="M561.62,694.06c-1.35,0-2.25.45-2.7,1.35"/>
            <path class="st6" d="M565.23,696.31c-1.35-.9-2.25-1.35-3.61-2.25"/>
            <path class="st6" d="M558.92,695.41c-.45.45,0,1.35.45,1.35"/>
            <path class="st6" d="M569.28,708.47c-1.8-4.96-5.4-9.01-9.91-11.71"/>
            <path class="st6" d="M535.51,696.31h.9"/>
            <path class="st6" d="M534.61,696.31h.9"/>
            <path class="st6" d="M534.16,695.41c0,.45.45.45.45.9"/>
            <path class="st6" d="M542.72,695.41c-.45-.9-1.81-1.35-2.71-1.35"/>
            <path class="st6" d="M540.01,694.06c-1.35.9-2.25,1.35-3.6,2.25"/>
            <path class="st6" d="M542.27,696.76c.45,0,.45-.9.45-1.35"/>
            <path class="st6" d="M542.27,696.76c-4.51,2.7-8.11,6.75-9.91,11.71"/>
            <path class="st6" d="M567.48,695.41c-9.91-6.75-23.41-6.75-33.32,0"/>
            <polyline class="st6" points="576.48 776.45 569.28 776.45 532.36 776.45 525.16 776.45"/>
            <polyline class="st6" points="525.16 708.47 532.36 708.47 569.28 708.47 576.48 708.47"/>
            <line class="st6" x1="525.16" y1="708.47" x2="525.16" y2="776.45"/>
            <line class="st6" x1="565.68" y1="788.6" x2="565.23" y2="788.6"/>
            <line class="st6" x1="567.03" y1="788.6" x2="565.68" y2="788.6"/>
            <path class="st6" d="M567.48,789.05c0-.45-.45-.45-.45-.45"/>
            <path class="st6" d="M558.92,789.05c.45.9,1.35,1.35,2.7,1.35"/>
            <path class="st6" d="M561.62,790.4c1.36-.45,2.26-1.35,3.61-1.8"/>
            <path class="st6" d="M559.37,787.7c-.45.45-.9.9-.45,1.35"/>
            <line class="st6" x1="576.48" y1="776.45" x2="576.48" y2="708.47"/>
          </g>
        </g>
        <path class="st3" d="M559.37,787.65c4.5-2.25,8.1-6.3,9.9-11.26"/>
        <path class="st3" d="M536.41,788.55h-.9"/>
        <path class="st3" d="M535.51,788.55h-.9"/>
        <path class="st3" d="M534.61,788.55s-.45,0-.45.45"/>
        <path class="st3" d="M540.01,790.35c.9,0,2.25-.45,2.7-1.35"/>
        <path class="st3" d="M536.41,788.55c1.35.45,2.25,1.35,3.6,1.8"/>
        <path class="st3" d="M542.72,789c0-.45,0-.9-.45-1.35"/>
        <path class="st3" d="M532.36,776.39c1.8,4.95,5.4,9,9.9,11.26"/>
        <path class="st3" d="M534.16,789c9.9,7.2,23.41,7.2,33.32,0"/>
        <line class="st3" x1="565.23" y1="696.26" x2="565.68" y2="696.26"/>
        <line class="st3" x1="565.68" y1="696.26" x2="567.03" y2="696.26"/>
        <path class="st3" d="M567.03,696.26c0-.45.45-.45.45-.9"/>
        <path class="st3" d="M561.62,694c-1.35,0-2.25.45-2.7,1.35"/>
        <path class="st3" d="M565.23,696.26c-1.35-.9-2.25-1.35-3.6-2.25"/>
        <path class="st3" d="M558.92,695.36c-.45.45,0,1.35.45,1.35"/>
        <path class="st3" d="M569.28,708.41c-1.8-4.95-5.4-9-9.9-11.71"/>
        <path class="st3" d="M535.51,696.26h.9"/>
        <path class="st3" d="M534.61,696.26h.9"/>
        <path class="st3" d="M534.16,695.36c0,.45.45.45.45.9"/>
        <path class="st3" d="M542.72,695.36c-.45-.9-1.8-1.35-2.7-1.35"/>
        <path class="st3" d="M540.01,694c-1.35.9-2.25,1.35-3.6,2.25"/>
        <path class="st3" d="M542.27,696.71c.45,0,.45-.9.45-1.35"/>
        <path class="st3" d="M542.27,696.71c-4.5,2.7-8.1,6.75-9.9,11.71"/>
        <path class="st3" d="M567.48,695.36c-9.9-6.75-23.41-6.75-33.32,0"/>
        <line class="st3" x1="576.48" y1="776.39" x2="525.16" y2="776.39"/>
        <line class="st3" x1="525.16" y1="708.41" x2="576.48" y2="708.41"/>
        <line class="st3" x1="525.16" y1="708.41" x2="525.16" y2="776.39"/>
        <line class="st3" x1="565.68" y1="788.55" x2="565.23" y2="788.55"/>
        <line class="st3" x1="567.03" y1="788.55" x2="565.68" y2="788.55"/>
        <path class="st3" d="M567.48,789c0-.45-.45-.45-.45-.45"/>
        <path class="st3" d="M558.92,789c.45.9,1.35,1.35,2.7,1.35"/>
        <path class="st3" d="M561.62,790.35c1.35-.45,2.25-1.35,3.6-1.8"/>
        <path class="st3" d="M559.37,787.65c-.45.45-.9.9-.45,1.35"/>
        <path class="st3" d="M559.37,787.65c4.5-2.25,8.1-6.3,9.9-11.26"/>
        <path class="st3" d="M536.41,788.55h-.9"/>
        <path class="st3" d="M535.51,788.55h-.9"/>
        <path class="st3" d="M534.61,788.55s-.45,0-.45.45"/>
        <path class="st3" d="M540.01,790.35c.9,0,2.25-.45,2.7-1.35"/>
        <path class="st3" d="M536.41,788.55c1.35.45,2.25,1.35,3.6,1.8"/>
        <path class="st3" d="M542.72,789c0-.45,0-.9-.45-1.35"/>
        <path class="st3" d="M532.36,776.39c1.8,4.95,5.4,9,9.9,11.26"/>
        <path class="st3" d="M534.16,789c9.9,7.2,23.41,7.2,33.32,0"/>
        <line class="st3" x1="565.23" y1="696.26" x2="565.68" y2="696.26"/>
        <line class="st3" x1="565.68" y1="696.26" x2="567.03" y2="696.26"/>
        <path class="st3" d="M567.03,696.26c0-.45.45-.45.45-.9"/>
        <path class="st3" d="M561.62,694c-1.35,0-2.25.45-2.7,1.35"/>
        <path class="st3" d="M565.23,696.26c-1.35-.9-2.25-1.35-3.6-2.25"/>
        <path class="st3" d="M558.92,695.36c-.45.45,0,1.35.45,1.35"/>
        <path class="st3" d="M569.28,708.41c-1.8-4.95-5.4-9-9.9-11.71"/>
        <path class="st3" d="M535.51,696.26h.9"/>
        <path class="st3" d="M534.61,696.26h.9"/>
        <path class="st3" d="M534.16,695.36c0,.45.45.45.45.9"/>
        <path class="st3" d="M542.72,695.36c-.45-.9-1.8-1.35-2.7-1.35"/>
        <path class="st3" d="M540.01,694c-1.35.9-2.25,1.35-3.6,2.25"/>
        <path class="st3" d="M542.27,696.71c.45,0,.45-.9.45-1.35"/>
        <path class="st3" d="M542.27,696.71c-4.5,2.7-8.1,6.75-9.9,11.71"/>
        <path class="st3" d="M567.48,695.36c-9.9-6.75-23.41-6.75-33.32,0"/>
        <line class="st3" x1="576.48" y1="776.39" x2="525.16" y2="776.39"/>
        <line class="st3" x1="525.16" y1="708.41" x2="576.48" y2="708.41"/>
        <line class="st3" x1="525.16" y1="708.41" x2="525.16" y2="776.39"/>
        <line class="st3" x1="565.68" y1="788.55" x2="565.23" y2="788.55"/>
        <line class="st3" x1="567.03" y1="788.55" x2="565.68" y2="788.55"/>
        <path class="st3" d="M567.48,789c0-.45-.45-.45-.45-.45"/>
        <path class="st3" d="M558.92,789c.45.9,1.35,1.35,2.7,1.35"/>
        <path class="st3" d="M561.62,790.35c1.35-.45,2.25-1.35,3.6-1.8"/>
        <path class="st3" d="M559.37,787.65c-.45.45-.9.9-.45,1.35"/>
      </g>
      <rect class="st0" x="490.95" y="690.86" width="67.98" height="103.09" transform="translate(1267.34 217.46) rotate(90)"/>
    </g>
  </g>
  <g id="pareti">
    <g>
      <polygon class="st7" points="771.24 569.2 771.24 1147.72 553.79 1147.72 553.79 1130.61 633.03 1130.61 633.03 1077.48 639.78 1077.48 639.78 1078.83 639.78 1130.61 762.69 1130.61 762.69 992.39 639.78 992.39 639.78 1002.3 633.03 1002.3 633.03 1001.4 633.03 987.44 762.69 987.44 762.69 953.23 633.03 953.23 633.03 948.27 762.69 948.27 762.69 609.72 692.91 609.72 692.91 569.2 713.16 569.2 713.16 567.85 728.47 567.85 728.47 569.2 771.24 569.2"/>
      <polygon class="st7" points="508.32 569.2 508.32 609.72 460.15 609.72 460.15 1130.61 468.7 1130.61 470.05 1130.61 470.05 1147.72 460.15 1147.72 452.04 1139.16 451.59 640.78 427.73 640.78 427.73 569.2 508.32 569.2"/>
    </g>
    <rect class="st8" x="-89.22" y="692.55" width="56.69" height="56.69"/>
    <rect class="st7" x="-89.22" y="631.34" width="56.69" height="56.69"/>
  </g>
</svg>