<?xml version="1.0" encoding="UTF-8"?>
<svg xmlns="http://www.w3.org/2000/svg" version="1.1" viewBox="0 0 1200 1697.14">
  <!-- Generator: Adobe Illustrator 29.6.0, SVG Export Plug-In . SVG Version: 2.1.1 Build 207)  -->
  <defs>
    <style>
      .st0 {
        fill: #302c35;
      }

      .st1 {
        fill: #ece8e5;
      }

      .st2, .st3, .st4, .st5, .st6, .st7 {
        stroke-linecap: round;
        stroke-linejoin: round;
        stroke-width: .15px;
      }

      .st2, .st3, .st5, .st7 {
        fill: none;
      }

      .st2, .st6 {
        stroke: #0c1020;
      }

      .st8 {
        fill: #3f3f3e;
      }

      .st3, .st4 {
        stroke: #fff;
      }

      .st4, .st9, .st10, .st6 {
        fill: #fff;
      }

      .st10 {
        stroke: #000;
        stroke-miterlimit: 10;
        stroke-width: .25px;
      }

      .st5 {
        stroke: #1d1d1b;
      }

      .st7 {
        stroke: #11100d;
      }
    </style>
  </defs>
  <g id="sfondo">
    <g>
      <polygon class="st1" points="739.06 513.37 748.06 513.37 748.06 584.05 739.06 584.05 707.99 584.05 707.99 534.53 600.84 548.79 600.84 568.29 594.54 568.29 594.54 549.63 471.18 566.04 471.18 604.76 594.54 604.76 594.54 602.51 600.84 602.51 600.84 619.17 600.84 620.07 594.54 620.07 594.54 619.17 594.54 611.06 471.18 611.06 471.18 748.38 594.54 748.38 594.54 696.15 594.54 695.25 600.84 695.25 600.84 696.15 600.84 758.28 471.18 758.28 471.18 925.76 454.07 925.76 454.07 550.09 471.18 547.81 707.99 516.29 739.06 516.29 739.06 513.37"/>
      <polygon class="st1" points="600.84 548.79 707.99 534.53 707.99 584.05 739.06 584.05 739.28 768.64 707.99 768.64 707.99 869.48 739.4 869.48 739.51 962.68 707.99 962.68 707.99 1175.17 471.18 1175.17 471.18 1009.5 454.07 1009.5 454.07 925.76 471.18 925.76 471.18 758.28 600.84 758.28 600.84 696.15 600.84 695.25 594.54 695.25 594.54 696.15 594.54 748.38 471.18 748.38 471.18 611.06 594.54 611.06 594.54 619.17 594.54 620.07 600.84 620.07 600.84 619.17 600.84 602.51 594.54 602.51 594.54 604.76 471.18 604.76 471.18 566.04 594.54 549.63 594.54 568.29 600.84 568.29 600.84 548.79"/>
      <polygon class="st1" points="739.28 768.64 748.06 768.64 748.06 849.22 749.86 849.22 749.86 864.53 748.06 864.53 748.06 869.48 739.4 869.48 739.28 768.64"/>
      <polygon class="st1" points="707.99 768.64 739.28 768.64 739.4 869.48 707.99 869.48 707.99 768.64"/>
      <polygon class="st1" points="707.99 962.68 739.51 962.68 739.51 1054.07 748.06 1054.07 748.06 1192.28 454.07 1192.28 454.07 1009.5 471.18 1009.5 471.18 1175.17 707.99 1175.17 707.99 962.68"/>
    </g>
  </g>
  <g id="bianchi">
    <g>
      <polygon class="st9" points="539.23 747.26 539.23 748.38 538.63 748.38 539.23 747.26"/>
      <polygon class="st9" points="539.23 680.94 539.23 747.26 538.63 748.38 472.31 748.38 471.19 747.78 471.19 681.46 471.79 680.34 538.11 680.34 539.23 680.94"/>
      <polygon class="st9" points="539.23 680.34 539.23 680.94 538.11 680.34 539.23 680.34"/>
      <polygon class="st9" points="472.31 748.38 471.19 748.38 471.19 747.78 472.31 748.38"/>
      <polygon class="st9" points="471.79 680.34 471.19 681.46 471.19 680.34 471.79 680.34"/>
    </g>
    <g id="LINE">
      <path class="st9" d="M525.62,611.06v24.72c0,9.52-6.83,17.22-15.29,17.22s-15.28-7.7-15.28-17.22v-24.72h30.57Z"/>
    </g>
    <path class="st9" d="M547.27,748.37v-27.68c0-.62.29-1.11.66-1.11h37.37c.45,0,.82.49.82,1.11v27.68h-38.85Z"/>
    <g>
      <rect class="st9" x="469.24" y="758.65" width="55.54" height="55.15" transform="translate(994.01 1572.45) rotate(180)"/>
      <line class="st7" x1="469.24" y1="758.65" x2="469.24" y2="759.82"/>
      <line class="st7" x1="469.24" y1="762.56" x2="469.24" y2="765.3"/>
      <line class="st7" x1="469.24" y1="768.04" x2="469.24" y2="770.78"/>
      <line class="st7" x1="469.24" y1="773.51" x2="469.24" y2="776.64"/>
      <line class="st7" x1="469.24" y1="779.38" x2="469.24" y2="782.12"/>
      <line class="st7" x1="469.24" y1="784.86" x2="469.24" y2="787.59"/>
      <line class="st7" x1="469.24" y1="790.33" x2="469.24" y2="793.07"/>
      <line class="st7" x1="469.24" y1="795.81" x2="469.24" y2="798.55"/>
      <line class="st7" x1="469.24" y1="801.28" x2="469.24" y2="804.02"/>
      <line class="st7" x1="469.24" y1="807.15" x2="469.24" y2="809.89"/>
      <line class="st7" x1="469.24" y1="812.63" x2="469.24" y2="813.8"/>
      <line class="st7" x1="469.24" y1="813.8" x2="470.8" y2="813.8"/>
      <line class="st7" x1="473.54" y1="813.8" x2="476.28" y2="813.8"/>
      <line class="st7" x1="479.01" y1="813.8" x2="481.75" y2="813.8"/>
      <line class="st7" x1="484.49" y1="813.8" x2="487.23" y2="813.8"/>
      <line class="st7" x1="489.97" y1="813.8" x2="492.7" y2="813.8"/>
      <line class="st7" x1="495.44" y1="813.8" x2="498.57" y2="813.8"/>
      <line class="st7" x1="501.31" y1="813.8" x2="504.05" y2="813.8"/>
      <line class="st7" x1="506.79" y1="813.8" x2="509.52" y2="813.8"/>
      <line class="st7" x1="512.26" y1="813.8" x2="515" y2="813.8"/>
      <line class="st7" x1="517.74" y1="813.8" x2="520.48" y2="813.8"/>
      <line class="st7" x1="523.21" y1="813.8" x2="524.78" y2="813.8"/>
      <line class="st7" x1="524.78" y1="813.8" x2="524.78" y2="812.63"/>
      <line class="st7" x1="524.78" y1="809.89" x2="524.78" y2="807.15"/>
      <line class="st7" x1="524.78" y1="804.02" x2="524.78" y2="801.28"/>
      <line class="st7" x1="524.78" y1="798.55" x2="524.78" y2="795.81"/>
      <line class="st7" x1="524.78" y1="793.07" x2="524.78" y2="790.33"/>
      <line class="st7" x1="524.78" y1="787.59" x2="524.78" y2="784.86"/>
      <line class="st7" x1="524.78" y1="782.12" x2="524.78" y2="779.38"/>
      <line class="st7" x1="524.78" y1="776.64" x2="524.78" y2="773.51"/>
      <line class="st7" x1="524.78" y1="770.78" x2="524.78" y2="768.04"/>
      <line class="st7" x1="524.78" y1="765.3" x2="524.78" y2="762.56"/>
      <line class="st7" x1="524.78" y1="759.82" x2="524.78" y2="758.65"/>
      <path class="st7" d="M469.24,813.8"/>
      <line class="st7" x1="469.24" y1="813.8" x2="469.24" y2="812.63"/>
      <line class="st7" x1="469.24" y1="809.89" x2="469.24" y2="807.15"/>
      <line class="st7" x1="469.24" y1="804.02" x2="469.24" y2="801.28"/>
      <line class="st7" x1="469.24" y1="798.55" x2="469.24" y2="795.81"/>
      <line class="st7" x1="469.24" y1="793.07" x2="469.24" y2="790.33"/>
      <line class="st7" x1="469.24" y1="787.59" x2="469.24" y2="784.86"/>
      <line class="st7" x1="469.24" y1="782.12" x2="469.24" y2="779.38"/>
      <line class="st7" x1="469.24" y1="776.64" x2="469.24" y2="773.51"/>
      <line class="st7" x1="469.24" y1="770.78" x2="469.24" y2="768.04"/>
      <line class="st7" x1="469.24" y1="765.3" x2="469.24" y2="762.56"/>
      <line class="st7" x1="469.24" y1="759.82" x2="469.24" y2="758.65"/>
    </g>
    <g>
      <g>
        <polygon class="st9" points="641.99 1097.66 642.43 1097.66 642.43 1175.17 494.16 1175.17 494.64 1174.19 641.99 1174.19 641.99 1097.66"/>
        <path class="st9" d="M532.51,1097.66h109.48v76.53h-147.35l8.42-17.01c7.56-15.28,12.4-25.06,15.5-31.33l.77-1.56c1.1-2.22,1.94-3.93,2.59-5.24l.41-.82c.25-.51.47-.94.65-1.32l.24-.47c.63-1.29.81-1.64.85-1.73l.02-.04,8.42-17.01Z"/>
        <path class="st9" d="M471.91,1097.66h60.6l-8.42,17.01h-30.18c-1.93,0-3.5,1.56-3.5,3.5v35.51c0,1.94,1.57,3.5,3.5,3.5h9.15l-8.42,17.01h-22.73v-76.53Z"/>
        <path class="st9" d="M493.91,1114.67h30.18l-.02.04c-.04.09-.22.44-.85,1.73-.08.14-.15.3-.24.47-.18.38-.4.81-.65,1.32-.13.25-.26.52-.41.82-.65,1.31-1.49,3.02-2.59,5.24-.24.49-.5,1.01-.77,1.56-3.1,6.27-7.94,16.05-15.5,31.33h-9.15c-1.93,0-3.5-1.56-3.5-3.5v-35.51c0-1.94,1.57-3.5,3.5-3.5Z"/>
      </g>
      <g>
        <polyline class="st2" points="494.64 1174.19 471.91 1174.19 471.91 1097.66 532.51 1097.66"/>
        <polyline class="st2" points="503.06 1157.18 494.64 1174.19 494.16 1175.17 642.43 1175.17 642.43 1097.66 641.99 1097.66 532.51 1097.66 524.09 1114.67 524.07 1114.71"/>
        <line class="st2" x1="519.33" y1="1124.29" x2="518.56" y2="1125.85"/>
        <line class="st2" x1="522.33" y1="1118.23" x2="521.92" y2="1119.05"/>
        <line class="st2" x1="523.22" y1="1116.44" x2="522.98" y2="1116.91"/>
        <line class="st2" x1="490.41" y1="1153.68" x2="490.41" y2="1118.17"/>
        <path class="st2" d="M490.41,1118.17c0-1.94,1.57-3.5,3.5-3.5"/>
        <path class="st2" d="M493.91,1157.18c-1.93,0-3.5-1.56-3.5-3.5"/>
        <path class="st2" d="M493.91,1157.18h9.15c7.56-15.28,12.4-25.06,15.5-31.33.27-.55.53-1.07.77-1.56,1.1-2.22,1.94-3.93,2.59-5.24.15-.3.28-.57.41-.82.25-.51.47-.94.65-1.32.09-.17.16-.33.24-.47.63-1.29.81-1.64.85-1.73l.02-.04h-30.18"/>
      </g>
    </g>
    <rect class="st9" x="687.58" y="909.26" width="93.19" height="13.64" transform="translate(-181.9 1650.25) rotate(-90)"/>
    <rect class="st9" x="643.16" y="668.24" width="184.59" height="16.21" transform="translate(59.12 1411.8) rotate(-90)"/>
    <rect class="st9" x="558.3" y="594.63" width="1.8" height="37.37" transform="translate(-54.11 1172.51) rotate(-90)"/>
    <rect class="st9" x="557.67" y="597.5" width="3.52" height="27.01" transform="translate(-51.58 1170.43) rotate(-90)"/>
    <rect class="st1" x="-105.54" y="870.13" width="56.69" height="56.69"/>
    <rect class="st0" x="-105.54" y="808.93" width="56.69" height="56.69"/>
  </g>
  <g id="pareti">
    <g>
      <polygon class="st0" points="739.06 513.37 748.07 513.37 748.07 584.05 708 584.05 708 534.53 600.85 548.79 600.85 568.29 594.55 568.29 594.55 549.63 471.19 566.04 471.19 604.76 594.55 604.76 594.55 602.51 600.85 602.51 600.85 619.17 600.85 620.07 594.55 620.07 594.55 619.17 594.55 611.06 471.19 611.06 471.19 748.38 594.55 748.38 594.55 696.15 594.55 695.25 600.85 695.25 600.85 696.15 600.85 758.28 471.19 758.28 471.19 925.76 454.08 925.76 454.08 550.08 471.19 547.81 708 516.29 739.06 516.29 739.06 513.37"/>
      <polygon class="st0" points="708 768.64 748.07 768.64 748.07 849.22 749.87 849.22 749.87 864.53 748.07 864.53 748.07 869.48 708 869.48 708 768.64"/>
      <polygon class="st0" points="708 962.68 739.51 962.68 739.51 1054.07 748.07 1054.07 748.07 1192.28 454.08 1192.28 454.08 1009.5 471.19 1009.5 471.19 1175.17 708 1175.17 708 962.68"/>
    </g>
  </g>
  <g id="Default">
    <line class="st2" x1="739.51" y1="878.48" x2="739.51" y2="870.83"/>
    <line class="st2" x1="739.06" y1="589.45" x2="739.06" y2="671.39"/>
    <line class="st2" x1="739.06" y1="671.39" x2="735.01" y2="671.39"/>
    <line class="st2" x1="739.51" y1="759.63" x2="739.51" y2="684.44"/>
    <line class="st2" x1="739.51" y1="684.44" x2="739.51" y2="759.63"/>
    <line class="st2" x1="739.51" y1="765.03" x2="739.51" y2="679.49"/>
    <line class="st2" x1="739.51" y1="765.48" x2="739.51" y2="679.04"/>
    <line class="st2" x1="739.51" y1="676.79" x2="739.51" y2="767.73"/>
    <line class="st2" x1="727.35" y1="680.84" x2="727.35" y2="676.79"/>
    <line class="st2" x1="727.35" y1="676.79" x2="739.51" y2="676.79"/>
    <line class="st2" x1="739.51" y1="676.79" x2="739.51" y2="684.44"/>
    <line class="st2" x1="739.51" y1="684.44" x2="732.76" y2="684.44"/>
    <line class="st2" x1="732.76" y1="684.44" x2="732.76" y2="680.84"/>
    <line class="st2" x1="732.76" y1="680.84" x2="727.35" y2="680.84"/>
    <line class="st2" x1="727.35" y1="767.73" x2="727.35" y2="763.23"/>
    <line class="st2" x1="727.35" y1="763.23" x2="732.76" y2="763.23"/>
    <line class="st2" x1="732.76" y1="763.23" x2="732.76" y2="759.63"/>
    <line class="st2" x1="732.76" y1="759.63" x2="739.51" y2="759.63"/>
    <line class="st2" x1="739.51" y1="759.63" x2="739.51" y2="767.73"/>
    <line class="st2" x1="739.51" y1="767.73" x2="727.35" y2="767.73"/>
    <line class="st2" x1="732.76" y1="759.63" x2="732.76" y2="684.44"/>
    <line class="st2" x1="739.51" y1="759.63" x2="739.51" y2="684.44"/>
    <line class="st2" x1="727.35" y1="680.84" x2="727.35" y2="763.23"/>
    <line class="st2" x1="735.01" y1="759.63" x2="735.01" y2="684.44"/>
    <line class="st2" x1="735.01" y1="684.44" x2="739.06" y2="684.44"/>
    <line class="st2" x1="739.06" y1="684.44" x2="739.06" y2="759.63"/>
    <line class="st2" x1="739.06" y1="759.63" x2="735.01" y2="759.63"/>
    <g>
      <rect class="st9" x="538.53" y="735.62" width="55.25" height="101.75" transform="translate(-220.34 1352.65) rotate(-90)"/>
      <rect class="st2" x="515.28" y="758.87" width="101.75" height="55.25"/>
      <line class="st2" x1="594.32" y1="775.36" x2="606.51" y2="775.36"/>
      <line class="st2" x1="594.32" y1="798.27" x2="606.51" y2="798.27"/>
      <line class="st2" x1="600.33" y1="792.26" x2="600.33" y2="804.44"/>
      <line class="st2" x1="600.33" y1="769.18" x2="600.33" y2="781.37"/>
      <rect class="st2" x="587.33" y="763.82" width="26.81" height="45.99"/>
      <rect class="st2" x="527.51" y="771.08" width="31.01" height="31.01"/>
      <rect class="st2" x="519.8" y="763.37" width="46.6" height="46.44"/>
      <line class="st2" x1="543.1" y1="778.58" x2="543.1" y2="766.11"/>
    </g>
    <line class="st2" x1="471.19" y1="604.76" x2="593.14" y2="549.81"/>
    <line class="st2" x1="471.19" y1="604.76" x2="593.14" y2="549.81"/>
    <path class="st2" d="M525.62,611.06v24.72c0,9.52-6.84,17.22-15.29,17.22s-15.29-7.7-15.29-17.22v-24.72h30.58Z"/>
    <line class="st2" x1="505.2" y1="748.37" x2="505.2" y2="729.47"/>
    <circle class="st2" cx="505.29" cy="729.56" r="4.23"/>
    <circle class="st2" cx="505.29" cy="729.56" r="4.23"/>
    <line class="st2" x1="538.1" y1="680.33" x2="471.78" y2="680.33"/>
    <line class="st2" x1="471.19" y1="681.46" x2="471.19" y2="747.78"/>
    <line class="st2" x1="472.31" y1="748.37" x2="538.63" y2="748.37"/>
    <line class="st2" x1="539.23" y1="747.25" x2="539.23" y2="680.93"/>
    <polyline class="st2" points="538.1 680.33 539.23 680.33 539.23 680.93"/>
    <polyline class="st2" points="539.23 747.25 539.23 748.37 538.63 748.37"/>
    <polyline class="st2" points="472.31 748.37 471.19 748.37 471.19 747.78"/>
    <polyline class="st2" points="471.19 681.46 471.19 680.33 471.78 680.33"/>
    <line class="st2" x1="557.18" y1="719.56" x2="575.63" y2="719.56"/>
    <line class="st2" x1="547.27" y1="739.82" x2="547.27" y2="729.47"/>
    <line class="st2" x1="575.63" y1="719.56" x2="557.18" y2="719.56"/>
    <line class="st2" x1="547.27" y1="729.47" x2="547.27" y2="739.82"/>
    <line class="st2" x1="575.63" y1="719.56" x2="557.18" y2="719.56"/>
    <line class="st2" x1="547.27" y1="729.47" x2="547.27" y2="739.82"/>
    <line class="st2" x1="557.18" y1="719.56" x2="575.63" y2="719.56"/>
    <line class="st2" x1="547.27" y1="739.82" x2="547.27" y2="729.47"/>
    <line class="st2" x1="575.63" y1="719.56" x2="557.18" y2="719.56"/>
    <line class="st2" x1="547.27" y1="729.47" x2="547.27" y2="739.82"/>
    <line class="st2" x1="575.63" y1="719.56" x2="557.18" y2="719.56"/>
    <line class="st2" x1="547.27" y1="729.47" x2="547.27" y2="739.82"/>
    <path class="st2" d="M586.12,748.37v-27.68c0-.62-.29-1.11-.66-1.11h-37.37c-.45,0-.82.49-.82,1.11v27.68"/>
    <path class="st2" d="M585.46,738.03v-16.22c0-.62-.37-1.11-.82-1.11h-35.72c-.45,0-.82.5-.82,1.11v16.22c0,.61.37,1.11.82,1.11h35.72c.45,0,.82-.5.82-1.11Z"/>
    <path class="st2" d="M565.2,729.63c0-.87.71-1.58,1.58-1.58s1.58.71,1.58,1.58-.71,1.58-1.58,1.58-1.58-.71-1.58-1.58Z"/>
    <circle class="st2" cx="566.78" cy="729.63" r="2.93"/>
    <circle class="st2" cx="566.78" cy="744.08" r="2.2" transform="translate(-287.62 1124.74) rotate(-76.72)"/>
    <line class="st2" x1="577.88" y1="614.21" x2="540.52" y2="614.21"/>
    <line class="st2" x1="540.52" y1="614.21" x2="540.52" y2="612.41"/>
    <line class="st2" x1="540.52" y1="612.41" x2="577.88" y2="612.41"/>
    <line class="st2" x1="577.88" y1="612.41" x2="577.88" y2="614.21"/>
    <line class="st2" x1="572.93" y1="612.41" x2="572.93" y2="611.06"/>
    <line class="st2" x1="545.92" y1="611.06" x2="545.92" y2="612.41"/>
    <line class="st2" x1="600.85" y1="625.92" x2="600.85" y2="693"/>
    <line class="st2" x1="600.85" y1="622.77" x2="670.63" y2="622.77"/>
    <line class="st2" x1="600.85" y1="625.92" x2="600.85" y2="622.77"/>
    <path class="st2" d="M600.85,692.55c18.46,0,36.47-7.2,49.52-20.26,13.06-13.06,20.26-31.06,20.26-49.52"/>
    <line class="st2" x1="598.59" y1="601.16" x2="598.59" y2="569.19"/>
    <line class="st2" x1="598.59" y1="569.19" x2="600.85" y2="569.19"/>
    <line class="st2" x1="600.85" y1="569.19" x2="600.85" y2="601.16"/>
    <line class="st2" x1="600.85" y1="601.16" x2="598.59" y2="601.16"/>
    <line class="st2" x1="471.19" y1="1003.64" x2="471.19" y2="928.01"/>
    <line class="st2" x1="471.19" y1="1007.24" x2="471.19" y2="1006.79"/>
    <line class="st2" x1="471.19" y1="1003.64" x2="471.19" y2="1006.79"/>
    <line class="st2" x1="471.19" y1="1006.79" x2="549.52" y2="1006.79"/>
    <path class="st2" d="M549.52,1006.79c0-20.71-8.1-40.97-22.96-55.38-14.86-14.86-34.67-23.41-55.38-23.41"/>
    <line class="st2" x1="594.54" y1="602.51" x2="594.54" y2="568.29"/>
    <line class="st2" x1="600.85" y1="601.16" x2="600.85" y2="602.51"/>
    <line class="st2" x1="600.85" y1="568.29" x2="600.85" y2="569.19"/>
    <line class="st2" x1="594.54" y1="604.76" x2="471.19" y2="566.04"/>
    <line class="st2" x1="727.35" y1="584.95" x2="727.35" y2="584.05"/>
    <line class="st2" x1="727.35" y1="676.79" x2="727.35" y2="675.44"/>
    <line class="st2" x1="727.35" y1="768.63" x2="727.35" y2="767.73"/>
    <line class="st2" x1="727.35" y1="870.83" x2="727.35" y2="869.48"/>
    <line class="st2" x1="727.35" y1="962.67" x2="727.35" y2="961.32"/>
    <line class="st2" x1="471.19" y1="1006.79" x2="471.19" y2="1007.24"/>
    <line class="st2" x1="471.19" y1="928.01" x2="471.19" y2="1003.64"/>
    <line class="st2" x1="600.85" y1="625.92" x2="600.85" y2="693"/>
    <line class="st2" x1="739.51" y1="878.48" x2="739.51" y2="953.67"/>
    <line class="st2" x1="739.51" y1="953.67" x2="739.51" y2="878.48"/>
    <line class="st2" x1="739.51" y1="873.08" x2="739.51" y2="958.62"/>
    <line class="st2" x1="739.51" y1="872.63" x2="739.51" y2="959.52"/>
    <line class="st2" x1="739.51" y1="961.32" x2="739.51" y2="870.83"/>
    <line class="st2" x1="732.76" y1="957.27" x2="727.35" y2="957.27"/>
    <line class="st2" x1="732.76" y1="953.67" x2="732.76" y2="957.27"/>
    <line class="st2" x1="739.51" y1="953.67" x2="732.76" y2="953.67"/>
    <line class="st2" x1="739.51" y1="961.32" x2="739.51" y2="953.67"/>
    <line class="st2" x1="727.35" y1="961.32" x2="739.51" y2="961.32"/>
    <line class="st2" x1="727.35" y1="957.27" x2="727.35" y2="961.32"/>
    <line class="st2" x1="739.51" y1="870.83" x2="727.35" y2="870.83"/>
    <line class="st2" x1="739.51" y1="878.48" x2="739.51" y2="870.83"/>
    <line class="st2" x1="732.76" y1="878.48" x2="739.51" y2="878.48"/>
    <line class="st2" x1="732.76" y1="874.88" x2="732.76" y2="878.48"/>
    <line class="st2" x1="727.35" y1="874.88" x2="732.76" y2="874.88"/>
    <line class="st2" x1="727.35" y1="870.83" x2="727.35" y2="874.88"/>
    <line class="st2" x1="732.76" y1="878.48" x2="732.76" y2="953.67"/>
    <line class="st2" x1="739.51" y1="878.48" x2="739.51" y2="953.67"/>
    <line class="st2" x1="727.35" y1="957.27" x2="727.35" y2="874.88"/>
    <line class="st2" x1="739.06" y1="878.48" x2="735.01" y2="878.48"/>
    <line class="st2" x1="739.06" y1="953.67" x2="739.06" y2="878.48"/>
    <line class="st2" x1="735.01" y1="953.67" x2="739.06" y2="953.67"/>
    <line class="st2" x1="735.01" y1="878.48" x2="735.01" y2="953.67"/>
    <line class="st2" x1="727.35" y1="675.44" x2="727.35" y2="671.39"/>
    <line class="st2" x1="727.35" y1="671.39" x2="739.51" y2="671.39"/>
    <line class="st2" x1="739.51" y1="671.39" x2="739.51" y2="675.44"/>
    <line class="st2" x1="739.51" y1="675.44" x2="727.35" y2="675.44"/>
    <line class="st2" x1="727.35" y1="589.45" x2="727.35" y2="584.95"/>
    <line class="st2" x1="727.35" y1="584.95" x2="739.51" y2="584.95"/>
    <line class="st2" x1="739.51" y1="584.95" x2="739.51" y2="589.45"/>
    <line class="st2" x1="739.51" y1="589.45" x2="727.35" y2="589.45"/>
    <line class="st2" x1="739.51" y1="671.39" x2="739.51" y2="589.45"/>
    <line class="st2" x1="727.35" y1="589.45" x2="727.35" y2="671.39"/>
    <line class="st2" x1="735.01" y1="671.39" x2="735.01" y2="589.45"/>
    <line class="st2" x1="735.01" y1="589.45" x2="739.06" y2="589.45"/>
    <line class="st2" x1="739.06" y1="589.45" x2="739.06" y2="671.39"/>
    <line class="st2" x1="739.06" y1="671.39" x2="735.01" y2="671.39"/>
    <line class="st2" x1="739.51" y1="759.63" x2="739.51" y2="684.44"/>
    <line class="st2" x1="739.51" y1="684.44" x2="739.51" y2="759.63"/>
    <line class="st2" x1="739.51" y1="765.03" x2="739.51" y2="679.49"/>
    <line class="st2" x1="739.51" y1="765.48" x2="739.51" y2="679.04"/>
    <line class="st2" x1="739.51" y1="676.79" x2="739.51" y2="767.73"/>
    <line class="st2" x1="727.35" y1="680.84" x2="727.35" y2="676.79"/>
    <line class="st2" x1="727.35" y1="676.79" x2="739.51" y2="676.79"/>
    <line class="st2" x1="739.51" y1="676.79" x2="739.51" y2="684.44"/>
    <line class="st2" x1="739.51" y1="684.44" x2="732.76" y2="684.44"/>
    <line class="st2" x1="732.76" y1="684.44" x2="732.76" y2="680.84"/>
    <line class="st2" x1="732.76" y1="680.84" x2="727.35" y2="680.84"/>
    <line class="st2" x1="727.35" y1="767.73" x2="727.35" y2="763.23"/>
    <line class="st2" x1="727.35" y1="763.23" x2="732.76" y2="763.23"/>
    <line class="st2" x1="732.76" y1="763.23" x2="732.76" y2="759.63"/>
    <line class="st2" x1="732.76" y1="759.63" x2="739.51" y2="759.63"/>
    <line class="st2" x1="739.51" y1="759.63" x2="739.51" y2="767.73"/>
    <line class="st2" x1="739.51" y1="767.73" x2="727.35" y2="767.73"/>
    <line class="st2" x1="732.76" y1="759.63" x2="732.76" y2="684.44"/>
    <line class="st2" x1="739.51" y1="759.63" x2="739.51" y2="684.44"/>
    <line class="st2" x1="727.35" y1="680.84" x2="727.35" y2="763.23"/>
    <line class="st2" x1="735.01" y1="759.63" x2="735.01" y2="684.44"/>
    <line class="st2" x1="735.01" y1="684.44" x2="739.06" y2="684.44"/>
    <line class="st2" x1="739.06" y1="684.44" x2="739.06" y2="759.63"/>
    <line class="st2" x1="739.06" y1="759.63" x2="735.01" y2="759.63"/>
    <line class="st2" x1="577.88" y1="614.21" x2="540.52" y2="614.21"/>
    <line class="st2" x1="540.52" y1="614.21" x2="540.52" y2="612.41"/>
    <line class="st2" x1="540.52" y1="612.41" x2="577.88" y2="612.41"/>
    <line class="st2" x1="577.88" y1="612.41" x2="577.88" y2="614.21"/>
    <line class="st2" x1="572.93" y1="612.41" x2="572.93" y2="611.06"/>
    <line class="st2" x1="545.92" y1="611.06" x2="545.92" y2="612.41"/>
    <line class="st2" x1="600.85" y1="625.92" x2="600.85" y2="693"/>
    <line class="st2" x1="600.85" y1="622.77" x2="670.63" y2="622.77"/>
    <line class="st2" x1="600.85" y1="625.92" x2="600.85" y2="622.77"/>
    <path class="st2" d="M600.85,692.55c18.46,0,36.47-7.2,49.52-20.26,13.06-13.06,20.26-31.06,20.26-49.52"/>
    <line class="st2" x1="598.59" y1="601.16" x2="598.59" y2="569.19"/>
    <line class="st2" x1="598.59" y1="569.19" x2="600.85" y2="569.19"/>
    <line class="st2" x1="600.85" y1="569.19" x2="600.85" y2="601.16"/>
    <line class="st2" x1="600.85" y1="601.16" x2="598.59" y2="601.16"/>
    <line class="st2" x1="471.19" y1="1003.64" x2="471.19" y2="928.01"/>
    <line class="st2" x1="471.19" y1="1007.24" x2="471.19" y2="1006.79"/>
    <line class="st2" x1="471.19" y1="1003.64" x2="471.19" y2="1006.79"/>
    <line class="st2" x1="471.19" y1="1006.79" x2="549.52" y2="1006.79"/>
    <path class="st2" d="M549.52,1006.79c0-20.71-8.1-40.97-22.96-55.38-14.86-14.86-34.67-23.41-55.38-23.41"/>
    <line class="st2" x1="594.54" y1="602.51" x2="594.54" y2="568.29"/>
    <line class="st2" x1="600.85" y1="601.16" x2="600.85" y2="602.51"/>
    <line class="st2" x1="600.85" y1="568.29" x2="600.85" y2="569.19"/>
    <line class="st2" x1="594.54" y1="604.76" x2="471.19" y2="566.04"/>
    <line class="st2" x1="727.35" y1="584.95" x2="727.35" y2="584.05"/>
    <line class="st2" x1="727.35" y1="676.79" x2="727.35" y2="675.44"/>
    <line class="st2" x1="727.35" y1="768.63" x2="727.35" y2="767.73"/>
    <line class="st2" x1="727.35" y1="870.83" x2="727.35" y2="869.48"/>
    <line class="st2" x1="727.35" y1="962.67" x2="727.35" y2="961.32"/>
    <line class="st2" x1="471.19" y1="1006.79" x2="471.19" y2="1007.24"/>
    <line class="st2" x1="471.19" y1="928.01" x2="471.19" y2="1003.64"/>
    <line class="st2" x1="600.85" y1="625.92" x2="600.85" y2="693"/>
    <line class="st2" x1="739.51" y1="878.48" x2="739.51" y2="953.67"/>
    <line class="st2" x1="739.51" y1="953.67" x2="739.51" y2="878.48"/>
    <line class="st2" x1="739.51" y1="873.08" x2="739.51" y2="958.62"/>
    <line class="st2" x1="739.51" y1="872.63" x2="739.51" y2="959.52"/>
    <line class="st2" x1="739.51" y1="961.32" x2="739.51" y2="870.83"/>
    <line class="st2" x1="732.76" y1="957.27" x2="727.35" y2="957.27"/>
    <line class="st2" x1="732.76" y1="953.67" x2="732.76" y2="957.27"/>
    <line class="st2" x1="739.51" y1="953.67" x2="732.76" y2="953.67"/>
    <line class="st2" x1="739.51" y1="961.32" x2="739.51" y2="953.67"/>
    <line class="st2" x1="727.35" y1="961.32" x2="739.51" y2="961.32"/>
    <line class="st2" x1="727.35" y1="957.27" x2="727.35" y2="961.32"/>
    <line class="st2" x1="739.51" y1="870.83" x2="727.35" y2="870.83"/>
    <line class="st2" x1="732.76" y1="878.48" x2="739.51" y2="878.48"/>
    <line class="st2" x1="732.76" y1="874.88" x2="732.76" y2="878.48"/>
    <line class="st2" x1="727.35" y1="874.88" x2="732.76" y2="874.88"/>
    <line class="st2" x1="727.35" y1="870.83" x2="727.35" y2="874.88"/>
    <line class="st2" x1="732.76" y1="878.48" x2="732.76" y2="953.67"/>
    <line class="st2" x1="739.51" y1="878.48" x2="739.51" y2="953.67"/>
    <line class="st2" x1="727.35" y1="957.27" x2="727.35" y2="874.88"/>
    <line class="st2" x1="739.06" y1="878.48" x2="735.01" y2="878.48"/>
    <line class="st2" x1="739.06" y1="953.67" x2="739.06" y2="878.48"/>
    <line class="st2" x1="735.01" y1="953.67" x2="739.06" y2="953.67"/>
    <line class="st2" x1="735.01" y1="878.48" x2="735.01" y2="953.67"/>
    <line class="st2" x1="727.35" y1="675.44" x2="727.35" y2="671.39"/>
    <line class="st2" x1="727.35" y1="671.39" x2="739.51" y2="671.39"/>
    <line class="st2" x1="739.51" y1="671.39" x2="739.51" y2="675.44"/>
    <line class="st2" x1="739.51" y1="675.44" x2="727.35" y2="675.44"/>
    <line class="st2" x1="727.35" y1="589.45" x2="727.35" y2="584.95"/>
    <line class="st2" x1="727.35" y1="584.95" x2="739.51" y2="584.95"/>
    <line class="st2" x1="739.51" y1="584.95" x2="739.51" y2="589.45"/>
    <line class="st2" x1="739.51" y1="589.45" x2="727.35" y2="589.45"/>
    <line class="st2" x1="739.51" y1="671.39" x2="739.51" y2="589.45"/>
    <line class="st2" x1="727.35" y1="589.45" x2="727.35" y2="671.39"/>
    <line class="st2" x1="735.01" y1="671.39" x2="735.01" y2="589.45"/>
    <line class="st2" x1="735.01" y1="589.45" x2="739.06" y2="589.45"/>
    <g>
      <g>
        <g>
          <path class="st9" d="M665.45,869.17c-.45-.9-1.8-1.35-2.7-1.35-1.35.45-2.25,1.35-3.6,1.8h-1.81s-.45,0-.45-.45c9.91-7.21,23.42-7.21,33.32,0,0,.45-.45.45-.45.45h-1.8c-1.35-.45-2.25-1.35-3.6-1.8-.9,0-2.25.45-2.7,1.35,0,.45,0,.9.45,1.35,4.5,2.25,8.1,6.75,9.9,11.25h-36.92c1.8-4.5,5.41-9,9.91-11.25.45-.45.45-.9.45-1.35Z"/>
          <polygon class="st9" points="692.01 881.77 696.96 881.77 696.96 949.75 692.01 949.75 655.09 949.75 647.89 949.75 647.89 881.77 655.09 881.77 692.01 881.77"/>
          <path class="st9" d="M655.09,949.75h36.92c-1.8,4.96-5.4,9.01-9.9,11.71-.45,0-.45.9-.45,1.35.45.9,1.8,1.35,2.7,1.35l.61,1.47c-9.08,3.74-19.83,2.8-28.08-2.82,0-.45.45-.45.45-.45.46-.45.91-.45.91-.45h.9c1.35.9,2.25,1.35,3.6,2.25.9,0,2.25-.45,2.7-1.35,0-.45,0-1.35-.45-1.35-4.5-2.7-8.11-6.75-9.91-11.71Z"/>
          <path class="st9" d="M687.96,961.91h.45c.45,0,.9,0,1.35.45,0,0,.45,0,.45.45-1.66,1.13-3.41,2.07-5.24,2.82l-.61-1.47c1.35-.9,2.25-1.35,3.6-2.25Z"/>
        </g>
        <g>
          <polyline class="st3" points="696.96 881.77 692.01 881.77 655.09 881.77 647.89 881.77"/>
          <polyline class="st3" points="647.89 949.75 655.09 949.75 692.01 949.75 696.96 949.75"/>
          <line class="st3" x1="647.89" y1="881.77" x2="647.89" y2="949.75"/>
          <path class="st3" d="M690.21,869.17c-9.9-7.21-23.41-7.21-33.32,0"/>
          <path class="st3" d="M692.01,881.77c-1.8-4.5-5.4-9-9.9-11.25"/>
          <path class="st3" d="M681.66,869.17c0,.45,0,.9.45,1.35"/>
          <path class="st3" d="M687.96,869.62c-1.35-.45-2.25-1.35-3.6-1.8"/>
          <path class="st3" d="M684.36,867.82c-.9,0-2.25.45-2.7,1.35"/>
          <path class="st3" d="M689.76,869.62s.45,0,.45-.45"/>
          <line class="st3" x1="688.41" y1="869.62" x2="689.76" y2="869.62"/>
          <line class="st3" x1="687.96" y1="869.62" x2="688.41" y2="869.62"/>
          <path class="st3" d="M665,870.52c-4.5,2.25-8.11,6.75-9.91,11.25"/>
          <path class="st3" d="M665,870.52c.45-.45.45-.9.45-1.35"/>
          <path class="st3" d="M662.75,867.82c-1.35.45-2.25,1.35-3.6,1.8"/>
          <path class="st3" d="M665.45,869.17c-.45-.9-1.8-1.35-2.7-1.35"/>
          <path class="st3" d="M656.89,869.17c0,.45.45.45.45.45"/>
          <path class="st3" d="M657.34,869.62h.91"/>
          <path class="st3" d="M658.25,869.62h.9"/>
          <path class="st3" d="M656.89,962.81c8.25,5.62,19,6.56,28.08,2.82,1.83-.75,3.58-1.69,5.24-2.82"/>
          <path class="st3" d="M682.11,961.46c4.5-2.7,8.1-6.75,9.9-11.71"/>
          <path class="st3" d="M682.11,961.46c-.45,0-.45.9-.45,1.35"/>
          <path class="st3" d="M684.36,964.16c1.35-.9,2.25-1.35,3.6-2.25"/>
          <path class="st3" d="M681.66,962.81c.45.9,1.8,1.35,2.7,1.35"/>
          <path class="st3" d="M690.21,962.81c0-.45-.45-.45-.45-.45"/>
          <path class="st3" d="M689.76,962.36c-.45-.45-.9-.45-1.35-.45"/>
          <line class="st3" x1="688.41" y1="961.91" x2="687.96" y2="961.91"/>
          <path class="st3" d="M655.09,949.75c1.8,4.96,5.41,9.01,9.91,11.71"/>
          <path class="st3" d="M665.45,962.81c0-.45,0-1.35-.45-1.35"/>
          <path class="st3" d="M659.15,961.91c1.35.9,2.25,1.35,3.6,2.25"/>
          <path class="st3" d="M662.75,964.16c.9,0,2.25-.45,2.7-1.35"/>
          <path class="st3" d="M657.34,962.36s-.45,0-.45.45"/>
          <path class="st3" d="M658.25,961.91s-.45,0-.91.45"/>
          <path class="st3" d="M659.15,961.91h-.9"/>
          <line class="st3" x1="696.96" y1="949.75" x2="696.96" y2="881.77"/>
        </g>
      </g>
      <rect class="st4" x="661.79" y="912.93" width="68.07" height="5.88" transform="translate(-220.04 1611.69) rotate(-90)"/>
      <path class="st5" d="M691.56,881.83c-1.8-4.95-5.4-9-9.9-11.26"/>
      <path class="st5" d="M688.41,961.97h-.9"/>
      <path class="st5" d="M654.65,949.81c1.8,4.95,5.4,9,9.9,11.71"/>
      <path class="st5" d="M665,962.87c.45-.45,0-1.35-.45-1.35"/>
      <path class="st5" d="M658.7,961.97c1.35.9,2.7,1.35,3.6,2.25"/>
      <path class="st5" d="M662.3,964.22c1.35,0,2.25-.45,2.7-1.35"/>
      <path class="st5" d="M656.9,962.42s-.45,0-.45.45"/>
      <path class="st5" d="M658.25,961.97c-.45,0-.9,0-1.35.45"/>
      <line class="st5" x1="658.7" y1="961.97" x2="658.25" y2="961.97"/>
      <line class="st5" x1="698.77" y1="881.83" x2="698.77" y2="949.81"/>
      <line class="st5" x1="698.77" y1="881.83" x2="647.89" y2="881.83"/>
      <line class="st5" x1="647.89" y1="949.81" x2="698.77" y2="949.81"/>
      <line class="st5" x1="647.89" y1="881.83" x2="647.89" y2="949.81"/>
      <path class="st5" d="M689.76,869.23c-9.9-7.2-23.41-7.2-33.32,0"/>
      <path class="st5" d="M691.56,881.83c-1.8-4.95-5.4-9-9.9-11.26"/>
      <path class="st5" d="M681.21,869.23c0,.45,0,.9.45,1.35"/>
      <path class="st5" d="M687.51,869.68c-1.35-.45-2.25-1.35-3.6-1.8"/>
      <path class="st5" d="M683.91,867.88c-.9,0-2.25.45-2.7,1.35"/>
      <path class="st5" d="M689.31,869.68s.45,0,.45-.45"/>
      <path class="st5" d="M688.41,869.68h.9"/>
      <path class="st5" d="M687.51,869.68h.9"/>
      <path class="st5" d="M664.55,870.58c-4.5,2.25-8.1,6.3-9.9,11.26"/>
      <path class="st5" d="M664.55,870.58c.45-.45.9-.9.45-1.35"/>
      <path class="st5" d="M662.3,867.88c-.9.45-2.25,1.35-3.6,1.8"/>
      <path class="st5" d="M665,869.23c-.45-.9-1.35-1.35-2.7-1.35"/>
      <path class="st5" d="M656.45,869.23c0,.45.45.45.45.45"/>
      <line class="st5" x1="656.9" y1="869.68" x2="658.25" y2="869.68"/>
      <line class="st5" x1="658.25" y1="869.68" x2="658.7" y2="869.68"/>
      <path class="st5" d="M656.45,962.87c9.9,6.75,23.41,6.75,33.32,0"/>
      <path class="st5" d="M681.66,961.52c4.5-2.7,8.1-6.75,9.9-11.71"/>
      <path class="st5" d="M681.66,961.52c-.45,0-.45.9-.45,1.35"/>
      <path class="st5" d="M683.91,964.22c1.35-.9,2.25-1.35,3.6-2.25"/>
      <path class="st5" d="M681.21,962.87c.45.9,1.8,1.35,2.7,1.35"/>
      <path class="st5" d="M689.76,962.87c0-.45-.45-.45-.45-.45"/>
      <path class="st5" d="M689.31,962.42c-.45-.45-.9-.45-.9-.45"/>
      <path class="st5" d="M688.41,961.97h-.9"/>
      <path class="st5" d="M654.65,949.81c1.8,4.95,5.4,9,9.9,11.71"/>
      <path class="st5" d="M665,962.87c.45-.45,0-1.35-.45-1.35"/>
      <path class="st5" d="M658.7,961.97c1.35.9,2.7,1.35,3.6,2.25"/>
      <path class="st5" d="M662.3,964.22c1.35,0,2.25-.45,2.7-1.35"/>
      <path class="st5" d="M656.9,962.42s-.45,0-.45.45"/>
      <path class="st5" d="M658.25,961.97c-.45,0-.9,0-1.35.45"/>
      <line class="st5" x1="658.7" y1="961.97" x2="658.25" y2="961.97"/>
      <line class="st5" x1="698.77" y1="881.83" x2="698.77" y2="949.81"/>
      <line class="st5" x1="698.77" y1="881.83" x2="647.89" y2="881.83"/>
      <line class="st5" x1="647.89" y1="949.81" x2="698.77" y2="949.81"/>
      <line class="st5" x1="647.89" y1="881.83" x2="647.89" y2="949.81"/>
      <path class="st5" d="M689.76,869.23c-9.9-7.2-23.41-7.2-33.32,0"/>
      <path class="st5" d="M681.21,869.23c0,.45,0,.9.45,1.35"/>
      <path class="st5" d="M687.51,869.68c-1.35-.45-2.25-1.35-3.6-1.8"/>
      <path class="st5" d="M683.91,867.88c-.9,0-2.25.45-2.7,1.35"/>
      <path class="st5" d="M689.31,869.68s.45,0,.45-.45"/>
      <path class="st5" d="M688.41,869.68h.9"/>
      <path class="st5" d="M687.51,869.68h.9"/>
      <path class="st5" d="M664.55,870.58c-4.5,2.25-8.1,6.3-9.9,11.26"/>
      <path class="st5" d="M664.55,870.58c.45-.45.9-.9.45-1.35"/>
      <path class="st5" d="M662.3,867.88c-.9.45-2.25,1.35-3.6,1.8"/>
      <path class="st5" d="M665,869.23c-.45-.9-1.35-1.35-2.7-1.35"/>
      <path class="st5" d="M656.45,869.23c0,.45.45.45.45.45"/>
      <line class="st5" x1="656.9" y1="869.68" x2="658.25" y2="869.68"/>
      <line class="st5" x1="658.25" y1="869.68" x2="658.7" y2="869.68"/>
      <path class="st5" d="M656.45,962.87c9.9,6.75,23.41,6.75,33.32,0"/>
      <path class="st5" d="M681.66,961.52c4.5-2.7,8.1-6.75,9.9-11.71"/>
      <path class="st5" d="M681.66,961.52c-.45,0-.45.9-.45,1.35"/>
      <path class="st5" d="M683.91,964.22c1.35-.9,2.25-1.35,3.6-2.25"/>
      <path class="st5" d="M681.21,962.87c.45.9,1.8,1.35,2.7,1.35"/>
      <path class="st5" d="M689.76,962.87c0-.45-.45-.45-.45-.45"/>
      <path class="st5" d="M689.31,962.42c-.45-.45-.9-.45-.9-.45"/>
    </g>
    <g>
      <g>
        <polygon class="st9" points="638.75 586.47 613.38 589.85 608.01 547.83 693.37 536.09 699.22 578.41 675.11 581.62 638.75 586.47"/>
        <path class="st9" d="M675.13,594.4c-9,8.56-22.06,9.91-32.86,4.51q0-.45.45-.45c0-.45.45-.45.9-.45h.9c.9.45,2.25.9,3.6,1.35.9,0,1.8-.45,2.25-1.8.45-.45,0-.9-.45-.9-4.89-2.23-8.91-5.34-11.17-10.19l36.36-4.85.02.18c-1.35,4.95-4.05,9.45-8.1,12.6-.45,0-.9.91-.45,1.36.9.45,1.8.9,2.7.9,1.35-.9,2.25-1.81,3.6-2.26,0-.45.45-.45.45-.45h1.35l.45.45Z"/>
      </g>
      <g>
        <line class="st2" x1="613.38" y1="589.85" x2="608.01" y2="547.83"/>
        <polyline class="st2" points="699.22 578.41 675.11 581.62 638.75 586.47 613.38 589.85"/>
        <line class="st2" x1="693.37" y1="536.09" x2="699.22" y2="578.41"/>
        <path class="st2" d="M642.27,598.91c10.8,5.4,23.86,4.05,32.86-4.51"/>
        <path class="st2" d="M675.13,581.8c-1.35,4.95-4.05,9.45-8.1,12.6"/>
        <path class="st2" d="M667.03,594.4c-.45,0-.9.91-.45,1.36"/>
        <path class="st2" d="M669.28,596.66c1.35-.9,2.25-1.81,3.6-2.26"/>
        <path class="st2" d="M666.58,595.76c.9.45,1.8.9,2.7.9"/>
        <line class="st2" x1="675.13" y1="594.4" x2="674.68" y2="593.95"/>
        <line class="st2" x1="674.68" y1="593.95" x2="673.33" y2="593.95"/>
        <path class="st2" d="M673.33,593.95s-.45,0-.45.45"/>
        <path class="st2" d="M649.92,596.66c-4.89-2.23-8.91-5.34-11.17-10.19-.03-.05-.05-.11-.08-.17"/>
        <path class="st2" d="M650.37,597.56c.45-.45,0-.9-.45-.9"/>
        <path class="st2" d="M644.52,598.01c.9.45,2.25.9,3.6,1.35"/>
        <path class="st2" d="M648.12,599.36c.9,0,1.8-.45,2.25-1.8"/>
        <path class="st2" d="M642.72,598.46q-.45,0-.45.45"/>
        <path class="st2" d="M643.62,598.01c-.45,0-.9,0-.9.45"/>
        <path class="st2" d="M644.52,598.01h-.9"/>
        <line class="st2" x1="608.01" y1="547.83" x2="693.37" y2="536.09"/>
      </g>
    </g>
    <polygon class="st10" points="600.85 591.48 707.99 577.47 707.99 533.99 600.85 548.32 600.85 591.48"/>
    <rect class="st8" x="598.36" y="739.61" width="9.9" height="27.44" transform="translate(-150.02 1356.64) rotate(-90)"/>
    <circle class="st6" cx="493.91" cy="1068.92" r="16.62"/>
  </g>
</svg>