<?xml version="1.0" encoding="UTF-8"?>
<svg xmlns="http://www.w3.org/2000/svg" version="1.1" viewBox="0 0 1200 1697.14">
  <!-- Generator: Adobe Illustrator 29.6.0, SVG Export Plug-In . SVG Version: 2.1.1 Build 207)  -->
  <defs>
    <style>
      .st0, .st1 {
        stroke: #0d101f;
      }

      .st0, .st1, .st2, .st3, .st4 {
        stroke-linecap: round;
        stroke-linejoin: round;
        stroke-width: .15px;
      }

      .st0, .st5 {
        fill: #fff;
      }

      .st1, .st2, .st3, .st4 {
        fill: none;
      }

      .st2 {
        stroke: #1e1e1c;
      }

      .st6 {
        fill: #383037;
      }

      .st3 {
        stroke: #1d1d1b;
      }

      .st4 {
        stroke: #11100e;
      }

      .st7 {
        fill: #f2efed;
      }
    </style>
  </defs>
  <g id="sfondo">
    <polygon class="st7" points="740.92 591 812.45 1126.75 461.29 1126.75 453.19 1118.19 453.19 1101.09 453.19 1100.18 453.19 1016.45 453.19 1015.1 453.19 1006.09 459.04 999.79 459.04 591 491.45 591 491.45 590.65 740.92 590.65 740.92 591"/>
  </g>
  <g id="letto">
    <g>
      <rect class="st5" x="710.93" y="915.34" width="55.54" height="52.76"/>
      <line class="st4" x1="766.47" y1="968.1" x2="766.47" y2="966.98"/>
      <line class="st4" x1="766.47" y1="964.36" x2="766.47" y2="961.74"/>
      <line class="st4" x1="766.47" y1="959.12" x2="766.47" y2="956.5"/>
      <line class="st4" x1="766.47" y1="953.88" x2="766.47" y2="950.89"/>
      <line class="st4" x1="766.47" y1="948.27" x2="766.47" y2="945.65"/>
      <line class="st4" x1="766.47" y1="943.03" x2="766.47" y2="940.41"/>
      <line class="st4" x1="766.47" y1="937.79" x2="766.47" y2="935.17"/>
      <line class="st4" x1="766.47" y1="932.55" x2="766.47" y2="929.93"/>
      <line class="st4" x1="766.47" y1="927.31" x2="766.47" y2="924.69"/>
      <line class="st4" x1="766.47" y1="921.7" x2="766.47" y2="919.08"/>
      <line class="st4" x1="766.47" y1="916.46" x2="766.47" y2="915.34"/>
      <line class="st4" x1="766.47" y1="915.34" x2="764.91" y2="915.34"/>
      <line class="st4" x1="762.17" y1="915.34" x2="759.43" y2="915.34"/>
      <line class="st4" x1="756.69" y1="915.34" x2="753.96" y2="915.34"/>
      <line class="st4" x1="751.22" y1="915.34" x2="748.48" y2="915.34"/>
      <line class="st4" x1="745.74" y1="915.34" x2="743" y2="915.34"/>
      <line class="st4" x1="740.27" y1="915.34" x2="737.14" y2="915.34"/>
      <line class="st4" x1="734.4" y1="915.34" x2="731.66" y2="915.34"/>
      <line class="st4" x1="728.92" y1="915.34" x2="726.18" y2="915.34"/>
      <line class="st4" x1="723.45" y1="915.34" x2="720.71" y2="915.34"/>
      <line class="st4" x1="717.97" y1="915.34" x2="715.23" y2="915.34"/>
      <line class="st4" x1="712.49" y1="915.34" x2="710.93" y2="915.34"/>
      <line class="st4" x1="710.93" y1="915.34" x2="710.93" y2="916.46"/>
      <line class="st4" x1="710.93" y1="919.08" x2="710.93" y2="921.7"/>
      <line class="st4" x1="710.93" y1="924.69" x2="710.93" y2="927.31"/>
      <line class="st4" x1="710.93" y1="929.93" x2="710.93" y2="932.55"/>
      <line class="st4" x1="710.93" y1="935.17" x2="710.93" y2="937.79"/>
      <line class="st4" x1="710.93" y1="940.41" x2="710.93" y2="943.03"/>
      <line class="st4" x1="710.93" y1="945.65" x2="710.93" y2="948.27"/>
      <line class="st4" x1="710.93" y1="950.89" x2="710.93" y2="953.88"/>
      <line class="st4" x1="710.93" y1="956.5" x2="710.93" y2="959.12"/>
      <line class="st4" x1="710.93" y1="961.74" x2="710.93" y2="964.36"/>
      <line class="st4" x1="710.93" y1="966.98" x2="710.93" y2="968.1"/>
      <path class="st4" d="M766.47,915.34"/>
      <line class="st4" x1="766.47" y1="915.34" x2="766.47" y2="916.46"/>
      <line class="st4" x1="766.47" y1="919.08" x2="766.47" y2="921.7"/>
      <line class="st4" x1="766.47" y1="924.69" x2="766.47" y2="927.31"/>
      <line class="st4" x1="766.47" y1="929.93" x2="766.47" y2="932.55"/>
      <line class="st4" x1="766.47" y1="935.17" x2="766.47" y2="937.79"/>
      <line class="st4" x1="766.47" y1="940.41" x2="766.47" y2="943.03"/>
      <line class="st4" x1="766.47" y1="945.65" x2="766.47" y2="948.27"/>
      <line class="st4" x1="766.47" y1="950.89" x2="766.47" y2="953.88"/>
      <line class="st4" x1="766.47" y1="956.5" x2="766.47" y2="959.12"/>
      <line class="st4" x1="766.47" y1="961.74" x2="766.47" y2="964.36"/>
      <line class="st4" x1="766.47" y1="966.98" x2="766.47" y2="968.1"/>
    </g>
  </g>
  <g id="bianchi">
    <g>
      <polygon class="st5" points="725.11 1044.83 725.11 1045.95 724.51 1045.95 725.11 1044.83"/>
      <polygon class="st5" points="725.11 978.51 725.11 1044.83 724.51 1045.95 658.19 1045.95 657.07 1045.36 657.07 979.04 657.67 977.91 723.99 977.91 725.11 978.51"/>
      <polygon class="st5" points="725.11 977.91 725.11 978.51 723.99 977.91 725.11 977.91"/>
      <polygon class="st5" points="658.19 1045.95 657.07 1045.95 657.07 1045.36 658.19 1045.95"/>
      <polygon class="st5" points="657.67 977.91 657.07 979.04 657.07 977.91 657.67 977.91"/>
    </g>
    <path class="st5" d="M641.29,978.03v27.68c0,.61-.29,1.11-.66,1.11h-37.37c-.45,0-.82-.5-.82-1.11v-27.68h38.85Z"/>
    <g id="LINE">
      <path class="st5" d="M725.1,1094.14h-24.72c-9.52,0-17.21-6.83-17.21-15.29s7.69-15.28,17.21-15.28h24.72v30.57Z"/>
    </g>
    <rect class="st5" x="491.45" y="590.65" width="185.04" height="21.33"/>
    <rect class="st5" x="453.18" y="1015.45" width="12.16" height="85.64"/>
  </g>
  <g id="Livello_1">
    <path class="st3" d="M724.83,674.27c.9-4.95.9-9.9,0-14.86"/>
    <path class="st3" d="M669.91,657.16c-.9,1.35-.9,3.15,0,4.5"/>
    <path class="st3" d="M672.16,654.01c-.9.9-1.8,1.8-2.25,3.15"/>
    <path class="st3" d="M685.21,638.25c-.45,0-.45.45-.9.9"/>
    <path class="st3" d="M690.17,635.55c-1.8.45-3.6,1.35-4.95,2.7"/>
    <path class="st3" d="M705.47,637.35c-4.95-1.35-10.35-1.8-15.31-1.8"/>
    <line class="st3" x1="730.06" y1="978.01" x2="793.99" y2="1118.02"/>
    <path class="st3" d="M580.59,1034.73c-18.91,0-36.47,7.65-49.52,20.71-13.51,13.06-20.71,31.06-20.71,49.52"/>
    <line class="st3" x1="580.59" y1="1101.36" x2="580.59" y2="1104.97"/>
    <line class="st3" x1="580.59" y1="1104.97" x2="510.36" y2="1104.97"/>
    <line class="st3" x1="580.59" y1="1101.36" x2="580.59" y2="1034.73"/>
    <line class="st3" x1="767.43" y1="978.01" x2="733.66" y2="978.01"/>
    <line class="st3" x1="733.66" y1="968.1" x2="734.56" y2="968.1"/>
    <line class="st3" x1="766.53" y1="968.1" x2="767.43" y2="968.1"/>
    <line class="st3" x1="734.56" y1="969.9" x2="766.53" y2="969.9"/>
    <line class="st3" x1="766.53" y1="969.9" x2="766.53" y2="968.1"/>
    <line class="st3" x1="766.53" y1="968.1" x2="734.56" y2="968.1"/>
    <line class="st3" x1="734.56" y1="968.1" x2="734.56" y2="969.9"/>
    <path class="st3" d="M544.12,1097.31c0-20.71-8.55-40.97-23.41-55.83-14.41-14.41-34.67-22.96-55.38-22.96"/>
    <line class="st3" x1="465.34" y1="1097.31" x2="544.12" y2="1097.31"/>
    <line class="st3" x1="465.34" y1="1093.71" x2="465.34" y2="1097.31"/>
    <line class="st3" x1="465.34" y1="1093.71" x2="465.34" y2="1018.53"/>
    <line class="st3" x1="603.1" y1="1114.42" x2="640.47" y2="1114.42"/>
    <line class="st3" x1="640.47" y1="1114.42" x2="640.47" y2="1116.22"/>
    <line class="st3" x1="640.47" y1="1116.22" x2="603.1" y2="1116.22"/>
    <line class="st3" x1="603.1" y1="1116.22" x2="603.1" y2="1114.42"/>
    <line class="st3" x1="608.05" y1="1116.22" x2="608.05" y2="1118.02"/>
    <line class="st3" x1="608.05" y1="1118.02" x2="635.52" y2="1118.02"/>
    <line class="st3" x1="635.52" y1="1118.02" x2="635.52" y2="1116.22"/>
    <line class="st3" x1="603.1" y1="1114.42" x2="640.47" y2="1114.42"/>
    <line class="st3" x1="640.47" y1="1114.42" x2="640.47" y2="1116.22"/>
    <line class="st3" x1="640.47" y1="1116.22" x2="603.1" y2="1116.22"/>
    <line class="st3" x1="603.1" y1="1116.22" x2="603.1" y2="1114.42"/>
    <line class="st3" x1="608.05" y1="1116.22" x2="608.05" y2="1118.02"/>
    <line class="st3" x1="608.05" y1="1118.02" x2="635.52" y2="1118.02"/>
    <line class="st3" x1="635.52" y1="1118.02" x2="635.52" y2="1116.22"/>
    <circle class="st3" cx="621.78" cy="982.3" r="2.2"/>
    <circle class="st3" cx="621.78" cy="996.75" r="2.93"/>
    <path class="st3" d="M623.36,996.75c0,.87-.71,1.58-1.58,1.58s-1.58-.71-1.58-1.58.71-1.58,1.58-1.58,1.58.71,1.58,1.58Z"/>
    <path class="st3" d="M603.1,988.35v16.22c0,.62.37,1.11.82,1.11h35.72c.45,0,.82-.5.82-1.11v-16.22c0-.61-.37-1.11-.82-1.11h-35.72c-.45,0-.82.5-.82,1.11Z"/>
    <path class="st3" d="M602.44,978.01v27.68c0,.62.29,1.11.66,1.11h37.37c.45,0,.82-.49.82-1.11v-27.68"/>
    <line class="st3" x1="641.29" y1="996.92" x2="641.29" y2="986.56"/>
    <line class="st3" x1="612.93" y1="1006.82" x2="631.39" y2="1006.82"/>
    <line class="st3" x1="641.29" y1="996.92" x2="641.29" y2="986.56"/>
    <line class="st3" x1="612.93" y1="1006.82" x2="631.39" y2="1006.82"/>
    <line class="st3" x1="641.29" y1="986.56" x2="641.29" y2="996.92"/>
    <line class="st3" x1="631.39" y1="1006.82" x2="612.93" y2="1006.82"/>
    <line class="st3" x1="641.29" y1="996.92" x2="641.29" y2="986.56"/>
    <line class="st3" x1="612.93" y1="1006.82" x2="631.39" y2="1006.82"/>
    <line class="st3" x1="641.29" y1="996.92" x2="641.29" y2="986.56"/>
    <line class="st3" x1="612.93" y1="1006.82" x2="631.39" y2="1006.82"/>
    <line class="st3" x1="641.29" y1="986.56" x2="641.29" y2="996.92"/>
    <line class="st3" x1="631.39" y1="1006.82" x2="612.93" y2="1006.82"/>
    <line class="st3" x1="775.53" y1="978.01" x2="730.06" y2="1118.02"/>
    <line class="st3" x1="775.53" y1="978.01" x2="730.06" y2="1118.02"/>
    <polyline class="st3" points="658.19 1046.05 657.07 1046.05 657.07 1045.45"/>
    <polyline class="st3" points="725.11 1044.92 725.11 1046.05 724.51 1046.05"/>
    <polyline class="st3" points="723.98 978.01 725.11 978.01 725.11 978.61"/>
    <polyline class="st3" points="657.07 979.13 657.07 978.01 657.67 978.01"/>
    <line class="st3" x1="725.11" y1="1044.92" x2="725.11" y2="978.61"/>
    <line class="st3" x1="658.19" y1="1046.05" x2="724.51" y2="1046.05"/>
    <line class="st3" x1="657.07" y1="979.13" x2="657.07" y2="1045.45"/>
    <circle class="st3" cx="706.3" cy="1011.94" r="4.23"/>
    <circle class="st3" cx="706.3" cy="1011.94" r="4.23"/>
    <line class="st3" x1="725.11" y1="1012.03" x2="706.21" y2="1012.03"/>
    <path class="st3" d="M725.11,1094.14h-24.72c-9.52,0-17.22-6.84-17.22-15.29s7.7-15.29,17.22-15.29h24.72v30.58Z"/>
    <g>
      <rect class="st5" x="608.11" y="915.34" width="101.75" height="53.12"/>
      <rect class="st3" x="666.61" y="925.49" width="31.01" height="31.01"/>
      <rect class="st3" x="658.74" y="917.78" width="46.6" height="46.44"/>
      <line class="st3" x1="682.04" y1="949.01" x2="682.04" y2="961.48"/>
      <line class="st3" x1="630.82" y1="952.46" x2="618.63" y2="952.46"/>
      <line class="st3" x1="630.82" y1="929.54" x2="618.63" y2="929.54"/>
      <line class="st3" x1="624.81" y1="935.56" x2="624.81" y2="923.37"/>
      <line class="st3" x1="624.81" y1="958.63" x2="624.81" y2="946.44"/>
      <rect class="st3" x="610.99" y="918.01" width="26.81" height="45.99"/>
      <rect class="st3" x="608.11" y="915.34" width="101.75" height="51.32"/>
    </g>
    <line class="st3" x1="500.45" y1="603.88" x2="575.64" y2="603.88"/>
    <line class="st3" x1="575.64" y1="603.88" x2="575.64" y2="599.83"/>
    <line class="st3" x1="575.64" y1="599.83" x2="500.45" y2="599.83"/>
    <line class="st3" x1="500.45" y1="599.83" x2="500.45" y2="603.88"/>
    <line class="st3" x1="579.24" y1="611.99" x2="496.85" y2="611.99"/>
    <line class="st3" x1="500.45" y1="599.38" x2="575.64" y2="599.38"/>
    <line class="st3" x1="500.45" y1="606.13" x2="575.64" y2="606.13"/>
    <line class="st3" x1="579.24" y1="611.99" x2="583.74" y2="611.99"/>
    <line class="st3" x1="583.74" y1="611.99" x2="583.74" y2="599.38"/>
    <line class="st3" x1="583.74" y1="599.38" x2="575.64" y2="599.38"/>
    <line class="st3" x1="575.64" y1="599.38" x2="575.64" y2="606.13"/>
    <line class="st3" x1="575.64" y1="606.13" x2="579.24" y2="606.13"/>
    <line class="st3" x1="579.24" y1="606.13" x2="579.24" y2="611.99"/>
    <line class="st3" x1="492.8" y1="611.99" x2="496.85" y2="611.99"/>
    <line class="st3" x1="496.85" y1="611.99" x2="496.85" y2="606.13"/>
    <line class="st3" x1="496.85" y1="606.13" x2="500.45" y2="606.13"/>
    <line class="st3" x1="500.45" y1="606.13" x2="500.45" y2="599.38"/>
    <line class="st3" x1="500.45" y1="599.38" x2="492.8" y2="599.38"/>
    <line class="st3" x1="492.8" y1="599.38" x2="492.8" y2="611.99"/>
    <line class="st3" x1="583.74" y1="599.38" x2="492.8" y2="599.38"/>
    <line class="st3" x1="495.05" y1="599.38" x2="581.49" y2="599.38"/>
    <line class="st3" x1="495.5" y1="599.38" x2="581.04" y2="599.38"/>
    <line class="st3" x1="575.64" y1="599.38" x2="500.45" y2="599.38"/>
    <line class="st3" x1="500.45" y1="599.38" x2="575.64" y2="599.38"/>
    <line class="st3" x1="588.69" y1="603.88" x2="671.08" y2="603.88"/>
    <line class="st3" x1="671.08" y1="603.88" x2="671.08" y2="599.83"/>
    <line class="st3" x1="671.08" y1="599.83" x2="588.69" y2="599.83"/>
    <line class="st3" x1="588.69" y1="599.83" x2="588.69" y2="603.88"/>
    <line class="st3" x1="671.08" y1="611.99" x2="588.69" y2="611.99"/>
    <line class="st3" x1="588.69" y1="599.38" x2="671.08" y2="599.38"/>
    <line class="st3" x1="671.08" y1="611.99" x2="675.13" y2="611.99"/>
    <line class="st3" x1="675.13" y1="611.99" x2="675.13" y2="599.38"/>
    <line class="st3" x1="675.13" y1="599.38" x2="671.08" y2="599.38"/>
    <line class="st3" x1="671.08" y1="599.38" x2="671.08" y2="611.99"/>
    <line class="st3" x1="584.64" y1="611.99" x2="588.69" y2="611.99"/>
    <line class="st3" x1="588.69" y1="611.99" x2="588.69" y2="599.38"/>
    <line class="st3" x1="588.69" y1="599.38" x2="584.64" y2="599.38"/>
    <line class="st3" x1="584.64" y1="599.38" x2="584.64" y2="611.99"/>
    <line class="st3" x1="676.48" y1="611.99" x2="675.13" y2="611.99"/>
    <line class="st3" x1="584.64" y1="611.99" x2="583.74" y2="611.99"/>
    <line class="st3" x1="492.8" y1="611.99" x2="491.45" y2="611.99"/>
    <line class="st3" x1="465.34" y1="1018.53" x2="465.34" y2="1093.71"/>
    <line class="st3" x1="580.59" y1="1101.36" x2="580.59" y2="1034.73"/>
    <path class="st3" d="M724.83,674.27c.9-4.95.9-9.9,0-14.86"/>
    <path class="st3" d="M669.91,657.16c-.9,1.35-.9,3.15,0,4.5"/>
    <path class="st3" d="M672.16,654.01c-.9.9-1.8,1.8-2.25,3.15"/>
    <path class="st3" d="M685.21,638.25c-.45,0-.45.45-.9.9"/>
    <path class="st3" d="M690.17,635.55c-1.8.45-3.6,1.35-4.95,2.7"/>
    <path class="st3" d="M705.47,637.35c-4.95-1.35-10.35-1.8-15.31-1.8"/>
    <line class="st3" x1="730.06" y1="978.01" x2="793.99" y2="1118.02"/>
    <path class="st3" d="M580.59,1034.73c-18.91,0-36.47,7.65-49.52,20.71-13.51,13.06-20.71,31.06-20.71,49.52"/>
    <line class="st3" x1="580.59" y1="1101.36" x2="580.59" y2="1104.97"/>
    <line class="st3" x1="580.59" y1="1104.97" x2="510.36" y2="1104.97"/>
    <line class="st3" x1="580.59" y1="1101.36" x2="580.59" y2="1034.73"/>
    <line class="st3" x1="767.43" y1="978.01" x2="733.66" y2="978.01"/>
    <line class="st3" x1="733.66" y1="968.1" x2="734.56" y2="968.1"/>
    <line class="st3" x1="766.53" y1="968.1" x2="767.43" y2="968.1"/>
    <line class="st3" x1="734.56" y1="969.9" x2="766.53" y2="969.9"/>
    <line class="st3" x1="766.53" y1="969.9" x2="766.53" y2="968.1"/>
    <line class="st3" x1="766.53" y1="968.1" x2="734.56" y2="968.1"/>
    <line class="st3" x1="734.56" y1="968.1" x2="734.56" y2="969.9"/>
    <path class="st3" d="M544.12,1097.31c0-20.71-8.55-40.97-23.41-55.83-14.41-14.41-34.67-22.96-55.38-22.96"/>
    <line class="st3" x1="465.34" y1="1097.31" x2="544.12" y2="1097.31"/>
    <line class="st3" x1="465.34" y1="1093.71" x2="465.34" y2="1097.31"/>
    <line class="st3" x1="465.34" y1="1093.71" x2="465.34" y2="1018.53"/>
    <line class="st3" x1="500.45" y1="603.88" x2="575.64" y2="603.88"/>
    <line class="st3" x1="575.64" y1="603.88" x2="575.64" y2="599.83"/>
    <line class="st3" x1="575.64" y1="599.83" x2="500.45" y2="599.83"/>
    <line class="st3" x1="500.45" y1="599.83" x2="500.45" y2="603.88"/>
    <line class="st3" x1="579.24" y1="611.99" x2="496.85" y2="611.99"/>
    <line class="st3" x1="500.45" y1="599.38" x2="575.64" y2="599.38"/>
    <line class="st3" x1="500.45" y1="606.13" x2="575.64" y2="606.13"/>
    <line class="st3" x1="579.24" y1="611.99" x2="583.74" y2="611.99"/>
    <line class="st3" x1="583.74" y1="611.99" x2="583.74" y2="599.38"/>
    <line class="st3" x1="583.74" y1="599.38" x2="575.64" y2="599.38"/>
    <line class="st3" x1="575.64" y1="599.38" x2="575.64" y2="606.13"/>
    <line class="st3" x1="575.64" y1="606.13" x2="579.24" y2="606.13"/>
    <line class="st3" x1="579.24" y1="606.13" x2="579.24" y2="611.99"/>
    <line class="st3" x1="492.8" y1="611.99" x2="496.85" y2="611.99"/>
    <line class="st3" x1="496.85" y1="611.99" x2="496.85" y2="606.13"/>
    <line class="st3" x1="496.85" y1="606.13" x2="500.45" y2="606.13"/>
    <line class="st3" x1="500.45" y1="606.13" x2="500.45" y2="599.38"/>
    <line class="st3" x1="500.45" y1="599.38" x2="492.8" y2="599.38"/>
    <line class="st3" x1="492.8" y1="599.38" x2="492.8" y2="611.99"/>
    <line class="st3" x1="583.74" y1="599.38" x2="492.8" y2="599.38"/>
    <line class="st3" x1="495.05" y1="599.38" x2="581.49" y2="599.38"/>
    <line class="st3" x1="495.5" y1="599.38" x2="581.04" y2="599.38"/>
    <line class="st3" x1="575.64" y1="599.38" x2="500.45" y2="599.38"/>
    <line class="st3" x1="500.45" y1="599.38" x2="575.64" y2="599.38"/>
    <line class="st3" x1="588.69" y1="603.88" x2="671.08" y2="603.88"/>
    <line class="st3" x1="671.08" y1="603.88" x2="671.08" y2="599.83"/>
    <line class="st3" x1="671.08" y1="599.83" x2="588.69" y2="599.83"/>
    <line class="st3" x1="588.69" y1="599.83" x2="588.69" y2="603.88"/>
    <line class="st3" x1="671.08" y1="611.99" x2="588.69" y2="611.99"/>
    <line class="st3" x1="588.69" y1="599.38" x2="671.08" y2="599.38"/>
    <line class="st3" x1="671.08" y1="611.99" x2="675.13" y2="611.99"/>
    <line class="st3" x1="675.13" y1="611.99" x2="675.13" y2="599.38"/>
    <line class="st3" x1="675.13" y1="599.38" x2="671.08" y2="599.38"/>
    <line class="st3" x1="671.08" y1="599.38" x2="671.08" y2="611.99"/>
    <line class="st3" x1="584.64" y1="611.99" x2="588.69" y2="611.99"/>
    <line class="st3" x1="588.69" y1="611.99" x2="588.69" y2="599.38"/>
    <line class="st3" x1="588.69" y1="599.38" x2="584.64" y2="599.38"/>
    <line class="st3" x1="584.64" y1="599.38" x2="584.64" y2="611.99"/>
    <line class="st3" x1="676.48" y1="611.99" x2="675.13" y2="611.99"/>
    <line class="st3" x1="584.64" y1="611.99" x2="583.74" y2="611.99"/>
    <line class="st3" x1="492.8" y1="611.99" x2="491.45" y2="611.99"/>
    <line class="st3" x1="465.34" y1="1018.53" x2="465.34" y2="1093.71"/>
    <line class="st3" x1="580.59" y1="1101.36" x2="580.59" y2="1034.73"/>
    <g>
      <path class="st5" d="M701.42,692.28c-1.35.45-3.16.45-4.51-.45-12.6-6.31-22.06-17.11-27.01-30.17-.9-1.35-.9-3.15,0-4.5.45-1.35,1.35-2.25,2.25-3.15l12.16-14.86c.45-.45.45-.9.9-.9,1.35-1.35,3.15-2.25,4.95-2.7,4.95,0,10.36.45,15.31,1.8,4.95.9,9.9,3.6,13.5,7.65,3.61,3.61,5.86,9.01,5.86,14.41.9,4.95.9,9.91,0,14.86-.45,1.8-1.35,3.6-2.7,4.95-.45,0-.9.45-.9.45l-16.21,10.81c-.9.9-2.25,1.35-3.6,1.8Z"/>
      <path class="st3" d="M690.62,644.11c-3.6,2.25-6.75,4.5-9.45,7.2"/>
      <path class="st3" d="M710.88,646.36c-5.4-4.95-13.51-5.85-20.26-2.25"/>
      <path class="st3" d="M714.03,649.51c-.9-1.35-1.8-2.25-3.15-3.15"/>
      <path class="st3" d="M718.98,645.01c-3.6-4.05-8.55-6.75-13.51-7.65"/>
      <line class="st3" x1="684.31" y1="639.15" x2="672.16" y2="654.01"/>
      <path class="st3" d="M669.91,661.66c4.95,13.06,14.41,23.86,27.01,30.16"/>
      <path class="st3" d="M708.62,681.92c2.7-2.7,5.4-5.85,8.1-9"/>
      <path class="st3" d="M716.73,672.92c4.05-6.3,4.05-14.41-.45-20.71"/>
      <path class="st3" d="M716.28,652.21c-.45-.9-1.35-1.8-2.25-2.7"/>
      <path class="st3" d="M724.83,659.41c0-5.4-2.25-10.8-5.85-14.41"/>
      <path class="st3" d="M696.92,691.83c1.35.9,3.15.9,4.5.45"/>
      <path class="st3" d="M701.42,692.28c1.35-.45,2.7-.9,3.6-1.8"/>
      <line class="st3" x1="721.23" y1="679.67" x2="705.02" y2="690.48"/>
      <path class="st3" d="M721.23,679.67s.45-.45.9-.45"/>
      <path class="st3" d="M722.13,679.22c1.35-1.35,2.25-3.15,2.7-4.95"/>
      <path class="st3" d="M690.62,644.11c-3.6,2.25-6.75,4.5-9.45,7.2"/>
      <path class="st3" d="M710.88,646.36c-5.4-4.95-13.51-5.85-20.26-2.25"/>
      <path class="st3" d="M714.03,649.51c-.9-1.35-1.8-2.25-3.15-3.15"/>
      <path class="st3" d="M718.98,645.01c-3.6-4.05-8.55-6.75-13.51-7.65"/>
      <line class="st3" x1="684.31" y1="639.15" x2="672.16" y2="654.01"/>
      <path class="st3" d="M669.91,661.66c4.95,13.06,14.41,23.86,27.01,30.16"/>
      <path class="st3" d="M708.62,681.92c2.7-2.7,5.4-5.85,8.1-9"/>
      <path class="st3" d="M716.73,672.92c4.05-6.3,4.05-14.41-.45-20.71"/>
      <path class="st3" d="M716.28,652.21c-.45-.9-1.35-1.8-2.25-2.7"/>
      <path class="st3" d="M724.83,659.41c0-5.4-2.25-10.8-5.85-14.41"/>
      <path class="st3" d="M696.92,691.83c1.35.9,3.15.9,4.5.45"/>
      <path class="st3" d="M701.42,692.28c1.35-.45,2.7-.9,3.6-1.8"/>
      <line class="st3" x1="721.23" y1="679.67" x2="705.02" y2="690.48"/>
      <path class="st3" d="M721.23,679.67s.45-.45.9-.45"/>
      <path class="st3" d="M722.13,679.22c1.35-1.35,2.25-3.15,2.7-4.95"/>
    </g>
    <line class="st3" x1="465.34" y1="1014.92" x2="465.34" y2="1016.27"/>
    <line class="st3" x1="742.21" y1="599.83" x2="741.76" y2="599.83"/>
    <line class="st3" x1="465.34" y1="1014.92" x2="465.34" y2="1016.27"/>
    <line class="st3" x1="465.34" y1="1016.27" x2="465.34" y2="1014.92"/>
    <line class="st3" x1="742.21" y1="599.83" x2="741.76" y2="599.83"/>
    <line class="st3" x1="465.34" y1="1016.27" x2="465.34" y2="1014.92"/>
    <rect class="st0" x="629.64" y="623.91" width="32.87" height="32.87" transform="translate(5.73 1286.41) rotate(-90)"/>
    <g>
      <g id="POLYLINE">
        <line class="st1" x1="521.74" y1="632.71" x2="521.61" y2="632.71"/>
      </g>
      <g id="POLYLINE1" data-name="POLYLINE">
        <line class="st1" x1="521.74" y1="632.71" x2="521.61" y2="632.71"/>
      </g>
      <g>
        <g>
          <polygon class="st5" points="544.48 826.59 544.48 827.03 466.97 827.03 466.97 678.75 467.95 679.24 467.95 826.59 544.48 826.59"/>
          <path class="st5" d="M544.48,717.11v109.48h-76.53v-147.35l17.01,8.41c7.31,3.62,13.36,6.61,18.37,9.09l2.63,1.3c5.59,2.77,9.73,4.82,12.79,6.34l1.16.57,7.56,3.74,17.01,8.42Z"/>
          <path class="st5" d="M544.48,656.51v60.6l-17.01-8.42v-30.18c0-1.94-1.56-3.51-3.5-3.51h-35.51c-1.94,0-3.5,1.57-3.5,3.51v9.14l-17.01-8.41v-22.73h76.53Z"/>
          <path class="st5" d="M527.47,678.51v30.18l-7.56-3.74c-.37-.19-.75-.38-1.16-.57-3.06-1.52-7.2-3.57-12.79-6.34-.85-.41-1.72-.85-2.63-1.3-5.01-2.48-11.06-5.47-18.37-9.09v-9.14c0-1.94,1.56-3.51,3.5-3.51h35.51c1.94,0,3.5,1.57,3.5,3.51Z"/>
        </g>
        <g>
          <polyline class="st1" points="467.95 679.24 467.95 656.51 544.48 656.51 544.48 717.11"/>
          <polyline class="st1" points="484.96 687.65 467.95 679.24 466.97 678.75 466.97 827.03 544.48 827.03 544.48 826.59 544.48 717.11 527.47 708.69"/>
          <line class="st1" x1="505.96" y1="698.04" x2="503.33" y2="696.74"/>
          <line class="st1" x1="519.91" y1="704.95" x2="518.75" y2="704.38"/>
          <line class="st1" x1="488.46" y1="675" x2="523.97" y2="675"/>
          <path class="st1" d="M523.97,675c1.94,0,3.5,1.57,3.5,3.51"/>
          <path class="st1" d="M484.96,678.51c0-1.94,1.56-3.51,3.5-3.51"/>
          <path class="st1" d="M484.96,678.51v9.14c7.31,3.62,13.36,6.61,18.37,9.09.91.45,1.78.89,2.63,1.3,5.59,2.77,9.73,4.82,12.79,6.34.41.19.79.38,1.16.57l7.56,3.74v-30.18"/>
        </g>
      </g>
      <g id="POLYLINE2" data-name="POLYLINE">
        <polygon class="st1" points="466.97 678.75 466.97 827.03 544.49 827.03 544.49 717.11 466.97 678.75"/>
      </g>
      <g id="POLYLINE3" data-name="POLYLINE">
        <polygon class="st1" points="466.97 678.75 466.97 827.03 544.49 827.03 544.49 717.11 466.97 678.75"/>
      </g>
      <g id="LINE1" data-name="LINE">
        <line class="st1" x1="488.46" y1="675" x2="523.97" y2="675"/>
      </g>
      <g id="SPLINE">
        <path class="st1" d="M523.97,675c1.94,0,3.5,1.57,3.5,3.5"/>
      </g>
      <g id="SPLINE1" data-name="SPLINE">
        <path class="st1" d="M484.96,678.5c0-1.93,1.57-3.5,3.5-3.5"/>
      </g>
      <g id="LINE2" data-name="LINE">
        <line class="st1" x1="488.46" y1="675" x2="523.97" y2="675"/>
      </g>
      <g id="SPLINE2" data-name="SPLINE">
        <path class="st1" d="M523.97,675c1.94,0,3.5,1.57,3.5,3.5"/>
      </g>
      <g id="SPLINE3" data-name="SPLINE">
        <path class="st1" d="M484.96,678.5c0-1.93,1.57-3.5,3.5-3.5"/>
      </g>
      <line class="st1" x1="484.96" y1="678.5" x2="484.96" y2="687.65"/>
      <line class="st1" x1="527.48" y1="678.5" x2="527.48" y2="708.69"/>
    </g>
    <g>
      <g>
        <path class="st5" d="M716.63,837.09c-8.87,3.86-19.72,2.94-28.04-2.73q0-.45.45-.9h1.81c1.35.9,2.25,1.35,3.6,2.26.9,0,2.25-.46,2.7-1.36,0-.45,0-1.35-.45-1.35-4.5-2.7-8.11-6.75-9.91-11.7h36.92c-1.8,4.95-5.4,9-9.9,11.7-.45,0-.9.9-.45,1.35.45.9,1.35,1.36,2.7,1.36l.57,1.37Z"/>
        <path class="st5" d="M716.63,837.09l-.57-1.37c.9-.91,2.25-1.36,3.6-2.26h1.8v.9c-1.52,1.09-3.14,2-4.83,2.73Z"/>
        <polygon class="st5" points="686.79 821.31 679.59 821.31 679.59 753.33 686.79 753.33 723.71 753.33 730.46 753.33 730.46 821.31 723.71 821.31 686.79 821.31"/>
        <path class="st5" d="M723.71,753.33h-36.92c1.8-4.96,5.41-9.01,9.91-11.26.45-.45.45-.9.45-1.35-.45-.9-1.8-1.35-2.7-1.35-1.35.45-2.25,1.35-3.6,1.8h-1.81q-.45,0-.45-.45c9.91-7.2,23.42-7.2,32.87,0v.45h-1.8c-1.35-.45-2.7-1.35-3.6-1.8-1.35,0-2.25.45-2.7,1.35-.45.45,0,.9.45,1.35,4.5,2.25,8.1,6.3,9.9,11.26Z"/>
      </g>
      <g>
        <path class="st2" d="M721.46,740.72c-9.45-7.2-22.96-7.2-32.87,0"/>
        <path class="st2" d="M696.7,742.07c-4.5,2.25-8.11,6.3-9.91,11.26"/>
        <path class="st2" d="M696.7,742.07c.45-.45.45-.9.45-1.35"/>
        <path class="st2" d="M694.45,739.37c-1.35.45-2.25,1.35-3.6,1.8"/>
        <path class="st2" d="M697.15,740.72c-.45-.9-1.8-1.35-2.7-1.35"/>
        <path class="st2" d="M688.59,740.72q0,.45.45.45"/>
        <path class="st2" d="M689.04,741.17h.91"/>
        <path class="st2" d="M689.95,741.17h.9"/>
        <path class="st2" d="M723.71,753.33c-1.8-4.96-5.4-9.01-9.9-11.26"/>
        <path class="st2" d="M713.36,740.72c-.45.45,0,.9.45,1.35"/>
        <path class="st2" d="M719.66,741.17c-1.35-.45-2.7-1.35-3.6-1.8"/>
        <path class="st2" d="M716.06,739.37c-1.35,0-2.25.45-2.7,1.35"/>
        <path class="st2" d="M721.46,741.17v-.45"/>
        <line class="st2" x1="720.11" y1="741.17" x2="721.46" y2="741.17"/>
        <line class="st2" x1="719.66" y1="741.17" x2="720.11" y2="741.17"/>
        <line class="st2" x1="679.59" y1="821.31" x2="679.59" y2="753.33"/>
        <polyline class="st2" points="679.59 821.31 686.79 821.31 723.71 821.31 730.46 821.31"/>
        <polyline class="st2" points="730.46 753.33 723.71 753.33 686.79 753.33 679.59 753.33"/>
        <line class="st2" x1="730.46" y1="821.31" x2="730.46" y2="753.33"/>
        <path class="st2" d="M688.59,834.36c8.32,5.67,19.17,6.59,28.04,2.73,1.69-.73,3.31-1.64,4.83-2.73"/>
        <path class="st2" d="M686.79,821.31c1.8,4.95,5.41,9,9.91,11.7"/>
        <path class="st2" d="M697.15,834.36c0-.45,0-1.35-.45-1.35"/>
        <path class="st2" d="M690.85,833.46c1.35.9,2.25,1.35,3.6,2.26"/>
        <path class="st2" d="M694.45,835.72c.9,0,2.25-.46,2.7-1.36"/>
        <path class="st2" d="M689.04,833.46q-.45.45-.45.9"/>
        <path class="st2" d="M689.95,833.46h-.91"/>
        <path class="st2" d="M690.85,833.46h-.9"/>
        <path class="st2" d="M713.81,833.01c4.5-2.7,8.1-6.75,9.9-11.7"/>
        <path class="st2" d="M713.81,833.01c-.45,0-.9.9-.45,1.35"/>
        <path class="st2" d="M716.06,835.72c.9-.91,2.25-1.36,3.6-2.26"/>
        <path class="st2" d="M713.36,834.36c.45.9,1.35,1.36,2.7,1.36"/>
        <path class="st2" d="M721.46,834.36v-.9"/>
        <line class="st2" x1="721.46" y1="833.46" x2="720.11" y2="833.46"/>
        <line class="st2" x1="720.11" y1="833.46" x2="719.66" y2="833.46"/>
      </g>
    </g>
  </g>
  <g id="pareti">
    <g>
      <polygon class="st6" points="740.92 590.83 812.45 1126.58 461.28 1126.58 453.18 1118.02 453.18 1100.92 453.18 1100.02 465.33 1100.02 465.33 1100.92 465.33 1118.02 580.59 1118.02 580.59 1108.57 580.59 1107.67 586.89 1107.67 586.89 1108.57 586.89 1118.02 725.1 1118.02 725.1 978.01 723.98 978.01 657.66 978.01 586.89 978.01 586.89 978.91 586.89 1031.13 586.89 1032.49 580.59 1032.49 580.59 1031.13 580.59 968.11 733.66 968.11 733.66 978.01 730.06 978.01 730.06 1118.02 793.99 1118.02 775.53 978.01 767.42 978.01 767.42 968.11 774.18 968.11 729.16 630.9 676.48 630.9 676.48 590.83 740.92 590.83"/>
      <polygon class="st6" points="491.45 590.83 491.45 630.9 465.33 630.9 465.33 1014.93 465.33 1016.28 453.18 1016.28 453.18 1014.93 453.18 1005.92 459.03 999.62 459.03 590.83 491.45 590.83"/>
    </g>
    <rect class="st7" x="-86.36" y="740.28" width="56.69" height="56.69"/>
    <rect class="st6" x="-86.36" y="679.08" width="56.69" height="56.69"/>
  </g>
</svg>