<?xml version="1.0" encoding="UTF-8"?>
<svg xmlns="http://www.w3.org/2000/svg" version="1.1" viewBox="0 0 1200 1697.14">
  <!-- Generator: Adobe Illustrator 29.6.0, SVG Export Plug-In . SVG Version: 2.1.1 Build 207)  -->
  <defs>
    <style>
      .st0, .st1 {
        stroke: #0d101f;
      }

      .st0, .st1, .st2, .st3, .st4 {
        stroke-width: .15px;
      }

      .st0, .st1, .st2, .st4 {
        stroke-linecap: round;
        stroke-linejoin: round;
      }

      .st0, .st5 {
        fill: #fff;
      }

      .st1, .st2, .st3, .st4 {
        fill: none;
      }

      .st6 {
        fill: #383037;
      }

      .st2 {
        stroke: #1d1d1b;
      }

      .st3 {
        stroke: #000;
        stroke-miterlimit: 10;
      }

      .st4 {
        stroke: #11100e;
      }

      .st7 {
        fill: #f2efed;
      }
    </style>
  </defs>
  <g id="sfondo">
    <polygon class="st7" points="770.15 598.91 770.15 1177.43 464.01 1177.43 464.01 598.91 477.07 598.91 477.07 505.72 721.98 505.72 721.98 598.91 770.15 598.91"/>
  </g>
  <g id="letto">
    <g>
      <g id="POLYLINE">
        <line class="st1" x1="498" y1="999.49" x2="498.12" y2="999.49"/>
      </g>
      <g id="POLYLINE1" data-name="POLYLINE">
        <line class="st1" x1="498" y1="999.49" x2="498.12" y2="999.49"/>
      </g>
      <g>
        <g>
          <polygon class="st5" points="475.25 805.61 475.25 805.17 552.76 805.17 552.76 953.45 551.78 952.96 551.78 805.61 475.25 805.61"/>
          <path class="st5" d="M475.25,915.09v-109.48h76.53v147.35l-17.01-8.41c-7.31-3.62-13.36-6.61-18.37-9.09l-2.63-1.3c-5.59-2.77-9.73-4.82-12.79-6.34l-1.16-.57-7.56-3.74-17.01-8.42Z"/>
          <path class="st5" d="M475.25,975.69v-60.6l17.01,8.42v30.18c0,1.94,1.56,3.51,3.5,3.51h35.51c1.94,0,3.5-1.57,3.5-3.51v-9.14l17.01,8.41v22.73h-76.53Z"/>
          <path class="st5" d="M492.26,953.69v-30.18l7.56,3.74c.37.19.75.38,1.16.57,3.06,1.52,7.2,3.57,12.79,6.34.85.41,1.72.85,2.63,1.3,5.01,2.48,11.06,5.47,18.37,9.09v9.14c0,1.94-1.56,3.51-3.5,3.51h-35.51c-1.94,0-3.5-1.57-3.5-3.51Z"/>
        </g>
        <g>
          <polyline class="st1" points="551.78 952.96 551.78 975.69 475.25 975.69 475.25 915.09"/>
          <polyline class="st1" points="534.77 944.55 551.78 952.96 552.76 953.45 552.76 805.17 475.25 805.17 475.25 805.61 475.25 915.09 492.26 923.51"/>
          <line class="st1" x1="513.77" y1="934.16" x2="516.4" y2="935.46"/>
          <line class="st1" x1="499.82" y1="927.25" x2="500.98" y2="927.82"/>
          <line class="st1" x1="531.27" y1="957.2" x2="495.76" y2="957.2"/>
          <path class="st1" d="M495.76,957.2c-1.94,0-3.5-1.57-3.5-3.51"/>
          <path class="st1" d="M534.77,953.69c0,1.94-1.56,3.51-3.5,3.51"/>
          <path class="st1" d="M534.77,953.69v-9.14c-7.31-3.62-13.36-6.61-18.37-9.09-.91-.45-1.78-.89-2.63-1.3-5.59-2.77-9.73-4.82-12.79-6.34-.41-.19-.79-.38-1.16-.57l-7.56-3.74v30.18"/>
        </g>
      </g>
      <g id="POLYLINE2" data-name="POLYLINE">
        <polygon class="st1" points="552.76 953.45 552.76 805.17 475.25 805.17 475.25 915.09 552.76 953.45"/>
      </g>
      <g id="POLYLINE3" data-name="POLYLINE">
        <polygon class="st1" points="552.76 953.45 552.76 805.17 475.25 805.17 475.25 915.09 552.76 953.45"/>
      </g>
      <g id="LINE">
        <line class="st1" x1="531.27" y1="957.19" x2="495.76" y2="957.19"/>
      </g>
      <g id="SPLINE">
        <path class="st1" d="M495.76,957.19c-1.94,0-3.5-1.57-3.5-3.5"/>
      </g>
      <g id="SPLINE1" data-name="SPLINE">
        <path class="st1" d="M534.78,953.69c0,1.93-1.57,3.5-3.5,3.5"/>
      </g>
      <g id="LINE1" data-name="LINE">
        <line class="st1" x1="531.27" y1="957.19" x2="495.76" y2="957.19"/>
      </g>
      <g id="SPLINE2" data-name="SPLINE">
        <path class="st1" d="M495.76,957.19c-1.94,0-3.5-1.57-3.5-3.5"/>
      </g>
      <g id="SPLINE3" data-name="SPLINE">
        <path class="st1" d="M534.78,953.69c0,1.93-1.57,3.5-3.5,3.5"/>
      </g>
      <line class="st1" x1="534.78" y1="953.69" x2="534.78" y2="944.55"/>
      <line class="st1" x1="492.26" y1="953.69" x2="492.26" y2="923.51"/>
    </g>
    <g>
      <rect class="st5" x="603.23" y="1109.86" width="55.54" height="55.15"/>
      <line class="st4" x1="658.77" y1="1165.01" x2="658.77" y2="1163.83"/>
      <line class="st4" x1="658.77" y1="1161.1" x2="658.77" y2="1158.36"/>
      <line class="st4" x1="658.77" y1="1155.62" x2="658.77" y2="1152.88"/>
      <line class="st4" x1="658.77" y1="1150.14" x2="658.77" y2="1147.01"/>
      <line class="st4" x1="658.77" y1="1144.28" x2="658.77" y2="1141.54"/>
      <line class="st4" x1="658.77" y1="1138.8" x2="658.77" y2="1136.06"/>
      <line class="st4" x1="658.77" y1="1133.32" x2="658.77" y2="1130.59"/>
      <line class="st4" x1="658.77" y1="1127.85" x2="658.77" y2="1125.11"/>
      <line class="st4" x1="658.77" y1="1122.37" x2="658.77" y2="1119.63"/>
      <line class="st4" x1="658.77" y1="1116.51" x2="658.77" y2="1113.77"/>
      <line class="st4" x1="658.77" y1="1111.03" x2="658.77" y2="1109.86"/>
      <line class="st4" x1="658.77" y1="1109.86" x2="657.21" y2="1109.86"/>
      <line class="st4" x1="654.47" y1="1109.86" x2="651.73" y2="1109.86"/>
      <line class="st4" x1="648.99" y1="1109.86" x2="646.25" y2="1109.86"/>
      <line class="st4" x1="643.52" y1="1109.86" x2="640.78" y2="1109.86"/>
      <line class="st4" x1="638.04" y1="1109.86" x2="635.3" y2="1109.86"/>
      <line class="st4" x1="632.56" y1="1109.86" x2="629.43" y2="1109.86"/>
      <line class="st4" x1="626.7" y1="1109.86" x2="623.96" y2="1109.86"/>
      <line class="st4" x1="621.22" y1="1109.86" x2="618.48" y2="1109.86"/>
      <line class="st4" x1="615.74" y1="1109.86" x2="613.01" y2="1109.86"/>
      <line class="st4" x1="610.27" y1="1109.86" x2="607.53" y2="1109.86"/>
      <line class="st4" x1="604.79" y1="1109.86" x2="603.23" y2="1109.86"/>
      <line class="st4" x1="603.23" y1="1109.86" x2="603.23" y2="1111.03"/>
      <line class="st4" x1="603.23" y1="1113.77" x2="603.23" y2="1116.51"/>
      <line class="st4" x1="603.23" y1="1119.63" x2="603.23" y2="1122.37"/>
      <line class="st4" x1="603.23" y1="1125.11" x2="603.23" y2="1127.85"/>
      <line class="st4" x1="603.23" y1="1130.59" x2="603.23" y2="1133.32"/>
      <line class="st4" x1="603.23" y1="1136.06" x2="603.23" y2="1138.8"/>
      <line class="st4" x1="603.23" y1="1141.54" x2="603.23" y2="1144.28"/>
      <line class="st4" x1="603.23" y1="1147.01" x2="603.23" y2="1150.14"/>
      <line class="st4" x1="603.23" y1="1152.88" x2="603.23" y2="1155.62"/>
      <line class="st4" x1="603.23" y1="1158.36" x2="603.23" y2="1161.1"/>
      <line class="st4" x1="603.23" y1="1163.83" x2="603.23" y2="1165.01"/>
      <path class="st4" d="M658.77,1109.86"/>
      <line class="st4" x1="658.77" y1="1109.86" x2="658.77" y2="1111.03"/>
      <line class="st4" x1="658.77" y1="1113.77" x2="658.77" y2="1116.51"/>
      <line class="st4" x1="658.77" y1="1119.63" x2="658.77" y2="1122.37"/>
      <line class="st4" x1="658.77" y1="1125.11" x2="658.77" y2="1127.85"/>
      <line class="st4" x1="658.77" y1="1130.59" x2="658.77" y2="1133.32"/>
      <line class="st4" x1="658.77" y1="1136.06" x2="658.77" y2="1138.8"/>
      <line class="st4" x1="658.77" y1="1141.54" x2="658.77" y2="1144.28"/>
      <line class="st4" x1="658.77" y1="1147.01" x2="658.77" y2="1150.14"/>
      <line class="st4" x1="658.77" y1="1152.88" x2="658.77" y2="1155.62"/>
      <line class="st4" x1="658.77" y1="1158.36" x2="658.77" y2="1161.1"/>
      <line class="st4" x1="658.77" y1="1163.83" x2="658.77" y2="1165.01"/>
    </g>
    <circle class="st0" cx="574.77" cy="959.02" r="14.47"/>
  </g>
  <g id="bianchi">
    <g>
      <polygon class="st5" points="540.87 1159.46 540.87 1160.58 540.27 1160.58 540.87 1159.46"/>
      <polygon class="st5" points="540.87 1093.14 540.87 1159.46 540.27 1160.58 473.95 1160.58 472.83 1159.99 472.83 1093.67 473.43 1092.54 539.75 1092.54 540.87 1093.14"/>
      <polygon class="st5" points="540.87 1092.54 540.87 1093.14 539.75 1092.54 540.87 1092.54"/>
      <polygon class="st5" points="473.95 1160.58 472.83 1160.58 472.83 1159.99 473.95 1160.58"/>
      <polygon class="st5" points="473.43 1092.54 472.83 1093.67 472.83 1092.54 473.43 1092.54"/>
    </g>
    <g>
      <polygon class="st5" points="579.74 1023.87 579.74 1025.23 542.37 1025.23 542.37 1023.87 547.32 1023.87 574.33 1023.87 579.74 1023.87"/>
      <rect class="st5" x="547.32" y="1022.07" width="27.01" height="1.8"/>
    </g>
    <path class="st5" d="M478.4,676.21c-1.35,4.95-1.8,9.91-1.8,15.31.45,1.8,1.35,3.6,2.7,4.95l.9.9,14.41,12.16c1.35.9,2.25,1.8,3.6,2.25s3.15.45,4.5,0c13.06-4.95,23.86-14.86,30.17-27.01.9-1.35.9-3.16.45-4.96-.45-1.35-.9-2.25-1.8-3.15l-10.81-16.21c0-.45-.45-.45-.45-.9-1.35-1.35-3.15-2.7-4.95-3.15-4.95-.45-9.91-.45-15.31,0s-10.35,2.7-13.95,6.31c-4.51,3.6-7.21,8.1-7.66,13.5Z"/>
    <rect class="st5" x="505.13" y="607.46" width="186.69" height="12.61"/>
    <rect class="st5" x="573.98" y="1021.97" width=".79" height="1.99"/>
    <rect class="st5" x="667.96" y="1160.32" width="86.85" height="28.11"/>
  </g>
  <g id="Livello_1">
    <g>
      <path class="st5" d="M549.23,1160.53v-27.68c0-.61.29-1.11.66-1.11h37.37c.45,0,.82.5.82,1.11v27.68h-38.85Z"/>
      <circle class="st2" cx="568.66" cy="1156.24" r="2.2"/>
      <circle class="st2" cx="568.66" cy="1141.78" r="2.93" transform="translate(-673.23 1432.9) rotate(-76.72)"/>
      <path class="st2" d="M567.08,1141.78c0-.87.71-1.58,1.58-1.58s1.58.71,1.58,1.58-.71,1.58-1.58,1.58-1.58-.71-1.58-1.58Z"/>
      <path class="st2" d="M587.34,1150.19v-16.22c0-.62-.37-1.11-.82-1.11h-35.72c-.45,0-.82.5-.82,1.11v16.22c0,.61.37,1.11.82,1.11h35.72c.45,0,.82-.5.82-1.11Z"/>
      <path class="st2" d="M588,1160.53v-27.68c0-.62-.29-1.11-.66-1.11h-37.37c-.45,0-.82.49-.82,1.11v27.68"/>
      <line class="st2" x1="549.15" y1="1141.62" x2="549.15" y2="1151.98"/>
      <line class="st2" x1="577.52" y1="1131.72" x2="559.06" y2="1131.72"/>
      <line class="st2" x1="549.15" y1="1141.62" x2="549.15" y2="1151.98"/>
      <line class="st2" x1="577.52" y1="1131.72" x2="559.06" y2="1131.72"/>
      <line class="st2" x1="549.15" y1="1151.98" x2="549.15" y2="1141.62"/>
      <line class="st2" x1="559.06" y1="1131.72" x2="577.52" y2="1131.72"/>
      <line class="st2" x1="549.15" y1="1141.62" x2="549.15" y2="1151.98"/>
      <line class="st2" x1="577.52" y1="1131.72" x2="559.06" y2="1131.72"/>
      <line class="st2" x1="549.15" y1="1141.62" x2="549.15" y2="1151.98"/>
      <line class="st2" x1="577.52" y1="1131.72" x2="559.06" y2="1131.72"/>
      <line class="st2" x1="549.15" y1="1151.98" x2="549.15" y2="1141.62"/>
      <line class="st2" x1="559.06" y1="1131.72" x2="577.52" y2="1131.72"/>
    </g>
    <g>
      <g id="LINE2" data-name="LINE">
        <path class="st5" d="M522.14,1022.08v24.72c0,9.52-6.83,17.21-15.29,17.21s-15.28-7.69-15.28-17.21v-24.72h30.57Z"/>
      </g>
      <path class="st2" d="M522.14,1022.07v24.72c0,9.52-6.84,17.22-15.29,17.22s-15.29-7.7-15.29-17.22v-24.72h30.58Z"/>
    </g>
    <line class="st3" x1="506.59" y1="1160.32" x2="506.59" y2="1141.42"/>
    <circle class="st3" cx="506.5" cy="1141.51" r="4.23"/>
    <circle class="st3" cx="506.5" cy="1141.51" r="4.23"/>
    <line class="st3" x1="473.69" y1="1092.28" x2="540.01" y2="1092.28"/>
    <line class="st3" x1="540.61" y1="1093.4" x2="540.61" y2="1159.72"/>
    <line class="st3" x1="539.49" y1="1160.32" x2="473.17" y2="1160.32"/>
    <line class="st3" x1="472.57" y1="1159.2" x2="472.57" y2="1092.88"/>
    <polyline class="st3" points="473.69 1092.28 472.57 1092.28 472.57 1092.88"/>
    <polyline class="st3" points="472.57 1159.2 472.57 1160.32 473.17 1160.32"/>
    <polyline class="st3" points="539.49 1160.32 540.61 1160.32 540.61 1159.72"/>
    <polyline class="st3" points="540.61 1093.4 540.61 1092.28 540.01 1092.28"/>
    <line class="st3" x1="579.72" y1="1025.26" x2="542.35" y2="1025.26"/>
    <line class="st3" x1="542.35" y1="1025.26" x2="542.35" y2="1023.91"/>
    <line class="st3" x1="542.35" y1="1023.91" x2="579.72" y2="1023.91"/>
    <line class="st3" x1="579.72" y1="1023.91" x2="579.72" y2="1025.26"/>
    <line class="st3" x1="574.77" y1="1023.91" x2="574.77" y2="1022.1"/>
    <line class="st3" x1="547.3" y1="1022.1" x2="547.3" y2="1023.91"/>
    <line class="st3" x1="579.72" y1="1025.26" x2="542.35" y2="1025.26"/>
    <line class="st3" x1="542.35" y1="1025.26" x2="542.35" y2="1023.91"/>
    <line class="st3" x1="542.35" y1="1023.91" x2="579.72" y2="1023.91"/>
    <line class="st3" x1="579.72" y1="1023.91" x2="579.72" y2="1025.26"/>
    <line class="st3" x1="574.77" y1="1023.91" x2="574.77" y2="1022.1"/>
    <line class="st3" x1="547.3" y1="1022.1" x2="547.3" y2="1023.91"/>
    <g>
      <line class="st3" x1="745.82" y1="978.16" x2="745.82" y2="965.97"/>
      <g>
        <g id="POLYLINE4" data-name="POLYLINE">
          <rect class="st5" x="708.65" y="955.44" width="51.43" height="101.75"/>
        </g>
        <rect class="st3" x="708.7" y="955.44" width="51.32" height="101.75"/>
        <line class="st3" x1="722.91" y1="978.16" x2="722.91" y2="965.97"/>
        <line class="st3" x1="728.92" y1="972.14" x2="716.74" y2="972.14"/>
        <line class="st3" x1="752" y1="972.14" x2="739.81" y2="972.14"/>
        <rect class="st3" x="711.37" y="958.33" width="45.99" height="26.81"/>
        <rect class="st3" x="718.86" y="1013.95" width="31.01" height="31.01"/>
        <rect class="st3" x="711.15" y="1006.07" width="46.44" height="46.6"/>
      </g>
      <line class="st3" x1="742.37" y1="1029.37" x2="754.84" y2="1029.37"/>
    </g>
    <path class="st3" d="M498.25,711.78c-1.35-.45-2.25-1.35-3.6-2.25"/>
    <line class="st3" x1="480.24" y1="697.37" x2="494.65" y2="709.53"/>
    <path class="st3" d="M480.24,697.37l-.9-.9"/>
    <path class="st3" d="M479.34,696.47c-1.35-1.35-2.25-3.15-2.7-4.95"/>
    <path class="st3" d="M476.64,691.52c0-5.4.45-10.35,1.8-15.31"/>
    <line class="st3" x1="721.98" y1="597.56" x2="721.98" y2="505.72"/>
    <path class="st3" d="M672.46,1104.94c0-18.91-7.2-36.47-20.71-49.97-13.06-13.06-30.61-20.26-49.52-20.26"/>
    <line class="st3" x1="602.23" y1="1104.94" x2="672.46" y2="1104.94"/>
    <line class="st3" x1="602.23" y1="1015.8" x2="599.98" y2="1015.8"/>
    <line class="st3" x1="602.23" y1="983.84" x2="602.23" y2="1015.8"/>
    <line class="st3" x1="599.98" y1="983.84" x2="602.23" y2="983.84"/>
    <line class="st3" x1="599.98" y1="1015.8" x2="599.98" y2="983.84"/>
    <line class="st3" x1="602.23" y1="982.94" x2="602.23" y2="983.84"/>
    <line class="st3" x1="602.23" y1="1015.8" x2="602.23" y2="1017.15"/>
    <line class="st3" x1="595.93" y1="1017.15" x2="595.93" y2="982.94"/>
    <line class="st3" x1="602.23" y1="1034.71" x2="602.23" y2="1104.94"/>
    <line class="st3" x1="602.23" y1="1034.71" x2="602.23" y2="1104.94"/>
    <line class="st3" x1="749.45" y1="1160.32" x2="670.66" y2="1160.32"/>
    <line class="st3" x1="670.66" y1="1160.32" x2="749.45" y2="1160.32"/>
    <line class="st3" x1="749.45" y1="1160.32" x2="670.66" y2="1160.32"/>
    <line class="st3" x1="670.66" y1="1160.32" x2="749.45" y2="1160.32"/>
    <path class="st3" d="M599.08,607.46c0-23.41-9.45-45.92-25.66-62.13-16.66-16.66-39.17-26.11-62.58-26.11"/>
    <path class="st3" d="M688.22,519.22c-23.41,0-45.92,9.45-62.58,26.11-16.66,16.21-26.11,38.72-26.11,62.13"/>
    <line class="st3" x1="688.22" y1="607.46" x2="688.22" y2="519.22"/>
    <line class="st3" x1="510.84" y1="607.46" x2="510.84" y2="519.22"/>
    <line class="st3" x1="516.24" y1="612.41" x2="593.67" y2="612.41"/>
    <line class="st3" x1="593.67" y1="612.41" x2="593.67" y2="608.36"/>
    <line class="st3" x1="593.67" y1="608.36" x2="516.24" y2="608.36"/>
    <line class="st3" x1="516.24" y1="608.36" x2="516.24" y2="612.41"/>
    <line class="st3" x1="604.93" y1="612.41" x2="682.82" y2="612.41"/>
    <line class="st3" x1="682.82" y1="612.41" x2="682.82" y2="608.36"/>
    <line class="st3" x1="682.82" y1="608.36" x2="604.93" y2="608.36"/>
    <line class="st3" x1="604.93" y1="608.36" x2="604.93" y2="612.41"/>
    <line class="st3" x1="686.42" y1="620.07" x2="512.19" y2="620.07"/>
    <line class="st3" x1="516.24" y1="607.46" x2="593.67" y2="607.46"/>
    <line class="st3" x1="604.93" y1="607.46" x2="682.82" y2="607.46"/>
    <line class="st3" x1="516.24" y1="614.22" x2="593.67" y2="614.22"/>
    <line class="st3" x1="604.93" y1="614.22" x2="682.82" y2="614.22"/>
    <line class="st3" x1="508.13" y1="620.07" x2="512.19" y2="620.07"/>
    <line class="st3" x1="512.19" y1="620.07" x2="512.19" y2="614.22"/>
    <line class="st3" x1="512.19" y1="614.22" x2="516.24" y2="614.22"/>
    <line class="st3" x1="516.24" y1="614.22" x2="516.24" y2="607.46"/>
    <line class="st3" x1="516.24" y1="607.46" x2="508.13" y2="607.46"/>
    <line class="st3" x1="508.13" y1="607.46" x2="508.13" y2="620.07"/>
    <line class="st3" x1="604.93" y1="607.46" x2="593.67" y2="607.46"/>
    <line class="st3" x1="593.67" y1="607.46" x2="593.67" y2="614.22"/>
    <line class="st3" x1="593.67" y1="614.22" x2="604.93" y2="614.22"/>
    <line class="st3" x1="604.93" y1="614.22" x2="604.93" y2="607.46"/>
    <line class="st3" x1="686.42" y1="620.07" x2="690.92" y2="620.07"/>
    <line class="st3" x1="690.92" y1="620.07" x2="690.92" y2="607.46"/>
    <line class="st3" x1="690.92" y1="607.46" x2="682.82" y2="607.46"/>
    <line class="st3" x1="682.82" y1="607.46" x2="682.82" y2="614.22"/>
    <line class="st3" x1="682.82" y1="614.22" x2="686.42" y2="614.22"/>
    <line class="st3" x1="686.42" y1="614.22" x2="686.42" y2="620.07"/>
    <line class="st3" x1="691.82" y1="620.07" x2="690.92" y2="620.07"/>
    <line class="st3" x1="508.13" y1="620.07" x2="507.23" y2="620.07"/>
    <path class="st3" d="M749.45,1081.53c-21.16,0-40.97,8.55-55.83,22.96-14.86,14.86-22.96,35.12-22.96,55.83"/>
    <line class="st3" x1="749.45" y1="1160.32" x2="749.45" y2="1081.53"/>
    <line class="st3" x1="472.57" y1="1017.15" x2="595.93" y2="982.94"/>
    <line class="st3" x1="472.57" y1="982.94" x2="595.93" y2="1017.15"/>
    <path class="st3" d="M532.91,684.77c-6.3,12.16-17.11,22.06-30.16,27.01"/>
    <path class="st3" d="M514.01,664.96c3.15,2.25,6.3,4.95,8.55,8.1"/>
    <path class="st3" d="M493.3,664.96c6.3-4.05,14.41-4.05,20.71,0"/>
    <path class="st3" d="M490.14,667.66c1.35-.9,2.25-1.8,3.15-2.7"/>
    <path class="st3" d="M486.09,662.71c3.6-3.6,8.55-5.85,13.96-6.3"/>
    <path class="st3" d="M533.36,679.82c.45,1.8.45,3.6-.45,4.95"/>
    <path class="st3" d="M531.56,676.66c.9.9,1.35,1.8,1.8,3.15"/>
    <line class="st3" x1="520.76" y1="660.46" x2="531.56" y2="676.66"/>
    <path class="st3" d="M520.31,659.56c0,.45.45.45.45.9"/>
    <path class="st3" d="M515.36,656.41c1.8.45,3.6,1.8,4.95,3.15"/>
    <path class="st3" d="M500.05,656.41c5.4-.45,10.35-.45,15.31,0"/>
    <path class="st3" d="M492.4,700.53c-2.7-3.15-4.95-6.3-7.2-9.45"/>
    <path class="st3" d="M485.19,691.07c-3.6-6.75-2.7-14.86,2.25-20.71"/>
    <line class="st3" x1="487.44" y1="670.36" x2="490.14" y2="667.66"/>
    <path class="st3" d="M478.44,676.21c.45-5.4,3.15-9.9,7.65-13.51"/>
    <path class="st3" d="M502.75,711.78c-1.35.45-3.15.45-4.5,0"/>
    <path class="st3" d="M498.25,711.78c-1.35-.45-2.25-1.35-3.6-2.25"/>
    <line class="st3" x1="480.24" y1="697.37" x2="494.65" y2="709.53"/>
    <path class="st3" d="M480.24,697.37l-.9-.9"/>
    <path class="st3" d="M479.34,696.47c-1.35-1.35-2.25-3.15-2.7-4.95"/>
    <path class="st3" d="M476.64,691.52c0-5.4.45-10.35,1.8-15.31"/>
    <line class="st3" x1="721.98" y1="597.56" x2="721.98" y2="505.72"/>
    <path class="st3" d="M672.46,1104.94c0-18.91-7.2-36.47-20.71-49.97-13.06-13.06-30.61-20.26-49.52-20.26"/>
    <line class="st3" x1="602.23" y1="1104.94" x2="672.46" y2="1104.94"/>
    <line class="st3" x1="602.23" y1="1015.8" x2="599.98" y2="1015.8"/>
    <line class="st3" x1="602.23" y1="983.84" x2="602.23" y2="1015.8"/>
    <line class="st3" x1="599.98" y1="983.84" x2="602.23" y2="983.84"/>
    <line class="st3" x1="599.98" y1="1015.8" x2="599.98" y2="983.84"/>
    <line class="st3" x1="602.23" y1="982.94" x2="602.23" y2="983.84"/>
    <line class="st3" x1="602.23" y1="1015.8" x2="602.23" y2="1017.15"/>
    <line class="st3" x1="595.93" y1="1017.15" x2="595.93" y2="982.94"/>
    <path class="st3" d="M599.08,607.46c0-23.41-9.45-45.92-25.66-62.13-16.66-16.66-39.17-26.11-62.58-26.11"/>
    <path class="st3" d="M688.22,519.22c-23.41,0-45.92,9.45-62.58,26.11-16.66,16.21-26.11,38.72-26.11,62.13"/>
    <line class="st3" x1="688.22" y1="607.46" x2="688.22" y2="519.22"/>
    <line class="st3" x1="510.84" y1="607.46" x2="510.84" y2="519.22"/>
    <line class="st3" x1="516.24" y1="612.41" x2="593.67" y2="612.41"/>
    <line class="st3" x1="593.67" y1="612.41" x2="593.67" y2="608.36"/>
    <line class="st3" x1="593.67" y1="608.36" x2="516.24" y2="608.36"/>
    <line class="st3" x1="516.24" y1="608.36" x2="516.24" y2="612.41"/>
    <line class="st3" x1="604.93" y1="612.41" x2="682.82" y2="612.41"/>
    <line class="st3" x1="682.82" y1="612.41" x2="682.82" y2="608.36"/>
    <line class="st3" x1="682.82" y1="608.36" x2="604.93" y2="608.36"/>
    <line class="st3" x1="604.93" y1="608.36" x2="604.93" y2="612.41"/>
    <line class="st3" x1="686.42" y1="620.07" x2="512.19" y2="620.07"/>
    <line class="st3" x1="516.24" y1="607.46" x2="593.67" y2="607.46"/>
    <line class="st3" x1="604.93" y1="607.46" x2="682.82" y2="607.46"/>
    <line class="st3" x1="516.24" y1="614.22" x2="593.67" y2="614.22"/>
    <line class="st3" x1="604.93" y1="614.22" x2="682.82" y2="614.22"/>
    <line class="st3" x1="508.13" y1="620.07" x2="512.19" y2="620.07"/>
    <line class="st3" x1="512.19" y1="620.07" x2="512.19" y2="614.22"/>
    <line class="st3" x1="512.19" y1="614.22" x2="516.24" y2="614.22"/>
    <line class="st3" x1="516.24" y1="614.22" x2="516.24" y2="607.46"/>
    <line class="st3" x1="516.24" y1="607.46" x2="508.13" y2="607.46"/>
    <line class="st3" x1="508.13" y1="607.46" x2="508.13" y2="620.07"/>
    <line class="st3" x1="604.93" y1="607.46" x2="593.67" y2="607.46"/>
    <line class="st3" x1="593.67" y1="607.46" x2="593.67" y2="614.22"/>
    <line class="st3" x1="593.67" y1="614.22" x2="604.93" y2="614.22"/>
    <line class="st3" x1="604.93" y1="614.22" x2="604.93" y2="607.46"/>
    <line class="st3" x1="686.42" y1="620.07" x2="690.92" y2="620.07"/>
    <line class="st3" x1="690.92" y1="620.07" x2="690.92" y2="607.46"/>
    <line class="st3" x1="690.92" y1="607.46" x2="682.82" y2="607.46"/>
    <line class="st3" x1="682.82" y1="607.46" x2="682.82" y2="614.22"/>
    <line class="st3" x1="682.82" y1="614.22" x2="686.42" y2="614.22"/>
    <line class="st3" x1="686.42" y1="614.22" x2="686.42" y2="620.07"/>
    <line class="st3" x1="691.82" y1="620.07" x2="690.92" y2="620.07"/>
    <line class="st3" x1="508.13" y1="620.07" x2="507.23" y2="620.07"/>
    <path class="st3" d="M749.45,1081.53c-21.16,0-40.97,8.55-55.83,22.96-14.86,14.86-22.96,35.12-22.96,55.83"/>
    <line class="st3" x1="749.45" y1="1160.32" x2="749.45" y2="1081.53"/>
    <line class="st3" x1="472.57" y1="1017.15" x2="595.93" y2="982.94"/>
    <line class="st3" x1="472.57" y1="982.94" x2="595.93" y2="1017.15"/>
    <path class="st3" d="M532.91,684.77c-6.3,12.16-17.11,22.06-30.16,27.01"/>
    <path class="st3" d="M514.01,664.96c3.15,2.25,6.3,4.95,8.55,8.1"/>
    <path class="st3" d="M493.3,664.96c6.3-4.05,14.41-4.05,20.71,0"/>
    <path class="st3" d="M490.14,667.66c1.35-.9,2.25-1.8,3.15-2.7"/>
    <path class="st3" d="M486.09,662.71c3.6-3.6,8.55-5.85,13.96-6.3"/>
    <path class="st3" d="M533.36,679.82c.45,1.8.45,3.6-.45,4.95"/>
    <path class="st3" d="M531.56,676.66c.9.9,1.35,1.8,1.8,3.15"/>
    <line class="st3" x1="520.76" y1="660.46" x2="531.56" y2="676.66"/>
    <path class="st3" d="M520.31,659.56c0,.45.45.45.45.9"/>
    <path class="st3" d="M515.36,656.41c1.8.45,3.6,1.8,4.95,3.15"/>
    <path class="st3" d="M500.05,656.41c5.4-.45,10.35-.45,15.31,0"/>
    <path class="st3" d="M492.4,700.53c-2.7-3.15-4.95-6.3-7.2-9.45"/>
    <path class="st3" d="M485.19,691.07c-3.6-6.75-2.7-14.86,2.25-20.71"/>
    <line class="st3" x1="487.44" y1="670.36" x2="490.14" y2="667.66"/>
    <path class="st3" d="M478.44,676.21c.45-5.4,3.15-9.9,7.65-13.51"/>
    <path class="st3" d="M502.75,711.78c-1.35.45-3.15.45-4.5,0"/>
    <line class="st3" x1="667.96" y1="1177.43" x2="667.06" y2="1177.43"/>
    <line class="st3" x1="667.96" y1="1177.43" x2="667.06" y2="1177.43"/>
    <line class="st3" x1="667.96" y1="1177.43" x2="667.06" y2="1177.43"/>
    <line class="st3" x1="667.96" y1="1177.43" x2="667.06" y2="1177.43"/>
    <rect class="st0" x="531.53" y="636.09" width="32.87" height="32.87"/>
    <g>
      <g>
        <g>
          <g>
            <polygon class="st5" points="757.36 732.53 757.36 800.96 750.16 800.96 713.24 800.96 706.04 800.96 706.04 732.53 713.24 732.53 750.16 732.53 757.36 732.53"/>
            <path class="st5" d="M750.16,732.53h-36.92c1.8-4.51,5.4-8.56,9.9-11.26.45-.45.9-.9.45-1.35-.45-.9-1.35-1.35-2.7-1.35-1.35.45-2.25,1.35-3.6,1.8,0,.45-.45.45-.45.45-.45,0-.9,0-1.35-.45,0,0-.45,0-.45-.45,9.91-6.75,23.41-6.75,33.32,0,0,.45-.45.45-.45.45-.45.45-.9.45-.9.45-.45,0-.91,0-.91-.45-1.35-.45-2.25-1.35-3.6-1.8-.9,0-2.25.45-2.7,1.35,0,.45,0,.9.45,1.35,4.5,2.7,8.11,6.75,9.91,11.26Z"/>
            <path class="st5" d="M713.24,800.96h36.92c-1.8,4.5-5.41,8.55-9.91,11.25-.45.45-.45.9-.45,1.35.45.9,1.8,1.35,2.7,1.35,1.35-.45,2.25-1.35,3.6-1.8,0,0,.46-.45.91-.45,0,0,.45.45.9.45,0,0,.45,0,.45.45-9.91,7.21-23.41,7.21-33.32,0,0-.45.45-.45.45-.45.45,0,.9-.45,1.35-.45l.45.45c1.35.45,2.25,1.35,3.6,1.8,1.35,0,2.25-.45,2.7-1.35.45-.45,0-.9-.45-1.35-4.5-2.7-8.1-6.75-9.9-11.25Z"/>
          </g>
          <line class="st3" x1="706.04" y1="801.05" x2="706.04" y2="732.62"/>
          <path class="st3" d="M746.11,720.46c0,.45.45.45.9.45"/>
          <path class="st3" d="M747.01,720.91s.45,0,.9-.45"/>
          <path class="st3" d="M747.91,720.46s.45,0,.45-.45"/>
          <path class="st3" d="M742.5,718.66c-.9,0-2.25.45-2.7,1.35"/>
          <path class="st3" d="M746.11,720.46c-1.35-.45-2.25-1.35-3.6-1.8"/>
          <path class="st3" d="M739.8,720.01c0,.45,0,.9.45,1.35"/>
          <path class="st3" d="M750.16,732.62c-1.8-4.5-5.4-8.55-9.9-11.26"/>
          <path class="st3" d="M716.84,720.91s.45,0,.45-.45"/>
          <path class="st3" d="M715.49,720.46c.45.45.9.45,1.35.45"/>
          <path class="st3" d="M715.04,720.01c0,.45.45.45.45.45"/>
          <path class="st3" d="M723.59,720.01c-.45-.9-1.35-1.35-2.7-1.35"/>
          <path class="st3" d="M720.89,718.66c-1.35.45-2.25,1.35-3.6,1.8"/>
          <path class="st3" d="M723.14,721.36c.45-.45.9-.9.45-1.35"/>
          <path class="st3" d="M723.14,721.36c-4.5,2.7-8.1,6.75-9.9,11.26"/>
          <path class="st3" d="M748.36,720.01c-9.9-6.75-23.41-6.75-33.32,0"/>
          <path class="st3" d="M747.01,812.75c-.45,0-.9.45-.9.45"/>
          <path class="st3" d="M747.91,813.2c-.45,0-.9-.45-.9-.45"/>
          <path class="st3" d="M748.36,813.65c0-.45-.45-.45-.45-.45"/>
          <path class="st3" d="M739.8,813.65c.45.9,1.8,1.35,2.7,1.35"/>
          <path class="st3" d="M742.5,815c1.35-.45,2.25-1.35,3.6-1.8"/>
          <path class="st3" d="M740.25,812.3c-.45.45-.45.9-.45,1.35"/>
          <path class="st3" d="M740.25,812.3c4.5-2.7,8.1-6.75,9.9-11.26"/>
          <line class="st3" x1="717.29" y1="813.2" x2="716.84" y2="812.75"/>
          <path class="st3" d="M716.84,812.75c-.45,0-.9.45-1.35.45"/>
          <path class="st3" d="M715.49,813.2s-.45,0-.45.45"/>
          <path class="st3" d="M720.89,815c1.35,0,2.25-.45,2.7-1.35"/>
          <path class="st3" d="M717.29,813.2c1.35.45,2.25,1.35,3.6,1.8"/>
          <path class="st3" d="M723.59,813.65c.45-.45,0-.9-.45-1.35"/>
          <path class="st3" d="M713.24,801.05c1.8,4.5,5.4,8.55,9.9,11.26"/>
          <path class="st3" d="M715.04,813.65c9.9,7.2,23.41,7.2,33.32,0"/>
          <line class="st3" x1="757.36" y1="732.62" x2="706.04" y2="732.62"/>
          <line class="st3" x1="706.04" y1="801.05" x2="757.36" y2="801.05"/>
          <line class="st3" x1="706.04" y1="801.05" x2="706.04" y2="732.62"/>
          <path class="st3" d="M746.11,720.46c0,.45.45.45.9.45"/>
          <path class="st3" d="M747.01,720.91s.45,0,.9-.45"/>
          <path class="st3" d="M747.91,720.46s.45,0,.45-.45"/>
          <path class="st3" d="M742.5,718.66c-.9,0-2.25.45-2.7,1.35"/>
          <path class="st3" d="M746.11,720.46c-1.35-.45-2.25-1.35-3.6-1.8"/>
          <path class="st3" d="M739.8,720.01c0,.45,0,.9.45,1.35"/>
          <path class="st3" d="M750.16,732.62c-1.8-4.5-5.4-8.55-9.9-11.26"/>
          <path class="st3" d="M716.84,720.91s.45,0,.45-.45"/>
          <path class="st3" d="M715.49,720.46c.45.45.9.45,1.35.45"/>
          <path class="st3" d="M715.04,720.01c0,.45.45.45.45.45"/>
          <path class="st3" d="M723.59,720.01c-.45-.9-1.35-1.35-2.7-1.35"/>
          <path class="st3" d="M720.89,718.66c-1.35.45-2.25,1.35-3.6,1.8"/>
          <path class="st3" d="M723.14,721.36c.45-.45.9-.9.45-1.35"/>
          <path class="st3" d="M723.14,721.36c-4.5,2.7-8.1,6.75-9.9,11.26"/>
          <path class="st3" d="M748.36,720.01c-9.9-6.75-23.41-6.75-33.32,0"/>
          <path class="st3" d="M747.01,812.75c-.45,0-.9.45-.9.45"/>
          <path class="st3" d="M747.91,813.2c-.45,0-.9-.45-.9-.45"/>
          <path class="st3" d="M748.36,813.65c0-.45-.45-.45-.45-.45"/>
          <path class="st3" d="M739.8,813.65c.45.9,1.8,1.35,2.7,1.35"/>
          <path class="st3" d="M742.5,815c1.35-.45,2.25-1.35,3.6-1.8"/>
          <path class="st3" d="M740.25,812.3c-.45.45-.45.9-.45,1.35"/>
          <path class="st3" d="M740.25,812.3c4.5-2.7,8.1-6.75,9.9-11.26"/>
          <line class="st3" x1="717.29" y1="813.2" x2="716.84" y2="812.75"/>
          <path class="st3" d="M716.84,812.75c-.45,0-.9.45-1.35.45"/>
          <path class="st3" d="M715.49,813.2s-.45,0-.45.45"/>
          <path class="st3" d="M720.89,815c1.35,0,2.25-.45,2.7-1.35"/>
          <path class="st3" d="M717.29,813.2c1.35.45,2.25,1.35,3.6,1.8"/>
          <path class="st3" d="M723.59,813.65c.45-.45,0-.9-.45-1.35"/>
          <path class="st3" d="M713.24,801.05c1.8,4.5,5.4,8.55,9.9,11.26"/>
          <path class="st3" d="M715.04,813.65c9.9,7.2,23.41,7.2,33.32,0"/>
          <line class="st3" x1="757.36" y1="732.62" x2="706.04" y2="732.62"/>
          <line class="st3" x1="706.04" y1="801.05" x2="757.36" y2="801.05"/>
        </g>
        <line class="st1" x1="757.36" y1="732.53" x2="757.36" y2="800.96"/>
      </g>
      <g>
        <g>
          <g>
            <polygon class="st5" points="705.81 732.53 705.81 800.96 698.61 800.96 661.69 800.96 654.49 800.96 654.49 732.53 661.69 732.53 698.61 732.53 705.81 732.53"/>
            <path class="st5" d="M698.61,732.53h-36.92c1.8-4.51,5.4-8.56,9.9-11.26.45-.45.9-.9.45-1.35-.45-.9-1.35-1.35-2.7-1.35-1.35.45-2.25,1.35-3.6,1.8,0,.45-.45.45-.45.45-.45,0-.9,0-1.35-.45,0,0-.45,0-.45-.45,9.91-6.75,23.41-6.75,33.32,0,0,.45-.45.45-.45.45-.45.45-.9.45-.9.45-.45,0-.91,0-.91-.45-1.35-.45-2.25-1.35-3.6-1.8-.9,0-2.25.45-2.7,1.35,0,.45,0,.9.45,1.35,4.5,2.7,8.11,6.75,9.91,11.26Z"/>
            <path class="st5" d="M661.69,800.96h36.92c-1.8,4.5-5.41,8.55-9.91,11.25-.45.45-.45.9-.45,1.35.45.9,1.8,1.35,2.7,1.35,1.35-.45,2.25-1.35,3.6-1.8,0,0,.46-.45.91-.45,0,0,.45.45.9.45,0,0,.45,0,.45.45-9.91,7.21-23.41,7.21-33.32,0,0-.45.45-.45.45-.45.45,0,.9-.45,1.35-.45l.45.45c1.35.45,2.25,1.35,3.6,1.8,1.35,0,2.25-.45,2.7-1.35.45-.45,0-.9-.45-1.35-4.5-2.7-8.1-6.75-9.9-11.25Z"/>
          </g>
          <line class="st3" x1="654.49" y1="801.05" x2="654.49" y2="732.62"/>
          <path class="st3" d="M694.56,720.46c0,.45.45.45.9.45"/>
          <path class="st3" d="M695.46,720.91s.45,0,.9-.45"/>
          <path class="st3" d="M696.36,720.46s.45,0,.45-.45"/>
          <path class="st3" d="M690.95,718.66c-.9,0-2.25.45-2.7,1.35"/>
          <path class="st3" d="M694.56,720.46c-1.35-.45-2.25-1.35-3.6-1.8"/>
          <path class="st3" d="M688.25,720.01c0,.45,0,.9.45,1.35"/>
          <path class="st3" d="M698.61,732.62c-1.8-4.5-5.4-8.55-9.9-11.26"/>
          <path class="st3" d="M665.29,720.91s.45,0,.45-.45"/>
          <path class="st3" d="M663.94,720.46c.45.45.9.45,1.35.45"/>
          <path class="st3" d="M663.49,720.01c0,.45.45.45.45.45"/>
          <path class="st3" d="M672.04,720.01c-.45-.9-1.35-1.35-2.7-1.35"/>
          <path class="st3" d="M669.34,718.66c-1.35.45-2.25,1.35-3.6,1.8"/>
          <path class="st3" d="M671.59,721.36c.45-.45.9-.9.45-1.35"/>
          <path class="st3" d="M671.59,721.36c-4.5,2.7-8.1,6.75-9.9,11.26"/>
          <path class="st3" d="M696.81,720.01c-9.9-6.75-23.41-6.75-33.32,0"/>
          <path class="st3" d="M695.46,812.75c-.45,0-.9.45-.9.45"/>
          <path class="st3" d="M696.36,813.2c-.45,0-.9-.45-.9-.45"/>
          <path class="st3" d="M696.81,813.65c0-.45-.45-.45-.45-.45"/>
          <path class="st3" d="M688.25,813.65c.45.9,1.8,1.35,2.7,1.35"/>
          <path class="st3" d="M690.95,815c1.35-.45,2.25-1.35,3.6-1.8"/>
          <path class="st3" d="M688.7,812.3c-.45.45-.45.9-.45,1.35"/>
          <path class="st3" d="M688.7,812.3c4.5-2.7,8.1-6.75,9.9-11.26"/>
          <line class="st3" x1="665.74" y1="813.2" x2="665.29" y2="812.75"/>
          <path class="st3" d="M665.29,812.75c-.45,0-.9.45-1.35.45"/>
          <path class="st3" d="M663.94,813.2s-.45,0-.45.45"/>
          <path class="st3" d="M669.34,815c1.35,0,2.25-.45,2.7-1.35"/>
          <path class="st3" d="M665.74,813.2c1.35.45,2.25,1.35,3.6,1.8"/>
          <path class="st3" d="M672.04,813.65c.45-.45,0-.9-.45-1.35"/>
          <path class="st3" d="M661.69,801.05c1.8,4.5,5.4,8.55,9.9,11.26"/>
          <path class="st3" d="M663.49,813.65c9.9,7.2,23.41,7.2,33.32,0"/>
          <line class="st3" x1="705.81" y1="732.62" x2="654.49" y2="732.62"/>
          <line class="st3" x1="654.49" y1="801.05" x2="705.81" y2="801.05"/>
          <line class="st3" x1="654.49" y1="801.05" x2="654.49" y2="732.62"/>
          <path class="st3" d="M694.56,720.46c0,.45.45.45.9.45"/>
          <path class="st3" d="M695.46,720.91s.45,0,.9-.45"/>
          <path class="st3" d="M696.36,720.46s.45,0,.45-.45"/>
          <path class="st3" d="M690.95,718.66c-.9,0-2.25.45-2.7,1.35"/>
          <path class="st3" d="M694.56,720.46c-1.35-.45-2.25-1.35-3.6-1.8"/>
          <path class="st3" d="M688.25,720.01c0,.45,0,.9.45,1.35"/>
          <path class="st3" d="M698.61,732.62c-1.8-4.5-5.4-8.55-9.9-11.26"/>
          <path class="st3" d="M665.29,720.91s.45,0,.45-.45"/>
          <path class="st3" d="M663.94,720.46c.45.45.9.45,1.35.45"/>
          <path class="st3" d="M663.49,720.01c0,.45.45.45.45.45"/>
          <path class="st3" d="M672.04,720.01c-.45-.9-1.35-1.35-2.7-1.35"/>
          <path class="st3" d="M669.34,718.66c-1.35.45-2.25,1.35-3.6,1.8"/>
          <path class="st3" d="M671.59,721.36c.45-.45.9-.9.45-1.35"/>
          <path class="st3" d="M671.59,721.36c-4.5,2.7-8.1,6.75-9.9,11.26"/>
          <path class="st3" d="M696.81,720.01c-9.9-6.75-23.41-6.75-33.32,0"/>
          <path class="st3" d="M695.46,812.75c-.45,0-.9.45-.9.45"/>
          <path class="st3" d="M696.36,813.2c-.45,0-.9-.45-.9-.45"/>
          <path class="st3" d="M696.81,813.65c0-.45-.45-.45-.45-.45"/>
          <path class="st3" d="M688.25,813.65c.45.9,1.8,1.35,2.7,1.35"/>
          <path class="st3" d="M690.95,815c1.35-.45,2.25-1.35,3.6-1.8"/>
          <path class="st3" d="M688.7,812.3c-.45.45-.45.9-.45,1.35"/>
          <path class="st3" d="M688.7,812.3c4.5-2.7,8.1-6.75,9.9-11.26"/>
          <line class="st3" x1="665.74" y1="813.2" x2="665.29" y2="812.75"/>
          <path class="st3" d="M665.29,812.75c-.45,0-.9.45-1.35.45"/>
          <path class="st3" d="M663.94,813.2s-.45,0-.45.45"/>
          <path class="st3" d="M669.34,815c1.35,0,2.25-.45,2.7-1.35"/>
          <path class="st3" d="M665.74,813.2c1.35.45,2.25,1.35,3.6,1.8"/>
          <path class="st3" d="M672.04,813.65c.45-.45,0-.9-.45-1.35"/>
          <path class="st3" d="M661.69,801.05c1.8,4.5,5.4,8.55,9.9,11.26"/>
          <path class="st3" d="M663.49,813.65c9.9,7.2,23.41,7.2,33.32,0"/>
          <line class="st3" x1="705.81" y1="732.62" x2="654.49" y2="732.62"/>
          <line class="st3" x1="654.49" y1="801.05" x2="705.81" y2="801.05"/>
        </g>
        <line class="st1" x1="705.81" y1="732.53" x2="705.81" y2="800.96"/>
      </g>
      <rect class="st0" x="654.49" y="732.53" width="102.87" height="68.43"/>
    </g>
  </g>
  <g id="pareti">
    <g>
      <polygon class="st6" points="770.15 598.91 770.15 1177.43 752.15 1177.43 752.15 1160.32 761.6 1160.32 761.6 639.43 691.82 639.43 691.82 598.91 716.58 598.91 721.98 598.91 770.15 598.91"/>
      <polygon class="st6" points="721.98 505.72 721.98 598.91 716.58 598.91 716.58 510.67 482.02 510.67 482.02 598.91 477.07 598.91 477.07 505.72 721.98 505.72"/>
      <polygon class="st6" points="667.96 1160.32 667.96 1177.43 464.01 1177.43 464.01 598.91 477.07 598.91 482.02 598.91 507.23 598.91 507.23 639.43 472.57 639.43 472.57 977.99 602.23 977.99 602.23 982.94 472.57 982.94 472.57 1017.16 602.23 1017.16 602.23 1032.01 595.92 1032.01 595.92 1022.11 472.57 1022.11 472.57 1160.32 595.92 1160.32 595.92 1108.55 595.92 1107.2 602.23 1107.2 602.23 1108.55 602.23 1160.32 667.96 1160.32"/>
    </g>
    <rect class="st7" x="-75.47" y="670.82" width="56.69" height="56.69"/>
    <rect class="st6" x="-75.47" y="609.62" width="56.69" height="56.69"/>
  </g>
</svg>