<?xml version="1.0" encoding="UTF-8"?>
<svg xmlns="http://www.w3.org/2000/svg" version="1.1" viewBox="0 0 1200 1697.14">
  <!-- Generator: Adobe Illustrator 29.6.0, SVG Export Plug-In . SVG Version: 2.1.1 Build 207)  -->
  <defs>
    <style>
      .st0, .st1 {
        stroke: #0d101f;
      }

      .st0, .st1, .st2, .st3, .st4, .st5 {
        stroke-linecap: round;
        stroke-linejoin: round;
        stroke-width: .15px;
      }

      .st0, .st3, .st6, .st7 {
        fill: #fff;
      }

      .st1, .st2, .st8, .st4, .st5 {
        fill: none;
      }

      .st2, .st3, .st8 {
        stroke: #fff;
      }

      .st9 {
        fill: #383037;
      }

      .st8, .st7 {
        stroke-miterlimit: 10;
        stroke-width: .25px;
      }

      .st4, .st7 {
        stroke: #1d1d1b;
      }

      .st5 {
        stroke: #12100e;
      }

      .st10 {
        fill: #f2efed;
      }
    </style>
  </defs>
  <g id="sfondo">
    <polygon class="st10" points="774.8 1144.65 774.87 1162.66 763.62 1173.47 596.14 1173.47 596.14 1076.22 426.41 1076.22 426.41 644.47 425.51 644.47 425.51 543.63 516.45 543.63 701.04 543.63 742.01 543.63 765.87 543.63 766.32 1042.01 774.42 1050.56 774.46 1060.92 774.8 1144.65"/>
  </g>
  <g id="letto">
    <g>
      <g>
        <polygon class="st6" points="445.5 714.9 445.5 714.46 523.01 714.46 523.01 862.74 522.03 862.25 522.03 714.9 445.5 714.9"/>
        <path class="st6" d="M445.5,824.38v-109.48h76.53v147.35l-17.01-8.41c-7.31-3.62-13.36-6.61-18.37-9.09l-2.63-1.3c-5.59-2.77-9.73-4.82-12.79-6.34l-1.16-.57-7.56-3.74-17.01-8.42Z"/>
        <path class="st6" d="M445.5,884.98v-60.6l17.01,8.42v30.18c0,1.94,1.56,3.51,3.5,3.51h35.51c1.94,0,3.5-1.57,3.5-3.51v-9.14l17.01,8.41v22.73h-76.53Z"/>
        <path class="st6" d="M462.51,862.98v-30.18l7.56,3.74c.37.19.75.38,1.16.57,3.06,1.52,7.2,3.57,12.79,6.34.85.41,1.72.85,2.63,1.3,5.01,2.48,11.06,5.47,18.37,9.09v9.14c0,1.94-1.56,3.51-3.5,3.51h-35.51c-1.94,0-3.5-1.57-3.5-3.51Z"/>
      </g>
      <g>
        <polyline class="st1" points="522.03 862.25 522.03 884.98 445.5 884.98 445.5 824.38"/>
        <polyline class="st1" points="505.02 853.84 522.03 862.25 523.01 862.74 523.01 714.46 445.5 714.46 445.5 714.9 445.5 824.38 462.51 832.8"/>
        <line class="st1" x1="484.02" y1="843.45" x2="486.65" y2="844.75"/>
        <line class="st1" x1="470.07" y1="836.54" x2="471.23" y2="837.11"/>
        <line class="st1" x1="501.52" y1="866.49" x2="466.01" y2="866.49"/>
        <path class="st1" d="M466.01,866.49c-1.94,0-3.5-1.57-3.5-3.51"/>
        <path class="st1" d="M505.02,862.98c0,1.94-1.56,3.51-3.5,3.51"/>
        <path class="st1" d="M505.02,862.98v-9.14c-7.31-3.62-13.36-6.61-18.37-9.09-.91-.45-1.78-.89-2.63-1.3-5.59-2.77-9.73-4.82-12.79-6.34-.41-.19-.79-.38-1.16-.57l-7.56-3.74v30.18"/>
      </g>
    </g>
    <rect class="st0" x="524.83" y="572.29" width="32.87" height="32.87"/>
    <g>
      <rect class="st6" x="572" y="1086.08" width="111.08" height="55.15" transform="translate(1741.2 486.12) rotate(90)"/>
      <line class="st5" x1="599.96" y1="1113.66" x2="601.14" y2="1113.66"/>
      <line class="st5" x1="603.88" y1="1113.66" x2="606.61" y2="1113.66"/>
      <line class="st5" x1="609.35" y1="1113.66" x2="612.09" y2="1113.66"/>
      <line class="st5" x1="614.83" y1="1113.66" x2="617.96" y2="1113.66"/>
      <line class="st5" x1="620.69" y1="1113.66" x2="623.43" y2="1113.66"/>
      <line class="st5" x1="626.17" y1="1113.66" x2="628.91" y2="1113.66"/>
      <line class="st5" x1="631.65" y1="1113.66" x2="634.38" y2="1113.66"/>
      <line class="st5" x1="637.12" y1="1113.66" x2="639.86" y2="1113.66"/>
      <line class="st5" x1="642.6" y1="1113.66" x2="645.34" y2="1113.66"/>
      <line class="st5" x1="648.47" y1="1113.66" x2="651.2" y2="1113.66"/>
      <line class="st5" x1="653.94" y1="1113.66" x2="655.11" y2="1113.66"/>
      <line class="st5" x1="655.11" y1="1113.66" x2="655.11" y2="1112.09"/>
      <line class="st5" x1="655.11" y1="1109.35" x2="655.11" y2="1106.62"/>
      <line class="st5" x1="655.11" y1="1103.88" x2="655.11" y2="1101.14"/>
      <line class="st5" x1="655.11" y1="1098.4" x2="655.11" y2="1095.66"/>
      <line class="st5" x1="655.11" y1="1092.93" x2="655.11" y2="1090.19"/>
      <line class="st5" x1="655.11" y1="1087.45" x2="655.11" y2="1084.32"/>
      <line class="st5" x1="655.11" y1="1081.58" x2="655.11" y2="1078.84"/>
      <line class="st5" x1="655.11" y1="1076.11" x2="655.11" y2="1073.37"/>
      <line class="st5" x1="655.11" y1="1070.63" x2="655.11" y2="1067.89"/>
      <line class="st5" x1="655.11" y1="1065.15" x2="655.11" y2="1062.42"/>
      <line class="st5" x1="655.11" y1="1059.68" x2="655.11" y2="1058.11"/>
      <line class="st5" x1="655.11" y1="1058.11" x2="653.94" y2="1058.11"/>
      <line class="st5" x1="651.2" y1="1058.11" x2="648.47" y2="1058.11"/>
      <line class="st5" x1="645.34" y1="1058.11" x2="642.6" y2="1058.11"/>
      <line class="st5" x1="639.86" y1="1058.11" x2="637.12" y2="1058.11"/>
      <line class="st5" x1="634.38" y1="1058.11" x2="631.65" y2="1058.11"/>
      <line class="st5" x1="628.91" y1="1058.11" x2="626.17" y2="1058.11"/>
      <line class="st5" x1="623.43" y1="1058.11" x2="620.69" y2="1058.11"/>
      <line class="st5" x1="617.96" y1="1058.11" x2="614.83" y2="1058.11"/>
      <line class="st5" x1="612.09" y1="1058.11" x2="609.35" y2="1058.11"/>
      <line class="st5" x1="606.61" y1="1058.11" x2="603.88" y2="1058.11"/>
      <line class="st5" x1="601.14" y1="1058.11" x2="599.96" y2="1058.11"/>
      <line class="st5" x1="655.11" y1="1169.2" x2="655.11" y2="1167.63"/>
      <line class="st5" x1="655.11" y1="1164.9" x2="655.11" y2="1162.16"/>
      <line class="st5" x1="655.11" y1="1159.42" x2="655.11" y2="1156.68"/>
      <line class="st5" x1="655.11" y1="1153.94" x2="655.11" y2="1151.21"/>
      <line class="st5" x1="655.11" y1="1148.08" x2="655.11" y2="1145.34"/>
      <line class="st5" x1="655.11" y1="1142.6" x2="655.11" y2="1139.86"/>
      <line class="st5" x1="655.11" y1="1137.12" x2="655.11" y2="1134.39"/>
      <line class="st5" x1="655.11" y1="1131.65" x2="655.11" y2="1128.91"/>
      <line class="st5" x1="655.11" y1="1126.17" x2="655.11" y2="1123.43"/>
      <line class="st5" x1="655.11" y1="1120.7" x2="655.11" y2="1117.96"/>
      <line class="st5" x1="655.11" y1="1114.83" x2="655.11" y2="1113.66"/>
      <line class="st5" x1="655.11" y1="1113.66" x2="653.94" y2="1113.66"/>
      <line class="st5" x1="651.2" y1="1113.66" x2="648.47" y2="1113.66"/>
      <line class="st5" x1="645.34" y1="1113.66" x2="642.6" y2="1113.66"/>
      <line class="st5" x1="639.86" y1="1113.66" x2="637.12" y2="1113.66"/>
      <line class="st5" x1="634.38" y1="1113.66" x2="631.65" y2="1113.66"/>
      <line class="st5" x1="628.91" y1="1113.66" x2="626.17" y2="1113.66"/>
      <line class="st5" x1="623.43" y1="1113.66" x2="620.69" y2="1113.66"/>
      <line class="st5" x1="617.96" y1="1113.66" x2="614.83" y2="1113.66"/>
      <line class="st5" x1="612.09" y1="1113.66" x2="609.35" y2="1113.66"/>
      <line class="st5" x1="606.61" y1="1113.66" x2="603.88" y2="1113.66"/>
      <line class="st5" x1="601.14" y1="1113.66" x2="599.96" y2="1113.66"/>
    </g>
  </g>
  <g id="bianchi">
    <rect class="st6" x="515.32" y="542.51" width="184.45" height="22.31"/>
    <g>
      <polygon class="st6" points="510.43 1067.93 510.43 1069.05 509.83 1069.05 510.43 1067.93"/>
      <polygon class="st6" points="510.43 1001.61 510.43 1067.93 509.83 1069.05 443.51 1069.05 442.39 1068.46 442.39 1002.14 442.99 1001.01 509.31 1001.01 510.43 1001.61"/>
      <polygon class="st6" points="510.43 1001.01 510.43 1001.61 509.31 1001.01 510.43 1001.01"/>
      <polygon class="st6" points="443.51 1069.05 442.39 1069.05 442.39 1068.46 443.51 1069.05"/>
      <polygon class="st6" points="442.99 1001.01 442.39 1002.14 442.39 1001.01 442.99 1001.01"/>
    </g>
    <g id="LINE">
      <path class="st6" d="M498.63,930.81v24.72c0,9.52-6.83,17.21-15.29,17.21s-15.28-7.69-15.28-17.21v-24.72h30.57Z"/>
    </g>
    <path class="st6" d="M533.41,1069.01v-27.68c0-.61.29-1.11.66-1.11h37.37c.45,0,.82.5.82,1.11v27.68h-38.85Z"/>
    <g id="SPLINE">
      <path class="st6" d="M466.47,629.64c.19-5.42.77-10.34,1.79-15.2,1.08-5.31,3.9-9.96,7.95-13.57,4.05-3.6,8.83-5.75,14.3-6.02,5.03-.31,10.05-.63,15.36.45,1.79.21,3.47,1.32,4.65,2.81-.05.45.34.95.34.95l10.78,16.23c.79,1,1.52,2.45,1.87,3.39.24,1.84.08,3.18-.58,4.92-6.45,12.39-17.55,21.96-30.36,26.8-1.84.24-3.23.52-4.97-.13-1.3-.61-2.09-1.61-3.37-2.21l-14.38-12.58-.79-1c-1.18-1.5-2.38-3-2.61-4.84Z"/>
    </g>
    <g id="POLYLINE">
      <line class="st1" x1="728.67" y1="654.11" x2="728.54" y2="654.11"/>
    </g>
    <g id="POLYLINE1" data-name="POLYLINE">
      <line class="st1" x1="728.67" y1="654.11" x2="728.54" y2="654.11"/>
    </g>
    <g>
      <g>
        <polygon class="st6" points="542.33 933.73 542.33 932.38 547.29 932.38 574.75 932.38 579.7 932.38 579.7 933.73 542.33 933.73"/>
        <rect class="st6" x="547.29" y="930.58" width="27.46" height="1.8"/>
      </g>
      <g>
        <line class="st8" x1="579.7" y1="933.73" x2="542.33" y2="933.73"/>
        <line class="st8" x1="542.33" y1="933.73" x2="542.33" y2="932.38"/>
        <polyline class="st8" points="542.33 932.38 547.29 932.38 574.75 932.38 579.7 932.38"/>
        <line class="st8" x1="579.7" y1="932.38" x2="579.7" y2="933.73"/>
        <line class="st8" x1="574.75" y1="932.38" x2="574.75" y2="930.58"/>
        <line class="st8" x1="547.29" y1="930.58" x2="547.29" y2="932.38"/>
        <line class="st8" x1="574.75" y1="930.58" x2="547.29" y2="930.58"/>
      </g>
    </g>
    <rect class="st3" x="756.64" y="1060.91" width="17.81" height="84.64"/>
  </g>
  <g id="pareti">
    <g>
      <polygon class="st9" points="773.67 1144.65 773.74 1162.66 762.49 1173.46 595.01 1173.46 595.01 1076.22 425.28 1076.22 425.28 644.47 424.38 644.47 424.38 543.62 515.32 543.62 515.32 583.69 464.45 583.69 464.45 675.53 442.39 675.53 442.39 886.68 601.31 886.68 601.31 891.63 442.39 891.63 442.39 925.4 601.31 925.4 601.31 939.8 601.31 941.16 595.01 941.16 595.01 939.8 595.01 930.8 442.39 930.8 442.39 1069.01 594.11 1069.01 594.11 1017.24 601.31 1017.24 601.31 1167.16 756.63 1167.16 756.63 1145.55 756.63 1144.65 773.67 1144.65"/>
      <polygon class="st9" points="773.29 1050.56 773.33 1060.91 756.63 1060.91 756.63 583.69 699.91 583.69 699.91 543.62 740.88 543.62 764.74 543.62 765.19 1042 773.29 1050.56"/>
    </g>
  </g>
  <g id="Livello_1">
    <line class="st4" x1="756.64" y1="1138.35" x2="756.64" y2="1063.16"/>
    <line class="st4" x1="756.64" y1="1141.95" x2="677.85" y2="1141.95"/>
    <line class="st4" x1="677.85" y1="1141.95" x2="677.85" y2="1138.35"/>
    <line class="st4" x1="756.64" y1="1138.35" x2="756.64" y2="1141.95"/>
    <path class="st4" d="M756.64,1063.16c-21.16,0-40.97,8.55-55.83,22.96-14.86,14.86-22.96,35.12-22.96,55.83"/>
    <line class="st4" x1="756.64" y1="1138.35" x2="756.64" y2="1063.16"/>
    <line class="st4" x1="601.31" y1="943.41" x2="601.31" y2="1010.49"/>
    <line class="st4" x1="516.22" y1="564.78" x2="515.32" y2="564.78"/>
    <line class="st4" x1="608.07" y1="564.78" x2="607.17" y2="564.78"/>
    <line class="st4" x1="699.91" y1="564.78" x2="699.01" y2="564.78"/>
    <line class="st4" x1="607.17" y1="564.78" x2="602.66" y2="564.78"/>
    <line class="st4" x1="602.66" y1="564.78" x2="602.66" y2="552.18"/>
    <line class="st4" x1="602.66" y1="552.18" x2="607.17" y2="552.18"/>
    <line class="st4" x1="607.17" y1="552.18" x2="607.17" y2="564.78"/>
    <line class="st4" x1="520.73" y1="564.78" x2="516.22" y2="564.78"/>
    <line class="st4" x1="516.22" y1="564.78" x2="516.22" y2="552.18"/>
    <line class="st4" x1="516.22" y1="552.18" x2="520.73" y2="552.18"/>
    <line class="st4" x1="520.73" y1="552.18" x2="520.73" y2="564.78"/>
    <line class="st4" x1="602.66" y1="552.18" x2="520.73" y2="552.18"/>
    <line class="st4" x1="520.73" y1="564.78" x2="602.66" y2="564.78"/>
    <line class="st4" x1="602.66" y1="557.13" x2="520.73" y2="557.13"/>
    <line class="st4" x1="520.73" y1="557.13" x2="520.73" y2="552.63"/>
    <line class="st4" x1="520.73" y1="552.63" x2="602.66" y2="552.63"/>
    <line class="st4" x1="602.66" y1="552.63" x2="602.66" y2="557.13"/>
    <line class="st4" x1="690.91" y1="552.18" x2="616.17" y2="552.18"/>
    <line class="st4" x1="616.17" y1="552.18" x2="690.91" y2="552.18"/>
    <line class="st4" x1="696.31" y1="552.18" x2="610.77" y2="552.18"/>
    <line class="st4" x1="696.76" y1="552.18" x2="610.32" y2="552.18"/>
    <line class="st4" x1="608.07" y1="552.18" x2="699.01" y2="552.18"/>
    <line class="st4" x1="612.12" y1="564.78" x2="608.07" y2="564.78"/>
    <line class="st4" x1="608.07" y1="564.78" x2="608.07" y2="552.18"/>
    <line class="st4" x1="608.07" y1="552.18" x2="616.17" y2="552.18"/>
    <line class="st4" x1="616.17" y1="552.18" x2="616.17" y2="558.93"/>
    <line class="st4" x1="616.17" y1="558.93" x2="612.12" y2="558.93"/>
    <line class="st4" x1="612.12" y1="558.93" x2="612.12" y2="564.78"/>
    <line class="st4" x1="699.01" y1="564.78" x2="694.51" y2="564.78"/>
    <line class="st4" x1="694.51" y1="564.78" x2="694.51" y2="558.93"/>
    <line class="st4" x1="694.51" y1="558.93" x2="690.91" y2="558.93"/>
    <line class="st4" x1="690.91" y1="558.93" x2="690.91" y2="552.18"/>
    <line class="st4" x1="690.91" y1="552.18" x2="699.01" y2="552.18"/>
    <line class="st4" x1="699.01" y1="552.18" x2="699.01" y2="564.78"/>
    <line class="st4" x1="690.91" y1="558.93" x2="616.17" y2="558.93"/>
    <line class="st4" x1="690.91" y1="552.18" x2="616.17" y2="552.18"/>
    <line class="st4" x1="612.12" y1="564.78" x2="694.51" y2="564.78"/>
    <line class="st4" x1="690.91" y1="557.13" x2="616.17" y2="557.13"/>
    <line class="st4" x1="616.17" y1="557.13" x2="616.17" y2="552.63"/>
    <line class="st4" x1="616.17" y1="552.63" x2="690.91" y2="552.63"/>
    <line class="st4" x1="690.91" y1="552.63" x2="690.91" y2="557.13"/>
    <line class="st4" x1="601.33" y1="1013.64" x2="671.56" y2="1013.64"/>
    <line class="st4" x1="476.41" y1="1069.02" x2="476.41" y2="1050.12"/>
    <circle class="st4" cx="476.5" cy="1050.21" r="4.23" transform="translate(-162.07 89.89) rotate(-9.22)"/>
    <circle class="st4" cx="476.5" cy="1050.21" r="4.23" transform="translate(-162.07 89.89) rotate(-9.22)"/>
    <line class="st4" x1="509.31" y1="1000.97" x2="442.99" y2="1000.97"/>
    <line class="st4" x1="442.39" y1="1002.1" x2="442.39" y2="1068.42"/>
    <line class="st4" x1="443.51" y1="1069.02" x2="509.83" y2="1069.02"/>
    <line class="st4" x1="510.43" y1="1067.89" x2="510.43" y2="1001.57"/>
    <polyline class="st4" points="509.31 1000.97 510.43 1000.97 510.43 1001.57"/>
    <polyline class="st4" points="510.43 1067.89 510.43 1069.02 509.83 1069.02"/>
    <polyline class="st4" points="443.51 1069.02 442.39 1069.02 442.39 1068.42"/>
    <polyline class="st4" points="442.39 1002.1 442.39 1000.97 442.99 1000.97"/>
    <line class="st4" x1="547.29" y1="930.8" x2="547.29" y2="932.15"/>
    <line class="st4" x1="574.75" y1="932.15" x2="574.75" y2="930.8"/>
    <line class="st4" x1="579.7" y1="932.15" x2="579.7" y2="933.95"/>
    <line class="st4" x1="542.34" y1="932.15" x2="579.7" y2="932.15"/>
    <line class="st4" x1="542.34" y1="933.95" x2="542.34" y2="932.15"/>
    <line class="st4" x1="579.7" y1="933.95" x2="542.34" y2="933.95"/>
    <line class="st4" x1="547.29" y1="930.8" x2="547.29" y2="932.15"/>
    <line class="st4" x1="574.75" y1="932.15" x2="574.75" y2="930.8"/>
    <line class="st4" x1="579.7" y1="932.15" x2="579.7" y2="933.95"/>
    <line class="st4" x1="542.34" y1="932.15" x2="579.7" y2="932.15"/>
    <line class="st4" x1="542.34" y1="933.95" x2="542.34" y2="932.15"/>
    <line class="st4" x1="579.7" y1="933.95" x2="542.34" y2="933.95"/>
    <path class="st4" d="M498.63,930.8v24.72c0,9.52-6.84,17.22-15.29,17.22s-15.29-7.7-15.29-17.22v-24.72h30.58Z"/>
    <circle class="st4" cx="552.92" cy="1064.72" r="2.2"/>
    <circle class="st4" cx="552.92" cy="1050.27" r="2.93" transform="translate(-596.29 1347.09) rotate(-76.72)"/>
    <path class="st4" d="M551.34,1050.27c0-.87.71-1.58,1.58-1.58s1.58.71,1.58,1.58-.71,1.58-1.58,1.58-1.58-.71-1.58-1.58Z"/>
    <path class="st4" d="M571.6,1058.67v-16.22c0-.62-.37-1.11-.82-1.11h-35.72c-.45,0-.82.5-.82,1.11v16.22c0,.61.37,1.11.82,1.11h35.72c.45,0,.82-.5.82-1.11Z"/>
    <path class="st4" d="M572.26,1069.02v-27.68c0-.62-.29-1.11-.66-1.11h-37.37c-.45,0-.82.49-.82,1.11v27.68"/>
    <line class="st4" x1="533.41" y1="1050.11" x2="533.41" y2="1060.46"/>
    <line class="st4" x1="561.77" y1="1040.2" x2="543.31" y2="1040.2"/>
    <line class="st4" x1="533.41" y1="1050.11" x2="533.41" y2="1060.46"/>
    <line class="st4" x1="561.77" y1="1040.2" x2="543.31" y2="1040.2"/>
    <line class="st4" x1="533.41" y1="1060.46" x2="533.41" y2="1050.11"/>
    <line class="st4" x1="543.31" y1="1040.2" x2="561.77" y2="1040.2"/>
    <line class="st4" x1="533.41" y1="1050.11" x2="533.41" y2="1060.46"/>
    <line class="st4" x1="561.77" y1="1040.2" x2="543.31" y2="1040.2"/>
    <line class="st4" x1="533.41" y1="1050.11" x2="533.41" y2="1060.46"/>
    <line class="st4" x1="561.77" y1="1040.2" x2="543.31" y2="1040.2"/>
    <line class="st4" x1="533.41" y1="1060.46" x2="533.41" y2="1050.11"/>
    <line class="st4" x1="543.31" y1="1040.2" x2="561.77" y2="1040.2"/>
    <line class="st4" x1="544.14" y1="886.68" x2="492.82" y2="886.68"/>
    <line class="st4" x1="544.14" y1="886.68" x2="492.82" y2="886.68"/>
    <g>
      <g id="POLYLINE2" data-name="POLYLINE">
        <rect class="st6" x="701.13" y="886.68" width="55.25" height="101.75"/>
      </g>
      <rect class="st4" x="701.04" y="886.68" width="55.25" height="101.75"/>
      <line class="st4" x1="717.53" y1="909.39" x2="717.53" y2="897.21"/>
      <line class="st4" x1="740.44" y1="909.39" x2="740.44" y2="897.21"/>
      <line class="st4" x1="734.43" y1="903.38" x2="746.61" y2="903.38"/>
      <line class="st4" x1="711.35" y1="903.38" x2="723.54" y2="903.38"/>
      <rect class="st4" x="705.99" y="889.57" width="45.99" height="26.81"/>
      <rect class="st4" x="713.25" y="945.19" width="31.01" height="31.01"/>
      <rect class="st4" x="705.54" y="937.31" width="46.44" height="46.6"/>
      <line class="st4" x1="749.43" y1="960.61" x2="736.96" y2="960.61"/>
    </g>
    <line class="st4" x1="599.06" y1="892.53" x2="601.31" y2="892.53"/>
    <line class="st4" x1="601.31" y1="892.53" x2="601.31" y2="924.5"/>
    <line class="st4" x1="601.31" y1="924.5" x2="599.06" y2="924.5"/>
    <line class="st4" x1="601.31" y1="1010.49" x2="601.31" y2="943.41"/>
    <line class="st4" x1="601.31" y1="1010.49" x2="601.31" y2="1013.64"/>
    <path class="st4" d="M671.55,1013.64c0-18.46-7.65-36.47-20.71-49.52-13.06-13.06-31.06-20.71-49.52-20.71"/>
    <line class="st4" x1="595.01" y1="925.4" x2="595.01" y2="891.63"/>
    <line class="st4" x1="601.31" y1="924.5" x2="601.31" y2="925.4"/>
    <line class="st4" x1="601.31" y1="891.63" x2="601.31" y2="892.53"/>
    <line class="st4" x1="595.01" y1="891.63" x2="442.39" y2="925.4"/>
    <line class="st4" x1="595.01" y1="925.4" x2="442.39" y2="891.63"/>
    <path class="st4" d="M468.05,615.21c-1.35,4.95-1.8,9.9-1.8,14.86"/>
    <path class="st4" d="M466.25,630.06c.45,1.8,1.35,3.6,2.7,4.95"/>
    <path class="st4" d="M468.95,635.01c.45.45.45.9.9.9"/>
    <line class="st4" x1="469.85" y1="635.92" x2="484.71" y2="648.52"/>
    <path class="st4" d="M484.71,648.52c.9.45,1.8,1.35,3.15,1.8"/>
    <path class="st4" d="M487.86,650.32c1.35.9,3.15.9,4.95,0"/>
    <path class="st4" d="M475.71,601.25c-4.05,3.6-6.75,8.55-7.65,13.96"/>
    <path class="st4" d="M480.21,606.2c-1.35.9-2.25,1.8-3.15,3.15"/>
    <path class="st4" d="M477.06,609.35c-4.5,5.4-5.85,13.51-2.25,20.26"/>
    <path class="st4" d="M474.81,629.61c2.25,3.6,4.5,6.75,7.2,9.45"/>
    <path class="st4" d="M504.97,595.4c-4.95-.9-9.9-.9-14.86,0"/>
    <path class="st4" d="M509.92,598.1c-1.35-1.35-3.15-2.25-4.95-2.7"/>
    <path class="st4" d="M510.37,599.45c0-.45-.45-.9-.45-1.35"/>
    <line class="st4" x1="510.37" y1="599.45" x2="521.18" y2="615.21"/>
    <path class="st4" d="M522.98,618.81c-.45-1.35-.9-2.7-1.8-3.6"/>
    <path class="st4" d="M522.53,623.31c.9-1.35.9-3.15.45-4.5"/>
    <path class="st4" d="M490.11,595.4c-5.4,0-10.81,2.25-14.41,5.85"/>
    <path class="st4" d="M483.36,603.95c-1.35.45-2.25,1.35-3.15,2.25"/>
    <path class="st4" d="M503.62,603.5c-6.3-4.05-14.41-4.05-20.26.45"/>
    <path class="st4" d="M512.62,611.6c-2.7-2.7-5.85-5.4-9-8.1"/>
    <path class="st4" d="M492.81,650.32c12.61-4.95,23.41-14.41,29.71-27.01"/>
    <line class="st4" x1="756.64" y1="1138.35" x2="756.64" y2="1063.16"/>
    <line class="st4" x1="756.64" y1="1141.95" x2="677.85" y2="1141.95"/>
    <line class="st4" x1="677.85" y1="1141.95" x2="677.85" y2="1138.35"/>
    <line class="st4" x1="756.64" y1="1138.35" x2="756.64" y2="1141.95"/>
    <path class="st4" d="M756.64,1063.16c-21.16,0-40.97,8.55-55.83,22.96-14.86,14.86-22.96,35.12-22.96,55.83"/>
    <line class="st4" x1="756.64" y1="1138.35" x2="756.64" y2="1063.16"/>
    <line class="st4" x1="601.31" y1="943.41" x2="601.31" y2="1010.49"/>
    <line class="st4" x1="516.22" y1="564.78" x2="515.32" y2="564.78"/>
    <line class="st4" x1="608.07" y1="564.78" x2="607.17" y2="564.78"/>
    <line class="st4" x1="699.91" y1="564.78" x2="699.01" y2="564.78"/>
    <line class="st4" x1="607.17" y1="564.78" x2="602.66" y2="564.78"/>
    <line class="st4" x1="602.66" y1="564.78" x2="602.66" y2="552.18"/>
    <line class="st4" x1="602.66" y1="552.18" x2="607.17" y2="552.18"/>
    <line class="st4" x1="607.17" y1="552.18" x2="607.17" y2="564.78"/>
    <line class="st4" x1="520.73" y1="564.78" x2="516.22" y2="564.78"/>
    <line class="st4" x1="516.22" y1="564.78" x2="516.22" y2="552.18"/>
    <line class="st4" x1="516.22" y1="552.18" x2="520.73" y2="552.18"/>
    <line class="st4" x1="520.73" y1="552.18" x2="520.73" y2="564.78"/>
    <line class="st4" x1="602.66" y1="552.18" x2="520.73" y2="552.18"/>
    <line class="st4" x1="520.73" y1="564.78" x2="602.66" y2="564.78"/>
    <line class="st4" x1="602.66" y1="557.13" x2="520.73" y2="557.13"/>
    <line class="st4" x1="520.73" y1="557.13" x2="520.73" y2="552.63"/>
    <line class="st4" x1="520.73" y1="552.63" x2="602.66" y2="552.63"/>
    <line class="st4" x1="602.66" y1="552.63" x2="602.66" y2="557.13"/>
    <line class="st4" x1="690.91" y1="552.18" x2="616.17" y2="552.18"/>
    <line class="st4" x1="616.17" y1="552.18" x2="690.91" y2="552.18"/>
    <line class="st4" x1="696.31" y1="552.18" x2="610.77" y2="552.18"/>
    <line class="st4" x1="696.76" y1="552.18" x2="610.32" y2="552.18"/>
    <line class="st4" x1="608.07" y1="552.18" x2="699.01" y2="552.18"/>
    <line class="st4" x1="612.12" y1="564.78" x2="608.07" y2="564.78"/>
    <line class="st4" x1="608.07" y1="564.78" x2="608.07" y2="552.18"/>
    <line class="st4" x1="608.07" y1="552.18" x2="616.17" y2="552.18"/>
    <line class="st4" x1="616.17" y1="552.18" x2="616.17" y2="558.93"/>
    <line class="st4" x1="616.17" y1="558.93" x2="612.12" y2="558.93"/>
    <line class="st4" x1="612.12" y1="558.93" x2="612.12" y2="564.78"/>
    <line class="st4" x1="699.01" y1="564.78" x2="694.51" y2="564.78"/>
    <line class="st4" x1="694.51" y1="564.78" x2="694.51" y2="558.93"/>
    <line class="st4" x1="694.51" y1="558.93" x2="690.91" y2="558.93"/>
    <line class="st4" x1="690.91" y1="558.93" x2="690.91" y2="552.18"/>
    <line class="st4" x1="690.91" y1="552.18" x2="699.01" y2="552.18"/>
    <line class="st4" x1="699.01" y1="552.18" x2="699.01" y2="564.78"/>
    <line class="st4" x1="690.91" y1="558.93" x2="616.17" y2="558.93"/>
    <line class="st4" x1="690.91" y1="552.18" x2="616.17" y2="552.18"/>
    <line class="st4" x1="612.12" y1="564.78" x2="694.51" y2="564.78"/>
    <line class="st4" x1="690.91" y1="557.13" x2="616.17" y2="557.13"/>
    <line class="st4" x1="616.17" y1="557.13" x2="616.17" y2="552.63"/>
    <line class="st4" x1="616.17" y1="552.63" x2="690.91" y2="552.63"/>
    <line class="st4" x1="690.91" y1="552.63" x2="690.91" y2="557.13"/>
    <line class="st4" x1="599.06" y1="924.5" x2="599.06" y2="892.53"/>
    <line class="st4" x1="599.06" y1="892.53" x2="601.31" y2="892.53"/>
    <line class="st4" x1="601.31" y1="892.53" x2="601.31" y2="924.5"/>
    <line class="st4" x1="601.31" y1="924.5" x2="599.06" y2="924.5"/>
    <line class="st4" x1="601.31" y1="1010.49" x2="601.31" y2="943.41"/>
    <line class="st4" x1="601.31" y1="1010.49" x2="601.31" y2="1013.64"/>
    <path class="st4" d="M671.55,1013.64c0-18.46-7.65-36.47-20.71-49.52-13.06-13.06-31.06-20.71-49.52-20.71"/>
    <line class="st4" x1="595.01" y1="925.4" x2="595.01" y2="891.63"/>
    <line class="st4" x1="601.31" y1="924.5" x2="601.31" y2="925.4"/>
    <line class="st4" x1="601.31" y1="891.63" x2="601.31" y2="892.53"/>
    <line class="st4" x1="595.01" y1="891.63" x2="442.39" y2="925.4"/>
    <line class="st4" x1="595.01" y1="925.4" x2="442.39" y2="891.63"/>
    <path class="st4" d="M468.05,615.21c-1.35,4.95-1.8,9.9-1.8,14.86"/>
    <path class="st4" d="M466.25,630.06c.45,1.8,1.35,3.6,2.7,4.95"/>
    <path class="st4" d="M468.95,635.01c.45.45.45.9.9.9"/>
    <line class="st4" x1="469.85" y1="635.92" x2="484.71" y2="648.52"/>
    <path class="st4" d="M484.71,648.52c.9.45,1.8,1.35,3.15,1.8"/>
    <path class="st4" d="M487.86,650.32c1.35.9,3.15.9,4.95,0"/>
    <path class="st4" d="M475.71,601.25c-4.05,3.6-6.75,8.55-7.65,13.96"/>
    <path class="st4" d="M480.21,606.2c-1.35.9-2.25,1.8-3.15,3.15"/>
    <path class="st4" d="M477.06,609.35c-4.5,5.4-5.85,13.51-2.25,20.26"/>
    <path class="st4" d="M474.81,629.61c2.25,3.6,4.5,6.75,7.2,9.45"/>
    <path class="st4" d="M504.97,595.4c-4.95-.9-9.9-.9-14.86,0"/>
    <path class="st4" d="M509.92,598.1c-1.35-1.35-3.15-2.25-4.95-2.7"/>
    <path class="st4" d="M510.37,599.45c0-.45-.45-.9-.45-1.35"/>
    <line class="st4" x1="510.37" y1="599.45" x2="521.18" y2="615.21"/>
    <path class="st4" d="M522.98,618.81c-.45-1.35-.9-2.7-1.8-3.6"/>
    <path class="st4" d="M522.53,623.31c.9-1.35.9-3.15.45-4.5"/>
    <path class="st4" d="M490.11,595.4c-5.4,0-10.81,2.25-14.41,5.85"/>
    <path class="st4" d="M483.36,603.95c-1.35.45-2.25,1.35-3.15,2.25"/>
    <path class="st4" d="M503.62,603.5c-6.3-4.05-14.41-4.05-20.26.45"/>
    <path class="st4" d="M512.62,611.6c-2.7-2.7-5.85-5.4-9-8.1"/>
    <path class="st4" d="M492.81,650.32c12.61-4.95,23.41-14.41,29.71-27.01"/>
    <line class="st4" x1="442.39" y1="891.63" x2="442.39" y2="925.4"/>
    <line class="st4" x1="442.39" y1="891.63" x2="601.31" y2="891.63"/>
    <line class="st4" x1="601.31" y1="925.4" x2="442.39" y2="925.4"/>
    <line class="st4" x1="442.39" y1="891.63" x2="442.39" y2="925.4"/>
    <g>
      <g>
        <g>
          <path class="st6" d="M712.12,646.99c.9-.45,1.35-1.8,1.35-2.7-.45-1.35-1.35-2.25-1.8-3.6v-1.8s0-.45.45-.45c7.21,9.9,7.21,23.41,0,33.32-.45,0-.45-.45-.45-.45v-1.81c.45-1.35,1.35-2.25,1.8-3.6,0-.9-.45-2.25-1.35-2.7-.45,0-.9,0-1.35.45-2.25,4.5-6.75,8.11-11.25,9.91v-36.92c4.5,1.8,9,5.4,11.25,9.9.45.45.9.45,1.35.45Z"/>
          <polygon class="st6" points="699.52 673.56 699.52 678.51 631.54 678.51 631.54 673.56 631.54 636.64 631.54 629.44 699.52 629.44 699.52 636.64 699.52 673.56"/>
          <path class="st6" d="M631.54,636.64v36.92c-4.96-1.8-9.01-5.41-11.71-9.91,0-.45-.9-.45-1.35-.45-.9.45-1.35,1.8-1.35,2.7l-1.47.61c-3.74-9.09-2.8-19.83,2.82-28.07.45,0,.45.45.45.45.45.45.45.9.45.9v.9c-.9,1.35-1.35,2.25-2.25,3.6,0,.9.45,2.25,1.35,2.7.45,0,1.35,0,1.35-.45,2.7-4.5,6.75-8.1,11.71-9.9Z"/>
          <path class="st6" d="M619.38,669.5v.45c0,.45,0,.91-.45,1.36,0,0,0,.45-.45.45-1.13-1.66-2.07-3.42-2.82-5.25l1.47-.61c.9,1.35,1.35,2.25,2.25,3.6Z"/>
        </g>
        <g>
          <polyline class="st2" points="699.52 678.51 699.52 673.56 699.52 636.64 699.52 629.44"/>
          <polyline class="st2" points="631.54 629.44 631.54 636.64 631.54 673.56 631.54 678.51"/>
          <line class="st2" x1="699.52" y1="629.44" x2="631.54" y2="629.44"/>
          <path class="st2" d="M712.12,671.76c7.21-9.91,7.21-23.42,0-33.32"/>
          <path class="st2" d="M699.52,673.56c4.5-1.8,9-5.41,11.25-9.91"/>
          <path class="st2" d="M712.12,663.2c-.45,0-.9,0-1.35.45"/>
          <path class="st2" d="M711.67,669.5c.45-1.35,1.35-2.25,1.8-3.6"/>
          <path class="st2" d="M713.47,665.9c0-.9-.45-2.25-1.35-2.7"/>
          <path class="st2" d="M711.67,671.31s0,.45.45.45"/>
          <line class="st2" x1="711.67" y1="669.95" x2="711.67" y2="671.31"/>
          <line class="st2" x1="711.67" y1="669.5" x2="711.67" y2="669.95"/>
          <path class="st2" d="M710.77,646.54c-2.25-4.5-6.75-8.1-11.25-9.9"/>
          <path class="st2" d="M710.77,646.54c.45.45.9.45,1.35.45"/>
          <path class="st2" d="M713.47,644.29c-.45-1.35-1.35-2.25-1.8-3.6"/>
          <path class="st2" d="M712.12,646.99c.9-.45,1.35-1.8,1.35-2.7"/>
          <path class="st2" d="M712.12,638.44c-.45,0-.45.45-.45.45"/>
          <path class="st2" d="M711.67,638.89v.9"/>
          <path class="st2" d="M711.67,639.79v.9"/>
          <path class="st2" d="M618.48,638.44c-5.62,8.24-6.56,18.98-2.82,28.07.75,1.83,1.69,3.59,2.82,5.25"/>
          <path class="st2" d="M619.83,663.65c2.7,4.5,6.75,8.11,11.71,9.91"/>
          <path class="st2" d="M619.83,663.65c0-.45-.9-.45-1.35-.45"/>
          <path class="st2" d="M617.13,665.9c.9,1.35,1.35,2.25,2.25,3.6"/>
          <path class="st2" d="M618.48,663.2c-.9.45-1.35,1.8-1.35,2.7"/>
          <path class="st2" d="M618.48,671.76c.45,0,.45-.45.45-.45"/>
          <path class="st2" d="M618.93,671.31c.45-.45.45-.91.45-1.36"/>
          <line class="st2" x1="619.38" y1="669.95" x2="619.38" y2="669.5"/>
          <path class="st2" d="M631.54,636.64c-4.96,1.8-9.01,5.4-11.71,9.9"/>
          <path class="st2" d="M618.48,646.99c.45,0,1.35,0,1.35-.45"/>
          <path class="st2" d="M619.38,640.69c-.9,1.35-1.35,2.25-2.25,3.6"/>
          <path class="st2" d="M617.13,644.29c0,.9.45,2.25,1.35,2.7"/>
          <path class="st2" d="M618.93,638.89s0-.45-.45-.45"/>
          <path class="st2" d="M619.38,639.79s0-.45-.45-.9"/>
          <path class="st2" d="M619.38,640.69v-.9"/>
          <line class="st2" x1="631.54" y1="678.51" x2="699.52" y2="678.51"/>
        </g>
      </g>
      <rect class="st3" x="631.39" y="674.43" width="68.07" height="5.88"/>
      <path class="st4" d="M699.46,673.1c4.95-1.8,9-5.4,11.26-9.9"/>
      <path class="st4" d="M619.32,669.95v-.9"/>
      <path class="st4" d="M631.48,636.19c-4.95,1.8-9,5.4-11.71,9.9"/>
      <path class="st4" d="M618.42,646.54c.45.45,1.35,0,1.35-.45"/>
      <path class="st4" d="M619.32,640.24c-.9,1.35-1.35,2.7-2.25,3.6"/>
      <path class="st4" d="M617.07,643.84c0,1.35.45,2.25,1.35,2.7"/>
      <path class="st4" d="M618.87,638.44s0-.45-.45-.45"/>
      <path class="st4" d="M619.32,639.79c0-.45,0-.9-.45-1.35"/>
      <line class="st4" x1="619.32" y1="640.24" x2="619.32" y2="639.79"/>
      <line class="st4" x1="699.46" y1="680.31" x2="631.48" y2="680.31"/>
      <line class="st4" x1="699.46" y1="680.31" x2="699.46" y2="629.43"/>
      <line class="st4" x1="631.48" y1="629.43" x2="631.48" y2="680.31"/>
      <line class="st4" x1="699.46" y1="629.43" x2="631.48" y2="629.43"/>
      <path class="st4" d="M712.07,671.3c7.2-9.9,7.2-23.41,0-33.32"/>
      <path class="st4" d="M699.46,673.1c4.95-1.8,9-5.4,11.26-9.9"/>
      <path class="st4" d="M712.07,662.75c-.45,0-.9,0-1.35.45"/>
      <path class="st4" d="M711.62,669.05c.45-1.35,1.35-2.25,1.8-3.6"/>
      <path class="st4" d="M713.42,665.45c0-.9-.45-2.25-1.35-2.7"/>
      <path class="st4" d="M711.62,670.85s0,.45.45.45"/>
      <path class="st4" d="M711.62,669.95v.9"/>
      <path class="st4" d="M711.62,669.05v.9"/>
      <path class="st4" d="M710.72,646.09c-2.25-4.5-6.3-8.1-11.26-9.9"/>
      <path class="st4" d="M710.72,646.09c.45.45.9.9,1.35.45"/>
      <path class="st4" d="M713.42,643.84c-.45-.9-1.35-2.25-1.8-3.6"/>
      <path class="st4" d="M712.07,646.54c.9-.45,1.35-1.35,1.35-2.7"/>
      <path class="st4" d="M712.07,637.99c-.45,0-.45.45-.45.45"/>
      <line class="st4" x1="711.62" y1="638.44" x2="711.62" y2="639.79"/>
      <line class="st4" x1="711.62" y1="639.79" x2="711.62" y2="640.24"/>
      <path class="st4" d="M618.42,637.99c-6.75,9.9-6.75,23.41,0,33.32"/>
      <path class="st4" d="M619.77,663.2c2.7,4.5,6.75,8.1,11.71,9.9"/>
      <path class="st4" d="M619.77,663.2c0-.45-.9-.45-1.35-.45"/>
      <path class="st4" d="M617.07,665.45c.9,1.35,1.35,2.25,2.25,3.6"/>
      <path class="st4" d="M618.42,662.75c-.9.45-1.35,1.8-1.35,2.7"/>
      <path class="st4" d="M618.42,671.3c.45,0,.45-.45.45-.45"/>
      <path class="st4" d="M618.87,670.85c.45-.45.45-.9.45-.9"/>
      <path class="st4" d="M619.32,669.95v-.9"/>
      <path class="st4" d="M631.48,636.19c-4.95,1.8-9,5.4-11.71,9.9"/>
      <path class="st4" d="M618.42,646.54c.45.45,1.35,0,1.35-.45"/>
      <path class="st4" d="M619.32,640.24c-.9,1.35-1.35,2.7-2.25,3.6"/>
      <path class="st4" d="M617.07,643.84c0,1.35.45,2.25,1.35,2.7"/>
      <path class="st4" d="M618.87,638.44s0-.45-.45-.45"/>
      <path class="st4" d="M619.32,639.79c0-.45,0-.9-.45-1.35"/>
      <line class="st4" x1="619.32" y1="640.24" x2="619.32" y2="639.79"/>
      <line class="st4" x1="699.46" y1="680.31" x2="631.48" y2="680.31"/>
      <line class="st4" x1="699.46" y1="680.31" x2="699.46" y2="629.43"/>
      <line class="st4" x1="631.48" y1="629.43" x2="631.48" y2="680.31"/>
      <line class="st4" x1="699.46" y1="629.43" x2="631.48" y2="629.43"/>
      <path class="st4" d="M712.07,671.3c7.2-9.9,7.2-23.41,0-33.32"/>
      <path class="st4" d="M712.07,662.75c-.45,0-.9,0-1.35.45"/>
      <path class="st4" d="M711.62,669.05c.45-1.35,1.35-2.25,1.8-3.6"/>
      <path class="st4" d="M713.42,665.45c0-.9-.45-2.25-1.35-2.7"/>
      <path class="st4" d="M711.62,670.85s0,.45.45.45"/>
      <path class="st4" d="M711.62,669.95v.9"/>
      <path class="st4" d="M711.62,669.05v.9"/>
      <path class="st4" d="M710.72,646.09c-2.25-4.5-6.3-8.1-11.26-9.9"/>
      <path class="st4" d="M710.72,646.09c.45.45.9.9,1.35.45"/>
      <path class="st4" d="M713.42,643.84c-.45-.9-1.35-2.25-1.8-3.6"/>
      <path class="st4" d="M712.07,646.54c.9-.45,1.35-1.35,1.35-2.7"/>
      <path class="st4" d="M712.07,637.99c-.45,0-.45.45-.45.45"/>
      <line class="st4" x1="711.62" y1="638.44" x2="711.62" y2="639.79"/>
      <line class="st4" x1="711.62" y1="639.79" x2="711.62" y2="640.24"/>
      <path class="st4" d="M618.42,637.99c-6.75,9.9-6.75,23.41,0,33.32"/>
      <path class="st4" d="M619.77,663.2c2.7,4.5,6.75,8.1,11.71,9.9"/>
      <path class="st4" d="M619.77,663.2c0-.45-.9-.45-1.35-.45"/>
      <path class="st4" d="M617.07,665.45c.9,1.35,1.35,2.25,2.25,3.6"/>
      <path class="st4" d="M618.42,662.75c-.9.45-1.35,1.8-1.35,2.7"/>
      <path class="st4" d="M618.42,671.3c.45,0,.45-.45.45-.45"/>
      <path class="st4" d="M618.87,670.85c.45-.45.45-.9.45-.9"/>
      <g>
        <g>
          <path class="st6" d="M712.12,696.85c.9-.45,1.35-1.8,1.35-2.7-.45-1.35-1.35-2.25-1.8-3.6v-1.8s0-.45.45-.45c7.21,9.9,7.21,23.41,0,33.32-.45,0-.45-.45-.45-.45v-1.81c.45-1.35,1.35-2.25,1.8-3.6,0-.9-.45-2.25-1.35-2.7-.45,0-.9,0-1.35.45-2.25,4.5-6.75,8.11-11.25,9.91v-36.92c4.5,1.8,9,5.4,11.25,9.9.45.45.9.45,1.35.45Z"/>
          <polygon class="st6" points="699.52 723.42 699.52 728.37 631.54 728.37 631.54 723.42 631.54 686.5 631.54 679.3 699.52 679.3 699.52 686.5 699.52 723.42"/>
          <path class="st6" d="M631.54,686.5v36.92c-4.96-1.8-9.01-5.41-11.71-9.91,0-.45-.9-.45-1.35-.45-.9.45-1.35,1.8-1.35,2.7l-1.47.61c-3.74-9.09-2.8-19.83,2.82-28.07.45,0,.45.45.45.45.45.45.45.9.45.9v.9c-.9,1.35-1.35,2.25-2.25,3.6,0,.9.45,2.25,1.35,2.7.45,0,1.35,0,1.35-.45,2.7-4.5,6.75-8.1,11.71-9.9Z"/>
          <path class="st6" d="M619.38,719.36v.45c0,.45,0,.91-.45,1.36,0,0,0,.45-.45.45-1.13-1.66-2.07-3.42-2.82-5.25l1.47-.61c.9,1.35,1.35,2.25,2.25,3.6Z"/>
        </g>
        <g>
          <polyline class="st2" points="699.52 728.37 699.52 723.42 699.52 686.5 699.52 679.3"/>
          <polyline class="st2" points="631.54 679.3 631.54 686.5 631.54 723.42 631.54 728.37"/>
          <line class="st2" x1="699.52" y1="679.3" x2="631.54" y2="679.3"/>
          <path class="st2" d="M712.12,721.62c7.21-9.91,7.21-23.42,0-33.32"/>
          <path class="st2" d="M699.52,723.42c4.5-1.8,9-5.41,11.25-9.91"/>
          <path class="st2" d="M712.12,713.06c-.45,0-.9,0-1.35.45"/>
          <path class="st2" d="M711.67,719.36c.45-1.35,1.35-2.25,1.8-3.6"/>
          <path class="st2" d="M713.47,715.76c0-.9-.45-2.25-1.35-2.7"/>
          <path class="st2" d="M711.67,721.17s0,.45.45.45"/>
          <line class="st2" x1="711.67" y1="719.81" x2="711.67" y2="721.17"/>
          <line class="st2" x1="711.67" y1="719.36" x2="711.67" y2="719.81"/>
          <path class="st2" d="M710.77,696.4c-2.25-4.5-6.75-8.1-11.25-9.9"/>
          <path class="st2" d="M710.77,696.4c.45.45.9.45,1.35.45"/>
          <path class="st2" d="M713.47,694.15c-.45-1.35-1.35-2.25-1.8-3.6"/>
          <path class="st2" d="M712.12,696.85c.9-.45,1.35-1.8,1.35-2.7"/>
          <path class="st2" d="M712.12,688.3c-.45,0-.45.45-.45.45"/>
          <path class="st2" d="M711.67,688.75v.9"/>
          <path class="st2" d="M711.67,689.65v.9"/>
          <path class="st2" d="M618.48,688.3c-5.62,8.24-6.56,18.98-2.82,28.07.75,1.83,1.69,3.59,2.82,5.25"/>
          <path class="st2" d="M619.83,713.51c2.7,4.5,6.75,8.11,11.71,9.91"/>
          <path class="st2" d="M619.83,713.51c0-.45-.9-.45-1.35-.45"/>
          <path class="st2" d="M617.13,715.76c.9,1.35,1.35,2.25,2.25,3.6"/>
          <path class="st2" d="M618.48,713.06c-.9.45-1.35,1.8-1.35,2.7"/>
          <path class="st2" d="M618.48,721.62c.45,0,.45-.45.45-.45"/>
          <path class="st2" d="M618.93,721.17c.45-.45.45-.91.45-1.36"/>
          <line class="st2" x1="619.38" y1="719.81" x2="619.38" y2="719.36"/>
          <path class="st2" d="M631.54,686.5c-4.96,1.8-9.01,5.4-11.71,9.9"/>
          <path class="st2" d="M618.48,696.85c.45,0,1.35,0,1.35-.45"/>
          <path class="st2" d="M619.38,690.55c-.9,1.35-1.35,2.25-2.25,3.6"/>
          <path class="st2" d="M617.13,694.15c0,.9.45,2.25,1.35,2.7"/>
          <path class="st2" d="M618.93,688.75s0-.45-.45-.45"/>
          <path class="st2" d="M619.38,689.65s0-.45-.45-.9"/>
          <path class="st2" d="M619.38,690.55v-.9"/>
          <line class="st2" x1="631.54" y1="728.37" x2="699.52" y2="728.37"/>
        </g>
      </g>
      <rect class="st3" x="631.39" y="724.29" width="68.07" height="5.88"/>
      <path class="st4" d="M699.46,722.96c4.95-1.8,9-5.4,11.26-9.9"/>
      <path class="st4" d="M619.32,719.81v-.9"/>
      <path class="st4" d="M631.48,686.05c-4.95,1.8-9,5.4-11.71,9.9"/>
      <path class="st4" d="M618.42,696.4c.45.45,1.35,0,1.35-.45"/>
      <path class="st4" d="M619.32,690.1c-.9,1.35-1.35,2.7-2.25,3.6"/>
      <path class="st4" d="M617.07,693.7c0,1.35.45,2.25,1.35,2.7"/>
      <path class="st4" d="M618.87,688.3s0-.45-.45-.45"/>
      <path class="st4" d="M619.32,689.65c0-.45,0-.9-.45-1.35"/>
      <line class="st4" x1="619.32" y1="690.1" x2="619.32" y2="689.65"/>
      <line class="st4" x1="699.46" y1="730.17" x2="631.48" y2="730.17"/>
      <line class="st4" x1="699.46" y1="730.17" x2="699.46" y2="679.29"/>
      <line class="st4" x1="631.48" y1="679.29" x2="631.48" y2="730.17"/>
      <line class="st4" x1="699.46" y1="679.29" x2="631.48" y2="679.29"/>
      <path class="st4" d="M712.07,721.16c7.2-9.9,7.2-23.41,0-33.32"/>
      <path class="st4" d="M699.46,722.96c4.95-1.8,9-5.4,11.26-9.9"/>
      <path class="st4" d="M712.07,712.61c-.45,0-.9,0-1.35.45"/>
      <path class="st4" d="M711.62,718.91c.45-1.35,1.35-2.25,1.8-3.6"/>
      <path class="st4" d="M713.42,715.31c0-.9-.45-2.25-1.35-2.7"/>
      <path class="st4" d="M711.62,720.71s0,.45.45.45"/>
      <path class="st4" d="M711.62,719.81v.9"/>
      <path class="st4" d="M711.62,718.91v.9"/>
      <path class="st4" d="M710.72,695.95c-2.25-4.5-6.3-8.1-11.26-9.9"/>
      <path class="st4" d="M710.72,695.95c.45.45.9.9,1.35.45"/>
      <path class="st4" d="M713.42,693.7c-.45-.9-1.35-2.25-1.8-3.6"/>
      <path class="st4" d="M712.07,696.4c.9-.45,1.35-1.35,1.35-2.7"/>
      <path class="st4" d="M712.07,687.85c-.45,0-.45.45-.45.45"/>
      <line class="st4" x1="711.62" y1="688.3" x2="711.62" y2="689.65"/>
      <line class="st4" x1="711.62" y1="689.65" x2="711.62" y2="690.1"/>
      <path class="st4" d="M618.42,687.85c-6.75,9.9-6.75,23.41,0,33.32"/>
      <path class="st4" d="M619.77,713.06c2.7,4.5,6.75,8.1,11.71,9.9"/>
      <path class="st4" d="M619.77,713.06c0-.45-.9-.45-1.35-.45"/>
      <path class="st4" d="M617.07,715.31c.9,1.35,1.35,2.25,2.25,3.6"/>
      <path class="st4" d="M618.42,712.61c-.9.45-1.35,1.8-1.35,2.7"/>
      <path class="st4" d="M618.42,721.16c.45,0,.45-.45.45-.45"/>
      <path class="st4" d="M618.87,720.71c.45-.45.45-.9.45-.9"/>
      <path class="st4" d="M619.32,719.81v-.9"/>
      <path class="st4" d="M631.48,686.05c-4.95,1.8-9,5.4-11.71,9.9"/>
      <path class="st4" d="M618.42,696.4c.45.45,1.35,0,1.35-.45"/>
      <path class="st4" d="M619.32,690.1c-.9,1.35-1.35,2.7-2.25,3.6"/>
      <path class="st4" d="M617.07,693.7c0,1.35.45,2.25,1.35,2.7"/>
      <path class="st4" d="M618.87,688.3s0-.45-.45-.45"/>
      <path class="st4" d="M619.32,689.65c0-.45,0-.9-.45-1.35"/>
      <line class="st4" x1="619.32" y1="690.1" x2="619.32" y2="689.65"/>
      <line class="st4" x1="699.46" y1="730.17" x2="631.48" y2="730.17"/>
      <line class="st4" x1="699.46" y1="730.17" x2="699.46" y2="679.29"/>
      <line class="st4" x1="631.48" y1="679.29" x2="631.48" y2="730.17"/>
      <line class="st4" x1="699.46" y1="679.29" x2="631.48" y2="679.29"/>
      <path class="st4" d="M712.07,721.16c7.2-9.9,7.2-23.41,0-33.32"/>
      <path class="st4" d="M712.07,712.61c-.45,0-.9,0-1.35.45"/>
      <path class="st4" d="M711.62,718.91c.45-1.35,1.35-2.25,1.8-3.6"/>
      <path class="st4" d="M713.42,715.31c0-.9-.45-2.25-1.35-2.7"/>
      <path class="st4" d="M711.62,720.71s0,.45.45.45"/>
      <path class="st4" d="M711.62,719.81v.9"/>
      <path class="st4" d="M711.62,718.91v.9"/>
      <path class="st4" d="M710.72,695.95c-2.25-4.5-6.3-8.1-11.26-9.9"/>
      <path class="st4" d="M710.72,695.95c.45.45.9.9,1.35.45"/>
      <path class="st4" d="M713.42,693.7c-.45-.9-1.35-2.25-1.8-3.6"/>
      <path class="st4" d="M712.07,696.4c.9-.45,1.35-1.35,1.35-2.7"/>
      <path class="st4" d="M712.07,687.85c-.45,0-.45.45-.45.45"/>
      <line class="st4" x1="711.62" y1="688.3" x2="711.62" y2="689.65"/>
      <line class="st4" x1="711.62" y1="689.65" x2="711.62" y2="690.1"/>
      <path class="st4" d="M618.42,687.85c-6.75,9.9-6.75,23.41,0,33.32"/>
      <path class="st4" d="M619.77,713.06c2.7,4.5,6.75,8.1,11.71,9.9"/>
      <path class="st4" d="M619.77,713.06c0-.45-.9-.45-1.35-.45"/>
      <path class="st4" d="M617.07,715.31c.9,1.35,1.35,2.25,2.25,3.6"/>
      <path class="st4" d="M618.42,712.61c-.9.45-1.35,1.8-1.35,2.7"/>
      <path class="st4" d="M618.42,721.16c.45,0,.45-.45.45-.45"/>
      <path class="st4" d="M618.87,720.71c.45-.45.45-.9.45-.9"/>
      <rect class="st7" x="631.16" y="629.43" width="67.93" height="100.73"/>
    </g>
    <rect class="st10" x="-81.03" y="643.4" width="56.69" height="56.69"/>
    <rect class="st9" x="-81.03" y="582.19" width="56.69" height="56.69"/>
  </g>
</svg>