<?xml version="1.0" encoding="UTF-8"?>
<svg id="Layer_1" xmlns="http://www.w3.org/2000/svg" xmlns:xlink="http://www.w3.org/1999/xlink" version="1.1" viewBox="0 0 1200 1697.14">
  <!-- Generator: Adobe Illustrator 29.6.0, SVG Export Plug-In . SVG Version: 2.1.1 Build 207)  -->
  <defs>
    <style>
      .st0, .st1, .st2, .st3, .st4 {
        fill: none;
      }

      .st1 {
        stroke-width: .09px;
      }

      .st1, .st2, .st5 {
        stroke-miterlimit: 10;
      }

      .st1, .st5 {
        stroke: #231f20;
      }

      .st2, .st3, .st4 {
        stroke: #000;
      }

      .st2, .st4 {
        stroke-width: .08px;
      }

      .st3 {
        stroke-width: .14px;
      }

      .st3, .st4 {
        stroke-linecap: round;
        stroke-linejoin: round;
      }

      .st6 {
        clip-path: url(#clippath-17);
      }

      .st7 {
        clip-path: url(#clippath-11);
      }

      .st8 {
        clip-path: url(#clippath-16);
      }

      .st9 {
        clip-path: url(#clippath-10);
      }

      .st10 {
        clip-path: url(#clippath-15);
      }

      .st11 {
        clip-path: url(#clippath-13);
      }

      .st12 {
        clip-path: url(#clippath-14);
      }

      .st13 {
        clip-path: url(#clippath-12);
      }

      .st14 {
        clip-path: url(#clippath-1);
      }

      .st15 {
        clip-path: url(#clippath-3);
      }

      .st16 {
        clip-path: url(#clippath-4);
      }

      .st17 {
        clip-path: url(#clippath-2);
      }

      .st18 {
        clip-path: url(#clippath-7);
      }

      .st19 {
        clip-path: url(#clippath-6);
      }

      .st20 {
        clip-path: url(#clippath-9);
      }

      .st21 {
        clip-path: url(#clippath-8);
      }

      .st22 {
        clip-path: url(#clippath-5);
      }

      .st23, .st5 {
        fill: #fff;
      }

      .st24 {
        fill: #ece9e5;
      }

      .st25 {
        fill: #302c35;
      }

      .st5 {
        stroke-width: .25px;
      }

      .st26 {
        clip-path: url(#clippath);
      }
    </style>
    <clipPath id="clippath">
      <rect class="st0" x="687.85" y="781.2" width="150.18" height="120.74"/>
    </clipPath>
    <clipPath id="clippath-1">
      <rect class="st0" x="205.79" y="441.48" width="788.41" height="814.19"/>
    </clipPath>
    <clipPath id="clippath-2">
      <rect class="st0" x="205.79" y="441.48" width="788.41" height="814.19"/>
    </clipPath>
    <clipPath id="clippath-3">
      <rect class="st0" x="465.35" y="853.67" width="115.56" height="115.56"/>
    </clipPath>
    <clipPath id="clippath-4">
      <rect class="st0" x="205.79" y="441.48" width="788.41" height="814.19"/>
    </clipPath>
    <clipPath id="clippath-5">
      <rect class="st0" x="205.79" y="441.48" width="788.41" height="814.19"/>
    </clipPath>
    <clipPath id="clippath-6">
      <rect class="st0" x="205.79" y="441.48" width="788.41" height="814.19"/>
    </clipPath>
    <clipPath id="clippath-7">
      <rect class="st0" x="205.79" y="441.48" width="788.41" height="814.19"/>
    </clipPath>
    <clipPath id="clippath-8">
      <rect class="st0" x="205.79" y="441.48" width="788.41" height="814.19"/>
    </clipPath>
    <clipPath id="clippath-9">
      <rect class="st0" x="205.79" y="441.48" width="788.41" height="814.19"/>
    </clipPath>
    <clipPath id="clippath-10">
      <rect class="st0" x="205.79" y="441.48" width="788.41" height="814.19"/>
    </clipPath>
    <clipPath id="clippath-11">
      <rect class="st0" x="735.82" y="972.22" width="28.59" height="39.22"/>
    </clipPath>
    <clipPath id="clippath-12">
      <rect class="st0" x="205.79" y="441.48" width="788.41" height="814.19"/>
    </clipPath>
    <clipPath id="clippath-13">
      <rect class="st0" x="205.79" y="441.48" width="788.41" height="814.19"/>
    </clipPath>
    <clipPath id="clippath-14">
      <rect class="st0" x="806.15" y="1054.96" width="27.51" height="37.12"/>
    </clipPath>
    <clipPath id="clippath-15">
      <rect class="st0" x="205.79" y="441.48" width="788.41" height="814.19"/>
    </clipPath>
    <clipPath id="clippath-16">
      <rect class="st0" x="205.79" y="441.48" width="788.41" height="814.19"/>
    </clipPath>
    <clipPath id="clippath-17">
      <rect class="st0" x="205.79" y="441.48" width="788.41" height="814.19"/>
    </clipPath>
  </defs>
  <rect class="st24" x="403.98" y="641.03" width="304.45" height="481.65"/>
  <rect class="st24" x="457.65" y="537.86" width="215.43" height="122.74"/>
  <rect class="st24" x="691.56" y="642.72" width="167.75" height="479.96"/>
  <rect class="st23" x="666.65" y="912.03" width="49.05" height="97.35"/>
  <rect class="st23" x="417.34" y="1011.3" width="51.78" height="97.96"/>
  <rect class="st23" x="794.17" y="684.86" width="50.34" height="50.34"/>
  <rect class="st23" x="705.05" y="638.66" width="87.32" height="18.23"/>
  <rect class="st23" x="466.93" y="645.42" width="185.81" height="11.47"/>
  <rect class="st25" x="642.62" y="671.4" width="65.82" height="16.2"/>
  <rect class="st25" x="549.48" y="1106.82" width="309.83" height="15.87"/>
  <rect class="st25" x="403.98" y="1106.82" width="74.26" height="15.87"/>
  <rect class="st25" x="457.65" y="537.07" width="4.05" height="103.96"/>
  <rect class="st25" x="669.82" y="537.07" width="4.05" height="103.96"/>
  <rect class="st25" x="457.65" y="537.07" width="216.22" height="4.05"/>
  <rect class="st25" x="403.98" y="687.61" width="17.21" height="419.21"/>
  <rect class="st25" x="790.79" y="651.49" width="68.52" height="36.12"/>
  <rect class="st25" x="790.79" y="642.72" width="68.52" height="8.78"/>
  <rect class="st25" x="722.27" y="905.99" width="119.48" height="7.76"/>
  <rect class="st25" x="714.17" y="913.75" width="8.1" height="51.98"/>
  <rect class="st25" x="714.17" y="1100.07" width="126.24" height="8.96"/>
  <rect class="st25" x="714.17" y="965.73" width="5.4" height="54.68"/>
  <rect class="st25" x="714.17" y="1091.29" width="6.75" height="18.23"/>
  <rect class="st25" x="719.57" y="965.73" width="120.83" height="5.07"/>
  <rect class="st25" x="652.74" y="766.93" width="7.76" height="139.06"/>
  <rect class="st25" x="652.74" y="670.9" width="7.76" height="25.48"/>
  <rect class="st25" x="719.57" y="970.79" width="115.43" height="1.35"/>
  <rect class="st25" x="719.57" y="972.14" width="1.35" height="48.27"/>
  <rect class="st25" x="719.57" y="1098.72" width="115.43" height="1.35"/>
  <rect class="st25" x="652.74" y="905.99" width="69.53" height="7.76"/>
  <rect class="st25" x="642.62" y="641.03" width="65.82" height="30.38"/>
  <rect class="st25" x="403.98" y="641.03" width="74.93" height="46.58"/>
  <g class="st26">
    <path class="st23" d="M837.79,781.2l.24,119.9-30.77.17v-.12s1.51-14.98,1.51-14.98l17.6-.16c2.41-.09,4.23-1.85,4.14-4.26l-.35-81.55c-.14-2.01-1.91-3.84-4.27-4.14l-8.01.18,1.51-14.94,18.39-.09Z"/>
    <path class="st23" d="M830.51,881.75c.09,2.41-1.73,4.17-4.14,4.26l-17.6.15,9.11-89.94,8.01-.17c2.36.3,4.13,2.13,4.27,4.14l.35,81.55Z"/>
    <polygon class="st23" points="807.26 901.15 807.26 901.27 688.49 901.94 687.85 781.99 819.4 781.29 817.89 796.23 808.77 886.17 807.26 901.15"/>
  </g>
  <line class="st4" x1="688.49" y1="901.94" x2="687.86" y2="781.99"/>
  <polyline class="st4" points="838.03 901.09 807.26 901.27 688.49 901.94"/>
  <polyline class="st4" points="687.86 781.99 819.4 781.3 837.79 781.2"/>
  <polyline class="st4" points="819.41 781.24 819.4 781.3 817.89 796.23 808.78 886.17 807.26 901.15"/>
  <line class="st4" x1="830.51" y1="881.75" x2="830.17" y2="800.2"/>
  <line class="st4" x1="825.9" y1="796.06" x2="817.89" y2="796.23"/>
  <g class="st14">
    <path class="st4" d="M830.17,800.2c-.14-2.01-1.91-3.84-4.27-4.14"/>
  </g>
  <line class="st4" x1="826.38" y1="886.01" x2="808.78" y2="886.17"/>
  <g class="st17">
    <path class="st4" d="M826.38,886.01c2.41-.09,4.23-1.85,4.14-4.26"/>
  </g>
  <g class="st15">
    <path class="st23" d="M505.46,952.52c-5.15-2.12-9.92-5.28-14.02-9.39-4.1-4.1-7.27-8.86-9.39-14.02-2.17-5.29-3.24-11.01-3.09-16.88-.15-6.04,1.06-12,3.4-17.45,2.15-5,5.24-9.59,9.07-13.42,4.93-4.93,10.81-8.51,17.25-10.6,4.41-1.43,9.1-2.17,13.93-2.18,7.57,0,14.99,2.01,21.57,5.83,3.24,1.88,6.27,4.2,9.02,6.94,2.73,2.74,5.06,5.77,6.94,9.01,3.82,6.58,5.83,14.01,5.83,21.57,0,4.84-.74,9.53-2.17,13.94-2.09,6.45-5.66,12.31-10.6,17.25-3.83,3.83-8.42,6.92-13.42,9.07-5.46,2.34-11.42,3.56-17.46,3.4-5.87.15-11.57-.91-16.87-3.08"/>
    <path class="st23" d="M522.33,955.61c6.04.16,12-1.06,17.46-3.4l.06.14c-2.08,4.45-5.35,8.31-9.5,10.68-.3.3-.3.89,0,1.19.3.89,1.19,1.19,2.38,1.19.89-.3,2.08-.89,2.97-1.78q.59,0,.89.3c.3-.3.59,0,.89-.3l.59.6c-9.5,6.53-21.67,6.83-30.89,0-.29-.3,0-.6.3-.3.3-.3.59,0,.89-.3.29.3.59,0,.89.3.89.3,2.08.89,3.26,1.49.89.3,2.09-.29,2.38-1.19.3-.3.3-.89-.29-.89-4.39-2.64-7.63-6.43-9.15-10.8,5.29,2.17,11,3.23,16.87,3.08"/>
    <path class="st23" d="M471.55,904.23c2.38-4.16,5.94-7.72,10.69-9.5l.14.06c-2.34,5.46-3.55,11.42-3.4,17.45-.15,5.86.92,11.58,3.09,16.88-4.37-1.51-8.16-4.75-10.81-9.15,0-.59-.6-.59-.89-.3-.89.3-1.48,1.49-1.18,2.38.59,1.19,1.19,2.38,1.49,3.27.3.3,0,.6.3.89-.3.3,0,.6-.3.89.3.3-.3.3-.3.3-6.83-9.21-6.54-21.38,0-30.89l.59.59c-.3.3,0,.6-.3.89q.3.3.3.89c-.89.89-1.48,2.08-1.78,2.97,0,1.19.3,2.08,1.19,2.37.3.3.89.3,1.19,0"/>
    <path class="st23" d="M575.79,893.24c6.83,9.21,6.83,21.68,0,30.89,0,0-.3-.3-.59-.6v-.59q0-.59.29-.89c.6-1.19,1.19-2.38,1.48-3.27.3-.89-.3-2.08-1.19-2.37-.3-.3-.89-.3-1.19,0-2.08,4.45-5.94,7.72-10.69,9.51l-.09-.03c1.43-4.41,2.16-9.1,2.17-13.94,0-7.56-2.01-14.99-5.83-21.57l.18-.11c5.94,1.19,11.59,5.05,14.55,10.4,0,.59.59.59.89.3.9-.3,1.49-1.49,1.19-2.38-.59-1.19-.89-2.08-1.48-3.26q-.29-.3-.29-.89s0-.6.29-.89l.3-.3Z"/>
    <path class="st23" d="M510.46,858.79c9.2-6.83,21.67-6.83,30.89,0l-.3.3c-.3.29-.89.29-.89.29q-.6,0-.89-.29c-1.18-.6-2.08-.89-3.27-1.49-.89-.29-2.08.3-2.38,1.19-.29.3-.29.89.3.89,5.35,2.97,9.21,8.61,10.4,14.55l-.11.19c-6.58-3.83-14-5.83-21.57-5.83-4.83,0-9.52.74-13.93,2.18l-.03-.09c1.78-4.75,5.05-8.61,9.51-10.69.3-.3.3-.89,0-1.19-.3-.89-1.48-1.48-2.37-1.19-.89.3-2.08.89-3.27,1.49q-.3.29-.89.29s-.59,0-.89-.29l-.3-.3Z"/>
  </g>
  <g class="st16">
    <path class="st4" d="M470.96,898.89q0-.59-.3-.89"/>
    <path class="st4" d="M482.06,929.12c2.12,5.15,5.29,9.92,9.39,14.02,4.1,4.1,8.87,7.27,14.02,9.39,5.29,2.17,11,3.23,16.87,3.08,6.04.16,12-1.06,17.46-3.4,5-2.15,9.59-5.24,13.42-9.07,4.93-4.93,8.51-10.8,10.6-17.25,1.43-4.41,2.17-9.1,2.17-13.94,0-7.56-2.01-14.99-5.83-21.57-1.88-3.24-4.2-6.27-6.94-9.01-2.74-2.74-5.78-5.07-9.02-6.94-6.58-3.82-14-5.83-21.57-5.83-4.84,0-9.52.74-13.93,2.17-6.45,2.09-12.32,5.67-17.25,10.6-3.83,3.83-6.92,8.42-9.07,13.42-2.34,5.46-3.56,11.42-3.4,17.46-.16,5.86.92,11.57,3.09,16.87Z"/>
    <path class="st4" d="M507.18,964.22c9.21,6.83,21.38,6.54,30.89,0"/>
    <path class="st4" d="M505.4,952.35c.02.06.04.12.06.18,1.51,4.37,4.75,8.17,9.14,10.81"/>
    <path class="st4" d="M514.9,964.22c.3-.3.3-.89-.3-.89"/>
    <path class="st4" d="M509.26,963.92c.89.3,2.08.89,3.27,1.48"/>
    <path class="st4" d="M512.53,965.41c.89.3,2.08-.29,2.38-1.19"/>
    <path class="st4" d="M507.48,963.92c-.3-.3-.59,0-.3.3"/>
    <path class="st4" d="M508.37,963.63c-.3.3-.59,0-.89.3"/>
    <path class="st4" d="M509.26,963.92c-.3-.3-.59,0-.89-.3"/>
    <path class="st4" d="M530.35,963.03c-.3.3-.3.89,0,1.19"/>
    <path class="st4" d="M532.73,965.41c.89-.3,2.08-.89,2.97-1.78"/>
    <path class="st4" d="M530.35,964.22c.3.89,1.19,1.19,2.38,1.19"/>
  </g>
  <line class="st4" x1="538.07" y1="964.22" x2="537.48" y2="963.63"/>
  <g class="st22">
    <path class="st4" d="M537.48,963.63c-.3.3-.59,0-.89.3"/>
    <path class="st4" d="M536.59,963.92q-.3-.3-.89-.3"/>
    <path class="st4" d="M530.35,963.03c4.15-2.37,7.42-6.24,9.5-10.69"/>
    <path class="st4" d="M575.79,924.13c6.83-9.2,6.83-21.68,0-30.89"/>
    <path class="st4" d="M574.89,900.67c-2.96-5.35-8.61-9.2-14.55-10.4"/>
    <path class="st4" d="M574.89,900.67c0,.59.59.59.89.3"/>
    <path class="st4" d="M576.98,898.58c-.59-1.19-.89-2.08-1.48-3.26"/>
    <path class="st4" d="M575.78,900.97c.9-.3,1.49-1.49,1.2-2.38"/>
  </g>
  <line class="st4" x1="575.79" y1="893.24" x2="575.49" y2="893.54"/>
  <g class="st19">
    <path class="st4" d="M575.49,893.54c-.3.3-.3.89-.3.89"/>
    <path class="st4" d="M575.2,894.43q0,.59.3.89"/>
    <path class="st4" d="M575.79,916.41c-.3-.3-.89-.3-1.19,0"/>
    <path class="st4" d="M575.49,922.05c.59-1.19,1.19-2.37,1.48-3.26"/>
    <path class="st4" d="M576.98,918.78c.3-.89-.3-2.08-1.19-2.37"/>
    <path class="st4" d="M575.2,923.53c.3.3.59.6.59.6"/>
  </g>
  <line class="st4" x1="575.2" y1="922.94" x2="575.2" y2="923.53"/>
  <g class="st18">
    <path class="st4" d="M575.49,922.05q-.3.3-.3.89"/>
    <path class="st4" d="M563.91,925.91c4.75-1.78,8.61-5.05,10.69-9.51"/>
    <path class="st4" d="M470.36,896.51c-6.54,9.51-6.83,21.68,0,30.89"/>
    <path class="st4" d="M471.25,919.97c2.64,4.4,6.44,7.64,10.81,9.15.06.02.12.04.18.06"/>
    <path class="st4" d="M471.25,919.97c0-.6-.59-.6-.89-.3"/>
    <path class="st4" d="M469.17,922.05c.59,1.19,1.2,2.38,1.49,3.27"/>
    <path class="st4" d="M470.36,919.67c-.89.3-1.48,1.48-1.19,2.37"/>
    <path class="st4" d="M470.36,927.4s.59,0,.3-.3"/>
    <path class="st4" d="M470.66,927.1c.3-.3,0-.6.3-.89"/>
    <path class="st4" d="M470.96,926.21c-.3-.3,0-.59-.3-.89"/>
    <path class="st4" d="M470.36,904.23c.3.3.89.3,1.19,0"/>
    <path class="st4" d="M470.96,898.89c-.89.89-1.48,2.08-1.78,2.97"/>
    <path class="st4" d="M469.18,901.86c0,1.19.3,2.08,1.19,2.37"/>
  </g>
  <line class="st4" x1="470.96" y1="897.11" x2="470.36" y2="896.51"/>
  <g class="st21">
    <path class="st4" d="M470.66,898c.3-.3,0-.6.3-.89"/>
    <path class="st4" d="M482.24,894.73c-4.75,1.78-8.31,5.35-10.69,9.5"/>
    <path class="st4" d="M541.34,858.79c-9.21-6.83-21.68-6.83-30.89,0"/>
    <path class="st4" d="M544.3,874.24c-1.19-5.94-5.04-11.58-10.4-14.55"/>
    <path class="st4" d="M533.61,858.79c-.3.3-.3.89.3.89"/>
    <path class="st4" d="M539.26,859.09c-1.19-.59-2.08-.89-3.27-1.49"/>
    <path class="st4" d="M535.99,857.6c-.89-.3-2.08.3-2.38,1.19"/>
  </g>
  <line class="st4" x1="541.04" y1="859.09" x2="541.34" y2="858.79"/>
  <g class="st20">
    <path class="st4" d="M540.15,859.39s.59,0,.89-.3"/>
    <path class="st4" d="M539.26,859.09q.3.3.89.3"/>
    <path class="st4" d="M518.17,859.98c.3-.3.3-.89,0-1.19"/>
    <path class="st4" d="M515.8,857.61c-.89.3-2.08.89-3.27,1.48"/>
    <path class="st4" d="M518.17,858.79c-.3-.89-1.48-1.48-2.38-1.19"/>
  </g>
  <line class="st4" x1="510.46" y1="858.79" x2="510.76" y2="859.09"/>
  <g class="st9">
    <path class="st4" d="M510.75,859.09c.3.3.89.3.89.3"/>
    <path class="st4" d="M511.64,859.39q.59,0,.89-.3"/>
    <path class="st4" d="M518.17,859.98c-4.45,2.08-7.72,5.94-9.51,10.69"/>
  </g>
  <g class="st7">
    <path class="st23" d="M764.42,972.24c0,7.71,0,15.42,0,23.12,0,8.89-6.4,16.09-14.31,16.08-7.89,0-14.28-7.21-14.27-16.1,0-7.7,0-15.41,0-23.12,9.54,0,19.06.02,28.59.02"/>
  </g>
  <g class="st13">
    <path class="st4" d="M764.42,972.24c0,7.71,0,15.42,0,23.12,0,8.89-6.4,16.09-14.31,16.08-7.89,0-14.28-7.21-14.27-16.1,0-7.7,0-15.41,0-23.12,9.54,0,19.06.02,28.59.02Z"/>
  </g>
  <rect class="st23" x="771.16" y="972.25" width="62.49" height="63.21"/>
  <polyline class="st4" points="833.66 972.25 833.66 1035.47 827.48 1035.47"/>
  <line class="st4" x1="833.66" y1="972.25" x2="771.66" y2="972.25"/>
  <line class="st4" x1="771.16" y1="973.3" x2="771.16" y2="1034.91"/>
  <polyline class="st4" points="771.16 973.3 771.16 972.25 771.66 972.25"/>
  <polyline class="st4" points="772.1 1035.47 771.16 1035.47 771.16 1034.91"/>
  <line class="st4" x1="772.1" y1="1035.47" x2="827.48" y2="1035.47"/>
  <line class="st4" x1="803.36" y1="972.25" x2="803.36" y2="989.81"/>
  <g class="st11">
    <path class="st4" d="M807.2,989.73c0-2.17-1.76-3.93-3.93-3.93s-3.93,1.76-3.93,3.93,1.76,3.93,3.93,3.93,3.93-1.76,3.93-3.93Z"/>
    <path class="st4" d="M807.2,989.73c0-2.17-1.76-3.93-3.93-3.93s-3.93,1.76-3.93,3.93,1.76,3.93,3.93,3.93,3.93-1.76,3.93-3.93Z"/>
  </g>
  <g class="st12">
    <path class="st23" d="M808.27,1055.58h15.49c.59,0,1.07.35,1.07.79v34.13c0,.43-.48.78-1.07.78h-15.49c-.59,0-1.06-.35-1.06-.78v-34.13c0-.44.47-.79,1.06-.79M815.74,1070.63c-1.55,0-2.8,1.26-2.8,2.81s1.25,2.8,2.8,2.8,2.81-1.25,2.81-2.8-1.26-2.81-2.81-2.81"/>
    <path class="st23" d="M827.45,1073.44c0-1.17.95-2.11,2.1-2.11s2.11.95,2.11,2.11-.95,2.1-2.11,2.1-2.1-.94-2.1-2.1"/>
    <path class="st23" d="M815.74,1071.93c.83,0,1.51.68,1.51,1.51s-.68,1.51-1.51,1.51-1.51-.68-1.51-1.51.68-1.51,1.51-1.51"/>
    <path class="st23" d="M817.25,1073.44c0-.83-.68-1.51-1.51-1.51s-1.51.68-1.51,1.51.68,1.51,1.51,1.51,1.51-.68,1.51-1.51M815.74,1070.63c1.55,0,2.81,1.26,2.81,2.81s-1.26,2.8-2.81,2.8-2.8-1.25-2.8-2.8,1.25-2.81,2.8-2.81"/>
    <path class="st23" d="M831.66,1073.44c0-1.17-.95-2.11-2.11-2.11s-2.1.95-2.1,2.11.95,2.1,2.1,2.1,2.11-.94,2.11-2.1M823.77,1055.58h-15.5c-.59,0-1.06.35-1.06.79v34.13c0,.43.47.79,1.06.79h15.5c.59,0,1.07-.36,1.07-.79v-34.13c0-.44-.48-.79-1.07-.79M807.21,1054.96h26.45v37.12h-26.45c-.59,0-1.06-.35-1.06-.79v-35.71c0-.35.47-.62,1.06-.62"/>
  </g>
  <g class="st10">
    <path class="st4" d="M829.55,1075.54c-1.16,0-2.1-.95-2.1-2.1s.95-2.11,2.1-2.11,2.11.94,2.11,2.11-.95,2.1-2.11,2.1Z"/>
    <path class="st4" d="M815.74,1076.24c-1.55,0-2.8-1.25-2.8-2.8s1.25-2.81,2.8-2.81,2.81,1.26,2.81,2.81-1.26,2.8-2.81,2.8Z"/>
    <path class="st4" d="M815.74,1074.95c-.83,0-1.51-.68-1.51-1.51s.68-1.51,1.51-1.51,1.51.68,1.51,1.51-.68,1.51-1.51,1.51Z"/>
    <path class="st4" d="M823.77,1055.58h-15.5c-.59,0-1.06.35-1.06.79v34.13c0,.43.47.78,1.06.78h15.5c.59,0,1.07-.35,1.07-.78v-34.13c0-.44-.48-.79-1.07-.79Z"/>
  </g>
  <line class="st4" x1="825.48" y1="1092.08" x2="833.66" y2="1092.08"/>
  <g class="st8">
    <path class="st4" d="M833.66,1054.96h-26.45c-.59,0-1.06.28-1.06.62v35.71c0,.44.47.79,1.06.79h8.38"/>
  </g>
  <line class="st4" x1="825.48" y1="1092.08" x2="815.59" y2="1092.08"/>
  <line class="st4" x1="707.71" y1="937.59" x2="697.03" y2="937.59"/>
  <rect class="st4" x="666.65" y="913.98" width="47.78" height="95.4"/>
  <line class="st4" x1="681.66" y1="998.21" x2="681.66" y2="987.78"/>
  <line class="st4" x1="701.27" y1="998.21" x2="701.27" y2="987.78"/>
  <line class="st4" x1="696.12" y1="993.06" x2="706.55" y2="993.06"/>
  <line class="st4" x1="676.37" y1="993.06" x2="686.8" y2="993.06"/>
  <rect class="st4" x="671.78" y="981.24" width="39.36" height="22.95"/>
  <rect class="st4" x="677.52" y="924.39" width="26.55" height="26.54"/>
  <rect class="st4" x="670.91" y="917.65" width="39.75" height="39.88"/>
  <path class="st4" d="M722.27,913.75h119.48M841.76,913.75v51.98M841.76,965.73h-119.48M722.27,965.73v-31.05M790.79,671.4v16.2M790.79,687.61h50.97M642.61,671.4v16.2M708.43,687.61v-16.2M421.2,687.61h57.72M478.91,687.61v-16.2M550.47,1122.68h308.84M477.23,1106.82h-56.03M403.98,1122.68h4.73M408.71,1122.68h69.53M669.82,541.12h-208.13M461.7,541.12v99.91M682.44,641.03h4.05M673.87,641.03v-103.96M673.87,537.07h-216.23M457.65,537.07v103.96M457.65,641.03h4.05M461.7,641.03v-99.91M673.87,541.12v99.91M859.31,1122.68v-479.97M421.2,1106.82v-419.21M403.98,687.61v419.21M841.76,913.75h-119.48M722.27,934.68v31.05M722.27,965.73h119.48M841.76,965.73v-51.98M480.6,1040.32l12.82,1.35M493.43,1041.67l12.49,3.71M505.92,1045.39l11.81,6.07M517.73,1051.46l9.79,8.44M527.52,1059.9l8.44,9.79M535.96,1069.69l6.07,11.81M542.03,1081.5l3.71,12.49M545.74,1093.99l1.35,12.83M478.24,1122.68v-15.87M549.46,1106.82v15.87M547.09,1106.82h-66.49M480.6,1040.32h3.04M480.6,1106.82v-66.49M477.23,1106.82h1.01M790.79,651.49v19.91M790.79,642.71v8.78M859.31,642.71h-68.52M711.81,645.41l2.7-1.69M716.53,642.71l2.03-1.35M720.58,640.01l2.36-1.01M724.97,637.65l2.03-1.01M729.02,635.29l2.03-1.01M733.07,632.93l2.03-1.01M737.46,630.56l2.02-1.01M741.51,628.2l2.02-1.35M745.56,625.84l2.02-1.35M749.61,623.48l2.36-1.35M754,621.11l2.02-1.35M758.05,618.75l2.02-1.35M762.1,616.39l2.02-1.35M766.49,613.69l2.02-1.01M770.54,611.32l2.02-1.01M774.59,608.96l2.7-1.35M787.41,645.41l-.34-2.02M787.08,641.03l-.34-2.36M786.4,636.3v-2.36M786.06,631.58l-.68-2.36M784.71,626.85l-.68-2.02M783.36,622.46l-.34-2.36M782.01,617.74l-1.01-2.02M779.99,613.35l-1.01-2.02M777.96,609.3l-.68-1.69M716.87,649.8h65.48M782.35,649.8v-4.05M782.35,645.75h-65.48M716.87,645.75v4.05M785.73,656.89h-72.23M785.73,656.89h-72.23M785.73,651.49v5.4M713.5,651.49v5.4M713.5,645.41h72.23M716.87,645.41h65.48M716.87,651.49h65.48M713.5,651.49h72.23M709.45,656.89h4.05M713.5,656.89v-5.4M713.5,651.49h3.37M716.87,651.49v-6.08M716.87,645.41h-7.42M709.45,645.41v11.48M785.73,656.89h4.05M789.78,656.89v-11.48M789.78,645.41h-7.42M782.35,645.41v6.08M782.35,651.49h3.37M785.73,651.49v5.4M709.45,645.41h80.33M789.78,645.41h-80.33M787.41,645.41h-75.61M711.47,645.41h76.28M711.81,645.41h75.61M713.5,645.41h72.23M785.73,645.41h-72.23M787.75,645.41h-76.28M782.35,645.41h-65.48M716.87,645.41h65.48M482.29,569.81l13.16,1.35M495.45,571.16l12.49,3.38M507.94,574.53l12.15,5.4M520.09,579.93l10.8,7.43M530.89,587.36l9.11,9.45M540.01,596.81l7.43,10.8M547.43,607.61l5.74,11.81M553.17,619.43l3.38,12.82M556.55,632.25l1.01,13.16M482.29,645.41v-75.61M487.35,649.8h65.48M552.83,649.8v-4.05M552.83,645.75h-65.48M487.35,645.75v4.05M556.21,656.89h-72.23M487.35,645.41h65.48M487.35,651.49h65.48M556.21,651.49v5.4M483.98,651.49v5.4M483.98,651.49h72.23M479.93,656.89h4.05M483.98,656.89v-5.4M483.98,651.49h3.37M487.35,651.49v-6.08M487.35,645.41h-7.42M479.93,645.41v11.48M556.21,656.89h4.05M560.26,656.89v-11.48M560.26,645.41h-7.43M552.83,645.41v6.08M552.83,651.49h3.38M556.21,651.49v5.4M637.55,645.75v4.05M565.32,645.75h72.23M565.32,649.8v-4.05M637.55,649.8h-72.23M565.32,656.89h72.23M637.55,645.41h-72.23M641.6,645.41v11.48M637.55,645.41h4.05M637.55,656.89v-11.48M641.6,656.89h-4.05M565.32,645.41v11.48M561.27,645.41h4.05M561.27,656.89v-11.48M565.32,656.89h-4.05M841.76,905.99h-7.76M833.99,905.99v7.76M833.99,913.75h7.76M786.06,905.99h-63.79M722.27,913.75h63.79M786.06,913.75v-7.76M786.06,905.99h47.93M833.99,913.75h-47.93M833.99,905.99v7.76M786.06,913.75v-7.76M714.17,913.75v51.98M722.27,965.73v-51.98"/>
  <path class="st4" d="M714.17,1100.07v6.75M714.17,1091.29v8.78M714.17,965.73v54.68M719.57,1022.43v66.15M840.41,965.73h-118.14"/>
  <path class="st23" d="M421.2,1058.89h1.35M424.91,1058.89h2.36M429.63,1058.89h2.36M434.36,1058.89h2.7M439.42,1058.89h2.36M444.15,1058.89h2.36M448.87,1058.89h2.36M453.6,1058.89h2.36M458.32,1058.89h2.36M463.05,1058.89h2.7M468.11,1058.89h1.01M469.13,1058.89v1.35M469.13,1062.6v2.36M469.13,1067.33v2.36M469.13,1072.05v2.36M469.13,1076.78v2.7M469.13,1081.84v2.37M469.13,1086.57v2.36M469.13,1091.29v2.36M469.13,1096.02v2.36M469.13,1100.74v2.36M469.13,1105.47v1.35M421.2,1106.82v-1.35M421.2,1103.11v-2.36M421.2,1098.38v-2.36M421.2,1093.65v-2.36M421.2,1088.93v-2.36M421.2,1084.2v-2.37M421.2,1079.48v-2.7M421.2,1074.41v-2.36M421.2,1069.69v-2.36M421.2,1064.96v-2.36M421.2,1060.24v-1.35M421.2,1058.89h1.35M424.91,1058.89h2.36M429.63,1058.89h2.36M434.36,1058.89h2.7M439.42,1058.89h2.36M444.15,1058.89h2.36M448.87,1058.89h2.36M453.6,1058.89h2.36M458.32,1058.89h2.36M463.05,1058.89h2.7M468.11,1058.89h1.01M469.13,1058.89v-1.01M469.13,1055.51v-2.36M469.13,1050.45v-2.36M469.13,1045.72v-2.36M469.13,1041v-2.36M469.13,1036.27v-2.36M469.13,1031.55v-2.36M469.13,1026.82v-2.36M469.13,1021.76v-2.36M469.13,1017.03v-2.36M469.13,1012.31v-1.01M469.13,1011.3h-1.01M465.75,1011.3h-2.7M460.69,1011.3h-2.36M455.96,1011.3h-2.36M451.24,1011.3h-2.36M446.51,1011.3h-2.36M441.78,1011.3h-2.36M437.06,1011.3h-2.7M432,1011.3h-2.36M427.27,1011.3h-2.36M422.55,1011.3h-1.35M421.2,1011.3v1.01M421.2,1014.67v2.36M421.2,1019.4v2.36M421.2,1024.46v2.36M421.2,1029.19v2.36M421.2,1033.91v2.36M421.2,1038.64v2.36M421.2,1043.36v2.36M421.2,1048.09v2.36M421.2,1053.15v2.36M421.2,1057.88v1.01M652.74,687.61v8.78M660.5,695.37v-7.76M652.74,766.93v139.06M660.5,905.99v-138.05M660.5,695.37v1.01M660.5,698.75h0M660.5,766.93v1.01M726.32,698.75l-1.01,13.16M725.31,711.91l-4.05,12.15M721.26,724.06l-6.08,11.47M715.18,735.54l-8.1,9.79M707.08,745.32l-9.79,8.44M697.29,753.76l-11.47,6.08M685.82,759.84l-12.49,3.71M673.33,763.55l-12.83,1.01M660.5,766.93h-7.76M652.74,696.38h7.76M660.5,702.12v-3.38M660.5,698.75h65.82M660.5,695.37v1.01M660.5,698.75h0M660.5,702.12v62.44M660.5,766.93v1.01"/>
  <path class="st4" d="M421.2,1058.89h1.35M424.91,1058.89h2.36M429.63,1058.89h2.36M434.36,1058.89h2.7M439.42,1058.89h2.36M444.15,1058.89h2.36M448.87,1058.89h2.36M453.6,1058.89h2.36M458.32,1058.89h2.36M463.05,1058.89h2.7M468.11,1058.89h1.01M469.13,1058.89v1.35M469.13,1062.6v2.36M469.13,1067.33v2.36M469.13,1072.05v2.36M469.13,1076.78v2.7M469.13,1081.84v2.37M469.13,1086.57v2.36M469.13,1091.29v2.36M469.13,1096.02v2.36M469.13,1100.74v2.36M469.13,1105.47v1.35M421.2,1106.82v-1.35M421.2,1103.11v-2.36M421.2,1098.38v-2.36M421.2,1093.65v-2.36M421.2,1088.93v-2.36M421.2,1084.2v-2.37M421.2,1079.48v-2.7M421.2,1074.41v-2.36M421.2,1069.69v-2.36M421.2,1064.96v-2.36M421.2,1060.24v-1.35M421.2,1058.89h1.35M424.91,1058.89h2.36M429.63,1058.89h2.36M434.36,1058.89h2.7M439.42,1058.89h2.36M444.15,1058.89h2.36M448.87,1058.89h2.36M453.6,1058.89h2.36M458.32,1058.89h2.36M463.05,1058.89h2.7M468.11,1058.89h1.01M469.13,1058.89v-1.01M469.13,1055.51v-2.36M469.13,1050.45v-2.36M469.13,1045.72v-2.36M469.13,1041v-2.36M469.13,1036.27v-2.36M469.13,1031.55v-2.36M469.13,1026.82v-2.36M469.13,1021.76v-2.36M469.13,1017.03v-2.36M469.13,1012.31v-1.01M469.13,1011.3h-1.01M465.75,1011.3h-2.7M460.69,1011.3h-2.36M455.96,1011.3h-2.36M451.24,1011.3h-2.36M446.51,1011.3h-2.36M441.78,1011.3h-2.36M437.06,1011.3h-2.7M432,1011.3h-2.36M427.27,1011.3h-2.36M422.55,1011.3h-1.35M421.2,1011.3v1.01M421.2,1014.67v2.36M421.2,1019.4v2.36M421.2,1024.46v2.36M421.2,1029.19v2.36M421.2,1033.91v2.36M421.2,1038.64v2.36M421.2,1043.36v2.36M421.2,1048.09v2.36M421.2,1053.15v2.36M421.2,1057.88v1.01M652.74,687.61v8.78M660.5,695.37v-7.76M652.74,766.93v139.06M660.5,905.99v-138.05M660.5,695.37v1.01M660.5,698.75h0M660.5,766.93v1.01M726.32,698.75l-1.01,13.16M725.31,711.91l-4.05,12.15M721.26,724.06l-6.08,11.47M715.18,735.54l-8.1,9.79M707.08,745.32l-9.79,8.44M697.29,753.76l-11.47,6.08M685.82,759.84l-12.49,3.71M673.33,763.55l-12.83,1.01M660.5,766.93h-7.76M652.74,696.38h7.76M660.5,702.12v-3.38M660.5,698.75h65.82M660.5,695.37v1.01M660.5,698.75h0M660.5,702.12v62.44M660.5,766.93v1.01"/>
  <polygon class="st23" points="425.24 768.28 425.24 820.26 426.59 822.96 429.29 824.31 441.45 824.31 441.45 768.28 425.24 768.28"/>
  <polygon class="st23" points="441.45 768.28 441.45 824.31 481.27 824.31 483.97 822.96 484.99 820.26 484.99 768.28 441.45 768.28"/>
  <polygon class="st23" points="429.29 712.58 426.59 713.6 425.24 716.63 425.24 768.28 441.45 768.28 441.45 712.58 429.29 712.58"/>
  <polygon class="st23" points="441.45 712.58 441.45 768.28 484.99 768.28 484.99 716.63 483.97 713.6 481.27 712.58 441.45 712.58"/>
  <polyline class="st4" points="441.45 712.58 441.45 768.28 441.45 824.31"/>
  <polyline class="st4" points="484.99 768.28 441.45 768.28 425.24 768.28"/>
  <line class="st4" x1="429.29" y1="824.31" x2="426.59" y2="822.96"/>
  <line class="st4" x1="426.59" y1="822.96" x2="425.24" y2="820.26"/>
  <line class="st4" x1="429.29" y1="712.58" x2="426.59" y2="713.6"/>
  <line class="st4" x1="426.59" y1="713.6" x2="425.24" y2="716.63"/>
  <line class="st4" x1="481.27" y1="824.31" x2="483.97" y2="822.96"/>
  <line class="st4" x1="483.97" y1="822.96" x2="484.99" y2="820.26"/>
  <line class="st4" x1="481.27" y1="712.58" x2="483.97" y2="713.6"/>
  <line class="st4" x1="483.97" y1="713.6" x2="484.99" y2="716.63"/>
  <polyline class="st4" points="481.27 712.58 441.45 712.58 429.29 712.58"/>
  <polyline class="st4" points="425.24 716.63 425.24 768.28 425.24 820.25"/>
  <polyline class="st4" points="429.29 824.31 441.45 824.31 481.27 824.31"/>
  <polyline class="st4" points="484.99 820.26 484.99 768.28 484.99 716.64"/>
  <path class="st4" d="M794.17,735.2h1.01M797.54,735.2h2.36M802.27,735.2h2.7M807.33,735.2h2.36M812.05,735.2h2.36M816.78,735.2h2.36M821.5,735.2h2.37M826.23,735.2h2.36M830.96,735.2h2.7M836.02,735.2h2.36M840.74,735.2h1.01M841.76,735.2v-1.01M841.76,731.82v-2.36M841.76,727.1v-2.36M841.76,722.04v-2.36M841.76,717.31v-2.36M841.76,712.59v-2.37M841.76,707.86v-2.36M841.76,703.13v-2.36M841.76,698.41v-2.36M841.76,693.35v-2.36M841.76,688.62v-1.01M794.17,687.61v1.01M794.17,690.98v2.36M794.17,696.05v2.36M794.17,700.77v2.36M794.17,705.5v2.36M794.17,710.22v2.37M794.17,714.95v2.36M794.17,719.67v2.36M794.17,724.74v2.36M794.17,729.46v2.36M794.17,734.19v1.01M714.17,961.68v47.93M666.58,913.75h47.59M714.17,913.75v95.86M785.39,1088.59l-1.35-12.83M784.04,1075.77l-3.71-12.15M780.33,1063.61l-6.08-11.47M774.25,1052.14l-8.1-10.13M766.15,1042.01l-10.13-8.1M756.02,1033.91l-11.48-6.08M744.55,1027.84l-12.15-3.71M732.4,1024.12l-12.83-1.35M720.92,1020.41h-6.75M714.17,1091.29h6.75M719.57,1088.59h65.82"/>
  <path class="st4" d="M719.57,1085.55v3.04M719.57,1088.59v-65.82"/>
  <path class="st4" d="M478.91,655.2v32.4M421.2,687.61v419.21M477.23,1106.82h1.02M714.17,905.99h127.58M841.76,905.99v-218.38M790.79,687.61v-32.06M790.79,655.54h-1.02M709.45,655.54h-1.01M708.43,655.54v32.06M708.43,687.61h-47.93M652.74,687.61h-10.13M642.61,687.61v-32.4M642.61,655.2h-1.01M561.27,655.2h-1.01M479.93,655.2h-1.01"/>
  <path class="st4" d="M859.31,1122.68h-309.85M478.24,1106.82h-1.01M720.92,972.14h112.73M720.92,1020.41v-48.26M720.92,1098.72v-7.43M833.66,1098.72h-112.73M833.66,972.14v126.57"/>
  <path class="st4" d="M833.66,973.16v2.36M403.98,913.75v-7.76M722.27,905.99h-61.77M652.74,905.99v7.76M652.74,913.75h61.43M478.91,671.41v-30.38M478.91,641.03h-23.96M708.43,671.41v-30.38M708.43,641.03h-65.82M642.61,641.03v30.38M708.43,641.03v8.77M708.43,649.8h1.01M789.78,649.8h1.01M790.79,649.8v21.6M790.79,649.8h-1.01M709.44,649.8h-1.01M708.43,655.54v-5.74M642.61,649.8v-8.77M642.61,649.8h-1.01M561.27,649.8h-1.01M479.93,649.8h-1.02M478.91,641.03v8.77M478.91,649.8h1.02M560.26,649.8h1.01M641.6,649.8h1.01M454.95,641.03h-50.97M403.98,1122.68v-481.65"/>
  <g class="st6">
    <path class="st3" d="M99.53,1117.95h6.07M123.16,1197.27l16.2-7.09M134.97,1172.63l4.38,17.55M162.65,1201.32l-27.68-28.69M162.65,1201.32l-39.49-4.05M162.65,1201.32l-23.29-11.14M99.53,878.65h6.07M99.53,1038.3h6.07M99.53,958.64h6.07M99.53,878.65v239.31M1225.86,418.93H42.15"/>
    <path d="M120.92,469.85c-.43.28-.75.67-.96,1.17-.21.5-.32,1.11-.32,1.85,0,.58.11,1.1.32,1.57.21.47.5.82.89,1.07.38.25.78.37,1.21.37s.81-.11,1.15-.34c.33-.22.61-.58.82-1.05.14-.33.32-.92.51-1.8.19-.88.38-1.42.57-1.62.19-.21.42-.32.72-.32.33,0,.62.15.85.45.23.3.36.77.36,1.42s-.13,1.1-.39,1.42c-.26.32-.64.51-1.16.56l.08,1.03c.47-.02.9-.15,1.27-.4.37-.25.66-.6.85-1.06.19-.46.29-.99.29-1.6,0-.55-.09-1.04-.27-1.49-.18-.45-.45-.79-.81-1.02-.35-.23-.74-.35-1.14-.35-.37,0-.71.09-1,.29-.3.19-.55.48-.75.87-.16.3-.33.82-.5,1.57-.18.75-.31,1.23-.39,1.45-.13.34-.29.59-.48.73-.19.15-.41.22-.66.22s-.48-.08-.69-.23c-.21-.16-.38-.39-.49-.7-.12-.32-.18-.68-.18-1.09,0-.46.08-.88.24-1.25.16-.37.37-.64.62-.82.26-.18.59-.29.99-.34l-.09-1.02c-.54.02-1.02.16-1.45.45M119.78,478.56h2.79l1.28,1.33-4.08,2.9v1.42l4.8-3.56,3.26,3.41v-1.46l-4-4.04h4v-1.08h-8.06v1.08Z"/>
    <path d="M125.45,488.08h-.92v5.37h.92v-5.37ZM123,488.08h-.92v5.37h.92v-5.37Z"/>
    <path d="M120.92,498.2c-.43.28-.75.67-.96,1.17-.21.5-.32,1.11-.32,1.85,0,.58.1,1.1.31,1.57.21.47.51.82.89,1.07.38.25.78.37,1.22.37s.81-.11,1.14-.34c.33-.23.61-.58.82-1.05.15-.33.32-.92.51-1.8.2-.88.39-1.42.57-1.62.19-.21.42-.32.71-.32.34,0,.62.15.86.45.23.3.36.77.36,1.43s-.13,1.1-.39,1.42-.64.51-1.15.56l.08,1.03c.47-.02.9-.15,1.27-.4.38-.25.66-.61.85-1.06.19-.46.29-.99.29-1.6,0-.55-.09-1.04-.28-1.49-.18-.45-.45-.79-.8-1.02-.35-.23-.73-.35-1.14-.35-.37,0-.71.1-1,.29-.3.19-.55.48-.75.87-.16.3-.32.82-.5,1.57-.18.75-.31,1.23-.39,1.45-.13.34-.29.59-.48.73-.19.15-.41.22-.66.22s-.48-.07-.69-.23c-.21-.16-.38-.39-.5-.7-.12-.32-.18-.68-.18-1.09,0-.46.08-.88.24-1.25.16-.37.37-.64.63-.82.26-.18.59-.29.99-.34l-.09-1.02c-.54.01-1.02.16-1.45.45"/>
    <path d="M119.78,506.42h2.31l.67.71-2.98,1.95v1.23l3.67-2.48,2.16,2.26v-1.3l-2.38-2.37h4.6v-1h-8.06v1ZM119.78,515.54v1.04c.22-.12.46-.21.7-.25.25-.05.83-.07,1.75-.07h1.32c.44,0,.74-.02.91-.05.27-.06.49-.16.67-.31.18-.15.33-.38.44-.69.12-.31.18-.72.18-1.23s-.07-.95-.21-1.33c-.14-.38-.33-.68-.59-.88-.26-.21-.59-.35-1-.44l-.13.98c.42.11.7.27.87.5.16.22.25.57.25,1.04,0,.5-.11.88-.34,1.14-.16.19-.45.28-.85.28-.03,0-.12,0-.26,0-.13-.38-.25-.98-.34-1.78-.05-.39-.09-.69-.15-.89-.07-.27-.18-.5-.32-.72-.14-.21-.33-.38-.57-.52-.24-.13-.5-.2-.78-.2-.49,0-.89.17-1.2.52-.31.35-.47.85-.47,1.49,0,.39.07.76.19,1.1.13.34.35.7.66,1.07-.27.03-.51.1-.72.2M122.35,515.26c-.44,0-.77-.05-.99-.16-.29-.14-.52-.36-.68-.66-.17-.3-.25-.64-.25-1.03s.09-.68.27-.88c.18-.2.4-.31.66-.31.18,0,.33.05.47.14.14.09.25.22.33.39.07.17.14.46.2.87.1.73.23,1.27.38,1.63h-.36Z"/>
    <path d="M119.78,518.57h2.31l.67.71-2.99,1.95v1.23l3.67-2.48,2.16,2.25v-1.29l-2.37-2.37h4.6v-1h-8.06v1ZM120.63,525.05c0-.15.03-.26.07-.34.05-.08.11-.14.19-.17.08-.04.26-.05.55-.05h3.42v1.01h.77v-1.01h2.04l-.59-.99h-1.45v-.73h-.77v.73h-3.36c-.59,0-.98.04-1.17.12-.18.08-.33.22-.45.42-.11.2-.17.48-.17.84,0,.22.03.47.09.76l.88-.14c-.03-.18-.04-.33-.04-.44"/>
    <path d="M106.62,470.9h3.66v3.82h.95v-3.82h2.5v4.41h.95v-5.49h-8.06v1.08ZM107.76,476.6c-.43.28-.74.67-.96,1.17-.21.5-.32,1.11-.32,1.85,0,.58.1,1.1.31,1.57.21.46.51.82.89,1.07.38.25.79.37,1.22.37s.81-.11,1.14-.34c.33-.23.61-.58.83-1.05.14-.33.32-.92.51-1.8.2-.88.39-1.42.57-1.62.19-.21.43-.32.72-.32.33,0,.62.15.85.45.23.3.35.77.35,1.43s-.13,1.1-.39,1.42c-.26.32-.64.51-1.15.56l.08,1.03c.47-.02.9-.15,1.27-.4.38-.25.66-.61.85-1.06.19-.46.29-.99.29-1.6,0-.55-.09-1.04-.27-1.49-.19-.45-.45-.79-.81-1.02-.35-.23-.73-.35-1.14-.35-.37,0-.7.1-1,.29-.3.19-.55.48-.75.87-.16.3-.32.82-.5,1.57-.18.75-.31,1.23-.39,1.45-.13.34-.29.59-.48.73-.19.15-.41.22-.66.22s-.48-.07-.69-.23c-.21-.16-.38-.39-.5-.7-.12-.32-.18-.68-.18-1.09,0-.46.08-.88.24-1.25.16-.37.37-.64.63-.82.26-.18.59-.29.99-.34l-.09-1.02c-.54.01-1.02.16-1.45.45"/>
    <path d="M112.28,487.07h-.92v5.37h.92v-5.37ZM109.83,487.07h-.92v5.37h.92v-5.37Z"/>
    <polygon points="106.62 498.23 110.28 498.23 110.28 502.05 111.23 502.05 111.23 498.23 113.73 498.23 113.73 502.64 114.68 502.64 114.68 497.15 106.62 497.15 106.62 498.23"/>
    <path d="M107.27,504.46c-.53.51-.79,1.18-.79,2,0,.51.12.99.36,1.43.24.44.57.76,1,.99.43.23,1.02.34,1.77.34.92,0,1.65-.26,2.18-.77.53-.52.79-1.18.79-1.99,0-.73-.22-1.34-.65-1.85-.52-.61-1.32-.91-2.4-.91-.98,0-1.74.25-2.26.76M111.21,505.21c.37.33.55.74.55,1.24s-.18.9-.56,1.24c-.37.33-.92.5-1.64.5-.77,0-1.34-.16-1.71-.49-.38-.33-.56-.75-.56-1.24s.19-.91.56-1.24c.37-.33.93-.49,1.68-.49s1.31.17,1.68.49M106.62,511.12h3.05c.42,0,.81.06,1.16.17.23.07.41.2.54.37.13.18.2.37.2.59,0,.24-.07.49-.21.73l.92.34c.21-.35.32-.69.32-1.03,0-.23-.07-.45-.2-.64-.13-.19-.41-.4-.82-.63h.89v-.9h-5.84v1Z"/>
    <path d="M107.59,517.27c-.19-.26-.29-.57-.29-.94,0-.49.17-.9.51-1.23.34-.33.83-.51,1.48-.55v4.39c.11,0,.2,0,.26,0,.96,0,1.71-.25,2.24-.75.53-.5.8-1.14.8-1.93s-.27-1.47-.81-1.99c-.54-.51-1.31-.77-2.29-.77s-1.69.25-2.21.76c-.53.51-.79,1.19-.79,2.05,0,.68.16,1.24.49,1.69.33.44.79.74,1.39.9l.13-1.03c-.42-.15-.72-.35-.91-.62M111.32,515.13c.31.31.46.7.46,1.16,0,.51-.19.92-.57,1.24-.25.21-.61.33-1.1.38v-3.29c.51.03.91.21,1.22.52M106.96,520.64c-.31.4-.47.99-.47,1.75,0,.46.08.88.24,1.24.16.37.38.65.67.84.29.19.6.29.93.29s.62-.08.84-.24c.23-.16.4-.38.52-.66.12-.28.27-.77.46-1.48.13-.49.22-.78.25-.88.07-.18.16-.3.26-.38.1-.08.22-.12.35-.12.2,0,.38.1.53.29.15.2.23.52.23.98,0,.39-.08.69-.25.9-.17.21-.4.34-.7.39l.13.97c.38-.06.68-.18.9-.34.23-.17.4-.43.54-.77.13-.35.2-.76.2-1.22,0-.31-.04-.6-.12-.87-.08-.27-.18-.48-.29-.63-.14-.21-.33-.37-.55-.49-.22-.12-.46-.18-.72-.18-.29,0-.55.07-.79.22-.23.15-.42.36-.55.64-.14.28-.29.79-.48,1.52-.14.54-.25.89-.33,1.02-.13.2-.31.29-.53.29-.25,0-.47-.11-.65-.33-.19-.22-.28-.56-.28-1.02s.1-.81.31-1.06c.21-.25.51-.41.9-.47l-.16-.99c-.62.11-1.09.37-1.4.77M114.68,526.02h-8.06v1h8.06v-1ZM106.62,532.7v1.04c.22-.13.46-.21.7-.26.24-.04.82-.06,1.74-.06h1.32c.44,0,.75-.02.91-.05.27-.06.5-.17.67-.31.18-.15.33-.38.44-.69.12-.31.18-.72.18-1.22s-.07-.95-.2-1.34c-.14-.38-.33-.68-.59-.88-.25-.21-.59-.35-1-.44l-.13.98c.41.11.7.27.86.5.17.22.25.57.25,1.04,0,.5-.11.88-.33,1.14-.17.19-.45.28-.85.28-.04,0-.12,0-.26,0-.13-.38-.24-.98-.34-1.78-.05-.39-.1-.69-.15-.89-.07-.27-.18-.5-.32-.72-.14-.21-.33-.38-.57-.52-.23-.13-.5-.2-.78-.2-.49,0-.89.17-1.2.52s-.47.85-.47,1.49c0,.39.06.76.19,1.1.13.34.35.7.66,1.07-.28.03-.51.1-.72.2M109.19,532.42c-.44,0-.77-.06-.99-.16-.29-.14-.52-.36-.68-.66-.16-.3-.25-.64-.25-1.03s.09-.68.26-.88c.18-.2.4-.3.66-.3.17,0,.33.04.47.14.14.09.25.22.32.39.08.17.14.46.2.87.1.72.22,1.27.37,1.63h-.36ZM113.24,530.33c-.2.2-.29.43-.29.71s.1.5.29.7c.19.2.43.3.71.3s.52-.1.71-.3.29-.43.29-.7-.1-.5-.29-.7-.42-.3-.69-.3c-.29,0-.54.1-.74.29M114.38,530.63c.11.12.18.25.18.41s-.06.3-.18.42c-.12.11-.26.17-.42.17s-.31-.06-.42-.17c-.12-.12-.18-.25-.18-.41s.06-.3.18-.41.26-.18.44-.18c.16,0,.3.06.42.18M107.59,538.49c-.19-.26-.29-.57-.29-.94,0-.49.17-.9.51-1.23.34-.33.83-.51,1.48-.55v4.4c.11,0,.2,0,.26,0,.96,0,1.71-.25,2.24-.75.53-.5.8-1.14.8-1.93s-.27-1.47-.81-1.99c-.54-.51-1.31-.76-2.29-.76s-1.69.25-2.21.76c-.53.5-.79,1.19-.79,2.05,0,.68.16,1.25.49,1.69.33.44.79.74,1.39.9l.13-1.03c-.42-.15-.72-.36-.91-.62M111.32,536.34c.31.31.46.7.46,1.16,0,.5-.19.92-.57,1.24-.25.21-.61.33-1.1.38v-3.29c.51.04.91.21,1.22.52"/>
    <path d="M107.46,543.27c0-.15.02-.26.07-.34.05-.08.11-.14.19-.17.08-.04.26-.05.55-.05h3.41v1.01h.77v-1.01h2.04l-.59-1h-1.45v-.73h-.77v.73h-3.36c-.59,0-.98.04-1.17.12-.19.08-.33.22-.45.42-.12.2-.17.48-.17.84,0,.22.03.47.09.75l.88-.14c-.03-.18-.04-.33-.04-.44M106.96,547.97c-.32.4-.47.99-.47,1.75,0,.46.08.88.24,1.24.16.36.38.64.68.84.29.2.6.29.93.29s.62-.08.85-.24c.23-.16.4-.38.52-.66.12-.28.27-.77.46-1.48.14-.49.22-.78.25-.88.07-.17.16-.3.27-.38.1-.08.21-.12.35-.12.2,0,.38.1.53.3s.23.52.23.98c0,.39-.08.69-.25.9-.17.21-.4.34-.7.38l.13.98c.38-.07.68-.18.9-.35.22-.17.4-.43.54-.77.13-.35.2-.76.2-1.22,0-.31-.04-.6-.12-.86-.08-.27-.18-.48-.29-.63-.15-.21-.33-.37-.55-.49-.22-.12-.46-.18-.72-.18-.28,0-.55.07-.78.22-.23.15-.42.36-.55.65-.13.28-.29.79-.48,1.52-.14.54-.25.88-.34,1.02-.13.2-.31.29-.53.29-.25,0-.47-.11-.65-.33-.19-.22-.28-.56-.28-1.02s.1-.81.32-1.06c.21-.25.51-.41.9-.46l-.15-.99c-.62.11-1.09.36-1.4.77"/>
    <path d="M106.62,554.69h2.31l.67.7-2.98,1.95v1.23l3.67-2.48,2.16,2.25v-1.29l-2.38-2.36h4.6v-1h-8.06v1ZM106.62,563.47v1.04c.22-.12.46-.21.7-.25.25-.05.83-.07,1.75-.07h1.32c.44,0,.74-.02.91-.05.27-.06.5-.16.67-.31.18-.15.33-.38.45-.69.12-.31.18-.72.18-1.23s-.07-.95-.21-1.33-.33-.68-.59-.88c-.25-.21-.59-.35-1-.44l-.13.98c.41.11.7.27.86.5.16.22.25.57.25,1.04,0,.5-.11.88-.33,1.14-.17.19-.45.28-.85.28-.04,0-.13,0-.26,0-.14-.38-.25-.98-.35-1.78-.05-.39-.09-.69-.15-.89-.07-.27-.18-.5-.32-.72-.14-.21-.33-.38-.57-.52-.23-.13-.49-.2-.78-.2-.49,0-.89.17-1.2.52-.31.35-.47.85-.47,1.49,0,.39.07.76.2,1.1.13.34.35.7.66,1.07-.27.03-.51.1-.72.2M109.19,563.18c-.44,0-.77-.05-.99-.16-.29-.14-.52-.36-.68-.66-.17-.3-.25-.64-.25-1.03s.09-.68.27-.88c.18-.2.4-.31.66-.31.17,0,.33.05.47.14.14.09.25.22.32.39.07.17.14.46.2.87.1.73.23,1.27.38,1.63h-.36Z"/>
    <path d="M107.35,566.42c-.58.39-.86.94-.86,1.64s.27,1.3.82,1.8c.55.5,1.32.75,2.32.75.42,0,.82-.06,1.19-.18.37-.12.68-.28.95-.49.26-.21.47-.48.61-.8.14-.32.22-.67.22-1.03,0-.65-.26-1.19-.79-1.61h2.88v-1h-8.06v.93h.73ZM111.21,566.88c.38.32.56.7.56,1.13s-.18.8-.54,1.11c-.36.31-.93.46-1.69.46s-1.3-.16-1.68-.48c-.38-.32-.56-.7-.56-1.13,0-.53.25-.96.76-1.28.31-.19.82-.29,1.52-.29s1.25.16,1.63.48"/>
    <path d="M107.65,877.22c-.56.45-.83,1.06-.83,1.85,0,.6.16,1.09.48,1.48.31.39.76.68,1.35.88.58.2,1.34.29,2.29.29.8,0,1.44-.06,1.91-.18.47-.12.87-.29,1.2-.51.33-.21.58-.49.76-.82.18-.33.26-.71.26-1.15,0-.59-.16-1.08-.47-1.47-.31-.39-.76-.69-1.34-.88-.58-.2-1.35-.29-2.3-.29-1.51,0-2.6.27-3.27.8M113.65,877.96c.39.28.58.64.58,1.1s-.22.85-.65,1.17c-.44.31-1.32.47-2.65.47s-2.2-.16-2.64-.47c-.44-.31-.66-.7-.66-1.16s.22-.84.65-1.16c.44-.31,1.32-.47,2.64-.47s2.23.17,2.72.51M107.91,1030.92c.18.11.36.25.53.42.18.17.52.55,1.02,1.15.6.72,1.07,1.23,1.42,1.54.35.31.67.53.98.66.31.13.63.2.95.2.64,0,1.17-.23,1.6-.68.43-.46.64-1.07.64-1.86s-.2-1.39-.6-1.85-.97-.72-1.73-.79l-.1,1.03c.5,0,.9.15,1.19.44.29.29.43.68.43,1.15,0,.46-.14.83-.4,1.11-.27.28-.6.42-.99.42s-.77-.16-1.19-.47c-.42-.31-.99-.91-1.71-1.8-.46-.57-.87-1-1.22-1.31-.35-.3-.71-.52-1.07-.66-.22-.08-.45-.12-.69-.11v5.38h.95v-3.99Z"/>
    <path d="M106.96,1037.01h3.03c.53,0,.94.05,1.22.16.29.11.5.28.64.52.15.24.22.5.22.78,0,.37-.11.64-.33.8-.22.16-.55.25-.99.25h-3.79v1h3.39c.6,0,1.04.14,1.31.41.27.28.41.62.41,1.04,0,.23-.05.43-.16.6-.11.17-.25.29-.42.35-.18.07-.46.1-.85.1h-3.68v.99h4.01c.66,0,1.16-.16,1.48-.47.32-.32.48-.76.48-1.35,0-.74-.34-1.35-1.02-1.82.32-.11.57-.31.75-.59.18-.28.27-.64.27-1.08,0-.39-.08-.74-.26-1.05-.17-.31-.41-.55-.69-.74h.82v-.89h-5.84v1Z"/>
    <path d="M115.05,956.12v-.64c-.35-.17-.71-.47-1.08-.89-.37-.42-.68-.9-.94-1.46h-.96c.11.31.29.66.51,1.05.23.39.46.71.68.95h-6.3v1h8.09ZM106.96,960.05h3.03c.53,0,.94.05,1.22.16.29.11.5.28.64.52.15.24.22.5.22.78,0,.37-.11.63-.33.8-.22.16-.55.25-.99.25h-3.79v1h3.39c.6,0,1.04.14,1.31.41.27.28.41.62.41,1.03,0,.23-.05.43-.16.6-.11.17-.25.28-.42.35-.18.07-.46.1-.85.1h-3.68v.99h4.01c.66,0,1.16-.16,1.48-.47.32-.32.48-.76.48-1.35,0-.75-.34-1.36-1.02-1.82.32-.12.57-.31.75-.59.18-.28.27-.64.27-1.07,0-.39-.08-.74-.26-1.05-.17-.31-.41-.55-.69-.74h.82v-.89h-5.84v1Z"/>
    <path d="M106.96,781.3h6.86l-6.86,2.35v.97l6.74,2.36h-6.74v1.04h8.06v-1.45l-5.61-1.94c-.57-.2-1-.34-1.29-.44.27-.08.66-.21,1.19-.39l5.71-1.92v-1.62h-8.06v1.04ZM106.96,793.32v1.04c.23-.13.46-.21.7-.25.24-.04.83-.06,1.74-.06h1.32c.44,0,.74-.02.91-.05.27-.06.49-.16.67-.31.18-.15.33-.38.44-.69.12-.31.18-.72.18-1.23s-.07-.95-.2-1.34c-.14-.39-.34-.68-.59-.88-.25-.21-.59-.35-1-.44l-.13.98c.42.11.7.27.87.49.16.22.25.57.25,1.04,0,.5-.11.88-.34,1.14-.16.19-.45.28-.85.28-.03,0-.12,0-.26,0-.13-.38-.24-.97-.34-1.78-.05-.4-.1-.69-.15-.89-.08-.26-.18-.5-.33-.72-.14-.21-.33-.38-.57-.52-.24-.13-.5-.2-.78-.2-.49,0-.89.17-1.2.52-.32.35-.47.85-.47,1.49,0,.39.07.76.19,1.1.13.34.35.7.66,1.07-.27.03-.51.1-.72.2M109.52,793.04c-.44,0-.77-.06-.99-.16-.29-.14-.52-.36-.69-.66-.16-.3-.25-.64-.25-1.03s.09-.68.26-.88c.18-.2.39-.3.66-.3.17,0,.33.05.47.14.14.09.25.22.32.39.07.17.14.46.2.87.1.72.23,1.27.37,1.63h-.36ZM113.58,790.95c-.2.2-.29.43-.29.71s.09.5.29.7c.19.2.43.29.71.29s.52-.1.71-.29c.2-.2.29-.43.29-.7s-.1-.5-.29-.7c-.2-.2-.42-.3-.69-.3-.29,0-.54.1-.73.29M114.72,791.25c.12.12.17.26.17.41s-.06.3-.17.42c-.12.11-.26.17-.42.17s-.31-.06-.43-.18c-.11-.12-.17-.25-.17-.42s.06-.29.17-.41c.12-.12.26-.18.44-.18.16,0,.3.06.42.18"/>
    <rect x="106.96" y="795.67" width="8.06" height="1"/>
    <path d="M115.05,804.91v-.64c-.35-.18-.71-.47-1.08-.89-.37-.42-.68-.91-.94-1.46h-.96c.11.31.29.66.51,1.05.23.39.46.71.68.95h-6.31v1h8.09ZM112.79,808.12h-1.13v1.14h1.13v-1.14ZM108.08,808.12h-1.13v1.14h1.13v-1.14Z"/>
    <path d="M107.43,811.4c-.41.47-.61,1.07-.61,1.81,0,.9.32,1.61.98,2.14.53.43,1.16.64,1.89.64s1.39-.24,1.88-.73c.49-.49.73-1.09.73-1.8,0-.54-.17-1.05-.5-1.54l2.16.44v3.25h.94v-4.05l-4.14-.79-.12.94c.23.15.42.35.57.61.14.26.21.55.21.87,0,.52-.16.94-.49,1.26-.33.32-.77.48-1.33.48-.59,0-1.07-.17-1.43-.5-.36-.33-.54-.74-.54-1.22,0-.4.13-.74.38-1.03.25-.28.63-.46,1.14-.54l-.09-1.05c-.68.07-1.22.34-1.63.8M107.65,817.82c-.56.45-.83,1.06-.83,1.85,0,.6.16,1.09.47,1.48.32.39.77.68,1.35.88.58.2,1.34.3,2.29.3.8,0,1.43-.06,1.9-.18.47-.12.87-.29,1.2-.51.33-.21.58-.49.76-.82.18-.33.26-.71.26-1.15,0-.59-.16-1.08-.47-1.47-.31-.39-.76-.68-1.34-.88-.58-.2-1.35-.3-2.3-.3-1.51,0-2.6.27-3.27.81M113.65,818.56c.38.27.58.64.58,1.1s-.22.86-.66,1.17-1.32.47-2.64.47-2.2-.15-2.64-.47c-.44-.31-.66-.7-.66-1.16s.22-.84.66-1.16c.44-.31,1.32-.47,2.64-.47s2.23.17,2.72.51"/>
    <polygon class="st23" points="106.96 1168.25 129.57 1179.38 122.82 1193.9 99.87 1182.76 106.96 1168.25"/>
    <polygon points="109.71 1173.99 121.05 1179.48 106.02 1181.6 105.07 1183.57 119.51 1190.56 120.4 1188.72 109.06 1183.23 124.08 1181.11 125.04 1179.14 110.6 1172.15 109.71 1173.99"/>
    <path d="M107.45,1110.13c-.42.47-.63,1.06-.63,1.78,0,.79.25,1.45.74,1.97.49.52,1.08.77,1.79.77.52,0,.95-.13,1.3-.4.35-.27.58-.64.68-1.12.17.37.4.65.68.84.29.19.61.28.95.28.36,0,.71-.1,1.04-.3.32-.2.58-.49.77-.86.19-.38.28-.78.28-1.22,0-.65-.18-1.18-.55-1.62-.36-.43-.88-.71-1.54-.83l-.18,1c.48.07.85.24,1.09.5.24.26.36.58.36.97s-.12.71-.36.96c-.24.25-.54.38-.9.38-.46,0-.79-.17-1.02-.51-.22-.34-.33-.72-.33-1.15,0-.04,0-.09,0-.16l-.87-.11c.07.28.11.52.11.7,0,.46-.15.84-.44,1.15-.29.3-.67.45-1.13.45s-.87-.16-1.2-.48c-.32-.33-.48-.72-.48-1.19,0-.39.12-.73.37-1.01.25-.28.65-.47,1.21-.59l-.13-1c-.67.06-1.22.33-1.64.8M106.96,1116.66h3.03c.53,0,.94.05,1.22.16.29.1.5.28.64.52.15.24.22.5.22.78,0,.37-.11.63-.33.8-.22.17-.55.24-.99.24h-3.79v1h3.39c.6,0,1.04.14,1.31.41.27.28.41.62.41,1.03,0,.23-.05.43-.16.6-.11.17-.25.28-.42.35-.18.07-.46.1-.85.1h-3.68v.99h4.01c.66,0,1.16-.16,1.48-.47.32-.31.48-.76.48-1.35,0-.75-.34-1.35-1.02-1.82.32-.11.57-.31.75-.59.18-.28.27-.64.27-1.08,0-.39-.08-.74-.26-1.05-.17-.31-.41-.55-.69-.74h.82v-.89h-5.84v1Z"/>
    <rect class="st23" x="1170.51" y="440.54" width="18.9" height="111.72"/>
    <path d="M1185.96,446.82v-.95c-.52-.26-1.05-.7-1.61-1.32-.55-.62-1.03-1.34-1.41-2.17h-1.43c.17.46.43.98.77,1.56.34.58.68,1.05,1.02,1.4h-9.41v1.48h12.07ZM1175.56,451.53h-1.68v1.69h1.68v-1.69ZM1175.59,456.18c-.64.42-1.11,1-1.43,1.74-.32.74-.47,1.65-.47,2.74,0,.86.16,1.63.47,2.32.31.69.76,1.21,1.32,1.59.57.37,1.17.55,1.81.55s1.22-.17,1.71-.5c.49-.33.9-.85,1.22-1.56.22-.48.47-1.37.77-2.67.29-1.3.58-2.1.86-2.41.28-.31.63-.47,1.07-.47.5,0,.92.22,1.27.66.36.44.53,1.14.53,2.11s-.19,1.63-.58,2.1c-.39.47-.96.75-1.72.84l.12,1.53c.7-.03,1.34-.22,1.9-.59.56-.37.98-.89,1.27-1.58.29-.68.43-1.47.43-2.37,0-.81-.13-1.55-.41-2.21-.27-.67-.67-1.17-1.2-1.51-.53-.35-1.1-.52-1.71-.52-.55,0-1.05.14-1.5.42-.44.29-.82.71-1.12,1.29-.23.45-.49,1.22-.75,2.33-.27,1.11-.46,1.82-.59,2.15-.19.5-.43.87-.71,1.09-.28.22-.61.33-.99.33s-.72-.12-1.03-.34c-.31-.23-.56-.58-.74-1.04-.18-.47-.27-1.01-.27-1.61,0-.69.12-1.31.36-1.85.24-.55.55-.96.94-1.22.38-.26.88-.43,1.48-.5l-.13-1.51c-.81.02-1.52.24-2.16.66M1173.88,473.2v1.55c.33-.19.68-.31,1.04-.37.36-.06,1.23-.1,2.6-.1h1.97c.66,0,1.11-.02,1.36-.07.4-.09.74-.24,1-.46.26-.22.48-.56.66-1.03.17-.47.26-1.07.26-1.82s-.1-1.41-.31-1.98c-.21-.57-.5-1.01-.88-1.31-.38-.3-.88-.52-1.5-.65l-.2,1.45c.62.16,1.05.4,1.29.74.24.33.36.85.36,1.54,0,.75-.17,1.31-.5,1.69-.24.28-.67.42-1.27.42-.05,0-.18,0-.39,0-.2-.56-.37-1.45-.51-2.64-.07-.59-.14-1.03-.22-1.32-.11-.39-.27-.75-.48-1.06-.21-.32-.5-.57-.85-.76-.35-.2-.74-.29-1.17-.29-.73,0-1.33.26-1.8.77-.46.52-.7,1.26-.7,2.22,0,.58.1,1.12.29,1.63.19.51.52,1.04.98,1.59-.41.05-.77.14-1.07.3M1177.71,472.78c-.65,0-1.14-.08-1.47-.24-.44-.21-.77-.54-1.02-.98-.25-.45-.37-.95-.37-1.52s.13-1.01.39-1.31c.26-.3.59-.45.98-.45.26,0,.49.07.7.21.21.14.37.33.48.59.11.25.21.68.3,1.29.15,1.07.34,1.88.55,2.42h-.54ZM1185.91,476.63h-12.02v1.48h12.02v-1.48ZM1182.59,480.9h-1.68v1.69h1.68v-1.69ZM1175.56,480.9h-1.68v1.69h1.68v-1.69ZM1185.16,496.21c.53-.61.79-1.38.79-2.33,0-1.27-.46-2.29-1.38-3.04-1.05-.86-2.75-1.29-5.07-1.29-2.08,0-3.57.39-4.48,1.17-.91.78-1.36,1.79-1.36,3.02,0,.73.17,1.37.51,1.94.35.57.84,1.02,1.49,1.34.65.33,1.35.49,2.11.49,1.15,0,2.08-.35,2.81-1.04.73-.69,1.09-1.54,1.09-2.52,0-.57-.13-1.11-.39-1.62-.26-.52-.67-.95-1.21-1.31,1.2,0,2.13.15,2.78.42.65.27,1.15.64,1.49,1.11.26.35.39.77.39,1.24,0,.59-.21,1.08-.63,1.48-.26.24-.68.43-1.26.56l.12,1.47c.94-.12,1.67-.49,2.2-1.09M1179.66,491.95c.48.46.72,1.03.72,1.7s-.24,1.23-.72,1.68c-.48.44-1.13.66-1.96.66s-1.55-.22-2.05-.67c-.5-.45-.76-.99-.76-1.61,0-.43.12-.84.36-1.23.24-.39.6-.69,1.06-.91.46-.22.95-.32,1.46-.32.77,0,1.4.23,1.88.7M1175.56,499.9h-1.68v1.69h1.68v-1.69ZM1173.88,508.97c0,.77.07,1.42.2,1.95.13.53.33.97.6,1.32.26.35.64.65,1.12.89.48.24,1.01.36,1.57.36.7,0,1.31-.19,1.82-.59.51-.39.88-.95,1.09-1.68.28.57.65.99,1.1,1.27.46.28.94.42,1.45.42.55,0,1.08-.16,1.59-.48.51-.32.88-.75,1.12-1.31.24-.56.36-1.3.36-2.22v-4.52h-12.02v4.6ZM1184.49,505.97v2.41c0,.87-.06,1.48-.17,1.84-.11.35-.32.63-.62.82-.3.19-.65.29-1.05.29-.42,0-.77-.1-1.05-.31-.28-.21-.48-.51-.6-.92-.09-.31-.14-.81-.14-1.52v-2.61h3.63ZM1179.44,505.97v2.79c0,.77-.07,1.36-.2,1.76s-.37.73-.7.96c-.33.23-.72.35-1.17.35-.38,0-.72-.08-1.01-.24-.29-.16-.52-.36-.67-.61-.16-.25-.26-.55-.33-.92-.04-.21-.05-.57-.05-1.09v-3h4.13ZM1175.56,515.99h-1.68v1.69h1.68v-1.69ZM1185.96,525.51v-.95c-.52-.26-1.05-.7-1.61-1.32-.55-.62-1.03-1.34-1.41-2.17h-1.43c.17.46.43.98.77,1.56.34.58.68,1.05,1.02,1.4h-9.41v1.48h12.07ZM1175.56,530.22h-1.68v1.69h1.68v-1.69ZM1185.96,539.74v-.95c-.52-.26-1.05-.7-1.61-1.32-.55-.62-1.03-1.34-1.41-2.17h-1.43c.17.46.43.98.77,1.56.34.58.68,1.05,1.02,1.4h-9.41v1.48h12.07Z"/>
    <path d="M1175.3,545.38c.27.17.53.37.8.62.27.25.77.82,1.52,1.71.9,1.06,1.6,1.83,2.12,2.29.51.46,1,.78,1.47.98s.94.29,1.42.29c.95,0,1.74-.34,2.38-1.01.64-.67.96-1.59.96-2.75s-.29-2.06-.89-2.74c-.59-.68-1.46-1.07-2.59-1.18l-.16,1.52c.76,0,1.35.22,1.77.65.43.43.64,1,.64,1.71,0,.68-.2,1.22-.6,1.64-.4.42-.9.63-1.48.63s-1.15-.23-1.78-.69c-.62-.46-1.47-1.35-2.54-2.66-.69-.84-1.3-1.49-1.82-1.94-.53-.45-1.06-.77-1.6-.98-.33-.12-.67-.18-1.03-.17v7.98h1.42v-5.92Z"/>
    <rect class="st23" x="1146.21" y="440.54" width="18.9" height="111.72"/>
    <path d="M1151,443.1c.27.17.53.38.8.62.26.25.77.83,1.51,1.71.9,1.06,1.6,1.83,2.12,2.28.51.46,1,.79,1.47.98.46.2.94.3,1.42.3.95,0,1.74-.34,2.38-1.01.64-.68.96-1.59.96-2.75s-.3-2.06-.89-2.74c-.6-.68-1.46-1.07-2.59-1.18l-.16,1.52c.76,0,1.35.22,1.77.65.43.43.64,1,.64,1.71,0,.67-.2,1.22-.6,1.64-.4.42-.9.63-1.48.63s-1.15-.23-1.77-.69c-.62-.46-1.48-1.34-2.55-2.66-.69-.85-1.3-1.49-1.82-1.94-.52-.45-1.06-.77-1.6-.97-.33-.13-.67-.19-1.02-.18v7.98h1.42v-5.92ZM1151.26,451.53h-1.68v1.69h1.68v-1.69ZM1151.28,456.18c-.64.42-1.11,1-1.43,1.74-.32.74-.47,1.65-.47,2.74,0,.86.16,1.63.47,2.32.31.69.76,1.21,1.32,1.59.57.37,1.17.55,1.81.55s1.22-.17,1.71-.5c.49-.33.9-.85,1.23-1.56.22-.48.47-1.37.77-2.67.29-1.3.58-2.1.86-2.41.28-.31.63-.47,1.07-.47.5,0,.92.22,1.28.66.35.44.53,1.14.53,2.11s-.2,1.63-.58,2.1c-.39.47-.96.75-1.72.84l.12,1.53c.7-.03,1.34-.22,1.9-.59.56-.37.98-.89,1.27-1.58s.43-1.47.43-2.37c0-.81-.14-1.55-.41-2.21-.27-.67-.67-1.17-1.2-1.51-.53-.35-1.09-.52-1.7-.52-.55,0-1.05.14-1.5.42-.44.29-.82.71-1.12,1.29-.23.45-.49,1.22-.75,2.33-.27,1.11-.46,1.82-.59,2.15-.19.5-.43.87-.71,1.09-.28.22-.61.33-.99.33s-.72-.12-1.03-.34c-.31-.23-.56-.58-.74-1.04-.18-.47-.27-1.01-.27-1.61,0-.69.12-1.31.35-1.85.24-.55.55-.96.94-1.22.38-.26.88-.43,1.48-.5l-.13-1.51c-.8.02-1.52.24-2.16.66M1149.58,473.2v1.55c.33-.19.68-.31,1.04-.37.36-.06,1.23-.1,2.6-.1h1.97c.65,0,1.11-.02,1.36-.07.4-.09.74-.24,1-.46.26-.22.48-.56.66-1.03.17-.47.26-1.07.26-1.82s-.1-1.41-.31-1.98c-.21-.57-.5-1.01-.88-1.31-.38-.3-.88-.52-1.5-.65l-.2,1.45c.61.16,1.05.4,1.29.74.24.33.36.85.36,1.54,0,.75-.17,1.31-.5,1.69-.24.28-.67.42-1.27.42-.06,0-.18,0-.39,0-.2-.56-.37-1.45-.51-2.64-.07-.59-.14-1.03-.22-1.32-.11-.39-.27-.75-.48-1.06-.21-.32-.49-.57-.85-.76-.35-.2-.74-.29-1.17-.29-.73,0-1.33.26-1.79.77-.47.52-.7,1.26-.7,2.22,0,.58.1,1.12.29,1.63.19.51.52,1.04.98,1.59-.41.05-.77.14-1.07.3M1153.41,472.78c-.65,0-1.14-.08-1.48-.24-.43-.21-.77-.54-1.02-.98-.25-.45-.37-.95-.37-1.52s.13-1.01.39-1.31c.26-.3.59-.45.98-.45.26,0,.49.07.7.21.21.14.37.33.48.59.11.25.21.68.3,1.29.15,1.07.34,1.88.55,2.42h-.54ZM1161.61,476.63h-12.02v1.48h12.02v-1.48ZM1158.29,480.9h-1.68v1.69h1.68v-1.69ZM1151.26,480.9h-1.68v1.69h1.68v-1.69ZM1160.86,496.21c.53-.61.79-1.38.79-2.33,0-1.27-.46-2.29-1.38-3.04-1.06-.86-2.75-1.29-5.07-1.29-2.08,0-3.57.39-4.48,1.17-.91.78-1.36,1.79-1.36,3.02,0,.73.17,1.37.51,1.94.35.57.84,1.02,1.49,1.34.65.33,1.35.49,2.11.49,1.15,0,2.08-.35,2.81-1.04.72-.69,1.09-1.54,1.09-2.52,0-.57-.13-1.11-.39-1.62-.26-.52-.67-.95-1.21-1.31,1.2,0,2.13.15,2.78.42.65.27,1.15.64,1.48,1.11.27.35.4.77.4,1.24,0,.59-.21,1.08-.63,1.48-.26.24-.68.43-1.26.56l.12,1.47c.94-.12,1.67-.49,2.2-1.09M1155.36,491.95c.48.46.72,1.03.72,1.7s-.24,1.23-.72,1.68c-.48.44-1.13.66-1.96.66s-1.55-.22-2.05-.67c-.5-.45-.76-.99-.76-1.61,0-.43.12-.84.36-1.23.24-.39.6-.69,1.06-.91.46-.22.95-.32,1.46-.32.78,0,1.41.23,1.88.7M1151.26,499.9h-1.68v1.69h1.68v-1.69ZM1149.58,508.97c0,.77.07,1.42.2,1.95.13.53.33.97.6,1.32.26.35.63.65,1.12.89.48.24,1.01.36,1.57.36.7,0,1.31-.19,1.82-.59.51-.39.88-.95,1.09-1.68.28.57.65.99,1.1,1.27.46.28.94.42,1.45.42.55,0,1.08-.16,1.59-.48.51-.32.88-.75,1.12-1.31.24-.56.36-1.3.36-2.22v-4.52h-12.02v4.6ZM1160.19,505.97v2.41c0,.87-.06,1.48-.17,1.84-.11.35-.32.63-.62.82-.3.19-.65.29-1.05.29-.42,0-.77-.1-1.05-.31-.28-.21-.48-.51-.6-.92-.09-.31-.14-.81-.14-1.52v-2.61h3.63ZM1155.13,505.97v2.79c0,.77-.07,1.36-.2,1.76-.13.41-.37.73-.7.96-.33.23-.72.35-1.17.35-.38,0-.72-.08-1.01-.24-.29-.16-.52-.36-.67-.61-.16-.25-.26-.55-.33-.92-.04-.21-.06-.57-.06-1.09v-3h4.13ZM1151.26,515.99h-1.68v1.69h1.68v-1.69ZM1151,521.8c.27.16.53.37.8.62.26.25.77.82,1.51,1.71.9,1.06,1.6,1.82,2.12,2.28.51.46,1,.79,1.47.98.46.2.94.3,1.42.3.95,0,1.74-.34,2.38-1.01.64-.68.96-1.59.96-2.75s-.3-2.06-.89-2.74c-.6-.68-1.46-1.07-2.59-1.18l-.16,1.52c.76,0,1.35.22,1.77.65.43.43.64,1,.64,1.71,0,.67-.2,1.22-.6,1.64-.4.42-.9.63-1.48.63s-1.15-.23-1.77-.69c-.62-.46-1.48-1.35-2.55-2.66-.69-.85-1.3-1.49-1.82-1.94-.52-.45-1.06-.77-1.6-.97-.33-.13-.67-.19-1.02-.17v7.97h1.42v-5.92ZM1151.26,530.22h-1.68v1.69h1.68v-1.69ZM1161.66,539.74v-.95c-.52-.26-1.05-.7-1.61-1.32-.55-.62-1.02-1.34-1.41-2.17h-1.43c.17.46.43.98.77,1.56.34.58.68,1.05,1.02,1.4h-9.41v1.48h12.07Z"/>
    <path d="M1151,545.38c.27.17.53.37.8.62.27.25.77.82,1.51,1.71.9,1.06,1.6,1.83,2.12,2.29.52.46,1,.78,1.47.98.47.2.94.29,1.42.29.95,0,1.74-.34,2.38-1.01.64-.67.96-1.59.96-2.75s-.3-2.06-.89-2.74c-.59-.68-1.46-1.07-2.59-1.18l-.16,1.52c.76,0,1.35.22,1.77.65.43.43.64,1,.64,1.71,0,.68-.2,1.22-.6,1.64-.4.42-.9.63-1.48.63s-1.15-.23-1.77-.69-1.47-1.35-2.55-2.66c-.69-.84-1.3-1.49-1.82-1.94-.53-.45-1.06-.77-1.6-.98-.33-.12-.67-.18-1.03-.17v7.98h1.42v-5.92Z"/>
    <rect class="st23" x="1122.58" y="440.54" width="18.9" height="111.72"/>
    <path d="M1126.68,442.44c-.63.7-.95,1.58-.95,2.64,0,1.18.36,2.15,1.1,2.92.73.77,1.62,1.15,2.67,1.15.78,0,1.43-.2,1.94-.59.52-.4.86-.95,1.02-1.66.25.55.59.96,1.02,1.24.43.28.9.42,1.42.42.55,0,1.06-.15,1.55-.44.49-.3.87-.72,1.15-1.27.28-.56.42-1.16.42-1.82,0-.95-.27-1.75-.82-2.4-.54-.64-1.31-1.05-2.3-1.23l-.26,1.48c.72.11,1.26.35,1.63.74.36.38.54.86.54,1.44s-.18,1.05-.53,1.42c-.35.37-.81.55-1.35.55-.68,0-1.19-.25-1.52-.76-.33-.5-.49-1.07-.49-1.7,0-.06,0-.14.02-.24l-1.3-.17c.11.42.16.76.16,1.04,0,.68-.22,1.25-.66,1.7-.44.44-1,.67-1.68.67s-1.3-.24-1.79-.72c-.48-.48-.72-1.07-.72-1.76,0-.59.18-1.08.56-1.49.37-.41.97-.7,1.81-.87l-.2-1.48c-1,.1-1.82.5-2.44,1.2M1127.63,451.53h-1.68v1.69h1.68v-1.69ZM1127.66,456.18c-.64.42-1.11,1-1.43,1.74-.32.74-.47,1.65-.47,2.74,0,.86.16,1.63.47,2.32.31.69.75,1.21,1.32,1.59.57.37,1.17.55,1.81.55s1.22-.17,1.71-.5c.49-.33.9-.85,1.22-1.56.22-.48.47-1.37.77-2.67.29-1.3.58-2.1.86-2.41.28-.31.63-.47,1.07-.47.5,0,.92.22,1.27.66.36.44.53,1.14.53,2.11s-.19,1.63-.58,2.1c-.39.47-.96.75-1.72.84l.11,1.53c.7-.03,1.34-.22,1.9-.59.56-.37.98-.89,1.27-1.58.29-.68.43-1.47.43-2.37,0-.81-.13-1.55-.41-2.21-.27-.67-.67-1.17-1.2-1.51-.53-.35-1.1-.52-1.71-.52-.55,0-1.05.14-1.5.42-.44.29-.82.71-1.12,1.29-.23.45-.49,1.22-.75,2.33-.27,1.11-.46,1.82-.59,2.15-.19.5-.43.87-.71,1.09-.28.22-.61.33-.99.33s-.72-.12-1.03-.34c-.31-.23-.56-.58-.74-1.04-.18-.47-.27-1.01-.27-1.61,0-.69.12-1.31.36-1.85.24-.55.55-.96.94-1.22.38-.26.88-.43,1.48-.5l-.13-1.51c-.81.02-1.52.24-2.16.66M1125.95,473.2v1.55c.33-.19.68-.31,1.04-.37.36-.06,1.23-.1,2.6-.1h1.97c.66,0,1.11-.02,1.36-.07.4-.09.74-.24,1-.46.26-.22.48-.56.66-1.03.18-.47.26-1.07.26-1.82s-.1-1.41-.31-1.98c-.21-.57-.5-1.01-.88-1.31-.38-.3-.88-.52-1.5-.65l-.2,1.45c.62.16,1.05.4,1.29.74.24.33.36.85.36,1.54,0,.75-.17,1.31-.5,1.69-.24.28-.67.42-1.27.42-.05,0-.18,0-.39,0-.2-.56-.36-1.45-.51-2.64-.07-.59-.14-1.03-.22-1.32-.11-.39-.27-.75-.48-1.06-.21-.32-.5-.57-.85-.76-.35-.2-.74-.29-1.17-.29-.73,0-1.33.26-1.8.77-.46.52-.7,1.26-.7,2.22,0,.58.1,1.12.29,1.63.19.51.52,1.04.98,1.59-.41.05-.77.14-1.07.3M1129.78,472.78c-.65,0-1.14-.08-1.47-.24-.43-.21-.77-.54-1.02-.98-.25-.45-.37-.95-.37-1.52s.13-1.01.39-1.31c.26-.3.59-.45.98-.45.26,0,.49.07.7.21.21.14.37.33.48.59.11.25.21.68.3,1.29.15,1.07.34,1.88.56,2.42h-.54ZM1137.98,476.63h-12.03v1.48h12.03v-1.48ZM1134.66,480.9h-1.68v1.69h1.68v-1.69ZM1127.63,480.9h-1.68v1.69h1.68v-1.69ZM1137.23,496.21c.53-.61.79-1.38.79-2.33,0-1.27-.46-2.29-1.38-3.04-1.05-.86-2.75-1.29-5.07-1.29-2.08,0-3.57.39-4.48,1.17-.9.78-1.36,1.79-1.36,3.02,0,.73.17,1.37.51,1.94.35.57.84,1.02,1.49,1.34.65.33,1.35.49,2.11.49,1.15,0,2.08-.35,2.81-1.04.73-.69,1.09-1.54,1.09-2.52,0-.57-.13-1.11-.39-1.62-.26-.52-.67-.95-1.21-1.31,1.2,0,2.13.15,2.78.42.65.27,1.15.64,1.49,1.11.26.35.39.77.39,1.24,0,.59-.21,1.08-.63,1.48-.26.24-.68.43-1.26.56l.11,1.47c.94-.12,1.67-.49,2.2-1.09M1131.73,491.95c.48.46.72,1.03.72,1.7s-.24,1.23-.72,1.68c-.48.44-1.13.66-1.96.66s-1.55-.22-2.05-.67c-.5-.45-.76-.99-.76-1.61,0-.43.12-.84.36-1.23.24-.39.6-.69,1.06-.91.46-.22.95-.32,1.46-.32.77,0,1.4.23,1.88.7M1127.63,499.9h-1.68v1.69h1.68v-1.69ZM1125.95,508.97c0,.77.07,1.42.2,1.95.13.53.33.97.6,1.32.26.35.64.65,1.12.89.48.24,1.01.36,1.57.36.7,0,1.31-.19,1.82-.59.51-.39.88-.95,1.09-1.68.28.57.65.99,1.1,1.27.46.28.94.42,1.45.42.55,0,1.08-.16,1.59-.48.51-.32.88-.75,1.12-1.31.24-.56.36-1.3.36-2.22v-4.52h-12.02v4.6ZM1136.56,505.97v2.41c0,.87-.06,1.48-.17,1.84-.11.35-.32.63-.62.82-.3.19-.65.29-1.05.29-.42,0-.77-.1-1.05-.31-.28-.21-.48-.51-.6-.92-.09-.31-.14-.81-.14-1.52v-2.61h3.63ZM1131.51,505.97v2.79c0,.77-.07,1.36-.2,1.76s-.37.73-.7.96c-.33.23-.72.35-1.17.35-.38,0-.72-.08-1.01-.24-.29-.16-.52-.36-.67-.61-.16-.25-.26-.55-.33-.92-.04-.21-.06-.57-.06-1.09v-3h4.13ZM1127.63,515.99h-1.68v1.69h1.68v-1.69ZM1126.68,521.14c-.63.7-.95,1.58-.95,2.64,0,1.18.36,2.15,1.1,2.92.73.77,1.62,1.15,2.67,1.15.78,0,1.43-.2,1.94-.59.52-.4.86-.95,1.02-1.67.25.55.59.96,1.02,1.24s.9.42,1.42.42c.55,0,1.06-.15,1.55-.44.49-.29.87-.72,1.15-1.27.28-.55.42-1.16.42-1.82,0-.96-.27-1.75-.82-2.4-.54-.64-1.31-1.05-2.3-1.23l-.26,1.48c.72.11,1.26.35,1.63.74.36.38.54.87.54,1.44s-.18,1.05-.53,1.42c-.35.37-.81.55-1.35.55-.68,0-1.19-.25-1.52-.76-.33-.5-.49-1.07-.49-1.7,0-.06,0-.14.02-.24l-1.3-.17c.11.42.16.76.16,1.05,0,.68-.22,1.25-.66,1.7-.44.44-1,.66-1.68.66s-1.3-.24-1.79-.72c-.48-.48-.72-1.07-.72-1.76,0-.59.18-1.09.56-1.49.37-.41.97-.7,1.81-.87l-.2-1.48c-1,.1-1.82.5-2.44,1.2M1127.63,530.22h-1.68v1.69h1.68v-1.69ZM1138.03,539.74v-.95c-.52-.26-1.05-.7-1.61-1.32-.55-.62-1.02-1.34-1.41-2.17h-1.43c.17.46.42.98.76,1.56.34.58.68,1.05,1.02,1.4h-9.41v1.48h12.07Z"/>
    <path d="M1127.37,545.38c.27.17.53.37.8.62.27.25.77.82,1.51,1.71.9,1.06,1.6,1.83,2.12,2.29.52.46,1,.78,1.47.98s.94.29,1.42.29c.95,0,1.74-.34,2.38-1.01.64-.67.96-1.59.96-2.75s-.29-2.06-.89-2.74c-.59-.68-1.46-1.07-2.59-1.18l-.16,1.52c.76,0,1.35.22,1.77.65.43.43.64,1,.64,1.71,0,.68-.2,1.22-.61,1.64-.4.42-.9.63-1.48.63s-1.15-.23-1.77-.69-1.47-1.35-2.55-2.66c-.69-.84-1.3-1.49-1.82-1.94-.53-.45-1.06-.77-1.6-.98-.33-.12-.67-.18-1.03-.17v7.98h1.42v-5.92Z"/>
    <line class="st2" x1="841.76" y1="913.75" x2="722.27" y2="965.73"/>
    <line class="st2" x1="841.76" y1="965.73" x2="722.27" y2="913.75"/>
    <line class="st4" x1="714.17" y1="1106.82" x2="549.46" y2="1106.82"/>
  </g>
  <path class="st5" d="M693.41,537.24"/>
  <rect class="st25" x="841.76" y="687.6" width="17.55" height="427.14"/>
  <rect class="st25" x="833.66" y="965.73" width="15.26" height="143.29"/>
  <line class="st1" x1="837.79" y1="781.2" x2="838.03" y2="901.09"/>
</svg>