<?xml version="1.0" encoding="UTF-8"?>
<svg id="Layer_1" xmlns="http://www.w3.org/2000/svg" xmlns:xlink="http://www.w3.org/1999/xlink" version="1.1" viewBox="0 0 1200 1697.14">
  <!-- Generator: Adobe Illustrator 29.6.0, SVG Export Plug-In . SVG Version: 2.1.1 Build 207)  -->
  <defs>
    <style>
      .st0, .st1, .st2, .st3, .st4 {
        fill: none;
      }

      .st1 {
        stroke: #0d0e1c;
      }

      .st1, .st2, .st4 {
        stroke-width: .08px;
      }

      .st1, .st3, .st4 {
        stroke-linecap: round;
        stroke-linejoin: round;
      }

      .st2 {
        stroke-miterlimit: 10;
      }

      .st2, .st3, .st4 {
        stroke: #000;
      }

      .st3 {
        stroke-width: .14px;
      }

      .st5 {
        clip-path: url(#clippath-11);
      }

      .st6 {
        clip-path: url(#clippath-16);
      }

      .st7 {
        clip-path: url(#clippath-10);
      }

      .st8 {
        clip-path: url(#clippath-15);
      }

      .st9 {
        clip-path: url(#clippath-13);
      }

      .st10 {
        clip-path: url(#clippath-14);
      }

      .st11 {
        clip-path: url(#clippath-12);
      }

      .st12 {
        clip-path: url(#clippath-1);
      }

      .st13 {
        clip-path: url(#clippath-3);
      }

      .st14 {
        clip-path: url(#clippath-4);
      }

      .st15 {
        clip-path: url(#clippath-2);
      }

      .st16 {
        clip-path: url(#clippath-7);
      }

      .st17 {
        clip-path: url(#clippath-6);
      }

      .st18 {
        clip-path: url(#clippath-9);
      }

      .st19 {
        clip-path: url(#clippath-8);
      }

      .st20 {
        clip-path: url(#clippath-5);
      }

      .st21 {
        fill: #fff;
      }

      .st22 {
        fill: #ece9e5;
      }

      .st23 {
        fill: #302c35;
      }

      .st24 {
        clip-path: url(#clippath);
      }
    </style>
    <clipPath id="clippath">
      <rect class="st0" x="685.63" y="762.35" width="72.57" height="159.65"/>
    </clipPath>
    <clipPath id="clippath-1">
      <rect class="st0" x="240.79" y="441.48" width="788.41" height="814.19"/>
    </clipPath>
    <clipPath id="clippath-2">
      <rect class="st0" x="652.34" y="989.92" width="28.61" height="39.22"/>
    </clipPath>
    <clipPath id="clippath-3">
      <rect class="st0" x="240.79" y="441.48" width="788.41" height="814.19"/>
    </clipPath>
    <clipPath id="clippath-4">
      <rect class="st0" x="240.79" y="441.48" width="788.41" height="814.19"/>
    </clipPath>
    <clipPath id="clippath-5">
      <rect class="st0" x="723.43" y="1073.67" width="27.51" height="37.12"/>
    </clipPath>
    <clipPath id="clippath-6">
      <rect class="st0" x="240.79" y="441.48" width="788.41" height="814.19"/>
    </clipPath>
    <clipPath id="clippath-7">
      <rect class="st0" x="240.79" y="441.48" width="788.41" height="814.19"/>
    </clipPath>
    <clipPath id="clippath-8">
      <rect class="st0" x="465.81" y="755.31" width="115.57" height="115.57"/>
    </clipPath>
    <clipPath id="clippath-9">
      <rect class="st0" x="240.79" y="441.48" width="788.41" height="814.19"/>
    </clipPath>
    <clipPath id="clippath-10">
      <rect class="st0" x="240.79" y="441.48" width="788.41" height="814.19"/>
    </clipPath>
    <clipPath id="clippath-11">
      <rect class="st0" x="240.79" y="441.48" width="788.41" height="814.19"/>
    </clipPath>
    <clipPath id="clippath-12">
      <rect class="st0" x="240.79" y="441.48" width="788.41" height="814.19"/>
    </clipPath>
    <clipPath id="clippath-13">
      <rect class="st0" x="240.79" y="441.48" width="788.41" height="814.19"/>
    </clipPath>
    <clipPath id="clippath-14">
      <rect class="st0" x="240.79" y="441.48" width="788.41" height="814.19"/>
    </clipPath>
    <clipPath id="clippath-15">
      <rect class="st0" x="240.79" y="441.48" width="788.41" height="814.19"/>
    </clipPath>
    <clipPath id="clippath-16">
      <rect class="st0" x="240.79" y="441.48" width="788.41" height="814.19"/>
    </clipPath>
  </defs>
  <rect class="st22" x="416.19" y="658.84" width="360.15" height="481.65"/>
  <rect class="st22" x="479.65" y="571.09" width="249.43" height="118.13"/>
  <rect class="st21" x="452.26" y="904.9" width="50.34" height="221.69"/>
  <rect class="st21" x="411.81" y="732.68" width="20.55" height="165.13"/>
  <rect class="st21" x="502.77" y="663.23" width="200.66" height="11.47"/>
  <rect class="st23" x="703.43" y="658.84" width="72.91" height="46.58"/>
  <rect class="st23" x="455.01" y="1124.63" width="95.86" height="15.87"/>
  <rect class="st23" x="622.43" y="1124.63" width="153.91" height="15.87"/>
  <rect class="st23" x="758.79" y="705.42" width="17.55" height="419.21"/>
  <rect class="st23" x="438.81" y="897.78" width="16.2" height="242.71"/>
  <rect class="st23" x="479.65" y="571.09" width="4.05" height="87.75"/>
  <rect class="st23" x="725.03" y="571.09" width="4.05" height="87.75"/>
  <rect class="st23" x="481.68" y="571.09" width="245.38" height="3.71"/>
  <rect class="st23" x="455.01" y="1000.76" width="55.69" height="5.74"/>
  <rect class="st23" x="631.2" y="1117.21" width="125.9" height="9.97"/>
  <rect class="st23" x="631.2" y="1109.11" width="5.4" height="8.77"/>
  <rect class="st23" x="636.6" y="983.55" width="120.5" height="5.06"/>
  <rect class="st23" x="752.04" y="983.55" width="10.21" height="141.09"/>
  <rect class="st23" x="636.6" y="988.61" width="115.44" height="1.35"/>
  <rect class="st23" x="636.6" y="1109.11" width="1.01" height="7.42"/>
  <rect class="st23" x="631.2" y="981.69" width="6.41" height="56.53"/>
  <rect class="st23" x="636.6" y="1116.53" width="115.44" height="1.35"/>
  <rect class="st23" x="750.69" y="988.61" width="1.35" height="127.92"/>
  <rect class="st23" x="639.3" y="923.8" width="119.49" height="7.76"/>
  <rect class="st23" x="631.2" y="923.8" width="8.1" height="59.74"/>
  <rect class="st23" x="416.2" y="897.81" width="22.61" height="242.68"/>
  <rect class="st23" x="416.2" y="658.84" width="90.12" height="46.58"/>
  <rect class="st23" x="427" y="897.81" width="11.81" height="81.34"/>
  <rect class="st21" x="409.45" y="897.81" width="8.78" height="81.34"/>
  <rect class="st23" x="416.2" y="658.84" width="38.82" height="75.27"/>
  <polygon class="st21" points="685.63 762.35 685.63 762.76 757.29 762.76 757.29 900.72 758.2 901.17 758.2 762.35 685.63 762.35"/>
  <polygon class="st21" points="685.63 762.76 685.63 865.26 701.55 873.14 741.37 892.84 757.29 900.73 757.29 762.76 685.63 762.76"/>
  <g class="st24">
    <path class="st21" d="M685.63,922v-56.74l15.92,7.88v28.26c0,1.82,1.47,3.28,3.27,3.28h33.25c1.81,0,3.28-1.47,3.28-3.28v-8.56l15.92,7.88v21.27h-71.66Z"/>
    <path class="st21" d="M701.56,901.4v-28.26l39.81,19.7v8.56c0,1.82-1.47,3.28-3.29,3.28h-33.25c-1.81,0-3.28-1.47-3.28-3.28"/>
  </g>
  <polyline class="st1" points="757.29 900.72 757.29 922 685.63 922 685.63 865.26"/>
  <polyline class="st1" points="741.37 892.84 757.29 900.72 758.2 901.17 758.2 762.34 685.63 762.34 685.63 762.76 685.63 865.26 701.55 873.14"/>
  <line class="st1" x1="738.08" y1="904.68" x2="704.83" y2="904.68"/>
  <g class="st12">
    <path class="st1" d="M704.83,904.68c-1.8,0-3.28-1.47-3.28-3.28"/>
    <path class="st1" d="M741.37,901.4c0,1.82-1.47,3.28-3.29,3.28"/>
  </g>
  <polyline class="st1" points="741.37 901.4 741.37 892.84 701.55 873.14 701.55 901.4"/>
  <g class="st15">
    <path class="st21" d="M680.94,989.94c0,7.71,0,15.42-.02,23.12,0,8.89-6.41,16.09-14.31,16.08-7.9,0-14.28-7.21-14.28-16.1,0-7.7.02-15.41.02-23.12,9.52,0,19.06.02,28.59.02"/>
  </g>
  <g class="st13">
    <path class="st4" d="M680.94,989.94c0,7.71,0,15.42-.02,23.12,0,8.89-6.41,16.09-14.31,16.08-7.9,0-14.28-7.21-14.28-16.1,0-7.7.02-15.41.02-23.12,9.52,0,19.06.02,28.59.02Z"/>
  </g>
  <rect class="st21" x="688.05" y="989.74" width="62.49" height="63.21"/>
  <polyline class="st4" points="750.54 989.74 750.54 1052.96 744.37 1052.96"/>
  <line class="st4" x1="750.54" y1="989.74" x2="688.55" y2="989.74"/>
  <line class="st4" x1="688.05" y1="990.79" x2="688.05" y2="1052.4"/>
  <polyline class="st4" points="688.05 990.79 688.05 989.74 688.55 989.74"/>
  <polyline class="st4" points="688.99 1052.96 688.05 1052.96 688.05 1052.4"/>
  <line class="st4" x1="688.99" y1="1052.96" x2="744.37" y2="1052.96"/>
  <line class="st4" x1="720.25" y1="989.74" x2="720.25" y2="1007.3"/>
  <g class="st14">
    <path class="st4" d="M724.09,1007.22c0-2.17-1.76-3.93-3.93-3.93s-3.93,1.76-3.93,3.93,1.76,3.93,3.93,3.93,3.93-1.76,3.93-3.93Z"/>
    <path class="st4" d="M724.09,1007.22c0-2.17-1.76-3.93-3.93-3.93s-3.93,1.76-3.93,3.93,1.76,3.93,3.93,3.93,3.93-1.76,3.93-3.93Z"/>
  </g>
  <g class="st20">
    <path class="st21" d="M725.56,1074.3h15.5c.58,0,1.06.35,1.06.78v34.13c0,.44-.48.79-1.06.79h-15.5c-.6,0-1.06-.35-1.06-.79v-34.13c0-.43.47-.78,1.06-.78M733.03,1089.35c-1.55,0-2.8,1.25-2.8,2.8s1.25,2.81,2.8,2.81,2.81-1.26,2.81-2.81-1.26-2.8-2.81-2.8"/>
    <path class="st21" d="M744.73,1092.15c0-1.16.94-2.1,2.11-2.1s2.1.95,2.1,2.1-.94,2.11-2.1,2.11-2.11-.94-2.11-2.11"/>
    <path class="st21" d="M733.03,1090.65c.83,0,1.51.67,1.51,1.5s-.68,1.51-1.51,1.51-1.5-.68-1.5-1.51.67-1.5,1.5-1.5"/>
    <path class="st21" d="M731.53,1092.15c0,.83.67,1.51,1.5,1.51s1.51-.68,1.51-1.51-.68-1.5-1.51-1.5-1.5.67-1.5,1.5M735.83,1092.15c0,1.55-1.26,2.81-2.81,2.81s-2.8-1.26-2.8-2.81,1.25-2.8,2.8-2.8,2.81,1.25,2.81,2.8"/>
    <path class="st21" d="M744.73,1092.15c0,1.17.94,2.11,2.11,2.11s2.1-.95,2.1-2.11-.94-2.1-2.1-2.1-2.11.95-2.11,2.1M750.94,1073.67v37.12h-26.45c-.59,0-1.06-.35-1.06-.78v-35.7c0-.35.47-.63,1.06-.63h26.45ZM724.49,1109.21c0,.44.47.79,1.06.79h15.51c.58,0,1.06-.35,1.06-.79v-34.13c0-.43-.48-.78-1.06-.78h-15.51c-.59,0-1.06.35-1.06.78v34.13Z"/>
  </g>
  <g class="st17">
    <path class="st4" d="M746.84,1094.26c-1.17,0-2.11-.95-2.11-2.11s.94-2.1,2.11-2.1,2.1.94,2.1,2.1-.95,2.11-2.1,2.11Z"/>
    <path class="st4" d="M733.03,1094.96c-1.55,0-2.8-1.26-2.8-2.81s1.25-2.8,2.8-2.8,2.81,1.25,2.81,2.8-1.26,2.81-2.81,2.81Z"/>
    <path class="st4" d="M733.03,1093.66c-.83,0-1.5-.68-1.5-1.51s.67-1.5,1.5-1.5,1.51.67,1.51,1.5-.68,1.51-1.51,1.51Z"/>
    <path class="st4" d="M741.06,1074.3h-15.5c-.59,0-1.06.35-1.06.78v34.13c0,.44.47.79,1.06.79h15.5c.58,0,1.06-.35,1.06-.79v-34.13c0-.43-.48-.78-1.06-.78Z"/>
  </g>
  <line class="st4" x1="742.77" y1="1110.79" x2="750.94" y2="1110.79"/>
  <g class="st16">
    <path class="st4" d="M750.94,1073.67h-26.45c-.59,0-1.06.28-1.06.63v35.7c0,.43.47.78,1.06.78h8.38"/>
  </g>
  <line class="st4" x1="742.77" y1="1110.79" x2="732.87" y2="1110.79"/>
  <line class="st4" x1="750.94" y1="1110.79" x2="750.94" y2="1073.67"/>
  <line class="st4" x1="472.69" y1="1027.42" x2="462.01" y2="1027.42"/>
  <rect class="st4" x="454.94" y="1006.62" width="47.78" height="117.89"/>
  <line class="st4" x1="469.94" y1="1096.48" x2="469.94" y2="1086.04"/>
  <line class="st4" x1="489.55" y1="1096.48" x2="489.55" y2="1086.04"/>
  <line class="st4" x1="484.4" y1="1091.33" x2="494.83" y2="1091.33"/>
  <line class="st4" x1="464.65" y1="1091.33" x2="475.08" y2="1091.33"/>
  <rect class="st4" x="460.06" y="1079.51" width="39.36" height="22.95"/>
  <rect class="st4" x="465.8" y="1014.21" width="26.55" height="26.54"/>
  <rect class="st4" x="459.2" y="1007.47" width="39.75" height="39.89"/>
  <g class="st19">
    <path class="st21" d="M506.93,772.34c5.46-2.34,11.42-3.55,17.47-3.4,5.87-.15,11.57.92,16.86,3.09,5.15,2.12,9.91,5.28,14.02,9.39,4.1,4.1,7.27,8.87,9.39,14.02,2.17,5.3,3.25,11,3.09,16.87.15,6.05-1.07,12.01-3.41,17.46-2.15,5-5.24,9.59-9.07,13.42-4.93,4.93-10.82,8.51-17.26,10.6-4.41,1.44-9.08,2.17-13.91,2.17-7.57,0-14.99-2-21.58-5.83-3.24-1.88-6.28-4.2-9.02-6.94-2.74-2.74-5.07-5.78-6.95-9.02-3.83-6.58-5.82-14.01-5.82-21.57,0-4.83.73-9.51,2.17-13.92,2.09-6.45,5.67-12.33,10.6-17.27,3.83-3.83,8.42-6.93,13.42-9.07"/>
    <path class="st21" d="M508.65,760.32c9.5-6.53,21.68-6.83,30.89,0,.3.3,0,.59-.3.3-.29.3-.59,0-.89.3-.3-.3-.59,0-.89-.3-.89-.3-2.09-.88-3.27-1.48-.9-.3-2.08.29-2.38,1.18-.3.3-.3.89.3.9,4.39,2.64,7.63,6.43,9.14,10.8-5.3-2.17-11-3.24-16.86-3.08-6.05-.15-12.01,1.06-17.47,3.4l-.06-.14c2.08-4.45,5.35-8.32,9.51-10.69.3-.3.3-.89,0-1.19-.3-.89-1.19-1.19-2.38-1.19-.89.3-2.08.89-2.97,1.78q-.59,0-.89-.3c-.3.3-.6,0-.89.3l-.59-.59"/>
    <path class="st21" d="M576.36,797.15c6.83,9.21,6.53,21.39,0,30.89l-.59-.59c.3-.3,0-.6.3-.89q-.3-.3-.3-.89c.89-.89,1.48-2.08,1.78-2.97,0-1.19-.3-2.08-1.19-2.37-.3-.3-.89-.3-1.19,0-2.37,4.16-5.94,7.72-10.69,9.51l-.14-.06c2.34-5.45,3.56-11.41,3.41-17.46.15-5.87-.92-11.57-3.1-16.87,4.38,1.51,8.17,4.75,10.81,9.15,0,.6.59.6.89.3.89-.3,1.48-1.48,1.19-2.37-.6-1.19-1.19-2.39-1.48-3.28-.3-.29,0-.59-.3-.89.3-.3,0-.59.3-.89-.3-.3.3-.3.3-.3"/>
    <path class="st21" d="M470.94,831.3c-6.83-9.21-6.83-21.67,0-30.88l.59.59v.59q0,.6-.3.89c-.59,1.18-1.19,2.37-1.48,3.26-.3.89.3,2.08,1.19,2.37.3.3.89.3,1.19,0,2.08-4.45,5.93-7.72,10.69-9.5l.09.04c-1.43,4.41-2.16,9.09-2.16,13.92,0,7.57,1.99,14.99,5.82,21.57l-.18.11c-5.94-1.19-11.58-5.05-14.55-10.39,0-.59-.59-.59-.89-.3-.89.3-1.48,1.49-1.19,2.38.6,1.19.89,2.08,1.48,3.26q.3.3.3.89s0,.6-.3.89l-.3.3Z"/>
    <path class="st21" d="M535.97,865.45l.3.3c-9.21,6.83-21.68,6.83-30.88,0l.29-.3c.3-.3.89-.3.89-.3q.59,0,.89.3c1.19.59,2.08.89,3.26,1.48.9.3,2.08-.29,2.38-1.18.29-.3.29-.9-.31-.9-5.34-2.97-9.2-8.61-10.39-14.55l.1-.19c6.58,3.83,14,5.83,21.58,5.83,4.83,0,9.51-.73,13.92-2.17l.04.09c-1.78,4.75-5.05,8.61-9.5,10.69-.3.3-.3.89,0,1.19.3.89,1.49,1.48,2.38,1.19.89-.3,2.08-.89,3.26-1.48q.3-.3.89-.3s.59,0,.89.3"/>
  </g>
  <g class="st18">
    <path class="st4" d="M575.77,825.66q0,.59.3.89"/>
    <path class="st4" d="M564.66,795.43c-2.12-5.15-5.28-9.92-9.38-14.02-4.11-4.11-8.87-7.27-14.02-9.39-5.3-2.17-11-3.24-16.86-3.09-6.05-.15-12.01,1.06-17.47,3.41-5.01,2.14-9.59,5.24-13.43,9.07-4.93,4.93-8.51,10.82-10.6,17.26-1.43,4.41-2.16,9.09-2.16,13.92,0,7.57,1.99,14.99,5.82,21.57,1.88,3.24,4.2,6.27,6.94,9.02,2.75,2.74,5.78,5.07,9.02,6.94,6.59,3.82,14,5.83,21.58,5.83,4.83,0,9.51-.73,13.91-2.17,6.45-2.09,12.33-5.67,17.27-10.6,3.83-3.83,6.92-8.42,9.07-13.42,2.34-5.46,3.56-11.41,3.41-17.46.15-5.86-.92-11.57-3.1-16.87Z"/>
    <path class="st4" d="M539.54,760.32c-9.21-6.83-21.39-6.53-30.89,0"/>
    <path class="st4" d="M541.31,772.2c-.02-.06-.04-.12-.06-.18-1.51-4.37-4.75-8.17-9.14-10.8"/>
    <path class="st4" d="M531.81,760.32c-.3.3-.3.89.31.9"/>
    <path class="st4" d="M537.46,760.62c-.89-.3-2.09-.89-3.27-1.48"/>
    <path class="st4" d="M534.19,759.14c-.9-.3-2.09.29-2.38,1.18"/>
    <path class="st4" d="M539.24,760.62c.3.3.59,0,.3-.3"/>
    <path class="st4" d="M538.35,760.92c.3-.3.59,0,.89-.3"/>
    <path class="st4" d="M537.46,760.62c.3.3.59,0,.89.3"/>
    <path class="st4" d="M516.37,761.51c.3-.3.3-.89,0-1.19"/>
    <path class="st4" d="M514,759.14c-.89.3-2.08.89-2.97,1.78"/>
    <path class="st4" d="M516.37,760.32c-.3-.89-1.19-1.19-2.38-1.19"/>
  </g>
  <line class="st4" x1="508.65" y1="760.32" x2="509.25" y2="760.92"/>
  <g class="st7">
    <path class="st4" d="M509.25,760.92c.3-.3.59,0,.89-.3"/>
    <path class="st4" d="M510.14,760.62q.3.3.89.3"/>
    <path class="st4" d="M516.37,761.51c-4.15,2.38-7.43,6.24-9.51,10.69"/>
    <path class="st4" d="M470.94,800.42c-6.83,9.21-6.83,21.67,0,30.89"/>
    <path class="st4" d="M471.83,823.88c2.97,5.35,8.61,9.2,14.54,10.39"/>
    <path class="st4" d="M471.83,823.88c0-.59-.59-.59-.89-.3"/>
    <path class="st4" d="M469.75,825.96c.59,1.19.89,2.08,1.48,3.26"/>
    <path class="st4" d="M470.94,823.59c-.89.3-1.48,1.48-1.19,2.37"/>
  </g>
  <line class="st4" x1="470.94" y1="831.3" x2="471.23" y2="831"/>
  <g class="st5">
    <path class="st4" d="M471.23,831.01c.3-.3.3-.89.3-.89"/>
    <path class="st4" d="M471.53,830.12q0-.59-.3-.89"/>
    <path class="st4" d="M470.94,808.14c.3.3.89.3,1.19,0"/>
    <path class="st4" d="M471.23,802.5c-.59,1.19-1.19,2.38-1.48,3.26"/>
    <path class="st4" d="M469.75,805.76c-.3.89.3,2.08,1.19,2.37"/>
  </g>
  <line class="st4" x1="471.53" y1="801.01" x2="470.94" y2="800.42"/>
  <line class="st4" x1="471.53" y1="801.61" x2="471.53" y2="801.01"/>
  <g class="st11">
    <path class="st4" d="M471.23,802.5q.3-.3.3-.89"/>
    <path class="st4" d="M482.81,798.64c-4.75,1.78-8.61,5.05-10.69,9.5"/>
    <path class="st4" d="M576.36,828.03c6.53-9.5,6.83-21.68,0-30.89"/>
    <path class="st4" d="M575.47,804.58c-2.65-4.4-6.44-7.64-10.81-9.15-.06-.02-.12-.04-.18-.06"/>
    <path class="st4" d="M575.47,804.58c0,.6.59.6.89.3"/>
    <path class="st4" d="M577.55,802.5c-.6-1.19-1.19-2.39-1.48-3.28"/>
    <path class="st4" d="M576.36,804.88c.89-.3,1.48-1.48,1.19-2.38"/>
    <path class="st4" d="M576.36,797.15s-.59,0-.3.3"/>
    <path class="st4" d="M576.06,797.44c-.3.3,0,.6-.3.89"/>
    <path class="st4" d="M575.77,798.33c.3.3,0,.59.3.89"/>
    <path class="st4" d="M576.36,820.31c-.3-.3-.89-.3-1.19,0"/>
    <path class="st4" d="M575.77,825.66c.89-.89,1.48-2.08,1.78-2.97"/>
    <path class="st4" d="M577.55,822.69c0-1.19-.3-2.08-1.19-2.37"/>
  </g>
  <line class="st4" x1="575.77" y1="827.44" x2="576.36" y2="828.03"/>
  <g class="st9">
    <path class="st4" d="M576.06,826.55c-.3.3,0,.6-.3.89"/>
    <path class="st4" d="M564.48,829.82c4.75-1.78,8.32-5.35,10.69-9.51"/>
    <path class="st4" d="M505.38,865.75c9.21,6.83,21.68,6.83,30.89,0"/>
    <path class="st4" d="M502.41,850.31c1.19,5.94,5.05,11.58,10.39,14.54"/>
    <path class="st4" d="M513.11,865.76c.3-.3.29-.9-.3-.9"/>
    <path class="st4" d="M507.46,865.45c1.19.59,2.08.89,3.26,1.48"/>
    <path class="st4" d="M510.73,866.94c.9.3,2.09-.29,2.38-1.18"/>
  </g>
  <line class="st4" x1="505.68" y1="865.45" x2="505.38" y2="865.75"/>
  <g class="st10">
    <path class="st4" d="M506.57,865.16s-.59,0-.89.3"/>
    <path class="st4" d="M507.46,865.45q-.3-.3-.89-.3"/>
    <path class="st4" d="M528.55,864.56c-.3.3-.3.89,0,1.19"/>
    <path class="st4" d="M530.92,866.94c.89-.3,2.08-.89,3.26-1.48"/>
    <path class="st4" d="M528.55,865.75c.3.89,1.48,1.48,2.38,1.19"/>
  </g>
  <line class="st4" x1="536.27" y1="865.75" x2="535.97" y2="865.45"/>
  <g class="st8">
    <path class="st4" d="M535.97,865.45c-.3-.3-.89-.3-.89-.3"/>
    <path class="st4" d="M535.08,865.16q-.59,0-.89.3"/>
    <path class="st4" d="M528.55,864.56c4.46-2.08,7.72-5.94,9.5-10.69"/>
    <path class="st21" d="M660.86,883.68c9.36,0,16.94,7.58,16.94,16.94s-7.58,16.94-16.94,16.94-16.94-7.58-16.94-16.94,7.58-16.94,16.94-16.94"/>
    <circle class="st4" cx="660.86" cy="900.62" r="16.94"/>
  </g>
  <path class="st4" d="M639.3,983.55v-51.98M639.3,931.57h119.49M758.79,931.57v51.98M758.79,983.55h-119.49M703.43,689.22v16.2M703.43,705.42h55.36M455.01,705.42h51.31M506.32,705.42v-16.2M455.01,1140.5h94.85M550.87,1124.63h-95.86M623.44,1140.5h152.9M622.43,1124.63h1.01M776.34,1124.63v-419.21M455.01,897.81h-16.2M438.81,897.81v81.34M455.01,734.11v-28.69M438.81,734.11h16.2M699.72,587.63l-13.16,1.35M686.56,588.98l-12.49,3.38M674.07,592.35l-11.81,5.4M662.26,597.75l-10.8,7.76M651.45,605.52l-9.45,9.11M642,614.63l-7.43,10.8M634.58,625.43l-5.74,11.82M628.84,637.24l-3.38,12.83M625.46,650.07l-1.01,13.16M699.72,663.23v-75.61M694.99,663.57v4.05M629.51,663.57h65.48M629.51,667.62v-4.05M694.99,667.62h-65.48M625.8,674.71h72.56M694.99,663.23h-65.48M694.99,669.31h-65.48M625.8,669.31v5.4M698.37,669.31v5.4M698.37,669.31h-72.56M702.42,663.23v11.47M694.99,663.23h7.43M694.99,669.31v-6.07M698.37,669.31h-3.37M698.37,674.71v-5.4M702.42,674.71h-4.05M625.8,669.31v5.4M629.51,669.31h-3.71M629.51,663.23v6.07M622.09,663.23h7.43M622.09,674.71v-11.47M625.8,674.71h-3.72M511.04,667.62h105.98M617.03,667.62v-4.05M617.03,663.57h-105.98M511.04,663.57v4.05M617.03,674.71h-105.98M511.04,663.23h105.98M617.03,674.71h4.05M621.08,674.71v-11.47M621.08,663.23h-4.05M617.03,663.23v11.47M506.99,674.71h4.05M511.04,674.71v-11.47M511.04,663.23h-4.05M506.99,663.23v11.47M483.7,574.8v84.05M725.03,658.85v-84.05M725.03,574.8h-241.33M479.65,658.85h4.05M483.7,658.85v-84.05M483.7,574.8h241.33M725.03,574.8v84.05M725.03,658.85h4.05M729.09,658.85v-87.76M729.09,571.09h-249.44M479.65,571.09v87.76M639.3,931.57l119.49,51.98M639.3,931.57h119.49M758.79,931.57v51.98M758.79,983.55h-119.49M639.3,983.55v-51.98M619.73,1058.14l-12.83,1.35M606.9,1059.49l-12.49,3.71M594.41,1063.2l-11.47,6.08M582.94,1069.28l-10.13,8.44M572.81,1077.72l-8.44,9.79M564.37,1087.51l-6.07,11.81M558.3,1099.32l-3.71,12.49M554.58,1111.81l-1.35,12.83M550.87,1124.63v15.87M622.43,1140.5v-15.87M619.73,1124.63v-66.49M616.69,1124.63h3.04M623.44,1124.63h-1.01"/>
  <path class="st4" d="M455.01,952.83h1.01M458.39,952.83h2.36M463.11,952.83h2.7M468.18,952.83h2.36M472.9,952.83h2.36M477.63,952.83h2.36M482.35,952.83h2.36M487.08,952.83h2.36M491.8,952.83h2.7M496.87,952.83h2.36M501.59,952.83h1.01M502.6,952.83v-1.35M502.6,949.12v-2.36M502.6,944.39v-2.36M502.6,939.67v-2.36M502.6,934.94v-2.36M502.6,930.22v-2.36M502.6,925.16v-2.36M502.6,920.43v-2.36M502.6,915.7v-2.36M502.6,910.98v-2.36M502.6,906.25v-1.35M502.6,904.9h-1.01M499.23,904.9h-2.36M494.5,904.9h-2.7M489.44,904.9h-2.36M484.72,904.9h-2.36M479.99,904.9h-2.36M475.26,904.9h-2.36M470.54,904.9h-2.36M465.81,904.9h-2.7M460.75,904.9h-2.36M456.03,904.9h-1.01M455.01,904.9v1.35M455.01,908.62v2.36M455.01,913.34v2.36M455.01,918.07v2.36M455.01,922.79v2.36M455.01,927.86v2.36M455.01,932.58v2.36M455.01,937.31v2.36M455.01,942.03v2.36M455.01,946.76v2.36M455.01,951.48v1.35M455.01,1000.76h1.01M458.39,1000.76h2.36M463.11,1000.76h2.7M468.18,1000.76h2.36M472.9,1000.76h2.36M477.63,1000.76h2.36M482.35,1000.76h2.36M487.08,1000.76h2.36M491.8,1000.76h2.7M496.87,1000.76h2.36M501.59,1000.76h1.01M502.6,1000.76v-1.35M502.6,997.05v-2.36M502.6,992.32v-2.36M502.6,987.6v-2.36M502.6,982.87v-2.7M502.6,977.81v-2.37M502.6,973.08v-2.36M502.6,968.36v-2.36M502.6,963.63v-2.36M502.6,958.91v-2.36M502.6,954.18v-1.35M502.6,952.83h-1.01M499.23,952.83h-2.36M494.5,952.83h-2.7M489.44,952.83h-2.36M484.72,952.83h-2.36M479.99,952.83h-2.36M475.26,952.83h-2.36M470.54,952.83h-2.36M465.81,952.83h-2.7M460.75,952.83h-2.36M456.03,952.83h-1.01M455.01,952.83v1.35M455.01,956.54v2.36M455.01,961.27v2.36M455.01,966v2.36M455.01,970.72v2.36M455.01,975.45v2.37M455.01,980.17v2.7M455.01,985.24v2.36M455.01,989.96v2.36M455.01,994.69v2.36M455.01,999.41v1.35M455.01,1006.5h55.69M510.71,1006.5v-5.74M510.71,1000.76h-55.69M420.59,737.83l-1.35,2.37M417.89,742.55l-1.01,2.02M415.52,746.6l-1.35,2.02M413.16,750.65l-1.35,2.02M410.8,754.7l-1.35,2.36M408.43,759.09l-1.35,2.02M406.07,763.14l-1.35,2.03M403.71,767.19l-1.35,2.03M401.01,771.24l-1.01,2.36M398.65,775.63l-1.01,2.03M396.28,779.68l-1.01,2.03M393.92,783.73l-1.01,2.03M391.56,788.12l-1.01,2.02M389.2,792.17l-1.01,2.02M386.83,796.22l-1.35,2.02M384.47,800.27l-1.69,2.7M420.59,813.1h-1.69M416.54,812.76l-2.36-.34M411.81,812.42l-2.36-.34M407.08,811.75l-2.36-.68M402.36,810.4l-2.36-.34"/>
  <path class="st4" d="M397.63,809.38l-2.36-.68M393.24,807.69l-2.36-1.01M388.86,805.67l-2.02-1.01M384.47,803.64l-1.69-.68M424.97,892.75h-3.71M424.97,817.14v75.61M421.26,817.14h3.71M421.26,892.75v-75.61M421.26,742.55h3.71M421.26,808.03v-65.48M424.97,808.03h-3.71M424.97,742.55v65.48M432.4,811.41v-72.23M432.4,811.41v-72.23M432.4,892.75v-75.61M420.58,739.17v72.23M420.58,742.55v65.48M420.58,817.14v75.61M427,811.41h5.4M427,739.17h5.4M427,742.55v65.48M427,739.17v72.23M427,811.41h5.4M427,808.03v3.38M420.58,808.03h6.41M420.58,817.14v-9.11M432.4,817.14h-11.81M432.4,811.41v5.74M420.58,892.75h11.81M420.58,896.8v-4.05M432.4,896.8h-11.81M432.4,892.75v4.05M420.58,735.12h11.81M420.58,742.55v-7.43M427,742.55h-6.41M427,739.17v3.38M432.4,739.17h-5.4M432.4,735.12v4.05M420.58,813.09v-75.27M420.58,737.15v76.28M420.58,737.82v75.27M420.58,739.17v72.23M420.58,811.41v-72.23M420.58,813.43v-76.28M420.58,808.03v-65.48M420.58,742.55v65.48M506.32,705.42h-51.31M455.01,705.42v28.69M455.01,734.11h-24.64M430.37,734.11v1.01M430.37,896.8v1.01M430.37,897.81h24.64M455.01,897.81v102.94M455.01,1006.5v118.14M553.23,1124.63h63.45M622.43,1124.63h8.78M631.2,923.8h127.58M758.79,923.8v-218.38M703.43,705.42v-32.4M703.43,673.02h-1.01M622.09,673.02h-1.01M506.99,673.02h-.67M506.32,673.02v32.4M776.34,1140.5h-153.91M623.44,1124.63h-1.01M550.87,1140.5h-91.81M455.01,1055.78v47.59"/>
  <path class="st4" d="M455.01,1007.85v95.52M631.2,1117.88v6.75M631.2,1109.11v8.77M631.2,983.55v54.68M636.6,1040.59v62.78M757.1,983.55h-117.8M702.08,1106.41l-1.01-12.82M701.07,1093.58l-3.71-12.15M697.36,1081.43l-6.07-11.47M691.28,1069.95l-8.44-10.13M682.84,1059.83l-9.79-8.1M673.05,1051.73l-11.47-6.08M661.58,1045.65l-12.15-3.71M649.43,1041.94l-12.83-1.35M637.61,1038.23h-6.41M631.2,1109.11h6.41M636.6,1106.41h65.48M636.6,1103.37v3.04M636.6,1103.37v-62.78"/>
  <path class="st4" d="M637.61,989.96h113.07M637.61,1038.23v-48.27M637.61,1116.53v-7.43M750.69,1116.53h-113.07M750.69,989.96v126.57"/>
  <path class="st4" d="M776.34,923.8v7.76M758.79,923.8h-7.76M751.02,923.8v7.76M751.02,931.57h7.76M703.1,923.8h-63.79M639.3,931.57h63.79M703.1,931.57v-7.76M703.1,923.8h47.93M751.02,931.57h-47.93M751.02,923.8v7.76M703.1,931.57v-7.76M631.2,923.8v59.74M639.3,923.8h-8.1M416.2,689.22v44.89M416.2,734.11h22.61M416.2,979.16v161.34M438.81,979.16h-22.61M416.2,979.16h2.02M424.97,897.81v-1.01M424.97,735.13v-1.01M424.97,734.11h-8.78M438.81,897.81h-13.84M424.97,734.11v1.01M424.97,896.8v1.01M424.97,734.11h5.4M506.32,689.22v-30.38M506.32,658.84h-90.12M416.2,658.84v30.38M776.34,658.84h-72.9M703.43,658.84v30.38M703.43,667.62v-8.78M703.43,667.62h-1.01M622.09,667.62h-1.01M506.99,667.62h-.67M506.32,673.02v-5.4M703.43,667.62v5.4M506.32,658.84v8.78M506.32,667.62h.67M621.08,667.62h1.01M702.42,667.62h1.01M427,979.16h11.81M438.81,979.16v-81.34"/>
  <path class="st4" d="M438.81,897.81h-11.81M427,897.81v81.34M418.22,979.16h8.78M427,979.16v-81.34M427,897.81h-8.78M418.22,897.81v81.34M776.34,658.84v481.65M459.06,1140.5h-42.86"/>
  <g class="st6">
    <path class="st3" d="M1135.47,579.19h-6.07M1111.84,499.87l-16.2,7.09M1100.03,524.51l-4.39-17.55M1072.35,495.82l27.68,28.69M1072.35,495.82l39.49,4.05M1072.35,495.82l23.29,11.14M1135.47,818.5h-6.07M1135.47,658.84h-6.07M1135.47,738.5h-6.07M1135.47,818.5v-239.31M9.14,1278.21h1183.71"/>
    <path d="M1114.08,1227.3c.43-.28.75-.67.96-1.17.21-.5.32-1.12.32-1.85,0-.58-.11-1.1-.32-1.57-.21-.47-.5-.82-.89-1.07-.38-.25-.78-.37-1.21-.37s-.81.11-1.15.34c-.33.23-.61.58-.82,1.05-.14.33-.32.93-.51,1.8-.19.87-.38,1.42-.57,1.62-.19.21-.42.32-.72.32-.33,0-.62-.15-.85-.45-.23-.3-.36-.77-.36-1.42s.13-1.1.39-1.42c.26-.32.64-.51,1.16-.56l-.08-1.03c-.47.02-.9.15-1.27.4-.37.25-.66.6-.85,1.06-.19.46-.29.99-.29,1.59,0,.55.09,1.05.27,1.49.18.45.45.79.81,1.02.35.23.74.35,1.14.35.37,0,.71-.1,1-.28.3-.19.55-.48.75-.87.16-.3.33-.82.5-1.57.18-.75.31-1.23.39-1.45.13-.34.29-.59.48-.73.19-.15.41-.22.66-.22s.48.08.69.23c.21.15.38.39.49.7.12.31.18.68.18,1.09,0,.46-.08.88-.24,1.25-.16.37-.37.65-.62.82-.26.17-.59.29-.99.34l.09,1.01c.54-.02,1.02-.16,1.45-.45M1115.22,1218.58h-2.79l-1.28-1.33,4.08-2.9v-1.42l-4.8,3.57-3.26-3.41v1.46l4,4.04h-4v1.08h8.06v-1.08Z"/>
    <path d="M1109.56,1209.06h.92v-5.37h-.92v5.37ZM1112,1209.06h.92v-5.37h-.92v5.37Z"/>
    <path d="M1114.08,1198.95c.43-.28.75-.67.96-1.17.21-.5.32-1.11.32-1.85,0-.58-.1-1.1-.31-1.57-.21-.47-.51-.82-.89-1.07-.38-.25-.78-.37-1.22-.37s-.81.11-1.14.34c-.33.23-.61.58-.82,1.05-.15.33-.32.93-.51,1.8-.2.88-.39,1.42-.57,1.63-.19.21-.42.31-.71.31-.34,0-.62-.15-.86-.45-.23-.3-.36-.77-.36-1.42s.13-1.1.39-1.42c.26-.32.64-.51,1.15-.56l-.08-1.03c-.47.02-.9.15-1.27.4-.38.25-.66.6-.85,1.07-.19.46-.29.99-.29,1.59,0,.55.09,1.05.28,1.49.18.45.45.79.8,1.02.35.23.73.35,1.14.35.37,0,.71-.1,1-.29.3-.19.55-.48.75-.87.16-.3.32-.83.5-1.57.18-.74.31-1.23.39-1.45.13-.34.29-.59.48-.73.19-.15.41-.22.66-.22s.48.07.69.23c.21.15.38.39.5.7.12.31.18.68.18,1.09,0,.46-.08.88-.24,1.25-.16.37-.37.64-.63.82-.26.17-.59.29-.99.34l.09,1.01c.54-.01,1.02-.16,1.45-.45"/>
    <path d="M1115.22,1190.72h-2.31l-.67-.71,2.98-1.95v-1.23l-3.67,2.48-2.16-2.26v1.29l2.38,2.37h-4.6v1h8.06v-1ZM1115.22,1181.6v-1.04c-.22.12-.46.21-.7.25-.25.04-.83.07-1.75.07h-1.32c-.44,0-.74.02-.91.05-.27.06-.49.16-.67.31-.18.15-.33.38-.44.69-.12.31-.18.72-.18,1.23s.07.95.21,1.33c.14.38.33.68.59.88.26.2.59.35,1,.44l.13-.98c-.42-.11-.7-.27-.87-.5-.16-.22-.25-.57-.25-1.04,0-.5.11-.88.34-1.14.16-.19.45-.28.85-.28.03,0,.12,0,.26,0,.13.38.25.97.34,1.78.05.4.09.69.15.89.07.27.18.5.32.72.14.21.33.38.57.52.24.13.5.2.78.2.49,0,.89-.17,1.2-.52.31-.35.47-.84.47-1.49,0-.39-.07-.76-.19-1.1-.13-.34-.35-.7-.66-1.07.27-.03.51-.1.72-.2M1112.65,1181.88c.44,0,.77.05.99.16.29.14.52.36.68.66.17.3.25.64.25,1.02s-.09.69-.27.89c-.18.2-.4.3-.66.3-.18,0-.33-.05-.47-.14-.14-.09-.25-.22-.33-.39-.07-.17-.14-.46-.2-.87-.1-.73-.23-1.27-.38-1.63h.36Z"/>
    <path d="M1115.22,1178.57h-2.31l-.67-.71,2.99-1.95v-1.23l-3.67,2.48-2.16-2.25v1.29l2.37,2.37h-4.6v1h8.06v-1ZM1114.37,1172.09c0,.15-.03.26-.07.34-.05.08-.11.14-.19.17-.08.03-.26.05-.55.05h-3.42v-1.01h-.77v1.01h-2.04l.59.99h1.45v.73h.77v-.73h3.36c.59,0,.98-.04,1.17-.12.18-.08.33-.22.45-.42.11-.2.17-.48.17-.84,0-.22-.03-.47-.09-.76l-.88.14c.03.18.04.33.04.44"/>
    <path d="M1128.38,1226.25h-3.66v-3.82h-.95v3.82h-2.5v-4.41h-.95v5.49h8.06v-1.08ZM1127.24,1220.55c.43-.28.74-.67.96-1.17.21-.5.32-1.11.32-1.85,0-.58-.1-1.11-.31-1.57-.21-.46-.51-.82-.89-1.07-.38-.25-.79-.37-1.22-.37s-.81.11-1.14.34c-.33.23-.61.58-.83,1.05-.14.33-.32.93-.51,1.8-.2.88-.39,1.42-.57,1.63-.19.21-.43.31-.72.31-.33,0-.62-.15-.85-.45-.23-.3-.35-.77-.35-1.42s.13-1.1.39-1.42c.26-.32.64-.51,1.15-.56l-.08-1.03c-.47.02-.9.15-1.27.4-.38.25-.66.6-.85,1.07-.19.46-.29.99-.29,1.59,0,.55.09,1.05.27,1.49.19.45.45.79.81,1.02.35.24.73.35,1.14.35.37,0,.7-.1,1-.29.3-.19.55-.48.75-.87.16-.3.32-.83.5-1.57.18-.74.31-1.23.39-1.45.13-.34.29-.59.48-.73.19-.15.41-.22.66-.22s.48.07.69.23c.21.15.38.39.5.7.12.31.18.68.18,1.09,0,.46-.08.88-.24,1.25-.16.37-.37.64-.63.82-.26.17-.59.29-.99.34l.09,1.01c.54-.01,1.02-.16,1.45-.45"/>
    <path d="M1122.72,1210.07h.92v-5.37h-.92v5.37ZM1125.17,1210.07h.92v-5.37h-.92v5.37Z"/>
    <polygon points="1128.38 1198.91 1124.72 1198.91 1124.72 1195.09 1123.77 1195.09 1123.77 1198.91 1121.27 1198.91 1121.27 1194.5 1120.32 1194.5 1120.32 1199.99 1128.38 1199.99 1128.38 1198.91"/>
    <path d="M1127.73,1192.69c.53-.51.79-1.18.79-2,0-.51-.12-.99-.36-1.42-.24-.43-.57-.76-1-.99-.43-.23-1.02-.34-1.77-.34-.93,0-1.65.26-2.18.77-.53.52-.79,1.18-.79,1.99,0,.73.22,1.35.65,1.85.52.61,1.32.91,2.4.91.98,0,1.74-.25,2.26-.76M1123.79,1191.93c-.37-.33-.55-.74-.55-1.24s.18-.9.56-1.23c.37-.33.92-.5,1.64-.5.77,0,1.34.16,1.71.49.38.33.56.74.56,1.24s-.19.91-.56,1.24c-.37.33-.93.49-1.68.49s-1.31-.16-1.68-.49M1128.38,1186.02h-3.05c-.42,0-.81-.06-1.16-.17-.23-.07-.41-.2-.54-.37-.13-.18-.2-.37-.2-.59,0-.24.07-.49.21-.73l-.92-.34c-.21.35-.32.69-.32,1.03,0,.23.07.45.2.64.13.19.41.4.82.63h-.89v.9h5.84v-1Z"/>
    <path d="M1127.41,1179.87c.19.26.29.57.29.94,0,.49-.17.9-.51,1.23-.34.33-.83.51-1.48.55v-4.4c-.11,0-.2,0-.26,0-.96,0-1.71.25-2.24.75-.53.5-.8,1.14-.8,1.93s.27,1.47.81,1.98c.54.51,1.31.77,2.29.77s1.69-.25,2.21-.76c.53-.5.79-1.19.79-2.05,0-.68-.16-1.25-.49-1.69-.33-.44-.79-.74-1.39-.9l-.13,1.03c.42.15.72.36.91.62M1123.68,1182.02c-.31-.31-.46-.7-.46-1.16,0-.51.19-.92.57-1.24.25-.21.61-.33,1.1-.38v3.29c-.51-.03-.91-.21-1.22-.52M1128.04,1176.51c.31-.4.47-.98.47-1.75,0-.46-.08-.88-.24-1.24-.16-.37-.38-.65-.67-.84-.29-.19-.6-.29-.93-.29s-.62.08-.84.24c-.23.16-.4.38-.52.66-.12.28-.27.77-.46,1.48-.13.49-.22.78-.25.88-.07.17-.16.3-.26.38-.1.08-.22.12-.35.12-.2,0-.38-.1-.53-.3-.15-.19-.23-.52-.23-.98,0-.39.08-.69.25-.9.17-.21.4-.34.7-.38l-.13-.97c-.38.06-.68.18-.9.34-.23.17-.4.42-.54.77-.13.35-.2.76-.2,1.22,0,.31.04.59.12.87.08.27.18.48.29.63.14.21.33.37.55.49.22.12.46.18.72.18.29,0,.55-.07.79-.22.23-.15.42-.36.55-.64s.29-.79.48-1.52c.14-.55.25-.88.33-1.02.13-.2.31-.29.53-.29.25,0,.47.11.65.33.19.22.28.56.28,1.02s-.1.81-.31,1.06c-.21.25-.51.41-.9.46l.16.99c.62-.11,1.09-.37,1.4-.77M1120.32,1171.13h8.06v-1h-8.06v1ZM1128.38,1164.44v-1.04c-.22.13-.46.21-.7.25-.24.04-.82.06-1.74.06h-1.32c-.44,0-.75.02-.91.05-.27.06-.5.17-.67.31-.18.15-.33.38-.44.69-.12.31-.18.72-.18,1.23s.07.95.2,1.34c.14.38.33.68.59.88.25.21.59.35,1,.44l.13-.98c-.41-.11-.7-.27-.86-.5-.17-.22-.25-.57-.25-1.04,0-.5.11-.88.33-1.14.17-.19.45-.28.85-.28.04,0,.12,0,.26,0,.13.38.24.97.34,1.78.05.4.1.69.15.89.07.27.18.5.32.72.14.21.33.38.57.52.23.13.5.2.78.2.49,0,.89-.17,1.2-.52s.47-.84.47-1.49c0-.39-.06-.76-.19-1.1-.13-.34-.35-.7-.66-1.07.28-.03.51-.1.72-.2M1125.81,1164.73c.44,0,.77.06.99.16.29.14.52.36.68.66.16.3.25.64.25,1.03s-.09.69-.26.89c-.18.2-.4.3-.66.3-.17,0-.33-.04-.47-.14-.14-.09-.25-.22-.32-.39-.08-.17-.14-.46-.2-.87-.1-.72-.22-1.27-.37-1.63h.36ZM1121.76,1166.82c.2-.19.29-.43.29-.71s-.1-.5-.29-.7c-.19-.2-.43-.3-.71-.3s-.52.1-.71.3c-.2.2-.29.43-.29.7s.1.5.29.7.42.3.69.3c.29,0,.54-.1.74-.3M1120.62,1166.52c-.11-.12-.18-.26-.18-.41s.06-.3.18-.42c.12-.11.26-.17.42-.17s.31.06.42.17c.12.12.18.25.18.42s-.06.29-.18.41c-.12.12-.26.17-.44.17-.16,0-.3-.06-.42-.17M1127.41,1158.66c.19.26.29.57.29.94,0,.49-.17.9-.51,1.23-.34.33-.83.51-1.48.55v-4.4c-.11,0-.2,0-.26,0-.96,0-1.71.25-2.24.75-.53.5-.8,1.15-.8,1.93s.27,1.48.81,1.98c.54.51,1.31.76,2.29.76s1.69-.25,2.21-.76c.53-.5.79-1.19.79-2.05,0-.68-.16-1.25-.49-1.69-.33-.44-.79-.74-1.39-.9l-.13,1.03c.42.15.72.36.91.61M1123.68,1160.8c-.31-.31-.46-.7-.46-1.16,0-.51.19-.92.57-1.24.25-.21.61-.33,1.1-.38v3.29c-.51-.03-.91-.21-1.22-.52"/>
    <path d="M1127.54,1153.87c0,.15-.02.26-.07.34-.05.08-.11.14-.19.17-.08.03-.26.05-.55.05h-3.41v-1.01h-.77v1.01h-2.04l.59,1h1.45v.73h.77v-.73h3.36c.59,0,.98-.04,1.17-.12.19-.08.33-.22.45-.42.12-.2.17-.48.17-.84,0-.22-.03-.47-.09-.75l-.88.14c.03.18.04.33.04.44M1128.04,1149.18c.32-.4.47-.98.47-1.75,0-.46-.08-.88-.24-1.25-.16-.37-.38-.65-.68-.84-.29-.2-.6-.29-.93-.29s-.62.08-.85.24c-.23.16-.4.38-.52.66-.12.28-.27.77-.46,1.48-.14.49-.22.78-.25.88-.07.17-.16.3-.27.38-.1.08-.21.12-.35.12-.2,0-.38-.1-.53-.3s-.23-.52-.23-.98c0-.39.08-.69.25-.9.17-.21.4-.34.7-.38l-.13-.98c-.38.06-.68.18-.9.34-.22.17-.4.43-.54.78-.13.35-.2.76-.2,1.22,0,.31.04.59.12.86.08.27.18.48.29.63.15.21.33.37.55.49.22.12.46.18.72.18.28,0,.55-.07.78-.22.23-.14.42-.36.55-.65.13-.28.29-.79.48-1.52.14-.54.25-.88.34-1.02.13-.19.31-.29.53-.29.25,0,.47.11.65.33.19.22.28.56.28,1.02s-.1.81-.32,1.06c-.21.25-.51.41-.9.46l.15.99c.62-.11,1.09-.36,1.4-.77"/>
    <path d="M1128.38,1142.46h-2.31l-.67-.71,2.98-1.95v-1.23l-3.67,2.48-2.16-2.25v1.29l2.38,2.36h-4.6v1h8.06v-1ZM1128.38,1133.68v-1.04c-.22.12-.46.21-.7.25-.25.04-.83.07-1.75.07h-1.32c-.44,0-.74.02-.91.05-.27.06-.5.16-.67.31-.18.15-.33.38-.45.69-.12.31-.18.72-.18,1.23s.07.95.21,1.33.33.68.59.88c.25.2.59.35,1,.44l.13-.98c-.41-.11-.7-.27-.86-.5-.16-.22-.25-.57-.25-1.04,0-.5.11-.88.33-1.14.17-.19.45-.28.85-.28.04,0,.13,0,.26,0,.14.38.25.97.35,1.78.05.4.09.69.15.89.07.27.18.5.32.72.14.21.33.38.57.52.23.13.49.2.78.2.49,0,.89-.17,1.2-.52.31-.35.47-.84.47-1.49,0-.39-.07-.76-.2-1.1-.13-.34-.35-.7-.66-1.07.27-.03.51-.1.72-.2M1125.81,1133.96c.44,0,.77.05.99.16.29.14.51.36.68.66.17.3.25.64.25,1.02s-.09.69-.27.89c-.18.2-.4.3-.66.3-.17,0-.33-.05-.47-.14-.14-.09-.25-.22-.32-.39-.07-.17-.14-.46-.2-.87-.1-.73-.23-1.27-.38-1.63h.36Z"/>
    <path d="M1127.65,1130.73c.58-.39.86-.94.86-1.64s-.27-1.3-.82-1.8c-.55-.5-1.32-.75-2.32-.75-.42,0-.82.06-1.19.18-.37.12-.68.28-.95.49-.26.21-.47.48-.61.8-.14.32-.22.67-.22,1.03,0,.65.26,1.19.79,1.61h-2.88v1h8.06v-.93h-.73ZM1123.79,1130.26c-.38-.32-.56-.69-.56-1.13s.18-.8.54-1.11c.36-.3.93-.46,1.69-.46s1.3.16,1.68.48c.38.32.56.69.56,1.13,0,.53-.25.96-.76,1.27-.31.19-.82.29-1.52.29s-1.25-.16-1.63-.48"/>
    <path d="M1127.35,819.92c.56-.45.83-1.06.83-1.85,0-.6-.16-1.09-.48-1.48-.31-.39-.76-.68-1.35-.88-.58-.2-1.34-.29-2.29-.29-.8,0-1.44.06-1.91.18-.47.12-.87.29-1.2.5-.33.21-.58.49-.76.81-.18.33-.26.71-.26,1.15,0,.59.16,1.08.47,1.47.31.39.76.69,1.34.88.58.2,1.35.29,2.3.29,1.51,0,2.6-.27,3.27-.8M1121.35,819.18c-.39-.28-.58-.64-.58-1.1s.22-.85.65-1.17c.44-.31,1.32-.47,2.65-.47s2.2.16,2.64.47c.44.31.66.7.66,1.16s-.22.84-.65,1.16c-.44.31-1.32.47-2.64.47s-2.23-.17-2.72-.52M1127.09,666.23c-.18-.11-.36-.25-.53-.42-.18-.17-.52-.55-1.02-1.15-.6-.72-1.07-1.23-1.42-1.54-.35-.31-.67-.53-.98-.66-.31-.13-.63-.2-.95-.2-.64,0-1.17.23-1.6.68-.43.46-.64,1.07-.64,1.86s.2,1.39.6,1.85c.4.46.97.73,1.73.8l.1-1.03c-.5,0-.9-.15-1.19-.44-.29-.29-.43-.68-.43-1.16,0-.46.14-.83.4-1.11.27-.28.6-.43.99-.43s.77.16,1.19.47c.42.31.99.91,1.71,1.79.46.57.87,1.01,1.22,1.31.35.3.71.52,1.07.66.22.08.45.12.69.11v-5.38h-.95v3.99Z"/>
    <path d="M1128.04,660.14h-3.03c-.53,0-.94-.05-1.22-.16-.29-.11-.5-.28-.64-.52-.15-.24-.22-.5-.22-.78,0-.37.11-.64.33-.8.22-.16.55-.24.99-.24h3.79v-1h-3.39c-.6,0-1.04-.14-1.31-.41-.27-.28-.41-.62-.41-1.04,0-.23.05-.43.16-.6.11-.17.25-.29.42-.35.18-.07.46-.1.85-.1h3.68v-1h-4.01c-.66,0-1.16.16-1.48.47-.32.31-.48.76-.48,1.35,0,.75.34,1.35,1.02,1.82-.32.11-.57.31-.75.59-.18.28-.27.64-.27,1.07,0,.39.08.74.26,1.05.17.31.41.55.69.74h-.82v.9h5.84v-1Z"/>
    <path d="M1119.95,741.02v.64c.35.17.71.47,1.08.89.37.42.68.9.94,1.46h.96c-.11-.31-.29-.66-.51-1.05-.23-.39-.46-.7-.68-.95h6.3v-1h-8.09ZM1128.04,737.09h-3.03c-.53,0-.94-.05-1.22-.16-.29-.11-.5-.28-.64-.52-.15-.24-.22-.5-.22-.78,0-.37.11-.63.33-.8.22-.16.55-.24.99-.24h3.79v-1h-3.39c-.6,0-1.04-.14-1.31-.41-.27-.27-.41-.62-.41-1.03,0-.23.05-.43.16-.6.11-.17.25-.29.42-.35.18-.07.46-.1.85-.1h3.68v-.99h-4.01c-.66,0-1.16.16-1.48.47-.32.31-.48.76-.48,1.35,0,.75.34,1.35,1.02,1.82-.32.11-.57.31-.75.59-.18.28-.27.64-.27,1.07,0,.39.08.74.26,1.05.17.31.41.55.69.74h-.82v.89h5.84v-1Z"/>
    <path d="M1128.04,915.85h-6.86l6.86-2.35v-.97l-6.74-2.36h6.74v-1.04h-8.06v1.45l5.61,1.94c.57.2,1,.34,1.29.44-.27.08-.66.21-1.19.39l-5.71,1.92v1.62h8.06v-1.04ZM1128.04,903.82v-1.04c-.23.13-.46.21-.7.25-.24.04-.83.06-1.74.06h-1.32c-.44,0-.74.02-.91.05-.27.06-.49.16-.67.31-.18.15-.33.38-.44.69-.12.31-.18.72-.18,1.23s.07.95.2,1.34c.14.39.34.68.59.88.25.21.59.35,1,.44l.13-.98c-.42-.11-.7-.27-.87-.49-.16-.22-.25-.57-.25-1.04,0-.5.11-.88.34-1.14.16-.19.45-.28.85-.28.03,0,.12,0,.26,0,.13.38.24.97.34,1.78.05.4.1.69.15.89.08.26.18.5.33.72.14.21.33.38.57.51.24.13.5.2.78.2.49,0,.89-.18,1.2-.52.32-.35.47-.85.47-1.49,0-.39-.07-.76-.19-1.1-.13-.34-.35-.7-.66-1.07.27-.03.51-.1.72-.2M1125.48,904.1c.44,0,.77.06.99.16.29.14.52.36.69.66.16.3.25.64.25,1.03s-.09.68-.26.88c-.18.2-.39.3-.66.3-.17,0-.33-.05-.47-.14-.14-.09-.25-.22-.32-.39-.07-.17-.14-.46-.2-.87-.1-.72-.23-1.27-.37-1.63h.36ZM1121.42,906.19c.2-.2.29-.43.29-.71s-.09-.5-.29-.7c-.19-.2-.43-.29-.71-.29s-.52.1-.71.29c-.2.2-.29.43-.29.7s.1.5.29.7c.2.2.42.3.69.3.29,0,.54-.1.73-.29M1120.28,905.89c-.12-.12-.17-.26-.17-.41s.06-.3.17-.42c.12-.11.26-.17.42-.17s.31.06.43.18c.11.12.17.25.17.42s-.06.29-.17.41c-.12.12-.26.18-.44.18-.16,0-.3-.06-.42-.18"/>
    <rect x="1119.99" y="900.48" width="8.06" height="1"/>
    <path d="M1119.95,892.23v.65c.35.17.71.47,1.07.89.37.42.69.91.95,1.46h.96c-.11-.31-.28-.66-.51-1.05-.23-.39-.46-.71-.68-.95h6.3v-1h-8.09ZM1122.21,889.03h1.13v-1.14h-1.13v1.14ZM1126.92,889.03h1.13v-1.14h-1.13v1.14Z"/>
    <path d="M1127.57,885.74c.41-.47.61-1.07.61-1.81,0-.9-.32-1.61-.98-2.14-.53-.43-1.16-.64-1.89-.64s-1.39.24-1.88.73c-.49.49-.73,1.09-.73,1.8,0,.54.17,1.05.5,1.54l-2.16-.44v-3.25h-.94v4.05l4.14.79.12-.94c-.23-.15-.42-.35-.57-.61-.14-.26-.21-.55-.21-.87,0-.52.16-.94.49-1.26.33-.32.77-.48,1.33-.48.59,0,1.07.17,1.43.5.36.33.54.74.54,1.22,0,.4-.13.74-.38,1.03-.25.28-.63.46-1.14.54l.09,1.05c.68-.07,1.22-.34,1.63-.8M1127.35,879.32c.56-.45.83-1.06.83-1.85,0-.6-.16-1.09-.47-1.48-.32-.39-.77-.68-1.35-.88-.58-.2-1.34-.3-2.29-.3-.8,0-1.43.06-1.9.18-.47.12-.87.29-1.2.51-.33.21-.58.49-.76.82-.18.33-.26.71-.26,1.15,0,.59.16,1.08.47,1.47.31.39.76.68,1.34.88.58.2,1.35.3,2.3.3,1.51,0,2.6-.27,3.27-.81M1121.35,878.59c-.38-.27-.58-.64-.58-1.1s.22-.86.66-1.17,1.32-.47,2.64-.47,2.2.15,2.64.47c.44.31.66.7.66,1.16s-.22.84-.66,1.16c-.44.31-1.32.47-2.64.47s-2.23-.17-2.72-.51"/>
    <polygon class="st21" points="1128.04 528.9 1105.43 517.76 1112.18 503.24 1135.13 514.38 1128.04 528.9"/>
    <polygon points="1125.29 523.15 1113.95 517.66 1128.98 515.54 1129.93 513.57 1115.49 506.58 1114.6 508.42 1125.94 513.91 1110.92 516.03 1109.96 518 1124.4 524.99 1125.29 523.15"/>
    <path d="M1127.55,587.02c.42-.47.63-1.07.63-1.78,0-.79-.25-1.45-.74-1.97-.49-.52-1.08-.77-1.79-.77-.52,0-.95.13-1.3.4-.35.27-.58.64-.68,1.12-.17-.37-.4-.65-.68-.84-.29-.19-.61-.28-.95-.28-.36,0-.71.1-1.04.3-.32.2-.58.49-.77.86-.19.37-.28.78-.28,1.22,0,.64.18,1.18.55,1.62.36.43.88.71,1.54.83l.18-1c-.48-.07-.85-.24-1.09-.5s-.36-.58-.36-.97.12-.71.36-.96c.24-.25.54-.37.9-.37.46,0,.79.17,1.02.51.22.34.33.72.33,1.15,0,.04,0,.09,0,.16l.87.11c-.07-.28-.11-.52-.11-.7,0-.47.15-.85.44-1.15s.67-.45,1.13-.45.87.16,1.2.48c.32.33.48.72.48,1.19,0,.4-.12.73-.37,1.01-.25.27-.65.47-1.21.58l.13,1c.67-.07,1.22-.34,1.64-.81M1128.04,580.48h-3.03c-.53,0-.94-.05-1.22-.16-.29-.1-.5-.28-.64-.52-.15-.24-.22-.5-.22-.78,0-.37.11-.63.33-.8.22-.16.55-.24.99-.24h3.79v-1h-3.39c-.6,0-1.04-.14-1.31-.41-.27-.27-.41-.62-.41-1.03,0-.23.05-.43.16-.6.11-.17.25-.29.42-.35.18-.07.46-.1.85-.1h3.68v-.99h-4.01c-.66,0-1.16.16-1.48.47-.32.31-.48.76-.48,1.35,0,.75.34,1.35,1.02,1.82-.32.11-.57.31-.75.59-.18.28-.27.64-.27,1.07,0,.39.08.74.26,1.05.17.31.41.55.69.74h-.82v.89h5.84v-1Z"/>
    <rect class="st21" x="47.61" y="1144.88" width="18.9" height="111.72"/>
    <path d="M51.07,1250.33v.96c.52.26,1.05.69,1.61,1.32.55.62,1.02,1.34,1.41,2.17h1.43c-.17-.46-.43-.98-.76-1.56-.34-.58-.68-1.05-1.02-1.41h9.41v-1.48h-12.08ZM61.46,1245.62h1.68v-1.69h-1.68v1.69ZM61.44,1240.96c.64-.42,1.11-1,1.43-1.74.32-.74.48-1.65.48-2.75,0-.86-.15-1.63-.47-2.33-.31-.69-.76-1.22-1.32-1.58-.57-.37-1.17-.55-1.81-.55s-1.21.17-1.71.5c-.49.34-.9.85-1.23,1.56-.22.48-.48,1.37-.77,2.67-.29,1.3-.58,2.1-.86,2.41-.28.31-.63.47-1.07.47-.5,0-.92-.22-1.27-.66-.35-.44-.53-1.15-.53-2.11s.2-1.63.58-2.1c.39-.47.96-.75,1.72-.84l-.12-1.53c-.71.03-1.34.23-1.89.59-.56.37-.98.89-1.27,1.58-.29.68-.43,1.47-.43,2.37,0,.81.14,1.55.41,2.21.27.67.67,1.17,1.2,1.52.53.35,1.1.52,1.71.52.55,0,1.05-.14,1.49-.42.44-.28.82-.71,1.12-1.29.24-.44.49-1.22.75-2.33.27-1.11.46-1.83.59-2.15.19-.51.43-.87.71-1.09.28-.22.61-.33.99-.33s.71.11,1.03.34c.31.23.56.57.74,1.04.18.47.27,1.01.27,1.61,0,.69-.12,1.3-.36,1.85-.24.55-.55.95-.93,1.21-.39.26-.88.43-1.48.5l.13,1.51c.8-.02,1.53-.24,2.16-.66M63.14,1223.94v-1.55c-.33.19-.68.31-1.04.38-.36.06-1.23.09-2.61.09h-1.97c-.66,0-1.11.03-1.36.07-.4.09-.74.24-1,.46-.27.22-.49.56-.66,1.03-.17.47-.26,1.07-.26,1.82s.1,1.41.31,1.99c.21.57.5,1.01.88,1.31.38.3.88.52,1.5.65l.2-1.45c-.62-.16-1.05-.4-1.29-.74-.24-.33-.36-.84-.36-1.54,0-.75.17-1.31.5-1.69.25-.28.67-.42,1.27-.42.05,0,.18,0,.39,0,.2.56.37,1.45.51,2.64.07.59.14,1.02.22,1.32.11.4.27.75.48,1.07.21.31.5.57.85.76.35.2.74.29,1.17.29.73,0,1.32-.26,1.8-.77.47-.52.7-1.25.7-2.21,0-.58-.09-1.13-.29-1.63-.19-.51-.52-1.04-.99-1.59.41-.05.77-.14,1.08-.3M59.31,1224.36c.65,0,1.14.08,1.48.24.43.21.77.53,1.02.98.25.45.37.95.37,1.53s-.13,1.01-.39,1.31c-.26.3-.59.45-.98.45-.26,0-.49-.07-.7-.21-.21-.14-.37-.33-.48-.59-.11-.25-.21-.68-.3-1.29-.15-1.08-.34-1.88-.56-2.42h.54ZM51.12,1220.52h12.03v-1.48h-12.03v1.48ZM54.43,1216.24h1.68v-1.69h-1.68v1.69ZM61.46,1216.24h1.68v-1.69h-1.68v1.69ZM51.86,1200.94c-.53.6-.79,1.38-.79,2.33,0,1.27.46,2.29,1.38,3.04,1.06.86,2.75,1.29,5.07,1.29,2.08,0,3.57-.39,4.48-1.17.91-.78,1.36-1.78,1.36-3.02,0-.73-.17-1.37-.52-1.94-.35-.57-.84-1.02-1.49-1.35-.65-.33-1.35-.49-2.1-.49-1.15,0-2.08.35-2.81,1.04-.72.69-1.08,1.53-1.08,2.52,0,.57.13,1.11.39,1.62.26.51.66.95,1.21,1.31-1.21,0-2.13-.15-2.78-.42-.65-.27-1.14-.64-1.48-1.11-.26-.35-.39-.77-.39-1.24,0-.59.21-1.08.63-1.48.26-.24.68-.43,1.26-.56l-.12-1.48c-.93.12-1.67.49-2.2,1.09M57.36,1205.19c-.48-.46-.72-1.03-.72-1.7s.24-1.23.72-1.68c.48-.44,1.13-.66,1.96-.66s1.55.22,2.05.67c.5.45.76.99.76,1.61,0,.43-.12.84-.37,1.23-.24.39-.6.69-1.06.91-.47.22-.95.33-1.46.33-.78,0-1.4-.23-1.88-.7M61.46,1197.24h1.68v-1.69h-1.68v1.69ZM63.14,1188.17c0-.77-.07-1.42-.2-1.95-.14-.53-.33-.97-.6-1.32-.26-.35-.63-.65-1.12-.88-.49-.24-1.01-.36-1.57-.36-.7,0-1.31.2-1.82.59-.51.39-.88.95-1.09,1.68-.28-.57-.64-.99-1.1-1.27-.45-.28-.94-.42-1.45-.42-.55,0-1.08.16-1.59.48-.51.31-.88.75-1.13,1.31-.24.56-.36,1.3-.36,2.22v4.52h12.02v-4.6ZM52.53,1191.17v-2.41c0-.87.06-1.48.17-1.84.11-.35.32-.63.62-.82.3-.19.65-.29,1.05-.29.42,0,.77.1,1.05.31.28.21.48.51.6.92.09.31.14.82.14,1.52v2.61h-3.63ZM57.59,1191.17v-2.79c0-.77.07-1.36.2-1.77.13-.41.37-.73.7-.96.33-.23.72-.35,1.17-.35.38,0,.72.08,1.01.24.29.16.51.36.67.61.15.25.27.56.33.92.04.21.05.57.05,1.09v3h-4.13ZM61.46,1181.15h1.68v-1.69h-1.68v1.69ZM51.07,1171.63v.95c.52.26,1.05.7,1.61,1.32.55.62,1.02,1.35,1.41,2.17h1.43c-.17-.46-.43-.98-.76-1.56-.34-.58-.68-1.05-1.02-1.4h9.41v-1.48h-12.08ZM61.46,1166.92h1.68v-1.69h-1.68v1.69ZM51.07,1157.41v.96c.52.26,1.05.69,1.61,1.32.55.62,1.02,1.34,1.41,2.17h1.43c-.17-.46-.43-.98-.76-1.56-.34-.58-.68-1.05-1.02-1.4h9.41v-1.48h-12.08Z"/>
    <path d="M62.43,1152.45c.61-.69.92-1.59.92-2.69,0-1.34-.49-2.4-1.46-3.17-.79-.64-1.73-.95-2.82-.95s-2.08.36-2.81,1.08c-.73.73-1.09,1.62-1.09,2.67,0,.8.25,1.56.76,2.28l-3.23-.65v-4.81h-1.41v6l6.18,1.17.18-1.39c-.34-.22-.62-.52-.84-.9-.22-.39-.33-.82-.33-1.29,0-.77.24-1.39.73-1.86.49-.47,1.15-.71,1.99-.71.89,0,1.6.25,2.13.74.54.49.81,1.1.81,1.81,0,.59-.19,1.1-.57,1.52-.38.42-.95.69-1.7.8l.13,1.56c1.01-.1,1.82-.49,2.43-1.19"/>
    <rect class="st21" x="70.9" y="1144.88" width="18.9" height="111.72"/>
    <path d="M85.01,1254.04c-.26-.16-.53-.37-.8-.62-.26-.25-.77-.83-1.51-1.71-.9-1.07-1.6-1.83-2.12-2.29-.51-.46-1-.78-1.47-.98-.47-.2-.94-.3-1.42-.3-.95,0-1.74.34-2.38,1.01s-.96,1.59-.96,2.75.3,2.06.89,2.74c.59.68,1.46,1.07,2.59,1.18l.16-1.52c-.76,0-1.35-.22-1.77-.65-.43-.43-.64-1-.64-1.71,0-.67.2-1.22.6-1.64.4-.42.9-.63,1.48-.63s1.15.23,1.78.69c.62.46,1.47,1.35,2.55,2.66.69.84,1.3,1.49,1.82,1.94.53.45,1.06.77,1.6.97.33.13.67.18,1.03.17v-7.98h-1.42v5.92ZM84.75,1245.62h1.68v-1.69h-1.68v1.69ZM84.73,1240.96c.64-.42,1.11-1,1.43-1.74.32-.74.48-1.65.48-2.75,0-.86-.16-1.63-.47-2.33-.31-.69-.76-1.22-1.32-1.58-.57-.37-1.17-.55-1.81-.55s-1.21.17-1.71.5c-.49.34-.9.85-1.23,1.56-.22.48-.48,1.37-.77,2.67-.29,1.3-.58,2.1-.86,2.41-.28.31-.63.47-1.07.47-.5,0-.92-.22-1.28-.66-.35-.44-.53-1.15-.53-2.11s.19-1.63.58-2.1c.39-.47.96-.75,1.72-.84l-.11-1.53c-.71.03-1.34.23-1.89.59-.56.37-.98.89-1.27,1.58-.29.68-.43,1.47-.43,2.37,0,.81.14,1.55.41,2.21.27.67.67,1.17,1.2,1.52.53.35,1.1.52,1.7.52.56,0,1.05-.14,1.5-.42.44-.28.82-.71,1.12-1.29.24-.44.49-1.22.75-2.33.27-1.11.46-1.83.59-2.15.19-.51.43-.87.71-1.09.28-.22.61-.33.99-.33s.71.11,1.03.34c.31.23.56.57.74,1.04.18.47.27,1.01.27,1.61,0,.69-.12,1.3-.36,1.85-.24.55-.55.95-.93,1.21-.39.26-.88.43-1.48.5l.13,1.51c.8-.02,1.53-.24,2.16-.66M86.43,1223.94v-1.55c-.33.19-.68.31-1.04.38-.36.06-1.23.09-2.61.09h-1.97c-.66,0-1.11.03-1.36.07-.4.09-.74.24-1,.46-.27.22-.49.56-.66,1.03-.18.47-.26,1.07-.26,1.82s.1,1.41.31,1.99c.21.57.5,1.01.88,1.31.38.3.88.52,1.5.65l.2-1.45c-.62-.16-1.05-.4-1.29-.74-.24-.33-.36-.84-.36-1.54,0-.75.17-1.31.5-1.69.25-.28.67-.42,1.27-.42.05,0,.18,0,.39,0,.2.56.36,1.45.51,2.64.07.59.14,1.02.22,1.32.11.4.27.75.48,1.07.21.31.5.57.85.76.35.2.74.29,1.17.29.73,0,1.32-.26,1.8-.77.47-.52.7-1.25.7-2.21,0-.58-.09-1.13-.29-1.63-.19-.51-.52-1.04-.99-1.59.41-.05.77-.14,1.08-.3M82.6,1224.36c.65,0,1.14.08,1.47.24.43.21.77.53,1.02.98.25.45.37.95.37,1.53s-.13,1.01-.39,1.31c-.26.3-.59.45-.98.45-.26,0-.49-.07-.7-.21-.21-.14-.37-.33-.48-.59-.11-.25-.21-.68-.3-1.29-.15-1.08-.34-1.88-.56-2.42h.54ZM74.41,1220.52h12.03v-1.48h-12.03v1.48ZM77.72,1216.24h1.68v-1.69h-1.68v1.69ZM84.75,1216.24h1.68v-1.69h-1.68v1.69ZM75.15,1200.94c-.53.6-.79,1.38-.79,2.33,0,1.27.46,2.29,1.38,3.04,1.06.86,2.75,1.29,5.07,1.29,2.08,0,3.57-.39,4.48-1.17.91-.78,1.36-1.78,1.36-3.02,0-.73-.17-1.37-.52-1.94-.35-.57-.84-1.02-1.49-1.35-.65-.33-1.35-.49-2.1-.49-1.15,0-2.08.35-2.81,1.04-.72.69-1.08,1.53-1.08,2.52,0,.57.13,1.11.39,1.62.26.51.66.95,1.2,1.31-1.2,0-2.13-.15-2.78-.42-.65-.27-1.14-.64-1.48-1.11-.26-.35-.4-.77-.4-1.24,0-.59.21-1.08.63-1.48.26-.24.68-.43,1.26-.56l-.11-1.48c-.93.12-1.67.49-2.2,1.09M80.65,1205.19c-.48-.46-.72-1.03-.72-1.7s.24-1.23.72-1.68c.48-.44,1.13-.66,1.96-.66s1.55.22,2.05.67c.5.45.76.99.76,1.61,0,.43-.12.84-.37,1.23-.24.39-.59.69-1.06.91-.47.22-.95.33-1.46.33-.77,0-1.4-.23-1.88-.7M84.75,1197.24h1.68v-1.69h-1.68v1.69ZM86.43,1188.17c0-.77-.07-1.42-.2-1.95-.14-.53-.33-.97-.6-1.32-.26-.35-.64-.65-1.12-.88-.49-.24-1.01-.36-1.57-.36-.7,0-1.31.2-1.82.59-.51.39-.88.95-1.09,1.68-.28-.57-.64-.99-1.1-1.27-.45-.28-.94-.42-1.45-.42-.55,0-1.08.16-1.59.48-.51.31-.88.75-1.13,1.31-.24.56-.36,1.3-.36,2.22v4.52h12.02v-4.6ZM75.82,1191.17v-2.41c0-.87.06-1.48.17-1.84.11-.35.32-.63.62-.82.3-.19.65-.29,1.05-.29.42,0,.77.1,1.05.31.28.21.48.51.6.92.09.31.14.82.14,1.52v2.61h-3.63ZM80.88,1191.17v-2.79c0-.77.07-1.36.2-1.77.13-.41.37-.73.7-.96.33-.23.72-.35,1.17-.35.39,0,.72.08,1.02.24.29.16.51.36.67.61.15.25.27.56.33.92.04.21.06.57.06,1.09v3h-4.13ZM84.75,1181.15h1.68v-1.69h-1.68v1.69ZM85.01,1175.34c-.26-.17-.53-.37-.8-.62-.26-.25-.77-.82-1.51-1.71-.9-1.06-1.6-1.82-2.12-2.28-.51-.46-1-.79-1.47-.98-.47-.2-.94-.3-1.42-.3-.95,0-1.74.34-2.38,1.01-.64.67-.96,1.59-.96,2.75s.3,2.06.89,2.74c.59.68,1.46,1.08,2.59,1.18l.16-1.52c-.76,0-1.35-.22-1.77-.65-.43-.43-.64-1-.64-1.71,0-.67.2-1.22.6-1.64.4-.42.9-.63,1.48-.63s1.15.23,1.78.69c.62.46,1.47,1.35,2.55,2.66.69.84,1.3,1.49,1.82,1.94.53.45,1.06.77,1.6.97.33.13.67.18,1.03.17v-7.98h-1.42v5.92ZM84.75,1166.92h1.68v-1.69h-1.68v1.69ZM74.36,1157.41v.96c.52.26,1.05.69,1.61,1.32.55.62,1.02,1.34,1.41,2.17h1.43c-.17-.46-.43-.98-.76-1.56-.34-.58-.68-1.05-1.02-1.4h9.41v-1.48h-12.08Z"/>
    <path d="M85.72,1152.45c.61-.69.92-1.59.92-2.69,0-1.34-.49-2.4-1.46-3.17-.79-.64-1.73-.95-2.82-.95s-2.08.36-2.81,1.08c-.73.73-1.09,1.62-1.09,2.67,0,.8.25,1.56.76,2.28l-3.23-.65v-4.81h-1.41v6l6.18,1.17.18-1.39c-.34-.22-.62-.52-.84-.9-.21-.39-.32-.82-.32-1.29,0-.77.24-1.39.73-1.86.49-.47,1.15-.71,1.99-.71.89,0,1.6.25,2.13.74.54.49.81,1.1.81,1.81,0,.59-.19,1.1-.57,1.52-.38.42-.95.69-1.7.8l.13,1.56c1.01-.1,1.82-.49,2.43-1.19"/>
    <rect class="st21" x="93.18" y="1144.88" width="18.9" height="111.72"/>
    <path d="M107.98,1254.7c.63-.7.95-1.58.95-2.64,0-1.17-.36-2.15-1.1-2.92-.73-.77-1.62-1.15-2.67-1.15-.78,0-1.43.2-1.94.59-.51.39-.85.95-1.02,1.66-.25-.55-.59-.96-1.02-1.24-.43-.28-.9-.42-1.42-.42-.55,0-1.07.15-1.55.44-.49.29-.87.72-1.15,1.27-.28.56-.42,1.16-.42,1.82,0,.95.27,1.75.82,2.4.55.64,1.31,1.05,2.3,1.23l.26-1.48c-.72-.11-1.26-.35-1.62-.74-.36-.38-.54-.86-.54-1.44s.18-1.06.53-1.42c.36-.37.8-.55,1.34-.55.69,0,1.19.25,1.52.75.33.51.49,1.07.49,1.7,0,.06,0,.14-.01.24l1.29.16c-.11-.42-.16-.76-.16-1.04,0-.69.22-1.25.66-1.7.44-.44,1-.66,1.68-.66s1.31.24,1.79.72c.48.48.72,1.07.72,1.77,0,.59-.19,1.08-.55,1.49-.37.41-.97.7-1.81.87l.2,1.48c1-.1,1.82-.5,2.44-1.2M107.03,1245.62h1.68v-1.69h-1.68v1.69ZM107.01,1240.96c.64-.42,1.11-1,1.43-1.74.32-.74.48-1.65.48-2.75,0-.86-.15-1.63-.47-2.33-.31-.69-.76-1.22-1.32-1.58-.57-.37-1.17-.55-1.81-.55s-1.22.17-1.71.5c-.49.34-.9.85-1.23,1.56-.22.48-.48,1.37-.77,2.67-.29,1.3-.58,2.1-.86,2.41-.28.31-.63.47-1.07.47-.5,0-.92-.22-1.28-.66-.35-.44-.53-1.15-.53-2.11s.2-1.63.58-2.1c.39-.47.96-.75,1.72-.84l-.12-1.53c-.71.03-1.34.23-1.89.59-.56.37-.98.89-1.27,1.58-.29.68-.43,1.47-.43,2.37,0,.81.14,1.55.41,2.21.27.67.67,1.17,1.2,1.52.53.35,1.09.52,1.7.52.56,0,1.05-.14,1.5-.42.44-.28.82-.71,1.12-1.29.24-.44.49-1.22.75-2.33.27-1.11.46-1.83.59-2.15.19-.51.43-.87.71-1.09.28-.22.61-.33.99-.33s.71.11,1.03.34c.31.23.56.57.74,1.04.18.47.27,1.01.27,1.61,0,.69-.12,1.3-.36,1.85-.24.55-.55.95-.94,1.21-.39.26-.88.43-1.48.5l.13,1.51c.8-.02,1.53-.24,2.16-.66M108.71,1223.94v-1.55c-.33.19-.68.31-1.05.38-.36.06-1.23.09-2.61.09h-1.97c-.66,0-1.11.03-1.36.07-.4.09-.74.24-1,.46-.27.22-.49.56-.66,1.03-.17.47-.26,1.07-.26,1.82s.1,1.41.31,1.99c.21.57.5,1.01.88,1.31.38.3.88.52,1.5.65l.2-1.45c-.62-.16-1.05-.4-1.29-.74-.24-.33-.36-.84-.36-1.54,0-.75.17-1.31.5-1.69.25-.28.67-.42,1.27-.42.05,0,.18,0,.39,0,.2.56.36,1.45.51,2.64.07.59.14,1.02.22,1.32.11.4.27.75.49,1.07.21.31.49.57.85.76.35.2.74.29,1.17.29.73,0,1.33-.26,1.8-.77.47-.52.7-1.25.7-2.21,0-.58-.09-1.13-.29-1.63-.19-.51-.52-1.04-.99-1.59.41-.05.77-.14,1.08-.3M104.88,1224.36c.65,0,1.14.08,1.48.24.43.21.77.53,1.02.98.25.45.37.95.37,1.53s-.13,1.01-.39,1.31c-.26.3-.59.45-.98.45-.26,0-.49-.07-.7-.21-.21-.14-.37-.33-.48-.59-.11-.25-.21-.68-.3-1.29-.15-1.08-.34-1.88-.56-2.42h.54ZM96.68,1220.52h12.03v-1.48h-12.03v1.48ZM100,1216.24h1.68v-1.69h-1.68v1.69ZM107.03,1216.24h1.68v-1.69h-1.68v1.69ZM97.43,1200.94c-.53.6-.79,1.38-.79,2.33,0,1.27.46,2.29,1.38,3.04,1.06.86,2.75,1.29,5.07,1.29,2.08,0,3.57-.39,4.48-1.17.91-.78,1.36-1.78,1.36-3.02,0-.73-.17-1.37-.52-1.94-.35-.57-.84-1.02-1.49-1.35-.65-.33-1.35-.49-2.1-.49-1.15,0-2.08.35-2.81,1.04-.72.69-1.08,1.53-1.08,2.52,0,.57.13,1.11.39,1.62.26.51.66.95,1.21,1.31-1.21,0-2.13-.15-2.78-.42-.65-.27-1.14-.64-1.48-1.11-.27-.35-.4-.77-.4-1.24,0-.59.21-1.08.63-1.48.26-.24.68-.43,1.26-.56l-.12-1.48c-.93.12-1.67.49-2.2,1.09M102.93,1205.19c-.48-.46-.72-1.03-.72-1.7s.24-1.23.72-1.68c.48-.44,1.13-.66,1.96-.66s1.55.22,2.05.67c.5.45.76.99.76,1.61,0,.43-.12.84-.37,1.23-.24.39-.6.69-1.06.91-.47.22-.95.33-1.46.33-.78,0-1.4-.23-1.88-.7M107.03,1197.24h1.68v-1.69h-1.68v1.69ZM108.71,1188.17c0-.77-.07-1.42-.2-1.95-.13-.53-.33-.97-.6-1.32-.26-.35-.63-.65-1.12-.88-.49-.24-1.01-.36-1.57-.36-.7,0-1.31.2-1.82.59-.51.39-.88.95-1.09,1.68-.28-.57-.64-.99-1.1-1.27-.45-.28-.94-.42-1.45-.42-.56,0-1.08.16-1.59.48-.51.31-.88.75-1.12,1.31-.24.56-.36,1.3-.36,2.22v4.52h12.03v-4.6ZM98.1,1191.17v-2.41c0-.87.06-1.48.17-1.84.11-.35.32-.63.62-.82.3-.19.65-.29,1.05-.29.42,0,.77.1,1.05.31.28.21.48.51.6.92.09.31.14.82.14,1.52v2.61h-3.63ZM103.16,1191.17v-2.79c0-.77.07-1.36.2-1.77.14-.41.37-.73.7-.96.33-.23.72-.35,1.17-.35.39,0,.72.08,1.02.24.29.16.51.36.67.61.15.25.27.56.33.92.04.21.06.57.06,1.09v3h-4.14ZM107.03,1181.15h1.68v-1.69h-1.68v1.69ZM107.98,1176.01c.63-.7.95-1.58.95-2.64,0-1.18-.36-2.15-1.1-2.92-.73-.77-1.62-1.15-2.67-1.15-.78,0-1.43.2-1.94.59-.51.4-.85.95-1.02,1.67-.25-.55-.59-.96-1.02-1.24-.43-.28-.9-.42-1.42-.42-.55,0-1.07.15-1.55.44-.49.29-.87.72-1.15,1.27-.28.55-.42,1.16-.42,1.82,0,.96.27,1.75.82,2.4.55.64,1.31,1.05,2.3,1.24l.26-1.48c-.72-.11-1.26-.35-1.62-.74-.36-.38-.54-.87-.54-1.44s.18-1.05.53-1.42c.36-.37.8-.55,1.34-.55.69,0,1.19.25,1.52.75.33.51.49,1.08.49,1.7,0,.06,0,.14-.01.24l1.29.17c-.11-.42-.16-.76-.16-1.05,0-.69.22-1.25.66-1.7.44-.45,1-.66,1.68-.66s1.31.24,1.79.72c.48.48.72,1.07.72,1.77,0,.59-.19,1.08-.55,1.49-.37.41-.97.7-1.81.87l.2,1.48c1-.1,1.82-.5,2.44-1.2M107.03,1166.92h1.68v-1.69h-1.68v1.69ZM96.63,1157.41v.96c.52.26,1.05.69,1.61,1.32.55.62,1.02,1.34,1.41,2.17h1.43c-.17-.46-.43-.98-.76-1.56-.34-.58-.68-1.05-1.02-1.4h9.41v-1.48h-12.08Z"/>
    <path d="M108,1152.45c.61-.69.92-1.59.92-2.69,0-1.34-.49-2.4-1.46-3.17-.79-.64-1.73-.95-2.82-.95s-2.08.36-2.81,1.08c-.73.73-1.09,1.62-1.09,2.67,0,.8.25,1.56.76,2.28l-3.23-.65v-4.81h-1.41v6l6.18,1.17.18-1.39c-.34-.22-.62-.52-.84-.9-.22-.39-.33-.82-.33-1.29,0-.77.24-1.39.73-1.86.49-.47,1.15-.71,1.99-.71.89,0,1.6.25,2.13.74.54.49.81,1.1.81,1.81,0,.59-.19,1.1-.57,1.52-.38.42-.95.69-1.7.8l.13,1.56c1.01-.1,1.82-.49,2.43-1.19"/>
    <line class="st2" x1="639.3" y1="983.55" x2="758.79" y2="931.57"/>
  </g>
</svg>