<?xml version="1.0" encoding="UTF-8"?>
<svg id="Layer_1" xmlns="http://www.w3.org/2000/svg" xmlns:xlink="http://www.w3.org/1999/xlink" version="1.1" viewBox="0 0 1200 1697.14">
  <!-- Generator: Adobe Illustrator 29.6.0, SVG Export Plug-In . SVG Version: 2.1.1 Build 207)  -->
  <defs>
    <style>
      .st0, .st1, .st2, .st3 {
        fill: none;
      }

      .st1 {
        stroke: #0d0e1c;
      }

      .st1, .st2, .st3 {
        stroke-linecap: round;
        stroke-linejoin: round;
      }

      .st1, .st3 {
        stroke-width: .08px;
      }

      .st2 {
        stroke-width: .14px;
      }

      .st2, .st3 {
        stroke: #000;
      }

      .st4 {
        clip-path: url(#clippath-1);
      }

      .st5 {
        clip-path: url(#clippath-3);
      }

      .st6 {
        clip-path: url(#clippath-4);
      }

      .st7 {
        clip-path: url(#clippath-2);
      }

      .st8 {
        clip-path: url(#clippath-7);
      }

      .st9 {
        clip-path: url(#clippath-6);
      }

      .st10 {
        clip-path: url(#clippath-9);
      }

      .st11 {
        clip-path: url(#clippath-8);
      }

      .st12 {
        clip-path: url(#clippath-5);
      }

      .st13 {
        fill: #fff;
      }

      .st14 {
        fill: #ece9e5;
      }

      .st15 {
        fill: #302c35;
      }

      .st16 {
        clip-path: url(#clippath);
      }
    </style>
    <clipPath id="clippath">
      <rect class="st0" x="242.13" y="441.48" width="715.75" height="814.19"/>
    </clipPath>
    <clipPath id="clippath-1">
      <rect class="st0" x="444.77" y="749.72" width="72.57" height="159.65"/>
    </clipPath>
    <clipPath id="clippath-2">
      <rect class="st0" x="242.13" y="441.48" width="715.75" height="814.19"/>
    </clipPath>
    <clipPath id="clippath-3">
      <rect class="st0" x="521.44" y="977.68" width="28.6" height="39.22"/>
    </clipPath>
    <clipPath id="clippath-4">
      <rect class="st0" x="242.13" y="441.48" width="715.75" height="814.19"/>
    </clipPath>
    <clipPath id="clippath-5">
      <rect class="st0" x="242.13" y="441.48" width="715.75" height="814.19"/>
    </clipPath>
    <clipPath id="clippath-6">
      <rect class="st0" x="451.61" y="1061.09" width="27.51" height="37.12"/>
    </clipPath>
    <clipPath id="clippath-7">
      <rect class="st0" x="242.13" y="441.48" width="715.75" height="814.19"/>
    </clipPath>
    <clipPath id="clippath-8">
      <rect class="st0" x="242.13" y="441.48" width="715.75" height="814.19"/>
    </clipPath>
    <clipPath id="clippath-9">
      <rect class="st0" x="242.13" y="441.48" width="715.75" height="814.19"/>
    </clipPath>
  </defs>
  <rect class="st14" x="425.7" y="646.09" width="360.14" height="481.99"/>
  <rect class="st14" x="472.96" y="537.99" width="248.55" height="138.81"/>
  <rect class="st13" x="699.44" y="892.49" width="55.69" height="231.42"/>
  <rect class="st13" x="769.64" y="695.6" width="47.93" height="191.49"/>
  <rect class="st13" x="494.46" y="650.48" width="208.82" height="11.81"/>
  <rect class="st15" x="425.7" y="646.09" width="73.24" height="46.92"/>
  <rect class="st15" x="425.7" y="1112.22" width="153.91" height="15.87"/>
  <rect class="st15" x="651.17" y="1112.22" width="117.12" height="15.87"/>
  <rect class="st15" x="747.03" y="885.4" width="16.2" height="242.68"/>
  <rect class="st15" x="425.7" y="693.01" width="17.55" height="419.21"/>
  <rect class="st15" x="472.96" y="534.76" width="249.43" height="4.05"/>
  <rect class="st15" x="718.45" y="538.8" width="4.05" height="123.5"/>
  <rect class="st15" x="472.96" y="538.48" width="4.05" height="123.81"/>
  <rect class="st15" x="763.23" y="1061.59" width="11.81" height="66.49"/>
  <rect class="st15" x="775.05" y="1061.59" width="10.8" height="66.49"/>
  <rect class="st15" x="691.34" y="988.35" width="55.69" height="5.74"/>
  <rect class="st15" x="444.94" y="1105.47" width="125.9" height="13.55"/>
  <rect class="st15" x="564.43" y="971.13" width="6.41" height="54.68"/>
  <rect class="st15" x="444.94" y="971.13" width="120.83" height="5.07"/>
  <rect class="st15" x="440.33" y="971.13" width="9.68" height="143.37"/>
  <rect class="st15" x="450.01" y="976.19" width="115.77" height="1.35"/>
  <rect class="st15" x="564.43" y="1096.35" width="6.41" height="10.69"/>
  <rect class="st15" x="450.01" y="1104.12" width="115.77" height="1.35"/>
  <rect class="st15" x="450.01" y="976.2" width="1.35" height="127.92"/>
  <rect class="st15" x="443.26" y="911.39" width="119.48" height="7.76"/>
  <rect class="st15" x="562.74" y="911.39" width="8.1" height="59.74"/>
  <rect class="st15" x="763.23" y="885.4" width="22.62" height="176.19"/>
  <rect class="st15" x="747.03" y="662.29" width="38.82" height="59.4"/>
  <rect class="st15" x="696.06" y="646.09" width="89.78" height="46.92"/>
  <path class="st3" d="M443.26,919.15h119.48M562.74,919.15v51.98M562.74,971.13h-119.48M443.26,971.13v-51.98M696.06,676.81v16.2M696.06,693.01h50.97M443.26,693.01h55.69M498.95,693.01v-16.2M747.03,1112.22h-95.86M652.18,1128.08h94.85M425.7,1128.08h153.24M747.03,693.01v28.69M747.03,721.7h16.2M763.23,1128.08v-66.49M763.23,885.4h-16.2M425.7,693.01v419.21M582.32,1045.73l12.83,1.35M595.14,1047.08l12.49,3.71M607.63,1050.79l11.47,6.08M619.11,1056.86l10.13,8.44M629.24,1065.3l8.44,9.79M637.67,1075.09l6.07,11.47M643.75,1086.57l3.71,12.83M647.46,1099.39l1.35,12.83M579.62,1128.08v-15.87M651.17,1112.22v15.87M648.81,1112.22h-66.49M582.32,1112.22v-66.49M578.94,1112.22h.68"/>
  <path class="st3" d="M747.03,940.42h-1.01M743.66,940.42h-2.36M738.93,940.42h-2.36M733.87,940.42h-2.36M729.14,940.42h-2.36M724.42,940.42h-2.36M719.69,940.42h-2.36M714.97,940.42h-2.36M710.24,940.42h-2.7M705.18,940.42h-2.36M700.45,940.42h-1.01M699.44,940.42v-1.35M699.44,936.7v-2.36M699.44,931.98v-2.36M699.44,927.25v-2.36M699.44,922.53v-2.36M699.44,917.8v-2.7M699.44,912.74v-2.36M699.44,908.01v-2.36M699.44,903.29v-2.36M699.44,898.56v-2.36M699.44,893.84v-1.35M699.44,892.49h1.01M702.81,892.49h2.36M707.54,892.49h2.7M712.6,892.49h2.36M717.33,892.49h2.36M722.05,892.49h2.36M726.78,892.49h2.36M731.5,892.49h2.36M736.57,892.49h2.36M741.29,892.49h2.36M746.02,892.49h1.01M747.03,892.49v1.35M747.03,896.2v2.36M747.03,900.93v2.36M747.03,905.65v2.36M747.03,910.38v2.36M747.03,915.1v2.7M747.03,920.17v2.36M747.03,924.89v2.36M747.03,929.62v2.36M747.03,934.34v2.36M747.03,939.07v1.35M747.03,988.35h-1.01M743.66,988.35h-2.36M738.93,988.35h-2.36M733.87,988.35h-2.36M729.14,988.35h-2.36M724.42,988.35h-2.36M719.69,988.35h-2.36M714.97,988.35h-2.36M710.24,988.35h-2.7M705.18,988.35h-2.36M700.45,988.35h-1.01M699.44,988.35v-1.35M699.44,984.63v-2.36M699.44,979.91v-2.36M699.44,975.18v-2.36M699.44,970.12v-2.36M699.44,965.39v-2.36M699.44,960.67v-2.36M699.44,955.94v-2.36M699.44,951.22v-2.36M699.44,946.49v-2.36M699.44,941.43v-1.01M699.44,940.42h1.01M702.81,940.42h2.36M707.54,940.42h2.7M712.6,940.42h2.36M717.33,940.42h2.36M722.05,940.42h2.36M726.78,940.42h2.36M731.5,940.42h2.36M736.57,940.42h2.36M741.29,940.42h2.36M746.02,940.42h1.01M747.03,940.42v1.01M747.03,944.13v2.36M747.03,948.85v2.36M747.03,953.58v2.36M747.03,958.31v2.36M747.03,963.03v2.36M747.03,967.76v2.36M747.03,972.82v2.36M747.03,977.55v2.36M747.03,982.27v2.36M747.03,987v1.35M562.74,919.15h-119.49M443.26,919.15v51.98M443.26,971.13h119.49M562.74,971.13v-51.98M477.01,546.52v99.57M718.34,646.09v-99.57M718.34,646.09h4.05M722.39,646.09v-111.33M722.39,534.76h-249.43M472.96,534.76v111.33M472.96,646.09h4.05M477.01,646.09v-107.29M477.01,538.8h241.33M718.34,538.8v107.29M775.05,1061.59h-11.81M763.23,1061.59v66.49M775.05,1128.08v-66.49M783.82,1061.59h-8.78M775.05,1061.59v66.49M783.82,1128.08v-66.49M747.03,988.35h-55.69M691.34,988.35v5.74M691.34,994.08h55.69M781.46,882.03l1.35-2.7M784.16,877.3l1.35-2.02M786.52,873.25l1.35-2.02M788.88,869.2l1.35-2.36M791.25,864.81l1.35-2.02M793.61,860.76l1.35-2.02M795.97,856.71l1.35-2.03M798.67,852.32l1.01-2.02M801.04,848.27l1.01-2.03M803.4,844.22l1.01-2.03M805.76,840.17l1.01-2.36M808.12,835.78l1.01-2.02M810.49,831.73l1.01-2.03M812.85,827.68l1.35-2.02M815.21,823.29l1.35-2.03M817.57,819.24l1.69-2.36M781.46,806.76h1.69M785.51,807.09h2.36M790.23,807.43l2.36.34M794.96,807.77l2.36.68M799.69,809.12l2.36.67M804.41,810.47l2.36.68M808.8,811.82l2.36,1.01M813.19,813.84l2.03,1.01M817.57,815.87l1.69,1.01M777.07,726.76h3.71M777.07,802.71v-75.94M780.78,802.71h-3.71M780.78,726.76v75.94M780.78,876.96h-3.71M780.78,811.48v65.48M777.07,811.48h3.71M777.07,876.96v-65.48M769.65,808.11v72.23M769.65,808.11v72.23M769.65,726.76v75.94M781.46,880.34v-72.23M781.46,876.96v-65.48M781.46,802.71v-75.94M775.05,808.11h-5.4M775.05,880.34h-5.4M775.05,876.96v-65.48M775.05,880.34v-72.23M775.05,808.11h-5.4M775.05,811.48v-3.37M781.46,811.48h-6.41M781.46,802.71v8.77M769.65,802.71h11.81M769.65,808.11v-5.4M781.46,726.76h-11.81M781.46,722.71v4.05M769.65,722.71h11.81M769.65,726.76v-4.05M781.46,884.39h-11.81M781.46,876.96v7.43M775.05,876.96h6.41M775.05,880.34v-3.38M769.65,880.34h5.4M769.65,884.39v-4.05M781.46,806.76v75.27M781.46,882.36v-76.28M781.46,882.03v-75.27M781.46,880.34v-72.23M781.46,808.11v72.23M781.46,806.08v76.28M781.46,811.48v65.48M781.46,876.96v-65.48"/>
  <path class="st3" d="M502.32,575.21l13.16,1.35M515.49,576.56l12.49,3.38M527.98,579.94l11.81,5.4M539.79,585.34l10.8,7.43M550.59,592.76l9.45,9.45M560.04,602.21l7.43,10.8M567.47,613.01l5.74,11.81M573.2,624.83l3.38,12.83M576.58,637.65l1.01,12.83M502.32,650.48v-75.27M507.05,655.2h65.48M572.53,655.2v-4.05M572.53,651.15h-65.48M507.05,651.15v4.05M576.24,662.29h-72.57M507.05,650.48h65.48M507.05,656.89h65.48M576.24,656.89v5.4M503.67,656.89v5.4M503.67,656.89h72.57M499.96,662.29h3.71M503.67,662.29v-5.4M503.67,656.89h3.38M507.05,656.89v-6.41M507.05,650.48h-7.09M499.96,650.48v11.81M576.24,662.29h3.71M579.95,662.29v-11.81M579.95,650.48h-7.43M572.53,650.48v6.41M572.53,656.89h3.71M576.24,656.89v5.4M691,651.15v4.05M585.02,651.15h105.98M585.02,655.2v-4.05M691,655.2h-105.98M585.02,662.29h105.98M691,650.48h-105.98M585.02,650.48v11.81M580.97,650.48h4.05M580.97,662.29v-11.81M585.02,662.29h-4.05M695.05,650.48v11.81M691,650.48h4.05M691,662.29v-11.81M695.05,662.29h-4.05M498.95,660.6v32.4M443.26,693.01v218.38M443.26,911.39h127.59M570.84,1112.22h8.77M747.03,1112.22v-118.13M747.03,988.34v-102.94M747.03,885.4h24.64M771.67,885.4v-1.01M771.67,722.71v-1.01M771.67,721.7h-24.64M747.03,721.7v-28.69M747.03,693.01h-50.97M696.06,693.01v-32.4M696.06,660.6h-1.01M580.97,660.6h-1.01M499.96,660.6h-1.01M743.99,1128.08h-92.82M579.62,1112.22h-.67M579.62,1128.08h-153.91M747.03,1043.36v47.59"/>
  <path class="st3" d="M747.03,995.43v95.52M570.84,1112.22v-6.75M570.84,1105.47v-9.11M570.84,1025.81v-54.68M565.78,1090.95v-62.78M562.74,971.13h-117.8M499.96,1093.99l1.01-12.82M500.97,1081.17l3.71-12.15M504.69,1069.01l6.08-11.47M510.76,1057.54l8.44-10.13M519.2,1047.41l9.79-8.1M528.99,1039.31l11.48-6.08M540.46,1033.24l12.49-3.71M552.95,1029.52l12.82-1.35M564.43,1025.81h6.41M570.84,1096.35h-6.41M565.78,1090.95v3.04M565.78,1093.99h-65.82M565.78,1090.95v-62.78"/>
  <path class="st3" d="M484.1,977.54h-1.35M481.06,977.54h-1.35M484.1,977.54h-4.39M484.1,977.54h-1.35M481.06,977.54h-1.35"/>
  <path class="st3" d="M451.36,977.54h113.07M564.43,977.54v48.26M564.43,1096.35v7.77M564.43,1104.12h-113.07M451.36,1104.12v-126.57"/>
  <path class="st3" d="M443.26,919.15h8.1M451.36,919.15v-7.76M451.36,911.39h-8.1M498.95,919.15h63.8M562.74,911.39h-63.8M498.95,911.39v7.76M498.95,919.15h-47.59M451.36,911.39h47.59M451.36,919.15v-7.76M498.95,911.39v7.76M570.84,971.13v-59.74M570.84,911.39h-8.1M785.85,1061.59v-176.19M785.85,885.4h-22.62M763.23,1061.59h22.62M785.85,721.7v-44.89M763.23,721.7h22.62M785.85,721.7v163.7M785.85,1061.59v66.49M785.85,721.7h-8.78M777.07,721.7v1.01M777.07,884.39v1.01M777.07,885.4h8.78M785.85,1061.59h-2.03M777.07,885.4v-1.01M777.07,722.71v-1.01M777.07,885.4h-5.4M498.95,676.81v-30.72M498.95,646.09h-73.24M785.85,676.81v-30.72M785.85,646.09h-89.78M696.06,646.09v30.72M696.06,654.87v-8.78M696.06,654.87h-1.01M580.97,654.87h-1.01M499.96,654.87h-1.01M498.95,660.6v-5.74M498.95,646.09v8.78M498.95,654.87h1.01M579.95,654.87h1.01M695.05,654.87h1.01M785.85,1128.08h-41.85M425.7,1128.08v-481.99"/>
  <g class="st16">
    <path class="st2" d="M63.2,1117.96h6.07M86.82,1197.28l16.2-7.09M98.64,1172.64l4.38,17.55M126.32,1201.33l-27.68-28.69M126.32,1201.33l-39.49-4.05M126.32,1201.33l-23.29-11.14M63.2,878.65h6.07M63.2,1038.3h6.07M63.2,958.64h6.07M63.2,878.65v239.31M1189.53,418.94H5.82"/>
    <path d="M84.59,469.85c-.43.28-.75.67-.96,1.17-.21.5-.32,1.11-.32,1.85,0,.58.11,1.1.32,1.57s.5.82.89,1.07c.38.25.78.37,1.21.37s.81-.11,1.15-.34c.33-.22.61-.58.82-1.05.14-.33.32-.92.51-1.8.19-.88.38-1.42.57-1.62.19-.21.43-.32.71-.32.33,0,.62.15.86.45.23.3.35.77.35,1.42s-.13,1.1-.39,1.42c-.26.32-.65.51-1.16.56l.07,1.03c.47-.02.9-.15,1.27-.4.37-.25.65-.6.85-1.06.19-.46.29-.99.29-1.6,0-.55-.09-1.04-.28-1.49-.18-.45-.45-.79-.8-1.02-.36-.23-.73-.35-1.14-.35-.37,0-.7.09-1,.29-.3.19-.55.48-.75.87-.16.3-.32.82-.5,1.57-.18.75-.31,1.23-.39,1.45-.13.34-.29.59-.48.73-.19.15-.41.22-.66.22s-.48-.08-.69-.23c-.21-.16-.37-.39-.49-.7-.12-.32-.18-.68-.18-1.09,0-.46.08-.88.24-1.25.16-.37.37-.64.62-.82.26-.18.59-.29.99-.34l-.09-1.02c-.54.02-1.02.16-1.45.45M83.45,478.56h2.79l1.28,1.33-4.08,2.9v1.42l4.79-3.56,3.26,3.41v-1.46l-3.99-4.04h3.99v-1.08h-8.06v1.08Z"/>
    <path d="M89.11,488.08h-.92v5.37h.92v-5.37ZM86.67,488.08h-.92v5.37h.92v-5.37Z"/>
    <path d="M84.59,498.2c-.43.28-.75.67-.96,1.17-.21.5-.32,1.11-.32,1.85,0,.58.1,1.1.32,1.57.21.47.51.82.89,1.07.38.25.78.37,1.22.37s.81-.11,1.14-.34c.33-.23.61-.58.82-1.05.15-.33.32-.92.51-1.8.2-.88.39-1.42.57-1.62.19-.21.43-.32.72-.32.33,0,.62.15.86.45.23.3.35.77.35,1.43s-.13,1.1-.39,1.42-.64.51-1.16.56l.08,1.03c.47-.02.9-.15,1.27-.4.37-.25.66-.61.85-1.06.19-.46.29-.99.29-1.6,0-.55-.09-1.04-.28-1.49-.18-.45-.45-.79-.8-1.02-.35-.23-.73-.35-1.14-.35-.37,0-.7.1-1,.29-.3.19-.55.48-.75.87-.16.3-.32.82-.5,1.57-.18.75-.31,1.23-.39,1.45-.13.34-.29.59-.48.73-.19.15-.41.22-.66.22s-.48-.07-.69-.23c-.21-.16-.38-.39-.5-.7-.12-.32-.18-.68-.18-1.09,0-.46.08-.88.24-1.25s.37-.64.63-.82c.26-.18.59-.29.99-.34l-.09-1.02c-.54.01-1.02.16-1.45.45"/>
    <path d="M83.45,506.42h2.31l.67.71-2.99,1.95v1.23l3.67-2.48,2.16,2.26v-1.3l-2.37-2.37h4.59v-1h-8.06v1ZM83.45,515.54v1.04c.22-.12.46-.21.7-.25.24-.05.82-.07,1.74-.07h1.32c.44,0,.75-.02.91-.05.27-.06.49-.16.67-.31.18-.15.33-.38.44-.69.12-.31.18-.72.18-1.23s-.07-.95-.21-1.33c-.14-.38-.33-.68-.59-.88-.26-.21-.59-.35-1-.44l-.13.98c.42.11.7.27.87.5.16.22.24.57.24,1.04,0,.5-.11.88-.33,1.14-.17.19-.45.28-.86.28-.03,0-.12,0-.26,0-.13-.38-.25-.98-.34-1.78-.05-.39-.1-.69-.15-.89-.07-.27-.18-.5-.32-.72-.14-.21-.33-.38-.57-.52-.24-.13-.5-.2-.78-.2-.49,0-.89.17-1.2.52-.32.35-.47.85-.47,1.49,0,.39.07.76.19,1.1.13.34.35.7.66,1.07-.28.03-.52.1-.72.2M86.02,515.26c-.44,0-.77-.05-.99-.16-.29-.14-.52-.36-.68-.66-.17-.3-.25-.64-.25-1.03s.09-.68.26-.88c.17-.2.4-.31.66-.31.17,0,.33.05.47.14.14.09.25.22.33.39.07.17.14.46.19.87.1.73.23,1.27.38,1.63h-.36Z"/>
    <path d="M83.45,518.57h2.32l.67.71-2.99,1.95v1.23l3.67-2.48,2.16,2.25v-1.29l-2.37-2.37h4.6v-1h-8.06v1ZM84.3,525.05c0-.15.02-.26.07-.34.05-.08.11-.14.19-.17.08-.04.26-.05.55-.05h3.41v1.01h.77v-1.01h2.04l-.59-.99h-1.45v-.73h-.77v.73h-3.36c-.6,0-.98.04-1.17.12-.18.08-.33.22-.45.42-.11.2-.17.48-.17.84,0,.22.03.47.09.76l.87-.14c-.02-.18-.04-.33-.04-.44"/>
    <path d="M70.29,470.9h3.66v3.82h.95v-3.82h2.5v4.41h.95v-5.49h-8.06v1.08ZM71.43,476.6c-.43.28-.74.67-.96,1.17-.21.5-.32,1.11-.32,1.85,0,.58.1,1.1.31,1.57.21.46.51.82.89,1.07.38.25.78.37,1.22.37s.81-.11,1.14-.34c.33-.23.61-.58.82-1.05.15-.33.32-.92.51-1.8.2-.88.39-1.42.57-1.62.19-.21.43-.32.72-.32.33,0,.62.15.86.45.24.3.35.77.35,1.43s-.13,1.1-.39,1.42c-.26.32-.65.51-1.15.56l.08,1.03c.47-.02.9-.15,1.27-.4.38-.25.66-.61.85-1.06.19-.46.29-.99.29-1.6,0-.55-.09-1.04-.28-1.49-.18-.45-.45-.79-.81-1.02-.35-.23-.73-.35-1.14-.35-.37,0-.7.1-1,.29-.3.19-.55.48-.75.87-.16.3-.33.82-.5,1.57-.18.75-.31,1.23-.39,1.45-.13.34-.28.59-.48.73-.19.15-.41.22-.66.22s-.48-.07-.69-.23c-.21-.16-.38-.39-.5-.7-.12-.32-.18-.68-.18-1.09,0-.46.08-.88.24-1.25.16-.37.37-.64.63-.82.26-.18.59-.29.99-.34l-.09-1.02c-.54.01-1.02.16-1.45.45"/>
    <path d="M75.95,487.07h-.92v5.37h.92v-5.37ZM73.5,487.07h-.92v5.37h.92v-5.37Z"/>
    <polygon points="70.29 498.23 73.95 498.23 73.95 502.05 74.9 502.05 74.9 498.23 77.39 498.23 77.39 502.65 78.34 502.65 78.34 497.16 70.29 497.16 70.29 498.23"/>
    <path d="M70.94,504.46c-.52.51-.79,1.18-.79,2,0,.51.12.99.36,1.43.24.44.57.76,1,.99.43.23,1.02.34,1.77.34.93,0,1.66-.26,2.18-.77.53-.52.79-1.18.79-1.99,0-.73-.22-1.34-.65-1.85-.52-.61-1.32-.91-2.4-.91-.98,0-1.74.25-2.26.76M74.88,505.21c.37.33.56.74.56,1.24s-.18.9-.56,1.24c-.37.33-.92.5-1.64.5-.77,0-1.34-.16-1.71-.49-.38-.33-.56-.75-.56-1.24s.19-.91.56-1.24c.37-.33.93-.49,1.68-.49s1.31.17,1.68.49M70.29,511.12h3.06c.42,0,.8.06,1.15.17.23.07.41.2.54.37.13.18.19.37.19.59,0,.24-.07.49-.21.73l.92.34c.21-.35.32-.69.32-1.03,0-.23-.07-.45-.2-.64-.13-.19-.4-.4-.82-.63h.88v-.9h-5.84v1Z"/>
    <path d="M71.25,517.27c-.19-.26-.28-.57-.28-.94,0-.49.17-.9.51-1.23.34-.33.83-.51,1.47-.55v4.39c.12,0,.2,0,.26,0,.97,0,1.71-.25,2.24-.75.53-.5.8-1.14.8-1.93s-.27-1.47-.82-1.99c-.54-.51-1.3-.77-2.29-.77s-1.69.25-2.21.76c-.53.51-.79,1.19-.79,2.05,0,.68.17,1.24.49,1.69.33.44.79.74,1.39.9l.13-1.03c-.42-.15-.72-.35-.91-.62M74.99,515.13c.31.31.45.7.45,1.16,0,.51-.19.92-.57,1.24-.25.21-.62.33-1.11.38v-3.29c.51.03.91.21,1.22.52M70.63,520.64c-.31.4-.47.99-.47,1.75,0,.46.08.88.24,1.24.16.37.38.65.67.84.29.19.6.29.93.29s.62-.08.84-.24c.23-.16.4-.38.52-.66.12-.28.27-.77.46-1.48.13-.49.22-.78.25-.88.07-.18.16-.3.26-.38.1-.08.22-.12.35-.12.2,0,.38.1.53.29.15.2.22.52.22.98,0,.39-.08.69-.25.9-.17.21-.41.34-.7.39l.13.97c.38-.06.68-.18.9-.34.23-.17.41-.42.54-.77s.2-.76.2-1.22c0-.31-.04-.6-.12-.87-.08-.27-.18-.48-.29-.63-.14-.21-.33-.37-.55-.49s-.46-.18-.72-.18c-.28,0-.55.07-.78.22-.24.15-.42.36-.55.64-.14.28-.29.79-.48,1.52-.14.54-.25.89-.33,1.02-.13.2-.31.29-.53.29-.25,0-.47-.11-.65-.33-.19-.22-.28-.56-.28-1.02s.1-.81.31-1.06c.21-.25.51-.41.9-.47l-.15-.99c-.62.11-1.09.37-1.4.77M78.35,526.02h-8.06v1h8.06v-1ZM70.29,532.7v1.04c.22-.13.46-.21.7-.26.24-.04.83-.06,1.74-.06h1.32c.44,0,.74-.02.91-.05.27-.06.5-.17.67-.31.18-.15.32-.38.45-.69.11-.31.17-.72.17-1.22s-.07-.95-.21-1.34c-.14-.38-.33-.68-.59-.88-.26-.21-.59-.35-1-.44l-.13.98c.42.11.7.27.87.5.17.22.24.57.24,1.04,0,.5-.11.88-.34,1.14-.16.19-.45.28-.85.28-.04,0-.13,0-.26,0-.13-.38-.24-.98-.34-1.78-.05-.39-.1-.69-.15-.89-.07-.27-.18-.5-.32-.72-.14-.21-.33-.38-.57-.52-.24-.13-.5-.2-.78-.2-.49,0-.89.17-1.2.52s-.47.85-.47,1.49c0,.39.06.76.19,1.1.13.34.35.7.66,1.07-.28.03-.51.1-.72.2M72.85,532.42c-.44,0-.77-.06-.99-.16-.29-.14-.52-.36-.69-.66-.16-.3-.25-.64-.25-1.03s.09-.68.27-.88c.17-.2.39-.3.66-.3.17,0,.33.04.47.14.14.09.25.22.32.39.07.17.14.46.2.87.1.72.23,1.27.37,1.63h-.36ZM76.91,530.33c-.19.2-.29.43-.29.71s.1.5.29.7c.2.2.44.3.72.3s.52-.1.71-.3c.2-.2.3-.43.3-.7s-.1-.5-.29-.7c-.19-.2-.42-.3-.69-.3-.29,0-.54.1-.73.29M78.05,530.63c.12.12.17.25.17.41s-.06.3-.18.42c-.12.11-.26.17-.42.17s-.31-.06-.42-.17c-.12-.12-.17-.25-.17-.41s.06-.3.17-.41c.12-.12.26-.18.43-.18.16,0,.3.06.42.18M71.25,538.49c-.19-.26-.28-.57-.28-.94,0-.49.17-.9.51-1.23.34-.33.83-.51,1.47-.55v4.4c.12,0,.2,0,.26,0,.97,0,1.71-.25,2.24-.75.53-.5.8-1.14.8-1.93s-.27-1.47-.82-1.99c-.54-.51-1.3-.76-2.29-.76s-1.69.25-2.21.76c-.53.5-.79,1.19-.79,2.05,0,.68.17,1.25.49,1.69.33.44.79.74,1.39.9l.13-1.03c-.42-.15-.72-.36-.91-.62M74.99,536.34c.31.31.45.7.45,1.16,0,.5-.19.92-.57,1.24-.25.21-.62.33-1.11.38v-3.29c.51.04.91.21,1.22.52"/>
    <path d="M71.13,543.27c0-.15.02-.26.07-.34.05-.08.11-.14.19-.17s.26-.05.55-.05h3.41v1.01h.77v-1.01h2.04l-.59-1h-1.45v-.73h-.77v.73h-3.36c-.59,0-.98.04-1.17.12-.19.08-.33.22-.45.42-.11.2-.17.48-.17.84,0,.22.03.47.09.75l.88-.14c-.03-.18-.04-.33-.04-.44M70.63,547.97c-.32.4-.47.99-.47,1.75,0,.46.08.88.24,1.24.16.36.38.64.68.84.29.2.6.29.93.29s.62-.08.84-.24c.23-.16.4-.38.52-.66.12-.28.27-.77.46-1.48.14-.49.22-.78.25-.88.07-.17.16-.3.27-.38.1-.08.21-.12.35-.12.2,0,.38.1.53.3.15.2.23.52.23.98,0,.39-.09.69-.25.9-.17.21-.4.34-.7.38l.13.98c.38-.07.68-.18.9-.35.22-.17.41-.43.54-.77.13-.35.2-.76.2-1.22,0-.31-.04-.6-.12-.86-.08-.27-.18-.48-.29-.63-.15-.21-.33-.37-.55-.49-.22-.12-.46-.18-.72-.18-.29,0-.55.07-.79.22-.24.15-.42.36-.56.65-.13.28-.29.79-.48,1.52-.13.54-.25.88-.33,1.02-.13.2-.31.29-.53.29-.25,0-.47-.11-.65-.33-.19-.22-.28-.56-.28-1.02s.1-.81.31-1.06c.21-.25.51-.41.9-.46l-.15-.99c-.62.11-1.09.36-1.4.77"/>
    <path d="M70.29,554.69h2.32l.67.7-2.99,1.95v1.23l3.67-2.48,2.16,2.25v-1.29l-2.37-2.36h4.6v-1h-8.06v1ZM70.29,563.47v1.04c.23-.12.46-.21.7-.25.24-.05.83-.07,1.75-.07h1.32c.44,0,.74-.02.91-.05.27-.06.5-.16.67-.31.18-.15.33-.38.45-.69.12-.31.17-.72.17-1.23s-.07-.95-.21-1.33-.34-.68-.59-.88c-.25-.21-.59-.35-1-.44l-.13.98c.41.11.7.27.87.5.16.22.24.57.24,1.04,0,.5-.11.88-.33,1.14-.17.19-.45.28-.85.28-.04,0-.12,0-.26,0-.14-.38-.25-.98-.35-1.78-.04-.39-.1-.69-.15-.89-.07-.27-.18-.5-.33-.72-.14-.21-.33-.38-.57-.52-.24-.13-.49-.2-.78-.2-.49,0-.89.17-1.2.52-.31.35-.47.85-.47,1.49,0,.39.07.76.2,1.1.13.34.35.7.66,1.07-.28.03-.52.1-.72.2M72.85,563.18c-.44,0-.77-.05-.99-.16-.29-.14-.52-.36-.69-.66-.17-.3-.25-.64-.25-1.03s.09-.68.26-.88c.17-.2.4-.31.66-.31.17,0,.33.05.47.14.14.09.25.22.32.39.07.17.14.46.2.87.1.73.23,1.27.37,1.63h-.36Z"/>
    <path d="M71.02,566.42c-.58.39-.86.94-.86,1.64s.27,1.3.82,1.8c.54.5,1.32.75,2.32.75.42,0,.82-.06,1.19-.18.37-.12.68-.28.95-.49.26-.21.46-.48.61-.8.15-.32.22-.67.22-1.03,0-.65-.26-1.19-.79-1.61h2.88v-1h-8.06v.93h.73ZM74.88,566.88c.38.32.56.7.56,1.13s-.18.8-.54,1.11c-.36.31-.93.46-1.69.46s-1.3-.16-1.68-.48c-.38-.32-.56-.7-.56-1.13,0-.53.25-.96.76-1.28.31-.19.82-.29,1.52-.29s1.25.16,1.63.48"/>
    <path d="M71.32,877.22c-.56.45-.83,1.06-.83,1.85,0,.6.16,1.09.47,1.48.31.39.76.68,1.35.88.58.2,1.35.29,2.29.29.8,0,1.43-.06,1.91-.18.47-.12.87-.29,1.2-.51.33-.21.58-.49.76-.82.17-.33.26-.71.26-1.15,0-.59-.16-1.08-.47-1.47-.31-.39-.76-.69-1.34-.88-.58-.2-1.35-.29-2.3-.29-1.51,0-2.6.27-3.27.8M77.32,877.96c.39.28.58.64.58,1.1s-.22.85-.66,1.17c-.43.31-1.32.47-2.64.47s-2.2-.16-2.64-.47-.66-.7-.66-1.16.22-.84.66-1.16c.44-.31,1.32-.47,2.64-.47s2.23.17,2.72.51M71.57,1030.92c.18.11.36.25.53.42.18.17.52.55,1.02,1.15.6.72,1.08,1.23,1.42,1.54.35.31.67.53.99.66.31.13.63.2.95.2.63,0,1.17-.23,1.6-.68.43-.46.64-1.07.64-1.86s-.2-1.39-.59-1.85c-.4-.46-.98-.72-1.74-.79l-.11,1.03c.51,0,.9.15,1.19.44.29.29.43.68.43,1.15,0,.46-.14.83-.41,1.11-.27.28-.6.42-.99.42s-.77-.16-1.19-.47c-.42-.31-.99-.91-1.71-1.8-.46-.57-.87-1-1.22-1.31-.35-.3-.71-.52-1.07-.66-.22-.08-.45-.12-.69-.11v5.38h.95v-3.99Z"/>
    <path d="M70.62,1037.01h3.03c.53,0,.94.05,1.22.16.29.11.5.28.65.52.15.24.22.5.22.78,0,.37-.11.64-.33.8-.22.16-.55.25-.99.25h-3.79v1h3.39c.6,0,1.04.14,1.31.41.27.28.41.62.41,1.04,0,.23-.05.43-.16.6-.11.17-.25.29-.42.35-.18.07-.46.1-.86.1h-3.68v.99h4.01c.67,0,1.16-.16,1.48-.47.32-.32.48-.76.48-1.35,0-.74-.34-1.35-1.02-1.82.32-.11.57-.31.75-.59.18-.28.27-.64.27-1.08,0-.39-.09-.74-.26-1.05-.17-.31-.4-.55-.69-.74h.82v-.89h-5.84v1Z"/>
    <path d="M78.71,956.12v-.64c-.35-.17-.71-.47-1.08-.89-.37-.42-.69-.9-.94-1.46h-.96c.11.31.28.66.51,1.05.23.39.45.71.68.95h-6.31v1h8.09ZM70.62,960.05h3.03c.53,0,.94.05,1.22.16.29.11.5.28.65.52.15.24.22.5.22.78,0,.37-.11.63-.33.8-.22.16-.55.25-.99.25h-3.79v1h3.39c.6,0,1.04.14,1.31.41.27.28.41.62.41,1.03,0,.23-.05.43-.16.6-.11.17-.25.28-.42.35-.18.07-.46.1-.86.1h-3.68v.99h4.01c.67,0,1.16-.16,1.48-.47.32-.32.48-.76.48-1.35,0-.75-.34-1.36-1.02-1.82.32-.12.57-.31.75-.59.18-.28.27-.64.27-1.07,0-.39-.09-.74-.26-1.05-.17-.31-.4-.55-.69-.74h.82v-.89h-5.84v1Z"/>
    <path d="M70.62,781.3h6.86l-6.86,2.35v.97l6.75,2.36h-6.75v1.04h8.06v-1.45l-5.61-1.94c-.57-.2-1-.34-1.29-.44.26-.08.66-.21,1.19-.39l5.71-1.92v-1.62h-8.06v1.04ZM70.62,793.32v1.04c.23-.13.46-.21.7-.25.24-.04.82-.06,1.74-.06h1.32c.44,0,.74-.02.91-.05.27-.06.49-.16.67-.31.18-.15.32-.38.44-.69.12-.31.17-.72.17-1.22s-.07-.96-.21-1.34c-.14-.39-.33-.68-.59-.88-.25-.21-.59-.35-1-.44l-.13.98c.42.11.7.27.87.49.16.22.24.57.24,1.04,0,.5-.11.88-.34,1.14-.16.19-.45.28-.85.28-.03,0-.12,0-.26,0-.13-.38-.25-.98-.34-1.78-.05-.39-.1-.69-.15-.89-.07-.27-.18-.5-.32-.72-.14-.21-.33-.38-.57-.51-.24-.13-.5-.2-.78-.2-.49,0-.89.17-1.2.52-.31.35-.47.85-.47,1.49,0,.39.06.76.19,1.1.13.34.35.7.66,1.07-.27.03-.52.1-.72.2M73.19,793.04c-.44,0-.76-.06-.99-.16-.29-.14-.52-.36-.69-.66-.17-.3-.25-.64-.25-1.03s.09-.68.26-.88c.17-.2.39-.3.66-.3.17,0,.33.04.47.14.14.09.25.22.32.39.07.17.14.46.2.87.1.73.23,1.27.37,1.63h-.36ZM77.25,790.95c-.2.2-.29.43-.29.71s.09.5.29.7c.19.2.43.29.71.29s.52-.1.71-.29c.2-.2.3-.43.3-.7s-.1-.5-.29-.7c-.19-.2-.42-.3-.69-.3-.29,0-.54.1-.73.3M78.39,791.25c.11.12.17.25.17.41s-.06.3-.17.42c-.12.11-.26.17-.42.17s-.31-.06-.42-.18c-.12-.12-.18-.25-.18-.41s.06-.3.18-.41c.12-.12.26-.18.43-.18.16,0,.3.06.42.18"/>
    <rect x="70.63" y="795.67" width="8.06" height="1"/>
    <path d="M78.71,804.91v-.64c-.35-.17-.71-.47-1.08-.89-.37-.42-.69-.9-.94-1.46h-.96c.11.31.28.66.51,1.05.23.39.45.7.68.95h-6.31v1h8.09ZM76.46,808.12h-1.13v1.14h1.13v-1.14ZM71.75,808.12h-1.13v1.14h1.13v-1.14Z"/>
    <path d="M71.1,811.4c-.41.47-.62,1.07-.62,1.81,0,.9.33,1.61.98,2.14.53.43,1.16.64,1.89.64s1.39-.24,1.88-.73c.49-.49.73-1.09.73-1.8,0-.54-.17-1.05-.5-1.54l2.16.44v3.25h.94v-4.05l-4.14-.79-.12.94c.23.15.42.35.57.61.14.26.21.55.21.87,0,.52-.16.94-.49,1.26-.33.32-.77.48-1.34.48s-1.07-.17-1.43-.5c-.36-.33-.54-.74-.54-1.22,0-.4.13-.74.38-1.03.25-.28.63-.46,1.14-.54l-.09-1.05c-.68.07-1.22.34-1.63.8M71.32,817.82c-.56.45-.83,1.06-.83,1.85,0,.6.16,1.09.48,1.48.31.39.76.68,1.35.88.58.2,1.34.3,2.29.3.8,0,1.43-.06,1.9-.18.47-.12.87-.29,1.2-.51.33-.21.58-.49.76-.82.17-.33.26-.71.26-1.15,0-.59-.15-1.08-.47-1.47-.31-.39-.76-.68-1.34-.88-.58-.2-1.35-.3-2.3-.3-1.51,0-2.6.27-3.28.81M77.32,818.56c.38.27.58.64.58,1.1s-.22.86-.66,1.17c-.44.31-1.32.47-2.64.47s-2.2-.15-2.64-.47c-.44-.31-.66-.7-.66-1.16s.22-.84.66-1.16c.44-.31,1.32-.47,2.64-.47s2.23.17,2.72.51"/>
    <polygon class="st13" points="70.62 1168.25 93.24 1179.38 86.49 1193.9 63.54 1182.76 70.62 1168.25"/>
    <polygon points="73.38 1173.99 84.72 1179.48 69.69 1181.6 68.74 1183.57 83.18 1190.56 84.07 1188.72 72.73 1183.23 87.75 1181.11 88.71 1179.14 74.27 1172.15 73.38 1173.99"/>
    <path d="M71.11,1110.13c-.42.47-.63,1.06-.63,1.78,0,.79.24,1.44.73,1.96.49.52,1.08.77,1.79.77.52,0,.95-.13,1.3-.4.35-.27.58-.64.69-1.12.17.37.39.65.68.84.29.19.61.28.95.28.36,0,.71-.1,1.04-.3.32-.2.58-.49.77-.86.19-.38.28-.78.28-1.23,0-.64-.18-1.18-.55-1.62-.36-.43-.88-.71-1.54-.83l-.17,1c.48.07.84.24,1.09.5s.36.58.36.97-.12.71-.36.96c-.24.25-.54.38-.9.38-.46,0-.8-.17-1.01-.51-.22-.34-.33-.72-.33-1.15,0-.04,0-.09,0-.16l-.87-.11c.07.28.11.51.11.7,0,.47-.15.85-.44,1.15-.29.3-.67.45-1.12.45s-.87-.16-1.2-.48c-.32-.33-.49-.72-.49-1.19,0-.4.13-.73.37-1.01.25-.28.65-.47,1.21-.59l-.13-1c-.67.07-1.22.34-1.64.81M70.62,1116.66h3.03c.53,0,.94.05,1.22.16.29.1.5.28.65.52.15.24.22.5.22.78,0,.37-.11.63-.33.8-.22.17-.55.24-.99.24h-3.79v1h3.39c.6,0,1.04.14,1.31.41.27.28.41.62.41,1.03,0,.23-.05.43-.16.6-.11.17-.25.28-.42.35-.18.07-.46.1-.86.1h-3.68v.99h4.01c.67,0,1.16-.16,1.48-.47.32-.31.48-.76.48-1.35,0-.75-.34-1.35-1.02-1.82.32-.11.57-.31.75-.59.18-.28.27-.64.27-1.08,0-.39-.09-.74-.26-1.05-.17-.31-.4-.55-.69-.74h.82v-.89h-5.84v1Z"/>
    <rect class="st13" x="1132.15" y="440.54" width="18.9" height="111.72"/>
    <path d="M1147.6,446.82v-.95c-.52-.26-1.05-.7-1.61-1.32-.55-.62-1.03-1.34-1.41-2.17h-1.43c.17.46.42.98.76,1.56.34.58.68,1.05,1.02,1.4h-9.41v1.48h12.07ZM1137.21,451.53h-1.68v1.69h1.68v-1.69ZM1137.23,456.18c-.64.42-1.12,1-1.43,1.74-.32.74-.47,1.65-.47,2.74,0,.86.15,1.63.47,2.32.32.69.76,1.21,1.32,1.59.57.37,1.17.55,1.81.55s1.22-.17,1.71-.5c.49-.34.9-.85,1.23-1.56.22-.48.48-1.37.77-2.67.29-1.3.58-2.1.86-2.41.28-.31.63-.47,1.06-.47.5,0,.92.22,1.28.66.35.44.53,1.15.53,2.11s-.2,1.63-.58,2.1c-.39.47-.96.75-1.72.84l.11,1.53c.71-.03,1.34-.22,1.89-.59s.98-.89,1.27-1.58c.29-.68.43-1.47.43-2.37,0-.81-.14-1.55-.41-2.21-.27-.67-.67-1.17-1.2-1.51-.53-.35-1.09-.52-1.71-.52-.55,0-1.05.14-1.49.42-.45.28-.82.71-1.12,1.29-.23.44-.49,1.22-.75,2.33-.27,1.11-.46,1.82-.59,2.15-.19.5-.43.87-.71,1.09-.28.22-.61.33-.99.33s-.72-.12-1.03-.34c-.32-.23-.56-.58-.74-1.04-.18-.47-.27-1.01-.27-1.61,0-.69.12-1.31.36-1.85.24-.55.55-.96.93-1.22.38-.26.88-.43,1.48-.5l-.13-1.5c-.8.02-1.52.24-2.16.66M1135.53,473.2v1.55c.33-.19.68-.31,1.04-.38.36-.06,1.23-.09,2.6-.09h1.97c.66,0,1.11-.02,1.36-.07.4-.09.74-.24,1.01-.46.26-.22.49-.56.66-1.03.18-.47.27-1.07.27-1.82s-.11-1.41-.31-1.98c-.2-.57-.5-1.01-.88-1.31-.38-.3-.88-.52-1.5-.65l-.2,1.45c.62.16,1.05.4,1.29.74.24.33.36.85.36,1.54,0,.75-.16,1.31-.5,1.69-.24.28-.67.42-1.27.42-.05,0-.18,0-.38,0-.2-.56-.37-1.45-.51-2.64-.07-.59-.15-1.03-.22-1.32-.11-.39-.27-.75-.48-1.06-.21-.32-.5-.57-.85-.76-.35-.2-.74-.29-1.17-.29-.73,0-1.32.26-1.79.77-.47.52-.7,1.26-.7,2.22,0,.58.09,1.12.29,1.63.19.51.52,1.04.99,1.59-.41.05-.77.14-1.07.3M1139.36,472.78c-.65,0-1.14-.08-1.48-.24-.43-.21-.77-.54-1.02-.98-.25-.45-.37-.95-.37-1.52s.13-1.01.39-1.31c.26-.3.59-.45.99-.45.26,0,.49.07.7.21.21.14.37.33.48.59.11.25.21.68.3,1.29.15,1.07.34,1.88.55,2.42h-.54ZM1147.55,476.63h-12.03v1.48h12.03v-1.48ZM1144.24,480.9h-1.68v1.69h1.68v-1.69ZM1137.21,480.9h-1.68v1.69h1.68v-1.69ZM1146.81,496.21c.53-.61.79-1.39.79-2.33,0-1.27-.46-2.29-1.38-3.04-1.05-.86-2.74-1.29-5.07-1.29-2.08,0-3.57.39-4.47,1.17-.91.78-1.36,1.79-1.36,3.02,0,.73.17,1.37.51,1.94s.84,1.02,1.49,1.34c.65.33,1.35.49,2.1.49,1.15,0,2.09-.35,2.81-1.04.72-.69,1.09-1.54,1.09-2.52,0-.57-.13-1.11-.39-1.62-.26-.52-.66-.95-1.21-1.31,1.2,0,2.13.15,2.78.42.65.27,1.15.64,1.48,1.1.26.36.39.77.39,1.24,0,.59-.21,1.08-.63,1.48-.26.24-.68.43-1.26.56l.11,1.47c.93-.12,1.67-.49,2.2-1.09M1141.3,491.95c.48.46.72,1.03.72,1.7s-.24,1.23-.72,1.68c-.48.44-1.13.66-1.96.66s-1.55-.22-2.05-.67c-.5-.45-.76-.99-.76-1.61,0-.43.12-.84.37-1.23.24-.39.6-.69,1.06-.91.47-.22.95-.33,1.46-.33.78,0,1.41.23,1.88.7M1137.21,499.9h-1.68v1.69h1.68v-1.69ZM1135.53,508.97c0,.77.07,1.42.2,1.95.13.53.33.97.6,1.32.26.35.63.65,1.12.89.49.24,1.01.36,1.57.36.7,0,1.31-.19,1.82-.59.51-.39.88-.95,1.09-1.68.28.57.64.99,1.1,1.27s.94.42,1.45.42c.55,0,1.08-.16,1.59-.48.5-.32.88-.75,1.12-1.31.24-.56.36-1.3.36-2.22v-4.52h-12.02v4.6ZM1146.13,505.97v2.41c0,.87-.06,1.48-.17,1.84-.11.35-.32.63-.62.82-.31.19-.65.29-1.05.29-.42,0-.77-.1-1.05-.31-.28-.21-.48-.51-.6-.92-.09-.31-.14-.81-.14-1.52v-2.61h3.63ZM1141.08,505.97v2.79c0,.77-.07,1.36-.2,1.76s-.37.73-.7.96c-.33.23-.72.35-1.17.35-.38,0-.72-.08-1.01-.24-.29-.16-.51-.36-.67-.61-.16-.25-.26-.55-.33-.92-.04-.21-.06-.57-.06-1.09v-3h4.13ZM1137.21,515.99h-1.68v1.69h1.68v-1.69ZM1147.6,525.51v-.95c-.52-.26-1.05-.7-1.61-1.32s-1.03-1.34-1.41-2.17h-1.43c.17.46.42.98.76,1.56.34.58.68,1.05,1.02,1.41h-9.41v1.48h12.07ZM1137.21,530.22h-1.68v1.69h1.68v-1.69ZM1147.6,539.74v-.95c-.52-.26-1.05-.7-1.61-1.32-.55-.62-1.03-1.34-1.41-2.17h-1.43c.17.46.42.98.76,1.56.34.58.68,1.05,1.02,1.4h-9.41v1.48h12.07Z"/>
    <path d="M1146.81,550.1c.53-.61.8-1.39.8-2.33,0-1.28-.46-2.29-1.38-3.04-1.05-.86-2.75-1.29-5.07-1.29-2.08,0-3.57.39-4.48,1.17-.9.78-1.36,1.79-1.36,3.02,0,.73.17,1.37.52,1.94.35.57.84,1.02,1.49,1.35.65.33,1.35.49,2.1.49,1.15,0,2.09-.35,2.81-1.04.73-.69,1.09-1.53,1.09-2.52,0-.56-.13-1.1-.39-1.62-.26-.52-.66-.96-1.2-1.31,1.2.01,2.13.15,2.78.42.65.27,1.15.64,1.49,1.1.26.36.39.77.39,1.24,0,.59-.21,1.08-.63,1.48-.26.24-.68.43-1.26.56l.12,1.48c.93-.12,1.67-.49,2.2-1.09M1141.31,545.84c.48.47.72,1.03.72,1.7s-.24,1.23-.72,1.68-1.13.67-1.97.67-1.55-.22-2.05-.67c-.5-.45-.76-.99-.76-1.61,0-.43.12-.84.36-1.23.24-.39.6-.69,1.06-.91.47-.21.95-.33,1.46-.33.77,0,1.4.23,1.88.7"/>
    <rect class="st13" x="1109.87" y="440.54" width="18.9" height="111.72"/>
    <path d="M1114.67,443.1c.27.17.53.37.8.62.26.25.77.83,1.51,1.71.9,1.06,1.6,1.83,2.12,2.28.51.46,1.01.79,1.47.98.47.2.94.3,1.42.3.95,0,1.74-.34,2.38-1.01.64-.68.96-1.59.96-2.75s-.3-2.06-.89-2.74c-.6-.68-1.46-1.07-2.59-1.18l-.16,1.52c.76,0,1.35.22,1.77.65.43.43.64,1,.64,1.71,0,.67-.2,1.22-.6,1.64-.4.42-.9.63-1.48.63s-1.15-.23-1.77-.69c-.62-.46-1.47-1.35-2.55-2.66-.69-.85-1.3-1.49-1.82-1.94-.52-.45-1.06-.77-1.6-.97-.33-.13-.67-.19-1.02-.18v7.98h1.42v-5.92ZM1114.93,451.53h-1.68v1.69h1.68v-1.69ZM1114.95,456.18c-.64.42-1.12,1-1.43,1.74-.32.74-.47,1.65-.47,2.74,0,.86.15,1.63.47,2.32.32.69.76,1.21,1.32,1.59.57.37,1.17.55,1.81.55s1.21-.17,1.71-.5.9-.85,1.23-1.56c.22-.48.48-1.37.77-2.67.29-1.3.58-2.1.86-2.41.28-.31.63-.47,1.06-.47.5,0,.92.22,1.28.66.35.44.53,1.15.53,2.11s-.2,1.63-.58,2.1c-.39.47-.96.75-1.72.84l.11,1.53c.71-.03,1.34-.22,1.89-.59s.98-.89,1.27-1.58c.29-.68.43-1.47.43-2.37,0-.81-.14-1.55-.41-2.21-.27-.67-.67-1.17-1.2-1.51-.53-.35-1.09-.52-1.7-.52-.55,0-1.05.14-1.5.42-.44.28-.82.71-1.12,1.29-.23.44-.49,1.22-.75,2.33-.27,1.11-.46,1.82-.59,2.15-.19.5-.43.87-.71,1.09-.28.22-.61.33-.99.33s-.72-.12-1.03-.34c-.32-.23-.56-.58-.74-1.04-.18-.47-.27-1.01-.27-1.61,0-.69.12-1.31.35-1.85.24-.55.55-.96.93-1.22.39-.26.88-.43,1.48-.5l-.13-1.5c-.8.02-1.52.24-2.16.66M1113.25,473.2v1.55c.33-.19.68-.31,1.04-.38.36-.06,1.23-.09,2.6-.09h1.97c.66,0,1.11-.02,1.36-.07.4-.09.74-.24,1.01-.46.26-.22.49-.56.66-1.03.17-.47.26-1.07.26-1.82s-.1-1.41-.31-1.98c-.2-.57-.5-1.01-.88-1.31-.38-.3-.88-.52-1.5-.65l-.2,1.45c.62.16,1.05.4,1.29.74.24.33.36.85.36,1.54,0,.75-.17,1.31-.5,1.69-.24.28-.67.42-1.27.42-.05,0-.18,0-.38,0-.2-.56-.37-1.45-.51-2.64-.07-.59-.15-1.03-.22-1.32-.11-.39-.27-.75-.49-1.06-.21-.32-.49-.57-.85-.76-.35-.2-.74-.29-1.17-.29-.73,0-1.32.26-1.79.77-.47.52-.7,1.26-.7,2.22,0,.58.09,1.12.29,1.63.19.51.52,1.04.98,1.59-.41.05-.77.14-1.07.3M1117.08,472.78c-.65,0-1.14-.08-1.48-.24-.43-.21-.77-.54-1.02-.98-.25-.45-.37-.95-.37-1.52s.13-1.01.39-1.31c.26-.3.59-.45.99-.45.25,0,.49.07.7.21.21.14.37.33.48.59.11.25.21.68.3,1.29.15,1.07.34,1.88.55,2.42h-.54ZM1125.27,476.63h-12.02v1.48h12.02v-1.48ZM1121.96,480.9h-1.68v1.69h1.68v-1.69ZM1114.93,480.9h-1.68v1.69h1.68v-1.69ZM1124.53,496.21c.53-.61.79-1.39.79-2.33,0-1.27-.46-2.29-1.38-3.04-1.06-.86-2.74-1.29-5.07-1.29-2.08,0-3.57.39-4.47,1.17-.91.78-1.36,1.79-1.36,3.02,0,.73.17,1.37.51,1.94s.84,1.02,1.49,1.34c.65.33,1.35.49,2.1.49,1.15,0,2.08-.35,2.81-1.04.72-.69,1.09-1.54,1.09-2.52,0-.57-.13-1.11-.39-1.62-.26-.52-.66-.95-1.21-1.31,1.2,0,2.13.15,2.78.42.65.27,1.15.64,1.48,1.1.27.36.4.77.4,1.24,0,.59-.21,1.08-.63,1.48-.26.24-.68.43-1.26.56l.11,1.47c.93-.12,1.67-.49,2.2-1.09M1119.03,491.95c.48.46.72,1.03.72,1.7s-.24,1.23-.72,1.68c-.48.44-1.13.66-1.96.66s-1.55-.22-2.05-.67c-.5-.45-.76-.99-.76-1.61,0-.43.12-.84.36-1.23.24-.39.6-.69,1.06-.91.46-.22.95-.33,1.46-.33.78,0,1.41.23,1.88.7M1114.93,499.9h-1.68v1.69h1.68v-1.69ZM1113.25,508.97c0,.77.07,1.42.2,1.95.13.53.33.97.6,1.32.26.35.63.65,1.12.89.49.24,1.01.36,1.57.36.7,0,1.31-.19,1.82-.59.51-.39.88-.95,1.09-1.68.28.57.64.99,1.1,1.27s.94.42,1.45.42c.56,0,1.08-.16,1.59-.48.5-.32.88-.75,1.12-1.31.24-.56.36-1.3.36-2.22v-4.52h-12.02v4.6ZM1123.86,505.97v2.41c0,.87-.06,1.48-.17,1.84-.11.35-.32.63-.62.82-.31.19-.65.29-1.05.29-.42,0-.77-.1-1.05-.31-.28-.21-.48-.51-.6-.92-.09-.31-.14-.81-.14-1.52v-2.61h3.63ZM1118.8,505.97v2.79c0,.77-.07,1.36-.2,1.76-.13.41-.36.73-.69.96-.33.23-.72.35-1.17.35-.38,0-.72-.08-1.02-.24-.29-.16-.51-.36-.67-.61-.16-.25-.26-.55-.33-.92-.04-.21-.06-.57-.06-1.09v-3h4.13ZM1114.93,515.99h-1.68v1.69h1.68v-1.69ZM1114.67,521.8c.27.16.53.37.8.62.26.25.77.82,1.51,1.71.9,1.06,1.6,1.82,2.12,2.28.51.46,1.01.79,1.47.98.47.2.94.3,1.42.3.95,0,1.74-.34,2.38-1.01.64-.68.96-1.59.96-2.75s-.3-2.06-.89-2.74c-.6-.68-1.46-1.07-2.59-1.18l-.16,1.52c.76,0,1.35.22,1.77.65.43.43.64,1,.64,1.71,0,.67-.2,1.22-.6,1.64-.4.42-.9.63-1.48.63s-1.15-.23-1.77-.69c-.62-.46-1.47-1.35-2.55-2.66-.69-.84-1.3-1.49-1.82-1.94-.52-.45-1.06-.77-1.6-.97-.33-.13-.67-.19-1.02-.17v7.97h1.42v-5.92ZM1114.93,530.22h-1.68v1.69h1.68v-1.69ZM1125.32,539.74v-.95c-.52-.26-1.05-.7-1.61-1.32-.55-.62-1.02-1.34-1.41-2.17h-1.43c.17.46.42.98.76,1.56.34.58.68,1.05,1.02,1.4h-9.41v1.48h12.07Z"/>
    <path d="M1124.53,550.1c.53-.61.79-1.39.79-2.33,0-1.28-.46-2.29-1.38-3.04-1.05-.86-2.75-1.29-5.07-1.29-2.08,0-3.57.39-4.48,1.17-.9.78-1.36,1.79-1.36,3.02,0,.73.17,1.37.52,1.94.35.57.84,1.02,1.49,1.35.65.33,1.35.49,2.1.49,1.15,0,2.09-.35,2.81-1.04.73-.69,1.09-1.53,1.09-2.52,0-.56-.13-1.1-.39-1.62-.26-.52-.66-.96-1.2-1.31,1.2.01,2.13.15,2.78.42.65.27,1.15.64,1.48,1.1.26.36.39.77.39,1.24,0,.59-.21,1.08-.63,1.48-.26.24-.68.43-1.26.56l.12,1.48c.93-.12,1.67-.49,2.2-1.09M1119.03,545.84c.48.47.72,1.03.72,1.7s-.24,1.23-.72,1.68-1.13.67-1.97.67-1.55-.22-2.05-.67c-.5-.45-.76-.99-.76-1.61,0-.43.12-.84.36-1.23.24-.39.6-.69,1.06-.91.46-.21.95-.33,1.46-.33.77,0,1.4.23,1.88.7"/>
    <rect class="st13" x="1088.61" y="440.54" width="18.9" height="111.72"/>
    <path d="M1092.72,442.44c-.63.7-.94,1.58-.94,2.64,0,1.18.36,2.15,1.1,2.92.73.77,1.62,1.15,2.67,1.15.78,0,1.43-.2,1.94-.59.51-.4.86-.95,1.02-1.66.25.55.59.96,1.02,1.24.43.28.9.42,1.42.42.55,0,1.06-.15,1.55-.44.49-.3.87-.72,1.15-1.27.28-.56.42-1.16.42-1.82,0-.95-.27-1.75-.82-2.4-.54-.64-1.31-1.05-2.3-1.23l-.26,1.48c.72.11,1.26.35,1.62.74.36.38.55.86.55,1.44s-.18,1.05-.54,1.42c-.36.37-.8.55-1.34.55-.68,0-1.19-.25-1.52-.76-.33-.5-.49-1.07-.49-1.7,0-.06,0-.14.01-.24l-1.3-.17c.11.42.16.76.16,1.04,0,.68-.22,1.25-.66,1.7-.44.44-1,.67-1.68.67s-1.31-.24-1.79-.72c-.48-.48-.72-1.07-.72-1.76,0-.59.19-1.08.55-1.49.37-.41.97-.7,1.81-.87l-.2-1.48c-1,.1-1.82.5-2.44,1.2M1093.67,451.53h-1.68v1.69h1.68v-1.69ZM1093.69,456.18c-.64.42-1.12,1-1.43,1.74-.32.74-.47,1.65-.47,2.74,0,.86.15,1.63.47,2.32.32.69.76,1.21,1.32,1.59.57.37,1.17.55,1.81.55s1.21-.17,1.71-.5.9-.85,1.23-1.56c.22-.48.48-1.37.77-2.67.29-1.3.58-2.1.86-2.41.28-.31.63-.47,1.06-.47.5,0,.92.22,1.28.66.35.44.53,1.15.53,2.11s-.2,1.63-.58,2.1c-.39.47-.96.75-1.72.84l.11,1.53c.71-.03,1.34-.22,1.89-.59s.98-.89,1.27-1.58c.29-.68.43-1.47.43-2.37,0-.81-.14-1.55-.41-2.21-.27-.67-.67-1.17-1.2-1.51-.53-.35-1.09-.52-1.7-.52-.55,0-1.05.14-1.5.42-.44.28-.82.71-1.12,1.29-.23.44-.49,1.22-.75,2.33-.27,1.11-.46,1.82-.59,2.15-.19.5-.43.87-.71,1.09-.28.22-.61.33-.99.33s-.72-.12-1.03-.34c-.32-.23-.56-.58-.74-1.04-.18-.47-.27-1.01-.27-1.61,0-.69.12-1.31.35-1.85.24-.55.55-.96.93-1.22.39-.26.88-.43,1.48-.5l-.13-1.5c-.8.02-1.52.24-2.16.66M1091.99,473.2v1.55c.33-.19.68-.31,1.04-.38.36-.06,1.23-.09,2.6-.09h1.97c.66,0,1.11-.02,1.36-.07.4-.09.74-.24,1.01-.46.26-.22.49-.56.66-1.03.18-.47.26-1.07.26-1.82s-.1-1.41-.31-1.98c-.2-.57-.5-1.01-.88-1.31-.38-.3-.88-.52-1.5-.65l-.2,1.45c.62.16,1.05.4,1.29.74.24.33.36.85.36,1.54,0,.75-.17,1.31-.5,1.69-.24.28-.67.42-1.27.42-.05,0-.18,0-.38,0-.2-.56-.37-1.45-.51-2.64-.07-.59-.15-1.03-.22-1.32-.11-.39-.27-.75-.49-1.06-.21-.32-.49-.57-.85-.76-.35-.2-.74-.29-1.17-.29-.73,0-1.32.26-1.79.77-.47.52-.7,1.26-.7,2.22,0,.58.09,1.12.29,1.63.19.51.52,1.04.98,1.59-.41.05-.77.14-1.07.3M1095.82,472.78c-.65,0-1.14-.08-1.48-.24-.43-.21-.77-.54-1.02-.98-.25-.45-.37-.95-.37-1.52s.13-1.01.39-1.31c.26-.3.59-.45.99-.45.25,0,.49.07.7.21.21.14.37.33.48.59.11.25.21.68.3,1.29.15,1.07.34,1.88.55,2.42h-.54ZM1104.01,476.63h-12.02v1.48h12.02v-1.48ZM1100.7,480.9h-1.68v1.69h1.68v-1.69ZM1093.67,480.9h-1.68v1.69h1.68v-1.69ZM1103.27,496.21c.53-.61.79-1.39.79-2.33,0-1.27-.46-2.29-1.38-3.04-1.06-.86-2.74-1.29-5.07-1.29-2.08,0-3.57.39-4.47,1.17-.91.78-1.36,1.79-1.36,3.02,0,.73.17,1.37.51,1.94s.84,1.02,1.49,1.34c.65.33,1.35.49,2.1.49,1.15,0,2.08-.35,2.81-1.04.72-.69,1.09-1.54,1.09-2.52,0-.57-.13-1.11-.39-1.62-.26-.52-.66-.95-1.21-1.31,1.2,0,2.13.15,2.78.42.65.27,1.15.64,1.48,1.1.27.36.4.77.4,1.24,0,.59-.21,1.08-.63,1.48-.26.24-.68.43-1.26.56l.11,1.47c.93-.12,1.67-.49,2.2-1.09M1097.76,491.95c.48.46.72,1.03.72,1.7s-.24,1.23-.72,1.68c-.48.44-1.13.66-1.96.66s-1.55-.22-2.05-.67c-.5-.45-.76-.99-.76-1.61,0-.43.12-.84.36-1.23.24-.39.6-.69,1.06-.91.46-.22.95-.33,1.46-.33.78,0,1.41.23,1.88.7M1093.67,499.9h-1.68v1.69h1.68v-1.69ZM1091.99,508.97c0,.77.07,1.42.2,1.95.13.53.33.97.6,1.32.26.35.63.65,1.12.89.49.24,1.01.36,1.57.36.7,0,1.31-.19,1.82-.59.51-.39.88-.95,1.09-1.68.28.57.64.99,1.1,1.27s.94.42,1.45.42c.56,0,1.08-.16,1.59-.48.5-.32.88-.75,1.12-1.31.24-.56.36-1.3.36-2.22v-4.52h-12.02v4.6ZM1102.59,505.97v2.41c0,.87-.06,1.48-.17,1.84-.11.35-.32.63-.62.82-.31.19-.65.29-1.05.29-.42,0-.77-.1-1.05-.31-.28-.21-.48-.51-.6-.92-.09-.31-.14-.81-.14-1.52v-2.61h3.63ZM1097.54,505.97v2.79c0,.77-.07,1.36-.2,1.76-.13.41-.36.73-.69.96-.33.23-.72.35-1.17.35-.38,0-.72-.08-1.02-.24-.29-.16-.51-.36-.67-.61-.16-.25-.26-.55-.33-.92-.04-.21-.06-.57-.06-1.09v-3h4.13ZM1093.67,515.99h-1.68v1.69h1.68v-1.69ZM1092.72,521.14c-.63.7-.94,1.58-.94,2.64,0,1.18.36,2.15,1.1,2.92.73.77,1.62,1.15,2.67,1.15.78,0,1.43-.2,1.94-.59.51-.4.86-.95,1.02-1.67.25.55.59.96,1.02,1.24.43.28.9.42,1.42.42.55,0,1.06-.15,1.55-.44s.87-.72,1.15-1.27c.28-.55.42-1.16.42-1.82,0-.96-.27-1.75-.82-2.4-.54-.64-1.31-1.05-2.3-1.23l-.26,1.48c.72.11,1.26.35,1.62.74.36.38.55.87.55,1.44s-.18,1.05-.54,1.42c-.36.37-.8.55-1.34.55-.68,0-1.19-.25-1.52-.76-.33-.5-.49-1.07-.49-1.7,0-.06,0-.14.01-.24l-1.3-.17c.11.42.16.76.16,1.05,0,.68-.22,1.25-.66,1.7-.44.44-1,.66-1.68.66s-1.31-.24-1.79-.72c-.48-.48-.72-1.07-.72-1.76,0-.59.19-1.09.55-1.49.37-.41.97-.7,1.81-.87l-.2-1.48c-1,.1-1.82.5-2.44,1.2M1093.67,530.22h-1.68v1.69h1.68v-1.69ZM1104.06,539.74v-.95c-.52-.26-1.05-.7-1.61-1.32-.55-.62-1.02-1.34-1.41-2.17h-1.43c.17.46.42.98.76,1.56.34.58.68,1.05,1.02,1.4h-9.41v1.48h12.07Z"/>
    <path d="M1103.26,550.1c.53-.61.79-1.39.79-2.33,0-1.28-.46-2.29-1.38-3.04-1.05-.86-2.75-1.29-5.07-1.29-2.08,0-3.57.39-4.48,1.17-.9.78-1.36,1.79-1.36,3.02,0,.73.17,1.37.52,1.94.35.57.84,1.02,1.49,1.35.65.33,1.35.49,2.1.49,1.15,0,2.09-.35,2.81-1.04.73-.69,1.09-1.53,1.09-2.52,0-.56-.13-1.1-.39-1.62-.26-.52-.66-.96-1.2-1.31,1.2.01,2.13.15,2.78.42.65.27,1.15.64,1.48,1.1.26.36.39.77.39,1.24,0,.59-.21,1.08-.63,1.48-.26.24-.68.43-1.26.56l.12,1.48c.93-.12,1.67-.49,2.2-1.09M1097.76,545.84c.48.47.72,1.03.72,1.7s-.24,1.23-.72,1.68-1.13.67-1.97.67-1.55-.22-2.05-.67c-.5-.45-.76-.99-.76-1.61,0-.43.12-.84.36-1.23.24-.39.6-.69,1.06-.91.46-.21.95-.33,1.46-.33.77,0,1.4.23,1.88.7"/>
    <line class="st3" x1="562.74" y1="919.15" x2="443.26" y2="971.13"/>
    <line class="st3" x1="562.74" y1="971.13" x2="443.26" y2="919.15"/>
  </g>
  <polygon class="st13" points="444.77 749.72 444.77 750.13 516.43 750.13 516.43 888.1 517.34 888.55 517.34 749.72 444.77 749.72"/>
  <polygon class="st13" points="444.77 750.13 444.77 852.64 460.7 860.52 500.51 880.22 516.43 888.1 516.43 750.13 444.77 750.13"/>
  <g class="st4">
    <path class="st13" d="M444.77,909.37v-56.74l15.93,7.88v28.26c0,1.81,1.47,3.28,3.28,3.28h33.25c1.81,0,3.28-1.48,3.28-3.28v-8.56l15.93,7.88v21.27h-71.66Z"/>
    <path class="st13" d="M460.7,888.77v-28.26l39.81,19.7v8.56c0,1.81-1.47,3.29-3.29,3.29h-33.25c-1.81,0-3.28-1.48-3.28-3.29"/>
  </g>
  <polyline class="st1" points="516.43 888.1 516.43 909.37 444.77 909.37 444.77 852.63"/>
  <polyline class="st1" points="500.51 880.22 516.43 888.1 517.34 888.55 517.34 749.72 444.77 749.72 444.77 750.13 444.77 852.63 460.7 860.52"/>
  <line class="st1" x1="497.22" y1="892.06" x2="463.97" y2="892.06"/>
  <g class="st7">
    <path class="st1" d="M463.98,892.06c-1.81,0-3.28-1.48-3.28-3.29"/>
    <path class="st1" d="M500.51,888.77c0,1.81-1.47,3.29-3.29,3.29"/>
  </g>
  <polyline class="st1" points="500.51 888.77 500.51 880.22 460.7 860.52 460.7 888.77"/>
  <g class="st5">
    <path class="st13" d="M550.04,977.7c0,7.71,0,15.41-.02,23.11,0,8.9-6.4,16.1-14.3,16.09-7.9,0-14.28-7.21-14.27-16.11,0-7.7.01-15.4.01-23.11,9.53,0,19.06,0,28.59.02"/>
  </g>
  <g class="st6">
    <path class="st3" d="M550.04,977.7c0,7.71,0,15.41-.02,23.11,0,8.9-6.4,16.1-14.3,16.09-7.9,0-14.28-7.21-14.27-16.11,0-7.7.01-15.4.01-23.11,9.53,0,19.06,0,28.59.02Z"/>
  </g>
  <rect class="st13" x="451.41" y="977.54" width="62.49" height="63.21"/>
  <polyline class="st3" points="513.9 977.54 513.9 1040.76 507.73 1040.76"/>
  <line class="st3" x1="513.9" y1="977.54" x2="451.91" y2="977.54"/>
  <line class="st3" x1="451.41" y1="978.59" x2="451.41" y2="1040.2"/>
  <polyline class="st3" points="451.41 978.59 451.41 977.55 451.91 977.55"/>
  <polyline class="st3" points="452.35 1040.76 451.41 1040.76 451.41 1040.2"/>
  <line class="st3" x1="452.35" y1="1040.76" x2="507.73" y2="1040.76"/>
  <line class="st3" x1="483.61" y1="977.54" x2="483.61" y2="995.1"/>
  <g class="st12">
    <path class="st3" d="M487.45,995.02c0-2.17-1.76-3.93-3.93-3.93s-3.93,1.76-3.93,3.93,1.76,3.93,3.93,3.93,3.93-1.76,3.93-3.93Z"/>
    <path class="st3" d="M487.45,995.02c0-2.17-1.76-3.93-3.93-3.93s-3.93,1.76-3.93,3.93,1.76,3.93,3.93,3.93,3.93-1.76,3.93-3.93Z"/>
  </g>
  <g class="st9">
    <path class="st13" d="M476.99,1097.58h-15.49c-.59,0-1.07-.35-1.07-.78v-34.14c0-.43.48-.78,1.07-.78h15.49c.59,0,1.07.35,1.07.78v34.14c0,.43-.48.78-1.07.78M469.52,1082.53c1.55,0,2.8-1.25,2.8-2.8s-1.25-2.81-2.8-2.81-2.81,1.26-2.81,2.81,1.26,2.8,2.81,2.8"/>
    <path class="st13" d="M457.82,1079.73c0,1.16-.95,2.1-2.1,2.1s-2.11-.94-2.11-2.1.94-2.11,2.11-2.11,2.1.95,2.1,2.11"/>
    <path class="st13" d="M469.52,1081.23c-.83,0-1.51-.67-1.51-1.5s.68-1.51,1.51-1.51,1.51.67,1.51,1.51-.68,1.5-1.51,1.5"/>
    <path class="st13" d="M471.03,1079.73c0-.84-.68-1.51-1.51-1.51s-1.51.67-1.51,1.51.68,1.5,1.51,1.5,1.51-.67,1.51-1.5M469.52,1076.92c1.55,0,2.8,1.26,2.8,2.81s-1.25,2.8-2.8,2.8-2.81-1.25-2.81-2.8,1.26-2.81,2.81-2.81"/>
    <path class="st13" d="M479.12,1061.87v35.7c0,.35-.47.63-1.06.63h-26.45v-37.12h26.45c.59,0,1.06.35,1.06.78M478.06,1096.79v-34.14c0-.43-.48-.78-1.07-.78h-15.5c-.59,0-1.07.35-1.07.78v34.14c0,.43.48.78,1.07.78h15.5c.59,0,1.07-.35,1.07-.78M457.82,1079.73c0-1.17-.95-2.11-2.1-2.11s-2.11.95-2.11,2.11.94,2.1,2.11,2.1,2.1-.94,2.1-2.1"/>
  </g>
  <g class="st8">
    <path class="st3" d="M455.72,1077.62c1.15,0,2.1.95,2.1,2.11s-.94,2.1-2.1,2.1-2.11-.94-2.11-2.1.95-2.11,2.11-2.11Z"/>
    <path class="st3" d="M469.52,1076.92c1.55,0,2.8,1.26,2.8,2.81s-1.25,2.8-2.8,2.8-2.81-1.25-2.81-2.8,1.26-2.81,2.81-2.81Z"/>
    <path class="st3" d="M469.52,1078.22c.83,0,1.51.67,1.51,1.51s-.68,1.5-1.51,1.5-1.51-.67-1.51-1.5.68-1.51,1.51-1.51Z"/>
    <path class="st3" d="M461.5,1097.58h15.5c.59,0,1.07-.35,1.07-.78v-34.14c0-.43-.48-.78-1.07-.78h-15.5c-.59,0-1.07.35-1.07.78v34.14c0,.43.48.78,1.07.78Z"/>
  </g>
  <line class="st3" x1="459.79" y1="1061.09" x2="451.61" y2="1061.09"/>
  <g class="st11">
    <path class="st3" d="M451.61,1098.21h26.45c.59,0,1.06-.29,1.06-.63v-35.7c0-.43-.47-.78-1.06-.78h-8.38"/>
  </g>
  <line class="st3" x1="459.79" y1="1061.09" x2="469.67" y2="1061.09"/>
  <line class="st3" x1="451.61" y1="1061.09" x2="451.61" y2="1098.21"/>
  <polygon class="st13" points="706.02 823.97 709.73 830.05 715.13 834.77 715.81 835.11 715.47 835.78 714.46 836.8 713.11 837.13 711.42 836.46 709.73 835.45 709.39 835.45 709.06 835.45 708.72 835.45 708.04 835.45 707.71 835.78 715.13 839.5 723.23 840.85 731.33 839.5 738.76 835.78 738.76 835.45 738.42 835.45 737.75 835.45 737.41 835.45 737.07 835.45 736.73 835.45 735.05 836.46 733.36 837.13 732.01 836.8 731 835.78 731 835.11 731.33 834.77 736.73 830.05 740.45 823.97 706.02 823.97"/>
  <polygon class="st13" points="658.09 823.97 661.8 830.05 667.54 834.77 667.88 835.11 667.88 835.78 666.87 836.8 665.18 837.13 663.49 836.46 662.14 835.45 661.8 835.45 661.13 835.45 660.79 835.45 660.45 835.45 660.12 835.45 659.78 835.78 667.2 839.5 675.31 840.85 683.74 839.5 690.83 835.78 690.83 835.45 690.49 835.45 690.16 835.45 689.48 835.45 689.14 835.45 688.81 835.45 687.12 836.46 685.43 837.13 684.08 836.8 683.07 835.78 683.07 835.11 683.41 834.77 689.14 830.05 692.52 823.97 658.09 823.97"/>
  <polygon class="st13" points="740.45 760.18 706.02 760.18 692.52 760.18 658.09 760.18 651.68 760.18 651.68 823.97 658.09 823.97 692.52 823.97 706.02 823.97 740.45 823.97 747.2 823.97 747.2 760.18 740.45 760.18"/>
  <polygon class="st13" points="715.13 744.65 707.71 748.36 708.04 748.7 708.72 748.7 709.06 748.7 709.39 748.7 709.73 748.7 711.42 747.69 713.11 747.01 714.46 747.35 715.47 748.36 715.81 749.04 715.13 749.38 709.73 754.1 706.02 760.18 740.45 760.18 736.74 754.1 731.33 749.38 731 749.04 731 748.36 732.01 747.35 733.36 747.01 735.05 747.69 736.74 748.7 737.07 748.7 737.41 748.7 737.75 748.7 738.42 748.7 738.76 748.7 738.76 748.36 731.33 744.65 723.23 743.3 715.13 744.65"/>
  <polygon class="st13" points="667.2 744.65 659.78 748.36 660.12 748.7 660.45 748.7 660.79 748.7 661.13 748.7 661.8 748.7 662.14 748.7 663.49 747.69 665.18 747.01 666.87 747.35 667.88 748.36 667.88 749.04 667.54 749.38 661.8 754.1 658.09 760.18 692.52 760.18 689.14 754.1 683.41 749.38 683.07 749.04 683.07 748.36 684.08 747.35 685.43 747.01 687.12 747.69 688.81 748.7 689.14 748.7 689.48 748.7 690.16 748.7 690.49 748.7 690.83 748.7 690.83 748.36 683.74 744.65 675.3 743.3 667.2 744.65"/>
  <line class="st3" x1="736.73" y1="748.7" x2="737.07" y2="748.7"/>
  <line class="st3" x1="737.07" y1="748.7" x2="737.41" y2="748.7"/>
  <line class="st3" x1="738.42" y1="748.7" x2="737.75" y2="748.7"/>
  <line class="st3" x1="737.75" y1="748.7" x2="737.41" y2="748.7"/>
  <line class="st3" x1="738.76" y1="748.36" x2="738.76" y2="748.7"/>
  <line class="st3" x1="738.76" y1="748.7" x2="738.42" y2="748.7"/>
  <line class="st3" x1="731" y1="748.36" x2="732.01" y2="747.35"/>
  <line class="st3" x1="732.01" y1="747.35" x2="733.36" y2="747.01"/>
  <line class="st3" x1="733.36" y1="747.01" x2="735.05" y2="747.69"/>
  <line class="st3" x1="735.05" y1="747.69" x2="736.73" y2="748.7"/>
  <line class="st3" x1="731.33" y1="749.37" x2="731" y2="749.04"/>
  <line class="st3" x1="731" y1="749.04" x2="731" y2="748.36"/>
  <line class="st3" x1="731.33" y1="749.37" x2="736.73" y2="754.1"/>
  <line class="st3" x1="736.73" y1="754.1" x2="740.45" y2="760.18"/>
  <line class="st3" x1="709.73" y1="748.7" x2="709.39" y2="748.7"/>
  <line class="st3" x1="709.39" y1="748.7" x2="709.06" y2="748.7"/>
  <line class="st3" x1="708.04" y1="748.7" x2="708.72" y2="748.7"/>
  <line class="st3" x1="708.72" y1="748.7" x2="709.06" y2="748.7"/>
  <line class="st3" x1="707.71" y1="748.36" x2="708.04" y2="748.7"/>
  <line class="st3" x1="715.47" y1="748.36" x2="714.46" y2="747.35"/>
  <line class="st3" x1="714.46" y1="747.35" x2="713.11" y2="747.01"/>
  <line class="st3" x1="713.11" y1="747.01" x2="711.42" y2="747.69"/>
  <line class="st3" x1="711.42" y1="747.69" x2="709.73" y2="748.7"/>
  <line class="st3" x1="715.13" y1="749.37" x2="715.81" y2="749.04"/>
  <line class="st3" x1="715.81" y1="749.04" x2="715.47" y2="748.36"/>
  <line class="st3" x1="715.13" y1="749.37" x2="709.73" y2="754.1"/>
  <line class="st3" x1="709.73" y1="754.1" x2="706.02" y2="760.18"/>
  <line class="st3" x1="738.76" y1="748.36" x2="731.33" y2="744.65"/>
  <line class="st3" x1="731.33" y1="744.65" x2="723.23" y2="743.3"/>
  <line class="st3" x1="723.23" y1="743.3" x2="715.13" y2="744.65"/>
  <line class="st3" x1="715.13" y1="744.65" x2="707.71" y2="748.36"/>
  <line class="st3" x1="736.73" y1="835.44" x2="737.07" y2="835.44"/>
  <line class="st3" x1="737.07" y1="835.44" x2="737.41" y2="835.44"/>
  <line class="st3" x1="738.42" y1="835.44" x2="737.75" y2="835.44"/>
  <line class="st3" x1="737.75" y1="835.44" x2="737.41" y2="835.44"/>
  <line class="st3" x1="738.76" y1="835.78" x2="738.76" y2="835.44"/>
  <line class="st3" x1="738.76" y1="835.44" x2="738.42" y2="835.44"/>
  <line class="st3" x1="731" y1="835.78" x2="732.01" y2="836.79"/>
  <line class="st3" x1="732.01" y1="836.79" x2="733.36" y2="837.13"/>
  <line class="st3" x1="733.36" y1="837.13" x2="735.05" y2="836.46"/>
  <line class="st3" x1="735.05" y1="836.46" x2="736.73" y2="835.44"/>
  <line class="st3" x1="731.33" y1="834.77" x2="731" y2="835.11"/>
  <line class="st3" x1="731" y1="835.11" x2="731" y2="835.78"/>
  <line class="st3" x1="731.33" y1="834.77" x2="736.73" y2="830.04"/>
  <line class="st3" x1="736.73" y1="830.04" x2="740.45" y2="823.97"/>
  <line class="st3" x1="709.73" y1="835.44" x2="709.39" y2="835.44"/>
  <line class="st3" x1="709.39" y1="835.44" x2="709.06" y2="835.44"/>
  <line class="st3" x1="708.04" y1="835.44" x2="708.72" y2="835.44"/>
  <line class="st3" x1="708.72" y1="835.44" x2="709.06" y2="835.44"/>
  <line class="st3" x1="707.71" y1="835.78" x2="708.04" y2="835.44"/>
  <line class="st3" x1="715.47" y1="835.78" x2="714.46" y2="836.79"/>
  <line class="st3" x1="714.46" y1="836.79" x2="713.11" y2="837.13"/>
  <line class="st3" x1="713.11" y1="837.13" x2="711.42" y2="836.46"/>
  <line class="st3" x1="711.42" y1="836.46" x2="709.73" y2="835.44"/>
  <line class="st3" x1="715.13" y1="834.77" x2="715.81" y2="835.11"/>
  <line class="st3" x1="715.81" y1="835.11" x2="715.47" y2="835.78"/>
  <line class="st3" x1="715.13" y1="834.77" x2="709.73" y2="830.04"/>
  <line class="st3" x1="709.73" y1="830.04" x2="706.02" y2="823.97"/>
  <line class="st3" x1="738.76" y1="835.78" x2="731.33" y2="839.49"/>
  <line class="st3" x1="731.33" y1="839.49" x2="723.23" y2="840.84"/>
  <line class="st3" x1="723.23" y1="840.85" x2="715.13" y2="839.5"/>
  <line class="st3" x1="715.13" y1="839.49" x2="707.71" y2="835.78"/>
  <line class="st3" x1="747.2" y1="823.97" x2="747.2" y2="760.18"/>
  <line class="st3" x1="662.14" y1="748.7" x2="661.8" y2="748.7"/>
  <line class="st3" x1="661.8" y1="748.7" x2="661.13" y2="748.7"/>
  <line class="st3" x1="660.45" y1="748.7" x2="660.79" y2="748.7"/>
  <line class="st3" x1="660.79" y1="748.7" x2="661.13" y2="748.7"/>
  <line class="st3" x1="659.78" y1="748.36" x2="660.11" y2="748.7"/>
  <line class="st3" x1="660.12" y1="748.7" x2="660.45" y2="748.7"/>
  <line class="st3" x1="667.88" y1="748.36" x2="666.87" y2="747.35"/>
  <line class="st3" x1="666.87" y1="747.35" x2="665.18" y2="747.01"/>
  <line class="st3" x1="665.18" y1="747.01" x2="663.49" y2="747.69"/>
  <line class="st3" x1="663.49" y1="747.69" x2="662.14" y2="748.7"/>
  <line class="st3" x1="667.54" y1="749.37" x2="667.88" y2="749.04"/>
  <line class="st3" x1="667.88" y1="749.04" x2="667.88" y2="748.36"/>
  <line class="st3" x1="667.54" y1="749.37" x2="661.8" y2="754.1"/>
  <line class="st3" x1="661.8" y1="754.1" x2="658.09" y2="760.18"/>
  <line class="st3" x1="688.81" y1="748.7" x2="689.14" y2="748.7"/>
  <line class="st3" x1="689.14" y1="748.7" x2="689.48" y2="748.7"/>
  <line class="st3" x1="690.49" y1="748.7" x2="690.16" y2="748.7"/>
  <line class="st3" x1="690.16" y1="748.7" x2="689.48" y2="748.7"/>
  <line class="st3" x1="690.83" y1="748.36" x2="690.83" y2="748.7"/>
  <line class="st3" x1="690.83" y1="748.7" x2="690.49" y2="748.7"/>
  <line class="st3" x1="683.07" y1="748.36" x2="684.08" y2="747.35"/>
  <line class="st3" x1="684.08" y1="747.35" x2="685.43" y2="747.01"/>
  <line class="st3" x1="685.43" y1="747.01" x2="687.12" y2="747.69"/>
  <line class="st3" x1="687.12" y1="747.69" x2="688.8" y2="748.7"/>
  <line class="st3" x1="683.4" y1="749.37" x2="683.07" y2="749.04"/>
  <line class="st3" x1="683.07" y1="749.04" x2="683.07" y2="748.36"/>
  <line class="st3" x1="683.4" y1="749.37" x2="689.14" y2="754.1"/>
  <line class="st3" x1="689.14" y1="754.1" x2="692.52" y2="760.18"/>
  <line class="st3" x1="659.78" y1="748.36" x2="667.2" y2="744.65"/>
  <line class="st3" x1="667.2" y1="744.65" x2="675.3" y2="743.3"/>
  <line class="st3" x1="675.3" y1="743.3" x2="683.74" y2="744.65"/>
  <line class="st3" x1="683.74" y1="744.65" x2="690.83" y2="748.36"/>
  <line class="st3" x1="662.14" y1="835.44" x2="661.8" y2="835.44"/>
  <line class="st3" x1="661.8" y1="835.44" x2="661.13" y2="835.44"/>
  <line class="st3" x1="660.45" y1="835.44" x2="660.79" y2="835.44"/>
  <line class="st3" x1="660.79" y1="835.44" x2="661.13" y2="835.44"/>
  <line class="st3" x1="659.78" y1="835.78" x2="660.11" y2="835.44"/>
  <line class="st3" x1="660.12" y1="835.44" x2="660.45" y2="835.44"/>
  <line class="st3" x1="667.88" y1="835.78" x2="666.87" y2="836.79"/>
  <line class="st3" x1="666.87" y1="836.79" x2="665.18" y2="837.13"/>
  <line class="st3" x1="665.18" y1="837.13" x2="663.49" y2="836.46"/>
  <line class="st3" x1="663.49" y1="836.46" x2="662.14" y2="835.44"/>
  <line class="st3" x1="667.54" y1="834.77" x2="667.88" y2="835.11"/>
  <line class="st3" x1="667.88" y1="835.11" x2="667.88" y2="835.78"/>
  <line class="st3" x1="667.54" y1="834.77" x2="661.8" y2="830.04"/>
  <line class="st3" x1="661.8" y1="830.04" x2="658.09" y2="823.97"/>
  <line class="st3" x1="688.81" y1="835.44" x2="689.14" y2="835.44"/>
  <line class="st3" x1="689.14" y1="835.44" x2="689.48" y2="835.44"/>
  <line class="st3" x1="690.49" y1="835.44" x2="690.16" y2="835.44"/>
  <line class="st3" x1="690.16" y1="835.44" x2="689.48" y2="835.44"/>
  <line class="st3" x1="690.83" y1="835.78" x2="690.83" y2="835.44"/>
  <line class="st3" x1="690.83" y1="835.44" x2="690.49" y2="835.44"/>
  <line class="st3" x1="683.07" y1="835.78" x2="684.08" y2="836.79"/>
  <line class="st3" x1="684.08" y1="836.79" x2="685.43" y2="837.13"/>
  <line class="st3" x1="685.43" y1="837.13" x2="687.12" y2="836.46"/>
  <line class="st3" x1="687.12" y1="836.46" x2="688.8" y2="835.44"/>
  <line class="st3" x1="683.4" y1="834.77" x2="683.07" y2="835.11"/>
  <line class="st3" x1="683.07" y1="835.11" x2="683.07" y2="835.78"/>
  <line class="st3" x1="683.4" y1="834.77" x2="689.14" y2="830.04"/>
  <line class="st3" x1="689.14" y1="830.04" x2="692.52" y2="823.97"/>
  <line class="st3" x1="659.78" y1="835.78" x2="667.2" y2="839.49"/>
  <line class="st3" x1="667.2" y1="839.49" x2="675.3" y2="840.84"/>
  <line class="st3" x1="675.3" y1="840.85" x2="683.74" y2="839.5"/>
  <line class="st3" x1="683.74" y1="839.49" x2="690.83" y2="835.78"/>
  <line class="st3" x1="651.68" y1="823.97" x2="651.68" y2="760.18"/>
  <polyline class="st3" points="651.68 760.18 658.09 760.18 692.52 760.18 706.02 760.18 740.45 760.18 747.2 760.18"/>
  <polyline class="st3" points="747.2 823.97 740.45 823.97 706.02 823.97 692.52 823.97 658.09 823.97 651.68 823.97"/>
  <line class="st3" x1="741" y1="1016.23" x2="730.33" y2="1016.23"/>
  <rect class="st3" x="699.35" y="995.43" width="47.78" height="117.89"/>
  <line class="st3" x1="714.35" y1="1085.29" x2="714.35" y2="1074.85"/>
  <line class="st3" x1="733.96" y1="1085.29" x2="733.96" y2="1074.85"/>
  <line class="st3" x1="728.82" y1="1080.14" x2="739.25" y2="1080.14"/>
  <line class="st3" x1="709.07" y1="1080.14" x2="719.5" y2="1080.14"/>
  <rect class="st3" x="704.47" y="1068.32" width="39.36" height="22.95"/>
  <rect class="st3" x="710.21" y="1003.02" width="26.54" height="26.54"/>
  <rect class="st3" x="703.61" y="996.28" width="39.75" height="39.89"/>
  <g class="st10">
    <path class="st13" d="M542.73,904.4c-9.56,0-17.32-7.75-17.32-17.31s7.75-17.31,17.32-17.31,17.31,7.75,17.31,17.31-7.75,17.31-17.31,17.31"/>
    <path class="st1" d="M542.73,904.4c-9.56,0-17.32-7.75-17.32-17.31s7.75-17.31,17.32-17.31,17.31,7.75,17.31,17.31-7.75,17.31-17.31,17.31Z"/>
  </g>
  <rect class="st15" x="759.35" y="1040.76" width="26.5" height="87.33"/>
</svg>