<?xml version="1.0" encoding="UTF-8"?>
<svg id="Layer_1" xmlns="http://www.w3.org/2000/svg" xmlns:xlink="http://www.w3.org/1999/xlink" version="1.1" viewBox="0 0 1200 1697.14">
  <!-- Generator: Adobe Illustrator 29.6.0, SVG Export Plug-In . SVG Version: 2.1.1 Build 207)  -->
  <defs>
    <style>
      .st0, .st1, .st2, .st3 {
        fill: none;
      }

      .st1 {
        stroke: #0d0e1c;
      }

      .st1, .st2, .st3 {
        stroke-linecap: round;
        stroke-linejoin: round;
      }

      .st1, .st3 {
        stroke-width: .08px;
      }

      .st2 {
        stroke-width: .14px;
      }

      .st2, .st3 {
        stroke: #000;
      }

      .st4 {
        clip-path: url(#clippath-1);
      }

      .st5 {
        clip-path: url(#clippath-3);
      }

      .st6 {
        clip-path: url(#clippath-4);
      }

      .st7 {
        clip-path: url(#clippath-2);
      }

      .st8 {
        clip-path: url(#clippath-7);
      }

      .st9 {
        clip-path: url(#clippath-6);
      }

      .st10 {
        clip-path: url(#clippath-8);
      }

      .st11 {
        clip-path: url(#clippath-5);
      }

      .st12 {
        fill: #fff;
      }

      .st13 {
        fill: #ece9e5;
      }

      .st14 {
        fill: #302c35;
      }

      .st15 {
        clip-path: url(#clippath);
      }
    </style>
    <clipPath id="clippath">
      <rect class="st0" x="676.65" y="774.96" width="72.57" height="159.65"/>
    </clipPath>
    <clipPath id="clippath-1">
      <rect class="st0" x="356.84" y="441.48" width="486.32" height="814.19"/>
    </clipPath>
    <clipPath id="clippath-2">
      <rect class="st0" x="645.39" y="1002.49" width="28.61" height="39.22"/>
    </clipPath>
    <clipPath id="clippath-3">
      <rect class="st0" x="356.84" y="441.48" width="486.32" height="814.19"/>
    </clipPath>
    <clipPath id="clippath-4">
      <rect class="st0" x="356.84" y="441.48" width="486.32" height="814.19"/>
    </clipPath>
    <clipPath id="clippath-5">
      <rect class="st0" x="715.72" y="1085.22" width="27.51" height="37.12"/>
    </clipPath>
    <clipPath id="clippath-6">
      <rect class="st0" x="356.84" y="441.48" width="486.32" height="814.19"/>
    </clipPath>
    <clipPath id="clippath-7">
      <rect class="st0" x="356.84" y="441.48" width="486.32" height="814.19"/>
    </clipPath>
    <clipPath id="clippath-8">
      <rect class="st0" x="356.84" y="441.48" width="486.32" height="814.19"/>
    </clipPath>
  </defs>
  <rect class="st13" x="429.67" y="700.43" width="339.22" height="452.63"/>
  <rect class="st13" x="468.82" y="671.07" width="300.06" height="30.38"/>
  <rect class="st13" x="469.83" y="567.51" width="263.02" height="118.74"/>
  <rect class="st12" x="438.44" y="917.46" width="56.7" height="223.15"/>
  <rect class="st12" x="518.66" y="675.46" width="205.52" height="11.81"/>
  <rect class="st14" x="469.83" y="513.78" width="15.87" height="186.65"/>
  <rect class="st14" x="722.98" y="701.78" width="45.9" height="15.87"/>
  <rect class="st14" x="429.67" y="1137.19" width="113.75" height="15.87"/>
  <rect class="st14" x="614.63" y="1137.19" width="154.25" height="15.87"/>
  <rect class="st14" x="429.67" y="717.65" width="17.55" height="419.55"/>
  <rect class="st14" x="517.09" y="567.45" width="216.25" height="4.05"/>
  <rect class="st14" x="729.26" y="570.99" width="4.05" height="100.08"/>
  <rect class="st14" x="517.09" y="570.99" width="4.05" height="100.08"/>
  <rect class="st14" x="751.33" y="717.65" width="17.55" height="419.55"/>
  <rect class="st14" x="429.67" y="700.43" width="56.03" height="17.21"/>
  <rect class="st14" x="447.22" y="1012.98" width="56.03" height="6.07"/>
  <rect class="st14" x="623.74" y="1130.44" width="125.9" height="12.33"/>
  <rect class="st14" x="623.74" y="996.11" width="5.06" height="54.68"/>
  <rect class="st14" x="628.81" y="996.11" width="120.83" height="5.06"/>
  <rect class="st14" x="744.58" y="996.11" width="15.53" height="142.5"/>
  <rect class="st14" x="628.81" y="1001.17" width="115.77" height="1.35"/>
  <rect class="st14" x="628.81" y="998.72" width="1.35" height="52.07"/>
  <rect class="st14" x="623.74" y="1122.37" width="5.06" height="23.94"/>
  <rect class="st14" x="628.81" y="1122.29" width="1.35" height="24.02"/>
  <rect class="st14" x="628.81" y="1129.09" width="115.77" height="1.35"/>
  <rect class="st14" x="743.23" y="1001.17" width="1.35" height="127.92"/>
  <rect class="st14" x="631.85" y="936.36" width="119.49" height="7.77"/>
  <rect class="st14" x="623.74" y="936.36" width="8.1" height="59.74"/>
  <rect class="st14" x="722.98" y="671.07" width="45.9" height="30.72"/>
  <rect class="st14" x="483.89" y="701.78" width="42.02" height="15.87"/>
  <rect class="st14" x="483.89" y="671.07" width="42.02" height="30.72"/>
  <rect class="st14" x="485.7" y="513.78" width="30.72" height="188"/>
  <polygon class="st12" points="676.65 774.96 676.65 775.37 748.31 775.37 748.31 913.34 749.22 913.79 749.22 774.96 676.65 774.96"/>
  <polygon class="st12" points="676.65 775.37 676.65 877.87 692.57 885.75 732.38 905.45 748.31 913.34 748.31 775.37 676.65 775.37"/>
  <g class="st15">
    <path class="st12" d="M676.65,934.61v-56.74l15.92,7.88v28.26c0,1.82,1.47,3.28,3.29,3.28h33.24c1.81,0,3.28-1.47,3.28-3.28v-8.56l15.93,7.88v21.27h-71.66Z"/>
    <path class="st12" d="M692.57,914.01v-28.26l39.81,19.7v8.56c0,1.81-1.47,3.28-3.29,3.28h-33.24c-1.82,0-3.29-1.47-3.29-3.28"/>
  </g>
  <polyline class="st1" points="748.31 913.34 748.31 934.61 676.65 934.61 676.65 877.87"/>
  <polyline class="st1" points="732.38 905.45 748.31 913.34 749.22 913.79 749.22 774.96 676.65 774.96 676.65 775.37 676.65 877.87 692.57 885.75"/>
  <line class="st1" x1="729.1" y1="917.3" x2="695.86" y2="917.3"/>
  <g class="st4">
    <path class="st1" d="M695.86,917.3c-1.82,0-3.29-1.47-3.29-3.28"/>
    <path class="st1" d="M732.38,914.01c0,1.81-1.47,3.28-3.29,3.28"/>
  </g>
  <polyline class="st1" points="732.38 914.01 732.38 905.45 692.57 885.75 692.57 914.01"/>
  <g class="st7">
    <path class="st12" d="M674,1002.5c0,7.71,0,15.42-.02,23.12,0,8.89-6.41,16.09-14.31,16.08-7.9,0-14.28-7.21-14.28-16.1,0-7.7.02-15.42.02-23.12,9.52,0,19.06.02,28.59.02"/>
  </g>
  <g class="st5">
    <path class="st3" d="M674,1002.5c0,7.71,0,15.42-.02,23.12,0,8.89-6.41,16.09-14.31,16.08-7.9,0-14.28-7.21-14.28-16.1,0-7.7.02-15.42.02-23.12,9.52,0,19.06.02,28.59.02Z"/>
  </g>
  <rect class="st12" x="680.74" y="1002.52" width="62.49" height="63.21"/>
  <polyline class="st3" points="743.23 1002.52 743.23 1065.73 737.06 1065.73"/>
  <line class="st3" x1="743.23" y1="1002.52" x2="681.24" y2="1002.52"/>
  <line class="st3" x1="680.74" y1="1003.56" x2="680.74" y2="1065.18"/>
  <polyline class="st3" points="680.74 1003.56 680.74 1002.52 681.24 1002.52"/>
  <polyline class="st3" points="681.68 1065.73 680.74 1065.73 680.74 1065.18"/>
  <line class="st3" x1="681.68" y1="1065.73" x2="737.06" y2="1065.73"/>
  <line class="st3" x1="712.93" y1="1002.52" x2="712.93" y2="1020.08"/>
  <g class="st6">
    <path class="st3" d="M716.78,1020c0-2.17-1.76-3.93-3.93-3.93s-3.93,1.76-3.93,3.93,1.76,3.93,3.93,3.93,3.93-1.76,3.93-3.93Z"/>
    <path class="st3" d="M716.78,1020c0-2.17-1.76-3.93-3.93-3.93s-3.93,1.76-3.93,3.93,1.76,3.93,3.93,3.93,3.93-1.76,3.93-3.93Z"/>
  </g>
  <g class="st11">
    <path class="st12" d="M717.85,1085.85h15.49c.58,0,1.06.35,1.06.78v34.13c0,.44-.48.78-1.06.78h-15.49c-.6,0-1.07-.35-1.07-.78v-34.13c0-.44.48-.78,1.07-.78M725.32,1100.9c-1.55,0-2.81,1.25-2.81,2.8s1.26,2.8,2.81,2.8,2.8-1.25,2.8-2.8-1.25-2.8-2.8-2.8"/>
    <path class="st12" d="M737.03,1103.7c0-1.17.94-2.1,2.1-2.1s2.1.93,2.1,2.1-.93,2.1-2.1,2.1-2.1-.94-2.1-2.1"/>
    <path class="st12" d="M723.81,1103.7c0-.83.68-1.51,1.51-1.51s1.51.68,1.51,1.51-.68,1.51-1.51,1.51-1.51-.68-1.51-1.51"/>
    <path class="st12" d="M725.32,1105.21c.83,0,1.51-.68,1.51-1.51s-.68-1.51-1.51-1.51-1.51.68-1.51,1.51.68,1.51,1.51,1.51M722.51,1103.7c0-1.55,1.26-2.8,2.81-2.8s2.8,1.25,2.8,2.8-1.25,2.8-2.8,2.8-2.81-1.25-2.81-2.8"/>
    <path class="st12" d="M743.23,1085.22v37.12h-26.45c-.58,0-1.06-.35-1.06-.79v-35.69c0-.35.48-.63,1.06-.63h26.45ZM741.23,1103.7c0-1.17-.94-2.1-2.1-2.1s-2.1.93-2.1,2.1.94,2.1,2.1,2.1,2.1-.94,2.1-2.1M734.41,1120.76v-34.13c0-.44-.48-.78-1.06-.78h-15.5c-.59,0-1.07.35-1.07.78v34.13c0,.44.48.78,1.07.78h15.5c.58,0,1.06-.34,1.06-.78"/>
  </g>
  <g class="st9">
    <path class="st3" d="M739.13,1105.8c-1.17,0-2.1-.94-2.1-2.1s.94-2.1,2.1-2.1,2.1.93,2.1,2.1-.94,2.1-2.1,2.1Z"/>
    <path class="st3" d="M725.32,1106.5c-1.55,0-2.81-1.25-2.81-2.8s1.26-2.8,2.81-2.8,2.8,1.25,2.8,2.8-1.25,2.8-2.8,2.8Z"/>
    <path class="st3" d="M725.32,1105.21c-.83,0-1.51-.68-1.51-1.51s.68-1.51,1.51-1.51,1.51.68,1.51,1.51-.68,1.51-1.51,1.51Z"/>
    <path class="st3" d="M733.35,1085.85h-15.5c-.59,0-1.07.35-1.07.78v34.13c0,.44.48.78,1.07.78h15.5c.58,0,1.06-.34,1.06-.78v-34.13c0-.44-.48-.78-1.06-.78Z"/>
  </g>
  <line class="st3" x1="735.06" y1="1122.34" x2="743.23" y2="1122.34"/>
  <g class="st8">
    <path class="st3" d="M743.23,1085.22h-26.45c-.58,0-1.06.28-1.06.63v35.69c0,.44.48.79,1.06.79h8.39"/>
  </g>
  <line class="st3" x1="735.06" y1="1122.34" x2="725.17" y2="1122.34"/>
  <line class="st3" x1="743.23" y1="1122.34" x2="743.23" y2="1085.22"/>
  <polygon class="st12" points="501.44 850.21 505.16 856.29 510.56 861.01 511.23 861.35 510.89 862.03 509.88 863.04 508.53 863.38 506.84 862.7 505.16 861.69 504.82 861.69 504.48 861.69 504.14 861.69 503.47 861.69 503.13 862.03 510.56 865.74 518.64 867.09 518.67 867.09 526.76 865.74 534.18 862.03 534.18 861.69 533.85 861.69 533.17 861.69 532.83 861.69 532.5 861.69 532.16 861.69 530.47 862.7 528.78 863.38 527.43 863.04 526.42 862.03 526.42 861.35 526.76 861.01 532.16 856.29 535.87 850.21 501.44 850.21"/>
  <polygon class="st12" points="453.51 850.21 457.23 856.29 462.96 861.01 463.3 861.35 463.3 862.03 462.29 863.04 460.6 863.38 458.91 862.7 457.56 861.69 457.23 861.69 456.55 861.69 456.21 861.69 455.88 861.69 455.54 861.69 455.2 862.03 462.63 865.74 470.71 867.09 470.74 867.09 479.17 865.74 486.25 862.03 486.25 861.69 485.92 861.69 485.58 861.69 484.9 861.69 484.57 861.69 484.23 861.69 482.54 862.7 480.85 863.38 479.5 863.04 478.49 862.03 478.49 861.35 478.83 861.01 484.57 856.29 487.94 850.21 453.51 850.21"/>
  <polygon class="st12" points="535.87 786.42 501.44 786.42 487.94 786.42 453.51 786.42 447.1 786.42 447.1 850.21 453.51 850.21 487.94 850.21 501.44 850.21 535.87 850.21 542.62 850.21 542.62 786.42 535.87 786.42"/>
  <polygon class="st12" points="518.66 769.54 510.56 770.89 503.13 774.6 503.47 774.94 504.14 774.94 504.48 774.94 504.82 774.94 505.16 774.94 506.84 773.93 508.53 773.25 509.88 773.59 510.89 774.6 511.23 775.28 510.56 775.62 505.16 780.34 501.44 786.42 535.87 786.42 532.16 780.34 526.76 775.62 526.42 775.28 526.42 774.6 527.43 773.59 528.78 773.25 530.47 773.93 532.16 774.94 532.49 774.94 532.83 774.94 533.17 774.94 533.84 774.94 534.18 774.94 534.18 774.6 526.76 770.89 518.66 769.54"/>
  <polygon class="st12" points="470.73 769.54 462.63 770.89 455.2 774.6 455.54 774.94 455.88 774.94 456.21 774.94 456.55 774.94 457.23 774.94 457.56 774.94 458.91 773.93 460.6 773.25 462.29 773.59 463.3 774.6 463.3 775.28 462.97 775.62 457.23 780.34 453.51 786.42 487.94 786.42 484.57 780.34 478.83 775.62 478.49 775.28 478.49 774.6 479.5 773.59 480.85 773.25 482.54 773.93 484.23 774.94 484.57 774.94 484.9 774.94 485.58 774.94 485.92 774.94 486.25 774.94 486.25 774.6 479.17 770.89 470.73 769.54"/>
  <line class="st3" x1="532.16" y1="774.94" x2="532.49" y2="774.94"/>
  <line class="st3" x1="532.5" y1="774.94" x2="532.83" y2="774.94"/>
  <line class="st3" x1="533.85" y1="774.94" x2="533.17" y2="774.94"/>
  <line class="st3" x1="533.17" y1="774.94" x2="532.83" y2="774.94"/>
  <line class="st3" x1="534.18" y1="774.6" x2="534.18" y2="774.94"/>
  <line class="st3" x1="534.18" y1="774.94" x2="533.85" y2="774.94"/>
  <line class="st3" x1="526.42" y1="774.6" x2="527.43" y2="773.59"/>
  <line class="st3" x1="527.43" y1="773.59" x2="528.78" y2="773.25"/>
  <line class="st3" x1="528.78" y1="773.25" x2="530.47" y2="773.93"/>
  <line class="st3" x1="530.47" y1="773.93" x2="532.16" y2="774.94"/>
  <line class="st3" x1="526.76" y1="775.62" x2="526.42" y2="775.28"/>
  <line class="st3" x1="526.42" y1="775.28" x2="526.42" y2="774.6"/>
  <line class="st3" x1="526.76" y1="775.62" x2="532.16" y2="780.34"/>
  <line class="st3" x1="532.16" y1="780.34" x2="535.87" y2="786.42"/>
  <line class="st3" x1="505.16" y1="774.94" x2="504.82" y2="774.94"/>
  <line class="st3" x1="504.82" y1="774.94" x2="504.48" y2="774.94"/>
  <line class="st3" x1="503.47" y1="774.94" x2="504.14" y2="774.94"/>
  <line class="st3" x1="504.14" y1="774.94" x2="504.48" y2="774.94"/>
  <line class="st3" x1="503.13" y1="774.6" x2="503.47" y2="774.94"/>
  <line class="st3" x1="510.89" y1="774.6" x2="509.88" y2="773.59"/>
  <line class="st3" x1="509.88" y1="773.59" x2="508.53" y2="773.25"/>
  <line class="st3" x1="508.53" y1="773.25" x2="506.84" y2="773.93"/>
  <line class="st3" x1="506.84" y1="773.93" x2="505.16" y2="774.94"/>
  <line class="st3" x1="510.56" y1="775.62" x2="511.23" y2="775.28"/>
  <line class="st3" x1="511.23" y1="775.28" x2="510.9" y2="774.6"/>
  <line class="st3" x1="510.56" y1="775.62" x2="505.16" y2="780.34"/>
  <line class="st3" x1="505.16" y1="780.34" x2="501.44" y2="786.42"/>
  <line class="st3" x1="534.18" y1="774.6" x2="526.76" y2="770.89"/>
  <line class="st3" x1="526.76" y1="770.89" x2="518.66" y2="769.54"/>
  <line class="st3" x1="518.66" y1="769.54" x2="510.56" y2="770.89"/>
  <line class="st3" x1="510.56" y1="770.89" x2="503.13" y2="774.6"/>
  <line class="st3" x1="532.16" y1="861.69" x2="532.49" y2="861.69"/>
  <line class="st3" x1="532.5" y1="861.69" x2="532.83" y2="861.69"/>
  <line class="st3" x1="533.85" y1="861.69" x2="533.17" y2="861.69"/>
  <line class="st3" x1="533.17" y1="861.69" x2="532.83" y2="861.69"/>
  <line class="st3" x1="534.18" y1="862.02" x2="534.18" y2="861.69"/>
  <line class="st3" x1="534.18" y1="861.69" x2="533.85" y2="861.69"/>
  <line class="st3" x1="526.42" y1="862.02" x2="527.43" y2="863.04"/>
  <line class="st3" x1="527.43" y1="863.04" x2="528.78" y2="863.37"/>
  <line class="st3" x1="528.78" y1="863.37" x2="530.47" y2="862.7"/>
  <line class="st3" x1="530.47" y1="862.7" x2="532.16" y2="861.69"/>
  <line class="st3" x1="526.76" y1="861.01" x2="526.42" y2="861.35"/>
  <line class="st3" x1="526.42" y1="861.35" x2="526.42" y2="862.02"/>
  <line class="st3" x1="526.76" y1="861.01" x2="532.16" y2="856.29"/>
  <line class="st3" x1="532.16" y1="856.29" x2="535.87" y2="850.21"/>
  <line class="st3" x1="505.16" y1="861.69" x2="504.82" y2="861.69"/>
  <line class="st3" x1="504.82" y1="861.69" x2="504.48" y2="861.69"/>
  <line class="st3" x1="503.47" y1="861.69" x2="504.14" y2="861.69"/>
  <line class="st3" x1="504.14" y1="861.69" x2="504.48" y2="861.69"/>
  <line class="st3" x1="503.13" y1="862.02" x2="503.47" y2="861.69"/>
  <line class="st3" x1="510.89" y1="862.02" x2="509.88" y2="863.04"/>
  <line class="st3" x1="509.88" y1="863.04" x2="508.53" y2="863.37"/>
  <line class="st3" x1="508.53" y1="863.37" x2="506.84" y2="862.7"/>
  <line class="st3" x1="506.84" y1="862.7" x2="505.16" y2="861.69"/>
  <line class="st3" x1="510.56" y1="861.01" x2="511.23" y2="861.35"/>
  <line class="st3" x1="511.23" y1="861.35" x2="510.9" y2="862.02"/>
  <line class="st3" x1="510.56" y1="861.01" x2="505.16" y2="856.29"/>
  <line class="st3" x1="505.16" y1="856.29" x2="501.44" y2="850.21"/>
  <line class="st3" x1="534.18" y1="862.02" x2="526.76" y2="865.74"/>
  <line class="st3" x1="526.76" y1="865.74" x2="518.66" y2="867.09"/>
  <line class="st3" x1="518.66" y1="867.09" x2="510.56" y2="865.74"/>
  <line class="st3" x1="510.56" y1="865.74" x2="503.13" y2="862.02"/>
  <line class="st3" x1="542.62" y1="850.21" x2="542.62" y2="786.42"/>
  <line class="st3" x1="457.56" y1="774.94" x2="457.23" y2="774.94"/>
  <line class="st3" x1="457.23" y1="774.94" x2="456.55" y2="774.94"/>
  <line class="st3" x1="455.88" y1="774.94" x2="456.21" y2="774.94"/>
  <line class="st3" x1="456.21" y1="774.94" x2="456.55" y2="774.94"/>
  <line class="st3" x1="455.2" y1="774.6" x2="455.54" y2="774.94"/>
  <line class="st3" x1="455.54" y1="774.94" x2="455.88" y2="774.94"/>
  <line class="st3" x1="463.3" y1="774.6" x2="462.29" y2="773.59"/>
  <line class="st3" x1="462.29" y1="773.59" x2="460.6" y2="773.25"/>
  <line class="st3" x1="460.6" y1="773.25" x2="458.91" y2="773.93"/>
  <line class="st3" x1="458.91" y1="773.93" x2="457.56" y2="774.94"/>
  <line class="st3" x1="462.97" y1="775.62" x2="463.3" y2="775.28"/>
  <line class="st3" x1="463.3" y1="775.28" x2="463.3" y2="774.6"/>
  <line class="st3" x1="462.97" y1="775.62" x2="457.23" y2="780.34"/>
  <line class="st3" x1="457.23" y1="780.34" x2="453.51" y2="786.42"/>
  <line class="st3" x1="484.23" y1="774.94" x2="484.57" y2="774.94"/>
  <line class="st3" x1="484.57" y1="774.94" x2="484.9" y2="774.94"/>
  <line class="st3" x1="485.92" y1="774.94" x2="485.58" y2="774.94"/>
  <line class="st3" x1="485.58" y1="774.94" x2="484.9" y2="774.94"/>
  <line class="st3" x1="486.25" y1="774.6" x2="486.25" y2="774.94"/>
  <line class="st3" x1="486.25" y1="774.94" x2="485.92" y2="774.94"/>
  <line class="st3" x1="478.49" y1="774.6" x2="479.5" y2="773.59"/>
  <line class="st3" x1="479.5" y1="773.59" x2="480.85" y2="773.25"/>
  <line class="st3" x1="480.85" y1="773.25" x2="482.54" y2="773.93"/>
  <line class="st3" x1="482.54" y1="773.93" x2="484.23" y2="774.94"/>
  <line class="st3" x1="478.83" y1="775.62" x2="478.49" y2="775.28"/>
  <line class="st3" x1="478.49" y1="775.28" x2="478.49" y2="774.6"/>
  <line class="st3" x1="478.83" y1="775.62" x2="484.57" y2="780.34"/>
  <line class="st3" x1="484.57" y1="780.34" x2="487.94" y2="786.42"/>
  <line class="st3" x1="455.2" y1="774.6" x2="462.63" y2="770.89"/>
  <line class="st3" x1="462.63" y1="770.89" x2="470.73" y2="769.54"/>
  <line class="st3" x1="470.73" y1="769.54" x2="479.17" y2="770.89"/>
  <line class="st3" x1="479.17" y1="770.89" x2="486.25" y2="774.6"/>
  <line class="st3" x1="457.56" y1="861.69" x2="457.23" y2="861.69"/>
  <line class="st3" x1="457.23" y1="861.69" x2="456.55" y2="861.69"/>
  <line class="st3" x1="455.88" y1="861.69" x2="456.21" y2="861.69"/>
  <line class="st3" x1="456.21" y1="861.69" x2="456.55" y2="861.69"/>
  <line class="st3" x1="455.2" y1="862.02" x2="455.54" y2="861.69"/>
  <line class="st3" x1="455.54" y1="861.69" x2="455.88" y2="861.69"/>
  <line class="st3" x1="463.3" y1="862.02" x2="462.29" y2="863.04"/>
  <line class="st3" x1="462.29" y1="863.04" x2="460.6" y2="863.37"/>
  <line class="st3" x1="460.6" y1="863.37" x2="458.91" y2="862.7"/>
  <line class="st3" x1="458.91" y1="862.7" x2="457.56" y2="861.69"/>
  <line class="st3" x1="462.97" y1="861.01" x2="463.3" y2="861.35"/>
  <line class="st3" x1="463.3" y1="861.35" x2="463.3" y2="862.02"/>
  <line class="st3" x1="462.97" y1="861.01" x2="457.23" y2="856.29"/>
  <line class="st3" x1="457.23" y1="856.29" x2="453.51" y2="850.21"/>
  <line class="st3" x1="484.23" y1="861.69" x2="484.57" y2="861.69"/>
  <line class="st3" x1="484.57" y1="861.69" x2="484.9" y2="861.69"/>
  <line class="st3" x1="485.92" y1="861.69" x2="485.58" y2="861.69"/>
  <line class="st3" x1="485.58" y1="861.69" x2="484.9" y2="861.69"/>
  <line class="st3" x1="486.25" y1="862.02" x2="486.25" y2="861.69"/>
  <line class="st3" x1="486.25" y1="861.69" x2="485.92" y2="861.69"/>
  <line class="st3" x1="478.49" y1="862.02" x2="479.5" y2="863.04"/>
  <line class="st3" x1="479.5" y1="863.04" x2="480.85" y2="863.37"/>
  <line class="st3" x1="480.85" y1="863.37" x2="482.54" y2="862.7"/>
  <line class="st3" x1="482.54" y1="862.7" x2="484.23" y2="861.69"/>
  <line class="st3" x1="478.83" y1="861.01" x2="478.49" y2="861.35"/>
  <line class="st3" x1="478.49" y1="861.35" x2="478.49" y2="862.02"/>
  <line class="st3" x1="478.83" y1="861.01" x2="484.57" y2="856.29"/>
  <line class="st3" x1="484.57" y1="856.29" x2="487.94" y2="850.21"/>
  <line class="st3" x1="455.2" y1="862.02" x2="462.63" y2="865.74"/>
  <line class="st3" x1="462.63" y1="865.74" x2="470.73" y2="867.09"/>
  <line class="st3" x1="470.73" y1="867.09" x2="479.17" y2="865.74"/>
  <line class="st3" x1="479.17" y1="865.74" x2="486.25" y2="862.02"/>
  <line class="st3" x1="447.1" y1="850.21" x2="447.1" y2="786.42"/>
  <polyline class="st3" points="447.1 786.42 453.51 786.42 487.94 786.42 501.44 786.42 535.87 786.42 542.62 786.42"/>
  <polyline class="st3" points="542.62 850.21 535.87 850.21 501.44 850.21 487.94 850.21 453.51 850.21 447.1 850.21"/>
  <line class="st3" x1="465.38" y1="1039.98" x2="454.71" y2="1039.98"/>
  <rect class="st3" x="447.63" y="1019.18" width="47.78" height="117.89"/>
  <line class="st3" x1="462.64" y1="1109.04" x2="462.64" y2="1098.61"/>
  <line class="st3" x1="482.25" y1="1109.04" x2="482.25" y2="1098.61"/>
  <line class="st3" x1="477.1" y1="1103.89" x2="487.53" y2="1103.89"/>
  <line class="st3" x1="457.35" y1="1103.89" x2="467.78" y2="1103.89"/>
  <rect class="st3" x="452.76" y="1092.07" width="39.36" height="22.95"/>
  <rect class="st3" x="458.49" y="1026.77" width="26.55" height="26.54"/>
  <rect class="st3" x="451.89" y="1020.03" width="39.75" height="39.89"/>
  <path class="st3" d="M631.85,944.13h119.49M751.33,944.13v51.98M751.33,996.11h-119.49"/>
  <line class="st3" x1="469.83" y1="513.78" x2="469.83" y2="700.43"/>
  <path class="st3" d="M722.98,701.78v15.86M722.98,717.65h28.35M485.7,717.65h40.17M525.86,717.65v-15.86M614.63,1153.06h153.24M542.4,1137.2h-95.19M429.67,1137.2v15.86M441.82,1153.06h100.59M429.67,717.65v76.28M429.67,809.79v327.4M729.26,571.5h-208.12M521.14,571.5v99.57M729.26,671.07v-99.57M740.19,671.07h4.05M733.31,567.45h-216.22M517.09,567.45v103.62M517.09,671.07h4.05M521.14,671.07v-99.57M521.14,571.5h208.12M733.31,567.45v103.62M631.85,944.13l119.49,51.98M751.33,996.11h-119.49M631.85,944.13h119.49M751.33,944.13v51.98M768.88,1137.2v-419.55M447.22,848.95v-63.79"/>
  <path class="st3" d="M447.22,965.39h1.35M450.93,965.39h2.36M455.65,965.39h2.37M460.38,965.39h2.36M465.44,965.39h2.36M470.17,965.39h2.36M474.89,965.39h2.36M479.62,965.39h2.36M484.35,965.39h2.36M489.07,965.39h2.7M494.13,965.39h1.01M495.15,965.39v-1.35M495.15,961.68v-2.36M495.15,956.95v-2.36M495.15,952.23v-2.36M495.15,947.5v-2.7M495.15,942.44v-2.37M495.15,937.72v-2.36M495.15,932.99v-2.36M495.15,928.27v-2.36M495.15,923.54v-2.36M495.15,918.81v-1.35M495.15,917.46h-1.01M491.77,917.46h-2.7M486.71,917.46h-2.36M481.98,917.46h-2.36M477.26,917.46h-2.36M472.53,917.46h-2.36M467.81,917.46h-2.36M462.74,917.46h-2.36M458.02,917.46h-2.37M453.29,917.46h-2.36M448.57,917.46h-1.35M447.22,917.46v1.35M447.22,921.18v2.36M447.22,925.9v2.36M447.22,930.63v2.36M447.22,935.35v2.36M447.22,940.08v2.37M447.22,944.8v2.7M447.22,949.87v2.36M447.22,954.59v2.36M447.22,959.32v2.36M447.22,964.04v1.35M612.27,1070.7l-12.83,1.01M599.44,1071.71l-12.49,4.05M586.95,1075.76l-11.47,6.08M575.48,1081.84l-10.13,8.1M565.35,1089.94l-8.44,10.13M556.91,1100.07l-6.07,11.48M550.84,1111.54l-3.71,12.49M547.13,1124.03l-1.35,13.16M543.41,1137.19v15.87M614.63,1153.06v-15.87M612.27,1137.19v-66.49M615.64,1137.19h-1.01M447.22,1012.98h1.35M450.93,1012.98h2.36M455.65,1012.98h2.37M460.38,1012.98h2.36M465.44,1012.98h2.36M470.17,1012.98h2.36M474.89,1012.98h2.36M479.62,1012.98h2.36M484.35,1012.98h2.36M489.07,1012.98h2.7M494.13,1012.98h1.01M495.15,1012.98v-1.01M495.15,1009.61v-2.36M495.15,1004.88v-2.36M495.15,999.82v-2.36M495.15,995.1v-2.36M495.15,990.37v-2.37M495.15,985.64v-2.36M495.15,980.92v-2.36M495.15,976.19v-2.36M495.15,971.13v-2.36M495.15,966.41v-1.02M495.15,965.39h-1.01M491.77,965.39h-2.7M486.71,965.39h-2.36M481.98,965.39h-2.36M477.26,965.39h-2.36M472.53,965.39h-2.36M467.81,965.39h-2.36M462.74,965.39h-2.36M458.02,965.39h-2.37M453.29,965.39h-2.36M448.57,965.39h-1.35M447.22,965.39v1.02M447.22,968.77v2.36M447.22,973.83v2.36M447.22,978.56v2.36M447.22,983.28v2.36M447.22,988.01v2.37M447.22,992.73v2.36M447.22,997.46v2.36M447.22,1002.52v2.36M447.22,1007.25v2.36M447.22,1011.97v1.01M469.83,700.43h-40.17M447.22,717.65h38.48M447.22,1019.06h56.03M503.25,1019.06v-6.08M503.25,1012.98h-56.03M768.88,1012.98v6.08M529.24,600.19l13.16,1.01M542.4,601.2l12.83,3.71M555.23,604.91l11.82,5.4M567.04,610.31l10.8,7.43M577.84,617.74l9.11,9.45M586.95,627.19l7.76,10.8M594.72,637.99l5.4,11.81M600.12,649.8l3.38,12.83M603.49,662.63l1.35,12.83M529.24,675.46v-75.27M534.3,680.18h65.48M599.78,680.18v-4.05M599.78,676.13h-65.48M534.3,676.13v4.05M603.16,687.27h-72.23M534.3,675.46h65.48M534.3,681.87h65.48M603.16,681.87v5.4M530.92,682.21v5.06M530.92,681.87h72.23M526.87,687.27h4.05M530.92,687.27v-5.4M530.92,681.87h3.38M534.3,681.87v-6.41M534.3,675.46h-7.43M526.87,675.46v11.81M603.16,687.27h4.05M607.21,687.27v-11.81M607.21,675.46h-7.43M599.78,675.46v6.41M599.78,681.87h3.38M603.16,681.87v5.4M717.92,676.13v4.05M612.27,676.13h105.65M612.27,680.18v-4.05M717.92,680.18h-105.65M612.27,687.27h105.65M717.92,675.46h-105.65M612.27,675.46v11.81M608.22,675.46h4.05M608.22,687.27v-11.81M612.27,687.27h-4.05M721.97,675.46v11.81M717.92,675.46h4.05M717.92,687.27v-11.81M721.97,687.27h-4.05M525.86,717.65h-42.86M447.22,717.65v295.34M447.22,1019.06v118.13M542.4,1137.19h1.01M545.78,1137.19h66.49M614.63,1137.19h9.11M623.74,936.37h127.59M751.33,936.37v-218.72M722.98,717.65v-18.9M525.86,698.75v18.9M429.67,700.43h40.17"/>
  <line class="st3" x1="469.83" y1="700.43" x2="469.83" y2="513.78"/>
  <path class="st3" d="M768.88,1153.06h-154.25M615.65,1137.19h-1.01M543.41,1153.06h-96.2M447.22,1068v47.93M447.22,1020.41v95.52M623.75,1132.13v5.06M628.81,1122.34h-5.06M623.75,1122.34v9.79M623.75,996.11v54.68M628.81,1122.34h-5.06M749.64,996.11h-117.8"/>
  <path class="st3" d="M694.63,1118.97l-1.35-12.83M693.28,1106.14l-3.71-12.49M689.56,1093.65l-6.07-11.14M683.49,1082.51l-8.1-10.13M675.39,1072.39l-9.79-8.1M665.6,1064.29l-11.47-6.08M654.12,1058.21l-12.49-3.71M641.63,1054.5l-12.83-1.35M630.16,1050.79h-6.41M628.81,1118.97h65.82M628.81,1115.59v3.38M628.81,1118.97v-65.82"/>
  <path class="st3" d="M713.19,1002.52h1.69M710.49,1002.52h1.35M710.49,1002.52h4.39M710.49,1002.52h1.35M713.19,1002.52h1.69M630.16,1002.52h113.07M630.16,1050.79v-48.27M630.16,1129.09v-6.75M630.16,1122.34h-1.35M743.23,1129.09h-113.07M743.23,1002.52v126.57"/>
  <path class="st3" d="M751.33,936.37h-8.1M743.23,936.37v7.76M743.23,944.13h8.1M695.64,936.37h-63.79M631.85,944.13h63.79M695.64,944.13v-7.76M695.64,936.37h47.59M743.23,944.13h-47.59M743.23,936.37v7.76M695.64,944.13v-7.76M623.75,936.37v59.74M631.85,936.37h-8.1M525.86,701.78v-30.72M525.86,671.07h-9.45M768.88,671.07h-45.9M722.98,671.07v30.72M722.98,679.84v-8.78M722.98,679.84h-1.01M608.22,679.84h-1.01M526.88,679.84h-1.01M722.98,679.84v18.9M525.86,671.07v8.78M525.86,679.84h1.01M607.21,679.84h1.01M721.97,679.84h1.01"/>
  <line class="st3" x1="516.41" y1="671.07" x2="516.41" y2="513.78"/>
  <path class="st3" d="M768.88,671.07v481.99M447.22,1153.06h-17.55M429.67,1153.06v-452.63"/>
  <g class="st10">
    <path class="st2" d="M71.21,1117.95h6.07M94.84,1197.27l16.2-7.09M106.65,1172.63l4.38,17.55M134.33,1201.32l-27.68-28.69M134.33,1201.32l-39.49-4.05M134.33,1201.32l-23.29-11.14M71.21,878.65h6.07M71.21,1038.3h6.07M71.21,958.64h6.07M71.21,878.65v239.31M1197.54,418.93H13.83"/>
    <path d="M92.6,469.85c-.43.28-.75.67-.96,1.17-.21.5-.32,1.11-.32,1.85,0,.58.11,1.1.32,1.57s.5.82.88,1.07c.38.25.78.37,1.21.37s.81-.11,1.15-.34c.33-.22.6-.58.82-1.05.14-.33.32-.92.52-1.8.19-.88.38-1.42.57-1.62.19-.21.42-.32.72-.32.33,0,.62.15.85.45.23.3.35.77.35,1.42s-.13,1.1-.39,1.42c-.26.32-.64.51-1.15.56l.07,1.03c.47-.02.9-.15,1.27-.4.37-.25.65-.6.85-1.06.19-.46.29-.99.29-1.6,0-.55-.09-1.04-.28-1.49-.18-.45-.45-.79-.81-1.02-.35-.23-.74-.35-1.14-.35-.37,0-.7.09-1,.29-.3.19-.55.48-.75.87-.16.3-.32.82-.5,1.57-.18.75-.31,1.23-.4,1.45-.13.34-.28.59-.48.73-.19.15-.41.22-.66.22s-.48-.08-.69-.23c-.21-.16-.37-.39-.49-.7-.12-.32-.18-.68-.18-1.09,0-.46.08-.88.24-1.25.16-.37.37-.64.62-.82.26-.18.59-.29.99-.34l-.09-1.02c-.54.02-1.02.16-1.45.45M91.46,478.56h2.79l1.28,1.33-4.08,2.9v1.42l4.79-3.56,3.26,3.41v-1.46l-4-4.04h4v-1.08h-8.06v1.08Z"/>
    <path d="M97.12,488.08h-.92v5.37h.92v-5.37ZM94.68,488.08h-.92v5.37h.92v-5.37Z"/>
    <path d="M92.6,498.2c-.43.28-.75.67-.96,1.17-.21.5-.32,1.11-.32,1.85,0,.58.11,1.1.32,1.57.21.47.51.82.88,1.07.38.25.78.37,1.22.37s.81-.11,1.14-.34c.33-.23.61-.58.82-1.05.15-.33.32-.92.52-1.8.19-.88.39-1.42.57-1.62.19-.21.42-.32.72-.32.33,0,.62.15.86.45.24.3.36.77.36,1.43s-.13,1.1-.39,1.42c-.26.32-.64.51-1.15.56l.08,1.03c.47-.02.9-.15,1.27-.4.37-.25.66-.61.85-1.06.19-.46.29-.99.29-1.6,0-.55-.09-1.04-.28-1.49-.18-.45-.45-.79-.81-1.02-.35-.23-.73-.35-1.14-.35-.37,0-.71.1-1,.29-.3.19-.55.48-.75.87-.15.3-.32.82-.5,1.57-.18.75-.31,1.23-.39,1.45-.13.34-.29.59-.47.73-.19.15-.41.22-.66.22s-.48-.07-.69-.23c-.21-.16-.38-.39-.5-.7-.12-.32-.18-.68-.18-1.09,0-.46.08-.88.24-1.25.16-.37.37-.64.63-.82.26-.18.59-.29.99-.34l-.09-1.02c-.54.01-1.02.16-1.45.45"/>
    <path d="M91.46,506.42h2.31l.67.71-2.99,1.95v1.23l3.67-2.48,2.16,2.26v-1.3l-2.37-2.37h4.59v-1h-8.06v1ZM91.46,515.54v1.04c.22-.12.46-.21.7-.25.24-.05.83-.07,1.75-.07h1.32c.44,0,.74-.02.91-.05.27-.06.5-.16.67-.31.18-.15.33-.38.44-.69.12-.31.18-.72.18-1.23s-.07-.95-.21-1.33c-.14-.38-.33-.68-.59-.88-.26-.21-.59-.35-1-.44l-.13.98c.42.11.7.27.87.5.16.22.24.57.24,1.04,0,.5-.11.88-.33,1.14-.17.19-.45.28-.85.28-.03,0-.12,0-.26,0-.13-.38-.25-.98-.34-1.78-.05-.39-.09-.69-.15-.89-.07-.27-.18-.5-.33-.72-.14-.21-.33-.38-.57-.52-.24-.13-.5-.2-.78-.2-.49,0-.89.17-1.2.52-.32.35-.47.85-.47,1.49,0,.39.07.76.19,1.1.13.34.35.7.66,1.07-.28.03-.52.1-.72.2M94.03,515.26c-.44,0-.77-.05-.99-.16-.29-.14-.52-.36-.68-.66-.17-.3-.25-.64-.25-1.03s.09-.68.27-.88c.18-.2.4-.31.66-.31.18,0,.33.05.47.14.14.09.25.22.33.39.07.17.14.46.19.87.1.73.23,1.27.38,1.63h-.36Z"/>
    <path d="M91.46,518.57h2.32l.67.71-2.99,1.95v1.23l3.67-2.48,2.16,2.25v-1.29l-2.37-2.37h4.6v-1h-8.06v1ZM92.31,525.05c0-.15.02-.26.07-.34.05-.08.11-.14.19-.17.08-.04.26-.05.55-.05h3.41v1.01h.77v-1.01h2.04l-.59-.99h-1.45v-.73h-.77v.73h-3.36c-.6,0-.98.04-1.17.12-.19.08-.34.22-.45.42-.11.2-.17.48-.17.84,0,.22.03.47.09.76l.88-.14c-.02-.18-.04-.33-.04-.44"/>
    <path d="M78.3,470.9h3.66v3.82h.95v-3.82h2.49v4.41h.95v-5.49h-8.06v1.08ZM79.44,476.6c-.43.28-.75.67-.96,1.17-.21.5-.32,1.11-.32,1.85,0,.58.11,1.1.32,1.57.21.46.51.82.88,1.07.38.25.79.37,1.22.37s.81-.11,1.14-.34c.33-.23.61-.58.83-1.05.14-.33.32-.92.51-1.8.2-.88.39-1.42.57-1.62.19-.21.43-.32.72-.32.33,0,.62.15.85.45.24.3.36.77.36,1.43s-.13,1.1-.39,1.42c-.26.32-.64.51-1.15.56l.08,1.03c.47-.02.9-.15,1.27-.4.37-.25.66-.61.85-1.06s.29-.99.29-1.6c0-.55-.09-1.04-.28-1.49-.19-.45-.45-.79-.81-1.02-.35-.23-.73-.35-1.14-.35-.37,0-.7.1-1,.29-.3.19-.55.48-.75.87-.16.3-.33.82-.5,1.57-.18.75-.31,1.23-.4,1.45-.13.34-.28.59-.47.73-.19.15-.41.22-.66.22s-.48-.07-.69-.23c-.21-.16-.38-.39-.5-.7-.12-.32-.18-.68-.18-1.09,0-.46.08-.88.24-1.25.16-.37.37-.64.63-.82.26-.18.59-.29.99-.34l-.09-1.02c-.54.01-1.02.16-1.45.45"/>
    <path d="M83.96,487.07h-.92v5.37h.92v-5.37ZM81.51,487.07h-.92v5.37h.92v-5.37Z"/>
    <polygon points="78.3 498.23 81.96 498.23 81.96 502.05 82.91 502.05 82.91 498.23 85.41 498.23 85.41 502.64 86.36 502.64 86.36 497.15 78.3 497.15 78.3 498.23"/>
    <path d="M78.95,504.46c-.52.51-.79,1.18-.79,2,0,.51.12.99.36,1.43.24.44.57.76,1,.99.43.23,1.02.34,1.77.34.93,0,1.66-.26,2.18-.77.53-.52.79-1.18.79-1.99,0-.73-.22-1.34-.65-1.85-.52-.61-1.32-.91-2.4-.91-.99,0-1.74.25-2.26.76M82.89,505.21c.37.33.56.74.56,1.24s-.19.9-.56,1.24c-.37.33-.92.5-1.64.5-.77,0-1.34-.16-1.71-.49-.37-.33-.56-.75-.56-1.24s.19-.91.56-1.24c.37-.33.93-.49,1.68-.49s1.31.17,1.68.49M78.3,511.12h3.06c.42,0,.81.06,1.16.17.23.07.41.2.54.37.13.18.2.37.2.59,0,.24-.07.49-.21.73l.92.34c.21-.35.32-.69.32-1.03,0-.23-.07-.45-.2-.64-.13-.19-.41-.4-.82-.63h.89v-.9h-5.84v1Z"/>
    <path d="M79.27,517.27c-.19-.26-.28-.57-.28-.94,0-.49.17-.9.51-1.23.34-.33.83-.51,1.47-.55v4.39c.12,0,.2,0,.26,0,.96,0,1.71-.25,2.24-.75.53-.5.8-1.14.8-1.93s-.27-1.47-.81-1.99c-.54-.51-1.31-.77-2.29-.77s-1.69.25-2.21.76c-.53.51-.79,1.19-.79,2.05,0,.68.16,1.24.49,1.69.33.44.79.74,1.39.9l.13-1.03c-.42-.15-.72-.35-.91-.62M83,515.13c.3.31.46.7.46,1.16,0,.51-.19.92-.57,1.24-.25.21-.62.33-1.11.38v-3.29c.51.03.92.21,1.22.52M78.64,520.64c-.31.4-.47.99-.47,1.75,0,.46.08.88.24,1.24.16.37.39.65.68.84.29.19.6.29.93.29s.62-.08.84-.24c.23-.16.4-.38.52-.66.12-.28.27-.77.46-1.48.13-.49.22-.78.25-.88.07-.18.16-.3.27-.38.1-.08.22-.12.35-.12.2,0,.38.1.53.29.15.2.23.52.23.98,0,.39-.08.69-.25.9-.17.21-.41.34-.7.39l.13.97c.38-.06.68-.18.9-.34.22-.17.41-.42.54-.77s.2-.76.2-1.22c0-.31-.04-.6-.12-.87-.08-.27-.18-.48-.29-.63-.14-.21-.33-.37-.55-.49-.22-.12-.46-.18-.72-.18-.29,0-.55.07-.79.22-.23.15-.42.36-.55.64-.14.28-.29.79-.48,1.52-.14.54-.25.89-.33,1.02-.13.2-.3.29-.53.29-.25,0-.47-.11-.65-.33-.19-.22-.28-.56-.28-1.02s.1-.81.31-1.06c.21-.25.51-.41.9-.47l-.15-.99c-.62.11-1.09.37-1.4.77M86.36,526.02h-8.06v1h8.06v-1ZM78.3,532.7v1.04c.22-.13.46-.21.7-.26.25-.04.83-.06,1.75-.06h1.32c.44,0,.74-.02.91-.05.27-.06.5-.17.67-.31.18-.15.33-.38.45-.69.11-.31.17-.72.17-1.22s-.07-.95-.21-1.34c-.14-.38-.33-.68-.59-.88-.26-.21-.59-.35-1-.44l-.13.98c.42.11.7.27.87.5.16.22.24.57.24,1.04,0,.5-.11.88-.33,1.14-.17.19-.45.28-.85.28-.04,0-.12,0-.26,0-.13-.38-.25-.98-.34-1.78-.05-.39-.1-.69-.15-.89-.07-.27-.18-.5-.32-.72-.14-.21-.33-.38-.57-.52-.23-.13-.5-.2-.78-.2-.49,0-.89.17-1.2.52s-.47.85-.47,1.49c0,.39.06.76.19,1.1.13.34.35.7.66,1.07-.28.03-.52.1-.72.2M80.87,532.42c-.44,0-.77-.06-.99-.16-.29-.14-.52-.36-.69-.66-.17-.3-.25-.64-.25-1.03s.09-.68.27-.88c.17-.2.4-.3.66-.3.17,0,.33.04.47.14.14.09.25.22.32.39.07.17.14.46.2.87.1.72.22,1.27.37,1.63h-.36ZM84.92,530.33c-.2.2-.29.43-.29.71s.1.5.29.7c.2.2.43.3.71.3s.52-.1.71-.3c.2-.2.29-.43.29-.7s-.1-.5-.29-.7-.42-.3-.69-.3c-.29,0-.54.1-.73.29M86.06,530.63c.12.12.18.25.18.41s-.06.3-.18.42c-.12.11-.26.17-.43.17s-.3-.06-.42-.17c-.12-.12-.18-.25-.18-.41s.06-.3.18-.41.26-.18.43-.18c.16,0,.3.06.42.18M79.27,538.49c-.19-.26-.28-.57-.28-.94,0-.49.17-.9.51-1.23.34-.33.83-.51,1.47-.55v4.4c.12,0,.2,0,.26,0,.96,0,1.71-.25,2.24-.75.53-.5.8-1.14.8-1.93s-.27-1.47-.81-1.99c-.54-.51-1.31-.76-2.29-.76s-1.69.25-2.21.76c-.53.5-.79,1.19-.79,2.05,0,.68.16,1.25.49,1.69.33.44.79.74,1.39.9l.13-1.03c-.42-.15-.72-.36-.91-.62M83,536.34c.3.31.46.7.46,1.16,0,.5-.19.92-.57,1.24-.25.21-.62.33-1.11.38v-3.29c.51.04.92.21,1.22.52"/>
    <path d="M79.14,543.27c0-.15.03-.26.07-.34s.11-.14.19-.17.26-.05.55-.05h3.41v1.01h.77v-1.01h2.04l-.59-1h-1.44v-.73h-.77v.73h-3.36c-.6,0-.98.04-1.17.12-.19.08-.33.22-.45.42-.12.2-.17.48-.17.84,0,.22.03.47.09.75l.88-.14c-.03-.18-.04-.33-.04-.44M78.64,547.97c-.32.4-.47.99-.47,1.75,0,.46.08.88.24,1.24.16.36.38.64.68.84.29.2.6.29.93.29s.62-.08.84-.24c.23-.16.4-.38.52-.66.12-.28.27-.77.46-1.48.13-.49.22-.78.25-.88.07-.17.15-.3.27-.38.1-.08.21-.12.35-.12.2,0,.38.1.53.3s.22.52.22.98c0,.39-.08.69-.25.9-.17.21-.4.34-.7.38l.13.98c.37-.07.68-.18.9-.35.23-.17.41-.43.54-.77.13-.35.2-.76.2-1.22,0-.31-.04-.6-.12-.86-.08-.27-.18-.48-.29-.63-.15-.21-.33-.37-.55-.49-.22-.12-.46-.18-.72-.18-.28,0-.55.07-.78.22-.23.15-.42.36-.56.65-.13.28-.29.79-.48,1.52-.14.54-.25.88-.34,1.02-.13.2-.3.29-.53.29-.25,0-.47-.11-.65-.33-.18-.22-.28-.56-.28-1.02s.1-.81.31-1.06c.21-.25.51-.41.9-.46l-.15-.99c-.62.11-1.09.36-1.4.77"/>
    <path d="M78.3,554.69h2.31l.67.7-2.99,1.95v1.23l3.67-2.48,2.16,2.25v-1.29l-2.37-2.36h4.6v-1h-8.06v1ZM78.3,563.47v1.04c.22-.12.46-.21.7-.25.24-.05.83-.07,1.75-.07h1.32c.44,0,.74-.02.91-.05.27-.06.5-.16.67-.31.18-.15.33-.38.44-.69.12-.31.17-.72.17-1.23s-.07-.95-.2-1.33c-.14-.38-.34-.68-.59-.88-.25-.21-.59-.35-1-.44l-.13.98c.41.11.7.27.87.5.16.22.24.57.24,1.04,0,.5-.11.88-.33,1.14-.17.19-.45.28-.85.28-.04,0-.13,0-.26,0-.14-.38-.25-.98-.35-1.78-.04-.39-.09-.69-.15-.89-.07-.27-.18-.5-.33-.72-.14-.21-.33-.38-.57-.52-.23-.13-.49-.2-.78-.2-.49,0-.89.17-1.2.52-.31.35-.47.85-.47,1.49,0,.39.07.76.2,1.1.13.34.35.7.66,1.07-.28.03-.52.1-.72.2M80.87,563.18c-.44,0-.77-.05-.99-.16-.29-.14-.52-.36-.69-.66-.17-.3-.25-.64-.25-1.03s.09-.68.27-.88c.18-.2.4-.31.66-.31.17,0,.33.05.47.14.14.09.25.22.32.39.07.17.14.46.19.87.11.73.23,1.27.38,1.63h-.36Z"/>
    <path d="M79.03,566.42c-.57.39-.86.94-.86,1.64s.27,1.3.82,1.8c.55.5,1.32.75,2.32.75.42,0,.82-.06,1.19-.18.37-.12.69-.28.95-.49.26-.21.47-.48.61-.8.14-.32.22-.67.22-1.03,0-.65-.26-1.19-.79-1.61h2.88v-1h-8.06v.93h.73ZM82.89,566.88c.37.32.56.7.56,1.13s-.18.8-.54,1.11c-.36.31-.93.46-1.69.46s-1.3-.16-1.68-.48c-.37-.32-.56-.7-.56-1.13,0-.53.25-.96.76-1.28.31-.19.82-.29,1.52-.29s1.25.16,1.63.48"/>
    <path d="M79.33,877.22c-.56.45-.83,1.06-.83,1.85,0,.6.16,1.09.48,1.48.31.39.76.68,1.34.88.58.2,1.34.29,2.29.29.8,0,1.44-.06,1.9-.18.47-.12.87-.29,1.2-.51.33-.21.58-.49.76-.82.18-.33.26-.71.26-1.15,0-.59-.15-1.08-.47-1.47-.31-.39-.76-.69-1.34-.88-.58-.2-1.35-.29-2.3-.29-1.51,0-2.6.27-3.27.8M85.33,877.96c.38.28.58.64.58,1.1s-.22.85-.66,1.17-1.32.47-2.64.47-2.2-.16-2.64-.47c-.44-.31-.66-.7-.66-1.16s.22-.84.65-1.16c.44-.31,1.32-.47,2.64-.47s2.23.17,2.72.51M79.59,1030.92c.18.11.36.25.54.42.18.17.52.55,1.01,1.15.6.72,1.08,1.23,1.42,1.54.35.31.67.53.98.66.31.13.63.2.95.2.63,0,1.17-.23,1.6-.68.43-.46.64-1.07.64-1.86s-.2-1.39-.6-1.85-.97-.72-1.74-.79l-.1,1.03c.5,0,.9.15,1.19.44.29.29.43.68.43,1.15,0,.46-.14.83-.41,1.11-.27.28-.6.42-.99.42s-.77-.16-1.19-.47c-.42-.31-.99-.91-1.71-1.8-.46-.57-.87-1-1.22-1.31-.35-.3-.71-.52-1.07-.66-.22-.08-.45-.12-.69-.11v5.38h.95v-3.99Z"/>
    <path d="M78.64,1037.01h3.03c.53,0,.94.05,1.22.16.28.11.5.28.64.52.15.24.22.5.22.78,0,.37-.11.64-.33.8-.22.16-.55.25-.99.25h-3.79v1h3.39c.6,0,1.04.14,1.31.41.27.28.41.62.41,1.04,0,.23-.06.43-.16.6-.11.17-.25.29-.42.35-.18.07-.46.1-.86.1h-3.68v.99h4.01c.67,0,1.16-.16,1.48-.47.32-.32.48-.76.48-1.35,0-.74-.34-1.35-1.02-1.82.32-.11.57-.31.75-.59.18-.28.27-.64.27-1.08,0-.39-.08-.74-.26-1.05-.17-.31-.41-.55-.69-.74h.82v-.89h-5.84v1Z"/>
    <path d="M86.73,956.12v-.64c-.35-.17-.71-.47-1.08-.89-.37-.42-.68-.9-.94-1.46h-.96c.11.31.28.66.51,1.05.23.39.46.71.68.95h-6.31v1h8.09ZM78.64,960.05h3.03c.53,0,.94.05,1.22.16.28.11.5.28.64.52.15.24.22.5.22.78,0,.37-.11.63-.33.8-.22.16-.55.25-.99.25h-3.79v1h3.39c.6,0,1.04.14,1.31.41.27.28.41.62.41,1.03,0,.23-.06.43-.16.6-.11.17-.25.28-.42.35-.18.07-.46.1-.86.1h-3.68v.99h4.01c.67,0,1.16-.16,1.48-.47.32-.32.48-.76.48-1.35,0-.75-.34-1.36-1.02-1.82.32-.12.57-.31.75-.59.18-.28.27-.64.27-1.07,0-.39-.08-.74-.26-1.05-.17-.31-.41-.55-.69-.74h.82v-.89h-5.84v1Z"/>
    <path d="M78.64,781.3h6.86l-6.86,2.35v.97l6.74,2.36h-6.74v1.04h8.06v-1.45l-5.61-1.94c-.57-.2-1-.34-1.29-.44.26-.08.66-.21,1.19-.39l5.71-1.92v-1.62h-8.06v1.04ZM78.64,793.32v1.04c.22-.12.46-.21.7-.25.24-.04.83-.06,1.74-.06h1.32c.44,0,.75-.02.92-.05.27-.06.49-.17.67-.31.18-.15.32-.38.44-.69.12-.32.17-.72.17-1.22s-.07-.96-.21-1.34c-.14-.39-.33-.68-.59-.88-.25-.21-.59-.35-1-.44l-.13.98c.42.11.71.27.87.49.16.22.25.57.25,1.04,0,.5-.11.88-.34,1.14-.16.19-.45.28-.85.28-.04,0-.12,0-.26,0-.13-.38-.25-.98-.34-1.78-.05-.39-.1-.69-.15-.89-.07-.27-.18-.5-.33-.72-.14-.21-.33-.38-.57-.51-.24-.13-.5-.2-.79-.2-.49,0-.89.17-1.2.52-.31.35-.47.85-.47,1.49,0,.39.07.76.19,1.1.13.34.35.7.66,1.07-.28.03-.52.1-.72.2M81.2,793.04c-.44,0-.76-.06-.99-.16-.29-.14-.52-.36-.68-.66-.17-.3-.25-.64-.25-1.03s.09-.68.26-.89c.17-.2.39-.3.66-.3.17,0,.33.04.47.14.14.09.25.22.32.39.07.17.14.46.2.87.1.73.22,1.27.37,1.63h-.36ZM85.26,790.95c-.2.2-.29.43-.29.71s.1.5.29.7c.19.2.43.29.71.29s.52-.1.71-.29c.2-.2.29-.43.29-.7s-.1-.5-.29-.7c-.2-.2-.43-.3-.69-.3-.29,0-.54.1-.73.3M86.4,791.25c.12.12.17.25.17.41s-.06.3-.18.42c-.12.11-.26.17-.42.17s-.31-.06-.42-.18c-.12-.12-.18-.25-.18-.41s.06-.3.18-.41c.12-.12.26-.18.43-.18.16,0,.3.06.42.18"/>
    <rect x="78.64" y="795.67" width="8.06" height="1"/>
    <path d="M86.73,804.91v-.65c-.35-.17-.71-.47-1.07-.89-.37-.42-.69-.91-.95-1.46h-.96c.12.31.29.66.51,1.05.23.39.46.71.68.95h-6.31v1h8.09ZM84.47,808.12h-1.13v1.14h1.13v-1.14ZM79.76,808.12h-1.13v1.14h1.13v-1.14Z"/>
    <path d="M79.11,811.4c-.41.47-.62,1.07-.62,1.81,0,.9.33,1.61.98,2.14.53.43,1.16.64,1.89.64s1.39-.25,1.88-.73c.49-.49.73-1.09.73-1.8,0-.54-.17-1.05-.5-1.54l2.16.44v3.25h.95v-4.05l-4.14-.79-.12.94c.23.15.42.35.56.61.14.26.21.55.21.87,0,.52-.16.94-.49,1.26-.32.32-.77.48-1.33.48s-1.07-.17-1.43-.5c-.36-.33-.54-.74-.54-1.22,0-.4.13-.74.38-1.03.26-.28.63-.46,1.14-.54l-.09-1.05c-.68.07-1.22.34-1.63.8M79.33,817.82c-.56.45-.83,1.06-.83,1.85,0,.6.16,1.09.48,1.48.31.39.76.68,1.35.88.58.2,1.34.3,2.29.3.8,0,1.44-.06,1.91-.18.47-.12.87-.29,1.2-.51.33-.21.58-.49.76-.82.18-.33.26-.71.26-1.15,0-.59-.15-1.08-.47-1.47-.31-.39-.76-.68-1.34-.88-.58-.2-1.35-.3-2.3-.3-1.51,0-2.6.27-3.27.81M85.33,818.56c.39.27.58.64.58,1.1s-.22.86-.66,1.17c-.43.31-1.32.47-2.64.47s-2.2-.15-2.64-.47c-.44-.31-.66-.7-.66-1.16s.22-.84.66-1.16,1.32-.47,2.64-.47,2.23.17,2.72.51"/>
    <polygon class="st12" points="78.64 1168.25 101.25 1179.38 94.5 1193.9 71.55 1182.76 78.64 1168.25"/>
    <polygon points="81.39 1173.99 92.74 1179.48 77.7 1181.6 76.75 1183.57 91.19 1190.56 92.08 1188.72 80.74 1183.23 95.77 1181.11 96.72 1179.14 82.28 1172.15 81.39 1173.99"/>
    <path d="M79.13,1110.13c-.42.47-.63,1.06-.63,1.78,0,.79.25,1.44.73,1.96.49.52,1.09.77,1.79.77.52,0,.95-.13,1.3-.4.35-.27.57-.64.69-1.12.17.37.4.65.68.84.29.19.6.28.95.28.36,0,.71-.1,1.04-.3.33-.2.59-.49.77-.86.19-.37.28-.78.28-1.23,0-.64-.18-1.18-.55-1.62-.37-.43-.88-.71-1.54-.83l-.18,1c.48.07.85.24,1.09.5s.36.58.36.97-.12.71-.36.96-.54.37-.9.37c-.46,0-.79-.17-1.01-.51-.22-.34-.33-.72-.33-1.15,0-.04,0-.09,0-.16l-.87-.11c.07.28.11.51.11.7,0,.47-.15.84-.44,1.15-.3.3-.67.45-1.13.45s-.87-.16-1.2-.48c-.32-.32-.49-.72-.49-1.19,0-.4.13-.73.37-1.01.25-.28.65-.47,1.21-.59l-.13-1c-.67.07-1.22.34-1.64.81M78.64,1116.66h3.03c.53,0,.94.05,1.22.16.28.1.5.28.64.52s.22.5.22.78c0,.37-.11.63-.33.8-.22.16-.55.25-.99.25h-3.79v1h3.39c.6,0,1.04.14,1.31.41.27.28.41.62.41,1.03,0,.23-.06.43-.16.6-.11.17-.25.28-.42.35-.18.07-.46.1-.86.1h-3.68v.99h4.01c.67,0,1.16-.16,1.48-.47.32-.32.48-.76.48-1.35,0-.75-.34-1.36-1.02-1.82.32-.12.57-.31.75-.59.18-.28.27-.64.27-1.07,0-.39-.08-.74-.26-1.05-.17-.31-.41-.55-.69-.74h.82v-.89h-5.84v1Z"/>
    <rect class="st12" x="1142.19" y="440.54" width="18.9" height="102.27"/>
    <path d="M1157.64,446.82v-.95c-.52-.26-1.05-.7-1.61-1.32-.55-.62-1.02-1.34-1.41-2.17h-1.43c.17.46.42.98.77,1.56.34.58.68,1.04,1.02,1.4h-9.41v1.48h12.08ZM1147.24,451.52h-1.68v1.69h1.68v-1.69ZM1147.27,456.18c-.64.42-1.11,1-1.43,1.74-.32.74-.48,1.65-.48,2.74,0,.86.16,1.64.47,2.32.32.69.76,1.21,1.32,1.59.57.36,1.17.55,1.81.55s1.22-.17,1.71-.5.9-.85,1.22-1.56c.22-.48.48-1.37.77-2.67.29-1.3.58-2.1.86-2.41.28-.31.63-.47,1.06-.47.5,0,.92.22,1.28.66.35.44.53,1.15.53,2.11s-.19,1.63-.58,2.1c-.39.47-.96.75-1.72.84l.11,1.53c.71-.03,1.34-.22,1.89-.59.56-.37.98-.89,1.27-1.58.29-.68.43-1.47.43-2.37,0-.81-.14-1.55-.41-2.21-.27-.66-.67-1.17-1.2-1.51-.53-.35-1.1-.52-1.7-.52-.55,0-1.05.14-1.5.42s-.82.71-1.12,1.29c-.23.44-.48,1.22-.75,2.33-.27,1.11-.46,1.82-.59,2.15-.19.5-.43.87-.71,1.09-.28.22-.61.33-.99.33s-.72-.11-1.03-.34c-.32-.23-.56-.58-.74-1.04-.18-.47-.27-1.01-.27-1.61,0-.68.12-1.3.36-1.85.24-.55.55-.96.94-1.22.38-.26.88-.42,1.48-.5l-.13-1.51c-.8.02-1.52.24-2.16.66M1145.56,473.19v1.55c.33-.18.68-.31,1.05-.37.36-.06,1.23-.09,2.6-.09h1.97c.66,0,1.11-.03,1.37-.07.4-.09.74-.24,1-.46.27-.22.49-.56.66-1.03.18-.47.26-1.07.26-1.82s-.1-1.41-.31-1.99c-.21-.57-.5-1.01-.88-1.31-.38-.3-.88-.52-1.5-.65l-.2,1.45c.62.16,1.05.4,1.29.74.24.33.36.85.36,1.54,0,.75-.16,1.31-.5,1.69-.25.28-.67.42-1.27.42-.05,0-.18,0-.39,0-.19-.57-.36-1.45-.51-2.64-.07-.59-.15-1.03-.22-1.32-.11-.4-.27-.75-.48-1.07-.21-.32-.5-.57-.85-.76s-.74-.29-1.17-.29c-.73,0-1.32.26-1.79.77s-.7,1.25-.7,2.21c0,.58.1,1.13.29,1.63.19.51.52,1.04.99,1.59-.41.04-.77.14-1.08.3M1149.39,472.77c-.65,0-1.14-.08-1.48-.24-.44-.21-.77-.53-1.02-.98-.25-.44-.37-.95-.37-1.52s.13-1.02.39-1.31c.26-.3.59-.45.98-.45.26,0,.49.07.7.21.21.14.37.33.48.58.11.25.21.68.29,1.29.15,1.08.34,1.88.56,2.42h-.54ZM1157.59,476.62h-12.03v1.48h12.03v-1.48ZM1154.27,480.89h-1.68v1.69h1.68v-1.69ZM1147.24,480.89h-1.68v1.69h1.68v-1.69ZM1156.84,496.19c.53-.61.79-1.38.79-2.33,0-1.27-.46-2.29-1.38-3.04-1.05-.86-2.75-1.29-5.07-1.29-2.08,0-3.57.39-4.48,1.17-.91.78-1.36,1.78-1.36,3.02,0,.72.17,1.37.51,1.94.35.57.84,1.02,1.49,1.35.65.33,1.35.49,2.1.49,1.15,0,2.08-.35,2.81-1.04.72-.69,1.09-1.53,1.09-2.52,0-.57-.13-1.11-.4-1.62-.26-.51-.66-.95-1.2-1.31,1.2,0,2.13.15,2.78.42.65.27,1.15.63,1.48,1.1.26.36.4.77.4,1.24,0,.59-.21,1.08-.63,1.48-.26.24-.68.43-1.26.56l.11,1.47c.94-.12,1.67-.48,2.2-1.09M1151.34,491.94c.48.47.72,1.03.72,1.7s-.24,1.24-.72,1.68c-.48.44-1.13.67-1.97.67s-1.55-.22-2.05-.68c-.5-.45-.76-.99-.76-1.61,0-.43.12-.84.37-1.22.24-.39.59-.69,1.06-.91.47-.21.95-.33,1.46-.33.77,0,1.4.23,1.88.7M1147.24,499.89h-1.68v1.68h1.68v-1.68ZM1145.56,508.96c0,.77.07,1.42.2,1.94.14.53.33.97.6,1.32.26.35.64.65,1.12.89.48.24,1.01.36,1.57.36.7,0,1.31-.2,1.82-.59.51-.39.88-.95,1.09-1.68.28.57.64.99,1.1,1.27s.94.42,1.45.42c.55,0,1.08-.16,1.59-.48.51-.32.88-.75,1.13-1.31.24-.56.36-1.3.36-2.22v-4.52h-12.02v4.6ZM1156.17,505.95v2.41c0,.87-.06,1.48-.17,1.83-.11.36-.32.63-.62.82-.3.19-.66.29-1.05.29-.42,0-.77-.1-1.05-.31-.28-.21-.48-.51-.6-.92-.09-.31-.14-.81-.14-1.52v-2.61h3.64ZM1151.12,505.95v2.79c0,.77-.07,1.36-.2,1.76-.13.41-.37.73-.7.96-.33.23-.72.35-1.17.35-.38,0-.72-.08-1.02-.24s-.51-.36-.67-.61c-.16-.25-.26-.56-.33-.92-.04-.21-.06-.57-.06-1.08v-3h4.13ZM1147.24,515.98h-1.68v1.69h1.68v-1.69ZM1157.64,525.49v-.95c-.52-.26-1.05-.7-1.61-1.32-.55-.62-1.02-1.34-1.41-2.17h-1.43c.17.46.42.98.77,1.56.34.58.68,1.04,1.02,1.4h-9.41v1.48h12.08ZM1147.24,530.2h-1.68v1.69h1.68v-1.69ZM1151.01,534.71c-.53-.4-1.18-.6-1.96-.6-1.05,0-1.93.36-2.63,1.09-.7.73-1.05,1.69-1.05,2.88s.35,2.15,1.05,2.88c.7.73,1.57,1.09,2.59,1.09.75,0,1.38-.2,1.92-.58.54-.38.92-.95,1.17-1.69.22.6.54,1.04.96,1.34s.9.44,1.45.44c.88,0,1.62-.32,2.23-.96.61-.64.91-1.49.91-2.54s-.3-1.89-.89-2.52c-.6-.63-1.33-.95-2.21-.95-.58,0-1.08.15-1.5.45-.41.3-.74.75-.96,1.37-.19-.74-.55-1.3-1.08-1.7M1155.88,536.68c.36.37.54.84.54,1.41s-.19,1.03-.55,1.4c-.37.37-.83.56-1.37.56s-.96-.18-1.32-.55c-.36-.36-.54-.83-.54-1.4s.18-1.06.54-1.43c.36-.37.83-.55,1.39-.55.51,0,.94.19,1.3.56M1150.76,536.33c.46.46.69,1.04.69,1.73s-.23,1.31-.7,1.78c-.47.48-1.05.71-1.76.71s-1.28-.23-1.73-.69c-.45-.46-.68-1.04-.68-1.75,0-.46.11-.88.33-1.28.21-.4.52-.7.92-.9.39-.2.8-.3,1.22-.3.69,0,1.26.23,1.72.69"/>
    <rect class="st12" x="1117.88" y="440.54" width="18.9" height="102.27"/>
    <path d="M1122.68,443.1c.27.17.53.37.8.62.27.25.77.82,1.52,1.71.9,1.06,1.6,1.83,2.12,2.29.51.46,1,.78,1.47.98.47.2.94.29,1.42.29.94,0,1.74-.34,2.38-1.01.64-.68.96-1.59.96-2.75s-.3-2.06-.89-2.74-1.45-1.07-2.59-1.18l-.16,1.52c.76,0,1.35.22,1.77.65.43.43.64,1,.64,1.71,0,.67-.2,1.22-.6,1.64-.4.42-.9.63-1.48.63s-1.15-.23-1.78-.69c-.62-.46-1.47-1.34-2.55-2.66-.69-.84-1.3-1.49-1.82-1.94-.53-.45-1.06-.77-1.6-.97-.33-.13-.67-.19-1.03-.18v7.98h1.42v-5.92ZM1122.94,451.52h-1.68v1.69h1.68v-1.69ZM1122.96,456.18c-.64.42-1.11,1-1.43,1.74-.32.74-.48,1.65-.48,2.74,0,.86.16,1.64.47,2.32.32.69.76,1.21,1.32,1.59.57.36,1.17.55,1.81.55s1.22-.17,1.71-.5c.5-.34.9-.85,1.23-1.56.22-.48.48-1.37.77-2.67.29-1.3.58-2.1.86-2.41.28-.31.63-.47,1.06-.47.5,0,.92.22,1.28.66.35.44.53,1.15.53,2.11s-.19,1.63-.58,2.1c-.39.47-.96.75-1.72.84l.12,1.53c.71-.03,1.34-.22,1.89-.59.56-.37.98-.89,1.27-1.58.29-.68.43-1.47.43-2.37,0-.81-.14-1.55-.41-2.21-.27-.66-.67-1.17-1.2-1.51-.53-.35-1.09-.52-1.7-.52-.55,0-1.05.14-1.5.42s-.82.71-1.12,1.29c-.23.44-.48,1.22-.75,2.33-.27,1.11-.46,1.82-.59,2.15-.19.5-.43.87-.71,1.09-.28.22-.61.33-.99.33s-.72-.11-1.03-.34c-.32-.23-.56-.58-.74-1.04-.18-.47-.27-1.01-.27-1.61,0-.68.12-1.3.36-1.85.24-.55.55-.96.93-1.22.39-.26.88-.42,1.48-.5l-.13-1.51c-.8.02-1.52.24-2.16.66M1121.26,473.19v1.55c.33-.18.68-.31,1.05-.37.36-.06,1.23-.09,2.6-.09h1.97c.66,0,1.11-.03,1.36-.07.41-.09.74-.24,1-.46.27-.22.48-.56.66-1.03.17-.47.26-1.07.26-1.82s-.1-1.41-.31-1.99c-.21-.57-.5-1.01-.88-1.31-.38-.3-.88-.52-1.5-.65l-.2,1.45c.62.16,1.05.4,1.29.74.24.33.36.85.36,1.54,0,.75-.17,1.31-.5,1.69-.25.28-.67.42-1.27.42-.05,0-.18,0-.39,0-.19-.57-.36-1.45-.51-2.64-.07-.59-.15-1.03-.22-1.32-.11-.4-.27-.75-.49-1.07-.21-.32-.5-.57-.85-.76s-.74-.29-1.17-.29c-.73,0-1.32.26-1.79.77s-.7,1.25-.7,2.21c0,.58.1,1.13.29,1.63.19.51.52,1.04.99,1.59-.41.04-.77.14-1.08.3M1125.09,472.77c-.65,0-1.14-.08-1.48-.24-.43-.21-.77-.53-1.02-.98-.25-.44-.37-.95-.37-1.52s.13-1.02.39-1.31c.26-.3.59-.45.98-.45.26,0,.49.07.7.21.21.14.37.33.48.58.11.25.21.68.29,1.29.15,1.08.34,1.88.56,2.42h-.54ZM1133.29,476.62h-12.02v1.48h12.02v-1.48ZM1129.97,480.89h-1.68v1.69h1.68v-1.69ZM1122.94,480.89h-1.68v1.69h1.68v-1.69ZM1132.54,496.19c.53-.61.79-1.38.79-2.33,0-1.27-.46-2.29-1.38-3.04-1.05-.86-2.75-1.29-5.07-1.29-2.08,0-3.57.39-4.48,1.17-.9.78-1.36,1.78-1.36,3.02,0,.72.17,1.37.51,1.94.35.57.84,1.02,1.49,1.35.65.33,1.35.49,2.1.49,1.15,0,2.08-.35,2.81-1.04.72-.69,1.09-1.53,1.09-2.52,0-.57-.13-1.11-.4-1.62-.26-.51-.66-.95-1.21-1.31,1.2,0,2.13.15,2.78.42.65.27,1.15.63,1.48,1.1.26.36.4.77.4,1.24,0,.59-.21,1.08-.63,1.48-.26.24-.68.43-1.27.56l.12,1.47c.94-.12,1.67-.48,2.2-1.09M1127.04,491.94c.48.47.72,1.03.72,1.7s-.24,1.24-.72,1.68c-.48.44-1.13.67-1.97.67s-1.55-.22-2.05-.68c-.51-.45-.76-.99-.76-1.61,0-.43.12-.84.37-1.22.24-.39.59-.69,1.06-.91.47-.21.95-.33,1.46-.33.78,0,1.41.23,1.88.7M1122.94,499.89h-1.68v1.68h1.68v-1.68ZM1121.26,508.96c0,.77.07,1.42.2,1.94.14.53.33.97.6,1.32.26.35.63.65,1.12.89.48.24,1.01.36,1.57.36.7,0,1.31-.2,1.82-.59.51-.39.88-.95,1.09-1.68.28.57.64.99,1.1,1.27s.94.42,1.45.42c.55,0,1.08-.16,1.59-.48.51-.32.88-.75,1.13-1.31.24-.56.36-1.3.36-2.22v-4.52h-12.02v4.6ZM1131.87,505.95v2.41c0,.87-.06,1.48-.17,1.83-.11.36-.32.63-.62.82-.3.19-.66.29-1.05.29-.42,0-.77-.1-1.05-.31-.28-.21-.48-.51-.6-.92-.09-.31-.14-.81-.14-1.52v-2.61h3.64ZM1126.82,505.95v2.79c0,.77-.07,1.36-.2,1.76-.13.41-.37.73-.7.96-.33.23-.72.35-1.17.35-.38,0-.72-.08-1.02-.24s-.51-.36-.67-.61c-.16-.25-.26-.56-.33-.92-.04-.21-.06-.57-.06-1.08v-3h4.14ZM1122.94,515.98h-1.68v1.69h1.68v-1.69ZM1122.68,521.78c.27.17.53.37.8.62.27.25.77.82,1.52,1.71.9,1.06,1.6,1.83,2.12,2.28.51.46,1,.78,1.47.99.47.2.94.29,1.42.29.94,0,1.74-.34,2.38-1.01.64-.67.96-1.59.96-2.75s-.3-2.06-.89-2.74-1.45-1.07-2.59-1.18l-.16,1.52c.76,0,1.35.22,1.77.65.43.43.64,1,.64,1.71,0,.68-.2,1.22-.6,1.64-.4.42-.9.63-1.48.63s-1.15-.23-1.78-.69c-.62-.46-1.47-1.34-2.55-2.66-.69-.84-1.3-1.49-1.82-1.94-.53-.45-1.06-.77-1.6-.98-.33-.12-.67-.18-1.03-.17v7.98h1.42v-5.92ZM1122.94,530.2h-1.68v1.69h1.68v-1.69ZM1126.7,534.71c-.53-.4-1.18-.6-1.96-.6-1.05,0-1.93.36-2.63,1.09-.7.73-1.05,1.69-1.05,2.88s.35,2.15,1.05,2.88c.7.73,1.57,1.09,2.59,1.09.74,0,1.39-.2,1.92-.58.54-.38.92-.95,1.17-1.69.22.6.54,1.04.96,1.34s.9.44,1.45.44c.88,0,1.62-.32,2.23-.96.61-.64.91-1.49.91-2.54s-.3-1.89-.89-2.52c-.6-.63-1.33-.95-2.21-.95-.58,0-1.08.15-1.5.45-.41.3-.74.75-.96,1.37-.19-.74-.55-1.3-1.08-1.7M1131.58,536.68c.36.37.54.84.54,1.41s-.19,1.03-.55,1.4c-.37.37-.83.56-1.37.56s-.96-.18-1.32-.55c-.36-.36-.54-.83-.54-1.4s.18-1.06.54-1.43c.36-.37.83-.55,1.39-.55.51,0,.94.19,1.3.56M1126.45,536.33c.46.46.69,1.04.69,1.73s-.23,1.31-.7,1.78c-.47.48-1.05.71-1.76.71s-1.28-.23-1.73-.69c-.45-.46-.68-1.04-.68-1.75,0-.46.11-.88.33-1.28.21-.4.52-.7.92-.9.39-.2.8-.3,1.22-.3.69,0,1.26.23,1.72.69"/>
    <rect class="st12" x="1094.26" y="440.54" width="18.9" height="102.27"/>
    <path d="M1098.37,442.44c-.63.7-.94,1.58-.94,2.64,0,1.18.36,2.15,1.09,2.91.73.77,1.62,1.15,2.67,1.15.77,0,1.42-.2,1.94-.59.51-.4.85-.95,1.02-1.66.25.55.59.96,1.02,1.24.43.28.9.42,1.42.42s1.06-.15,1.55-.44c.49-.29.87-.72,1.15-1.27.28-.55.42-1.16.42-1.82,0-.95-.27-1.75-.82-2.4-.54-.64-1.31-1.05-2.3-1.23l-.26,1.48c.72.11,1.26.36,1.63.74.36.38.54.86.54,1.44s-.18,1.06-.53,1.43c-.36.36-.8.55-1.35.55-.68,0-1.19-.25-1.52-.76-.33-.5-.49-1.07-.49-1.7,0-.06,0-.14.02-.24l-1.3-.17c.11.42.16.77.16,1.05,0,.68-.22,1.25-.66,1.69-.44.44-1,.66-1.68.66-.71,0-1.31-.24-1.79-.72-.48-.48-.72-1.07-.72-1.76,0-.59.19-1.08.55-1.49.37-.41.98-.7,1.81-.87l-.2-1.48c-1,.1-1.82.5-2.44,1.2M1099.32,451.52h-1.68v1.69h1.68v-1.69ZM1099.34,456.18c-.64.42-1.11,1-1.43,1.74-.32.74-.48,1.65-.48,2.74,0,.86.16,1.64.47,2.32.32.69.76,1.21,1.32,1.59.57.36,1.17.55,1.81.55s1.22-.17,1.71-.5c.5-.34.9-.85,1.23-1.56.22-.48.48-1.37.77-2.67.29-1.3.58-2.1.86-2.41.28-.31.63-.47,1.06-.47.5,0,.92.22,1.28.66.35.44.53,1.15.53,2.11s-.19,1.63-.58,2.1c-.39.47-.96.75-1.72.84l.12,1.53c.7-.03,1.34-.22,1.89-.59.56-.37.98-.89,1.27-1.58s.43-1.47.43-2.37c0-.81-.14-1.55-.41-2.21s-.67-1.17-1.2-1.51c-.53-.35-1.09-.52-1.7-.52-.55,0-1.05.14-1.5.42s-.82.71-1.12,1.29c-.23.44-.48,1.22-.75,2.33-.26,1.11-.46,1.82-.59,2.15-.19.5-.43.87-.71,1.09-.28.22-.61.33-.99.33s-.72-.11-1.03-.34c-.32-.23-.56-.58-.74-1.04-.18-.47-.27-1.01-.27-1.61,0-.68.12-1.3.36-1.85.24-.55.55-.96.93-1.22.39-.26.88-.42,1.48-.5l-.13-1.51c-.8.02-1.52.24-2.16.66M1097.63,473.19v1.55c.34-.18.68-.31,1.05-.37.36-.06,1.23-.09,2.6-.09h1.97c.66,0,1.11-.03,1.36-.07.4-.09.74-.24,1-.46.27-.22.48-.56.66-1.03.17-.47.26-1.07.26-1.82s-.1-1.41-.31-1.99c-.2-.57-.5-1.01-.88-1.31-.38-.3-.88-.52-1.5-.65l-.2,1.45c.62.16,1.05.4,1.29.74.24.33.36.85.36,1.54,0,.75-.17,1.31-.5,1.69-.25.28-.67.42-1.27.42-.05,0-.18,0-.39,0-.19-.57-.36-1.45-.51-2.64-.07-.59-.15-1.03-.22-1.32-.11-.4-.27-.75-.49-1.07-.21-.32-.49-.57-.85-.76s-.74-.29-1.17-.29c-.73,0-1.32.26-1.79.77-.47.51-.7,1.25-.7,2.21,0,.58.1,1.13.29,1.63.19.51.52,1.04.98,1.59-.41.04-.77.14-1.07.3M1101.47,472.77c-.65,0-1.14-.08-1.48-.24-.43-.21-.77-.53-1.02-.98-.25-.44-.37-.95-.37-1.52s.13-1.02.39-1.31c.26-.3.59-.45.98-.45.26,0,.49.07.7.21.21.14.37.33.48.58.11.25.21.68.29,1.29.15,1.08.34,1.88.56,2.42h-.54ZM1109.66,476.62h-12.03v1.48h12.03v-1.48ZM1106.35,480.89h-1.68v1.69h1.68v-1.69ZM1099.32,480.89h-1.68v1.69h1.68v-1.69ZM1108.92,496.19c.53-.61.79-1.38.79-2.33,0-1.27-.46-2.29-1.38-3.04-1.06-.86-2.75-1.29-5.07-1.29-2.08,0-3.57.39-4.48,1.17-.9.78-1.36,1.78-1.36,3.02,0,.72.17,1.37.51,1.94.35.57.84,1.02,1.49,1.35.65.33,1.35.49,2.1.49,1.15,0,2.08-.35,2.81-1.04.72-.69,1.09-1.53,1.09-2.52,0-.57-.13-1.11-.39-1.62-.26-.51-.66-.95-1.21-1.31,1.2,0,2.13.15,2.78.42.65.27,1.15.63,1.48,1.1.26.36.39.77.39,1.24,0,.59-.21,1.08-.63,1.48-.26.24-.68.43-1.27.56l.12,1.47c.94-.12,1.67-.48,2.2-1.09M1103.42,491.94c.48.47.72,1.03.72,1.7s-.24,1.24-.72,1.68c-.48.44-1.13.67-1.97.67s-1.55-.22-2.05-.68c-.51-.45-.76-.99-.76-1.61,0-.43.12-.84.36-1.22.25-.39.6-.69,1.06-.91.47-.21.95-.33,1.46-.33.78,0,1.41.23,1.88.7M1099.32,499.89h-1.68v1.68h1.68v-1.68ZM1097.63,508.96c0,.77.07,1.42.2,1.94.13.53.33.97.6,1.32.26.35.63.65,1.12.89.48.24,1.01.36,1.57.36.7,0,1.31-.2,1.82-.59.51-.39.88-.95,1.09-1.68.28.57.64.99,1.1,1.27s.94.42,1.45.42c.55,0,1.08-.16,1.59-.48.51-.32.88-.75,1.12-1.31.25-.56.36-1.3.36-2.22v-4.52h-12.03v4.6ZM1108.24,505.95v2.41c0,.87-.06,1.48-.17,1.83-.11.36-.32.63-.62.82s-.66.29-1.05.29c-.42,0-.77-.1-1.05-.31-.28-.21-.48-.51-.6-.92-.09-.31-.14-.81-.14-1.52v-2.61h3.64ZM1103.19,505.95v2.79c0,.77-.07,1.36-.2,1.76-.14.41-.37.73-.7.96-.33.23-.72.35-1.17.35-.38,0-.72-.08-1.02-.24s-.51-.36-.67-.61c-.16-.25-.26-.56-.33-.92-.04-.21-.06-.57-.06-1.08v-3h4.13ZM1099.32,515.98h-1.68v1.69h1.68v-1.69ZM1098.37,521.12c-.63.7-.94,1.58-.94,2.64,0,1.18.36,2.15,1.09,2.91.73.77,1.62,1.15,2.67,1.15.77,0,1.42-.2,1.94-.59.51-.39.85-.95,1.02-1.66.25.55.59.96,1.02,1.24.43.28.9.42,1.42.42s1.06-.15,1.55-.44.87-.72,1.15-1.27c.28-.56.42-1.16.42-1.82,0-.95-.27-1.75-.82-2.4-.54-.64-1.31-1.05-2.3-1.23l-.26,1.48c.72.11,1.26.36,1.63.74.36.38.54.86.54,1.44s-.18,1.05-.53,1.43c-.36.36-.8.55-1.35.55-.68,0-1.19-.25-1.52-.76-.33-.5-.49-1.07-.49-1.7,0-.06,0-.14.02-.24l-1.3-.17c.11.42.16.76.16,1.04,0,.69-.22,1.25-.66,1.7-.44.44-1,.66-1.68.66-.71,0-1.31-.24-1.79-.72-.48-.48-.72-1.07-.72-1.76,0-.59.19-1.08.55-1.49.37-.41.98-.7,1.81-.87l-.2-1.48c-1,.1-1.82.5-2.44,1.2M1099.32,530.2h-1.68v1.69h1.68v-1.69ZM1103.08,534.71c-.53-.4-1.18-.6-1.96-.6-1.05,0-1.93.36-2.63,1.09-.7.73-1.05,1.69-1.05,2.88s.35,2.15,1.05,2.88c.7.73,1.57,1.09,2.59,1.09.74,0,1.39-.2,1.92-.58.54-.38.92-.95,1.17-1.69.22.6.54,1.04.96,1.34s.9.44,1.45.44c.88,0,1.62-.32,2.23-.96.61-.64.91-1.49.91-2.54s-.3-1.89-.89-2.52c-.6-.63-1.33-.95-2.21-.95-.58,0-1.08.15-1.5.45-.41.3-.74.75-.96,1.37-.19-.74-.55-1.3-1.08-1.7M1107.96,536.68c.36.37.54.84.54,1.41s-.19,1.03-.55,1.4c-.37.37-.83.56-1.37.56s-.96-.18-1.32-.55c-.36-.36-.54-.83-.54-1.4s.18-1.06.54-1.43c.36-.37.83-.55,1.39-.55.51,0,.94.19,1.3.56M1102.83,536.33c.46.46.69,1.04.69,1.73s-.23,1.31-.7,1.78c-.47.48-1.05.71-1.76.71s-1.28-.23-1.73-.69c-.46-.46-.68-1.04-.68-1.75,0-.46.11-.88.33-1.28.21-.4.52-.7.92-.9.39-.2.8-.3,1.22-.3.69,0,1.26.23,1.72.69"/>
    <rect class="st12" x="1070.97" y="440.54" width="18.9" height="102.27"/>
    <path d="M1074.34,447.46h2.88v1.63h1.35v-1.63h7.79v-1.21l-7.79-5.5h-1.35v5.23h-2.88v1.48ZM1078.58,442.21l5.42,3.78h-5.42v-3.78ZM1076.02,451.52h-1.68v1.69h1.68v-1.69ZM1076.05,456.18c-.64.42-1.11,1-1.43,1.74-.32.74-.48,1.65-.48,2.74,0,.86.16,1.64.47,2.32.32.69.76,1.21,1.32,1.59.57.36,1.17.55,1.81.55s1.22-.17,1.71-.5.9-.85,1.22-1.56c.22-.48.48-1.37.77-2.67.29-1.3.58-2.1.86-2.41.28-.31.63-.47,1.06-.47.5,0,.92.22,1.28.66.35.44.53,1.15.53,2.11s-.2,1.63-.59,2.1c-.39.47-.96.75-1.72.84l.12,1.53c.71-.03,1.34-.22,1.89-.59.56-.37.98-.89,1.27-1.58.29-.68.43-1.47.43-2.37,0-.81-.14-1.55-.41-2.21-.27-.66-.67-1.17-1.2-1.51-.53-.35-1.1-.52-1.7-.52-.55,0-1.05.14-1.5.42s-.82.71-1.12,1.29c-.23.44-.48,1.22-.75,2.33-.27,1.11-.46,1.82-.59,2.15-.19.5-.43.87-.71,1.09-.28.22-.61.33-.99.33s-.72-.11-1.03-.34c-.31-.23-.56-.58-.74-1.04-.18-.47-.27-1.01-.27-1.61,0-.68.12-1.3.36-1.85.24-.55.55-.96.94-1.22.38-.26.88-.42,1.48-.5l-.13-1.51c-.8.02-1.52.24-2.16.66M1074.34,473.19v1.55c.33-.18.68-.31,1.05-.37.36-.06,1.23-.09,2.6-.09h1.97c.65,0,1.11-.03,1.36-.07.4-.09.74-.24,1-.46.27-.22.49-.56.66-1.03.17-.47.26-1.07.26-1.82s-.1-1.41-.31-1.99c-.21-.57-.5-1.01-.88-1.31-.38-.3-.88-.52-1.5-.65l-.2,1.45c.62.16,1.05.4,1.29.74.24.33.36.85.36,1.54,0,.75-.16,1.31-.5,1.69-.25.28-.67.42-1.27.42-.05,0-.18,0-.39,0-.19-.57-.36-1.45-.51-2.64-.07-.59-.15-1.03-.22-1.32-.11-.4-.27-.75-.48-1.07-.21-.32-.5-.57-.85-.76s-.74-.29-1.17-.29c-.73,0-1.32.26-1.79.77s-.7,1.25-.7,2.21c0,.58.1,1.13.29,1.63.19.51.52,1.04.99,1.59-.41.04-.77.14-1.08.3M1078.17,472.77c-.65,0-1.14-.08-1.48-.24-.43-.21-.77-.53-1.02-.98-.25-.44-.37-.95-.37-1.52s.13-1.02.39-1.31c.26-.3.59-.45.98-.45.26,0,.49.07.7.21.21.14.37.33.48.58.11.25.21.68.29,1.29.15,1.08.34,1.88.56,2.42h-.54ZM1086.37,476.62h-12.03v1.48h12.03v-1.48ZM1083.05,480.89h-1.68v1.69h1.68v-1.69ZM1076.02,480.89h-1.68v1.69h1.68v-1.69ZM1085.62,496.19c.53-.61.79-1.38.79-2.33,0-1.27-.46-2.29-1.38-3.04-1.05-.86-2.75-1.29-5.07-1.29-2.08,0-3.57.39-4.48,1.17-.91.78-1.36,1.78-1.36,3.02,0,.72.17,1.37.51,1.94.35.57.84,1.02,1.49,1.35.65.33,1.35.49,2.1.49,1.15,0,2.08-.35,2.81-1.04.72-.69,1.09-1.53,1.09-2.52,0-.57-.13-1.11-.4-1.62-.26-.51-.66-.95-1.2-1.31,1.2,0,2.13.15,2.78.42.65.27,1.15.63,1.48,1.1.26.36.4.77.4,1.24,0,.59-.21,1.08-.63,1.48-.26.24-.68.43-1.26.56l.11,1.47c.94-.12,1.67-.48,2.2-1.09M1080.12,491.94c.48.47.72,1.03.72,1.7s-.24,1.24-.72,1.68c-.48.44-1.13.67-1.97.67s-1.55-.22-2.05-.68c-.5-.45-.76-.99-.76-1.61,0-.43.12-.84.37-1.22.24-.39.59-.69,1.06-.91.47-.21.95-.33,1.46-.33.77,0,1.4.23,1.88.7M1076.02,499.89h-1.68v1.68h1.68v-1.68ZM1074.34,508.96c0,.77.07,1.42.2,1.94.13.53.33.97.59,1.32.26.35.64.65,1.12.89.48.24,1.01.36,1.57.36.7,0,1.31-.2,1.82-.59.51-.39.88-.95,1.09-1.68.28.57.64.99,1.1,1.27s.94.42,1.45.42c.55,0,1.08-.16,1.59-.48.51-.32.88-.75,1.13-1.31.24-.56.36-1.3.36-2.22v-4.52h-12.02v4.6ZM1084.95,505.95v2.41c0,.87-.06,1.48-.17,1.83-.11.36-.32.63-.62.82-.3.19-.66.29-1.05.29-.42,0-.77-.1-1.05-.31-.28-.21-.48-.51-.6-.92-.09-.31-.14-.81-.14-1.52v-2.61h3.64ZM1079.9,505.95v2.79c0,.77-.07,1.36-.2,1.76-.13.41-.36.73-.7.96-.33.23-.72.35-1.17.35-.38,0-.72-.08-1.02-.24s-.51-.36-.67-.61c-.16-.25-.26-.56-.33-.92-.03-.21-.05-.57-.05-1.08v-3h4.13ZM1076.02,515.98h-1.68v1.69h1.68v-1.69ZM1074.34,526.14h2.88v1.63h1.35v-1.63h7.79v-1.21l-7.79-5.5h-1.35v5.23h-2.88v1.48ZM1078.58,520.88l5.42,3.78h-5.42v-3.78ZM1076.02,530.2h-1.68v1.69h1.68v-1.69ZM1079.79,534.71c-.53-.4-1.18-.6-1.96-.6-1.05,0-1.93.36-2.63,1.09-.7.73-1.05,1.69-1.05,2.88s.35,2.15,1.05,2.88c.7.73,1.57,1.09,2.59,1.09.74,0,1.38-.2,1.92-.58.54-.38.92-.95,1.17-1.69.22.6.54,1.04.96,1.34s.9.44,1.45.44c.88,0,1.62-.32,2.23-.96.61-.64.91-1.49.91-2.54s-.3-1.89-.89-2.52c-.6-.63-1.33-.95-2.21-.95-.58,0-1.08.15-1.5.45-.41.3-.74.75-.96,1.37-.19-.74-.55-1.3-1.08-1.7M1084.66,536.68c.36.37.54.84.54,1.41s-.19,1.03-.55,1.4c-.37.37-.83.56-1.37.56s-.96-.18-1.32-.55c-.36-.36-.54-.83-.54-1.4s.18-1.06.54-1.43c.36-.37.83-.55,1.39-.55.51,0,.94.19,1.3.56M1079.54,536.33c.46.46.69,1.04.69,1.73s-.23,1.31-.7,1.78c-.47.48-1.05.71-1.76.71s-1.28-.23-1.73-.69c-.45-.46-.68-1.04-.68-1.75,0-.46.11-.88.33-1.28.21-.4.52-.7.92-.9.39-.2.8-.3,1.22-.3.69,0,1.26.23,1.72.69"/>
    <rect class="st12" x="1048.02" y="440.54" width="18.9" height="102.27"/>
    <path d="M1052.11,442.42c-.61.7-.92,1.59-.92,2.69,0,1.34.49,2.39,1.46,3.17.79.64,1.74.95,2.82.95,1.14,0,2.08-.36,2.81-1.08.73-.73,1.09-1.61,1.09-2.67,0-.79-.25-1.55-.76-2.28l3.23.65v4.81h1.41v-6l-6.18-1.17-.18,1.39c.35.22.62.52.84.9.21.38.33.81.33,1.29,0,.77-.25,1.39-.73,1.87-.49.48-1.15.71-2,.71-.89,0-1.6-.25-2.13-.74-.53-.49-.81-1.1-.81-1.81,0-.59.19-1.1.57-1.52.38-.42.94-.69,1.7-.8l-.13-1.56c-1.01.1-1.82.49-2.44,1.19M1053.07,451.52h-1.68v1.69h1.68v-1.69ZM1053.1,456.18c-.64.42-1.11,1-1.43,1.74-.32.74-.48,1.65-.48,2.74,0,.86.16,1.64.47,2.32.32.69.76,1.21,1.32,1.59.57.36,1.17.55,1.81.55s1.22-.17,1.71-.5.9-.85,1.22-1.56c.22-.48.48-1.37.77-2.67.29-1.3.58-2.1.86-2.41.28-.31.63-.47,1.06-.47.5,0,.92.22,1.28.66.35.44.53,1.15.53,2.11s-.19,1.63-.58,2.1c-.39.47-.96.75-1.72.84l.12,1.53c.71-.03,1.34-.22,1.89-.59.56-.37.98-.89,1.27-1.58.29-.68.43-1.47.43-2.37,0-.81-.14-1.55-.41-2.21-.27-.66-.67-1.17-1.2-1.51-.53-.35-1.1-.52-1.7-.52-.55,0-1.05.14-1.5.42s-.82.71-1.12,1.29c-.23.44-.48,1.22-.75,2.33-.27,1.11-.46,1.82-.59,2.15-.19.5-.43.87-.71,1.09-.28.22-.61.33-.99.33s-.72-.11-1.03-.34c-.32-.23-.56-.58-.74-1.04-.18-.47-.27-1.01-.27-1.61,0-.68.12-1.3.36-1.85.24-.55.55-.96.94-1.22.38-.26.88-.42,1.48-.5l-.13-1.51c-.8.02-1.52.24-2.16.66M1051.39,473.19v1.55c.33-.18.68-.31,1.05-.37.36-.06,1.23-.09,2.6-.09h1.97c.66,0,1.11-.03,1.36-.07.41-.09.74-.24,1-.46.27-.22.49-.56.66-1.03.17-.47.26-1.07.26-1.82s-.1-1.41-.31-1.99c-.21-.57-.5-1.01-.88-1.31-.38-.3-.88-.52-1.5-.65l-.2,1.45c.62.16,1.05.4,1.29.74.24.33.36.85.36,1.54,0,.75-.16,1.31-.5,1.69-.25.28-.67.42-1.27.42-.05,0-.18,0-.39,0-.19-.57-.36-1.45-.51-2.64-.07-.59-.15-1.03-.22-1.32-.11-.4-.27-.75-.49-1.07-.21-.32-.5-.57-.85-.76s-.74-.29-1.17-.29c-.73,0-1.32.26-1.79.77s-.7,1.25-.7,2.21c0,.58.1,1.13.29,1.63.19.51.52,1.04.99,1.59-.41.04-.77.14-1.08.3M1055.22,472.77c-.65,0-1.14-.08-1.48-.24-.43-.21-.77-.53-1.02-.98-.25-.44-.37-.95-.37-1.52s.13-1.02.39-1.31c.26-.3.59-.45.98-.45.26,0,.49.07.7.21.21.14.37.33.48.58.11.25.21.68.29,1.29.15,1.08.34,1.88.56,2.42h-.54ZM1063.42,476.62h-12.03v1.48h12.03v-1.48ZM1060.1,480.89h-1.68v1.69h1.68v-1.69ZM1053.07,480.89h-1.68v1.69h1.68v-1.69ZM1062.67,496.19c.53-.61.79-1.38.79-2.33,0-1.27-.46-2.29-1.38-3.04-1.05-.86-2.75-1.29-5.07-1.29-2.08,0-3.57.39-4.48,1.17-.9.78-1.36,1.78-1.36,3.02,0,.72.17,1.37.51,1.94.35.57.84,1.02,1.49,1.35.65.33,1.35.49,2.1.49,1.15,0,2.08-.35,2.81-1.04.72-.69,1.09-1.53,1.09-2.52,0-.57-.13-1.11-.4-1.62-.26-.51-.66-.95-1.2-1.31,1.2,0,2.13.15,2.78.42.65.27,1.15.63,1.48,1.1.26.36.4.77.4,1.24,0,.59-.21,1.08-.63,1.48-.26.24-.68.43-1.26.56l.11,1.47c.94-.12,1.67-.48,2.2-1.09M1057.17,491.94c.48.47.72,1.03.72,1.7s-.24,1.24-.72,1.68c-.48.44-1.13.67-1.97.67s-1.55-.22-2.05-.68c-.51-.45-.76-.99-.76-1.61,0-.43.12-.84.37-1.22.24-.39.59-.69,1.06-.91.47-.21.95-.33,1.46-.33.78,0,1.41.23,1.88.7M1053.07,499.89h-1.68v1.68h1.68v-1.68ZM1051.39,508.96c0,.77.07,1.42.2,1.94.13.53.33.97.59,1.32.26.35.64.65,1.12.89.48.24,1.01.36,1.57.36.7,0,1.31-.2,1.82-.59.51-.39.88-.95,1.09-1.68.28.57.64.99,1.1,1.27s.94.42,1.45.42c.55,0,1.08-.16,1.59-.48.51-.32.88-.75,1.13-1.31.24-.56.36-1.3.36-2.22v-4.52h-12.02v4.6ZM1062,505.95v2.41c0,.87-.06,1.48-.17,1.83-.11.36-.32.63-.62.82-.3.19-.66.29-1.05.29-.42,0-.77-.1-1.05-.31-.28-.21-.48-.51-.6-.92-.09-.31-.14-.81-.14-1.52v-2.61h3.64ZM1056.95,505.95v2.79c0,.77-.07,1.36-.2,1.76-.13.41-.37.73-.7.96-.33.23-.72.35-1.17.35-.38,0-.72-.08-1.02-.24s-.51-.36-.67-.61c-.16-.25-.26-.56-.33-.92-.04-.21-.05-.57-.05-1.08v-3h4.13ZM1053.07,515.98h-1.68v1.69h1.68v-1.69ZM1052.11,521.1c-.61.7-.92,1.59-.92,2.69,0,1.34.49,2.39,1.46,3.17.79.64,1.74.95,2.82.95,1.14,0,2.08-.36,2.81-1.08.73-.73,1.09-1.61,1.09-2.67,0-.79-.25-1.55-.76-2.28l3.23.65v4.81h1.41v-6l-6.18-1.17-.18,1.39c.35.22.62.52.84.9.21.38.33.82.33,1.29,0,.77-.25,1.39-.73,1.87-.49.48-1.15.71-2,.71-.89,0-1.6-.24-2.13-.74-.53-.49-.81-1.1-.81-1.81,0-.59.19-1.1.57-1.52.38-.42.94-.69,1.7-.8l-.13-1.56c-1.01.1-1.82.49-2.44,1.19M1053.07,530.2h-1.68v1.69h1.68v-1.69ZM1056.84,534.71c-.53-.4-1.18-.6-1.96-.6-1.05,0-1.93.36-2.63,1.09-.7.73-1.05,1.69-1.05,2.88s.35,2.15,1.05,2.88c.7.73,1.57,1.09,2.59,1.09.75,0,1.38-.2,1.92-.58.54-.38.92-.95,1.17-1.69.22.6.54,1.04.96,1.34s.9.44,1.45.44c.88,0,1.62-.32,2.23-.96.61-.64.91-1.49.91-2.54s-.3-1.89-.89-2.52c-.6-.63-1.33-.95-2.21-.95-.58,0-1.08.15-1.5.45-.41.3-.74.75-.96,1.37-.19-.74-.55-1.3-1.08-1.7M1061.71,536.68c.36.37.54.84.54,1.41s-.19,1.03-.55,1.4c-.37.37-.83.56-1.37.56s-.96-.18-1.32-.55c-.36-.36-.54-.83-.54-1.4s.18-1.06.54-1.43c.36-.37.83-.55,1.39-.55.51,0,.94.19,1.3.56M1056.59,536.33c.46.46.69,1.04.69,1.73s-.23,1.31-.7,1.78c-.47.48-1.05.71-1.76.71s-1.28-.23-1.73-.69c-.45-.46-.68-1.04-.68-1.75,0-.46.11-.88.33-1.28.21-.4.52-.7.92-.9.39-.2.8-.3,1.22-.3.69,0,1.26.23,1.72.69"/>
    <line class="st3" x1="631.85" y1="944.13" x2="631.85" y2="996.11"/>
    <line class="st3" x1="751.33" y1="944.13" x2="631.85" y2="996.11"/>
  </g>
</svg>