<?xml version="1.0" encoding="UTF-8"?>
<svg id="Layer_1" xmlns="http://www.w3.org/2000/svg" xmlns:xlink="http://www.w3.org/1999/xlink" version="1.1" viewBox="0 0 1200 1697.14">
  <!-- Generator: Adobe Illustrator 29.6.0, SVG Export Plug-In . SVG Version: 2.1.1 Build 207)  -->
  <defs>
    <style>
      .st0, .st1, .st2, .st3 {
        fill: none;
      }

      .st1 {
        stroke: #0d0e1c;
      }

      .st1, .st2, .st3 {
        stroke-linecap: round;
        stroke-linejoin: round;
      }

      .st1, .st3 {
        stroke-width: .08px;
      }

      .st2 {
        stroke-width: .14px;
      }

      .st2, .st3 {
        stroke: #000;
      }

      .st4 {
        clip-path: url(#clippath-1);
      }

      .st5 {
        clip-path: url(#clippath-3);
      }

      .st6 {
        clip-path: url(#clippath-4);
      }

      .st7 {
        clip-path: url(#clippath-2);
      }

      .st8 {
        clip-path: url(#clippath-7);
      }

      .st9 {
        clip-path: url(#clippath-6);
      }

      .st10 {
        clip-path: url(#clippath-9);
      }

      .st11 {
        clip-path: url(#clippath-8);
      }

      .st12 {
        clip-path: url(#clippath-5);
      }

      .st13 {
        fill: #fff;
      }

      .st14 {
        fill: #ece9e5;
      }

      .st15 {
        fill: #302c35;
      }

      .st16 {
        clip-path: url(#clippath);
      }
    </style>
    <clipPath id="clippath">
      <rect class="st0" x="667.55" y="749.2" width="72.58" height="159.65"/>
    </clipPath>
    <clipPath id="clippath-1">
      <rect class="st0" x="177.79" y="441.48" width="788.41" height="814.19"/>
    </clipPath>
    <clipPath id="clippath-2">
      <rect class="st0" x="637.25" y="979.57" width="28.61" height="39.22"/>
    </clipPath>
    <clipPath id="clippath-3">
      <rect class="st0" x="177.79" y="441.48" width="788.41" height="814.19"/>
    </clipPath>
    <clipPath id="clippath-4">
      <rect class="st0" x="177.79" y="441.48" width="788.41" height="814.19"/>
    </clipPath>
    <clipPath id="clippath-5">
      <rect class="st0" x="707.58" y="1062.29" width="27.51" height="37.12"/>
    </clipPath>
    <clipPath id="clippath-6">
      <rect class="st0" x="177.79" y="441.48" width="788.41" height="814.19"/>
    </clipPath>
    <clipPath id="clippath-7">
      <rect class="st0" x="177.79" y="441.48" width="788.41" height="814.19"/>
    </clipPath>
    <clipPath id="clippath-8">
      <rect class="st0" x="177.79" y="441.48" width="788.41" height="814.19"/>
    </clipPath>
    <clipPath id="clippath-9">
      <rect class="st0" x="177.79" y="441.48" width="788.41" height="814.19"/>
    </clipPath>
  </defs>
  <rect class="st14" x="421.55" y="648.45" width="339.21" height="481.65"/>
  <rect class="st14" x="481.29" y="538.78" width="249.43" height="125.87"/>
  <rect class="st13" x="432.02" y="894.51" width="55.01" height="221.39"/>
  <rect class="st13" x="497.32" y="652.84" width="212.02" height="11.81"/>
  <rect class="st15" x="421.55" y="679.17" width="85.75" height="15.87"/>
  <rect class="st15" x="421.55" y="1114.24" width="113.41" height="15.86"/>
  <rect class="st15" x="606.51" y="1114.24" width="154.25" height="15.86"/>
  <rect class="st15" x="481.29" y="536.85" width="249.43" height="3.87"/>
  <rect class="st15" x="481.38" y="536.85" width="3.87" height="113.82"/>
  <rect class="st15" x="726.76" y="540.46" width="3.87" height="110.2"/>
  <rect class="st15" x="421.55" y="695.03" width="17.55" height="419.21"/>
  <rect class="st15" x="743.21" y="695.03" width="17.55" height="419.21"/>
  <rect class="st15" x="439.1" y="990.37" width="55.69" height="6.07"/>
  <rect class="st15" x="615.63" y="1107.49" width="125.9" height="10.82"/>
  <rect class="st15" x="615.63" y="973.15" width="6.41" height="54.68"/>
  <rect class="st15" x="620.69" y="973.15" width="120.83" height="5.06"/>
  <rect class="st15" x="736.12" y="973.15" width="9.34" height="141.09"/>
  <rect class="st15" x="620.69" y="978.22" width="115.44" height="1.35"/>
  <rect class="st15" x="615.63" y="1098.71" width="6.41" height="9.35"/>
  <rect class="st15" x="620.69" y="1106.14" width="115.44" height="1.35"/>
  <rect class="st15" x="623.39" y="913.41" width="119.82" height="8.1"/>
  <rect class="st15" x="615.63" y="913.41" width="7.76" height="59.74"/>
  <rect class="st15" x="421.55" y="648.45" width="85.75" height="30.72"/>
  <rect class="st15" x="704.47" y="679.17" width="56.29" height="15.87"/>
  <rect class="st15" x="704.47" y="648.45" width="56.29" height="30.72"/>
  <polygon class="st13" points="667.55 749.2 667.55 749.61 739.21 749.61 739.21 887.58 740.13 888.03 740.13 749.2 667.55 749.2"/>
  <polygon class="st13" points="667.55 749.61 667.55 852.12 683.48 860 723.29 879.7 739.21 887.58 739.21 749.61 667.55 749.61"/>
  <g class="st16">
    <path class="st13" d="M667.55,908.85v-56.74l15.92,7.88v28.26c0,1.82,1.47,3.28,3.29,3.28h33.25c1.8,0,3.27-1.47,3.27-3.28v-8.56l15.93,7.88v21.27h-71.66Z"/>
    <path class="st13" d="M683.48,888.26v-28.26l39.81,19.7v8.56c0,1.81-1.47,3.28-3.28,3.28h-33.24c-1.82,0-3.29-1.47-3.29-3.28"/>
  </g>
  <polyline class="st1" points="739.22 887.58 739.22 908.85 667.55 908.85 667.55 852.12"/>
  <polyline class="st1" points="723.29 879.7 739.21 887.58 740.13 888.03 740.13 749.2 667.55 749.2 667.55 749.61 667.55 852.12 683.48 860"/>
  <line class="st1" x1="720.01" y1="891.54" x2="686.76" y2="891.54"/>
  <g class="st4">
    <path class="st1" d="M686.77,891.54c-1.82,0-3.29-1.47-3.29-3.28"/>
    <path class="st1" d="M723.29,888.26c0,1.81-1.47,3.28-3.28,3.28"/>
  </g>
  <polyline class="st1" points="723.29 888.26 723.29 879.7 683.48 860 683.48 888.26"/>
  <g class="st7">
    <path class="st13" d="M665.85,979.59c-.01,7.71-.01,15.41-.02,23.11,0,8.9-6.4,16.09-14.3,16.09-7.9-.01-14.28-7.21-14.28-16.11,0-7.7,0-15.41.02-23.11,9.52,0,19.05,0,28.59.02"/>
  </g>
  <g class="st5">
    <path class="st3" d="M665.85,979.59c-.01,7.71-.01,15.41-.02,23.11,0,8.9-6.4,16.09-14.3,16.09-7.9-.01-14.28-7.21-14.28-16.11,0-7.7,0-15.41.02-23.11,9.52,0,19.05,0,28.59.02Z"/>
  </g>
  <rect class="st13" x="672.6" y="979.6" width="62.49" height="63.21"/>
  <polyline class="st3" points="735.09 979.6 735.09 1042.81 728.92 1042.81"/>
  <line class="st3" x1="735.09" y1="979.6" x2="673.1" y2="979.6"/>
  <line class="st3" x1="672.6" y1="980.64" x2="672.6" y2="1042.25"/>
  <polyline class="st3" points="672.6 980.64 672.6 979.6 673.1 979.6"/>
  <polyline class="st3" points="673.54 1042.81 672.6 1042.81 672.6 1042.25"/>
  <line class="st3" x1="673.54" y1="1042.81" x2="728.92" y2="1042.81"/>
  <line class="st3" x1="704.79" y1="979.6" x2="704.79" y2="997.16"/>
  <g class="st6">
    <path class="st3" d="M708.64,997.07c0-2.17-1.76-3.93-3.93-3.93s-3.93,1.76-3.93,3.93,1.76,3.93,3.93,3.93,3.93-1.76,3.93-3.93Z"/>
    <path class="st3" d="M708.64,997.07c0-2.17-1.76-3.93-3.93-3.93s-3.93,1.76-3.93,3.93,1.76,3.93,3.93,3.93,3.93-1.76,3.93-3.93Z"/>
  </g>
  <g class="st12">
    <path class="st13" d="M709.71,1062.93h15.49c.59,0,1.07.35,1.07.78v34.14c0,.43-.48.78-1.07.78h-15.49c-.6,0-1.06-.35-1.06-.78v-34.14c0-.43.46-.78,1.06-.78M717.18,1077.97c-1.55,0-2.8,1.26-2.8,2.81s1.25,2.8,2.8,2.8,2.81-1.25,2.81-2.8-1.26-2.81-2.81-2.81"/>
    <path class="st13" d="M728.88,1080.78c0-1.17.94-2.11,2.1-2.11s2.11.94,2.11,2.11-.94,2.1-2.11,2.1-2.1-.95-2.1-2.1"/>
    <path class="st13" d="M717.18,1079.27c.83,0,1.51.67,1.51,1.51s-.68,1.5-1.51,1.5-1.51-.67-1.51-1.5.68-1.51,1.51-1.51"/>
    <path class="st13" d="M717.18,1083.58c-1.55,0-2.8-1.25-2.8-2.8s1.25-2.81,2.8-2.81,2.81,1.26,2.81,2.81-1.26,2.8-2.81,2.8M715.67,1080.78c0,.83.68,1.5,1.51,1.5s1.51-.67,1.51-1.5-.68-1.51-1.51-1.51-1.51.67-1.51,1.51"/>
    <path class="st13" d="M730.98,1082.88c1.17,0,2.11-.95,2.11-2.1s-.94-2.11-2.11-2.11-2.1.95-2.1,2.11.94,2.1,2.1,2.1M708.64,1097.85c0,.43.47.78,1.06.78h15.5c.59,0,1.07-.35,1.07-.78v-34.14c0-.43-.48-.78-1.07-.78h-15.5c-.59,0-1.06.35-1.06.78v34.14ZM717.02,1099.41h-8.38c-.59,0-1.06-.35-1.06-.78v-35.7c0-.35.47-.63,1.06-.63h26.45v37.12h-18.07Z"/>
  </g>
  <g class="st9">
    <path class="st3" d="M730.98,1082.89c-1.15,0-2.1-.95-2.1-2.1s.95-2.11,2.1-2.11,2.11.94,2.11,2.11-.94,2.1-2.11,2.1Z"/>
    <path class="st3" d="M717.18,1083.58c-1.55,0-2.8-1.25-2.8-2.8s1.25-2.81,2.8-2.81,2.81,1.26,2.81,2.81-1.26,2.8-2.81,2.8Z"/>
    <path class="st3" d="M717.18,1082.28c-.83,0-1.51-.67-1.51-1.5s.68-1.51,1.51-1.51,1.51.67,1.51,1.51-.68,1.5-1.51,1.5Z"/>
    <path class="st3" d="M725.2,1062.93h-15.5c-.59,0-1.06.35-1.06.78v34.14c0,.43.47.78,1.06.78h15.5c.59,0,1.07-.35,1.07-.78v-34.14c0-.43-.48-.78-1.07-.78Z"/>
  </g>
  <line class="st3" x1="726.91" y1="1099.41" x2="735.09" y2="1099.41"/>
  <g class="st8">
    <path class="st3" d="M735.09,1062.29h-26.45c-.59,0-1.06.29-1.06.63v35.7c0,.43.47.79,1.06.79h8.38"/>
  </g>
  <line class="st3" x1="726.91" y1="1099.41" x2="717.03" y2="1099.41"/>
  <line class="st3" x1="735.09" y1="1099.41" x2="735.09" y2="1062.29"/>
  <polygon class="st13" points="493.61 825.99 497.32 832.07 502.72 836.79 503.4 837.13 503.06 837.81 502.05 838.82 500.69 839.16 499.01 838.48 497.32 837.47 496.98 837.47 496.64 837.47 496.31 837.47 495.63 837.47 495.29 837.81 502.72 841.52 510.81 842.87 510.83 842.87 518.92 841.52 526.35 837.81 526.35 837.47 526.01 837.47 525.33 837.47 525 837.47 524.66 837.47 524.32 837.47 522.63 838.48 520.95 839.16 519.6 838.82 518.58 837.81 518.58 837.13 518.92 836.79 524.32 832.07 528.03 825.99 493.61 825.99"/>
  <polygon class="st13" points="445.68 825.99 449.39 832.07 455.13 836.79 455.47 837.13 455.47 837.81 454.45 838.82 452.77 839.16 451.08 838.48 449.73 837.47 449.39 837.47 448.72 837.47 448.38 837.47 448.04 837.47 447.7 837.47 447.37 837.81 454.79 841.52 462.88 842.87 462.91 842.87 471.33 841.52 478.42 837.81 478.42 837.47 478.08 837.47 477.74 837.47 477.07 837.47 476.73 837.47 476.39 837.47 474.7 838.48 473.02 839.16 471.67 838.82 470.65 837.81 470.65 837.13 470.99 836.79 476.73 832.07 480.1 825.99 445.68 825.99"/>
  <polygon class="st13" points="528.03 762.2 493.61 762.2 480.1 762.2 445.68 762.2 439.26 762.2 439.26 825.99 445.68 825.99 480.1 825.99 493.61 825.99 528.03 825.99 534.78 825.99 534.78 762.2 528.03 762.2"/>
  <polygon class="st13" points="510.82 745.32 502.72 746.67 495.29 750.39 495.63 750.72 496.31 750.72 496.64 750.72 496.98 750.72 497.32 750.72 499.01 749.71 500.7 749.04 502.05 749.37 503.06 750.39 503.4 751.06 502.72 751.4 497.32 756.12 493.61 762.2 528.03 762.2 524.32 756.12 518.92 751.4 518.58 751.06 518.58 750.39 519.6 749.37 520.95 749.04 522.63 749.71 524.32 750.72 524.66 750.72 525 750.72 525.33 750.72 526.01 750.72 526.35 750.72 526.35 750.39 518.92 746.67 510.82 745.32"/>
  <polygon class="st13" points="462.89 745.32 454.79 746.67 447.37 750.39 447.7 750.72 448.04 750.72 448.38 750.72 448.72 750.72 449.39 750.72 449.73 750.72 451.08 749.71 452.77 749.04 454.45 749.37 455.47 750.39 455.47 751.06 455.13 751.4 449.39 756.12 445.68 762.2 480.1 762.2 476.73 756.12 470.99 751.4 470.65 751.06 470.65 750.39 471.67 749.37 473.02 749.04 474.7 749.71 476.39 750.72 476.73 750.72 477.07 750.72 477.74 750.72 478.08 750.72 478.42 750.72 478.42 750.39 471.33 746.67 462.89 745.32"/>
  <line class="st3" x1="524.32" y1="750.72" x2="524.66" y2="750.72"/>
  <line class="st3" x1="524.66" y1="750.72" x2="525" y2="750.72"/>
  <line class="st3" x1="526.01" y1="750.72" x2="525.34" y2="750.72"/>
  <line class="st3" x1="525.33" y1="750.72" x2="525" y2="750.72"/>
  <line class="st3" x1="526.35" y1="750.39" x2="526.35" y2="750.72"/>
  <line class="st3" x1="526.35" y1="750.72" x2="526.01" y2="750.72"/>
  <line class="st3" x1="518.58" y1="750.39" x2="519.6" y2="749.37"/>
  <line class="st3" x1="519.6" y1="749.37" x2="520.95" y2="749.04"/>
  <line class="st3" x1="520.95" y1="749.04" x2="522.63" y2="749.71"/>
  <line class="st3" x1="522.63" y1="749.71" x2="524.32" y2="750.72"/>
  <line class="st3" x1="518.92" y1="751.4" x2="518.58" y2="751.06"/>
  <line class="st3" x1="518.58" y1="751.06" x2="518.58" y2="750.39"/>
  <line class="st3" x1="518.92" y1="751.4" x2="524.32" y2="756.12"/>
  <line class="st3" x1="524.32" y1="756.12" x2="528.03" y2="762.2"/>
  <line class="st3" x1="497.32" y1="750.72" x2="496.98" y2="750.72"/>
  <line class="st3" x1="496.98" y1="750.72" x2="496.64" y2="750.72"/>
  <line class="st3" x1="495.63" y1="750.72" x2="496.31" y2="750.72"/>
  <line class="st3" x1="496.31" y1="750.72" x2="496.64" y2="750.72"/>
  <line class="st3" x1="495.29" y1="750.39" x2="495.63" y2="750.72"/>
  <line class="st3" x1="503.06" y1="750.39" x2="502.05" y2="749.37"/>
  <line class="st3" x1="502.05" y1="749.37" x2="500.7" y2="749.04"/>
  <line class="st3" x1="500.7" y1="749.04" x2="499.01" y2="749.71"/>
  <line class="st3" x1="499.01" y1="749.71" x2="497.32" y2="750.72"/>
  <line class="st3" x1="502.72" y1="751.4" x2="503.4" y2="751.06"/>
  <line class="st3" x1="503.4" y1="751.06" x2="503.06" y2="750.39"/>
  <line class="st3" x1="502.72" y1="751.4" x2="497.32" y2="756.12"/>
  <line class="st3" x1="497.32" y1="756.12" x2="493.61" y2="762.2"/>
  <line class="st3" x1="526.35" y1="750.39" x2="518.92" y2="746.67"/>
  <line class="st3" x1="518.92" y1="746.67" x2="510.82" y2="745.32"/>
  <line class="st3" x1="510.82" y1="745.32" x2="502.72" y2="746.67"/>
  <line class="st3" x1="502.72" y1="746.67" x2="495.3" y2="750.39"/>
  <line class="st3" x1="524.32" y1="837.47" x2="524.66" y2="837.47"/>
  <line class="st3" x1="524.66" y1="837.47" x2="525" y2="837.47"/>
  <line class="st3" x1="526.01" y1="837.47" x2="525.34" y2="837.47"/>
  <line class="st3" x1="525.33" y1="837.47" x2="525" y2="837.47"/>
  <line class="st3" x1="526.35" y1="837.8" x2="526.35" y2="837.47"/>
  <line class="st3" x1="526.35" y1="837.47" x2="526.01" y2="837.47"/>
  <line class="st3" x1="518.58" y1="837.8" x2="519.6" y2="838.82"/>
  <line class="st3" x1="519.6" y1="838.82" x2="520.95" y2="839.15"/>
  <line class="st3" x1="520.95" y1="839.16" x2="522.63" y2="838.48"/>
  <line class="st3" x1="522.63" y1="838.48" x2="524.32" y2="837.47"/>
  <line class="st3" x1="518.92" y1="836.79" x2="518.58" y2="837.13"/>
  <line class="st3" x1="518.58" y1="837.13" x2="518.58" y2="837.81"/>
  <line class="st3" x1="518.92" y1="836.79" x2="524.32" y2="832.07"/>
  <line class="st3" x1="524.32" y1="832.07" x2="528.03" y2="825.99"/>
  <line class="st3" x1="497.32" y1="837.47" x2="496.98" y2="837.47"/>
  <line class="st3" x1="496.98" y1="837.47" x2="496.64" y2="837.47"/>
  <line class="st3" x1="495.63" y1="837.47" x2="496.31" y2="837.47"/>
  <line class="st3" x1="496.31" y1="837.47" x2="496.64" y2="837.47"/>
  <line class="st3" x1="495.29" y1="837.8" x2="495.63" y2="837.47"/>
  <line class="st3" x1="503.06" y1="837.8" x2="502.05" y2="838.82"/>
  <line class="st3" x1="502.05" y1="838.82" x2="500.7" y2="839.15"/>
  <line class="st3" x1="500.7" y1="839.16" x2="499.01" y2="838.48"/>
  <line class="st3" x1="499.01" y1="838.48" x2="497.32" y2="837.47"/>
  <line class="st3" x1="502.72" y1="836.79" x2="503.4" y2="837.13"/>
  <line class="st3" x1="503.4" y1="837.13" x2="503.06" y2="837.81"/>
  <line class="st3" x1="502.72" y1="836.79" x2="497.32" y2="832.07"/>
  <line class="st3" x1="497.32" y1="832.07" x2="493.61" y2="825.99"/>
  <line class="st3" x1="526.35" y1="837.8" x2="518.92" y2="841.52"/>
  <line class="st3" x1="518.92" y1="841.52" x2="510.82" y2="842.87"/>
  <line class="st3" x1="510.82" y1="842.87" x2="502.72" y2="841.52"/>
  <line class="st3" x1="502.72" y1="841.52" x2="495.3" y2="837.8"/>
  <line class="st3" x1="534.79" y1="825.99" x2="534.79" y2="762.2"/>
  <line class="st3" x1="449.73" y1="750.72" x2="449.39" y2="750.72"/>
  <line class="st3" x1="449.39" y1="750.72" x2="448.72" y2="750.72"/>
  <line class="st3" x1="448.04" y1="750.72" x2="448.38" y2="750.72"/>
  <line class="st3" x1="448.38" y1="750.72" x2="448.72" y2="750.72"/>
  <line class="st3" x1="447.37" y1="750.39" x2="447.7" y2="750.72"/>
  <line class="st3" x1="447.7" y1="750.72" x2="448.04" y2="750.72"/>
  <line class="st3" x1="455.47" y1="750.39" x2="454.45" y2="749.37"/>
  <line class="st3" x1="454.45" y1="749.37" x2="452.77" y2="749.04"/>
  <line class="st3" x1="452.77" y1="749.04" x2="451.08" y2="749.71"/>
  <line class="st3" x1="451.08" y1="749.71" x2="449.73" y2="750.72"/>
  <line class="st3" x1="455.13" y1="751.4" x2="455.47" y2="751.06"/>
  <line class="st3" x1="455.47" y1="751.06" x2="455.47" y2="750.39"/>
  <line class="st3" x1="455.13" y1="751.4" x2="449.39" y2="756.12"/>
  <line class="st3" x1="449.39" y1="756.12" x2="445.68" y2="762.2"/>
  <line class="st3" x1="476.39" y1="750.72" x2="476.73" y2="750.72"/>
  <line class="st3" x1="476.73" y1="750.72" x2="477.07" y2="750.72"/>
  <line class="st3" x1="478.08" y1="750.72" x2="477.74" y2="750.72"/>
  <line class="st3" x1="477.74" y1="750.72" x2="477.07" y2="750.72"/>
  <line class="st3" x1="478.42" y1="750.39" x2="478.42" y2="750.72"/>
  <line class="st3" x1="478.42" y1="750.72" x2="478.08" y2="750.72"/>
  <line class="st3" x1="470.66" y1="750.39" x2="471.67" y2="749.37"/>
  <line class="st3" x1="471.67" y1="749.37" x2="473.02" y2="749.04"/>
  <line class="st3" x1="473.02" y1="749.04" x2="474.7" y2="749.71"/>
  <line class="st3" x1="474.71" y1="749.71" x2="476.39" y2="750.72"/>
  <line class="st3" x1="470.99" y1="751.4" x2="470.66" y2="751.06"/>
  <line class="st3" x1="470.66" y1="751.06" x2="470.66" y2="750.39"/>
  <line class="st3" x1="470.99" y1="751.4" x2="476.73" y2="756.12"/>
  <line class="st3" x1="476.73" y1="756.12" x2="480.11" y2="762.2"/>
  <line class="st3" x1="447.37" y1="750.39" x2="454.79" y2="746.67"/>
  <line class="st3" x1="454.79" y1="746.67" x2="462.89" y2="745.32"/>
  <line class="st3" x1="462.89" y1="745.32" x2="471.33" y2="746.67"/>
  <line class="st3" x1="471.33" y1="746.67" x2="478.42" y2="750.39"/>
  <line class="st3" x1="449.73" y1="837.47" x2="449.39" y2="837.47"/>
  <line class="st3" x1="449.39" y1="837.47" x2="448.72" y2="837.47"/>
  <line class="st3" x1="448.04" y1="837.47" x2="448.38" y2="837.47"/>
  <line class="st3" x1="448.38" y1="837.47" x2="448.72" y2="837.47"/>
  <line class="st3" x1="447.37" y1="837.8" x2="447.7" y2="837.47"/>
  <line class="st3" x1="447.7" y1="837.47" x2="448.04" y2="837.47"/>
  <line class="st3" x1="455.47" y1="837.8" x2="454.45" y2="838.82"/>
  <line class="st3" x1="454.45" y1="838.82" x2="452.77" y2="839.15"/>
  <line class="st3" x1="452.77" y1="839.16" x2="451.08" y2="838.48"/>
  <line class="st3" x1="451.08" y1="838.48" x2="449.73" y2="837.47"/>
  <line class="st3" x1="455.13" y1="836.79" x2="455.47" y2="837.13"/>
  <line class="st3" x1="455.47" y1="837.13" x2="455.47" y2="837.81"/>
  <line class="st3" x1="455.13" y1="836.79" x2="449.39" y2="832.07"/>
  <line class="st3" x1="449.39" y1="832.07" x2="445.68" y2="825.99"/>
  <line class="st3" x1="476.39" y1="837.47" x2="476.73" y2="837.47"/>
  <line class="st3" x1="476.73" y1="837.47" x2="477.07" y2="837.47"/>
  <line class="st3" x1="478.08" y1="837.47" x2="477.74" y2="837.47"/>
  <line class="st3" x1="477.74" y1="837.47" x2="477.07" y2="837.47"/>
  <line class="st3" x1="478.42" y1="837.8" x2="478.42" y2="837.47"/>
  <line class="st3" x1="478.42" y1="837.47" x2="478.08" y2="837.47"/>
  <line class="st3" x1="470.66" y1="837.8" x2="471.67" y2="838.82"/>
  <line class="st3" x1="471.67" y1="838.82" x2="473.02" y2="839.15"/>
  <line class="st3" x1="473.02" y1="839.16" x2="474.7" y2="838.48"/>
  <line class="st3" x1="474.71" y1="838.48" x2="476.39" y2="837.47"/>
  <line class="st3" x1="470.99" y1="836.79" x2="470.66" y2="837.13"/>
  <line class="st3" x1="470.66" y1="837.13" x2="470.66" y2="837.81"/>
  <line class="st3" x1="470.99" y1="836.79" x2="476.73" y2="832.07"/>
  <line class="st3" x1="476.73" y1="832.07" x2="480.11" y2="825.99"/>
  <line class="st3" x1="447.37" y1="837.8" x2="454.79" y2="841.52"/>
  <line class="st3" x1="454.79" y1="841.52" x2="462.89" y2="842.87"/>
  <line class="st3" x1="462.89" y1="842.87" x2="471.33" y2="841.52"/>
  <line class="st3" x1="471.33" y1="841.52" x2="478.42" y2="837.8"/>
  <line class="st3" x1="439.26" y1="825.99" x2="439.26" y2="762.2"/>
  <polyline class="st3" points="439.26 762.2 445.68 762.2 480.1 762.2 493.61 762.2 528.03 762.2 534.78 762.2"/>
  <polyline class="st3" points="534.79 825.99 528.04 825.99 493.61 825.99 480.11 825.99 445.68 825.99 439.27 825.99"/>
  <line class="st3" x1="456.92" y1="1017.19" x2="446.25" y2="1017.19"/>
  <rect class="st3" x="439.17" y="996.4" width="47.78" height="117.89"/>
  <line class="st3" x1="454.18" y1="1086.25" x2="454.18" y2="1075.82"/>
  <line class="st3" x1="473.79" y1="1086.25" x2="473.79" y2="1075.82"/>
  <line class="st3" x1="468.64" y1="1081.11" x2="479.07" y2="1081.11"/>
  <line class="st3" x1="448.89" y1="1081.11" x2="459.32" y2="1081.11"/>
  <rect class="st3" x="444.3" y="1069.28" width="39.36" height="22.95"/>
  <rect class="st3" x="450.04" y="1003.99" width="26.54" height="26.54"/>
  <rect class="st3" x="443.43" y="997.25" width="39.75" height="39.88"/>
  <g class="st11">
    <path class="st13" d="M639.76,903.45c-12.02,0-21.77-9.75-21.77-21.77s9.75-21.77,21.77-21.77,21.77,9.75,21.77,21.77-9.75,21.77-21.77,21.77"/>
    <circle class="st1" cx="639.76" cy="881.68" r="21.77"/>
  </g>
  <path class="st3" d="M623.39,973.15v-51.64M623.39,921.51h119.82M743.21,921.51v51.64M743.21,973.15h-119.82M704.4,679.17v15.87M704.4,695.03h38.82M439.1,695.03h68.18M507.28,695.03v-15.87M607.52,1130.1h140.41M755.7,1130.1h5.07M534.96,1114.24h-95.86M421.55,1130.1h112.73M700.68,577.23l-13.17,1.35M687.52,578.58l-12.49,3.38M675.03,581.96l-11.82,5.4M663.22,587.36l-10.8,7.76M652.42,595.12l-9.45,9.11M642.97,604.24l-7.43,10.8M635.54,615.04l-5.74,11.81M629.8,626.85l-3.37,12.82M626.43,639.68l-1.01,13.16M700.68,652.84v-75.61M695.96,653.51v3.71M630.48,653.51h65.48M630.48,657.23v-3.71M695.96,657.23h-65.48M627.1,664.65h72.23M695.96,652.84h-65.48M695.96,659.25h-65.48M627.1,659.25v5.4M699.33,659.25v5.4M699.33,659.25h-72.23M703.38,652.84v11.82M695.96,652.84h7.43M695.96,659.25v-6.42M699.33,659.25h-3.38M699.33,664.65v-5.4M703.38,664.65h-4.05M627.1,659.25v5.4M630.48,659.25h-3.38M630.48,652.84v6.42M623.05,652.84h7.43M623.05,664.65v-11.82M627.1,664.65h-4.05M512,657.23h105.99M617.99,657.23v-3.71M617.99,653.51h-105.99M512,653.51v3.71M617.99,664.65h-105.99M512,652.84h105.99M617.99,664.65h4.05M622.04,664.65v-11.82M622.04,652.84h-4.05M617.99,652.84v11.82M508.29,664.65h3.71M512,664.65v-11.82M512,652.84h-3.71M508.29,652.84v11.82M485.34,548.54v99.91M726.67,648.45v-99.91M726.67,648.45h4.05M730.72,648.45v-111.67M730.81,536.85h-249.44M481.29,536.85v111.6M481.29,648.45h4.05M485.34,648.45v-107.73M485.34,540.72h241.33M726.67,540.72v107.73M421.55,695.03v419.21M760.76,1114.24v-419.21M623.39,921.51h119.82M743.21,921.51v51.64M743.21,973.15h-119.82M623.39,973.15v-51.64"/>
  <path class="st3" d="M439.1,825.99v-63.79M439.1,942.44h1.35M442.81,942.44h2.36M447.54,942.44h2.37M452.26,942.44h2.36M456.99,942.44h2.36M461.71,942.44h2.36M466.78,942.44h2.36M471.5,942.44h2.37M476.23,942.44h2.36M480.95,942.44h2.36M485.68,942.44h1.35M487.03,942.44v-1.01M487.03,938.73v-2.36M487.03,934v-2.36M487.03,929.27v-2.36M487.03,924.55v-2.36M487.03,919.82v-2.36M487.03,915.1v-2.36M487.03,910.04v-2.36M487.03,905.31v-2.37M487.03,900.59v-2.36M487.03,895.86v-1.35M487.03,894.51h-1.35M483.31,894.51h-2.36M478.59,894.51h-2.36M473.87,894.51h-2.37M469.14,894.51h-2.36M464.08,894.51h-2.36M459.35,894.51h-2.36M454.62,894.51h-2.36M449.9,894.51h-2.37M445.17,894.51h-2.36M440.45,894.51h-1.35M439.1,894.51v1.35M439.1,898.22v2.36M439.1,902.95v2.37M439.1,907.67v2.36M439.1,912.74v2.36M439.1,917.46v2.36M439.1,922.19v2.36M439.1,926.91v2.36M439.1,931.64v2.36M439.1,936.36v2.36M439.1,941.43v1.01M604.15,1047.75l-13.16,1.35M590.99,1049.1l-12.49,3.71M578.5,1052.81l-11.48,6.08M567.02,1058.89l-10.12,8.44M556.9,1067.32l-8.1,10.13M548.79,1077.45l-6.07,11.47M542.72,1088.93l-4.05,12.49M538.67,1101.42l-1.02,12.83M534.96,1114.24v15.86M606.51,1130.1v-15.86M604.15,1114.24v-66.49M537.66,1114.24h66.49M607.52,1114.24h-1.01M439.1,990.37h1.35M442.81,990.37h2.36M447.54,990.37h2.37M452.26,990.37h2.36M456.99,990.37h2.36M461.71,990.37h2.36M466.78,990.37h2.36M471.5,990.37h2.37M476.23,990.37h2.36M480.95,990.37h2.36M485.68,990.37h1.35M487.03,990.37v-1.35M487.03,986.65v-2.36M487.03,981.93v-2.36M487.03,977.2v-2.36M487.03,972.48v-2.36M487.03,967.75v-2.7M487.03,962.69v-2.36M487.03,957.97v-2.36M487.03,953.24v-2.36M487.03,948.51v-2.36M487.03,943.79v-1.35M487.03,942.44h-1.35M483.31,942.44h-2.36M478.59,942.44h-2.36M473.87,942.44h-2.37M469.14,942.44h-2.36M464.08,942.44h-2.36M459.35,942.44h-2.36M454.62,942.44h-2.36M449.9,942.44h-2.37M445.17,942.44h-2.36M440.45,942.44h-1.35M439.1,942.44v1.35M439.1,946.15v2.36M439.1,950.88v2.36M439.1,955.6v2.36M439.1,960.33v2.36M439.1,965.05v2.7M439.1,970.12v2.36M439.1,974.84v2.36M439.1,979.57v2.36M439.1,984.29v2.36M439.1,989.02v1.35M439.1,996.44h55.69M494.79,996.44v-6.07M494.79,990.37h-55.69M507.28,662.63v32.41M439.1,695.03v295.34M439.1,996.44v117.8M606.51,1114.24h9.11M615.63,913.41h127.58M743.21,913.41v-218.38M704.4,695.03v-32.41M704.4,662.63h-1.01M623.05,662.63h-1.01M508.29,662.63h-1.01M712.83,1130.1h-106.32M607.52,1114.24h-1.01M534.96,1130.1h-113.41"/>
  <path class="st3" d="M439.1,1045.38v47.93M439.1,997.46v95.86M615.63,1107.49v6.75M615.63,1098.71v8.78M615.63,973.15v54.68M620.69,1030.2v62.78M741.52,973.15h-118.14"/>
  <path class="st3" d="M686.51,1096.01l-1.35-12.82M685.16,1083.19l-3.71-12.15M681.44,1071.04l-6.07-11.48M675.37,1059.56l-8.1-9.79M667.27,1049.77l-10.13-8.44M657.14,1041.33l-11.14-6.08M646,1035.26l-12.49-3.71M633.51,1031.54l-12.83-1.35M622.04,1027.83h-6.41M615.63,1098.71h6.41M620.69,1096.01h65.82M620.69,1092.98v3.04M620.69,1092.98v-62.78"/>
  <path class="st3" d="M622.04,979.57h114.08M736.12,979.57v126.57M622.04,1027.83v-48.26M622.04,1106.14v-7.43M736.12,1106.14h-114.08"/>
  <path class="st3" d="M421.55,921.51v-8.1M743.21,913.41h-8.1M735.11,913.41v8.1M735.11,921.51h8.1M687.18,913.41h-63.79M623.39,921.51h63.79M687.18,921.51v-8.1M687.18,913.41h47.93M735.11,921.51h-47.93M735.11,913.41v8.1M687.18,921.51v-8.1M615.63,913.41v59.74M623.39,913.41h-7.77M507.28,679.17v-30.71M507.28,648.45h-85.73M760.76,648.45h-56.37M704.4,648.45v30.71M704.4,657.23v-8.77M704.4,657.23h-1.01M623.05,657.23h-1.01M508.29,657.23h-1.01M507.28,662.63v-5.4M704.4,657.23v5.4M507.28,648.45v8.77M507.28,657.23h1.01M622.04,657.23h1.01M703.38,657.23h1.01M760.76,648.45v481.65M760.76,1130.1h-47.93M421.55,1130.1v-481.65"/>
  <g class="st10">
    <path class="st2" d="M71.53,1117.95h6.07M95.16,1197.27l16.2-7.09M106.97,1172.63l4.39,17.55M134.65,1201.32l-27.68-28.69M134.65,1201.32l-39.49-4.05M134.65,1201.32l-23.29-11.14M71.53,878.65h6.07M71.53,1038.3h6.07M71.53,958.64h6.07M71.53,878.65v239.31M1197.86,418.93H14.15"/>
    <path d="M92.92,469.84c-.43.28-.75.67-.96,1.17-.21.5-.32,1.11-.32,1.85,0,.58.11,1.1.32,1.57.21.47.5.82.89,1.07.38.25.78.37,1.21.37s.81-.11,1.15-.34c.33-.22.61-.58.82-1.05.14-.33.32-.92.51-1.8.19-.88.38-1.42.57-1.62.19-.21.42-.32.72-.32.33,0,.62.15.85.45.23.3.36.77.36,1.42s-.13,1.1-.39,1.42c-.26.32-.64.51-1.16.56l.08,1.03c.47-.02.9-.15,1.27-.4.37-.25.66-.6.85-1.06.19-.46.29-.99.29-1.6,0-.55-.09-1.04-.27-1.49-.18-.45-.45-.79-.81-1.02-.35-.23-.74-.35-1.14-.35-.37,0-.71.09-1,.29-.3.19-.55.48-.75.87-.16.3-.33.82-.5,1.57-.18.75-.31,1.23-.39,1.45-.13.34-.29.59-.48.73-.19.15-.41.22-.66.22s-.48-.08-.69-.23c-.21-.16-.38-.39-.49-.7-.12-.32-.18-.68-.18-1.09,0-.46.08-.88.24-1.25.16-.37.37-.64.62-.82.26-.18.59-.29.99-.34l-.09-1.02c-.54.02-1.02.16-1.45.45M91.78,478.56h2.79l1.28,1.33-4.08,2.9v1.42l4.8-3.56,3.26,3.41v-1.46l-4-4.04h4v-1.08h-8.06v1.08Z"/>
    <path d="M97.44,488.08h-.92v5.37h.92v-5.37ZM95,488.08h-.92v5.37h.92v-5.37Z"/>
    <path d="M92.92,498.2c-.43.28-.75.67-.96,1.17-.21.5-.32,1.11-.32,1.85,0,.58.1,1.1.31,1.57.21.47.51.82.89,1.07.38.25.78.37,1.22.37s.81-.11,1.14-.34c.33-.23.61-.58.82-1.05.15-.33.32-.92.51-1.8.2-.88.39-1.42.57-1.62.19-.21.42-.32.71-.32.34,0,.62.15.86.45.23.3.36.77.36,1.43s-.13,1.1-.39,1.42-.64.51-1.15.56l.08,1.03c.47-.02.9-.15,1.27-.4.38-.25.66-.61.85-1.06.19-.46.29-.99.29-1.6,0-.55-.09-1.04-.28-1.49-.18-.45-.45-.79-.8-1.02-.35-.23-.73-.35-1.14-.35-.37,0-.71.1-1,.29-.3.19-.55.48-.75.87-.16.3-.32.82-.5,1.57-.18.75-.31,1.23-.39,1.45-.13.34-.29.59-.48.73-.19.15-.41.22-.66.22s-.48-.07-.69-.23c-.21-.16-.38-.39-.5-.7-.12-.32-.18-.68-.18-1.09,0-.46.08-.88.24-1.25.16-.37.37-.64.63-.82.26-.18.59-.29.99-.34l-.09-1.02c-.54.01-1.02.16-1.45.45"/>
    <path d="M91.78,506.42h2.31l.67.71-2.98,1.95v1.23l3.67-2.48,2.16,2.26v-1.3l-2.38-2.37h4.6v-1h-8.06v1ZM91.78,515.54v1.04c.22-.12.46-.21.7-.25.25-.05.83-.07,1.75-.07h1.32c.44,0,.74-.02.91-.05.27-.06.49-.16.67-.31.18-.15.33-.38.44-.69.12-.31.18-.72.18-1.23s-.07-.95-.21-1.33c-.14-.38-.33-.68-.59-.88-.26-.21-.59-.35-1-.44l-.13.98c.42.11.7.27.87.5.16.22.25.57.25,1.04,0,.5-.11.88-.34,1.14-.16.19-.45.28-.85.28-.03,0-.12,0-.26,0-.13-.38-.25-.98-.34-1.78-.05-.39-.09-.69-.15-.89-.07-.27-.18-.5-.32-.72-.14-.21-.33-.38-.57-.52-.24-.13-.5-.2-.78-.2-.49,0-.89.17-1.2.52-.31.35-.47.85-.47,1.49,0,.39.07.76.19,1.1.13.34.35.7.66,1.07-.27.03-.51.1-.72.2M94.35,515.26c-.44,0-.77-.05-.99-.16-.29-.14-.52-.36-.68-.66-.17-.3-.25-.64-.25-1.03s.09-.68.27-.88c.18-.2.4-.31.66-.31.18,0,.33.05.47.14.14.09.25.22.33.39.07.17.14.46.2.87.1.73.23,1.27.38,1.63h-.36Z"/>
    <path d="M91.78,518.57h2.31l.67.71-2.99,1.95v1.23l3.67-2.48,2.16,2.25v-1.29l-2.37-2.37h4.6v-1h-8.06v1ZM92.63,525.05c0-.15.03-.26.07-.34.05-.08.11-.14.19-.17.08-.04.26-.05.55-.05h3.42v1.01h.77v-1.01h2.04l-.59-.99h-1.45v-.73h-.77v.73h-3.36c-.59,0-.98.04-1.17.12-.18.08-.33.22-.45.42-.11.2-.17.48-.17.84,0,.22.03.47.09.76l.88-.14c-.03-.18-.04-.33-.04-.44"/>
    <path d="M78.62,470.9h3.66v3.82h.95v-3.82h2.5v4.41h.95v-5.49h-8.06v1.08ZM79.76,476.59c-.43.28-.74.67-.96,1.17-.21.5-.32,1.11-.32,1.85,0,.58.1,1.1.31,1.57.21.46.51.82.89,1.07.38.25.79.37,1.22.37s.81-.11,1.14-.34c.33-.23.61-.58.83-1.05.14-.33.32-.92.51-1.8.2-.88.39-1.42.57-1.62.19-.21.43-.32.72-.32.33,0,.62.15.85.45.23.3.35.77.35,1.43s-.13,1.1-.39,1.42c-.26.32-.64.51-1.15.56l.08,1.03c.47-.02.9-.15,1.27-.4.38-.25.66-.61.85-1.06.19-.46.29-.99.29-1.6,0-.55-.09-1.04-.27-1.49-.19-.45-.45-.79-.81-1.02-.35-.23-.73-.35-1.14-.35-.37,0-.7.1-1,.29-.3.19-.55.48-.75.87-.16.3-.32.82-.5,1.57-.18.75-.31,1.23-.39,1.45-.13.34-.29.59-.48.73-.19.15-.41.22-.66.22s-.48-.07-.69-.23c-.21-.16-.38-.39-.5-.7-.12-.32-.18-.68-.18-1.09,0-.46.08-.88.24-1.25.16-.37.37-.64.63-.82.26-.18.59-.29.99-.34l-.09-1.02c-.54.01-1.02.16-1.45.45"/>
    <path d="M84.28,487.07h-.92v5.37h.92v-5.37ZM81.83,487.07h-.92v5.37h.92v-5.37Z"/>
    <polygon points="78.62 498.23 82.28 498.23 82.28 502.05 83.23 502.05 83.23 498.23 85.73 498.23 85.73 502.64 86.68 502.64 86.68 497.15 78.62 497.15 78.62 498.23"/>
    <path d="M79.27,504.46c-.53.51-.79,1.18-.79,2,0,.51.12.99.36,1.43.24.44.57.76,1,.99.43.23,1.02.34,1.77.34.92,0,1.65-.26,2.18-.77.53-.52.79-1.18.79-1.99,0-.73-.22-1.34-.65-1.85-.52-.61-1.32-.91-2.4-.91-.98,0-1.74.25-2.26.76M83.21,505.21c.37.33.55.74.55,1.24s-.18.9-.56,1.24c-.37.33-.92.5-1.64.5-.77,0-1.34-.16-1.71-.49-.38-.33-.56-.75-.56-1.24s.19-.91.56-1.24c.37-.33.93-.49,1.68-.49s1.31.17,1.68.49M78.62,511.12h3.05c.42,0,.81.06,1.16.17.23.07.41.2.54.37.13.18.2.37.2.59,0,.24-.07.49-.21.73l.92.34c.21-.35.32-.69.32-1.03,0-.23-.07-.45-.2-.64-.13-.19-.41-.4-.82-.63h.89v-.9h-5.84v1Z"/>
    <path d="M79.59,517.27c-.19-.26-.29-.57-.29-.94,0-.49.17-.9.51-1.23.34-.33.83-.51,1.48-.55v4.39c.11,0,.2,0,.26,0,.96,0,1.71-.25,2.24-.75.53-.5.8-1.14.8-1.93s-.27-1.47-.81-1.99c-.54-.51-1.31-.77-2.29-.77s-1.69.25-2.21.76c-.53.51-.79,1.19-.79,2.05,0,.68.16,1.24.49,1.69.33.44.79.74,1.39.9l.13-1.03c-.42-.15-.72-.35-.91-.62M83.32,515.13c.31.31.46.7.46,1.16,0,.51-.19.92-.57,1.24-.25.21-.61.33-1.1.38v-3.29c.51.03.91.21,1.22.52M78.96,520.63c-.31.4-.47.99-.47,1.75,0,.46.08.88.24,1.24.16.37.38.65.67.84.29.19.6.29.93.29s.62-.08.84-.24c.23-.16.4-.38.52-.66.12-.28.27-.77.46-1.48.13-.49.22-.78.25-.88.07-.18.16-.3.26-.38.1-.08.22-.12.35-.12.2,0,.38.1.53.29.15.2.23.52.23.98,0,.39-.08.69-.25.9-.17.21-.4.34-.7.39l.13.97c.38-.06.68-.18.9-.34.23-.17.4-.43.54-.77.13-.35.2-.76.2-1.22,0-.31-.04-.6-.12-.87-.08-.27-.18-.48-.29-.63-.14-.21-.33-.37-.55-.49-.22-.12-.46-.18-.72-.18-.29,0-.55.07-.79.22-.23.15-.42.36-.55.64-.14.28-.29.79-.48,1.52-.14.54-.25.89-.33,1.02-.13.2-.31.29-.53.29-.25,0-.47-.11-.65-.33-.19-.22-.28-.56-.28-1.02s.1-.81.31-1.06c.21-.25.51-.41.9-.47l-.16-.99c-.62.11-1.09.37-1.4.77M86.68,526.02h-8.06v1h8.06v-1ZM78.62,532.7v1.04c.22-.13.46-.21.7-.26.24-.04.82-.06,1.74-.06h1.32c.44,0,.75-.02.91-.05.27-.06.5-.17.67-.31.18-.15.33-.38.44-.69.12-.31.18-.72.18-1.22s-.07-.95-.2-1.34c-.14-.38-.33-.68-.59-.88-.25-.21-.59-.35-1-.44l-.13.98c.41.11.7.27.86.5.17.22.25.57.25,1.04,0,.5-.11.88-.33,1.14-.17.19-.45.28-.85.28-.04,0-.12,0-.26,0-.13-.38-.24-.98-.34-1.78-.05-.39-.1-.69-.15-.89-.07-.27-.18-.5-.32-.72-.14-.21-.33-.38-.57-.52-.23-.13-.5-.2-.78-.2-.49,0-.89.17-1.2.52s-.47.85-.47,1.49c0,.39.06.76.19,1.1.13.34.35.7.66,1.07-.28.03-.51.1-.72.2M81.19,532.42c-.44,0-.77-.06-.99-.16-.29-.14-.52-.36-.68-.66-.16-.3-.25-.64-.25-1.03s.09-.68.26-.88c.18-.2.4-.3.66-.3.17,0,.33.04.47.14.14.09.25.22.32.39.08.17.14.46.2.87.1.72.22,1.27.37,1.63h-.36ZM85.24,530.32c-.2.2-.29.43-.29.71s.1.5.29.7c.19.2.43.3.71.3s.52-.1.71-.3.29-.43.29-.7-.1-.5-.29-.7-.42-.3-.69-.3c-.29,0-.54.1-.74.29M86.38,530.63c.11.12.18.25.18.41s-.06.3-.18.42c-.12.11-.26.17-.42.17s-.31-.06-.42-.17c-.12-.12-.18-.25-.18-.41s.06-.3.18-.41.26-.18.44-.18c.16,0,.3.06.42.18M79.59,538.48c-.19-.26-.29-.57-.29-.94,0-.49.17-.9.51-1.23.34-.33.83-.51,1.48-.55v4.4c.11,0,.2,0,.26,0,.96,0,1.71-.25,2.24-.75.53-.5.8-1.14.8-1.93s-.27-1.47-.81-1.99c-.54-.51-1.31-.76-2.29-.76s-1.69.25-2.21.76c-.53.5-.79,1.19-.79,2.05,0,.68.16,1.25.49,1.69.33.44.79.74,1.39.9l.13-1.03c-.42-.15-.72-.36-.91-.62M83.32,536.34c.31.31.46.7.46,1.16,0,.5-.19.92-.57,1.24-.25.21-.61.33-1.1.38v-3.29c.51.04.91.21,1.22.52"/>
    <path d="M79.46,543.27c0-.15.02-.26.07-.34.05-.08.11-.14.19-.17.08-.04.26-.05.55-.05h3.41v1.01h.77v-1.01h2.04l-.59-1h-1.45v-.73h-.77v.73h-3.36c-.59,0-.98.04-1.17.12-.19.08-.33.22-.45.42-.12.2-.17.48-.17.84,0,.22.03.47.09.75l.88-.14c-.03-.18-.04-.33-.04-.44M78.96,547.96c-.32.4-.47.99-.47,1.75,0,.46.08.88.24,1.24.16.36.38.64.68.84.29.2.6.29.93.29s.62-.08.85-.24c.23-.16.4-.38.52-.66.12-.28.27-.77.46-1.48.14-.49.22-.78.25-.88.07-.17.16-.3.27-.38.1-.08.21-.12.35-.12.2,0,.38.1.53.3s.23.52.23.98c0,.39-.08.69-.25.9-.17.21-.4.34-.7.38l.13.98c.38-.07.68-.18.9-.35.22-.17.4-.43.54-.77.13-.35.2-.76.2-1.22,0-.31-.04-.6-.12-.86-.08-.27-.18-.48-.29-.63-.15-.21-.33-.37-.55-.49-.22-.12-.46-.18-.72-.18-.28,0-.55.07-.78.22-.23.15-.42.36-.55.65-.13.28-.29.79-.48,1.52-.14.54-.25.88-.34,1.02-.13.2-.31.29-.53.29-.25,0-.47-.11-.65-.33-.19-.22-.28-.56-.28-1.02s.1-.81.32-1.06c.21-.25.51-.41.9-.46l-.15-.99c-.62.11-1.09.36-1.4.77"/>
    <path d="M78.62,554.68h2.31l.67.7-2.98,1.95v1.23l3.67-2.48,2.16,2.25v-1.29l-2.38-2.36h4.6v-1h-8.06v1ZM78.62,563.46v1.04c.22-.12.46-.21.7-.25.25-.05.83-.07,1.75-.07h1.32c.44,0,.74-.02.91-.05.27-.06.5-.16.67-.31.18-.15.33-.38.45-.69.12-.31.18-.72.18-1.23s-.07-.95-.21-1.33-.33-.68-.59-.88c-.25-.21-.59-.35-1-.44l-.13.98c.41.11.7.27.86.5.16.22.25.57.25,1.04,0,.5-.11.88-.33,1.14-.17.19-.45.28-.85.28-.04,0-.13,0-.26,0-.14-.38-.25-.98-.35-1.78-.05-.39-.09-.69-.15-.89-.07-.27-.18-.5-.32-.72-.14-.21-.33-.38-.57-.52-.23-.13-.49-.2-.78-.2-.49,0-.89.17-1.2.52-.31.35-.47.85-.47,1.49,0,.39.07.76.2,1.1.13.34.35.7.66,1.07-.27.03-.51.1-.72.2M81.19,563.18c-.44,0-.77-.05-.99-.16-.29-.14-.52-.36-.68-.66-.17-.3-.25-.64-.25-1.03s.09-.68.27-.88c.18-.2.4-.31.66-.31.17,0,.33.05.47.14.14.09.25.22.32.39.07.17.14.46.2.87.1.73.23,1.27.38,1.63h-.36Z"/>
    <path d="M79.35,566.42c-.58.39-.86.94-.86,1.64s.27,1.3.82,1.8c.55.5,1.32.75,2.32.75.42,0,.82-.06,1.19-.18.37-.12.68-.28.95-.49.26-.21.47-.48.61-.8.14-.32.22-.67.22-1.03,0-.65-.26-1.19-.79-1.61h2.88v-1h-8.06v.93h.73ZM83.21,566.88c.38.32.56.7.56,1.13s-.18.8-.54,1.11c-.36.31-.93.46-1.69.46s-1.3-.16-1.68-.48c-.38-.32-.56-.7-.56-1.13,0-.53.25-.96.76-1.28.31-.19.82-.29,1.52-.29s1.25.16,1.63.48"/>
    <path d="M79.65,877.22c-.56.45-.83,1.06-.83,1.85,0,.6.16,1.09.48,1.48.31.39.76.68,1.35.88.58.2,1.34.29,2.29.29.8,0,1.44-.06,1.91-.18.47-.12.87-.29,1.2-.51.33-.21.58-.49.76-.82.18-.33.26-.71.26-1.15,0-.59-.16-1.08-.47-1.47-.31-.39-.76-.69-1.34-.88-.58-.2-1.35-.29-2.3-.29-1.51,0-2.6.27-3.27.8M85.65,877.96c.39.28.58.64.58,1.1s-.22.85-.65,1.17c-.44.31-1.32.47-2.65.47s-2.2-.16-2.64-.47c-.44-.31-.66-.7-.66-1.16s.22-.84.65-1.16c.44-.31,1.32-.47,2.64-.47s2.23.17,2.72.51M79.91,1030.92c.18.11.36.25.53.42.18.17.52.55,1.02,1.15.6.72,1.07,1.23,1.42,1.54.35.31.67.53.98.66.31.13.63.2.95.2.64,0,1.17-.23,1.6-.68.43-.46.64-1.07.64-1.86s-.2-1.39-.6-1.85-.97-.72-1.73-.79l-.1,1.03c.5,0,.9.15,1.19.44.29.29.43.68.43,1.15,0,.46-.14.83-.4,1.11-.27.28-.6.42-.99.42s-.77-.16-1.19-.47c-.42-.31-.99-.91-1.71-1.8-.46-.57-.87-1-1.22-1.31-.35-.3-.71-.52-1.07-.66-.22-.08-.45-.12-.69-.11v5.38h.95v-3.99Z"/>
    <path d="M78.96,1037.01h3.03c.53,0,.94.05,1.22.16.29.11.5.28.64.52.15.24.22.5.22.78,0,.37-.11.64-.33.8-.22.16-.55.25-.99.25h-3.79v1h3.39c.6,0,1.04.14,1.31.41.27.28.41.62.41,1.04,0,.23-.05.43-.16.6-.11.17-.25.29-.42.35-.18.07-.46.1-.85.1h-3.68v.99h4.01c.66,0,1.16-.16,1.48-.47.32-.32.48-.76.48-1.35,0-.74-.34-1.35-1.02-1.82.32-.11.57-.31.75-.59.18-.28.27-.64.27-1.08,0-.39-.08-.74-.26-1.05-.17-.31-.41-.55-.69-.74h.82v-.89h-5.84v1Z"/>
    <path d="M87.05,956.12v-.64c-.35-.17-.71-.47-1.08-.89-.37-.42-.68-.9-.94-1.46h-.96c.11.31.29.66.51,1.05.23.39.46.71.68.95h-6.3v1h8.09ZM78.96,960.05h3.03c.53,0,.94.05,1.22.16.29.11.5.28.64.52.15.24.22.5.22.78,0,.37-.11.63-.33.8-.22.16-.55.25-.99.25h-3.79v1h3.39c.6,0,1.04.14,1.31.41.27.28.41.62.41,1.03,0,.23-.05.43-.16.6-.11.17-.25.28-.42.35-.18.07-.46.1-.85.1h-3.68v.99h4.01c.66,0,1.16-.16,1.48-.47.32-.32.48-.76.48-1.35,0-.75-.34-1.36-1.02-1.82.32-.12.57-.31.75-.59.18-.28.27-.64.27-1.07,0-.39-.08-.74-.26-1.05-.17-.31-.41-.55-.69-.74h.82v-.89h-5.84v1Z"/>
    <path d="M78.95,781.3h6.86l-6.86,2.35v.97l6.74,2.36h-6.74v1.04h8.06v-1.45l-5.61-1.94c-.57-.2-1-.34-1.29-.44.27-.08.66-.21,1.19-.39l5.71-1.92v-1.62h-8.06v1.04ZM78.95,793.32v1.04c.23-.12.46-.21.7-.25.24-.04.83-.06,1.74-.06h1.32c.44,0,.74-.02.91-.05.27-.06.49-.17.67-.31.18-.15.33-.38.44-.69s.18-.72.18-1.22-.07-.96-.2-1.34c-.14-.39-.34-.68-.59-.88-.25-.21-.59-.35-1-.44l-.13.98c.42.11.7.27.87.49.16.22.25.57.25,1.04,0,.5-.11.88-.34,1.14-.16.19-.45.28-.85.28-.03,0-.12,0-.26,0-.13-.38-.24-.98-.34-1.78-.05-.39-.1-.69-.15-.89-.08-.27-.18-.5-.33-.72-.14-.21-.33-.38-.57-.51-.24-.13-.5-.2-.78-.2-.49,0-.89.17-1.2.52-.32.35-.47.85-.47,1.49,0,.39.07.76.19,1.1.13.34.35.7.66,1.07-.27.03-.51.1-.72.2M81.52,793.04c-.44,0-.77-.06-.99-.16-.29-.14-.52-.36-.69-.66-.16-.3-.25-.64-.25-1.03s.09-.68.26-.89c.18-.2.39-.3.66-.3.17,0,.33.04.47.14.14.09.25.22.32.39.07.17.14.46.2.87.1.73.23,1.27.37,1.63h-.36ZM85.58,790.95c-.2.2-.29.43-.29.71s.09.5.29.7c.19.2.43.29.71.29s.52-.1.71-.29.29-.43.29-.7-.1-.5-.29-.7-.42-.3-.69-.3c-.29,0-.54.1-.73.3M86.72,791.25c.12.12.17.25.17.41s-.06.3-.17.42c-.12.11-.26.17-.42.17s-.31-.06-.43-.18c-.11-.12-.17-.25-.17-.41s.06-.3.17-.41c.12-.12.26-.18.44-.18.16,0,.3.06.42.18"/>
    <rect x="78.96" y="795.67" width="8.06" height="1"/>
    <path d="M87.05,804.91v-.64c-.35-.18-.71-.47-1.07-.89-.37-.42-.69-.9-.95-1.46h-.96c.12.31.29.66.51,1.05.23.39.46.71.68.95h-6.31v1h8.09ZM84.79,808.12h-1.13v1.14h1.13v-1.14ZM80.08,808.12h-1.13v1.14h1.13v-1.14Z"/>
    <path d="M79.43,811.4c-.41.47-.61,1.07-.61,1.81,0,.9.32,1.61.98,2.14.53.43,1.16.64,1.89.64s1.39-.24,1.88-.73c.49-.49.73-1.09.73-1.8,0-.54-.17-1.05-.5-1.54l2.16.44v3.25h.94v-4.05l-4.14-.79-.12.94c.23.15.42.35.57.61.14.26.21.55.21.87,0,.52-.16.94-.49,1.26-.33.32-.77.48-1.33.48-.59,0-1.07-.17-1.43-.5-.36-.33-.54-.74-.54-1.22,0-.4.13-.74.38-1.03.25-.28.63-.46,1.14-.54l-.09-1.05c-.68.07-1.22.34-1.63.8M79.65,817.82c-.56.45-.83,1.06-.83,1.85,0,.6.16,1.09.47,1.48.32.39.77.68,1.35.88.58.2,1.34.3,2.29.3.8,0,1.43-.06,1.9-.18.47-.12.87-.29,1.2-.51.33-.21.58-.49.76-.82.18-.33.26-.71.26-1.15,0-.59-.16-1.08-.47-1.47-.31-.39-.76-.68-1.34-.88-.58-.2-1.35-.3-2.3-.3-1.51,0-2.6.27-3.27.81M85.65,818.55c.38.27.58.64.58,1.1s-.22.86-.66,1.17-1.32.47-2.64.47-2.2-.15-2.64-.47c-.44-.31-.66-.7-.66-1.16s.22-.84.66-1.16c.44-.31,1.32-.47,2.64-.47s2.23.17,2.72.51"/>
    <polygon class="st13" points="78.96 1168.24 101.57 1179.38 94.82 1193.9 71.87 1182.76 78.96 1168.24"/>
    <polygon points="81.71 1173.99 93.05 1179.48 78.02 1181.6 77.07 1183.57 91.51 1190.56 92.4 1188.72 81.06 1183.23 96.08 1181.11 97.04 1179.14 82.6 1172.15 81.71 1173.99"/>
    <path d="M79.45,1110.12c-.42.47-.63,1.06-.63,1.78,0,.79.25,1.44.74,1.96.49.52,1.08.77,1.79.77.52,0,.95-.13,1.3-.4.35-.27.58-.64.68-1.12.17.37.4.65.68.84.29.19.61.28.95.28.36,0,.71-.1,1.04-.3.32-.2.58-.49.77-.86.19-.37.28-.78.28-1.23,0-.64-.18-1.18-.55-1.62-.36-.43-.88-.71-1.54-.83l-.18,1c.48.07.85.24,1.09.5s.36.58.36.97-.12.71-.36.96c-.24.25-.54.37-.9.37-.46,0-.79-.17-1.02-.51-.22-.34-.33-.72-.33-1.15,0-.04,0-.09,0-.16l-.87-.11c.07.28.11.51.11.7,0,.47-.15.84-.44,1.15-.29.3-.67.45-1.13.45s-.87-.16-1.2-.48c-.32-.32-.48-.72-.48-1.19,0-.4.12-.73.37-1.01.25-.28.65-.47,1.21-.59l-.13-1c-.67.07-1.22.34-1.64.81M78.96,1116.66h3.03c.53,0,.94.05,1.22.16.29.1.5.28.64.52.15.24.22.5.22.78,0,.37-.11.63-.33.8-.22.17-.55.24-.99.24h-3.79v1h3.39c.6,0,1.04.14,1.31.41.27.28.41.62.41,1.03,0,.23-.05.43-.16.6-.11.17-.25.28-.42.35-.18.07-.46.1-.85.1h-3.68v.99h4.01c.66,0,1.16-.16,1.48-.47.32-.31.48-.76.48-1.35,0-.75-.34-1.35-1.02-1.82.32-.11.57-.31.75-.59.18-.28.27-.64.27-1.08,0-.39-.08-.74-.26-1.05-.17-.31-.41-.55-.69-.74h.82v-.89h-5.84v1Z"/>
    <rect class="st13" x="1139.13" y="440.53" width="18.9" height="111.72"/>
    <path d="M1154.58,446.81v-.95c-.52-.26-1.05-.7-1.61-1.32-.55-.62-1.02-1.34-1.41-2.17h-1.43c.17.46.42.98.76,1.56.34.58.68,1.05,1.02,1.4h-9.41v1.48h12.08ZM1144.19,451.52h-1.68v1.69h1.68v-1.69ZM1144.21,456.18c-.64.42-1.11,1-1.43,1.74-.32.74-.48,1.65-.48,2.74,0,.86.16,1.63.47,2.32.31.69.76,1.21,1.32,1.59.57.37,1.17.55,1.81.55s1.22-.17,1.71-.5c.49-.33.9-.85,1.23-1.56.22-.48.48-1.37.77-2.67.29-1.3.58-2.1.86-2.41.28-.31.63-.47,1.06-.47.5,0,.92.22,1.28.66.35.44.53,1.14.53,2.11s-.2,1.63-.58,2.1c-.39.47-.96.75-1.72.84l.12,1.53c.71-.03,1.34-.22,1.89-.59s.98-.89,1.27-1.58c.29-.68.43-1.47.43-2.37,0-.81-.14-1.55-.41-2.21-.27-.67-.67-1.17-1.2-1.51-.53-.35-1.09-.52-1.7-.52-.55,0-1.05.14-1.5.42-.44.29-.82.71-1.12,1.29-.23.45-.49,1.22-.75,2.33-.27,1.11-.46,1.82-.59,2.15-.19.5-.43.87-.71,1.09-.28.22-.61.33-.99.33s-.72-.12-1.03-.34c-.32-.23-.56-.58-.74-1.04-.18-.47-.27-1.01-.27-1.61,0-.69.12-1.31.36-1.85.24-.55.55-.96.93-1.22.39-.26.88-.43,1.48-.5l-.13-1.51c-.8.02-1.53.24-2.16.66M1142.51,473.2v1.55c.33-.19.68-.31,1.05-.37.36-.06,1.23-.1,2.6-.1h1.97c.66,0,1.11-.02,1.36-.07.41-.09.74-.24,1.01-.46.26-.22.48-.56.66-1.03.18-.47.27-1.07.27-1.82s-.1-1.41-.31-1.98c-.2-.57-.5-1.01-.88-1.31-.38-.3-.88-.52-1.5-.65l-.2,1.45c.62.16,1.05.4,1.29.74.24.33.36.85.36,1.54,0,.75-.17,1.31-.5,1.69-.25.28-.67.42-1.27.42-.05,0-.18,0-.38,0-.2-.56-.37-1.45-.51-2.64-.07-.59-.14-1.03-.22-1.32-.11-.39-.27-.75-.48-1.06-.21-.32-.5-.57-.85-.76-.35-.2-.74-.29-1.17-.29-.73,0-1.33.26-1.8.77-.46.52-.7,1.26-.7,2.22,0,.58.1,1.12.29,1.63.19.51.52,1.04.98,1.59-.41.05-.77.14-1.07.3M1146.34,472.78c-.65,0-1.14-.08-1.48-.24-.43-.21-.77-.54-1.02-.98-.25-.45-.37-.95-.37-1.52s.13-1.01.39-1.31c.26-.3.59-.45.98-.45.26,0,.49.07.7.21.21.14.37.33.48.59.11.25.21.68.3,1.29.15,1.07.34,1.88.56,2.42h-.54ZM1154.53,476.62h-12.02v1.48h12.02v-1.48ZM1151.22,480.9h-1.68v1.69h1.68v-1.69ZM1144.19,480.9h-1.68v1.69h1.68v-1.69ZM1153.79,496.2c.53-.61.79-1.38.79-2.33,0-1.27-.46-2.29-1.38-3.04-1.05-.86-2.74-1.29-5.07-1.29-2.08,0-3.57.39-4.48,1.17-.91.78-1.36,1.79-1.36,3.02,0,.73.17,1.37.51,1.94s.84,1.02,1.49,1.34c.65.33,1.35.49,2.1.49,1.15,0,2.08-.35,2.81-1.04.72-.69,1.08-1.54,1.08-2.52,0-.57-.13-1.11-.39-1.62-.26-.52-.66-.95-1.21-1.31,1.2,0,2.13.15,2.78.42.65.27,1.15.64,1.48,1.11.26.35.4.77.4,1.24,0,.59-.21,1.08-.63,1.48-.26.24-.69.43-1.27.56l.12,1.47c.94-.12,1.67-.49,2.2-1.09M1148.29,491.95c.48.46.72,1.03.72,1.7s-.24,1.23-.72,1.68c-.48.44-1.13.66-1.96.66s-1.55-.22-2.05-.67c-.5-.45-.76-.99-.76-1.61,0-.43.12-.84.37-1.23.24-.39.6-.69,1.06-.91.47-.22.95-.32,1.46-.32.78,0,1.4.23,1.88.7M1144.19,499.9h-1.68v1.69h1.68v-1.69ZM1142.51,508.97c0,.77.07,1.42.2,1.95.14.53.33.97.59,1.32.26.35.64.65,1.12.89.49.24,1.01.36,1.57.36.7,0,1.3-.19,1.82-.59.51-.39.88-.95,1.09-1.68.28.57.64.99,1.1,1.27s.94.42,1.45.42c.55,0,1.08-.16,1.59-.48.5-.32.88-.75,1.13-1.31.24-.56.36-1.3.36-2.22v-4.52h-12.02v4.6ZM1153.12,505.97v2.41c0,.87-.06,1.48-.17,1.84-.11.35-.32.63-.62.82-.31.19-.66.29-1.05.29-.42,0-.77-.1-1.05-.31-.28-.21-.48-.51-.6-.92-.09-.31-.14-.81-.14-1.52v-2.61h3.64ZM1148.06,505.97v2.79c0,.77-.07,1.36-.2,1.76-.13.41-.37.73-.7.96-.33.23-.72.35-1.17.35-.38,0-.72-.08-1.02-.24-.29-.16-.51-.36-.67-.61-.16-.25-.27-.55-.33-.92-.04-.21-.06-.57-.06-1.09v-3h4.13ZM1144.19,515.99h-1.68v1.69h1.68v-1.69ZM1154.58,525.51v-.95c-.52-.26-1.05-.7-1.61-1.32s-1.02-1.34-1.41-2.17h-1.43c.17.46.42.98.76,1.56.34.58.68,1.05,1.02,1.4h-9.41v1.48h12.08ZM1144.19,530.22h-1.68v1.69h1.68v-1.69ZM1154.58,539.73v-.95c-.52-.26-1.05-.7-1.61-1.32-.55-.62-1.02-1.34-1.41-2.17h-1.43c.17.46.42.98.76,1.56.34.58.68,1.05,1.02,1.4h-9.41v1.48h12.08Z"/>
    <path d="M1143.55,544.7c-.83.66-1.24,1.58-1.24,2.74,0,.88.23,1.61.71,2.19.47.58,1.14,1.01,2.01,1.31.87.29,2.01.43,3.42.43,1.19,0,2.14-.09,2.84-.27.7-.18,1.3-.43,1.79-.75.49-.32.86-.72,1.12-1.21s.39-1.05.39-1.7c0-.88-.24-1.61-.71-2.18-.47-.58-1.14-1.02-2.01-1.31-.87-.29-2.01-.44-3.43-.44-2.26,0-3.89.4-4.89,1.19M1152.5,545.79c.57.41.86.95.86,1.63s-.33,1.27-.98,1.73-1.96.69-3.95.69-3.28-.23-3.94-.69c-.66-.47-.99-1.04-.99-1.72s.33-1.25.98-1.72c.65-.46,1.97-.69,3.94-.69s3.33.25,4.06.76"/>
    <rect class="st13" x="1117.19" y="440.53" width="18.9" height="111.72"/>
    <path d="M1121.99,443.1c.27.17.53.38.8.62.26.25.77.83,1.51,1.71.9,1.06,1.6,1.83,2.12,2.28.51.46,1,.79,1.47.98.46.2.94.3,1.42.3.95,0,1.74-.34,2.38-1.01.64-.68.96-1.59.96-2.75s-.3-2.06-.89-2.74c-.59-.68-1.45-1.07-2.59-1.18l-.16,1.52c.76,0,1.35.22,1.77.65.43.43.64,1,.64,1.71,0,.67-.2,1.22-.6,1.64-.4.42-.9.63-1.48.63-.55,0-1.15-.23-1.78-.69-.62-.46-1.47-1.34-2.55-2.66-.69-.85-1.3-1.49-1.82-1.94-.52-.45-1.06-.77-1.6-.97-.33-.13-.67-.19-1.03-.18v7.98h1.42v-5.92ZM1122.25,451.52h-1.68v1.69h1.68v-1.69ZM1122.27,456.18c-.64.42-1.11,1-1.43,1.74-.32.74-.48,1.65-.48,2.74,0,.86.16,1.63.47,2.32.31.69.76,1.21,1.32,1.59.57.37,1.17.55,1.81.55s1.22-.17,1.71-.5c.49-.33.9-.85,1.22-1.56.22-.48.48-1.37.77-2.67.29-1.3.58-2.1.86-2.41.28-.31.63-.47,1.06-.47.5,0,.92.22,1.28.66.36.44.53,1.14.53,2.11s-.19,1.63-.58,2.1c-.39.47-.96.75-1.72.84l.11,1.53c.7-.03,1.34-.22,1.89-.59s.98-.89,1.27-1.58c.29-.68.43-1.47.43-2.37,0-.81-.14-1.55-.41-2.21-.27-.67-.67-1.17-1.2-1.51-.53-.35-1.1-.52-1.71-.52-.55,0-1.05.14-1.5.42-.44.29-.82.71-1.12,1.29-.23.45-.49,1.22-.75,2.33-.27,1.11-.46,1.82-.59,2.15-.19.5-.43.87-.71,1.09-.28.22-.61.33-.99.33s-.72-.12-1.03-.34c-.32-.23-.56-.58-.74-1.04-.18-.47-.27-1.01-.27-1.61,0-.69.12-1.31.36-1.85.24-.55.55-.96.94-1.22.38-.26.88-.43,1.48-.5l-.13-1.51c-.81.02-1.53.24-2.16.66M1120.57,473.2v1.55c.33-.19.68-.31,1.05-.37.36-.06,1.23-.1,2.6-.1h1.97c.66,0,1.11-.02,1.36-.07.41-.09.74-.24,1.01-.46.26-.22.48-.56.66-1.03.18-.47.27-1.07.27-1.82s-.1-1.41-.31-1.98c-.2-.57-.5-1.01-.88-1.31-.38-.3-.88-.52-1.5-.65l-.2,1.45c.62.16,1.05.4,1.29.74.24.33.36.85.36,1.54,0,.75-.17,1.31-.5,1.69-.25.28-.67.42-1.27.42-.05,0-.18,0-.38,0-.2-.56-.37-1.45-.51-2.64-.07-.59-.14-1.03-.22-1.32-.11-.39-.27-.75-.48-1.06-.21-.32-.5-.57-.85-.76-.35-.2-.74-.29-1.17-.29-.73,0-1.32.26-1.8.77-.46.52-.7,1.26-.7,2.22,0,.58.1,1.12.29,1.63.19.51.52,1.04.98,1.59-.41.05-.77.14-1.07.3M1124.4,472.78c-.65,0-1.14-.08-1.48-.24-.44-.21-.77-.54-1.02-.98-.25-.45-.37-.95-.37-1.52s.13-1.01.39-1.31c.26-.3.59-.45.98-.45.26,0,.49.07.7.21.21.14.37.33.48.59.11.25.21.68.3,1.29.15,1.07.34,1.88.56,2.42h-.54ZM1132.59,476.62h-12.03v1.48h12.03v-1.48ZM1129.28,480.9h-1.68v1.69h1.68v-1.69ZM1122.25,480.9h-1.68v1.69h1.68v-1.69ZM1131.85,496.2c.53-.61.79-1.38.79-2.33,0-1.27-.46-2.29-1.38-3.04-1.05-.86-2.74-1.29-5.07-1.29-2.08,0-3.57.39-4.48,1.17-.91.78-1.36,1.79-1.36,3.02,0,.73.17,1.37.51,1.94s.84,1.02,1.49,1.34c.65.33,1.35.49,2.1.49,1.15,0,2.08-.35,2.81-1.04.72-.69,1.08-1.54,1.08-2.52,0-.57-.13-1.11-.39-1.62-.26-.52-.66-.95-1.2-1.31,1.2,0,2.13.15,2.78.42.65.27,1.15.64,1.48,1.11.26.35.4.77.4,1.24,0,.59-.21,1.08-.63,1.48-.26.24-.68.43-1.26.56l.11,1.47c.94-.12,1.67-.49,2.2-1.09M1126.35,491.95c.48.46.72,1.03.72,1.7s-.24,1.23-.72,1.68c-.48.44-1.13.66-1.96.66s-1.55-.22-2.05-.67c-.5-.45-.76-.99-.76-1.61,0-.43.12-.84.37-1.23.24-.39.6-.69,1.06-.91.47-.22.95-.32,1.46-.32.77,0,1.4.23,1.88.7M1122.25,499.9h-1.68v1.69h1.68v-1.69ZM1120.57,508.97c0,.77.07,1.42.2,1.95.14.53.33.97.59,1.32.26.35.64.65,1.12.89.49.24,1.01.36,1.57.36.7,0,1.31-.19,1.82-.59.51-.39.88-.95,1.09-1.68.28.57.64.99,1.1,1.27s.94.42,1.45.42c.55,0,1.08-.16,1.59-.48.5-.32.88-.75,1.13-1.31.24-.56.36-1.3.36-2.22v-4.52h-12.02v4.6ZM1131.18,505.97v2.41c0,.87-.06,1.48-.17,1.84-.11.35-.32.63-.62.82-.31.19-.66.29-1.05.29-.42,0-.77-.1-1.05-.31-.28-.21-.48-.51-.6-.92-.09-.31-.14-.81-.14-1.52v-2.61h3.64ZM1126.12,505.97v2.79c0,.77-.07,1.36-.2,1.76-.13.41-.37.73-.7.96-.33.23-.72.35-1.17.35-.38,0-.72-.08-1.01-.24-.29-.16-.51-.36-.67-.61-.16-.25-.27-.55-.33-.92-.04-.21-.06-.57-.06-1.09v-3h4.13ZM1122.25,515.99h-1.68v1.69h1.68v-1.69ZM1121.99,521.8c.27.16.53.37.8.62.26.25.77.82,1.51,1.71.9,1.06,1.6,1.82,2.12,2.28.51.46,1,.79,1.47.98.46.2.94.3,1.42.3.95,0,1.74-.34,2.38-1.01.64-.68.96-1.59.96-2.75s-.3-2.06-.89-2.74c-.59-.68-1.45-1.07-2.59-1.18l-.16,1.52c.76,0,1.35.22,1.77.65.43.43.64,1,.64,1.71,0,.67-.2,1.22-.6,1.64-.4.42-.9.63-1.48.63-.55,0-1.15-.23-1.78-.69-.62-.46-1.47-1.35-2.55-2.66-.69-.85-1.3-1.49-1.82-1.94-.52-.45-1.06-.77-1.6-.97-.33-.13-.67-.19-1.03-.17v7.97h1.42v-5.92ZM1122.25,530.22h-1.68v1.69h1.68v-1.69ZM1132.64,539.73v-.95c-.52-.26-1.05-.7-1.61-1.32-.55-.62-1.02-1.34-1.41-2.17h-1.43c.17.46.42.98.76,1.56.34.58.68,1.05,1.02,1.4h-9.41v1.48h12.08Z"/>
    <path d="M1121.61,544.7c-.83.66-1.25,1.58-1.25,2.74,0,.88.24,1.61.71,2.19.47.58,1.14,1.01,2.01,1.31.87.29,2.01.43,3.42.43,1.19,0,2.14-.09,2.85-.27.7-.18,1.3-.43,1.79-.75.49-.32.86-.72,1.12-1.21.26-.49.39-1.05.39-1.7,0-.88-.23-1.61-.7-2.18-.47-.58-1.14-1.02-2.01-1.31-.87-.29-2.01-.44-3.44-.44-2.26,0-3.89.4-4.89,1.19M1130.56,545.79c.57.41.86.95.86,1.63s-.33,1.27-.98,1.73-1.96.69-3.95.69-3.28-.23-3.93-.69c-.66-.47-.99-1.04-.99-1.72s.33-1.25.98-1.72c.65-.46,1.97-.69,3.94-.69s3.33.25,4.06.76"/>
    <rect class="st13" x="1096.27" y="440.53" width="18.9" height="111.72"/>
    <path d="M1100.37,442.44c-.63.7-.94,1.58-.94,2.64,0,1.18.36,2.15,1.1,2.92.73.77,1.62,1.15,2.67,1.15.78,0,1.42-.2,1.94-.59.52-.4.86-.95,1.02-1.66.25.55.59.96,1.02,1.24.43.28.9.42,1.42.42.55,0,1.06-.15,1.55-.44.49-.3.87-.72,1.15-1.27.28-.56.42-1.16.42-1.82,0-.95-.27-1.75-.81-2.4-.55-.64-1.31-1.05-2.3-1.23l-.26,1.48c.72.11,1.26.35,1.62.74.36.38.54.86.54,1.44s-.18,1.05-.53,1.42c-.36.37-.81.55-1.35.55-.68,0-1.19-.25-1.52-.76-.33-.5-.49-1.07-.49-1.7,0-.06,0-.14.02-.24l-1.3-.17c.11.42.16.76.16,1.04,0,.68-.22,1.25-.66,1.7-.44.44-1,.67-1.68.67s-1.31-.24-1.79-.72c-.48-.48-.72-1.07-.72-1.76,0-.59.18-1.08.55-1.49.37-.41.97-.7,1.81-.87l-.2-1.48c-1,.1-1.82.5-2.45,1.2M1101.32,451.52h-1.68v1.69h1.68v-1.69ZM1101.34,456.18c-.64.42-1.11,1-1.43,1.74-.32.74-.48,1.65-.48,2.74,0,.86.16,1.63.47,2.32.31.69.76,1.21,1.32,1.59.57.37,1.17.55,1.81.55s1.22-.17,1.71-.5c.49-.33.9-.85,1.22-1.56.22-.48.48-1.37.77-2.67.29-1.3.58-2.1.86-2.41.28-.31.63-.47,1.06-.47.5,0,.92.22,1.28.66.36.44.53,1.14.53,2.11s-.19,1.63-.58,2.1c-.39.47-.96.75-1.72.84l.12,1.53c.7-.03,1.34-.22,1.89-.59s.98-.89,1.27-1.58c.29-.68.43-1.47.43-2.37,0-.81-.14-1.55-.41-2.21-.27-.67-.67-1.17-1.2-1.51-.53-.35-1.1-.52-1.71-.52-.55,0-1.05.14-1.5.42-.44.29-.82.71-1.12,1.29-.23.45-.49,1.22-.75,2.33-.27,1.11-.46,1.82-.59,2.15-.19.5-.43.87-.71,1.09-.28.22-.61.33-.99.33s-.72-.12-1.03-.34c-.32-.23-.56-.58-.74-1.04-.18-.47-.27-1.01-.27-1.61,0-.69.12-1.31.36-1.85.24-.55.55-.96.93-1.22.39-.26.88-.43,1.48-.5l-.13-1.51c-.81.02-1.53.24-2.16.66M1099.64,473.2v1.55c.33-.19.68-.31,1.05-.37.36-.06,1.23-.1,2.6-.1h1.97c.66,0,1.11-.02,1.36-.07.41-.09.74-.24,1.01-.46.26-.22.48-.56.66-1.03.18-.47.27-1.07.27-1.82s-.1-1.41-.31-1.98c-.2-.57-.5-1.01-.88-1.31-.38-.3-.88-.52-1.5-.65l-.2,1.45c.62.16,1.05.4,1.29.74.24.33.36.85.36,1.54,0,.75-.17,1.31-.5,1.69-.25.28-.67.42-1.27.42-.05,0-.18,0-.38,0-.2-.56-.37-1.45-.51-2.64-.07-.59-.14-1.03-.22-1.32-.11-.39-.27-.75-.48-1.06-.21-.32-.5-.57-.85-.76-.35-.2-.74-.29-1.17-.29-.73,0-1.33.26-1.8.77-.46.52-.7,1.26-.7,2.22,0,.58.1,1.12.29,1.63.19.51.52,1.04.98,1.59-.41.05-.77.14-1.07.3M1103.47,472.78c-.65,0-1.14-.08-1.48-.24-.44-.21-.77-.54-1.02-.98-.25-.45-.37-.95-.37-1.52s.13-1.01.39-1.31c.26-.3.59-.45.98-.45.26,0,.49.07.7.21.21.14.37.33.48.59.11.25.21.68.3,1.29.15,1.07.34,1.88.56,2.42h-.54ZM1111.67,476.62h-12.02v1.48h12.02v-1.48ZM1108.35,480.9h-1.68v1.69h1.68v-1.69ZM1101.32,480.9h-1.68v1.69h1.68v-1.69ZM1110.92,496.2c.53-.61.79-1.38.79-2.33,0-1.27-.46-2.29-1.38-3.04-1.05-.86-2.74-1.29-5.07-1.29-2.08,0-3.57.39-4.48,1.17-.91.78-1.36,1.79-1.36,3.02,0,.73.17,1.37.51,1.94s.84,1.02,1.49,1.34c.65.33,1.35.49,2.1.49,1.15,0,2.08-.35,2.81-1.04.72-.69,1.08-1.54,1.08-2.52,0-.57-.13-1.11-.39-1.62-.26-.52-.66-.95-1.21-1.31,1.2,0,2.13.15,2.78.42.65.27,1.15.64,1.48,1.11.26.35.39.77.39,1.24,0,.59-.21,1.08-.63,1.48-.26.24-.69.43-1.27.56l.12,1.47c.94-.12,1.67-.49,2.2-1.09M1105.42,491.95c.48.46.72,1.03.72,1.7s-.24,1.23-.72,1.68c-.48.44-1.13.66-1.96.66s-1.55-.22-2.05-.67c-.5-.45-.76-.99-.76-1.61,0-.43.12-.84.37-1.23.24-.39.6-.69,1.06-.91.47-.22.95-.32,1.46-.32.77,0,1.4.23,1.88.7M1101.32,499.9h-1.68v1.69h1.68v-1.69ZM1099.64,508.97c0,.77.07,1.42.2,1.95.14.53.33.97.59,1.32.26.35.64.65,1.12.89.49.24,1.01.36,1.57.36.7,0,1.31-.19,1.82-.59.51-.39.88-.95,1.09-1.68.28.57.64.99,1.1,1.27s.94.42,1.45.42c.55,0,1.08-.16,1.59-.48.5-.32.88-.75,1.13-1.31.24-.56.36-1.3.36-2.22v-4.52h-12.02v4.6ZM1110.25,505.97v2.41c0,.87-.06,1.48-.17,1.84-.11.35-.32.63-.62.82-.31.19-.66.29-1.05.29-.42,0-.77-.1-1.05-.31-.28-.21-.48-.51-.6-.92-.09-.31-.14-.81-.14-1.52v-2.61h3.64ZM1105.19,505.97v2.79c0,.77-.07,1.36-.2,1.76-.13.41-.37.73-.7.96-.33.23-.72.35-1.17.35-.38,0-.72-.08-1.01-.24-.29-.16-.51-.36-.67-.61-.16-.25-.27-.55-.33-.92-.04-.21-.06-.57-.06-1.09v-3h4.13ZM1101.32,515.99h-1.68v1.69h1.68v-1.69ZM1100.37,521.13c-.63.7-.94,1.58-.94,2.64,0,1.18.36,2.15,1.1,2.92.73.77,1.62,1.15,2.67,1.15.78,0,1.42-.2,1.94-.59.52-.4.86-.95,1.02-1.67.25.55.59.96,1.02,1.24s.9.42,1.42.42c.55,0,1.06-.15,1.55-.44.49-.29.87-.72,1.15-1.27.28-.55.42-1.16.42-1.82,0-.96-.27-1.75-.81-2.4-.55-.64-1.31-1.05-2.3-1.23l-.26,1.48c.72.11,1.26.35,1.62.74.36.38.54.87.54,1.44s-.18,1.05-.53,1.42c-.36.37-.81.55-1.35.55-.68,0-1.19-.25-1.52-.76-.33-.5-.49-1.07-.49-1.7,0-.06,0-.14.02-.24l-1.3-.17c.11.42.16.76.16,1.05,0,.68-.22,1.25-.66,1.7-.44.44-1,.66-1.68.66s-1.31-.24-1.79-.72c-.48-.48-.72-1.07-.72-1.76,0-.59.18-1.09.55-1.49.37-.41.97-.7,1.81-.87l-.2-1.48c-1,.1-1.82.5-2.45,1.2M1101.32,530.22h-1.68v1.69h1.68v-1.69ZM1111.72,539.73v-.95c-.52-.26-1.05-.7-1.61-1.32-.55-.62-1.02-1.34-1.41-2.17h-1.43c.17.46.42.98.76,1.56.34.58.68,1.05,1.02,1.4h-9.41v1.48h12.08Z"/>
    <path d="M1100.68,544.7c-.83.66-1.25,1.58-1.25,2.74,0,.88.23,1.61.71,2.19.47.58,1.14,1.01,2.01,1.31.87.29,2.01.43,3.42.43,1.19,0,2.14-.09,2.85-.27.7-.18,1.3-.43,1.79-.75.49-.32.86-.72,1.12-1.21.26-.49.39-1.05.39-1.7,0-.88-.23-1.61-.7-2.18-.47-.58-1.14-1.02-2.01-1.31-.87-.29-2.01-.44-3.44-.44-2.26,0-3.89.4-4.89,1.19M1109.63,545.79c.57.41.86.95.86,1.63s-.33,1.27-.98,1.73c-.65.47-1.97.69-3.95.69s-3.28-.23-3.93-.69c-.66-.47-.99-1.04-.99-1.72s.33-1.25.98-1.72c.65-.46,1.97-.69,3.94-.69s3.33.25,4.06.76"/>
    <rect class="st13" x="1076.01" y="440.53" width="18.9" height="111.72"/>
    <path d="M1079.39,447.46h2.88v1.63h1.35v-1.63h7.79v-1.21l-7.79-5.5h-1.35v5.23h-2.88v1.48ZM1083.62,442.21l5.42,3.78h-5.42v-3.78ZM1081.07,451.52h-1.68v1.69h1.68v-1.69ZM1081.09,456.18c-.64.42-1.11,1-1.43,1.74-.32.74-.48,1.65-.48,2.74,0,.86.16,1.63.47,2.32.31.69.75,1.21,1.32,1.59.57.37,1.17.55,1.81.55s1.22-.17,1.71-.5c.49-.33.9-.85,1.22-1.56.22-.48.48-1.37.77-2.67.29-1.3.58-2.1.86-2.41.28-.31.63-.47,1.06-.47.5,0,.92.22,1.28.66.36.44.53,1.14.53,2.11s-.2,1.63-.59,2.1c-.39.47-.96.75-1.72.84l.11,1.53c.7-.03,1.34-.22,1.89-.59s.98-.89,1.27-1.58c.29-.68.43-1.47.43-2.37,0-.81-.14-1.55-.41-2.21-.27-.67-.67-1.17-1.2-1.51-.53-.35-1.1-.52-1.71-.52-.55,0-1.05.14-1.5.42-.44.29-.82.71-1.12,1.29-.23.45-.49,1.22-.75,2.33-.27,1.11-.46,1.82-.59,2.15-.19.5-.43.87-.71,1.09-.28.22-.61.33-.99.33s-.72-.12-1.03-.34c-.32-.23-.56-.58-.74-1.04-.18-.47-.27-1.01-.27-1.61,0-.69.12-1.31.36-1.85.24-.55.55-.96.94-1.22.38-.26.88-.43,1.48-.5l-.13-1.51c-.81.02-1.53.24-2.16.66M1079.39,473.2v1.55c.33-.19.68-.31,1.05-.37.36-.06,1.23-.1,2.6-.1h1.97c.65,0,1.11-.02,1.36-.07.41-.09.74-.24,1.01-.46.26-.22.48-.56.66-1.03.18-.47.27-1.07.27-1.82s-.1-1.41-.31-1.98c-.2-.57-.5-1.01-.88-1.31-.38-.3-.88-.52-1.5-.65l-.2,1.45c.62.16,1.05.4,1.29.74.24.33.36.85.36,1.54,0,.75-.17,1.31-.5,1.69-.25.28-.67.42-1.27.42-.06,0-.19,0-.39,0-.2-.56-.36-1.45-.51-2.64-.07-.59-.14-1.03-.22-1.32-.11-.39-.27-.75-.48-1.06-.21-.32-.5-.57-.85-.76-.35-.2-.74-.29-1.17-.29-.73,0-1.32.26-1.8.77-.46.52-.7,1.26-.7,2.22,0,.58.1,1.12.29,1.63.19.51.52,1.04.98,1.59-.41.05-.77.14-1.07.3M1083.22,472.78c-.65,0-1.14-.08-1.48-.24-.43-.21-.77-.54-1.02-.98-.25-.45-.37-.95-.37-1.52s.13-1.01.39-1.31c.26-.3.59-.45.98-.45.26,0,.49.07.7.21.21.14.37.33.48.59.11.25.21.68.3,1.29.15,1.07.34,1.88.56,2.42h-.54ZM1091.41,476.62h-12.03v1.48h12.03v-1.48ZM1088.1,480.9h-1.68v1.69h1.68v-1.69ZM1081.07,480.9h-1.68v1.69h1.68v-1.69ZM1090.67,496.2c.53-.61.79-1.38.79-2.33,0-1.27-.46-2.29-1.38-3.04-1.05-.86-2.74-1.29-5.07-1.29-2.08,0-3.57.39-4.48,1.17-.9.78-1.36,1.79-1.36,3.02,0,.73.17,1.37.51,1.94.35.57.84,1.02,1.49,1.34.65.33,1.35.49,2.1.49,1.15,0,2.08-.35,2.81-1.04.72-.69,1.08-1.54,1.08-2.52,0-.57-.13-1.11-.39-1.62-.26-.52-.66-.95-1.2-1.31,1.2,0,2.13.15,2.78.42.65.27,1.15.64,1.48,1.11.26.35.4.77.4,1.24,0,.59-.21,1.08-.63,1.48-.26.24-.68.43-1.26.56l.11,1.47c.94-.12,1.67-.49,2.2-1.09M1085.17,491.95c.48.46.72,1.03.72,1.7s-.24,1.23-.72,1.68c-.48.44-1.13.66-1.96.66s-1.55-.22-2.05-.67c-.5-.45-.76-.99-.76-1.61,0-.43.12-.84.37-1.23.24-.39.6-.69,1.06-.91.47-.22.95-.32,1.46-.32.77,0,1.4.23,1.88.7M1081.07,499.9h-1.68v1.69h1.68v-1.69ZM1079.39,508.97c0,.77.07,1.42.2,1.95.14.53.33.97.59,1.32.26.35.64.65,1.12.89.49.24,1.01.36,1.57.36.7,0,1.31-.19,1.82-.59.51-.39.88-.95,1.09-1.68.28.57.64.99,1.1,1.27s.94.42,1.45.42c.55,0,1.08-.16,1.59-.48.5-.32.88-.75,1.13-1.31.24-.56.36-1.3.36-2.22v-4.52h-12.02v4.6ZM1090,505.97v2.41c0,.87-.06,1.48-.17,1.84-.11.35-.32.63-.62.82-.31.19-.66.29-1.05.29-.42,0-.77-.1-1.05-.31-.28-.21-.48-.51-.6-.92-.09-.31-.14-.81-.14-1.52v-2.61h3.64ZM1084.94,505.97v2.79c0,.77-.07,1.36-.2,1.76-.13.41-.37.73-.7.96-.33.23-.72.35-1.17.35-.38,0-.72-.08-1.01-.24-.29-.16-.51-.36-.67-.61-.16-.25-.27-.55-.33-.92-.04-.21-.06-.57-.06-1.09v-3h4.13ZM1081.07,515.99h-1.68v1.69h1.68v-1.69ZM1079.39,526.16h2.88v1.63h1.35v-1.63h7.79v-1.21l-7.79-5.5h-1.35v5.23h-2.88v1.48ZM1083.62,520.9l5.42,3.78h-5.42v-3.78ZM1081.07,530.22h-1.68v1.69h1.68v-1.69ZM1091.46,539.73v-.95c-.52-.26-1.05-.7-1.61-1.32-.55-.62-1.02-1.34-1.41-2.17h-1.43c.17.46.42.98.76,1.56.34.58.68,1.05,1.02,1.4h-9.41v1.48h12.08Z"/>
    <path d="M1080.43,544.7c-.83.66-1.24,1.58-1.24,2.74,0,.88.23,1.61.71,2.19.47.58,1.14,1.01,2.01,1.31.87.29,2.01.43,3.42.43,1.19,0,2.14-.09,2.85-.27.7-.18,1.3-.43,1.79-.75.49-.32.86-.72,1.12-1.21.26-.49.39-1.05.39-1.7,0-.88-.23-1.61-.7-2.18-.47-.58-1.14-1.02-2.01-1.31-.87-.29-2.01-.44-3.44-.44-2.26,0-3.89.4-4.89,1.19M1089.38,545.79c.57.41.86.95.86,1.63s-.33,1.27-.98,1.73-1.96.69-3.95.69-3.28-.23-3.93-.69c-.66-.47-.99-1.04-.99-1.72s.33-1.25.98-1.72c.65-.46,1.97-.69,3.94-.69s3.33.25,4.06.76"/>
    <line class="st3" x1="743.21" y1="921.51" x2="623.39" y2="973.16"/>
    <line class="st3" x1="623.39" y1="921.51" x2="743.21" y2="973.16"/>
  </g>
</svg>