<?xml version="1.0" encoding="UTF-8"?>
<svg xmlns="http://www.w3.org/2000/svg" version="1.1" viewBox="0 0 1200 1697.14">
  <!-- Generator: Adobe Illustrator 29.6.0, SVG Export Plug-In . SVG Version: 2.1.1 Build 207)  -->
  <defs>
    <style>
      .st0, .st1 {
        stroke: #0d101f;
      }

      .st0, .st1, .st2, .st3 {
        stroke-linecap: round;
        stroke-linejoin: round;
        stroke-width: .15px;
      }

      .st0, .st4 {
        fill: #fff;
      }

      .st1, .st2, .st3 {
        fill: none;
      }

      .st5 {
        fill: #383037;
      }

      .st2 {
        stroke: #1d1d1b;
      }

      .st3 {
        stroke: #11100e;
      }

      .st6 {
        fill: #f2efed;
      }
    </style>
  </defs>
  <g id="sfondo">
    <g>
      <path class="st6" d="M790.2,1113.15v17.11l-10.81,10.81h-167.51v-97.27h-169.76v-431.83h-.9v-100.87h90.51v40.08h-50.44v91.86h-22.51v211.19h158.95v54.48h-6.3v-10.35h-152.65v139.14h152.65v-53.59h6.3v150.85h155.35v-22.51h17.12v.9ZM611.43,892.95v-33.77h-152.65v33.77h152.65Z"/>
      <polygon class="st6" points="790.2 1028.49 790.2 1112.25 773.08 1112.25 773.08 1134.76 617.73 1134.76 617.73 1037.5 617.73 984.82 617.73 983.91 611.43 983.91 611.43 984.82 611.43 1037.5 458.78 1037.5 458.78 898.36 611.43 898.36 611.43 907.36 611.43 908.71 617.73 908.71 617.73 907.36 617.73 892.95 617.73 892.05 617.73 860.08 617.73 859.18 617.73 854.23 611.43 854.23 458.78 854.23 458.78 643.04 481.29 643.04 481.29 551.18 531.73 551.18 531.73 520.11 531.73 511.1 716.8 511.1 716.8 520.11 716.8 551.18 773.08 551.18 773.08 1028.49 790.2 1028.49"/>
      <polygon class="st6" points="790.2 1027.14 790.2 1028.49 773.08 1028.49 773.08 551.18 716.8 551.18 716.8 520.11 716.8 511.1 781.64 511.1 781.64 1009.58 790.2 1018.14 790.2 1027.14"/>
      <rect class="st6" x="458.78" y="859.18" width="152.65" height="33.77"/>
    </g>
  </g>
  <g id="letto">
    <g>
      <g>
        <polygon class="st4" points="460.55 682.98 460.55 682.54 538.06 682.54 538.06 830.82 537.08 830.33 537.08 682.98 460.55 682.98"/>
        <path class="st4" d="M460.55,792.46v-109.48h76.53v147.35l-17.01-8.41c-7.31-3.62-13.36-6.61-18.37-9.09l-2.63-1.3c-5.59-2.77-9.73-4.82-12.79-6.34l-1.16-.57-7.56-3.74-17.01-8.42Z"/>
        <path class="st4" d="M460.55,853.06v-60.6l17.01,8.42v30.18c0,1.94,1.56,3.51,3.5,3.51h35.51c1.94,0,3.5-1.57,3.5-3.51v-9.14l17.01,8.41v22.73h-76.53Z"/>
        <path class="st4" d="M477.56,831.06v-30.18l7.56,3.74c.37.19.75.38,1.16.57,3.06,1.52,7.2,3.57,12.79,6.34.85.41,1.72.85,2.63,1.3,5.01,2.48,11.06,5.47,18.37,9.09v9.14c0,1.94-1.56,3.51-3.5,3.51h-35.51c-1.94,0-3.5-1.57-3.5-3.51Z"/>
      </g>
      <g>
        <polyline class="st1" points="537.08 830.33 537.08 853.06 460.55 853.06 460.55 792.46"/>
        <polyline class="st1" points="520.07 821.92 537.08 830.33 538.06 830.82 538.06 682.54 460.55 682.54 460.55 682.98 460.55 792.46 477.56 800.88"/>
        <line class="st1" x1="499.07" y1="811.53" x2="501.7" y2="812.83"/>
        <line class="st1" x1="485.12" y1="804.62" x2="486.28" y2="805.19"/>
        <line class="st1" x1="516.57" y1="834.57" x2="481.06" y2="834.57"/>
        <path class="st1" d="M481.06,834.57c-1.94,0-3.5-1.57-3.5-3.51"/>
        <path class="st1" d="M520.07,831.06c0,1.94-1.56,3.51-3.5,3.51"/>
        <path class="st1" d="M520.07,831.06v-9.14c-7.31-3.62-13.36-6.61-18.37-9.09-.91-.45-1.78-.89-2.63-1.3-5.59-2.77-9.73-4.82-12.79-6.34-.41-.19-.79-.38-1.16-.57l-7.56-3.74v30.18"/>
      </g>
    </g>
    <g>
      <g>
        <rect class="st4" x="618.26" y="1020.85" width="55.54" height="55.15" transform="translate(1694.46 402.4) rotate(90)"/>
        <line class="st3" x1="673.61" y1="1076.19" x2="673.61" y2="1074.63"/>
        <line class="st3" x1="673.61" y1="1071.89" x2="673.61" y2="1069.15"/>
        <line class="st3" x1="673.61" y1="1066.42" x2="673.61" y2="1063.68"/>
        <line class="st3" x1="673.61" y1="1060.94" x2="673.61" y2="1058.2"/>
        <line class="st3" x1="673.61" y1="1055.46" x2="673.61" y2="1052.73"/>
        <line class="st3" x1="673.61" y1="1049.99" x2="673.61" y2="1046.86"/>
        <line class="st3" x1="673.61" y1="1044.12" x2="673.61" y2="1041.38"/>
        <line class="st3" x1="673.61" y1="1038.64" x2="673.61" y2="1035.91"/>
        <line class="st3" x1="673.61" y1="1033.17" x2="673.61" y2="1030.43"/>
        <line class="st3" x1="673.61" y1="1027.69" x2="673.61" y2="1024.96"/>
        <line class="st3" x1="673.61" y1="1022.22" x2="673.61" y2="1020.65"/>
        <line class="st3" x1="673.61" y1="1020.65" x2="672.44" y2="1020.65"/>
        <line class="st3" x1="669.7" y1="1020.65" x2="666.96" y2="1020.65"/>
        <line class="st3" x1="663.83" y1="1020.65" x2="661.09" y2="1020.65"/>
        <line class="st3" x1="658.36" y1="1020.65" x2="655.62" y2="1020.65"/>
        <line class="st3" x1="652.88" y1="1020.65" x2="650.14" y2="1020.65"/>
        <line class="st3" x1="647.4" y1="1020.65" x2="644.67" y2="1020.65"/>
        <line class="st3" x1="641.93" y1="1020.65" x2="639.19" y2="1020.65"/>
        <line class="st3" x1="636.45" y1="1020.65" x2="633.32" y2="1020.65"/>
        <line class="st3" x1="630.58" y1="1020.65" x2="627.85" y2="1020.65"/>
        <line class="st3" x1="625.11" y1="1020.65" x2="622.37" y2="1020.65"/>
        <line class="st3" x1="619.63" y1="1020.65" x2="618.46" y2="1020.65"/>
        <path class="st3" d="M673.61,1076.19"/>
      </g>
      <g>
        <rect class="st4" x="618.26" y="1076.39" width="55.54" height="55.15" transform="translate(1750 457.94) rotate(90)"/>
        <line class="st3" x1="618.46" y1="1131.73" x2="619.63" y2="1131.73"/>
        <line class="st3" x1="622.37" y1="1131.73" x2="625.11" y2="1131.73"/>
        <line class="st3" x1="627.85" y1="1131.73" x2="630.58" y2="1131.73"/>
        <line class="st3" x1="633.32" y1="1131.73" x2="636.45" y2="1131.73"/>
        <line class="st3" x1="639.19" y1="1131.73" x2="641.93" y2="1131.73"/>
        <line class="st3" x1="644.66" y1="1131.73" x2="647.4" y2="1131.73"/>
        <line class="st3" x1="650.14" y1="1131.73" x2="652.88" y2="1131.73"/>
        <line class="st3" x1="655.62" y1="1131.73" x2="658.35" y2="1131.73"/>
        <line class="st3" x1="661.09" y1="1131.73" x2="663.83" y2="1131.73"/>
        <line class="st3" x1="666.96" y1="1131.73" x2="669.7" y2="1131.73"/>
        <line class="st3" x1="672.44" y1="1131.73" x2="673.61" y2="1131.73"/>
        <line class="st3" x1="673.61" y1="1131.73" x2="673.61" y2="1130.17"/>
        <line class="st3" x1="673.61" y1="1127.43" x2="673.61" y2="1124.69"/>
        <line class="st3" x1="673.61" y1="1121.96" x2="673.61" y2="1119.22"/>
        <line class="st3" x1="673.61" y1="1116.48" x2="673.61" y2="1113.74"/>
        <line class="st3" x1="673.61" y1="1111" x2="673.61" y2="1108.27"/>
        <line class="st3" x1="673.61" y1="1105.53" x2="673.61" y2="1102.4"/>
        <line class="st3" x1="673.61" y1="1099.66" x2="673.61" y2="1096.92"/>
        <line class="st3" x1="673.61" y1="1094.19" x2="673.61" y2="1091.45"/>
        <line class="st3" x1="673.61" y1="1088.71" x2="673.61" y2="1085.97"/>
        <line class="st3" x1="673.61" y1="1083.23" x2="673.61" y2="1080.5"/>
        <line class="st3" x1="673.61" y1="1077.76" x2="673.61" y2="1076.19"/>
        <line class="st3" x1="673.61" y1="1076.19" x2="672.44" y2="1076.19"/>
        <line class="st3" x1="669.7" y1="1076.19" x2="666.96" y2="1076.19"/>
        <line class="st3" x1="663.83" y1="1076.19" x2="661.09" y2="1076.19"/>
        <line class="st3" x1="658.35" y1="1076.19" x2="655.62" y2="1076.19"/>
        <line class="st3" x1="652.88" y1="1076.19" x2="650.14" y2="1076.19"/>
        <line class="st3" x1="647.4" y1="1076.19" x2="644.66" y2="1076.19"/>
        <line class="st3" x1="641.93" y1="1076.19" x2="639.19" y2="1076.19"/>
        <line class="st3" x1="636.45" y1="1076.19" x2="633.32" y2="1076.19"/>
        <line class="st3" x1="630.58" y1="1076.19" x2="627.85" y2="1076.19"/>
        <line class="st3" x1="625.11" y1="1076.19" x2="622.37" y2="1076.19"/>
        <line class="st3" x1="619.63" y1="1076.19" x2="618.46" y2="1076.19"/>
        <path class="st3" d="M673.61,1131.73"/>
        <line class="st3" x1="673.61" y1="1131.73" x2="672.44" y2="1131.73"/>
        <line class="st3" x1="669.7" y1="1131.73" x2="666.96" y2="1131.73"/>
        <line class="st3" x1="663.83" y1="1131.73" x2="661.09" y2="1131.73"/>
        <line class="st3" x1="658.35" y1="1131.73" x2="655.62" y2="1131.73"/>
        <line class="st3" x1="652.88" y1="1131.73" x2="650.14" y2="1131.73"/>
        <line class="st3" x1="647.4" y1="1131.73" x2="644.66" y2="1131.73"/>
        <line class="st3" x1="641.93" y1="1131.73" x2="639.19" y2="1131.73"/>
        <line class="st3" x1="636.45" y1="1131.73" x2="633.32" y2="1131.73"/>
        <line class="st3" x1="630.58" y1="1131.73" x2="627.85" y2="1131.73"/>
        <line class="st3" x1="625.11" y1="1131.73" x2="622.37" y2="1131.73"/>
        <line class="st3" x1="619.63" y1="1131.73" x2="618.46" y2="1131.73"/>
      </g>
    </g>
  </g>
  <g id="bianchi">
    <g>
      <polygon class="st4" points="527.55 1036.38 527.55 1037.5 526.93 1037.5 527.55 1036.38"/>
      <polygon class="st4" points="527.55 970.06 527.55 1036.38 526.93 1037.5 458.1 1037.5 456.94 1036.91 456.94 970.59 457.56 969.46 526.39 969.46 527.55 970.06"/>
      <polygon class="st4" points="527.55 969.46 527.55 970.06 526.39 969.46 527.55 969.46"/>
      <polygon class="st4" points="458.1 1037.5 456.94 1037.5 456.94 1036.91 458.1 1037.5"/>
      <polygon class="st4" points="457.56 969.46 456.94 970.59 456.94 969.46 457.56 969.46"/>
    </g>
    <path class="st4" d="M550.05,1037.5v-27.68c0-.61.29-1.11.66-1.11h37.37c.45,0,.82.5.82,1.11v27.68h-38.85Z"/>
    <g id="LINE">
      <path class="st4" d="M513.13,898.36v24.72c0,9.52-6.83,17.21-15.29,17.21s-15.28-7.69-15.28-17.21v-24.72h30.57Z"/>
    </g>
    <rect class="st4" x="531.73" y="511.11" width="186.84" height="21.16"/>
    <path class="st4" d="M547.04,588.63c.45,1.8.45,3.6-.45,4.95-6.31,12.61-17.12,22.07-30.17,27.02-1.36.9-3.16.9-4.96,0-.9-.45-2.25-1.35-3.15-2.25l-14.86-12.16c0-.45-.45-.45-.9-.9-.9-1.35-1.8-3.15-2.25-4.95,0-4.96.45-10.36,1.35-15.31.9-4.96,3.6-9.91,7.65-13.51,4.06-3.6,9.01-5.86,14.41-6.31,4.96-.45,10.36-.45,15.31.45,1.81.46,3.61,1.36,4.51,2.71.45.45.45.9.9.9l10.8,16.21c.45.9,1.36,2.25,1.81,3.15Z"/>
    <rect class="st4" x="558.75" y="899.61" width="37.37" height="1.8"/>
    <rect class="st4" x="564.15" y="898.36" width="27.02" height="1.56"/>
    <rect class="st4" x="773.09" y="1028.5" width="28.87" height="84.66"/>
  </g>
  <g id="Livello_1">
    <path class="st2" d="M516.42,620.53c13.06-4.95,23.87-14.41,30.17-27.02"/>
    <path class="st2" d="M536.23,581.8c-2.7-2.7-5.4-5.85-8.56-8.11"/>
    <path class="st2" d="M527.68,573.7c-6.3-4.05-14.41-4.05-20.71,0"/>
    <path class="st2" d="M506.96,573.7c-.9.9-2.25,1.8-3.15,2.7"/>
    <path class="st2" d="M513.72,565.14c-5.4.45-10.36,2.7-14.41,6.3"/>
    <path class="st2" d="M546.59,593.51c.9-1.35.9-3.15.45-4.95"/>
    <path class="st2" d="M547.04,588.56c-.45-.9-1.35-2.25-1.8-3.15"/>
    <line class="st2" x1="534.43" y1="569.19" x2="545.24" y2="585.4"/>
    <path class="st2" d="M534.43,569.19c-.45,0-.45-.45-.9-.9"/>
    <path class="st2" d="M533.53,568.29c-.9-1.35-2.7-2.25-4.5-2.7"/>
    <path class="st2" d="M529.03,565.59c-4.95-.9-10.36-.9-15.31-.45"/>
    <path class="st2" d="M498.86,599.81c1.8,3.15,4.5,6.3,7.2,9.46"/>
    <path class="st2" d="M501.11,579.1c-4.95,5.85-5.85,13.96-2.25,20.71"/>
    <line class="st2" x1="503.81" y1="576.4" x2="501.11" y2="579.1"/>
    <path class="st2" d="M499.31,571.45c-4.05,3.6-6.75,8.56-7.66,13.51"/>
    <path class="st2" d="M511.46,620.53c1.8.9,3.6.9,4.95,0"/>
    <path class="st2" d="M508.31,618.28c.9.9,2.25,1.8,3.15,2.25"/>
    <line class="st2" x1="493.45" y1="606.12" x2="508.31" y2="618.28"/>
    <path class="st2" d="M492.55,605.22c.45.45.9.45.9.9"/>
    <path class="st2" d="M490.3,600.26c.45,1.8,1.35,3.6,2.25,4.95"/>
    <path class="st2" d="M491.65,584.95c-.9,4.95-1.35,10.36-1.35,15.31"/>
    <line class="st2" x1="611.43" y1="892.96" x2="458.78" y2="859.19"/>
    <line class="st2" x1="716.8" y1="532.27" x2="715.45" y2="532.27"/>
    <line class="st2" x1="624.94" y1="532.27" x2="623.59" y2="532.27"/>
    <line class="st2" x1="533.08" y1="532.27" x2="531.73" y2="532.27"/>
    <line class="st2" x1="617.73" y1="910.97" x2="617.73" y2="978.06"/>
    <line class="st2" x1="773.09" y1="1105.95" x2="773.09" y2="1030.75"/>
    <path class="st2" d="M687.98,981.22c0-18.46-7.2-36.47-20.26-49.53-13.51-13.06-31.07-20.71-49.98-20.71"/>
    <line class="st2" x1="617.73" y1="981.22" x2="687.98" y2="981.22"/>
    <line class="st2" x1="617.73" y1="978.06" x2="617.73" y2="981.22"/>
    <line class="st2" x1="617.73" y1="978.06" x2="617.73" y2="910.97"/>
    <line class="st2" x1="564.15" y1="898.26" x2="564.15" y2="899.61"/>
    <line class="st2" x1="591.17" y1="899.61" x2="591.17" y2="898.26"/>
    <line class="st2" x1="596.12" y1="899.61" x2="596.12" y2="901.41"/>
    <line class="st2" x1="558.75" y1="899.61" x2="596.12" y2="899.61"/>
    <line class="st2" x1="558.75" y1="901.41" x2="558.75" y2="899.61"/>
    <line class="st2" x1="596.12" y1="901.41" x2="558.75" y2="901.41"/>
    <g>
      <rect class="st4" x="693.4" y="876.29" width="101.75" height="57.63" transform="translate(-160.83 1649.38) rotate(-90)"/>
      <g>
        <line class="st2" x1="763.65" y1="928.16" x2="751.18" y2="928.16"/>
        <rect class="st2" x="715.46" y="854.23" width="55.25" height="101.75"/>
        <line class="st2" x1="731.95" y1="876.95" x2="731.95" y2="864.76"/>
        <line class="st2" x1="754.86" y1="876.95" x2="754.86" y2="864.76"/>
        <line class="st2" x1="748.85" y1="870.93" x2="761.04" y2="870.93"/>
        <line class="st2" x1="725.78" y1="870.93" x2="737.96" y2="870.93"/>
        <rect class="st2" x="720.41" y="857.12" width="45.99" height="26.81"/>
        <rect class="st2" x="727.68" y="912.74" width="31.01" height="31.01"/>
        <rect class="st2" x="719.96" y="904.86" width="46.44" height="46.6"/>
      </g>
    </g>
    <circle class="st2" cx="569.55" cy="1033.21" r="2.2" transform="translate(-566.87 1350.15) rotate(-76.72)"/>
    <circle class="st2" cx="569.55" cy="1018.76" r="2.93" transform="translate(-552.81 1339.01) rotate(-76.72)"/>
    <path class="st2" d="M567.98,1018.76c0-.87.71-1.58,1.58-1.58s1.58.71,1.58,1.58-.71,1.58-1.58,1.58-1.58-.71-1.58-1.58Z"/>
    <path class="st2" d="M588.24,1027.16v-16.22c0-.62-.37-1.11-.82-1.11h-35.72c-.45,0-.82.5-.82,1.11v16.22c0,.61.37,1.11.82,1.11h35.72c.45,0,.82-.5.82-1.11Z"/>
    <path class="st2" d="M588.9,1037.5v-27.68c0-.62-.29-1.11-.66-1.11h-37.37c-.45,0-.82.49-.82,1.11v27.68"/>
    <line class="st2" x1="550.05" y1="1018.59" x2="550.05" y2="1028.95"/>
    <line class="st2" x1="578.41" y1="1008.69" x2="559.95" y2="1008.69"/>
    <line class="st2" x1="550.05" y1="1018.59" x2="550.05" y2="1028.95"/>
    <line class="st2" x1="578.41" y1="1008.69" x2="559.95" y2="1008.69"/>
    <line class="st2" x1="550.05" y1="1028.95" x2="550.05" y2="1018.59"/>
    <line class="st2" x1="559.95" y1="1008.69" x2="578.41" y2="1008.69"/>
    <line class="st2" x1="550.05" y1="1018.59" x2="550.05" y2="1028.95"/>
    <line class="st2" x1="578.41" y1="1008.69" x2="559.95" y2="1008.69"/>
    <line class="st2" x1="550.05" y1="1018.59" x2="550.05" y2="1028.95"/>
    <line class="st2" x1="578.41" y1="1008.69" x2="559.95" y2="1008.69"/>
    <line class="st2" x1="550.05" y1="1028.95" x2="550.05" y2="1018.59"/>
    <line class="st2" x1="559.95" y1="1008.69" x2="578.41" y2="1008.69"/>
    <polyline class="st2" points="458.78 1037.5 458.78 969.46 466.93 969.46"/>
    <line class="st2" x1="458.78" y1="1037.5" x2="527.01" y2="1037.5"/>
    <line class="st2" x1="527.55" y1="1036.38" x2="527.55" y2="970.06"/>
    <polyline class="st2" points="527.55 1036.38 527.55 1037.5 527.01 1037.5"/>
    <polyline class="st2" points="526.54 969.46 527.55 969.46 527.55 970.06"/>
    <line class="st2" x1="526.54" y1="969.46" x2="466.93" y2="969.46"/>
    <line class="st2" x1="492.9" y1="1037.5" x2="492.9" y2="1018.6"/>
    <circle class="st2" cx="492.98" cy="1018.69" r="4.23" transform="translate(-220.86 140.52) rotate(-13.28)"/>
    <circle class="st2" cx="492.98" cy="1018.69" r="4.23" transform="translate(-220.86 140.52) rotate(-13.28)"/>
    <path class="st2" d="M513.14,898.37c0,8.24-.01,16.48-.02,24.72,0,9.52-6.85,17.21-15.3,17.21-8.45,0-15.28-7.71-15.28-17.23,0-8.24.01-16.48.02-24.72,10.19,0,20.38.01,30.58.02Z"/>
    <line class="st2" x1="611.43" y1="859.19" x2="458.78" y2="892.96"/>
    <line class="st2" x1="694.29" y1="1105.95" x2="694.37" y2="1105.95"/>
    <polyline class="st2" points="694.37 1105.95 694.29 1105.95 694.29 1109.55 773.09 1109.55"/>
    <line class="st2" x1="564.15" y1="898.26" x2="591.17" y2="898.26"/>
    <line class="st2" x1="611.43" y1="854.23" x2="458.78" y2="854.23"/>
    <polyline class="st2" points="617.73 978.06 617.73 981.22 687.98 981.22"/>
    <line class="st2" x1="540.73" y1="524.16" x2="615.93" y2="524.16"/>
    <line class="st2" x1="615.93" y1="524.16" x2="615.93" y2="520.11"/>
    <line class="st2" x1="615.93" y1="520.11" x2="540.73" y2="520.11"/>
    <line class="st2" x1="540.73" y1="520.11" x2="540.73" y2="524.16"/>
    <line class="st2" x1="619.54" y1="532.27" x2="537.13" y2="532.27"/>
    <line class="st2" x1="540.73" y1="519.66" x2="615.93" y2="519.66"/>
    <line class="st2" x1="540.73" y1="526.42" x2="615.93" y2="526.42"/>
    <line class="st2" x1="619.54" y1="532.27" x2="623.59" y2="532.27"/>
    <line class="st2" x1="623.59" y1="532.27" x2="623.59" y2="519.66"/>
    <line class="st2" x1="623.59" y1="519.66" x2="615.93" y2="519.66"/>
    <line class="st2" x1="615.93" y1="519.66" x2="615.93" y2="526.42"/>
    <line class="st2" x1="615.93" y1="526.42" x2="619.54" y2="526.42"/>
    <line class="st2" x1="619.54" y1="526.42" x2="619.54" y2="532.27"/>
    <line class="st2" x1="533.08" y1="532.27" x2="537.13" y2="532.27"/>
    <line class="st2" x1="537.13" y1="532.27" x2="537.13" y2="526.42"/>
    <line class="st2" x1="537.13" y1="526.42" x2="540.73" y2="526.42"/>
    <line class="st2" x1="540.73" y1="526.42" x2="540.73" y2="519.66"/>
    <line class="st2" x1="540.73" y1="519.66" x2="533.08" y2="519.66"/>
    <line class="st2" x1="533.08" y1="519.66" x2="533.08" y2="532.27"/>
    <line class="st2" x1="623.59" y1="519.66" x2="533.08" y2="519.66"/>
    <line class="st2" x1="534.88" y1="519.66" x2="621.79" y2="519.66"/>
    <line class="st2" x1="535.78" y1="519.66" x2="621.34" y2="519.66"/>
    <line class="st2" x1="615.93" y1="519.66" x2="540.73" y2="519.66"/>
    <line class="st2" x1="540.73" y1="519.66" x2="615.93" y2="519.66"/>
    <line class="st2" x1="628.99" y1="524.16" x2="711.4" y2="524.16"/>
    <line class="st2" x1="711.4" y1="524.16" x2="711.4" y2="520.11"/>
    <line class="st2" x1="711.4" y1="520.11" x2="628.99" y2="520.11"/>
    <line class="st2" x1="628.99" y1="520.11" x2="628.99" y2="524.16"/>
    <line class="st2" x1="711.4" y1="532.27" x2="628.99" y2="532.27"/>
    <line class="st2" x1="628.99" y1="519.66" x2="711.4" y2="519.66"/>
    <line class="st2" x1="624.94" y1="532.27" x2="628.99" y2="532.27"/>
    <line class="st2" x1="628.99" y1="532.27" x2="628.99" y2="519.66"/>
    <line class="st2" x1="628.99" y1="519.66" x2="624.94" y2="519.66"/>
    <line class="st2" x1="624.94" y1="519.66" x2="624.94" y2="532.27"/>
    <line class="st2" x1="711.4" y1="532.27" x2="715.45" y2="532.27"/>
    <line class="st2" x1="715.45" y1="532.27" x2="715.45" y2="519.66"/>
    <line class="st2" x1="715.45" y1="519.66" x2="711.4" y2="519.66"/>
    <line class="st2" x1="711.4" y1="519.66" x2="711.4" y2="532.27"/>
    <path class="st2" d="M773.09,1030.75c-20.71,0-40.98,8.56-55.39,22.97-14.86,14.86-23.42,35.12-23.42,55.84"/>
    <line class="st2" x1="694.29" y1="1109.55" x2="694.29" y2="1105.95"/>
    <line class="st2" x1="773.09" y1="1109.55" x2="694.29" y2="1109.55"/>
    <line class="st2" x1="773.09" y1="1109.55" x2="773.09" y2="1030.75"/>
    <g>
      <g>
        <path class="st4" d="M705.1,629.94c-.9,0-2.25.45-2.7,1.35,0,.45,0,.9.45,1.35,4.5,2.25,8.1,6.31,9.9,11.26h-36.92c1.8-4.95,5.4-9.01,9.91-11.26.45-.45.9-.9.45-1.35-.45-.9-1.35-1.35-2.71-1.35-.9.45-2.25,1.35-3.6,1.8h-1.8v-.45c9.46-7.2,22.97-7.2,32.87,0,0,0,0,.45-.45.45h-1.8c-1.35-.45-2.25-1.35-3.6-1.8Z"/>
        <polygon class="st4" points="712.75 643.9 719.96 643.9 719.96 711.89 712.75 711.89 675.83 711.89 669.07 711.89 669.07 643.9 675.83 643.9 712.75 643.9"/>
        <path class="st4" d="M675.83,711.89h36.92c-1.8,4.96-5.4,9.01-9.9,11.71-.45,0-.45.45-.45.9.45,1.35,1.8,1.8,2.7,1.35,1.35-.45,2.25-.9,3.6-1.8h1.8c.45,0,.45.45.45.45-9.9,7.21-23.41,7.21-32.87,0v-.45h1.8c1.35.9,2.7,1.35,3.6,1.8,1.36.45,2.26,0,2.71-1.35.45-.45,0-.9-.45-.9-4.51-2.7-8.11-6.75-9.91-11.71Z"/>
      </g>
      <path class="st2" d="M679.89,724.06c1.35.9,2.7,1.35,3.6,1.8"/>
      <path class="st2" d="M686.19,724.51c.45-.45,0-.9-.45-.9"/>
      <path class="st2" d="M675.83,711.9c1.8,4.95,5.4,9.01,9.91,11.71"/>
      <path class="st2" d="M709.61,724.06h-.9"/>
      <path class="st2" d="M710.51,724.06h-.9"/>
      <path class="st2" d="M710.96,724.51s0-.45-.45-.45"/>
      <path class="st2" d="M702.4,724.51c.45,1.35,1.8,1.8,2.7,1.35"/>
      <path class="st2" d="M705.1,725.86c1.35-.45,2.25-.9,3.6-1.8"/>
      <path class="st2" d="M702.85,723.6c-.45,0-.45.45-.45.9"/>
      <path class="st2" d="M702.85,723.6c4.5-2.7,8.11-6.75,9.91-11.71"/>
      <path class="st2" d="M678.09,724.51c9.46,7.2,22.97,7.2,32.87,0"/>
      <line class="st2" x1="679.44" y1="631.74" x2="679.89" y2="631.74"/>
      <line class="st2" x1="678.09" y1="631.74" x2="679.44" y2="631.74"/>
      <line class="st2" x1="678.09" y1="631.29" x2="678.09" y2="631.74"/>
      <path class="st2" d="M686.19,631.29c-.45-.9-1.35-1.35-2.7-1.35"/>
      <path class="st2" d="M683.49,629.94c-.9.45-2.25,1.35-3.6,1.8"/>
      <path class="st2" d="M685.74,632.64c.45-.45.9-.9.45-1.35"/>
      <path class="st2" d="M685.74,632.64c-4.5,2.25-8.11,6.3-9.91,11.26"/>
      <path class="st2" d="M708.71,631.74h.9"/>
      <path class="st2" d="M709.61,631.74h.9"/>
      <path class="st2" d="M710.51,631.74c.45,0,.45-.45.45-.45"/>
      <path class="st2" d="M705.1,629.94c-.9,0-2.25.45-2.7,1.35"/>
      <path class="st2" d="M708.71,631.74c-1.35-.45-2.25-1.35-3.6-1.8"/>
      <path class="st2" d="M702.4,631.29c0,.45,0,.9.45,1.35"/>
      <path class="st2" d="M712.76,643.9c-1.8-4.95-5.4-9.01-9.91-11.26"/>
      <path class="st2" d="M710.96,631.29c-9.91-7.2-23.42-7.2-32.87,0"/>
      <line class="st2" x1="669.08" y1="643.9" x2="669.08" y2="711.9"/>
      <line class="st2" x1="669.08" y1="711.9" x2="719.96" y2="711.9"/>
      <line class="st2" x1="719.96" y1="643.9" x2="669.08" y2="643.9"/>
      <line class="st2" x1="719.96" y1="643.9" x2="719.96" y2="711.9"/>
      <line class="st2" x1="679.89" y1="724.06" x2="679.44" y2="724.06"/>
      <line class="st2" x1="679.44" y1="724.06" x2="678.09" y2="724.06"/>
      <line class="st2" x1="678.09" y1="724.06" x2="678.09" y2="724.51"/>
      <path class="st2" d="M683.49,725.86c1.35.45,2.25,0,2.7-1.35"/>
    </g>
    <g>
      <g>
        <path class="st4" d="M755.99,629.94c-.9,0-2.25.45-2.7,1.35,0,.45,0,.9.45,1.35,4.5,2.25,8.1,6.31,9.9,11.26h-36.92c1.8-4.95,5.4-9.01,9.91-11.26.45-.45.9-.9.45-1.35-.45-.9-1.35-1.35-2.71-1.35-.9.45-2.25,1.35-3.6,1.8h-1.8v-.45c9.46-7.2,22.97-7.2,32.87,0,0,0,0,.45-.45.45h-1.8c-1.35-.45-2.25-1.35-3.6-1.8Z"/>
        <polygon class="st4" points="763.64 643.9 770.85 643.9 770.85 711.89 763.64 711.89 726.72 711.89 719.96 711.89 719.96 643.9 726.72 643.9 763.64 643.9"/>
        <path class="st4" d="M726.72,711.89h36.92c-1.8,4.96-5.4,9.01-9.9,11.71-.45,0-.45.45-.45.9.45,1.35,1.8,1.8,2.7,1.35,1.35-.45,2.25-.9,3.6-1.8h1.8c.45,0,.45.45.45.45-9.9,7.21-23.41,7.21-32.87,0v-.45h1.8c1.35.9,2.7,1.35,3.6,1.8,1.36.45,2.26,0,2.71-1.35.45-.45,0-.9-.45-.9-4.51-2.7-8.11-6.75-9.91-11.71Z"/>
      </g>
      <path class="st2" d="M730.77,724.06c1.35.9,2.7,1.35,3.6,1.8"/>
      <path class="st2" d="M737.07,724.51c.45-.45,0-.9-.45-.9"/>
      <path class="st2" d="M726.72,711.9c1.8,4.95,5.4,9.01,9.91,11.71"/>
      <path class="st2" d="M760.49,724.06h-.9"/>
      <path class="st2" d="M761.39,724.06h-.9"/>
      <path class="st2" d="M761.84,724.51s0-.45-.45-.45"/>
      <path class="st2" d="M753.28,724.51c.45,1.35,1.8,1.8,2.7,1.35"/>
      <path class="st2" d="M755.99,725.86c1.35-.45,2.25-.9,3.6-1.8"/>
      <path class="st2" d="M753.74,723.6c-.45,0-.45.45-.45.9"/>
      <path class="st2" d="M753.74,723.6c4.5-2.7,8.11-6.75,9.91-11.71"/>
      <path class="st2" d="M728.97,724.51c9.46,7.2,22.97,7.2,32.87,0"/>
      <line class="st2" x1="730.32" y1="631.74" x2="730.77" y2="631.74"/>
      <line class="st2" x1="728.97" y1="631.74" x2="730.32" y2="631.74"/>
      <line class="st2" x1="728.97" y1="631.29" x2="728.97" y2="631.74"/>
      <path class="st2" d="M737.07,631.29c-.45-.9-1.35-1.35-2.7-1.35"/>
      <path class="st2" d="M734.37,629.94c-.9.45-2.25,1.35-3.6,1.8"/>
      <path class="st2" d="M736.62,632.64c.45-.45.9-.9.45-1.35"/>
      <path class="st2" d="M736.62,632.64c-4.5,2.25-8.11,6.3-9.91,11.26"/>
      <path class="st2" d="M759.59,631.74h.9"/>
      <path class="st2" d="M760.49,631.74h.9"/>
      <path class="st2" d="M761.39,631.74c.45,0,.45-.45.45-.45"/>
      <path class="st2" d="M755.99,629.94c-.9,0-2.25.45-2.7,1.35"/>
      <path class="st2" d="M759.59,631.74c-1.35-.45-2.25-1.35-3.6-1.8"/>
      <path class="st2" d="M753.28,631.29c0,.45,0,.9.45,1.35"/>
      <path class="st2" d="M763.64,643.9c-1.8-4.95-5.4-9.01-9.91-11.26"/>
      <path class="st2" d="M761.84,631.29c-9.91-7.2-23.42-7.2-32.87,0"/>
      <line class="st2" x1="719.96" y1="643.9" x2="719.96" y2="711.9"/>
      <line class="st2" x1="719.96" y1="711.9" x2="770.85" y2="711.9"/>
      <line class="st2" x1="770.85" y1="643.9" x2="719.96" y2="643.9"/>
      <line class="st2" x1="770.85" y1="643.9" x2="770.85" y2="711.9"/>
      <line class="st2" x1="730.77" y1="724.06" x2="730.32" y2="724.06"/>
      <line class="st2" x1="730.32" y1="724.06" x2="728.97" y2="724.06"/>
      <line class="st2" x1="728.97" y1="724.06" x2="728.97" y2="724.51"/>
      <path class="st2" d="M734.37,725.86c1.35.45,2.25,0,2.7-1.35"/>
    </g>
    <line class="st2" x1="611.43" y1="908.72" x2="611.43" y2="907.37"/>
    <line class="st2" x1="506.51" y1="511.11" x2="491.2" y2="511.11"/>
    <line class="st2" x1="790.2" y1="1113.15" x2="790.2" y2="1112.25"/>
    <line class="st2" x1="790.2" y1="1112.25" x2="790.2" y2="1113.15"/>
    <line class="st2" x1="617.73" y1="859.19" x2="617.73" y2="860.09"/>
    <line class="st2" x1="458.78" y1="859.19" x2="611.43" y2="859.19"/>
    <line class="st2" x1="611.43" y1="908.72" x2="611.43" y2="907.37"/>
    <rect class="st0" x="546.82" y="543.98" width="32.87" height="32.87"/>
    <rect class="st0" x="669.08" y="643.9" width="101.77" height="67.99"/>
    <circle class="st0" cx="568.87" cy="826.45" r="18.61"/>
  </g>
  <g id="pareti">
    <g>
      <path class="st5" d="M790.2,1113.16v17.11l-10.81,10.81h-167.51v-97.27h-169.76v-431.83h-.9v-100.87h90.51v40.08h-50.44v91.86h-22.51v211.19h158.95v54.48h-6.3v-10.36h-152.65v139.15h152.65v-53.59h6.3v150.85h155.36v-22.51h17.11v.9ZM611.43,892.96v-33.77h-152.65v33.77h152.65Z"/>
      <polygon class="st5" points="790.2 1027.15 790.2 1028.5 773.09 1028.5 773.09 551.19 716.8 551.19 716.8 520.11 716.8 511.11 781.64 511.11 781.64 1009.59 790.2 1018.14 790.2 1027.15"/>
      <rect class="st5" x="458.78" y="859.19" width="152.65" height="33.77"/>
    </g>
  </g>
</svg>