<?xml version="1.0" encoding="UTF-8"?>
<svg xmlns="http://www.w3.org/2000/svg" version="1.1" viewBox="0 0 1200 1697.14">
  <!-- Generator: Adobe Illustrator 29.6.0, SVG Export Plug-In . SVG Version: 2.1.1 Build 207)  -->
  <defs>
    <style>
      .st0, .st1 {
        stroke: #0d101f;
      }

      .st0, .st1, .st2, .st3 {
        stroke-linecap: round;
        stroke-linejoin: round;
        stroke-width: .15px;
      }

      .st0, .st4 {
        fill: #fff;
      }

      .st1, .st2, .st3 {
        fill: none;
      }

      .st5 {
        fill: #383037;
      }

      .st2 {
        stroke: #1d1d1b;
      }

      .st3 {
        stroke: #11100e;
      }

      .st6 {
        fill: #f2efed;
      }
    </style>
  </defs>
  <g id="sfondo">
    <g>
      <polygon class="st6" points="706.5 584.46 711.46 584.46 761.89 584.46 761.89 656.05 770.45 656.05 770.45 1163.09 556.56 1163.09 555.2 1163.09 471.45 1163.09 471.45 1145.98 470.55 1145.98 461.99 1145.98 461.99 624.98 496.67 624.98 496.67 584.46 471.45 584.46 471.45 496.2 706.5 496.2 706.5 584.46"/>
      <polygon class="st6" points="711.46 491.24 711.46 584.46 706.5 584.46 706.5 496.2 471.45 496.2 471.45 584.46 466.5 584.46 466.5 491.24 711.46 491.24"/>
      <polygon class="st6" points="496.67 584.46 496.67 624.98 461.99 624.98 461.99 1145.98 470.55 1145.98 471.45 1145.98 471.45 1163.09 453.44 1163.09 453.44 584.46 466.5 584.46 471.45 584.46 496.67 584.46"/>
    </g>
  </g>
  <g id="letto">
    <g>
      <g id="POLYLINE">
        <line class="st1" x1="706.58" y1="983.79" x2="706.71" y2="983.79"/>
      </g>
      <g id="POLYLINE1" data-name="POLYLINE">
        <line class="st1" x1="706.58" y1="983.79" x2="706.71" y2="983.79"/>
      </g>
      <g>
        <g>
          <polygon class="st4" points="683.84 789.91 683.84 789.47 761.35 789.47 761.35 937.75 760.37 937.26 760.37 789.91 683.84 789.91"/>
          <path class="st4" d="M683.84,899.39v-109.48h76.53v147.35l-17.01-8.41c-7.31-3.62-13.36-6.61-18.37-9.09l-2.63-1.3c-5.59-2.77-9.73-4.82-12.79-6.34l-1.16-.57-7.56-3.74-17.01-8.42Z"/>
          <path class="st4" d="M683.84,959.99v-60.6l17.01,8.42v30.18c0,1.94,1.56,3.51,3.5,3.51h35.51c1.94,0,3.5-1.57,3.5-3.51v-9.14l17.01,8.41v22.73h-76.53Z"/>
          <path class="st4" d="M700.85,937.99v-30.18l7.56,3.74c.37.19.75.38,1.16.57,3.06,1.52,7.2,3.57,12.79,6.34.85.41,1.72.85,2.63,1.3,5.01,2.48,11.06,5.47,18.37,9.09v9.14c0,1.94-1.56,3.51-3.5,3.51h-35.51c-1.94,0-3.5-1.57-3.5-3.51Z"/>
        </g>
        <g>
          <polyline class="st1" points="760.37 937.26 760.37 959.99 683.84 959.99 683.84 899.39"/>
          <polyline class="st1" points="743.36 928.85 760.37 937.26 761.35 937.75 761.35 789.47 683.84 789.47 683.84 789.91 683.84 899.39 700.85 907.81"/>
          <line class="st1" x1="722.36" y1="918.46" x2="724.99" y2="919.76"/>
          <line class="st1" x1="708.41" y1="911.55" x2="709.57" y2="912.12"/>
          <line class="st1" x1="739.86" y1="941.5" x2="704.35" y2="941.5"/>
          <path class="st1" d="M704.35,941.5c-1.94,0-3.5-1.57-3.5-3.51"/>
          <path class="st1" d="M743.36,937.99c0,1.94-1.56,3.51-3.5,3.51"/>
          <path class="st1" d="M743.36,937.99v-9.14c-7.31-3.62-13.36-6.61-18.37-9.09-.91-.45-1.78-.89-2.63-1.3-5.59-2.77-9.73-4.82-12.79-6.34-.41-.19-.79-.38-1.16-.57l-7.56-3.74v30.18"/>
        </g>
      </g>
      <g id="POLYLINE2" data-name="POLYLINE">
        <polygon class="st1" points="761.35 937.75 761.35 789.47 683.84 789.47 683.84 899.39 761.35 937.75"/>
      </g>
      <g id="POLYLINE3" data-name="POLYLINE">
        <polygon class="st1" points="761.35 937.75 761.35 789.47 683.84 789.47 683.84 899.39 761.35 937.75"/>
      </g>
      <g id="LINE">
        <line class="st1" x1="739.86" y1="941.5" x2="704.35" y2="941.5"/>
      </g>
      <g id="SPLINE">
        <path class="st1" d="M704.35,941.5c-1.94,0-3.5-1.57-3.5-3.5"/>
      </g>
      <g id="SPLINE1" data-name="SPLINE">
        <path class="st1" d="M743.36,937.99c0,1.93-1.57,3.5-3.5,3.5"/>
      </g>
      <g id="LINE1" data-name="LINE">
        <line class="st1" x1="739.86" y1="941.5" x2="704.35" y2="941.5"/>
      </g>
      <g id="SPLINE2" data-name="SPLINE">
        <path class="st1" d="M704.35,941.5c-1.94,0-3.5-1.57-3.5-3.5"/>
      </g>
      <g id="SPLINE3" data-name="SPLINE">
        <path class="st1" d="M743.36,937.99c0,1.93-1.57,3.5-3.5,3.5"/>
      </g>
      <line class="st1" x1="743.36" y1="937.99" x2="743.36" y2="928.85"/>
      <line class="st1" x1="700.84" y1="937.99" x2="700.84" y2="907.81"/>
    </g>
    <g>
      <rect class="st4" x="579.01" y="1095.52" width="55.54" height="55.15"/>
      <line class="st3" x1="634.55" y1="1095.52" x2="632.99" y2="1095.52"/>
      <line class="st3" x1="630.25" y1="1095.52" x2="627.51" y2="1095.52"/>
      <line class="st3" x1="624.78" y1="1095.52" x2="622.04" y2="1095.52"/>
      <line class="st3" x1="619.3" y1="1095.52" x2="616.56" y2="1095.52"/>
      <line class="st3" x1="613.82" y1="1095.52" x2="611.09" y2="1095.52"/>
      <line class="st3" x1="608.35" y1="1095.52" x2="605.22" y2="1095.52"/>
      <line class="st3" x1="602.48" y1="1095.52" x2="599.74" y2="1095.52"/>
      <line class="st3" x1="597" y1="1095.52" x2="594.27" y2="1095.52"/>
      <line class="st3" x1="591.53" y1="1095.52" x2="588.79" y2="1095.52"/>
      <line class="st3" x1="586.05" y1="1095.52" x2="583.31" y2="1095.52"/>
      <line class="st3" x1="580.58" y1="1095.52" x2="579.01" y2="1095.52"/>
      <line class="st3" x1="579.01" y1="1095.52" x2="579.01" y2="1096.69"/>
      <line class="st3" x1="579.01" y1="1099.43" x2="579.01" y2="1102.16"/>
      <line class="st3" x1="579.01" y1="1105.29" x2="579.01" y2="1108.03"/>
      <line class="st3" x1="579.01" y1="1110.77" x2="579.01" y2="1113.51"/>
      <line class="st3" x1="579.01" y1="1116.25" x2="579.01" y2="1118.98"/>
      <line class="st3" x1="579.01" y1="1121.72" x2="579.01" y2="1124.46"/>
      <line class="st3" x1="579.01" y1="1127.2" x2="579.01" y2="1129.94"/>
      <line class="st3" x1="579.01" y1="1132.67" x2="579.01" y2="1135.8"/>
      <line class="st3" x1="579.01" y1="1138.54" x2="579.01" y2="1141.28"/>
      <line class="st3" x1="579.01" y1="1144.02" x2="579.01" y2="1146.75"/>
      <line class="st3" x1="579.01" y1="1149.49" x2="579.01" y2="1150.67"/>
      <path class="st3" d="M634.55,1095.52"/>
    </g>
    <rect class="st1" x="464.77" y="738.89" width="99.54" height="68.45"/>
  </g>
  <g id="bianchi">
    <path class="st4" d="M648.61,1146.13v-27.68c0-.61.29-1.11.66-1.11h37.37c.45,0,.82.5.82,1.11v27.68h-38.85Z"/>
    <g id="LINE2" data-name="LINE">
      <path class="st4" d="M739.89,1007.89v24.72c0,9.52-6.83,17.21-15.29,17.21s-15.28-7.69-15.28-17.21v-24.72h30.57Z"/>
    </g>
    <rect class="st4" x="494.61" y="593.16" width="190.86" height="12.61"/>
    <rect class="st4" x="661.67" y="1007.89" width="27.02" height="1.8"/>
    <rect class="st4" x="656.71" y="1009.69" width="37.37" height="1.35"/>
    <rect class="st4" x="694.67" y="1078.09" width="69.84" height="71.17"/>
    <rect class="st4" x="759.19" y="1154.05" width="22.18" height="17.27"/>
    <rect class="st4" x="470.45" y="1146.13" width="85.76" height="26.54"/>
  </g>
  <g id="Livello_1">
    <line class="st2" x1="497.31" y1="605.77" x2="496.41" y2="605.77"/>
    <line class="st2" x1="477.5" y1="1146.13" x2="552.7" y2="1146.13"/>
    <path class="st2" d="M552.7,1146.13c0-20.71-8.56-40.98-23.42-55.84-14.41-14.41-34.67-22.97-55.39-22.97"/>
    <line class="st2" x1="477.5" y1="1146.13" x2="473.89" y2="1146.13"/>
    <line class="st2" x1="473.89" y1="1146.13" x2="473.89" y2="1067.33"/>
    <line class="st2" x1="477.5" y1="1146.13" x2="552.7" y2="1146.13"/>
    <path class="st2" d="M633.75,1020.5c-18.46,0-36.47,7.2-49.53,20.26-13.06,13.51-20.26,31.07-20.26,49.98"/>
    <line class="st2" x1="633.75" y1="1087.14" x2="633.75" y2="1090.74"/>
    <line class="st2" x1="563.95" y1="1090.74" x2="563.95" y2="1087.14"/>
    <line class="st2" x1="633.75" y1="1090.74" x2="563.95" y2="1090.74"/>
    <line class="st2" x1="636" y1="1001.58" x2="636" y2="969.61"/>
    <line class="st2" x1="636" y1="969.61" x2="633.75" y2="969.61"/>
    <line class="st2" x1="633.75" y1="969.61" x2="633.75" y2="1001.58"/>
    <line class="st2" x1="633.75" y1="1001.58" x2="636" y2="1001.58"/>
    <line class="st2" x1="640.5" y1="968.71" x2="640.5" y2="1002.94"/>
    <line class="st2" x1="633.75" y1="1002.94" x2="633.75" y2="1001.58"/>
    <line class="st2" x1="633.75" y1="969.61" x2="633.75" y2="968.71"/>
    <line class="st2" x1="762.98" y1="1146.13" x2="763.43" y2="1146.13"/>
    <line class="st2" x1="760.52" y1="1039.12" x2="760.73" y2="1039.12"/>
    <line class="st2" x1="760.73" y1="1039.8" x2="760.52" y2="1039.8"/>
    <line class="st2" x1="760.73" y1="1048.48" x2="760.52" y2="1048.48"/>
    <path class="st2" d="M740.03,1007.89v24.72c0,9.52-6.84,17.22-15.29,17.22s-15.29-7.7-15.29-17.22v-24.72h30.58Z"/>
    <circle class="st2" cx="668.12" cy="1141.84" r="2.2"/>
    <circle class="st2" cx="668.12" cy="1127.38" r="2.93" transform="translate(-625.87 1334.69) rotate(-68.45)"/>
    <path class="st2" d="M666.54,1127.38c0-.87.71-1.58,1.58-1.58s1.58.71,1.58,1.58-.71,1.58-1.58,1.58-1.58-.71-1.58-1.58Z"/>
    <path class="st2" d="M686.8,1135.79v-16.22c0-.62-.37-1.11-.82-1.11h-35.72c-.45,0-.82.5-.82,1.11v16.22c0,.61.37,1.11.82,1.11h35.72c.45,0,.82-.5.82-1.11Z"/>
    <path class="st2" d="M687.46,1146.13v-27.68c0-.62-.29-1.11-.66-1.11h-37.37c-.45,0-.82.49-.82,1.11v27.68"/>
    <line class="st2" x1="648.61" y1="1127.22" x2="648.61" y2="1137.58"/>
    <line class="st2" x1="676.98" y1="1117.32" x2="658.52" y2="1117.32"/>
    <line class="st2" x1="648.61" y1="1127.22" x2="648.61" y2="1137.58"/>
    <line class="st2" x1="676.98" y1="1117.32" x2="658.52" y2="1117.32"/>
    <line class="st2" x1="648.61" y1="1137.58" x2="648.61" y2="1127.22"/>
    <line class="st2" x1="658.52" y1="1117.32" x2="676.98" y2="1117.32"/>
    <line class="st2" x1="648.61" y1="1127.22" x2="648.61" y2="1137.58"/>
    <line class="st2" x1="676.98" y1="1117.32" x2="658.52" y2="1117.32"/>
    <line class="st2" x1="648.61" y1="1127.22" x2="648.61" y2="1137.58"/>
    <line class="st2" x1="676.98" y1="1117.32" x2="658.52" y2="1117.32"/>
    <line class="st2" x1="648.61" y1="1137.58" x2="648.61" y2="1127.22"/>
    <line class="st2" x1="658.52" y1="1117.32" x2="676.98" y2="1117.32"/>
    <circle class="st2" cx="728.87" cy="1127.32" r="4.23"/>
    <circle class="st2" cx="728.87" cy="1127.32" r="4.23"/>
    <line class="st2" x1="728.78" y1="1146.13" x2="728.78" y2="1127.23"/>
    <line class="st2" x1="762.42" y1="1078.09" x2="702.81" y2="1078.09"/>
    <polyline class="st2" points="762.42 1078.09 763.43 1078.09 763.43 1078.69"/>
    <polyline class="st2" points="763.43 1145.01 763.43 1146.13 762.9 1146.13"/>
    <line class="st2" x1="763.43" y1="1145.01" x2="763.43" y2="1078.69"/>
    <line class="st2" x1="694.67" y1="1146.13" x2="762.9" y2="1146.13"/>
    <polyline class="st2" points="694.67 1146.13 694.67 1078.09 702.81 1078.09"/>
    <line class="st2" x1="656.71" y1="1011.04" x2="694.09" y2="1011.04"/>
    <line class="st2" x1="694.09" y1="1011.04" x2="694.09" y2="1009.69"/>
    <line class="st2" x1="694.09" y1="1009.69" x2="656.71" y2="1009.69"/>
    <line class="st2" x1="656.71" y1="1009.69" x2="656.71" y2="1011.04"/>
    <line class="st2" x1="661.67" y1="1009.69" x2="661.67" y2="1007.89"/>
    <line class="st2" x1="688.69" y1="1007.89" x2="688.69" y2="1009.69"/>
    <g>
      <rect class="st4" x="436.76" y="956.89" width="104.44" height="53.81" transform="translate(1472.77 494.82) rotate(90)"/>
      <rect class="st2" x="466.99" y="936.09" width="46.44" height="46.6"/>
      <rect class="st2" x="474.71" y="943.81" width="31.01" height="31.01"/>
      <rect class="st2" x="466.99" y="1003.62" width="45.99" height="26.81"/>
      <line class="st2" x1="507.62" y1="1016.62" x2="495.43" y2="1016.62"/>
      <line class="st2" x1="484.54" y1="1016.62" x2="472.36" y2="1016.62"/>
      <line class="st2" x1="478.53" y1="1010.61" x2="478.53" y2="1022.8"/>
      <line class="st2" x1="501.44" y1="1010.61" x2="501.44" y2="1022.8"/>
      <line class="st2" x1="469.75" y1="959.39" x2="482.22" y2="959.39"/>
      <line class="st2" x1="515.88" y1="1033.32" x2="515.88" y2="931.57"/>
      <line class="st2" x1="515.88" y1="931.57" x2="464.55" y2="931.57"/>
    </g>
    <line class="st2" x1="633.75" y1="969.61" x2="636" y2="969.61"/>
    <line class="st2" x1="744.52" y1="997.57" x2="744.52" y2="997.53"/>
    <line class="st2" x1="633.75" y1="1087.14" x2="633.75" y2="1020.5"/>
    <line class="st2" x1="633.75" y1="1087.14" x2="633.75" y2="1020.5"/>
    <polyline class="st2" points="564.04 1087.14 563.95 1087.14 563.95 1090.74 633.75 1090.74 633.75 1087.14"/>
    <line class="st2" x1="563.95" y1="1087.14" x2="564.04" y2="1087.14"/>
    <polyline class="st2" points="473.89 1067.33 473.89 1146.13 477.5 1146.13"/>
    <path class="st2" d="M588.27,593.16c0-23.42-9.01-45.93-25.67-62.14-16.66-16.66-39.18-26.12-62.59-26.12"/>
    <path class="st2" d="M677.43,504.91c-23.42,0-45.93,9.46-62.59,26.12-16.66,16.21-25.67,38.73-25.67,62.14"/>
    <line class="st2" x1="677.43" y1="593.16" x2="677.43" y2="504.91"/>
    <line class="st2" x1="500.01" y1="593.16" x2="500.01" y2="504.91"/>
    <line class="st2" x1="505.41" y1="598.12" x2="583.32" y2="598.12"/>
    <line class="st2" x1="583.32" y1="598.12" x2="583.32" y2="594.07"/>
    <line class="st2" x1="583.32" y1="594.07" x2="505.41" y2="594.07"/>
    <line class="st2" x1="505.41" y1="594.07" x2="505.41" y2="598.12"/>
    <line class="st2" x1="594.12" y1="598.12" x2="672.02" y2="598.12"/>
    <line class="st2" x1="672.02" y1="598.12" x2="672.02" y2="594.07"/>
    <line class="st2" x1="672.02" y1="594.07" x2="594.12" y2="594.07"/>
    <line class="st2" x1="594.12" y1="594.07" x2="594.12" y2="598.12"/>
    <line class="st2" x1="675.63" y1="605.77" x2="501.81" y2="605.77"/>
    <line class="st2" x1="505.41" y1="593.16" x2="583.32" y2="593.16"/>
    <line class="st2" x1="594.12" y1="593.16" x2="672.02" y2="593.16"/>
    <line class="st2" x1="505.41" y1="599.92" x2="583.32" y2="599.92"/>
    <line class="st2" x1="594.12" y1="599.92" x2="672.02" y2="599.92"/>
    <line class="st2" x1="497.31" y1="605.77" x2="501.81" y2="605.77"/>
    <line class="st2" x1="501.81" y1="605.77" x2="501.81" y2="599.92"/>
    <line class="st2" x1="501.81" y1="599.92" x2="505.41" y2="599.92"/>
    <line class="st2" x1="505.41" y1="599.92" x2="505.41" y2="593.16"/>
    <line class="st2" x1="505.41" y1="593.16" x2="497.31" y2="593.16"/>
    <line class="st2" x1="497.31" y1="593.16" x2="497.31" y2="605.77"/>
    <line class="st2" x1="594.12" y1="593.16" x2="583.32" y2="593.16"/>
    <line class="st2" x1="583.32" y1="593.16" x2="583.32" y2="599.92"/>
    <line class="st2" x1="583.32" y1="599.92" x2="594.12" y2="599.92"/>
    <line class="st2" x1="594.12" y1="599.92" x2="594.12" y2="593.16"/>
    <line class="st2" x1="675.63" y1="605.77" x2="680.13" y2="605.77"/>
    <line class="st2" x1="680.13" y1="605.77" x2="680.13" y2="593.16"/>
    <line class="st2" x1="680.13" y1="593.16" x2="672.02" y2="593.16"/>
    <line class="st2" x1="672.02" y1="593.16" x2="672.02" y2="599.92"/>
    <line class="st2" x1="672.02" y1="599.92" x2="675.63" y2="599.92"/>
    <line class="st2" x1="675.63" y1="599.92" x2="675.63" y2="605.77"/>
    <line class="st2" x1="640.5" y1="1002.94" x2="640.5" y2="968.71"/>
    <line class="st2" x1="640.5" y1="968.71" x2="640.5" y2="1002.94"/>
    <line class="st2" x1="640.5" y1="1002.94" x2="763.89" y2="968.71"/>
    <line class="st2" x1="640.5" y1="968.71" x2="763.89" y2="1002.94"/>
    <g>
      <path class="st4" d="M695.1,686.19c-1.8.45-3.6.45-4.95-.45-12.16-6.3-22.07-17.11-27.02-30.17-.45-1.35-.45-3.15,0-4.95.45-.9,1.35-2.25,2.25-3.15l12.16-14.86c.45,0,.9-.45.9-.9,1.35-1.35,3.15-1.8,4.95-2.25,5.4,0,10.36.45,15.31,1.35,5.4.9,9.91,3.6,13.51,7.65s5.85,9.01,6.3,14.41c.45,4.95.45,10.36,0,15.31-.45,1.8-1.8,3.6-3.15,4.5l-.9.9-16.21,10.81c-.9.45-1.8,1.35-3.15,1.8Z"/>
      <path class="st2" d="M662.91,655.57c4.95,13.06,14.86,23.87,27.02,30.17"/>
      <path class="st2" d="M701.63,675.39c3.15-2.7,5.85-5.4,8.11-8.56"/>
      <path class="st2" d="M709.74,666.83c4.05-6.3,4.05-14.41,0-20.71"/>
      <path class="st2" d="M709.74,646.12c-.9-.9-1.8-2.25-2.7-3.15"/>
      <path class="st2" d="M718.29,652.87c-.45-5.4-2.7-10.36-6.3-14.41"/>
      <path class="st2" d="M689.92,685.74c1.35.9,3.15.9,4.95.45"/>
      <path class="st2" d="M694.88,686.19c1.35-.45,2.25-1.35,3.15-1.8"/>
      <line class="st2" x1="714.24" y1="673.58" x2="698.03" y2="684.39"/>
      <path class="st2" d="M714.24,673.58l.9-.9"/>
      <path class="st2" d="M715.14,672.68c1.35-.9,2.7-2.7,3.15-4.5"/>
      <path class="st2" d="M718.29,668.18c.45-4.95.45-10.36,0-15.31"/>
      <path class="st2" d="M683.62,638.01c-3.15,1.8-6.3,4.5-9.46,7.2"/>
      <path class="st2" d="M704.33,640.26c-5.85-4.95-13.96-5.85-20.71-2.25"/>
      <line class="st2" x1="707.04" y1="642.96" x2="704.33" y2="640.26"/>
      <path class="st2" d="M711.99,638.46c-3.6-4.05-8.11-6.75-13.51-7.66"/>
      <path class="st2" d="M662.91,650.62c-.45,1.8-.45,3.6,0,4.95"/>
      <path class="st2" d="M665.16,647.47c-.9.9-1.8,2.25-2.25,3.15"/>
      <line class="st2" x1="677.32" y1="632.61" x2="665.16" y2="647.47"/>
      <path class="st2" d="M678.22,631.71c0,.45-.45.9-.9.9"/>
      <path class="st2" d="M683.17,629.46c-1.8.45-3.6.9-4.95,2.25"/>
      <path class="st2" d="M698.48,630.81c-4.95-.9-9.91-1.35-15.31-1.35"/>
    </g>
    <line class="st2" x1="633.75" y1="1017.8" x2="633.75" y2="1016.9"/>
    <line class="st2" x1="633.75" y1="1017.8" x2="633.75" y2="1016.9"/>
    <rect class="st0" x="624.4" y="615.27" width="32.87" height="32.87"/>
    <g>
      <g>
        <g>
          <polygon class="st4" points="515.65 739.07 515.65 807.51 508.45 807.51 471.98 807.51 464.77 807.51 464.77 739.07 471.98 739.07 508.45 739.07 515.65 739.07"/>
          <path class="st4" d="M508.45,739.07h-36.47c1.8-4.51,5.4-8.56,9.9-11.26.45-.45.45-.9.45-1.35-.9-.9-1.8-1.35-2.7-1.35-1.35.45-2.7,1.35-3.6,1.8q-.45.45-.9.45t-.9-.45q-.45,0-.45-.45c9.9-6.76,22.96-6.76,32.87,0q0,.45-.45.45c0,.45-.45.45-.9.45,0,0-.45,0-.9-.45-.9-.45-2.25-1.35-3.15-1.8-1.36,0-2.26.45-2.71,1.35-.45.45,0,.9.45,1.35,4.51,2.7,7.66,6.75,9.46,11.26Z"/>
          <path class="st4" d="M471.98,807.51h36.47c-1.8,4.5-4.95,8.56-9.46,11.26-.45.45-.9.9-.45,1.35.45.9,1.35,1.35,2.71,1.35.9-.45,2.25-1.35,3.15-1.8.45-.45.9-.45.9-.45.45,0,.9.45.9.45q.45,0,.45.45c-9.91,7.2-22.97,7.2-32.87,0q0-.45.45-.45c.45,0,.45-.45.9-.45s.45,0,.9.45c.9.45,2.25,1.35,3.6,1.8.9,0,1.8-.45,2.7-1.35,0-.45,0-.9-.45-1.35-4.5-2.7-8.1-6.76-9.9-11.26Z"/>
        </g>
        <path class="st2" d="M506.65,726.28c-9.91-6.75-22.97-6.75-32.87,0"/>
        <path class="st2" d="M476.03,819.5q-.45-.45-.9-.45"/>
        <path class="st2" d="M475.13,819.05c-.45,0-.45.45-.9.45"/>
        <path class="st2" d="M474.23,819.5q-.45,0-.45.45"/>
        <path class="st2" d="M479.63,821.3c.9,0,1.8-.45,2.7-1.35"/>
        <path class="st2" d="M476.03,819.5c.9.45,2.25,1.35,3.6,1.8"/>
        <path class="st2" d="M482.33,819.95c0-.45,0-.9-.45-1.35"/>
        <path class="st2" d="M471.98,807.34c1.8,4.5,5.4,8.56,9.91,11.26"/>
        <path class="st2" d="M505.3,819.05s-.45,0-.9.45"/>
        <path class="st2" d="M506.2,819.5s-.45-.45-.9-.45"/>
        <path class="st2" d="M506.65,819.95q0-.45-.45-.45"/>
        <path class="st2" d="M498.54,819.95c.45.9,1.35,1.35,2.7,1.35"/>
        <path class="st2" d="M501.25,821.3c.9-.45,2.25-1.35,3.15-1.8"/>
        <path class="st2" d="M498.99,818.6c-.45.45-.9.9-.45,1.35"/>
        <path class="st2" d="M498.99,818.6c4.5-2.7,7.66-6.75,9.46-11.26"/>
        <path class="st2" d="M473.78,819.95c9.91,7.2,22.97,7.2,32.87,0"/>
        <line class="st2" x1="464.77" y1="738.89" x2="515.66" y2="738.89"/>
        <line class="st2" x1="515.66" y1="807.34" x2="464.77" y2="807.34"/>
        <line class="st2" x1="515.66" y1="807.34" x2="515.66" y2="738.89"/>
        <path class="st2" d="M475.13,727.18q.45,0,.9-.45"/>
        <path class="st2" d="M474.23,726.73q.45.45.9.45"/>
        <path class="st2" d="M473.78,726.28q0,.45.45.45"/>
        <path class="st2" d="M482.33,726.28c-.9-.9-1.8-1.35-2.7-1.35"/>
        <path class="st2" d="M479.63,724.93c-1.35.45-2.7,1.35-3.6,1.8"/>
        <path class="st2" d="M481.88,727.64c.45-.45.45-.9.45-1.35"/>
        <path class="st2" d="M481.88,727.64c-4.5,2.7-8.11,6.75-9.91,11.26"/>
        <path class="st2" d="M504.4,726.73c.45.45.9.45.9.45"/>
        <path class="st2" d="M505.3,727.18c.45,0,.9,0,.9-.45"/>
        <path class="st2" d="M506.2,726.73q.45,0,.45-.45"/>
        <path class="st2" d="M501.25,724.93c-1.35,0-2.25.45-2.7,1.35"/>
        <path class="st2" d="M504.4,726.73c-.9-.45-2.25-1.35-3.15-1.8"/>
        <path class="st2" d="M498.54,726.28c-.45.45,0,.9.45,1.35"/>
        <path class="st2" d="M508.45,738.89c-1.8-4.5-4.95-8.56-9.46-11.26"/>
      </g>
      <line class="st1" x1="464.77" y1="739.06" x2="464.77" y2="807.34"/>
    </g>
    <g>
      <g>
        <g>
          <polygon class="st4" points="564.31 739.07 564.31 807.51 557.11 807.51 520.64 807.51 513.43 807.51 513.43 739.07 520.64 739.07 557.11 739.07 564.31 739.07"/>
          <path class="st4" d="M557.11,739.07h-36.47c1.8-4.51,5.4-8.56,9.9-11.26.45-.45.45-.9.45-1.35-.9-.9-1.8-1.35-2.7-1.35-1.35.45-2.7,1.35-3.6,1.8q-.45.45-.9.45t-.9-.45q-.45,0-.45-.45c9.9-6.76,22.96-6.76,32.87,0q0,.45-.45.45c0,.45-.45.45-.9.45,0,0-.45,0-.9-.45-.9-.45-2.25-1.35-3.15-1.8-1.36,0-2.26.45-2.71,1.35-.45.45,0,.9.45,1.35,4.51,2.7,7.66,6.75,9.46,11.26Z"/>
          <path class="st4" d="M520.64,807.51h36.47c-1.8,4.5-4.95,8.56-9.46,11.26-.45.45-.9.9-.45,1.35.45.9,1.35,1.35,2.71,1.35.9-.45,2.25-1.35,3.15-1.8.45-.45.9-.45.9-.45.45,0,.9.45.9.45q.45,0,.45.45c-9.91,7.2-22.97,7.2-32.87,0q0-.45.45-.45c.45,0,.45-.45.9-.45s.45,0,.9.45c.9.45,2.25,1.35,3.6,1.8.9,0,1.8-.45,2.7-1.35,0-.45,0-.9-.45-1.35-4.5-2.7-8.1-6.76-9.9-11.26Z"/>
        </g>
        <path class="st2" d="M555.31,726.28c-9.91-6.75-22.97-6.75-32.87,0"/>
        <path class="st2" d="M524.69,819.5q-.45-.45-.9-.45"/>
        <path class="st2" d="M523.79,819.05c-.45,0-.45.45-.9.45"/>
        <path class="st2" d="M522.89,819.5q-.45,0-.45.45"/>
        <path class="st2" d="M528.29,821.3c.9,0,1.8-.45,2.7-1.35"/>
        <path class="st2" d="M524.69,819.5c.9.45,2.25,1.35,3.6,1.8"/>
        <path class="st2" d="M530.99,819.95c0-.45,0-.9-.45-1.35"/>
        <path class="st2" d="M520.64,807.34c1.8,4.5,5.4,8.56,9.91,11.26"/>
        <path class="st2" d="M553.96,819.05s-.45,0-.9.45"/>
        <path class="st2" d="M554.86,819.5s-.45-.45-.9-.45"/>
        <path class="st2" d="M555.31,819.95q0-.45-.45-.45"/>
        <path class="st2" d="M547.2,819.95c.45.9,1.35,1.35,2.7,1.35"/>
        <path class="st2" d="M549.91,821.3c.9-.45,2.25-1.35,3.15-1.8"/>
        <path class="st2" d="M547.65,818.6c-.45.45-.9.9-.45,1.35"/>
        <path class="st2" d="M547.65,818.6c4.5-2.7,7.66-6.75,9.46-11.26"/>
        <path class="st2" d="M522.44,819.95c9.91,7.2,22.97,7.2,32.87,0"/>
        <line class="st2" x1="513.43" y1="738.89" x2="564.32" y2="738.89"/>
        <line class="st2" x1="564.32" y1="807.34" x2="513.43" y2="807.34"/>
        <line class="st2" x1="564.32" y1="807.34" x2="564.32" y2="738.89"/>
        <path class="st2" d="M523.79,727.18q.45,0,.9-.45"/>
        <path class="st2" d="M522.89,726.73q.45.45.9.45"/>
        <path class="st2" d="M522.44,726.28q0,.45.45.45"/>
        <path class="st2" d="M530.99,726.28c-.9-.9-1.8-1.35-2.7-1.35"/>
        <path class="st2" d="M528.29,724.93c-1.35.45-2.7,1.35-3.6,1.8"/>
        <path class="st2" d="M530.54,727.64c.45-.45.45-.9.45-1.35"/>
        <path class="st2" d="M530.54,727.64c-4.5,2.7-8.11,6.75-9.91,11.26"/>
        <path class="st2" d="M553.06,726.73c.45.45.9.45.9.45"/>
        <path class="st2" d="M553.96,727.18c.45,0,.9,0,.9-.45"/>
        <path class="st2" d="M554.86,726.73q.45,0,.45-.45"/>
        <path class="st2" d="M549.91,724.93c-1.35,0-2.25.45-2.7,1.35"/>
        <path class="st2" d="M553.06,726.73c-.9-.45-2.25-1.35-3.15-1.8"/>
        <path class="st2" d="M547.2,726.28c-.45.45,0,.9.45,1.35"/>
        <path class="st2" d="M557.11,738.89c-1.8-4.5-4.95-8.56-9.46-11.26"/>
      </g>
      <line class="st1" x1="513.43" y1="739.06" x2="513.43" y2="807.34"/>
    </g>
    <rect class="st4" x="464.77" y="739.06" width="99.56" height="68.28"/>
  </g>
  <g id="pareti">
    <g>
      <polygon class="st5" points="770.19 656.21 770.19 1156.94 763.88 1163.25 556.3 1163.25 554.94 1163.25 554.94 1146.13 556.3 1146.13 633.75 1146.13 633.75 1094.35 633.75 1093 640.5 1093 640.5 1094.35 640.5 1146.13 763.43 1146.13 763.43 1007.89 640.5 1007.89 640.5 1008.79 640.5 1016.9 640.5 1017.8 633.75 1017.8 633.75 1016.9 633.75 1002.94 640.5 1002.94 682.83 1002.94 763.88 1002.94 763.88 968.72 640.5 968.72 633.75 968.72 633.75 963.76 640.5 963.76 763.88 963.76 763.88 696.29 722.01 696.29 722.01 625.14 681.03 625.14 681.03 605.78 681.03 594.07 681.03 584.61 706.24 584.61 711.2 584.61 761.63 584.61 761.63 656.21 770.19 656.21"/>
      <polygon class="st5" points="711.2 491.4 711.2 584.61 706.24 584.61 706.24 496.35 471.19 496.35 471.19 584.61 466.24 584.61 466.24 491.4 711.2 491.4"/>
      <polygon class="st5" points="496.41 584.61 496.41 625.14 461.73 625.14 461.73 1146.13 470.29 1146.13 471.19 1146.13 471.19 1163.25 453.18 1163.25 453.18 584.61 466.24 584.61 471.19 584.61 496.41 584.61"/>
    </g>
  </g>
</svg>