<?xml version="1.0" encoding="UTF-8"?>
<svg xmlns="http://www.w3.org/2000/svg" version="1.1" viewBox="0 0 1200 1697.14">
  <!-- Generator: Adobe Illustrator 29.6.0, SVG Export Plug-In . SVG Version: 2.1.1 Build 207)  -->
  <defs>
    <style>
      .st0 {
        fill: #302c35;
      }

      .st1 {
        fill: #ece8e5;
      }

      .st2, .st3 {
        fill: none;
      }

      .st2, .st3, .st4, .st5 {
        stroke-linecap: round;
        stroke-linejoin: round;
        stroke-width: .15px;
      }

      .st2, .st4, .st5 {
        stroke: #0c1020;
      }

      .st6, .st5 {
        fill: #fff;
      }

      .st3 {
        stroke: #100f0d;
      }

      .st4 {
        fill: #3f3f3e;
      }
    </style>
  </defs>
  <g id="sfondo">
    <g>
      <polygon class="st1" points="471.5 594.32 783.56 552.45 783.56 557.85 793.02 557.85 793.02 628.1 783.56 628.1 752.94 628.1 752.94 573.61 609.75 592.8 609.75 612.79 603.44 612.79 603.44 593.64 480.06 610.17 480.06 649.26 603.44 649.26 603.44 646.56 609.75 646.56 609.75 649.26 609.75 663.22 609.75 664.12 603.44 664.12 603.44 663.22 603.44 654.21 603.44 652.86 480.06 652.86 480.06 655.11 480.06 792.45 603.44 792.45 603.44 740.67 603.44 739.77 609.75 739.77 609.75 740.67 609.75 802.81 603.44 802.81 480.06 802.81 480.06 968.97 480.06 969.87 462.95 969.87 462.95 968.97 462.95 953.66 471.05 945.11 471.5 594.32"/>
      <polygon class="st1" points="793.02 1098.66 793.02 1199.52 793.02 1236.9 761.95 1236.9 644.42 1236.9 462.95 1236.9 462.95 1053.63 462.95 969.87 480.06 969.87 480.06 968.97 480.06 802.81 603.44 802.81 609.75 802.81 609.75 740.67 609.75 739.77 603.44 739.77 603.44 740.67 603.44 792.45 480.06 792.45 480.06 655.11 480.06 652.86 603.44 652.86 603.44 654.21 603.44 663.22 603.44 664.12 609.75 664.12 609.75 663.22 609.75 649.26 609.75 646.56 603.44 646.56 603.44 649.26 480.06 649.26 480.06 610.17 603.44 593.64 603.44 612.79 609.75 612.79 609.75 592.8 752.94 573.61 752.94 628.1 783.56 628.1 784.46 721.31 752.94 721.31 752.94 725.36 752.94 807.76 752.94 811.82 752.94 812.72 752.94 822.17 752.94 914.03 783.56 914.03 793.02 914.03 793.02 1098.66"/>
      <polygon class="st1" points="784.46 812.72 793.02 812.72 793.02 893.77 793.02 908.63 793.02 914.03 783.56 914.03 752.94 914.03 752.94 822.17 752.94 812.72 752.94 811.82 752.94 807.76 752.94 725.36 752.94 721.31 784.46 721.31 784.46 725.36 784.46 807.76 784.46 811.82 784.46 812.72"/>
    </g>
  </g>
  <g id="numeri">
    <g>
      <rect class="st6" x="480.19" y="802.86" width="55.54" height="55.15" transform="translate(1015.91 1660.88) rotate(180)"/>
      <line class="st3" x1="480.19" y1="858.01" x2="481.75" y2="858.01"/>
      <line class="st3" x1="484.49" y1="858.01" x2="487.23" y2="858.01"/>
      <line class="st3" x1="489.96" y1="858.01" x2="492.7" y2="858.01"/>
      <line class="st3" x1="495.44" y1="858.01" x2="498.18" y2="858.01"/>
      <line class="st3" x1="500.92" y1="858.01" x2="503.65" y2="858.01"/>
      <line class="st3" x1="506.39" y1="858.01" x2="509.52" y2="858.01"/>
      <line class="st3" x1="512.26" y1="858.01" x2="515" y2="858.01"/>
      <line class="st3" x1="517.73" y1="858.01" x2="520.47" y2="858.01"/>
      <line class="st3" x1="523.21" y1="858.01" x2="525.95" y2="858.01"/>
      <line class="st3" x1="528.69" y1="858.01" x2="531.42" y2="858.01"/>
      <line class="st3" x1="534.16" y1="858.01" x2="535.73" y2="858.01"/>
      <line class="st3" x1="535.73" y1="858.01" x2="535.73" y2="856.84"/>
      <line class="st3" x1="535.73" y1="854.1" x2="535.73" y2="851.36"/>
      <line class="st3" x1="535.73" y1="848.23" x2="535.73" y2="845.5"/>
      <line class="st3" x1="535.73" y1="842.76" x2="535.73" y2="840.02"/>
      <line class="st3" x1="535.73" y1="837.28" x2="535.73" y2="834.54"/>
      <line class="st3" x1="535.73" y1="831.81" x2="535.73" y2="829.07"/>
      <line class="st3" x1="535.73" y1="826.33" x2="535.73" y2="823.59"/>
      <line class="st3" x1="535.73" y1="820.85" x2="535.73" y2="817.73"/>
      <line class="st3" x1="535.73" y1="814.99" x2="535.73" y2="812.25"/>
      <line class="st3" x1="535.73" y1="809.51" x2="535.73" y2="806.77"/>
      <line class="st3" x1="535.73" y1="804.04" x2="535.73" y2="802.86"/>
      <path class="st3" d="M480.19,858.01"/>
    </g>
  </g>
  <g id="bianchi">
    <g id="LINE">
      <path class="st6" d="M534.78,652.86v24.72c0,9.52-6.83,17.22-15.29,17.22s-15.28-7.7-15.28-17.22v-24.72h30.57Z"/>
    </g>
    <rect class="st6" x="697.16" y="988.73" width="184.62" height="35.24" transform="translate(-216.87 1795.82) rotate(-90)"/>
    <rect class="st6" x="738.53" y="660.97" width="93.66" height="27.02" transform="translate(110.88 1459.84) rotate(-90)"/>
    <rect class="st6" x="476.97" y="723.17" width="69.89" height="72.38" transform="translate(-247.45 1271.27) rotate(-90)"/>
    <rect class="st6" x="567.19" y="636.88" width="1.8" height="37.37" transform="translate(-87.47 1223.66) rotate(-90)"/>
    <rect class="st6" x="566.56" y="639.41" width="3.52" height="27.02" transform="translate(-84.59 1221.23) rotate(-90)"/>
    <g>
      <polygon class="st6" points="658.45 630.05 625.95 634.4 620.1 592.07 721.42 578.56 726.82 620.89 694.82 625.18 658.45 630.05"/>
      <path class="st6" d="M658.45,630.05l36.37-4.87.03.21c-1.35,4.96-4.05,9.46-8.56,12.61-.45,0-.45.9,0,1.35.45.9,1.81.9,2.71.9,1.35-.9,2.25-1.35,3.15-2.25q.45-.45.9-.45h.9c.45,0,.45.45.45.45-8.56,8.56-22.06,10.36-32.87,4.5,0-.45.45-.45.45-.45.45-.45.9-.45.9-.45h.9l4.05,1.35c.9,0,1.8-.45,2.25-1.8,0-.45,0-.9-.45-.9-4.9-1.78-8.92-5.33-11.18-10.2Z"/>
    </g>
    <g>
      <path class="st6" d="M557.05,763.68h37.37c.36,0,.66.49.66,1.11v27.68h-38.85v-27.68c0-.62.36-1.11.82-1.11ZM593.59,764.79h-35.72c-.45,0-.82.5-.82,1.11v16.23c0,.61.37,1.11.82,1.11h35.72c.46,0,.83-.5.83-1.11v-16.23c0-.61-.37-1.11-.83-1.11ZM575.73,785.97c-1.21,0-2.2.99-2.2,2.21s.99,2.2,2.2,2.2,2.21-.98,2.21-2.2-.99-2.21-2.21-2.21Z"/>
      <path class="st6" d="M557.87,764.79h35.72c.46,0,.83.5.83,1.11v16.23c0,.61-.37,1.11-.83,1.11h-35.72c-.45,0-.82-.5-.82-1.11v-16.23c0-.61.37-1.11.82-1.11ZM575.73,770.79c-1.62,0-2.93,1.32-2.93,2.94s1.31,2.93,2.93,2.93,2.94-1.31,2.94-2.93-1.32-2.94-2.94-2.94Z"/>
      <path class="st6" d="M572.8,773.73c0-1.62,1.31-2.94,2.93-2.94s2.94,1.32,2.94,2.94-1.32,2.93-2.94,2.93-2.93-1.31-2.93-2.93ZM575.73,772.15c-.87,0-1.57.7-1.57,1.58s.7,1.57,1.57,1.57,1.58-.7,1.58-1.57-.71-1.58-1.58-1.58Z"/>
      <path class="st6" d="M574.16,773.73c0-.88.7-1.58,1.57-1.58s1.58.7,1.58,1.58-.71,1.57-1.58,1.57-1.57-.7-1.57-1.57Z"/>
      <path class="st6" d="M573.53,788.18c0-1.22.99-2.21,2.2-2.21s2.21.99,2.21,2.21-.99,2.2-2.21,2.2-2.2-.98-2.2-2.2Z"/>
    </g>
    <rect class="st6" x="427.88" y="1002.45" width="87.25" height="17.11" transform="translate(-539.5 1482.51) rotate(-90)"/>
  </g>
  <g id="Default">
    <polyline class="st2" points="480.06 1047.78 480.06 1051.38 558.41 1051.38"/>
    <path class="st2" d="M558.41,1051.38c0-21.16-8.11-40.98-22.97-55.84-14.86-14.86-34.67-22.97-55.39-22.97"/>
    <line class="st2" x1="480.06" y1="1051.38" x2="558.41" y2="1051.38"/>
    <line class="st2" x1="480.06" y1="1047.78" x2="480.06" y2="1051.38"/>
    <line class="st2" x1="480.06" y1="1047.78" x2="480.06" y2="972.58"/>
    <line class="st2" x1="609.75" y1="645.66" x2="607.5" y2="645.66"/>
    <line class="st2" x1="609.75" y1="613.69" x2="609.75" y2="645.66"/>
    <line class="st2" x1="607.5" y1="613.69" x2="609.75" y2="613.69"/>
    <line class="st2" x1="607.5" y1="645.66" x2="607.5" y2="613.69"/>
    <path class="st2" d="M609.75,737.07c18.46,0,36.47-7.2,49.53-20.71,13.06-13.06,20.26-30.62,20.26-49.53"/>
    <line class="st2" x1="609.75" y1="670.43" x2="609.75" y2="666.82"/>
    <line class="st2" x1="609.75" y1="666.82" x2="679.54" y2="666.82"/>
    <line class="st2" x1="609.75" y1="670.43" x2="609.75" y2="737.07"/>
    <g>
      <rect class="st6" x="557.19" y="777.59" width="59.19" height="101.77" transform="translate(-241.69 1415.25) rotate(-90)"/>
      <line class="st2" x1="614.94" y1="819.3" x2="627.12" y2="819.3"/>
      <line class="st2" x1="614.94" y1="842.22" x2="627.12" y2="842.22"/>
      <line class="st2" x1="620.95" y1="836.2" x2="620.95" y2="848.39"/>
      <line class="st2" x1="620.95" y1="813.13" x2="620.95" y2="825.32"/>
      <rect class="st2" x="607.95" y="807.77" width="26.81" height="45.99"/>
      <rect class="st2" x="548.13" y="815.03" width="31.01" height="31.01"/>
      <rect class="st2" x="540.42" y="807.32" width="46.6" height="46.44"/>
      <line class="st2" x1="563.72" y1="822.53" x2="563.72" y2="810.06"/>
      <rect class="st2" x="535.9" y="802.81" width="101.75" height="55.25"/>
    </g>
    <line class="st2" x1="603.44" y1="649.26" x2="480.06" y2="610.17"/>
    <line class="st2" x1="514.08" y1="792.46" x2="514.08" y2="773.56"/>
    <circle class="st2" cx="514.17" cy="773.65" r="4.23" transform="translate(-163.99 138.83) rotate(-13.28)"/>
    <circle class="st2" cx="514.17" cy="773.65" r="4.23" transform="translate(-163.99 138.83) rotate(-13.28)"/>
    <line class="st2" x1="546.98" y1="724.42" x2="480.66" y2="724.42"/>
    <line class="st2" x1="480.06" y1="725.54" x2="480.06" y2="791.86"/>
    <line class="st2" x1="481.18" y1="792.46" x2="547.5" y2="792.46"/>
    <line class="st2" x1="548.1" y1="791.33" x2="548.1" y2="725.02"/>
    <polyline class="st2" points="546.98 724.42 548.1 724.42 548.1 725.02"/>
    <polyline class="st2" points="548.1 791.33 548.1 792.46 547.5 792.46"/>
    <polyline class="st2" points="481.18 792.46 480.06 792.46 480.06 791.86"/>
    <polyline class="st2" points="480.06 725.54 480.06 724.42 480.66 724.42"/>
    <line class="st2" x1="566.05" y1="763.64" x2="584.51" y2="763.64"/>
    <line class="st2" x1="556.15" y1="783.9" x2="556.15" y2="773.55"/>
    <line class="st2" x1="584.51" y1="763.64" x2="566.05" y2="763.64"/>
    <line class="st2" x1="556.15" y1="773.55" x2="556.15" y2="783.9"/>
    <line class="st2" x1="584.51" y1="763.64" x2="566.05" y2="763.64"/>
    <line class="st2" x1="556.15" y1="773.55" x2="556.15" y2="783.9"/>
    <line class="st2" x1="566.05" y1="763.64" x2="584.51" y2="763.64"/>
    <line class="st2" x1="556.15" y1="783.9" x2="556.15" y2="773.55"/>
    <line class="st2" x1="584.51" y1="763.64" x2="566.05" y2="763.64"/>
    <line class="st2" x1="556.15" y1="773.55" x2="556.15" y2="783.9"/>
    <line class="st2" x1="584.51" y1="763.64" x2="566.05" y2="763.64"/>
    <line class="st2" x1="556.15" y1="773.55" x2="556.15" y2="783.9"/>
    <path class="st2" d="M595,792.46v-27.68c0-.62-.29-1.11-.66-1.11h-37.37c-.45,0-.82.49-.82,1.11v27.68"/>
    <path class="st2" d="M594.34,782.11v-16.22c0-.62-.37-1.11-.82-1.11h-35.72c-.45,0-.82.5-.82,1.11v16.22c0,.61.37,1.11.82,1.11h35.72c.45,0,.82-.5.82-1.11Z"/>
    <path class="st2" d="M574.08,773.71c0-.87.71-1.58,1.58-1.58s1.58.71,1.58,1.58-.71,1.58-1.58,1.58-1.58-.71-1.58-1.58Z"/>
    <circle class="st2" cx="575.65" cy="773.71" r="2.93" transform="translate(-309.62 1156.2) rotate(-76.72)"/>
    <circle class="st2" cx="575.65" cy="788.16" r="2.2"/>
    <line class="st2" x1="480.06" y1="649.26" x2="603.44" y2="593.64"/>
    <line class="st2" x1="586.78" y1="656.47" x2="549.41" y2="656.47"/>
    <line class="st2" x1="549.41" y1="656.47" x2="549.41" y2="654.67"/>
    <line class="st2" x1="549.41" y1="654.67" x2="586.78" y2="654.67"/>
    <line class="st2" x1="586.78" y1="654.67" x2="586.78" y2="656.47"/>
    <line class="st2" x1="581.83" y1="654.67" x2="581.83" y2="652.86"/>
    <line class="st2" x1="554.81" y1="652.86" x2="554.81" y2="654.67"/>
    <path class="st2" d="M534.5,652.86v24.72c0,9.52-6.84,17.22-15.29,17.22s-15.29-7.7-15.29-17.22v-24.72h30.58Z"/>
    <line class="st2" x1="498.97" y1="640.74" x2="498.97" y2="640.71"/>
    <polyline class="st2" points="679.54 666.82 609.75 666.82 609.75 670.43"/>
    <line class="st2" x1="771.85" y1="914.94" x2="784.46" y2="914.94"/>
    <line class="st2" x1="784.46" y1="914.94" x2="784.46" y2="919.44"/>
    <path class="st2" d="M813.28,1017.16"/>
    <path class="st2" d="M784.46,1067.14"/>
    <line class="st2" x1="783.56" y1="1089.65" x2="779.51" y2="1089.65"/>
    <line class="st2" x1="783.56" y1="1014.9" x2="783.56" y2="1089.65"/>
    <line class="st2" x1="779.51" y1="1014.9" x2="783.56" y2="1014.9"/>
    <line class="st2" x1="779.51" y1="1089.65" x2="779.51" y2="1014.9"/>
    <line class="st2" x1="771.85" y1="1010.85" x2="771.85" y2="1093.26"/>
    <line class="st2" x1="784.46" y1="1089.65" x2="784.46" y2="1014.9"/>
    <line class="st2" x1="777.71" y1="1089.65" x2="777.71" y2="1014.9"/>
    <line class="st2" x1="784.46" y1="1097.76" x2="771.85" y2="1097.76"/>
    <line class="st2" x1="784.46" y1="1089.65" x2="784.46" y2="1097.76"/>
    <line class="st2" x1="777.71" y1="1089.65" x2="784.46" y2="1089.65"/>
    <line class="st2" x1="777.71" y1="1093.26" x2="777.71" y2="1089.65"/>
    <line class="st2" x1="771.85" y1="1093.26" x2="777.71" y2="1093.26"/>
    <line class="st2" x1="771.85" y1="1097.76" x2="771.85" y2="1093.26"/>
    <line class="st2" x1="777.71" y1="1010.85" x2="771.85" y2="1010.85"/>
    <line class="st2" x1="777.71" y1="1014.9" x2="777.71" y2="1010.85"/>
    <line class="st2" x1="784.46" y1="1014.9" x2="777.71" y2="1014.9"/>
    <line class="st2" x1="784.46" y1="1006.8" x2="784.46" y2="1014.9"/>
    <line class="st2" x1="771.85" y1="1006.8" x2="784.46" y2="1006.8"/>
    <line class="st2" x1="771.85" y1="1010.85" x2="771.85" y2="1006.8"/>
    <line class="st2" x1="784.46" y1="1006.8" x2="784.46" y2="1097.76"/>
    <line class="st2" x1="784.46" y1="1095.51" x2="784.46" y2="1009.05"/>
    <line class="st2" x1="784.46" y1="1095.06" x2="784.46" y2="1009.5"/>
    <line class="st2" x1="784.46" y1="1014.9" x2="784.46" y2="1089.65"/>
    <line class="st2" x1="784.46" y1="1089.65" x2="784.46" y2="1014.9"/>
    <line class="st2" x1="783.56" y1="1001.39" x2="779.51" y2="1001.39"/>
    <line class="st2" x1="783.56" y1="919.44" x2="783.56" y2="1001.39"/>
    <line class="st2" x1="779.51" y1="919.44" x2="783.56" y2="919.44"/>
    <line class="st2" x1="779.51" y1="1001.39" x2="779.51" y2="919.44"/>
    <line class="st2" x1="771.85" y1="919.44" x2="771.85" y2="1001.39"/>
    <line class="st2" x1="784.46" y1="1001.39" x2="784.46" y2="919.44"/>
    <line class="st2" x1="784.46" y1="1005.9" x2="771.85" y2="1005.9"/>
    <line class="st2" x1="784.46" y1="1001.39" x2="784.46" y2="1005.9"/>
    <line class="st2" x1="771.85" y1="1001.39" x2="784.46" y2="1001.39"/>
    <line class="st2" x1="771.85" y1="1005.9" x2="771.85" y2="1001.39"/>
    <line class="st2" x1="784.46" y1="919.44" x2="771.85" y2="919.44"/>
    <line class="st2" x1="771.85" y1="919.44" x2="771.85" y2="914.94"/>
    <line class="st2" x1="779.51" y1="637.1" x2="779.51" y2="712.3"/>
    <line class="st2" x1="779.51" y1="712.3" x2="783.56" y2="712.3"/>
    <line class="st2" x1="783.56" y1="712.3" x2="783.56" y2="637.1"/>
    <line class="st2" x1="783.56" y1="637.1" x2="779.51" y2="637.1"/>
    <line class="st2" x1="771.85" y1="715.91" x2="771.85" y2="633.5"/>
    <line class="st2" x1="784.46" y1="637.1" x2="784.46" y2="712.3"/>
    <line class="st2" x1="777.71" y1="637.1" x2="777.71" y2="712.3"/>
    <line class="st2" x1="771.85" y1="715.91" x2="771.85" y2="719.96"/>
    <line class="st2" x1="771.85" y1="719.96" x2="784.46" y2="719.96"/>
    <line class="st2" x1="784.46" y1="719.96" x2="784.46" y2="712.3"/>
    <line class="st2" x1="784.46" y1="712.3" x2="777.71" y2="712.3"/>
    <line class="st2" x1="777.71" y1="712.3" x2="777.71" y2="715.91"/>
    <line class="st2" x1="777.71" y1="715.91" x2="771.85" y2="715.91"/>
    <line class="st2" x1="771.85" y1="629.45" x2="771.85" y2="633.5"/>
    <line class="st2" x1="771.85" y1="633.5" x2="777.71" y2="633.5"/>
    <line class="st2" x1="777.71" y1="633.5" x2="777.71" y2="637.1"/>
    <line class="st2" x1="777.71" y1="637.1" x2="784.46" y2="637.1"/>
    <line class="st2" x1="784.46" y1="637.1" x2="784.46" y2="629.45"/>
    <line class="st2" x1="784.46" y1="629.45" x2="771.85" y2="629.45"/>
    <line class="st2" x1="784.46" y1="719.96" x2="784.46" y2="629.45"/>
    <line class="st2" x1="784.46" y1="631.25" x2="784.46" y2="718.16"/>
    <line class="st2" x1="784.46" y1="631.7" x2="784.46" y2="717.26"/>
    <line class="st2" x1="784.46" y1="712.3" x2="784.46" y2="637.1"/>
    <line class="st2" x1="784.46" y1="637.1" x2="784.46" y2="712.3"/>
    <line class="st2" x1="771.85" y1="721.31" x2="771.85" y2="719.96"/>
    <line class="st2" x1="771.85" y1="629.45" x2="771.85" y2="628.1"/>
    <line class="st2" x1="609.75" y1="670.43" x2="609.75" y2="737.07"/>
    <line class="st2" x1="480.06" y1="972.58" x2="480.06" y2="1047.78"/>
    <line class="st2" x1="771.85" y1="1098.66" x2="771.85" y2="1097.76"/>
    <line class="st2" x1="771.85" y1="1006.8" x2="771.85" y2="1005.9"/>
    <line class="st2" x1="771.85" y1="914.94" x2="771.85" y2="914.04"/>
    <line class="st2" x1="609.75" y1="612.79" x2="609.75" y2="613.69"/>
    <line class="st2" x1="609.75" y1="645.66" x2="609.75" y2="646.56"/>
    <line class="st2" x1="603.44" y1="646.56" x2="603.44" y2="612.79"/>
    <path class="st2" d="M693.05,637.55q-.45,0-.9.45"/>
    <path class="st2" d="M693.95,637.55h-.9"/>
    <path class="st2" d="M694.4,638s0-.45-.45-.45"/>
    <path class="st2" d="M686.3,639.36c.45.9,1.8.9,2.7.9"/>
    <path class="st2" d="M689,640.26c1.35-.9,2.25-1.35,3.15-2.25"/>
    <path class="st2" d="M686.3,638c-.45,0-.45.9,0,1.35"/>
    <path class="st2" d="M686.3,638c4.5-3.15,7.2-7.66,8.56-12.61"/>
    <path class="st2" d="M663.78,641.61h-.9"/>
    <path class="st2" d="M662.88,641.61s-.45,0-.9.45"/>
    <path class="st2" d="M661.98,642.06s-.45,0-.45.45"/>
    <path class="st2" d="M667.84,642.96c.9,0,1.8-.45,2.25-1.8"/>
    <line class="st2" x1="663.78" y1="641.61" x2="667.84" y2="642.96"/>
    <path class="st2" d="M670.09,641.16c0-.45,0-.9-.45-.9"/>
    <path class="st2" d="M658.38,629.9c2.25,4.95,6.3,8.56,11.26,10.36"/>
    <path class="st2" d="M661.53,642.51c10.81,5.85,24.32,4.05,32.87-4.5"/>
    <line class="st2" x1="726.82" y1="620.89" x2="721.42" y2="578.57"/>
    <line class="st2" x1="721.42" y1="578.57" x2="620.1" y2="592.07"/>
    <line class="st2" x1="620.1" y1="592.07" x2="625.96" y2="634.4"/>
    <line class="st2" x1="625.96" y1="634.4" x2="726.82" y2="620.89"/>
    <g>
      <g>
        <path class="st6" d="M658.27,931.9v.45l-.9.9-.45.45c-1.36.45-2.71.45-4.06.9-.45.9-.9,1.8-.9,3.16.45.45.9.45,1.35.45,4.87-1.34,10.17-.93,15.05,1.24-5.67,2.37-10.93,5.9-15.5,10.46-4.45,4.46-7.93,9.9-10.24,15.8l-.11-.04c-2.26-4.95-2.71-10.35-1.35-15.31.45-.45,0-.9-.45-1.35-.91,0-2.26,0-2.71.9l-1.35,4.06-.45.45-.9.9s-.45,0-.45-.45c1.8-11.71,11.26-21.17,23.42-22.97Z"/>
        <path class="st6" d="M713.65,932.35v-.45c12.16,1.8,21.62,11.26,23.42,22.97,0,.45-.45.45-.45.45l-.9-.9-.45-.45-1.35-4.06c-.45-.9-1.8-.9-2.71-.9-.45.45-.9.9-.45,1.35,1.36,4.96.91,10.36-1.35,15.31l-.11.04c-2.31-5.9-5.79-11.34-10.24-15.8-4.56-4.56-9.81-8.08-15.53-10.45,4.89-2.17,10.2-2.59,15.08-1.25.45,0,.9,0,1.35-.45,0-1.36-.45-2.26-.9-3.16-1.35-.45-2.7-.45-4.06-.9l-.45-.45-.9-.9Z"/>
        <path class="st6" d="M698.45,1027.89c-4.08,1.13-8.34,1.73-12.72,1.73s-8.31-.59-12.3-1.7c-7.59-2.14-14.66-6.2-20.57-11.81-3.47-3.65-6.34-7.74-8.53-12.17-3.23-6.48-4.98-13.66-4.98-21.16,0-5.82,1.14-11.64,3.27-17.07,2.31-5.9,5.79-11.34,10.24-15.8,4.57-4.56,9.83-8.09,15.5-10.46,5.5-2.3,11.39-3.5,17.37-3.5s12.24,1.21,17.8,3.51c5.72,2.37,10.97,5.89,15.53,10.45,4.45,4.46,7.93,9.9,10.24,15.8,2.13,5.43,3.27,11.25,3.27,17.07,0,7.5-1.75,14.68-4.98,21.16-2.19,4.43-5.06,8.52-8.53,12.17-5.88,5.58-12.92,9.64-20.61,11.78Z"/>
        <path class="st6" d="M727.59,1003.94h.02c2.25,4.51,2.7,9.92,1.35,15.32,0,.45,0,.9.45.9,1.35.45,2.26,0,3.16-.9.45-1.35.45-2.7.9-3.6,0-.45.45-.45.45-.9.45,0,.45-.45.9-.45h.45c-1.8,12.15-11.26,21.16-22.97,23.41q-.45-.45-.45-.9c.45,0,.45-.45.9-.45,0-.45.45-.45.45-.9,1.35,0,2.7-.45,4.06-.9.9-.9.9-1.8.9-2.7-.45-.45-.9-.9-1.35-.9-6.27,1.79-12.97.91-18.36-3.08,7.69-2.14,14.73-6.2,20.61-11.78,3.47-3.65,6.34-7.74,8.53-12.17Z"/>
        <path class="st6" d="M644.31,1003.95h.02c2.19,4.42,5.06,8.51,8.53,12.16,5.91,5.61,12.98,9.67,20.57,11.81-5.38,3.97-12.07,4.83-18.32,3.05-.45,0-.9.45-1.35.9,0,.9,0,1.8.9,2.7,1.36.45,2.71.9,4.06.9,0,.45.45.45.45.9.45,0,.45.45.9.45q0,.45-.45.9c-11.71-2.25-21.17-11.26-22.97-23.41h.45c.45,0,.45.45.9.45,0,.45.45.45.45.9.45.9.45,2.25.9,3.6.9.9,1.81,1.35,3.16.9.45,0,.45-.45.45-.9-1.35-5.4-.9-10.81,1.35-15.31Z"/>
      </g>
      <path class="st2" d="M729.41,1020.16c1.35.45,2.25,0,3.15-.9"/>
      <path class="st2" d="M732.57,1019.26c.45-1.35.45-2.7.9-3.6"/>
      <path class="st2" d="M728.96,1019.26c0,.45,0,.9.45.9"/>
      <path class="st2" d="M713.2,1035.47c0,.45-.45.45-.45.9"/>
      <path class="st2" d="M712.75,1036.37c-.45,0-.45.45-.9.45"/>
      <path class="st2" d="M711.85,1036.82q0,.45.45.9"/>
      <path class="st2" d="M717.26,1034.57c.9-.9.9-1.8.9-2.7"/>
      <path class="st2" d="M713.2,1035.47c1.35,0,2.7-.45,4.05-.9"/>
      <path class="st2" d="M718.16,1031.87c-.45-.45-.9-.9-1.35-.9"/>
      <path class="st2" d="M698.34,1027.82c5.4,4.05,12.16,4.95,18.46,3.15"/>
      <path class="st2" d="M712.3,1037.72c11.71-2.25,21.16-11.26,22.97-23.42"/>
      <path class="st2" d="M729.41,965.68c2.25-4.95,2.7-10.36,1.35-15.31"/>
      <line class="st2" x1="735.27" y1="953.97" x2="735.72" y2="954.42"/>
      <path class="st2" d="M735.72,954.42l.9.9"/>
      <path class="st2" d="M736.62,955.32s.45,0,.45-.45"/>
      <path class="st2" d="M733.92,949.92c-.45-.9-1.8-.9-2.7-.9"/>
      <line class="st2" x1="735.27" y1="953.97" x2="733.92" y2="949.92"/>
      <path class="st2" d="M731.22,949.02c-.45.45-.9.9-.45,1.35"/>
      <line class="st2" x1="714.55" y1="933.25" x2="715" y2="933.7"/>
      <path class="st2" d="M713.65,932.35l.9.9"/>
      <line class="st2" x1="713.65" y1="931.9" x2="713.65" y2="932.35"/>
      <path class="st2" d="M719.96,937.76c0-1.35-.45-2.25-.9-3.15"/>
      <path class="st2" d="M719.06,934.61c-1.35-.45-2.7-.45-4.05-.9"/>
      <path class="st2" d="M718.61,938.21c.45,0,.9,0,1.35-.45"/>
      <path class="st2" d="M718.61,938.21c-4.95-1.35-10.36-.9-15.31,1.35"/>
      <path class="st2" d="M737.07,954.87c-1.8-11.71-11.26-21.16-23.42-22.97"/>
      <path class="st2" d="M644.31,1003.95c-2.25,4.5-2.7,9.91-1.35,15.31"/>
      <path class="st2" d="M638.45,1015.66c0-.45-.45-.45-.45-.9"/>
      <path class="st2" d="M638,1014.76c-.45,0-.45-.45-.9-.45"/>
      <line class="st2" x1="637.1" y1="1014.31" x2="636.65" y2="1014.31"/>
      <path class="st2" d="M639.35,1019.26c.9.9,1.8,1.35,3.15.9"/>
      <path class="st2" d="M638.45,1015.66c.45.9.45,2.25.9,3.6"/>
      <path class="st2" d="M642.51,1020.16c.45,0,.45-.45.45-.9"/>
      <path class="st2" d="M659.17,1036.37c0-.45-.45-.45-.45-.9"/>
      <path class="st2" d="M660.07,1036.82c-.45,0-.45-.45-.9-.45"/>
      <path class="st2" d="M659.62,1037.72q.45-.45.45-.9"/>
      <path class="st2" d="M653.76,1031.87c0,.9,0,1.8.9,2.7"/>
      <path class="st2" d="M654.66,1034.57c1.35.45,2.7.9,4.05.9"/>
      <path class="st2" d="M655.11,1030.97c-.45,0-.9.45-1.35.9"/>
      <path class="st2" d="M655.11,1030.97c6.3,1.8,13.06.9,18.46-3.15"/>
      <path class="st2" d="M636.65,1014.31c1.8,12.16,11.26,21.16,22.97,23.42"/>
      <path class="st2" d="M641.16,950.37c-1.35,4.95-.9,10.36,1.35,15.31"/>
      <line class="st2" x1="636.2" y1="954.42" x2="636.65" y2="953.97"/>
      <path class="st2" d="M635.3,955.32l.9-.9"/>
      <path class="st2" d="M634.85,954.87c0,.45.45.45.45.45"/>
      <path class="st2" d="M640.71,949.02c-.9,0-2.25,0-2.7.9"/>
      <line class="st2" x1="638" y1="949.92" x2="636.65" y2="953.97"/>
      <path class="st2" d="M641.16,950.37c.45-.45,0-.9-.45-1.35"/>
      <line class="st2" x1="656.92" y1="933.7" x2="657.37" y2="933.25"/>
      <path class="st2" d="M657.37,933.25l.9-.9"/>
      <line class="st2" x1="658.27" y1="932.35" x2="658.27" y2="931.9"/>
      <path class="st2" d="M652.86,934.61c-.45.9-.9,1.8-.9,3.15"/>
      <path class="st2" d="M656.92,933.7c-1.35.45-2.7.45-4.05.9"/>
      <path class="st2" d="M651.96,937.76c.45.45.9.45,1.35.45"/>
      <path class="st2" d="M668.62,939.56c-4.95-2.25-10.36-2.7-15.31-1.35"/>
      <path class="st2" d="M658.27,931.9c-12.16,1.8-21.61,11.26-23.42,22.97"/>
      <path class="st2" d="M685.73,935.96c-12.16,0-23.87,4.95-32.87,13.96s-13.51,20.71-13.51,32.87,4.95,24.32,13.51,33.32c9.01,8.56,20.71,13.51,32.87,13.51s24.32-4.95,33.32-13.51c8.56-9.01,13.51-20.71,13.51-33.32s-4.95-24.32-13.51-32.87c-9.01-9.01-20.71-13.96-33.32-13.96Z"/>
      <path class="st2" d="M728.96,1019.26c1.35-5.4.9-10.81-1.35-15.31"/>
      <path class="st2" d="M733.92,1014.76c0,.45-.45.45-.45.9"/>
      <path class="st2" d="M734.82,1014.31c-.45,0-.45.45-.9.45"/>
      <line class="st2" x1="735.27" y1="1014.31" x2="734.82" y2="1014.31"/>
    </g>
    <line class="st2" x1="480.06" y1="652.86" x2="480.06" y2="654.22"/>
    <line class="st2" x1="480.06" y1="654.22" x2="480.06" y2="655.12"/>
    <g>
      <g>
        <g>
          <polygon class="st6" points="652.14 1143.28 652.58 1143.28 652.58 1220.79 504.31 1220.79 504.79 1219.81 652.14 1219.81 652.14 1143.28"/>
          <path class="st6" d="M542.66,1143.28h109.48v76.53h-147.35l8.42-17.01c7.56-15.28,12.4-25.06,15.5-31.33l.77-1.56c1.1-2.22,1.94-3.93,2.59-5.24l.41-.82c.25-.51.47-.94.65-1.32l.24-.47c.63-1.29.81-1.64.85-1.73l.02-.04,8.42-17.01Z"/>
          <path class="st6" d="M482.06,1143.28h60.6l-8.42,17.01h-30.18c-1.93,0-3.5,1.56-3.5,3.5v35.51c0,1.94,1.57,3.5,3.5,3.5h9.15l-8.42,17.01h-22.73v-76.53Z"/>
          <path class="st6" d="M504.06,1160.29h30.18l-.02.04c-.04.09-.22.44-.85,1.73-.08.14-.15.3-.24.47-.18.38-.4.81-.65,1.32-.13.25-.26.52-.41.82-.65,1.31-1.49,3.02-2.59,5.24-.24.49-.5,1.01-.77,1.56-3.1,6.27-7.94,16.05-15.5,31.33h-9.15c-1.93,0-3.5-1.56-3.5-3.5v-35.51c0-1.94,1.57-3.5,3.5-3.5Z"/>
        </g>
        <g>
          <polyline class="st2" points="504.79 1219.81 482.06 1219.81 482.06 1143.28 542.66 1143.28"/>
          <polyline class="st2" points="513.21 1202.8 504.79 1219.81 504.31 1220.79 652.58 1220.79 652.58 1143.28 652.14 1143.28 542.66 1143.28 534.24 1160.29 534.22 1160.33"/>
          <line class="st2" x1="529.48" y1="1169.91" x2="528.71" y2="1171.47"/>
          <line class="st2" x1="532.48" y1="1163.85" x2="532.07" y2="1164.67"/>
          <line class="st2" x1="533.37" y1="1162.06" x2="533.13" y2="1162.53"/>
          <line class="st2" x1="500.56" y1="1199.3" x2="500.56" y2="1163.79"/>
          <path class="st2" d="M500.56,1163.79c0-1.94,1.57-3.5,3.5-3.5"/>
          <path class="st2" d="M504.06,1202.8c-1.93,0-3.5-1.56-3.5-3.5"/>
          <path class="st2" d="M504.06,1202.8h9.15c7.56-15.28,12.4-25.06,15.5-31.33.27-.55.53-1.07.77-1.56,1.1-2.22,1.94-3.93,2.59-5.24.15-.3.28-.57.41-.82.25-.51.47-.94.65-1.32.09-.17.16-.33.24-.47.63-1.29.81-1.64.85-1.73l.02-.04h-30.18"/>
        </g>
      </g>
      <g id="POLYLINE">
        <polygon class="st2" points="504.3 1220.79 652.58 1220.79 652.58 1143.28 542.66 1143.28 504.3 1220.79"/>
      </g>
      <g id="POLYLINE1" data-name="POLYLINE">
        <polygon class="st2" points="504.3 1220.79 652.58 1220.79 652.58 1143.28 542.66 1143.28 504.3 1220.79"/>
      </g>
      <line class="st2" x1="504.06" y1="1160.29" x2="534.24" y2="1160.29"/>
    </g>
    <rect class="st5" x="487.87" y="1104.52" width="32.87" height="32.87" transform="translate(1625.26 616.65) rotate(90)"/>
    <g>
      <polygon class="st0" points="752.94 556.56 783.56 552.45 783.56 557.86 793.02 557.86 793.02 628.1 783.56 628.1 752.94 628.1 752.94 573.62 609.75 592.8 609.75 612.79 603.44 612.79 603.44 593.65 480.06 610.18 480.06 649.27 603.44 649.27 603.44 646.57 609.75 646.57 609.75 649.27 609.75 663.23 609.75 664.13 603.44 664.13 603.44 663.23 603.44 654.22 603.44 652.87 480.06 652.87 480.06 654.22 480.06 655.12 480.06 792.46 603.44 792.46 603.44 740.68 603.44 739.78 609.75 739.78 609.75 740.68 609.75 802.82 603.44 802.82 480.06 802.82 480.06 968.98 480.06 969.88 462.95 969.88 462.95 968.98 462.95 953.67 471.05 945.11 471.5 594.33 752.94 556.56"/>
      <polygon class="st0" points="752.94 721.31 784.46 721.31 784.46 725.37 784.46 807.77 784.6 807.77 784.6 812.72 793.02 812.72 793.02 893.78 793.02 908.64 793.02 914.04 783.56 914.04 752.94 914.04 752.94 822.18 752.94 812.72 752.94 811.82 752.94 807.77 752.94 725.37 752.94 721.31"/>
      <polygon class="st0" points="462.95 1053.63 480.06 1053.63 480.06 1054.99 480.06 1219.79 752.94 1219.79 752.94 1098.66 771.85 1098.66 793.02 1098.66 793.02 1199.53 793.02 1236.91 761.95 1236.91 644.42 1236.91 462.95 1236.91 462.95 1053.63"/>
    </g>
    <rect class="st4" x="618.46" y="783.61" width="10.36" height="28.05" transform="translate(-174 1421.27) rotate(-90)"/>
    <polygon class="st5" points="609.75 638 752.94 618.16 752.94 573.61 609.75 592.8 609.75 638"/>
  </g>
</svg>