<?xml version="1.0" encoding="UTF-8"?>
<svg xmlns="http://www.w3.org/2000/svg" version="1.1" viewBox="0 0 1200 1697.14">
  <!-- Generator: Adobe Illustrator 29.6.0, SVG Export Plug-In . SVG Version: 2.1.1 Build 207)  -->
  <defs>
    <style>
      .st0, .st1 {
        stroke: #0d101f;
      }

      .st0, .st1, .st2, .st3 {
        stroke-linecap: round;
        stroke-linejoin: round;
        stroke-width: .15px;
      }

      .st0, .st4 {
        fill: #fff;
      }

      .st1, .st2, .st3 {
        fill: none;
      }

      .st5 {
        fill: #383037;
      }

      .st2 {
        stroke: #1d1d1b;
      }

      .st3 {
        stroke: #11100e;
      }

      .st6 {
        fill: #f2efed;
      }
    </style>
  </defs>
  <g id="sfondo">
    <g>
      <polygon class="st6" points="771.09 575.12 771.09 1153.76 753.98 1153.76 753.08 1153.76 753.08 1136.65 753.98 1136.65 762.54 1136.65 762.54 615.65 692.74 615.65 692.74 575.12 713.46 575.12 713.46 573.77 728.77 573.77 728.77 575.12 771.09 575.12"/>
      <polygon class="st6" points="762.54 615.65 762.54 1136.65 753.98 1136.65 753.08 1136.65 753.08 1153.76 669.33 1153.76 669.33 1136.65 668.43 1136.65 603.58 1136.65 603.58 1084.86 603.58 1083.51 596.83 1083.51 596.83 1084.86 596.83 1136.65 473.9 1136.65 473.9 998.4 596.83 998.4 596.83 999.3 596.83 1007.41 596.83 1008.31 603.58 1008.31 603.58 1007.41 603.58 993.45 596.83 993.45 473.9 993.45 473.9 959.23 596.83 959.23 603.58 959.23 603.58 954.28 596.83 954.28 473.9 954.28 473.9 615.65 508.12 615.65 508.12 575.12 692.74 575.12 692.74 615.65 762.54 615.65"/>
      <polygon class="st6" points="669.33 1136.65 669.33 1153.76 668.43 1153.76 465.34 1153.76 465.34 575.12 508.12 575.12 508.12 615.65 473.9 615.65 473.9 954.28 596.83 954.28 603.58 954.28 603.58 959.23 596.83 959.23 473.9 959.23 473.9 993.45 596.83 993.45 603.58 993.45 603.58 1007.41 603.58 1008.31 596.83 1008.31 596.83 1007.41 596.83 999.3 596.83 998.4 473.9 998.4 473.9 1136.65 596.83 1136.65 596.83 1084.86 596.83 1083.51 603.58 1083.51 603.58 1084.86 603.58 1136.65 668.43 1136.65 669.33 1136.65"/>
    </g>
  </g>
  <g id="letto">
    <g>
      <g id="POLYLINE">
        <line class="st1" x1="500.31" y1="976.34" x2="500.44" y2="976.34"/>
      </g>
      <g id="POLYLINE1" data-name="POLYLINE">
        <line class="st1" x1="500.31" y1="976.34" x2="500.44" y2="976.34"/>
      </g>
      <g>
        <g>
          <polygon class="st4" points="477.57 782.45 477.57 782.01 555.08 782.01 555.08 930.29 554.1 929.8 554.1 782.45 477.57 782.45"/>
          <path class="st4" d="M477.57,891.93v-109.48h76.53v147.35l-17.01-8.41c-7.31-3.62-13.36-6.61-18.37-9.09l-2.63-1.3c-5.59-2.77-9.73-4.82-12.79-6.34l-1.16-.57-7.56-3.74-17.01-8.42Z"/>
          <path class="st4" d="M477.57,952.53v-60.6l17.01,8.42v30.18c0,1.94,1.56,3.51,3.5,3.51h35.51c1.94,0,3.5-1.57,3.5-3.51v-9.14l17.01,8.41v22.73h-76.53Z"/>
          <path class="st4" d="M494.58,930.53v-30.18l7.56,3.74c.37.19.75.38,1.16.57,3.06,1.52,7.2,3.57,12.79,6.34.85.41,1.72.85,2.63,1.3,5.01,2.48,11.06,5.47,18.37,9.09v9.14c0,1.94-1.56,3.51-3.5,3.51h-35.51c-1.94,0-3.5-1.57-3.5-3.51Z"/>
        </g>
        <g>
          <polyline class="st1" points="554.1 929.8 554.1 952.53 477.57 952.53 477.57 891.93"/>
          <polyline class="st1" points="537.09 921.39 554.1 929.8 555.08 930.29 555.08 782.01 477.57 782.01 477.57 782.45 477.57 891.93 494.58 900.35"/>
          <line class="st1" x1="516.09" y1="911" x2="518.72" y2="912.3"/>
          <line class="st1" x1="502.14" y1="904.09" x2="503.3" y2="904.66"/>
          <line class="st1" x1="533.59" y1="934.04" x2="498.08" y2="934.04"/>
          <path class="st1" d="M498.08,934.04c-1.94,0-3.5-1.57-3.5-3.51"/>
          <path class="st1" d="M537.09,930.53c0,1.94-1.56,3.51-3.5,3.51"/>
          <path class="st1" d="M537.09,930.53v-9.14c-7.31-3.62-13.36-6.61-18.37-9.09-.91-.45-1.78-.89-2.63-1.3-5.59-2.77-9.73-4.82-12.79-6.34-.41-.19-.79-.38-1.16-.57l-7.56-3.74v30.18"/>
        </g>
      </g>
      <g id="POLYLINE2" data-name="POLYLINE">
        <polygon class="st1" points="555.08 930.29 555.08 782.02 477.57 782.02 477.57 891.94 555.08 930.29"/>
      </g>
      <g id="POLYLINE3" data-name="POLYLINE">
        <polygon class="st1" points="555.08 930.29 555.08 782.02 477.57 782.02 477.57 891.94 555.08 930.29"/>
      </g>
      <g id="LINE">
        <line class="st1" x1="533.59" y1="934.04" x2="498.08" y2="934.04"/>
      </g>
      <g id="SPLINE">
        <path class="st1" d="M498.08,934.04c-1.94,0-3.5-1.57-3.5-3.5"/>
      </g>
      <g id="SPLINE1" data-name="SPLINE">
        <path class="st1" d="M537.09,930.54c0,1.93-1.57,3.5-3.5,3.5"/>
      </g>
      <g id="LINE1" data-name="LINE">
        <line class="st1" x1="533.59" y1="934.04" x2="498.08" y2="934.04"/>
      </g>
      <g id="SPLINE2" data-name="SPLINE">
        <path class="st1" d="M498.08,934.04c-1.94,0-3.5-1.57-3.5-3.5"/>
      </g>
      <g id="SPLINE3" data-name="SPLINE">
        <path class="st1" d="M537.09,930.54c0,1.93-1.57,3.5-3.5,3.5"/>
      </g>
      <line class="st1" x1="537.09" y1="930.54" x2="537.09" y2="921.39"/>
      <line class="st1" x1="494.57" y1="930.54" x2="494.57" y2="900.35"/>
    </g>
    <g>
      <rect class="st4" x="604.26" y="1084.89" width="55.54" height="55.15" transform="translate(1264.06 2224.93) rotate(-180)"/>
      <line class="st3" x1="605.82" y1="1084.89" x2="604.26" y2="1084.89"/>
      <line class="st3" x1="611.3" y1="1084.89" x2="608.56" y2="1084.89"/>
      <line class="st3" x1="616.78" y1="1084.89" x2="614.04" y2="1084.89"/>
      <line class="st3" x1="622.25" y1="1084.89" x2="619.51" y2="1084.89"/>
      <line class="st3" x1="627.73" y1="1084.89" x2="624.99" y2="1084.89"/>
      <line class="st3" x1="633.59" y1="1084.89" x2="630.47" y2="1084.89"/>
      <line class="st3" x1="639.07" y1="1084.89" x2="636.33" y2="1084.89"/>
      <line class="st3" x1="644.55" y1="1084.89" x2="641.81" y2="1084.89"/>
      <line class="st3" x1="650.02" y1="1084.89" x2="647.28" y2="1084.89"/>
      <line class="st3" x1="655.5" y1="1084.89" x2="652.76" y2="1084.89"/>
      <line class="st3" x1="659.8" y1="1084.89" x2="658.24" y2="1084.89"/>
      <line class="st3" x1="659.8" y1="1086.06" x2="659.8" y2="1084.89"/>
      <line class="st3" x1="659.8" y1="1091.54" x2="659.8" y2="1088.8"/>
      <line class="st3" x1="659.8" y1="1097.41" x2="659.8" y2="1094.67"/>
      <line class="st3" x1="659.8" y1="1102.88" x2="659.8" y2="1100.14"/>
      <line class="st3" x1="659.8" y1="1108.36" x2="659.8" y2="1105.62"/>
      <line class="st3" x1="659.8" y1="1113.83" x2="659.8" y2="1111.1"/>
      <line class="st3" x1="659.8" y1="1119.31" x2="659.8" y2="1116.57"/>
      <line class="st3" x1="659.8" y1="1125.18" x2="659.8" y2="1122.05"/>
      <line class="st3" x1="659.8" y1="1130.65" x2="659.8" y2="1127.92"/>
      <line class="st3" x1="659.8" y1="1136.13" x2="659.8" y2="1133.39"/>
      <line class="st3" x1="659.8" y1="1140.04" x2="659.8" y2="1138.87"/>
      <path class="st3" d="M604.26,1084.89"/>
    </g>
  </g>
  <g id="bianchi">
    <path class="st4" d="M550.16,1136.67v-27.68c0-.61.29-1.11.66-1.11h37.37c.45,0,.82.5.82,1.11v27.68h-38.85Z"/>
    <g id="LINE2" data-name="LINE">
      <path class="st4" d="M528.38,998.44v24.72c0,9.52-6.83,17.21-15.29,17.21s-15.28-7.69-15.28-17.21v-24.72h30.57Z"/>
    </g>
    <rect class="st4" x="508.12" y="575.15" width="184.62" height="21.16"/>
    <rect class="st4" x="548.64" y="998.43" width="27.02" height="2.03"/>
    <rect class="st4" x="543.24" y="1000.23" width="37.37" height="1.35"/>
    <rect class="st4" x="473.89" y="1068.63" width="68.77" height="68.04"/>
    <rect class="st4" x="669.32" y="1136.65" width="96.41" height="45.51"/>
  </g>
  <g id="Livello_1">
    <line class="st2" x1="603.58" y1="1011.04" x2="603.58" y2="1077.69"/>
    <polyline class="st2" points="473.89 1136.67 473.89 1068.63 482.04 1068.63"/>
    <line class="st2" x1="473.89" y1="1136.67" x2="542.12" y2="1136.67"/>
    <line class="st2" x1="542.66" y1="1135.55" x2="542.66" y2="1069.23"/>
    <polyline class="st2" points="542.66 1135.55 542.66 1136.67 542.12 1136.67"/>
    <polyline class="st2" points="541.65 1068.63 542.66 1068.63 542.66 1069.23"/>
    <line class="st2" x1="541.65" y1="1068.63" x2="482.04" y2="1068.63"/>
    <line class="st2" x1="508.01" y1="1136.67" x2="508.01" y2="1117.77"/>
    <circle class="st2" cx="508.1" cy="1117.86" r="4.23"/>
    <circle class="st2" cx="508.1" cy="1117.86" r="4.23"/>
    <circle class="st2" cx="569.58" cy="1132.38" r="2.2"/>
    <circle class="st2" cx="569.58" cy="1117.93" r="2.93" transform="translate(-384.46 303.07) rotate(-22.5)"/>
    <path class="st2" d="M568,1117.93c0-.87.71-1.58,1.58-1.58s1.58.71,1.58,1.58-.71,1.58-1.58,1.58-1.58-.71-1.58-1.58Z"/>
    <path class="st2" d="M588.27,1126.33v-16.22c0-.62-.37-1.11-.82-1.11h-35.72c-.45,0-.82.5-.82,1.11v16.22c0,.61.37,1.11.82,1.11h35.72c.45,0,.82-.5.82-1.11Z"/>
    <path class="st2" d="M588.92,1136.67v-27.68c0-.62-.29-1.11-.66-1.11h-37.37c-.45,0-.82.49-.82,1.11v27.68"/>
    <line class="st2" x1="550.07" y1="1117.77" x2="550.07" y2="1128.12"/>
    <line class="st2" x1="578.44" y1="1107.86" x2="559.98" y2="1107.86"/>
    <line class="st2" x1="550.07" y1="1117.77" x2="550.07" y2="1128.12"/>
    <line class="st2" x1="578.44" y1="1107.86" x2="559.98" y2="1107.86"/>
    <line class="st2" x1="550.07" y1="1128.12" x2="550.07" y2="1117.77"/>
    <line class="st2" x1="559.98" y1="1107.86" x2="578.44" y2="1107.86"/>
    <line class="st2" x1="550.07" y1="1117.77" x2="550.07" y2="1128.12"/>
    <line class="st2" x1="578.44" y1="1107.86" x2="559.98" y2="1107.86"/>
    <line class="st2" x1="550.07" y1="1117.77" x2="550.07" y2="1128.12"/>
    <line class="st2" x1="578.44" y1="1107.86" x2="559.98" y2="1107.86"/>
    <line class="st2" x1="550.07" y1="1128.12" x2="550.07" y2="1117.77"/>
    <line class="st2" x1="559.98" y1="1107.86" x2="578.44" y2="1107.86"/>
    <line class="st2" x1="548.64" y1="998.43" x2="548.64" y2="1000.23"/>
    <line class="st2" x1="575.66" y1="1000.23" x2="575.66" y2="998.43"/>
    <line class="st2" x1="580.61" y1="1000.23" x2="580.61" y2="1001.58"/>
    <line class="st2" x1="543.24" y1="1000.23" x2="580.61" y2="1000.23"/>
    <line class="st2" x1="543.24" y1="1001.58" x2="543.24" y2="1000.23"/>
    <line class="st2" x1="580.61" y1="1001.58" x2="543.24" y2="1001.58"/>
    <g>
      <g>
        <rect class="st4" x="684.45" y="940.59" width="101.77" height="51.33" transform="translate(-230.92 1701.6) rotate(-90)"/>
        <line class="st2" x1="709.67" y1="915.38" x2="761" y2="915.38"/>
        <rect class="st2" x="712.12" y="966.01" width="46.44" height="46.6"/>
        <rect class="st2" x="719.83" y="973.88" width="31.01" height="31.01"/>
        <rect class="st2" x="712.57" y="918.26" width="45.99" height="26.81"/>
        <line class="st2" x1="717.93" y1="932.08" x2="730.12" y2="932.08"/>
        <line class="st2" x1="741.01" y1="932.08" x2="753.19" y2="932.08"/>
        <line class="st2" x1="747.02" y1="938.09" x2="747.02" y2="925.9"/>
        <line class="st2" x1="724.11" y1="938.09" x2="724.11" y2="925.9"/>
        <line class="st2" x1="755.8" y1="989.31" x2="743.33" y2="989.31"/>
      </g>
      <line class="st2" x1="709.67" y1="915.38" x2="709.67" y2="1017.13"/>
    </g>
    <line class="st2" x1="473.89" y1="959.26" x2="596.82" y2="993.48"/>
    <line class="st2" x1="473.89" y1="993.48" x2="596.82" y2="959.26"/>
    <line class="st2" x1="687.78" y1="583.71" x2="687.78" y2="596.32"/>
    <line class="st2" x1="691.84" y1="583.71" x2="687.78" y2="583.71"/>
    <line class="st2" x1="691.84" y1="596.32" x2="691.84" y2="583.71"/>
    <line class="st2" x1="687.78" y1="596.32" x2="691.84" y2="596.32"/>
    <line class="st2" x1="601.33" y1="583.71" x2="601.33" y2="596.32"/>
    <line class="st2" x1="605.38" y1="583.71" x2="601.33" y2="583.71"/>
    <line class="st2" x1="605.38" y1="596.32" x2="605.38" y2="583.71"/>
    <line class="st2" x1="601.33" y1="596.32" x2="605.38" y2="596.32"/>
    <line class="st2" x1="605.38" y1="583.71" x2="687.78" y2="583.71"/>
    <line class="st2" x1="687.78" y1="596.32" x2="605.38" y2="596.32"/>
    <line class="st2" x1="605.38" y1="584.61" x2="605.38" y2="588.66"/>
    <line class="st2" x1="687.78" y1="584.61" x2="605.38" y2="584.61"/>
    <line class="st2" x1="687.78" y1="588.66" x2="687.78" y2="584.61"/>
    <line class="st2" x1="605.38" y1="588.66" x2="687.78" y2="588.66"/>
    <line class="st2" x1="517.12" y1="583.71" x2="592.32" y2="583.71"/>
    <line class="st2" x1="592.32" y1="583.71" x2="517.12" y2="583.71"/>
    <line class="st2" x1="511.72" y1="583.71" x2="597.28" y2="583.71"/>
    <line class="st2" x1="511.27" y1="583.71" x2="597.73" y2="583.71"/>
    <line class="st2" x1="599.98" y1="583.71" x2="509.02" y2="583.71"/>
    <line class="st2" x1="509.02" y1="583.71" x2="509.02" y2="596.32"/>
    <line class="st2" x1="517.12" y1="583.71" x2="509.02" y2="583.71"/>
    <line class="st2" x1="517.12" y1="590.46" x2="517.12" y2="583.71"/>
    <line class="st2" x1="513.52" y1="590.46" x2="517.12" y2="590.46"/>
    <line class="st2" x1="513.52" y1="596.32" x2="513.52" y2="590.46"/>
    <line class="st2" x1="509.02" y1="596.32" x2="513.52" y2="596.32"/>
    <line class="st2" x1="595.92" y1="590.46" x2="595.92" y2="596.32"/>
    <line class="st2" x1="592.32" y1="590.46" x2="595.92" y2="590.46"/>
    <line class="st2" x1="592.32" y1="583.71" x2="592.32" y2="590.46"/>
    <line class="st2" x1="599.98" y1="583.71" x2="592.32" y2="583.71"/>
    <line class="st2" x1="599.98" y1="596.32" x2="599.98" y2="583.71"/>
    <line class="st2" x1="595.92" y1="596.32" x2="599.98" y2="596.32"/>
    <line class="st2" x1="517.12" y1="590.46" x2="592.32" y2="590.46"/>
    <line class="st2" x1="517.12" y1="583.71" x2="592.32" y2="583.71"/>
    <line class="st2" x1="595.92" y1="596.32" x2="513.52" y2="596.32"/>
    <line class="st2" x1="517.12" y1="584.61" x2="517.12" y2="588.66"/>
    <line class="st2" x1="592.32" y1="584.61" x2="517.12" y2="584.61"/>
    <line class="st2" x1="592.32" y1="588.66" x2="592.32" y2="584.61"/>
    <line class="st2" x1="517.12" y1="588.66" x2="592.32" y2="588.66"/>
    <line class="st2" x1="603.58" y1="960.16" x2="601.33" y2="960.16"/>
    <polyline class="st2" points="603.58 1077.69 603.58 1081.29 673.38 1081.29"/>
    <line class="st2" x1="603.58" y1="1077.69" x2="603.58" y2="1011.04"/>
    <path class="st2" d="M528.39,998.43v24.72c0,9.52-6.84,17.22-15.29,17.22s-15.29-7.7-15.29-17.22v-24.72h30.58Z"/>
    <line class="st2" x1="473.89" y1="1136.67" x2="474.79" y2="1136.67"/>
    <line class="st2" x1="596.82" y1="993.48" x2="596.82" y2="959.26"/>
    <line class="st2" x1="603.58" y1="992.13" x2="603.58" y2="993.48"/>
    <line class="st2" x1="603.58" y1="959.26" x2="603.58" y2="960.16"/>
    <line class="st2" x1="601.33" y1="992.13" x2="601.33" y2="960.16"/>
    <line class="st2" x1="601.33" y1="960.16" x2="603.58" y2="960.16"/>
    <line class="st2" x1="603.58" y1="960.16" x2="603.58" y2="992.13"/>
    <line class="st2" x1="603.58" y1="992.13" x2="601.33" y2="992.13"/>
    <line class="st2" x1="603.58" y1="1077.69" x2="603.58" y2="1081.29"/>
    <line class="st2" x1="603.58" y1="1081.29" x2="673.38" y2="1081.29"/>
    <path class="st2" d="M673.38,1081.29c0-18.91-7.2-36.47-20.26-49.98-13.06-13.06-31.07-20.26-49.53-20.26"/>
    <line class="st2" x1="747.22" y1="1136.67" x2="671.57" y2="1136.67"/>
    <line class="st2" x1="747.22" y1="1136.67" x2="750.38" y2="1136.67"/>
    <line class="st2" x1="750.38" y1="1136.67" x2="750.38" y2="1057.87"/>
    <path class="st2" d="M750.38,1057.87c-20.71,0-40.98,8.56-55.39,22.97-14.86,14.86-23.42,35.12-23.42,55.84"/>
    <line class="st2" x1="509.02" y1="596.32" x2="508.12" y2="596.32"/>
    <line class="st2" x1="601.33" y1="596.32" x2="599.98" y2="596.32"/>
    <line class="st2" x1="692.74" y1="596.32" x2="691.84" y2="596.32"/>
    <line class="st2" x1="671.57" y1="1136.67" x2="747.22" y2="1136.67"/>
    <g>
      <path class="st4" d="M481.96,644.16c-.9,4.95-1.8,9.91-1.35,15.31,0,1.8.9,3.6,2.26,4.95.45,0,.9.45.9.9l14.86,12.16c.9.9,2.25,1.8,3.15,2.25,1.8.45,3.15.45,4.95,0,13.06-4.95,23.87-14.86,30.17-27.01.45-1.35.9-3.16.45-4.96-.45-1.35-1.35-2.25-1.8-3.15l-10.81-16.21-.9-.9c-1.35-1.35-2.7-2.7-4.5-3.15-5.4-.45-10.36-.45-15.31,0-5.4.45-10.36,2.7-14.41,6.3-4.05,3.6-6.75,8.11-7.66,13.51Z"/>
      <path class="st2" d="M504.03,624.35c4.95-.45,9.91-.45,15.31,0"/>
      <path class="st2" d="M519.34,624.35c1.8.45,3.15,1.8,4.5,3.15"/>
      <path class="st2" d="M523.84,627.5q.45.45.9.9"/>
      <line class="st2" x1="524.74" y1="628.4" x2="535.55" y2="644.61"/>
      <path class="st2" d="M535.55,644.61c.45.9,1.35,1.8,1.8,3.15"/>
      <path class="st2" d="M537.35,647.76c.45,1.8,0,3.6-.45,4.95"/>
      <path class="st2" d="M489.62,630.65c4.05-3.6,9.01-5.85,14.41-6.3"/>
      <path class="st2" d="M494.12,635.6c.9-.9,1.8-1.8,3.15-2.7"/>
      <path class="st2" d="M497.28,632.9c6.3-4.05,14.41-4.05,20.71,0"/>
      <path class="st2" d="M517.99,632.9c3.15,2.25,5.85,4.95,8.56,8.11"/>
      <path class="st2" d="M536.9,652.71c-6.3,12.16-17.11,22.06-30.17,27.02"/>
      <path class="st2" d="M480.61,659.47c-.45-5.4.45-10.36,1.35-15.31"/>
      <path class="st2" d="M482.87,664.42c-1.35-1.35-2.25-3.15-2.25-4.95"/>
      <path class="st2" d="M483.77,665.32c0-.45-.45-.9-.9-.9"/>
      <line class="st2" x1="483.77" y1="665.32" x2="498.63" y2="677.48"/>
      <path class="st2" d="M501.78,679.73c-.9-.45-2.25-1.35-3.15-2.25"/>
      <path class="st2" d="M506.73,679.73c-1.8.45-3.15.45-4.95,0"/>
      <path class="st2" d="M481.97,644.16c.9-5.4,3.6-9.91,7.66-13.51"/>
      <line class="st2" x1="491.42" y1="638.31" x2="494.12" y2="635.6"/>
      <path class="st2" d="M488.72,659.02c-3.15-6.75-2.25-14.86,2.7-20.71"/>
      <path class="st2" d="M495.92,668.48c-2.7-3.15-4.95-6.3-7.2-9.46"/>
    </g>
    <g>
      <g>
        <g>
          <polygon class="st4" points="709.4 689.42 709.4 757.86 702.2 757.86 665.72 757.86 658.52 757.86 658.52 689.42 665.72 689.42 702.2 689.42 709.4 689.42"/>
          <path class="st4" d="M702.2,689.42h-36.48c1.8-4.51,5.4-8.56,9.91-11.26.45-.45.45-.9,0-1.35-.45-.9-1.35-1.35-2.25-1.35-1.35.45-2.71,1.35-3.61,1.8q-.45.45-.9.45t-.9-.45q-.45,0-.45-.45c9.91-6.76,22.97-6.76,32.87,0q0,.45-.45.45c0,.45-.45.45-.9.45s-.45,0-.9-.45c-.9-.45-2.25-1.35-3.6-1.8-.9,0-1.8.45-2.25,1.35-.45.45-.45.9,0,1.35,4.95,2.7,8.1,6.75,9.91,11.26Z"/>
          <path class="st4" d="M665.72,757.86h36.48c-1.81,4.51-4.96,8.56-9.91,11.26-.45.45-.45.9,0,1.35.45.9,1.35,1.35,2.25,1.35,1.35-.45,2.7-1.35,3.6-1.8q.45-.45.9-.45c.45,0,.9.45.9.45q.45,0,.45.45c-9.9,7.21-22.96,7.21-32.87,0q0-.45.45-.45c.45,0,.45-.45.9-.45s.45,0,.9.45c.9.45,2.26,1.35,3.61,1.8.9,0,1.8-.45,2.25-1.35.45-.45.45-.9,0-1.35-4.51-2.7-8.11-6.75-9.91-11.26Z"/>
        </g>
        <line class="st2" x1="658.52" y1="757.86" x2="709.4" y2="757.86"/>
        <line class="st2" x1="709.4" y1="689.41" x2="658.52" y2="689.41"/>
        <path class="st2" d="M667.52,770.47c9.91,7.2,22.97,7.2,32.87,0"/>
        <path class="st2" d="M665.72,757.86c1.8,4.5,5.4,8.56,9.91,11.26"/>
        <path class="st2" d="M675.63,770.47c.45-.45.45-.9,0-1.35"/>
        <path class="st2" d="M669.77,770.02c.9.45,2.25,1.35,3.6,1.8"/>
        <path class="st2" d="M673.38,771.82c.9,0,1.8-.45,2.25-1.35"/>
        <path class="st2" d="M667.97,770.02q-.45,0-.45.45"/>
        <path class="st2" d="M668.87,769.57c-.45,0-.45.45-.9.45"/>
        <path class="st2" d="M669.77,770.02q-.45-.45-.9-.45"/>
        <path class="st2" d="M692.29,769.12c4.95-2.7,8.11-6.75,9.91-11.26"/>
        <path class="st2" d="M692.29,769.12c-.45.45-.45.9,0,1.35"/>
        <path class="st2" d="M694.54,771.82c1.35-.45,2.7-1.35,3.6-1.8"/>
        <path class="st2" d="M692.29,770.47c.45.9,1.35,1.35,2.25,1.35"/>
        <path class="st2" d="M700.39,770.47q0-.45-.45-.45"/>
        <path class="st2" d="M699.94,770.02s-.45-.45-.9-.45"/>
        <path class="st2" d="M699.04,769.57q-.45,0-.9.45"/>
        <path class="st2" d="M700.39,676.81c-9.91-6.75-22.97-6.75-32.87,0"/>
        <path class="st2" d="M675.63,678.16c-4.5,2.7-8.11,6.75-9.91,11.26"/>
        <path class="st2" d="M675.63,678.16c.45-.45.45-.9,0-1.35"/>
        <path class="st2" d="M673.38,675.46c-1.35.45-2.7,1.35-3.6,1.8"/>
        <path class="st2" d="M675.63,676.81c-.45-.9-1.35-1.35-2.25-1.35"/>
        <path class="st2" d="M667.52,676.81q0,.45.45.45"/>
        <path class="st2" d="M667.97,677.26q.45.45.9.45"/>
        <path class="st2" d="M668.87,677.71q.45,0,.9-.45"/>
        <path class="st2" d="M702.19,689.41c-1.8-4.5-4.95-8.56-9.91-11.26"/>
        <path class="st2" d="M692.29,676.81c-.45.45-.45.9,0,1.35"/>
        <path class="st2" d="M698.14,677.26c-.9-.45-2.25-1.35-3.6-1.8"/>
        <path class="st2" d="M694.54,675.46c-.9,0-1.8.45-2.25,1.35"/>
        <path class="st2" d="M699.94,677.26q.45,0,.45-.45"/>
        <path class="st2" d="M699.04,677.71c.45,0,.9,0,.9-.45"/>
        <path class="st2" d="M698.14,677.26q.45.45.9.45"/>
        <line class="st2" x1="658.52" y1="757.86" x2="658.52" y2="689.41"/>
      </g>
      <g>
        <polygon class="st4" points="760.28 689.42 760.28 757.86 753.08 757.86 716.6 757.86 709.4 757.86 709.4 689.42 716.6 689.42 753.08 689.42 760.28 689.42"/>
        <path class="st4" d="M753.08,689.42h-36.48c1.8-4.51,5.4-8.56,9.91-11.26.45-.45.45-.9,0-1.35-.45-.9-1.35-1.35-2.25-1.35-1.35.45-2.71,1.35-3.61,1.8q-.45.45-.9.45t-.9-.45q-.45,0-.45-.45c9.91-6.76,22.97-6.76,32.87,0q0,.45-.45.45c0,.45-.45.45-.9.45s-.45,0-.9-.45c-.9-.45-2.25-1.35-3.6-1.8-.9,0-1.8.45-2.25,1.35-.45.45-.45.9,0,1.35,4.95,2.7,8.1,6.75,9.91,11.26Z"/>
        <path class="st4" d="M716.6,757.86h36.48c-1.81,4.51-4.96,8.56-9.91,11.26-.45.45-.45.9,0,1.35.45.9,1.35,1.35,2.25,1.35,1.35-.45,2.7-1.35,3.6-1.8q.45-.45.9-.45c.45,0,.9.45.9.45q.45,0,.45.45c-9.9,7.21-22.96,7.21-32.87,0q0-.45.45-.45c.45,0,.45-.45.9-.45s.45,0,.9.45c.9.45,2.26,1.35,3.61,1.8.9,0,1.8-.45,2.25-1.35.45-.45.45-.9,0-1.35-4.51-2.7-8.11-6.75-9.91-11.26Z"/>
      </g>
      <line class="st2" x1="709.4" y1="757.86" x2="760.28" y2="757.86"/>
      <line class="st2" x1="760.28" y1="689.41" x2="709.4" y2="689.41"/>
      <path class="st2" d="M718.41,770.47c9.91,7.2,22.97,7.2,32.87,0"/>
      <path class="st2" d="M716.6,757.86c1.8,4.5,5.4,8.56,9.91,11.26"/>
      <path class="st2" d="M726.51,770.47c.45-.45.45-.9,0-1.35"/>
      <path class="st2" d="M720.66,770.02c.9.45,2.25,1.35,3.6,1.8"/>
      <path class="st2" d="M724.26,771.82c.9,0,1.8-.45,2.25-1.35"/>
      <path class="st2" d="M718.86,770.02q-.45,0-.45.45"/>
      <path class="st2" d="M719.76,769.57c-.45,0-.45.45-.9.45"/>
      <path class="st2" d="M720.66,770.02q-.45-.45-.9-.45"/>
      <path class="st2" d="M743.17,769.12c4.95-2.7,8.11-6.75,9.91-11.26"/>
      <path class="st2" d="M743.17,769.12c-.45.45-.45.9,0,1.35"/>
      <path class="st2" d="M745.42,771.82c1.35-.45,2.7-1.35,3.6-1.8"/>
      <path class="st2" d="M743.17,770.47c.45.9,1.35,1.35,2.25,1.35"/>
      <path class="st2" d="M751.28,770.47q0-.45-.45-.45"/>
      <path class="st2" d="M750.83,770.02s-.45-.45-.9-.45"/>
      <path class="st2" d="M749.93,769.57q-.45,0-.9.45"/>
      <path class="st2" d="M751.28,676.81c-9.91-6.75-22.97-6.75-32.87,0"/>
      <path class="st2" d="M726.51,678.16c-4.5,2.7-8.11,6.75-9.91,11.26"/>
      <path class="st2" d="M726.51,678.16c.45-.45.45-.9,0-1.35"/>
      <path class="st2" d="M724.26,675.46c-1.35.45-2.7,1.35-3.6,1.8"/>
      <path class="st2" d="M726.51,676.81c-.45-.9-1.35-1.35-2.25-1.35"/>
      <path class="st2" d="M718.41,676.81q0,.45.45.45"/>
      <path class="st2" d="M718.86,677.26q.45.45.9.45"/>
      <path class="st2" d="M719.76,677.71q.45,0,.9-.45"/>
      <path class="st2" d="M753.08,689.41c-1.8-4.5-4.95-8.56-9.91-11.26"/>
      <path class="st2" d="M743.17,676.81c-.45.45-.45.9,0,1.35"/>
      <path class="st2" d="M749.03,677.26c-.9-.45-2.25-1.35-3.6-1.8"/>
      <path class="st2" d="M745.42,675.46c-.9,0-1.8.45-2.25,1.35"/>
      <path class="st2" d="M750.83,677.26q.45,0,.45-.45"/>
      <path class="st2" d="M749.93,677.71c.45,0,.9,0,.9-.45"/>
      <path class="st2" d="M749.03,677.26q.45.45.9.45"/>
      <line class="st1" x1="760.28" y1="689.41" x2="760.28" y2="757.86"/>
    </g>
    <circle class="st0" cx="580.61" cy="933.59" r="15.33"/>
  </g>
  <g id="pareti">
    <g>
      <polygon class="st5" points="771.09 575.16 771.09 1153.79 753.98 1153.79 753.08 1153.79 753.08 1136.68 753.98 1136.68 762.53 1136.68 762.53 615.68 692.74 615.68 692.74 575.16 713.45 575.16 713.45 573.81 728.76 573.81 728.76 575.16 771.09 575.16"/>
      <polygon class="st5" points="669.32 1136.68 669.32 1153.79 668.42 1153.79 465.34 1153.79 465.34 575.16 508.11 575.16 508.11 615.68 473.89 615.68 473.89 954.31 596.82 954.31 603.58 954.31 603.58 959.26 596.82 959.26 473.89 959.26 473.89 993.48 596.82 993.48 603.58 993.48 603.58 1007.44 603.58 1008.34 596.82 1008.34 596.82 1007.44 596.82 999.34 596.82 998.44 473.89 998.44 473.89 1136.68 596.82 1136.68 596.82 1084.89 596.82 1083.54 603.58 1083.54 603.58 1084.89 603.58 1136.68 668.42 1136.68 669.32 1136.68"/>
    </g>
  </g>
</svg>