<?xml version="1.0" encoding="UTF-8"?>
<svg id="Vinduer_i_facade" xmlns="http://www.w3.org/2000/svg" version="1.1" viewBox="0 0 1200 1697.14">
  <!-- Generator: Adobe Illustrator 29.6.0, SVG Export Plug-In . SVG Version: 2.1.1 Build 207)  -->
  <defs>
    <style>
      .st0 {
        fill: #e2dedb;
      }

      .st1, .st2, .st3, .st4, .st5, .st6, .st7, .st8, .st9, .st10, .st11, .st12 {
        stroke: #363a3b;
      }

      .st1, .st4, .st13, .st14, .st15, .st12, .st16 {
        stroke-width: .28px;
      }

      .st1, .st8 {
        stroke-miterlimit: 10;
      }

      .st1, .st17, .st10, .st11, .st12 {
        fill: #fff;
      }

      .st2 {
        stroke-width: .3px;
      }

      .st2, .st3, .st4, .st5, .st6, .st7, .st13, .st8, .st9, .st14, .st18, .st15, .st16 {
        fill: none;
      }

      .st2, .st3, .st4, .st5, .st6, .st7, .st13, .st9, .st14, .st18, .st10, .st15, .st11, .st12, .st16 {
        stroke-linecap: round;
        stroke-linejoin: round;
      }

      .st3 {
        stroke-width: .28px;
      }

      .st5, .st11 {
        stroke-width: .28px;
      }

      .st6 {
        stroke-width: .29px;
      }

      .st19 {
        fill: #ece8e5;
      }

      .st7 {
        stroke-dasharray: .06 .42;
        stroke-width: .18px;
      }

      .st13, .st14, .st18, .st15 {
        stroke: #000;
      }

      .st8 {
        stroke-width: .29px;
      }

      .st9, .st18 {
        stroke-dasharray: .06 .43;
        stroke-width: .18px;
      }

      .st14 {
        stroke-dasharray: .09 .69;
      }

      .st10 {
        stroke-width: .34px;
      }

      .st20 {
        fill: #302c35;
      }

      .st15 {
        stroke-dasharray: .09 .68;
      }

      .st16 {
        stroke: #00001d;
      }
    </style>
  </defs>
  <polygon class="st19" points="562.91 1054.11 563.28 1081.55 720.99 1081.55 720.63 618.92 569.47 618.92 569.69 769.28 482.42 769.28 482.2 800.03 469.53 800.03 469.53 1054.11 562.91 1054.11"/>
  <polygon class="st0" points="503.71 782.22 503.77 816.91 477.92 816.91 477.92 921.54 573.86 921.54 573.86 782.22 503.71 782.22"/>
  <rect class="st18" x="477.92" y="771.91" width="95.82" height="149.63"/>
  <g>
    <polygon class="st8" points="505.54 782.65 542.87 782.61 573.57 782.52 573.64 816.78 505.6 816.91 505.54 782.65"/>
    <g>
      <g>
        <polyline class="st3" points="512.46 812.06 512.42 790.86 533.62 790.83 533.66 812.02 512.46 812.06"/>
        <line class="st3" x1="523.08" y1="795.97" x2="523.07" y2="787.45"/>
      </g>
      <polyline class="st3" points="507.3 815.17 507.24 784.38 538.77 784.32 538.83 815.11 507.3 815.17"/>
    </g>
    <g>
      <g>
        <line class="st6" x1="563.65" y1="811.99" x2="563.63" y2="803.75"/>
        <line class="st6" x1="563.62" y1="796.39" x2="563.6" y2="788.15"/>
        <line class="st6" x1="567.42" y1="792.32" x2="559.7" y2="792.33"/>
        <line class="st6" x1="567.45" y1="807.81" x2="559.73" y2="807.83"/>
      </g>
      <polyline class="st2" points="555.27 815.08 555.22 784.29 571.88 784.25 571.93 815.05 555.27 815.08"/>
    </g>
  </g>
  <g>
    <g>
      <path class="st12" d="M636.13,842.33c0,7.12,6.14,12.9,13.72,12.9,5.58,0,11.1-3.65,13.01-8.79.26-.7.79-2.18.71-4.11-.24-6.06-6.28-12.9-13.72-12.9s-13.72,5.78-13.72,12.9Z"/>
      <path class="st4" d="M661.76,845.23c0,4.38-5.33,7.92-11.91,7.92"/>
      <path class="st4" d="M637.94,845.23c0,4.38,5.33,7.92,11.91,7.92"/>
      <path class="st4" d="M637.94,845.23c0-.86-.68-1.56-1.53-1.56"/>
      <path class="st4" d="M661.76,845.23c0-.86.74-1.56,1.66-1.56"/>
    </g>
    <g>
      <path class="st12" d="M636.13,798.06c0-7.12,6.14-12.9,13.72-12.9,5.58,0,11.1,3.65,13.01,8.79.26.7.79,2.18.71,4.11-.24,6.06-6.28,12.9-13.72,12.9-7.58,0-13.72-5.78-13.72-12.9Z"/>
      <path class="st4" d="M661.76,795.17c0-4.38-5.33-7.92-11.91-7.92"/>
      <path class="st4" d="M637.94,795.17c0-4.38,5.33-7.92,11.91-7.92"/>
      <path class="st4" d="M637.94,795.17c0,.86-.68,1.56-1.53,1.56"/>
      <path class="st4" d="M661.76,795.17c0,.86.74,1.56,1.66,1.56"/>
    </g>
    <rect class="st12" x="632.01" y="798.93" width="35.68" height="40.44" transform="translate(1469 169.3) rotate(90)"/>
  </g>
  <g>
    <line class="st4" x1="576.67" y1="802.24" x2="576.67" y2="821.5"/>
    <line class="st4" x1="578.05" y1="821.5" x2="578.05" y2="802.24"/>
    <polyline class="st4" points="576.67 821.5 576.67 824.38 578.05 824.38 578.05 821.5 576.67 821.5"/>
    <polyline class="st4" points="576.67 799.42 576.67 802.24 578.05 802.24 578.05 799.42 576.67 799.42"/>
    <line class="st4" x1="573.61" y1="801.22" x2="576.43" y2="801.22"/>
    <line class="st4" x1="573.61" y1="822.39" x2="576.43" y2="822.39"/>
  </g>
  <rect class="st20" x="560.34" y="1077.74" width="136.73" height="8.5"/>
  <rect class="st20" x="565.36" y="612.61" width="131.71" height="8.5"/>
  <rect class="st20" x="477.93" y="761.28" width="88.28" height="21.26"/>
  <rect class="st20" x="696.31" y="1050.42" width="34.02" height="46.85"/>
  <rect class="st20" x="696.31" y="893.29" width="34.02" height="41.06"/>
  <polygon class="st20" points="730.33 736.86 696.31 736.86 696.45 777.51 730.47 777.51 730.33 736.86"/>
  <rect class="st20" x="696.31" y="599.88" width="34.02" height="21.26"/>
  <g>
    <path class="st4" d="M522.06,870.76c0-11.6-4.79-22.95-13.11-31.27-8.07-8.07-19.42-12.86-31.01-12.86"/>
    <line class="st4" x1="479.7" y1="870.76" x2="522.06" y2="870.76"/>
    <polyline class="st4" points="477.93 826.64 477.93 870.76 479.7 870.76"/>
  </g>
  <path class="st1" d="M486.39,1045.35v-16.09c0-6.19,4.45-11.2,9.95-11.2s9.95,5.01,9.95,11.2v16.09s-19.9,0-19.9,0Z"/>
  <g>
    <path class="st11" d="M560.64,990.34h-18.5c-.41,0-.74-.21-.74-.47v-26.59c0-.32.33-.59.74-.59h18.5"/>
    <path class="st4" d="M557.95,975.47c-.55,0-1,.45-1,1s.45,1,1,1,1-.45,1-1-.45-1-1-1"/>
    <g>
      <path class="st4" d="M549.14,975.26c-.68,0-1.23.55-1.23,1.23s.55,1.23,1.23,1.23,1.23-.55,1.23-1.23-.55-1.23-1.23-1.23"/>
      <path class="st4" d="M549.14,974.68c-1,0-1.82.81-1.82,1.82s.81,1.82,1.82,1.82,1.82-.81,1.82-1.82-.81-1.82-1.82-1.82"/>
    </g>
    <path class="st5" d="M554.73,988.32h-10.82c-.41,0-.74-.23-.74-.52v-22.61c0-.29.33-.52.74-.52h10.82c.41,0,.74.23.74.52v22.61c0,.29-.33.52-.74.52Z"/>
  </g>
  <rect class="st20" x="534.8" y="948.59" width="32.37" height="8.5"/>
  <rect class="st20" x="469.53" y="948.6" width="21.14" height="8.5"/>
  <rect class="st20" x="559.84" y="894.28" width="8.5" height="191.91"/>
  <rect class="st20" x="565.36" y="614.61" width="8.5" height="167.93"/>
  <rect class="st20" x="477.92" y="761.28" width="27.63" height="55.63"/>
  <rect class="st20" x="469.53" y="952.79" width="13.7" height="105.7"/>
  <rect class="st20" x="469.53" y="870.76" width="8.5" height="81.34"/>
  <rect class="st20" x="469.53" y="799.71" width="8.5" height="26.92"/>
  <g>
    <path class="st4" d="M490.68,995.8c11.6,0,22.95-4.79,31.27-13.11,8.07-8.07,12.86-19.42,12.86-31.01"/>
    <line class="st4" x1="490.68" y1="953.44" x2="490.68" y2="995.8"/>
    <polyline class="st4" points="534.8 951.68 490.68 951.68 490.68 953.44"/>
  </g>
  <rect class="st20" x="560.01" y="921.33" width="49.32" height="8.5"/>
  <g>
    <path class="st4" d="M609.08,969.23c11.6,0,22.95-4.79,31.27-13.11,8.07-8.07,12.86-19.42,12.86-31.01"/>
    <line class="st4" x1="609.08" y1="926.87" x2="609.08" y2="969.23"/>
    <polyline class="st4" points="653.21 925.11 609.08 925.11 609.08 926.87"/>
  </g>
  <g>
    <rect class="st12" x="571.6" y="997.62" width="113.09" height="76.97" transform="translate(1258.22 2071.04) rotate(179.89)"/>
    <rect class="st12" x="568.97" y="1023.43" width="56.52" height="27.44" rx="1.42" ry="1.42" transform="translate(1633.27 437.99) rotate(89.89)"/>
    <polygon class="st12" points="586.46 1075.65 685.06 1075.47 684.91 997.52 611.82 997.65 586.46 1075.65"/>
  </g>
  <g>
    <path class="st10" d="M684.2,664.09c-14,2.28-28.35,2.51-42.45.69-.6,0-1.13-.36-1.26-.86-.04-11.81-.09-23.62-.13-35.42"/>
    <path class="st10" d="M684.2,664.09c.23-.03.41-.2.43-.41v-3.31s0-31.41,0-31.41l-44.31-.47c-.04,11.81-.09,23.62-.13,35.42-.14.51-.66.86-1.26.86-14.09,1.83-28.44,1.59-42.45-.69-.23-.03-.41-.2-.43-.41v-3.31s0-31.89,0-31.89h44.27"/>
    <path class="st10" d="M684.01,626.69c.14,1.1.14,2.19.02,3.3-.03.21-.24.37-.49.37-14.16.33-28.32.41-42.48.24-.36-.04-.62-.3-.63-.61-.1-1.21-.08-2.41.06-3.61"/>
    <path class="st10" d="M596.67,626.69c-.14,1.1-.14,2.19-.02,3.3.03.21.24.37.49.37,14.16.33,28.32.41,42.48.24.36-.04.62-.3.63-.61.1-1.21.08-2.41-.06-3.61"/>
    <path class="st10" d="M596.14,626.05v-.39c0-.13.12-.23.27-.23,29.29,0,58.59,0,87.88,0,.15,0,.27.1.27.23v.39s-.12.27-.12.27h-.67s-87.63-.27-87.63-.27Z"/>
    <path class="st10" d="M682.58,633.51c.86,0,1.56-2.04,1.56-4.57,0-.2-.01-.4-.02-.6l-.11-1.65c-.03-.21-.24-.37-.49-.37h-43.09v3.67c.02,1.2.04,2.39.07,3.59.14.51.66.86,1.26.86,13.55,1.93,27.41,1.61,40.83-.93Z"/>
    <path class="st10" d="M598.17,633.51c-.86,0-1.56-2.04-1.56-4.57,0-.2.01-.4.02-.6l.11-1.65c.03-.21.24-.37.49-.37h43.09v3.67c-.02,1.2-.04,2.39-.07,3.59-.14.51-.66.86-1.26.86-13.55,1.93-27.41,1.61-40.83-.93Z"/>
    <path class="st10" d="M683.72,630.33c-.2.49-.36.99-.49,1.5-.26.57-.48,1.15-.67,1.74-.26.81-.53,1.61-.8,2.41-.38,1.11-.64,2.23-.81,3.38-.1.7-.18,1.41-.23,2.12-.05.75-.1,1.5-.14,2.26-.1,1.79-.1,3.58,0,5.37.1,1.81.35,3.59.75,5.37.3,1.34.73,2.63,1.29,3.9.36.8.87,1.41,1.66,1.95.07.05.13.06.22.06h.78c.21-.08.34-.18.43-.37,0-11.4,0-22.8,0-34.2,0-.2-.19-.37-.43-.37h-.24c-.24,0-.43.16-.45.37-.07.47-.13.94-.2,1.42-.04.63-.14,1.25-.29,1.87l-.38,1.24Z"/>
    <path class="st10" d="M596.97,630.33c.2.49.36.99.49,1.5.26.57.48,1.15.67,1.74.26.81.53,1.61.8,2.41.38,1.11.64,2.23.81,3.38.1.7.18,1.41.23,2.12.05.75.1,1.5.14,2.26.1,1.79.1,3.58,0,5.37-.1,1.81-.35,3.59-.75,5.37-.3,1.34-.73,2.63-1.29,3.9-.36.8-.87,1.41-1.66,1.95-.07.05-.13.06-.22.06h-.78c-.21-.08-.34-.18-.43-.37,0-11.4,0-22.8,0-34.2,0-.2.19-.37.43-.37h.24c.24,0,.43.16.45.37.07.47.13.94.2,1.42.04.63.14,1.25.29,1.87l.38,1.24Z"/>
  </g>
  <g>
    <g>
      <path class="st12" d="M665.4,746.96c-5.98-8.02-11.96-16.04-17.94-24.06-.17-.41,0-.92.42-1.23,8.62-8.41,18.45-15.55,29.1-21.14.18-.1.38-.07.5.06.56.75,1.12,1.49,1.68,2.24l16.23,21.6-29.98,22.53"/>
      <path class="st12" d="M666.95,748.51c-.65-.68-1.21-1.41-1.69-2.22-.09-.16-.02-.38.15-.5,9.42-7.43,18.97-14.69,28.65-21.78.26-.15.58-.11.74.09.69.77,1.28,1.59,1.8,2.48"/>
      <path class="st12" d="M664.45,743.16c-.58.44-.02,2.18,1.27,3.89.11.13.21.27.32.4l.91,1.06c.13.13.35.13.52,0l29.19-21.93-1.87-2.48c-.62-.8-1.25-1.6-1.87-2.4-.35-.27-.89-.25-1.29.06-10.16,5.59-19.38,12.86-27.18,21.41Z"/>
      <path class="st12" d="M665.44,744.85c-.12-.43-.26-.85-.43-1.26-.12-.52-.26-1.03-.43-1.52-.23-.68-.46-1.36-.69-2.04-.31-.94-.7-1.84-1.17-2.7-.29-.53-.6-1.04-.92-1.55-.35-.54-.7-1.07-1.05-1.6-.84-1.26-1.75-2.47-2.73-3.64-.99-1.17-2.06-2.25-3.24-3.25-.88-.75-1.83-1.41-2.86-1.98-.65-.36-1.31-.51-2.11-.48-.07,0-.12.02-.18.07l-.53.4c-.11.16-.13.3-.1.47,5.8,7.72,11.6,15.44,17.4,23.16.1.14.32.15.48.03l.16-.12h0c.16-.12.21-.33.12-.48-.2-.35-.39-.71-.59-1.06-.29-.45-.54-.91-.76-1.41l-.37-1.03Z"/>
      <path class="st12" d="M693.53,723.75c-.38-.23-.74-.49-1.09-.77-.47-.26-.91-.53-1.34-.84-.59-.41-1.18-.82-1.77-1.23-.82-.56-1.57-1.18-2.27-1.88-.43-.43-.84-.86-1.23-1.32-.42-.48-.83-.97-1.25-1.45-.98-1.16-1.89-2.37-2.73-3.64-.85-1.28-1.59-2.61-2.22-4.02-.48-1.06-.84-2.15-1.11-3.3-.17-.73-.13-1.4.13-2.16.02-.06.06-.11.11-.15l.53-.4c.18-.06.32-.05.48.03,5.8,7.72,11.6,15.44,17.4,23.16.1.14.06.35-.1.47l-.16.12h0c-.16.12-.37.11-.49-.02-.28-.29-.57-.57-.85-.86-.35-.41-.73-.78-1.14-1.12l-.89-.65Z"/>
    </g>
    <circle class="st1" cx="631.21" cy="698.57" r="13.02"/>
  </g>
  <rect class="st20" x="552.6" y="669.71" width="21.26" height="112.83"/>
  <rect class="st17" x="665.64" y="890.54" width="27.55" height="33.8" transform="translate(1586.85 228.02) rotate(90)"/>
  <rect class="st17" x="571.81" y="891.13" width="26.71" height="33.7" transform="translate(1493.13 322.81) rotate(90)"/>
  <rect class="st17" x="568.43" y="929.55" width="33.47" height="33.7" transform="translate(1531.56 361.23) rotate(90)"/>
  <g>
    <g>
      <line class="st4" x1="696.46" y1="893.47" x2="662.33" y2="893.47"/>
      <path class="st4" d="M662.33,894.21"/>
      <line class="st4" x1="662.33" y1="893.47" x2="662.33" y2="921.11"/>
      <path class="st16" d="M662.33,921.48"/>
      <line class="st4" x1="696.17" y1="921.4" x2="662.33" y2="921.4"/>
    </g>
    <path class="st9" d="M662.15,921l-16.54-22.4s7.42-4.67,16.54-4.71"/>
  </g>
  <g>
    <g>
      <line class="st4" x1="568.31" y1="894.47" x2="602.16" y2="894.47"/>
      <path class="st4" d="M602.16,895.21"/>
      <line class="st4" x1="602.16" y1="894.47" x2="602.16" y2="922.11"/>
      <path class="st16" d="M602.16,922.48"/>
      <line class="st4" x1="568.31" y1="922.11" x2="602.16" y2="922.11"/>
    </g>
    <path class="st9" d="M602.33,922l16.54-22.4s-7.42-4.67-16.54-4.71"/>
  </g>
  <g>
    <line class="st17" x1="602.09" y1="963.48" x2="568.38" y2="963.48"/>
    <line class="st17" x1="602" y1="963.44" x2="568.15" y2="963.44"/>
    <g>
      <line class="st4" x1="568.31" y1="929.61" x2="602.16" y2="929.61"/>
      <path class="st4" d="M602.16,930.51"/>
      <line class="st4" x1="602.16" y1="929.61" x2="602.16" y2="963.18"/>
      <path class="st16" d="M602.16,963.63"/>
      <line class="st4" x1="568.31" y1="963.18" x2="602.16" y2="963.18"/>
    </g>
    <path class="st9" d="M602.33,929.61l16.54,27.36s-7.42,5.71-16.54,5.76"/>
  </g>
  <rect class="st20" x="653.21" y="921.33" width="77.12" height="8.5"/>
  <g>
    <polyline class="st13" points="515.76 1000.06 515.71 1000.06 515.71 1000.11"/>
    <line class="st14" x1="515.71" y1="1000.8" x2="515.71" y2="1044.32"/>
    <polyline class="st13" points="515.71 1044.67 515.71 1044.71 515.76 1044.71"/>
    <line class="st15" x1="516.44" y1="1044.71" x2="559.45" y2="1044.71"/>
    <polyline class="st13" points="559.79 1044.71 559.84 1044.71 559.84 1044.67"/>
    <line class="st14" x1="559.84" y1="1043.97" x2="559.84" y2="1000.45"/>
    <polyline class="st13" points="559.84 1000.11 559.84 1000.06 559.79 1000.06"/>
    <line class="st15" x1="559.11" y1="1000.06" x2="516.1" y2="1000.06"/>
  </g>
  <g>
    <line class="st4" x1="537.11" y1="1044.16" x2="537.11" y2="1031.86"/>
    <path class="st12" d="M534.42,1031.92c0,1.52,1.23,2.75,2.75,2.75s2.75-1.23,2.75-2.75-1.23-2.75-2.75-2.75-2.75,1.23-2.75,2.75"/>
  </g>
  <rect class="st20" x="469.53" y="1044.71" width="97.64" height="27.25"/>
  <g>
    <g>
      <path class="st7" d="M720.76,648.94c-5.28-.83-9.74-3.43-13.81-7.4-4.86-4.73-7.75-11.38-7.75-18.18"/>
      <line class="st7" x1="699.2" y1="623.36" x2="720.92" y2="623.36"/>
    </g>
    <g>
      <path class="st9" d="M720.88,709.04c-5.28.84-9.74,3.45-13.81,7.42-4.86,4.75-7.75,11.43-7.75,18.25"/>
      <line class="st9" x1="699.32" y1="734.72" x2="721.38" y2="734.72"/>
    </g>
    <line class="st4" x1="723.38" y1="734.72" x2="720.92" y2="734.72"/>
    <polyline class="st4" points="722.84 680.54 722.84 706.1 725.12 706.1 725.12 680.54 722.84 680.54"/>
    <polyline class="st4" points="722.84 652.04 722.84 677.6 725.12 677.6 725.12 652.04 722.84 652.04"/>
    <polyline class="st4" points="722.84 709.04 722.84 734.72 725.12 734.72 725.12 709.04 722.84 709.04"/>
    <polyline class="st4" points="722.84 623.36 722.84 649.04 725.12 649.04 725.12 623.36 722.84 623.36"/>
    <line class="st4" x1="727.16" y1="707.78" x2="727.16" y2="736.04"/>
    <line class="st4" x1="727.16" y1="622.04" x2="727.16" y2="650.36"/>
    <line class="st4" x1="727.16" y1="650.72" x2="727.16" y2="678.86"/>
    <line class="st4" x1="727.16" y1="679.22" x2="727.16" y2="707.36"/>
    <line class="st4" x1="726.26" y1="709.04" x2="726.26" y2="734.72"/>
    <line class="st4" x1="726.26" y1="680.54" x2="726.26" y2="706.1"/>
    <line class="st4" x1="726.26" y1="652.04" x2="726.26" y2="677.6"/>
    <line class="st4" x1="726.26" y1="623.36" x2="726.26" y2="649.04"/>
    <polyline class="st4" points="727.16 622.04 727.16 621.62 720.86 621.62 720.86 623.36 726.26 623.36 726.26 622.04 727.16 622.04"/>
    <polyline class="st4" points="727.16 679.22 727.16 678.86 726.26 678.86 726.26 677.6 720.86 677.6 720.86 680.54 726.26 680.54 726.26 679.22 727.16 679.22"/>
    <polyline class="st4" points="727.16 650.72 727.16 650.36 726.26 650.36 726.26 649.04 720.86 649.04 720.86 652.04 726.26 652.04 726.26 650.72 727.16 650.72"/>
    <polyline class="st4" points="727.16 736.46 727.16 736.04 726.26 736.04 726.26 734.72 720.86 734.72 720.86 736.46 727.16 736.46"/>
    <polyline class="st4" points="727.16 707.78 727.16 707.36 726.26 707.36 726.26 706.1 720.86 706.1 720.86 709.04 726.26 709.04 726.26 707.78 727.16 707.78"/>
    <line class="st4" x1="720.86" y1="734.72" x2="720.86" y2="709.04"/>
    <line class="st4" x1="720.86" y1="706.1" x2="720.86" y2="680.54"/>
    <line class="st4" x1="720.86" y1="677.6" x2="720.86" y2="652.04"/>
    <line class="st4" x1="720.86" y1="649.04" x2="720.86" y2="623.36"/>
    <line class="st4" x1="725.12" y1="647.96" x2="725.12" y2="624.5"/>
    <line class="st4" x1="725.12" y1="733.64" x2="725.12" y2="710.18"/>
    <line class="st4" x1="730.16" y1="620.96" x2="730.16" y2="737.18"/>
  </g>
  <g>
    <g>
      <path class="st7" d="M720.76,805.32c-5.28-.83-9.74-3.43-13.81-7.4-4.86-4.73-7.75-11.38-7.75-18.18"/>
      <line class="st7" x1="699.2" y1="779.74" x2="720.92" y2="779.74"/>
    </g>
    <g>
      <path class="st9" d="M720.88,865.42c-5.28.84-9.74,3.45-13.81,7.42-4.86,4.75-7.75,11.43-7.75,18.25"/>
      <line class="st9" x1="699.32" y1="891.1" x2="721.38" y2="891.1"/>
    </g>
    <line class="st4" x1="723.38" y1="891.1" x2="720.92" y2="891.1"/>
    <polyline class="st4" points="722.84 836.92 722.84 862.48 725.12 862.48 725.12 836.92 722.84 836.92"/>
    <polyline class="st4" points="722.84 808.42 722.84 833.98 725.12 833.98 725.12 808.42 722.84 808.42"/>
    <polyline class="st4" points="722.84 865.42 722.84 891.1 725.12 891.1 725.12 865.42 722.84 865.42"/>
    <polyline class="st4" points="722.84 779.74 722.84 805.42 725.12 805.42 725.12 779.74 722.84 779.74"/>
    <line class="st4" x1="727.16" y1="864.16" x2="727.16" y2="892.42"/>
    <line class="st4" x1="727.16" y1="778.42" x2="727.16" y2="806.74"/>
    <line class="st4" x1="727.16" y1="807.1" x2="727.16" y2="835.24"/>
    <line class="st4" x1="727.16" y1="835.6" x2="727.16" y2="863.74"/>
    <line class="st4" x1="726.26" y1="865.42" x2="726.26" y2="891.1"/>
    <line class="st4" x1="726.26" y1="836.92" x2="726.26" y2="862.48"/>
    <line class="st4" x1="726.26" y1="808.42" x2="726.26" y2="833.98"/>
    <line class="st4" x1="726.26" y1="779.74" x2="726.26" y2="805.42"/>
    <polyline class="st4" points="727.16 778.42 727.16 778 720.86 778 720.86 779.74 726.26 779.74 726.26 778.42 727.16 778.42"/>
    <polyline class="st4" points="727.16 835.6 727.16 835.24 726.26 835.24 726.26 833.98 720.86 833.98 720.86 836.92 726.26 836.92 726.26 835.6 727.16 835.6"/>
    <polyline class="st4" points="727.16 807.1 727.16 806.74 726.26 806.74 726.26 805.42 720.86 805.42 720.86 808.42 726.26 808.42 726.26 807.1 727.16 807.1"/>
    <polyline class="st4" points="727.16 892.84 727.16 892.42 726.26 892.42 726.26 891.1 720.86 891.1 720.86 892.84 727.16 892.84"/>
    <polyline class="st4" points="727.16 864.16 727.16 863.74 726.26 863.74 726.26 862.48 720.86 862.48 720.86 865.42 726.26 865.42 726.26 864.16 727.16 864.16"/>
    <line class="st4" x1="720.86" y1="891.1" x2="720.86" y2="865.42"/>
    <line class="st4" x1="720.86" y1="862.48" x2="720.86" y2="836.92"/>
    <line class="st4" x1="720.86" y1="833.98" x2="720.86" y2="808.42"/>
    <line class="st4" x1="720.86" y1="805.42" x2="720.86" y2="779.74"/>
    <line class="st4" x1="725.12" y1="804.34" x2="725.12" y2="780.88"/>
    <line class="st4" x1="725.12" y1="890.02" x2="725.12" y2="866.56"/>
    <line class="st4" x1="730.16" y1="777.34" x2="730.16" y2="893.56"/>
  </g>
  <g>
    <g>
      <path class="st7" d="M720.76,962.22c-5.28-.83-9.74-3.43-13.81-7.4-4.86-4.73-7.75-11.38-7.75-18.18"/>
      <line class="st7" x1="699.2" y1="936.64" x2="720.92" y2="936.64"/>
    </g>
    <g>
      <path class="st9" d="M720.88,1022.32c-5.28.84-9.74,3.45-13.81,7.42-4.86,4.75-7.75,11.43-7.75,18.25"/>
      <line class="st9" x1="699.32" y1="1048" x2="721.38" y2="1048"/>
    </g>
    <line class="st4" x1="723.38" y1="1048" x2="720.92" y2="1048"/>
    <polyline class="st4" points="722.84 993.82 722.84 1019.38 725.12 1019.38 725.12 993.82 722.84 993.82"/>
    <polyline class="st4" points="722.84 965.32 722.84 990.88 725.12 990.88 725.12 965.32 722.84 965.32"/>
    <polyline class="st4" points="722.84 1022.32 722.84 1048 725.12 1048 725.12 1022.32 722.84 1022.32"/>
    <polyline class="st4" points="722.84 936.64 722.84 962.32 725.12 962.32 725.12 936.64 722.84 936.64"/>
    <line class="st4" x1="727.16" y1="1021.06" x2="727.16" y2="1049.32"/>
    <line class="st4" x1="727.16" y1="935.32" x2="727.16" y2="963.64"/>
    <line class="st4" x1="727.16" y1="964" x2="727.16" y2="992.14"/>
    <line class="st4" x1="727.16" y1="992.5" x2="727.16" y2="1020.64"/>
    <line class="st4" x1="726.26" y1="1022.32" x2="726.26" y2="1048"/>
    <line class="st4" x1="726.26" y1="993.82" x2="726.26" y2="1019.38"/>
    <line class="st4" x1="726.26" y1="965.32" x2="726.26" y2="990.88"/>
    <line class="st4" x1="726.26" y1="936.64" x2="726.26" y2="962.32"/>
    <polyline class="st4" points="727.16 935.32 727.16 934.9 720.86 934.9 720.86 936.64 726.26 936.64 726.26 935.32 727.16 935.32"/>
    <polyline class="st4" points="727.16 992.5 727.16 992.14 726.26 992.14 726.26 990.88 720.86 990.88 720.86 993.82 726.26 993.82 726.26 992.5 727.16 992.5"/>
    <polyline class="st4" points="727.16 964 727.16 963.64 726.26 963.64 726.26 962.32 720.86 962.32 720.86 965.32 726.26 965.32 726.26 964 727.16 964"/>
    <polyline class="st4" points="727.16 1049.74 727.16 1049.32 726.26 1049.32 726.26 1048 720.86 1048 720.86 1049.74 727.16 1049.74"/>
    <polyline class="st4" points="727.16 1021.06 727.16 1020.64 726.26 1020.64 726.26 1019.38 720.86 1019.38 720.86 1022.32 726.26 1022.32 726.26 1021.06 727.16 1021.06"/>
    <line class="st4" x1="720.86" y1="1048" x2="720.86" y2="1022.32"/>
    <line class="st4" x1="720.86" y1="1019.38" x2="720.86" y2="993.82"/>
    <line class="st4" x1="720.86" y1="990.88" x2="720.86" y2="965.32"/>
    <line class="st4" x1="720.86" y1="962.32" x2="720.86" y2="936.64"/>
    <line class="st4" x1="725.12" y1="961.24" x2="725.12" y2="937.78"/>
    <line class="st4" x1="725.12" y1="1046.92" x2="725.12" y2="1023.46"/>
    <line class="st4" x1="730.16" y1="934.24" x2="730.16" y2="1050.46"/>
  </g>
</svg>