<?xml version="1.0" encoding="UTF-8"?>
<svg id="Tekst" xmlns="http://www.w3.org/2000/svg" version="1.1" viewBox="0 0 1200 1697.14">
  <!-- Generator: Adobe Illustrator 29.6.0, SVG Export Plug-In . SVG Version: 2.1.1 Build 207)  -->
  <defs>
    <style>
      .st0, .st1, .st2, .st3, .st4, .st5, .st6, .st7, .st8, .st9, .st10, .st11, .st12, .st13 {
        fill: none;
      }

      .st14 {
        fill: #e2dedb;
      }

      .st15, .st1, .st2, .st3, .st4, .st5, .st6, .st8, .st9, .st16, .st17 {
        stroke: #363a3b;
      }

      .st15, .st3, .st7, .st10, .st17, .st12, .st13 {
        stroke-width: .28px;
      }

      .st15, .st8 {
        stroke-miterlimit: 10;
      }

      .st15, .st18, .st16, .st17 {
        fill: #fff;
      }

      .st1 {
        stroke-width: .3px;
      }

      .st1, .st2, .st3, .st4, .st5, .st6, .st7, .st9, .st10, .st11, .st16, .st17, .st12, .st13 {
        stroke-linecap: round;
        stroke-linejoin: round;
      }

      .st2 {
        stroke-width: .28px;
      }

      .st4, .st16 {
        stroke-width: .28px;
      }

      .st5 {
        stroke-width: .29px;
      }

      .st19 {
        fill: #ece8e5;
      }

      .st6 {
        stroke-dasharray: .07 .52;
        stroke-width: .18px;
      }

      .st7, .st10, .st11, .st13 {
        stroke: #000;
      }

      .st8 {
        stroke-width: .29px;
      }

      .st9, .st11 {
        stroke-dasharray: .06 .43;
        stroke-width: .18px;
      }

      .st10 {
        stroke-dasharray: .09 .69;
      }

      .st20 {
        fill: #302c35;
      }

      .st12 {
        stroke: #00001d;
      }

      .st13 {
        stroke-dasharray: .09 .68;
      }
    </style>
  </defs>
  <polygon class="st19" points="483.21 870.6 483.21 782.69 512.9 782.6 512.9 748.16 582.42 748.16 583.41 636.45 706.47 636.45 707.3 685.32 707.3 937.04 581.57 937.04 581.57 1047.36 483.21 1047.36 483.21 870.6"/>
  <g>
    <polygon class="st18" points="491.56 786.98 506.11 787.05 518.08 786.97 518.08 843.94 491.56 843.94 491.56 786.98"/>
    <g>
      <line class="st3" x1="491.69" y1="786.96" x2="518.21" y2="786.96"/>
      <g>
        <line class="st3" x1="491.69" y1="815.37" x2="518.21" y2="815.37"/>
        <line class="st3" x1="518.21" y1="816.13" x2="518.21" y2="787.02"/>
        <line class="st3" x1="518.21" y1="816.13" x2="518.21" y2="843.72"/>
        <path class="st12" d="M518.21,844.1"/>
        <line class="st3" x1="491.69" y1="843.72" x2="518.21" y2="843.72"/>
      </g>
    </g>
    <path class="st9" d="M518.21,843.6l12.9-22.97s-5.78-4.79-12.9-4.83"/>
    <path class="st9" d="M518.21,787.75l12.9,22.47s-5.78,4.69-12.9,4.73"/>
  </g>
  <polygon class="st18" points="518.08 749.22 555.84 749.25 586.89 749.21 586.89 786.91 518.08 786.91 518.08 749.22"/>
  <g>
    <g>
      <polyline class="st7" points="573.87 1000.11 573.92 1000.11 573.92 1000.16"/>
      <line class="st10" x1="573.92" y1="1000.85" x2="573.92" y2="1044.37"/>
      <polyline class="st7" points="573.92 1044.71 573.92 1044.76 573.87 1044.76"/>
      <line class="st13" x1="573.19" y1="1044.76" x2="530.17" y2="1044.76"/>
      <polyline class="st7" points="529.83 1044.76 529.79 1044.76 529.79 1044.71"/>
      <line class="st10" x1="529.79" y1="1044.02" x2="529.79" y2="1000.5"/>
      <polyline class="st7" points="529.79 1000.16 529.79 1000.11 529.83 1000.11"/>
      <line class="st13" x1="530.52" y1="1000.11" x2="573.53" y2="1000.11"/>
    </g>
    <g>
      <line class="st3" x1="550.68" y1="1044.66" x2="550.68" y2="1032.36"/>
      <path class="st17" d="M553.37,1032.42c0,1.52-1.23,2.75-2.75,2.75-1.52,0-2.75-1.23-2.75-2.75s1.23-2.75,2.75-2.75c1.52,0,2.75,1.23,2.75,2.75"/>
    </g>
  </g>
  <g>
    <path class="st16" d="M573.82,990.17h-18.5c-.41,0-.74-.21-.74-.47v-26.59c0-.32.33-.59.74-.59h18.5"/>
    <path class="st3" d="M571.12,975.29c-.55,0-1,.45-1,1s.45,1,1,1,1-.45,1-1-.45-1-1-1"/>
    <g>
      <path class="st3" d="M562.31,975.09c-.68,0-1.23.55-1.23,1.23s.55,1.23,1.23,1.23,1.23-.55,1.23-1.23-.55-1.23-1.23-1.23"/>
      <path class="st3" d="M562.31,974.5c-1,0-1.82.81-1.82,1.82s.81,1.82,1.82,1.82,1.82-.81,1.82-1.82-.81-1.82-1.82-1.82"/>
    </g>
    <path class="st4" d="M567.9,988.14h-10.82c-.41,0-.74-.23-.74-.52v-22.61c0-.29.33-.52.74-.52h10.82c.41,0,.74.23.74.52v22.61c0,.29-.33.52-.74.52Z"/>
  </g>
  <g>
    <g>
      <path class="st17" d="M620.28,888.78c-7.12,0-12.9-6.14-12.9-13.72,0-5.58,3.65-11.1,8.79-13.01.7-.26,2.18-.79,4.11-.71,6.06.24,12.9,6.28,12.9,13.72,0,7.58-5.77,13.72-12.9,13.72Z"/>
      <path class="st3" d="M617.39,863.15c-4.38,0-7.92,5.33-7.92,11.91"/>
      <path class="st3" d="M617.39,886.97c-4.38,0-7.92-5.33-7.92-11.91"/>
      <path class="st3" d="M617.39,886.97c.86,0,1.56.68,1.56,1.53"/>
      <path class="st3" d="M617.39,863.15c.86,0,1.56-.74,1.56-1.66"/>
    </g>
    <g>
      <path class="st17" d="M664.56,888.78c7.12,0,12.9-6.14,12.9-13.72,0-5.58-3.65-11.1-8.79-13.01-.7-.26-2.18-.79-4.11-.71-6.06.24-12.9,6.28-12.9,13.72,0,7.58,5.78,13.72,12.9,13.72Z"/>
      <path class="st3" d="M667.45,863.15c4.38,0,7.92,5.33,7.92,11.91"/>
      <path class="st3" d="M667.45,886.97c4.38,0,7.92-5.33,7.92-11.91"/>
      <path class="st3" d="M667.45,886.97c-.86,0-1.56.68-1.56,1.53"/>
      <path class="st3" d="M667.45,863.15c-.86,0-1.56-.74-1.56-1.66"/>
    </g>
    <rect class="st17" x="625.62" y="854.84" width="35.68" height="40.44" transform="translate(1286.93 1750.12) rotate(180)"/>
  </g>
  <path class="st15" d="M504.44,1044.69v-16.09c0-6.19,4.45-11.2,9.95-11.2,5.5,0,9.95,5.01,9.95,11.2v16.09s-19.9,0-19.9,0Z"/>
  <g>
    <g>
      <path class="st17" d="M698.17,697.86c-9.11,4.14-18.22,8.27-27.32,12.41-.44.07-.9-.2-1.11-.67-6.38-10.21-11.27-21.34-14.46-32.93-.06-.19,0-.39.16-.47.85-.39,1.7-.78,2.55-1.17l24.55-11.26,15.63,34.09"/>
      <path class="st17" d="M700.02,696.68c-.8.49-1.64.88-2.53,1.18-.18.05-.37-.06-.46-.25-5.26-10.79-10.32-21.66-15.19-32.63-.09-.29.01-.59.25-.7.9-.51,1.82-.91,2.8-1.23"/>
      <path class="st17" d="M694.26,697.98c.3.66,2.12.48,4.07-.41.15-.08.31-.15.46-.23l1.23-.66c.15-.1.2-.32.11-.51l-15.22-33.18-2.82,1.29c-.91.44-1.83.88-2.74,1.32-.34.28-.43.81-.22,1.28,3.3,11.12,8.44,21.67,15.14,31.11Z"/>
      <path class="st17" d="M696.12,697.38c-.45.02-.89.07-1.32.15-.53,0-1.06.03-1.58.1-.71.08-1.43.16-2.14.24-.99.1-1.94.29-2.89.57-.58.17-1.15.36-1.71.57-.6.22-1.19.45-1.79.69-1.41.56-2.79,1.19-4.13,1.9-1.36.72-2.64,1.54-3.87,2.47-.92.7-1.77,1.49-2.55,2.37-.49.56-.78,1.17-.91,1.96-.01.07,0,.12.03.19l.27.6c.13.14.26.19.43.2,8.78-4.03,17.56-8.05,26.34-12.08.16-.07.22-.28.13-.46l-.08-.18h0c-.09-.18-.28-.27-.44-.21-.39.12-.77.23-1.16.35-.5.19-1.01.34-1.54.44l-1.09.14Z"/>
      <path class="st17" d="M681.48,665.44c-.31.32-.63.62-.98.9-.35.4-.72.78-1.1,1.13-.53.49-1.05.98-1.58,1.47-.72.68-1.49,1.28-2.32,1.82-.51.33-1.02.63-1.55.92-.56.31-1.12.61-1.69.91-1.34.71-2.72,1.34-4.13,1.9-1.43.56-2.89,1-4.4,1.32-1.14.24-2.28.37-3.46.38-.74,0-1.4-.17-2.08-.59-.06-.03-.1-.08-.13-.14l-.27-.6c-.02-.19.02-.33.13-.46,8.78-4.03,17.56-8.05,26.34-12.08.16-.07.35.02.43.2l.08.18h0c.08.18.02.39-.13.47-.34.22-.68.43-1.02.65-.47.25-.91.55-1.34.88l-.82.73Z"/>
    </g>
    <circle class="st15" cx="671.96" cy="730" r="13.02"/>
  </g>
  <g>
    <path class="st6" d="M706.5,648.53"/>
    <path class="st4" d="M706.47,759.93"/>
    <path class="st4" d="M706.47,677.19"/>
    <path class="st4" d="M710.73,647.37"/>
  </g>
  <g>
    <rect class="st17" x="558.65" y="674.04" width="113.09" height="50.38" transform="translate(-84.04 1314.42) rotate(-90)"/>
    <rect class="st17" x="601.2" y="654.99" width="27.99" height="28.27" rx="1.42" ry="1.42" transform="translate(1230.38 1338.25) rotate(-180)"/>
    <polygon class="st17" points="589.36 657.48 589.36 756.07 640.38 756.07 640.38 682.98 589.36 657.48"/>
  </g>
  <polygon class="st8" points="518.47 752.76 555.92 752.79 586.73 752.76 586.73 787.02 518.47 787.02 518.47 752.76"/>
  <g>
    <g>
      <polyline class="st2" points="525.34 782.19 525.34 760.99 546.53 760.99 546.53 782.19 525.34 782.19"/>
      <line class="st2" x1="535.99" y1="766.12" x2="535.99" y2="757.59"/>
    </g>
    <polyline class="st2" points="520.17 785.29 520.17 754.49 551.7 754.49 551.7 785.29 520.17 785.29"/>
  </g>
  <g>
    <g>
      <line class="st5" x1="576.53" y1="782.21" x2="576.53" y2="773.97"/>
      <line class="st5" x1="576.53" y1="766.61" x2="576.53" y2="758.37"/>
      <line class="st5" x1="580.34" y1="762.55" x2="572.61" y2="762.55"/>
      <line class="st5" x1="580.34" y1="778.04" x2="572.61" y2="778.04"/>
    </g>
    <polyline class="st1" points="568.14 785.29 568.14 754.49 584.8 754.49 584.8 785.29 568.14 785.29"/>
  </g>
  <polygon class="st14" points="491.56 821.2 575.46 821.2 575.59 951.65 491.56 951.65 491.56 821.2"/>
  <g>
    <line class="st3" x1="604.05" y1="930.62" x2="584.79" y2="930.62"/>
    <line class="st3" x1="584.79" y1="929.24" x2="604.05" y2="929.24"/>
    <polyline class="st3" points="584.79 930.62 581.91 930.62 581.91 929.24 584.79 929.24 584.79 930.62"/>
    <polyline class="st3" points="606.87 930.62 604.05 930.62 604.05 929.24 606.87 929.24 606.87 930.62"/>
    <line class="st3" x1="605.07" y1="933.68" x2="605.07" y2="930.86"/>
    <line class="st3" x1="583.9" y1="933.68" x2="583.9" y2="930.86"/>
  </g>
  <g>
    <polygon class="st0" points="491.56 786.98 506.11 787.05 518.08 786.97 518.08 843.94 491.56 843.94 491.56 786.98"/>
    <g>
      <line class="st3" x1="491.69" y1="786.96" x2="518.21" y2="786.96"/>
      <g>
        <line class="st3" x1="491.69" y1="815.37" x2="518.21" y2="815.37"/>
        <line class="st3" x1="518.21" y1="816.13" x2="518.21" y2="787.02"/>
        <line class="st3" x1="518.21" y1="816.13" x2="518.21" y2="843.72"/>
        <path class="st12" d="M518.21,844.1"/>
        <line class="st3" x1="491.69" y1="843.72" x2="518.21" y2="843.72"/>
      </g>
    </g>
    <path class="st9" d="M518.21,843.6l12.9-22.97s-5.78-4.79-12.9-4.83"/>
    <path class="st9" d="M518.21,787.75l12.9,22.47s-5.78,4.69-12.9,4.73"/>
  </g>
  <g>
    <path class="st3" d="M504.41,998.89c11.6,0,22.94-4.79,31.27-13.11,8.07-8.07,12.86-19.42,12.86-31.01"/>
    <line class="st3" x1="504.41" y1="956.53" x2="504.41" y2="998.89"/>
    <polyline class="st3" points="548.54 954.76 504.41 954.76 504.41 956.53"/>
  </g>
  <g>
    <path class="st3" d="M535.81,939.83c0-11.6-4.79-22.94-13.11-31.27-8.07-8.07-19.42-12.86-31.01-12.86"/>
    <line class="st3" x1="493.45" y1="939.83" x2="535.81" y2="939.83"/>
    <polyline class="st3" points="491.69 895.71 491.69 939.83 493.45 939.83"/>
  </g>
  <rect class="st20" x="483.21" y="778.4" width="8.5" height="117.31"/>
  <rect class="st20" x="682.78" y="918.85" width="34.02" height="22.45"/>
  <rect class="st20" x="682.78" y="762.78" width="34.02" height="39.56"/>
  <rect class="st20" x="682.78" y="631.19" width="34.02" height="15.37"/>
  <rect class="st20" x="483.21" y="939.83" width="8.5" height="25.38"/>
  <rect class="st20" x="483.21" y="952.43" width="12.76" height="97.5"/>
  <rect class="st20" x="578.59" y="932.79" width="7.85" height="117.14"/>
  <rect class="st20" x="573.92" y="950.3" width="8.5" height="99.63"/>
  <rect class="st20" x="483.21" y="1044.69" width="103.23" height="21.26"/>
  <rect class="st20" x="581.86" y="932.79" width="134.93" height="8.5"/>
  <rect class="st20" x="483.21" y="950.34" width="21.2" height="8.5"/>
  <rect class="st20" x="548.52" y="950.34" width="37.92" height="8.5"/>
  <rect class="st20" x="578.39" y="631.19" width="138.4" height="8.5"/>
  <rect class="st20" x="483.23" y="778.4" width="33.65" height="8.5"/>
  <rect class="st20" x="509.81" y="744.26" width="77.09" height="8.5"/>
  <rect class="st20" x="509.81" y="744.68" width="8.5" height="42.22"/>
  <rect class="st20" x="578.39" y="631.19" width="8.5" height="120"/>
  <g>
    <g>
      <g>
        <path class="st6" d="M707.3,703.4c-14.25,0-28.19-5.89-38.41-16.11-9.91-9.91-15.8-23.85-15.8-38.1"/>
        <path class="st6" d="M707.3,703.4"/>
        <path class="st6" d="M707.3,649.19"/>
        <line class="st6" x1="653.1" y1="649.19" x2="707.3" y2="649.19"/>
      </g>
      <line class="st4" x1="713.58" y1="676.53" x2="713.58" y2="704.67"/>
      <line class="st4" x1="713.58" y1="705.09" x2="713.58" y2="733.17"/>
      <line class="st4" x1="713.58" y1="733.59" x2="713.58" y2="761.85"/>
      <line class="st4" x1="713.58" y1="647.85" x2="713.58" y2="676.17"/>
      <line class="st4" x1="712.62" y1="649.17" x2="712.62" y2="674.91"/>
      <line class="st4" x1="712.62" y1="677.85" x2="712.62" y2="703.41"/>
      <line class="st4" x1="712.62" y1="734.85" x2="712.62" y2="760.59"/>
      <line class="st4" x1="712.62" y1="706.35" x2="712.62" y2="731.91"/>
      <line class="st4" x1="707.28" y1="760.59" x2="707.28" y2="734.85"/>
      <line class="st4" x1="707.28" y1="731.91" x2="707.28" y2="706.35"/>
      <line class="st4" x1="707.28" y1="703.41" x2="707.28" y2="677.85"/>
      <line class="st4" x1="707.28" y1="674.91" x2="707.28" y2="649.17"/>
      <polyline class="st4" points="709.26 649.17 709.26 674.91 707.28 674.91 707.28 677.85 709.26 677.85 709.26 703.41 707.28 703.41 707.28 706.35 709.26 706.35 709.26 731.91 707.28 731.91 707.28 734.85 709.26 734.85 709.26 760.59 707.28 760.59 707.28 762.27 713.58 762.27 713.58 761.85 712.62 761.85 712.62 760.59 711.54 760.59 711.54 734.85 712.62 734.85 712.62 733.59 713.58 733.59 713.58 733.17 712.62 733.17 712.62 731.91 711.54 731.91 711.54 706.35 712.62 706.35 712.62 705.09 713.58 705.09 713.58 704.67 712.62 704.67 712.62 703.41 711.54 703.41 711.54 677.85 712.62 677.85 712.62 676.53 713.58 676.53 713.58 676.17 712.62 676.17 712.62 674.91 711.54 674.91 711.54 649.17 712.62 649.17 712.62 647.85 713.58 647.85 713.58 647.49 707.28 647.49 707.28 649.17 709.26 649.17"/>
      <line class="st4" x1="711.54" y1="704.55" x2="711.54" y2="648.03"/>
    </g>
    <line class="st3" x1="716.54" y1="762.78" x2="716.54" y2="646.56"/>
  </g>
  <g>
    <g>
      <g>
        <path class="st6" d="M707.3,859.18c-14.25,0-28.19-5.89-38.41-16.11-9.91-9.91-15.8-23.85-15.8-38.1"/>
        <path class="st6" d="M707.3,859.18"/>
        <path class="st6" d="M707.3,804.98"/>
        <line class="st6" x1="653.1" y1="804.98" x2="707.3" y2="804.98"/>
      </g>
      <line class="st4" x1="713.58" y1="832.31" x2="713.58" y2="860.45"/>
      <line class="st4" x1="713.58" y1="860.87" x2="713.58" y2="888.95"/>
      <line class="st4" x1="713.58" y1="889.37" x2="713.58" y2="917.63"/>
      <line class="st4" x1="713.58" y1="803.63" x2="713.58" y2="831.95"/>
      <line class="st4" x1="712.62" y1="804.95" x2="712.62" y2="830.69"/>
      <line class="st4" x1="712.62" y1="833.63" x2="712.62" y2="859.19"/>
      <line class="st4" x1="712.62" y1="890.63" x2="712.62" y2="916.37"/>
      <line class="st4" x1="712.62" y1="862.13" x2="712.62" y2="887.69"/>
      <line class="st4" x1="707.28" y1="916.37" x2="707.28" y2="890.63"/>
      <line class="st4" x1="707.28" y1="887.69" x2="707.28" y2="862.13"/>
      <line class="st4" x1="707.28" y1="859.19" x2="707.28" y2="833.63"/>
      <line class="st4" x1="707.28" y1="830.69" x2="707.28" y2="804.95"/>
      <polyline class="st4" points="709.26 804.95 709.26 830.69 707.28 830.69 707.28 833.63 709.26 833.63 709.26 859.19 707.28 859.19 707.28 862.13 709.26 862.13 709.26 887.69 707.28 887.69 707.28 890.63 709.26 890.63 709.26 916.37 707.28 916.37 707.28 918.05 713.58 918.05 713.58 917.63 712.62 917.63 712.62 916.37 711.54 916.37 711.54 890.63 712.62 890.63 712.62 889.37 713.58 889.37 713.58 888.95 712.62 888.95 712.62 887.69 711.54 887.69 711.54 862.13 712.62 862.13 712.62 860.87 713.58 860.87 713.58 860.45 712.62 860.45 712.62 859.19 711.54 859.19 711.54 833.63 712.62 833.63 712.62 832.31 713.58 832.31 713.58 831.95 712.62 831.95 712.62 830.69 711.54 830.69 711.54 804.95 712.62 804.95 712.62 803.63 713.58 803.63 713.58 803.27 707.28 803.27 707.28 804.95 709.26 804.95"/>
      <line class="st4" x1="711.54" y1="860.33" x2="711.54" y2="803.81"/>
    </g>
    <line class="st3" x1="716.54" y1="918.56" x2="716.54" y2="802.34"/>
  </g>
  <rect class="st11" x="491.56" y="821.2" width="83.9" height="130.45"/>
</svg>