<?xml version="1.0" encoding="UTF-8"?>
<svg id="Layer_13" xmlns="http://www.w3.org/2000/svg" version="1.1" viewBox="0 0 1200 1697.14">
  <!-- Generator: Adobe Illustrator 29.6.0, SVG Export Plug-In . SVG Version: 2.1.1 Build 207)  -->
  <defs>
    <style>
      .st0, .st1, .st2, .st3, .st4, .st5, .st6, .st7, .st8, .st9, .st10, .st11, .st12, .st13, .st14, .st15 {
        fill: none;
      }

      .st16 {
        fill: #e2dedb;
      }

      .st17 {
        stroke-miterlimit: 10;
      }

      .st17, .st1, .st2, .st3, .st4, .st5, .st6, .st7, .st8, .st11, .st18, .st19, .st20 {
        stroke: #363a3b;
      }

      .st17, .st5, .st9, .st13, .st15, .st19 {
        stroke-width: .28px;
      }

      .st17, .st18, .st19, .st20 {
        fill: #fff;
      }

      .st1 {
        stroke-width: .29px;
      }

      .st1, .st2, .st3, .st4, .st5, .st6, .st7, .st8, .st9, .st10, .st11, .st12, .st13, .st14, .st15, .st18, .st19, .st20 {
        stroke-linecap: round;
        stroke-linejoin: round;
      }

      .st2 {
        stroke-width: .3px;
      }

      .st3 {
        stroke-width: .28px;
      }

      .st4 {
        stroke-width: .28px;
      }

      .st6, .st18 {
        stroke-width: .28px;
      }

      .st7 {
        stroke-width: .29px;
      }

      .st8 {
        stroke-dasharray: .06 .42;
        stroke-width: .18px;
      }

      .st9, .st10, .st13, .st14, .st15 {
        stroke: #000;
      }

      .st10, .st12 {
        stroke-width: .3px;
      }

      .st11, .st14 {
        stroke-dasharray: .06 .43;
        stroke-width: .18px;
      }

      .st12 {
        stroke: #fff;
      }

      .st21 {
        fill: #ece9e5;
      }

      .st13 {
        stroke-dasharray: .09 .69;
      }

      .st15 {
        stroke-dasharray: .09 .68;
      }

      .st22 {
        fill: #302c35;
      }

      .st20 {
        stroke-width: .29px;
      }
    </style>
  </defs>
  <polygon class="st21" points="456.97 706.84 591.68 701.16 605.68 700.43 747.8 690.56 747.81 1015.97 641.53 1016.1 641.53 986.14 558.72 986.14 558.72 883.56 457.38 883.56 456.97 706.84"/>
  <rect class="st16" x="629.67" y="823.68" width="130.94" height="101.27" transform="translate(-179.17 1569.46) rotate(-90)"/>
  <g>
    <line class="st5" x1="619.89" y1="875.87" x2="639.15" y2="875.87"/>
    <line class="st5" x1="639.15" y1="874.49" x2="619.89" y2="874.49"/>
    <polyline class="st5" points="639.15 875.87 642.03 875.87 642.03 874.49 639.15 874.49 639.15 875.87"/>
    <polyline class="st5" points="617.07 875.87 619.89 875.87 619.89 874.49 617.07 874.49 617.07 875.87"/>
    <line class="st5" x1="618.87" y1="878.93" x2="618.87" y2="876.11"/>
    <line class="st5" x1="640.04" y1="878.93" x2="640.04" y2="876.11"/>
  </g>
  <g>
    <g>
      <path class="st19" d="M672.45,746.05c-7.12,0-12.9,6.14-12.9,13.72,0,5.58,3.65,11.1,8.79,13.01.7.26,2.18.79,4.11.71,6.06-.24,12.9-6.28,12.9-13.72,0-7.58-5.78-13.72-12.9-13.72Z"/>
      <path class="st5" d="M669.56,771.68c-4.38,0-7.92-5.33-7.92-11.91"/>
      <path class="st5" d="M669.56,747.86c-4.38,0-7.92,5.33-7.92,11.91"/>
      <path class="st5" d="M669.56,747.86c.86,0,1.56-.68,1.56-1.53"/>
      <path class="st5" d="M669.56,771.68c.86,0,1.56.74,1.56,1.66"/>
    </g>
    <g>
      <path class="st19" d="M716.73,746.05c7.12,0,12.9,6.14,12.9,13.72,0,5.58-3.65,11.1-8.79,13.01-.7.26-2.18.79-4.11.71-6.06-.24-12.9-6.28-12.9-13.72s5.78-13.72,12.9-13.72Z"/>
      <path class="st5" d="M719.62,771.68c4.38,0,7.92-5.33,7.92-11.91"/>
      <path class="st5" d="M719.62,747.86c4.38,0,7.92,5.33,7.92,11.91"/>
      <path class="st5" d="M719.62,747.86c-.86,0-1.56-.68-1.56-1.53"/>
      <path class="st5" d="M719.62,771.68c-.86,0-1.56.74-1.56,1.66"/>
    </g>
    <rect class="st19" x="677.79" y="739.56" width="35.68" height="40.44" transform="translate(1391.26 1519.55) rotate(-180)"/>
  </g>
  <g>
    <g>
      <polyline class="st9" points="607.29 928.59 607.34 928.59 607.34 928.63"/>
      <line class="st13" x1="607.34" y1="929.33" x2="607.34" y2="972.85"/>
      <polyline class="st9" points="607.34 973.19 607.34 973.24 607.29 973.24"/>
      <line class="st15" x1="606.61" y1="973.24" x2="563.59" y2="973.24"/>
      <polyline class="st9" points="563.25 973.24 563.21 973.24 563.21 973.19"/>
      <line class="st13" x1="563.21" y1="972.5" x2="563.21" y2="928.98"/>
      <polyline class="st9" points="563.21 928.63 563.21 928.59 563.25 928.59"/>
      <line class="st15" x1="563.94" y1="928.59" x2="606.95" y2="928.59"/>
    </g>
    <g>
      <line class="st5" x1="585.31" y1="973.06" x2="585.31" y2="960.76"/>
      <path class="st19" d="M588,960.82c0,1.52-1.23,2.75-2.75,2.75-1.52,0-2.75-1.23-2.75-2.75s1.23-2.75,2.75-2.75,2.75,1.23,2.75,2.75"/>
    </g>
  </g>
  <path class="st17" d="M631.11,973.91v-16.09c0-6.19-4.45-11.2-9.95-11.2s-9.95,5.01-9.95,11.2v16.09s19.9,0,19.9,0Z"/>
  <g>
    <path class="st18" d="M562.7,920.8h18.5c.41,0,.74-.21.74-.47v-26.59c0-.32-.33-.59-.74-.59h-18.5"/>
    <path class="st5" d="M565.4,905.93c.55,0,1,.45,1,1s-.45,1-1,1-1-.45-1-1,.45-1,1-1"/>
    <g>
      <path class="st5" d="M574.21,905.72c.68,0,1.23.55,1.23,1.23s-.55,1.23-1.23,1.23-1.23-.55-1.23-1.23.55-1.23,1.23-1.23"/>
      <path class="st5" d="M574.21,905.14c1,0,1.82.81,1.82,1.82s-.81,1.82-1.82,1.82-1.82-.81-1.82-1.82.81-1.82,1.82-1.82"/>
    </g>
    <path class="st6" d="M568.61,918.78h10.82c.41,0,.74-.23.74-.52v-22.61c0-.29-.33-.52-.74-.52h-10.82c-.41,0-.74.23-.74.52v22.61c0,.29.33.52.74.52Z"/>
  </g>
  <g>
    <rect class="st20" x="434.69" y="794.39" width="113.09" height="50.38" transform="translate(-328.34 1310.81) rotate(-90)"/>
    <rect class="st20" x="477.24" y="775.33" width="27.99" height="28.27" rx="1.45" ry="1.45" transform="translate(982.47 1578.93) rotate(-180)"/>
    <polygon class="st20" points="465.4 777.82 465.4 876.42 516.43 876.42 516.43 803.33 465.4 777.82"/>
  </g>
  <g>
    <path class="st19" d="M588.35,734.98c-6.26,7.8-12.52,15.61-18.78,23.41-.18.41-.03.92.37,1.24,8.31,8.71,17.89,16.2,28.33,22.15.17.1.38.09.5-.04.59-.73,1.17-1.45,1.76-2.18l16.98-21.01-29.17-23.57"/>
    <path class="st19" d="M589.95,733.49c-.68.65-1.26,1.37-1.77,2.16-.09.16-.04.37.13.51,9.16,7.76,18.44,15.35,27.86,22.78.26.16.57.13.74-.07.71-.74,1.34-1.54,1.88-2.41"/>
    <path class="st19" d="M587.26,738.74c-.57-.46.06-2.18,1.4-3.84.11-.13.22-.26.33-.39l.95-1.03c.14-.12.36-.11.52.02l28.39,22.95-1.95,2.42c-.65.78-1.3,1.55-1.96,2.33-.36.26-.89.22-1.29-.1-9.96-5.95-18.92-13.54-26.4-22.35Z"/>
    <path class="st19" d="M588.31,737.09c-.13.43-.29.84-.48,1.24-.13.51-.29,1.02-.48,1.51-.26.67-.51,1.34-.76,2.02-.34.93-.76,1.81-1.27,2.66-.31.52-.63,1.02-.98,1.52-.36.52-.73,1.05-1.11,1.56-.89,1.23-1.84,2.41-2.86,3.54-1.03,1.14-2.14,2.18-3.35,3.14-.91.72-1.88,1.34-2.93,1.88-.66.34-1.33.46-2.13.4-.07,0-.12-.03-.18-.07l-.51-.41c-.1-.16-.12-.3-.08-.47,6.07-7.51,12.14-15.02,18.21-22.53.11-.13.32-.14.48-.01l.16.13h0c.15.13.19.34.1.48-.21.35-.42.69-.63,1.04-.31.44-.58.89-.81,1.38l-.41,1.02Z"/>
    <path class="st19" d="M615.64,759.17c-.39.22-.76.46-1.12.73-.47.24-.93.5-1.37.79-.6.39-1.21.78-1.81,1.16-.84.53-1.61,1.13-2.33,1.8-.44.41-.87.83-1.28,1.27-.44.47-.87.94-1.3,1.41-1.02,1.13-1.97,2.3-2.86,3.54-.9,1.24-1.68,2.55-2.36,3.93-.51,1.04-.92,2.12-1.22,3.26-.19.72-.18,1.4.05,2.16.02.06.05.11.11.16l.51.41c.18.06.32.06.48-.02,6.07-7.51,12.14-15.02,18.21-22.53.11-.13.07-.34-.09-.47l-.16-.13h0c-.16-.12-.37-.12-.49,0-.29.28-.59.55-.88.83-.36.39-.75.75-1.18,1.08l-.91.61Z"/>
  </g>
  <circle class="st17" cx="549.74" cy="780.42" r="13.02"/>
  <g>
    <rect class="st0" x="693.16" y="854.1" width="68.24" height="34.91" transform="translate(1598.84 144.27) rotate(90)"/>
    <g>
      <line class="st1" x1="745.13" y1="864.13" x2="709.97" y2="864.13"/>
      <g>
        <g>
          <g>
            <polyline class="st4" points="715.2 896.14 736.4 896.14 736.4 874.94 715.2 874.94 715.2 896.14"/>
            <line class="st4" x1="731.27" y1="885.48" x2="739.8" y2="885.48"/>
          </g>
          <polyline class="st4" points="712.1 901.3 742.9 901.3 742.9 869.77 712.1 869.77 712.1 901.3"/>
        </g>
        <g>
          <g>
            <line class="st7" x1="715.17" y1="849.3" x2="723.42" y2="849.3"/>
            <line class="st7" x1="730.78" y1="849.3" x2="739.02" y2="849.3"/>
            <line class="st7" x1="734.84" y1="845.49" x2="734.84" y2="853.21"/>
            <line class="st7" x1="719.35" y1="845.49" x2="719.35" y2="853.21"/>
          </g>
          <polyline class="st2" points="712.1 857.68 742.9 857.68 742.9 841.02 712.1 841.02 712.1 857.68"/>
        </g>
      </g>
    </g>
  </g>
  <rect class="st6" x="709.71" y="905.84" width="35.16" height="27.64"/>
  <path class="st11" d="M709.67,932.22l-16.54-21.63s7.42-4.51,16.54-4.55"/>
  <rect class="st22" x="579.61" y="691.1" width="39.81" height="34.02" transform="translate(-39.31 35.25) rotate(-3.26)"/>
  <rect class="st22" x="447.65" y="697.54" width="15.59" height="34.02" transform="translate(-36.17 24.39) rotate(-2.95)"/>
  <polygon class="st22" points="753.19 715.26 736.3 716.22 734.54 682 753.22 681.04 753.19 715.26"/>
  <rect class="st22" x="453.93" y="729.43" width="8.5" height="157.96"/>
  <rect class="st22" x="744.69" y="682.11" width="8.5" height="333.95"/>
  <rect class="st22" x="544.72" y="789.24" width="8.5" height="190.08" transform="translate(-335.32 1433.25) rotate(-90)"/>
  <rect class="st22" x="660.15" y="985.15" width="8.5" height="53.32" transform="translate(-347.4 1676.23) rotate(-90)"/>
  <rect class="st22" x="739.01" y="1003.49" width="8.5" height="16.64" transform="translate(-268.54 1755.09) rotate(-90)"/>
  <rect class="st22" x="589.15" y="938.88" width="21.26" height="91.25" transform="translate(-384.72 1584.28) rotate(-90)"/>
  <rect class="st22" x="554.17" y="886.98" width="8.5" height="95.12" transform="translate(1116.84 1869.08) rotate(180)"/>
  <rect class="st22" x="637.75" y="939.7" width="8.5" height="76.34" transform="translate(1284 1955.74) rotate(180)"/>
  <rect class="st22" x="637.74" y="879.96" width="8.5" height="15.91" transform="translate(1283.99 1775.84) rotate(180)"/>
  <g>
    <path class="st5" d="M598,895.8c0,11.6,4.79,22.94,13.11,31.27,8.07,8.07,19.41,12.86,31.01,12.86"/>
    <line class="st5" x1="640.36" y1="895.8" x2="598" y2="895.8"/>
    <polyline class="st5" points="642.12 939.92 642.12 895.8 640.36 895.8"/>
  </g>
  <g>
    <path class="st5" d="M690.95,1007.73c0-11.6,4.79-22.94,13.11-31.27,8.07-8.07,19.41-12.86,31.01-12.86"/>
    <line class="st5" x1="733.31" y1="1007.73" x2="690.95" y2="1007.73"/>
    <polyline class="st5" points="735.07 963.61 735.07 1007.73 733.31 1007.73"/>
  </g>
  <g>
    <path class="st8" d="M490.79,705.67c-.55,5.32-2.9,9.91-6.64,14.19-4.46,5.11-10.95,8.35-17.74,8.72"/>
    <line class="st8" x1="466.42" y1="728.58" x2="465.24" y2="706.9"/>
  </g>
  <g>
    <path class="st11" d="M551.12,703.1c1.1,5.23,3.93,9.55,8.11,13.42,4.99,4.62,11.8,7.17,18.62,6.83"/>
    <line class="st11" x1="577.84" y1="723.35" x2="576.74" y2="701.79"/>
  </g>
  <g>
    <path class="st8" d="M646.94,697.79c-.51,5.32-2.83,9.93-6.54,14.24-4.43,5.14-10.89,8.43-17.68,8.84"/>
    <line class="st8" x1="622.72" y1="720.87" x2="621.42" y2="699.5"/>
  </g>
  <g>
    <path class="st11" d="M707.15,693.61c1.16,5.22,4.03,9.51,8.25,13.33,5.04,4.56,11.88,7.04,18.69,6.62"/>
    <line class="st11" x1="734.1" y1="713.57" x2="732.76" y2="691.55"/>
  </g>
  <path class="st10" d="M621.64,724"/>
  <path class="st10" d="M734.08,710.98"/>
  <path class="st10" d="M622.72,718.66"/>
  <path class="st12" d="M620.62,724"/>
  <path class="st12" d="M620.62,724.06"/>
  <line class="st3" x1="490.9" y1="705.34" x2="465.16" y2="706.42"/>
  <g>
    <path class="st3" d="M621.64,703.54"/>
    <polyline class="st6" points="462.34 697.24 520.54 695.08 578.74 692.38"/>
    <polyline class="st3" points="618.28 690.16 676.42 686.44 734.5 682.12"/>
    <polyline class="st3" points="649.9 695.32 675.46 693.52 675.28 691.24 649.72 693.04 649.9 695.32"/>
    <polyline class="st3" points="678.4 693.34 703.96 691.54 703.78 689.32 678.22 691.06 678.4 693.34"/>
    <polyline class="st3" points="706.9 691.36 732.64 689.56 732.46 687.28 706.72 689.08 706.9 691.36"/>
    <polyline class="st3" points="621.22 697.3 646.96 695.5 646.78 693.22 621.04 695.02 621.22 697.3"/>
    <line class="st3" x1="705.34" y1="687.16" x2="733.6" y2="685.18"/>
    <line class="st3" x1="619.6" y1="693.04" x2="647.92" y2="691.12"/>
    <line class="st3" x1="648.28" y1="691.06" x2="676.42" y2="689.14"/>
    <line class="st3" x1="676.84" y1="689.14" x2="704.92" y2="687.16"/>
    <line class="st3" x1="706.66" y1="687.94" x2="732.4" y2="686.2"/>
    <line class="st3" x1="678.16" y1="689.92" x2="703.72" y2="688.18"/>
    <line class="st3" x1="649.66" y1="691.9" x2="675.22" y2="690.16"/>
    <line class="st3" x1="620.98" y1="693.88" x2="646.72" y2="692.08"/>
    <polyline class="st3" points="734.02 685.18 733.6 685.18 733.72 686.08 732.4 686.2 732.76 691.54 734.44 691.42 734.02 685.18"/>
    <polyline class="st3" points="619.6 693.04 619.24 693.1 619.66 699.4 621.34 699.28 620.98 693.88 619.66 694 619.6 693.04"/>
    <polyline class="st3" points="648.28 691.06 647.92 691.12 647.98 692.02 646.72 692.08 647.08 697.48 650.02 697.3 649.66 691.9 648.34 691.96 648.28 691.06"/>
    <polyline class="st3" points="676.84 689.14 676.42 689.14 676.48 690.04 675.22 690.16 675.58 695.5 678.52 695.32 678.16 689.92 676.9 690.04 676.84 689.14"/>
    <polyline class="st3" points="705.34 687.16 704.92 687.16 704.98 688.06 703.72 688.18 704.08 693.52 707.02 693.34 706.66 687.94 705.4 688.06 705.34 687.16"/>
    <line class="st3" x1="732.76" y1="691.54" x2="707.02" y2="693.34"/>
    <line class="st3" x1="704.08" y1="693.52" x2="678.52" y2="695.32"/>
    <line class="st3" x1="675.58" y1="695.5" x2="650.02" y2="697.3"/>
    <line class="st3" x1="647.08" y1="697.48" x2="621.34" y2="699.28"/>
    <line class="st3" x1="645.64" y1="693.34" x2="622.18" y2="694.96"/>
    <line class="st3" x1="731.32" y1="687.4" x2="707.86" y2="689.02"/>
    <polyline class="st3" points="493.78 703.24 519.4 702.16 519.28 699.88 493.66 700.96 493.78 703.24"/>
    <polyline class="st3" points="522.34 702.04 547.9 700.96 547.84 698.68 522.22 699.76 522.34 702.04"/>
    <polyline class="st3" points="550.9 700.84 576.64 699.76 576.52 697.48 550.78 698.56 550.9 700.84"/>
    <polyline class="st3" points="465.04 704.44 490.84 703.36 490.72 701.14 464.98 702.22 465.04 704.44"/>
    <line class="st3" x1="549.4" y1="696.58" x2="577.78" y2="695.38"/>
    <line class="st3" x1="463.54" y1="700.24" x2="491.92" y2="699.04"/>
    <line class="st3" x1="492.28" y1="698.98" x2="520.48" y2="697.84"/>
    <line class="st3" x1="520.84" y1="697.78" x2="549.04" y2="696.64"/>
    <line class="st3" x1="550.72" y1="697.42" x2="576.52" y2="696.34"/>
    <line class="st3" x1="522.16" y1="698.68" x2="547.78" y2="697.6"/>
    <line class="st3" x1="493.6" y1="699.88" x2="519.22" y2="698.8"/>
    <line class="st3" x1="464.92" y1="701.08" x2="490.66" y2="700"/>
    <polyline class="st3" points="578.14 695.38 577.78 695.38 577.78 696.28 576.52 696.34 576.7 701.74 578.44 701.68 578.14 695.38"/>
    <polyline class="st3" points="463.54 700.24 463.18 700.24 463.42 706.54 465.16 706.42 464.92 701.08"/>
    <polyline class="st3" points="464.92 701.08 463.6 701.14 463.54 700.24"/>
    <polyline class="st3" points="492.28 698.98 491.92 699.04 491.92 699.94 490.66 700 490.9 705.34 493.84 705.22 493.6 699.88 492.34 699.88 492.28 698.98"/>
    <polyline class="st3" points="520.84 697.78 520.48 697.84 520.48 698.74 519.22 698.8 519.46 704.14 522.4 704.02 522.16 698.68 520.9 698.68 520.84 697.78"/>
    <polyline class="st3" points="549.4 696.58 549.04 696.64 549.04 697.54 547.78 697.6 548.02 702.94 550.96 702.82 550.72 697.42 549.46 697.48 549.4 696.58"/>
    <line class="st3" x1="576.7" y1="701.74" x2="550.96" y2="702.82"/>
    <line class="st3" x1="548.02" y1="702.94" x2="522.4" y2="704.02"/>
    <line class="st3" x1="519.46" y1="704.14" x2="493.84" y2="705.22"/>
    <line class="st3" x1="489.58" y1="701.14" x2="466.12" y2="702.16"/>
  </g>
  <rect class="st6" x="709.71" y="808.67" width="35.16" height="27.64"/>
  <path class="st11" d="M709.67,808.87l-16.54,21.63s7.42,4.51,16.54,4.55"/>
  <rect class="st14" x="644.66" y="808.87" width="102.35" height="131.05"/>
</svg>