<?xml version="1.0" encoding="UTF-8"?>
<svg id="Tekst" xmlns="http://www.w3.org/2000/svg" xmlns:xlink="http://www.w3.org/1999/xlink" version="1.1" viewBox="0 0 1200 1697.14">
  <!-- Generator: Adobe Illustrator 29.6.0, SVG Export Plug-In . SVG Version: 2.1.1 Build 207)  -->
  <defs>
    <style>
      .st0 {
        fill: #e2dedb;
      }

      .st1, .st2, .st3, .st4, .st5, .st6, .st7, .st8, .st9, .st10, .st11, .st12, .st13 {
        stroke: #363a3b;
      }

      .st1, .st5, .st14, .st15, .st16, .st12, .st17 {
        stroke-width: .28px;
      }

      .st1, .st9 {
        stroke-miterlimit: 10;
      }

      .st1, .st18, .st11, .st12, .st13 {
        fill: #fff;
      }

      .st2 {
        stroke-width: .29px;
      }

      .st2, .st3, .st4, .st5, .st6, .st7, .st8, .st14, .st19, .st20, .st9, .st10, .st15, .st21, .st16, .st17 {
        fill: none;
      }

      .st2, .st3, .st4, .st5, .st6, .st7, .st8, .st14, .st19, .st20, .st10, .st15, .st21, .st16, .st11, .st12, .st13, .st17, .st22 {
        stroke-linecap: round;
        stroke-linejoin: round;
      }

      .st3 {
        stroke-width: .3px;
      }

      .st4 {
        stroke-width: .28px;
      }

      .st6, .st11 {
        stroke-width: .28px;
      }

      .st7 {
        stroke-width: .29px;
      }

      .st23 {
        fill: #ece8e5;
      }

      .st8 {
        stroke-dasharray: .06 .42;
        stroke-width: .18px;
      }

      .st24 {
        font-family: BrownStd-Regular, 'GNDNM F+ Brown Std';
        font-size: 9px;
      }

      .st24, .st25, .st26, .st27 {
        fill: #302c35;
      }

      .st14, .st19, .st20, .st15, .st21, .st16 {
        stroke: #000;
      }

      .st19 {
        stroke-width: .3px;
      }

      .st20 {
        stroke-width: .24px;
      }

      .st9 {
        stroke-width: .29px;
      }

      .st10, .st21 {
        stroke-dasharray: .06 .43;
        stroke-width: .18px;
      }

      .st28 {
        clip-path: url(#clippath-1);
      }

      .st25 {
        clip-rule: evenodd;
      }

      .st15 {
        stroke-dasharray: .09 .69;
      }

      .st26 {
        fill-rule: evenodd;
      }

      .st16 {
        stroke-dasharray: .09 .68;
      }

      .st13 {
        stroke-width: .29px;
      }

      .st17, .st22 {
        stroke: #00001d;
      }

      .st29 {
        clip-path: url(#clippath);
      }

      .st22 {
        fill: #bfc6c5;
        stroke-dasharray: 1 1;
        stroke-width: .4px;
      }
    </style>
    <clipPath id="clippath">
      <path class="st25" d="M453.18,657.34h-15.09s0,21.26,0,21.26h15.09s0-21.26,0-21.26ZM627.56,657.34h-58.18s0,21.26,0,21.26h58.18s0-21.26,0-21.26ZM794.17,657.34h-50.68s0,21.26,0,21.26h50.68s0-21.26,0-21.26Z"/>
    </clipPath>
    <clipPath id="clippath-1">
      <rect class="st27" x="10.2" y="598.75" width="841.98" height="1241.19"/>
    </clipPath>
  </defs>
  <polygon class="st23" points="539.94 1039.8 539.94 1007.19 539.6 1007.19 538.6 973.66 619.84 973.66 619.84 829.8 788.37 829.8 788.27 666.8 444.83 666.8 444.93 825.02 443.47 825.02 443.47 924.33 408.6 924.33 408.6 1007.19 442.48 1007.19 442.48 1039.8 539.94 1039.8"/>
  <rect class="st18" x="558.86" y="804.21" width="32.66" height="82.92" transform="translate(1420.86 270.48) rotate(90)"/>
  <polygon class="st0" points="532.63 940.17 532.63 863.75 584.95 863.75 585.09 821.4 447.95 821.4 447.95 940.17 532.63 940.17"/>
  <rect class="st18" x="395.52" y="946.13" width="70.29" height="36.15" transform="translate(1394.87 533.53) rotate(90)"/>
  <line class="st20" x1="447.33" y1="715.42" x2="447.33" y2="715.42"/>
  <line class="st19" x1="618.75" y1="829.3" x2="617.01" y2="828.04"/>
  <path class="st22" d="M591.01,829.3"/>
  <path class="st22" d="M591.01,863.32"/>
  <path class="st19" d="M562.11,829.3"/>
  <polyline class="st19" points="533.67 965.08 541.35 965.08 541.35 962.92 533.67 962.92 533.67 965.08"/>
  <path class="st19" d="M562.11,829.3"/>
  <path class="st19" d="M566.67,812.26"/>
  <path class="st19" d="M571.35,815.62"/>
  <g>
    <line class="st5" x1="450.87" y1="797.82" x2="450.87" y2="817.08"/>
    <line class="st5" x1="452.25" y1="817.08" x2="452.25" y2="797.82"/>
    <polyline class="st5" points="450.87 817.08 450.87 819.96 452.25 819.96 452.25 817.08 450.87 817.08"/>
    <polyline class="st5" points="450.87 795 450.87 797.82 452.25 797.82 452.25 795 450.87 795"/>
    <line class="st5" x1="447.81" y1="796.8" x2="450.63" y2="796.8"/>
    <line class="st5" x1="447.81" y1="817.97" x2="450.63" y2="817.97"/>
  </g>
  <path class="st22" d="M590.43,829.34"/>
  <path class="st22" d="M617.01,829.34"/>
  <polygon class="st21" points="448.74 930.06 448.74 940.09 532.63 940.35 532.68 867.57 585.09 867.55 585.09 821.39 446.75 821.39 446.75 929.87 448.74 930.06"/>
  <line class="st5" x1="560.34" y1="862.1" x2="560.34" y2="829.3"/>
  <line class="st5" x1="532.13" y1="862.1" x2="532.13" y2="829.3"/>
  <line class="st5" x1="561.09" y1="829.3" x2="532.19" y2="829.3"/>
  <line class="st5" x1="561.09" y1="829.3" x2="589.97" y2="829.3"/>
  <line class="st17" x1="588.86" y1="829.3" x2="617.74" y2="829.3"/>
  <line class="st5" x1="588.48" y1="862.1" x2="588.48" y2="829.3"/>
  <path class="st1" d="M548.17,956.17v-16.09c0-6.19,4.45-11.2,9.95-11.2s9.95,5.01,9.95,11.2v16.09h-19.9Z"/>
  <g>
    <polyline class="st14" points="572.21 911.41 572.17 911.41 572.17 911.45"/>
    <line class="st15" x1="572.17" y1="912.14" x2="572.17" y2="955.66"/>
    <polyline class="st14" points="572.17 956.01 572.17 956.05 572.21 956.05"/>
    <line class="st16" x1="572.9" y1="956.05" x2="615.91" y2="956.05"/>
    <polyline class="st14" points="616.25 956.05 616.3 956.05 616.3 956.01"/>
    <line class="st15" x1="616.3" y1="955.32" x2="616.3" y2="911.8"/>
    <polyline class="st14" points="616.3 911.45 616.3 911.41 616.25 911.41"/>
    <line class="st16" x1="615.57" y1="911.41" x2="572.55" y2="911.41"/>
  </g>
  <g>
    <line class="st5" x1="593.57" y1="955.35" x2="593.57" y2="943.05"/>
    <path class="st12" d="M590.87,943.11c0,1.52,1.23,2.75,2.75,2.75s2.75-1.23,2.75-2.75-1.23-2.75-2.75-2.75-2.75,1.23-2.75,2.75"/>
  </g>
  <g>
    <rect class="st13" x="674.9" y="725.93" width="113.09" height="50.38" transform="translate(1482.57 19.68) rotate(90)"/>
    <rect class="st13" x="717.45" y="767.1" width="27.99" height="28.27" rx="1.45" ry="1.45"/>
    <polygon class="st13" points="757.28 792.88 757.28 694.28 706.25 694.28 706.25 767.37 757.28 792.88"/>
  </g>
  <g>
    <g>
      <path class="st12" d="M523.56,716.36c0-7.12-6.14-12.9-13.72-12.9-5.58,0-11.1,3.65-13.01,8.79-.26.7-.79,2.18-.71,4.11.24,6.06,6.28,12.9,13.72,12.9s13.72-5.78,13.72-12.9Z"/>
      <path class="st5" d="M497.92,713.47c0-4.38,5.33-7.92,11.91-7.92"/>
      <path class="st5" d="M521.74,713.47c0-4.38-5.33-7.92-11.91-7.92"/>
      <path class="st5" d="M521.74,713.47c0,.86.68,1.56,1.53,1.56"/>
      <path class="st5" d="M497.92,713.47c0,.86-.74,1.56-1.66,1.56"/>
    </g>
    <g>
      <path class="st12" d="M523.56,760.63c0,7.12-6.14,12.9-13.72,12.9-5.58,0-11.1-3.65-13.01-8.79-.26-.7-.79-2.18-.71-4.11.24-6.06,6.28-12.9,13.72-12.9s13.72,5.78,13.72,12.9Z"/>
      <path class="st5" d="M497.92,763.52c0,4.38,5.33,7.92,11.91,7.92"/>
      <path class="st5" d="M521.74,763.52c0,4.38-5.33,7.92-11.91,7.92"/>
      <path class="st5" d="M521.74,763.52c0-.86.68-1.56,1.53-1.56"/>
      <path class="st5" d="M497.92,763.52c0-.86-.74-1.56-1.66-1.56"/>
    </g>
    <rect class="st12" x="491.99" y="719.32" width="35.68" height="40.44" transform="translate(-229.7 1249.37) rotate(-90)"/>
  </g>
  <g>
    <path class="st12" d="M669.4,689.55c4.66,8.85,9.32,17.71,13.97,26.56.1.43-.15.91-.6,1.15-9.82,6.97-20.65,12.49-32.04,16.35-.19.07-.39.01-.48-.13-.44-.83-.88-1.65-1.31-2.48l-12.67-23.86,33.12-17.59"/>
    <path class="st12" d="M668.11,687.78c.54.77.98,1.58,1.32,2.46.06.17-.04.37-.22.47-10.47,5.87-21.02,11.56-31.69,17.06-.28.11-.59.02-.72-.21-.56-.86-1.02-1.77-1.39-2.73"/>
    <path class="st12" d="M669.75,693.45c.64-.34.35-2.15-.65-4.04-.08-.15-.17-.3-.25-.44l-.73-1.19c-.11-.15-.33-.18-.52-.08l-32.24,17.12,1.46,2.74c.49.89.98,1.77,1.48,2.66.3.32.84.38,1.29.14,10.91-3.94,21.15-9.68,30.18-16.92Z"/>
    <path class="st12" d="M669.04,691.62c.05.45.12.88.23,1.31.03.53.1,1.05.19,1.57.12.71.24,1.41.36,2.12.16.98.4,1.92.74,2.85.2.57.43,1.13.67,1.68.26.58.52,1.17.79,1.74.64,1.38,1.35,2.72,2.13,4.02.79,1.31,1.69,2.55,2.69,3.72.76.88,1.59,1.68,2.52,2.4.59.46,1.21.71,2.01.8.07,0,.12,0,.19-.04l.58-.31c.13-.14.18-.27.17-.44-4.53-8.53-9.06-17.06-13.59-25.59-.08-.15-.29-.2-.47-.11l-.18.09h0c-.17.1-.26.29-.19.45.14.38.28.76.42,1.14.22.49.39.99.53,1.51l.21,1.08Z"/>
    <path class="st12" d="M638,708.1c.34.29.66.6.96.93.42.33.82.67,1.2,1.04.52.5,1.03.99,1.56,1.49.72.68,1.37,1.41,1.95,2.21.36.49.69.98,1.01,1.49.34.54.67,1.08,1,1.63.79,1.3,1.5,2.64,2.13,4.02.64,1.39,1.16,2.82,1.57,4.31.31,1.12.5,2.26.58,3.43.05.74-.09,1.4-.47,2.11-.03.06-.07.1-.14.13l-.58.31c-.19.03-.33,0-.46-.11-4.53-8.53-9.06-17.06-13.59-25.59-.08-.15,0-.35.17-.44l.18-.09h0c.18-.09.39-.05.48.1.24.33.47.66.71.98.28.46.6.88.95,1.28l.78.78Z"/>
  </g>
  <circle class="st1" cx="675.08" cy="756.08" r="13.02"/>
  <path class="st11" d="M616.25,902.2h-18.5c-.41,0-.74-.21-.74-.47v-26.59c0-.32.33-.59.74-.59h18.5"/>
  <path class="st5" d="M613.56,887.33c-.55,0-1,.45-1,1s.45,1,1,1,1-.45,1-1-.45-1-1-1"/>
  <g>
    <path class="st5" d="M604.74,887.12c-.68,0-1.23.55-1.23,1.23s.55,1.23,1.23,1.23,1.23-.55,1.23-1.23-.55-1.23-1.23-1.23"/>
    <path class="st5" d="M604.74,886.54c-1,0-1.82.81-1.82,1.82s.81,1.82,1.82,1.82,1.82-.81,1.82-1.82-.81-1.82-1.82-1.82"/>
  </g>
  <path class="st6" d="M610.34,900.18h-10.82c-.41,0-.74-.23-.74-.52v-22.61c0-.29.33-.52.74-.52h10.82c.41,0,.74.23.74.52v22.61c0,.29-.33.52-.74.52Z"/>
  <polygon class="st9" points="414.48 998.1 414.51 960.77 414.48 930.06 448.74 930.06 448.74 940.09 448.74 998.1 414.48 998.1"/>
  <g>
    <g>
      <polyline class="st4" points="443.9 991.23 422.71 991.23 422.71 970.04 443.9 970.04 443.9 991.23"/>
      <line class="st4" x1="427.83" y1="980.58" x2="419.31" y2="980.58"/>
    </g>
    <polyline class="st4" points="447.01 996.4 416.21 996.4 416.21 964.87 447.01 964.87 447.01 996.4"/>
  </g>
  <g>
    <g>
      <line class="st7" x1="443.93" y1="940.04" x2="435.69" y2="940.04"/>
      <line class="st7" x1="428.33" y1="940.04" x2="420.09" y2="940.04"/>
      <line class="st7" x1="424.26" y1="936.23" x2="424.26" y2="943.96"/>
      <line class="st7" x1="439.76" y1="936.23" x2="439.76" y2="943.96"/>
    </g>
    <polyline class="st3" points="447.01 948.42 416.21 948.42 416.21 931.76 447.01 931.76 447.01 948.42"/>
  </g>
  <rect class="st27" x="760.17" y="657.34" width="34.02" height="173.86"/>
  <g>
    <path class="st26" d="M453.18,657.34h-15.09s0,21.26,0,21.26h15.09s0-21.26,0-21.26ZM627.56,657.34h-58.18s0,21.26,0,21.26h58.18s0-21.26,0-21.26ZM794.17,657.34h-50.68s0,21.26,0,21.26h50.68s0-21.26,0-21.26Z"/>
    <g class="st29">
      <g>
        <rect class="st27" x="10.2" y="598.75" width="841.98" height="1241.19"/>
        <g class="st28">
          <rect class="st27" x="438.09" y="657.34" width="322.08" height="21.26"/>
        </g>
      </g>
    </g>
  </g>
  <rect class="st27" x="621.55" y="822.7" width="139.38" height="8.5"/>
  <rect class="st27" x="616.3" y="822.7" width="8.5" height="154.61"/>
  <rect class="st27" x="532.13" y="956.05" width="90.74" height="21.26"/>
  <rect class="st27" x="532.13" y="862.1" width="90.14" height="8.5"/>
  <rect class="st27" x="440.46" y="998.1" width="8.5" height="41.64"/>
  <rect class="st27" x="412.66" y="998.1" width="28.5" height="22.1"/>
  <rect class="st27" x="405.81" y="921.37" width="8.5" height="98.86"/>
  <rect class="st27" x="407.9" y="921.37" width="34.02" height="8.5"/>
  <rect class="st27" x="440.35" y="677.75" width="8.5" height="252.12"/>
  <rect class="st27" x="532.13" y="921.78" width="8.5" height="117.96"/>
  <rect class="st27" x="523.62" y="1031.3" width="16.96" height="8.5"/>
  <rect class="st27" x="440.45" y="1031.3" width="39.95" height="8.5"/>
  <rect class="st27" x="532.13" y="866.35" width="8.5" height="11.1"/>
  <rect class="st27" x="536.88" y="964.71" width="16.37" height="42.48"/>
  <path class="st10" d="M588.86,829.3l-22.03-16.54s-4.59,7.42-4.63,16.54"/>
  <path class="st10" d="M616.63,829.3l-22.03-16.54s-4.59,7.42-4.63,16.54"/>
  <path class="st10" d="M532.19,829.3l22.03-16.54s4.59,7.42,4.63,16.54"/>
  <g>
    <path class="st5" d="M535.09,921.67c11.6,0,22.95-4.79,31.27-13.11,8.07-8.07,12.86-19.42,12.86-31.01"/>
    <line class="st5" x1="535.09" y1="879.31" x2="535.09" y2="921.67"/>
    <polyline class="st5" points="579.21 877.54 535.09 877.54 535.09 879.31"/>
  </g>
  <g>
    <path class="st2" d="M480.4,1031.35c0-11.39,4.7-22.53,12.87-30.7,7.92-7.92,19.06-12.62,30.45-12.62"/>
    <line class="st2" x1="521.99" y1="1031.35" x2="480.4" y2="1031.35"/>
    <polyline class="st2" points="523.72 988.03 523.72 1031.35 521.99 1031.35"/>
  </g>
  <g>
    <g>
      <path class="st8" d="M481.3,666.86c-.83,5.28-3.43,9.74-7.4,13.81-4.73,4.86-11.38,7.75-18.18,7.75"/>
      <line class="st8" x1="455.72" y1="688.42" x2="455.72" y2="666.7"/>
    </g>
    <g>
      <path class="st10" d="M541.4,666.74c.84,5.28,3.45,9.74,7.42,13.81,4.75,4.86,11.43,7.75,18.25,7.75"/>
      <line class="st10" x1="567.08" y1="688.3" x2="567.08" y2="666.24"/>
    </g>
    <line class="st5" x1="567.08" y1="664.24" x2="567.08" y2="666.7"/>
    <polyline class="st5" points="512.9 664.78 538.46 664.78 538.46 662.5 512.9 662.5 512.9 664.78"/>
    <polyline class="st5" points="484.4 664.78 509.96 664.78 509.96 662.5 484.4 662.5 484.4 664.78"/>
    <polyline class="st5" points="541.4 664.78 567.08 664.78 567.08 662.5 541.4 662.5 541.4 664.78"/>
    <polyline class="st5" points="455.72 664.78 481.4 664.78 481.4 662.5 455.72 662.5 455.72 664.78"/>
    <line class="st5" x1="540.14" y1="660.46" x2="568.4" y2="660.46"/>
    <line class="st5" x1="454.4" y1="660.46" x2="482.72" y2="660.46"/>
    <line class="st5" x1="483.08" y1="660.46" x2="511.22" y2="660.46"/>
    <line class="st5" x1="511.58" y1="660.46" x2="539.72" y2="660.46"/>
    <line class="st5" x1="541.4" y1="661.36" x2="567.08" y2="661.36"/>
    <line class="st5" x1="512.9" y1="661.36" x2="538.46" y2="661.36"/>
    <line class="st5" x1="484.4" y1="661.36" x2="509.96" y2="661.36"/>
    <line class="st5" x1="455.72" y1="661.36" x2="481.4" y2="661.36"/>
    <polyline class="st5" points="454.4 660.46 453.98 660.46 453.98 666.76 455.72 666.76 455.72 661.36 454.4 661.36 454.4 660.46"/>
    <polyline class="st5" points="511.58 660.46 511.22 660.46 511.22 661.36 509.96 661.36 509.96 666.76 512.9 666.76 512.9 661.36 511.58 661.36 511.58 660.46"/>
    <polyline class="st5" points="483.08 660.46 482.72 660.46 482.72 661.36 481.4 661.36 481.4 666.76 484.4 666.76 484.4 661.36 483.08 661.36 483.08 660.46"/>
    <polyline class="st5" points="568.82 660.46 568.4 660.46 568.4 661.36 567.08 661.36 567.08 666.76 568.82 666.76 568.82 660.46"/>
    <polyline class="st5" points="540.14 660.46 539.72 660.46 539.72 661.36 538.46 661.36 538.46 666.76 541.4 666.76 541.4 661.36 540.14 661.36 540.14 660.46"/>
    <line class="st5" x1="567.08" y1="666.76" x2="541.4" y2="666.76"/>
    <line class="st5" x1="538.46" y1="666.76" x2="512.9" y2="666.76"/>
    <line class="st5" x1="509.96" y1="666.76" x2="484.4" y2="666.76"/>
    <line class="st5" x1="481.4" y1="666.76" x2="455.72" y2="666.76"/>
    <line class="st5" x1="480.32" y1="662.5" x2="456.86" y2="662.5"/>
    <line class="st5" x1="566" y1="662.5" x2="542.54" y2="662.5"/>
    <line class="st5" x1="453.32" y1="657.46" x2="569.54" y2="657.46"/>
  </g>
  <g>
    <g>
      <path class="st8" d="M655.42,666.87c-.83,5.28-3.43,9.74-7.4,13.81-4.73,4.86-11.38,7.75-18.18,7.75"/>
      <line class="st8" x1="629.84" y1="688.43" x2="629.84" y2="666.71"/>
    </g>
    <g>
      <path class="st10" d="M715.52,666.74c.84,5.28,3.45,9.74,7.42,13.81,4.75,4.86,11.43,7.75,18.25,7.75"/>
      <line class="st10" x1="741.2" y1="688.3" x2="741.2" y2="666.24"/>
    </g>
    <line class="st5" x1="741.2" y1="664.25" x2="741.2" y2="666.71"/>
    <polyline class="st5" points="687.02 664.79 712.58 664.79 712.58 662.51 687.02 662.51 687.02 664.79"/>
    <polyline class="st5" points="658.52 664.79 684.08 664.79 684.08 662.51 658.52 662.51 658.52 664.79"/>
    <polyline class="st5" points="715.52 664.79 741.2 664.79 741.2 662.51 715.52 662.51 715.52 664.79"/>
    <polyline class="st5" points="629.84 664.79 655.52 664.79 655.52 662.51 629.84 662.51 629.84 664.79"/>
    <line class="st5" x1="714.26" y1="660.47" x2="742.52" y2="660.47"/>
    <line class="st5" x1="628.52" y1="660.47" x2="656.84" y2="660.47"/>
    <line class="st5" x1="657.2" y1="660.47" x2="685.34" y2="660.47"/>
    <line class="st5" x1="685.7" y1="660.47" x2="713.84" y2="660.47"/>
    <line class="st5" x1="715.52" y1="661.37" x2="741.2" y2="661.37"/>
    <line class="st5" x1="687.02" y1="661.37" x2="712.58" y2="661.37"/>
    <line class="st5" x1="658.52" y1="661.37" x2="684.08" y2="661.37"/>
    <line class="st5" x1="629.84" y1="661.37" x2="655.52" y2="661.37"/>
    <polyline class="st5" points="628.52 660.47 628.1 660.47 628.1 666.77 629.84 666.77 629.84 661.37 628.52 661.37 628.52 660.47"/>
    <polyline class="st5" points="685.7 660.47 685.34 660.47 685.34 661.37 684.08 661.37 684.08 666.77 687.02 666.77 687.02 661.37 685.7 661.37 685.7 660.47"/>
    <polyline class="st5" points="657.2 660.47 656.84 660.47 656.84 661.37 655.52 661.37 655.52 666.77 658.52 666.77 658.52 661.37 657.2 661.37 657.2 660.47"/>
    <polyline class="st5" points="742.94 660.47 742.52 660.47 742.52 661.37 741.2 661.37 741.2 666.77 742.94 666.77 742.94 660.47"/>
    <polyline class="st5" points="714.26 660.47 713.84 660.47 713.84 661.37 712.58 661.37 712.58 666.77 715.52 666.77 715.52 661.37 714.26 661.37 714.26 660.47"/>
    <line class="st5" x1="741.2" y1="666.77" x2="715.52" y2="666.77"/>
    <line class="st5" x1="712.58" y1="666.77" x2="687.02" y2="666.77"/>
    <line class="st5" x1="684.08" y1="666.77" x2="658.52" y2="666.77"/>
    <line class="st5" x1="655.52" y1="666.77" x2="629.84" y2="666.77"/>
    <line class="st5" x1="654.44" y1="662.51" x2="630.98" y2="662.51"/>
    <line class="st5" x1="740.12" y1="662.51" x2="716.66" y2="662.51"/>
    <line class="st5" x1="627.44" y1="657.47" x2="743.66" y2="657.47"/>
  </g>
  <text class="st24" transform="translate(767.33 768.88)"><tspan x="0" y="0">Stige</tspan></text>
</svg>