<?xml version="1.0" encoding="UTF-8"?>
<svg id="Vinduer_i_facade" xmlns="http://www.w3.org/2000/svg" version="1.1" viewBox="0 0 1200 1697.14">
  <!-- Generator: Adobe Illustrator 29.6.0, SVG Export Plug-In . SVG Version: 2.1.1 Build 207)  -->
  <defs>
    <style>
      .st0 {
        fill: #e2dedb;
      }

      .st1, .st2, .st3, .st4, .st5, .st6, .st7, .st8, .st9, .st10, .st11, .st12 {
        stroke: #363a3b;
      }

      .st1, .st4, .st13, .st14, .st15, .st12, .st16 {
        stroke-width: .28px;
      }

      .st1, .st9 {
        stroke-miterlimit: 10;
      }

      .st1, .st17, .st11, .st12 {
        fill: #fff;
      }

      .st2 {
        stroke-width: .3px;
      }

      .st2, .st3, .st4, .st5, .st6, .st7, .st8, .st13, .st9, .st10, .st14, .st18, .st15, .st16 {
        fill: none;
      }

      .st2, .st3, .st4, .st5, .st6, .st7, .st8, .st13, .st10, .st14, .st18, .st15, .st11, .st12, .st16 {
        stroke-linecap: round;
        stroke-linejoin: round;
      }

      .st3 {
        stroke-width: .28px;
      }

      .st5, .st11 {
        stroke-width: .28px;
      }

      .st6 {
        stroke-width: .29px;
      }

      .st7 {
        stroke-width: .18px;
      }

      .st19 {
        fill: #ece8e5;
      }

      .st8 {
        stroke-dasharray: .06 .42;
        stroke-width: .18px;
      }

      .st13, .st14, .st18, .st15 {
        stroke: #000;
      }

      .st9 {
        stroke-width: .29px;
      }

      .st10, .st18 {
        stroke-dasharray: .06 .43;
        stroke-width: .18px;
      }

      .st14 {
        stroke-dasharray: .09 .69;
      }

      .st15 {
        stroke-dasharray: .09 .68;
      }

      .st20 {
        fill: #302c35;
      }

      .st16 {
        stroke: #00001d;
      }
    </style>
  </defs>
  <path class="st19" d="M457.09,930.42l.29,123.04c68.64,0,137.27,0,205.91,0-.18-40.21-.36-80.42-.54-120.63l-82.6-.6-1.78-279.19h-212.91c.15,94.16.31,187.56.46,277.38h91.17Z"/>
  <polygon class="st0" points="484.3 1045.12 484.42 963.51 484.29 894.54 576.36 894.54 576.36 1045.12 484.3 1045.12"/>
  <polygon class="st17" points="464.06 959.71 464.09 922.27 464.06 891.47 484.29 891.47 484.29 959.71 464.06 959.71"/>
  <polygon class="st17" points="478.15 894.54 478.18 893.7 478.15 891.47 498.38 891.47 498.38 894.54 478.15 894.54"/>
  <polygon class="st17" points="372.72 930.42 372.83 909.1 372.71 891.57 455.32 891.57 455.32 930.42 372.72 930.42"/>
  <g>
    <line class="st4" x1="488.27" y1="888.22" x2="507.53" y2="888.22"/>
    <line class="st4" x1="507.53" y1="886.84" x2="488.27" y2="886.84"/>
    <polyline class="st4" points="507.53 888.22 510.41 888.22 510.41 886.84 507.53 886.84 507.53 888.22"/>
    <polyline class="st4" points="485.45 888.22 488.27 888.22 488.27 886.84 485.45 886.84 485.45 888.22"/>
    <line class="st4" x1="487.25" y1="894.54" x2="487.25" y2="888.46"/>
    <line class="st4" x1="508.41" y1="894.54" x2="508.41" y2="888.46"/>
  </g>
  <g>
    <polygon class="st9" points="464.06 959.53 464.09 922.19 464.06 891.49 498.32 891.49 498.32 959.53 464.06 959.53"/>
    <g>
      <g>
        <polyline class="st3" points="493.48 952.67 472.29 952.67 472.29 931.47 493.48 931.47 493.48 952.67"/>
        <line class="st3" x1="477.41" y1="942.01" x2="468.89" y2="942.01"/>
      </g>
      <polyline class="st3" points="496.58 957.83 465.79 957.83 465.79 926.3 496.58 926.3 496.58 957.83"/>
    </g>
    <g>
      <g>
        <line class="st6" x1="493.51" y1="901.48" x2="485.27" y2="901.48"/>
        <line class="st6" x1="477.91" y1="901.48" x2="469.67" y2="901.48"/>
        <line class="st6" x1="473.84" y1="897.67" x2="473.84" y2="905.39"/>
        <line class="st6" x1="489.34" y1="897.67" x2="489.34" y2="905.39"/>
      </g>
      <polyline class="st2" points="496.58 909.86 465.79 909.86 465.79 893.2 496.58 893.2 496.58 909.86"/>
    </g>
  </g>
  <g>
    <line class="st4" x1="399.77" y1="925.59" x2="399.77" y2="891.57"/>
    <g>
      <line class="st4" x1="427.47" y1="925.59" x2="427.47" y2="891.57"/>
      <line class="st4" x1="428.21" y1="891.57" x2="399.83" y2="891.57"/>
      <line class="st4" x1="428.21" y1="891.57" x2="455.11" y2="891.57"/>
      <line class="st4" x1="372.7" y1="891.57" x2="399.6" y2="891.57"/>
      <path class="st16" d="M455.48,891.57"/>
      <line class="st4" x1="455.11" y1="925.59" x2="455.11" y2="891.57"/>
    </g>
  </g>
  <path class="st16" d="M300.47,904.85"/>
  <g>
    <rect class="st12" x="344.7" y="717.22" width="113.09" height="50.38" transform="translate(-341.16 1143.66) rotate(-90)"/>
    <rect class="st12" x="387.52" y="699.47" width="27.44" height="27.44" rx="1.42" ry="1.42" transform="translate(802.49 1426.38) rotate(180)"/>
    <polygon class="st12" points="375.42 700.66 375.42 799.25 426.44 799.25 426.44 726.16 375.42 700.66"/>
  </g>
  <g>
    <g>
      <path class="st12" d="M519.3,811.51c0,7.12,6.14,12.9,13.72,12.9,5.58,0,11.1-3.65,13.01-8.79.26-.7.79-2.18.71-4.11-.24-6.06-6.28-12.9-13.72-12.9s-13.72,5.78-13.72,12.9Z"/>
      <path class="st4" d="M544.94,814.4c0,4.38-5.33,7.92-11.91,7.92"/>
      <path class="st4" d="M521.12,814.4c0,4.38,5.33,7.92,11.91,7.92"/>
      <path class="st4" d="M521.12,814.4c0-.86-.68-1.56-1.53-1.56"/>
      <path class="st4" d="M544.94,814.4c0-.86.74-1.56,1.66-1.56"/>
    </g>
    <g>
      <path class="st12" d="M519.3,767.23c0-7.12,6.14-12.9,13.72-12.9,5.58,0,11.1,3.65,13.01,8.79.26.7.79,2.18.71,4.11-.24,6.06-6.28,12.9-13.72,12.9s-13.72-5.78-13.72-12.9Z"/>
      <path class="st4" d="M544.94,764.34c0-4.38-5.33-7.92-11.91-7.92"/>
      <path class="st4" d="M521.12,764.34c0-4.38,5.33-7.92,11.91-7.92"/>
      <path class="st4" d="M521.12,764.34c0,.86-.68,1.56-1.53,1.56"/>
      <path class="st4" d="M544.94,764.34c0,.86.74,1.56,1.66,1.56"/>
    </g>
    <rect class="st12" x="515.19" y="768.11" width="35.68" height="40.44" transform="translate(1321.35 255.3) rotate(90)"/>
  </g>
  <circle class="st1" cx="454.59" cy="715.53" r="13.02"/>
  <g>
    <path class="st1" d="M589.82,1026.1v-16.09c0-6.19,4.45-11.2,9.95-11.2s9.95,5.01,9.95,11.2v16.09h-19.9Z"/>
    <g>
      <polyline class="st13" points="613.68 981.54 613.64 981.54 613.64 981.59"/>
      <line class="st14" x1="613.64" y1="982.28" x2="613.64" y2="1025.8"/>
      <polyline class="st13" points="613.64 1026.15 613.64 1026.19 613.68 1026.19"/>
      <line class="st15" x1="614.37" y1="1026.19" x2="657.38" y2="1026.19"/>
      <polyline class="st13" points="657.72 1026.19 657.77 1026.19 657.77 1026.15"/>
      <line class="st14" x1="657.77" y1="1025.45" x2="657.77" y2="981.94"/>
      <polyline class="st13" points="657.77 981.59 657.77 981.54 657.72 981.54"/>
      <line class="st15" x1="657.04" y1="981.54" x2="614.02" y2="981.54"/>
    </g>
    <g>
      <line class="st4" x1="635.22" y1="1025.28" x2="635.22" y2="1012.98"/>
      <path class="st12" d="M632.52,1013.04c0,1.52,1.23,2.75,2.75,2.75s2.75-1.23,2.75-2.75-1.23-2.75-2.75-2.75-2.75,1.23-2.75,2.75"/>
    </g>
  </g>
  <g>
    <path class="st11" d="M657.77,971.96h-18.5c-.41,0-.74-.21-.74-.47v-26.59c0-.32.33-.59.74-.59h18.5"/>
    <path class="st4" d="M655.07,957.08c-.55,0-1,.45-1,1s.45,1,1,1,1-.45,1-1-.45-1-1-1"/>
    <g>
      <path class="st4" d="M646.26,956.88c-.68,0-1.23.55-1.23,1.23s.55,1.23,1.23,1.23,1.23-.55,1.23-1.23-.55-1.23-1.23-1.23"/>
      <path class="st4" d="M646.26,956.29c-1,0-1.82.81-1.82,1.82s.81,1.82,1.82,1.82,1.82-.81,1.82-1.82-.81-1.82-1.82-1.82"/>
    </g>
    <path class="st5" d="M651.86,969.93h-10.82c-.41,0-.74-.23-.74-.52v-22.61c0-.29.33-.52.74-.52h10.82c.41,0,.74.23.74.52v22.61c0,.29-.33.52-.74.52Z"/>
  </g>
  <rect class="st18" x="484.29" y="894.54" width="92.07" height="150.58"/>
  <rect class="st20" x="356.13" y="643.52" width="50.54" height="34.02"/>
  <rect class="st20" x="575.33" y="1026.08" width="90.94" height="27.54"/>
  <rect class="st20" x="522.81" y="643.52" width="61" height="34.02"/>
  <rect class="st20" x="540.15" y="1035.98" width="26.32" height="16.41"/>
  <rect class="st20" x="575.33" y="676.62" width="8.5" height="253.89"/>
  <rect class="st20" x="455.12" y="891.49" width="8.89" height="162.13"/>
  <rect class="st20" x="575.33" y="990.1" width="8.5" height="48.8"/>
  <rect class="st20" x="657.77" y="933.44" width="8.5" height="120.18"/>
  <rect class="st20" x="575.33" y="930.51" width="90.94" height="8.5"/>
  <rect class="st20" x="364.49" y="925.17" width="96.17" height="8.5"/>
  <rect class="st20" x="562.32" y="1045.12" width="103.95" height="8.5"/>
  <rect class="st20" x="455.85" y="1045.12" width="18.33" height="8.5"/>
  <rect class="st20" x="518.3" y="1045.12" width="44.21" height="8.5"/>
  <rect class="st20" x="575.33" y="930.51" width="8.5" height="15.91"/>
  <rect class="st20" x="364.49" y="650.79" width="8.5" height="282.88"/>
  <path class="st10" d="M454.99,891.57l-22.4-16.54s-4.67,7.42-4.71,16.54"/>
  <path class="st10" d="M399.37,891.57l-21.57-16.54s-4.5,7.42-4.54,16.54"/>
  <path class="st10" d="M400.54,891.57l21.9-16.54s4.57,7.42,4.61,16.54"/>
  <g>
    <path class="st4" d="M579.55,990.41c11.6,0,22.95-4.79,31.27-13.11,8.07-8.07,12.86-19.42,12.86-31.01"/>
    <line class="st4" x1="579.55" y1="948.05" x2="579.55" y2="990.41"/>
    <polyline class="st4" points="623.68 946.28 579.55 946.28 579.55 948.05"/>
  </g>
  <g>
    <path class="st4" d="M518.3,1044.92c0-11.6-4.79-22.95-13.11-31.27-8.07-8.07-19.42-12.86-31.01-12.86"/>
    <line class="st4" x1="475.94" y1="1044.92" x2="518.3" y2="1044.92"/>
    <polyline class="st4" points="474.17 1000.79 474.17 1044.92 475.94 1044.92"/>
  </g>
  <g>
    <path class="st7" d="M867.4,790.59c8.45,0,16.71-3.49,22.77-9.55,5.88-5.88,9.36-14.14,9.36-22.59"/>
    <line class="st7" x1="867.4" y1="759.74" x2="867.4" y2="790.59"/>
    <polyline class="st7" points="899.53 758.45 867.4 758.45 867.4 759.74"/>
  </g>
  <g>
    <g>
      <path class="st8" d="M434.86,653.08c-.83,5.28-3.43,9.74-7.4,13.81-4.73,4.86-11.38,7.75-18.18,7.75"/>
      <line class="st8" x1="409.28" y1="674.64" x2="409.28" y2="652.92"/>
    </g>
    <g>
      <path class="st10" d="M494.96,652.95c.84,5.28,3.45,9.74,7.42,13.81,4.75,4.86,11.43,7.75,18.25,7.75"/>
      <line class="st10" x1="520.64" y1="674.51" x2="520.64" y2="652.45"/>
    </g>
    <line class="st4" x1="520.64" y1="650.46" x2="520.64" y2="652.92"/>
    <polyline class="st4" points="466.46 651 492.02 651 492.02 648.72 466.46 648.72 466.46 651"/>
    <polyline class="st4" points="437.96 651 463.52 651 463.52 648.72 437.96 648.72 437.96 651"/>
    <polyline class="st4" points="494.96 651 520.64 651 520.64 648.72 494.96 648.72 494.96 651"/>
    <polyline class="st4" points="409.28 651 434.96 651 434.96 648.72 409.28 648.72 409.28 651"/>
    <line class="st4" x1="493.7" y1="646.68" x2="521.96" y2="646.68"/>
    <line class="st4" x1="407.96" y1="646.68" x2="436.28" y2="646.68"/>
    <line class="st4" x1="436.64" y1="646.68" x2="464.78" y2="646.68"/>
    <line class="st4" x1="465.14" y1="646.68" x2="493.28" y2="646.68"/>
    <line class="st4" x1="494.96" y1="647.58" x2="520.64" y2="647.58"/>
    <line class="st4" x1="466.46" y1="647.58" x2="492.02" y2="647.58"/>
    <line class="st4" x1="437.96" y1="647.58" x2="463.52" y2="647.58"/>
    <line class="st4" x1="409.28" y1="647.58" x2="434.96" y2="647.58"/>
    <polyline class="st4" points="407.96 646.68 407.54 646.68 407.54 652.98 409.28 652.98 409.28 647.58 407.96 647.58 407.96 646.68"/>
    <polyline class="st4" points="465.14 646.68 464.78 646.68 464.78 647.58 463.52 647.58 463.52 652.98 466.46 652.98 466.46 647.58 465.14 647.58 465.14 646.68"/>
    <polyline class="st4" points="436.64 646.68 436.28 646.68 436.28 647.58 434.96 647.58 434.96 652.98 437.96 652.98 437.96 647.58 436.64 647.58 436.64 646.68"/>
    <polyline class="st4" points="522.38 646.68 521.96 646.68 521.96 647.58 520.64 647.58 520.64 652.98 522.38 652.98 522.38 646.68"/>
    <polyline class="st4" points="493.7 646.68 493.28 646.68 493.28 647.58 492.02 647.58 492.02 652.98 494.96 652.98 494.96 647.58 493.7 647.58 493.7 646.68"/>
    <line class="st4" x1="520.64" y1="652.98" x2="494.96" y2="652.98"/>
    <line class="st4" x1="492.02" y1="652.98" x2="466.46" y2="652.98"/>
    <line class="st4" x1="463.52" y1="652.98" x2="437.96" y2="652.98"/>
    <line class="st4" x1="434.96" y1="652.98" x2="409.28" y2="652.98"/>
    <line class="st4" x1="433.88" y1="648.72" x2="410.42" y2="648.72"/>
    <line class="st4" x1="519.56" y1="648.72" x2="496.1" y2="648.72"/>
    <line class="st4" x1="406.88" y1="643.68" x2="523.1" y2="643.68"/>
  </g>
</svg>