<?xml version="1.0" encoding="UTF-8"?>
<svg id="Vinduer_i_facade" xmlns="http://www.w3.org/2000/svg" version="1.1" viewBox="0 0 1200 1697.14">
  <!-- Generator: Adobe Illustrator 29.6.0, SVG Export Plug-In . SVG Version: 2.1.1 Build 207)  -->
  <defs>
    <style>
      .st0 {
        fill: #e2dedb;
      }

      .st1 {
        stroke-miterlimit: 10;
      }

      .st1, .st2, .st3, .st4, .st5, .st6, .st7, .st8, .st9, .st10, .st11, .st12 {
        stroke: #363a3b;
      }

      .st1, .st5, .st13, .st14, .st15, .st11 {
        stroke-width: .28px;
      }

      .st1, .st16, .st10, .st11, .st12 {
        fill: #fff;
      }

      .st2 {
        stroke-width: .29px;
      }

      .st2, .st3, .st4, .st5, .st6, .st7, .st8, .st13, .st9, .st14, .st17, .st15 {
        fill: none;
      }

      .st2, .st3, .st4, .st5, .st6, .st7, .st8, .st13, .st9, .st14, .st17, .st15, .st10, .st11, .st12 {
        stroke-linecap: round;
        stroke-linejoin: round;
      }

      .st3 {
        stroke-width: .3px;
      }

      .st4 {
        stroke-width: .28px;
      }

      .st6, .st10 {
        stroke-width: .28px;
      }

      .st7 {
        stroke-width: .29px;
      }

      .st18 {
        fill: #ece8e5;
      }

      .st8 {
        stroke-dasharray: .06 .42;
        stroke-width: .18px;
      }

      .st13, .st14, .st17, .st15 {
        stroke: #000;
      }

      .st9, .st17 {
        stroke-dasharray: .06 .43;
        stroke-width: .18px;
      }

      .st14 {
        stroke-dasharray: .09 .69;
      }

      .st15 {
        stroke-dasharray: .09 .68;
      }

      .st19 {
        fill: #302c35;
      }

      .st12 {
        stroke-width: .29px;
      }
    </style>
  </defs>
  <path class="st18" d="M463.88,700.27l173.81-17.29v249.18h98.88v82.91h-96.66v9.19h-175.14l-.89-323.99Z"/>
  <rect class="st16" x="452.72" y="964.56" width="67.5" height="35.36" transform="translate(1468.71 495.76) rotate(90)"/>
  <rect class="st0" x="455.6" y="905.23" width="123.41" height="101.27" transform="translate(-438.56 1473.18) rotate(-90)"/>
  <g>
    <line class="st5" x1="471.96" y1="867.42" x2="471.96" y2="886.68"/>
    <line class="st5" x1="473.34" y1="886.68" x2="473.34" y2="867.42"/>
    <polyline class="st5" points="471.96 886.68 471.96 889.56 473.34 889.56 473.34 886.68 471.96 886.68"/>
    <polyline class="st5" points="471.96 864.6 471.96 867.42 473.34 867.42 473.34 864.6 471.96 864.6"/>
    <line class="st5" x1="468.9" y1="866.4" x2="471.72" y2="866.4"/>
    <line class="st5" x1="468.9" y1="887.57" x2="471.72" y2="887.57"/>
  </g>
  <g>
    <g>
      <path class="st11" d="M586.84,892.74c0,7.12,6.14,12.9,13.72,12.9,5.58,0,11.1-3.65,13.01-8.79.26-.7.79-2.18.71-4.11-.24-6.06-6.28-12.9-13.72-12.9-7.58,0-13.72,5.78-13.72,12.9Z"/>
      <path class="st5" d="M612.47,895.63c0,4.38-5.33,7.92-11.91,7.92"/>
      <path class="st5" d="M588.65,895.63c0,4.38,5.33,7.92,11.91,7.92"/>
      <path class="st5" d="M588.65,895.63c0-.86-.68-1.56-1.53-1.56"/>
      <path class="st5" d="M612.47,895.63c0-.86.74-1.56,1.66-1.56"/>
    </g>
    <g>
      <path class="st11" d="M586.84,848.46c0-7.12,6.14-12.9,13.72-12.9,5.58,0,11.1,3.65,13.01,8.79.26.7.79,2.18.71,4.11-.24,6.06-6.28,12.9-13.72,12.9-7.58,0-13.72-5.78-13.72-12.9Z"/>
      <path class="st5" d="M612.47,845.57c0-4.38-5.33-7.92-11.91-7.92"/>
      <path class="st5" d="M588.65,845.57c0-4.38,5.33-7.92,11.91-7.92"/>
      <path class="st5" d="M588.65,845.57c0,.86-.68,1.56-1.53,1.56"/>
      <path class="st5" d="M612.47,845.57c0,.86.74,1.56,1.66,1.56"/>
    </g>
    <rect class="st11" x="582.73" y="849.34" width="35.68" height="40.44" transform="translate(1470.13 269) rotate(90)"/>
  </g>
  <g>
    <g>
      <polyline class="st13" points="683 936.5 683 936.45 683.05 936.45"/>
      <line class="st14" x1="683.74" y1="936.45" x2="727.26" y2="936.45"/>
      <polyline class="st13" points="727.6 936.45 727.65 936.45 727.65 936.5"/>
      <line class="st15" x1="727.65" y1="937.18" x2="727.65" y2="980.2"/>
      <polyline class="st13" points="727.65 980.54 727.65 980.58 727.6 980.58"/>
      <line class="st14" x1="726.91" y1="980.58" x2="683.39" y2="980.58"/>
      <polyline class="st13" points="683.05 980.58 683 980.58 683 980.54"/>
      <line class="st15" x1="683" y1="979.85" x2="683" y2="936.84"/>
    </g>
    <g>
      <line class="st5" x1="727.47" y1="958.48" x2="715.17" y2="958.48"/>
      <path class="st11" d="M715.23,955.79c1.52,0,2.75,1.23,2.75,2.75s-1.23,2.75-2.75,2.75-2.75-1.23-2.75-2.75,1.23-2.75,2.75-2.75"/>
    </g>
  </g>
  <path class="st1" d="M728.19,983.74h-16.09c-6.19,0-11.2,4.45-11.2,9.95s5.01,9.95,11.2,9.95h16.09s0-19.9,0-19.9Z"/>
  <g>
    <path class="st10" d="M647.51,935.83v18.5c0,.41.21.74.47.74h26.59c.32,0,.59-.33.59-.74v-18.5"/>
    <path class="st5" d="M662.39,938.52c0,.55-.45,1-1,1s-1-.45-1-1,.45-1,1-1,1,.45,1,1"/>
    <g>
      <path class="st5" d="M662.6,947.34c0,.68-.55,1.23-1.23,1.23s-1.23-.55-1.23-1.23.55-1.23,1.23-1.23,1.23.55,1.23,1.23"/>
      <path class="st5" d="M663.18,947.34c0,1-.81,1.82-1.82,1.82s-1.82-.81-1.82-1.82.81-1.82,1.82-1.82,1.82.81,1.82,1.82"/>
    </g>
    <path class="st6" d="M649.54,941.74v10.82c0,.41.23.74.52.74h22.61c.29,0,.52-.33.52-.74v-10.82c0-.41-.23-.74-.52-.74h-22.61c-.29,0-.52.33-.52.74Z"/>
  </g>
  <g>
    <rect class="st12" x="441.3" y="769.97" width="113.09" height="50.38" transform="translate(-297.32 1293.01) rotate(-90)"/>
    <rect class="st12" x="483.85" y="750.92" width="27.99" height="28.27" rx="1.45" ry="1.45" transform="translate(995.69 1530.11) rotate(-180)"/>
    <polygon class="st12" points="472.01 753.41 472.01 852 523.03 852 523.03 778.91 472.01 753.41"/>
  </g>
  <g>
    <path class="st11" d="M591.22,721.92c-6.26,7.8-12.52,15.61-18.78,23.41-.18.41-.03.92.37,1.24,8.31,8.71,17.89,16.2,28.33,22.15.17.1.38.09.5-.04.59-.73,1.17-1.45,1.76-2.18l16.98-21.01-29.17-23.57"/>
    <path class="st11" d="M592.83,720.43c-.68.65-1.26,1.37-1.77,2.16-.09.16-.04.37.13.51,9.16,7.76,18.44,15.35,27.86,22.78.26.16.57.13.74-.07.71-.74,1.34-1.54,1.88-2.41"/>
    <path class="st11" d="M590.14,725.68c-.57-.46.06-2.18,1.4-3.84.11-.13.22-.26.33-.39l.95-1.03c.14-.12.36-.11.52.02l28.39,22.95-1.95,2.42c-.65.78-1.3,1.55-1.96,2.33-.36.26-.89.22-1.29-.1-9.96-5.95-18.92-13.54-26.4-22.35Z"/>
    <path class="st11" d="M591.19,724.03c-.13.43-.29.84-.48,1.24-.13.51-.29,1.02-.48,1.51-.26.67-.51,1.34-.76,2.02-.34.93-.76,1.81-1.27,2.66-.31.52-.63,1.02-.98,1.52-.36.52-.73,1.05-1.11,1.56-.89,1.23-1.84,2.41-2.86,3.54-1.03,1.14-2.14,2.18-3.35,3.14-.91.72-1.88,1.34-2.93,1.88-.66.34-1.33.46-2.13.4-.07,0-.12-.03-.18-.07l-.51-.41c-.1-.16-.12-.3-.08-.47,6.07-7.51,12.14-15.02,18.21-22.53.11-.13.32-.14.48-.01l.16.13h0c.15.13.19.34.1.48-.21.35-.42.69-.63,1.04-.31.44-.58.89-.81,1.38l-.41,1.02Z"/>
    <path class="st11" d="M618.52,746.11c-.39.22-.76.46-1.12.73-.47.24-.93.5-1.37.79-.6.39-1.21.78-1.81,1.16-.84.53-1.61,1.13-2.33,1.8-.44.41-.87.83-1.28,1.27-.44.47-.87.94-1.3,1.41-1.02,1.13-1.97,2.3-2.86,3.54-.9,1.24-1.68,2.55-2.36,3.93-.51,1.04-.92,2.12-1.22,3.26-.19.72-.18,1.4.05,2.16.02.06.05.11.11.16l.51.41c.18.06.32.06.48-.02,6.07-7.51,12.14-15.02,18.21-22.53.11-.13.07-.34-.09-.47l-.16-.13h0c-.16-.12-.37-.12-.49,0-.29.28-.59.55-.88.83-.36.39-.75.75-1.18,1.08l-.91.61Z"/>
  </g>
  <circle class="st1" cx="561.93" cy="769.13" r="13.02"/>
  <g>
    <line class="st2" x1="503.97" y1="975.46" x2="468.82" y2="975.46"/>
    <g>
      <g>
        <polyline class="st4" points="470.95 1012.63 501.74 1012.63 501.74 981.1 470.95 981.1 470.95 1012.63"/>
        <g>
          <polyline class="st4" points="498.64 1007.47 477.45 1007.47 477.45 986.27 498.64 986.27 498.64 1007.47"/>
          <line class="st4" x1="482.57" y1="996.81" x2="474.05" y2="996.81"/>
        </g>
      </g>
      <g>
        <g>
          <line class="st7" x1="474.02" y1="960.63" x2="482.26" y2="960.63"/>
          <line class="st7" x1="489.62" y1="960.63" x2="497.86" y2="960.63"/>
          <line class="st7" x1="493.69" y1="956.82" x2="493.69" y2="964.54"/>
          <line class="st7" x1="478.2" y1="956.82" x2="478.2" y2="964.54"/>
        </g>
        <polyline class="st3" points="470.95 969.01 501.74 969.01 501.74 952.35 470.95 952.35 470.95 969.01"/>
      </g>
    </g>
  </g>
  <rect class="st17" x="468.79" y="894.16" width="99.15" height="122.01"/>
  <rect class="st19" x="452.31" y="689.28" width="39.81" height="34.02" transform="translate(-66.8 49.56) rotate(-5.61)"/>
  <rect class="st19" x="635.23" y="674.57" width="8.5" height="285.3"/>
  <rect class="st19" x="635.23" y="1003.87" width="8.5" height="20.63"/>
  <rect class="st19" x="516.44" y="959.84" width="8.5" height="120.83" transform="translate(-499.55 1540.95) rotate(-90)"/>
  <rect class="st19" x="630.14" y="1010.88" width="8.5" height="18.74" transform="translate(-385.86 1654.64) rotate(-90)"/>
  <rect class="st19" x="683.15" y="964.86" width="8.5" height="99.81" transform="translate(-327.35 1702.18) rotate(-90)"/>
  <rect class="st19" x="689.25" y="875.82" width="8.5" height="111.51" transform="translate(-238.06 1625.08) rotate(-90)"/>
  <rect class="st19" x="728" y="928.06" width="21.26" height="91.01" transform="translate(1477.26 1947.13) rotate(180)"/>
  <rect class="st19" x="460.28" y="721.84" width="8.5" height="302.42"/>
  <rect class="st19" x="607.28" y="674.4" width="39.81" height="34.02" transform="translate(-60.84 60.51) rotate(-5.27)"/>
  <g>
    <path class="st9" d="M504.11,948.25l16.54-21.63s-7.42-4.51-16.54-4.55"/>
    <path class="st9" d="M504.11,919.3c9.13-.04,16.54-4.55,16.54-4.55l-16.54-21.63"/>
  </g>
  <g>
    <path class="st5" d="M683.53,1004.01c0-11.6-4.79-22.94-13.11-31.27-8.07-8.07-19.42-12.86-31.01-12.86"/>
    <line class="st5" x1="641.17" y1="1004.01" x2="683.53" y2="1004.01"/>
    <polyline class="st5" points="639.4 959.89 639.4 1004.01 641.17 1004.01"/>
  </g>
  <g>
    <path class="st5" d="M581,1016.17c0-11.6,4.79-22.94,13.11-31.27,8.07-8.07,19.41-12.86,31.01-12.86"/>
    <line class="st5" x1="623.36" y1="1016.17" x2="581" y2="1016.17"/>
    <polyline class="st5" points="625.13 972.05 625.13 1016.17 623.36 1016.17"/>
  </g>
  <g>
    <path class="st8" d="M519.11,694.69c-.33,5.33-2.49,10.02-6.04,14.45-4.25,5.29-10.59,8.8-17.36,9.45"/>
    <line class="st8" x1="495.7" y1="718.6" x2="493.63" y2="696.98"/>
  </g>
  <g>
    <path class="st9" d="M578.63,688.95c1.34,5.17,4.36,9.36,8.71,13.04,5.19,4.39,12.12,6.62,18.91,5.97"/>
    <line class="st9" x1="606.25" y1="707.96" x2="604.14" y2="686"/>
  </g>
  <polyline class="st6" points="490.36 687.55 548.08 682.27 605.74 676.45"/>
  <polyline class="st6" points="578.5 686.41 604.06 683.95 603.82 681.67 578.32 684.13 578.5 686.41"/>
  <polyline class="st6" points="550.24 689.11 575.56 686.71 575.38 684.43 550 686.89 550.24 689.11"/>
  <polyline class="st6" points="493.42 694.63 518.98 692.17 518.74 689.89 493.24 692.35 493.42 694.63"/>
  <polyline class="st6" points="521.92 691.87 547.3 689.41 547.06 687.19 521.68 689.59 521.92 691.87"/>
  <line class="st6" x1="576.82" y1="682.27" x2="604.96" y2="679.51"/>
  <line class="st6" x1="491.74" y1="690.43" x2="519.82" y2="687.73"/>
  <line class="st6" x1="520.24" y1="687.67" x2="548.14" y2="685.03"/>
  <line class="st6" x1="548.56" y1="684.97" x2="576.46" y2="682.27"/>
  <line class="st6" x1="578.2" y1="683.05" x2="603.7" y2="680.59"/>
  <line class="st6" x1="549.88" y1="685.75" x2="575.26" y2="683.29"/>
  <line class="st6" x1="521.56" y1="688.45" x2="546.94" y2="686.05"/>
  <line class="st6" x1="493.12" y1="691.21" x2="518.62" y2="688.75"/>
  <polyline class="st6" points="605.32 679.51 604.96 679.51 605.02 680.41 603.7 680.59 604.24 685.93 605.92 685.75 605.32 679.51"/>
  <polyline class="st6" points="491.74 690.43 491.32 690.49 491.92 696.73 493.66 696.61 493.12 691.21 491.8 691.33 491.74 690.43"/>
  <polyline class="st6" points="576.82 682.27 576.46 682.27 576.52 683.17 575.26 683.29 575.8 688.69 578.74 688.39 578.2 683.05 576.94 683.17 576.82 682.27"/>
  <polyline class="st6" points="548.56 684.97 548.14 685.03 548.2 685.93 546.94 686.05 547.48 691.39 550.42 691.09 549.88 685.75 548.62 685.87 548.56 684.97"/>
  <polyline class="st6" points="520.24 687.67 519.82 687.73 519.94 688.63 518.62 688.75 519.16 694.15 522.1 693.85 521.56 688.45 520.3 688.63 520.24 687.67"/>
  <line class="st6" x1="604.24" y1="685.93" x2="578.74" y2="688.39"/>
  <line class="st6" x1="575.8" y1="688.69" x2="550.42" y2="691.09"/>
  <line class="st6" x1="547.48" y1="691.39" x2="522.1" y2="693.85"/>
  <line class="st6" x1="519.16" y1="694.15" x2="493.66" y2="696.61"/>
  <line class="st6" x1="602.68" y1="681.79" x2="579.46" y2="684.07"/>
  <g>
    <rect class="st6" x="468.92" y="920.81" width="35.16" height="27.64" transform="translate(972.98 1869.27) rotate(-180)"/>
    <rect class="st6" x="468.92" y="893.12" width="35.16" height="27.64" transform="translate(972.98 1813.88) rotate(-180)"/>
  </g>
</svg>