<?xml version="1.0" encoding="UTF-8"?>
<svg id="Tekst" xmlns="http://www.w3.org/2000/svg" version="1.1" viewBox="0 0 1200 1697.14">
  <!-- Generator: Adobe Illustrator 29.6.0, SVG Export Plug-In . SVG Version: 2.1.1 Build 207)  -->
  <defs>
    <style>
      .st0, .st1, .st2, .st3, .st4, .st5, .st6, .st7, .st8, .st9, .st10, .st11, .st12, .st13 {
        fill: none;
      }

      .st14 {
        fill: #e2dedb;
      }

      .st15, .st1, .st2, .st3, .st4, .st5, .st6, .st8, .st9, .st16, .st17 {
        stroke: #363a3b;
      }

      .st15, .st3, .st7, .st10, .st12, .st17, .st13 {
        stroke-width: .28px;
      }

      .st15, .st8 {
        stroke-miterlimit: 10;
      }

      .st15, .st18, .st16, .st17 {
        fill: #fff;
      }

      .st1 {
        stroke-width: .3px;
      }

      .st1, .st2, .st3, .st4, .st5, .st6, .st7, .st9, .st10, .st11, .st12, .st16, .st17, .st13 {
        stroke-linecap: round;
        stroke-linejoin: round;
      }

      .st2 {
        stroke-width: .28px;
      }

      .st4, .st16 {
        stroke-width: .28px;
      }

      .st5 {
        stroke-width: .29px;
      }

      .st19 {
        fill: #ece8e5;
      }

      .st6 {
        stroke-dasharray: .07 .52;
        stroke-width: .18px;
      }

      .st7, .st10, .st11, .st12 {
        stroke: #000;
      }

      .st8 {
        stroke-width: .29px;
      }

      .st9, .st11 {
        stroke-dasharray: .06 .43;
        stroke-width: .18px;
      }

      .st10 {
        stroke-dasharray: .09 .69;
      }

      .st12 {
        stroke-dasharray: .09 .68;
      }

      .st20 {
        fill: #302c35;
      }

      .st13 {
        stroke: #00001d;
      }
    </style>
  </defs>
  <polygon class="st19" points="483.21 871.19 483.21 775.3 512.9 775.2 512.9 744.41 582.42 744.41 583.41 637.05 706.47 637.05 707.44 685.91 707.45 949.84 581.57 949.84 581.57 1047.95 483.21 1047.95 483.21 871.19"/>
  <g>
    <polygon class="st18" points="491.56 783.91 506.11 783.99 518.08 783.9 518.08 840.87 491.56 840.87 491.56 783.91"/>
    <g>
      <line class="st3" x1="491.69" y1="783.89" x2="518.21" y2="783.89"/>
      <g>
        <line class="st3" x1="491.69" y1="812.3" x2="518.21" y2="812.3"/>
        <line class="st3" x1="518.21" y1="813.06" x2="518.21" y2="783.95"/>
        <line class="st3" x1="518.21" y1="813.06" x2="518.21" y2="840.65"/>
        <path class="st13" d="M518.21,841.03"/>
        <line class="st3" x1="491.69" y1="840.65" x2="518.21" y2="840.65"/>
      </g>
    </g>
    <path class="st9" d="M518.21,840.54l12.9-22.97s-5.78-4.79-12.9-4.83"/>
    <path class="st9" d="M518.21,784.68l12.9,22.47s-5.78,4.69-12.9,4.73"/>
  </g>
  <polygon class="st18" points="518.08 746.15 555.84 746.18 586.89 746.15 586.89 783.84 518.08 783.84 518.08 746.15"/>
  <polygon class="st8" points="518.47 749.28 555.95 749.31 586.79 749.28 586.79 783.69 518.47 783.69 518.47 749.28"/>
  <g>
    <g>
      <polyline class="st2" points="525.36 778.84 525.36 757.55 546.65 757.55 546.65 778.84 525.36 778.84"/>
      <line class="st2" x1="536.06" y1="762.7" x2="536.06" y2="754.13"/>
    </g>
    <polyline class="st2" points="520.18 781.95 520.18 751.02 551.84 751.02 551.84 781.95 520.18 781.95"/>
  </g>
  <g>
    <g>
      <line class="st5" x1="576.77" y1="778.87" x2="576.77" y2="770.59"/>
      <line class="st5" x1="576.77" y1="763.19" x2="576.77" y2="754.92"/>
      <line class="st5" x1="580.59" y1="759.11" x2="572.84" y2="759.11"/>
      <line class="st5" x1="580.59" y1="774.67" x2="572.84" y2="774.67"/>
    </g>
    <polyline class="st1" points="568.35 781.95 568.35 751.02 585.08 751.02 585.08 781.95 568.35 781.95"/>
  </g>
  <polygon class="st14" points="491.56 821.05 587.15 821.05 587.3 948.66 491.56 948.66 491.56 821.05"/>
  <g>
    <line class="st3" x1="611.72" y1="943.96" x2="592.46" y2="943.96"/>
    <line class="st3" x1="592.46" y1="942.58" x2="611.72" y2="942.58"/>
    <polyline class="st3" points="592.46 943.96 589.58 943.96 589.58 942.58 592.46 942.58 592.46 943.96"/>
    <polyline class="st3" points="614.54 943.96 611.72 943.96 611.72 942.58 614.54 942.58 614.54 943.96"/>
    <line class="st3" x1="612.74" y1="947.02" x2="612.74" y2="944.2"/>
    <line class="st3" x1="591.57" y1="947.02" x2="591.57" y2="944.2"/>
  </g>
  <g>
    <g>
      <polyline class="st7" points="573.89 997.39 573.94 997.39 573.94 997.44"/>
      <line class="st10" x1="573.94" y1="998.13" x2="573.94" y2="1041.65"/>
      <polyline class="st7" points="573.94 1041.99 573.94 1042.04 573.89 1042.04"/>
      <line class="st12" x1="573.21" y1="1042.04" x2="530.2" y2="1042.04"/>
      <polyline class="st7" points="529.86 1042.04 529.81 1042.04 529.81 1041.99"/>
      <line class="st10" x1="529.81" y1="1041.3" x2="529.81" y2="997.78"/>
      <polyline class="st7" points="529.81 997.44 529.81 997.39 529.86 997.39"/>
      <line class="st12" x1="530.54" y1="997.39" x2="573.55" y2="997.39"/>
    </g>
    <g>
      <line class="st3" x1="552.45" y1="1041.98" x2="552.45" y2="1029.68"/>
      <path class="st17" d="M555.14,1029.74c0,1.52-1.23,2.75-2.75,2.75-1.52,0-2.75-1.23-2.75-2.75s1.23-2.75,2.75-2.75c1.52,0,2.75,1.23,2.75,2.75"/>
    </g>
  </g>
  <g>
    <path class="st16" d="M573.82,987.1h-18.5c-.41,0-.74-.21-.74-.47v-26.59c0-.32.33-.59.74-.59h18.5"/>
    <path class="st3" d="M571.12,972.22c-.55,0-1,.45-1,1s.45,1,1,1,1-.45,1-1-.45-1-1-1"/>
    <g>
      <path class="st3" d="M562.31,972.02c-.68,0-1.23.55-1.23,1.23s.55,1.23,1.23,1.23,1.23-.55,1.23-1.23-.55-1.23-1.23-1.23"/>
      <path class="st3" d="M562.31,971.43c-1,0-1.82.81-1.82,1.82s.81,1.82,1.82,1.82,1.82-.81,1.82-1.82-.81-1.82-1.82-1.82"/>
    </g>
    <path class="st4" d="M567.9,985.07h-10.82c-.41,0-.74-.23-.74-.52v-22.61c0-.29.33-.52.74-.52h10.82c.41,0,.74.23.74.52v22.61c0,.29-.33.52-.74.52Z"/>
  </g>
  <g>
    <g>
      <path class="st17" d="M622.44,902.96c-7.12,0-12.9-6.14-12.9-13.72,0-5.58,3.65-11.1,8.79-13.01.7-.26,2.18-.79,4.11-.71,6.06.24,12.9,6.28,12.9,13.72,0,7.58-5.77,13.72-12.9,13.72Z"/>
      <path class="st3" d="M619.55,877.33c-4.38,0-7.92,5.33-7.92,11.91"/>
      <path class="st3" d="M619.55,901.15c-4.38,0-7.92-5.33-7.92-11.91"/>
      <path class="st3" d="M619.55,901.15c.86,0,1.56.68,1.56,1.53"/>
      <path class="st3" d="M619.55,877.33c.86,0,1.56-.74,1.56-1.66"/>
    </g>
    <g>
      <path class="st17" d="M666.72,902.96c7.12,0,12.9-6.14,12.9-13.72,0-5.58-3.65-11.1-8.79-13.01-.7-.26-2.18-.79-4.11-.71-6.06.24-12.9,6.28-12.9,13.72,0,7.58,5.78,13.72,12.9,13.72Z"/>
      <path class="st3" d="M669.61,877.33c4.38,0,7.92,5.33,7.92,11.91"/>
      <path class="st3" d="M669.61,901.15c4.38,0,7.92-5.33,7.92-11.91"/>
      <path class="st3" d="M669.61,901.15c-.86,0-1.56.68-1.56,1.53"/>
      <path class="st3" d="M669.61,877.33c-.86,0-1.56-.74-1.56-1.66"/>
    </g>
    <rect class="st17" x="627.78" y="869.02" width="35.68" height="40.44" transform="translate(1291.25 1778.48) rotate(180)"/>
  </g>
  <path class="st15" d="M504.44,1041.63v-16.09c0-6.19,4.45-11.2,9.95-11.2,5.5,0,9.95,5.01,9.95,11.2v16.09s-19.9,0-19.9,0Z"/>
  <g>
    <g>
      <path class="st17" d="M698.17,694.8c-9.11,4.14-18.22,8.27-27.32,12.41-.44.07-.9-.2-1.11-.67-6.38-10.21-11.27-21.34-14.46-32.93-.06-.19,0-.39.16-.47.85-.39,1.7-.78,2.55-1.17l24.55-11.26,15.63,34.09"/>
      <path class="st17" d="M700.02,693.61c-.8.49-1.64.88-2.53,1.18-.18.05-.37-.06-.46-.25-5.26-10.79-10.32-21.66-15.19-32.63-.09-.29.01-.59.25-.7.9-.51,1.82-.91,2.8-1.23"/>
      <path class="st17" d="M694.26,694.92c.3.66,2.12.48,4.07-.41.15-.08.31-.15.46-.23l1.23-.66c.15-.1.2-.32.11-.51l-15.22-33.18-2.82,1.29c-.91.44-1.83.88-2.74,1.32-.34.28-.43.81-.22,1.28,3.3,11.12,8.44,21.67,15.14,31.11Z"/>
      <path class="st17" d="M696.12,694.31c-.45.02-.89.07-1.32.15-.53,0-1.06.03-1.58.1-.71.08-1.43.16-2.14.24-.99.1-1.94.29-2.89.57-.58.17-1.15.36-1.71.57-.6.22-1.19.45-1.79.69-1.41.56-2.79,1.19-4.13,1.9-1.36.72-2.64,1.54-3.87,2.47-.92.7-1.77,1.49-2.55,2.37-.49.56-.78,1.17-.91,1.96-.01.07,0,.12.03.19l.27.6c.13.14.26.19.43.2,8.78-4.03,17.56-8.05,26.34-12.08.16-.07.22-.28.13-.46l-.08-.18h0c-.09-.18-.28-.27-.44-.21-.39.12-.77.23-1.16.35-.5.19-1.01.34-1.54.44l-1.09.14Z"/>
      <path class="st17" d="M681.48,662.37c-.31.32-.63.62-.98.9-.35.4-.72.78-1.1,1.13-.53.49-1.05.98-1.58,1.47-.72.68-1.49,1.28-2.32,1.82-.51.33-1.02.63-1.55.92-.56.31-1.12.61-1.69.91-1.34.71-2.72,1.34-4.13,1.9-1.43.56-2.89,1-4.4,1.32-1.14.24-2.28.37-3.46.38-.74,0-1.4-.17-2.08-.59-.06-.03-.1-.08-.13-.14l-.27-.6c-.02-.19.02-.33.13-.46,8.78-4.03,17.56-8.05,26.34-12.08.16-.07.35.02.43.2l.08.18h0c.08.18.02.39-.13.47-.34.22-.68.43-1.02.65-.47.25-.91.55-1.34.88l-.82.73Z"/>
    </g>
    <circle class="st15" cx="671.96" cy="726.93" r="13.02"/>
  </g>
  <g>
    <polygon class="st0" points="491.56 783.91 506.11 783.99 518.08 783.9 518.08 840.87 491.56 840.87 491.56 783.91"/>
    <g>
      <line class="st3" x1="491.69" y1="783.89" x2="518.21" y2="783.89"/>
      <g>
        <line class="st3" x1="491.69" y1="812.3" x2="518.21" y2="812.3"/>
        <line class="st3" x1="518.21" y1="813.06" x2="518.21" y2="783.95"/>
        <line class="st3" x1="518.21" y1="813.06" x2="518.21" y2="840.65"/>
        <path class="st13" d="M518.21,841.03"/>
        <line class="st3" x1="491.69" y1="840.65" x2="518.21" y2="840.65"/>
      </g>
    </g>
    <path class="st9" d="M518.21,840.54l12.9-22.97s-5.78-4.79-12.9-4.83"/>
    <path class="st9" d="M518.21,784.68l12.9,22.47s-5.78,4.69-12.9,4.73"/>
  </g>
  <g>
    <path class="st3" d="M504.41,995.32c11.6,0,22.94-4.79,31.27-13.11,8.07-8.07,12.86-19.42,12.86-31.01"/>
    <line class="st3" x1="504.41" y1="952.96" x2="504.41" y2="995.32"/>
    <polyline class="st3" points="548.54 951.2 504.41 951.2 504.41 952.96"/>
  </g>
  <g>
    <path class="st3" d="M535.81,921.59c0-11.6-4.79-22.94-13.11-31.27-8.07-8.07-19.42-12.86-31.01-12.86"/>
    <line class="st3" x1="493.45" y1="921.59" x2="535.81" y2="921.59"/>
    <polyline class="st3" points="491.69 877.47 491.69 921.59 493.45 921.59"/>
  </g>
  <rect class="st20" x="483.21" y="775.33" width="8.5" height="102.3"/>
  <rect class="st20" x="682.78" y="924.68" width="34.02" height="31.04"/>
  <rect class="st20" x="682.78" y="765.75" width="34.02" height="42.49"/>
  <rect class="st20" x="682.78" y="634.26" width="34.02" height="15.37"/>
  <rect class="st20" x="483.21" y="921.97" width="8.5" height="40.18"/>
  <rect class="st20" x="483.21" y="949.36" width="12.76" height="97.5"/>
  <rect class="st20" x="573.92" y="947.92" width="8.5" height="98.94"/>
  <rect class="st20" x="483.21" y="1041.63" width="99.21" height="21.26"/>
  <rect class="st20" x="548.43" y="947.27" width="168.36" height="8.5"/>
  <rect class="st20" x="483.21" y="947.27" width="21.2" height="8.5"/>
  <rect class="st20" x="578.57" y="634.26" width="138.22" height="8.5"/>
  <rect class="st20" x="483.23" y="775.33" width="33.65" height="8.5"/>
  <rect class="st20" x="509.81" y="740.62" width="76.98" height="8.5"/>
  <rect class="st20" x="509.81" y="741.62" width="8.5" height="42.22"/>
  <rect class="st20" x="578.39" y="634.26" width="8.5" height="114.86"/>
  <g>
    <g>
      <g>
        <path class="st6" d="M707.47,706.37c-14.25,0-28.19-5.89-38.41-16.11-9.91-9.91-15.8-23.85-15.8-38.1"/>
        <path class="st6" d="M707.47,706.37"/>
        <path class="st6" d="M707.47,652.16"/>
        <line class="st6" x1="653.26" y1="652.16" x2="707.47" y2="652.16"/>
      </g>
      <line class="st4" x1="713.75" y1="679.5" x2="713.75" y2="707.64"/>
      <line class="st4" x1="713.75" y1="708.06" x2="713.75" y2="736.14"/>
      <line class="st4" x1="713.75" y1="736.56" x2="713.75" y2="764.82"/>
      <line class="st4" x1="713.75" y1="650.82" x2="713.75" y2="679.14"/>
      <line class="st4" x1="712.79" y1="652.14" x2="712.79" y2="677.88"/>
      <line class="st4" x1="712.79" y1="680.82" x2="712.79" y2="706.38"/>
      <line class="st4" x1="712.79" y1="737.82" x2="712.79" y2="763.56"/>
      <line class="st4" x1="712.79" y1="709.32" x2="712.79" y2="734.88"/>
      <line class="st4" x1="707.45" y1="763.56" x2="707.45" y2="737.82"/>
      <line class="st4" x1="707.45" y1="734.88" x2="707.45" y2="709.32"/>
      <line class="st4" x1="707.45" y1="706.38" x2="707.45" y2="680.82"/>
      <line class="st4" x1="707.45" y1="677.88" x2="707.45" y2="652.14"/>
      <polyline class="st4" points="709.43 652.14 709.43 677.88 707.45 677.88 707.45 680.82 709.43 680.82 709.43 706.38 707.45 706.38 707.45 709.32 709.43 709.32 709.43 734.88 707.45 734.88 707.45 737.82 709.43 737.82 709.43 763.56 707.45 763.56 707.45 765.24 713.75 765.24 713.75 764.82 712.79 764.82 712.79 763.56 711.71 763.56 711.71 737.82 712.79 737.82 712.79 736.56 713.75 736.56 713.75 736.14 712.79 736.14 712.79 734.88 711.71 734.88 711.71 709.32 712.79 709.32 712.79 708.06 713.75 708.06 713.75 707.64 712.79 707.64 712.79 706.38 711.71 706.38 711.71 680.82 712.79 680.82 712.79 679.5 713.75 679.5 713.75 679.14 712.79 679.14 712.79 677.88 711.71 677.88 711.71 652.14 712.79 652.14 712.79 650.82 713.75 650.82 713.75 650.46 707.45 650.46 707.45 652.14 709.43 652.14"/>
      <line class="st4" x1="711.71" y1="707.52" x2="711.71" y2="651"/>
    </g>
    <line class="st3" x1="716.7" y1="765.75" x2="716.7" y2="649.53"/>
  </g>
  <g>
    <g>
      <g>
        <path class="st6" d="M707.47,865.3c-14.25,0-28.19-5.89-38.41-16.11-9.91-9.91-15.8-23.85-15.8-38.1"/>
        <path class="st6" d="M707.47,865.3"/>
        <path class="st6" d="M707.47,811.09"/>
        <line class="st6" x1="653.26" y1="811.09" x2="707.47" y2="811.09"/>
      </g>
      <line class="st4" x1="713.75" y1="838.43" x2="713.75" y2="866.57"/>
      <line class="st4" x1="713.75" y1="866.99" x2="713.75" y2="895.07"/>
      <line class="st4" x1="713.75" y1="895.49" x2="713.75" y2="923.75"/>
      <line class="st4" x1="713.75" y1="809.75" x2="713.75" y2="838.07"/>
      <line class="st4" x1="712.79" y1="811.07" x2="712.79" y2="836.81"/>
      <line class="st4" x1="712.79" y1="839.75" x2="712.79" y2="865.31"/>
      <line class="st4" x1="712.79" y1="896.75" x2="712.79" y2="922.49"/>
      <line class="st4" x1="712.79" y1="868.25" x2="712.79" y2="893.81"/>
      <line class="st4" x1="707.45" y1="922.49" x2="707.45" y2="896.75"/>
      <line class="st4" x1="707.45" y1="893.81" x2="707.45" y2="868.25"/>
      <line class="st4" x1="707.45" y1="865.31" x2="707.45" y2="839.75"/>
      <line class="st4" x1="707.45" y1="836.81" x2="707.45" y2="811.07"/>
      <polyline class="st4" points="709.43 811.07 709.43 836.81 707.45 836.81 707.45 839.75 709.43 839.75 709.43 865.31 707.45 865.31 707.45 868.25 709.43 868.25 709.43 893.81 707.45 893.81 707.45 896.75 709.43 896.75 709.43 922.49 707.45 922.49 707.45 924.17 713.75 924.17 713.75 923.75 712.79 923.75 712.79 922.49 711.71 922.49 711.71 896.75 712.79 896.75 712.79 895.49 713.75 895.49 713.75 895.07 712.79 895.07 712.79 893.81 711.71 893.81 711.71 868.25 712.79 868.25 712.79 866.99 713.75 866.99 713.75 866.57 712.79 866.57 712.79 865.31 711.71 865.31 711.71 839.75 712.79 839.75 712.79 838.43 713.75 838.43 713.75 838.07 712.79 838.07 712.79 836.81 711.71 836.81 711.71 811.07 712.79 811.07 712.79 809.75 713.75 809.75 713.75 809.39 707.45 809.39 707.45 811.07 709.43 811.07"/>
      <line class="st4" x1="711.71" y1="866.45" x2="711.71" y2="809.93"/>
    </g>
    <line class="st3" x1="716.7" y1="924.68" x2="716.7" y2="808.46"/>
  </g>
  <g>
    <rect class="st17" x="558.85" y="676.54" width="113.09" height="50.38" transform="translate(-86.34 1317.12) rotate(-90)"/>
    <rect class="st17" x="601.4" y="657.48" width="27.99" height="28.27" rx="1.42" ry="1.42" transform="translate(1230.78 1343.25) rotate(-180)"/>
    <polygon class="st17" points="589.56 659.98 589.56 758.57 640.59 758.57 640.59 685.48 589.56 659.98"/>
  </g>
  <rect class="st11" x="491.71" y="821.05" width="95.43" height="127.61"/>
</svg>