<?xml version="1.0" encoding="UTF-8"?>
<svg id="Vinduer_i_facade" xmlns="http://www.w3.org/2000/svg" version="1.1" viewBox="0 0 1200 1697.14">
  <!-- Generator: Adobe Illustrator 29.6.0, SVG Export Plug-In . SVG Version: 2.1.1 Build 207)  -->
  <defs>
    <style>
      .st0 {
        fill: #e2dedb;
      }

      .st1 {
        stroke-miterlimit: 10;
      }

      .st1, .st2, .st3, .st4, .st5, .st6, .st7, .st8, .st9, .st10, .st11, .st12, .st13 {
        stroke: #363a3b;
      }

      .st1, .st6, .st14, .st15, .st16, .st12 {
        stroke-width: .28px;
      }

      .st1, .st17, .st11, .st12, .st13 {
        fill: #fff;
      }

      .st2 {
        stroke-width: .29px;
      }

      .st2, .st3, .st4, .st5, .st6, .st7, .st8, .st14, .st9, .st10, .st15, .st18, .st16 {
        fill: none;
      }

      .st2, .st3, .st4, .st5, .st6, .st7, .st8, .st14, .st9, .st10, .st15, .st18, .st16, .st11, .st12, .st13 {
        stroke-linecap: round;
        stroke-linejoin: round;
      }

      .st3 {
        stroke-width: .3px;
      }

      .st4 {
        stroke-width: .3px;
      }

      .st5 {
        stroke-width: .28px;
      }

      .st7, .st11 {
        stroke-width: .28px;
      }

      .st8 {
        stroke-width: .29px;
      }

      .st19 {
        fill: #ece8e5;
      }

      .st14, .st15, .st18, .st16 {
        stroke: #000;
      }

      .st9, .st18 {
        stroke-dasharray: .06 .43;
        stroke-width: .18px;
      }

      .st10 {
        stroke-dasharray: .07 .53;
        stroke-width: .18px;
      }

      .st15 {
        stroke-dasharray: .09 .69;
      }

      .st16 {
        stroke-dasharray: .09 .68;
      }

      .st20 {
        fill: #302c35;
      }

      .st13 {
        stroke-width: .29px;
      }
    </style>
  </defs>
  <polygon class="st19" points="740.33 701.96 465.17 701.96 465.17 889.85 471.67 889.85 471.67 981.19 557.54 981.21 557.5 1004.8 652.98 1004.8 652.54 882.14 740.08 881.92 740.33 701.96"/>
  <rect class="st17" x="455.23" y="833.85" width="67.5" height="35.36" transform="translate(1340.51 362.54) rotate(90)"/>
  <rect class="st0" x="557.09" y="878.01" width="91.98" height="118.32"/>
  <g>
    <line class="st6" x1="628.56" y1="874.92" x2="647.82" y2="874.92"/>
    <line class="st6" x1="647.82" y1="873.54" x2="628.56" y2="873.54"/>
    <polyline class="st6" points="647.82 874.92 650.7 874.92 650.7 873.54 647.82 873.54 647.82 874.92"/>
    <polyline class="st6" points="625.74 874.92 628.56 874.92 628.56 873.54 625.74 873.54 625.74 874.92"/>
    <line class="st6" x1="627.54" y1="877.98" x2="627.54" y2="875.16"/>
    <line class="st6" x1="648.71" y1="877.98" x2="648.71" y2="875.16"/>
  </g>
  <g>
    <rect class="st11" x="471.43" y="790.1" width="35.16" height="27.64" transform="translate(978.01 1607.85) rotate(-180)"/>
    <rect class="st11" x="471.43" y="762.41" width="35.16" height="27.64" transform="translate(978.01 1552.46) rotate(-180)"/>
  </g>
  <g>
    <polyline class="st14" points="477.44 932.2 477.4 932.2 477.4 932.24"/>
    <line class="st15" x1="477.4" y1="932.94" x2="477.4" y2="976.46"/>
    <polyline class="st14" points="477.4 976.8 477.4 976.85 477.44 976.85"/>
    <line class="st16" x1="478.13" y1="976.85" x2="521.14" y2="976.85"/>
    <polyline class="st14" points="521.48 976.85 521.53 976.85 521.53 976.8"/>
    <line class="st15" x1="521.53" y1="976.11" x2="521.53" y2="932.59"/>
    <polyline class="st14" points="521.53 932.24 521.53 932.2 521.48 932.2"/>
    <line class="st16" x1="520.8" y1="932.2" x2="477.79" y2="932.2"/>
  </g>
  <g>
    <line class="st6" x1="499.43" y1="976.67" x2="499.43" y2="964.37"/>
    <path class="st12" d="M496.74,964.43c0,1.52,1.23,2.75,2.75,2.75s2.75-1.23,2.75-2.75-1.23-2.75-2.75-2.75-2.75,1.23-2.75,2.75"/>
  </g>
  <path class="st1" d="M524.74,977.69v-16.09c0-6.19,4.45-11.2,9.95-11.2s9.95,5.01,9.95,11.2v16.09s-19.9,0-19.9,0Z"/>
  <g>
    <g>
      <path class="st12" d="M586.08,765.93c0-7.12-6.14-12.9-13.72-12.9-5.58,0-11.1,3.65-13.01,8.79-.26.7-.79,2.18-.71,4.11.24,6.06,6.28,12.9,13.72,12.9s13.72-5.78,13.72-12.9Z"/>
      <path class="st6" d="M560.45,763.04c0-4.38,5.33-7.92,11.91-7.92"/>
      <path class="st6" d="M584.27,763.04c0-4.38-5.33-7.92-11.91-7.92"/>
      <path class="st6" d="M584.27,763.04c0,.86.68,1.56,1.53,1.56"/>
      <path class="st6" d="M560.45,763.04c0,.86-.74,1.56-1.66,1.56"/>
    </g>
    <g>
      <path class="st12" d="M586.08,810.2c0,7.12-6.14,12.9-13.72,12.9-5.58,0-11.1-3.65-13.01-8.79-.26-.7-.79-2.18-.71-4.11.24-6.06,6.28-12.9,13.72-12.9s13.72,5.78,13.72,12.9Z"/>
      <path class="st6" d="M560.45,813.1c0,4.38,5.33,7.92,11.91,7.92"/>
      <path class="st6" d="M584.27,813.1c0,4.38-5.33,7.92-11.91,7.92"/>
      <path class="st6" d="M584.27,813.1c0-.86.68-1.56,1.53-1.56"/>
      <path class="st6" d="M560.45,813.1c0-.86-.74-1.56-1.66-1.56"/>
    </g>
    <rect class="st12" x="554.52" y="768.89" width="35.68" height="40.44" transform="translate(-216.75 1361.47) rotate(-90)"/>
  </g>
  <circle class="st1" cx="655.8" cy="831.19" r="13.02"/>
  <g>
    <path class="st11" d="M476.83,898.59h18.5c.41,0,.74.21.74.47v26.59c0,.32-.33.59-.74.59h-18.5"/>
    <path class="st6" d="M479.52,913.47c.55,0,1-.45,1-1s-.45-1-1-1-1,.45-1,1,.45,1,1,1"/>
    <g>
      <path class="st6" d="M488.33,913.68c.68,0,1.23-.55,1.23-1.23s-.55-1.23-1.23-1.23-1.23.55-1.23,1.23.55,1.23,1.23,1.23"/>
      <path class="st6" d="M488.33,914.26c1,0,1.82-.81,1.82-1.82s-.81-1.82-1.82-1.82-1.82.81-1.82,1.82.81,1.82,1.82,1.82"/>
    </g>
    <path class="st7" d="M482.74,900.62h10.82c.41,0,.74.23.74.52v22.61c0,.29-.33.52-.74.52h-10.82c-.41,0-.74-.23-.74-.52v-22.61c0-.29.33-.52.74-.52Z"/>
  </g>
  <g>
    <rect class="st13" x="650.51" y="790.73" width="113.09" height="50.38" transform="translate(-108.87 1522.98) rotate(-90)"/>
    <rect class="st13" x="693.06" y="771.68" width="27.99" height="28.27" rx="1.45" ry="1.45"/>
    <polygon class="st13" points="732.89 774.17 732.89 872.77 681.86 872.77 681.86 799.67 732.89 774.17"/>
  </g>
  <g>
    <line class="st2" x1="506.49" y1="844.75" x2="471.33" y2="844.75"/>
    <g>
      <g>
        <polyline class="st5" points="473.46 881.92 504.26 881.92 504.26 850.39 473.46 850.39 473.46 881.92"/>
        <g>
          <polyline class="st5" points="501.16 876.76 479.96 876.76 479.96 855.56 501.16 855.56 501.16 876.76"/>
          <line class="st5" x1="485.09" y1="866.1" x2="476.56" y2="866.1"/>
        </g>
      </g>
      <g>
        <g>
          <line class="st8" x1="476.53" y1="829.92" x2="484.78" y2="829.92"/>
          <line class="st8" x1="492.14" y1="829.92" x2="500.38" y2="829.92"/>
          <line class="st8" x1="496.2" y1="826.11" x2="496.2" y2="833.83"/>
          <line class="st8" x1="480.71" y1="826.11" x2="480.71" y2="833.83"/>
        </g>
        <polyline class="st3" points="473.46 838.3 504.26 838.3 504.26 821.64 473.46 821.64 473.46 838.3"/>
      </g>
    </g>
  </g>
  <rect class="st20" x="648.64" y="877.96" width="96.88" height="8.5"/>
  <rect class="st20" x="580.98" y="692.34" width="37.7" height="34.02"/>
  <rect class="st20" x="707.21" y="692.34" width="38.15" height="34.02"/>
  <rect class="st20" x="454.48" y="692.34" width="38.15" height="34.02"/>
  <rect class="st20" x="737.02" y="692.34" width="8.5" height="192.12"/>
  <rect class="st20" x="648.64" y="878.03" width="8.5" height="119.93"/>
  <rect class="st20" x="463.04" y="725.91" width="8.5" height="166.29"/>
  <rect class="st20" x="468.16" y="885.96" width="8.5" height="97.68"/>
  <rect class="st20" x="549.66" y="942.73" width="8.5" height="62.07"/>
  <rect class="st20" x="549.66" y="885.11" width="8.5" height="13.49"/>
  <rect class="st20" x="463" y="885.11" width="94.98" height="8.5"/>
  <rect class="st20" x="468.11" y="977.59" width="90.01" height="21.26"/>
  <rect class="st20" x="636.75" y="996.3" width="20.39" height="8.5"/>
  <rect class="st20" x="557.5" y="996.3" width="35.74" height="8.5"/>
  <g>
    <path class="st9" d="M506.63,817.54l16.54-21.63s-7.42-4.51-16.54-4.55"/>
    <path class="st9" d="M506.63,788.59c9.13-.04,16.54-4.55,16.54-4.55l-16.54-21.63"/>
  </g>
  <g>
    <path class="st6" d="M554.28,942.73c-11.6,0-22.94-4.79-31.27-13.11-8.07-8.07-12.86-19.41-12.86-31.01"/>
    <line class="st6" x1="554.28" y1="900.37" x2="554.28" y2="942.73"/>
    <polyline class="st6" points="510.16 898.6 554.28 898.6 554.28 900.37"/>
  </g>
  <g>
    <path class="st6" d="M592.78,996.51c0-11.6,4.79-22.95,13.11-31.27,8.07-8.07,19.42-12.86,31.01-12.86"/>
    <line class="st6" x1="635.14" y1="996.51" x2="592.78" y2="996.51"/>
    <polyline class="st6" points="636.9 952.38 636.9 996.51 635.14 996.51"/>
  </g>
  <g>
    <path class="st10" d="M549.77,702.11c0,14.44-5.97,28.57-16.33,38.93-10.05,10.05-24.18,16.01-38.62,16.01"/>
    <path class="st10" d="M549.77,702.11"/>
    <path class="st10" d="M494.83,702.11"/>
    <line class="st10" x1="494.83" y1="757.05" x2="494.83" y2="702.11"/>
  </g>
  <g>
    <path class="st10" d="M676,702.11c0,14.44-5.97,28.57-16.33,38.93-10.05,10.05-24.18,16.01-38.62,16.01"/>
    <path class="st10" d="M676,702.11"/>
    <path class="st10" d="M621.05,702.11"/>
    <line class="st10" x1="621.05" y1="757.05" x2="621.05" y2="702.11"/>
  </g>
  <line class="st4" x1="522.65" y1="695.61" x2="551.03" y2="695.61"/>
  <line class="st4" x1="551.39" y1="695.61" x2="579.95" y2="695.61"/>
  <line class="st4" x1="493.73" y1="695.61" x2="522.23" y2="695.61"/>
  <line class="st4" x1="523.91" y1="696.57" x2="549.71" y2="696.57"/>
  <line class="st4" x1="494.99" y1="696.57" x2="520.97" y2="696.57"/>
  <line class="st4" x1="552.65" y1="696.57" x2="578.63" y2="696.57"/>
  <line class="st4" x1="578.63" y1="701.91" x2="552.65" y2="701.91"/>
  <line class="st4" x1="549.71" y1="701.91" x2="523.91" y2="701.91"/>
  <line class="st4" x1="520.97" y1="701.91" x2="494.99" y2="701.91"/>
  <polyline class="st4" points="494.99 699.93 520.97 699.93 520.97 701.91 523.91 701.91 523.91 699.93 549.71 699.93 549.71 701.91 552.65 701.91 552.65 699.93 578.63 699.93 578.63 701.91 580.31 701.91 580.31 695.61 579.95 695.61 579.95 696.57 578.63 696.57 578.63 697.65 552.65 697.65 552.65 696.57 551.39 696.57 551.39 695.61 551.03 695.61 551.03 696.57 549.71 696.57 549.71 697.65 523.91 697.65 523.91 696.57 522.65 696.57 522.65 695.61 522.23 695.61 522.23 696.57 520.97 696.57 520.97 697.65 494.99 697.65 494.99 696.57 493.73 696.57 493.73 695.61 493.31 695.61 493.31 701.91 494.99 701.91 494.99 699.93"/>
  <line class="st4" x1="580.31" y1="697.65" x2="493.91" y2="697.65"/>
  <line class="st6" x1="581.83" y1="692.5" x2="491.98" y2="692.5"/>
  <line class="st4" x1="648.87" y1="695.61" x2="677.25" y2="695.61"/>
  <line class="st4" x1="677.61" y1="695.61" x2="706.17" y2="695.61"/>
  <line class="st4" x1="619.95" y1="695.61" x2="648.45" y2="695.61"/>
  <line class="st4" x1="650.13" y1="696.57" x2="675.93" y2="696.57"/>
  <line class="st4" x1="621.21" y1="696.57" x2="647.19" y2="696.57"/>
  <line class="st4" x1="678.87" y1="696.57" x2="704.85" y2="696.57"/>
  <line class="st4" x1="704.85" y1="701.91" x2="678.87" y2="701.91"/>
  <line class="st4" x1="675.93" y1="701.91" x2="650.13" y2="701.91"/>
  <line class="st4" x1="647.19" y1="701.91" x2="621.21" y2="701.91"/>
  <polyline class="st4" points="621.21 699.93 647.19 699.93 647.19 701.91 650.13 701.91 650.13 699.93 675.93 699.93 675.93 701.91 678.87 701.91 678.87 699.93 704.85 699.93 704.85 701.91 706.53 701.91 706.53 695.61 706.17 695.61 706.17 696.57 704.85 696.57 704.85 697.65 678.87 697.65 678.87 696.57 677.61 696.57 677.61 695.61 677.25 695.61 677.25 696.57 675.93 696.57 675.93 697.65 650.13 697.65 650.13 696.57 648.87 696.57 648.87 695.61 648.45 695.61 648.45 696.57 647.19 696.57 647.19 697.65 621.21 697.65 621.21 696.57 619.95 696.57 619.95 695.61 619.53 695.61 619.53 701.91 621.21 701.91 621.21 699.93"/>
  <line class="st4" x1="706.17" y1="697.65" x2="620.13" y2="697.65"/>
  <line class="st6" x1="708.05" y1="692.5" x2="618.21" y2="692.5"/>
  <rect class="st18" x="557.09" y="878.03" width="92.18" height="118.48"/>
</svg>