<?xml version="1.0" encoding="UTF-8"?>
<svg xmlns="http://www.w3.org/2000/svg" version="1.1" viewBox="0 0 1200 1697.14">
  <!-- Generator: Adobe Illustrator 29.6.0, SVG Export Plug-In . SVG Version: 2.1.1 Build 207)  -->
  <defs>
    <style>
      .st0 {
        fill: #e2dedb;
      }

      .st1 {
        stroke-miterlimit: 10;
      }

      .st1, .st2, .st3, .st4, .st5, .st6, .st7, .st8, .st9, .st10, .st11, .st12 {
        stroke: #363a3b;
      }

      .st1, .st5, .st13, .st14, .st15, .st11 {
        stroke-width: .28px;
      }

      .st1, .st16, .st10, .st11, .st12 {
        fill: #fff;
      }

      .st2 {
        stroke-width: .29px;
      }

      .st2, .st3, .st4, .st5, .st6, .st7, .st8, .st13, .st17, .st9, .st14, .st18, .st15 {
        fill: none;
      }

      .st2, .st3, .st4, .st5, .st6, .st7, .st8, .st13, .st17, .st9, .st14, .st18, .st15, .st10, .st11, .st12 {
        stroke-linecap: round;
        stroke-linejoin: round;
      }

      .st3 {
        stroke-width: .3px;
      }

      .st4 {
        stroke-width: .28px;
      }

      .st6, .st10 {
        stroke-width: .28px;
      }

      .st7 {
        stroke-width: .29px;
      }

      .st19 {
        fill: #ece8e5;
      }

      .st8 {
        stroke-dasharray: .06 .42;
        stroke-width: .18px;
      }

      .st13, .st17, .st14, .st18, .st15 {
        stroke: #000;
      }

      .st17 {
        stroke-width: .3px;
      }

      .st9, .st18 {
        stroke-dasharray: .06 .43;
        stroke-width: .18px;
      }

      .st14 {
        stroke-dasharray: .09 .69;
      }

      .st20 {
        fill: #302c35;
      }

      .st15 {
        stroke-dasharray: .09 .68;
      }

      .st12 {
        stroke-width: .29px;
      }
    </style>
  </defs>
  <g id="Vinduer_i_facade">
    <path class="st19" d="M411.03,853.35h50.32c.37,0,0-14.32,0-14.32h44.81v-97.69h81.53v-16.53l161.79-.59,16.33,132.81,13.22,116.79h-158.66v-30.78h-196.86v-7.79h-13.96l1.47-81.9Z"/>
    <rect class="st16" x="393.45" y="877.82" width="79.23" height="34.91" transform="translate(-462.22 1328.34) rotate(-90)"/>
    <rect class="st0" x="480.02" y="823.72" width="93.49" height="127.99" transform="translate(-360.95 1414.49) rotate(-90)"/>
    <g>
      <line class="st5" x1="596.31" y1="931.85" x2="615.57" y2="931.85"/>
      <line class="st5" x1="615.57" y1="930.47" x2="596.31" y2="930.47"/>
      <polyline class="st5" points="615.57 931.85 618.45 931.85 618.45 930.47 615.57 930.47 615.57 931.85"/>
      <polyline class="st5" points="593.49 931.85 596.31 931.85 596.31 930.47 593.49 930.47 593.49 931.85"/>
      <line class="st5" x1="595.29" y1="934.91" x2="595.29" y2="932.09"/>
      <line class="st5" x1="616.46" y1="934.91" x2="616.46" y2="932.09"/>
    </g>
    <g>
      <g>
        <path class="st11" d="M712.06,937.66c7.12,0,12.9-6.14,12.9-13.72,0-5.58-3.65-11.1-8.79-13.01-.7-.26-2.18-.79-4.11-.71-6.06.24-12.9,6.28-12.9,13.72,0,7.58,5.78,13.72,12.9,13.72Z"/>
        <path class="st5" d="M714.96,912.02c4.38,0,7.92,5.33,7.92,11.91"/>
        <path class="st5" d="M714.96,935.84c4.38,0,7.92-5.33,7.92-11.91"/>
        <path class="st5" d="M714.96,935.84c-.86,0-1.56.68-1.56,1.53"/>
        <path class="st5" d="M714.96,912.02c-.86,0-1.56-.74-1.56-1.66"/>
      </g>
      <g>
        <path class="st11" d="M667.79,937.66c-7.12,0-12.9-6.14-12.9-13.72,0-5.58,3.65-11.1,8.79-13.01.7-.26,2.18-.79,4.11-.71,6.06.24,12.9,6.28,12.9,13.72,0,7.58-5.78,13.72-12.9,13.72Z"/>
        <path class="st5" d="M664.9,912.02c-4.38,0-7.92,5.33-7.92,11.91"/>
        <path class="st5" d="M664.9,935.84c-4.38,0-7.92-5.33-7.92-11.91"/>
        <path class="st5" d="M664.9,935.84c.86,0,1.56.68,1.56,1.53"/>
        <path class="st5" d="M664.9,912.02c.86,0,1.56-.74,1.56-1.66"/>
      </g>
      <rect class="st11" x="671.04" y="903.71" width="35.68" height="40.44"/>
    </g>
    <g>
      <g>
        <polyline class="st13" points="511.71 794.81 511.66 794.81 511.66 794.76"/>
        <line class="st14" x1="511.66" y1="794.07" x2="511.66" y2="750.55"/>
        <polyline class="st13" points="511.66 750.21 511.66 750.16 511.71 750.16"/>
        <line class="st15" x1="512.39" y1="750.16" x2="555.4" y2="750.16"/>
        <polyline class="st13" points="555.75 750.16 555.79 750.16 555.79 750.21"/>
        <line class="st14" x1="555.79" y1="750.9" x2="555.79" y2="794.42"/>
        <polyline class="st13" points="555.79 794.76 555.79 794.81 555.75 794.81"/>
        <line class="st15" x1="555.06" y1="794.81" x2="512.05" y2="794.81"/>
      </g>
      <g>
        <line class="st5" x1="533.69" y1="750.34" x2="533.69" y2="762.64"/>
        <path class="st11" d="M531,762.58c0-1.52,1.23-2.75,2.75-2.75,1.52,0,2.75,1.23,2.75,2.75s-1.23,2.75-2.75,2.75-2.75-1.23-2.75-2.75"/>
      </g>
    </g>
    <path class="st1" d="M559.26,749.62v16.09c0,6.19,4.45,11.2,9.95,11.2s9.95-5.01,9.95-11.2v-16.09s-19.9,0-19.9,0Z"/>
    <g>
      <path class="st10" d="M510.98,830.3h18.5c.41,0,.74-.21.74-.47v-26.59c0-.32-.33-.59-.74-.59h-18.5"/>
      <path class="st5" d="M513.68,815.42c.55,0,1,.45,1,1s-.45,1-1,1-1-.45-1-1,.45-1,1-1"/>
      <g>
        <path class="st5" d="M522.49,815.21c.68,0,1.23.55,1.23,1.23s-.55,1.23-1.23,1.23-1.23-.55-1.23-1.23.55-1.23,1.23-1.23"/>
        <path class="st5" d="M522.49,814.63c1,0,1.82.81,1.82,1.82s-.81,1.82-1.82,1.82-1.82-.81-1.82-1.82.81-1.82,1.82-1.82"/>
      </g>
      <path class="st6" d="M516.9,828.27h10.82c.41,0,.74-.23.74-.52v-22.61c0-.29-.33-.52-.74-.52h-10.82c-.41,0-.74.23-.74.52v22.61c0,.29.33.52.74.52Z"/>
    </g>
    <g>
      <rect class="st12" x="597.09" y="732.88" width="113.09" height="50.38"/>
      <rect class="st12" x="669.76" y="743.93" width="27.99" height="28.27" rx="1.45" ry="1.45" transform="translate(-74.32 1441.82) rotate(-90)"/>
      <polygon class="st12" points="695.39 732.24 596.8 732.24 596.8 783.26 669.89 783.26 695.39 732.24"/>
    </g>
    <g>
      <path class="st11" d="M734.9,820.61c-7.8-6.26-15.61-12.52-23.41-18.78-.41-.18-.92-.03-1.24.37-8.71,8.31-16.2,17.89-22.15,28.33-.1.17-.09.38.04.5.73.59,1.45,1.17,2.18,1.76l21.01,16.98,23.57-29.17"/>
      <path class="st11" d="M736.39,822.22c-.65-.68-1.37-1.26-2.16-1.77-.16-.09-.37-.04-.51.13-7.76,9.16-15.35,18.44-22.78,27.86-.16.26-.13.57.07.74.74.71,1.54,1.34,2.41,1.88"/>
      <path class="st11" d="M731.14,819.53c.46-.57,2.18.06,3.84,1.4.13.11.26.22.39.33l1.03.95c.12.14.11.36-.02.52l-22.95,28.39-2.42-1.95c-.78-.65-1.55-1.3-2.33-1.96-.26-.36-.22-.89.1-1.29,5.95-9.96,13.54-18.92,22.35-26.4Z"/>
      <path class="st11" d="M732.8,820.58c-.43-.13-.84-.29-1.24-.48-.51-.13-1.02-.29-1.51-.48-.67-.26-1.34-.51-2.02-.76-.93-.34-1.81-.76-2.66-1.27-.52-.31-1.02-.63-1.52-.98-.52-.36-1.05-.73-1.56-1.11-1.23-.89-2.41-1.84-3.54-2.86-1.14-1.03-2.18-2.14-3.14-3.35-.72-.91-1.34-1.88-1.88-2.93-.34-.66-.46-1.33-.4-2.13,0-.07.03-.12.07-.18l.41-.51c.16-.1.3-.12.47-.08,7.51,6.07,15.02,12.14,22.53,18.21.13.11.14.32.01.48l-.13.16h0c-.13.15-.34.19-.48.1-.35-.21-.69-.42-1.04-.63-.44-.31-.89-.58-1.38-.81l-1.02-.41Z"/>
      <path class="st11" d="M710.71,847.9c-.22-.39-.46-.76-.73-1.12-.24-.47-.5-.93-.79-1.37-.39-.6-.78-1.21-1.16-1.81-.53-.84-1.13-1.61-1.8-2.33-.41-.44-.83-.87-1.27-1.28-.47-.44-.94-.87-1.41-1.3-1.13-1.02-2.3-1.97-3.54-2.86-1.24-.9-2.55-1.68-3.93-2.36-1.04-.51-2.12-.92-3.26-1.22-.72-.19-1.4-.18-2.16.05-.06.02-.11.05-.16.11l-.41.51c-.06.18-.06.32.02.48,7.51,6.07,15.02,12.14,22.53,18.21.13.11.34.07.47-.09l.13-.16h0c.12-.16.12-.37,0-.49-.28-.29-.55-.59-.83-.88-.39-.36-.75-.75-1.08-1.18l-.61-.91Z"/>
    </g>
    <circle class="st1" cx="621.66" cy="805.48" r="13.02" transform="translate(-387.48 675.5) rotate(-45)"/>
    <g>
      <line class="st2" x1="415.22" y1="901.41" x2="450.37" y2="901.41"/>
      <g>
        <g>
          <g>
            <polyline class="st4" points="445.14 869.41 423.95 869.41 423.95 890.6 445.14 890.6 445.14 869.41"/>
            <line class="st4" x1="429.07" y1="880.06" x2="420.55" y2="880.06"/>
          </g>
          <polyline class="st4" points="448.24 864.24 417.45 864.24 417.45 895.77 448.24 895.77 448.24 864.24"/>
        </g>
        <g>
          <g>
            <line class="st7" x1="445.17" y1="916.24" x2="436.93" y2="916.24"/>
            <line class="st7" x1="429.57" y1="916.24" x2="421.33" y2="916.24"/>
            <line class="st7" x1="425.5" y1="920.05" x2="425.5" y2="912.33"/>
            <line class="st7" x1="440.99" y1="920.05" x2="440.99" y2="912.33"/>
          </g>
          <polyline class="st3" points="448.24 907.86 417.45 907.86 417.45 924.52 448.24 924.52 448.24 907.86"/>
        </g>
      </g>
    </g>
    <rect class="st20" x="585.37" y="719.3" width="152.7" height="10.05"/>
    <rect class="st20" x="527.11" y="776.61" width="123.11" height="8.5" transform="translate(-192.19 1369.52) rotate(-90)"/>
    <rect class="st20" x="452.6" y="779.82" width="108.38" height="8.5" transform="translate(-277.28 1290.87) rotate(-90)"/>
    <rect class="st20" x="365.85" y="888.96" width="91.01" height="8.5" transform="translate(-481.85 1304.56) rotate(-90)"/>
    <rect class="st20" x="598.67" y="947.57" width="40.34" height="21.26" transform="translate(-339.36 1577.04) rotate(-90)"/>
    <rect class="st20" x="459.21" y="834.74" width="76.15" height="8.5" transform="translate(994.57 1677.97) rotate(180)"/>
    <rect class="st20" x="503.36" y="934.53" width="126.1" height="8.5" transform="translate(1132.82 1877.57) rotate(180)"/>
    <rect class="st20" x="608.21" y="971.11" width="166.9" height="8.5" transform="translate(1383.32 1950.73) rotate(180)"/>
    <rect class="st20" x="422.46" y="934.53" width="36.96" height="8.5" transform="translate(881.89 1877.57) rotate(180)"/>
    <rect class="st20" x="409.44" y="930.21" width="18.61" height="8.5" transform="translate(837.5 1868.92) rotate(180)"/>
    <rect class="st20" x="417.38" y="932.37" width="12.83" height="8.5" transform="translate(1360.42 512.82) rotate(90)"/>
    <rect class="st20" x="408.72" y="848.15" width="56.99" height="8.5" transform="translate(874.43 1704.81) rotate(180)"/>
    <rect class="st20" x="450.7" y="841.44" width="21.92" height="8.5" transform="translate(1307.35 384.04) rotate(90)"/>
    <rect class="st20" x="579.51" y="834.73" width="13.41" height="8.5" transform="translate(1172.42 1677.97) rotate(180)"/>
    <rect class="st20" x="507.11" y="729.88" width="85.45" height="19.79" transform="translate(1099.67 1479.55) rotate(180)"/>
    <rect class="st20" x="697.63" y="899.56" width="137.66" height="34.02" transform="translate(1567.24 29.83) rotate(81.99)"/>
    <rect class="st20" x="731.01" y="705.74" width="20.88" height="34.02" transform="translate(1353.76 -112.23) rotate(81.98)"/>
    <g>
      <path class="st5" d="M579.53,794.28c-11.6,0-22.94,4.79-31.27,13.11-8.07,8.07-12.86,19.42-12.86,31.01"/>
      <line class="st5" x1="579.53" y1="836.64" x2="579.53" y2="794.28"/>
      <polyline class="st5" points="535.4 838.41 579.53 838.41 579.53 836.64"/>
    </g>
    <g>
      <path class="st5" d="M459.38,890.56c11.6,0,22.94,4.79,31.27,13.11,8.07,8.07,12.86,19.42,12.86,31.01"/>
      <line class="st5" x1="459.38" y1="932.92" x2="459.38" y2="890.56"/>
      <polyline class="st5" points="503.51 934.68 459.38 934.68 459.38 932.92"/>
    </g>
    <g>
      <path class="st8" d="M753.63,759.91c-5.34-.13-10.11-2.12-14.67-5.51-5.44-4.05-9.18-10.26-10.07-17.01"/>
      <line class="st8" x1="728.89" y1="737.39" x2="750.41" y2="734.53"/>
    </g>
    <g>
      <path class="st9" d="M760.64,819.41c-5.12,1.53-9.2,4.7-12.71,9.18-4.19,5.35-6.18,12.35-5.28,19.12"/>
      <line class="st9" x1="742.65" y1="847.7" x2="763.95" y2="844.8"/>
    </g>
    <polyline class="st17" points="759.6 730.87 766.44 788.47 773.82 845.95"/>
    <polyline class="st17" points="763.14 819.01 766.26 844.45 768.54 844.15 765.36 818.71 763.14 819.01"/>
    <polyline class="st17" points="759.66 790.75 762.78 816.07 765 815.77 761.88 790.51 759.66 790.75"/>
    <polyline class="st17" points="752.64 734.17 755.76 759.61 758.04 759.37 754.92 733.87 752.64 734.17"/>
    <polyline class="st17" points="756.18 762.55 759.3 787.87 761.52 787.57 758.4 762.25 756.18 762.55"/>
    <line class="st17" x1="767.28" y1="817.21" x2="770.7" y2="845.23"/>
    <line class="st17" x1="756.78" y1="732.37" x2="760.2" y2="760.33"/>
    <line class="st17" x1="760.26" y1="760.75" x2="763.74" y2="788.59"/>
    <line class="st17" x1="763.74" y1="788.95" x2="767.22" y2="816.79"/>
    <line class="st17" x1="766.5" y1="818.59" x2="769.68" y2="844.03"/>
    <line class="st17" x1="763.02" y1="790.33" x2="766.14" y2="815.65"/>
    <line class="st17" x1="759.54" y1="762.13" x2="762.66" y2="787.45"/>
    <line class="st17" x1="756" y1="733.75" x2="759.18" y2="759.19"/>
    <polyline class="st17" points="770.76 845.59 770.7 845.23 769.8 845.35 769.68 844.03 764.28 844.69 764.52 846.37 770.76 845.59"/>
    <polyline class="st17" points="756.78 732.37 756.72 731.95 750.48 732.73 750.66 734.41 756 733.75 755.88 732.43 756.78 732.37"/>
    <polyline class="st17" points="767.28 817.21 767.22 816.79 766.32 816.91 766.14 815.65 760.8 816.31 761.16 819.25 766.5 818.59 766.38 817.33 767.28 817.21"/>
    <polyline class="st17" points="763.74 788.95 763.74 788.59 762.84 788.71 762.66 787.45 757.32 788.11 757.68 790.99 763.02 790.33 762.84 789.07 763.74 788.95"/>
    <polyline class="st17" points="760.26 760.75 760.2 760.33 759.3 760.45 759.18 759.19 753.84 759.85 754.2 762.79 759.54 762.13 759.36 760.87 760.26 760.75"/>
    <line class="st17" x1="764.28" y1="844.69" x2="761.16" y2="819.25"/>
    <line class="st17" x1="760.8" y1="816.31" x2="757.68" y2="790.99"/>
    <line class="st17" x1="757.32" y1="788.11" x2="754.2" y2="762.79"/>
    <line class="st17" x1="753.84" y1="759.85" x2="750.66" y2="734.41"/>
    <line class="st17" x1="757.92" y1="758.23" x2="755.04" y2="735.01"/>
    <line class="st17" x1="768.42" y1="843.01" x2="765.54" y2="819.85"/>
    <polyline class="st6" points="556.65 935.02 556.65 908.09 527.75 908.09 527.75 935.02"/>
    <polyline class="st6" points="585.61 935.02 585.61 908.09 556.71 908.09 556.71 935.02"/>
    <g>
      <path class="st9" d="M527.96,908.06l22.62-16.54s5.21,7.42,5.25,16.54"/>
      <path class="st9" d="M557.48,908.06c.04-9.13,5.5-16.54,5.5-16.54l22.62,16.54"/>
    </g>
  </g>
  <g id="Start_tegning">
    <rect class="st18" x="462.77" y="840.97" width="127.99" height="93.71"/>
  </g>
</svg>