<?xml version="1.0" encoding="UTF-8"?>
<svg id="hjælpestreger" xmlns="http://www.w3.org/2000/svg" version="1.1" viewBox="0 0 1200 1697.14">
  <!-- Generator: Adobe Illustrator 29.6.0, SVG Export Plug-In . SVG Version: 2.1.1 Build 207)  -->
  <defs>
    <style>
      .st0 {
        fill: #e2dedb;
      }

      .st1 {
        stroke-miterlimit: 10;
      }

      .st1, .st2, .st3, .st4, .st5, .st6, .st7, .st8, .st9, .st10, .st11, .st12, .st13, .st14 {
        stroke: #363a3b;
      }

      .st1, .st5, .st15, .st16, .st17, .st13 {
        stroke-width: .28px;
      }

      .st1, .st18, .st12, .st13, .st14 {
        fill: #fff;
      }

      .st2 {
        stroke-width: .29px;
      }

      .st2, .st3, .st4, .st5, .st6, .st7, .st8, .st9, .st15, .st10, .st11, .st16, .st19, .st17 {
        fill: none;
      }

      .st2, .st3, .st4, .st5, .st6, .st7, .st8, .st9, .st15, .st10, .st11, .st16, .st19, .st17, .st12, .st13, .st14 {
        stroke-linecap: round;
        stroke-linejoin: round;
      }

      .st3 {
        stroke-width: .3px;
      }

      .st4 {
        stroke-width: .28px;
      }

      .st6, .st12 {
        stroke-width: .28px;
      }

      .st7 {
        stroke-width: .29px;
      }

      .st8 {
        stroke-width: .22px;
      }

      .st20 {
        fill: #ece8e5;
      }

      .st9 {
        stroke-dasharray: .06 .42;
        stroke-width: .18px;
      }

      .st15, .st16, .st19, .st17 {
        stroke: #000;
      }

      .st10, .st19 {
        stroke-dasharray: .06 .43;
        stroke-width: .18px;
      }

      .st11 {
        stroke-dasharray: .05 .37;
        stroke-width: .16px;
      }

      .st16 {
        stroke-dasharray: .09 .69;
      }

      .st17 {
        stroke-dasharray: .09 .68;
      }

      .st21 {
        fill: #302c35;
      }

      .st14 {
        stroke-width: .29px;
      }
    </style>
  </defs>
  <path class="st20" d="M457.6,696.64l136.66,5.35,6.28-.16,139.47,1.7,1.33,170.27-4.86.08.44,98.88h-81.58v37.12h-102.42v-96.54h-34.58v-96.66h-60.3l-.44-120.05Z"/>
  <rect class="st0" x="542.22" y="890.13" width="128.73" height="93.8" transform="translate(-330.44 1543.62) rotate(-90)"/>
  <g>
    <line class="st5" x1="628.12" y1="869.44" x2="647.38" y2="869.44"/>
    <line class="st5" x1="647.38" y1="868.06" x2="628.12" y2="868.06"/>
    <polyline class="st5" points="647.38 869.44 650.26 869.44 650.26 868.06 647.38 868.06 647.38 869.44"/>
    <polyline class="st5" points="625.3 869.44 628.12 869.44 628.12 868.06 625.3 868.06 625.3 869.44"/>
    <line class="st5" x1="627.1" y1="872.5" x2="627.1" y2="869.68"/>
    <line class="st5" x1="648.27" y1="872.5" x2="648.27" y2="869.68"/>
  </g>
  <g>
    <g>
      <path class="st13" d="M493.98,742.36c-7.12,0-12.9,6.14-12.9,13.72,0,5.58,3.65,11.1,8.79,13.01.7.26,2.18.79,4.11.71,6.06-.24,12.9-6.28,12.9-13.72,0-7.58-5.78-13.72-12.9-13.72Z"/>
      <path class="st5" d="M491.09,767.99c-4.38,0-7.92-5.33-7.92-11.91"/>
      <path class="st5" d="M491.09,744.17c-4.38,0-7.92,5.33-7.92,11.91"/>
      <path class="st5" d="M491.09,744.17c.86,0,1.56-.68,1.56-1.53"/>
      <path class="st5" d="M491.09,767.99c.86,0,1.56.74,1.56,1.66"/>
    </g>
    <g>
      <path class="st13" d="M538.26,742.36c7.12,0,12.9,6.14,12.9,13.72,0,5.58-3.65,11.1-8.79,13.01-.7.26-2.18.79-4.11.71-6.06-.24-12.9-6.28-12.9-13.72s5.78-13.72,12.9-13.72Z"/>
      <path class="st5" d="M541.15,767.99c4.38,0,7.92-5.33,7.92-11.91"/>
      <path class="st5" d="M541.15,744.17c4.38,0,7.92,5.33,7.92,11.91"/>
      <path class="st5" d="M541.15,744.17c-.86,0-1.56-.68-1.56-1.53"/>
      <path class="st5" d="M541.15,767.99c-.86,0-1.56.74-1.56,1.66"/>
    </g>
    <rect class="st13" x="499.33" y="735.86" width="35.68" height="40.44" transform="translate(1034.33 1512.16) rotate(-180)"/>
  </g>
  <g>
    <g>
      <polyline class="st15" points="688.09 917.73 688.05 917.73 688.05 917.77"/>
      <line class="st16" x1="688.05" y1="918.46" x2="688.05" y2="961.98"/>
      <polyline class="st15" points="688.05 962.33 688.05 962.38 688.09 962.38"/>
      <line class="st17" x1="688.78" y1="962.38" x2="731.79" y2="962.38"/>
      <polyline class="st15" points="732.13 962.38 732.18 962.38 732.18 962.33"/>
      <line class="st16" x1="732.18" y1="961.64" x2="732.18" y2="918.12"/>
      <polyline class="st15" points="732.18 917.77 732.18 917.73 732.13 917.73"/>
      <line class="st17" x1="731.45" y1="917.73" x2="688.44" y2="917.73"/>
    </g>
    <g>
      <line class="st5" x1="710.08" y1="962.2" x2="710.08" y2="949.9"/>
      <path class="st13" d="M707.38,949.96c0,1.52,1.23,2.75,2.75,2.75s2.75-1.23,2.75-2.75-1.23-2.75-2.75-2.75-2.75,1.23-2.75,2.75"/>
    </g>
  </g>
  <path class="st1" d="M664.19,962.96v-16.09c0-6.19,4.45-11.2,9.95-11.2s9.95,5.01,9.95,11.2v16.09s-19.9,0-19.9,0Z"/>
  <g>
    <path class="st12" d="M732.6,909.09h-18.5c-.41,0-.74-.21-.74-.47v-26.59c0-.32.33-.59.74-.59h18.5"/>
    <path class="st5" d="M729.9,894.21c-.55,0-1,.45-1,1s.45,1,1,1,1-.45,1-1-.45-1-1-1"/>
    <g>
      <path class="st5" d="M721.09,894c-.68,0-1.23.55-1.23,1.23s.55,1.23,1.23,1.23,1.23-.55,1.23-1.23-.55-1.23-1.23-1.23"/>
      <path class="st5" d="M721.09,893.42c-1,0-1.82.81-1.82,1.82s.81,1.82,1.82,1.82,1.82-.81,1.82-1.82-.81-1.82-1.82-1.82"/>
    </g>
    <path class="st6" d="M726.69,907.06h-10.82c-.41,0-.74-.23-.74-.52v-22.61c0-.29.33-.52.74-.52h10.82c.41,0,.74.23.74.52v22.61c0,.29-.33.52-.74.52Z"/>
  </g>
  <g>
    <rect class="st14" x="651.56" y="764.9" width="113.09" height="50.38" transform="translate(-81.99 1498.2) rotate(-90)"/>
    <rect class="st14" x="694.11" y="745.84" width="27.99" height="28.27" rx="1.45" ry="1.45"/>
    <polygon class="st14" points="733.94 748.34 733.94 846.93 682.91 846.93 682.91 773.84 733.94 748.34"/>
  </g>
  <g>
    <path class="st13" d="M605.84,761.91c7.8,6.26,15.61,12.52,23.41,18.78.41.18.92.03,1.24-.37,8.71-8.31,16.2-17.89,22.15-28.33.1-.17.09-.38-.04-.5-.73-.59-1.45-1.17-2.18-1.76l-21.01-16.98-23.57,29.17"/>
    <path class="st13" d="M604.34,760.31c.65.68,1.37,1.26,2.16,1.77.16.09.37.04.51-.13,7.76-9.16,15.35-18.44,22.78-27.86.16-.26.13-.57-.07-.74-.74-.71-1.54-1.34-2.41-1.88"/>
    <path class="st13" d="M609.6,763c-.46.57-2.18-.06-3.84-1.4-.13-.11-.26-.22-.39-.33l-1.03-.95c-.12-.14-.11-.36.02-.52l22.95-28.39,2.42,1.95c.78.65,1.55,1.3,2.33,1.96.26.36.22.89-.1,1.29-5.95,9.96-13.54,18.92-22.35,26.4Z"/>
    <path class="st13" d="M607.94,761.95c.43.13.84.29,1.24.48.51.13,1.02.29,1.51.48.67.26,1.34.51,2.02.76.93.34,1.81.76,2.66,1.27.52.31,1.02.63,1.52.98.52.36,1.05.73,1.56,1.11,1.23.89,2.41,1.84,3.54,2.86,1.14,1.03,2.18,2.14,3.14,3.35.72.91,1.34,1.88,1.88,2.93.34.66.46,1.33.4,2.13,0,.07-.03.12-.07.18l-.41.51c-.16.1-.3.12-.47.08-7.51-6.07-15.02-12.14-22.53-18.21-.13-.11-.14-.32-.01-.48l.13-.16h0c.13-.15.34-.19.48-.1.35.21.69.42,1.04.63.44.31.89.58,1.38.81l1.02.41Z"/>
    <path class="st13" d="M630.03,734.62c.22.39.46.76.73,1.12.24.47.5.93.79,1.37.39.6.78,1.21,1.16,1.81.53.84,1.13,1.61,1.8,2.33.41.44.83.87,1.27,1.28.47.44.94.87,1.41,1.3,1.13,1.02,2.3,1.97,3.54,2.86,1.24.9,2.55,1.68,3.93,2.36,1.04.51,2.12.92,3.26,1.22.72.19,1.4.18,2.16-.05.06-.02.11-.05.16-.11l.41-.51c.06-.18.06-.32-.02-.48-7.51-6.07-15.02-12.14-22.53-18.21-.13-.11-.34-.07-.47.09l-.13.16h0c-.12.16-.12.37,0,.49.28.29.55.59.83.88.39.36.75.75,1.08,1.18l.61.91Z"/>
  </g>
  <circle class="st1" cx="653.05" cy="791.21" r="13.02" transform="translate(-360.24 951.59) rotate(-59.46)"/>
  <rect class="st12" x="524.69" y="811.31" width="35.16" height="27.64" transform="translate(1084.51 1650.28) rotate(-180)"/>
  <g>
    <rect class="st18" x="508.17" y="855.65" width="68.24" height="34.91" transform="translate(1415.4 330.82) rotate(90)"/>
    <g>
      <line class="st2" x1="524.45" y1="865.68" x2="559.6" y2="865.68"/>
      <g>
        <g>
          <g>
            <polyline class="st4" points="554.37 897.69 533.18 897.69 533.18 876.49 554.37 876.49 554.37 897.69"/>
            <line class="st4" x1="538.3" y1="887.03" x2="529.78" y2="887.03"/>
          </g>
          <polyline class="st4" points="557.47 902.85 526.68 902.85 526.68 871.32 557.47 871.32 557.47 902.85"/>
        </g>
        <g>
          <g>
            <line class="st7" x1="554.4" y1="850.85" x2="546.16" y2="850.85"/>
            <line class="st7" x1="538.8" y1="850.85" x2="530.56" y2="850.85"/>
            <line class="st7" x1="534.73" y1="847.04" x2="534.73" y2="854.76"/>
            <line class="st7" x1="550.22" y1="847.04" x2="550.22" y2="854.76"/>
          </g>
          <polyline class="st3" points="557.47 859.23 526.68 859.23 526.68 842.57 557.47 842.57 557.47 859.23"/>
        </g>
      </g>
    </g>
  </g>
  <path class="st10" d="M559.88,812.57l16.54,21.63s-7.42,4.51-16.54,4.55"/>
  <path class="st11" d="M583.11,926.96l13.21,20.32s-5.92,4.24-13.21,4.28"/>
  <path class="st11" d="M583.11,976.61l13.21-20.32s-5.92-4.24-13.21-4.28"/>
  <path class="st11" d="M583.11,1001.67l13.21-20.32s-5.92-4.24-13.21-4.28"/>
  <rect class="st8" x="559.88" y="976.77" width="22.92" height="25.06" transform="translate(1142.66 1978.62) rotate(-180)"/>
  <rect class="st8" x="559.88" y="951.78" width="22.92" height="25.06" transform="translate(1142.67 1928.64) rotate(-180)"/>
  <rect class="st8" x="559.88" y="926.85" width="22.92" height="25.06" transform="translate(1142.67 1878.78) rotate(-180)"/>
  <rect class="st21" x="579.98" y="692.4" width="40.66" height="34.02" transform="translate(12.8 -10.63) rotate(1.03)"/>
  <rect class="st21" x="735.88" y="694.32" width="16.35" height="34.69" transform="translate(12.86 -13.21) rotate(1.03)"/>
  <rect class="st21" x="447.76" y="687.4" width="16.35" height="34.02" transform="translate(12.68 -8.05) rotate(1.03)"/>
  <rect class="st21" x="738.05" y="727.86" width="8.5" height="150.84"/>
  <rect class="st21" x="516.36" y="811.13" width="8.5" height="104.59"/>
  <rect class="st21" x="551.36" y="907.22" width="8.5" height="101.02"/>
  <rect class="st21" x="651.62" y="928.56" width="8.5" height="79.68"/>
  <rect class="st21" x="732.85" y="873.8" width="8.5" height="95.13"/>
  <rect class="st21" x="651.62" y="869.95" width="8.5" height="14.03"/>
  <rect class="st21" x="695.63" y="832.8" width="8.5" height="82.75" transform="translate(-174.29 1574.06) rotate(-90)"/>
  <rect class="st21" x="533.84" y="889.73" width="8.5" height="43.47" transform="translate(-373.38 1449.56) rotate(-90)"/>
  <rect class="st21" x="569.71" y="982.97" width="8.5" height="45.22" transform="translate(-431.61 1579.55) rotate(-90)"/>
  <rect class="st21" x="645.96" y="995.68" width="8.5" height="19.8" transform="translate(-355.37 1655.79) rotate(-90)"/>
  <rect class="st21" x="688.19" y="930.98" width="21.26" height="85.02" transform="translate(-274.67 1672.32) rotate(-90)"/>
  <rect class="st21" x="485.27" y="779.98" width="8.5" height="70.67" transform="translate(-325.79 1304.84) rotate(-90)"/>
  <rect class="st21" x="454.19" y="715.15" width="8.5" height="102.7"/>
  <g>
    <path class="st5" d="M699.44,884.08c0,11.6-4.79,22.94-13.11,31.27-8.07,8.07-19.41,12.86-31.01,12.86"/>
    <line class="st5" x1="657.08" y1="884.08" x2="699.44" y2="884.08"/>
    <polyline class="st5" points="655.32 928.21 655.32 884.08 657.08 884.08"/>
  </g>
  <g>
    <path class="st5" d="M596.32,1001.44c0-11.6,4.79-22.94,13.11-31.27,8.07-8.07,19.41-12.86,31.01-12.86"/>
    <line class="st5" x1="638.68" y1="1001.44" x2="596.32" y2="1001.44"/>
    <polyline class="st5" points="640.45 957.32 640.45 1001.44 638.68 1001.44"/>
  </g>
  <g>
    <path class="st9" d="M648.02,702.43c-.9,5.27-3.55,9.7-7.56,13.73-4.79,4.81-11.47,7.62-18.27,7.54"/>
    <line class="st9" x1="622.19" y1="723.7" x2="622.44" y2="701.98"/>
  </g>
  <g>
    <path class="st10" d="M708.12,703.01c.78,5.29,3.33,9.78,7.26,13.9,4.69,4.92,11.34,7.88,18.16,7.96"/>
    <line class="st10" x1="733.55" y1="724.87" x2="733.8" y2="702.81"/>
  </g>
  <g>
    <path class="st9" d="M491.94,697.95c-.95,5.26-3.64,9.66-7.69,13.65-4.83,4.76-11.55,7.5-18.35,7.36"/>
    <line class="st9" x1="465.91" y1="718.96" x2="466.37" y2="697.25"/>
  </g>
  <g>
    <path class="st10" d="M551.76,700.88c.73,5.29,3.24,9.81,7.13,13.97,4.64,4.96,11.26,7.99,18.09,8.14"/>
    <line class="st10" x1="576.97" y1="722.99" x2="577.44" y2="700.93"/>
  </g>
  <g>
    <polyline class="st6" points="620.59 692.94 678.43 693.9 736.27 694.32"/>
    <g>
      <line class="st5" x1="733.83" y1="700.81" x2="733.8" y2="703.27"/>
      <line class="st5" x1="622.47" y1="699.52" x2="622.44" y2="701.98"/>
      <polyline class="st5" points="679.64 700.73 705.2 701.02 705.23 698.74 679.67 698.45 679.64 700.73"/>
      <polyline class="st5" points="651.15 700.4 676.7 700.69 676.73 698.41 651.17 698.12 651.15 700.4"/>
      <polyline class="st5" points="708.14 701.06 733.82 701.35 733.85 699.07 708.17 698.78 708.14 701.06"/>
      <polyline class="st5" points="622.47 700.06 648.15 700.36 648.17 698.08 622.49 697.78 622.47 700.06"/>
      <line class="st5" x1="706.93" y1="696.72" x2="735.19" y2="697.05"/>
      <line class="st5" x1="621.2" y1="695.73" x2="649.52" y2="696.06"/>
      <line class="st5" x1="649.88" y1="696.06" x2="678.01" y2="696.39"/>
      <line class="st5" x1="678.37" y1="696.39" x2="706.51" y2="696.72"/>
      <line class="st5" x1="708.18" y1="697.64" x2="733.86" y2="697.93"/>
      <line class="st5" x1="679.68" y1="697.31" x2="705.24" y2="697.6"/>
      <line class="st5" x1="651.18" y1="696.98" x2="676.74" y2="697.27"/>
      <line class="st5" x1="622.51" y1="696.64" x2="648.19" y2="696.94"/>
      <polyline class="st5" points="621.2 695.73 620.78 695.72 620.7 702.02 622.44 702.04 622.51 696.64 621.19 696.63 621.2 695.73"/>
      <polyline class="st5" points="678.37 696.39 678.01 696.39 678 697.29 676.74 697.27 676.68 702.67 679.62 702.71 679.68 697.31 678.36 697.29 678.37 696.39"/>
      <polyline class="st5" points="649.88 696.06 649.52 696.06 649.51 696.96 648.19 696.94 648.12 702.34 651.12 702.38 651.18 696.98 649.86 696.96 649.88 696.06"/>
      <polyline class="st5" points="735.61 697.05 735.19 697.05 735.18 697.95 733.86 697.93 733.8 703.33 735.54 703.35 735.61 697.05"/>
      <polyline class="st5" points="706.93 696.72 706.51 696.72 706.5 697.62 705.24 697.6 705.18 703 708.12 703.04 708.18 697.64 706.92 697.62 706.93 696.72"/>
      <line class="st5" x1="733.8" y1="703.33" x2="708.12" y2="703.04"/>
      <line class="st5" x1="705.18" y1="703" x2="679.62" y2="702.71"/>
      <line class="st5" x1="676.68" y1="702.67" x2="651.12" y2="702.38"/>
      <line class="st5" x1="648.12" y1="702.34" x2="622.44" y2="702.04"/>
      <line class="st5" x1="647.09" y1="698.07" x2="623.63" y2="697.8"/>
      <line class="st5" x1="732.77" y1="699.06" x2="709.31" y2="698.79"/>
    </g>
  </g>
  <g>
    <polyline class="st6" points="464.35 687.65 522.25 690.17 580.21 692.15"/>
    <polyline class="st6" points="551.89 698.39 577.51 699.35 577.57 697.07 551.95 696.11 551.89 698.39"/>
    <polyline class="st6" points="523.45 697.25 548.95 698.27 549.01 695.99 523.57 694.97 523.45 697.25"/>
    <polyline class="st6" points="466.53 695.03 492.07 696.05 492.19 693.77 466.57 692.81 466.53 695.03"/>
    <polyline class="st6" points="495.07 696.17 520.51 697.13 520.63 694.91 495.13 693.89 495.07 696.17"/>
    <line class="st6" x1="550.75" y1="694.01" x2="578.95" y2="695.09"/>
    <line class="st6" x1="465.31" y1="690.71" x2="493.51" y2="691.79"/>
    <line class="st6" x1="493.93" y1="691.79" x2="521.95" y2="692.87"/>
    <line class="st6" x1="522.37" y1="692.93" x2="550.39" y2="694.01"/>
    <line class="st6" x1="552.01" y1="694.97" x2="577.63" y2="695.99"/>
    <line class="st6" x1="523.57" y1="693.89" x2="549.07" y2="694.85"/>
    <line class="st6" x1="495.19" y1="692.75" x2="520.63" y2="693.77"/>
    <line class="st6" x1="466.63" y1="691.67" x2="492.25" y2="692.63"/>
    <polyline class="st6" points="579.37 695.15 578.95 695.09 578.95 695.99 577.63 695.99 577.45 701.33 579.13 701.39 579.37 695.15"/>
    <polyline class="st6" points="465.31 690.71 464.95 690.71 464.71 696.95 466.39 697.01 466.63 691.67 465.31 691.61"/>
    <polyline class="st6" points="550.75 694.01 550.39 694.01 550.33 694.91 549.07 694.85 548.83 700.25 551.77 700.37 552.01 694.97 550.75 694.91 550.75 694.01"/>
    <polyline class="st6" points="522.37 692.93 521.95 692.87 521.95 693.77 520.63 693.77 520.45 699.11 523.39 699.23 523.57 693.89 522.31 693.83 522.37 692.93"/>
    <polyline class="st6" points="493.93 691.79 493.51 691.79 493.51 692.69 492.25 692.63 492.01 698.03 494.95 698.15 495.19 692.75 493.93 692.69 493.93 691.79"/>
    <line class="st6" x1="577.45" y1="701.33" x2="551.77" y2="700.37"/>
    <line class="st6" x1="548.83" y1="700.25" x2="523.39" y2="699.23"/>
    <line class="st6" x1="520.45" y1="699.11" x2="494.95" y2="698.15"/>
    <line class="st6" x1="492.01" y1="698.03" x2="466.39" y2="697.01"/>
    <line class="st6" x1="576.43" y1="697.07" x2="553.09" y2="696.17"/>
  </g>
  <rect class="st19" x="559.88" y="872.66" width="93.61" height="128.73"/>
</svg>