<?xml version="1.0" encoding="UTF-8"?>
<svg id="Tekst" xmlns="http://www.w3.org/2000/svg" version="1.1" viewBox="0 0 1200 1697.14">
  <!-- Generator: Adobe Illustrator 29.6.0, SVG Export Plug-In . SVG Version: 2.1.1 Build 207)  -->
  <defs>
    <style>
      .st0, .st1, .st2, .st3, .st4, .st5, .st6, .st7, .st8, .st9, .st10, .st11, .st12 {
        fill: none;
      }

      .st13 {
        fill: #e2dedb;
      }

      .st14, .st1, .st2, .st3, .st4, .st5, .st6, .st8, .st9, .st15, .st16 {
        stroke: #363a3b;
      }

      .st14, .st3, .st7, .st10, .st12, .st16 {
        stroke-width: .28px;
      }

      .st14, .st8 {
        stroke-miterlimit: 10;
      }

      .st14, .st17, .st15, .st16 {
        fill: #fff;
      }

      .st1 {
        stroke-width: .3px;
      }

      .st1, .st2, .st3, .st4, .st5, .st6, .st7, .st9, .st10, .st11, .st12, .st15, .st16 {
        stroke-linecap: round;
        stroke-linejoin: round;
      }

      .st2 {
        stroke-width: .28px;
      }

      .st4, .st15 {
        stroke-width: .28px;
      }

      .st5 {
        stroke-width: .29px;
      }

      .st18 {
        fill: #ece8e5;
      }

      .st6 {
        stroke-dasharray: .07 .52;
        stroke-width: .18px;
      }

      .st7, .st10, .st11, .st12 {
        stroke: #000;
      }

      .st8 {
        stroke-width: .29px;
      }

      .st9, .st11 {
        stroke-dasharray: .06 .43;
        stroke-width: .18px;
      }

      .st10 {
        stroke-dasharray: .09 .69;
      }

      .st12 {
        stroke-dasharray: .09 .68;
      }

      .st19 {
        fill: #302c35;
      }
    </style>
  </defs>
  <polygon class="st18" points="483.21 877.37 483.21 796.47 512.9 796.37 512.9 761.84 582.42 761.84 583.41 643.23 706.47 643.23 706.47 692.09 706.47 784.58 686.85 784.58 686.85 963.91 645.07 963.91 645.07 997.24 587.15 997.24 587.15 1054.13 483.21 1054.13 483.21 877.37"/>
  <g>
    <g>
      <line class="st3" x1="640.62" y1="993.2" x2="640.62" y2="958.46"/>
      <g>
        <line class="st3" x1="606.9" y1="993.2" x2="606.9" y2="958.46"/>
        <line class="st3" x1="606.9" y1="958.46" x2="640.56" y2="958.46"/>
      </g>
    </g>
    <path class="st9" d="M640.62,958.46l-26.95-16.62s-6.24,7.45-6.29,16.62"/>
  </g>
  <polygon class="st17" points="491.56 801.24 506.11 801.28 518.08 801.24 518.08 829.63 491.56 829.63 491.56 801.24"/>
  <polygon class="st17" points="607.1 958.62 625.49 958.67 640.62 958.62 640.62 993.92 607.1 993.92 607.1 958.62"/>
  <polygon class="st17" points="518.28 765.91 555.91 765.94 586.86 765.9 586.86 801.13 518.28 801.13 518.28 765.91"/>
  <path class="st9" d="M518.21,801.8l12.9,22.47s-5.78,4.69-12.9,4.73"/>
  <polygon class="st8" points="518.03 766.12 555.76 766.15 586.79 766.12 586.79 801.16 518.03 801.16 518.03 766.12"/>
  <g>
    <g>
      <polyline class="st2" points="525.07 796.19 525.07 774.51 546.5 774.51 546.5 796.19 525.07 796.19"/>
      <line class="st2" x1="535.84" y1="779.75" x2="535.84" y2="771.04"/>
    </g>
    <polyline class="st2" points="519.85 799.36 519.85 767.86 551.72 767.86 551.72 799.36 519.85 799.36"/>
  </g>
  <g>
    <g>
      <line class="st5" x1="576.52" y1="796.22" x2="576.52" y2="787.79"/>
      <line class="st5" x1="576.52" y1="780.26" x2="576.52" y2="771.83"/>
      <line class="st5" x1="580.37" y1="776.1" x2="572.57" y2="776.1"/>
      <line class="st5" x1="580.37" y1="791.95" x2="572.57" y2="791.95"/>
    </g>
    <polyline class="st1" points="568.05 799.36 568.05 767.86 584.89 767.86 584.89 799.36 568.05 799.36"/>
  </g>
  <g>
    <g>
      <polyline class="st7" points="539.26 1004.86 539.26 1004.82 539.31 1004.82"/>
      <line class="st10" x1="540" y1="1004.82" x2="583.52" y2="1004.81"/>
      <polyline class="st7" points="583.86 1004.81 583.91 1004.81 583.91 1004.86"/>
      <line class="st12" x1="583.91" y1="1005.54" x2="583.91" y2="1048.56"/>
      <polyline class="st7" points="583.91 1048.9 583.91 1048.94 583.86 1048.94"/>
      <line class="st10" x1="583.17" y1="1048.94" x2="539.65" y2="1048.94"/>
      <polyline class="st7" points="539.31 1048.94 539.26 1048.94 539.26 1048.9"/>
      <line class="st12" x1="539.26" y1="1048.22" x2="539.26" y2="1005.2"/>
    </g>
    <g>
      <line class="st3" x1="583.72" y1="1028.55" x2="571.42" y2="1028.55"/>
      <path class="st16" d="M571.47,1025.86c1.52,0,2.75,1.23,2.75,2.75,0,1.52-1.23,2.75-2.75,2.75s-2.75-1.23-2.75-2.75c0-1.52,1.23-2.75,2.75-2.75"/>
    </g>
  </g>
  <g>
    <path class="st15" d="M501.81,1048.93v-18.5c0-.41.21-.74.47-.74h26.59c.32,0,.59.33.59.74v18.5"/>
    <path class="st3" d="M516.69,1046.24c0-.55-.45-1-1-1s-1,.45-1,1,.45,1,1,1,1-.45,1-1"/>
    <g>
      <path class="st3" d="M516.89,1037.42c0-.68-.55-1.23-1.23-1.23s-1.23.55-1.23,1.23.55,1.23,1.23,1.23,1.23-.55,1.23-1.23"/>
      <path class="st3" d="M517.48,1037.42c0-1-.81-1.82-1.82-1.82s-1.82.81-1.82,1.82.81,1.82,1.82,1.82,1.82-.81,1.82-1.82"/>
    </g>
    <path class="st4" d="M503.84,1043.02v-10.82c0-.41.23-.74.52-.74h22.61c.29,0,.52.33.52.74v10.82c0,.41-.23.74-.52.74h-22.61c-.29,0-.52-.33-.52-.74Z"/>
  </g>
  <g>
    <g>
      <path class="st16" d="M653.93,892.24c0,7.12-6.14,12.9-13.72,12.9-5.58,0-11.1-3.65-13.01-8.79-.26-.7-.79-2.18-.71-4.11.24-6.06,6.28-12.9,13.72-12.9,7.58,0,13.72,5.77,13.72,12.9Z"/>
      <path class="st3" d="M628.3,895.13c0,4.38,5.33,7.92,11.91,7.92"/>
      <path class="st3" d="M652.12,895.13c0,4.38-5.33,7.92-11.91,7.92"/>
      <path class="st3" d="M652.12,895.13c0-.86.68-1.56,1.53-1.56"/>
      <path class="st3" d="M628.3,895.13c0-.86-.74-1.56-1.66-1.56"/>
    </g>
    <g>
      <path class="st16" d="M653.93,847.97c0-7.12-6.14-12.9-13.72-12.9-5.58,0-11.1,3.65-13.01,8.79-.26.7-.79,2.18-.71,4.11.24,6.06,6.28,12.9,13.72,12.9,7.58,0,13.72-5.78,13.72-12.9Z"/>
      <path class="st3" d="M628.3,845.07c0-4.38,5.33-7.92,11.91-7.92"/>
      <path class="st3" d="M652.12,845.07c0-4.38-5.33-7.92-11.91-7.92"/>
      <path class="st3" d="M652.12,845.07c0,.86.68,1.56,1.53,1.56"/>
      <path class="st3" d="M628.3,845.07c0,.86-.74,1.56-1.66,1.56"/>
    </g>
    <rect class="st16" x="622.37" y="848.84" width="35.68" height="40.44" transform="translate(1509.26 228.84) rotate(90)"/>
  </g>
  <path class="st14" d="M584.31,992.06h-16.09c-6.19,0-11.2-4.45-11.2-9.95,0-5.5,5.01-9.95,11.2-9.95h16.09s0,19.9,0,19.9Z"/>
  <g>
    <g>
      <path class="st16" d="M698.17,702.11c-9.11,4.14-18.22,8.27-27.32,12.41-.44.07-.9-.2-1.11-.67-6.38-10.21-11.27-21.34-14.46-32.93-.06-.19,0-.39.16-.47.85-.39,1.7-.78,2.55-1.17l24.55-11.26,15.63,34.09"/>
      <path class="st16" d="M700.02,700.93c-.8.49-1.64.88-2.53,1.18-.18.05-.37-.06-.46-.25-5.26-10.79-10.32-21.66-15.19-32.63-.09-.29.01-.59.25-.7.9-.51,1.82-.91,2.8-1.23"/>
      <path class="st16" d="M694.26,702.23c.3.66,2.12.48,4.07-.41.15-.08.31-.15.46-.23l1.23-.66c.15-.1.2-.32.11-.51l-15.22-33.18-2.82,1.29c-.91.44-1.83.88-2.74,1.32-.34.28-.43.81-.22,1.28,3.3,11.12,8.44,21.67,15.14,31.11Z"/>
      <path class="st16" d="M696.12,701.63c-.45.02-.89.07-1.32.15-.53,0-1.06.03-1.58.1-.71.08-1.43.16-2.14.24-.99.1-1.94.29-2.89.57-.58.17-1.15.36-1.71.57-.6.22-1.19.45-1.79.69-1.41.56-2.79,1.19-4.13,1.9-1.36.72-2.64,1.54-3.87,2.47-.92.7-1.77,1.49-2.55,2.37-.49.56-.78,1.17-.91,1.96-.01.07,0,.12.03.19l.27.6c.13.14.26.19.43.2,8.78-4.03,17.56-8.05,26.34-12.08.16-.07.22-.28.13-.46l-.08-.18h0c-.09-.18-.28-.27-.44-.21-.39.12-.77.23-1.16.35-.5.19-1.01.34-1.54.44l-1.09.14Z"/>
      <path class="st16" d="M681.48,669.69c-.31.32-.63.62-.98.9-.35.4-.72.78-1.1,1.13-.53.49-1.05.98-1.58,1.47-.72.68-1.49,1.28-2.32,1.82-.51.33-1.02.63-1.55.92-.56.31-1.12.61-1.69.91-1.34.71-2.72,1.34-4.13,1.9-1.43.56-2.89,1-4.4,1.32-1.14.24-2.28.37-3.46.38-.74,0-1.4-.17-2.08-.59-.06-.03-.1-.08-.13-.14l-.27-.6c-.02-.19.02-.33.13-.46,8.78-4.03,17.56-8.05,26.34-12.08.16-.07.35.02.43.2l.08.18h0c.08.18.02.39-.13.47-.34.22-.68.43-1.02.65-.47.25-.91.55-1.34.88l-.82.73Z"/>
    </g>
    <circle class="st14" cx="671.96" cy="734.25" r="13.02"/>
  </g>
  <g>
    <rect class="st16" x="558.33" y="677.5" width="113.09" height="50.38" transform="translate(-87.82 1317.56) rotate(-90)"/>
    <rect class="st16" x="600.88" y="658.44" width="27.99" height="28.27" rx="1.42" ry="1.42" transform="translate(1229.74 1345.16) rotate(-180)"/>
    <polygon class="st16" points="589.04 660.93 589.04 759.53 640.06 759.53 640.06 686.44 589.04 660.93"/>
  </g>
  <polygon class="st13" points="491.71 829.63 584.74 829.63 584.89 959.75 491.71 959.75 491.71 829.63"/>
  <g>
    <line class="st3" x1="587.99" y1="953.62" x2="587.99" y2="934.36"/>
    <line class="st3" x1="589.37" y1="934.36" x2="589.37" y2="953.62"/>
    <polyline class="st3" points="587.99 934.36 587.99 931.48 589.37 931.48 589.37 934.36 587.99 934.36"/>
    <polyline class="st3" points="587.99 956.44 587.99 953.62 589.37 953.62 589.37 956.44 587.99 956.44"/>
    <line class="st3" x1="584.93" y1="954.64" x2="587.75" y2="954.64"/>
    <line class="st3" x1="584.93" y1="933.47" x2="587.75" y2="933.47"/>
  </g>
  <g>
    <line class="st3" x1="491.69" y1="801.22" x2="518.21" y2="801.22"/>
    <g>
      <line class="st3" x1="491.69" y1="829.63" x2="518.21" y2="829.63"/>
      <line class="st3" x1="518.21" y1="830.39" x2="518.21" y2="801.29"/>
      <line class="st3" x1="518.21" y1="830.39" x2="518.21" y2="857.98"/>
      <path class="st3" d="M518.21,858.36"/>
      <line class="st3" x1="491.69" y1="857.98" x2="518.21" y2="857.98"/>
    </g>
  </g>
  <path class="st9" d="M518.21,857.87l12.9-22.97s-5.78-4.79-12.9-4.83"/>
  <line class="st0" x1="491.69" y1="801.22" x2="518.21" y2="801.22"/>
  <line class="st0" x1="491.69" y1="829.63" x2="518.21" y2="829.63"/>
  <path class="st0" d="M518.21,858.36"/>
  <g>
    <path class="st3" d="M504.41,1006.27c11.6,0,22.94-4.79,31.27-13.11,8.07-8.07,12.86-19.42,12.86-31.01"/>
    <line class="st3" x1="504.41" y1="963.91" x2="504.41" y2="1006.27"/>
    <polyline class="st3" points="548.54 962.15 504.41 962.15 504.41 963.91"/>
  </g>
  <g>
    <path class="st3" d="M535.81,933.33c0-11.6-4.79-22.94-13.11-31.27-8.07-8.07-19.42-12.86-31.01-12.86"/>
    <line class="st3" x1="493.45" y1="933.33" x2="535.81" y2="933.33"/>
    <polyline class="st3" points="491.69 889.2 491.69 933.33 493.45 933.33"/>
  </g>
  <rect class="st19" x="483.21" y="792.62" width="8.5" height="96.33"/>
  <rect class="st19" x="682.78" y="777.54" width="34.02" height="101.32"/>
  <rect class="st19" x="682.78" y="635.44" width="34.02" height="25.49"/>
  <rect class="st19" x="483.21" y="933.58" width="8.5" height="35.88"/>
  <rect class="st19" x="483.21" y="958.36" width="12.76" height="95.82"/>
  <rect class="st19" x="583.91" y="958.61" width="8.5" height="95.57"/>
  <rect class="st19" x="640.56" y="958.34" width="8.5" height="43.16"/>
  <rect class="st19" x="682.75" y="878.35" width="8.5" height="88.49"/>
  <rect class="st19" x="586.63" y="958.31" width="20.27" height="43.18"/>
  <rect class="st19" x="483.21" y="1048.94" width="109.2" height="12.76"/>
  <rect class="st19" x="587.05" y="992.99" width="62.01" height="8.5"/>
  <rect class="st19" x="644.25" y="958.34" width="47" height="8.5"/>
  <rect class="st19" x="483.21" y="958.31" width="21.2" height="8.5"/>
  <rect class="st19" x="548.54" y="958.31" width="58.36" height="8.5"/>
  <rect class="st19" x="578.39" y="635.44" width="138.4" height="8.5"/>
  <rect class="st19" x="483.23" y="792.62" width="35.12" height="8.5"/>
  <rect class="st19" x="509.81" y="757.59" width="76.98" height="8.5"/>
  <rect class="st19" x="509.81" y="757.59" width="8.5" height="43.75"/>
  <rect class="st19" x="578.39" y="641.58" width="8.5" height="124.52"/>
  <g>
    <g>
      <g>
        <path class="st6" d="M707.47,717.77c-14.25,0-28.19-5.89-38.41-16.11-9.91-9.91-15.8-23.85-15.8-38.1"/>
        <path class="st6" d="M707.47,717.77"/>
        <path class="st6" d="M707.47,663.57"/>
        <line class="st6" x1="653.26" y1="663.57" x2="707.47" y2="663.57"/>
      </g>
      <line class="st4" x1="713.75" y1="690.9" x2="713.75" y2="719.04"/>
      <line class="st4" x1="713.75" y1="719.46" x2="713.75" y2="747.54"/>
      <line class="st4" x1="713.75" y1="747.96" x2="713.75" y2="776.22"/>
      <line class="st4" x1="713.75" y1="662.22" x2="713.75" y2="690.54"/>
      <line class="st4" x1="712.79" y1="663.54" x2="712.79" y2="689.28"/>
      <line class="st4" x1="712.79" y1="692.22" x2="712.79" y2="717.78"/>
      <line class="st4" x1="712.79" y1="749.22" x2="712.79" y2="774.96"/>
      <line class="st4" x1="712.79" y1="720.72" x2="712.79" y2="746.28"/>
      <line class="st4" x1="707.45" y1="774.96" x2="707.45" y2="749.22"/>
      <line class="st4" x1="707.45" y1="746.28" x2="707.45" y2="720.72"/>
      <line class="st4" x1="707.45" y1="717.78" x2="707.45" y2="692.22"/>
      <line class="st4" x1="707.45" y1="689.28" x2="707.45" y2="663.54"/>
      <polyline class="st4" points="709.43 663.54 709.43 689.28 707.45 689.28 707.45 692.22 709.43 692.22 709.43 717.78 707.45 717.78 707.45 720.72 709.43 720.72 709.43 746.28 707.45 746.28 707.45 749.22 709.43 749.22 709.43 774.96 707.45 774.96 707.45 776.64 713.75 776.64 713.75 776.22 712.79 776.22 712.79 774.96 711.71 774.96 711.71 749.22 712.79 749.22 712.79 747.96 713.75 747.96 713.75 747.54 712.79 747.54 712.79 746.28 711.71 746.28 711.71 720.72 712.79 720.72 712.79 719.46 713.75 719.46 713.75 719.04 712.79 719.04 712.79 717.78 711.71 717.78 711.71 692.22 712.79 692.22 712.79 690.9 713.75 690.9 713.75 690.54 712.79 690.54 712.79 689.28 711.71 689.28 711.71 663.54 712.79 663.54 712.79 662.22 713.75 662.22 713.75 661.86 707.45 661.86 707.45 663.54 709.43 663.54"/>
      <line class="st4" x1="711.71" y1="718.92" x2="711.71" y2="662.4"/>
    </g>
    <line class="st3" x1="716.7" y1="777.15" x2="716.7" y2="660.93"/>
  </g>
  <rect class="st11" x="491.69" y="829.63" width="93.2" height="130.09"/>
</svg>