<?xml version="1.0" encoding="UTF-8"?>
<svg xmlns="http://www.w3.org/2000/svg" version="1.1" viewBox="0 0 1200 1697.14">
  <!-- Generator: Adobe Illustrator 29.6.0, SVG Export Plug-In . SVG Version: 2.1.1 Build 207)  -->
  <defs>
    <style>
      .st0 {
        fill: #e2dedb;
      }

      .st1, .st2, .st3, .st4, .st5, .st6, .st7, .st8, .st9, .st10, .st11, .st12 {
        stroke: #363a3b;
      }

      .st1, .st4, .st13, .st14, .st15, .st12, .st16 {
        stroke-width: .28px;
      }

      .st1, .st9 {
        stroke-miterlimit: 10;
      }

      .st1, .st17, .st11, .st12 {
        fill: #fff;
      }

      .st2 {
        stroke-width: .3px;
      }

      .st2, .st3, .st4, .st5, .st6, .st7, .st8, .st13, .st9, .st10, .st14, .st18, .st15, .st16 {
        fill: none;
      }

      .st2, .st3, .st4, .st5, .st6, .st7, .st8, .st13, .st10, .st14, .st18, .st15, .st11, .st12, .st16 {
        stroke-linecap: round;
        stroke-linejoin: round;
      }

      .st3 {
        stroke-width: .28px;
      }

      .st5, .st11 {
        stroke-width: .28px;
      }

      .st6 {
        stroke-width: .29px;
      }

      .st7 {
        stroke-width: .18px;
      }

      .st19 {
        fill: #ece8e5;
      }

      .st8 {
        stroke-dasharray: .06 .42;
        stroke-width: .18px;
      }

      .st13, .st14, .st18, .st15 {
        stroke: #000;
      }

      .st9 {
        stroke-width: .29px;
      }

      .st10, .st18 {
        stroke-dasharray: .06 .43;
        stroke-width: .18px;
      }

      .st14 {
        stroke-dasharray: .09 .69;
      }

      .st15 {
        stroke-dasharray: .09 .68;
      }

      .st20 {
        fill: #302c35;
      }

      .st16 {
        stroke: #00001d;
      }
    </style>
  </defs>
  <g id="Dore_vinduer">
    <g>
      <path class="st7" d="M1204.88,746.16c8.45,0,16.71-3.49,22.77-9.55,5.88-5.88,9.36-14.14,9.36-22.59"/>
      <line class="st7" x1="1204.88" y1="715.31" x2="1204.88" y2="746.16"/>
      <polyline class="st7" points="1237.02 714.03 1204.88 714.03 1204.88 715.31"/>
    </g>
  </g>
  <g id="Vinduer_i_facade">
    <g>
      <path class="st19" d="M573.72,930.42l.29,123.04c68.64,0,137.27,0,205.91,0-.18-40.21-.36-80.42-.54-120.63l-82.6-.6-1.78-279.19h-212.91c.15,94.16.31,187.56.46,277.38h91.17Z"/>
      <polygon class="st0" points="600.93 1045.12 601.05 963.51 600.92 894.54 692.99 894.54 692.99 1045.12 600.93 1045.12"/>
      <polygon class="st17" points="580.69 959.71 580.72 922.27 580.69 891.47 600.92 891.47 600.92 959.71 580.69 959.71"/>
      <polygon class="st17" points="594.78 894.54 594.81 893.7 594.78 891.47 615.01 891.47 615.01 894.54 594.78 894.54"/>
      <polygon class="st17" points="489.35 930.42 489.46 909.1 489.34 891.57 571.95 891.57 571.95 930.42 489.35 930.42"/>
      <g>
        <line class="st4" x1="604.9" y1="888.22" x2="624.16" y2="888.22"/>
        <line class="st4" x1="624.16" y1="886.84" x2="604.9" y2="886.84"/>
        <polyline class="st4" points="624.16 888.22 627.04 888.22 627.04 886.84 624.16 886.84 624.16 888.22"/>
        <polyline class="st4" points="602.08 888.22 604.9 888.22 604.9 886.84 602.08 886.84 602.08 888.22"/>
        <line class="st4" x1="603.88" y1="894.54" x2="603.88" y2="888.46"/>
        <line class="st4" x1="625.05" y1="894.54" x2="625.05" y2="888.46"/>
      </g>
      <g>
        <polygon class="st9" points="580.69 959.53 580.72 922.19 580.69 891.49 614.95 891.49 614.95 959.53 580.69 959.53"/>
        <g>
          <g>
            <polyline class="st3" points="610.11 952.67 588.92 952.67 588.92 931.47 610.11 931.47 610.11 952.67"/>
            <line class="st3" x1="594.04" y1="942.01" x2="585.52" y2="942.01"/>
          </g>
          <polyline class="st3" points="613.22 957.83 582.42 957.83 582.42 926.3 613.22 926.3 613.22 957.83"/>
        </g>
        <g>
          <g>
            <line class="st6" x1="610.14" y1="901.48" x2="601.9" y2="901.48"/>
            <line class="st6" x1="594.54" y1="901.48" x2="586.3" y2="901.48"/>
            <line class="st6" x1="590.47" y1="897.67" x2="590.47" y2="905.39"/>
            <line class="st6" x1="605.97" y1="897.67" x2="605.97" y2="905.39"/>
          </g>
          <polyline class="st2" points="613.22 909.86 582.42 909.86 582.42 893.2 613.22 893.2 613.22 909.86"/>
        </g>
      </g>
      <g>
        <line class="st4" x1="516.4" y1="925.59" x2="516.4" y2="891.57"/>
        <g>
          <line class="st4" x1="544.1" y1="925.59" x2="544.1" y2="891.57"/>
          <line class="st4" x1="544.84" y1="891.57" x2="516.46" y2="891.57"/>
          <line class="st4" x1="544.84" y1="891.57" x2="571.74" y2="891.57"/>
          <line class="st4" x1="489.33" y1="891.57" x2="516.23" y2="891.57"/>
          <path class="st16" d="M572.11,891.57"/>
          <line class="st4" x1="571.74" y1="925.59" x2="571.74" y2="891.57"/>
        </g>
      </g>
      <path class="st16" d="M417.1,904.85"/>
      <g>
        <rect class="st12" x="461.33" y="717.22" width="113.09" height="50.38" transform="translate(-224.53 1260.29) rotate(-90)"/>
        <rect class="st12" x="504.15" y="699.47" width="27.44" height="27.44" rx="1.42" ry="1.42" transform="translate(1035.75 1426.38) rotate(180)"/>
        <polygon class="st12" points="492.05 700.66 492.05 799.25 543.07 799.25 543.07 726.16 492.05 700.66"/>
      </g>
      <g>
        <g>
          <path class="st12" d="M635.93,811.51c0,7.12,6.14,12.9,13.72,12.9,5.58,0,11.1-3.65,13.01-8.79.26-.7.79-2.18.71-4.11-.24-6.06-6.28-12.9-13.72-12.9s-13.72,5.78-13.72,12.9Z"/>
          <path class="st4" d="M661.57,814.4c0,4.38-5.33,7.92-11.91,7.92"/>
          <path class="st4" d="M637.75,814.4c0,4.38,5.33,7.92,11.91,7.92"/>
          <path class="st4" d="M637.75,814.4c0-.86-.68-1.56-1.53-1.56"/>
          <path class="st4" d="M661.57,814.4c0-.86.74-1.56,1.66-1.56"/>
        </g>
        <g>
          <path class="st12" d="M635.93,767.23c0-7.12,6.14-12.9,13.72-12.9,5.58,0,11.1,3.65,13.01,8.79.26.7.79,2.18.71,4.11-.24,6.06-6.28,12.9-13.72,12.9s-13.72-5.78-13.72-12.9Z"/>
          <path class="st4" d="M661.57,764.34c0-4.38-5.33-7.92-11.91-7.92"/>
          <path class="st4" d="M637.75,764.34c0-4.38,5.33-7.92,11.91-7.92"/>
          <path class="st4" d="M637.75,764.34c0,.86-.68,1.56-1.53,1.56"/>
          <path class="st4" d="M661.57,764.34c0,.86.74,1.56,1.66,1.56"/>
        </g>
        <rect class="st12" x="631.82" y="768.11" width="35.68" height="40.44" transform="translate(1437.98 138.67) rotate(90)"/>
      </g>
      <circle class="st1" cx="571.22" cy="715.53" r="13.02"/>
      <g>
        <path class="st1" d="M706.45,1026.1v-16.09c0-6.19,4.45-11.2,9.95-11.2s9.95,5.01,9.95,11.2v16.09h-19.9Z"/>
        <g>
          <polyline class="st13" points="730.31 981.54 730.27 981.54 730.27 981.59"/>
          <line class="st14" x1="730.27" y1="982.28" x2="730.27" y2="1025.8"/>
          <polyline class="st13" points="730.27 1026.15 730.27 1026.19 730.31 1026.19"/>
          <line class="st15" x1="731" y1="1026.19" x2="774.01" y2="1026.19"/>
          <polyline class="st13" points="774.35 1026.19 774.4 1026.19 774.4 1026.15"/>
          <line class="st14" x1="774.4" y1="1025.45" x2="774.4" y2="981.94"/>
          <polyline class="st13" points="774.4 981.59 774.4 981.54 774.35 981.54"/>
          <line class="st15" x1="773.67" y1="981.54" x2="730.65" y2="981.54"/>
        </g>
        <g>
          <line class="st4" x1="751.85" y1="1025.28" x2="751.85" y2="1012.98"/>
          <path class="st12" d="M749.15,1013.04c0,1.52,1.23,2.75,2.75,2.75s2.75-1.23,2.75-2.75-1.23-2.75-2.75-2.75-2.75,1.23-2.75,2.75"/>
        </g>
      </g>
      <g>
        <path class="st11" d="M774.4,971.96h-18.5c-.41,0-.74-.21-.74-.47v-26.59c0-.32.33-.59.74-.59h18.5"/>
        <path class="st4" d="M771.7,957.08c-.55,0-1,.45-1,1s.45,1,1,1,1-.45,1-1-.45-1-1-1"/>
        <g>
          <path class="st4" d="M762.89,956.88c-.68,0-1.23.55-1.23,1.23s.55,1.23,1.23,1.23,1.23-.55,1.23-1.23-.55-1.23-1.23-1.23"/>
          <path class="st4" d="M762.89,956.29c-1,0-1.82.81-1.82,1.82s.81,1.82,1.82,1.82,1.82-.81,1.82-1.82-.81-1.82-1.82-1.82"/>
        </g>
        <path class="st5" d="M768.49,969.93h-10.82c-.41,0-.74-.23-.74-.52v-22.61c0-.29.33-.52.74-.52h10.82c.41,0,.74.23.74.52v22.61c0,.29-.33.52-.74.52Z"/>
      </g>
      <rect class="st18" x="600.93" y="894.54" width="92.06" height="150.58"/>
      <rect class="st20" x="472.76" y="643.52" width="50.54" height="34.02"/>
      <rect class="st20" x="691.96" y="1026.08" width="90.94" height="27.54"/>
      <rect class="st20" x="639.44" y="643.52" width="61" height="34.02"/>
      <rect class="st20" x="656.78" y="1035.98" width="26.32" height="16.41"/>
      <rect class="st20" x="691.96" y="676.62" width="8.5" height="253.89"/>
      <rect class="st20" x="571.75" y="891.49" width="8.89" height="162.13"/>
      <rect class="st20" x="691.96" y="990.1" width="8.5" height="48.8"/>
      <rect class="st20" x="774.4" y="933.44" width="8.5" height="120.18"/>
      <rect class="st20" x="691.96" y="930.51" width="90.94" height="8.5"/>
      <rect class="st20" x="481.12" y="925.17" width="96.17" height="8.5"/>
      <rect class="st20" x="678.95" y="1045.12" width="103.95" height="8.5"/>
      <rect class="st20" x="572.48" y="1045.12" width="18.33" height="8.5"/>
      <rect class="st20" x="634.93" y="1045.12" width="44.21" height="8.5"/>
      <rect class="st20" x="691.96" y="930.51" width="8.5" height="15.91"/>
      <rect class="st20" x="481.12" y="650.79" width="8.5" height="282.88"/>
      <path class="st10" d="M571.63,891.57l-22.4-16.54s-4.67,7.42-4.71,16.54"/>
      <path class="st10" d="M516,891.57l-21.57-16.54s-4.5,7.42-4.54,16.54"/>
      <path class="st10" d="M517.17,891.57l21.9-16.54s4.57,7.42,4.61,16.54"/>
      <g>
        <path class="st4" d="M696.18,990.41c11.6,0,22.95-4.79,31.27-13.11,8.07-8.07,12.86-19.42,12.86-31.01"/>
        <line class="st4" x1="696.18" y1="948.05" x2="696.18" y2="990.41"/>
        <polyline class="st4" points="740.31 946.28 696.18 946.28 696.18 948.05"/>
      </g>
      <g>
        <path class="st4" d="M634.93,1044.92c0-11.6-4.79-22.95-13.11-31.27-8.07-8.07-19.42-12.86-31.01-12.86"/>
        <line class="st4" x1="592.57" y1="1044.92" x2="634.93" y2="1044.92"/>
        <polyline class="st4" points="590.8 1000.79 590.8 1044.92 592.57 1044.92"/>
      </g>
      <g>
        <g>
          <path class="st8" d="M551.49,653.08c-.83,5.28-3.43,9.74-7.4,13.81-4.73,4.86-11.38,7.75-18.18,7.75"/>
          <line class="st8" x1="525.91" y1="674.64" x2="525.91" y2="652.92"/>
        </g>
        <g>
          <path class="st10" d="M611.59,652.95c.84,5.28,3.45,9.74,7.42,13.81,4.75,4.86,11.43,7.75,18.25,7.75"/>
          <line class="st10" x1="637.27" y1="674.51" x2="637.27" y2="652.45"/>
        </g>
        <line class="st4" x1="637.27" y1="650.46" x2="637.27" y2="652.92"/>
        <polyline class="st4" points="583.09 651 608.65 651 608.65 648.72 583.09 648.72 583.09 651"/>
        <polyline class="st4" points="554.59 651 580.15 651 580.15 648.72 554.59 648.72 554.59 651"/>
        <polyline class="st4" points="611.59 651 637.27 651 637.27 648.72 611.59 648.72 611.59 651"/>
        <polyline class="st4" points="525.91 651 551.59 651 551.59 648.72 525.91 648.72 525.91 651"/>
        <line class="st4" x1="610.33" y1="646.68" x2="638.59" y2="646.68"/>
        <line class="st4" x1="524.59" y1="646.68" x2="552.91" y2="646.68"/>
        <line class="st4" x1="553.27" y1="646.68" x2="581.41" y2="646.68"/>
        <line class="st4" x1="581.77" y1="646.68" x2="609.91" y2="646.68"/>
        <line class="st4" x1="611.59" y1="647.58" x2="637.27" y2="647.58"/>
        <line class="st4" x1="583.09" y1="647.58" x2="608.65" y2="647.58"/>
        <line class="st4" x1="554.59" y1="647.58" x2="580.15" y2="647.58"/>
        <line class="st4" x1="525.91" y1="647.58" x2="551.59" y2="647.58"/>
        <polyline class="st4" points="524.59 646.68 524.17 646.68 524.17 652.98 525.91 652.98 525.91 647.58 524.59 647.58 524.59 646.68"/>
        <polyline class="st4" points="581.77 646.68 581.41 646.68 581.41 647.58 580.15 647.58 580.15 652.98 583.09 652.98 583.09 647.58 581.77 647.58 581.77 646.68"/>
        <polyline class="st4" points="553.27 646.68 552.91 646.68 552.91 647.58 551.59 647.58 551.59 652.98 554.59 652.98 554.59 647.58 553.27 647.58 553.27 646.68"/>
        <polyline class="st4" points="639.01 646.68 638.59 646.68 638.59 647.58 637.27 647.58 637.27 652.98 639.01 652.98 639.01 646.68"/>
        <polyline class="st4" points="610.33 646.68 609.91 646.68 609.91 647.58 608.65 647.58 608.65 652.98 611.59 652.98 611.59 647.58 610.33 647.58 610.33 646.68"/>
        <line class="st4" x1="637.27" y1="652.98" x2="611.59" y2="652.98"/>
        <line class="st4" x1="608.65" y1="652.98" x2="583.09" y2="652.98"/>
        <line class="st4" x1="580.15" y1="652.98" x2="554.59" y2="652.98"/>
        <line class="st4" x1="551.59" y1="652.98" x2="525.91" y2="652.98"/>
        <line class="st4" x1="550.51" y1="648.72" x2="527.05" y2="648.72"/>
        <line class="st4" x1="636.19" y1="648.72" x2="612.73" y2="648.72"/>
        <line class="st4" x1="523.51" y1="643.68" x2="639.73" y2="643.68"/>
      </g>
    </g>
  </g>
</svg>