<?xml version="1.0" encoding="UTF-8"?>
<svg id="Vinduer_i_facade" xmlns="http://www.w3.org/2000/svg" xmlns:xlink="http://www.w3.org/1999/xlink" version="1.1" viewBox="0 0 1200 1697.14">
  <!-- Generator: Adobe Illustrator 29.6.0, SVG Export Plug-In . SVG Version: 2.1.1 Build 207)  -->
  <defs>
    <style>
      .st0 {
        fill: #e2dedb;
      }

      .st1 {
        stroke-miterlimit: 10;
      }

      .st1, .st2, .st3, .st4, .st5, .st6 {
        stroke: #363a3b;
      }

      .st1, .st2, .st7, .st8, .st9, .st5 {
        stroke-width: .28px;
      }

      .st1, .st10, .st4, .st5, .st6 {
        fill: #fff;
      }

      .st2, .st3, .st7, .st8, .st11, .st9 {
        fill: none;
      }

      .st2, .st3, .st7, .st8, .st11, .st9, .st4, .st5, .st6 {
        stroke-linecap: round;
        stroke-linejoin: round;
      }

      .st3, .st4 {
        stroke-width: .28px;
      }

      .st12 {
        fill: #ece8e5;
      }

      .st7, .st8, .st11, .st9 {
        stroke: #000;
      }

      .st13 {
        clip-path: url(#clippath-1);
      }

      .st14 {
        clip-rule: evenodd;
      }

      .st14, .st15, .st16 {
        fill: #302c35;
      }

      .st8 {
        stroke-dasharray: .09 .69;
      }

      .st11 {
        stroke-dasharray: .06 .43;
        stroke-width: .18px;
      }

      .st15 {
        fill-rule: evenodd;
      }

      .st9 {
        stroke-dasharray: .09 .68;
      }

      .st6 {
        stroke-width: .29px;
      }

      .st17 {
        clip-path: url(#clippath);
      }
    </style>
    <clipPath id="clippath">
      <path class="st14" d="M684.5,692.38v34.02s32.16,0,32.16,0v-34.02s-32.16,0-32.16,0ZM558.44,692.38v34.02s37.32,0,37.32,0v-34.02s-37.32,0-37.32,0ZM455.24,692.38v34.02s14.52,0,14.52,0v-34.02s-14.52,0-14.52,0Z"/>
    </clipPath>
    <clipPath id="clippath-1">
      <rect class="st16" x="345.86" y="587.05" width="1191" height="841.98"/>
    </clipPath>
  </defs>
  <polygon class="st12" points="466.61 701.83 706.37 701.83 706.65 887.15 740.6 887.87 740.83 991.62 658.76 991.62 658.43 1004.73 521.76 1004.62 520.43 863.25 466.81 864.26 466.61 701.83"/>
  <rect class="st10" x="508.87" y="944.73" width="67.5" height="34.91" transform="translate(1504.81 419.56) rotate(90)"/>
  <rect class="st4" x="668.54" y="854.16" width="33.8" height="27.64"/>
  <rect class="st4" x="524.84" y="900.76" width="35.16" height="27.64" transform="translate(1084.83 1829.16) rotate(-180)"/>
  <rect class="st4" x="524.84" y="873.06" width="35.16" height="27.64" transform="translate(1084.83 1773.77) rotate(-180)"/>
  <polygon class="st0" points="558.24 996.16 654.27 996.16 654.27 871.42 558.38 871.42 558.24 996.16"/>
  <g>
    <path class="st5" d="M547.7,788.35c7.12,0,12.9,6.14,12.9,13.72,0,5.58-3.65,11.1-8.79,13.01-.7.26-2.18.79-4.11.71-6.06-.24-12.9-6.28-12.9-13.72s5.78-13.72,12.9-13.72Z"/>
    <path class="st5" d="M503.42,788.35c-7.12,0-12.9,6.14-12.9,13.72,0,5.58,3.65,11.1,8.79,13.01.7.26,2.18.79,4.11.71,6.06-.24,12.9-6.28,12.9-13.72,0-7.58-5.78-13.72-12.9-13.72Z"/>
    <rect class="st5" x="506.68" y="781.86" width="35.68" height="40.44"/>
  </g>
  <path class="st1" d="M685.87,975.87v-16.09c0-6.19-4.45-11.2-9.95-11.2s-9.95,5.01-9.95,11.2v16.09s19.9,0,19.9,0Z"/>
  <path class="st3" d="M730.33,922.3h-10.82c-.41,0-.74-.23-.74-.52v-22.61c0-.29.33-.52.74-.52h10.82c.41,0,.74.23.74.52v22.61c0,.29-.33.52-.74.52Z"/>
  <g>
    <rect class="st6" x="616.06" y="764.88" width="113.09" height="50.38" transform="translate(-117.46 1462.68) rotate(-90)"/>
    <rect class="st6" x="658.61" y="745.82" width="27.99" height="28.27" rx="1.45" ry="1.45"/>
    <polygon class="st6" points="698.44 748.31 698.44 846.91 647.42 846.91 647.42 773.82 698.44 748.31"/>
  </g>
  <g>
    <polyline class="st7" points="735.54 930.2 735.59 930.2 735.59 930.25"/>
    <line class="st8" x1="735.59" y1="930.94" x2="735.59" y2="974.46"/>
    <polyline class="st7" points="735.59 974.8 735.59 974.85 735.54 974.85"/>
    <line class="st9" x1="734.86" y1="974.85" x2="691.84" y2="974.85"/>
    <polyline class="st7" points="691.5 974.85 691.46 974.85 691.46 974.8"/>
    <line class="st8" x1="691.46" y1="974.11" x2="691.46" y2="930.59"/>
    <polyline class="st7" points="691.46 930.25 691.46 930.2 691.5 930.2"/>
    <line class="st9" x1="692.19" y1="930.2" x2="735.2" y2="930.2"/>
  </g>
  <rect class="st16" x="461.24" y="860.25" width="63.73" height="8.5"/>
  <rect class="st16" x="516.47" y="996.26" width="52.01" height="8.5"/>
  <rect class="st16" x="612.24" y="996.26" width="48.52" height="8.5"/>
  <rect class="st16" x="660.57" y="881.65" width="83.11" height="8.5"/>
  <rect class="st16" x="660.57" y="975.65" width="83.11" height="21.26"/>
  <rect class="st16" x="461.26" y="726.25" width="8.5" height="138.21"/>
  <rect class="st16" x="516.47" y="863.25" width="8.5" height="139.68"/>
  <rect class="st16" x="653.03" y="881.65" width="8.5" height="15.1"/>
  <rect class="st16" x="653.03" y="940.77" width="8.5" height="64"/>
  <rect class="st16" x="736.26" y="881.66" width="8.5" height="123.1"/>
  <rect class="st16" x="702.34" y="721.69" width="8.5" height="162.39"/>
  <g>
    <path class="st15" d="M684.5,692.38v34.02s32.16,0,32.16,0v-34.02s-32.16,0-32.16,0ZM558.44,692.38v34.02s37.32,0,37.32,0v-34.02s-37.32,0-37.32,0ZM455.24,692.38v34.02s14.52,0,14.52,0v-34.02s-14.52,0-14.52,0Z"/>
    <g class="st17">
      <g>
        <rect class="st16" x="345.86" y="587.05" width="1191" height="841.98"/>
        <g class="st13">
          <rect class="st16" x="455.24" y="692.38" width="261.42" height="34.02"/>
        </g>
      </g>
    </g>
  </g>
  <path class="st2" d="M684.78,692.53h-89.46s1.75,3.1,1.75,3.1h28.5s.42,0,.42,0h28.38s.36,0,.36,0h28.56s-1.32.96-1.32.96h-25.98s0,5.34,0,5.34h25.98s-57.66-5.34-57.66-5.34h-25.98s-1.08,1.08-1.08,1.08h56.94s-1.14-1.08-1.14-1.08h-25.8s0,5.34,0,5.34h25.8s.07.2.07.2c0,14.44-5.97,28.57-16.33,38.93-10.05,10.05-24.18,16.01-38.62,16.01v-54.95l.16-.2h25.98s-25.98-1.98-25.98-1.98h25.98v1.98h2.94s0-1.98,0-1.98h25.8v1.98h2.94s0-1.98,0-1.98h25.98v1.98h1.68s0-6.3,0-6.3h-.36s0,.96,0,.96h-1.32s0,1.08,0,1.08h-25.98v-1.08h-1.26v-.96h-.36s0,.96,0,.96h-1.32s0,1.08,0,1.08h-25.8v-1.08h-1.26v-.96h-.42s0,.96,0,.96h-1.26s0,1.08,0,1.08h-25.98v-1.08h-1.26v-.96h-.42s0,6.3,0,6.3h1.68s0-1.98,0-1.98l-39.64-7.42h-89.46s1.75,3.1,1.75,3.1h28.5s.42,0,.42,0h28.38s.36,0,.36,0h28.56s-1.32.96-1.32.96h-25.98s0,5.34,0,5.34h25.98s-57.66-5.34-57.66-5.34h-25.98s-1.08,1.08-1.08,1.08h56.94s-1.14-1.08-1.14-1.08h-25.8s0,5.34,0,5.34h25.8s.07.2.07.2c0,14.44-5.97,28.57-16.33,38.93-10.05,10.05-24.18,16.01-38.62,16.01v-54.95l.16-.2h25.98s-25.98-1.98-25.98-1.98h25.98v1.98h2.94s0-1.98,0-1.98h25.8v1.98h2.94s0-1.98,0-1.98h25.98v1.98h1.68s0-6.3,0-6.3h-.36s0,.96,0,.96h-1.32s0,1.08,0,1.08h-25.98v-1.08h-1.26v-.96h-.36s0,.96,0,.96h-1.32s0,1.08,0,1.08h-25.8v-1.08h-1.26v-.96h-.42s0,.96,0,.96h-1.26s0,1.08,0,1.08h-25.98v-1.08h-1.26v-.96h-.42s0,6.3,0,6.3h1.68s0-1.98,0-1.98l29.87,115.69c0-.92-.7-1.66-1.56-1.66-4.38,0-7.92-5.33-7.92-11.91,0-6.58,3.54-11.91,7.92-11.91.86,0,1.56-.68,1.56-1.53h46.93c0,.85.7,1.53,1.56,1.53,4.38,0,7.92,5.33,7.92,11.91,0,6.58-3.54,11.91-7.92,11.91-.86,0-1.56.74-1.56,1.66l11.93,51.27h19.26s2.82,1.38,2.82,1.38h-2.82s0-1.38,0-1.38h2.82s0,1.38,0,1.38l-1.8,3.06v-2.82s-1.02-.24-1.02-.24h-19.26s-2.88,0-2.88,0v-1.38h2.88s0,1.38,0,1.38l-.89.24v2.82s-.03,27.9-.03,27.9c9.13-.04,16.54-4.55,16.54-4.55l-16.54-21.63-1.69.05h1.65s0,27.64,0,27.64h-1.69s.04,0,.04,0h1.65s0,27.64,0,27.64h-1.69s1.73-.2,1.73-.2l16.54-21.63s-7.42-4.51-16.54-4.55l-5.68,38.28h-8.24s4.07-3.81,4.07-3.81v7.72s10.28,10.92,10.28,10.92h-35.15s2.13-6.45,2.13-6.45h30.8s0-16.66,0-16.66h-30.8s0,16.66,0,16.66l7.25-4.47v-7.72s4.07,3.81,4.07,3.81h-8.24s-3.07,52-3.07,52v-31.53s30.8,0,30.8,0v31.53s-30.8,0-30.8,0l3.1-15.82h8.52s16.07,10.65,16.07,10.65h-21.2s0-21.2,0-21.2h21.2s0,21.2,0,21.2l57.31,9.16c0-11.6-4.79-22.95-13.11-31.27-8.07-8.07-19.42-12.86-31.01-12.86v44.13h44.13l101.1-21.62v-12.3s2.69.06,2.69.06c0,1.52-1.23,2.75-2.75,2.75s-2.75-1.23-2.75-2.75,1.23-2.75,2.75-2.75,2.75,1.23,2.75,2.75l19.99-38.11h-18.5c-.41,0-.74-.21-.74-.47v-26.59c0-.32.33-.59.74-.59h18.5s-2.7,12.77-2.7,12.77c.55,0,1,.45,1,1s-.45,1-1,1-1-.45-1-1,.45-1,1-1l-8.81-.2c.68,0,1.23.55,1.23,1.23s-.55,1.23-1.23,1.23-1.23-.55-1.23-1.23.55-1.23,1.23-1.23v-.59c-1,0-1.82.81-1.82,1.82s.81,1.82,1.82,1.82,1.82-.81,1.82-1.82-.81-1.82-1.82-1.82l-23.44-12.01c0,11.6-4.79,22.94-13.11,31.27-8.07,8.07-19.41,12.86-31.01,12.86v-44.12s1.76,0,1.76,0h42.36s-37.76-10.58-37.76-10.58l-16.54-21.63s11.88-8.97,21.01-9.01"/>
  <rect class="st11" x="558.38" y="871.42" width="95.89" height="124.85"/>
</svg>