<?xml version="1.0" encoding="UTF-8"?>
<svg id="Vinduer_i_facade" xmlns="http://www.w3.org/2000/svg" version="1.1" viewBox="0 0 1200 1697.14">
  <!-- Generator: Adobe Illustrator 29.6.0, SVG Export Plug-In . SVG Version: 2.1.1 Build 207)  -->
  <defs>
    <style>
      .st0, .st1, .st2, .st3, .st4, .st5, .st6, .st7, .st8, .st9, .st10, .st11, .st12, .st13 {
        fill: none;
      }

      .st14 {
        fill: #e2dedb;
      }

      .st15, .st1, .st2, .st3, .st4, .st5, .st6, .st8, .st9, .st16, .st17 {
        stroke: #363a3b;
      }

      .st15, .st3, .st7, .st10, .st12, .st17, .st13 {
        stroke-width: .28px;
      }

      .st15, .st8 {
        stroke-miterlimit: 10;
      }

      .st15, .st18, .st16, .st17 {
        fill: #fff;
      }

      .st1 {
        stroke-width: .3px;
      }

      .st1, .st2, .st3, .st4, .st5, .st6, .st7, .st9, .st10, .st11, .st12, .st16, .st17, .st13 {
        stroke-linecap: round;
        stroke-linejoin: round;
      }

      .st2 {
        stroke-width: .28px;
      }

      .st4, .st16 {
        stroke-width: .28px;
      }

      .st5 {
        stroke-width: .29px;
      }

      .st19 {
        fill: #ece8e5;
      }

      .st6 {
        stroke-dasharray: .06 .42;
        stroke-width: .18px;
      }

      .st7, .st10, .st11, .st12 {
        stroke: #000;
      }

      .st8 {
        stroke-width: .29px;
      }

      .st9, .st11 {
        stroke-dasharray: .06 .43;
        stroke-width: .18px;
      }

      .st10 {
        stroke-dasharray: .09 .69;
      }

      .st12 {
        stroke-dasharray: .09 .68;
      }

      .st20 {
        fill: #302c35;
      }

      .st13 {
        stroke: #00001d;
      }
    </style>
  </defs>
  <polygon class="st19" points="663.48 913.5 663.48 978.51 446.22 978.71 446.22 727.9 752.16 727.9 752.16 879.39 710.87 879.39 710.87 912.66 663.48 913.5"/>
  <polygon class="st14" points="566.5 970.21 472.34 970.21 472.16 843.73 566.5 843.73 566.5 970.21"/>
  <rect class="st18" x="395.96" y="893.92" width="123.3" height="29.09" transform="translate(1366.08 450.85) rotate(90)"/>
  <g>
    <g>
      <line class="st3" x1="450.7" y1="874.46" x2="484.55" y2="874.46"/>
      <path class="st3" d="M484.55,873.72"/>
      <line class="st3" x1="484.55" y1="874.46" x2="484.55" y2="846.82"/>
      <path class="st13" d="M484.55,846.45"/>
      <line class="st3" x1="450.7" y1="846.82" x2="484.55" y2="846.82"/>
    </g>
    <path class="st9" d="M484.72,846.93l16.54,22.4s-7.42,4.67-16.54,4.71"/>
  </g>
  <g>
    <g>
      <line class="st3" x1="450.7" y1="874.2" x2="484.55" y2="874.2"/>
      <path class="st3" d="M484.55,874.94"/>
      <line class="st3" x1="484.55" y1="874.2" x2="484.55" y2="901.84"/>
      <path class="st13" d="M484.55,902.21"/>
      <line class="st3" x1="450.7" y1="901.84" x2="484.55" y2="901.84"/>
    </g>
    <path class="st9" d="M484.72,901.73l16.54-22.4s-7.42-4.67-16.54-4.71"/>
  </g>
  <rect class="st11" x="472.16" y="843.73" width="94.34" height="126.39"/>
  <g>
    <g>
      <polyline class="st7" points="615.48 883.25 615.48 883.2 615.53 883.2"/>
      <line class="st10" x1="616.22" y1="883.2" x2="659.74" y2="883.2"/>
      <polyline class="st7" points="660.08 883.2 660.13 883.2 660.13 883.25"/>
      <line class="st12" x1="660.13" y1="883.93" x2="660.13" y2="926.95"/>
      <polyline class="st7" points="660.13 927.29 660.13 927.33 660.08 927.33"/>
      <line class="st10" x1="659.39" y1="927.33" x2="615.87" y2="927.33"/>
      <polyline class="st7" points="615.53 927.33 615.48 927.33 615.48 927.29"/>
      <line class="st12" x1="615.48" y1="926.6" x2="615.48" y2="883.59"/>
    </g>
    <g>
      <line class="st3" x1="659.98" y1="905.24" x2="647.68" y2="905.24"/>
      <path class="st17" d="M647.74,902.54c1.52,0,2.75,1.23,2.75,2.75s-1.23,2.75-2.75,2.75-2.75-1.23-2.75-2.75,1.23-2.75,2.75-2.75"/>
    </g>
  </g>
  <g>
    <g>
      <path class="st17" d="M501.43,800.57c-7.12,0-12.9-6.14-12.9-13.72,0-5.58,3.65-11.1,8.79-13.01.7-.26,2.18-.79,4.11-.71,6.06.24,12.9,6.28,12.9,13.72,0,7.58-5.78,13.72-12.9,13.72Z"/>
      <path class="st3" d="M498.54,774.94c-4.38,0-7.92,5.33-7.92,11.91"/>
      <path class="st3" d="M498.54,798.76c-4.38,0-7.92-5.33-7.92-11.91"/>
      <path class="st3" d="M498.54,798.76c.86,0,1.56.68,1.56,1.53"/>
      <path class="st3" d="M498.54,774.94c.86,0,1.56-.74,1.56-1.66"/>
    </g>
    <g>
      <path class="st17" d="M545.71,800.57c7.12,0,12.9-6.14,12.9-13.72,0-5.58-3.65-11.1-8.79-13.01-.7-.26-2.18-.79-4.11-.71-6.06.24-12.9,6.28-12.9,13.72,0,7.58,5.78,13.72,12.9,13.72Z"/>
      <path class="st3" d="M548.6,774.94c4.38,0,7.92,5.33,7.92,11.91"/>
      <path class="st3" d="M548.6,798.76c4.38,0,7.92-5.33,7.92-11.91"/>
      <path class="st3" d="M548.6,798.76c-.86,0-1.56.68-1.56,1.53"/>
      <path class="st3" d="M548.6,774.94c-.86,0-1.56-.74-1.56-1.66"/>
    </g>
    <rect class="st17" x="506.78" y="766.63" width="35.68" height="40.44" transform="translate(1049.23 1573.69) rotate(180)"/>
  </g>
  <g>
    <g>
      <path class="st17" d="M631.49,757.79c3.72,9.28,7.45,18.57,11.17,27.85.27.36.79.47,1.26.29,11.67-2.97,22.9-7.63,33.21-13.81.17-.1.26-.29.21-.45-.34-.87-.69-1.74-1.03-2.6l-9.97-25.11-34.86,13.84"/>
      <path class="st17" d="M630.97,755.66c.24.91.57,1.77,1.01,2.6.09.16.31.22.5.14,11.25-4.17,22.43-8.53,33.53-13.09.27-.15.4-.43.31-.68-.3-.99-.69-1.92-1.18-2.82"/>
      <path class="st17" d="M634.23,760.58c-.68.27-1.87-1.12-2.65-3.11-.06-.16-.12-.32-.17-.48l-.43-1.33c-.04-.18.08-.37.27-.45l33.93-13.47,1.15,2.89c.36.95.71,1.9,1.07,2.85.05.44-.25.89-.72,1.07-10.07,5.75-21.08,9.83-32.44,12.02Z"/>
      <path class="st17" d="M633.3,758.86c.31.33.59.67.85,1.03.38.37.74.76,1.08,1.16.46.55.92,1.1,1.38,1.65.64.76,1.2,1.55,1.69,2.41.3.52.58,1.05.84,1.6.28.57.55,1.15.82,1.73.64,1.38,1.2,2.79,1.68,4.23.49,1.46.85,2.93,1.09,4.46.18,1.15.25,2.3.2,3.47-.03.74-.25,1.38-.7,2.05-.04.06-.08.09-.15.12l-.61.24c-.19,0-.32-.04-.45-.16-3.56-8.98-7.13-17.95-10.69-26.93-.06-.16.04-.35.22-.42l.19-.07h0c.19-.07.39,0,.47.15.2.35.4.7.6,1.05.23.48.5.94.81,1.38l.69.86Z"/>
      <path class="st17" d="M665.96,745.9c0,.45.03.89.08,1.33-.02.53-.02,1.06.01,1.58.05.72.09,1.43.12,2.15.05.99.19,1.96.42,2.91.14.59.3,1.17.48,1.74.19.61.39,1.22.59,1.82.48,1.44,1.04,2.85,1.68,4.23.64,1.39,1.4,2.72,2.27,3.99.66.96,1.4,1.84,2.24,2.67.53.52,1.13.84,1.91,1.01.07.01.12,0,.19-.02l.61-.24c.14-.13.21-.25.22-.42-3.56-8.98-7.13-17.95-10.69-26.93-.06-.16-.27-.23-.45-.16l-.19.07h0c-.18.08-.29.26-.24.43.1.39.19.78.29,1.18.16.51.28,1.03.36,1.56l.09,1.1Z"/>
    </g>
    <circle class="st15" cx="670.22" cy="800.81" r="13.02"/>
  </g>
  <g>
    <rect class="st17" x="665.05" y="787.29" width="113.09" height="50.38" transform="translate(1534.08 90.88) rotate(90)"/>
    <rect class="st17" x="707.88" y="827.98" width="27.44" height="27.44" rx="1.42" ry="1.42"/>
    <polygon class="st17" points="747.43 854.23 747.43 755.64 696.41 755.64 696.41 828.73 747.43 854.23"/>
  </g>
  <path class="st15" d="M660.49,956.27h-16.09c-6.19,0-11.2-4.45-11.2-9.95s5.01-9.95,11.2-9.95h16.09s0,19.9,0,19.9Z"/>
  <g>
    <path class="st16" d="M606.65,882.69v18.5c0,.41-.21.74-.47.74h-26.59c-.32,0-.59-.33-.59-.74v-18.5"/>
    <path class="st3" d="M591.78,885.39c0,.55.45,1,1,1s1-.45,1-1-.45-1-1-1-1,.45-1,1"/>
    <g>
      <path class="st3" d="M591.57,894.2c0,.68.55,1.23,1.23,1.23s1.23-.55,1.23-1.23-.55-1.23-1.23-1.23-1.23.55-1.23,1.23"/>
      <path class="st3" d="M590.99,894.2c0,1,.81,1.82,1.82,1.82s1.82-.81,1.82-1.82-.81-1.82-1.82-1.82-1.82.81-1.82,1.82"/>
    </g>
    <path class="st4" d="M604.63,888.61v10.82c0,.41-.23.74-.52.74h-22.61c-.29,0-.52-.33-.52-.74v-10.82c0-.41.23-.74.52-.74h22.61c.29,0,.52.33.52.74Z"/>
  </g>
  <g>
    <line class="st3" x1="495.58" y1="840.63" x2="476.32" y2="840.63"/>
    <line class="st3" x1="476.32" y1="839.25" x2="495.58" y2="839.25"/>
    <polyline class="st3" points="476.32 840.63 473.44 840.63 473.44 839.25 476.32 839.25 476.32 840.63"/>
    <polyline class="st3" points="498.4 840.63 495.58 840.63 495.58 839.25 498.4 839.25 498.4 840.63"/>
    <line class="st3" x1="496.6" y1="843.69" x2="496.6" y2="840.87"/>
    <line class="st3" x1="475.43" y1="843.69" x2="475.43" y2="840.87"/>
  </g>
  <polygon class="st8" points="450.3 970.12 450.32 932.65 450.29 901.84 484.55 901.84 484.55 970.12 450.3 970.12"/>
  <g>
    <g>
      <polyline class="st2" points="479.72 963.22 458.52 963.22 458.52 942.02 479.72 942.02 479.72 963.22"/>
      <line class="st2" x1="463.65" y1="952.56" x2="455.13" y2="952.56"/>
    </g>
    <polyline class="st2" points="482.82 968.38 452.02 968.38 452.02 936.85 482.82 936.85 482.82 968.38"/>
  </g>
  <g>
    <g>
      <line class="st5" x1="479.75" y1="912.03" x2="471.51" y2="912.03"/>
      <line class="st5" x1="464.15" y1="912.03" x2="455.9" y2="912.03"/>
      <line class="st5" x1="460.08" y1="908.22" x2="460.08" y2="915.94"/>
      <line class="st5" x1="475.57" y1="908.22" x2="475.57" y2="915.94"/>
    </g>
    <polyline class="st1" points="482.82 920.41 452.02 920.41 452.02 903.75 482.82 903.75 482.82 920.41"/>
  </g>
  <rect class="st18" x="668.07" y="874.73" width="34.81" height="34.02" transform="translate(1577.21 206.26) rotate(90)"/>
  <g>
    <path class="st3" d="M554.93,926.09c-11.6,0-22.95,4.79-31.27,13.11-8.07,8.07-12.86,19.42-12.86,31.01"/>
    <line class="st3" x1="554.93" y1="968.45" x2="554.93" y2="926.09"/>
    <polyline class="st3" points="510.81 970.21 554.93 970.21 554.93 968.45"/>
  </g>
  <g>
    <path class="st3" d="M613.63,957.51c0-11.6-4.79-22.95-13.11-31.27-8.07-8.07-19.42-12.86-31.01-12.86"/>
    <line class="st3" x1="571.27" y1="957.51" x2="613.63" y2="957.51"/>
    <polyline class="st3" points="569.51 913.39 569.51 957.51 571.27 957.51"/>
  </g>
  <g>
    <line class="st0" x1="668.39" y1="874.26" x2="668.39" y2="907.97"/>
    <line class="st0" x1="668.43" y1="874.36" x2="668.43" y2="908.21"/>
    <g>
      <line class="st3" x1="702.26" y1="908.04" x2="702.26" y2="874.19"/>
      <path class="st3" d="M701.36,874.19"/>
      <line class="st3" x1="702.26" y1="874.19" x2="668.69" y2="874.19"/>
      <path class="st13" d="M668.24,874.19"/>
      <line class="st3" x1="668.69" y1="908.04" x2="668.69" y2="874.19"/>
    </g>
    <path class="st9" d="M702.26,874.02l-27.36-16.54s-5.71,7.42-5.76,16.54"/>
  </g>
  <rect class="st20" x="660.5" y="874.34" width="8.5" height="104.28"/>
  <rect class="st20" x="565.31" y="874.34" width="8.5" height="39.05"/>
  <rect class="st20" x="441.97" y="751.69" width="8.5" height="226.92"/>
  <rect class="st20" x="749.93" y="751.69" width="8.5" height="131.15"/>
  <rect class="st20" x="733.39" y="718.43" width="29.7" height="34.02"/>
  <rect class="st20" x="576.08" y="718.43" width="41.06" height="34.02"/>
  <rect class="st20" x="436.91" y="718.43" width="23.45" height="34.02"/>
  <rect class="st20" x="702.25" y="874.34" width="52.68" height="8.5"/>
  <rect class="st20" x="565.33" y="874.34" width="103.68" height="8.5"/>
  <rect class="st20" x="566.89" y="965.68" width="102.11" height="8.5"/>
  <rect class="st20" x="702.37" y="874.34" width="8.5" height="43.47"/>
  <rect class="st20" x="554.91" y="970.12" width="114.1" height="8.5"/>
  <rect class="st20" x="442.56" y="970.12" width="68.39" height="8.5"/>
  <rect class="st20" x="565.31" y="957.45" width="8.5" height="21.16"/>
  <rect class="st20" x="660.55" y="907.97" width="50.32" height="9.92"/>
  <g>
    <g>
      <path class="st6" d="M645.28,727.95c-.83,5.28-3.43,9.74-7.4,13.81-4.73,4.86-11.38,7.75-18.18,7.75"/>
      <line class="st6" x1="619.7" y1="749.51" x2="619.7" y2="727.79"/>
    </g>
    <g>
      <path class="st9" d="M705.38,727.82c.84,5.28,3.45,9.74,7.42,13.81,4.75,4.86,11.43,7.75,18.25,7.75"/>
      <line class="st9" x1="731.06" y1="749.38" x2="731.06" y2="727.32"/>
    </g>
    <line class="st3" x1="731.06" y1="725.33" x2="731.06" y2="727.79"/>
    <polyline class="st3" points="676.88 725.87 702.44 725.87 702.44 723.59 676.88 723.59 676.88 725.87"/>
    <polyline class="st3" points="648.38 725.87 673.94 725.87 673.94 723.59 648.38 723.59 648.38 725.87"/>
    <polyline class="st3" points="705.38 725.87 731.06 725.87 731.06 723.59 705.38 723.59 705.38 725.87"/>
    <polyline class="st3" points="619.7 725.87 645.38 725.87 645.38 723.59 619.7 723.59 619.7 725.87"/>
    <line class="st3" x1="704.12" y1="721.55" x2="732.38" y2="721.55"/>
    <line class="st3" x1="618.38" y1="721.55" x2="646.7" y2="721.55"/>
    <line class="st3" x1="647.06" y1="721.55" x2="675.2" y2="721.55"/>
    <line class="st3" x1="675.56" y1="721.55" x2="703.7" y2="721.55"/>
    <line class="st3" x1="705.38" y1="722.45" x2="731.06" y2="722.45"/>
    <line class="st3" x1="676.88" y1="722.45" x2="702.44" y2="722.45"/>
    <line class="st3" x1="648.38" y1="722.45" x2="673.94" y2="722.45"/>
    <line class="st3" x1="619.7" y1="722.45" x2="645.38" y2="722.45"/>
    <polyline class="st3" points="618.38 721.55 617.96 721.55 617.96 727.85 619.7 727.85 619.7 722.45 618.38 722.45 618.38 721.55"/>
    <polyline class="st3" points="675.56 721.55 675.2 721.55 675.2 722.45 673.94 722.45 673.94 727.85 676.88 727.85 676.88 722.45 675.56 722.45 675.56 721.55"/>
    <polyline class="st3" points="647.06 721.55 646.7 721.55 646.7 722.45 645.38 722.45 645.38 727.85 648.38 727.85 648.38 722.45 647.06 722.45 647.06 721.55"/>
    <polyline class="st3" points="732.8 721.55 732.38 721.55 732.38 722.45 731.06 722.45 731.06 727.85 732.8 727.85 732.8 721.55"/>
    <polyline class="st3" points="704.12 721.55 703.7 721.55 703.7 722.45 702.44 722.45 702.44 727.85 705.38 727.85 705.38 722.45 704.12 722.45 704.12 721.55"/>
    <line class="st3" x1="731.06" y1="727.85" x2="705.38" y2="727.85"/>
    <line class="st3" x1="702.44" y1="727.85" x2="676.88" y2="727.85"/>
    <line class="st3" x1="673.94" y1="727.85" x2="648.38" y2="727.85"/>
    <line class="st3" x1="645.38" y1="727.85" x2="619.7" y2="727.85"/>
    <line class="st3" x1="644.3" y1="723.59" x2="620.84" y2="723.59"/>
    <line class="st3" x1="729.98" y1="723.59" x2="706.52" y2="723.59"/>
    <line class="st3" x1="617.3" y1="718.55" x2="733.52" y2="718.55"/>
  </g>
  <g>
    <g>
      <path class="st6" d="M488.16,727.95c-.83,5.28-3.43,9.74-7.4,13.81-4.73,4.86-11.38,7.75-18.18,7.75"/>
      <line class="st6" x1="462.57" y1="749.51" x2="462.57" y2="727.79"/>
    </g>
    <g>
      <path class="st9" d="M548.25,727.82c.84,5.28,3.45,9.74,7.42,13.81,4.75,4.86,11.43,7.75,18.25,7.75"/>
      <line class="st9" x1="573.93" y1="749.38" x2="573.93" y2="727.32"/>
    </g>
    <line class="st3" x1="573.93" y1="725.33" x2="573.93" y2="727.79"/>
    <polyline class="st3" points="519.75 725.87 545.31 725.87 545.31 723.59 519.75 723.59 519.75 725.87"/>
    <polyline class="st3" points="491.25 725.87 516.81 725.87 516.81 723.59 491.25 723.59 491.25 725.87"/>
    <polyline class="st3" points="548.25 725.87 573.93 725.87 573.93 723.59 548.25 723.59 548.25 725.87"/>
    <polyline class="st3" points="462.57 725.87 488.25 725.87 488.25 723.59 462.57 723.59 462.57 725.87"/>
    <line class="st3" x1="546.99" y1="721.55" x2="575.25" y2="721.55"/>
    <line class="st3" x1="461.25" y1="721.55" x2="489.57" y2="721.55"/>
    <line class="st3" x1="489.93" y1="721.55" x2="518.07" y2="721.55"/>
    <line class="st3" x1="518.43" y1="721.55" x2="546.57" y2="721.55"/>
    <line class="st3" x1="548.25" y1="722.45" x2="573.93" y2="722.45"/>
    <line class="st3" x1="519.75" y1="722.45" x2="545.31" y2="722.45"/>
    <line class="st3" x1="491.25" y1="722.45" x2="516.81" y2="722.45"/>
    <line class="st3" x1="462.57" y1="722.45" x2="488.25" y2="722.45"/>
    <polyline class="st3" points="461.25 721.55 460.83 721.55 460.83 727.85 462.57 727.85 462.57 722.45 461.25 722.45 461.25 721.55"/>
    <polyline class="st3" points="518.43 721.55 518.07 721.55 518.07 722.45 516.81 722.45 516.81 727.85 519.75 727.85 519.75 722.45 518.43 722.45 518.43 721.55"/>
    <polyline class="st3" points="489.93 721.55 489.57 721.55 489.57 722.45 488.25 722.45 488.25 727.85 491.25 727.85 491.25 722.45 489.93 722.45 489.93 721.55"/>
    <polyline class="st3" points="575.67 721.55 575.25 721.55 575.25 722.45 573.93 722.45 573.93 727.85 575.67 727.85 575.67 721.55"/>
    <polyline class="st3" points="546.99 721.55 546.57 721.55 546.57 722.45 545.31 722.45 545.31 727.85 548.25 727.85 548.25 722.45 546.99 722.45 546.99 721.55"/>
    <line class="st3" x1="573.93" y1="727.85" x2="548.25" y2="727.85"/>
    <line class="st3" x1="545.31" y1="727.85" x2="519.75" y2="727.85"/>
    <line class="st3" x1="516.81" y1="727.85" x2="491.25" y2="727.85"/>
    <line class="st3" x1="488.25" y1="727.85" x2="462.57" y2="727.85"/>
    <line class="st3" x1="487.17" y1="723.59" x2="463.71" y2="723.59"/>
    <line class="st3" x1="572.85" y1="723.59" x2="549.39" y2="723.59"/>
    <line class="st3" x1="460.17" y1="718.55" x2="576.39" y2="718.55"/>
  </g>
</svg>