<?xml version="1.0" encoding="UTF-8"?>
<svg id="Vinduer_i_facade" xmlns="http://www.w3.org/2000/svg" version="1.1" viewBox="0 0 1200 1697.14">
  <!-- Generator: Adobe Illustrator 29.6.0, SVG Export Plug-In . SVG Version: 2.1.1 Build 207)  -->
  <defs>
    <style>
      .st0 {
        stroke-width: .29px;
      }

      .st0, .st1 {
        stroke-miterlimit: 10;
      }

      .st0, .st1, .st2, .st3, .st4, .st5, .st6, .st7, .st8, .st9, .st10 {
        stroke: #363a3b;
      }

      .st0, .st1, .st11, .st9, .st10 {
        fill: #fff;
      }

      .st1, .st4, .st12, .st13, .st14, .st10, .st15 {
        stroke-width: .28px;
      }

      .st2 {
        stroke-width: .3px;
      }

      .st2, .st3, .st4, .st5, .st6, .st7, .st12, .st8, .st13, .st14, .st9, .st10, .st15 {
        stroke-linecap: round;
        stroke-linejoin: round;
      }

      .st2, .st3, .st4, .st5, .st6, .st7, .st12, .st8, .st13, .st14, .st15 {
        fill: none;
      }

      .st3 {
        stroke-width: .28px;
      }

      .st5, .st9 {
        stroke-width: .28px;
      }

      .st6 {
        stroke-width: .29px;
      }

      .st16 {
        fill: #ece8e5;
      }

      .st7 {
        stroke-dasharray: .07 .52;
        stroke-width: .18px;
      }

      .st12, .st13, .st14 {
        stroke: #000;
      }

      .st8 {
        stroke-dasharray: .06 .43;
        stroke-width: .18px;
      }

      .st13 {
        stroke-dasharray: .09 .69;
      }

      .st14 {
        stroke-dasharray: .09 .68;
      }

      .st17 {
        fill: #302c35;
      }

      .st15 {
        stroke: #00001d;
      }
    </style>
  </defs>
  <polygon class="st16" points="625.04 965.36 529.14 965.36 529.05 935.67 498.25 935.67 498.25 866.15 390.89 865.16 390.89 742.1 439.76 742.1 703.69 742.1 703.69 867 801.8 867 801.8 965.36 625.04 965.36"/>
  <g>
    <polygon class="st11" points="535.34 957.01 535.42 942.46 535.33 930.49 592.3 930.49 592.3 957.01 535.34 957.01"/>
    <g>
      <line class="st4" x1="535.32" y1="956.88" x2="535.32" y2="930.36"/>
      <g>
        <line class="st4" x1="563.73" y1="956.88" x2="563.73" y2="930.36"/>
        <line class="st4" x1="564.49" y1="930.36" x2="535.38" y2="930.36"/>
        <line class="st4" x1="564.49" y1="930.36" x2="592.08" y2="930.36"/>
        <path class="st15" d="M592.46,930.36"/>
        <line class="st4" x1="592.08" y1="956.88" x2="592.08" y2="930.36"/>
      </g>
    </g>
    <path class="st8" d="M591.96,930.36l-22.97-12.9s-4.79,5.78-4.83,12.9"/>
    <path class="st8" d="M536.11,930.36l22.47-12.9s4.69,5.78,4.73,12.9"/>
  </g>
  <g>
    <g>
      <polyline class="st12" points="748.82 874.7 748.82 874.65 748.87 874.65"/>
      <line class="st13" x1="749.56" y1="874.65" x2="793.08" y2="874.65"/>
      <polyline class="st12" points="793.42 874.65 793.47 874.65 793.47 874.7"/>
      <line class="st14" x1="793.47" y1="875.38" x2="793.47" y2="918.4"/>
      <polyline class="st12" points="793.47 918.74 793.47 918.78 793.42 918.78"/>
      <line class="st13" x1="792.73" y1="918.78" x2="749.21" y2="918.78"/>
      <polyline class="st12" points="748.87 918.78 748.82 918.78 748.82 918.74"/>
      <line class="st14" x1="748.82" y1="918.06" x2="748.82" y2="875.04"/>
    </g>
    <g>
      <line class="st4" x1="793.32" y1="897.72" x2="781.02" y2="897.72"/>
      <path class="st10" d="M781.08,895.03c1.52,0,2.75,1.23,2.75,2.75,0,1.52-1.23,2.75-2.75,2.75s-2.75-1.23-2.75-2.75c0-1.52,1.23-2.75,2.75-2.75"/>
    </g>
  </g>
  <g>
    <path class="st9" d="M738.53,874.76v18.5c0,.41-.21.74-.47.74h-26.59c-.32,0-.59-.33-.59-.74v-18.5"/>
    <path class="st4" d="M723.65,877.45c0,.55.45,1,1,1s1-.45,1-1-.45-1-1-1-1,.45-1,1"/>
    <g>
      <path class="st4" d="M723.45,886.26c0,.68.55,1.23,1.23,1.23s1.23-.55,1.23-1.23-.55-1.23-1.23-1.23-1.23.55-1.23,1.23"/>
      <path class="st4" d="M722.86,886.26c0,1,.81,1.82,1.82,1.82s1.82-.81,1.82-1.82-.81-1.82-1.82-1.82-1.82.81-1.82,1.82"/>
    </g>
    <path class="st5" d="M736.5,880.67v10.82c0,.41-.23.74-.52.74h-22.61c-.29,0-.52-.33-.52-.74v-10.82c0-.41.23-.74.52-.74h22.61c.29,0,.52.33.52.74Z"/>
  </g>
  <g>
    <g>
      <path class="st10" d="M643.32,854.64c0,7.12-6.14,12.9-13.72,12.9-5.58,0-11.1-3.65-13.01-8.79-.26-.7-.79-2.18-.71-4.11.24-6.06,6.28-12.9,13.72-12.9,7.58,0,13.72,5.77,13.72,12.9Z"/>
      <path class="st4" d="M617.69,857.53c0,4.38,5.33,7.92,11.91,7.92"/>
      <path class="st4" d="M641.51,857.53c0,4.38-5.33,7.92-11.91,7.92"/>
      <path class="st4" d="M641.51,857.53c0-.86.68-1.56,1.53-1.56"/>
      <path class="st4" d="M617.69,857.53c0-.86-.74-1.56-1.66-1.56"/>
    </g>
    <g>
      <path class="st10" d="M643.32,810.36c0-7.12-6.14-12.9-13.72-12.9-5.58,0-11.1,3.65-13.01,8.79-.26.7-.79,2.18-.71,4.11.24,6.06,6.28,12.9,13.72,12.9,7.58,0,13.72-5.78,13.72-12.9Z"/>
      <path class="st4" d="M617.69,807.47c0-4.38,5.33-7.92,11.91-7.92"/>
      <path class="st4" d="M641.51,807.47c0-4.38-5.33-7.92-11.91-7.92"/>
      <path class="st4" d="M641.51,807.47c0,.86.68,1.56,1.53,1.56"/>
      <path class="st4" d="M617.69,807.47c0,.86-.74,1.56-1.66,1.56"/>
    </g>
    <rect class="st10" x="611.76" y="811.24" width="35.68" height="40.44" transform="translate(1461.06 201.85) rotate(90)"/>
  </g>
  <path class="st1" d="M793.05,944.14h-16.09c-6.19,0-11.2-4.45-11.2-9.95s5.01-9.95,11.2-9.95h16.09s0,19.9,0,19.9Z"/>
  <g>
    <g>
      <path class="st10" d="M446.22,750.4c4.14,9.11,8.27,18.22,12.41,27.32.07.44-.2.9-.67,1.11-10.21,6.38-21.34,11.27-32.93,14.46-.19.06-.39,0-.47-.16-.39-.85-.78-1.7-1.17-2.55l-11.26-24.55,34.09-15.63"/>
      <path class="st10" d="M445.04,748.55c.49.8.88,1.64,1.18,2.53.05.18-.06.37-.25.46-10.79,5.26-21.66,10.32-32.63,15.19-.29.09-.59-.01-.7-.25-.51-.9-.91-1.82-1.23-2.8"/>
      <path class="st10" d="M446.34,754.31c.66-.3.48-2.12-.41-4.07-.08-.15-.15-.31-.23-.46l-.66-1.23c-.1-.15-.32-.2-.51-.11l-33.18,15.22,1.29,2.82c.44.91.88,1.83,1.32,2.74.28.34.81.43,1.28.22,11.12-3.3,21.67-8.44,31.11-15.14Z"/>
      <path class="st10" d="M445.74,752.45c.02.45.07.89.15,1.32,0,.53.03,1.06.1,1.58.08.71.16,1.43.24,2.14.1.99.29,1.94.57,2.89.17.58.36,1.15.57,1.71.22.6.45,1.19.69,1.79.56,1.41,1.19,2.79,1.9,4.13.72,1.36,1.54,2.64,2.47,3.87.7.92,1.49,1.77,2.37,2.55.56.49,1.17.78,1.96.91.07.01.12,0,.19-.03l.6-.27c.14-.13.19-.26.2-.43-4.03-8.78-8.05-17.56-12.08-26.34-.07-.16-.28-.22-.46-.13l-.18.08h0c-.18.09-.27.28-.21.44.12.39.23.77.35,1.16.19.5.34,1.01.44,1.54l.14,1.09Z"/>
      <path class="st10" d="M413.8,767.09c.32.31.62.63.9.98.4.35.78.72,1.13,1.1.49.53.98,1.05,1.47,1.58.68.72,1.28,1.49,1.82,2.32.33.51.63,1.02.92,1.55.31.56.61,1.12.91,1.69.71,1.34,1.34,2.72,1.9,4.13.56,1.43,1,2.89,1.32,4.4.24,1.14.37,2.28.38,3.46,0,.74-.17,1.4-.59,2.08-.03.06-.08.1-.14.13l-.6.27c-.19.02-.33-.02-.46-.13-4.03-8.78-8.05-17.56-12.08-26.34-.07-.16.02-.35.2-.43l.18-.08h0c.18-.08.39-.02.47.13.22.34.43.68.65,1.02.25.47.55.91.88,1.34l.73.82Z"/>
    </g>
    <circle class="st1" cx="478.36" cy="776.61" r="13.02"/>
  </g>
  <g>
    <rect class="st10" x="397.57" y="808.39" width="113.09" height="50.38" transform="translate(908.23 1667.16) rotate(-180)"/>
    <rect class="st10" x="410.01" y="819.44" width="27.99" height="28.27" rx="1.42" ry="1.42" transform="translate(1257.59 409.58) rotate(90)"/>
    <polygon class="st10" points="412.36 859.41 510.96 859.41 510.96 808.39 437.87 808.39 412.36 859.41"/>
  </g>
  <g>
    <polygon class="st0" points="500.61 930.36 500.63 892.72 500.61 861.77 534.87 861.77 534.87 930.36 500.61 930.36"/>
    <g>
      <g>
        <polyline class="st3" points="530.03 923.44 508.84 923.44 508.84 902.07 530.03 902.07 530.03 923.44"/>
        <line class="st3" x1="513.96" y1="912.7" x2="505.44" y2="912.7"/>
      </g>
      <polyline class="st3" points="533.13 928.65 502.34 928.65 502.34 896.86 533.13 896.86 533.13 928.65"/>
    </g>
    <g>
      <g>
        <line class="st6" x1="530.06" y1="871.83" x2="521.82" y2="871.83"/>
        <line class="st6" x1="514.46" y1="871.83" x2="506.22" y2="871.83"/>
        <line class="st6" x1="510.39" y1="867.99" x2="510.39" y2="875.77"/>
        <line class="st6" x1="525.89" y1="867.99" x2="525.89" y2="875.77"/>
      </g>
      <polyline class="st2" points="533.13 880.28 502.34 880.28 502.34 863.48 533.13 863.48 533.13 880.28"/>
    </g>
  </g>
  <g>
    <path class="st4" d="M747.25,944.16c0-11.6-4.79-22.94-13.11-31.27-8.07-8.07-19.42-12.86-31.01-12.86"/>
    <line class="st4" x1="704.89" y1="944.16" x2="747.25" y2="944.16"/>
    <polyline class="st4" points="703.12 900.03 703.12 944.16 704.89 944.16"/>
  </g>
  <g>
    <path class="st4" d="M689.62,912.76c-11.6,0-22.94,4.79-31.27,13.11-8.07,8.07-12.86,19.42-12.86,31.01"/>
    <line class="st4" x1="689.62" y1="955.12" x2="689.62" y2="912.76"/>
    <polyline class="st4" points="645.49 956.88 689.62 956.88 689.62 955.12"/>
  </g>
  <rect class="st17" x="526.76" y="956.86" width="118.61" height="8.5"/>
  <rect class="st17" x="675.8" y="731.78" width="31.35" height="34.02"/>
  <rect class="st17" x="517.71" y="731.78" width="41.95" height="34.02"/>
  <rect class="st17" x="385.69" y="731.78" width="15.37" height="34.02"/>
  <rect class="st17" x="689.58" y="956.86" width="24" height="8.5"/>
  <rect class="st17" x="700.79" y="952.61" width="97.5" height="12.76"/>
  <rect class="st17" x="699.35" y="866.15" width="98.94" height="8.5"/>
  <rect class="st17" x="793.05" y="866.15" width="21.26" height="99.21"/>
  <rect class="st17" x="698.7" y="731.78" width="8.5" height="168.36"/>
  <rect class="st17" x="698.7" y="944.16" width="8.5" height="21.2"/>
  <rect class="st17" x="385.69" y="731.78" width="8.5" height="138.22"/>
  <rect class="st17" x="526.76" y="931.69" width="8.5" height="33.65"/>
  <rect class="st17" x="492.05" y="861.78" width="8.5" height="76.98"/>
  <rect class="st17" x="493.05" y="930.26" width="42.22" height="8.5"/>
  <rect class="st17" x="385.69" y="861.68" width="114.86" height="8.5"/>
  <g>
    <g>
      <g>
        <path class="st7" d="M457.85,741.1c0,14.25-5.89,28.19-16.11,38.41-9.91,9.91-23.85,15.8-38.1,15.8"/>
        <path class="st7" d="M457.85,741.1"/>
        <path class="st7" d="M403.65,741.1"/>
        <line class="st7" x1="403.65" y1="795.31" x2="403.65" y2="741.1"/>
      </g>
      <line class="st5" x1="430.98" y1="734.83" x2="459.12" y2="734.83"/>
      <line class="st5" x1="459.54" y1="734.83" x2="487.62" y2="734.83"/>
      <line class="st5" x1="488.04" y1="734.83" x2="516.3" y2="734.83"/>
      <line class="st5" x1="402.3" y1="734.83" x2="430.62" y2="734.83"/>
      <line class="st5" x1="403.62" y1="735.79" x2="429.36" y2="735.79"/>
      <line class="st5" x1="432.3" y1="735.79" x2="457.86" y2="735.79"/>
      <line class="st5" x1="489.3" y1="735.79" x2="515.04" y2="735.79"/>
      <line class="st5" x1="460.8" y1="735.79" x2="486.36" y2="735.79"/>
      <line class="st5" x1="515.04" y1="741.13" x2="489.3" y2="741.13"/>
      <line class="st5" x1="486.36" y1="741.13" x2="460.8" y2="741.13"/>
      <line class="st5" x1="457.86" y1="741.13" x2="432.3" y2="741.13"/>
      <line class="st5" x1="429.36" y1="741.13" x2="403.62" y2="741.13"/>
      <polyline class="st5" points="403.62 739.15 429.36 739.15 429.36 741.13 432.3 741.13 432.3 739.15 457.86 739.15 457.86 741.13 460.8 741.13 460.8 739.15 486.36 739.15 486.36 741.13 489.3 741.13 489.3 739.15 515.04 739.15 515.04 741.13 516.72 741.13 516.72 734.83 516.3 734.83 516.3 735.79 515.04 735.79 515.04 736.87 489.3 736.87 489.3 735.79 488.04 735.79 488.04 734.83 487.62 734.83 487.62 735.79 486.36 735.79 486.36 736.87 460.8 736.87 460.8 735.79 459.54 735.79 459.54 734.83 459.12 734.83 459.12 735.79 457.86 735.79 457.86 736.87 432.3 736.87 432.3 735.79 430.98 735.79 430.98 734.83 430.62 734.83 430.62 735.79 429.36 735.79 429.36 736.87 403.62 736.87 403.62 735.79 402.3 735.79 402.3 734.83 401.94 734.83 401.94 741.13 403.62 741.13 403.62 739.15"/>
      <line class="st5" x1="459" y1="736.87" x2="402.48" y2="736.87"/>
    </g>
    <line class="st4" x1="517.23" y1="731.87" x2="401.01" y2="731.87"/>
  </g>
  <g>
    <g>
      <g>
        <path class="st7" d="M616.42,741.1c0,14.25-5.89,28.19-16.11,38.41-9.91,9.91-23.85,15.8-38.1,15.8"/>
        <path class="st7" d="M616.42,741.1"/>
        <path class="st7" d="M562.21,741.1"/>
        <line class="st7" x1="562.21" y1="795.31" x2="562.21" y2="741.1"/>
      </g>
      <line class="st5" x1="589.55" y1="734.83" x2="617.69" y2="734.83"/>
      <line class="st5" x1="618.11" y1="734.83" x2="646.19" y2="734.83"/>
      <line class="st5" x1="646.61" y1="734.83" x2="674.87" y2="734.83"/>
      <line class="st5" x1="560.87" y1="734.83" x2="589.19" y2="734.83"/>
      <line class="st5" x1="562.19" y1="735.79" x2="587.93" y2="735.79"/>
      <line class="st5" x1="590.87" y1="735.79" x2="616.43" y2="735.79"/>
      <line class="st5" x1="647.87" y1="735.79" x2="673.61" y2="735.79"/>
      <line class="st5" x1="619.37" y1="735.79" x2="644.93" y2="735.79"/>
      <line class="st5" x1="673.61" y1="741.13" x2="647.87" y2="741.13"/>
      <line class="st5" x1="644.93" y1="741.13" x2="619.37" y2="741.13"/>
      <line class="st5" x1="616.43" y1="741.13" x2="590.87" y2="741.13"/>
      <line class="st5" x1="587.93" y1="741.13" x2="562.19" y2="741.13"/>
      <polyline class="st5" points="562.19 739.15 587.93 739.15 587.93 741.13 590.87 741.13 590.87 739.15 616.43 739.15 616.43 741.13 619.37 741.13 619.37 739.15 644.93 739.15 644.93 741.13 647.87 741.13 647.87 739.15 673.61 739.15 673.61 741.13 675.29 741.13 675.29 734.83 674.87 734.83 674.87 735.79 673.61 735.79 673.61 736.87 647.87 736.87 647.87 735.79 646.61 735.79 646.61 734.83 646.19 734.83 646.19 735.79 644.93 735.79 644.93 736.87 619.37 736.87 619.37 735.79 618.11 735.79 618.11 734.83 617.69 734.83 617.69 735.79 616.43 735.79 616.43 736.87 590.87 736.87 590.87 735.79 589.55 735.79 589.55 734.83 589.19 734.83 589.19 735.79 587.93 735.79 587.93 736.87 562.19 736.87 562.19 735.79 560.87 735.79 560.87 734.83 560.51 734.83 560.51 741.13 562.19 741.13 562.19 739.15"/>
      <line class="st5" x1="617.57" y1="736.87" x2="561.05" y2="736.87"/>
    </g>
    <line class="st4" x1="675.8" y1="731.87" x2="559.58" y2="731.87"/>
  </g>
</svg>