<?xml version="1.0" encoding="UTF-8"?>
<svg xmlns="http://www.w3.org/2000/svg" version="1.1" viewBox="0 0 1200 1697.14">
  <!-- Generator: Adobe Illustrator 29.6.0, SVG Export Plug-In . SVG Version: 2.1.1 Build 207)  -->
  <defs>
    <style>
      .st0, .st1, .st2, .st3, .st4, .st5, .st6, .st7, .st8, .st9, .st10, .st11, .st12, .st13, .st14, .st15, .st16, .st17, .st18 {
        fill: none;
      }

      .st19 {
        fill: #e2dedb;
      }

      .st20, .st1, .st2, .st3, .st4, .st5, .st6, .st7, .st8, .st9, .st10, .st13, .st14, .st17, .st21, .st22, .st23 {
        stroke: #363a3b;
      }

      .st20, .st4, .st11, .st15, .st23, .st18 {
        stroke-width: .28px;
      }

      .st20, .st13 {
        stroke-miterlimit: 10;
      }

      .st20, .st24, .st21, .st22, .st23 {
        fill: #fff;
      }

      .st1 {
        stroke-dasharray: .04 .29;
        stroke-width: .19px;
      }

      .st1, .st2, .st3, .st4, .st5, .st6, .st7, .st8, .st9, .st10, .st11, .st12, .st14, .st15, .st16, .st17, .st21, .st22, .st23, .st18 {
        stroke-linecap: round;
        stroke-linejoin: round;
      }

      .st2 {
        stroke-width: .3px;
      }

      .st3 {
        stroke-width: .28px;
      }

      .st5, .st22 {
        stroke-width: .28px;
      }

      .st6 {
        stroke-width: .29px;
      }

      .st7 {
        stroke-width: .26px;
      }

      .st8 {
        stroke-width: .18px;
      }

      .st25 {
        fill: #ece8e5;
      }

      .st9 {
        stroke-dasharray: .06 .42;
        stroke-width: .18px;
      }

      .st10 {
        stroke-dasharray: .07 .52;
        stroke-width: .18px;
      }

      .st11, .st12, .st15, .st16 {
        stroke: #000;
      }

      .st12 {
        stroke-width: .28px;
      }

      .st13 {
        stroke-width: .29px;
      }

      .st14, .st16 {
        stroke-dasharray: .06 .43;
        stroke-width: .18px;
      }

      .st15 {
        stroke-dasharray: .09 .69;
      }

      .st17 {
        stroke-dasharray: .06 .44;
        stroke-width: .19px;
      }

      .st21 {
        stroke-width: .34px;
      }

      .st26 {
        fill: #302c35;
      }

      .st18 {
        stroke: #00001d;
      }

      .st27 {
        fill: #00001d;
      }
    </style>
  </defs>
  <g id="Dore_vinduer">
    <g>
      <path class="st8" d="M1204.88,746.16c8.45,0,16.71-3.49,22.77-9.55,5.88-5.88,9.36-14.14,9.36-22.59"/>
      <line class="st8" x1="1204.88" y1="715.31" x2="1204.88" y2="746.16"/>
      <polyline class="st8" points="1237.02 714.03 1204.88 714.03 1204.88 715.31"/>
    </g>
  </g>
  <g id="Vinduer_i_facade">
    <g>
      <path class="st25" d="M710.22,967.97v-112.86s-38.8-.35-38.8-.35l-.39-74.49,38.46.09-.45-263.8h-209.64c-.24,0,.02,357.17.26,357.17l19.91-.03c.05,75.97,1.02,203.43,1.07,234.41l147.45-.74.32-139.8,41.81.39Z"/>
      <polygon class="st19" points="540.24 945.05 540.46 904.19 540.22 870.59 701.86 870.59 701.86 945.05 540.24 945.05"/>
      <g>
        <line class="st4" x1="660.95" y1="866.2" x2="660.95" y2="846.94"/>
        <line class="st4" x1="659.57" y1="846.94" x2="659.57" y2="866.2"/>
        <polyline class="st4" points="660.95 846.94 660.95 844.06 659.57 844.06 659.57 846.94 660.95 846.94"/>
        <polyline class="st4" points="660.95 869.02 660.95 866.2 659.57 866.2 659.57 869.02 660.95 869.02"/>
        <line class="st4" x1="664.01" y1="867.22" x2="661.19" y2="867.22"/>
        <line class="st4" x1="664.01" y1="846.05" x2="661.19" y2="846.05"/>
      </g>
      <rect class="st26" x="527.76" y="954.99" width="24.93" height="42.02" transform="translate(1516.22 435.78) rotate(90)"/>
      <polygon class="st24" points="559.1 963.01 559.1 945.05 540.24 945.05 540.38 895.39 524.89 895.39 524.89 963.01 559.1 963.01"/>
      <polygon class="st24" points="524.91 870.59 540.19 870.59 540.39 896.01 524.91 896.01 524.91 870.59"/>
      <polygon class="st24" points="524.89 836.79 559.02 836.79 559.16 870.31 524.89 870.59 524.89 836.79"/>
      <polyline class="st24" points="561.68 842.75 561.68 842.75 561.68 842.75"/>
      <polygon class="st13" points="524.79 963.38 524.82 926.05 524.79 895.34 559.05 895.34 559.05 963.38 524.79 963.38"/>
      <g>
        <g>
          <polyline class="st3" points="554.22 956.51 533.02 956.51 533.02 935.32 554.22 935.32 554.22 956.51"/>
          <line class="st3" x1="538.15" y1="945.86" x2="529.62" y2="945.86"/>
        </g>
        <polyline class="st3" points="557.32 961.68 526.52 961.68 526.52 930.15 557.32 930.15 557.32 961.68"/>
      </g>
      <g>
        <g>
          <line class="st6" x1="554.41" y1="905.32" x2="546.17" y2="905.32"/>
          <line class="st6" x1="538.81" y1="905.32" x2="530.57" y2="905.32"/>
          <line class="st6" x1="534.75" y1="901.51" x2="534.75" y2="909.23"/>
          <line class="st6" x1="550.24" y1="901.51" x2="550.24" y2="909.23"/>
        </g>
        <polyline class="st2" points="557.49 913.7 526.69 913.7 526.69 897.04 557.49 897.04 557.49 913.7"/>
      </g>
      <path class="st18" d="M711.72,1190.13"/>
      <rect class="st4" x="524.11" y="1076.73" width="28.32" height="26.04"/>
      <rect class="st7" x="524.11" y="987.99" width="28.32" height="22.68"/>
      <g>
        <g>
          <path class="st23" d="M594.4,822.8c0,7.12,6.14,12.9,13.72,12.9,5.58,0,11.1-3.65,13.01-8.79.26-.7.79-2.18.71-4.11-.24-6.06-6.28-12.9-13.72-12.9s-13.72,5.78-13.72,12.9Z"/>
          <path class="st4" d="M620.03,825.69c0,4.38-5.33,7.92-11.91,7.92"/>
          <path class="st4" d="M596.21,825.69c0,4.38,5.33,7.92,11.91,7.92"/>
          <path class="st4" d="M596.21,825.69c0-.86-.68-1.56-1.53-1.56"/>
          <path class="st4" d="M620.03,825.69c0-.86.74-1.56,1.66-1.56"/>
        </g>
        <g>
          <path class="st23" d="M594.4,778.52c0-7.12,6.14-12.9,13.72-12.9,5.58,0,11.1,3.65,13.01,8.79.26.7.79,2.18.71,4.11-.24,6.06-6.28,12.9-13.72,12.9-7.58,0-13.72-5.78-13.72-12.9Z"/>
          <path class="st4" d="M620.03,775.63c0-4.38-5.33-7.92-11.91-7.92"/>
          <path class="st4" d="M596.21,775.63c0-4.38,5.33-7.92,11.91-7.92"/>
          <path class="st4" d="M596.21,775.63c0,.86-.68,1.56-1.53,1.56"/>
          <path class="st4" d="M620.03,775.63c0,.86.74,1.56,1.66,1.56"/>
        </g>
        <rect class="st23" x="590.28" y="779.4" width="35.68" height="40.44" transform="translate(1407.74 191.5) rotate(90)"/>
      </g>
      <circle class="st20" cx="629.93" cy="697.88" r="13.02"/>
      <g>
        <path class="st22" d="M568.42,1102.64v-18.5c0-.41.21-.74.47-.74h26.59c.32,0,.59.33.59.74v18.5"/>
        <path class="st4" d="M583.3,1099.94c0-.55-.45-1-1-1s-1,.45-1,1,.45,1,1,1,1-.45,1-1"/>
        <g>
          <path class="st4" d="M583.5,1091.13c0-.68-.55-1.23-1.23-1.23s-1.23.55-1.23,1.23.55,1.23,1.23,1.23,1.23-.55,1.23-1.23"/>
          <path class="st4" d="M584.09,1091.13c0-1-.81-1.82-1.82-1.82s-1.82.81-1.82,1.82.81,1.82,1.82,1.82,1.82-.81,1.82-1.82"/>
        </g>
        <path class="st5" d="M570.45,1096.73v-10.82c0-.41.23-.74.52-.74h22.61c.29,0,.52.33.52.74v10.82c0,.41-.23.74-.52.74h-22.61c-.29,0-.52-.33-.52-.74Z"/>
      </g>
      <g>
        <rect class="st23" x="586.68" y="558.79" width="113.09" height="76.97"/>
        <rect class="st23" x="645.88" y="584.54" width="56.52" height="27.44" rx="1.42" ry="1.42" transform="translate(1272.41 -75.88) rotate(90)"/>
        <polygon class="st23" points="684.98 636.74 586.39 636.74 586.39 558.79 659.48 558.79 684.98 636.74"/>
      </g>
      <g>
        <path class="st20" d="M540.08,1026.63h16.09c6.19,0,11.2,4.45,11.2,9.95s-5.01,9.95-11.2,9.95h-16.09s0-19.9,0-19.9Z"/>
        <g>
          <path class="st22" d="M538.9,1046.53h-8.72c-.33,0-.6-.2-.6-.44v-19.02c0-.24.27-.44.6-.44h8.72c.33,0,.6.2.6.44v19.02c0,.24-.27.44-.6.44Z"/>
          <path class="st23" d="M534.39,1035.54c-.55,0-.99.46-.99,1.03s.44,1.03.99,1.03.99-.46.99-1.03-.44-1.03-.99-1.03"/>
        </g>
      </g>
      <g>
        <polyline class="st27" points="571.54 651.8 571.54 651.26 573.58 651.26 573.58 650.78 571.54 650.78 571.54 650.24 570.76 651.02 571.54 651.8"/>
        <polyline class="st12" points="570.76 649.88 622.36 649.88 622.36 647.6 570.76 647.6 570.76 649.88"/>
      </g>
      <g>
        <polyline class="st11" points="609.07 1051.68 609.02 1051.68 609.02 1051.73"/>
        <line class="st15" x1="609.02" y1="1052.41" x2="609.02" y2="1101.98"/>
        <polyline class="st11" points="609.02 1102.33 609.02 1102.37 609.07 1102.37"/>
        <line class="st15" x1="609.75" y1="1102.37" x2="659.32" y2="1102.37"/>
        <polyline class="st11" points="659.67 1102.37 659.71 1102.37 659.71 1102.33"/>
        <line class="st15" x1="659.71" y1="1101.64" x2="659.71" y2="1052.07"/>
        <polyline class="st11" points="659.71 1051.73 659.71 1051.68 659.67 1051.68"/>
        <line class="st15" x1="658.98" y1="1051.68" x2="609.41" y2="1051.68"/>
      </g>
      <g>
        <line class="st4" x1="633.58" y1="1101.99" x2="633.58" y2="1089.69"/>
        <path class="st23" d="M630.88,1089.75c0,1.52,1.23,2.75,2.75,2.75s2.75-1.23,2.75-2.75-1.23-2.75-2.75-2.75-2.75,1.23-2.75,2.75"/>
      </g>
      <g>
        <path class="st21" d="M655.16,754.78c-2.28-14-2.51-28.35-.69-42.45,0-.6.36-1.13.86-1.26,11.81-.04,23.62-.09,35.42-.13"/>
        <path class="st21" d="M655.16,754.78c.03.23.2.41.41.43h3.31s31.41,0,31.41,0l.47-44.31c-11.81-.04-23.62-.09-35.42-.13-.51-.14-.86-.66-.86-1.26-1.83-14.09-1.59-28.44.69-42.45.03-.23.2-.41.41-.43h3.31s31.89,0,31.89,0v44.27"/>
        <path class="st21" d="M692.56,754.59c-1.1.14-2.19.14-3.3.02-.21-.03-.37-.24-.37-.49-.33-14.16-.41-28.32-.24-42.48.04-.36.3-.62.61-.63,1.21-.1,2.41-.08,3.61.06"/>
        <path class="st21" d="M692.56,667.25c-1.1-.14-2.19-.14-3.3-.02-.21.03-.37.24-.37.49-.33,14.16-.41,28.32-.24,42.48.04.36.3.62.61.63,1.21.1,2.41.08,3.61-.06"/>
        <path class="st21" d="M693.2,666.71h.39c.13,0,.23.12.23.27,0,29.29,0,58.59,0,87.88,0,.15-.1.27-.23.27h-.39s-.27-.12-.27-.12v-.67s.27-87.63.27-87.63Z"/>
        <path class="st21" d="M685.74,753.16c0,.86,2.04,1.56,4.57,1.56.2,0,.4-.01.6-.02l1.65-.11c.21-.03.37-.24.37-.49v-43.09s-3.67,0-3.67,0c-1.2.02-2.39.04-3.59.07-.51.14-.86.66-.86,1.26-1.93,13.55-1.61,27.41.93,40.83Z"/>
        <path class="st21" d="M685.74,668.75c0-.86,2.04-1.56,4.57-1.56.2,0,.4.01.6.02l1.65.11c.21.03.37.24.37.49v43.09s-3.67,0-3.67,0c-1.2-.02-2.39-.04-3.59-.07-.51-.14-.86-.66-.86-1.26-1.93-13.55-1.61-27.41.93-40.83Z"/>
        <path class="st21" d="M688.92,754.3c-.49-.2-.99-.36-1.5-.49-.57-.26-1.15-.48-1.74-.67-.81-.26-1.61-.53-2.41-.8-1.11-.38-2.23-.64-3.38-.81-.7-.1-1.41-.18-2.12-.23-.75-.05-1.5-.1-2.26-.14-1.79-.1-3.58-.1-5.37,0-1.81.1-3.59.35-5.37.75-1.34.3-2.63.73-3.9,1.29-.8.36-1.41.87-1.95,1.66-.05.07-.06.13-.06.22v.78c.08.21.18.34.37.43,11.4,0,22.8,0,34.2,0,.2,0,.37-.19.37-.43v-.24h0c0-.24-.16-.43-.37-.45-.47-.07-.94-.13-1.42-.2-.63-.04-1.25-.14-1.87-.29l-1.24-.38Z"/>
        <path class="st21" d="M688.92,667.54c-.49.2-.99.36-1.5.49-.57.26-1.15.48-1.74.67-.81.26-1.61.53-2.41.8-1.11.38-2.23.64-3.38.81-.7.1-1.41.18-2.12.23-.75.05-1.5.1-2.26.14-1.79.1-3.58.1-5.37,0-1.81-.1-3.59-.35-5.37-.75-1.34-.3-2.63-.73-3.9-1.29-.8-.36-1.41-.87-1.95-1.66-.05-.07-.06-.13-.06-.22v-.78c.08-.21.18-.34.37-.43,11.4,0,22.8,0,34.2,0,.2,0,.37.19.37.43v.24h0c0,.24-.16.43-.37.45-.47.07-.94.13-1.42.2-.63.04-1.25.14-1.87.29l-1.24.38Z"/>
      </g>
      <rect class="st16" x="540.53" y="870.59" width="161.33" height="74.46"/>
      <rect class="st26" x="484.94" y="847.08" width="33.22" height="34.02"/>
      <rect class="st26" x="490.89" y="507.3" width="34.02" height="141.99"/>
      <rect class="st26" x="490.89" y="764.81" width="34.02" height="116.27"/>
      <rect class="st26" x="701.72" y="508.82" width="8.5" height="274.6"/>
      <rect class="st26" x="663.96" y="774.92" width="8.89" height="95.67"/>
      <rect class="st26" x="701.72" y="847.94" width="8.5" height="61.03"/>
      <rect class="st26" x="701.72" y="953.05" width="8.5" height="18.47"/>
      <rect class="st26" x="516.39" y="870.59" width="8.5" height="240.28"/>
      <rect class="st26" x="646.62" y="963.01" width="62.95" height="8.5"/>
      <rect class="st26" x="516.39" y="963.01" width="86.11" height="8.5"/>
      <rect class="st26" x="659.71" y="963.34" width="8.5" height="147.1"/>
      <rect class="st26" x="664.12" y="774.92" width="43.5" height="8.5"/>
      <rect class="st26" x="664.12" y="847.94" width="43.5" height="22.65"/>
      <polygon class="st26" points="516.39 1102.37 516.39 1110.88 660.61 1110.88 668.09 1110.88 668.09 1102.37 516.39 1102.37"/>
      <rect class="st26" x="579.75" y="639.09" width="129.88" height="8.5"/>
      <rect class="st26" x="520.51" y="639.09" width="8.08" height="8.5"/>
      <rect class="st26" x="504.38" y="493.52" width="21.26" height="48.24" transform="translate(1032.65 2.63) rotate(90)"/>
      <rect class="st26" x="674.53" y="487.74" width="21.26" height="59.8" transform="translate(1202.8 -167.52) rotate(90)"/>
      <g>
        <polygon class="st0" points="524.91 836.86 543.58 836.97 558.93 836.85 558.93 895.13 524.91 895.13 524.91 836.86"/>
        <g>
          <line class="st4" x1="525.08" y1="836.85" x2="559.1" y2="836.85"/>
          <g>
            <line class="st4" x1="525.08" y1="870.37" x2="559.1" y2="870.37"/>
            <line class="st4" x1="559.1" y1="866.83" x2="559.1" y2="836.91"/>
            <line class="st4" x1="559.1" y1="866.83" x2="559.1" y2="895.18"/>
            <path class="st18" d="M559.1,895.57"/>
            <line class="st4" x1="525.08" y1="895.18" x2="559.1" y2="895.18"/>
          </g>
        </g>
        <path class="st14" d="M559.1,895.13l16.54-19.77s-7.42-4.12-16.54-4.16"/>
        <path class="st14" d="M559.1,836.91l16.54,27.26s-7.42,5.68-16.54,5.73"/>
      </g>
      <path class="st17" d="M524.11,1076.78l23.4-14.84s4.88,6.66,4.92,14.84"/>
      <path class="st1" d="M552.43,988.25l11.7,18.32s-5.25,3.82-11.7,3.85"/>
      <g>
        <path class="st4" d="M646.62,1011.21c-11.6,0-22.95-4.79-31.27-13.11-8.07-8.07-12.86-19.42-12.86-31.01"/>
        <line class="st4" x1="646.62" y1="968.85" x2="646.62" y2="1011.21"/>
        <polyline class="st4" points="602.5 967.09 646.62 967.09 646.62 968.85"/>
      </g>
      <g>
        <path class="st4" d="M701.86,908.92c-11.6,0-22.95,4.79-31.27,13.11-8.07,8.07-12.86,19.42-12.86,31.01"/>
        <line class="st4" x1="701.86" y1="951.28" x2="701.86" y2="908.92"/>
        <polyline class="st4" points="657.74 953.05 701.86 953.05 701.86 951.28"/>
      </g>
      <g>
        <g>
          <path class="st9" d="M567.25,516.56c-.83,5.28-3.43,9.74-7.4,13.81-4.73,4.86-11.38,7.75-18.18,7.75"/>
          <line class="st9" x1="541.66" y1="538.12" x2="541.66" y2="516.41"/>
        </g>
        <g>
          <path class="st14" d="M627.34,516.44c.84,5.28,3.45,9.74,7.42,13.81,4.75,4.86,11.43,7.75,18.25,7.75"/>
          <line class="st14" x1="653.02" y1="538" x2="653.02" y2="515.94"/>
        </g>
        <line class="st4" x1="653.02" y1="513.95" x2="653.02" y2="516.41"/>
        <polyline class="st4" points="598.84 514.49 624.4 514.49 624.4 512.21 598.84 512.21 598.84 514.49"/>
        <polyline class="st4" points="570.34 514.49 595.9 514.49 595.9 512.21 570.34 512.21 570.34 514.49"/>
        <polyline class="st4" points="627.34 514.49 653.02 514.49 653.02 512.21 627.34 512.21 627.34 514.49"/>
        <polyline class="st4" points="541.66 514.49 567.34 514.49 567.34 512.21 541.66 512.21 541.66 514.49"/>
        <line class="st4" x1="626.08" y1="510.17" x2="654.34" y2="510.17"/>
        <line class="st4" x1="540.34" y1="510.17" x2="568.66" y2="510.17"/>
        <line class="st4" x1="569.02" y1="510.17" x2="597.16" y2="510.17"/>
        <line class="st4" x1="597.52" y1="510.17" x2="625.66" y2="510.17"/>
        <line class="st4" x1="627.34" y1="511.07" x2="653.02" y2="511.07"/>
        <line class="st4" x1="598.84" y1="511.07" x2="624.4" y2="511.07"/>
        <line class="st4" x1="570.34" y1="511.07" x2="595.9" y2="511.07"/>
        <line class="st4" x1="541.66" y1="511.07" x2="567.34" y2="511.07"/>
        <polyline class="st4" points="540.34 510.17 539.92 510.17 539.92 516.47 541.66 516.47 541.66 511.07 540.34 511.07 540.34 510.17"/>
        <polyline class="st4" points="597.52 510.17 597.16 510.17 597.16 511.07 595.9 511.07 595.9 516.47 598.84 516.47 598.84 511.07 597.52 511.07 597.52 510.17"/>
        <polyline class="st4" points="569.02 510.17 568.66 510.17 568.66 511.07 567.34 511.07 567.34 516.47 570.34 516.47 570.34 511.07 569.02 511.07 569.02 510.17"/>
        <polyline class="st4" points="654.76 510.17 654.34 510.17 654.34 511.07 653.02 511.07 653.02 516.47 654.76 516.47 654.76 510.17"/>
        <polyline class="st4" points="626.08 510.17 625.66 510.17 625.66 511.07 624.4 511.07 624.4 516.47 627.34 516.47 627.34 511.07 626.08 511.07 626.08 510.17"/>
        <line class="st4" x1="653.02" y1="516.47" x2="627.34" y2="516.47"/>
        <line class="st4" x1="624.4" y1="516.47" x2="598.84" y2="516.47"/>
        <line class="st4" x1="595.9" y1="516.47" x2="570.34" y2="516.47"/>
        <line class="st4" x1="567.34" y1="516.47" x2="541.66" y2="516.47"/>
        <line class="st4" x1="566.26" y1="512.21" x2="542.8" y2="512.21"/>
        <line class="st4" x1="651.94" y1="512.21" x2="628.48" y2="512.21"/>
        <line class="st4" x1="539.26" y1="507.17" x2="655.48" y2="507.17"/>
      </g>
      <g>
        <g>
          <path class="st10" d="M499.69,708.45c14.25,0,28.19,5.89,38.41,16.11,9.91,9.91,15.8,23.85,15.8,38.1"/>
          <path class="st10" d="M499.69,708.45"/>
          <path class="st10" d="M499.69,762.66"/>
          <line class="st10" x1="553.9" y1="762.66" x2="499.69" y2="762.66"/>
        </g>
        <line class="st5" x1="493.41" y1="735.32" x2="493.41" y2="707.18"/>
        <line class="st5" x1="493.41" y1="706.76" x2="493.41" y2="678.68"/>
        <line class="st5" x1="493.41" y1="678.26" x2="493.41" y2="650"/>
        <line class="st5" x1="493.41" y1="764" x2="493.41" y2="735.68"/>
        <line class="st5" x1="494.37" y1="762.68" x2="494.37" y2="736.94"/>
        <line class="st5" x1="494.37" y1="734" x2="494.37" y2="708.44"/>
        <line class="st5" x1="494.37" y1="677" x2="494.37" y2="651.26"/>
        <line class="st5" x1="494.37" y1="705.5" x2="494.37" y2="679.94"/>
        <line class="st5" x1="499.71" y1="651.26" x2="499.71" y2="677"/>
        <line class="st5" x1="499.71" y1="679.94" x2="499.71" y2="705.5"/>
        <line class="st5" x1="499.71" y1="708.44" x2="499.71" y2="734"/>
        <line class="st5" x1="499.71" y1="736.94" x2="499.71" y2="762.68"/>
        <polyline class="st5" points="497.73 762.68 497.73 736.94 499.71 736.94 499.71 734 497.73 734 497.73 708.44 499.71 708.44 499.71 705.5 497.73 705.5 497.73 679.94 499.71 679.94 499.71 677 497.73 677 497.73 651.26 499.71 651.26 499.71 649.58 493.41 649.58 493.41 650 494.37 650 494.37 651.26 495.45 651.26 495.45 677 494.37 677 494.37 678.26 493.41 678.26 493.41 678.68 494.37 678.68 494.37 679.94 495.45 679.94 495.45 705.5 494.37 705.5 494.37 706.76 493.41 706.76 493.41 707.18 494.37 707.18 494.37 708.44 495.45 708.44 495.45 734 494.37 734 494.37 735.32 493.41 735.32 493.41 735.68 494.37 735.68 494.37 736.94 495.45 736.94 495.45 762.68 494.37 762.68 494.37 764 493.41 764 493.41 764.36 499.71 764.36 499.71 762.68 497.73 762.68"/>
        <line class="st5" x1="495.45" y1="707.3" x2="495.45" y2="763.82"/>
      </g>
      <line class="st4" x1="491.03" y1="765.29" x2="491.03" y2="649.07"/>
    </g>
  </g>
</svg>