<?xml version="1.0" encoding="UTF-8"?>
<svg id="Vinduer_i_facade" xmlns="http://www.w3.org/2000/svg" version="1.1" viewBox="0 0 1200 1697.14">
  <!-- Generator: Adobe Illustrator 29.6.0, SVG Export Plug-In . SVG Version: 2.1.1 Build 207)  -->
  <defs>
    <style>
      .st0 {
        fill: #e2dedb;
      }

      .st1 {
        stroke-miterlimit: 10;
      }

      .st1, .st2, .st3, .st4, .st5, .st6, .st7, .st8, .st9, .st10, .st11 {
        stroke: #363a3b;
      }

      .st1, .st5, .st12, .st13, .st14, .st11 {
        stroke-width: .28px;
      }

      .st1, .st15, .st10, .st11 {
        fill: #fff;
      }

      .st2 {
        stroke-width: .29px;
      }

      .st2, .st3, .st4, .st5, .st6, .st7, .st8, .st12, .st9, .st13, .st16, .st14 {
        fill: none;
      }

      .st2, .st3, .st4, .st5, .st6, .st7, .st8, .st12, .st9, .st13, .st16, .st14, .st10, .st11 {
        stroke-linecap: round;
        stroke-linejoin: round;
      }

      .st3 {
        stroke-width: .3px;
      }

      .st4 {
        stroke-width: .28px;
      }

      .st6, .st10 {
        stroke-width: .28px;
      }

      .st7 {
        stroke-width: .29px;
      }

      .st17 {
        fill: #ece8e5;
      }

      .st8 {
        stroke-dasharray: .07 .52;
        stroke-width: .18px;
      }

      .st12, .st13, .st16, .st14 {
        stroke: #000;
      }

      .st9, .st16 {
        stroke-dasharray: .06 .43;
        stroke-width: .18px;
      }

      .st13 {
        stroke-dasharray: .09 .69;
      }

      .st14 {
        stroke-dasharray: .09 .68;
      }

      .st18 {
        fill: #302c35;
      }
    </style>
  </defs>
  <polygon class="st17" points="495.53 686.11 686.24 686.11 687.38 902.06 712.03 902.78 710.79 1008.62 627.18 1008.62 626.02 1020.35 495.89 1020.35 495.53 686.11"/>
  <rect class="st15" x="481.92" y="960.65" width="67.5" height="34.91" transform="translate(1493.78 462.43) rotate(90)"/>
  <rect class="st10" x="497.78" y="916.68" width="35.36" height="27.64" transform="translate(1030.91 1861.01) rotate(-180)"/>
  <rect class="st0" x="523.49" y="891.93" width="100.58" height="120.16" transform="translate(1147.56 1904.03) rotate(-180)"/>
  <g>
    <line class="st5" x1="621.16" y1="888.84" x2="601.9" y2="888.84"/>
    <line class="st5" x1="601.9" y1="887.46" x2="621.16" y2="887.46"/>
    <polyline class="st5" points="601.9 888.84 599.02 888.84 599.02 887.46 601.9 887.46 601.9 888.84"/>
    <polyline class="st5" points="623.98 888.84 621.16 888.84 621.16 887.46 623.98 887.46 623.98 888.84"/>
    <line class="st5" x1="622.18" y1="891.9" x2="622.18" y2="889.08"/>
    <line class="st5" x1="601.01" y1="891.9" x2="601.01" y2="889.08"/>
  </g>
  <rect class="st2" x="481.92" y="960.65" width="67.5" height="34.91" transform="translate(1493.78 462.43) rotate(90)"/>
  <rect class="st6" x="497.78" y="916.68" width="35.36" height="27.64" transform="translate(1030.91 1861.01) rotate(-180)"/>
  <g>
    <polyline class="st12" points="706.97 946.67 707.01 946.67 707.01 946.72"/>
    <line class="st13" x1="707.01" y1="947.41" x2="707.01" y2="990.93"/>
    <polyline class="st12" points="707.01 991.27 707.01 991.32 706.97 991.32"/>
    <line class="st14" x1="706.28" y1="991.32" x2="663.27" y2="991.32"/>
    <polyline class="st12" points="662.93 991.32 662.88 991.32 662.88 991.27"/>
    <line class="st13" x1="662.88" y1="990.58" x2="662.88" y2="947.06"/>
    <polyline class="st12" points="662.88 946.72 662.88 946.67 662.93 946.67"/>
    <line class="st14" x1="663.61" y1="946.67" x2="706.62" y2="946.67"/>
  </g>
  <g>
    <line class="st5" x1="684.98" y1="991.15" x2="684.98" y2="978.85"/>
    <path class="st11" d="M687.68,978.9c0,1.52-1.23,2.75-2.75,2.75s-2.75-1.23-2.75-2.75,1.23-2.75,2.75-2.75,2.75,1.23,2.75,2.75"/>
  </g>
  <path class="st1" d="M659.06,992.11v-16.09c0-6.19-4.45-11.2-9.95-11.2s-9.95,5.01-9.95,11.2v16.09s19.9,0,19.9,0Z"/>
  <g>
    <rect class="st11" x="600.1" y="754.04" width="109.78" height="49.4" transform="translate(-123.75 1433.73) rotate(-90)"/>
    <rect class="st11" x="641.27" y="735.79" width="27.44" height="27.44" rx="1.42" ry="1.42"/>
    <polygon class="st11" points="680.32 738.21 680.32 833.91 630.29 833.91 630.29 762.97 680.32 738.21"/>
  </g>
  <g>
    <g>
      <path class="st11" d="M548.04,847.45c0,7.12-6.14,12.9-13.72,12.9-5.58,0-11.1-3.65-13.01-8.79-.26-.7-.79-2.18-.71-4.11.24-6.06,6.28-12.9,13.72-12.9,7.58,0,13.72,5.78,13.72,12.9Z"/>
      <path class="st5" d="M522.41,850.34c0,4.38,5.33,7.92,11.91,7.92"/>
      <path class="st5" d="M546.23,850.34c0,4.38-5.33,7.92-11.91,7.92"/>
      <path class="st5" d="M546.23,850.34c0-.86.68-1.56,1.53-1.56"/>
      <path class="st5" d="M522.41,850.34c0-.86-.74-1.56-1.66-1.56"/>
    </g>
    <g>
      <path class="st11" d="M548.04,803.18c0-7.12-6.14-12.9-13.72-12.9-5.58,0-11.1,3.65-13.01,8.79-.26.7-.79,2.18-.71,4.11.24,6.06,6.28,12.9,13.72,12.9,7.58,0,13.72-5.78,13.72-12.9Z"/>
      <path class="st5" d="M522.41,800.28c0-4.38,5.33-7.92,11.91-7.92"/>
      <path class="st5" d="M546.23,800.28c0-4.38-5.33-7.92-11.91-7.92"/>
      <path class="st5" d="M546.23,800.28c0,.86.68,1.56,1.53,1.56"/>
      <path class="st5" d="M522.41,800.28c0,.86-.74,1.56-1.66,1.56"/>
    </g>
    <rect class="st11" x="516.48" y="804.05" width="35.68" height="40.44" transform="translate(1358.59 289.95) rotate(90)"/>
  </g>
  <circle class="st1" cx="604.57" cy="741.09" r="13.02"/>
  <line class="st2" x1="498.11" y1="971.05" x2="532.98" y2="971.05"/>
  <g>
    <g>
      <g>
        <polyline class="st4" points="527.75 1003.05 506.56 1003.05 506.56 981.85 527.75 981.85 527.75 1003.05"/>
        <line class="st4" x1="511.68" y1="992.4" x2="503.16" y2="992.4"/>
      </g>
      <polyline class="st4" points="530.85 1008.22 500.06 1008.22 500.06 976.69 530.85 976.69 530.85 1008.22"/>
    </g>
    <g>
      <g>
        <line class="st7" x1="527.78" y1="956.21" x2="519.54" y2="956.21"/>
        <line class="st7" x1="512.18" y1="956.21" x2="503.94" y2="956.21"/>
        <line class="st7" x1="508.11" y1="952.4" x2="508.11" y2="960.13"/>
        <line class="st7" x1="523.61" y1="952.4" x2="523.61" y2="960.13"/>
      </g>
      <polyline class="st3" points="530.85 964.6 500.06 964.6 500.06 947.93 530.85 947.93 530.85 964.6"/>
    </g>
  </g>
  <path class="st10" d="M706.91,940.67h-18.5c-.41,0-.74-.21-.74-.47v-26.59c0-.32.33-.59.74-.59h18.5"/>
  <path class="st5" d="M704.21,925.79c-.55,0-1,.45-1,1s.45,1,1,1,1-.45,1-1-.45-1-1-1"/>
  <g>
    <path class="st5" d="M695.4,925.59c-.68,0-1.23.55-1.23,1.23s.55,1.23,1.23,1.23,1.23-.55,1.23-1.23-.55-1.23-1.23-1.23"/>
    <path class="st5" d="M695.4,925c-1,0-1.82.81-1.82,1.82s.81,1.82,1.82,1.82,1.82-.81,1.82-1.82-.81-1.82-1.82-1.82"/>
  </g>
  <path class="st6" d="M701,938.64h-10.82c-.41,0-.74-.23-.74-.52v-22.61c0-.29.33-.52.74-.52h10.82c.41,0,.74.23.74.52v22.61c0,.29-.33.52-.74.52Z"/>
  <rect class="st18" x="489.65" y="1011.85" width="79.68" height="8.5"/>
  <rect class="st18" x="613.24" y="1011.85" width="12.77" height="8.5"/>
  <rect class="st18" x="623.29" y="991.94" width="89.79" height="21.26"/>
  <rect class="st18" x="623.35" y="897.93" width="92.2" height="8.5"/>
  <rect class="st18" x="682.58" y="710.06" width="8.5" height="189.36"/>
  <rect class="st18" x="489.65" y="710.06" width="8.5" height="309.93"/>
  <rect class="st18" x="707.04" y="898.42" width="8.5" height="121.86"/>
  <rect class="st18" x="622.62" y="957.08" width="8.5" height="63.2"/>
  <rect class="st18" x="622.62" y="897.94" width="8.5" height="15.03"/>
  <rect class="st18" x="484.46" y="676.83" width="36.85" height="34.02"/>
  <rect class="st18" x="637.65" y="676.79" width="56.69" height="34.02"/>
  <path class="st9" d="M533.13,944.12l16.54-21.63s-7.42-4.51-16.54-4.55"/>
  <g>
    <path class="st6" d="M569.25,1012.03c0-11.6,4.79-22.95,13.11-31.27,8.07-8.07,19.42-12.86,31.01-12.86"/>
    <line class="st6" x1="611.61" y1="1012.03" x2="569.25" y2="1012.03"/>
    <polyline class="st6" points="613.38 967.91 613.38 1012.03 611.61 1012.03"/>
  </g>
  <g>
    <path class="st5" d="M627.11,957.05c11.6,0,22.94-4.79,31.27-13.11,8.07-8.07,12.86-19.41,12.86-31.01"/>
    <line class="st5" x1="627.11" y1="914.69" x2="627.11" y2="957.05"/>
    <polyline class="st5" points="671.23 912.93 627.11 912.93 627.11 914.69"/>
  </g>
  <g>
    <g>
      <g>
        <path class="st8" d="M578.01,686.19c0,14.25-5.89,28.19-16.11,38.41-9.91,9.91-23.85,15.8-38.1,15.8"/>
        <path class="st8" d="M578.01,686.19"/>
        <path class="st8" d="M523.8,686.19"/>
        <line class="st8" x1="523.8" y1="740.39" x2="523.8" y2="686.19"/>
      </g>
      <line class="st6" x1="551.14" y1="679.91" x2="579.28" y2="679.91"/>
      <line class="st6" x1="579.7" y1="679.91" x2="607.78" y2="679.91"/>
      <line class="st6" x1="608.2" y1="679.91" x2="636.46" y2="679.91"/>
      <line class="st6" x1="522.46" y1="679.91" x2="550.78" y2="679.91"/>
      <line class="st6" x1="523.78" y1="680.87" x2="549.52" y2="680.87"/>
      <line class="st6" x1="552.46" y1="680.87" x2="578.02" y2="680.87"/>
      <line class="st6" x1="609.46" y1="680.87" x2="635.2" y2="680.87"/>
      <line class="st6" x1="580.96" y1="680.87" x2="606.52" y2="680.87"/>
      <line class="st6" x1="635.2" y1="686.21" x2="609.46" y2="686.21"/>
      <line class="st6" x1="606.52" y1="686.21" x2="580.96" y2="686.21"/>
      <line class="st6" x1="578.02" y1="686.21" x2="552.46" y2="686.21"/>
      <line class="st6" x1="549.52" y1="686.21" x2="523.78" y2="686.21"/>
      <polyline class="st6" points="523.78 684.23 549.52 684.23 549.52 686.21 552.46 686.21 552.46 684.23 578.02 684.23 578.02 686.21 580.96 686.21 580.96 684.23 606.52 684.23 606.52 686.21 609.46 686.21 609.46 684.23 635.2 684.23 635.2 686.21 636.88 686.21 636.88 679.91 636.46 679.91 636.46 680.87 635.2 680.87 635.2 681.95 609.46 681.95 609.46 680.87 608.2 680.87 608.2 679.91 607.78 679.91 607.78 680.87 606.52 680.87 606.52 681.95 580.96 681.95 580.96 680.87 579.7 680.87 579.7 679.91 579.28 679.91 579.28 680.87 578.02 680.87 578.02 681.95 552.46 681.95 552.46 680.87 551.14 680.87 551.14 679.91 550.78 679.91 550.78 680.87 549.52 680.87 549.52 681.95 523.78 681.95 523.78 680.87 522.46 680.87 522.46 679.91 522.1 679.91 522.1 686.21 523.78 686.21 523.78 684.23"/>
      <line class="st6" x1="579.16" y1="681.95" x2="522.64" y2="681.95"/>
    </g>
    <line class="st5" x1="637.88" y1="676.95" x2="521.17" y2="676.95"/>
  </g>
  <rect class="st16" x="523.66" y="891.93" width="100.41" height="120.1"/>
</svg>