<?xml version="1.0" encoding="UTF-8"?>
<svg id="Start_tegning" xmlns="http://www.w3.org/2000/svg" version="1.1" viewBox="0 0 1200 1697.14">
  <!-- Generator: Adobe Illustrator 29.6.0, SVG Export Plug-In . SVG Version: 2.1.1 Build 207)  -->
  <defs>
    <style>
      .st0 {
        fill: #e2dedb;
      }

      .st1, .st2, .st3, .st4, .st5, .st6, .st7, .st8, .st9, .st10, .st11 {
        stroke: #363a3b;
      }

      .st1, .st4, .st12, .st13, .st14, .st11, .st15 {
        stroke-width: .28px;
      }

      .st1, .st8 {
        stroke-miterlimit: 10;
      }

      .st1, .st16, .st10, .st11 {
        fill: #fff;
      }

      .st2 {
        stroke-width: .3px;
      }

      .st2, .st3, .st4, .st5, .st6, .st7, .st12, .st8, .st9, .st13, .st17, .st14, .st15 {
        fill: none;
      }

      .st2, .st3, .st4, .st5, .st6, .st7, .st12, .st9, .st13, .st17, .st14, .st10, .st11, .st15 {
        stroke-linecap: round;
        stroke-linejoin: round;
      }

      .st3 {
        stroke-width: .28px;
      }

      .st5, .st10 {
        stroke-width: .28px;
      }

      .st6 {
        stroke-width: .29px;
      }

      .st18 {
        fill: #ece8e5;
      }

      .st7 {
        stroke-dasharray: .06 .42;
        stroke-width: .18px;
      }

      .st12, .st13, .st17, .st14 {
        stroke: #000;
      }

      .st8 {
        stroke-width: .29px;
      }

      .st9, .st17 {
        stroke-dasharray: .06 .43;
        stroke-width: .18px;
      }

      .st13 {
        stroke-dasharray: .09 .69;
      }

      .st14 {
        stroke-dasharray: .09 .68;
      }

      .st19 {
        fill: #302c35;
      }

      .st15 {
        stroke: #00001d;
      }
    </style>
  </defs>
  <polygon class="st18" points="740.23 727.85 427.76 728.21 427.76 879.37 427.76 978.63 782.26 978.63 782.26 881.92 740.23 881.92 740.23 727.85"/>
  <rect class="st16" x="449.48" y="935.68" width="123.05" height="35.27" transform="translate(1022 1906.64) rotate(-180)"/>
  <rect class="st17" x="434.65" y="842.49" width="134.15" height="93.33"/>
  <g>
    <polygon class="st8" points="517.52 970.07 480.18 970.05 449.48 970.08 449.48 935.82 517.52 935.82 517.52 970.07"/>
    <g>
      <g>
        <polyline class="st3" points="477.61 940.65 477.61 961.85 456.41 961.85 456.41 940.65 477.61 940.65"/>
        <line class="st3" x1="466.95" y1="956.72" x2="466.95" y2="965.24"/>
      </g>
      <polyline class="st3" points="482.77 937.55 482.77 968.35 451.24 968.35 451.24 937.55 482.77 937.55"/>
    </g>
    <g>
      <g>
        <line class="st6" x1="507.31" y1="940.62" x2="507.31" y2="948.86"/>
        <line class="st6" x1="507.31" y1="956.22" x2="507.31" y2="964.46"/>
        <line class="st6" x1="503.5" y1="960.29" x2="511.23" y2="960.29"/>
        <line class="st6" x1="503.5" y1="944.8" x2="511.23" y2="944.8"/>
      </g>
      <polyline class="st2" points="515.7 937.55 515.7 968.35 499.03 968.35 499.03 937.55 515.7 937.55"/>
    </g>
  </g>
  <rect class="st19" x="776.85" y="874.19" width="8.5" height="104.45"/>
  <rect class="st19" x="426.14" y="751.77" width="8.5" height="226.86"/>
  <rect class="st19" x="735.98" y="751.77" width="8.5" height="131.71"/>
  <rect class="st19" x="718.56" y="718.51" width="35.29" height="34.02"/>
  <rect class="st19" x="562.51" y="718.51" width="39.69" height="34.02"/>
  <rect class="st19" x="414.64" y="718.51" width="31.77" height="34.02"/>
  <rect class="st19" x="434.65" y="935.68" width="14.83" height="42.95"/>
  <rect class="st19" x="683" y="880.5" width="102.35" height="8.5"/>
  <rect class="st19" x="740.23" y="873.42" width="45.13" height="8.5"/>
  <rect class="st19" x="685.08" y="965.88" width="100.27" height="8.5"/>
  <rect class="st19" x="435.82" y="970.13" width="193.93" height="8.5"/>
  <rect class="st19" x="684.02" y="958.16" width="8.5" height="20.47"/>
  <rect class="st19" x="673.45" y="970.13" width="111.9" height="8.5"/>
  <rect class="st19" x="683" y="883.67" width="8.5" height="30.24"/>
  <rect class="st0" x="434.83" y="842.63" width="133.84" height="92.88"/>
  <g>
    <g>
      <path class="st11" d="M526.05,816.01c7.12,0,12.9-6.14,12.9-13.72,0-5.58-3.65-11.1-8.79-13.01-.7-.26-2.18-.79-4.11-.71-6.06.24-12.9,6.28-12.9,13.72s5.78,13.72,12.9,13.72Z"/>
      <path class="st4" d="M528.95,790.38c4.38,0,7.92,5.33,7.92,11.91"/>
      <path class="st4" d="M528.95,814.2c4.38,0,7.92-5.33,7.92-11.91"/>
      <path class="st4" d="M528.95,814.2c-.86,0-1.56.68-1.56,1.53"/>
      <path class="st4" d="M528.95,790.38c-.86,0-1.56-.74-1.56-1.66"/>
    </g>
    <g>
      <path class="st11" d="M481.78,816.01c-7.12,0-12.9-6.14-12.9-13.72,0-5.58,3.65-11.1,8.79-13.01.7-.26,2.18-.79,4.11-.71,6.06.24,12.9,6.28,12.9,13.72s-5.78,13.72-12.9,13.72Z"/>
      <path class="st4" d="M478.89,790.38c-4.38,0-7.92,5.33-7.92,11.91"/>
      <path class="st4" d="M478.89,814.2c-4.38,0-7.92-5.33-7.92-11.91"/>
      <path class="st4" d="M478.89,814.2c.86,0,1.56.68,1.56,1.53"/>
      <path class="st4" d="M478.89,790.38c.86,0,1.56-.74,1.56-1.66"/>
    </g>
    <rect class="st11" x="485.03" y="782.07" width="35.68" height="40.44"/>
  </g>
  <g>
    <line class="st4" x1="437.89" y1="818.04" x2="437.89" y2="837.3"/>
    <line class="st4" x1="439.27" y1="837.3" x2="439.27" y2="818.04"/>
    <polyline class="st4" points="437.89 837.3 437.89 840.18 439.27 840.18 439.27 837.3 437.89 837.3"/>
    <polyline class="st4" points="437.89 815.22 437.89 818.04 439.27 818.04 439.27 815.22 437.89 815.22"/>
    <line class="st4" x1="434.83" y1="817.02" x2="437.65" y2="817.02"/>
    <line class="st4" x1="434.83" y1="838.19" x2="437.65" y2="838.19"/>
  </g>
  <g>
    <path class="st4" d="M673.71,926.12c-11.6,0-22.95,4.79-31.27,13.11-8.07,8.07-12.86,19.42-12.86,31.01"/>
    <line class="st4" x1="673.71" y1="968.48" x2="673.71" y2="926.12"/>
    <polyline class="st4" points="629.58 970.24 673.71 970.24 673.71 968.48"/>
  </g>
  <path class="st1" d="M776.85,960.58h-16.09c-6.19,0-11.2-4.45-11.2-9.95s5.01-9.95,11.2-9.95h16.09s0,19.9,0,19.9Z"/>
  <g>
    <path class="st10" d="M722.1,889.2v18.5c0,.41-.21.74-.47.74h-26.59c-.32,0-.59-.33-.59-.74v-18.5"/>
    <path class="st4" d="M707.23,891.89c0,.55.45,1,1,1s1-.45,1-1-.45-1-1-1-1,.45-1,1"/>
    <g>
      <path class="st4" d="M707.02,900.7c0,.68.55,1.23,1.23,1.23s1.23-.55,1.23-1.23-.55-1.23-1.23-1.23-1.23.55-1.23,1.23"/>
      <path class="st4" d="M706.44,900.7c0,1,.81,1.82,1.82,1.82s1.82-.81,1.82-1.82-.81-1.82-1.82-1.82-1.82.81-1.82,1.82"/>
    </g>
    <path class="st5" d="M720.07,895.11v10.82c0,.41-.23.74-.52.74h-22.61c-.29,0-.52-.33-.52-.74v-10.82c0-.41.23-.74.52-.74h22.61c.29,0,.52.33.52.74Z"/>
  </g>
  <g>
    <path class="st4" d="M731.66,958.16c0-11.6-4.79-22.95-13.11-31.27-8.07-8.07-19.42-12.86-31.01-12.86"/>
    <line class="st4" x1="689.3" y1="958.16" x2="731.66" y2="958.16"/>
    <polyline class="st4" points="687.53 914.04 687.53 958.16 689.3 958.16"/>
  </g>
  <g>
    <g>
      <path class="st11" d="M630.71,755.55c5.98,8.02,11.96,16.04,17.94,24.06.17.41,0,.92-.42,1.23-8.62,8.41-18.45,15.55-29.1,21.14-.18.1-.38.07-.5-.06-.56-.75-1.12-1.49-1.68-2.24l-16.23-21.6,29.98-22.53"/>
      <path class="st11" d="M629.16,753.99c.65.68,1.21,1.41,1.69,2.22.09.16.02.38-.15.5-9.42,7.43-18.97,14.69-28.65,21.78-.26.15-.58.11-.74-.09-.69-.77-1.28-1.59-1.8-2.48"/>
      <path class="st11" d="M631.66,759.34c.58-.44.02-2.18-1.27-3.89-.11-.13-.21-.27-.32-.4l-.91-1.06c-.13-.13-.35-.13-.52,0l-29.19,21.93,1.87,2.48c.62.8,1.25,1.6,1.87,2.4.35.27.89.25,1.29-.06,10.16-5.59,19.38-12.86,27.18-21.41Z"/>
      <path class="st11" d="M630.67,757.65c.12.43.26.85.43,1.26.12.52.26,1.03.43,1.52.23.68.46,1.36.69,2.04.31.94.7,1.84,1.17,2.7.29.53.6,1.04.92,1.55.35.54.7,1.07,1.05,1.6.84,1.26,1.75,2.47,2.73,3.64.99,1.17,2.06,2.25,3.24,3.25.88.75,1.83,1.41,2.86,1.98.65.36,1.31.51,2.11.48.07,0,.12-.02.18-.07l.53-.4c.11-.16.13-.3.1-.47-5.8-7.72-11.6-15.44-17.4-23.16-.1-.14-.32-.15-.48-.03l-.16.12h0c-.16.12-.21.33-.12.48.2.35.39.71.59,1.06.29.45.54.91.76,1.41l.37,1.03Z"/>
      <path class="st11" d="M602.58,778.76c.38.23.74.49,1.09.77.47.26.91.53,1.34.84.59.41,1.18.82,1.77,1.23.82.56,1.57,1.18,2.27,1.88.43.43.84.86,1.23,1.32.42.48.83.97,1.25,1.45.98,1.16,1.89,2.37,2.73,3.64.85,1.28,1.59,2.61,2.22,4.02.48,1.06.84,2.15,1.11,3.3.17.73.13,1.4-.13,2.16-.02.06-.06.11-.11.15l-.53.4c-.18.06-.32.05-.48-.03-5.8-7.72-11.6-15.44-17.4-23.16-.1-.14-.06-.35.1-.47l.16-.12h0c.16-.12.37-.11.49.02.28.29.57.57.85.86.35.41.73.78,1.14,1.12l.89.65Z"/>
    </g>
    <circle class="st1" cx="651.64" cy="820.43" r="13.02"/>
  </g>
  <g>
    <g>
      <line class="st4" x1="544.89" y1="969.71" x2="544.89" y2="935.86"/>
      <path class="st4" d="M545.63,935.86"/>
      <line class="st4" x1="544.89" y1="935.86" x2="572.53" y2="935.86"/>
      <path class="st15" d="M572.9,935.86"/>
      <line class="st4" x1="572.53" y1="969.71" x2="572.53" y2="935.86"/>
    </g>
    <path class="st9" d="M572.42,935.68l-22.4-16.54s-4.67,7.42-4.71,16.54"/>
  </g>
  <g>
    <g>
      <line class="st4" x1="545.15" y1="969.71" x2="545.15" y2="935.86"/>
      <path class="st4" d="M544.41,935.86"/>
      <line class="st4" x1="545.15" y1="935.86" x2="517.51" y2="935.86"/>
      <path class="st15" d="M517.14,935.86"/>
      <line class="st4" x1="517.51" y1="969.71" x2="517.51" y2="935.86"/>
    </g>
    <path class="st9" d="M517.62,935.68l22.4-16.54s4.67,7.42,4.71,16.54"/>
  </g>
  <g>
    <rect class="st11" x="651.41" y="791.47" width="113.09" height="50.38" transform="translate(1524.62 108.7) rotate(90)"/>
    <rect class="st11" x="694.24" y="832.16" width="27.44" height="27.44" rx="1.42" ry="1.42"/>
    <polygon class="st11" points="733.79 858.41 733.79 759.82 682.77 759.82 682.77 832.91 733.79 858.41"/>
  </g>
  <g>
    <g>
      <path class="st7" d="M630.34,728.03c-.83,5.28-3.43,9.74-7.4,13.81-4.73,4.86-11.38,7.75-18.18,7.75"/>
      <line class="st7" x1="604.76" y1="749.59" x2="604.76" y2="727.88"/>
    </g>
    <g>
      <path class="st9" d="M690.44,727.91c.84,5.28,3.45,9.74,7.42,13.81,4.75,4.86,11.43,7.75,18.25,7.75"/>
      <line class="st9" x1="716.12" y1="749.47" x2="716.12" y2="727.41"/>
    </g>
    <line class="st4" x1="716.12" y1="725.42" x2="716.12" y2="727.88"/>
    <polyline class="st4" points="661.94 725.96 687.5 725.96 687.5 723.68 661.94 723.68 661.94 725.96"/>
    <polyline class="st4" points="633.44 725.96 659 725.96 659 723.68 633.44 723.68 633.44 725.96"/>
    <polyline class="st4" points="690.44 725.96 716.12 725.96 716.12 723.68 690.44 723.68 690.44 725.96"/>
    <polyline class="st4" points="604.76 725.96 630.44 725.96 630.44 723.68 604.76 723.68 604.76 725.96"/>
    <line class="st4" x1="689.18" y1="721.64" x2="717.44" y2="721.64"/>
    <line class="st4" x1="603.44" y1="721.64" x2="631.76" y2="721.64"/>
    <line class="st4" x1="632.12" y1="721.64" x2="660.26" y2="721.64"/>
    <line class="st4" x1="660.62" y1="721.64" x2="688.76" y2="721.64"/>
    <line class="st4" x1="690.44" y1="722.54" x2="716.12" y2="722.54"/>
    <line class="st4" x1="661.94" y1="722.54" x2="687.5" y2="722.54"/>
    <line class="st4" x1="633.44" y1="722.54" x2="659" y2="722.54"/>
    <line class="st4" x1="604.76" y1="722.54" x2="630.44" y2="722.54"/>
    <polyline class="st4" points="603.44 721.64 603.02 721.64 603.02 727.94 604.76 727.94 604.76 722.54 603.44 722.54 603.44 721.64"/>
    <polyline class="st4" points="660.62 721.64 660.26 721.64 660.26 722.54 659 722.54 659 727.94 661.94 727.94 661.94 722.54 660.62 722.54 660.62 721.64"/>
    <polyline class="st4" points="632.12 721.64 631.76 721.64 631.76 722.54 630.44 722.54 630.44 727.94 633.44 727.94 633.44 722.54 632.12 722.54 632.12 721.64"/>
    <polyline class="st4" points="717.86 721.64 717.44 721.64 717.44 722.54 716.12 722.54 716.12 727.94 717.86 727.94 717.86 721.64"/>
    <polyline class="st4" points="689.18 721.64 688.76 721.64 688.76 722.54 687.5 722.54 687.5 727.94 690.44 727.94 690.44 722.54 689.18 722.54 689.18 721.64"/>
    <line class="st4" x1="716.12" y1="727.94" x2="690.44" y2="727.94"/>
    <line class="st4" x1="687.5" y1="727.94" x2="661.94" y2="727.94"/>
    <line class="st4" x1="659" y1="727.94" x2="633.44" y2="727.94"/>
    <line class="st4" x1="630.44" y1="727.94" x2="604.76" y2="727.94"/>
    <line class="st4" x1="629.36" y1="723.68" x2="605.9" y2="723.68"/>
    <line class="st4" x1="715.04" y1="723.68" x2="691.58" y2="723.68"/>
    <line class="st4" x1="602.36" y1="718.64" x2="718.58" y2="718.64"/>
  </g>
  <g>
    <g>
      <path class="st7" d="M474.33,728.03c-.83,5.28-3.43,9.74-7.4,13.81-4.73,4.86-11.38,7.75-18.18,7.75"/>
      <line class="st7" x1="448.75" y1="749.59" x2="448.75" y2="727.88"/>
    </g>
    <g>
      <path class="st9" d="M534.43,727.91c.84,5.28,3.45,9.74,7.42,13.81,4.75,4.86,11.43,7.75,18.25,7.75"/>
      <line class="st9" x1="560.11" y1="749.47" x2="560.11" y2="727.41"/>
    </g>
    <line class="st4" x1="560.11" y1="725.42" x2="560.11" y2="727.88"/>
    <polyline class="st4" points="505.93 725.96 531.49 725.96 531.49 723.68 505.93 723.68 505.93 725.96"/>
    <polyline class="st4" points="477.43 725.96 502.99 725.96 502.99 723.68 477.43 723.68 477.43 725.96"/>
    <polyline class="st4" points="534.43 725.96 560.11 725.96 560.11 723.68 534.43 723.68 534.43 725.96"/>
    <polyline class="st4" points="448.75 725.96 474.43 725.96 474.43 723.68 448.75 723.68 448.75 725.96"/>
    <line class="st4" x1="533.17" y1="721.64" x2="561.43" y2="721.64"/>
    <line class="st4" x1="447.43" y1="721.64" x2="475.75" y2="721.64"/>
    <line class="st4" x1="476.11" y1="721.64" x2="504.25" y2="721.64"/>
    <line class="st4" x1="504.61" y1="721.64" x2="532.75" y2="721.64"/>
    <line class="st4" x1="534.43" y1="722.54" x2="560.11" y2="722.54"/>
    <line class="st4" x1="505.93" y1="722.54" x2="531.49" y2="722.54"/>
    <line class="st4" x1="477.43" y1="722.54" x2="502.99" y2="722.54"/>
    <line class="st4" x1="448.75" y1="722.54" x2="474.43" y2="722.54"/>
    <polyline class="st4" points="447.43 721.64 447.01 721.64 447.01 727.94 448.75 727.94 448.75 722.54 447.43 722.54 447.43 721.64"/>
    <polyline class="st4" points="504.61 721.64 504.25 721.64 504.25 722.54 502.99 722.54 502.99 727.94 505.93 727.94 505.93 722.54 504.61 722.54 504.61 721.64"/>
    <polyline class="st4" points="476.11 721.64 475.75 721.64 475.75 722.54 474.43 722.54 474.43 727.94 477.43 727.94 477.43 722.54 476.11 722.54 476.11 721.64"/>
    <polyline class="st4" points="561.85 721.64 561.43 721.64 561.43 722.54 560.11 722.54 560.11 727.94 561.85 727.94 561.85 721.64"/>
    <polyline class="st4" points="533.17 721.64 532.75 721.64 532.75 722.54 531.49 722.54 531.49 727.94 534.43 727.94 534.43 722.54 533.17 722.54 533.17 721.64"/>
    <line class="st4" x1="560.11" y1="727.94" x2="534.43" y2="727.94"/>
    <line class="st4" x1="531.49" y1="727.94" x2="505.93" y2="727.94"/>
    <line class="st4" x1="502.99" y1="727.94" x2="477.43" y2="727.94"/>
    <line class="st4" x1="474.43" y1="727.94" x2="448.75" y2="727.94"/>
    <line class="st4" x1="473.35" y1="723.68" x2="449.89" y2="723.68"/>
    <line class="st4" x1="559.03" y1="723.68" x2="535.57" y2="723.68"/>
    <line class="st4" x1="446.35" y1="718.64" x2="562.57" y2="718.64"/>
  </g>
  <g>
    <g>
      <polyline class="st12" points="731.93 933.2 731.93 933.25 731.98 933.25"/>
      <line class="st13" x1="732.67" y1="933.25" x2="776.19" y2="933.25"/>
      <polyline class="st12" points="776.53 933.25 776.58 933.25 776.58 933.2"/>
      <line class="st14" x1="776.58" y1="932.52" x2="776.58" y2="889.5"/>
      <polyline class="st12" points="776.58 889.16 776.58 889.12 776.53 889.12"/>
      <line class="st13" x1="775.84" y1="889.12" x2="732.32" y2="889.12"/>
      <polyline class="st12" points="731.98 889.12 731.93 889.12 731.93 889.16"/>
      <line class="st14" x1="731.93" y1="889.85" x2="731.93" y2="932.86"/>
    </g>
    <g>
      <line class="st4" x1="774.62" y1="910.76" x2="762.32" y2="910.76"/>
      <path class="st11" d="M762.38,913.46c1.52,0,2.75-1.23,2.75-2.75s-1.23-2.75-2.75-2.75-2.75,1.23-2.75,2.75,1.23,2.75,2.75,2.75"/>
    </g>
  </g>
</svg>