<?xml version="1.0" encoding="UTF-8"?>
<svg id="Vinduer_i_facade" xmlns="http://www.w3.org/2000/svg" version="1.1" viewBox="0 0 1200 1697.14">
  <!-- Generator: Adobe Illustrator 29.6.0, SVG Export Plug-In . SVG Version: 2.1.1 Build 207)  -->
  <defs>
    <style>
      .st0 {
        fill: #e2dedb;
      }

      .st1, .st2, .st3, .st4, .st5, .st6, .st7, .st8, .st9, .st10, .st11 {
        stroke: #363a3b;
      }

      .st1, .st4, .st12, .st13, .st14, .st11 {
        stroke-width: .28px;
      }

      .st1, .st8 {
        stroke-miterlimit: 10;
      }

      .st1, .st15, .st10, .st11 {
        fill: #fff;
      }

      .st2 {
        stroke-width: .3px;
      }

      .st2, .st3, .st4, .st5, .st6, .st7, .st12, .st8, .st9, .st13, .st16, .st14 {
        fill: none;
      }

      .st2, .st3, .st4, .st5, .st6, .st7, .st12, .st9, .st13, .st16, .st14, .st10, .st11 {
        stroke-linecap: round;
        stroke-linejoin: round;
      }

      .st3 {
        stroke-width: .28px;
      }

      .st5, .st10 {
        stroke-width: .28px;
      }

      .st6 {
        stroke-width: .29px;
      }

      .st17 {
        fill: #ece8e5;
      }

      .st7 {
        stroke-dasharray: .07 .52;
        stroke-width: .18px;
      }

      .st12, .st13, .st16, .st14 {
        stroke: #000;
      }

      .st8 {
        stroke-width: .29px;
      }

      .st9, .st16 {
        stroke-dasharray: .06 .43;
        stroke-width: .18px;
      }

      .st13 {
        stroke-dasharray: .09 .69;
      }

      .st14 {
        stroke-dasharray: .09 .68;
      }

      .st18 {
        fill: #302c35;
      }
    </style>
  </defs>
  <polyline class="st17" points="466.82 805.8 466.82 889.66 513.31 889.66 513.31 1024.35 645.87 1024.35 645.87 899.32 732.93 899.32 732.93 690.11 509.76 689.33 509.06 805.8 474.34 805.8"/>
  <rect class="st15" x="500.16" y="964.44" width="68.19" height="34.91" transform="translate(-447.65 1516.15) rotate(-90)"/>
  <g>
    <line class="st4" x1="665.13" y1="891.74" x2="645.87" y2="891.74"/>
    <line class="st4" x1="645.87" y1="890.36" x2="665.13" y2="890.36"/>
    <polyline class="st4" points="645.87 891.74 642.99 891.74 642.99 890.36 645.87 890.36 645.87 891.74"/>
    <polyline class="st4" points="667.95 891.74 665.13 891.74 665.13 890.36 667.95 890.36 667.95 891.74"/>
    <line class="st4" x1="666.15" y1="894.8" x2="666.15" y2="891.98"/>
    <line class="st4" x1="644.98" y1="894.8" x2="644.98" y2="891.98"/>
  </g>
  <polygon class="st0" points="557.85 1016.02 641.31 1016.02 641.31 867.89 568.36 867.89 568.54 893.99 557.85 893.99 557.85 1016.02"/>
  <g>
    <rect class="st11" x="643" y="749.68" width="113.09" height="50.38" transform="translate(-75.33 1474.42) rotate(-90)"/>
    <rect class="st11" x="685.55" y="730.62" width="27.99" height="28.27" rx="1.42" ry="1.42"/>
    <polygon class="st11" points="725.38 733.12 725.38 831.71 674.35 831.71 674.35 758.62 725.38 733.12"/>
  </g>
  <g>
    <g>
      <path class="st11" d="M584.24,749.47c7.12,0,12.9,6.14,12.9,13.72,0,5.58-3.65,11.1-8.79,13.01-.7.26-2.18.79-4.11.71-6.06-.24-12.9-6.28-12.9-13.72,0-7.58,5.78-13.72,12.9-13.72Z"/>
      <path class="st4" d="M587.14,775.1c4.38,0,7.92-5.33,7.92-11.91"/>
      <path class="st4" d="M587.14,751.28c4.38,0,7.92,5.33,7.92,11.91"/>
      <path class="st4" d="M587.14,751.28c-.86,0-1.56-.68-1.56-1.53"/>
      <path class="st4" d="M587.14,775.1c-.86,0-1.56.74-1.56,1.66"/>
    </g>
    <g>
      <path class="st11" d="M539.97,749.47c-7.12,0-12.9,6.14-12.9,13.72,0,5.58,3.65,11.1,8.79,13.01.7.26,2.18.79,4.11.71,6.06-.24,12.9-6.28,12.9-13.72,0-7.58-5.78-13.72-12.9-13.72Z"/>
      <path class="st4" d="M537.08,775.1c-4.38,0-7.92-5.33-7.92-11.91"/>
      <path class="st4" d="M537.08,751.28c-4.38,0-7.92,5.33-7.92,11.91"/>
      <path class="st4" d="M537.08,751.28c.86,0,1.56-.68,1.56-1.53"/>
      <path class="st4" d="M537.08,775.1c.86,0,1.56.74,1.56,1.66"/>
    </g>
    <rect class="st11" x="543.22" y="742.97" width="35.68" height="40.44"/>
  </g>
  <circle class="st1" cx="651.27" cy="719.8" r="13.02"/>
  <path class="st1" d="M475.32,878.17h16.09c6.19,0,11.2-4.45,11.2-9.95s-5.01-9.95-11.2-9.95h-16.09s0,19.9,0,19.9Z"/>
  <g>
    <g>
      <polyline class="st12" points="519.97 809.03 519.97 808.99 519.92 808.99"/>
      <line class="st13" x1="519.23" y1="808.99" x2="475.71" y2="808.99"/>
      <polyline class="st12" points="475.36 808.99 475.32 808.99 475.32 809.03"/>
      <line class="st14" x1="475.32" y1="809.71" x2="475.32" y2="852.73"/>
      <polyline class="st12" points="475.32 853.07 475.32 853.12 475.36 853.12"/>
      <line class="st13" x1="476.06" y1="853.12" x2="519.58" y2="853.12"/>
      <polyline class="st12" points="519.92 853.12 519.97 853.12 519.97 853.07"/>
      <line class="st14" x1="519.97" y1="852.39" x2="519.97" y2="809.37"/>
    </g>
    <g>
      <line class="st4" x1="475.58" y1="831.64" x2="487.88" y2="831.64"/>
      <path class="st11" d="M487.82,828.95c-1.52,0-2.75,1.23-2.75,2.75s1.23,2.75,2.75,2.75,2.75-1.23,2.75-2.75-1.23-2.75-2.75-2.75"/>
    </g>
  </g>
  <g>
    <path class="st10" d="M554.58,808.99v18.5c0,.41-.21.74-.47.74h-26.59c-.32,0-.59-.33-.59-.74v-18.5"/>
    <path class="st4" d="M539.7,811.68c0,.55.45,1,1,1s1-.45,1-1-.45-1-1-1-1,.45-1,1"/>
    <g>
      <path class="st4" d="M539.5,820.49c0,.68.55,1.23,1.23,1.23s1.23-.55,1.23-1.23-.55-1.23-1.23-1.23-1.23.55-1.23,1.23"/>
      <path class="st4" d="M538.91,820.49c0,1,.81,1.82,1.82,1.82s1.82-.81,1.82-1.82-.81-1.82-1.82-1.82-1.82.81-1.82,1.82"/>
    </g>
    <path class="st5" d="M552.55,814.9v10.82c0,.41-.23.74-.52.74h-22.61c-.29,0-.52-.33-.52-.74v-10.82c0-.41.23-.74.52-.74h22.61c.29,0,.52.33.52.74Z"/>
  </g>
  <polygon class="st8" points="516.8 947.81 516.83 985.14 516.8 1015.85 551.84 1015.85 551.84 947.81 516.8 947.81"/>
  <g>
    <g>
      <polyline class="st3" points="546.9 954.68 525.22 954.68 525.22 975.87 546.9 975.87 546.9 954.68"/>
      <line class="st3" x1="530.46" y1="965.33" x2="521.74" y2="965.33"/>
    </g>
    <polyline class="st3" points="550.07 949.51 518.57 949.51 518.57 981.04 550.07 981.04 550.07 949.51"/>
  </g>
  <g>
    <g>
      <line class="st6" x1="546.93" y1="1005.87" x2="538.5" y2="1005.87"/>
      <line class="st6" x1="530.97" y1="1005.87" x2="522.54" y2="1005.87"/>
      <line class="st6" x1="526.81" y1="1009.68" x2="526.81" y2="1001.95"/>
      <line class="st6" x1="542.65" y1="1009.68" x2="542.65" y2="1001.95"/>
    </g>
    <polyline class="st2" points="550.07 997.49 518.57 997.48 518.57 1014.15 550.07 1014.15 550.07 997.49"/>
  </g>
  <rect class="st18" x="631.32" y="1015.85" width="18.29" height="8.5"/>
  <rect class="st18" x="508.28" y="1015.85" width="79.17" height="8.5"/>
  <rect class="st18" x="466.82" y="800.48" width="103.15" height="8.5"/>
  <rect class="st18" x="641.31" y="894.99" width="95.87" height="8.5"/>
  <rect class="st18" x="466.82" y="885.41" width="103.15" height="8.5"/>
  <rect class="st18" x="561.54" y="800.57" width="8.5" height="31.94"/>
  <rect class="st18" x="454.06" y="800.48" width="21.26" height="93.43"/>
  <rect class="st18" x="561.54" y="876.64" width="8.5" height="17.2"/>
  <rect class="st18" x="728.68" y="713.74" width="8.5" height="189.75"/>
  <rect class="st18" x="641.31" y="895.25" width="8.5" height="129.11"/>
  <rect class="st18" x="508.28" y="885.47" width="8.5" height="138.88"/>
  <rect class="st18" x="503.49" y="713.74" width="8.5" height="94.75"/>
  <rect class="st18" x="503.49" y="680.67" width="88.97" height="34.02"/>
  <rect class="st18" x="503.49" y="672.79" width="34.35" height="34.02"/>
  <rect class="st18" x="709.09" y="680.67" width="36.85" height="34.02"/>
  <g>
    <rect class="st10" x="516.65" y="893.9" width="35.16" height="26.93" transform="translate(1068.46 1814.71) rotate(180)"/>
    <rect class="st10" x="516.65" y="920.88" width="35.16" height="26.93" transform="translate(1068.46 1868.68) rotate(180)"/>
    <polyline class="st5" points="516.65 893.95 551.8 893.95 551.8 920.83"/>
    <path class="st9" d="M551.84,894.09l16.54,21.07s-7.42,4.39-16.54,4.43"/>
    <path class="st9" d="M551.84,922.29c9.13.04,16.54,4.43,16.54,4.43l-16.54,21.07"/>
  </g>
  <g>
    <path class="st5" d="M631.44,971.86c-11.6,0-22.95,4.79-31.27,13.11-8.07,8.07-12.86,19.42-12.86,31.01"/>
    <line class="st5" x1="631.44" y1="1014.22" x2="631.44" y2="971.86"/>
    <polyline class="st5" points="587.32 1015.98 631.44 1015.98 631.44 1014.22"/>
  </g>
  <g>
    <path class="st5" d="M521.92,876.64c0-11.6,4.79-22.94,13.11-31.27,8.07-8.07,19.41-12.86,31.01-12.86"/>
    <line class="st5" x1="564.28" y1="876.64" x2="521.92" y2="876.64"/>
    <polyline class="st5" points="566.05 832.52 566.05 876.64 564.28 876.64"/>
  </g>
  <g>
    <g>
      <g>
        <path class="st7" d="M649.3,689.9c0,14.25-5.89,28.19-16.11,38.41-9.91,9.91-23.85,15.8-38.1,15.8"/>
        <path class="st7" d="M649.3,689.9"/>
        <path class="st7" d="M595.09,689.9"/>
        <line class="st7" x1="595.09" y1="744.1" x2="595.09" y2="689.9"/>
      </g>
      <line class="st5" x1="622.43" y1="683.62" x2="650.57" y2="683.62"/>
      <line class="st5" x1="650.99" y1="683.62" x2="679.07" y2="683.62"/>
      <line class="st5" x1="679.49" y1="683.62" x2="707.75" y2="683.62"/>
      <line class="st5" x1="593.75" y1="683.62" x2="622.07" y2="683.62"/>
      <line class="st5" x1="595.07" y1="684.58" x2="620.81" y2="684.58"/>
      <line class="st5" x1="623.75" y1="684.58" x2="649.31" y2="684.58"/>
      <line class="st5" x1="680.75" y1="684.58" x2="706.49" y2="684.58"/>
      <line class="st5" x1="652.25" y1="684.58" x2="677.81" y2="684.58"/>
      <line class="st5" x1="706.49" y1="689.92" x2="680.75" y2="689.92"/>
      <line class="st5" x1="677.81" y1="689.92" x2="652.25" y2="689.92"/>
      <line class="st5" x1="649.31" y1="689.92" x2="623.75" y2="689.92"/>
      <line class="st5" x1="620.81" y1="689.92" x2="595.07" y2="689.92"/>
      <polyline class="st5" points="595.07 687.94 620.81 687.94 620.81 689.92 623.75 689.92 623.75 687.94 649.31 687.94 649.31 689.92 652.25 689.92 652.25 687.94 677.81 687.94 677.81 689.92 680.75 689.92 680.75 687.94 706.49 687.94 706.49 689.92 708.17 689.92 708.17 683.62 707.75 683.62 707.75 684.58 706.49 684.58 706.49 685.66 680.75 685.66 680.75 684.58 679.49 684.58 679.49 683.62 679.07 683.62 679.07 684.58 677.81 684.58 677.81 685.66 652.25 685.66 652.25 684.58 650.99 684.58 650.99 683.62 650.57 683.62 650.57 684.58 649.31 684.58 649.31 685.66 623.75 685.66 623.75 684.58 622.43 684.58 622.43 683.62 622.07 683.62 622.07 684.58 620.81 684.58 620.81 685.66 595.07 685.66 595.07 684.58 593.75 684.58 593.75 683.62 593.39 683.62 593.39 689.92 595.07 689.92 595.07 687.94"/>
      <line class="st5" x1="650.45" y1="685.66" x2="593.93" y2="685.66"/>
    </g>
    <line class="st4" x1="708.68" y1="680.67" x2="592.46" y2="680.67"/>
  </g>
  <polygon class="st16" points="557.85 1016.02 641.31 1016.02 641.31 867.89 568.36 867.89 568.38 891.78 557.85 890.27 557.85 1016.02"/>
</svg>