<?xml version="1.0" encoding="UTF-8"?>
<svg id="Vinduer_i_facade" xmlns="http://www.w3.org/2000/svg" version="1.1" viewBox="0 0 1200 1697.14">
  <!-- Generator: Adobe Illustrator 29.6.0, SVG Export Plug-In . SVG Version: 2.1.1 Build 207)  -->
  <defs>
    <style>
      .st0 {
        fill: #e2dedb;
      }

      .st1 {
        stroke-miterlimit: 10;
      }

      .st1, .st2, .st3, .st4, .st5, .st6, .st7, .st8, .st9, .st10, .st11, .st12, .st13 {
        stroke: #363a3b;
      }

      .st1, .st6, .st14, .st15, .st16, .st12 {
        stroke-width: .28px;
      }

      .st1, .st17, .st11, .st12, .st13 {
        fill: #fff;
      }

      .st2 {
        stroke-width: .29px;
      }

      .st2, .st3, .st4, .st5, .st6, .st7, .st8, .st14, .st9, .st10, .st15, .st18, .st16 {
        fill: none;
      }

      .st2, .st3, .st4, .st5, .st6, .st7, .st8, .st14, .st9, .st10, .st15, .st18, .st16, .st11, .st12, .st13 {
        stroke-linecap: round;
        stroke-linejoin: round;
      }

      .st3 {
        stroke-width: .3px;
      }

      .st4 {
        stroke-width: .3px;
      }

      .st5 {
        stroke-width: .28px;
      }

      .st7, .st11 {
        stroke-width: .28px;
      }

      .st8 {
        stroke-width: .29px;
      }

      .st19 {
        fill: #ece8e5;
      }

      .st14, .st15, .st18, .st16 {
        stroke: #000;
      }

      .st9, .st18 {
        stroke-dasharray: .06 .43;
        stroke-width: .18px;
      }

      .st10 {
        stroke-dasharray: .07 .53;
        stroke-width: .18px;
      }

      .st15 {
        stroke-dasharray: .09 .69;
      }

      .st16 {
        stroke-dasharray: .09 .68;
      }

      .st20 {
        fill: #302c35;
      }

      .st13 {
        stroke-width: .29px;
      }
    </style>
  </defs>
  <rect class="st19" x="521.73" y="705.58" width="234.58" height="160.66"/>
  <rect class="st19" x="520.97" y="864.52" width="134.85" height="136.61"/>
  <rect class="st19" x="442.4" y="886.96" width="82.1" height="105.64"/>
  <rect class="st17" x="600.53" y="941.21" width="67.5" height="35.36" transform="translate(1593.16 324.6) rotate(90)"/>
  <rect class="st0" x="523.89" y="897.46" width="128.16" height="95.33"/>
  <g>
    <line class="st6" x1="528.76" y1="872.96" x2="528.76" y2="892.22"/>
    <line class="st6" x1="530.14" y1="892.22" x2="530.14" y2="872.96"/>
    <polyline class="st6" points="528.76 892.22 528.76 895.1 530.14 895.1 530.14 892.22 528.76 892.22"/>
    <polyline class="st6" points="528.76 870.14 528.76 872.96 530.14 872.96 530.14 870.14 528.76 870.14"/>
    <line class="st6" x1="525.7" y1="871.94" x2="528.52" y2="871.94"/>
    <line class="st6" x1="525.7" y1="893.11" x2="528.52" y2="893.11"/>
  </g>
  <g>
    <rect class="st7" x="616.68" y="897.46" width="35.16" height="27.64"/>
    <rect class="st11" x="616.68" y="869.76" width="35.16" height="27.64"/>
  </g>
  <g>
    <g>
      <path class="st12" d="M547.58,810.1c-7.12,0-12.9,6.14-12.9,13.72,0,5.58,3.65,11.1,8.79,13.01.7.26,2.18.79,4.11.71,6.06-.24,12.9-6.28,12.9-13.72s-5.78-13.72-12.9-13.72Z"/>
      <path class="st6" d="M544.69,835.73c-4.38,0-7.92-5.33-7.92-11.91"/>
      <path class="st6" d="M544.69,811.91c-4.38,0-7.92,5.33-7.92,11.91"/>
      <path class="st6" d="M544.69,811.91c.86,0,1.56-.68,1.56-1.53"/>
      <path class="st6" d="M544.69,835.73c.86,0,1.56.74,1.56,1.66"/>
    </g>
    <g>
      <path class="st12" d="M591.86,810.1c7.12,0,12.9,6.14,12.9,13.72,0,5.58-3.65,11.1-8.79,13.01-.7.26-2.18.79-4.11.71-6.06-.24-12.9-6.28-12.9-13.72s5.78-13.72,12.9-13.72Z"/>
      <path class="st6" d="M594.75,835.73c4.38,0,7.92-5.33,7.92-11.91"/>
      <path class="st6" d="M594.75,811.91c4.38,0,7.92,5.33,7.92,11.91"/>
      <path class="st6" d="M594.75,811.91c-.86,0-1.56-.68-1.56-1.53"/>
      <path class="st6" d="M594.75,835.73c-.86,0-1.56.74-1.56,1.66"/>
    </g>
    <rect class="st12" x="552.93" y="803.6" width="35.68" height="40.44" transform="translate(1141.53 1647.64) rotate(-180)"/>
  </g>
  <g>
    <g>
      <polyline class="st14" points="443.79 933.01 443.75 933.01 443.75 933.05"/>
      <line class="st15" x1="443.75" y1="933.75" x2="443.75" y2="977.27"/>
      <polyline class="st14" points="443.75 977.61 443.75 977.66 443.79 977.66"/>
      <line class="st16" x1="444.47" y1="977.66" x2="487.49" y2="977.66"/>
      <polyline class="st14" points="487.83 977.66 487.87 977.66 487.87 977.61"/>
      <line class="st15" x1="487.87" y1="976.92" x2="487.87" y2="933.4"/>
      <polyline class="st14" points="487.87 933.06 487.87 933.01 487.83 933.01"/>
      <line class="st16" x1="487.15" y1="933.01" x2="444.13" y2="933.01"/>
    </g>
    <g>
      <line class="st6" x1="465.78" y1="977.48" x2="465.78" y2="965.18"/>
      <path class="st12" d="M463.08,965.24c0,1.52,1.23,2.75,2.75,2.75s2.75-1.23,2.75-2.75-1.23-2.75-2.75-2.75-2.75,1.23-2.75,2.75"/>
    </g>
  </g>
  <path class="st1" d="M491.23,978.5v-16.09c0-6.19,4.45-11.2,9.95-11.2s9.95,5.01,9.95,11.2v16.09s-19.9,0-19.9,0Z"/>
  <g>
    <path class="st11" d="M443.17,899.4h18.5c.41,0,.74.21.74.47v26.59c0,.32-.33.59-.74.59h-18.5"/>
    <path class="st6" d="M445.87,914.28c.55,0,1-.45,1-1s-.45-1-1-1-1,.45-1,1,.45,1,1,1"/>
    <g>
      <path class="st6" d="M454.68,914.49c.68,0,1.23-.55,1.23-1.23s-.55-1.23-1.23-1.23-1.23.55-1.23,1.23.55,1.23,1.23,1.23"/>
      <path class="st6" d="M454.68,915.07c1,0,1.82-.81,1.82-1.82s-.81-1.82-1.82-1.82-1.82.81-1.82,1.82.81,1.82,1.82,1.82"/>
    </g>
    <path class="st7" d="M449.08,901.43h10.82c.41,0,.74.23.74.52v22.61c0,.29-.33.52-.74.52h-10.82c-.41,0-.74-.23-.74-.52v-22.61c0-.29.33-.52.74-.52Z"/>
  </g>
  <g>
    <rect class="st13" x="665.16" y="773.28" width="113.09" height="50.38" transform="translate(-76.77 1520.18) rotate(-90)"/>
    <rect class="st13" x="707.71" y="754.23" width="27.99" height="28.27" rx="1.45" ry="1.45"/>
    <polygon class="st13" points="747.54 756.72 747.54 855.31 696.52 855.31 696.52 782.22 747.54 756.72"/>
  </g>
  <g>
    <line class="st2" x1="616.78" y1="952.11" x2="651.93" y2="952.11"/>
    <g>
      <g>
        <polyline class="st5" points="649.8 989.28 619.01 989.28 619.01 957.75 649.8 957.75 649.8 989.28"/>
        <g>
          <polyline class="st5" points="622.11 984.11 643.31 984.11 643.31 962.92 622.11 962.92 622.11 984.11"/>
          <line class="st5" x1="638.18" y1="973.46" x2="646.7" y2="973.46"/>
        </g>
      </g>
      <g>
        <g>
          <line class="st8" x1="646.73" y1="937.28" x2="638.49" y2="937.28"/>
          <line class="st8" x1="631.13" y1="937.28" x2="622.89" y2="937.28"/>
          <line class="st8" x1="627.06" y1="933.47" x2="627.06" y2="941.19"/>
          <line class="st8" x1="642.56" y1="933.47" x2="642.56" y2="941.19"/>
        </g>
        <polyline class="st3" points="649.8 945.66 619.01 945.66 619.01 929 649.8 929 649.8 945.66"/>
      </g>
    </g>
  </g>
  <g>
    <path class="st12" d="M621.71,729.22c6.26,7.8,12.52,15.61,18.78,23.41.18.41.03.92-.37,1.24-8.31,8.71-17.89,16.2-28.33,22.15-.17.1-.38.09-.5-.04-.59-.73-1.17-1.45-1.76-2.18l-16.98-21.01,29.17-23.57"/>
    <path class="st12" d="M620.11,727.73c.68.65,1.26,1.37,1.77,2.16.09.16.04.37-.13.51-9.16,7.76-18.44,15.35-27.86,22.78-.26.16-.57.13-.74-.07-.71-.74-1.34-1.54-1.88-2.41"/>
    <path class="st12" d="M622.8,732.98c.57-.46-.06-2.18-1.4-3.84-.11-.13-.22-.26-.33-.39l-.95-1.03c-.14-.12-.36-.11-.52.02l-28.39,22.95,1.95,2.42c.65.78,1.3,1.55,1.96,2.33.36.26.89.22,1.29-.1,9.96-5.95,18.92-13.54,26.4-22.35Z"/>
    <path class="st12" d="M621.75,731.33c.13.43.29.84.48,1.24.13.51.29,1.02.48,1.51.26.67.51,1.34.76,2.02.34.93.76,1.81,1.27,2.66.31.52.63,1.02.98,1.52.36.52.73,1.05,1.11,1.56.89,1.23,1.84,2.41,2.86,3.54,1.03,1.14,2.14,2.18,3.35,3.14.91.72,1.88,1.34,2.93,1.88.66.34,1.33.46,2.13.4.07,0,.12-.03.18-.07l.51-.41c.1-.16.12-.3.08-.47-6.07-7.51-12.14-15.02-18.21-22.53-.11-.13-.32-.14-.48-.01l-.16.13h0c-.15.13-.19.34-.1.48.21.35.42.69.63,1.04.31.44.58.89.81,1.38l.41,1.02Z"/>
    <path class="st12" d="M594.42,753.41c.39.22.76.46,1.12.73.47.24.93.5,1.37.79.6.39,1.21.78,1.81,1.16.84.53,1.61,1.13,2.33,1.8.44.41.87.83,1.28,1.27.44.47.87.94,1.3,1.41,1.02,1.13,1.97,2.3,2.86,3.54.9,1.24,1.68,2.55,2.36,3.93.51,1.04.92,2.12,1.22,3.26.19.72.18,1.4-.05,2.16-.02.06-.05.11-.11.16l-.51.41c-.18.06-.32.06-.48-.02-6.07-7.51-12.14-15.02-18.21-22.53-.11-.13-.07-.34.09-.47l.16-.13h0c.16-.12.37-.12.49,0,.29.28.59.55.88.83.36.39.75.75,1.18,1.08l.91.61Z"/>
  </g>
  <circle class="st1" cx="655" cy="776.43" r="13.02"/>
  <rect class="st20" x="740.73" y="696.01" width="24.6" height="24.09"/>
  <rect class="st20" x="614.91" y="696.01" width="36.85" height="24.09"/>
  <rect class="st20" x="512.27" y="696.01" width="13.3" height="24.09"/>
  <rect class="st20" x="517.26" y="696.01" width="8.5" height="203.55"/>
  <rect class="st20" x="517.26" y="943.54" width="8.5" height="56.04"/>
  <rect class="st20" x="752.03" y="709.5" width="8.5" height="159.06"/>
  <rect class="st20" x="651.94" y="862.36" width="8.5" height="138.77"/>
  <rect class="st20" x="434.67" y="889.3" width="8.5" height="89.1"/>
  <rect class="st20" x="434.67" y="884.62" width="90.52" height="8.5"/>
  <rect class="st20" x="579.99" y="992.63" width="79.56" height="8.5"/>
  <rect class="st20" x="521.73" y="992.63" width="14.41" height="8.5"/>
  <rect class="st20" x="651.93" y="861.53" width="108.61" height="8.5"/>
  <rect class="st20" x="434.73" y="978.15" width="88.56" height="22.98"/>
  <g>
    <path class="st9" d="M616.64,924.9l-16.54-21.63s7.42-4.51,16.54-4.55"/>
    <path class="st9" d="M616.64,895.95c-9.13-.04-16.54-4.55-16.54-4.55l16.54-21.63"/>
  </g>
  <g>
    <path class="st6" d="M521.63,943.54c-11.6,0-22.94-4.79-31.27-13.11-8.07-8.07-12.86-19.41-12.86-31.01"/>
    <line class="st6" x1="521.63" y1="901.18" x2="521.63" y2="943.54"/>
    <polyline class="st6" points="477.5 899.41 521.63 899.41 521.63 901.18"/>
  </g>
  <g>
    <path class="st6" d="M580.14,992.77c0-11.6-4.79-22.95-13.11-31.27-8.07-8.07-19.42-12.86-31.01-12.86"/>
    <line class="st6" x1="537.78" y1="992.77" x2="580.14" y2="992.77"/>
    <polyline class="st6" points="536.01 948.65 536.01 992.77 537.78 992.77"/>
  </g>
  <g>
    <path class="st10" d="M583.38,705.74c0,14.44-5.97,28.57-16.33,38.93-10.05,10.05-24.18,16.01-38.62,16.01"/>
    <path class="st10" d="M583.38,705.74"/>
    <path class="st10" d="M528.43,705.74"/>
    <line class="st10" x1="528.43" y1="760.69" x2="528.43" y2="705.74"/>
  </g>
  <g>
    <path class="st10" d="M709.6,705.74c0,14.44-5.97,28.57-16.33,38.93-10.05,10.05-24.18,16.01-38.62,16.01"/>
    <path class="st10" d="M709.6,705.74"/>
    <path class="st10" d="M654.66,705.74"/>
    <line class="st10" x1="654.66" y1="760.69" x2="654.66" y2="705.74"/>
  </g>
  <line class="st4" x1="556.25" y1="699.25" x2="584.63" y2="699.25"/>
  <line class="st4" x1="584.99" y1="699.25" x2="613.55" y2="699.25"/>
  <line class="st4" x1="527.33" y1="699.25" x2="555.83" y2="699.25"/>
  <line class="st4" x1="557.51" y1="700.21" x2="583.31" y2="700.21"/>
  <line class="st4" x1="528.59" y1="700.21" x2="554.57" y2="700.21"/>
  <line class="st4" x1="586.25" y1="700.21" x2="612.23" y2="700.21"/>
  <line class="st4" x1="612.23" y1="705.55" x2="586.25" y2="705.55"/>
  <line class="st4" x1="583.31" y1="705.55" x2="557.51" y2="705.55"/>
  <line class="st4" x1="554.57" y1="705.55" x2="528.59" y2="705.55"/>
  <polyline class="st4" points="528.59 703.57 554.57 703.57 554.57 705.55 557.51 705.55 557.51 703.57 583.31 703.57 583.31 705.55 586.25 705.55 586.25 703.57 612.23 703.57 612.23 705.55 613.91 705.55 613.91 699.25 613.55 699.25 613.55 700.21 612.23 700.21 612.23 701.29 586.25 701.29 586.25 700.21 584.99 700.21 584.99 699.25 584.63 699.25 584.63 700.21 583.31 700.21 583.31 701.29 557.51 701.29 557.51 700.21 556.25 700.21 556.25 699.25 555.83 699.25 555.83 700.21 554.57 700.21 554.57 701.29 528.59 701.29 528.59 700.21 527.33 700.21 527.33 699.25 526.91 699.25 526.91 705.55 528.59 705.55 528.59 703.57"/>
  <line class="st4" x1="584.45" y1="701.29" x2="527.51" y2="701.29"/>
  <line class="st6" x1="615.43" y1="696.14" x2="525.58" y2="696.14"/>
  <line class="st4" x1="682.48" y1="699.25" x2="710.86" y2="699.25"/>
  <line class="st4" x1="711.22" y1="699.25" x2="739.78" y2="699.25"/>
  <line class="st4" x1="653.56" y1="699.25" x2="682.06" y2="699.25"/>
  <line class="st4" x1="683.74" y1="700.21" x2="709.54" y2="700.21"/>
  <line class="st4" x1="654.82" y1="700.21" x2="680.8" y2="700.21"/>
  <line class="st4" x1="712.48" y1="700.21" x2="738.46" y2="700.21"/>
  <line class="st4" x1="738.46" y1="705.55" x2="712.48" y2="705.55"/>
  <line class="st4" x1="709.54" y1="705.55" x2="683.74" y2="705.55"/>
  <line class="st4" x1="680.8" y1="705.55" x2="654.82" y2="705.55"/>
  <polyline class="st4" points="654.82 703.57 680.8 703.57 680.8 705.55 683.74 705.55 683.74 703.57 709.54 703.57 709.54 705.55 712.48 705.55 712.48 703.57 738.46 703.57 738.46 705.55 740.14 705.55 740.14 699.25 739.78 699.25 739.78 700.21 738.46 700.21 738.46 701.29 712.48 701.29 712.48 700.21 711.22 700.21 711.22 699.25 710.86 699.25 710.86 700.21 709.54 700.21 709.54 701.29 683.74 701.29 683.74 700.21 682.48 700.21 682.48 699.25 682.06 699.25 682.06 700.21 680.8 700.21 680.8 701.29 654.82 701.29 654.82 700.21 653.56 700.21 653.56 699.25 653.14 699.25 653.14 705.55 654.82 705.55 654.82 703.57"/>
  <line class="st4" x1="710.68" y1="701.29" x2="653.74" y2="701.29"/>
  <line class="st6" x1="741.66" y1="696.14" x2="651.81" y2="696.14"/>
  <rect class="st18" x="523.89" y="897.46" width="128.16" height="95.33"/>
</svg>