<?xml version="1.0" encoding="UTF-8"?>
<svg id="Tekst" xmlns="http://www.w3.org/2000/svg" version="1.1" viewBox="0 0 1200 1697.14">
  <!-- Generator: Adobe Illustrator 29.6.0, SVG Export Plug-In . SVG Version: 2.1.1 Build 207)  -->
  <defs>
    <style>
      .st0, .st1, .st2, .st3, .st4, .st5, .st6, .st7, .st8, .st9, .st10, .st11, .st12, .st13 {
        fill: none;
      }

      .st14 {
        fill: #e2dedb;
      }

      .st15, .st1, .st2, .st3, .st4, .st5, .st6, .st8, .st9, .st16, .st17 {
        stroke: #363a3b;
      }

      .st15, .st3, .st7, .st10, .st12, .st17, .st13 {
        stroke-width: .28px;
      }

      .st15, .st8 {
        stroke-miterlimit: 10;
      }

      .st15, .st18, .st16, .st17 {
        fill: #fff;
      }

      .st1 {
        stroke-width: .3px;
      }

      .st1, .st2, .st3, .st4, .st5, .st6, .st7, .st9, .st10, .st11, .st12, .st16, .st17, .st13 {
        stroke-linecap: round;
        stroke-linejoin: round;
      }

      .st2 {
        stroke-width: .28px;
      }

      .st4, .st16 {
        stroke-width: .28px;
      }

      .st5 {
        stroke-width: .29px;
      }

      .st19 {
        fill: #ece8e5;
      }

      .st6 {
        stroke-dasharray: .06 .42;
        stroke-width: .18px;
      }

      .st7, .st10, .st11, .st12 {
        stroke: #000;
      }

      .st8 {
        stroke-width: .29px;
      }

      .st9, .st11 {
        stroke-dasharray: .06 .43;
        stroke-width: .18px;
      }

      .st10 {
        stroke-dasharray: .09 .69;
      }

      .st12 {
        stroke-dasharray: .09 .68;
      }

      .st20 {
        fill: #302c35;
      }

      .st13 {
        stroke: #00001d;
      }
    </style>
  </defs>
  <polygon class="st19" points="533.05 881.69 470.09 881.69 469.88 670.49 720.66 670.49 720.66 1025.76 567.16 1025.76 567.16 925.17 533.89 925.17 533.05 881.69"/>
  <rect class="st18" x="595.94" y="675" width="37.85" height="34.26" transform="translate(1229.73 1384.26) rotate(-180)"/>
  <polygon class="st0" points="632.9 675.15 580.64 675.17 537.65 675.15 537.65 708.17 632.9 708.17 632.9 675.15"/>
  <polygon class="st14" points="478.43 785.17 478.43 675.18 596.06 675.04 596.06 746.62 541.28 746.62 541.14 785.17 478.43 785.17"/>
  <g>
    <path class="st3" d="M478.4,730.23c11.6,0,22.95-4.79,31.27-13.11,8.07-8.07,12.86-19.42,12.86-31.01"/>
    <line class="st3" x1="478.4" y1="687.87" x2="478.4" y2="730.23"/>
    <polyline class="st3" points="522.52 686.1 478.4 686.1 478.4 687.87"/>
  </g>
  <g>
    <path class="st3" d="M491.04,831.53c11.6,0,22.95-4.79,31.27-13.11,8.07-8.07,12.86-19.42,12.86-31.01"/>
    <line class="st3" x1="491.04" y1="789.17" x2="491.04" y2="831.53"/>
    <polyline class="st3" points="535.16 787.41 491.04 787.41 491.04 789.17"/>
  </g>
  <rect class="st18" x="539.37" y="885.8" width="34.81" height="34.81" transform="translate(1113.54 1806.4) rotate(-180)"/>
  <g>
    <line class="st0" x1="574" y1="885.14" x2="540.28" y2="885.14"/>
    <line class="st0" x1="573.9" y1="885.18" x2="540.05" y2="885.18"/>
    <g>
      <line class="st3" x1="540.22" y1="920.91" x2="574.06" y2="920.91"/>
      <path class="st3" d="M574.06,919.96"/>
      <line class="st3" x1="574.06" y1="920.91" x2="574.06" y2="885.46"/>
      <path class="st13" d="M574.06,884.99"/>
      <line class="st3" x1="540.22" y1="885.46" x2="574.06" y2="885.46"/>
    </g>
    <path class="st9" d="M574.24,920.91l16.54-28.9s-7.42-6.03-16.54-6.08"/>
  </g>
  <g>
    <g>
      <path class="st17" d="M632.99,766.28c0-7.12,6.14-12.9,13.72-12.9,5.58,0,11.1,3.65,13.01,8.79.26.7.79,2.18.71,4.11-.24,6.06-6.28,12.9-13.72,12.9-7.58,0-13.72-5.78-13.72-12.9Z"/>
      <path class="st3" d="M658.62,763.39c0-4.38-5.33-7.92-11.91-7.92"/>
      <path class="st3" d="M634.8,763.39c0-4.38,5.33-7.92,11.91-7.92"/>
      <path class="st3" d="M634.8,763.39c0,.86-.68,1.56-1.53,1.56"/>
      <path class="st3" d="M658.62,763.39c0,.86.74,1.56,1.66,1.56"/>
    </g>
    <g>
      <path class="st17" d="M632.99,810.56c0,7.12,6.14,12.9,13.72,12.9,5.58,0,11.1-3.65,13.01-8.79.26-.7.79-2.18.71-4.11-.24-6.06-6.28-12.9-13.72-12.9-7.58,0-13.72,5.78-13.72,12.9Z"/>
      <path class="st3" d="M658.62,813.45c0,4.38-5.33,7.92-11.91,7.92"/>
      <path class="st3" d="M634.8,813.45c0,4.38,5.33,7.92,11.91,7.92"/>
      <path class="st3" d="M634.8,813.45c0-.86-.68-1.56-1.53-1.56"/>
      <path class="st3" d="M658.62,813.45c0-.86.74-1.56,1.66-1.56"/>
    </g>
    <rect class="st17" x="628.87" y="769.25" width="35.68" height="40.44" transform="translate(-142.76 1436.17) rotate(-90)"/>
  </g>
  <g>
    <g>
      <path class="st17" d="M679.63,895.28c-9.28,3.72-18.57,7.45-27.85,11.17-.36.27-.47.79-.29,1.26,2.97,11.67,7.63,22.9,13.81,33.21.1.17.29.26.45.21.87-.34,1.74-.69,2.6-1.03l25.11-9.97-13.84-34.86"/>
      <path class="st17" d="M681.76,894.77c-.91.24-1.77.57-2.6,1.01-.16.09-.22.31-.14.5,4.17,11.25,8.53,22.43,13.09,33.53.15.27.43.4.68.31.99-.3,1.92-.69,2.82-1.18"/>
      <path class="st17" d="M676.84,898.02c-.27-.68,1.12-1.87,3.11-2.65.16-.06.32-.12.48-.17l1.33-.43c.18-.04.37.08.45.27l13.47,33.93-2.89,1.15c-.95.36-1.9.71-2.85,1.07-.44.05-.89-.25-1.07-.72-5.75-10.07-9.83-21.08-12.02-32.44Z"/>
      <path class="st17" d="M678.57,897.1c-.33.31-.67.59-1.03.85-.37.38-.76.74-1.16,1.08-.55.46-1.1.92-1.65,1.38-.76.64-1.55,1.2-2.41,1.69-.52.3-1.05.58-1.6.84-.57.28-1.15.55-1.73.82-1.38.64-2.79,1.2-4.23,1.68-1.46.49-2.93.85-4.46,1.09-1.15.18-2.3.25-3.47.2-.74-.03-1.38-.25-2.05-.7-.06-.04-.09-.08-.12-.15l-.24-.61c0-.19.04-.32.16-.45,8.98-3.56,17.95-7.13,26.93-10.69.16-.06.35.04.42.22l.07.19h0c.07.19,0,.39-.15.47-.35.2-.7.4-1.05.6-.48.23-.94.5-1.38.81l-.86.69Z"/>
      <path class="st17" d="M691.53,929.76c-.45,0-.89.03-1.33.08-.53-.02-1.06-.02-1.58.01-.72.05-1.43.09-2.15.12-.99.05-1.96.19-2.91.42-.59.14-1.17.3-1.74.48-.61.19-1.22.39-1.82.59-1.44.48-2.85,1.04-4.23,1.68-1.39.64-2.72,1.4-3.99,2.27-.96.66-1.84,1.4-2.67,2.24-.52.53-.84,1.13-1.01,1.91-.01.07,0,.12.02.19l.24.61c.13.14.25.21.42.22,8.98-3.56,17.95-7.13,26.93-10.69.16-.06.23-.27.16-.45l-.07-.19h0c-.08-.18-.26-.29-.43-.24-.39.1-.78.19-1.18.29-.51.16-1.03.28-1.56.36l-1.1.09Z"/>
    </g>
    <circle class="st15" cx="636.61" cy="934.02" r="13.02"/>
  </g>
  <g>
    <rect class="st17" x="578.52" y="967.15" width="113.09" height="50.38" transform="translate(1270.14 1984.68) rotate(-180)"/>
    <rect class="st17" x="592.12" y="978.63" width="27.44" height="27.44" rx="1.42" ry="1.42" transform="translate(1598.19 386.5) rotate(90)"/>
    <polygon class="st17" points="593.31 1018.17 691.91 1018.17 691.91 967.15 618.82 967.15 593.31 1018.17"/>
  </g>
  <g>
    <polyline class="st7" points="565.66 832.68 565.71 832.68 565.71 832.73"/>
    <line class="st10" x1="565.71" y1="833.42" x2="565.71" y2="876.94"/>
    <polyline class="st7" points="565.71 877.28 565.71 877.33 565.66 877.33"/>
    <line class="st12" x1="564.98" y1="877.33" x2="521.97" y2="877.33"/>
    <polyline class="st7" points="521.62 877.33 521.58 877.33 521.58 877.28"/>
    <line class="st10" x1="521.58" y1="876.59" x2="521.58" y2="833.07"/>
    <polyline class="st7" points="521.58 832.73 521.58 832.68 521.62 832.68"/>
    <line class="st12" x1="522.31" y1="832.68" x2="565.32" y2="832.68"/>
  </g>
  <g>
    <line class="st3" x1="542.47" y1="877.2" x2="542.47" y2="864.9"/>
    <path class="st17" d="M545.17,864.96c0,1.52-1.23,2.75-2.75,2.75s-2.75-1.23-2.75-2.75,1.23-2.75,2.75-2.75,2.75,1.23,2.75,2.75"/>
  </g>
  <path class="st15" d="M492.28,877.81v-16.09c0-6.19,4.45-11.2,9.95-11.2s9.95,5.01,9.95,11.2v16.09s-19.9,0-19.9,0Z"/>
  <g>
    <path class="st16" d="M565.85,822.97h-18.5c-.41,0-.74-.21-.74-.47v-26.59c0-.32.33-.59.74-.59h18.5"/>
    <path class="st3" d="M563.16,808.09c-.55,0-1,.45-1,1s.45,1,1,1,1-.45,1-1-.45-1-1-1"/>
    <g>
      <path class="st3" d="M554.34,807.89c-.68,0-1.23.55-1.23,1.23s.55,1.23,1.23,1.23,1.23-.55,1.23-1.23-.55-1.23-1.23-1.23"/>
      <path class="st3" d="M554.34,807.3c-1,0-1.82.81-1.82,1.82s.81,1.82,1.82,1.82,1.82-.81,1.82-1.82-.81-1.82-1.82-1.82"/>
    </g>
    <path class="st4" d="M559.94,820.94h-10.82c-.41,0-.74-.23-.74-.52v-22.61c0-.29.33-.52.74-.52h10.82c.41,0,.74.23.74.52v22.61c0,.29-.33.52-.74.52Z"/>
  </g>
  <line class="st3" x1="569.39" y1="780.65" x2="550.13" y2="780.65"/>
  <line class="st3" x1="550.13" y1="779.27" x2="569.39" y2="779.27"/>
  <polyline class="st3" points="550.13 780.65 547.25 780.65 547.25 779.27 550.13 779.27 550.13 780.65"/>
  <polyline class="st3" points="572.21 780.65 569.39 780.65 569.39 779.27 572.21 779.27 572.21 780.65"/>
  <line class="st3" x1="570.41" y1="783.71" x2="570.41" y2="780.89"/>
  <line class="st3" x1="549.24" y1="783.71" x2="549.24" y2="780.89"/>
  <polygon class="st8" points="537.86 675 575.19 675.03 605.9 675 605.9 709.26 537.86 709.26 537.86 675"/>
  <g>
    <g>
      <polyline class="st2" points="544.73 704.43 544.73 683.23 565.92 683.23 565.92 704.43 544.73 704.43"/>
      <line class="st2" x1="555.38" y1="688.36" x2="555.38" y2="679.83"/>
    </g>
    <polyline class="st2" points="539.56 707.53 539.56 676.73 571.09 676.73 571.09 707.53 539.56 707.53"/>
  </g>
  <g>
    <g>
      <line class="st5" x1="595.92" y1="704.46" x2="595.92" y2="696.21"/>
      <line class="st5" x1="595.92" y1="688.85" x2="595.92" y2="680.61"/>
      <line class="st5" x1="599.73" y1="684.79" x2="592" y2="684.79"/>
      <line class="st5" x1="599.73" y1="700.28" x2="592" y2="700.28"/>
    </g>
    <polyline class="st1" points="587.53 707.53 587.53 676.73 604.2 676.73 604.2 707.53 587.53 707.53"/>
  </g>
  <g>
    <g>
      <line class="st3" x1="605.9" y1="675.39" x2="605.9" y2="709.24"/>
      <path class="st3" d="M606.64,709.24"/>
      <line class="st3" x1="605.9" y1="709.24" x2="633.79" y2="709.24"/>
      <path class="st13" d="M634.17,709.24"/>
      <line class="st3" x1="633.79" y1="675.39" x2="633.79" y2="709.24"/>
    </g>
    <path class="st9" d="M633.68,709.41l-22.6,16.54s-4.71-7.42-4.76-16.54"/>
  </g>
  <rect class="st20" x="535.16" y="783.88" width="39.05" height="8.5"/>
  <rect class="st20" x="696.1" y="1022.5" width="34.02" height="14.79"/>
  <rect class="st20" x="696.1" y="659.86" width="34.02" height="15.29"/>
  <rect class="st20" x="696.1" y="791.38" width="34.02" height="114.89"/>
  <rect class="st20" x="469.93" y="730.05" width="8.5" height="148.96"/>
  <rect class="st20" x="469.93" y="666.64" width="8.5" height="19.46"/>
  <rect class="st20" x="469.93" y="877.44" width="104.28" height="8.5"/>
  <rect class="st20" x="565.71" y="784.06" width="8.5" height="101.89"/>
  <rect class="st20" x="474.37" y="783.83" width="8.5" height="102.11"/>
  <rect class="st20" x="473.9" y="783.83" width="17.06" height="8.5"/>
  <rect class="st20" x="565.71" y="1022.5" width="131.15" height="8.5"/>
  <rect class="st20" x="471.8" y="666.64" width="225.06" height="8.5"/>
  <rect class="st20" x="565.71" y="920.91" width="8.5" height="110.09"/>
  <rect class="st20" x="531.52" y="920.91" width="42.72" height="8.5"/>
  <rect class="st20" x="531.52" y="877.44" width="8.5" height="51.98"/>
  <g>
    <g>
      <path class="st6" d="M720.59,703.16c-5.28-.83-9.74-3.43-13.81-7.4-4.86-4.73-7.75-11.38-7.75-18.18"/>
      <line class="st6" x1="699.03" y1="677.58" x2="720.74" y2="677.58"/>
    </g>
    <g>
      <path class="st9" d="M720.71,763.26c-5.28.84-9.74,3.45-13.81,7.42-4.86,4.75-7.75,11.43-7.75,18.25"/>
      <line class="st9" x1="699.15" y1="788.94" x2="721.21" y2="788.94"/>
    </g>
    <line class="st3" x1="723.2" y1="788.94" x2="720.74" y2="788.94"/>
    <polyline class="st3" points="722.66 734.76 722.66 760.32 724.94 760.32 724.94 734.76 722.66 734.76"/>
    <polyline class="st3" points="722.66 706.26 722.66 731.82 724.94 731.82 724.94 706.26 722.66 706.26"/>
    <polyline class="st3" points="722.66 763.26 722.66 788.94 724.94 788.94 724.94 763.26 722.66 763.26"/>
    <polyline class="st3" points="722.66 677.58 722.66 703.26 724.94 703.26 724.94 677.58 722.66 677.58"/>
    <line class="st3" x1="726.98" y1="762" x2="726.98" y2="790.26"/>
    <line class="st3" x1="726.98" y1="676.26" x2="726.98" y2="704.58"/>
    <line class="st3" x1="726.98" y1="704.94" x2="726.98" y2="733.08"/>
    <line class="st3" x1="726.98" y1="733.44" x2="726.98" y2="761.58"/>
    <line class="st3" x1="726.08" y1="763.26" x2="726.08" y2="788.94"/>
    <line class="st3" x1="726.08" y1="734.76" x2="726.08" y2="760.32"/>
    <line class="st3" x1="726.08" y1="706.26" x2="726.08" y2="731.82"/>
    <line class="st3" x1="726.08" y1="677.58" x2="726.08" y2="703.26"/>
    <polyline class="st3" points="726.98 676.26 726.98 675.84 720.68 675.84 720.68 677.58 726.08 677.58 726.08 676.26 726.98 676.26"/>
    <polyline class="st3" points="726.98 733.44 726.98 733.08 726.08 733.08 726.08 731.82 720.68 731.82 720.68 734.76 726.08 734.76 726.08 733.44 726.98 733.44"/>
    <polyline class="st3" points="726.98 704.94 726.98 704.58 726.08 704.58 726.08 703.26 720.68 703.26 720.68 706.26 726.08 706.26 726.08 704.94 726.98 704.94"/>
    <polyline class="st3" points="726.98 790.68 726.98 790.26 726.08 790.26 726.08 788.94 720.68 788.94 720.68 790.68 726.98 790.68"/>
    <polyline class="st3" points="726.98 762 726.98 761.58 726.08 761.58 726.08 760.32 720.68 760.32 720.68 763.26 726.08 763.26 726.08 762 726.98 762"/>
    <line class="st3" x1="720.68" y1="788.94" x2="720.68" y2="763.26"/>
    <line class="st3" x1="720.68" y1="760.32" x2="720.68" y2="734.76"/>
    <line class="st3" x1="720.68" y1="731.82" x2="720.68" y2="706.26"/>
    <line class="st3" x1="720.68" y1="703.26" x2="720.68" y2="677.58"/>
    <line class="st3" x1="724.94" y1="702.18" x2="724.94" y2="678.72"/>
    <line class="st3" x1="724.94" y1="787.86" x2="724.94" y2="764.4"/>
    <line class="st3" x1="729.98" y1="675.18" x2="729.98" y2="791.4"/>
  </g>
  <g>
    <g>
      <path class="st6" d="M720.59,934.17c-5.28-.83-9.74-3.43-13.81-7.4-4.86-4.73-7.75-11.38-7.75-18.18"/>
      <line class="st6" x1="699.03" y1="908.58" x2="720.74" y2="908.58"/>
    </g>
    <g>
      <path class="st9" d="M720.71,994.26c-5.28.84-9.74,3.45-13.81,7.42-4.86,4.75-7.75,11.43-7.75,18.25"/>
      <line class="st9" x1="699.15" y1="1019.94" x2="721.21" y2="1019.94"/>
    </g>
    <line class="st3" x1="723.2" y1="1019.94" x2="720.74" y2="1019.94"/>
    <polyline class="st3" points="722.66 965.76 722.66 991.32 724.94 991.32 724.94 965.76 722.66 965.76"/>
    <polyline class="st3" points="722.66 937.26 722.66 962.82 724.94 962.82 724.94 937.26 722.66 937.26"/>
    <polyline class="st3" points="722.66 994.26 722.66 1019.94 724.94 1019.94 724.94 994.26 722.66 994.26"/>
    <polyline class="st3" points="722.66 908.58 722.66 934.26 724.94 934.26 724.94 908.58 722.66 908.58"/>
    <line class="st3" x1="726.98" y1="993" x2="726.98" y2="1021.26"/>
    <line class="st3" x1="726.98" y1="907.26" x2="726.98" y2="935.58"/>
    <line class="st3" x1="726.98" y1="935.94" x2="726.98" y2="964.08"/>
    <line class="st3" x1="726.98" y1="964.44" x2="726.98" y2="992.58"/>
    <line class="st3" x1="726.08" y1="994.26" x2="726.08" y2="1019.94"/>
    <line class="st3" x1="726.08" y1="965.76" x2="726.08" y2="991.32"/>
    <line class="st3" x1="726.08" y1="937.26" x2="726.08" y2="962.82"/>
    <line class="st3" x1="726.08" y1="908.58" x2="726.08" y2="934.26"/>
    <polyline class="st3" points="726.98 907.26 726.98 906.84 720.68 906.84 720.68 908.58 726.08 908.58 726.08 907.26 726.98 907.26"/>
    <polyline class="st3" points="726.98 964.44 726.98 964.08 726.08 964.08 726.08 962.82 720.68 962.82 720.68 965.76 726.08 965.76 726.08 964.44 726.98 964.44"/>
    <polyline class="st3" points="726.98 935.94 726.98 935.58 726.08 935.58 726.08 934.26 720.68 934.26 720.68 937.26 726.08 937.26 726.08 935.94 726.98 935.94"/>
    <polyline class="st3" points="726.98 1021.68 726.98 1021.26 726.08 1021.26 726.08 1019.94 720.68 1019.94 720.68 1021.68 726.98 1021.68"/>
    <polyline class="st3" points="726.98 993 726.98 992.58 726.08 992.58 726.08 991.32 720.68 991.32 720.68 994.26 726.08 994.26 726.08 993 726.98 993"/>
    <line class="st3" x1="720.68" y1="1019.94" x2="720.68" y2="994.26"/>
    <line class="st3" x1="720.68" y1="991.32" x2="720.68" y2="965.76"/>
    <line class="st3" x1="720.68" y1="962.82" x2="720.68" y2="937.26"/>
    <line class="st3" x1="720.68" y1="934.26" x2="720.68" y2="908.58"/>
    <line class="st3" x1="724.94" y1="933.18" x2="724.94" y2="909.72"/>
    <line class="st3" x1="724.94" y1="1018.86" x2="724.94" y2="995.4"/>
    <line class="st3" x1="729.98" y1="906.18" x2="729.98" y2="1022.4"/>
  </g>
  <polygon class="st11" points="478.4 785.17 541.14 785.17 541.28 746.62 596.06 746.62 596.06 672.02 478.4 672.02 478.4 785.17"/>
</svg>