<?xml version="1.0" encoding="UTF-8"?>
<svg id="Vinduer_i_facade" xmlns="http://www.w3.org/2000/svg" version="1.1" viewBox="0 0 1200 1697.14">
  <!-- Generator: Adobe Illustrator 29.6.0, SVG Export Plug-In . SVG Version: 2.1.1 Build 207)  -->
  <defs>
    <style>
      .st0 {
        fill: #e2dedb;
      }

      .st1 {
        stroke-miterlimit: 10;
      }

      .st1, .st2, .st3, .st4, .st5, .st6, .st7, .st8, .st9, .st10, .st11, .st12 {
        stroke: #363a3b;
      }

      .st1, .st6, .st13, .st14, .st15, .st12 {
        stroke-width: .28px;
      }

      .st1, .st16, .st11, .st12 {
        fill: #fff;
      }

      .st2 {
        stroke-width: .29px;
      }

      .st2, .st3, .st4, .st5, .st6, .st7, .st8, .st9, .st13, .st17, .st10, .st14, .st18, .st15 {
        fill: none;
      }

      .st2, .st3, .st4, .st5, .st6, .st7, .st8, .st9, .st13, .st17, .st10, .st14, .st18, .st15, .st11, .st12 {
        stroke-linecap: round;
        stroke-linejoin: round;
      }

      .st3 {
        stroke-width: .3px;
      }

      .st4, .st17 {
        stroke-width: .3px;
      }

      .st5 {
        stroke-width: .28px;
      }

      .st7, .st11 {
        stroke-width: .28px;
      }

      .st8 {
        stroke-width: .29px;
      }

      .st19 {
        fill: #ece8e5;
      }

      .st9 {
        stroke-dasharray: .06 .42;
        stroke-width: .18px;
      }

      .st13, .st17, .st14, .st18, .st15 {
        stroke: #000;
      }

      .st10, .st18 {
        stroke-dasharray: .06 .43;
        stroke-width: .18px;
      }

      .st14 {
        stroke-dasharray: .09 .69;
      }

      .st15 {
        stroke-dasharray: .09 .68;
      }

      .st20 {
        fill: #302c35;
      }
    </style>
  </defs>
  <polygon class="st19" points="746.32 739.3 494.03 707.62 494.03 847.93 446.14 847.93 443.93 999.36 586.25 999.35 586.25 976.35 677.43 976.35 677.43 894.93 746.32 894.93 746.32 739.3"/>
  <rect class="st16" x="433.65" y="939.44" width="67.5" height="35.36" transform="translate(-489.72 1424.52) rotate(-90)"/>
  <rect class="st0" x="447.81" y="893.22" width="136.76" height="86.54"/>
  <rect class="st7" x="449.47" y="895.91" width="35.54" height="27.64" transform="translate(934.49 1819.46) rotate(180)"/>
  <g>
    <g>
      <polyline class="st13" points="628.61 899.71 628.61 899.67 628.66 899.67"/>
      <line class="st14" x1="629.35" y1="899.67" x2="672.87" y2="899.67"/>
      <polyline class="st13" points="673.21 899.67 673.26 899.67 673.26 899.71"/>
      <line class="st15" x1="673.26" y1="900.39" x2="673.26" y2="943.41"/>
      <polyline class="st13" points="673.26 943.75 673.26 943.79 673.21 943.79"/>
      <line class="st14" x1="672.52" y1="943.79" x2="629" y2="943.79"/>
      <polyline class="st13" points="628.66 943.79 628.61 943.79 628.61 943.75"/>
      <line class="st15" x1="628.61" y1="943.07" x2="628.61" y2="900.05"/>
    </g>
    <g>
      <line class="st6" x1="673.08" y1="921.7" x2="660.78" y2="921.7"/>
      <path class="st12" d="M660.84,919c1.52,0,2.75,1.23,2.75,2.75s-1.23,2.75-2.75,2.75-2.75-1.23-2.75-2.75,1.23-2.75,2.75-2.75"/>
    </g>
  </g>
  <path class="st1" d="M674.1,947.15h-16.09c-6.19,0-11.2,4.45-11.2,9.95s5.01,9.95,11.2,9.95h16.09s0-19.9,0-19.9Z"/>
  <g>
    <path class="st11" d="M593.36,898.82v18.5c0,.41.21.74.47.74h26.59c.32,0,.59-.33.59-.74v-18.5"/>
    <path class="st6" d="M608.24,901.52c0,.55-.45,1-1,1s-1-.45-1-1,.45-1,1-1,1,.45,1,1"/>
    <g>
      <path class="st6" d="M608.44,910.33c0,.68-.55,1.23-1.23,1.23s-1.23-.55-1.23-1.23.55-1.23,1.23-1.23,1.23.55,1.23,1.23"/>
      <path class="st6" d="M609.03,910.33c0,1-.81,1.82-1.82,1.82s-1.82-.81-1.82-1.82.81-1.82,1.82-1.82,1.82.81,1.82,1.82"/>
    </g>
    <path class="st7" d="M595.39,904.73v10.82c0,.41.23.74.52.74h22.61c.29,0,.52-.33.52-.74v-10.82c0-.41-.23-.74-.52-.74h-22.61c-.29,0-.52.33-.52.74Z"/>
  </g>
  <g>
    <path class="st12" d="M645.48,744.65c6.26,7.8,12.52,15.61,18.78,23.41.18.41.03.92-.37,1.24-8.31,8.71-17.89,16.2-28.34,22.15-.17.1-.38.09-.5-.04-.59-.73-1.17-1.45-1.76-2.18l-16.98-21.01,29.17-23.57"/>
    <path class="st12" d="M643.88,743.15c.68.65,1.26,1.37,1.77,2.16.09.16.04.37-.13.51-9.16,7.76-18.44,15.35-27.86,22.78-.26.16-.57.13-.74-.07-.71-.74-1.34-1.54-1.88-2.41"/>
    <path class="st12" d="M646.57,748.41c.57-.46-.06-2.18-1.4-3.84-.11-.13-.22-.26-.33-.39l-.95-1.03c-.14-.12-.36-.11-.52.02l-28.39,22.95,1.95,2.42c.65.78,1.3,1.55,1.96,2.33.36.26.89.22,1.29-.1,9.96-5.95,18.92-13.54,26.4-22.35Z"/>
    <path class="st12" d="M645.52,746.75c.13.43.29.84.48,1.24.13.51.29,1.02.48,1.51.26.67.51,1.34.76,2.02.34.93.76,1.81,1.27,2.66.31.52.63,1.02.98,1.52.36.52.73,1.05,1.11,1.56.89,1.23,1.84,2.41,2.86,3.54,1.03,1.14,2.14,2.18,3.35,3.14.91.72,1.88,1.34,2.93,1.88.66.34,1.33.46,2.13.4.07,0,.12-.03.18-.07l.51-.41c.1-.16.12-.3.08-.47-6.07-7.51-12.14-15.02-18.21-22.53-.11-.13-.32-.14-.48-.01l-.16.13h0c-.15.13-.19.34-.1.48.21.35.42.69.63,1.04.31.44.58.89.81,1.38l.41,1.02Z"/>
    <path class="st12" d="M618.19,768.84c.39.22.76.46,1.12.73.47.24.93.5,1.37.79.6.39,1.21.78,1.81,1.16.84.53,1.61,1.13,2.33,1.8.44.41.87.83,1.28,1.27.44.47.87.94,1.3,1.41,1.02,1.13,1.97,2.3,2.86,3.54.9,1.24,1.68,2.55,2.36,3.93.51,1.04.92,2.12,1.22,3.26.19.72.18,1.4-.05,2.16-.02.06-.05.11-.11.16l-.51.41c-.18.06-.32.06-.48-.02-6.07-7.51-12.14-15.02-18.21-22.53-.11-.13-.07-.34.09-.47l.16-.13h0c.16-.12.37-.12.49,0,.29.28.59.55.88.83.36.39.75.75,1.18,1.08l.91.61Z"/>
  </g>
  <circle class="st1" cx="689.33" cy="776.28" r="13.02"/>
  <g>
    <g>
      <path class="st12" d="M550.17,781.82c0-7.12-6.14-12.9-13.72-12.9-5.58,0-11.1,3.65-13.01,8.79-.26.7-.79,2.18-.71,4.11.24,6.06,6.28,12.9,13.72,12.9,7.58,0,13.72-5.78,13.72-12.9Z"/>
      <g>
        <path class="st6" d="M524.54,778.93c0-4.38,5.33-7.92,11.91-7.92"/>
        <path class="st6" d="M548.36,778.93c0-4.38-5.33-7.92-11.91-7.92"/>
        <path class="st6" d="M548.36,778.93c0,.86.68,1.56,1.53,1.56"/>
        <path class="st6" d="M524.54,778.93c0,.86-.74,1.56-1.66,1.56"/>
      </g>
    </g>
    <g>
      <path class="st12" d="M550.17,826.1c0,7.12-6.14,12.9-13.72,12.9-5.58,0-11.1-3.65-13.01-8.79-.26-.7-.79-2.18-.71-4.11.24-6.06,6.28-12.9,13.72-12.9,7.58,0,13.72,5.78,13.72,12.9Z"/>
      <path class="st6" d="M524.54,828.99c0,4.38,5.33,7.92,11.91,7.92"/>
      <path class="st6" d="M548.36,828.99c0,4.38-5.33,7.92-11.91,7.92"/>
      <path class="st6" d="M548.36,828.99c0-.86.68-1.56,1.53-1.56"/>
      <path class="st6" d="M524.54,828.99c0-.86-.74-1.56-1.66-1.56"/>
    </g>
    <rect class="st12" x="518.61" y="784.78" width="35.68" height="40.44" transform="translate(-268.55 1341.45) rotate(-90)"/>
  </g>
  <g>
    <line class="st2" x1="484.62" y1="963.9" x2="449.46" y2="963.9"/>
    <g>
      <g>
        <polyline class="st5" points="451.59 926.72 482.39 926.72 482.39 958.25 451.59 958.25 451.59 926.72"/>
        <g>
          <polyline class="st5" points="479.29 931.89 458.09 931.89 458.09 953.09 479.29 953.09 479.29 931.89"/>
          <line class="st5" x1="463.21" y1="942.54" x2="454.69" y2="942.54"/>
        </g>
      </g>
      <g>
        <g>
          <line class="st8" x1="454.66" y1="978.73" x2="462.9" y2="978.73"/>
          <line class="st8" x1="470.27" y1="978.73" x2="478.51" y2="978.73"/>
          <line class="st8" x1="474.33" y1="982.54" x2="474.33" y2="974.81"/>
          <line class="st8" x1="458.84" y1="982.54" x2="458.84" y2="974.81"/>
        </g>
        <polyline class="st3" points="451.59 970.35 482.39 970.35 482.39 987.01 451.59 987.01 451.59 970.35"/>
      </g>
    </g>
  </g>
  <g>
    <line class="st6" x1="452.54" y1="888.45" x2="452.54" y2="869.2"/>
    <line class="st6" x1="453.92" y1="869.2" x2="453.92" y2="888.46"/>
    <polyline class="st6" points="452.54 869.2 452.54 866.32 453.92 866.32 453.92 869.2 452.54 869.2"/>
    <polyline class="st6" points="452.54 891.27 452.54 888.46 453.92 888.46 453.92 891.27 452.54 891.27"/>
    <line class="st6" x1="449.48" y1="889.47" x2="452.3" y2="889.47"/>
    <line class="st6" x1="449.48" y1="868.31" x2="452.3" y2="868.31"/>
  </g>
  <rect class="st20" x="489.88" y="700.3" width="8.5" height="150.66"/>
  <rect class="st20" x="441.17" y="850.63" width="8.5" height="148.74"/>
  <rect class="st20" x="582.54" y="897.37" width="8.5" height="25.2"/>
  <rect class="st20" x="582.54" y="966.65" width="8.5" height="32.7"/>
  <rect class="st20" x="673.99" y="896.99" width="21.26" height="84.56"/>
  <rect class="st20" x="742.61" y="747.41" width="8.5" height="151.49"/>
  <rect class="st20" x="661.69" y="811.24" width="8.5" height="166.83" transform="translate(-228.71 1560.6) rotate(-90)"/>
  <rect class="st20" x="634.54" y="921.03" width="8.5" height="112.52" transform="translate(-338.5 1616.08) rotate(-90)"/>
  <rect class="st20" x="465.51" y="818.54" width="8.5" height="57.18" transform="translate(-377.37 1316.89) rotate(-90)"/>
  <rect class="st20" x="463.27" y="968.94" width="8.5" height="52.34" transform="translate(-527.59 1462.63) rotate(-90)"/>
  <rect class="st20" x="559.28" y="969.19" width="8.5" height="51.85" transform="translate(-431.58 1558.65) rotate(-90)"/>
  <g>
    <rect class="st12" x="625.5" y="837.18" width="110.26" height="50.38"/>
    <rect class="st12" x="695.99" y="848.59" width="27.99" height="27.57" rx="1.42" ry="1.42" transform="translate(1572.36 152.38) rotate(90)"/>
    <polygon class="st12" points="721.34 888.2 625.21 888.2 625.21 837.18 696.47 837.18 721.34 888.2"/>
  </g>
  <rect class="st20" x="725.24" y="730.32" width="33.04" height="30.43" transform="translate(-86.7 1393.37) rotate(-83.17)"/>
  <rect class="st20" x="531.44" y="657.97" width="33.04" height="127.73" transform="translate(-234.33 1179.36) rotate(-83.12)"/>
  <path class="st10" d="M485.05,897.26c9.13.04,16.54,4.55,16.54,4.55l-16.54,21.63"/>
  <g>
    <path class="st6" d="M537.69,991.06c0-11.6-4.79-22.95-13.11-31.27-8.07-8.07-19.41-12.86-31.01-12.86"/>
    <line class="st6" x1="495.33" y1="991.06" x2="537.69" y2="991.06"/>
    <polyline class="st6" points="493.56 946.93 493.56 991.06 495.33 991.06"/>
  </g>
  <g>
    <path class="st6" d="M630.94,966.8c0-11.6-4.79-22.95-13.11-31.27-8.07-8.07-19.41-12.86-31.01-12.86"/>
    <line class="st6" x1="588.58" y1="966.8" x2="630.94" y2="966.8"/>
    <polyline class="st6" points="586.81 922.68 586.81 966.8 588.58 966.8"/>
  </g>
  <g>
    <path class="st9" d="M640.05,726.24c-1.47,5.14-4.6,9.25-9.03,12.81-5.29,4.25-12.24,6.3-18.99,5.47"/>
    <line class="st9" x1="612.02" y1="744.52" x2="614.68" y2="722.96"/>
  </g>
  <g>
    <path class="st10" d="M699.66,733.2c.19,5.34,2.23,10.09,5.68,14.62,4.12,5.41,10.4,9.09,17.17,9.92"/>
    <line class="st10" x1="722.51" y1="757.73" x2="725.21" y2="735.84"/>
  </g>
  <path class="st4" d="M614.93,712.91"/>
  <path class="st4" d="M614.93,712.91"/>
  <path class="st4" d="M614.93,712.91"/>
  <path class="st4" d="M614.93,712.91"/>
  <g>
    <path class="st17" d="M728.29,726.59"/>
    <path class="st4" d="M727.15,726.47"/>
    <path class="st4" d="M727.15,726.47"/>
    <path class="st4" d="M727.15,726.47"/>
    <path class="st4" d="M727.15,726.47"/>
    <line class="st6" x1="614.92" y1="720.26" x2="614.62" y2="722.7"/>
    <polyline class="st6" points="671.61 727.78 696.98 730.9 697.26 728.64 671.89 725.51 671.61 727.78"/>
    <polyline class="st6" points="643.32 724.3 668.69 727.42 668.97 725.16 643.6 722.03 643.32 724.3"/>
    <polyline class="st6" points="699.9 731.26 725.38 734.39 725.66 732.13 700.17 729 699.9 731.26"/>
    <polyline class="st6" points="614.86 720.79 640.34 723.93 640.62 721.67 615.14 718.53 614.86 720.79"/>
    <line class="st6" x1="699.17" y1="726.82" x2="727.22" y2="730.27"/>
    <line class="st6" x1="614.07" y1="716.35" x2="642.18" y2="719.8"/>
    <line class="st6" x1="642.54" y1="719.85" x2="670.47" y2="723.28"/>
    <line class="st6" x1="670.83" y1="723.33" x2="698.76" y2="726.77"/>
    <line class="st6" x1="700.31" y1="727.86" x2="725.8" y2="731"/>
    <line class="st6" x1="672.03" y1="724.38" x2="697.4" y2="727.5"/>
    <line class="st6" x1="643.74" y1="720.9" x2="669.11" y2="724.02"/>
    <line class="st6" x1="615.27" y1="717.4" x2="640.76" y2="720.54"/>
    <polyline class="st6" points="614.07 716.35 613.66 716.29 612.89 722.55 614.62 722.76 615.27 717.4 613.96 717.24 614.07 716.35"/>
    <polyline class="st6" points="670.83 723.33 670.47 723.28 670.36 724.18 669.11 724.02 668.45 729.38 671.37 729.74 672.03 724.38 670.72 724.22 670.83 723.33"/>
    <polyline class="st6" points="642.54 719.85 642.18 719.8 642.07 720.7 640.76 720.54 640.1 725.9 643.08 726.26 643.74 720.9 642.43 720.74 642.54 719.85"/>
    <polyline class="st6" points="727.64 730.32 727.22 730.27 727.11 731.16 725.8 731 725.14 736.36 726.87 736.57 727.64 730.32"/>
    <polyline class="st6" points="699.17 726.82 698.76 726.77 698.65 727.66 697.4 727.5 696.74 732.86 699.65 733.22 700.31 727.86 699.06 727.71 699.17 726.82"/>
    <line class="st6" x1="725.14" y1="736.36" x2="699.65" y2="733.22"/>
    <line class="st6" x1="696.74" y1="732.86" x2="671.37" y2="729.74"/>
    <line class="st6" x1="668.45" y1="729.38" x2="643.08" y2="726.26"/>
    <line class="st6" x1="640.1" y1="725.9" x2="614.62" y2="722.76"/>
    <line class="st6" x1="639.55" y1="721.54" x2="616.27" y2="718.67"/>
    <line class="st6" x1="724.59" y1="732" x2="701.31" y2="729.13"/>
    <line class="st6" x1="613.37" y1="713.24" x2="728.72" y2="727.43"/>
  </g>
  <rect class="st18" x="447.81" y="893.22" width="136.76" height="86.54"/>
</svg>