<?xml version="1.0" encoding="UTF-8"?>
<svg id="Vinduer_i_facade" xmlns="http://www.w3.org/2000/svg" version="1.1" viewBox="0 0 1200 1697.14">
  <!-- Generator: Adobe Illustrator 29.6.0, SVG Export Plug-In . SVG Version: 2.1.1 Build 207)  -->
  <defs>
    <style>
      .st0 {
        fill: #e2dedb;
      }

      .st1 {
        stroke-miterlimit: 10;
      }

      .st1, .st2, .st3, .st4, .st5, .st6, .st7, .st8, .st9, .st10, .st11, .st12 {
        stroke: #363a3b;
      }

      .st1, .st5, .st13, .st14, .st15, .st11 {
        stroke-width: .28px;
      }

      .st1, .st16, .st10, .st11, .st12 {
        fill: #fff;
      }

      .st2 {
        stroke-width: .29px;
      }

      .st2, .st3, .st4, .st5, .st6, .st7, .st8, .st13, .st9, .st14, .st17, .st15 {
        fill: none;
      }

      .st2, .st3, .st4, .st5, .st6, .st7, .st8, .st13, .st9, .st14, .st17, .st15, .st10, .st11, .st12 {
        stroke-linecap: round;
        stroke-linejoin: round;
      }

      .st3 {
        stroke-width: .3px;
      }

      .st4 {
        stroke-width: .28px;
      }

      .st6, .st10 {
        stroke-width: .28px;
      }

      .st7 {
        stroke-width: .29px;
      }

      .st18 {
        fill: #ece8e5;
      }

      .st8 {
        stroke-dasharray: .06 .42;
        stroke-width: .18px;
      }

      .st13, .st14, .st17, .st15 {
        stroke: #000;
      }

      .st9, .st17 {
        stroke-dasharray: .06 .43;
        stroke-width: .18px;
      }

      .st14 {
        stroke-dasharray: .09 .69;
      }

      .st15 {
        stroke-dasharray: .09 .68;
      }

      .st19 {
        fill: #302c35;
      }

      .st12 {
        stroke-width: .29px;
      }
    </style>
  </defs>
  <polygon class="st18" points="594.34 684.23 594.81 839.76 580.04 839.76 580.04 862.39 545.97 862.39 545.97 929.74 448.35 929.74 448.35 1013.63 545.83 1013.63 545.83 1022.75 709.39 1022.75 709.39 990.43 748.53 990.43 748.53 698.24 594.34 684.23"/>
  <rect class="st0" x="567.24" y="933.66" width="137.58" height="80.72"/>
  <g>
    <line class="st5" x1="711.68" y1="976.12" x2="730.94" y2="976.12"/>
    <line class="st5" x1="730.94" y1="974.74" x2="711.68" y2="974.74"/>
    <polyline class="st5" points="730.94 976.12 733.82 976.12 733.82 974.74 730.94 974.74 730.94 976.12"/>
    <polyline class="st5" points="708.86 976.12 711.68 976.12 711.68 974.74 708.86 974.74 708.86 976.12"/>
    <line class="st5" x1="710.66" y1="979.18" x2="710.66" y2="976.36"/>
    <line class="st5" x1="731.83" y1="979.18" x2="731.83" y2="976.36"/>
  </g>
  <g>
    <rect class="st6" x="645.79" y="983.03" width="35.16" height="27.64" transform="translate(1660.21 333.47) rotate(90)"/>
    <rect class="st6" x="673.49" y="983.03" width="35.16" height="27.64" transform="translate(1687.91 305.77) rotate(90)"/>
  </g>
  <g>
    <g>
      <path class="st11" d="M666.22,904.18c-5.04,5.04-4.78,13.46.58,18.82,3.94,3.94,10.43,5.27,15.41,2.98.68-.31,2.1-.98,3.41-2.4,4.11-4.46,4.68-13.56-.58-18.82s-13.78-5.62-18.82-.58Z"/>
      <path class="st5" d="M682.3,924.35c-3.1,3.1-9.37,1.83-14.02-2.82"/>
      <path class="st5" d="M665.46,907.51c-3.1,3.1-1.83,9.37,2.82,14.02"/>
      <path class="st5" d="M665.46,907.51c.61-.61.62-1.59.02-2.19"/>
      <path class="st5" d="M682.3,924.35c.61-.61,1.63-.58,2.28.07"/>
    </g>
    <g>
      <path class="st11" d="M697.53,872.87c5.04-5.04,13.46-4.78,18.82.58,3.94,3.94,5.27,10.43,2.98,15.41-.31.68-.98,2.1-2.4,3.41-4.46,4.11-13.56,4.68-18.82-.58-5.36-5.36-5.62-13.78-.58-18.82Z"/>
      <path class="st5" d="M717.7,888.95c3.1-3.1,1.83-9.37-2.82-14.02"/>
      <path class="st5" d="M700.86,872.11c3.1-3.1,9.37-1.83,14.02,2.82"/>
      <path class="st5" d="M700.86,872.11c-.61.61-1.59.62-2.19.02"/>
      <path class="st5" d="M717.7,888.95c-.61.61-.58,1.63.07,2.28"/>
    </g>
    <rect class="st11" x="674.48" y="877.28" width="35.68" height="40.44" transform="translate(1816.48 1042.58) rotate(135)"/>
  </g>
  <g>
    <g>
      <polyline class="st13" points="502.53 978.84 502.53 978.88 502.48 978.88"/>
      <line class="st14" x1="501.79" y1="978.88" x2="458.27" y2="978.88"/>
      <polyline class="st13" points="457.92 978.88 457.88 978.88 457.88 978.84"/>
      <line class="st15" x1="457.88" y1="978.16" x2="457.88" y2="935.14"/>
      <polyline class="st13" points="457.88 934.8 457.88 934.76 457.92 934.76"/>
      <line class="st14" x1="458.61" y1="934.76" x2="502.13" y2="934.76"/>
      <polyline class="st13" points="502.48 934.76 502.53 934.76 502.53 934.8"/>
      <line class="st15" x1="502.53" y1="935.48" x2="502.53" y2="978.5"/>
    </g>
    <g>
      <line class="st5" x1="458.05" y1="956.85" x2="470.35" y2="956.85"/>
      <path class="st11" d="M470.29,959.55c-1.52,0-2.75-1.23-2.75-2.75s1.23-2.75,2.75-2.75,2.75,1.23,2.75,2.75-1.23,2.75-2.75,2.75"/>
    </g>
  </g>
  <path class="st1" d="M457.01,1002.74h16.09c6.19,0,11.2-4.45,11.2-9.95s-5.01-9.95-11.2-9.95h-16.09s0,19.9,0,19.9Z"/>
  <g>
    <path class="st10" d="M511.15,934.13v18.5c0,.41.21.74.47.74h26.59c.32,0,.59-.33.59-.74v-18.5"/>
    <path class="st5" d="M526.03,936.82c0,.55-.45,1-1,1s-1-.45-1-1,.45-1,1-1,1,.45,1,1"/>
    <g>
      <path class="st5" d="M526.23,945.63c0,.68-.55,1.23-1.23,1.23s-1.23-.55-1.23-1.23.55-1.23,1.23-1.23,1.23.55,1.23,1.23"/>
      <path class="st5" d="M526.82,945.63c0,1-.81,1.82-1.82,1.82s-1.82-.81-1.82-1.82.81-1.82,1.82-1.82,1.82.81,1.82,1.82"/>
    </g>
    <path class="st6" d="M513.18,940.04v10.82c0,.41.23.74.52.74h22.61c.29,0,.52-.33.52-.74v-10.82c0-.41-.23-.74-.52-.74h-22.61c-.29,0-.52.33-.52.74Z"/>
  </g>
  <g>
    <rect class="st12" x="658.88" y="761.68" width="113.09" height="50.38" transform="translate(-71.44 1502.29) rotate(-90)"/>
    <rect class="st12" x="701.43" y="742.62" width="27.99" height="28.27" rx="1.45" ry="1.45"/>
    <polygon class="st12" points="741.26 745.11 741.26 843.71 690.24 843.71 690.24 770.62 741.26 745.11"/>
  </g>
  <g>
    <path class="st11" d="M634.94,714.07c6.26,7.8,12.52,15.61,18.78,23.41.18.41.03.92-.37,1.24-8.31,8.71-17.89,16.2-28.33,22.15-.17.1-.38.09-.5-.04-.59-.73-1.17-1.45-1.76-2.18l-16.98-21.01,29.17-23.57"/>
    <path class="st11" d="M633.34,712.57c.68.65,1.26,1.37,1.77,2.16.09.16.04.37-.13.51-9.16,7.76-18.44,15.35-27.86,22.78-.26.16-.57.13-.74-.07-.71-.74-1.34-1.54-1.88-2.41"/>
    <path class="st11" d="M636.02,717.83c.57-.46-.06-2.18-1.4-3.84-.11-.13-.22-.26-.33-.39l-.95-1.03c-.14-.12-.36-.11-.52.02l-28.39,22.95,1.95,2.42c.65.78,1.3,1.55,1.96,2.33.36.26.89.22,1.29-.1,9.96-5.95,18.92-13.54,26.4-22.35Z"/>
    <path class="st11" d="M634.98,716.17c.13.43.29.84.48,1.24.13.51.29,1.02.48,1.51.26.67.51,1.34.76,2.02.34.93.76,1.81,1.27,2.66.31.52.63,1.02.98,1.52.36.52.73,1.05,1.11,1.56.89,1.23,1.84,2.41,2.86,3.54,1.03,1.14,2.14,2.18,3.35,3.14.91.72,1.88,1.34,2.93,1.88.66.34,1.33.46,2.13.4.07,0,.12-.03.18-.07l.51-.41c.1-.16.12-.3.08-.47-6.07-7.51-12.14-15.02-18.21-22.53-.11-.13-.32-.14-.48-.01l-.16.13h0c-.15.13-.19.34-.1.48.21.35.42.69.63,1.04.31.44.58.89.81,1.38l.41,1.02Z"/>
    <path class="st11" d="M607.65,738.26c.39.22.76.46,1.12.73.47.24.93.5,1.37.79.6.39,1.21.78,1.81,1.16.84.53,1.61,1.13,2.33,1.8.44.41.87.83,1.28,1.27.44.47.87.94,1.3,1.41,1.02,1.13,1.97,2.3,2.86,3.54.9,1.24,1.68,2.55,2.36,3.93.51,1.04.92,2.12,1.22,3.26.19.72.18,1.4-.05,2.16-.02.06-.05.11-.11.16l-.51.41c-.18.06-.32.06-.48-.02-6.07-7.51-12.14-15.02-18.21-22.53-.11-.13-.07-.34.09-.47l.16-.13h0c.16-.12.37-.12.49,0,.29.28.59.55.88.83.36.39.75.75,1.18,1.08l.91.61Z"/>
  </g>
  <circle class="st1" cx="664.23" cy="761.28" r="13.02"/>
  <rect class="st16" x="533.84" y="880.45" width="67.5" height="35.36" transform="translate(-330.53 1465.72) rotate(-90)"/>
  <g>
    <line class="st2" x1="585.09" y1="904.9" x2="549.94" y2="904.9"/>
    <g>
      <g>
        <polyline class="st4" points="552.07 867.73 582.86 867.73 582.86 899.26 552.07 899.26 552.07 867.73"/>
        <g>
          <polyline class="st4" points="579.76 872.9 558.57 872.9 558.57 894.09 579.76 894.09 579.76 872.9"/>
          <line class="st4" x1="563.69" y1="883.55" x2="555.17" y2="883.55"/>
        </g>
      </g>
      <g>
        <g>
          <line class="st7" x1="555.14" y1="919.73" x2="563.38" y2="919.73"/>
          <line class="st7" x1="570.74" y1="919.73" x2="578.98" y2="919.73"/>
          <line class="st7" x1="574.81" y1="923.54" x2="574.81" y2="915.82"/>
          <line class="st7" x1="559.32" y1="923.54" x2="559.32" y2="915.82"/>
        </g>
        <polyline class="st3" points="552.07 911.35 582.86 911.35 582.86 928.01 552.07 928.01 552.07 911.35"/>
      </g>
    </g>
  </g>
  <rect class="st19" x="744.42" y="711.89" width="8.5" height="278.19"/>
  <rect class="st19" x="590.78" y="703.55" width="8.5" height="141.66"/>
  <rect class="st19" x="576.83" y="836.71" width="22.13" height="8.5"/>
  <rect class="st19" x="541.43" y="859.26" width="8.5" height="99.49"/>
  <rect class="st19" x="541.43" y="1002.61" width="8.5" height="13.61"/>
  <rect class="st19" x="704.77" y="982.11" width="8.5" height="40.66"/>
  <rect class="st19" x="436.84" y="925.63" width="110.64" height="8.5"/>
  <rect class="st19" x="541.43" y="1014.27" width="18.37" height="8.5"/>
  <rect class="st19" x="436.9" y="1009.1" width="113.03" height="8.5"/>
  <rect class="st19" x="604.12" y="1014.27" width="109.16" height="8.5"/>
  <rect class="st19" x="541.43" y="844.1" width="43.91" height="20.31"/>
  <rect class="st19" x="704.77" y="979.2" width="48.15" height="20.31"/>
  <rect class="st19" x="436.84" y="926.93" width="20.31" height="90.68"/>
  <polygon class="st19" points="613.38 710.73 581.57 708.25 584.66 674.37 616.46 676.85 613.38 710.73"/>
  <polygon class="st19" points="760.08 724.53 729.81 721.44 732.89 687.56 763.16 690.66 760.08 724.53"/>
  <g>
    <path class="st9" d="M649.75,979.24l21.63-16.54s4.51,7.42,4.55,16.54"/>
    <path class="st9" d="M678.7,979.24c.04-9.13,4.55-16.54,4.55-16.54l21.63,16.54"/>
  </g>
  <g>
    <path class="st5" d="M541.59,958.62c-11.6,0-22.94,4.79-31.27,13.11-8.07,8.07-12.86,19.41-12.86,31.01"/>
    <line class="st5" x1="541.59" y1="1000.98" x2="541.59" y2="958.62"/>
    <polyline class="st5" points="497.47 1002.74 541.59 1002.74 541.59 1000.98"/>
  </g>
  <g>
    <path class="st5" d="M604.12,1014.35c0-11.6-4.79-22.95-13.11-31.27-8.07-8.07-19.42-12.86-31.01-12.86"/>
    <line class="st5" x1="561.76" y1="1014.35" x2="604.12" y2="1014.35"/>
    <polyline class="st5" points="559.99 970.23 559.99 1014.35 561.76 1014.35"/>
  </g>
  <g>
    <g>
      <path class="st8" d="M643.83,688.83c-1.32,5.18-4.32,9.38-8.64,13.07-5.16,4.4-12.05,6.67-18.82,6.04"/>
      <line class="st8" x1="616.37" y1="707.94" x2="618.37" y2="686.32"/>
    </g>
    <g>
      <path class="st9" d="M703.69,694.25c.35,5.33,2.53,10.01,6.12,14.44,4.28,5.28,10.67,8.77,17.46,9.4"/>
      <line class="st9" x1="727.27" y1="718.08" x2="729.3" y2="696.12"/>
    </g>
    <line class="st5" x1="729.49" y1="694.13" x2="729.26" y2="696.58"/>
    <line class="st5" x1="618.6" y1="683.87" x2="618.37" y2="686.32"/>
    <polyline class="st5" points="675.49 689.68 700.94 692.03 701.15 689.76 675.7 687.41 675.49 689.68"/>
    <polyline class="st5" points="647.11 687.05 672.56 689.41 672.77 687.14 647.32 684.78 647.11 687.05"/>
    <polyline class="st5" points="703.87 692.3 729.44 694.67 729.65 692.4 704.08 690.03 703.87 692.3"/>
    <polyline class="st5" points="618.55 684.41 644.12 686.77 644.33 684.5 618.76 682.14 618.55 684.41"/>
    <line class="st5" x1="703.01" y1="687.89" x2="731.15" y2="690.49"/>
    <line class="st5" x1="617.64" y1="679.98" x2="645.83" y2="682.59"/>
    <line class="st5" x1="646.19" y1="682.63" x2="674.21" y2="685.22"/>
    <line class="st5" x1="674.57" y1="685.25" x2="702.59" y2="687.85"/>
    <line class="st5" x1="704.18" y1="688.9" x2="729.75" y2="691.27"/>
    <line class="st5" x1="675.8" y1="686.27" x2="701.25" y2="688.63"/>
    <line class="st5" x1="647.42" y1="683.64" x2="672.88" y2="686"/>
    <line class="st5" x1="618.87" y1="681" x2="644.44" y2="683.37"/>
    <polyline class="st5" points="617.64 679.98 617.22 679.94 616.64 686.22 618.37 686.38 618.87 681 617.55 680.88 617.64 679.98"/>
    <polyline class="st5" points="674.57 685.25 674.21 685.22 674.13 686.12 672.88 686 672.38 691.38 675.31 691.65 675.8 686.27 674.49 686.15 674.57 685.25"/>
    <polyline class="st5" points="646.19 682.63 645.83 682.59 645.75 683.49 644.44 683.37 643.94 688.75 646.93 689.02 647.42 683.64 646.11 683.52 646.19 682.63"/>
    <polyline class="st5" points="731.57 690.53 731.15 690.49 731.07 691.39 729.75 691.27 729.26 696.64 730.99 696.8 731.57 690.53"/>
    <polyline class="st5" points="703.01 687.89 702.59 687.85 702.51 688.74 701.25 688.63 700.76 694 703.68 694.28 704.18 688.9 702.93 688.78 703.01 687.89"/>
    <line class="st5" x1="729.26" y1="696.64" x2="703.68" y2="694.28"/>
    <line class="st5" x1="700.76" y1="694" x2="675.31" y2="691.65"/>
    <line class="st5" x1="672.38" y1="691.38" x2="646.93" y2="689.02"/>
    <line class="st5" x1="643.94" y1="688.75" x2="618.37" y2="686.38"/>
    <line class="st5" x1="643.26" y1="684.4" x2="619.9" y2="682.24"/>
    <line class="st5" x1="728.57" y1="692.3" x2="705.21" y2="690.14"/>
    <line class="st5" x1="616.43" y1="676.98" x2="733.37" y2="687.74"/>
  </g>
  <rect class="st17" x="567.19" y="933.66" width="137.58" height="80.77"/>
</svg>