<?xml version="1.0" encoding="UTF-8"?>
<svg id="Vinduer_i_facade" xmlns="http://www.w3.org/2000/svg" version="1.1" viewBox="0 0 1200 1697.14">
  <!-- Generator: Adobe Illustrator 29.6.0, SVG Export Plug-In . SVG Version: 2.1.1 Build 207)  -->
  <defs>
    <style>
      .st0 {
        fill: #e2dedb;
      }

      .st1, .st2, .st3, .st4, .st5, .st6, .st7, .st8, .st9, .st10, .st11 {
        stroke: #363a3b;
      }

      .st1, .st4, .st12, .st13, .st11, .st14, .st15 {
        stroke-width: .28px;
      }

      .st1, .st8 {
        stroke-miterlimit: 10;
      }

      .st1, .st16, .st10, .st11 {
        fill: #fff;
      }

      .st2 {
        stroke-width: .3px;
      }

      .st2, .st3, .st4, .st5, .st6, .st7, .st12, .st13, .st8, .st9, .st17, .st14, .st15 {
        fill: none;
      }

      .st2, .st3, .st4, .st5, .st6, .st7, .st12, .st13, .st9, .st17, .st10, .st11, .st14, .st15 {
        stroke-linecap: round;
        stroke-linejoin: round;
      }

      .st3 {
        stroke-width: .28px;
      }

      .st5, .st10 {
        stroke-width: .28px;
      }

      .st6 {
        stroke-width: .29px;
      }

      .st18 {
        fill: #ece8e5;
      }

      .st7 {
        stroke-dasharray: .06 .42;
        stroke-width: .18px;
      }

      .st12, .st13, .st17, .st15 {
        stroke: #000;
      }

      .st13 {
        stroke-dasharray: .09 .69;
      }

      .st8 {
        stroke-width: .29px;
      }

      .st9, .st17 {
        stroke-dasharray: .06 .43;
        stroke-width: .18px;
      }

      .st19 {
        fill: #302c35;
      }

      .st14 {
        stroke: #00001d;
      }

      .st15 {
        stroke-dasharray: .09 .69;
      }
    </style>
  </defs>
  <path class="st18" d="M506.31,927.38l.29,125.3h265.27c-.18-46.64-.36-109.14-.54-149.35l-141.96-.6-1.78-257.14h-206.72c.15,94.23.31,187.63.46,281.79h84.98Z"/>
  <rect class="st16" x="529.94" y="873.28" width="2.62" height="34.26" transform="translate(1421.66 359.16) rotate(90)"/>
  <polygon class="st0" points="514.31 1006.11 514.29 891.72 624.21 891.72 624.21 1006.11 514.31 1006.11"/>
  <polygon class="st16" points="421.94 923.14 422.05 904.52 421.93 889.2 505.44 889.2 505.44 923.14 421.94 923.14"/>
  <g>
    <line class="st4" x1="535.09" y1="885.91" x2="554.35" y2="885.91"/>
    <line class="st4" x1="554.35" y1="884.53" x2="535.09" y2="884.53"/>
    <polyline class="st4" points="554.35 885.91 557.23 885.91 557.23 884.53 554.35 884.53 554.35 885.91"/>
    <polyline class="st4" points="532.27 885.91 535.09 885.91 535.09 884.53 532.27 884.53 532.27 885.91"/>
    <line class="st4" x1="534.07" y1="891.72" x2="534.07" y2="886.14"/>
    <line class="st4" x1="555.24" y1="891.72" x2="555.24" y2="886.14"/>
  </g>
  <polygon class="st8" points="514.12 957.14 514.15 919.81 514.12 889.1 548.38 889.1 548.38 957.14 514.12 957.14"/>
  <g>
    <g>
      <polyline class="st3" points="543.55 950.27 522.35 950.27 522.35 929.07 543.55 929.07 543.55 950.27"/>
      <line class="st3" x1="527.48" y1="939.62" x2="518.95" y2="939.62"/>
    </g>
    <polyline class="st3" points="546.65 955.44 515.85 955.44 515.85 923.91 546.65 923.91 546.65 955.44"/>
  </g>
  <g>
    <g>
      <line class="st6" x1="543.58" y1="899.08" x2="535.34" y2="899.08"/>
      <line class="st6" x1="527.97" y1="899.08" x2="519.73" y2="899.08"/>
      <line class="st6" x1="523.91" y1="895.27" x2="523.91" y2="902.99"/>
      <line class="st6" x1="539.4" y1="895.27" x2="539.4" y2="902.99"/>
    </g>
    <polyline class="st2" points="546.65 907.46 515.85 907.46 515.85 890.8 546.65 890.8 546.65 907.46"/>
  </g>
  <polygon class="st16" points="422.38 923.32 422.49 904.65 422.37 889.3 447.41 889.3 447.41 923.32 422.38 923.32"/>
  <g>
    <line class="st4" x1="422.41" y1="923.16" x2="422.41" y2="889.2"/>
    <line class="st4" x1="422.41" y1="889.2" x2="422.41" y2="889.2"/>
    <line class="st4" x1="422.35" y1="889.2" x2="447.45" y2="889.2"/>
    <path class="st14" d="M447.84,889.2"/>
    <line class="st4" x1="447.45" y1="923.16" x2="447.45" y2="889.2"/>
  </g>
  <path class="st9" d="M448.81,889.2l-18.88-16.54s-4.19,7.42-4.23,16.54"/>
  <g>
    <polyline class="st16" points="447.43 889.37 505.58 889.37 505.58 923.39 447.44 923.39"/>
    <g>
      <line class="st4" x1="447.43" y1="923.22" x2="447.43" y2="889.2"/>
      <g>
        <line class="st4" x1="476.42" y1="923.22" x2="476.42" y2="889.2"/>
        <line class="st4" x1="477.2" y1="889.2" x2="447.49" y2="889.2"/>
        <line class="st4" x1="477.2" y1="889.2" x2="505.35" y2="889.2"/>
        <path class="st14" d="M505.74,889.2"/>
        <line class="st4" x1="505.35" y1="923.22" x2="505.35" y2="889.2"/>
      </g>
    </g>
    <path class="st9" d="M505.24,889.2l-23.45-16.54s-4.89,7.42-4.93,16.54"/>
    <path class="st9" d="M448.24,889.2l22.93-16.54s4.78,7.42,4.82,16.54"/>
  </g>
  <g>
    <g>
      <path class="st11" d="M562.57,803.65c0,7.12,6.14,12.9,13.72,12.9,5.58,0,11.1-3.65,13.01-8.79.26-.7.79-2.18.71-4.11-.24-6.06-6.28-12.9-13.72-12.9-7.58,0-13.72,5.78-13.72,12.9Z"/>
      <path class="st4" d="M588.21,806.54c0,4.38-5.33,7.92-11.91,7.92"/>
      <path class="st4" d="M564.38,806.54c0,4.38,5.33,7.92,11.91,7.92"/>
      <path class="st4" d="M564.38,806.54c0-.86-.68-1.56-1.53-1.56"/>
      <path class="st4" d="M588.21,806.54c0-.86.74-1.56,1.66-1.56"/>
    </g>
    <g>
      <path class="st11" d="M562.57,759.38c0-7.12,6.14-12.9,13.72-12.9,5.58,0,11.1,3.65,13.01,8.79.26.7.79,2.18.71,4.11-.24,6.06-6.28,12.9-13.72,12.9s-13.72-5.78-13.72-12.9Z"/>
      <path class="st4" d="M588.21,756.48c0-4.38-5.33-7.92-11.91-7.92"/>
      <path class="st4" d="M564.38,756.48c0-4.38,5.33-7.92,11.91-7.92"/>
      <path class="st4" d="M564.38,756.48c0,.86-.68,1.56-1.53,1.56"/>
      <path class="st4" d="M588.21,756.48c0,.86.74,1.56,1.66,1.56"/>
    </g>
    <rect class="st11" x="558.46" y="760.25" width="35.68" height="40.44" transform="translate(1356.77 204.18) rotate(90)"/>
  </g>
  <circle class="st1" cx="503.81" cy="708.15" r="13.02"/>
  <g>
    <polyline class="st12" points="717.11 1044.28 717.11 1044.33 717.16 1044.33"/>
    <line class="st15" x1="717.85" y1="1044.33" x2="767.37" y2="1044.33"/>
    <polyline class="st12" points="767.72 1044.33 767.76 1044.33 767.76 1044.28"/>
    <line class="st13" x1="767.76" y1="1043.59" x2="767.76" y2="994.59"/>
    <polyline class="st12" points="767.76 994.24 767.76 994.2 767.72 994.2"/>
    <line class="st15" x1="767.03" y1="994.2" x2="717.5" y2="994.2"/>
    <polyline class="st12" points="717.16 994.2 717.11 994.2 717.11 994.24"/>
    <line class="st13" x1="717.11" y1="994.93" x2="717.11" y2="1043.93"/>
  </g>
  <g>
    <line class="st4" x1="742.47" y1="1044.29" x2="742.47" y2="1031.99"/>
    <path class="st11" d="M739.78,1032.05c0,1.52,1.23,2.75,2.75,2.75s2.75-1.23,2.75-2.75-1.23-2.75-2.75-2.75-2.75,1.23-2.75,2.75"/>
  </g>
  <g>
    <path class="st10" d="M713.19,906.97v18.5c0,.41-.21.74-.47.74h-26.59c-.32,0-.59-.33-.59-.74v-18.5"/>
    <path class="st4" d="M698.31,909.67c0,.55.45,1,1,1s1-.45,1-1-.45-1-1-1-1,.45-1,1"/>
    <g>
      <path class="st4" d="M698.11,918.48c0,.68.55,1.23,1.23,1.23s1.23-.55,1.23-1.23-.55-1.23-1.23-1.23-1.23.55-1.23,1.23"/>
      <path class="st4" d="M697.52,918.48c0,1,.81,1.82,1.82,1.82s1.82-.81,1.82-1.82-.81-1.82-1.82-1.82-1.82.81-1.82,1.82"/>
    </g>
    <path class="st5" d="M711.16,912.89v10.82c0,.41-.23.74-.52.74h-22.61c-.29,0-.52-.33-.52-.74v-10.82c0-.41.23-.74.52-.74h22.61c.29,0,.52.33.52.74Z"/>
  </g>
  <g>
    <rect class="st11" x="398.8" y="708.72" width="113.09" height="50.38" transform="translate(-278.57 1189.26) rotate(-90)"/>
    <rect class="st11" x="441.62" y="690.97" width="27.44" height="27.44" rx="1.42" ry="1.42" transform="translate(910.68 1409.38) rotate(180)"/>
    <polygon class="st11" points="429.51 692.16 429.51 790.75 480.54 790.75 480.54 717.66 429.51 692.16"/>
  </g>
  <g>
    <path class="st1" d="M752.43,975.04h-16.09c-6.19,0-11.2-4.45-11.2-9.95s5.01-9.95,11.2-9.95h16.09s0,19.9,0,19.9Z"/>
    <g>
      <path class="st10" d="M753.61,955.14h8.72c.33,0,.6.2.6.44v19.02c0,.24-.27.44-.6.44h-8.72c-.33,0-.6-.2-.6-.44v-19.02c0-.24.27-.44.6-.44Z"/>
      <path class="st11" d="M758.12,966.12c.55,0,.99-.46.99-1.03s-.44-1.03-.99-1.03-.99.46-.99,1.03.44,1.03.99,1.03"/>
    </g>
  </g>
  <rect class="st17" x="512.84" y="891.61" width="111.36" height="114.5"/>
  <rect class="st19" x="411.39" y="636.15" width="13.92" height="34.02"/>
  <rect class="st19" x="541.83" y="636.15" width="89.23" height="34.02"/>
  <rect class="st19" x="626.8" y="901.82" width="44.04" height="42.96"/>
  <rect class="st19" x="622.55" y="669.25" width="8.5" height="253.89"/>
  <rect class="st19" x="505.44" y="889.03" width="8.89" height="157.07"/>
  <rect class="st19" x="767.35" y="898.92" width="21.26" height="153.91"/>
  <rect class="st19" x="624.55" y="898.92" width="151.31" height="8.5"/>
  <rect class="st19" x="416.86" y="923.14" width="93.03" height="8.5"/>
  <rect class="st19" x="595.05" y="1034.93" width="36" height="26.06"/>
  <rect class="st19" x="622.55" y="1016.3" width="8.5" height="34.38"/>
  <rect class="st19" x="623.13" y="1044.33" width="151.31" height="8.5"/>
  <rect class="st19" x="505.44" y="1044.18" width="19.52" height="8.5"/>
  <rect class="st19" x="568.87" y="1044.18" width="26.82" height="8.5"/>
  <rect class="st19" x="622.55" y="896.92" width="8.5" height="75.12"/>
  <rect class="st19" x="416.86" y="643.48" width="8.5" height="288.17"/>
  <g>
    <path class="st4" d="M626.76,972.18c11.6,0,22.95,4.79,31.27,13.11,8.07,8.07,12.86,19.42,12.86,31.01"/>
    <line class="st4" x1="626.76" y1="1014.54" x2="626.76" y2="972.18"/>
    <polyline class="st4" points="670.88 1016.3 626.76 1016.3 626.76 1014.54"/>
  </g>
  <g>
    <path class="st4" d="M568.91,1044.19c0-11.6-4.79-22.95-13.11-31.27-8.07-8.07-19.42-12.86-31.01-12.86"/>
    <line class="st4" x1="526.55" y1="1044.19" x2="568.91" y2="1044.19"/>
    <polyline class="st4" points="524.78 1000.07 524.78 1044.19 526.55 1044.19"/>
  </g>
  <g>
    <g>
      <path class="st7" d="M453.7,645.69c-.83,5.28-3.43,9.74-7.4,13.81-4.73,4.86-11.38,7.75-18.18,7.75"/>
      <line class="st7" x1="428.12" y1="667.25" x2="428.12" y2="645.53"/>
    </g>
    <g>
      <path class="st9" d="M513.8,645.56c.84,5.28,3.45,9.74,7.42,13.81,4.75,4.86,11.43,7.75,18.25,7.75"/>
      <line class="st9" x1="539.48" y1="667.12" x2="539.48" y2="645.07"/>
    </g>
    <line class="st4" x1="539.48" y1="643.07" x2="539.48" y2="645.53"/>
    <polyline class="st4" points="485.3 643.61 510.86 643.61 510.86 641.33 485.3 641.33 485.3 643.61"/>
    <polyline class="st4" points="456.8 643.61 482.36 643.61 482.36 641.33 456.8 641.33 456.8 643.61"/>
    <polyline class="st4" points="513.8 643.61 539.48 643.61 539.48 641.33 513.8 641.33 513.8 643.61"/>
    <polyline class="st4" points="428.12 643.61 453.8 643.61 453.8 641.33 428.12 641.33 428.12 643.61"/>
    <line class="st4" x1="512.54" y1="639.29" x2="540.8" y2="639.29"/>
    <line class="st4" x1="426.8" y1="639.29" x2="455.12" y2="639.29"/>
    <line class="st4" x1="455.48" y1="639.29" x2="483.62" y2="639.29"/>
    <line class="st4" x1="483.98" y1="639.29" x2="512.12" y2="639.29"/>
    <line class="st4" x1="513.8" y1="640.19" x2="539.48" y2="640.19"/>
    <line class="st4" x1="485.3" y1="640.19" x2="510.86" y2="640.19"/>
    <line class="st4" x1="456.8" y1="640.19" x2="482.36" y2="640.19"/>
    <line class="st4" x1="428.12" y1="640.19" x2="453.8" y2="640.19"/>
    <polyline class="st4" points="426.8 639.29 426.38 639.29 426.38 645.59 428.12 645.59 428.12 640.19 426.8 640.19 426.8 639.29"/>
    <polyline class="st4" points="483.98 639.29 483.62 639.29 483.62 640.19 482.36 640.19 482.36 645.59 485.3 645.59 485.3 640.19 483.98 640.19 483.98 639.29"/>
    <polyline class="st4" points="455.48 639.29 455.12 639.29 455.12 640.19 453.8 640.19 453.8 645.59 456.8 645.59 456.8 640.19 455.48 640.19 455.48 639.29"/>
    <polyline class="st4" points="541.22 639.29 540.8 639.29 540.8 640.19 539.48 640.19 539.48 645.59 541.22 645.59 541.22 639.29"/>
    <polyline class="st4" points="512.54 639.29 512.12 639.29 512.12 640.19 510.86 640.19 510.86 645.59 513.8 645.59 513.8 640.19 512.54 640.19 512.54 639.29"/>
    <line class="st4" x1="539.48" y1="645.59" x2="513.8" y2="645.59"/>
    <line class="st4" x1="510.86" y1="645.59" x2="485.3" y2="645.59"/>
    <line class="st4" x1="482.36" y1="645.59" x2="456.8" y2="645.59"/>
    <line class="st4" x1="453.8" y1="645.59" x2="428.12" y2="645.59"/>
    <line class="st4" x1="452.72" y1="641.33" x2="429.26" y2="641.33"/>
    <line class="st4" x1="538.4" y1="641.33" x2="514.94" y2="641.33"/>
    <line class="st4" x1="425.72" y1="636.29" x2="541.94" y2="636.29"/>
  </g>
</svg>