<?xml version="1.0" encoding="UTF-8"?>
<svg id="Tekst" xmlns="http://www.w3.org/2000/svg" version="1.1" viewBox="0 0 1200 1697.14">
  <!-- Generator: Adobe Illustrator 29.6.0, SVG Export Plug-In . SVG Version: 2.1.1 Build 207)  -->
  <defs>
    <style>
      .st0, .st1, .st2, .st3, .st4, .st5, .st6, .st7, .st8, .st9, .st10, .st11, .st12, .st13, .st14 {
        fill: none;
      }

      .st15 {
        fill: #e2dedb;
      }

      .st16, .st1, .st2, .st3, .st4, .st5, .st6, .st7, .st9, .st10, .st17, .st18, .st19 {
        stroke: #363a3b;
      }

      .st16, .st3, .st18, .st14 {
        stroke-width: .28px;
      }

      .st16, .st9 {
        stroke-miterlimit: 10;
      }

      .st16, .st20, .st17, .st18, .st19 {
        fill: #fff;
      }

      .st1 {
        stroke-width: .3px;
      }

      .st1, .st2, .st3, .st4, .st5, .st6, .st7, .st8, .st10, .st11, .st12, .st13, .st17, .st18, .st19, .st14 {
        stroke-linecap: round;
        stroke-linejoin: round;
      }

      .st2 {
        stroke-width: .28px;
      }

      .st4, .st17 {
        stroke-width: .28px;
      }

      .st5 {
        stroke-width: .29px;
      }

      .st6, .st8, .st11, .st13, .st19 {
        stroke-width: .18px;
      }

      .st21 {
        fill: #ece8e5;
      }

      .st7 {
        stroke-dasharray: .06 .42;
        stroke-width: .18px;
      }

      .st8, .st11, .st12, .st13 {
        stroke: #000;
      }

      .st9 {
        stroke-width: .29px;
      }

      .st10, .st12 {
        stroke-dasharray: .06 .43;
        stroke-width: .18px;
      }

      .st22 {
        fill: #e2e3e2;
      }

      .st11 {
        stroke-dasharray: .09 .69;
      }

      .st13 {
        stroke-dasharray: .09 .68;
      }

      .st23 {
        fill: #302c35;
      }

      .st14 {
        stroke: #00001d;
      }
    </style>
  </defs>
  <polygon class="st21" points="576.58 728.13 751.28 728.13 751.28 863.14 624.31 863.14 624.58 977.27 452.98 977.27 452.98 889.65 490.79 889.65 490.79 728.13 576.58 728.13"/>
  <rect class="st20" x="446.05" y="799.65" width="123.85" height="34.38" transform="translate(1324.81 308.87) rotate(90)"/>
  <polyline class="st0" points="488.03 817.2 488.06 853.45 488.03 883.26 528 883.26 528 817.2"/>
  <g>
    <g>
      <line class="st3" x1="491.14" y1="782.91" x2="524.99" y2="782.91"/>
      <path class="st3" d="M524.99,782.17"/>
      <line class="st3" x1="524.99" y1="782.91" x2="524.99" y2="754.92"/>
      <path class="st14" d="M524.99,754.55"/>
      <line class="st3" x1="491.14" y1="754.92" x2="524.99" y2="754.92"/>
    </g>
    <path class="st10" d="M525.16,755.03l16.54,22.69s-7.42,4.73-16.54,4.77"/>
  </g>
  <g>
    <g>
      <line class="st3" x1="491.14" y1="782.91" x2="524.99" y2="782.91"/>
      <path class="st3" d="M524.99,783.66"/>
      <line class="st3" x1="524.99" y1="782.91" x2="524.99" y2="810.65"/>
      <path class="st14" d="M524.99,811.02"/>
      <line class="st3" x1="491.14" y1="810.65" x2="524.99" y2="810.65"/>
    </g>
    <path class="st10" d="M525.16,810.54l16.54-22.48s-7.42-4.69-16.54-4.73"/>
  </g>
  <g>
    <g>
      <polyline class="st8" points="497.6 933.61 497.6 933.66 497.55 933.66"/>
      <line class="st11" x1="496.86" y1="933.66" x2="453.34" y2="933.66"/>
      <polyline class="st8" points="452.99 933.66 452.95 933.66 452.95 933.61"/>
      <line class="st13" x1="452.95" y1="932.93" x2="452.95" y2="889.92"/>
      <polyline class="st8" points="452.95 889.58 452.95 889.53 452.99 889.53"/>
      <line class="st11" x1="453.68" y1="889.53" x2="497.2" y2="889.53"/>
      <polyline class="st8" points="497.55 889.53 497.6 889.53 497.6 889.58"/>
      <line class="st13" x1="497.6" y1="890.26" x2="497.6" y2="933.27"/>
    </g>
    <g>
      <line class="st6" x1="453.14" y1="909.91" x2="465.44" y2="909.91"/>
      <path class="st19" d="M465.38,912.6c-1.52,0-2.75-1.23-2.75-2.75s1.23-2.75,2.75-2.75,2.75,1.23,2.75,2.75-1.23,2.75-2.75,2.75"/>
    </g>
  </g>
  <g>
    <g>
      <path class="st18" d="M618.12,756.24c4.75,8.8,9.5,17.61,14.26,26.41.3.32.84.38,1.29.14,11.26-4.27,21.88-10.18,31.43-17.48.16-.12.23-.31.16-.47-.44-.82-.88-1.65-1.32-2.47l-12.74-23.82-33.07,17.69"/>
      <path class="st18" d="M617.37,754.18c.34.88.77,1.69,1.3,2.47.11.15.33.18.52.08,10.71-5.41,21.32-11.01,31.83-16.8.25-.17.35-.48.23-.71-.41-.95-.9-1.83-1.49-2.67"/>
      <path class="st18" d="M621.16,758.7c-.64.34-1.98-.9-2.99-2.79-.08-.15-.15-.31-.23-.46l-.58-1.27c-.06-.17.03-.38.22-.47l32.19-17.22,1.47,2.74c.46.9.92,1.8,1.38,2.71.1.43-.15.91-.6,1.15-9.35,6.86-19.83,12.16-30.87,15.62Z"/>
      <path class="st18" d="M620.05,757.09c.34.29.66.59.96.92.42.32.82.67,1.2,1.03.52.5,1.04.99,1.56,1.48.72.68,1.37,1.41,1.95,2.2.36.49.7.98,1.02,1.49.34.54.68,1.08,1.01,1.63.79,1.3,1.5,2.63,2.15,4.01.65,1.39,1.17,2.82,1.58,4.31.31,1.12.5,2.25.59,3.43.05.74-.09,1.4-.46,2.12-.03.06-.07.1-.14.13l-.58.31c-.19.03-.33,0-.46-.1-4.56-8.52-9.11-17.03-13.67-25.55-.08-.15,0-.35.17-.45l.18-.09h0c.18-.09.39-.05.48.1.24.33.48.65.71.98.28.45.6.88.96,1.28l.78.77Z"/>
      <path class="st18" d="M651.03,740.51c.05.45.13.88.23,1.31.04.53.1,1.05.19,1.57.13.71.25,1.41.37,2.12.16.98.41,1.92.75,2.85.21.57.43,1.12.67,1.67.26.58.52,1.16.79,1.74.64,1.38,1.36,2.71,2.15,4.01.8,1.31,1.69,2.54,2.7,3.71.76.88,1.6,1.67,2.53,2.4.59.46,1.22.71,2.01.79.07,0,.12,0,.19-.04l.58-.31c.13-.14.18-.27.17-.44-4.56-8.52-9.11-17.03-13.67-25.55-.08-.15-.29-.2-.47-.1l-.18.09h0c-.17.1-.25.29-.19.45.14.38.28.76.42,1.14.22.49.4.99.53,1.51l.21,1.08Z"/>
    </g>
    <circle class="st16" cx="664.36" cy="797.7" r="13.02"/>
  </g>
  <g>
    <rect class="st18" x="660.48" y="791.76" width="113.09" height="50.38" transform="translate(-99.93 1533.98) rotate(-90)"/>
    <rect class="st18" x="703.31" y="774.01" width="27.44" height="27.44" rx="1.42" ry="1.42"/>
    <polygon class="st18" points="742.86 775.2 742.86 873.79 691.83 873.79 691.83 800.7 742.86 775.2"/>
  </g>
  <path class="st16" d="M452.95,939.37h16.09c6.19,0,11.2,4.45,11.2,9.95s-5.01,9.95-11.2,9.95h-16.09s0-19.9,0-19.9Z"/>
  <g>
    <path class="st17" d="M534.58,889.53v18.5c0,.41-.21.74-.47.74h-26.59c-.32,0-.59-.33-.59-.74v-18.5"/>
    <path class="st3" d="M519.71,892.23c0,.55.45,1,1,1s1-.45,1-1-.45-1-1-1-1,.45-1,1"/>
    <g>
      <path class="st3" d="M519.5,901.04c0,.68.55,1.23,1.23,1.23s1.23-.55,1.23-1.23-.55-1.23-1.23-1.23-1.23.55-1.23,1.23"/>
      <path class="st3" d="M518.92,901.04c0,1,.81,1.82,1.82,1.82s1.82-.81,1.82-1.82-.81-1.82-1.82-1.82-1.82.81-1.82,1.82"/>
    </g>
    <path class="st4" d="M532.56,895.44v10.82c0,.41-.23.74-.52.74h-22.61c-.29,0-.52-.33-.52-.74v-10.82c0-.41.23-.74.52-.74h22.61c.29,0,.52.33.52.74Z"/>
  </g>
  <g>
    <line class="st3" x1="620.18" y1="967.35" x2="600.92" y2="967.35"/>
    <line class="st3" x1="600.92" y1="965.97" x2="620.18" y2="965.97"/>
    <polyline class="st3" points="600.92 967.35 598.04 967.35 598.04 965.97 600.92 965.97 600.92 967.35"/>
    <polyline class="st3" points="623 967.35 620.18 967.35 620.18 965.97 623 965.97 623 967.35"/>
    <line class="st3" x1="621.2" y1="970.41" x2="621.2" y2="967.59"/>
    <line class="st3" x1="600.03" y1="970.41" x2="600.03" y2="967.59"/>
  </g>
  <g>
    <g>
      <path class="st18" d="M624.25,894.94c0,7.12-6.14,12.9-13.72,12.9-5.58,0-11.1-3.65-13.01-8.79-.26-.7-.79-2.18-.71-4.11.24-6.06,6.28-12.9,13.72-12.9s13.72,5.78,13.72,12.9Z"/>
      <path class="st3" d="M598.62,897.83c0,4.38,5.33,7.92,11.91,7.92"/>
      <path class="st3" d="M622.44,897.83c0,4.38-5.33,7.92-11.91,7.92"/>
      <path class="st3" d="M622.44,897.83c0-.86.68-1.56,1.53-1.56"/>
      <path class="st3" d="M598.62,897.83c0-.86-.74-1.56-1.66-1.56"/>
    </g>
    <g>
      <path class="st18" d="M624.25,850.66c0-7.12-6.14-12.9-13.72-12.9-5.58,0-11.1,3.65-13.01,8.79-.26.7-.79,2.18-.71,4.11.24,6.06,6.28,12.9,13.72,12.9,7.58,0,13.72-5.78,13.72-12.9Z"/>
      <path class="st3" d="M598.62,847.77c0-4.38,5.33-7.92,11.91-7.92"/>
      <path class="st3" d="M622.44,847.77c0-4.38-5.33-7.92-11.91-7.92"/>
      <path class="st3" d="M622.44,847.77c0,.86.68,1.56,1.53,1.56"/>
      <path class="st3" d="M598.62,847.77c0,.86-.74,1.56-1.66,1.56"/>
    </g>
    <rect class="st18" x="592.69" y="851.54" width="35.68" height="40.44" transform="translate(1482.28 261.23) rotate(90)"/>
  </g>
  <polygon class="st9" points="490.74 878.76 490.76 841.43 490.73 810.72 524.99 810.72 524.99 878.76 490.74 878.76"/>
  <g>
    <g>
      <polyline class="st2" points="520.16 871.89 498.96 871.89 498.96 850.7 520.16 850.7 520.16 871.89"/>
      <line class="st2" x1="504.09" y1="861.24" x2="495.57" y2="861.24"/>
    </g>
    <polyline class="st2" points="523.26 877.06 492.47 877.06 492.46 845.53 523.26 845.53 523.26 877.06"/>
  </g>
  <g>
    <g>
      <line class="st5" x1="520.19" y1="820.7" x2="511.95" y2="820.7"/>
      <line class="st5" x1="504.59" y1="820.7" x2="496.35" y2="820.7"/>
      <line class="st5" x1="500.52" y1="816.89" x2="500.52" y2="824.62"/>
      <line class="st5" x1="516.01" y1="816.89" x2="516.01" y2="824.62"/>
    </g>
    <polyline class="st1" points="523.26 829.09 492.47 829.09 492.47 812.42 523.26 812.42 523.26 829.09"/>
  </g>
  <polygon class="st15" points="692.39 947.64 692.39 969.95 624.54 970 624.31 863.14 747.02 863.14 747.02 947.64 692.39 947.64"/>
  <g>
    <path class="st3" d="M541.55,914.1c-11.6,0-22.95,4.79-31.27,13.11-8.07,8.07-12.86,19.42-12.86,31.01"/>
    <line class="st3" x1="541.55" y1="956.46" x2="541.55" y2="914.1"/>
    <polyline class="st3" points="497.42 958.23 541.55 958.23 541.55 956.46"/>
  </g>
  <g>
    <path class="st3" d="M684.32,925.82c-11.6,0-22.95,4.79-31.27,13.11-8.07,8.07-12.86,19.42-12.86,31.01"/>
    <line class="st3" x1="684.32" y1="968.18" x2="684.32" y2="925.82"/>
    <polyline class="st3" points="640.19 969.95 684.32 969.95 684.32 968.18"/>
  </g>
  <rect class="st23" x="482.29" y="751.95" width="8.5" height="131.53"/>
  <rect class="st23" x="747.03" y="718.69" width="8.5" height="237.46"/>
  <rect class="st23" x="536.87" y="881.03" width="8.5" height="33.03"/>
  <rect class="st23" x="536.87" y="958.22" width="8.5" height="20.23"/>
  <rect class="st23" x="444.47" y="881.03" width="8.5" height="97.42"/>
  <rect class="st23" x="692.39" y="947.64" width="8.5" height="30.81"/>
  <rect class="st23" x="477.19" y="718.69" width="109.86" height="34.02"/>
  <rect class="st23" x="703.31" y="718.69" width="52.22" height="34.02"/>
  <rect class="st23" x="692.39" y="947.64" width="63.14" height="8.5"/>
  <rect class="st23" x="684.32" y="969.95" width="16.58" height="8.5"/>
  <rect class="st22" x="639.71" y="970" width="44.6" height="8.45"/>
  <rect class="st23" x="444.7" y="969.95" width="195.58" height="8.5"/>
  <rect class="st23" x="444.7" y="964.64" width="92.17" height="8.5"/>
  <rect class="st23" x="444.47" y="881.03" width="100.79" height="8.5"/>
  <polygon class="st23" points="444.47 874.93 444.47 883.43 490.79 883.48 490.79 874.98 444.47 874.93"/>
  <g>
    <g>
      <path class="st7" d="M615.04,728.27c-.83,5.28-3.43,9.74-7.4,13.81-4.73,4.86-11.38,7.75-18.18,7.75"/>
      <line class="st7" x1="589.46" y1="749.83" x2="589.46" y2="728.11"/>
    </g>
    <g>
      <path class="st10" d="M675.14,728.14c.84,5.28,3.45,9.74,7.42,13.81,4.75,4.86,11.43,7.75,18.25,7.75"/>
      <line class="st10" x1="700.82" y1="749.71" x2="700.82" y2="727.65"/>
    </g>
    <line class="st3" x1="700.82" y1="725.65" x2="700.82" y2="728.11"/>
    <polyline class="st3" points="646.64 726.19 672.2 726.19 672.2 723.91 646.64 723.91 646.64 726.19"/>
    <polyline class="st3" points="618.14 726.19 643.7 726.19 643.7 723.91 618.14 723.91 618.14 726.19"/>
    <polyline class="st3" points="675.14 726.19 700.82 726.19 700.82 723.91 675.14 723.91 675.14 726.19"/>
    <polyline class="st3" points="589.46 726.19 615.14 726.19 615.14 723.91 589.46 723.91 589.46 726.19"/>
    <line class="st3" x1="673.88" y1="721.87" x2="702.14" y2="721.87"/>
    <line class="st3" x1="588.14" y1="721.87" x2="616.46" y2="721.87"/>
    <line class="st3" x1="616.82" y1="721.87" x2="644.96" y2="721.87"/>
    <line class="st3" x1="645.32" y1="721.87" x2="673.46" y2="721.87"/>
    <line class="st3" x1="675.14" y1="722.77" x2="700.82" y2="722.77"/>
    <line class="st3" x1="646.64" y1="722.77" x2="672.2" y2="722.77"/>
    <line class="st3" x1="618.14" y1="722.77" x2="643.7" y2="722.77"/>
    <line class="st3" x1="589.46" y1="722.77" x2="615.14" y2="722.77"/>
    <polyline class="st3" points="588.14 721.87 587.72 721.87 587.72 728.17 589.46 728.17 589.46 722.77 588.14 722.77 588.14 721.87"/>
    <polyline class="st3" points="645.32 721.87 644.96 721.87 644.96 722.77 643.7 722.77 643.7 728.17 646.64 728.17 646.64 722.77 645.32 722.77 645.32 721.87"/>
    <polyline class="st3" points="616.82 721.87 616.46 721.87 616.46 722.77 615.14 722.77 615.14 728.17 618.14 728.17 618.14 722.77 616.82 722.77 616.82 721.87"/>
    <polyline class="st3" points="702.56 721.87 702.14 721.87 702.14 722.77 700.82 722.77 700.82 728.17 702.56 728.17 702.56 721.87"/>
    <polyline class="st3" points="673.88 721.87 673.46 721.87 673.46 722.77 672.2 722.77 672.2 728.17 675.14 728.17 675.14 722.77 673.88 722.77 673.88 721.87"/>
    <line class="st3" x1="700.82" y1="728.17" x2="675.14" y2="728.17"/>
    <line class="st3" x1="672.2" y1="728.17" x2="646.64" y2="728.17"/>
    <line class="st3" x1="643.7" y1="728.17" x2="618.14" y2="728.17"/>
    <line class="st3" x1="615.14" y1="728.17" x2="589.46" y2="728.17"/>
    <line class="st3" x1="614.06" y1="723.91" x2="590.6" y2="723.91"/>
    <line class="st3" x1="699.74" y1="723.91" x2="676.28" y2="723.91"/>
    <line class="st3" x1="587.06" y1="718.87" x2="703.28" y2="718.87"/>
  </g>
  <polyline class="st12" points="751.28 863.14 624.31 863.14 624.31 969.95"/>
  <path class="st12" d="M751.28,969.95"/>
</svg>