<?xml version="1.0" encoding="UTF-8"?>
<svg id="Vinduer_i_facade" xmlns="http://www.w3.org/2000/svg" version="1.1" viewBox="0 0 1200 1697.14">
  <!-- Generator: Adobe Illustrator 29.6.0, SVG Export Plug-In . SVG Version: 2.1.1 Build 207)  -->
  <defs>
    <style>
      .st0 {
        fill: #e2dedb;
      }

      .st1 {
        stroke-miterlimit: 10;
      }

      .st1, .st2, .st3, .st4, .st5, .st6, .st7, .st8, .st9, .st10, .st11, .st12 {
        stroke: #363a3b;
      }

      .st1, .st6, .st13, .st14, .st15, .st12 {
        stroke-width: .28px;
      }

      .st1, .st16, .st11, .st12 {
        fill: #fff;
      }

      .st2 {
        stroke-width: .29px;
      }

      .st2, .st3, .st4, .st5, .st6, .st7, .st8, .st13, .st9, .st10, .st14, .st17, .st15 {
        fill: none;
      }

      .st2, .st3, .st4, .st5, .st6, .st7, .st8, .st13, .st9, .st10, .st14, .st17, .st15, .st11, .st12 {
        stroke-linecap: round;
        stroke-linejoin: round;
      }

      .st3 {
        stroke-width: .3px;
      }

      .st4 {
        stroke-width: .3px;
      }

      .st5 {
        stroke-width: .28px;
      }

      .st7, .st11 {
        stroke-width: .28px;
      }

      .st8 {
        stroke-width: .29px;
      }

      .st18 {
        fill: #ece8e5;
      }

      .st13, .st14, .st17, .st15 {
        stroke: #000;
      }

      .st9, .st10 {
        stroke-width: .18px;
      }

      .st9, .st17 {
        stroke-dasharray: .06 .43;
      }

      .st10 {
        stroke-dasharray: .07 .53;
      }

      .st14 {
        stroke-dasharray: .09 .69;
      }

      .st17 {
        stroke-width: .18px;
      }

      .st15 {
        stroke-dasharray: .09 .68;
      }

      .st19 {
        fill: #302c35;
      }
    </style>
  </defs>
  <polygon class="st18" points="719.21 702.77 482.46 702.77 482.46 883.55 517.18 884.27 515.87 991.6 600.37 990.15 600.28 1004.05 718.85 1003.93 719.21 702.77"/>
  <rect class="st16" x="663.78" y="863.61" width="67.5" height="34.91" transform="translate(1578.6 183.53) rotate(90)"/>
  <rect class="st0" x="602.98" y="877.35" width="99.37" height="118.33"/>
  <g>
    <line class="st6" x1="605.95" y1="874.2" x2="625.21" y2="874.2"/>
    <line class="st6" x1="625.21" y1="872.82" x2="605.95" y2="872.82"/>
    <polyline class="st6" points="625.21 874.2 628.09 874.2 628.09 872.82 625.21 872.82 625.21 874.2"/>
    <polyline class="st6" points="603.13 874.2 605.95 874.2 605.95 872.82 603.13 872.82 603.13 874.2"/>
    <line class="st6" x1="604.93" y1="877.26" x2="604.93" y2="874.44"/>
    <line class="st6" x1="626.1" y1="877.26" x2="626.1" y2="874.44"/>
  </g>
  <rect class="st6" x="601.72" y="964.97" width="33.88" height="27.64" transform="translate(1597.45 360.13) rotate(90)"/>
  <g>
    <polyline class="st13" points="521.92 924.58 521.88 924.58 521.88 924.63"/>
    <line class="st14" x1="521.88" y1="925.32" x2="521.88" y2="968.84"/>
    <polyline class="st13" points="521.88 969.18 521.88 969.23 521.92 969.23"/>
    <line class="st15" x1="522.61" y1="969.23" x2="565.62" y2="969.23"/>
    <polyline class="st13" points="565.96 969.23 566.01 969.23 566.01 969.18"/>
    <line class="st14" x1="566.01" y1="968.49" x2="566.01" y2="924.97"/>
    <polyline class="st13" points="566.01 924.63 566.01 924.58 565.96 924.58"/>
    <line class="st15" x1="565.28" y1="924.58" x2="522.26" y2="924.58"/>
  </g>
  <g>
    <line class="st6" x1="543.91" y1="969.05" x2="543.91" y2="956.75"/>
    <path class="st12" d="M541.21,956.81c0,1.52,1.23,2.75,2.75,2.75s2.75-1.23,2.75-2.75-1.23-2.75-2.75-2.75-2.75,1.23-2.75,2.75"/>
  </g>
  <path class="st1" d="M569.27,973.13v-16.09c0-6.19,4.45-11.2,9.95-11.2s9.95,5.01,9.95,11.2v16.09s-19.9,0-19.9,0Z"/>
  <g>
    <rect class="st12" x="456.67" y="794.38" width="110.26" height="50.38" transform="translate(1331.37 307.77) rotate(90)"/>
    <rect class="st12" x="497.81" y="835.15" width="27.99" height="27.57" rx="1.42" ry="1.42"/>
    <polygon class="st12" points="537.63 860.28 537.63 764.15 486.61 764.15 486.61 835.41 537.63 860.28"/>
  </g>
  <g>
    <g>
      <path class="st12" d="M686.02,771.57c0-7.12-6.14-12.9-13.72-12.9-5.58,0-11.1,3.65-13.01,8.79-.26.7-.79,2.18-.71,4.11.24,6.06,6.28,12.9,13.72,12.9,7.58,0,13.72-5.78,13.72-12.9Z"/>
      <path class="st6" d="M660.39,768.68c0-4.38,5.33-7.92,11.91-7.92"/>
      <path class="st6" d="M684.21,768.68c0-4.38-5.33-7.92-11.91-7.92"/>
      <path class="st6" d="M684.21,768.68c0,.86.68,1.56,1.53,1.56"/>
      <path class="st6" d="M660.39,768.68c0,.86-.74,1.56-1.66,1.56"/>
    </g>
    <g>
      <path class="st12" d="M686.02,815.84c0,7.12-6.14,12.9-13.72,12.9-5.58,0-11.1-3.65-13.01-8.79-.26-.7-.79-2.18-.71-4.11.24-6.06,6.28-12.9,13.72-12.9s13.72,5.78,13.72,12.9Z"/>
      <path class="st6" d="M660.39,818.74c0,4.38,5.33,7.92,11.91,7.92"/>
      <path class="st6" d="M684.21,818.74c0,4.38-5.33,7.92-11.91,7.92"/>
      <path class="st6" d="M684.21,818.74c0-.86.68-1.56,1.53-1.56"/>
      <path class="st6" d="M660.39,818.74c0-.86-.74-1.56-1.66-1.56"/>
    </g>
    <rect class="st12" x="654.46" y="774.53" width="35.68" height="40.44" transform="translate(-122.45 1467.04) rotate(-90)"/>
  </g>
  <circle class="st1" cx="564.87" cy="801.68" r="13.02"/>
  <line class="st2" x1="715.1" y1="874.01" x2="680.23" y2="874.01"/>
  <g>
    <g>
      <g>
        <polyline class="st5" points="685.46 906.01 706.65 906.01 706.65 884.82 685.46 884.82 685.46 906.01"/>
        <line class="st5" x1="701.53" y1="895.36" x2="710.05" y2="895.36"/>
      </g>
      <polyline class="st5" points="682.35 911.18 713.15 911.18 713.15 879.65 682.35 879.65 682.35 911.18"/>
    </g>
    <g>
      <g>
        <line class="st8" x1="685.43" y1="859.17" x2="693.67" y2="859.17"/>
        <line class="st8" x1="701.03" y1="859.17" x2="709.27" y2="859.17"/>
        <line class="st8" x1="705.1" y1="855.36" x2="705.1" y2="863.09"/>
        <line class="st8" x1="689.6" y1="855.36" x2="689.6" y2="863.09"/>
      </g>
      <polyline class="st3" points="682.35 867.56 713.15 867.56 713.15 850.9 682.35 850.9 682.35 867.56"/>
    </g>
  </g>
  <path class="st11" d="M520.62,892.48h18.5c.41,0,.74.21.74.47v26.59c0,.32-.33.59-.74.59h-18.5"/>
  <path class="st6" d="M523.32,907.36c.55,0,1-.45,1-1s-.45-1-1-1-1,.45-1,1,.45,1,1,1"/>
  <g>
    <path class="st6" d="M532.13,907.56c.68,0,1.23-.55,1.23-1.23s-.55-1.23-1.23-1.23-1.23.55-1.23,1.23.55,1.23,1.23,1.23"/>
    <path class="st6" d="M532.13,908.15c1,0,1.82-.81,1.82-1.82s-.81-1.82-1.82-1.82-1.82.81-1.82,1.82.81,1.82,1.82,1.82"/>
  </g>
  <path class="st7" d="M526.53,894.51h10.82c.41,0,.74.23.74.52v22.61c0,.29-.33.52-.74.52h-10.82c-.41,0-.74-.23-.74-.52v-22.61c0-.29.33-.52.74-.52Z"/>
  <rect class="st19" x="513.27" y="970.06" width="91.28" height="34.02"/>
  <rect class="st19" x="600.43" y="995.57" width="63.62" height="8.5"/>
  <rect class="st19" x="707.92" y="995.49" width="15.4" height="8.5"/>
  <rect class="st19" x="476.05" y="876.77" width="128.75" height="8.5"/>
  <rect class="st19" x="581.63" y="693.07" width="36.85" height="34.02"/>
  <rect class="st19" x="707.79" y="693.07" width="21.26" height="34.1"/>
  <rect class="st19" x="714.99" y="726.71" width="8.5" height="277.27"/>
  <rect class="st19" x="596.3" y="881.09" width="8.5" height="11.07"/>
  <rect class="st19" x="596.3" y="936.39" width="8.5" height="65.98"/>
  <rect class="st19" x="470.95" y="693.07" width="21.26" height="34.02"/>
  <rect class="st19" x="475.94" y="726.71" width="8.5" height="158.63"/>
  <rect class="st19" x="512.25" y="881.25" width="8.5" height="122.82"/>
  <path class="st9" d="M604.84,961.8l21.63-16.54s4.51,7.42,4.55,16.54"/>
  <g>
    <path class="st6" d="M663.92,995.73c0-11.6,4.79-22.95,13.11-31.27,8.07-8.07,19.42-12.86,31.01-12.86"/>
    <line class="st6" x1="706.28" y1="995.73" x2="663.92" y2="995.73"/>
    <polyline class="st6" points="708.04 951.6 708.04 995.73 706.28 995.73"/>
  </g>
  <g>
    <path class="st6" d="M601.23,936.3c-11.6,0-22.94-4.79-31.27-13.11-8.07-8.07-12.86-19.41-12.86-31.01"/>
    <line class="st6" x1="601.23" y1="893.94" x2="601.23" y2="936.3"/>
    <polyline class="st6" points="557.1 892.18 601.23 892.18 601.23 893.94"/>
  </g>
  <g>
    <path class="st10" d="M549.83,702.81c0,14.44-5.97,28.57-16.33,38.93-10.05,10.05-24.18,16.01-38.62,16.01"/>
    <path class="st10" d="M549.83,702.81"/>
    <path class="st10" d="M494.88,702.81"/>
    <line class="st10" x1="494.88" y1="757.76" x2="494.88" y2="702.81"/>
  </g>
  <g>
    <path class="st10" d="M676.03,702.81c0,14.44-5.97,28.57-16.33,38.93-10.05,10.05-24.18,16.01-38.62,16.01"/>
    <path class="st10" d="M676.03,702.81"/>
    <path class="st10" d="M621.08,702.81"/>
    <line class="st10" x1="621.08" y1="757.76" x2="621.08" y2="702.81"/>
  </g>
  <g>
    <path class="st12" d="M582.8,734.89c-5.98,8.02-11.96,16.04-17.94,24.06-.17.41,0,.92.42,1.23,8.62,8.41,18.45,15.55,29.1,21.14.18.1.38.07.5-.06.56-.75,1.12-1.49,1.68-2.24l16.23-21.6-29.98-22.53"/>
    <path class="st12" d="M584.35,733.34c-.65.68-1.21,1.41-1.69,2.22-.09.16-.02.38.15.5,9.42,7.43,18.97,14.69,28.65,21.78.26.15.58.11.74-.09.69-.77,1.28-1.59,1.8-2.48"/>
    <path class="st12" d="M581.85,738.69c-.58-.44-.02-2.18,1.27-3.89.11-.13.21-.27.32-.4l.91-1.06c.13-.13.35-.13.52,0l29.19,21.93-1.87,2.48c-.62.8-1.25,1.6-1.87,2.4-.35.27-.89.25-1.29-.06-10.16-5.59-19.38-12.86-27.18-21.41Z"/>
    <path class="st12" d="M582.84,737c-.12.43-.26.85-.43,1.26-.12.52-.26,1.03-.43,1.52-.23.68-.46,1.36-.69,2.04-.31.94-.7,1.84-1.17,2.7-.29.53-.6,1.04-.92,1.55-.35.54-.7,1.07-1.05,1.6-.84,1.26-1.75,2.47-2.73,3.64-.99,1.17-2.06,2.25-3.24,3.25-.88.75-1.83,1.41-2.86,1.98-.65.36-1.31.51-2.11.48-.07,0-.12-.02-.18-.07l-.53-.4c-.11-.16-.13-.3-.1-.47,5.8-7.72,11.6-15.44,17.4-23.16.1-.14.32-.15.48-.03l.16.12h0c.16.12.21.33.12.48-.2.35-.39.71-.59,1.06-.29.45-.54.91-.76,1.41l-.37,1.03Z"/>
    <path class="st12" d="M610.93,758.1c-.38.23-.74.49-1.09.77-.47.26-.91.53-1.34.84-.59.41-1.18.82-1.77,1.23-.82.56-1.57,1.18-2.27,1.88-.43.43-.84.86-1.23,1.32-.42.48-.83.97-1.25,1.45-.98,1.16-1.89,2.37-2.73,3.64-.85,1.28-1.59,2.61-2.22,4.02-.48,1.06-.84,2.15-1.11,3.3-.17.73-.13,1.4.13,2.16.02.06.06.11.11.15l.53.4c.18.06.32.05.48-.03,5.8-7.72,11.6-15.44,17.4-23.16.1-.14.06-.35-.1-.47l-.16-.12h0c-.16-.12-.37-.11-.49.02-.28.29-.57.57-.85.86-.35.41-.73.78-1.14,1.12l-.89.65Z"/>
  </g>
  <line class="st4" x1="522.7" y1="696.31" x2="551.08" y2="696.31"/>
  <line class="st4" x1="551.44" y1="696.31" x2="580" y2="696.31"/>
  <line class="st4" x1="493.78" y1="696.31" x2="522.28" y2="696.31"/>
  <line class="st4" x1="523.96" y1="697.27" x2="549.76" y2="697.27"/>
  <line class="st4" x1="495.04" y1="697.27" x2="521.02" y2="697.27"/>
  <line class="st4" x1="552.7" y1="697.27" x2="578.68" y2="697.27"/>
  <line class="st4" x1="578.68" y1="702.61" x2="552.7" y2="702.61"/>
  <line class="st4" x1="549.76" y1="702.61" x2="523.96" y2="702.61"/>
  <line class="st4" x1="521.02" y1="702.61" x2="495.04" y2="702.61"/>
  <polyline class="st4" points="495.04 700.63 521.02 700.63 521.02 702.61 523.96 702.61 523.96 700.63 549.76 700.63 549.76 702.61 552.7 702.61 552.7 700.63 578.68 700.63 578.68 702.61 580.36 702.61 580.36 696.31 580 696.31 580 697.27 578.68 697.27 578.68 698.35 552.7 698.35 552.7 697.27 551.44 697.27 551.44 696.31 551.08 696.31 551.08 697.27 549.76 697.27 549.76 698.35 523.96 698.35 523.96 697.27 522.7 697.27 522.7 696.31 522.28 696.31 522.28 697.27 521.02 697.27 521.02 698.35 495.04 698.35 495.04 697.27 493.78 697.27 493.78 696.31 493.36 696.31 493.36 702.61 495.04 702.61 495.04 700.63"/>
  <line class="st4" x1="550.9" y1="698.35" x2="493.96" y2="698.35"/>
  <line class="st6" x1="581.88" y1="693.21" x2="492.04" y2="693.21"/>
  <line class="st4" x1="648.9" y1="696.31" x2="677.28" y2="696.31"/>
  <line class="st4" x1="677.64" y1="696.31" x2="706.2" y2="696.31"/>
  <line class="st4" x1="619.98" y1="696.31" x2="648.48" y2="696.31"/>
  <line class="st4" x1="650.16" y1="697.27" x2="675.96" y2="697.27"/>
  <line class="st4" x1="621.24" y1="697.27" x2="647.22" y2="697.27"/>
  <line class="st4" x1="678.9" y1="697.27" x2="704.88" y2="697.27"/>
  <line class="st4" x1="704.88" y1="702.61" x2="678.9" y2="702.61"/>
  <line class="st4" x1="675.96" y1="702.61" x2="650.16" y2="702.61"/>
  <line class="st4" x1="647.22" y1="702.61" x2="621.24" y2="702.61"/>
  <polyline class="st4" points="621.24 700.63 647.22 700.63 647.22 702.61 650.16 702.61 650.16 700.63 675.96 700.63 675.96 702.61 678.9 702.61 678.9 700.63 704.88 700.63 704.88 702.61 706.56 702.61 706.56 696.31 706.2 696.31 706.2 697.27 704.88 697.27 704.88 698.35 678.9 698.35 678.9 697.27 677.64 697.27 677.64 696.31 677.28 696.31 677.28 697.27 675.96 697.27 675.96 698.35 650.16 698.35 650.16 697.27 648.9 697.27 648.9 696.31 648.48 696.31 648.48 697.27 647.22 697.27 647.22 698.35 621.24 698.35 621.24 697.27 619.98 697.27 619.98 696.31 619.56 696.31 619.56 702.61 621.24 702.61 621.24 700.63"/>
  <line class="st4" x1="677.1" y1="698.35" x2="620.16" y2="698.35"/>
  <line class="st6" x1="708.08" y1="693.21" x2="618.23" y2="693.21"/>
  <rect class="st17" x="602.98" y="877.35" width="99.37" height="118.34"/>
</svg>