<?xml version="1.0" encoding="UTF-8"?>
<svg id="hjælpestreger" xmlns="http://www.w3.org/2000/svg" version="1.1" viewBox="0 0 1200 1697.14">
  <!-- Generator: Adobe Illustrator 29.6.0, SVG Export Plug-In . SVG Version: 2.1.1 Build 207)  -->
  <defs>
    <style>
      .st0 {
        fill: #e2dedb;
      }

      .st1 {
        stroke-miterlimit: 10;
      }

      .st1, .st2, .st3, .st4, .st5, .st6, .st7, .st8, .st9, .st10, .st11, .st12, .st13 {
        stroke: #363a3b;
      }

      .st1, .st6, .st14, .st15, .st16, .st12 {
        stroke-width: .28px;
      }

      .st1, .st17, .st11, .st12, .st13 {
        fill: #fff;
      }

      .st2 {
        stroke-width: .29px;
      }

      .st2, .st3, .st4, .st5, .st6, .st7, .st8, .st9, .st14, .st10, .st15, .st18, .st16 {
        fill: none;
      }

      .st2, .st3, .st4, .st5, .st6, .st7, .st8, .st9, .st14, .st10, .st15, .st18, .st16, .st11, .st12, .st13 {
        stroke-linecap: round;
        stroke-linejoin: round;
      }

      .st3 {
        stroke-width: .3px;
      }

      .st4 {
        stroke-width: .3px;
      }

      .st5 {
        stroke-width: .28px;
      }

      .st7, .st11 {
        stroke-width: .28px;
      }

      .st8 {
        stroke-width: .29px;
      }

      .st19 {
        fill: #ece8e5;
      }

      .st9 {
        stroke-dasharray: .06 .42;
        stroke-width: .18px;
      }

      .st14, .st15, .st18, .st16 {
        stroke: #000;
      }

      .st10, .st18 {
        stroke-dasharray: .06 .43;
        stroke-width: .18px;
      }

      .st15 {
        stroke-dasharray: .09 .69;
      }

      .st16 {
        stroke-dasharray: .09 .68;
      }

      .st20 {
        fill: #302c35;
      }

      .st13 {
        stroke-width: .29px;
      }
    </style>
  </defs>
  <polygon class="st19" points="651.68 702.68 651.68 819.36 715.66 819.36 715.66 1008.35 625.17 1008.35 625.17 1015.91 478.69 1015.58 478.56 691.24 651.68 702.68"/>
  <rect class="st0" x="482.89" y="922.79" width="137.58" height="84.71"/>
  <g>
    <path class="st9" d="M529.89,695.11c-1.18,5.21-4.08,9.49-8.33,13.3-5.07,4.54-11.94,6.99-18.78,6.55"/>
    <line class="st9" x1="502.78" y1="714.96" x2="504.19" y2="693.29"/>
  </g>
  <g>
    <path class="st10" d="M589.71,699.02c.48,5.33,2.79,9.96,6.5,14.3,4.43,5.18,10.92,8.51,17.76,8.97"/>
    <line class="st10" x1="613.98" y1="722.29" x2="615.47" y2="700.26"/>
  </g>
  <g>
    <g>
      <path class="st12" d="M548.07,865.14c-7.12,0-12.9,6.14-12.9,13.72,0,5.58,3.65,11.1,8.79,13.01.7.26,2.18.79,4.11.71,6.06-.24,12.9-6.28,12.9-13.72,0-7.58-5.78-13.72-12.9-13.72Z"/>
      <path class="st6" d="M545.18,890.78c-4.38,0-7.92-5.33-7.92-11.91"/>
      <path class="st6" d="M545.18,866.96c-4.38,0-7.92,5.33-7.92,11.91"/>
      <path class="st6" d="M545.18,866.96c.86,0,1.56-.68,1.56-1.53"/>
      <path class="st6" d="M545.18,890.78c.86,0,1.56.74,1.56,1.66"/>
    </g>
    <g>
      <path class="st12" d="M592.35,865.14c7.12,0,12.9,6.14,12.9,13.72,0,5.58-3.65,11.1-8.79,13.01-.7.26-2.18.79-4.11.71-6.06-.24-12.9-6.28-12.9-13.72s5.78-13.72,12.9-13.72Z"/>
      <path class="st6" d="M595.24,890.78c4.38,0,7.92-5.33,7.92-11.91"/>
      <path class="st6" d="M595.24,866.96c4.38,0,7.92,5.33,7.92,11.91"/>
      <path class="st6" d="M595.24,866.96c-.86,0-1.56-.68-1.56-1.53"/>
      <path class="st6" d="M595.24,890.78c-.86,0-1.56.74-1.56,1.66"/>
    </g>
    <rect class="st12" x="553.42" y="858.65" width="35.68" height="40.44" transform="translate(1142.51 1757.74) rotate(-180)"/>
  </g>
  <g>
    <g>
      <polyline class="st14" points="667.5 972.37 667.5 972.42 667.55 972.42"/>
      <line class="st15" x1="668.24" y1="972.42" x2="711.76" y2="972.42"/>
      <polyline class="st14" points="712.1 972.42 712.15 972.42 712.15 972.37"/>
      <line class="st16" x1="712.15" y1="971.69" x2="712.15" y2="928.68"/>
      <polyline class="st14" points="712.15 928.34 712.15 928.29 712.1 928.29"/>
      <line class="st15" x1="711.41" y1="928.29" x2="667.89" y2="928.29"/>
      <polyline class="st14" points="667.55 928.29 667.5 928.29 667.5 928.34"/>
      <line class="st16" x1="667.5" y1="929.02" x2="667.5" y2="972.03"/>
    </g>
    <g>
      <line class="st6" x1="711.97" y1="950.39" x2="699.67" y2="950.39"/>
      <path class="st12" d="M699.73,953.08c1.52,0,2.75-1.23,2.75-2.75,0-1.52-1.23-2.75-2.75-2.75s-2.75,1.23-2.75,2.75,1.23,2.75,2.75,2.75"/>
    </g>
  </g>
  <path class="st1" d="M712.74,996.28h-16.09c-6.19,0-11.2-4.45-11.2-9.95,0-5.5,5.01-9.95,11.2-9.95h16.09s0,19.9,0,19.9Z"/>
  <g>
    <path class="st11" d="M658.86,927.87v18.5c0,.41-.21.74-.47.74h-26.59c-.32,0-.59-.33-.59-.74v-18.5"/>
    <path class="st6" d="M643.98,930.57c0,.55.45,1,1,1s1-.45,1-1-.45-1-1-1-1,.45-1,1"/>
    <g>
      <path class="st6" d="M643.78,939.38c0,.68.55,1.23,1.23,1.23s1.23-.55,1.23-1.23-.55-1.23-1.23-1.23-1.23.55-1.23,1.23"/>
      <path class="st6" d="M643.19,939.38c0,1,.81,1.82,1.82,1.82s1.82-.81,1.82-1.82-.81-1.82-1.82-1.82-1.82.81-1.82,1.82"/>
    </g>
    <path class="st7" d="M656.83,933.78v10.82c0,.41-.23.74-.52.74h-22.61c-.29,0-.52-.33-.52-.74v-10.82c0-.41.23-.74.52-.74h22.61c.29,0,.52.33.52.74Z"/>
  </g>
  <g>
    <rect class="st13" x="456.17" y="755.07" width="113.09" height="50.38" transform="translate(-267.55 1292.98) rotate(-90)"/>
    <rect class="st13" x="498.72" y="736.02" width="27.99" height="28.27" rx="1.45" ry="1.45" transform="translate(1025.43 1500.31) rotate(-180)"/>
    <polygon class="st13" points="486.88 738.51 486.88 837.1 537.9 837.1 537.9 764.01 486.88 738.51"/>
  </g>
  <g>
    <path class="st12" d="M606.86,735.86c-6.26,7.8-12.52,15.61-18.78,23.41-.18.41-.03.92.37,1.24,8.31,8.71,17.89,16.2,28.33,22.15.17.1.38.09.5-.04.59-.73,1.17-1.45,1.76-2.18l16.98-21.01-29.17-23.57"/>
    <path class="st12" d="M608.46,734.37c-.68.65-1.26,1.37-1.77,2.16-.09.16-.04.37.13.51,9.16,7.76,18.44,15.35,27.86,22.78.26.16.57.13.74-.07.71-.74,1.34-1.54,1.88-2.41"/>
    <path class="st12" d="M605.78,739.62c-.57-.46.06-2.18,1.4-3.84.11-.13.22-.26.33-.39l.95-1.03c.14-.12.36-.11.52.02l28.39,22.95-1.95,2.42c-.65.78-1.3,1.55-1.96,2.33-.36.26-.89.22-1.29-.1-9.96-5.95-18.92-13.54-26.4-22.35Z"/>
    <path class="st12" d="M606.83,737.97c-.13.43-.29.84-.48,1.24-.13.51-.29,1.02-.48,1.51-.26.67-.51,1.34-.76,2.02-.34.93-.76,1.81-1.27,2.66-.31.52-.63,1.02-.98,1.52-.36.52-.73,1.05-1.11,1.56-.89,1.23-1.84,2.41-2.86,3.54-1.03,1.14-2.14,2.18-3.35,3.14-.91.72-1.88,1.34-2.93,1.88-.66.34-1.33.46-2.13.4-.07,0-.12-.03-.18-.07l-.51-.41c-.1-.16-.12-.3-.08-.47,6.07-7.51,12.14-15.02,18.21-22.53.11-.13.32-.14.48-.01l.16.13h0c.15.13.19.34.1.48-.21.35-.42.69-.63,1.04-.31.44-.58.89-.81,1.38l-.41,1.02Z"/>
    <path class="st12" d="M634.15,760.05c-.39.22-.76.46-1.12.73-.47.24-.93.5-1.37.79-.6.39-1.21.78-1.81,1.16-.84.53-1.61,1.13-2.33,1.8-.44.41-.87.83-1.28,1.27-.44.47-.87.94-1.3,1.41-1.02,1.13-1.97,2.3-2.86,3.54-.9,1.24-1.68,2.55-2.36,3.93-.51,1.04-.92,2.12-1.22,3.26-.19.72-.18,1.4.05,2.16.02.06.05.11.11.16l.51.41c.18.06.32.06.48-.02,6.07-7.51,12.14-15.02,18.21-22.53.11-.13.07-.34-.09-.47l-.16-.13h0c-.16-.12-.37-.12-.49,0-.29.28-.59.55-.88.83-.36.39-.75.75-1.18,1.08l-.91.61Z"/>
  </g>
  <circle class="st1" cx="577.57" cy="783.07" r="13.02"/>
  <rect class="st11" x="676.04" y="823.76" width="35.16" height="27.64"/>
  <g>
    <rect class="st17" x="659.47" y="868.1" width="68.24" height="34.91" transform="translate(1579.14 191.97) rotate(90)"/>
    <g>
      <line class="st2" x1="711.43" y1="878.13" x2="676.28" y2="878.13"/>
      <g>
        <g>
          <g>
            <polyline class="st5" points="681.51 910.13 702.7 910.13 702.7 888.94 681.51 888.94 681.51 910.13"/>
            <line class="st5" x1="697.58" y1="899.48" x2="706.1" y2="899.48"/>
          </g>
          <polyline class="st5" points="678.41 915.3 709.2 915.3 709.2 883.77 678.41 883.77 678.41 915.3"/>
        </g>
        <g>
          <g>
            <line class="st8" x1="681.48" y1="863.3" x2="689.72" y2="863.3"/>
            <line class="st8" x1="697.08" y1="863.3" x2="705.32" y2="863.3"/>
            <line class="st8" x1="701.15" y1="859.49" x2="701.15" y2="867.21"/>
            <line class="st8" x1="685.65" y1="859.49" x2="685.65" y2="867.21"/>
          </g>
          <polyline class="st3" points="678.41 871.68 709.2 871.68 709.2 855.02 678.41 855.02 678.41 871.68"/>
        </g>
      </g>
    </g>
  </g>
  <path class="st10" d="M676,825.02l-16.54,21.63s7.42,4.51,16.54,4.55"/>
  <polyline class="st7" points="483.65 965.24 510.58 965.24 510.58 937.61 483.65 937.61"/>
  <polyline class="st7" points="483.65 992.94 510.58 992.94 510.58 965.3 483.65 965.3"/>
  <g>
    <line class="st6" x1="486.83" y1="896.76" x2="486.84" y2="916.02"/>
    <line class="st6" x1="488.22" y1="916.02" x2="488.21" y2="896.76"/>
    <polyline class="st6" points="486.84 916.02 486.84 918.9 488.22 918.9 488.22 916.02 486.84 916.02"/>
    <polyline class="st6" points="486.83 893.94 486.83 896.76 488.21 896.76 488.21 893.94 486.83 893.94"/>
    <line class="st6" x1="483.77" y1="895.74" x2="486.59" y2="895.74"/>
    <line class="st6" x1="483.78" y1="916.91" x2="486.6" y2="916.91"/>
  </g>
  <rect class="st20" x="712.56" y="919.21" width="21.26" height="92.05"/>
  <rect class="st20" x="476.15" y="992.96" width="32.58" height="21.26"/>
  <rect class="st20" x="617.6" y="692.23" width="40.96" height="34.02" transform="translate(43.41 -36.78) rotate(3.42)"/>
  <rect class="st20" x="649.08" y="726" width="8.5" height="97.79"/>
  <rect class="st20" x="680" y="784.38" width="8.5" height="70.34" transform="translate(-135.29 1503.8) rotate(-90)"/>
  <rect class="st20" x="711.04" y="821.09" width="8.5" height="100.5" transform="translate(1430.58 1742.68) rotate(180)"/>
  <rect class="st20" x="475.15" y="711.01" width="8.5" height="301.92" transform="translate(958.81 1723.94) rotate(180)"/>
  <rect class="st20" x="664.18" y="875.03" width="8.5" height="96.87" transform="translate(1591.9 255.03) rotate(90)"/>
  <rect class="st20" x="667.58" y="960.05" width="8.5" height="93.91" transform="translate(1678.84 335.17) rotate(90)"/>
  <rect class="st20" x="590.72" y="979.07" width="8.5" height="65.18" transform="translate(1606.63 416.69) rotate(90)"/>
  <rect class="st20" x="492.58" y="989.99" width="8.5" height="43.34" transform="translate(1508.49 514.83) rotate(90)"/>
  <rect class="st20" x="618.89" y="919.22" width="8.5" height="32.72"/>
  <rect class="st20" x="618.89" y="996.05" width="8.5" height="15.19"/>
  <rect class="st20" x="467.24" y="682.29" width="34.02" height="34.02" transform="translate(46.21 -29.83) rotate(3.71)"/>
  <g>
    <path class="st10" d="M510.61,937.81l16.54,21.63s-7.42,4.51-16.54,4.55"/>
    <path class="st10" d="M510.61,966.75c9.13.04,16.54,4.55,16.54,4.55l-16.54,21.63"/>
  </g>
  <g>
    <path class="st6" d="M623.21,952.05c11.6,0,22.94,4.79,31.27,13.11,8.07,8.07,12.86,19.41,12.86,31.01"/>
    <line class="st6" x1="623.21" y1="994.41" x2="623.21" y2="952.05"/>
    <polyline class="st6" points="667.34 996.17 623.21 996.17 623.21 994.41"/>
  </g>
  <g>
    <path class="st6" d="M562.52,1007.53c0-11.6-4.79-22.94-13.11-31.27-8.07-8.07-19.41-12.86-31.01-12.86"/>
    <line class="st6" x1="520.16" y1="1007.53" x2="562.52" y2="1007.53"/>
    <polyline class="st6" points="518.39 963.41 518.39 1007.53 520.16 1007.53"/>
  </g>
  <g>
    <polyline class="st4" points="502.43 683.57 560.39 687.71 618.41 691.25"/>
    <polyline class="st4" points="589.85 696.71 615.53 698.39 615.65 696.11 590.03 694.43 589.85 696.71"/>
    <polyline class="st4" points="504.35 691.07 530.03 692.75 530.21 690.47 504.53 688.79 504.35 691.07"/>
    <polyline class="st4" points="532.97 692.93 558.47 694.61 558.65 692.33 533.15 690.65 532.97 692.93"/>
    <polyline class="st4" points="561.41 694.79 586.91 696.47 587.09 694.25 561.59 692.57 561.41 694.79"/>
    <line class="st4" x1="588.89" y1="692.27" x2="617.09" y2="694.19"/>
    <line class="st4" x1="503.33" y1="686.63" x2="531.59" y2="688.55"/>
    <line class="st4" x1="532.01" y1="688.55" x2="560.03" y2="690.41"/>
    <line class="st4" x1="560.45" y1="690.41" x2="588.47" y2="692.27"/>
    <line class="st4" x1="590.09" y1="693.29" x2="615.77" y2="694.97"/>
    <line class="st4" x1="561.65" y1="691.43" x2="587.15" y2="693.11"/>
    <line class="st4" x1="533.21" y1="689.51" x2="558.71" y2="691.19"/>
    <line class="st4" x1="504.59" y1="687.65" x2="530.27" y2="689.33"/>
    <polyline class="st4" points="532.01 688.55 531.59 688.55 531.53 689.45 530.27 689.33 529.91 694.73 532.85 694.91 533.21 689.51 531.95 689.45 532.01 688.55"/>
    <polyline class="st4" points="503.33 686.63 502.97 686.63 502.55 692.93 504.23 693.05 504.59 687.65 503.27 687.59 503.33 686.63"/>
    <polyline class="st4" points="588.89 692.27 588.47 692.27 588.41 693.17 587.15 693.11 586.79 698.45 589.73 698.69 590.09 693.29 588.83 693.23 588.89 692.27"/>
    <polyline class="st4" points="560.45 690.41 560.03 690.41 559.97 691.31 558.71 691.19 558.35 696.59 561.29 696.77 561.65 691.43 560.39 691.31 560.45 690.41"/>
    <polyline class="st4" points="617.51 694.19 617.09 694.19 617.03 695.09 615.77 694.97 615.41 700.37 617.09 700.49 617.51 694.19"/>
    <line class="st4" x1="615.41" y1="700.37" x2="589.73" y2="698.69"/>
    <line class="st4" x1="586.79" y1="698.45" x2="561.29" y2="696.77"/>
    <line class="st4" x1="558.35" y1="696.59" x2="532.85" y2="694.91"/>
    <line class="st4" x1="529.91" y1="694.73" x2="504.23" y2="693.05"/>
    <line class="st4" x1="529.07" y1="690.41" x2="505.67" y2="688.85"/>
    <line class="st4" x1="614.57" y1="696.05" x2="591.17" y2="694.49"/>
  </g>
  <rect class="st18" x="480.38" y="922.7" width="140.13" height="84.84"/>
</svg>