<?xml version="1.0" encoding="UTF-8"?>
<svg id="Tekst" xmlns="http://www.w3.org/2000/svg" version="1.1" viewBox="0 0 1200 1697.14">
  <!-- Generator: Adobe Illustrator 29.6.0, SVG Export Plug-In . SVG Version: 2.1.1 Build 207)  -->
  <defs>
    <style>
      .st0, .st1, .st2, .st3, .st4, .st5, .st6, .st7, .st8, .st9, .st10, .st11, .st12, .st13 {
        fill: none;
      }

      .st14 {
        fill: #e2dedb;
      }

      .st15, .st1, .st2, .st3, .st4, .st5, .st6, .st8, .st9, .st16, .st17 {
        stroke: #363a3b;
      }

      .st15, .st3, .st7, .st10, .st12, .st17, .st13 {
        stroke-width: .28px;
      }

      .st15, .st8 {
        stroke-miterlimit: 10;
      }

      .st15, .st16, .st17 {
        fill: #fff;
      }

      .st1 {
        stroke-width: .3px;
      }

      .st1, .st2, .st3, .st4, .st5, .st6, .st7, .st9, .st10, .st11, .st12, .st16, .st17, .st13 {
        stroke-linecap: round;
        stroke-linejoin: round;
      }

      .st2 {
        stroke-width: .28px;
      }

      .st4, .st16 {
        stroke-width: .28px;
      }

      .st5 {
        stroke-width: .29px;
      }

      .st18 {
        fill: #ece8e5;
      }

      .st6 {
        stroke-dasharray: .06 .42;
        stroke-width: .18px;
      }

      .st7, .st10, .st11, .st12 {
        stroke: #000;
      }

      .st8 {
        stroke-width: .29px;
      }

      .st9, .st11 {
        stroke-dasharray: .06 .43;
        stroke-width: .18px;
      }

      .st10 {
        stroke-dasharray: .09 .69;
      }

      .st12 {
        stroke-dasharray: .09 .68;
      }

      .st19 {
        fill: #302c35;
      }

      .st13 {
        stroke: #00001d;
      }
    </style>
  </defs>
  <polygon class="st18" points="599.1 727.28 786.53 727.28 786.53 905.32 680.11 905.32 680.11 979.15 520.44 979.15 520.44 861.11 422.34 861.11 422.34 727.28 599.1 727.28"/>
  <polygon class="st14" points="673.69 970.59 522.65 970.59 522.42 898.28 673.69 898.28 673.69 970.59"/>
  <g>
    <g>
      <path class="st17" d="M773,838.5c-8.63-5.06-17.26-10.11-25.89-15.17-.43-.12-.91.11-1.17.55-7.41,9.49-13.42,20.06-17.79,31.26-.08.19-.03.39.11.49.8.48,1.61.95,2.41,1.43l23.26,13.74,19.08-32.29"/>
      <path class="st17" d="M774.71,839.87c-.75-.57-1.54-1.05-2.4-1.44-.17-.07-.38.02-.48.2-6.34,10.19-12.5,20.48-18.48,30.88-.12.28-.05.59.17.72.84.6,1.72,1.1,2.66,1.51"/>
      <path class="st17" d="M769.12,837.98c.37-.63,2.16-.26,4,.83.14.09.29.18.43.27l1.16.79c.14.12.17.34.06.52l-18.57,31.43-2.67-1.58c-.86-.53-1.73-1.06-2.59-1.6-.31-.32-.35-.85-.09-1.29,4.44-10.72,10.64-20.68,18.27-29.38Z"/>
      <path class="st17" d="M770.91,838.78c-.44-.07-.87-.16-1.3-.29-.53-.06-1.05-.14-1.56-.26-.7-.16-1.4-.31-2.1-.46-.97-.2-1.9-.49-2.81-.87-.56-.23-1.1-.48-1.64-.75-.57-.28-1.14-.57-1.71-.87-1.35-.7-2.65-1.47-3.92-2.31-1.28-.85-2.47-1.8-3.59-2.86-.85-.8-1.6-1.66-2.29-2.62-.43-.61-.65-1.25-.71-2.05,0-.07,0-.12.05-.19l.33-.57c.15-.12.28-.17.45-.15,8.31,4.91,16.63,9.83,24.94,14.74.15.09.19.3.08.47l-.1.17h0c-.11.17-.3.24-.46.17-.37-.16-.75-.31-1.12-.47-.48-.24-.97-.44-1.48-.6l-1.07-.26Z"/>
      <path class="st17" d="M753.04,869.03c-.27-.35-.57-.69-.88-1-.31-.43-.63-.85-.98-1.24-.47-.54-.95-1.08-1.42-1.62-.65-.75-1.35-1.43-2.12-2.05-.47-.38-.95-.74-1.45-1.08-.52-.36-1.05-.72-1.58-1.08-1.26-.84-2.57-1.61-3.92-2.31-1.36-.71-2.77-1.29-4.24-1.77-1.11-.36-2.23-.6-3.4-.74-.74-.09-1.41.03-2.13.37-.06.03-.1.07-.14.13l-.33.57c-.04.19-.01.33.08.47,8.31,4.91,16.63,9.83,24.94,14.74.15.09.35.02.45-.15l.1-.17h0c.1-.18.06-.38-.08-.48-.32-.25-.63-.5-.95-.75-.44-.3-.85-.64-1.24-1.01l-.74-.81Z"/>
    </g>
    <circle class="st15" cx="700.8" cy="839.88" r="13.02"/>
  </g>
  <g>
    <rect class="st17" x="646.17" y="755.11" width="113.09" height="50.38"/>
    <rect class="st17" x="718.22" y="766.57" width="27.44" height="27.44" rx="1.42" ry="1.42" transform="translate(-48.35 1512.23) rotate(-90)"/>
    <polygon class="st17" points="744.47 754.47 645.88 754.47 645.88 805.49 718.97 805.49 744.47 754.47"/>
  </g>
  <g>
    <g>
      <polyline class="st7" points="477.62 796.1 477.62 796.15 477.57 796.15"/>
      <line class="st10" x1="476.88" y1="796.15" x2="433.36" y2="796.15"/>
      <polyline class="st7" points="433.01 796.15 432.97 796.15 432.97 796.1"/>
      <line class="st12" x1="432.97" y1="795.42" x2="432.97" y2="752.4"/>
      <polyline class="st7" points="432.97 752.06 432.97 752.02 433.01 752.02"/>
      <line class="st10" x1="433.71" y1="752.02" x2="477.22" y2="752.02"/>
      <polyline class="st7" points="477.57 752.02 477.62 752.02 477.62 752.06"/>
      <line class="st12" x1="477.62" y1="752.75" x2="477.62" y2="795.76"/>
    </g>
    <g>
      <line class="st3" x1="433.06" y1="772.39" x2="445.36" y2="772.39"/>
      <path class="st17" d="M445.3,775.08c-1.52,0-2.75-1.23-2.75-2.75,0-1.52,1.23-2.75,2.75-2.75s2.75,1.23,2.75,2.75c0,1.52-1.23,2.75-2.75,2.75"/>
    </g>
  </g>
  <path class="st15" d="M433.04,802.46h16.09c6.19,0,11.2,4.45,11.2,9.95,0,5.5-5.01,9.95-11.2,9.95h-16.09s0-19.9,0-19.9Z"/>
  <g>
    <path class="st16" d="M469.03,857.02v-18.5c0-.41.21-.74.47-.74h26.59c.32,0,.59.33.59.74v18.5"/>
    <path class="st3" d="M483.91,854.33c0-.55-.45-1-1-1s-1,.45-1,1,.45,1,1,1,1-.45,1-1"/>
    <g>
      <path class="st3" d="M484.11,845.52c0-.68-.55-1.23-1.23-1.23s-1.23.55-1.23,1.23.55,1.23,1.23,1.23,1.23-.55,1.23-1.23"/>
      <path class="st3" d="M484.7,845.52c0-1-.81-1.82-1.82-1.82s-1.82.81-1.82,1.82.81,1.82,1.82,1.82,1.82-.81,1.82-1.82"/>
    </g>
    <path class="st4" d="M471.06,851.11v-10.82c0-.41.23-.74.52-.74h22.61c.29,0,.52.33.52.74v10.82c0,.41-.23.74-.52.74h-22.61c-.29,0-.52-.33-.52-.74Z"/>
  </g>
  <g>
    <line class="st3" x1="665.51" y1="894.72" x2="646.25" y2="894.72"/>
    <line class="st3" x1="646.25" y1="893.34" x2="665.51" y2="893.34"/>
    <polyline class="st3" points="646.25 894.72 643.37 894.72 643.37 893.34 646.25 893.34 646.25 894.72"/>
    <polyline class="st3" points="668.33 894.72 665.51 894.72 665.51 893.34 668.33 893.34 668.33 894.72"/>
    <line class="st3" x1="666.53" y1="897.78" x2="666.53" y2="894.96"/>
    <line class="st3" x1="645.36" y1="897.78" x2="645.36" y2="894.96"/>
  </g>
  <g>
    <g>
      <path class="st17" d="M611.78,845.06c0,7.12-6.14,12.9-13.72,12.9-5.58,0-11.1-3.65-13.01-8.79-.26-.7-.79-2.18-.71-4.11.24-6.06,6.28-12.9,13.72-12.9,7.58,0,13.72,5.78,13.72,12.9Z"/>
      <path class="st3" d="M586.15,847.95c0,4.38,5.33,7.92,11.91,7.92"/>
      <path class="st3" d="M609.97,847.95c0,4.38-5.33,7.92-11.91,7.92"/>
      <path class="st3" d="M609.97,847.95c0-.86.68-1.56,1.53-1.56"/>
      <path class="st3" d="M586.15,847.95c0-.86-.74-1.56-1.66-1.56"/>
    </g>
    <g>
      <path class="st17" d="M611.78,800.78c0-7.12-6.14-12.9-13.72-12.9-5.58,0-11.1,3.65-13.01,8.79-.26.7-.79,2.18-.71,4.11.24,6.06,6.28,12.9,13.72,12.9,7.58,0,13.72-5.78,13.72-12.9Z"/>
      <path class="st3" d="M586.15,797.89c0-4.38,5.33-7.92,11.91-7.92"/>
      <path class="st3" d="M609.97,797.89c0-4.38-5.33-7.92-11.91-7.92"/>
      <path class="st3" d="M609.97,797.89c0,.86.68,1.56,1.53,1.56"/>
      <path class="st3" d="M586.15,797.89c0,.86-.74,1.56-1.66,1.56"/>
    </g>
    <rect class="st17" x="580.22" y="801.66" width="35.68" height="40.44" transform="translate(1419.93 223.82) rotate(90)"/>
  </g>
  <g>
    <g>
      <line class="st0" x1="555.97" y1="936.29" x2="522.26" y2="936.29"/>
      <line class="st0" x1="555.87" y1="936.33" x2="522.03" y2="936.33"/>
      <g>
        <line class="st3" x1="522.19" y1="970.8" x2="556.04" y2="970.8"/>
        <path class="st3" d="M556.04,969.89"/>
        <line class="st3" x1="556.04" y1="970.8" x2="556.04" y2="936.6"/>
        <path class="st13" d="M556.04,936.14"/>
        <line class="st3" x1="522.19" y1="936.6" x2="556.04" y2="936.6"/>
      </g>
      <path class="st9" d="M556.21,970.81l16.54-27.88s-7.42-5.81-16.54-5.87"/>
    </g>
    <g>
      <line class="st0" x1="555.97" y1="936.78" x2="522.26" y2="936.78"/>
      <line class="st0" x1="555.87" y1="936.74" x2="522.03" y2="936.74"/>
      <g>
        <line class="st3" x1="522.19" y1="902.26" x2="556.04" y2="902.26"/>
        <path class="st3" d="M556.04,903.18"/>
        <line class="st3" x1="556.04" y1="902.26" x2="556.04" y2="936.47"/>
        <path class="st13" d="M556.04,936.92"/>
        <line class="st3" x1="522.19" y1="936.47" x2="556.04" y2="936.47"/>
      </g>
      <path class="st9" d="M556.21,902.26l16.54,27.88s-7.42,5.81-16.54,5.87"/>
    </g>
  </g>
  <polygon class="st8" points="673.98 901.32 673.96 938.65 673.99 970.64 639.73 970.64 639.73 901.32 673.98 901.32"/>
  <g>
    <g>
      <polyline class="st2" points="644.56 908.19 665.76 908.19 665.76 929.38 644.56 929.38 644.56 908.19"/>
      <line class="st2" x1="660.63" y1="918.84" x2="669.15" y2="918.84"/>
    </g>
    <polyline class="st2" points="641.46 903.02 672.26 903.02 672.26 934.55 641.46 934.55 641.46 903.02"/>
  </g>
  <g>
    <g>
      <line class="st5" x1="644.53" y1="960.6" x2="652.77" y2="960.6"/>
      <line class="st5" x1="660.13" y1="960.6" x2="668.38" y2="960.6"/>
      <line class="st5" x1="664.2" y1="964.41" x2="664.2" y2="956.68"/>
      <line class="st5" x1="648.71" y1="964.41" x2="648.71" y2="956.68"/>
    </g>
    <polyline class="st1" points="641.46 952.21 672.26 952.21 672.26 968.88 641.46 968.88 641.46 952.21"/>
  </g>
  <g>
    <path class="st3" d="M508.4,832.19c11.6,0,22.95-4.79,31.27-13.11,8.07-8.07,12.86-19.42,12.86-31.01"/>
    <line class="st3" x1="508.4" y1="789.83" x2="508.4" y2="832.19"/>
    <polyline class="st3" points="552.52 788.07 508.4 788.07 508.4 789.83"/>
  </g>
  <g>
    <path class="st3" d="M603.97,970.69c0-11.6-4.79-22.95-13.11-31.27-8.07-8.07-19.42-12.86-31.01-12.86"/>
    <line class="st3" x1="561.61" y1="970.69" x2="603.97" y2="970.69"/>
    <polyline class="st3" points="559.85 926.56 559.85 970.69 561.61 970.69"/>
  </g>
  <rect class="st19" x="673.69" y="901.11" width="8.5" height="77.59"/>
  <rect class="st19" x="504.36" y="718" width="8.5" height="70.34"/>
  <rect class="st19" x="504.36" y="832.19" width="8.5" height="32.38"/>
  <rect class="st19" x="404.07" y="718" width="127.16" height="34.02"/>
  <rect class="st19" x="761.91" y="718.08" width="34.02" height="50.68"/>
  <rect class="st19" x="761.91" y="884.98" width="34.02" height="24.63"/>
  <rect class="st19" x="647.45" y="718" width="148.48" height="34.02"/>
  <rect class="st19" x="673.69" y="901.11" width="122.24" height="8.5"/>
  <rect class="st19" x="603.92" y="970.64" width="78.28" height="8.5"/>
  <rect class="st19" x="514.04" y="970.64" width="45.88" height="8.5"/>
  <rect class="st19" x="411.71" y="856.89" width="110.82" height="8.5"/>
  <rect class="st19" x="514.02" y="857.06" width="8.5" height="122.09"/>
  <rect class="st19" x="411.71" y="751.1" width="21.26" height="114.3"/>
  <g>
    <g>
      <path class="st6" d="M559.35,727.53c-.83,5.28-3.43,9.74-7.4,13.81-4.73,4.86-11.38,7.75-18.18,7.75"/>
      <line class="st6" x1="533.77" y1="749.09" x2="533.77" y2="727.38"/>
    </g>
    <g>
      <path class="st9" d="M619.45,727.41c.84,5.28,3.45,9.74,7.42,13.81,4.75,4.86,11.43,7.75,18.25,7.75"/>
      <line class="st9" x1="645.13" y1="748.97" x2="645.13" y2="726.91"/>
    </g>
    <line class="st3" x1="645.13" y1="724.92" x2="645.13" y2="727.38"/>
    <polyline class="st3" points="590.95 725.46 616.51 725.46 616.51 723.18 590.95 723.18 590.95 725.46"/>
    <polyline class="st3" points="562.45 725.46 588.01 725.46 588.01 723.18 562.45 723.18 562.45 725.46"/>
    <polyline class="st3" points="619.45 725.46 645.13 725.46 645.13 723.18 619.45 723.18 619.45 725.46"/>
    <polyline class="st3" points="533.77 725.46 559.45 725.46 559.45 723.18 533.77 723.18 533.77 725.46"/>
    <line class="st3" x1="618.19" y1="721.14" x2="646.45" y2="721.14"/>
    <line class="st3" x1="532.45" y1="721.14" x2="560.77" y2="721.14"/>
    <line class="st3" x1="561.13" y1="721.14" x2="589.27" y2="721.14"/>
    <line class="st3" x1="589.63" y1="721.14" x2="617.77" y2="721.14"/>
    <line class="st3" x1="619.45" y1="722.04" x2="645.13" y2="722.04"/>
    <line class="st3" x1="590.95" y1="722.04" x2="616.51" y2="722.04"/>
    <line class="st3" x1="562.45" y1="722.04" x2="588.01" y2="722.04"/>
    <line class="st3" x1="533.77" y1="722.04" x2="559.45" y2="722.04"/>
    <polyline class="st3" points="532.45 721.14 532.03 721.14 532.03 727.44 533.77 727.44 533.77 722.04 532.45 722.04 532.45 721.14"/>
    <polyline class="st3" points="589.63 721.14 589.27 721.14 589.27 722.04 588.01 722.04 588.01 727.44 590.95 727.44 590.95 722.04 589.63 722.04 589.63 721.14"/>
    <polyline class="st3" points="561.13 721.14 560.77 721.14 560.77 722.04 559.45 722.04 559.45 727.44 562.45 727.44 562.45 722.04 561.13 722.04 561.13 721.14"/>
    <polyline class="st3" points="646.87 721.14 646.45 721.14 646.45 722.04 645.13 722.04 645.13 727.44 646.87 727.44 646.87 721.14"/>
    <polyline class="st3" points="618.19 721.14 617.77 721.14 617.77 722.04 616.51 722.04 616.51 727.44 619.45 727.44 619.45 722.04 618.19 722.04 618.19 721.14"/>
    <line class="st3" x1="645.13" y1="727.44" x2="619.45" y2="727.44"/>
    <line class="st3" x1="616.51" y1="727.44" x2="590.95" y2="727.44"/>
    <line class="st3" x1="588.01" y1="727.44" x2="562.45" y2="727.44"/>
    <line class="st3" x1="559.45" y1="727.44" x2="533.77" y2="727.44"/>
    <line class="st3" x1="558.37" y1="723.18" x2="534.91" y2="723.18"/>
    <line class="st3" x1="644.05" y1="723.18" x2="620.59" y2="723.18"/>
    <line class="st3" x1="531.37" y1="718.14" x2="647.59" y2="718.14"/>
  </g>
  <g>
    <g>
      <path class="st6" d="M786.39,796.73c-5.28-.83-9.74-3.43-13.81-7.4-4.86-4.73-7.75-11.38-7.75-18.18"/>
      <line class="st6" x1="764.83" y1="771.15" x2="786.55" y2="771.15"/>
    </g>
    <g>
      <path class="st9" d="M786.52,856.83c-5.28.84-9.74,3.45-13.81,7.42-4.86,4.75-7.75,11.43-7.75,18.25"/>
      <line class="st9" x1="764.96" y1="882.51" x2="787.02" y2="882.51"/>
    </g>
    <line class="st3" x1="789.01" y1="882.51" x2="786.55" y2="882.51"/>
    <polyline class="st3" points="788.47 828.33 788.47 853.89 790.75 853.89 790.75 828.33 788.47 828.33"/>
    <polyline class="st3" points="788.47 799.83 788.47 825.39 790.75 825.39 790.75 799.83 788.47 799.83"/>
    <polyline class="st3" points="788.47 856.83 788.47 882.51 790.75 882.51 790.75 856.83 788.47 856.83"/>
    <polyline class="st3" points="788.47 771.15 788.47 796.83 790.75 796.83 790.75 771.15 788.47 771.15"/>
    <line class="st3" x1="792.79" y1="855.57" x2="792.79" y2="883.83"/>
    <line class="st3" x1="792.79" y1="769.83" x2="792.79" y2="798.15"/>
    <line class="st3" x1="792.79" y1="798.51" x2="792.79" y2="826.65"/>
    <line class="st3" x1="792.79" y1="827.01" x2="792.79" y2="855.15"/>
    <line class="st3" x1="791.89" y1="856.83" x2="791.89" y2="882.51"/>
    <line class="st3" x1="791.89" y1="828.33" x2="791.89" y2="853.89"/>
    <line class="st3" x1="791.89" y1="799.83" x2="791.89" y2="825.39"/>
    <line class="st3" x1="791.89" y1="771.15" x2="791.89" y2="796.83"/>
    <polyline class="st3" points="792.79 769.83 792.79 769.41 786.49 769.41 786.49 771.15 791.89 771.15 791.89 769.83 792.79 769.83"/>
    <polyline class="st3" points="792.79 827.01 792.79 826.65 791.89 826.65 791.89 825.39 786.49 825.39 786.49 828.33 791.89 828.33 791.89 827.01 792.79 827.01"/>
    <polyline class="st3" points="792.79 798.51 792.79 798.15 791.89 798.15 791.89 796.83 786.49 796.83 786.49 799.83 791.89 799.83 791.89 798.51 792.79 798.51"/>
    <polyline class="st3" points="792.79 884.25 792.79 883.83 791.89 883.83 791.89 882.51 786.49 882.51 786.49 884.25 792.79 884.25"/>
    <polyline class="st3" points="792.79 855.57 792.79 855.15 791.89 855.15 791.89 853.89 786.49 853.89 786.49 856.83 791.89 856.83 791.89 855.57 792.79 855.57"/>
    <line class="st3" x1="786.49" y1="882.51" x2="786.49" y2="856.83"/>
    <line class="st3" x1="786.49" y1="853.89" x2="786.49" y2="828.33"/>
    <line class="st3" x1="786.49" y1="825.39" x2="786.49" y2="799.83"/>
    <line class="st3" x1="786.49" y1="796.83" x2="786.49" y2="771.15"/>
    <line class="st3" x1="790.75" y1="795.75" x2="790.75" y2="772.29"/>
    <line class="st3" x1="790.75" y1="881.43" x2="790.75" y2="857.97"/>
    <line class="st3" x1="795.79" y1="768.75" x2="795.79" y2="884.97"/>
  </g>
  <rect class="st11" x="522.42" y="898.28" width="151.27" height="72.41"/>
</svg>