<?xml version="1.0" encoding="UTF-8"?>
<svg id="Vinduer_i_facade" xmlns="http://www.w3.org/2000/svg" version="1.1" viewBox="0 0 1200 1697.14">
  <!-- Generator: Adobe Illustrator 29.6.0, SVG Export Plug-In . SVG Version: 2.1.1 Build 207)  -->
  <defs>
    <style>
      .st0, .st1 {
        fill: #e2dedb;
      }

      .st2, .st3, .st4, .st5, .st6, .st7, .st8, .st9, .st10, .st11, .st12, .st1, .st13, .st14, .st15 {
        stroke: #363a3b;
      }

      .st2, .st7, .st16, .st17, .st18, .st14 {
        stroke-width: .28px;
      }

      .st2, .st19, .st13, .st14, .st15 {
        fill: #fff;
      }

      .st2, .st1 {
        stroke-miterlimit: 10;
      }

      .st3 {
        stroke-width: .29px;
      }

      .st3, .st4, .st5, .st6, .st7, .st8, .st9, .st16, .st10, .st11, .st12, .st17, .st20, .st18 {
        fill: none;
      }

      .st3, .st4, .st5, .st6, .st7, .st8, .st9, .st16, .st10, .st11, .st12, .st17, .st20, .st18, .st13, .st14, .st15 {
        stroke-linecap: round;
        stroke-linejoin: round;
      }

      .st4 {
        stroke-width: .3px;
      }

      .st5 {
        stroke-width: .3px;
      }

      .st6 {
        stroke-width: .28px;
      }

      .st8, .st13 {
        stroke-width: .28px;
      }

      .st9 {
        stroke-width: .29px;
      }

      .st21 {
        fill: #ece8e5;
      }

      .st16, .st17, .st20, .st18 {
        stroke: #000;
      }

      .st10, .st20 {
        stroke-dasharray: .06 .43;
        stroke-width: .18px;
      }

      .st11 {
        stroke-dasharray: .07 .53;
      }

      .st11, .st12 {
        stroke-width: .18px;
      }

      .st12 {
        stroke-dasharray: .06 .43;
      }

      .st17 {
        stroke-dasharray: .09 .69;
      }

      .st1 {
        stroke-width: .28px;
      }

      .st18 {
        stroke-dasharray: .09 .68;
      }

      .st22 {
        fill: #302c35;
      }

      .st15 {
        stroke-width: .29px;
      }
    </style>
  </defs>
  <polygon class="st21" points="558.91 703.67 558.91 868.91 462.79 868.91 462.79 977.44 558.91 977.44 558.91 1003.03 740.57 1003.03 740.57 703.67 558.91 703.67"/>
  <rect class="st19" x="548.06" y="958.77" width="67.5" height="35.36" transform="translate(1163.62 1952.91) rotate(180)"/>
  <rect class="st0" x="547.39" y="872.87" width="94.74" height="121.26"/>
  <g>
    <line class="st7" x1="564.86" y1="847.99" x2="564.86" y2="867.25"/>
    <line class="st7" x1="566.24" y1="867.25" x2="566.24" y2="847.99"/>
    <polyline class="st7" points="564.86 867.25 564.86 870.13 566.24 870.13 566.24 867.25 564.86 867.25"/>
    <polyline class="st7" points="564.86 845.17 564.86 847.99 566.24 847.99 566.24 845.17 564.86 845.17"/>
    <line class="st7" x1="561.8" y1="846.97" x2="564.62" y2="846.97"/>
    <line class="st7" x1="561.8" y1="868.14" x2="564.62" y2="868.14"/>
  </g>
  <rect class="st8" x="611.84" y="962.89" width="35.16" height="27.64" transform="translate(1606.12 347.28) rotate(90)"/>
  <g>
    <rect class="st13" x="701.19" y="892.13" width="35.16" height="27.64"/>
    <rect class="st13" x="701.19" y="864.43" width="35.16" height="27.64"/>
  </g>
  <g>
    <g>
      <polyline class="st16" points="465.52 912.99 465.47 912.99 465.47 913.03"/>
      <line class="st17" x1="465.47" y1="913.73" x2="465.47" y2="957.24"/>
      <polyline class="st16" points="465.47 957.59 465.47 957.64 465.52 957.64"/>
      <line class="st18" x1="466.2" y1="957.64" x2="509.21" y2="957.64"/>
      <polyline class="st16" points="509.55 957.64 509.6 957.64 509.6 957.59"/>
      <line class="st17" x1="509.6" y1="956.9" x2="509.6" y2="913.38"/>
      <polyline class="st16" points="509.6 913.03 509.6 912.99 509.55 912.99"/>
      <line class="st18" x1="508.87" y1="912.99" x2="465.86" y2="912.99"/>
    </g>
    <g>
      <line class="st7" x1="487.5" y1="957.46" x2="487.5" y2="945.16"/>
      <path class="st14" d="M484.81,945.22c0,1.52,1.23,2.75,2.75,2.75s2.75-1.23,2.75-2.75-1.23-2.75-2.75-2.75-2.75,1.23-2.75,2.75"/>
    </g>
  </g>
  <path class="st2" d="M512.96,958.48v-16.09c0-6.19,4.45-11.2,9.95-11.2s9.95,5.01,9.95,11.2v16.09s-19.9,0-19.9,0Z"/>
  <g>
    <path class="st13" d="M464.84,879.38h18.5c.41,0,.74.21.74.47v26.59c0,.32-.33.59-.74.59h-18.5"/>
    <path class="st7" d="M467.54,894.26c.55,0,1-.45,1-1s-.45-1-1-1-1,.45-1,1,.45,1,1,1"/>
    <g>
      <path class="st7" d="M476.35,894.46c.68,0,1.23-.55,1.23-1.23s-.55-1.23-1.23-1.23-1.23.55-1.23,1.23.55,1.23,1.23,1.23"/>
      <path class="st7" d="M476.35,895.05c1,0,1.82-.81,1.82-1.82s-.81-1.82-1.82-1.82-1.82.81-1.82,1.82.81,1.82,1.82,1.82"/>
    </g>
    <path class="st8" d="M470.75,881.41h10.82c.41,0,.74.23.74.52v22.61c0,.29-.33.52-.74.52h-10.82c-.41,0-.74-.23-.74-.52v-22.61c0-.29.33-.52.74-.52Z"/>
  </g>
  <g>
    <rect class="st15" x="650.09" y="760.89" width="113.09" height="50.38" transform="translate(-79.45 1492.72) rotate(-90)"/>
    <rect class="st15" x="692.64" y="741.84" width="27.99" height="28.27" rx="1.45" ry="1.45"/>
    <polygon class="st15" points="732.47 744.33 732.47 842.92 681.45 842.92 681.45 769.83 732.47 744.33"/>
  </g>
  <g>
    <line class="st3" x1="588.58" y1="959.24" x2="588.58" y2="994.39"/>
    <g>
      <g>
        <polyline class="st6" points="551.41 992.26 551.41 961.46 582.94 961.46 582.94 992.26 551.41 992.26"/>
        <g>
          <polyline class="st6" points="556.58 964.57 556.58 985.76 577.77 985.76 577.77 964.57 556.58 964.57"/>
          <line class="st6" x1="567.23" y1="980.64" x2="567.23" y2="989.16"/>
        </g>
      </g>
      <g>
        <g>
          <line class="st9" x1="603.42" y1="989.19" x2="603.42" y2="980.95"/>
          <line class="st9" x1="603.42" y1="973.59" x2="603.42" y2="965.34"/>
          <line class="st9" x1="607.23" y1="969.52" x2="599.5" y2="969.52"/>
          <line class="st9" x1="607.23" y1="985.01" x2="599.5" y2="985.01"/>
        </g>
        <polyline class="st4" points="595.03 992.26 595.03 961.46 611.69 961.46 611.69 992.26 595.03 992.26"/>
      </g>
    </g>
  </g>
  <g>
    <path class="st14" d="M619.5,714.62c6.26,7.8,12.52,15.61,18.78,23.41.18.41.03.92-.37,1.24-8.31,8.71-17.89,16.2-28.33,22.15-.17.1-.38.09-.5-.04-.59-.73-1.17-1.45-1.76-2.18l-16.98-21.01,29.17-23.57"/>
    <path class="st14" d="M617.9,713.12c.68.65,1.26,1.37,1.77,2.16.09.16.04.37-.13.51-9.16,7.76-18.44,15.35-27.86,22.78-.26.16-.57.13-.74-.07-.71-.74-1.34-1.54-1.88-2.41"/>
    <path class="st14" d="M620.58,718.37c.57-.46-.06-2.18-1.4-3.84-.11-.13-.22-.26-.33-.39l-.95-1.03c-.14-.12-.36-.11-.52.02l-28.39,22.95,1.95,2.42c.65.78,1.3,1.55,1.96,2.33.36.26.89.22,1.29-.1,9.96-5.95,18.92-13.54,26.4-22.35Z"/>
    <path class="st14" d="M619.54,716.72c.13.43.29.84.48,1.24.13.51.29,1.02.48,1.51.26.67.51,1.34.76,2.02.34.93.76,1.81,1.27,2.66.31.52.63,1.02.98,1.52.36.52.73,1.05,1.11,1.56.89,1.23,1.84,2.41,2.86,3.54,1.03,1.14,2.14,2.18,3.35,3.14.91.72,1.88,1.34,2.93,1.88.66.34,1.33.46,2.13.4.07,0,.12-.03.18-.07l.51-.41c.1-.16.12-.3.08-.47-6.07-7.51-12.14-15.02-18.21-22.53-.11-.13-.32-.14-.48-.01l-.16.13h0c-.15.13-.19.34-.1.48.21.35.42.69.63,1.04.31.44.58.89.81,1.38l.41,1.02Z"/>
    <path class="st14" d="M592.21,738.81c.39.22.76.46,1.12.73.47.24.93.5,1.37.79.6.39,1.21.78,1.81,1.16.84.53,1.61,1.13,2.33,1.8.44.41.87.83,1.28,1.27.44.47.87.94,1.3,1.41,1.02,1.13,1.97,2.3,2.86,3.54.9,1.24,1.68,2.55,2.36,3.93.51,1.04.92,2.12,1.22,3.26.19.72.18,1.4-.05,2.16-.02.06-.05.11-.11.16l-.51.41c-.18.06-.32.06-.48-.02-6.07-7.51-12.14-15.02-18.21-22.53-.11-.13-.07-.34.09-.47l.16-.13h0c.16-.12.37-.12.49,0,.29.28.59.55.88.83.36.39.75.75,1.18,1.08l.91.61Z"/>
  </g>
  <circle class="st2" cx="652.78" cy="761.83" r="13.02"/>
  <g>
    <path class="st1" d="M602.75,888.99c0,7.12,6.14,12.9,13.72,12.9,5.58,0,11.1-3.65,13.01-8.79.26-.7.79-2.18.71-4.11-.24-6.06-6.28-12.9-13.72-12.9s-13.72,5.78-13.72,12.9Z"/>
    <g>
      <path class="st1" d="M628.38,891.89c0,4.38-5.33,7.92-11.91,7.92"/>
      <path class="st1" d="M604.56,891.89c0,4.38,5.33,7.92,11.91,7.92"/>
      <path class="st1" d="M604.56,891.89c0-.86-.68-1.56-1.53-1.56"/>
      <path class="st1" d="M628.38,891.89c0-.86.74-1.56,1.66-1.56"/>
    </g>
  </g>
  <g>
    <path class="st14" d="M602.75,844.72c0-7.12,6.14-12.9,13.72-12.9,5.58,0,11.1,3.65,13.01,8.79.26.7.79,2.18.71,4.11-.24,6.06-6.28,12.9-13.72,12.9-7.58,0-13.72-5.78-13.72-12.9Z"/>
    <path class="st7" d="M628.38,841.83c0-4.38-5.33-7.92-11.91-7.92"/>
    <path class="st7" d="M604.56,841.83c0-4.38,5.33-7.92,11.91-7.92"/>
    <path class="st7" d="M604.56,841.83c0,.86-.68,1.56-1.53,1.56"/>
    <path class="st7" d="M628.38,841.83c0,.86.74,1.56,1.66,1.56"/>
  </g>
  <rect class="st14" x="598.63" y="845.59" width="35.68" height="40.44" transform="translate(1482.28 249.34) rotate(90)"/>
  <path class="st12" d="M630.06,890.21"/>
  <path class="st12" d="M602.82,890.21"/>
  <rect class="st0" x="611.15" y="858.12" width="10.63" height="40.16" transform="translate(1494.67 261.73) rotate(90)"/>
  <line class="st12" x1="596.25" y1="872.88" x2="636.65" y2="872.88"/>
  <rect class="st22" x="544.61" y="694.11" width="31.73" height="24.09"/>
  <rect class="st22" x="735.19" y="703.3" width="8.5" height="297.75"/>
  <rect class="st22" x="456.31" y="864.44" width="8.5" height="127.75"/>
  <rect class="st22" x="540.12" y="923.52" width="8.5" height="79.11"/>
  <rect class="st22" x="553.62" y="701.24" width="8.5" height="168.18"/>
  <rect class="st22" x="540.12" y="864.44" width="8.5" height="15.1"/>
  <rect class="st22" x="725.13" y="994.13" width="18.53" height="8.5"/>
  <rect class="st22" x="540.13" y="994.13" width="141.02" height="8.5"/>
  <rect class="st22" x="456.36" y="864.44" width="105.76" height="8.5"/>
  <rect class="st22" x="458.79" y="958.17" width="88.56" height="34.02"/>
  <polygon class="st22" points="743.65 703.3 720.85 694.11 664.98 694.11 664.98 718.21 717.11 718.21 743.65 728.9 743.65 703.3"/>
  <path class="st10" d="M616.95,959.1c.04-9.13,4.55-16.54,4.55-16.54l21.63,16.54"/>
  <g>
    <path class="st10" d="M701.15,919.57l-16.54-21.63s7.42-4.51,16.54-4.55"/>
    <path class="st10" d="M701.15,890.62c-9.13-.04-16.54-4.55-16.54-4.55l16.54-21.63"/>
  </g>
  <g>
    <path class="st7" d="M544.4,923.52c-11.6,0-22.94-4.79-31.27-13.11-8.07-8.07-12.86-19.41-12.86-31.01"/>
    <line class="st7" x1="544.4" y1="881.16" x2="544.4" y2="923.52"/>
    <polyline class="st7" points="500.28 879.39 544.4 879.39 544.4 881.16"/>
  </g>
  <g>
    <path class="st7" d="M681.09,994.24c0-11.6,4.79-22.95,13.11-31.27,8.07-8.07,19.42-12.86,31.01-12.86"/>
    <line class="st7" x1="723.45" y1="994.24" x2="681.09" y2="994.24"/>
    <polyline class="st7" points="725.21 950.12 725.21 994.24 723.45 994.24"/>
  </g>
  <g>
    <path class="st11" d="M633.52,703.87c0,14.44-5.97,28.57-16.33,38.93-10.05,10.05-24.18,16.01-38.62,16.01"/>
    <path class="st11" d="M633.52,703.87"/>
    <path class="st11" d="M578.58,703.87"/>
    <line class="st11" x1="578.58" y1="758.81" x2="578.58" y2="703.87"/>
  </g>
  <g>
    <line class="st5" x1="606.4" y1="697.37" x2="634.78" y2="697.37"/>
    <line class="st5" x1="635.14" y1="697.37" x2="663.7" y2="697.37"/>
    <line class="st5" x1="577.48" y1="697.37" x2="605.98" y2="697.37"/>
    <line class="st5" x1="607.66" y1="698.33" x2="633.46" y2="698.33"/>
    <line class="st5" x1="578.74" y1="698.33" x2="604.72" y2="698.33"/>
    <line class="st5" x1="636.4" y1="698.33" x2="662.38" y2="698.33"/>
    <line class="st5" x1="662.38" y1="703.67" x2="636.4" y2="703.67"/>
    <line class="st5" x1="633.46" y1="703.67" x2="607.66" y2="703.67"/>
    <line class="st5" x1="604.72" y1="703.67" x2="578.74" y2="703.67"/>
    <polyline class="st5" points="578.74 701.69 604.72 701.69 604.72 703.67 607.66 703.67 607.66 701.69 633.46 701.69 633.46 703.67 636.4 703.67 636.4 701.69 662.38 701.69 662.38 703.67 664.06 703.67 664.06 697.37 663.7 697.37 663.7 698.33 662.38 698.33 662.38 699.41 636.4 699.41 636.4 698.33 635.14 698.33 635.14 697.37 634.78 697.37 634.78 698.33 633.46 698.33 633.46 699.41 607.66 699.41 607.66 698.33 606.4 698.33 606.4 697.37 605.98 697.37 605.98 698.33 604.72 698.33 604.72 699.41 578.74 699.41 578.74 698.33 577.48 698.33 577.48 697.37 577.06 697.37 577.06 703.67 578.74 703.67 578.74 701.69"/>
    <line class="st5" x1="663.7" y1="699.41" x2="577.66" y2="699.41"/>
    <line class="st7" x1="665.58" y1="694.26" x2="575.73" y2="694.26"/>
  </g>
  <rect class="st20" x="547.48" y="872.94" width="94.56" height="127.08"/>
</svg>