<?xml version="1.0" encoding="UTF-8"?>
<svg xmlns="http://www.w3.org/2000/svg" version="1.1" viewBox="0 0 1200 1697.14">
  <!-- Generator: Adobe Illustrator 29.6.0, SVG Export Plug-In . SVG Version: 2.1.1 Build 207)  -->
  <defs>
    <style>
      .st0 {
        fill: #e2dedb;
      }

      .st1, .st2, .st3, .st4, .st5, .st6, .st7, .st8, .st9, .st10, .st11, .st12, .st13 {
        stroke: #363a3b;
      }

      .st1, .st4, .st14, .st15, .st16, .st13, .st17 {
        stroke-width: .28px;
      }

      .st1, .st9, .st18, .st12, .st13 {
        fill: #fff;
      }

      .st1, .st10 {
        stroke-miterlimit: 10;
      }

      .st2 {
        stroke-width: .3px;
      }

      .st2, .st3, .st4, .st5, .st6, .st7, .st8, .st9, .st14, .st11, .st15, .st19, .st16, .st12, .st13, .st17 {
        stroke-linecap: round;
        stroke-linejoin: round;
      }

      .st2, .st3, .st4, .st5, .st6, .st7, .st8, .st14, .st10, .st11, .st15, .st19, .st16, .st17 {
        fill: none;
      }

      .st3 {
        stroke-width: .28px;
      }

      .st5, .st12 {
        stroke-width: .28px;
      }

      .st6 {
        stroke-width: .29px;
      }

      .st7 {
        stroke-width: .18px;
      }

      .st20 {
        fill: #ece8e5;
      }

      .st8 {
        stroke-dasharray: .06 .42;
        stroke-width: .18px;
      }

      .st9, .st11, .st19 {
        stroke-dasharray: .06 .43;
        stroke-width: .18px;
      }

      .st14, .st15, .st19, .st16 {
        stroke: #000;
      }

      .st10 {
        stroke-width: .29px;
      }

      .st15 {
        stroke-dasharray: .09 .69;
      }

      .st16 {
        stroke-dasharray: .09 .68;
      }

      .st21 {
        fill: #302c35;
      }

      .st17 {
        stroke: #00001d;
      }
    </style>
  </defs>
  <g id="Dore_vinduer">
    <g>
      <path class="st7" d="M1204.88,746.16c8.45,0,16.71-3.49,22.77-9.55,5.88-5.88,9.36-14.14,9.36-22.59"/>
      <line class="st7" x1="1204.88" y1="715.31" x2="1204.88" y2="746.16"/>
      <polyline class="st7" points="1237.02 714.03 1204.88 714.03 1204.88 715.31"/>
    </g>
  </g>
  <g id="Vinduer_i_facade">
    <g>
      <polygon class="st20" points="452.49 1053.46 749.67 1053.46 749.12 932.83 666.52 932.23 664.75 652.75 451.84 652.75 452.49 1053.46"/>
      <polygon class="st9" points="454.32 1026.66 454.46 958.97 454.3 903.3 558.18 903.3 558.18 1026.66 454.32 1026.66"/>
      <polygon class="st0" points="474.99 955.89 454.44 955.89 454.45 945.3 454.3 902.15 558.18 902.15 558.18 1026.45 474.99 1026.45 474.99 955.89"/>
      <g>
        <line class="st4" x1="466.3" y1="895.24" x2="485.56" y2="895.24"/>
        <line class="st4" x1="485.56" y1="893.86" x2="466.3" y2="893.86"/>
        <polyline class="st4" points="485.56 895.24 488.44 895.24 488.44 893.86 485.56 893.86 485.56 895.24"/>
        <polyline class="st4" points="463.48 895.24 466.3 895.24 466.3 893.86 463.48 893.86 463.48 895.24"/>
        <line class="st4" x1="465.28" y1="898.3" x2="465.28" y2="895.48"/>
        <line class="st4" x1="486.45" y1="898.3" x2="486.45" y2="895.48"/>
      </g>
      <g>
        <polyline class="st18" points="474.94 956.27 474.94 955.89 459.32 955.89 459.32 956.27"/>
        <g>
          <line class="st4" x1="459.49" y1="898.6" x2="493.51" y2="898.6"/>
          <g>
            <line class="st4" x1="459.49" y1="927.37" x2="493.51" y2="927.37"/>
            <line class="st4" x1="493.51" y1="928.14" x2="493.51" y2="898.67"/>
            <line class="st4" x1="493.51" y1="928.14" x2="493.51" y2="956.08"/>
            <path class="st17" d="M493.51,956.46"/>
            <line class="st4" x1="459.49" y1="956.08" x2="493.51" y2="956.08"/>
          </g>
        </g>
        <path class="st11" d="M493.51,955.96l16.54-23.26s-7.42-4.85-16.54-4.89"/>
        <path class="st11" d="M493.51,899.4l16.54,22.75s-7.42,4.74-16.54,4.79"/>
      </g>
      <g>
        <g>
          <path class="st13" d="M609.98,876.19c0,7.12,6.14,12.9,13.72,12.9,5.58,0,11.1-3.65,13.01-8.79.26-.7.79-2.18.71-4.11-.24-6.06-6.28-12.9-13.72-12.9s-13.72,5.78-13.72,12.9Z"/>
          <path class="st4" d="M635.61,879.08c0,4.38-5.33,7.92-11.91,7.92"/>
          <path class="st4" d="M611.79,879.08c0,4.38,5.33,7.92,11.91,7.92"/>
          <path class="st4" d="M611.79,879.08c0-.86-.68-1.56-1.53-1.56"/>
          <path class="st4" d="M635.61,879.08c0-.86.74-1.56,1.66-1.56"/>
        </g>
        <g>
          <path class="st13" d="M609.98,831.91c0-7.12,6.14-12.9,13.72-12.9,5.58,0,11.1,3.65,13.01,8.79.26.7.79,2.18.71,4.11-.24,6.06-6.28,12.9-13.72,12.9s-13.72-5.78-13.72-12.9Z"/>
          <path class="st4" d="M635.61,829.02c0-4.38-5.33-7.92-11.91-7.92"/>
          <path class="st4" d="M611.79,829.02c0-4.38,5.33-7.92,11.91-7.92"/>
          <path class="st4" d="M611.79,829.02c0,.86-.68,1.56-1.53,1.56"/>
          <path class="st4" d="M635.61,829.02c0,.86.74,1.56,1.66,1.56"/>
        </g>
        <rect class="st13" x="605.86" y="832.79" width="35.68" height="40.44" transform="translate(1476.71 229.3) rotate(90)"/>
      </g>
      <g>
        <g>
          <path class="st13" d="M594.08,706.74c-7.8,6.26-15.61,12.52-23.41,18.78-.41.18-.92.03-1.24-.37-8.71-8.31-16.2-17.89-22.15-28.33-.1-.17-.09-.38.04-.5.73-.59,1.45-1.17,2.18-1.76l21.01-16.98,23.57,29.17"/>
          <path class="st13" d="M595.58,705.14c-.65.68-1.37,1.26-2.16,1.77-.16.09-.37.04-.51-.13-7.76-9.16-15.35-18.44-22.78-27.86-.16-.26-.13-.57.07-.74.74-.71,1.54-1.34,2.41-1.88"/>
          <path class="st13" d="M590.32,707.82c.46.57,2.18-.06,3.84-1.4.13-.11.26-.22.39-.33l1.03-.95c.12-.14.11-.36-.02-.52l-22.95-28.39-2.42,1.95c-.78.65-1.55,1.3-2.33,1.96-.26.36-.22.89.1,1.29,5.95,9.96,13.54,18.92,22.35,26.4Z"/>
          <path class="st13" d="M591.98,706.78c-.43.13-.84.29-1.24.48-.51.13-1.02.29-1.51.48-.67.26-1.34.51-2.02.76-.93.34-1.81.76-2.66,1.27-.52.31-1.02.63-1.52.98-.52.36-1.05.73-1.56,1.11-1.23.89-2.41,1.84-3.54,2.86-1.14,1.03-2.18,2.14-3.14,3.35-.72.91-1.34,1.88-1.88,2.93-.34.66-.46,1.33-.4,2.13,0,.07.03.12.07.18l.41.51c.16.1.3.12.47.08,7.51-6.07,15.02-12.14,22.53-18.21.13-.11.14-.32.01-.48l-.13-.16h0c-.13-.15-.34-.19-.48-.1-.35.21-.69.42-1.04.63-.44.31-.89.58-1.38.81l-1.02.41Z"/>
          <path class="st13" d="M569.89,679.45c-.22.39-.46.76-.73,1.12-.24.47-.5.93-.79,1.37-.39.6-.78,1.21-1.16,1.81-.53.84-1.13,1.61-1.8,2.33-.41.44-.83.87-1.27,1.28-.47.44-.94.87-1.41,1.3-1.13,1.02-2.3,1.97-3.54,2.86-1.24.9-2.55,1.68-3.93,2.36-1.04.51-2.12.92-3.26,1.22-.72.19-1.4.18-2.16-.05-.06-.02-.11-.05-.16-.11l-.41-.51c-.06-.18-.06-.32.02-.48,7.51-6.07,15.02-12.14,22.53-18.21.13-.11.34-.07.47.09l.13.16h0c.12.16.12.37,0,.49-.28.29-.55.59-.83.88-.39.36-.75.75-1.08,1.18l-.61.91Z"/>
        </g>
        <circle class="st1" cx="553.96" cy="746.68" r="13.02"/>
      </g>
      <g>
        <g>
          <path class="st1" d="M676.19,1026.08v-16.09c0-6.19,4.45-11.2,9.95-11.2s9.95,5.01,9.95,11.2v16.09s-19.9,0-19.9,0Z"/>
          <g>
            <polyline class="st14" points="700.72 981.35 700.67 981.35 700.67 981.39"/>
            <line class="st15" x1="700.67" y1="982.08" x2="700.67" y2="1025.6"/>
            <polyline class="st14" points="700.67 1025.95 700.67 1025.99 700.72 1025.99"/>
            <line class="st16" x1="701.4" y1="1025.99" x2="744.41" y2="1025.99"/>
            <polyline class="st14" points="744.75 1025.99 744.8 1025.99 744.8 1025.95"/>
            <line class="st15" x1="744.8" y1="1025.26" x2="744.8" y2="981.74"/>
            <polyline class="st14" points="744.8 981.39 744.8 981.35 744.75 981.35"/>
            <line class="st16" x1="744.07" y1="981.35" x2="701.06" y2="981.35"/>
          </g>
          <g>
            <line class="st4" x1="721.59" y1="1025.26" x2="721.59" y2="1012.96"/>
            <path class="st13" d="M718.9,1013.02c0,1.52,1.23,2.75,2.75,2.75s2.75-1.23,2.75-2.75-1.23-2.75-2.75-2.75-2.75,1.23-2.75,2.75"/>
          </g>
        </g>
        <g>
          <path class="st12" d="M744.14,972.12h-18.5c-.41,0-.74-.21-.74-.47v-26.59c0-.32.33-.59.74-.59h18.5"/>
          <path class="st4" d="M741.45,957.24c-.55,0-1,.45-1,1s.45,1,1,1,1-.45,1-1-.45-1-1-1"/>
          <g>
            <path class="st4" d="M732.63,957.04c-.68,0-1.23.55-1.23,1.23s.55,1.23,1.23,1.23,1.23-.55,1.23-1.23-.55-1.23-1.23-1.23"/>
            <path class="st4" d="M732.63,956.45c-1,0-1.82.81-1.82,1.82s.81,1.82,1.82,1.82,1.82-.81,1.82-1.82-.81-1.82-1.82-1.82"/>
          </g>
          <path class="st5" d="M738.23,970.09h-10.82c-.41,0-.74-.23-.74-.52v-22.61c0-.29.33-.52.74-.52h10.82c.41,0,.74.23.74.52v22.61c0,.29-.33.52-.74.52Z"/>
        </g>
      </g>
      <g>
        <rect class="st13" x="432.42" y="721.48" width="113.09" height="50.38" transform="translate(-257.71 1235.64) rotate(-90)"/>
        <rect class="st13" x="475.23" y="703.73" width="27.44" height="27.44" rx="1.42" ry="1.42" transform="translate(977.91 1434.9) rotate(180)"/>
        <polygon class="st13" points="463.13 704.92 463.13 803.52 514.15 803.52 514.15 730.42 463.13 704.92"/>
      </g>
      <polygon class="st10" points="459.36 1024.12 459.38 986.78 459.35 956.08 493.61 956.08 493.61 1024.12 459.36 1024.12"/>
      <g>
        <g>
          <polyline class="st3" points="488.78 1017.25 467.59 1017.25 467.59 996.05 488.78 996.05 488.78 1017.25"/>
          <line class="st3" x1="472.71" y1="1006.59" x2="464.19" y2="1006.59"/>
        </g>
        <polyline class="st3" points="491.88 1022.41 461.09 1022.41 461.09 990.88 491.88 990.88 491.88 1022.41"/>
      </g>
      <g>
        <g>
          <line class="st6" x1="488.81" y1="966.06" x2="480.57" y2="966.06"/>
          <line class="st6" x1="473.21" y1="966.06" x2="464.97" y2="966.06"/>
          <line class="st6" x1="469.14" y1="962.25" x2="469.14" y2="969.97"/>
          <line class="st6" x1="484.64" y1="962.25" x2="484.64" y2="969.97"/>
        </g>
        <polyline class="st2" points="491.88 974.44 461.09 974.44 461.09 957.78 491.88 957.78 491.88 974.44"/>
      </g>
      <polygon class="st19" points="474.99 1026.45 558.18 1026.45 558.18 902.15 459.37 902.15 459.32 955.89 474.99 955.89 474.99 1026.45"/>
      <rect class="st21" x="447.35" y="643.52" width="80.69" height="34.02"/>
      <rect class="st21" x="661.7" y="1026.08" width="90.94" height="27.54"/>
      <rect class="st21" x="458.75" y="1024.1" width="102.53" height="28.58"/>
      <rect class="st21" x="643.96" y="643.52" width="33.08" height="34.02"/>
      <rect class="st21" x="658.25" y="1035.87" width="26.32" height="15.5"/>
      <rect class="st21" x="661.7" y="676.62" width="8.5" height="253.89"/>
      <rect class="st21" x="661.7" y="990.1" width="8.5" height="48.8"/>
      <rect class="st21" x="744.14" y="930.55" width="8.5" height="123.07"/>
      <rect class="st21" x="661.7" y="930.51" width="90.94" height="8.5"/>
      <rect class="st21" x="450.83" y="1044.97" width="153.74" height="8.5"/>
      <rect class="st21" x="648.69" y="1045.12" width="103.95" height="8.5"/>
      <rect class="st21" x="661.7" y="930.51" width="8.5" height="15.91"/>
      <rect class="st21" x="450.87" y="650.79" width="8.5" height="397.91"/>
      <g>
        <path class="st4" d="M665,990.54c11.6,0,22.95-4.79,31.27-13.11,8.07-8.07,12.86-19.42,12.86-31.01"/>
        <line class="st4" x1="665" y1="948.18" x2="665" y2="990.54"/>
        <polyline class="st4" points="709.13 946.42 665 946.42 665 948.18"/>
      </g>
      <g>
        <path class="st4" d="M648.69,1000.84c-11.6,0-22.95,4.79-31.27,13.11-8.07,8.07-12.86,19.42-12.86,31.01"/>
        <line class="st4" x1="648.69" y1="1043.2" x2="648.69" y2="1000.84"/>
        <polyline class="st4" points="604.57 1044.97 648.69 1044.97 648.69 1043.2"/>
      </g>
      <g>
        <g>
          <g>
            <path class="st8" d="M555.95,652.77c-.84,5.28-3.46,9.74-7.45,13.81-4.76,4.86-11.47,7.75-18.32,7.75"/>
            <line class="st8" x1="530.19" y1="674.33" x2="530.19" y2="652.62"/>
          </g>
          <g>
            <path class="st11" d="M616.48,652.65c.84,5.28,3.47,9.74,7.48,13.81,4.78,4.86,11.51,7.75,18.39,7.75"/>
            <line class="st11" x1="642.35" y1="674.21" x2="642.35" y2="652.15"/>
          </g>
          <polyline class="st4" points="587.78 650.7 613.52 650.7 613.52 648.42 587.78 648.42 587.78 650.7"/>
          <polyline class="st4" points="559.07 650.7 584.82 650.7 584.82 648.42 559.07 648.42 559.07 650.7"/>
          <polyline class="st4" points="616.48 650.7 642.35 650.7 642.35 648.42 616.48 648.42 616.48 650.7"/>
          <polyline class="st4" points="530.19 650.7 556.05 650.7 556.05 648.42 530.19 648.42 530.19 650.7"/>
          <line class="st4" x1="615.21" y1="646.38" x2="643.68" y2="646.38"/>
          <line class="st4" x1="528.86" y1="646.38" x2="557.38" y2="646.38"/>
          <line class="st4" x1="557.74" y1="646.38" x2="586.09" y2="646.38"/>
          <line class="st4" x1="586.45" y1="646.38" x2="614.79" y2="646.38"/>
          <line class="st4" x1="616.48" y1="647.28" x2="642.35" y2="647.28"/>
          <line class="st4" x1="587.78" y1="647.28" x2="613.52" y2="647.28"/>
          <line class="st4" x1="559.07" y1="647.28" x2="584.82" y2="647.28"/>
          <line class="st4" x1="530.19" y1="647.28" x2="556.05" y2="647.28"/>
          <polyline class="st4" points="586.45 646.38 586.09 646.38 586.09 647.28 584.82 647.28 584.82 652.68 587.78 652.68 587.78 647.28 586.45 647.28 586.45 646.38"/>
          <polyline class="st4" points="557.74 646.38 557.38 646.38 557.38 647.28 556.05 647.28 556.05 652.68 559.07 652.68 559.07 647.28 557.74 647.28 557.74 646.38"/>
          <polyline class="st4" points="615.21 646.38 614.79 646.38 614.79 647.28 613.52 647.28 613.52 652.68 616.48 652.68 616.48 647.28 615.21 647.28 615.21 646.38"/>
          <line class="st4" x1="642.35" y1="652.68" x2="616.48" y2="652.68"/>
          <line class="st4" x1="613.52" y1="652.68" x2="587.78" y2="652.68"/>
          <line class="st4" x1="584.82" y1="652.68" x2="559.07" y2="652.68"/>
          <line class="st4" x1="556.05" y1="652.68" x2="530.19" y2="652.68"/>
          <line class="st4" x1="554.96" y1="648.42" x2="531.33" y2="648.42"/>
          <line class="st4" x1="641.26" y1="648.42" x2="617.63" y2="648.42"/>
        </g>
        <line class="st4" x1="528.04" y1="643.52" x2="644.26" y2="643.52"/>
      </g>
      <rect class="st18" x="459.37" y="898.79" width="33.97" height="3.36"/>
    </g>
  </g>
</svg>