<?xml version="1.0" encoding="UTF-8"?>
<svg id="Vinduer_i_facade" xmlns="http://www.w3.org/2000/svg" version="1.1" viewBox="0 0 1200 1697.14">
  <!-- Generator: Adobe Illustrator 29.6.0, SVG Export Plug-In . SVG Version: 2.1.1 Build 207)  -->
  <defs>
    <style>
      .st0 {
        fill: #e2dedb;
      }

      .st1 {
        stroke-miterlimit: 10;
      }

      .st1, .st2, .st3, .st4, .st5, .st6, .st7, .st8, .st9, .st10, .st11, .st12 {
        stroke: #363a3b;
      }

      .st1, .st5, .st13, .st14, .st15, .st11, .st16 {
        stroke-width: .28px;
      }

      .st1, .st17, .st10, .st11, .st12 {
        fill: #fff;
      }

      .st2 {
        stroke-width: .29px;
      }

      .st2, .st3, .st4, .st5, .st6, .st7, .st8, .st13, .st14, .st9, .st15, .st18, .st10, .st11, .st12, .st16 {
        stroke-linecap: round;
        stroke-linejoin: round;
      }

      .st2, .st3, .st4, .st5, .st6, .st7, .st8, .st13, .st14, .st9, .st15, .st18, .st16 {
        fill: none;
      }

      .st3 {
        stroke-width: .3px;
      }

      .st4 {
        stroke-width: .28px;
      }

      .st6, .st10 {
        stroke-width: .28px;
      }

      .st7 {
        stroke-width: .29px;
      }

      .st19 {
        fill: #ece8e5;
      }

      .st8 {
        stroke-dasharray: .06 .42;
        stroke-width: .18px;
      }

      .st13, .st14, .st15, .st18 {
        stroke: #000;
      }

      .st14 {
        stroke-dasharray: .09 .69;
      }

      .st9, .st18 {
        stroke-dasharray: .06 .43;
        stroke-width: .18px;
      }

      .st15 {
        stroke-dasharray: .09 .68;
      }

      .st20 {
        fill: #302c35;
      }

      .st12 {
        stroke-width: .29px;
      }

      .st16 {
        stroke: #00001d;
      }
    </style>
  </defs>
  <polygon class="st19" points="658.58 687.03 795.31 1017.15 494.68 1017.15 494.68 986.11 400.31 986.11 400.31 899.61 438.74 899.61 438.74 724.99 658.58 687.03"/>
  <rect class="st17" x="524.26" y="977.51" width="67.54" height="34.91"/>
  <path class="st17" d="M529.89,993.58"/>
  <line class="st17" x1="499.67" y1="978.23" x2="499.67" y2="1012.25"/>
  <rect class="st0" x="482" y="890.45" width="127.39" height="92.26" transform="translate(-390.89 1482.28) rotate(-90)"/>
  <g>
    <line class="st5" x1="474.43" y1="974.48" x2="493.69" y2="974.48"/>
    <line class="st5" x1="493.69" y1="973.1" x2="474.43" y2="973.1"/>
    <polyline class="st5" points="493.69 974.48 496.57 974.48 496.57 973.1 493.69 973.1 493.69 974.48"/>
    <polyline class="st5" points="471.61 974.48 474.43 974.48 474.43 973.1 471.61 973.1 471.61 974.48"/>
    <line class="st5" x1="473.41" y1="977.54" x2="473.41" y2="974.72"/>
    <line class="st5" x1="494.58" y1="977.54" x2="494.58" y2="974.72"/>
  </g>
  <rect class="st17" x="599.17" y="956.17" width="27.07" height="55.31"/>
  <g>
    <g>
      <path class="st11" d="M491.13,788.3c0-7.12-6.14-12.9-13.72-12.9-5.58,0-11.1,3.65-13.01,8.79-.26.7-.79,2.18-.71,4.11.24,6.06,6.28,12.9,13.72,12.9,7.58,0,13.72-5.78,13.72-12.9Z"/>
      <path class="st5" d="M465.5,785.41c0-4.38,5.33-7.92,11.91-7.92"/>
      <path class="st5" d="M489.32,785.41c0-4.38-5.33-7.92-11.91-7.92"/>
      <path class="st5" d="M489.32,785.41c0,.86.68,1.56,1.53,1.56"/>
      <path class="st5" d="M465.5,785.41c0,.86-.74,1.56-1.66,1.56"/>
    </g>
    <g>
      <path class="st11" d="M491.13,832.57c0,7.12-6.14,12.9-13.72,12.9-5.58,0-11.1-3.65-13.01-8.79-.26-.7-.79-2.18-.71-4.11.24-6.06,6.28-12.9,13.72-12.9,7.58,0,13.72,5.78,13.72,12.9Z"/>
      <path class="st5" d="M465.5,835.47c0,4.38,5.33,7.92,11.91,7.92"/>
      <path class="st5" d="M489.32,835.47c0,4.38-5.33,7.92-11.91,7.92"/>
      <path class="st5" d="M489.32,835.47c0-.86.68-1.56,1.53-1.56"/>
      <path class="st5" d="M465.5,835.47c0-.86-.74-1.56-1.66-1.56"/>
    </g>
    <rect class="st11" x="459.57" y="791.26" width="35.68" height="40.44" transform="translate(-334.07 1288.89) rotate(-90)"/>
  </g>
  <g>
    <g>
      <polyline class="st13" points="676.46 879.12 676.46 879.07 676.51 879.07"/>
      <line class="st14" x1="677.2" y1="879.07" x2="726.18" y2="879.07"/>
      <polyline class="st13" points="726.52 879.07 726.57 879.07 726.57 879.12"/>
      <line class="st15" x1="726.57" y1="879.8" x2="726.57" y2="928.21"/>
      <polyline class="st13" points="726.57 928.55 726.57 928.6 726.52 928.6"/>
      <line class="st14" x1="725.83" y1="928.6" x2="676.85" y2="928.6"/>
      <polyline class="st13" points="676.51 928.6 676.46 928.6 676.46 928.55"/>
      <line class="st15" x1="676.46" y1="927.87" x2="676.46" y2="879.46"/>
    </g>
    <g>
      <line class="st5" x1="726.39" y1="903.78" x2="714.09" y2="903.78"/>
      <path class="st11" d="M714.15,901.08c1.52,0,2.75,1.23,2.75,2.75,0,1.52-1.23,2.75-2.75,2.75s-2.75-1.23-2.75-2.75,1.23-2.75,2.75-2.75"/>
    </g>
  </g>
  <g>
    <rect class="st12" x="605.39" y="763.16" width="113.09" height="50.38" transform="translate(191.76 1704.1) rotate(-112.8)"/>
    <rect class="st12" x="636.27" y="746.46" width="27.99" height="28.27" rx="1.45" ry="1.45" transform="translate(-243.96 311.48) rotate(-22.8)"/>
    <polygon class="st12" points="669.57 739.85 707.78 830.74 660.75 850.51 632.42 783.13 669.57 739.85"/>
  </g>
  <g>
    <path class="st11" d="M536.93,762.93c7.8,6.26,15.61,12.52,23.41,18.78.41.18.92.03,1.24-.37,8.71-8.31,16.2-17.89,22.15-28.33.1-.17.09-.38-.04-.5-.73-.59-1.45-1.17-2.18-1.76l-21.01-16.98-23.57,29.17"/>
    <path class="st11" d="M535.43,761.33c.65.68,1.37,1.26,2.16,1.77.16.09.37.04.51-.13,7.76-9.16,15.35-18.44,22.78-27.86.16-.26.13-.57-.07-.74-.74-.71-1.54-1.34-2.41-1.88"/>
    <path class="st11" d="M540.69,764.01c-.46.57-2.18-.06-3.84-1.4-.13-.11-.26-.22-.39-.33l-1.03-.95c-.12-.14-.11-.36.02-.52l22.95-28.39,2.42,1.95c.78.65,1.55,1.3,2.33,1.96.26.36.22.89-.1,1.29-5.95,9.96-13.54,18.92-22.35,26.4Z"/>
    <path class="st11" d="M539.03,762.97c.43.13.84.29,1.24.48.51.13,1.02.29,1.51.48.67.26,1.34.51,2.02.76.93.34,1.81.76,2.66,1.27.52.31,1.02.63,1.52.98.52.36,1.05.73,1.56,1.11,1.23.89,2.41,1.84,3.54,2.86,1.14,1.03,2.18,2.14,3.14,3.35.72.91,1.34,1.88,1.88,2.93.34.66.46,1.33.4,2.13,0,.07-.03.12-.07.18l-.41.51c-.16.1-.3.12-.47.08-7.51-6.07-15.02-12.14-22.53-18.21-.13-.11-.14-.32-.01-.48l.13-.16h0c.13-.15.34-.19.48-.1.35.21.69.42,1.04.63.44.31.89.58,1.38.81l1.02.41Z"/>
    <path class="st11" d="M561.12,735.64c.22.39.46.76.73,1.12.24.47.5.93.79,1.37.39.6.78,1.21,1.16,1.81.53.84,1.13,1.61,1.8,2.33.41.44.83.87,1.27,1.28.47.44.94.87,1.41,1.3,1.13,1.02,2.3,1.97,3.54,2.86,1.24.9,2.55,1.68,3.93,2.36,1.04.51,2.12.92,3.26,1.22.72.19,1.4.18,2.16-.05.06-.02.11-.05.16-.11l.41-.51c.06-.18.06-.32-.02-.48-7.51-6.07-15.02-12.14-22.53-18.21-.13-.11-.34-.07-.47.09l-.13.16h0c-.12.16-.12.37,0,.49.28.29.55.59.83.88.39.36.75.75,1.08,1.18l.61.91Z"/>
  </g>
  <circle class="st1" cx="598.69" cy="785.76" r="13.02" transform="translate(-380.26 653.48) rotate(-45)"/>
  <g>
    <path class="st10" d="M683.42,1011.47v-18.5c0-.41-.21-.74-.47-.74h-26.59c-.32,0-.59.33-.59.74v18.5"/>
    <path class="st5" d="M668.55,1008.77c0-.55.45-1,1-1s1,.45,1,1-.45,1-1,1-1-.45-1-1"/>
    <g>
      <path class="st5" d="M668.34,999.96c0-.68.55-1.23,1.23-1.23s1.23.55,1.23,1.23-.55,1.23-1.23,1.23-1.23-.55-1.23-1.23"/>
      <path class="st5" d="M667.76,999.96c0-1,.81-1.82,1.82-1.82s1.82.81,1.82,1.82-.81,1.82-1.82,1.82c-1,0-1.82-.81-1.82-1.82"/>
    </g>
    <path class="st6" d="M681.39,1005.55v-10.82c0-.41-.23-.74-.52-.74h-22.61c-.29,0-.52.33-.52.74v10.82c0,.41.23.74.52.74h22.61c.29,0,.52-.33.52-.74Z"/>
  </g>
  <g>
    <line class="st2" x1="550.71" y1="1012.05" x2="550.71" y2="977.7"/>
    <g>
      <g>
        <g>
          <polyline class="st4" points="582.71 982.13 582.71 1003.32 561.52 1003.32 561.52 982.13 582.71 982.13"/>
          <line class="st4" x1="572.06" y1="998.2" x2="572.06" y2="1006.72"/>
        </g>
        <polyline class="st4" points="587.88 979.03 587.88 1009.82 556.35 1009.82 556.35 979.03 587.88 979.03"/>
      </g>
      <g>
        <g>
          <line class="st7" x1="535.88" y1="982.1" x2="535.88" y2="990.34"/>
          <line class="st7" x1="535.88" y1="997.7" x2="535.88" y2="1005.94"/>
          <line class="st7" x1="532.07" y1="1001.77" x2="539.79" y2="1001.77"/>
          <line class="st7" x1="532.07" y1="986.28" x2="539.79" y2="986.28"/>
        </g>
        <polyline class="st3" points="544.26 979.03 544.26 1009.82 527.6 1009.82 527.6 979.03 544.26 979.03"/>
      </g>
    </g>
  </g>
  <g>
    <line class="st5" x1="524.3" y1="1011.7" x2="524.3" y2="977.68"/>
    <line class="st5" x1="524.3" y1="977.68" x2="499.49" y2="977.68"/>
    <path class="st16" d="M499.1,977.68"/>
    <line class="st5" x1="499.49" y1="1011.7" x2="499.49" y2="977.68"/>
  </g>
  <polyline class="st6" points="599.31 983.91 626.24 983.91 626.24 956.27 599.31 956.27"/>
  <polyline class="st6" points="599.31 1011.6 626.24 1011.6 626.24 983.97 599.31 983.97"/>
  <g>
    <path class="st9" d="M626.27,956.47l16.54,21.63s-7.42,4.98-16.54,5.02"/>
    <path class="st9" d="M626.27,984.71c9.13.04,16.54,5.26,16.54,5.26l-16.54,21.63"/>
  </g>
  <g>
    <path class="st1" d="M711.72,965.16h-16.09c-6.19,0-11.2-4.45-11.2-9.95,0-5.5,5.01-9.95,11.2-9.95h16.09s0,19.9,0,19.9Z"/>
    <g>
      <path class="st10" d="M712.89,945.26h8.72c.33,0,.6.2.6.44v19.02c0,.24-.27.44-.6.44h-8.72c-.33,0-.6-.2-.6-.44v-19.02c0-.24.27-.44.6-.44Z"/>
      <path class="st11" d="M717.41,956.24c.55,0,.99-.46.99-1.03s-.44-1.03-.99-1.03-.99.46-.99,1.03.44,1.03.99,1.03"/>
    </g>
  </g>
  <rect class="st20" x="429.25" y="710.52" width="34.01" height="40.33" transform="translate(1098.69 176.28) rotate(81.06)"/>
  <rect class="st20" x="434.6" y="744.75" width="8.5" height="158.55"/>
  <rect class="st20" x="398.02" y="894.86" width="8.5" height="89.7"/>
  <rect class="st20" x="491.02" y="978.99" width="8.5" height="34.78"/>
  <rect class="st20" x="590.74" y="869.97" width="8.5" height="14.8"/>
  <rect class="st20" x="590.74" y="935.04" width="8.5" height="77.93"/>
  <rect class="st20" x="415.87" y="876.93" width="8.5" height="44.22" transform="translate(-478.92 1319.16) rotate(-90)"/>
  <rect class="st20" x="475.65" y="962.18" width="8.5" height="39.24" transform="translate(-501.89 1461.7) rotate(-90)"/>
  <rect class="st20" x="402.86" y="972.69" width="8.5" height="18.21" transform="translate(-574.68 1388.91) rotate(-90)"/>
  <rect class="st20" x="727.23" y="869.88" width="8.5" height="148.15" transform="translate(1462.97 1887.91) rotate(180)"/>
  <polygon class="st20" points="801.99 1019.96 801.99 1012.56 801.51 1011.46 491.02 1011.46 491.02 1019.96 801.99 1019.96"/>
  <rect class="st20" x="658.09" y="803.18" width="8.5" height="142.06" transform="translate(-211.87 1536.55) rotate(-90)"/>
  <rect class="st20" x="723.75" y="669.3" width="8.5" height="358.9" transform="translate(-273.29 350.98) rotate(-22.95)"/>
  <polygon class="st20" points="731.54 874.27 731.54 1016.1 797.55 1016.1 737.03 873.6 731.54 874.27"/>
  <g>
    <polygon class="st20" points="584.89 724.51 578.79 691.05 654.19 677.31 664.89 709.93 584.89 724.51"/>
    <circle class="st20" cx="655.45" cy="684.09" r="6.91"/>
  </g>
  <path class="st9" d="M499.49,977.68l19.53-16.54s4.36,7.42,4.4,16.54"/>
  <g>
    <path class="st5" d="M416.16,933.48c11.6,0,22.94,4.79,31.27,13.11,8.07,8.07,12.86,19.42,12.86,31.01"/>
    <line class="st5" x1="416.16" y1="975.84" x2="416.16" y2="933.48"/>
    <polyline class="st5" points="460.29 977.6 416.16 977.6 416.16 975.84"/>
  </g>
  <g>
    <path class="st5" d="M644.78,884.78c0,13.22-5.46,26.16-14.95,35.65-9.2,9.2-22.14,14.66-35.36,14.66"/>
    <line class="st5" x1="596.48" y1="884.78" x2="644.78" y2="884.78"/>
    <polyline class="st5" points="594.47 935.09 594.47 884.78 596.48 884.78"/>
  </g>
  <g>
    <path class="st8" d="M493.15,716.14c0,5.34-1.86,10.16-5.13,14.8-3.91,5.55-10.02,9.44-16.74,10.52"/>
    <line class="st8" x1="471.29" y1="741.46" x2="467.87" y2="720.01"/>
  </g>
  <g>
    <path class="st9" d="M552.2,705.3c1.74,5.05,5.09,8.99,9.71,12.31,5.52,3.96,12.6,5.64,19.33,4.46"/>
    <line class="st9" x1="581.24" y1="722.07" x2="577.41" y2="700.34"/>
  </g>
  <line class="st5" x1="577.1" y1="698.41" x2="577.52" y2="700.83"/>
  <polyline class="st5" points="523.81 708.21 549 703.84 548.61 701.59 523.42 705.96 523.81 708.21"/>
  <polyline class="st5" points="495.73 713.08 520.92 708.71 520.53 706.46 495.34 710.83 495.73 713.08"/>
  <polyline class="st5" points="551.89 703.33 577.19 698.94 576.81 696.7 551.5 701.09 551.89 703.33"/>
  <polyline class="st5" points="467.47 717.98 492.78 713.59 492.39 711.35 467.09 715.74 467.47 717.98"/>
  <line class="st5" x1="549.91" y1="699.29" x2="577.76" y2="694.46"/>
  <line class="st5" x1="465.44" y1="713.95" x2="493.34" y2="709.11"/>
  <line class="st5" x1="493.69" y1="709.05" x2="521.42" y2="704.24"/>
  <line class="st5" x1="521.77" y1="704.18" x2="549.5" y2="699.36"/>
  <line class="st5" x1="551.31" y1="699.96" x2="576.61" y2="695.57"/>
  <line class="st5" x1="523.23" y1="704.84" x2="548.41" y2="700.47"/>
  <line class="st5" x1="495.15" y1="709.71" x2="520.33" y2="705.34"/>
  <line class="st5" x1="466.89" y1="714.61" x2="492.19" y2="710.22"/>
  <polyline class="st5" points="465.44 713.95 465.02 714.02 466.1 720.23 467.81 719.93 466.89 714.61 465.59 714.84 465.44 713.95"/>
  <polyline class="st5" points="521.77 704.18 521.42 704.24 521.57 705.12 520.33 705.34 521.25 710.66 524.15 710.16 523.23 704.84 521.93 705.06 521.77 704.18"/>
  <polyline class="st5" points="493.69 709.05 493.34 709.11 493.49 710 492.19 710.22 493.12 715.54 496.07 715.03 495.15 709.71 493.85 709.94 493.69 709.05"/>
  <polyline class="st5" points="578.17 694.39 577.76 694.46 577.91 695.35 576.61 695.57 577.53 700.89 579.25 700.6 578.17 694.39"/>
  <polyline class="st5" points="549.91 699.29 549.5 699.36 549.65 700.25 548.41 700.47 549.33 705.79 552.23 705.28 551.31 699.96 550.07 700.18 549.91 699.29"/>
  <line class="st5" x1="577.53" y1="700.89" x2="552.23" y2="705.28"/>
  <line class="st5" x1="549.33" y1="705.79" x2="524.15" y2="710.16"/>
  <line class="st5" x1="521.25" y1="710.66" x2="496.07" y2="715.03"/>
  <line class="st5" x1="493.12" y1="715.54" x2="467.81" y2="719.93"/>
  <line class="st5" x1="491.32" y1="711.53" x2="468.21" y2="715.54"/>
  <line class="st5" x1="575.74" y1="696.88" x2="552.63" y2="700.89"/>
  <line class="st5" x1="463.54" y1="710.9" x2="579.35" y2="691.09"/>
  <rect class="st18" x="499.54" y="872.89" width="92.26" height="127.39"/>
</svg>