<?xml version="1.0" encoding="UTF-8"?>
<svg id="Vinduer_i_facade" xmlns="http://www.w3.org/2000/svg" version="1.1" viewBox="0 0 1200 1697.14">
  <!-- Generator: Adobe Illustrator 29.6.0, SVG Export Plug-In . SVG Version: 2.1.1 Build 207)  -->
  <defs>
    <style>
      .st0 {
        fill: #e2dedb;
      }

      .st1 {
        stroke-miterlimit: 10;
      }

      .st1, .st2, .st3, .st4, .st5, .st6, .st7, .st8, .st9, .st10, .st11, .st12, .st13 {
        stroke: #363a3b;
      }

      .st1, .st6, .st14, .st15, .st16, .st12 {
        stroke-width: .28px;
      }

      .st1, .st17, .st11, .st12, .st13 {
        fill: #fff;
      }

      .st2 {
        stroke-width: .29px;
      }

      .st2, .st3, .st4, .st5, .st6, .st7, .st8, .st14, .st9, .st10, .st15, .st18, .st16 {
        fill: none;
      }

      .st2, .st3, .st4, .st5, .st6, .st7, .st8, .st14, .st9, .st10, .st15, .st18, .st16, .st11, .st12, .st13 {
        stroke-linecap: round;
        stroke-linejoin: round;
      }

      .st3 {
        stroke-width: .3px;
      }

      .st4 {
        stroke-width: .3px;
      }

      .st5 {
        stroke-width: .28px;
      }

      .st7, .st11 {
        stroke-width: .28px;
      }

      .st8 {
        stroke-width: .29px;
      }

      .st19 {
        fill: #ece8e5;
      }

      .st14, .st15, .st18, .st16 {
        stroke: #000;
      }

      .st9, .st18 {
        stroke-dasharray: .06 .43;
        stroke-width: .18px;
      }

      .st10 {
        stroke-dasharray: .07 .53;
        stroke-width: .18px;
      }

      .st15 {
        stroke-dasharray: .09 .69;
      }

      .st16 {
        stroke-dasharray: .09 .68;
      }

      .st20 {
        fill: #302c35;
      }

      .st13 {
        stroke-width: .29px;
      }
    </style>
  </defs>
  <polygon class="st19" points="520.63 726.54 588.29 755.29 772.29 755.29 772.29 845.29 788.25 845.29 788.25 943.32 697.36 943.4 697.36 966.78 421.27 966.78 466.27 858.39 478.31 829.4 520.63 726.54"/>
  <rect class="st17" x="620.56" y="925.95" width="67.5" height="35.36"/>
  <polygon class="st0" points="784.77 849.62 784.77 934.97 689.21 934.97 689.19 962.44 664.11 962.44 664.11 849.62 784.77 849.62"/>
  <g>
    <line class="st6" x1="660.95" y1="870.58" x2="660.95" y2="851.32"/>
    <line class="st6" x1="659.57" y1="851.32" x2="659.57" y2="870.58"/>
    <polyline class="st6" points="660.95 851.32 660.95 848.44 659.57 848.44 659.57 851.32 660.95 851.32"/>
    <polyline class="st6" points="660.95 873.4 660.95 870.58 659.57 870.58 659.57 873.4 660.95 873.4"/>
    <line class="st6" x1="664.01" y1="871.6" x2="661.19" y2="871.6"/>
    <line class="st6" x1="664.01" y1="850.43" x2="661.19" y2="850.43"/>
  </g>
  <rect class="st11" x="633.72" y="788.11" width="35.16" height="27.64"/>
  <rect class="st11" x="633.72" y="815.75" width="35.16" height="27.64"/>
  <rect class="st11" x="633.72" y="760.48" width="35.16" height="27.64"/>
  <g>
    <g>
      <polyline class="st14" points="716.28 768.02 716.28 767.97 716.32 767.97"/>
      <line class="st15" x1="717.02" y1="767.97" x2="760.53" y2="767.97"/>
      <polyline class="st14" points="760.88 767.97 760.93 767.97 760.93 768.02"/>
      <line class="st16" x1="760.93" y1="768.7" x2="760.93" y2="811.71"/>
      <polyline class="st14" points="760.93 812.05 760.93 812.1 760.88 812.1"/>
      <line class="st15" x1="760.19" y1="812.1" x2="716.67" y2="812.1"/>
      <polyline class="st14" points="716.32 812.1 716.28 812.1 716.28 812.05"/>
      <line class="st16" x1="716.28" y1="811.37" x2="716.28" y2="768.36"/>
    </g>
    <g>
      <line class="st6" x1="760.75" y1="790" x2="748.45" y2="790"/>
      <path class="st12" d="M748.51,787.31c1.52,0,2.75,1.23,2.75,2.75s-1.23,2.75-2.75,2.75-2.75-1.23-2.75-2.75,1.23-2.75,2.75-2.75"/>
    </g>
  </g>
  <path class="st1" d="M761.77,815.46h-16.09c-6.19,0-11.2,4.45-11.2,9.95s5.01,9.95,11.2,9.95h16.09s0-19.9,0-19.9Z"/>
  <g>
    <path class="st11" d="M682.67,767.34v18.5c0,.41.21.74.47.74h26.59c.32,0,.59-.33.59-.74v-18.5"/>
    <path class="st6" d="M697.55,770.04c0,.55-.45,1-1,1s-1-.45-1-1,.45-1,1-1,1,.45,1,1"/>
    <g>
      <path class="st6" d="M697.75,778.85c0,.68-.55,1.23-1.23,1.23s-1.23-.55-1.23-1.23.55-1.23,1.23-1.23,1.23.55,1.23,1.23"/>
      <path class="st6" d="M698.34,778.85c0,1-.81,1.82-1.82,1.82s-1.82-.81-1.82-1.82.81-1.82,1.82-1.82,1.82.81,1.82,1.82"/>
    </g>
    <path class="st7" d="M684.7,773.25v10.82c0,.41.23.74.52.74h22.61c.29,0,.52-.33.52-.74v-10.82c0-.41-.23-.74-.52-.74h-22.61c-.29,0-.52.33-.52.74Z"/>
  </g>
  <g>
    <rect class="st13" x="479.73" y="779.5" width="113.09" height="50.38" transform="translate(-412.93 989.41) rotate(-67.33)"/>
    <rect class="st13" x="533.89" y="762.77" width="27.99" height="28.27" rx="1.45" ry="1.45" transform="translate(754.02 1704.94) rotate(-157.33)"/>
    <polygon class="st13" points="528.53 756.2 490.53 847.18 537.61 866.85 565.78 799.4 528.53 756.2"/>
  </g>
  <g>
    <line class="st2" x1="647.54" y1="926.41" x2="647.54" y2="961.57"/>
    <g>
      <g>
        <polyline class="st5" points="684.71 959.44 684.71 928.64 653.18 928.64 653.18 959.44 684.71 959.44"/>
        <g>
          <polyline class="st5" points="679.54 931.74 679.54 952.94 658.34 952.94 658.34 931.74 679.54 931.74"/>
          <line class="st5" x1="668.89" y1="947.81" x2="668.89" y2="956.34"/>
        </g>
      </g>
      <g>
        <g>
          <line class="st8" x1="632.7" y1="956.37" x2="632.7" y2="948.12"/>
          <line class="st8" x1="632.7" y1="940.76" x2="632.7" y2="932.52"/>
          <line class="st8" x1="628.89" y1="936.7" x2="636.62" y2="936.7"/>
          <line class="st8" x1="628.89" y1="952.19" x2="636.62" y2="952.19"/>
        </g>
        <polyline class="st3" points="641.08 959.44 641.08 928.64 624.42 928.64 624.42 959.44 641.08 959.44"/>
      </g>
    </g>
  </g>
  <g>
    <path class="st12" d="M472.67,922.28c7.8-6.26,15.61-12.52,23.41-18.78.41-.18.92-.03,1.24.37,8.71,8.31,16.2,17.89,22.15,28.33.1.17.09.38-.04.5-.73.59-1.45,1.17-2.18,1.76l-21.01,16.98-23.57-29.17"/>
    <path class="st12" d="M471.17,923.88c.65-.68,1.37-1.26,2.16-1.77.16-.09.37-.04.51.13,7.76,9.16,15.35,18.44,22.78,27.86.16.26.13.57-.07.74-.74.71-1.54,1.34-2.41,1.88"/>
    <path class="st12" d="M476.42,921.2c-.46-.57-2.18.06-3.84,1.4-.13.11-.26.22-.39.33l-1.03.95c-.12.14-.11.36.02.52l22.95,28.39,2.42-1.95c.78-.65,1.55-1.3,2.33-1.96.26-.36.22-.89-.1-1.29-5.95-9.96-13.54-18.92-22.35-26.4Z"/>
    <path class="st12" d="M474.77,922.24c.43-.13.84-.29,1.24-.48.51-.13,1.02-.29,1.51-.48.67-.26,1.34-.51,2.02-.76.93-.34,1.81-.76,2.66-1.27.52-.31,1.02-.63,1.52-.98.52-.36,1.05-.73,1.56-1.11,1.23-.89,2.41-1.84,3.54-2.86,1.14-1.03,2.18-2.14,3.14-3.35.72-.91,1.34-1.88,1.88-2.93.34-.66.46-1.33.4-2.13,0-.07-.03-.12-.07-.18l-.41-.51c-.16-.1-.3-.12-.47-.08-7.51,6.07-15.02,12.14-22.53,18.21-.13.11-.14.32-.01.48l.13.16h0c.13.15.34.19.48.1.35-.21.69-.42,1.04-.63.44-.31.89-.58,1.38-.81l1.02-.41Z"/>
    <path class="st12" d="M496.85,949.57c.22-.39.46-.76.73-1.12.24-.47.5-.93.79-1.37.39-.6.78-1.21,1.16-1.81.53-.84,1.13-1.61,1.8-2.33.41-.44.83-.87,1.27-1.28.47-.44.94-.87,1.41-1.3,1.13-1.02,2.3-1.97,3.54-2.86,1.24-.9,2.55-1.68,3.93-2.36,1.04-.51,2.12-.92,3.26-1.22.72-.19,1.4-.18,2.16.05.06.02.11.05.16.11l.41.51c.06.18.06.32-.02.48-7.51,6.07-15.02,12.14-22.53,18.21-.13.11-.34.07-.47-.09l-.13-.16h0c-.12-.16-.12-.37,0-.49.28-.29.55-.59.83-.88.39-.36.75-.75,1.08-1.18l.61-.91Z"/>
  </g>
  <circle class="st1" cx="498.93" cy="874.7" r="13.02"/>
  <g>
    <g>
      <path class="st12" d="M591.04,895.86c0-7.12-6.14-12.9-13.72-12.9-5.58,0-11.1,3.65-13.01,8.79-.26.7-.79,2.18-.71,4.11.24,6.06,6.28,12.9,13.72,12.9,7.58,0,13.72-5.78,13.72-12.9Z"/>
      <g>
        <path class="st6" d="M565.41,892.96c0-4.38,5.33-7.92,11.91-7.92"/>
        <path class="st6" d="M589.23,892.96c0-4.38-5.33-7.92-11.91-7.92"/>
        <path class="st6" d="M589.23,892.96c0,.86.68,1.56,1.53,1.56"/>
        <path class="st6" d="M565.41,892.96c0,.86-.74,1.56-1.66,1.56"/>
      </g>
    </g>
    <g>
      <path class="st12" d="M591.04,940.13c0,7.12-6.14,12.9-13.72,12.9-5.58,0-11.1-3.65-13.01-8.79-.26-.7-.79-2.18-.71-4.11.24-6.06,6.28-12.9,13.72-12.9,7.58,0,13.72,5.78,13.72,12.9Z"/>
      <path class="st6" d="M565.41,943.02c0,4.38,5.33,7.92,11.91,7.92"/>
      <path class="st6" d="M589.23,943.02c0,4.38-5.33,7.92-11.91,7.92"/>
      <path class="st6" d="M589.23,943.02c0-.86.68-1.56,1.53-1.56"/>
      <path class="st6" d="M565.41,943.02c0-.86-.74-1.56-1.66-1.56"/>
    </g>
    <rect class="st12" x="559.48" y="898.82" width="35.68" height="40.44" transform="translate(-341.72 1496.35) rotate(-90)"/>
  </g>
  <rect class="st20" x="589.21" y="752.19" width="88.5" height="8.5"/>
  <rect class="st20" x="727.03" y="841.98" width="64.59" height="8.5"/>
  <rect class="st20" x="668.94" y="841.98" width="13.95" height="8.5"/>
  <rect class="st20" x="435.24" y="961.36" width="261.12" height="8.5"/>
  <rect class="st20" x="771.67" y="934.81" width="16.94" height="8.5"/>
  <rect class="st20" x="688.07" y="934.81" width="39.73" height="8.5"/>
  <rect class="st20" x="555.13" y="709.79" width="8.5" height="68.02" transform="translate(-341.48 977.45) rotate(-67.59)"/>
  <rect class="st20" x="506.32" y="720.6" width="28.84" height="23.74" transform="translate(-355.01 934.35) rotate(-67.57)"/>
  <rect class="st20" x="456.01" y="832.87" width="36.88" height="23.74" transform="translate(-487.42 961) rotate(-67.57)"/>
  <rect class="st20" x="407.96" y="949.09" width="36.88" height="23.74" transform="translate(-624.55 988.46) rotate(-67.57)"/>
  <rect class="st20" x="682.17" y="942.7" width="33.05" height="21.26" transform="translate(-254.64 1652.03) rotate(-90)"/>
  <rect class="st20" x="724.31" y="789.78" width="96.44" height="21.26" transform="translate(-27.88 1572.93) rotate(-90)"/>
  <rect class="st20" x="737.18" y="888.89" width="100.35" height="8.5" transform="translate(-105.78 1680.5) rotate(-90)"/>
  <rect class="st20" x="625.02" y="798.36" width="95.43" height="7.59" transform="translate(-129.42 1474.89) rotate(-90)"/>
  <rect class="st20" x="722.88" y="699.56" width="21.26" height="114.31" transform="translate(-23.21 1490.22) rotate(-90)"/>
  <path class="st9" d="M633.69,815.55l-16.54-21.63s7.42-4.51,16.54-4.55"/>
  <path class="st9" d="M633.69,843.19l-16.54-21.63s7.42-4.51,16.54-4.55"/>
  <path class="st9" d="M633.69,786.66c-9.13-.04-16.54-4.55-16.54-4.55l16.54-21.63"/>
  <g>
    <path class="st6" d="M727.69,934.96c0-11.6,4.79-22.95,13.11-31.27,8.07-8.07,19.41-12.86,31.01-12.86"/>
    <line class="st6" x1="770.05" y1="934.96" x2="727.69" y2="934.96"/>
    <polyline class="st6" points="771.81 890.84 771.81 934.96 770.05 934.96"/>
  </g>
  <g>
    <path class="st6" d="M726.9,845.97c0-11.6-4.79-22.95-13.11-31.27-8.07-8.07-19.41-12.86-31.01-12.86"/>
    <line class="st6" x1="684.54" y1="845.97" x2="726.9" y2="845.97"/>
    <polyline class="st6" points="682.77 801.84 682.77 845.97 684.54 845.97"/>
  </g>
  <g>
    <path class="st10" d="M501.33,773.92c13.35,5.5,24.14,16.4,29.78,29.93,5.46,13.12,5.59,28.45.09,41.81"/>
    <path class="st10" d="M501.33,773.92"/>
    <path class="st10" d="M480.4,824.73"/>
    <line class="st10" x1="531.2" y1="845.66" x2="480.4" y2="824.73"/>
  </g>
  <g>
    <path class="st10" d="M453.45,890.12c13.35,5.5,24.14,16.4,29.78,29.93,5.46,13.12,5.59,28.45.09,41.81"/>
    <path class="st10" d="M453.45,890.12"/>
    <path class="st10" d="M432.51,940.92"/>
    <line class="st10" x1="483.31" y1="961.86" x2="432.51" y2="940.92"/>
  </g>
  <line class="st4" x1="484.99" y1="796.53" x2="495.8" y2="770.29"/>
  <line class="st4" x1="495.94" y1="769.96" x2="506.82" y2="743.55"/>
  <line class="st4" x1="473.97" y1="823.27" x2="484.83" y2="796.92"/>
  <line class="st4" x1="486.35" y1="795.73" x2="496.19" y2="771.88"/>
  <line class="st4" x1="475.34" y1="822.47" x2="485.23" y2="798.45"/>
  <line class="st4" x1="497.31" y1="769.16" x2="507.21" y2="745.14"/>
  <line class="st4" x1="512.14" y1="747.17" x2="502.24" y2="771.19"/>
  <line class="st4" x1="501.12" y1="773.91" x2="491.29" y2="797.76"/>
  <line class="st4" x1="490.17" y1="800.48" x2="480.27" y2="824.5"/>
  <polyline class="st4" points="478.44 823.75 488.34 799.73 490.17 800.48 491.29 797.76 489.46 797.01 499.29 773.16 501.12 773.91 502.24 771.19 500.41 770.44 510.31 746.42 512.14 747.17 512.78 745.62 506.96 743.22 506.82 743.55 507.71 743.92 507.21 745.14 508.2 745.55 498.3 769.57 497.31 769.16 496.83 770.32 495.94 769.96 495.8 770.29 496.69 770.66 496.19 771.88 497.18 772.29 487.35 796.14 486.35 795.73 485.87 796.89 484.99 796.53 484.83 796.92 485.71 797.28 485.23 798.45 486.23 798.86 476.33 822.88 475.34 822.47 474.85 823.63 473.97 823.27 473.81 823.66 479.63 826.06 480.27 824.5 478.44 823.75"/>
  <line class="st4" x1="497.62" y1="771.23" x2="475.92" y2="823.88"/>
  <line class="st6" x1="504.67" y1="740.63" x2="470.43" y2="823.7"/>
  <line class="st4" x1="437.1" y1="912.72" x2="447.91" y2="886.49"/>
  <line class="st4" x1="448.05" y1="886.15" x2="458.93" y2="859.75"/>
  <line class="st4" x1="426.08" y1="939.46" x2="436.94" y2="913.11"/>
  <line class="st4" x1="438.47" y1="911.93" x2="448.3" y2="888.07"/>
  <line class="st4" x1="427.45" y1="938.66" x2="437.35" y2="914.64"/>
  <line class="st4" x1="449.42" y1="885.35" x2="459.32" y2="861.33"/>
  <line class="st4" x1="464.26" y1="863.37" x2="454.36" y2="887.39"/>
  <line class="st4" x1="453.24" y1="890.11" x2="443.41" y2="913.96"/>
  <line class="st4" x1="442.29" y1="916.68" x2="432.39" y2="940.7"/>
  <polyline class="st4" points="430.56 939.94 440.46 915.92 442.29 916.68 443.41 913.96 441.58 913.21 451.41 889.35 453.24 890.11 454.36 887.39 452.53 886.63 462.43 862.61 464.26 863.37 464.9 861.82 459.07 859.41 458.93 859.75 459.82 860.11 459.32 861.33 460.32 861.75 450.42 885.77 449.42 885.35 448.94 886.52 448.05 886.15 447.91 886.49 448.8 886.85 448.3 888.07 449.3 888.48 439.47 912.34 438.47 911.93 437.99 913.09 437.1 912.72 436.94 913.11 437.83 913.48 437.35 914.64 438.35 915.06 428.45 939.08 427.45 938.66 426.97 939.83 426.08 939.46 425.92 939.85 431.75 942.25 432.39 940.7 430.56 939.94"/>
  <line class="st4" x1="449.73" y1="887.43" x2="428.04" y2="940.07"/>
  <line class="st6" x1="456.78" y1="856.83" x2="422.55" y2="939.89"/>
  <polyline class="st18" points="783.11 849.62 664.11 849.62 664.11 964.85"/>
  <path class="st18" d="M783.11,964.85"/>
</svg>