<?xml version="1.0" encoding="UTF-8"?>
<svg id="Tekst" xmlns="http://www.w3.org/2000/svg" version="1.1" viewBox="0 0 1200 1697.14">
  <!-- Generator: Adobe Illustrator 29.6.0, SVG Export Plug-In . SVG Version: 2.1.1 Build 207)  -->
  <defs>
    <style>
      .st0 {
        fill: #e2dedb;
      }

      .st1, .st2, .st3, .st4, .st5, .st6, .st7, .st8, .st9, .st10, .st11, .st12 {
        stroke: #363a3b;
      }

      .st1, .st4, .st13, .st9, .st14, .st15, .st12, .st16 {
        stroke-width: .28px;
      }

      .st1, .st8, .st9 {
        stroke-miterlimit: 10;
      }

      .st1, .st17, .st11, .st12 {
        fill: #fff;
      }

      .st2 {
        stroke-width: .3px;
      }

      .st2, .st3, .st4, .st5, .st6, .st7, .st13, .st8, .st9, .st10, .st14, .st18, .st15, .st16 {
        fill: none;
      }

      .st2, .st3, .st4, .st5, .st6, .st7, .st13, .st10, .st14, .st18, .st15, .st11, .st12, .st16 {
        stroke-linecap: round;
        stroke-linejoin: round;
      }

      .st3 {
        stroke-width: .28px;
      }

      .st5, .st11 {
        stroke-width: .28px;
      }

      .st6 {
        stroke-width: .29px;
      }

      .st19 {
        fill: #ece8e5;
      }

      .st7 {
        stroke-dasharray: .07 .52;
        stroke-width: .18px;
      }

      .st13, .st14, .st18, .st15 {
        stroke: #000;
      }

      .st8 {
        stroke-width: .29px;
      }

      .st10, .st18 {
        stroke-dasharray: .06 .43;
        stroke-width: .18px;
      }

      .st14 {
        stroke-dasharray: .09 .69;
      }

      .st15 {
        stroke-dasharray: .09 .68;
      }

      .st20 {
        fill: #302c35;
      }

      .st16 {
        stroke: #00001d;
      }
    </style>
  </defs>
  <polygon class="st19" points="599.85 965.36 428.72 965.36 428.63 924.36 414.57 924.36 414.57 787.32 414.57 741.53 678.5 741.53 678.5 867 776.61 867 776.61 965.36 599.85 965.36"/>
  <polygon class="st17" points="583.52 922.48 500.92 922.5 432.97 922.47 432.97 956.85 583.52 956.85 583.52 922.48"/>
  <g>
    <polygon class="st17" points="500.92 956.78 501.03 938.11 500.91 922.76 583.52 922.76 583.52 956.78 500.92 956.78"/>
    <g>
      <line class="st4" x1="527.97" y1="956.61" x2="527.97" y2="922.59"/>
      <g>
        <line class="st4" x1="555.67" y1="956.61" x2="555.67" y2="922.59"/>
        <line class="st4" x1="556.41" y1="922.59" x2="528.03" y2="922.59"/>
        <line class="st4" x1="556.41" y1="922.59" x2="583.3" y2="922.59"/>
        <line class="st4" x1="500.9" y1="922.59" x2="527.8" y2="922.59"/>
        <path class="st16" d="M583.67,922.59"/>
        <line class="st4" x1="583.3" y1="956.61" x2="583.3" y2="922.59"/>
      </g>
      <line class="st4" x1="501.03" y1="956.61" x2="501.03" y2="922.59"/>
    </g>
    <path class="st10" d="M583.19,922.59l-22.4-16.54s-4.67,7.42-4.71,16.54"/>
    <path class="st10" d="M501.46,922.59l21.57-16.54s4.5,7.42,4.54,16.54"/>
    <path class="st10" d="M528.74,922.59l21.9-16.54s4.57,7.42,4.61,16.54"/>
  </g>
  <g>
    <polygon class="st8" points="432.86 956.8 470.19 956.77 500.9 956.8 500.9 922.54 432.86 922.54 432.86 956.8"/>
    <g>
      <g>
        <polyline class="st3" points="439.73 927.38 439.73 948.57 460.93 948.57 460.93 927.38 439.73 927.38"/>
        <line class="st3" x1="450.38" y1="943.45" x2="450.38" y2="951.97"/>
      </g>
      <polyline class="st3" points="434.56 924.27 434.56 955.07 466.09 955.07 466.09 924.27 434.56 924.27"/>
    </g>
    <g>
      <g>
        <line class="st6" x1="490.92" y1="927.35" x2="490.92" y2="935.59"/>
        <line class="st6" x1="490.92" y1="942.95" x2="490.92" y2="951.19"/>
        <line class="st6" x1="494.73" y1="947.02" x2="487.01" y2="947.02"/>
        <line class="st6" x1="494.73" y1="931.52" x2="487.01" y2="931.52"/>
      </g>
      <polyline class="st2" points="482.54 924.27 482.54 955.07 499.2 955.07 499.2 924.27 482.54 924.27"/>
    </g>
  </g>
  <circle class="st1" cx="501.35" cy="848.6" r="13.02"/>
  <polygon class="st0" points="418.82 760.04 501.59 760.04 501.72 887.45 418.82 887.45 418.82 760.04"/>
  <circle class="st9" cx="501.35" cy="848.6" r="13.02"/>
  <g>
    <rect class="st4" x="390.11" y="794.59" width="113.39" height="51.02" transform="translate(-373.3 1266.9) rotate(-90)"/>
    <path class="st4" d="M434.81,777.01h24.61c.78,0,1.42.63,1.42,1.42v19.54s-27.44-13.72-27.44-13.72v-5.83c0-.78.63-1.42,1.42-1.42Z"/>
    <polygon class="st4" points="421.29 778.2 421.29 876.79 472.31 876.79 472.31 803.7 421.29 778.2"/>
  </g>
  <g>
    <g>
      <polyline class="st13" points="724.19 874.58 724.19 874.54 724.24 874.54"/>
      <line class="st14" x1="724.93" y1="874.54" x2="768.45" y2="874.54"/>
      <polyline class="st13" points="768.79 874.54 768.84 874.54 768.84 874.58"/>
      <line class="st15" x1="768.84" y1="875.27" x2="768.84" y2="918.28"/>
      <polyline class="st13" points="768.84 918.62 768.84 918.67 768.79 918.67"/>
      <line class="st14" x1="768.1" y1="918.67" x2="724.58" y2="918.67"/>
      <polyline class="st13" points="724.24 918.67 724.19 918.67 724.19 918.62"/>
      <line class="st15" x1="724.19" y1="917.94" x2="724.19" y2="874.93"/>
    </g>
    <g>
      <line class="st4" x1="768.67" y1="897.07" x2="756.37" y2="897.07"/>
      <path class="st12" d="M756.43,894.37c1.52,0,2.75,1.23,2.75,2.75,0,1.52-1.23,2.75-2.75,2.75s-2.75-1.23-2.75-2.75,1.23-2.75,2.75-2.75"/>
    </g>
  </g>
  <path class="st1" d="M768.42,944.14h-16.09c-6.19,0-11.2-4.45-11.2-9.95s5.01-9.95,11.2-9.95h16.09s0,19.9,0,19.9Z"/>
  <g>
    <path class="st11" d="M713.62,874.76v18.5c0,.41-.21.74-.47.74h-26.59c-.32,0-.59-.33-.59-.74v-18.5"/>
    <path class="st4" d="M698.75,877.45c0,.55.45,1,1,1s1-.45,1-1-.45-1-1-1-1,.45-1,1"/>
    <g>
      <path class="st4" d="M698.54,886.26c0,.68.55,1.23,1.23,1.23s1.23-.55,1.23-1.23-.55-1.23-1.23-1.23-1.23.55-1.23,1.23"/>
      <path class="st4" d="M697.95,886.26c0,1,.81,1.82,1.82,1.82s1.82-.81,1.82-1.82-.81-1.82-1.82-1.82-1.82.81-1.82,1.82"/>
    </g>
    <path class="st5" d="M711.59,880.67v10.82c0,.41-.23.74-.52.74h-22.61c-.29,0-.52-.33-.52-.74v-10.82c0-.41.23-.74.52-.74h22.61c.29,0,.52.33.52.74Z"/>
  </g>
  <g>
    <line class="st4" x1="506.11" y1="762.67" x2="525.37" y2="762.67"/>
    <line class="st4" x1="525.37" y1="764.05" x2="506.11" y2="764.05"/>
    <polyline class="st4" points="525.37 762.67 528.25 762.67 528.25 764.05 525.37 764.05 525.37 762.67"/>
    <polyline class="st4" points="503.29 762.67 506.11 762.67 506.11 764.05 503.29 764.05 503.29 762.67"/>
    <line class="st4" x1="505.09" y1="759.61" x2="505.09" y2="762.43"/>
    <line class="st4" x1="526.26" y1="759.61" x2="526.26" y2="762.43"/>
  </g>
  <g>
    <g>
      <path class="st12" d="M582.83,838.71c-7.12,0-12.9-6.14-12.9-13.72,0-5.58,3.65-11.1,8.79-13.01.7-.26,2.18-.79,4.11-.71,6.06.24,12.9,6.28,12.9,13.72,0,7.58-5.78,13.72-12.9,13.72Z"/>
      <path class="st4" d="M579.94,813.08c-4.38,0-7.92,5.33-7.92,11.91"/>
      <path class="st4" d="M579.94,836.9c-4.38,0-7.92-5.33-7.92-11.91"/>
      <path class="st4" d="M579.94,836.9c.86,0,1.56.68,1.56,1.53"/>
      <path class="st4" d="M579.94,813.08c.86,0,1.56-.74,1.56-1.66"/>
    </g>
    <g>
      <path class="st12" d="M627.11,838.71c7.12,0,12.9-6.14,12.9-13.72,0-5.58-3.65-11.1-8.79-13.01-.7-.26-2.18-.79-4.11-.71-6.06.24-12.9,6.28-12.9,13.72,0,7.58,5.78,13.72,12.9,13.72Z"/>
      <path class="st4" d="M630,813.08c4.38,0,7.92,5.33,7.92,11.91"/>
      <path class="st4" d="M630,836.9c4.38,0,7.92-5.33,7.92-11.91"/>
      <path class="st4" d="M630,836.9c-.86,0-1.56.68-1.56,1.53"/>
      <path class="st4" d="M630,813.08c-.86,0-1.56-.74-1.56-1.66"/>
    </g>
    <rect class="st12" x="588.18" y="804.77" width="35.68" height="40.44" transform="translate(1212.03 1649.97) rotate(180)"/>
  </g>
  <g>
    <path class="st4" d="M722.34,944.16c0-11.6-4.79-22.94-13.11-31.27-8.07-8.07-19.42-12.86-31.01-12.86"/>
    <line class="st4" x1="679.98" y1="944.16" x2="722.34" y2="944.16"/>
    <polyline class="st4" points="678.22 900.03 678.22 944.16 679.98 944.16"/>
  </g>
  <g>
    <path class="st4" d="M665.74,912.76c-11.6,0-22.94,4.79-31.27,13.11-8.07,8.07-12.86,19.42-12.86,31.01"/>
    <line class="st4" x1="665.74" y1="955.12" x2="665.74" y2="912.76"/>
    <polyline class="st4" points="621.62 956.88 665.74 956.88 665.74 955.12"/>
  </g>
  <rect class="st20" x="410.32" y="731.78" width="122.54" height="28.35"/>
  <rect class="st20" x="649.08" y="731.78" width="33.42" height="28.35"/>
  <rect class="st20" x="424.47" y="956.86" width="197.03" height="8.5"/>
  <rect class="st20" x="665.82" y="956.86" width="23.13" height="8.5"/>
  <rect class="st20" x="676.16" y="952.61" width="97.5" height="12.76"/>
  <rect class="st20" x="674.72" y="866.15" width="98.94" height="8.5"/>
  <rect class="st20" x="768.43" y="866.15" width="21.26" height="99.21"/>
  <rect class="st20" x="410.32" y="731.78" width="8.5" height="199.13"/>
  <rect class="st20" x="674.07" y="731.78" width="8.5" height="168.36"/>
  <rect class="st20" x="674.07" y="944.16" width="8.5" height="21.2"/>
  <rect class="st20" x="424.47" y="923.84" width="8.5" height="37.27"/>
  <rect class="st20" x="410.32" y="922.4" width="22.66" height="8.5"/>
  <g>
    <g>
      <g>
        <path class="st7" d="M589.41,741.25c0,14.25-5.89,28.19-16.11,38.41-9.91,9.91-23.85,15.8-38.1,15.8"/>
        <path class="st7" d="M589.41,741.25"/>
        <path class="st7" d="M535.21,741.25"/>
        <line class="st7" x1="535.21" y1="795.46" x2="535.21" y2="741.25"/>
      </g>
      <line class="st5" x1="562.55" y1="734.97" x2="590.69" y2="734.97"/>
      <line class="st5" x1="591.11" y1="734.97" x2="619.19" y2="734.97"/>
      <line class="st5" x1="619.61" y1="734.97" x2="647.87" y2="734.97"/>
      <line class="st5" x1="533.87" y1="734.97" x2="562.19" y2="734.97"/>
      <line class="st5" x1="535.19" y1="735.93" x2="560.93" y2="735.93"/>
      <line class="st5" x1="563.87" y1="735.93" x2="589.43" y2="735.93"/>
      <line class="st5" x1="620.87" y1="735.93" x2="646.61" y2="735.93"/>
      <line class="st5" x1="592.37" y1="735.93" x2="617.93" y2="735.93"/>
      <line class="st5" x1="646.61" y1="741.27" x2="620.87" y2="741.27"/>
      <line class="st5" x1="617.93" y1="741.27" x2="592.37" y2="741.27"/>
      <line class="st5" x1="589.43" y1="741.27" x2="563.87" y2="741.27"/>
      <line class="st5" x1="560.93" y1="741.27" x2="535.19" y2="741.27"/>
      <polyline class="st5" points="535.19 739.29 560.93 739.29 560.93 741.27 563.87 741.27 563.87 739.29 589.43 739.29 589.43 741.27 592.37 741.27 592.37 739.29 617.93 739.29 617.93 741.27 620.87 741.27 620.87 739.29 646.61 739.29 646.61 741.27 648.29 741.27 648.29 734.97 647.87 734.97 647.87 735.93 646.61 735.93 646.61 737.01 620.87 737.01 620.87 735.93 619.61 735.93 619.61 734.97 619.19 734.97 619.19 735.93 617.93 735.93 617.93 737.01 592.37 737.01 592.37 735.93 591.11 735.93 591.11 734.97 590.69 734.97 590.69 735.93 589.43 735.93 589.43 737.01 563.87 737.01 563.87 735.93 562.55 735.93 562.55 734.97 562.19 734.97 562.19 735.93 560.93 735.93 560.93 737.01 535.19 737.01 535.19 735.93 533.87 735.93 533.87 734.97 533.51 734.97 533.51 741.27 535.19 741.27 535.19 739.29"/>
      <line class="st5" x1="590.57" y1="737.01" x2="534.05" y2="737.01"/>
    </g>
    <line class="st4" x1="648.8" y1="732.02" x2="532.58" y2="732.02"/>
  </g>
  <rect class="st18" x="416.99" y="758.22" width="84.73" height="129.23"/>
</svg>