<?xml version="1.0" encoding="UTF-8"?>
<svg id="Vinduer_i_facade" xmlns="http://www.w3.org/2000/svg" version="1.1" viewBox="0 0 1200 1697.14">
  <!-- Generator: Adobe Illustrator 29.6.0, SVG Export Plug-In . SVG Version: 2.1.1 Build 207)  -->
  <defs>
    <style>
      .st0 {
        fill: #e2dedb;
      }

      .st1 {
        stroke-miterlimit: 10;
      }

      .st1, .st2, .st3, .st4, .st5, .st6, .st7, .st8, .st9, .st10, .st11 {
        stroke: #363a3b;
      }

      .st1, .st5, .st12, .st13, .st14, .st11 {
        stroke-width: .28px;
      }

      .st1, .st15, .st10, .st11 {
        fill: #fff;
      }

      .st2 {
        stroke-width: .29px;
      }

      .st2, .st3, .st4, .st5, .st6, .st7, .st8, .st12, .st9, .st13, .st16, .st14 {
        fill: none;
      }

      .st2, .st3, .st4, .st5, .st6, .st7, .st8, .st12, .st9, .st13, .st16, .st14, .st10, .st11 {
        stroke-linecap: round;
        stroke-linejoin: round;
      }

      .st3 {
        stroke-width: .3px;
      }

      .st4 {
        stroke-width: .28px;
      }

      .st6, .st10 {
        stroke-width: .28px;
      }

      .st7 {
        stroke-width: .29px;
      }

      .st17 {
        fill: #ece8e5;
      }

      .st8 {
        stroke-dasharray: .07 .52;
        stroke-width: .18px;
      }

      .st12, .st13, .st16, .st14 {
        stroke: #000;
      }

      .st9, .st16 {
        stroke-dasharray: .06 .43;
        stroke-width: .18px;
      }

      .st13 {
        stroke-dasharray: .09 .69;
      }

      .st14 {
        stroke-dasharray: .09 .68;
      }

      .st18 {
        fill: #302c35;
      }
    </style>
  </defs>
  <polygon class="st17" points="726.88 686.07 557.04 686.07 556.78 902.01 471.47 902.73 471.26 1012.24 567 1012.37 566.87 1020.3 687.52 1020.31 687.52 996.62 726.56 997.11 726.88 686.07"/>
  <rect class="st15" x="670.4" y="943.62" width="67.5" height="34.91" transform="translate(1665.22 256.93) rotate(90)"/>
  <rect class="st10" x="686.6" y="899.65" width="35.16" height="27.64"/>
  <rect class="st10" x="686.6" y="871.95" width="35.16" height="27.64"/>
  <g>
    <line class="st5" x1="718.34" y1="847.85" x2="718.34" y2="867.11"/>
    <line class="st5" x1="716.96" y1="867.11" x2="716.96" y2="847.85"/>
    <polyline class="st5" points="718.34 867.11 718.34 869.99 716.96 869.99 716.96 867.11 718.34 867.11"/>
    <polyline class="st5" points="718.34 845.03 718.34 847.85 716.96 847.85 716.96 845.03 718.34 845.03"/>
    <line class="st5" x1="721.4" y1="846.83" x2="718.58" y2="846.83"/>
    <line class="st5" x1="721.4" y1="868" x2="718.58" y2="868"/>
  </g>
  <polygon class="st0" points="629.16 1015.37 684.27 1015.37 684.27 994.79 721.76 994.79 721.76 875.87 629.16 875.87 629.16 1015.37"/>
  <polyline class="st6" points="686.6 875.87 686.6 899.59 721.6 899.59"/>
  <polyline class="st6" points="686.6 899.65 686.6 927.23 721.6 927.23"/>
  <g>
    <rect class="st11" x="635.29" y="747.17" width="113.09" height="50.38" transform="translate(-80.53 1464.2) rotate(-90)"/>
    <rect class="st11" x="677.84" y="728.12" width="27.99" height="28.27" rx="1.42" ry="1.42"/>
    <polygon class="st11" points="717.67 730.61 717.67 829.2 666.65 829.2 666.65 756.11 717.67 730.61"/>
  </g>
  <g>
    <g>
      <path class="st11" d="M602.02,824.79c0,7.12-6.14,12.9-13.72,12.9-5.58,0-11.1-3.65-13.01-8.79-.26-.7-.79-2.18-.71-4.11.24-6.06,6.28-12.9,13.72-12.9s13.72,5.78,13.72,12.9Z"/>
      <path class="st5" d="M576.39,827.68c0,4.38,5.33,7.92,11.91,7.92"/>
      <path class="st5" d="M600.21,827.68c0,4.38-5.33,7.92-11.91,7.92"/>
      <path class="st5" d="M600.21,827.68c0-.86.68-1.56,1.53-1.56"/>
      <path class="st5" d="M576.39,827.68c0-.86-.74-1.56-1.66-1.56"/>
    </g>
    <g>
      <path class="st11" d="M602.02,780.52c0-7.12-6.14-12.9-13.72-12.9-5.58,0-11.1,3.65-13.01,8.79-.26.7-.79,2.18-.71,4.11.24,6.06,6.28,12.9,13.72,12.9,7.58,0,13.72-5.78,13.72-12.9Z"/>
      <path class="st5" d="M576.39,777.62c0-4.38,5.33-7.92,11.91-7.92"/>
      <path class="st5" d="M600.21,777.62c0-4.38-5.33-7.92-11.91-7.92"/>
      <path class="st5" d="M600.21,777.62c0,.86.68,1.56,1.53,1.56"/>
      <path class="st5" d="M576.39,777.62c0,.86-.74,1.56-1.66,1.56"/>
    </g>
    <rect class="st11" x="570.46" y="781.39" width="35.68" height="40.44" transform="translate(1389.91 213.31) rotate(90)"/>
  </g>
  <circle class="st1" cx="643.48" cy="741.05" r="13.02"/>
  <g>
    <line class="st2" x1="721.99" y1="954.02" x2="686.84" y2="954.02"/>
    <g>
      <g>
        <g>
          <polyline class="st4" points="692.07 986.02 713.27 986.02 713.27 964.82 692.07 964.82 692.07 986.02"/>
          <line class="st4" x1="708.14" y1="975.37" x2="716.66" y2="975.37"/>
        </g>
        <polyline class="st4" points="688.97 991.19 719.76 991.19 719.76 959.66 688.97 959.66 688.97 991.19"/>
      </g>
      <g>
        <g>
          <line class="st7" x1="692.04" y1="939.18" x2="700.28" y2="939.18"/>
          <line class="st7" x1="707.64" y1="939.18" x2="715.88" y2="939.18"/>
          <line class="st7" x1="711.71" y1="935.37" x2="711.71" y2="943.1"/>
          <line class="st7" x1="696.22" y1="935.37" x2="696.22" y2="943.1"/>
        </g>
        <polyline class="st3" points="688.97 947.57 719.76 947.57 719.76 930.9 688.97 930.9 688.97 947.57"/>
      </g>
    </g>
  </g>
  <g>
    <polyline class="st12" points="518.96 946.63 519.01 946.63 519.01 946.67"/>
    <line class="st13" x1="519.01" y1="947.36" x2="519.01" y2="990.88"/>
    <polyline class="st12" points="519.01 991.23 519.01 991.27 518.96 991.27"/>
    <line class="st14" x1="518.28" y1="991.27" x2="475.26" y2="991.27"/>
    <polyline class="st12" points="474.92 991.27 474.88 991.27 474.88 991.23"/>
    <line class="st13" x1="474.88" y1="990.54" x2="474.88" y2="947.02"/>
    <polyline class="st12" points="474.88 946.67 474.88 946.63 474.92 946.63"/>
    <line class="st14" x1="475.61" y1="946.63" x2="518.62" y2="946.63"/>
  </g>
  <g>
    <line class="st5" x1="496.97" y1="991.1" x2="496.97" y2="978.8"/>
    <path class="st11" d="M499.67,978.86c0,1.52-1.23,2.75-2.75,2.75s-2.75-1.23-2.75-2.75,1.23-2.75,2.75-2.75,2.75,1.23,2.75,2.75"/>
  </g>
  <path class="st1" d="M543.22,992.07v-16.09c0-6.19-4.45-11.2-9.95-11.2s-9.95,5.01-9.95,11.2v16.09s19.9,0,19.9,0Z"/>
  <path class="st10" d="M475.15,912.01h18.5c.41,0,.74.21.74.47v26.59c0,.32-.33.59-.74.59h-18.5"/>
  <path class="st5" d="M477.85,926.88c.55,0,1-.45,1-1s-.45-1-1-1-1,.45-1,1,.45,1,1,1"/>
  <g>
    <path class="st5" d="M486.66,927.09c.68,0,1.23-.55,1.23-1.23s-.55-1.23-1.23-1.23-1.23.55-1.23,1.23.55,1.23,1.23,1.23"/>
    <path class="st5" d="M486.66,927.67c1,0,1.82-.81,1.82-1.82s-.81-1.82-1.82-1.82-1.82.81-1.82,1.82.81,1.82,1.82,1.82"/>
  </g>
  <path class="st6" d="M481.06,914.03h10.82c.41,0,.74.23.74.52v22.61c0,.29-.33.52-.74.52h-10.82c-.41,0-.74-.23-.74-.52v-22.61c0-.29.33-.52.74-.52Z"/>
  <rect class="st18" x="611.57" y="1011.8" width="73.24" height="8.5"/>
  <rect class="st18" x="684.18" y="994.63" width="44.21" height="8.5"/>
  <rect class="st18" x="556.77" y="1011.8" width="10.84" height="8.5"/>
  <rect class="st18" x="467.24" y="897.45" width="87.89" height="8.5"/>
  <rect class="st18" x="466.47" y="897.45" width="8.5" height="123.04"/>
  <rect class="st18" x="468.48" y="992.07" width="82.77" height="21.26"/>
  <rect class="st18" x="721.65" y="710.01" width="8.5" height="293.16"/>
  <rect class="st18" x="684.07" y="994.63" width="8.5" height="25.68"/>
  <rect class="st18" x="548.81" y="710.01" width="8.5" height="202.4"/>
  <rect class="st18" x="548.81" y="956.48" width="8.5" height="56.87"/>
  <rect class="st18" x="543.2" y="676.65" width="36.85" height="34.02"/>
  <rect class="st18" x="696.68" y="676.65" width="36.85" height="34.02"/>
  <path class="st9" d="M686.56,927.09l-16.54-21.63s7.42-4.51,16.54-4.55"/>
  <path class="st9" d="M686.56,898.14c-9.13-.04-16.54-4.55-16.54-4.55l16.54-21.63"/>
  <g>
    <path class="st6" d="M612.02,1012.27c0-11.6-4.79-22.95-13.11-31.27-8.07-8.07-19.42-12.86-31.01-12.86"/>
    <line class="st6" x1="569.66" y1="1012.27" x2="612.02" y2="1012.27"/>
    <polyline class="st6" points="567.9 968.15 567.9 1012.27 569.66 1012.27"/>
  </g>
  <g>
    <path class="st6" d="M553.48,956.48c-11.6,0-22.94-4.79-31.27-13.11-8.07-8.07-12.86-19.41-12.86-31.01"/>
    <line class="st6" x1="553.48" y1="914.12" x2="553.48" y2="956.48"/>
    <polyline class="st6" points="509.35 912.36 553.48 912.36 553.48 914.12"/>
  </g>
  <g>
    <g>
      <g>
        <path class="st8" d="M636.88,686.04c0,14.25-5.89,28.19-16.11,38.41-9.91,9.91-23.85,15.8-38.1,15.8"/>
        <path class="st8" d="M636.88,686.04"/>
        <path class="st8" d="M582.67,686.04"/>
        <line class="st8" x1="582.67" y1="740.24" x2="582.67" y2="686.04"/>
      </g>
      <line class="st6" x1="610.01" y1="679.76" x2="638.15" y2="679.76"/>
      <line class="st6" x1="638.57" y1="679.76" x2="666.65" y2="679.76"/>
      <line class="st6" x1="667.07" y1="679.76" x2="695.33" y2="679.76"/>
      <line class="st6" x1="581.33" y1="679.76" x2="609.65" y2="679.76"/>
      <line class="st6" x1="582.65" y1="680.72" x2="608.39" y2="680.72"/>
      <line class="st6" x1="611.33" y1="680.72" x2="636.89" y2="680.72"/>
      <line class="st6" x1="668.33" y1="680.72" x2="694.07" y2="680.72"/>
      <line class="st6" x1="639.83" y1="680.72" x2="665.39" y2="680.72"/>
      <line class="st6" x1="694.07" y1="686.06" x2="668.33" y2="686.06"/>
      <line class="st6" x1="665.39" y1="686.06" x2="639.83" y2="686.06"/>
      <line class="st6" x1="636.89" y1="686.06" x2="611.33" y2="686.06"/>
      <line class="st6" x1="608.39" y1="686.06" x2="582.65" y2="686.06"/>
      <polyline class="st6" points="582.65 684.08 608.39 684.08 608.39 686.06 611.33 686.06 611.33 684.08 636.89 684.08 636.89 686.06 639.83 686.06 639.83 684.08 665.39 684.08 665.39 686.06 668.33 686.06 668.33 684.08 694.07 684.08 694.07 686.06 695.75 686.06 695.75 679.76 695.33 679.76 695.33 680.72 694.07 680.72 694.07 681.8 668.33 681.8 668.33 680.72 667.07 680.72 667.07 679.76 666.65 679.76 666.65 680.72 665.39 680.72 665.39 681.8 639.83 681.8 639.83 680.72 638.57 680.72 638.57 679.76 638.15 679.76 638.15 680.72 636.89 680.72 636.89 681.8 611.33 681.8 611.33 680.72 610.01 680.72 610.01 679.76 609.65 679.76 609.65 680.72 608.39 680.72 608.39 681.8 582.65 681.8 582.65 680.72 581.33 680.72 581.33 679.76 580.97 679.76 580.97 686.06 582.65 686.06 582.65 684.08"/>
      <line class="st6" x1="638.03" y1="681.8" x2="581.51" y2="681.8"/>
    </g>
    <line class="st5" x1="696.83" y1="676.8" x2="580.04" y2="676.8"/>
  </g>
  <polyline class="st16" points="724.32 875.87 629.16 875.87 629.16 1017.35"/>
  <path class="st16" d="M724.32,1017.35"/>
</svg>